%TF.GenerationSoftware,KiCad,Pcbnew,9.0.1*%
%TF.CreationDate,2026-02-06T20:35:43-08:00*%
%TF.ProjectId,GateDriver,47617465-4472-4697-9665-722e6b696361,rev?*%
%TF.SameCoordinates,Original*%
%TF.FileFunction,Copper,L2,Inr*%
%TF.FilePolarity,Positive*%
%FSLAX46Y46*%
G04 Gerber Fmt 4.6, Leading zero omitted, Abs format (unit mm)*
G04 Created by KiCad (PCBNEW 9.0.1) date 2026-02-06 20:35:43*
%MOMM*%
%LPD*%
G01*
G04 APERTURE LIST*
%TA.AperFunction,ComponentPad*%
%ADD10C,3.000000*%
%TD*%
%TA.AperFunction,ComponentPad*%
%ADD11R,3.000000X6.000000*%
%TD*%
%TA.AperFunction,ComponentPad*%
%ADD12C,4.400000*%
%TD*%
%TA.AperFunction,ComponentPad*%
%ADD13R,1.700000X1.700000*%
%TD*%
%TA.AperFunction,ComponentPad*%
%ADD14C,1.700000*%
%TD*%
%TA.AperFunction,ViaPad*%
%ADD15C,0.600000*%
%TD*%
G04 APERTURE END LIST*
D10*
%TO.N,/RESET*%
%TO.C,TP2*%
X15000000Y-56500000D03*
%TD*%
%TO.N,/READY*%
%TO.C,TP1*%
X25000000Y-56500000D03*
%TD*%
%TO.N,/PH_H*%
%TO.C,TP5*%
X35750000Y-44750000D03*
%TD*%
%TO.N,/PH_L*%
%TO.C,TP6*%
X40250000Y-44750000D03*
%TD*%
D11*
%TO.N,/PH_L_G*%
%TO.C,Q1*%
X51000000Y-6300000D03*
%TO.N,/SingleChannelDriver1/GND_B*%
X45000000Y-6300000D03*
%TO.N,/PH_H_G*%
X24000000Y-6300000D03*
%TO.N,/SingleChannelDriver/GND_B*%
X30000000Y-6300000D03*
%TD*%
D12*
%TO.N,/PH_H_C*%
%TO.C,H5*%
X3000000Y-19000000D03*
%TD*%
D13*
%TO.N,/GND_A*%
%TO.C,J1*%
X29750000Y-57790000D03*
D14*
%TO.N,/FAULT*%
X29750000Y-55250000D03*
%TO.N,/GND_A*%
X32290000Y-57790000D03*
%TO.N,/READY*%
X32290000Y-55250000D03*
%TO.N,/GND_A*%
X34830000Y-57790000D03*
%TO.N,/RESET*%
X34830000Y-55250000D03*
%TO.N,/GND_A*%
X37370000Y-57790000D03*
X37370000Y-55250000D03*
X39910000Y-57790000D03*
%TO.N,/PH_L*%
X39910000Y-55250000D03*
%TO.N,/GND_A*%
X42450000Y-57790000D03*
%TO.N,/PH_H*%
X42450000Y-55250000D03*
%TO.N,/GND_A*%
X44990000Y-57790000D03*
%TO.N,/+3.3V_A*%
X44990000Y-55250000D03*
%TO.N,/GND_A*%
X47530000Y-57790000D03*
%TO.N,/+12V_A*%
X47530000Y-55250000D03*
%TD*%
D10*
%TO.N,/GND_A*%
%TO.C,TP4*%
X15000000Y-50000000D03*
%TD*%
%TO.N,/FAULT*%
%TO.C,TP3*%
X20000000Y-56500000D03*
%TD*%
D12*
%TO.N,/PH_L_C*%
%TO.C,H4*%
X72000000Y-19000000D03*
%TD*%
D15*
%TO.N,/GND_A*%
X28507500Y-44712000D03*
X54062500Y-52000000D03*
X52000000Y-46500000D03*
X28000000Y-49000000D03*
X32500000Y-49000000D03*
X25500000Y-53500000D03*
X59500000Y-57500000D03*
X25750000Y-50000000D03*
X42000000Y-49500000D03*
X23427500Y-44712000D03*
X56945000Y-44712000D03*
%TO.N,/+3.3V_A*%
X50595000Y-48000000D03*
X67950000Y-45000000D03*
X22500000Y-48500000D03*
X50937500Y-52000000D03*
X37250000Y-49500000D03*
X22500000Y-52000000D03*
%TO.N,/+12V_A*%
X59485000Y-46390000D03*
X59500000Y-50000000D03*
X7550000Y-45000000D03*
X31047500Y-46390000D03*
%TO.N,/SingleChannelDriver1/GND_B*%
X61500000Y-28000000D03*
X48055000Y-34500000D03*
X60500000Y-24500000D03*
X48000000Y-24500000D03*
%TO.N,/SingleChannelDriver1/+15V_B*%
X51865000Y-34500000D03*
X53135000Y-34500000D03*
X71500000Y-32437500D03*
X67000000Y-32437500D03*
X44000000Y-31937500D03*
X65500000Y-31500000D03*
X52625000Y-32000000D03*
X59485000Y-30390000D03*
X44000000Y-25000000D03*
%TO.N,/SingleChannelDriver1/-9V_B*%
X49500000Y-32000000D03*
X71500000Y-35562500D03*
X49437500Y-34500000D03*
X57000000Y-35288000D03*
X67000000Y-35562500D03*
X49437500Y-28500000D03*
X59437500Y-35000000D03*
X56000000Y-35288000D03*
%TO.N,Net-(IC1-DESAT)*%
X66500000Y-25500000D03*
X55500000Y-33000000D03*
X51000000Y-33000000D03*
X56000000Y-29500000D03*
%TO.N,/SingleChannelDriver/GND_B*%
X14500000Y-25500000D03*
X19617500Y-34500000D03*
X14500000Y-24500000D03*
%TO.N,/SingleChannelDriver/+15V_B*%
X23427500Y-34500000D03*
X24562500Y-34500000D03*
X32562500Y-24500000D03*
X15250000Y-27500000D03*
X32562500Y-21000000D03*
X31047500Y-30390000D03*
X14500000Y-31500000D03*
X15250000Y-27500000D03*
%TO.N,/SingleChannelDriver/-9V_B*%
X29437500Y-21250000D03*
X29937500Y-35000000D03*
X27237500Y-35288000D03*
X21437500Y-28500000D03*
X21437500Y-32000000D03*
X29394279Y-24478219D03*
X20887500Y-34500000D03*
X28500000Y-35288000D03*
%TO.N,Net-(IC2-DESAT)*%
X23000000Y-30250000D03*
X7900000Y-28000000D03*
%TO.N,Net-(D1-A)*%
X49000000Y-20000000D03*
%TO.N,Net-(D2-A)*%
X72100000Y-28000000D03*
%TO.N,Net-(D3-A)*%
X24500000Y-19100000D03*
%TO.N,Net-(D4-A)*%
X3000000Y-28150000D03*
%TO.N,Net-(FB1-Pad2)*%
X49000000Y-17000000D03*
%TO.N,Net-(FB2-Pad2)*%
X24500000Y-16000000D03*
%TO.N,/FAULT*%
X52900000Y-52969873D03*
X24250000Y-50500000D03*
X20000000Y-50500000D03*
X30000000Y-52550000D03*
%TO.N,/READY*%
X35000000Y-52500000D03*
X31750000Y-51125000D03*
X55500000Y-50250000D03*
X27250000Y-54750000D03*
X41744086Y-50949000D03*
X27237500Y-51000000D03*
%TO.N,/PH_H*%
X19750000Y-46250000D03*
X43500000Y-47250000D03*
X44000000Y-49000000D03*
X35750000Y-47250000D03*
X49000000Y-48750000D03*
%TO.N,/RESET*%
X52250000Y-53750000D03*
X18250000Y-49250000D03*
X23750000Y-49250000D03*
X40000000Y-50949000D03*
X40000000Y-52500000D03*
%TO.N,/PH_L*%
X40250000Y-48000000D03*
X20750000Y-47000000D03*
X48000000Y-48000000D03*
X42750000Y-48000000D03*
%TO.N,Net-(LED2-A)*%
X70500000Y-45000000D03*
%TO.N,Net-(LED5-A)*%
X5000000Y-45000000D03*
%TD*%
%TA.AperFunction,Conductor*%
%TO.N,/GND_A*%
G36*
X34446212Y-43019685D02*
G01*
X34491967Y-43072489D01*
X34501911Y-43141647D01*
X34472886Y-43205203D01*
X34454663Y-43222372D01*
X34433721Y-43238441D01*
X34428141Y-43242724D01*
X34428140Y-43242726D01*
X34242718Y-43428148D01*
X34083075Y-43636196D01*
X33951958Y-43863299D01*
X33951953Y-43863309D01*
X33851605Y-44105571D01*
X33851602Y-44105581D01*
X33783730Y-44358884D01*
X33781185Y-44378213D01*
X33749500Y-44618872D01*
X33749500Y-44881127D01*
X33775531Y-45078842D01*
X33783730Y-45141116D01*
X33847520Y-45379185D01*
X33851602Y-45394418D01*
X33851605Y-45394428D01*
X33951953Y-45636690D01*
X33951958Y-45636700D01*
X34083075Y-45863803D01*
X34242718Y-46071851D01*
X34242726Y-46071860D01*
X34428140Y-46257274D01*
X34428148Y-46257281D01*
X34636196Y-46416924D01*
X34863299Y-46548041D01*
X34863300Y-46548041D01*
X34863303Y-46548043D01*
X35031499Y-46617712D01*
X35085902Y-46661553D01*
X35107967Y-46727847D01*
X35090688Y-46795546D01*
X35087149Y-46801163D01*
X35040608Y-46870816D01*
X35040602Y-46870827D01*
X34980264Y-47016498D01*
X34980261Y-47016510D01*
X34949500Y-47171153D01*
X34949500Y-47328846D01*
X34980261Y-47483489D01*
X34980264Y-47483501D01*
X35040602Y-47629172D01*
X35040609Y-47629185D01*
X35128210Y-47760288D01*
X35128213Y-47760292D01*
X35239707Y-47871786D01*
X35239711Y-47871789D01*
X35370814Y-47959390D01*
X35370827Y-47959397D01*
X35516498Y-48019735D01*
X35516503Y-48019737D01*
X35671153Y-48050499D01*
X35671156Y-48050500D01*
X35671158Y-48050500D01*
X35828844Y-48050500D01*
X35828845Y-48050499D01*
X35983497Y-48019737D01*
X36096166Y-47973067D01*
X36129172Y-47959397D01*
X36129172Y-47959396D01*
X36129179Y-47959394D01*
X36186411Y-47921153D01*
X39449500Y-47921153D01*
X39449500Y-48078846D01*
X39480261Y-48233489D01*
X39480264Y-48233501D01*
X39540602Y-48379172D01*
X39540609Y-48379185D01*
X39628210Y-48510288D01*
X39628213Y-48510292D01*
X39739707Y-48621786D01*
X39739711Y-48621789D01*
X39870814Y-48709390D01*
X39870827Y-48709397D01*
X39944013Y-48739711D01*
X40016503Y-48769737D01*
X40170680Y-48800405D01*
X40171153Y-48800499D01*
X40171156Y-48800500D01*
X40171158Y-48800500D01*
X40328844Y-48800500D01*
X40328845Y-48800499D01*
X40483497Y-48769737D01*
X40629179Y-48709394D01*
X40760289Y-48621789D01*
X40871789Y-48510289D01*
X40959394Y-48379179D01*
X41019737Y-48233497D01*
X41050500Y-48078842D01*
X41050500Y-47921158D01*
X41050500Y-47921155D01*
X41050499Y-47921153D01*
X41949500Y-47921153D01*
X41949500Y-48078846D01*
X41980261Y-48233489D01*
X41980264Y-48233501D01*
X42040602Y-48379172D01*
X42040609Y-48379185D01*
X42128210Y-48510288D01*
X42128213Y-48510292D01*
X42239707Y-48621786D01*
X42239711Y-48621789D01*
X42370814Y-48709390D01*
X42370827Y-48709397D01*
X42444013Y-48739711D01*
X42516503Y-48769737D01*
X42670680Y-48800405D01*
X42671153Y-48800499D01*
X42671156Y-48800500D01*
X42671158Y-48800500D01*
X42828844Y-48800500D01*
X42828845Y-48800499D01*
X42983497Y-48769737D01*
X43037390Y-48747413D01*
X43106859Y-48739945D01*
X43169338Y-48771220D01*
X43204990Y-48831309D01*
X43206460Y-48886164D01*
X43199500Y-48921157D01*
X43199500Y-49078846D01*
X43230261Y-49233489D01*
X43230264Y-49233501D01*
X43290602Y-49379172D01*
X43290609Y-49379185D01*
X43378210Y-49510288D01*
X43378213Y-49510292D01*
X43489707Y-49621786D01*
X43489711Y-49621789D01*
X43620814Y-49709390D01*
X43620827Y-49709397D01*
X43758683Y-49766498D01*
X43766503Y-49769737D01*
X43921153Y-49800499D01*
X43921156Y-49800500D01*
X43921158Y-49800500D01*
X44078844Y-49800500D01*
X44078845Y-49800499D01*
X44233497Y-49769737D01*
X44379179Y-49709394D01*
X44510289Y-49621789D01*
X44621789Y-49510289D01*
X44709394Y-49379179D01*
X44769737Y-49233497D01*
X44800500Y-49078842D01*
X44800500Y-48921158D01*
X44800500Y-48921157D01*
X44800500Y-48921155D01*
X44800499Y-48921153D01*
X44776499Y-48800499D01*
X44769737Y-48766503D01*
X44761830Y-48747414D01*
X44709397Y-48620827D01*
X44709390Y-48620814D01*
X44621789Y-48489711D01*
X44621786Y-48489707D01*
X44510292Y-48378213D01*
X44510288Y-48378210D01*
X44379185Y-48290609D01*
X44379172Y-48290602D01*
X44233501Y-48230264D01*
X44233489Y-48230261D01*
X44078845Y-48199500D01*
X44078842Y-48199500D01*
X43922902Y-48199500D01*
X43855863Y-48179815D01*
X43810108Y-48127011D01*
X43800164Y-48057853D01*
X43829189Y-47994297D01*
X43875451Y-47960938D01*
X43879179Y-47959394D01*
X43936411Y-47921153D01*
X47199500Y-47921153D01*
X47199500Y-48078846D01*
X47230261Y-48233489D01*
X47230264Y-48233501D01*
X47290602Y-48379172D01*
X47290609Y-48379185D01*
X47378210Y-48510288D01*
X47378213Y-48510292D01*
X47489707Y-48621786D01*
X47489711Y-48621789D01*
X47620814Y-48709390D01*
X47620827Y-48709397D01*
X47694013Y-48739711D01*
X47766503Y-48769737D01*
X47920680Y-48800405D01*
X47921153Y-48800499D01*
X47921156Y-48800500D01*
X47921158Y-48800500D01*
X48078841Y-48800500D01*
X48078842Y-48800500D01*
X48078842Y-48800499D01*
X48079806Y-48800405D01*
X48080307Y-48800500D01*
X48084934Y-48800500D01*
X48084934Y-48801377D01*
X48148452Y-48813424D01*
X48199162Y-48861489D01*
X48213577Y-48899616D01*
X48230261Y-48983491D01*
X48230264Y-48983501D01*
X48290602Y-49129172D01*
X48290609Y-49129185D01*
X48378210Y-49260288D01*
X48378213Y-49260292D01*
X48489707Y-49371786D01*
X48489711Y-49371789D01*
X48620814Y-49459390D01*
X48620827Y-49459397D01*
X48766498Y-49519735D01*
X48766503Y-49519737D01*
X48921153Y-49550499D01*
X48921156Y-49550500D01*
X48921158Y-49550500D01*
X49078844Y-49550500D01*
X49078845Y-49550499D01*
X49233497Y-49519737D01*
X49379179Y-49459394D01*
X49510289Y-49371789D01*
X49621789Y-49260289D01*
X49709394Y-49129179D01*
X49712854Y-49120827D01*
X49730244Y-49078842D01*
X49769737Y-48983497D01*
X49800500Y-48828842D01*
X49800500Y-48671158D01*
X49797419Y-48655669D01*
X49803645Y-48586079D01*
X49846507Y-48530901D01*
X49912396Y-48507655D01*
X49980393Y-48523721D01*
X50006717Y-48543796D01*
X50084707Y-48621786D01*
X50084711Y-48621789D01*
X50215814Y-48709390D01*
X50215827Y-48709397D01*
X50289013Y-48739711D01*
X50361503Y-48769737D01*
X50515680Y-48800405D01*
X50516153Y-48800499D01*
X50516156Y-48800500D01*
X50516158Y-48800500D01*
X50673844Y-48800500D01*
X50673845Y-48800499D01*
X50828497Y-48769737D01*
X50974179Y-48709394D01*
X51105289Y-48621789D01*
X51216789Y-48510289D01*
X51304394Y-48379179D01*
X51364737Y-48233497D01*
X51395500Y-48078842D01*
X51395500Y-47921158D01*
X51395500Y-47921155D01*
X51395499Y-47921153D01*
X51369531Y-47790606D01*
X51364737Y-47766503D01*
X51362163Y-47760288D01*
X51304397Y-47620827D01*
X51304390Y-47620814D01*
X51216789Y-47489711D01*
X51216786Y-47489707D01*
X51105292Y-47378213D01*
X51105288Y-47378210D01*
X50974185Y-47290609D01*
X50974172Y-47290602D01*
X50828501Y-47230264D01*
X50828489Y-47230261D01*
X50673845Y-47199500D01*
X50673842Y-47199500D01*
X50516158Y-47199500D01*
X50516155Y-47199500D01*
X50361510Y-47230261D01*
X50361498Y-47230264D01*
X50215827Y-47290602D01*
X50215814Y-47290609D01*
X50084711Y-47378210D01*
X50084707Y-47378213D01*
X49973213Y-47489707D01*
X49973210Y-47489711D01*
X49885609Y-47620814D01*
X49885602Y-47620827D01*
X49825264Y-47766498D01*
X49825261Y-47766510D01*
X49794500Y-47921153D01*
X49794500Y-47921158D01*
X49794500Y-48078842D01*
X49794501Y-48078846D01*
X49797581Y-48094332D01*
X49791352Y-48163924D01*
X49748489Y-48219101D01*
X49682599Y-48242344D01*
X49614602Y-48226275D01*
X49588282Y-48206203D01*
X49510292Y-48128213D01*
X49510288Y-48128210D01*
X49379185Y-48040609D01*
X49379172Y-48040602D01*
X49233501Y-47980264D01*
X49233489Y-47980261D01*
X49078845Y-47949500D01*
X49078842Y-47949500D01*
X48921158Y-47949500D01*
X48921150Y-47949500D01*
X48920174Y-47949596D01*
X48919668Y-47949500D01*
X48915066Y-47949500D01*
X48915066Y-47948626D01*
X48851530Y-47936566D01*
X48800827Y-47888494D01*
X48786422Y-47850382D01*
X48774531Y-47790606D01*
X48769737Y-47766503D01*
X48767163Y-47760288D01*
X48709397Y-47620827D01*
X48709390Y-47620814D01*
X48621789Y-47489711D01*
X48621786Y-47489707D01*
X48510292Y-47378213D01*
X48510288Y-47378210D01*
X48379185Y-47290609D01*
X48379172Y-47290602D01*
X48233501Y-47230264D01*
X48233489Y-47230261D01*
X48078845Y-47199500D01*
X48078842Y-47199500D01*
X47921158Y-47199500D01*
X47921155Y-47199500D01*
X47766510Y-47230261D01*
X47766498Y-47230264D01*
X47620827Y-47290602D01*
X47620814Y-47290609D01*
X47489711Y-47378210D01*
X47489707Y-47378213D01*
X47378213Y-47489707D01*
X47378210Y-47489711D01*
X47290609Y-47620814D01*
X47290602Y-47620827D01*
X47230264Y-47766498D01*
X47230261Y-47766510D01*
X47199500Y-47921153D01*
X43936411Y-47921153D01*
X44010289Y-47871789D01*
X44031696Y-47850382D01*
X44054694Y-47827385D01*
X44121786Y-47760292D01*
X44121789Y-47760289D01*
X44209394Y-47629179D01*
X44212854Y-47620827D01*
X44267163Y-47489711D01*
X44269737Y-47483497D01*
X44300500Y-47328842D01*
X44300500Y-47171158D01*
X44300500Y-47171155D01*
X44300499Y-47171153D01*
X44276499Y-47050499D01*
X44269737Y-47016503D01*
X44230242Y-46921153D01*
X44209397Y-46870827D01*
X44209390Y-46870814D01*
X44121789Y-46739711D01*
X44121786Y-46739707D01*
X44010292Y-46628213D01*
X44010288Y-46628210D01*
X43879185Y-46540609D01*
X43879172Y-46540602D01*
X43733501Y-46480264D01*
X43733489Y-46480261D01*
X43578845Y-46449500D01*
X43578842Y-46449500D01*
X43421158Y-46449500D01*
X43421155Y-46449500D01*
X43266510Y-46480261D01*
X43266498Y-46480264D01*
X43120827Y-46540602D01*
X43120814Y-46540609D01*
X42989711Y-46628210D01*
X42989707Y-46628213D01*
X42878213Y-46739707D01*
X42878210Y-46739711D01*
X42790609Y-46870814D01*
X42790602Y-46870827D01*
X42730264Y-47016498D01*
X42730261Y-47016508D01*
X42710961Y-47113536D01*
X42678576Y-47175447D01*
X42617860Y-47210021D01*
X42613536Y-47210961D01*
X42516508Y-47230261D01*
X42516498Y-47230264D01*
X42370827Y-47290602D01*
X42370814Y-47290609D01*
X42239711Y-47378210D01*
X42239707Y-47378213D01*
X42128213Y-47489707D01*
X42128210Y-47489711D01*
X42040609Y-47620814D01*
X42040602Y-47620827D01*
X41980264Y-47766498D01*
X41980261Y-47766510D01*
X41949500Y-47921153D01*
X41050499Y-47921153D01*
X41024531Y-47790606D01*
X41019737Y-47766503D01*
X41017163Y-47760288D01*
X40959397Y-47620827D01*
X40959390Y-47620814D01*
X40871789Y-47489711D01*
X40871786Y-47489707D01*
X40760292Y-47378213D01*
X40760288Y-47378210D01*
X40629185Y-47290609D01*
X40629172Y-47290602D01*
X40483501Y-47230264D01*
X40483489Y-47230261D01*
X40328845Y-47199500D01*
X40328842Y-47199500D01*
X40171158Y-47199500D01*
X40171155Y-47199500D01*
X40016510Y-47230261D01*
X40016498Y-47230264D01*
X39870827Y-47290602D01*
X39870814Y-47290609D01*
X39739711Y-47378210D01*
X39739707Y-47378213D01*
X39628213Y-47489707D01*
X39628210Y-47489711D01*
X39540609Y-47620814D01*
X39540602Y-47620827D01*
X39480264Y-47766498D01*
X39480261Y-47766510D01*
X39449500Y-47921153D01*
X36186411Y-47921153D01*
X36260289Y-47871789D01*
X36281696Y-47850382D01*
X36304694Y-47827385D01*
X36371786Y-47760292D01*
X36371789Y-47760289D01*
X36459394Y-47629179D01*
X36462854Y-47620827D01*
X36517163Y-47489711D01*
X36519737Y-47483497D01*
X36550500Y-47328842D01*
X36550500Y-47171158D01*
X36550500Y-47171155D01*
X36550499Y-47171153D01*
X36526499Y-47050499D01*
X36519737Y-47016503D01*
X36480242Y-46921153D01*
X36459397Y-46870827D01*
X36459390Y-46870814D01*
X36412851Y-46801164D01*
X36391973Y-46734487D01*
X36410457Y-46667106D01*
X36462436Y-46620416D01*
X36468501Y-46617712D01*
X36636685Y-46548048D01*
X36636685Y-46548047D01*
X36636697Y-46548043D01*
X36863803Y-46416924D01*
X37071851Y-46257282D01*
X37071855Y-46257277D01*
X37071860Y-46257274D01*
X37257274Y-46071860D01*
X37257277Y-46071855D01*
X37257282Y-46071851D01*
X37416924Y-45863803D01*
X37548043Y-45636697D01*
X37551559Y-45628210D01*
X37612841Y-45480261D01*
X37648398Y-45394419D01*
X37716270Y-45141116D01*
X37750500Y-44881120D01*
X37750500Y-44618880D01*
X37716270Y-44358884D01*
X37648398Y-44105581D01*
X37648394Y-44105571D01*
X37548046Y-43863309D01*
X37548041Y-43863299D01*
X37416924Y-43636196D01*
X37257281Y-43428148D01*
X37257274Y-43428140D01*
X37071858Y-43242724D01*
X37071853Y-43242720D01*
X37071851Y-43242718D01*
X37045338Y-43222373D01*
X37004137Y-43165946D01*
X36999983Y-43096200D01*
X37034196Y-43035280D01*
X37095914Y-43002528D01*
X37120827Y-43000000D01*
X38879173Y-43000000D01*
X38946212Y-43019685D01*
X38991967Y-43072489D01*
X39001911Y-43141647D01*
X38972886Y-43205203D01*
X38954663Y-43222372D01*
X38933721Y-43238441D01*
X38928141Y-43242724D01*
X38928140Y-43242726D01*
X38742718Y-43428148D01*
X38583075Y-43636196D01*
X38451958Y-43863299D01*
X38451953Y-43863309D01*
X38351605Y-44105571D01*
X38351602Y-44105581D01*
X38283730Y-44358884D01*
X38281185Y-44378213D01*
X38249500Y-44618872D01*
X38249500Y-44881127D01*
X38275531Y-45078842D01*
X38283730Y-45141116D01*
X38347520Y-45379185D01*
X38351602Y-45394418D01*
X38351605Y-45394428D01*
X38451953Y-45636690D01*
X38451958Y-45636700D01*
X38583075Y-45863803D01*
X38742718Y-46071851D01*
X38742726Y-46071860D01*
X38928140Y-46257274D01*
X38928148Y-46257281D01*
X39136196Y-46416924D01*
X39363299Y-46548041D01*
X39363309Y-46548046D01*
X39605571Y-46648394D01*
X39605581Y-46648398D01*
X39858884Y-46716270D01*
X40118880Y-46750500D01*
X40118887Y-46750500D01*
X40381113Y-46750500D01*
X40381120Y-46750500D01*
X40641116Y-46716270D01*
X40894419Y-46648398D01*
X41136697Y-46548043D01*
X41363803Y-46416924D01*
X41501645Y-46311153D01*
X58684500Y-46311153D01*
X58684500Y-46468846D01*
X58715261Y-46623489D01*
X58715264Y-46623501D01*
X58775602Y-46769172D01*
X58775609Y-46769185D01*
X58863210Y-46900288D01*
X58863213Y-46900292D01*
X58974707Y-47011786D01*
X58974711Y-47011789D01*
X59105814Y-47099390D01*
X59105827Y-47099397D01*
X59251498Y-47159735D01*
X59251503Y-47159737D01*
X59406153Y-47190499D01*
X59406156Y-47190500D01*
X59406158Y-47190500D01*
X59563844Y-47190500D01*
X59563845Y-47190499D01*
X59718497Y-47159737D01*
X59864179Y-47099394D01*
X59995289Y-47011789D01*
X60106789Y-46900289D01*
X60194394Y-46769179D01*
X60195503Y-46766503D01*
X60234449Y-46672476D01*
X60254737Y-46623497D01*
X60285500Y-46468842D01*
X60285500Y-46311158D01*
X60285500Y-46311155D01*
X60285499Y-46311153D01*
X60254737Y-46156503D01*
X60254735Y-46156498D01*
X60194397Y-46010827D01*
X60194390Y-46010814D01*
X60106789Y-45879711D01*
X60106786Y-45879707D01*
X59995292Y-45768213D01*
X59995288Y-45768210D01*
X59864185Y-45680609D01*
X59864172Y-45680602D01*
X59718501Y-45620264D01*
X59718489Y-45620261D01*
X59563845Y-45589500D01*
X59563842Y-45589500D01*
X59406158Y-45589500D01*
X59406155Y-45589500D01*
X59251510Y-45620261D01*
X59251498Y-45620264D01*
X59105827Y-45680602D01*
X59105814Y-45680609D01*
X58974711Y-45768210D01*
X58974707Y-45768213D01*
X58863213Y-45879707D01*
X58863210Y-45879711D01*
X58775609Y-46010814D01*
X58775602Y-46010827D01*
X58715264Y-46156498D01*
X58715261Y-46156510D01*
X58684500Y-46311153D01*
X41501645Y-46311153D01*
X41571851Y-46257282D01*
X41571855Y-46257277D01*
X41571860Y-46257274D01*
X41757274Y-46071860D01*
X41757277Y-46071855D01*
X41757282Y-46071851D01*
X41916924Y-45863803D01*
X42048043Y-45636697D01*
X42051559Y-45628210D01*
X42112841Y-45480261D01*
X42148398Y-45394419D01*
X42216270Y-45141116D01*
X42245229Y-44921153D01*
X67149500Y-44921153D01*
X67149500Y-45078846D01*
X67180261Y-45233489D01*
X67180264Y-45233501D01*
X67240602Y-45379172D01*
X67240609Y-45379185D01*
X67328210Y-45510288D01*
X67328213Y-45510292D01*
X67439707Y-45621786D01*
X67439711Y-45621789D01*
X67570814Y-45709390D01*
X67570827Y-45709397D01*
X67644013Y-45739711D01*
X67716503Y-45769737D01*
X67871153Y-45800499D01*
X67871156Y-45800500D01*
X67871158Y-45800500D01*
X68028844Y-45800500D01*
X68028845Y-45800499D01*
X68183497Y-45769737D01*
X68329179Y-45709394D01*
X68460289Y-45621789D01*
X68571789Y-45510289D01*
X68659394Y-45379179D01*
X68719737Y-45233497D01*
X68750500Y-45078842D01*
X68750500Y-44921158D01*
X68750500Y-44921155D01*
X68750499Y-44921153D01*
X69699500Y-44921153D01*
X69699500Y-45078846D01*
X69730261Y-45233489D01*
X69730264Y-45233501D01*
X69790602Y-45379172D01*
X69790609Y-45379185D01*
X69878210Y-45510288D01*
X69878213Y-45510292D01*
X69989707Y-45621786D01*
X69989711Y-45621789D01*
X70120814Y-45709390D01*
X70120827Y-45709397D01*
X70194013Y-45739711D01*
X70266503Y-45769737D01*
X70421153Y-45800499D01*
X70421156Y-45800500D01*
X70421158Y-45800500D01*
X70578844Y-45800500D01*
X70578845Y-45800499D01*
X70733497Y-45769737D01*
X70879179Y-45709394D01*
X71010289Y-45621789D01*
X71121789Y-45510289D01*
X71209394Y-45379179D01*
X71269737Y-45233497D01*
X71300500Y-45078842D01*
X71300500Y-44921158D01*
X71300500Y-44921155D01*
X71300499Y-44921153D01*
X71292536Y-44881120D01*
X71269737Y-44766503D01*
X71269735Y-44766498D01*
X71209397Y-44620827D01*
X71209390Y-44620814D01*
X71121789Y-44489711D01*
X71121786Y-44489707D01*
X71010292Y-44378213D01*
X71010288Y-44378210D01*
X70879185Y-44290609D01*
X70879172Y-44290602D01*
X70733501Y-44230264D01*
X70733489Y-44230261D01*
X70578845Y-44199500D01*
X70578842Y-44199500D01*
X70421158Y-44199500D01*
X70421155Y-44199500D01*
X70266510Y-44230261D01*
X70266498Y-44230264D01*
X70120827Y-44290602D01*
X70120814Y-44290609D01*
X69989711Y-44378210D01*
X69989707Y-44378213D01*
X69878213Y-44489707D01*
X69878210Y-44489711D01*
X69790609Y-44620814D01*
X69790602Y-44620827D01*
X69730264Y-44766498D01*
X69730261Y-44766510D01*
X69699500Y-44921153D01*
X68750499Y-44921153D01*
X68742536Y-44881120D01*
X68719737Y-44766503D01*
X68719735Y-44766498D01*
X68659397Y-44620827D01*
X68659390Y-44620814D01*
X68571789Y-44489711D01*
X68571786Y-44489707D01*
X68460292Y-44378213D01*
X68460288Y-44378210D01*
X68329185Y-44290609D01*
X68329172Y-44290602D01*
X68183501Y-44230264D01*
X68183489Y-44230261D01*
X68028845Y-44199500D01*
X68028842Y-44199500D01*
X67871158Y-44199500D01*
X67871155Y-44199500D01*
X67716510Y-44230261D01*
X67716498Y-44230264D01*
X67570827Y-44290602D01*
X67570814Y-44290609D01*
X67439711Y-44378210D01*
X67439707Y-44378213D01*
X67328213Y-44489707D01*
X67328210Y-44489711D01*
X67240609Y-44620814D01*
X67240602Y-44620827D01*
X67180264Y-44766498D01*
X67180261Y-44766510D01*
X67149500Y-44921153D01*
X42245229Y-44921153D01*
X42250500Y-44881120D01*
X42250500Y-44618880D01*
X42216270Y-44358884D01*
X42148398Y-44105581D01*
X42148394Y-44105571D01*
X42048046Y-43863309D01*
X42048041Y-43863299D01*
X41916924Y-43636196D01*
X41757281Y-43428148D01*
X41757274Y-43428140D01*
X41571858Y-43242724D01*
X41571853Y-43242720D01*
X41571851Y-43242718D01*
X41545338Y-43222373D01*
X41504137Y-43165946D01*
X41499983Y-43096200D01*
X41534196Y-43035280D01*
X41595914Y-43002528D01*
X41620827Y-43000000D01*
X74375500Y-43000000D01*
X74442539Y-43019685D01*
X74488294Y-43072489D01*
X74499500Y-43124000D01*
X74499500Y-59375500D01*
X74479815Y-59442539D01*
X74427011Y-59488294D01*
X74375500Y-59499500D01*
X624500Y-59499500D01*
X557461Y-59479815D01*
X511706Y-59427011D01*
X500500Y-59375500D01*
X500500Y-56368872D01*
X12999500Y-56368872D01*
X12999500Y-56631127D01*
X13026123Y-56833339D01*
X13033730Y-56891116D01*
X13101602Y-57144418D01*
X13101605Y-57144428D01*
X13201953Y-57386690D01*
X13201958Y-57386700D01*
X13333075Y-57613803D01*
X13492718Y-57821851D01*
X13492726Y-57821860D01*
X13678140Y-58007274D01*
X13678148Y-58007281D01*
X13886196Y-58166924D01*
X14113299Y-58298041D01*
X14113309Y-58298046D01*
X14355571Y-58398394D01*
X14355581Y-58398398D01*
X14608884Y-58466270D01*
X14868880Y-58500500D01*
X14868887Y-58500500D01*
X15131113Y-58500500D01*
X15131120Y-58500500D01*
X15391116Y-58466270D01*
X15644419Y-58398398D01*
X15886697Y-58298043D01*
X16113803Y-58166924D01*
X16321851Y-58007282D01*
X16321855Y-58007277D01*
X16321860Y-58007274D01*
X16507274Y-57821860D01*
X16507277Y-57821855D01*
X16507282Y-57821851D01*
X16666924Y-57613803D01*
X16798043Y-57386697D01*
X16898398Y-57144419D01*
X16966270Y-56891116D01*
X17000500Y-56631120D01*
X17000500Y-56368880D01*
X17000499Y-56368872D01*
X17999500Y-56368872D01*
X17999500Y-56631127D01*
X18026123Y-56833339D01*
X18033730Y-56891116D01*
X18101602Y-57144418D01*
X18101605Y-57144428D01*
X18201953Y-57386690D01*
X18201958Y-57386700D01*
X18333075Y-57613803D01*
X18492718Y-57821851D01*
X18492726Y-57821860D01*
X18678140Y-58007274D01*
X18678148Y-58007281D01*
X18886196Y-58166924D01*
X19113299Y-58298041D01*
X19113309Y-58298046D01*
X19355571Y-58398394D01*
X19355581Y-58398398D01*
X19608884Y-58466270D01*
X19868880Y-58500500D01*
X19868887Y-58500500D01*
X20131113Y-58500500D01*
X20131120Y-58500500D01*
X20391116Y-58466270D01*
X20644419Y-58398398D01*
X20886697Y-58298043D01*
X21113803Y-58166924D01*
X21321851Y-58007282D01*
X21321855Y-58007277D01*
X21321860Y-58007274D01*
X21507274Y-57821860D01*
X21507277Y-57821855D01*
X21507282Y-57821851D01*
X21666924Y-57613803D01*
X21798043Y-57386697D01*
X21898398Y-57144419D01*
X21966270Y-56891116D01*
X22000500Y-56631120D01*
X22000500Y-56368880D01*
X22000499Y-56368872D01*
X22999500Y-56368872D01*
X22999500Y-56631127D01*
X23026123Y-56833339D01*
X23033730Y-56891116D01*
X23101602Y-57144418D01*
X23101605Y-57144428D01*
X23201953Y-57386690D01*
X23201958Y-57386700D01*
X23333075Y-57613803D01*
X23492718Y-57821851D01*
X23492726Y-57821860D01*
X23678140Y-58007274D01*
X23678148Y-58007281D01*
X23886196Y-58166924D01*
X24113299Y-58298041D01*
X24113309Y-58298046D01*
X24355571Y-58398394D01*
X24355581Y-58398398D01*
X24608884Y-58466270D01*
X24868880Y-58500500D01*
X24868887Y-58500500D01*
X25131113Y-58500500D01*
X25131120Y-58500500D01*
X25391116Y-58466270D01*
X25644419Y-58398398D01*
X25886697Y-58298043D01*
X26113803Y-58166924D01*
X26321851Y-58007282D01*
X26321855Y-58007277D01*
X26321860Y-58007274D01*
X26507274Y-57821860D01*
X26507277Y-57821855D01*
X26507282Y-57821851D01*
X26666924Y-57613803D01*
X26798043Y-57386697D01*
X26898398Y-57144419D01*
X26966270Y-56891116D01*
X27000500Y-56631120D01*
X27000500Y-56368880D01*
X26966270Y-56108884D01*
X26898398Y-55855581D01*
X26898394Y-55855571D01*
X26820577Y-55667704D01*
X26813108Y-55598234D01*
X26844383Y-55535755D01*
X26904472Y-55500103D01*
X26974297Y-55502597D01*
X26982583Y-55505687D01*
X27016503Y-55519737D01*
X27171153Y-55550499D01*
X27171156Y-55550500D01*
X27171158Y-55550500D01*
X27328844Y-55550500D01*
X27328845Y-55550499D01*
X27483497Y-55519737D01*
X27629179Y-55459394D01*
X27760289Y-55371789D01*
X27871789Y-55260289D01*
X27949683Y-55143713D01*
X28399500Y-55143713D01*
X28399500Y-55356286D01*
X28430260Y-55550500D01*
X28432754Y-55566243D01*
X28464265Y-55663224D01*
X28498444Y-55768414D01*
X28594951Y-55957820D01*
X28719890Y-56129786D01*
X28870213Y-56280109D01*
X29042179Y-56405048D01*
X29042181Y-56405049D01*
X29042184Y-56405051D01*
X29231588Y-56501557D01*
X29433757Y-56567246D01*
X29643713Y-56600500D01*
X29643714Y-56600500D01*
X29856286Y-56600500D01*
X29856287Y-56600500D01*
X30066243Y-56567246D01*
X30268412Y-56501557D01*
X30457816Y-56405051D01*
X30507593Y-56368886D01*
X30629786Y-56280109D01*
X30629788Y-56280106D01*
X30629792Y-56280104D01*
X30780104Y-56129792D01*
X30780106Y-56129788D01*
X30780109Y-56129786D01*
X30905048Y-55957820D01*
X30905047Y-55957820D01*
X30905051Y-55957816D01*
X30909514Y-55949054D01*
X30957488Y-55898259D01*
X31025308Y-55881463D01*
X31091444Y-55903999D01*
X31130486Y-55949056D01*
X31134951Y-55957820D01*
X31259890Y-56129786D01*
X31410213Y-56280109D01*
X31582179Y-56405048D01*
X31582181Y-56405049D01*
X31582184Y-56405051D01*
X31771588Y-56501557D01*
X31973757Y-56567246D01*
X32183713Y-56600500D01*
X32183714Y-56600500D01*
X32396286Y-56600500D01*
X32396287Y-56600500D01*
X32606243Y-56567246D01*
X32808412Y-56501557D01*
X32997816Y-56405051D01*
X33047593Y-56368886D01*
X33169786Y-56280109D01*
X33169788Y-56280106D01*
X33169792Y-56280104D01*
X33320104Y-56129792D01*
X33320106Y-56129788D01*
X33320109Y-56129786D01*
X33445048Y-55957820D01*
X33445047Y-55957820D01*
X33445051Y-55957816D01*
X33449514Y-55949054D01*
X33497488Y-55898259D01*
X33565308Y-55881463D01*
X33631444Y-55903999D01*
X33670486Y-55949056D01*
X33674951Y-55957820D01*
X33799890Y-56129786D01*
X33950213Y-56280109D01*
X34122179Y-56405048D01*
X34122181Y-56405049D01*
X34122184Y-56405051D01*
X34311588Y-56501557D01*
X34513757Y-56567246D01*
X34723713Y-56600500D01*
X34723714Y-56600500D01*
X34936286Y-56600500D01*
X34936287Y-56600500D01*
X35146243Y-56567246D01*
X35348412Y-56501557D01*
X35537816Y-56405051D01*
X35587593Y-56368886D01*
X35709786Y-56280109D01*
X35709788Y-56280106D01*
X35709792Y-56280104D01*
X35860104Y-56129792D01*
X35860106Y-56129788D01*
X35860109Y-56129786D01*
X35985048Y-55957820D01*
X35985047Y-55957820D01*
X35985051Y-55957816D01*
X36081557Y-55768412D01*
X36147246Y-55566243D01*
X36180500Y-55356287D01*
X36180500Y-55143713D01*
X38559500Y-55143713D01*
X38559500Y-55356286D01*
X38590260Y-55550500D01*
X38592754Y-55566243D01*
X38624265Y-55663224D01*
X38658444Y-55768414D01*
X38754951Y-55957820D01*
X38879890Y-56129786D01*
X39030213Y-56280109D01*
X39202179Y-56405048D01*
X39202181Y-56405049D01*
X39202184Y-56405051D01*
X39391588Y-56501557D01*
X39593757Y-56567246D01*
X39803713Y-56600500D01*
X39803714Y-56600500D01*
X40016286Y-56600500D01*
X40016287Y-56600500D01*
X40226243Y-56567246D01*
X40428412Y-56501557D01*
X40617816Y-56405051D01*
X40667593Y-56368886D01*
X40789786Y-56280109D01*
X40789788Y-56280106D01*
X40789792Y-56280104D01*
X40940104Y-56129792D01*
X40940106Y-56129788D01*
X40940109Y-56129786D01*
X41065048Y-55957820D01*
X41065047Y-55957820D01*
X41065051Y-55957816D01*
X41069514Y-55949054D01*
X41117488Y-55898259D01*
X41185308Y-55881463D01*
X41251444Y-55903999D01*
X41290486Y-55949056D01*
X41294951Y-55957820D01*
X41419890Y-56129786D01*
X41570213Y-56280109D01*
X41742179Y-56405048D01*
X41742181Y-56405049D01*
X41742184Y-56405051D01*
X41931588Y-56501557D01*
X42133757Y-56567246D01*
X42343713Y-56600500D01*
X42343714Y-56600500D01*
X42556286Y-56600500D01*
X42556287Y-56600500D01*
X42766243Y-56567246D01*
X42968412Y-56501557D01*
X43157816Y-56405051D01*
X43207593Y-56368886D01*
X43329786Y-56280109D01*
X43329788Y-56280106D01*
X43329792Y-56280104D01*
X43480104Y-56129792D01*
X43480106Y-56129788D01*
X43480109Y-56129786D01*
X43605048Y-55957820D01*
X43605047Y-55957820D01*
X43605051Y-55957816D01*
X43609514Y-55949054D01*
X43657488Y-55898259D01*
X43725308Y-55881463D01*
X43791444Y-55903999D01*
X43830486Y-55949056D01*
X43834951Y-55957820D01*
X43959890Y-56129786D01*
X44110213Y-56280109D01*
X44282179Y-56405048D01*
X44282181Y-56405049D01*
X44282184Y-56405051D01*
X44471588Y-56501557D01*
X44673757Y-56567246D01*
X44883713Y-56600500D01*
X44883714Y-56600500D01*
X45096286Y-56600500D01*
X45096287Y-56600500D01*
X45306243Y-56567246D01*
X45508412Y-56501557D01*
X45697816Y-56405051D01*
X45747593Y-56368886D01*
X45869786Y-56280109D01*
X45869788Y-56280106D01*
X45869792Y-56280104D01*
X46020104Y-56129792D01*
X46020106Y-56129788D01*
X46020109Y-56129786D01*
X46145048Y-55957820D01*
X46145047Y-55957820D01*
X46145051Y-55957816D01*
X46149514Y-55949054D01*
X46197488Y-55898259D01*
X46265308Y-55881463D01*
X46331444Y-55903999D01*
X46370486Y-55949056D01*
X46374951Y-55957820D01*
X46499890Y-56129786D01*
X46650213Y-56280109D01*
X46822179Y-56405048D01*
X46822181Y-56405049D01*
X46822184Y-56405051D01*
X47011588Y-56501557D01*
X47213757Y-56567246D01*
X47423713Y-56600500D01*
X47423714Y-56600500D01*
X47636286Y-56600500D01*
X47636287Y-56600500D01*
X47846243Y-56567246D01*
X48048412Y-56501557D01*
X48237816Y-56405051D01*
X48287593Y-56368886D01*
X48409786Y-56280109D01*
X48409788Y-56280106D01*
X48409792Y-56280104D01*
X48560104Y-56129792D01*
X48560106Y-56129788D01*
X48560109Y-56129786D01*
X48685048Y-55957820D01*
X48685047Y-55957820D01*
X48685051Y-55957816D01*
X48781557Y-55768412D01*
X48847246Y-55566243D01*
X48880500Y-55356287D01*
X48880500Y-55143713D01*
X48847246Y-54933757D01*
X48781557Y-54731588D01*
X48685051Y-54542184D01*
X48685049Y-54542181D01*
X48685048Y-54542179D01*
X48560109Y-54370213D01*
X48409786Y-54219890D01*
X48237820Y-54094951D01*
X48048414Y-53998444D01*
X48048413Y-53998443D01*
X48048412Y-53998443D01*
X47846243Y-53932754D01*
X47846241Y-53932753D01*
X47846240Y-53932753D01*
X47684957Y-53907208D01*
X47636287Y-53899500D01*
X47423713Y-53899500D01*
X47375042Y-53907208D01*
X47213760Y-53932753D01*
X47213757Y-53932754D01*
X47057612Y-53983489D01*
X47011585Y-53998444D01*
X46822179Y-54094951D01*
X46650213Y-54219890D01*
X46499890Y-54370213D01*
X46374949Y-54542182D01*
X46370484Y-54550946D01*
X46322509Y-54601742D01*
X46254688Y-54618536D01*
X46188553Y-54595998D01*
X46149516Y-54550946D01*
X46145050Y-54542182D01*
X46020109Y-54370213D01*
X45869786Y-54219890D01*
X45697820Y-54094951D01*
X45508414Y-53998444D01*
X45508413Y-53998443D01*
X45508412Y-53998443D01*
X45306243Y-53932754D01*
X45306241Y-53932753D01*
X45306240Y-53932753D01*
X45144957Y-53907208D01*
X45096287Y-53899500D01*
X44883713Y-53899500D01*
X44835042Y-53907208D01*
X44673760Y-53932753D01*
X44673757Y-53932754D01*
X44517612Y-53983489D01*
X44471585Y-53998444D01*
X44282179Y-54094951D01*
X44110213Y-54219890D01*
X43959890Y-54370213D01*
X43834949Y-54542182D01*
X43830484Y-54550946D01*
X43782509Y-54601742D01*
X43714688Y-54618536D01*
X43648553Y-54595998D01*
X43609516Y-54550946D01*
X43605050Y-54542182D01*
X43480109Y-54370213D01*
X43329786Y-54219890D01*
X43157820Y-54094951D01*
X42968414Y-53998444D01*
X42968413Y-53998443D01*
X42968412Y-53998443D01*
X42766243Y-53932754D01*
X42766241Y-53932753D01*
X42766240Y-53932753D01*
X42604957Y-53907208D01*
X42556287Y-53899500D01*
X42343713Y-53899500D01*
X42295042Y-53907208D01*
X42133760Y-53932753D01*
X42133757Y-53932754D01*
X41977612Y-53983489D01*
X41931585Y-53998444D01*
X41742179Y-54094951D01*
X41570213Y-54219890D01*
X41419890Y-54370213D01*
X41294949Y-54542182D01*
X41290484Y-54550946D01*
X41242509Y-54601742D01*
X41174688Y-54618536D01*
X41108553Y-54595998D01*
X41069516Y-54550946D01*
X41065050Y-54542182D01*
X40940109Y-54370213D01*
X40789786Y-54219890D01*
X40617820Y-54094951D01*
X40428414Y-53998444D01*
X40428413Y-53998443D01*
X40428412Y-53998443D01*
X40226243Y-53932754D01*
X40226241Y-53932753D01*
X40226240Y-53932753D01*
X40064957Y-53907208D01*
X40016287Y-53899500D01*
X39803713Y-53899500D01*
X39755042Y-53907208D01*
X39593760Y-53932753D01*
X39593757Y-53932754D01*
X39437612Y-53983489D01*
X39391585Y-53998444D01*
X39202179Y-54094951D01*
X39030213Y-54219890D01*
X38879890Y-54370213D01*
X38754951Y-54542179D01*
X38658444Y-54731585D01*
X38592753Y-54933760D01*
X38559500Y-55143713D01*
X36180500Y-55143713D01*
X36147246Y-54933757D01*
X36081557Y-54731588D01*
X35985051Y-54542184D01*
X35985049Y-54542181D01*
X35985048Y-54542179D01*
X35860109Y-54370213D01*
X35709786Y-54219890D01*
X35537820Y-54094951D01*
X35348414Y-53998444D01*
X35348413Y-53998443D01*
X35348412Y-53998443D01*
X35146243Y-53932754D01*
X35146241Y-53932753D01*
X35146240Y-53932753D01*
X34984957Y-53907208D01*
X34936287Y-53899500D01*
X34723713Y-53899500D01*
X34675042Y-53907208D01*
X34513760Y-53932753D01*
X34513757Y-53932754D01*
X34357612Y-53983489D01*
X34311585Y-53998444D01*
X34122179Y-54094951D01*
X33950213Y-54219890D01*
X33799890Y-54370213D01*
X33674949Y-54542182D01*
X33670484Y-54550946D01*
X33622509Y-54601742D01*
X33554688Y-54618536D01*
X33488553Y-54595998D01*
X33449516Y-54550946D01*
X33445050Y-54542182D01*
X33320109Y-54370213D01*
X33169786Y-54219890D01*
X32997820Y-54094951D01*
X32808414Y-53998444D01*
X32808413Y-53998443D01*
X32808412Y-53998443D01*
X32606243Y-53932754D01*
X32606241Y-53932753D01*
X32606240Y-53932753D01*
X32444957Y-53907208D01*
X32396287Y-53899500D01*
X32183713Y-53899500D01*
X32135042Y-53907208D01*
X31973760Y-53932753D01*
X31973757Y-53932754D01*
X31817612Y-53983489D01*
X31771585Y-53998444D01*
X31582179Y-54094951D01*
X31410213Y-54219890D01*
X31259890Y-54370213D01*
X31134949Y-54542182D01*
X31130484Y-54550946D01*
X31082509Y-54601742D01*
X31014688Y-54618536D01*
X30948553Y-54595998D01*
X30909516Y-54550946D01*
X30905050Y-54542182D01*
X30780109Y-54370213D01*
X30629786Y-54219890D01*
X30457820Y-54094951D01*
X30268414Y-53998444D01*
X30268413Y-53998443D01*
X30268412Y-53998443D01*
X30066243Y-53932754D01*
X30066241Y-53932753D01*
X30066240Y-53932753D01*
X29904957Y-53907208D01*
X29856287Y-53899500D01*
X29643713Y-53899500D01*
X29595042Y-53907208D01*
X29433760Y-53932753D01*
X29433757Y-53932754D01*
X29277612Y-53983489D01*
X29231585Y-53998444D01*
X29042179Y-54094951D01*
X28870213Y-54219890D01*
X28719890Y-54370213D01*
X28594951Y-54542179D01*
X28498444Y-54731585D01*
X28432753Y-54933760D01*
X28399500Y-55143713D01*
X27949683Y-55143713D01*
X27959394Y-55129179D01*
X27967743Y-55109020D01*
X27975048Y-55091388D01*
X27975048Y-55091386D01*
X28019737Y-54983497D01*
X28050500Y-54828842D01*
X28050500Y-54671158D01*
X28050500Y-54671155D01*
X28050499Y-54671153D01*
X28035570Y-54596100D01*
X28019737Y-54516503D01*
X27959794Y-54371786D01*
X27959397Y-54370827D01*
X27959390Y-54370814D01*
X27871789Y-54239711D01*
X27871786Y-54239707D01*
X27760292Y-54128213D01*
X27760288Y-54128210D01*
X27629185Y-54040609D01*
X27629172Y-54040602D01*
X27483501Y-53980264D01*
X27483489Y-53980261D01*
X27328845Y-53949500D01*
X27328842Y-53949500D01*
X27171158Y-53949500D01*
X27171155Y-53949500D01*
X27016510Y-53980261D01*
X27016498Y-53980264D01*
X26870827Y-54040602D01*
X26870814Y-54040609D01*
X26739711Y-54128210D01*
X26739707Y-54128213D01*
X26628213Y-54239707D01*
X26628210Y-54239711D01*
X26540609Y-54370814D01*
X26540602Y-54370827D01*
X26480264Y-54516498D01*
X26480261Y-54516510D01*
X26449500Y-54671153D01*
X26449500Y-54834934D01*
X26447936Y-54834934D01*
X26436334Y-54896073D01*
X26388264Y-54946778D01*
X26320411Y-54963445D01*
X26254319Y-54940782D01*
X26250469Y-54937944D01*
X26113803Y-54833075D01*
X25886700Y-54701958D01*
X25886690Y-54701953D01*
X25644428Y-54601605D01*
X25644421Y-54601603D01*
X25644419Y-54601602D01*
X25391116Y-54533730D01*
X25333339Y-54526123D01*
X25131127Y-54499500D01*
X25131120Y-54499500D01*
X24868880Y-54499500D01*
X24868872Y-54499500D01*
X24637772Y-54529926D01*
X24608884Y-54533730D01*
X24544633Y-54550946D01*
X24355581Y-54601602D01*
X24355571Y-54601605D01*
X24113309Y-54701953D01*
X24113299Y-54701958D01*
X23886196Y-54833075D01*
X23678148Y-54992718D01*
X23492718Y-55178148D01*
X23333075Y-55386196D01*
X23201958Y-55613299D01*
X23201953Y-55613309D01*
X23101605Y-55855571D01*
X23101602Y-55855581D01*
X23088629Y-55903999D01*
X23033730Y-56108885D01*
X22999500Y-56368872D01*
X22000499Y-56368872D01*
X21966270Y-56108884D01*
X21898398Y-55855581D01*
X21898394Y-55855571D01*
X21798046Y-55613309D01*
X21798041Y-55613299D01*
X21666924Y-55386196D01*
X21507281Y-55178148D01*
X21507274Y-55178140D01*
X21321860Y-54992726D01*
X21321851Y-54992718D01*
X21113803Y-54833075D01*
X20886700Y-54701958D01*
X20886690Y-54701953D01*
X20644428Y-54601605D01*
X20644421Y-54601603D01*
X20644419Y-54601602D01*
X20391116Y-54533730D01*
X20333339Y-54526123D01*
X20131127Y-54499500D01*
X20131120Y-54499500D01*
X19868880Y-54499500D01*
X19868872Y-54499500D01*
X19637772Y-54529926D01*
X19608884Y-54533730D01*
X19544633Y-54550946D01*
X19355581Y-54601602D01*
X19355571Y-54601605D01*
X19113309Y-54701953D01*
X19113299Y-54701958D01*
X18886196Y-54833075D01*
X18678148Y-54992718D01*
X18492718Y-55178148D01*
X18333075Y-55386196D01*
X18201958Y-55613299D01*
X18201953Y-55613309D01*
X18101605Y-55855571D01*
X18101602Y-55855581D01*
X18088629Y-55903999D01*
X18033730Y-56108885D01*
X17999500Y-56368872D01*
X17000499Y-56368872D01*
X16966270Y-56108884D01*
X16898398Y-55855581D01*
X16898394Y-55855571D01*
X16798046Y-55613309D01*
X16798041Y-55613299D01*
X16666924Y-55386196D01*
X16507281Y-55178148D01*
X16507274Y-55178140D01*
X16321860Y-54992726D01*
X16321851Y-54992718D01*
X16113803Y-54833075D01*
X15886700Y-54701958D01*
X15886690Y-54701953D01*
X15644428Y-54601605D01*
X15644421Y-54601603D01*
X15644419Y-54601602D01*
X15391116Y-54533730D01*
X15333339Y-54526123D01*
X15131127Y-54499500D01*
X15131120Y-54499500D01*
X14868880Y-54499500D01*
X14868872Y-54499500D01*
X14637772Y-54529926D01*
X14608884Y-54533730D01*
X14544633Y-54550946D01*
X14355581Y-54601602D01*
X14355571Y-54601605D01*
X14113309Y-54701953D01*
X14113299Y-54701958D01*
X13886196Y-54833075D01*
X13678148Y-54992718D01*
X13492718Y-55178148D01*
X13333075Y-55386196D01*
X13201958Y-55613299D01*
X13201953Y-55613309D01*
X13101605Y-55855571D01*
X13101602Y-55855581D01*
X13088629Y-55903999D01*
X13033730Y-56108885D01*
X12999500Y-56368872D01*
X500500Y-56368872D01*
X500500Y-53878711D01*
X4149500Y-53878711D01*
X4149500Y-54121288D01*
X4181161Y-54361785D01*
X4243947Y-54596104D01*
X4336773Y-54820205D01*
X4336777Y-54820214D01*
X4341760Y-54828844D01*
X4458064Y-55030289D01*
X4458066Y-55030292D01*
X4458067Y-55030293D01*
X4605733Y-55222736D01*
X4605739Y-55222743D01*
X4777256Y-55394260D01*
X4777262Y-55394265D01*
X4969711Y-55541936D01*
X5179788Y-55663224D01*
X5403900Y-55756054D01*
X5638211Y-55818838D01*
X5818586Y-55842584D01*
X5878711Y-55850500D01*
X5878712Y-55850500D01*
X6121289Y-55850500D01*
X6169388Y-55844167D01*
X6361789Y-55818838D01*
X6596100Y-55756054D01*
X6820212Y-55663224D01*
X7030289Y-55541936D01*
X7222738Y-55394265D01*
X7394265Y-55222738D01*
X7541936Y-55030289D01*
X7663224Y-54820212D01*
X7756054Y-54596100D01*
X7818838Y-54361789D01*
X7850500Y-54121288D01*
X7850500Y-53878712D01*
X7823175Y-53671153D01*
X51449500Y-53671153D01*
X51449500Y-53828846D01*
X51480261Y-53983489D01*
X51480264Y-53983501D01*
X51540602Y-54129172D01*
X51540609Y-54129185D01*
X51628210Y-54260288D01*
X51628213Y-54260292D01*
X51739707Y-54371786D01*
X51739711Y-54371789D01*
X51870814Y-54459390D01*
X51870827Y-54459397D01*
X51967646Y-54499500D01*
X52016503Y-54519737D01*
X52129326Y-54542179D01*
X52171153Y-54550499D01*
X52171156Y-54550500D01*
X52171158Y-54550500D01*
X52328844Y-54550500D01*
X52328845Y-54550499D01*
X52483497Y-54519737D01*
X52629179Y-54459394D01*
X52760289Y-54371789D01*
X52871789Y-54260289D01*
X52959394Y-54129179D01*
X53019737Y-53983497D01*
X53040580Y-53878712D01*
X53040580Y-53878711D01*
X67149500Y-53878711D01*
X67149500Y-54121288D01*
X67181161Y-54361785D01*
X67243947Y-54596104D01*
X67336773Y-54820205D01*
X67336777Y-54820214D01*
X67341760Y-54828844D01*
X67458064Y-55030289D01*
X67458066Y-55030292D01*
X67458067Y-55030293D01*
X67605733Y-55222736D01*
X67605739Y-55222743D01*
X67777256Y-55394260D01*
X67777262Y-55394265D01*
X67969711Y-55541936D01*
X68179788Y-55663224D01*
X68403900Y-55756054D01*
X68638211Y-55818838D01*
X68818586Y-55842584D01*
X68878711Y-55850500D01*
X68878712Y-55850500D01*
X69121289Y-55850500D01*
X69169388Y-55844167D01*
X69361789Y-55818838D01*
X69596100Y-55756054D01*
X69820212Y-55663224D01*
X70030289Y-55541936D01*
X70222738Y-55394265D01*
X70394265Y-55222738D01*
X70541936Y-55030289D01*
X70663224Y-54820212D01*
X70756054Y-54596100D01*
X70818838Y-54361789D01*
X70850500Y-54121288D01*
X70850500Y-53878712D01*
X70818838Y-53638211D01*
X70756054Y-53403900D01*
X70663224Y-53179788D01*
X70541936Y-52969711D01*
X70472473Y-52879185D01*
X70394266Y-52777263D01*
X70394260Y-52777256D01*
X70222743Y-52605739D01*
X70222736Y-52605733D01*
X70030293Y-52458067D01*
X70030292Y-52458066D01*
X70030289Y-52458064D01*
X69858661Y-52358974D01*
X69820214Y-52336777D01*
X69820205Y-52336773D01*
X69596104Y-52243947D01*
X69361785Y-52181161D01*
X69121289Y-52149500D01*
X69121288Y-52149500D01*
X68878712Y-52149500D01*
X68878711Y-52149500D01*
X68638214Y-52181161D01*
X68403895Y-52243947D01*
X68179794Y-52336773D01*
X68179785Y-52336777D01*
X67969706Y-52458067D01*
X67777263Y-52605733D01*
X67777256Y-52605739D01*
X67605739Y-52777256D01*
X67605733Y-52777263D01*
X67458067Y-52969706D01*
X67336777Y-53179785D01*
X67336773Y-53179794D01*
X67243947Y-53403895D01*
X67181161Y-53638214D01*
X67149500Y-53878711D01*
X53040580Y-53878711D01*
X53046200Y-53850462D01*
X53049559Y-53833571D01*
X53081943Y-53771659D01*
X53128407Y-53743242D01*
X53127869Y-53741941D01*
X53279172Y-53679270D01*
X53279172Y-53679269D01*
X53279179Y-53679267D01*
X53410289Y-53591662D01*
X53521789Y-53480162D01*
X53609394Y-53349052D01*
X53669737Y-53203370D01*
X53700500Y-53048715D01*
X53700500Y-52891031D01*
X53700500Y-52891028D01*
X53700499Y-52891026D01*
X53677870Y-52777263D01*
X53669737Y-52736376D01*
X53668546Y-52733501D01*
X53609397Y-52590700D01*
X53609390Y-52590687D01*
X53521789Y-52459584D01*
X53521786Y-52459580D01*
X53410292Y-52348086D01*
X53410288Y-52348083D01*
X53279185Y-52260482D01*
X53279172Y-52260475D01*
X53133501Y-52200137D01*
X53133489Y-52200134D01*
X52978845Y-52169373D01*
X52978842Y-52169373D01*
X52821158Y-52169373D01*
X52821155Y-52169373D01*
X52666510Y-52200134D01*
X52666498Y-52200137D01*
X52520827Y-52260475D01*
X52520814Y-52260482D01*
X52389711Y-52348083D01*
X52389707Y-52348086D01*
X52278213Y-52459580D01*
X52278210Y-52459584D01*
X52190609Y-52590687D01*
X52190602Y-52590700D01*
X52130264Y-52736371D01*
X52130261Y-52736381D01*
X52100439Y-52886305D01*
X52068054Y-52948216D01*
X52021593Y-52976636D01*
X52022130Y-52977932D01*
X51870827Y-53040602D01*
X51870814Y-53040609D01*
X51739711Y-53128210D01*
X51739707Y-53128213D01*
X51628213Y-53239707D01*
X51628210Y-53239711D01*
X51540609Y-53370814D01*
X51540602Y-53370827D01*
X51480264Y-53516498D01*
X51480261Y-53516510D01*
X51449500Y-53671153D01*
X7823175Y-53671153D01*
X7818838Y-53638211D01*
X7756054Y-53403900D01*
X7663224Y-53179788D01*
X7541936Y-52969711D01*
X7472473Y-52879185D01*
X7394266Y-52777263D01*
X7394260Y-52777256D01*
X7222743Y-52605739D01*
X7222736Y-52605733D01*
X7030293Y-52458067D01*
X7030292Y-52458066D01*
X7030289Y-52458064D01*
X6858661Y-52358974D01*
X6820214Y-52336777D01*
X6820205Y-52336773D01*
X6596104Y-52243947D01*
X6361785Y-52181161D01*
X6121289Y-52149500D01*
X6121288Y-52149500D01*
X5878712Y-52149500D01*
X5878711Y-52149500D01*
X5638214Y-52181161D01*
X5403895Y-52243947D01*
X5179794Y-52336773D01*
X5179785Y-52336777D01*
X4969706Y-52458067D01*
X4777263Y-52605733D01*
X4777256Y-52605739D01*
X4605739Y-52777256D01*
X4605733Y-52777263D01*
X4458067Y-52969706D01*
X4336777Y-53179785D01*
X4336773Y-53179794D01*
X4243947Y-53403895D01*
X4181161Y-53638214D01*
X4149500Y-53878711D01*
X500500Y-53878711D01*
X500500Y-51921153D01*
X21699500Y-51921153D01*
X21699500Y-52078846D01*
X21730261Y-52233489D01*
X21730264Y-52233501D01*
X21790602Y-52379172D01*
X21790609Y-52379185D01*
X21878210Y-52510288D01*
X21878213Y-52510292D01*
X21989707Y-52621786D01*
X21989711Y-52621789D01*
X22120814Y-52709390D01*
X22120827Y-52709397D01*
X22266498Y-52769735D01*
X22266503Y-52769737D01*
X22421153Y-52800499D01*
X22421156Y-52800500D01*
X22421158Y-52800500D01*
X22578844Y-52800500D01*
X22578845Y-52800499D01*
X22733497Y-52769737D01*
X22879179Y-52709394D01*
X23010289Y-52621789D01*
X23121789Y-52510289D01*
X23147938Y-52471153D01*
X29199500Y-52471153D01*
X29199500Y-52628846D01*
X29230261Y-52783489D01*
X29230264Y-52783501D01*
X29290602Y-52929172D01*
X29290609Y-52929185D01*
X29378210Y-53060288D01*
X29378213Y-53060292D01*
X29489707Y-53171786D01*
X29489711Y-53171789D01*
X29620814Y-53259390D01*
X29620827Y-53259397D01*
X29720060Y-53300500D01*
X29766503Y-53319737D01*
X29913909Y-53349058D01*
X29921153Y-53350499D01*
X29921156Y-53350500D01*
X29921158Y-53350500D01*
X30078844Y-53350500D01*
X30078845Y-53350499D01*
X30233497Y-53319737D01*
X30379179Y-53259394D01*
X30510289Y-53171789D01*
X30621789Y-53060289D01*
X30709394Y-52929179D01*
X30769737Y-52783497D01*
X30800500Y-52628842D01*
X30800500Y-52471158D01*
X30800500Y-52471155D01*
X30794155Y-52439258D01*
X30794155Y-52439257D01*
X30790554Y-52421153D01*
X34199500Y-52421153D01*
X34199500Y-52578846D01*
X34230261Y-52733489D01*
X34230264Y-52733501D01*
X34290602Y-52879172D01*
X34290609Y-52879185D01*
X34378210Y-53010288D01*
X34378213Y-53010292D01*
X34489707Y-53121786D01*
X34489711Y-53121789D01*
X34620814Y-53209390D01*
X34620827Y-53209397D01*
X34766498Y-53269735D01*
X34766503Y-53269737D01*
X34921153Y-53300499D01*
X34921156Y-53300500D01*
X34921158Y-53300500D01*
X35078844Y-53300500D01*
X35078845Y-53300499D01*
X35233497Y-53269737D01*
X35379179Y-53209394D01*
X35510289Y-53121789D01*
X35621789Y-53010289D01*
X35709394Y-52879179D01*
X35769737Y-52733497D01*
X35800500Y-52578842D01*
X35800500Y-52421158D01*
X35800500Y-52421155D01*
X35800499Y-52421153D01*
X35769737Y-52266503D01*
X35742247Y-52200136D01*
X35709397Y-52120827D01*
X35709390Y-52120814D01*
X35621789Y-51989711D01*
X35621786Y-51989707D01*
X35510292Y-51878213D01*
X35510288Y-51878210D01*
X35379185Y-51790609D01*
X35379172Y-51790602D01*
X35233501Y-51730264D01*
X35233489Y-51730261D01*
X35078845Y-51699500D01*
X35078842Y-51699500D01*
X34921158Y-51699500D01*
X34921155Y-51699500D01*
X34766510Y-51730261D01*
X34766498Y-51730264D01*
X34620827Y-51790602D01*
X34620814Y-51790609D01*
X34489711Y-51878210D01*
X34489707Y-51878213D01*
X34378213Y-51989707D01*
X34378210Y-51989711D01*
X34290609Y-52120814D01*
X34290602Y-52120827D01*
X34230264Y-52266498D01*
X34230261Y-52266510D01*
X34199500Y-52421153D01*
X30790554Y-52421153D01*
X30773770Y-52336777D01*
X30769737Y-52316503D01*
X30769735Y-52316498D01*
X30709397Y-52170827D01*
X30709390Y-52170814D01*
X30621789Y-52039711D01*
X30621786Y-52039707D01*
X30510292Y-51928213D01*
X30510288Y-51928210D01*
X30379185Y-51840609D01*
X30379172Y-51840602D01*
X30233501Y-51780264D01*
X30233489Y-51780261D01*
X30078845Y-51749500D01*
X30078842Y-51749500D01*
X29921158Y-51749500D01*
X29921155Y-51749500D01*
X29766510Y-51780261D01*
X29766498Y-51780264D01*
X29620827Y-51840602D01*
X29620814Y-51840609D01*
X29489711Y-51928210D01*
X29489707Y-51928213D01*
X29378213Y-52039707D01*
X29378210Y-52039711D01*
X29290609Y-52170814D01*
X29290602Y-52170827D01*
X29230264Y-52316498D01*
X29230261Y-52316510D01*
X29199500Y-52471153D01*
X23147938Y-52471153D01*
X23170537Y-52437331D01*
X23198038Y-52396175D01*
X23198038Y-52396174D01*
X23209394Y-52379179D01*
X23269737Y-52233497D01*
X23300500Y-52078842D01*
X23300500Y-51921158D01*
X23300500Y-51921155D01*
X23300499Y-51921153D01*
X23295245Y-51894738D01*
X23269737Y-51766503D01*
X23260555Y-51744336D01*
X23209397Y-51620827D01*
X23209390Y-51620814D01*
X23121789Y-51489711D01*
X23121786Y-51489707D01*
X23010292Y-51378213D01*
X23010288Y-51378210D01*
X22879185Y-51290609D01*
X22879172Y-51290602D01*
X22733501Y-51230264D01*
X22733489Y-51230261D01*
X22578845Y-51199500D01*
X22578842Y-51199500D01*
X22421158Y-51199500D01*
X22421155Y-51199500D01*
X22266510Y-51230261D01*
X22266498Y-51230264D01*
X22120827Y-51290602D01*
X22120814Y-51290609D01*
X21989711Y-51378210D01*
X21989707Y-51378213D01*
X21878213Y-51489707D01*
X21878210Y-51489711D01*
X21790609Y-51620814D01*
X21790602Y-51620827D01*
X21730264Y-51766498D01*
X21730261Y-51766510D01*
X21699500Y-51921153D01*
X500500Y-51921153D01*
X500500Y-50421153D01*
X19199500Y-50421153D01*
X19199500Y-50578846D01*
X19230261Y-50733489D01*
X19230264Y-50733501D01*
X19290602Y-50879172D01*
X19290609Y-50879185D01*
X19378210Y-51010288D01*
X19378213Y-51010292D01*
X19489707Y-51121786D01*
X19489711Y-51121789D01*
X19620814Y-51209390D01*
X19620827Y-51209397D01*
X19766498Y-51269735D01*
X19766503Y-51269737D01*
X19921153Y-51300499D01*
X19921156Y-51300500D01*
X19921158Y-51300500D01*
X20078844Y-51300500D01*
X20078845Y-51300499D01*
X20233497Y-51269737D01*
X20379179Y-51209394D01*
X20510289Y-51121789D01*
X20621789Y-51010289D01*
X20709394Y-50879179D01*
X20769737Y-50733497D01*
X20800500Y-50578842D01*
X20800500Y-50421158D01*
X20800500Y-50421155D01*
X20800499Y-50421153D01*
X20787393Y-50355264D01*
X20769737Y-50266503D01*
X20756062Y-50233489D01*
X20709397Y-50120827D01*
X20709390Y-50120814D01*
X20621789Y-49989711D01*
X20621786Y-49989707D01*
X20510292Y-49878213D01*
X20510288Y-49878210D01*
X20379185Y-49790609D01*
X20379172Y-49790602D01*
X20233501Y-49730264D01*
X20233489Y-49730261D01*
X20078845Y-49699500D01*
X20078842Y-49699500D01*
X19921158Y-49699500D01*
X19921155Y-49699500D01*
X19766510Y-49730261D01*
X19766498Y-49730264D01*
X19620827Y-49790602D01*
X19620814Y-49790609D01*
X19489711Y-49878210D01*
X19489707Y-49878213D01*
X19378213Y-49989707D01*
X19378210Y-49989711D01*
X19290609Y-50120814D01*
X19290602Y-50120827D01*
X19230264Y-50266498D01*
X19230261Y-50266510D01*
X19199500Y-50421153D01*
X500500Y-50421153D01*
X500500Y-49171153D01*
X17449500Y-49171153D01*
X17449500Y-49328846D01*
X17480261Y-49483489D01*
X17480264Y-49483501D01*
X17540602Y-49629172D01*
X17540609Y-49629185D01*
X17628210Y-49760288D01*
X17628213Y-49760292D01*
X17739707Y-49871786D01*
X17739711Y-49871789D01*
X17870814Y-49959390D01*
X17870827Y-49959397D01*
X18008683Y-50016498D01*
X18016503Y-50019737D01*
X18171153Y-50050499D01*
X18171156Y-50050500D01*
X18171158Y-50050500D01*
X18328844Y-50050500D01*
X18328845Y-50050499D01*
X18483497Y-50019737D01*
X18621635Y-49962519D01*
X18629172Y-49959397D01*
X18629172Y-49959396D01*
X18629179Y-49959394D01*
X18760289Y-49871789D01*
X18871789Y-49760289D01*
X18959394Y-49629179D01*
X18961396Y-49624347D01*
X18991984Y-49550499D01*
X19019737Y-49483497D01*
X19050500Y-49328842D01*
X19050500Y-49171158D01*
X19050500Y-49171155D01*
X19050499Y-49171153D01*
X19019738Y-49016510D01*
X19019737Y-49016503D01*
X19017163Y-49010288D01*
X18959397Y-48870827D01*
X18959390Y-48870814D01*
X18871789Y-48739711D01*
X18871786Y-48739707D01*
X18760292Y-48628213D01*
X18760288Y-48628210D01*
X18629185Y-48540609D01*
X18629173Y-48540602D01*
X18602674Y-48529627D01*
X18483501Y-48480264D01*
X18483489Y-48480261D01*
X18328845Y-48449500D01*
X18328842Y-48449500D01*
X18171158Y-48449500D01*
X18171155Y-48449500D01*
X18016510Y-48480261D01*
X18016498Y-48480264D01*
X17870827Y-48540602D01*
X17870814Y-48540609D01*
X17739711Y-48628210D01*
X17739707Y-48628213D01*
X17628213Y-48739707D01*
X17628210Y-48739711D01*
X17540609Y-48870814D01*
X17540602Y-48870827D01*
X17480264Y-49016498D01*
X17480261Y-49016510D01*
X17449500Y-49171153D01*
X500500Y-49171153D01*
X500500Y-48421153D01*
X21699500Y-48421153D01*
X21699500Y-48578846D01*
X21730261Y-48733489D01*
X21730264Y-48733501D01*
X21790602Y-48879172D01*
X21790609Y-48879185D01*
X21878210Y-49010288D01*
X21878213Y-49010292D01*
X21989707Y-49121786D01*
X21989711Y-49121789D01*
X22120814Y-49209390D01*
X22120827Y-49209397D01*
X22258683Y-49266498D01*
X22266503Y-49269737D01*
X22421153Y-49300499D01*
X22421156Y-49300500D01*
X22421158Y-49300500D01*
X22578844Y-49300500D01*
X22578845Y-49300499D01*
X22733497Y-49269737D01*
X22782602Y-49249396D01*
X22852070Y-49241927D01*
X22914550Y-49273201D01*
X22950203Y-49333289D01*
X22951672Y-49339765D01*
X22980261Y-49483491D01*
X22980264Y-49483501D01*
X23040602Y-49629172D01*
X23040609Y-49629185D01*
X23128210Y-49760288D01*
X23128213Y-49760292D01*
X23239707Y-49871786D01*
X23239711Y-49871789D01*
X23370814Y-49959390D01*
X23370818Y-49959392D01*
X23370821Y-49959394D01*
X23458256Y-49995610D01*
X23512656Y-50039449D01*
X23534722Y-50105743D01*
X23525362Y-50157622D01*
X23480264Y-50266498D01*
X23480261Y-50266510D01*
X23449500Y-50421153D01*
X23449500Y-50578846D01*
X23480261Y-50733489D01*
X23480264Y-50733501D01*
X23540602Y-50879172D01*
X23540609Y-50879185D01*
X23628210Y-51010288D01*
X23628213Y-51010292D01*
X23739707Y-51121786D01*
X23739711Y-51121789D01*
X23870814Y-51209390D01*
X23870827Y-51209397D01*
X24016498Y-51269735D01*
X24016503Y-51269737D01*
X24171153Y-51300499D01*
X24171156Y-51300500D01*
X24171158Y-51300500D01*
X24328844Y-51300500D01*
X24328845Y-51300499D01*
X24483497Y-51269737D01*
X24629179Y-51209394D01*
X24760289Y-51121789D01*
X24871789Y-51010289D01*
X24931348Y-50921153D01*
X26437000Y-50921153D01*
X26437000Y-51078846D01*
X26467761Y-51233489D01*
X26467764Y-51233501D01*
X26528102Y-51379172D01*
X26528109Y-51379185D01*
X26615710Y-51510288D01*
X26615713Y-51510292D01*
X26727207Y-51621786D01*
X26727211Y-51621789D01*
X26858314Y-51709390D01*
X26858327Y-51709397D01*
X26955146Y-51749500D01*
X27004003Y-51769737D01*
X27158653Y-51800499D01*
X27158656Y-51800500D01*
X27158658Y-51800500D01*
X27316344Y-51800500D01*
X27316345Y-51800499D01*
X27470997Y-51769737D01*
X27616679Y-51709394D01*
X27747789Y-51621789D01*
X27859289Y-51510289D01*
X27946894Y-51379179D01*
X28007237Y-51233497D01*
X28038000Y-51078842D01*
X28038000Y-51046153D01*
X30949500Y-51046153D01*
X30949500Y-51203846D01*
X30980261Y-51358489D01*
X30980264Y-51358501D01*
X31040602Y-51504172D01*
X31040609Y-51504185D01*
X31128210Y-51635288D01*
X31128213Y-51635292D01*
X31239707Y-51746786D01*
X31239711Y-51746789D01*
X31370814Y-51834390D01*
X31370827Y-51834397D01*
X31476603Y-51878210D01*
X31516503Y-51894737D01*
X31671153Y-51925499D01*
X31671156Y-51925500D01*
X31671158Y-51925500D01*
X31828844Y-51925500D01*
X31828845Y-51925499D01*
X31983497Y-51894737D01*
X32114182Y-51840606D01*
X32129172Y-51834397D01*
X32129172Y-51834396D01*
X32129179Y-51834394D01*
X32260289Y-51746789D01*
X32371789Y-51635289D01*
X32459394Y-51504179D01*
X32465389Y-51489707D01*
X32511571Y-51378211D01*
X32519737Y-51358497D01*
X32550500Y-51203842D01*
X32550500Y-51046158D01*
X32550500Y-51046155D01*
X32550499Y-51046153D01*
X32519739Y-50891511D01*
X32519735Y-50891498D01*
X32510894Y-50870153D01*
X39199500Y-50870153D01*
X39199500Y-51027846D01*
X39230261Y-51182489D01*
X39230264Y-51182501D01*
X39290602Y-51328172D01*
X39290609Y-51328185D01*
X39378210Y-51459288D01*
X39378213Y-51459292D01*
X39489707Y-51570786D01*
X39489711Y-51570789D01*
X39565451Y-51621398D01*
X39610256Y-51675011D01*
X39618963Y-51744336D01*
X39588808Y-51807363D01*
X39565451Y-51827602D01*
X39489711Y-51878210D01*
X39489707Y-51878213D01*
X39378213Y-51989707D01*
X39378210Y-51989711D01*
X39290609Y-52120814D01*
X39290602Y-52120827D01*
X39230264Y-52266498D01*
X39230261Y-52266510D01*
X39199500Y-52421153D01*
X39199500Y-52578846D01*
X39230261Y-52733489D01*
X39230264Y-52733501D01*
X39290602Y-52879172D01*
X39290609Y-52879185D01*
X39378210Y-53010288D01*
X39378213Y-53010292D01*
X39489707Y-53121786D01*
X39489711Y-53121789D01*
X39620814Y-53209390D01*
X39620827Y-53209397D01*
X39766498Y-53269735D01*
X39766503Y-53269737D01*
X39921153Y-53300499D01*
X39921156Y-53300500D01*
X39921158Y-53300500D01*
X40078844Y-53300500D01*
X40078845Y-53300499D01*
X40233497Y-53269737D01*
X40379179Y-53209394D01*
X40510289Y-53121789D01*
X40621789Y-53010289D01*
X40709394Y-52879179D01*
X40769737Y-52733497D01*
X40800500Y-52578842D01*
X40800500Y-52421158D01*
X40800500Y-52421155D01*
X40800499Y-52421153D01*
X40769737Y-52266503D01*
X40742247Y-52200136D01*
X40709397Y-52120827D01*
X40709390Y-52120814D01*
X40621790Y-51989712D01*
X40621784Y-51989705D01*
X40553232Y-51921153D01*
X50137000Y-51921153D01*
X50137000Y-52078846D01*
X50167761Y-52233489D01*
X50167764Y-52233501D01*
X50228102Y-52379172D01*
X50228109Y-52379185D01*
X50315710Y-52510288D01*
X50315713Y-52510292D01*
X50427207Y-52621786D01*
X50427211Y-52621789D01*
X50558314Y-52709390D01*
X50558327Y-52709397D01*
X50703998Y-52769735D01*
X50704003Y-52769737D01*
X50858653Y-52800499D01*
X50858656Y-52800500D01*
X50858658Y-52800500D01*
X51016344Y-52800500D01*
X51016345Y-52800499D01*
X51170997Y-52769737D01*
X51316679Y-52709394D01*
X51447789Y-52621789D01*
X51559289Y-52510289D01*
X51646894Y-52379179D01*
X51707237Y-52233497D01*
X51738000Y-52078842D01*
X51738000Y-51921158D01*
X51738000Y-51921155D01*
X51737999Y-51921153D01*
X51732745Y-51894738D01*
X51707237Y-51766503D01*
X51698055Y-51744336D01*
X51646897Y-51620827D01*
X51646890Y-51620814D01*
X51559289Y-51489711D01*
X51559286Y-51489707D01*
X51447792Y-51378213D01*
X51447788Y-51378210D01*
X51316685Y-51290609D01*
X51316672Y-51290602D01*
X51171001Y-51230264D01*
X51170989Y-51230261D01*
X51016345Y-51199500D01*
X51016342Y-51199500D01*
X50858658Y-51199500D01*
X50858655Y-51199500D01*
X50704010Y-51230261D01*
X50703998Y-51230264D01*
X50558327Y-51290602D01*
X50558314Y-51290609D01*
X50427211Y-51378210D01*
X50427207Y-51378213D01*
X50315713Y-51489707D01*
X50315710Y-51489711D01*
X50228109Y-51620814D01*
X50228102Y-51620827D01*
X50167764Y-51766498D01*
X50167761Y-51766510D01*
X50137000Y-51921153D01*
X40553232Y-51921153D01*
X40510292Y-51878213D01*
X40510288Y-51878210D01*
X40434548Y-51827602D01*
X40389743Y-51773990D01*
X40381036Y-51704665D01*
X40411190Y-51641637D01*
X40434548Y-51621398D01*
X40463981Y-51601730D01*
X40510289Y-51570789D01*
X40621789Y-51459289D01*
X40709394Y-51328179D01*
X40748616Y-51233489D01*
X40757482Y-51212084D01*
X40801322Y-51157680D01*
X40867617Y-51135615D01*
X40935316Y-51152894D01*
X40982927Y-51204031D01*
X40986604Y-51212084D01*
X41034688Y-51328172D01*
X41034695Y-51328185D01*
X41122296Y-51459288D01*
X41122299Y-51459292D01*
X41233793Y-51570786D01*
X41233797Y-51570789D01*
X41364900Y-51658390D01*
X41364913Y-51658397D01*
X41488040Y-51709397D01*
X41510589Y-51718737D01*
X41639283Y-51744336D01*
X41665239Y-51749499D01*
X41665242Y-51749500D01*
X41665244Y-51749500D01*
X41822930Y-51749500D01*
X41822931Y-51749499D01*
X41977583Y-51718737D01*
X42123265Y-51658394D01*
X42254375Y-51570789D01*
X42365875Y-51459289D01*
X42453480Y-51328179D01*
X42513823Y-51182497D01*
X42544586Y-51027842D01*
X42544586Y-50870158D01*
X42544586Y-50870155D01*
X42544585Y-50870153D01*
X42523969Y-50766510D01*
X42513823Y-50715503D01*
X42504903Y-50693968D01*
X42453483Y-50569827D01*
X42453476Y-50569814D01*
X42365875Y-50438711D01*
X42365872Y-50438707D01*
X42254378Y-50327213D01*
X42254374Y-50327210D01*
X42166012Y-50268168D01*
X42123271Y-50239609D01*
X42123258Y-50239602D01*
X41977587Y-50179264D01*
X41977575Y-50179261D01*
X41936814Y-50171153D01*
X54699500Y-50171153D01*
X54699500Y-50328846D01*
X54730261Y-50483489D01*
X54730264Y-50483501D01*
X54790602Y-50629172D01*
X54790609Y-50629185D01*
X54878210Y-50760288D01*
X54878213Y-50760292D01*
X54989707Y-50871786D01*
X54989711Y-50871789D01*
X55120814Y-50959390D01*
X55120827Y-50959397D01*
X55266498Y-51019735D01*
X55266503Y-51019737D01*
X55421153Y-51050499D01*
X55421156Y-51050500D01*
X55421158Y-51050500D01*
X55578844Y-51050500D01*
X55578845Y-51050499D01*
X55733497Y-51019737D01*
X55879179Y-50959394D01*
X56010289Y-50871789D01*
X56121789Y-50760289D01*
X56209394Y-50629179D01*
X56212854Y-50620827D01*
X56261571Y-50503211D01*
X56269737Y-50483497D01*
X56300500Y-50328842D01*
X56300500Y-50171158D01*
X56300500Y-50171155D01*
X56300499Y-50171153D01*
X56269737Y-50016503D01*
X56230242Y-49921153D01*
X58699500Y-49921153D01*
X58699500Y-50078846D01*
X58730261Y-50233489D01*
X58730264Y-50233501D01*
X58790602Y-50379172D01*
X58790609Y-50379185D01*
X58878210Y-50510288D01*
X58878213Y-50510292D01*
X58989707Y-50621786D01*
X58989711Y-50621789D01*
X59120814Y-50709390D01*
X59120827Y-50709397D01*
X59248751Y-50762384D01*
X59266503Y-50769737D01*
X59421153Y-50800499D01*
X59421156Y-50800500D01*
X59421158Y-50800500D01*
X59578844Y-50800500D01*
X59578845Y-50800499D01*
X59733497Y-50769737D01*
X59864414Y-50715510D01*
X59879172Y-50709397D01*
X59879172Y-50709396D01*
X59879179Y-50709394D01*
X60010289Y-50621789D01*
X60121789Y-50510289D01*
X60209394Y-50379179D01*
X60269737Y-50233497D01*
X60300500Y-50078842D01*
X60300500Y-49921158D01*
X60300500Y-49921155D01*
X60300499Y-49921153D01*
X60274531Y-49790604D01*
X60269737Y-49766503D01*
X60263813Y-49752202D01*
X60209397Y-49620827D01*
X60209390Y-49620814D01*
X60121789Y-49489711D01*
X60121786Y-49489707D01*
X60010292Y-49378213D01*
X60010288Y-49378210D01*
X59879185Y-49290609D01*
X59879172Y-49290602D01*
X59733501Y-49230264D01*
X59733489Y-49230261D01*
X59578845Y-49199500D01*
X59578842Y-49199500D01*
X59421158Y-49199500D01*
X59421155Y-49199500D01*
X59266510Y-49230261D01*
X59266498Y-49230264D01*
X59120827Y-49290602D01*
X59120814Y-49290609D01*
X58989711Y-49378210D01*
X58989707Y-49378213D01*
X58878213Y-49489707D01*
X58878210Y-49489711D01*
X58790609Y-49620814D01*
X58790602Y-49620827D01*
X58730264Y-49766498D01*
X58730261Y-49766510D01*
X58699500Y-49921153D01*
X56230242Y-49921153D01*
X56229933Y-49920408D01*
X56209397Y-49870827D01*
X56209390Y-49870814D01*
X56121789Y-49739711D01*
X56121786Y-49739707D01*
X56010292Y-49628213D01*
X56010288Y-49628210D01*
X55879185Y-49540609D01*
X55879172Y-49540602D01*
X55733501Y-49480264D01*
X55733489Y-49480261D01*
X55578845Y-49449500D01*
X55578842Y-49449500D01*
X55421158Y-49449500D01*
X55421155Y-49449500D01*
X55266510Y-49480261D01*
X55266498Y-49480264D01*
X55120827Y-49540602D01*
X55120814Y-49540609D01*
X54989711Y-49628210D01*
X54989707Y-49628213D01*
X54878213Y-49739707D01*
X54878210Y-49739711D01*
X54790609Y-49870814D01*
X54790602Y-49870827D01*
X54730264Y-50016498D01*
X54730261Y-50016510D01*
X54699500Y-50171153D01*
X41936814Y-50171153D01*
X41822931Y-50148500D01*
X41822928Y-50148500D01*
X41665244Y-50148500D01*
X41665241Y-50148500D01*
X41510596Y-50179261D01*
X41510584Y-50179264D01*
X41364913Y-50239602D01*
X41364900Y-50239609D01*
X41233797Y-50327210D01*
X41233793Y-50327213D01*
X41122299Y-50438707D01*
X41122296Y-50438711D01*
X41034695Y-50569814D01*
X41034688Y-50569827D01*
X40986604Y-50685915D01*
X40942763Y-50740319D01*
X40876469Y-50762384D01*
X40808770Y-50745105D01*
X40761159Y-50693968D01*
X40757482Y-50685915D01*
X40709397Y-50569827D01*
X40709390Y-50569814D01*
X40621789Y-50438711D01*
X40621786Y-50438707D01*
X40510292Y-50327213D01*
X40510288Y-50327210D01*
X40379185Y-50239609D01*
X40379172Y-50239602D01*
X40233501Y-50179264D01*
X40233489Y-50179261D01*
X40078845Y-50148500D01*
X40078842Y-50148500D01*
X39921158Y-50148500D01*
X39921155Y-50148500D01*
X39766510Y-50179261D01*
X39766498Y-50179264D01*
X39620827Y-50239602D01*
X39620814Y-50239609D01*
X39489711Y-50327210D01*
X39489707Y-50327213D01*
X39378213Y-50438707D01*
X39378210Y-50438711D01*
X39290609Y-50569814D01*
X39290602Y-50569827D01*
X39230264Y-50715498D01*
X39230261Y-50715510D01*
X39199500Y-50870153D01*
X32510894Y-50870153D01*
X32459397Y-50745827D01*
X32459390Y-50745814D01*
X32371789Y-50614711D01*
X32371786Y-50614707D01*
X32260292Y-50503213D01*
X32260288Y-50503210D01*
X32129185Y-50415609D01*
X32129172Y-50415602D01*
X31983501Y-50355264D01*
X31983489Y-50355261D01*
X31828845Y-50324500D01*
X31828842Y-50324500D01*
X31671158Y-50324500D01*
X31671155Y-50324500D01*
X31516510Y-50355261D01*
X31516498Y-50355264D01*
X31370827Y-50415602D01*
X31370814Y-50415609D01*
X31239711Y-50503210D01*
X31239707Y-50503213D01*
X31128213Y-50614707D01*
X31128210Y-50614711D01*
X31040609Y-50745814D01*
X31040602Y-50745827D01*
X30980264Y-50891498D01*
X30980261Y-50891510D01*
X30949500Y-51046153D01*
X28038000Y-51046153D01*
X28038000Y-50921158D01*
X28038000Y-50921155D01*
X28037999Y-50921153D01*
X28007238Y-50766510D01*
X28007237Y-50766503D01*
X27998670Y-50745821D01*
X27946897Y-50620827D01*
X27946890Y-50620814D01*
X27859289Y-50489711D01*
X27859286Y-50489707D01*
X27747792Y-50378213D01*
X27747788Y-50378210D01*
X27616685Y-50290609D01*
X27616672Y-50290602D01*
X27471001Y-50230264D01*
X27470989Y-50230261D01*
X27316345Y-50199500D01*
X27316342Y-50199500D01*
X27158658Y-50199500D01*
X27158655Y-50199500D01*
X27004010Y-50230261D01*
X27003998Y-50230264D01*
X26858327Y-50290602D01*
X26858314Y-50290609D01*
X26727211Y-50378210D01*
X26727207Y-50378213D01*
X26615713Y-50489707D01*
X26615710Y-50489711D01*
X26528109Y-50620814D01*
X26528102Y-50620827D01*
X26467764Y-50766498D01*
X26467761Y-50766510D01*
X26437000Y-50921153D01*
X24931348Y-50921153D01*
X24959394Y-50879179D01*
X25019737Y-50733497D01*
X25050500Y-50578842D01*
X25050500Y-50421158D01*
X25050500Y-50421155D01*
X25050499Y-50421153D01*
X25037393Y-50355264D01*
X25019737Y-50266503D01*
X25006062Y-50233489D01*
X24959397Y-50120827D01*
X24959390Y-50120814D01*
X24871789Y-49989711D01*
X24871786Y-49989707D01*
X24760292Y-49878213D01*
X24760288Y-49878210D01*
X24629185Y-49790609D01*
X24629176Y-49790604D01*
X24541746Y-49754390D01*
X24539031Y-49752202D01*
X24535591Y-49751642D01*
X24512022Y-49730437D01*
X24487343Y-49710549D01*
X24486242Y-49707242D01*
X24483650Y-49704910D01*
X24475287Y-49674329D01*
X24465278Y-49644255D01*
X24465868Y-49639883D01*
X24465221Y-49637515D01*
X24467968Y-49624347D01*
X24470895Y-49602680D01*
X24472539Y-49597441D01*
X24519737Y-49483497D01*
X24532138Y-49421153D01*
X36449500Y-49421153D01*
X36449500Y-49578846D01*
X36480261Y-49733489D01*
X36480264Y-49733501D01*
X36540602Y-49879172D01*
X36540609Y-49879185D01*
X36628210Y-50010288D01*
X36628213Y-50010292D01*
X36739707Y-50121786D01*
X36739711Y-50121789D01*
X36870814Y-50209390D01*
X36870827Y-50209397D01*
X37008683Y-50266498D01*
X37016503Y-50269737D01*
X37171153Y-50300499D01*
X37171156Y-50300500D01*
X37171158Y-50300500D01*
X37328844Y-50300500D01*
X37328845Y-50300499D01*
X37483497Y-50269737D01*
X37629179Y-50209394D01*
X37760289Y-50121789D01*
X37871789Y-50010289D01*
X37959394Y-49879179D01*
X37962854Y-49870827D01*
X37991984Y-49800499D01*
X38019737Y-49733497D01*
X38050500Y-49578842D01*
X38050500Y-49421158D01*
X38050500Y-49421155D01*
X38050499Y-49421153D01*
X38034310Y-49339765D01*
X38019737Y-49266503D01*
X38012652Y-49249397D01*
X37959397Y-49120827D01*
X37959390Y-49120814D01*
X37871789Y-48989711D01*
X37871786Y-48989707D01*
X37760292Y-48878213D01*
X37760288Y-48878210D01*
X37629185Y-48790609D01*
X37629172Y-48790602D01*
X37483501Y-48730264D01*
X37483489Y-48730261D01*
X37328845Y-48699500D01*
X37328842Y-48699500D01*
X37171158Y-48699500D01*
X37171155Y-48699500D01*
X37016510Y-48730261D01*
X37016498Y-48730264D01*
X36870827Y-48790602D01*
X36870814Y-48790609D01*
X36739711Y-48878210D01*
X36739707Y-48878213D01*
X36628213Y-48989707D01*
X36628210Y-48989711D01*
X36540609Y-49120814D01*
X36540602Y-49120827D01*
X36480264Y-49266498D01*
X36480261Y-49266510D01*
X36449500Y-49421153D01*
X24532138Y-49421153D01*
X24541958Y-49371786D01*
X24550500Y-49328844D01*
X24550500Y-49171155D01*
X24550499Y-49171153D01*
X24519738Y-49016510D01*
X24519737Y-49016503D01*
X24517163Y-49010288D01*
X24459397Y-48870827D01*
X24459390Y-48870814D01*
X24371789Y-48739711D01*
X24371786Y-48739707D01*
X24260292Y-48628213D01*
X24260288Y-48628210D01*
X24129185Y-48540609D01*
X24129172Y-48540602D01*
X23983501Y-48480264D01*
X23983489Y-48480261D01*
X23828845Y-48449500D01*
X23828842Y-48449500D01*
X23671158Y-48449500D01*
X23671155Y-48449500D01*
X23516510Y-48480261D01*
X23516498Y-48480264D01*
X23467396Y-48500603D01*
X23397926Y-48508072D01*
X23335447Y-48476796D01*
X23299796Y-48416707D01*
X23298327Y-48410233D01*
X23274531Y-48290606D01*
X23269737Y-48266503D01*
X23259730Y-48242344D01*
X23209397Y-48120827D01*
X23209390Y-48120814D01*
X23121789Y-47989711D01*
X23121786Y-47989707D01*
X23010292Y-47878213D01*
X23010288Y-47878210D01*
X22879185Y-47790609D01*
X22879172Y-47790602D01*
X22733501Y-47730264D01*
X22733489Y-47730261D01*
X22578845Y-47699500D01*
X22578842Y-47699500D01*
X22421158Y-47699500D01*
X22421155Y-47699500D01*
X22266510Y-47730261D01*
X22266498Y-47730264D01*
X22120827Y-47790602D01*
X22120814Y-47790609D01*
X21989711Y-47878210D01*
X21989707Y-47878213D01*
X21878213Y-47989707D01*
X21878210Y-47989711D01*
X21790609Y-48120814D01*
X21790602Y-48120827D01*
X21730264Y-48266498D01*
X21730261Y-48266510D01*
X21699500Y-48421153D01*
X500500Y-48421153D01*
X500500Y-46171153D01*
X18949500Y-46171153D01*
X18949500Y-46328846D01*
X18980261Y-46483489D01*
X18980264Y-46483501D01*
X19040602Y-46629172D01*
X19040609Y-46629185D01*
X19128210Y-46760288D01*
X19128213Y-46760292D01*
X19239707Y-46871786D01*
X19239711Y-46871789D01*
X19370814Y-46959390D01*
X19370827Y-46959397D01*
X19508683Y-47016498D01*
X19516503Y-47019737D01*
X19670680Y-47050405D01*
X19671153Y-47050499D01*
X19671156Y-47050500D01*
X19671158Y-47050500D01*
X19828841Y-47050500D01*
X19828842Y-47050500D01*
X19828842Y-47050499D01*
X19829806Y-47050405D01*
X19830307Y-47050500D01*
X19834934Y-47050500D01*
X19834934Y-47051377D01*
X19898452Y-47063424D01*
X19949162Y-47111489D01*
X19963577Y-47149616D01*
X19980261Y-47233491D01*
X19980264Y-47233501D01*
X20040602Y-47379172D01*
X20040609Y-47379185D01*
X20128210Y-47510288D01*
X20128213Y-47510292D01*
X20239707Y-47621786D01*
X20239711Y-47621789D01*
X20370814Y-47709390D01*
X20370827Y-47709397D01*
X20508683Y-47766498D01*
X20516503Y-47769737D01*
X20671153Y-47800499D01*
X20671156Y-47800500D01*
X20671158Y-47800500D01*
X20828844Y-47800500D01*
X20828845Y-47800499D01*
X20983497Y-47769737D01*
X21129179Y-47709394D01*
X21260289Y-47621789D01*
X21371789Y-47510289D01*
X21459394Y-47379179D01*
X21519737Y-47233497D01*
X21550500Y-47078842D01*
X21550500Y-46921158D01*
X21550500Y-46921155D01*
X21550499Y-46921153D01*
X21540486Y-46870814D01*
X21519737Y-46766503D01*
X21517163Y-46760288D01*
X21459397Y-46620827D01*
X21459390Y-46620814D01*
X21371789Y-46489711D01*
X21371786Y-46489707D01*
X21260292Y-46378213D01*
X21260288Y-46378210D01*
X21159931Y-46311153D01*
X30247000Y-46311153D01*
X30247000Y-46468846D01*
X30277761Y-46623489D01*
X30277764Y-46623501D01*
X30338102Y-46769172D01*
X30338109Y-46769185D01*
X30425710Y-46900288D01*
X30425713Y-46900292D01*
X30537207Y-47011786D01*
X30537211Y-47011789D01*
X30668314Y-47099390D01*
X30668327Y-47099397D01*
X30813998Y-47159735D01*
X30814003Y-47159737D01*
X30968653Y-47190499D01*
X30968656Y-47190500D01*
X30968658Y-47190500D01*
X31126344Y-47190500D01*
X31126345Y-47190499D01*
X31280997Y-47159737D01*
X31426679Y-47099394D01*
X31557789Y-47011789D01*
X31669289Y-46900289D01*
X31756894Y-46769179D01*
X31758003Y-46766503D01*
X31796949Y-46672476D01*
X31817237Y-46623497D01*
X31848000Y-46468842D01*
X31848000Y-46311158D01*
X31848000Y-46311155D01*
X31847999Y-46311153D01*
X31817237Y-46156503D01*
X31817235Y-46156498D01*
X31756897Y-46010827D01*
X31756890Y-46010814D01*
X31669289Y-45879711D01*
X31669286Y-45879707D01*
X31557792Y-45768213D01*
X31557788Y-45768210D01*
X31426685Y-45680609D01*
X31426672Y-45680602D01*
X31281001Y-45620264D01*
X31280989Y-45620261D01*
X31126345Y-45589500D01*
X31126342Y-45589500D01*
X30968658Y-45589500D01*
X30968655Y-45589500D01*
X30814010Y-45620261D01*
X30813998Y-45620264D01*
X30668327Y-45680602D01*
X30668314Y-45680609D01*
X30537211Y-45768210D01*
X30537207Y-45768213D01*
X30425713Y-45879707D01*
X30425710Y-45879711D01*
X30338109Y-46010814D01*
X30338102Y-46010827D01*
X30277764Y-46156498D01*
X30277761Y-46156510D01*
X30247000Y-46311153D01*
X21159931Y-46311153D01*
X21129185Y-46290609D01*
X21129172Y-46290602D01*
X20983501Y-46230264D01*
X20983489Y-46230261D01*
X20828845Y-46199500D01*
X20828842Y-46199500D01*
X20671158Y-46199500D01*
X20671150Y-46199500D01*
X20670174Y-46199596D01*
X20669668Y-46199500D01*
X20665066Y-46199500D01*
X20665066Y-46198626D01*
X20601530Y-46186566D01*
X20550827Y-46138494D01*
X20536422Y-46100382D01*
X20519738Y-46016510D01*
X20519737Y-46016503D01*
X20517386Y-46010827D01*
X20459397Y-45870827D01*
X20459390Y-45870814D01*
X20371789Y-45739711D01*
X20371786Y-45739707D01*
X20260292Y-45628213D01*
X20260288Y-45628210D01*
X20129185Y-45540609D01*
X20129172Y-45540602D01*
X19983501Y-45480264D01*
X19983489Y-45480261D01*
X19828845Y-45449500D01*
X19828842Y-45449500D01*
X19671158Y-45449500D01*
X19671155Y-45449500D01*
X19516510Y-45480261D01*
X19516498Y-45480264D01*
X19370827Y-45540602D01*
X19370814Y-45540609D01*
X19239711Y-45628210D01*
X19239707Y-45628213D01*
X19128213Y-45739707D01*
X19128210Y-45739711D01*
X19040609Y-45870814D01*
X19040602Y-45870827D01*
X18980264Y-46016498D01*
X18980261Y-46016510D01*
X18949500Y-46171153D01*
X500500Y-46171153D01*
X500500Y-44921153D01*
X4199500Y-44921153D01*
X4199500Y-45078846D01*
X4230261Y-45233489D01*
X4230264Y-45233501D01*
X4290602Y-45379172D01*
X4290609Y-45379185D01*
X4378210Y-45510288D01*
X4378213Y-45510292D01*
X4489707Y-45621786D01*
X4489711Y-45621789D01*
X4620814Y-45709390D01*
X4620827Y-45709397D01*
X4694013Y-45739711D01*
X4766503Y-45769737D01*
X4921153Y-45800499D01*
X4921156Y-45800500D01*
X4921158Y-45800500D01*
X5078844Y-45800500D01*
X5078845Y-45800499D01*
X5233497Y-45769737D01*
X5379179Y-45709394D01*
X5510289Y-45621789D01*
X5621789Y-45510289D01*
X5709394Y-45379179D01*
X5769737Y-45233497D01*
X5800500Y-45078842D01*
X5800500Y-44921158D01*
X5800500Y-44921155D01*
X5800499Y-44921153D01*
X6749500Y-44921153D01*
X6749500Y-45078846D01*
X6780261Y-45233489D01*
X6780264Y-45233501D01*
X6840602Y-45379172D01*
X6840609Y-45379185D01*
X6928210Y-45510288D01*
X6928213Y-45510292D01*
X7039707Y-45621786D01*
X7039711Y-45621789D01*
X7170814Y-45709390D01*
X7170827Y-45709397D01*
X7244013Y-45739711D01*
X7316503Y-45769737D01*
X7471153Y-45800499D01*
X7471156Y-45800500D01*
X7471158Y-45800500D01*
X7628844Y-45800500D01*
X7628845Y-45800499D01*
X7783497Y-45769737D01*
X7929179Y-45709394D01*
X8060289Y-45621789D01*
X8171789Y-45510289D01*
X8259394Y-45379179D01*
X8319737Y-45233497D01*
X8350500Y-45078842D01*
X8350500Y-44921158D01*
X8350500Y-44921155D01*
X8350499Y-44921153D01*
X8342536Y-44881120D01*
X8319737Y-44766503D01*
X8319735Y-44766498D01*
X8259397Y-44620827D01*
X8259390Y-44620814D01*
X8171789Y-44489711D01*
X8171786Y-44489707D01*
X8060292Y-44378213D01*
X8060288Y-44378210D01*
X7929185Y-44290609D01*
X7929172Y-44290602D01*
X7783501Y-44230264D01*
X7783489Y-44230261D01*
X7628845Y-44199500D01*
X7628842Y-44199500D01*
X7471158Y-44199500D01*
X7471155Y-44199500D01*
X7316510Y-44230261D01*
X7316498Y-44230264D01*
X7170827Y-44290602D01*
X7170814Y-44290609D01*
X7039711Y-44378210D01*
X7039707Y-44378213D01*
X6928213Y-44489707D01*
X6928210Y-44489711D01*
X6840609Y-44620814D01*
X6840602Y-44620827D01*
X6780264Y-44766498D01*
X6780261Y-44766510D01*
X6749500Y-44921153D01*
X5800499Y-44921153D01*
X5792536Y-44881120D01*
X5769737Y-44766503D01*
X5769735Y-44766498D01*
X5709397Y-44620827D01*
X5709390Y-44620814D01*
X5621789Y-44489711D01*
X5621786Y-44489707D01*
X5510292Y-44378213D01*
X5510288Y-44378210D01*
X5379185Y-44290609D01*
X5379172Y-44290602D01*
X5233501Y-44230264D01*
X5233489Y-44230261D01*
X5078845Y-44199500D01*
X5078842Y-44199500D01*
X4921158Y-44199500D01*
X4921155Y-44199500D01*
X4766510Y-44230261D01*
X4766498Y-44230264D01*
X4620827Y-44290602D01*
X4620814Y-44290609D01*
X4489711Y-44378210D01*
X4489707Y-44378213D01*
X4378213Y-44489707D01*
X4378210Y-44489711D01*
X4290609Y-44620814D01*
X4290602Y-44620827D01*
X4230264Y-44766498D01*
X4230261Y-44766510D01*
X4199500Y-44921153D01*
X500500Y-44921153D01*
X500500Y-43124000D01*
X520185Y-43056961D01*
X572989Y-43011206D01*
X624500Y-43000000D01*
X34379173Y-43000000D01*
X34446212Y-43019685D01*
G37*
%TD.AperFunction*%
%TD*%
%TA.AperFunction,Conductor*%
%TO.N,/SingleChannelDriver/GND_B*%
G36*
X33943039Y-2019685D02*
G01*
X33988794Y-2072489D01*
X34000000Y-2124000D01*
X34000000Y-35876000D01*
X33980315Y-35943039D01*
X33927511Y-35988794D01*
X33876000Y-36000000D01*
X30238483Y-36000000D01*
X30171444Y-35980315D01*
X30125689Y-35927511D01*
X30115745Y-35858353D01*
X30144770Y-35794797D01*
X30191031Y-35761439D01*
X30316672Y-35709397D01*
X30316672Y-35709396D01*
X30316679Y-35709394D01*
X30447789Y-35621789D01*
X30559289Y-35510289D01*
X30646894Y-35379179D01*
X30652003Y-35366846D01*
X30679484Y-35300499D01*
X30707237Y-35233497D01*
X30738000Y-35078842D01*
X30738000Y-34921158D01*
X30738000Y-34921155D01*
X30737999Y-34921153D01*
X30709466Y-34777711D01*
X30707237Y-34766503D01*
X30693562Y-34733489D01*
X30646897Y-34620827D01*
X30646890Y-34620814D01*
X30559289Y-34489711D01*
X30559286Y-34489707D01*
X30447792Y-34378213D01*
X30447788Y-34378210D01*
X30316685Y-34290609D01*
X30316672Y-34290602D01*
X30171001Y-34230264D01*
X30170989Y-34230261D01*
X30016345Y-34199500D01*
X30016342Y-34199500D01*
X29858658Y-34199500D01*
X29858655Y-34199500D01*
X29704010Y-34230261D01*
X29703998Y-34230264D01*
X29558327Y-34290602D01*
X29558314Y-34290609D01*
X29427211Y-34378210D01*
X29427207Y-34378213D01*
X29315713Y-34489707D01*
X29315710Y-34489711D01*
X29228109Y-34620814D01*
X29228104Y-34620823D01*
X29222031Y-34635486D01*
X29178188Y-34689888D01*
X29111894Y-34711951D01*
X29044195Y-34694670D01*
X29019790Y-34675711D01*
X29010292Y-34666213D01*
X29010288Y-34666210D01*
X28879185Y-34578609D01*
X28879172Y-34578602D01*
X28733501Y-34518264D01*
X28733489Y-34518261D01*
X28578845Y-34487500D01*
X28578842Y-34487500D01*
X28421158Y-34487500D01*
X28421155Y-34487500D01*
X28266510Y-34518261D01*
X28266498Y-34518264D01*
X28120827Y-34578602D01*
X28120814Y-34578609D01*
X27989711Y-34666210D01*
X27989707Y-34666213D01*
X27956431Y-34699490D01*
X27895108Y-34732975D01*
X27825416Y-34727991D01*
X27781069Y-34699490D01*
X27747792Y-34666213D01*
X27747788Y-34666210D01*
X27616685Y-34578609D01*
X27616672Y-34578602D01*
X27471001Y-34518264D01*
X27470989Y-34518261D01*
X27316345Y-34487500D01*
X27316342Y-34487500D01*
X27158658Y-34487500D01*
X27158655Y-34487500D01*
X27004010Y-34518261D01*
X27003998Y-34518264D01*
X26858327Y-34578602D01*
X26858314Y-34578609D01*
X26727211Y-34666210D01*
X26727207Y-34666213D01*
X26615713Y-34777707D01*
X26615710Y-34777711D01*
X26528109Y-34908814D01*
X26528102Y-34908827D01*
X26467764Y-35054498D01*
X26467761Y-35054510D01*
X26437000Y-35209153D01*
X26437000Y-35366846D01*
X26467761Y-35521489D01*
X26467764Y-35521501D01*
X26528102Y-35667172D01*
X26528109Y-35667185D01*
X26619095Y-35803354D01*
X26617839Y-35804193D01*
X26642241Y-35861638D01*
X26630453Y-35930506D01*
X26583304Y-35982069D01*
X26519075Y-36000000D01*
X14124000Y-36000000D01*
X14056961Y-35980315D01*
X14011206Y-35927511D01*
X14000000Y-35876000D01*
X14000000Y-34421153D01*
X20087000Y-34421153D01*
X20087000Y-34578846D01*
X20117761Y-34733489D01*
X20117764Y-34733501D01*
X20178102Y-34879172D01*
X20178109Y-34879185D01*
X20265710Y-35010288D01*
X20265713Y-35010292D01*
X20377207Y-35121786D01*
X20377211Y-35121789D01*
X20508314Y-35209390D01*
X20508327Y-35209397D01*
X20653998Y-35269735D01*
X20654003Y-35269737D01*
X20808653Y-35300499D01*
X20808656Y-35300500D01*
X20808658Y-35300500D01*
X20966344Y-35300500D01*
X20966345Y-35300499D01*
X21120997Y-35269737D01*
X21266679Y-35209394D01*
X21397789Y-35121789D01*
X21509289Y-35010289D01*
X21596894Y-34879179D01*
X21657237Y-34733497D01*
X21688000Y-34578842D01*
X21688000Y-34421158D01*
X21688000Y-34421155D01*
X21687999Y-34421153D01*
X22627000Y-34421153D01*
X22627000Y-34578846D01*
X22657761Y-34733489D01*
X22657764Y-34733501D01*
X22718102Y-34879172D01*
X22718109Y-34879185D01*
X22805710Y-35010288D01*
X22805713Y-35010292D01*
X22917207Y-35121786D01*
X22917211Y-35121789D01*
X23048314Y-35209390D01*
X23048327Y-35209397D01*
X23193998Y-35269735D01*
X23194003Y-35269737D01*
X23348653Y-35300499D01*
X23348656Y-35300500D01*
X23348658Y-35300500D01*
X23506344Y-35300500D01*
X23506345Y-35300499D01*
X23660997Y-35269737D01*
X23806679Y-35209394D01*
X23926109Y-35129592D01*
X23992786Y-35108715D01*
X24060166Y-35127199D01*
X24063877Y-35129584D01*
X24183321Y-35209394D01*
X24183323Y-35209395D01*
X24183327Y-35209397D01*
X24328998Y-35269735D01*
X24329003Y-35269737D01*
X24483653Y-35300499D01*
X24483656Y-35300500D01*
X24483658Y-35300500D01*
X24641344Y-35300500D01*
X24641345Y-35300499D01*
X24795997Y-35269737D01*
X24941679Y-35209394D01*
X25072789Y-35121789D01*
X25184289Y-35010289D01*
X25271894Y-34879179D01*
X25332237Y-34733497D01*
X25363000Y-34578842D01*
X25363000Y-34421158D01*
X25363000Y-34421155D01*
X25362999Y-34421153D01*
X25337031Y-34290606D01*
X25332237Y-34266503D01*
X25332235Y-34266498D01*
X25271897Y-34120827D01*
X25271890Y-34120814D01*
X25184289Y-33989711D01*
X25184286Y-33989707D01*
X25072792Y-33878213D01*
X25072788Y-33878210D01*
X24941685Y-33790609D01*
X24941672Y-33790602D01*
X24796001Y-33730264D01*
X24795989Y-33730261D01*
X24641345Y-33699500D01*
X24641342Y-33699500D01*
X24483658Y-33699500D01*
X24483655Y-33699500D01*
X24329010Y-33730261D01*
X24328998Y-33730264D01*
X24183327Y-33790602D01*
X24183314Y-33790609D01*
X24063891Y-33870406D01*
X23997213Y-33891284D01*
X23929833Y-33872799D01*
X23926109Y-33870406D01*
X23806685Y-33790609D01*
X23806672Y-33790602D01*
X23661001Y-33730264D01*
X23660989Y-33730261D01*
X23506345Y-33699500D01*
X23506342Y-33699500D01*
X23348658Y-33699500D01*
X23348655Y-33699500D01*
X23194010Y-33730261D01*
X23193998Y-33730264D01*
X23048327Y-33790602D01*
X23048314Y-33790609D01*
X22917211Y-33878210D01*
X22917207Y-33878213D01*
X22805713Y-33989707D01*
X22805710Y-33989711D01*
X22718109Y-34120814D01*
X22718102Y-34120827D01*
X22657764Y-34266498D01*
X22657761Y-34266510D01*
X22627000Y-34421153D01*
X21687999Y-34421153D01*
X21662031Y-34290606D01*
X21657237Y-34266503D01*
X21657235Y-34266498D01*
X21596897Y-34120827D01*
X21596890Y-34120814D01*
X21509289Y-33989711D01*
X21509286Y-33989707D01*
X21397792Y-33878213D01*
X21397788Y-33878210D01*
X21266685Y-33790609D01*
X21266672Y-33790602D01*
X21121001Y-33730264D01*
X21120989Y-33730261D01*
X20966345Y-33699500D01*
X20966342Y-33699500D01*
X20808658Y-33699500D01*
X20808655Y-33699500D01*
X20654010Y-33730261D01*
X20653998Y-33730264D01*
X20508327Y-33790602D01*
X20508314Y-33790609D01*
X20377211Y-33878210D01*
X20377207Y-33878213D01*
X20265713Y-33989707D01*
X20265710Y-33989711D01*
X20178109Y-34120814D01*
X20178102Y-34120827D01*
X20117764Y-34266498D01*
X20117761Y-34266510D01*
X20087000Y-34421153D01*
X14000000Y-34421153D01*
X14000000Y-32344927D01*
X14019685Y-32277888D01*
X14072489Y-32232133D01*
X14141647Y-32222189D01*
X14171450Y-32230365D01*
X14266503Y-32269737D01*
X14421153Y-32300499D01*
X14421156Y-32300500D01*
X14421158Y-32300500D01*
X14578844Y-32300500D01*
X14578845Y-32300499D01*
X14733497Y-32269737D01*
X14879179Y-32209394D01*
X15010289Y-32121789D01*
X15121789Y-32010289D01*
X15181348Y-31921153D01*
X20637000Y-31921153D01*
X20637000Y-32078846D01*
X20667761Y-32233489D01*
X20667764Y-32233501D01*
X20728102Y-32379172D01*
X20728109Y-32379185D01*
X20815710Y-32510288D01*
X20815713Y-32510292D01*
X20927207Y-32621786D01*
X20927211Y-32621789D01*
X21058314Y-32709390D01*
X21058327Y-32709397D01*
X21203998Y-32769735D01*
X21204003Y-32769737D01*
X21358653Y-32800499D01*
X21358656Y-32800500D01*
X21358658Y-32800500D01*
X21516344Y-32800500D01*
X21516345Y-32800499D01*
X21670997Y-32769737D01*
X21816679Y-32709394D01*
X21947789Y-32621789D01*
X22059289Y-32510289D01*
X22146894Y-32379179D01*
X22207237Y-32233497D01*
X22238000Y-32078842D01*
X22238000Y-31921158D01*
X22238000Y-31921155D01*
X22237999Y-31921153D01*
X22207238Y-31766510D01*
X22207237Y-31766503D01*
X22193562Y-31733489D01*
X22146897Y-31620827D01*
X22146890Y-31620814D01*
X22059289Y-31489711D01*
X22059286Y-31489707D01*
X21947792Y-31378213D01*
X21947788Y-31378210D01*
X21816685Y-31290609D01*
X21816672Y-31290602D01*
X21671001Y-31230264D01*
X21670989Y-31230261D01*
X21516345Y-31199500D01*
X21516342Y-31199500D01*
X21358658Y-31199500D01*
X21358655Y-31199500D01*
X21204010Y-31230261D01*
X21203998Y-31230264D01*
X21058327Y-31290602D01*
X21058314Y-31290609D01*
X20927211Y-31378210D01*
X20927207Y-31378213D01*
X20815713Y-31489707D01*
X20815710Y-31489711D01*
X20728109Y-31620814D01*
X20728102Y-31620827D01*
X20667764Y-31766498D01*
X20667761Y-31766510D01*
X20637000Y-31921153D01*
X15181348Y-31921153D01*
X15209394Y-31879179D01*
X15269737Y-31733497D01*
X15300500Y-31578842D01*
X15300500Y-31421158D01*
X15300500Y-31421155D01*
X15300499Y-31421153D01*
X15274531Y-31290606D01*
X15269737Y-31266503D01*
X15269735Y-31266498D01*
X15209397Y-31120827D01*
X15209390Y-31120814D01*
X15121789Y-30989711D01*
X15121786Y-30989707D01*
X15010292Y-30878213D01*
X15010288Y-30878210D01*
X14879185Y-30790609D01*
X14879172Y-30790602D01*
X14733501Y-30730264D01*
X14733489Y-30730261D01*
X14578845Y-30699500D01*
X14578842Y-30699500D01*
X14421158Y-30699500D01*
X14421155Y-30699500D01*
X14266510Y-30730261D01*
X14266507Y-30730262D01*
X14266506Y-30730262D01*
X14266503Y-30730263D01*
X14194016Y-30760288D01*
X14171452Y-30769634D01*
X14101982Y-30777102D01*
X14039503Y-30745826D01*
X14003851Y-30685737D01*
X14000000Y-30655072D01*
X14000000Y-30171153D01*
X22199500Y-30171153D01*
X22199500Y-30328846D01*
X22230261Y-30483489D01*
X22230264Y-30483501D01*
X22290602Y-30629172D01*
X22290609Y-30629185D01*
X22378210Y-30760288D01*
X22378213Y-30760292D01*
X22489707Y-30871786D01*
X22489711Y-30871789D01*
X22620814Y-30959390D01*
X22620827Y-30959397D01*
X22766498Y-31019735D01*
X22766503Y-31019737D01*
X22921153Y-31050499D01*
X22921156Y-31050500D01*
X22921158Y-31050500D01*
X23078844Y-31050500D01*
X23078845Y-31050499D01*
X23233497Y-31019737D01*
X23379179Y-30959394D01*
X23510289Y-30871789D01*
X23621789Y-30760289D01*
X23709394Y-30629179D01*
X23769737Y-30483497D01*
X23800500Y-30328842D01*
X23800500Y-30311153D01*
X30247000Y-30311153D01*
X30247000Y-30468846D01*
X30277761Y-30623489D01*
X30277764Y-30623501D01*
X30338102Y-30769172D01*
X30338109Y-30769185D01*
X30425710Y-30900288D01*
X30425713Y-30900292D01*
X30537207Y-31011786D01*
X30537211Y-31011789D01*
X30668314Y-31099390D01*
X30668327Y-31099397D01*
X30813998Y-31159735D01*
X30814003Y-31159737D01*
X30968653Y-31190499D01*
X30968656Y-31190500D01*
X30968658Y-31190500D01*
X31126344Y-31190500D01*
X31126345Y-31190499D01*
X31280997Y-31159737D01*
X31426679Y-31099394D01*
X31557789Y-31011789D01*
X31669289Y-30900289D01*
X31756894Y-30769179D01*
X31817237Y-30623497D01*
X31848000Y-30468842D01*
X31848000Y-30311158D01*
X31848000Y-30311155D01*
X31847999Y-30311153D01*
X31817238Y-30156510D01*
X31817237Y-30156503D01*
X31817235Y-30156498D01*
X31756897Y-30010827D01*
X31756890Y-30010814D01*
X31669289Y-29879711D01*
X31669286Y-29879707D01*
X31557792Y-29768213D01*
X31557788Y-29768210D01*
X31426685Y-29680609D01*
X31426672Y-29680602D01*
X31281001Y-29620264D01*
X31280989Y-29620261D01*
X31126345Y-29589500D01*
X31126342Y-29589500D01*
X30968658Y-29589500D01*
X30968655Y-29589500D01*
X30814010Y-29620261D01*
X30813998Y-29620264D01*
X30668327Y-29680602D01*
X30668314Y-29680609D01*
X30537211Y-29768210D01*
X30537207Y-29768213D01*
X30425713Y-29879707D01*
X30425710Y-29879711D01*
X30338109Y-30010814D01*
X30338102Y-30010827D01*
X30277764Y-30156498D01*
X30277761Y-30156510D01*
X30247000Y-30311153D01*
X23800500Y-30311153D01*
X23800500Y-30171158D01*
X23800500Y-30171155D01*
X23800499Y-30171153D01*
X23769738Y-30016510D01*
X23769737Y-30016503D01*
X23767386Y-30010827D01*
X23709397Y-29870827D01*
X23709390Y-29870814D01*
X23621789Y-29739711D01*
X23621786Y-29739707D01*
X23510292Y-29628213D01*
X23510288Y-29628210D01*
X23379185Y-29540609D01*
X23379172Y-29540602D01*
X23233501Y-29480264D01*
X23233489Y-29480261D01*
X23078845Y-29449500D01*
X23078842Y-29449500D01*
X22921158Y-29449500D01*
X22921155Y-29449500D01*
X22766510Y-29480261D01*
X22766498Y-29480264D01*
X22620827Y-29540602D01*
X22620814Y-29540609D01*
X22489711Y-29628210D01*
X22489707Y-29628213D01*
X22378213Y-29739707D01*
X22378210Y-29739711D01*
X22290609Y-29870814D01*
X22290602Y-29870827D01*
X22230264Y-30016498D01*
X22230261Y-30016510D01*
X22199500Y-30171153D01*
X14000000Y-30171153D01*
X14000000Y-28421153D01*
X20637000Y-28421153D01*
X20637000Y-28578846D01*
X20667761Y-28733489D01*
X20667764Y-28733501D01*
X20728102Y-28879172D01*
X20728109Y-28879185D01*
X20815710Y-29010288D01*
X20815713Y-29010292D01*
X20927207Y-29121786D01*
X20927211Y-29121789D01*
X21058314Y-29209390D01*
X21058327Y-29209397D01*
X21203998Y-29269735D01*
X21204003Y-29269737D01*
X21358653Y-29300499D01*
X21358656Y-29300500D01*
X21358658Y-29300500D01*
X21516344Y-29300500D01*
X21516345Y-29300499D01*
X21670997Y-29269737D01*
X21816679Y-29209394D01*
X21947789Y-29121789D01*
X22059289Y-29010289D01*
X22146894Y-28879179D01*
X22207237Y-28733497D01*
X22238000Y-28578842D01*
X22238000Y-28421158D01*
X22238000Y-28421155D01*
X22237999Y-28421153D01*
X22207238Y-28266510D01*
X22207237Y-28266503D01*
X22147294Y-28121786D01*
X22146897Y-28120827D01*
X22146890Y-28120814D01*
X22059289Y-27989711D01*
X22059286Y-27989707D01*
X21947792Y-27878213D01*
X21947788Y-27878210D01*
X21816685Y-27790609D01*
X21816672Y-27790602D01*
X21671001Y-27730264D01*
X21670989Y-27730261D01*
X21516345Y-27699500D01*
X21516342Y-27699500D01*
X21358658Y-27699500D01*
X21358655Y-27699500D01*
X21204010Y-27730261D01*
X21203998Y-27730264D01*
X21058327Y-27790602D01*
X21058314Y-27790609D01*
X20927211Y-27878210D01*
X20927207Y-27878213D01*
X20815713Y-27989707D01*
X20815710Y-27989711D01*
X20728109Y-28120814D01*
X20728102Y-28120827D01*
X20667764Y-28266498D01*
X20667761Y-28266510D01*
X20637000Y-28421153D01*
X14000000Y-28421153D01*
X14000000Y-27421153D01*
X14449500Y-27421153D01*
X14449500Y-27578846D01*
X14480261Y-27733489D01*
X14480264Y-27733501D01*
X14540602Y-27879172D01*
X14540609Y-27879185D01*
X14628210Y-28010288D01*
X14628213Y-28010292D01*
X14739707Y-28121786D01*
X14739711Y-28121789D01*
X14870814Y-28209390D01*
X14870827Y-28209397D01*
X15008683Y-28266498D01*
X15016503Y-28269737D01*
X15171153Y-28300499D01*
X15171156Y-28300500D01*
X15171158Y-28300500D01*
X15328844Y-28300500D01*
X15328845Y-28300499D01*
X15339179Y-28298443D01*
X15364287Y-28293450D01*
X15364292Y-28293449D01*
X15449800Y-28276439D01*
X15483497Y-28269737D01*
X15629179Y-28209394D01*
X15760289Y-28121789D01*
X15871789Y-28010289D01*
X15959394Y-27879179D01*
X16019737Y-27733497D01*
X16050500Y-27578842D01*
X16050500Y-27421158D01*
X16050500Y-27421155D01*
X16050499Y-27421153D01*
X16019738Y-27266510D01*
X16019737Y-27266503D01*
X16019735Y-27266498D01*
X15959397Y-27120827D01*
X15959390Y-27120814D01*
X15871789Y-26989711D01*
X15871786Y-26989707D01*
X15760292Y-26878213D01*
X15760288Y-26878210D01*
X15629185Y-26790609D01*
X15629172Y-26790602D01*
X15483501Y-26730264D01*
X15483489Y-26730261D01*
X15328845Y-26699500D01*
X15328842Y-26699500D01*
X15171158Y-26699500D01*
X15171155Y-26699500D01*
X15016510Y-26730261D01*
X15016498Y-26730264D01*
X14870827Y-26790602D01*
X14870814Y-26790609D01*
X14739711Y-26878210D01*
X14739707Y-26878213D01*
X14628213Y-26989707D01*
X14628210Y-26989711D01*
X14540609Y-27120814D01*
X14540602Y-27120827D01*
X14480264Y-27266498D01*
X14480261Y-27266510D01*
X14449500Y-27421153D01*
X14000000Y-27421153D01*
X14000000Y-24399372D01*
X28593779Y-24399372D01*
X28593779Y-24557065D01*
X28624540Y-24711708D01*
X28624543Y-24711720D01*
X28684881Y-24857391D01*
X28684888Y-24857404D01*
X28772489Y-24988507D01*
X28772492Y-24988511D01*
X28883986Y-25100005D01*
X28883990Y-25100008D01*
X29015093Y-25187609D01*
X29015106Y-25187616D01*
X29160777Y-25247954D01*
X29160782Y-25247956D01*
X29270272Y-25269735D01*
X29315432Y-25278718D01*
X29315435Y-25278719D01*
X29315437Y-25278719D01*
X29473123Y-25278719D01*
X29473124Y-25278718D01*
X29627776Y-25247956D01*
X29773458Y-25187613D01*
X29904568Y-25100008D01*
X30016068Y-24988508D01*
X30103673Y-24857398D01*
X30164016Y-24711716D01*
X30194779Y-24557061D01*
X30194779Y-24421153D01*
X31762000Y-24421153D01*
X31762000Y-24578846D01*
X31792761Y-24733489D01*
X31792764Y-24733501D01*
X31853102Y-24879172D01*
X31853109Y-24879185D01*
X31940710Y-25010288D01*
X31940713Y-25010292D01*
X32052207Y-25121786D01*
X32052211Y-25121789D01*
X32183314Y-25209390D01*
X32183327Y-25209397D01*
X32328998Y-25269735D01*
X32329003Y-25269737D01*
X32483653Y-25300499D01*
X32483656Y-25300500D01*
X32483658Y-25300500D01*
X32641344Y-25300500D01*
X32641345Y-25300499D01*
X32795997Y-25269737D01*
X32941679Y-25209394D01*
X33072789Y-25121789D01*
X33184289Y-25010289D01*
X33271894Y-24879179D01*
X33332237Y-24733497D01*
X33363000Y-24578842D01*
X33363000Y-24421158D01*
X33363000Y-24421155D01*
X33362999Y-24421153D01*
X33332238Y-24266510D01*
X33332237Y-24266503D01*
X33323213Y-24244717D01*
X33271897Y-24120827D01*
X33271890Y-24120814D01*
X33184289Y-23989711D01*
X33184286Y-23989707D01*
X33072792Y-23878213D01*
X33072788Y-23878210D01*
X32941685Y-23790609D01*
X32941672Y-23790602D01*
X32796001Y-23730264D01*
X32795989Y-23730261D01*
X32641345Y-23699500D01*
X32641342Y-23699500D01*
X32483658Y-23699500D01*
X32483655Y-23699500D01*
X32329010Y-23730261D01*
X32328998Y-23730264D01*
X32183327Y-23790602D01*
X32183314Y-23790609D01*
X32052211Y-23878210D01*
X32052207Y-23878213D01*
X31940713Y-23989707D01*
X31940710Y-23989711D01*
X31853109Y-24120814D01*
X31853102Y-24120827D01*
X31792764Y-24266498D01*
X31792761Y-24266510D01*
X31762000Y-24421153D01*
X30194779Y-24421153D01*
X30194779Y-24399377D01*
X30194779Y-24399374D01*
X30194778Y-24399372D01*
X30168350Y-24266510D01*
X30164016Y-24244722D01*
X30164014Y-24244717D01*
X30103676Y-24099046D01*
X30103669Y-24099033D01*
X30016068Y-23967930D01*
X30016065Y-23967926D01*
X29904571Y-23856432D01*
X29904567Y-23856429D01*
X29773464Y-23768828D01*
X29773451Y-23768821D01*
X29627780Y-23708483D01*
X29627768Y-23708480D01*
X29473124Y-23677719D01*
X29473121Y-23677719D01*
X29315437Y-23677719D01*
X29315434Y-23677719D01*
X29160789Y-23708480D01*
X29160777Y-23708483D01*
X29015106Y-23768821D01*
X29015093Y-23768828D01*
X28883990Y-23856429D01*
X28883986Y-23856432D01*
X28772492Y-23967926D01*
X28772489Y-23967930D01*
X28684888Y-24099033D01*
X28684881Y-24099046D01*
X28624543Y-24244717D01*
X28624540Y-24244729D01*
X28593779Y-24399372D01*
X14000000Y-24399372D01*
X14000000Y-21171153D01*
X28637000Y-21171153D01*
X28637000Y-21328846D01*
X28667761Y-21483489D01*
X28667764Y-21483501D01*
X28728102Y-21629172D01*
X28728109Y-21629185D01*
X28815710Y-21760288D01*
X28815713Y-21760292D01*
X28927207Y-21871786D01*
X28927211Y-21871789D01*
X29058314Y-21959390D01*
X29058327Y-21959397D01*
X29203998Y-22019735D01*
X29204003Y-22019737D01*
X29358653Y-22050499D01*
X29358656Y-22050500D01*
X29358658Y-22050500D01*
X29516344Y-22050500D01*
X29516345Y-22050499D01*
X29670997Y-22019737D01*
X29816679Y-21959394D01*
X29947789Y-21871789D01*
X30059289Y-21760289D01*
X30146894Y-21629179D01*
X30207237Y-21483497D01*
X30238000Y-21328842D01*
X30238000Y-21171158D01*
X30238000Y-21171155D01*
X30237999Y-21171153D01*
X30207238Y-21016510D01*
X30207237Y-21016503D01*
X30167742Y-20921153D01*
X31762000Y-20921153D01*
X31762000Y-21078846D01*
X31792761Y-21233489D01*
X31792764Y-21233501D01*
X31853102Y-21379172D01*
X31853109Y-21379185D01*
X31940710Y-21510288D01*
X31940713Y-21510292D01*
X32052207Y-21621786D01*
X32052211Y-21621789D01*
X32183314Y-21709390D01*
X32183327Y-21709397D01*
X32328998Y-21769735D01*
X32329003Y-21769737D01*
X32483653Y-21800499D01*
X32483656Y-21800500D01*
X32483658Y-21800500D01*
X32641344Y-21800500D01*
X32641345Y-21800499D01*
X32795997Y-21769737D01*
X32941679Y-21709394D01*
X33072789Y-21621789D01*
X33184289Y-21510289D01*
X33271894Y-21379179D01*
X33332237Y-21233497D01*
X33363000Y-21078842D01*
X33363000Y-20921158D01*
X33363000Y-20921155D01*
X33362999Y-20921153D01*
X33332238Y-20766510D01*
X33332237Y-20766503D01*
X33332235Y-20766498D01*
X33271897Y-20620827D01*
X33271890Y-20620814D01*
X33184289Y-20489711D01*
X33184286Y-20489707D01*
X33072792Y-20378213D01*
X33072788Y-20378210D01*
X32941685Y-20290609D01*
X32941672Y-20290602D01*
X32796001Y-20230264D01*
X32795989Y-20230261D01*
X32641345Y-20199500D01*
X32641342Y-20199500D01*
X32483658Y-20199500D01*
X32483655Y-20199500D01*
X32329010Y-20230261D01*
X32328998Y-20230264D01*
X32183327Y-20290602D01*
X32183314Y-20290609D01*
X32052211Y-20378210D01*
X32052207Y-20378213D01*
X31940713Y-20489707D01*
X31940710Y-20489711D01*
X31853109Y-20620814D01*
X31853102Y-20620827D01*
X31792764Y-20766498D01*
X31792761Y-20766510D01*
X31762000Y-20921153D01*
X30167742Y-20921153D01*
X30167433Y-20920408D01*
X30146897Y-20870827D01*
X30146890Y-20870814D01*
X30059289Y-20739711D01*
X30059286Y-20739707D01*
X29947792Y-20628213D01*
X29947788Y-20628210D01*
X29816685Y-20540609D01*
X29816672Y-20540602D01*
X29671001Y-20480264D01*
X29670989Y-20480261D01*
X29516345Y-20449500D01*
X29516342Y-20449500D01*
X29358658Y-20449500D01*
X29358655Y-20449500D01*
X29204010Y-20480261D01*
X29203998Y-20480264D01*
X29058327Y-20540602D01*
X29058314Y-20540609D01*
X28927211Y-20628210D01*
X28927207Y-20628213D01*
X28815713Y-20739707D01*
X28815710Y-20739711D01*
X28728109Y-20870814D01*
X28728102Y-20870827D01*
X28667764Y-21016498D01*
X28667761Y-21016510D01*
X28637000Y-21171153D01*
X14000000Y-21171153D01*
X14000000Y-19021153D01*
X23699500Y-19021153D01*
X23699500Y-19178846D01*
X23730261Y-19333489D01*
X23730264Y-19333501D01*
X23790602Y-19479172D01*
X23790609Y-19479185D01*
X23878210Y-19610288D01*
X23878213Y-19610292D01*
X23989707Y-19721786D01*
X23989711Y-19721789D01*
X24120814Y-19809390D01*
X24120827Y-19809397D01*
X24266498Y-19869735D01*
X24266503Y-19869737D01*
X24421153Y-19900499D01*
X24421156Y-19900500D01*
X24421158Y-19900500D01*
X24578844Y-19900500D01*
X24578845Y-19900499D01*
X24733497Y-19869737D01*
X24879179Y-19809394D01*
X25010289Y-19721789D01*
X25121789Y-19610289D01*
X25209394Y-19479179D01*
X25269737Y-19333497D01*
X25300500Y-19178842D01*
X25300500Y-19021158D01*
X25300500Y-19021155D01*
X25300499Y-19021153D01*
X25269738Y-18866510D01*
X25269737Y-18866503D01*
X25269735Y-18866498D01*
X25209397Y-18720827D01*
X25209390Y-18720814D01*
X25121789Y-18589711D01*
X25121786Y-18589707D01*
X25010292Y-18478213D01*
X25010288Y-18478210D01*
X24879185Y-18390609D01*
X24879172Y-18390602D01*
X24733501Y-18330264D01*
X24733489Y-18330261D01*
X24578845Y-18299500D01*
X24578842Y-18299500D01*
X24421158Y-18299500D01*
X24421155Y-18299500D01*
X24266510Y-18330261D01*
X24266498Y-18330264D01*
X24120827Y-18390602D01*
X24120814Y-18390609D01*
X23989711Y-18478210D01*
X23989707Y-18478213D01*
X23878213Y-18589707D01*
X23878210Y-18589711D01*
X23790609Y-18720814D01*
X23790602Y-18720827D01*
X23730264Y-18866498D01*
X23730261Y-18866510D01*
X23699500Y-19021153D01*
X14000000Y-19021153D01*
X14000000Y-17051362D01*
X14019685Y-16984323D01*
X14036319Y-16963681D01*
X15078847Y-15921153D01*
X23699500Y-15921153D01*
X23699500Y-16078846D01*
X23730261Y-16233489D01*
X23730264Y-16233501D01*
X23790602Y-16379172D01*
X23790609Y-16379185D01*
X23878210Y-16510288D01*
X23878213Y-16510292D01*
X23989707Y-16621786D01*
X23989711Y-16621789D01*
X24120814Y-16709390D01*
X24120827Y-16709397D01*
X24266498Y-16769735D01*
X24266503Y-16769737D01*
X24421153Y-16800499D01*
X24421156Y-16800500D01*
X24421158Y-16800500D01*
X24578844Y-16800500D01*
X24578845Y-16800499D01*
X24733497Y-16769737D01*
X24879179Y-16709394D01*
X25010289Y-16621789D01*
X25121789Y-16510289D01*
X25209394Y-16379179D01*
X25269737Y-16233497D01*
X25300500Y-16078842D01*
X25300500Y-15921158D01*
X25300500Y-15921155D01*
X25300499Y-15921153D01*
X25269738Y-15766510D01*
X25269737Y-15766503D01*
X25269735Y-15766498D01*
X25209397Y-15620827D01*
X25209390Y-15620814D01*
X25121789Y-15489711D01*
X25121786Y-15489707D01*
X25010292Y-15378213D01*
X25010288Y-15378210D01*
X24879185Y-15290609D01*
X24879172Y-15290602D01*
X24733501Y-15230264D01*
X24733489Y-15230261D01*
X24578845Y-15199500D01*
X24578842Y-15199500D01*
X24421158Y-15199500D01*
X24421155Y-15199500D01*
X24266510Y-15230261D01*
X24266498Y-15230264D01*
X24120827Y-15290602D01*
X24120814Y-15290609D01*
X23989711Y-15378210D01*
X23989707Y-15378213D01*
X23878213Y-15489707D01*
X23878210Y-15489711D01*
X23790609Y-15620814D01*
X23790602Y-15620827D01*
X23730264Y-15766498D01*
X23730261Y-15766510D01*
X23699500Y-15921153D01*
X15078847Y-15921153D01*
X15172615Y-15827385D01*
X15800500Y-15199500D01*
X21000000Y-10000000D01*
X21000000Y-3252135D01*
X21999500Y-3252135D01*
X21999500Y-9347870D01*
X21999501Y-9347876D01*
X22005908Y-9407483D01*
X22056202Y-9542328D01*
X22056206Y-9542335D01*
X22142452Y-9657544D01*
X22142455Y-9657547D01*
X22257664Y-9743793D01*
X22257671Y-9743797D01*
X22392517Y-9794091D01*
X22392516Y-9794091D01*
X22399444Y-9794835D01*
X22452127Y-9800500D01*
X25547872Y-9800499D01*
X25607483Y-9794091D01*
X25742331Y-9743796D01*
X25857546Y-9657546D01*
X25943796Y-9542331D01*
X25994091Y-9407483D01*
X26000500Y-9347873D01*
X26000499Y-3252128D01*
X25994091Y-3192517D01*
X25943796Y-3057669D01*
X25943795Y-3057668D01*
X25943793Y-3057664D01*
X25857547Y-2942455D01*
X25857544Y-2942452D01*
X25742335Y-2856206D01*
X25742328Y-2856202D01*
X25607482Y-2805908D01*
X25607483Y-2805908D01*
X25547883Y-2799501D01*
X25547881Y-2799500D01*
X25547873Y-2799500D01*
X25547864Y-2799500D01*
X22452129Y-2799500D01*
X22452123Y-2799501D01*
X22392516Y-2805908D01*
X22257671Y-2856202D01*
X22257664Y-2856206D01*
X22142455Y-2942452D01*
X22142452Y-2942455D01*
X22056206Y-3057664D01*
X22056202Y-3057671D01*
X22005908Y-3192517D01*
X21999501Y-3252116D01*
X21999501Y-3252123D01*
X21999500Y-3252135D01*
X21000000Y-3252135D01*
X21000000Y-2124000D01*
X21019685Y-2056961D01*
X21072489Y-2011206D01*
X21124000Y-2000000D01*
X33876000Y-2000000D01*
X33943039Y-2019685D01*
G37*
%TD.AperFunction*%
%TD*%
%TA.AperFunction,Conductor*%
%TO.N,/SingleChannelDriver1/GND_B*%
G36*
X53943039Y-2019685D02*
G01*
X53988794Y-2072489D01*
X54000000Y-2124000D01*
X54000000Y-10000000D01*
X61963681Y-17963681D01*
X61997166Y-18025004D01*
X62000000Y-18051362D01*
X62000000Y-24000000D01*
X62000000Y-31000000D01*
X64655073Y-31000000D01*
X64722112Y-31019685D01*
X64767867Y-31072489D01*
X64777811Y-31141647D01*
X64769634Y-31171453D01*
X64730263Y-31266502D01*
X64730261Y-31266510D01*
X64699500Y-31421153D01*
X64699500Y-31578846D01*
X64730261Y-31733489D01*
X64730264Y-31733501D01*
X64790602Y-31879172D01*
X64790609Y-31879185D01*
X64878210Y-32010288D01*
X64878213Y-32010292D01*
X64989707Y-32121786D01*
X64989711Y-32121789D01*
X65120814Y-32209390D01*
X65120827Y-32209397D01*
X65266498Y-32269735D01*
X65266503Y-32269737D01*
X65421153Y-32300499D01*
X65421156Y-32300500D01*
X65421158Y-32300500D01*
X65578844Y-32300500D01*
X65578845Y-32300499D01*
X65733497Y-32269737D01*
X65879179Y-32209394D01*
X66010289Y-32121789D01*
X66016247Y-32115830D01*
X66077567Y-32082344D01*
X66147259Y-32087325D01*
X66203194Y-32129194D01*
X66227615Y-32194657D01*
X66225548Y-32227700D01*
X66199500Y-32358653D01*
X66199500Y-32516346D01*
X66230261Y-32670989D01*
X66230264Y-32671001D01*
X66290602Y-32816672D01*
X66290609Y-32816685D01*
X66378210Y-32947788D01*
X66378213Y-32947792D01*
X66489707Y-33059286D01*
X66489711Y-33059289D01*
X66620814Y-33146890D01*
X66620827Y-33146897D01*
X66766498Y-33207235D01*
X66766503Y-33207237D01*
X66898480Y-33233489D01*
X66921153Y-33237999D01*
X66921156Y-33238000D01*
X66921158Y-33238000D01*
X67078844Y-33238000D01*
X67078845Y-33237999D01*
X67233497Y-33207237D01*
X67379179Y-33146894D01*
X67510289Y-33059289D01*
X67621789Y-32947789D01*
X67709394Y-32816679D01*
X67769737Y-32670997D01*
X67800500Y-32516342D01*
X67800500Y-32358658D01*
X67800500Y-32358655D01*
X67800499Y-32358653D01*
X70699500Y-32358653D01*
X70699500Y-32516346D01*
X70730261Y-32670989D01*
X70730264Y-32671001D01*
X70790602Y-32816672D01*
X70790609Y-32816685D01*
X70878210Y-32947788D01*
X70878213Y-32947792D01*
X70989707Y-33059286D01*
X70989711Y-33059289D01*
X71120814Y-33146890D01*
X71120827Y-33146897D01*
X71266498Y-33207235D01*
X71266503Y-33207237D01*
X71398480Y-33233489D01*
X71421153Y-33237999D01*
X71421156Y-33238000D01*
X71421158Y-33238000D01*
X71578844Y-33238000D01*
X71578845Y-33237999D01*
X71733497Y-33207237D01*
X71879179Y-33146894D01*
X72010289Y-33059289D01*
X72121789Y-32947789D01*
X72209394Y-32816679D01*
X72269737Y-32670997D01*
X72300500Y-32516342D01*
X72300500Y-32358658D01*
X72300500Y-32358655D01*
X72300499Y-32358653D01*
X72292148Y-32316672D01*
X72269737Y-32204003D01*
X72245202Y-32144770D01*
X72209397Y-32058327D01*
X72209390Y-32058314D01*
X72121789Y-31927211D01*
X72121786Y-31927207D01*
X72010292Y-31815713D01*
X72010288Y-31815710D01*
X71879185Y-31728109D01*
X71879172Y-31728102D01*
X71733501Y-31667764D01*
X71733489Y-31667761D01*
X71578845Y-31637000D01*
X71578842Y-31637000D01*
X71421158Y-31637000D01*
X71421155Y-31637000D01*
X71266510Y-31667761D01*
X71266498Y-31667764D01*
X71120827Y-31728102D01*
X71120814Y-31728109D01*
X70989711Y-31815710D01*
X70989707Y-31815713D01*
X70878213Y-31927207D01*
X70878210Y-31927211D01*
X70790609Y-32058314D01*
X70790602Y-32058327D01*
X70730264Y-32203998D01*
X70730261Y-32204010D01*
X70699500Y-32358653D01*
X67800499Y-32358653D01*
X67792148Y-32316672D01*
X67769737Y-32204003D01*
X67745202Y-32144770D01*
X67709397Y-32058327D01*
X67709390Y-32058314D01*
X67621789Y-31927211D01*
X67621786Y-31927207D01*
X67510292Y-31815713D01*
X67510288Y-31815710D01*
X67379185Y-31728109D01*
X67379172Y-31728102D01*
X67233501Y-31667764D01*
X67233489Y-31667761D01*
X67078845Y-31637000D01*
X67078842Y-31637000D01*
X66921158Y-31637000D01*
X66921155Y-31637000D01*
X66766510Y-31667761D01*
X66766498Y-31667764D01*
X66620827Y-31728102D01*
X66620814Y-31728109D01*
X66489711Y-31815710D01*
X66483745Y-31821676D01*
X66422420Y-31855157D01*
X66352729Y-31850170D01*
X66296797Y-31808296D01*
X66272384Y-31742830D01*
X66274451Y-31709798D01*
X66300500Y-31578844D01*
X66300500Y-31421155D01*
X66300499Y-31421153D01*
X66291957Y-31378210D01*
X66269737Y-31266503D01*
X66230365Y-31171452D01*
X66222897Y-31101983D01*
X66254172Y-31039504D01*
X66314261Y-31003852D01*
X66344927Y-31000000D01*
X73876000Y-31000000D01*
X73943039Y-31019685D01*
X73988794Y-31072489D01*
X74000000Y-31124000D01*
X74000000Y-35876000D01*
X73980315Y-35943039D01*
X73927511Y-35988794D01*
X73876000Y-36000000D01*
X72370815Y-36000000D01*
X72303776Y-35980315D01*
X72258021Y-35927511D01*
X72248077Y-35858353D01*
X72256254Y-35828547D01*
X72269737Y-35795997D01*
X72300500Y-35641342D01*
X72300500Y-35483658D01*
X72300500Y-35483655D01*
X72300499Y-35483653D01*
X72279719Y-35379185D01*
X72269737Y-35329003D01*
X72257931Y-35300500D01*
X72209397Y-35183327D01*
X72209390Y-35183314D01*
X72121789Y-35052211D01*
X72121786Y-35052207D01*
X72010292Y-34940713D01*
X72010288Y-34940710D01*
X71879185Y-34853109D01*
X71879172Y-34853102D01*
X71733501Y-34792764D01*
X71733489Y-34792761D01*
X71578845Y-34762000D01*
X71578842Y-34762000D01*
X71421158Y-34762000D01*
X71421155Y-34762000D01*
X71266510Y-34792761D01*
X71266498Y-34792764D01*
X71120827Y-34853102D01*
X71120814Y-34853109D01*
X70989711Y-34940710D01*
X70989707Y-34940713D01*
X70878213Y-35052207D01*
X70878210Y-35052211D01*
X70790609Y-35183314D01*
X70790602Y-35183327D01*
X70730264Y-35328998D01*
X70730261Y-35329010D01*
X70699500Y-35483653D01*
X70699500Y-35641346D01*
X70730261Y-35795989D01*
X70730263Y-35795997D01*
X70743746Y-35828547D01*
X70751215Y-35898016D01*
X70719940Y-35960496D01*
X70659851Y-35996148D01*
X70629185Y-36000000D01*
X67870815Y-36000000D01*
X67803776Y-35980315D01*
X67758021Y-35927511D01*
X67748077Y-35858353D01*
X67756254Y-35828547D01*
X67769737Y-35795997D01*
X67800500Y-35641342D01*
X67800500Y-35483658D01*
X67800500Y-35483655D01*
X67800499Y-35483653D01*
X67779719Y-35379185D01*
X67769737Y-35329003D01*
X67757931Y-35300500D01*
X67709397Y-35183327D01*
X67709390Y-35183314D01*
X67621789Y-35052211D01*
X67621786Y-35052207D01*
X67510292Y-34940713D01*
X67510288Y-34940710D01*
X67379185Y-34853109D01*
X67379172Y-34853102D01*
X67233501Y-34792764D01*
X67233489Y-34792761D01*
X67078845Y-34762000D01*
X67078842Y-34762000D01*
X66921158Y-34762000D01*
X66921155Y-34762000D01*
X66766510Y-34792761D01*
X66766498Y-34792764D01*
X66620827Y-34853102D01*
X66620814Y-34853109D01*
X66489711Y-34940710D01*
X66489707Y-34940713D01*
X66378213Y-35052207D01*
X66378210Y-35052211D01*
X66290609Y-35183314D01*
X66290602Y-35183327D01*
X66230264Y-35328998D01*
X66230261Y-35329010D01*
X66199500Y-35483653D01*
X66199500Y-35641346D01*
X66230261Y-35795989D01*
X66230263Y-35795997D01*
X66243746Y-35828547D01*
X66251215Y-35898016D01*
X66219940Y-35960496D01*
X66159851Y-35996148D01*
X66129185Y-36000000D01*
X59738483Y-36000000D01*
X59671444Y-35980315D01*
X59625689Y-35927511D01*
X59615745Y-35858353D01*
X59644770Y-35794797D01*
X59691031Y-35761439D01*
X59816672Y-35709397D01*
X59816672Y-35709396D01*
X59816679Y-35709394D01*
X59947789Y-35621789D01*
X60059289Y-35510289D01*
X60146894Y-35379179D01*
X60152003Y-35366846D01*
X60160567Y-35346166D01*
X60207237Y-35233497D01*
X60238000Y-35078842D01*
X60238000Y-34921158D01*
X60238000Y-34921155D01*
X60237999Y-34921153D01*
X60224464Y-34853109D01*
X60207237Y-34766503D01*
X60165695Y-34666210D01*
X60146897Y-34620827D01*
X60146890Y-34620814D01*
X60059289Y-34489711D01*
X60059286Y-34489707D01*
X59947792Y-34378213D01*
X59947788Y-34378210D01*
X59816685Y-34290609D01*
X59816672Y-34290602D01*
X59671001Y-34230264D01*
X59670989Y-34230261D01*
X59516345Y-34199500D01*
X59516342Y-34199500D01*
X59358658Y-34199500D01*
X59358655Y-34199500D01*
X59204010Y-34230261D01*
X59203998Y-34230264D01*
X59058327Y-34290602D01*
X59058314Y-34290609D01*
X58927211Y-34378210D01*
X58927207Y-34378213D01*
X58815713Y-34489707D01*
X58815710Y-34489711D01*
X58728109Y-34620814D01*
X58728102Y-34620827D01*
X58667764Y-34766498D01*
X58667761Y-34766510D01*
X58637000Y-34921153D01*
X58637000Y-35078846D01*
X58667761Y-35233489D01*
X58667764Y-35233501D01*
X58728102Y-35379172D01*
X58728109Y-35379185D01*
X58815710Y-35510288D01*
X58815713Y-35510292D01*
X58927207Y-35621786D01*
X58927211Y-35621789D01*
X59058314Y-35709390D01*
X59058327Y-35709397D01*
X59183969Y-35761439D01*
X59238373Y-35805280D01*
X59260438Y-35871574D01*
X59243159Y-35939273D01*
X59192022Y-35986884D01*
X59136517Y-36000000D01*
X57718425Y-36000000D01*
X57651386Y-35980315D01*
X57605631Y-35927511D01*
X57595687Y-35858353D01*
X57619576Y-35804136D01*
X57618405Y-35803354D01*
X57709390Y-35667185D01*
X57709390Y-35667184D01*
X57709394Y-35667179D01*
X57769737Y-35521497D01*
X57800500Y-35366842D01*
X57800500Y-35209158D01*
X57800500Y-35209155D01*
X57800499Y-35209153D01*
X57783121Y-35121789D01*
X57769737Y-35054503D01*
X57768400Y-35051275D01*
X57709397Y-34908827D01*
X57709390Y-34908814D01*
X57621789Y-34777711D01*
X57621786Y-34777707D01*
X57510292Y-34666213D01*
X57510288Y-34666210D01*
X57379185Y-34578609D01*
X57379172Y-34578602D01*
X57233501Y-34518264D01*
X57233489Y-34518261D01*
X57078845Y-34487500D01*
X57078842Y-34487500D01*
X56921158Y-34487500D01*
X56921155Y-34487500D01*
X56766510Y-34518261D01*
X56766498Y-34518264D01*
X56620827Y-34578602D01*
X56620814Y-34578609D01*
X56568891Y-34613304D01*
X56502214Y-34634182D01*
X56434833Y-34615698D01*
X56431109Y-34613304D01*
X56379185Y-34578609D01*
X56379172Y-34578602D01*
X56233501Y-34518264D01*
X56233489Y-34518261D01*
X56078845Y-34487500D01*
X56078842Y-34487500D01*
X55921158Y-34487500D01*
X55921155Y-34487500D01*
X55766510Y-34518261D01*
X55766498Y-34518264D01*
X55620827Y-34578602D01*
X55620814Y-34578609D01*
X55489711Y-34666210D01*
X55489707Y-34666213D01*
X55378213Y-34777707D01*
X55378210Y-34777711D01*
X55290609Y-34908814D01*
X55290602Y-34908827D01*
X55230264Y-35054498D01*
X55230261Y-35054510D01*
X55199500Y-35209153D01*
X55199500Y-35366846D01*
X55230261Y-35521489D01*
X55230264Y-35521501D01*
X55290602Y-35667172D01*
X55290609Y-35667185D01*
X55381595Y-35803354D01*
X55380339Y-35804193D01*
X55404741Y-35861638D01*
X55392953Y-35930506D01*
X55345804Y-35982069D01*
X55281575Y-36000000D01*
X43124000Y-36000000D01*
X43056961Y-35980315D01*
X43011206Y-35927511D01*
X43000000Y-35876000D01*
X43000000Y-34421153D01*
X48637000Y-34421153D01*
X48637000Y-34578846D01*
X48667761Y-34733489D01*
X48667764Y-34733501D01*
X48728102Y-34879172D01*
X48728109Y-34879185D01*
X48815710Y-35010288D01*
X48815713Y-35010292D01*
X48927207Y-35121786D01*
X48927211Y-35121789D01*
X49058314Y-35209390D01*
X49058327Y-35209397D01*
X49203998Y-35269735D01*
X49204003Y-35269737D01*
X49358653Y-35300499D01*
X49358656Y-35300500D01*
X49358658Y-35300500D01*
X49516344Y-35300500D01*
X49516345Y-35300499D01*
X49670997Y-35269737D01*
X49816679Y-35209394D01*
X49947789Y-35121789D01*
X50059289Y-35010289D01*
X50146894Y-34879179D01*
X50207237Y-34733497D01*
X50238000Y-34578842D01*
X50238000Y-34421158D01*
X50238000Y-34421155D01*
X50237999Y-34421153D01*
X50212031Y-34290606D01*
X50207237Y-34266503D01*
X50207235Y-34266498D01*
X50146897Y-34120827D01*
X50146890Y-34120814D01*
X50059289Y-33989711D01*
X50059286Y-33989707D01*
X49947792Y-33878213D01*
X49947788Y-33878210D01*
X49816685Y-33790609D01*
X49816672Y-33790602D01*
X49671001Y-33730264D01*
X49670989Y-33730261D01*
X49516345Y-33699500D01*
X49516342Y-33699500D01*
X49358658Y-33699500D01*
X49358655Y-33699500D01*
X49204010Y-33730261D01*
X49203998Y-33730264D01*
X49058327Y-33790602D01*
X49058314Y-33790609D01*
X48927211Y-33878210D01*
X48927207Y-33878213D01*
X48815713Y-33989707D01*
X48815710Y-33989711D01*
X48728109Y-34120814D01*
X48728102Y-34120827D01*
X48667764Y-34266498D01*
X48667761Y-34266510D01*
X48637000Y-34421153D01*
X43000000Y-34421153D01*
X43000000Y-32238483D01*
X43019685Y-32171444D01*
X43072489Y-32125689D01*
X43141647Y-32115745D01*
X43205203Y-32144770D01*
X43238561Y-32191031D01*
X43290602Y-32316672D01*
X43290609Y-32316685D01*
X43378210Y-32447788D01*
X43378213Y-32447792D01*
X43489707Y-32559286D01*
X43489711Y-32559289D01*
X43620814Y-32646890D01*
X43620827Y-32646897D01*
X43766498Y-32707235D01*
X43766503Y-32707237D01*
X43921153Y-32737999D01*
X43921156Y-32738000D01*
X43921158Y-32738000D01*
X44078844Y-32738000D01*
X44078845Y-32737999D01*
X44233497Y-32707237D01*
X44379179Y-32646894D01*
X44510289Y-32559289D01*
X44621789Y-32447789D01*
X44709394Y-32316679D01*
X44769737Y-32170997D01*
X44800500Y-32016342D01*
X44800500Y-31921153D01*
X48699500Y-31921153D01*
X48699500Y-32078846D01*
X48730261Y-32233489D01*
X48730264Y-32233501D01*
X48790602Y-32379172D01*
X48790609Y-32379185D01*
X48878210Y-32510288D01*
X48878213Y-32510292D01*
X48989707Y-32621786D01*
X48989711Y-32621789D01*
X49120814Y-32709390D01*
X49120827Y-32709397D01*
X49258683Y-32766498D01*
X49266503Y-32769737D01*
X49421153Y-32800499D01*
X49421156Y-32800500D01*
X49421158Y-32800500D01*
X49578844Y-32800500D01*
X49578845Y-32800499D01*
X49733497Y-32769737D01*
X49879179Y-32709394D01*
X50010289Y-32621789D01*
X50047331Y-32584747D01*
X50108653Y-32551261D01*
X50178345Y-32556245D01*
X50234279Y-32598115D01*
X50258697Y-32663579D01*
X50249575Y-32719878D01*
X50230263Y-32766502D01*
X50230261Y-32766510D01*
X50199500Y-32921153D01*
X50199500Y-33078846D01*
X50230261Y-33233489D01*
X50230264Y-33233501D01*
X50290602Y-33379172D01*
X50290609Y-33379185D01*
X50378210Y-33510288D01*
X50378213Y-33510292D01*
X50489707Y-33621786D01*
X50489711Y-33621789D01*
X50620814Y-33709390D01*
X50620827Y-33709397D01*
X50766498Y-33769735D01*
X50766503Y-33769737D01*
X50910344Y-33798349D01*
X50921153Y-33800499D01*
X50921156Y-33800500D01*
X50921158Y-33800500D01*
X51078842Y-33800500D01*
X51120954Y-33792123D01*
X51190543Y-33798349D01*
X51245721Y-33841211D01*
X51268967Y-33907100D01*
X51252900Y-33975098D01*
X51246418Y-33984527D01*
X51246595Y-33984646D01*
X51155609Y-34120814D01*
X51155602Y-34120827D01*
X51095264Y-34266498D01*
X51095261Y-34266510D01*
X51064500Y-34421153D01*
X51064500Y-34578846D01*
X51095261Y-34733489D01*
X51095264Y-34733501D01*
X51155602Y-34879172D01*
X51155609Y-34879185D01*
X51243210Y-35010288D01*
X51243213Y-35010292D01*
X51354707Y-35121786D01*
X51354711Y-35121789D01*
X51485814Y-35209390D01*
X51485827Y-35209397D01*
X51631498Y-35269735D01*
X51631503Y-35269737D01*
X51786153Y-35300499D01*
X51786156Y-35300500D01*
X51786158Y-35300500D01*
X51943844Y-35300500D01*
X51943845Y-35300499D01*
X52098497Y-35269737D01*
X52244179Y-35209394D01*
X52375289Y-35121789D01*
X52375292Y-35121786D01*
X52412319Y-35084760D01*
X52473642Y-35051275D01*
X52543334Y-35056259D01*
X52587681Y-35084760D01*
X52624707Y-35121786D01*
X52624711Y-35121789D01*
X52755814Y-35209390D01*
X52755827Y-35209397D01*
X52901498Y-35269735D01*
X52901503Y-35269737D01*
X53056153Y-35300499D01*
X53056156Y-35300500D01*
X53056158Y-35300500D01*
X53213844Y-35300500D01*
X53213845Y-35300499D01*
X53368497Y-35269737D01*
X53514179Y-35209394D01*
X53645289Y-35121789D01*
X53756789Y-35010289D01*
X53844394Y-34879179D01*
X53904737Y-34733497D01*
X53935500Y-34578842D01*
X53935500Y-34421158D01*
X53935500Y-34421155D01*
X53935499Y-34421153D01*
X53909531Y-34290606D01*
X53904737Y-34266503D01*
X53904735Y-34266498D01*
X53844397Y-34120827D01*
X53844390Y-34120814D01*
X53756789Y-33989711D01*
X53756786Y-33989707D01*
X53645292Y-33878213D01*
X53645288Y-33878210D01*
X53514185Y-33790609D01*
X53514172Y-33790602D01*
X53368501Y-33730264D01*
X53368489Y-33730261D01*
X53213845Y-33699500D01*
X53213842Y-33699500D01*
X53056158Y-33699500D01*
X53056155Y-33699500D01*
X52901510Y-33730261D01*
X52901498Y-33730264D01*
X52755827Y-33790602D01*
X52755814Y-33790609D01*
X52624711Y-33878210D01*
X52624707Y-33878213D01*
X52587681Y-33915240D01*
X52526358Y-33948725D01*
X52456666Y-33943741D01*
X52412319Y-33915240D01*
X52375292Y-33878213D01*
X52375288Y-33878210D01*
X52244185Y-33790609D01*
X52244172Y-33790602D01*
X52098501Y-33730264D01*
X52098489Y-33730261D01*
X51943845Y-33699500D01*
X51943842Y-33699500D01*
X51786158Y-33699500D01*
X51786153Y-33699500D01*
X51744045Y-33707876D01*
X51674453Y-33701649D01*
X51619276Y-33658786D01*
X51596032Y-33592896D01*
X51612100Y-33524899D01*
X51618582Y-33515472D01*
X51618405Y-33515354D01*
X51709390Y-33379185D01*
X51709390Y-33379184D01*
X51709394Y-33379179D01*
X51769737Y-33233497D01*
X51800500Y-33078842D01*
X51800500Y-32921158D01*
X51800500Y-32921155D01*
X51800499Y-32921153D01*
X54699500Y-32921153D01*
X54699500Y-33078846D01*
X54730261Y-33233489D01*
X54730264Y-33233501D01*
X54790602Y-33379172D01*
X54790609Y-33379185D01*
X54878210Y-33510288D01*
X54878213Y-33510292D01*
X54989707Y-33621786D01*
X54989711Y-33621789D01*
X55120814Y-33709390D01*
X55120827Y-33709397D01*
X55266498Y-33769735D01*
X55266503Y-33769737D01*
X55410344Y-33798349D01*
X55421153Y-33800499D01*
X55421156Y-33800500D01*
X55421158Y-33800500D01*
X55578844Y-33800500D01*
X55578845Y-33800499D01*
X55733497Y-33769737D01*
X55879179Y-33709394D01*
X56010289Y-33621789D01*
X56121789Y-33510289D01*
X56209394Y-33379179D01*
X56269737Y-33233497D01*
X56300500Y-33078842D01*
X56300500Y-32921158D01*
X56300500Y-32921155D01*
X56300499Y-32921153D01*
X56279719Y-32816685D01*
X56269737Y-32766503D01*
X56257931Y-32738000D01*
X56209397Y-32620827D01*
X56209390Y-32620814D01*
X56121789Y-32489711D01*
X56121786Y-32489707D01*
X56010292Y-32378213D01*
X56010288Y-32378210D01*
X55879185Y-32290609D01*
X55879172Y-32290602D01*
X55733501Y-32230264D01*
X55733489Y-32230261D01*
X55578845Y-32199500D01*
X55578842Y-32199500D01*
X55421158Y-32199500D01*
X55421155Y-32199500D01*
X55266510Y-32230261D01*
X55266498Y-32230264D01*
X55120827Y-32290602D01*
X55120814Y-32290609D01*
X54989711Y-32378210D01*
X54989707Y-32378213D01*
X54878213Y-32489707D01*
X54878210Y-32489711D01*
X54790609Y-32620814D01*
X54790602Y-32620827D01*
X54730264Y-32766498D01*
X54730261Y-32766510D01*
X54699500Y-32921153D01*
X51800499Y-32921153D01*
X51779719Y-32816685D01*
X51769737Y-32766503D01*
X51757931Y-32738000D01*
X51709397Y-32620827D01*
X51709390Y-32620814D01*
X51621789Y-32489711D01*
X51621786Y-32489707D01*
X51510292Y-32378213D01*
X51510288Y-32378210D01*
X51379185Y-32290609D01*
X51379172Y-32290602D01*
X51233501Y-32230264D01*
X51233489Y-32230261D01*
X51078845Y-32199500D01*
X51078842Y-32199500D01*
X50921158Y-32199500D01*
X50921155Y-32199500D01*
X50766510Y-32230261D01*
X50766498Y-32230264D01*
X50620827Y-32290602D01*
X50620814Y-32290609D01*
X50489711Y-32378210D01*
X50489706Y-32378214D01*
X50452666Y-32415254D01*
X50391343Y-32448739D01*
X50321651Y-32443753D01*
X50265718Y-32401881D01*
X50241302Y-32336417D01*
X50250424Y-32280121D01*
X50269737Y-32233497D01*
X50300500Y-32078842D01*
X50300500Y-31921158D01*
X50300500Y-31921155D01*
X50300499Y-31921153D01*
X51824500Y-31921153D01*
X51824500Y-32078846D01*
X51855261Y-32233489D01*
X51855264Y-32233501D01*
X51915602Y-32379172D01*
X51915609Y-32379185D01*
X52003210Y-32510288D01*
X52003213Y-32510292D01*
X52114707Y-32621786D01*
X52114711Y-32621789D01*
X52245814Y-32709390D01*
X52245827Y-32709397D01*
X52383683Y-32766498D01*
X52391503Y-32769737D01*
X52546153Y-32800499D01*
X52546156Y-32800500D01*
X52546158Y-32800500D01*
X52703844Y-32800500D01*
X52703845Y-32800499D01*
X52714179Y-32798443D01*
X52739287Y-32793450D01*
X52739292Y-32793449D01*
X52824800Y-32776439D01*
X52858497Y-32769737D01*
X53004179Y-32709394D01*
X53135289Y-32621789D01*
X53246789Y-32510289D01*
X53334394Y-32379179D01*
X53394737Y-32233497D01*
X53425500Y-32078842D01*
X53425500Y-31921158D01*
X53425500Y-31921155D01*
X53425499Y-31921153D01*
X53412371Y-31855157D01*
X53394737Y-31766503D01*
X53385067Y-31743158D01*
X53334397Y-31620827D01*
X53334390Y-31620814D01*
X53246789Y-31489711D01*
X53246786Y-31489707D01*
X53135292Y-31378213D01*
X53135288Y-31378210D01*
X53004185Y-31290609D01*
X53004172Y-31290602D01*
X52858501Y-31230264D01*
X52858489Y-31230261D01*
X52703845Y-31199500D01*
X52703842Y-31199500D01*
X52546158Y-31199500D01*
X52546155Y-31199500D01*
X52391510Y-31230261D01*
X52391498Y-31230264D01*
X52245827Y-31290602D01*
X52245814Y-31290609D01*
X52114711Y-31378210D01*
X52114707Y-31378213D01*
X52003213Y-31489707D01*
X52003210Y-31489711D01*
X51915609Y-31620814D01*
X51915602Y-31620827D01*
X51855264Y-31766498D01*
X51855261Y-31766510D01*
X51824500Y-31921153D01*
X50300499Y-31921153D01*
X50287371Y-31855157D01*
X50269737Y-31766503D01*
X50260067Y-31743158D01*
X50209397Y-31620827D01*
X50209390Y-31620814D01*
X50121789Y-31489711D01*
X50121786Y-31489707D01*
X50010292Y-31378213D01*
X50010288Y-31378210D01*
X49879185Y-31290609D01*
X49879172Y-31290602D01*
X49733501Y-31230264D01*
X49733489Y-31230261D01*
X49578845Y-31199500D01*
X49578842Y-31199500D01*
X49421158Y-31199500D01*
X49421155Y-31199500D01*
X49266510Y-31230261D01*
X49266498Y-31230264D01*
X49120827Y-31290602D01*
X49120814Y-31290609D01*
X48989711Y-31378210D01*
X48989707Y-31378213D01*
X48878213Y-31489707D01*
X48878210Y-31489711D01*
X48790609Y-31620814D01*
X48790602Y-31620827D01*
X48730264Y-31766498D01*
X48730261Y-31766510D01*
X48699500Y-31921153D01*
X44800500Y-31921153D01*
X44800500Y-31858658D01*
X44800500Y-31858655D01*
X44800499Y-31858653D01*
X44776573Y-31738372D01*
X44769737Y-31704003D01*
X44761439Y-31683969D01*
X44709397Y-31558327D01*
X44709390Y-31558314D01*
X44621789Y-31427211D01*
X44621786Y-31427207D01*
X44510292Y-31315713D01*
X44510288Y-31315710D01*
X44379185Y-31228109D01*
X44379172Y-31228102D01*
X44233501Y-31167764D01*
X44233489Y-31167761D01*
X44078845Y-31137000D01*
X44078842Y-31137000D01*
X43921158Y-31137000D01*
X43921155Y-31137000D01*
X43766510Y-31167761D01*
X43766498Y-31167764D01*
X43620827Y-31228102D01*
X43620814Y-31228109D01*
X43489711Y-31315710D01*
X43489707Y-31315713D01*
X43378213Y-31427207D01*
X43378210Y-31427211D01*
X43290609Y-31558314D01*
X43290604Y-31558323D01*
X43238561Y-31683969D01*
X43194720Y-31738372D01*
X43128426Y-31760437D01*
X43060727Y-31743158D01*
X43013116Y-31692021D01*
X43000000Y-31636516D01*
X43000000Y-30311153D01*
X58684500Y-30311153D01*
X58684500Y-30468846D01*
X58715261Y-30623489D01*
X58715264Y-30623501D01*
X58775602Y-30769172D01*
X58775609Y-30769185D01*
X58863210Y-30900288D01*
X58863213Y-30900292D01*
X58974707Y-31011786D01*
X58974711Y-31011789D01*
X59105814Y-31099390D01*
X59105827Y-31099397D01*
X59251498Y-31159735D01*
X59251503Y-31159737D01*
X59406153Y-31190499D01*
X59406156Y-31190500D01*
X59406158Y-31190500D01*
X59563844Y-31190500D01*
X59563845Y-31190499D01*
X59718497Y-31159737D01*
X59864179Y-31099394D01*
X59995289Y-31011789D01*
X60106789Y-30900289D01*
X60194394Y-30769179D01*
X60254737Y-30623497D01*
X60285500Y-30468842D01*
X60285500Y-30311158D01*
X60285500Y-30311155D01*
X60285499Y-30311153D01*
X60265258Y-30209397D01*
X60254737Y-30156503D01*
X60240357Y-30121786D01*
X60194397Y-30010827D01*
X60194390Y-30010814D01*
X60106789Y-29879711D01*
X60106786Y-29879707D01*
X59995292Y-29768213D01*
X59995288Y-29768210D01*
X59864185Y-29680609D01*
X59864172Y-29680602D01*
X59718501Y-29620264D01*
X59718489Y-29620261D01*
X59563845Y-29589500D01*
X59563842Y-29589500D01*
X59406158Y-29589500D01*
X59406155Y-29589500D01*
X59251510Y-29620261D01*
X59251498Y-29620264D01*
X59105827Y-29680602D01*
X59105814Y-29680609D01*
X58974711Y-29768210D01*
X58974707Y-29768213D01*
X58863213Y-29879707D01*
X58863210Y-29879711D01*
X58775609Y-30010814D01*
X58775602Y-30010827D01*
X58715264Y-30156498D01*
X58715261Y-30156510D01*
X58684500Y-30311153D01*
X43000000Y-30311153D01*
X43000000Y-29421153D01*
X55199500Y-29421153D01*
X55199500Y-29578846D01*
X55230261Y-29733489D01*
X55230264Y-29733501D01*
X55290602Y-29879172D01*
X55290609Y-29879185D01*
X55378210Y-30010288D01*
X55378213Y-30010292D01*
X55489707Y-30121786D01*
X55489711Y-30121789D01*
X55620814Y-30209390D01*
X55620827Y-30209397D01*
X55766498Y-30269735D01*
X55766503Y-30269737D01*
X55921153Y-30300499D01*
X55921156Y-30300500D01*
X55921158Y-30300500D01*
X56078844Y-30300500D01*
X56078845Y-30300499D01*
X56233497Y-30269737D01*
X56379179Y-30209394D01*
X56383628Y-30206420D01*
X56390301Y-30201963D01*
X56390301Y-30201962D01*
X56510289Y-30121789D01*
X56621789Y-30010289D01*
X56709394Y-29879179D01*
X56769737Y-29733497D01*
X56800500Y-29578842D01*
X56800500Y-29421158D01*
X56800500Y-29421155D01*
X56800499Y-29421153D01*
X56769738Y-29266510D01*
X56769737Y-29266503D01*
X56709794Y-29121786D01*
X56709397Y-29120827D01*
X56709390Y-29120814D01*
X56621789Y-28989711D01*
X56621786Y-28989707D01*
X56510292Y-28878213D01*
X56510288Y-28878210D01*
X56379185Y-28790609D01*
X56379172Y-28790602D01*
X56233501Y-28730264D01*
X56233489Y-28730261D01*
X56078845Y-28699500D01*
X56078842Y-28699500D01*
X55921158Y-28699500D01*
X55921155Y-28699500D01*
X55766510Y-28730261D01*
X55766498Y-28730264D01*
X55620827Y-28790602D01*
X55620814Y-28790609D01*
X55489711Y-28878210D01*
X55489707Y-28878213D01*
X55378213Y-28989707D01*
X55378210Y-28989711D01*
X55290609Y-29120814D01*
X55290602Y-29120827D01*
X55230264Y-29266498D01*
X55230261Y-29266510D01*
X55199500Y-29421153D01*
X43000000Y-29421153D01*
X43000000Y-28421153D01*
X48637000Y-28421153D01*
X48637000Y-28578846D01*
X48667761Y-28733489D01*
X48667764Y-28733501D01*
X48728102Y-28879172D01*
X48728109Y-28879185D01*
X48815710Y-29010288D01*
X48815713Y-29010292D01*
X48927207Y-29121786D01*
X48927211Y-29121789D01*
X49058314Y-29209390D01*
X49058327Y-29209397D01*
X49196183Y-29266498D01*
X49204003Y-29269737D01*
X49358653Y-29300499D01*
X49358656Y-29300500D01*
X49358658Y-29300500D01*
X49516344Y-29300500D01*
X49516345Y-29300499D01*
X49526679Y-29298443D01*
X49551787Y-29293450D01*
X49551792Y-29293449D01*
X49637300Y-29276439D01*
X49670997Y-29269737D01*
X49816679Y-29209394D01*
X49947789Y-29121789D01*
X50059289Y-29010289D01*
X50146894Y-28879179D01*
X50207237Y-28733497D01*
X50238000Y-28578842D01*
X50238000Y-28421158D01*
X50238000Y-28421155D01*
X50237999Y-28421153D01*
X50207238Y-28266510D01*
X50207237Y-28266503D01*
X50193566Y-28233497D01*
X50146897Y-28120827D01*
X50146890Y-28120814D01*
X50059289Y-27989711D01*
X50059286Y-27989707D01*
X49947792Y-27878213D01*
X49947788Y-27878210D01*
X49816685Y-27790609D01*
X49816672Y-27790602D01*
X49671001Y-27730264D01*
X49670989Y-27730261D01*
X49516345Y-27699500D01*
X49516342Y-27699500D01*
X49358658Y-27699500D01*
X49358655Y-27699500D01*
X49204010Y-27730261D01*
X49203998Y-27730264D01*
X49058327Y-27790602D01*
X49058314Y-27790609D01*
X48927211Y-27878210D01*
X48927207Y-27878213D01*
X48815713Y-27989707D01*
X48815710Y-27989711D01*
X48728109Y-28120814D01*
X48728102Y-28120827D01*
X48667764Y-28266498D01*
X48667761Y-28266510D01*
X48637000Y-28421153D01*
X43000000Y-28421153D01*
X43000000Y-25300983D01*
X43019685Y-25233944D01*
X43072489Y-25188189D01*
X43141647Y-25178245D01*
X43205203Y-25207270D01*
X43238561Y-25253531D01*
X43290602Y-25379172D01*
X43290609Y-25379185D01*
X43378210Y-25510288D01*
X43378213Y-25510292D01*
X43489707Y-25621786D01*
X43489711Y-25621789D01*
X43620814Y-25709390D01*
X43620827Y-25709397D01*
X43766498Y-25769735D01*
X43766503Y-25769737D01*
X43921153Y-25800499D01*
X43921156Y-25800500D01*
X43921158Y-25800500D01*
X44078844Y-25800500D01*
X44078845Y-25800499D01*
X44233497Y-25769737D01*
X44379179Y-25709394D01*
X44510289Y-25621789D01*
X44621789Y-25510289D01*
X44709394Y-25379179D01*
X44769737Y-25233497D01*
X44800500Y-25078842D01*
X44800500Y-24921158D01*
X44800500Y-24921155D01*
X44800499Y-24921153D01*
X44769738Y-24766510D01*
X44769737Y-24766503D01*
X44741783Y-24699016D01*
X44709397Y-24620827D01*
X44709390Y-24620814D01*
X44621789Y-24489711D01*
X44621786Y-24489707D01*
X44510292Y-24378213D01*
X44510288Y-24378210D01*
X44379185Y-24290609D01*
X44379172Y-24290602D01*
X44233501Y-24230264D01*
X44233489Y-24230261D01*
X44078845Y-24199500D01*
X44078842Y-24199500D01*
X43921158Y-24199500D01*
X43921155Y-24199500D01*
X43766510Y-24230261D01*
X43766498Y-24230264D01*
X43620827Y-24290602D01*
X43620814Y-24290609D01*
X43489711Y-24378210D01*
X43489707Y-24378213D01*
X43378213Y-24489707D01*
X43378210Y-24489711D01*
X43290609Y-24620814D01*
X43290604Y-24620823D01*
X43238561Y-24746469D01*
X43194720Y-24800872D01*
X43128426Y-24822937D01*
X43060727Y-24805658D01*
X43013116Y-24754521D01*
X43000000Y-24699016D01*
X43000000Y-19921153D01*
X48199500Y-19921153D01*
X48199500Y-20078846D01*
X48230261Y-20233489D01*
X48230264Y-20233501D01*
X48290602Y-20379172D01*
X48290609Y-20379185D01*
X48378210Y-20510288D01*
X48378213Y-20510292D01*
X48489707Y-20621786D01*
X48489711Y-20621789D01*
X48620814Y-20709390D01*
X48620827Y-20709397D01*
X48766498Y-20769735D01*
X48766503Y-20769737D01*
X48921153Y-20800499D01*
X48921156Y-20800500D01*
X48921158Y-20800500D01*
X49078844Y-20800500D01*
X49078845Y-20800499D01*
X49233497Y-20769737D01*
X49379179Y-20709394D01*
X49510289Y-20621789D01*
X49621789Y-20510289D01*
X49709394Y-20379179D01*
X49769737Y-20233497D01*
X49800500Y-20078842D01*
X49800500Y-19921158D01*
X49800500Y-19921155D01*
X49800499Y-19921153D01*
X49769738Y-19766510D01*
X49769737Y-19766503D01*
X49762393Y-19748772D01*
X49709397Y-19620827D01*
X49709390Y-19620814D01*
X49621789Y-19489711D01*
X49621786Y-19489707D01*
X49510292Y-19378213D01*
X49510288Y-19378210D01*
X49379185Y-19290609D01*
X49379172Y-19290602D01*
X49233501Y-19230264D01*
X49233489Y-19230261D01*
X49078845Y-19199500D01*
X49078842Y-19199500D01*
X48921158Y-19199500D01*
X48921155Y-19199500D01*
X48766510Y-19230261D01*
X48766498Y-19230264D01*
X48620827Y-19290602D01*
X48620814Y-19290609D01*
X48489711Y-19378210D01*
X48489707Y-19378213D01*
X48378213Y-19489707D01*
X48378210Y-19489711D01*
X48290609Y-19620814D01*
X48290602Y-19620827D01*
X48230264Y-19766498D01*
X48230261Y-19766510D01*
X48199500Y-19921153D01*
X43000000Y-19921153D01*
X43000000Y-16921153D01*
X48199500Y-16921153D01*
X48199500Y-17078846D01*
X48230261Y-17233489D01*
X48230264Y-17233501D01*
X48290602Y-17379172D01*
X48290609Y-17379185D01*
X48378210Y-17510288D01*
X48378213Y-17510292D01*
X48489707Y-17621786D01*
X48489711Y-17621789D01*
X48620814Y-17709390D01*
X48620827Y-17709397D01*
X48766498Y-17769735D01*
X48766503Y-17769737D01*
X48921153Y-17800499D01*
X48921156Y-17800500D01*
X48921158Y-17800500D01*
X49078844Y-17800500D01*
X49078845Y-17800499D01*
X49233497Y-17769737D01*
X49379179Y-17709394D01*
X49510289Y-17621789D01*
X49621789Y-17510289D01*
X49709394Y-17379179D01*
X49769737Y-17233497D01*
X49800500Y-17078842D01*
X49800500Y-16921158D01*
X49800500Y-16921155D01*
X49800499Y-16921153D01*
X49769738Y-16766510D01*
X49769737Y-16766503D01*
X49714329Y-16632735D01*
X49709397Y-16620827D01*
X49709390Y-16620814D01*
X49621789Y-16489711D01*
X49621786Y-16489707D01*
X49510292Y-16378213D01*
X49510288Y-16378210D01*
X49379185Y-16290609D01*
X49379172Y-16290602D01*
X49233501Y-16230264D01*
X49233489Y-16230261D01*
X49078845Y-16199500D01*
X49078842Y-16199500D01*
X48921158Y-16199500D01*
X48921155Y-16199500D01*
X48766510Y-16230261D01*
X48766498Y-16230264D01*
X48620827Y-16290602D01*
X48620814Y-16290609D01*
X48489711Y-16378210D01*
X48489707Y-16378213D01*
X48378213Y-16489707D01*
X48378210Y-16489711D01*
X48290609Y-16620814D01*
X48290602Y-16620827D01*
X48230264Y-16766498D01*
X48230261Y-16766510D01*
X48199500Y-16921153D01*
X43000000Y-16921153D01*
X43000000Y-3252135D01*
X48999500Y-3252135D01*
X48999500Y-9347870D01*
X48999501Y-9347876D01*
X49005908Y-9407483D01*
X49056202Y-9542328D01*
X49056206Y-9542335D01*
X49142452Y-9657544D01*
X49142455Y-9657547D01*
X49257664Y-9743793D01*
X49257671Y-9743797D01*
X49392517Y-9794091D01*
X49392516Y-9794091D01*
X49399444Y-9794835D01*
X49452127Y-9800500D01*
X52547872Y-9800499D01*
X52607483Y-9794091D01*
X52742331Y-9743796D01*
X52857546Y-9657546D01*
X52943796Y-9542331D01*
X52994091Y-9407483D01*
X53000500Y-9347873D01*
X53000499Y-3252128D01*
X52994091Y-3192517D01*
X52943796Y-3057669D01*
X52943795Y-3057668D01*
X52943793Y-3057664D01*
X52857547Y-2942455D01*
X52857544Y-2942452D01*
X52742335Y-2856206D01*
X52742328Y-2856202D01*
X52607482Y-2805908D01*
X52607483Y-2805908D01*
X52547883Y-2799501D01*
X52547881Y-2799500D01*
X52547873Y-2799500D01*
X52547864Y-2799500D01*
X49452129Y-2799500D01*
X49452123Y-2799501D01*
X49392516Y-2805908D01*
X49257671Y-2856202D01*
X49257664Y-2856206D01*
X49142455Y-2942452D01*
X49142452Y-2942455D01*
X49056206Y-3057664D01*
X49056202Y-3057671D01*
X49005908Y-3192517D01*
X48999501Y-3252116D01*
X48999501Y-3252123D01*
X48999500Y-3252135D01*
X43000000Y-3252135D01*
X43000000Y-2124000D01*
X43019685Y-2056961D01*
X43072489Y-2011206D01*
X43124000Y-2000000D01*
X53876000Y-2000000D01*
X53943039Y-2019685D01*
G37*
%TD.AperFunction*%
%TD*%
M02*
