ISO-10303-21;
HEADER;
FILE_DESCRIPTION(('FreeCAD Model'),'2;1');
FILE_NAME('Open CASCADE Shape Model','2026-08-16T20:30:05',(''),(''),
  'Open CASCADE STEP processor 7.8','FreeCAD','Unknown');
FILE_SCHEMA(('AUTOMOTIVE_DESIGN { 1 0 10303 214 1 1 1 1 }'));
ENDSEC;
DATA;
#1 = APPLICATION_PROTOCOL_DEFINITION('international standard',
  'automotive_design',2000,#2);
#2 = APPLICATION_CONTEXT(
  'core data for automotive mechanical design processes');
#3 = SHAPE_DEFINITION_REPRESENTATION(#4,#10);
#4 = PRODUCT_DEFINITION_SHAPE('','',#5);
#5 = PRODUCT_DEFINITION('design','',#6,#9);
#6 = PRODUCT_DEFINITION_FORMATION('','',#7);
#7 = PRODUCT('HW-C2-PBB-A','HW-C2-PBB-A','',(#8));
#8 = PRODUCT_CONTEXT('',#2,'mechanical');
#9 = PRODUCT_DEFINITION_CONTEXT('part definition',#2,'design');
#10 = ADVANCED_BREP_SHAPE_REPRESENTATION('',(#11,#15),#379);
#11 = AXIS2_PLACEMENT_3D('',#12,#13,#14);
#12 = CARTESIAN_POINT('',(0.,0.,0.));
#13 = DIRECTION('',(0.,0.,1.));
#14 = DIRECTION('',(1.,0.,-0.));
#15 = MANIFOLD_SOLID_BREP('',#16);
#16 = CLOSED_SHELL('',(#17,#68,#99,#157,#215,#232,#257,#277,#305,#322,
    #350,#362));
#17 = ADVANCED_FACE('',(#18,#52),#63,.F.);
#18 = FACE_BOUND('',#19,.F.);
#19 = EDGE_LOOP('',(#20,#30,#38,#46));
#20 = ORIENTED_EDGE('',*,*,#21,.T.);
#21 = EDGE_CURVE('',#22,#24,#26,.T.);
#22 = VERTEX_POINT('',#23);
#23 = CARTESIAN_POINT('',(2.5,-24.,111.));
#24 = VERTEX_POINT('',#25);
#25 = CARTESIAN_POINT('',(17.5,-24.,111.));
#26 = LINE('',#27,#28);
#27 = CARTESIAN_POINT('',(2.5,-24.,111.));
#28 = VECTOR('',#29,1.);
#29 = DIRECTION('',(1.,-4.4E-16,-1.1E-16));
#30 = ORIENTED_EDGE('',*,*,#31,.T.);
#31 = EDGE_CURVE('',#24,#32,#34,.T.);
#32 = VERTEX_POINT('',#33);
#33 = CARTESIAN_POINT('',(17.5,-24.,47.999997228718));
#34 = LINE('',#35,#36);
#35 = CARTESIAN_POINT('',(17.5,-24.,111.));
#36 = VECTOR('',#37,1.);
#37 = DIRECTION('',(1.E-15,5.6E-16,-1.));
#38 = ORIENTED_EDGE('',*,*,#39,.F.);
#39 = EDGE_CURVE('',#40,#32,#42,.T.);
#40 = VERTEX_POINT('',#41);
#41 = CARTESIAN_POINT('',(2.5,-24.,47.999997228718));
#42 = LINE('',#43,#44);
#43 = CARTESIAN_POINT('',(2.5,-24.,47.999997228718));
#44 = VECTOR('',#45,1.);
#45 = DIRECTION('',(1.,-4.4E-16,-1.1E-16));
#46 = ORIENTED_EDGE('',*,*,#47,.F.);
#47 = EDGE_CURVE('',#22,#40,#48,.T.);
#48 = LINE('',#49,#50);
#49 = CARTESIAN_POINT('',(2.5,-24.,111.));
#50 = VECTOR('',#51,1.);
#51 = DIRECTION('',(1.E-15,5.6E-16,-1.));
#52 = FACE_BOUND('',#53,.F.);
#53 = EDGE_LOOP('',(#54));
#54 = ORIENTED_EDGE('',*,*,#55,.F.);
#55 = EDGE_CURVE('',#56,#56,#58,.T.);
#56 = VERTEX_POINT('',#57);
#57 = CARTESIAN_POINT('',(13.25,-24.,96.));
#58 = CIRCLE('',#59,3.25);
#59 = AXIS2_PLACEMENT_3D('',#60,#61,#62);
#60 = CARTESIAN_POINT('',(10.,-24.,96.));
#61 = DIRECTION('',(2.2E-16,1.,-3.3E-16));
#62 = DIRECTION('',(1.,-2.2E-16,1.1E-16));
#63 = PLANE('',#64);
#64 = AXIS2_PLACEMENT_3D('',#65,#66,#67);
#65 = CARTESIAN_POINT('',(2.5,-24.,111.));
#66 = DIRECTION('',(-4.4E-16,1.,-5.6E-16));
#67 = DIRECTION('',(1.E-15,-5.6E-16,-1.));
#68 = ADVANCED_FACE('',(#69),#94,.T.);
#69 = FACE_BOUND('',#70,.T.);
#70 = EDGE_LOOP('',(#71,#72,#80,#88));
#71 = ORIENTED_EDGE('',*,*,#21,.T.);
#72 = ORIENTED_EDGE('',*,*,#73,.T.);
#73 = EDGE_CURVE('',#24,#74,#76,.T.);
#74 = VERTEX_POINT('',#75);
#75 = CARTESIAN_POINT('',(17.5,-19.,111.));
#76 = LINE('',#77,#78);
#77 = CARTESIAN_POINT('',(17.5,-24.,111.));
#78 = VECTOR('',#79,1.);
#79 = DIRECTION('',(-8.9E-16,1.,-7.8E-16));
#80 = ORIENTED_EDGE('',*,*,#81,.F.);
#81 = EDGE_CURVE('',#82,#74,#84,.T.);
#82 = VERTEX_POINT('',#83);
#83 = CARTESIAN_POINT('',(2.5,-19.,111.));
#84 = LINE('',#85,#86);
#85 = CARTESIAN_POINT('',(2.5,-19.,111.));
#86 = VECTOR('',#87,1.);
#87 = DIRECTION('',(1.,-4.4E-16,-1.1E-16));
#88 = ORIENTED_EDGE('',*,*,#89,.F.);
#89 = EDGE_CURVE('',#22,#82,#90,.T.);
#90 = LINE('',#91,#92);
#91 = CARTESIAN_POINT('',(2.5,-24.,111.));
#92 = VECTOR('',#93,1.);
#93 = DIRECTION('',(-8.9E-16,1.,-7.8E-16));
#94 = PLANE('',#95);
#95 = AXIS2_PLACEMENT_3D('',#96,#97,#98);
#96 = CARTESIAN_POINT('',(2.5,-24.,111.));
#97 = DIRECTION('',(-7.8E-16,-1.1E-16,1.));
#98 = DIRECTION('',(-6.7E-16,1.,1.1E-16));
#99 = ADVANCED_FACE('',(#100),#152,.F.);
#100 = FACE_BOUND('',#101,.F.);
#101 = EDGE_LOOP('',(#102,#103,#112,#120,#128,#136,#145,#151));
#102 = ORIENTED_EDGE('',*,*,#47,.T.);
#103 = ORIENTED_EDGE('',*,*,#104,.T.);
#104 = EDGE_CURVE('',#40,#105,#107,.T.);
#105 = VERTEX_POINT('',#106);
#106 = CARTESIAN_POINT('',(2.5,-16.,40.));
#107 = CIRCLE('',#108,8.);
#108 = AXIS2_PLACEMENT_3D('',#109,#110,#111);
#109 = CARTESIAN_POINT('',(2.5,-16.,48.));
#110 = DIRECTION('',(1.,8.9E-16,1.E-15));
#111 = DIRECTION('',(-8.9E-16,1.,-7.8E-16));
#112 = ORIENTED_EDGE('',*,*,#113,.T.);
#113 = EDGE_CURVE('',#105,#114,#116,.T.);
#114 = VERTEX_POINT('',#115);
#115 = CARTESIAN_POINT('',(2.5,-1.,40.));
#116 = LINE('',#117,#118);
#117 = CARTESIAN_POINT('',(2.5,-16.,40.));
#118 = VECTOR('',#119,1.);
#119 = DIRECTION('',(-8.9E-16,1.,-7.8E-16));
#120 = ORIENTED_EDGE('',*,*,#121,.T.);
#121 = EDGE_CURVE('',#114,#122,#124,.T.);
#122 = VERTEX_POINT('',#123);
#123 = CARTESIAN_POINT('',(2.5,-1.,45.));
#124 = LINE('',#125,#126);
#125 = CARTESIAN_POINT('',(2.5,-1.,40.));
#126 = VECTOR('',#127,1.);
#127 = DIRECTION('',(-1.E-15,-5.6E-16,1.));
#128 = ORIENTED_EDGE('',*,*,#129,.T.);
#129 = EDGE_CURVE('',#122,#130,#132,.T.);
#130 = VERTEX_POINT('',#131);
#131 = CARTESIAN_POINT('',(2.5,-16.,45.));
#132 = LINE('',#133,#134);
#133 = CARTESIAN_POINT('',(2.5,-1.,45.));
#134 = VECTOR('',#135,1.);
#135 = DIRECTION('',(8.9E-16,-1.,7.8E-16));
#136 = ORIENTED_EDGE('',*,*,#137,.F.);
#137 = EDGE_CURVE('',#138,#130,#140,.T.);
#138 = VERTEX_POINT('',#139);
#139 = CARTESIAN_POINT('',(2.5,-19.,47.999998960769));
#140 = CIRCLE('',#141,3.);
#141 = AXIS2_PLACEMENT_3D('',#142,#143,#144);
#142 = CARTESIAN_POINT('',(2.5,-16.,48.));
#143 = DIRECTION('',(1.,8.9E-16,1.E-15));
#144 = DIRECTION('',(-8.9E-16,1.,-7.8E-16));
#145 = ORIENTED_EDGE('',*,*,#146,.T.);
#146 = EDGE_CURVE('',#138,#82,#147,.T.);
#147 = LINE('',#148,#149);
#148 = CARTESIAN_POINT('',(2.5,-19.,47.999998960769));
#149 = VECTOR('',#150,1.);
#150 = DIRECTION('',(-1.E-15,-5.6E-16,1.));
#151 = ORIENTED_EDGE('',*,*,#89,.F.);
#152 = PLANE('',#153);
#153 = AXIS2_PLACEMENT_3D('',#154,#155,#156);
#154 = CARTESIAN_POINT('',(2.5,-18.6819263178,69.962760726731));
#155 = DIRECTION('',(1.,-4.4E-16,-3.3E-16));
#156 = DIRECTION('',(3.3E-16,-5.6E-16,1.));
#157 = ADVANCED_FACE('',(#158),#210,.T.);
#158 = FACE_BOUND('',#159,.T.);
#159 = EDGE_LOOP('',(#160,#161,#170,#178,#186,#194,#203,#209));
#160 = ORIENTED_EDGE('',*,*,#31,.T.);
#161 = ORIENTED_EDGE('',*,*,#162,.T.);
#162 = EDGE_CURVE('',#32,#163,#165,.T.);
#163 = VERTEX_POINT('',#164);
#164 = CARTESIAN_POINT('',(17.5,-16.,40.));
#165 = CIRCLE('',#166,8.);
#166 = AXIS2_PLACEMENT_3D('',#167,#168,#169);
#167 = CARTESIAN_POINT('',(17.5,-16.,48.));
#168 = DIRECTION('',(1.,8.9E-16,1.E-15));
#169 = DIRECTION('',(-8.9E-16,1.,-7.8E-16));
#170 = ORIENTED_EDGE('',*,*,#171,.T.);
#171 = EDGE_CURVE('',#163,#172,#174,.T.);
#172 = VERTEX_POINT('',#173);
#173 = CARTESIAN_POINT('',(17.5,-1.,40.));
#174 = LINE('',#175,#176);
#175 = CARTESIAN_POINT('',(17.5,-16.,40.));
#176 = VECTOR('',#177,1.);
#177 = DIRECTION('',(-8.9E-16,1.,-7.8E-16));
#178 = ORIENTED_EDGE('',*,*,#179,.T.);
#179 = EDGE_CURVE('',#172,#180,#182,.T.);
#180 = VERTEX_POINT('',#181);
#181 = CARTESIAN_POINT('',(17.5,-1.,45.));
#182 = LINE('',#183,#184);
#183 = CARTESIAN_POINT('',(17.5,-1.,40.));
#184 = VECTOR('',#185,1.);
#185 = DIRECTION('',(-1.E-15,-5.6E-16,1.));
#186 = ORIENTED_EDGE('',*,*,#187,.T.);
#187 = EDGE_CURVE('',#180,#188,#190,.T.);
#188 = VERTEX_POINT('',#189);
#189 = CARTESIAN_POINT('',(17.5,-16.,45.));
#190 = LINE('',#191,#192);
#191 = CARTESIAN_POINT('',(17.5,-1.,45.));
#192 = VECTOR('',#193,1.);
#193 = DIRECTION('',(8.9E-16,-1.,7.8E-16));
#194 = ORIENTED_EDGE('',*,*,#195,.F.);
#195 = EDGE_CURVE('',#196,#188,#198,.T.);
#196 = VERTEX_POINT('',#197);
#197 = CARTESIAN_POINT('',(17.5,-19.,47.999998960769));
#198 = CIRCLE('',#199,3.);
#199 = AXIS2_PLACEMENT_3D('',#200,#201,#202);
#200 = CARTESIAN_POINT('',(17.5,-16.,48.));
#201 = DIRECTION('',(1.,8.9E-16,1.E-15));
#202 = DIRECTION('',(-8.9E-16,1.,-7.8E-16));
#203 = ORIENTED_EDGE('',*,*,#204,.T.);
#204 = EDGE_CURVE('',#196,#74,#205,.T.);
#205 = LINE('',#206,#207);
#206 = CARTESIAN_POINT('',(17.5,-19.,47.999998960769));
#207 = VECTOR('',#208,1.);
#208 = DIRECTION('',(-1.E-15,-5.6E-16,1.));
#209 = ORIENTED_EDGE('',*,*,#73,.F.);
#210 = PLANE('',#211);
#211 = AXIS2_PLACEMENT_3D('',#212,#213,#214);
#212 = CARTESIAN_POINT('',(17.5,-18.6819263178,69.962760726731));
#213 = DIRECTION('',(1.,-4.4E-16,-3.3E-16));
#214 = DIRECTION('',(3.3E-16,-5.6E-16,1.));
#215 = ADVANCED_FACE('',(#216),#227,.T.);
#216 = FACE_BOUND('',#217,.F.);
#217 = EDGE_LOOP('',(#218,#219,#220,#226));
#218 = ORIENTED_EDGE('',*,*,#39,.T.);
#219 = ORIENTED_EDGE('',*,*,#162,.T.);
#220 = ORIENTED_EDGE('',*,*,#221,.F.);
#221 = EDGE_CURVE('',#105,#163,#222,.T.);
#222 = LINE('',#223,#224);
#223 = CARTESIAN_POINT('',(2.5,-16.,40.));
#224 = VECTOR('',#225,1.);
#225 = DIRECTION('',(1.,-4.4E-16,-1.1E-16));
#226 = ORIENTED_EDGE('',*,*,#104,.F.);
#227 = CYLINDRICAL_SURFACE('',#228,8.);
#228 = AXIS2_PLACEMENT_3D('',#229,#230,#231);
#229 = CARTESIAN_POINT('',(2.5,-16.,48.));
#230 = DIRECTION('',(-1.,2.2E-16,-1.1E-16));
#231 = DIRECTION('',(2.2E-16,1.,-7.8E-16));
#232 = ADVANCED_FACE('',(#233),#252,.F.);
#233 = FACE_BOUND('',#234,.T.);
#234 = EDGE_LOOP('',(#235,#244,#250,#251));
#235 = ORIENTED_EDGE('',*,*,#236,.T.);
#236 = EDGE_CURVE('',#237,#237,#239,.T.);
#237 = VERTEX_POINT('',#238);
#238 = CARTESIAN_POINT('',(13.25,-19.,96.));
#239 = CIRCLE('',#240,3.25);
#240 = AXIS2_PLACEMENT_3D('',#241,#242,#243);
#241 = CARTESIAN_POINT('',(10.,-19.,96.));
#242 = DIRECTION('',(2.2E-16,1.,-3.3E-16));
#243 = DIRECTION('',(1.,-2.2E-16,1.1E-16));
#244 = ORIENTED_EDGE('',*,*,#245,.T.);
#245 = EDGE_CURVE('',#237,#56,#246,.T.);
#246 = LINE('',#247,#248);
#247 = CARTESIAN_POINT('',(13.25,2.903E-14,96.));
#248 = VECTOR('',#249,1.);
#249 = DIRECTION('',(-0.,-1.,5.6E-16));
#250 = ORIENTED_EDGE('',*,*,#55,.F.);
#251 = ORIENTED_EDGE('',*,*,#245,.F.);
#252 = CYLINDRICAL_SURFACE('',#253,3.25);
#253 = AXIS2_PLACEMENT_3D('',#254,#255,#256);
#254 = CARTESIAN_POINT('',(10.,2.975E-14,96.));
#255 = DIRECTION('',(2.2E-16,1.,-3.3E-16));
#256 = DIRECTION('',(1.,-2.2E-16,1.1E-16));
#257 = ADVANCED_FACE('',(#258,#269),#272,.F.);
#258 = FACE_BOUND('',#259,.F.);
#259 = EDGE_LOOP('',(#260,#266,#267,#268));
#260 = ORIENTED_EDGE('',*,*,#261,.T.);
#261 = EDGE_CURVE('',#138,#196,#262,.T.);
#262 = LINE('',#263,#264);
#263 = CARTESIAN_POINT('',(2.5,-19.,47.999998960769));
#264 = VECTOR('',#265,1.);
#265 = DIRECTION('',(1.,-4.4E-16,-1.1E-16));
#266 = ORIENTED_EDGE('',*,*,#204,.T.);
#267 = ORIENTED_EDGE('',*,*,#81,.F.);
#268 = ORIENTED_EDGE('',*,*,#146,.F.);
#269 = FACE_BOUND('',#270,.F.);
#270 = EDGE_LOOP('',(#271));
#271 = ORIENTED_EDGE('',*,*,#236,.T.);
#272 = PLANE('',#273);
#273 = AXIS2_PLACEMENT_3D('',#274,#275,#276);
#274 = CARTESIAN_POINT('',(2.5,-19.,47.999998960769));
#275 = DIRECTION('',(4.4E-16,-1.,5.6E-16));
#276 = DIRECTION('',(-1.E-15,5.6E-16,1.));
#277 = ADVANCED_FACE('',(#278,#289),#300,.F.);
#278 = FACE_BOUND('',#279,.F.);
#279 = EDGE_LOOP('',(#280,#281,#282,#288));
#280 = ORIENTED_EDGE('',*,*,#221,.T.);
#281 = ORIENTED_EDGE('',*,*,#171,.T.);
#282 = ORIENTED_EDGE('',*,*,#283,.F.);
#283 = EDGE_CURVE('',#114,#172,#284,.T.);
#284 = LINE('',#285,#286);
#285 = CARTESIAN_POINT('',(2.5,-1.,40.));
#286 = VECTOR('',#287,1.);
#287 = DIRECTION('',(1.,-4.4E-16,-1.1E-16));
#288 = ORIENTED_EDGE('',*,*,#113,.F.);
#289 = FACE_BOUND('',#290,.F.);
#290 = EDGE_LOOP('',(#291));
#291 = ORIENTED_EDGE('',*,*,#292,.T.);
#292 = EDGE_CURVE('',#293,#293,#295,.T.);
#293 = VERTEX_POINT('',#294);
#294 = CARTESIAN_POINT('',(13.25,-8.,40.));
#295 = CIRCLE('',#296,3.25);
#296 = AXIS2_PLACEMENT_3D('',#297,#298,#299);
#297 = CARTESIAN_POINT('',(10.,-8.,40.));
#298 = DIRECTION('',(0.,-5.6E-16,-1.));
#299 = DIRECTION('',(1.,-3.3E-16,1.848E-31));
#300 = PLANE('',#301);
#301 = AXIS2_PLACEMENT_3D('',#302,#303,#304);
#302 = CARTESIAN_POINT('',(2.5,-16.,40.));
#303 = DIRECTION('',(-7.8E-16,-1.1E-16,1.));
#304 = DIRECTION('',(-6.7E-16,1.,1.1E-16));
#305 = ADVANCED_FACE('',(#306),#317,.F.);
#306 = FACE_BOUND('',#307,.F.);
#307 = EDGE_LOOP('',(#308,#309,#310,#316));
#308 = ORIENTED_EDGE('',*,*,#283,.T.);
#309 = ORIENTED_EDGE('',*,*,#179,.T.);
#310 = ORIENTED_EDGE('',*,*,#311,.F.);
#311 = EDGE_CURVE('',#122,#180,#312,.T.);
#312 = LINE('',#313,#314);
#313 = CARTESIAN_POINT('',(2.5,-1.,45.));
#314 = VECTOR('',#315,1.);
#315 = DIRECTION('',(1.,-4.4E-16,-1.1E-16));
#316 = ORIENTED_EDGE('',*,*,#121,.F.);
#317 = PLANE('',#318);
#318 = AXIS2_PLACEMENT_3D('',#319,#320,#321);
#319 = CARTESIAN_POINT('',(2.5,-1.,40.));
#320 = DIRECTION('',(4.4E-16,-1.,5.6E-16));
#321 = DIRECTION('',(-1.E-15,5.6E-16,1.));
#322 = ADVANCED_FACE('',(#323,#334),#345,.F.);
#323 = FACE_BOUND('',#324,.F.);
#324 = EDGE_LOOP('',(#325,#326,#327,#333));
#325 = ORIENTED_EDGE('',*,*,#311,.T.);
#326 = ORIENTED_EDGE('',*,*,#187,.T.);
#327 = ORIENTED_EDGE('',*,*,#328,.F.);
#328 = EDGE_CURVE('',#130,#188,#329,.T.);
#329 = LINE('',#330,#331);
#330 = CARTESIAN_POINT('',(2.5,-16.,45.));
#331 = VECTOR('',#332,1.);
#332 = DIRECTION('',(1.,-4.4E-16,-1.1E-16));
#333 = ORIENTED_EDGE('',*,*,#129,.F.);
#334 = FACE_BOUND('',#335,.F.);
#335 = EDGE_LOOP('',(#336));
#336 = ORIENTED_EDGE('',*,*,#337,.T.);
#337 = EDGE_CURVE('',#338,#338,#340,.T.);
#338 = VERTEX_POINT('',#339);
#339 = CARTESIAN_POINT('',(13.25,-8.,45.));
#340 = CIRCLE('',#341,3.25);
#341 = AXIS2_PLACEMENT_3D('',#342,#343,#344);
#342 = CARTESIAN_POINT('',(10.,-8.,45.));
#343 = DIRECTION('',(2.2E-16,5.6E-16,1.));
#344 = DIRECTION('',(1.,-3.3E-16,-2.2E-16));
#345 = PLANE('',#346);
#346 = AXIS2_PLACEMENT_3D('',#347,#348,#349);
#347 = CARTESIAN_POINT('',(2.5,-1.,45.));
#348 = DIRECTION('',(7.8E-16,1.1E-16,-1.));
#349 = DIRECTION('',(6.7E-16,-1.,-1.1E-16));
#350 = ADVANCED_FACE('',(#351),#357,.F.);
#351 = FACE_BOUND('',#352,.T.);
#352 = EDGE_LOOP('',(#353,#354,#355,#356));
#353 = ORIENTED_EDGE('',*,*,#261,.T.);
#354 = ORIENTED_EDGE('',*,*,#195,.T.);
#355 = ORIENTED_EDGE('',*,*,#328,.F.);
#356 = ORIENTED_EDGE('',*,*,#137,.F.);
#357 = CYLINDRICAL_SURFACE('',#358,3.);
#358 = AXIS2_PLACEMENT_3D('',#359,#360,#361);
#359 = CARTESIAN_POINT('',(2.5,-16.,48.));
#360 = DIRECTION('',(-1.,2.2E-16,-1.1E-16));
#361 = DIRECTION('',(2.2E-16,1.,-7.8E-16));
#362 = ADVANCED_FACE('',(#363),#374,.F.);
#363 = FACE_BOUND('',#364,.T.);
#364 = EDGE_LOOP('',(#365,#366,#372,#373));
#365 = ORIENTED_EDGE('',*,*,#292,.T.);
#366 = ORIENTED_EDGE('',*,*,#367,.T.);
#367 = EDGE_CURVE('',#293,#338,#368,.T.);
#368 = LINE('',#369,#370);
#369 = CARTESIAN_POINT('',(13.25,-8.,4.44E-15));
#370 = VECTOR('',#371,1.);
#371 = DIRECTION('',(-6.7E-16,-1.1E-16,1.));
#372 = ORIENTED_EDGE('',*,*,#337,.T.);
#373 = ORIENTED_EDGE('',*,*,#367,.F.);
#374 = CYLINDRICAL_SURFACE('',#375,3.25);
#375 = AXIS2_PLACEMENT_3D('',#376,#377,#378);
#376 = CARTESIAN_POINT('',(10.,-8.,4.44E-15));
#377 = DIRECTION('',(4.4E-16,-1.1E-16,-1.));
#378 = DIRECTION('',(1.,-3.3E-16,4.4E-16));
#379 = ( GEOMETRIC_REPRESENTATION_CONTEXT(3) 
GLOBAL_UNCERTAINTY_ASSIGNED_CONTEXT((#383)) GLOBAL_UNIT_ASSIGNED_CONTEXT
((#380,#381,#382)) REPRESENTATION_CONTEXT('Context #1',
  '3D Context with UNIT and UNCERTAINTY') );
#380 = ( LENGTH_UNIT() NAMED_UNIT(*) SI_UNIT(.MILLI.,.METRE.) );
#381 = ( NAMED_UNIT(*) PLANE_ANGLE_UNIT() SI_UNIT($,.RADIAN.) );
#382 = ( NAMED_UNIT(*) SI_UNIT($,.STERADIAN.) SOLID_ANGLE_UNIT() );
#383 = UNCERTAINTY_MEASURE_WITH_UNIT(LENGTH_MEASURE(1.E-07),#380,
  'distance_accuracy_value','confusion accuracy');
#384 = PRODUCT_RELATED_PRODUCT_CATEGORY('part',$,(#7));
ENDSEC;
END-ISO-10303-21;
