%TF.GenerationSoftware,KiCad,Pcbnew,9.0.1*%
%TF.CreationDate,2026-02-06T20:35:44-08:00*%
%TF.ProjectId,GateDriver,47617465-4472-4697-9665-722e6b696361,rev?*%
%TF.SameCoordinates,Original*%
%TF.FileFunction,Soldermask,Bot*%
%TF.FilePolarity,Negative*%
%FSLAX46Y46*%
G04 Gerber Fmt 4.6, Leading zero omitted, Abs format (unit mm)*
G04 Created by KiCad (PCBNEW 9.0.1) date 2026-02-06 20:35:44*
%MOMM*%
%LPD*%
G01*
G04 APERTURE LIST*
G04 Aperture macros list*
%AMRoundRect*
0 Rectangle with rounded corners*
0 $1 Rounding radius*
0 $2 $3 $4 $5 $6 $7 $8 $9 X,Y pos of 4 corners*
0 Add a 4 corners polygon primitive as box body*
4,1,4,$2,$3,$4,$5,$6,$7,$8,$9,$2,$3,0*
0 Add four circle primitives for the rounded corners*
1,1,$1+$1,$2,$3*
1,1,$1+$1,$4,$5*
1,1,$1+$1,$6,$7*
1,1,$1+$1,$8,$9*
0 Add four rect primitives between the rounded corners*
20,1,$1+$1,$2,$3,$4,$5,0*
20,1,$1+$1,$4,$5,$6,$7,0*
20,1,$1+$1,$6,$7,$8,$9,0*
20,1,$1+$1,$8,$9,$2,$3,0*%
G04 Aperture macros list end*
%ADD10C,3.200000*%
%ADD11C,3.000000*%
%ADD12R,3.000000X6.000000*%
%ADD13C,4.400000*%
%ADD14R,1.700000X1.700000*%
%ADD15C,1.700000*%
%ADD16RoundRect,0.250000X-1.100000X0.412500X-1.100000X-0.412500X1.100000X-0.412500X1.100000X0.412500X0*%
%ADD17RoundRect,0.250000X0.412500X1.100000X-0.412500X1.100000X-0.412500X-1.100000X0.412500X-1.100000X0*%
%ADD18R,2.300000X1.000000*%
%ADD19RoundRect,0.250000X-1.075000X0.400000X-1.075000X-0.400000X1.075000X-0.400000X1.075000X0.400000X0*%
%ADD20RoundRect,0.250000X-0.400000X-1.075000X0.400000X-1.075000X0.400000X1.075000X-0.400000X1.075000X0*%
%ADD21RoundRect,0.250000X-0.412500X-1.100000X0.412500X-1.100000X0.412500X1.100000X-0.412500X1.100000X0*%
%ADD22RoundRect,0.250000X0.400000X1.075000X-0.400000X1.075000X-0.400000X-1.075000X0.400000X-1.075000X0*%
G04 APERTURE END LIST*
D10*
%TO.C,H1*%
X6000000Y-54000000D03*
%TD*%
D11*
%TO.C,TP2*%
X15000000Y-56500000D03*
%TD*%
%TO.C,TP1*%
X25000000Y-56500000D03*
%TD*%
%TO.C,TP5*%
X35750000Y-44750000D03*
%TD*%
%TO.C,TP6*%
X40250000Y-44750000D03*
%TD*%
D12*
%TO.C,Q1*%
X51000000Y-6300000D03*
X45000000Y-6300000D03*
X24000000Y-6300000D03*
X30000000Y-6300000D03*
%TD*%
D13*
%TO.C,H5*%
X3000000Y-19000000D03*
%TD*%
D14*
%TO.C,J1*%
X29750000Y-57790000D03*
D15*
X29750000Y-55250000D03*
X32290000Y-57790000D03*
X32290000Y-55250000D03*
X34830000Y-57790000D03*
X34830000Y-55250000D03*
X37370000Y-57790000D03*
X37370000Y-55250000D03*
X39910000Y-57790000D03*
X39910000Y-55250000D03*
X42450000Y-57790000D03*
X42450000Y-55250000D03*
X44990000Y-57790000D03*
X44990000Y-55250000D03*
X47530000Y-57790000D03*
X47530000Y-55250000D03*
%TD*%
D11*
%TO.C,TP4*%
X15000000Y-50000000D03*
%TD*%
D10*
%TO.C,H3*%
X69000000Y-54000000D03*
%TD*%
D11*
%TO.C,TP3*%
X20000000Y-56500000D03*
%TD*%
D13*
%TO.C,H4*%
X72000000Y-19000000D03*
%TD*%
D16*
%TO.C,C13*%
X67000000Y-32437500D03*
X67000000Y-35562500D03*
%TD*%
D17*
%TO.C,C26*%
X32562500Y-24500000D03*
X29437500Y-24500000D03*
%TD*%
D18*
%TO.C,PS1*%
X45515000Y-46390000D03*
X45515000Y-32930000D03*
X45515000Y-30390000D03*
X59485000Y-30390000D03*
X59485000Y-32930000D03*
X59485000Y-43850000D03*
X59485000Y-46390000D03*
%TD*%
D19*
%TO.C,R21*%
X24500000Y-16000000D03*
X24500000Y-19100000D03*
%TD*%
D20*
%TO.C,R19*%
X9950000Y-23000000D03*
X13050000Y-23000000D03*
%TD*%
D21*
%TO.C,C12*%
X63437500Y-28000000D03*
X66562500Y-28000000D03*
%TD*%
D20*
%TO.C,R23*%
X2900000Y-28000000D03*
X6000000Y-28000000D03*
%TD*%
D16*
%TO.C,C11*%
X71500000Y-32437500D03*
X71500000Y-35562500D03*
%TD*%
D18*
%TO.C,PS2*%
X17077500Y-46390000D03*
X17077500Y-32930000D03*
X17077500Y-30390000D03*
X31047500Y-30390000D03*
X31047500Y-32930000D03*
X31047500Y-43850000D03*
X31047500Y-46390000D03*
%TD*%
D20*
%TO.C,R17*%
X4450000Y-45000000D03*
X7550000Y-45000000D03*
%TD*%
D19*
%TO.C,R6*%
X40000000Y-49500000D03*
X40000000Y-52600000D03*
%TD*%
D22*
%TO.C,R13*%
X72100000Y-28000000D03*
X69000000Y-28000000D03*
%TD*%
D17*
%TO.C,C24*%
X32562500Y-21000000D03*
X29437500Y-21000000D03*
%TD*%
D22*
%TO.C,R8*%
X71050000Y-45000000D03*
X67950000Y-45000000D03*
%TD*%
D19*
%TO.C,R5*%
X35000000Y-49500000D03*
X35000000Y-52600000D03*
%TD*%
D22*
%TO.C,R9*%
X66050000Y-23500000D03*
X62950000Y-23500000D03*
%TD*%
D19*
%TO.C,R4*%
X30000000Y-49500000D03*
X30000000Y-52600000D03*
%TD*%
D17*
%TO.C,C25*%
X11562500Y-28000000D03*
X8437500Y-28000000D03*
%TD*%
D19*
%TO.C,R11*%
X49000000Y-17000000D03*
X49000000Y-20100000D03*
%TD*%
M02*
