%TF.GenerationSoftware,KiCad,Pcbnew,9.0.1*%
%TF.CreationDate,2026-02-06T20:35:43-08:00*%
%TF.ProjectId,GateDriver,47617465-4472-4697-9665-722e6b696361,rev?*%
%TF.SameCoordinates,Original*%
%TF.FileFunction,Paste,Top*%
%TF.FilePolarity,Positive*%
%FSLAX46Y46*%
G04 Gerber Fmt 4.6, Leading zero omitted, Abs format (unit mm)*
G04 Created by KiCad (PCBNEW 9.0.1) date 2026-02-06 20:35:43*
%MOMM*%
%LPD*%
G01*
G04 APERTURE LIST*
G04 Aperture macros list*
%AMRoundRect*
0 Rectangle with rounded corners*
0 $1 Rounding radius*
0 $2 $3 $4 $5 $6 $7 $8 $9 X,Y pos of 4 corners*
0 Add a 4 corners polygon primitive as box body*
4,1,4,$2,$3,$4,$5,$6,$7,$8,$9,$2,$3,0*
0 Add four circle primitives for the rounded corners*
1,1,$1+$1,$2,$3*
1,1,$1+$1,$4,$5*
1,1,$1+$1,$6,$7*
1,1,$1+$1,$8,$9*
0 Add four rect primitives between the rounded corners*
20,1,$1+$1,$2,$3,$4,$5,0*
20,1,$1+$1,$4,$5,$6,$7,0*
20,1,$1+$1,$6,$7,$8,$9,0*
20,1,$1+$1,$8,$9,$2,$3,0*%
G04 Aperture macros list end*
%ADD10R,1.550000X2.350000*%
%ADD11RoundRect,0.250000X-0.412500X-1.100000X0.412500X-1.100000X0.412500X1.100000X-0.412500X1.100000X0*%
%ADD12RoundRect,0.250000X0.400000X1.075000X-0.400000X1.075000X-0.400000X-1.075000X0.400000X-1.075000X0*%
%ADD13RoundRect,0.250000X0.412500X1.100000X-0.412500X1.100000X-0.412500X-1.100000X0.412500X-1.100000X0*%
%ADD14RoundRect,0.250000X-1.075000X0.400000X-1.075000X-0.400000X1.075000X-0.400000X1.075000X0.400000X0*%
%ADD15RoundRect,0.250000X1.075000X-0.400000X1.075000X0.400000X-1.075000X0.400000X-1.075000X-0.400000X0*%
%ADD16R,0.650000X1.925000*%
%ADD17R,1.000000X1.750000*%
%ADD18R,1.850000X3.500000*%
%ADD19RoundRect,0.250000X-1.100000X0.412500X-1.100000X-0.412500X1.100000X-0.412500X1.100000X0.412500X0*%
%ADD20R,1.000000X0.950000*%
%ADD21RoundRect,0.250000X1.100000X-0.412500X1.100000X0.412500X-1.100000X0.412500X-1.100000X-0.412500X0*%
%ADD22R,0.500000X1.075000*%
%ADD23RoundRect,0.250000X-0.400000X-1.075000X0.400000X-1.075000X0.400000X1.075000X-0.400000X1.075000X0*%
G04 APERTURE END LIST*
D10*
%TO.C,D2*%
X72000000Y-23850000D03*
X72000000Y-28150000D03*
%TD*%
D11*
%TO.C,C2*%
X50937500Y-52000000D03*
X54062500Y-52000000D03*
%TD*%
D12*
%TO.C,R22*%
X11000000Y-28000000D03*
X7900000Y-28000000D03*
%TD*%
D13*
%TO.C,C1*%
X54062500Y-48500000D03*
X50937500Y-48500000D03*
%TD*%
D14*
%TO.C,R10*%
X52000000Y-18450000D03*
X52000000Y-21550000D03*
%TD*%
D15*
%TO.C,R2*%
X40000000Y-52250000D03*
X40000000Y-49150000D03*
%TD*%
D11*
%TO.C,C6*%
X59437500Y-35000000D03*
X62562500Y-35000000D03*
%TD*%
D16*
%TO.C,IC1*%
X48055000Y-44712000D03*
X49325000Y-44712000D03*
X50595000Y-44712000D03*
X51865000Y-44712000D03*
X53135000Y-44712000D03*
X54405000Y-44712000D03*
X55675000Y-44712000D03*
X56945000Y-44712000D03*
X56945000Y-35288000D03*
X55675000Y-35288000D03*
X54405000Y-35288000D03*
X53135000Y-35288000D03*
X51865000Y-35288000D03*
X50595000Y-35288000D03*
X49325000Y-35288000D03*
X48055000Y-35288000D03*
%TD*%
D17*
%TO.C,LED5*%
X2000000Y-45000000D03*
X5000000Y-45000000D03*
%TD*%
D18*
%TO.C,C3*%
X59500000Y-52200000D03*
X59500000Y-57500000D03*
%TD*%
D19*
%TO.C,C8*%
X67000000Y-32500000D03*
X67000000Y-35625000D03*
%TD*%
D11*
%TO.C,C15*%
X22500000Y-48500000D03*
X25625000Y-48500000D03*
%TD*%
D15*
%TO.C,R1*%
X35000000Y-52500000D03*
X35000000Y-49400000D03*
%TD*%
D20*
%TO.C,FB1*%
X52000000Y-15200000D03*
X52000000Y-16800000D03*
%TD*%
D13*
%TO.C,C21*%
X32562500Y-24500000D03*
X29437500Y-24500000D03*
%TD*%
D16*
%TO.C,IC2*%
X19617500Y-44712000D03*
X20887500Y-44712000D03*
X22157500Y-44712000D03*
X23427500Y-44712000D03*
X24697500Y-44712000D03*
X25967500Y-44712000D03*
X27237500Y-44712000D03*
X28507500Y-44712000D03*
X28507500Y-35288000D03*
X27237500Y-35288000D03*
X25967500Y-35288000D03*
X24697500Y-35288000D03*
X23427500Y-35288000D03*
X22157500Y-35288000D03*
X20887500Y-35288000D03*
X19617500Y-35288000D03*
%TD*%
D13*
%TO.C,C14*%
X25625000Y-52000000D03*
X22500000Y-52000000D03*
%TD*%
%TO.C,C23*%
X24562500Y-28500000D03*
X21437500Y-28500000D03*
%TD*%
%TO.C,C20*%
X32562500Y-21000000D03*
X29437500Y-21000000D03*
%TD*%
D19*
%TO.C,C7*%
X71500000Y-32437500D03*
X71500000Y-35562500D03*
%TD*%
D20*
%TO.C,FB2*%
X21500000Y-14750000D03*
X21500000Y-16350000D03*
%TD*%
D21*
%TO.C,C5*%
X45500000Y-35062500D03*
X45500000Y-31937500D03*
%TD*%
D15*
%TO.C,R3*%
X30000000Y-52500000D03*
X30000000Y-49400000D03*
%TD*%
D19*
%TO.C,C17*%
X17000000Y-25437500D03*
X17000000Y-28562500D03*
%TD*%
D22*
%TO.C,D1*%
X49000000Y-22324000D03*
X49000000Y-20000000D03*
%TD*%
D21*
%TO.C,C4*%
X45500000Y-28562500D03*
X45500000Y-25437500D03*
%TD*%
D14*
%TO.C,R14*%
X56000000Y-14450000D03*
X56000000Y-17550000D03*
%TD*%
D23*
%TO.C,R12*%
X63900000Y-28000000D03*
X67000000Y-28000000D03*
%TD*%
D14*
%TO.C,R20*%
X21500000Y-18000000D03*
X21500000Y-21100000D03*
%TD*%
D11*
%TO.C,C19*%
X29937500Y-35000000D03*
X33062500Y-35000000D03*
%TD*%
%TO.C,C9*%
X49500000Y-32000000D03*
X52625000Y-32000000D03*
%TD*%
D14*
%TO.C,R24*%
X18000000Y-14950000D03*
X18000000Y-18050000D03*
%TD*%
D10*
%TO.C,D4*%
X3000000Y-23850000D03*
X3000000Y-28150000D03*
%TD*%
D22*
%TO.C,D3*%
X25500000Y-21662000D03*
X25500000Y-19338000D03*
%TD*%
D21*
%TO.C,C18*%
X17000000Y-34562500D03*
X17000000Y-31437500D03*
%TD*%
D13*
%TO.C,C10*%
X52562500Y-28500000D03*
X49437500Y-28500000D03*
%TD*%
D17*
%TO.C,LED2*%
X73500000Y-45000000D03*
X70500000Y-45000000D03*
%TD*%
D11*
%TO.C,C22*%
X21437500Y-32000000D03*
X24562500Y-32000000D03*
%TD*%
M02*
