ISO-10303-21;
HEADER;
FILE_DESCRIPTION(('FreeCAD Model'),'2;1');
FILE_NAME('Open CASCADE Shape Model','2026-08-29T23:18:25',(''),(''),
  'Open CASCADE STEP processor 7.8','FreeCAD','Unknown');
FILE_SCHEMA(('AUTOMOTIVE_DESIGN { 1 0 10303 214 1 1 1 1 }'));
ENDSEC;
DATA;
#1 = APPLICATION_PROTOCOL_DEFINITION('international standard',
  'automotive_design',2000,#2);
#2 = APPLICATION_CONTEXT(
  'core data for automotive mechanical design processes');
#3 = SHAPE_DEFINITION_REPRESENTATION(#4,#10);
#4 = PRODUCT_DEFINITION_SHAPE('','',#5);
#5 = PRODUCT_DEFINITION('design','',#6,#9);
#6 = PRODUCT_DEFINITION_FORMATION('','',#7);
#7 = PRODUCT('HW-C3-FR-CSP-A','HW-C3-FR-CSP-A','',(#8));
#8 = PRODUCT_CONTEXT('',#2,'mechanical');
#9 = PRODUCT_DEFINITION_CONTEXT('part definition',#2,'design');
#10 = ADVANCED_BREP_SHAPE_REPRESENTATION('',(#11,#15),#1030);
#11 = AXIS2_PLACEMENT_3D('',#12,#13,#14);
#12 = CARTESIAN_POINT('',(0.,0.,0.));
#13 = DIRECTION('',(0.,0.,1.));
#14 = DIRECTION('',(1.,0.,-0.));
#15 = MANIFOLD_SOLID_BREP('',#16);
#16 = CLOSED_SHELL('',(#17,#57,#88,#251,#361,#466,#478,#513,#537,#561,
    #578,#609,#633,#657,#681,#705,#722,#753,#777,#801,#825,#849,#866,
    #883,#900,#917,#934,#951,#968,#985,#1002));
#17 = ADVANCED_FACE('',(#18),#52,.F.);
#18 = FACE_BOUND('',#19,.F.);
#19 = EDGE_LOOP('',(#20,#30,#38,#46));
#20 = ORIENTED_EDGE('',*,*,#21,.T.);
#21 = EDGE_CURVE('',#22,#24,#26,.T.);
#22 = VERTEX_POINT('',#23);
#23 = CARTESIAN_POINT('',(3.,65.,240.));
#24 = VERTEX_POINT('',#25);
#25 = CARTESIAN_POINT('',(6.,65.,240.));
#26 = LINE('',#27,#28);
#27 = CARTESIAN_POINT('',(3.,65.,240.));
#28 = VECTOR('',#29,1.);
#29 = DIRECTION('',(1.,0.,0.));
#30 = ORIENTED_EDGE('',*,*,#31,.T.);
#31 = EDGE_CURVE('',#24,#32,#34,.T.);
#32 = VERTEX_POINT('',#33);
#33 = CARTESIAN_POINT('',(6.,3.,240.));
#34 = LINE('',#35,#36);
#35 = CARTESIAN_POINT('',(6.,65.,240.));
#36 = VECTOR('',#37,1.);
#37 = DIRECTION('',(0.,-1.,0.));
#38 = ORIENTED_EDGE('',*,*,#39,.F.);
#39 = EDGE_CURVE('',#40,#32,#42,.T.);
#40 = VERTEX_POINT('',#41);
#41 = CARTESIAN_POINT('',(3.,3.,240.));
#42 = LINE('',#43,#44);
#43 = CARTESIAN_POINT('',(3.,3.,240.));
#44 = VECTOR('',#45,1.);
#45 = DIRECTION('',(1.,0.,0.));
#46 = ORIENTED_EDGE('',*,*,#47,.F.);
#47 = EDGE_CURVE('',#22,#40,#48,.T.);
#48 = LINE('',#49,#50);
#49 = CARTESIAN_POINT('',(3.,65.,240.));
#50 = VECTOR('',#51,1.);
#51 = DIRECTION('',(0.,-1.,0.));
#52 = PLANE('',#53);
#53 = AXIS2_PLACEMENT_3D('',#54,#55,#56);
#54 = CARTESIAN_POINT('',(3.,65.,240.));
#55 = DIRECTION('',(0.,0.,-1.));
#56 = DIRECTION('',(0.,-1.,0.));
#57 = ADVANCED_FACE('',(#58),#83,.F.);
#58 = FACE_BOUND('',#59,.F.);
#59 = EDGE_LOOP('',(#60,#70,#76,#77));
#60 = ORIENTED_EDGE('',*,*,#61,.T.);
#61 = EDGE_CURVE('',#62,#64,#66,.T.);
#62 = VERTEX_POINT('',#63);
#63 = CARTESIAN_POINT('',(3.,65.,55.));
#64 = VERTEX_POINT('',#65);
#65 = CARTESIAN_POINT('',(6.,65.,55.));
#66 = LINE('',#67,#68);
#67 = CARTESIAN_POINT('',(3.,65.,55.));
#68 = VECTOR('',#69,1.);
#69 = DIRECTION('',(1.,0.,0.));
#70 = ORIENTED_EDGE('',*,*,#71,.T.);
#71 = EDGE_CURVE('',#64,#24,#72,.T.);
#72 = LINE('',#73,#74);
#73 = CARTESIAN_POINT('',(6.,65.,55.));
#74 = VECTOR('',#75,1.);
#75 = DIRECTION('',(0.,0.,1.));
#76 = ORIENTED_EDGE('',*,*,#21,.F.);
#77 = ORIENTED_EDGE('',*,*,#78,.F.);
#78 = EDGE_CURVE('',#62,#22,#79,.T.);
#79 = LINE('',#80,#81);
#80 = CARTESIAN_POINT('',(3.,65.,55.));
#81 = VECTOR('',#82,1.);
#82 = DIRECTION('',(0.,0.,1.));
#83 = PLANE('',#84);
#84 = AXIS2_PLACEMENT_3D('',#85,#86,#87);
#85 = CARTESIAN_POINT('',(3.,65.,55.));
#86 = DIRECTION('',(0.,-1.,0.));
#87 = DIRECTION('',(0.,0.,1.));
#88 = ADVANCED_FACE('',(#89,#146,#196),#246,.T.);
#89 = FACE_BOUND('',#90,.T.);
#90 = EDGE_LOOP('',(#91,#92,#100,#108,#116,#124,#132,#140));
#91 = ORIENTED_EDGE('',*,*,#39,.F.);
#92 = ORIENTED_EDGE('',*,*,#93,.T.);
#93 = EDGE_CURVE('',#40,#94,#96,.T.);
#94 = VERTEX_POINT('',#95);
#95 = CARTESIAN_POINT('',(3.,2.999998960769,262.));
#96 = LINE('',#97,#98);
#97 = CARTESIAN_POINT('',(3.,2.999998960769,29.));
#98 = VECTOR('',#99,1.);
#99 = DIRECTION('',(0.,0.,1.));
#100 = ORIENTED_EDGE('',*,*,#101,.F.);
#101 = EDGE_CURVE('',#102,#94,#104,.T.);
#102 = VERTEX_POINT('',#103);
#103 = CARTESIAN_POINT('',(34.,2.999999,262.));
#104 = LINE('',#105,#106);
#105 = CARTESIAN_POINT('',(6.000000058846,2.999998960769,262.));
#106 = VECTOR('',#107,1.);
#107 = DIRECTION('',(-1.,0.,0.));
#108 = ORIENTED_EDGE('',*,*,#109,.F.);
#109 = EDGE_CURVE('',#110,#102,#112,.T.);
#110 = VERTEX_POINT('',#111);
#111 = CARTESIAN_POINT('',(34.,2.999999,29.));
#112 = LINE('',#113,#114);
#113 = CARTESIAN_POINT('',(34.,2.999999,29.));
#114 = VECTOR('',#115,1.);
#115 = DIRECTION('',(0.,0.,1.));
#116 = ORIENTED_EDGE('',*,*,#117,.T.);
#117 = EDGE_CURVE('',#110,#118,#120,.T.);
#118 = VERTEX_POINT('',#119);
#119 = CARTESIAN_POINT('',(3.,2.999998960769,29.));
#120 = LINE('',#121,#122);
#121 = CARTESIAN_POINT('',(34.,2.999999,29.));
#122 = VECTOR('',#123,1.);
#123 = DIRECTION('',(-1.,0.,0.));
#124 = ORIENTED_EDGE('',*,*,#125,.T.);
#125 = EDGE_CURVE('',#118,#126,#128,.T.);
#126 = VERTEX_POINT('',#127);
#127 = CARTESIAN_POINT('',(3.,3.,55.));
#128 = LINE('',#129,#130);
#129 = CARTESIAN_POINT('',(3.,2.999998960769,29.));
#130 = VECTOR('',#131,1.);
#131 = DIRECTION('',(0.,0.,1.));
#132 = ORIENTED_EDGE('',*,*,#133,.T.);
#133 = EDGE_CURVE('',#126,#134,#136,.T.);
#134 = VERTEX_POINT('',#135);
#135 = CARTESIAN_POINT('',(6.,3.,55.));
#136 = LINE('',#137,#138);
#137 = CARTESIAN_POINT('',(3.,3.,55.));
#138 = VECTOR('',#139,1.);
#139 = DIRECTION('',(1.,0.,0.));
#140 = ORIENTED_EDGE('',*,*,#141,.F.);
#141 = EDGE_CURVE('',#32,#134,#142,.T.);
#142 = LINE('',#143,#144);
#143 = CARTESIAN_POINT('',(6.,3.,240.));
#144 = VECTOR('',#145,1.);
#145 = DIRECTION('',(0.,0.,-1.));
#146 = FACE_BOUND('',#147,.T.);
#147 = EDGE_LOOP('',(#148,#158,#166,#174,#182,#190));
#148 = ORIENTED_EDGE('',*,*,#149,.F.);
#149 = EDGE_CURVE('',#150,#152,#154,.T.);
#150 = VERTEX_POINT('',#151);
#151 = CARTESIAN_POINT('',(27.92820357735,2.99999915982,199.999999));
#152 = VERTEX_POINT('',#153);
#153 = CARTESIAN_POINT('',(27.928203,2.999999159283,191.999999));
#154 = LINE('',#155,#156);
#155 = CARTESIAN_POINT('',(27.928201322887,2.999999157725,
    168.76123514657));
#156 = VECTOR('',#157,1.);
#157 = DIRECTION('',(-7.216877851E-08,-6.707289E-11,-1.));
#158 = ORIENTED_EDGE('',*,*,#159,.F.);
#159 = EDGE_CURVE('',#160,#150,#162,.T.);
#160 = VERTEX_POINT('',#161);
#161 = CARTESIAN_POINT('',(21.00000063575,2.999999320234,203.9999995));
#162 = LINE('',#163,#164);
#163 = CARTESIAN_POINT('',(36.518117536515,2.999998960931,
    195.04060903679));
#164 = VECTOR('',#165,1.);
#165 = DIRECTION('',(0.8660253677,-2.005170813E-08,-0.5000000625));
#166 = ORIENTED_EDGE('',*,*,#167,.F.);
#167 = EDGE_CURVE('',#168,#160,#170,.T.);
#168 = VERTEX_POINT('',#169);
#169 = CARTESIAN_POINT('',(14.071797116799,2.999999480111,200.));
#170 = LINE('',#171,#172);
#171 = CARTESIAN_POINT('',(7.732503742828,2.999999626398,196.34000787406
    ));
#172 = VECTOR('',#173,1.);
#173 = DIRECTION('',(0.866025439869,-1.998463524E-08,0.4999999375));
#174 = ORIENTED_EDGE('',*,*,#175,.F.);
#175 = EDGE_CURVE('',#176,#168,#178,.T.);
#176 = VERTEX_POINT('',#177);
#177 = CARTESIAN_POINT('',(14.071796539449,2.999999479574,192.));
#178 = LINE('',#179,#180);
#179 = CARTESIAN_POINT('',(14.071795151011,2.999999478284,
    172.76123614656));
#180 = VECTOR('',#181,1.);
#181 = DIRECTION('',(7.216877984E-08,6.707289E-11,1.));
#182 = ORIENTED_EDGE('',*,*,#183,.F.);
#183 = EDGE_CURVE('',#184,#176,#186,.T.);
#184 = VERTEX_POINT('',#185);
#185 = CARTESIAN_POINT('',(20.999999481049,2.99999931916,187.9999995));
#186 = LINE('',#187,#188);
#187 = CARTESIAN_POINT('',(26.125811969414,2.999999200479,
    185.04060978679));
#188 = VECTOR('',#189,1.);
#189 = DIRECTION('',(-0.8660253677,2.005170813E-08,0.5000000625));
#190 = ORIENTED_EDGE('',*,*,#191,.F.);
#191 = EDGE_CURVE('',#152,#184,#192,.T.);
#192 = LINE('',#193,#194);
#193 = CARTESIAN_POINT('',(11.196604347603,2.999999545386,
    182.34000762406));
#194 = VECTOR('',#195,1.);
#195 = DIRECTION('',(-0.866025439869,1.998463524E-08,-0.4999999375));
#196 = FACE_BOUND('',#197,.T.);
#197 = EDGE_LOOP('',(#198,#208,#216,#224,#232,#240));
#198 = ORIENTED_EDGE('',*,*,#199,.F.);
#199 = EDGE_CURVE('',#200,#202,#204,.T.);
#200 = VERTEX_POINT('',#201);
#201 = CARTESIAN_POINT('',(27.928204037901,2.999999153045,98.999999));
#202 = VERTEX_POINT('',#203);
#203 = CARTESIAN_POINT('',(27.928203460551,2.999999152509,90.999999));
#204 = LINE('',#205,#206);
#205 = CARTESIAN_POINT('',(27.928205427961,2.999999154337,
    118.26123514656));
#206 = VECTOR('',#207,1.);
#207 = DIRECTION('',(-7.216878428E-08,-6.707289E-11,-1.));
#208 = ORIENTED_EDGE('',*,*,#209,.F.);
#209 = EDGE_CURVE('',#210,#200,#212,.T.);
#210 = VERTEX_POINT('',#211);
#211 = CARTESIAN_POINT('',(21.000001096301,2.999999313459,102.9999995));
#212 = LINE('',#213,#214);
#213 = CARTESIAN_POINT('',(14.650974556541,2.999999460463,
    106.66561229275));
#214 = VECTOR('',#215,1.);
#215 = DIRECTION('',(0.8660253677,-2.005170813E-08,-0.5000000625));
#216 = ORIENTED_EDGE('',*,*,#217,.F.);
#217 = EDGE_CURVE('',#218,#210,#220,.T.);
#218 = VERTEX_POINT('',#219);
#219 = CARTESIAN_POINT('',(14.07179757735,2.999999473336,99.));
#220 = LINE('',#221,#222);
#221 = CARTESIAN_POINT('',(29.599643653967,2.999999115011,107.9650046181
    ));
#222 = VECTOR('',#223,1.);
#223 = DIRECTION('',(0.866025439869,-1.998463524E-08,0.4999999375));
#224 = ORIENTED_EDGE('',*,*,#225,.F.);
#225 = EDGE_CURVE('',#226,#218,#228,.T.);
#226 = VERTEX_POINT('',#227);
#227 = CARTESIAN_POINT('',(14.071797,2.9999994728,91.));
#228 = LINE('',#229,#230);
#229 = CARTESIAN_POINT('',(14.071799256085,2.999999474896,
    122.26123614656));
#230 = VECTOR('',#231,1.);
#231 = DIRECTION('',(7.216878406E-08,6.707289E-11,1.));
#232 = ORIENTED_EDGE('',*,*,#233,.F.);
#233 = EDGE_CURVE('',#234,#226,#236,.T.);
#234 = VERTEX_POINT('',#235);
#235 = CARTESIAN_POINT('',(20.9999999416,2.999999312386,86.9999995));
#236 = LINE('',#237,#238);
#237 = CARTESIAN_POINT('',(4.25866898944,2.99999970001,96.665613042758)
  );
#238 = VECTOR('',#239,1.);
#239 = DIRECTION('',(-0.8660253677,2.005170813E-08,0.5000000625));
#240 = ORIENTED_EDGE('',*,*,#241,.F.);
#241 = EDGE_CURVE('',#202,#234,#242,.T.);
#242 = LINE('',#243,#244);
#243 = CARTESIAN_POINT('',(33.063744258742,2.999999034,93.965004368102)
  );
#244 = VECTOR('',#245,1.);
#245 = DIRECTION('',(-0.866025439869,1.998463524E-08,-0.4999999375));
#246 = PLANE('',#247);
#247 = AXIS2_PLACEMENT_3D('',#248,#249,#250);
#248 = CARTESIAN_POINT('',(19.382022468961,2.999999353711,145.5224719101
    ));
#249 = DIRECTION('',(2.311499361E-08,1.,-6.707456E-11));
#250 = DIRECTION('',(1.,-2.311499361E-08,0.));
#251 = ADVANCED_FACE('',(#252,#268,#279,#290,#301,#312,#323,#334,#345),
  #356,.F.);
#252 = FACE_BOUND('',#253,.F.);
#253 = EDGE_LOOP('',(#254,#255,#261,#267));
#254 = ORIENTED_EDGE('',*,*,#47,.T.);
#255 = ORIENTED_EDGE('',*,*,#256,.T.);
#256 = EDGE_CURVE('',#40,#126,#257,.T.);
#257 = LINE('',#258,#259);
#258 = CARTESIAN_POINT('',(3.,3.,240.));
#259 = VECTOR('',#260,1.);
#260 = DIRECTION('',(0.,0.,-1.));
#261 = ORIENTED_EDGE('',*,*,#262,.T.);
#262 = EDGE_CURVE('',#126,#62,#263,.T.);
#263 = LINE('',#264,#265);
#264 = CARTESIAN_POINT('',(3.,3.,55.));
#265 = VECTOR('',#266,1.);
#266 = DIRECTION('',(0.,1.,0.));
#267 = ORIENTED_EDGE('',*,*,#78,.T.);
#268 = FACE_BOUND('',#269,.T.);
#269 = EDGE_LOOP('',(#270));
#270 = ORIENTED_EDGE('',*,*,#271,.T.);
#271 = EDGE_CURVE('',#272,#272,#274,.T.);
#272 = VERTEX_POINT('',#273);
#273 = CARTESIAN_POINT('',(3.,25.5,221.));
#274 = CIRCLE('',#275,5.5);
#275 = AXIS2_PLACEMENT_3D('',#276,#277,#278);
#276 = CARTESIAN_POINT('',(3.,20.,221.));
#277 = DIRECTION('',(1.,0.,0.));
#278 = DIRECTION('',(0.,1.,0.));
#279 = FACE_BOUND('',#280,.T.);
#280 = EDGE_LOOP('',(#281));
#281 = ORIENTED_EDGE('',*,*,#282,.T.);
#282 = EDGE_CURVE('',#283,#283,#285,.T.);
#283 = VERTEX_POINT('',#284);
#284 = CARTESIAN_POINT('',(3.,55.5,221.));
#285 = CIRCLE('',#286,5.5);
#286 = AXIS2_PLACEMENT_3D('',#287,#288,#289);
#287 = CARTESIAN_POINT('',(3.,50.,221.));
#288 = DIRECTION('',(1.,0.,0.));
#289 = DIRECTION('',(0.,1.,0.));
#290 = FACE_BOUND('',#291,.T.);
#291 = EDGE_LOOP('',(#292));
#292 = ORIENTED_EDGE('',*,*,#293,.T.);
#293 = EDGE_CURVE('',#294,#294,#296,.T.);
#294 = VERTEX_POINT('',#295);
#295 = CARTESIAN_POINT('',(3.,25.5,171.));
#296 = CIRCLE('',#297,5.5);
#297 = AXIS2_PLACEMENT_3D('',#298,#299,#300);
#298 = CARTESIAN_POINT('',(3.,20.,171.));
#299 = DIRECTION('',(1.,0.,0.));
#300 = DIRECTION('',(0.,1.,0.));
#301 = FACE_BOUND('',#302,.T.);
#302 = EDGE_LOOP('',(#303));
#303 = ORIENTED_EDGE('',*,*,#304,.T.);
#304 = EDGE_CURVE('',#305,#305,#307,.T.);
#305 = VERTEX_POINT('',#306);
#306 = CARTESIAN_POINT('',(3.,55.5,171.));
#307 = CIRCLE('',#308,5.5);
#308 = AXIS2_PLACEMENT_3D('',#309,#310,#311);
#309 = CARTESIAN_POINT('',(3.,50.,171.));
#310 = DIRECTION('',(1.,0.,0.));
#311 = DIRECTION('',(0.,1.,0.));
#312 = FACE_BOUND('',#313,.T.);
#313 = EDGE_LOOP('',(#314));
#314 = ORIENTED_EDGE('',*,*,#315,.T.);
#315 = EDGE_CURVE('',#316,#316,#318,.T.);
#316 = VERTEX_POINT('',#317);
#317 = CARTESIAN_POINT('',(3.,25.5,120.));
#318 = CIRCLE('',#319,5.5);
#319 = AXIS2_PLACEMENT_3D('',#320,#321,#322);
#320 = CARTESIAN_POINT('',(3.,20.,120.));
#321 = DIRECTION('',(1.,0.,0.));
#322 = DIRECTION('',(0.,1.,0.));
#323 = FACE_BOUND('',#324,.T.);
#324 = EDGE_LOOP('',(#325));
#325 = ORIENTED_EDGE('',*,*,#326,.T.);
#326 = EDGE_CURVE('',#327,#327,#329,.T.);
#327 = VERTEX_POINT('',#328);
#328 = CARTESIAN_POINT('',(3.,55.5,120.));
#329 = CIRCLE('',#330,5.5);
#330 = AXIS2_PLACEMENT_3D('',#331,#332,#333);
#331 = CARTESIAN_POINT('',(3.,50.,120.));
#332 = DIRECTION('',(1.,0.,0.));
#333 = DIRECTION('',(0.,1.,0.));
#334 = FACE_BOUND('',#335,.T.);
#335 = EDGE_LOOP('',(#336));
#336 = ORIENTED_EDGE('',*,*,#337,.T.);
#337 = EDGE_CURVE('',#338,#338,#340,.T.);
#338 = VERTEX_POINT('',#339);
#339 = CARTESIAN_POINT('',(3.,25.5,70.));
#340 = CIRCLE('',#341,5.5);
#341 = AXIS2_PLACEMENT_3D('',#342,#343,#344);
#342 = CARTESIAN_POINT('',(3.,20.,70.));
#343 = DIRECTION('',(1.,0.,0.));
#344 = DIRECTION('',(0.,1.,0.));
#345 = FACE_BOUND('',#346,.T.);
#346 = EDGE_LOOP('',(#347));
#347 = ORIENTED_EDGE('',*,*,#348,.T.);
#348 = EDGE_CURVE('',#349,#349,#351,.T.);
#349 = VERTEX_POINT('',#350);
#350 = CARTESIAN_POINT('',(3.,55.5,70.));
#351 = CIRCLE('',#352,5.5);
#352 = AXIS2_PLACEMENT_3D('',#353,#354,#355);
#353 = CARTESIAN_POINT('',(3.,50.,70.));
#354 = DIRECTION('',(1.,0.,0.));
#355 = DIRECTION('',(0.,1.,0.));
#356 = PLANE('',#357);
#357 = AXIS2_PLACEMENT_3D('',#358,#359,#360);
#358 = CARTESIAN_POINT('',(3.,34.316386647441,146.86722670511));
#359 = DIRECTION('',(1.,0.,0.));
#360 = DIRECTION('',(0.,0.,1.));
#361 = ADVANCED_FACE('',(#362,#373,#384,#395,#406,#417,#428,#439,#450),
  #461,.T.);
#362 = FACE_BOUND('',#363,.T.);
#363 = EDGE_LOOP('',(#364,#365,#366,#372));
#364 = ORIENTED_EDGE('',*,*,#31,.T.);
#365 = ORIENTED_EDGE('',*,*,#141,.T.);
#366 = ORIENTED_EDGE('',*,*,#367,.T.);
#367 = EDGE_CURVE('',#134,#64,#368,.T.);
#368 = LINE('',#369,#370);
#369 = CARTESIAN_POINT('',(6.,3.,55.));
#370 = VECTOR('',#371,1.);
#371 = DIRECTION('',(0.,1.,0.));
#372 = ORIENTED_EDGE('',*,*,#71,.T.);
#373 = FACE_BOUND('',#374,.F.);
#374 = EDGE_LOOP('',(#375));
#375 = ORIENTED_EDGE('',*,*,#376,.T.);
#376 = EDGE_CURVE('',#377,#377,#379,.T.);
#377 = VERTEX_POINT('',#378);
#378 = CARTESIAN_POINT('',(6.,25.5,221.));
#379 = CIRCLE('',#380,5.5);
#380 = AXIS2_PLACEMENT_3D('',#381,#382,#383);
#381 = CARTESIAN_POINT('',(6.,20.,221.));
#382 = DIRECTION('',(1.,0.,0.));
#383 = DIRECTION('',(0.,1.,0.));
#384 = FACE_BOUND('',#385,.F.);
#385 = EDGE_LOOP('',(#386));
#386 = ORIENTED_EDGE('',*,*,#387,.T.);
#387 = EDGE_CURVE('',#388,#388,#390,.T.);
#388 = VERTEX_POINT('',#389);
#389 = CARTESIAN_POINT('',(6.,55.5,221.));
#390 = CIRCLE('',#391,5.5);
#391 = AXIS2_PLACEMENT_3D('',#392,#393,#394);
#392 = CARTESIAN_POINT('',(6.,50.,221.));
#393 = DIRECTION('',(1.,0.,0.));
#394 = DIRECTION('',(0.,1.,0.));
#395 = FACE_BOUND('',#396,.F.);
#396 = EDGE_LOOP('',(#397));
#397 = ORIENTED_EDGE('',*,*,#398,.T.);
#398 = EDGE_CURVE('',#399,#399,#401,.T.);
#399 = VERTEX_POINT('',#400);
#400 = CARTESIAN_POINT('',(6.,25.5,171.));
#401 = CIRCLE('',#402,5.5);
#402 = AXIS2_PLACEMENT_3D('',#403,#404,#405);
#403 = CARTESIAN_POINT('',(6.,20.,171.));
#404 = DIRECTION('',(1.,0.,0.));
#405 = DIRECTION('',(0.,1.,0.));
#406 = FACE_BOUND('',#407,.F.);
#407 = EDGE_LOOP('',(#408));
#408 = ORIENTED_EDGE('',*,*,#409,.T.);
#409 = EDGE_CURVE('',#410,#410,#412,.T.);
#410 = VERTEX_POINT('',#411);
#411 = CARTESIAN_POINT('',(6.,55.5,171.));
#412 = CIRCLE('',#413,5.5);
#413 = AXIS2_PLACEMENT_3D('',#414,#415,#416);
#414 = CARTESIAN_POINT('',(6.,50.,171.));
#415 = DIRECTION('',(1.,0.,0.));
#416 = DIRECTION('',(0.,1.,0.));
#417 = FACE_BOUND('',#418,.F.);
#418 = EDGE_LOOP('',(#419));
#419 = ORIENTED_EDGE('',*,*,#420,.T.);
#420 = EDGE_CURVE('',#421,#421,#423,.T.);
#421 = VERTEX_POINT('',#422);
#422 = CARTESIAN_POINT('',(6.,25.5,120.));
#423 = CIRCLE('',#424,5.5);
#424 = AXIS2_PLACEMENT_3D('',#425,#426,#427);
#425 = CARTESIAN_POINT('',(6.,20.,120.));
#426 = DIRECTION('',(1.,0.,0.));
#427 = DIRECTION('',(0.,1.,0.));
#428 = FACE_BOUND('',#429,.F.);
#429 = EDGE_LOOP('',(#430));
#430 = ORIENTED_EDGE('',*,*,#431,.T.);
#431 = EDGE_CURVE('',#432,#432,#434,.T.);
#432 = VERTEX_POINT('',#433);
#433 = CARTESIAN_POINT('',(6.,55.5,120.));
#434 = CIRCLE('',#435,5.5);
#435 = AXIS2_PLACEMENT_3D('',#436,#437,#438);
#436 = CARTESIAN_POINT('',(6.,50.,120.));
#437 = DIRECTION('',(1.,0.,0.));
#438 = DIRECTION('',(0.,1.,0.));
#439 = FACE_BOUND('',#440,.F.);
#440 = EDGE_LOOP('',(#441));
#441 = ORIENTED_EDGE('',*,*,#442,.T.);
#442 = EDGE_CURVE('',#443,#443,#445,.T.);
#443 = VERTEX_POINT('',#444);
#444 = CARTESIAN_POINT('',(6.,25.5,70.));
#445 = CIRCLE('',#446,5.5);
#446 = AXIS2_PLACEMENT_3D('',#447,#448,#449);
#447 = CARTESIAN_POINT('',(6.,20.,70.));
#448 = DIRECTION('',(1.,0.,0.));
#449 = DIRECTION('',(0.,1.,0.));
#450 = FACE_BOUND('',#451,.F.);
#451 = EDGE_LOOP('',(#452));
#452 = ORIENTED_EDGE('',*,*,#453,.T.);
#453 = EDGE_CURVE('',#454,#454,#456,.T.);
#454 = VERTEX_POINT('',#455);
#455 = CARTESIAN_POINT('',(6.,55.5,70.));
#456 = CIRCLE('',#457,5.5);
#457 = AXIS2_PLACEMENT_3D('',#458,#459,#460);
#458 = CARTESIAN_POINT('',(6.,50.,70.));
#459 = DIRECTION('',(1.,0.,0.));
#460 = DIRECTION('',(0.,1.,0.));
#461 = PLANE('',#462);
#462 = AXIS2_PLACEMENT_3D('',#463,#464,#465);
#463 = CARTESIAN_POINT('',(6.,34.316386647441,146.86722670511));
#464 = DIRECTION('',(1.,0.,0.));
#465 = DIRECTION('',(0.,0.,1.));
#466 = ADVANCED_FACE('',(#467),#473,.F.);
#467 = FACE_BOUND('',#468,.F.);
#468 = EDGE_LOOP('',(#469,#470,#471,#472));
#469 = ORIENTED_EDGE('',*,*,#133,.T.);
#470 = ORIENTED_EDGE('',*,*,#367,.T.);
#471 = ORIENTED_EDGE('',*,*,#61,.F.);
#472 = ORIENTED_EDGE('',*,*,#262,.F.);
#473 = PLANE('',#474);
#474 = AXIS2_PLACEMENT_3D('',#475,#476,#477);
#475 = CARTESIAN_POINT('',(3.,3.,55.));
#476 = DIRECTION('',(0.,0.,1.));
#477 = DIRECTION('',(0.,1.,0.));
#478 = ADVANCED_FACE('',(#479),#508,.T.);
#479 = FACE_BOUND('',#480,.F.);
#480 = EDGE_LOOP('',(#481,#482,#483,#484,#493,#501));
#481 = ORIENTED_EDGE('',*,*,#125,.T.);
#482 = ORIENTED_EDGE('',*,*,#256,.F.);
#483 = ORIENTED_EDGE('',*,*,#93,.T.);
#484 = ORIENTED_EDGE('',*,*,#485,.T.);
#485 = EDGE_CURVE('',#94,#486,#488,.T.);
#486 = VERTEX_POINT('',#487);
#487 = CARTESIAN_POINT('',(6.000000029423,0.,262.));
#488 = CIRCLE('',#489,3.);
#489 = AXIS2_PLACEMENT_3D('',#490,#491,#492);
#490 = CARTESIAN_POINT('',(6.,3.,262.));
#491 = DIRECTION('',(0.,0.,1.));
#492 = DIRECTION('',(1.,0.,0.));
#493 = ORIENTED_EDGE('',*,*,#494,.F.);
#494 = EDGE_CURVE('',#495,#486,#497,.T.);
#495 = VERTEX_POINT('',#496);
#496 = CARTESIAN_POINT('',(6.000000029423,0.,29.));
#497 = LINE('',#498,#499);
#498 = CARTESIAN_POINT('',(6.,0.,29.));
#499 = VECTOR('',#500,1.);
#500 = DIRECTION('',(0.,0.,1.));
#501 = ORIENTED_EDGE('',*,*,#502,.F.);
#502 = EDGE_CURVE('',#118,#495,#503,.T.);
#503 = CIRCLE('',#504,3.);
#504 = AXIS2_PLACEMENT_3D('',#505,#506,#507);
#505 = CARTESIAN_POINT('',(6.,3.,29.));
#506 = DIRECTION('',(0.,0.,1.));
#507 = DIRECTION('',(1.,0.,0.));
#508 = CYLINDRICAL_SURFACE('',#509,3.);
#509 = AXIS2_PLACEMENT_3D('',#510,#511,#512);
#510 = CARTESIAN_POINT('',(6.,3.,29.));
#511 = DIRECTION('',(-0.,-0.,-1.));
#512 = DIRECTION('',(1.,0.,0.));
#513 = ADVANCED_FACE('',(#514),#532,.T.);
#514 = FACE_BOUND('',#515,.T.);
#515 = EDGE_LOOP('',(#516,#517,#518,#526));
#516 = ORIENTED_EDGE('',*,*,#101,.T.);
#517 = ORIENTED_EDGE('',*,*,#485,.T.);
#518 = ORIENTED_EDGE('',*,*,#519,.T.);
#519 = EDGE_CURVE('',#486,#520,#522,.T.);
#520 = VERTEX_POINT('',#521);
#521 = CARTESIAN_POINT('',(34.,0.,262.));
#522 = LINE('',#523,#524);
#523 = CARTESIAN_POINT('',(6.,0.,262.));
#524 = VECTOR('',#525,1.);
#525 = DIRECTION('',(1.,0.,0.));
#526 = ORIENTED_EDGE('',*,*,#527,.F.);
#527 = EDGE_CURVE('',#102,#520,#528,.T.);
#528 = LINE('',#529,#530);
#529 = CARTESIAN_POINT('',(34.,2.999999,262.));
#530 = VECTOR('',#531,1.);
#531 = DIRECTION('',(0.,-1.,0.));
#532 = PLANE('',#533);
#533 = AXIS2_PLACEMENT_3D('',#534,#535,#536);
#534 = CARTESIAN_POINT('',(18.823624187956,1.541926197452,262.));
#535 = DIRECTION('',(0.,0.,1.));
#536 = DIRECTION('',(1.,0.,0.));
#537 = ADVANCED_FACE('',(#538),#556,.T.);
#538 = FACE_BOUND('',#539,.T.);
#539 = EDGE_LOOP('',(#540,#541,#542,#550));
#540 = ORIENTED_EDGE('',*,*,#109,.T.);
#541 = ORIENTED_EDGE('',*,*,#527,.T.);
#542 = ORIENTED_EDGE('',*,*,#543,.F.);
#543 = EDGE_CURVE('',#544,#520,#546,.T.);
#544 = VERTEX_POINT('',#545);
#545 = CARTESIAN_POINT('',(34.,0.,29.));
#546 = LINE('',#547,#548);
#547 = CARTESIAN_POINT('',(34.,0.,29.));
#548 = VECTOR('',#549,1.);
#549 = DIRECTION('',(0.,0.,1.));
#550 = ORIENTED_EDGE('',*,*,#551,.F.);
#551 = EDGE_CURVE('',#110,#544,#552,.T.);
#552 = LINE('',#553,#554);
#553 = CARTESIAN_POINT('',(34.,2.999999,29.));
#554 = VECTOR('',#555,1.);
#555 = DIRECTION('',(0.,-1.,0.));
#556 = PLANE('',#557);
#557 = AXIS2_PLACEMENT_3D('',#558,#559,#560);
#558 = CARTESIAN_POINT('',(34.,2.999999,29.));
#559 = DIRECTION('',(1.,0.,0.));
#560 = DIRECTION('',(0.,-1.,0.));
#561 = ADVANCED_FACE('',(#562),#573,.T.);
#562 = FACE_BOUND('',#563,.T.);
#563 = EDGE_LOOP('',(#564,#565,#566,#572));
#564 = ORIENTED_EDGE('',*,*,#117,.F.);
#565 = ORIENTED_EDGE('',*,*,#551,.T.);
#566 = ORIENTED_EDGE('',*,*,#567,.F.);
#567 = EDGE_CURVE('',#495,#544,#568,.T.);
#568 = LINE('',#569,#570);
#569 = CARTESIAN_POINT('',(6.,0.,29.));
#570 = VECTOR('',#571,1.);
#571 = DIRECTION('',(1.,0.,0.));
#572 = ORIENTED_EDGE('',*,*,#502,.F.);
#573 = PLANE('',#574);
#574 = AXIS2_PLACEMENT_3D('',#575,#576,#577);
#575 = CARTESIAN_POINT('',(18.823624187956,1.541926197452,29.));
#576 = DIRECTION('',(-0.,-0.,-1.));
#577 = DIRECTION('',(-1.,0.,0.));
#578 = ADVANCED_FACE('',(#579),#604,.F.);
#579 = FACE_BOUND('',#580,.F.);
#580 = EDGE_LOOP('',(#581,#591,#597,#598));
#581 = ORIENTED_EDGE('',*,*,#582,.F.);
#582 = EDGE_CURVE('',#583,#585,#587,.T.);
#583 = VERTEX_POINT('',#584);
#584 = CARTESIAN_POINT('',(27.928203,4.3E-14,191.999999));
#585 = VERTEX_POINT('',#586);
#586 = CARTESIAN_POINT('',(27.92820357735,4.4E-14,199.999999));
#587 = LINE('',#588,#589);
#588 = CARTESIAN_POINT('',(27.928203,0.,191.999999));
#589 = VECTOR('',#590,1.);
#590 = DIRECTION('',(7.216877851E-08,0.,1.));
#591 = ORIENTED_EDGE('',*,*,#592,.T.);
#592 = EDGE_CURVE('',#583,#152,#593,.T.);
#593 = LINE('',#594,#595);
#594 = CARTESIAN_POINT('',(27.928203,4.263E-14,191.999999));
#595 = VECTOR('',#596,1.);
#596 = DIRECTION('',(0.,1.,-2.2E-16));
#597 = ORIENTED_EDGE('',*,*,#149,.F.);
#598 = ORIENTED_EDGE('',*,*,#599,.F.);
#599 = EDGE_CURVE('',#585,#150,#600,.T.);
#600 = LINE('',#601,#602);
#601 = CARTESIAN_POINT('',(27.92820357735,4.441E-14,199.999999));
#602 = VECTOR('',#603,1.);
#603 = DIRECTION('',(0.,1.,-2.2E-16));
#604 = PLANE('',#605);
#605 = AXIS2_PLACEMENT_3D('',#606,#607,#608);
#606 = CARTESIAN_POINT('',(27.928203,4.263E-14,191.999999));
#607 = DIRECTION('',(1.,-0.,-7.216877851E-08));
#608 = DIRECTION('',(7.216877851E-08,2.2E-16,1.));
#609 = ADVANCED_FACE('',(#610),#628,.F.);
#610 = FACE_BOUND('',#611,.F.);
#611 = EDGE_LOOP('',(#612,#620,#626,#627));
#612 = ORIENTED_EDGE('',*,*,#613,.F.);
#613 = EDGE_CURVE('',#614,#583,#616,.T.);
#614 = VERTEX_POINT('',#615);
#615 = CARTESIAN_POINT('',(20.999999481049,4.2E-14,187.9999995));
#616 = LINE('',#617,#618);
#617 = CARTESIAN_POINT('',(20.999999481049,0.,187.9999995));
#618 = VECTOR('',#619,1.);
#619 = DIRECTION('',(0.866025439869,0.,0.4999999375));
#620 = ORIENTED_EDGE('',*,*,#621,.T.);
#621 = EDGE_CURVE('',#614,#184,#622,.T.);
#622 = LINE('',#623,#624);
#623 = CARTESIAN_POINT('',(20.999999481049,4.174E-14,187.9999995));
#624 = VECTOR('',#625,1.);
#625 = DIRECTION('',(0.,1.,-2.2E-16));
#626 = ORIENTED_EDGE('',*,*,#191,.F.);
#627 = ORIENTED_EDGE('',*,*,#592,.F.);
#628 = PLANE('',#629);
#629 = AXIS2_PLACEMENT_3D('',#630,#631,#632);
#630 = CARTESIAN_POINT('',(20.999999481049,4.174E-14,187.9999995));
#631 = DIRECTION('',(0.4999999375,-1.9E-16,-0.866025439869));
#632 = DIRECTION('',(0.866025439869,1.1E-16,0.4999999375));
#633 = ADVANCED_FACE('',(#634),#652,.F.);
#634 = FACE_BOUND('',#635,.F.);
#635 = EDGE_LOOP('',(#636,#644,#650,#651));
#636 = ORIENTED_EDGE('',*,*,#637,.F.);
#637 = EDGE_CURVE('',#638,#614,#640,.T.);
#638 = VERTEX_POINT('',#639);
#639 = CARTESIAN_POINT('',(14.071796539449,4.3E-14,192.));
#640 = LINE('',#641,#642);
#641 = CARTESIAN_POINT('',(14.071796539449,0.,192.));
#642 = VECTOR('',#643,1.);
#643 = DIRECTION('',(0.8660253677,0.,-0.5000000625));
#644 = ORIENTED_EDGE('',*,*,#645,.T.);
#645 = EDGE_CURVE('',#638,#176,#646,.T.);
#646 = LINE('',#647,#648);
#647 = CARTESIAN_POINT('',(14.071796539449,4.263E-14,192.));
#648 = VECTOR('',#649,1.);
#649 = DIRECTION('',(0.,1.,-2.2E-16));
#650 = ORIENTED_EDGE('',*,*,#183,.F.);
#651 = ORIENTED_EDGE('',*,*,#621,.F.);
#652 = PLANE('',#653);
#653 = AXIS2_PLACEMENT_3D('',#654,#655,#656);
#654 = CARTESIAN_POINT('',(14.071796539449,4.263E-14,192.));
#655 = DIRECTION('',(-0.5000000625,-1.9E-16,-0.8660253677));
#656 = DIRECTION('',(0.8660253677,-1.1E-16,-0.5000000625));
#657 = ADVANCED_FACE('',(#658),#676,.F.);
#658 = FACE_BOUND('',#659,.F.);
#659 = EDGE_LOOP('',(#660,#668,#674,#675));
#660 = ORIENTED_EDGE('',*,*,#661,.F.);
#661 = EDGE_CURVE('',#662,#638,#664,.T.);
#662 = VERTEX_POINT('',#663);
#663 = CARTESIAN_POINT('',(14.071797116799,4.4E-14,200.));
#664 = LINE('',#665,#666);
#665 = CARTESIAN_POINT('',(14.071797116799,0.,200.));
#666 = VECTOR('',#667,1.);
#667 = DIRECTION('',(-7.216877984E-08,-0.,-1.));
#668 = ORIENTED_EDGE('',*,*,#669,.T.);
#669 = EDGE_CURVE('',#662,#168,#670,.T.);
#670 = LINE('',#671,#672);
#671 = CARTESIAN_POINT('',(14.071797116799,4.441E-14,200.));
#672 = VECTOR('',#673,1.);
#673 = DIRECTION('',(0.,1.,-2.2E-16));
#674 = ORIENTED_EDGE('',*,*,#175,.F.);
#675 = ORIENTED_EDGE('',*,*,#645,.F.);
#676 = PLANE('',#677);
#677 = AXIS2_PLACEMENT_3D('',#678,#679,#680);
#678 = CARTESIAN_POINT('',(14.071797116799,4.441E-14,200.));
#679 = DIRECTION('',(-1.,0.,7.216877984E-08));
#680 = DIRECTION('',(-7.216877984E-08,-2.2E-16,-1.));
#681 = ADVANCED_FACE('',(#682),#700,.F.);
#682 = FACE_BOUND('',#683,.F.);
#683 = EDGE_LOOP('',(#684,#692,#698,#699));
#684 = ORIENTED_EDGE('',*,*,#685,.F.);
#685 = EDGE_CURVE('',#686,#662,#688,.T.);
#686 = VERTEX_POINT('',#687);
#687 = CARTESIAN_POINT('',(21.00000063575,4.5E-14,203.9999995));
#688 = LINE('',#689,#690);
#689 = CARTESIAN_POINT('',(21.00000063575,0.,203.9999995));
#690 = VECTOR('',#691,1.);
#691 = DIRECTION('',(-0.866025439869,-0.,-0.4999999375));
#692 = ORIENTED_EDGE('',*,*,#693,.T.);
#693 = EDGE_CURVE('',#686,#160,#694,.T.);
#694 = LINE('',#695,#696);
#695 = CARTESIAN_POINT('',(21.00000063575,4.53E-14,203.9999995));
#696 = VECTOR('',#697,1.);
#697 = DIRECTION('',(0.,1.,-2.2E-16));
#698 = ORIENTED_EDGE('',*,*,#167,.F.);
#699 = ORIENTED_EDGE('',*,*,#669,.F.);
#700 = PLANE('',#701);
#701 = AXIS2_PLACEMENT_3D('',#702,#703,#704);
#702 = CARTESIAN_POINT('',(21.00000063575,4.53E-14,203.9999995));
#703 = DIRECTION('',(-0.4999999375,1.9E-16,0.866025439869));
#704 = DIRECTION('',(-0.866025439869,-1.1E-16,-0.4999999375));
#705 = ADVANCED_FACE('',(#706),#717,.F.);
#706 = FACE_BOUND('',#707,.F.);
#707 = EDGE_LOOP('',(#708,#714,#715,#716));
#708 = ORIENTED_EDGE('',*,*,#709,.F.);
#709 = EDGE_CURVE('',#585,#686,#710,.T.);
#710 = LINE('',#711,#712);
#711 = CARTESIAN_POINT('',(27.92820357735,0.,199.999999));
#712 = VECTOR('',#713,1.);
#713 = DIRECTION('',(-0.8660253677,0.,0.5000000625));
#714 = ORIENTED_EDGE('',*,*,#599,.T.);
#715 = ORIENTED_EDGE('',*,*,#159,.F.);
#716 = ORIENTED_EDGE('',*,*,#693,.F.);
#717 = PLANE('',#718);
#718 = AXIS2_PLACEMENT_3D('',#719,#720,#721);
#719 = CARTESIAN_POINT('',(27.92820357735,4.441E-14,199.999999));
#720 = DIRECTION('',(0.5000000625,1.9E-16,0.8660253677));
#721 = DIRECTION('',(-0.8660253677,1.1E-16,0.5000000625));
#722 = ADVANCED_FACE('',(#723),#748,.F.);
#723 = FACE_BOUND('',#724,.F.);
#724 = EDGE_LOOP('',(#725,#735,#741,#742));
#725 = ORIENTED_EDGE('',*,*,#726,.F.);
#726 = EDGE_CURVE('',#727,#729,#731,.T.);
#727 = VERTEX_POINT('',#728);
#728 = CARTESIAN_POINT('',(27.928203460551,2.E-14,90.999999));
#729 = VERTEX_POINT('',#730);
#730 = CARTESIAN_POINT('',(27.928204037901,2.2E-14,98.999999));
#731 = LINE('',#732,#733);
#732 = CARTESIAN_POINT('',(27.928203460551,0.,90.999999));
#733 = VECTOR('',#734,1.);
#734 = DIRECTION('',(7.216878428E-08,0.,1.));
#735 = ORIENTED_EDGE('',*,*,#736,.T.);
#736 = EDGE_CURVE('',#727,#202,#737,.T.);
#737 = LINE('',#738,#739);
#738 = CARTESIAN_POINT('',(27.928203460551,2.021E-14,90.999999));
#739 = VECTOR('',#740,1.);
#740 = DIRECTION('',(0.,1.,-2.2E-16));
#741 = ORIENTED_EDGE('',*,*,#199,.F.);
#742 = ORIENTED_EDGE('',*,*,#743,.F.);
#743 = EDGE_CURVE('',#729,#200,#744,.T.);
#744 = LINE('',#745,#746);
#745 = CARTESIAN_POINT('',(27.928204037901,2.198E-14,98.999999));
#746 = VECTOR('',#747,1.);
#747 = DIRECTION('',(0.,1.,-2.2E-16));
#748 = PLANE('',#749);
#749 = AXIS2_PLACEMENT_3D('',#750,#751,#752);
#750 = CARTESIAN_POINT('',(27.928203460551,2.021E-14,90.999999));
#751 = DIRECTION('',(1.,-0.,-7.216878428E-08));
#752 = DIRECTION('',(7.216878428E-08,2.2E-16,1.));
#753 = ADVANCED_FACE('',(#754),#772,.F.);
#754 = FACE_BOUND('',#755,.F.);
#755 = EDGE_LOOP('',(#756,#764,#770,#771));
#756 = ORIENTED_EDGE('',*,*,#757,.F.);
#757 = EDGE_CURVE('',#758,#727,#760,.T.);
#758 = VERTEX_POINT('',#759);
#759 = CARTESIAN_POINT('',(20.9999999416,1.9E-14,86.9999995));
#760 = LINE('',#761,#762);
#761 = CARTESIAN_POINT('',(20.9999999416,0.,86.9999995));
#762 = VECTOR('',#763,1.);
#763 = DIRECTION('',(0.866025439869,0.,0.4999999375));
#764 = ORIENTED_EDGE('',*,*,#765,.T.);
#765 = EDGE_CURVE('',#758,#234,#766,.T.);
#766 = LINE('',#767,#768);
#767 = CARTESIAN_POINT('',(20.9999999416,1.932E-14,86.9999995));
#768 = VECTOR('',#769,1.);
#769 = DIRECTION('',(0.,1.,-2.2E-16));
#770 = ORIENTED_EDGE('',*,*,#241,.F.);
#771 = ORIENTED_EDGE('',*,*,#736,.F.);
#772 = PLANE('',#773);
#773 = AXIS2_PLACEMENT_3D('',#774,#775,#776);
#774 = CARTESIAN_POINT('',(20.9999999416,1.932E-14,86.9999995));
#775 = DIRECTION('',(0.4999999375,-1.9E-16,-0.866025439869));
#776 = DIRECTION('',(0.866025439869,1.1E-16,0.4999999375));
#777 = ADVANCED_FACE('',(#778),#796,.F.);
#778 = FACE_BOUND('',#779,.F.);
#779 = EDGE_LOOP('',(#780,#788,#794,#795));
#780 = ORIENTED_EDGE('',*,*,#781,.F.);
#781 = EDGE_CURVE('',#782,#758,#784,.T.);
#782 = VERTEX_POINT('',#783);
#783 = CARTESIAN_POINT('',(14.071797,2.E-14,91.));
#784 = LINE('',#785,#786);
#785 = CARTESIAN_POINT('',(14.071797,0.,91.));
#786 = VECTOR('',#787,1.);
#787 = DIRECTION('',(0.8660253677,0.,-0.5000000625));
#788 = ORIENTED_EDGE('',*,*,#789,.T.);
#789 = EDGE_CURVE('',#782,#226,#790,.T.);
#790 = LINE('',#791,#792);
#791 = CARTESIAN_POINT('',(14.071797,2.021E-14,91.));
#792 = VECTOR('',#793,1.);
#793 = DIRECTION('',(0.,1.,-2.2E-16));
#794 = ORIENTED_EDGE('',*,*,#233,.F.);
#795 = ORIENTED_EDGE('',*,*,#765,.F.);
#796 = PLANE('',#797);
#797 = AXIS2_PLACEMENT_3D('',#798,#799,#800);
#798 = CARTESIAN_POINT('',(14.071797,2.021E-14,91.));
#799 = DIRECTION('',(-0.5000000625,-1.9E-16,-0.8660253677));
#800 = DIRECTION('',(0.8660253677,-1.1E-16,-0.5000000625));
#801 = ADVANCED_FACE('',(#802),#820,.F.);
#802 = FACE_BOUND('',#803,.F.);
#803 = EDGE_LOOP('',(#804,#812,#818,#819));
#804 = ORIENTED_EDGE('',*,*,#805,.F.);
#805 = EDGE_CURVE('',#806,#782,#808,.T.);
#806 = VERTEX_POINT('',#807);
#807 = CARTESIAN_POINT('',(14.07179757735,2.2E-14,99.));
#808 = LINE('',#809,#810);
#809 = CARTESIAN_POINT('',(14.07179757735,0.,99.));
#810 = VECTOR('',#811,1.);
#811 = DIRECTION('',(-7.216878406E-08,-0.,-1.));
#812 = ORIENTED_EDGE('',*,*,#813,.T.);
#813 = EDGE_CURVE('',#806,#218,#814,.T.);
#814 = LINE('',#815,#816);
#815 = CARTESIAN_POINT('',(14.07179757735,2.198E-14,99.));
#816 = VECTOR('',#817,1.);
#817 = DIRECTION('',(0.,1.,-2.2E-16));
#818 = ORIENTED_EDGE('',*,*,#225,.F.);
#819 = ORIENTED_EDGE('',*,*,#789,.F.);
#820 = PLANE('',#821);
#821 = AXIS2_PLACEMENT_3D('',#822,#823,#824);
#822 = CARTESIAN_POINT('',(14.07179757735,2.198E-14,99.));
#823 = DIRECTION('',(-1.,0.,7.216878406E-08));
#824 = DIRECTION('',(-7.216878406E-08,-2.2E-16,-1.));
#825 = ADVANCED_FACE('',(#826),#844,.F.);
#826 = FACE_BOUND('',#827,.F.);
#827 = EDGE_LOOP('',(#828,#836,#842,#843));
#828 = ORIENTED_EDGE('',*,*,#829,.F.);
#829 = EDGE_CURVE('',#830,#806,#832,.T.);
#830 = VERTEX_POINT('',#831);
#831 = CARTESIAN_POINT('',(21.000001096301,2.3E-14,102.9999995));
#832 = LINE('',#833,#834);
#833 = CARTESIAN_POINT('',(21.000001096301,0.,102.9999995));
#834 = VECTOR('',#835,1.);
#835 = DIRECTION('',(-0.866025439869,-0.,-0.4999999375));
#836 = ORIENTED_EDGE('',*,*,#837,.T.);
#837 = EDGE_CURVE('',#830,#210,#838,.T.);
#838 = LINE('',#839,#840);
#839 = CARTESIAN_POINT('',(21.000001096301,2.287E-14,102.9999995));
#840 = VECTOR('',#841,1.);
#841 = DIRECTION('',(0.,1.,-2.2E-16));
#842 = ORIENTED_EDGE('',*,*,#217,.F.);
#843 = ORIENTED_EDGE('',*,*,#813,.F.);
#844 = PLANE('',#845);
#845 = AXIS2_PLACEMENT_3D('',#846,#847,#848);
#846 = CARTESIAN_POINT('',(21.000001096301,2.287E-14,102.9999995));
#847 = DIRECTION('',(-0.4999999375,1.9E-16,0.866025439869));
#848 = DIRECTION('',(-0.866025439869,-1.1E-16,-0.4999999375));
#849 = ADVANCED_FACE('',(#850),#861,.F.);
#850 = FACE_BOUND('',#851,.F.);
#851 = EDGE_LOOP('',(#852,#858,#859,#860));
#852 = ORIENTED_EDGE('',*,*,#853,.F.);
#853 = EDGE_CURVE('',#729,#830,#854,.T.);
#854 = LINE('',#855,#856);
#855 = CARTESIAN_POINT('',(27.928204037901,0.,98.999999));
#856 = VECTOR('',#857,1.);
#857 = DIRECTION('',(-0.8660253677,0.,0.5000000625));
#858 = ORIENTED_EDGE('',*,*,#743,.T.);
#859 = ORIENTED_EDGE('',*,*,#209,.F.);
#860 = ORIENTED_EDGE('',*,*,#837,.F.);
#861 = PLANE('',#862);
#862 = AXIS2_PLACEMENT_3D('',#863,#864,#865);
#863 = CARTESIAN_POINT('',(27.928204037901,2.198E-14,98.999999));
#864 = DIRECTION('',(0.5000000625,1.9E-16,0.8660253677));
#865 = DIRECTION('',(-0.8660253677,1.1E-16,0.5000000625));
#866 = ADVANCED_FACE('',(#867),#878,.F.);
#867 = FACE_BOUND('',#868,.T.);
#868 = EDGE_LOOP('',(#869,#875,#876,#877));
#869 = ORIENTED_EDGE('',*,*,#870,.T.);
#870 = EDGE_CURVE('',#272,#377,#871,.T.);
#871 = LINE('',#872,#873);
#872 = CARTESIAN_POINT('',(3.,25.5,221.));
#873 = VECTOR('',#874,1.);
#874 = DIRECTION('',(1.,0.,0.));
#875 = ORIENTED_EDGE('',*,*,#376,.T.);
#876 = ORIENTED_EDGE('',*,*,#870,.F.);
#877 = ORIENTED_EDGE('',*,*,#271,.F.);
#878 = CYLINDRICAL_SURFACE('',#879,5.5);
#879 = AXIS2_PLACEMENT_3D('',#880,#881,#882);
#880 = CARTESIAN_POINT('',(3.,20.,221.));
#881 = DIRECTION('',(-1.,-0.,-0.));
#882 = DIRECTION('',(0.,1.,0.));
#883 = ADVANCED_FACE('',(#884),#895,.F.);
#884 = FACE_BOUND('',#885,.T.);
#885 = EDGE_LOOP('',(#886,#892,#893,#894));
#886 = ORIENTED_EDGE('',*,*,#887,.T.);
#887 = EDGE_CURVE('',#283,#388,#888,.T.);
#888 = LINE('',#889,#890);
#889 = CARTESIAN_POINT('',(3.,55.5,221.));
#890 = VECTOR('',#891,1.);
#891 = DIRECTION('',(1.,0.,0.));
#892 = ORIENTED_EDGE('',*,*,#387,.T.);
#893 = ORIENTED_EDGE('',*,*,#887,.F.);
#894 = ORIENTED_EDGE('',*,*,#282,.F.);
#895 = CYLINDRICAL_SURFACE('',#896,5.5);
#896 = AXIS2_PLACEMENT_3D('',#897,#898,#899);
#897 = CARTESIAN_POINT('',(3.,50.,221.));
#898 = DIRECTION('',(-1.,-0.,-0.));
#899 = DIRECTION('',(0.,1.,0.));
#900 = ADVANCED_FACE('',(#901),#912,.F.);
#901 = FACE_BOUND('',#902,.T.);
#902 = EDGE_LOOP('',(#903,#909,#910,#911));
#903 = ORIENTED_EDGE('',*,*,#904,.T.);
#904 = EDGE_CURVE('',#294,#399,#905,.T.);
#905 = LINE('',#906,#907);
#906 = CARTESIAN_POINT('',(3.,25.5,171.));
#907 = VECTOR('',#908,1.);
#908 = DIRECTION('',(1.,0.,0.));
#909 = ORIENTED_EDGE('',*,*,#398,.T.);
#910 = ORIENTED_EDGE('',*,*,#904,.F.);
#911 = ORIENTED_EDGE('',*,*,#293,.F.);
#912 = CYLINDRICAL_SURFACE('',#913,5.5);
#913 = AXIS2_PLACEMENT_3D('',#914,#915,#916);
#914 = CARTESIAN_POINT('',(3.,20.,171.));
#915 = DIRECTION('',(-1.,-0.,-0.));
#916 = DIRECTION('',(0.,1.,0.));
#917 = ADVANCED_FACE('',(#918),#929,.F.);
#918 = FACE_BOUND('',#919,.T.);
#919 = EDGE_LOOP('',(#920,#926,#927,#928));
#920 = ORIENTED_EDGE('',*,*,#921,.T.);
#921 = EDGE_CURVE('',#305,#410,#922,.T.);
#922 = LINE('',#923,#924);
#923 = CARTESIAN_POINT('',(3.,55.5,171.));
#924 = VECTOR('',#925,1.);
#925 = DIRECTION('',(1.,0.,0.));
#926 = ORIENTED_EDGE('',*,*,#409,.T.);
#927 = ORIENTED_EDGE('',*,*,#921,.F.);
#928 = ORIENTED_EDGE('',*,*,#304,.F.);
#929 = CYLINDRICAL_SURFACE('',#930,5.5);
#930 = AXIS2_PLACEMENT_3D('',#931,#932,#933);
#931 = CARTESIAN_POINT('',(3.,50.,171.));
#932 = DIRECTION('',(-1.,-0.,-0.));
#933 = DIRECTION('',(0.,1.,0.));
#934 = ADVANCED_FACE('',(#935),#946,.F.);
#935 = FACE_BOUND('',#936,.T.);
#936 = EDGE_LOOP('',(#937,#943,#944,#945));
#937 = ORIENTED_EDGE('',*,*,#938,.T.);
#938 = EDGE_CURVE('',#316,#421,#939,.T.);
#939 = LINE('',#940,#941);
#940 = CARTESIAN_POINT('',(3.,25.5,120.));
#941 = VECTOR('',#942,1.);
#942 = DIRECTION('',(1.,0.,0.));
#943 = ORIENTED_EDGE('',*,*,#420,.T.);
#944 = ORIENTED_EDGE('',*,*,#938,.F.);
#945 = ORIENTED_EDGE('',*,*,#315,.F.);
#946 = CYLINDRICAL_SURFACE('',#947,5.5);
#947 = AXIS2_PLACEMENT_3D('',#948,#949,#950);
#948 = CARTESIAN_POINT('',(3.,20.,120.));
#949 = DIRECTION('',(-1.,-0.,-0.));
#950 = DIRECTION('',(0.,1.,0.));
#951 = ADVANCED_FACE('',(#952),#963,.F.);
#952 = FACE_BOUND('',#953,.T.);
#953 = EDGE_LOOP('',(#954,#960,#961,#962));
#954 = ORIENTED_EDGE('',*,*,#955,.T.);
#955 = EDGE_CURVE('',#327,#432,#956,.T.);
#956 = LINE('',#957,#958);
#957 = CARTESIAN_POINT('',(3.,55.5,120.));
#958 = VECTOR('',#959,1.);
#959 = DIRECTION('',(1.,0.,0.));
#960 = ORIENTED_EDGE('',*,*,#431,.T.);
#961 = ORIENTED_EDGE('',*,*,#955,.F.);
#962 = ORIENTED_EDGE('',*,*,#326,.F.);
#963 = CYLINDRICAL_SURFACE('',#964,5.5);
#964 = AXIS2_PLACEMENT_3D('',#965,#966,#967);
#965 = CARTESIAN_POINT('',(3.,50.,120.));
#966 = DIRECTION('',(-1.,-0.,-0.));
#967 = DIRECTION('',(0.,1.,0.));
#968 = ADVANCED_FACE('',(#969),#980,.F.);
#969 = FACE_BOUND('',#970,.T.);
#970 = EDGE_LOOP('',(#971,#977,#978,#979));
#971 = ORIENTED_EDGE('',*,*,#972,.T.);
#972 = EDGE_CURVE('',#338,#443,#973,.T.);
#973 = LINE('',#974,#975);
#974 = CARTESIAN_POINT('',(3.,25.5,70.));
#975 = VECTOR('',#976,1.);
#976 = DIRECTION('',(1.,0.,0.));
#977 = ORIENTED_EDGE('',*,*,#442,.T.);
#978 = ORIENTED_EDGE('',*,*,#972,.F.);
#979 = ORIENTED_EDGE('',*,*,#337,.F.);
#980 = CYLINDRICAL_SURFACE('',#981,5.5);
#981 = AXIS2_PLACEMENT_3D('',#982,#983,#984);
#982 = CARTESIAN_POINT('',(3.,20.,70.));
#983 = DIRECTION('',(-1.,-0.,-0.));
#984 = DIRECTION('',(0.,1.,0.));
#985 = ADVANCED_FACE('',(#986),#997,.F.);
#986 = FACE_BOUND('',#987,.T.);
#987 = EDGE_LOOP('',(#988,#994,#995,#996));
#988 = ORIENTED_EDGE('',*,*,#989,.T.);
#989 = EDGE_CURVE('',#349,#454,#990,.T.);
#990 = LINE('',#991,#992);
#991 = CARTESIAN_POINT('',(3.,55.5,70.));
#992 = VECTOR('',#993,1.);
#993 = DIRECTION('',(1.,0.,0.));
#994 = ORIENTED_EDGE('',*,*,#453,.T.);
#995 = ORIENTED_EDGE('',*,*,#989,.F.);
#996 = ORIENTED_EDGE('',*,*,#348,.F.);
#997 = CYLINDRICAL_SURFACE('',#998,5.5);
#998 = AXIS2_PLACEMENT_3D('',#999,#1000,#1001);
#999 = CARTESIAN_POINT('',(3.,50.,70.));
#1000 = DIRECTION('',(-1.,-0.,-0.));
#1001 = DIRECTION('',(0.,1.,0.));
#1002 = ADVANCED_FACE('',(#1003,#1009,#1017),#1025,.F.);
#1003 = FACE_BOUND('',#1004,.F.);
#1004 = EDGE_LOOP('',(#1005,#1006,#1007,#1008));
#1005 = ORIENTED_EDGE('',*,*,#494,.T.);
#1006 = ORIENTED_EDGE('',*,*,#519,.T.);
#1007 = ORIENTED_EDGE('',*,*,#543,.F.);
#1008 = ORIENTED_EDGE('',*,*,#567,.F.);
#1009 = FACE_BOUND('',#1010,.F.);
#1010 = EDGE_LOOP('',(#1011,#1012,#1013,#1014,#1015,#1016));
#1011 = ORIENTED_EDGE('',*,*,#613,.T.);
#1012 = ORIENTED_EDGE('',*,*,#582,.T.);
#1013 = ORIENTED_EDGE('',*,*,#709,.T.);
#1014 = ORIENTED_EDGE('',*,*,#685,.T.);
#1015 = ORIENTED_EDGE('',*,*,#661,.T.);
#1016 = ORIENTED_EDGE('',*,*,#637,.T.);
#1017 = FACE_BOUND('',#1018,.F.);
#1018 = EDGE_LOOP('',(#1019,#1020,#1021,#1022,#1023,#1024));
#1019 = ORIENTED_EDGE('',*,*,#757,.T.);
#1020 = ORIENTED_EDGE('',*,*,#726,.T.);
#1021 = ORIENTED_EDGE('',*,*,#853,.T.);
#1022 = ORIENTED_EDGE('',*,*,#829,.T.);
#1023 = ORIENTED_EDGE('',*,*,#805,.T.);
#1024 = ORIENTED_EDGE('',*,*,#781,.T.);
#1025 = PLANE('',#1026);
#1026 = AXIS2_PLACEMENT_3D('',#1027,#1028,#1029);
#1027 = CARTESIAN_POINT('',(6.,0.,29.));
#1028 = DIRECTION('',(0.,1.,0.));
#1029 = DIRECTION('',(1.,0.,0.));
#1030 = ( GEOMETRIC_REPRESENTATION_CONTEXT(3) 
GLOBAL_UNCERTAINTY_ASSIGNED_CONTEXT((#1034)) 
GLOBAL_UNIT_ASSIGNED_CONTEXT((#1031,#1032,#1033)) REPRESENTATION_CONTEXT
('Context #1','3D Context with UNIT and UNCERTAINTY') );
#1031 = ( LENGTH_UNIT() NAMED_UNIT(*) SI_UNIT(.MILLI.,.METRE.) );
#1032 = ( NAMED_UNIT(*) PLANE_ANGLE_UNIT() SI_UNIT($,.RADIAN.) );
#1033 = ( NAMED_UNIT(*) SI_UNIT($,.STERADIAN.) SOLID_ANGLE_UNIT() );
#1034 = UNCERTAINTY_MEASURE_WITH_UNIT(LENGTH_MEASURE(2.E-05),#1031,
  'distance_accuracy_value','confusion accuracy');
#1035 = PRODUCT_RELATED_PRODUCT_CATEGORY('part',$,(#7));
ENDSEC;
END-ISO-10303-21;
