%TF.GenerationSoftware,KiCad,Pcbnew,9.0.1*%
%TF.CreationDate,2026-02-09T17:44:16-08:00*%
%TF.ProjectId,GateDriver,47617465-4472-4697-9665-722e6b696361,rev?*%
%TF.SameCoordinates,Original*%
%TF.FileFunction,Copper,L4,Inr*%
%TF.FilePolarity,Positive*%
%FSLAX46Y46*%
G04 Gerber Fmt 4.6, Leading zero omitted, Abs format (unit mm)*
G04 Created by KiCad (PCBNEW 9.0.1) date 2026-02-09 17:44:16*
%MOMM*%
%LPD*%
G01*
G04 APERTURE LIST*
%TA.AperFunction,ComponentPad*%
%ADD10C,3.000000*%
%TD*%
%TA.AperFunction,ComponentPad*%
%ADD11R,3.000000X6.000000*%
%TD*%
%TA.AperFunction,ComponentPad*%
%ADD12C,4.400000*%
%TD*%
%TA.AperFunction,ComponentPad*%
%ADD13R,1.700000X1.700000*%
%TD*%
%TA.AperFunction,ComponentPad*%
%ADD14C,1.700000*%
%TD*%
%TA.AperFunction,ViaPad*%
%ADD15C,0.600000*%
%TD*%
G04 APERTURE END LIST*
D10*
%TO.N,/RESET*%
%TO.C,TP2*%
X15000000Y-56500000D03*
%TD*%
%TO.N,/READY*%
%TO.C,TP1*%
X25000000Y-56500000D03*
%TD*%
%TO.N,/PH_H*%
%TO.C,TP5*%
X35750000Y-44750000D03*
%TD*%
%TO.N,/PH_L*%
%TO.C,TP6*%
X40250000Y-44750000D03*
%TD*%
D11*
%TO.N,/PH_L_G*%
%TO.C,Q1*%
X51000000Y-6300000D03*
%TO.N,/SingleChannelDriver1/GND_B*%
X45000000Y-6300000D03*
%TO.N,/PH_H_G*%
X24000000Y-6300000D03*
%TO.N,/SingleChannelDriver/GND_B*%
X30000000Y-6300000D03*
%TD*%
D12*
%TO.N,/PH_H_C*%
%TO.C,H5*%
X3000000Y-19000000D03*
%TD*%
D13*
%TO.N,/GND_A*%
%TO.C,J1*%
X29750000Y-57790000D03*
D14*
%TO.N,/FAULT*%
X29750000Y-55250000D03*
%TO.N,/GND_A*%
X32290000Y-57790000D03*
%TO.N,/READY*%
X32290000Y-55250000D03*
%TO.N,/GND_A*%
X34830000Y-57790000D03*
%TO.N,/RESET*%
X34830000Y-55250000D03*
%TO.N,/GND_A*%
X37370000Y-57790000D03*
X37370000Y-55250000D03*
X39910000Y-57790000D03*
%TO.N,/PH_L*%
X39910000Y-55250000D03*
%TO.N,/GND_A*%
X42450000Y-57790000D03*
%TO.N,/PH_H*%
X42450000Y-55250000D03*
%TO.N,/GND_A*%
X44990000Y-57790000D03*
%TO.N,/+3.3V_A*%
X44990000Y-55250000D03*
%TO.N,/GND_A*%
X47530000Y-57790000D03*
%TO.N,/+12V_A*%
X47530000Y-55250000D03*
%TD*%
D10*
%TO.N,/GND_A*%
%TO.C,TP4*%
X15000000Y-50000000D03*
%TD*%
%TO.N,/FAULT*%
%TO.C,TP3*%
X20000000Y-56500000D03*
%TD*%
D12*
%TO.N,/PH_L_C*%
%TO.C,H4*%
X72000000Y-19000000D03*
%TD*%
D15*
%TO.N,/GND_A*%
X28507500Y-44712000D03*
X54062500Y-52000000D03*
X52000000Y-46500000D03*
X28000000Y-49000000D03*
X32500000Y-49000000D03*
X25500000Y-53500000D03*
X59500000Y-57500000D03*
X25750000Y-50000000D03*
X42000000Y-49500000D03*
X23427500Y-44712000D03*
X56945000Y-44712000D03*
%TO.N,/+3.3V_A*%
X50595000Y-48000000D03*
X67950000Y-45000000D03*
X22500000Y-48500000D03*
X50937500Y-52000000D03*
X37250000Y-49500000D03*
X22500000Y-52000000D03*
%TO.N,/+12V_A*%
X59485000Y-46390000D03*
X59500000Y-50000000D03*
X7550000Y-45000000D03*
X31047500Y-46390000D03*
%TO.N,/SingleChannelDriver1/GND_B*%
X61500000Y-28000000D03*
X48055000Y-34500000D03*
X60500000Y-24500000D03*
X48000000Y-24500000D03*
%TO.N,/SingleChannelDriver1/+15V_B*%
X51865000Y-34500000D03*
X53135000Y-34500000D03*
X71500000Y-32437500D03*
X67000000Y-32437500D03*
X44000000Y-31937500D03*
X65500000Y-31500000D03*
X52625000Y-32000000D03*
X59485000Y-30390000D03*
X44000000Y-25000000D03*
%TO.N,/SingleChannelDriver1/-9V_B*%
X49500000Y-32000000D03*
X71500000Y-35562500D03*
X49437500Y-34500000D03*
X57000000Y-35288000D03*
X67000000Y-35562500D03*
X49437500Y-28500000D03*
X59437500Y-35000000D03*
X56000000Y-35288000D03*
%TO.N,Net-(IC1-DESAT)*%
X66500000Y-25500000D03*
X55500000Y-33000000D03*
X51000000Y-33000000D03*
X56000000Y-29500000D03*
%TO.N,/SingleChannelDriver/GND_B*%
X14500000Y-25500000D03*
X19617500Y-34500000D03*
X14500000Y-24500000D03*
%TO.N,/SingleChannelDriver/+15V_B*%
X23427500Y-34500000D03*
X24562500Y-34500000D03*
X32562500Y-24500000D03*
X15250000Y-27500000D03*
X32562500Y-21000000D03*
X31047500Y-30390000D03*
X14500000Y-31500000D03*
X15250000Y-27500000D03*
%TO.N,/SingleChannelDriver/-9V_B*%
X29437500Y-21250000D03*
X29937500Y-35000000D03*
X27237500Y-35288000D03*
X21437500Y-28500000D03*
X21437500Y-32000000D03*
X29394279Y-24478219D03*
X20887500Y-34500000D03*
X28500000Y-35288000D03*
%TO.N,Net-(IC2-DESAT)*%
X23000000Y-30250000D03*
X7900000Y-28000000D03*
%TO.N,Net-(D1-A)*%
X49000000Y-20000000D03*
%TO.N,Net-(D2-A)*%
X72100000Y-28000000D03*
%TO.N,Net-(D3-A)*%
X24500000Y-19100000D03*
%TO.N,Net-(D4-A)*%
X3000000Y-28150000D03*
%TO.N,Net-(FB1-Pad2)*%
X49000000Y-17000000D03*
%TO.N,Net-(FB2-Pad2)*%
X24500000Y-16000000D03*
%TO.N,/FAULT*%
X52900000Y-52969873D03*
X24250000Y-50500000D03*
X20000000Y-50500000D03*
X30000000Y-52550000D03*
%TO.N,/READY*%
X35000000Y-52500000D03*
X31750000Y-51125000D03*
X55500000Y-50250000D03*
X27250000Y-54750000D03*
X41744086Y-50949000D03*
X27237500Y-51000000D03*
%TO.N,/PH_H*%
X19750000Y-46250000D03*
X43500000Y-47250000D03*
X44000000Y-49000000D03*
X35750000Y-47250000D03*
X49000000Y-48750000D03*
%TO.N,/RESET*%
X52250000Y-53750000D03*
X18250000Y-49250000D03*
X23750000Y-49250000D03*
X40000000Y-50949000D03*
X40000000Y-52500000D03*
%TO.N,/PH_L*%
X40250000Y-48000000D03*
X20750000Y-47000000D03*
X48000000Y-48000000D03*
X42750000Y-48000000D03*
%TO.N,Net-(LED2-A)*%
X70500000Y-45000000D03*
%TO.N,Net-(LED5-A)*%
X5000000Y-45000000D03*
%TD*%
%TA.AperFunction,Conductor*%
%TO.N,/+3.3V_A*%
G36*
X34446212Y-43019685D02*
G01*
X34491967Y-43072489D01*
X34501911Y-43141647D01*
X34472886Y-43205203D01*
X34454663Y-43222372D01*
X34433721Y-43238441D01*
X34428141Y-43242724D01*
X34428140Y-43242726D01*
X34242718Y-43428148D01*
X34083075Y-43636196D01*
X33951958Y-43863299D01*
X33951953Y-43863309D01*
X33851605Y-44105571D01*
X33851602Y-44105581D01*
X33783730Y-44358884D01*
X33781185Y-44378213D01*
X33749500Y-44618872D01*
X33749500Y-44881127D01*
X33757976Y-44945501D01*
X33783730Y-45141116D01*
X33847520Y-45379185D01*
X33851602Y-45394418D01*
X33851605Y-45394428D01*
X33951953Y-45636690D01*
X33951958Y-45636700D01*
X34083075Y-45863803D01*
X34242718Y-46071851D01*
X34242726Y-46071860D01*
X34428140Y-46257274D01*
X34428148Y-46257281D01*
X34428149Y-46257282D01*
X34440166Y-46266503D01*
X34636196Y-46416924D01*
X34863299Y-46548041D01*
X34863300Y-46548041D01*
X34863303Y-46548043D01*
X35031499Y-46617712D01*
X35085902Y-46661553D01*
X35107967Y-46727847D01*
X35090688Y-46795546D01*
X35087149Y-46801163D01*
X35040608Y-46870816D01*
X35040602Y-46870827D01*
X34980264Y-47016498D01*
X34980261Y-47016510D01*
X34949500Y-47171153D01*
X34949500Y-47328846D01*
X34980261Y-47483489D01*
X34980264Y-47483501D01*
X35040602Y-47629172D01*
X35040609Y-47629185D01*
X35128210Y-47760288D01*
X35128213Y-47760292D01*
X35239707Y-47871786D01*
X35239711Y-47871789D01*
X35370814Y-47959390D01*
X35370827Y-47959397D01*
X35467646Y-47999500D01*
X35516503Y-48019737D01*
X35671153Y-48050499D01*
X35671156Y-48050500D01*
X35671158Y-48050500D01*
X35828844Y-48050500D01*
X35828845Y-48050499D01*
X35983497Y-48019737D01*
X36096166Y-47973067D01*
X36129172Y-47959397D01*
X36129172Y-47959396D01*
X36129179Y-47959394D01*
X36186411Y-47921153D01*
X39449500Y-47921153D01*
X39449500Y-48078846D01*
X39480261Y-48233489D01*
X39480264Y-48233501D01*
X39540602Y-48379172D01*
X39540609Y-48379185D01*
X39628210Y-48510288D01*
X39628213Y-48510292D01*
X39739707Y-48621786D01*
X39739711Y-48621789D01*
X39870814Y-48709390D01*
X39870827Y-48709397D01*
X39944013Y-48739711D01*
X40016503Y-48769737D01*
X40170680Y-48800405D01*
X40171153Y-48800499D01*
X40171156Y-48800500D01*
X40171158Y-48800500D01*
X40328844Y-48800500D01*
X40328845Y-48800499D01*
X40483497Y-48769737D01*
X40629179Y-48709394D01*
X40760289Y-48621789D01*
X40871789Y-48510289D01*
X40959394Y-48379179D01*
X40962854Y-48370827D01*
X40978491Y-48333075D01*
X41019737Y-48233497D01*
X41050500Y-48078842D01*
X41050500Y-47921158D01*
X41050500Y-47921155D01*
X41050499Y-47921153D01*
X41019738Y-47766510D01*
X41019737Y-47766503D01*
X40996080Y-47709390D01*
X40959397Y-47620827D01*
X40959390Y-47620814D01*
X40871789Y-47489711D01*
X40871786Y-47489707D01*
X40760292Y-47378213D01*
X40760288Y-47378210D01*
X40629185Y-47290609D01*
X40629172Y-47290602D01*
X40483501Y-47230264D01*
X40483489Y-47230261D01*
X40328845Y-47199500D01*
X40328842Y-47199500D01*
X40171158Y-47199500D01*
X40171155Y-47199500D01*
X40016510Y-47230261D01*
X40016498Y-47230264D01*
X39870827Y-47290602D01*
X39870814Y-47290609D01*
X39739711Y-47378210D01*
X39739707Y-47378213D01*
X39628213Y-47489707D01*
X39628210Y-47489711D01*
X39540609Y-47620814D01*
X39540602Y-47620827D01*
X39480264Y-47766498D01*
X39480261Y-47766510D01*
X39449500Y-47921153D01*
X36186411Y-47921153D01*
X36260289Y-47871789D01*
X36281696Y-47850382D01*
X36304694Y-47827385D01*
X36371786Y-47760292D01*
X36371789Y-47760289D01*
X36459394Y-47629179D01*
X36462854Y-47620827D01*
X36517163Y-47489711D01*
X36519737Y-47483497D01*
X36550500Y-47328842D01*
X36550500Y-47171158D01*
X36550500Y-47171155D01*
X36550499Y-47171153D01*
X36526499Y-47050499D01*
X36519737Y-47016503D01*
X36480242Y-46921153D01*
X36459397Y-46870827D01*
X36459390Y-46870814D01*
X36412851Y-46801164D01*
X36391973Y-46734487D01*
X36410457Y-46667106D01*
X36462436Y-46620416D01*
X36468501Y-46617712D01*
X36636685Y-46548048D01*
X36636685Y-46548047D01*
X36636697Y-46548043D01*
X36863803Y-46416924D01*
X37071851Y-46257282D01*
X37071855Y-46257277D01*
X37071860Y-46257274D01*
X37257274Y-46071860D01*
X37257277Y-46071855D01*
X37257282Y-46071851D01*
X37416924Y-45863803D01*
X37548043Y-45636697D01*
X37551559Y-45628210D01*
X37599487Y-45512500D01*
X37648398Y-45394419D01*
X37716270Y-45141116D01*
X37750500Y-44881120D01*
X37750500Y-44618880D01*
X37716270Y-44358884D01*
X37648398Y-44105581D01*
X37648394Y-44105571D01*
X37548046Y-43863309D01*
X37548041Y-43863299D01*
X37416924Y-43636196D01*
X37257281Y-43428148D01*
X37257274Y-43428140D01*
X37071858Y-43242724D01*
X37071853Y-43242720D01*
X37071851Y-43242718D01*
X37045338Y-43222373D01*
X37004137Y-43165946D01*
X36999983Y-43096200D01*
X37034196Y-43035280D01*
X37095914Y-43002528D01*
X37120827Y-43000000D01*
X38879173Y-43000000D01*
X38946212Y-43019685D01*
X38991967Y-43072489D01*
X39001911Y-43141647D01*
X38972886Y-43205203D01*
X38954663Y-43222372D01*
X38933721Y-43238441D01*
X38928141Y-43242724D01*
X38928140Y-43242726D01*
X38742718Y-43428148D01*
X38583075Y-43636196D01*
X38451958Y-43863299D01*
X38451953Y-43863309D01*
X38351605Y-44105571D01*
X38351602Y-44105581D01*
X38283730Y-44358884D01*
X38281185Y-44378213D01*
X38249500Y-44618872D01*
X38249500Y-44881127D01*
X38257976Y-44945501D01*
X38283730Y-45141116D01*
X38347520Y-45379185D01*
X38351602Y-45394418D01*
X38351605Y-45394428D01*
X38451953Y-45636690D01*
X38451958Y-45636700D01*
X38583075Y-45863803D01*
X38742718Y-46071851D01*
X38742726Y-46071860D01*
X38928140Y-46257274D01*
X38928148Y-46257281D01*
X38928149Y-46257282D01*
X38940166Y-46266503D01*
X39136196Y-46416924D01*
X39363299Y-46548041D01*
X39363309Y-46548046D01*
X39605571Y-46648394D01*
X39605581Y-46648398D01*
X39858884Y-46716270D01*
X40118880Y-46750500D01*
X40118887Y-46750500D01*
X40381113Y-46750500D01*
X40381120Y-46750500D01*
X40641116Y-46716270D01*
X40894419Y-46648398D01*
X41136697Y-46548043D01*
X41356478Y-46421153D01*
X51199500Y-46421153D01*
X51199500Y-46578846D01*
X51230261Y-46733489D01*
X51230264Y-46733501D01*
X51290602Y-46879172D01*
X51290609Y-46879185D01*
X51378210Y-47010288D01*
X51378213Y-47010292D01*
X51489707Y-47121786D01*
X51489711Y-47121789D01*
X51620814Y-47209390D01*
X51620827Y-47209397D01*
X51766498Y-47269735D01*
X51766503Y-47269737D01*
X51921153Y-47300499D01*
X51921156Y-47300500D01*
X51921158Y-47300500D01*
X52078844Y-47300500D01*
X52078845Y-47300499D01*
X52233497Y-47269737D01*
X52375396Y-47210961D01*
X52379172Y-47209397D01*
X52379172Y-47209396D01*
X52379179Y-47209394D01*
X52510289Y-47121789D01*
X52621789Y-47010289D01*
X52709394Y-46879179D01*
X52712854Y-46870827D01*
X52723067Y-46846166D01*
X52769737Y-46733497D01*
X52800500Y-46578842D01*
X52800500Y-46421158D01*
X52800500Y-46421155D01*
X52782220Y-46329258D01*
X52782220Y-46329257D01*
X52778619Y-46311153D01*
X58684500Y-46311153D01*
X58684500Y-46468846D01*
X58715261Y-46623489D01*
X58715264Y-46623501D01*
X58775602Y-46769172D01*
X58775609Y-46769185D01*
X58863210Y-46900288D01*
X58863213Y-46900292D01*
X58974707Y-47011786D01*
X58974711Y-47011789D01*
X59105814Y-47099390D01*
X59105827Y-47099397D01*
X59251498Y-47159735D01*
X59251503Y-47159737D01*
X59406153Y-47190499D01*
X59406156Y-47190500D01*
X59406158Y-47190500D01*
X59563844Y-47190500D01*
X59563845Y-47190499D01*
X59718497Y-47159737D01*
X59864179Y-47099394D01*
X59995289Y-47011789D01*
X60106789Y-46900289D01*
X60194394Y-46769179D01*
X60195503Y-46766503D01*
X60234449Y-46672476D01*
X60254737Y-46623497D01*
X60285500Y-46468842D01*
X60285500Y-46311158D01*
X60285500Y-46311155D01*
X60285499Y-46311153D01*
X60254737Y-46156503D01*
X60254735Y-46156498D01*
X60194397Y-46010827D01*
X60194390Y-46010814D01*
X60106789Y-45879711D01*
X60106786Y-45879707D01*
X59995292Y-45768213D01*
X59995288Y-45768210D01*
X59864185Y-45680609D01*
X59864172Y-45680602D01*
X59718501Y-45620264D01*
X59718489Y-45620261D01*
X59563845Y-45589500D01*
X59563842Y-45589500D01*
X59406158Y-45589500D01*
X59406155Y-45589500D01*
X59251510Y-45620261D01*
X59251498Y-45620264D01*
X59105827Y-45680602D01*
X59105814Y-45680609D01*
X58974711Y-45768210D01*
X58974707Y-45768213D01*
X58863213Y-45879707D01*
X58863210Y-45879711D01*
X58775609Y-46010814D01*
X58775602Y-46010827D01*
X58715264Y-46156498D01*
X58715261Y-46156510D01*
X58684500Y-46311153D01*
X52778619Y-46311153D01*
X52769738Y-46266510D01*
X52769737Y-46266503D01*
X52765914Y-46257274D01*
X52709397Y-46120827D01*
X52709390Y-46120814D01*
X52621789Y-45989711D01*
X52621786Y-45989707D01*
X52510292Y-45878213D01*
X52510288Y-45878210D01*
X52379185Y-45790609D01*
X52379172Y-45790602D01*
X52233501Y-45730264D01*
X52233489Y-45730261D01*
X52078845Y-45699500D01*
X52078842Y-45699500D01*
X51921158Y-45699500D01*
X51921155Y-45699500D01*
X51766510Y-45730261D01*
X51766498Y-45730264D01*
X51620827Y-45790602D01*
X51620814Y-45790609D01*
X51489711Y-45878210D01*
X51489707Y-45878213D01*
X51378213Y-45989707D01*
X51378210Y-45989711D01*
X51290609Y-46120814D01*
X51290602Y-46120827D01*
X51230264Y-46266498D01*
X51230261Y-46266510D01*
X51199500Y-46421153D01*
X41356478Y-46421153D01*
X41363803Y-46416924D01*
X41571851Y-46257282D01*
X41571855Y-46257277D01*
X41571860Y-46257274D01*
X41757274Y-46071860D01*
X41757277Y-46071855D01*
X41757282Y-46071851D01*
X41916924Y-45863803D01*
X42048043Y-45636697D01*
X42051559Y-45628210D01*
X42099487Y-45512500D01*
X42148398Y-45394419D01*
X42216270Y-45141116D01*
X42250500Y-44881120D01*
X42250500Y-44633153D01*
X56144500Y-44633153D01*
X56144500Y-44790846D01*
X56175261Y-44945489D01*
X56175264Y-44945501D01*
X56235602Y-45091172D01*
X56235609Y-45091185D01*
X56323210Y-45222288D01*
X56323213Y-45222292D01*
X56434707Y-45333786D01*
X56434711Y-45333789D01*
X56565814Y-45421390D01*
X56565827Y-45421397D01*
X56707944Y-45480263D01*
X56711503Y-45481737D01*
X56855038Y-45510288D01*
X56866153Y-45512499D01*
X56866156Y-45512500D01*
X56866158Y-45512500D01*
X57023844Y-45512500D01*
X57023845Y-45512499D01*
X57178497Y-45481737D01*
X57324179Y-45421394D01*
X57455289Y-45333789D01*
X57566789Y-45222289D01*
X57654394Y-45091179D01*
X57659503Y-45078846D01*
X57714735Y-44945501D01*
X57714737Y-44945497D01*
X57716998Y-44934126D01*
X57719579Y-44921153D01*
X69699500Y-44921153D01*
X69699500Y-45078846D01*
X69730261Y-45233489D01*
X69730264Y-45233501D01*
X69790602Y-45379172D01*
X69790609Y-45379185D01*
X69878210Y-45510288D01*
X69878213Y-45510292D01*
X69989707Y-45621786D01*
X69989711Y-45621789D01*
X70120814Y-45709390D01*
X70120827Y-45709397D01*
X70194013Y-45739711D01*
X70266503Y-45769737D01*
X70421153Y-45800499D01*
X70421156Y-45800500D01*
X70421158Y-45800500D01*
X70578844Y-45800500D01*
X70578845Y-45800499D01*
X70733497Y-45769737D01*
X70879179Y-45709394D01*
X71010289Y-45621789D01*
X71121789Y-45510289D01*
X71209394Y-45379179D01*
X71269737Y-45233497D01*
X71300500Y-45078842D01*
X71300500Y-44921158D01*
X71300500Y-44921155D01*
X71300499Y-44921153D01*
X71292536Y-44881120D01*
X71269737Y-44766503D01*
X71269735Y-44766498D01*
X71209397Y-44620827D01*
X71209390Y-44620814D01*
X71121789Y-44489711D01*
X71121786Y-44489707D01*
X71010292Y-44378213D01*
X71010288Y-44378210D01*
X70879185Y-44290609D01*
X70879172Y-44290602D01*
X70733501Y-44230264D01*
X70733489Y-44230261D01*
X70578845Y-44199500D01*
X70578842Y-44199500D01*
X70421158Y-44199500D01*
X70421155Y-44199500D01*
X70266510Y-44230261D01*
X70266498Y-44230264D01*
X70120827Y-44290602D01*
X70120814Y-44290609D01*
X69989711Y-44378210D01*
X69989707Y-44378213D01*
X69878213Y-44489707D01*
X69878210Y-44489711D01*
X69790609Y-44620814D01*
X69790602Y-44620827D01*
X69730264Y-44766498D01*
X69730261Y-44766510D01*
X69699500Y-44921153D01*
X57719579Y-44921153D01*
X57725603Y-44890874D01*
X57725603Y-44890873D01*
X57745499Y-44790846D01*
X57745500Y-44790844D01*
X57745500Y-44633155D01*
X57745499Y-44633153D01*
X57716966Y-44489711D01*
X57714737Y-44478503D01*
X57665190Y-44358884D01*
X57654397Y-44332827D01*
X57654390Y-44332814D01*
X57566789Y-44201711D01*
X57566786Y-44201707D01*
X57455292Y-44090213D01*
X57455288Y-44090210D01*
X57324185Y-44002609D01*
X57324172Y-44002602D01*
X57178501Y-43942264D01*
X57178489Y-43942261D01*
X57023845Y-43911500D01*
X57023842Y-43911500D01*
X56866158Y-43911500D01*
X56866155Y-43911500D01*
X56711510Y-43942261D01*
X56711498Y-43942264D01*
X56565827Y-44002602D01*
X56565814Y-44002609D01*
X56434711Y-44090210D01*
X56434707Y-44090213D01*
X56323213Y-44201707D01*
X56323210Y-44201711D01*
X56235609Y-44332814D01*
X56235602Y-44332827D01*
X56175264Y-44478498D01*
X56175261Y-44478510D01*
X56144500Y-44633153D01*
X42250500Y-44633153D01*
X42250500Y-44618880D01*
X42216270Y-44358884D01*
X42148398Y-44105581D01*
X42148394Y-44105571D01*
X42048046Y-43863309D01*
X42048041Y-43863299D01*
X41916924Y-43636196D01*
X41757281Y-43428148D01*
X41757274Y-43428140D01*
X41571858Y-43242724D01*
X41571853Y-43242720D01*
X41571851Y-43242718D01*
X41545338Y-43222373D01*
X41504137Y-43165946D01*
X41499983Y-43096200D01*
X41534196Y-43035280D01*
X41595914Y-43002528D01*
X41620827Y-43000000D01*
X74375500Y-43000000D01*
X74442539Y-43019685D01*
X74488294Y-43072489D01*
X74499500Y-43124000D01*
X74499500Y-59375500D01*
X74479815Y-59442539D01*
X74427011Y-59488294D01*
X74375500Y-59499500D01*
X624500Y-59499500D01*
X557461Y-59479815D01*
X511706Y-59427011D01*
X500500Y-59375500D01*
X500500Y-56368872D01*
X12999500Y-56368872D01*
X12999500Y-56631127D01*
X13025563Y-56829082D01*
X13033730Y-56891116D01*
X13087274Y-57090946D01*
X13101602Y-57144418D01*
X13101605Y-57144428D01*
X13201953Y-57386690D01*
X13201958Y-57386700D01*
X13333075Y-57613803D01*
X13492718Y-57821851D01*
X13492726Y-57821860D01*
X13678140Y-58007274D01*
X13678148Y-58007281D01*
X13678149Y-58007282D01*
X13682068Y-58010289D01*
X13886196Y-58166924D01*
X14113299Y-58298041D01*
X14113309Y-58298046D01*
X14355571Y-58398394D01*
X14355581Y-58398398D01*
X14608884Y-58466270D01*
X14868880Y-58500500D01*
X14868887Y-58500500D01*
X15131113Y-58500500D01*
X15131120Y-58500500D01*
X15391116Y-58466270D01*
X15644419Y-58398398D01*
X15861664Y-58308412D01*
X15886690Y-58298046D01*
X15886691Y-58298045D01*
X15886697Y-58298043D01*
X16113803Y-58166924D01*
X16321851Y-58007282D01*
X16321855Y-58007277D01*
X16321860Y-58007274D01*
X16507274Y-57821860D01*
X16507277Y-57821855D01*
X16507282Y-57821851D01*
X16666924Y-57613803D01*
X16798043Y-57386697D01*
X16898398Y-57144419D01*
X16966270Y-56891116D01*
X17000500Y-56631120D01*
X17000500Y-56368880D01*
X17000499Y-56368872D01*
X17999500Y-56368872D01*
X17999500Y-56631127D01*
X18025563Y-56829082D01*
X18033730Y-56891116D01*
X18087274Y-57090946D01*
X18101602Y-57144418D01*
X18101605Y-57144428D01*
X18201953Y-57386690D01*
X18201958Y-57386700D01*
X18333075Y-57613803D01*
X18492718Y-57821851D01*
X18492726Y-57821860D01*
X18678140Y-58007274D01*
X18678148Y-58007281D01*
X18678149Y-58007282D01*
X18682068Y-58010289D01*
X18886196Y-58166924D01*
X19113299Y-58298041D01*
X19113309Y-58298046D01*
X19355571Y-58398394D01*
X19355581Y-58398398D01*
X19608884Y-58466270D01*
X19868880Y-58500500D01*
X19868887Y-58500500D01*
X20131113Y-58500500D01*
X20131120Y-58500500D01*
X20391116Y-58466270D01*
X20644419Y-58398398D01*
X20861664Y-58308412D01*
X20886690Y-58298046D01*
X20886691Y-58298045D01*
X20886697Y-58298043D01*
X21113803Y-58166924D01*
X21321851Y-58007282D01*
X21321855Y-58007277D01*
X21321860Y-58007274D01*
X21507274Y-57821860D01*
X21507277Y-57821855D01*
X21507282Y-57821851D01*
X21666924Y-57613803D01*
X21798043Y-57386697D01*
X21898398Y-57144419D01*
X21966270Y-56891116D01*
X22000500Y-56631120D01*
X22000500Y-56368880D01*
X22000499Y-56368872D01*
X22999500Y-56368872D01*
X22999500Y-56631127D01*
X23025563Y-56829082D01*
X23033730Y-56891116D01*
X23087274Y-57090946D01*
X23101602Y-57144418D01*
X23101605Y-57144428D01*
X23201953Y-57386690D01*
X23201958Y-57386700D01*
X23333075Y-57613803D01*
X23492718Y-57821851D01*
X23492726Y-57821860D01*
X23678140Y-58007274D01*
X23678148Y-58007281D01*
X23678149Y-58007282D01*
X23682068Y-58010289D01*
X23886196Y-58166924D01*
X24113299Y-58298041D01*
X24113309Y-58298046D01*
X24355571Y-58398394D01*
X24355581Y-58398398D01*
X24608884Y-58466270D01*
X24868880Y-58500500D01*
X24868887Y-58500500D01*
X25131113Y-58500500D01*
X25131120Y-58500500D01*
X25391116Y-58466270D01*
X25644419Y-58398398D01*
X25861664Y-58308412D01*
X25886690Y-58298046D01*
X25886691Y-58298045D01*
X25886697Y-58298043D01*
X26113803Y-58166924D01*
X26321851Y-58007282D01*
X26321855Y-58007277D01*
X26321860Y-58007274D01*
X26507274Y-57821860D01*
X26507277Y-57821855D01*
X26507282Y-57821851D01*
X26666924Y-57613803D01*
X26798043Y-57386697D01*
X26898398Y-57144419D01*
X26966270Y-56891116D01*
X27000500Y-56631120D01*
X27000500Y-56368880D01*
X26966270Y-56108884D01*
X26898398Y-55855581D01*
X26898394Y-55855571D01*
X26820577Y-55667704D01*
X26813108Y-55598234D01*
X26844383Y-55535755D01*
X26904472Y-55500103D01*
X26974297Y-55502597D01*
X26982583Y-55505687D01*
X27016503Y-55519737D01*
X27171153Y-55550499D01*
X27171156Y-55550500D01*
X27171158Y-55550500D01*
X27328844Y-55550500D01*
X27328845Y-55550499D01*
X27483497Y-55519737D01*
X27629179Y-55459394D01*
X27760289Y-55371789D01*
X27871789Y-55260289D01*
X27949683Y-55143713D01*
X28399500Y-55143713D01*
X28399500Y-55356286D01*
X28430260Y-55550500D01*
X28432754Y-55566243D01*
X28464265Y-55663224D01*
X28498444Y-55768414D01*
X28594951Y-55957820D01*
X28719890Y-56129786D01*
X28833430Y-56243326D01*
X28866915Y-56304649D01*
X28861931Y-56374341D01*
X28820059Y-56430274D01*
X28789083Y-56447189D01*
X28657669Y-56496203D01*
X28657664Y-56496206D01*
X28542455Y-56582452D01*
X28542452Y-56582455D01*
X28456206Y-56697664D01*
X28456202Y-56697671D01*
X28405908Y-56832517D01*
X28399501Y-56892116D01*
X28399500Y-56892135D01*
X28399500Y-58687870D01*
X28399501Y-58687876D01*
X28405908Y-58747483D01*
X28456202Y-58882328D01*
X28456206Y-58882335D01*
X28542452Y-58997544D01*
X28542455Y-58997547D01*
X28657664Y-59083793D01*
X28657671Y-59083797D01*
X28792517Y-59134091D01*
X28792516Y-59134091D01*
X28799444Y-59134835D01*
X28852127Y-59140500D01*
X30647872Y-59140499D01*
X30707483Y-59134091D01*
X30842331Y-59083796D01*
X30957546Y-58997546D01*
X31043796Y-58882331D01*
X31092810Y-58750916D01*
X31134681Y-58694984D01*
X31200145Y-58670566D01*
X31268418Y-58685417D01*
X31296673Y-58706569D01*
X31410213Y-58820109D01*
X31582179Y-58945048D01*
X31582181Y-58945049D01*
X31582184Y-58945051D01*
X31771588Y-59041557D01*
X31973757Y-59107246D01*
X32183713Y-59140500D01*
X32183714Y-59140500D01*
X32396286Y-59140500D01*
X32396287Y-59140500D01*
X32606243Y-59107246D01*
X32808412Y-59041557D01*
X32997816Y-58945051D01*
X33084138Y-58882335D01*
X33169786Y-58820109D01*
X33169788Y-58820106D01*
X33169792Y-58820104D01*
X33320104Y-58669792D01*
X33320106Y-58669788D01*
X33320109Y-58669786D01*
X33445048Y-58497820D01*
X33445047Y-58497820D01*
X33445051Y-58497816D01*
X33449514Y-58489054D01*
X33497488Y-58438259D01*
X33565308Y-58421463D01*
X33631444Y-58443999D01*
X33670486Y-58489056D01*
X33674951Y-58497820D01*
X33799890Y-58669786D01*
X33950213Y-58820109D01*
X34122179Y-58945048D01*
X34122181Y-58945049D01*
X34122184Y-58945051D01*
X34311588Y-59041557D01*
X34513757Y-59107246D01*
X34723713Y-59140500D01*
X34723714Y-59140500D01*
X34936286Y-59140500D01*
X34936287Y-59140500D01*
X35146243Y-59107246D01*
X35348412Y-59041557D01*
X35537816Y-58945051D01*
X35624138Y-58882335D01*
X35709786Y-58820109D01*
X35709788Y-58820106D01*
X35709792Y-58820104D01*
X35860104Y-58669792D01*
X35860106Y-58669788D01*
X35860109Y-58669786D01*
X35985048Y-58497820D01*
X35985047Y-58497820D01*
X35985051Y-58497816D01*
X35989514Y-58489054D01*
X36037488Y-58438259D01*
X36105308Y-58421463D01*
X36171444Y-58443999D01*
X36210486Y-58489056D01*
X36214951Y-58497820D01*
X36339890Y-58669786D01*
X36490213Y-58820109D01*
X36662179Y-58945048D01*
X36662181Y-58945049D01*
X36662184Y-58945051D01*
X36851588Y-59041557D01*
X37053757Y-59107246D01*
X37263713Y-59140500D01*
X37263714Y-59140500D01*
X37476286Y-59140500D01*
X37476287Y-59140500D01*
X37686243Y-59107246D01*
X37888412Y-59041557D01*
X38077816Y-58945051D01*
X38164138Y-58882335D01*
X38249786Y-58820109D01*
X38249788Y-58820106D01*
X38249792Y-58820104D01*
X38400104Y-58669792D01*
X38400106Y-58669788D01*
X38400109Y-58669786D01*
X38525048Y-58497820D01*
X38525047Y-58497820D01*
X38525051Y-58497816D01*
X38529514Y-58489054D01*
X38577488Y-58438259D01*
X38645308Y-58421463D01*
X38711444Y-58443999D01*
X38750486Y-58489056D01*
X38754951Y-58497820D01*
X38879890Y-58669786D01*
X39030213Y-58820109D01*
X39202179Y-58945048D01*
X39202181Y-58945049D01*
X39202184Y-58945051D01*
X39391588Y-59041557D01*
X39593757Y-59107246D01*
X39803713Y-59140500D01*
X39803714Y-59140500D01*
X40016286Y-59140500D01*
X40016287Y-59140500D01*
X40226243Y-59107246D01*
X40428412Y-59041557D01*
X40617816Y-58945051D01*
X40704138Y-58882335D01*
X40789786Y-58820109D01*
X40789788Y-58820106D01*
X40789792Y-58820104D01*
X40940104Y-58669792D01*
X40940106Y-58669788D01*
X40940109Y-58669786D01*
X41065048Y-58497820D01*
X41065047Y-58497820D01*
X41065051Y-58497816D01*
X41069514Y-58489054D01*
X41117488Y-58438259D01*
X41185308Y-58421463D01*
X41251444Y-58443999D01*
X41290486Y-58489056D01*
X41294951Y-58497820D01*
X41419890Y-58669786D01*
X41570213Y-58820109D01*
X41742179Y-58945048D01*
X41742181Y-58945049D01*
X41742184Y-58945051D01*
X41931588Y-59041557D01*
X42133757Y-59107246D01*
X42343713Y-59140500D01*
X42343714Y-59140500D01*
X42556286Y-59140500D01*
X42556287Y-59140500D01*
X42766243Y-59107246D01*
X42968412Y-59041557D01*
X43157816Y-58945051D01*
X43244138Y-58882335D01*
X43329786Y-58820109D01*
X43329788Y-58820106D01*
X43329792Y-58820104D01*
X43480104Y-58669792D01*
X43480106Y-58669788D01*
X43480109Y-58669786D01*
X43605048Y-58497820D01*
X43605047Y-58497820D01*
X43605051Y-58497816D01*
X43609514Y-58489054D01*
X43657488Y-58438259D01*
X43725308Y-58421463D01*
X43791444Y-58443999D01*
X43830486Y-58489056D01*
X43834951Y-58497820D01*
X43959890Y-58669786D01*
X44110213Y-58820109D01*
X44282179Y-58945048D01*
X44282181Y-58945049D01*
X44282184Y-58945051D01*
X44471588Y-59041557D01*
X44673757Y-59107246D01*
X44883713Y-59140500D01*
X44883714Y-59140500D01*
X45096286Y-59140500D01*
X45096287Y-59140500D01*
X45306243Y-59107246D01*
X45508412Y-59041557D01*
X45697816Y-58945051D01*
X45784138Y-58882335D01*
X45869786Y-58820109D01*
X45869788Y-58820106D01*
X45869792Y-58820104D01*
X46020104Y-58669792D01*
X46020106Y-58669788D01*
X46020109Y-58669786D01*
X46145048Y-58497820D01*
X46145047Y-58497820D01*
X46145051Y-58497816D01*
X46149514Y-58489054D01*
X46197488Y-58438259D01*
X46265308Y-58421463D01*
X46331444Y-58443999D01*
X46370486Y-58489056D01*
X46374951Y-58497820D01*
X46499890Y-58669786D01*
X46650213Y-58820109D01*
X46822179Y-58945048D01*
X46822181Y-58945049D01*
X46822184Y-58945051D01*
X47011588Y-59041557D01*
X47213757Y-59107246D01*
X47423713Y-59140500D01*
X47423714Y-59140500D01*
X47636286Y-59140500D01*
X47636287Y-59140500D01*
X47846243Y-59107246D01*
X48048412Y-59041557D01*
X48237816Y-58945051D01*
X48324138Y-58882335D01*
X48409786Y-58820109D01*
X48409788Y-58820106D01*
X48409792Y-58820104D01*
X48560104Y-58669792D01*
X48560106Y-58669788D01*
X48560109Y-58669786D01*
X48685048Y-58497820D01*
X48685047Y-58497820D01*
X48685051Y-58497816D01*
X48781557Y-58308412D01*
X48847246Y-58106243D01*
X48880500Y-57896287D01*
X48880500Y-57683713D01*
X48847246Y-57473757D01*
X48830154Y-57421153D01*
X58699500Y-57421153D01*
X58699500Y-57578846D01*
X58730261Y-57733489D01*
X58730264Y-57733501D01*
X58790602Y-57879172D01*
X58790609Y-57879185D01*
X58878210Y-58010288D01*
X58878213Y-58010292D01*
X58989707Y-58121786D01*
X58989711Y-58121789D01*
X59120814Y-58209390D01*
X59120827Y-58209397D01*
X59266498Y-58269735D01*
X59266503Y-58269737D01*
X59408796Y-58298041D01*
X59421153Y-58300499D01*
X59421156Y-58300500D01*
X59421158Y-58300500D01*
X59578844Y-58300500D01*
X59578845Y-58300499D01*
X59733497Y-58269737D01*
X59879179Y-58209394D01*
X60010289Y-58121789D01*
X60121789Y-58010289D01*
X60209394Y-57879179D01*
X60269737Y-57733497D01*
X60300500Y-57578842D01*
X60300500Y-57421158D01*
X60300500Y-57421155D01*
X60300499Y-57421153D01*
X60270748Y-57271588D01*
X60269737Y-57266503D01*
X60225016Y-57158536D01*
X60209397Y-57120827D01*
X60209390Y-57120814D01*
X60121789Y-56989711D01*
X60121786Y-56989707D01*
X60010292Y-56878213D01*
X60010288Y-56878210D01*
X59879185Y-56790609D01*
X59879172Y-56790602D01*
X59733501Y-56730264D01*
X59733489Y-56730261D01*
X59578845Y-56699500D01*
X59578842Y-56699500D01*
X59421158Y-56699500D01*
X59421155Y-56699500D01*
X59266510Y-56730261D01*
X59266498Y-56730264D01*
X59120827Y-56790602D01*
X59120814Y-56790609D01*
X58989711Y-56878210D01*
X58989707Y-56878213D01*
X58878213Y-56989707D01*
X58878210Y-56989711D01*
X58790609Y-57120814D01*
X58790602Y-57120827D01*
X58730264Y-57266498D01*
X58730261Y-57266510D01*
X58699500Y-57421153D01*
X48830154Y-57421153D01*
X48781557Y-57271588D01*
X48685051Y-57082184D01*
X48685049Y-57082181D01*
X48685048Y-57082179D01*
X48560109Y-56910213D01*
X48409786Y-56759890D01*
X48237820Y-56634951D01*
X48237115Y-56634591D01*
X48229054Y-56630485D01*
X48178259Y-56582512D01*
X48161463Y-56514692D01*
X48183999Y-56448556D01*
X48229054Y-56409515D01*
X48237816Y-56405051D01*
X48287593Y-56368886D01*
X48409786Y-56280109D01*
X48409788Y-56280106D01*
X48409792Y-56280104D01*
X48560104Y-56129792D01*
X48560106Y-56129788D01*
X48560109Y-56129786D01*
X48685048Y-55957820D01*
X48685047Y-55957820D01*
X48685051Y-55957816D01*
X48781557Y-55768412D01*
X48847246Y-55566243D01*
X48880500Y-55356287D01*
X48880500Y-55143713D01*
X48847246Y-54933757D01*
X48781557Y-54731588D01*
X48685051Y-54542184D01*
X48685049Y-54542181D01*
X48685048Y-54542179D01*
X48560109Y-54370213D01*
X48409786Y-54219890D01*
X48237820Y-54094951D01*
X48048414Y-53998444D01*
X48048413Y-53998443D01*
X48048412Y-53998443D01*
X47846243Y-53932754D01*
X47846241Y-53932753D01*
X47846240Y-53932753D01*
X47684957Y-53907208D01*
X47636287Y-53899500D01*
X47423713Y-53899500D01*
X47375042Y-53907208D01*
X47213760Y-53932753D01*
X47213757Y-53932754D01*
X47057612Y-53983489D01*
X47011585Y-53998444D01*
X46822179Y-54094951D01*
X46650213Y-54219890D01*
X46499890Y-54370213D01*
X46374951Y-54542179D01*
X46278444Y-54731585D01*
X46212753Y-54933760D01*
X46179500Y-55143713D01*
X46179500Y-55356286D01*
X46210260Y-55550500D01*
X46212754Y-55566243D01*
X46244265Y-55663224D01*
X46278444Y-55768414D01*
X46374951Y-55957820D01*
X46499890Y-56129786D01*
X46650213Y-56280109D01*
X46822182Y-56405050D01*
X46830946Y-56409516D01*
X46881742Y-56457491D01*
X46898536Y-56525312D01*
X46875998Y-56591447D01*
X46830946Y-56630484D01*
X46822182Y-56634949D01*
X46650213Y-56759890D01*
X46499890Y-56910213D01*
X46374949Y-57082182D01*
X46370484Y-57090946D01*
X46322509Y-57141742D01*
X46254688Y-57158536D01*
X46188553Y-57135998D01*
X46149516Y-57090946D01*
X46145050Y-57082182D01*
X46020109Y-56910213D01*
X45869786Y-56759890D01*
X45697820Y-56634951D01*
X45508414Y-56538444D01*
X45508413Y-56538443D01*
X45508412Y-56538443D01*
X45306243Y-56472754D01*
X45306241Y-56472753D01*
X45306240Y-56472753D01*
X45144833Y-56447189D01*
X45096287Y-56439500D01*
X44883713Y-56439500D01*
X44835167Y-56447189D01*
X44673760Y-56472753D01*
X44471585Y-56538444D01*
X44282179Y-56634951D01*
X44110213Y-56759890D01*
X43959890Y-56910213D01*
X43834949Y-57082182D01*
X43830484Y-57090946D01*
X43782509Y-57141742D01*
X43714688Y-57158536D01*
X43648553Y-57135998D01*
X43609516Y-57090946D01*
X43605050Y-57082182D01*
X43480109Y-56910213D01*
X43329786Y-56759890D01*
X43157820Y-56634951D01*
X43157115Y-56634591D01*
X43149054Y-56630485D01*
X43098259Y-56582512D01*
X43081463Y-56514692D01*
X43103999Y-56448556D01*
X43149054Y-56409515D01*
X43157816Y-56405051D01*
X43207593Y-56368886D01*
X43329786Y-56280109D01*
X43329788Y-56280106D01*
X43329792Y-56280104D01*
X43480104Y-56129792D01*
X43480106Y-56129788D01*
X43480109Y-56129786D01*
X43605048Y-55957820D01*
X43605047Y-55957820D01*
X43605051Y-55957816D01*
X43701557Y-55768412D01*
X43767246Y-55566243D01*
X43800500Y-55356287D01*
X43800500Y-55143713D01*
X43767246Y-54933757D01*
X43701557Y-54731588D01*
X43605051Y-54542184D01*
X43605049Y-54542181D01*
X43605048Y-54542179D01*
X43480109Y-54370213D01*
X43329786Y-54219890D01*
X43157820Y-54094951D01*
X42968414Y-53998444D01*
X42968413Y-53998443D01*
X42968412Y-53998443D01*
X42766243Y-53932754D01*
X42766241Y-53932753D01*
X42766240Y-53932753D01*
X42604957Y-53907208D01*
X42556287Y-53899500D01*
X42343713Y-53899500D01*
X42295042Y-53907208D01*
X42133760Y-53932753D01*
X42133757Y-53932754D01*
X41977612Y-53983489D01*
X41931585Y-53998444D01*
X41742179Y-54094951D01*
X41570213Y-54219890D01*
X41419890Y-54370213D01*
X41294949Y-54542182D01*
X41290484Y-54550946D01*
X41242509Y-54601742D01*
X41174688Y-54618536D01*
X41108553Y-54595998D01*
X41069516Y-54550946D01*
X41065050Y-54542182D01*
X40940109Y-54370213D01*
X40789786Y-54219890D01*
X40617820Y-54094951D01*
X40428414Y-53998444D01*
X40428413Y-53998443D01*
X40428412Y-53998443D01*
X40226243Y-53932754D01*
X40226241Y-53932753D01*
X40226240Y-53932753D01*
X40064957Y-53907208D01*
X40016287Y-53899500D01*
X39803713Y-53899500D01*
X39755042Y-53907208D01*
X39593760Y-53932753D01*
X39593757Y-53932754D01*
X39437612Y-53983489D01*
X39391585Y-53998444D01*
X39202179Y-54094951D01*
X39030213Y-54219890D01*
X38879890Y-54370213D01*
X38754949Y-54542182D01*
X38750484Y-54550946D01*
X38702509Y-54601742D01*
X38634688Y-54618536D01*
X38568553Y-54595998D01*
X38529516Y-54550946D01*
X38525050Y-54542182D01*
X38400109Y-54370213D01*
X38249786Y-54219890D01*
X38077820Y-54094951D01*
X37888414Y-53998444D01*
X37888413Y-53998443D01*
X37888412Y-53998443D01*
X37686243Y-53932754D01*
X37686241Y-53932753D01*
X37686240Y-53932753D01*
X37524957Y-53907208D01*
X37476287Y-53899500D01*
X37263713Y-53899500D01*
X37215042Y-53907208D01*
X37053760Y-53932753D01*
X37053757Y-53932754D01*
X36897612Y-53983489D01*
X36851585Y-53998444D01*
X36662179Y-54094951D01*
X36490213Y-54219890D01*
X36339890Y-54370213D01*
X36214949Y-54542182D01*
X36210484Y-54550946D01*
X36162509Y-54601742D01*
X36094688Y-54618536D01*
X36028553Y-54595998D01*
X35989516Y-54550946D01*
X35985050Y-54542182D01*
X35860109Y-54370213D01*
X35709786Y-54219890D01*
X35537820Y-54094951D01*
X35348414Y-53998444D01*
X35348413Y-53998443D01*
X35348412Y-53998443D01*
X35146243Y-53932754D01*
X35146241Y-53932753D01*
X35146240Y-53932753D01*
X34984957Y-53907208D01*
X34936287Y-53899500D01*
X34723713Y-53899500D01*
X34675042Y-53907208D01*
X34513760Y-53932753D01*
X34513757Y-53932754D01*
X34357612Y-53983489D01*
X34311585Y-53998444D01*
X34122179Y-54094951D01*
X33950213Y-54219890D01*
X33799890Y-54370213D01*
X33674949Y-54542182D01*
X33670484Y-54550946D01*
X33622509Y-54601742D01*
X33554688Y-54618536D01*
X33488553Y-54595998D01*
X33449516Y-54550946D01*
X33445050Y-54542182D01*
X33320109Y-54370213D01*
X33169786Y-54219890D01*
X32997820Y-54094951D01*
X32808414Y-53998444D01*
X32808413Y-53998443D01*
X32808412Y-53998443D01*
X32606243Y-53932754D01*
X32606241Y-53932753D01*
X32606240Y-53932753D01*
X32444957Y-53907208D01*
X32396287Y-53899500D01*
X32183713Y-53899500D01*
X32135042Y-53907208D01*
X31973760Y-53932753D01*
X31973757Y-53932754D01*
X31817612Y-53983489D01*
X31771585Y-53998444D01*
X31582179Y-54094951D01*
X31410213Y-54219890D01*
X31259890Y-54370213D01*
X31134949Y-54542182D01*
X31130484Y-54550946D01*
X31082509Y-54601742D01*
X31014688Y-54618536D01*
X30948553Y-54595998D01*
X30909516Y-54550946D01*
X30905050Y-54542182D01*
X30780109Y-54370213D01*
X30629786Y-54219890D01*
X30457820Y-54094951D01*
X30268414Y-53998444D01*
X30268413Y-53998443D01*
X30268412Y-53998443D01*
X30066243Y-53932754D01*
X30066241Y-53932753D01*
X30066240Y-53932753D01*
X29904957Y-53907208D01*
X29856287Y-53899500D01*
X29643713Y-53899500D01*
X29595042Y-53907208D01*
X29433760Y-53932753D01*
X29433757Y-53932754D01*
X29277612Y-53983489D01*
X29231585Y-53998444D01*
X29042179Y-54094951D01*
X28870213Y-54219890D01*
X28719890Y-54370213D01*
X28594951Y-54542179D01*
X28498444Y-54731585D01*
X28432753Y-54933760D01*
X28399500Y-55143713D01*
X27949683Y-55143713D01*
X27959394Y-55129179D01*
X27967743Y-55109020D01*
X27975048Y-55091388D01*
X27975048Y-55091386D01*
X28019737Y-54983497D01*
X28050500Y-54828842D01*
X28050500Y-54671158D01*
X28050500Y-54671155D01*
X28050499Y-54671153D01*
X28035570Y-54596100D01*
X28019737Y-54516503D01*
X27959794Y-54371786D01*
X27959397Y-54370827D01*
X27959390Y-54370814D01*
X27871789Y-54239711D01*
X27871786Y-54239707D01*
X27760292Y-54128213D01*
X27760288Y-54128210D01*
X27629185Y-54040609D01*
X27629172Y-54040602D01*
X27483501Y-53980264D01*
X27483489Y-53980261D01*
X27328845Y-53949500D01*
X27328842Y-53949500D01*
X27171158Y-53949500D01*
X27171155Y-53949500D01*
X27016510Y-53980261D01*
X27016498Y-53980264D01*
X26870827Y-54040602D01*
X26870814Y-54040609D01*
X26739711Y-54128210D01*
X26739707Y-54128213D01*
X26628213Y-54239707D01*
X26628210Y-54239711D01*
X26540609Y-54370814D01*
X26540602Y-54370827D01*
X26480264Y-54516498D01*
X26480261Y-54516510D01*
X26449500Y-54671153D01*
X26449500Y-54834934D01*
X26447936Y-54834934D01*
X26436334Y-54896073D01*
X26388264Y-54946778D01*
X26320411Y-54963445D01*
X26254319Y-54940782D01*
X26250469Y-54937944D01*
X26113803Y-54833075D01*
X25886700Y-54701958D01*
X25886690Y-54701953D01*
X25644428Y-54601605D01*
X25644421Y-54601603D01*
X25644419Y-54601602D01*
X25546194Y-54575282D01*
X25436723Y-54545950D01*
X25436720Y-54545949D01*
X25391116Y-54533730D01*
X25207564Y-54509564D01*
X25207537Y-54509560D01*
X25131130Y-54499501D01*
X25131125Y-54499500D01*
X25131120Y-54499500D01*
X24868880Y-54499500D01*
X24868872Y-54499500D01*
X24637772Y-54529926D01*
X24608884Y-54533730D01*
X24544633Y-54550946D01*
X24355581Y-54601602D01*
X24355571Y-54601605D01*
X24113309Y-54701953D01*
X24113299Y-54701958D01*
X23886196Y-54833075D01*
X23678148Y-54992718D01*
X23492718Y-55178148D01*
X23333075Y-55386196D01*
X23201958Y-55613299D01*
X23201953Y-55613309D01*
X23101605Y-55855571D01*
X23101602Y-55855581D01*
X23088629Y-55903999D01*
X23033730Y-56108885D01*
X22999500Y-56368872D01*
X22000499Y-56368872D01*
X21966270Y-56108884D01*
X21898398Y-55855581D01*
X21898394Y-55855571D01*
X21798046Y-55613309D01*
X21798041Y-55613299D01*
X21666924Y-55386196D01*
X21507281Y-55178148D01*
X21507274Y-55178140D01*
X21321860Y-54992726D01*
X21321851Y-54992718D01*
X21113803Y-54833075D01*
X20886700Y-54701958D01*
X20886690Y-54701953D01*
X20644428Y-54601605D01*
X20644421Y-54601603D01*
X20644419Y-54601602D01*
X20391116Y-54533730D01*
X20333339Y-54526123D01*
X20131127Y-54499500D01*
X20131120Y-54499500D01*
X19868880Y-54499500D01*
X19868872Y-54499500D01*
X19637772Y-54529926D01*
X19608884Y-54533730D01*
X19544633Y-54550946D01*
X19355581Y-54601602D01*
X19355571Y-54601605D01*
X19113309Y-54701953D01*
X19113299Y-54701958D01*
X18886196Y-54833075D01*
X18678148Y-54992718D01*
X18492718Y-55178148D01*
X18333075Y-55386196D01*
X18201958Y-55613299D01*
X18201953Y-55613309D01*
X18101605Y-55855571D01*
X18101602Y-55855581D01*
X18088629Y-55903999D01*
X18033730Y-56108885D01*
X17999500Y-56368872D01*
X17000499Y-56368872D01*
X16966270Y-56108884D01*
X16898398Y-55855581D01*
X16898394Y-55855571D01*
X16798046Y-55613309D01*
X16798041Y-55613299D01*
X16666924Y-55386196D01*
X16507281Y-55178148D01*
X16507274Y-55178140D01*
X16321860Y-54992726D01*
X16321851Y-54992718D01*
X16113803Y-54833075D01*
X15886700Y-54701958D01*
X15886690Y-54701953D01*
X15644428Y-54601605D01*
X15644421Y-54601603D01*
X15644419Y-54601602D01*
X15391116Y-54533730D01*
X15333339Y-54526123D01*
X15131127Y-54499500D01*
X15131120Y-54499500D01*
X14868880Y-54499500D01*
X14868872Y-54499500D01*
X14637772Y-54529926D01*
X14608884Y-54533730D01*
X14544633Y-54550946D01*
X14355581Y-54601602D01*
X14355571Y-54601605D01*
X14113309Y-54701953D01*
X14113299Y-54701958D01*
X13886196Y-54833075D01*
X13678148Y-54992718D01*
X13492718Y-55178148D01*
X13333075Y-55386196D01*
X13201958Y-55613299D01*
X13201953Y-55613309D01*
X13101605Y-55855571D01*
X13101602Y-55855581D01*
X13088629Y-55903999D01*
X13033730Y-56108885D01*
X12999500Y-56368872D01*
X500500Y-56368872D01*
X500500Y-53878711D01*
X4149500Y-53878711D01*
X4149500Y-54121288D01*
X4181161Y-54361785D01*
X4243947Y-54596104D01*
X4336773Y-54820205D01*
X4336777Y-54820214D01*
X4341760Y-54828844D01*
X4458064Y-55030289D01*
X4458066Y-55030292D01*
X4458067Y-55030293D01*
X4605733Y-55222736D01*
X4605739Y-55222743D01*
X4777256Y-55394260D01*
X4777262Y-55394265D01*
X4969711Y-55541936D01*
X5179788Y-55663224D01*
X5403900Y-55756054D01*
X5638211Y-55818838D01*
X5818586Y-55842584D01*
X5878711Y-55850500D01*
X5878712Y-55850500D01*
X6121289Y-55850500D01*
X6169388Y-55844167D01*
X6361789Y-55818838D01*
X6596100Y-55756054D01*
X6820212Y-55663224D01*
X7030289Y-55541936D01*
X7222738Y-55394265D01*
X7394265Y-55222738D01*
X7541936Y-55030289D01*
X7663224Y-54820212D01*
X7756054Y-54596100D01*
X7818838Y-54361789D01*
X7850500Y-54121288D01*
X7850500Y-53878712D01*
X7818838Y-53638211D01*
X7760677Y-53421153D01*
X24699500Y-53421153D01*
X24699500Y-53578846D01*
X24730261Y-53733489D01*
X24730264Y-53733501D01*
X24790602Y-53879172D01*
X24790609Y-53879185D01*
X24878210Y-54010288D01*
X24878213Y-54010292D01*
X24989707Y-54121786D01*
X24989711Y-54121789D01*
X25120814Y-54209390D01*
X25120827Y-54209397D01*
X25194013Y-54239711D01*
X25266503Y-54269737D01*
X25421158Y-54300500D01*
X25472346Y-54300500D01*
X25578844Y-54300500D01*
X25578845Y-54300499D01*
X25733497Y-54269737D01*
X25879179Y-54209394D01*
X26010289Y-54121789D01*
X26121789Y-54010289D01*
X26209394Y-53879179D01*
X26209588Y-53878712D01*
X26253930Y-53771659D01*
X26269737Y-53733497D01*
X26282138Y-53671153D01*
X51449500Y-53671153D01*
X51449500Y-53828846D01*
X51480261Y-53983489D01*
X51480264Y-53983501D01*
X51540602Y-54129172D01*
X51540609Y-54129185D01*
X51628210Y-54260288D01*
X51628213Y-54260292D01*
X51739707Y-54371786D01*
X51739711Y-54371789D01*
X51870814Y-54459390D01*
X51870827Y-54459397D01*
X51991933Y-54509560D01*
X52016503Y-54519737D01*
X52129326Y-54542179D01*
X52171153Y-54550499D01*
X52171156Y-54550500D01*
X52171158Y-54550500D01*
X52328844Y-54550500D01*
X52328845Y-54550499D01*
X52483497Y-54519737D01*
X52629179Y-54459394D01*
X52760289Y-54371789D01*
X52871789Y-54260289D01*
X52959394Y-54129179D01*
X53019737Y-53983497D01*
X53040486Y-53879185D01*
X53040580Y-53878711D01*
X67149500Y-53878711D01*
X67149500Y-54121288D01*
X67181161Y-54361785D01*
X67243947Y-54596104D01*
X67336773Y-54820205D01*
X67336777Y-54820214D01*
X67341760Y-54828844D01*
X67458064Y-55030289D01*
X67458066Y-55030292D01*
X67458067Y-55030293D01*
X67605733Y-55222736D01*
X67605739Y-55222743D01*
X67777256Y-55394260D01*
X67777262Y-55394265D01*
X67969711Y-55541936D01*
X68179788Y-55663224D01*
X68403900Y-55756054D01*
X68638211Y-55818838D01*
X68818586Y-55842584D01*
X68878711Y-55850500D01*
X68878712Y-55850500D01*
X69121289Y-55850500D01*
X69169388Y-55844167D01*
X69361789Y-55818838D01*
X69596100Y-55756054D01*
X69820212Y-55663224D01*
X70030289Y-55541936D01*
X70222738Y-55394265D01*
X70394265Y-55222738D01*
X70541936Y-55030289D01*
X70663224Y-54820212D01*
X70756054Y-54596100D01*
X70818838Y-54361789D01*
X70850500Y-54121288D01*
X70850500Y-53878712D01*
X70818838Y-53638211D01*
X70756054Y-53403900D01*
X70663224Y-53179788D01*
X70541936Y-52969711D01*
X70472473Y-52879185D01*
X70394266Y-52777263D01*
X70394260Y-52777256D01*
X70222743Y-52605739D01*
X70222736Y-52605733D01*
X70030293Y-52458067D01*
X70030292Y-52458066D01*
X70030289Y-52458064D01*
X69858661Y-52358974D01*
X69820214Y-52336777D01*
X69820205Y-52336773D01*
X69596104Y-52243947D01*
X69432593Y-52200134D01*
X69361789Y-52181162D01*
X69361788Y-52181161D01*
X69361785Y-52181161D01*
X69121289Y-52149500D01*
X69121288Y-52149500D01*
X68878712Y-52149500D01*
X68878711Y-52149500D01*
X68638214Y-52181161D01*
X68403895Y-52243947D01*
X68179794Y-52336773D01*
X68179785Y-52336777D01*
X67969706Y-52458067D01*
X67777263Y-52605733D01*
X67777256Y-52605739D01*
X67605739Y-52777256D01*
X67605733Y-52777263D01*
X67458067Y-52969706D01*
X67336777Y-53179785D01*
X67336773Y-53179794D01*
X67243947Y-53403895D01*
X67181161Y-53638214D01*
X67149500Y-53878711D01*
X53040580Y-53878711D01*
X53046200Y-53850462D01*
X53049559Y-53833571D01*
X53081943Y-53771659D01*
X53128407Y-53743242D01*
X53127869Y-53741941D01*
X53148246Y-53733501D01*
X53279179Y-53679267D01*
X53410289Y-53591662D01*
X53521789Y-53480162D01*
X53609394Y-53349052D01*
X53669737Y-53203370D01*
X53700500Y-53048715D01*
X53700500Y-52895270D01*
X53720185Y-52828231D01*
X53772989Y-52782476D01*
X53842147Y-52772532D01*
X53848677Y-52773650D01*
X53893046Y-52782476D01*
X53983655Y-52800500D01*
X53983658Y-52800500D01*
X54141344Y-52800500D01*
X54141345Y-52800499D01*
X54295997Y-52769737D01*
X54441679Y-52709394D01*
X54572789Y-52621789D01*
X54684289Y-52510289D01*
X54771894Y-52379179D01*
X54832237Y-52233497D01*
X54863000Y-52078842D01*
X54863000Y-51921158D01*
X54863000Y-51921155D01*
X54862999Y-51921153D01*
X54858473Y-51898398D01*
X54832237Y-51766503D01*
X54823055Y-51744336D01*
X54771897Y-51620827D01*
X54771890Y-51620814D01*
X54684289Y-51489711D01*
X54684286Y-51489707D01*
X54572792Y-51378213D01*
X54572788Y-51378210D01*
X54441685Y-51290609D01*
X54441672Y-51290602D01*
X54296001Y-51230264D01*
X54295989Y-51230261D01*
X54141345Y-51199500D01*
X54141342Y-51199500D01*
X53983658Y-51199500D01*
X53983655Y-51199500D01*
X53829010Y-51230261D01*
X53828998Y-51230264D01*
X53683327Y-51290602D01*
X53683314Y-51290609D01*
X53552211Y-51378210D01*
X53552207Y-51378213D01*
X53440713Y-51489707D01*
X53440710Y-51489711D01*
X53353109Y-51620814D01*
X53353102Y-51620827D01*
X53292764Y-51766498D01*
X53292761Y-51766510D01*
X53262000Y-51921153D01*
X53262000Y-52074602D01*
X53242315Y-52141641D01*
X53189511Y-52187396D01*
X53120353Y-52197340D01*
X53113809Y-52196219D01*
X52978845Y-52169373D01*
X52978842Y-52169373D01*
X52821158Y-52169373D01*
X52821155Y-52169373D01*
X52666510Y-52200134D01*
X52666498Y-52200137D01*
X52520827Y-52260475D01*
X52520814Y-52260482D01*
X52389711Y-52348083D01*
X52389707Y-52348086D01*
X52278213Y-52459580D01*
X52278210Y-52459584D01*
X52190609Y-52590687D01*
X52190602Y-52590700D01*
X52130264Y-52736371D01*
X52130261Y-52736381D01*
X52100439Y-52886305D01*
X52068054Y-52948216D01*
X52021593Y-52976636D01*
X52022130Y-52977932D01*
X51870827Y-53040602D01*
X51870814Y-53040609D01*
X51739711Y-53128210D01*
X51739707Y-53128213D01*
X51628213Y-53239707D01*
X51628210Y-53239711D01*
X51540609Y-53370814D01*
X51540602Y-53370827D01*
X51480264Y-53516498D01*
X51480261Y-53516510D01*
X51449500Y-53671153D01*
X26282138Y-53671153D01*
X26297951Y-53591659D01*
X26300500Y-53578844D01*
X26300500Y-53421155D01*
X26300499Y-53421153D01*
X26280326Y-53319737D01*
X26269737Y-53266503D01*
X26266791Y-53259390D01*
X26209397Y-53120827D01*
X26209390Y-53120814D01*
X26121789Y-52989711D01*
X26121786Y-52989707D01*
X26010292Y-52878213D01*
X26010288Y-52878210D01*
X25879185Y-52790609D01*
X25879172Y-52790602D01*
X25733501Y-52730264D01*
X25733489Y-52730261D01*
X25578845Y-52699500D01*
X25578842Y-52699500D01*
X25421158Y-52699500D01*
X25421155Y-52699500D01*
X25266510Y-52730261D01*
X25266498Y-52730264D01*
X25120827Y-52790602D01*
X25120814Y-52790609D01*
X24989711Y-52878210D01*
X24989707Y-52878213D01*
X24878213Y-52989707D01*
X24878210Y-52989711D01*
X24790609Y-53120814D01*
X24790602Y-53120827D01*
X24730264Y-53266498D01*
X24730261Y-53266510D01*
X24699500Y-53421153D01*
X7760677Y-53421153D01*
X7756054Y-53403900D01*
X7663224Y-53179788D01*
X7541936Y-52969711D01*
X7472473Y-52879185D01*
X7394266Y-52777263D01*
X7394260Y-52777256D01*
X7222743Y-52605739D01*
X7222736Y-52605733D01*
X7167621Y-52563442D01*
X7047347Y-52471153D01*
X29199500Y-52471153D01*
X29199500Y-52628846D01*
X29230261Y-52783489D01*
X29230264Y-52783501D01*
X29290602Y-52929172D01*
X29290609Y-52929185D01*
X29378210Y-53060288D01*
X29378213Y-53060292D01*
X29489707Y-53171786D01*
X29489711Y-53171789D01*
X29620814Y-53259390D01*
X29620827Y-53259397D01*
X29720060Y-53300500D01*
X29766503Y-53319737D01*
X29913909Y-53349058D01*
X29921153Y-53350499D01*
X29921156Y-53350500D01*
X29921158Y-53350500D01*
X30078844Y-53350500D01*
X30078845Y-53350499D01*
X30233497Y-53319737D01*
X30379179Y-53259394D01*
X30510289Y-53171789D01*
X30621789Y-53060289D01*
X30709394Y-52929179D01*
X30769737Y-52783497D01*
X30800500Y-52628842D01*
X30800500Y-52471158D01*
X30800500Y-52471155D01*
X30794155Y-52439258D01*
X30794155Y-52439257D01*
X30790554Y-52421153D01*
X34199500Y-52421153D01*
X34199500Y-52578846D01*
X34230261Y-52733489D01*
X34230264Y-52733501D01*
X34290602Y-52879172D01*
X34290609Y-52879185D01*
X34378210Y-53010288D01*
X34378213Y-53010292D01*
X34489707Y-53121786D01*
X34489711Y-53121789D01*
X34620814Y-53209390D01*
X34620827Y-53209397D01*
X34758683Y-53266498D01*
X34766503Y-53269737D01*
X34921153Y-53300499D01*
X34921156Y-53300500D01*
X34921158Y-53300500D01*
X35078844Y-53300500D01*
X35078845Y-53300499D01*
X35233497Y-53269737D01*
X35379179Y-53209394D01*
X35510289Y-53121789D01*
X35621789Y-53010289D01*
X35709394Y-52879179D01*
X35769737Y-52733497D01*
X35800500Y-52578842D01*
X35800500Y-52421158D01*
X35800500Y-52421155D01*
X35800499Y-52421153D01*
X35785965Y-52348086D01*
X35769737Y-52266503D01*
X35742247Y-52200136D01*
X35709397Y-52120827D01*
X35709390Y-52120814D01*
X35621789Y-51989711D01*
X35621786Y-51989707D01*
X35510292Y-51878213D01*
X35510288Y-51878210D01*
X35379185Y-51790609D01*
X35379172Y-51790602D01*
X35233501Y-51730264D01*
X35233489Y-51730261D01*
X35078845Y-51699500D01*
X35078842Y-51699500D01*
X34921158Y-51699500D01*
X34921155Y-51699500D01*
X34766510Y-51730261D01*
X34766498Y-51730264D01*
X34620827Y-51790602D01*
X34620814Y-51790609D01*
X34489711Y-51878210D01*
X34489707Y-51878213D01*
X34378213Y-51989707D01*
X34378210Y-51989711D01*
X34290609Y-52120814D01*
X34290602Y-52120827D01*
X34230264Y-52266498D01*
X34230261Y-52266510D01*
X34199500Y-52421153D01*
X30790554Y-52421153D01*
X30773770Y-52336777D01*
X30769737Y-52316503D01*
X30769735Y-52316498D01*
X30709397Y-52170827D01*
X30709390Y-52170814D01*
X30621789Y-52039711D01*
X30621786Y-52039707D01*
X30510292Y-51928213D01*
X30510288Y-51928210D01*
X30379185Y-51840609D01*
X30379172Y-51840602D01*
X30233501Y-51780264D01*
X30233489Y-51780261D01*
X30078845Y-51749500D01*
X30078842Y-51749500D01*
X29921158Y-51749500D01*
X29921155Y-51749500D01*
X29766510Y-51780261D01*
X29766498Y-51780264D01*
X29620827Y-51840602D01*
X29620814Y-51840609D01*
X29489711Y-51928210D01*
X29489707Y-51928213D01*
X29378213Y-52039707D01*
X29378210Y-52039711D01*
X29290609Y-52170814D01*
X29290602Y-52170827D01*
X29230264Y-52316498D01*
X29230261Y-52316510D01*
X29199500Y-52471153D01*
X7047347Y-52471153D01*
X7030293Y-52458067D01*
X7030292Y-52458066D01*
X7030289Y-52458064D01*
X6858661Y-52358974D01*
X6820214Y-52336777D01*
X6820205Y-52336773D01*
X6596104Y-52243947D01*
X6432593Y-52200134D01*
X6361789Y-52181162D01*
X6361788Y-52181161D01*
X6361785Y-52181161D01*
X6121289Y-52149500D01*
X6121288Y-52149500D01*
X5878712Y-52149500D01*
X5878711Y-52149500D01*
X5638214Y-52181161D01*
X5403895Y-52243947D01*
X5179794Y-52336773D01*
X5179785Y-52336777D01*
X4969706Y-52458067D01*
X4777263Y-52605733D01*
X4777256Y-52605739D01*
X4605739Y-52777256D01*
X4605733Y-52777263D01*
X4458067Y-52969706D01*
X4336777Y-53179785D01*
X4336773Y-53179794D01*
X4243947Y-53403895D01*
X4181161Y-53638214D01*
X4149500Y-53878711D01*
X500500Y-53878711D01*
X500500Y-49868872D01*
X12999500Y-49868872D01*
X12999500Y-50131127D01*
X13023719Y-50315077D01*
X13033730Y-50391116D01*
X13097520Y-50629185D01*
X13101602Y-50644418D01*
X13101605Y-50644428D01*
X13201953Y-50886690D01*
X13201958Y-50886700D01*
X13333075Y-51113803D01*
X13492718Y-51321851D01*
X13492726Y-51321860D01*
X13678140Y-51507274D01*
X13678148Y-51507281D01*
X13678149Y-51507282D01*
X13682068Y-51510289D01*
X13886196Y-51666924D01*
X14113299Y-51798041D01*
X14113309Y-51798046D01*
X14346745Y-51894738D01*
X14355581Y-51898398D01*
X14608884Y-51966270D01*
X14868880Y-52000500D01*
X14868887Y-52000500D01*
X15131113Y-52000500D01*
X15131120Y-52000500D01*
X15391116Y-51966270D01*
X15644419Y-51898398D01*
X15864197Y-51807363D01*
X15886690Y-51798046D01*
X15886691Y-51798045D01*
X15886697Y-51798043D01*
X16113803Y-51666924D01*
X16321851Y-51507282D01*
X16321855Y-51507277D01*
X16321860Y-51507274D01*
X16507274Y-51321860D01*
X16507277Y-51321855D01*
X16507282Y-51321851D01*
X16666924Y-51113803D01*
X16798043Y-50886697D01*
X16898398Y-50644419D01*
X16958222Y-50421153D01*
X19199500Y-50421153D01*
X19199500Y-50578846D01*
X19230261Y-50733489D01*
X19230264Y-50733501D01*
X19290602Y-50879172D01*
X19290609Y-50879185D01*
X19378210Y-51010288D01*
X19378213Y-51010292D01*
X19489707Y-51121786D01*
X19489711Y-51121789D01*
X19620814Y-51209390D01*
X19620827Y-51209397D01*
X19766498Y-51269735D01*
X19766503Y-51269737D01*
X19921153Y-51300499D01*
X19921156Y-51300500D01*
X19921158Y-51300500D01*
X20078844Y-51300500D01*
X20078845Y-51300499D01*
X20233497Y-51269737D01*
X20379179Y-51209394D01*
X20510289Y-51121789D01*
X20621789Y-51010289D01*
X20709394Y-50879179D01*
X20769737Y-50733497D01*
X20800500Y-50578842D01*
X20800500Y-50421158D01*
X20800500Y-50421155D01*
X20800499Y-50421153D01*
X20787393Y-50355264D01*
X20769737Y-50266503D01*
X20756062Y-50233489D01*
X20709397Y-50120827D01*
X20709390Y-50120814D01*
X20621789Y-49989711D01*
X20621786Y-49989707D01*
X20510292Y-49878213D01*
X20510288Y-49878210D01*
X20379185Y-49790609D01*
X20379172Y-49790602D01*
X20233501Y-49730264D01*
X20233489Y-49730261D01*
X20078845Y-49699500D01*
X20078842Y-49699500D01*
X19921158Y-49699500D01*
X19921155Y-49699500D01*
X19766510Y-49730261D01*
X19766498Y-49730264D01*
X19620827Y-49790602D01*
X19620814Y-49790609D01*
X19489711Y-49878210D01*
X19489707Y-49878213D01*
X19378213Y-49989707D01*
X19378210Y-49989711D01*
X19290609Y-50120814D01*
X19290602Y-50120827D01*
X19230264Y-50266498D01*
X19230261Y-50266510D01*
X19199500Y-50421153D01*
X16958222Y-50421153D01*
X16966270Y-50391116D01*
X17000500Y-50131120D01*
X17000500Y-49868880D01*
X16966270Y-49608884D01*
X16898398Y-49355581D01*
X16887323Y-49328844D01*
X16839140Y-49212519D01*
X16822006Y-49171153D01*
X17449500Y-49171153D01*
X17449500Y-49328846D01*
X17480261Y-49483489D01*
X17480264Y-49483501D01*
X17540602Y-49629172D01*
X17540609Y-49629185D01*
X17628210Y-49760288D01*
X17628213Y-49760292D01*
X17739707Y-49871786D01*
X17739711Y-49871789D01*
X17870814Y-49959390D01*
X17870827Y-49959397D01*
X18008683Y-50016498D01*
X18016503Y-50019737D01*
X18171153Y-50050499D01*
X18171156Y-50050500D01*
X18171158Y-50050500D01*
X18328844Y-50050500D01*
X18328845Y-50050499D01*
X18483497Y-50019737D01*
X18621635Y-49962519D01*
X18629172Y-49959397D01*
X18629172Y-49959396D01*
X18629179Y-49959394D01*
X18760289Y-49871789D01*
X18871789Y-49760289D01*
X18959394Y-49629179D01*
X18962854Y-49620827D01*
X18991984Y-49550499D01*
X19019737Y-49483497D01*
X19050500Y-49328842D01*
X19050500Y-49171158D01*
X19050500Y-49171155D01*
X19050499Y-49171153D01*
X22949500Y-49171153D01*
X22949500Y-49328846D01*
X22980261Y-49483489D01*
X22980264Y-49483501D01*
X23040602Y-49629172D01*
X23040609Y-49629185D01*
X23128210Y-49760288D01*
X23128213Y-49760292D01*
X23239707Y-49871786D01*
X23239711Y-49871789D01*
X23370814Y-49959390D01*
X23370818Y-49959392D01*
X23370821Y-49959394D01*
X23458256Y-49995610D01*
X23512656Y-50039449D01*
X23534722Y-50105743D01*
X23525362Y-50157622D01*
X23480264Y-50266498D01*
X23480261Y-50266510D01*
X23449500Y-50421153D01*
X23449500Y-50578846D01*
X23480261Y-50733489D01*
X23480264Y-50733501D01*
X23540602Y-50879172D01*
X23540609Y-50879185D01*
X23628210Y-51010288D01*
X23628213Y-51010292D01*
X23739707Y-51121786D01*
X23739711Y-51121789D01*
X23870814Y-51209390D01*
X23870827Y-51209397D01*
X24016498Y-51269735D01*
X24016503Y-51269737D01*
X24171153Y-51300499D01*
X24171156Y-51300500D01*
X24171158Y-51300500D01*
X24328844Y-51300500D01*
X24328845Y-51300499D01*
X24483497Y-51269737D01*
X24629179Y-51209394D01*
X24760289Y-51121789D01*
X24871789Y-51010289D01*
X24959394Y-50879179D01*
X25019737Y-50733497D01*
X25029508Y-50684373D01*
X25061892Y-50622464D01*
X25122607Y-50587890D01*
X25192377Y-50591629D01*
X25234696Y-50618295D01*
X25235001Y-50617924D01*
X25237957Y-50620350D01*
X25238806Y-50620885D01*
X25239707Y-50621786D01*
X25239711Y-50621789D01*
X25370814Y-50709390D01*
X25370827Y-50709397D01*
X25498751Y-50762384D01*
X25516503Y-50769737D01*
X25671153Y-50800499D01*
X25671156Y-50800500D01*
X25671158Y-50800500D01*
X25828844Y-50800500D01*
X25828845Y-50800499D01*
X25983497Y-50769737D01*
X26114414Y-50715510D01*
X26129172Y-50709397D01*
X26129172Y-50709396D01*
X26129179Y-50709394D01*
X26260289Y-50621789D01*
X26275992Y-50606086D01*
X26337314Y-50572599D01*
X26407006Y-50577582D01*
X26462940Y-50619452D01*
X26487359Y-50684916D01*
X26478237Y-50741216D01*
X26467763Y-50766503D01*
X26467761Y-50766510D01*
X26437000Y-50921153D01*
X26437000Y-51078846D01*
X26467761Y-51233489D01*
X26467764Y-51233501D01*
X26528102Y-51379172D01*
X26528109Y-51379185D01*
X26615710Y-51510288D01*
X26615713Y-51510292D01*
X26727207Y-51621786D01*
X26727211Y-51621789D01*
X26858314Y-51709390D01*
X26858327Y-51709397D01*
X26955146Y-51749500D01*
X27004003Y-51769737D01*
X27146296Y-51798041D01*
X27158653Y-51800499D01*
X27158656Y-51800500D01*
X27158658Y-51800500D01*
X27316344Y-51800500D01*
X27316345Y-51800499D01*
X27470997Y-51769737D01*
X27616679Y-51709394D01*
X27747789Y-51621789D01*
X27859289Y-51510289D01*
X27946894Y-51379179D01*
X28007237Y-51233497D01*
X28038000Y-51078842D01*
X28038000Y-51046153D01*
X30949500Y-51046153D01*
X30949500Y-51203846D01*
X30980261Y-51358489D01*
X30980264Y-51358501D01*
X31040602Y-51504172D01*
X31040609Y-51504185D01*
X31128210Y-51635288D01*
X31128213Y-51635292D01*
X31239707Y-51746786D01*
X31239711Y-51746789D01*
X31370814Y-51834390D01*
X31370827Y-51834397D01*
X31476603Y-51878210D01*
X31516503Y-51894737D01*
X31671153Y-51925499D01*
X31671156Y-51925500D01*
X31671158Y-51925500D01*
X31828844Y-51925500D01*
X31828845Y-51925499D01*
X31983497Y-51894737D01*
X32114182Y-51840606D01*
X32129172Y-51834397D01*
X32129172Y-51834396D01*
X32129179Y-51834394D01*
X32260289Y-51746789D01*
X32371789Y-51635289D01*
X32459394Y-51504179D01*
X32465389Y-51489707D01*
X32511571Y-51378211D01*
X32519737Y-51358497D01*
X32550500Y-51203842D01*
X32550500Y-51046158D01*
X32550500Y-51046155D01*
X32550499Y-51046153D01*
X32519739Y-50891511D01*
X32519735Y-50891498D01*
X32510894Y-50870153D01*
X39199500Y-50870153D01*
X39199500Y-51027846D01*
X39230261Y-51182489D01*
X39230264Y-51182501D01*
X39290602Y-51328172D01*
X39290609Y-51328185D01*
X39378210Y-51459288D01*
X39378213Y-51459292D01*
X39489707Y-51570786D01*
X39489711Y-51570789D01*
X39565451Y-51621398D01*
X39610256Y-51675011D01*
X39618963Y-51744336D01*
X39588808Y-51807363D01*
X39565451Y-51827602D01*
X39489711Y-51878210D01*
X39489707Y-51878213D01*
X39378213Y-51989707D01*
X39378210Y-51989711D01*
X39290609Y-52120814D01*
X39290602Y-52120827D01*
X39230264Y-52266498D01*
X39230261Y-52266510D01*
X39199500Y-52421153D01*
X39199500Y-52578846D01*
X39230261Y-52733489D01*
X39230264Y-52733501D01*
X39290602Y-52879172D01*
X39290609Y-52879185D01*
X39378210Y-53010288D01*
X39378213Y-53010292D01*
X39489707Y-53121786D01*
X39489711Y-53121789D01*
X39620814Y-53209390D01*
X39620827Y-53209397D01*
X39758683Y-53266498D01*
X39766503Y-53269737D01*
X39921153Y-53300499D01*
X39921156Y-53300500D01*
X39921158Y-53300500D01*
X40078844Y-53300500D01*
X40078845Y-53300499D01*
X40233497Y-53269737D01*
X40379179Y-53209394D01*
X40510289Y-53121789D01*
X40621789Y-53010289D01*
X40709394Y-52879179D01*
X40769737Y-52733497D01*
X40800500Y-52578842D01*
X40800500Y-52421158D01*
X40800500Y-52421155D01*
X40800499Y-52421153D01*
X40785965Y-52348086D01*
X40769737Y-52266503D01*
X40742247Y-52200136D01*
X40709397Y-52120827D01*
X40709390Y-52120814D01*
X40621789Y-51989711D01*
X40621786Y-51989707D01*
X40510292Y-51878213D01*
X40510288Y-51878210D01*
X40434548Y-51827602D01*
X40389743Y-51773990D01*
X40381036Y-51704665D01*
X40411190Y-51641637D01*
X40434548Y-51621398D01*
X40463981Y-51601730D01*
X40510289Y-51570789D01*
X40621789Y-51459289D01*
X40709394Y-51328179D01*
X40709397Y-51328172D01*
X40757482Y-51212084D01*
X40801322Y-51157680D01*
X40867617Y-51135615D01*
X40935316Y-51152894D01*
X40982927Y-51204031D01*
X40986604Y-51212084D01*
X41034688Y-51328172D01*
X41034695Y-51328185D01*
X41122296Y-51459288D01*
X41122299Y-51459292D01*
X41233793Y-51570786D01*
X41233797Y-51570789D01*
X41364900Y-51658390D01*
X41364913Y-51658397D01*
X41488040Y-51709397D01*
X41510589Y-51718737D01*
X41639283Y-51744336D01*
X41665239Y-51749499D01*
X41665242Y-51749500D01*
X41665244Y-51749500D01*
X41822930Y-51749500D01*
X41822931Y-51749499D01*
X41977583Y-51718737D01*
X42123265Y-51658394D01*
X42254375Y-51570789D01*
X42365875Y-51459289D01*
X42453480Y-51328179D01*
X42513823Y-51182497D01*
X42544586Y-51027842D01*
X42544586Y-50870158D01*
X42544586Y-50870155D01*
X42544585Y-50870153D01*
X42523969Y-50766510D01*
X42513823Y-50715503D01*
X42504903Y-50693968D01*
X42453483Y-50569827D01*
X42453476Y-50569814D01*
X42365875Y-50438711D01*
X42365872Y-50438707D01*
X42338845Y-50411680D01*
X42305360Y-50350357D01*
X42310344Y-50280665D01*
X42352216Y-50224732D01*
X42373879Y-50212395D01*
X42373809Y-50212264D01*
X42378719Y-50209639D01*
X42379075Y-50209437D01*
X42379179Y-50209394D01*
X42436411Y-50171153D01*
X54699500Y-50171153D01*
X54699500Y-50328846D01*
X54730261Y-50483489D01*
X54730264Y-50483501D01*
X54790602Y-50629172D01*
X54790609Y-50629185D01*
X54878210Y-50760288D01*
X54878213Y-50760292D01*
X54989707Y-50871786D01*
X54989711Y-50871789D01*
X55120814Y-50959390D01*
X55120827Y-50959397D01*
X55266498Y-51019735D01*
X55266503Y-51019737D01*
X55421153Y-51050499D01*
X55421156Y-51050500D01*
X55421158Y-51050500D01*
X55578844Y-51050500D01*
X55578845Y-51050499D01*
X55733497Y-51019737D01*
X55879179Y-50959394D01*
X56010289Y-50871789D01*
X56121789Y-50760289D01*
X56209394Y-50629179D01*
X56212176Y-50622464D01*
X56261571Y-50503211D01*
X56269737Y-50483497D01*
X56300500Y-50328842D01*
X56300500Y-50171158D01*
X56300500Y-50171155D01*
X56300499Y-50171153D01*
X56299938Y-50168334D01*
X56269737Y-50016503D01*
X56230242Y-49921153D01*
X58699500Y-49921153D01*
X58699500Y-50078846D01*
X58730261Y-50233489D01*
X58730264Y-50233501D01*
X58790602Y-50379172D01*
X58790609Y-50379185D01*
X58878210Y-50510288D01*
X58878213Y-50510292D01*
X58989707Y-50621786D01*
X58989711Y-50621789D01*
X59120814Y-50709390D01*
X59120827Y-50709397D01*
X59248751Y-50762384D01*
X59266503Y-50769737D01*
X59421153Y-50800499D01*
X59421156Y-50800500D01*
X59421158Y-50800500D01*
X59578844Y-50800500D01*
X59578845Y-50800499D01*
X59733497Y-50769737D01*
X59864414Y-50715510D01*
X59879172Y-50709397D01*
X59879172Y-50709396D01*
X59879179Y-50709394D01*
X60010289Y-50621789D01*
X60121789Y-50510289D01*
X60209394Y-50379179D01*
X60269737Y-50233497D01*
X60300500Y-50078842D01*
X60300500Y-49921158D01*
X60300500Y-49921155D01*
X60300499Y-49921153D01*
X60290101Y-49868880D01*
X60269737Y-49766503D01*
X60264720Y-49754390D01*
X60209397Y-49620827D01*
X60209390Y-49620814D01*
X60121789Y-49489711D01*
X60121786Y-49489707D01*
X60010292Y-49378213D01*
X60010288Y-49378210D01*
X59879185Y-49290609D01*
X59879172Y-49290602D01*
X59733501Y-49230264D01*
X59733489Y-49230261D01*
X59578845Y-49199500D01*
X59578842Y-49199500D01*
X59421158Y-49199500D01*
X59421155Y-49199500D01*
X59266510Y-49230261D01*
X59266498Y-49230264D01*
X59120827Y-49290602D01*
X59120814Y-49290609D01*
X58989711Y-49378210D01*
X58989707Y-49378213D01*
X58878213Y-49489707D01*
X58878210Y-49489711D01*
X58790609Y-49620814D01*
X58790602Y-49620827D01*
X58730264Y-49766498D01*
X58730261Y-49766510D01*
X58699500Y-49921153D01*
X56230242Y-49921153D01*
X56213050Y-49879647D01*
X56209397Y-49870827D01*
X56209390Y-49870814D01*
X56121789Y-49739711D01*
X56121786Y-49739707D01*
X56010292Y-49628213D01*
X56010288Y-49628210D01*
X55879185Y-49540609D01*
X55879172Y-49540602D01*
X55733501Y-49480264D01*
X55733489Y-49480261D01*
X55578845Y-49449500D01*
X55578842Y-49449500D01*
X55421158Y-49449500D01*
X55421155Y-49449500D01*
X55266510Y-49480261D01*
X55266498Y-49480264D01*
X55120827Y-49540602D01*
X55120814Y-49540609D01*
X54989711Y-49628210D01*
X54989707Y-49628213D01*
X54878213Y-49739707D01*
X54878210Y-49739711D01*
X54790609Y-49870814D01*
X54790602Y-49870827D01*
X54730264Y-50016498D01*
X54730261Y-50016510D01*
X54699500Y-50171153D01*
X42436411Y-50171153D01*
X42510289Y-50121789D01*
X42526335Y-50105743D01*
X42554694Y-50077385D01*
X42621786Y-50010292D01*
X42621789Y-50010289D01*
X42709394Y-49879179D01*
X42712854Y-49870827D01*
X42741984Y-49800499D01*
X42769737Y-49733497D01*
X42800500Y-49578842D01*
X42800500Y-49421158D01*
X42800500Y-49421155D01*
X42800499Y-49421153D01*
X42774531Y-49290606D01*
X42769737Y-49266503D01*
X42756062Y-49233489D01*
X42709397Y-49120827D01*
X42709390Y-49120814D01*
X42624248Y-48993391D01*
X42603370Y-48926714D01*
X42621854Y-48859334D01*
X42673833Y-48812643D01*
X42727350Y-48800500D01*
X42828844Y-48800500D01*
X42828845Y-48800499D01*
X42983497Y-48769737D01*
X43037390Y-48747413D01*
X43106859Y-48739945D01*
X43169338Y-48771220D01*
X43204990Y-48831309D01*
X43206460Y-48886164D01*
X43199500Y-48921157D01*
X43199500Y-49078846D01*
X43230261Y-49233489D01*
X43230264Y-49233501D01*
X43290602Y-49379172D01*
X43290609Y-49379185D01*
X43378210Y-49510288D01*
X43378213Y-49510292D01*
X43489707Y-49621786D01*
X43489711Y-49621789D01*
X43620814Y-49709390D01*
X43620827Y-49709397D01*
X43758683Y-49766498D01*
X43766503Y-49769737D01*
X43921153Y-49800499D01*
X43921156Y-49800500D01*
X43921158Y-49800500D01*
X44078844Y-49800500D01*
X44078845Y-49800499D01*
X44233497Y-49769737D01*
X44379179Y-49709394D01*
X44510289Y-49621789D01*
X44621789Y-49510289D01*
X44709394Y-49379179D01*
X44769737Y-49233497D01*
X44800500Y-49078842D01*
X44800500Y-48921158D01*
X44800500Y-48921157D01*
X44800500Y-48921155D01*
X44800499Y-48921153D01*
X44793546Y-48886197D01*
X44769737Y-48766503D01*
X44761830Y-48747414D01*
X44709397Y-48620827D01*
X44709390Y-48620814D01*
X44621789Y-48489711D01*
X44621786Y-48489707D01*
X44510292Y-48378213D01*
X44510288Y-48378210D01*
X44379185Y-48290609D01*
X44379172Y-48290602D01*
X44233501Y-48230264D01*
X44233489Y-48230261D01*
X44078845Y-48199500D01*
X44078842Y-48199500D01*
X43922902Y-48199500D01*
X43855863Y-48179815D01*
X43810108Y-48127011D01*
X43800164Y-48057853D01*
X43829189Y-47994297D01*
X43875451Y-47960938D01*
X43879179Y-47959394D01*
X43936411Y-47921153D01*
X47199500Y-47921153D01*
X47199500Y-48078846D01*
X47230261Y-48233489D01*
X47230264Y-48233501D01*
X47290602Y-48379172D01*
X47290609Y-48379185D01*
X47378210Y-48510288D01*
X47378213Y-48510292D01*
X47489707Y-48621786D01*
X47489711Y-48621789D01*
X47620814Y-48709390D01*
X47620827Y-48709397D01*
X47694013Y-48739711D01*
X47766503Y-48769737D01*
X47920680Y-48800405D01*
X47921153Y-48800499D01*
X47921156Y-48800500D01*
X47921158Y-48800500D01*
X48078841Y-48800500D01*
X48078842Y-48800500D01*
X48078842Y-48800499D01*
X48079806Y-48800405D01*
X48080307Y-48800500D01*
X48084934Y-48800500D01*
X48084934Y-48801377D01*
X48148452Y-48813424D01*
X48199162Y-48861489D01*
X48213577Y-48899616D01*
X48230261Y-48983491D01*
X48230264Y-48983501D01*
X48290602Y-49129172D01*
X48290609Y-49129185D01*
X48378210Y-49260288D01*
X48378213Y-49260292D01*
X48489707Y-49371786D01*
X48489711Y-49371789D01*
X48620814Y-49459390D01*
X48620827Y-49459397D01*
X48766498Y-49519735D01*
X48766503Y-49519737D01*
X48921153Y-49550499D01*
X48921156Y-49550500D01*
X48921158Y-49550500D01*
X49078844Y-49550500D01*
X49078845Y-49550499D01*
X49233497Y-49519737D01*
X49379179Y-49459394D01*
X49510289Y-49371789D01*
X49621789Y-49260289D01*
X49709394Y-49129179D01*
X49712854Y-49120827D01*
X49730244Y-49078842D01*
X49769737Y-48983497D01*
X49800500Y-48828842D01*
X49800500Y-48671158D01*
X49800500Y-48671155D01*
X49800499Y-48671153D01*
X49774531Y-48540606D01*
X49769737Y-48516503D01*
X49759885Y-48492718D01*
X49709397Y-48370827D01*
X49709390Y-48370814D01*
X49621789Y-48239711D01*
X49621786Y-48239707D01*
X49510292Y-48128213D01*
X49510288Y-48128210D01*
X49379185Y-48040609D01*
X49379172Y-48040602D01*
X49233501Y-47980264D01*
X49233489Y-47980261D01*
X49078845Y-47949500D01*
X49078842Y-47949500D01*
X48921158Y-47949500D01*
X48921150Y-47949500D01*
X48920174Y-47949596D01*
X48919668Y-47949500D01*
X48915066Y-47949500D01*
X48915066Y-47948626D01*
X48851530Y-47936566D01*
X48800827Y-47888494D01*
X48786422Y-47850382D01*
X48769738Y-47766510D01*
X48769737Y-47766503D01*
X48746080Y-47709390D01*
X48709397Y-47620827D01*
X48709390Y-47620814D01*
X48621789Y-47489711D01*
X48621786Y-47489707D01*
X48510292Y-47378213D01*
X48510288Y-47378210D01*
X48379185Y-47290609D01*
X48379172Y-47290602D01*
X48233501Y-47230264D01*
X48233489Y-47230261D01*
X48078845Y-47199500D01*
X48078842Y-47199500D01*
X47921158Y-47199500D01*
X47921155Y-47199500D01*
X47766510Y-47230261D01*
X47766498Y-47230264D01*
X47620827Y-47290602D01*
X47620814Y-47290609D01*
X47489711Y-47378210D01*
X47489707Y-47378213D01*
X47378213Y-47489707D01*
X47378210Y-47489711D01*
X47290609Y-47620814D01*
X47290602Y-47620827D01*
X47230264Y-47766498D01*
X47230261Y-47766510D01*
X47199500Y-47921153D01*
X43936411Y-47921153D01*
X44010289Y-47871789D01*
X44031696Y-47850382D01*
X44054694Y-47827385D01*
X44121786Y-47760292D01*
X44121789Y-47760289D01*
X44209394Y-47629179D01*
X44212854Y-47620827D01*
X44267163Y-47489711D01*
X44269737Y-47483497D01*
X44300500Y-47328842D01*
X44300500Y-47171158D01*
X44300500Y-47171155D01*
X44300499Y-47171153D01*
X44276499Y-47050499D01*
X44269737Y-47016503D01*
X44230242Y-46921153D01*
X44209397Y-46870827D01*
X44209390Y-46870814D01*
X44121789Y-46739711D01*
X44121786Y-46739707D01*
X44010292Y-46628213D01*
X44010288Y-46628210D01*
X43879185Y-46540609D01*
X43879173Y-46540602D01*
X43852674Y-46529627D01*
X43733501Y-46480264D01*
X43733489Y-46480261D01*
X43578845Y-46449500D01*
X43578842Y-46449500D01*
X43421158Y-46449500D01*
X43421155Y-46449500D01*
X43266510Y-46480261D01*
X43266498Y-46480264D01*
X43120827Y-46540602D01*
X43120814Y-46540609D01*
X42989711Y-46628210D01*
X42989707Y-46628213D01*
X42878213Y-46739707D01*
X42878210Y-46739711D01*
X42790609Y-46870814D01*
X42790602Y-46870827D01*
X42730264Y-47016498D01*
X42730261Y-47016508D01*
X42710961Y-47113536D01*
X42678576Y-47175447D01*
X42617860Y-47210021D01*
X42613536Y-47210961D01*
X42516508Y-47230261D01*
X42516498Y-47230264D01*
X42370827Y-47290602D01*
X42370814Y-47290609D01*
X42239711Y-47378210D01*
X42239707Y-47378213D01*
X42128213Y-47489707D01*
X42128210Y-47489711D01*
X42040609Y-47620814D01*
X42040602Y-47620827D01*
X41980264Y-47766498D01*
X41980261Y-47766510D01*
X41949500Y-47921153D01*
X41949500Y-48078846D01*
X41980261Y-48233489D01*
X41980264Y-48233501D01*
X42040602Y-48379172D01*
X42040609Y-48379185D01*
X42125752Y-48506609D01*
X42146630Y-48573286D01*
X42128146Y-48640666D01*
X42076167Y-48687357D01*
X42022650Y-48699500D01*
X41921155Y-48699500D01*
X41766510Y-48730261D01*
X41766498Y-48730264D01*
X41620827Y-48790602D01*
X41620814Y-48790609D01*
X41489711Y-48878210D01*
X41489707Y-48878213D01*
X41378213Y-48989707D01*
X41378210Y-48989711D01*
X41290609Y-49120814D01*
X41290602Y-49120827D01*
X41230264Y-49266498D01*
X41230261Y-49266510D01*
X41199500Y-49421153D01*
X41199500Y-49578846D01*
X41230261Y-49733489D01*
X41230264Y-49733501D01*
X41290602Y-49879172D01*
X41290609Y-49879185D01*
X41378210Y-50010288D01*
X41378213Y-50010292D01*
X41405240Y-50037319D01*
X41438725Y-50098642D01*
X41433741Y-50168334D01*
X41391869Y-50224267D01*
X41370207Y-50236605D01*
X41370277Y-50236736D01*
X41365424Y-50239329D01*
X41365034Y-50239552D01*
X41364919Y-50239599D01*
X41364900Y-50239609D01*
X41233797Y-50327210D01*
X41233793Y-50327213D01*
X41122299Y-50438707D01*
X41122296Y-50438711D01*
X41034695Y-50569814D01*
X41034688Y-50569827D01*
X40986604Y-50685915D01*
X40942763Y-50740319D01*
X40876469Y-50762384D01*
X40808770Y-50745105D01*
X40761159Y-50693968D01*
X40757482Y-50685915D01*
X40709397Y-50569827D01*
X40709390Y-50569814D01*
X40621789Y-50438711D01*
X40621786Y-50438707D01*
X40510292Y-50327213D01*
X40510288Y-50327210D01*
X40379185Y-50239609D01*
X40379172Y-50239602D01*
X40233501Y-50179264D01*
X40233489Y-50179261D01*
X40078845Y-50148500D01*
X40078842Y-50148500D01*
X39921158Y-50148500D01*
X39921155Y-50148500D01*
X39766510Y-50179261D01*
X39766498Y-50179264D01*
X39620827Y-50239602D01*
X39620814Y-50239609D01*
X39489711Y-50327210D01*
X39489707Y-50327213D01*
X39378213Y-50438707D01*
X39378210Y-50438711D01*
X39290609Y-50569814D01*
X39290602Y-50569827D01*
X39230264Y-50715498D01*
X39230261Y-50715510D01*
X39199500Y-50870153D01*
X32510894Y-50870153D01*
X32459397Y-50745827D01*
X32459390Y-50745814D01*
X32371789Y-50614711D01*
X32371786Y-50614707D01*
X32260292Y-50503213D01*
X32260288Y-50503210D01*
X32129185Y-50415609D01*
X32129172Y-50415602D01*
X31983501Y-50355264D01*
X31983489Y-50355261D01*
X31828845Y-50324500D01*
X31828842Y-50324500D01*
X31671158Y-50324500D01*
X31671155Y-50324500D01*
X31516510Y-50355261D01*
X31516498Y-50355264D01*
X31370827Y-50415602D01*
X31370814Y-50415609D01*
X31239711Y-50503210D01*
X31239707Y-50503213D01*
X31128213Y-50614707D01*
X31128210Y-50614711D01*
X31040609Y-50745814D01*
X31040602Y-50745827D01*
X30980264Y-50891498D01*
X30980261Y-50891510D01*
X30949500Y-51046153D01*
X28038000Y-51046153D01*
X28038000Y-50921158D01*
X28038000Y-50921155D01*
X28037999Y-50921153D01*
X28007238Y-50766510D01*
X28007237Y-50766503D01*
X27998670Y-50745821D01*
X27946897Y-50620827D01*
X27946890Y-50620814D01*
X27859289Y-50489711D01*
X27859286Y-50489707D01*
X27747792Y-50378213D01*
X27747788Y-50378210D01*
X27616685Y-50290609D01*
X27616672Y-50290602D01*
X27471001Y-50230264D01*
X27470989Y-50230261D01*
X27316345Y-50199500D01*
X27316342Y-50199500D01*
X27158658Y-50199500D01*
X27158655Y-50199500D01*
X27004010Y-50230261D01*
X27003998Y-50230264D01*
X26858327Y-50290602D01*
X26858314Y-50290609D01*
X26727211Y-50378210D01*
X26727206Y-50378214D01*
X26711503Y-50393917D01*
X26650179Y-50427401D01*
X26580488Y-50422415D01*
X26524555Y-50380542D01*
X26500140Y-50315077D01*
X26509263Y-50258782D01*
X26519737Y-50233497D01*
X26550500Y-50078842D01*
X26550500Y-49921158D01*
X26550500Y-49921155D01*
X26550499Y-49921153D01*
X26540101Y-49868880D01*
X26519737Y-49766503D01*
X26514720Y-49754390D01*
X26459397Y-49620827D01*
X26459390Y-49620814D01*
X26371789Y-49489711D01*
X26371786Y-49489707D01*
X26260292Y-49378213D01*
X26260288Y-49378210D01*
X26129185Y-49290609D01*
X26129172Y-49290602D01*
X25983501Y-49230264D01*
X25983489Y-49230261D01*
X25828845Y-49199500D01*
X25828842Y-49199500D01*
X25671158Y-49199500D01*
X25671155Y-49199500D01*
X25516510Y-49230261D01*
X25516498Y-49230264D01*
X25370827Y-49290602D01*
X25370814Y-49290609D01*
X25239711Y-49378210D01*
X25239707Y-49378213D01*
X25128213Y-49489707D01*
X25128210Y-49489711D01*
X25040609Y-49620814D01*
X25040602Y-49620827D01*
X24980264Y-49766498D01*
X24980261Y-49766507D01*
X24970491Y-49815626D01*
X24938105Y-49877536D01*
X24877389Y-49912110D01*
X24807620Y-49908369D01*
X24765303Y-49881704D01*
X24764999Y-49882076D01*
X24762040Y-49879647D01*
X24761193Y-49879114D01*
X24760292Y-49878213D01*
X24760288Y-49878210D01*
X24629185Y-49790609D01*
X24629176Y-49790604D01*
X24541746Y-49754390D01*
X24487343Y-49710549D01*
X24465278Y-49644255D01*
X24474638Y-49592377D01*
X24496082Y-49540606D01*
X24519737Y-49483497D01*
X24550500Y-49328842D01*
X24550500Y-49171158D01*
X24550500Y-49171155D01*
X24550499Y-49171153D01*
X24519738Y-49016510D01*
X24519737Y-49016503D01*
X24480242Y-48921153D01*
X27199500Y-48921153D01*
X27199500Y-49078846D01*
X27230261Y-49233489D01*
X27230264Y-49233501D01*
X27290602Y-49379172D01*
X27290609Y-49379185D01*
X27378210Y-49510288D01*
X27378213Y-49510292D01*
X27489707Y-49621786D01*
X27489711Y-49621789D01*
X27620814Y-49709390D01*
X27620827Y-49709397D01*
X27758683Y-49766498D01*
X27766503Y-49769737D01*
X27921153Y-49800499D01*
X27921156Y-49800500D01*
X27921158Y-49800500D01*
X28078844Y-49800500D01*
X28078845Y-49800499D01*
X28233497Y-49769737D01*
X28379179Y-49709394D01*
X28510289Y-49621789D01*
X28621789Y-49510289D01*
X28709394Y-49379179D01*
X28769737Y-49233497D01*
X28800500Y-49078842D01*
X28800500Y-48921158D01*
X28800500Y-48921157D01*
X28800500Y-48921155D01*
X28800499Y-48921153D01*
X31699500Y-48921153D01*
X31699500Y-49078846D01*
X31730261Y-49233489D01*
X31730264Y-49233501D01*
X31790602Y-49379172D01*
X31790609Y-49379185D01*
X31878210Y-49510288D01*
X31878213Y-49510292D01*
X31989707Y-49621786D01*
X31989711Y-49621789D01*
X32120814Y-49709390D01*
X32120827Y-49709397D01*
X32258683Y-49766498D01*
X32266503Y-49769737D01*
X32421153Y-49800499D01*
X32421156Y-49800500D01*
X32421158Y-49800500D01*
X32578844Y-49800500D01*
X32578845Y-49800499D01*
X32733497Y-49769737D01*
X32879179Y-49709394D01*
X33010289Y-49621789D01*
X33121789Y-49510289D01*
X33209394Y-49379179D01*
X33269737Y-49233497D01*
X33300500Y-49078842D01*
X33300500Y-48921158D01*
X33300500Y-48921157D01*
X33300500Y-48921155D01*
X33300499Y-48921153D01*
X33293546Y-48886197D01*
X33269737Y-48766503D01*
X33261830Y-48747414D01*
X33209397Y-48620827D01*
X33209390Y-48620814D01*
X33121789Y-48489711D01*
X33121786Y-48489707D01*
X33010292Y-48378213D01*
X33010288Y-48378210D01*
X32879185Y-48290609D01*
X32879172Y-48290602D01*
X32733501Y-48230264D01*
X32733489Y-48230261D01*
X32578845Y-48199500D01*
X32578842Y-48199500D01*
X32421158Y-48199500D01*
X32421155Y-48199500D01*
X32266510Y-48230261D01*
X32266498Y-48230264D01*
X32120827Y-48290602D01*
X32120814Y-48290609D01*
X31989711Y-48378210D01*
X31989707Y-48378213D01*
X31878213Y-48489707D01*
X31878210Y-48489711D01*
X31790609Y-48620814D01*
X31790602Y-48620827D01*
X31730264Y-48766498D01*
X31730261Y-48766510D01*
X31699500Y-48921153D01*
X28800499Y-48921153D01*
X28793546Y-48886197D01*
X28769737Y-48766503D01*
X28761830Y-48747414D01*
X28709397Y-48620827D01*
X28709390Y-48620814D01*
X28621789Y-48489711D01*
X28621786Y-48489707D01*
X28510292Y-48378213D01*
X28510288Y-48378210D01*
X28379185Y-48290609D01*
X28379172Y-48290602D01*
X28233501Y-48230264D01*
X28233489Y-48230261D01*
X28078845Y-48199500D01*
X28078842Y-48199500D01*
X27921158Y-48199500D01*
X27921155Y-48199500D01*
X27766510Y-48230261D01*
X27766498Y-48230264D01*
X27620827Y-48290602D01*
X27620814Y-48290609D01*
X27489711Y-48378210D01*
X27489707Y-48378213D01*
X27378213Y-48489707D01*
X27378210Y-48489711D01*
X27290609Y-48620814D01*
X27290602Y-48620827D01*
X27230264Y-48766498D01*
X27230261Y-48766510D01*
X27199500Y-48921153D01*
X24480242Y-48921153D01*
X24465763Y-48886197D01*
X24459397Y-48870827D01*
X24459390Y-48870814D01*
X24371789Y-48739711D01*
X24371786Y-48739707D01*
X24260292Y-48628213D01*
X24260288Y-48628210D01*
X24129185Y-48540609D01*
X24129172Y-48540602D01*
X23983501Y-48480264D01*
X23983489Y-48480261D01*
X23828845Y-48449500D01*
X23828842Y-48449500D01*
X23671158Y-48449500D01*
X23671155Y-48449500D01*
X23516510Y-48480261D01*
X23516498Y-48480264D01*
X23370827Y-48540602D01*
X23370814Y-48540609D01*
X23239711Y-48628210D01*
X23239707Y-48628213D01*
X23128213Y-48739707D01*
X23128210Y-48739711D01*
X23040609Y-48870814D01*
X23040602Y-48870827D01*
X22980264Y-49016498D01*
X22980261Y-49016510D01*
X22949500Y-49171153D01*
X19050499Y-49171153D01*
X19019738Y-49016510D01*
X19019737Y-49016503D01*
X19010164Y-48993391D01*
X18959397Y-48870827D01*
X18959390Y-48870814D01*
X18871789Y-48739711D01*
X18871786Y-48739707D01*
X18760292Y-48628213D01*
X18760288Y-48628210D01*
X18629185Y-48540609D01*
X18629172Y-48540602D01*
X18483501Y-48480264D01*
X18483489Y-48480261D01*
X18328845Y-48449500D01*
X18328842Y-48449500D01*
X18171158Y-48449500D01*
X18171155Y-48449500D01*
X18016510Y-48480261D01*
X18016498Y-48480264D01*
X17870827Y-48540602D01*
X17870814Y-48540609D01*
X17739711Y-48628210D01*
X17739707Y-48628213D01*
X17628213Y-48739707D01*
X17628210Y-48739711D01*
X17540609Y-48870814D01*
X17540602Y-48870827D01*
X17480264Y-49016498D01*
X17480261Y-49016510D01*
X17449500Y-49171153D01*
X16822006Y-49171153D01*
X16798046Y-49113309D01*
X16798041Y-49113299D01*
X16666924Y-48886196D01*
X16523665Y-48699500D01*
X16507282Y-48678149D01*
X16507281Y-48678148D01*
X16507274Y-48678140D01*
X16321860Y-48492726D01*
X16321851Y-48492718D01*
X16113803Y-48333075D01*
X15886700Y-48201958D01*
X15886690Y-48201953D01*
X15644428Y-48101605D01*
X15644421Y-48101603D01*
X15644419Y-48101602D01*
X15391116Y-48033730D01*
X15333339Y-48026123D01*
X15131127Y-47999500D01*
X15131120Y-47999500D01*
X14868880Y-47999500D01*
X14868872Y-47999500D01*
X14637772Y-48029926D01*
X14608884Y-48033730D01*
X14440508Y-48078846D01*
X14355581Y-48101602D01*
X14355571Y-48101605D01*
X14113309Y-48201953D01*
X14113299Y-48201958D01*
X13886196Y-48333075D01*
X13678148Y-48492718D01*
X13492718Y-48678148D01*
X13333075Y-48886196D01*
X13201958Y-49113299D01*
X13201953Y-49113309D01*
X13101605Y-49355571D01*
X13101602Y-49355581D01*
X13033730Y-49608884D01*
X13031185Y-49628213D01*
X12999500Y-49868872D01*
X500500Y-49868872D01*
X500500Y-46171153D01*
X18949500Y-46171153D01*
X18949500Y-46328846D01*
X18980261Y-46483489D01*
X18980264Y-46483501D01*
X19040602Y-46629172D01*
X19040609Y-46629185D01*
X19128210Y-46760288D01*
X19128213Y-46760292D01*
X19239707Y-46871786D01*
X19239711Y-46871789D01*
X19370814Y-46959390D01*
X19370827Y-46959397D01*
X19508683Y-47016498D01*
X19516503Y-47019737D01*
X19670680Y-47050405D01*
X19671153Y-47050499D01*
X19671156Y-47050500D01*
X19671158Y-47050500D01*
X19828841Y-47050500D01*
X19828842Y-47050500D01*
X19828842Y-47050499D01*
X19829806Y-47050405D01*
X19830307Y-47050500D01*
X19834934Y-47050500D01*
X19834934Y-47051377D01*
X19898452Y-47063424D01*
X19949162Y-47111489D01*
X19963577Y-47149616D01*
X19980261Y-47233491D01*
X19980264Y-47233501D01*
X20040602Y-47379172D01*
X20040609Y-47379185D01*
X20128210Y-47510288D01*
X20128213Y-47510292D01*
X20239707Y-47621786D01*
X20239711Y-47621789D01*
X20370814Y-47709390D01*
X20370827Y-47709397D01*
X20508683Y-47766498D01*
X20516503Y-47769737D01*
X20671153Y-47800499D01*
X20671156Y-47800500D01*
X20671158Y-47800500D01*
X20828844Y-47800500D01*
X20828845Y-47800499D01*
X20983497Y-47769737D01*
X21129179Y-47709394D01*
X21260289Y-47621789D01*
X21371789Y-47510289D01*
X21459394Y-47379179D01*
X21519737Y-47233497D01*
X21550500Y-47078842D01*
X21550500Y-46921158D01*
X21550500Y-46921155D01*
X21550499Y-46921153D01*
X21540486Y-46870814D01*
X21519737Y-46766503D01*
X21517163Y-46760288D01*
X21459397Y-46620827D01*
X21459390Y-46620814D01*
X21371789Y-46489711D01*
X21371786Y-46489707D01*
X21260292Y-46378213D01*
X21260288Y-46378210D01*
X21159931Y-46311153D01*
X30247000Y-46311153D01*
X30247000Y-46468846D01*
X30277761Y-46623489D01*
X30277764Y-46623501D01*
X30338102Y-46769172D01*
X30338109Y-46769185D01*
X30425710Y-46900288D01*
X30425713Y-46900292D01*
X30537207Y-47011786D01*
X30537211Y-47011789D01*
X30668314Y-47099390D01*
X30668327Y-47099397D01*
X30813998Y-47159735D01*
X30814003Y-47159737D01*
X30968653Y-47190499D01*
X30968656Y-47190500D01*
X30968658Y-47190500D01*
X31126344Y-47190500D01*
X31126345Y-47190499D01*
X31280997Y-47159737D01*
X31426679Y-47099394D01*
X31557789Y-47011789D01*
X31669289Y-46900289D01*
X31756894Y-46769179D01*
X31758003Y-46766503D01*
X31796949Y-46672476D01*
X31817237Y-46623497D01*
X31848000Y-46468842D01*
X31848000Y-46311158D01*
X31848000Y-46311155D01*
X31847999Y-46311153D01*
X31817237Y-46156503D01*
X31817235Y-46156498D01*
X31756897Y-46010827D01*
X31756890Y-46010814D01*
X31669289Y-45879711D01*
X31669286Y-45879707D01*
X31557792Y-45768213D01*
X31557788Y-45768210D01*
X31426685Y-45680609D01*
X31426672Y-45680602D01*
X31281001Y-45620264D01*
X31280989Y-45620261D01*
X31126345Y-45589500D01*
X31126342Y-45589500D01*
X30968658Y-45589500D01*
X30968655Y-45589500D01*
X30814010Y-45620261D01*
X30813998Y-45620264D01*
X30668327Y-45680602D01*
X30668314Y-45680609D01*
X30537211Y-45768210D01*
X30537207Y-45768213D01*
X30425713Y-45879707D01*
X30425710Y-45879711D01*
X30338109Y-46010814D01*
X30338102Y-46010827D01*
X30277764Y-46156498D01*
X30277761Y-46156510D01*
X30247000Y-46311153D01*
X21159931Y-46311153D01*
X21129185Y-46290609D01*
X21129172Y-46290602D01*
X20983501Y-46230264D01*
X20983489Y-46230261D01*
X20828845Y-46199500D01*
X20828842Y-46199500D01*
X20671158Y-46199500D01*
X20671150Y-46199500D01*
X20670174Y-46199596D01*
X20669668Y-46199500D01*
X20665066Y-46199500D01*
X20665066Y-46198626D01*
X20601530Y-46186566D01*
X20550827Y-46138494D01*
X20536422Y-46100382D01*
X20519738Y-46016510D01*
X20519737Y-46016503D01*
X20517386Y-46010827D01*
X20459397Y-45870827D01*
X20459390Y-45870814D01*
X20371789Y-45739711D01*
X20371786Y-45739707D01*
X20260292Y-45628213D01*
X20260288Y-45628210D01*
X20129185Y-45540609D01*
X20129172Y-45540602D01*
X19983501Y-45480264D01*
X19983489Y-45480261D01*
X19828845Y-45449500D01*
X19828842Y-45449500D01*
X19671158Y-45449500D01*
X19671155Y-45449500D01*
X19516510Y-45480261D01*
X19516498Y-45480264D01*
X19370827Y-45540602D01*
X19370814Y-45540609D01*
X19239711Y-45628210D01*
X19239707Y-45628213D01*
X19128213Y-45739707D01*
X19128210Y-45739711D01*
X19040609Y-45870814D01*
X19040602Y-45870827D01*
X18980264Y-46016498D01*
X18980261Y-46016510D01*
X18949500Y-46171153D01*
X500500Y-46171153D01*
X500500Y-44921153D01*
X4199500Y-44921153D01*
X4199500Y-45078846D01*
X4230261Y-45233489D01*
X4230264Y-45233501D01*
X4290602Y-45379172D01*
X4290609Y-45379185D01*
X4378210Y-45510288D01*
X4378213Y-45510292D01*
X4489707Y-45621786D01*
X4489711Y-45621789D01*
X4620814Y-45709390D01*
X4620827Y-45709397D01*
X4694013Y-45739711D01*
X4766503Y-45769737D01*
X4921153Y-45800499D01*
X4921156Y-45800500D01*
X4921158Y-45800500D01*
X5078844Y-45800500D01*
X5078845Y-45800499D01*
X5233497Y-45769737D01*
X5379179Y-45709394D01*
X5510289Y-45621789D01*
X5621789Y-45510289D01*
X5709394Y-45379179D01*
X5769737Y-45233497D01*
X5800500Y-45078842D01*
X5800500Y-44921158D01*
X5800500Y-44921155D01*
X5800499Y-44921153D01*
X6749500Y-44921153D01*
X6749500Y-45078846D01*
X6780261Y-45233489D01*
X6780264Y-45233501D01*
X6840602Y-45379172D01*
X6840609Y-45379185D01*
X6928210Y-45510288D01*
X6928213Y-45510292D01*
X7039707Y-45621786D01*
X7039711Y-45621789D01*
X7170814Y-45709390D01*
X7170827Y-45709397D01*
X7244013Y-45739711D01*
X7316503Y-45769737D01*
X7471153Y-45800499D01*
X7471156Y-45800500D01*
X7471158Y-45800500D01*
X7628844Y-45800500D01*
X7628845Y-45800499D01*
X7783497Y-45769737D01*
X7929179Y-45709394D01*
X8060289Y-45621789D01*
X8171789Y-45510289D01*
X8259394Y-45379179D01*
X8319737Y-45233497D01*
X8350500Y-45078842D01*
X8350500Y-44921158D01*
X8350500Y-44921155D01*
X8350499Y-44921153D01*
X8342536Y-44881120D01*
X8319737Y-44766503D01*
X8264502Y-44633153D01*
X22627000Y-44633153D01*
X22627000Y-44790846D01*
X22657761Y-44945489D01*
X22657764Y-44945501D01*
X22718102Y-45091172D01*
X22718109Y-45091185D01*
X22805710Y-45222288D01*
X22805713Y-45222292D01*
X22917207Y-45333786D01*
X22917211Y-45333789D01*
X23048314Y-45421390D01*
X23048327Y-45421397D01*
X23190444Y-45480263D01*
X23194003Y-45481737D01*
X23337538Y-45510288D01*
X23348653Y-45512499D01*
X23348656Y-45512500D01*
X23348658Y-45512500D01*
X23506344Y-45512500D01*
X23506345Y-45512499D01*
X23660997Y-45481737D01*
X23806679Y-45421394D01*
X23937789Y-45333789D01*
X24049289Y-45222289D01*
X24136894Y-45091179D01*
X24142003Y-45078846D01*
X24197235Y-44945501D01*
X24197237Y-44945497D01*
X24228000Y-44790842D01*
X24228000Y-44633158D01*
X24228000Y-44633155D01*
X24227999Y-44633153D01*
X27707000Y-44633153D01*
X27707000Y-44790846D01*
X27737761Y-44945489D01*
X27737764Y-44945501D01*
X27798102Y-45091172D01*
X27798109Y-45091185D01*
X27885710Y-45222288D01*
X27885713Y-45222292D01*
X27997207Y-45333786D01*
X27997211Y-45333789D01*
X28128314Y-45421390D01*
X28128327Y-45421397D01*
X28270444Y-45480263D01*
X28274003Y-45481737D01*
X28417538Y-45510288D01*
X28428653Y-45512499D01*
X28428656Y-45512500D01*
X28428658Y-45512500D01*
X28586344Y-45512500D01*
X28586345Y-45512499D01*
X28740997Y-45481737D01*
X28886679Y-45421394D01*
X29017789Y-45333789D01*
X29129289Y-45222289D01*
X29216894Y-45091179D01*
X29222003Y-45078846D01*
X29277235Y-44945501D01*
X29277237Y-44945497D01*
X29308000Y-44790842D01*
X29308000Y-44633158D01*
X29308000Y-44633155D01*
X29307999Y-44633153D01*
X29279466Y-44489711D01*
X29277237Y-44478503D01*
X29227690Y-44358884D01*
X29216897Y-44332827D01*
X29216890Y-44332814D01*
X29129289Y-44201711D01*
X29129286Y-44201707D01*
X29017792Y-44090213D01*
X29017788Y-44090210D01*
X28886685Y-44002609D01*
X28886672Y-44002602D01*
X28741001Y-43942264D01*
X28740989Y-43942261D01*
X28586345Y-43911500D01*
X28586342Y-43911500D01*
X28428658Y-43911500D01*
X28428655Y-43911500D01*
X28274010Y-43942261D01*
X28273998Y-43942264D01*
X28128327Y-44002602D01*
X28128314Y-44002609D01*
X27997211Y-44090210D01*
X27997207Y-44090213D01*
X27885713Y-44201707D01*
X27885710Y-44201711D01*
X27798109Y-44332814D01*
X27798102Y-44332827D01*
X27737764Y-44478498D01*
X27737761Y-44478510D01*
X27707000Y-44633153D01*
X24227999Y-44633153D01*
X24199466Y-44489711D01*
X24197237Y-44478503D01*
X24147690Y-44358884D01*
X24136897Y-44332827D01*
X24136890Y-44332814D01*
X24049289Y-44201711D01*
X24049286Y-44201707D01*
X23937792Y-44090213D01*
X23937788Y-44090210D01*
X23806685Y-44002609D01*
X23806672Y-44002602D01*
X23661001Y-43942264D01*
X23660989Y-43942261D01*
X23506345Y-43911500D01*
X23506342Y-43911500D01*
X23348658Y-43911500D01*
X23348655Y-43911500D01*
X23194010Y-43942261D01*
X23193998Y-43942264D01*
X23048327Y-44002602D01*
X23048314Y-44002609D01*
X22917211Y-44090210D01*
X22917207Y-44090213D01*
X22805713Y-44201707D01*
X22805710Y-44201711D01*
X22718109Y-44332814D01*
X22718102Y-44332827D01*
X22657764Y-44478498D01*
X22657761Y-44478510D01*
X22627000Y-44633153D01*
X8264502Y-44633153D01*
X8259394Y-44620821D01*
X8259392Y-44620818D01*
X8259390Y-44620814D01*
X8171789Y-44489711D01*
X8171786Y-44489707D01*
X8060292Y-44378213D01*
X8060288Y-44378210D01*
X7929185Y-44290609D01*
X7929172Y-44290602D01*
X7783501Y-44230264D01*
X7783489Y-44230261D01*
X7628845Y-44199500D01*
X7628842Y-44199500D01*
X7471158Y-44199500D01*
X7471155Y-44199500D01*
X7316510Y-44230261D01*
X7316498Y-44230264D01*
X7170827Y-44290602D01*
X7170814Y-44290609D01*
X7039711Y-44378210D01*
X7039707Y-44378213D01*
X6928213Y-44489707D01*
X6928210Y-44489711D01*
X6840609Y-44620814D01*
X6840602Y-44620827D01*
X6780264Y-44766498D01*
X6780261Y-44766510D01*
X6749500Y-44921153D01*
X5800499Y-44921153D01*
X5792536Y-44881120D01*
X5769737Y-44766503D01*
X5769735Y-44766498D01*
X5709397Y-44620827D01*
X5709390Y-44620814D01*
X5621789Y-44489711D01*
X5621786Y-44489707D01*
X5510292Y-44378213D01*
X5510288Y-44378210D01*
X5379185Y-44290609D01*
X5379172Y-44290602D01*
X5233501Y-44230264D01*
X5233489Y-44230261D01*
X5078845Y-44199500D01*
X5078842Y-44199500D01*
X4921158Y-44199500D01*
X4921155Y-44199500D01*
X4766510Y-44230261D01*
X4766498Y-44230264D01*
X4620827Y-44290602D01*
X4620814Y-44290609D01*
X4489711Y-44378210D01*
X4489707Y-44378213D01*
X4378213Y-44489707D01*
X4378210Y-44489711D01*
X4290609Y-44620814D01*
X4290602Y-44620827D01*
X4230264Y-44766498D01*
X4230261Y-44766510D01*
X4199500Y-44921153D01*
X500500Y-44921153D01*
X500500Y-43124000D01*
X520185Y-43056961D01*
X572989Y-43011206D01*
X624500Y-43000000D01*
X34379173Y-43000000D01*
X34446212Y-43019685D01*
G37*
%TD.AperFunction*%
%TD*%
%TA.AperFunction,Conductor*%
%TO.N,/SingleChannelDriver1/-9V_B*%
G36*
X47222112Y-24019685D02*
G01*
X47267867Y-24072489D01*
X47277811Y-24141647D01*
X47269634Y-24171453D01*
X47230263Y-24266502D01*
X47230261Y-24266510D01*
X47199500Y-24421153D01*
X47199500Y-24578846D01*
X47230261Y-24733489D01*
X47230264Y-24733501D01*
X47290602Y-24879172D01*
X47290609Y-24879185D01*
X47378210Y-25010288D01*
X47378213Y-25010292D01*
X47489707Y-25121786D01*
X47489711Y-25121789D01*
X47620814Y-25209390D01*
X47620827Y-25209397D01*
X47758695Y-25266503D01*
X47766503Y-25269737D01*
X47921153Y-25300499D01*
X47921156Y-25300500D01*
X47921158Y-25300500D01*
X48078844Y-25300500D01*
X48078845Y-25300499D01*
X48233497Y-25269737D01*
X48379179Y-25209394D01*
X48510289Y-25121789D01*
X48621789Y-25010289D01*
X48709394Y-24879179D01*
X48769737Y-24733497D01*
X48800500Y-24578842D01*
X48800500Y-24421158D01*
X48800500Y-24421155D01*
X48800499Y-24421153D01*
X48774531Y-24290606D01*
X48769737Y-24266503D01*
X48730365Y-24171452D01*
X48722897Y-24101983D01*
X48754172Y-24039504D01*
X48814261Y-24003852D01*
X48844927Y-24000000D01*
X59655073Y-24000000D01*
X59722112Y-24019685D01*
X59767867Y-24072489D01*
X59777811Y-24141647D01*
X59769634Y-24171453D01*
X59730263Y-24266502D01*
X59730261Y-24266510D01*
X59699500Y-24421153D01*
X59699500Y-24578846D01*
X59730261Y-24733489D01*
X59730264Y-24733501D01*
X59790602Y-24879172D01*
X59790609Y-24879185D01*
X59878210Y-25010288D01*
X59878213Y-25010292D01*
X59989707Y-25121786D01*
X59989711Y-25121789D01*
X60120814Y-25209390D01*
X60120827Y-25209397D01*
X60258695Y-25266503D01*
X60266503Y-25269737D01*
X60421153Y-25300499D01*
X60421156Y-25300500D01*
X60421158Y-25300500D01*
X60578844Y-25300500D01*
X60578845Y-25300499D01*
X60733497Y-25269737D01*
X60879179Y-25209394D01*
X61010289Y-25121789D01*
X61121789Y-25010289D01*
X61209394Y-24879179D01*
X61269737Y-24733497D01*
X61300500Y-24578842D01*
X61300500Y-24421158D01*
X61300500Y-24421155D01*
X61300499Y-24421153D01*
X61274531Y-24290606D01*
X61269737Y-24266503D01*
X61230365Y-24171452D01*
X61222897Y-24101983D01*
X61254172Y-24039504D01*
X61314261Y-24003852D01*
X61344927Y-24000000D01*
X61876000Y-24000000D01*
X61943039Y-24019685D01*
X61988794Y-24072489D01*
X62000000Y-24124000D01*
X62000000Y-27155072D01*
X61980315Y-27222111D01*
X61927511Y-27267866D01*
X61858353Y-27277810D01*
X61828548Y-27269634D01*
X61819471Y-27265874D01*
X61733497Y-27230263D01*
X61733492Y-27230262D01*
X61733489Y-27230261D01*
X61578845Y-27199500D01*
X61578842Y-27199500D01*
X61421158Y-27199500D01*
X61421155Y-27199500D01*
X61266510Y-27230261D01*
X61266498Y-27230264D01*
X61120827Y-27290602D01*
X61120814Y-27290609D01*
X60989711Y-27378210D01*
X60989707Y-27378213D01*
X60878213Y-27489707D01*
X60878210Y-27489711D01*
X60790609Y-27620814D01*
X60790602Y-27620827D01*
X60730264Y-27766498D01*
X60730261Y-27766510D01*
X60699500Y-27921153D01*
X60699500Y-28078846D01*
X60730261Y-28233489D01*
X60730264Y-28233501D01*
X60790602Y-28379172D01*
X60790609Y-28379185D01*
X60878210Y-28510288D01*
X60878213Y-28510292D01*
X60989707Y-28621786D01*
X60989711Y-28621789D01*
X61120814Y-28709390D01*
X61120827Y-28709397D01*
X61228925Y-28754172D01*
X61266503Y-28769737D01*
X61421153Y-28800499D01*
X61421156Y-28800500D01*
X61421158Y-28800500D01*
X61578844Y-28800500D01*
X61578845Y-28800499D01*
X61733497Y-28769737D01*
X61828547Y-28730365D01*
X61898017Y-28722897D01*
X61960496Y-28754172D01*
X61996148Y-28814261D01*
X62000000Y-28844927D01*
X62000000Y-31000000D01*
X64655073Y-31000000D01*
X64722112Y-31019685D01*
X64767867Y-31072489D01*
X64777811Y-31141647D01*
X64769634Y-31171453D01*
X64730263Y-31266502D01*
X64730261Y-31266510D01*
X64699500Y-31421153D01*
X64699500Y-31578846D01*
X64730261Y-31733489D01*
X64730264Y-31733501D01*
X64790602Y-31879172D01*
X64790609Y-31879185D01*
X64878210Y-32010288D01*
X64878213Y-32010292D01*
X64989707Y-32121786D01*
X64989711Y-32121789D01*
X65120814Y-32209390D01*
X65120827Y-32209397D01*
X65266498Y-32269735D01*
X65266503Y-32269737D01*
X65421153Y-32300499D01*
X65421156Y-32300500D01*
X65421158Y-32300500D01*
X65578844Y-32300500D01*
X65578845Y-32300499D01*
X65733497Y-32269737D01*
X65879179Y-32209394D01*
X66010289Y-32121789D01*
X66016247Y-32115830D01*
X66077567Y-32082344D01*
X66147259Y-32087325D01*
X66203194Y-32129194D01*
X66227615Y-32194657D01*
X66225548Y-32227700D01*
X66199500Y-32358653D01*
X66199500Y-32516346D01*
X66230261Y-32670989D01*
X66230264Y-32671001D01*
X66290602Y-32816672D01*
X66290609Y-32816685D01*
X66378210Y-32947788D01*
X66378213Y-32947792D01*
X66489707Y-33059286D01*
X66489711Y-33059289D01*
X66620814Y-33146890D01*
X66620827Y-33146897D01*
X66766498Y-33207235D01*
X66766503Y-33207237D01*
X66898480Y-33233489D01*
X66921153Y-33237999D01*
X66921156Y-33238000D01*
X66921158Y-33238000D01*
X67078844Y-33238000D01*
X67078845Y-33237999D01*
X67233497Y-33207237D01*
X67379179Y-33146894D01*
X67510289Y-33059289D01*
X67621789Y-32947789D01*
X67709394Y-32816679D01*
X67769737Y-32670997D01*
X67800500Y-32516342D01*
X67800500Y-32358658D01*
X67800500Y-32358655D01*
X67800499Y-32358653D01*
X70699500Y-32358653D01*
X70699500Y-32516346D01*
X70730261Y-32670989D01*
X70730264Y-32671001D01*
X70790602Y-32816672D01*
X70790609Y-32816685D01*
X70878210Y-32947788D01*
X70878213Y-32947792D01*
X70989707Y-33059286D01*
X70989711Y-33059289D01*
X71120814Y-33146890D01*
X71120827Y-33146897D01*
X71266498Y-33207235D01*
X71266503Y-33207237D01*
X71398480Y-33233489D01*
X71421153Y-33237999D01*
X71421156Y-33238000D01*
X71421158Y-33238000D01*
X71578844Y-33238000D01*
X71578845Y-33237999D01*
X71733497Y-33207237D01*
X71879179Y-33146894D01*
X72010289Y-33059289D01*
X72121789Y-32947789D01*
X72209394Y-32816679D01*
X72269737Y-32670997D01*
X72300500Y-32516342D01*
X72300500Y-32358658D01*
X72300500Y-32358655D01*
X72300499Y-32358653D01*
X72292148Y-32316672D01*
X72269737Y-32204003D01*
X72245202Y-32144770D01*
X72209397Y-32058327D01*
X72209390Y-32058314D01*
X72121789Y-31927211D01*
X72121786Y-31927207D01*
X72010292Y-31815713D01*
X72010288Y-31815710D01*
X71879185Y-31728109D01*
X71879172Y-31728102D01*
X71733501Y-31667764D01*
X71733489Y-31667761D01*
X71578845Y-31637000D01*
X71578842Y-31637000D01*
X71421158Y-31637000D01*
X71421155Y-31637000D01*
X71266510Y-31667761D01*
X71266498Y-31667764D01*
X71120827Y-31728102D01*
X71120814Y-31728109D01*
X70989711Y-31815710D01*
X70989707Y-31815713D01*
X70878213Y-31927207D01*
X70878210Y-31927211D01*
X70790609Y-32058314D01*
X70790602Y-32058327D01*
X70730264Y-32203998D01*
X70730261Y-32204010D01*
X70699500Y-32358653D01*
X67800499Y-32358653D01*
X67792148Y-32316672D01*
X67769737Y-32204003D01*
X67745202Y-32144770D01*
X67709397Y-32058327D01*
X67709390Y-32058314D01*
X67621789Y-31927211D01*
X67621786Y-31927207D01*
X67510292Y-31815713D01*
X67510288Y-31815710D01*
X67379185Y-31728109D01*
X67379172Y-31728102D01*
X67233501Y-31667764D01*
X67233489Y-31667761D01*
X67078845Y-31637000D01*
X67078842Y-31637000D01*
X66921158Y-31637000D01*
X66921155Y-31637000D01*
X66766510Y-31667761D01*
X66766498Y-31667764D01*
X66620827Y-31728102D01*
X66620814Y-31728109D01*
X66489711Y-31815710D01*
X66483745Y-31821676D01*
X66422420Y-31855157D01*
X66352729Y-31850170D01*
X66296797Y-31808296D01*
X66272384Y-31742830D01*
X66274451Y-31709798D01*
X66300500Y-31578844D01*
X66300500Y-31421155D01*
X66300499Y-31421153D01*
X66291957Y-31378210D01*
X66269737Y-31266503D01*
X66230365Y-31171452D01*
X66222897Y-31101983D01*
X66254172Y-31039504D01*
X66314261Y-31003852D01*
X66344927Y-31000000D01*
X73876000Y-31000000D01*
X73943039Y-31019685D01*
X73988794Y-31072489D01*
X74000000Y-31124000D01*
X74000000Y-35876000D01*
X73980315Y-35943039D01*
X73927511Y-35988794D01*
X73876000Y-36000000D01*
X43124000Y-36000000D01*
X43056961Y-35980315D01*
X43011206Y-35927511D01*
X43000000Y-35876000D01*
X43000000Y-34421153D01*
X47254500Y-34421153D01*
X47254500Y-34578846D01*
X47285261Y-34733489D01*
X47285264Y-34733501D01*
X47345602Y-34879172D01*
X47345609Y-34879185D01*
X47433210Y-35010288D01*
X47433213Y-35010292D01*
X47544707Y-35121786D01*
X47544711Y-35121789D01*
X47675814Y-35209390D01*
X47675827Y-35209397D01*
X47821498Y-35269735D01*
X47821503Y-35269737D01*
X47976153Y-35300499D01*
X47976156Y-35300500D01*
X47976158Y-35300500D01*
X48133844Y-35300500D01*
X48133845Y-35300499D01*
X48288497Y-35269737D01*
X48434179Y-35209394D01*
X48565289Y-35121789D01*
X48676789Y-35010289D01*
X48764394Y-34879179D01*
X48824737Y-34733497D01*
X48855500Y-34578842D01*
X48855500Y-34421158D01*
X48855500Y-34421155D01*
X48855499Y-34421153D01*
X48824738Y-34266510D01*
X48824737Y-34266503D01*
X48824735Y-34266498D01*
X48764397Y-34120827D01*
X48764390Y-34120814D01*
X48676789Y-33989711D01*
X48676786Y-33989707D01*
X48565292Y-33878213D01*
X48565288Y-33878210D01*
X48434185Y-33790609D01*
X48434172Y-33790602D01*
X48288501Y-33730264D01*
X48288489Y-33730261D01*
X48133845Y-33699500D01*
X48133842Y-33699500D01*
X47976158Y-33699500D01*
X47976155Y-33699500D01*
X47821510Y-33730261D01*
X47821498Y-33730264D01*
X47675827Y-33790602D01*
X47675814Y-33790609D01*
X47544711Y-33878210D01*
X47544707Y-33878213D01*
X47433213Y-33989707D01*
X47433210Y-33989711D01*
X47345609Y-34120814D01*
X47345602Y-34120827D01*
X47285264Y-34266498D01*
X47285261Y-34266510D01*
X47254500Y-34421153D01*
X43000000Y-34421153D01*
X43000000Y-32921153D01*
X50199500Y-32921153D01*
X50199500Y-33078846D01*
X50230261Y-33233489D01*
X50230264Y-33233501D01*
X50290602Y-33379172D01*
X50290609Y-33379185D01*
X50378210Y-33510288D01*
X50378213Y-33510292D01*
X50489707Y-33621786D01*
X50489711Y-33621789D01*
X50620814Y-33709390D01*
X50620827Y-33709397D01*
X50766498Y-33769735D01*
X50766503Y-33769737D01*
X50910344Y-33798349D01*
X50921153Y-33800499D01*
X50921156Y-33800500D01*
X50921158Y-33800500D01*
X51078842Y-33800500D01*
X51120954Y-33792123D01*
X51190543Y-33798349D01*
X51245721Y-33841211D01*
X51268967Y-33907100D01*
X51252900Y-33975098D01*
X51246418Y-33984527D01*
X51246595Y-33984646D01*
X51155609Y-34120814D01*
X51155602Y-34120827D01*
X51095264Y-34266498D01*
X51095261Y-34266510D01*
X51064500Y-34421153D01*
X51064500Y-34578846D01*
X51095261Y-34733489D01*
X51095264Y-34733501D01*
X51155602Y-34879172D01*
X51155609Y-34879185D01*
X51243210Y-35010288D01*
X51243213Y-35010292D01*
X51354707Y-35121786D01*
X51354711Y-35121789D01*
X51485814Y-35209390D01*
X51485827Y-35209397D01*
X51631498Y-35269735D01*
X51631503Y-35269737D01*
X51786153Y-35300499D01*
X51786156Y-35300500D01*
X51786158Y-35300500D01*
X51943844Y-35300500D01*
X51943845Y-35300499D01*
X52098497Y-35269737D01*
X52244179Y-35209394D01*
X52375289Y-35121789D01*
X52375292Y-35121786D01*
X52412319Y-35084760D01*
X52473642Y-35051275D01*
X52543334Y-35056259D01*
X52587681Y-35084760D01*
X52624707Y-35121786D01*
X52624711Y-35121789D01*
X52755814Y-35209390D01*
X52755827Y-35209397D01*
X52901498Y-35269735D01*
X52901503Y-35269737D01*
X53056153Y-35300499D01*
X53056156Y-35300500D01*
X53056158Y-35300500D01*
X53213844Y-35300500D01*
X53213845Y-35300499D01*
X53368497Y-35269737D01*
X53514179Y-35209394D01*
X53645289Y-35121789D01*
X53756789Y-35010289D01*
X53844394Y-34879179D01*
X53904737Y-34733497D01*
X53935500Y-34578842D01*
X53935500Y-34421158D01*
X53935500Y-34421155D01*
X53935499Y-34421153D01*
X53904738Y-34266510D01*
X53904737Y-34266503D01*
X53904735Y-34266498D01*
X53844397Y-34120827D01*
X53844390Y-34120814D01*
X53756789Y-33989711D01*
X53756786Y-33989707D01*
X53645292Y-33878213D01*
X53645288Y-33878210D01*
X53514185Y-33790609D01*
X53514172Y-33790602D01*
X53368501Y-33730264D01*
X53368489Y-33730261D01*
X53213845Y-33699500D01*
X53213842Y-33699500D01*
X53056158Y-33699500D01*
X53056155Y-33699500D01*
X52901510Y-33730261D01*
X52901498Y-33730264D01*
X52755827Y-33790602D01*
X52755814Y-33790609D01*
X52624711Y-33878210D01*
X52624707Y-33878213D01*
X52587681Y-33915240D01*
X52526358Y-33948725D01*
X52456666Y-33943741D01*
X52412319Y-33915240D01*
X52375292Y-33878213D01*
X52375288Y-33878210D01*
X52244185Y-33790609D01*
X52244172Y-33790602D01*
X52098501Y-33730264D01*
X52098489Y-33730261D01*
X51943845Y-33699500D01*
X51943842Y-33699500D01*
X51786158Y-33699500D01*
X51786153Y-33699500D01*
X51744045Y-33707876D01*
X51674453Y-33701649D01*
X51619276Y-33658786D01*
X51596032Y-33592896D01*
X51612100Y-33524899D01*
X51618582Y-33515472D01*
X51618405Y-33515354D01*
X51709390Y-33379185D01*
X51709390Y-33379184D01*
X51709394Y-33379179D01*
X51769737Y-33233497D01*
X51800500Y-33078842D01*
X51800500Y-32921158D01*
X51800500Y-32921155D01*
X51800499Y-32921153D01*
X54699500Y-32921153D01*
X54699500Y-33078846D01*
X54730261Y-33233489D01*
X54730264Y-33233501D01*
X54790602Y-33379172D01*
X54790609Y-33379185D01*
X54878210Y-33510288D01*
X54878213Y-33510292D01*
X54989707Y-33621786D01*
X54989711Y-33621789D01*
X55120814Y-33709390D01*
X55120827Y-33709397D01*
X55266498Y-33769735D01*
X55266503Y-33769737D01*
X55410344Y-33798349D01*
X55421153Y-33800499D01*
X55421156Y-33800500D01*
X55421158Y-33800500D01*
X55578844Y-33800500D01*
X55578845Y-33800499D01*
X55733497Y-33769737D01*
X55879179Y-33709394D01*
X56010289Y-33621789D01*
X56121789Y-33510289D01*
X56209394Y-33379179D01*
X56269737Y-33233497D01*
X56300500Y-33078842D01*
X56300500Y-32921158D01*
X56300500Y-32921155D01*
X56300499Y-32921153D01*
X56279719Y-32816685D01*
X56269737Y-32766503D01*
X56257931Y-32738000D01*
X56209397Y-32620827D01*
X56209390Y-32620814D01*
X56121789Y-32489711D01*
X56121786Y-32489707D01*
X56010292Y-32378213D01*
X56010288Y-32378210D01*
X55879185Y-32290609D01*
X55879172Y-32290602D01*
X55733501Y-32230264D01*
X55733489Y-32230261D01*
X55578845Y-32199500D01*
X55578842Y-32199500D01*
X55421158Y-32199500D01*
X55421155Y-32199500D01*
X55266510Y-32230261D01*
X55266498Y-32230264D01*
X55120827Y-32290602D01*
X55120814Y-32290609D01*
X54989711Y-32378210D01*
X54989707Y-32378213D01*
X54878213Y-32489707D01*
X54878210Y-32489711D01*
X54790609Y-32620814D01*
X54790602Y-32620827D01*
X54730264Y-32766498D01*
X54730261Y-32766510D01*
X54699500Y-32921153D01*
X51800499Y-32921153D01*
X51779719Y-32816685D01*
X51769737Y-32766503D01*
X51757931Y-32738000D01*
X51709397Y-32620827D01*
X51709390Y-32620814D01*
X51621789Y-32489711D01*
X51621786Y-32489707D01*
X51510292Y-32378213D01*
X51510288Y-32378210D01*
X51379185Y-32290609D01*
X51379172Y-32290602D01*
X51233501Y-32230264D01*
X51233489Y-32230261D01*
X51078845Y-32199500D01*
X51078842Y-32199500D01*
X50921158Y-32199500D01*
X50921155Y-32199500D01*
X50766510Y-32230261D01*
X50766498Y-32230264D01*
X50620827Y-32290602D01*
X50620814Y-32290609D01*
X50489711Y-32378210D01*
X50489707Y-32378213D01*
X50378213Y-32489707D01*
X50378210Y-32489711D01*
X50290609Y-32620814D01*
X50290602Y-32620827D01*
X50230264Y-32766498D01*
X50230261Y-32766510D01*
X50199500Y-32921153D01*
X43000000Y-32921153D01*
X43000000Y-32238483D01*
X43019685Y-32171444D01*
X43072489Y-32125689D01*
X43141647Y-32115745D01*
X43205203Y-32144770D01*
X43238561Y-32191031D01*
X43290602Y-32316672D01*
X43290609Y-32316685D01*
X43378210Y-32447788D01*
X43378213Y-32447792D01*
X43489707Y-32559286D01*
X43489711Y-32559289D01*
X43620814Y-32646890D01*
X43620827Y-32646897D01*
X43766498Y-32707235D01*
X43766503Y-32707237D01*
X43921153Y-32737999D01*
X43921156Y-32738000D01*
X43921158Y-32738000D01*
X44078844Y-32738000D01*
X44078845Y-32737999D01*
X44233497Y-32707237D01*
X44379179Y-32646894D01*
X44510289Y-32559289D01*
X44621789Y-32447789D01*
X44709394Y-32316679D01*
X44769737Y-32170997D01*
X44800500Y-32016342D01*
X44800500Y-31921153D01*
X51824500Y-31921153D01*
X51824500Y-32078846D01*
X51855261Y-32233489D01*
X51855264Y-32233501D01*
X51915602Y-32379172D01*
X51915609Y-32379185D01*
X52003210Y-32510288D01*
X52003213Y-32510292D01*
X52114707Y-32621786D01*
X52114711Y-32621789D01*
X52245814Y-32709390D01*
X52245827Y-32709397D01*
X52383683Y-32766498D01*
X52391503Y-32769737D01*
X52546153Y-32800499D01*
X52546156Y-32800500D01*
X52546158Y-32800500D01*
X52703844Y-32800500D01*
X52703845Y-32800499D01*
X52714179Y-32798443D01*
X52739287Y-32793450D01*
X52739292Y-32793449D01*
X52824800Y-32776439D01*
X52858497Y-32769737D01*
X53004179Y-32709394D01*
X53135289Y-32621789D01*
X53246789Y-32510289D01*
X53334394Y-32379179D01*
X53394737Y-32233497D01*
X53425500Y-32078842D01*
X53425500Y-31921158D01*
X53425500Y-31921155D01*
X53425499Y-31921153D01*
X53412371Y-31855157D01*
X53394737Y-31766503D01*
X53385067Y-31743158D01*
X53334397Y-31620827D01*
X53334390Y-31620814D01*
X53246789Y-31489711D01*
X53246786Y-31489707D01*
X53135292Y-31378213D01*
X53135288Y-31378210D01*
X53004185Y-31290609D01*
X53004172Y-31290602D01*
X52858501Y-31230264D01*
X52858489Y-31230261D01*
X52703845Y-31199500D01*
X52703842Y-31199500D01*
X52546158Y-31199500D01*
X52546155Y-31199500D01*
X52391510Y-31230261D01*
X52391498Y-31230264D01*
X52245827Y-31290602D01*
X52245814Y-31290609D01*
X52114711Y-31378210D01*
X52114707Y-31378213D01*
X52003213Y-31489707D01*
X52003210Y-31489711D01*
X51915609Y-31620814D01*
X51915602Y-31620827D01*
X51855264Y-31766498D01*
X51855261Y-31766510D01*
X51824500Y-31921153D01*
X44800500Y-31921153D01*
X44800500Y-31858658D01*
X44800500Y-31858655D01*
X44800499Y-31858653D01*
X44776573Y-31738372D01*
X44769737Y-31704003D01*
X44761439Y-31683969D01*
X44709397Y-31558327D01*
X44709390Y-31558314D01*
X44621789Y-31427211D01*
X44621786Y-31427207D01*
X44510292Y-31315713D01*
X44510288Y-31315710D01*
X44379185Y-31228109D01*
X44379172Y-31228102D01*
X44233501Y-31167764D01*
X44233489Y-31167761D01*
X44078845Y-31137000D01*
X44078842Y-31137000D01*
X43921158Y-31137000D01*
X43921155Y-31137000D01*
X43766510Y-31167761D01*
X43766498Y-31167764D01*
X43620827Y-31228102D01*
X43620814Y-31228109D01*
X43489711Y-31315710D01*
X43489707Y-31315713D01*
X43378213Y-31427207D01*
X43378210Y-31427211D01*
X43290609Y-31558314D01*
X43290604Y-31558323D01*
X43238561Y-31683969D01*
X43194720Y-31738372D01*
X43128426Y-31760437D01*
X43060727Y-31743158D01*
X43013116Y-31692021D01*
X43000000Y-31636516D01*
X43000000Y-30311153D01*
X58684500Y-30311153D01*
X58684500Y-30468846D01*
X58715261Y-30623489D01*
X58715264Y-30623501D01*
X58775602Y-30769172D01*
X58775609Y-30769185D01*
X58863210Y-30900288D01*
X58863213Y-30900292D01*
X58974707Y-31011786D01*
X58974711Y-31011789D01*
X59105814Y-31099390D01*
X59105827Y-31099397D01*
X59251498Y-31159735D01*
X59251503Y-31159737D01*
X59406153Y-31190499D01*
X59406156Y-31190500D01*
X59406158Y-31190500D01*
X59563844Y-31190500D01*
X59563845Y-31190499D01*
X59718497Y-31159737D01*
X59864179Y-31099394D01*
X59995289Y-31011789D01*
X60106789Y-30900289D01*
X60194394Y-30769179D01*
X60254737Y-30623497D01*
X60285500Y-30468842D01*
X60285500Y-30311158D01*
X60285500Y-30311155D01*
X60285499Y-30311153D01*
X60265258Y-30209397D01*
X60254737Y-30156503D01*
X60240357Y-30121786D01*
X60194397Y-30010827D01*
X60194390Y-30010814D01*
X60106789Y-29879711D01*
X60106786Y-29879707D01*
X59995292Y-29768213D01*
X59995288Y-29768210D01*
X59864185Y-29680609D01*
X59864172Y-29680602D01*
X59718501Y-29620264D01*
X59718489Y-29620261D01*
X59563845Y-29589500D01*
X59563842Y-29589500D01*
X59406158Y-29589500D01*
X59406155Y-29589500D01*
X59251510Y-29620261D01*
X59251498Y-29620264D01*
X59105827Y-29680602D01*
X59105814Y-29680609D01*
X58974711Y-29768210D01*
X58974707Y-29768213D01*
X58863213Y-29879707D01*
X58863210Y-29879711D01*
X58775609Y-30010814D01*
X58775602Y-30010827D01*
X58715264Y-30156498D01*
X58715261Y-30156510D01*
X58684500Y-30311153D01*
X43000000Y-30311153D01*
X43000000Y-29421153D01*
X55199500Y-29421153D01*
X55199500Y-29578846D01*
X55230261Y-29733489D01*
X55230264Y-29733501D01*
X55290602Y-29879172D01*
X55290609Y-29879185D01*
X55378210Y-30010288D01*
X55378213Y-30010292D01*
X55489707Y-30121786D01*
X55489711Y-30121789D01*
X55620814Y-30209390D01*
X55620827Y-30209397D01*
X55766498Y-30269735D01*
X55766503Y-30269737D01*
X55921153Y-30300499D01*
X55921156Y-30300500D01*
X55921158Y-30300500D01*
X56078844Y-30300500D01*
X56078845Y-30300499D01*
X56233497Y-30269737D01*
X56379179Y-30209394D01*
X56383628Y-30206420D01*
X56390301Y-30201963D01*
X56390301Y-30201962D01*
X56510289Y-30121789D01*
X56621789Y-30010289D01*
X56709394Y-29879179D01*
X56769737Y-29733497D01*
X56800500Y-29578842D01*
X56800500Y-29421158D01*
X56800500Y-29421155D01*
X56800499Y-29421153D01*
X56769738Y-29266510D01*
X56769737Y-29266503D01*
X56769735Y-29266498D01*
X56709397Y-29120827D01*
X56709390Y-29120814D01*
X56621789Y-28989711D01*
X56621786Y-28989707D01*
X56510292Y-28878213D01*
X56510288Y-28878210D01*
X56379185Y-28790609D01*
X56379172Y-28790602D01*
X56233501Y-28730264D01*
X56233489Y-28730261D01*
X56078845Y-28699500D01*
X56078842Y-28699500D01*
X55921158Y-28699500D01*
X55921155Y-28699500D01*
X55766510Y-28730261D01*
X55766498Y-28730264D01*
X55620827Y-28790602D01*
X55620814Y-28790609D01*
X55489711Y-28878210D01*
X55489707Y-28878213D01*
X55378213Y-28989707D01*
X55378210Y-28989711D01*
X55290609Y-29120814D01*
X55290602Y-29120827D01*
X55230264Y-29266498D01*
X55230261Y-29266510D01*
X55199500Y-29421153D01*
X43000000Y-29421153D01*
X43000000Y-25300983D01*
X43019685Y-25233944D01*
X43072489Y-25188189D01*
X43141647Y-25178245D01*
X43205203Y-25207270D01*
X43238561Y-25253531D01*
X43290602Y-25379172D01*
X43290609Y-25379185D01*
X43378210Y-25510288D01*
X43378213Y-25510292D01*
X43489707Y-25621786D01*
X43489711Y-25621789D01*
X43620814Y-25709390D01*
X43620827Y-25709397D01*
X43766498Y-25769735D01*
X43766503Y-25769737D01*
X43921153Y-25800499D01*
X43921156Y-25800500D01*
X43921158Y-25800500D01*
X44078844Y-25800500D01*
X44078845Y-25800499D01*
X44233497Y-25769737D01*
X44379179Y-25709394D01*
X44510289Y-25621789D01*
X44621789Y-25510289D01*
X44709394Y-25379179D01*
X44769737Y-25233497D01*
X44800500Y-25078842D01*
X44800500Y-24921158D01*
X44800500Y-24921155D01*
X44800499Y-24921153D01*
X44769738Y-24766510D01*
X44769737Y-24766503D01*
X44741783Y-24699016D01*
X44709397Y-24620827D01*
X44709390Y-24620814D01*
X44621789Y-24489711D01*
X44621786Y-24489707D01*
X44510292Y-24378213D01*
X44510288Y-24378210D01*
X44379185Y-24290609D01*
X44379172Y-24290602D01*
X44253531Y-24238561D01*
X44199127Y-24194720D01*
X44177062Y-24128426D01*
X44194341Y-24060727D01*
X44245478Y-24013116D01*
X44300983Y-24000000D01*
X47155073Y-24000000D01*
X47222112Y-24019685D01*
G37*
%TD.AperFunction*%
%TD*%
%TA.AperFunction,Conductor*%
%TO.N,/SingleChannelDriver/-9V_B*%
G36*
X33943039Y-19019685D02*
G01*
X33988794Y-19072489D01*
X34000000Y-19124000D01*
X34000000Y-35876000D01*
X33980315Y-35943039D01*
X33927511Y-35988794D01*
X33876000Y-36000000D01*
X14124000Y-36000000D01*
X14056961Y-35980315D01*
X14011206Y-35927511D01*
X14000000Y-35876000D01*
X14000000Y-34421153D01*
X18817000Y-34421153D01*
X18817000Y-34578846D01*
X18847761Y-34733489D01*
X18847764Y-34733501D01*
X18908102Y-34879172D01*
X18908109Y-34879185D01*
X18995710Y-35010288D01*
X18995713Y-35010292D01*
X19107207Y-35121786D01*
X19107211Y-35121789D01*
X19238314Y-35209390D01*
X19238327Y-35209397D01*
X19383998Y-35269735D01*
X19384003Y-35269737D01*
X19538653Y-35300499D01*
X19538656Y-35300500D01*
X19538658Y-35300500D01*
X19696344Y-35300500D01*
X19696345Y-35300499D01*
X19850997Y-35269737D01*
X19996679Y-35209394D01*
X20127789Y-35121789D01*
X20239289Y-35010289D01*
X20326894Y-34879179D01*
X20387237Y-34733497D01*
X20418000Y-34578842D01*
X20418000Y-34421158D01*
X20418000Y-34421155D01*
X20417999Y-34421153D01*
X22627000Y-34421153D01*
X22627000Y-34578846D01*
X22657761Y-34733489D01*
X22657764Y-34733501D01*
X22718102Y-34879172D01*
X22718109Y-34879185D01*
X22805710Y-35010288D01*
X22805713Y-35010292D01*
X22917207Y-35121786D01*
X22917211Y-35121789D01*
X23048314Y-35209390D01*
X23048327Y-35209397D01*
X23193998Y-35269735D01*
X23194003Y-35269737D01*
X23348653Y-35300499D01*
X23348656Y-35300500D01*
X23348658Y-35300500D01*
X23506344Y-35300500D01*
X23506345Y-35300499D01*
X23660997Y-35269737D01*
X23806679Y-35209394D01*
X23926109Y-35129592D01*
X23992786Y-35108715D01*
X24060166Y-35127199D01*
X24063877Y-35129584D01*
X24183321Y-35209394D01*
X24183323Y-35209395D01*
X24183327Y-35209397D01*
X24328998Y-35269735D01*
X24329003Y-35269737D01*
X24483653Y-35300499D01*
X24483656Y-35300500D01*
X24483658Y-35300500D01*
X24641344Y-35300500D01*
X24641345Y-35300499D01*
X24795997Y-35269737D01*
X24941679Y-35209394D01*
X25072789Y-35121789D01*
X25184289Y-35010289D01*
X25271894Y-34879179D01*
X25332237Y-34733497D01*
X25363000Y-34578842D01*
X25363000Y-34421158D01*
X25363000Y-34421155D01*
X25362999Y-34421153D01*
X25332238Y-34266510D01*
X25332237Y-34266503D01*
X25332235Y-34266498D01*
X25271897Y-34120827D01*
X25271890Y-34120814D01*
X25184289Y-33989711D01*
X25184286Y-33989707D01*
X25072792Y-33878213D01*
X25072788Y-33878210D01*
X24941685Y-33790609D01*
X24941672Y-33790602D01*
X24796001Y-33730264D01*
X24795989Y-33730261D01*
X24641345Y-33699500D01*
X24641342Y-33699500D01*
X24483658Y-33699500D01*
X24483655Y-33699500D01*
X24329010Y-33730261D01*
X24328998Y-33730264D01*
X24183327Y-33790602D01*
X24183314Y-33790609D01*
X24063891Y-33870406D01*
X23997213Y-33891284D01*
X23929833Y-33872799D01*
X23926109Y-33870406D01*
X23806685Y-33790609D01*
X23806672Y-33790602D01*
X23661001Y-33730264D01*
X23660989Y-33730261D01*
X23506345Y-33699500D01*
X23506342Y-33699500D01*
X23348658Y-33699500D01*
X23348655Y-33699500D01*
X23194010Y-33730261D01*
X23193998Y-33730264D01*
X23048327Y-33790602D01*
X23048314Y-33790609D01*
X22917211Y-33878210D01*
X22917207Y-33878213D01*
X22805713Y-33989707D01*
X22805710Y-33989711D01*
X22718109Y-34120814D01*
X22718102Y-34120827D01*
X22657764Y-34266498D01*
X22657761Y-34266510D01*
X22627000Y-34421153D01*
X20417999Y-34421153D01*
X20387238Y-34266510D01*
X20387237Y-34266503D01*
X20387235Y-34266498D01*
X20326897Y-34120827D01*
X20326890Y-34120814D01*
X20239289Y-33989711D01*
X20239286Y-33989707D01*
X20127792Y-33878213D01*
X20127788Y-33878210D01*
X19996685Y-33790609D01*
X19996672Y-33790602D01*
X19851001Y-33730264D01*
X19850989Y-33730261D01*
X19696345Y-33699500D01*
X19696342Y-33699500D01*
X19538658Y-33699500D01*
X19538655Y-33699500D01*
X19384010Y-33730261D01*
X19383998Y-33730264D01*
X19238327Y-33790602D01*
X19238314Y-33790609D01*
X19107211Y-33878210D01*
X19107207Y-33878213D01*
X18995713Y-33989707D01*
X18995710Y-33989711D01*
X18908109Y-34120814D01*
X18908102Y-34120827D01*
X18847764Y-34266498D01*
X18847761Y-34266510D01*
X18817000Y-34421153D01*
X14000000Y-34421153D01*
X14000000Y-32344927D01*
X14019685Y-32277888D01*
X14072489Y-32232133D01*
X14141647Y-32222189D01*
X14171450Y-32230365D01*
X14266503Y-32269737D01*
X14421153Y-32300499D01*
X14421156Y-32300500D01*
X14421158Y-32300500D01*
X14578844Y-32300500D01*
X14578845Y-32300499D01*
X14733497Y-32269737D01*
X14879179Y-32209394D01*
X15010289Y-32121789D01*
X15121789Y-32010289D01*
X15209394Y-31879179D01*
X15269737Y-31733497D01*
X15300500Y-31578842D01*
X15300500Y-31421158D01*
X15300500Y-31421155D01*
X15300499Y-31421153D01*
X15269738Y-31266510D01*
X15269737Y-31266503D01*
X15238256Y-31190500D01*
X15209397Y-31120827D01*
X15209390Y-31120814D01*
X15121789Y-30989711D01*
X15121786Y-30989707D01*
X15010292Y-30878213D01*
X15010288Y-30878210D01*
X14879185Y-30790609D01*
X14879172Y-30790602D01*
X14733501Y-30730264D01*
X14733489Y-30730261D01*
X14578845Y-30699500D01*
X14578842Y-30699500D01*
X14421158Y-30699500D01*
X14421155Y-30699500D01*
X14266510Y-30730261D01*
X14266507Y-30730262D01*
X14266506Y-30730262D01*
X14266503Y-30730263D01*
X14194016Y-30760288D01*
X14171452Y-30769634D01*
X14101982Y-30777102D01*
X14039503Y-30745826D01*
X14003851Y-30685737D01*
X14000000Y-30655072D01*
X14000000Y-30171153D01*
X22199500Y-30171153D01*
X22199500Y-30328846D01*
X22230261Y-30483489D01*
X22230264Y-30483501D01*
X22290602Y-30629172D01*
X22290609Y-30629185D01*
X22378210Y-30760288D01*
X22378213Y-30760292D01*
X22489707Y-30871786D01*
X22489711Y-30871789D01*
X22620814Y-30959390D01*
X22620827Y-30959397D01*
X22766498Y-31019735D01*
X22766503Y-31019737D01*
X22921153Y-31050499D01*
X22921156Y-31050500D01*
X22921158Y-31050500D01*
X23078844Y-31050500D01*
X23078845Y-31050499D01*
X23233497Y-31019737D01*
X23379179Y-30959394D01*
X23510289Y-30871789D01*
X23621789Y-30760289D01*
X23709394Y-30629179D01*
X23769737Y-30483497D01*
X23800500Y-30328842D01*
X23800500Y-30311153D01*
X30247000Y-30311153D01*
X30247000Y-30468846D01*
X30277761Y-30623489D01*
X30277764Y-30623501D01*
X30338102Y-30769172D01*
X30338109Y-30769185D01*
X30425710Y-30900288D01*
X30425713Y-30900292D01*
X30537207Y-31011786D01*
X30537211Y-31011789D01*
X30668314Y-31099390D01*
X30668327Y-31099397D01*
X30813998Y-31159735D01*
X30814003Y-31159737D01*
X30968653Y-31190499D01*
X30968656Y-31190500D01*
X30968658Y-31190500D01*
X31126344Y-31190500D01*
X31126345Y-31190499D01*
X31280997Y-31159737D01*
X31426679Y-31099394D01*
X31557789Y-31011789D01*
X31669289Y-30900289D01*
X31756894Y-30769179D01*
X31817237Y-30623497D01*
X31848000Y-30468842D01*
X31848000Y-30311158D01*
X31848000Y-30311155D01*
X31847999Y-30311153D01*
X31817238Y-30156510D01*
X31817237Y-30156503D01*
X31817235Y-30156498D01*
X31756897Y-30010827D01*
X31756890Y-30010814D01*
X31669289Y-29879711D01*
X31669286Y-29879707D01*
X31557792Y-29768213D01*
X31557788Y-29768210D01*
X31426685Y-29680609D01*
X31426672Y-29680602D01*
X31281001Y-29620264D01*
X31280989Y-29620261D01*
X31126345Y-29589500D01*
X31126342Y-29589500D01*
X30968658Y-29589500D01*
X30968655Y-29589500D01*
X30814010Y-29620261D01*
X30813998Y-29620264D01*
X30668327Y-29680602D01*
X30668314Y-29680609D01*
X30537211Y-29768210D01*
X30537207Y-29768213D01*
X30425713Y-29879707D01*
X30425710Y-29879711D01*
X30338109Y-30010814D01*
X30338102Y-30010827D01*
X30277764Y-30156498D01*
X30277761Y-30156510D01*
X30247000Y-30311153D01*
X23800500Y-30311153D01*
X23800500Y-30171158D01*
X23800500Y-30171155D01*
X23800499Y-30171153D01*
X23769738Y-30016510D01*
X23769737Y-30016503D01*
X23767386Y-30010827D01*
X23709397Y-29870827D01*
X23709390Y-29870814D01*
X23621789Y-29739711D01*
X23621786Y-29739707D01*
X23510292Y-29628213D01*
X23510288Y-29628210D01*
X23379185Y-29540609D01*
X23379172Y-29540602D01*
X23233501Y-29480264D01*
X23233489Y-29480261D01*
X23078845Y-29449500D01*
X23078842Y-29449500D01*
X22921158Y-29449500D01*
X22921155Y-29449500D01*
X22766510Y-29480261D01*
X22766498Y-29480264D01*
X22620827Y-29540602D01*
X22620814Y-29540609D01*
X22489711Y-29628210D01*
X22489707Y-29628213D01*
X22378213Y-29739707D01*
X22378210Y-29739711D01*
X22290609Y-29870814D01*
X22290602Y-29870827D01*
X22230264Y-30016498D01*
X22230261Y-30016510D01*
X22199500Y-30171153D01*
X14000000Y-30171153D01*
X14000000Y-27421153D01*
X14449500Y-27421153D01*
X14449500Y-27578846D01*
X14480261Y-27733489D01*
X14480264Y-27733501D01*
X14540602Y-27879172D01*
X14540609Y-27879185D01*
X14628210Y-28010288D01*
X14628213Y-28010292D01*
X14739707Y-28121786D01*
X14739711Y-28121789D01*
X14870814Y-28209390D01*
X14870827Y-28209397D01*
X15016498Y-28269735D01*
X15016503Y-28269737D01*
X15171153Y-28300499D01*
X15171156Y-28300500D01*
X15171158Y-28300500D01*
X15328844Y-28300500D01*
X15328845Y-28300499D01*
X15483497Y-28269737D01*
X15629179Y-28209394D01*
X15760289Y-28121789D01*
X15871789Y-28010289D01*
X15959394Y-27879179D01*
X16019737Y-27733497D01*
X16050500Y-27578842D01*
X16050500Y-27421158D01*
X16050500Y-27421155D01*
X16050499Y-27421153D01*
X16019738Y-27266510D01*
X16019737Y-27266503D01*
X16019735Y-27266498D01*
X15959397Y-27120827D01*
X15959390Y-27120814D01*
X15871789Y-26989711D01*
X15871786Y-26989707D01*
X15760292Y-26878213D01*
X15760288Y-26878210D01*
X15629185Y-26790609D01*
X15629172Y-26790602D01*
X15483501Y-26730264D01*
X15483489Y-26730261D01*
X15328845Y-26699500D01*
X15328842Y-26699500D01*
X15171158Y-26699500D01*
X15171155Y-26699500D01*
X15016510Y-26730261D01*
X15016498Y-26730264D01*
X14870827Y-26790602D01*
X14870814Y-26790609D01*
X14739711Y-26878210D01*
X14739707Y-26878213D01*
X14628213Y-26989707D01*
X14628210Y-26989711D01*
X14540609Y-27120814D01*
X14540602Y-27120827D01*
X14480264Y-27266498D01*
X14480261Y-27266510D01*
X14449500Y-27421153D01*
X14000000Y-27421153D01*
X14000000Y-26344927D01*
X14019685Y-26277888D01*
X14072489Y-26232133D01*
X14141647Y-26222189D01*
X14171450Y-26230365D01*
X14266503Y-26269737D01*
X14421153Y-26300499D01*
X14421156Y-26300500D01*
X14421158Y-26300500D01*
X14578844Y-26300500D01*
X14578845Y-26300499D01*
X14733497Y-26269737D01*
X14879179Y-26209394D01*
X15010289Y-26121789D01*
X15121789Y-26010289D01*
X15209394Y-25879179D01*
X15269737Y-25733497D01*
X15300500Y-25578842D01*
X15300500Y-25421158D01*
X15300500Y-25421155D01*
X15300499Y-25421153D01*
X15269738Y-25266510D01*
X15269737Y-25266503D01*
X15209394Y-25120821D01*
X15174694Y-25068889D01*
X15153816Y-25002215D01*
X15172300Y-24934835D01*
X15174676Y-24931136D01*
X15209394Y-24879179D01*
X15269737Y-24733497D01*
X15300500Y-24578842D01*
X15300500Y-24421158D01*
X15300500Y-24421155D01*
X15300499Y-24421153D01*
X31762000Y-24421153D01*
X31762000Y-24578846D01*
X31792761Y-24733489D01*
X31792764Y-24733501D01*
X31853102Y-24879172D01*
X31853109Y-24879185D01*
X31940710Y-25010288D01*
X31940713Y-25010292D01*
X32052207Y-25121786D01*
X32052211Y-25121789D01*
X32183314Y-25209390D01*
X32183327Y-25209397D01*
X32321183Y-25266498D01*
X32329003Y-25269737D01*
X32483653Y-25300499D01*
X32483656Y-25300500D01*
X32483658Y-25300500D01*
X32641344Y-25300500D01*
X32641345Y-25300499D01*
X32795997Y-25269737D01*
X32941679Y-25209394D01*
X33072789Y-25121789D01*
X33184289Y-25010289D01*
X33271894Y-24879179D01*
X33332237Y-24733497D01*
X33363000Y-24578842D01*
X33363000Y-24421158D01*
X33363000Y-24421155D01*
X33362999Y-24421153D01*
X33332238Y-24266510D01*
X33332237Y-24266503D01*
X33332235Y-24266498D01*
X33271897Y-24120827D01*
X33271890Y-24120814D01*
X33184289Y-23989711D01*
X33184286Y-23989707D01*
X33072792Y-23878213D01*
X33072788Y-23878210D01*
X32941685Y-23790609D01*
X32941672Y-23790602D01*
X32796001Y-23730264D01*
X32795989Y-23730261D01*
X32641345Y-23699500D01*
X32641342Y-23699500D01*
X32483658Y-23699500D01*
X32483655Y-23699500D01*
X32329010Y-23730261D01*
X32328998Y-23730264D01*
X32183327Y-23790602D01*
X32183314Y-23790609D01*
X32052211Y-23878210D01*
X32052207Y-23878213D01*
X31940713Y-23989707D01*
X31940710Y-23989711D01*
X31853109Y-24120814D01*
X31853102Y-24120827D01*
X31792764Y-24266498D01*
X31792761Y-24266510D01*
X31762000Y-24421153D01*
X15300499Y-24421153D01*
X15269738Y-24266510D01*
X15269737Y-24266503D01*
X15230365Y-24171452D01*
X15222897Y-24101983D01*
X15254172Y-24039504D01*
X15314261Y-24003852D01*
X15344927Y-24000000D01*
X28000000Y-24000000D01*
X28000000Y-20921153D01*
X31762000Y-20921153D01*
X31762000Y-21078846D01*
X31792761Y-21233489D01*
X31792764Y-21233501D01*
X31853102Y-21379172D01*
X31853109Y-21379185D01*
X31940710Y-21510288D01*
X31940713Y-21510292D01*
X32052207Y-21621786D01*
X32052211Y-21621789D01*
X32183314Y-21709390D01*
X32183327Y-21709397D01*
X32328998Y-21769735D01*
X32329003Y-21769737D01*
X32483653Y-21800499D01*
X32483656Y-21800500D01*
X32483658Y-21800500D01*
X32641344Y-21800500D01*
X32641345Y-21800499D01*
X32795997Y-21769737D01*
X32941679Y-21709394D01*
X33072789Y-21621789D01*
X33184289Y-21510289D01*
X33271894Y-21379179D01*
X33332237Y-21233497D01*
X33363000Y-21078842D01*
X33363000Y-20921158D01*
X33363000Y-20921155D01*
X33362999Y-20921153D01*
X33332238Y-20766510D01*
X33332237Y-20766503D01*
X33332235Y-20766498D01*
X33271897Y-20620827D01*
X33271890Y-20620814D01*
X33184289Y-20489711D01*
X33184286Y-20489707D01*
X33072792Y-20378213D01*
X33072788Y-20378210D01*
X32941685Y-20290609D01*
X32941672Y-20290602D01*
X32796001Y-20230264D01*
X32795989Y-20230261D01*
X32641345Y-20199500D01*
X32641342Y-20199500D01*
X32483658Y-20199500D01*
X32483655Y-20199500D01*
X32329010Y-20230261D01*
X32328998Y-20230264D01*
X32183327Y-20290602D01*
X32183314Y-20290609D01*
X32052211Y-20378210D01*
X32052207Y-20378213D01*
X31940713Y-20489707D01*
X31940710Y-20489711D01*
X31853109Y-20620814D01*
X31853102Y-20620827D01*
X31792764Y-20766498D01*
X31792761Y-20766510D01*
X31762000Y-20921153D01*
X28000000Y-20921153D01*
X28000000Y-19124000D01*
X28019685Y-19056961D01*
X28072489Y-19011206D01*
X28124000Y-19000000D01*
X33876000Y-19000000D01*
X33943039Y-19019685D01*
G37*
%TD.AperFunction*%
%TD*%
M02*
