M48
; DRILL file {KiCad 9.0.1} date 2026-02-09T17:43:59-0800
; FORMAT={-:-/ absolute / metric / decimal}
; #@! TF.CreationDate,2026-02-09T17:43:59-08:00
; #@! TF.GenerationSoftware,Kicad,Pcbnew,9.0.1
; #@! TF.FileFunction,Plated,1,6,PTH
FMAT,2
METRIC
; #@! TA.AperFunction,Plated,PTH,ViaDrill
T1C0.300
; #@! TA.AperFunction,Plated,PTH,ComponentDrill
T2C0.850
; #@! TA.AperFunction,Plated,PTH,ComponentDrill
T3C1.000
; #@! TA.AperFunction,Plated,PTH,ComponentDrill
T4C1.500
; #@! TA.AperFunction,Plated,PTH,ComponentDrill
T5C2.200
%
G90
G05
T1
X3.0Y-28.15
X5.0Y-45.0
X7.55Y-45.0
X7.9Y-28.0
X14.5Y-24.5
X14.5Y-25.5
X14.5Y-31.5
X15.25Y-27.5
X15.25Y-27.5
X18.25Y-49.25
X19.617Y-34.5
X19.75Y-46.25
X20.0Y-50.5
X20.75Y-47.0
X20.887Y-34.5
X21.438Y-28.5
X21.438Y-32.0
X22.5Y-48.5
X22.5Y-52.0
X23.0Y-30.25
X23.427Y-34.5
X23.427Y-44.712
X23.75Y-49.25
X24.25Y-50.5
X24.5Y-16.0
X24.5Y-19.1
X24.562Y-34.5
X25.5Y-53.5
X25.75Y-50.0
X27.237Y-35.288
X27.237Y-51.0
X27.25Y-54.75
X28.0Y-49.0
X28.5Y-35.288
X28.508Y-44.712
X29.394Y-24.478
X29.438Y-21.25
X29.938Y-35.0
X30.0Y-52.55
X31.047Y-30.39
X31.047Y-46.39
X31.75Y-51.125
X32.5Y-49.0
X32.562Y-21.0
X32.562Y-24.5
X35.0Y-52.5
X35.75Y-47.25
X37.25Y-49.5
X40.0Y-50.949
X40.0Y-52.5
X40.25Y-48.0
X41.744Y-50.949
X42.0Y-49.5
X42.75Y-48.0
X43.5Y-47.25
X44.0Y-25.0
X44.0Y-31.938
X44.0Y-49.0
X48.0Y-24.5
X48.0Y-48.0
X48.055Y-34.5
X49.0Y-17.0
X49.0Y-20.0
X49.0Y-48.75
X49.438Y-28.5
X49.438Y-34.5
X49.5Y-32.0
X50.595Y-48.0
X50.938Y-52.0
X51.0Y-33.0
X51.865Y-34.5
X52.0Y-46.5
X52.25Y-53.75
X52.625Y-32.0
X52.9Y-52.97
X53.135Y-34.5
X54.062Y-52.0
X55.5Y-33.0
X55.5Y-50.25
X56.0Y-29.5
X56.0Y-35.288
X56.945Y-44.712
X57.0Y-35.288
X59.438Y-35.0
X59.485Y-30.39
X59.485Y-46.39
X59.5Y-50.0
X59.5Y-57.5
X60.5Y-24.5
X61.5Y-28.0
X65.5Y-31.5
X66.5Y-25.5
X67.0Y-32.438
X67.0Y-35.562
X67.95Y-45.0
X70.5Y-45.0
X71.5Y-32.438
X71.5Y-35.562
X72.1Y-28.0
T3
X29.75Y-55.25
X29.75Y-57.79
X32.29Y-55.25
X32.29Y-57.79
X34.83Y-55.25
X34.83Y-57.79
X37.37Y-55.25
X37.37Y-57.79
X39.91Y-55.25
X39.91Y-57.79
X42.45Y-55.25
X42.45Y-57.79
X44.99Y-55.25
X44.99Y-57.79
X47.53Y-55.25
X47.53Y-57.79
T4
X15.0Y-50.0
X15.0Y-56.5
X20.0Y-56.5
X25.0Y-56.5
X35.75Y-44.75
X40.25Y-44.75
T5
X3.0Y-19.0
X72.0Y-19.0
T2
G00X24.0Y-7.875
M15
G01X24.0Y-4.725
M16
G05
G00X30.0Y-7.875
M15
G01X30.0Y-4.725
M16
G05
G00X45.0Y-7.875
M15
G01X45.0Y-4.725
M16
G05
G00X51.0Y-7.875
M15
G01X51.0Y-4.725
M16
G05
M30
