%TF.GenerationSoftware,KiCad,Pcbnew,10.0.3*%
%TF.CreationDate,2026-05-26T21:14:49-07:00*%
%TF.ProjectId,GateDriver,47617465-4472-4697-9665-722e6b696361,rev?*%
%TF.SameCoordinates,Original*%
%TF.FileFunction,Legend,Bot*%
%TF.FilePolarity,Positive*%
%FSLAX46Y46*%
G04 Gerber Fmt 4.6, Leading zero omitted, Abs format (unit mm)*
G04 Created by KiCad (PCBNEW 10.0.3) date 2026-05-26 21:14:49*
%MOMM*%
%LPD*%
G01*
G04 APERTURE LIST*
%ADD10C,0.200000*%
%ADD11C,0.300000*%
%ADD12C,0.150000*%
%ADD13C,0.254000*%
%ADD14C,0.120000*%
%ADD15C,0.100000*%
G04 APERTURE END LIST*
D10*
X260000000Y-27500000D02*
X257800000Y-27500000D01*
X257000000Y-27500000D02*
X254800000Y-27500000D01*
X254000000Y-27500000D02*
X251800000Y-27500000D01*
X251000000Y-27500000D02*
X248800000Y-27500000D01*
X248000000Y-27500000D02*
X245800000Y-27500000D01*
X245000000Y-27500000D02*
X242800000Y-27500000D01*
X242000000Y-27500000D02*
X239800000Y-27500000D01*
X239000000Y-27500000D02*
X236800000Y-27500000D01*
X236000000Y-27500000D02*
X233800000Y-27500000D01*
X233000000Y-27500000D02*
X230800000Y-27500000D01*
X230000000Y-27500000D02*
X227800000Y-27500000D01*
X227000000Y-27500000D02*
X224800000Y-27500000D01*
X224000000Y-27500000D02*
X221800000Y-27500000D01*
X221000000Y-27500000D02*
X218800000Y-27500000D01*
X218000000Y-27500000D02*
X215800000Y-27500000D01*
X215000000Y-27500000D02*
X212800000Y-27500000D01*
X212000000Y-27500000D02*
X209800000Y-27500000D01*
X209000000Y-27500000D02*
X206800000Y-27500000D01*
X206000000Y-27500000D02*
X203800000Y-27500000D01*
X203000000Y-27500000D02*
X200800000Y-27500000D01*
X200000000Y-27500000D02*
X197800000Y-27500000D01*
X197000000Y-27500000D02*
X197000000Y-27500000D01*
X66500000Y-27500000D02*
X64300000Y-27500000D01*
X63500000Y-27500000D02*
X61300000Y-27500000D01*
X60500000Y-27500000D02*
X58300000Y-27500000D01*
X57500000Y-27500000D02*
X55300000Y-27500000D01*
X54500000Y-27500000D02*
X52300000Y-27500000D01*
X51500000Y-27500000D02*
X49300000Y-27500000D01*
X48500000Y-27500000D02*
X46300000Y-27500000D01*
X45500000Y-27500000D02*
X43300000Y-27500000D01*
X42500000Y-27500000D02*
X40300000Y-27500000D01*
X39500000Y-27500000D02*
X37300000Y-27500000D01*
X36500000Y-27500000D02*
X34300000Y-27500000D01*
X33500000Y-27500000D02*
X31300000Y-27500000D01*
X30500000Y-27500000D02*
X28300000Y-27500000D01*
X27500000Y-27500000D02*
X25300000Y-27500000D01*
X24500000Y-27500000D02*
X22300000Y-27500000D01*
X21500000Y-27500000D02*
X19300000Y-27500000D01*
X18500000Y-27500000D02*
X16300000Y-27500000D01*
X15500000Y-27500000D02*
X13300000Y-27500000D01*
X12500000Y-27500000D02*
X10300000Y-27500000D01*
X9500000Y-27500000D02*
X7300000Y-27500000D01*
X6500000Y-27500000D02*
X4300000Y-27500000D01*
X3500000Y-27500000D02*
X1300000Y-27500000D01*
X500000Y-27500000D02*
X0Y-27500000D01*
X130500000Y-375000D02*
X130500000Y-2575000D01*
X130500000Y-3375000D02*
X130500000Y-5575000D01*
X130500000Y-6375000D02*
X130500000Y-8575000D01*
X130500000Y-9375000D02*
X130500000Y-11575000D01*
X130500000Y-12375000D02*
X130500000Y-14575000D01*
X130500000Y-15375000D02*
X130500000Y-17575000D01*
X130500000Y-18375000D02*
X130500000Y-20575000D01*
X130500000Y-21375000D02*
X130500000Y-23575000D01*
X130500000Y-24375000D02*
X130500000Y-26575000D01*
X130500000Y-27375000D02*
X130500000Y-27625000D01*
X156500000Y-27500000D02*
X154300000Y-27500000D01*
X153500000Y-27500000D02*
X151300000Y-27500000D01*
X150500000Y-27500000D02*
X148300000Y-27500000D01*
X147500000Y-27500000D02*
X145300000Y-27500000D01*
X144500000Y-27500000D02*
X142300000Y-27500000D01*
X141500000Y-27500000D02*
X139300000Y-27500000D01*
X138500000Y-27500000D02*
X136300000Y-27500000D01*
X135500000Y-27500000D02*
X133300000Y-27500000D01*
X132500000Y-27500000D02*
X130300000Y-27500000D01*
X129500000Y-27500000D02*
X127300000Y-27500000D01*
X126500000Y-27500000D02*
X124300000Y-27500000D01*
X123500000Y-27500000D02*
X121300000Y-27500000D01*
X120500000Y-27500000D02*
X118300000Y-27500000D01*
X117500000Y-27500000D02*
X115300000Y-27500000D01*
X114500000Y-27500000D02*
X112300000Y-27500000D01*
X111500000Y-27500000D02*
X109300000Y-27500000D01*
X108500000Y-27500000D02*
X107000000Y-27500000D01*
X220500000Y125000D02*
X220500000Y-2075000D01*
X220500000Y-2875000D02*
X220500000Y-5075000D01*
X220500000Y-5875000D02*
X220500000Y-8075000D01*
X220500000Y-8875000D02*
X220500000Y-11075000D01*
X220500000Y-11875000D02*
X220500000Y-14075000D01*
X220500000Y-14875000D02*
X220500000Y-17075000D01*
X220500000Y-17875000D02*
X220500000Y-20075000D01*
X220500000Y-20875000D02*
X220500000Y-23075000D01*
X220500000Y-23875000D02*
X220500000Y-26075000D01*
X220500000Y-26875000D02*
X220500000Y-27125000D01*
X40500000Y0D02*
X40500000Y-2200000D01*
X40500000Y-3000000D02*
X40500000Y-5200000D01*
X40500000Y-6000000D02*
X40500000Y-8200000D01*
X40500000Y-9000000D02*
X40500000Y-11200000D01*
X40500000Y-12000000D02*
X40500000Y-14200000D01*
X40500000Y-15000000D02*
X40500000Y-17200000D01*
X40500000Y-18000000D02*
X40500000Y-20200000D01*
X40500000Y-21000000D02*
X40500000Y-23200000D01*
X40500000Y-24000000D02*
X40500000Y-26200000D01*
X40500000Y-27000000D02*
X40500000Y-27250000D01*
D11*
G36*
X159822799Y-27016378D02*
G01*
X159919065Y-27112644D01*
X159975939Y-27340135D01*
X159975939Y-27803206D01*
X159919065Y-28030697D01*
X159822799Y-28126963D01*
X159733386Y-28171671D01*
X159518492Y-28171671D01*
X159429078Y-28126964D01*
X159332811Y-28030696D01*
X159275939Y-27803207D01*
X159275939Y-27340134D01*
X159332811Y-27112645D01*
X159429078Y-27016377D01*
X159518492Y-26971671D01*
X159733386Y-26971671D01*
X159822799Y-27016378D01*
G37*
G36*
X165751371Y-27016378D02*
G01*
X165847637Y-27112644D01*
X165904511Y-27340135D01*
X165904511Y-27803206D01*
X165847637Y-28030697D01*
X165751371Y-28126963D01*
X165661958Y-28171671D01*
X165447064Y-28171671D01*
X165357650Y-28126964D01*
X165261383Y-28030696D01*
X165204511Y-27803207D01*
X165204511Y-27340134D01*
X165261383Y-27112645D01*
X165357650Y-27016377D01*
X165447064Y-26971671D01*
X165661958Y-26971671D01*
X165751371Y-27016378D01*
G37*
G36*
X169965658Y-27802092D02*
G01*
X170002662Y-27839096D01*
X170047369Y-27928510D01*
X170047369Y-28000546D01*
X170002662Y-28089959D01*
X169965658Y-28126964D01*
X169876244Y-28171671D01*
X169561654Y-28171671D01*
X169561654Y-27757385D01*
X169876244Y-27757385D01*
X169965658Y-27802092D01*
G37*
G36*
X170037087Y-27016378D02*
G01*
X170074091Y-27053382D01*
X170118797Y-27142794D01*
X170118797Y-27286261D01*
X170074090Y-27375674D01*
X170044913Y-27404851D01*
X169887311Y-27457385D01*
X169561654Y-27457385D01*
X169561654Y-26971671D01*
X169947673Y-26971671D01*
X170037087Y-27016378D01*
G37*
G36*
X172822799Y-27730662D02*
G01*
X172859804Y-27767667D01*
X172904511Y-27857080D01*
X172904511Y-28000547D01*
X172859805Y-28089959D01*
X172822801Y-28126963D01*
X172733387Y-28171671D01*
X172347368Y-28171671D01*
X172347368Y-27685957D01*
X172733387Y-27685957D01*
X172822799Y-27730662D01*
G37*
G36*
X174322799Y-27730662D02*
G01*
X174359804Y-27767667D01*
X174404511Y-27857080D01*
X174404511Y-28000547D01*
X174359805Y-28089959D01*
X174322801Y-28126963D01*
X174233387Y-28171671D01*
X173847368Y-28171671D01*
X173847368Y-27685957D01*
X174233387Y-27685957D01*
X174322799Y-27730662D01*
G37*
G36*
X177894228Y-27730662D02*
G01*
X177931233Y-27767667D01*
X177975940Y-27857080D01*
X177975940Y-28000547D01*
X177931234Y-28089959D01*
X177894230Y-28126963D01*
X177804816Y-28171671D01*
X177418797Y-28171671D01*
X177418797Y-27685957D01*
X177804816Y-27685957D01*
X177894228Y-27730662D01*
G37*
G36*
X180402055Y-27024204D02*
G01*
X180502662Y-27124811D01*
X180555841Y-27231170D01*
X180618797Y-27482991D01*
X180618797Y-27660350D01*
X180555841Y-27912171D01*
X180502662Y-28018530D01*
X180402055Y-28119137D01*
X180244457Y-28171671D01*
X180061654Y-28171671D01*
X180061654Y-26971671D01*
X180244457Y-26971671D01*
X180402055Y-27024204D01*
G37*
G36*
X182037086Y-27016378D02*
G01*
X182133352Y-27112644D01*
X182190226Y-27340135D01*
X182190226Y-27803206D01*
X182133352Y-28030697D01*
X182037086Y-28126963D01*
X181947673Y-28171671D01*
X181732779Y-28171671D01*
X181643365Y-28126964D01*
X181547098Y-28030696D01*
X181490226Y-27803207D01*
X181490226Y-27340134D01*
X181547098Y-27112645D01*
X181643365Y-27016377D01*
X181732779Y-26971671D01*
X181947673Y-26971671D01*
X182037086Y-27016378D01*
G37*
G36*
X186322801Y-27016378D02*
G01*
X186419067Y-27112644D01*
X186475941Y-27340135D01*
X186475941Y-27803206D01*
X186419067Y-28030697D01*
X186322801Y-28126963D01*
X186233388Y-28171671D01*
X186018494Y-28171671D01*
X185929080Y-28126964D01*
X185832813Y-28030696D01*
X185775941Y-27803207D01*
X185775941Y-27340134D01*
X185832813Y-27112645D01*
X185929080Y-27016377D01*
X186018494Y-26971671D01*
X186233388Y-26971671D01*
X186322801Y-27016378D01*
G37*
G36*
X191679943Y-27730662D02*
G01*
X191716948Y-27767667D01*
X191761655Y-27857080D01*
X191761655Y-28000547D01*
X191716949Y-28089959D01*
X191679945Y-28126963D01*
X191590531Y-28171671D01*
X191204512Y-28171671D01*
X191204512Y-27685957D01*
X191590531Y-27685957D01*
X191679943Y-27730662D01*
G37*
G36*
X193179944Y-27016378D02*
G01*
X193276210Y-27112644D01*
X193333084Y-27340135D01*
X193333084Y-27803206D01*
X193276210Y-28030697D01*
X193179944Y-28126963D01*
X193090531Y-28171671D01*
X192875637Y-28171671D01*
X192786223Y-28126964D01*
X192689956Y-28030696D01*
X192633084Y-27803207D01*
X192633084Y-27340134D01*
X192689956Y-27112645D01*
X192786223Y-27016377D01*
X192875637Y-26971671D01*
X193090531Y-26971671D01*
X193179944Y-27016378D01*
G37*
G36*
X162268797Y-27847329D02*
G01*
X162119768Y-27400242D01*
X162417827Y-27400242D01*
X162268797Y-27847329D01*
G37*
G36*
X171197369Y-27847329D02*
G01*
X171048340Y-27400242D01*
X171346399Y-27400242D01*
X171197369Y-27847329D01*
G37*
G36*
X196656894Y-28638338D02*
G01*
X156737843Y-28638338D01*
X156737843Y-26821671D01*
X156904510Y-26821671D01*
X156904510Y-28321671D01*
X156907392Y-28350935D01*
X156929790Y-28405007D01*
X156971174Y-28446391D01*
X157025246Y-28468789D01*
X157083774Y-28468789D01*
X157137846Y-28446391D01*
X157179230Y-28405007D01*
X157201628Y-28350935D01*
X157204510Y-28321671D01*
X157204510Y-27893100D01*
X157547368Y-27893100D01*
X157547368Y-28035957D01*
X157550250Y-28065221D01*
X157552312Y-28070199D01*
X157552694Y-28075575D01*
X157563204Y-28103039D01*
X157634632Y-28245896D01*
X157642560Y-28258491D01*
X157644076Y-28262150D01*
X157647455Y-28266267D01*
X157650297Y-28270782D01*
X157653291Y-28273378D01*
X157662731Y-28284881D01*
X157734160Y-28356309D01*
X157745660Y-28365747D01*
X157748257Y-28368741D01*
X157752769Y-28371581D01*
X157756890Y-28374963D01*
X157760549Y-28376478D01*
X157773143Y-28384406D01*
X157915999Y-28455835D01*
X157943463Y-28466344D01*
X157948837Y-28466725D01*
X157953818Y-28468789D01*
X157983082Y-28471671D01*
X158340225Y-28471671D01*
X158355036Y-28470212D01*
X158358986Y-28470493D01*
X158364180Y-28469311D01*
X158369489Y-28468789D01*
X158373151Y-28467271D01*
X158387659Y-28463973D01*
X158601945Y-28392545D01*
X158628796Y-28380556D01*
X158673010Y-28342209D01*
X158699184Y-28289861D01*
X158703333Y-28231481D01*
X158684825Y-28175957D01*
X158646477Y-28131743D01*
X158594130Y-28105569D01*
X158535750Y-28101420D01*
X158507076Y-28107940D01*
X158315885Y-28171671D01*
X158018492Y-28171671D01*
X157929078Y-28126963D01*
X157892073Y-28089958D01*
X157847368Y-28000547D01*
X157847368Y-27928509D01*
X157892074Y-27839095D01*
X157929078Y-27802092D01*
X158035438Y-27748912D01*
X158305176Y-27681478D01*
X158307331Y-27680707D01*
X158308415Y-27680631D01*
X158320611Y-27675963D01*
X158332867Y-27671585D01*
X158333737Y-27670940D01*
X158335878Y-27670121D01*
X158478736Y-27598692D01*
X158491329Y-27590764D01*
X158494989Y-27589249D01*
X158499108Y-27585867D01*
X158503622Y-27583027D01*
X158506218Y-27580033D01*
X158517720Y-27570594D01*
X158589148Y-27499166D01*
X158598588Y-27487663D01*
X158601581Y-27485068D01*
X158604419Y-27480558D01*
X158607803Y-27476436D01*
X158609319Y-27472773D01*
X158617246Y-27460182D01*
X158686502Y-27321671D01*
X158975939Y-27321671D01*
X158975939Y-27821671D01*
X158976441Y-27826774D01*
X158976116Y-27828962D01*
X158977735Y-27839912D01*
X158978821Y-27850935D01*
X158979668Y-27852979D01*
X158980418Y-27858051D01*
X159051846Y-28143765D01*
X159061739Y-28171456D01*
X159068377Y-28180415D01*
X159072646Y-28190721D01*
X159091301Y-28213451D01*
X159234159Y-28356308D01*
X159245660Y-28365746D01*
X159248257Y-28368741D01*
X159252770Y-28371581D01*
X159256890Y-28374963D01*
X159260549Y-28376478D01*
X159273143Y-28384406D01*
X159415999Y-28455835D01*
X159443463Y-28466344D01*
X159448837Y-28466725D01*
X159453818Y-28468789D01*
X159483082Y-28471671D01*
X159768796Y-28471671D01*
X159798060Y-28468789D01*
X159803040Y-28466725D01*
X159808415Y-28466344D01*
X159835878Y-28455835D01*
X159978735Y-28384406D01*
X159991328Y-28376478D01*
X159994988Y-28374963D01*
X159999107Y-28371581D01*
X160003621Y-28368741D01*
X160006217Y-28365747D01*
X160017719Y-28356308D01*
X160160576Y-28213451D01*
X160179231Y-28190721D01*
X160183498Y-28180417D01*
X160190138Y-28171457D01*
X160200031Y-28143766D01*
X160271460Y-27858052D01*
X160272210Y-27852979D01*
X160273057Y-27850935D01*
X160274142Y-27839915D01*
X160275762Y-27828963D01*
X160275436Y-27826774D01*
X160275939Y-27821671D01*
X160275939Y-27321671D01*
X160275436Y-27316567D01*
X160275762Y-27314379D01*
X160274142Y-27303426D01*
X160273057Y-27292407D01*
X160272210Y-27290362D01*
X160271460Y-27285290D01*
X160200031Y-26999576D01*
X160190138Y-26971885D01*
X160183498Y-26962924D01*
X160179231Y-26952621D01*
X160160576Y-26929891D01*
X160052356Y-26821671D01*
X160618796Y-26821671D01*
X160618796Y-28321671D01*
X160621678Y-28350935D01*
X160644076Y-28405007D01*
X160685460Y-28446391D01*
X160739532Y-28468789D01*
X160798060Y-28468789D01*
X160852132Y-28446391D01*
X160893516Y-28405007D01*
X160915914Y-28350935D01*
X160918796Y-28321671D01*
X160918796Y-26971671D01*
X161483082Y-26971671D01*
X161512346Y-26968789D01*
X161566418Y-26946391D01*
X161607802Y-26905007D01*
X161625140Y-26863148D01*
X161626495Y-26869105D01*
X162126495Y-28369105D01*
X162138483Y-28395956D01*
X162145505Y-28404053D01*
X162150298Y-28413638D01*
X162164504Y-28425959D01*
X162176830Y-28440171D01*
X162186417Y-28444964D01*
X162194512Y-28451985D01*
X162212354Y-28457932D01*
X162229178Y-28466344D01*
X162239868Y-28467103D01*
X162250036Y-28470493D01*
X162268792Y-28469160D01*
X162287558Y-28470494D01*
X162297728Y-28467103D01*
X162308417Y-28466344D01*
X162325238Y-28457933D01*
X162343082Y-28451985D01*
X162351178Y-28444962D01*
X162360764Y-28440170D01*
X162373087Y-28425961D01*
X162387296Y-28413638D01*
X162392088Y-28404052D01*
X162399111Y-28395956D01*
X162411099Y-28369105D01*
X162436665Y-28292407D01*
X162907393Y-28292407D01*
X162907393Y-28350935D01*
X162929791Y-28405007D01*
X162971175Y-28446391D01*
X163025247Y-28468789D01*
X163054511Y-28471671D01*
X163911654Y-28471671D01*
X163940918Y-28468789D01*
X163994990Y-28446391D01*
X164036374Y-28405007D01*
X164058772Y-28350935D01*
X164058772Y-28292407D01*
X164036374Y-28238335D01*
X163994990Y-28196951D01*
X163940918Y-28174553D01*
X163911654Y-28171671D01*
X163633082Y-28171671D01*
X163633082Y-26821671D01*
X164261653Y-26821671D01*
X164261653Y-28321671D01*
X164264535Y-28350935D01*
X164286933Y-28405007D01*
X164328317Y-28446391D01*
X164382389Y-28468789D01*
X164440917Y-28468789D01*
X164494989Y-28446391D01*
X164536373Y-28405007D01*
X164558771Y-28350935D01*
X164561653Y-28321671D01*
X164561653Y-27321671D01*
X164904511Y-27321671D01*
X164904511Y-27821671D01*
X164905013Y-27826774D01*
X164904688Y-27828962D01*
X164906307Y-27839912D01*
X164907393Y-27850935D01*
X164908240Y-27852979D01*
X164908990Y-27858051D01*
X164980418Y-28143765D01*
X164990311Y-28171456D01*
X164996949Y-28180415D01*
X165001218Y-28190721D01*
X165019873Y-28213451D01*
X165162731Y-28356308D01*
X165174232Y-28365746D01*
X165176829Y-28368741D01*
X165181342Y-28371581D01*
X165185462Y-28374963D01*
X165189121Y-28376478D01*
X165201715Y-28384406D01*
X165344571Y-28455835D01*
X165372035Y-28466344D01*
X165377409Y-28466725D01*
X165382390Y-28468789D01*
X165411654Y-28471671D01*
X165697368Y-28471671D01*
X165726632Y-28468789D01*
X165731612Y-28466725D01*
X165736987Y-28466344D01*
X165764450Y-28455835D01*
X165907307Y-28384406D01*
X165919900Y-28376478D01*
X165923560Y-28374963D01*
X165927679Y-28371581D01*
X165932193Y-28368741D01*
X165934789Y-28365747D01*
X165946291Y-28356308D01*
X166089148Y-28213451D01*
X166107803Y-28190721D01*
X166112070Y-28180417D01*
X166118710Y-28171457D01*
X166128603Y-28143766D01*
X166200032Y-27858052D01*
X166200782Y-27852979D01*
X166201629Y-27850935D01*
X166202714Y-27839915D01*
X166204334Y-27828963D01*
X166204008Y-27826774D01*
X166204511Y-27821671D01*
X166204511Y-27321671D01*
X166204008Y-27316567D01*
X166204334Y-27314379D01*
X166202714Y-27303426D01*
X166201629Y-27292407D01*
X166200782Y-27290362D01*
X166200032Y-27285290D01*
X166128603Y-26999576D01*
X166118710Y-26971885D01*
X166112070Y-26962924D01*
X166107803Y-26952621D01*
X166089148Y-26929891D01*
X165980928Y-26821671D01*
X166547368Y-26821671D01*
X166547368Y-28321671D01*
X166548109Y-28329196D01*
X166547734Y-28332148D01*
X166548776Y-28335968D01*
X166550250Y-28350935D01*
X166557885Y-28369367D01*
X166563134Y-28388612D01*
X166568988Y-28396171D01*
X166572648Y-28405007D01*
X166586755Y-28419114D01*
X166598969Y-28434886D01*
X166607271Y-28439630D01*
X166614032Y-28446391D01*
X166632462Y-28454025D01*
X166649785Y-28463924D01*
X166659270Y-28465129D01*
X166668104Y-28468789D01*
X166688054Y-28468789D01*
X166707845Y-28471305D01*
X166717070Y-28468789D01*
X166726632Y-28468789D01*
X166745064Y-28461153D01*
X166764309Y-28455905D01*
X166771868Y-28450050D01*
X166780704Y-28446391D01*
X166794811Y-28432283D01*
X166810583Y-28420070D01*
X166819288Y-28407806D01*
X166822088Y-28405007D01*
X166823226Y-28402259D01*
X166827604Y-28396092D01*
X167404511Y-27386506D01*
X167404511Y-28321671D01*
X167407393Y-28350935D01*
X167429791Y-28405007D01*
X167471175Y-28446391D01*
X167525247Y-28468789D01*
X167583775Y-28468789D01*
X167637847Y-28446391D01*
X167679231Y-28405007D01*
X167701629Y-28350935D01*
X167704511Y-28321671D01*
X167704511Y-26821671D01*
X169261654Y-26821671D01*
X169261654Y-28321671D01*
X169264536Y-28350935D01*
X169286934Y-28405007D01*
X169328318Y-28446391D01*
X169382390Y-28468789D01*
X169411654Y-28471671D01*
X169911654Y-28471671D01*
X169940918Y-28468789D01*
X169945895Y-28466727D01*
X169951273Y-28466345D01*
X169978736Y-28455835D01*
X170121594Y-28384406D01*
X170134187Y-28376478D01*
X170137847Y-28374963D01*
X170141966Y-28371581D01*
X170146480Y-28368741D01*
X170149076Y-28365747D01*
X170160578Y-28356308D01*
X170232006Y-28284880D01*
X170241446Y-28273377D01*
X170244439Y-28270782D01*
X170247277Y-28266272D01*
X170250661Y-28262150D01*
X170252177Y-28258487D01*
X170260104Y-28245896D01*
X170331533Y-28103040D01*
X170342042Y-28075576D01*
X170342423Y-28070201D01*
X170344487Y-28065221D01*
X170347369Y-28035957D01*
X170347369Y-27893100D01*
X170344487Y-27863836D01*
X170342425Y-27858858D01*
X170342043Y-27853481D01*
X170331533Y-27826018D01*
X170260104Y-27683160D01*
X170252177Y-27670568D01*
X170250661Y-27666906D01*
X170247277Y-27662783D01*
X170244439Y-27658274D01*
X170241446Y-27655678D01*
X170232006Y-27644176D01*
X170230823Y-27642993D01*
X170232006Y-27642023D01*
X170303435Y-27570594D01*
X170312876Y-27559089D01*
X170315868Y-27556495D01*
X170318706Y-27551985D01*
X170322090Y-27547863D01*
X170323606Y-27544201D01*
X170331533Y-27531610D01*
X170402961Y-27388752D01*
X170413471Y-27361289D01*
X170413852Y-27355913D01*
X170415915Y-27350935D01*
X170418797Y-27321671D01*
X170418797Y-27107385D01*
X170415915Y-27078121D01*
X170413852Y-27073142D01*
X170413471Y-27067767D01*
X170402961Y-27040304D01*
X170331533Y-26897446D01*
X170323604Y-26884851D01*
X170322089Y-26881192D01*
X170318707Y-26877071D01*
X170315868Y-26872561D01*
X170312876Y-26869966D01*
X170303434Y-26858461D01*
X170285405Y-26840432D01*
X170548547Y-26840432D01*
X170555067Y-26869105D01*
X171055067Y-28369105D01*
X171067055Y-28395956D01*
X171074077Y-28404053D01*
X171078870Y-28413638D01*
X171093076Y-28425959D01*
X171105402Y-28440171D01*
X171114989Y-28444964D01*
X171123084Y-28451985D01*
X171140926Y-28457932D01*
X171157750Y-28466344D01*
X171168440Y-28467103D01*
X171178608Y-28470493D01*
X171197364Y-28469160D01*
X171216130Y-28470494D01*
X171226300Y-28467103D01*
X171236989Y-28466344D01*
X171253810Y-28457933D01*
X171271654Y-28451985D01*
X171279750Y-28444962D01*
X171289336Y-28440170D01*
X171301659Y-28425961D01*
X171315868Y-28413638D01*
X171320660Y-28404052D01*
X171327683Y-28395956D01*
X171339671Y-28369105D01*
X171839672Y-26869105D01*
X171846192Y-26840431D01*
X171844858Y-26821671D01*
X172047368Y-26821671D01*
X172047368Y-28321671D01*
X172050250Y-28350935D01*
X172072648Y-28405007D01*
X172114032Y-28446391D01*
X172168104Y-28468789D01*
X172197368Y-28471671D01*
X172768797Y-28471671D01*
X172798061Y-28468789D01*
X172803041Y-28466725D01*
X172808416Y-28466344D01*
X172835879Y-28455835D01*
X172978736Y-28384406D01*
X172991331Y-28376477D01*
X172994988Y-28374963D01*
X172999105Y-28371583D01*
X173003622Y-28368741D01*
X173006219Y-28365746D01*
X173017719Y-28356309D01*
X173089148Y-28284881D01*
X173098590Y-28273375D01*
X173101582Y-28270781D01*
X173104421Y-28266270D01*
X173107803Y-28262150D01*
X173109318Y-28258490D01*
X173117247Y-28245896D01*
X173188675Y-28103038D01*
X173199185Y-28075575D01*
X173199566Y-28070199D01*
X173201629Y-28065221D01*
X173204511Y-28035957D01*
X173204511Y-27821671D01*
X173201629Y-27792407D01*
X173199566Y-27787428D01*
X173199185Y-27782053D01*
X173188675Y-27754590D01*
X173117247Y-27611732D01*
X173109320Y-27599140D01*
X173107804Y-27595479D01*
X173104420Y-27591356D01*
X173101582Y-27586847D01*
X173098590Y-27584252D01*
X173089149Y-27572748D01*
X173017720Y-27501319D01*
X173006218Y-27491879D01*
X173003622Y-27488886D01*
X172999108Y-27486045D01*
X172994989Y-27482664D01*
X172991329Y-27481148D01*
X172978736Y-27473221D01*
X172835879Y-27401793D01*
X172832444Y-27400478D01*
X173177396Y-26907690D01*
X173191817Y-26882064D01*
X173204476Y-26824922D01*
X173203902Y-26821671D01*
X173547368Y-26821671D01*
X173547368Y-28321671D01*
X173550250Y-28350935D01*
X173572648Y-28405007D01*
X173614032Y-28446391D01*
X173668104Y-28468789D01*
X173697368Y-28471671D01*
X174268797Y-28471671D01*
X174298061Y-28468789D01*
X174303041Y-28466725D01*
X174308416Y-28466344D01*
X174335879Y-28455835D01*
X174478736Y-28384406D01*
X174491331Y-28376477D01*
X174494988Y-28374963D01*
X174499105Y-28371583D01*
X174503622Y-28368741D01*
X174506219Y-28365746D01*
X174517719Y-28356309D01*
X174589148Y-28284881D01*
X174598590Y-28273375D01*
X174601582Y-28270781D01*
X174604421Y-28266270D01*
X174607803Y-28262150D01*
X174609318Y-28258490D01*
X174617247Y-28245896D01*
X174688675Y-28103038D01*
X174699185Y-28075575D01*
X174699566Y-28070199D01*
X174701629Y-28065221D01*
X174704511Y-28035957D01*
X174704511Y-27821671D01*
X174701629Y-27792407D01*
X174699566Y-27787428D01*
X174699185Y-27782053D01*
X174688675Y-27754590D01*
X174617247Y-27611732D01*
X174609320Y-27599140D01*
X174607804Y-27595479D01*
X174604420Y-27591356D01*
X174601582Y-27586847D01*
X174598590Y-27584252D01*
X174589149Y-27572748D01*
X174517720Y-27501319D01*
X174506218Y-27491879D01*
X174503622Y-27488886D01*
X174499108Y-27486045D01*
X174494989Y-27482664D01*
X174491329Y-27481148D01*
X174478736Y-27473221D01*
X174335879Y-27401793D01*
X174332444Y-27400478D01*
X174677396Y-26907690D01*
X174691817Y-26882064D01*
X174704476Y-26824922D01*
X174703902Y-26821671D01*
X175047368Y-26821671D01*
X175047368Y-28321671D01*
X175050250Y-28350935D01*
X175072648Y-28405007D01*
X175114032Y-28446391D01*
X175168104Y-28468789D01*
X175226632Y-28468789D01*
X175280704Y-28446391D01*
X175322088Y-28405007D01*
X175344486Y-28350935D01*
X175347368Y-28321671D01*
X175347368Y-26821671D01*
X175761654Y-26821671D01*
X175761654Y-28321671D01*
X175764536Y-28350935D01*
X175786934Y-28405007D01*
X175828318Y-28446391D01*
X175882390Y-28468789D01*
X175911654Y-28471671D01*
X176625940Y-28471671D01*
X176655204Y-28468789D01*
X176709276Y-28446391D01*
X176750660Y-28405007D01*
X176773058Y-28350935D01*
X176773058Y-28292407D01*
X176750660Y-28238335D01*
X176709276Y-28196951D01*
X176655204Y-28174553D01*
X176625940Y-28171671D01*
X176061654Y-28171671D01*
X176061654Y-27757385D01*
X176411654Y-27757385D01*
X176440918Y-27754503D01*
X176494990Y-27732105D01*
X176536374Y-27690721D01*
X176558772Y-27636649D01*
X176558772Y-27578121D01*
X176536374Y-27524049D01*
X176494990Y-27482665D01*
X176440918Y-27460267D01*
X176411654Y-27457385D01*
X176061654Y-27457385D01*
X176061654Y-26971671D01*
X176625940Y-26971671D01*
X176655204Y-26968789D01*
X176709276Y-26946391D01*
X176750660Y-26905007D01*
X176773058Y-26850935D01*
X176773058Y-26821671D01*
X177118797Y-26821671D01*
X177118797Y-28321671D01*
X177121679Y-28350935D01*
X177144077Y-28405007D01*
X177185461Y-28446391D01*
X177239533Y-28468789D01*
X177268797Y-28471671D01*
X177840226Y-28471671D01*
X177869490Y-28468789D01*
X177874470Y-28466725D01*
X177879845Y-28466344D01*
X177907308Y-28455835D01*
X178050165Y-28384406D01*
X178062760Y-28376477D01*
X178066417Y-28374963D01*
X178070534Y-28371583D01*
X178075051Y-28368741D01*
X178077648Y-28365746D01*
X178089148Y-28356309D01*
X178160577Y-28284881D01*
X178170019Y-28273375D01*
X178173011Y-28270781D01*
X178175850Y-28266270D01*
X178179232Y-28262150D01*
X178180747Y-28258490D01*
X178188676Y-28245896D01*
X178260104Y-28103038D01*
X178270614Y-28075575D01*
X178270995Y-28070199D01*
X178273058Y-28065221D01*
X178275940Y-28035957D01*
X178275940Y-27821671D01*
X178273058Y-27792407D01*
X178270995Y-27787428D01*
X178270614Y-27782053D01*
X178260104Y-27754590D01*
X178188676Y-27611732D01*
X178180749Y-27599140D01*
X178179233Y-27595479D01*
X178175849Y-27591356D01*
X178173011Y-27586847D01*
X178170019Y-27584252D01*
X178160578Y-27572748D01*
X178089149Y-27501319D01*
X178077647Y-27491879D01*
X178075051Y-27488886D01*
X178070537Y-27486045D01*
X178066418Y-27482664D01*
X178062758Y-27481148D01*
X178050165Y-27473221D01*
X177907308Y-27401793D01*
X177903873Y-27400478D01*
X178248825Y-26907690D01*
X178263246Y-26882064D01*
X178275905Y-26824922D01*
X178275331Y-26821671D01*
X179761654Y-26821671D01*
X179761654Y-28321671D01*
X179764536Y-28350935D01*
X179786934Y-28405007D01*
X179828318Y-28446391D01*
X179882390Y-28468789D01*
X179911654Y-28471671D01*
X180268797Y-28471671D01*
X180283608Y-28470212D01*
X180287558Y-28470493D01*
X180292752Y-28469311D01*
X180298061Y-28468789D01*
X180301723Y-28467271D01*
X180316231Y-28463973D01*
X180530517Y-28392545D01*
X180557368Y-28380556D01*
X180561438Y-28377025D01*
X180566418Y-28374963D01*
X180589149Y-28356308D01*
X180732006Y-28213451D01*
X180741446Y-28201948D01*
X180744439Y-28199353D01*
X180747277Y-28194843D01*
X180750661Y-28190721D01*
X180752177Y-28187058D01*
X180760104Y-28174467D01*
X180831533Y-28031611D01*
X180832352Y-28029468D01*
X180832997Y-28028599D01*
X180837381Y-28016327D01*
X180842042Y-28004147D01*
X180842118Y-28003066D01*
X180842890Y-28000908D01*
X180914318Y-27715194D01*
X180915067Y-27710122D01*
X180915915Y-27708078D01*
X180917000Y-27697055D01*
X180918620Y-27686105D01*
X180918294Y-27683917D01*
X180918797Y-27678814D01*
X180918797Y-27464528D01*
X180918294Y-27459424D01*
X180918620Y-27457237D01*
X180917000Y-27446286D01*
X180915915Y-27435264D01*
X180915067Y-27433219D01*
X180914318Y-27428148D01*
X180887699Y-27321671D01*
X181190226Y-27321671D01*
X181190226Y-27821671D01*
X181190728Y-27826774D01*
X181190403Y-27828962D01*
X181192022Y-27839912D01*
X181193108Y-27850935D01*
X181193955Y-27852979D01*
X181194705Y-27858051D01*
X181266133Y-28143765D01*
X181276026Y-28171456D01*
X181282664Y-28180415D01*
X181286933Y-28190721D01*
X181305588Y-28213451D01*
X181448446Y-28356308D01*
X181459947Y-28365746D01*
X181462544Y-28368741D01*
X181467057Y-28371581D01*
X181471177Y-28374963D01*
X181474836Y-28376478D01*
X181487430Y-28384406D01*
X181630286Y-28455835D01*
X181657750Y-28466344D01*
X181663124Y-28466725D01*
X181668105Y-28468789D01*
X181697369Y-28471671D01*
X181983083Y-28471671D01*
X182012347Y-28468789D01*
X182017327Y-28466725D01*
X182022702Y-28466344D01*
X182050165Y-28455835D01*
X182193022Y-28384406D01*
X182205615Y-28376478D01*
X182209275Y-28374963D01*
X182213394Y-28371581D01*
X182217908Y-28368741D01*
X182220504Y-28365747D01*
X182232006Y-28356308D01*
X182374863Y-28213451D01*
X182393518Y-28190721D01*
X182397785Y-28180417D01*
X182404425Y-28171457D01*
X182414318Y-28143766D01*
X182485747Y-27858052D01*
X182486497Y-27852979D01*
X182487344Y-27850935D01*
X182488429Y-27839915D01*
X182490049Y-27828963D01*
X182489723Y-27826774D01*
X182490226Y-27821671D01*
X182490226Y-27321671D01*
X182489723Y-27316567D01*
X182490049Y-27314379D01*
X182488429Y-27303426D01*
X182487344Y-27292407D01*
X182486497Y-27290362D01*
X182485747Y-27285290D01*
X182414318Y-26999576D01*
X182404425Y-26971885D01*
X182397785Y-26962924D01*
X182393518Y-26952621D01*
X182374863Y-26929891D01*
X182266643Y-26821671D01*
X183975940Y-26821671D01*
X183975940Y-28321671D01*
X183976681Y-28329196D01*
X183976306Y-28332148D01*
X183977348Y-28335968D01*
X183978822Y-28350935D01*
X183986457Y-28369367D01*
X183991706Y-28388612D01*
X183997560Y-28396171D01*
X184001220Y-28405007D01*
X184015327Y-28419114D01*
X184027541Y-28434886D01*
X184035843Y-28439630D01*
X184042604Y-28446391D01*
X184061034Y-28454025D01*
X184078357Y-28463924D01*
X184087842Y-28465129D01*
X184096676Y-28468789D01*
X184116626Y-28468789D01*
X184136417Y-28471305D01*
X184145642Y-28468789D01*
X184155204Y-28468789D01*
X184173636Y-28461153D01*
X184192881Y-28455905D01*
X184200440Y-28450050D01*
X184209276Y-28446391D01*
X184223383Y-28432283D01*
X184239155Y-28420070D01*
X184247860Y-28407806D01*
X184250660Y-28405007D01*
X184251798Y-28402259D01*
X184256176Y-28396092D01*
X184833083Y-27386506D01*
X184833083Y-28321671D01*
X184835965Y-28350935D01*
X184858363Y-28405007D01*
X184899747Y-28446391D01*
X184953819Y-28468789D01*
X185012347Y-28468789D01*
X185066419Y-28446391D01*
X185107803Y-28405007D01*
X185130201Y-28350935D01*
X185133083Y-28321671D01*
X185133083Y-27321671D01*
X185475941Y-27321671D01*
X185475941Y-27821671D01*
X185476443Y-27826774D01*
X185476118Y-27828962D01*
X185477737Y-27839912D01*
X185478823Y-27850935D01*
X185479670Y-27852979D01*
X185480420Y-27858051D01*
X185551848Y-28143765D01*
X185561741Y-28171456D01*
X185568379Y-28180415D01*
X185572648Y-28190721D01*
X185591303Y-28213451D01*
X185734161Y-28356308D01*
X185745662Y-28365746D01*
X185748259Y-28368741D01*
X185752772Y-28371581D01*
X185756892Y-28374963D01*
X185760551Y-28376478D01*
X185773145Y-28384406D01*
X185916001Y-28455835D01*
X185943465Y-28466344D01*
X185948839Y-28466725D01*
X185953820Y-28468789D01*
X185983084Y-28471671D01*
X186268798Y-28471671D01*
X186298062Y-28468789D01*
X186303042Y-28466725D01*
X186308417Y-28466344D01*
X186335880Y-28455835D01*
X186478737Y-28384406D01*
X186491330Y-28376478D01*
X186494990Y-28374963D01*
X186499109Y-28371581D01*
X186503623Y-28368741D01*
X186506219Y-28365747D01*
X186517721Y-28356308D01*
X186581622Y-28292407D01*
X186907395Y-28292407D01*
X186907395Y-28350935D01*
X186929793Y-28405007D01*
X186971177Y-28446391D01*
X187025249Y-28468789D01*
X187054513Y-28471671D01*
X187911656Y-28471671D01*
X187940920Y-28468789D01*
X187994992Y-28446391D01*
X188036376Y-28405007D01*
X188058774Y-28350935D01*
X188058774Y-28292407D01*
X188036376Y-28238335D01*
X187994992Y-28196951D01*
X187940920Y-28174553D01*
X187911656Y-28171671D01*
X187633084Y-28171671D01*
X187633084Y-27464528D01*
X189333084Y-27464528D01*
X189333084Y-27678814D01*
X189333586Y-27683917D01*
X189333261Y-27686105D01*
X189334880Y-27697055D01*
X189335966Y-27708078D01*
X189336813Y-27710122D01*
X189337563Y-27715194D01*
X189408991Y-28000908D01*
X189409762Y-28003066D01*
X189409839Y-28004147D01*
X189414497Y-28016321D01*
X189418884Y-28028599D01*
X189419528Y-28029469D01*
X189420348Y-28031610D01*
X189491777Y-28174467D01*
X189499704Y-28187060D01*
X189501220Y-28190720D01*
X189504601Y-28194839D01*
X189507442Y-28199353D01*
X189510435Y-28201949D01*
X189519875Y-28213451D01*
X189662732Y-28356308D01*
X189685462Y-28374963D01*
X189690443Y-28377026D01*
X189694513Y-28380556D01*
X189721364Y-28392544D01*
X189935649Y-28463973D01*
X189950158Y-28467272D01*
X189953820Y-28468789D01*
X189959128Y-28469311D01*
X189964323Y-28470493D01*
X189968272Y-28470212D01*
X189983084Y-28471671D01*
X190125941Y-28471671D01*
X190140752Y-28470212D01*
X190144702Y-28470493D01*
X190149896Y-28469311D01*
X190155205Y-28468789D01*
X190158867Y-28467271D01*
X190173375Y-28463973D01*
X190387661Y-28392545D01*
X190414512Y-28380556D01*
X190418582Y-28377025D01*
X190423562Y-28374963D01*
X190446293Y-28356308D01*
X190517721Y-28284880D01*
X190536376Y-28262150D01*
X190558772Y-28208077D01*
X190558772Y-28149551D01*
X190536376Y-28095479D01*
X190494990Y-28054093D01*
X190440918Y-28031697D01*
X190382392Y-28031697D01*
X190328319Y-28054093D01*
X190305589Y-28072748D01*
X190259199Y-28119137D01*
X190101601Y-28171671D01*
X190007427Y-28171671D01*
X189849825Y-28119137D01*
X189749219Y-28018531D01*
X189696038Y-27912171D01*
X189633084Y-27660350D01*
X189633084Y-27482991D01*
X189696038Y-27231170D01*
X189749219Y-27124810D01*
X189849825Y-27024204D01*
X190007427Y-26971671D01*
X190101601Y-26971671D01*
X190259199Y-27024204D01*
X190305589Y-27070594D01*
X190328319Y-27089249D01*
X190382392Y-27111645D01*
X190440918Y-27111645D01*
X190494990Y-27089249D01*
X190536376Y-27047863D01*
X190558772Y-26993791D01*
X190558772Y-26935265D01*
X190536376Y-26881192D01*
X190517721Y-26858462D01*
X190480930Y-26821671D01*
X190904512Y-26821671D01*
X190904512Y-28321671D01*
X190907394Y-28350935D01*
X190929792Y-28405007D01*
X190971176Y-28446391D01*
X191025248Y-28468789D01*
X191054512Y-28471671D01*
X191625941Y-28471671D01*
X191655205Y-28468789D01*
X191660185Y-28466725D01*
X191665560Y-28466344D01*
X191693023Y-28455835D01*
X191835880Y-28384406D01*
X191848475Y-28376477D01*
X191852132Y-28374963D01*
X191856249Y-28371583D01*
X191860766Y-28368741D01*
X191863363Y-28365746D01*
X191874863Y-28356309D01*
X191946292Y-28284881D01*
X191955734Y-28273375D01*
X191958726Y-28270781D01*
X191961565Y-28266270D01*
X191964947Y-28262150D01*
X191966462Y-28258490D01*
X191974391Y-28245896D01*
X192045819Y-28103038D01*
X192056329Y-28075575D01*
X192056710Y-28070199D01*
X192058773Y-28065221D01*
X192061655Y-28035957D01*
X192061655Y-27821671D01*
X192058773Y-27792407D01*
X192056710Y-27787428D01*
X192056329Y-27782053D01*
X192045819Y-27754590D01*
X191974391Y-27611732D01*
X191966464Y-27599140D01*
X191964948Y-27595479D01*
X191961564Y-27591356D01*
X191958726Y-27586847D01*
X191955734Y-27584252D01*
X191946293Y-27572748D01*
X191874864Y-27501319D01*
X191863362Y-27491879D01*
X191860766Y-27488886D01*
X191856252Y-27486045D01*
X191852133Y-27482664D01*
X191848473Y-27481148D01*
X191835880Y-27473221D01*
X191693023Y-27401793D01*
X191689588Y-27400478D01*
X191744753Y-27321671D01*
X192333084Y-27321671D01*
X192333084Y-27821671D01*
X192333586Y-27826774D01*
X192333261Y-27828962D01*
X192334880Y-27839912D01*
X192335966Y-27850935D01*
X192336813Y-27852979D01*
X192337563Y-27858051D01*
X192408991Y-28143765D01*
X192418884Y-28171456D01*
X192425522Y-28180415D01*
X192429791Y-28190721D01*
X192448446Y-28213451D01*
X192591304Y-28356308D01*
X192602805Y-28365746D01*
X192605402Y-28368741D01*
X192609915Y-28371581D01*
X192614035Y-28374963D01*
X192617694Y-28376478D01*
X192630288Y-28384406D01*
X192773144Y-28455835D01*
X192800608Y-28466344D01*
X192805982Y-28466725D01*
X192810963Y-28468789D01*
X192840227Y-28471671D01*
X193125941Y-28471671D01*
X193155205Y-28468789D01*
X193160185Y-28466725D01*
X193165560Y-28466344D01*
X193193023Y-28455835D01*
X193335880Y-28384406D01*
X193348473Y-28376478D01*
X193352133Y-28374963D01*
X193356252Y-28371581D01*
X193360766Y-28368741D01*
X193363362Y-28365747D01*
X193374864Y-28356308D01*
X193517721Y-28213451D01*
X193536376Y-28190721D01*
X193540643Y-28180417D01*
X193547283Y-28171457D01*
X193557176Y-28143766D01*
X193619843Y-27893100D01*
X193904513Y-27893100D01*
X193904513Y-28035957D01*
X193907395Y-28065221D01*
X193909457Y-28070199D01*
X193909839Y-28075575D01*
X193920349Y-28103039D01*
X193991777Y-28245896D01*
X193999705Y-28258491D01*
X194001221Y-28262150D01*
X194004600Y-28266267D01*
X194007442Y-28270782D01*
X194010436Y-28273378D01*
X194019876Y-28284881D01*
X194091305Y-28356309D01*
X194102805Y-28365747D01*
X194105402Y-28368741D01*
X194109914Y-28371581D01*
X194114035Y-28374963D01*
X194117694Y-28376478D01*
X194130288Y-28384406D01*
X194273144Y-28455835D01*
X194300608Y-28466344D01*
X194305982Y-28466725D01*
X194310963Y-28468789D01*
X194340227Y-28471671D01*
X194697370Y-28471671D01*
X194712181Y-28470212D01*
X194716131Y-28470493D01*
X194721325Y-28469311D01*
X194726634Y-28468789D01*
X194730296Y-28467271D01*
X194744804Y-28463973D01*
X194959090Y-28392545D01*
X194985941Y-28380556D01*
X195030155Y-28342209D01*
X195056329Y-28289861D01*
X195060478Y-28231481D01*
X195041970Y-28175957D01*
X195003622Y-28131743D01*
X194951275Y-28105569D01*
X194892895Y-28101420D01*
X194864221Y-28107940D01*
X194673030Y-28171671D01*
X194375637Y-28171671D01*
X194286223Y-28126963D01*
X194249218Y-28089958D01*
X194204513Y-28000547D01*
X194204513Y-27928509D01*
X194222217Y-27893100D01*
X195333084Y-27893100D01*
X195333084Y-28035957D01*
X195335966Y-28065221D01*
X195338028Y-28070199D01*
X195338410Y-28075575D01*
X195348920Y-28103039D01*
X195420348Y-28245896D01*
X195428276Y-28258491D01*
X195429792Y-28262150D01*
X195433171Y-28266267D01*
X195436013Y-28270782D01*
X195439007Y-28273378D01*
X195448447Y-28284881D01*
X195519876Y-28356309D01*
X195531376Y-28365747D01*
X195533973Y-28368741D01*
X195538485Y-28371581D01*
X195542606Y-28374963D01*
X195546265Y-28376478D01*
X195558859Y-28384406D01*
X195701715Y-28455835D01*
X195729179Y-28466344D01*
X195734553Y-28466725D01*
X195739534Y-28468789D01*
X195768798Y-28471671D01*
X196125941Y-28471671D01*
X196140752Y-28470212D01*
X196144702Y-28470493D01*
X196149896Y-28469311D01*
X196155205Y-28468789D01*
X196158867Y-28467271D01*
X196173375Y-28463973D01*
X196387661Y-28392545D01*
X196414512Y-28380556D01*
X196458726Y-28342209D01*
X196484900Y-28289861D01*
X196489049Y-28231481D01*
X196470541Y-28175957D01*
X196432193Y-28131743D01*
X196379846Y-28105569D01*
X196321466Y-28101420D01*
X196292792Y-28107940D01*
X196101601Y-28171671D01*
X195804208Y-28171671D01*
X195714794Y-28126963D01*
X195677789Y-28089958D01*
X195633084Y-28000547D01*
X195633084Y-27928509D01*
X195677790Y-27839095D01*
X195714794Y-27802092D01*
X195821154Y-27748912D01*
X196090892Y-27681478D01*
X196093047Y-27680707D01*
X196094131Y-27680631D01*
X196106327Y-27675963D01*
X196118583Y-27671585D01*
X196119453Y-27670940D01*
X196121594Y-27670121D01*
X196264452Y-27598692D01*
X196277045Y-27590764D01*
X196280705Y-27589249D01*
X196284824Y-27585867D01*
X196289338Y-27583027D01*
X196291934Y-27580033D01*
X196303436Y-27570594D01*
X196374864Y-27499166D01*
X196384304Y-27487663D01*
X196387297Y-27485068D01*
X196390135Y-27480558D01*
X196393519Y-27476436D01*
X196395035Y-27472773D01*
X196402962Y-27460182D01*
X196474391Y-27317324D01*
X196484901Y-27289861D01*
X196485283Y-27284483D01*
X196487345Y-27279506D01*
X196490227Y-27250242D01*
X196490227Y-27107385D01*
X196487345Y-27078121D01*
X196485281Y-27073140D01*
X196484900Y-27067766D01*
X196474391Y-27040302D01*
X196402962Y-26897446D01*
X196395035Y-26884854D01*
X196393519Y-26881192D01*
X196390135Y-26877069D01*
X196387297Y-26872560D01*
X196384304Y-26869964D01*
X196374864Y-26858462D01*
X196303436Y-26787034D01*
X196291934Y-26777594D01*
X196289338Y-26774601D01*
X196284824Y-26771760D01*
X196280705Y-26768379D01*
X196277045Y-26766863D01*
X196264452Y-26758936D01*
X196121594Y-26687507D01*
X196094131Y-26676997D01*
X196088753Y-26676614D01*
X196083776Y-26674553D01*
X196054512Y-26671671D01*
X195697370Y-26671671D01*
X195682558Y-26673129D01*
X195678609Y-26672849D01*
X195673414Y-26674030D01*
X195668106Y-26674553D01*
X195664444Y-26676069D01*
X195649935Y-26679369D01*
X195435650Y-26750798D01*
X195408799Y-26762786D01*
X195364584Y-26801134D01*
X195338411Y-26853481D01*
X195334262Y-26911861D01*
X195352770Y-26967385D01*
X195391118Y-27011600D01*
X195443465Y-27037773D01*
X195501845Y-27041922D01*
X195530518Y-27035402D01*
X195721713Y-26971671D01*
X196019102Y-26971671D01*
X196108516Y-27016378D01*
X196145520Y-27053382D01*
X196190227Y-27142795D01*
X196190227Y-27214832D01*
X196145520Y-27304246D01*
X196108516Y-27341250D01*
X196002156Y-27394429D01*
X195732418Y-27461864D01*
X195730259Y-27462635D01*
X195729179Y-27462712D01*
X195716998Y-27467372D01*
X195704727Y-27471757D01*
X195703857Y-27472401D01*
X195701715Y-27473221D01*
X195558859Y-27544650D01*
X195546265Y-27552577D01*
X195542606Y-27554093D01*
X195538485Y-27557474D01*
X195533973Y-27560315D01*
X195531376Y-27563308D01*
X195519876Y-27572747D01*
X195448447Y-27644175D01*
X195439004Y-27655680D01*
X195436013Y-27658275D01*
X195433173Y-27662785D01*
X195429792Y-27666906D01*
X195428276Y-27670565D01*
X195420348Y-27683160D01*
X195348920Y-27826019D01*
X195338410Y-27853482D01*
X195338028Y-27858857D01*
X195335966Y-27863836D01*
X195333084Y-27893100D01*
X194222217Y-27893100D01*
X194249219Y-27839095D01*
X194286223Y-27802092D01*
X194392583Y-27748912D01*
X194662321Y-27681478D01*
X194664476Y-27680707D01*
X194665560Y-27680631D01*
X194677756Y-27675963D01*
X194690012Y-27671585D01*
X194690882Y-27670940D01*
X194693023Y-27670121D01*
X194835881Y-27598692D01*
X194848474Y-27590764D01*
X194852134Y-27589249D01*
X194856253Y-27585867D01*
X194860767Y-27583027D01*
X194863363Y-27580033D01*
X194874865Y-27570594D01*
X194946293Y-27499166D01*
X194955733Y-27487663D01*
X194958726Y-27485068D01*
X194961564Y-27480558D01*
X194964948Y-27476436D01*
X194966464Y-27472773D01*
X194974391Y-27460182D01*
X195045820Y-27317324D01*
X195056330Y-27289861D01*
X195056712Y-27284483D01*
X195058774Y-27279506D01*
X195061656Y-27250242D01*
X195061656Y-27107385D01*
X195058774Y-27078121D01*
X195056710Y-27073140D01*
X195056329Y-27067766D01*
X195045820Y-27040302D01*
X194974391Y-26897446D01*
X194966464Y-26884854D01*
X194964948Y-26881192D01*
X194961564Y-26877069D01*
X194958726Y-26872560D01*
X194955733Y-26869964D01*
X194946293Y-26858462D01*
X194874865Y-26787034D01*
X194863363Y-26777594D01*
X194860767Y-26774601D01*
X194856253Y-26771760D01*
X194852134Y-26768379D01*
X194848474Y-26766863D01*
X194835881Y-26758936D01*
X194693023Y-26687507D01*
X194665560Y-26676997D01*
X194660182Y-26676614D01*
X194655205Y-26674553D01*
X194625941Y-26671671D01*
X194268799Y-26671671D01*
X194253987Y-26673129D01*
X194250038Y-26672849D01*
X194244843Y-26674030D01*
X194239535Y-26674553D01*
X194235873Y-26676069D01*
X194221364Y-26679369D01*
X194007079Y-26750798D01*
X193980228Y-26762786D01*
X193936013Y-26801134D01*
X193909840Y-26853481D01*
X193905691Y-26911861D01*
X193924199Y-26967385D01*
X193962547Y-27011600D01*
X194014894Y-27037773D01*
X194073274Y-27041922D01*
X194101947Y-27035402D01*
X194293142Y-26971671D01*
X194590531Y-26971671D01*
X194679945Y-27016378D01*
X194716949Y-27053382D01*
X194761656Y-27142795D01*
X194761656Y-27214832D01*
X194716949Y-27304246D01*
X194679945Y-27341250D01*
X194573585Y-27394429D01*
X194303847Y-27461864D01*
X194301688Y-27462635D01*
X194300608Y-27462712D01*
X194288427Y-27467372D01*
X194276156Y-27471757D01*
X194275286Y-27472401D01*
X194273144Y-27473221D01*
X194130288Y-27544650D01*
X194117694Y-27552577D01*
X194114035Y-27554093D01*
X194109914Y-27557474D01*
X194105402Y-27560315D01*
X194102805Y-27563308D01*
X194091305Y-27572747D01*
X194019876Y-27644175D01*
X194010433Y-27655680D01*
X194007442Y-27658275D01*
X194004602Y-27662785D01*
X194001221Y-27666906D01*
X193999705Y-27670565D01*
X193991777Y-27683160D01*
X193920349Y-27826019D01*
X193909839Y-27853482D01*
X193909457Y-27858857D01*
X193907395Y-27863836D01*
X193904513Y-27893100D01*
X193619843Y-27893100D01*
X193628605Y-27858052D01*
X193629355Y-27852979D01*
X193630202Y-27850935D01*
X193631287Y-27839915D01*
X193632907Y-27828963D01*
X193632581Y-27826774D01*
X193633084Y-27821671D01*
X193633084Y-27321671D01*
X193632581Y-27316567D01*
X193632907Y-27314379D01*
X193631287Y-27303426D01*
X193630202Y-27292407D01*
X193629355Y-27290362D01*
X193628605Y-27285290D01*
X193557176Y-26999576D01*
X193547283Y-26971885D01*
X193540643Y-26962924D01*
X193536376Y-26952621D01*
X193517721Y-26929891D01*
X193374864Y-26787034D01*
X193363362Y-26777594D01*
X193360766Y-26774601D01*
X193356252Y-26771760D01*
X193352133Y-26768379D01*
X193348473Y-26766863D01*
X193335880Y-26758936D01*
X193193023Y-26687507D01*
X193165560Y-26676998D01*
X193160185Y-26676616D01*
X193155205Y-26674553D01*
X193125941Y-26671671D01*
X192840227Y-26671671D01*
X192810963Y-26674553D01*
X192805982Y-26676616D01*
X192800608Y-26676998D01*
X192773144Y-26687507D01*
X192630288Y-26758936D01*
X192617694Y-26766863D01*
X192614035Y-26768379D01*
X192609915Y-26771760D01*
X192605402Y-26774601D01*
X192602805Y-26777595D01*
X192591304Y-26787034D01*
X192448446Y-26929891D01*
X192429791Y-26952621D01*
X192425522Y-26962926D01*
X192418884Y-26971886D01*
X192408991Y-26999577D01*
X192337563Y-27285291D01*
X192336813Y-27290362D01*
X192335966Y-27292407D01*
X192334880Y-27303429D01*
X192333261Y-27314380D01*
X192333586Y-27316567D01*
X192333084Y-27321671D01*
X191744753Y-27321671D01*
X192034540Y-26907690D01*
X192048961Y-26882064D01*
X192061620Y-26824922D01*
X192051449Y-26767286D01*
X192019996Y-26717929D01*
X191972048Y-26684365D01*
X191914906Y-26671706D01*
X191857270Y-26681877D01*
X191807913Y-26713330D01*
X191788770Y-26735652D01*
X191333557Y-27385957D01*
X191204512Y-27385957D01*
X191204512Y-26821671D01*
X191201630Y-26792407D01*
X191179232Y-26738335D01*
X191137848Y-26696951D01*
X191083776Y-26674553D01*
X191025248Y-26674553D01*
X190971176Y-26696951D01*
X190929792Y-26738335D01*
X190907394Y-26792407D01*
X190904512Y-26821671D01*
X190480930Y-26821671D01*
X190446293Y-26787034D01*
X190423562Y-26768379D01*
X190418582Y-26766316D01*
X190414512Y-26762786D01*
X190387661Y-26750797D01*
X190173375Y-26679369D01*
X190158867Y-26676070D01*
X190155205Y-26674553D01*
X190149896Y-26674030D01*
X190144702Y-26672849D01*
X190140752Y-26673129D01*
X190125941Y-26671671D01*
X189983084Y-26671671D01*
X189968272Y-26673129D01*
X189964323Y-26672849D01*
X189959128Y-26674030D01*
X189953820Y-26674553D01*
X189950158Y-26676069D01*
X189935649Y-26679369D01*
X189721364Y-26750798D01*
X189694513Y-26762786D01*
X189690443Y-26766315D01*
X189685462Y-26768379D01*
X189662732Y-26787034D01*
X189519875Y-26929891D01*
X189510435Y-26941392D01*
X189507442Y-26943989D01*
X189504601Y-26948502D01*
X189501220Y-26952622D01*
X189499704Y-26956281D01*
X189491777Y-26968875D01*
X189420348Y-27111732D01*
X189419528Y-27113872D01*
X189418884Y-27114743D01*
X189414497Y-27127020D01*
X189409839Y-27139195D01*
X189409762Y-27140275D01*
X189408991Y-27142434D01*
X189337563Y-27428148D01*
X189336813Y-27433219D01*
X189335966Y-27435264D01*
X189334880Y-27446286D01*
X189333261Y-27457237D01*
X189333586Y-27459424D01*
X189333084Y-27464528D01*
X187633084Y-27464528D01*
X187633084Y-26821671D01*
X187630202Y-26792407D01*
X187607804Y-26738335D01*
X187566420Y-26696951D01*
X187512348Y-26674553D01*
X187453820Y-26674553D01*
X187399748Y-26696951D01*
X187358364Y-26738335D01*
X187335966Y-26792407D01*
X187333084Y-26821671D01*
X187333084Y-28171671D01*
X187054513Y-28171671D01*
X187025249Y-28174553D01*
X186971177Y-28196951D01*
X186929793Y-28238335D01*
X186907395Y-28292407D01*
X186581622Y-28292407D01*
X186660578Y-28213451D01*
X186679233Y-28190721D01*
X186683500Y-28180417D01*
X186690140Y-28171457D01*
X186700033Y-28143766D01*
X186771462Y-27858052D01*
X186772212Y-27852979D01*
X186773059Y-27850935D01*
X186774144Y-27839915D01*
X186775764Y-27828963D01*
X186775438Y-27826774D01*
X186775941Y-27821671D01*
X186775941Y-27321671D01*
X186775438Y-27316567D01*
X186775764Y-27314379D01*
X186774144Y-27303426D01*
X186773059Y-27292407D01*
X186772212Y-27290362D01*
X186771462Y-27285290D01*
X186700033Y-26999576D01*
X186690140Y-26971885D01*
X186683500Y-26962924D01*
X186679233Y-26952621D01*
X186660578Y-26929891D01*
X186517721Y-26787034D01*
X186506219Y-26777594D01*
X186503623Y-26774601D01*
X186499109Y-26771760D01*
X186494990Y-26768379D01*
X186491330Y-26766863D01*
X186478737Y-26758936D01*
X186335880Y-26687507D01*
X186308417Y-26676998D01*
X186303042Y-26676616D01*
X186298062Y-26674553D01*
X186268798Y-26671671D01*
X185983084Y-26671671D01*
X185953820Y-26674553D01*
X185948839Y-26676616D01*
X185943465Y-26676998D01*
X185916001Y-26687507D01*
X185773145Y-26758936D01*
X185760551Y-26766863D01*
X185756892Y-26768379D01*
X185752772Y-26771760D01*
X185748259Y-26774601D01*
X185745662Y-26777595D01*
X185734161Y-26787034D01*
X185591303Y-26929891D01*
X185572648Y-26952621D01*
X185568379Y-26962926D01*
X185561741Y-26971886D01*
X185551848Y-26999577D01*
X185480420Y-27285291D01*
X185479670Y-27290362D01*
X185478823Y-27292407D01*
X185477737Y-27303429D01*
X185476118Y-27314380D01*
X185476443Y-27316567D01*
X185475941Y-27321671D01*
X185133083Y-27321671D01*
X185133083Y-26821671D01*
X185132341Y-26814144D01*
X185132717Y-26811193D01*
X185131674Y-26807371D01*
X185130201Y-26792407D01*
X185122565Y-26773974D01*
X185117317Y-26754730D01*
X185111462Y-26747170D01*
X185107803Y-26738335D01*
X185093695Y-26724227D01*
X185081482Y-26708456D01*
X185073179Y-26703711D01*
X185066419Y-26696951D01*
X185047988Y-26689316D01*
X185030666Y-26679418D01*
X185021180Y-26678212D01*
X185012347Y-26674553D01*
X184992397Y-26674553D01*
X184972606Y-26672037D01*
X184963381Y-26674553D01*
X184953819Y-26674553D01*
X184935390Y-26682186D01*
X184916142Y-26687436D01*
X184908580Y-26693292D01*
X184899747Y-26696951D01*
X184885641Y-26711056D01*
X184869868Y-26723272D01*
X184861162Y-26735535D01*
X184858363Y-26738335D01*
X184857224Y-26741082D01*
X184852847Y-26747250D01*
X184275940Y-27756837D01*
X184275940Y-26821671D01*
X184273058Y-26792407D01*
X184250660Y-26738335D01*
X184209276Y-26696951D01*
X184155204Y-26674553D01*
X184096676Y-26674553D01*
X184042604Y-26696951D01*
X184001220Y-26738335D01*
X183978822Y-26792407D01*
X183975940Y-26821671D01*
X182266643Y-26821671D01*
X182232006Y-26787034D01*
X182220504Y-26777594D01*
X182217908Y-26774601D01*
X182213394Y-26771760D01*
X182209275Y-26768379D01*
X182205615Y-26766863D01*
X182193022Y-26758936D01*
X182050165Y-26687507D01*
X182022702Y-26676998D01*
X182017327Y-26676616D01*
X182012347Y-26674553D01*
X181983083Y-26671671D01*
X181697369Y-26671671D01*
X181668105Y-26674553D01*
X181663124Y-26676616D01*
X181657750Y-26676998D01*
X181630286Y-26687507D01*
X181487430Y-26758936D01*
X181474836Y-26766863D01*
X181471177Y-26768379D01*
X181467057Y-26771760D01*
X181462544Y-26774601D01*
X181459947Y-26777595D01*
X181448446Y-26787034D01*
X181305588Y-26929891D01*
X181286933Y-26952621D01*
X181282664Y-26962926D01*
X181276026Y-26971886D01*
X181266133Y-26999577D01*
X181194705Y-27285291D01*
X181193955Y-27290362D01*
X181193108Y-27292407D01*
X181192022Y-27303429D01*
X181190403Y-27314380D01*
X181190728Y-27316567D01*
X181190226Y-27321671D01*
X180887699Y-27321671D01*
X180842890Y-27142434D01*
X180842118Y-27140275D01*
X180842042Y-27139195D01*
X180837381Y-27127014D01*
X180832997Y-27114743D01*
X180832352Y-27113873D01*
X180831533Y-27111731D01*
X180760104Y-26968875D01*
X180752177Y-26956283D01*
X180750661Y-26952621D01*
X180747277Y-26948498D01*
X180744439Y-26943989D01*
X180741446Y-26941393D01*
X180732006Y-26929891D01*
X180589149Y-26787034D01*
X180566418Y-26768379D01*
X180561438Y-26766316D01*
X180557368Y-26762786D01*
X180530517Y-26750797D01*
X180316231Y-26679369D01*
X180301723Y-26676070D01*
X180298061Y-26674553D01*
X180292752Y-26674030D01*
X180287558Y-26672849D01*
X180283608Y-26673129D01*
X180268797Y-26671671D01*
X179911654Y-26671671D01*
X179882390Y-26674553D01*
X179828318Y-26696951D01*
X179786934Y-26738335D01*
X179764536Y-26792407D01*
X179761654Y-26821671D01*
X178275331Y-26821671D01*
X178265734Y-26767286D01*
X178234281Y-26717929D01*
X178186333Y-26684365D01*
X178129191Y-26671706D01*
X178071555Y-26681877D01*
X178022198Y-26713330D01*
X178003055Y-26735652D01*
X177547842Y-27385957D01*
X177418797Y-27385957D01*
X177418797Y-26821671D01*
X177415915Y-26792407D01*
X177393517Y-26738335D01*
X177352133Y-26696951D01*
X177298061Y-26674553D01*
X177239533Y-26674553D01*
X177185461Y-26696951D01*
X177144077Y-26738335D01*
X177121679Y-26792407D01*
X177118797Y-26821671D01*
X176773058Y-26821671D01*
X176773058Y-26792407D01*
X176750660Y-26738335D01*
X176709276Y-26696951D01*
X176655204Y-26674553D01*
X176625940Y-26671671D01*
X175911654Y-26671671D01*
X175882390Y-26674553D01*
X175828318Y-26696951D01*
X175786934Y-26738335D01*
X175764536Y-26792407D01*
X175761654Y-26821671D01*
X175347368Y-26821671D01*
X175344486Y-26792407D01*
X175322088Y-26738335D01*
X175280704Y-26696951D01*
X175226632Y-26674553D01*
X175168104Y-26674553D01*
X175114032Y-26696951D01*
X175072648Y-26738335D01*
X175050250Y-26792407D01*
X175047368Y-26821671D01*
X174703902Y-26821671D01*
X174694305Y-26767286D01*
X174662852Y-26717929D01*
X174614904Y-26684365D01*
X174557762Y-26671706D01*
X174500126Y-26681877D01*
X174450769Y-26713330D01*
X174431626Y-26735652D01*
X173976413Y-27385957D01*
X173847368Y-27385957D01*
X173847368Y-26821671D01*
X173844486Y-26792407D01*
X173822088Y-26738335D01*
X173780704Y-26696951D01*
X173726632Y-26674553D01*
X173668104Y-26674553D01*
X173614032Y-26696951D01*
X173572648Y-26738335D01*
X173550250Y-26792407D01*
X173547368Y-26821671D01*
X173203902Y-26821671D01*
X173194305Y-26767286D01*
X173162852Y-26717929D01*
X173114904Y-26684365D01*
X173057762Y-26671706D01*
X173000126Y-26681877D01*
X172950769Y-26713330D01*
X172931626Y-26735652D01*
X172476413Y-27385957D01*
X172347368Y-27385957D01*
X172347368Y-26821671D01*
X172344486Y-26792407D01*
X172322088Y-26738335D01*
X172280704Y-26696951D01*
X172226632Y-26674553D01*
X172168104Y-26674553D01*
X172114032Y-26696951D01*
X172072648Y-26738335D01*
X172050250Y-26792407D01*
X172047368Y-26821671D01*
X171844858Y-26821671D01*
X171842042Y-26782051D01*
X171815868Y-26729704D01*
X171771654Y-26691357D01*
X171716130Y-26672848D01*
X171657750Y-26676998D01*
X171605402Y-26703171D01*
X171567055Y-26747386D01*
X171555067Y-26774237D01*
X171446399Y-27100242D01*
X170948340Y-27100242D01*
X170839671Y-26774237D01*
X170827683Y-26747386D01*
X170789336Y-26703172D01*
X170736989Y-26676998D01*
X170678608Y-26672849D01*
X170623084Y-26691357D01*
X170578870Y-26729704D01*
X170552696Y-26782051D01*
X170548547Y-26840432D01*
X170285405Y-26840432D01*
X170232005Y-26787033D01*
X170220505Y-26777595D01*
X170217908Y-26774601D01*
X170213391Y-26771758D01*
X170209274Y-26768379D01*
X170205617Y-26766864D01*
X170193022Y-26758936D01*
X170050165Y-26687507D01*
X170022702Y-26676998D01*
X170017327Y-26676616D01*
X170012347Y-26674553D01*
X169983083Y-26671671D01*
X169411654Y-26671671D01*
X169382390Y-26674553D01*
X169328318Y-26696951D01*
X169286934Y-26738335D01*
X169264536Y-26792407D01*
X169261654Y-26821671D01*
X167704511Y-26821671D01*
X167703769Y-26814144D01*
X167704145Y-26811193D01*
X167703102Y-26807371D01*
X167701629Y-26792407D01*
X167693993Y-26773974D01*
X167688745Y-26754730D01*
X167682890Y-26747170D01*
X167679231Y-26738335D01*
X167665123Y-26724227D01*
X167652910Y-26708456D01*
X167644607Y-26703711D01*
X167637847Y-26696951D01*
X167619416Y-26689316D01*
X167602094Y-26679418D01*
X167592608Y-26678212D01*
X167583775Y-26674553D01*
X167563825Y-26674553D01*
X167544034Y-26672037D01*
X167534809Y-26674553D01*
X167525247Y-26674553D01*
X167506818Y-26682186D01*
X167487570Y-26687436D01*
X167480008Y-26693292D01*
X167471175Y-26696951D01*
X167457069Y-26711056D01*
X167441296Y-26723272D01*
X167432590Y-26735535D01*
X167429791Y-26738335D01*
X167428652Y-26741082D01*
X167424275Y-26747250D01*
X166847368Y-27756837D01*
X166847368Y-26821671D01*
X166844486Y-26792407D01*
X166822088Y-26738335D01*
X166780704Y-26696951D01*
X166726632Y-26674553D01*
X166668104Y-26674553D01*
X166614032Y-26696951D01*
X166572648Y-26738335D01*
X166550250Y-26792407D01*
X166547368Y-26821671D01*
X165980928Y-26821671D01*
X165946291Y-26787034D01*
X165934789Y-26777594D01*
X165932193Y-26774601D01*
X165927679Y-26771760D01*
X165923560Y-26768379D01*
X165919900Y-26766863D01*
X165907307Y-26758936D01*
X165764450Y-26687507D01*
X165736987Y-26676998D01*
X165731612Y-26676616D01*
X165726632Y-26674553D01*
X165697368Y-26671671D01*
X165411654Y-26671671D01*
X165382390Y-26674553D01*
X165377409Y-26676616D01*
X165372035Y-26676998D01*
X165344571Y-26687507D01*
X165201715Y-26758936D01*
X165189121Y-26766863D01*
X165185462Y-26768379D01*
X165181342Y-26771760D01*
X165176829Y-26774601D01*
X165174232Y-26777595D01*
X165162731Y-26787034D01*
X165019873Y-26929891D01*
X165001218Y-26952621D01*
X164996949Y-26962926D01*
X164990311Y-26971886D01*
X164980418Y-26999577D01*
X164908990Y-27285291D01*
X164908240Y-27290362D01*
X164907393Y-27292407D01*
X164906307Y-27303429D01*
X164904688Y-27314380D01*
X164905013Y-27316567D01*
X164904511Y-27321671D01*
X164561653Y-27321671D01*
X164561653Y-26821671D01*
X164558771Y-26792407D01*
X164536373Y-26738335D01*
X164494989Y-26696951D01*
X164440917Y-26674553D01*
X164382389Y-26674553D01*
X164328317Y-26696951D01*
X164286933Y-26738335D01*
X164264535Y-26792407D01*
X164261653Y-26821671D01*
X163633082Y-26821671D01*
X163630200Y-26792407D01*
X163607802Y-26738335D01*
X163566418Y-26696951D01*
X163512346Y-26674553D01*
X163453818Y-26674553D01*
X163399746Y-26696951D01*
X163358362Y-26738335D01*
X163335964Y-26792407D01*
X163333082Y-26821671D01*
X163333082Y-28171671D01*
X163054511Y-28171671D01*
X163025247Y-28174553D01*
X162971175Y-28196951D01*
X162929791Y-28238335D01*
X162907393Y-28292407D01*
X162436665Y-28292407D01*
X162911100Y-26869105D01*
X162917620Y-26840431D01*
X162913470Y-26782051D01*
X162887296Y-26729704D01*
X162843082Y-26691357D01*
X162787558Y-26672848D01*
X162729178Y-26676998D01*
X162676830Y-26703171D01*
X162638483Y-26747386D01*
X162626495Y-26774237D01*
X162517827Y-27100242D01*
X162019768Y-27100242D01*
X161911099Y-26774237D01*
X161899111Y-26747386D01*
X161860764Y-26703172D01*
X161808417Y-26676998D01*
X161750036Y-26672849D01*
X161694512Y-26691357D01*
X161650298Y-26729704D01*
X161625100Y-26780097D01*
X161607802Y-26738335D01*
X161566418Y-26696951D01*
X161512346Y-26674553D01*
X161483082Y-26671671D01*
X160768796Y-26671671D01*
X160739532Y-26674553D01*
X160685460Y-26696951D01*
X160644076Y-26738335D01*
X160621678Y-26792407D01*
X160618796Y-26821671D01*
X160052356Y-26821671D01*
X160017719Y-26787034D01*
X160006217Y-26777594D01*
X160003621Y-26774601D01*
X159999107Y-26771760D01*
X159994988Y-26768379D01*
X159991328Y-26766863D01*
X159978735Y-26758936D01*
X159835878Y-26687507D01*
X159808415Y-26676998D01*
X159803040Y-26676616D01*
X159798060Y-26674553D01*
X159768796Y-26671671D01*
X159483082Y-26671671D01*
X159453818Y-26674553D01*
X159448837Y-26676616D01*
X159443463Y-26676998D01*
X159415999Y-26687507D01*
X159273143Y-26758936D01*
X159260549Y-26766863D01*
X159256890Y-26768379D01*
X159252770Y-26771760D01*
X159248257Y-26774601D01*
X159245660Y-26777595D01*
X159234159Y-26787034D01*
X159091301Y-26929891D01*
X159072646Y-26952621D01*
X159068377Y-26962926D01*
X159061739Y-26971886D01*
X159051846Y-26999577D01*
X158980418Y-27285291D01*
X158979668Y-27290362D01*
X158978821Y-27292407D01*
X158977735Y-27303429D01*
X158976116Y-27314380D01*
X158976441Y-27316567D01*
X158975939Y-27321671D01*
X158686502Y-27321671D01*
X158688675Y-27317324D01*
X158699185Y-27289861D01*
X158699567Y-27284483D01*
X158701629Y-27279506D01*
X158704511Y-27250242D01*
X158704511Y-27107385D01*
X158701629Y-27078121D01*
X158699565Y-27073140D01*
X158699184Y-27067766D01*
X158688675Y-27040302D01*
X158617246Y-26897446D01*
X158609319Y-26884854D01*
X158607803Y-26881192D01*
X158604419Y-26877069D01*
X158601581Y-26872560D01*
X158598588Y-26869964D01*
X158589148Y-26858462D01*
X158517720Y-26787034D01*
X158506218Y-26777594D01*
X158503622Y-26774601D01*
X158499108Y-26771760D01*
X158494989Y-26768379D01*
X158491329Y-26766863D01*
X158478736Y-26758936D01*
X158335878Y-26687507D01*
X158308415Y-26676997D01*
X158303037Y-26676614D01*
X158298060Y-26674553D01*
X158268796Y-26671671D01*
X157911654Y-26671671D01*
X157896842Y-26673129D01*
X157892893Y-26672849D01*
X157887698Y-26674030D01*
X157882390Y-26674553D01*
X157878728Y-26676069D01*
X157864219Y-26679369D01*
X157649934Y-26750798D01*
X157623083Y-26762786D01*
X157578868Y-26801134D01*
X157552695Y-26853481D01*
X157548546Y-26911861D01*
X157567054Y-26967385D01*
X157605402Y-27011600D01*
X157657749Y-27037773D01*
X157716129Y-27041922D01*
X157744802Y-27035402D01*
X157935997Y-26971671D01*
X158233386Y-26971671D01*
X158322800Y-27016378D01*
X158359804Y-27053382D01*
X158404511Y-27142795D01*
X158404511Y-27214832D01*
X158359804Y-27304246D01*
X158322800Y-27341250D01*
X158216440Y-27394429D01*
X157946702Y-27461864D01*
X157944543Y-27462635D01*
X157943463Y-27462712D01*
X157931282Y-27467372D01*
X157919011Y-27471757D01*
X157918141Y-27472401D01*
X157915999Y-27473221D01*
X157773143Y-27544650D01*
X157760549Y-27552577D01*
X157756890Y-27554093D01*
X157752769Y-27557474D01*
X157748257Y-27560315D01*
X157745660Y-27563308D01*
X157734160Y-27572747D01*
X157662731Y-27644175D01*
X157653288Y-27655680D01*
X157650297Y-27658275D01*
X157647457Y-27662785D01*
X157644076Y-27666906D01*
X157642560Y-27670565D01*
X157634632Y-27683160D01*
X157563204Y-27826019D01*
X157552694Y-27853482D01*
X157552312Y-27858857D01*
X157550250Y-27863836D01*
X157547368Y-27893100D01*
X157204510Y-27893100D01*
X157204510Y-26821671D01*
X157201628Y-26792407D01*
X157179230Y-26738335D01*
X157137846Y-26696951D01*
X157083774Y-26674553D01*
X157025246Y-26674553D01*
X156971174Y-26696951D01*
X156929790Y-26738335D01*
X156907392Y-26792407D01*
X156904510Y-26821671D01*
X156737843Y-26821671D01*
X156737843Y-26505004D01*
X196656894Y-26505004D01*
X196656894Y-28638338D01*
G37*
G36*
X69822799Y-27016378D02*
G01*
X69919065Y-27112644D01*
X69975939Y-27340135D01*
X69975939Y-27803206D01*
X69919065Y-28030697D01*
X69822799Y-28126963D01*
X69733386Y-28171671D01*
X69518492Y-28171671D01*
X69429078Y-28126964D01*
X69332811Y-28030696D01*
X69275939Y-27803207D01*
X69275939Y-27340134D01*
X69332811Y-27112645D01*
X69429078Y-27016377D01*
X69518492Y-26971671D01*
X69733386Y-26971671D01*
X69822799Y-27016378D01*
G37*
G36*
X75751371Y-27016378D02*
G01*
X75847637Y-27112644D01*
X75904511Y-27340135D01*
X75904511Y-27803206D01*
X75847637Y-28030697D01*
X75751371Y-28126963D01*
X75661958Y-28171671D01*
X75447064Y-28171671D01*
X75357650Y-28126964D01*
X75261383Y-28030696D01*
X75204511Y-27803207D01*
X75204511Y-27340134D01*
X75261383Y-27112645D01*
X75357650Y-27016377D01*
X75447064Y-26971671D01*
X75661958Y-26971671D01*
X75751371Y-27016378D01*
G37*
G36*
X79965658Y-27802092D02*
G01*
X80002662Y-27839096D01*
X80047369Y-27928510D01*
X80047369Y-28000546D01*
X80002662Y-28089959D01*
X79965658Y-28126964D01*
X79876244Y-28171671D01*
X79561654Y-28171671D01*
X79561654Y-27757385D01*
X79876244Y-27757385D01*
X79965658Y-27802092D01*
G37*
G36*
X80037087Y-27016378D02*
G01*
X80074091Y-27053382D01*
X80118797Y-27142794D01*
X80118797Y-27286261D01*
X80074090Y-27375674D01*
X80044913Y-27404851D01*
X79887311Y-27457385D01*
X79561654Y-27457385D01*
X79561654Y-26971671D01*
X79947673Y-26971671D01*
X80037087Y-27016378D01*
G37*
G36*
X82822799Y-27730662D02*
G01*
X82859804Y-27767667D01*
X82904511Y-27857080D01*
X82904511Y-28000547D01*
X82859805Y-28089959D01*
X82822801Y-28126963D01*
X82733387Y-28171671D01*
X82347368Y-28171671D01*
X82347368Y-27685957D01*
X82733387Y-27685957D01*
X82822799Y-27730662D01*
G37*
G36*
X84322799Y-27730662D02*
G01*
X84359804Y-27767667D01*
X84404511Y-27857080D01*
X84404511Y-28000547D01*
X84359805Y-28089959D01*
X84322801Y-28126963D01*
X84233387Y-28171671D01*
X83847368Y-28171671D01*
X83847368Y-27685957D01*
X84233387Y-27685957D01*
X84322799Y-27730662D01*
G37*
G36*
X87894228Y-27730662D02*
G01*
X87931233Y-27767667D01*
X87975940Y-27857080D01*
X87975940Y-28000547D01*
X87931234Y-28089959D01*
X87894230Y-28126963D01*
X87804816Y-28171671D01*
X87418797Y-28171671D01*
X87418797Y-27685957D01*
X87804816Y-27685957D01*
X87894228Y-27730662D01*
G37*
G36*
X90402055Y-27024204D02*
G01*
X90502662Y-27124811D01*
X90555841Y-27231170D01*
X90618797Y-27482991D01*
X90618797Y-27660350D01*
X90555841Y-27912171D01*
X90502662Y-28018530D01*
X90402055Y-28119137D01*
X90244457Y-28171671D01*
X90061654Y-28171671D01*
X90061654Y-26971671D01*
X90244457Y-26971671D01*
X90402055Y-27024204D01*
G37*
G36*
X92037086Y-27016378D02*
G01*
X92133352Y-27112644D01*
X92190226Y-27340135D01*
X92190226Y-27803206D01*
X92133352Y-28030697D01*
X92037086Y-28126963D01*
X91947673Y-28171671D01*
X91732779Y-28171671D01*
X91643365Y-28126964D01*
X91547098Y-28030696D01*
X91490226Y-27803207D01*
X91490226Y-27340134D01*
X91547098Y-27112645D01*
X91643365Y-27016377D01*
X91732779Y-26971671D01*
X91947673Y-26971671D01*
X92037086Y-27016378D01*
G37*
G36*
X96322801Y-27016378D02*
G01*
X96419067Y-27112644D01*
X96475941Y-27340135D01*
X96475941Y-27803206D01*
X96419067Y-28030697D01*
X96322801Y-28126963D01*
X96233388Y-28171671D01*
X96018494Y-28171671D01*
X95929080Y-28126964D01*
X95832813Y-28030696D01*
X95775941Y-27803207D01*
X95775941Y-27340134D01*
X95832813Y-27112645D01*
X95929080Y-27016377D01*
X96018494Y-26971671D01*
X96233388Y-26971671D01*
X96322801Y-27016378D01*
G37*
G36*
X101679943Y-27730662D02*
G01*
X101716948Y-27767667D01*
X101761655Y-27857080D01*
X101761655Y-28000547D01*
X101716949Y-28089959D01*
X101679945Y-28126963D01*
X101590531Y-28171671D01*
X101204512Y-28171671D01*
X101204512Y-27685957D01*
X101590531Y-27685957D01*
X101679943Y-27730662D01*
G37*
G36*
X103179944Y-27016378D02*
G01*
X103276210Y-27112644D01*
X103333084Y-27340135D01*
X103333084Y-27803206D01*
X103276210Y-28030697D01*
X103179944Y-28126963D01*
X103090531Y-28171671D01*
X102875637Y-28171671D01*
X102786223Y-28126964D01*
X102689956Y-28030696D01*
X102633084Y-27803207D01*
X102633084Y-27340134D01*
X102689956Y-27112645D01*
X102786223Y-27016377D01*
X102875637Y-26971671D01*
X103090531Y-26971671D01*
X103179944Y-27016378D01*
G37*
G36*
X72268797Y-27847329D02*
G01*
X72119768Y-27400242D01*
X72417827Y-27400242D01*
X72268797Y-27847329D01*
G37*
G36*
X81197369Y-27847329D02*
G01*
X81048340Y-27400242D01*
X81346399Y-27400242D01*
X81197369Y-27847329D01*
G37*
G36*
X106656894Y-28638338D02*
G01*
X66737843Y-28638338D01*
X66737843Y-26821671D01*
X66904510Y-26821671D01*
X66904510Y-28321671D01*
X66907392Y-28350935D01*
X66929790Y-28405007D01*
X66971174Y-28446391D01*
X67025246Y-28468789D01*
X67083774Y-28468789D01*
X67137846Y-28446391D01*
X67179230Y-28405007D01*
X67201628Y-28350935D01*
X67204510Y-28321671D01*
X67204510Y-27893100D01*
X67547368Y-27893100D01*
X67547368Y-28035957D01*
X67550250Y-28065221D01*
X67552312Y-28070199D01*
X67552694Y-28075575D01*
X67563204Y-28103039D01*
X67634632Y-28245896D01*
X67642560Y-28258491D01*
X67644076Y-28262150D01*
X67647455Y-28266267D01*
X67650297Y-28270782D01*
X67653291Y-28273378D01*
X67662731Y-28284881D01*
X67734160Y-28356309D01*
X67745660Y-28365747D01*
X67748257Y-28368741D01*
X67752769Y-28371581D01*
X67756890Y-28374963D01*
X67760549Y-28376478D01*
X67773143Y-28384406D01*
X67915999Y-28455835D01*
X67943463Y-28466344D01*
X67948837Y-28466725D01*
X67953818Y-28468789D01*
X67983082Y-28471671D01*
X68340225Y-28471671D01*
X68355036Y-28470212D01*
X68358986Y-28470493D01*
X68364180Y-28469311D01*
X68369489Y-28468789D01*
X68373151Y-28467271D01*
X68387659Y-28463973D01*
X68601945Y-28392545D01*
X68628796Y-28380556D01*
X68673010Y-28342209D01*
X68699184Y-28289861D01*
X68703333Y-28231481D01*
X68684825Y-28175957D01*
X68646477Y-28131743D01*
X68594130Y-28105569D01*
X68535750Y-28101420D01*
X68507076Y-28107940D01*
X68315885Y-28171671D01*
X68018492Y-28171671D01*
X67929078Y-28126963D01*
X67892073Y-28089958D01*
X67847368Y-28000547D01*
X67847368Y-27928509D01*
X67892074Y-27839095D01*
X67929078Y-27802092D01*
X68035438Y-27748912D01*
X68305176Y-27681478D01*
X68307331Y-27680707D01*
X68308415Y-27680631D01*
X68320611Y-27675963D01*
X68332867Y-27671585D01*
X68333737Y-27670940D01*
X68335878Y-27670121D01*
X68478736Y-27598692D01*
X68491329Y-27590764D01*
X68494989Y-27589249D01*
X68499108Y-27585867D01*
X68503622Y-27583027D01*
X68506218Y-27580033D01*
X68517720Y-27570594D01*
X68589148Y-27499166D01*
X68598588Y-27487663D01*
X68601581Y-27485068D01*
X68604419Y-27480558D01*
X68607803Y-27476436D01*
X68609319Y-27472773D01*
X68617246Y-27460182D01*
X68686502Y-27321671D01*
X68975939Y-27321671D01*
X68975939Y-27821671D01*
X68976441Y-27826774D01*
X68976116Y-27828962D01*
X68977735Y-27839912D01*
X68978821Y-27850935D01*
X68979668Y-27852979D01*
X68980418Y-27858051D01*
X69051846Y-28143765D01*
X69061739Y-28171456D01*
X69068377Y-28180415D01*
X69072646Y-28190721D01*
X69091301Y-28213451D01*
X69234159Y-28356308D01*
X69245660Y-28365746D01*
X69248257Y-28368741D01*
X69252770Y-28371581D01*
X69256890Y-28374963D01*
X69260549Y-28376478D01*
X69273143Y-28384406D01*
X69415999Y-28455835D01*
X69443463Y-28466344D01*
X69448837Y-28466725D01*
X69453818Y-28468789D01*
X69483082Y-28471671D01*
X69768796Y-28471671D01*
X69798060Y-28468789D01*
X69803040Y-28466725D01*
X69808415Y-28466344D01*
X69835878Y-28455835D01*
X69978735Y-28384406D01*
X69991328Y-28376478D01*
X69994988Y-28374963D01*
X69999107Y-28371581D01*
X70003621Y-28368741D01*
X70006217Y-28365747D01*
X70017719Y-28356308D01*
X70160576Y-28213451D01*
X70179231Y-28190721D01*
X70183498Y-28180417D01*
X70190138Y-28171457D01*
X70200031Y-28143766D01*
X70271460Y-27858052D01*
X70272210Y-27852979D01*
X70273057Y-27850935D01*
X70274142Y-27839915D01*
X70275762Y-27828963D01*
X70275436Y-27826774D01*
X70275939Y-27821671D01*
X70275939Y-27321671D01*
X70275436Y-27316567D01*
X70275762Y-27314379D01*
X70274142Y-27303426D01*
X70273057Y-27292407D01*
X70272210Y-27290362D01*
X70271460Y-27285290D01*
X70200031Y-26999576D01*
X70190138Y-26971885D01*
X70183498Y-26962924D01*
X70179231Y-26952621D01*
X70160576Y-26929891D01*
X70052356Y-26821671D01*
X70618796Y-26821671D01*
X70618796Y-28321671D01*
X70621678Y-28350935D01*
X70644076Y-28405007D01*
X70685460Y-28446391D01*
X70739532Y-28468789D01*
X70798060Y-28468789D01*
X70852132Y-28446391D01*
X70893516Y-28405007D01*
X70915914Y-28350935D01*
X70918796Y-28321671D01*
X70918796Y-26971671D01*
X71483082Y-26971671D01*
X71512346Y-26968789D01*
X71566418Y-26946391D01*
X71607802Y-26905007D01*
X71625140Y-26863148D01*
X71626495Y-26869105D01*
X72126495Y-28369105D01*
X72138483Y-28395956D01*
X72145505Y-28404053D01*
X72150298Y-28413638D01*
X72164504Y-28425959D01*
X72176830Y-28440171D01*
X72186417Y-28444964D01*
X72194512Y-28451985D01*
X72212354Y-28457932D01*
X72229178Y-28466344D01*
X72239868Y-28467103D01*
X72250036Y-28470493D01*
X72268792Y-28469160D01*
X72287558Y-28470494D01*
X72297728Y-28467103D01*
X72308417Y-28466344D01*
X72325238Y-28457933D01*
X72343082Y-28451985D01*
X72351178Y-28444962D01*
X72360764Y-28440170D01*
X72373087Y-28425961D01*
X72387296Y-28413638D01*
X72392088Y-28404052D01*
X72399111Y-28395956D01*
X72411099Y-28369105D01*
X72436665Y-28292407D01*
X72907393Y-28292407D01*
X72907393Y-28350935D01*
X72929791Y-28405007D01*
X72971175Y-28446391D01*
X73025247Y-28468789D01*
X73054511Y-28471671D01*
X73911654Y-28471671D01*
X73940918Y-28468789D01*
X73994990Y-28446391D01*
X74036374Y-28405007D01*
X74058772Y-28350935D01*
X74058772Y-28292407D01*
X74036374Y-28238335D01*
X73994990Y-28196951D01*
X73940918Y-28174553D01*
X73911654Y-28171671D01*
X73633082Y-28171671D01*
X73633082Y-26821671D01*
X74261653Y-26821671D01*
X74261653Y-28321671D01*
X74264535Y-28350935D01*
X74286933Y-28405007D01*
X74328317Y-28446391D01*
X74382389Y-28468789D01*
X74440917Y-28468789D01*
X74494989Y-28446391D01*
X74536373Y-28405007D01*
X74558771Y-28350935D01*
X74561653Y-28321671D01*
X74561653Y-27321671D01*
X74904511Y-27321671D01*
X74904511Y-27821671D01*
X74905013Y-27826774D01*
X74904688Y-27828962D01*
X74906307Y-27839912D01*
X74907393Y-27850935D01*
X74908240Y-27852979D01*
X74908990Y-27858051D01*
X74980418Y-28143765D01*
X74990311Y-28171456D01*
X74996949Y-28180415D01*
X75001218Y-28190721D01*
X75019873Y-28213451D01*
X75162731Y-28356308D01*
X75174232Y-28365746D01*
X75176829Y-28368741D01*
X75181342Y-28371581D01*
X75185462Y-28374963D01*
X75189121Y-28376478D01*
X75201715Y-28384406D01*
X75344571Y-28455835D01*
X75372035Y-28466344D01*
X75377409Y-28466725D01*
X75382390Y-28468789D01*
X75411654Y-28471671D01*
X75697368Y-28471671D01*
X75726632Y-28468789D01*
X75731612Y-28466725D01*
X75736987Y-28466344D01*
X75764450Y-28455835D01*
X75907307Y-28384406D01*
X75919900Y-28376478D01*
X75923560Y-28374963D01*
X75927679Y-28371581D01*
X75932193Y-28368741D01*
X75934789Y-28365747D01*
X75946291Y-28356308D01*
X76089148Y-28213451D01*
X76107803Y-28190721D01*
X76112070Y-28180417D01*
X76118710Y-28171457D01*
X76128603Y-28143766D01*
X76200032Y-27858052D01*
X76200782Y-27852979D01*
X76201629Y-27850935D01*
X76202714Y-27839915D01*
X76204334Y-27828963D01*
X76204008Y-27826774D01*
X76204511Y-27821671D01*
X76204511Y-27321671D01*
X76204008Y-27316567D01*
X76204334Y-27314379D01*
X76202714Y-27303426D01*
X76201629Y-27292407D01*
X76200782Y-27290362D01*
X76200032Y-27285290D01*
X76128603Y-26999576D01*
X76118710Y-26971885D01*
X76112070Y-26962924D01*
X76107803Y-26952621D01*
X76089148Y-26929891D01*
X75980928Y-26821671D01*
X76547368Y-26821671D01*
X76547368Y-28321671D01*
X76548109Y-28329196D01*
X76547734Y-28332148D01*
X76548776Y-28335968D01*
X76550250Y-28350935D01*
X76557885Y-28369367D01*
X76563134Y-28388612D01*
X76568988Y-28396171D01*
X76572648Y-28405007D01*
X76586755Y-28419114D01*
X76598969Y-28434886D01*
X76607271Y-28439630D01*
X76614032Y-28446391D01*
X76632462Y-28454025D01*
X76649785Y-28463924D01*
X76659270Y-28465129D01*
X76668104Y-28468789D01*
X76688054Y-28468789D01*
X76707845Y-28471305D01*
X76717070Y-28468789D01*
X76726632Y-28468789D01*
X76745064Y-28461153D01*
X76764309Y-28455905D01*
X76771868Y-28450050D01*
X76780704Y-28446391D01*
X76794811Y-28432283D01*
X76810583Y-28420070D01*
X76819288Y-28407806D01*
X76822088Y-28405007D01*
X76823226Y-28402259D01*
X76827604Y-28396092D01*
X77404511Y-27386506D01*
X77404511Y-28321671D01*
X77407393Y-28350935D01*
X77429791Y-28405007D01*
X77471175Y-28446391D01*
X77525247Y-28468789D01*
X77583775Y-28468789D01*
X77637847Y-28446391D01*
X77679231Y-28405007D01*
X77701629Y-28350935D01*
X77704511Y-28321671D01*
X77704511Y-26821671D01*
X79261654Y-26821671D01*
X79261654Y-28321671D01*
X79264536Y-28350935D01*
X79286934Y-28405007D01*
X79328318Y-28446391D01*
X79382390Y-28468789D01*
X79411654Y-28471671D01*
X79911654Y-28471671D01*
X79940918Y-28468789D01*
X79945895Y-28466727D01*
X79951273Y-28466345D01*
X79978736Y-28455835D01*
X80121594Y-28384406D01*
X80134187Y-28376478D01*
X80137847Y-28374963D01*
X80141966Y-28371581D01*
X80146480Y-28368741D01*
X80149076Y-28365747D01*
X80160578Y-28356308D01*
X80232006Y-28284880D01*
X80241446Y-28273377D01*
X80244439Y-28270782D01*
X80247277Y-28266272D01*
X80250661Y-28262150D01*
X80252177Y-28258487D01*
X80260104Y-28245896D01*
X80331533Y-28103040D01*
X80342042Y-28075576D01*
X80342423Y-28070201D01*
X80344487Y-28065221D01*
X80347369Y-28035957D01*
X80347369Y-27893100D01*
X80344487Y-27863836D01*
X80342425Y-27858858D01*
X80342043Y-27853481D01*
X80331533Y-27826018D01*
X80260104Y-27683160D01*
X80252177Y-27670568D01*
X80250661Y-27666906D01*
X80247277Y-27662783D01*
X80244439Y-27658274D01*
X80241446Y-27655678D01*
X80232006Y-27644176D01*
X80230823Y-27642993D01*
X80232006Y-27642023D01*
X80303435Y-27570594D01*
X80312876Y-27559089D01*
X80315868Y-27556495D01*
X80318706Y-27551985D01*
X80322090Y-27547863D01*
X80323606Y-27544201D01*
X80331533Y-27531610D01*
X80402961Y-27388752D01*
X80413471Y-27361289D01*
X80413852Y-27355913D01*
X80415915Y-27350935D01*
X80418797Y-27321671D01*
X80418797Y-27107385D01*
X80415915Y-27078121D01*
X80413852Y-27073142D01*
X80413471Y-27067767D01*
X80402961Y-27040304D01*
X80331533Y-26897446D01*
X80323604Y-26884851D01*
X80322089Y-26881192D01*
X80318707Y-26877071D01*
X80315868Y-26872561D01*
X80312876Y-26869966D01*
X80303434Y-26858461D01*
X80285405Y-26840432D01*
X80548547Y-26840432D01*
X80555067Y-26869105D01*
X81055067Y-28369105D01*
X81067055Y-28395956D01*
X81074077Y-28404053D01*
X81078870Y-28413638D01*
X81093076Y-28425959D01*
X81105402Y-28440171D01*
X81114989Y-28444964D01*
X81123084Y-28451985D01*
X81140926Y-28457932D01*
X81157750Y-28466344D01*
X81168440Y-28467103D01*
X81178608Y-28470493D01*
X81197364Y-28469160D01*
X81216130Y-28470494D01*
X81226300Y-28467103D01*
X81236989Y-28466344D01*
X81253810Y-28457933D01*
X81271654Y-28451985D01*
X81279750Y-28444962D01*
X81289336Y-28440170D01*
X81301659Y-28425961D01*
X81315868Y-28413638D01*
X81320660Y-28404052D01*
X81327683Y-28395956D01*
X81339671Y-28369105D01*
X81839672Y-26869105D01*
X81846192Y-26840431D01*
X81844858Y-26821671D01*
X82047368Y-26821671D01*
X82047368Y-28321671D01*
X82050250Y-28350935D01*
X82072648Y-28405007D01*
X82114032Y-28446391D01*
X82168104Y-28468789D01*
X82197368Y-28471671D01*
X82768797Y-28471671D01*
X82798061Y-28468789D01*
X82803041Y-28466725D01*
X82808416Y-28466344D01*
X82835879Y-28455835D01*
X82978736Y-28384406D01*
X82991331Y-28376477D01*
X82994988Y-28374963D01*
X82999105Y-28371583D01*
X83003622Y-28368741D01*
X83006219Y-28365746D01*
X83017719Y-28356309D01*
X83089148Y-28284881D01*
X83098590Y-28273375D01*
X83101582Y-28270781D01*
X83104421Y-28266270D01*
X83107803Y-28262150D01*
X83109318Y-28258490D01*
X83117247Y-28245896D01*
X83188675Y-28103038D01*
X83199185Y-28075575D01*
X83199566Y-28070199D01*
X83201629Y-28065221D01*
X83204511Y-28035957D01*
X83204511Y-27821671D01*
X83201629Y-27792407D01*
X83199566Y-27787428D01*
X83199185Y-27782053D01*
X83188675Y-27754590D01*
X83117247Y-27611732D01*
X83109320Y-27599140D01*
X83107804Y-27595479D01*
X83104420Y-27591356D01*
X83101582Y-27586847D01*
X83098590Y-27584252D01*
X83089149Y-27572748D01*
X83017720Y-27501319D01*
X83006218Y-27491879D01*
X83003622Y-27488886D01*
X82999108Y-27486045D01*
X82994989Y-27482664D01*
X82991329Y-27481148D01*
X82978736Y-27473221D01*
X82835879Y-27401793D01*
X82832444Y-27400478D01*
X83177396Y-26907690D01*
X83191817Y-26882064D01*
X83204476Y-26824922D01*
X83203902Y-26821671D01*
X83547368Y-26821671D01*
X83547368Y-28321671D01*
X83550250Y-28350935D01*
X83572648Y-28405007D01*
X83614032Y-28446391D01*
X83668104Y-28468789D01*
X83697368Y-28471671D01*
X84268797Y-28471671D01*
X84298061Y-28468789D01*
X84303041Y-28466725D01*
X84308416Y-28466344D01*
X84335879Y-28455835D01*
X84478736Y-28384406D01*
X84491331Y-28376477D01*
X84494988Y-28374963D01*
X84499105Y-28371583D01*
X84503622Y-28368741D01*
X84506219Y-28365746D01*
X84517719Y-28356309D01*
X84589148Y-28284881D01*
X84598590Y-28273375D01*
X84601582Y-28270781D01*
X84604421Y-28266270D01*
X84607803Y-28262150D01*
X84609318Y-28258490D01*
X84617247Y-28245896D01*
X84688675Y-28103038D01*
X84699185Y-28075575D01*
X84699566Y-28070199D01*
X84701629Y-28065221D01*
X84704511Y-28035957D01*
X84704511Y-27821671D01*
X84701629Y-27792407D01*
X84699566Y-27787428D01*
X84699185Y-27782053D01*
X84688675Y-27754590D01*
X84617247Y-27611732D01*
X84609320Y-27599140D01*
X84607804Y-27595479D01*
X84604420Y-27591356D01*
X84601582Y-27586847D01*
X84598590Y-27584252D01*
X84589149Y-27572748D01*
X84517720Y-27501319D01*
X84506218Y-27491879D01*
X84503622Y-27488886D01*
X84499108Y-27486045D01*
X84494989Y-27482664D01*
X84491329Y-27481148D01*
X84478736Y-27473221D01*
X84335879Y-27401793D01*
X84332444Y-27400478D01*
X84677396Y-26907690D01*
X84691817Y-26882064D01*
X84704476Y-26824922D01*
X84703902Y-26821671D01*
X85047368Y-26821671D01*
X85047368Y-28321671D01*
X85050250Y-28350935D01*
X85072648Y-28405007D01*
X85114032Y-28446391D01*
X85168104Y-28468789D01*
X85226632Y-28468789D01*
X85280704Y-28446391D01*
X85322088Y-28405007D01*
X85344486Y-28350935D01*
X85347368Y-28321671D01*
X85347368Y-26821671D01*
X85761654Y-26821671D01*
X85761654Y-28321671D01*
X85764536Y-28350935D01*
X85786934Y-28405007D01*
X85828318Y-28446391D01*
X85882390Y-28468789D01*
X85911654Y-28471671D01*
X86625940Y-28471671D01*
X86655204Y-28468789D01*
X86709276Y-28446391D01*
X86750660Y-28405007D01*
X86773058Y-28350935D01*
X86773058Y-28292407D01*
X86750660Y-28238335D01*
X86709276Y-28196951D01*
X86655204Y-28174553D01*
X86625940Y-28171671D01*
X86061654Y-28171671D01*
X86061654Y-27757385D01*
X86411654Y-27757385D01*
X86440918Y-27754503D01*
X86494990Y-27732105D01*
X86536374Y-27690721D01*
X86558772Y-27636649D01*
X86558772Y-27578121D01*
X86536374Y-27524049D01*
X86494990Y-27482665D01*
X86440918Y-27460267D01*
X86411654Y-27457385D01*
X86061654Y-27457385D01*
X86061654Y-26971671D01*
X86625940Y-26971671D01*
X86655204Y-26968789D01*
X86709276Y-26946391D01*
X86750660Y-26905007D01*
X86773058Y-26850935D01*
X86773058Y-26821671D01*
X87118797Y-26821671D01*
X87118797Y-28321671D01*
X87121679Y-28350935D01*
X87144077Y-28405007D01*
X87185461Y-28446391D01*
X87239533Y-28468789D01*
X87268797Y-28471671D01*
X87840226Y-28471671D01*
X87869490Y-28468789D01*
X87874470Y-28466725D01*
X87879845Y-28466344D01*
X87907308Y-28455835D01*
X88050165Y-28384406D01*
X88062760Y-28376477D01*
X88066417Y-28374963D01*
X88070534Y-28371583D01*
X88075051Y-28368741D01*
X88077648Y-28365746D01*
X88089148Y-28356309D01*
X88160577Y-28284881D01*
X88170019Y-28273375D01*
X88173011Y-28270781D01*
X88175850Y-28266270D01*
X88179232Y-28262150D01*
X88180747Y-28258490D01*
X88188676Y-28245896D01*
X88260104Y-28103038D01*
X88270614Y-28075575D01*
X88270995Y-28070199D01*
X88273058Y-28065221D01*
X88275940Y-28035957D01*
X88275940Y-27821671D01*
X88273058Y-27792407D01*
X88270995Y-27787428D01*
X88270614Y-27782053D01*
X88260104Y-27754590D01*
X88188676Y-27611732D01*
X88180749Y-27599140D01*
X88179233Y-27595479D01*
X88175849Y-27591356D01*
X88173011Y-27586847D01*
X88170019Y-27584252D01*
X88160578Y-27572748D01*
X88089149Y-27501319D01*
X88077647Y-27491879D01*
X88075051Y-27488886D01*
X88070537Y-27486045D01*
X88066418Y-27482664D01*
X88062758Y-27481148D01*
X88050165Y-27473221D01*
X87907308Y-27401793D01*
X87903873Y-27400478D01*
X88248825Y-26907690D01*
X88263246Y-26882064D01*
X88275905Y-26824922D01*
X88275331Y-26821671D01*
X89761654Y-26821671D01*
X89761654Y-28321671D01*
X89764536Y-28350935D01*
X89786934Y-28405007D01*
X89828318Y-28446391D01*
X89882390Y-28468789D01*
X89911654Y-28471671D01*
X90268797Y-28471671D01*
X90283608Y-28470212D01*
X90287558Y-28470493D01*
X90292752Y-28469311D01*
X90298061Y-28468789D01*
X90301723Y-28467271D01*
X90316231Y-28463973D01*
X90530517Y-28392545D01*
X90557368Y-28380556D01*
X90561438Y-28377025D01*
X90566418Y-28374963D01*
X90589149Y-28356308D01*
X90732006Y-28213451D01*
X90741446Y-28201948D01*
X90744439Y-28199353D01*
X90747277Y-28194843D01*
X90750661Y-28190721D01*
X90752177Y-28187058D01*
X90760104Y-28174467D01*
X90831533Y-28031611D01*
X90832352Y-28029468D01*
X90832997Y-28028599D01*
X90837381Y-28016327D01*
X90842042Y-28004147D01*
X90842118Y-28003066D01*
X90842890Y-28000908D01*
X90914318Y-27715194D01*
X90915067Y-27710122D01*
X90915915Y-27708078D01*
X90917000Y-27697055D01*
X90918620Y-27686105D01*
X90918294Y-27683917D01*
X90918797Y-27678814D01*
X90918797Y-27464528D01*
X90918294Y-27459424D01*
X90918620Y-27457237D01*
X90917000Y-27446286D01*
X90915915Y-27435264D01*
X90915067Y-27433219D01*
X90914318Y-27428148D01*
X90887699Y-27321671D01*
X91190226Y-27321671D01*
X91190226Y-27821671D01*
X91190728Y-27826774D01*
X91190403Y-27828962D01*
X91192022Y-27839912D01*
X91193108Y-27850935D01*
X91193955Y-27852979D01*
X91194705Y-27858051D01*
X91266133Y-28143765D01*
X91276026Y-28171456D01*
X91282664Y-28180415D01*
X91286933Y-28190721D01*
X91305588Y-28213451D01*
X91448446Y-28356308D01*
X91459947Y-28365746D01*
X91462544Y-28368741D01*
X91467057Y-28371581D01*
X91471177Y-28374963D01*
X91474836Y-28376478D01*
X91487430Y-28384406D01*
X91630286Y-28455835D01*
X91657750Y-28466344D01*
X91663124Y-28466725D01*
X91668105Y-28468789D01*
X91697369Y-28471671D01*
X91983083Y-28471671D01*
X92012347Y-28468789D01*
X92017327Y-28466725D01*
X92022702Y-28466344D01*
X92050165Y-28455835D01*
X92193022Y-28384406D01*
X92205615Y-28376478D01*
X92209275Y-28374963D01*
X92213394Y-28371581D01*
X92217908Y-28368741D01*
X92220504Y-28365747D01*
X92232006Y-28356308D01*
X92374863Y-28213451D01*
X92393518Y-28190721D01*
X92397785Y-28180417D01*
X92404425Y-28171457D01*
X92414318Y-28143766D01*
X92485747Y-27858052D01*
X92486497Y-27852979D01*
X92487344Y-27850935D01*
X92488429Y-27839915D01*
X92490049Y-27828963D01*
X92489723Y-27826774D01*
X92490226Y-27821671D01*
X92490226Y-27321671D01*
X92489723Y-27316567D01*
X92490049Y-27314379D01*
X92488429Y-27303426D01*
X92487344Y-27292407D01*
X92486497Y-27290362D01*
X92485747Y-27285290D01*
X92414318Y-26999576D01*
X92404425Y-26971885D01*
X92397785Y-26962924D01*
X92393518Y-26952621D01*
X92374863Y-26929891D01*
X92266643Y-26821671D01*
X93975940Y-26821671D01*
X93975940Y-28321671D01*
X93976681Y-28329196D01*
X93976306Y-28332148D01*
X93977348Y-28335968D01*
X93978822Y-28350935D01*
X93986457Y-28369367D01*
X93991706Y-28388612D01*
X93997560Y-28396171D01*
X94001220Y-28405007D01*
X94015327Y-28419114D01*
X94027541Y-28434886D01*
X94035843Y-28439630D01*
X94042604Y-28446391D01*
X94061034Y-28454025D01*
X94078357Y-28463924D01*
X94087842Y-28465129D01*
X94096676Y-28468789D01*
X94116626Y-28468789D01*
X94136417Y-28471305D01*
X94145642Y-28468789D01*
X94155204Y-28468789D01*
X94173636Y-28461153D01*
X94192881Y-28455905D01*
X94200440Y-28450050D01*
X94209276Y-28446391D01*
X94223383Y-28432283D01*
X94239155Y-28420070D01*
X94247860Y-28407806D01*
X94250660Y-28405007D01*
X94251798Y-28402259D01*
X94256176Y-28396092D01*
X94833083Y-27386506D01*
X94833083Y-28321671D01*
X94835965Y-28350935D01*
X94858363Y-28405007D01*
X94899747Y-28446391D01*
X94953819Y-28468789D01*
X95012347Y-28468789D01*
X95066419Y-28446391D01*
X95107803Y-28405007D01*
X95130201Y-28350935D01*
X95133083Y-28321671D01*
X95133083Y-27321671D01*
X95475941Y-27321671D01*
X95475941Y-27821671D01*
X95476443Y-27826774D01*
X95476118Y-27828962D01*
X95477737Y-27839912D01*
X95478823Y-27850935D01*
X95479670Y-27852979D01*
X95480420Y-27858051D01*
X95551848Y-28143765D01*
X95561741Y-28171456D01*
X95568379Y-28180415D01*
X95572648Y-28190721D01*
X95591303Y-28213451D01*
X95734161Y-28356308D01*
X95745662Y-28365746D01*
X95748259Y-28368741D01*
X95752772Y-28371581D01*
X95756892Y-28374963D01*
X95760551Y-28376478D01*
X95773145Y-28384406D01*
X95916001Y-28455835D01*
X95943465Y-28466344D01*
X95948839Y-28466725D01*
X95953820Y-28468789D01*
X95983084Y-28471671D01*
X96268798Y-28471671D01*
X96298062Y-28468789D01*
X96303042Y-28466725D01*
X96308417Y-28466344D01*
X96335880Y-28455835D01*
X96478737Y-28384406D01*
X96491330Y-28376478D01*
X96494990Y-28374963D01*
X96499109Y-28371581D01*
X96503623Y-28368741D01*
X96506219Y-28365747D01*
X96517721Y-28356308D01*
X96581622Y-28292407D01*
X96907395Y-28292407D01*
X96907395Y-28350935D01*
X96929793Y-28405007D01*
X96971177Y-28446391D01*
X97025249Y-28468789D01*
X97054513Y-28471671D01*
X97911656Y-28471671D01*
X97940920Y-28468789D01*
X97994992Y-28446391D01*
X98036376Y-28405007D01*
X98058774Y-28350935D01*
X98058774Y-28292407D01*
X98036376Y-28238335D01*
X97994992Y-28196951D01*
X97940920Y-28174553D01*
X97911656Y-28171671D01*
X97633084Y-28171671D01*
X97633084Y-27464528D01*
X99333084Y-27464528D01*
X99333084Y-27678814D01*
X99333586Y-27683917D01*
X99333261Y-27686105D01*
X99334880Y-27697055D01*
X99335966Y-27708078D01*
X99336813Y-27710122D01*
X99337563Y-27715194D01*
X99408991Y-28000908D01*
X99409762Y-28003066D01*
X99409839Y-28004147D01*
X99414497Y-28016321D01*
X99418884Y-28028599D01*
X99419528Y-28029469D01*
X99420348Y-28031610D01*
X99491777Y-28174467D01*
X99499704Y-28187060D01*
X99501220Y-28190720D01*
X99504601Y-28194839D01*
X99507442Y-28199353D01*
X99510435Y-28201949D01*
X99519875Y-28213451D01*
X99662732Y-28356308D01*
X99685462Y-28374963D01*
X99690443Y-28377026D01*
X99694513Y-28380556D01*
X99721364Y-28392544D01*
X99935649Y-28463973D01*
X99950158Y-28467272D01*
X99953820Y-28468789D01*
X99959128Y-28469311D01*
X99964323Y-28470493D01*
X99968272Y-28470212D01*
X99983084Y-28471671D01*
X100125941Y-28471671D01*
X100140752Y-28470212D01*
X100144702Y-28470493D01*
X100149896Y-28469311D01*
X100155205Y-28468789D01*
X100158867Y-28467271D01*
X100173375Y-28463973D01*
X100387661Y-28392545D01*
X100414512Y-28380556D01*
X100418582Y-28377025D01*
X100423562Y-28374963D01*
X100446293Y-28356308D01*
X100517721Y-28284880D01*
X100536376Y-28262150D01*
X100558772Y-28208077D01*
X100558772Y-28149551D01*
X100536376Y-28095479D01*
X100494990Y-28054093D01*
X100440918Y-28031697D01*
X100382392Y-28031697D01*
X100328319Y-28054093D01*
X100305589Y-28072748D01*
X100259199Y-28119137D01*
X100101601Y-28171671D01*
X100007427Y-28171671D01*
X99849825Y-28119137D01*
X99749219Y-28018531D01*
X99696038Y-27912171D01*
X99633084Y-27660350D01*
X99633084Y-27482991D01*
X99696038Y-27231170D01*
X99749219Y-27124810D01*
X99849825Y-27024204D01*
X100007427Y-26971671D01*
X100101601Y-26971671D01*
X100259199Y-27024204D01*
X100305589Y-27070594D01*
X100328319Y-27089249D01*
X100382392Y-27111645D01*
X100440918Y-27111645D01*
X100494990Y-27089249D01*
X100536376Y-27047863D01*
X100558772Y-26993791D01*
X100558772Y-26935265D01*
X100536376Y-26881192D01*
X100517721Y-26858462D01*
X100480930Y-26821671D01*
X100904512Y-26821671D01*
X100904512Y-28321671D01*
X100907394Y-28350935D01*
X100929792Y-28405007D01*
X100971176Y-28446391D01*
X101025248Y-28468789D01*
X101054512Y-28471671D01*
X101625941Y-28471671D01*
X101655205Y-28468789D01*
X101660185Y-28466725D01*
X101665560Y-28466344D01*
X101693023Y-28455835D01*
X101835880Y-28384406D01*
X101848475Y-28376477D01*
X101852132Y-28374963D01*
X101856249Y-28371583D01*
X101860766Y-28368741D01*
X101863363Y-28365746D01*
X101874863Y-28356309D01*
X101946292Y-28284881D01*
X101955734Y-28273375D01*
X101958726Y-28270781D01*
X101961565Y-28266270D01*
X101964947Y-28262150D01*
X101966462Y-28258490D01*
X101974391Y-28245896D01*
X102045819Y-28103038D01*
X102056329Y-28075575D01*
X102056710Y-28070199D01*
X102058773Y-28065221D01*
X102061655Y-28035957D01*
X102061655Y-27821671D01*
X102058773Y-27792407D01*
X102056710Y-27787428D01*
X102056329Y-27782053D01*
X102045819Y-27754590D01*
X101974391Y-27611732D01*
X101966464Y-27599140D01*
X101964948Y-27595479D01*
X101961564Y-27591356D01*
X101958726Y-27586847D01*
X101955734Y-27584252D01*
X101946293Y-27572748D01*
X101874864Y-27501319D01*
X101863362Y-27491879D01*
X101860766Y-27488886D01*
X101856252Y-27486045D01*
X101852133Y-27482664D01*
X101848473Y-27481148D01*
X101835880Y-27473221D01*
X101693023Y-27401793D01*
X101689588Y-27400478D01*
X101744753Y-27321671D01*
X102333084Y-27321671D01*
X102333084Y-27821671D01*
X102333586Y-27826774D01*
X102333261Y-27828962D01*
X102334880Y-27839912D01*
X102335966Y-27850935D01*
X102336813Y-27852979D01*
X102337563Y-27858051D01*
X102408991Y-28143765D01*
X102418884Y-28171456D01*
X102425522Y-28180415D01*
X102429791Y-28190721D01*
X102448446Y-28213451D01*
X102591304Y-28356308D01*
X102602805Y-28365746D01*
X102605402Y-28368741D01*
X102609915Y-28371581D01*
X102614035Y-28374963D01*
X102617694Y-28376478D01*
X102630288Y-28384406D01*
X102773144Y-28455835D01*
X102800608Y-28466344D01*
X102805982Y-28466725D01*
X102810963Y-28468789D01*
X102840227Y-28471671D01*
X103125941Y-28471671D01*
X103155205Y-28468789D01*
X103160185Y-28466725D01*
X103165560Y-28466344D01*
X103193023Y-28455835D01*
X103335880Y-28384406D01*
X103348473Y-28376478D01*
X103352133Y-28374963D01*
X103356252Y-28371581D01*
X103360766Y-28368741D01*
X103363362Y-28365747D01*
X103374864Y-28356308D01*
X103517721Y-28213451D01*
X103536376Y-28190721D01*
X103540643Y-28180417D01*
X103547283Y-28171457D01*
X103557176Y-28143766D01*
X103619843Y-27893100D01*
X103904513Y-27893100D01*
X103904513Y-28035957D01*
X103907395Y-28065221D01*
X103909457Y-28070199D01*
X103909839Y-28075575D01*
X103920349Y-28103039D01*
X103991777Y-28245896D01*
X103999705Y-28258491D01*
X104001221Y-28262150D01*
X104004600Y-28266267D01*
X104007442Y-28270782D01*
X104010436Y-28273378D01*
X104019876Y-28284881D01*
X104091305Y-28356309D01*
X104102805Y-28365747D01*
X104105402Y-28368741D01*
X104109914Y-28371581D01*
X104114035Y-28374963D01*
X104117694Y-28376478D01*
X104130288Y-28384406D01*
X104273144Y-28455835D01*
X104300608Y-28466344D01*
X104305982Y-28466725D01*
X104310963Y-28468789D01*
X104340227Y-28471671D01*
X104697370Y-28471671D01*
X104712181Y-28470212D01*
X104716131Y-28470493D01*
X104721325Y-28469311D01*
X104726634Y-28468789D01*
X104730296Y-28467271D01*
X104744804Y-28463973D01*
X104959090Y-28392545D01*
X104985941Y-28380556D01*
X105030155Y-28342209D01*
X105056329Y-28289861D01*
X105060478Y-28231481D01*
X105041970Y-28175957D01*
X105003622Y-28131743D01*
X104951275Y-28105569D01*
X104892895Y-28101420D01*
X104864221Y-28107940D01*
X104673030Y-28171671D01*
X104375637Y-28171671D01*
X104286223Y-28126963D01*
X104249218Y-28089958D01*
X104204513Y-28000547D01*
X104204513Y-27928509D01*
X104222217Y-27893100D01*
X105333084Y-27893100D01*
X105333084Y-28035957D01*
X105335966Y-28065221D01*
X105338028Y-28070199D01*
X105338410Y-28075575D01*
X105348920Y-28103039D01*
X105420348Y-28245896D01*
X105428276Y-28258491D01*
X105429792Y-28262150D01*
X105433171Y-28266267D01*
X105436013Y-28270782D01*
X105439007Y-28273378D01*
X105448447Y-28284881D01*
X105519876Y-28356309D01*
X105531376Y-28365747D01*
X105533973Y-28368741D01*
X105538485Y-28371581D01*
X105542606Y-28374963D01*
X105546265Y-28376478D01*
X105558859Y-28384406D01*
X105701715Y-28455835D01*
X105729179Y-28466344D01*
X105734553Y-28466725D01*
X105739534Y-28468789D01*
X105768798Y-28471671D01*
X106125941Y-28471671D01*
X106140752Y-28470212D01*
X106144702Y-28470493D01*
X106149896Y-28469311D01*
X106155205Y-28468789D01*
X106158867Y-28467271D01*
X106173375Y-28463973D01*
X106387661Y-28392545D01*
X106414512Y-28380556D01*
X106458726Y-28342209D01*
X106484900Y-28289861D01*
X106489049Y-28231481D01*
X106470541Y-28175957D01*
X106432193Y-28131743D01*
X106379846Y-28105569D01*
X106321466Y-28101420D01*
X106292792Y-28107940D01*
X106101601Y-28171671D01*
X105804208Y-28171671D01*
X105714794Y-28126963D01*
X105677789Y-28089958D01*
X105633084Y-28000547D01*
X105633084Y-27928509D01*
X105677790Y-27839095D01*
X105714794Y-27802092D01*
X105821154Y-27748912D01*
X106090892Y-27681478D01*
X106093047Y-27680707D01*
X106094131Y-27680631D01*
X106106327Y-27675963D01*
X106118583Y-27671585D01*
X106119453Y-27670940D01*
X106121594Y-27670121D01*
X106264452Y-27598692D01*
X106277045Y-27590764D01*
X106280705Y-27589249D01*
X106284824Y-27585867D01*
X106289338Y-27583027D01*
X106291934Y-27580033D01*
X106303436Y-27570594D01*
X106374864Y-27499166D01*
X106384304Y-27487663D01*
X106387297Y-27485068D01*
X106390135Y-27480558D01*
X106393519Y-27476436D01*
X106395035Y-27472773D01*
X106402962Y-27460182D01*
X106474391Y-27317324D01*
X106484901Y-27289861D01*
X106485283Y-27284483D01*
X106487345Y-27279506D01*
X106490227Y-27250242D01*
X106490227Y-27107385D01*
X106487345Y-27078121D01*
X106485281Y-27073140D01*
X106484900Y-27067766D01*
X106474391Y-27040302D01*
X106402962Y-26897446D01*
X106395035Y-26884854D01*
X106393519Y-26881192D01*
X106390135Y-26877069D01*
X106387297Y-26872560D01*
X106384304Y-26869964D01*
X106374864Y-26858462D01*
X106303436Y-26787034D01*
X106291934Y-26777594D01*
X106289338Y-26774601D01*
X106284824Y-26771760D01*
X106280705Y-26768379D01*
X106277045Y-26766863D01*
X106264452Y-26758936D01*
X106121594Y-26687507D01*
X106094131Y-26676997D01*
X106088753Y-26676614D01*
X106083776Y-26674553D01*
X106054512Y-26671671D01*
X105697370Y-26671671D01*
X105682558Y-26673129D01*
X105678609Y-26672849D01*
X105673414Y-26674030D01*
X105668106Y-26674553D01*
X105664444Y-26676069D01*
X105649935Y-26679369D01*
X105435650Y-26750798D01*
X105408799Y-26762786D01*
X105364584Y-26801134D01*
X105338411Y-26853481D01*
X105334262Y-26911861D01*
X105352770Y-26967385D01*
X105391118Y-27011600D01*
X105443465Y-27037773D01*
X105501845Y-27041922D01*
X105530518Y-27035402D01*
X105721713Y-26971671D01*
X106019102Y-26971671D01*
X106108516Y-27016378D01*
X106145520Y-27053382D01*
X106190227Y-27142795D01*
X106190227Y-27214832D01*
X106145520Y-27304246D01*
X106108516Y-27341250D01*
X106002156Y-27394429D01*
X105732418Y-27461864D01*
X105730259Y-27462635D01*
X105729179Y-27462712D01*
X105716998Y-27467372D01*
X105704727Y-27471757D01*
X105703857Y-27472401D01*
X105701715Y-27473221D01*
X105558859Y-27544650D01*
X105546265Y-27552577D01*
X105542606Y-27554093D01*
X105538485Y-27557474D01*
X105533973Y-27560315D01*
X105531376Y-27563308D01*
X105519876Y-27572747D01*
X105448447Y-27644175D01*
X105439004Y-27655680D01*
X105436013Y-27658275D01*
X105433173Y-27662785D01*
X105429792Y-27666906D01*
X105428276Y-27670565D01*
X105420348Y-27683160D01*
X105348920Y-27826019D01*
X105338410Y-27853482D01*
X105338028Y-27858857D01*
X105335966Y-27863836D01*
X105333084Y-27893100D01*
X104222217Y-27893100D01*
X104249219Y-27839095D01*
X104286223Y-27802092D01*
X104392583Y-27748912D01*
X104662321Y-27681478D01*
X104664476Y-27680707D01*
X104665560Y-27680631D01*
X104677756Y-27675963D01*
X104690012Y-27671585D01*
X104690882Y-27670940D01*
X104693023Y-27670121D01*
X104835881Y-27598692D01*
X104848474Y-27590764D01*
X104852134Y-27589249D01*
X104856253Y-27585867D01*
X104860767Y-27583027D01*
X104863363Y-27580033D01*
X104874865Y-27570594D01*
X104946293Y-27499166D01*
X104955733Y-27487663D01*
X104958726Y-27485068D01*
X104961564Y-27480558D01*
X104964948Y-27476436D01*
X104966464Y-27472773D01*
X104974391Y-27460182D01*
X105045820Y-27317324D01*
X105056330Y-27289861D01*
X105056712Y-27284483D01*
X105058774Y-27279506D01*
X105061656Y-27250242D01*
X105061656Y-27107385D01*
X105058774Y-27078121D01*
X105056710Y-27073140D01*
X105056329Y-27067766D01*
X105045820Y-27040302D01*
X104974391Y-26897446D01*
X104966464Y-26884854D01*
X104964948Y-26881192D01*
X104961564Y-26877069D01*
X104958726Y-26872560D01*
X104955733Y-26869964D01*
X104946293Y-26858462D01*
X104874865Y-26787034D01*
X104863363Y-26777594D01*
X104860767Y-26774601D01*
X104856253Y-26771760D01*
X104852134Y-26768379D01*
X104848474Y-26766863D01*
X104835881Y-26758936D01*
X104693023Y-26687507D01*
X104665560Y-26676997D01*
X104660182Y-26676614D01*
X104655205Y-26674553D01*
X104625941Y-26671671D01*
X104268799Y-26671671D01*
X104253987Y-26673129D01*
X104250038Y-26672849D01*
X104244843Y-26674030D01*
X104239535Y-26674553D01*
X104235873Y-26676069D01*
X104221364Y-26679369D01*
X104007079Y-26750798D01*
X103980228Y-26762786D01*
X103936013Y-26801134D01*
X103909840Y-26853481D01*
X103905691Y-26911861D01*
X103924199Y-26967385D01*
X103962547Y-27011600D01*
X104014894Y-27037773D01*
X104073274Y-27041922D01*
X104101947Y-27035402D01*
X104293142Y-26971671D01*
X104590531Y-26971671D01*
X104679945Y-27016378D01*
X104716949Y-27053382D01*
X104761656Y-27142795D01*
X104761656Y-27214832D01*
X104716949Y-27304246D01*
X104679945Y-27341250D01*
X104573585Y-27394429D01*
X104303847Y-27461864D01*
X104301688Y-27462635D01*
X104300608Y-27462712D01*
X104288427Y-27467372D01*
X104276156Y-27471757D01*
X104275286Y-27472401D01*
X104273144Y-27473221D01*
X104130288Y-27544650D01*
X104117694Y-27552577D01*
X104114035Y-27554093D01*
X104109914Y-27557474D01*
X104105402Y-27560315D01*
X104102805Y-27563308D01*
X104091305Y-27572747D01*
X104019876Y-27644175D01*
X104010433Y-27655680D01*
X104007442Y-27658275D01*
X104004602Y-27662785D01*
X104001221Y-27666906D01*
X103999705Y-27670565D01*
X103991777Y-27683160D01*
X103920349Y-27826019D01*
X103909839Y-27853482D01*
X103909457Y-27858857D01*
X103907395Y-27863836D01*
X103904513Y-27893100D01*
X103619843Y-27893100D01*
X103628605Y-27858052D01*
X103629355Y-27852979D01*
X103630202Y-27850935D01*
X103631287Y-27839915D01*
X103632907Y-27828963D01*
X103632581Y-27826774D01*
X103633084Y-27821671D01*
X103633084Y-27321671D01*
X103632581Y-27316567D01*
X103632907Y-27314379D01*
X103631287Y-27303426D01*
X103630202Y-27292407D01*
X103629355Y-27290362D01*
X103628605Y-27285290D01*
X103557176Y-26999576D01*
X103547283Y-26971885D01*
X103540643Y-26962924D01*
X103536376Y-26952621D01*
X103517721Y-26929891D01*
X103374864Y-26787034D01*
X103363362Y-26777594D01*
X103360766Y-26774601D01*
X103356252Y-26771760D01*
X103352133Y-26768379D01*
X103348473Y-26766863D01*
X103335880Y-26758936D01*
X103193023Y-26687507D01*
X103165560Y-26676998D01*
X103160185Y-26676616D01*
X103155205Y-26674553D01*
X103125941Y-26671671D01*
X102840227Y-26671671D01*
X102810963Y-26674553D01*
X102805982Y-26676616D01*
X102800608Y-26676998D01*
X102773144Y-26687507D01*
X102630288Y-26758936D01*
X102617694Y-26766863D01*
X102614035Y-26768379D01*
X102609915Y-26771760D01*
X102605402Y-26774601D01*
X102602805Y-26777595D01*
X102591304Y-26787034D01*
X102448446Y-26929891D01*
X102429791Y-26952621D01*
X102425522Y-26962926D01*
X102418884Y-26971886D01*
X102408991Y-26999577D01*
X102337563Y-27285291D01*
X102336813Y-27290362D01*
X102335966Y-27292407D01*
X102334880Y-27303429D01*
X102333261Y-27314380D01*
X102333586Y-27316567D01*
X102333084Y-27321671D01*
X101744753Y-27321671D01*
X102034540Y-26907690D01*
X102048961Y-26882064D01*
X102061620Y-26824922D01*
X102051449Y-26767286D01*
X102019996Y-26717929D01*
X101972048Y-26684365D01*
X101914906Y-26671706D01*
X101857270Y-26681877D01*
X101807913Y-26713330D01*
X101788770Y-26735652D01*
X101333557Y-27385957D01*
X101204512Y-27385957D01*
X101204512Y-26821671D01*
X101201630Y-26792407D01*
X101179232Y-26738335D01*
X101137848Y-26696951D01*
X101083776Y-26674553D01*
X101025248Y-26674553D01*
X100971176Y-26696951D01*
X100929792Y-26738335D01*
X100907394Y-26792407D01*
X100904512Y-26821671D01*
X100480930Y-26821671D01*
X100446293Y-26787034D01*
X100423562Y-26768379D01*
X100418582Y-26766316D01*
X100414512Y-26762786D01*
X100387661Y-26750797D01*
X100173375Y-26679369D01*
X100158867Y-26676070D01*
X100155205Y-26674553D01*
X100149896Y-26674030D01*
X100144702Y-26672849D01*
X100140752Y-26673129D01*
X100125941Y-26671671D01*
X99983084Y-26671671D01*
X99968272Y-26673129D01*
X99964323Y-26672849D01*
X99959128Y-26674030D01*
X99953820Y-26674553D01*
X99950158Y-26676069D01*
X99935649Y-26679369D01*
X99721364Y-26750798D01*
X99694513Y-26762786D01*
X99690443Y-26766315D01*
X99685462Y-26768379D01*
X99662732Y-26787034D01*
X99519875Y-26929891D01*
X99510435Y-26941392D01*
X99507442Y-26943989D01*
X99504601Y-26948502D01*
X99501220Y-26952622D01*
X99499704Y-26956281D01*
X99491777Y-26968875D01*
X99420348Y-27111732D01*
X99419528Y-27113872D01*
X99418884Y-27114743D01*
X99414497Y-27127020D01*
X99409839Y-27139195D01*
X99409762Y-27140275D01*
X99408991Y-27142434D01*
X99337563Y-27428148D01*
X99336813Y-27433219D01*
X99335966Y-27435264D01*
X99334880Y-27446286D01*
X99333261Y-27457237D01*
X99333586Y-27459424D01*
X99333084Y-27464528D01*
X97633084Y-27464528D01*
X97633084Y-26821671D01*
X97630202Y-26792407D01*
X97607804Y-26738335D01*
X97566420Y-26696951D01*
X97512348Y-26674553D01*
X97453820Y-26674553D01*
X97399748Y-26696951D01*
X97358364Y-26738335D01*
X97335966Y-26792407D01*
X97333084Y-26821671D01*
X97333084Y-28171671D01*
X97054513Y-28171671D01*
X97025249Y-28174553D01*
X96971177Y-28196951D01*
X96929793Y-28238335D01*
X96907395Y-28292407D01*
X96581622Y-28292407D01*
X96660578Y-28213451D01*
X96679233Y-28190721D01*
X96683500Y-28180417D01*
X96690140Y-28171457D01*
X96700033Y-28143766D01*
X96771462Y-27858052D01*
X96772212Y-27852979D01*
X96773059Y-27850935D01*
X96774144Y-27839915D01*
X96775764Y-27828963D01*
X96775438Y-27826774D01*
X96775941Y-27821671D01*
X96775941Y-27321671D01*
X96775438Y-27316567D01*
X96775764Y-27314379D01*
X96774144Y-27303426D01*
X96773059Y-27292407D01*
X96772212Y-27290362D01*
X96771462Y-27285290D01*
X96700033Y-26999576D01*
X96690140Y-26971885D01*
X96683500Y-26962924D01*
X96679233Y-26952621D01*
X96660578Y-26929891D01*
X96517721Y-26787034D01*
X96506219Y-26777594D01*
X96503623Y-26774601D01*
X96499109Y-26771760D01*
X96494990Y-26768379D01*
X96491330Y-26766863D01*
X96478737Y-26758936D01*
X96335880Y-26687507D01*
X96308417Y-26676998D01*
X96303042Y-26676616D01*
X96298062Y-26674553D01*
X96268798Y-26671671D01*
X95983084Y-26671671D01*
X95953820Y-26674553D01*
X95948839Y-26676616D01*
X95943465Y-26676998D01*
X95916001Y-26687507D01*
X95773145Y-26758936D01*
X95760551Y-26766863D01*
X95756892Y-26768379D01*
X95752772Y-26771760D01*
X95748259Y-26774601D01*
X95745662Y-26777595D01*
X95734161Y-26787034D01*
X95591303Y-26929891D01*
X95572648Y-26952621D01*
X95568379Y-26962926D01*
X95561741Y-26971886D01*
X95551848Y-26999577D01*
X95480420Y-27285291D01*
X95479670Y-27290362D01*
X95478823Y-27292407D01*
X95477737Y-27303429D01*
X95476118Y-27314380D01*
X95476443Y-27316567D01*
X95475941Y-27321671D01*
X95133083Y-27321671D01*
X95133083Y-26821671D01*
X95132341Y-26814144D01*
X95132717Y-26811193D01*
X95131674Y-26807371D01*
X95130201Y-26792407D01*
X95122565Y-26773974D01*
X95117317Y-26754730D01*
X95111462Y-26747170D01*
X95107803Y-26738335D01*
X95093695Y-26724227D01*
X95081482Y-26708456D01*
X95073179Y-26703711D01*
X95066419Y-26696951D01*
X95047988Y-26689316D01*
X95030666Y-26679418D01*
X95021180Y-26678212D01*
X95012347Y-26674553D01*
X94992397Y-26674553D01*
X94972606Y-26672037D01*
X94963381Y-26674553D01*
X94953819Y-26674553D01*
X94935390Y-26682186D01*
X94916142Y-26687436D01*
X94908580Y-26693292D01*
X94899747Y-26696951D01*
X94885641Y-26711056D01*
X94869868Y-26723272D01*
X94861162Y-26735535D01*
X94858363Y-26738335D01*
X94857224Y-26741082D01*
X94852847Y-26747250D01*
X94275940Y-27756837D01*
X94275940Y-26821671D01*
X94273058Y-26792407D01*
X94250660Y-26738335D01*
X94209276Y-26696951D01*
X94155204Y-26674553D01*
X94096676Y-26674553D01*
X94042604Y-26696951D01*
X94001220Y-26738335D01*
X93978822Y-26792407D01*
X93975940Y-26821671D01*
X92266643Y-26821671D01*
X92232006Y-26787034D01*
X92220504Y-26777594D01*
X92217908Y-26774601D01*
X92213394Y-26771760D01*
X92209275Y-26768379D01*
X92205615Y-26766863D01*
X92193022Y-26758936D01*
X92050165Y-26687507D01*
X92022702Y-26676998D01*
X92017327Y-26676616D01*
X92012347Y-26674553D01*
X91983083Y-26671671D01*
X91697369Y-26671671D01*
X91668105Y-26674553D01*
X91663124Y-26676616D01*
X91657750Y-26676998D01*
X91630286Y-26687507D01*
X91487430Y-26758936D01*
X91474836Y-26766863D01*
X91471177Y-26768379D01*
X91467057Y-26771760D01*
X91462544Y-26774601D01*
X91459947Y-26777595D01*
X91448446Y-26787034D01*
X91305588Y-26929891D01*
X91286933Y-26952621D01*
X91282664Y-26962926D01*
X91276026Y-26971886D01*
X91266133Y-26999577D01*
X91194705Y-27285291D01*
X91193955Y-27290362D01*
X91193108Y-27292407D01*
X91192022Y-27303429D01*
X91190403Y-27314380D01*
X91190728Y-27316567D01*
X91190226Y-27321671D01*
X90887699Y-27321671D01*
X90842890Y-27142434D01*
X90842118Y-27140275D01*
X90842042Y-27139195D01*
X90837381Y-27127014D01*
X90832997Y-27114743D01*
X90832352Y-27113873D01*
X90831533Y-27111731D01*
X90760104Y-26968875D01*
X90752177Y-26956283D01*
X90750661Y-26952621D01*
X90747277Y-26948498D01*
X90744439Y-26943989D01*
X90741446Y-26941393D01*
X90732006Y-26929891D01*
X90589149Y-26787034D01*
X90566418Y-26768379D01*
X90561438Y-26766316D01*
X90557368Y-26762786D01*
X90530517Y-26750797D01*
X90316231Y-26679369D01*
X90301723Y-26676070D01*
X90298061Y-26674553D01*
X90292752Y-26674030D01*
X90287558Y-26672849D01*
X90283608Y-26673129D01*
X90268797Y-26671671D01*
X89911654Y-26671671D01*
X89882390Y-26674553D01*
X89828318Y-26696951D01*
X89786934Y-26738335D01*
X89764536Y-26792407D01*
X89761654Y-26821671D01*
X88275331Y-26821671D01*
X88265734Y-26767286D01*
X88234281Y-26717929D01*
X88186333Y-26684365D01*
X88129191Y-26671706D01*
X88071555Y-26681877D01*
X88022198Y-26713330D01*
X88003055Y-26735652D01*
X87547842Y-27385957D01*
X87418797Y-27385957D01*
X87418797Y-26821671D01*
X87415915Y-26792407D01*
X87393517Y-26738335D01*
X87352133Y-26696951D01*
X87298061Y-26674553D01*
X87239533Y-26674553D01*
X87185461Y-26696951D01*
X87144077Y-26738335D01*
X87121679Y-26792407D01*
X87118797Y-26821671D01*
X86773058Y-26821671D01*
X86773058Y-26792407D01*
X86750660Y-26738335D01*
X86709276Y-26696951D01*
X86655204Y-26674553D01*
X86625940Y-26671671D01*
X85911654Y-26671671D01*
X85882390Y-26674553D01*
X85828318Y-26696951D01*
X85786934Y-26738335D01*
X85764536Y-26792407D01*
X85761654Y-26821671D01*
X85347368Y-26821671D01*
X85344486Y-26792407D01*
X85322088Y-26738335D01*
X85280704Y-26696951D01*
X85226632Y-26674553D01*
X85168104Y-26674553D01*
X85114032Y-26696951D01*
X85072648Y-26738335D01*
X85050250Y-26792407D01*
X85047368Y-26821671D01*
X84703902Y-26821671D01*
X84694305Y-26767286D01*
X84662852Y-26717929D01*
X84614904Y-26684365D01*
X84557762Y-26671706D01*
X84500126Y-26681877D01*
X84450769Y-26713330D01*
X84431626Y-26735652D01*
X83976413Y-27385957D01*
X83847368Y-27385957D01*
X83847368Y-26821671D01*
X83844486Y-26792407D01*
X83822088Y-26738335D01*
X83780704Y-26696951D01*
X83726632Y-26674553D01*
X83668104Y-26674553D01*
X83614032Y-26696951D01*
X83572648Y-26738335D01*
X83550250Y-26792407D01*
X83547368Y-26821671D01*
X83203902Y-26821671D01*
X83194305Y-26767286D01*
X83162852Y-26717929D01*
X83114904Y-26684365D01*
X83057762Y-26671706D01*
X83000126Y-26681877D01*
X82950769Y-26713330D01*
X82931626Y-26735652D01*
X82476413Y-27385957D01*
X82347368Y-27385957D01*
X82347368Y-26821671D01*
X82344486Y-26792407D01*
X82322088Y-26738335D01*
X82280704Y-26696951D01*
X82226632Y-26674553D01*
X82168104Y-26674553D01*
X82114032Y-26696951D01*
X82072648Y-26738335D01*
X82050250Y-26792407D01*
X82047368Y-26821671D01*
X81844858Y-26821671D01*
X81842042Y-26782051D01*
X81815868Y-26729704D01*
X81771654Y-26691357D01*
X81716130Y-26672848D01*
X81657750Y-26676998D01*
X81605402Y-26703171D01*
X81567055Y-26747386D01*
X81555067Y-26774237D01*
X81446399Y-27100242D01*
X80948340Y-27100242D01*
X80839671Y-26774237D01*
X80827683Y-26747386D01*
X80789336Y-26703172D01*
X80736989Y-26676998D01*
X80678608Y-26672849D01*
X80623084Y-26691357D01*
X80578870Y-26729704D01*
X80552696Y-26782051D01*
X80548547Y-26840432D01*
X80285405Y-26840432D01*
X80232005Y-26787033D01*
X80220505Y-26777595D01*
X80217908Y-26774601D01*
X80213391Y-26771758D01*
X80209274Y-26768379D01*
X80205617Y-26766864D01*
X80193022Y-26758936D01*
X80050165Y-26687507D01*
X80022702Y-26676998D01*
X80017327Y-26676616D01*
X80012347Y-26674553D01*
X79983083Y-26671671D01*
X79411654Y-26671671D01*
X79382390Y-26674553D01*
X79328318Y-26696951D01*
X79286934Y-26738335D01*
X79264536Y-26792407D01*
X79261654Y-26821671D01*
X77704511Y-26821671D01*
X77703769Y-26814144D01*
X77704145Y-26811193D01*
X77703102Y-26807371D01*
X77701629Y-26792407D01*
X77693993Y-26773974D01*
X77688745Y-26754730D01*
X77682890Y-26747170D01*
X77679231Y-26738335D01*
X77665123Y-26724227D01*
X77652910Y-26708456D01*
X77644607Y-26703711D01*
X77637847Y-26696951D01*
X77619416Y-26689316D01*
X77602094Y-26679418D01*
X77592608Y-26678212D01*
X77583775Y-26674553D01*
X77563825Y-26674553D01*
X77544034Y-26672037D01*
X77534809Y-26674553D01*
X77525247Y-26674553D01*
X77506818Y-26682186D01*
X77487570Y-26687436D01*
X77480008Y-26693292D01*
X77471175Y-26696951D01*
X77457069Y-26711056D01*
X77441296Y-26723272D01*
X77432590Y-26735535D01*
X77429791Y-26738335D01*
X77428652Y-26741082D01*
X77424275Y-26747250D01*
X76847368Y-27756837D01*
X76847368Y-26821671D01*
X76844486Y-26792407D01*
X76822088Y-26738335D01*
X76780704Y-26696951D01*
X76726632Y-26674553D01*
X76668104Y-26674553D01*
X76614032Y-26696951D01*
X76572648Y-26738335D01*
X76550250Y-26792407D01*
X76547368Y-26821671D01*
X75980928Y-26821671D01*
X75946291Y-26787034D01*
X75934789Y-26777594D01*
X75932193Y-26774601D01*
X75927679Y-26771760D01*
X75923560Y-26768379D01*
X75919900Y-26766863D01*
X75907307Y-26758936D01*
X75764450Y-26687507D01*
X75736987Y-26676998D01*
X75731612Y-26676616D01*
X75726632Y-26674553D01*
X75697368Y-26671671D01*
X75411654Y-26671671D01*
X75382390Y-26674553D01*
X75377409Y-26676616D01*
X75372035Y-26676998D01*
X75344571Y-26687507D01*
X75201715Y-26758936D01*
X75189121Y-26766863D01*
X75185462Y-26768379D01*
X75181342Y-26771760D01*
X75176829Y-26774601D01*
X75174232Y-26777595D01*
X75162731Y-26787034D01*
X75019873Y-26929891D01*
X75001218Y-26952621D01*
X74996949Y-26962926D01*
X74990311Y-26971886D01*
X74980418Y-26999577D01*
X74908990Y-27285291D01*
X74908240Y-27290362D01*
X74907393Y-27292407D01*
X74906307Y-27303429D01*
X74904688Y-27314380D01*
X74905013Y-27316567D01*
X74904511Y-27321671D01*
X74561653Y-27321671D01*
X74561653Y-26821671D01*
X74558771Y-26792407D01*
X74536373Y-26738335D01*
X74494989Y-26696951D01*
X74440917Y-26674553D01*
X74382389Y-26674553D01*
X74328317Y-26696951D01*
X74286933Y-26738335D01*
X74264535Y-26792407D01*
X74261653Y-26821671D01*
X73633082Y-26821671D01*
X73630200Y-26792407D01*
X73607802Y-26738335D01*
X73566418Y-26696951D01*
X73512346Y-26674553D01*
X73453818Y-26674553D01*
X73399746Y-26696951D01*
X73358362Y-26738335D01*
X73335964Y-26792407D01*
X73333082Y-26821671D01*
X73333082Y-28171671D01*
X73054511Y-28171671D01*
X73025247Y-28174553D01*
X72971175Y-28196951D01*
X72929791Y-28238335D01*
X72907393Y-28292407D01*
X72436665Y-28292407D01*
X72911100Y-26869105D01*
X72917620Y-26840431D01*
X72913470Y-26782051D01*
X72887296Y-26729704D01*
X72843082Y-26691357D01*
X72787558Y-26672848D01*
X72729178Y-26676998D01*
X72676830Y-26703171D01*
X72638483Y-26747386D01*
X72626495Y-26774237D01*
X72517827Y-27100242D01*
X72019768Y-27100242D01*
X71911099Y-26774237D01*
X71899111Y-26747386D01*
X71860764Y-26703172D01*
X71808417Y-26676998D01*
X71750036Y-26672849D01*
X71694512Y-26691357D01*
X71650298Y-26729704D01*
X71625100Y-26780097D01*
X71607802Y-26738335D01*
X71566418Y-26696951D01*
X71512346Y-26674553D01*
X71483082Y-26671671D01*
X70768796Y-26671671D01*
X70739532Y-26674553D01*
X70685460Y-26696951D01*
X70644076Y-26738335D01*
X70621678Y-26792407D01*
X70618796Y-26821671D01*
X70052356Y-26821671D01*
X70017719Y-26787034D01*
X70006217Y-26777594D01*
X70003621Y-26774601D01*
X69999107Y-26771760D01*
X69994988Y-26768379D01*
X69991328Y-26766863D01*
X69978735Y-26758936D01*
X69835878Y-26687507D01*
X69808415Y-26676998D01*
X69803040Y-26676616D01*
X69798060Y-26674553D01*
X69768796Y-26671671D01*
X69483082Y-26671671D01*
X69453818Y-26674553D01*
X69448837Y-26676616D01*
X69443463Y-26676998D01*
X69415999Y-26687507D01*
X69273143Y-26758936D01*
X69260549Y-26766863D01*
X69256890Y-26768379D01*
X69252770Y-26771760D01*
X69248257Y-26774601D01*
X69245660Y-26777595D01*
X69234159Y-26787034D01*
X69091301Y-26929891D01*
X69072646Y-26952621D01*
X69068377Y-26962926D01*
X69061739Y-26971886D01*
X69051846Y-26999577D01*
X68980418Y-27285291D01*
X68979668Y-27290362D01*
X68978821Y-27292407D01*
X68977735Y-27303429D01*
X68976116Y-27314380D01*
X68976441Y-27316567D01*
X68975939Y-27321671D01*
X68686502Y-27321671D01*
X68688675Y-27317324D01*
X68699185Y-27289861D01*
X68699567Y-27284483D01*
X68701629Y-27279506D01*
X68704511Y-27250242D01*
X68704511Y-27107385D01*
X68701629Y-27078121D01*
X68699565Y-27073140D01*
X68699184Y-27067766D01*
X68688675Y-27040302D01*
X68617246Y-26897446D01*
X68609319Y-26884854D01*
X68607803Y-26881192D01*
X68604419Y-26877069D01*
X68601581Y-26872560D01*
X68598588Y-26869964D01*
X68589148Y-26858462D01*
X68517720Y-26787034D01*
X68506218Y-26777594D01*
X68503622Y-26774601D01*
X68499108Y-26771760D01*
X68494989Y-26768379D01*
X68491329Y-26766863D01*
X68478736Y-26758936D01*
X68335878Y-26687507D01*
X68308415Y-26676997D01*
X68303037Y-26676614D01*
X68298060Y-26674553D01*
X68268796Y-26671671D01*
X67911654Y-26671671D01*
X67896842Y-26673129D01*
X67892893Y-26672849D01*
X67887698Y-26674030D01*
X67882390Y-26674553D01*
X67878728Y-26676069D01*
X67864219Y-26679369D01*
X67649934Y-26750798D01*
X67623083Y-26762786D01*
X67578868Y-26801134D01*
X67552695Y-26853481D01*
X67548546Y-26911861D01*
X67567054Y-26967385D01*
X67605402Y-27011600D01*
X67657749Y-27037773D01*
X67716129Y-27041922D01*
X67744802Y-27035402D01*
X67935997Y-26971671D01*
X68233386Y-26971671D01*
X68322800Y-27016378D01*
X68359804Y-27053382D01*
X68404511Y-27142795D01*
X68404511Y-27214832D01*
X68359804Y-27304246D01*
X68322800Y-27341250D01*
X68216440Y-27394429D01*
X67946702Y-27461864D01*
X67944543Y-27462635D01*
X67943463Y-27462712D01*
X67931282Y-27467372D01*
X67919011Y-27471757D01*
X67918141Y-27472401D01*
X67915999Y-27473221D01*
X67773143Y-27544650D01*
X67760549Y-27552577D01*
X67756890Y-27554093D01*
X67752769Y-27557474D01*
X67748257Y-27560315D01*
X67745660Y-27563308D01*
X67734160Y-27572747D01*
X67662731Y-27644175D01*
X67653288Y-27655680D01*
X67650297Y-27658275D01*
X67647457Y-27662785D01*
X67644076Y-27666906D01*
X67642560Y-27670565D01*
X67634632Y-27683160D01*
X67563204Y-27826019D01*
X67552694Y-27853482D01*
X67552312Y-27858857D01*
X67550250Y-27863836D01*
X67547368Y-27893100D01*
X67204510Y-27893100D01*
X67204510Y-26821671D01*
X67201628Y-26792407D01*
X67179230Y-26738335D01*
X67137846Y-26696951D01*
X67083774Y-26674553D01*
X67025246Y-26674553D01*
X66971174Y-26696951D01*
X66929790Y-26738335D01*
X66907392Y-26792407D01*
X66904510Y-26821671D01*
X66737843Y-26821671D01*
X66737843Y-26505004D01*
X106656894Y-26505004D01*
X106656894Y-28638338D01*
G37*
D12*
X161659580Y-31794642D02*
X161707200Y-31747023D01*
X161707200Y-31747023D02*
X161754819Y-31604166D01*
X161754819Y-31604166D02*
X161754819Y-31508928D01*
X161754819Y-31508928D02*
X161707200Y-31366071D01*
X161707200Y-31366071D02*
X161611961Y-31270833D01*
X161611961Y-31270833D02*
X161516723Y-31223214D01*
X161516723Y-31223214D02*
X161326247Y-31175595D01*
X161326247Y-31175595D02*
X161183390Y-31175595D01*
X161183390Y-31175595D02*
X160992914Y-31223214D01*
X160992914Y-31223214D02*
X160897676Y-31270833D01*
X160897676Y-31270833D02*
X160802438Y-31366071D01*
X160802438Y-31366071D02*
X160754819Y-31508928D01*
X160754819Y-31508928D02*
X160754819Y-31604166D01*
X160754819Y-31604166D02*
X160802438Y-31747023D01*
X160802438Y-31747023D02*
X160850057Y-31794642D01*
X160754819Y-32127976D02*
X160754819Y-32747023D01*
X160754819Y-32747023D02*
X161135771Y-32413690D01*
X161135771Y-32413690D02*
X161135771Y-32556547D01*
X161135771Y-32556547D02*
X161183390Y-32651785D01*
X161183390Y-32651785D02*
X161231009Y-32699404D01*
X161231009Y-32699404D02*
X161326247Y-32747023D01*
X161326247Y-32747023D02*
X161564342Y-32747023D01*
X161564342Y-32747023D02*
X161659580Y-32699404D01*
X161659580Y-32699404D02*
X161707200Y-32651785D01*
X161707200Y-32651785D02*
X161754819Y-32556547D01*
X161754819Y-32556547D02*
X161754819Y-32270833D01*
X161754819Y-32270833D02*
X161707200Y-32175595D01*
X161707200Y-32175595D02*
X161659580Y-32127976D01*
X161754819Y-33223214D02*
X161754819Y-33413690D01*
X161754819Y-33413690D02*
X161707200Y-33508928D01*
X161707200Y-33508928D02*
X161659580Y-33556547D01*
X161659580Y-33556547D02*
X161516723Y-33651785D01*
X161516723Y-33651785D02*
X161326247Y-33699404D01*
X161326247Y-33699404D02*
X160945295Y-33699404D01*
X160945295Y-33699404D02*
X160850057Y-33651785D01*
X160850057Y-33651785D02*
X160802438Y-33604166D01*
X160802438Y-33604166D02*
X160754819Y-33508928D01*
X160754819Y-33508928D02*
X160754819Y-33318452D01*
X160754819Y-33318452D02*
X160802438Y-33223214D01*
X160802438Y-33223214D02*
X160850057Y-33175595D01*
X160850057Y-33175595D02*
X160945295Y-33127976D01*
X160945295Y-33127976D02*
X161183390Y-33127976D01*
X161183390Y-33127976D02*
X161278628Y-33175595D01*
X161278628Y-33175595D02*
X161326247Y-33223214D01*
X161326247Y-33223214D02*
X161373866Y-33318452D01*
X161373866Y-33318452D02*
X161373866Y-33508928D01*
X161373866Y-33508928D02*
X161326247Y-33604166D01*
X161326247Y-33604166D02*
X161278628Y-33651785D01*
X161278628Y-33651785D02*
X161183390Y-33699404D01*
X71409580Y-32083333D02*
X71457200Y-32035714D01*
X71457200Y-32035714D02*
X71504819Y-31892857D01*
X71504819Y-31892857D02*
X71504819Y-31797619D01*
X71504819Y-31797619D02*
X71457200Y-31654762D01*
X71457200Y-31654762D02*
X71361961Y-31559524D01*
X71361961Y-31559524D02*
X71266723Y-31511905D01*
X71266723Y-31511905D02*
X71076247Y-31464286D01*
X71076247Y-31464286D02*
X70933390Y-31464286D01*
X70933390Y-31464286D02*
X70742914Y-31511905D01*
X70742914Y-31511905D02*
X70647676Y-31559524D01*
X70647676Y-31559524D02*
X70552438Y-31654762D01*
X70552438Y-31654762D02*
X70504819Y-31797619D01*
X70504819Y-31797619D02*
X70504819Y-31892857D01*
X70504819Y-31892857D02*
X70552438Y-32035714D01*
X70552438Y-32035714D02*
X70600057Y-32083333D01*
X70504819Y-32416667D02*
X70504819Y-33035714D01*
X70504819Y-33035714D02*
X70885771Y-32702381D01*
X70885771Y-32702381D02*
X70885771Y-32845238D01*
X70885771Y-32845238D02*
X70933390Y-32940476D01*
X70933390Y-32940476D02*
X70981009Y-32988095D01*
X70981009Y-32988095D02*
X71076247Y-33035714D01*
X71076247Y-33035714D02*
X71314342Y-33035714D01*
X71314342Y-33035714D02*
X71409580Y-32988095D01*
X71409580Y-32988095D02*
X71457200Y-32940476D01*
X71457200Y-32940476D02*
X71504819Y-32845238D01*
X71504819Y-32845238D02*
X71504819Y-32559524D01*
X71504819Y-32559524D02*
X71457200Y-32464286D01*
X71457200Y-32464286D02*
X71409580Y-32416667D01*
X215059580Y-21357142D02*
X215107200Y-21309523D01*
X215107200Y-21309523D02*
X215154819Y-21166666D01*
X215154819Y-21166666D02*
X215154819Y-21071428D01*
X215154819Y-21071428D02*
X215107200Y-20928571D01*
X215107200Y-20928571D02*
X215011961Y-20833333D01*
X215011961Y-20833333D02*
X214916723Y-20785714D01*
X214916723Y-20785714D02*
X214726247Y-20738095D01*
X214726247Y-20738095D02*
X214583390Y-20738095D01*
X214583390Y-20738095D02*
X214392914Y-20785714D01*
X214392914Y-20785714D02*
X214297676Y-20833333D01*
X214297676Y-20833333D02*
X214202438Y-20928571D01*
X214202438Y-20928571D02*
X214154819Y-21071428D01*
X214154819Y-21071428D02*
X214154819Y-21166666D01*
X214154819Y-21166666D02*
X214202438Y-21309523D01*
X214202438Y-21309523D02*
X214250057Y-21357142D01*
X214154819Y-22261904D02*
X214154819Y-21785714D01*
X214154819Y-21785714D02*
X214631009Y-21738095D01*
X214631009Y-21738095D02*
X214583390Y-21785714D01*
X214583390Y-21785714D02*
X214535771Y-21880952D01*
X214535771Y-21880952D02*
X214535771Y-22119047D01*
X214535771Y-22119047D02*
X214583390Y-22214285D01*
X214583390Y-22214285D02*
X214631009Y-22261904D01*
X214631009Y-22261904D02*
X214726247Y-22309523D01*
X214726247Y-22309523D02*
X214964342Y-22309523D01*
X214964342Y-22309523D02*
X215059580Y-22261904D01*
X215059580Y-22261904D02*
X215107200Y-22214285D01*
X215107200Y-22214285D02*
X215154819Y-22119047D01*
X215154819Y-22119047D02*
X215154819Y-21880952D01*
X215154819Y-21880952D02*
X215107200Y-21785714D01*
X215107200Y-21785714D02*
X215059580Y-21738095D01*
X215154819Y-22785714D02*
X215154819Y-22976190D01*
X215154819Y-22976190D02*
X215107200Y-23071428D01*
X215107200Y-23071428D02*
X215059580Y-23119047D01*
X215059580Y-23119047D02*
X214916723Y-23214285D01*
X214916723Y-23214285D02*
X214726247Y-23261904D01*
X214726247Y-23261904D02*
X214345295Y-23261904D01*
X214345295Y-23261904D02*
X214250057Y-23214285D01*
X214250057Y-23214285D02*
X214202438Y-23166666D01*
X214202438Y-23166666D02*
X214154819Y-23071428D01*
X214154819Y-23071428D02*
X214154819Y-22880952D01*
X214154819Y-22880952D02*
X214202438Y-22785714D01*
X214202438Y-22785714D02*
X214250057Y-22738095D01*
X214250057Y-22738095D02*
X214345295Y-22690476D01*
X214345295Y-22690476D02*
X214583390Y-22690476D01*
X214583390Y-22690476D02*
X214678628Y-22738095D01*
X214678628Y-22738095D02*
X214726247Y-22785714D01*
X214726247Y-22785714D02*
X214773866Y-22880952D01*
X214773866Y-22880952D02*
X214773866Y-23071428D01*
X214773866Y-23071428D02*
X214726247Y-23166666D01*
X214726247Y-23166666D02*
X214678628Y-23214285D01*
X214678628Y-23214285D02*
X214583390Y-23261904D01*
X229659580Y-22357142D02*
X229707200Y-22309523D01*
X229707200Y-22309523D02*
X229754819Y-22166666D01*
X229754819Y-22166666D02*
X229754819Y-22071428D01*
X229754819Y-22071428D02*
X229707200Y-21928571D01*
X229707200Y-21928571D02*
X229611961Y-21833333D01*
X229611961Y-21833333D02*
X229516723Y-21785714D01*
X229516723Y-21785714D02*
X229326247Y-21738095D01*
X229326247Y-21738095D02*
X229183390Y-21738095D01*
X229183390Y-21738095D02*
X228992914Y-21785714D01*
X228992914Y-21785714D02*
X228897676Y-21833333D01*
X228897676Y-21833333D02*
X228802438Y-21928571D01*
X228802438Y-21928571D02*
X228754819Y-22071428D01*
X228754819Y-22071428D02*
X228754819Y-22166666D01*
X228754819Y-22166666D02*
X228802438Y-22309523D01*
X228802438Y-22309523D02*
X228850057Y-22357142D01*
X228754819Y-23214285D02*
X228754819Y-23023809D01*
X228754819Y-23023809D02*
X228802438Y-22928571D01*
X228802438Y-22928571D02*
X228850057Y-22880952D01*
X228850057Y-22880952D02*
X228992914Y-22785714D01*
X228992914Y-22785714D02*
X229183390Y-22738095D01*
X229183390Y-22738095D02*
X229564342Y-22738095D01*
X229564342Y-22738095D02*
X229659580Y-22785714D01*
X229659580Y-22785714D02*
X229707200Y-22833333D01*
X229707200Y-22833333D02*
X229754819Y-22928571D01*
X229754819Y-22928571D02*
X229754819Y-23119047D01*
X229754819Y-23119047D02*
X229707200Y-23214285D01*
X229707200Y-23214285D02*
X229659580Y-23261904D01*
X229659580Y-23261904D02*
X229564342Y-23309523D01*
X229564342Y-23309523D02*
X229326247Y-23309523D01*
X229326247Y-23309523D02*
X229231009Y-23261904D01*
X229231009Y-23261904D02*
X229183390Y-23214285D01*
X229183390Y-23214285D02*
X229135771Y-23119047D01*
X229135771Y-23119047D02*
X229135771Y-22928571D01*
X229135771Y-22928571D02*
X229183390Y-22833333D01*
X229183390Y-22833333D02*
X229231009Y-22785714D01*
X229231009Y-22785714D02*
X229326247Y-22738095D01*
X228754819Y-23642857D02*
X228754819Y-24309523D01*
X228754819Y-24309523D02*
X229754819Y-23880952D01*
X247059580Y-21357142D02*
X247107200Y-21309523D01*
X247107200Y-21309523D02*
X247154819Y-21166666D01*
X247154819Y-21166666D02*
X247154819Y-21071428D01*
X247154819Y-21071428D02*
X247107200Y-20928571D01*
X247107200Y-20928571D02*
X247011961Y-20833333D01*
X247011961Y-20833333D02*
X246916723Y-20785714D01*
X246916723Y-20785714D02*
X246726247Y-20738095D01*
X246726247Y-20738095D02*
X246583390Y-20738095D01*
X246583390Y-20738095D02*
X246392914Y-20785714D01*
X246392914Y-20785714D02*
X246297676Y-20833333D01*
X246297676Y-20833333D02*
X246202438Y-20928571D01*
X246202438Y-20928571D02*
X246154819Y-21071428D01*
X246154819Y-21071428D02*
X246154819Y-21166666D01*
X246154819Y-21166666D02*
X246202438Y-21309523D01*
X246202438Y-21309523D02*
X246250057Y-21357142D01*
X246154819Y-21690476D02*
X246154819Y-22357142D01*
X246154819Y-22357142D02*
X247154819Y-21928571D01*
X247154819Y-23261904D02*
X247154819Y-22690476D01*
X247154819Y-22976190D02*
X246154819Y-22976190D01*
X246154819Y-22976190D02*
X246297676Y-22880952D01*
X246297676Y-22880952D02*
X246392914Y-22785714D01*
X246392914Y-22785714D02*
X246440533Y-22690476D01*
X30642857Y-39659580D02*
X30690476Y-39707200D01*
X30690476Y-39707200D02*
X30833333Y-39754819D01*
X30833333Y-39754819D02*
X30928571Y-39754819D01*
X30928571Y-39754819D02*
X31071428Y-39707200D01*
X31071428Y-39707200D02*
X31166666Y-39611961D01*
X31166666Y-39611961D02*
X31214285Y-39516723D01*
X31214285Y-39516723D02*
X31261904Y-39326247D01*
X31261904Y-39326247D02*
X31261904Y-39183390D01*
X31261904Y-39183390D02*
X31214285Y-38992914D01*
X31214285Y-38992914D02*
X31166666Y-38897676D01*
X31166666Y-38897676D02*
X31071428Y-38802438D01*
X31071428Y-38802438D02*
X30928571Y-38754819D01*
X30928571Y-38754819D02*
X30833333Y-38754819D01*
X30833333Y-38754819D02*
X30690476Y-38802438D01*
X30690476Y-38802438D02*
X30642857Y-38850057D01*
X30261904Y-38850057D02*
X30214285Y-38802438D01*
X30214285Y-38802438D02*
X30119047Y-38754819D01*
X30119047Y-38754819D02*
X29880952Y-38754819D01*
X29880952Y-38754819D02*
X29785714Y-38802438D01*
X29785714Y-38802438D02*
X29738095Y-38850057D01*
X29738095Y-38850057D02*
X29690476Y-38945295D01*
X29690476Y-38945295D02*
X29690476Y-39040533D01*
X29690476Y-39040533D02*
X29738095Y-39183390D01*
X29738095Y-39183390D02*
X30309523Y-39754819D01*
X30309523Y-39754819D02*
X29690476Y-39754819D01*
X29357142Y-38754819D02*
X28690476Y-38754819D01*
X28690476Y-38754819D02*
X29119047Y-39754819D01*
X138392857Y-25659580D02*
X138440476Y-25707200D01*
X138440476Y-25707200D02*
X138583333Y-25754819D01*
X138583333Y-25754819D02*
X138678571Y-25754819D01*
X138678571Y-25754819D02*
X138821428Y-25707200D01*
X138821428Y-25707200D02*
X138916666Y-25611961D01*
X138916666Y-25611961D02*
X138964285Y-25516723D01*
X138964285Y-25516723D02*
X139011904Y-25326247D01*
X139011904Y-25326247D02*
X139011904Y-25183390D01*
X139011904Y-25183390D02*
X138964285Y-24992914D01*
X138964285Y-24992914D02*
X138916666Y-24897676D01*
X138916666Y-24897676D02*
X138821428Y-24802438D01*
X138821428Y-24802438D02*
X138678571Y-24754819D01*
X138678571Y-24754819D02*
X138583333Y-24754819D01*
X138583333Y-24754819D02*
X138440476Y-24802438D01*
X138440476Y-24802438D02*
X138392857Y-24850057D01*
X137535714Y-25088152D02*
X137535714Y-25754819D01*
X137773809Y-24707200D02*
X138011904Y-25421485D01*
X138011904Y-25421485D02*
X137392857Y-25421485D01*
X137107142Y-24754819D02*
X136488095Y-24754819D01*
X136488095Y-24754819D02*
X136821428Y-25135771D01*
X136821428Y-25135771D02*
X136678571Y-25135771D01*
X136678571Y-25135771D02*
X136583333Y-25183390D01*
X136583333Y-25183390D02*
X136535714Y-25231009D01*
X136535714Y-25231009D02*
X136488095Y-25326247D01*
X136488095Y-25326247D02*
X136488095Y-25564342D01*
X136488095Y-25564342D02*
X136535714Y-25659580D01*
X136535714Y-25659580D02*
X136583333Y-25707200D01*
X136583333Y-25707200D02*
X136678571Y-25754819D01*
X136678571Y-25754819D02*
X136964285Y-25754819D01*
X136964285Y-25754819D02*
X137059523Y-25707200D01*
X137059523Y-25707200D02*
X137107142Y-25659580D01*
X36642857Y-12059580D02*
X36690476Y-12107200D01*
X36690476Y-12107200D02*
X36833333Y-12154819D01*
X36833333Y-12154819D02*
X36928571Y-12154819D01*
X36928571Y-12154819D02*
X37071428Y-12107200D01*
X37071428Y-12107200D02*
X37166666Y-12011961D01*
X37166666Y-12011961D02*
X37214285Y-11916723D01*
X37214285Y-11916723D02*
X37261904Y-11726247D01*
X37261904Y-11726247D02*
X37261904Y-11583390D01*
X37261904Y-11583390D02*
X37214285Y-11392914D01*
X37214285Y-11392914D02*
X37166666Y-11297676D01*
X37166666Y-11297676D02*
X37071428Y-11202438D01*
X37071428Y-11202438D02*
X36928571Y-11154819D01*
X36928571Y-11154819D02*
X36833333Y-11154819D01*
X36833333Y-11154819D02*
X36690476Y-11202438D01*
X36690476Y-11202438D02*
X36642857Y-11250057D01*
X36309523Y-11154819D02*
X35690476Y-11154819D01*
X35690476Y-11154819D02*
X36023809Y-11535771D01*
X36023809Y-11535771D02*
X35880952Y-11535771D01*
X35880952Y-11535771D02*
X35785714Y-11583390D01*
X35785714Y-11583390D02*
X35738095Y-11631009D01*
X35738095Y-11631009D02*
X35690476Y-11726247D01*
X35690476Y-11726247D02*
X35690476Y-11964342D01*
X35690476Y-11964342D02*
X35738095Y-12059580D01*
X35738095Y-12059580D02*
X35785714Y-12107200D01*
X35785714Y-12107200D02*
X35880952Y-12154819D01*
X35880952Y-12154819D02*
X36166666Y-12154819D01*
X36166666Y-12154819D02*
X36261904Y-12107200D01*
X36261904Y-12107200D02*
X36309523Y-12059580D01*
X35357142Y-11154819D02*
X34690476Y-11154819D01*
X34690476Y-11154819D02*
X35119047Y-12154819D01*
X159642857Y-12059580D02*
X159690476Y-12107200D01*
X159690476Y-12107200D02*
X159833333Y-12154819D01*
X159833333Y-12154819D02*
X159928571Y-12154819D01*
X159928571Y-12154819D02*
X160071428Y-12107200D01*
X160071428Y-12107200D02*
X160166666Y-12011961D01*
X160166666Y-12011961D02*
X160214285Y-11916723D01*
X160214285Y-11916723D02*
X160261904Y-11726247D01*
X160261904Y-11726247D02*
X160261904Y-11583390D01*
X160261904Y-11583390D02*
X160214285Y-11392914D01*
X160214285Y-11392914D02*
X160166666Y-11297676D01*
X160166666Y-11297676D02*
X160071428Y-11202438D01*
X160071428Y-11202438D02*
X159928571Y-11154819D01*
X159928571Y-11154819D02*
X159833333Y-11154819D01*
X159833333Y-11154819D02*
X159690476Y-11202438D01*
X159690476Y-11202438D02*
X159642857Y-11250057D01*
X158785714Y-11488152D02*
X158785714Y-12154819D01*
X159023809Y-11107200D02*
X159261904Y-11821485D01*
X159261904Y-11821485D02*
X158642857Y-11821485D01*
X158214285Y-12154819D02*
X158023809Y-12154819D01*
X158023809Y-12154819D02*
X157928571Y-12107200D01*
X157928571Y-12107200D02*
X157880952Y-12059580D01*
X157880952Y-12059580D02*
X157785714Y-11916723D01*
X157785714Y-11916723D02*
X157738095Y-11726247D01*
X157738095Y-11726247D02*
X157738095Y-11345295D01*
X157738095Y-11345295D02*
X157785714Y-11250057D01*
X157785714Y-11250057D02*
X157833333Y-11202438D01*
X157833333Y-11202438D02*
X157928571Y-11154819D01*
X157928571Y-11154819D02*
X158119047Y-11154819D01*
X158119047Y-11154819D02*
X158214285Y-11202438D01*
X158214285Y-11202438D02*
X158261904Y-11250057D01*
X158261904Y-11250057D02*
X158309523Y-11345295D01*
X158309523Y-11345295D02*
X158309523Y-11583390D01*
X158309523Y-11583390D02*
X158261904Y-11678628D01*
X158261904Y-11678628D02*
X158214285Y-11726247D01*
X158214285Y-11726247D02*
X158119047Y-11773866D01*
X158119047Y-11773866D02*
X157928571Y-11773866D01*
X157928571Y-11773866D02*
X157833333Y-11726247D01*
X157833333Y-11726247D02*
X157785714Y-11678628D01*
X157785714Y-11678628D02*
X157738095Y-11583390D01*
X253059580Y-21357142D02*
X253107200Y-21309523D01*
X253107200Y-21309523D02*
X253154819Y-21166666D01*
X253154819Y-21166666D02*
X253154819Y-21071428D01*
X253154819Y-21071428D02*
X253107200Y-20928571D01*
X253107200Y-20928571D02*
X253011961Y-20833333D01*
X253011961Y-20833333D02*
X252916723Y-20785714D01*
X252916723Y-20785714D02*
X252726247Y-20738095D01*
X252726247Y-20738095D02*
X252583390Y-20738095D01*
X252583390Y-20738095D02*
X252392914Y-20785714D01*
X252392914Y-20785714D02*
X252297676Y-20833333D01*
X252297676Y-20833333D02*
X252202438Y-20928571D01*
X252202438Y-20928571D02*
X252154819Y-21071428D01*
X252154819Y-21071428D02*
X252154819Y-21166666D01*
X252154819Y-21166666D02*
X252202438Y-21309523D01*
X252202438Y-21309523D02*
X252250057Y-21357142D01*
X252154819Y-22214285D02*
X252154819Y-22023809D01*
X252154819Y-22023809D02*
X252202438Y-21928571D01*
X252202438Y-21928571D02*
X252250057Y-21880952D01*
X252250057Y-21880952D02*
X252392914Y-21785714D01*
X252392914Y-21785714D02*
X252583390Y-21738095D01*
X252583390Y-21738095D02*
X252964342Y-21738095D01*
X252964342Y-21738095D02*
X253059580Y-21785714D01*
X253059580Y-21785714D02*
X253107200Y-21833333D01*
X253107200Y-21833333D02*
X253154819Y-21928571D01*
X253154819Y-21928571D02*
X253154819Y-22119047D01*
X253154819Y-22119047D02*
X253107200Y-22214285D01*
X253107200Y-22214285D02*
X253059580Y-22261904D01*
X253059580Y-22261904D02*
X252964342Y-22309523D01*
X252964342Y-22309523D02*
X252726247Y-22309523D01*
X252726247Y-22309523D02*
X252631009Y-22261904D01*
X252631009Y-22261904D02*
X252583390Y-22214285D01*
X252583390Y-22214285D02*
X252535771Y-22119047D01*
X252535771Y-22119047D02*
X252535771Y-21928571D01*
X252535771Y-21928571D02*
X252583390Y-21833333D01*
X252583390Y-21833333D02*
X252631009Y-21785714D01*
X252631009Y-21785714D02*
X252726247Y-21738095D01*
X252583390Y-22880952D02*
X252535771Y-22785714D01*
X252535771Y-22785714D02*
X252488152Y-22738095D01*
X252488152Y-22738095D02*
X252392914Y-22690476D01*
X252392914Y-22690476D02*
X252345295Y-22690476D01*
X252345295Y-22690476D02*
X252250057Y-22738095D01*
X252250057Y-22738095D02*
X252202438Y-22785714D01*
X252202438Y-22785714D02*
X252154819Y-22880952D01*
X252154819Y-22880952D02*
X252154819Y-23071428D01*
X252154819Y-23071428D02*
X252202438Y-23166666D01*
X252202438Y-23166666D02*
X252250057Y-23214285D01*
X252250057Y-23214285D02*
X252345295Y-23261904D01*
X252345295Y-23261904D02*
X252392914Y-23261904D01*
X252392914Y-23261904D02*
X252488152Y-23214285D01*
X252488152Y-23214285D02*
X252535771Y-23166666D01*
X252535771Y-23166666D02*
X252583390Y-23071428D01*
X252583390Y-23071428D02*
X252583390Y-22880952D01*
X252583390Y-22880952D02*
X252631009Y-22785714D01*
X252631009Y-22785714D02*
X252678628Y-22738095D01*
X252678628Y-22738095D02*
X252773866Y-22690476D01*
X252773866Y-22690476D02*
X252964342Y-22690476D01*
X252964342Y-22690476D02*
X253059580Y-22738095D01*
X253059580Y-22738095D02*
X253107200Y-22785714D01*
X253107200Y-22785714D02*
X253154819Y-22880952D01*
X253154819Y-22880952D02*
X253154819Y-23071428D01*
X253154819Y-23071428D02*
X253107200Y-23166666D01*
X253107200Y-23166666D02*
X253059580Y-23214285D01*
X253059580Y-23214285D02*
X252964342Y-23261904D01*
X252964342Y-23261904D02*
X252773866Y-23261904D01*
X252773866Y-23261904D02*
X252678628Y-23214285D01*
X252678628Y-23214285D02*
X252631009Y-23166666D01*
X252631009Y-23166666D02*
X252583390Y-23071428D01*
X127642857Y-35159580D02*
X127690476Y-35207200D01*
X127690476Y-35207200D02*
X127833333Y-35254819D01*
X127833333Y-35254819D02*
X127928571Y-35254819D01*
X127928571Y-35254819D02*
X128071428Y-35207200D01*
X128071428Y-35207200D02*
X128166666Y-35111961D01*
X128166666Y-35111961D02*
X128214285Y-35016723D01*
X128214285Y-35016723D02*
X128261904Y-34826247D01*
X128261904Y-34826247D02*
X128261904Y-34683390D01*
X128261904Y-34683390D02*
X128214285Y-34492914D01*
X128214285Y-34492914D02*
X128166666Y-34397676D01*
X128166666Y-34397676D02*
X128071428Y-34302438D01*
X128071428Y-34302438D02*
X127928571Y-34254819D01*
X127928571Y-34254819D02*
X127833333Y-34254819D01*
X127833333Y-34254819D02*
X127690476Y-34302438D01*
X127690476Y-34302438D02*
X127642857Y-34350057D01*
X126690476Y-35254819D02*
X127261904Y-35254819D01*
X126976190Y-35254819D02*
X126976190Y-34254819D01*
X126976190Y-34254819D02*
X127071428Y-34397676D01*
X127071428Y-34397676D02*
X127166666Y-34492914D01*
X127166666Y-34492914D02*
X127261904Y-34540533D01*
X125785714Y-34254819D02*
X126261904Y-34254819D01*
X126261904Y-34254819D02*
X126309523Y-34731009D01*
X126309523Y-34731009D02*
X126261904Y-34683390D01*
X126261904Y-34683390D02*
X126166666Y-34635771D01*
X126166666Y-34635771D02*
X125928571Y-34635771D01*
X125928571Y-34635771D02*
X125833333Y-34683390D01*
X125833333Y-34683390D02*
X125785714Y-34731009D01*
X125785714Y-34731009D02*
X125738095Y-34826247D01*
X125738095Y-34826247D02*
X125738095Y-35064342D01*
X125738095Y-35064342D02*
X125785714Y-35159580D01*
X125785714Y-35159580D02*
X125833333Y-35207200D01*
X125833333Y-35207200D02*
X125928571Y-35254819D01*
X125928571Y-35254819D02*
X126166666Y-35254819D01*
X126166666Y-35254819D02*
X126261904Y-35207200D01*
X126261904Y-35207200D02*
X126309523Y-35159580D01*
X50159580Y-21895833D02*
X50207200Y-21848214D01*
X50207200Y-21848214D02*
X50254819Y-21705357D01*
X50254819Y-21705357D02*
X50254819Y-21610119D01*
X50254819Y-21610119D02*
X50207200Y-21467262D01*
X50207200Y-21467262D02*
X50111961Y-21372024D01*
X50111961Y-21372024D02*
X50016723Y-21324405D01*
X50016723Y-21324405D02*
X49826247Y-21276786D01*
X49826247Y-21276786D02*
X49683390Y-21276786D01*
X49683390Y-21276786D02*
X49492914Y-21324405D01*
X49492914Y-21324405D02*
X49397676Y-21372024D01*
X49397676Y-21372024D02*
X49302438Y-21467262D01*
X49302438Y-21467262D02*
X49254819Y-21610119D01*
X49254819Y-21610119D02*
X49254819Y-21705357D01*
X49254819Y-21705357D02*
X49302438Y-21848214D01*
X49302438Y-21848214D02*
X49350057Y-21895833D01*
X49254819Y-22229167D02*
X49254819Y-22895833D01*
X49254819Y-22895833D02*
X50254819Y-22467262D01*
X235416666Y-42704819D02*
X235749999Y-42228628D01*
X235988094Y-42704819D02*
X235988094Y-41704819D01*
X235988094Y-41704819D02*
X235607142Y-41704819D01*
X235607142Y-41704819D02*
X235511904Y-41752438D01*
X235511904Y-41752438D02*
X235464285Y-41800057D01*
X235464285Y-41800057D02*
X235416666Y-41895295D01*
X235416666Y-41895295D02*
X235416666Y-42038152D01*
X235416666Y-42038152D02*
X235464285Y-42133390D01*
X235464285Y-42133390D02*
X235511904Y-42181009D01*
X235511904Y-42181009D02*
X235607142Y-42228628D01*
X235607142Y-42228628D02*
X235988094Y-42228628D01*
X235035713Y-41800057D02*
X234988094Y-41752438D01*
X234988094Y-41752438D02*
X234892856Y-41704819D01*
X234892856Y-41704819D02*
X234654761Y-41704819D01*
X234654761Y-41704819D02*
X234559523Y-41752438D01*
X234559523Y-41752438D02*
X234511904Y-41800057D01*
X234511904Y-41800057D02*
X234464285Y-41895295D01*
X234464285Y-41895295D02*
X234464285Y-41990533D01*
X234464285Y-41990533D02*
X234511904Y-42133390D01*
X234511904Y-42133390D02*
X235083332Y-42704819D01*
X235083332Y-42704819D02*
X234464285Y-42704819D01*
X67059580Y-21357142D02*
X67107200Y-21309523D01*
X67107200Y-21309523D02*
X67154819Y-21166666D01*
X67154819Y-21166666D02*
X67154819Y-21071428D01*
X67154819Y-21071428D02*
X67107200Y-20928571D01*
X67107200Y-20928571D02*
X67011961Y-20833333D01*
X67011961Y-20833333D02*
X66916723Y-20785714D01*
X66916723Y-20785714D02*
X66726247Y-20738095D01*
X66726247Y-20738095D02*
X66583390Y-20738095D01*
X66583390Y-20738095D02*
X66392914Y-20785714D01*
X66392914Y-20785714D02*
X66297676Y-20833333D01*
X66297676Y-20833333D02*
X66202438Y-20928571D01*
X66202438Y-20928571D02*
X66154819Y-21071428D01*
X66154819Y-21071428D02*
X66154819Y-21166666D01*
X66154819Y-21166666D02*
X66202438Y-21309523D01*
X66202438Y-21309523D02*
X66250057Y-21357142D01*
X67154819Y-22309523D02*
X67154819Y-21738095D01*
X67154819Y-22023809D02*
X66154819Y-22023809D01*
X66154819Y-22023809D02*
X66297676Y-21928571D01*
X66297676Y-21928571D02*
X66392914Y-21833333D01*
X66392914Y-21833333D02*
X66440533Y-21738095D01*
X67154819Y-23261904D02*
X67154819Y-22690476D01*
X67154819Y-22976190D02*
X66154819Y-22976190D01*
X66154819Y-22976190D02*
X66297676Y-22880952D01*
X66297676Y-22880952D02*
X66392914Y-22785714D01*
X66392914Y-22785714D02*
X66440533Y-22690476D01*
X248642857Y-13059580D02*
X248690476Y-13107200D01*
X248690476Y-13107200D02*
X248833333Y-13154819D01*
X248833333Y-13154819D02*
X248928571Y-13154819D01*
X248928571Y-13154819D02*
X249071428Y-13107200D01*
X249071428Y-13107200D02*
X249166666Y-13011961D01*
X249166666Y-13011961D02*
X249214285Y-12916723D01*
X249214285Y-12916723D02*
X249261904Y-12726247D01*
X249261904Y-12726247D02*
X249261904Y-12583390D01*
X249261904Y-12583390D02*
X249214285Y-12392914D01*
X249214285Y-12392914D02*
X249166666Y-12297676D01*
X249166666Y-12297676D02*
X249071428Y-12202438D01*
X249071428Y-12202438D02*
X248928571Y-12154819D01*
X248928571Y-12154819D02*
X248833333Y-12154819D01*
X248833333Y-12154819D02*
X248690476Y-12202438D01*
X248690476Y-12202438D02*
X248642857Y-12250057D01*
X248309523Y-12154819D02*
X247642857Y-12154819D01*
X247642857Y-12154819D02*
X248071428Y-13154819D01*
X247357142Y-12154819D02*
X246738095Y-12154819D01*
X246738095Y-12154819D02*
X247071428Y-12535771D01*
X247071428Y-12535771D02*
X246928571Y-12535771D01*
X246928571Y-12535771D02*
X246833333Y-12583390D01*
X246833333Y-12583390D02*
X246785714Y-12631009D01*
X246785714Y-12631009D02*
X246738095Y-12726247D01*
X246738095Y-12726247D02*
X246738095Y-12964342D01*
X246738095Y-12964342D02*
X246785714Y-13059580D01*
X246785714Y-13059580D02*
X246833333Y-13107200D01*
X246833333Y-13107200D02*
X246928571Y-13154819D01*
X246928571Y-13154819D02*
X247214285Y-13154819D01*
X247214285Y-13154819D02*
X247309523Y-13107200D01*
X247309523Y-13107200D02*
X247357142Y-13059580D01*
X214809580Y-31857142D02*
X214857200Y-31809523D01*
X214857200Y-31809523D02*
X214904819Y-31666666D01*
X214904819Y-31666666D02*
X214904819Y-31571428D01*
X214904819Y-31571428D02*
X214857200Y-31428571D01*
X214857200Y-31428571D02*
X214761961Y-31333333D01*
X214761961Y-31333333D02*
X214666723Y-31285714D01*
X214666723Y-31285714D02*
X214476247Y-31238095D01*
X214476247Y-31238095D02*
X214333390Y-31238095D01*
X214333390Y-31238095D02*
X214142914Y-31285714D01*
X214142914Y-31285714D02*
X214047676Y-31333333D01*
X214047676Y-31333333D02*
X213952438Y-31428571D01*
X213952438Y-31428571D02*
X213904819Y-31571428D01*
X213904819Y-31571428D02*
X213904819Y-31666666D01*
X213904819Y-31666666D02*
X213952438Y-31809523D01*
X213952438Y-31809523D02*
X214000057Y-31857142D01*
X213904819Y-32761904D02*
X213904819Y-32285714D01*
X213904819Y-32285714D02*
X214381009Y-32238095D01*
X214381009Y-32238095D02*
X214333390Y-32285714D01*
X214333390Y-32285714D02*
X214285771Y-32380952D01*
X214285771Y-32380952D02*
X214285771Y-32619047D01*
X214285771Y-32619047D02*
X214333390Y-32714285D01*
X214333390Y-32714285D02*
X214381009Y-32761904D01*
X214381009Y-32761904D02*
X214476247Y-32809523D01*
X214476247Y-32809523D02*
X214714342Y-32809523D01*
X214714342Y-32809523D02*
X214809580Y-32761904D01*
X214809580Y-32761904D02*
X214857200Y-32714285D01*
X214857200Y-32714285D02*
X214904819Y-32619047D01*
X214904819Y-32619047D02*
X214904819Y-32380952D01*
X214904819Y-32380952D02*
X214857200Y-32285714D01*
X214857200Y-32285714D02*
X214809580Y-32238095D01*
X213904819Y-33428571D02*
X213904819Y-33523809D01*
X213904819Y-33523809D02*
X213952438Y-33619047D01*
X213952438Y-33619047D02*
X214000057Y-33666666D01*
X214000057Y-33666666D02*
X214095295Y-33714285D01*
X214095295Y-33714285D02*
X214285771Y-33761904D01*
X214285771Y-33761904D02*
X214523866Y-33761904D01*
X214523866Y-33761904D02*
X214714342Y-33714285D01*
X214714342Y-33714285D02*
X214809580Y-33666666D01*
X214809580Y-33666666D02*
X214857200Y-33619047D01*
X214857200Y-33619047D02*
X214904819Y-33523809D01*
X214904819Y-33523809D02*
X214904819Y-33428571D01*
X214904819Y-33428571D02*
X214857200Y-33333333D01*
X214857200Y-33333333D02*
X214809580Y-33285714D01*
X214809580Y-33285714D02*
X214714342Y-33238095D01*
X214714342Y-33238095D02*
X214523866Y-33190476D01*
X214523866Y-33190476D02*
X214285771Y-33190476D01*
X214285771Y-33190476D02*
X214095295Y-33238095D01*
X214095295Y-33238095D02*
X214000057Y-33285714D01*
X214000057Y-33285714D02*
X213952438Y-33333333D01*
X213952438Y-33333333D02*
X213904819Y-33428571D01*
X10642857Y-16059580D02*
X10690476Y-16107200D01*
X10690476Y-16107200D02*
X10833333Y-16154819D01*
X10833333Y-16154819D02*
X10928571Y-16154819D01*
X10928571Y-16154819D02*
X11071428Y-16107200D01*
X11071428Y-16107200D02*
X11166666Y-16011961D01*
X11166666Y-16011961D02*
X11214285Y-15916723D01*
X11214285Y-15916723D02*
X11261904Y-15726247D01*
X11261904Y-15726247D02*
X11261904Y-15583390D01*
X11261904Y-15583390D02*
X11214285Y-15392914D01*
X11214285Y-15392914D02*
X11166666Y-15297676D01*
X11166666Y-15297676D02*
X11071428Y-15202438D01*
X11071428Y-15202438D02*
X10928571Y-15154819D01*
X10928571Y-15154819D02*
X10833333Y-15154819D01*
X10833333Y-15154819D02*
X10690476Y-15202438D01*
X10690476Y-15202438D02*
X10642857Y-15250057D01*
X10261904Y-15250057D02*
X10214285Y-15202438D01*
X10214285Y-15202438D02*
X10119047Y-15154819D01*
X10119047Y-15154819D02*
X9880952Y-15154819D01*
X9880952Y-15154819D02*
X9785714Y-15202438D01*
X9785714Y-15202438D02*
X9738095Y-15250057D01*
X9738095Y-15250057D02*
X9690476Y-15345295D01*
X9690476Y-15345295D02*
X9690476Y-15440533D01*
X9690476Y-15440533D02*
X9738095Y-15583390D01*
X9738095Y-15583390D02*
X10309523Y-16154819D01*
X10309523Y-16154819D02*
X9690476Y-16154819D01*
X9119047Y-15583390D02*
X9214285Y-15535771D01*
X9214285Y-15535771D02*
X9261904Y-15488152D01*
X9261904Y-15488152D02*
X9309523Y-15392914D01*
X9309523Y-15392914D02*
X9309523Y-15345295D01*
X9309523Y-15345295D02*
X9261904Y-15250057D01*
X9261904Y-15250057D02*
X9214285Y-15202438D01*
X9214285Y-15202438D02*
X9119047Y-15154819D01*
X9119047Y-15154819D02*
X8928571Y-15154819D01*
X8928571Y-15154819D02*
X8833333Y-15202438D01*
X8833333Y-15202438D02*
X8785714Y-15250057D01*
X8785714Y-15250057D02*
X8738095Y-15345295D01*
X8738095Y-15345295D02*
X8738095Y-15392914D01*
X8738095Y-15392914D02*
X8785714Y-15488152D01*
X8785714Y-15488152D02*
X8833333Y-15535771D01*
X8833333Y-15535771D02*
X8928571Y-15583390D01*
X8928571Y-15583390D02*
X9119047Y-15583390D01*
X9119047Y-15583390D02*
X9214285Y-15631009D01*
X9214285Y-15631009D02*
X9261904Y-15678628D01*
X9261904Y-15678628D02*
X9309523Y-15773866D01*
X9309523Y-15773866D02*
X9309523Y-15964342D01*
X9309523Y-15964342D02*
X9261904Y-16059580D01*
X9261904Y-16059580D02*
X9214285Y-16107200D01*
X9214285Y-16107200D02*
X9119047Y-16154819D01*
X9119047Y-16154819D02*
X8928571Y-16154819D01*
X8928571Y-16154819D02*
X8833333Y-16107200D01*
X8833333Y-16107200D02*
X8785714Y-16059580D01*
X8785714Y-16059580D02*
X8738095Y-15964342D01*
X8738095Y-15964342D02*
X8738095Y-15773866D01*
X8738095Y-15773866D02*
X8785714Y-15678628D01*
X8785714Y-15678628D02*
X8833333Y-15631009D01*
X8833333Y-15631009D02*
X8928571Y-15583390D01*
X75166666Y-18059580D02*
X75214285Y-18107200D01*
X75214285Y-18107200D02*
X75357142Y-18154819D01*
X75357142Y-18154819D02*
X75452380Y-18154819D01*
X75452380Y-18154819D02*
X75595237Y-18107200D01*
X75595237Y-18107200D02*
X75690475Y-18011961D01*
X75690475Y-18011961D02*
X75738094Y-17916723D01*
X75738094Y-17916723D02*
X75785713Y-17726247D01*
X75785713Y-17726247D02*
X75785713Y-17583390D01*
X75785713Y-17583390D02*
X75738094Y-17392914D01*
X75738094Y-17392914D02*
X75690475Y-17297676D01*
X75690475Y-17297676D02*
X75595237Y-17202438D01*
X75595237Y-17202438D02*
X75452380Y-17154819D01*
X75452380Y-17154819D02*
X75357142Y-17154819D01*
X75357142Y-17154819D02*
X75214285Y-17202438D01*
X75214285Y-17202438D02*
X75166666Y-17250057D01*
X74261904Y-17154819D02*
X74738094Y-17154819D01*
X74738094Y-17154819D02*
X74785713Y-17631009D01*
X74785713Y-17631009D02*
X74738094Y-17583390D01*
X74738094Y-17583390D02*
X74642856Y-17535771D01*
X74642856Y-17535771D02*
X74404761Y-17535771D01*
X74404761Y-17535771D02*
X74309523Y-17583390D01*
X74309523Y-17583390D02*
X74261904Y-17631009D01*
X74261904Y-17631009D02*
X74214285Y-17726247D01*
X74214285Y-17726247D02*
X74214285Y-17964342D01*
X74214285Y-17964342D02*
X74261904Y-18059580D01*
X74261904Y-18059580D02*
X74309523Y-18107200D01*
X74309523Y-18107200D02*
X74404761Y-18154819D01*
X74404761Y-18154819D02*
X74642856Y-18154819D01*
X74642856Y-18154819D02*
X74738094Y-18107200D01*
X74738094Y-18107200D02*
X74785713Y-18059580D01*
D13*
X148586818Y-10067856D02*
X147316818Y-10067856D01*
X147316818Y-10067856D02*
X147316818Y-10551666D01*
X147316818Y-10551666D02*
X147377294Y-10672618D01*
X147377294Y-10672618D02*
X147437770Y-10733095D01*
X147437770Y-10733095D02*
X147558722Y-10793571D01*
X147558722Y-10793571D02*
X147740151Y-10793571D01*
X147740151Y-10793571D02*
X147861103Y-10733095D01*
X147861103Y-10733095D02*
X147921580Y-10672618D01*
X147921580Y-10672618D02*
X147982056Y-10551666D01*
X147982056Y-10551666D02*
X147982056Y-10067856D01*
X148526342Y-11277380D02*
X148586818Y-11458809D01*
X148586818Y-11458809D02*
X148586818Y-11761190D01*
X148586818Y-11761190D02*
X148526342Y-11882142D01*
X148526342Y-11882142D02*
X148465865Y-11942618D01*
X148465865Y-11942618D02*
X148344913Y-12003095D01*
X148344913Y-12003095D02*
X148223961Y-12003095D01*
X148223961Y-12003095D02*
X148103008Y-11942618D01*
X148103008Y-11942618D02*
X148042532Y-11882142D01*
X148042532Y-11882142D02*
X147982056Y-11761190D01*
X147982056Y-11761190D02*
X147921580Y-11519285D01*
X147921580Y-11519285D02*
X147861103Y-11398333D01*
X147861103Y-11398333D02*
X147800627Y-11337856D01*
X147800627Y-11337856D02*
X147679675Y-11277380D01*
X147679675Y-11277380D02*
X147558722Y-11277380D01*
X147558722Y-11277380D02*
X147437770Y-11337856D01*
X147437770Y-11337856D02*
X147377294Y-11398333D01*
X147377294Y-11398333D02*
X147316818Y-11519285D01*
X147316818Y-11519285D02*
X147316818Y-11821666D01*
X147316818Y-11821666D02*
X147377294Y-12003095D01*
X147740151Y-13091666D02*
X148586818Y-13091666D01*
X147256342Y-12789285D02*
X148163484Y-12486904D01*
X148163484Y-12486904D02*
X148163484Y-13273095D01*
D12*
X242642857Y-39659580D02*
X242690476Y-39707200D01*
X242690476Y-39707200D02*
X242833333Y-39754819D01*
X242833333Y-39754819D02*
X242928571Y-39754819D01*
X242928571Y-39754819D02*
X243071428Y-39707200D01*
X243071428Y-39707200D02*
X243166666Y-39611961D01*
X243166666Y-39611961D02*
X243214285Y-39516723D01*
X243214285Y-39516723D02*
X243261904Y-39326247D01*
X243261904Y-39326247D02*
X243261904Y-39183390D01*
X243261904Y-39183390D02*
X243214285Y-38992914D01*
X243214285Y-38992914D02*
X243166666Y-38897676D01*
X243166666Y-38897676D02*
X243071428Y-38802438D01*
X243071428Y-38802438D02*
X242928571Y-38754819D01*
X242928571Y-38754819D02*
X242833333Y-38754819D01*
X242833333Y-38754819D02*
X242690476Y-38802438D01*
X242690476Y-38802438D02*
X242642857Y-38850057D01*
X241785714Y-38754819D02*
X241976190Y-38754819D01*
X241976190Y-38754819D02*
X242071428Y-38802438D01*
X242071428Y-38802438D02*
X242119047Y-38850057D01*
X242119047Y-38850057D02*
X242214285Y-38992914D01*
X242214285Y-38992914D02*
X242261904Y-39183390D01*
X242261904Y-39183390D02*
X242261904Y-39564342D01*
X242261904Y-39564342D02*
X242214285Y-39659580D01*
X242214285Y-39659580D02*
X242166666Y-39707200D01*
X242166666Y-39707200D02*
X242071428Y-39754819D01*
X242071428Y-39754819D02*
X241880952Y-39754819D01*
X241880952Y-39754819D02*
X241785714Y-39707200D01*
X241785714Y-39707200D02*
X241738095Y-39659580D01*
X241738095Y-39659580D02*
X241690476Y-39564342D01*
X241690476Y-39564342D02*
X241690476Y-39326247D01*
X241690476Y-39326247D02*
X241738095Y-39231009D01*
X241738095Y-39231009D02*
X241785714Y-39183390D01*
X241785714Y-39183390D02*
X241880952Y-39135771D01*
X241880952Y-39135771D02*
X242071428Y-39135771D01*
X242071428Y-39135771D02*
X242166666Y-39183390D01*
X242166666Y-39183390D02*
X242214285Y-39231009D01*
X242214285Y-39231009D02*
X242261904Y-39326247D01*
X241357142Y-38754819D02*
X240738095Y-38754819D01*
X240738095Y-38754819D02*
X241071428Y-39135771D01*
X241071428Y-39135771D02*
X240928571Y-39135771D01*
X240928571Y-39135771D02*
X240833333Y-39183390D01*
X240833333Y-39183390D02*
X240785714Y-39231009D01*
X240785714Y-39231009D02*
X240738095Y-39326247D01*
X240738095Y-39326247D02*
X240738095Y-39564342D01*
X240738095Y-39564342D02*
X240785714Y-39659580D01*
X240785714Y-39659580D02*
X240833333Y-39707200D01*
X240833333Y-39707200D02*
X240928571Y-39754819D01*
X240928571Y-39754819D02*
X241214285Y-39754819D01*
X241214285Y-39754819D02*
X241309523Y-39707200D01*
X241309523Y-39707200D02*
X241357142Y-39659580D01*
X69205357Y-12059580D02*
X69252976Y-12107200D01*
X69252976Y-12107200D02*
X69395833Y-12154819D01*
X69395833Y-12154819D02*
X69491071Y-12154819D01*
X69491071Y-12154819D02*
X69633928Y-12107200D01*
X69633928Y-12107200D02*
X69729166Y-12011961D01*
X69729166Y-12011961D02*
X69776785Y-11916723D01*
X69776785Y-11916723D02*
X69824404Y-11726247D01*
X69824404Y-11726247D02*
X69824404Y-11583390D01*
X69824404Y-11583390D02*
X69776785Y-11392914D01*
X69776785Y-11392914D02*
X69729166Y-11297676D01*
X69729166Y-11297676D02*
X69633928Y-11202438D01*
X69633928Y-11202438D02*
X69491071Y-11154819D01*
X69491071Y-11154819D02*
X69395833Y-11154819D01*
X69395833Y-11154819D02*
X69252976Y-11202438D01*
X69252976Y-11202438D02*
X69205357Y-11250057D01*
X68252976Y-12154819D02*
X68824404Y-12154819D01*
X68538690Y-12154819D02*
X68538690Y-11154819D01*
X68538690Y-11154819D02*
X68633928Y-11297676D01*
X68633928Y-11297676D02*
X68729166Y-11392914D01*
X68729166Y-11392914D02*
X68824404Y-11440533D01*
X67919642Y-11154819D02*
X67300595Y-11154819D01*
X67300595Y-11154819D02*
X67633928Y-11535771D01*
X67633928Y-11535771D02*
X67491071Y-11535771D01*
X67491071Y-11535771D02*
X67395833Y-11583390D01*
X67395833Y-11583390D02*
X67348214Y-11631009D01*
X67348214Y-11631009D02*
X67300595Y-11726247D01*
X67300595Y-11726247D02*
X67300595Y-11964342D01*
X67300595Y-11964342D02*
X67348214Y-12059580D01*
X67348214Y-12059580D02*
X67395833Y-12107200D01*
X67395833Y-12107200D02*
X67491071Y-12154819D01*
X67491071Y-12154819D02*
X67776785Y-12154819D01*
X67776785Y-12154819D02*
X67872023Y-12107200D01*
X67872023Y-12107200D02*
X67919642Y-12059580D01*
X100642857Y-16059580D02*
X100690476Y-16107200D01*
X100690476Y-16107200D02*
X100833333Y-16154819D01*
X100833333Y-16154819D02*
X100928571Y-16154819D01*
X100928571Y-16154819D02*
X101071428Y-16107200D01*
X101071428Y-16107200D02*
X101166666Y-16011961D01*
X101166666Y-16011961D02*
X101214285Y-15916723D01*
X101214285Y-15916723D02*
X101261904Y-15726247D01*
X101261904Y-15726247D02*
X101261904Y-15583390D01*
X101261904Y-15583390D02*
X101214285Y-15392914D01*
X101214285Y-15392914D02*
X101166666Y-15297676D01*
X101166666Y-15297676D02*
X101071428Y-15202438D01*
X101071428Y-15202438D02*
X100928571Y-15154819D01*
X100928571Y-15154819D02*
X100833333Y-15154819D01*
X100833333Y-15154819D02*
X100690476Y-15202438D01*
X100690476Y-15202438D02*
X100642857Y-15250057D01*
X100261904Y-15250057D02*
X100214285Y-15202438D01*
X100214285Y-15202438D02*
X100119047Y-15154819D01*
X100119047Y-15154819D02*
X99880952Y-15154819D01*
X99880952Y-15154819D02*
X99785714Y-15202438D01*
X99785714Y-15202438D02*
X99738095Y-15250057D01*
X99738095Y-15250057D02*
X99690476Y-15345295D01*
X99690476Y-15345295D02*
X99690476Y-15440533D01*
X99690476Y-15440533D02*
X99738095Y-15583390D01*
X99738095Y-15583390D02*
X100309523Y-16154819D01*
X100309523Y-16154819D02*
X99690476Y-16154819D01*
X98738095Y-16154819D02*
X99309523Y-16154819D01*
X99023809Y-16154819D02*
X99023809Y-15154819D01*
X99023809Y-15154819D02*
X99119047Y-15297676D01*
X99119047Y-15297676D02*
X99214285Y-15392914D01*
X99214285Y-15392914D02*
X99309523Y-15440533D01*
D13*
X205571818Y-10067856D02*
X204301818Y-10067856D01*
X204301818Y-10067856D02*
X204301818Y-10551666D01*
X204301818Y-10551666D02*
X204362294Y-10672618D01*
X204362294Y-10672618D02*
X204422770Y-10733095D01*
X204422770Y-10733095D02*
X204543722Y-10793571D01*
X204543722Y-10793571D02*
X204725151Y-10793571D01*
X204725151Y-10793571D02*
X204846103Y-10733095D01*
X204846103Y-10733095D02*
X204906580Y-10672618D01*
X204906580Y-10672618D02*
X204967056Y-10551666D01*
X204967056Y-10551666D02*
X204967056Y-10067856D01*
X205511342Y-11277380D02*
X205571818Y-11458809D01*
X205571818Y-11458809D02*
X205571818Y-11761190D01*
X205571818Y-11761190D02*
X205511342Y-11882142D01*
X205511342Y-11882142D02*
X205450865Y-11942618D01*
X205450865Y-11942618D02*
X205329913Y-12003095D01*
X205329913Y-12003095D02*
X205208961Y-12003095D01*
X205208961Y-12003095D02*
X205088008Y-11942618D01*
X205088008Y-11942618D02*
X205027532Y-11882142D01*
X205027532Y-11882142D02*
X204967056Y-11761190D01*
X204967056Y-11761190D02*
X204906580Y-11519285D01*
X204906580Y-11519285D02*
X204846103Y-11398333D01*
X204846103Y-11398333D02*
X204785627Y-11337856D01*
X204785627Y-11337856D02*
X204664675Y-11277380D01*
X204664675Y-11277380D02*
X204543722Y-11277380D01*
X204543722Y-11277380D02*
X204422770Y-11337856D01*
X204422770Y-11337856D02*
X204362294Y-11398333D01*
X204362294Y-11398333D02*
X204301818Y-11519285D01*
X204301818Y-11519285D02*
X204301818Y-11821666D01*
X204301818Y-11821666D02*
X204362294Y-12003095D01*
X204301818Y-13152142D02*
X204301818Y-12547380D01*
X204301818Y-12547380D02*
X204906580Y-12486904D01*
X204906580Y-12486904D02*
X204846103Y-12547380D01*
X204846103Y-12547380D02*
X204785627Y-12668333D01*
X204785627Y-12668333D02*
X204785627Y-12970714D01*
X204785627Y-12970714D02*
X204846103Y-13091666D01*
X204846103Y-13091666D02*
X204906580Y-13152142D01*
X204906580Y-13152142D02*
X205027532Y-13212619D01*
X205027532Y-13212619D02*
X205329913Y-13212619D01*
X205329913Y-13212619D02*
X205450865Y-13152142D01*
X205450865Y-13152142D02*
X205511342Y-13091666D01*
X205511342Y-13091666D02*
X205571818Y-12970714D01*
X205571818Y-12970714D02*
X205571818Y-12668333D01*
X205571818Y-12668333D02*
X205511342Y-12547380D01*
X205511342Y-12547380D02*
X205450865Y-12486904D01*
D12*
X239166666Y-39174819D02*
X239499999Y-38698628D01*
X239738094Y-39174819D02*
X239738094Y-38174819D01*
X239738094Y-38174819D02*
X239357142Y-38174819D01*
X239357142Y-38174819D02*
X239261904Y-38222438D01*
X239261904Y-38222438D02*
X239214285Y-38270057D01*
X239214285Y-38270057D02*
X239166666Y-38365295D01*
X239166666Y-38365295D02*
X239166666Y-38508152D01*
X239166666Y-38508152D02*
X239214285Y-38603390D01*
X239214285Y-38603390D02*
X239261904Y-38651009D01*
X239261904Y-38651009D02*
X239357142Y-38698628D01*
X239357142Y-38698628D02*
X239738094Y-38698628D01*
X238214285Y-39174819D02*
X238785713Y-39174819D01*
X238499999Y-39174819D02*
X238499999Y-38174819D01*
X238499999Y-38174819D02*
X238595237Y-38317676D01*
X238595237Y-38317676D02*
X238690475Y-38412914D01*
X238690475Y-38412914D02*
X238785713Y-38460533D01*
X126642857Y-12059580D02*
X126690476Y-12107200D01*
X126690476Y-12107200D02*
X126833333Y-12154819D01*
X126833333Y-12154819D02*
X126928571Y-12154819D01*
X126928571Y-12154819D02*
X127071428Y-12107200D01*
X127071428Y-12107200D02*
X127166666Y-12011961D01*
X127166666Y-12011961D02*
X127214285Y-11916723D01*
X127214285Y-11916723D02*
X127261904Y-11726247D01*
X127261904Y-11726247D02*
X127261904Y-11583390D01*
X127261904Y-11583390D02*
X127214285Y-11392914D01*
X127214285Y-11392914D02*
X127166666Y-11297676D01*
X127166666Y-11297676D02*
X127071428Y-11202438D01*
X127071428Y-11202438D02*
X126928571Y-11154819D01*
X126928571Y-11154819D02*
X126833333Y-11154819D01*
X126833333Y-11154819D02*
X126690476Y-11202438D01*
X126690476Y-11202438D02*
X126642857Y-11250057D01*
X126261904Y-11250057D02*
X126214285Y-11202438D01*
X126214285Y-11202438D02*
X126119047Y-11154819D01*
X126119047Y-11154819D02*
X125880952Y-11154819D01*
X125880952Y-11154819D02*
X125785714Y-11202438D01*
X125785714Y-11202438D02*
X125738095Y-11250057D01*
X125738095Y-11250057D02*
X125690476Y-11345295D01*
X125690476Y-11345295D02*
X125690476Y-11440533D01*
X125690476Y-11440533D02*
X125738095Y-11583390D01*
X125738095Y-11583390D02*
X126309523Y-12154819D01*
X126309523Y-12154819D02*
X125690476Y-12154819D01*
X124785714Y-11154819D02*
X125261904Y-11154819D01*
X125261904Y-11154819D02*
X125309523Y-11631009D01*
X125309523Y-11631009D02*
X125261904Y-11583390D01*
X125261904Y-11583390D02*
X125166666Y-11535771D01*
X125166666Y-11535771D02*
X124928571Y-11535771D01*
X124928571Y-11535771D02*
X124833333Y-11583390D01*
X124833333Y-11583390D02*
X124785714Y-11631009D01*
X124785714Y-11631009D02*
X124738095Y-11726247D01*
X124738095Y-11726247D02*
X124738095Y-11964342D01*
X124738095Y-11964342D02*
X124785714Y-12059580D01*
X124785714Y-12059580D02*
X124833333Y-12107200D01*
X124833333Y-12107200D02*
X124928571Y-12154819D01*
X124928571Y-12154819D02*
X125166666Y-12154819D01*
X125166666Y-12154819D02*
X125261904Y-12107200D01*
X125261904Y-12107200D02*
X125309523Y-12059580D01*
D13*
X58586818Y-10067856D02*
X57316818Y-10067856D01*
X57316818Y-10067856D02*
X57316818Y-10551666D01*
X57316818Y-10551666D02*
X57377294Y-10672618D01*
X57377294Y-10672618D02*
X57437770Y-10733095D01*
X57437770Y-10733095D02*
X57558722Y-10793571D01*
X57558722Y-10793571D02*
X57740151Y-10793571D01*
X57740151Y-10793571D02*
X57861103Y-10733095D01*
X57861103Y-10733095D02*
X57921580Y-10672618D01*
X57921580Y-10672618D02*
X57982056Y-10551666D01*
X57982056Y-10551666D02*
X57982056Y-10067856D01*
X58526342Y-11277380D02*
X58586818Y-11458809D01*
X58586818Y-11458809D02*
X58586818Y-11761190D01*
X58586818Y-11761190D02*
X58526342Y-11882142D01*
X58526342Y-11882142D02*
X58465865Y-11942618D01*
X58465865Y-11942618D02*
X58344913Y-12003095D01*
X58344913Y-12003095D02*
X58223961Y-12003095D01*
X58223961Y-12003095D02*
X58103008Y-11942618D01*
X58103008Y-11942618D02*
X58042532Y-11882142D01*
X58042532Y-11882142D02*
X57982056Y-11761190D01*
X57982056Y-11761190D02*
X57921580Y-11519285D01*
X57921580Y-11519285D02*
X57861103Y-11398333D01*
X57861103Y-11398333D02*
X57800627Y-11337856D01*
X57800627Y-11337856D02*
X57679675Y-11277380D01*
X57679675Y-11277380D02*
X57558722Y-11277380D01*
X57558722Y-11277380D02*
X57437770Y-11337856D01*
X57437770Y-11337856D02*
X57377294Y-11398333D01*
X57377294Y-11398333D02*
X57316818Y-11519285D01*
X57316818Y-11519285D02*
X57316818Y-11821666D01*
X57316818Y-11821666D02*
X57377294Y-12003095D01*
X58586818Y-13212619D02*
X58586818Y-12486904D01*
X58586818Y-12849761D02*
X57316818Y-12849761D01*
X57316818Y-12849761D02*
X57498246Y-12728809D01*
X57498246Y-12728809D02*
X57619199Y-12607857D01*
X57619199Y-12607857D02*
X57679675Y-12486904D01*
D12*
X15642857Y-25659580D02*
X15690476Y-25707200D01*
X15690476Y-25707200D02*
X15833333Y-25754819D01*
X15833333Y-25754819D02*
X15928571Y-25754819D01*
X15928571Y-25754819D02*
X16071428Y-25707200D01*
X16071428Y-25707200D02*
X16166666Y-25611961D01*
X16166666Y-25611961D02*
X16214285Y-25516723D01*
X16214285Y-25516723D02*
X16261904Y-25326247D01*
X16261904Y-25326247D02*
X16261904Y-25183390D01*
X16261904Y-25183390D02*
X16214285Y-24992914D01*
X16214285Y-24992914D02*
X16166666Y-24897676D01*
X16166666Y-24897676D02*
X16071428Y-24802438D01*
X16071428Y-24802438D02*
X15928571Y-24754819D01*
X15928571Y-24754819D02*
X15833333Y-24754819D01*
X15833333Y-24754819D02*
X15690476Y-24802438D01*
X15690476Y-24802438D02*
X15642857Y-24850057D01*
X15309523Y-24754819D02*
X14690476Y-24754819D01*
X14690476Y-24754819D02*
X15023809Y-25135771D01*
X15023809Y-25135771D02*
X14880952Y-25135771D01*
X14880952Y-25135771D02*
X14785714Y-25183390D01*
X14785714Y-25183390D02*
X14738095Y-25231009D01*
X14738095Y-25231009D02*
X14690476Y-25326247D01*
X14690476Y-25326247D02*
X14690476Y-25564342D01*
X14690476Y-25564342D02*
X14738095Y-25659580D01*
X14738095Y-25659580D02*
X14785714Y-25707200D01*
X14785714Y-25707200D02*
X14880952Y-25754819D01*
X14880952Y-25754819D02*
X15166666Y-25754819D01*
X15166666Y-25754819D02*
X15261904Y-25707200D01*
X15261904Y-25707200D02*
X15309523Y-25659580D01*
X13738095Y-25754819D02*
X14309523Y-25754819D01*
X14023809Y-25754819D02*
X14023809Y-24754819D01*
X14023809Y-24754819D02*
X14119047Y-24897676D01*
X14119047Y-24897676D02*
X14214285Y-24992914D01*
X14214285Y-24992914D02*
X14309523Y-25040533D01*
X105080357Y-25659580D02*
X105127976Y-25707200D01*
X105127976Y-25707200D02*
X105270833Y-25754819D01*
X105270833Y-25754819D02*
X105366071Y-25754819D01*
X105366071Y-25754819D02*
X105508928Y-25707200D01*
X105508928Y-25707200D02*
X105604166Y-25611961D01*
X105604166Y-25611961D02*
X105651785Y-25516723D01*
X105651785Y-25516723D02*
X105699404Y-25326247D01*
X105699404Y-25326247D02*
X105699404Y-25183390D01*
X105699404Y-25183390D02*
X105651785Y-24992914D01*
X105651785Y-24992914D02*
X105604166Y-24897676D01*
X105604166Y-24897676D02*
X105508928Y-24802438D01*
X105508928Y-24802438D02*
X105366071Y-24754819D01*
X105366071Y-24754819D02*
X105270833Y-24754819D01*
X105270833Y-24754819D02*
X105127976Y-24802438D01*
X105127976Y-24802438D02*
X105080357Y-24850057D01*
X104127976Y-25754819D02*
X104699404Y-25754819D01*
X104413690Y-25754819D02*
X104413690Y-24754819D01*
X104413690Y-24754819D02*
X104508928Y-24897676D01*
X104508928Y-24897676D02*
X104604166Y-24992914D01*
X104604166Y-24992914D02*
X104699404Y-25040533D01*
X103651785Y-25754819D02*
X103461309Y-25754819D01*
X103461309Y-25754819D02*
X103366071Y-25707200D01*
X103366071Y-25707200D02*
X103318452Y-25659580D01*
X103318452Y-25659580D02*
X103223214Y-25516723D01*
X103223214Y-25516723D02*
X103175595Y-25326247D01*
X103175595Y-25326247D02*
X103175595Y-24945295D01*
X103175595Y-24945295D02*
X103223214Y-24850057D01*
X103223214Y-24850057D02*
X103270833Y-24802438D01*
X103270833Y-24802438D02*
X103366071Y-24754819D01*
X103366071Y-24754819D02*
X103556547Y-24754819D01*
X103556547Y-24754819D02*
X103651785Y-24802438D01*
X103651785Y-24802438D02*
X103699404Y-24850057D01*
X103699404Y-24850057D02*
X103747023Y-24945295D01*
X103747023Y-24945295D02*
X103747023Y-25183390D01*
X103747023Y-25183390D02*
X103699404Y-25278628D01*
X103699404Y-25278628D02*
X103651785Y-25326247D01*
X103651785Y-25326247D02*
X103556547Y-25373866D01*
X103556547Y-25373866D02*
X103366071Y-25373866D01*
X103366071Y-25373866D02*
X103270833Y-25326247D01*
X103270833Y-25326247D02*
X103223214Y-25278628D01*
X103223214Y-25278628D02*
X103175595Y-25183390D01*
X195330357Y-25659580D02*
X195377976Y-25707200D01*
X195377976Y-25707200D02*
X195520833Y-25754819D01*
X195520833Y-25754819D02*
X195616071Y-25754819D01*
X195616071Y-25754819D02*
X195758928Y-25707200D01*
X195758928Y-25707200D02*
X195854166Y-25611961D01*
X195854166Y-25611961D02*
X195901785Y-25516723D01*
X195901785Y-25516723D02*
X195949404Y-25326247D01*
X195949404Y-25326247D02*
X195949404Y-25183390D01*
X195949404Y-25183390D02*
X195901785Y-24992914D01*
X195901785Y-24992914D02*
X195854166Y-24897676D01*
X195854166Y-24897676D02*
X195758928Y-24802438D01*
X195758928Y-24802438D02*
X195616071Y-24754819D01*
X195616071Y-24754819D02*
X195520833Y-24754819D01*
X195520833Y-24754819D02*
X195377976Y-24802438D01*
X195377976Y-24802438D02*
X195330357Y-24850057D01*
X194425595Y-24754819D02*
X194901785Y-24754819D01*
X194901785Y-24754819D02*
X194949404Y-25231009D01*
X194949404Y-25231009D02*
X194901785Y-25183390D01*
X194901785Y-25183390D02*
X194806547Y-25135771D01*
X194806547Y-25135771D02*
X194568452Y-25135771D01*
X194568452Y-25135771D02*
X194473214Y-25183390D01*
X194473214Y-25183390D02*
X194425595Y-25231009D01*
X194425595Y-25231009D02*
X194377976Y-25326247D01*
X194377976Y-25326247D02*
X194377976Y-25564342D01*
X194377976Y-25564342D02*
X194425595Y-25659580D01*
X194425595Y-25659580D02*
X194473214Y-25707200D01*
X194473214Y-25707200D02*
X194568452Y-25754819D01*
X194568452Y-25754819D02*
X194806547Y-25754819D01*
X194806547Y-25754819D02*
X194901785Y-25707200D01*
X194901785Y-25707200D02*
X194949404Y-25659580D01*
X193473214Y-24754819D02*
X193949404Y-24754819D01*
X193949404Y-24754819D02*
X193997023Y-25231009D01*
X193997023Y-25231009D02*
X193949404Y-25183390D01*
X193949404Y-25183390D02*
X193854166Y-25135771D01*
X193854166Y-25135771D02*
X193616071Y-25135771D01*
X193616071Y-25135771D02*
X193520833Y-25183390D01*
X193520833Y-25183390D02*
X193473214Y-25231009D01*
X193473214Y-25231009D02*
X193425595Y-25326247D01*
X193425595Y-25326247D02*
X193425595Y-25564342D01*
X193425595Y-25564342D02*
X193473214Y-25659580D01*
X193473214Y-25659580D02*
X193520833Y-25707200D01*
X193520833Y-25707200D02*
X193616071Y-25754819D01*
X193616071Y-25754819D02*
X193854166Y-25754819D01*
X193854166Y-25754819D02*
X193949404Y-25707200D01*
X193949404Y-25707200D02*
X193997023Y-25659580D01*
D13*
X115571818Y-10027856D02*
X114301818Y-10027856D01*
X114301818Y-10027856D02*
X114301818Y-10511666D01*
X114301818Y-10511666D02*
X114362294Y-10632618D01*
X114362294Y-10632618D02*
X114422770Y-10693095D01*
X114422770Y-10693095D02*
X114543722Y-10753571D01*
X114543722Y-10753571D02*
X114725151Y-10753571D01*
X114725151Y-10753571D02*
X114846103Y-10693095D01*
X114846103Y-10693095D02*
X114906580Y-10632618D01*
X114906580Y-10632618D02*
X114967056Y-10511666D01*
X114967056Y-10511666D02*
X114967056Y-10027856D01*
X115511342Y-11237380D02*
X115571818Y-11418809D01*
X115571818Y-11418809D02*
X115571818Y-11721190D01*
X115571818Y-11721190D02*
X115511342Y-11842142D01*
X115511342Y-11842142D02*
X115450865Y-11902618D01*
X115450865Y-11902618D02*
X115329913Y-11963095D01*
X115329913Y-11963095D02*
X115208961Y-11963095D01*
X115208961Y-11963095D02*
X115088008Y-11902618D01*
X115088008Y-11902618D02*
X115027532Y-11842142D01*
X115027532Y-11842142D02*
X114967056Y-11721190D01*
X114967056Y-11721190D02*
X114906580Y-11479285D01*
X114906580Y-11479285D02*
X114846103Y-11358333D01*
X114846103Y-11358333D02*
X114785627Y-11297856D01*
X114785627Y-11297856D02*
X114664675Y-11237380D01*
X114664675Y-11237380D02*
X114543722Y-11237380D01*
X114543722Y-11237380D02*
X114422770Y-11297856D01*
X114422770Y-11297856D02*
X114362294Y-11358333D01*
X114362294Y-11358333D02*
X114301818Y-11479285D01*
X114301818Y-11479285D02*
X114301818Y-11781666D01*
X114301818Y-11781666D02*
X114362294Y-11963095D01*
X114422770Y-12446904D02*
X114362294Y-12507380D01*
X114362294Y-12507380D02*
X114301818Y-12628333D01*
X114301818Y-12628333D02*
X114301818Y-12930714D01*
X114301818Y-12930714D02*
X114362294Y-13051666D01*
X114362294Y-13051666D02*
X114422770Y-13112142D01*
X114422770Y-13112142D02*
X114543722Y-13172619D01*
X114543722Y-13172619D02*
X114664675Y-13172619D01*
X114664675Y-13172619D02*
X114846103Y-13112142D01*
X114846103Y-13112142D02*
X115571818Y-12386428D01*
X115571818Y-12386428D02*
X115571818Y-13172619D01*
D12*
X189580357Y-21059580D02*
X189627976Y-21107200D01*
X189627976Y-21107200D02*
X189770833Y-21154819D01*
X189770833Y-21154819D02*
X189866071Y-21154819D01*
X189866071Y-21154819D02*
X190008928Y-21107200D01*
X190008928Y-21107200D02*
X190104166Y-21011961D01*
X190104166Y-21011961D02*
X190151785Y-20916723D01*
X190151785Y-20916723D02*
X190199404Y-20726247D01*
X190199404Y-20726247D02*
X190199404Y-20583390D01*
X190199404Y-20583390D02*
X190151785Y-20392914D01*
X190151785Y-20392914D02*
X190104166Y-20297676D01*
X190104166Y-20297676D02*
X190008928Y-20202438D01*
X190008928Y-20202438D02*
X189866071Y-20154819D01*
X189866071Y-20154819D02*
X189770833Y-20154819D01*
X189770833Y-20154819D02*
X189627976Y-20202438D01*
X189627976Y-20202438D02*
X189580357Y-20250057D01*
X188675595Y-20154819D02*
X189151785Y-20154819D01*
X189151785Y-20154819D02*
X189199404Y-20631009D01*
X189199404Y-20631009D02*
X189151785Y-20583390D01*
X189151785Y-20583390D02*
X189056547Y-20535771D01*
X189056547Y-20535771D02*
X188818452Y-20535771D01*
X188818452Y-20535771D02*
X188723214Y-20583390D01*
X188723214Y-20583390D02*
X188675595Y-20631009D01*
X188675595Y-20631009D02*
X188627976Y-20726247D01*
X188627976Y-20726247D02*
X188627976Y-20964342D01*
X188627976Y-20964342D02*
X188675595Y-21059580D01*
X188675595Y-21059580D02*
X188723214Y-21107200D01*
X188723214Y-21107200D02*
X188818452Y-21154819D01*
X188818452Y-21154819D02*
X189056547Y-21154819D01*
X189056547Y-21154819D02*
X189151785Y-21107200D01*
X189151785Y-21107200D02*
X189199404Y-21059580D01*
X187770833Y-20154819D02*
X187961309Y-20154819D01*
X187961309Y-20154819D02*
X188056547Y-20202438D01*
X188056547Y-20202438D02*
X188104166Y-20250057D01*
X188104166Y-20250057D02*
X188199404Y-20392914D01*
X188199404Y-20392914D02*
X188247023Y-20583390D01*
X188247023Y-20583390D02*
X188247023Y-20964342D01*
X188247023Y-20964342D02*
X188199404Y-21059580D01*
X188199404Y-21059580D02*
X188151785Y-21107200D01*
X188151785Y-21107200D02*
X188056547Y-21154819D01*
X188056547Y-21154819D02*
X187866071Y-21154819D01*
X187866071Y-21154819D02*
X187770833Y-21107200D01*
X187770833Y-21107200D02*
X187723214Y-21059580D01*
X187723214Y-21059580D02*
X187675595Y-20964342D01*
X187675595Y-20964342D02*
X187675595Y-20726247D01*
X187675595Y-20726247D02*
X187723214Y-20631009D01*
X187723214Y-20631009D02*
X187770833Y-20583390D01*
X187770833Y-20583390D02*
X187866071Y-20535771D01*
X187866071Y-20535771D02*
X188056547Y-20535771D01*
X188056547Y-20535771D02*
X188151785Y-20583390D01*
X188151785Y-20583390D02*
X188199404Y-20631009D01*
X188199404Y-20631009D02*
X188247023Y-20726247D01*
X35059580Y-20357142D02*
X35107200Y-20309523D01*
X35107200Y-20309523D02*
X35154819Y-20166666D01*
X35154819Y-20166666D02*
X35154819Y-20071428D01*
X35154819Y-20071428D02*
X35107200Y-19928571D01*
X35107200Y-19928571D02*
X35011961Y-19833333D01*
X35011961Y-19833333D02*
X34916723Y-19785714D01*
X34916723Y-19785714D02*
X34726247Y-19738095D01*
X34726247Y-19738095D02*
X34583390Y-19738095D01*
X34583390Y-19738095D02*
X34392914Y-19785714D01*
X34392914Y-19785714D02*
X34297676Y-19833333D01*
X34297676Y-19833333D02*
X34202438Y-19928571D01*
X34202438Y-19928571D02*
X34154819Y-20071428D01*
X34154819Y-20071428D02*
X34154819Y-20166666D01*
X34154819Y-20166666D02*
X34202438Y-20309523D01*
X34202438Y-20309523D02*
X34250057Y-20357142D01*
X34154819Y-20690476D02*
X34154819Y-21309523D01*
X34154819Y-21309523D02*
X34535771Y-20976190D01*
X34535771Y-20976190D02*
X34535771Y-21119047D01*
X34535771Y-21119047D02*
X34583390Y-21214285D01*
X34583390Y-21214285D02*
X34631009Y-21261904D01*
X34631009Y-21261904D02*
X34726247Y-21309523D01*
X34726247Y-21309523D02*
X34964342Y-21309523D01*
X34964342Y-21309523D02*
X35059580Y-21261904D01*
X35059580Y-21261904D02*
X35107200Y-21214285D01*
X35107200Y-21214285D02*
X35154819Y-21119047D01*
X35154819Y-21119047D02*
X35154819Y-20833333D01*
X35154819Y-20833333D02*
X35107200Y-20738095D01*
X35107200Y-20738095D02*
X35059580Y-20690476D01*
X34154819Y-22214285D02*
X34154819Y-21738095D01*
X34154819Y-21738095D02*
X34631009Y-21690476D01*
X34631009Y-21690476D02*
X34583390Y-21738095D01*
X34583390Y-21738095D02*
X34535771Y-21833333D01*
X34535771Y-21833333D02*
X34535771Y-22071428D01*
X34535771Y-22071428D02*
X34583390Y-22166666D01*
X34583390Y-22166666D02*
X34631009Y-22214285D01*
X34631009Y-22214285D02*
X34726247Y-22261904D01*
X34726247Y-22261904D02*
X34964342Y-22261904D01*
X34964342Y-22261904D02*
X35059580Y-22214285D01*
X35059580Y-22214285D02*
X35107200Y-22166666D01*
X35107200Y-22166666D02*
X35154819Y-22071428D01*
X35154819Y-22071428D02*
X35154819Y-21833333D01*
X35154819Y-21833333D02*
X35107200Y-21738095D01*
X35107200Y-21738095D02*
X35059580Y-21690476D01*
X216642857Y-12059580D02*
X216690476Y-12107200D01*
X216690476Y-12107200D02*
X216833333Y-12154819D01*
X216833333Y-12154819D02*
X216928571Y-12154819D01*
X216928571Y-12154819D02*
X217071428Y-12107200D01*
X217071428Y-12107200D02*
X217166666Y-12011961D01*
X217166666Y-12011961D02*
X217214285Y-11916723D01*
X217214285Y-11916723D02*
X217261904Y-11726247D01*
X217261904Y-11726247D02*
X217261904Y-11583390D01*
X217261904Y-11583390D02*
X217214285Y-11392914D01*
X217214285Y-11392914D02*
X217166666Y-11297676D01*
X217166666Y-11297676D02*
X217071428Y-11202438D01*
X217071428Y-11202438D02*
X216928571Y-11154819D01*
X216928571Y-11154819D02*
X216833333Y-11154819D01*
X216833333Y-11154819D02*
X216690476Y-11202438D01*
X216690476Y-11202438D02*
X216642857Y-11250057D01*
X215785714Y-11154819D02*
X215976190Y-11154819D01*
X215976190Y-11154819D02*
X216071428Y-11202438D01*
X216071428Y-11202438D02*
X216119047Y-11250057D01*
X216119047Y-11250057D02*
X216214285Y-11392914D01*
X216214285Y-11392914D02*
X216261904Y-11583390D01*
X216261904Y-11583390D02*
X216261904Y-11964342D01*
X216261904Y-11964342D02*
X216214285Y-12059580D01*
X216214285Y-12059580D02*
X216166666Y-12107200D01*
X216166666Y-12107200D02*
X216071428Y-12154819D01*
X216071428Y-12154819D02*
X215880952Y-12154819D01*
X215880952Y-12154819D02*
X215785714Y-12107200D01*
X215785714Y-12107200D02*
X215738095Y-12059580D01*
X215738095Y-12059580D02*
X215690476Y-11964342D01*
X215690476Y-11964342D02*
X215690476Y-11726247D01*
X215690476Y-11726247D02*
X215738095Y-11631009D01*
X215738095Y-11631009D02*
X215785714Y-11583390D01*
X215785714Y-11583390D02*
X215880952Y-11535771D01*
X215880952Y-11535771D02*
X216071428Y-11535771D01*
X216071428Y-11535771D02*
X216166666Y-11583390D01*
X216166666Y-11583390D02*
X216214285Y-11631009D01*
X216214285Y-11631009D02*
X216261904Y-11726247D01*
X214738095Y-12154819D02*
X215309523Y-12154819D01*
X215023809Y-12154819D02*
X215023809Y-11154819D01*
X215023809Y-11154819D02*
X215119047Y-11297676D01*
X215119047Y-11297676D02*
X215214285Y-11392914D01*
X215214285Y-11392914D02*
X215309523Y-11440533D01*
X125059580Y-21357142D02*
X125107200Y-21309523D01*
X125107200Y-21309523D02*
X125154819Y-21166666D01*
X125154819Y-21166666D02*
X125154819Y-21071428D01*
X125154819Y-21071428D02*
X125107200Y-20928571D01*
X125107200Y-20928571D02*
X125011961Y-20833333D01*
X125011961Y-20833333D02*
X124916723Y-20785714D01*
X124916723Y-20785714D02*
X124726247Y-20738095D01*
X124726247Y-20738095D02*
X124583390Y-20738095D01*
X124583390Y-20738095D02*
X124392914Y-20785714D01*
X124392914Y-20785714D02*
X124297676Y-20833333D01*
X124297676Y-20833333D02*
X124202438Y-20928571D01*
X124202438Y-20928571D02*
X124154819Y-21071428D01*
X124154819Y-21071428D02*
X124154819Y-21166666D01*
X124154819Y-21166666D02*
X124202438Y-21309523D01*
X124202438Y-21309523D02*
X124250057Y-21357142D01*
X124250057Y-21738095D02*
X124202438Y-21785714D01*
X124202438Y-21785714D02*
X124154819Y-21880952D01*
X124154819Y-21880952D02*
X124154819Y-22119047D01*
X124154819Y-22119047D02*
X124202438Y-22214285D01*
X124202438Y-22214285D02*
X124250057Y-22261904D01*
X124250057Y-22261904D02*
X124345295Y-22309523D01*
X124345295Y-22309523D02*
X124440533Y-22309523D01*
X124440533Y-22309523D02*
X124583390Y-22261904D01*
X124583390Y-22261904D02*
X125154819Y-21690476D01*
X125154819Y-21690476D02*
X125154819Y-22309523D01*
X124154819Y-22642857D02*
X124154819Y-23261904D01*
X124154819Y-23261904D02*
X124535771Y-22928571D01*
X124535771Y-22928571D02*
X124535771Y-23071428D01*
X124535771Y-23071428D02*
X124583390Y-23166666D01*
X124583390Y-23166666D02*
X124631009Y-23214285D01*
X124631009Y-23214285D02*
X124726247Y-23261904D01*
X124726247Y-23261904D02*
X124964342Y-23261904D01*
X124964342Y-23261904D02*
X125059580Y-23214285D01*
X125059580Y-23214285D02*
X125107200Y-23166666D01*
X125107200Y-23166666D02*
X125154819Y-23071428D01*
X125154819Y-23071428D02*
X125154819Y-22785714D01*
X125154819Y-22785714D02*
X125107200Y-22690476D01*
X125107200Y-22690476D02*
X125059580Y-22642857D01*
D13*
X237556818Y-10027856D02*
X236286818Y-10027856D01*
X236286818Y-10027856D02*
X236286818Y-10511666D01*
X236286818Y-10511666D02*
X236347294Y-10632618D01*
X236347294Y-10632618D02*
X236407770Y-10693095D01*
X236407770Y-10693095D02*
X236528722Y-10753571D01*
X236528722Y-10753571D02*
X236710151Y-10753571D01*
X236710151Y-10753571D02*
X236831103Y-10693095D01*
X236831103Y-10693095D02*
X236891580Y-10632618D01*
X236891580Y-10632618D02*
X236952056Y-10511666D01*
X236952056Y-10511666D02*
X236952056Y-10027856D01*
X237496342Y-11237380D02*
X237556818Y-11418809D01*
X237556818Y-11418809D02*
X237556818Y-11721190D01*
X237556818Y-11721190D02*
X237496342Y-11842142D01*
X237496342Y-11842142D02*
X237435865Y-11902618D01*
X237435865Y-11902618D02*
X237314913Y-11963095D01*
X237314913Y-11963095D02*
X237193961Y-11963095D01*
X237193961Y-11963095D02*
X237073008Y-11902618D01*
X237073008Y-11902618D02*
X237012532Y-11842142D01*
X237012532Y-11842142D02*
X236952056Y-11721190D01*
X236952056Y-11721190D02*
X236891580Y-11479285D01*
X236891580Y-11479285D02*
X236831103Y-11358333D01*
X236831103Y-11358333D02*
X236770627Y-11297856D01*
X236770627Y-11297856D02*
X236649675Y-11237380D01*
X236649675Y-11237380D02*
X236528722Y-11237380D01*
X236528722Y-11237380D02*
X236407770Y-11297856D01*
X236407770Y-11297856D02*
X236347294Y-11358333D01*
X236347294Y-11358333D02*
X236286818Y-11479285D01*
X236286818Y-11479285D02*
X236286818Y-11781666D01*
X236286818Y-11781666D02*
X236347294Y-11963095D01*
X236286818Y-13051666D02*
X236286818Y-12809761D01*
X236286818Y-12809761D02*
X236347294Y-12688809D01*
X236347294Y-12688809D02*
X236407770Y-12628333D01*
X236407770Y-12628333D02*
X236589199Y-12507380D01*
X236589199Y-12507380D02*
X236831103Y-12446904D01*
X236831103Y-12446904D02*
X237314913Y-12446904D01*
X237314913Y-12446904D02*
X237435865Y-12507380D01*
X237435865Y-12507380D02*
X237496342Y-12567857D01*
X237496342Y-12567857D02*
X237556818Y-12688809D01*
X237556818Y-12688809D02*
X237556818Y-12930714D01*
X237556818Y-12930714D02*
X237496342Y-13051666D01*
X237496342Y-13051666D02*
X237435865Y-13112142D01*
X237435865Y-13112142D02*
X237314913Y-13172619D01*
X237314913Y-13172619D02*
X237012532Y-13172619D01*
X237012532Y-13172619D02*
X236891580Y-13112142D01*
X236891580Y-13112142D02*
X236831103Y-13051666D01*
X236831103Y-13051666D02*
X236770627Y-12930714D01*
X236770627Y-12930714D02*
X236770627Y-12688809D01*
X236770627Y-12688809D02*
X236831103Y-12567857D01*
X236831103Y-12567857D02*
X236891580Y-12507380D01*
X236891580Y-12507380D02*
X237012532Y-12446904D01*
X25571818Y-10067856D02*
X24301818Y-10067856D01*
X24301818Y-10067856D02*
X24301818Y-10551666D01*
X24301818Y-10551666D02*
X24362294Y-10672618D01*
X24362294Y-10672618D02*
X24422770Y-10733095D01*
X24422770Y-10733095D02*
X24543722Y-10793571D01*
X24543722Y-10793571D02*
X24725151Y-10793571D01*
X24725151Y-10793571D02*
X24846103Y-10733095D01*
X24846103Y-10733095D02*
X24906580Y-10672618D01*
X24906580Y-10672618D02*
X24967056Y-10551666D01*
X24967056Y-10551666D02*
X24967056Y-10067856D01*
X25511342Y-11277380D02*
X25571818Y-11458809D01*
X25571818Y-11458809D02*
X25571818Y-11761190D01*
X25571818Y-11761190D02*
X25511342Y-11882142D01*
X25511342Y-11882142D02*
X25450865Y-11942618D01*
X25450865Y-11942618D02*
X25329913Y-12003095D01*
X25329913Y-12003095D02*
X25208961Y-12003095D01*
X25208961Y-12003095D02*
X25088008Y-11942618D01*
X25088008Y-11942618D02*
X25027532Y-11882142D01*
X25027532Y-11882142D02*
X24967056Y-11761190D01*
X24967056Y-11761190D02*
X24906580Y-11519285D01*
X24906580Y-11519285D02*
X24846103Y-11398333D01*
X24846103Y-11398333D02*
X24785627Y-11337856D01*
X24785627Y-11337856D02*
X24664675Y-11277380D01*
X24664675Y-11277380D02*
X24543722Y-11277380D01*
X24543722Y-11277380D02*
X24422770Y-11337856D01*
X24422770Y-11337856D02*
X24362294Y-11398333D01*
X24362294Y-11398333D02*
X24301818Y-11519285D01*
X24301818Y-11519285D02*
X24301818Y-11821666D01*
X24301818Y-11821666D02*
X24362294Y-12003095D01*
X24301818Y-12426428D02*
X24301818Y-13212619D01*
X24301818Y-13212619D02*
X24785627Y-12789285D01*
X24785627Y-12789285D02*
X24785627Y-12970714D01*
X24785627Y-12970714D02*
X24846103Y-13091666D01*
X24846103Y-13091666D02*
X24906580Y-13152142D01*
X24906580Y-13152142D02*
X25027532Y-13212619D01*
X25027532Y-13212619D02*
X25329913Y-13212619D01*
X25329913Y-13212619D02*
X25450865Y-13152142D01*
X25450865Y-13152142D02*
X25511342Y-13091666D01*
X25511342Y-13091666D02*
X25571818Y-12970714D01*
X25571818Y-12970714D02*
X25571818Y-12607857D01*
X25571818Y-12607857D02*
X25511342Y-12486904D01*
X25511342Y-12486904D02*
X25450865Y-12426428D01*
D12*
X254642857Y-19659580D02*
X254690476Y-19707200D01*
X254690476Y-19707200D02*
X254833333Y-19754819D01*
X254833333Y-19754819D02*
X254928571Y-19754819D01*
X254928571Y-19754819D02*
X255071428Y-19707200D01*
X255071428Y-19707200D02*
X255166666Y-19611961D01*
X255166666Y-19611961D02*
X255214285Y-19516723D01*
X255214285Y-19516723D02*
X255261904Y-19326247D01*
X255261904Y-19326247D02*
X255261904Y-19183390D01*
X255261904Y-19183390D02*
X255214285Y-18992914D01*
X255214285Y-18992914D02*
X255166666Y-18897676D01*
X255166666Y-18897676D02*
X255071428Y-18802438D01*
X255071428Y-18802438D02*
X254928571Y-18754819D01*
X254928571Y-18754819D02*
X254833333Y-18754819D01*
X254833333Y-18754819D02*
X254690476Y-18802438D01*
X254690476Y-18802438D02*
X254642857Y-18850057D01*
X253785714Y-18754819D02*
X253976190Y-18754819D01*
X253976190Y-18754819D02*
X254071428Y-18802438D01*
X254071428Y-18802438D02*
X254119047Y-18850057D01*
X254119047Y-18850057D02*
X254214285Y-18992914D01*
X254214285Y-18992914D02*
X254261904Y-19183390D01*
X254261904Y-19183390D02*
X254261904Y-19564342D01*
X254261904Y-19564342D02*
X254214285Y-19659580D01*
X254214285Y-19659580D02*
X254166666Y-19707200D01*
X254166666Y-19707200D02*
X254071428Y-19754819D01*
X254071428Y-19754819D02*
X253880952Y-19754819D01*
X253880952Y-19754819D02*
X253785714Y-19707200D01*
X253785714Y-19707200D02*
X253738095Y-19659580D01*
X253738095Y-19659580D02*
X253690476Y-19564342D01*
X253690476Y-19564342D02*
X253690476Y-19326247D01*
X253690476Y-19326247D02*
X253738095Y-19231009D01*
X253738095Y-19231009D02*
X253785714Y-19183390D01*
X253785714Y-19183390D02*
X253880952Y-19135771D01*
X253880952Y-19135771D02*
X254071428Y-19135771D01*
X254071428Y-19135771D02*
X254166666Y-19183390D01*
X254166666Y-19183390D02*
X254214285Y-19231009D01*
X254214285Y-19231009D02*
X254261904Y-19326247D01*
X252833333Y-19088152D02*
X252833333Y-19754819D01*
X253071428Y-18707200D02*
X253309523Y-19421485D01*
X253309523Y-19421485D02*
X252690476Y-19421485D01*
X10392857Y-21059580D02*
X10440476Y-21107200D01*
X10440476Y-21107200D02*
X10583333Y-21154819D01*
X10583333Y-21154819D02*
X10678571Y-21154819D01*
X10678571Y-21154819D02*
X10821428Y-21107200D01*
X10821428Y-21107200D02*
X10916666Y-21011961D01*
X10916666Y-21011961D02*
X10964285Y-20916723D01*
X10964285Y-20916723D02*
X11011904Y-20726247D01*
X11011904Y-20726247D02*
X11011904Y-20583390D01*
X11011904Y-20583390D02*
X10964285Y-20392914D01*
X10964285Y-20392914D02*
X10916666Y-20297676D01*
X10916666Y-20297676D02*
X10821428Y-20202438D01*
X10821428Y-20202438D02*
X10678571Y-20154819D01*
X10678571Y-20154819D02*
X10583333Y-20154819D01*
X10583333Y-20154819D02*
X10440476Y-20202438D01*
X10440476Y-20202438D02*
X10392857Y-20250057D01*
X10059523Y-20154819D02*
X9440476Y-20154819D01*
X9440476Y-20154819D02*
X9773809Y-20535771D01*
X9773809Y-20535771D02*
X9630952Y-20535771D01*
X9630952Y-20535771D02*
X9535714Y-20583390D01*
X9535714Y-20583390D02*
X9488095Y-20631009D01*
X9488095Y-20631009D02*
X9440476Y-20726247D01*
X9440476Y-20726247D02*
X9440476Y-20964342D01*
X9440476Y-20964342D02*
X9488095Y-21059580D01*
X9488095Y-21059580D02*
X9535714Y-21107200D01*
X9535714Y-21107200D02*
X9630952Y-21154819D01*
X9630952Y-21154819D02*
X9916666Y-21154819D01*
X9916666Y-21154819D02*
X10011904Y-21107200D01*
X10011904Y-21107200D02*
X10059523Y-21059580D01*
X9107142Y-20154819D02*
X8488095Y-20154819D01*
X8488095Y-20154819D02*
X8821428Y-20535771D01*
X8821428Y-20535771D02*
X8678571Y-20535771D01*
X8678571Y-20535771D02*
X8583333Y-20583390D01*
X8583333Y-20583390D02*
X8535714Y-20631009D01*
X8535714Y-20631009D02*
X8488095Y-20726247D01*
X8488095Y-20726247D02*
X8488095Y-20964342D01*
X8488095Y-20964342D02*
X8535714Y-21059580D01*
X8535714Y-21059580D02*
X8583333Y-21107200D01*
X8583333Y-21107200D02*
X8678571Y-21154819D01*
X8678571Y-21154819D02*
X8964285Y-21154819D01*
X8964285Y-21154819D02*
X9059523Y-21107200D01*
X9059523Y-21107200D02*
X9107142Y-21059580D01*
X165642857Y-25659580D02*
X165690476Y-25707200D01*
X165690476Y-25707200D02*
X165833333Y-25754819D01*
X165833333Y-25754819D02*
X165928571Y-25754819D01*
X165928571Y-25754819D02*
X166071428Y-25707200D01*
X166071428Y-25707200D02*
X166166666Y-25611961D01*
X166166666Y-25611961D02*
X166214285Y-25516723D01*
X166214285Y-25516723D02*
X166261904Y-25326247D01*
X166261904Y-25326247D02*
X166261904Y-25183390D01*
X166261904Y-25183390D02*
X166214285Y-24992914D01*
X166214285Y-24992914D02*
X166166666Y-24897676D01*
X166166666Y-24897676D02*
X166071428Y-24802438D01*
X166071428Y-24802438D02*
X165928571Y-24754819D01*
X165928571Y-24754819D02*
X165833333Y-24754819D01*
X165833333Y-24754819D02*
X165690476Y-24802438D01*
X165690476Y-24802438D02*
X165642857Y-24850057D01*
X164785714Y-25088152D02*
X164785714Y-25754819D01*
X165023809Y-24707200D02*
X165261904Y-25421485D01*
X165261904Y-25421485D02*
X164642857Y-25421485D01*
X163738095Y-25754819D02*
X164309523Y-25754819D01*
X164023809Y-25754819D02*
X164023809Y-24754819D01*
X164023809Y-24754819D02*
X164119047Y-24897676D01*
X164119047Y-24897676D02*
X164214285Y-24992914D01*
X164214285Y-24992914D02*
X164309523Y-25040533D01*
X157059580Y-21357142D02*
X157107200Y-21309523D01*
X157107200Y-21309523D02*
X157154819Y-21166666D01*
X157154819Y-21166666D02*
X157154819Y-21071428D01*
X157154819Y-21071428D02*
X157107200Y-20928571D01*
X157107200Y-20928571D02*
X157011961Y-20833333D01*
X157011961Y-20833333D02*
X156916723Y-20785714D01*
X156916723Y-20785714D02*
X156726247Y-20738095D01*
X156726247Y-20738095D02*
X156583390Y-20738095D01*
X156583390Y-20738095D02*
X156392914Y-20785714D01*
X156392914Y-20785714D02*
X156297676Y-20833333D01*
X156297676Y-20833333D02*
X156202438Y-20928571D01*
X156202438Y-20928571D02*
X156154819Y-21071428D01*
X156154819Y-21071428D02*
X156154819Y-21166666D01*
X156154819Y-21166666D02*
X156202438Y-21309523D01*
X156202438Y-21309523D02*
X156250057Y-21357142D01*
X156488152Y-22214285D02*
X157154819Y-22214285D01*
X156107200Y-21976190D02*
X156821485Y-21738095D01*
X156821485Y-21738095D02*
X156821485Y-22357142D01*
X156154819Y-22642857D02*
X156154819Y-23309523D01*
X156154819Y-23309523D02*
X157154819Y-22880952D01*
%TO.C,C39*%
D14*
X157640000Y-33148752D02*
X157640000Y-31726248D01*
X160360000Y-33148752D02*
X160360000Y-31726248D01*
%TO.C,C3*%
X67390000Y-32961252D02*
X67390000Y-31538748D01*
X70110000Y-32961252D02*
X70110000Y-31538748D01*
%TO.C,C59*%
X215640000Y-21288748D02*
X215640000Y-22711252D01*
X218360000Y-21288748D02*
X218360000Y-22711252D01*
%TO.C,C67*%
X225640000Y-23711252D02*
X225640000Y-22288748D01*
X228360000Y-23711252D02*
X228360000Y-22288748D01*
%TO.C,C71*%
X247640000Y-21288748D02*
X247640000Y-22711252D01*
X250360000Y-21288748D02*
X250360000Y-22711252D01*
%TO.C,C27*%
X29288748Y-35640000D02*
X30711252Y-35640000D01*
X29288748Y-38360000D02*
X30711252Y-38360000D01*
%TO.C,C43*%
X137038748Y-21640000D02*
X138461252Y-21640000D01*
X137038748Y-24360000D02*
X138461252Y-24360000D01*
%TO.C,C37*%
X36711252Y-12640000D02*
X35288748Y-12640000D01*
X36711252Y-15360000D02*
X35288748Y-15360000D01*
%TO.C,C49*%
X159711252Y-12640000D02*
X158288748Y-12640000D01*
X159711252Y-15360000D02*
X158288748Y-15360000D01*
%TO.C,C68*%
X253640000Y-21288748D02*
X253640000Y-22711252D01*
X256360000Y-21288748D02*
X256360000Y-22711252D01*
%TO.C,C15*%
X126288748Y-31140000D02*
X127711252Y-31140000D01*
X126288748Y-33860000D02*
X127711252Y-33860000D01*
%TO.C,C7*%
X46140000Y-22773752D02*
X46140000Y-21351248D01*
X48860000Y-22773752D02*
X48860000Y-21351248D01*
%TO.C,R2*%
X231026263Y-41145000D02*
X232473737Y-41145000D01*
X231026263Y-43855000D02*
X232473737Y-43855000D01*
%TO.C,C11*%
X67640000Y-21288748D02*
X67640000Y-22711252D01*
X70360000Y-21288748D02*
X70360000Y-22711252D01*
%TO.C,C73*%
X248711252Y-13640000D02*
X247288748Y-13640000D01*
X248711252Y-16360000D02*
X247288748Y-16360000D01*
%TO.C,C50*%
X215390000Y-31788748D02*
X215390000Y-33211252D01*
X218110000Y-31788748D02*
X218110000Y-33211252D01*
%TO.C,C28*%
X10711252Y-16640000D02*
X9288748Y-16640000D01*
X10711252Y-19360000D02*
X9288748Y-19360000D01*
%TO.C,C5*%
X75711252Y-18640000D02*
X74288748Y-18640000D01*
X75711252Y-21360000D02*
X74288748Y-21360000D01*
%TO.C,PS4*%
D15*
X139315000Y-34110000D02*
X139315000Y-34110000D01*
X139315000Y-34110000D02*
X139315000Y-34110000D01*
X139415000Y-34110000D02*
X139415000Y-34110000D01*
D10*
X140515000Y-15140000D02*
X155510000Y-15140000D01*
X140515000Y-30290000D02*
X140515000Y-21540000D01*
X140515000Y-35040000D02*
X155510000Y-35080000D01*
X140520000Y-16790000D02*
X140515000Y-15140000D01*
X155510000Y-15140000D02*
X155510000Y-16790000D01*
X155515000Y-30290000D02*
X155510000Y-21540000D01*
D15*
X139315000Y-34110000D02*
G75*
G02*
X139415000Y-34110000I50000J0D01*
G01*
X139315000Y-34110000D02*
G75*
G02*
X139415000Y-34110000I50000J0D01*
G01*
X139415000Y-34110000D02*
G75*
G02*
X139315000Y-34110000I-50000J0D01*
G01*
%TO.C,C63*%
D14*
X241288748Y-35640000D02*
X242711252Y-35640000D01*
X241288748Y-38360000D02*
X242711252Y-38360000D01*
%TO.C,C13*%
X69273752Y-12640000D02*
X67851248Y-12640000D01*
X69273752Y-15360000D02*
X67851248Y-15360000D01*
%TO.C,C21*%
X100711252Y-16640000D02*
X99288748Y-16640000D01*
X100711252Y-19360000D02*
X99288748Y-19360000D01*
%TO.C,PS5*%
D15*
X196300000Y-34110000D02*
X196300000Y-34110000D01*
X196300000Y-34110000D02*
X196300000Y-34110000D01*
X196400000Y-34110000D02*
X196400000Y-34110000D01*
D10*
X197500000Y-15140000D02*
X212495000Y-15140000D01*
X197500000Y-30290000D02*
X197500000Y-21540000D01*
X197500000Y-35040000D02*
X212495000Y-35080000D01*
X197505000Y-16790000D02*
X197500000Y-15140000D01*
X212495000Y-15140000D02*
X212495000Y-16790000D01*
X212500000Y-30290000D02*
X212495000Y-21540000D01*
D15*
X196300000Y-34110000D02*
G75*
G02*
X196400000Y-34110000I50000J0D01*
G01*
X196300000Y-34110000D02*
G75*
G02*
X196400000Y-34110000I50000J0D01*
G01*
X196400000Y-34110000D02*
G75*
G02*
X196300000Y-34110000I-50000J0D01*
G01*
%TO.C,R1*%
D14*
X239723737Y-39645000D02*
X238276263Y-39645000D01*
X239723737Y-42355000D02*
X238276263Y-42355000D01*
%TO.C,C25*%
X126711252Y-12640000D02*
X125288748Y-12640000D01*
X126711252Y-15360000D02*
X125288748Y-15360000D01*
%TO.C,PS1*%
D15*
X49315000Y-34110000D02*
X49315000Y-34110000D01*
X49315000Y-34110000D02*
X49315000Y-34110000D01*
X49415000Y-34110000D02*
X49415000Y-34110000D01*
D10*
X50515000Y-15140000D02*
X65510000Y-15140000D01*
X50515000Y-30290000D02*
X50515000Y-21540000D01*
X50515000Y-35040000D02*
X65510000Y-35080000D01*
X50520000Y-16790000D02*
X50515000Y-15140000D01*
X65510000Y-15140000D02*
X65510000Y-16790000D01*
X65515000Y-30290000D02*
X65510000Y-21540000D01*
D15*
X49315000Y-34110000D02*
G75*
G02*
X49415000Y-34110000I50000J0D01*
G01*
X49315000Y-34110000D02*
G75*
G02*
X49415000Y-34110000I50000J0D01*
G01*
X49415000Y-34110000D02*
G75*
G02*
X49315000Y-34110000I-50000J0D01*
G01*
%TO.C,C31*%
D14*
X14288748Y-21640000D02*
X15711252Y-21640000D01*
X14288748Y-24360000D02*
X15711252Y-24360000D01*
%TO.C,C19*%
X103726248Y-21640000D02*
X105148752Y-21640000D01*
X103726248Y-24360000D02*
X105148752Y-24360000D01*
%TO.C,C55*%
X193976248Y-21640000D02*
X195398752Y-21640000D01*
X193976248Y-24360000D02*
X195398752Y-24360000D01*
%TO.C,PS2*%
D15*
X106300000Y-34070000D02*
X106300000Y-34070000D01*
X106300000Y-34070000D02*
X106300000Y-34070000D01*
X106400000Y-34070000D02*
X106400000Y-34070000D01*
D10*
X107500000Y-15100000D02*
X122495000Y-15100000D01*
X107500000Y-30250000D02*
X107500000Y-21500000D01*
X107500000Y-35000000D02*
X122495000Y-35040000D01*
X107505000Y-16750000D02*
X107500000Y-15100000D01*
X122495000Y-15100000D02*
X122495000Y-16750000D01*
X122500000Y-30250000D02*
X122495000Y-21500000D01*
D15*
X106300000Y-34070000D02*
G75*
G02*
X106400000Y-34070000I50000J0D01*
G01*
X106300000Y-34070000D02*
G75*
G02*
X106400000Y-34070000I50000J0D01*
G01*
X106400000Y-34070000D02*
G75*
G02*
X106300000Y-34070000I-50000J0D01*
G01*
%TO.C,C56*%
D14*
X189648752Y-21640000D02*
X188226248Y-21640000D01*
X189648752Y-24360000D02*
X188226248Y-24360000D01*
%TO.C,C35*%
X35640000Y-20288748D02*
X35640000Y-21711252D01*
X38360000Y-20288748D02*
X38360000Y-21711252D01*
%TO.C,C61*%
X216711252Y-12640000D02*
X215288748Y-12640000D01*
X216711252Y-15360000D02*
X215288748Y-15360000D01*
%TO.C,C23*%
X125640000Y-21288748D02*
X125640000Y-22711252D01*
X128360000Y-21288748D02*
X128360000Y-22711252D01*
%TO.C,PS6*%
D15*
X228285000Y-34070000D02*
X228285000Y-34070000D01*
X228285000Y-34070000D02*
X228285000Y-34070000D01*
X228385000Y-34070000D02*
X228385000Y-34070000D01*
D10*
X229485000Y-15100000D02*
X244480000Y-15100000D01*
X229485000Y-30250000D02*
X229485000Y-21500000D01*
X229485000Y-35000000D02*
X244480000Y-35040000D01*
X229490000Y-16750000D02*
X229485000Y-15100000D01*
X244480000Y-15100000D02*
X244480000Y-16750000D01*
X244485000Y-30250000D02*
X244480000Y-21500000D01*
D15*
X228285000Y-34070000D02*
G75*
G02*
X228385000Y-34070000I50000J0D01*
G01*
X228285000Y-34070000D02*
G75*
G02*
X228385000Y-34070000I50000J0D01*
G01*
X228385000Y-34070000D02*
G75*
G02*
X228285000Y-34070000I-50000J0D01*
G01*
%TO.C,PS3*%
X16300000Y-34110000D02*
X16300000Y-34110000D01*
X16300000Y-34110000D02*
X16300000Y-34110000D01*
X16400000Y-34110000D02*
X16400000Y-34110000D01*
D10*
X17500000Y-15140000D02*
X32495000Y-15140000D01*
X17500000Y-30290000D02*
X17500000Y-21540000D01*
X17500000Y-35040000D02*
X32495000Y-35080000D01*
X17505000Y-16790000D02*
X17500000Y-15140000D01*
X32495000Y-15140000D02*
X32495000Y-16790000D01*
X32500000Y-30290000D02*
X32495000Y-21540000D01*
D15*
X16300000Y-34110000D02*
G75*
G02*
X16400000Y-34110000I50000J0D01*
G01*
X16300000Y-34110000D02*
G75*
G02*
X16400000Y-34110000I50000J0D01*
G01*
X16400000Y-34110000D02*
G75*
G02*
X16300000Y-34110000I-50000J0D01*
G01*
%TO.C,C64*%
D14*
X253288748Y-15640000D02*
X254711252Y-15640000D01*
X253288748Y-18360000D02*
X254711252Y-18360000D01*
%TO.C,C33*%
X10461252Y-21640000D02*
X9038748Y-21640000D01*
X10461252Y-24360000D02*
X9038748Y-24360000D01*
%TO.C,C41*%
X164288748Y-21640000D02*
X165711252Y-21640000D01*
X164288748Y-24360000D02*
X165711252Y-24360000D01*
%TO.C,C47*%
X157640000Y-21288748D02*
X157640000Y-22711252D01*
X160360000Y-21288748D02*
X160360000Y-22711252D01*
%TD*%
M02*
