%TF.GenerationSoftware,KiCad,Pcbnew,9.0.1*%
%TF.CreationDate,2026-02-06T20:35:43-08:00*%
%TF.ProjectId,GateDriver,47617465-4472-4697-9665-722e6b696361,rev?*%
%TF.SameCoordinates,Original*%
%TF.FileFunction,Copper,L1,Top*%
%TF.FilePolarity,Positive*%
%FSLAX46Y46*%
G04 Gerber Fmt 4.6, Leading zero omitted, Abs format (unit mm)*
G04 Created by KiCad (PCBNEW 9.0.1) date 2026-02-06 20:35:43*
%MOMM*%
%LPD*%
G01*
G04 APERTURE LIST*
G04 Aperture macros list*
%AMRoundRect*
0 Rectangle with rounded corners*
0 $1 Rounding radius*
0 $2 $3 $4 $5 $6 $7 $8 $9 X,Y pos of 4 corners*
0 Add a 4 corners polygon primitive as box body*
4,1,4,$2,$3,$4,$5,$6,$7,$8,$9,$2,$3,0*
0 Add four circle primitives for the rounded corners*
1,1,$1+$1,$2,$3*
1,1,$1+$1,$4,$5*
1,1,$1+$1,$6,$7*
1,1,$1+$1,$8,$9*
0 Add four rect primitives between the rounded corners*
20,1,$1+$1,$2,$3,$4,$5,0*
20,1,$1+$1,$4,$5,$6,$7,0*
20,1,$1+$1,$6,$7,$8,$9,0*
20,1,$1+$1,$8,$9,$2,$3,0*%
G04 Aperture macros list end*
%TA.AperFunction,SMDPad,CuDef*%
%ADD10R,1.550000X2.350000*%
%TD*%
%TA.AperFunction,SMDPad,CuDef*%
%ADD11RoundRect,0.250000X-0.412500X-1.100000X0.412500X-1.100000X0.412500X1.100000X-0.412500X1.100000X0*%
%TD*%
%TA.AperFunction,SMDPad,CuDef*%
%ADD12RoundRect,0.250000X0.400000X1.075000X-0.400000X1.075000X-0.400000X-1.075000X0.400000X-1.075000X0*%
%TD*%
%TA.AperFunction,SMDPad,CuDef*%
%ADD13RoundRect,0.250000X0.412500X1.100000X-0.412500X1.100000X-0.412500X-1.100000X0.412500X-1.100000X0*%
%TD*%
%TA.AperFunction,SMDPad,CuDef*%
%ADD14RoundRect,0.250000X-1.075000X0.400000X-1.075000X-0.400000X1.075000X-0.400000X1.075000X0.400000X0*%
%TD*%
%TA.AperFunction,SMDPad,CuDef*%
%ADD15RoundRect,0.250000X1.075000X-0.400000X1.075000X0.400000X-1.075000X0.400000X-1.075000X-0.400000X0*%
%TD*%
%TA.AperFunction,SMDPad,CuDef*%
%ADD16R,0.650000X1.925000*%
%TD*%
%TA.AperFunction,SMDPad,CuDef*%
%ADD17R,1.000000X1.750000*%
%TD*%
%TA.AperFunction,ComponentPad*%
%ADD18C,3.000000*%
%TD*%
%TA.AperFunction,SMDPad,CuDef*%
%ADD19R,1.850000X3.500000*%
%TD*%
%TA.AperFunction,SMDPad,CuDef*%
%ADD20RoundRect,0.250000X-1.100000X0.412500X-1.100000X-0.412500X1.100000X-0.412500X1.100000X0.412500X0*%
%TD*%
%TA.AperFunction,SMDPad,CuDef*%
%ADD21R,1.000000X0.950000*%
%TD*%
%TA.AperFunction,ComponentPad*%
%ADD22R,3.000000X6.000000*%
%TD*%
%TA.AperFunction,SMDPad,CuDef*%
%ADD23RoundRect,0.250000X1.100000X-0.412500X1.100000X0.412500X-1.100000X0.412500X-1.100000X-0.412500X0*%
%TD*%
%TA.AperFunction,ComponentPad*%
%ADD24C,4.400000*%
%TD*%
%TA.AperFunction,ComponentPad*%
%ADD25R,1.700000X1.700000*%
%TD*%
%TA.AperFunction,ComponentPad*%
%ADD26C,1.700000*%
%TD*%
%TA.AperFunction,SMDPad,CuDef*%
%ADD27R,0.500000X1.075000*%
%TD*%
%TA.AperFunction,SMDPad,CuDef*%
%ADD28RoundRect,0.250000X-0.400000X-1.075000X0.400000X-1.075000X0.400000X1.075000X-0.400000X1.075000X0*%
%TD*%
%TA.AperFunction,ViaPad*%
%ADD29C,0.600000*%
%TD*%
%TA.AperFunction,Conductor*%
%ADD30C,0.250000*%
%TD*%
%TA.AperFunction,Conductor*%
%ADD31C,0.350000*%
%TD*%
%TA.AperFunction,Conductor*%
%ADD32C,0.500000*%
%TD*%
G04 APERTURE END LIST*
D10*
%TO.P,D2,1,K*%
%TO.N,/PH_L_C*%
X72000000Y-23850000D03*
%TO.P,D2,2,A*%
%TO.N,Net-(D2-A)*%
X72000000Y-28150000D03*
%TD*%
D11*
%TO.P,C2,1*%
%TO.N,/+3.3V_A*%
X50937500Y-52000000D03*
%TO.P,C2,2*%
%TO.N,/GND_A*%
X54062500Y-52000000D03*
%TD*%
D12*
%TO.P,R22,1*%
%TO.N,/SingleChannelDriver/+15V_B*%
X11000000Y-28000000D03*
%TO.P,R22,2*%
%TO.N,Net-(IC2-DESAT)*%
X7900000Y-28000000D03*
%TD*%
D13*
%TO.P,C1,1*%
%TO.N,/GND_A*%
X54062500Y-48500000D03*
%TO.P,C1,2*%
%TO.N,/+3.3V_A*%
X50937500Y-48500000D03*
%TD*%
D14*
%TO.P,R10,1*%
%TO.N,Net-(FB1-Pad2)*%
X52000000Y-18450000D03*
%TO.P,R10,2*%
%TO.N,Net-(D1-K)*%
X52000000Y-21550000D03*
%TD*%
D15*
%TO.P,R2,1*%
%TO.N,/RESET*%
X40000000Y-52250000D03*
%TO.P,R2,2*%
%TO.N,/+3.3V_A*%
X40000000Y-49150000D03*
%TD*%
D11*
%TO.P,C6,1*%
%TO.N,/SingleChannelDriver1/-9V_B*%
X59437500Y-35000000D03*
%TO.P,C6,2*%
%TO.N,/SingleChannelDriver1/GND_B*%
X62562500Y-35000000D03*
%TD*%
D16*
%TO.P,IC1,1,VI+*%
%TO.N,/PH_L*%
X48055000Y-44712000D03*
%TO.P,IC1,2,VI-*%
%TO.N,/PH_H*%
X49325000Y-44712000D03*
%TO.P,IC1,3,VDD1*%
%TO.N,/+3.3V_A*%
X50595000Y-44712000D03*
%TO.P,IC1,4,VSS1_1*%
%TO.N,/GND_A*%
X51865000Y-44712000D03*
%TO.P,IC1,5,~{RESET}*%
%TO.N,/RESET*%
X53135000Y-44712000D03*
%TO.P,IC1,6,~{FAULT}*%
%TO.N,/FAULT*%
X54405000Y-44712000D03*
%TO.P,IC1,7,READY*%
%TO.N,/READY*%
X55675000Y-44712000D03*
%TO.P,IC1,8,VSS1_2*%
%TO.N,/GND_A*%
X56945000Y-44712000D03*
%TO.P,IC1,9,VSS2_1*%
%TO.N,/SingleChannelDriver1/-9V_B*%
X56945000Y-35288000D03*
%TO.P,IC1,10,VSS2_2*%
X55675000Y-35288000D03*
%TO.P,IC1,11,VOUT*%
%TO.N,Net-(D1-K)*%
X54405000Y-35288000D03*
%TO.P,IC1,12,VDD2_1*%
%TO.N,/SingleChannelDriver1/+15V_B*%
X53135000Y-35288000D03*
%TO.P,IC1,13,VDD2_2*%
X51865000Y-35288000D03*
%TO.P,IC1,14,DESAT*%
%TO.N,Net-(IC1-DESAT)*%
X50595000Y-35288000D03*
%TO.P,IC1,15,VSS2_3*%
%TO.N,/SingleChannelDriver1/-9V_B*%
X49325000Y-35288000D03*
%TO.P,IC1,16,GND2*%
%TO.N,/SingleChannelDriver1/GND_B*%
X48055000Y-35288000D03*
%TD*%
D17*
%TO.P,LED5,1,K*%
%TO.N,/GND_A*%
X2000000Y-45000000D03*
%TO.P,LED5,2,A*%
%TO.N,Net-(LED5-A)*%
X5000000Y-45000000D03*
%TD*%
D18*
%TO.P,TP2,1,1*%
%TO.N,/RESET*%
X15000000Y-56500000D03*
%TD*%
D19*
%TO.P,C3,1,+*%
%TO.N,/+12V_A*%
X59500000Y-52200000D03*
%TO.P,C3,2,-*%
%TO.N,/GND_A*%
X59500000Y-57500000D03*
%TD*%
D20*
%TO.P,C8,1*%
%TO.N,/SingleChannelDriver1/+15V_B*%
X67000000Y-32500000D03*
%TO.P,C8,2*%
%TO.N,/SingleChannelDriver1/-9V_B*%
X67000000Y-35625000D03*
%TD*%
D11*
%TO.P,C15,1*%
%TO.N,/+3.3V_A*%
X22500000Y-48500000D03*
%TO.P,C15,2*%
%TO.N,/GND_A*%
X25625000Y-48500000D03*
%TD*%
D15*
%TO.P,R1,1*%
%TO.N,/READY*%
X35000000Y-52500000D03*
%TO.P,R1,2*%
%TO.N,/+3.3V_A*%
X35000000Y-49400000D03*
%TD*%
D21*
%TO.P,FB1,1,1*%
%TO.N,/PH_L_G*%
X52000000Y-15200000D03*
%TO.P,FB1,2,2*%
%TO.N,Net-(FB1-Pad2)*%
X52000000Y-16800000D03*
%TD*%
D13*
%TO.P,C21,1*%
%TO.N,/SingleChannelDriver/+15V_B*%
X32562500Y-24500000D03*
%TO.P,C21,2*%
%TO.N,/SingleChannelDriver/-9V_B*%
X29437500Y-24500000D03*
%TD*%
D18*
%TO.P,TP1,1,1*%
%TO.N,/READY*%
X25000000Y-56500000D03*
%TD*%
D16*
%TO.P,IC2,1,VI+*%
%TO.N,/PH_H*%
X19617500Y-44712000D03*
%TO.P,IC2,2,VI-*%
%TO.N,/PH_L*%
X20887500Y-44712000D03*
%TO.P,IC2,3,VDD1*%
%TO.N,/+3.3V_A*%
X22157500Y-44712000D03*
%TO.P,IC2,4,VSS1_1*%
%TO.N,/GND_A*%
X23427500Y-44712000D03*
%TO.P,IC2,5,~{RESET}*%
%TO.N,/RESET*%
X24697500Y-44712000D03*
%TO.P,IC2,6,~{FAULT}*%
%TO.N,/FAULT*%
X25967500Y-44712000D03*
%TO.P,IC2,7,READY*%
%TO.N,/READY*%
X27237500Y-44712000D03*
%TO.P,IC2,8,VSS1_2*%
%TO.N,/GND_A*%
X28507500Y-44712000D03*
%TO.P,IC2,9,VSS2_1*%
%TO.N,/SingleChannelDriver/-9V_B*%
X28507500Y-35288000D03*
%TO.P,IC2,10,VSS2_2*%
X27237500Y-35288000D03*
%TO.P,IC2,11,VOUT*%
%TO.N,Net-(D3-K)*%
X25967500Y-35288000D03*
%TO.P,IC2,12,VDD2_1*%
%TO.N,/SingleChannelDriver/+15V_B*%
X24697500Y-35288000D03*
%TO.P,IC2,13,VDD2_2*%
X23427500Y-35288000D03*
%TO.P,IC2,14,DESAT*%
%TO.N,Net-(IC2-DESAT)*%
X22157500Y-35288000D03*
%TO.P,IC2,15,VSS2_3*%
%TO.N,/SingleChannelDriver/-9V_B*%
X20887500Y-35288000D03*
%TO.P,IC2,16,GND2*%
%TO.N,/SingleChannelDriver/GND_B*%
X19617500Y-35288000D03*
%TD*%
D13*
%TO.P,C14,1*%
%TO.N,/GND_A*%
X25625000Y-52000000D03*
%TO.P,C14,2*%
%TO.N,/+3.3V_A*%
X22500000Y-52000000D03*
%TD*%
%TO.P,C23,1*%
%TO.N,/SingleChannelDriver/+15V_B*%
X24562500Y-28500000D03*
%TO.P,C23,2*%
%TO.N,/SingleChannelDriver/-9V_B*%
X21437500Y-28500000D03*
%TD*%
D18*
%TO.P,TP5,1,1*%
%TO.N,/PH_H*%
X35750000Y-44750000D03*
%TD*%
%TO.P,TP6,1,1*%
%TO.N,/PH_L*%
X40250000Y-44750000D03*
%TD*%
D22*
%TO.P,Q1,1,LOW_GATE*%
%TO.N,/PH_L_G*%
X51000000Y-6300000D03*
%TO.P,Q1,2,LOW_EMITTER*%
%TO.N,/SingleChannelDriver1/GND_B*%
X45000000Y-6300000D03*
%TO.P,Q1,3,HIGH_GATE*%
%TO.N,/PH_H_G*%
X24000000Y-6300000D03*
%TO.P,Q1,4,HIGH_EMITTER*%
%TO.N,/SingleChannelDriver/GND_B*%
X30000000Y-6300000D03*
%TD*%
D13*
%TO.P,C20,1*%
%TO.N,/SingleChannelDriver/+15V_B*%
X32562500Y-21000000D03*
%TO.P,C20,2*%
%TO.N,/SingleChannelDriver/-9V_B*%
X29437500Y-21000000D03*
%TD*%
D20*
%TO.P,C7,1*%
%TO.N,/SingleChannelDriver1/+15V_B*%
X71500000Y-32437500D03*
%TO.P,C7,2*%
%TO.N,/SingleChannelDriver1/-9V_B*%
X71500000Y-35562500D03*
%TD*%
D21*
%TO.P,FB2,1,1*%
%TO.N,/PH_H_G*%
X21500000Y-14750000D03*
%TO.P,FB2,2,2*%
%TO.N,Net-(FB2-Pad2)*%
X21500000Y-16350000D03*
%TD*%
D23*
%TO.P,C5,1*%
%TO.N,/SingleChannelDriver1/GND_B*%
X45500000Y-35062500D03*
%TO.P,C5,2*%
%TO.N,/SingleChannelDriver1/+15V_B*%
X45500000Y-31937500D03*
%TD*%
D24*
%TO.P,H5,1,1*%
%TO.N,/PH_H_C*%
X3000000Y-19000000D03*
%TD*%
D25*
%TO.P,J1,1,Pin_1*%
%TO.N,/GND_A*%
X29750000Y-57790000D03*
D26*
%TO.P,J1,2,Pin_2*%
%TO.N,/FAULT*%
X29750000Y-55250000D03*
%TO.P,J1,3,Pin_3*%
%TO.N,/GND_A*%
X32290000Y-57790000D03*
%TO.P,J1,4,Pin_4*%
%TO.N,/READY*%
X32290000Y-55250000D03*
%TO.P,J1,5,Pin_5*%
%TO.N,/GND_A*%
X34830000Y-57790000D03*
%TO.P,J1,6,Pin_6*%
%TO.N,/RESET*%
X34830000Y-55250000D03*
%TO.P,J1,7,Pin_7*%
%TO.N,/GND_A*%
X37370000Y-57790000D03*
%TO.P,J1,8,Pin_8*%
X37370000Y-55250000D03*
%TO.P,J1,9,Pin_9*%
X39910000Y-57790000D03*
%TO.P,J1,10,Pin_10*%
%TO.N,/PH_L*%
X39910000Y-55250000D03*
%TO.P,J1,11,Pin_11*%
%TO.N,/GND_A*%
X42450000Y-57790000D03*
%TO.P,J1,12,Pin_12*%
%TO.N,/PH_H*%
X42450000Y-55250000D03*
%TO.P,J1,13,Pin_13*%
%TO.N,/GND_A*%
X44990000Y-57790000D03*
%TO.P,J1,14,Pin_14*%
%TO.N,/+3.3V_A*%
X44990000Y-55250000D03*
%TO.P,J1,15,Pin_15*%
%TO.N,/GND_A*%
X47530000Y-57790000D03*
%TO.P,J1,16,Pin_16*%
%TO.N,/+12V_A*%
X47530000Y-55250000D03*
%TD*%
D15*
%TO.P,R3,1*%
%TO.N,/FAULT*%
X30000000Y-52500000D03*
%TO.P,R3,2*%
%TO.N,/+3.3V_A*%
X30000000Y-49400000D03*
%TD*%
D20*
%TO.P,C17,1*%
%TO.N,/SingleChannelDriver/GND_B*%
X17000000Y-25437500D03*
%TO.P,C17,2*%
%TO.N,/SingleChannelDriver/+15V_B*%
X17000000Y-28562500D03*
%TD*%
D27*
%TO.P,D1,1,K*%
%TO.N,Net-(D1-K)*%
X49000000Y-22324000D03*
%TO.P,D1,2,A*%
%TO.N,Net-(D1-A)*%
X49000000Y-20000000D03*
%TD*%
D23*
%TO.P,C4,1*%
%TO.N,/SingleChannelDriver1/GND_B*%
X45500000Y-28562500D03*
%TO.P,C4,2*%
%TO.N,/SingleChannelDriver1/+15V_B*%
X45500000Y-25437500D03*
%TD*%
D14*
%TO.P,R14,1*%
%TO.N,/PH_L_G*%
X56000000Y-14450000D03*
%TO.P,R14,2*%
%TO.N,Net-(FB1-Pad2)*%
X56000000Y-17550000D03*
%TD*%
D28*
%TO.P,R12,1*%
%TO.N,/SingleChannelDriver1/+15V_B*%
X63900000Y-28000000D03*
%TO.P,R12,2*%
%TO.N,Net-(IC1-DESAT)*%
X67000000Y-28000000D03*
%TD*%
D14*
%TO.P,R20,1*%
%TO.N,Net-(FB2-Pad2)*%
X21500000Y-18000000D03*
%TO.P,R20,2*%
%TO.N,Net-(D3-K)*%
X21500000Y-21100000D03*
%TD*%
D11*
%TO.P,C19,1*%
%TO.N,/SingleChannelDriver/-9V_B*%
X29937500Y-35000000D03*
%TO.P,C19,2*%
%TO.N,/SingleChannelDriver/GND_B*%
X33062500Y-35000000D03*
%TD*%
%TO.P,C9,1*%
%TO.N,/SingleChannelDriver1/-9V_B*%
X49500000Y-32000000D03*
%TO.P,C9,2*%
%TO.N,/SingleChannelDriver1/+15V_B*%
X52625000Y-32000000D03*
%TD*%
D14*
%TO.P,R24,1*%
%TO.N,/PH_H_G*%
X18000000Y-14950000D03*
%TO.P,R24,2*%
%TO.N,Net-(FB2-Pad2)*%
X18000000Y-18050000D03*
%TD*%
D10*
%TO.P,D4,1,K*%
%TO.N,/PH_H_C*%
X3000000Y-23850000D03*
%TO.P,D4,2,A*%
%TO.N,Net-(D4-A)*%
X3000000Y-28150000D03*
%TD*%
D27*
%TO.P,D3,1,K*%
%TO.N,Net-(D3-K)*%
X25500000Y-21662000D03*
%TO.P,D3,2,A*%
%TO.N,Net-(D3-A)*%
X25500000Y-19338000D03*
%TD*%
D18*
%TO.P,TP4,1,1*%
%TO.N,/GND_A*%
X15000000Y-50000000D03*
%TD*%
D23*
%TO.P,C18,1*%
%TO.N,/SingleChannelDriver/GND_B*%
X17000000Y-34562500D03*
%TO.P,C18,2*%
%TO.N,/SingleChannelDriver/+15V_B*%
X17000000Y-31437500D03*
%TD*%
D18*
%TO.P,TP3,1,1*%
%TO.N,/FAULT*%
X20000000Y-56500000D03*
%TD*%
D13*
%TO.P,C10,1*%
%TO.N,/SingleChannelDriver1/+15V_B*%
X52562500Y-28500000D03*
%TO.P,C10,2*%
%TO.N,/SingleChannelDriver1/-9V_B*%
X49437500Y-28500000D03*
%TD*%
D17*
%TO.P,LED2,1,K*%
%TO.N,/GND_A*%
X73500000Y-45000000D03*
%TO.P,LED2,2,A*%
%TO.N,Net-(LED2-A)*%
X70500000Y-45000000D03*
%TD*%
D24*
%TO.P,H4,1,1*%
%TO.N,/PH_L_C*%
X72000000Y-19000000D03*
%TD*%
D11*
%TO.P,C22,1*%
%TO.N,/SingleChannelDriver/-9V_B*%
X21437500Y-32000000D03*
%TO.P,C22,2*%
%TO.N,/SingleChannelDriver/+15V_B*%
X24562500Y-32000000D03*
%TD*%
D29*
%TO.N,/GND_A*%
X28507500Y-44712000D03*
X54062500Y-52000000D03*
X52000000Y-46500000D03*
X28000000Y-49000000D03*
X32500000Y-49000000D03*
X25500000Y-53500000D03*
X59500000Y-57500000D03*
X25750000Y-50000000D03*
X42000000Y-49500000D03*
X23427500Y-44712000D03*
X56945000Y-44712000D03*
%TO.N,/+3.3V_A*%
X50595000Y-48000000D03*
X67950000Y-45000000D03*
X22500000Y-48500000D03*
X50937500Y-52000000D03*
X37250000Y-49500000D03*
X22500000Y-52000000D03*
%TO.N,/+12V_A*%
X59485000Y-46390000D03*
X59500000Y-50000000D03*
X7550000Y-45000000D03*
X31047500Y-46390000D03*
%TO.N,/SingleChannelDriver1/GND_B*%
X61500000Y-28000000D03*
X48055000Y-34500000D03*
X60500000Y-24500000D03*
X48000000Y-24500000D03*
%TO.N,/SingleChannelDriver1/+15V_B*%
X51865000Y-34500000D03*
X53135000Y-34500000D03*
X71500000Y-32437500D03*
X67000000Y-32437500D03*
X44000000Y-31937500D03*
X65500000Y-31500000D03*
X52625000Y-32000000D03*
X59485000Y-30390000D03*
X44000000Y-25000000D03*
%TO.N,/SingleChannelDriver1/-9V_B*%
X49500000Y-32000000D03*
X71500000Y-35562500D03*
X49437500Y-34500000D03*
X57000000Y-35288000D03*
X67000000Y-35562500D03*
X49437500Y-28500000D03*
X59437500Y-35000000D03*
X56000000Y-35288000D03*
%TO.N,Net-(IC1-DESAT)*%
X66500000Y-25500000D03*
X55500000Y-33000000D03*
X51000000Y-33000000D03*
X56000000Y-29500000D03*
%TO.N,/SingleChannelDriver/GND_B*%
X14500000Y-25500000D03*
X19617500Y-34500000D03*
X14500000Y-24500000D03*
%TO.N,/SingleChannelDriver/+15V_B*%
X23427500Y-34500000D03*
X24562500Y-34500000D03*
X32562500Y-24500000D03*
X15250000Y-27500000D03*
X32562500Y-21000000D03*
X31047500Y-30390000D03*
X14500000Y-31500000D03*
X15250000Y-27500000D03*
%TO.N,/SingleChannelDriver/-9V_B*%
X29437500Y-21250000D03*
X29937500Y-35000000D03*
X27237500Y-35288000D03*
X21437500Y-28500000D03*
X21437500Y-32000000D03*
X29394279Y-24478219D03*
X20887500Y-34500000D03*
X28500000Y-35288000D03*
%TO.N,Net-(IC2-DESAT)*%
X23000000Y-30250000D03*
X7900000Y-28000000D03*
%TO.N,Net-(D1-A)*%
X49000000Y-20000000D03*
%TO.N,Net-(D2-A)*%
X72100000Y-28000000D03*
%TO.N,Net-(D3-A)*%
X24500000Y-19100000D03*
%TO.N,Net-(D4-A)*%
X3000000Y-28150000D03*
%TO.N,Net-(FB1-Pad2)*%
X49000000Y-17000000D03*
%TO.N,Net-(FB2-Pad2)*%
X24500000Y-16000000D03*
%TO.N,/FAULT*%
X52900000Y-52969873D03*
X24250000Y-50500000D03*
X20000000Y-50500000D03*
X30000000Y-52550000D03*
%TO.N,/READY*%
X35000000Y-52500000D03*
X31750000Y-51125000D03*
X55500000Y-50250000D03*
X27250000Y-54750000D03*
X41744086Y-50949000D03*
X27237500Y-51000000D03*
%TO.N,/PH_H*%
X19750000Y-46250000D03*
X43500000Y-47250000D03*
X44000000Y-49000000D03*
X35750000Y-47250000D03*
X49000000Y-48750000D03*
%TO.N,/RESET*%
X52250000Y-53750000D03*
X18250000Y-49250000D03*
X23750000Y-49250000D03*
X40000000Y-50949000D03*
X40000000Y-52500000D03*
%TO.N,/PH_L*%
X40250000Y-48000000D03*
X20750000Y-47000000D03*
X48000000Y-48000000D03*
X42750000Y-48000000D03*
%TO.N,Net-(LED2-A)*%
X70500000Y-45000000D03*
%TO.N,Net-(LED5-A)*%
X5000000Y-45000000D03*
%TD*%
D30*
%TO.N,/GND_A*%
X51865000Y-44712000D02*
X51865000Y-46365000D01*
X51865000Y-46365000D02*
X52000000Y-46500000D01*
D31*
%TO.N,/+3.3V_A*%
X50595000Y-51657500D02*
X50937500Y-52000000D01*
X37250000Y-49500000D02*
X36500000Y-49500000D01*
X30650000Y-50050000D02*
X30000000Y-49400000D01*
X50595000Y-44712000D02*
X50595000Y-48000000D01*
X37250000Y-49500000D02*
X39650000Y-49500000D01*
X36500000Y-49500000D02*
X36400000Y-49400000D01*
X22157500Y-48157500D02*
X22500000Y-48500000D01*
X34350000Y-50050000D02*
X30650000Y-50050000D01*
X22157500Y-51657500D02*
X22500000Y-52000000D01*
X35000000Y-49400000D02*
X34350000Y-50050000D01*
X22157500Y-48842500D02*
X22157500Y-51657500D01*
X50595000Y-48000000D02*
X50595000Y-51657500D01*
X22500000Y-48500000D02*
X22157500Y-48842500D01*
X22157500Y-44712000D02*
X22157500Y-48157500D01*
X36400000Y-49400000D02*
X35000000Y-49400000D01*
X39650000Y-49500000D02*
X40000000Y-49150000D01*
%TO.N,/+12V_A*%
X59500000Y-52200000D02*
X59500000Y-50000000D01*
%TO.N,/SingleChannelDriver1/GND_B*%
X48055000Y-34500000D02*
X48055000Y-33055000D01*
X45000000Y-6300000D02*
X45000000Y-21500000D01*
X45000000Y-21500000D02*
X48000000Y-24500000D01*
X48055000Y-33055000D02*
X48000000Y-33000000D01*
X48055000Y-35288000D02*
X48055000Y-34500000D01*
%TO.N,/SingleChannelDriver1/+15V_B*%
X63900000Y-29900000D02*
X65500000Y-31500000D01*
X52625000Y-32000000D02*
X53135000Y-32510000D01*
X52562500Y-31937500D02*
X52625000Y-32000000D01*
X45500000Y-25437500D02*
X44437500Y-25437500D01*
X53135000Y-32510000D02*
X53135000Y-34500000D01*
X52562500Y-28500000D02*
X52562500Y-31937500D01*
X67062500Y-32437500D02*
X67000000Y-32500000D01*
X51865000Y-35288000D02*
X53135000Y-35288000D01*
X71500000Y-32437500D02*
X67062500Y-32437500D01*
X51865000Y-32760000D02*
X52625000Y-32000000D01*
X51865000Y-34500000D02*
X51865000Y-32760000D01*
X63900000Y-28000000D02*
X63900000Y-29900000D01*
X44437500Y-25437500D02*
X44000000Y-25000000D01*
X51865000Y-35288000D02*
X51865000Y-34500000D01*
X44000000Y-31937500D02*
X45500000Y-31937500D01*
X53135000Y-34500000D02*
X53135000Y-35288000D01*
%TO.N,/SingleChannelDriver1/-9V_B*%
X49437500Y-35175500D02*
X49325000Y-35288000D01*
X49437500Y-28500000D02*
X49437500Y-34500000D01*
X55675000Y-35288000D02*
X56000000Y-35288000D01*
X49437500Y-34500000D02*
X49437500Y-35175500D01*
X59149500Y-35288000D02*
X59437500Y-35000000D01*
X56000000Y-35288000D02*
X57000000Y-35288000D01*
X57000000Y-35288000D02*
X59149500Y-35288000D01*
X67000000Y-35625000D02*
X71437500Y-35625000D01*
X71437500Y-35625000D02*
X71500000Y-35562500D01*
%TO.N,Net-(IC1-DESAT)*%
X51000000Y-33009563D02*
X50595000Y-33414563D01*
X66500000Y-27500000D02*
X67000000Y-28000000D01*
X55500000Y-33000000D02*
X55500000Y-30000000D01*
X55500000Y-30000000D02*
X56000000Y-29500000D01*
X50595000Y-33414563D02*
X50595000Y-35288000D01*
X51000000Y-33000000D02*
X51000000Y-33009563D01*
X66500000Y-25500000D02*
X66500000Y-27500000D01*
%TO.N,/SingleChannelDriver/GND_B*%
X19617500Y-35288000D02*
X19617500Y-34500000D01*
X19617500Y-33117500D02*
X19500000Y-33000000D01*
X19617500Y-34500000D02*
X19617500Y-33117500D01*
%TO.N,/SingleChannelDriver/+15V_B*%
X16312500Y-28562500D02*
X17000000Y-28562500D01*
X14750000Y-28000000D02*
X15250000Y-27500000D01*
X11000000Y-28000000D02*
X14750000Y-28000000D01*
X14562500Y-31437500D02*
X14500000Y-31500000D01*
X23427500Y-33135000D02*
X24562500Y-32000000D01*
X23427500Y-34500000D02*
X23427500Y-33135000D01*
X24562500Y-34500000D02*
X24562500Y-35153000D01*
X23427500Y-35288000D02*
X23427500Y-34500000D01*
X15250000Y-27500000D02*
X16312500Y-28562500D01*
X24562500Y-28500000D02*
X24562500Y-34500000D01*
X24562500Y-35153000D02*
X24697500Y-35288000D01*
X17000000Y-31437500D02*
X14562500Y-31437500D01*
%TO.N,/SingleChannelDriver/-9V_B*%
X20887500Y-32550000D02*
X21437500Y-32000000D01*
X27237500Y-35288000D02*
X28500000Y-35288000D01*
X21437500Y-32000000D02*
X21437500Y-28500000D01*
X20887500Y-34500000D02*
X20887500Y-32550000D01*
X28500000Y-35288000D02*
X29649500Y-35288000D01*
X29649500Y-35288000D02*
X29937500Y-35000000D01*
X20887500Y-35288000D02*
X20887500Y-34500000D01*
%TO.N,Net-(IC2-DESAT)*%
X23000000Y-30250000D02*
X23000000Y-30876500D01*
X23000000Y-30876500D02*
X22750000Y-31126500D01*
X22750000Y-31126500D02*
X22750000Y-33250000D01*
X22750000Y-33250000D02*
X22157500Y-33842500D01*
X22157500Y-33842500D02*
X22157500Y-35288000D01*
%TO.N,Net-(D1-K)*%
X51226000Y-22324000D02*
X52000000Y-21550000D01*
X54405000Y-25405000D02*
X52000000Y-23000000D01*
X49000000Y-22324000D02*
X51226000Y-22324000D01*
X52000000Y-23000000D02*
X52000000Y-21550000D01*
X54405000Y-35288000D02*
X54405000Y-25405000D01*
%TO.N,/PH_L_C*%
X72000000Y-23850000D02*
X72000000Y-19000000D01*
%TO.N,Net-(D3-K)*%
X24938000Y-21100000D02*
X25500000Y-21662000D01*
X21500000Y-21100000D02*
X24938000Y-21100000D01*
X25967500Y-22129500D02*
X25500000Y-21662000D01*
X25967500Y-35288000D02*
X25967500Y-22129500D01*
%TO.N,Net-(D3-A)*%
X24738000Y-19338000D02*
X24500000Y-19100000D01*
X25500000Y-19338000D02*
X24738000Y-19338000D01*
%TO.N,/PH_H_C*%
X3000000Y-19000000D02*
X3000000Y-23850000D01*
%TO.N,/PH_L_G*%
X52000000Y-7300000D02*
X51000000Y-6300000D01*
X56000000Y-14450000D02*
X52750000Y-14450000D01*
X52000000Y-15200000D02*
X52000000Y-7300000D01*
X52750000Y-14450000D02*
X52000000Y-15200000D01*
%TO.N,Net-(FB1-Pad2)*%
X52000000Y-18450000D02*
X52000000Y-16800000D01*
X49200000Y-16800000D02*
X49000000Y-17000000D01*
X52000000Y-16800000D02*
X49200000Y-16800000D01*
X56000000Y-17550000D02*
X52900000Y-17550000D01*
X52900000Y-17550000D02*
X52000000Y-18450000D01*
%TO.N,Net-(FB2-Pad2)*%
X21450000Y-18050000D02*
X21500000Y-18000000D01*
X21500000Y-16350000D02*
X24150000Y-16350000D01*
X21500000Y-16350000D02*
X21500000Y-18000000D01*
X18000000Y-18050000D02*
X21450000Y-18050000D01*
X24150000Y-16350000D02*
X24500000Y-16000000D01*
%TO.N,/PH_H_G*%
X24000000Y-6300000D02*
X24000000Y-12250000D01*
X24000000Y-12250000D02*
X21500000Y-14750000D01*
X18000000Y-14950000D02*
X21300000Y-14950000D01*
X21300000Y-14950000D02*
X21500000Y-14750000D01*
D30*
%TO.N,/FAULT*%
X29800000Y-52700000D02*
X30000000Y-52500000D01*
X53000000Y-47318905D02*
X53000000Y-52869873D01*
X24376000Y-47124000D02*
X25967500Y-45532500D01*
X54405000Y-45823486D02*
X53000000Y-47228486D01*
X24250000Y-50500000D02*
X24376000Y-50374000D01*
X24376000Y-50374000D02*
X24376000Y-47124000D01*
X20000000Y-50500000D02*
X20000000Y-56500000D01*
X54405000Y-44712000D02*
X54405000Y-45823486D01*
X25967500Y-45532500D02*
X25967500Y-44712000D01*
X53000000Y-52869873D02*
X52900000Y-52969873D01*
X29800000Y-55250000D02*
X29800000Y-52700000D01*
X53000000Y-47228486D02*
X53000000Y-47318905D01*
%TO.N,/READY*%
X55675000Y-44712000D02*
X55675000Y-50075000D01*
X55675000Y-50075000D02*
X55500000Y-50250000D01*
X31750000Y-51125000D02*
X35000000Y-51125000D01*
X27237500Y-44712000D02*
X27237500Y-51000000D01*
X27237500Y-51000000D02*
X27237500Y-54737500D01*
X27237500Y-54737500D02*
X27250000Y-54750000D01*
X32340000Y-55250000D02*
X35000000Y-52590000D01*
X39427000Y-50323000D02*
X41118086Y-50323000D01*
X35000000Y-51125000D02*
X38625000Y-51125000D01*
X41118086Y-50323000D02*
X41744086Y-50949000D01*
X35000000Y-52590000D02*
X35000000Y-52500000D01*
X35000000Y-51125000D02*
X35000000Y-52500000D01*
X38625000Y-51125000D02*
X39427000Y-50323000D01*
D32*
%TO.N,/PH_H*%
X49325000Y-48425000D02*
X49325000Y-44712000D01*
X35750000Y-44750000D02*
X35750000Y-47250000D01*
X44000000Y-49000000D02*
X44000000Y-53460000D01*
X19617500Y-44712000D02*
X19617500Y-46117500D01*
X44000000Y-47750000D02*
X43500000Y-47250000D01*
X44000000Y-49000000D02*
X44000000Y-47750000D01*
X19617500Y-46117500D02*
X19750000Y-46250000D01*
X49000000Y-48750000D02*
X49325000Y-48425000D01*
X44000000Y-53460000D02*
X42500000Y-54960000D01*
D30*
%TO.N,/RESET*%
X53135000Y-44712000D02*
X53135000Y-46365000D01*
X40000000Y-50949000D02*
X40000000Y-52500000D01*
X18250000Y-53250000D02*
X15000000Y-56500000D01*
X23750000Y-47000000D02*
X24697500Y-46052500D01*
X18250000Y-49250000D02*
X18250000Y-53250000D01*
X34880000Y-55250000D02*
X35315000Y-55250000D01*
X38065000Y-52500000D02*
X40000000Y-52500000D01*
X35315000Y-55250000D02*
X38065000Y-52500000D01*
X53135000Y-46365000D02*
X52250000Y-47250000D01*
X23750000Y-49250000D02*
X23750000Y-47000000D01*
X52250000Y-47250000D02*
X52250000Y-53750000D01*
X24697500Y-46052500D02*
X24697500Y-44712000D01*
D32*
%TO.N,/PH_L*%
X42750000Y-52500000D02*
X42750000Y-48000000D01*
X20750000Y-44849500D02*
X20887500Y-44712000D01*
X48000000Y-47500000D02*
X48055000Y-47445000D01*
X48055000Y-47445000D02*
X48055000Y-44712000D01*
X40250000Y-44750000D02*
X40250000Y-48000000D01*
X20750000Y-47000000D02*
X20750000Y-44849500D01*
X41250000Y-54000000D02*
X42750000Y-52500000D01*
X40920000Y-54000000D02*
X41250000Y-54000000D01*
X48000000Y-48000000D02*
X48000000Y-47500000D01*
X39960000Y-54960000D02*
X40920000Y-54000000D01*
%TD*%
%TA.AperFunction,Conductor*%
%TO.N,/GND_A*%
G36*
X34446212Y-43019685D02*
G01*
X34491967Y-43072489D01*
X34501911Y-43141647D01*
X34472886Y-43205203D01*
X34454663Y-43222372D01*
X34433721Y-43238441D01*
X34428141Y-43242724D01*
X34428140Y-43242726D01*
X34242718Y-43428148D01*
X34083075Y-43636196D01*
X33951958Y-43863299D01*
X33951953Y-43863309D01*
X33851605Y-44105571D01*
X33851602Y-44105581D01*
X33783730Y-44358884D01*
X33781185Y-44378213D01*
X33749500Y-44618872D01*
X33749500Y-44881127D01*
X33775531Y-45078842D01*
X33783730Y-45141116D01*
X33847520Y-45379185D01*
X33851602Y-45394418D01*
X33851605Y-45394428D01*
X33951953Y-45636690D01*
X33951958Y-45636700D01*
X34083075Y-45863803D01*
X34242718Y-46071851D01*
X34242726Y-46071860D01*
X34428140Y-46257274D01*
X34428148Y-46257281D01*
X34428149Y-46257282D01*
X34451572Y-46275255D01*
X34636196Y-46416924D01*
X34863299Y-46548041D01*
X34863301Y-46548041D01*
X34863303Y-46548043D01*
X34922952Y-46572750D01*
X34977355Y-46616589D01*
X34999421Y-46682883D01*
X34999500Y-46687311D01*
X34999500Y-46945396D01*
X34990062Y-46992844D01*
X34982217Y-47011786D01*
X34980262Y-47016506D01*
X34980260Y-47016511D01*
X34949500Y-47171153D01*
X34949500Y-47328846D01*
X34980261Y-47483489D01*
X34980264Y-47483501D01*
X35040602Y-47629172D01*
X35040609Y-47629185D01*
X35128210Y-47760288D01*
X35128213Y-47760292D01*
X35239707Y-47871786D01*
X35239711Y-47871789D01*
X35370814Y-47959390D01*
X35370827Y-47959397D01*
X35495262Y-48010939D01*
X35549666Y-48054779D01*
X35571731Y-48121074D01*
X35554452Y-48188773D01*
X35503315Y-48236384D01*
X35447810Y-48249500D01*
X33874998Y-48249500D01*
X33874981Y-48249501D01*
X33772203Y-48260000D01*
X33772200Y-48260001D01*
X33605668Y-48315185D01*
X33605663Y-48315187D01*
X33456342Y-48407289D01*
X33332289Y-48531342D01*
X33240187Y-48680663D01*
X33240185Y-48680668D01*
X33233579Y-48700605D01*
X33185001Y-48847203D01*
X33185001Y-48847204D01*
X33185000Y-48847204D01*
X33174500Y-48949983D01*
X33174500Y-49250500D01*
X33154815Y-49317539D01*
X33102011Y-49363294D01*
X33050500Y-49374500D01*
X31949499Y-49374500D01*
X31882460Y-49354815D01*
X31836705Y-49302011D01*
X31825499Y-49250500D01*
X31825499Y-48949998D01*
X31825498Y-48949981D01*
X31814999Y-48847203D01*
X31814998Y-48847200D01*
X31799523Y-48800499D01*
X31759814Y-48680666D01*
X31667712Y-48531344D01*
X31543656Y-48407288D01*
X31394334Y-48315186D01*
X31227797Y-48260001D01*
X31227795Y-48260000D01*
X31125010Y-48249500D01*
X28874998Y-48249500D01*
X28874981Y-48249501D01*
X28772203Y-48260000D01*
X28772200Y-48260001D01*
X28605668Y-48315185D01*
X28605663Y-48315187D01*
X28456342Y-48407289D01*
X28332289Y-48531342D01*
X28240187Y-48680663D01*
X28240185Y-48680668D01*
X28233579Y-48700605D01*
X28185001Y-48847203D01*
X28185001Y-48847204D01*
X28185000Y-48847204D01*
X28174500Y-48949983D01*
X28174500Y-49850001D01*
X28174501Y-49850019D01*
X28185000Y-49952796D01*
X28185001Y-49952799D01*
X28231278Y-50092452D01*
X28240186Y-50119334D01*
X28332288Y-50268656D01*
X28456344Y-50392712D01*
X28605666Y-50484814D01*
X28772203Y-50539999D01*
X28874991Y-50550500D01*
X30145566Y-50550499D01*
X30212605Y-50570184D01*
X30214456Y-50571397D01*
X30330019Y-50648613D01*
X30330026Y-50648617D01*
X30330031Y-50648620D01*
X30452964Y-50699541D01*
X30583464Y-50725499D01*
X30583468Y-50725500D01*
X30583469Y-50725500D01*
X30863445Y-50725500D01*
X30930484Y-50745185D01*
X30976239Y-50797989D01*
X30986183Y-50867147D01*
X30981159Y-50885411D01*
X30982031Y-50885676D01*
X30980261Y-50891510D01*
X30949500Y-51046153D01*
X30949500Y-51203843D01*
X30950097Y-51209905D01*
X30948214Y-51210090D01*
X30942759Y-51270922D01*
X30899886Y-51326091D01*
X30833992Y-51349323D01*
X30827378Y-51349500D01*
X28874998Y-51349500D01*
X28874981Y-51349501D01*
X28772203Y-51360000D01*
X28772200Y-51360001D01*
X28605668Y-51415185D01*
X28605663Y-51415187D01*
X28456342Y-51507289D01*
X28332289Y-51631342D01*
X28240187Y-51780663D01*
X28240185Y-51780668D01*
X28222382Y-51834394D01*
X28185001Y-51947203D01*
X28185001Y-51947204D01*
X28185000Y-51947204D01*
X28174500Y-52049983D01*
X28174500Y-52950001D01*
X28174501Y-52950019D01*
X28185000Y-53052796D01*
X28185001Y-53052799D01*
X28240185Y-53219331D01*
X28240187Y-53219336D01*
X28260825Y-53252795D01*
X28332288Y-53368656D01*
X28456344Y-53492712D01*
X28605666Y-53584814D01*
X28772203Y-53639999D01*
X28874991Y-53650500D01*
X29050500Y-53650499D01*
X29059185Y-53653049D01*
X29068147Y-53651761D01*
X29092184Y-53662738D01*
X29117539Y-53670183D01*
X29123467Y-53677025D01*
X29131703Y-53680786D01*
X29145989Y-53703017D01*
X29163294Y-53722987D01*
X29165581Y-53733502D01*
X29169477Y-53739564D01*
X29174500Y-53774499D01*
X29174500Y-53951542D01*
X29154815Y-54018581D01*
X29106796Y-54062026D01*
X29042182Y-54094949D01*
X28870213Y-54219890D01*
X28719890Y-54370213D01*
X28594951Y-54542179D01*
X28498444Y-54731585D01*
X28432753Y-54933760D01*
X28399500Y-55143713D01*
X28399500Y-55356286D01*
X28430260Y-55550500D01*
X28432754Y-55566243D01*
X28464265Y-55663224D01*
X28498444Y-55768414D01*
X28594951Y-55957820D01*
X28719890Y-56129786D01*
X28870213Y-56280109D01*
X29042179Y-56405048D01*
X29042181Y-56405049D01*
X29042184Y-56405051D01*
X29231588Y-56501557D01*
X29433757Y-56567246D01*
X29643713Y-56600500D01*
X29643714Y-56600500D01*
X29856286Y-56600500D01*
X29856287Y-56600500D01*
X30066243Y-56567246D01*
X30268412Y-56501557D01*
X30457816Y-56405051D01*
X30507593Y-56368886D01*
X30629786Y-56280109D01*
X30629788Y-56280106D01*
X30629792Y-56280104D01*
X30780104Y-56129792D01*
X30780106Y-56129788D01*
X30780109Y-56129786D01*
X30905048Y-55957820D01*
X30905047Y-55957820D01*
X30905051Y-55957816D01*
X30909514Y-55949054D01*
X30957488Y-55898259D01*
X31025308Y-55881463D01*
X31091444Y-55903999D01*
X31130486Y-55949056D01*
X31134951Y-55957820D01*
X31259890Y-56129786D01*
X31410213Y-56280109D01*
X31582179Y-56405048D01*
X31582181Y-56405049D01*
X31582184Y-56405051D01*
X31771588Y-56501557D01*
X31973757Y-56567246D01*
X32183713Y-56600500D01*
X32183714Y-56600500D01*
X32396286Y-56600500D01*
X32396287Y-56600500D01*
X32606243Y-56567246D01*
X32808412Y-56501557D01*
X32997816Y-56405051D01*
X33047593Y-56368886D01*
X33169786Y-56280109D01*
X33169788Y-56280106D01*
X33169792Y-56280104D01*
X33320104Y-56129792D01*
X33320106Y-56129788D01*
X33320109Y-56129786D01*
X33445048Y-55957820D01*
X33445047Y-55957820D01*
X33445051Y-55957816D01*
X33449514Y-55949054D01*
X33497488Y-55898259D01*
X33565308Y-55881463D01*
X33631444Y-55903999D01*
X33670486Y-55949056D01*
X33674951Y-55957820D01*
X33799890Y-56129786D01*
X33950213Y-56280109D01*
X34122179Y-56405048D01*
X34122181Y-56405049D01*
X34122184Y-56405051D01*
X34311588Y-56501557D01*
X34513757Y-56567246D01*
X34723713Y-56600500D01*
X34723714Y-56600500D01*
X34936286Y-56600500D01*
X34936287Y-56600500D01*
X35146243Y-56567246D01*
X35348412Y-56501557D01*
X35537816Y-56405051D01*
X35587593Y-56368886D01*
X35709786Y-56280109D01*
X35709788Y-56280106D01*
X35709792Y-56280104D01*
X35860104Y-56129792D01*
X35860106Y-56129788D01*
X35860109Y-56129786D01*
X35985048Y-55957820D01*
X35985047Y-55957820D01*
X35985051Y-55957816D01*
X36081557Y-55768412D01*
X36147246Y-55566243D01*
X36180500Y-55356287D01*
X36180500Y-55320452D01*
X36200185Y-55253413D01*
X36216819Y-55232771D01*
X38243930Y-53205660D01*
X38305253Y-53172175D01*
X38374945Y-53177159D01*
X38419292Y-53205660D01*
X38456344Y-53242712D01*
X38605666Y-53334814D01*
X38772203Y-53389999D01*
X38874991Y-53400500D01*
X40158770Y-53400499D01*
X40225809Y-53420184D01*
X40271564Y-53472987D01*
X40281508Y-53542146D01*
X40252483Y-53605702D01*
X40246451Y-53612180D01*
X39995451Y-53863181D01*
X39934128Y-53896666D01*
X39907770Y-53899500D01*
X39803713Y-53899500D01*
X39755042Y-53907208D01*
X39593760Y-53932753D01*
X39593757Y-53932754D01*
X39393312Y-53997883D01*
X39391585Y-53998444D01*
X39202179Y-54094951D01*
X39030213Y-54219890D01*
X38879890Y-54370213D01*
X38754951Y-54542179D01*
X38658444Y-54731585D01*
X38592753Y-54933760D01*
X38559500Y-55143713D01*
X38559500Y-55356286D01*
X38590260Y-55550500D01*
X38592754Y-55566243D01*
X38624265Y-55663224D01*
X38658444Y-55768414D01*
X38754951Y-55957820D01*
X38879890Y-56129786D01*
X39030213Y-56280109D01*
X39202179Y-56405048D01*
X39202181Y-56405049D01*
X39202184Y-56405051D01*
X39391588Y-56501557D01*
X39593757Y-56567246D01*
X39803713Y-56600500D01*
X39803714Y-56600500D01*
X40016286Y-56600500D01*
X40016287Y-56600500D01*
X40226243Y-56567246D01*
X40428412Y-56501557D01*
X40617816Y-56405051D01*
X40667593Y-56368886D01*
X40789786Y-56280109D01*
X40789788Y-56280106D01*
X40789792Y-56280104D01*
X40940104Y-56129792D01*
X40940106Y-56129788D01*
X40940109Y-56129786D01*
X41065048Y-55957820D01*
X41065047Y-55957820D01*
X41065051Y-55957816D01*
X41069514Y-55949054D01*
X41117488Y-55898259D01*
X41185308Y-55881463D01*
X41251444Y-55903999D01*
X41290486Y-55949056D01*
X41294951Y-55957820D01*
X41419890Y-56129786D01*
X41570213Y-56280109D01*
X41742179Y-56405048D01*
X41742181Y-56405049D01*
X41742184Y-56405051D01*
X41931588Y-56501557D01*
X42133757Y-56567246D01*
X42343713Y-56600500D01*
X42343714Y-56600500D01*
X42556286Y-56600500D01*
X42556287Y-56600500D01*
X42766243Y-56567246D01*
X42968412Y-56501557D01*
X43157816Y-56405051D01*
X43207593Y-56368886D01*
X43329786Y-56280109D01*
X43329788Y-56280106D01*
X43329792Y-56280104D01*
X43480104Y-56129792D01*
X43480106Y-56129788D01*
X43480109Y-56129786D01*
X43605048Y-55957820D01*
X43605047Y-55957820D01*
X43605051Y-55957816D01*
X43609514Y-55949054D01*
X43657488Y-55898259D01*
X43725308Y-55881463D01*
X43791444Y-55903999D01*
X43830486Y-55949056D01*
X43834951Y-55957820D01*
X43959890Y-56129786D01*
X44110213Y-56280109D01*
X44282179Y-56405048D01*
X44282181Y-56405049D01*
X44282184Y-56405051D01*
X44471588Y-56501557D01*
X44673757Y-56567246D01*
X44883713Y-56600500D01*
X44883714Y-56600500D01*
X45096286Y-56600500D01*
X45096287Y-56600500D01*
X45306243Y-56567246D01*
X45508412Y-56501557D01*
X45697816Y-56405051D01*
X45747593Y-56368886D01*
X45869786Y-56280109D01*
X45869788Y-56280106D01*
X45869792Y-56280104D01*
X46020104Y-56129792D01*
X46020106Y-56129788D01*
X46020109Y-56129786D01*
X46145048Y-55957820D01*
X46145047Y-55957820D01*
X46145051Y-55957816D01*
X46149514Y-55949054D01*
X46197488Y-55898259D01*
X46265308Y-55881463D01*
X46331444Y-55903999D01*
X46370486Y-55949056D01*
X46374951Y-55957820D01*
X46499890Y-56129786D01*
X46650213Y-56280109D01*
X46822179Y-56405048D01*
X46822181Y-56405049D01*
X46822184Y-56405051D01*
X47011588Y-56501557D01*
X47213757Y-56567246D01*
X47423713Y-56600500D01*
X47423714Y-56600500D01*
X47636286Y-56600500D01*
X47636287Y-56600500D01*
X47846243Y-56567246D01*
X48048412Y-56501557D01*
X48237816Y-56405051D01*
X48287593Y-56368886D01*
X48409786Y-56280109D01*
X48409788Y-56280106D01*
X48409792Y-56280104D01*
X48560104Y-56129792D01*
X48560106Y-56129788D01*
X48560109Y-56129786D01*
X48685048Y-55957820D01*
X48685047Y-55957820D01*
X48685051Y-55957816D01*
X48781557Y-55768412D01*
X48847246Y-55566243D01*
X48880500Y-55356287D01*
X48880500Y-55143713D01*
X48847246Y-54933757D01*
X48781557Y-54731588D01*
X48685051Y-54542184D01*
X48685049Y-54542181D01*
X48685048Y-54542179D01*
X48560109Y-54370213D01*
X48409786Y-54219890D01*
X48237820Y-54094951D01*
X48048414Y-53998444D01*
X48048413Y-53998443D01*
X48048412Y-53998443D01*
X47846243Y-53932754D01*
X47846241Y-53932753D01*
X47846240Y-53932753D01*
X47684957Y-53907208D01*
X47636287Y-53899500D01*
X47423713Y-53899500D01*
X47375042Y-53907208D01*
X47213760Y-53932753D01*
X47213757Y-53932754D01*
X47013312Y-53997883D01*
X47011585Y-53998444D01*
X46822179Y-54094951D01*
X46650213Y-54219890D01*
X46499890Y-54370213D01*
X46374949Y-54542182D01*
X46370484Y-54550946D01*
X46322509Y-54601742D01*
X46254688Y-54618536D01*
X46188553Y-54595998D01*
X46149516Y-54550946D01*
X46145050Y-54542182D01*
X46020109Y-54370213D01*
X45869786Y-54219890D01*
X45697820Y-54094951D01*
X45508414Y-53998444D01*
X45508413Y-53998443D01*
X45508412Y-53998443D01*
X45306243Y-53932754D01*
X45306241Y-53932753D01*
X45306240Y-53932753D01*
X45144957Y-53907208D01*
X45096287Y-53899500D01*
X44883713Y-53899500D01*
X44831183Y-53907819D01*
X44761891Y-53898864D01*
X44708440Y-53853867D01*
X44687801Y-53787115D01*
X44697226Y-53737896D01*
X44721658Y-53678913D01*
X44748040Y-53546285D01*
X44750500Y-53533920D01*
X44750500Y-49304604D01*
X44759939Y-49257151D01*
X44762694Y-49250500D01*
X44769737Y-49233497D01*
X44800500Y-49078842D01*
X44800500Y-48921158D01*
X44800500Y-48921155D01*
X44800499Y-48921153D01*
X44769739Y-48766511D01*
X44769738Y-48766508D01*
X44769737Y-48766503D01*
X44759937Y-48742844D01*
X44750500Y-48695396D01*
X44750500Y-47921158D01*
X47199500Y-47921158D01*
X47199500Y-47929001D01*
X47199500Y-48078846D01*
X47230261Y-48233489D01*
X47230264Y-48233501D01*
X47290602Y-48379172D01*
X47290609Y-48379185D01*
X47378210Y-48510288D01*
X47378213Y-48510292D01*
X47489707Y-48621786D01*
X47489711Y-48621789D01*
X47620814Y-48709390D01*
X47620827Y-48709397D01*
X47766498Y-48769735D01*
X47766503Y-48769737D01*
X47920680Y-48800405D01*
X47921153Y-48800499D01*
X47921156Y-48800500D01*
X47921158Y-48800500D01*
X48078841Y-48800500D01*
X48078842Y-48800500D01*
X48078842Y-48800499D01*
X48079806Y-48800405D01*
X48080307Y-48800500D01*
X48084934Y-48800500D01*
X48084934Y-48801377D01*
X48148452Y-48813424D01*
X48199162Y-48861489D01*
X48213577Y-48899616D01*
X48230261Y-48983491D01*
X48230264Y-48983501D01*
X48290602Y-49129172D01*
X48290609Y-49129185D01*
X48378210Y-49260288D01*
X48378213Y-49260292D01*
X48489707Y-49371786D01*
X48489711Y-49371789D01*
X48620814Y-49459390D01*
X48620827Y-49459397D01*
X48694013Y-49489711D01*
X48766503Y-49519737D01*
X48921153Y-49550499D01*
X48921156Y-49550500D01*
X48921158Y-49550500D01*
X49078844Y-49550500D01*
X49078845Y-49550499D01*
X49233497Y-49519737D01*
X49379179Y-49459394D01*
X49510289Y-49371789D01*
X49562818Y-49319260D01*
X49624141Y-49285774D01*
X49693833Y-49290758D01*
X49749766Y-49332629D01*
X49774184Y-49398093D01*
X49774500Y-49406939D01*
X49774500Y-49650000D01*
X49774501Y-49650019D01*
X49785000Y-49752796D01*
X49785001Y-49752799D01*
X49826559Y-49878210D01*
X49840186Y-49919334D01*
X49901039Y-50017993D01*
X49919500Y-50083089D01*
X49919500Y-50416910D01*
X49901039Y-50482006D01*
X49840189Y-50580659D01*
X49840185Y-50580668D01*
X49817668Y-50648620D01*
X49785001Y-50747203D01*
X49785001Y-50747204D01*
X49785000Y-50747204D01*
X49774500Y-50849983D01*
X49774500Y-53150001D01*
X49774501Y-53150018D01*
X49785000Y-53252796D01*
X49785001Y-53252799D01*
X49840185Y-53419331D01*
X49840187Y-53419336D01*
X49862635Y-53455730D01*
X49932288Y-53568656D01*
X50056344Y-53692712D01*
X50205666Y-53784814D01*
X50372203Y-53839999D01*
X50474991Y-53850500D01*
X51352043Y-53850499D01*
X51419082Y-53870183D01*
X51464837Y-53922987D01*
X51473660Y-53950305D01*
X51480262Y-53983494D01*
X51480264Y-53983501D01*
X51540602Y-54129172D01*
X51540609Y-54129185D01*
X51628210Y-54260288D01*
X51628213Y-54260292D01*
X51739707Y-54371786D01*
X51739711Y-54371789D01*
X51870814Y-54459390D01*
X51870827Y-54459397D01*
X51967646Y-54499500D01*
X52016503Y-54519737D01*
X52129326Y-54542179D01*
X52171153Y-54550499D01*
X52171156Y-54550500D01*
X52171158Y-54550500D01*
X52328844Y-54550500D01*
X52328845Y-54550499D01*
X52483497Y-54519737D01*
X52629179Y-54459394D01*
X52760289Y-54371789D01*
X52871789Y-54260289D01*
X52959394Y-54129179D01*
X53019737Y-53983497D01*
X53049560Y-53833568D01*
X53081945Y-53771657D01*
X53128407Y-53743242D01*
X53127869Y-53741941D01*
X53279172Y-53679270D01*
X53279172Y-53679269D01*
X53279179Y-53679267D01*
X53410289Y-53591662D01*
X53410291Y-53591660D01*
X53410294Y-53591658D01*
X53521786Y-53480165D01*
X53521789Y-53480162D01*
X53609394Y-53349052D01*
X53669737Y-53203370D01*
X53700500Y-53048715D01*
X53700500Y-52891031D01*
X53700500Y-52891028D01*
X53700499Y-52891026D01*
X53669739Y-52736384D01*
X53669736Y-52736374D01*
X53645024Y-52676714D01*
X53634939Y-52652365D01*
X53625500Y-52604913D01*
X53625500Y-47538937D01*
X53645185Y-47471898D01*
X53661814Y-47451260D01*
X54803729Y-46309346D01*
X54803733Y-46309344D01*
X54837822Y-46275255D01*
X54877565Y-46253555D01*
X54899142Y-46241773D01*
X54899143Y-46241773D01*
X54899146Y-46241772D01*
X54929022Y-46243909D01*
X54968834Y-46246757D01*
X54968838Y-46246759D01*
X54997354Y-46268107D01*
X55024767Y-46288629D01*
X55024767Y-46288630D01*
X55024770Y-46288632D01*
X55037604Y-46323047D01*
X55049184Y-46354093D01*
X55049500Y-46362939D01*
X55049500Y-49521981D01*
X55029815Y-49589020D01*
X54994395Y-49625080D01*
X54989715Y-49628207D01*
X54989707Y-49628213D01*
X54878213Y-49739707D01*
X54878210Y-49739711D01*
X54790609Y-49870814D01*
X54790602Y-49870827D01*
X54730264Y-50016498D01*
X54730261Y-50016510D01*
X54699500Y-50171153D01*
X54699500Y-50328846D01*
X54730261Y-50483489D01*
X54730264Y-50483501D01*
X54790602Y-50629172D01*
X54790609Y-50629185D01*
X54878210Y-50760288D01*
X54878213Y-50760292D01*
X54989707Y-50871786D01*
X54989711Y-50871789D01*
X55120814Y-50959390D01*
X55120827Y-50959397D01*
X55266498Y-51019735D01*
X55266503Y-51019737D01*
X55421153Y-51050499D01*
X55421156Y-51050500D01*
X55421158Y-51050500D01*
X55578844Y-51050500D01*
X55578845Y-51050499D01*
X55733497Y-51019737D01*
X55879179Y-50959394D01*
X56010289Y-50871789D01*
X56121789Y-50760289D01*
X56209394Y-50629179D01*
X56212859Y-50620815D01*
X56269735Y-50483501D01*
X56269737Y-50483497D01*
X56285921Y-50402135D01*
X58074500Y-50402135D01*
X58074500Y-53997870D01*
X58074501Y-53997876D01*
X58080908Y-54057483D01*
X58131202Y-54192328D01*
X58131206Y-54192335D01*
X58217452Y-54307544D01*
X58217455Y-54307547D01*
X58332664Y-54393793D01*
X58332671Y-54393797D01*
X58467517Y-54444091D01*
X58467516Y-54444091D01*
X58474444Y-54444835D01*
X58527127Y-54450500D01*
X60472872Y-54450499D01*
X60532483Y-54444091D01*
X60667331Y-54393796D01*
X60782546Y-54307546D01*
X60868796Y-54192331D01*
X60919091Y-54057483D01*
X60925500Y-53997873D01*
X60925500Y-53878711D01*
X67149500Y-53878711D01*
X67149500Y-54121288D01*
X67181161Y-54361785D01*
X67243947Y-54596104D01*
X67336773Y-54820205D01*
X67336777Y-54820214D01*
X67341760Y-54828844D01*
X67458064Y-55030289D01*
X67458066Y-55030292D01*
X67458067Y-55030293D01*
X67605733Y-55222736D01*
X67605739Y-55222743D01*
X67777256Y-55394260D01*
X67777262Y-55394265D01*
X67969711Y-55541936D01*
X68179788Y-55663224D01*
X68403900Y-55756054D01*
X68638211Y-55818838D01*
X68818586Y-55842584D01*
X68878711Y-55850500D01*
X68878712Y-55850500D01*
X69121289Y-55850500D01*
X69169388Y-55844167D01*
X69361789Y-55818838D01*
X69596100Y-55756054D01*
X69820212Y-55663224D01*
X70030289Y-55541936D01*
X70222738Y-55394265D01*
X70394265Y-55222738D01*
X70541936Y-55030289D01*
X70663224Y-54820212D01*
X70756054Y-54596100D01*
X70818838Y-54361789D01*
X70850500Y-54121288D01*
X70850500Y-53878712D01*
X70845033Y-53837189D01*
X70834589Y-53757853D01*
X70818838Y-53638211D01*
X70756054Y-53403900D01*
X70663224Y-53179788D01*
X70541936Y-52969711D01*
X70394265Y-52777262D01*
X70394260Y-52777256D01*
X70222743Y-52605739D01*
X70222736Y-52605733D01*
X70030293Y-52458067D01*
X70030292Y-52458066D01*
X70030289Y-52458064D01*
X69820212Y-52336776D01*
X69820205Y-52336773D01*
X69596104Y-52243947D01*
X69361785Y-52181161D01*
X69121289Y-52149500D01*
X69121288Y-52149500D01*
X68878712Y-52149500D01*
X68878711Y-52149500D01*
X68638214Y-52181161D01*
X68403895Y-52243947D01*
X68179794Y-52336773D01*
X68179785Y-52336777D01*
X67969706Y-52458067D01*
X67777263Y-52605733D01*
X67777256Y-52605739D01*
X67605739Y-52777256D01*
X67605733Y-52777263D01*
X67458067Y-52969706D01*
X67336777Y-53179785D01*
X67336773Y-53179794D01*
X67243947Y-53403895D01*
X67181161Y-53638214D01*
X67149500Y-53878711D01*
X60925500Y-53878711D01*
X60925499Y-52189132D01*
X60925499Y-50402129D01*
X60925498Y-50402123D01*
X60925497Y-50402116D01*
X60919091Y-50342517D01*
X60905951Y-50307288D01*
X60868797Y-50207671D01*
X60868793Y-50207664D01*
X60782547Y-50092455D01*
X60782544Y-50092452D01*
X60667335Y-50006206D01*
X60667328Y-50006202D01*
X60532482Y-49955908D01*
X60532483Y-49955908D01*
X60472883Y-49949501D01*
X60472881Y-49949500D01*
X60472873Y-49949500D01*
X60472865Y-49949500D01*
X60407902Y-49949500D01*
X60340863Y-49929815D01*
X60295108Y-49877011D01*
X60286285Y-49849692D01*
X60269738Y-49766508D01*
X60269737Y-49766507D01*
X60269737Y-49766503D01*
X60264060Y-49752797D01*
X60209397Y-49620827D01*
X60209390Y-49620814D01*
X60121789Y-49489711D01*
X60121786Y-49489707D01*
X60010292Y-49378213D01*
X60010288Y-49378210D01*
X59879185Y-49290609D01*
X59879172Y-49290602D01*
X59733501Y-49230264D01*
X59733489Y-49230261D01*
X59578845Y-49199500D01*
X59578842Y-49199500D01*
X59421158Y-49199500D01*
X59421155Y-49199500D01*
X59266510Y-49230261D01*
X59266498Y-49230264D01*
X59120827Y-49290602D01*
X59120814Y-49290609D01*
X58989711Y-49378210D01*
X58989707Y-49378213D01*
X58878213Y-49489707D01*
X58878210Y-49489711D01*
X58790609Y-49620814D01*
X58790602Y-49620827D01*
X58730264Y-49766498D01*
X58730261Y-49766508D01*
X58713715Y-49849692D01*
X58681330Y-49911603D01*
X58620614Y-49946177D01*
X58592100Y-49949500D01*
X58527130Y-49949500D01*
X58527123Y-49949501D01*
X58467516Y-49955908D01*
X58332671Y-50006202D01*
X58332664Y-50006206D01*
X58217455Y-50092452D01*
X58217452Y-50092455D01*
X58131206Y-50207664D01*
X58131202Y-50207671D01*
X58080908Y-50342517D01*
X58076449Y-50383999D01*
X58074501Y-50402123D01*
X58074500Y-50402135D01*
X56285921Y-50402135D01*
X56289529Y-50383999D01*
X56289529Y-50383995D01*
X56300500Y-50328842D01*
X56300500Y-50171158D01*
X56298895Y-50163093D01*
X56299509Y-50148629D01*
X56299996Y-50147197D01*
X56299996Y-50141721D01*
X56300500Y-50136606D01*
X56300500Y-46311153D01*
X58684500Y-46311153D01*
X58684500Y-46468846D01*
X58715261Y-46623489D01*
X58715264Y-46623501D01*
X58775602Y-46769172D01*
X58775609Y-46769185D01*
X58863210Y-46900288D01*
X58863213Y-46900292D01*
X58974707Y-47011786D01*
X58974711Y-47011789D01*
X59105814Y-47099390D01*
X59105827Y-47099397D01*
X59251498Y-47159735D01*
X59251503Y-47159737D01*
X59406153Y-47190499D01*
X59406156Y-47190500D01*
X59406158Y-47190500D01*
X59563844Y-47190500D01*
X59563845Y-47190499D01*
X59718497Y-47159737D01*
X59864179Y-47099394D01*
X59995289Y-47011789D01*
X60106789Y-46900289D01*
X60194394Y-46769179D01*
X60254737Y-46623497D01*
X60285500Y-46468842D01*
X60285500Y-46311158D01*
X60285500Y-46311155D01*
X60285499Y-46311153D01*
X60278358Y-46275255D01*
X60254737Y-46156503D01*
X60254407Y-46155706D01*
X60194397Y-46010827D01*
X60194390Y-46010814D01*
X60106789Y-45879711D01*
X60106786Y-45879707D01*
X59995292Y-45768213D01*
X59995288Y-45768210D01*
X59864185Y-45680609D01*
X59864172Y-45680602D01*
X59718501Y-45620264D01*
X59718489Y-45620261D01*
X59563845Y-45589500D01*
X59563842Y-45589500D01*
X59406158Y-45589500D01*
X59406155Y-45589500D01*
X59251510Y-45620261D01*
X59251498Y-45620264D01*
X59105827Y-45680602D01*
X59105814Y-45680609D01*
X58974711Y-45768210D01*
X58974707Y-45768213D01*
X58863213Y-45879707D01*
X58863210Y-45879711D01*
X58775609Y-46010814D01*
X58775602Y-46010827D01*
X58715264Y-46156498D01*
X58715261Y-46156510D01*
X58684500Y-46311153D01*
X56300500Y-46311153D01*
X56300500Y-46136820D01*
X56320185Y-46069781D01*
X56350192Y-46037551D01*
X56350501Y-46037320D01*
X56357546Y-46032046D01*
X56443796Y-45916831D01*
X56494091Y-45781983D01*
X56500500Y-45722373D01*
X56500499Y-44921153D01*
X67149500Y-44921153D01*
X67149500Y-45078846D01*
X67180261Y-45233489D01*
X67180264Y-45233501D01*
X67240602Y-45379172D01*
X67240609Y-45379185D01*
X67328210Y-45510288D01*
X67328213Y-45510292D01*
X67439707Y-45621786D01*
X67439711Y-45621789D01*
X67570814Y-45709390D01*
X67570827Y-45709397D01*
X67712816Y-45768210D01*
X67716503Y-45769737D01*
X67871153Y-45800499D01*
X67871156Y-45800500D01*
X67871158Y-45800500D01*
X68028844Y-45800500D01*
X68028845Y-45800499D01*
X68183497Y-45769737D01*
X68329179Y-45709394D01*
X68460289Y-45621789D01*
X68571789Y-45510289D01*
X68659394Y-45379179D01*
X68719737Y-45233497D01*
X68750500Y-45078842D01*
X68750500Y-44921158D01*
X68750500Y-44921155D01*
X68750499Y-44921153D01*
X68742536Y-44881120D01*
X68719737Y-44766503D01*
X68719735Y-44766498D01*
X68659397Y-44620827D01*
X68659390Y-44620814D01*
X68571789Y-44489711D01*
X68571786Y-44489707D01*
X68460292Y-44378213D01*
X68460288Y-44378210D01*
X68329185Y-44290609D01*
X68329172Y-44290602D01*
X68183501Y-44230264D01*
X68183489Y-44230261D01*
X68028845Y-44199500D01*
X68028842Y-44199500D01*
X67871158Y-44199500D01*
X67871155Y-44199500D01*
X67716510Y-44230261D01*
X67716498Y-44230264D01*
X67570827Y-44290602D01*
X67570814Y-44290609D01*
X67439711Y-44378210D01*
X67439707Y-44378213D01*
X67328213Y-44489707D01*
X67328210Y-44489711D01*
X67240609Y-44620814D01*
X67240602Y-44620827D01*
X67180264Y-44766498D01*
X67180261Y-44766510D01*
X67149500Y-44921153D01*
X56500499Y-44921153D01*
X56500499Y-44620827D01*
X56500499Y-44077135D01*
X69499500Y-44077135D01*
X69499500Y-45922870D01*
X69499501Y-45922876D01*
X69505908Y-45982483D01*
X69556202Y-46117328D01*
X69556206Y-46117335D01*
X69642452Y-46232544D01*
X69642455Y-46232547D01*
X69757664Y-46318793D01*
X69757671Y-46318797D01*
X69892517Y-46369091D01*
X69892516Y-46369091D01*
X69899444Y-46369835D01*
X69952127Y-46375500D01*
X71047872Y-46375499D01*
X71107483Y-46369091D01*
X71242331Y-46318796D01*
X71357546Y-46232546D01*
X71443796Y-46117331D01*
X71494091Y-45982483D01*
X71500500Y-45922873D01*
X71500499Y-44077128D01*
X71494091Y-44017517D01*
X71443796Y-43882669D01*
X71443795Y-43882668D01*
X71443793Y-43882664D01*
X71357547Y-43767455D01*
X71357544Y-43767452D01*
X71242335Y-43681206D01*
X71242328Y-43681202D01*
X71107482Y-43630908D01*
X71107483Y-43630908D01*
X71047883Y-43624501D01*
X71047881Y-43624500D01*
X71047873Y-43624500D01*
X71047864Y-43624500D01*
X69952129Y-43624500D01*
X69952123Y-43624501D01*
X69892516Y-43630908D01*
X69757671Y-43681202D01*
X69757664Y-43681206D01*
X69642455Y-43767452D01*
X69642452Y-43767455D01*
X69556206Y-43882664D01*
X69556202Y-43882671D01*
X69505908Y-44017517D01*
X69499857Y-44073806D01*
X69499501Y-44077123D01*
X69499500Y-44077135D01*
X56500499Y-44077135D01*
X56500499Y-44073806D01*
X56500499Y-43701629D01*
X56500498Y-43701623D01*
X56500497Y-43701616D01*
X56494091Y-43642017D01*
X56491920Y-43636197D01*
X56443797Y-43507171D01*
X56443793Y-43507164D01*
X56357547Y-43391955D01*
X56357544Y-43391952D01*
X56242335Y-43305706D01*
X56242328Y-43305702D01*
X56107486Y-43255410D01*
X56107485Y-43255409D01*
X56107483Y-43255409D01*
X56047873Y-43249000D01*
X56047863Y-43249000D01*
X55302129Y-43249000D01*
X55302123Y-43249001D01*
X55242516Y-43255408D01*
X55107671Y-43305702D01*
X55099886Y-43309954D01*
X55098153Y-43306780D01*
X55048698Y-43325159D01*
X54980443Y-43310225D01*
X54979497Y-43309617D01*
X54972328Y-43305702D01*
X54837486Y-43255410D01*
X54837485Y-43255409D01*
X54837483Y-43255409D01*
X54777873Y-43249000D01*
X54777863Y-43249000D01*
X54032129Y-43249000D01*
X54032123Y-43249001D01*
X53972516Y-43255408D01*
X53837671Y-43305702D01*
X53829886Y-43309954D01*
X53828153Y-43306780D01*
X53778698Y-43325159D01*
X53710443Y-43310225D01*
X53709497Y-43309617D01*
X53702328Y-43305702D01*
X53567486Y-43255410D01*
X53567485Y-43255409D01*
X53567483Y-43255409D01*
X53507873Y-43249000D01*
X53507863Y-43249000D01*
X52762129Y-43249000D01*
X52762123Y-43249001D01*
X52702516Y-43255408D01*
X52567671Y-43305702D01*
X52567664Y-43305706D01*
X52452455Y-43391952D01*
X52452452Y-43391955D01*
X52366206Y-43507164D01*
X52366202Y-43507171D01*
X52315908Y-43642017D01*
X52309501Y-43701616D01*
X52309501Y-43701623D01*
X52309500Y-43701635D01*
X52309500Y-45722370D01*
X52309501Y-45722376D01*
X52315908Y-45781983D01*
X52366202Y-45916828D01*
X52366203Y-45916829D01*
X52366204Y-45916831D01*
X52415351Y-45982483D01*
X52444107Y-46020896D01*
X52468524Y-46086360D01*
X52453673Y-46154633D01*
X52432521Y-46182888D01*
X51881469Y-46733939D01*
X51820146Y-46767424D01*
X51750454Y-46762440D01*
X51728693Y-46751798D01*
X51699738Y-46733939D01*
X51669334Y-46715186D01*
X51502797Y-46660001D01*
X51502795Y-46660000D01*
X51400016Y-46649500D01*
X51400009Y-46649500D01*
X51394500Y-46649500D01*
X51327461Y-46629815D01*
X51281706Y-46577011D01*
X51270500Y-46525500D01*
X51270500Y-46082730D01*
X51290185Y-46015691D01*
X51295233Y-46008419D01*
X51314649Y-45982483D01*
X51363796Y-45916831D01*
X51414091Y-45781983D01*
X51420500Y-45722373D01*
X51420499Y-43701628D01*
X51414091Y-43642017D01*
X51411920Y-43636197D01*
X51363797Y-43507171D01*
X51363793Y-43507164D01*
X51277547Y-43391955D01*
X51277544Y-43391952D01*
X51162335Y-43305706D01*
X51162328Y-43305702D01*
X51027486Y-43255410D01*
X51027485Y-43255409D01*
X51027483Y-43255409D01*
X50967873Y-43249000D01*
X50967863Y-43249000D01*
X50222129Y-43249000D01*
X50222123Y-43249001D01*
X50162516Y-43255408D01*
X50027671Y-43305702D01*
X50019886Y-43309954D01*
X50018153Y-43306780D01*
X49968698Y-43325159D01*
X49900443Y-43310225D01*
X49899497Y-43309617D01*
X49892328Y-43305702D01*
X49757486Y-43255410D01*
X49757485Y-43255409D01*
X49757483Y-43255409D01*
X49697873Y-43249000D01*
X49697863Y-43249000D01*
X48952129Y-43249000D01*
X48952123Y-43249001D01*
X48892516Y-43255408D01*
X48757671Y-43305702D01*
X48749886Y-43309954D01*
X48748153Y-43306780D01*
X48698698Y-43325159D01*
X48630443Y-43310225D01*
X48629497Y-43309617D01*
X48622328Y-43305702D01*
X48487486Y-43255410D01*
X48487485Y-43255409D01*
X48487483Y-43255409D01*
X48427873Y-43249000D01*
X48427863Y-43249000D01*
X47682129Y-43249000D01*
X47682123Y-43249001D01*
X47622516Y-43255408D01*
X47487671Y-43305702D01*
X47487664Y-43305706D01*
X47372455Y-43391952D01*
X47372452Y-43391955D01*
X47286206Y-43507164D01*
X47286202Y-43507171D01*
X47235908Y-43642017D01*
X47229501Y-43701616D01*
X47229501Y-43701623D01*
X47229500Y-43701635D01*
X47229500Y-45722370D01*
X47229501Y-45722376D01*
X47235908Y-45781983D01*
X47286203Y-45916830D01*
X47289329Y-45922554D01*
X47304500Y-45981986D01*
X47304500Y-47193271D01*
X47295062Y-47240718D01*
X47278342Y-47281087D01*
X47278340Y-47281093D01*
X47249500Y-47426079D01*
X47249500Y-47695396D01*
X47248049Y-47702687D01*
X47246408Y-47722916D01*
X47244079Y-47733147D01*
X47230263Y-47766503D01*
X47199500Y-47921158D01*
X44750500Y-47921158D01*
X44750500Y-47676079D01*
X44721659Y-47531092D01*
X44721658Y-47531091D01*
X44721658Y-47531087D01*
X44721656Y-47531082D01*
X44665087Y-47394511D01*
X44665085Y-47394507D01*
X44665084Y-47394505D01*
X44625268Y-47334916D01*
X44625267Y-47334914D01*
X44582956Y-47271589D01*
X44582952Y-47271584D01*
X44246071Y-46934703D01*
X44219191Y-46894475D01*
X44209394Y-46870821D01*
X44209389Y-46870814D01*
X44121789Y-46739710D01*
X44010292Y-46628213D01*
X44010288Y-46628210D01*
X43879185Y-46540609D01*
X43879172Y-46540602D01*
X43733501Y-46480264D01*
X43733489Y-46480261D01*
X43578845Y-46449500D01*
X43578842Y-46449500D01*
X43421158Y-46449500D01*
X43421155Y-46449500D01*
X43266510Y-46480261D01*
X43266498Y-46480264D01*
X43120827Y-46540602D01*
X43120814Y-46540609D01*
X42989711Y-46628210D01*
X42989707Y-46628213D01*
X42878213Y-46739707D01*
X42878210Y-46739711D01*
X42790609Y-46870814D01*
X42790602Y-46870827D01*
X42730264Y-47016498D01*
X42730261Y-47016508D01*
X42710961Y-47113536D01*
X42678576Y-47175447D01*
X42617860Y-47210021D01*
X42613536Y-47210961D01*
X42516508Y-47230261D01*
X42516498Y-47230264D01*
X42370827Y-47290602D01*
X42370814Y-47290609D01*
X42239711Y-47378210D01*
X42239707Y-47378213D01*
X42128213Y-47489707D01*
X42128210Y-47489711D01*
X42040609Y-47620814D01*
X42040602Y-47620827D01*
X41980264Y-47766498D01*
X41980261Y-47766510D01*
X41949500Y-47921153D01*
X41949500Y-48078846D01*
X41980261Y-48233489D01*
X41980263Y-48233497D01*
X41990061Y-48257151D01*
X41991687Y-48265328D01*
X41994477Y-48269669D01*
X41999500Y-48304604D01*
X41999500Y-48385567D01*
X41979815Y-48452606D01*
X41927011Y-48498361D01*
X41857853Y-48508305D01*
X41794297Y-48479280D01*
X41765423Y-48436015D01*
X41762864Y-48437209D01*
X41759815Y-48430670D01*
X41759814Y-48430666D01*
X41667712Y-48281344D01*
X41543656Y-48157288D01*
X41394334Y-48065186D01*
X41227797Y-48010001D01*
X41227794Y-48010000D01*
X41156002Y-48002666D01*
X41134396Y-47993850D01*
X41111495Y-47989374D01*
X41102652Y-47980897D01*
X41091310Y-47976270D01*
X41077900Y-47957172D01*
X41061055Y-47941026D01*
X41054747Y-47924199D01*
X41051159Y-47919089D01*
X41048024Y-47908225D01*
X41047457Y-47905864D01*
X41019737Y-47766503D01*
X41006198Y-47733816D01*
X41003919Y-47724313D01*
X41004389Y-47714951D01*
X41000500Y-47695396D01*
X41000500Y-46687311D01*
X41020185Y-46620272D01*
X41072989Y-46574517D01*
X41077014Y-46572763D01*
X41136697Y-46548043D01*
X41363803Y-46416924D01*
X41571851Y-46257282D01*
X41571855Y-46257277D01*
X41571860Y-46257274D01*
X41757274Y-46071860D01*
X41757277Y-46071855D01*
X41757282Y-46071851D01*
X41916924Y-45863803D01*
X42048043Y-45636697D01*
X42148398Y-45394419D01*
X42216270Y-45141116D01*
X42250500Y-44881120D01*
X42250500Y-44618880D01*
X42216270Y-44358884D01*
X42148398Y-44105581D01*
X42136613Y-44077129D01*
X42048046Y-43863309D01*
X42048041Y-43863299D01*
X41916924Y-43636196D01*
X41757281Y-43428148D01*
X41757274Y-43428140D01*
X41571858Y-43242724D01*
X41571853Y-43242720D01*
X41571851Y-43242718D01*
X41545338Y-43222373D01*
X41504137Y-43165946D01*
X41499983Y-43096200D01*
X41534196Y-43035280D01*
X41595914Y-43002528D01*
X41620827Y-43000000D01*
X74375500Y-43000000D01*
X74442539Y-43019685D01*
X74488294Y-43072489D01*
X74499500Y-43124000D01*
X74499500Y-59375500D01*
X74479815Y-59442539D01*
X74427011Y-59488294D01*
X74375500Y-59499500D01*
X624500Y-59499500D01*
X557461Y-59479815D01*
X511706Y-59427011D01*
X500500Y-59375500D01*
X500500Y-56368872D01*
X12999500Y-56368872D01*
X12999500Y-56631127D01*
X13026123Y-56833339D01*
X13033730Y-56891116D01*
X13101602Y-57144418D01*
X13101605Y-57144428D01*
X13201953Y-57386690D01*
X13201958Y-57386700D01*
X13333075Y-57613803D01*
X13492718Y-57821851D01*
X13492726Y-57821860D01*
X13678140Y-58007274D01*
X13678148Y-58007281D01*
X13886196Y-58166924D01*
X14113299Y-58298041D01*
X14113309Y-58298046D01*
X14355571Y-58398394D01*
X14355581Y-58398398D01*
X14608884Y-58466270D01*
X14868880Y-58500500D01*
X14868887Y-58500500D01*
X15131113Y-58500500D01*
X15131120Y-58500500D01*
X15391116Y-58466270D01*
X15644419Y-58398398D01*
X15886697Y-58298043D01*
X16113803Y-58166924D01*
X16321851Y-58007282D01*
X16321855Y-58007277D01*
X16321860Y-58007274D01*
X16507274Y-57821860D01*
X16507277Y-57821855D01*
X16507282Y-57821851D01*
X16666924Y-57613803D01*
X16798043Y-57386697D01*
X16898398Y-57144419D01*
X16966270Y-56891116D01*
X17000500Y-56631120D01*
X17000500Y-56368880D01*
X17000499Y-56368872D01*
X17999500Y-56368872D01*
X17999500Y-56631127D01*
X18026123Y-56833339D01*
X18033730Y-56891116D01*
X18101602Y-57144418D01*
X18101605Y-57144428D01*
X18201953Y-57386690D01*
X18201958Y-57386700D01*
X18333075Y-57613803D01*
X18492718Y-57821851D01*
X18492726Y-57821860D01*
X18678140Y-58007274D01*
X18678148Y-58007281D01*
X18886196Y-58166924D01*
X19113299Y-58298041D01*
X19113309Y-58298046D01*
X19355571Y-58398394D01*
X19355581Y-58398398D01*
X19608884Y-58466270D01*
X19868880Y-58500500D01*
X19868887Y-58500500D01*
X20131113Y-58500500D01*
X20131120Y-58500500D01*
X20391116Y-58466270D01*
X20644419Y-58398398D01*
X20886697Y-58298043D01*
X21113803Y-58166924D01*
X21321851Y-58007282D01*
X21321855Y-58007277D01*
X21321860Y-58007274D01*
X21507274Y-57821860D01*
X21507277Y-57821855D01*
X21507282Y-57821851D01*
X21666924Y-57613803D01*
X21798043Y-57386697D01*
X21898398Y-57144419D01*
X21966270Y-56891116D01*
X22000500Y-56631120D01*
X22000500Y-56368880D01*
X21966270Y-56108884D01*
X21898398Y-55855581D01*
X21898394Y-55855571D01*
X21798046Y-55613309D01*
X21798041Y-55613299D01*
X21666924Y-55386196D01*
X21507281Y-55178148D01*
X21507274Y-55178140D01*
X21321860Y-54992726D01*
X21321851Y-54992718D01*
X21113803Y-54833075D01*
X20886700Y-54701958D01*
X20886690Y-54701953D01*
X20702047Y-54625472D01*
X20647644Y-54581631D01*
X20625579Y-54515337D01*
X20625500Y-54510911D01*
X20625500Y-51042350D01*
X20645185Y-50975311D01*
X20646398Y-50973459D01*
X20681346Y-50921155D01*
X20709394Y-50879179D01*
X20769737Y-50733497D01*
X20800500Y-50578842D01*
X20800500Y-50421158D01*
X20800500Y-50421155D01*
X20800499Y-50421153D01*
X20794841Y-50392710D01*
X20769737Y-50266503D01*
X20745368Y-50207671D01*
X20709397Y-50120827D01*
X20709390Y-50120814D01*
X20621789Y-49989711D01*
X20621786Y-49989707D01*
X20510292Y-49878213D01*
X20510288Y-49878210D01*
X20379185Y-49790609D01*
X20379172Y-49790602D01*
X20233501Y-49730264D01*
X20233489Y-49730261D01*
X20078845Y-49699500D01*
X20078842Y-49699500D01*
X19921158Y-49699500D01*
X19921155Y-49699500D01*
X19766510Y-49730261D01*
X19766498Y-49730264D01*
X19620827Y-49790602D01*
X19620814Y-49790609D01*
X19489711Y-49878210D01*
X19489707Y-49878213D01*
X19378213Y-49989707D01*
X19378210Y-49989711D01*
X19290609Y-50120814D01*
X19290602Y-50120827D01*
X19230264Y-50266498D01*
X19230261Y-50266510D01*
X19199500Y-50421153D01*
X19199500Y-50578846D01*
X19230261Y-50733489D01*
X19230264Y-50733501D01*
X19290602Y-50879172D01*
X19290609Y-50879184D01*
X19353602Y-50973459D01*
X19374480Y-51040136D01*
X19374500Y-51042350D01*
X19374500Y-54510911D01*
X19354815Y-54577950D01*
X19302011Y-54623705D01*
X19297953Y-54625472D01*
X19113309Y-54701953D01*
X19113299Y-54701958D01*
X18886196Y-54833075D01*
X18678148Y-54992718D01*
X18492718Y-55178148D01*
X18333075Y-55386196D01*
X18201958Y-55613299D01*
X18201953Y-55613309D01*
X18101605Y-55855571D01*
X18101602Y-55855581D01*
X18088629Y-55903999D01*
X18033730Y-56108885D01*
X17999500Y-56368872D01*
X17000499Y-56368872D01*
X16966270Y-56108884D01*
X16898398Y-55855581D01*
X16821911Y-55670926D01*
X16814443Y-55601461D01*
X16845718Y-55538982D01*
X16848764Y-55535824D01*
X18648729Y-53735860D01*
X18648733Y-53735858D01*
X18735858Y-53648733D01*
X18773992Y-53591662D01*
X18804312Y-53546286D01*
X18841821Y-53455730D01*
X18851463Y-53432452D01*
X18859907Y-53389999D01*
X18870885Y-53334813D01*
X18875500Y-53311607D01*
X18875500Y-49792350D01*
X18895185Y-49725311D01*
X18896398Y-49723459D01*
X18945469Y-49650019D01*
X18959394Y-49629179D01*
X18962854Y-49620827D01*
X18991984Y-49550499D01*
X19019737Y-49483497D01*
X19050500Y-49328842D01*
X19050500Y-49171158D01*
X19050500Y-49171155D01*
X19050499Y-49171153D01*
X19042148Y-49129172D01*
X19019737Y-49016503D01*
X18992190Y-48949998D01*
X18959397Y-48870827D01*
X18959390Y-48870814D01*
X18871789Y-48739711D01*
X18871786Y-48739707D01*
X18760292Y-48628213D01*
X18760288Y-48628210D01*
X18629185Y-48540609D01*
X18629172Y-48540602D01*
X18483501Y-48480264D01*
X18483489Y-48480261D01*
X18328845Y-48449500D01*
X18328842Y-48449500D01*
X18171158Y-48449500D01*
X18171155Y-48449500D01*
X18016510Y-48480261D01*
X18016498Y-48480264D01*
X17870827Y-48540602D01*
X17870814Y-48540609D01*
X17739711Y-48628210D01*
X17739707Y-48628213D01*
X17628213Y-48739707D01*
X17628210Y-48739711D01*
X17540609Y-48870814D01*
X17540602Y-48870827D01*
X17480264Y-49016498D01*
X17480261Y-49016510D01*
X17449500Y-49171153D01*
X17449500Y-49328846D01*
X17480261Y-49483489D01*
X17480264Y-49483501D01*
X17540602Y-49629172D01*
X17540609Y-49629184D01*
X17603602Y-49723459D01*
X17624480Y-49790136D01*
X17624500Y-49792350D01*
X17624500Y-52939547D01*
X17604815Y-53006586D01*
X17588181Y-53027228D01*
X15964202Y-54651206D01*
X15902879Y-54684691D01*
X15833187Y-54679707D01*
X15829068Y-54678086D01*
X15644428Y-54601605D01*
X15644421Y-54601603D01*
X15644419Y-54601602D01*
X15391116Y-54533730D01*
X15333339Y-54526123D01*
X15131127Y-54499500D01*
X15131120Y-54499500D01*
X14868880Y-54499500D01*
X14868872Y-54499500D01*
X14637772Y-54529926D01*
X14608884Y-54533730D01*
X14544633Y-54550946D01*
X14355581Y-54601602D01*
X14355571Y-54601605D01*
X14113309Y-54701953D01*
X14113299Y-54701958D01*
X13886196Y-54833075D01*
X13678148Y-54992718D01*
X13492718Y-55178148D01*
X13333075Y-55386196D01*
X13201958Y-55613299D01*
X13201953Y-55613309D01*
X13101605Y-55855571D01*
X13101602Y-55855581D01*
X13088629Y-55903999D01*
X13033730Y-56108885D01*
X12999500Y-56368872D01*
X500500Y-56368872D01*
X500500Y-53878711D01*
X4149500Y-53878711D01*
X4149500Y-54121288D01*
X4181161Y-54361785D01*
X4243947Y-54596104D01*
X4336773Y-54820205D01*
X4336777Y-54820214D01*
X4341760Y-54828844D01*
X4458064Y-55030289D01*
X4458066Y-55030292D01*
X4458067Y-55030293D01*
X4605733Y-55222736D01*
X4605739Y-55222743D01*
X4777256Y-55394260D01*
X4777262Y-55394265D01*
X4969711Y-55541936D01*
X5179788Y-55663224D01*
X5403900Y-55756054D01*
X5638211Y-55818838D01*
X5818586Y-55842584D01*
X5878711Y-55850500D01*
X5878712Y-55850500D01*
X6121289Y-55850500D01*
X6169388Y-55844167D01*
X6361789Y-55818838D01*
X6596100Y-55756054D01*
X6820212Y-55663224D01*
X7030289Y-55541936D01*
X7222738Y-55394265D01*
X7394265Y-55222738D01*
X7541936Y-55030289D01*
X7663224Y-54820212D01*
X7756054Y-54596100D01*
X7818838Y-54361789D01*
X7850500Y-54121288D01*
X7850500Y-53878712D01*
X7845033Y-53837189D01*
X7834589Y-53757853D01*
X7818838Y-53638211D01*
X7756054Y-53403900D01*
X7663224Y-53179788D01*
X7541936Y-52969711D01*
X7394265Y-52777262D01*
X7394260Y-52777256D01*
X7222743Y-52605739D01*
X7222736Y-52605733D01*
X7030293Y-52458067D01*
X7030292Y-52458066D01*
X7030289Y-52458064D01*
X6820212Y-52336776D01*
X6820205Y-52336773D01*
X6596104Y-52243947D01*
X6361785Y-52181161D01*
X6121289Y-52149500D01*
X6121288Y-52149500D01*
X5878712Y-52149500D01*
X5878711Y-52149500D01*
X5638214Y-52181161D01*
X5403895Y-52243947D01*
X5179794Y-52336773D01*
X5179785Y-52336777D01*
X4969706Y-52458067D01*
X4777263Y-52605733D01*
X4777256Y-52605739D01*
X4605739Y-52777256D01*
X4605733Y-52777263D01*
X4458067Y-52969706D01*
X4336777Y-53179785D01*
X4336773Y-53179794D01*
X4243947Y-53403895D01*
X4181161Y-53638214D01*
X4149500Y-53878711D01*
X500500Y-53878711D01*
X500500Y-44077135D01*
X3999500Y-44077135D01*
X3999500Y-45922870D01*
X3999501Y-45922876D01*
X4005908Y-45982483D01*
X4056202Y-46117328D01*
X4056206Y-46117335D01*
X4142452Y-46232544D01*
X4142455Y-46232547D01*
X4257664Y-46318793D01*
X4257671Y-46318797D01*
X4392517Y-46369091D01*
X4392516Y-46369091D01*
X4399444Y-46369835D01*
X4452127Y-46375500D01*
X5547872Y-46375499D01*
X5607483Y-46369091D01*
X5742331Y-46318796D01*
X5857546Y-46232546D01*
X5943796Y-46117331D01*
X5994091Y-45982483D01*
X6000500Y-45922873D01*
X6000499Y-44921153D01*
X6749500Y-44921153D01*
X6749500Y-45078846D01*
X6780261Y-45233489D01*
X6780264Y-45233501D01*
X6840602Y-45379172D01*
X6840609Y-45379185D01*
X6928210Y-45510288D01*
X6928213Y-45510292D01*
X7039707Y-45621786D01*
X7039711Y-45621789D01*
X7170814Y-45709390D01*
X7170827Y-45709397D01*
X7312816Y-45768210D01*
X7316503Y-45769737D01*
X7471153Y-45800499D01*
X7471156Y-45800500D01*
X7471158Y-45800500D01*
X7628844Y-45800500D01*
X7628845Y-45800499D01*
X7783497Y-45769737D01*
X7929179Y-45709394D01*
X8060289Y-45621789D01*
X8171789Y-45510289D01*
X8259394Y-45379179D01*
X8319737Y-45233497D01*
X8350500Y-45078842D01*
X8350500Y-44921158D01*
X8350500Y-44921155D01*
X8350499Y-44921153D01*
X8342536Y-44881120D01*
X8319737Y-44766503D01*
X8319735Y-44766498D01*
X8259397Y-44620827D01*
X8259390Y-44620814D01*
X8171789Y-44489711D01*
X8171786Y-44489707D01*
X8060292Y-44378213D01*
X8060288Y-44378210D01*
X7929185Y-44290609D01*
X7929172Y-44290602D01*
X7783501Y-44230264D01*
X7783489Y-44230261D01*
X7628845Y-44199500D01*
X7628842Y-44199500D01*
X7471158Y-44199500D01*
X7471155Y-44199500D01*
X7316510Y-44230261D01*
X7316498Y-44230264D01*
X7170827Y-44290602D01*
X7170814Y-44290609D01*
X7039711Y-44378210D01*
X7039707Y-44378213D01*
X6928213Y-44489707D01*
X6928210Y-44489711D01*
X6840609Y-44620814D01*
X6840602Y-44620827D01*
X6780264Y-44766498D01*
X6780261Y-44766510D01*
X6749500Y-44921153D01*
X6000499Y-44921153D01*
X6000499Y-44077128D01*
X5994091Y-44017517D01*
X5943796Y-43882669D01*
X5857546Y-43767454D01*
X5857544Y-43767453D01*
X5857544Y-43767452D01*
X5769624Y-43701635D01*
X18792000Y-43701635D01*
X18792000Y-45722370D01*
X18792001Y-45722376D01*
X18798408Y-45781983D01*
X18848703Y-45916830D01*
X18851829Y-45922554D01*
X18867000Y-45981986D01*
X18867000Y-46191418D01*
X18867000Y-46191420D01*
X18866999Y-46191420D01*
X18895840Y-46336407D01*
X18895843Y-46336417D01*
X18952414Y-46472992D01*
X18985313Y-46522229D01*
X18985314Y-46522231D01*
X19007450Y-46555361D01*
X19018907Y-46576795D01*
X19029044Y-46601267D01*
X19040606Y-46629179D01*
X19040609Y-46629185D01*
X19128210Y-46760288D01*
X19128213Y-46760292D01*
X19239707Y-46871786D01*
X19239711Y-46871789D01*
X19370814Y-46959390D01*
X19370827Y-46959397D01*
X19516498Y-47019735D01*
X19516503Y-47019737D01*
X19670680Y-47050405D01*
X19671153Y-47050499D01*
X19671156Y-47050500D01*
X19671158Y-47050500D01*
X19828841Y-47050500D01*
X19828842Y-47050500D01*
X19828842Y-47050499D01*
X19829806Y-47050405D01*
X19830307Y-47050500D01*
X19834934Y-47050500D01*
X19834934Y-47051377D01*
X19898452Y-47063424D01*
X19949162Y-47111489D01*
X19963577Y-47149616D01*
X19980261Y-47233491D01*
X19980264Y-47233501D01*
X20040602Y-47379172D01*
X20040609Y-47379185D01*
X20128210Y-47510288D01*
X20128213Y-47510292D01*
X20239707Y-47621786D01*
X20239711Y-47621789D01*
X20370814Y-47709390D01*
X20370827Y-47709397D01*
X20508683Y-47766498D01*
X20516503Y-47769737D01*
X20671153Y-47800499D01*
X20671156Y-47800500D01*
X20671158Y-47800500D01*
X20828844Y-47800500D01*
X20828845Y-47800499D01*
X20983497Y-47769737D01*
X21129179Y-47709394D01*
X21139217Y-47702687D01*
X21144107Y-47699420D01*
X21210783Y-47678540D01*
X21278164Y-47697023D01*
X21324856Y-47749001D01*
X21337000Y-47802520D01*
X21337000Y-49650001D01*
X21337001Y-49650018D01*
X21347500Y-49752796D01*
X21347501Y-49752799D01*
X21389059Y-49878210D01*
X21402686Y-49919334D01*
X21463539Y-50017993D01*
X21482000Y-50083089D01*
X21482000Y-50416910D01*
X21463539Y-50482006D01*
X21402689Y-50580659D01*
X21402685Y-50580668D01*
X21380168Y-50648620D01*
X21347501Y-50747203D01*
X21347501Y-50747204D01*
X21347500Y-50747204D01*
X21337000Y-50849983D01*
X21337000Y-53150001D01*
X21337001Y-53150018D01*
X21347500Y-53252796D01*
X21347501Y-53252799D01*
X21402685Y-53419331D01*
X21402687Y-53419336D01*
X21425135Y-53455730D01*
X21494788Y-53568656D01*
X21618844Y-53692712D01*
X21768166Y-53784814D01*
X21934703Y-53839999D01*
X22037491Y-53850500D01*
X22962508Y-53850499D01*
X22962516Y-53850498D01*
X22962519Y-53850498D01*
X23018802Y-53844748D01*
X23065297Y-53839999D01*
X23231834Y-53784814D01*
X23381156Y-53692712D01*
X23505212Y-53568656D01*
X23597314Y-53419334D01*
X23652499Y-53252797D01*
X23663000Y-53150009D01*
X23662999Y-51302519D01*
X23682684Y-51235481D01*
X23735487Y-51189726D01*
X23804646Y-51179782D01*
X23855890Y-51199418D01*
X23870814Y-51209390D01*
X23870827Y-51209397D01*
X24016498Y-51269735D01*
X24016503Y-51269737D01*
X24171153Y-51300499D01*
X24171156Y-51300500D01*
X24171158Y-51300500D01*
X24328844Y-51300500D01*
X24328845Y-51300499D01*
X24483497Y-51269737D01*
X24627499Y-51210090D01*
X24629172Y-51209397D01*
X24629172Y-51209396D01*
X24629179Y-51209394D01*
X24760289Y-51121789D01*
X24871789Y-51010289D01*
X24959394Y-50879179D01*
X25019737Y-50733497D01*
X25050500Y-50578842D01*
X25050500Y-50421158D01*
X25050500Y-50421155D01*
X25050499Y-50421153D01*
X25019739Y-50266511D01*
X25019738Y-50266508D01*
X25019737Y-50266503D01*
X25010937Y-50245258D01*
X25001500Y-50197810D01*
X25001500Y-47434451D01*
X25021185Y-47367412D01*
X25037814Y-47346774D01*
X26173271Y-46211317D01*
X26193104Y-46200487D01*
X26210296Y-46185818D01*
X26226185Y-46182424D01*
X26234594Y-46177833D01*
X26244235Y-46176131D01*
X26252555Y-46174999D01*
X26340372Y-46174999D01*
X26399983Y-46168591D01*
X26457602Y-46147100D01*
X26471283Y-46145239D01*
X26492726Y-46148488D01*
X26514358Y-46146941D01*
X26526586Y-46153618D01*
X26540364Y-46155706D01*
X26556647Y-46170032D01*
X26575681Y-46180426D01*
X26582358Y-46192654D01*
X26592820Y-46201859D01*
X26598772Y-46222714D01*
X26609166Y-46241749D01*
X26612000Y-46268107D01*
X26612000Y-50457650D01*
X26592315Y-50524689D01*
X26591102Y-50526541D01*
X26528109Y-50620815D01*
X26528102Y-50620828D01*
X26467764Y-50766498D01*
X26467761Y-50766510D01*
X26437000Y-50921153D01*
X26437000Y-51078846D01*
X26467761Y-51233489D01*
X26467764Y-51233501D01*
X26528102Y-51379172D01*
X26528109Y-51379184D01*
X26591102Y-51473459D01*
X26611980Y-51540136D01*
X26612000Y-51542350D01*
X26612000Y-54226357D01*
X26592315Y-54293396D01*
X26591102Y-54295247D01*
X26540606Y-54370819D01*
X26540604Y-54370822D01*
X26480264Y-54516498D01*
X26480261Y-54516510D01*
X26449500Y-54671153D01*
X26449500Y-54834934D01*
X26447936Y-54834934D01*
X26436334Y-54896073D01*
X26388264Y-54946778D01*
X26320411Y-54963445D01*
X26254319Y-54940782D01*
X26250469Y-54937944D01*
X26113803Y-54833075D01*
X25886700Y-54701958D01*
X25886690Y-54701953D01*
X25644428Y-54601605D01*
X25644421Y-54601603D01*
X25644419Y-54601602D01*
X25391116Y-54533730D01*
X25333339Y-54526123D01*
X25131127Y-54499500D01*
X25131120Y-54499500D01*
X24868880Y-54499500D01*
X24868872Y-54499500D01*
X24637772Y-54529926D01*
X24608884Y-54533730D01*
X24544633Y-54550946D01*
X24355581Y-54601602D01*
X24355571Y-54601605D01*
X24113309Y-54701953D01*
X24113299Y-54701958D01*
X23886196Y-54833075D01*
X23678148Y-54992718D01*
X23492718Y-55178148D01*
X23333075Y-55386196D01*
X23201958Y-55613299D01*
X23201953Y-55613309D01*
X23101605Y-55855571D01*
X23101602Y-55855581D01*
X23088629Y-55903999D01*
X23033730Y-56108885D01*
X22999500Y-56368872D01*
X22999500Y-56631127D01*
X23026123Y-56833339D01*
X23033730Y-56891116D01*
X23101602Y-57144418D01*
X23101605Y-57144428D01*
X23201953Y-57386690D01*
X23201958Y-57386700D01*
X23333075Y-57613803D01*
X23492718Y-57821851D01*
X23492726Y-57821860D01*
X23678140Y-58007274D01*
X23678148Y-58007281D01*
X23886196Y-58166924D01*
X24113299Y-58298041D01*
X24113309Y-58298046D01*
X24355571Y-58398394D01*
X24355581Y-58398398D01*
X24608884Y-58466270D01*
X24868880Y-58500500D01*
X24868887Y-58500500D01*
X25131113Y-58500500D01*
X25131120Y-58500500D01*
X25391116Y-58466270D01*
X25644419Y-58398398D01*
X25886697Y-58298043D01*
X26113803Y-58166924D01*
X26321851Y-58007282D01*
X26321855Y-58007277D01*
X26321860Y-58007274D01*
X26507274Y-57821860D01*
X26507277Y-57821855D01*
X26507282Y-57821851D01*
X26666924Y-57613803D01*
X26798043Y-57386697D01*
X26898398Y-57144419D01*
X26966270Y-56891116D01*
X27000500Y-56631120D01*
X27000500Y-56368880D01*
X26966270Y-56108884D01*
X26898398Y-55855581D01*
X26898394Y-55855571D01*
X26820577Y-55667704D01*
X26813108Y-55598234D01*
X26844383Y-55535755D01*
X26904472Y-55500103D01*
X26974297Y-55502597D01*
X26982583Y-55505687D01*
X27016503Y-55519737D01*
X27171153Y-55550499D01*
X27171156Y-55550500D01*
X27171158Y-55550500D01*
X27328844Y-55550500D01*
X27328845Y-55550499D01*
X27483497Y-55519737D01*
X27629179Y-55459394D01*
X27760289Y-55371789D01*
X27871789Y-55260289D01*
X27959394Y-55129179D01*
X28019737Y-54983497D01*
X28050500Y-54828842D01*
X28050500Y-54671158D01*
X28050500Y-54671155D01*
X28050499Y-54671153D01*
X28035570Y-54596100D01*
X28019737Y-54516503D01*
X27992398Y-54450500D01*
X27959397Y-54370827D01*
X27959390Y-54370814D01*
X27883898Y-54257832D01*
X27863020Y-54191154D01*
X27863000Y-54188941D01*
X27863000Y-51542350D01*
X27882685Y-51475311D01*
X27883898Y-51473459D01*
X27922834Y-51415187D01*
X27946894Y-51379179D01*
X28007237Y-51233497D01*
X28038000Y-51078842D01*
X28038000Y-50921158D01*
X28038000Y-50921155D01*
X28037999Y-50921153D01*
X28007238Y-50766510D01*
X28007237Y-50766503D01*
X27958406Y-50648613D01*
X27946897Y-50620828D01*
X27946896Y-50620827D01*
X27946894Y-50620821D01*
X27883897Y-50526539D01*
X27863020Y-50459863D01*
X27863000Y-50457650D01*
X27863000Y-46311153D01*
X30247000Y-46311153D01*
X30247000Y-46468846D01*
X30277761Y-46623489D01*
X30277764Y-46623501D01*
X30338102Y-46769172D01*
X30338109Y-46769185D01*
X30425710Y-46900288D01*
X30425713Y-46900292D01*
X30537207Y-47011786D01*
X30537211Y-47011789D01*
X30668314Y-47099390D01*
X30668327Y-47099397D01*
X30813998Y-47159735D01*
X30814003Y-47159737D01*
X30968653Y-47190499D01*
X30968656Y-47190500D01*
X30968658Y-47190500D01*
X31126344Y-47190500D01*
X31126345Y-47190499D01*
X31280997Y-47159737D01*
X31426679Y-47099394D01*
X31557789Y-47011789D01*
X31669289Y-46900289D01*
X31756894Y-46769179D01*
X31817237Y-46623497D01*
X31848000Y-46468842D01*
X31848000Y-46311158D01*
X31848000Y-46311155D01*
X31847999Y-46311153D01*
X31840858Y-46275255D01*
X31817237Y-46156503D01*
X31816907Y-46155706D01*
X31756897Y-46010827D01*
X31756890Y-46010814D01*
X31669289Y-45879711D01*
X31669286Y-45879707D01*
X31557792Y-45768213D01*
X31557788Y-45768210D01*
X31426685Y-45680609D01*
X31426672Y-45680602D01*
X31281001Y-45620264D01*
X31280989Y-45620261D01*
X31126345Y-45589500D01*
X31126342Y-45589500D01*
X30968658Y-45589500D01*
X30968655Y-45589500D01*
X30814010Y-45620261D01*
X30813998Y-45620264D01*
X30668327Y-45680602D01*
X30668314Y-45680609D01*
X30537211Y-45768210D01*
X30537207Y-45768213D01*
X30425713Y-45879707D01*
X30425710Y-45879711D01*
X30338109Y-46010814D01*
X30338102Y-46010827D01*
X30277764Y-46156498D01*
X30277761Y-46156510D01*
X30247000Y-46311153D01*
X27863000Y-46311153D01*
X27863000Y-46136820D01*
X27882685Y-46069781D01*
X27912692Y-46037551D01*
X27913001Y-46037320D01*
X27920046Y-46032046D01*
X28006296Y-45916831D01*
X28056591Y-45781983D01*
X28063000Y-45722373D01*
X28062999Y-43701628D01*
X28056591Y-43642017D01*
X28054420Y-43636197D01*
X28006297Y-43507171D01*
X28006293Y-43507164D01*
X27920047Y-43391955D01*
X27920044Y-43391952D01*
X27804835Y-43305706D01*
X27804828Y-43305702D01*
X27669986Y-43255410D01*
X27669985Y-43255409D01*
X27669983Y-43255409D01*
X27610373Y-43249000D01*
X27610363Y-43249000D01*
X26864629Y-43249000D01*
X26864623Y-43249001D01*
X26805016Y-43255408D01*
X26670171Y-43305702D01*
X26662386Y-43309954D01*
X26660653Y-43306780D01*
X26611198Y-43325159D01*
X26542943Y-43310225D01*
X26541997Y-43309617D01*
X26534828Y-43305702D01*
X26399986Y-43255410D01*
X26399985Y-43255409D01*
X26399983Y-43255409D01*
X26340373Y-43249000D01*
X26340363Y-43249000D01*
X25594629Y-43249000D01*
X25594623Y-43249001D01*
X25535016Y-43255408D01*
X25400171Y-43305702D01*
X25392386Y-43309954D01*
X25390653Y-43306780D01*
X25341198Y-43325159D01*
X25272943Y-43310225D01*
X25271997Y-43309617D01*
X25264828Y-43305702D01*
X25129986Y-43255410D01*
X25129985Y-43255409D01*
X25129983Y-43255409D01*
X25070373Y-43249000D01*
X25070363Y-43249000D01*
X24324629Y-43249000D01*
X24324623Y-43249001D01*
X24265016Y-43255408D01*
X24130171Y-43305702D01*
X24130164Y-43305706D01*
X24014955Y-43391952D01*
X24014952Y-43391955D01*
X23928706Y-43507164D01*
X23928702Y-43507171D01*
X23878408Y-43642017D01*
X23872001Y-43701616D01*
X23872001Y-43701623D01*
X23872000Y-43701635D01*
X23872000Y-45722370D01*
X23872001Y-45722376D01*
X23878408Y-45781983D01*
X23906254Y-45856640D01*
X23911238Y-45926332D01*
X23877753Y-45987654D01*
X23448485Y-46416924D01*
X23351269Y-46514140D01*
X23351267Y-46514142D01*
X23324807Y-46540602D01*
X23264143Y-46601265D01*
X23248429Y-46624783D01*
X23194816Y-46669587D01*
X23125491Y-46678293D01*
X23106325Y-46673596D01*
X23065299Y-46660001D01*
X23065295Y-46660000D01*
X22962516Y-46649500D01*
X22962509Y-46649500D01*
X22957000Y-46649500D01*
X22889961Y-46629815D01*
X22844206Y-46577011D01*
X22833000Y-46525500D01*
X22833000Y-46082730D01*
X22852685Y-46015691D01*
X22857733Y-46008419D01*
X22877149Y-45982483D01*
X22926296Y-45916831D01*
X22976591Y-45781983D01*
X22983000Y-45722373D01*
X22982999Y-43701628D01*
X22976591Y-43642017D01*
X22974420Y-43636197D01*
X22926297Y-43507171D01*
X22926293Y-43507164D01*
X22840047Y-43391955D01*
X22840044Y-43391952D01*
X22724835Y-43305706D01*
X22724828Y-43305702D01*
X22589986Y-43255410D01*
X22589985Y-43255409D01*
X22589983Y-43255409D01*
X22530373Y-43249000D01*
X22530363Y-43249000D01*
X21784629Y-43249000D01*
X21784623Y-43249001D01*
X21725016Y-43255408D01*
X21590171Y-43305702D01*
X21582386Y-43309954D01*
X21580653Y-43306780D01*
X21531198Y-43325159D01*
X21462943Y-43310225D01*
X21461997Y-43309617D01*
X21454828Y-43305702D01*
X21319986Y-43255410D01*
X21319985Y-43255409D01*
X21319983Y-43255409D01*
X21260373Y-43249000D01*
X21260363Y-43249000D01*
X20514629Y-43249000D01*
X20514623Y-43249001D01*
X20455016Y-43255408D01*
X20320171Y-43305702D01*
X20312386Y-43309954D01*
X20310653Y-43306780D01*
X20261198Y-43325159D01*
X20192943Y-43310225D01*
X20191997Y-43309617D01*
X20184828Y-43305702D01*
X20049986Y-43255410D01*
X20049985Y-43255409D01*
X20049983Y-43255409D01*
X19990373Y-43249000D01*
X19990363Y-43249000D01*
X19244629Y-43249000D01*
X19244623Y-43249001D01*
X19185016Y-43255408D01*
X19050171Y-43305702D01*
X19050164Y-43305706D01*
X18934955Y-43391952D01*
X18934952Y-43391955D01*
X18848706Y-43507164D01*
X18848702Y-43507171D01*
X18798408Y-43642017D01*
X18792001Y-43701616D01*
X18792001Y-43701623D01*
X18792000Y-43701635D01*
X5769624Y-43701635D01*
X5742335Y-43681206D01*
X5742328Y-43681202D01*
X5607482Y-43630908D01*
X5607483Y-43630908D01*
X5547883Y-43624501D01*
X5547881Y-43624500D01*
X5547873Y-43624500D01*
X5547864Y-43624500D01*
X4452129Y-43624500D01*
X4452123Y-43624501D01*
X4392516Y-43630908D01*
X4257671Y-43681202D01*
X4257664Y-43681206D01*
X4142455Y-43767452D01*
X4142452Y-43767455D01*
X4056206Y-43882664D01*
X4056202Y-43882671D01*
X4005908Y-44017517D01*
X3999857Y-44073806D01*
X3999501Y-44077123D01*
X3999500Y-44077135D01*
X500500Y-44077135D01*
X500500Y-43124000D01*
X520185Y-43056961D01*
X572989Y-43011206D01*
X624500Y-43000000D01*
X34379173Y-43000000D01*
X34446212Y-43019685D01*
G37*
%TD.AperFunction*%
%TD*%
%TA.AperFunction,Conductor*%
%TO.N,/SingleChannelDriver/GND_B*%
G36*
X33943039Y-2019685D02*
G01*
X33988794Y-2072489D01*
X34000000Y-2124000D01*
X34000000Y-35876000D01*
X33980315Y-35943039D01*
X33927511Y-35988794D01*
X33876000Y-36000000D01*
X31224500Y-36000000D01*
X31157461Y-35980315D01*
X31111706Y-35927511D01*
X31100500Y-35876000D01*
X31100499Y-33849998D01*
X31100498Y-33849981D01*
X31089999Y-33747203D01*
X31089998Y-33747200D01*
X31078746Y-33713244D01*
X31034814Y-33580666D01*
X30942712Y-33431344D01*
X30818656Y-33307288D01*
X30669334Y-33215186D01*
X30502797Y-33160001D01*
X30502795Y-33160000D01*
X30400010Y-33149500D01*
X29474998Y-33149500D01*
X29474980Y-33149501D01*
X29372203Y-33160000D01*
X29372200Y-33160001D01*
X29205668Y-33215185D01*
X29205663Y-33215187D01*
X29056342Y-33307289D01*
X28932289Y-33431342D01*
X28840187Y-33580663D01*
X28840186Y-33580666D01*
X28787386Y-33740005D01*
X28747613Y-33797449D01*
X28683097Y-33824272D01*
X28669680Y-33825000D01*
X28134629Y-33825000D01*
X28134623Y-33825001D01*
X28075016Y-33831408D01*
X27940171Y-33881702D01*
X27932386Y-33885954D01*
X27930653Y-33882780D01*
X27881198Y-33901159D01*
X27812943Y-33886225D01*
X27811997Y-33885617D01*
X27804828Y-33881702D01*
X27669986Y-33831410D01*
X27669985Y-33831409D01*
X27669983Y-33831409D01*
X27610373Y-33825000D01*
X27610363Y-33825000D01*
X26864629Y-33825000D01*
X26864623Y-33825001D01*
X26805012Y-33831409D01*
X26797469Y-33833192D01*
X26796807Y-33830393D01*
X26740639Y-33834410D01*
X26679316Y-33800923D01*
X26645833Y-33739599D01*
X26643000Y-33713244D01*
X26643000Y-30311153D01*
X30247000Y-30311153D01*
X30247000Y-30468846D01*
X30277761Y-30623489D01*
X30277764Y-30623501D01*
X30338102Y-30769172D01*
X30338109Y-30769185D01*
X30425710Y-30900288D01*
X30425713Y-30900292D01*
X30537207Y-31011786D01*
X30537211Y-31011789D01*
X30668314Y-31099390D01*
X30668327Y-31099397D01*
X30813998Y-31159735D01*
X30814003Y-31159737D01*
X30968653Y-31190499D01*
X30968656Y-31190500D01*
X30968658Y-31190500D01*
X31126344Y-31190500D01*
X31126345Y-31190499D01*
X31280997Y-31159737D01*
X31426679Y-31099394D01*
X31557789Y-31011789D01*
X31669289Y-30900289D01*
X31756894Y-30769179D01*
X31817237Y-30623497D01*
X31848000Y-30468842D01*
X31848000Y-30311158D01*
X31848000Y-30311155D01*
X31847999Y-30311153D01*
X31817238Y-30156510D01*
X31817237Y-30156503D01*
X31817235Y-30156498D01*
X31756897Y-30010827D01*
X31756890Y-30010814D01*
X31669289Y-29879711D01*
X31669286Y-29879707D01*
X31557792Y-29768213D01*
X31557788Y-29768210D01*
X31426685Y-29680609D01*
X31426672Y-29680602D01*
X31281001Y-29620264D01*
X31280989Y-29620261D01*
X31126345Y-29589500D01*
X31126342Y-29589500D01*
X30968658Y-29589500D01*
X30968655Y-29589500D01*
X30814010Y-29620261D01*
X30813998Y-29620264D01*
X30668327Y-29680602D01*
X30668314Y-29680609D01*
X30537211Y-29768210D01*
X30537207Y-29768213D01*
X30425713Y-29879707D01*
X30425710Y-29879711D01*
X30338109Y-30010814D01*
X30338102Y-30010827D01*
X30277764Y-30156498D01*
X30277761Y-30156510D01*
X30247000Y-30311153D01*
X26643000Y-30311153D01*
X26643000Y-22062969D01*
X26642999Y-22062965D01*
X26640520Y-22050497D01*
X26640520Y-22050496D01*
X26617042Y-21932469D01*
X26617041Y-21932468D01*
X26617041Y-21932464D01*
X26566120Y-21809531D01*
X26566118Y-21809528D01*
X26566116Y-21809524D01*
X26492195Y-21698894D01*
X26492192Y-21698890D01*
X26286818Y-21493516D01*
X26253333Y-21432193D01*
X26250499Y-21405835D01*
X26250499Y-21076629D01*
X26250498Y-21076623D01*
X26244091Y-21017016D01*
X26193797Y-20882171D01*
X26193793Y-20882164D01*
X26107547Y-20766955D01*
X26107544Y-20766952D01*
X25992335Y-20680706D01*
X25992328Y-20680702D01*
X25857482Y-20630408D01*
X25857483Y-20630408D01*
X25797883Y-20624001D01*
X25797881Y-20624000D01*
X25797873Y-20624000D01*
X25797865Y-20624000D01*
X25468664Y-20624000D01*
X25439223Y-20615355D01*
X25409237Y-20608832D01*
X25404221Y-20605077D01*
X25401625Y-20604315D01*
X25380983Y-20587681D01*
X25380982Y-20587680D01*
X25347497Y-20526357D01*
X25352481Y-20456665D01*
X25394353Y-20400732D01*
X25459817Y-20376315D01*
X25468647Y-20375999D01*
X25797872Y-20375999D01*
X25857483Y-20369591D01*
X25992331Y-20319296D01*
X26107546Y-20233046D01*
X26193796Y-20117831D01*
X26244091Y-19982983D01*
X26250500Y-19923373D01*
X26250500Y-19849983D01*
X28274500Y-19849983D01*
X28274500Y-22150001D01*
X28274501Y-22150018D01*
X28285000Y-22252796D01*
X28285001Y-22252799D01*
X28340185Y-22419331D01*
X28340187Y-22419336D01*
X28432289Y-22568657D01*
X28525951Y-22662319D01*
X28559436Y-22723642D01*
X28554452Y-22793334D01*
X28525951Y-22837681D01*
X28432289Y-22931342D01*
X28340187Y-23080663D01*
X28340186Y-23080666D01*
X28285001Y-23247203D01*
X28285001Y-23247204D01*
X28285000Y-23247204D01*
X28274500Y-23349983D01*
X28274500Y-25650001D01*
X28274501Y-25650018D01*
X28285000Y-25752796D01*
X28285001Y-25752799D01*
X28340185Y-25919331D01*
X28340186Y-25919334D01*
X28432288Y-26068656D01*
X28556344Y-26192712D01*
X28705666Y-26284814D01*
X28872203Y-26339999D01*
X28974991Y-26350500D01*
X29900008Y-26350499D01*
X29900016Y-26350498D01*
X29900019Y-26350498D01*
X29956302Y-26344748D01*
X30002797Y-26339999D01*
X30169334Y-26284814D01*
X30318656Y-26192712D01*
X30442712Y-26068656D01*
X30534814Y-25919334D01*
X30589999Y-25752797D01*
X30600500Y-25650009D01*
X30600499Y-23349992D01*
X30589999Y-23247203D01*
X30534814Y-23080666D01*
X30442712Y-22931344D01*
X30349049Y-22837681D01*
X30315564Y-22776358D01*
X30320548Y-22706666D01*
X30349049Y-22662319D01*
X30368075Y-22643293D01*
X30442712Y-22568656D01*
X30534814Y-22419334D01*
X30589999Y-22252797D01*
X30600500Y-22150009D01*
X30600499Y-19849992D01*
X30600498Y-19849983D01*
X31399500Y-19849983D01*
X31399500Y-22150001D01*
X31399501Y-22150018D01*
X31410000Y-22252796D01*
X31410001Y-22252799D01*
X31465185Y-22419331D01*
X31465187Y-22419336D01*
X31557289Y-22568657D01*
X31650951Y-22662319D01*
X31684436Y-22723642D01*
X31679452Y-22793334D01*
X31650951Y-22837681D01*
X31557289Y-22931342D01*
X31465187Y-23080663D01*
X31465186Y-23080666D01*
X31410001Y-23247203D01*
X31410001Y-23247204D01*
X31410000Y-23247204D01*
X31399500Y-23349983D01*
X31399500Y-25650001D01*
X31399501Y-25650018D01*
X31410000Y-25752796D01*
X31410001Y-25752799D01*
X31465185Y-25919331D01*
X31465186Y-25919334D01*
X31557288Y-26068656D01*
X31681344Y-26192712D01*
X31830666Y-26284814D01*
X31997203Y-26339999D01*
X32099991Y-26350500D01*
X33025008Y-26350499D01*
X33025016Y-26350498D01*
X33025019Y-26350498D01*
X33081302Y-26344748D01*
X33127797Y-26339999D01*
X33294334Y-26284814D01*
X33443656Y-26192712D01*
X33567712Y-26068656D01*
X33659814Y-25919334D01*
X33714999Y-25752797D01*
X33725500Y-25650009D01*
X33725499Y-23349992D01*
X33714999Y-23247203D01*
X33659814Y-23080666D01*
X33567712Y-22931344D01*
X33474049Y-22837681D01*
X33440564Y-22776358D01*
X33445548Y-22706666D01*
X33474049Y-22662319D01*
X33493075Y-22643293D01*
X33567712Y-22568656D01*
X33659814Y-22419334D01*
X33714999Y-22252797D01*
X33725500Y-22150009D01*
X33725499Y-19849992D01*
X33725176Y-19846834D01*
X33714999Y-19747203D01*
X33714998Y-19747200D01*
X33669630Y-19610289D01*
X33659814Y-19580666D01*
X33567712Y-19431344D01*
X33443656Y-19307288D01*
X33294334Y-19215186D01*
X33127797Y-19160001D01*
X33127795Y-19160000D01*
X33025010Y-19149500D01*
X32099998Y-19149500D01*
X32099980Y-19149501D01*
X31997203Y-19160000D01*
X31997200Y-19160001D01*
X31830668Y-19215185D01*
X31830663Y-19215187D01*
X31681342Y-19307289D01*
X31557289Y-19431342D01*
X31465187Y-19580663D01*
X31465186Y-19580666D01*
X31410001Y-19747203D01*
X31410001Y-19747204D01*
X31410000Y-19747204D01*
X31399500Y-19849983D01*
X30600498Y-19849983D01*
X30600176Y-19846834D01*
X30589999Y-19747203D01*
X30589998Y-19747200D01*
X30544630Y-19610289D01*
X30534814Y-19580666D01*
X30442712Y-19431344D01*
X30318656Y-19307288D01*
X30169334Y-19215186D01*
X30002797Y-19160001D01*
X30002795Y-19160000D01*
X29900010Y-19149500D01*
X28974998Y-19149500D01*
X28974980Y-19149501D01*
X28872203Y-19160000D01*
X28872200Y-19160001D01*
X28705668Y-19215185D01*
X28705663Y-19215187D01*
X28556342Y-19307289D01*
X28432289Y-19431342D01*
X28340187Y-19580663D01*
X28340186Y-19580666D01*
X28285001Y-19747203D01*
X28285001Y-19747204D01*
X28285000Y-19747204D01*
X28274500Y-19849983D01*
X26250500Y-19849983D01*
X26250499Y-19333501D01*
X26250499Y-18752629D01*
X26250498Y-18752623D01*
X26244091Y-18693016D01*
X26193797Y-18558171D01*
X26193793Y-18558164D01*
X26107547Y-18442955D01*
X26107544Y-18442952D01*
X25992335Y-18356706D01*
X25992328Y-18356702D01*
X25857486Y-18306410D01*
X25857485Y-18306409D01*
X25857483Y-18306409D01*
X25797873Y-18300000D01*
X25797863Y-18300000D01*
X25202129Y-18300000D01*
X25202123Y-18300001D01*
X25142516Y-18306408D01*
X25007671Y-18356702D01*
X25007666Y-18356705D01*
X24989266Y-18370479D01*
X24923801Y-18394893D01*
X24867507Y-18385771D01*
X24830588Y-18370479D01*
X24733497Y-18330263D01*
X24733492Y-18330262D01*
X24733489Y-18330261D01*
X24578845Y-18299500D01*
X24578842Y-18299500D01*
X24421158Y-18299500D01*
X24421155Y-18299500D01*
X24266510Y-18330261D01*
X24266498Y-18330264D01*
X24120827Y-18390602D01*
X24120814Y-18390609D01*
X23989711Y-18478210D01*
X23989707Y-18478213D01*
X23878213Y-18589707D01*
X23878210Y-18589711D01*
X23790609Y-18720814D01*
X23790602Y-18720827D01*
X23730264Y-18866498D01*
X23730261Y-18866510D01*
X23699500Y-19021153D01*
X23699500Y-19178846D01*
X23730261Y-19333489D01*
X23730264Y-19333501D01*
X23790602Y-19479172D01*
X23790609Y-19479185D01*
X23878210Y-19610288D01*
X23878213Y-19610292D01*
X23989707Y-19721786D01*
X23989711Y-19721789D01*
X24120814Y-19809390D01*
X24120827Y-19809397D01*
X24208230Y-19845599D01*
X24266503Y-19869737D01*
X24315541Y-19879491D01*
X24360240Y-19898006D01*
X24418024Y-19936616D01*
X24418028Y-19936618D01*
X24418031Y-19936620D01*
X24540964Y-19987541D01*
X24671464Y-20013499D01*
X24671468Y-20013500D01*
X24671469Y-20013500D01*
X24681196Y-20013500D01*
X24748235Y-20033185D01*
X24784898Y-20069516D01*
X24792520Y-20081142D01*
X24806204Y-20117831D01*
X24889633Y-20229277D01*
X24891756Y-20232516D01*
X24900823Y-20262391D01*
X24911738Y-20291653D01*
X24910889Y-20295553D01*
X24912049Y-20299374D01*
X24903524Y-20329411D01*
X24896887Y-20359926D01*
X24894063Y-20362749D01*
X24892974Y-20366589D01*
X24869565Y-20387248D01*
X24847482Y-20409332D01*
X24843346Y-20410387D01*
X24840588Y-20412822D01*
X24823652Y-20415414D01*
X24788054Y-20424500D01*
X23356058Y-20424500D01*
X23289019Y-20404815D01*
X23250519Y-20365597D01*
X23167712Y-20231344D01*
X23043656Y-20107288D01*
X22894334Y-20015186D01*
X22727797Y-19960001D01*
X22727795Y-19960000D01*
X22625010Y-19949500D01*
X20374998Y-19949500D01*
X20374981Y-19949501D01*
X20272203Y-19960000D01*
X20272200Y-19960001D01*
X20105668Y-20015185D01*
X20105663Y-20015187D01*
X19956342Y-20107289D01*
X19832289Y-20231342D01*
X19740187Y-20380663D01*
X19740185Y-20380668D01*
X19725661Y-20424500D01*
X19685001Y-20547203D01*
X19685001Y-20547204D01*
X19685000Y-20547204D01*
X19674500Y-20649983D01*
X19674500Y-21550001D01*
X19674501Y-21550019D01*
X19685000Y-21652796D01*
X19685001Y-21652799D01*
X19740185Y-21819331D01*
X19740187Y-21819336D01*
X19769464Y-21866801D01*
X19832288Y-21968656D01*
X19956344Y-22092712D01*
X20105666Y-22184814D01*
X20272203Y-22239999D01*
X20374991Y-22250500D01*
X22625008Y-22250499D01*
X22727797Y-22239999D01*
X22894334Y-22184814D01*
X23043656Y-22092712D01*
X23167712Y-21968656D01*
X23250519Y-21834402D01*
X23302467Y-21787679D01*
X23356058Y-21775500D01*
X24606837Y-21775500D01*
X24636277Y-21784144D01*
X24666264Y-21790668D01*
X24671279Y-21794422D01*
X24673876Y-21795185D01*
X24694518Y-21811819D01*
X24713181Y-21830482D01*
X24746666Y-21891805D01*
X24749500Y-21918163D01*
X24749500Y-22247369D01*
X24749501Y-22247376D01*
X24755908Y-22306983D01*
X24806202Y-22441828D01*
X24806206Y-22441835D01*
X24892452Y-22557044D01*
X24892455Y-22557047D01*
X25007664Y-22643293D01*
X25007671Y-22643297D01*
X25052618Y-22660061D01*
X25142517Y-22693591D01*
X25181258Y-22697756D01*
X25245806Y-22724493D01*
X25285654Y-22781886D01*
X25292000Y-22821045D01*
X25292000Y-26542691D01*
X25272315Y-26609730D01*
X25219511Y-26655485D01*
X25150353Y-26665429D01*
X25129010Y-26660402D01*
X25127800Y-26660001D01*
X25025010Y-26649500D01*
X24099998Y-26649500D01*
X24099980Y-26649501D01*
X23997203Y-26660000D01*
X23997200Y-26660001D01*
X23830668Y-26715185D01*
X23830663Y-26715187D01*
X23681342Y-26807289D01*
X23557289Y-26931342D01*
X23465187Y-27080663D01*
X23465186Y-27080666D01*
X23410001Y-27247203D01*
X23410001Y-27247204D01*
X23410000Y-27247204D01*
X23399500Y-27349983D01*
X23399500Y-29363444D01*
X23379815Y-29430483D01*
X23327011Y-29476238D01*
X23257853Y-29486182D01*
X23239575Y-29481202D01*
X23239324Y-29482031D01*
X23233500Y-29480264D01*
X23233497Y-29480263D01*
X23233492Y-29480262D01*
X23233489Y-29480261D01*
X23078845Y-29449500D01*
X23078842Y-29449500D01*
X22921158Y-29449500D01*
X22921155Y-29449500D01*
X22766510Y-29480261D01*
X22760676Y-29482031D01*
X22759854Y-29479322D01*
X22702398Y-29485460D01*
X22639941Y-29454142D01*
X22604330Y-29394028D01*
X22600499Y-29363445D01*
X22600499Y-27349998D01*
X22600498Y-27349981D01*
X22589999Y-27247203D01*
X22589998Y-27247200D01*
X22548120Y-27120821D01*
X22534814Y-27080666D01*
X22442712Y-26931344D01*
X22318656Y-26807288D01*
X22225888Y-26750069D01*
X22169336Y-26715187D01*
X22169331Y-26715185D01*
X22166998Y-26714412D01*
X22002797Y-26660001D01*
X22002795Y-26660000D01*
X21900010Y-26649500D01*
X20974998Y-26649500D01*
X20974980Y-26649501D01*
X20872203Y-26660000D01*
X20872200Y-26660001D01*
X20705668Y-26715185D01*
X20705663Y-26715187D01*
X20556342Y-26807289D01*
X20432289Y-26931342D01*
X20340187Y-27080663D01*
X20340186Y-27080666D01*
X20285001Y-27247203D01*
X20285001Y-27247204D01*
X20285000Y-27247204D01*
X20274500Y-27349983D01*
X20274500Y-29650001D01*
X20274501Y-29650018D01*
X20285000Y-29752796D01*
X20285001Y-29752799D01*
X20340185Y-29919331D01*
X20340187Y-29919336D01*
X20432289Y-30068657D01*
X20525951Y-30162319D01*
X20559436Y-30223642D01*
X20554452Y-30293334D01*
X20525951Y-30337681D01*
X20432289Y-30431342D01*
X20340187Y-30580663D01*
X20340186Y-30580666D01*
X20285001Y-30747203D01*
X20285001Y-30747204D01*
X20285000Y-30747204D01*
X20274500Y-30849983D01*
X20274500Y-32240081D01*
X20274449Y-32240430D01*
X20274499Y-32240603D01*
X20274225Y-32241965D01*
X20269329Y-32275517D01*
X20267505Y-32281630D01*
X20237959Y-32352964D01*
X20222515Y-32430606D01*
X20221385Y-32436286D01*
X20221382Y-32436297D01*
X20212000Y-32483467D01*
X20212000Y-33917269D01*
X20192315Y-33984308D01*
X20187267Y-33991580D01*
X20118704Y-34083168D01*
X20118702Y-34083171D01*
X20068408Y-34218017D01*
X20062001Y-34277616D01*
X20062000Y-34277635D01*
X20062001Y-35876000D01*
X20042316Y-35943039D01*
X19989513Y-35988794D01*
X19938001Y-36000000D01*
X14124000Y-36000000D01*
X14056961Y-35980315D01*
X14011206Y-35927511D01*
X14000000Y-35876000D01*
X14000000Y-32344927D01*
X14019685Y-32277888D01*
X14072489Y-32232133D01*
X14141647Y-32222189D01*
X14171450Y-32230365D01*
X14266503Y-32269737D01*
X14421153Y-32300499D01*
X14421156Y-32300500D01*
X14421158Y-32300500D01*
X14578844Y-32300500D01*
X14578845Y-32300499D01*
X14733497Y-32269737D01*
X14879179Y-32209394D01*
X14939133Y-32169334D01*
X14992167Y-32133898D01*
X15010213Y-32128247D01*
X15026123Y-32118023D01*
X15057082Y-32113571D01*
X15058844Y-32113020D01*
X15061058Y-32113000D01*
X15111232Y-32113000D01*
X15178271Y-32132685D01*
X15216769Y-32171901D01*
X15307288Y-32318656D01*
X15431344Y-32442712D01*
X15580666Y-32534814D01*
X15747203Y-32589999D01*
X15849991Y-32600500D01*
X18150008Y-32600499D01*
X18252797Y-32589999D01*
X18419334Y-32534814D01*
X18568656Y-32442712D01*
X18692712Y-32318656D01*
X18784814Y-32169334D01*
X18839999Y-32002797D01*
X18850500Y-31900009D01*
X18850499Y-30974992D01*
X18839999Y-30872203D01*
X18784814Y-30705666D01*
X18692712Y-30556344D01*
X18568656Y-30432288D01*
X18419334Y-30340186D01*
X18252797Y-30285001D01*
X18252795Y-30285000D01*
X18150010Y-30274500D01*
X15849998Y-30274500D01*
X15849981Y-30274501D01*
X15747203Y-30285000D01*
X15747200Y-30285001D01*
X15580668Y-30340185D01*
X15580663Y-30340187D01*
X15431342Y-30432289D01*
X15307289Y-30556342D01*
X15307288Y-30556344D01*
X15218990Y-30699500D01*
X15216771Y-30703097D01*
X15164823Y-30749821D01*
X15111232Y-30762000D01*
X14834782Y-30762000D01*
X14787329Y-30752561D01*
X14733497Y-30730263D01*
X14733489Y-30730261D01*
X14578845Y-30699500D01*
X14578842Y-30699500D01*
X14421158Y-30699500D01*
X14421155Y-30699500D01*
X14266510Y-30730261D01*
X14266507Y-30730262D01*
X14266506Y-30730262D01*
X14266503Y-30730263D01*
X14189883Y-30762000D01*
X14171452Y-30769634D01*
X14101982Y-30777102D01*
X14039503Y-30745826D01*
X14003851Y-30685737D01*
X14000000Y-30655072D01*
X14000000Y-28799500D01*
X14019685Y-28732461D01*
X14072489Y-28686706D01*
X14124000Y-28675500D01*
X14816532Y-28675500D01*
X14816533Y-28675499D01*
X14947036Y-28649541D01*
X14978046Y-28636695D01*
X15047515Y-28629226D01*
X15109994Y-28660500D01*
X15145648Y-28720588D01*
X15149500Y-28751256D01*
X15149500Y-29025000D01*
X15149501Y-29025019D01*
X15160000Y-29127796D01*
X15160001Y-29127799D01*
X15215185Y-29294331D01*
X15215186Y-29294334D01*
X15307288Y-29443656D01*
X15431344Y-29567712D01*
X15580666Y-29659814D01*
X15747203Y-29714999D01*
X15849991Y-29725500D01*
X18150008Y-29725499D01*
X18252797Y-29714999D01*
X18419334Y-29659814D01*
X18568656Y-29567712D01*
X18692712Y-29443656D01*
X18784814Y-29294334D01*
X18839999Y-29127797D01*
X18850500Y-29025009D01*
X18850499Y-28099992D01*
X18839999Y-27997203D01*
X18784814Y-27830666D01*
X18692712Y-27681344D01*
X18568656Y-27557288D01*
X18419334Y-27465186D01*
X18252797Y-27410001D01*
X18252795Y-27410000D01*
X18150016Y-27399500D01*
X18150009Y-27399500D01*
X16156163Y-27399500D01*
X16126722Y-27390855D01*
X16096736Y-27384332D01*
X16091720Y-27380577D01*
X16089124Y-27379815D01*
X16068482Y-27363181D01*
X16058236Y-27352935D01*
X16024751Y-27291612D01*
X16024314Y-27289514D01*
X16019737Y-27266503D01*
X16011743Y-27247203D01*
X15959397Y-27120827D01*
X15959390Y-27120814D01*
X15871789Y-26989711D01*
X15871786Y-26989707D01*
X15760292Y-26878213D01*
X15760288Y-26878210D01*
X15629185Y-26790609D01*
X15629172Y-26790602D01*
X15483501Y-26730264D01*
X15483489Y-26730261D01*
X15328845Y-26699500D01*
X15328842Y-26699500D01*
X15171158Y-26699500D01*
X15171155Y-26699500D01*
X15016510Y-26730261D01*
X15016498Y-26730264D01*
X14870827Y-26790602D01*
X14870814Y-26790609D01*
X14739711Y-26878210D01*
X14739707Y-26878213D01*
X14628213Y-26989707D01*
X14628210Y-26989711D01*
X14540609Y-27120814D01*
X14540602Y-27120827D01*
X14487947Y-27247952D01*
X14475404Y-27263517D01*
X14467099Y-27281703D01*
X14453929Y-27290166D01*
X14444107Y-27302356D01*
X14425137Y-27308669D01*
X14408321Y-27319477D01*
X14380761Y-27323439D01*
X14377813Y-27324421D01*
X14373386Y-27324500D01*
X14124000Y-27324500D01*
X14056961Y-27304815D01*
X14011206Y-27252011D01*
X14000000Y-27200500D01*
X14000000Y-17051361D01*
X14019685Y-16984322D01*
X14036314Y-16963685D01*
X15962823Y-15037176D01*
X16024142Y-15003694D01*
X16093834Y-15008678D01*
X16149767Y-15050550D01*
X16174184Y-15116014D01*
X16174500Y-15124860D01*
X16174500Y-15400000D01*
X16174501Y-15400019D01*
X16185000Y-15502796D01*
X16185001Y-15502799D01*
X16240185Y-15669331D01*
X16240187Y-15669336D01*
X16257860Y-15697989D01*
X16332288Y-15818656D01*
X16456344Y-15942712D01*
X16605666Y-16034814D01*
X16772203Y-16089999D01*
X16874991Y-16100500D01*
X19125008Y-16100499D01*
X19227797Y-16089999D01*
X19394334Y-16034814D01*
X19543656Y-15942712D01*
X19667712Y-15818656D01*
X19750519Y-15684402D01*
X19802467Y-15637679D01*
X19856058Y-15625500D01*
X20383132Y-15625500D01*
X20450171Y-15645185D01*
X20495926Y-15697989D01*
X20506421Y-15762756D01*
X20499500Y-15827118D01*
X20499500Y-16725500D01*
X20479815Y-16792539D01*
X20427011Y-16838294D01*
X20378120Y-16848936D01*
X20378141Y-16849341D01*
X20375691Y-16849465D01*
X20375534Y-16849500D01*
X20375015Y-16849500D01*
X20374980Y-16849501D01*
X20272203Y-16860000D01*
X20272200Y-16860001D01*
X20105668Y-16915185D01*
X20105663Y-16915187D01*
X19956342Y-17007289D01*
X19832288Y-17131343D01*
X19827807Y-17137011D01*
X19826641Y-17136089D01*
X19780789Y-17177318D01*
X19711824Y-17188528D01*
X19647747Y-17160674D01*
X19639536Y-17153168D01*
X19543657Y-17057289D01*
X19543656Y-17057288D01*
X19394334Y-16965186D01*
X19227797Y-16910001D01*
X19227795Y-16910000D01*
X19125010Y-16899500D01*
X16874998Y-16899500D01*
X16874981Y-16899501D01*
X16772203Y-16910000D01*
X16772200Y-16910001D01*
X16605668Y-16965185D01*
X16605663Y-16965187D01*
X16456342Y-17057289D01*
X16332289Y-17181342D01*
X16240187Y-17330663D01*
X16240186Y-17330666D01*
X16185001Y-17497203D01*
X16185001Y-17497204D01*
X16185000Y-17497204D01*
X16174500Y-17599983D01*
X16174500Y-18500001D01*
X16174501Y-18500019D01*
X16185000Y-18602796D01*
X16185001Y-18602799D01*
X16236268Y-18757509D01*
X16240186Y-18769334D01*
X16332288Y-18918656D01*
X16456344Y-19042712D01*
X16605666Y-19134814D01*
X16772203Y-19189999D01*
X16874991Y-19200500D01*
X19125008Y-19200499D01*
X19227797Y-19189999D01*
X19394334Y-19134814D01*
X19543656Y-19042712D01*
X19667712Y-18918656D01*
X19667715Y-18918650D01*
X19672193Y-18912989D01*
X19673361Y-18913913D01*
X19719186Y-18872693D01*
X19788148Y-18861468D01*
X19852231Y-18889308D01*
X19860463Y-18896831D01*
X19956344Y-18992712D01*
X20105666Y-19084814D01*
X20272203Y-19139999D01*
X20374991Y-19150500D01*
X22625008Y-19150499D01*
X22727797Y-19139999D01*
X22894334Y-19084814D01*
X23043656Y-18992712D01*
X23167712Y-18868656D01*
X23259814Y-18719334D01*
X23314999Y-18552797D01*
X23325500Y-18450009D01*
X23325499Y-17549992D01*
X23314999Y-17447203D01*
X23259814Y-17280666D01*
X23219061Y-17214595D01*
X23200622Y-17147204D01*
X23221545Y-17080541D01*
X23275187Y-17035771D01*
X23324601Y-17025500D01*
X24216532Y-17025500D01*
X24216533Y-17025499D01*
X24347036Y-16999541D01*
X24469969Y-16948620D01*
X24580606Y-16874695D01*
X24647065Y-16808234D01*
X24708386Y-16774751D01*
X24710470Y-16774317D01*
X24733497Y-16769737D01*
X24879179Y-16709394D01*
X25010289Y-16621789D01*
X25121789Y-16510289D01*
X25209394Y-16379179D01*
X25269737Y-16233497D01*
X25300500Y-16078842D01*
X25300500Y-15921158D01*
X25300500Y-15921155D01*
X25300499Y-15921153D01*
X25280111Y-15818656D01*
X25269737Y-15766503D01*
X25241358Y-15697989D01*
X25209397Y-15620827D01*
X25209390Y-15620814D01*
X25121789Y-15489711D01*
X25121786Y-15489707D01*
X25010292Y-15378213D01*
X25010288Y-15378210D01*
X24879185Y-15290609D01*
X24879172Y-15290602D01*
X24733501Y-15230264D01*
X24733489Y-15230261D01*
X24578845Y-15199500D01*
X24578842Y-15199500D01*
X24421158Y-15199500D01*
X24421155Y-15199500D01*
X24266510Y-15230261D01*
X24266498Y-15230264D01*
X24120827Y-15290602D01*
X24120814Y-15290609D01*
X23989711Y-15378210D01*
X23989707Y-15378213D01*
X23878213Y-15489707D01*
X23878210Y-15489711D01*
X23791561Y-15619391D01*
X23737949Y-15664196D01*
X23688459Y-15674500D01*
X22537180Y-15674500D01*
X22532852Y-15673229D01*
X22528446Y-15674192D01*
X22499632Y-15663474D01*
X22470141Y-15654815D01*
X22466003Y-15650966D01*
X22462959Y-15649834D01*
X22437980Y-15624900D01*
X22437604Y-15624398D01*
X22413129Y-15558958D01*
X22427919Y-15490671D01*
X22437534Y-15475695D01*
X22443796Y-15467331D01*
X22494091Y-15332483D01*
X22500500Y-15272873D01*
X22500499Y-14756161D01*
X22520183Y-14689123D01*
X22536813Y-14668486D01*
X24524695Y-12680606D01*
X24598620Y-12569969D01*
X24649541Y-12447036D01*
X24675500Y-12316531D01*
X24675500Y-12183469D01*
X24675500Y-9924499D01*
X24695185Y-9857460D01*
X24747989Y-9811705D01*
X24799500Y-9800499D01*
X25547871Y-9800499D01*
X25547872Y-9800499D01*
X25607483Y-9794091D01*
X25742331Y-9743796D01*
X25857546Y-9657546D01*
X25943796Y-9542331D01*
X25994091Y-9407483D01*
X26000500Y-9347873D01*
X26000499Y-3252128D01*
X25994091Y-3192517D01*
X25943796Y-3057669D01*
X25943795Y-3057668D01*
X25943793Y-3057664D01*
X25857547Y-2942455D01*
X25857544Y-2942452D01*
X25742335Y-2856206D01*
X25742328Y-2856202D01*
X25607482Y-2805908D01*
X25607483Y-2805908D01*
X25547883Y-2799501D01*
X25547881Y-2799500D01*
X25547873Y-2799500D01*
X25547864Y-2799500D01*
X22452129Y-2799500D01*
X22452123Y-2799501D01*
X22392516Y-2805908D01*
X22257671Y-2856202D01*
X22257664Y-2856206D01*
X22142455Y-2942452D01*
X22142452Y-2942455D01*
X22056206Y-3057664D01*
X22056202Y-3057671D01*
X22005908Y-3192517D01*
X21999501Y-3252116D01*
X21999501Y-3252123D01*
X21999500Y-3252135D01*
X21999500Y-9347870D01*
X21999501Y-9347876D01*
X22005908Y-9407483D01*
X22056202Y-9542328D01*
X22056206Y-9542335D01*
X22142452Y-9657544D01*
X22142455Y-9657547D01*
X22257664Y-9743793D01*
X22257671Y-9743797D01*
X22392517Y-9794091D01*
X22392516Y-9794091D01*
X22399444Y-9794835D01*
X22452127Y-9800500D01*
X23200500Y-9800499D01*
X23267539Y-9820183D01*
X23313294Y-9872987D01*
X23324500Y-9924499D01*
X23324500Y-11918836D01*
X23304815Y-11985875D01*
X23288181Y-12006517D01*
X21556516Y-13738181D01*
X21495193Y-13771666D01*
X21468835Y-13774500D01*
X20952129Y-13774500D01*
X20952123Y-13774501D01*
X20892516Y-13780908D01*
X20757671Y-13831202D01*
X20757664Y-13831206D01*
X20642455Y-13917452D01*
X20642452Y-13917455D01*
X20556206Y-14032664D01*
X20556202Y-14032671D01*
X20505908Y-14167517D01*
X20504126Y-14175062D01*
X20501853Y-14174525D01*
X20479571Y-14228312D01*
X20422177Y-14268157D01*
X20383024Y-14274500D01*
X19856058Y-14274500D01*
X19789019Y-14254815D01*
X19750519Y-14215597D01*
X19725186Y-14174525D01*
X19667712Y-14081344D01*
X19543656Y-13957288D01*
X19394334Y-13865186D01*
X19227797Y-13810001D01*
X19227795Y-13810000D01*
X19125016Y-13799500D01*
X19125009Y-13799500D01*
X17499862Y-13799500D01*
X17432823Y-13779815D01*
X17387068Y-13727011D01*
X17377124Y-13657853D01*
X17406149Y-13594297D01*
X17412181Y-13587819D01*
X19081164Y-11918836D01*
X21000000Y-10000000D01*
X21000000Y-2124000D01*
X21019685Y-2056961D01*
X21072489Y-2011206D01*
X21124000Y-2000000D01*
X33876000Y-2000000D01*
X33943039Y-2019685D01*
G37*
%TD.AperFunction*%
%TD*%
%TA.AperFunction,Conductor*%
%TO.N,/SingleChannelDriver1/GND_B*%
G36*
X53943039Y-2019685D02*
G01*
X53988794Y-2072489D01*
X54000000Y-2124000D01*
X54000000Y-10000000D01*
X57087819Y-13087819D01*
X57121304Y-13149142D01*
X57116320Y-13218834D01*
X57074448Y-13274767D01*
X57008984Y-13299184D01*
X57000138Y-13299500D01*
X54874998Y-13299500D01*
X54874981Y-13299501D01*
X54772203Y-13310000D01*
X54772200Y-13310001D01*
X54605668Y-13365185D01*
X54605663Y-13365187D01*
X54456342Y-13457289D01*
X54332289Y-13581342D01*
X54332288Y-13581344D01*
X54257861Y-13702011D01*
X54249481Y-13715597D01*
X54197533Y-13762321D01*
X54143942Y-13774500D01*
X52799500Y-13774500D01*
X52732461Y-13754815D01*
X52686706Y-13702011D01*
X52675500Y-13650500D01*
X52675500Y-9853861D01*
X52695185Y-9786822D01*
X52735418Y-9749362D01*
X52735231Y-9749112D01*
X52737565Y-9747364D01*
X52740076Y-9745027D01*
X52742323Y-9743798D01*
X52742331Y-9743796D01*
X52857546Y-9657546D01*
X52943796Y-9542331D01*
X52994091Y-9407483D01*
X53000500Y-9347873D01*
X53000499Y-3252128D01*
X52994091Y-3192517D01*
X52943796Y-3057669D01*
X52943795Y-3057668D01*
X52943793Y-3057664D01*
X52857547Y-2942455D01*
X52857544Y-2942452D01*
X52742335Y-2856206D01*
X52742328Y-2856202D01*
X52607482Y-2805908D01*
X52607483Y-2805908D01*
X52547883Y-2799501D01*
X52547881Y-2799500D01*
X52547873Y-2799500D01*
X52547864Y-2799500D01*
X49452129Y-2799500D01*
X49452123Y-2799501D01*
X49392516Y-2805908D01*
X49257671Y-2856202D01*
X49257664Y-2856206D01*
X49142455Y-2942452D01*
X49142452Y-2942455D01*
X49056206Y-3057664D01*
X49056202Y-3057671D01*
X49005908Y-3192517D01*
X48999501Y-3252116D01*
X48999501Y-3252123D01*
X48999500Y-3252135D01*
X48999500Y-9347870D01*
X48999501Y-9347876D01*
X49005908Y-9407483D01*
X49056202Y-9542328D01*
X49056206Y-9542335D01*
X49142452Y-9657544D01*
X49142455Y-9657547D01*
X49257664Y-9743793D01*
X49257671Y-9743797D01*
X49392517Y-9794091D01*
X49392516Y-9794091D01*
X49399444Y-9794835D01*
X49452127Y-9800500D01*
X51200500Y-9800499D01*
X51267539Y-9820184D01*
X51313294Y-9872987D01*
X51324500Y-9924499D01*
X51324500Y-14171138D01*
X51304815Y-14238177D01*
X51264581Y-14275637D01*
X51264769Y-14275888D01*
X51262441Y-14277630D01*
X51259932Y-14279967D01*
X51257670Y-14281202D01*
X51142455Y-14367452D01*
X51142452Y-14367455D01*
X51056206Y-14482664D01*
X51056202Y-14482671D01*
X51005908Y-14617517D01*
X50999501Y-14677116D01*
X50999500Y-14677135D01*
X50999500Y-15722870D01*
X50999501Y-15722876D01*
X51005908Y-15782483D01*
X51056202Y-15917328D01*
X51056207Y-15917337D01*
X51062462Y-15925693D01*
X51071660Y-15950356D01*
X51084315Y-15973441D01*
X51083676Y-15982577D01*
X51086877Y-15991158D01*
X51081281Y-16016877D01*
X51079447Y-16043140D01*
X51072980Y-16055029D01*
X51072023Y-16059430D01*
X51062584Y-16074145D01*
X51062211Y-16074645D01*
X51006347Y-16116610D01*
X50962820Y-16124500D01*
X49133464Y-16124500D01*
X49002971Y-16150457D01*
X49002963Y-16150459D01*
X48942510Y-16175499D01*
X48942511Y-16175500D01*
X48880020Y-16201384D01*
X48877462Y-16202752D01*
X48843218Y-16215002D01*
X48766507Y-16230261D01*
X48766498Y-16230264D01*
X48620827Y-16290602D01*
X48620814Y-16290609D01*
X48489711Y-16378210D01*
X48489707Y-16378213D01*
X48378213Y-16489707D01*
X48378210Y-16489711D01*
X48290609Y-16620814D01*
X48290602Y-16620827D01*
X48230264Y-16766498D01*
X48230261Y-16766510D01*
X48199500Y-16921153D01*
X48199500Y-17078846D01*
X48230261Y-17233489D01*
X48230264Y-17233501D01*
X48290602Y-17379172D01*
X48290609Y-17379185D01*
X48378210Y-17510288D01*
X48378213Y-17510292D01*
X48489707Y-17621786D01*
X48489711Y-17621789D01*
X48620814Y-17709390D01*
X48620827Y-17709397D01*
X48672181Y-17730668D01*
X48766503Y-17769737D01*
X48921153Y-17800499D01*
X48921156Y-17800500D01*
X48921158Y-17800500D01*
X49078844Y-17800500D01*
X49078845Y-17800499D01*
X49233497Y-17769737D01*
X49379179Y-17709394D01*
X49510289Y-17621789D01*
X49550734Y-17581344D01*
X49620260Y-17511819D01*
X49681583Y-17478334D01*
X49707941Y-17475500D01*
X50175399Y-17475500D01*
X50242438Y-17495185D01*
X50288193Y-17547989D01*
X50298137Y-17617147D01*
X50280938Y-17664594D01*
X50264817Y-17690730D01*
X50240187Y-17730663D01*
X50240186Y-17730666D01*
X50185001Y-17897203D01*
X50185001Y-17897204D01*
X50185000Y-17897204D01*
X50174500Y-17999983D01*
X50174500Y-18900001D01*
X50174501Y-18900019D01*
X50185000Y-19002796D01*
X50185001Y-19002799D01*
X50218853Y-19104955D01*
X50240186Y-19169334D01*
X50332288Y-19318656D01*
X50456344Y-19442712D01*
X50605666Y-19534814D01*
X50772203Y-19589999D01*
X50874991Y-19600500D01*
X53125008Y-19600499D01*
X53227797Y-19589999D01*
X53394334Y-19534814D01*
X53543656Y-19442712D01*
X53667712Y-19318656D01*
X53759814Y-19169334D01*
X53814999Y-19002797D01*
X53825500Y-18900009D01*
X53825499Y-18349499D01*
X53828049Y-18340813D01*
X53826761Y-18331853D01*
X53837738Y-18307816D01*
X53845183Y-18282461D01*
X53852025Y-18276532D01*
X53855786Y-18268297D01*
X53878017Y-18254010D01*
X53897987Y-18236706D01*
X53908502Y-18234418D01*
X53914564Y-18230523D01*
X53949499Y-18225500D01*
X54143942Y-18225500D01*
X54210981Y-18245185D01*
X54249479Y-18284401D01*
X54332288Y-18418656D01*
X54456344Y-18542712D01*
X54605666Y-18634814D01*
X54772203Y-18689999D01*
X54874991Y-18700500D01*
X57125008Y-18700499D01*
X57227797Y-18689999D01*
X57394334Y-18634814D01*
X57543656Y-18542712D01*
X57667712Y-18418656D01*
X57759814Y-18269334D01*
X57814999Y-18102797D01*
X57825500Y-18000009D01*
X57825499Y-17099992D01*
X57814999Y-16997203D01*
X57759814Y-16830666D01*
X57667712Y-16681344D01*
X57543656Y-16557288D01*
X57394334Y-16465186D01*
X57227797Y-16410001D01*
X57227795Y-16410000D01*
X57125010Y-16399500D01*
X54874998Y-16399500D01*
X54874981Y-16399501D01*
X54772203Y-16410000D01*
X54772200Y-16410001D01*
X54605668Y-16465185D01*
X54605663Y-16465187D01*
X54456342Y-16557289D01*
X54332289Y-16681342D01*
X54332288Y-16681344D01*
X54257861Y-16802011D01*
X54249481Y-16815597D01*
X54197533Y-16862321D01*
X54143942Y-16874500D01*
X53124500Y-16874500D01*
X53057461Y-16854815D01*
X53011706Y-16802011D01*
X53000500Y-16750500D01*
X53000499Y-16277129D01*
X53000498Y-16277123D01*
X52994091Y-16217516D01*
X52943797Y-16082672D01*
X52943796Y-16082669D01*
X52937539Y-16074312D01*
X52913121Y-16008851D01*
X52927970Y-15940578D01*
X52937536Y-15925693D01*
X52943796Y-15917331D01*
X52994091Y-15782483D01*
X53000500Y-15722873D01*
X53000499Y-15249499D01*
X53020183Y-15182461D01*
X53072987Y-15136706D01*
X53124499Y-15125500D01*
X54143942Y-15125500D01*
X54210981Y-15145185D01*
X54249479Y-15184401D01*
X54332288Y-15318656D01*
X54456344Y-15442712D01*
X54605666Y-15534814D01*
X54772203Y-15589999D01*
X54874991Y-15600500D01*
X57125008Y-15600499D01*
X57227797Y-15589999D01*
X57394334Y-15534814D01*
X57543656Y-15442712D01*
X57667712Y-15318656D01*
X57759814Y-15169334D01*
X57814999Y-15002797D01*
X57825500Y-14900009D01*
X57825499Y-14124860D01*
X57845183Y-14057822D01*
X57897987Y-14012067D01*
X57967146Y-14002123D01*
X58030702Y-14031148D01*
X58037180Y-14037180D01*
X61963681Y-17963681D01*
X61997166Y-18025004D01*
X62000000Y-18051362D01*
X62000000Y-24000000D01*
X62000000Y-31000000D01*
X63993337Y-31000000D01*
X64060376Y-31019685D01*
X64081018Y-31036319D01*
X64691762Y-31647063D01*
X64725247Y-31708386D01*
X64725698Y-31710551D01*
X64730261Y-31733493D01*
X64730263Y-31733499D01*
X64790602Y-31879172D01*
X64790609Y-31879185D01*
X64878210Y-32010288D01*
X64878213Y-32010292D01*
X64989710Y-32121789D01*
X65094391Y-32191734D01*
X65139196Y-32245346D01*
X65149500Y-32294836D01*
X65149500Y-32962501D01*
X65149501Y-32962519D01*
X65160000Y-33065296D01*
X65160001Y-33065299D01*
X65209669Y-33215185D01*
X65215186Y-33231834D01*
X65307288Y-33381156D01*
X65431344Y-33505212D01*
X65580666Y-33597314D01*
X65747203Y-33652499D01*
X65849991Y-33663000D01*
X68150008Y-33662999D01*
X68252797Y-33652499D01*
X68419334Y-33597314D01*
X68568656Y-33505212D01*
X68692712Y-33381156D01*
X68784814Y-33231834D01*
X68796028Y-33197994D01*
X68835801Y-33140550D01*
X68900317Y-33113728D01*
X68913733Y-33113000D01*
X69611232Y-33113000D01*
X69678271Y-33132685D01*
X69716769Y-33171901D01*
X69807288Y-33318656D01*
X69931344Y-33442712D01*
X70080666Y-33534814D01*
X70247203Y-33589999D01*
X70349991Y-33600500D01*
X72650008Y-33600499D01*
X72752797Y-33589999D01*
X72919334Y-33534814D01*
X73068656Y-33442712D01*
X73192712Y-33318656D01*
X73284814Y-33169334D01*
X73339999Y-33002797D01*
X73350500Y-32900009D01*
X73350499Y-31974992D01*
X73339999Y-31872203D01*
X73284814Y-31705666D01*
X73192712Y-31556344D01*
X73068656Y-31432288D01*
X72919334Y-31340186D01*
X72752797Y-31285001D01*
X72752795Y-31285000D01*
X72650010Y-31274500D01*
X70349998Y-31274500D01*
X70349981Y-31274501D01*
X70247203Y-31285000D01*
X70247200Y-31285001D01*
X70080668Y-31340185D01*
X70080663Y-31340187D01*
X69931342Y-31432289D01*
X69807289Y-31556342D01*
X69806067Y-31558323D01*
X69723603Y-31692021D01*
X69716771Y-31703097D01*
X69664823Y-31749821D01*
X69611232Y-31762000D01*
X68850218Y-31762000D01*
X68783179Y-31742315D01*
X68744679Y-31703097D01*
X68692712Y-31618844D01*
X68568656Y-31494788D01*
X68419334Y-31402686D01*
X68252797Y-31347501D01*
X68252795Y-31347500D01*
X68150016Y-31337000D01*
X68150009Y-31337000D01*
X66381791Y-31337000D01*
X66314752Y-31317315D01*
X66268997Y-31264511D01*
X66267261Y-31260527D01*
X66230364Y-31171449D01*
X66222897Y-31101982D01*
X66254173Y-31039503D01*
X66314262Y-31003851D01*
X66344927Y-31000000D01*
X73876000Y-31000000D01*
X73943039Y-31019685D01*
X73988794Y-31072489D01*
X74000000Y-31124000D01*
X74000000Y-35876000D01*
X73980315Y-35943039D01*
X73927511Y-35988794D01*
X73876000Y-36000000D01*
X73474500Y-36000000D01*
X73407461Y-35980315D01*
X73361706Y-35927511D01*
X73350500Y-35876000D01*
X73350499Y-35099998D01*
X73350498Y-35099980D01*
X73339999Y-34997203D01*
X73339998Y-34997200D01*
X73324192Y-34949500D01*
X73284814Y-34830666D01*
X73192712Y-34681344D01*
X73068656Y-34557288D01*
X72919334Y-34465186D01*
X72752797Y-34410001D01*
X72752795Y-34410000D01*
X72650010Y-34399500D01*
X70349998Y-34399500D01*
X70349981Y-34399501D01*
X70247203Y-34410000D01*
X70247200Y-34410001D01*
X70080668Y-34465185D01*
X70080663Y-34465187D01*
X69931342Y-34557289D01*
X69807289Y-34681342D01*
X69715187Y-34830663D01*
X69715184Y-34830671D01*
X69703972Y-34864506D01*
X69664199Y-34921950D01*
X69599683Y-34948772D01*
X69586267Y-34949500D01*
X68888768Y-34949500D01*
X68821729Y-34929815D01*
X68783229Y-34890597D01*
X68767136Y-34864506D01*
X68692712Y-34743844D01*
X68568656Y-34619788D01*
X68419334Y-34527686D01*
X68252797Y-34472501D01*
X68252795Y-34472500D01*
X68150010Y-34462000D01*
X65849998Y-34462000D01*
X65849981Y-34462001D01*
X65747203Y-34472500D01*
X65747200Y-34472501D01*
X65580668Y-34527685D01*
X65580663Y-34527687D01*
X65431342Y-34619789D01*
X65307289Y-34743842D01*
X65215187Y-34893163D01*
X65215186Y-34893166D01*
X65160001Y-35059703D01*
X65160001Y-35059704D01*
X65160000Y-35059704D01*
X65149500Y-35162483D01*
X65149500Y-35162496D01*
X65149501Y-35876000D01*
X65129817Y-35943039D01*
X65077013Y-35988794D01*
X65025501Y-36000000D01*
X60724500Y-36000000D01*
X60657461Y-35980315D01*
X60611706Y-35927511D01*
X60600500Y-35876000D01*
X60600499Y-33849998D01*
X60600498Y-33849981D01*
X60589999Y-33747203D01*
X60589998Y-33747200D01*
X60571942Y-33692711D01*
X60534814Y-33580666D01*
X60442712Y-33431344D01*
X60318656Y-33307288D01*
X60169334Y-33215186D01*
X60002797Y-33160001D01*
X60002795Y-33160000D01*
X59900010Y-33149500D01*
X58974998Y-33149500D01*
X58974980Y-33149501D01*
X58872203Y-33160000D01*
X58872200Y-33160001D01*
X58705668Y-33215185D01*
X58705663Y-33215187D01*
X58556342Y-33307289D01*
X58432289Y-33431342D01*
X58340187Y-33580663D01*
X58340185Y-33580668D01*
X58327696Y-33618358D01*
X58285001Y-33747203D01*
X58285001Y-33747204D01*
X58285000Y-33747204D01*
X58274500Y-33849983D01*
X58274500Y-34488500D01*
X58254815Y-34555539D01*
X58202011Y-34601294D01*
X58150500Y-34612500D01*
X57894499Y-34612500D01*
X57827460Y-34592815D01*
X57781705Y-34540011D01*
X57770499Y-34488500D01*
X57770499Y-34277629D01*
X57770498Y-34277623D01*
X57770497Y-34277616D01*
X57764091Y-34218017D01*
X57713796Y-34083169D01*
X57713795Y-34083168D01*
X57713793Y-34083164D01*
X57627547Y-33967955D01*
X57627544Y-33967952D01*
X57512335Y-33881706D01*
X57512328Y-33881702D01*
X57377486Y-33831410D01*
X57377485Y-33831409D01*
X57377483Y-33831409D01*
X57317873Y-33825000D01*
X57317863Y-33825000D01*
X56572129Y-33825000D01*
X56572123Y-33825001D01*
X56512516Y-33831408D01*
X56377671Y-33881702D01*
X56369886Y-33885954D01*
X56368153Y-33882780D01*
X56318698Y-33901159D01*
X56269832Y-33894778D01*
X56251335Y-33888444D01*
X56242331Y-33881704D01*
X56107483Y-33831409D01*
X56074354Y-33827847D01*
X56061232Y-33823354D01*
X56043573Y-33810867D01*
X56023591Y-33802590D01*
X56015609Y-33791093D01*
X56004184Y-33783014D01*
X55996078Y-33762961D01*
X55983745Y-33745196D01*
X55983245Y-33731212D01*
X55978001Y-33718236D01*
X55982024Y-33696982D01*
X55981253Y-33675371D01*
X55988537Y-33662579D01*
X55990997Y-33649585D01*
X56003383Y-33636507D01*
X56013717Y-33618360D01*
X56121789Y-33510289D01*
X56209394Y-33379179D01*
X56269737Y-33233497D01*
X56300500Y-33078842D01*
X56300500Y-32921158D01*
X56300500Y-32921155D01*
X56300499Y-32921153D01*
X56269738Y-32766510D01*
X56269737Y-32766503D01*
X56238750Y-32691693D01*
X56209397Y-32620827D01*
X56209390Y-32620814D01*
X56196398Y-32601370D01*
X56175520Y-32534692D01*
X56175500Y-32532479D01*
X56175500Y-30376613D01*
X56180645Y-30359088D01*
X56180777Y-30340825D01*
X56190285Y-30326260D01*
X56194721Y-30311153D01*
X58684500Y-30311153D01*
X58684500Y-30468846D01*
X58715261Y-30623489D01*
X58715264Y-30623501D01*
X58775602Y-30769172D01*
X58775609Y-30769185D01*
X58863210Y-30900288D01*
X58863213Y-30900292D01*
X58974707Y-31011786D01*
X58974711Y-31011789D01*
X59105814Y-31099390D01*
X59105827Y-31099397D01*
X59226028Y-31149185D01*
X59251503Y-31159737D01*
X59369992Y-31183306D01*
X59406153Y-31190499D01*
X59406156Y-31190500D01*
X59406158Y-31190500D01*
X59563844Y-31190500D01*
X59563845Y-31190499D01*
X59718497Y-31159737D01*
X59864179Y-31099394D01*
X59995289Y-31011789D01*
X60106789Y-30900289D01*
X60194394Y-30769179D01*
X60254737Y-30623497D01*
X60285500Y-30468842D01*
X60285500Y-30311158D01*
X60285500Y-30311155D01*
X60285499Y-30311153D01*
X60282806Y-30297615D01*
X60254737Y-30156503D01*
X60230105Y-30097036D01*
X60194397Y-30010827D01*
X60194390Y-30010814D01*
X60106789Y-29879711D01*
X60106786Y-29879707D01*
X59995292Y-29768213D01*
X59995288Y-29768210D01*
X59864185Y-29680609D01*
X59864172Y-29680602D01*
X59718501Y-29620264D01*
X59718489Y-29620261D01*
X59563845Y-29589500D01*
X59563842Y-29589500D01*
X59406158Y-29589500D01*
X59406155Y-29589500D01*
X59251510Y-29620261D01*
X59251498Y-29620264D01*
X59105827Y-29680602D01*
X59105814Y-29680609D01*
X58974711Y-29768210D01*
X58974707Y-29768213D01*
X58863213Y-29879707D01*
X58863210Y-29879711D01*
X58775609Y-30010814D01*
X58775602Y-30010827D01*
X58715264Y-30156498D01*
X58715261Y-30156510D01*
X58684500Y-30311153D01*
X56194721Y-30311153D01*
X56195185Y-30309574D01*
X56208985Y-30297615D01*
X56218972Y-30282319D01*
X56245152Y-30266276D01*
X56247989Y-30263819D01*
X56248800Y-30263452D01*
X56250386Y-30262741D01*
X56379179Y-30209394D01*
X56510289Y-30121789D01*
X56621789Y-30010289D01*
X56709394Y-29879179D01*
X56769737Y-29733497D01*
X56800500Y-29578842D01*
X56800500Y-29421158D01*
X56800500Y-29421155D01*
X56800499Y-29421153D01*
X56769738Y-29266510D01*
X56769737Y-29266503D01*
X56711129Y-29125009D01*
X56709397Y-29120827D01*
X56709390Y-29120814D01*
X56621789Y-28989711D01*
X56621786Y-28989707D01*
X56510292Y-28878213D01*
X56510288Y-28878210D01*
X56379185Y-28790609D01*
X56379172Y-28790602D01*
X56233501Y-28730264D01*
X56233489Y-28730261D01*
X56078845Y-28699500D01*
X56078842Y-28699500D01*
X55921158Y-28699500D01*
X55921155Y-28699500D01*
X55766510Y-28730261D01*
X55766498Y-28730264D01*
X55620827Y-28790602D01*
X55620814Y-28790609D01*
X55489711Y-28878210D01*
X55489707Y-28878213D01*
X55378213Y-28989707D01*
X55378210Y-28989711D01*
X55307602Y-29095383D01*
X55253989Y-29140188D01*
X55184664Y-29148895D01*
X55121637Y-29118740D01*
X55084918Y-29059297D01*
X55080500Y-29026492D01*
X55080500Y-25338468D01*
X55074888Y-25310257D01*
X55074888Y-25310255D01*
X55063605Y-25253531D01*
X55054541Y-25207964D01*
X55005944Y-25090643D01*
X55004300Y-25086048D01*
X54929698Y-24974398D01*
X54929697Y-24974397D01*
X54929695Y-24974394D01*
X54835606Y-24880305D01*
X52867481Y-22912180D01*
X52833996Y-22850857D01*
X52838980Y-22781165D01*
X52880852Y-22725232D01*
X52946316Y-22700815D01*
X52955162Y-22700499D01*
X53125002Y-22700499D01*
X53125008Y-22700499D01*
X53227797Y-22689999D01*
X53394334Y-22634814D01*
X53543656Y-22542712D01*
X53667712Y-22418656D01*
X53759814Y-22269334D01*
X53814999Y-22102797D01*
X53825500Y-22000009D01*
X53825499Y-21099992D01*
X53819166Y-21038000D01*
X53814999Y-20997203D01*
X53814998Y-20997200D01*
X53809727Y-20981293D01*
X53759814Y-20830666D01*
X53667712Y-20681344D01*
X53543656Y-20557288D01*
X53394334Y-20465186D01*
X53227797Y-20410001D01*
X53227795Y-20410000D01*
X53125010Y-20399500D01*
X50874998Y-20399500D01*
X50874981Y-20399501D01*
X50772203Y-20410000D01*
X50772200Y-20410001D01*
X50605668Y-20465185D01*
X50605663Y-20465187D01*
X50456342Y-20557289D01*
X50332289Y-20681342D01*
X50240187Y-20830663D01*
X50240185Y-20830668D01*
X50218852Y-20895047D01*
X50185001Y-20997203D01*
X50185001Y-20997204D01*
X50185000Y-20997204D01*
X50174500Y-21099983D01*
X50174500Y-21099991D01*
X50174500Y-21367265D01*
X50174501Y-21524500D01*
X50171950Y-21533186D01*
X50173239Y-21542147D01*
X50162261Y-21566183D01*
X50154817Y-21591539D01*
X50147974Y-21597467D01*
X50144214Y-21605703D01*
X50121982Y-21619989D01*
X50102013Y-21637294D01*
X50091497Y-21639581D01*
X50085436Y-21643477D01*
X50050501Y-21648500D01*
X49818804Y-21648500D01*
X49751765Y-21628815D01*
X49706010Y-21576011D01*
X49702621Y-21567831D01*
X49702006Y-21566183D01*
X49693796Y-21544169D01*
X49693793Y-21544164D01*
X49607547Y-21428955D01*
X49607544Y-21428952D01*
X49492335Y-21342706D01*
X49492328Y-21342702D01*
X49357486Y-21292410D01*
X49357485Y-21292409D01*
X49357483Y-21292409D01*
X49297873Y-21286000D01*
X49297863Y-21286000D01*
X48702129Y-21286000D01*
X48702123Y-21286001D01*
X48642516Y-21292408D01*
X48507671Y-21342702D01*
X48507664Y-21342706D01*
X48392455Y-21428952D01*
X48392452Y-21428955D01*
X48306206Y-21544164D01*
X48306202Y-21544171D01*
X48255908Y-21679017D01*
X48249501Y-21738616D01*
X48249500Y-21738635D01*
X48249500Y-22909370D01*
X48249501Y-22909376D01*
X48255908Y-22968983D01*
X48306202Y-23103828D01*
X48306206Y-23103835D01*
X48392452Y-23219044D01*
X48392455Y-23219047D01*
X48507664Y-23305293D01*
X48507671Y-23305297D01*
X48546999Y-23319965D01*
X48642517Y-23355591D01*
X48702127Y-23362000D01*
X49297872Y-23361999D01*
X49357483Y-23355591D01*
X49492331Y-23305296D01*
X49607546Y-23219046D01*
X49693796Y-23103831D01*
X49702621Y-23080168D01*
X49744492Y-23024234D01*
X49809956Y-22999816D01*
X49818804Y-22999500D01*
X51209402Y-22999500D01*
X51276441Y-23019185D01*
X51322196Y-23071989D01*
X51331019Y-23099308D01*
X51350457Y-23197030D01*
X51350459Y-23197036D01*
X51401378Y-23319965D01*
X51401383Y-23319975D01*
X51475304Y-23430605D01*
X51475307Y-23430609D01*
X53693181Y-25648482D01*
X53726666Y-25709805D01*
X53729500Y-25736163D01*
X53729500Y-26793770D01*
X53709815Y-26860809D01*
X53657011Y-26906564D01*
X53587853Y-26916508D01*
X53524297Y-26887483D01*
X53517819Y-26881451D01*
X53443657Y-26807289D01*
X53443656Y-26807288D01*
X53294334Y-26715186D01*
X53127797Y-26660001D01*
X53127795Y-26660000D01*
X53025010Y-26649500D01*
X52099998Y-26649500D01*
X52099980Y-26649501D01*
X51997203Y-26660000D01*
X51997200Y-26660001D01*
X51830668Y-26715185D01*
X51830663Y-26715187D01*
X51681342Y-26807289D01*
X51557289Y-26931342D01*
X51465187Y-27080663D01*
X51465186Y-27080666D01*
X51410001Y-27247203D01*
X51410001Y-27247204D01*
X51410000Y-27247204D01*
X51399500Y-27349983D01*
X51399500Y-29650001D01*
X51399501Y-29650018D01*
X51410000Y-29752796D01*
X51410001Y-29752799D01*
X51465185Y-29919331D01*
X51465187Y-29919336D01*
X51557289Y-30068657D01*
X51682201Y-30193569D01*
X51715686Y-30254892D01*
X51710702Y-30324584D01*
X51682201Y-30368931D01*
X51619789Y-30431342D01*
X51527687Y-30580663D01*
X51527686Y-30580666D01*
X51472501Y-30747203D01*
X51472501Y-30747204D01*
X51472500Y-30747204D01*
X51462000Y-30849983D01*
X51462000Y-32139332D01*
X51442315Y-32206371D01*
X51389511Y-32252126D01*
X51320353Y-32262070D01*
X51290550Y-32253894D01*
X51233497Y-32230263D01*
X51233488Y-32230260D01*
X51078845Y-32199500D01*
X51078842Y-32199500D01*
X50921158Y-32199500D01*
X50921153Y-32199500D01*
X50811190Y-32221373D01*
X50741598Y-32215146D01*
X50686421Y-32172283D01*
X50663177Y-32106393D01*
X50662999Y-32099756D01*
X50662999Y-30849998D01*
X50662998Y-30849981D01*
X50652499Y-30747203D01*
X50652498Y-30747200D01*
X50611508Y-30623501D01*
X50597314Y-30580666D01*
X50505212Y-30431344D01*
X50381156Y-30307288D01*
X50380299Y-30306431D01*
X50346814Y-30245108D01*
X50351798Y-30175416D01*
X50380299Y-30131069D01*
X50389582Y-30121786D01*
X50442712Y-30068656D01*
X50534814Y-29919334D01*
X50589999Y-29752797D01*
X50600500Y-29650009D01*
X50600499Y-27349992D01*
X50589999Y-27247203D01*
X50534814Y-27080666D01*
X50442712Y-26931344D01*
X50318656Y-26807288D01*
X50169334Y-26715186D01*
X50002797Y-26660001D01*
X50002795Y-26660000D01*
X49900010Y-26649500D01*
X48974998Y-26649500D01*
X48974980Y-26649501D01*
X48872203Y-26660000D01*
X48872200Y-26660001D01*
X48705668Y-26715185D01*
X48705663Y-26715187D01*
X48556342Y-26807289D01*
X48432289Y-26931342D01*
X48340187Y-27080663D01*
X48340186Y-27080666D01*
X48285001Y-27247203D01*
X48285001Y-27247204D01*
X48285000Y-27247204D01*
X48274500Y-27349983D01*
X48274500Y-29650001D01*
X48274501Y-29650018D01*
X48285000Y-29752796D01*
X48285001Y-29752799D01*
X48340185Y-29919331D01*
X48340187Y-29919336D01*
X48432289Y-30068657D01*
X48557201Y-30193569D01*
X48590686Y-30254892D01*
X48585702Y-30324584D01*
X48557201Y-30368931D01*
X48494789Y-30431342D01*
X48402687Y-30580663D01*
X48402686Y-30580666D01*
X48347501Y-30747203D01*
X48347501Y-30747204D01*
X48347500Y-30747204D01*
X48337000Y-30849983D01*
X48337000Y-33150001D01*
X48337001Y-33150018D01*
X48347500Y-33252796D01*
X48347501Y-33252799D01*
X48402685Y-33419331D01*
X48402687Y-33419336D01*
X48437569Y-33475888D01*
X48494788Y-33568656D01*
X48618844Y-33692712D01*
X48678323Y-33729398D01*
X48725048Y-33781344D01*
X48736271Y-33850307D01*
X48708428Y-33914389D01*
X48687539Y-33934203D01*
X48642452Y-33967955D01*
X48556206Y-34083164D01*
X48556202Y-34083171D01*
X48505908Y-34218017D01*
X48499501Y-34277616D01*
X48499500Y-34277627D01*
X48499500Y-35162496D01*
X48499501Y-35876000D01*
X48479816Y-35943039D01*
X48427013Y-35988794D01*
X48375501Y-36000000D01*
X43124000Y-36000000D01*
X43056961Y-35980315D01*
X43011206Y-35927511D01*
X43000000Y-35876000D01*
X43000000Y-32238483D01*
X43019685Y-32171444D01*
X43072489Y-32125689D01*
X43141647Y-32115745D01*
X43205203Y-32144770D01*
X43238561Y-32191031D01*
X43290602Y-32316672D01*
X43290609Y-32316685D01*
X43378210Y-32447788D01*
X43378213Y-32447792D01*
X43489707Y-32559286D01*
X43489711Y-32559289D01*
X43620816Y-32646891D01*
X43620817Y-32646891D01*
X43620821Y-32646894D01*
X43691937Y-32676350D01*
X43746339Y-32720190D01*
X43750021Y-32725811D01*
X43807288Y-32818656D01*
X43931344Y-32942712D01*
X44080666Y-33034814D01*
X44247203Y-33089999D01*
X44349991Y-33100500D01*
X46650008Y-33100499D01*
X46752797Y-33089999D01*
X46919334Y-33034814D01*
X47068656Y-32942712D01*
X47192712Y-32818656D01*
X47284814Y-32669334D01*
X47339999Y-32502797D01*
X47350500Y-32400009D01*
X47350499Y-31474992D01*
X47339999Y-31372203D01*
X47284814Y-31205666D01*
X47192712Y-31056344D01*
X47068656Y-30932288D01*
X46935218Y-30849983D01*
X46919336Y-30840187D01*
X46919331Y-30840185D01*
X46917862Y-30839698D01*
X46752797Y-30785001D01*
X46752795Y-30785000D01*
X46650010Y-30774500D01*
X44349998Y-30774500D01*
X44349981Y-30774501D01*
X44247203Y-30785000D01*
X44247200Y-30785001D01*
X44080668Y-30840185D01*
X44080663Y-30840187D01*
X43931342Y-30932289D01*
X43807287Y-31056344D01*
X43750022Y-31149185D01*
X43698074Y-31195909D01*
X43691938Y-31198648D01*
X43620820Y-31228106D01*
X43620814Y-31228109D01*
X43489711Y-31315710D01*
X43489707Y-31315713D01*
X43378213Y-31427207D01*
X43378210Y-31427211D01*
X43290609Y-31558314D01*
X43290604Y-31558323D01*
X43238561Y-31683969D01*
X43194720Y-31738372D01*
X43128426Y-31760437D01*
X43060727Y-31743158D01*
X43013116Y-31692021D01*
X43000000Y-31636516D01*
X43000000Y-25300983D01*
X43019685Y-25233944D01*
X43072489Y-25188189D01*
X43141647Y-25178245D01*
X43205203Y-25207270D01*
X43238561Y-25253531D01*
X43290602Y-25379172D01*
X43290609Y-25379185D01*
X43378210Y-25510288D01*
X43378213Y-25510292D01*
X43489710Y-25621789D01*
X43594391Y-25691734D01*
X43639196Y-25745346D01*
X43649500Y-25794835D01*
X43649500Y-25900000D01*
X43649501Y-25900019D01*
X43660000Y-26002796D01*
X43660001Y-26002799D01*
X43715185Y-26169331D01*
X43715186Y-26169334D01*
X43807288Y-26318656D01*
X43931344Y-26442712D01*
X44080666Y-26534814D01*
X44247203Y-26589999D01*
X44349991Y-26600500D01*
X46650008Y-26600499D01*
X46752797Y-26589999D01*
X46919334Y-26534814D01*
X47068656Y-26442712D01*
X47192712Y-26318656D01*
X47284814Y-26169334D01*
X47339999Y-26002797D01*
X47350500Y-25900009D01*
X47350499Y-24974992D01*
X47350438Y-24974398D01*
X47339999Y-24872203D01*
X47339998Y-24872200D01*
X47301003Y-24754521D01*
X47284814Y-24705666D01*
X47192712Y-24556344D01*
X47068656Y-24432288D01*
X46919334Y-24340186D01*
X46752797Y-24285001D01*
X46752795Y-24285000D01*
X46650016Y-24274500D01*
X44364961Y-24274500D01*
X44317511Y-24265062D01*
X44233497Y-24230263D01*
X44233490Y-24230261D01*
X44233489Y-24230261D01*
X44233488Y-24230260D01*
X44078845Y-24199500D01*
X44078842Y-24199500D01*
X43921158Y-24199500D01*
X43921155Y-24199500D01*
X43766510Y-24230261D01*
X43766498Y-24230264D01*
X43620827Y-24290602D01*
X43620814Y-24290609D01*
X43489711Y-24378210D01*
X43489707Y-24378213D01*
X43378213Y-24489707D01*
X43378210Y-24489711D01*
X43290609Y-24620814D01*
X43290604Y-24620823D01*
X43238561Y-24746469D01*
X43194720Y-24800872D01*
X43128426Y-24822937D01*
X43060727Y-24805658D01*
X43013116Y-24754521D01*
X43000000Y-24699016D01*
X43000000Y-19921158D01*
X48199500Y-19921158D01*
X48199500Y-19929001D01*
X48199500Y-20078846D01*
X48230261Y-20233494D01*
X48230264Y-20233502D01*
X48240061Y-20257154D01*
X48249500Y-20304606D01*
X48249500Y-20585369D01*
X48249501Y-20585376D01*
X48255908Y-20644983D01*
X48306202Y-20779828D01*
X48306206Y-20779835D01*
X48392452Y-20895044D01*
X48392455Y-20895047D01*
X48507664Y-20981293D01*
X48507671Y-20981297D01*
X48550310Y-20997200D01*
X48642517Y-21031591D01*
X48702127Y-21038000D01*
X49297872Y-21037999D01*
X49357483Y-21031591D01*
X49492331Y-20981296D01*
X49607546Y-20895046D01*
X49693796Y-20779831D01*
X49744091Y-20644983D01*
X49750500Y-20585373D01*
X49750499Y-20304604D01*
X49759938Y-20257152D01*
X49769737Y-20233497D01*
X49800500Y-20078842D01*
X49800500Y-19921158D01*
X49800500Y-19921155D01*
X49800499Y-19921153D01*
X49769738Y-19766510D01*
X49769737Y-19766503D01*
X49759938Y-19742845D01*
X49750499Y-19695393D01*
X49750499Y-19414629D01*
X49750498Y-19414623D01*
X49750497Y-19414616D01*
X49744091Y-19355017D01*
X49730529Y-19318656D01*
X49693797Y-19220171D01*
X49693793Y-19220164D01*
X49607547Y-19104955D01*
X49607544Y-19104952D01*
X49492335Y-19018706D01*
X49492328Y-19018702D01*
X49357486Y-18968410D01*
X49357485Y-18968409D01*
X49357483Y-18968409D01*
X49297873Y-18962000D01*
X49297863Y-18962000D01*
X48702129Y-18962000D01*
X48702123Y-18962001D01*
X48642516Y-18968408D01*
X48507671Y-19018702D01*
X48507664Y-19018706D01*
X48392455Y-19104952D01*
X48392452Y-19104955D01*
X48306206Y-19220164D01*
X48306202Y-19220171D01*
X48255908Y-19355017D01*
X48249501Y-19414616D01*
X48249501Y-19414623D01*
X48249500Y-19414635D01*
X48249500Y-19695393D01*
X48248049Y-19702684D01*
X48246408Y-19722913D01*
X48244078Y-19733148D01*
X48230263Y-19766503D01*
X48199500Y-19921158D01*
X43000000Y-19921158D01*
X43000000Y-2124000D01*
X43019685Y-2056961D01*
X43072489Y-2011206D01*
X43124000Y-2000000D01*
X53876000Y-2000000D01*
X53943039Y-2019685D01*
G37*
%TD.AperFunction*%
%TD*%
M02*
