%TF.GenerationSoftware,KiCad,Pcbnew,10.0.3*%
%TF.CreationDate,2026-07-17T02:59:36-07:00*%
%TF.ProjectId,GateDriver,47617465-4472-4697-9665-722e6b696361,rev?*%
%TF.SameCoordinates,Original*%
%TF.FileFunction,Legend,Bot*%
%TF.FilePolarity,Positive*%
%FSLAX46Y46*%
G04 Gerber Fmt 4.6, Leading zero omitted, Abs format (unit mm)*
G04 Created by KiCad (PCBNEW 10.0.3) date 2026-07-17 02:59:36*
%MOMM*%
%LPD*%
G01*
G04 APERTURE LIST*
%ADD10C,0.200000*%
%ADD11C,0.100000*%
%ADD12C,0.150000*%
%ADD13C,0.254000*%
%ADD14C,0.120000*%
G04 APERTURE END LIST*
D10*
X46000000Y-250000D02*
X46000000Y-2450000D01*
X46000000Y-3250000D02*
X46000000Y-5450000D01*
X46000000Y-6250000D02*
X46000000Y-8450000D01*
X46000000Y-9250000D02*
X46000000Y-11450000D01*
X46000000Y-12250000D02*
X46000000Y-14450000D01*
X46000000Y-15250000D02*
X46000000Y-17450000D01*
X46000000Y-18250000D02*
X46000000Y-20450000D01*
X46000000Y-21250000D02*
X46000000Y-23450000D01*
X46000000Y-24250000D02*
X46000000Y-26450000D01*
X46000000Y-27250000D02*
X46000000Y-27500000D01*
X132500000Y-375000D02*
X132500000Y-2575000D01*
X132500000Y-3375000D02*
X132500000Y-5575000D01*
X132500000Y-6375000D02*
X132500000Y-8575000D01*
X132500000Y-9375000D02*
X132500000Y-11575000D01*
X132500000Y-12375000D02*
X132500000Y-14575000D01*
X132500000Y-15375000D02*
X132500000Y-17575000D01*
X132500000Y-18375000D02*
X132500000Y-20575000D01*
X132500000Y-21375000D02*
X132500000Y-23575000D01*
X132500000Y-24375000D02*
X132500000Y-26575000D01*
X132500000Y-27375000D02*
X132500000Y-27625000D01*
D11*
X135800000Y-41600000D02*
X136600000Y-40800000D01*
X155400000Y-41600000D02*
X156200000Y-40800000D01*
D10*
X218000000Y-250000D02*
X218000000Y-2450000D01*
X218000000Y-3250000D02*
X218000000Y-5450000D01*
X218000000Y-6250000D02*
X218000000Y-8450000D01*
X218000000Y-9250000D02*
X218000000Y-11450000D01*
X218000000Y-12250000D02*
X218000000Y-14450000D01*
X218000000Y-15250000D02*
X218000000Y-17450000D01*
X218000000Y-18250000D02*
X218000000Y-20450000D01*
X218000000Y-21250000D02*
X218000000Y-23450000D01*
X218000000Y-24250000D02*
X218000000Y-26450000D01*
X218000000Y-27250000D02*
X218000000Y-27500000D01*
X260000000Y-27500000D02*
X257800000Y-27500000D01*
X257000000Y-27500000D02*
X254800000Y-27500000D01*
X254000000Y-27500000D02*
X251800000Y-27500000D01*
X251000000Y-27500000D02*
X248800000Y-27500000D01*
X248000000Y-27500000D02*
X245800000Y-27500000D01*
X245000000Y-27500000D02*
X242800000Y-27500000D01*
X242000000Y-27500000D02*
X239800000Y-27500000D01*
X239000000Y-27500000D02*
X236800000Y-27500000D01*
X236000000Y-27500000D02*
X233800000Y-27500000D01*
X233000000Y-27500000D02*
X230800000Y-27500000D01*
X230000000Y-27500000D02*
X227800000Y-27500000D01*
X227000000Y-27500000D02*
X224800000Y-27500000D01*
X224000000Y-27500000D02*
X221800000Y-27500000D01*
X221000000Y-27500000D02*
X218800000Y-27500000D01*
X218000000Y-27500000D02*
X215800000Y-27500000D01*
X215000000Y-27500000D02*
X212800000Y-27500000D01*
X212000000Y-27500000D02*
X209800000Y-27500000D01*
X209000000Y-27500000D02*
X206800000Y-27500000D01*
X206000000Y-27500000D02*
X203800000Y-27500000D01*
X203000000Y-27500000D02*
X200800000Y-27500000D01*
X200000000Y-27500000D02*
X197800000Y-27500000D01*
X197000000Y-27500000D02*
X194800000Y-27500000D01*
X194000000Y-27500000D02*
X191800000Y-27500000D01*
X191000000Y-27500000D02*
X188800000Y-27500000D01*
X188000000Y-27500000D02*
X185800000Y-27500000D01*
X185000000Y-27500000D02*
X182800000Y-27500000D01*
X182000000Y-27500000D02*
X179800000Y-27500000D01*
X179000000Y-27500000D02*
X176800000Y-27500000D01*
X176000000Y-27500000D02*
X173800000Y-27500000D01*
X173000000Y-27500000D02*
X170800000Y-27500000D01*
X170000000Y-27500000D02*
X167800000Y-27500000D01*
X167000000Y-27500000D02*
X164800000Y-27500000D01*
X164000000Y-27500000D02*
X161800000Y-27500000D01*
X161000000Y-27500000D02*
X158800000Y-27500000D01*
X158000000Y-27500000D02*
X155800000Y-27500000D01*
X155000000Y-27500000D02*
X152800000Y-27500000D01*
X152000000Y-27500000D02*
X149800000Y-27500000D01*
X149000000Y-27500000D02*
X146800000Y-27500000D01*
X146000000Y-27500000D02*
X143800000Y-27500000D01*
X143000000Y-27500000D02*
X140800000Y-27500000D01*
X140000000Y-27500000D02*
X137800000Y-27500000D01*
X137000000Y-27500000D02*
X134800000Y-27500000D01*
X134000000Y-27500000D02*
X131800000Y-27500000D01*
X131000000Y-27500000D02*
X128800000Y-27500000D01*
X128000000Y-27500000D02*
X125800000Y-27500000D01*
X125000000Y-27500000D02*
X122800000Y-27500000D01*
X122000000Y-27500000D02*
X119800000Y-27500000D01*
X119000000Y-27500000D02*
X116800000Y-27500000D01*
X116000000Y-27500000D02*
X113800000Y-27500000D01*
X113000000Y-27500000D02*
X110800000Y-27500000D01*
X110000000Y-27500000D02*
X107800000Y-27500000D01*
X107000000Y-27500000D02*
X104800000Y-27500000D01*
X104000000Y-27500000D02*
X101800000Y-27500000D01*
X101000000Y-27500000D02*
X98800000Y-27500000D01*
X98000000Y-27500000D02*
X95800000Y-27500000D01*
X95000000Y-27500000D02*
X92800000Y-27500000D01*
X92000000Y-27500000D02*
X89800000Y-27500000D01*
X89000000Y-27500000D02*
X86800000Y-27500000D01*
X86000000Y-27500000D02*
X83800000Y-27500000D01*
X83000000Y-27500000D02*
X80800000Y-27500000D01*
X80000000Y-27500000D02*
X77800000Y-27500000D01*
X77000000Y-27500000D02*
X74800000Y-27500000D01*
X74000000Y-27500000D02*
X71800000Y-27500000D01*
X71000000Y-27500000D02*
X68800000Y-27500000D01*
X68000000Y-27500000D02*
X65800000Y-27500000D01*
X65000000Y-27500000D02*
X62800000Y-27500000D01*
X62000000Y-27500000D02*
X59800000Y-27500000D01*
X59000000Y-27500000D02*
X56800000Y-27500000D01*
X56000000Y-27500000D02*
X53800000Y-27500000D01*
X53000000Y-27500000D02*
X50800000Y-27500000D01*
X50000000Y-27500000D02*
X47800000Y-27500000D01*
X47000000Y-27500000D02*
X44800000Y-27500000D01*
X44000000Y-27500000D02*
X41800000Y-27500000D01*
X41000000Y-27500000D02*
X38800000Y-27500000D01*
X38000000Y-27500000D02*
X35800000Y-27500000D01*
X35000000Y-27500000D02*
X32800000Y-27500000D01*
X32000000Y-27500000D02*
X29800000Y-27500000D01*
X29000000Y-27500000D02*
X26800000Y-27500000D01*
X26000000Y-27500000D02*
X23800000Y-27500000D01*
X23000000Y-27500000D02*
X20800000Y-27500000D01*
X20000000Y-27500000D02*
X17800000Y-27500000D01*
X17000000Y-27500000D02*
X14800000Y-27500000D01*
X14000000Y-27500000D02*
X11800000Y-27500000D01*
X11000000Y-27500000D02*
X8800000Y-27500000D01*
X8000000Y-27500000D02*
X5800000Y-27500000D01*
X5000000Y-27500000D02*
X2800000Y-27500000D01*
X2000000Y-27500000D02*
X0Y-27500000D01*
D12*
X125954819Y-42357142D02*
X125478628Y-42023809D01*
X125954819Y-41785714D02*
X124954819Y-41785714D01*
X124954819Y-41785714D02*
X124954819Y-42166666D01*
X124954819Y-42166666D02*
X125002438Y-42261904D01*
X125002438Y-42261904D02*
X125050057Y-42309523D01*
X125050057Y-42309523D02*
X125145295Y-42357142D01*
X125145295Y-42357142D02*
X125288152Y-42357142D01*
X125288152Y-42357142D02*
X125383390Y-42309523D01*
X125383390Y-42309523D02*
X125431009Y-42261904D01*
X125431009Y-42261904D02*
X125478628Y-42166666D01*
X125478628Y-42166666D02*
X125478628Y-41785714D01*
X125050057Y-42738095D02*
X125002438Y-42785714D01*
X125002438Y-42785714D02*
X124954819Y-42880952D01*
X124954819Y-42880952D02*
X124954819Y-43119047D01*
X124954819Y-43119047D02*
X125002438Y-43214285D01*
X125002438Y-43214285D02*
X125050057Y-43261904D01*
X125050057Y-43261904D02*
X125145295Y-43309523D01*
X125145295Y-43309523D02*
X125240533Y-43309523D01*
X125240533Y-43309523D02*
X125383390Y-43261904D01*
X125383390Y-43261904D02*
X125954819Y-42690476D01*
X125954819Y-42690476D02*
X125954819Y-43309523D01*
X124954819Y-43642857D02*
X124954819Y-44309523D01*
X124954819Y-44309523D02*
X125954819Y-43880952D01*
X137580357Y-35359580D02*
X137627976Y-35407200D01*
X137627976Y-35407200D02*
X137770833Y-35454819D01*
X137770833Y-35454819D02*
X137866071Y-35454819D01*
X137866071Y-35454819D02*
X138008928Y-35407200D01*
X138008928Y-35407200D02*
X138104166Y-35311961D01*
X138104166Y-35311961D02*
X138151785Y-35216723D01*
X138151785Y-35216723D02*
X138199404Y-35026247D01*
X138199404Y-35026247D02*
X138199404Y-34883390D01*
X138199404Y-34883390D02*
X138151785Y-34692914D01*
X138151785Y-34692914D02*
X138104166Y-34597676D01*
X138104166Y-34597676D02*
X138008928Y-34502438D01*
X138008928Y-34502438D02*
X137866071Y-34454819D01*
X137866071Y-34454819D02*
X137770833Y-34454819D01*
X137770833Y-34454819D02*
X137627976Y-34502438D01*
X137627976Y-34502438D02*
X137580357Y-34550057D01*
X137247023Y-34454819D02*
X136627976Y-34454819D01*
X136627976Y-34454819D02*
X136961309Y-34835771D01*
X136961309Y-34835771D02*
X136818452Y-34835771D01*
X136818452Y-34835771D02*
X136723214Y-34883390D01*
X136723214Y-34883390D02*
X136675595Y-34931009D01*
X136675595Y-34931009D02*
X136627976Y-35026247D01*
X136627976Y-35026247D02*
X136627976Y-35264342D01*
X136627976Y-35264342D02*
X136675595Y-35359580D01*
X136675595Y-35359580D02*
X136723214Y-35407200D01*
X136723214Y-35407200D02*
X136818452Y-35454819D01*
X136818452Y-35454819D02*
X137104166Y-35454819D01*
X137104166Y-35454819D02*
X137199404Y-35407200D01*
X137199404Y-35407200D02*
X137247023Y-35359580D01*
X136151785Y-35454819D02*
X135961309Y-35454819D01*
X135961309Y-35454819D02*
X135866071Y-35407200D01*
X135866071Y-35407200D02*
X135818452Y-35359580D01*
X135818452Y-35359580D02*
X135723214Y-35216723D01*
X135723214Y-35216723D02*
X135675595Y-35026247D01*
X135675595Y-35026247D02*
X135675595Y-34645295D01*
X135675595Y-34645295D02*
X135723214Y-34550057D01*
X135723214Y-34550057D02*
X135770833Y-34502438D01*
X135770833Y-34502438D02*
X135866071Y-34454819D01*
X135866071Y-34454819D02*
X136056547Y-34454819D01*
X136056547Y-34454819D02*
X136151785Y-34502438D01*
X136151785Y-34502438D02*
X136199404Y-34550057D01*
X136199404Y-34550057D02*
X136247023Y-34645295D01*
X136247023Y-34645295D02*
X136247023Y-34883390D01*
X136247023Y-34883390D02*
X136199404Y-34978628D01*
X136199404Y-34978628D02*
X136151785Y-35026247D01*
X136151785Y-35026247D02*
X136056547Y-35073866D01*
X136056547Y-35073866D02*
X135866071Y-35073866D01*
X135866071Y-35073866D02*
X135770833Y-35026247D01*
X135770833Y-35026247D02*
X135723214Y-34978628D01*
X135723214Y-34978628D02*
X135675595Y-34883390D01*
X49666666Y-36359580D02*
X49714285Y-36407200D01*
X49714285Y-36407200D02*
X49857142Y-36454819D01*
X49857142Y-36454819D02*
X49952380Y-36454819D01*
X49952380Y-36454819D02*
X50095237Y-36407200D01*
X50095237Y-36407200D02*
X50190475Y-36311961D01*
X50190475Y-36311961D02*
X50238094Y-36216723D01*
X50238094Y-36216723D02*
X50285713Y-36026247D01*
X50285713Y-36026247D02*
X50285713Y-35883390D01*
X50285713Y-35883390D02*
X50238094Y-35692914D01*
X50238094Y-35692914D02*
X50190475Y-35597676D01*
X50190475Y-35597676D02*
X50095237Y-35502438D01*
X50095237Y-35502438D02*
X49952380Y-35454819D01*
X49952380Y-35454819D02*
X49857142Y-35454819D01*
X49857142Y-35454819D02*
X49714285Y-35502438D01*
X49714285Y-35502438D02*
X49666666Y-35550057D01*
X49333332Y-35454819D02*
X48714285Y-35454819D01*
X48714285Y-35454819D02*
X49047618Y-35835771D01*
X49047618Y-35835771D02*
X48904761Y-35835771D01*
X48904761Y-35835771D02*
X48809523Y-35883390D01*
X48809523Y-35883390D02*
X48761904Y-35931009D01*
X48761904Y-35931009D02*
X48714285Y-36026247D01*
X48714285Y-36026247D02*
X48714285Y-36264342D01*
X48714285Y-36264342D02*
X48761904Y-36359580D01*
X48761904Y-36359580D02*
X48809523Y-36407200D01*
X48809523Y-36407200D02*
X48904761Y-36454819D01*
X48904761Y-36454819D02*
X49190475Y-36454819D01*
X49190475Y-36454819D02*
X49285713Y-36407200D01*
X49285713Y-36407200D02*
X49333332Y-36359580D01*
X216359580Y-19857142D02*
X216407200Y-19809523D01*
X216407200Y-19809523D02*
X216454819Y-19666666D01*
X216454819Y-19666666D02*
X216454819Y-19571428D01*
X216454819Y-19571428D02*
X216407200Y-19428571D01*
X216407200Y-19428571D02*
X216311961Y-19333333D01*
X216311961Y-19333333D02*
X216216723Y-19285714D01*
X216216723Y-19285714D02*
X216026247Y-19238095D01*
X216026247Y-19238095D02*
X215883390Y-19238095D01*
X215883390Y-19238095D02*
X215692914Y-19285714D01*
X215692914Y-19285714D02*
X215597676Y-19333333D01*
X215597676Y-19333333D02*
X215502438Y-19428571D01*
X215502438Y-19428571D02*
X215454819Y-19571428D01*
X215454819Y-19571428D02*
X215454819Y-19666666D01*
X215454819Y-19666666D02*
X215502438Y-19809523D01*
X215502438Y-19809523D02*
X215550057Y-19857142D01*
X215454819Y-20761904D02*
X215454819Y-20285714D01*
X215454819Y-20285714D02*
X215931009Y-20238095D01*
X215931009Y-20238095D02*
X215883390Y-20285714D01*
X215883390Y-20285714D02*
X215835771Y-20380952D01*
X215835771Y-20380952D02*
X215835771Y-20619047D01*
X215835771Y-20619047D02*
X215883390Y-20714285D01*
X215883390Y-20714285D02*
X215931009Y-20761904D01*
X215931009Y-20761904D02*
X216026247Y-20809523D01*
X216026247Y-20809523D02*
X216264342Y-20809523D01*
X216264342Y-20809523D02*
X216359580Y-20761904D01*
X216359580Y-20761904D02*
X216407200Y-20714285D01*
X216407200Y-20714285D02*
X216454819Y-20619047D01*
X216454819Y-20619047D02*
X216454819Y-20380952D01*
X216454819Y-20380952D02*
X216407200Y-20285714D01*
X216407200Y-20285714D02*
X216359580Y-20238095D01*
X216454819Y-21285714D02*
X216454819Y-21476190D01*
X216454819Y-21476190D02*
X216407200Y-21571428D01*
X216407200Y-21571428D02*
X216359580Y-21619047D01*
X216359580Y-21619047D02*
X216216723Y-21714285D01*
X216216723Y-21714285D02*
X216026247Y-21761904D01*
X216026247Y-21761904D02*
X215645295Y-21761904D01*
X215645295Y-21761904D02*
X215550057Y-21714285D01*
X215550057Y-21714285D02*
X215502438Y-21666666D01*
X215502438Y-21666666D02*
X215454819Y-21571428D01*
X215454819Y-21571428D02*
X215454819Y-21380952D01*
X215454819Y-21380952D02*
X215502438Y-21285714D01*
X215502438Y-21285714D02*
X215550057Y-21238095D01*
X215550057Y-21238095D02*
X215645295Y-21190476D01*
X215645295Y-21190476D02*
X215883390Y-21190476D01*
X215883390Y-21190476D02*
X215978628Y-21238095D01*
X215978628Y-21238095D02*
X216026247Y-21285714D01*
X216026247Y-21285714D02*
X216073866Y-21380952D01*
X216073866Y-21380952D02*
X216073866Y-21571428D01*
X216073866Y-21571428D02*
X216026247Y-21666666D01*
X216026247Y-21666666D02*
X215978628Y-21714285D01*
X215978628Y-21714285D02*
X215883390Y-21761904D01*
X104142857Y-31059580D02*
X104190476Y-31107200D01*
X104190476Y-31107200D02*
X104333333Y-31154819D01*
X104333333Y-31154819D02*
X104428571Y-31154819D01*
X104428571Y-31154819D02*
X104571428Y-31107200D01*
X104571428Y-31107200D02*
X104666666Y-31011961D01*
X104666666Y-31011961D02*
X104714285Y-30916723D01*
X104714285Y-30916723D02*
X104761904Y-30726247D01*
X104761904Y-30726247D02*
X104761904Y-30583390D01*
X104761904Y-30583390D02*
X104714285Y-30392914D01*
X104714285Y-30392914D02*
X104666666Y-30297676D01*
X104666666Y-30297676D02*
X104571428Y-30202438D01*
X104571428Y-30202438D02*
X104428571Y-30154819D01*
X104428571Y-30154819D02*
X104333333Y-30154819D01*
X104333333Y-30154819D02*
X104190476Y-30202438D01*
X104190476Y-30202438D02*
X104142857Y-30250057D01*
X103571428Y-30583390D02*
X103666666Y-30535771D01*
X103666666Y-30535771D02*
X103714285Y-30488152D01*
X103714285Y-30488152D02*
X103761904Y-30392914D01*
X103761904Y-30392914D02*
X103761904Y-30345295D01*
X103761904Y-30345295D02*
X103714285Y-30250057D01*
X103714285Y-30250057D02*
X103666666Y-30202438D01*
X103666666Y-30202438D02*
X103571428Y-30154819D01*
X103571428Y-30154819D02*
X103380952Y-30154819D01*
X103380952Y-30154819D02*
X103285714Y-30202438D01*
X103285714Y-30202438D02*
X103238095Y-30250057D01*
X103238095Y-30250057D02*
X103190476Y-30345295D01*
X103190476Y-30345295D02*
X103190476Y-30392914D01*
X103190476Y-30392914D02*
X103238095Y-30488152D01*
X103238095Y-30488152D02*
X103285714Y-30535771D01*
X103285714Y-30535771D02*
X103380952Y-30583390D01*
X103380952Y-30583390D02*
X103571428Y-30583390D01*
X103571428Y-30583390D02*
X103666666Y-30631009D01*
X103666666Y-30631009D02*
X103714285Y-30678628D01*
X103714285Y-30678628D02*
X103761904Y-30773866D01*
X103761904Y-30773866D02*
X103761904Y-30964342D01*
X103761904Y-30964342D02*
X103714285Y-31059580D01*
X103714285Y-31059580D02*
X103666666Y-31107200D01*
X103666666Y-31107200D02*
X103571428Y-31154819D01*
X103571428Y-31154819D02*
X103380952Y-31154819D01*
X103380952Y-31154819D02*
X103285714Y-31107200D01*
X103285714Y-31107200D02*
X103238095Y-31059580D01*
X103238095Y-31059580D02*
X103190476Y-30964342D01*
X103190476Y-30964342D02*
X103190476Y-30773866D01*
X103190476Y-30773866D02*
X103238095Y-30678628D01*
X103238095Y-30678628D02*
X103285714Y-30631009D01*
X103285714Y-30631009D02*
X103380952Y-30583390D01*
X102333333Y-30154819D02*
X102523809Y-30154819D01*
X102523809Y-30154819D02*
X102619047Y-30202438D01*
X102619047Y-30202438D02*
X102666666Y-30250057D01*
X102666666Y-30250057D02*
X102761904Y-30392914D01*
X102761904Y-30392914D02*
X102809523Y-30583390D01*
X102809523Y-30583390D02*
X102809523Y-30964342D01*
X102809523Y-30964342D02*
X102761904Y-31059580D01*
X102761904Y-31059580D02*
X102714285Y-31107200D01*
X102714285Y-31107200D02*
X102619047Y-31154819D01*
X102619047Y-31154819D02*
X102428571Y-31154819D01*
X102428571Y-31154819D02*
X102333333Y-31107200D01*
X102333333Y-31107200D02*
X102285714Y-31059580D01*
X102285714Y-31059580D02*
X102238095Y-30964342D01*
X102238095Y-30964342D02*
X102238095Y-30726247D01*
X102238095Y-30726247D02*
X102285714Y-30631009D01*
X102285714Y-30631009D02*
X102333333Y-30583390D01*
X102333333Y-30583390D02*
X102428571Y-30535771D01*
X102428571Y-30535771D02*
X102619047Y-30535771D01*
X102619047Y-30535771D02*
X102714285Y-30583390D01*
X102714285Y-30583390D02*
X102761904Y-30631009D01*
X102761904Y-30631009D02*
X102809523Y-30726247D01*
X222642857Y-17859580D02*
X222690476Y-17907200D01*
X222690476Y-17907200D02*
X222833333Y-17954819D01*
X222833333Y-17954819D02*
X222928571Y-17954819D01*
X222928571Y-17954819D02*
X223071428Y-17907200D01*
X223071428Y-17907200D02*
X223166666Y-17811961D01*
X223166666Y-17811961D02*
X223214285Y-17716723D01*
X223214285Y-17716723D02*
X223261904Y-17526247D01*
X223261904Y-17526247D02*
X223261904Y-17383390D01*
X223261904Y-17383390D02*
X223214285Y-17192914D01*
X223214285Y-17192914D02*
X223166666Y-17097676D01*
X223166666Y-17097676D02*
X223071428Y-17002438D01*
X223071428Y-17002438D02*
X222928571Y-16954819D01*
X222928571Y-16954819D02*
X222833333Y-16954819D01*
X222833333Y-16954819D02*
X222690476Y-17002438D01*
X222690476Y-17002438D02*
X222642857Y-17050057D01*
X221785714Y-16954819D02*
X221976190Y-16954819D01*
X221976190Y-16954819D02*
X222071428Y-17002438D01*
X222071428Y-17002438D02*
X222119047Y-17050057D01*
X222119047Y-17050057D02*
X222214285Y-17192914D01*
X222214285Y-17192914D02*
X222261904Y-17383390D01*
X222261904Y-17383390D02*
X222261904Y-17764342D01*
X222261904Y-17764342D02*
X222214285Y-17859580D01*
X222214285Y-17859580D02*
X222166666Y-17907200D01*
X222166666Y-17907200D02*
X222071428Y-17954819D01*
X222071428Y-17954819D02*
X221880952Y-17954819D01*
X221880952Y-17954819D02*
X221785714Y-17907200D01*
X221785714Y-17907200D02*
X221738095Y-17859580D01*
X221738095Y-17859580D02*
X221690476Y-17764342D01*
X221690476Y-17764342D02*
X221690476Y-17526247D01*
X221690476Y-17526247D02*
X221738095Y-17431009D01*
X221738095Y-17431009D02*
X221785714Y-17383390D01*
X221785714Y-17383390D02*
X221880952Y-17335771D01*
X221880952Y-17335771D02*
X222071428Y-17335771D01*
X222071428Y-17335771D02*
X222166666Y-17383390D01*
X222166666Y-17383390D02*
X222214285Y-17431009D01*
X222214285Y-17431009D02*
X222261904Y-17526247D01*
X221357142Y-16954819D02*
X220690476Y-16954819D01*
X220690476Y-16954819D02*
X221119047Y-17954819D01*
X163142857Y-43359580D02*
X163190476Y-43407200D01*
X163190476Y-43407200D02*
X163333333Y-43454819D01*
X163333333Y-43454819D02*
X163428571Y-43454819D01*
X163428571Y-43454819D02*
X163571428Y-43407200D01*
X163571428Y-43407200D02*
X163666666Y-43311961D01*
X163666666Y-43311961D02*
X163714285Y-43216723D01*
X163714285Y-43216723D02*
X163761904Y-43026247D01*
X163761904Y-43026247D02*
X163761904Y-42883390D01*
X163761904Y-42883390D02*
X163714285Y-42692914D01*
X163714285Y-42692914D02*
X163666666Y-42597676D01*
X163666666Y-42597676D02*
X163571428Y-42502438D01*
X163571428Y-42502438D02*
X163428571Y-42454819D01*
X163428571Y-42454819D02*
X163333333Y-42454819D01*
X163333333Y-42454819D02*
X163190476Y-42502438D01*
X163190476Y-42502438D02*
X163142857Y-42550057D01*
X162809523Y-42454819D02*
X162142857Y-42454819D01*
X162142857Y-42454819D02*
X162571428Y-43454819D01*
X161714285Y-43454819D02*
X161523809Y-43454819D01*
X161523809Y-43454819D02*
X161428571Y-43407200D01*
X161428571Y-43407200D02*
X161380952Y-43359580D01*
X161380952Y-43359580D02*
X161285714Y-43216723D01*
X161285714Y-43216723D02*
X161238095Y-43026247D01*
X161238095Y-43026247D02*
X161238095Y-42645295D01*
X161238095Y-42645295D02*
X161285714Y-42550057D01*
X161285714Y-42550057D02*
X161333333Y-42502438D01*
X161333333Y-42502438D02*
X161428571Y-42454819D01*
X161428571Y-42454819D02*
X161619047Y-42454819D01*
X161619047Y-42454819D02*
X161714285Y-42502438D01*
X161714285Y-42502438D02*
X161761904Y-42550057D01*
X161761904Y-42550057D02*
X161809523Y-42645295D01*
X161809523Y-42645295D02*
X161809523Y-42883390D01*
X161809523Y-42883390D02*
X161761904Y-42978628D01*
X161761904Y-42978628D02*
X161714285Y-43026247D01*
X161714285Y-43026247D02*
X161619047Y-43073866D01*
X161619047Y-43073866D02*
X161428571Y-43073866D01*
X161428571Y-43073866D02*
X161333333Y-43026247D01*
X161333333Y-43026247D02*
X161285714Y-42978628D01*
X161285714Y-42978628D02*
X161238095Y-42883390D01*
X42642857Y-36359580D02*
X42690476Y-36407200D01*
X42690476Y-36407200D02*
X42833333Y-36454819D01*
X42833333Y-36454819D02*
X42928571Y-36454819D01*
X42928571Y-36454819D02*
X43071428Y-36407200D01*
X43071428Y-36407200D02*
X43166666Y-36311961D01*
X43166666Y-36311961D02*
X43214285Y-36216723D01*
X43214285Y-36216723D02*
X43261904Y-36026247D01*
X43261904Y-36026247D02*
X43261904Y-35883390D01*
X43261904Y-35883390D02*
X43214285Y-35692914D01*
X43214285Y-35692914D02*
X43166666Y-35597676D01*
X43166666Y-35597676D02*
X43071428Y-35502438D01*
X43071428Y-35502438D02*
X42928571Y-35454819D01*
X42928571Y-35454819D02*
X42833333Y-35454819D01*
X42833333Y-35454819D02*
X42690476Y-35502438D01*
X42690476Y-35502438D02*
X42642857Y-35550057D01*
X42261904Y-35550057D02*
X42214285Y-35502438D01*
X42214285Y-35502438D02*
X42119047Y-35454819D01*
X42119047Y-35454819D02*
X41880952Y-35454819D01*
X41880952Y-35454819D02*
X41785714Y-35502438D01*
X41785714Y-35502438D02*
X41738095Y-35550057D01*
X41738095Y-35550057D02*
X41690476Y-35645295D01*
X41690476Y-35645295D02*
X41690476Y-35740533D01*
X41690476Y-35740533D02*
X41738095Y-35883390D01*
X41738095Y-35883390D02*
X42309523Y-36454819D01*
X42309523Y-36454819D02*
X41690476Y-36454819D01*
X40833333Y-35454819D02*
X41023809Y-35454819D01*
X41023809Y-35454819D02*
X41119047Y-35502438D01*
X41119047Y-35502438D02*
X41166666Y-35550057D01*
X41166666Y-35550057D02*
X41261904Y-35692914D01*
X41261904Y-35692914D02*
X41309523Y-35883390D01*
X41309523Y-35883390D02*
X41309523Y-36264342D01*
X41309523Y-36264342D02*
X41261904Y-36359580D01*
X41261904Y-36359580D02*
X41214285Y-36407200D01*
X41214285Y-36407200D02*
X41119047Y-36454819D01*
X41119047Y-36454819D02*
X40928571Y-36454819D01*
X40928571Y-36454819D02*
X40833333Y-36407200D01*
X40833333Y-36407200D02*
X40785714Y-36359580D01*
X40785714Y-36359580D02*
X40738095Y-36264342D01*
X40738095Y-36264342D02*
X40738095Y-36026247D01*
X40738095Y-36026247D02*
X40785714Y-35931009D01*
X40785714Y-35931009D02*
X40833333Y-35883390D01*
X40833333Y-35883390D02*
X40928571Y-35835771D01*
X40928571Y-35835771D02*
X41119047Y-35835771D01*
X41119047Y-35835771D02*
X41214285Y-35883390D01*
X41214285Y-35883390D02*
X41261904Y-35931009D01*
X41261904Y-35931009D02*
X41309523Y-36026247D01*
X242859580Y-20357142D02*
X242907200Y-20309523D01*
X242907200Y-20309523D02*
X242954819Y-20166666D01*
X242954819Y-20166666D02*
X242954819Y-20071428D01*
X242954819Y-20071428D02*
X242907200Y-19928571D01*
X242907200Y-19928571D02*
X242811961Y-19833333D01*
X242811961Y-19833333D02*
X242716723Y-19785714D01*
X242716723Y-19785714D02*
X242526247Y-19738095D01*
X242526247Y-19738095D02*
X242383390Y-19738095D01*
X242383390Y-19738095D02*
X242192914Y-19785714D01*
X242192914Y-19785714D02*
X242097676Y-19833333D01*
X242097676Y-19833333D02*
X242002438Y-19928571D01*
X242002438Y-19928571D02*
X241954819Y-20071428D01*
X241954819Y-20071428D02*
X241954819Y-20166666D01*
X241954819Y-20166666D02*
X242002438Y-20309523D01*
X242002438Y-20309523D02*
X242050057Y-20357142D01*
X241954819Y-20690476D02*
X241954819Y-21357142D01*
X241954819Y-21357142D02*
X242954819Y-20928571D01*
X242954819Y-22261904D02*
X242954819Y-21690476D01*
X242954819Y-21976190D02*
X241954819Y-21976190D01*
X241954819Y-21976190D02*
X242097676Y-21880952D01*
X242097676Y-21880952D02*
X242192914Y-21785714D01*
X242192914Y-21785714D02*
X242240533Y-21690476D01*
X138276174Y-39867036D02*
X138175159Y-39294617D01*
X138680235Y-39462975D02*
X137973128Y-38755869D01*
X137973128Y-38755869D02*
X137703754Y-39025243D01*
X137703754Y-39025243D02*
X137670082Y-39126258D01*
X137670082Y-39126258D02*
X137670082Y-39193601D01*
X137670082Y-39193601D02*
X137703754Y-39294617D01*
X137703754Y-39294617D02*
X137804769Y-39395632D01*
X137804769Y-39395632D02*
X137905785Y-39429304D01*
X137905785Y-39429304D02*
X137973128Y-39429304D01*
X137973128Y-39429304D02*
X138074143Y-39395632D01*
X138074143Y-39395632D02*
X138343517Y-39126258D01*
X137333365Y-39395632D02*
X136895632Y-39833365D01*
X136895632Y-39833365D02*
X137400708Y-39867036D01*
X137400708Y-39867036D02*
X137299693Y-39968052D01*
X137299693Y-39968052D02*
X137266021Y-40069067D01*
X137266021Y-40069067D02*
X137266021Y-40136410D01*
X137266021Y-40136410D02*
X137299693Y-40237426D01*
X137299693Y-40237426D02*
X137468052Y-40405784D01*
X137468052Y-40405784D02*
X137569067Y-40439456D01*
X137569067Y-40439456D02*
X137636411Y-40439456D01*
X137636411Y-40439456D02*
X137737426Y-40405784D01*
X137737426Y-40405784D02*
X137939456Y-40203754D01*
X137939456Y-40203754D02*
X137973128Y-40102739D01*
X137973128Y-40102739D02*
X137973128Y-40035395D01*
X136929304Y-41213907D02*
X137333365Y-40809846D01*
X137131334Y-41011876D02*
X136424227Y-40304769D01*
X136424227Y-40304769D02*
X136592586Y-40338441D01*
X136592586Y-40338441D02*
X136727273Y-40338441D01*
X136727273Y-40338441D02*
X136828288Y-40304769D01*
X137642857Y-17359580D02*
X137690476Y-17407200D01*
X137690476Y-17407200D02*
X137833333Y-17454819D01*
X137833333Y-17454819D02*
X137928571Y-17454819D01*
X137928571Y-17454819D02*
X138071428Y-17407200D01*
X138071428Y-17407200D02*
X138166666Y-17311961D01*
X138166666Y-17311961D02*
X138214285Y-17216723D01*
X138214285Y-17216723D02*
X138261904Y-17026247D01*
X138261904Y-17026247D02*
X138261904Y-16883390D01*
X138261904Y-16883390D02*
X138214285Y-16692914D01*
X138214285Y-16692914D02*
X138166666Y-16597676D01*
X138166666Y-16597676D02*
X138071428Y-16502438D01*
X138071428Y-16502438D02*
X137928571Y-16454819D01*
X137928571Y-16454819D02*
X137833333Y-16454819D01*
X137833333Y-16454819D02*
X137690476Y-16502438D01*
X137690476Y-16502438D02*
X137642857Y-16550057D01*
X136785714Y-16788152D02*
X136785714Y-17454819D01*
X137023809Y-16407200D02*
X137261904Y-17121485D01*
X137261904Y-17121485D02*
X136642857Y-17121485D01*
X136357142Y-16454819D02*
X135738095Y-16454819D01*
X135738095Y-16454819D02*
X136071428Y-16835771D01*
X136071428Y-16835771D02*
X135928571Y-16835771D01*
X135928571Y-16835771D02*
X135833333Y-16883390D01*
X135833333Y-16883390D02*
X135785714Y-16931009D01*
X135785714Y-16931009D02*
X135738095Y-17026247D01*
X135738095Y-17026247D02*
X135738095Y-17264342D01*
X135738095Y-17264342D02*
X135785714Y-17359580D01*
X135785714Y-17359580D02*
X135833333Y-17407200D01*
X135833333Y-17407200D02*
X135928571Y-17454819D01*
X135928571Y-17454819D02*
X136214285Y-17454819D01*
X136214285Y-17454819D02*
X136309523Y-17407200D01*
X136309523Y-17407200D02*
X136357142Y-17359580D01*
X73642857Y-36359580D02*
X73690476Y-36407200D01*
X73690476Y-36407200D02*
X73833333Y-36454819D01*
X73833333Y-36454819D02*
X73928571Y-36454819D01*
X73928571Y-36454819D02*
X74071428Y-36407200D01*
X74071428Y-36407200D02*
X74166666Y-36311961D01*
X74166666Y-36311961D02*
X74214285Y-36216723D01*
X74214285Y-36216723D02*
X74261904Y-36026247D01*
X74261904Y-36026247D02*
X74261904Y-35883390D01*
X74261904Y-35883390D02*
X74214285Y-35692914D01*
X74214285Y-35692914D02*
X74166666Y-35597676D01*
X74166666Y-35597676D02*
X74071428Y-35502438D01*
X74071428Y-35502438D02*
X73928571Y-35454819D01*
X73928571Y-35454819D02*
X73833333Y-35454819D01*
X73833333Y-35454819D02*
X73690476Y-35502438D01*
X73690476Y-35502438D02*
X73642857Y-35550057D01*
X73071428Y-35883390D02*
X73166666Y-35835771D01*
X73166666Y-35835771D02*
X73214285Y-35788152D01*
X73214285Y-35788152D02*
X73261904Y-35692914D01*
X73261904Y-35692914D02*
X73261904Y-35645295D01*
X73261904Y-35645295D02*
X73214285Y-35550057D01*
X73214285Y-35550057D02*
X73166666Y-35502438D01*
X73166666Y-35502438D02*
X73071428Y-35454819D01*
X73071428Y-35454819D02*
X72880952Y-35454819D01*
X72880952Y-35454819D02*
X72785714Y-35502438D01*
X72785714Y-35502438D02*
X72738095Y-35550057D01*
X72738095Y-35550057D02*
X72690476Y-35645295D01*
X72690476Y-35645295D02*
X72690476Y-35692914D01*
X72690476Y-35692914D02*
X72738095Y-35788152D01*
X72738095Y-35788152D02*
X72785714Y-35835771D01*
X72785714Y-35835771D02*
X72880952Y-35883390D01*
X72880952Y-35883390D02*
X73071428Y-35883390D01*
X73071428Y-35883390D02*
X73166666Y-35931009D01*
X73166666Y-35931009D02*
X73214285Y-35978628D01*
X73214285Y-35978628D02*
X73261904Y-36073866D01*
X73261904Y-36073866D02*
X73261904Y-36264342D01*
X73261904Y-36264342D02*
X73214285Y-36359580D01*
X73214285Y-36359580D02*
X73166666Y-36407200D01*
X73166666Y-36407200D02*
X73071428Y-36454819D01*
X73071428Y-36454819D02*
X72880952Y-36454819D01*
X72880952Y-36454819D02*
X72785714Y-36407200D01*
X72785714Y-36407200D02*
X72738095Y-36359580D01*
X72738095Y-36359580D02*
X72690476Y-36264342D01*
X72690476Y-36264342D02*
X72690476Y-36073866D01*
X72690476Y-36073866D02*
X72738095Y-35978628D01*
X72738095Y-35978628D02*
X72785714Y-35931009D01*
X72785714Y-35931009D02*
X72880952Y-35883390D01*
X71833333Y-35788152D02*
X71833333Y-36454819D01*
X72071428Y-35407200D02*
X72309523Y-36121485D01*
X72309523Y-36121485D02*
X71690476Y-36121485D01*
X36142857Y-9859580D02*
X36190476Y-9907200D01*
X36190476Y-9907200D02*
X36333333Y-9954819D01*
X36333333Y-9954819D02*
X36428571Y-9954819D01*
X36428571Y-9954819D02*
X36571428Y-9907200D01*
X36571428Y-9907200D02*
X36666666Y-9811961D01*
X36666666Y-9811961D02*
X36714285Y-9716723D01*
X36714285Y-9716723D02*
X36761904Y-9526247D01*
X36761904Y-9526247D02*
X36761904Y-9383390D01*
X36761904Y-9383390D02*
X36714285Y-9192914D01*
X36714285Y-9192914D02*
X36666666Y-9097676D01*
X36666666Y-9097676D02*
X36571428Y-9002438D01*
X36571428Y-9002438D02*
X36428571Y-8954819D01*
X36428571Y-8954819D02*
X36333333Y-8954819D01*
X36333333Y-8954819D02*
X36190476Y-9002438D01*
X36190476Y-9002438D02*
X36142857Y-9050057D01*
X35809523Y-8954819D02*
X35190476Y-8954819D01*
X35190476Y-8954819D02*
X35523809Y-9335771D01*
X35523809Y-9335771D02*
X35380952Y-9335771D01*
X35380952Y-9335771D02*
X35285714Y-9383390D01*
X35285714Y-9383390D02*
X35238095Y-9431009D01*
X35238095Y-9431009D02*
X35190476Y-9526247D01*
X35190476Y-9526247D02*
X35190476Y-9764342D01*
X35190476Y-9764342D02*
X35238095Y-9859580D01*
X35238095Y-9859580D02*
X35285714Y-9907200D01*
X35285714Y-9907200D02*
X35380952Y-9954819D01*
X35380952Y-9954819D02*
X35666666Y-9954819D01*
X35666666Y-9954819D02*
X35761904Y-9907200D01*
X35761904Y-9907200D02*
X35809523Y-9859580D01*
X34857142Y-8954819D02*
X34190476Y-8954819D01*
X34190476Y-8954819D02*
X34619047Y-9954819D01*
X154705357Y-11059580D02*
X154752976Y-11107200D01*
X154752976Y-11107200D02*
X154895833Y-11154819D01*
X154895833Y-11154819D02*
X154991071Y-11154819D01*
X154991071Y-11154819D02*
X155133928Y-11107200D01*
X155133928Y-11107200D02*
X155229166Y-11011961D01*
X155229166Y-11011961D02*
X155276785Y-10916723D01*
X155276785Y-10916723D02*
X155324404Y-10726247D01*
X155324404Y-10726247D02*
X155324404Y-10583390D01*
X155324404Y-10583390D02*
X155276785Y-10392914D01*
X155276785Y-10392914D02*
X155229166Y-10297676D01*
X155229166Y-10297676D02*
X155133928Y-10202438D01*
X155133928Y-10202438D02*
X154991071Y-10154819D01*
X154991071Y-10154819D02*
X154895833Y-10154819D01*
X154895833Y-10154819D02*
X154752976Y-10202438D01*
X154752976Y-10202438D02*
X154705357Y-10250057D01*
X153848214Y-10488152D02*
X153848214Y-11154819D01*
X154086309Y-10107200D02*
X154324404Y-10821485D01*
X154324404Y-10821485D02*
X153705357Y-10821485D01*
X153276785Y-11154819D02*
X153086309Y-11154819D01*
X153086309Y-11154819D02*
X152991071Y-11107200D01*
X152991071Y-11107200D02*
X152943452Y-11059580D01*
X152943452Y-11059580D02*
X152848214Y-10916723D01*
X152848214Y-10916723D02*
X152800595Y-10726247D01*
X152800595Y-10726247D02*
X152800595Y-10345295D01*
X152800595Y-10345295D02*
X152848214Y-10250057D01*
X152848214Y-10250057D02*
X152895833Y-10202438D01*
X152895833Y-10202438D02*
X152991071Y-10154819D01*
X152991071Y-10154819D02*
X153181547Y-10154819D01*
X153181547Y-10154819D02*
X153276785Y-10202438D01*
X153276785Y-10202438D02*
X153324404Y-10250057D01*
X153324404Y-10250057D02*
X153372023Y-10345295D01*
X153372023Y-10345295D02*
X153372023Y-10583390D01*
X153372023Y-10583390D02*
X153324404Y-10678628D01*
X153324404Y-10678628D02*
X153276785Y-10726247D01*
X153276785Y-10726247D02*
X153181547Y-10773866D01*
X153181547Y-10773866D02*
X152991071Y-10773866D01*
X152991071Y-10773866D02*
X152895833Y-10726247D01*
X152895833Y-10726247D02*
X152848214Y-10678628D01*
X152848214Y-10678628D02*
X152800595Y-10583390D01*
X251359580Y-19794642D02*
X251407200Y-19747023D01*
X251407200Y-19747023D02*
X251454819Y-19604166D01*
X251454819Y-19604166D02*
X251454819Y-19508928D01*
X251454819Y-19508928D02*
X251407200Y-19366071D01*
X251407200Y-19366071D02*
X251311961Y-19270833D01*
X251311961Y-19270833D02*
X251216723Y-19223214D01*
X251216723Y-19223214D02*
X251026247Y-19175595D01*
X251026247Y-19175595D02*
X250883390Y-19175595D01*
X250883390Y-19175595D02*
X250692914Y-19223214D01*
X250692914Y-19223214D02*
X250597676Y-19270833D01*
X250597676Y-19270833D02*
X250502438Y-19366071D01*
X250502438Y-19366071D02*
X250454819Y-19508928D01*
X250454819Y-19508928D02*
X250454819Y-19604166D01*
X250454819Y-19604166D02*
X250502438Y-19747023D01*
X250502438Y-19747023D02*
X250550057Y-19794642D01*
X250454819Y-20651785D02*
X250454819Y-20461309D01*
X250454819Y-20461309D02*
X250502438Y-20366071D01*
X250502438Y-20366071D02*
X250550057Y-20318452D01*
X250550057Y-20318452D02*
X250692914Y-20223214D01*
X250692914Y-20223214D02*
X250883390Y-20175595D01*
X250883390Y-20175595D02*
X251264342Y-20175595D01*
X251264342Y-20175595D02*
X251359580Y-20223214D01*
X251359580Y-20223214D02*
X251407200Y-20270833D01*
X251407200Y-20270833D02*
X251454819Y-20366071D01*
X251454819Y-20366071D02*
X251454819Y-20556547D01*
X251454819Y-20556547D02*
X251407200Y-20651785D01*
X251407200Y-20651785D02*
X251359580Y-20699404D01*
X251359580Y-20699404D02*
X251264342Y-20747023D01*
X251264342Y-20747023D02*
X251026247Y-20747023D01*
X251026247Y-20747023D02*
X250931009Y-20699404D01*
X250931009Y-20699404D02*
X250883390Y-20651785D01*
X250883390Y-20651785D02*
X250835771Y-20556547D01*
X250835771Y-20556547D02*
X250835771Y-20366071D01*
X250835771Y-20366071D02*
X250883390Y-20270833D01*
X250883390Y-20270833D02*
X250931009Y-20223214D01*
X250931009Y-20223214D02*
X251026247Y-20175595D01*
X250883390Y-21318452D02*
X250835771Y-21223214D01*
X250835771Y-21223214D02*
X250788152Y-21175595D01*
X250788152Y-21175595D02*
X250692914Y-21127976D01*
X250692914Y-21127976D02*
X250645295Y-21127976D01*
X250645295Y-21127976D02*
X250550057Y-21175595D01*
X250550057Y-21175595D02*
X250502438Y-21223214D01*
X250502438Y-21223214D02*
X250454819Y-21318452D01*
X250454819Y-21318452D02*
X250454819Y-21508928D01*
X250454819Y-21508928D02*
X250502438Y-21604166D01*
X250502438Y-21604166D02*
X250550057Y-21651785D01*
X250550057Y-21651785D02*
X250645295Y-21699404D01*
X250645295Y-21699404D02*
X250692914Y-21699404D01*
X250692914Y-21699404D02*
X250788152Y-21651785D01*
X250788152Y-21651785D02*
X250835771Y-21604166D01*
X250835771Y-21604166D02*
X250883390Y-21508928D01*
X250883390Y-21508928D02*
X250883390Y-21318452D01*
X250883390Y-21318452D02*
X250931009Y-21223214D01*
X250931009Y-21223214D02*
X250978628Y-21175595D01*
X250978628Y-21175595D02*
X251073866Y-21127976D01*
X251073866Y-21127976D02*
X251264342Y-21127976D01*
X251264342Y-21127976D02*
X251359580Y-21175595D01*
X251359580Y-21175595D02*
X251407200Y-21223214D01*
X251407200Y-21223214D02*
X251454819Y-21318452D01*
X251454819Y-21318452D02*
X251454819Y-21508928D01*
X251454819Y-21508928D02*
X251407200Y-21604166D01*
X251407200Y-21604166D02*
X251359580Y-21651785D01*
X251359580Y-21651785D02*
X251264342Y-21699404D01*
X251264342Y-21699404D02*
X251073866Y-21699404D01*
X251073866Y-21699404D02*
X250978628Y-21651785D01*
X250978628Y-21651785D02*
X250931009Y-21604166D01*
X250931009Y-21604166D02*
X250883390Y-21508928D01*
D13*
X64074318Y-4562618D02*
X62804318Y-4562618D01*
X62804318Y-4562618D02*
X62804318Y-4864999D01*
X62804318Y-4864999D02*
X62864794Y-5046428D01*
X62864794Y-5046428D02*
X62985746Y-5167380D01*
X62985746Y-5167380D02*
X63106699Y-5227857D01*
X63106699Y-5227857D02*
X63348603Y-5288333D01*
X63348603Y-5288333D02*
X63530032Y-5288333D01*
X63530032Y-5288333D02*
X63771937Y-5227857D01*
X63771937Y-5227857D02*
X63892889Y-5167380D01*
X63892889Y-5167380D02*
X64013842Y-5046428D01*
X64013842Y-5046428D02*
X64074318Y-4864999D01*
X64074318Y-4864999D02*
X64074318Y-4562618D01*
X62804318Y-5711666D02*
X62804318Y-6497857D01*
X62804318Y-6497857D02*
X63288127Y-6074523D01*
X63288127Y-6074523D02*
X63288127Y-6255952D01*
X63288127Y-6255952D02*
X63348603Y-6376904D01*
X63348603Y-6376904D02*
X63409080Y-6437380D01*
X63409080Y-6437380D02*
X63530032Y-6497857D01*
X63530032Y-6497857D02*
X63832413Y-6497857D01*
X63832413Y-6497857D02*
X63953365Y-6437380D01*
X63953365Y-6437380D02*
X64013842Y-6376904D01*
X64013842Y-6376904D02*
X64074318Y-6255952D01*
X64074318Y-6255952D02*
X64074318Y-5893095D01*
X64074318Y-5893095D02*
X64013842Y-5772142D01*
X64013842Y-5772142D02*
X63953365Y-5711666D01*
X150074318Y-3457856D02*
X148804318Y-3457856D01*
X148804318Y-3457856D02*
X148804318Y-3760237D01*
X148804318Y-3760237D02*
X148864794Y-3941666D01*
X148864794Y-3941666D02*
X148985746Y-4062618D01*
X148985746Y-4062618D02*
X149106699Y-4123095D01*
X149106699Y-4123095D02*
X149348603Y-4183571D01*
X149348603Y-4183571D02*
X149530032Y-4183571D01*
X149530032Y-4183571D02*
X149771937Y-4123095D01*
X149771937Y-4123095D02*
X149892889Y-4062618D01*
X149892889Y-4062618D02*
X150013842Y-3941666D01*
X150013842Y-3941666D02*
X150074318Y-3760237D01*
X150074318Y-3760237D02*
X150074318Y-3457856D01*
X150074318Y-5393095D02*
X150074318Y-4667380D01*
X150074318Y-5030237D02*
X148804318Y-5030237D01*
X148804318Y-5030237D02*
X148985746Y-4909285D01*
X148985746Y-4909285D02*
X149106699Y-4788333D01*
X149106699Y-4788333D02*
X149167175Y-4667380D01*
X148925270Y-5876904D02*
X148864794Y-5937380D01*
X148864794Y-5937380D02*
X148804318Y-6058333D01*
X148804318Y-6058333D02*
X148804318Y-6360714D01*
X148804318Y-6360714D02*
X148864794Y-6481666D01*
X148864794Y-6481666D02*
X148925270Y-6542142D01*
X148925270Y-6542142D02*
X149046222Y-6602619D01*
X149046222Y-6602619D02*
X149167175Y-6602619D01*
X149167175Y-6602619D02*
X149348603Y-6542142D01*
X149348603Y-6542142D02*
X150074318Y-5816428D01*
X150074318Y-5816428D02*
X150074318Y-6602619D01*
D12*
X127330357Y-35659580D02*
X127377976Y-35707200D01*
X127377976Y-35707200D02*
X127520833Y-35754819D01*
X127520833Y-35754819D02*
X127616071Y-35754819D01*
X127616071Y-35754819D02*
X127758928Y-35707200D01*
X127758928Y-35707200D02*
X127854166Y-35611961D01*
X127854166Y-35611961D02*
X127901785Y-35516723D01*
X127901785Y-35516723D02*
X127949404Y-35326247D01*
X127949404Y-35326247D02*
X127949404Y-35183390D01*
X127949404Y-35183390D02*
X127901785Y-34992914D01*
X127901785Y-34992914D02*
X127854166Y-34897676D01*
X127854166Y-34897676D02*
X127758928Y-34802438D01*
X127758928Y-34802438D02*
X127616071Y-34754819D01*
X127616071Y-34754819D02*
X127520833Y-34754819D01*
X127520833Y-34754819D02*
X127377976Y-34802438D01*
X127377976Y-34802438D02*
X127330357Y-34850057D01*
X126377976Y-35754819D02*
X126949404Y-35754819D01*
X126663690Y-35754819D02*
X126663690Y-34754819D01*
X126663690Y-34754819D02*
X126758928Y-34897676D01*
X126758928Y-34897676D02*
X126854166Y-34992914D01*
X126854166Y-34992914D02*
X126949404Y-35040533D01*
X125473214Y-34754819D02*
X125949404Y-34754819D01*
X125949404Y-34754819D02*
X125997023Y-35231009D01*
X125997023Y-35231009D02*
X125949404Y-35183390D01*
X125949404Y-35183390D02*
X125854166Y-35135771D01*
X125854166Y-35135771D02*
X125616071Y-35135771D01*
X125616071Y-35135771D02*
X125520833Y-35183390D01*
X125520833Y-35183390D02*
X125473214Y-35231009D01*
X125473214Y-35231009D02*
X125425595Y-35326247D01*
X125425595Y-35326247D02*
X125425595Y-35564342D01*
X125425595Y-35564342D02*
X125473214Y-35659580D01*
X125473214Y-35659580D02*
X125520833Y-35707200D01*
X125520833Y-35707200D02*
X125616071Y-35754819D01*
X125616071Y-35754819D02*
X125854166Y-35754819D01*
X125854166Y-35754819D02*
X125949404Y-35707200D01*
X125949404Y-35707200D02*
X125997023Y-35659580D01*
D13*
X128574318Y-5062618D02*
X127304318Y-5062618D01*
X127304318Y-5062618D02*
X127304318Y-5364999D01*
X127304318Y-5364999D02*
X127364794Y-5546428D01*
X127364794Y-5546428D02*
X127485746Y-5667380D01*
X127485746Y-5667380D02*
X127606699Y-5727857D01*
X127606699Y-5727857D02*
X127848603Y-5788333D01*
X127848603Y-5788333D02*
X128030032Y-5788333D01*
X128030032Y-5788333D02*
X128271937Y-5727857D01*
X128271937Y-5727857D02*
X128392889Y-5667380D01*
X128392889Y-5667380D02*
X128513842Y-5546428D01*
X128513842Y-5546428D02*
X128574318Y-5364999D01*
X128574318Y-5364999D02*
X128574318Y-5062618D01*
X127304318Y-6876904D02*
X127304318Y-6634999D01*
X127304318Y-6634999D02*
X127364794Y-6514047D01*
X127364794Y-6514047D02*
X127425270Y-6453571D01*
X127425270Y-6453571D02*
X127606699Y-6332618D01*
X127606699Y-6332618D02*
X127848603Y-6272142D01*
X127848603Y-6272142D02*
X128332413Y-6272142D01*
X128332413Y-6272142D02*
X128453365Y-6332618D01*
X128453365Y-6332618D02*
X128513842Y-6393095D01*
X128513842Y-6393095D02*
X128574318Y-6514047D01*
X128574318Y-6514047D02*
X128574318Y-6755952D01*
X128574318Y-6755952D02*
X128513842Y-6876904D01*
X128513842Y-6876904D02*
X128453365Y-6937380D01*
X128453365Y-6937380D02*
X128332413Y-6997857D01*
X128332413Y-6997857D02*
X128030032Y-6997857D01*
X128030032Y-6997857D02*
X127909080Y-6937380D01*
X127909080Y-6937380D02*
X127848603Y-6876904D01*
X127848603Y-6876904D02*
X127788127Y-6755952D01*
X127788127Y-6755952D02*
X127788127Y-6514047D01*
X127788127Y-6514047D02*
X127848603Y-6393095D01*
X127848603Y-6393095D02*
X127909080Y-6332618D01*
X127909080Y-6332618D02*
X128030032Y-6272142D01*
X215074318Y-3957856D02*
X213804318Y-3957856D01*
X213804318Y-3957856D02*
X213804318Y-4260237D01*
X213804318Y-4260237D02*
X213864794Y-4441666D01*
X213864794Y-4441666D02*
X213985746Y-4562618D01*
X213985746Y-4562618D02*
X214106699Y-4623095D01*
X214106699Y-4623095D02*
X214348603Y-4683571D01*
X214348603Y-4683571D02*
X214530032Y-4683571D01*
X214530032Y-4683571D02*
X214771937Y-4623095D01*
X214771937Y-4623095D02*
X214892889Y-4562618D01*
X214892889Y-4562618D02*
X215013842Y-4441666D01*
X215013842Y-4441666D02*
X215074318Y-4260237D01*
X215074318Y-4260237D02*
X215074318Y-3957856D01*
X215074318Y-5893095D02*
X215074318Y-5167380D01*
X215074318Y-5530237D02*
X213804318Y-5530237D01*
X213804318Y-5530237D02*
X213985746Y-5409285D01*
X213985746Y-5409285D02*
X214106699Y-5288333D01*
X214106699Y-5288333D02*
X214167175Y-5167380D01*
X213804318Y-7042142D02*
X213804318Y-6437380D01*
X213804318Y-6437380D02*
X214409080Y-6376904D01*
X214409080Y-6376904D02*
X214348603Y-6437380D01*
X214348603Y-6437380D02*
X214288127Y-6558333D01*
X214288127Y-6558333D02*
X214288127Y-6860714D01*
X214288127Y-6860714D02*
X214348603Y-6981666D01*
X214348603Y-6981666D02*
X214409080Y-7042142D01*
X214409080Y-7042142D02*
X214530032Y-7102619D01*
X214530032Y-7102619D02*
X214832413Y-7102619D01*
X214832413Y-7102619D02*
X214953365Y-7042142D01*
X214953365Y-7042142D02*
X215013842Y-6981666D01*
X215013842Y-6981666D02*
X215074318Y-6860714D01*
X215074318Y-6860714D02*
X215074318Y-6558333D01*
X215074318Y-6558333D02*
X215013842Y-6437380D01*
X215013842Y-6437380D02*
X214953365Y-6376904D01*
D12*
X52659580Y-21833333D02*
X52707200Y-21785714D01*
X52707200Y-21785714D02*
X52754819Y-21642857D01*
X52754819Y-21642857D02*
X52754819Y-21547619D01*
X52754819Y-21547619D02*
X52707200Y-21404762D01*
X52707200Y-21404762D02*
X52611961Y-21309524D01*
X52611961Y-21309524D02*
X52516723Y-21261905D01*
X52516723Y-21261905D02*
X52326247Y-21214286D01*
X52326247Y-21214286D02*
X52183390Y-21214286D01*
X52183390Y-21214286D02*
X51992914Y-21261905D01*
X51992914Y-21261905D02*
X51897676Y-21309524D01*
X51897676Y-21309524D02*
X51802438Y-21404762D01*
X51802438Y-21404762D02*
X51754819Y-21547619D01*
X51754819Y-21547619D02*
X51754819Y-21642857D01*
X51754819Y-21642857D02*
X51802438Y-21785714D01*
X51802438Y-21785714D02*
X51850057Y-21833333D01*
X51754819Y-22166667D02*
X51754819Y-22833333D01*
X51754819Y-22833333D02*
X52754819Y-22404762D01*
X134092857Y-37924819D02*
X134426190Y-37448628D01*
X134664285Y-37924819D02*
X134664285Y-36924819D01*
X134664285Y-36924819D02*
X134283333Y-36924819D01*
X134283333Y-36924819D02*
X134188095Y-36972438D01*
X134188095Y-36972438D02*
X134140476Y-37020057D01*
X134140476Y-37020057D02*
X134092857Y-37115295D01*
X134092857Y-37115295D02*
X134092857Y-37258152D01*
X134092857Y-37258152D02*
X134140476Y-37353390D01*
X134140476Y-37353390D02*
X134188095Y-37401009D01*
X134188095Y-37401009D02*
X134283333Y-37448628D01*
X134283333Y-37448628D02*
X134664285Y-37448628D01*
X133711904Y-37020057D02*
X133664285Y-36972438D01*
X133664285Y-36972438D02*
X133569047Y-36924819D01*
X133569047Y-36924819D02*
X133330952Y-36924819D01*
X133330952Y-36924819D02*
X133235714Y-36972438D01*
X133235714Y-36972438D02*
X133188095Y-37020057D01*
X133188095Y-37020057D02*
X133140476Y-37115295D01*
X133140476Y-37115295D02*
X133140476Y-37210533D01*
X133140476Y-37210533D02*
X133188095Y-37353390D01*
X133188095Y-37353390D02*
X133759523Y-37924819D01*
X133759523Y-37924819D02*
X133140476Y-37924819D01*
X132569047Y-37353390D02*
X132664285Y-37305771D01*
X132664285Y-37305771D02*
X132711904Y-37258152D01*
X132711904Y-37258152D02*
X132759523Y-37162914D01*
X132759523Y-37162914D02*
X132759523Y-37115295D01*
X132759523Y-37115295D02*
X132711904Y-37020057D01*
X132711904Y-37020057D02*
X132664285Y-36972438D01*
X132664285Y-36972438D02*
X132569047Y-36924819D01*
X132569047Y-36924819D02*
X132378571Y-36924819D01*
X132378571Y-36924819D02*
X132283333Y-36972438D01*
X132283333Y-36972438D02*
X132235714Y-37020057D01*
X132235714Y-37020057D02*
X132188095Y-37115295D01*
X132188095Y-37115295D02*
X132188095Y-37162914D01*
X132188095Y-37162914D02*
X132235714Y-37258152D01*
X132235714Y-37258152D02*
X132283333Y-37305771D01*
X132283333Y-37305771D02*
X132378571Y-37353390D01*
X132378571Y-37353390D02*
X132569047Y-37353390D01*
X132569047Y-37353390D02*
X132664285Y-37401009D01*
X132664285Y-37401009D02*
X132711904Y-37448628D01*
X132711904Y-37448628D02*
X132759523Y-37543866D01*
X132759523Y-37543866D02*
X132759523Y-37734342D01*
X132759523Y-37734342D02*
X132711904Y-37829580D01*
X132711904Y-37829580D02*
X132664285Y-37877200D01*
X132664285Y-37877200D02*
X132569047Y-37924819D01*
X132569047Y-37924819D02*
X132378571Y-37924819D01*
X132378571Y-37924819D02*
X132283333Y-37877200D01*
X132283333Y-37877200D02*
X132235714Y-37829580D01*
X132235714Y-37829580D02*
X132188095Y-37734342D01*
X132188095Y-37734342D02*
X132188095Y-37543866D01*
X132188095Y-37543866D02*
X132235714Y-37448628D01*
X132235714Y-37448628D02*
X132283333Y-37401009D01*
X132283333Y-37401009D02*
X132378571Y-37353390D01*
X80159580Y-16357142D02*
X80207200Y-16309523D01*
X80207200Y-16309523D02*
X80254819Y-16166666D01*
X80254819Y-16166666D02*
X80254819Y-16071428D01*
X80254819Y-16071428D02*
X80207200Y-15928571D01*
X80207200Y-15928571D02*
X80111961Y-15833333D01*
X80111961Y-15833333D02*
X80016723Y-15785714D01*
X80016723Y-15785714D02*
X79826247Y-15738095D01*
X79826247Y-15738095D02*
X79683390Y-15738095D01*
X79683390Y-15738095D02*
X79492914Y-15785714D01*
X79492914Y-15785714D02*
X79397676Y-15833333D01*
X79397676Y-15833333D02*
X79302438Y-15928571D01*
X79302438Y-15928571D02*
X79254819Y-16071428D01*
X79254819Y-16071428D02*
X79254819Y-16166666D01*
X79254819Y-16166666D02*
X79302438Y-16309523D01*
X79302438Y-16309523D02*
X79350057Y-16357142D01*
X80254819Y-17309523D02*
X80254819Y-16738095D01*
X80254819Y-17023809D02*
X79254819Y-17023809D01*
X79254819Y-17023809D02*
X79397676Y-16928571D01*
X79397676Y-16928571D02*
X79492914Y-16833333D01*
X79492914Y-16833333D02*
X79540533Y-16738095D01*
X80254819Y-18261904D02*
X80254819Y-17690476D01*
X80254819Y-17976190D02*
X79254819Y-17976190D01*
X79254819Y-17976190D02*
X79397676Y-17880952D01*
X79397676Y-17880952D02*
X79492914Y-17785714D01*
X79492914Y-17785714D02*
X79540533Y-17690476D01*
X240705357Y-10559580D02*
X240752976Y-10607200D01*
X240752976Y-10607200D02*
X240895833Y-10654819D01*
X240895833Y-10654819D02*
X240991071Y-10654819D01*
X240991071Y-10654819D02*
X241133928Y-10607200D01*
X241133928Y-10607200D02*
X241229166Y-10511961D01*
X241229166Y-10511961D02*
X241276785Y-10416723D01*
X241276785Y-10416723D02*
X241324404Y-10226247D01*
X241324404Y-10226247D02*
X241324404Y-10083390D01*
X241324404Y-10083390D02*
X241276785Y-9892914D01*
X241276785Y-9892914D02*
X241229166Y-9797676D01*
X241229166Y-9797676D02*
X241133928Y-9702438D01*
X241133928Y-9702438D02*
X240991071Y-9654819D01*
X240991071Y-9654819D02*
X240895833Y-9654819D01*
X240895833Y-9654819D02*
X240752976Y-9702438D01*
X240752976Y-9702438D02*
X240705357Y-9750057D01*
X240372023Y-9654819D02*
X239705357Y-9654819D01*
X239705357Y-9654819D02*
X240133928Y-10654819D01*
X239419642Y-9654819D02*
X238800595Y-9654819D01*
X238800595Y-9654819D02*
X239133928Y-10035771D01*
X239133928Y-10035771D02*
X238991071Y-10035771D01*
X238991071Y-10035771D02*
X238895833Y-10083390D01*
X238895833Y-10083390D02*
X238848214Y-10131009D01*
X238848214Y-10131009D02*
X238800595Y-10226247D01*
X238800595Y-10226247D02*
X238800595Y-10464342D01*
X238800595Y-10464342D02*
X238848214Y-10559580D01*
X238848214Y-10559580D02*
X238895833Y-10607200D01*
X238895833Y-10607200D02*
X238991071Y-10654819D01*
X238991071Y-10654819D02*
X239276785Y-10654819D01*
X239276785Y-10654819D02*
X239372023Y-10607200D01*
X239372023Y-10607200D02*
X239419642Y-10559580D01*
X215642857Y-35859580D02*
X215690476Y-35907200D01*
X215690476Y-35907200D02*
X215833333Y-35954819D01*
X215833333Y-35954819D02*
X215928571Y-35954819D01*
X215928571Y-35954819D02*
X216071428Y-35907200D01*
X216071428Y-35907200D02*
X216166666Y-35811961D01*
X216166666Y-35811961D02*
X216214285Y-35716723D01*
X216214285Y-35716723D02*
X216261904Y-35526247D01*
X216261904Y-35526247D02*
X216261904Y-35383390D01*
X216261904Y-35383390D02*
X216214285Y-35192914D01*
X216214285Y-35192914D02*
X216166666Y-35097676D01*
X216166666Y-35097676D02*
X216071428Y-35002438D01*
X216071428Y-35002438D02*
X215928571Y-34954819D01*
X215928571Y-34954819D02*
X215833333Y-34954819D01*
X215833333Y-34954819D02*
X215690476Y-35002438D01*
X215690476Y-35002438D02*
X215642857Y-35050057D01*
X214738095Y-34954819D02*
X215214285Y-34954819D01*
X215214285Y-34954819D02*
X215261904Y-35431009D01*
X215261904Y-35431009D02*
X215214285Y-35383390D01*
X215214285Y-35383390D02*
X215119047Y-35335771D01*
X215119047Y-35335771D02*
X214880952Y-35335771D01*
X214880952Y-35335771D02*
X214785714Y-35383390D01*
X214785714Y-35383390D02*
X214738095Y-35431009D01*
X214738095Y-35431009D02*
X214690476Y-35526247D01*
X214690476Y-35526247D02*
X214690476Y-35764342D01*
X214690476Y-35764342D02*
X214738095Y-35859580D01*
X214738095Y-35859580D02*
X214785714Y-35907200D01*
X214785714Y-35907200D02*
X214880952Y-35954819D01*
X214880952Y-35954819D02*
X215119047Y-35954819D01*
X215119047Y-35954819D02*
X215214285Y-35907200D01*
X215214285Y-35907200D02*
X215261904Y-35859580D01*
X214071428Y-34954819D02*
X213976190Y-34954819D01*
X213976190Y-34954819D02*
X213880952Y-35002438D01*
X213880952Y-35002438D02*
X213833333Y-35050057D01*
X213833333Y-35050057D02*
X213785714Y-35145295D01*
X213785714Y-35145295D02*
X213738095Y-35335771D01*
X213738095Y-35335771D02*
X213738095Y-35573866D01*
X213738095Y-35573866D02*
X213785714Y-35764342D01*
X213785714Y-35764342D02*
X213833333Y-35859580D01*
X213833333Y-35859580D02*
X213880952Y-35907200D01*
X213880952Y-35907200D02*
X213976190Y-35954819D01*
X213976190Y-35954819D02*
X214071428Y-35954819D01*
X214071428Y-35954819D02*
X214166666Y-35907200D01*
X214166666Y-35907200D02*
X214214285Y-35859580D01*
X214214285Y-35859580D02*
X214261904Y-35764342D01*
X214261904Y-35764342D02*
X214309523Y-35573866D01*
X214309523Y-35573866D02*
X214309523Y-35335771D01*
X214309523Y-35335771D02*
X214261904Y-35145295D01*
X214261904Y-35145295D02*
X214214285Y-35050057D01*
X214214285Y-35050057D02*
X214166666Y-35002438D01*
X214166666Y-35002438D02*
X214071428Y-34954819D01*
X17080357Y-13859580D02*
X17127976Y-13907200D01*
X17127976Y-13907200D02*
X17270833Y-13954819D01*
X17270833Y-13954819D02*
X17366071Y-13954819D01*
X17366071Y-13954819D02*
X17508928Y-13907200D01*
X17508928Y-13907200D02*
X17604166Y-13811961D01*
X17604166Y-13811961D02*
X17651785Y-13716723D01*
X17651785Y-13716723D02*
X17699404Y-13526247D01*
X17699404Y-13526247D02*
X17699404Y-13383390D01*
X17699404Y-13383390D02*
X17651785Y-13192914D01*
X17651785Y-13192914D02*
X17604166Y-13097676D01*
X17604166Y-13097676D02*
X17508928Y-13002438D01*
X17508928Y-13002438D02*
X17366071Y-12954819D01*
X17366071Y-12954819D02*
X17270833Y-12954819D01*
X17270833Y-12954819D02*
X17127976Y-13002438D01*
X17127976Y-13002438D02*
X17080357Y-13050057D01*
X16699404Y-13050057D02*
X16651785Y-13002438D01*
X16651785Y-13002438D02*
X16556547Y-12954819D01*
X16556547Y-12954819D02*
X16318452Y-12954819D01*
X16318452Y-12954819D02*
X16223214Y-13002438D01*
X16223214Y-13002438D02*
X16175595Y-13050057D01*
X16175595Y-13050057D02*
X16127976Y-13145295D01*
X16127976Y-13145295D02*
X16127976Y-13240533D01*
X16127976Y-13240533D02*
X16175595Y-13383390D01*
X16175595Y-13383390D02*
X16747023Y-13954819D01*
X16747023Y-13954819D02*
X16127976Y-13954819D01*
X15556547Y-13383390D02*
X15651785Y-13335771D01*
X15651785Y-13335771D02*
X15699404Y-13288152D01*
X15699404Y-13288152D02*
X15747023Y-13192914D01*
X15747023Y-13192914D02*
X15747023Y-13145295D01*
X15747023Y-13145295D02*
X15699404Y-13050057D01*
X15699404Y-13050057D02*
X15651785Y-13002438D01*
X15651785Y-13002438D02*
X15556547Y-12954819D01*
X15556547Y-12954819D02*
X15366071Y-12954819D01*
X15366071Y-12954819D02*
X15270833Y-13002438D01*
X15270833Y-13002438D02*
X15223214Y-13050057D01*
X15223214Y-13050057D02*
X15175595Y-13145295D01*
X15175595Y-13145295D02*
X15175595Y-13192914D01*
X15175595Y-13192914D02*
X15223214Y-13288152D01*
X15223214Y-13288152D02*
X15270833Y-13335771D01*
X15270833Y-13335771D02*
X15366071Y-13383390D01*
X15366071Y-13383390D02*
X15556547Y-13383390D01*
X15556547Y-13383390D02*
X15651785Y-13431009D01*
X15651785Y-13431009D02*
X15699404Y-13478628D01*
X15699404Y-13478628D02*
X15747023Y-13573866D01*
X15747023Y-13573866D02*
X15747023Y-13764342D01*
X15747023Y-13764342D02*
X15699404Y-13859580D01*
X15699404Y-13859580D02*
X15651785Y-13907200D01*
X15651785Y-13907200D02*
X15556547Y-13954819D01*
X15556547Y-13954819D02*
X15366071Y-13954819D01*
X15366071Y-13954819D02*
X15270833Y-13907200D01*
X15270833Y-13907200D02*
X15223214Y-13859580D01*
X15223214Y-13859580D02*
X15175595Y-13764342D01*
X15175595Y-13764342D02*
X15175595Y-13573866D01*
X15175595Y-13573866D02*
X15223214Y-13478628D01*
X15223214Y-13478628D02*
X15270833Y-13431009D01*
X15270833Y-13431009D02*
X15366071Y-13383390D01*
D13*
X129778095Y-37804318D02*
X128931428Y-37804318D01*
X128931428Y-37804318D02*
X129778095Y-39074318D01*
X129778095Y-39074318D02*
X128931428Y-39074318D01*
X127782380Y-39074318D02*
X128508095Y-39074318D01*
X128145238Y-39074318D02*
X128145238Y-37804318D01*
X128145238Y-37804318D02*
X128266190Y-37985746D01*
X128266190Y-37985746D02*
X128387142Y-38106699D01*
X128387142Y-38106699D02*
X128508095Y-38167175D01*
D12*
X80359580Y-20833333D02*
X80407200Y-20785714D01*
X80407200Y-20785714D02*
X80454819Y-20642857D01*
X80454819Y-20642857D02*
X80454819Y-20547619D01*
X80454819Y-20547619D02*
X80407200Y-20404762D01*
X80407200Y-20404762D02*
X80311961Y-20309524D01*
X80311961Y-20309524D02*
X80216723Y-20261905D01*
X80216723Y-20261905D02*
X80026247Y-20214286D01*
X80026247Y-20214286D02*
X79883390Y-20214286D01*
X79883390Y-20214286D02*
X79692914Y-20261905D01*
X79692914Y-20261905D02*
X79597676Y-20309524D01*
X79597676Y-20309524D02*
X79502438Y-20404762D01*
X79502438Y-20404762D02*
X79454819Y-20547619D01*
X79454819Y-20547619D02*
X79454819Y-20642857D01*
X79454819Y-20642857D02*
X79502438Y-20785714D01*
X79502438Y-20785714D02*
X79550057Y-20833333D01*
X79454819Y-21738095D02*
X79454819Y-21261905D01*
X79454819Y-21261905D02*
X79931009Y-21214286D01*
X79931009Y-21214286D02*
X79883390Y-21261905D01*
X79883390Y-21261905D02*
X79835771Y-21357143D01*
X79835771Y-21357143D02*
X79835771Y-21595238D01*
X79835771Y-21595238D02*
X79883390Y-21690476D01*
X79883390Y-21690476D02*
X79931009Y-21738095D01*
X79931009Y-21738095D02*
X80026247Y-21785714D01*
X80026247Y-21785714D02*
X80264342Y-21785714D01*
X80264342Y-21785714D02*
X80359580Y-21738095D01*
X80359580Y-21738095D02*
X80407200Y-21690476D01*
X80407200Y-21690476D02*
X80454819Y-21595238D01*
X80454819Y-21595238D02*
X80454819Y-21357143D01*
X80454819Y-21357143D02*
X80407200Y-21261905D01*
X80407200Y-21261905D02*
X80359580Y-21214286D01*
D13*
X148586818Y-10067856D02*
X147316818Y-10067856D01*
X147316818Y-10067856D02*
X147316818Y-10551666D01*
X147316818Y-10551666D02*
X147377294Y-10672618D01*
X147377294Y-10672618D02*
X147437770Y-10733095D01*
X147437770Y-10733095D02*
X147558722Y-10793571D01*
X147558722Y-10793571D02*
X147740151Y-10793571D01*
X147740151Y-10793571D02*
X147861103Y-10733095D01*
X147861103Y-10733095D02*
X147921580Y-10672618D01*
X147921580Y-10672618D02*
X147982056Y-10551666D01*
X147982056Y-10551666D02*
X147982056Y-10067856D01*
X148526342Y-11277380D02*
X148586818Y-11458809D01*
X148586818Y-11458809D02*
X148586818Y-11761190D01*
X148586818Y-11761190D02*
X148526342Y-11882142D01*
X148526342Y-11882142D02*
X148465865Y-11942618D01*
X148465865Y-11942618D02*
X148344913Y-12003095D01*
X148344913Y-12003095D02*
X148223961Y-12003095D01*
X148223961Y-12003095D02*
X148103008Y-11942618D01*
X148103008Y-11942618D02*
X148042532Y-11882142D01*
X148042532Y-11882142D02*
X147982056Y-11761190D01*
X147982056Y-11761190D02*
X147921580Y-11519285D01*
X147921580Y-11519285D02*
X147861103Y-11398333D01*
X147861103Y-11398333D02*
X147800627Y-11337856D01*
X147800627Y-11337856D02*
X147679675Y-11277380D01*
X147679675Y-11277380D02*
X147558722Y-11277380D01*
X147558722Y-11277380D02*
X147437770Y-11337856D01*
X147437770Y-11337856D02*
X147377294Y-11398333D01*
X147377294Y-11398333D02*
X147316818Y-11519285D01*
X147316818Y-11519285D02*
X147316818Y-11821666D01*
X147316818Y-11821666D02*
X147377294Y-12003095D01*
X147740151Y-13091666D02*
X148586818Y-13091666D01*
X147256342Y-12789285D02*
X148163484Y-12486904D01*
X148163484Y-12486904D02*
X148163484Y-13273095D01*
D12*
X160142857Y-15659580D02*
X160190476Y-15707200D01*
X160190476Y-15707200D02*
X160333333Y-15754819D01*
X160333333Y-15754819D02*
X160428571Y-15754819D01*
X160428571Y-15754819D02*
X160571428Y-15707200D01*
X160571428Y-15707200D02*
X160666666Y-15611961D01*
X160666666Y-15611961D02*
X160714285Y-15516723D01*
X160714285Y-15516723D02*
X160761904Y-15326247D01*
X160761904Y-15326247D02*
X160761904Y-15183390D01*
X160761904Y-15183390D02*
X160714285Y-14992914D01*
X160714285Y-14992914D02*
X160666666Y-14897676D01*
X160666666Y-14897676D02*
X160571428Y-14802438D01*
X160571428Y-14802438D02*
X160428571Y-14754819D01*
X160428571Y-14754819D02*
X160333333Y-14754819D01*
X160333333Y-14754819D02*
X160190476Y-14802438D01*
X160190476Y-14802438D02*
X160142857Y-14850057D01*
X159285714Y-15088152D02*
X159285714Y-15754819D01*
X159523809Y-14707200D02*
X159761904Y-15421485D01*
X159761904Y-15421485D02*
X159142857Y-15421485D01*
X158333333Y-15088152D02*
X158333333Y-15754819D01*
X158571428Y-14707200D02*
X158809523Y-15421485D01*
X158809523Y-15421485D02*
X158190476Y-15421485D01*
X221642857Y-35859580D02*
X221690476Y-35907200D01*
X221690476Y-35907200D02*
X221833333Y-35954819D01*
X221833333Y-35954819D02*
X221928571Y-35954819D01*
X221928571Y-35954819D02*
X222071428Y-35907200D01*
X222071428Y-35907200D02*
X222166666Y-35811961D01*
X222166666Y-35811961D02*
X222214285Y-35716723D01*
X222214285Y-35716723D02*
X222261904Y-35526247D01*
X222261904Y-35526247D02*
X222261904Y-35383390D01*
X222261904Y-35383390D02*
X222214285Y-35192914D01*
X222214285Y-35192914D02*
X222166666Y-35097676D01*
X222166666Y-35097676D02*
X222071428Y-35002438D01*
X222071428Y-35002438D02*
X221928571Y-34954819D01*
X221928571Y-34954819D02*
X221833333Y-34954819D01*
X221833333Y-34954819D02*
X221690476Y-35002438D01*
X221690476Y-35002438D02*
X221642857Y-35050057D01*
X220785714Y-34954819D02*
X220976190Y-34954819D01*
X220976190Y-34954819D02*
X221071428Y-35002438D01*
X221071428Y-35002438D02*
X221119047Y-35050057D01*
X221119047Y-35050057D02*
X221214285Y-35192914D01*
X221214285Y-35192914D02*
X221261904Y-35383390D01*
X221261904Y-35383390D02*
X221261904Y-35764342D01*
X221261904Y-35764342D02*
X221214285Y-35859580D01*
X221214285Y-35859580D02*
X221166666Y-35907200D01*
X221166666Y-35907200D02*
X221071428Y-35954819D01*
X221071428Y-35954819D02*
X220880952Y-35954819D01*
X220880952Y-35954819D02*
X220785714Y-35907200D01*
X220785714Y-35907200D02*
X220738095Y-35859580D01*
X220738095Y-35859580D02*
X220690476Y-35764342D01*
X220690476Y-35764342D02*
X220690476Y-35526247D01*
X220690476Y-35526247D02*
X220738095Y-35431009D01*
X220738095Y-35431009D02*
X220785714Y-35383390D01*
X220785714Y-35383390D02*
X220880952Y-35335771D01*
X220880952Y-35335771D02*
X221071428Y-35335771D01*
X221071428Y-35335771D02*
X221166666Y-35383390D01*
X221166666Y-35383390D02*
X221214285Y-35431009D01*
X221214285Y-35431009D02*
X221261904Y-35526247D01*
X220357142Y-34954819D02*
X219738095Y-34954819D01*
X219738095Y-34954819D02*
X220071428Y-35335771D01*
X220071428Y-35335771D02*
X219928571Y-35335771D01*
X219928571Y-35335771D02*
X219833333Y-35383390D01*
X219833333Y-35383390D02*
X219785714Y-35431009D01*
X219785714Y-35431009D02*
X219738095Y-35526247D01*
X219738095Y-35526247D02*
X219738095Y-35764342D01*
X219738095Y-35764342D02*
X219785714Y-35859580D01*
X219785714Y-35859580D02*
X219833333Y-35907200D01*
X219833333Y-35907200D02*
X219928571Y-35954819D01*
X219928571Y-35954819D02*
X220214285Y-35954819D01*
X220214285Y-35954819D02*
X220309523Y-35907200D01*
X220309523Y-35907200D02*
X220357142Y-35859580D01*
X69142857Y-10559580D02*
X69190476Y-10607200D01*
X69190476Y-10607200D02*
X69333333Y-10654819D01*
X69333333Y-10654819D02*
X69428571Y-10654819D01*
X69428571Y-10654819D02*
X69571428Y-10607200D01*
X69571428Y-10607200D02*
X69666666Y-10511961D01*
X69666666Y-10511961D02*
X69714285Y-10416723D01*
X69714285Y-10416723D02*
X69761904Y-10226247D01*
X69761904Y-10226247D02*
X69761904Y-10083390D01*
X69761904Y-10083390D02*
X69714285Y-9892914D01*
X69714285Y-9892914D02*
X69666666Y-9797676D01*
X69666666Y-9797676D02*
X69571428Y-9702438D01*
X69571428Y-9702438D02*
X69428571Y-9654819D01*
X69428571Y-9654819D02*
X69333333Y-9654819D01*
X69333333Y-9654819D02*
X69190476Y-9702438D01*
X69190476Y-9702438D02*
X69142857Y-9750057D01*
X68190476Y-10654819D02*
X68761904Y-10654819D01*
X68476190Y-10654819D02*
X68476190Y-9654819D01*
X68476190Y-9654819D02*
X68571428Y-9797676D01*
X68571428Y-9797676D02*
X68666666Y-9892914D01*
X68666666Y-9892914D02*
X68761904Y-9940533D01*
X67857142Y-9654819D02*
X67238095Y-9654819D01*
X67238095Y-9654819D02*
X67571428Y-10035771D01*
X67571428Y-10035771D02*
X67428571Y-10035771D01*
X67428571Y-10035771D02*
X67333333Y-10083390D01*
X67333333Y-10083390D02*
X67285714Y-10131009D01*
X67285714Y-10131009D02*
X67238095Y-10226247D01*
X67238095Y-10226247D02*
X67238095Y-10464342D01*
X67238095Y-10464342D02*
X67285714Y-10559580D01*
X67285714Y-10559580D02*
X67333333Y-10607200D01*
X67333333Y-10607200D02*
X67428571Y-10654819D01*
X67428571Y-10654819D02*
X67714285Y-10654819D01*
X67714285Y-10654819D02*
X67809523Y-10607200D01*
X67809523Y-10607200D02*
X67857142Y-10559580D01*
X104359580Y-16857142D02*
X104407200Y-16809523D01*
X104407200Y-16809523D02*
X104454819Y-16666666D01*
X104454819Y-16666666D02*
X104454819Y-16571428D01*
X104454819Y-16571428D02*
X104407200Y-16428571D01*
X104407200Y-16428571D02*
X104311961Y-16333333D01*
X104311961Y-16333333D02*
X104216723Y-16285714D01*
X104216723Y-16285714D02*
X104026247Y-16238095D01*
X104026247Y-16238095D02*
X103883390Y-16238095D01*
X103883390Y-16238095D02*
X103692914Y-16285714D01*
X103692914Y-16285714D02*
X103597676Y-16333333D01*
X103597676Y-16333333D02*
X103502438Y-16428571D01*
X103502438Y-16428571D02*
X103454819Y-16571428D01*
X103454819Y-16571428D02*
X103454819Y-16666666D01*
X103454819Y-16666666D02*
X103502438Y-16809523D01*
X103502438Y-16809523D02*
X103550057Y-16857142D01*
X103550057Y-17238095D02*
X103502438Y-17285714D01*
X103502438Y-17285714D02*
X103454819Y-17380952D01*
X103454819Y-17380952D02*
X103454819Y-17619047D01*
X103454819Y-17619047D02*
X103502438Y-17714285D01*
X103502438Y-17714285D02*
X103550057Y-17761904D01*
X103550057Y-17761904D02*
X103645295Y-17809523D01*
X103645295Y-17809523D02*
X103740533Y-17809523D01*
X103740533Y-17809523D02*
X103883390Y-17761904D01*
X103883390Y-17761904D02*
X104454819Y-17190476D01*
X104454819Y-17190476D02*
X104454819Y-17809523D01*
X104454819Y-18761904D02*
X104454819Y-18190476D01*
X104454819Y-18476190D02*
X103454819Y-18476190D01*
X103454819Y-18476190D02*
X103597676Y-18380952D01*
X103597676Y-18380952D02*
X103692914Y-18285714D01*
X103692914Y-18285714D02*
X103740533Y-18190476D01*
X159892857Y-35859580D02*
X159940476Y-35907200D01*
X159940476Y-35907200D02*
X160083333Y-35954819D01*
X160083333Y-35954819D02*
X160178571Y-35954819D01*
X160178571Y-35954819D02*
X160321428Y-35907200D01*
X160321428Y-35907200D02*
X160416666Y-35811961D01*
X160416666Y-35811961D02*
X160464285Y-35716723D01*
X160464285Y-35716723D02*
X160511904Y-35526247D01*
X160511904Y-35526247D02*
X160511904Y-35383390D01*
X160511904Y-35383390D02*
X160464285Y-35192914D01*
X160464285Y-35192914D02*
X160416666Y-35097676D01*
X160416666Y-35097676D02*
X160321428Y-35002438D01*
X160321428Y-35002438D02*
X160178571Y-34954819D01*
X160178571Y-34954819D02*
X160083333Y-34954819D01*
X160083333Y-34954819D02*
X159940476Y-35002438D01*
X159940476Y-35002438D02*
X159892857Y-35050057D01*
X159416666Y-35954819D02*
X159226190Y-35954819D01*
X159226190Y-35954819D02*
X159130952Y-35907200D01*
X159130952Y-35907200D02*
X159083333Y-35859580D01*
X159083333Y-35859580D02*
X158988095Y-35716723D01*
X158988095Y-35716723D02*
X158940476Y-35526247D01*
X158940476Y-35526247D02*
X158940476Y-35145295D01*
X158940476Y-35145295D02*
X158988095Y-35050057D01*
X158988095Y-35050057D02*
X159035714Y-35002438D01*
X159035714Y-35002438D02*
X159130952Y-34954819D01*
X159130952Y-34954819D02*
X159321428Y-34954819D01*
X159321428Y-34954819D02*
X159416666Y-35002438D01*
X159416666Y-35002438D02*
X159464285Y-35050057D01*
X159464285Y-35050057D02*
X159511904Y-35145295D01*
X159511904Y-35145295D02*
X159511904Y-35383390D01*
X159511904Y-35383390D02*
X159464285Y-35478628D01*
X159464285Y-35478628D02*
X159416666Y-35526247D01*
X159416666Y-35526247D02*
X159321428Y-35573866D01*
X159321428Y-35573866D02*
X159130952Y-35573866D01*
X159130952Y-35573866D02*
X159035714Y-35526247D01*
X159035714Y-35526247D02*
X158988095Y-35478628D01*
X158988095Y-35478628D02*
X158940476Y-35383390D01*
X158321428Y-34954819D02*
X158226190Y-34954819D01*
X158226190Y-34954819D02*
X158130952Y-35002438D01*
X158130952Y-35002438D02*
X158083333Y-35050057D01*
X158083333Y-35050057D02*
X158035714Y-35145295D01*
X158035714Y-35145295D02*
X157988095Y-35335771D01*
X157988095Y-35335771D02*
X157988095Y-35573866D01*
X157988095Y-35573866D02*
X158035714Y-35764342D01*
X158035714Y-35764342D02*
X158083333Y-35859580D01*
X158083333Y-35859580D02*
X158130952Y-35907200D01*
X158130952Y-35907200D02*
X158226190Y-35954819D01*
X158226190Y-35954819D02*
X158321428Y-35954819D01*
X158321428Y-35954819D02*
X158416666Y-35907200D01*
X158416666Y-35907200D02*
X158464285Y-35859580D01*
X158464285Y-35859580D02*
X158511904Y-35764342D01*
X158511904Y-35764342D02*
X158559523Y-35573866D01*
X158559523Y-35573866D02*
X158559523Y-35335771D01*
X158559523Y-35335771D02*
X158511904Y-35145295D01*
X158511904Y-35145295D02*
X158464285Y-35050057D01*
X158464285Y-35050057D02*
X158416666Y-35002438D01*
X158416666Y-35002438D02*
X158321428Y-34954819D01*
D13*
X203771818Y-10067856D02*
X202501818Y-10067856D01*
X202501818Y-10067856D02*
X202501818Y-10551666D01*
X202501818Y-10551666D02*
X202562294Y-10672618D01*
X202562294Y-10672618D02*
X202622770Y-10733095D01*
X202622770Y-10733095D02*
X202743722Y-10793571D01*
X202743722Y-10793571D02*
X202925151Y-10793571D01*
X202925151Y-10793571D02*
X203046103Y-10733095D01*
X203046103Y-10733095D02*
X203106580Y-10672618D01*
X203106580Y-10672618D02*
X203167056Y-10551666D01*
X203167056Y-10551666D02*
X203167056Y-10067856D01*
X203711342Y-11277380D02*
X203771818Y-11458809D01*
X203771818Y-11458809D02*
X203771818Y-11761190D01*
X203771818Y-11761190D02*
X203711342Y-11882142D01*
X203711342Y-11882142D02*
X203650865Y-11942618D01*
X203650865Y-11942618D02*
X203529913Y-12003095D01*
X203529913Y-12003095D02*
X203408961Y-12003095D01*
X203408961Y-12003095D02*
X203288008Y-11942618D01*
X203288008Y-11942618D02*
X203227532Y-11882142D01*
X203227532Y-11882142D02*
X203167056Y-11761190D01*
X203167056Y-11761190D02*
X203106580Y-11519285D01*
X203106580Y-11519285D02*
X203046103Y-11398333D01*
X203046103Y-11398333D02*
X202985627Y-11337856D01*
X202985627Y-11337856D02*
X202864675Y-11277380D01*
X202864675Y-11277380D02*
X202743722Y-11277380D01*
X202743722Y-11277380D02*
X202622770Y-11337856D01*
X202622770Y-11337856D02*
X202562294Y-11398333D01*
X202562294Y-11398333D02*
X202501818Y-11519285D01*
X202501818Y-11519285D02*
X202501818Y-11821666D01*
X202501818Y-11821666D02*
X202562294Y-12003095D01*
X202501818Y-13152142D02*
X202501818Y-12547380D01*
X202501818Y-12547380D02*
X203106580Y-12486904D01*
X203106580Y-12486904D02*
X203046103Y-12547380D01*
X203046103Y-12547380D02*
X202985627Y-12668333D01*
X202985627Y-12668333D02*
X202985627Y-12970714D01*
X202985627Y-12970714D02*
X203046103Y-13091666D01*
X203046103Y-13091666D02*
X203106580Y-13152142D01*
X203106580Y-13152142D02*
X203227532Y-13212619D01*
X203227532Y-13212619D02*
X203529913Y-13212619D01*
X203529913Y-13212619D02*
X203650865Y-13152142D01*
X203650865Y-13152142D02*
X203711342Y-13091666D01*
X203711342Y-13091666D02*
X203771818Y-12970714D01*
X203771818Y-12970714D02*
X203771818Y-12668333D01*
X203771818Y-12668333D02*
X203711342Y-12547380D01*
X203711342Y-12547380D02*
X203650865Y-12486904D01*
D12*
X158276174Y-39867036D02*
X158175159Y-39294617D01*
X158680235Y-39462975D02*
X157973128Y-38755869D01*
X157973128Y-38755869D02*
X157703754Y-39025243D01*
X157703754Y-39025243D02*
X157670082Y-39126258D01*
X157670082Y-39126258D02*
X157670082Y-39193601D01*
X157670082Y-39193601D02*
X157703754Y-39294617D01*
X157703754Y-39294617D02*
X157804769Y-39395632D01*
X157804769Y-39395632D02*
X157905785Y-39429304D01*
X157905785Y-39429304D02*
X157973128Y-39429304D01*
X157973128Y-39429304D02*
X158074143Y-39395632D01*
X158074143Y-39395632D02*
X158343517Y-39126258D01*
X157333365Y-39395632D02*
X156895632Y-39833365D01*
X156895632Y-39833365D02*
X157400708Y-39867036D01*
X157400708Y-39867036D02*
X157299693Y-39968052D01*
X157299693Y-39968052D02*
X157266021Y-40069067D01*
X157266021Y-40069067D02*
X157266021Y-40136410D01*
X157266021Y-40136410D02*
X157299693Y-40237426D01*
X157299693Y-40237426D02*
X157468052Y-40405784D01*
X157468052Y-40405784D02*
X157569067Y-40439456D01*
X157569067Y-40439456D02*
X157636411Y-40439456D01*
X157636411Y-40439456D02*
X157737426Y-40405784D01*
X157737426Y-40405784D02*
X157939456Y-40203754D01*
X157939456Y-40203754D02*
X157973128Y-40102739D01*
X157973128Y-40102739D02*
X157973128Y-40035395D01*
X156693601Y-40170082D02*
X156626258Y-40170082D01*
X156626258Y-40170082D02*
X156525243Y-40203754D01*
X156525243Y-40203754D02*
X156356884Y-40372113D01*
X156356884Y-40372113D02*
X156323212Y-40473128D01*
X156323212Y-40473128D02*
X156323212Y-40540472D01*
X156323212Y-40540472D02*
X156356884Y-40641487D01*
X156356884Y-40641487D02*
X156424227Y-40708830D01*
X156424227Y-40708830D02*
X156558914Y-40776174D01*
X156558914Y-40776174D02*
X157367036Y-40776174D01*
X157367036Y-40776174D02*
X156929304Y-41213907D01*
X191892857Y-36359580D02*
X191940476Y-36407200D01*
X191940476Y-36407200D02*
X192083333Y-36454819D01*
X192083333Y-36454819D02*
X192178571Y-36454819D01*
X192178571Y-36454819D02*
X192321428Y-36407200D01*
X192321428Y-36407200D02*
X192416666Y-36311961D01*
X192416666Y-36311961D02*
X192464285Y-36216723D01*
X192464285Y-36216723D02*
X192511904Y-36026247D01*
X192511904Y-36026247D02*
X192511904Y-35883390D01*
X192511904Y-35883390D02*
X192464285Y-35692914D01*
X192464285Y-35692914D02*
X192416666Y-35597676D01*
X192416666Y-35597676D02*
X192321428Y-35502438D01*
X192321428Y-35502438D02*
X192178571Y-35454819D01*
X192178571Y-35454819D02*
X192083333Y-35454819D01*
X192083333Y-35454819D02*
X191940476Y-35502438D01*
X191940476Y-35502438D02*
X191892857Y-35550057D01*
X191416666Y-36454819D02*
X191226190Y-36454819D01*
X191226190Y-36454819D02*
X191130952Y-36407200D01*
X191130952Y-36407200D02*
X191083333Y-36359580D01*
X191083333Y-36359580D02*
X190988095Y-36216723D01*
X190988095Y-36216723D02*
X190940476Y-36026247D01*
X190940476Y-36026247D02*
X190940476Y-35645295D01*
X190940476Y-35645295D02*
X190988095Y-35550057D01*
X190988095Y-35550057D02*
X191035714Y-35502438D01*
X191035714Y-35502438D02*
X191130952Y-35454819D01*
X191130952Y-35454819D02*
X191321428Y-35454819D01*
X191321428Y-35454819D02*
X191416666Y-35502438D01*
X191416666Y-35502438D02*
X191464285Y-35550057D01*
X191464285Y-35550057D02*
X191511904Y-35645295D01*
X191511904Y-35645295D02*
X191511904Y-35883390D01*
X191511904Y-35883390D02*
X191464285Y-35978628D01*
X191464285Y-35978628D02*
X191416666Y-36026247D01*
X191416666Y-36026247D02*
X191321428Y-36073866D01*
X191321428Y-36073866D02*
X191130952Y-36073866D01*
X191130952Y-36073866D02*
X191035714Y-36026247D01*
X191035714Y-36026247D02*
X190988095Y-35978628D01*
X190988095Y-35978628D02*
X190940476Y-35883390D01*
X190559523Y-35550057D02*
X190511904Y-35502438D01*
X190511904Y-35502438D02*
X190416666Y-35454819D01*
X190416666Y-35454819D02*
X190178571Y-35454819D01*
X190178571Y-35454819D02*
X190083333Y-35502438D01*
X190083333Y-35502438D02*
X190035714Y-35550057D01*
X190035714Y-35550057D02*
X189988095Y-35645295D01*
X189988095Y-35645295D02*
X189988095Y-35740533D01*
X189988095Y-35740533D02*
X190035714Y-35883390D01*
X190035714Y-35883390D02*
X190607142Y-36454819D01*
X190607142Y-36454819D02*
X189988095Y-36454819D01*
X122142857Y-10859580D02*
X122190476Y-10907200D01*
X122190476Y-10907200D02*
X122333333Y-10954819D01*
X122333333Y-10954819D02*
X122428571Y-10954819D01*
X122428571Y-10954819D02*
X122571428Y-10907200D01*
X122571428Y-10907200D02*
X122666666Y-10811961D01*
X122666666Y-10811961D02*
X122714285Y-10716723D01*
X122714285Y-10716723D02*
X122761904Y-10526247D01*
X122761904Y-10526247D02*
X122761904Y-10383390D01*
X122761904Y-10383390D02*
X122714285Y-10192914D01*
X122714285Y-10192914D02*
X122666666Y-10097676D01*
X122666666Y-10097676D02*
X122571428Y-10002438D01*
X122571428Y-10002438D02*
X122428571Y-9954819D01*
X122428571Y-9954819D02*
X122333333Y-9954819D01*
X122333333Y-9954819D02*
X122190476Y-10002438D01*
X122190476Y-10002438D02*
X122142857Y-10050057D01*
X121761904Y-10050057D02*
X121714285Y-10002438D01*
X121714285Y-10002438D02*
X121619047Y-9954819D01*
X121619047Y-9954819D02*
X121380952Y-9954819D01*
X121380952Y-9954819D02*
X121285714Y-10002438D01*
X121285714Y-10002438D02*
X121238095Y-10050057D01*
X121238095Y-10050057D02*
X121190476Y-10145295D01*
X121190476Y-10145295D02*
X121190476Y-10240533D01*
X121190476Y-10240533D02*
X121238095Y-10383390D01*
X121238095Y-10383390D02*
X121809523Y-10954819D01*
X121809523Y-10954819D02*
X121190476Y-10954819D01*
X120285714Y-9954819D02*
X120761904Y-9954819D01*
X120761904Y-9954819D02*
X120809523Y-10431009D01*
X120809523Y-10431009D02*
X120761904Y-10383390D01*
X120761904Y-10383390D02*
X120666666Y-10335771D01*
X120666666Y-10335771D02*
X120428571Y-10335771D01*
X120428571Y-10335771D02*
X120333333Y-10383390D01*
X120333333Y-10383390D02*
X120285714Y-10431009D01*
X120285714Y-10431009D02*
X120238095Y-10526247D01*
X120238095Y-10526247D02*
X120238095Y-10764342D01*
X120238095Y-10764342D02*
X120285714Y-10859580D01*
X120285714Y-10859580D02*
X120333333Y-10907200D01*
X120333333Y-10907200D02*
X120428571Y-10954819D01*
X120428571Y-10954819D02*
X120666666Y-10954819D01*
X120666666Y-10954819D02*
X120761904Y-10907200D01*
X120761904Y-10907200D02*
X120809523Y-10859580D01*
X153892857Y-37924819D02*
X154226190Y-37448628D01*
X154464285Y-37924819D02*
X154464285Y-36924819D01*
X154464285Y-36924819D02*
X154083333Y-36924819D01*
X154083333Y-36924819D02*
X153988095Y-36972438D01*
X153988095Y-36972438D02*
X153940476Y-37020057D01*
X153940476Y-37020057D02*
X153892857Y-37115295D01*
X153892857Y-37115295D02*
X153892857Y-37258152D01*
X153892857Y-37258152D02*
X153940476Y-37353390D01*
X153940476Y-37353390D02*
X153988095Y-37401009D01*
X153988095Y-37401009D02*
X154083333Y-37448628D01*
X154083333Y-37448628D02*
X154464285Y-37448628D01*
X153511904Y-37020057D02*
X153464285Y-36972438D01*
X153464285Y-36972438D02*
X153369047Y-36924819D01*
X153369047Y-36924819D02*
X153130952Y-36924819D01*
X153130952Y-36924819D02*
X153035714Y-36972438D01*
X153035714Y-36972438D02*
X152988095Y-37020057D01*
X152988095Y-37020057D02*
X152940476Y-37115295D01*
X152940476Y-37115295D02*
X152940476Y-37210533D01*
X152940476Y-37210533D02*
X152988095Y-37353390D01*
X152988095Y-37353390D02*
X153559523Y-37924819D01*
X153559523Y-37924819D02*
X152940476Y-37924819D01*
X152464285Y-37924819D02*
X152273809Y-37924819D01*
X152273809Y-37924819D02*
X152178571Y-37877200D01*
X152178571Y-37877200D02*
X152130952Y-37829580D01*
X152130952Y-37829580D02*
X152035714Y-37686723D01*
X152035714Y-37686723D02*
X151988095Y-37496247D01*
X151988095Y-37496247D02*
X151988095Y-37115295D01*
X151988095Y-37115295D02*
X152035714Y-37020057D01*
X152035714Y-37020057D02*
X152083333Y-36972438D01*
X152083333Y-36972438D02*
X152178571Y-36924819D01*
X152178571Y-36924819D02*
X152369047Y-36924819D01*
X152369047Y-36924819D02*
X152464285Y-36972438D01*
X152464285Y-36972438D02*
X152511904Y-37020057D01*
X152511904Y-37020057D02*
X152559523Y-37115295D01*
X152559523Y-37115295D02*
X152559523Y-37353390D01*
X152559523Y-37353390D02*
X152511904Y-37448628D01*
X152511904Y-37448628D02*
X152464285Y-37496247D01*
X152464285Y-37496247D02*
X152369047Y-37543866D01*
X152369047Y-37543866D02*
X152178571Y-37543866D01*
X152178571Y-37543866D02*
X152083333Y-37496247D01*
X152083333Y-37496247D02*
X152035714Y-37448628D01*
X152035714Y-37448628D02*
X151988095Y-37353390D01*
D13*
X61571818Y-10067856D02*
X60301818Y-10067856D01*
X60301818Y-10067856D02*
X60301818Y-10551666D01*
X60301818Y-10551666D02*
X60362294Y-10672618D01*
X60362294Y-10672618D02*
X60422770Y-10733095D01*
X60422770Y-10733095D02*
X60543722Y-10793571D01*
X60543722Y-10793571D02*
X60725151Y-10793571D01*
X60725151Y-10793571D02*
X60846103Y-10733095D01*
X60846103Y-10733095D02*
X60906580Y-10672618D01*
X60906580Y-10672618D02*
X60967056Y-10551666D01*
X60967056Y-10551666D02*
X60967056Y-10067856D01*
X61511342Y-11277380D02*
X61571818Y-11458809D01*
X61571818Y-11458809D02*
X61571818Y-11761190D01*
X61571818Y-11761190D02*
X61511342Y-11882142D01*
X61511342Y-11882142D02*
X61450865Y-11942618D01*
X61450865Y-11942618D02*
X61329913Y-12003095D01*
X61329913Y-12003095D02*
X61208961Y-12003095D01*
X61208961Y-12003095D02*
X61088008Y-11942618D01*
X61088008Y-11942618D02*
X61027532Y-11882142D01*
X61027532Y-11882142D02*
X60967056Y-11761190D01*
X60967056Y-11761190D02*
X60906580Y-11519285D01*
X60906580Y-11519285D02*
X60846103Y-11398333D01*
X60846103Y-11398333D02*
X60785627Y-11337856D01*
X60785627Y-11337856D02*
X60664675Y-11277380D01*
X60664675Y-11277380D02*
X60543722Y-11277380D01*
X60543722Y-11277380D02*
X60422770Y-11337856D01*
X60422770Y-11337856D02*
X60362294Y-11398333D01*
X60362294Y-11398333D02*
X60301818Y-11519285D01*
X60301818Y-11519285D02*
X60301818Y-11821666D01*
X60301818Y-11821666D02*
X60362294Y-12003095D01*
X61571818Y-13212619D02*
X61571818Y-12486904D01*
X61571818Y-12849761D02*
X60301818Y-12849761D01*
X60301818Y-12849761D02*
X60483246Y-12728809D01*
X60483246Y-12728809D02*
X60604199Y-12607857D01*
X60604199Y-12607857D02*
X60664675Y-12486904D01*
X235074318Y-3457856D02*
X233804318Y-3457856D01*
X233804318Y-3457856D02*
X233804318Y-3760237D01*
X233804318Y-3760237D02*
X233864794Y-3941666D01*
X233864794Y-3941666D02*
X233985746Y-4062618D01*
X233985746Y-4062618D02*
X234106699Y-4123095D01*
X234106699Y-4123095D02*
X234348603Y-4183571D01*
X234348603Y-4183571D02*
X234530032Y-4183571D01*
X234530032Y-4183571D02*
X234771937Y-4123095D01*
X234771937Y-4123095D02*
X234892889Y-4062618D01*
X234892889Y-4062618D02*
X235013842Y-3941666D01*
X235013842Y-3941666D02*
X235074318Y-3760237D01*
X235074318Y-3760237D02*
X235074318Y-3457856D01*
X235074318Y-5393095D02*
X235074318Y-4667380D01*
X235074318Y-5030237D02*
X233804318Y-5030237D01*
X233804318Y-5030237D02*
X233985746Y-4909285D01*
X233985746Y-4909285D02*
X234106699Y-4788333D01*
X234106699Y-4788333D02*
X234167175Y-4667380D01*
X234348603Y-6118809D02*
X234288127Y-5997857D01*
X234288127Y-5997857D02*
X234227651Y-5937380D01*
X234227651Y-5937380D02*
X234106699Y-5876904D01*
X234106699Y-5876904D02*
X234046222Y-5876904D01*
X234046222Y-5876904D02*
X233925270Y-5937380D01*
X233925270Y-5937380D02*
X233864794Y-5997857D01*
X233864794Y-5997857D02*
X233804318Y-6118809D01*
X233804318Y-6118809D02*
X233804318Y-6360714D01*
X233804318Y-6360714D02*
X233864794Y-6481666D01*
X233864794Y-6481666D02*
X233925270Y-6542142D01*
X233925270Y-6542142D02*
X234046222Y-6602619D01*
X234046222Y-6602619D02*
X234106699Y-6602619D01*
X234106699Y-6602619D02*
X234227651Y-6542142D01*
X234227651Y-6542142D02*
X234288127Y-6481666D01*
X234288127Y-6481666D02*
X234348603Y-6360714D01*
X234348603Y-6360714D02*
X234348603Y-6118809D01*
X234348603Y-6118809D02*
X234409080Y-5997857D01*
X234409080Y-5997857D02*
X234469556Y-5937380D01*
X234469556Y-5937380D02*
X234590508Y-5876904D01*
X234590508Y-5876904D02*
X234832413Y-5876904D01*
X234832413Y-5876904D02*
X234953365Y-5937380D01*
X234953365Y-5937380D02*
X235013842Y-5997857D01*
X235013842Y-5997857D02*
X235074318Y-6118809D01*
X235074318Y-6118809D02*
X235074318Y-6360714D01*
X235074318Y-6360714D02*
X235013842Y-6481666D01*
X235013842Y-6481666D02*
X234953365Y-6542142D01*
X234953365Y-6542142D02*
X234832413Y-6602619D01*
X234832413Y-6602619D02*
X234590508Y-6602619D01*
X234590508Y-6602619D02*
X234469556Y-6542142D01*
X234469556Y-6542142D02*
X234409080Y-6481666D01*
X234409080Y-6481666D02*
X234348603Y-6360714D01*
D12*
X20330357Y-23659580D02*
X20377976Y-23707200D01*
X20377976Y-23707200D02*
X20520833Y-23754819D01*
X20520833Y-23754819D02*
X20616071Y-23754819D01*
X20616071Y-23754819D02*
X20758928Y-23707200D01*
X20758928Y-23707200D02*
X20854166Y-23611961D01*
X20854166Y-23611961D02*
X20901785Y-23516723D01*
X20901785Y-23516723D02*
X20949404Y-23326247D01*
X20949404Y-23326247D02*
X20949404Y-23183390D01*
X20949404Y-23183390D02*
X20901785Y-22992914D01*
X20901785Y-22992914D02*
X20854166Y-22897676D01*
X20854166Y-22897676D02*
X20758928Y-22802438D01*
X20758928Y-22802438D02*
X20616071Y-22754819D01*
X20616071Y-22754819D02*
X20520833Y-22754819D01*
X20520833Y-22754819D02*
X20377976Y-22802438D01*
X20377976Y-22802438D02*
X20330357Y-22850057D01*
X19997023Y-22754819D02*
X19377976Y-22754819D01*
X19377976Y-22754819D02*
X19711309Y-23135771D01*
X19711309Y-23135771D02*
X19568452Y-23135771D01*
X19568452Y-23135771D02*
X19473214Y-23183390D01*
X19473214Y-23183390D02*
X19425595Y-23231009D01*
X19425595Y-23231009D02*
X19377976Y-23326247D01*
X19377976Y-23326247D02*
X19377976Y-23564342D01*
X19377976Y-23564342D02*
X19425595Y-23659580D01*
X19425595Y-23659580D02*
X19473214Y-23707200D01*
X19473214Y-23707200D02*
X19568452Y-23754819D01*
X19568452Y-23754819D02*
X19854166Y-23754819D01*
X19854166Y-23754819D02*
X19949404Y-23707200D01*
X19949404Y-23707200D02*
X19997023Y-23659580D01*
X18425595Y-23754819D02*
X18997023Y-23754819D01*
X18711309Y-23754819D02*
X18711309Y-22754819D01*
X18711309Y-22754819D02*
X18806547Y-22897676D01*
X18806547Y-22897676D02*
X18901785Y-22992914D01*
X18901785Y-22992914D02*
X18997023Y-23040533D01*
X104359580Y-20357142D02*
X104407200Y-20309523D01*
X104407200Y-20309523D02*
X104454819Y-20166666D01*
X104454819Y-20166666D02*
X104454819Y-20071428D01*
X104454819Y-20071428D02*
X104407200Y-19928571D01*
X104407200Y-19928571D02*
X104311961Y-19833333D01*
X104311961Y-19833333D02*
X104216723Y-19785714D01*
X104216723Y-19785714D02*
X104026247Y-19738095D01*
X104026247Y-19738095D02*
X103883390Y-19738095D01*
X103883390Y-19738095D02*
X103692914Y-19785714D01*
X103692914Y-19785714D02*
X103597676Y-19833333D01*
X103597676Y-19833333D02*
X103502438Y-19928571D01*
X103502438Y-19928571D02*
X103454819Y-20071428D01*
X103454819Y-20071428D02*
X103454819Y-20166666D01*
X103454819Y-20166666D02*
X103502438Y-20309523D01*
X103502438Y-20309523D02*
X103550057Y-20357142D01*
X104454819Y-21309523D02*
X104454819Y-20738095D01*
X104454819Y-21023809D02*
X103454819Y-21023809D01*
X103454819Y-21023809D02*
X103597676Y-20928571D01*
X103597676Y-20928571D02*
X103692914Y-20833333D01*
X103692914Y-20833333D02*
X103740533Y-20738095D01*
X104454819Y-21785714D02*
X104454819Y-21976190D01*
X104454819Y-21976190D02*
X104407200Y-22071428D01*
X104407200Y-22071428D02*
X104359580Y-22119047D01*
X104359580Y-22119047D02*
X104216723Y-22214285D01*
X104216723Y-22214285D02*
X104026247Y-22261904D01*
X104026247Y-22261904D02*
X103645295Y-22261904D01*
X103645295Y-22261904D02*
X103550057Y-22214285D01*
X103550057Y-22214285D02*
X103502438Y-22166666D01*
X103502438Y-22166666D02*
X103454819Y-22071428D01*
X103454819Y-22071428D02*
X103454819Y-21880952D01*
X103454819Y-21880952D02*
X103502438Y-21785714D01*
X103502438Y-21785714D02*
X103550057Y-21738095D01*
X103550057Y-21738095D02*
X103645295Y-21690476D01*
X103645295Y-21690476D02*
X103883390Y-21690476D01*
X103883390Y-21690476D02*
X103978628Y-21738095D01*
X103978628Y-21738095D02*
X104026247Y-21785714D01*
X104026247Y-21785714D02*
X104073866Y-21880952D01*
X104073866Y-21880952D02*
X104073866Y-22071428D01*
X104073866Y-22071428D02*
X104026247Y-22166666D01*
X104026247Y-22166666D02*
X103978628Y-22214285D01*
X103978628Y-22214285D02*
X103883390Y-22261904D01*
X193359580Y-17357142D02*
X193407200Y-17309523D01*
X193407200Y-17309523D02*
X193454819Y-17166666D01*
X193454819Y-17166666D02*
X193454819Y-17071428D01*
X193454819Y-17071428D02*
X193407200Y-16928571D01*
X193407200Y-16928571D02*
X193311961Y-16833333D01*
X193311961Y-16833333D02*
X193216723Y-16785714D01*
X193216723Y-16785714D02*
X193026247Y-16738095D01*
X193026247Y-16738095D02*
X192883390Y-16738095D01*
X192883390Y-16738095D02*
X192692914Y-16785714D01*
X192692914Y-16785714D02*
X192597676Y-16833333D01*
X192597676Y-16833333D02*
X192502438Y-16928571D01*
X192502438Y-16928571D02*
X192454819Y-17071428D01*
X192454819Y-17071428D02*
X192454819Y-17166666D01*
X192454819Y-17166666D02*
X192502438Y-17309523D01*
X192502438Y-17309523D02*
X192550057Y-17357142D01*
X192454819Y-18261904D02*
X192454819Y-17785714D01*
X192454819Y-17785714D02*
X192931009Y-17738095D01*
X192931009Y-17738095D02*
X192883390Y-17785714D01*
X192883390Y-17785714D02*
X192835771Y-17880952D01*
X192835771Y-17880952D02*
X192835771Y-18119047D01*
X192835771Y-18119047D02*
X192883390Y-18214285D01*
X192883390Y-18214285D02*
X192931009Y-18261904D01*
X192931009Y-18261904D02*
X193026247Y-18309523D01*
X193026247Y-18309523D02*
X193264342Y-18309523D01*
X193264342Y-18309523D02*
X193359580Y-18261904D01*
X193359580Y-18261904D02*
X193407200Y-18214285D01*
X193407200Y-18214285D02*
X193454819Y-18119047D01*
X193454819Y-18119047D02*
X193454819Y-17880952D01*
X193454819Y-17880952D02*
X193407200Y-17785714D01*
X193407200Y-17785714D02*
X193359580Y-17738095D01*
X192454819Y-19214285D02*
X192454819Y-18738095D01*
X192454819Y-18738095D02*
X192931009Y-18690476D01*
X192931009Y-18690476D02*
X192883390Y-18738095D01*
X192883390Y-18738095D02*
X192835771Y-18833333D01*
X192835771Y-18833333D02*
X192835771Y-19071428D01*
X192835771Y-19071428D02*
X192883390Y-19166666D01*
X192883390Y-19166666D02*
X192931009Y-19214285D01*
X192931009Y-19214285D02*
X193026247Y-19261904D01*
X193026247Y-19261904D02*
X193264342Y-19261904D01*
X193264342Y-19261904D02*
X193359580Y-19214285D01*
X193359580Y-19214285D02*
X193407200Y-19166666D01*
X193407200Y-19166666D02*
X193454819Y-19071428D01*
X193454819Y-19071428D02*
X193454819Y-18833333D01*
X193454819Y-18833333D02*
X193407200Y-18738095D01*
X193407200Y-18738095D02*
X193359580Y-18690476D01*
D13*
X115571818Y-10067856D02*
X114301818Y-10067856D01*
X114301818Y-10067856D02*
X114301818Y-10551666D01*
X114301818Y-10551666D02*
X114362294Y-10672618D01*
X114362294Y-10672618D02*
X114422770Y-10733095D01*
X114422770Y-10733095D02*
X114543722Y-10793571D01*
X114543722Y-10793571D02*
X114725151Y-10793571D01*
X114725151Y-10793571D02*
X114846103Y-10733095D01*
X114846103Y-10733095D02*
X114906580Y-10672618D01*
X114906580Y-10672618D02*
X114967056Y-10551666D01*
X114967056Y-10551666D02*
X114967056Y-10067856D01*
X115511342Y-11277380D02*
X115571818Y-11458809D01*
X115571818Y-11458809D02*
X115571818Y-11761190D01*
X115571818Y-11761190D02*
X115511342Y-11882142D01*
X115511342Y-11882142D02*
X115450865Y-11942618D01*
X115450865Y-11942618D02*
X115329913Y-12003095D01*
X115329913Y-12003095D02*
X115208961Y-12003095D01*
X115208961Y-12003095D02*
X115088008Y-11942618D01*
X115088008Y-11942618D02*
X115027532Y-11882142D01*
X115027532Y-11882142D02*
X114967056Y-11761190D01*
X114967056Y-11761190D02*
X114906580Y-11519285D01*
X114906580Y-11519285D02*
X114846103Y-11398333D01*
X114846103Y-11398333D02*
X114785627Y-11337856D01*
X114785627Y-11337856D02*
X114664675Y-11277380D01*
X114664675Y-11277380D02*
X114543722Y-11277380D01*
X114543722Y-11277380D02*
X114422770Y-11337856D01*
X114422770Y-11337856D02*
X114362294Y-11398333D01*
X114362294Y-11398333D02*
X114301818Y-11519285D01*
X114301818Y-11519285D02*
X114301818Y-11821666D01*
X114301818Y-11821666D02*
X114362294Y-12003095D01*
X114422770Y-12486904D02*
X114362294Y-12547380D01*
X114362294Y-12547380D02*
X114301818Y-12668333D01*
X114301818Y-12668333D02*
X114301818Y-12970714D01*
X114301818Y-12970714D02*
X114362294Y-13091666D01*
X114362294Y-13091666D02*
X114422770Y-13152142D01*
X114422770Y-13152142D02*
X114543722Y-13212619D01*
X114543722Y-13212619D02*
X114664675Y-13212619D01*
X114664675Y-13212619D02*
X114846103Y-13152142D01*
X114846103Y-13152142D02*
X115571818Y-12426428D01*
X115571818Y-12426428D02*
X115571818Y-13212619D01*
D12*
X184359580Y-17357142D02*
X184407200Y-17309523D01*
X184407200Y-17309523D02*
X184454819Y-17166666D01*
X184454819Y-17166666D02*
X184454819Y-17071428D01*
X184454819Y-17071428D02*
X184407200Y-16928571D01*
X184407200Y-16928571D02*
X184311961Y-16833333D01*
X184311961Y-16833333D02*
X184216723Y-16785714D01*
X184216723Y-16785714D02*
X184026247Y-16738095D01*
X184026247Y-16738095D02*
X183883390Y-16738095D01*
X183883390Y-16738095D02*
X183692914Y-16785714D01*
X183692914Y-16785714D02*
X183597676Y-16833333D01*
X183597676Y-16833333D02*
X183502438Y-16928571D01*
X183502438Y-16928571D02*
X183454819Y-17071428D01*
X183454819Y-17071428D02*
X183454819Y-17166666D01*
X183454819Y-17166666D02*
X183502438Y-17309523D01*
X183502438Y-17309523D02*
X183550057Y-17357142D01*
X183454819Y-18261904D02*
X183454819Y-17785714D01*
X183454819Y-17785714D02*
X183931009Y-17738095D01*
X183931009Y-17738095D02*
X183883390Y-17785714D01*
X183883390Y-17785714D02*
X183835771Y-17880952D01*
X183835771Y-17880952D02*
X183835771Y-18119047D01*
X183835771Y-18119047D02*
X183883390Y-18214285D01*
X183883390Y-18214285D02*
X183931009Y-18261904D01*
X183931009Y-18261904D02*
X184026247Y-18309523D01*
X184026247Y-18309523D02*
X184264342Y-18309523D01*
X184264342Y-18309523D02*
X184359580Y-18261904D01*
X184359580Y-18261904D02*
X184407200Y-18214285D01*
X184407200Y-18214285D02*
X184454819Y-18119047D01*
X184454819Y-18119047D02*
X184454819Y-17880952D01*
X184454819Y-17880952D02*
X184407200Y-17785714D01*
X184407200Y-17785714D02*
X184359580Y-17738095D01*
X183454819Y-19166666D02*
X183454819Y-18976190D01*
X183454819Y-18976190D02*
X183502438Y-18880952D01*
X183502438Y-18880952D02*
X183550057Y-18833333D01*
X183550057Y-18833333D02*
X183692914Y-18738095D01*
X183692914Y-18738095D02*
X183883390Y-18690476D01*
X183883390Y-18690476D02*
X184264342Y-18690476D01*
X184264342Y-18690476D02*
X184359580Y-18738095D01*
X184359580Y-18738095D02*
X184407200Y-18785714D01*
X184407200Y-18785714D02*
X184454819Y-18880952D01*
X184454819Y-18880952D02*
X184454819Y-19071428D01*
X184454819Y-19071428D02*
X184407200Y-19166666D01*
X184407200Y-19166666D02*
X184359580Y-19214285D01*
X184359580Y-19214285D02*
X184264342Y-19261904D01*
X184264342Y-19261904D02*
X184026247Y-19261904D01*
X184026247Y-19261904D02*
X183931009Y-19214285D01*
X183931009Y-19214285D02*
X183883390Y-19166666D01*
X183883390Y-19166666D02*
X183835771Y-19071428D01*
X183835771Y-19071428D02*
X183835771Y-18880952D01*
X183835771Y-18880952D02*
X183883390Y-18785714D01*
X183883390Y-18785714D02*
X183931009Y-18738095D01*
X183931009Y-18738095D02*
X184026247Y-18690476D01*
X107642857Y-14359580D02*
X107690476Y-14407200D01*
X107690476Y-14407200D02*
X107833333Y-14454819D01*
X107833333Y-14454819D02*
X107928571Y-14454819D01*
X107928571Y-14454819D02*
X108071428Y-14407200D01*
X108071428Y-14407200D02*
X108166666Y-14311961D01*
X108166666Y-14311961D02*
X108214285Y-14216723D01*
X108214285Y-14216723D02*
X108261904Y-14026247D01*
X108261904Y-14026247D02*
X108261904Y-13883390D01*
X108261904Y-13883390D02*
X108214285Y-13692914D01*
X108214285Y-13692914D02*
X108166666Y-13597676D01*
X108166666Y-13597676D02*
X108071428Y-13502438D01*
X108071428Y-13502438D02*
X107928571Y-13454819D01*
X107928571Y-13454819D02*
X107833333Y-13454819D01*
X107833333Y-13454819D02*
X107690476Y-13502438D01*
X107690476Y-13502438D02*
X107642857Y-13550057D01*
X106690476Y-14454819D02*
X107261904Y-14454819D01*
X106976190Y-14454819D02*
X106976190Y-13454819D01*
X106976190Y-13454819D02*
X107071428Y-13597676D01*
X107071428Y-13597676D02*
X107166666Y-13692914D01*
X107166666Y-13692914D02*
X107261904Y-13740533D01*
X105833333Y-13454819D02*
X106023809Y-13454819D01*
X106023809Y-13454819D02*
X106119047Y-13502438D01*
X106119047Y-13502438D02*
X106166666Y-13550057D01*
X106166666Y-13550057D02*
X106261904Y-13692914D01*
X106261904Y-13692914D02*
X106309523Y-13883390D01*
X106309523Y-13883390D02*
X106309523Y-14264342D01*
X106309523Y-14264342D02*
X106261904Y-14359580D01*
X106261904Y-14359580D02*
X106214285Y-14407200D01*
X106214285Y-14407200D02*
X106119047Y-14454819D01*
X106119047Y-14454819D02*
X105928571Y-14454819D01*
X105928571Y-14454819D02*
X105833333Y-14407200D01*
X105833333Y-14407200D02*
X105785714Y-14359580D01*
X105785714Y-14359580D02*
X105738095Y-14264342D01*
X105738095Y-14264342D02*
X105738095Y-14026247D01*
X105738095Y-14026247D02*
X105785714Y-13931009D01*
X105785714Y-13931009D02*
X105833333Y-13883390D01*
X105833333Y-13883390D02*
X105928571Y-13835771D01*
X105928571Y-13835771D02*
X106119047Y-13835771D01*
X106119047Y-13835771D02*
X106214285Y-13883390D01*
X106214285Y-13883390D02*
X106261904Y-13931009D01*
X106261904Y-13931009D02*
X106309523Y-14026247D01*
X145454819Y-42357142D02*
X144978628Y-42023809D01*
X145454819Y-41785714D02*
X144454819Y-41785714D01*
X144454819Y-41785714D02*
X144454819Y-42166666D01*
X144454819Y-42166666D02*
X144502438Y-42261904D01*
X144502438Y-42261904D02*
X144550057Y-42309523D01*
X144550057Y-42309523D02*
X144645295Y-42357142D01*
X144645295Y-42357142D02*
X144788152Y-42357142D01*
X144788152Y-42357142D02*
X144883390Y-42309523D01*
X144883390Y-42309523D02*
X144931009Y-42261904D01*
X144931009Y-42261904D02*
X144978628Y-42166666D01*
X144978628Y-42166666D02*
X144978628Y-41785714D01*
X144454819Y-42690476D02*
X144454819Y-43309523D01*
X144454819Y-43309523D02*
X144835771Y-42976190D01*
X144835771Y-42976190D02*
X144835771Y-43119047D01*
X144835771Y-43119047D02*
X144883390Y-43214285D01*
X144883390Y-43214285D02*
X144931009Y-43261904D01*
X144931009Y-43261904D02*
X145026247Y-43309523D01*
X145026247Y-43309523D02*
X145264342Y-43309523D01*
X145264342Y-43309523D02*
X145359580Y-43261904D01*
X145359580Y-43261904D02*
X145407200Y-43214285D01*
X145407200Y-43214285D02*
X145454819Y-43119047D01*
X145454819Y-43119047D02*
X145454819Y-42833333D01*
X145454819Y-42833333D02*
X145407200Y-42738095D01*
X145407200Y-42738095D02*
X145359580Y-42690476D01*
X144454819Y-43928571D02*
X144454819Y-44023809D01*
X144454819Y-44023809D02*
X144502438Y-44119047D01*
X144502438Y-44119047D02*
X144550057Y-44166666D01*
X144550057Y-44166666D02*
X144645295Y-44214285D01*
X144645295Y-44214285D02*
X144835771Y-44261904D01*
X144835771Y-44261904D02*
X145073866Y-44261904D01*
X145073866Y-44261904D02*
X145264342Y-44214285D01*
X145264342Y-44214285D02*
X145359580Y-44166666D01*
X145359580Y-44166666D02*
X145407200Y-44119047D01*
X145407200Y-44119047D02*
X145454819Y-44023809D01*
X145454819Y-44023809D02*
X145454819Y-43928571D01*
X145454819Y-43928571D02*
X145407200Y-43833333D01*
X145407200Y-43833333D02*
X145359580Y-43785714D01*
X145359580Y-43785714D02*
X145264342Y-43738095D01*
X145264342Y-43738095D02*
X145073866Y-43690476D01*
X145073866Y-43690476D02*
X144835771Y-43690476D01*
X144835771Y-43690476D02*
X144645295Y-43738095D01*
X144645295Y-43738095D02*
X144550057Y-43785714D01*
X144550057Y-43785714D02*
X144502438Y-43833333D01*
X144502438Y-43833333D02*
X144454819Y-43928571D01*
X40059580Y-19857142D02*
X40107200Y-19809523D01*
X40107200Y-19809523D02*
X40154819Y-19666666D01*
X40154819Y-19666666D02*
X40154819Y-19571428D01*
X40154819Y-19571428D02*
X40107200Y-19428571D01*
X40107200Y-19428571D02*
X40011961Y-19333333D01*
X40011961Y-19333333D02*
X39916723Y-19285714D01*
X39916723Y-19285714D02*
X39726247Y-19238095D01*
X39726247Y-19238095D02*
X39583390Y-19238095D01*
X39583390Y-19238095D02*
X39392914Y-19285714D01*
X39392914Y-19285714D02*
X39297676Y-19333333D01*
X39297676Y-19333333D02*
X39202438Y-19428571D01*
X39202438Y-19428571D02*
X39154819Y-19571428D01*
X39154819Y-19571428D02*
X39154819Y-19666666D01*
X39154819Y-19666666D02*
X39202438Y-19809523D01*
X39202438Y-19809523D02*
X39250057Y-19857142D01*
X39154819Y-20190476D02*
X39154819Y-20809523D01*
X39154819Y-20809523D02*
X39535771Y-20476190D01*
X39535771Y-20476190D02*
X39535771Y-20619047D01*
X39535771Y-20619047D02*
X39583390Y-20714285D01*
X39583390Y-20714285D02*
X39631009Y-20761904D01*
X39631009Y-20761904D02*
X39726247Y-20809523D01*
X39726247Y-20809523D02*
X39964342Y-20809523D01*
X39964342Y-20809523D02*
X40059580Y-20761904D01*
X40059580Y-20761904D02*
X40107200Y-20714285D01*
X40107200Y-20714285D02*
X40154819Y-20619047D01*
X40154819Y-20619047D02*
X40154819Y-20333333D01*
X40154819Y-20333333D02*
X40107200Y-20238095D01*
X40107200Y-20238095D02*
X40059580Y-20190476D01*
X39154819Y-21714285D02*
X39154819Y-21238095D01*
X39154819Y-21238095D02*
X39631009Y-21190476D01*
X39631009Y-21190476D02*
X39583390Y-21238095D01*
X39583390Y-21238095D02*
X39535771Y-21333333D01*
X39535771Y-21333333D02*
X39535771Y-21571428D01*
X39535771Y-21571428D02*
X39583390Y-21666666D01*
X39583390Y-21666666D02*
X39631009Y-21714285D01*
X39631009Y-21714285D02*
X39726247Y-21761904D01*
X39726247Y-21761904D02*
X39964342Y-21761904D01*
X39964342Y-21761904D02*
X40059580Y-21714285D01*
X40059580Y-21714285D02*
X40107200Y-21666666D01*
X40107200Y-21666666D02*
X40154819Y-21571428D01*
X40154819Y-21571428D02*
X40154819Y-21333333D01*
X40154819Y-21333333D02*
X40107200Y-21238095D01*
X40107200Y-21238095D02*
X40059580Y-21190476D01*
X207642857Y-10859580D02*
X207690476Y-10907200D01*
X207690476Y-10907200D02*
X207833333Y-10954819D01*
X207833333Y-10954819D02*
X207928571Y-10954819D01*
X207928571Y-10954819D02*
X208071428Y-10907200D01*
X208071428Y-10907200D02*
X208166666Y-10811961D01*
X208166666Y-10811961D02*
X208214285Y-10716723D01*
X208214285Y-10716723D02*
X208261904Y-10526247D01*
X208261904Y-10526247D02*
X208261904Y-10383390D01*
X208261904Y-10383390D02*
X208214285Y-10192914D01*
X208214285Y-10192914D02*
X208166666Y-10097676D01*
X208166666Y-10097676D02*
X208071428Y-10002438D01*
X208071428Y-10002438D02*
X207928571Y-9954819D01*
X207928571Y-9954819D02*
X207833333Y-9954819D01*
X207833333Y-9954819D02*
X207690476Y-10002438D01*
X207690476Y-10002438D02*
X207642857Y-10050057D01*
X206785714Y-9954819D02*
X206976190Y-9954819D01*
X206976190Y-9954819D02*
X207071428Y-10002438D01*
X207071428Y-10002438D02*
X207119047Y-10050057D01*
X207119047Y-10050057D02*
X207214285Y-10192914D01*
X207214285Y-10192914D02*
X207261904Y-10383390D01*
X207261904Y-10383390D02*
X207261904Y-10764342D01*
X207261904Y-10764342D02*
X207214285Y-10859580D01*
X207214285Y-10859580D02*
X207166666Y-10907200D01*
X207166666Y-10907200D02*
X207071428Y-10954819D01*
X207071428Y-10954819D02*
X206880952Y-10954819D01*
X206880952Y-10954819D02*
X206785714Y-10907200D01*
X206785714Y-10907200D02*
X206738095Y-10859580D01*
X206738095Y-10859580D02*
X206690476Y-10764342D01*
X206690476Y-10764342D02*
X206690476Y-10526247D01*
X206690476Y-10526247D02*
X206738095Y-10431009D01*
X206738095Y-10431009D02*
X206785714Y-10383390D01*
X206785714Y-10383390D02*
X206880952Y-10335771D01*
X206880952Y-10335771D02*
X207071428Y-10335771D01*
X207071428Y-10335771D02*
X207166666Y-10383390D01*
X207166666Y-10383390D02*
X207214285Y-10431009D01*
X207214285Y-10431009D02*
X207261904Y-10526247D01*
X205738095Y-10954819D02*
X206309523Y-10954819D01*
X206023809Y-10954819D02*
X206023809Y-9954819D01*
X206023809Y-9954819D02*
X206119047Y-10097676D01*
X206119047Y-10097676D02*
X206214285Y-10192914D01*
X206214285Y-10192914D02*
X206309523Y-10240533D01*
X124859580Y-20857142D02*
X124907200Y-20809523D01*
X124907200Y-20809523D02*
X124954819Y-20666666D01*
X124954819Y-20666666D02*
X124954819Y-20571428D01*
X124954819Y-20571428D02*
X124907200Y-20428571D01*
X124907200Y-20428571D02*
X124811961Y-20333333D01*
X124811961Y-20333333D02*
X124716723Y-20285714D01*
X124716723Y-20285714D02*
X124526247Y-20238095D01*
X124526247Y-20238095D02*
X124383390Y-20238095D01*
X124383390Y-20238095D02*
X124192914Y-20285714D01*
X124192914Y-20285714D02*
X124097676Y-20333333D01*
X124097676Y-20333333D02*
X124002438Y-20428571D01*
X124002438Y-20428571D02*
X123954819Y-20571428D01*
X123954819Y-20571428D02*
X123954819Y-20666666D01*
X123954819Y-20666666D02*
X124002438Y-20809523D01*
X124002438Y-20809523D02*
X124050057Y-20857142D01*
X124050057Y-21238095D02*
X124002438Y-21285714D01*
X124002438Y-21285714D02*
X123954819Y-21380952D01*
X123954819Y-21380952D02*
X123954819Y-21619047D01*
X123954819Y-21619047D02*
X124002438Y-21714285D01*
X124002438Y-21714285D02*
X124050057Y-21761904D01*
X124050057Y-21761904D02*
X124145295Y-21809523D01*
X124145295Y-21809523D02*
X124240533Y-21809523D01*
X124240533Y-21809523D02*
X124383390Y-21761904D01*
X124383390Y-21761904D02*
X124954819Y-21190476D01*
X124954819Y-21190476D02*
X124954819Y-21809523D01*
X123954819Y-22142857D02*
X123954819Y-22761904D01*
X123954819Y-22761904D02*
X124335771Y-22428571D01*
X124335771Y-22428571D02*
X124335771Y-22571428D01*
X124335771Y-22571428D02*
X124383390Y-22666666D01*
X124383390Y-22666666D02*
X124431009Y-22714285D01*
X124431009Y-22714285D02*
X124526247Y-22761904D01*
X124526247Y-22761904D02*
X124764342Y-22761904D01*
X124764342Y-22761904D02*
X124859580Y-22714285D01*
X124859580Y-22714285D02*
X124907200Y-22666666D01*
X124907200Y-22666666D02*
X124954819Y-22571428D01*
X124954819Y-22571428D02*
X124954819Y-22285714D01*
X124954819Y-22285714D02*
X124907200Y-22190476D01*
X124907200Y-22190476D02*
X124859580Y-22142857D01*
X76359580Y-12333333D02*
X76407200Y-12285714D01*
X76407200Y-12285714D02*
X76454819Y-12142857D01*
X76454819Y-12142857D02*
X76454819Y-12047619D01*
X76454819Y-12047619D02*
X76407200Y-11904762D01*
X76407200Y-11904762D02*
X76311961Y-11809524D01*
X76311961Y-11809524D02*
X76216723Y-11761905D01*
X76216723Y-11761905D02*
X76026247Y-11714286D01*
X76026247Y-11714286D02*
X75883390Y-11714286D01*
X75883390Y-11714286D02*
X75692914Y-11761905D01*
X75692914Y-11761905D02*
X75597676Y-11809524D01*
X75597676Y-11809524D02*
X75502438Y-11904762D01*
X75502438Y-11904762D02*
X75454819Y-12047619D01*
X75454819Y-12047619D02*
X75454819Y-12142857D01*
X75454819Y-12142857D02*
X75502438Y-12285714D01*
X75502438Y-12285714D02*
X75550057Y-12333333D01*
X76454819Y-12809524D02*
X76454819Y-13000000D01*
X76454819Y-13000000D02*
X76407200Y-13095238D01*
X76407200Y-13095238D02*
X76359580Y-13142857D01*
X76359580Y-13142857D02*
X76216723Y-13238095D01*
X76216723Y-13238095D02*
X76026247Y-13285714D01*
X76026247Y-13285714D02*
X75645295Y-13285714D01*
X75645295Y-13285714D02*
X75550057Y-13238095D01*
X75550057Y-13238095D02*
X75502438Y-13190476D01*
X75502438Y-13190476D02*
X75454819Y-13095238D01*
X75454819Y-13095238D02*
X75454819Y-12904762D01*
X75454819Y-12904762D02*
X75502438Y-12809524D01*
X75502438Y-12809524D02*
X75550057Y-12761905D01*
X75550057Y-12761905D02*
X75645295Y-12714286D01*
X75645295Y-12714286D02*
X75883390Y-12714286D01*
X75883390Y-12714286D02*
X75978628Y-12761905D01*
X75978628Y-12761905D02*
X76026247Y-12809524D01*
X76026247Y-12809524D02*
X76073866Y-12904762D01*
X76073866Y-12904762D02*
X76073866Y-13095238D01*
X76073866Y-13095238D02*
X76026247Y-13190476D01*
X76026247Y-13190476D02*
X75978628Y-13238095D01*
X75978628Y-13238095D02*
X75883390Y-13285714D01*
D13*
X233256818Y-10067856D02*
X231986818Y-10067856D01*
X231986818Y-10067856D02*
X231986818Y-10551666D01*
X231986818Y-10551666D02*
X232047294Y-10672618D01*
X232047294Y-10672618D02*
X232107770Y-10733095D01*
X232107770Y-10733095D02*
X232228722Y-10793571D01*
X232228722Y-10793571D02*
X232410151Y-10793571D01*
X232410151Y-10793571D02*
X232531103Y-10733095D01*
X232531103Y-10733095D02*
X232591580Y-10672618D01*
X232591580Y-10672618D02*
X232652056Y-10551666D01*
X232652056Y-10551666D02*
X232652056Y-10067856D01*
X233196342Y-11277380D02*
X233256818Y-11458809D01*
X233256818Y-11458809D02*
X233256818Y-11761190D01*
X233256818Y-11761190D02*
X233196342Y-11882142D01*
X233196342Y-11882142D02*
X233135865Y-11942618D01*
X233135865Y-11942618D02*
X233014913Y-12003095D01*
X233014913Y-12003095D02*
X232893961Y-12003095D01*
X232893961Y-12003095D02*
X232773008Y-11942618D01*
X232773008Y-11942618D02*
X232712532Y-11882142D01*
X232712532Y-11882142D02*
X232652056Y-11761190D01*
X232652056Y-11761190D02*
X232591580Y-11519285D01*
X232591580Y-11519285D02*
X232531103Y-11398333D01*
X232531103Y-11398333D02*
X232470627Y-11337856D01*
X232470627Y-11337856D02*
X232349675Y-11277380D01*
X232349675Y-11277380D02*
X232228722Y-11277380D01*
X232228722Y-11277380D02*
X232107770Y-11337856D01*
X232107770Y-11337856D02*
X232047294Y-11398333D01*
X232047294Y-11398333D02*
X231986818Y-11519285D01*
X231986818Y-11519285D02*
X231986818Y-11821666D01*
X231986818Y-11821666D02*
X232047294Y-12003095D01*
X231986818Y-13091666D02*
X231986818Y-12849761D01*
X231986818Y-12849761D02*
X232047294Y-12728809D01*
X232047294Y-12728809D02*
X232107770Y-12668333D01*
X232107770Y-12668333D02*
X232289199Y-12547380D01*
X232289199Y-12547380D02*
X232531103Y-12486904D01*
X232531103Y-12486904D02*
X233014913Y-12486904D01*
X233014913Y-12486904D02*
X233135865Y-12547380D01*
X233135865Y-12547380D02*
X233196342Y-12607857D01*
X233196342Y-12607857D02*
X233256818Y-12728809D01*
X233256818Y-12728809D02*
X233256818Y-12970714D01*
X233256818Y-12970714D02*
X233196342Y-13091666D01*
X233196342Y-13091666D02*
X233135865Y-13152142D01*
X233135865Y-13152142D02*
X233014913Y-13212619D01*
X233014913Y-13212619D02*
X232712532Y-13212619D01*
X232712532Y-13212619D02*
X232591580Y-13152142D01*
X232591580Y-13152142D02*
X232531103Y-13091666D01*
X232531103Y-13091666D02*
X232470627Y-12970714D01*
X232470627Y-12970714D02*
X232470627Y-12728809D01*
X232470627Y-12728809D02*
X232531103Y-12607857D01*
X232531103Y-12607857D02*
X232591580Y-12547380D01*
X232591580Y-12547380D02*
X232712532Y-12486904D01*
X30754318Y-10067856D02*
X29484318Y-10067856D01*
X29484318Y-10067856D02*
X29484318Y-10551666D01*
X29484318Y-10551666D02*
X29544794Y-10672618D01*
X29544794Y-10672618D02*
X29605270Y-10733095D01*
X29605270Y-10733095D02*
X29726222Y-10793571D01*
X29726222Y-10793571D02*
X29907651Y-10793571D01*
X29907651Y-10793571D02*
X30028603Y-10733095D01*
X30028603Y-10733095D02*
X30089080Y-10672618D01*
X30089080Y-10672618D02*
X30149556Y-10551666D01*
X30149556Y-10551666D02*
X30149556Y-10067856D01*
X30693842Y-11277380D02*
X30754318Y-11458809D01*
X30754318Y-11458809D02*
X30754318Y-11761190D01*
X30754318Y-11761190D02*
X30693842Y-11882142D01*
X30693842Y-11882142D02*
X30633365Y-11942618D01*
X30633365Y-11942618D02*
X30512413Y-12003095D01*
X30512413Y-12003095D02*
X30391461Y-12003095D01*
X30391461Y-12003095D02*
X30270508Y-11942618D01*
X30270508Y-11942618D02*
X30210032Y-11882142D01*
X30210032Y-11882142D02*
X30149556Y-11761190D01*
X30149556Y-11761190D02*
X30089080Y-11519285D01*
X30089080Y-11519285D02*
X30028603Y-11398333D01*
X30028603Y-11398333D02*
X29968127Y-11337856D01*
X29968127Y-11337856D02*
X29847175Y-11277380D01*
X29847175Y-11277380D02*
X29726222Y-11277380D01*
X29726222Y-11277380D02*
X29605270Y-11337856D01*
X29605270Y-11337856D02*
X29544794Y-11398333D01*
X29544794Y-11398333D02*
X29484318Y-11519285D01*
X29484318Y-11519285D02*
X29484318Y-11821666D01*
X29484318Y-11821666D02*
X29544794Y-12003095D01*
X29484318Y-12426428D02*
X29484318Y-13212619D01*
X29484318Y-13212619D02*
X29968127Y-12789285D01*
X29968127Y-12789285D02*
X29968127Y-12970714D01*
X29968127Y-12970714D02*
X30028603Y-13091666D01*
X30028603Y-13091666D02*
X30089080Y-13152142D01*
X30089080Y-13152142D02*
X30210032Y-13212619D01*
X30210032Y-13212619D02*
X30512413Y-13212619D01*
X30512413Y-13212619D02*
X30633365Y-13152142D01*
X30633365Y-13152142D02*
X30693842Y-13091666D01*
X30693842Y-13091666D02*
X30754318Y-12970714D01*
X30754318Y-12970714D02*
X30754318Y-12607857D01*
X30754318Y-12607857D02*
X30693842Y-12486904D01*
X30693842Y-12486904D02*
X30633365Y-12426428D01*
D12*
X246642857Y-13359580D02*
X246690476Y-13407200D01*
X246690476Y-13407200D02*
X246833333Y-13454819D01*
X246833333Y-13454819D02*
X246928571Y-13454819D01*
X246928571Y-13454819D02*
X247071428Y-13407200D01*
X247071428Y-13407200D02*
X247166666Y-13311961D01*
X247166666Y-13311961D02*
X247214285Y-13216723D01*
X247214285Y-13216723D02*
X247261904Y-13026247D01*
X247261904Y-13026247D02*
X247261904Y-12883390D01*
X247261904Y-12883390D02*
X247214285Y-12692914D01*
X247214285Y-12692914D02*
X247166666Y-12597676D01*
X247166666Y-12597676D02*
X247071428Y-12502438D01*
X247071428Y-12502438D02*
X246928571Y-12454819D01*
X246928571Y-12454819D02*
X246833333Y-12454819D01*
X246833333Y-12454819D02*
X246690476Y-12502438D01*
X246690476Y-12502438D02*
X246642857Y-12550057D01*
X245785714Y-12454819D02*
X245976190Y-12454819D01*
X245976190Y-12454819D02*
X246071428Y-12502438D01*
X246071428Y-12502438D02*
X246119047Y-12550057D01*
X246119047Y-12550057D02*
X246214285Y-12692914D01*
X246214285Y-12692914D02*
X246261904Y-12883390D01*
X246261904Y-12883390D02*
X246261904Y-13264342D01*
X246261904Y-13264342D02*
X246214285Y-13359580D01*
X246214285Y-13359580D02*
X246166666Y-13407200D01*
X246166666Y-13407200D02*
X246071428Y-13454819D01*
X246071428Y-13454819D02*
X245880952Y-13454819D01*
X245880952Y-13454819D02*
X245785714Y-13407200D01*
X245785714Y-13407200D02*
X245738095Y-13359580D01*
X245738095Y-13359580D02*
X245690476Y-13264342D01*
X245690476Y-13264342D02*
X245690476Y-13026247D01*
X245690476Y-13026247D02*
X245738095Y-12931009D01*
X245738095Y-12931009D02*
X245785714Y-12883390D01*
X245785714Y-12883390D02*
X245880952Y-12835771D01*
X245880952Y-12835771D02*
X246071428Y-12835771D01*
X246071428Y-12835771D02*
X246166666Y-12883390D01*
X246166666Y-12883390D02*
X246214285Y-12931009D01*
X246214285Y-12931009D02*
X246261904Y-13026247D01*
X244833333Y-12788152D02*
X244833333Y-13454819D01*
X245071428Y-12407200D02*
X245309523Y-13121485D01*
X245309523Y-13121485D02*
X244690476Y-13121485D01*
X14642857Y-19059580D02*
X14690476Y-19107200D01*
X14690476Y-19107200D02*
X14833333Y-19154819D01*
X14833333Y-19154819D02*
X14928571Y-19154819D01*
X14928571Y-19154819D02*
X15071428Y-19107200D01*
X15071428Y-19107200D02*
X15166666Y-19011961D01*
X15166666Y-19011961D02*
X15214285Y-18916723D01*
X15214285Y-18916723D02*
X15261904Y-18726247D01*
X15261904Y-18726247D02*
X15261904Y-18583390D01*
X15261904Y-18583390D02*
X15214285Y-18392914D01*
X15214285Y-18392914D02*
X15166666Y-18297676D01*
X15166666Y-18297676D02*
X15071428Y-18202438D01*
X15071428Y-18202438D02*
X14928571Y-18154819D01*
X14928571Y-18154819D02*
X14833333Y-18154819D01*
X14833333Y-18154819D02*
X14690476Y-18202438D01*
X14690476Y-18202438D02*
X14642857Y-18250057D01*
X14309523Y-18154819D02*
X13690476Y-18154819D01*
X13690476Y-18154819D02*
X14023809Y-18535771D01*
X14023809Y-18535771D02*
X13880952Y-18535771D01*
X13880952Y-18535771D02*
X13785714Y-18583390D01*
X13785714Y-18583390D02*
X13738095Y-18631009D01*
X13738095Y-18631009D02*
X13690476Y-18726247D01*
X13690476Y-18726247D02*
X13690476Y-18964342D01*
X13690476Y-18964342D02*
X13738095Y-19059580D01*
X13738095Y-19059580D02*
X13785714Y-19107200D01*
X13785714Y-19107200D02*
X13880952Y-19154819D01*
X13880952Y-19154819D02*
X14166666Y-19154819D01*
X14166666Y-19154819D02*
X14261904Y-19107200D01*
X14261904Y-19107200D02*
X14309523Y-19059580D01*
X13357142Y-18154819D02*
X12738095Y-18154819D01*
X12738095Y-18154819D02*
X13071428Y-18535771D01*
X13071428Y-18535771D02*
X12928571Y-18535771D01*
X12928571Y-18535771D02*
X12833333Y-18583390D01*
X12833333Y-18583390D02*
X12785714Y-18631009D01*
X12785714Y-18631009D02*
X12738095Y-18726247D01*
X12738095Y-18726247D02*
X12738095Y-18964342D01*
X12738095Y-18964342D02*
X12785714Y-19059580D01*
X12785714Y-19059580D02*
X12833333Y-19107200D01*
X12833333Y-19107200D02*
X12928571Y-19154819D01*
X12928571Y-19154819D02*
X13214285Y-19154819D01*
X13214285Y-19154819D02*
X13309523Y-19107200D01*
X13309523Y-19107200D02*
X13357142Y-19059580D01*
X188642857Y-15859580D02*
X188690476Y-15907200D01*
X188690476Y-15907200D02*
X188833333Y-15954819D01*
X188833333Y-15954819D02*
X188928571Y-15954819D01*
X188928571Y-15954819D02*
X189071428Y-15907200D01*
X189071428Y-15907200D02*
X189166666Y-15811961D01*
X189166666Y-15811961D02*
X189214285Y-15716723D01*
X189214285Y-15716723D02*
X189261904Y-15526247D01*
X189261904Y-15526247D02*
X189261904Y-15383390D01*
X189261904Y-15383390D02*
X189214285Y-15192914D01*
X189214285Y-15192914D02*
X189166666Y-15097676D01*
X189166666Y-15097676D02*
X189071428Y-15002438D01*
X189071428Y-15002438D02*
X188928571Y-14954819D01*
X188928571Y-14954819D02*
X188833333Y-14954819D01*
X188833333Y-14954819D02*
X188690476Y-15002438D01*
X188690476Y-15002438D02*
X188642857Y-15050057D01*
X187738095Y-14954819D02*
X188214285Y-14954819D01*
X188214285Y-14954819D02*
X188261904Y-15431009D01*
X188261904Y-15431009D02*
X188214285Y-15383390D01*
X188214285Y-15383390D02*
X188119047Y-15335771D01*
X188119047Y-15335771D02*
X187880952Y-15335771D01*
X187880952Y-15335771D02*
X187785714Y-15383390D01*
X187785714Y-15383390D02*
X187738095Y-15431009D01*
X187738095Y-15431009D02*
X187690476Y-15526247D01*
X187690476Y-15526247D02*
X187690476Y-15764342D01*
X187690476Y-15764342D02*
X187738095Y-15859580D01*
X187738095Y-15859580D02*
X187785714Y-15907200D01*
X187785714Y-15907200D02*
X187880952Y-15954819D01*
X187880952Y-15954819D02*
X188119047Y-15954819D01*
X188119047Y-15954819D02*
X188214285Y-15907200D01*
X188214285Y-15907200D02*
X188261904Y-15859580D01*
X187357142Y-14954819D02*
X186738095Y-14954819D01*
X186738095Y-14954819D02*
X187071428Y-15335771D01*
X187071428Y-15335771D02*
X186928571Y-15335771D01*
X186928571Y-15335771D02*
X186833333Y-15383390D01*
X186833333Y-15383390D02*
X186785714Y-15431009D01*
X186785714Y-15431009D02*
X186738095Y-15526247D01*
X186738095Y-15526247D02*
X186738095Y-15764342D01*
X186738095Y-15764342D02*
X186785714Y-15859580D01*
X186785714Y-15859580D02*
X186833333Y-15907200D01*
X186833333Y-15907200D02*
X186928571Y-15954819D01*
X186928571Y-15954819D02*
X187214285Y-15954819D01*
X187214285Y-15954819D02*
X187309523Y-15907200D01*
X187309523Y-15907200D02*
X187357142Y-15859580D01*
X163359580Y-20857142D02*
X163407200Y-20809523D01*
X163407200Y-20809523D02*
X163454819Y-20666666D01*
X163454819Y-20666666D02*
X163454819Y-20571428D01*
X163454819Y-20571428D02*
X163407200Y-20428571D01*
X163407200Y-20428571D02*
X163311961Y-20333333D01*
X163311961Y-20333333D02*
X163216723Y-20285714D01*
X163216723Y-20285714D02*
X163026247Y-20238095D01*
X163026247Y-20238095D02*
X162883390Y-20238095D01*
X162883390Y-20238095D02*
X162692914Y-20285714D01*
X162692914Y-20285714D02*
X162597676Y-20333333D01*
X162597676Y-20333333D02*
X162502438Y-20428571D01*
X162502438Y-20428571D02*
X162454819Y-20571428D01*
X162454819Y-20571428D02*
X162454819Y-20666666D01*
X162454819Y-20666666D02*
X162502438Y-20809523D01*
X162502438Y-20809523D02*
X162550057Y-20857142D01*
X162788152Y-21714285D02*
X163454819Y-21714285D01*
X162407200Y-21476190D02*
X163121485Y-21238095D01*
X163121485Y-21238095D02*
X163121485Y-21857142D01*
X163454819Y-22761904D02*
X163454819Y-22190476D01*
X163454819Y-22476190D02*
X162454819Y-22476190D01*
X162454819Y-22476190D02*
X162597676Y-22380952D01*
X162597676Y-22380952D02*
X162692914Y-22285714D01*
X162692914Y-22285714D02*
X162740533Y-22190476D01*
X141859580Y-42357142D02*
X141907200Y-42309523D01*
X141907200Y-42309523D02*
X141954819Y-42166666D01*
X141954819Y-42166666D02*
X141954819Y-42071428D01*
X141954819Y-42071428D02*
X141907200Y-41928571D01*
X141907200Y-41928571D02*
X141811961Y-41833333D01*
X141811961Y-41833333D02*
X141716723Y-41785714D01*
X141716723Y-41785714D02*
X141526247Y-41738095D01*
X141526247Y-41738095D02*
X141383390Y-41738095D01*
X141383390Y-41738095D02*
X141192914Y-41785714D01*
X141192914Y-41785714D02*
X141097676Y-41833333D01*
X141097676Y-41833333D02*
X141002438Y-41928571D01*
X141002438Y-41928571D02*
X140954819Y-42071428D01*
X140954819Y-42071428D02*
X140954819Y-42166666D01*
X140954819Y-42166666D02*
X141002438Y-42309523D01*
X141002438Y-42309523D02*
X141050057Y-42357142D01*
X140954819Y-42690476D02*
X140954819Y-43357142D01*
X140954819Y-43357142D02*
X141954819Y-42928571D01*
X140954819Y-44166666D02*
X140954819Y-43976190D01*
X140954819Y-43976190D02*
X141002438Y-43880952D01*
X141002438Y-43880952D02*
X141050057Y-43833333D01*
X141050057Y-43833333D02*
X141192914Y-43738095D01*
X141192914Y-43738095D02*
X141383390Y-43690476D01*
X141383390Y-43690476D02*
X141764342Y-43690476D01*
X141764342Y-43690476D02*
X141859580Y-43738095D01*
X141859580Y-43738095D02*
X141907200Y-43785714D01*
X141907200Y-43785714D02*
X141954819Y-43880952D01*
X141954819Y-43880952D02*
X141954819Y-44071428D01*
X141954819Y-44071428D02*
X141907200Y-44166666D01*
X141907200Y-44166666D02*
X141859580Y-44214285D01*
X141859580Y-44214285D02*
X141764342Y-44261904D01*
X141764342Y-44261904D02*
X141526247Y-44261904D01*
X141526247Y-44261904D02*
X141431009Y-44214285D01*
X141431009Y-44214285D02*
X141383390Y-44166666D01*
X141383390Y-44166666D02*
X141335771Y-44071428D01*
X141335771Y-44071428D02*
X141335771Y-43880952D01*
X141335771Y-43880952D02*
X141383390Y-43785714D01*
X141383390Y-43785714D02*
X141431009Y-43738095D01*
X141431009Y-43738095D02*
X141526247Y-43690476D01*
D13*
X149578095Y-37804318D02*
X148731428Y-37804318D01*
X148731428Y-37804318D02*
X149578095Y-39074318D01*
X149578095Y-39074318D02*
X148731428Y-39074318D01*
X148308095Y-37925270D02*
X148247619Y-37864794D01*
X148247619Y-37864794D02*
X148126666Y-37804318D01*
X148126666Y-37804318D02*
X147824285Y-37804318D01*
X147824285Y-37804318D02*
X147703333Y-37864794D01*
X147703333Y-37864794D02*
X147642857Y-37925270D01*
X147642857Y-37925270D02*
X147582380Y-38046222D01*
X147582380Y-38046222D02*
X147582380Y-38167175D01*
X147582380Y-38167175D02*
X147642857Y-38348603D01*
X147642857Y-38348603D02*
X148368571Y-39074318D01*
X148368571Y-39074318D02*
X147582380Y-39074318D01*
D12*
X163359580Y-17357142D02*
X163407200Y-17309523D01*
X163407200Y-17309523D02*
X163454819Y-17166666D01*
X163454819Y-17166666D02*
X163454819Y-17071428D01*
X163454819Y-17071428D02*
X163407200Y-16928571D01*
X163407200Y-16928571D02*
X163311961Y-16833333D01*
X163311961Y-16833333D02*
X163216723Y-16785714D01*
X163216723Y-16785714D02*
X163026247Y-16738095D01*
X163026247Y-16738095D02*
X162883390Y-16738095D01*
X162883390Y-16738095D02*
X162692914Y-16785714D01*
X162692914Y-16785714D02*
X162597676Y-16833333D01*
X162597676Y-16833333D02*
X162502438Y-16928571D01*
X162502438Y-16928571D02*
X162454819Y-17071428D01*
X162454819Y-17071428D02*
X162454819Y-17166666D01*
X162454819Y-17166666D02*
X162502438Y-17309523D01*
X162502438Y-17309523D02*
X162550057Y-17357142D01*
X162788152Y-18214285D02*
X163454819Y-18214285D01*
X162407200Y-17976190D02*
X163121485Y-17738095D01*
X163121485Y-17738095D02*
X163121485Y-18357142D01*
X162454819Y-18642857D02*
X162454819Y-19309523D01*
X162454819Y-19309523D02*
X163454819Y-18880952D01*
D13*
X43574318Y-4562618D02*
X42304318Y-4562618D01*
X42304318Y-4562618D02*
X42304318Y-4864999D01*
X42304318Y-4864999D02*
X42364794Y-5046428D01*
X42364794Y-5046428D02*
X42485746Y-5167380D01*
X42485746Y-5167380D02*
X42606699Y-5227857D01*
X42606699Y-5227857D02*
X42848603Y-5288333D01*
X42848603Y-5288333D02*
X43030032Y-5288333D01*
X43030032Y-5288333D02*
X43271937Y-5227857D01*
X43271937Y-5227857D02*
X43392889Y-5167380D01*
X43392889Y-5167380D02*
X43513842Y-5046428D01*
X43513842Y-5046428D02*
X43574318Y-4864999D01*
X43574318Y-4864999D02*
X43574318Y-4562618D01*
X43574318Y-5893095D02*
X43574318Y-6134999D01*
X43574318Y-6134999D02*
X43513842Y-6255952D01*
X43513842Y-6255952D02*
X43453365Y-6316428D01*
X43453365Y-6316428D02*
X43271937Y-6437380D01*
X43271937Y-6437380D02*
X43030032Y-6497857D01*
X43030032Y-6497857D02*
X42546222Y-6497857D01*
X42546222Y-6497857D02*
X42425270Y-6437380D01*
X42425270Y-6437380D02*
X42364794Y-6376904D01*
X42364794Y-6376904D02*
X42304318Y-6255952D01*
X42304318Y-6255952D02*
X42304318Y-6014047D01*
X42304318Y-6014047D02*
X42364794Y-5893095D01*
X42364794Y-5893095D02*
X42425270Y-5832618D01*
X42425270Y-5832618D02*
X42546222Y-5772142D01*
X42546222Y-5772142D02*
X42848603Y-5772142D01*
X42848603Y-5772142D02*
X42969556Y-5832618D01*
X42969556Y-5832618D02*
X43030032Y-5893095D01*
X43030032Y-5893095D02*
X43090508Y-6014047D01*
X43090508Y-6014047D02*
X43090508Y-6255952D01*
X43090508Y-6255952D02*
X43030032Y-6376904D01*
X43030032Y-6376904D02*
X42969556Y-6437380D01*
X42969556Y-6437380D02*
X42848603Y-6497857D01*
%TO.C,R27*%
D14*
X129173737Y-41645000D02*
X127726263Y-41645000D01*
X129173737Y-44355000D02*
X127726263Y-44355000D01*
%TO.C,C39*%
X137648752Y-31640000D02*
X136226248Y-31640000D01*
X137648752Y-34360000D02*
X136226248Y-34360000D01*
%TO.C,C3*%
X50023752Y-32140000D02*
X48601248Y-32140000D01*
X50023752Y-34860000D02*
X48601248Y-34860000D01*
%TO.C,C59*%
X212140000Y-19788748D02*
X212140000Y-21211252D01*
X214860000Y-19788748D02*
X214860000Y-21211252D01*
%TO.C,C86*%
X104211252Y-31640000D02*
X102788748Y-31640000D01*
X104211252Y-34360000D02*
X102788748Y-34360000D01*
%TO.C,C67*%
X220640000Y-21211252D02*
X220640000Y-19788748D01*
X223360000Y-21211252D02*
X223360000Y-19788748D01*
%TO.C,C79*%
X157538748Y-41640000D02*
X158961252Y-41640000D01*
X157538748Y-44360000D02*
X158961252Y-44360000D01*
%TO.C,C26*%
X42648752Y-32272500D02*
X41226248Y-32272500D01*
X42648752Y-34992500D02*
X41226248Y-34992500D01*
%TO.C,C71*%
X243340000Y-19726248D02*
X243340000Y-21148752D01*
X246060000Y-19726248D02*
X246060000Y-21148752D01*
%TO.C,R31*%
X132776263Y-41645000D02*
X134223737Y-41645000D01*
X132776263Y-44355000D02*
X134223737Y-44355000D01*
%TO.C,C43*%
X135640000Y-20648752D02*
X135640000Y-19226248D01*
X138360000Y-20648752D02*
X138360000Y-19226248D01*
%TO.C,C84*%
X73898752Y-32390000D02*
X72476248Y-32390000D01*
X73898752Y-35110000D02*
X72476248Y-35110000D01*
%TO.C,C37*%
X34788748Y-11140000D02*
X36211252Y-11140000D01*
X34788748Y-13860000D02*
X36211252Y-13860000D01*
%TO.C,C49*%
X154773752Y-11640000D02*
X153351248Y-11640000D01*
X154773752Y-14360000D02*
X153351248Y-14360000D01*
%TO.C,C68*%
X247140000Y-19726248D02*
X247140000Y-21148752D01*
X249860000Y-19726248D02*
X249860000Y-21148752D01*
%TO.C,D3*%
D10*
X62212000Y-12488000D02*
X62212000Y-7125000D01*
X64788000Y-7412000D02*
X64788000Y-12488000D01*
%TO.C,D12*%
X148212000Y-13038000D02*
X148212000Y-7675000D01*
X150788000Y-7962000D02*
X150788000Y-13038000D01*
%TO.C,C15*%
D14*
X125976248Y-31640000D02*
X127398752Y-31640000D01*
X125976248Y-34360000D02*
X127398752Y-34360000D01*
%TO.C,D6*%
D10*
X126712000Y-13538000D02*
X126712000Y-8175000D01*
X129288000Y-8462000D02*
X129288000Y-13538000D01*
%TO.C,D15*%
X213412000Y-13363000D02*
X213412000Y-8000000D01*
X215988000Y-8287000D02*
X215988000Y-13363000D01*
%TO.C,C7*%
D14*
X48640000Y-21148752D02*
X48640000Y-19726248D01*
X51360000Y-21148752D02*
X51360000Y-19726248D01*
%TO.C,R28*%
X134173737Y-38395000D02*
X132726263Y-38395000D01*
X134173737Y-41105000D02*
X132726263Y-41105000D01*
%TO.C,C11*%
X76140000Y-17211252D02*
X76140000Y-15788748D01*
X78860000Y-17211252D02*
X78860000Y-15788748D01*
%TO.C,C73*%
X240773752Y-11140000D02*
X239351248Y-11140000D01*
X240773752Y-13860000D02*
X239351248Y-13860000D01*
%TO.C,C50*%
X215648752Y-31890000D02*
X214226248Y-31890000D01*
X215648752Y-34610000D02*
X214226248Y-34610000D01*
%TO.C,C28*%
X15726248Y-14640000D02*
X17148752Y-14640000D01*
X15726248Y-17360000D02*
X17148752Y-17360000D01*
%TO.C,Z1*%
D10*
X129600000Y-40625000D02*
X127900000Y-40625000D01*
X130450000Y-39375000D02*
X127900000Y-39375000D01*
%TO.C,C5*%
D14*
X77648752Y-19640000D02*
X76226248Y-19640000D01*
X77648752Y-22360000D02*
X76226248Y-22360000D01*
%TO.C,PS4*%
D11*
X139315000Y-34110000D02*
X139315000Y-34110000D01*
X139315000Y-34110000D02*
X139315000Y-34110000D01*
X139415000Y-34110000D02*
X139415000Y-34110000D01*
D10*
X140515000Y-15140000D02*
X155510000Y-15140000D01*
X140515000Y-30290000D02*
X140515000Y-21540000D01*
X140515000Y-35040000D02*
X155510000Y-35080000D01*
X140520000Y-16790000D02*
X140515000Y-15140000D01*
X155510000Y-15140000D02*
X155510000Y-16790000D01*
X155515000Y-30290000D02*
X155510000Y-21540000D01*
D11*
X139315000Y-34110000D02*
G75*
G02*
X139415000Y-34110000I50000J0D01*
G01*
X139315000Y-34110000D02*
G75*
G02*
X139415000Y-34110000I50000J0D01*
G01*
X139415000Y-34110000D02*
G75*
G02*
X139315000Y-34110000I-50000J0D01*
G01*
%TO.C,C44*%
D14*
X158788748Y-11640000D02*
X160211252Y-11640000D01*
X158788748Y-14360000D02*
X160211252Y-14360000D01*
%TO.C,C63*%
X221711252Y-31890000D02*
X220288748Y-31890000D01*
X221711252Y-34610000D02*
X220288748Y-34610000D01*
%TO.C,C13*%
X69273752Y-11140000D02*
X67851248Y-11140000D01*
X69273752Y-13860000D02*
X67851248Y-13860000D01*
%TO.C,C21*%
X101711252Y-16140000D02*
X100288748Y-16140000D01*
X101711252Y-18860000D02*
X100288748Y-18860000D01*
%TO.C,C90*%
X159961252Y-31640000D02*
X158538748Y-31640000D01*
X159961252Y-34360000D02*
X158538748Y-34360000D01*
%TO.C,PS5*%
D11*
X194500000Y-34110000D02*
X194500000Y-34110000D01*
X194500000Y-34110000D02*
X194500000Y-34110000D01*
X194600000Y-34110000D02*
X194600000Y-34110000D01*
D10*
X195700000Y-15140000D02*
X210695000Y-15140000D01*
X195700000Y-30290000D02*
X195700000Y-21540000D01*
X195700000Y-35040000D02*
X210695000Y-35080000D01*
X195705000Y-16790000D02*
X195700000Y-15140000D01*
X210695000Y-15140000D02*
X210695000Y-16790000D01*
X210700000Y-30290000D02*
X210695000Y-21540000D01*
D11*
X194500000Y-34110000D02*
G75*
G02*
X194600000Y-34110000I50000J0D01*
G01*
X194500000Y-34110000D02*
G75*
G02*
X194600000Y-34110000I50000J0D01*
G01*
X194600000Y-34110000D02*
G75*
G02*
X194500000Y-34110000I-50000J0D01*
G01*
%TO.C,R32*%
D14*
X152476263Y-41645000D02*
X153923737Y-41645000D01*
X152476263Y-44355000D02*
X153923737Y-44355000D01*
%TO.C,C92*%
X191961252Y-31890000D02*
X190538748Y-31890000D01*
X191961252Y-34610000D02*
X190538748Y-34610000D01*
%TO.C,C25*%
X120726248Y-11640000D02*
X122148752Y-11640000D01*
X120726248Y-14360000D02*
X122148752Y-14360000D01*
%TO.C,R29*%
X153973737Y-38395000D02*
X152526263Y-38395000D01*
X153973737Y-41105000D02*
X152526263Y-41105000D01*
%TO.C,PS1*%
D11*
X52300000Y-34110000D02*
X52300000Y-34110000D01*
X52300000Y-34110000D02*
X52300000Y-34110000D01*
X52400000Y-34110000D02*
X52400000Y-34110000D01*
D10*
X53500000Y-15140000D02*
X68495000Y-15140000D01*
X53500000Y-30290000D02*
X53500000Y-21540000D01*
X53500000Y-35040000D02*
X68495000Y-35080000D01*
X53505000Y-16790000D02*
X53500000Y-15140000D01*
X68495000Y-15140000D02*
X68495000Y-16790000D01*
X68500000Y-30290000D02*
X68495000Y-21540000D01*
D11*
X52300000Y-34110000D02*
G75*
G02*
X52400000Y-34110000I50000J0D01*
G01*
X52300000Y-34110000D02*
G75*
G02*
X52400000Y-34110000I50000J0D01*
G01*
X52400000Y-34110000D02*
G75*
G02*
X52300000Y-34110000I-50000J0D01*
G01*
%TO.C,D18*%
D10*
X233412000Y-12988000D02*
X233412000Y-7625000D01*
X235988000Y-7912000D02*
X235988000Y-12988000D01*
%TO.C,C31*%
D14*
X18976248Y-19640000D02*
X20398752Y-19640000D01*
X18976248Y-22360000D02*
X20398752Y-22360000D01*
%TO.C,C19*%
X100288748Y-19640000D02*
X101711252Y-19640000D01*
X100288748Y-22360000D02*
X101711252Y-22360000D01*
%TO.C,C55*%
X190476248Y-19640000D02*
X191898752Y-19640000D01*
X190476248Y-22360000D02*
X191898752Y-22360000D01*
%TO.C,PS2*%
D11*
X106300000Y-34110000D02*
X106300000Y-34110000D01*
X106300000Y-34110000D02*
X106300000Y-34110000D01*
X106400000Y-34110000D02*
X106400000Y-34110000D01*
D10*
X107500000Y-15140000D02*
X122495000Y-15140000D01*
X107500000Y-30290000D02*
X107500000Y-21540000D01*
X107500000Y-35040000D02*
X122495000Y-35080000D01*
X107505000Y-16790000D02*
X107500000Y-15140000D01*
X122495000Y-15140000D02*
X122495000Y-16790000D01*
X122500000Y-30290000D02*
X122495000Y-21540000D01*
D11*
X106300000Y-34110000D02*
G75*
G02*
X106400000Y-34110000I50000J0D01*
G01*
X106300000Y-34110000D02*
G75*
G02*
X106400000Y-34110000I50000J0D01*
G01*
X106400000Y-34110000D02*
G75*
G02*
X106300000Y-34110000I-50000J0D01*
G01*
%TO.C,C56*%
D14*
X186648752Y-19640000D02*
X185226248Y-19640000D01*
X186648752Y-22360000D02*
X185226248Y-22360000D01*
%TO.C,C16*%
X102288748Y-12640000D02*
X103711252Y-12640000D01*
X102288748Y-15360000D02*
X103711252Y-15360000D01*
%TO.C,R30*%
X148973737Y-41645000D02*
X147526263Y-41645000D01*
X148973737Y-44355000D02*
X147526263Y-44355000D01*
%TO.C,C35*%
X40640000Y-19788748D02*
X40640000Y-21211252D01*
X43360000Y-19788748D02*
X43360000Y-21211252D01*
%TO.C,C61*%
X206226248Y-11640000D02*
X207648752Y-11640000D01*
X206226248Y-14360000D02*
X207648752Y-14360000D01*
%TO.C,C23*%
X126788748Y-20140000D02*
X128211252Y-20140000D01*
X126788748Y-22860000D02*
X128211252Y-22860000D01*
%TO.C,C9*%
X72140000Y-12788748D02*
X72140000Y-14211252D01*
X74860000Y-12788748D02*
X74860000Y-14211252D01*
%TO.C,PS6*%
D11*
X223985000Y-34110000D02*
X223985000Y-34110000D01*
X223985000Y-34110000D02*
X223985000Y-34110000D01*
X224085000Y-34110000D02*
X224085000Y-34110000D01*
D10*
X225185000Y-15140000D02*
X240180000Y-15140000D01*
X225185000Y-30290000D02*
X225185000Y-21540000D01*
X225185000Y-35040000D02*
X240180000Y-35080000D01*
X225190000Y-16790000D02*
X225185000Y-15140000D01*
X240180000Y-15140000D02*
X240180000Y-16790000D01*
X240185000Y-30290000D02*
X240180000Y-21540000D01*
D11*
X223985000Y-34110000D02*
G75*
G02*
X224085000Y-34110000I50000J0D01*
G01*
X223985000Y-34110000D02*
G75*
G02*
X224085000Y-34110000I50000J0D01*
G01*
X224085000Y-34110000D02*
G75*
G02*
X223985000Y-34110000I-50000J0D01*
G01*
%TO.C,PS3*%
X21482500Y-34110000D02*
X21482500Y-34110000D01*
X21482500Y-34110000D02*
X21482500Y-34110000D01*
X21582500Y-34110000D02*
X21582500Y-34110000D01*
D10*
X22682500Y-15140000D02*
X37677500Y-15140000D01*
X22682500Y-30290000D02*
X22682500Y-21540000D01*
X22682500Y-35040000D02*
X37677500Y-35080000D01*
X22687500Y-16790000D02*
X22682500Y-15140000D01*
X37677500Y-15140000D02*
X37677500Y-16790000D01*
X37682500Y-30290000D02*
X37677500Y-21540000D01*
D11*
X21482500Y-34110000D02*
G75*
G02*
X21582500Y-34110000I50000J0D01*
G01*
X21482500Y-34110000D02*
G75*
G02*
X21582500Y-34110000I50000J0D01*
G01*
X21582500Y-34110000D02*
G75*
G02*
X21482500Y-34110000I-50000J0D01*
G01*
%TO.C,C64*%
D14*
X245226248Y-14140000D02*
X246648752Y-14140000D01*
X245226248Y-16860000D02*
X246648752Y-16860000D01*
%TO.C,C33*%
X15148752Y-19640000D02*
X13726248Y-19640000D01*
X15148752Y-22360000D02*
X13726248Y-22360000D01*
%TO.C,C53*%
X187226248Y-16140000D02*
X188648752Y-16140000D01*
X187226248Y-18860000D02*
X188648752Y-18860000D01*
%TO.C,C41*%
X159288748Y-20140000D02*
X160711252Y-20140000D01*
X159288748Y-22860000D02*
X160711252Y-22860000D01*
%TO.C,C76*%
X137788748Y-41640000D02*
X139211252Y-41640000D01*
X137788748Y-44360000D02*
X139211252Y-44360000D01*
%TO.C,Z2*%
D10*
X149400000Y-40625000D02*
X147700000Y-40625000D01*
X150250000Y-39375000D02*
X147700000Y-39375000D01*
%TO.C,C47*%
D14*
X159226248Y-16640000D02*
X160648752Y-16640000D01*
X159226248Y-19360000D02*
X160648752Y-19360000D01*
%TO.C,D9*%
D10*
X41712000Y-12988000D02*
X41712000Y-7625000D01*
X44288000Y-7912000D02*
X44288000Y-12988000D01*
%TD*%
M02*
