%TF.GenerationSoftware,KiCad,Pcbnew,10.0.3*%
%TF.CreationDate,2026-07-15T18:11:42-07:00*%
%TF.ProjectId,GateDriver,47617465-4472-4697-9665-722e6b696361,rev?*%
%TF.SameCoordinates,Original*%
%TF.FileFunction,Soldermask,Top*%
%TF.FilePolarity,Negative*%
%FSLAX46Y46*%
G04 Gerber Fmt 4.6, Leading zero omitted, Abs format (unit mm)*
G04 Created by KiCad (PCBNEW 10.0.3) date 2026-07-15 18:11:42*
%MOMM*%
%LPD*%
G01*
G04 APERTURE LIST*
G04 Aperture macros list*
%AMRoundRect*
0 Rectangle with rounded corners*
0 $1 Rounding radius*
0 $2 $3 $4 $5 $6 $7 $8 $9 X,Y pos of 4 corners*
0 Add a 4 corners polygon primitive as box body*
4,1,4,$2,$3,$4,$5,$6,$7,$8,$9,$2,$3,0*
0 Add four circle primitives for the rounded corners*
1,1,$1+$1,$2,$3*
1,1,$1+$1,$4,$5*
1,1,$1+$1,$6,$7*
1,1,$1+$1,$8,$9*
0 Add four rect primitives between the rounded corners*
20,1,$1+$1,$2,$3,$4,$5,0*
20,1,$1+$1,$4,$5,$6,$7,0*
20,1,$1+$1,$6,$7,$8,$9,0*
20,1,$1+$1,$8,$9,$2,$3,0*%
G04 Aperture macros list end*
%ADD10RoundRect,0.250000X1.100000X-0.412500X1.100000X0.412500X-1.100000X0.412500X-1.100000X-0.412500X0*%
%ADD11R,0.650000X1.950000*%
%ADD12RoundRect,0.250000X-0.400000X-1.075000X0.400000X-1.075000X0.400000X1.075000X-0.400000X1.075000X0*%
%ADD13RoundRect,0.250000X0.400000X1.075000X-0.400000X1.075000X-0.400000X-1.075000X0.400000X-1.075000X0*%
%ADD14R,3.500000X1.850000*%
%ADD15RoundRect,0.250000X-1.075000X0.400000X-1.075000X-0.400000X1.075000X-0.400000X1.075000X0.400000X0*%
%ADD16RoundRect,0.250000X-0.412500X-1.100000X0.412500X-1.100000X0.412500X1.100000X-0.412500X1.100000X0*%
%ADD17C,3.000000*%
%ADD18R,1.075000X0.500000*%
%ADD19RoundRect,0.250000X-1.100000X0.412500X-1.100000X-0.412500X1.100000X-0.412500X1.100000X0.412500X0*%
%ADD20RoundRect,0.250000X0.412500X1.100000X-0.412500X1.100000X-0.412500X-1.100000X0.412500X-1.100000X0*%
%ADD21R,1.700000X1.700000*%
%ADD22C,1.700000*%
%ADD23C,9.500000*%
%ADD24R,1.000000X1.750000*%
%ADD25RoundRect,0.200000X0.900000X0.200000X-0.900000X0.200000X-0.900000X-0.200000X0.900000X-0.200000X0*%
%ADD26RoundRect,0.249997X2.950003X2.650003X-2.950003X2.650003X-2.950003X-2.650003X2.950003X-2.650003X0*%
%ADD27C,1.600000*%
%ADD28R,1.020000X5.250000*%
%ADD29R,1.019998X5.250000*%
%ADD30R,1.026429X5.248699*%
%ADD31R,1.900000X3.450000*%
G04 APERTURE END LIST*
D10*
%TO.C,C66*%
X225500000Y-20562500D03*
X225500000Y-17437500D03*
%TD*%
D11*
%TO.C,IC3*%
X34627500Y-23275000D03*
X33357500Y-23275000D03*
X32087500Y-23275000D03*
X30817500Y-23275000D03*
X29547500Y-23275000D03*
X28277500Y-23275000D03*
X27007500Y-23275000D03*
X25737500Y-23275000D03*
X25737500Y-32725000D03*
X27007500Y-32725000D03*
X28277500Y-32725000D03*
X29547500Y-32725000D03*
X30817500Y-32725000D03*
X32087500Y-32725000D03*
X33357500Y-32725000D03*
X34627500Y-32725000D03*
%TD*%
D12*
%TO.C,R18*%
X149500000Y-13000000D03*
X152600000Y-13000000D03*
%TD*%
D13*
%TO.C,R14*%
X40050000Y-12500000D03*
X36950000Y-12500000D03*
%TD*%
D14*
%TO.C,C74*%
X165950000Y-40500000D03*
X171250000Y-40500000D03*
%TD*%
D15*
%TO.C,R13*%
X33182500Y-15582500D03*
X33182500Y-18682500D03*
%TD*%
D16*
%TO.C,C65*%
X244375000Y-15000000D03*
X247500000Y-15000000D03*
%TD*%
D17*
%TO.C,TP1*%
X61000000Y-42000000D03*
%TD*%
D18*
%TO.C,D4*%
X123662000Y-20000000D03*
X121338000Y-20000000D03*
%TD*%
D12*
%TO.C,R26*%
X235000000Y-12500000D03*
X238100000Y-12500000D03*
%TD*%
D19*
%TO.C,C58*%
X213750000Y-18937500D03*
X213750000Y-22062500D03*
%TD*%
D20*
%TO.C,C83*%
X71750000Y-33750000D03*
X68625000Y-33750000D03*
%TD*%
D10*
%TO.C,C8*%
X77500000Y-18062500D03*
X77500000Y-14937500D03*
%TD*%
D21*
%TO.C,J6*%
X94000000Y-40000000D03*
D22*
X94000000Y-42540000D03*
X96540000Y-40000000D03*
X96540000Y-42540000D03*
X99080000Y-40000000D03*
X99080000Y-42540000D03*
X101620000Y-40000000D03*
X101620000Y-42540000D03*
X104160000Y-40000000D03*
X104160000Y-42540000D03*
X106700000Y-40000000D03*
X106700000Y-42540000D03*
X109240000Y-40000000D03*
X109240000Y-42540000D03*
X111780000Y-40000000D03*
X111780000Y-42540000D03*
X114320000Y-40000000D03*
X114320000Y-42540000D03*
X116860000Y-40000000D03*
X116860000Y-42540000D03*
%TD*%
D23*
%TO.C,H1*%
X5500000Y-5500000D03*
%TD*%
D17*
%TO.C,TP10*%
X243000000Y-8500000D03*
%TD*%
D15*
%TO.C,R24*%
X232500000Y-16325000D03*
X232500000Y-19425000D03*
%TD*%
D23*
%TO.C,H4*%
X85000000Y-39500000D03*
%TD*%
D20*
%TO.C,C14*%
X124750000Y-33000000D03*
X121625000Y-33000000D03*
%TD*%
D16*
%TO.C,C27*%
X36937500Y-33250000D03*
X40062500Y-33250000D03*
%TD*%
D10*
%TO.C,C6*%
X53500000Y-21062500D03*
X53500000Y-17937500D03*
%TD*%
D20*
%TO.C,C85*%
X108312500Y-33000000D03*
X105187500Y-33000000D03*
%TD*%
D18*
%TO.C,D14*%
X211000000Y-16500000D03*
X208676000Y-16500000D03*
%TD*%
%TO.C,D1*%
X69147000Y-20000000D03*
X66823000Y-20000000D03*
%TD*%
D19*
%TO.C,C34*%
X42000000Y-18937500D03*
X42000000Y-22062500D03*
%TD*%
D20*
%TO.C,C94*%
X240062500Y-40750000D03*
X236937500Y-40750000D03*
%TD*%
D16*
%TO.C,C60*%
X189500000Y-21000000D03*
X192625000Y-21000000D03*
%TD*%
%TO.C,C22*%
X126000000Y-21500000D03*
X129125000Y-21500000D03*
%TD*%
D15*
%TO.C,R7*%
X110000000Y-16450000D03*
X110000000Y-19550000D03*
%TD*%
D14*
%TO.C,C75*%
X49000000Y-40250000D03*
X54300000Y-40250000D03*
%TD*%
D24*
%TO.C,LED1*%
X201200000Y-43000000D03*
X198200000Y-43000000D03*
%TD*%
D23*
%TO.C,H6*%
X180000000Y-39500000D03*
%TD*%
D15*
%TO.C,R4*%
X60500000Y-16450000D03*
X60500000Y-19550000D03*
%TD*%
D16*
%TO.C,C2*%
X50687500Y-33250000D03*
X53812500Y-33250000D03*
%TD*%
D14*
%TO.C,C77*%
X155950000Y-40500000D03*
X161250000Y-40500000D03*
%TD*%
D17*
%TO.C,TP13*%
X21000000Y-10000000D03*
%TD*%
D18*
%TO.C,D7*%
X39344500Y-19132500D03*
X37020500Y-19132500D03*
%TD*%
D16*
%TO.C,C46*%
X158375000Y-18000000D03*
X161500000Y-18000000D03*
%TD*%
D13*
%TO.C,R2*%
X191100000Y-39750000D03*
X188000000Y-39750000D03*
%TD*%
D15*
%TO.C,R8*%
X114000000Y-16450000D03*
X114000000Y-19550000D03*
%TD*%
%TO.C,R19*%
X198200000Y-16325000D03*
X198200000Y-19425000D03*
%TD*%
D16*
%TO.C,C52*%
X186375000Y-17500000D03*
X189500000Y-17500000D03*
%TD*%
D17*
%TO.C,TP7*%
X42000000Y-16000000D03*
%TD*%
D16*
%TO.C,C17*%
X101437500Y-14000000D03*
X104562500Y-14000000D03*
%TD*%
D18*
%TO.C,D13*%
X211162000Y-19000000D03*
X208838000Y-19000000D03*
%TD*%
%TO.C,D5*%
X124162000Y-17000000D03*
X121838000Y-17000000D03*
%TD*%
D16*
%TO.C,C93*%
X236937500Y-37250000D03*
X240062500Y-37250000D03*
%TD*%
D18*
%TO.C,D10*%
X156162000Y-21000000D03*
X153838000Y-21000000D03*
%TD*%
D16*
%TO.C,C62*%
X222937500Y-33250000D03*
X226062500Y-33250000D03*
%TD*%
D25*
%TO.C,U6*%
X150800000Y-43280000D03*
X150800000Y-42140000D03*
D26*
X144500000Y-41000000D03*
D25*
X150800000Y-39860000D03*
X150800000Y-38720000D03*
%TD*%
D17*
%TO.C,TP12*%
X107500000Y-11500000D03*
%TD*%
D12*
%TO.C,R6*%
X64000000Y-12500000D03*
X67100000Y-12500000D03*
%TD*%
D16*
%TO.C,C29*%
X14937500Y-15867500D03*
X18062500Y-15867500D03*
%TD*%
D23*
%TO.C,H2*%
X5500000Y-39500000D03*
%TD*%
D10*
%TO.C,C48*%
X137000000Y-21562500D03*
X137000000Y-18437500D03*
%TD*%
%TO.C,C12*%
X50000000Y-22000000D03*
X50000000Y-18875000D03*
%TD*%
D17*
%TO.C,TP14*%
X137000000Y-14000000D03*
%TD*%
D15*
%TO.C,R5*%
X63985000Y-16450000D03*
X63985000Y-19550000D03*
%TD*%
%TO.C,R9*%
X118000000Y-16450000D03*
X118000000Y-19550000D03*
%TD*%
D17*
%TO.C,TP11*%
X50500000Y-15500000D03*
%TD*%
D18*
%TO.C,D2*%
X69147000Y-17000000D03*
X66823000Y-17000000D03*
%TD*%
D20*
%TO.C,C88*%
X25500000Y-42500000D03*
X22375000Y-42500000D03*
%TD*%
D16*
%TO.C,C32*%
X12937500Y-21000000D03*
X16062500Y-21000000D03*
%TD*%
D23*
%TO.C,H8*%
X254500000Y-39500000D03*
%TD*%
D13*
%TO.C,R1*%
X196250000Y-43000000D03*
X193150000Y-43000000D03*
%TD*%
D10*
%TO.C,C30*%
X21182500Y-17000000D03*
X21182500Y-13875000D03*
%TD*%
D24*
%TO.C,LED2*%
X196050000Y-39750000D03*
X193050000Y-39750000D03*
%TD*%
D17*
%TO.C,TP9*%
X214000000Y-16000000D03*
%TD*%
%TO.C,TP2*%
X66000000Y-42000000D03*
%TD*%
D27*
%TO.C,J3*%
X198250000Y-5375000D03*
X237150000Y-5375000D03*
D28*
X202200000Y-7000000D03*
X208400000Y-7000000D03*
X214600000Y-7000000D03*
D29*
X220799999Y-7000000D03*
D28*
X227000000Y-7000000D03*
D30*
X233196780Y-6999349D03*
D31*
X196650000Y-7900000D03*
X196650000Y-2850000D03*
X238750000Y-7900000D03*
X238750000Y-2850000D03*
%TD*%
D20*
%TO.C,C45*%
X161125000Y-13000000D03*
X158000000Y-13000000D03*
%TD*%
D11*
%TO.C,IC4*%
X151945000Y-23275000D03*
X150675000Y-23275000D03*
X149405000Y-23275000D03*
X148135000Y-23275000D03*
X146865000Y-23275000D03*
X145595000Y-23275000D03*
X144325000Y-23275000D03*
X143055000Y-23275000D03*
X143055000Y-32725000D03*
X144325000Y-32725000D03*
X145595000Y-32725000D03*
X146865000Y-32725000D03*
X148135000Y-32725000D03*
X149405000Y-32725000D03*
X150675000Y-32725000D03*
X151945000Y-32725000D03*
%TD*%
D25*
%TO.C,U5*%
X131000000Y-43280000D03*
X131000000Y-42140000D03*
D26*
X124700000Y-41000000D03*
D25*
X131000000Y-39860000D03*
X131000000Y-38720000D03*
%TD*%
D27*
%TO.C,J1*%
X26650000Y-5500000D03*
X65550000Y-5500000D03*
D28*
X30600000Y-7125000D03*
X36800000Y-7125000D03*
X43000000Y-7125000D03*
D29*
X49199999Y-7125000D03*
D28*
X55400000Y-7125000D03*
D30*
X61596780Y-7124349D03*
D31*
X25050000Y-8025000D03*
X25050000Y-2975000D03*
X67150000Y-8025000D03*
X67150000Y-2975000D03*
%TD*%
D19*
%TO.C,C70*%
X244700000Y-18875000D03*
X244700000Y-22000000D03*
%TD*%
D13*
%TO.C,R10*%
X126050000Y-13000000D03*
X122950000Y-13000000D03*
%TD*%
D14*
%TO.C,C82*%
X218250000Y-40500000D03*
X223550000Y-40500000D03*
%TD*%
D20*
%TO.C,C4*%
X78562500Y-21000000D03*
X75437500Y-21000000D03*
%TD*%
D19*
%TO.C,C10*%
X72500000Y-17437500D03*
X72500000Y-20562500D03*
%TD*%
D15*
%TO.C,R15*%
X144000000Y-16450000D03*
X144000000Y-19550000D03*
%TD*%
D16*
%TO.C,C36*%
X18000000Y-21000000D03*
X21125000Y-21000000D03*
%TD*%
D18*
%TO.C,D11*%
X156162000Y-18000000D03*
X153838000Y-18000000D03*
%TD*%
D17*
%TO.C,TP4*%
X76000000Y-42000000D03*
%TD*%
D16*
%TO.C,C87*%
X22375000Y-38250000D03*
X25500000Y-38250000D03*
%TD*%
D10*
%TO.C,C72*%
X222000000Y-22125000D03*
X222000000Y-19000000D03*
%TD*%
D15*
%TO.C,R25*%
X235700000Y-16325000D03*
X235700000Y-19425000D03*
%TD*%
D10*
%TO.C,C18*%
X106500000Y-22062500D03*
X106500000Y-18937500D03*
%TD*%
D18*
%TO.C,D17*%
X242024000Y-17875000D03*
X239700000Y-17875000D03*
%TD*%
D15*
%TO.C,R21*%
X206200000Y-16325000D03*
X206200000Y-19425000D03*
%TD*%
D11*
%TO.C,IC5*%
X207645000Y-23275000D03*
X206375000Y-23275000D03*
X205105000Y-23275000D03*
X203835000Y-23275000D03*
X202565000Y-23275000D03*
X201295000Y-23275000D03*
X200025000Y-23275000D03*
X198755000Y-23275000D03*
X198755000Y-32725000D03*
X200025000Y-32725000D03*
X201295000Y-32725000D03*
X202565000Y-32725000D03*
X203835000Y-32725000D03*
X205105000Y-32725000D03*
X206375000Y-32725000D03*
X207645000Y-32725000D03*
%TD*%
D16*
%TO.C,C51*%
X209750000Y-33250000D03*
X212875000Y-33250000D03*
%TD*%
D13*
%TO.C,R22*%
X211500000Y-13000000D03*
X208400000Y-13000000D03*
%TD*%
D15*
%TO.C,R12*%
X29182500Y-15582500D03*
X29182500Y-18682500D03*
%TD*%
D23*
%TO.C,H7*%
X254500000Y-5500000D03*
%TD*%
D18*
%TO.C,D16*%
X241862000Y-20875000D03*
X239538000Y-20875000D03*
%TD*%
D16*
%TO.C,C40*%
X158437500Y-21500000D03*
X161562500Y-21500000D03*
%TD*%
D18*
%TO.C,D8*%
X38662000Y-16132500D03*
X36338000Y-16132500D03*
%TD*%
D15*
%TO.C,R3*%
X57000000Y-16450000D03*
X57000000Y-19550000D03*
%TD*%
D10*
%TO.C,C42*%
X140500000Y-21062500D03*
X140500000Y-17937500D03*
%TD*%
D16*
%TO.C,C24*%
X99500000Y-21000000D03*
X102625000Y-21000000D03*
%TD*%
D15*
%TO.C,R20*%
X202200000Y-16325000D03*
X202200000Y-19425000D03*
%TD*%
D27*
%TO.C,J2*%
X112950001Y-5500000D03*
X151850001Y-5500000D03*
D28*
X116900001Y-7125000D03*
X123100001Y-7125000D03*
X129300001Y-7125000D03*
D29*
X135500000Y-7125000D03*
D28*
X141700001Y-7125000D03*
D30*
X147896781Y-7124349D03*
D31*
X111350001Y-8025000D03*
X111350001Y-2975000D03*
X153450001Y-8025000D03*
X153450001Y-2975000D03*
%TD*%
D14*
%TO.C,C78*%
X208250000Y-40500000D03*
X213550000Y-40500000D03*
%TD*%
D17*
%TO.C,TP5*%
X71000000Y-8500000D03*
%TD*%
D20*
%TO.C,C89*%
X157562500Y-33250000D03*
X154437500Y-33250000D03*
%TD*%
D14*
%TO.C,C80*%
X39000000Y-40250000D03*
X44300000Y-40250000D03*
%TD*%
%TO.C,C81*%
X228250000Y-40500000D03*
X233550000Y-40500000D03*
%TD*%
D15*
%TO.C,R11*%
X25182500Y-15582500D03*
X25182500Y-18682500D03*
%TD*%
D11*
%TO.C,IC6*%
X237010000Y-23275000D03*
X235740000Y-23275000D03*
X234470000Y-23275000D03*
X233200000Y-23275000D03*
X231930000Y-23275000D03*
X230660000Y-23275000D03*
X229390000Y-23275000D03*
X228120000Y-23275000D03*
X228120000Y-32725000D03*
X229390000Y-32725000D03*
X230660000Y-32725000D03*
X231930000Y-32725000D03*
X233200000Y-32725000D03*
X234470000Y-32725000D03*
X235740000Y-32725000D03*
X237010000Y-32725000D03*
%TD*%
D23*
%TO.C,H3*%
X85000000Y-5500000D03*
%TD*%
D16*
%TO.C,C38*%
X137750000Y-33000000D03*
X140875000Y-33000000D03*
%TD*%
D15*
%TO.C,R17*%
X151000000Y-16450000D03*
X151000000Y-19550000D03*
%TD*%
%TO.C,R16*%
X147500000Y-16450000D03*
X147500000Y-19550000D03*
%TD*%
D23*
%TO.C,H5*%
X180000000Y-5500000D03*
%TD*%
D17*
%TO.C,TP6*%
X128000000Y-17500000D03*
%TD*%
D20*
%TO.C,C91*%
X195812500Y-33250000D03*
X192687500Y-33250000D03*
%TD*%
D11*
%TO.C,IC2*%
X119445000Y-23275000D03*
X118175000Y-23275000D03*
X116905000Y-23275000D03*
X115635000Y-23275000D03*
X114365000Y-23275000D03*
X113095000Y-23275000D03*
X111825000Y-23275000D03*
X110555000Y-23275000D03*
X110555000Y-32725000D03*
X111825000Y-32725000D03*
X113095000Y-32725000D03*
X114365000Y-32725000D03*
X115635000Y-32725000D03*
X116905000Y-32725000D03*
X118175000Y-32725000D03*
X119445000Y-32725000D03*
%TD*%
D16*
%TO.C,C57*%
X184437500Y-21000000D03*
X187562500Y-21000000D03*
%TD*%
D20*
%TO.C,C54*%
X195062500Y-17500000D03*
X191937500Y-17500000D03*
%TD*%
D10*
%TO.C,C69*%
X248500000Y-22000000D03*
X248500000Y-18875000D03*
%TD*%
D17*
%TO.C,TP3*%
X71000000Y-42000000D03*
%TD*%
%TO.C,TP16*%
X222500000Y-14000000D03*
%TD*%
D16*
%TO.C,C20*%
X99437500Y-17500000D03*
X102562500Y-17500000D03*
%TD*%
D17*
%TO.C,TP15*%
X194000000Y-12000000D03*
%TD*%
%TO.C,TP8*%
X157500000Y-9000000D03*
%TD*%
D14*
%TO.C,C1*%
X29100000Y-40250000D03*
X34400000Y-40250000D03*
%TD*%
D15*
%TO.C,R23*%
X229000000Y-16325000D03*
X229000000Y-19425000D03*
%TD*%
D11*
%TO.C,IC1*%
X64930000Y-23275000D03*
X63660000Y-23275000D03*
X62390000Y-23275000D03*
X61120000Y-23275000D03*
X59850000Y-23275000D03*
X58580000Y-23275000D03*
X57310000Y-23275000D03*
X56040000Y-23275000D03*
X56040000Y-32725000D03*
X57310000Y-32725000D03*
X58580000Y-32725000D03*
X59850000Y-32725000D03*
X61120000Y-32725000D03*
X62390000Y-32725000D03*
X63660000Y-32725000D03*
X64930000Y-32725000D03*
%TD*%
M02*
