%TF.GenerationSoftware,KiCad,Pcbnew,10.0.3*%
%TF.CreationDate,2026-05-26T21:14:49-07:00*%
%TF.ProjectId,GateDriver,47617465-4472-4697-9665-722e6b696361,rev?*%
%TF.SameCoordinates,Original*%
%TF.FileFunction,Paste,Bot*%
%TF.FilePolarity,Positive*%
%FSLAX46Y46*%
G04 Gerber Fmt 4.6, Leading zero omitted, Abs format (unit mm)*
G04 Created by KiCad (PCBNEW 10.0.3) date 2026-05-26 21:14:49*
%MOMM*%
%LPD*%
G01*
G04 APERTURE LIST*
G04 Aperture macros list*
%AMRoundRect*
0 Rectangle with rounded corners*
0 $1 Rounding radius*
0 $2 $3 $4 $5 $6 $7 $8 $9 X,Y pos of 4 corners*
0 Add a 4 corners polygon primitive as box body*
4,1,4,$2,$3,$4,$5,$6,$7,$8,$9,$2,$3,0*
0 Add four circle primitives for the rounded corners*
1,1,$1+$1,$2,$3*
1,1,$1+$1,$4,$5*
1,1,$1+$1,$6,$7*
1,1,$1+$1,$8,$9*
0 Add four rect primitives between the rounded corners*
20,1,$1+$1,$2,$3,$4,$5,0*
20,1,$1+$1,$4,$5,$6,$7,0*
20,1,$1+$1,$6,$7,$8,$9,0*
20,1,$1+$1,$8,$9,$2,$3,0*%
G04 Aperture macros list end*
%ADD10RoundRect,0.250000X1.100000X-0.412500X1.100000X0.412500X-1.100000X0.412500X-1.100000X-0.412500X0*%
%ADD11RoundRect,0.250000X-1.100000X0.412500X-1.100000X-0.412500X1.100000X-0.412500X1.100000X0.412500X0*%
%ADD12RoundRect,0.250000X-0.412500X-1.100000X0.412500X-1.100000X0.412500X1.100000X-0.412500X1.100000X0*%
%ADD13RoundRect,0.250000X0.412500X1.100000X-0.412500X1.100000X-0.412500X-1.100000X0.412500X-1.100000X0*%
%ADD14RoundRect,0.250000X-0.400000X-1.075000X0.400000X-1.075000X0.400000X1.075000X-0.400000X1.075000X0*%
%ADD15R,2.300000X1.000000*%
%ADD16RoundRect,0.250000X0.400000X1.075000X-0.400000X1.075000X-0.400000X-1.075000X0.400000X-1.075000X0*%
G04 APERTURE END LIST*
D10*
%TO.C,C39*%
X159000000Y-34000000D03*
X159000000Y-30875000D03*
%TD*%
%TO.C,C3*%
X68750000Y-33812500D03*
X68750000Y-30687500D03*
%TD*%
D11*
%TO.C,C59*%
X217000000Y-20437500D03*
X217000000Y-23562500D03*
%TD*%
D10*
%TO.C,C67*%
X227000000Y-24562500D03*
X227000000Y-21437500D03*
%TD*%
D11*
%TO.C,C71*%
X249000000Y-20437500D03*
X249000000Y-23562500D03*
%TD*%
D12*
%TO.C,C27*%
X28437500Y-37000000D03*
X31562500Y-37000000D03*
%TD*%
%TO.C,C43*%
X136187500Y-23000000D03*
X139312500Y-23000000D03*
%TD*%
D13*
%TO.C,C37*%
X37562500Y-14000000D03*
X34437500Y-14000000D03*
%TD*%
%TO.C,C49*%
X160562500Y-14000000D03*
X157437500Y-14000000D03*
%TD*%
D11*
%TO.C,C68*%
X255000000Y-20437500D03*
X255000000Y-23562500D03*
%TD*%
D12*
%TO.C,C15*%
X125437500Y-32500000D03*
X128562500Y-32500000D03*
%TD*%
D10*
%TO.C,C7*%
X47500000Y-23625000D03*
X47500000Y-20500000D03*
%TD*%
D14*
%TO.C,R2*%
X230200000Y-42500000D03*
X233300000Y-42500000D03*
%TD*%
D11*
%TO.C,C11*%
X69000000Y-20437500D03*
X69000000Y-23562500D03*
%TD*%
D13*
%TO.C,C73*%
X249562500Y-15000000D03*
X246437500Y-15000000D03*
%TD*%
D11*
%TO.C,C50*%
X216750000Y-30937500D03*
X216750000Y-34062500D03*
%TD*%
D13*
%TO.C,C28*%
X11562500Y-18000000D03*
X8437500Y-18000000D03*
%TD*%
%TO.C,C5*%
X76562500Y-20000000D03*
X73437500Y-20000000D03*
%TD*%
D15*
%TO.C,PS4*%
X141030000Y-34000000D03*
X141030000Y-20540000D03*
X141030000Y-18000000D03*
X155000000Y-18000000D03*
X155000000Y-20540000D03*
X155000000Y-31460000D03*
X155000000Y-34000000D03*
%TD*%
D12*
%TO.C,C63*%
X240437500Y-37000000D03*
X243562500Y-37000000D03*
%TD*%
D13*
%TO.C,C13*%
X70125000Y-14000000D03*
X67000000Y-14000000D03*
%TD*%
%TO.C,C21*%
X101562500Y-18000000D03*
X98437500Y-18000000D03*
%TD*%
D15*
%TO.C,PS5*%
X198015000Y-34000000D03*
X198015000Y-20540000D03*
X198015000Y-18000000D03*
X211985000Y-18000000D03*
X211985000Y-20540000D03*
X211985000Y-31460000D03*
X211985000Y-34000000D03*
%TD*%
D16*
%TO.C,R1*%
X240550000Y-41000000D03*
X237450000Y-41000000D03*
%TD*%
D13*
%TO.C,C25*%
X127562500Y-14000000D03*
X124437500Y-14000000D03*
%TD*%
D15*
%TO.C,PS1*%
X51030000Y-34000000D03*
X51030000Y-20540000D03*
X51030000Y-18000000D03*
X65000000Y-18000000D03*
X65000000Y-20540000D03*
X65000000Y-31460000D03*
X65000000Y-34000000D03*
%TD*%
D12*
%TO.C,C31*%
X13437500Y-23000000D03*
X16562500Y-23000000D03*
%TD*%
%TO.C,C19*%
X102875000Y-23000000D03*
X106000000Y-23000000D03*
%TD*%
%TO.C,C55*%
X193125000Y-23000000D03*
X196250000Y-23000000D03*
%TD*%
D15*
%TO.C,PS2*%
X108015000Y-33960000D03*
X108015000Y-20500000D03*
X108015000Y-17960000D03*
X121985000Y-17960000D03*
X121985000Y-20500000D03*
X121985000Y-31420000D03*
X121985000Y-33960000D03*
%TD*%
D13*
%TO.C,C56*%
X190500000Y-23000000D03*
X187375000Y-23000000D03*
%TD*%
D11*
%TO.C,C35*%
X37000000Y-19437500D03*
X37000000Y-22562500D03*
%TD*%
D13*
%TO.C,C61*%
X217562500Y-14000000D03*
X214437500Y-14000000D03*
%TD*%
D11*
%TO.C,C23*%
X127000000Y-20437500D03*
X127000000Y-23562500D03*
%TD*%
D15*
%TO.C,PS6*%
X230000000Y-33960000D03*
X230000000Y-20500000D03*
X230000000Y-17960000D03*
X243970000Y-17960000D03*
X243970000Y-20500000D03*
X243970000Y-31420000D03*
X243970000Y-33960000D03*
%TD*%
%TO.C,PS3*%
X18015000Y-34000000D03*
X18015000Y-20540000D03*
X18015000Y-18000000D03*
X31985000Y-18000000D03*
X31985000Y-20540000D03*
X31985000Y-31460000D03*
X31985000Y-34000000D03*
%TD*%
D12*
%TO.C,C64*%
X252437500Y-17000000D03*
X255562500Y-17000000D03*
%TD*%
D13*
%TO.C,C33*%
X11312500Y-23000000D03*
X8187500Y-23000000D03*
%TD*%
D12*
%TO.C,C41*%
X163437500Y-23000000D03*
X166562500Y-23000000D03*
%TD*%
D11*
%TO.C,C47*%
X159000000Y-20437500D03*
X159000000Y-23562500D03*
%TD*%
M02*
