M48
; DRILL file KiCad 10.0.3 date 2026-08-29T23:36:38
; FORMAT={-:-/ absolute / metric / decimal}
; #@! TF.CreationDate,2026-08-29T23:36:38-07:00
; #@! TF.GenerationSoftware,Kicad,Pcbnew,10.0.3
; #@! TF.FileFunction,MixedPlating,1,6
FMAT,2
METRIC
; #@! TA.AperFunction,Plated,PTH,ViaDrill
T1C0.300
; #@! TA.AperFunction,Plated,PTH,ComponentDrill
T2C1.000
; #@! TA.AperFunction,Plated,PTH,ComponentDrill
T3C1.500
; #@! TA.AperFunction,Plated,PTH,ComponentDrill
T4C5.300
; #@! TA.AperFunction,NonPlated,NPTH,ComponentDrill
T5C1.600
%
G90
G05
T1
X12.938Y-21.0
X14.875Y-16.0
X16.0Y-21.0
X18.0Y-16.0
X18.0Y-21.0
X21.0Y-13.5
X21.125Y-21.0
X21.182Y-17.0
X23.197Y-20.54
X23.25Y-34.25
X25.182Y-15.582
X25.5Y-38.25
X25.5Y-42.25
X25.75Y-33.0
X26.182Y-20.633
X27.0Y-35.75
X28.25Y-36.5
X29.182Y-20.633
X29.5Y-37.25
X29.75Y-40.5
X31.0Y-38.0
X32.0Y-20.5
X32.25Y-38.75
X33.182Y-15.582
X33.5Y-33.0
X33.938Y-12.5
X34.25Y-40.5
X34.75Y-32.75
X35.5Y-14.5
X36.182Y-22.133
X36.5Y-20.5
X36.95Y-12.5
X37.0Y-7.0
X37.75Y-33.0
X38.5Y-21.5
X38.5Y-34.25
X39.0Y-40.5
X39.212Y-33.0
X41.5Y-33.75
X42.182Y-18.57
X42.182Y-18.57
X42.182Y-21.695
X42.367Y-12.867
X43.0Y-8.95
X43.25Y-33.5
X44.5Y-40.5
X47.75Y-33.25
X49.0Y-40.25
X49.712Y-33.25
X50.0Y-18.875
X50.0Y-22.0
X50.5Y-20.5
X51.85Y-33.5
X53.0Y-22.5
X53.5Y-11.5
X53.5Y-15.0
X53.5Y-21.062
X53.5Y-32.5
X54.75Y-40.25
X55.125Y-22.36
X55.25Y-34.0
X55.5Y-7.5
X55.665Y-18.0
X55.985Y-16.45
X56.0Y-33.0
X56.485Y-21.5
X57.5Y-36.5
X57.5Y-42.25
X57.75Y-40.25
X58.0Y-13.5
X58.5Y-44.0
X58.75Y-35.75
X59.485Y-21.5
X60.0Y-37.25
X61.25Y-38.0
X62.0Y-8.0
X62.0Y-14.5
X62.5Y-21.5
X62.5Y-38.75
X63.487Y-43.996
X63.5Y-12.0
X63.5Y-40.0
X63.75Y-32.75
X63.985Y-16.45
X65.0Y-33.0
X65.5Y-21.5
X66.0Y-37.25
X67.0Y-12.5
X68.0Y-22.0
X68.5Y-43.75
X68.75Y-34.0
X68.75Y-40.5
X70.0Y-19.5
X70.438Y-12.5
X71.0Y-38.75
X71.75Y-33.75
X72.5Y-17.438
X72.5Y-20.5
X73.5Y-15.0
X73.5Y-40.25
X73.5Y-44.0
X73.562Y-12.5
X74.75Y-33.75
X75.438Y-21.0
X76.737Y-32.989
X77.5Y-14.938
X77.5Y-18.062
X78.562Y-21.0
X78.75Y-39.25
X78.997Y-43.717
X90.218Y-43.717
X91.0Y-38.25
X92.25Y-35.75
X92.25Y-37.25
X94.75Y-32.5
X95.25Y-36.5
X95.25Y-38.0
X96.54Y-35.0
X96.54Y-36.5
X97.93Y-33.5
X99.08Y-34.25
X99.438Y-17.5
X99.438Y-21.0
X100.0Y-32.75
X100.5Y-35.0
X101.438Y-14.0
X101.5Y-35.75
X102.0Y-33.0
X102.562Y-17.5
X102.562Y-21.0
X104.562Y-14.0
X105.188Y-33.0
X106.0Y-19.0
X106.5Y-22.062
X107.562Y-20.5
X108.0Y-34.0
X110.0Y-16.45
X110.5Y-33.0
X111.0Y-21.5
X111.75Y-35.0
X113.0Y-35.75
X114.0Y-21.5
X114.5Y-36.5
X115.75Y-37.25
X117.0Y-21.5
X117.0Y-38.0
X118.0Y-16.45
X118.25Y-33.0
X119.5Y-32.75
X119.75Y-39.4
X120.0Y-21.5
X120.375Y-41.04
X120.5Y-44.04
X120.75Y-39.4
X121.75Y-32.75
X122.95Y-13.0
X123.0Y-7.0
X123.0Y-22.0
X123.25Y-34.0
X126.0Y-21.5
X126.0Y-33.0
X128.0Y-13.05
X128.5Y-33.25
X128.5Y-40.0
X128.5Y-42.0
X128.75Y-38.75
X129.125Y-21.5
X129.3Y-7.125
X130.0Y-41.0
X131.484Y-33.236
X133.25Y-41.75
X135.0Y-33.25
X135.0Y-39.5
X136.0Y-44.0
X137.0Y-18.438
X137.0Y-21.5
X138.0Y-40.75
X139.25Y-32.75
X140.5Y-21.062
X141.0Y-32.5
X141.5Y-7.5
X142.75Y-18.0
X142.75Y-34.25
X143.0Y-16.45
X143.0Y-33.0
X143.5Y-21.5
X144.5Y-35.75
X145.75Y-35.0
X146.5Y-21.5
X147.0Y-36.5
X147.897Y-7.124
X148.25Y-37.25
X148.75Y-38.75
X149.25Y-38.0
X149.5Y-13.0
X149.5Y-21.5
X149.75Y-41.0
X150.75Y-34.25
X151.0Y-16.45
X151.0Y-35.75
X151.75Y-35.0
X152.0Y-32.75
X152.5Y-21.5
X152.6Y-13.0
X153.25Y-38.72
X154.15Y-39.1
X154.8Y-39.75
X155.0Y-34.0
X155.5Y-22.0
X155.525Y-40.475
X155.75Y-43.25
X157.688Y-33.0
X158.0Y-13.0
X158.375Y-18.0
X158.438Y-21.5
X160.75Y-33.0
X161.125Y-13.0
X161.5Y-18.0
X161.562Y-21.5
X161.75Y-40.0
X164.5Y-17.5
X164.5Y-20.5
X164.75Y-43.5
X165.0Y-33.0
X165.75Y-40.5
X167.75Y-33.0
X170.5Y-33.25
X171.5Y-40.75
X174.0Y-39.25
X174.5Y-43.25
X184.438Y-21.0
X184.5Y-43.75
X186.0Y-39.0
X186.375Y-17.5
X187.5Y-21.0
X187.85Y-39.75
X188.5Y-43.25
X189.5Y-17.5
X189.625Y-21.0
X189.688Y-33.25
X192.688Y-33.25
X192.75Y-21.0
X193.25Y-43.0
X195.062Y-17.5
X195.75Y-34.25
X196.1Y-39.75
X196.215Y-20.54
X198.2Y-16.325
X198.75Y-33.0
X199.2Y-21.375
X200.0Y-35.75
X201.0Y-43.0
X201.25Y-35.0
X202.2Y-21.375
X202.5Y-36.5
X203.75Y-37.25
X205.0Y-21.5
X205.25Y-38.0
X206.2Y-16.325
X206.5Y-33.0
X207.75Y-33.0
X208.0Y-21.5
X208.25Y-40.5
X208.4Y-13.0
X208.5Y-7.0
X208.5Y-16.5
X209.75Y-32.75
X210.5Y-20.5
X211.162Y-19.0
X211.25Y-34.0
X211.562Y-13.0
X213.5Y-18.938
X213.5Y-22.062
X213.55Y-40.5
X214.7Y-8.775
X214.75Y-33.25
X217.0Y-33.25
X218.25Y-40.5
X219.5Y-33.25
X221.75Y-33.25
X222.0Y-19.0
X222.0Y-22.125
X223.55Y-40.5
X225.7Y-20.54
X225.75Y-32.75
X227.0Y-7.0
X227.5Y-18.0
X228.25Y-32.75
X228.25Y-40.5
X229.0Y-16.325
X229.0Y-21.0
X229.5Y-35.0
X230.75Y-35.75
X231.7Y-21.375
X232.0Y-36.5
X233.197Y-6.999
X233.25Y-37.25
X233.5Y-40.75
X234.5Y-21.5
X234.5Y-38.0
X234.7Y-12.5
X235.25Y-43.5
X235.7Y-16.325
X235.75Y-33.0
X237.0Y-33.0
X237.0Y-37.5
X237.0Y-41.0
X237.5Y-21.5
X238.1Y-12.5
X238.5Y-16.5
X239.5Y-22.5
X239.5Y-34.0
X240.0Y-40.75
X240.25Y-37.5
X241.0Y-43.5
X241.5Y-12.5
X244.375Y-15.5
X244.7Y-18.875
X244.7Y-22.0
X247.5Y-15.5
X248.5Y-18.875
X248.5Y-22.0
T2
X94.0Y-40.0
X94.0Y-42.54
X96.54Y-40.0
X96.54Y-42.54
X99.08Y-40.0
X99.08Y-42.54
X101.62Y-40.0
X101.62Y-42.54
X104.16Y-40.0
X104.16Y-42.54
X106.7Y-40.0
X106.7Y-42.54
X109.24Y-40.0
X109.24Y-42.54
X111.78Y-40.0
X111.78Y-42.54
X114.32Y-40.0
X114.32Y-42.54
X116.86Y-40.0
X116.86Y-42.54
T3
X21.0Y-10.0
X42.0Y-16.0
X50.5Y-15.5
X61.0Y-42.0
X66.0Y-42.0
X71.0Y-8.5
X71.0Y-42.0
X76.0Y-42.0
X107.5Y-11.5
X128.0Y-17.5
X137.0Y-14.0
X157.5Y-9.0
X194.0Y-12.0
X214.0Y-16.0
X222.5Y-14.0
X243.0Y-8.5
T4
X5.5Y-5.5
X5.5Y-39.5
X85.0Y-5.5
X85.0Y-39.5
X180.0Y-5.5
X180.0Y-39.5
X254.5Y-5.5
X254.5Y-39.5
T5
X26.65Y-5.5
X65.55Y-5.5
X112.95Y-5.5
X151.85Y-5.5
X198.25Y-5.375
X237.15Y-5.375
M30
