%TF.GenerationSoftware,KiCad,Pcbnew,10.0.3*%
%TF.CreationDate,2026-07-17T09:52:40-07:00*%
%TF.ProjectId,GateDriver,47617465-4472-4697-9665-722e6b696361,rev?*%
%TF.SameCoordinates,Original*%
%TF.FileFunction,Soldermask,Bot*%
%TF.FilePolarity,Negative*%
%FSLAX46Y46*%
G04 Gerber Fmt 4.6, Leading zero omitted, Abs format (unit mm)*
G04 Created by KiCad (PCBNEW 10.0.3) date 2026-07-17 09:52:40*
%MOMM*%
%LPD*%
G01*
G04 APERTURE LIST*
G04 Aperture macros list*
%AMRoundRect*
0 Rectangle with rounded corners*
0 $1 Rounding radius*
0 $2 $3 $4 $5 $6 $7 $8 $9 X,Y pos of 4 corners*
0 Add a 4 corners polygon primitive as box body*
4,1,4,$2,$3,$4,$5,$6,$7,$8,$9,$2,$3,0*
0 Add four circle primitives for the rounded corners*
1,1,$1+$1,$2,$3*
1,1,$1+$1,$4,$5*
1,1,$1+$1,$6,$7*
1,1,$1+$1,$8,$9*
0 Add four rect primitives between the rounded corners*
20,1,$1+$1,$2,$3,$4,$5,0*
20,1,$1+$1,$4,$5,$6,$7,0*
20,1,$1+$1,$6,$7,$8,$9,0*
20,1,$1+$1,$8,$9,$2,$3,0*%
G04 Aperture macros list end*
%ADD10C,3.000000*%
%ADD11R,1.700000X1.700000*%
%ADD12C,1.700000*%
%ADD13C,9.500000*%
%ADD14C,1.600000*%
%ADD15RoundRect,0.250000X0.400000X1.075000X-0.400000X1.075000X-0.400000X-1.075000X0.400000X-1.075000X0*%
%ADD16RoundRect,0.250000X0.412500X1.100000X-0.412500X1.100000X-0.412500X-1.100000X0.412500X-1.100000X0*%
%ADD17RoundRect,0.250000X-1.100000X0.412500X-1.100000X-0.412500X1.100000X-0.412500X1.100000X0.412500X0*%
%ADD18RoundRect,0.250000X1.100000X-0.412500X1.100000X0.412500X-1.100000X0.412500X-1.100000X-0.412500X0*%
%ADD19RoundRect,0.250000X-0.412500X-1.100000X0.412500X-1.100000X0.412500X1.100000X-0.412500X1.100000X0*%
%ADD20RoundRect,0.250000X-0.400000X-1.075000X0.400000X-1.075000X0.400000X1.075000X-0.400000X1.075000X0*%
%ADD21R,1.550000X2.200000*%
%ADD22R,1.000000X0.500000*%
%ADD23R,2.300000X1.000000*%
G04 APERTURE END LIST*
D10*
%TO.C,TP1*%
X61000000Y-42000000D03*
%TD*%
D11*
%TO.C,J6*%
X94000000Y-40000000D03*
D12*
X94000000Y-42540000D03*
X96540000Y-40000000D03*
X96540000Y-42540000D03*
X99080000Y-40000000D03*
X99080000Y-42540000D03*
X101620000Y-40000000D03*
X101620000Y-42540000D03*
X104160000Y-40000000D03*
X104160000Y-42540000D03*
X106700000Y-40000000D03*
X106700000Y-42540000D03*
X109240000Y-40000000D03*
X109240000Y-42540000D03*
X111780000Y-40000000D03*
X111780000Y-42540000D03*
X114320000Y-40000000D03*
X114320000Y-42540000D03*
X116860000Y-40000000D03*
X116860000Y-42540000D03*
%TD*%
D13*
%TO.C,H1*%
X5500000Y-5500000D03*
%TD*%
D10*
%TO.C,TP10*%
X243000000Y-8500000D03*
%TD*%
D13*
%TO.C,H4*%
X85000000Y-39500000D03*
%TD*%
%TO.C,H6*%
X180000000Y-39500000D03*
%TD*%
D10*
%TO.C,TP13*%
X21000000Y-10000000D03*
%TD*%
%TO.C,TP7*%
X42000000Y-16000000D03*
%TD*%
%TO.C,TP12*%
X107500000Y-11500000D03*
%TD*%
D13*
%TO.C,H2*%
X5500000Y-39500000D03*
%TD*%
D10*
%TO.C,TP14*%
X137000000Y-14000000D03*
%TD*%
%TO.C,TP11*%
X50500000Y-15500000D03*
%TD*%
D13*
%TO.C,H8*%
X254500000Y-39500000D03*
%TD*%
D10*
%TO.C,TP9*%
X214000000Y-16000000D03*
%TD*%
%TO.C,TP2*%
X66000000Y-42000000D03*
%TD*%
D14*
%TO.C,J3*%
X198250000Y-5375000D03*
X237150000Y-5375000D03*
%TD*%
%TO.C,J1*%
X26650000Y-5500000D03*
X65550000Y-5500000D03*
%TD*%
D10*
%TO.C,TP4*%
X76000000Y-42000000D03*
%TD*%
D13*
%TO.C,H7*%
X254500000Y-5500000D03*
%TD*%
D14*
%TO.C,J2*%
X112950001Y-5500000D03*
X151850001Y-5500000D03*
%TD*%
D10*
%TO.C,TP5*%
X71000000Y-8500000D03*
%TD*%
D13*
%TO.C,H3*%
X85000000Y-5500000D03*
%TD*%
%TO.C,H5*%
X180000000Y-5500000D03*
%TD*%
D10*
%TO.C,TP6*%
X128000000Y-17500000D03*
%TD*%
%TO.C,TP3*%
X71000000Y-42000000D03*
%TD*%
%TO.C,TP16*%
X222500000Y-14000000D03*
%TD*%
%TO.C,TP15*%
X194000000Y-12000000D03*
%TD*%
%TO.C,TP8*%
X157500000Y-9000000D03*
%TD*%
D15*
%TO.C,R27*%
X130000000Y-43000000D03*
X126900000Y-43000000D03*
%TD*%
D16*
%TO.C,C39*%
X138500000Y-33000000D03*
X135375000Y-33000000D03*
%TD*%
%TO.C,C3*%
X50875000Y-33500000D03*
X47750000Y-33500000D03*
%TD*%
D17*
%TO.C,C59*%
X213500000Y-18937500D03*
X213500000Y-22062500D03*
%TD*%
D16*
%TO.C,C86*%
X105062500Y-33000000D03*
X101937500Y-33000000D03*
%TD*%
D18*
%TO.C,C67*%
X222000000Y-22062500D03*
X222000000Y-18937500D03*
%TD*%
D19*
%TO.C,C79*%
X156687500Y-43000000D03*
X159812500Y-43000000D03*
%TD*%
D16*
%TO.C,C26*%
X43500000Y-33632500D03*
X40375000Y-33632500D03*
%TD*%
D17*
%TO.C,C71*%
X244700000Y-18875000D03*
X244700000Y-22000000D03*
%TD*%
D20*
%TO.C,R31*%
X131950000Y-43000000D03*
X135050000Y-43000000D03*
%TD*%
D18*
%TO.C,C43*%
X137000000Y-21500000D03*
X137000000Y-18375000D03*
%TD*%
D16*
%TO.C,C84*%
X74750000Y-33750000D03*
X71625000Y-33750000D03*
%TD*%
D19*
%TO.C,C37*%
X33937500Y-12500000D03*
X37062500Y-12500000D03*
%TD*%
D16*
%TO.C,C49*%
X155625000Y-13000000D03*
X152500000Y-13000000D03*
%TD*%
D17*
%TO.C,C68*%
X248500000Y-18875000D03*
X248500000Y-22000000D03*
%TD*%
D21*
%TO.C,D3*%
X63500000Y-7900000D03*
X63500000Y-12000000D03*
%TD*%
%TO.C,D12*%
X149500000Y-8450000D03*
X149500000Y-12550000D03*
%TD*%
D19*
%TO.C,C15*%
X125125000Y-33000000D03*
X128250000Y-33000000D03*
%TD*%
D21*
%TO.C,D6*%
X128000000Y-8950000D03*
X128000000Y-13050000D03*
%TD*%
%TO.C,D15*%
X214700000Y-8775000D03*
X214700000Y-12875000D03*
%TD*%
D18*
%TO.C,C7*%
X50000000Y-22000000D03*
X50000000Y-18875000D03*
%TD*%
D15*
%TO.C,R28*%
X135000000Y-39750000D03*
X131900000Y-39750000D03*
%TD*%
D18*
%TO.C,C11*%
X77500000Y-18062500D03*
X77500000Y-14937500D03*
%TD*%
D16*
%TO.C,C73*%
X241625000Y-12500000D03*
X238500000Y-12500000D03*
%TD*%
%TO.C,C50*%
X216500000Y-33250000D03*
X213375000Y-33250000D03*
%TD*%
D19*
%TO.C,C28*%
X14875000Y-16000000D03*
X18000000Y-16000000D03*
%TD*%
D22*
%TO.C,Z1*%
X129950000Y-40000000D03*
X127550000Y-40000000D03*
%TD*%
D16*
%TO.C,C5*%
X78500000Y-21000000D03*
X75375000Y-21000000D03*
%TD*%
D23*
%TO.C,PS4*%
X141030000Y-34000000D03*
X141030000Y-20540000D03*
X141030000Y-18000000D03*
X155000000Y-18000000D03*
X155000000Y-20540000D03*
X155000000Y-31460000D03*
X155000000Y-34000000D03*
%TD*%
D19*
%TO.C,C44*%
X157937500Y-13000000D03*
X161062500Y-13000000D03*
%TD*%
D16*
%TO.C,C63*%
X222562500Y-33250000D03*
X219437500Y-33250000D03*
%TD*%
%TO.C,C13*%
X70125000Y-12500000D03*
X67000000Y-12500000D03*
%TD*%
%TO.C,C21*%
X102562500Y-17500000D03*
X99437500Y-17500000D03*
%TD*%
%TO.C,C90*%
X160812500Y-33000000D03*
X157687500Y-33000000D03*
%TD*%
D23*
%TO.C,PS5*%
X196215000Y-34000000D03*
X196215000Y-20540000D03*
X196215000Y-18000000D03*
X210185000Y-18000000D03*
X210185000Y-20540000D03*
X210185000Y-31460000D03*
X210185000Y-34000000D03*
%TD*%
D20*
%TO.C,R32*%
X151650000Y-43000000D03*
X154750000Y-43000000D03*
%TD*%
D16*
%TO.C,C92*%
X192812500Y-33250000D03*
X189687500Y-33250000D03*
%TD*%
D19*
%TO.C,C25*%
X119875000Y-13000000D03*
X123000000Y-13000000D03*
%TD*%
D15*
%TO.C,R29*%
X154800000Y-39750000D03*
X151700000Y-39750000D03*
%TD*%
D23*
%TO.C,PS1*%
X54015000Y-34000000D03*
X54015000Y-20540000D03*
X54015000Y-18000000D03*
X67985000Y-18000000D03*
X67985000Y-20540000D03*
X67985000Y-31460000D03*
X67985000Y-34000000D03*
%TD*%
D21*
%TO.C,D18*%
X234700000Y-8400000D03*
X234700000Y-12500000D03*
%TD*%
D19*
%TO.C,C31*%
X18125000Y-21000000D03*
X21250000Y-21000000D03*
%TD*%
%TO.C,C19*%
X99437500Y-21000000D03*
X102562500Y-21000000D03*
%TD*%
%TO.C,C55*%
X189625000Y-21000000D03*
X192750000Y-21000000D03*
%TD*%
D23*
%TO.C,PS2*%
X108015000Y-34000000D03*
X108015000Y-20540000D03*
X108015000Y-18000000D03*
X121985000Y-18000000D03*
X121985000Y-20540000D03*
X121985000Y-31460000D03*
X121985000Y-34000000D03*
%TD*%
D16*
%TO.C,C56*%
X187500000Y-21000000D03*
X184375000Y-21000000D03*
%TD*%
D19*
%TO.C,C16*%
X101437500Y-14000000D03*
X104562500Y-14000000D03*
%TD*%
D15*
%TO.C,R30*%
X149800000Y-43000000D03*
X146700000Y-43000000D03*
%TD*%
D17*
%TO.C,C35*%
X42000000Y-18937500D03*
X42000000Y-22062500D03*
%TD*%
D19*
%TO.C,C61*%
X205375000Y-13000000D03*
X208500000Y-13000000D03*
%TD*%
%TO.C,C23*%
X125937500Y-21500000D03*
X129062500Y-21500000D03*
%TD*%
D17*
%TO.C,C9*%
X73500000Y-11937500D03*
X73500000Y-15062500D03*
%TD*%
D23*
%TO.C,PS6*%
X225700000Y-34000000D03*
X225700000Y-20540000D03*
X225700000Y-18000000D03*
X239670000Y-18000000D03*
X239670000Y-20540000D03*
X239670000Y-31460000D03*
X239670000Y-34000000D03*
%TD*%
%TO.C,PS3*%
X23197500Y-34000000D03*
X23197500Y-20540000D03*
X23197500Y-18000000D03*
X37167500Y-18000000D03*
X37167500Y-20540000D03*
X37167500Y-31460000D03*
X37167500Y-34000000D03*
%TD*%
D19*
%TO.C,C64*%
X244375000Y-15500000D03*
X247500000Y-15500000D03*
%TD*%
D16*
%TO.C,C33*%
X16000000Y-21000000D03*
X12875000Y-21000000D03*
%TD*%
D19*
%TO.C,C53*%
X186375000Y-17500000D03*
X189500000Y-17500000D03*
%TD*%
%TO.C,C41*%
X158437500Y-21500000D03*
X161562500Y-21500000D03*
%TD*%
%TO.C,C76*%
X136937500Y-43000000D03*
X140062500Y-43000000D03*
%TD*%
D22*
%TO.C,Z2*%
X149750000Y-40000000D03*
X147350000Y-40000000D03*
%TD*%
D19*
%TO.C,C47*%
X158375000Y-18000000D03*
X161500000Y-18000000D03*
%TD*%
D21*
%TO.C,D9*%
X43000000Y-8400000D03*
X43000000Y-12500000D03*
%TD*%
M02*
