M48
; DRILL file KiCad 10.0.3 date 2026-05-26T21:14:35
; FORMAT={-:-/ absolute / metric / decimal}
; #@! TF.CreationDate,2026-05-26T21:14:35-07:00
; #@! TF.GenerationSoftware,Kicad,Pcbnew,10.0.3
; #@! TF.FileFunction,Plated,1,6,PTH
FMAT,2
METRIC
; #@! TA.AperFunction,Plated,PTH,ViaDrill
T1C0.300
; #@! TA.AperFunction,Plated,PTH,ComponentDrill
T2C1.000
; #@! TA.AperFunction,Plated,PTH,ComponentDrill
T3C1.500
; #@! TA.AperFunction,Plated,PTH,ComponentDrill
T4C1.600
; #@! TA.AperFunction,Plated,PTH,ComponentDrill
T5C5.300
%
G90
G05
T1
X8.0Y-20.5
X8.438Y-23.0
X9.438Y-20.5
X11.562Y-23.0
X13.0Y-21.0
X13.688Y-23.0
X14.189Y-41.001
X16.0Y-10.15
X16.0Y-14.438
X16.0Y-17.562
X16.812Y-23.0
X19.65Y-41.0
X20.0Y-16.45
X20.0Y-43.0
X21.0Y-21.5
X22.125Y-38.875
X23.25Y-37.75
X24.0Y-21.5
X24.25Y-43.5
X25.375Y-40.625
X26.25Y-41.25
X28.0Y-16.45
X28.175Y-34.0
X29.0Y-12.0
X31.0Y-23.0
X31.985Y-34.0
X34.525Y-14.025
X35.5Y-32.5
X36.0Y-42.75
X37.0Y-19.438
X37.0Y-19.438
X37.0Y-22.562
X39.0Y-38.0
X41.0Y-43.75
X46.5Y-12.0
X47.25Y-41.75
X47.39Y-20.413
X47.438Y-23.625
X49.0Y-14.438
X49.0Y-18.5
X49.0Y-32.5
X51.03Y-20.54
X52.14Y-22.36
X53.0Y-16.45
X53.5Y-21.5
X54.25Y-36.0
X55.0Y-43.75
X55.5Y-37.0
X56.5Y-21.5
X57.0Y-40.0
X57.5Y-12.0
X58.25Y-39.0
X59.5Y-38.0
X61.0Y-16.45
X61.0Y-34.5
X61.85Y-41.0
X63.0Y-23.0
X64.5Y-23.5
X65.0Y-34.0
X67.0Y-14.0
X67.15Y-41.0
X68.75Y-33.812
X69.0Y-20.438
X69.0Y-20.438
X69.0Y-23.562
X69.5Y-9.0
X71.85Y-41.0
X73.438Y-10.0
X73.438Y-16.0
X73.438Y-20.0
X75.75Y-35.75
X76.0Y-37.0
X76.562Y-10.0
X76.562Y-16.0
X77.0Y-23.0
X77.15Y-41.0
X78.0Y-36.25
X78.0Y-43.25
X93.133Y-40.782
X94.0Y-34.75
X94.25Y-36.25
X97.438Y-23.25
X98.15Y-40.5
X98.438Y-18.0
X98.5Y-37.0
X98.655Y-13.079
X99.281Y-15.281
X100.562Y-23.25
X101.562Y-18.0
X102.0Y-13.0
X102.0Y-16.0
X102.85Y-40.5
X102.938Y-23.0
X105.5Y-32.5
X106.0Y-10.15
X106.0Y-17.562
X106.062Y-23.0
X108.0Y-34.0
X108.15Y-40.5
X110.0Y-16.45
X111.0Y-21.5
X112.324Y-37.324
X113.5Y-38.5
X114.0Y-21.5
X115.0Y-42.5
X115.314Y-41.314
X115.5Y-40.25
X116.905Y-39.25
X118.0Y-16.45
X118.5Y-34.25
X119.0Y-12.0
X121.0Y-23.5
X121.985Y-33.96
X124.525Y-14.025
X125.938Y-32.5
X127.016Y-20.448
X127.071Y-23.714
X129.25Y-38.25
X130.5Y-35.25
X131.75Y-34.5
X132.0Y-32.5
X132.75Y-36.0
X134.25Y-37.5
X136.188Y-23.0
X136.709Y-35.5
X138.08Y-35.0
X138.5Y-32.5
X139.0Y-18.562
X139.312Y-23.0
X143.0Y-16.45
X143.5Y-21.5
X144.325Y-37.5
X145.595Y-36.5
X146.5Y-21.5
X147.0Y-40.0
X148.0Y-38.0
X149.5Y-37.0
X150.75Y-34.25
X151.0Y-16.45
X152.5Y-44.0
X153.0Y-23.5
X155.0Y-34.0
X155.0Y-40.5
X157.5Y-14.0
X158.409Y-40.378
X159.0Y-20.438
X159.0Y-23.5
X159.0Y-34.0
X161.5Y-40.5
X163.0Y-33.0
X163.438Y-12.0
X163.438Y-18.0
X163.438Y-23.0
X166.562Y-12.0
X166.562Y-18.0
X166.624Y-22.955
X169.5Y-31.5
X172.0Y-40.5
X172.0Y-41.5
X172.0Y-42.5
X173.5Y-36.5
X173.5Y-39.0
X186.5Y-36.5
X187.0Y-43.5
X187.438Y-23.0
X187.85Y-41.0
X188.0Y-35.0
X188.438Y-13.0
X188.438Y-18.0
X190.562Y-23.0
X191.5Y-18.0
X191.562Y-13.0
X193.0Y-23.0
X193.0Y-42.5
X196.0Y-10.15
X196.0Y-17.562
X196.0Y-32.5
X196.125Y-23.0
X198.0Y-34.0
X198.0Y-43.5
X200.0Y-16.45
X201.0Y-21.5
X201.825Y-36.5
X203.095Y-38.0
X204.0Y-21.5
X204.25Y-41.5
X205.5Y-40.5
X206.5Y-39.5
X208.0Y-16.45
X208.175Y-35.0
X209.0Y-43.5
X210.0Y-12.0
X210.5Y-22.5
X211.985Y-34.0
X214.162Y-20.0
X214.719Y-14.099
X216.901Y-23.682
X217.0Y-20.438
X217.0Y-34.25
X218.0Y-43.0
X221.0Y-33.5
X223.0Y-43.5
X226.0Y-34.0
X227.0Y-21.438
X227.0Y-24.562
X228.0Y-18.562
X230.0Y-42.25
X232.0Y-16.45
X232.0Y-21.0
X233.75Y-37.25
X234.5Y-43.5
X235.0Y-35.75
X236.0Y-21.5
X236.0Y-40.5
X237.45Y-41.0
X237.5Y-38.5
X238.75Y-35.75
X240.0Y-16.45
X240.438Y-36.0
X241.0Y-41.0
X242.5Y-23.5
X243.97Y-33.96
X246.5Y-43.0
X246.567Y-15.092
X249.0Y-20.438
X249.0Y-23.562
X249.5Y-32.5
X252.438Y-17.0
X255.0Y-20.438
X255.0Y-23.562
X255.562Y-17.0
X256.5Y-32.0
T2
X125.38Y-40.0
X125.38Y-42.54
X127.92Y-40.0
X127.92Y-42.54
X130.46Y-40.0
X130.46Y-42.54
X133.0Y-40.0
X133.0Y-42.54
X135.54Y-40.0
X135.54Y-42.54
X138.08Y-40.0
X138.08Y-42.54
X140.62Y-40.0
X140.62Y-42.54
X143.16Y-40.0
X143.16Y-42.54
T3
X13.5Y-33.5
X36.0Y-35.5
X41.0Y-33.5
X47.0Y-36.0
T4
X27.6Y-6.0
X32.68Y-6.0
X37.76Y-6.0
X42.84Y-6.0
X47.92Y-6.0
X53.0Y-6.0
X117.6Y-6.0
X122.68Y-6.0
X127.76Y-6.0
X132.84Y-6.0
X137.92Y-6.0
X143.0Y-6.0
X207.6Y-6.0
X212.68Y-6.0
X217.76Y-6.0
X222.84Y-6.0
X227.92Y-6.0
X233.0Y-6.0
T5
X5.5Y-5.5
X5.5Y-39.5
X85.0Y-5.5
X85.0Y-39.5
X180.0Y-5.5
X180.0Y-39.5
X254.5Y-5.5
X254.5Y-39.5
M30
