%TF.GenerationSoftware,KiCad,Pcbnew,10.0.3*%
%TF.CreationDate,2026-07-17T09:52:40-07:00*%
%TF.ProjectId,GateDriver,47617465-4472-4697-9665-722e6b696361,rev?*%
%TF.SameCoordinates,Original*%
%TF.FileFunction,OtherDrawing,Comment*%
%FSLAX46Y46*%
G04 Gerber Fmt 4.6, Leading zero omitted, Abs format (unit mm)*
G04 Created by KiCad (PCBNEW 10.0.3) date 2026-07-17 09:52:40*
%MOMM*%
%LPD*%
G01*
G04 APERTURE LIST*
%ADD10C,0.050000*%
%ADD11C,0.100000*%
G04 APERTURE END LIST*
%TO.C,C74*%
D10*
X163700000Y-36600000D02*
X173500000Y-36600000D01*
X163700000Y-44400000D02*
X163700000Y-36600000D01*
D11*
X165300000Y-38850000D02*
X165300000Y-42150000D01*
X165300000Y-42150000D02*
X166950000Y-43800000D01*
X166950000Y-37200000D02*
X165300000Y-38850000D01*
X166950000Y-43800000D02*
X171900000Y-43800000D01*
X171900000Y-37200000D02*
X166950000Y-37200000D01*
X171900000Y-43800000D02*
X171900000Y-37200000D01*
D10*
X173500000Y-36600000D02*
X173500000Y-44400000D01*
X173500000Y-44400000D02*
X163700000Y-44400000D01*
%TO.C,C75*%
X46750000Y-36350000D02*
X56550000Y-36350000D01*
X46750000Y-44150000D02*
X46750000Y-36350000D01*
D11*
X48350000Y-38600000D02*
X48350000Y-41900000D01*
X48350000Y-41900000D02*
X50000000Y-43550000D01*
X50000000Y-36950000D02*
X48350000Y-38600000D01*
X50000000Y-43550000D02*
X54950000Y-43550000D01*
X54950000Y-36950000D02*
X50000000Y-36950000D01*
X54950000Y-43550000D02*
X54950000Y-36950000D01*
D10*
X56550000Y-36350000D02*
X56550000Y-44150000D01*
X56550000Y-44150000D02*
X46750000Y-44150000D01*
%TO.C,C77*%
X153700000Y-36600000D02*
X163500000Y-36600000D01*
X153700000Y-44400000D02*
X153700000Y-36600000D01*
D11*
X155300000Y-38850000D02*
X155300000Y-42150000D01*
X155300000Y-42150000D02*
X156950000Y-43800000D01*
X156950000Y-37200000D02*
X155300000Y-38850000D01*
X156950000Y-43800000D02*
X161900000Y-43800000D01*
X161900000Y-37200000D02*
X156950000Y-37200000D01*
X161900000Y-43800000D02*
X161900000Y-37200000D01*
D10*
X163500000Y-36600000D02*
X163500000Y-44400000D01*
X163500000Y-44400000D02*
X153700000Y-44400000D01*
%TO.C,C82*%
X216000000Y-36600000D02*
X225800000Y-36600000D01*
X216000000Y-44400000D02*
X216000000Y-36600000D01*
D11*
X217600000Y-38850000D02*
X217600000Y-42150000D01*
X217600000Y-42150000D02*
X219250000Y-43800000D01*
X219250000Y-37200000D02*
X217600000Y-38850000D01*
X219250000Y-43800000D02*
X224200000Y-43800000D01*
X224200000Y-37200000D02*
X219250000Y-37200000D01*
X224200000Y-43800000D02*
X224200000Y-37200000D01*
D10*
X225800000Y-36600000D02*
X225800000Y-44400000D01*
X225800000Y-44400000D02*
X216000000Y-44400000D01*
%TO.C,C78*%
X206000000Y-36600000D02*
X215800000Y-36600000D01*
X206000000Y-44400000D02*
X206000000Y-36600000D01*
D11*
X207600000Y-38850000D02*
X207600000Y-42150000D01*
X207600000Y-42150000D02*
X209250000Y-43800000D01*
X209250000Y-37200000D02*
X207600000Y-38850000D01*
X209250000Y-43800000D02*
X214200000Y-43800000D01*
X214200000Y-37200000D02*
X209250000Y-37200000D01*
X214200000Y-43800000D02*
X214200000Y-37200000D01*
D10*
X215800000Y-36600000D02*
X215800000Y-44400000D01*
X215800000Y-44400000D02*
X206000000Y-44400000D01*
%TO.C,C80*%
X36750000Y-36350000D02*
X46550000Y-36350000D01*
X36750000Y-44150000D02*
X36750000Y-36350000D01*
D11*
X38350000Y-38600000D02*
X38350000Y-41900000D01*
X38350000Y-41900000D02*
X40000000Y-43550000D01*
X40000000Y-36950000D02*
X38350000Y-38600000D01*
X40000000Y-43550000D02*
X44950000Y-43550000D01*
X44950000Y-36950000D02*
X40000000Y-36950000D01*
X44950000Y-43550000D02*
X44950000Y-36950000D01*
D10*
X46550000Y-36350000D02*
X46550000Y-44150000D01*
X46550000Y-44150000D02*
X36750000Y-44150000D01*
%TO.C,C81*%
X226000000Y-36600000D02*
X235800000Y-36600000D01*
X226000000Y-44400000D02*
X226000000Y-36600000D01*
D11*
X227600000Y-38850000D02*
X227600000Y-42150000D01*
X227600000Y-42150000D02*
X229250000Y-43800000D01*
X229250000Y-37200000D02*
X227600000Y-38850000D01*
X229250000Y-43800000D02*
X234200000Y-43800000D01*
X234200000Y-37200000D02*
X229250000Y-37200000D01*
X234200000Y-43800000D02*
X234200000Y-37200000D01*
D10*
X235800000Y-36600000D02*
X235800000Y-44400000D01*
X235800000Y-44400000D02*
X226000000Y-44400000D01*
%TO.C,C1*%
X26850000Y-36350000D02*
X36650000Y-36350000D01*
X26850000Y-44150000D02*
X26850000Y-36350000D01*
D11*
X28450000Y-38600000D02*
X28450000Y-41900000D01*
X28450000Y-41900000D02*
X30100000Y-43550000D01*
X30100000Y-36950000D02*
X28450000Y-38600000D01*
X30100000Y-43550000D02*
X35050000Y-43550000D01*
X35050000Y-36950000D02*
X30100000Y-36950000D01*
X35050000Y-43550000D02*
X35050000Y-36950000D01*
D10*
X36650000Y-36350000D02*
X36650000Y-44150000D01*
X36650000Y-44150000D02*
X26850000Y-44150000D01*
%TO.C,PS4*%
D11*
X138880000Y-14140000D02*
X138880000Y-36080000D01*
X138880000Y-36080000D02*
X157150000Y-36080000D01*
X140520000Y-15140000D02*
X155510000Y-15140000D01*
X140520000Y-35080000D02*
X140520000Y-15140000D01*
X155510000Y-15140000D02*
X155510000Y-35080000D01*
X155510000Y-35080000D02*
X140520000Y-35080000D01*
X157150000Y-14140000D02*
X138880000Y-14140000D01*
X157150000Y-36080000D02*
X157150000Y-14140000D01*
%TO.C,PS5*%
X194065000Y-14140000D02*
X194065000Y-36080000D01*
X194065000Y-36080000D02*
X212335000Y-36080000D01*
X195705000Y-15140000D02*
X210695000Y-15140000D01*
X195705000Y-35080000D02*
X195705000Y-15140000D01*
X210695000Y-15140000D02*
X210695000Y-35080000D01*
X210695000Y-35080000D02*
X195705000Y-35080000D01*
X212335000Y-14140000D02*
X194065000Y-14140000D01*
X212335000Y-36080000D02*
X212335000Y-14140000D01*
%TO.C,PS1*%
X51865000Y-14140000D02*
X51865000Y-36080000D01*
X51865000Y-36080000D02*
X70135000Y-36080000D01*
X53505000Y-15140000D02*
X68495000Y-15140000D01*
X53505000Y-35080000D02*
X53505000Y-15140000D01*
X68495000Y-15140000D02*
X68495000Y-35080000D01*
X68495000Y-35080000D02*
X53505000Y-35080000D01*
X70135000Y-14140000D02*
X51865000Y-14140000D01*
X70135000Y-36080000D02*
X70135000Y-14140000D01*
%TO.C,PS2*%
X105865000Y-14140000D02*
X105865000Y-36080000D01*
X105865000Y-36080000D02*
X124135000Y-36080000D01*
X107505000Y-15140000D02*
X122495000Y-15140000D01*
X107505000Y-35080000D02*
X107505000Y-15140000D01*
X122495000Y-15140000D02*
X122495000Y-35080000D01*
X122495000Y-35080000D02*
X107505000Y-35080000D01*
X124135000Y-14140000D02*
X105865000Y-14140000D01*
X124135000Y-36080000D02*
X124135000Y-14140000D01*
%TO.C,PS6*%
X223550000Y-14140000D02*
X223550000Y-36080000D01*
X223550000Y-36080000D02*
X241820000Y-36080000D01*
X225190000Y-15140000D02*
X240180000Y-15140000D01*
X225190000Y-35080000D02*
X225190000Y-15140000D01*
X240180000Y-15140000D02*
X240180000Y-35080000D01*
X240180000Y-35080000D02*
X225190000Y-35080000D01*
X241820000Y-14140000D02*
X223550000Y-14140000D01*
X241820000Y-36080000D02*
X241820000Y-14140000D01*
%TO.C,PS3*%
X21047500Y-14140000D02*
X21047500Y-36080000D01*
X21047500Y-36080000D02*
X39317500Y-36080000D01*
X22687500Y-15140000D02*
X37677500Y-15140000D01*
X22687500Y-35080000D02*
X22687500Y-15140000D01*
X37677500Y-15140000D02*
X37677500Y-35080000D01*
X37677500Y-35080000D02*
X22687500Y-35080000D01*
X39317500Y-14140000D02*
X21047500Y-14140000D01*
X39317500Y-36080000D02*
X39317500Y-14140000D01*
%TD*%
M02*
