ISO-10303-21;
HEADER;
FILE_DESCRIPTION( ( 'Unknown' ), '1' );
FILE_NAME( 'I:/User_Groups_Only/17_EMC_Product_&_Development/Article_Master/eiCan/Assembly/As_SBRIE/Master_Data/01_CAD_drawing/1_Drawing/971xxxxx4/971xxx474/971120747/Released_Data/971120474.stp', 'Unknown', ( 'Unknown' ), ( 'Unknown' ), 'PSStep 19.0.9', 'Unknown', '  ' );
FILE_SCHEMA( ( 'AUTOMOTIVE_DESIGN { 1 0 10303 214 1 1 1 1 }' ) );
ENDSEC;
DATA;
#1 = MECHANICAL_DESIGN_GEOMETRIC_PRESENTATION_REPRESENTATION( ' ', ( #10, #11, #12, #13, #14, #15, #16, #17, #18, #19, #20, #21, #22, #23, #24, #25, #26, #27, #28, #29, #30, #31, #32, #33, #34, #35, #36, #37, #38, #39, #40 ), #6 );
#2 = PRODUCT_DEFINITION_CONTEXT( '', #41, 'design' );
#3 = APPLICATION_PROTOCOL_DEFINITION( 'international standard', 'automotive_design', 2001, #41 );
#4 = PRODUCT_CATEGORY_RELATIONSHIP( 'NONE', 'NONE', #42, #43 );
#5 = SHAPE_DEFINITION_REPRESENTATION( #44, #45 );
#6 =  ( GEOMETRIC_REPRESENTATION_CONTEXT( 3 )GLOBAL_UNCERTAINTY_ASSIGNED_CONTEXT( ( #48 ) )GLOBAL_UNIT_ASSIGNED_CONTEXT( ( #50, #51, #52 ) )REPRESENTATION_CONTEXT( 'NONE', 'WORKSPACE' ) );
#10 = STYLED_ITEM( '', ( #54 ), #55 );
#11 = STYLED_ITEM( '', ( #56 ), #57 );
#12 = STYLED_ITEM( '', ( #58 ), #59 );
#13 = STYLED_ITEM( '', ( #60 ), #61 );
#14 = STYLED_ITEM( '', ( #62 ), #63 );
#15 = STYLED_ITEM( '', ( #64 ), #65 );
#16 = STYLED_ITEM( '', ( #66 ), #67 );
#17 = STYLED_ITEM( '', ( #68 ), #69 );
#18 = STYLED_ITEM( '', ( #70 ), #71 );
#19 = STYLED_ITEM( '', ( #72 ), #73 );
#20 = STYLED_ITEM( '', ( #74 ), #75 );
#21 = STYLED_ITEM( '', ( #76 ), #77 );
#22 = STYLED_ITEM( '', ( #78 ), #79 );
#23 = STYLED_ITEM( '', ( #80 ), #81 );
#24 = STYLED_ITEM( '', ( #82 ), #83 );
#25 = STYLED_ITEM( '', ( #84 ), #85 );
#26 = STYLED_ITEM( '', ( #86 ), #87 );
#27 = STYLED_ITEM( '', ( #88 ), #89 );
#28 = STYLED_ITEM( '', ( #90 ), #91 );
#29 = STYLED_ITEM( '', ( #92 ), #93 );
#30 = STYLED_ITEM( '', ( #94 ), #95 );
#31 = STYLED_ITEM( '', ( #96 ), #97 );
#32 = STYLED_ITEM( '', ( #98 ), #99 );
#33 = STYLED_ITEM( '', ( #100 ), #101 );
#34 = STYLED_ITEM( '', ( #102 ), #103 );
#35 = STYLED_ITEM( '', ( #104 ), #105 );
#36 = STYLED_ITEM( '', ( #106 ), #107 );
#37 = STYLED_ITEM( '', ( #108 ), #109 );
#38 = STYLED_ITEM( '', ( #110 ), #111 );
#39 = STYLED_ITEM( '', ( #112 ), #113 );
#40 = STYLED_ITEM( '', ( #114 ), #115 );
#41 = APPLICATION_CONTEXT( 'core data for automotive mechanical design processes' );
#42 = PRODUCT_CATEGORY( 'part', 'NONE' );
#43 = PRODUCT_RELATED_PRODUCT_CATEGORY( 'detail', ' ', ( #116 ) );
#44 = PRODUCT_DEFINITION_SHAPE( 'NONE', 'NONE', #117 );
#45 = ADVANCED_BREP_SHAPE_REPRESENTATION( '1', ( #118, #119 ), #6 );
#48 = UNCERTAINTY_MEASURE_WITH_UNIT( LENGTH_MEASURE( 0.00100000000000000 ), #50, '', '' );
#50 =  ( CONVERSION_BASED_UNIT( 'MILLIMETRE', #122 )LENGTH_UNIT(  )NAMED_UNIT( #125 ) );
#51 =  ( NAMED_UNIT( #127 )PLANE_ANGLE_UNIT(  )SI_UNIT( $, .RADIAN. ) );
#52 =  ( NAMED_UNIT( #127 )SI_UNIT( $, .STERADIAN. )SOLID_ANGLE_UNIT(  ) );
#54 = PRESENTATION_STYLE_ASSIGNMENT( ( #133 ) );
#55 = ADVANCED_FACE( '', ( #134, #135 ), #136, .T. );
#56 = PRESENTATION_STYLE_ASSIGNMENT( ( #137 ) );
#57 = ADVANCED_FACE( '', ( #138 ), #139, .T. );
#58 = PRESENTATION_STYLE_ASSIGNMENT( ( #140 ) );
#59 = ADVANCED_FACE( '', ( #141, #142 ), #143, .T. );
#60 = PRESENTATION_STYLE_ASSIGNMENT( ( #144 ) );
#61 = ADVANCED_FACE( '', ( #145 ), #146, .T. );
#62 = PRESENTATION_STYLE_ASSIGNMENT( ( #147 ) );
#63 = ADVANCED_FACE( '', ( #148 ), #149, .F. );
#64 = PRESENTATION_STYLE_ASSIGNMENT( ( #150 ) );
#65 = ADVANCED_FACE( '', ( #151 ), #152, .T. );
#66 = PRESENTATION_STYLE_ASSIGNMENT( ( #153 ) );
#67 = ADVANCED_FACE( '', ( #154, #155 ), #156, .F. );
#68 = PRESENTATION_STYLE_ASSIGNMENT( ( #157 ) );
#69 = ADVANCED_FACE( '', ( #158 ), #159, .T. );
#70 = PRESENTATION_STYLE_ASSIGNMENT( ( #160 ) );
#71 = ADVANCED_FACE( '', ( #161 ), #162, .T. );
#72 = PRESENTATION_STYLE_ASSIGNMENT( ( #163 ) );
#73 = ADVANCED_FACE( '', ( #164 ), #165, .T. );
#74 = PRESENTATION_STYLE_ASSIGNMENT( ( #166 ) );
#75 = ADVANCED_FACE( '', ( #167 ), #168, .T. );
#76 = PRESENTATION_STYLE_ASSIGNMENT( ( #169 ) );
#77 = ADVANCED_FACE( '', ( #170 ), #171, .T. );
#78 = PRESENTATION_STYLE_ASSIGNMENT( ( #172 ) );
#79 = ADVANCED_FACE( '', ( #173, #174 ), #175, .T. );
#80 = PRESENTATION_STYLE_ASSIGNMENT( ( #176 ) );
#81 = ADVANCED_FACE( '', ( #177 ), #178, .T. );
#82 = PRESENTATION_STYLE_ASSIGNMENT( ( #179 ) );
#83 = ADVANCED_FACE( '', ( #180 ), #181, .T. );
#84 = PRESENTATION_STYLE_ASSIGNMENT( ( #182 ) );
#85 = ADVANCED_FACE( '', ( #183, #184 ), #185, .F. );
#86 = PRESENTATION_STYLE_ASSIGNMENT( ( #186 ) );
#87 = ADVANCED_FACE( '', ( #187, #188 ), #189, .F. );
#88 = PRESENTATION_STYLE_ASSIGNMENT( ( #190 ) );
#89 = ADVANCED_FACE( '', ( #191 ), #192, .T. );
#90 = PRESENTATION_STYLE_ASSIGNMENT( ( #193 ) );
#91 = ADVANCED_FACE( '', ( #194 ), #195, .T. );
#92 = PRESENTATION_STYLE_ASSIGNMENT( ( #196 ) );
#93 = ADVANCED_FACE( '', ( #197, #198 ), #199, .T. );
#94 = PRESENTATION_STYLE_ASSIGNMENT( ( #200 ) );
#95 = ADVANCED_FACE( '', ( #201, #202 ), #203, .F. );
#96 = PRESENTATION_STYLE_ASSIGNMENT( ( #204 ) );
#97 = ADVANCED_FACE( '', ( #205, #206 ), #207, .F. );
#98 = PRESENTATION_STYLE_ASSIGNMENT( ( #208 ) );
#99 = ADVANCED_FACE( '', ( #209, #210 ), #211, .F. );
#100 = PRESENTATION_STYLE_ASSIGNMENT( ( #212 ) );
#101 = ADVANCED_FACE( '', ( #213 ), #214, .T. );
#102 = PRESENTATION_STYLE_ASSIGNMENT( ( #215 ) );
#103 = ADVANCED_FACE( '', ( #216 ), #217, .T. );
#104 = PRESENTATION_STYLE_ASSIGNMENT( ( #218 ) );
#105 = ADVANCED_FACE( '', ( #219, #220 ), #221, .T. );
#106 = PRESENTATION_STYLE_ASSIGNMENT( ( #222 ) );
#107 = ADVANCED_FACE( '', ( #223 ), #224, .T. );
#108 = PRESENTATION_STYLE_ASSIGNMENT( ( #225 ) );
#109 = ADVANCED_FACE( '', ( #226 ), #227, .T. );
#110 = PRESENTATION_STYLE_ASSIGNMENT( ( #228 ) );
#111 = ADVANCED_FACE( '', ( #229 ), #230, .T. );
#112 = PRESENTATION_STYLE_ASSIGNMENT( ( #231 ) );
#113 = ADVANCED_FACE( '', ( #232, #233 ), #234, .F. );
#114 = PRESENTATION_STYLE_ASSIGNMENT( ( #235 ) );
#115 = ADVANCED_FACE( '', ( #236 ), #237, .T. );
#116 = PRODUCT( '1', '1', 'PART-1-DESC', ( #238 ) );
#117 = PRODUCT_DEFINITION( 'NONE', 'NONE', #239, #2 );
#118 = MANIFOLD_SOLID_BREP( '1', #240 );
#119 = AXIS2_PLACEMENT_3D( '', #241, #242, #243 );
#122 = LENGTH_MEASURE_WITH_UNIT( LENGTH_MEASURE( 1.00000000000000 ), #244 );
#125 = DIMENSIONAL_EXPONENTS( 1.00000000000000, 0.000000000000000, 0.000000000000000, 0.000000000000000, 0.000000000000000, 0.000000000000000, 0.000000000000000 );
#127 = DIMENSIONAL_EXPONENTS( 0.000000000000000, 0.000000000000000, 0.000000000000000, 0.000000000000000, 0.000000000000000, 0.000000000000000, 0.000000000000000 );
#133 = SURFACE_STYLE_USAGE( .BOTH., #245 );
#134 = FACE_OUTER_BOUND( '', #246, .T. );
#135 = FACE_OUTER_BOUND( '', #247, .T. );
#136 = CYLINDRICAL_SURFACE( '', #248, 1.45000000000000 );
#137 = SURFACE_STYLE_USAGE( .BOTH., #249 );
#138 = FACE_OUTER_BOUND( '', #250, .T. );
#139 = PLANE( '', #251 );
#140 = SURFACE_STYLE_USAGE( .BOTH., #252 );
#141 = FACE_BOUND( '', #253, .T. );
#142 = FACE_OUTER_BOUND( '', #254, .T. );
#143 = CONICAL_SURFACE( '', #255, 2.00000000000000, 0.785398163400000 );
#144 = SURFACE_STYLE_USAGE( .BOTH., #256 );
#145 = FACE_OUTER_BOUND( '', #257, .T. );
#146 = CONICAL_SURFACE( '', #258, 3.50000000000000, 0.785398163400000 );
#147 = SURFACE_STYLE_USAGE( .BOTH., #259 );
#148 = FACE_OUTER_BOUND( '', #260, .T. );
#149 = PLANE( '', #261 );
#150 = SURFACE_STYLE_USAGE( .BOTH., #262 );
#151 = FACE_OUTER_BOUND( '', #263, .T. );
#152 = CONICAL_SURFACE( '', #264, 4.50000000000000, 0.785398163400000 );
#153 = SURFACE_STYLE_USAGE( .BOTH., #265 );
#154 = FACE_OUTER_BOUND( '', #266, .T. );
#155 = FACE_OUTER_BOUND( '', #267, .T. );
#156 = CYLINDRICAL_SURFACE( '', #268, 1.62100000000000 );
#157 = SURFACE_STYLE_USAGE( .BOTH., #269 );
#158 = FACE_OUTER_BOUND( '', #270, .T. );
#159 = PLANE( '', #271 );
#160 = SURFACE_STYLE_USAGE( .BOTH., #272 );
#161 = FACE_OUTER_BOUND( '', #273, .T. );
#162 = PLANE( '', #274 );
#163 = SURFACE_STYLE_USAGE( .BOTH., #275 );
#164 = FACE_OUTER_BOUND( '', #276, .T. );
#165 = PLANE( '', #277 );
#166 = SURFACE_STYLE_USAGE( .BOTH., #278 );
#167 = FACE_OUTER_BOUND( '', #279, .T. );
#168 = PLANE( '', #280 );
#169 = SURFACE_STYLE_USAGE( .BOTH., #281 );
#170 = FACE_OUTER_BOUND( '', #282, .T. );
#171 = CONICAL_SURFACE( '', #283, 3.50000000000000, 0.785398163400000 );
#172 = SURFACE_STYLE_USAGE( .BOTH., #284 );
#173 = FACE_BOUND( '', #285, .T. );
#174 = FACE_OUTER_BOUND( '', #286, .T. );
#175 = CONICAL_SURFACE( '', #287, 2.00000000000000, 0.523598775600000 );
#176 = SURFACE_STYLE_USAGE( .BOTH., #288 );
#177 = FACE_OUTER_BOUND( '', #289, .T. );
#178 = CONICAL_SURFACE( '', #290, 4.50000000000000, 0.785398163400000 );
#179 = SURFACE_STYLE_USAGE( .BOTH., #291 );
#180 = FACE_OUTER_BOUND( '', #292, .T. );
#181 = CONICAL_SURFACE( '', #293, 4.50000000000000, 0.785398163400000 );
#182 = SURFACE_STYLE_USAGE( .BOTH., #294 );
#183 = FACE_OUTER_BOUND( '', #295, .T. );
#184 = FACE_OUTER_BOUND( '', #296, .T. );
#185 = TOROIDAL_SURFACE( '', #297, 1.85000000000000, 0.400000000000000 );
#186 = SURFACE_STYLE_USAGE( .BOTH., #298 );
#187 = FACE_BOUND( '', #299, .T. );
#188 = FACE_OUTER_BOUND( '', #300, .T. );
#189 = CONICAL_SURFACE( '', #301, 1.92100000000000, 0.785398163400000 );
#190 = SURFACE_STYLE_USAGE( .BOTH., #302 );
#191 = FACE_OUTER_BOUND( '', #303, .T. );
#192 = CONICAL_SURFACE( '', #304, 3.50000000000000, 0.785398163400000 );
#193 = SURFACE_STYLE_USAGE( .BOTH., #305 );
#194 = FACE_OUTER_BOUND( '', #306, .T. );
#195 = CONICAL_SURFACE( '', #307, 4.50000000000000, 0.785398163400000 );
#196 = SURFACE_STYLE_USAGE( .BOTH., #308 );
#197 = FACE_BOUND( '', #309, .T. );
#198 = FACE_OUTER_BOUND( '', #310, .T. );
#199 = PLANE( '', #311 );
#200 = SURFACE_STYLE_USAGE( .BOTH., #312 );
#201 = FACE_BOUND( '', #313, .T. );
#202 = FACE_OUTER_BOUND( '', #314, .T. );
#203 = PLANE( '', #315 );
#204 = SURFACE_STYLE_USAGE( .BOTH., #316 );
#205 = FACE_OUTER_BOUND( '', #317, .T. );
#206 = FACE_OUTER_BOUND( '', #318, .T. );
#207 = TOROIDAL_SURFACE( '', #319, 1.85000000000000, 0.400000000000000 );
#208 = SURFACE_STYLE_USAGE( .BOTH., #320 );
#209 = FACE_OUTER_BOUND( '', #321, .T. );
#210 = FACE_OUTER_BOUND( '', #322, .T. );
#211 = CYLINDRICAL_SURFACE( '', #323, 1.62100000000000 );
#212 = SURFACE_STYLE_USAGE( .BOTH., #324 );
#213 = FACE_OUTER_BOUND( '', #325, .T. );
#214 = CONICAL_SURFACE( '', #326, 4.50000000000000, 0.785398163400000 );
#215 = SURFACE_STYLE_USAGE( .BOTH., #327 );
#216 = FACE_OUTER_BOUND( '', #328, .T. );
#217 = PLANE( '', #329 );
#218 = SURFACE_STYLE_USAGE( .BOTH., #330 );
#219 = FACE_OUTER_BOUND( '', #331, .T. );
#220 = FACE_OUTER_BOUND( '', #332, .T. );
#221 = CYLINDRICAL_SURFACE( '', #333, 2.00000000000000 );
#222 = SURFACE_STYLE_USAGE( .BOTH., #334 );
#223 = FACE_OUTER_BOUND( '', #335, .T. );
#224 = CONICAL_SURFACE( '', #336, 4.50000000000000, 0.785398163400000 );
#225 = SURFACE_STYLE_USAGE( .BOTH., #337 );
#226 = FACE_OUTER_BOUND( '', #338, .T. );
#227 = CONICAL_SURFACE( '', #339, 3.50000000000000, 0.785398163400000 );
#228 = SURFACE_STYLE_USAGE( .BOTH., #340 );
#229 = FACE_OUTER_BOUND( '', #341, .T. );
#230 = CONICAL_SURFACE( '', #342, 3.50000000000000, 0.785398163400000 );
#231 = SURFACE_STYLE_USAGE( .BOTH., #343 );
#232 = FACE_OUTER_BOUND( '', #344, .T. );
#233 = FACE_BOUND( '', #345, .T. );
#234 = CONICAL_SURFACE( '', #346, 1.62100000000000, 1.02974425870000 );
#235 = SURFACE_STYLE_USAGE( .BOTH., #347 );
#236 = FACE_OUTER_BOUND( '', #348, .T. );
#237 = CONICAL_SURFACE( '', #349, 3.50000000000000, 0.785398163400000 );
#238 = PRODUCT_CONTEXT( '', #41, 'mechanical' );
#239 = PRODUCT_DEFINITION_FORMATION_WITH_SPECIFIED_SOURCE( ' ', 'NONE', #116, .NOT_KNOWN. );
#240 = CLOSED_SHELL( '', ( #113, #87, #67, #93, #99, #95, #109, #57, #69, #73, #103, #71, #85, #97, #59, #55, #79, #105, #63, #115, #111, #61, #89, #107, #75, #91, #65, #81, #83, #101, #77 ) );
#241 = CARTESIAN_POINT( '', ( 0.000000000000000, 0.000000000000000, 0.000000000000000 ) );
#242 = DIRECTION( '', ( 0.000000000000000, 0.000000000000000, 1.00000000000000 ) );
#243 = DIRECTION( '', ( 1.00000000000000, 0.000000000000000, 0.000000000000000 ) );
#244 =  ( LENGTH_UNIT(  )NAMED_UNIT( #125 )SI_UNIT( .MILLI., .METRE. ) );
#245 = SURFACE_SIDE_STYLE( '', ( #351 ) );
#246 = EDGE_LOOP( '', ( #352 ) );
#247 = EDGE_LOOP( '', ( #353 ) );
#248 = AXIS2_PLACEMENT_3D( '', #354, #355, #356 );
#249 = SURFACE_SIDE_STYLE( '', ( #357 ) );
#250 = EDGE_LOOP( '', ( #358, #359, #360, #361, #362, #363 ) );
#251 = AXIS2_PLACEMENT_3D( '', #364, #365, #366 );
#252 = SURFACE_SIDE_STYLE( '', ( #367 ) );
#253 = EDGE_LOOP( '', ( #368 ) );
#254 = EDGE_LOOP( '', ( #369 ) );
#255 = AXIS2_PLACEMENT_3D( '', #370, #371, #372 );
#256 = SURFACE_SIDE_STYLE( '', ( #373 ) );
#257 = EDGE_LOOP( '', ( #374, #375, #376 ) );
#258 = AXIS2_PLACEMENT_3D( '', #377, #378, #379 );
#259 = SURFACE_SIDE_STYLE( '', ( #380 ) );
#260 = EDGE_LOOP( '', ( #381 ) );
#261 = AXIS2_PLACEMENT_3D( '', #382, #383, #384 );
#262 = SURFACE_SIDE_STYLE( '', ( #385 ) );
#263 = EDGE_LOOP( '', ( #386, #387, #388 ) );
#264 = AXIS2_PLACEMENT_3D( '', #389, #390, #391 );
#265 = SURFACE_SIDE_STYLE( '', ( #392 ) );
#266 = EDGE_LOOP( '', ( #393 ) );
#267 = EDGE_LOOP( '', ( #394 ) );
#268 = AXIS2_PLACEMENT_3D( '', #395, #396, #397 );
#269 = SURFACE_SIDE_STYLE( '', ( #398 ) );
#270 = EDGE_LOOP( '', ( #399, #400, #401, #402, #403, #404 ) );
#271 = AXIS2_PLACEMENT_3D( '', #405, #406, #407 );
#272 = SURFACE_SIDE_STYLE( '', ( #408 ) );
#273 = EDGE_LOOP( '', ( #409, #410, #411, #412, #413, #414 ) );
#274 = AXIS2_PLACEMENT_3D( '', #415, #416, #417 );
#275 = SURFACE_SIDE_STYLE( '', ( #418 ) );
#276 = EDGE_LOOP( '', ( #419, #420, #421, #422, #423, #424 ) );
#277 = AXIS2_PLACEMENT_3D( '', #425, #426, #427 );
#278 = SURFACE_SIDE_STYLE( '', ( #428 ) );
#279 = EDGE_LOOP( '', ( #429, #430, #431, #432, #433, #434 ) );
#280 = AXIS2_PLACEMENT_3D( '', #435, #436, #437 );
#281 = SURFACE_SIDE_STYLE( '', ( #438 ) );
#282 = EDGE_LOOP( '', ( #439, #440, #441 ) );
#283 = AXIS2_PLACEMENT_3D( '', #442, #443, #444 );
#284 = SURFACE_SIDE_STYLE( '', ( #445 ) );
#285 = EDGE_LOOP( '', ( #446 ) );
#286 = EDGE_LOOP( '', ( #447 ) );
#287 = AXIS2_PLACEMENT_3D( '', #448, #449, #450 );
#288 = SURFACE_SIDE_STYLE( '', ( #451 ) );
#289 = EDGE_LOOP( '', ( #452, #453, #454 ) );
#290 = AXIS2_PLACEMENT_3D( '', #455, #456, #457 );
#291 = SURFACE_SIDE_STYLE( '', ( #458 ) );
#292 = EDGE_LOOP( '', ( #459, #460, #461 ) );
#293 = AXIS2_PLACEMENT_3D( '', #462, #463, #464 );
#294 = SURFACE_SIDE_STYLE( '', ( #465 ) );
#295 = EDGE_LOOP( '', ( #466 ) );
#296 = EDGE_LOOP( '', ( #467 ) );
#297 = AXIS2_PLACEMENT_3D( '', #468, #469, #470 );
#298 = SURFACE_SIDE_STYLE( '', ( #471 ) );
#299 = EDGE_LOOP( '', ( #472 ) );
#300 = EDGE_LOOP( '', ( #473 ) );
#301 = AXIS2_PLACEMENT_3D( '', #474, #475, #476 );
#302 = SURFACE_SIDE_STYLE( '', ( #477 ) );
#303 = EDGE_LOOP( '', ( #478, #479, #480 ) );
#304 = AXIS2_PLACEMENT_3D( '', #481, #482, #483 );
#305 = SURFACE_SIDE_STYLE( '', ( #484 ) );
#306 = EDGE_LOOP( '', ( #485, #486, #487 ) );
#307 = AXIS2_PLACEMENT_3D( '', #488, #489, #490 );
#308 = SURFACE_SIDE_STYLE( '', ( #491 ) );
#309 = EDGE_LOOP( '', ( #492 ) );
#310 = EDGE_LOOP( '', ( #493, #494, #495, #496, #497, #498 ) );
#311 = AXIS2_PLACEMENT_3D( '', #499, #500, #501 );
#312 = SURFACE_SIDE_STYLE( '', ( #502 ) );
#313 = EDGE_LOOP( '', ( #503 ) );
#314 = EDGE_LOOP( '', ( #504, #505, #506, #507, #508, #509 ) );
#315 = AXIS2_PLACEMENT_3D( '', #510, #511, #512 );
#316 = SURFACE_SIDE_STYLE( '', ( #513 ) );
#317 = EDGE_LOOP( '', ( #514 ) );
#318 = EDGE_LOOP( '', ( #515 ) );
#319 = AXIS2_PLACEMENT_3D( '', #516, #517, #518 );
#320 = SURFACE_SIDE_STYLE( '', ( #519 ) );
#321 = EDGE_LOOP( '', ( #520 ) );
#322 = EDGE_LOOP( '', ( #521 ) );
#323 = AXIS2_PLACEMENT_3D( '', #522, #523, #524 );
#324 = SURFACE_SIDE_STYLE( '', ( #525 ) );
#325 = EDGE_LOOP( '', ( #526, #527, #528 ) );
#326 = AXIS2_PLACEMENT_3D( '', #529, #530, #531 );
#327 = SURFACE_SIDE_STYLE( '', ( #532 ) );
#328 = EDGE_LOOP( '', ( #533, #534, #535, #536, #537, #538 ) );
#329 = AXIS2_PLACEMENT_3D( '', #539, #540, #541 );
#330 = SURFACE_SIDE_STYLE( '', ( #542 ) );
#331 = EDGE_LOOP( '', ( #543 ) );
#332 = EDGE_LOOP( '', ( #544 ) );
#333 = AXIS2_PLACEMENT_3D( '', #545, #546, #547 );
#334 = SURFACE_SIDE_STYLE( '', ( #548 ) );
#335 = EDGE_LOOP( '', ( #549, #550, #551 ) );
#336 = AXIS2_PLACEMENT_3D( '', #552, #553, #554 );
#337 = SURFACE_SIDE_STYLE( '', ( #555 ) );
#338 = EDGE_LOOP( '', ( #556, #557, #558 ) );
#339 = AXIS2_PLACEMENT_3D( '', #559, #560, #561 );
#340 = SURFACE_SIDE_STYLE( '', ( #562 ) );
#341 = EDGE_LOOP( '', ( #563, #564, #565 ) );
#342 = AXIS2_PLACEMENT_3D( '', #566, #567, #568 );
#343 = SURFACE_SIDE_STYLE( '', ( #569 ) );
#344 = EDGE_LOOP( '', ( #570 ) );
#345 = VERTEX_LOOP( '', #571 );
#346 = AXIS2_PLACEMENT_3D( '', #572, #573, #574 );
#347 = SURFACE_SIDE_STYLE( '', ( #575 ) );
#348 = EDGE_LOOP( '', ( #576, #577, #578 ) );
#349 = AXIS2_PLACEMENT_3D( '', #579, #580, #581 );
#351 = SURFACE_STYLE_FILL_AREA( #582 );
#352 = ORIENTED_EDGE( '', *, *, #583, .T. );
#353 = ORIENTED_EDGE( '', *, *, #584, .T. );
#354 = CARTESIAN_POINT( '', ( -4.33680868994202E-015, 0.000000000000000, 0.000000000000000 ) );
#355 = DIRECTION( '', ( 5.38712954453735E-016, -0.000000000000000, 1.00000000000000 ) );
#356 = DIRECTION( '', ( -1.00000000000000, 0.000000000000000, 5.38712954453735E-016 ) );
#357 = SURFACE_STYLE_FILL_AREA( #585 );
#358 = ORIENTED_EDGE( '', *, *, #586, .F. );
#359 = ORIENTED_EDGE( '', *, *, #587, .T. );
#360 = ORIENTED_EDGE( '', *, *, #588, .F. );
#361 = ORIENTED_EDGE( '', *, *, #589, .F. );
#362 = ORIENTED_EDGE( '', *, *, #590, .F. );
#363 = ORIENTED_EDGE( '', *, *, #591, .F. );
#364 = CARTESIAN_POINT( '', ( 2.02072594216369, -3.50000000000000, -12.0000000000000 ) );
#365 = DIRECTION( '', ( 0.866025403784438, -0.500000000000000, 0.000000000000000 ) );
#366 = DIRECTION( '', ( 0.500000000000000, 0.866025403784438, 0.000000000000000 ) );
#367 = SURFACE_STYLE_FILL_AREA( #592 );
#368 = ORIENTED_EDGE( '', *, *, #593, .F. );
#369 = ORIENTED_EDGE( '', *, *, #594, .F. );
#370 = CARTESIAN_POINT( '', ( -1.88718940648259E-016, 0.000000000000000, 7.70000000000000 ) );
#371 = DIRECTION( '', ( -5.38712954453736E-016, 0.000000000000000, -1.00000000000000 ) );
#372 = DIRECTION( '', ( -1.00000000000000, 0.000000000000000, 5.38712954453736E-016 ) );
#373 = SURFACE_STYLE_FILL_AREA( #595 );
#374 = ORIENTED_EDGE( '', *, *, #591, .T. );
#375 = ORIENTED_EDGE( '', *, *, #596, .T. );
#376 = ORIENTED_EDGE( '', *, *, #597, .T. );
#377 = CARTESIAN_POINT( '', ( 0.000000000000000, 0.000000000000000, -12.0000000000000 ) );
#378 = DIRECTION( '', ( -0.000000000000000, -0.000000000000000, 1.00000000000000 ) );
#379 = DIRECTION( '', ( 1.00000000000000, 0.000000000000000, 0.000000000000000 ) );
#380 = SURFACE_STYLE_FILL_AREA( #598 );
#381 = ORIENTED_EDGE( '', *, *, #593, .T. );
#382 = CARTESIAN_POINT( '', ( -2.90211647296272E-031, 0.000000000000000, 8.00000000000000 ) );
#383 = DIRECTION( '', ( -5.38712954453735E-016, 0.000000000000000, -1.00000000000000 ) );
#384 = DIRECTION( '', ( -1.00000000000000, 0.000000000000000, 5.38712954453735E-016 ) );
#385 = SURFACE_STYLE_FILL_AREA( #599 );
#386 = ORIENTED_EDGE( '', *, *, #588, .T. );
#387 = ORIENTED_EDGE( '', *, *, #600, .T. );
#388 = ORIENTED_EDGE( '', *, *, #601, .T. );
#389 = CARTESIAN_POINT( '', ( 0.000000000000000, 0.000000000000000, -1.00000000000000 ) );
#390 = DIRECTION( '', ( -0.000000000000000, 0.000000000000000, -1.00000000000000 ) );
#391 = DIRECTION( '', ( -1.00000000000000, 0.000000000000000, 0.000000000000000 ) );
#392 = SURFACE_STYLE_FILL_AREA( #602 );
#393 = ORIENTED_EDGE( '', *, *, #603, .T. );
#394 = ORIENTED_EDGE( '', *, *, #604, .T. );
#395 = CARTESIAN_POINT( '', ( 0.000000000000000, 0.000000000000000, -12.0000000000000 ) );
#396 = DIRECTION( '', ( -0.000000000000000, 0.000000000000000, -1.00000000000000 ) );
#397 = DIRECTION( '', ( 0.000000000000000, 1.00000000000000, 0.000000000000000 ) );
#398 = SURFACE_STYLE_FILL_AREA( #605 );
#399 = ORIENTED_EDGE( '', *, *, #606, .F. );
#400 = ORIENTED_EDGE( '', *, *, #607, .T. );
#401 = ORIENTED_EDGE( '', *, *, #608, .F. );
#402 = ORIENTED_EDGE( '', *, *, #609, .F. );
#403 = ORIENTED_EDGE( '', *, *, #610, .F. );
#404 = ORIENTED_EDGE( '', *, *, #611, .F. );
#405 = CARTESIAN_POINT( '', ( -4.04145188432738, 1.38879313579902E-014, -12.0000000000000 ) );
#406 = DIRECTION( '', ( -0.866025403784439, -0.500000000000000, 0.000000000000000 ) );
#407 = DIRECTION( '', ( 0.499999999999999, -0.866025403784439, 0.000000000000000 ) );
#408 = SURFACE_STYLE_FILL_AREA( #612 );
#409 = ORIENTED_EDGE( '', *, *, #613, .F. );
#410 = ORIENTED_EDGE( '', *, *, #614, .T. );
#411 = ORIENTED_EDGE( '', *, *, #615, .F. );
#412 = ORIENTED_EDGE( '', *, *, #616, .F. );
#413 = ORIENTED_EDGE( '', *, *, #617, .F. );
#414 = ORIENTED_EDGE( '', *, *, #618, .F. );
#415 = CARTESIAN_POINT( '', ( 2.02072594216368, 3.50000000000000, -12.0000000000000 ) );
#416 = DIRECTION( '', ( 8.58465484992666E-016, 1.00000000000000, 0.000000000000000 ) );
#417 = DIRECTION( '', ( -1.00000000000000, 8.58465484992666E-016, 0.000000000000000 ) );
#418 = SURFACE_STYLE_FILL_AREA( #619 );
#419 = ORIENTED_EDGE( '', *, *, #620, .F. );
#420 = ORIENTED_EDGE( '', *, *, #610, .T. );
#421 = ORIENTED_EDGE( '', *, *, #621, .F. );
#422 = ORIENTED_EDGE( '', *, *, #622, .F. );
#423 = ORIENTED_EDGE( '', *, *, #614, .F. );
#424 = ORIENTED_EDGE( '', *, *, #623, .F. );
#425 = CARTESIAN_POINT( '', ( -2.02072594216368, 3.50000000000000, -12.0000000000000 ) );
#426 = DIRECTION( '', ( -0.866025403784438, 0.500000000000001, 0.000000000000000 ) );
#427 = DIRECTION( '', ( -0.500000000000001, -0.866025403784438, 0.000000000000000 ) );
#428 = SURFACE_STYLE_FILL_AREA( #624 );
#429 = ORIENTED_EDGE( '', *, *, #625, .F. );
#430 = ORIENTED_EDGE( '', *, *, #617, .T. );
#431 = ORIENTED_EDGE( '', *, *, #626, .F. );
#432 = ORIENTED_EDGE( '', *, *, #600, .F. );
#433 = ORIENTED_EDGE( '', *, *, #587, .F. );
#434 = ORIENTED_EDGE( '', *, *, #627, .F. );
#435 = CARTESIAN_POINT( '', ( 4.04145188432738, 6.52569660594270E-015, -12.0000000000000 ) );
#436 = DIRECTION( '', ( 0.866025403784438, 0.500000000000000, 0.000000000000000 ) );
#437 = DIRECTION( '', ( -0.500000000000000, 0.866025403784438, 0.000000000000000 ) );
#438 = SURFACE_STYLE_FILL_AREA( #628 );
#439 = ORIENTED_EDGE( '', *, *, #611, .T. );
#440 = ORIENTED_EDGE( '', *, *, #620, .T. );
#441 = ORIENTED_EDGE( '', *, *, #629, .T. );
#442 = CARTESIAN_POINT( '', ( 0.000000000000000, 0.000000000000000, -12.0000000000000 ) );
#443 = DIRECTION( '', ( -0.000000000000000, -0.000000000000000, 1.00000000000000 ) );
#444 = DIRECTION( '', ( 1.00000000000000, 0.000000000000000, 0.000000000000000 ) );
#445 = SURFACE_STYLE_FILL_AREA( #630 );
#446 = ORIENTED_EDGE( '', *, *, #631, .T. );
#447 = ORIENTED_EDGE( '', *, *, #632, .T. );
#448 = CARTESIAN_POINT( '', ( -3.39264531208386E-015, 0.000000000000000, 1.75262794416288 ) );
#449 = DIRECTION( '', ( 5.38712954453735E-016, -0.000000000000000, 1.00000000000000 ) );
#450 = DIRECTION( '', ( 1.00000000000000, 0.000000000000000, -5.38712954453735E-016 ) );
#451 = SURFACE_STYLE_FILL_AREA( #633 );
#452 = ORIENTED_EDGE( '', *, *, #616, .T. );
#453 = ORIENTED_EDGE( '', *, *, #634, .T. );
#454 = ORIENTED_EDGE( '', *, *, #626, .T. );
#455 = CARTESIAN_POINT( '', ( 0.000000000000000, 0.000000000000000, -1.00000000000000 ) );
#456 = DIRECTION( '', ( -0.000000000000000, 0.000000000000000, -1.00000000000000 ) );
#457 = DIRECTION( '', ( -1.00000000000000, 0.000000000000000, 0.000000000000000 ) );
#458 = SURFACE_STYLE_FILL_AREA( #635 );
#459 = ORIENTED_EDGE( '', *, *, #615, .T. );
#460 = ORIENTED_EDGE( '', *, *, #622, .T. );
#461 = ORIENTED_EDGE( '', *, *, #636, .F. );
#462 = CARTESIAN_POINT( '', ( 0.000000000000000, 0.000000000000000, -1.00000000000000 ) );
#463 = DIRECTION( '', ( -0.000000000000000, 0.000000000000000, -1.00000000000000 ) );
#464 = DIRECTION( '', ( -1.00000000000000, 0.000000000000000, 0.000000000000000 ) );
#465 = SURFACE_STYLE_FILL_AREA( #637 );
#466 = ORIENTED_EDGE( '', *, *, #584, .F. );
#467 = ORIENTED_EDGE( '', *, *, #638, .F. );
#468 = CARTESIAN_POINT( '', ( -4.12132350816052E-015, 0.000000000000000, 0.400000000000000 ) );
#469 = DIRECTION( '', ( 0.000000000000000, 0.000000000000000, 1.00000000000000 ) );
#470 = DIRECTION( '', ( 1.00000000000000, 0.000000000000000, 0.000000000000000 ) );
#471 = SURFACE_STYLE_FILL_AREA( #639 );
#472 = ORIENTED_EDGE( '', *, *, #640, .F. );
#473 = ORIENTED_EDGE( '', *, *, #641, .F. );
#474 = CARTESIAN_POINT( '', ( 0.000000000000000, 0.000000000000000, -12.0000000000000 ) );
#475 = DIRECTION( '', ( 0.000000000000000, -0.000000000000000, -1.00000000000000 ) );
#476 = DIRECTION( '', ( 0.000000000000000, 1.00000000000000, 0.000000000000000 ) );
#477 = SURFACE_STYLE_FILL_AREA( #642 );
#478 = ORIENTED_EDGE( '', *, *, #643, .T. );
#479 = ORIENTED_EDGE( '', *, *, #606, .T. );
#480 = ORIENTED_EDGE( '', *, *, #644, .T. );
#481 = CARTESIAN_POINT( '', ( 0.000000000000000, 0.000000000000000, -12.0000000000000 ) );
#482 = DIRECTION( '', ( -0.000000000000000, -0.000000000000000, 1.00000000000000 ) );
#483 = DIRECTION( '', ( 1.00000000000000, 0.000000000000000, 0.000000000000000 ) );
#484 = SURFACE_STYLE_FILL_AREA( #645 );
#485 = ORIENTED_EDGE( '', *, *, #608, .T. );
#486 = ORIENTED_EDGE( '', *, *, #646, .T. );
#487 = ORIENTED_EDGE( '', *, *, #647, .T. );
#488 = CARTESIAN_POINT( '', ( 0.000000000000000, 0.000000000000000, -1.00000000000000 ) );
#489 = DIRECTION( '', ( -0.000000000000000, 0.000000000000000, -1.00000000000000 ) );
#490 = DIRECTION( '', ( -1.00000000000000, 0.000000000000000, 0.000000000000000 ) );
#491 = SURFACE_STYLE_FILL_AREA( #648 );
#492 = ORIENTED_EDGE( '', *, *, #638, .T. );
#493 = ORIENTED_EDGE( '', *, *, #649, .F. );
#494 = ORIENTED_EDGE( '', *, *, #601, .F. );
#495 = ORIENTED_EDGE( '', *, *, #634, .F. );
#496 = ORIENTED_EDGE( '', *, *, #636, .T. );
#497 = ORIENTED_EDGE( '', *, *, #650, .F. );
#498 = ORIENTED_EDGE( '', *, *, #647, .F. );
#499 = CARTESIAN_POINT( '', ( 0.000000000000000, 0.000000000000000, 0.000000000000000 ) );
#500 = DIRECTION( '', ( 0.000000000000000, 0.000000000000000, 1.00000000000000 ) );
#501 = DIRECTION( '', ( 1.00000000000000, 0.000000000000000, 0.000000000000000 ) );
#502 = SURFACE_STYLE_FILL_AREA( #651 );
#503 = ORIENTED_EDGE( '', *, *, #641, .T. );
#504 = ORIENTED_EDGE( '', *, *, #652, .F. );
#505 = ORIENTED_EDGE( '', *, *, #597, .F. );
#506 = ORIENTED_EDGE( '', *, *, #644, .F. );
#507 = ORIENTED_EDGE( '', *, *, #629, .F. );
#508 = ORIENTED_EDGE( '', *, *, #653, .F. );
#509 = ORIENTED_EDGE( '', *, *, #654, .F. );
#510 = CARTESIAN_POINT( '', ( 0.000000000000000, 0.000000000000000, -12.0000000000000 ) );
#511 = DIRECTION( '', ( 0.000000000000000, 0.000000000000000, 1.00000000000000 ) );
#512 = DIRECTION( '', ( 1.00000000000000, 0.000000000000000, 0.000000000000000 ) );
#513 = SURFACE_STYLE_FILL_AREA( #655 );
#514 = ORIENTED_EDGE( '', *, *, #631, .F. );
#515 = ORIENTED_EDGE( '', *, *, #583, .F. );
#516 = CARTESIAN_POINT( '', ( -3.96357740681826E-015, 0.000000000000000, 0.692820323027550 ) );
#517 = DIRECTION( '', ( -5.38712954453735E-016, 0.000000000000000, -1.00000000000000 ) );
#518 = DIRECTION( '', ( -1.00000000000000, 0.000000000000000, 5.38712954453735E-016 ) );
#519 = SURFACE_STYLE_FILL_AREA( #656 );
#520 = ORIENTED_EDGE( '', *, *, #604, .F. );
#521 = ORIENTED_EDGE( '', *, *, #640, .T. );
#522 = CARTESIAN_POINT( '', ( 0.000000000000000, 0.000000000000000, -12.0000000000000 ) );
#523 = DIRECTION( '', ( -0.000000000000000, 0.000000000000000, -1.00000000000000 ) );
#524 = DIRECTION( '', ( 0.000000000000000, 1.00000000000000, 0.000000000000000 ) );
#525 = SURFACE_STYLE_FILL_AREA( #657 );
#526 = ORIENTED_EDGE( '', *, *, #621, .T. );
#527 = ORIENTED_EDGE( '', *, *, #609, .T. );
#528 = ORIENTED_EDGE( '', *, *, #650, .T. );
#529 = CARTESIAN_POINT( '', ( 0.000000000000000, 0.000000000000000, -1.00000000000000 ) );
#530 = DIRECTION( '', ( -0.000000000000000, 0.000000000000000, -1.00000000000000 ) );
#531 = DIRECTION( '', ( -1.00000000000000, 0.000000000000000, 0.000000000000000 ) );
#532 = SURFACE_STYLE_FILL_AREA( #658 );
#533 = ORIENTED_EDGE( '', *, *, #596, .F. );
#534 = ORIENTED_EDGE( '', *, *, #590, .T. );
#535 = ORIENTED_EDGE( '', *, *, #659, .F. );
#536 = ORIENTED_EDGE( '', *, *, #646, .F. );
#537 = ORIENTED_EDGE( '', *, *, #607, .F. );
#538 = ORIENTED_EDGE( '', *, *, #643, .F. );
#539 = CARTESIAN_POINT( '', ( -2.02072594216369, -3.50000000000000, -12.0000000000000 ) );
#540 = DIRECTION( '', ( -9.65773670616745E-016, -1.00000000000000, 0.000000000000000 ) );
#541 = DIRECTION( '', ( 1.00000000000000, -9.65773670616745E-016, 0.000000000000000 ) );
#542 = SURFACE_STYLE_FILL_AREA( #660 );
#543 = ORIENTED_EDGE( '', *, *, #594, .T. );
#544 = ORIENTED_EDGE( '', *, *, #632, .F. );
#545 = CARTESIAN_POINT( '', ( -4.33680868994202E-015, 0.000000000000000, 0.000000000000000 ) );
#546 = DIRECTION( '', ( 5.38712954453735E-016, -0.000000000000000, 1.00000000000000 ) );
#547 = DIRECTION( '', ( -1.00000000000000, 0.000000000000000, 5.38712954453735E-016 ) );
#548 = SURFACE_STYLE_FILL_AREA( #661 );
#549 = ORIENTED_EDGE( '', *, *, #659, .T. );
#550 = ORIENTED_EDGE( '', *, *, #589, .T. );
#551 = ORIENTED_EDGE( '', *, *, #649, .T. );
#552 = CARTESIAN_POINT( '', ( 0.000000000000000, 0.000000000000000, -1.00000000000000 ) );
#553 = DIRECTION( '', ( -0.000000000000000, 0.000000000000000, -1.00000000000000 ) );
#554 = DIRECTION( '', ( -1.00000000000000, 0.000000000000000, 0.000000000000000 ) );
#555 = SURFACE_STYLE_FILL_AREA( #662 );
#556 = ORIENTED_EDGE( '', *, *, #623, .T. );
#557 = ORIENTED_EDGE( '', *, *, #613, .T. );
#558 = ORIENTED_EDGE( '', *, *, #653, .T. );
#559 = CARTESIAN_POINT( '', ( 0.000000000000000, 0.000000000000000, -12.0000000000000 ) );
#560 = DIRECTION( '', ( -0.000000000000000, -0.000000000000000, 1.00000000000000 ) );
#561 = DIRECTION( '', ( 1.00000000000000, 0.000000000000000, 0.000000000000000 ) );
#562 = SURFACE_STYLE_FILL_AREA( #663 );
#563 = ORIENTED_EDGE( '', *, *, #627, .T. );
#564 = ORIENTED_EDGE( '', *, *, #586, .T. );
#565 = ORIENTED_EDGE( '', *, *, #652, .T. );
#566 = CARTESIAN_POINT( '', ( 0.000000000000000, 0.000000000000000, -12.0000000000000 ) );
#567 = DIRECTION( '', ( -0.000000000000000, -0.000000000000000, 1.00000000000000 ) );
#568 = DIRECTION( '', ( 1.00000000000000, 0.000000000000000, 0.000000000000000 ) );
#569 = SURFACE_STYLE_FILL_AREA( #664 );
#570 = ORIENTED_EDGE( '', *, *, #603, .F. );
#571 = VERTEX_POINT( '', #665 );
#572 = CARTESIAN_POINT( '', ( 0.000000000000000, 0.000000000000000, -4.00000000000000 ) );
#573 = DIRECTION( '', ( 0.000000000000000, -0.000000000000000, -1.00000000000000 ) );
#574 = DIRECTION( '', ( 0.000000000000000, -1.00000000000000, 0.000000000000000 ) );
#575 = SURFACE_STYLE_FILL_AREA( #666 );
#576 = ORIENTED_EDGE( '', *, *, #625, .T. );
#577 = ORIENTED_EDGE( '', *, *, #654, .T. );
#578 = ORIENTED_EDGE( '', *, *, #618, .T. );
#579 = CARTESIAN_POINT( '', ( 0.000000000000000, 0.000000000000000, -12.0000000000000 ) );
#580 = DIRECTION( '', ( -0.000000000000000, -0.000000000000000, 1.00000000000000 ) );
#581 = DIRECTION( '', ( 1.00000000000000, 0.000000000000000, 0.000000000000000 ) );
#582 = FILL_AREA_STYLE( '', ( #667 ) );
#583 = EDGE_CURVE( '', #668, #668, #669, .T. );
#584 = EDGE_CURVE( '', #670, #670, #671, .T. );
#585 = FILL_AREA_STYLE( '', ( #672 ) );
#586 = EDGE_CURVE( '', #673, #674, #675, .T. );
#587 = EDGE_CURVE( '', #673, #676, #677, .T. );
#588 = EDGE_CURVE( '', #678, #676, #679, .T. );
#589 = EDGE_CURVE( '', #680, #678, #681, .T. );
#590 = EDGE_CURVE( '', #682, #680, #683, .T. );
#591 = EDGE_CURVE( '', #674, #682, #684, .T. );
#592 = FILL_AREA_STYLE( '', ( #685 ) );
#593 = EDGE_CURVE( '', #686, #686, #687, .F. );
#594 = EDGE_CURVE( '', #688, #688, #689, .T. );
#595 = FILL_AREA_STYLE( '', ( #690 ) );
#596 = EDGE_CURVE( '', #682, #691, #692, .F. );
#597 = EDGE_CURVE( '', #691, #674, #693, .T. );
#598 = FILL_AREA_STYLE( '', ( #694 ) );
#599 = FILL_AREA_STYLE( '', ( #695 ) );
#600 = EDGE_CURVE( '', #676, #696, #697, .T. );
#601 = EDGE_CURVE( '', #696, #678, #698, .F. );
#602 = FILL_AREA_STYLE( '', ( #699 ) );
#603 = EDGE_CURVE( '', #700, #700, #701, .T. );
#604 = EDGE_CURVE( '', #702, #702, #703, .T. );
#605 = FILL_AREA_STYLE( '', ( #704 ) );
#606 = EDGE_CURVE( '', #705, #706, #707, .T. );
#607 = EDGE_CURVE( '', #705, #708, #709, .T. );
#608 = EDGE_CURVE( '', #710, #708, #711, .T. );
#609 = EDGE_CURVE( '', #712, #710, #713, .T. );
#610 = EDGE_CURVE( '', #714, #712, #715, .T. );
#611 = EDGE_CURVE( '', #706, #714, #716, .T. );
#612 = FILL_AREA_STYLE( '', ( #717 ) );
#613 = EDGE_CURVE( '', #718, #719, #720, .T. );
#614 = EDGE_CURVE( '', #718, #721, #722, .T. );
#615 = EDGE_CURVE( '', #723, #721, #724, .F. );
#616 = EDGE_CURVE( '', #725, #723, #726, .F. );
#617 = EDGE_CURVE( '', #727, #725, #728, .T. );
#618 = EDGE_CURVE( '', #719, #727, #729, .T. );
#619 = FILL_AREA_STYLE( '', ( #730 ) );
#620 = EDGE_CURVE( '', #714, #731, #732, .T. );
#621 = EDGE_CURVE( '', #733, #712, #734, .T. );
#622 = EDGE_CURVE( '', #721, #733, #735, .T. );
#623 = EDGE_CURVE( '', #731, #718, #736, .T. );
#624 = FILL_AREA_STYLE( '', ( #737 ) );
#625 = EDGE_CURVE( '', #727, #738, #739, .T. );
#626 = EDGE_CURVE( '', #696, #725, #740, .T. );
#627 = EDGE_CURVE( '', #738, #673, #741, .T. );
#628 = FILL_AREA_STYLE( '', ( #742 ) );
#629 = EDGE_CURVE( '', #731, #706, #743, .T. );
#630 = FILL_AREA_STYLE( '', ( #744 ) );
#631 = EDGE_CURVE( '', #745, #745, #746, .T. );
#632 = EDGE_CURVE( '', #747, #747, #748, .T. );
#633 = FILL_AREA_STYLE( '', ( #749 ) );
#634 = EDGE_CURVE( '', #723, #696, #750, .F. );
#635 = FILL_AREA_STYLE( '', ( #751 ) );
#636 = EDGE_CURVE( '', #723, #733, #752, .T. );
#637 = FILL_AREA_STYLE( '', ( #753 ) );
#638 = EDGE_CURVE( '', #754, #754, #755, .F. );
#639 = FILL_AREA_STYLE( '', ( #756 ) );
#640 = EDGE_CURVE( '', #757, #757, #758, .T. );
#641 = EDGE_CURVE( '', #759, #759, #760, .T. );
#642 = FILL_AREA_STYLE( '', ( #761 ) );
#643 = EDGE_CURVE( '', #691, #705, #762, .F. );
#644 = EDGE_CURVE( '', #706, #691, #763, .T. );
#645 = FILL_AREA_STYLE( '', ( #764 ) );
#646 = EDGE_CURVE( '', #708, #765, #766, .T. );
#647 = EDGE_CURVE( '', #765, #710, #767, .F. );
#648 = FILL_AREA_STYLE( '', ( #768 ) );
#649 = EDGE_CURVE( '', #678, #765, #769, .F. );
#650 = EDGE_CURVE( '', #710, #733, #770, .F. );
#651 = FILL_AREA_STYLE( '', ( #771 ) );
#652 = EDGE_CURVE( '', #674, #738, #772, .T. );
#653 = EDGE_CURVE( '', #719, #731, #773, .T. );
#654 = EDGE_CURVE( '', #738, #719, #774, .T. );
#655 = FILL_AREA_STYLE( '', ( #775 ) );
#656 = FILL_AREA_STYLE( '', ( #776 ) );
#657 = FILL_AREA_STYLE( '', ( #777 ) );
#658 = FILL_AREA_STYLE( '', ( #778 ) );
#659 = EDGE_CURVE( '', #765, #680, #779, .T. );
#660 = FILL_AREA_STYLE( '', ( #780 ) );
#661 = FILL_AREA_STYLE( '', ( #781 ) );
#662 = FILL_AREA_STYLE( '', ( #782 ) );
#663 = FILL_AREA_STYLE( '', ( #783 ) );
#664 = FILL_AREA_STYLE( '', ( #784 ) );
#665 = CARTESIAN_POINT( '', ( 0.000000000000000, 0.000000000000000, -3.02600493655632 ) );
#666 = FILL_AREA_STYLE( '', ( #785 ) );
#667 = FILL_AREA_STYLE_COLOUR( '', #786 );
#668 = VERTEX_POINT( '', #787 );
#669 = CIRCLE( '', #788, 1.45000000000000 );
#670 = VERTEX_POINT( '', #789 );
#671 = CIRCLE( '', #790, 1.45000000000000 );
#672 = FILL_AREA_STYLE_COLOUR( '', #791 );
#673 = VERTEX_POINT( '', #792 );
#674 = VERTEX_POINT( '', #793 );
#675 = B_SPLINE_CURVE_WITH_KNOTS( '', 3, ( #794, #795, #796, #797, #798, #799, #800, #801 ), .UNSPECIFIED., .F., .F., ( 4, 2, 2, 4 ), ( 0.000000000000000, 0.00104758702158703, 0.00157125331589704, 0.00209491961020706 ), .UNSPECIFIED. );
#676 = VERTEX_POINT( '', #802 );
#677 = LINE( '', #803, #804 );
#678 = VERTEX_POINT( '', #805 );
#679 = B_SPLINE_CURVE_WITH_KNOTS( '', 3, ( #806, #807, #808, #809, #810, #811 ), .UNSPECIFIED., .F., .F., ( 4, 2, 4 ), ( 0.00209491961020706, 0.00313491461756392, 0.00417490962492078 ), .UNSPECIFIED. );
#680 = VERTEX_POINT( '', #812 );
#681 = B_SPLINE_CURVE_WITH_KNOTS( '', 3, ( #813, #814, #815, #816, #817, #818, #819, #820 ), .UNSPECIFIED., .F., .F., ( 4, 2, 2, 4 ), ( 0.000000000000000, 0.00104758702158703, 0.00157125331589705, 0.00209491961020706 ), .UNSPECIFIED. );
#682 = VERTEX_POINT( '', #821 );
#683 = LINE( '', #822, #823 );
#684 = B_SPLINE_CURVE_WITH_KNOTS( '', 3, ( #824, #825, #826, #827, #828, #829 ), .UNSPECIFIED., .F., .F., ( 4, 2, 4 ), ( 0.00209491961020706, 0.00313491461756392, 0.00417490962492078 ), .UNSPECIFIED. );
#685 = FILL_AREA_STYLE_COLOUR( '', #830 );
#686 = VERTEX_POINT( '', #831 );
#687 = CIRCLE( '', #832, 1.70000000000000 );
#688 = VERTEX_POINT( '', #833 );
#689 = CIRCLE( '', #834, 2.00000000000000 );
#690 = FILL_AREA_STYLE_COLOUR( '', #835 );
#691 = VERTEX_POINT( '', #836 );
#692 = B_SPLINE_CURVE_WITH_KNOTS( '', 3, ( #837, #838, #839, #840, #841, #842, #843, #844 ), .UNSPECIFIED., .F., .F., ( 4, 2, 2, 4 ), ( 0.00571116827084067, 0.00675577593158269, 0.00727807976195370, 0.00780038359232472 ), .UNSPECIFIED. );
#693 = CIRCLE( '', #845, 3.50000000000000 );
#694 = FILL_AREA_STYLE_COLOUR( '', #846 );
#695 = FILL_AREA_STYLE_COLOUR( '', #847 );
#696 = VERTEX_POINT( '', #848 );
#697 = B_SPLINE_CURVE_WITH_KNOTS( '', 3, ( #849, #850, #851, #852, #853, #854, #855, #856 ), .UNSPECIFIED., .F., .F., ( 4, 2, 2, 4 ), ( 0.000000000000000, 0.00104758702158703, 0.00157125331589703, 0.00209491961020704 ), .UNSPECIFIED. );
#698 = CIRCLE( '', #857, 3.50000000000000 );
#699 = FILL_AREA_STYLE_COLOUR( '', #858 );
#700 = VERTEX_POINT( '', #859 );
#701 = CIRCLE( '', #860, 1.62100000000000 );
#702 = VERTEX_POINT( '', #861 );
#703 = CIRCLE( '', #862, 1.62100000000000 );
#704 = FILL_AREA_STYLE_COLOUR( '', #863 );
#705 = VERTEX_POINT( '', #864 );
#706 = VERTEX_POINT( '', #865 );
#707 = B_SPLINE_CURVE_WITH_KNOTS( '', 3, ( #866, #867, #868, #869, #870, #871, #872, #873 ), .UNSPECIFIED., .F., .F., ( 4, 2, 2, 4 ), ( 0.000000000000000, 0.00104758702158703, 0.00157125331589704, 0.00209491961020705 ), .UNSPECIFIED. );
#708 = VERTEX_POINT( '', #874 );
#709 = LINE( '', #875, #876 );
#710 = VERTEX_POINT( '', #877 );
#711 = B_SPLINE_CURVE_WITH_KNOTS( '', 3, ( #878, #879, #880, #881, #882, #883 ), .UNSPECIFIED., .F., .F., ( 4, 2, 4 ), ( 0.00209491961020706, 0.00313491461756392, 0.00417490962492078 ), .UNSPECIFIED. );
#712 = VERTEX_POINT( '', #884 );
#713 = B_SPLINE_CURVE_WITH_KNOTS( '', 3, ( #885, #886, #887, #888, #889, #890, #891, #892 ), .UNSPECIFIED., .F., .F., ( 4, 2, 2, 4 ), ( 0.000000000000000, 0.00104758702158703, 0.00157125331589704, 0.00209491961020706 ), .UNSPECIFIED. );
#714 = VERTEX_POINT( '', #893 );
#715 = LINE( '', #894, #895 );
#716 = B_SPLINE_CURVE_WITH_KNOTS( '', 3, ( #896, #897, #898, #899, #900, #901 ), .UNSPECIFIED., .F., .F., ( 4, 2, 4 ), ( 0.00209491961020705, 0.00313491461756391, 0.00417490962492078 ), .UNSPECIFIED. );
#717 = FILL_AREA_STYLE_COLOUR( '', #902 );
#718 = VERTEX_POINT( '', #903 );
#719 = VERTEX_POINT( '', #904 );
#720 = B_SPLINE_CURVE_WITH_KNOTS( '', 3, ( #905, #906, #907, #908, #909, #910, #911, #912 ), .UNSPECIFIED., .F., .F., ( 4, 2, 2, 4 ), ( 0.00362465320569583, 0.00466791073810891, 0.00518953950431544, 0.00571116827052198 ), .UNSPECIFIED. );
#721 = VERTEX_POINT( '', #913 );
#722 = LINE( '', #914, #915 );
#723 = VERTEX_POINT( '', #916 );
#724 = B_SPLINE_CURVE_WITH_KNOTS( '', 3, ( #917, #918, #919, #920, #921, #922, #923, #924 ), .UNSPECIFIED., .F., .F., ( 4, 2, 2, 4 ), ( 0.00362465320569584, 0.00466791073810892, 0.00518953950431545, 0.00571116827052199 ), .UNSPECIFIED. );
#725 = VERTEX_POINT( '', #925 );
#726 = B_SPLINE_CURVE_WITH_KNOTS( '', 3, ( #926, #927, #928, #929, #930, #931, #932, #933 ), .UNSPECIFIED., .F., .F., ( 4, 2, 2, 4 ), ( 0.00571116827052199, 0.00675577593126405, 0.00727807976163508, 0.00780038359200611 ), .UNSPECIFIED. );
#727 = VERTEX_POINT( '', #934 );
#728 = LINE( '', #935, #936 );
#729 = B_SPLINE_CURVE_WITH_KNOTS( '', 3, ( #937, #938, #939, #940, #941, #942, #943, #944 ), .UNSPECIFIED., .F., .F., ( 4, 2, 2, 4 ), ( 0.00571116827052198, 0.00675577593126404, 0.00727807976163507, 0.00780038359200609 ), .UNSPECIFIED. );
#730 = FILL_AREA_STYLE_COLOUR( '', #945 );
#731 = VERTEX_POINT( '', #946 );
#732 = B_SPLINE_CURVE_WITH_KNOTS( '', 3, ( #947, #948, #949, #950, #951, #952, #953, #954 ), .UNSPECIFIED., .F., .F., ( 4, 2, 2, 4 ), ( 0.000000000000000, 0.00104758702158702, 0.00157125331589703, 0.00209491961020704 ), .UNSPECIFIED. );
#733 = VERTEX_POINT( '', #955 );
#734 = B_SPLINE_CURVE_WITH_KNOTS( '', 3, ( #956, #957, #958, #959, #960, #961 ), .UNSPECIFIED., .F., .F., ( 4, 2, 4 ), ( 0.00209491961020706, 0.00313491461756391, 0.00417490962492076 ), .UNSPECIFIED. );
#735 = B_SPLINE_CURVE_WITH_KNOTS( '', 3, ( #962, #963, #964, #965, #966, #967, #968, #969 ), .UNSPECIFIED., .F., .F., ( 4, 2, 2, 4 ), ( 0.000000000000000, 0.00104758702158703, 0.00157125331589705, 0.00209491961020706 ), .UNSPECIFIED. );
#736 = B_SPLINE_CURVE_WITH_KNOTS( '', 3, ( #970, #971, #972, #973, #974, #975 ), .UNSPECIFIED., .F., .F., ( 4, 2, 4 ), ( 0.00209491961020704, 0.00313491461756390, 0.00417490962492076 ), .UNSPECIFIED. );
#737 = FILL_AREA_STYLE_COLOUR( '', #976 );
#738 = VERTEX_POINT( '', #977 );
#739 = B_SPLINE_CURVE_WITH_KNOTS( '', 3, ( #978, #979, #980, #981, #982, #983, #984, #985 ), .UNSPECIFIED., .F., .F., ( 4, 2, 2, 4 ), ( 0.000000000000000, 0.00104758702158704, 0.00157125331589705, 0.00209491961020706 ), .UNSPECIFIED. );
#740 = B_SPLINE_CURVE_WITH_KNOTS( '', 3, ( #986, #987, #988, #989, #990, #991 ), .UNSPECIFIED., .F., .F., ( 4, 2, 4 ), ( 0.00209491961020704, 0.00313491461756390, 0.00417490962492076 ), .UNSPECIFIED. );
#741 = B_SPLINE_CURVE_WITH_KNOTS( '', 3, ( #992, #993, #994, #995, #996, #997 ), .UNSPECIFIED., .F., .F., ( 4, 2, 4 ), ( 0.00209491961020706, 0.00313491461756391, 0.00417490962492077 ), .UNSPECIFIED. );
#742 = FILL_AREA_STYLE_COLOUR( '', #998 );
#743 = CIRCLE( '', #999, 3.50000000000000 );
#744 = FILL_AREA_STYLE_COLOUR( '', #1000 );
#745 = VERTEX_POINT( '', #1001 );
#746 = CIRCLE( '', #1002, 1.50358983850000 );
#747 = VERTEX_POINT( '', #1003 );
#748 = CIRCLE( '', #1004, 2.00000000000000 );
#749 = FILL_AREA_STYLE_COLOUR( '', #1005 );
#750 = CIRCLE( '', #1006, 3.50000000000000 );
#751 = FILL_AREA_STYLE_COLOUR( '', #1007 );
#752 = CIRCLE( '', #1008, 3.50000000000000 );
#753 = FILL_AREA_STYLE_COLOUR( '', #1009 );
#754 = VERTEX_POINT( '', #1010 );
#755 = CIRCLE( '', #1011, 1.85000000000000 );
#756 = FILL_AREA_STYLE_COLOUR( '', #1012 );
#757 = VERTEX_POINT( '', #1013 );
#758 = CIRCLE( '', #1014, 1.62100000000000 );
#759 = VERTEX_POINT( '', #1015 );
#760 = CIRCLE( '', #1016, 1.92100000000000 );
#761 = FILL_AREA_STYLE_COLOUR( '', #1017 );
#762 = B_SPLINE_CURVE_WITH_KNOTS( '', 3, ( #1018, #1019, #1020, #1021, #1022, #1023, #1024, #1025 ), .UNSPECIFIED., .F., .F., ( 4, 2, 2, 4 ), ( 0.00362465320601803, 0.00466791073842935, 0.00518953950463501, 0.00571116827084067 ), .UNSPECIFIED. );
#763 = CIRCLE( '', #1026, 3.50000000000000 );
#764 = FILL_AREA_STYLE_COLOUR( '', #1027 );
#765 = VERTEX_POINT( '', #1028 );
#766 = B_SPLINE_CURVE_WITH_KNOTS( '', 3, ( #1029, #1030, #1031, #1032, #1033, #1034, #1035, #1036 ), .UNSPECIFIED., .F., .F., ( 4, 2, 2, 4 ), ( 0.00362465320601804, 0.00466791073842935, 0.00518953950463501, 0.00571116827084067 ), .UNSPECIFIED. );
#767 = CIRCLE( '', #1037, 3.50000000000000 );
#768 = FILL_AREA_STYLE_COLOUR( '', #1038 );
#769 = CIRCLE( '', #1039, 3.50000000000000 );
#770 = CIRCLE( '', #1040, 3.50000000000000 );
#771 = FILL_AREA_STYLE_COLOUR( '', #1041 );
#772 = CIRCLE( '', #1042, 3.50000000000000 );
#773 = CIRCLE( '', #1043, 3.50000000000000 );
#774 = CIRCLE( '', #1044, 3.50000000000000 );
#775 = FILL_AREA_STYLE_COLOUR( '', #1045 );
#776 = FILL_AREA_STYLE_COLOUR( '', #1046 );
#777 = FILL_AREA_STYLE_COLOUR( '', #1047 );
#778 = FILL_AREA_STYLE_COLOUR( '', #1048 );
#779 = B_SPLINE_CURVE_WITH_KNOTS( '', 3, ( #1049, #1050, #1051, #1052, #1053, #1054, #1055, #1056 ), .UNSPECIFIED., .F., .F., ( 4, 2, 2, 4 ), ( 0.00571116827084067, 0.00675577593158269, 0.00727807976195370, 0.00780038359232471 ), .UNSPECIFIED. );
#780 = FILL_AREA_STYLE_COLOUR( '', #1057 );
#781 = FILL_AREA_STYLE_COLOUR( '', #1058 );
#782 = FILL_AREA_STYLE_COLOUR( '', #1059 );
#783 = FILL_AREA_STYLE_COLOUR( '', #1060 );
#784 = FILL_AREA_STYLE_COLOUR( '', #1061 );
#785 = FILL_AREA_STYLE_COLOUR( '', #1062 );
#786 = COLOUR_RGB( '', 0.505882382400000, 0.529411792800000, 0.549019634700000 );
#787 = CARTESIAN_POINT( '', ( -1.45000000000000, 0.000000000000000, 0.692820323027551 ) );
#788 = AXIS2_PLACEMENT_3D( '', #1063, #1064, #1065 );
#789 = CARTESIAN_POINT( '', ( 1.45000000000000, 0.000000000000000, 0.400000000000000 ) );
#790 = AXIS2_PLACEMENT_3D( '', #1066, #1067, #1068 );
#791 = COLOUR_RGB( '', 0.505882382400000, 0.529411792800000, 0.549019634700000 );
#792 = CARTESIAN_POINT( '', ( 4.04145188432738, 6.48248495511343E-015, -11.4585481156726 ) );
#793 = CARTESIAN_POINT( '', ( 3.03108891324553, -1.75000000000000, -12.0000000000000 ) );
#794 = CARTESIAN_POINT( '', ( 4.04145188432738, 4.34792053303720E-015, -11.4585481156726 ) );
#795 = CARTESIAN_POINT( '', ( 3.88301299660350, -0.274424203432455, -11.6169870033965 ) );
#796 = CARTESIAN_POINT( '', ( 3.72098809587036, -0.555059563593555, -11.7516191378666 ) );
#797 = CARTESIAN_POINT( '', ( 3.46921402221870, -0.991145051186813, -11.8955661562228 ) );
#798 = CARTESIAN_POINT( '', ( 3.38381775504671, -1.13905572470542, -11.9337790259158 ) );
#799 = CARTESIAN_POINT( '', ( 3.20939557528577, -1.44116380201830, -11.9861083460704 ) );
#800 = CARTESIAN_POINT( '', ( 3.11958017449335, -1.59672863949292, -12.0000000000000 ) );
#801 = CARTESIAN_POINT( '', ( 3.03108891324553, -1.75000000000000, -12.0000000000000 ) );
#802 = CARTESIAN_POINT( '', ( 4.04145188432738, 6.72098410117904E-015, -0.541451884327371 ) );
#803 = CARTESIAN_POINT( '', ( 4.04145188432738, 6.93889390390723E-015, -12.0000000000000 ) );
#804 = VECTOR( '', #1069, 1000.00000000000 );
#805 = CARTESIAN_POINT( '', ( 3.03108891324554, -1.75000000000000, 0.000000000000000 ) );
#806 = CARTESIAN_POINT( '', ( 3.03108891324553, -1.75000000000000, 3.44109762478525E-015 ) );
#807 = CARTESIAN_POINT( '', ( 3.20683150140219, -1.44560490825902, 3.01501377575168E-015 ) );
#808 = CARTESIAN_POINT( '', ( 3.37958597691273, -1.14638537943985, -0.0537436454448055 ) );
#809 = CARTESIAN_POINT( '', ( 3.72030144562284, -0.556248876709287, -0.247445629111179 ) );
#810 = CARTESIAN_POINT( '', ( 3.88319615613298, -0.274106961821511, -0.383196156132727 ) );
#811 = CARTESIAN_POINT( '', ( 4.04145188432742, 7.26132194445570E-014, -0.541451884327174 ) );
#812 = CARTESIAN_POINT( '', ( 2.02072594216369, -3.50000000000000, -0.541451884327367 ) );
#813 = CARTESIAN_POINT( '', ( 2.02072594216369, -3.50000000000000, -0.541451884327377 ) );
#814 = CARTESIAN_POINT( '', ( 2.17916482988757, -3.22557579656754, -0.383012996603498 ) );
#815 = CARTESIAN_POINT( '', ( 2.34118973062070, -2.94494043640644, -0.248380862133447 ) );
#816 = CARTESIAN_POINT( '', ( 2.59296380427236, -2.50885494881318, -0.104433843777224 ) );
#817 = CARTESIAN_POINT( '', ( 2.67836007144435, -2.36094427529457, -0.0662209740841900 ) );
#818 = CARTESIAN_POINT( '', ( 2.85278225120530, -2.05883619798170, -0.0138916539295999 ) );
#819 = CARTESIAN_POINT( '', ( 2.94259765199771, -1.90327136050707, 3.64732387087702E-015 ) );
#820 = CARTESIAN_POINT( '', ( 3.03108891324553, -1.75000000000000, 3.44109762478525E-015 ) );
#821 = CARTESIAN_POINT( '', ( 2.02072594216369, -3.50000000000000, -11.4585481156726 ) );
#822 = CARTESIAN_POINT( '', ( 2.02072594216369, -3.50000000000000, -12.0000000000000 ) );
#823 = VECTOR( '', #1070, 1000.00000000000 );
#824 = CARTESIAN_POINT( '', ( 3.03108891324553, -1.75000000000000, -12.0000000000000 ) );
#825 = CARTESIAN_POINT( '', ( 2.85534632508888, -2.05439509174098, -12.0000000000000 ) );
#826 = CARTESIAN_POINT( '', ( 2.68259184957833, -2.35361462056015, -11.9462563545552 ) );
#827 = CARTESIAN_POINT( '', ( 2.34187638086822, -2.94375112329071, -11.7525543708888 ) );
#828 = CARTESIAN_POINT( '', ( 2.17898167035809, -3.22589303817849, -11.6168038438673 ) );
#829 = CARTESIAN_POINT( '', ( 2.02072594216364, -3.50000000000007, -11.4585481156728 ) );
#830 = COLOUR_RGB( '', 0.505882382400000, 0.529411792800000, 0.549019634700000 );
#831 = CARTESIAN_POINT( '', ( -1.70000000000000, 0.000000000000000, 8.00000000000000 ) );
#832 = AXIS2_PLACEMENT_3D( '', #1071, #1072, #1073 );
#833 = CARTESIAN_POINT( '', ( -2.00000000000000, 0.000000000000000, 7.70000000000000 ) );
#834 = AXIS2_PLACEMENT_3D( '', #1074, #1075, #1076 );
#835 = COLOUR_RGB( '', 0.505882382400000, 0.529411792800000, 0.549019634700000 );
#836 = CARTESIAN_POINT( '', ( -3.38020784715860E-015, -3.50000000000000, -12.0000000000000 ) );
#837 = CARTESIAN_POINT( '', ( -1.01187406841054E-015, -3.50000000000000, -12.0000000000000 ) );
#838 = CARTESIAN_POINT( '', ( 0.354885398005654, -3.50000000000000, -12.0000000000000 ) );
#839 = CARTESIAN_POINT( '', ( 0.700762444481538, -3.50000000000000, -11.9453574315268 ) );
#840 = CARTESIAN_POINT( '', ( 1.20922016417659, -3.50000000000000, -11.8005652658882 ) );
#841 = CARTESIAN_POINT( '', ( 1.37772173779797, -3.50000000000000, -11.7415805278648 ) );
#842 = CARTESIAN_POINT( '', ( 1.70479380956453, -3.50000000000000, -11.6097658586078 ) );
#843 = CARTESIAN_POINT( '', ( 1.86426501704720, -3.50000000000000, -11.5367785782309 ) );
#844 = CARTESIAN_POINT( '', ( 2.02072594216369, -3.50000000000000, -11.4585481156726 ) );
#845 = AXIS2_PLACEMENT_3D( '', #1077, #1078, #1079 );
#846 = COLOUR_RGB( '', 0.505882382400000, 0.529411792800000, 0.549019634700000 );
#847 = COLOUR_RGB( '', 0.505882382400000, 0.529411792800000, 0.549019634700000 );
#848 = CARTESIAN_POINT( '', ( 3.03108891324554, 1.75000000000000, 0.000000000000000 ) );
#849 = CARTESIAN_POINT( '', ( 4.04145188432737, 7.35970706573349E-015, -0.541451884327375 ) );
#850 = CARTESIAN_POINT( '', ( 3.88301299660349, 0.274424203432465, -0.383012996603497 ) );
#851 = CARTESIAN_POINT( '', ( 3.72098809587036, 0.555059563593562, -0.248380862133448 ) );
#852 = CARTESIAN_POINT( '', ( 3.46921402221870, 0.991145051186818, -0.104433843777227 ) );
#853 = CARTESIAN_POINT( '', ( 3.38381775504672, 1.13905572470543, -0.0662209740841920 ) );
#854 = CARTESIAN_POINT( '', ( 3.20939557528577, 1.44116380201830, -0.0138916539296021 ) );
#855 = CARTESIAN_POINT( '', ( 3.11958017449335, 1.59672863949292, 1.70168919103389E-015 ) );
#856 = CARTESIAN_POINT( '', ( 3.03108891324553, 1.75000000000000, 1.74447243346137E-015 ) );
#857 = AXIS2_PLACEMENT_3D( '', #1080, #1081, #1082 );
#858 = COLOUR_RGB( '', 0.505882382400000, 0.529411792800000, 0.549019634700000 );
#859 = CARTESIAN_POINT( '', ( 0.000000000000000, -1.62100000000000, -4.00000000000000 ) );
#860 = AXIS2_PLACEMENT_3D( '', #1083, #1084, #1085 );
#861 = CARTESIAN_POINT( '', ( 0.000000000000000, 1.62100000000000, -6.00000000000000 ) );
#862 = AXIS2_PLACEMENT_3D( '', #1086, #1087, #1088 );
#863 = COLOUR_RGB( '', 0.505882382400000, 0.529411792800000, 0.549019634700000 );
#864 = CARTESIAN_POINT( '', ( -2.02072594216369, -3.50000000000000, -11.4585481156726 ) );
#865 = CARTESIAN_POINT( '', ( -3.03108891324554, -1.75000000000000, -12.0000000000000 ) );
#866 = CARTESIAN_POINT( '', ( -2.02072594216369, -3.50000000000000, -11.4585481156726 ) );
#867 = CARTESIAN_POINT( '', ( -2.17916482988757, -3.22557579656754, -11.6169870033965 ) );
#868 = CARTESIAN_POINT( '', ( -2.34118973062070, -2.94494043640644, -11.7516191378666 ) );
#869 = CARTESIAN_POINT( '', ( -2.59296380427236, -2.50885494881318, -11.8955661562228 ) );
#870 = CARTESIAN_POINT( '', ( -2.67836007144435, -2.36094427529457, -11.9337790259158 ) );
#871 = CARTESIAN_POINT( '', ( -2.85278225120529, -2.05883619798170, -11.9861083460704 ) );
#872 = CARTESIAN_POINT( '', ( -2.94259765199771, -1.90327136050707, -12.0000000000000 ) );
#873 = CARTESIAN_POINT( '', ( -3.03108891324553, -1.75000000000000, -12.0000000000000 ) );
#874 = CARTESIAN_POINT( '', ( -2.02072594216369, -3.50000000000000, -0.541451884327368 ) );
#875 = CARTESIAN_POINT( '', ( -2.02072594216369, -3.50000000000000, -12.0000000000000 ) );
#876 = VECTOR( '', #1089, 1000.00000000000 );
#877 = CARTESIAN_POINT( '', ( -3.03108891324555, -1.75000000000000, 0.000000000000000 ) );
#878 = CARTESIAN_POINT( '', ( -3.03108891324553, -1.74999999999999, 6.49051301522826E-015 ) );
#879 = CARTESIAN_POINT( '', ( -2.85534632508888, -2.05439509174097, 6.68944270094083E-015 ) );
#880 = CARTESIAN_POINT( '', ( -2.68259184957834, -2.35361462056014, -0.0537436454448013 ) );
#881 = CARTESIAN_POINT( '', ( -2.34187638086822, -2.94375112329070, -0.247445629111174 ) );
#882 = CARTESIAN_POINT( '', ( -2.17898167035809, -3.22589303817848, -0.383196156132723 ) );
#883 = CARTESIAN_POINT( '', ( -2.02072594216365, -3.50000000000006, -0.541451884327170 ) );
#884 = CARTESIAN_POINT( '', ( -4.04145188432738, 1.36477101718133E-014, -0.541451884327373 ) );
#885 = CARTESIAN_POINT( '', ( -4.04145188432738, 1.24195676208817E-014, -0.541451884327379 ) );
#886 = CARTESIAN_POINT( '', ( -3.88301299660350, -0.274424203432447, -0.383012996603499 ) );
#887 = CARTESIAN_POINT( '', ( -3.72098809587036, -0.555059563593546, -0.248380862133448 ) );
#888 = CARTESIAN_POINT( '', ( -3.46921402221871, -0.991145051186805, -0.104433843777224 ) );
#889 = CARTESIAN_POINT( '', ( -3.38381775504672, -1.13905572470542, -0.0662209740841885 ) );
#890 = CARTESIAN_POINT( '', ( -3.20939557528577, -1.44116380201829, -0.0138916539295976 ) );
#891 = CARTESIAN_POINT( '', ( -3.11958017449335, -1.59672863949292, 6.39340468587546E-015 ) );
#892 = CARTESIAN_POINT( '', ( -3.03108891324553, -1.74999999999999, 6.49051301522826E-015 ) );
#893 = CARTESIAN_POINT( '', ( -4.04145188432738, 1.32104066679517E-014, -11.4585481156726 ) );
#894 = CARTESIAN_POINT( '', ( -4.04145188432738, 1.34441069388203E-014, -12.0000000000000 ) );
#895 = VECTOR( '', #1090, 1000.00000000000 );
#896 = CARTESIAN_POINT( '', ( -3.03108891324553, -1.75000000000000, -12.0000000000000 ) );
#897 = CARTESIAN_POINT( '', ( -3.20683150140218, -1.44560490825902, -12.0000000000000 ) );
#898 = CARTESIAN_POINT( '', ( -3.37958597691273, -1.14638537943984, -11.9462563545552 ) );
#899 = CARTESIAN_POINT( '', ( -3.72030144562284, -0.556248876709279, -11.7525543708888 ) );
#900 = CARTESIAN_POINT( '', ( -3.88319615613298, -0.274106961821502, -11.6168038438673 ) );
#901 = CARTESIAN_POINT( '', ( -4.04145188432742, 8.38653103068965E-014, -11.4585481156728 ) );
#902 = COLOUR_RGB( '', 0.505882382400000, 0.529411792800000, 0.549019634700000 );
#903 = CARTESIAN_POINT( '', ( -2.02072594216368, 3.50000000000000, -11.4585481156726 ) );
#904 = CARTESIAN_POINT( '', ( 0.000000000000000, 3.50000000000000, -12.0000000000000 ) );
#905 = CARTESIAN_POINT( '', ( -2.02072594216385, 3.50000000000000, -11.4585481156729 ) );
#906 = CARTESIAN_POINT( '', ( -1.70739730499005, 3.50000000000000, -11.6152124342598 ) );
#907 = CARTESIAN_POINT( '', ( -1.37756559723381, 3.50000000000000, -11.7525313261904 ) );
#908 = CARTESIAN_POINT( '', ( -0.872491469624615, 3.50000000000000, -11.8965017016525 ) );
#909 = CARTESIAN_POINT( '', ( -0.701825053455080, 3.50000000000000, -11.9344498466594 ) );
#910 = CARTESIAN_POINT( '', ( -0.354948639833558, 3.50000000000000, -11.9862302256338 ) );
#911 = CARTESIAN_POINT( '', ( -0.177213358913641, 3.50000000000000, -12.0000000000000 ) );
#912 = CARTESIAN_POINT( '', ( 2.81673917671900E-015, 3.50000000000000, -12.0000000000000 ) );
#913 = CARTESIAN_POINT( '', ( -2.02072594216368, 3.50000000000000, -0.541451884327377 ) );
#914 = CARTESIAN_POINT( '', ( -2.02072594216368, 3.50000000000000, -12.0000000000000 ) );
#915 = VECTOR( '', #1091, 1000.00000000000 );
#916 = CARTESIAN_POINT( '', ( 0.000000000000000, 3.50000000000000, 0.000000000000000 ) );
#917 = CARTESIAN_POINT( '', ( -2.02072594216385, 3.50000000000000, -0.541451884327125 ) );
#918 = CARTESIAN_POINT( '', ( -1.70739730499005, 3.50000000000000, -0.384787565740216 ) );
#919 = CARTESIAN_POINT( '', ( -1.37756559723380, 3.50000000000000, -0.247468673809643 ) );
#920 = CARTESIAN_POINT( '', ( -0.872491469624612, 3.50000000000000, -0.103498298347503 ) );
#921 = CARTESIAN_POINT( '', ( -0.701825053455078, 3.50000000000000, -0.0655501533406022 ) );
#922 = CARTESIAN_POINT( '', ( -0.354948639833556, 3.50000000000000, -0.0137697743662231 ) );
#923 = CARTESIAN_POINT( '', ( -0.177213358913642, 3.50000000000000, 1.37782614365121E-014 ) );
#924 = CARTESIAN_POINT( '', ( 1.94605592157007E-015, 3.50000000000000, 1.38309685579633E-014 ) );
#925 = CARTESIAN_POINT( '', ( 2.02072594216369, 3.50000000000000, -0.541451884327377 ) );
#926 = CARTESIAN_POINT( '', ( 1.94605592157007E-015, 3.50000000000000, 1.38309685579633E-014 ) );
#927 = CARTESIAN_POINT( '', ( 0.354885398006842, 3.50000000000000, 1.39430093447530E-014 ) );
#928 = CARTESIAN_POINT( '', ( 0.700762444482507, 3.50000000000000, -0.0546425684734500 ) );
#929 = CARTESIAN_POINT( '', ( 1.20922016417583, 3.50000000000000, -0.199434734111555 ) );
#930 = CARTESIAN_POINT( '', ( 1.37772173779701, 3.50000000000000, -0.258419472134828 ) );
#931 = CARTESIAN_POINT( '', ( 1.70479380956429, 3.50000000000000, -0.390234141392071 ) );
#932 = CARTESIAN_POINT( '', ( 1.86426501704714, 3.50000000000000, -0.463221421769105 ) );
#933 = CARTESIAN_POINT( '', ( 2.02072594216369, 3.50000000000000, -0.541451884327377 ) );
#934 = CARTESIAN_POINT( '', ( 2.02072594216369, 3.50000000000000, -11.4585481156726 ) );
#935 = CARTESIAN_POINT( '', ( 2.02072594216369, 3.50000000000000, -12.0000000000000 ) );
#936 = VECTOR( '', #1092, 1000.00000000000 );
#937 = CARTESIAN_POINT( '', ( 2.58064355511449E-015, 3.50000000000000, -12.0000000000000 ) );
#938 = CARTESIAN_POINT( '', ( 0.354885398006842, 3.50000000000000, -12.0000000000000 ) );
#939 = CARTESIAN_POINT( '', ( 0.700762444482507, 3.50000000000000, -11.9453574315265 ) );
#940 = CARTESIAN_POINT( '', ( 1.20922016417583, 3.50000000000000, -11.8005652658885 ) );
#941 = CARTESIAN_POINT( '', ( 1.37772173779701, 3.50000000000000, -11.7415805278652 ) );
#942 = CARTESIAN_POINT( '', ( 1.70479380956429, 3.50000000000000, -11.6097658586079 ) );
#943 = CARTESIAN_POINT( '', ( 1.86426501704714, 3.50000000000000, -11.5367785782309 ) );
#944 = CARTESIAN_POINT( '', ( 2.02072594216369, 3.50000000000000, -11.4585481156726 ) );
#945 = COLOUR_RGB( '', 0.505882382400000, 0.529411792800000, 0.549019634700000 );
#946 = CARTESIAN_POINT( '', ( -3.03108891324553, 1.75000000000000, -12.0000000000000 ) );
#947 = CARTESIAN_POINT( '', ( -4.04145188432737, 5.21925783093745E-015, -11.4585481156726 ) );
#948 = CARTESIAN_POINT( '', ( -3.88301299660349, 0.274424203432463, -11.6169870033965 ) );
#949 = CARTESIAN_POINT( '', ( -3.72098809587036, 0.555059563593560, -11.7516191378666 ) );
#950 = CARTESIAN_POINT( '', ( -3.46921402221870, 0.991145051186815, -11.8955661562228 ) );
#951 = CARTESIAN_POINT( '', ( -3.38381775504671, 1.13905572470543, -11.9337790259158 ) );
#952 = CARTESIAN_POINT( '', ( -3.20939557528577, 1.44116380201830, -11.9861083460704 ) );
#953 = CARTESIAN_POINT( '', ( -3.11958017449335, 1.59672863949292, -12.0000000000000 ) );
#954 = CARTESIAN_POINT( '', ( -3.03108891324553, 1.75000000000000, -12.0000000000000 ) );
#955 = CARTESIAN_POINT( '', ( -3.03108891324554, 1.75000000000000, 0.000000000000000 ) );
#956 = CARTESIAN_POINT( '', ( -3.03108891324553, 1.75000000000000, 6.69370248788054E-015 ) );
#957 = CARTESIAN_POINT( '', ( -3.20683150140218, 1.44560490825902, 6.36926424687871E-015 ) );
#958 = CARTESIAN_POINT( '', ( -3.37958597691272, 1.14638537943985, -0.0537436454448010 ) );
#959 = CARTESIAN_POINT( '', ( -3.72030144562283, 0.556248876709296, -0.247445629111172 ) );
#960 = CARTESIAN_POINT( '', ( -3.88319615613297, 0.274106961821518, -0.383196156132720 ) );
#961 = CARTESIAN_POINT( '', ( -4.04145188432741, -6.36212047372649E-014, -0.541451884327166 ) );
#962 = CARTESIAN_POINT( '', ( -2.02072594216368, 3.50000000000000, -0.541451884327376 ) );
#963 = CARTESIAN_POINT( '', ( -2.17916482988756, 3.22557579656754, -0.383012996603496 ) );
#964 = CARTESIAN_POINT( '', ( -2.34118973062070, 2.94494043640644, -0.248380862133445 ) );
#965 = CARTESIAN_POINT( '', ( -2.59296380427235, 2.50885494881318, -0.104433843777222 ) );
#966 = CARTESIAN_POINT( '', ( -2.67836007144434, 2.36094427529457, -0.0662209740841873 ) );
#967 = CARTESIAN_POINT( '', ( -2.85278225120529, 2.05883619798170, -0.0138916539295969 ) );
#968 = CARTESIAN_POINT( '', ( -2.94259765199771, 1.90327136050707, 6.86308445512797E-015 ) );
#969 = CARTESIAN_POINT( '', ( -3.03108891324553, 1.75000000000000, 6.69370248788054E-015 ) );
#970 = CARTESIAN_POINT( '', ( -3.03108891324553, 1.75000000000000, -12.0000000000000 ) );
#971 = CARTESIAN_POINT( '', ( -2.85534632508887, 2.05439509174098, -12.0000000000000 ) );
#972 = CARTESIAN_POINT( '', ( -2.68259184957833, 2.35361462056015, -11.9462563545552 ) );
#973 = CARTESIAN_POINT( '', ( -2.34187638086822, 2.94375112329071, -11.7525543708888 ) );
#974 = CARTESIAN_POINT( '', ( -2.17898167035808, 3.22589303817849, -11.6168038438673 ) );
#975 = CARTESIAN_POINT( '', ( -2.02072594216364, 3.50000000000007, -11.4585481156728 ) );
#976 = COLOUR_RGB( '', 0.505882382400000, 0.529411792800000, 0.549019634700000 );
#977 = CARTESIAN_POINT( '', ( 3.03108891324554, 1.75000000000000, -12.0000000000000 ) );
#978 = CARTESIAN_POINT( '', ( 2.02072594216369, 3.50000000000000, -11.4585481156726 ) );
#979 = CARTESIAN_POINT( '', ( 2.17916482988757, 3.22557579656754, -11.6169870033965 ) );
#980 = CARTESIAN_POINT( '', ( 2.34118973062070, 2.94494043640644, -11.7516191378666 ) );
#981 = CARTESIAN_POINT( '', ( 2.59296380427236, 2.50885494881319, -11.8955661562228 ) );
#982 = CARTESIAN_POINT( '', ( 2.67836007144435, 2.36094427529457, -11.9337790259158 ) );
#983 = CARTESIAN_POINT( '', ( 2.85278225120530, 2.05883619798170, -11.9861083460704 ) );
#984 = CARTESIAN_POINT( '', ( 2.94259765199771, 1.90327136050708, -12.0000000000000 ) );
#985 = CARTESIAN_POINT( '', ( 3.03108891324553, 1.75000000000000, -12.0000000000000 ) );
#986 = CARTESIAN_POINT( '', ( 3.03108891324553, 1.75000000000000, 1.74447243346137E-015 ) );
#987 = CARTESIAN_POINT( '', ( 2.85534632508888, 2.05439509174098, 1.82196786954400E-015 ) );
#988 = CARTESIAN_POINT( '', ( 2.68259184957834, 2.35361462056015, -0.0537436454448063 ) );
#989 = CARTESIAN_POINT( '', ( 2.34187638086822, 2.94375112329071, -0.247445629111179 ) );
#990 = CARTESIAN_POINT( '', ( 2.17898167035809, 3.22589303817849, -0.383196156132728 ) );
#991 = CARTESIAN_POINT( '', ( 2.02072594216365, 3.50000000000007, -0.541451884327175 ) );
#992 = CARTESIAN_POINT( '', ( 3.03108891324553, 1.75000000000000, -12.0000000000000 ) );
#993 = CARTESIAN_POINT( '', ( 3.20683150140219, 1.44560490825902, -12.0000000000000 ) );
#994 = CARTESIAN_POINT( '', ( 3.37958597691273, 1.14638537943985, -11.9462563545552 ) );
#995 = CARTESIAN_POINT( '', ( 3.72030144562284, 0.556248876709296, -11.7525543708888 ) );
#996 = CARTESIAN_POINT( '', ( 3.88319615613298, 0.274106961821517, -11.6168038438673 ) );
#997 = CARTESIAN_POINT( '', ( 4.04145188432742, -6.54703262579820E-014, -11.4585481156728 ) );
#998 = COLOUR_RGB( '', 0.505882382400000, 0.529411792800000, 0.549019634700000 );
#999 = AXIS2_PLACEMENT_3D( '', #1093, #1094, #1095 );
#1000 = COLOUR_RGB( '', 0.505882382400000, 0.529411792800000, 0.549019634700000 );
#1001 = CARTESIAN_POINT( '', ( 1.50358983848622, 0.000000000000000, 0.892820323027549 ) );
#1002 = AXIS2_PLACEMENT_3D( '', #1096, #1097, #1098 );
#1003 = CARTESIAN_POINT( '', ( -2.00000000000000, 0.000000000000000, 1.75262794416288 ) );
#1004 = AXIS2_PLACEMENT_3D( '', #1099, #1100, #1101 );
#1005 = COLOUR_RGB( '', 0.505882382400000, 0.529411792800000, 0.549019634700000 );
#1006 = AXIS2_PLACEMENT_3D( '', #1102, #1103, #1104 );
#1007 = COLOUR_RGB( '', 0.505882382400000, 0.529411792800000, 0.549019634700000 );
#1008 = AXIS2_PLACEMENT_3D( '', #1105, #1106, #1107 );
#1009 = COLOUR_RGB( '', 0.505882382400000, 0.529411792800000, 0.549019634700000 );
#1010 = CARTESIAN_POINT( '', ( 1.85000000000000, 0.000000000000000, 0.000000000000000 ) );
#1011 = AXIS2_PLACEMENT_3D( '', #1108, #1109, #1110 );
#1012 = COLOUR_RGB( '', 0.505882382400000, 0.529411792800000, 0.549019634700000 );
#1013 = CARTESIAN_POINT( '', ( -1.62100000000000, 0.000000000000000, -11.7000000000000 ) );
#1014 = AXIS2_PLACEMENT_3D( '', #1111, #1112, #1113 );
#1015 = CARTESIAN_POINT( '', ( 0.000000000000000, 1.92100000000000, -12.0000000000000 ) );
#1016 = AXIS2_PLACEMENT_3D( '', #1114, #1115, #1116 );
#1017 = COLOUR_RGB( '', 0.505882382400000, 0.529411792800000, 0.549019634700000 );
#1018 = CARTESIAN_POINT( '', ( -2.02072594216386, -3.50000000000000, -11.4585481156729 ) );
#1019 = CARTESIAN_POINT( '', ( -1.70739730499023, -3.50000000000000, -11.6152124342597 ) );
#1020 = CARTESIAN_POINT( '', ( -1.37756559723439, -3.50000000000000, -11.7525313261901 ) );
#1021 = CARTESIAN_POINT( '', ( -0.872491469625349, -3.50000000000000, -11.8965017016523 ) );
#1022 = CARTESIAN_POINT( '', ( -0.701825053455729, -3.50000000000000, -11.9344498466593 ) );
#1023 = CARTESIAN_POINT( '', ( -0.354948639833685, -3.50000000000000, -11.9862302256338 ) );
#1024 = CARTESIAN_POINT( '', ( -0.177213358912760, -3.50000000000000, -12.0000000000000 ) );
#1025 = CARTESIAN_POINT( '', ( -1.01187406841054E-015, -3.50000000000000, -12.0000000000000 ) );
#1026 = AXIS2_PLACEMENT_3D( '', #1117, #1118, #1119 );
#1027 = COLOUR_RGB( '', 0.505882382400000, 0.529411792800000, 0.549019634700000 );
#1028 = CARTESIAN_POINT( '', ( -3.38020784715861E-015, -3.50000000000000, 0.000000000000000 ) );
#1029 = CARTESIAN_POINT( '', ( -2.02072594216386, -3.50000000000000, -0.541451884327126 ) );
#1030 = CARTESIAN_POINT( '', ( -1.70739730499022, -3.50000000000000, -0.384787565740300 ) );
#1031 = CARTESIAN_POINT( '', ( -1.37756559723439, -3.50000000000000, -0.247468673809866 ) );
#1032 = CARTESIAN_POINT( '', ( -0.872491469625347, -3.50000000000000, -0.103498298347682 ) );
#1033 = CARTESIAN_POINT( '', ( -0.701825053455729, -3.50000000000000, -0.0655501533407173 ) );
#1034 = CARTESIAN_POINT( '', ( -0.354948639833688, -3.50000000000000, -0.0137697743662237 ) );
#1035 = CARTESIAN_POINT( '', ( -0.177213358912758, -3.50000000000000, 1.39129396751255E-014 ) );
#1036 = CARTESIAN_POINT( '', ( -8.49824371628937E-016, -3.50000000000000, 1.37836633395024E-014 ) );
#1037 = AXIS2_PLACEMENT_3D( '', #1120, #1121, #1122 );
#1038 = COLOUR_RGB( '', 0.505882382400000, 0.529411792800000, 0.549019634700000 );
#1039 = AXIS2_PLACEMENT_3D( '', #1123, #1124, #1125 );
#1040 = AXIS2_PLACEMENT_3D( '', #1126, #1127, #1128 );
#1041 = COLOUR_RGB( '', 0.505882382400000, 0.529411792800000, 0.549019634700000 );
#1042 = AXIS2_PLACEMENT_3D( '', #1129, #1130, #1131 );
#1043 = AXIS2_PLACEMENT_3D( '', #1132, #1133, #1134 );
#1044 = AXIS2_PLACEMENT_3D( '', #1135, #1136, #1137 );
#1045 = COLOUR_RGB( '', 0.505882382400000, 0.529411792800000, 0.549019634700000 );
#1046 = COLOUR_RGB( '', 0.184313729400000, 0.749019622800000, 0.580392181900000 );
#1047 = COLOUR_RGB( '', 0.505882382400000, 0.529411792800000, 0.549019634700000 );
#1048 = COLOUR_RGB( '', 0.505882382400000, 0.529411792800000, 0.549019634700000 );
#1049 = CARTESIAN_POINT( '', ( -8.49824371628937E-016, -3.50000000000000, 1.37836633395024E-014 ) );
#1050 = CARTESIAN_POINT( '', ( 0.354885398005652, -3.50000000000000, 1.35199163875995E-014 ) );
#1051 = CARTESIAN_POINT( '', ( 0.700762444481535, -3.50000000000000, -0.0546425684731594 ) );
#1052 = CARTESIAN_POINT( '', ( 1.20922016417659, -3.50000000000000, -0.199434734111781 ) );
#1053 = CARTESIAN_POINT( '', ( 1.37772173779796, -3.50000000000000, -0.258419472135192 ) );
#1054 = CARTESIAN_POINT( '', ( 1.70479380956453, -3.50000000000000, -0.390234141392188 ) );
#1055 = CARTESIAN_POINT( '', ( 1.86426501704719, -3.50000000000000, -0.463221421769136 ) );
#1056 = CARTESIAN_POINT( '', ( 2.02072594216368, -3.50000000000000, -0.541451884327377 ) );
#1057 = COLOUR_RGB( '', 0.184313729400000, 0.749019622800000, 0.580392181900000 );
#1058 = COLOUR_RGB( '', 0.505882382400000, 0.529411792800000, 0.549019634700000 );
#1059 = COLOUR_RGB( '', 0.505882382400000, 0.529411792800000, 0.549019634700000 );
#1060 = COLOUR_RGB( '', 0.505882382400000, 0.529411792800000, 0.549019634700000 );
#1061 = COLOUR_RGB( '', 0.505882382400000, 0.529411792800000, 0.549019634700000 );
#1062 = COLOUR_RGB( '', 0.505882382400000, 0.529411792800000, 0.549019634700000 );
#1063 = CARTESIAN_POINT( '', ( -3.96357740681826E-015, 0.000000000000000, 0.692820323027550 ) );
#1064 = DIRECTION( '', ( -5.38712954453735E-016, 0.000000000000000, -1.00000000000000 ) );
#1065 = DIRECTION( '', ( -1.00000000000000, 0.000000000000000, 5.38712954453735E-016 ) );
#1066 = CARTESIAN_POINT( '', ( -4.12132350816052E-015, 0.000000000000000, 0.400000000000000 ) );
#1067 = DIRECTION( '', ( 0.000000000000000, 0.000000000000000, 1.00000000000000 ) );
#1068 = DIRECTION( '', ( 1.00000000000000, 0.000000000000000, 0.000000000000000 ) );
#1069 = DIRECTION( '', ( 0.000000000000000, 0.000000000000000, 1.00000000000000 ) );
#1070 = DIRECTION( '', ( 0.000000000000000, 0.000000000000000, 1.00000000000000 ) );
#1071 = CARTESIAN_POINT( '', ( -2.71050543121368E-017, 0.000000000000000, 8.00000000000000 ) );
#1072 = DIRECTION( '', ( -5.38712954453735E-016, 0.000000000000000, -1.00000000000000 ) );
#1073 = DIRECTION( '', ( -1.00000000000000, 0.000000000000000, 5.38712954453735E-016 ) );
#1074 = CARTESIAN_POINT( '', ( -1.88718940648259E-016, 0.000000000000000, 7.70000000000000 ) );
#1075 = DIRECTION( '', ( -5.38712954453736E-016, 0.000000000000000, -1.00000000000000 ) );
#1076 = DIRECTION( '', ( -1.00000000000000, 0.000000000000000, 5.38712954453736E-016 ) );
#1077 = CARTESIAN_POINT( '', ( 0.000000000000000, 0.000000000000000, -12.0000000000000 ) );
#1078 = DIRECTION( '', ( 0.000000000000000, 0.000000000000000, 1.00000000000000 ) );
#1079 = DIRECTION( '', ( 1.00000000000000, 0.000000000000000, 0.000000000000000 ) );
#1080 = CARTESIAN_POINT( '', ( 0.000000000000000, 0.000000000000000, 0.000000000000000 ) );
#1081 = DIRECTION( '', ( 0.000000000000000, 0.000000000000000, 1.00000000000000 ) );
#1082 = DIRECTION( '', ( 1.00000000000000, 0.000000000000000, 0.000000000000000 ) );
#1083 = CARTESIAN_POINT( '', ( 0.000000000000000, 0.000000000000000, -4.00000000000000 ) );
#1084 = DIRECTION( '', ( 0.000000000000000, 0.000000000000000, 1.00000000000000 ) );
#1085 = DIRECTION( '', ( 0.000000000000000, -1.00000000000000, 0.000000000000000 ) );
#1086 = CARTESIAN_POINT( '', ( 0.000000000000000, 0.000000000000000, -6.00000000000000 ) );
#1087 = DIRECTION( '', ( 0.000000000000000, 0.000000000000000, -1.00000000000000 ) );
#1088 = DIRECTION( '', ( 0.000000000000000, 1.00000000000000, 0.000000000000000 ) );
#1089 = DIRECTION( '', ( 0.000000000000000, 0.000000000000000, 1.00000000000000 ) );
#1090 = DIRECTION( '', ( 0.000000000000000, 0.000000000000000, 1.00000000000000 ) );
#1091 = DIRECTION( '', ( 0.000000000000000, 0.000000000000000, 1.00000000000000 ) );
#1092 = DIRECTION( '', ( 0.000000000000000, 0.000000000000000, 1.00000000000000 ) );
#1093 = CARTESIAN_POINT( '', ( 0.000000000000000, 0.000000000000000, -12.0000000000000 ) );
#1094 = DIRECTION( '', ( 0.000000000000000, 0.000000000000000, 1.00000000000000 ) );
#1095 = DIRECTION( '', ( 1.00000000000000, 0.000000000000000, 0.000000000000000 ) );
#1096 = CARTESIAN_POINT( '', ( -3.85583481592751E-015, 0.000000000000000, 0.892820323027550 ) );
#1097 = DIRECTION( '', ( 5.38712954453735E-016, 0.000000000000000, 1.00000000000000 ) );
#1098 = DIRECTION( '', ( 1.00000000000000, 0.000000000000000, -5.38712954453735E-016 ) );
#1099 = CARTESIAN_POINT( '', ( -3.39264531208386E-015, 0.000000000000000, 1.75262794416288 ) );
#1100 = DIRECTION( '', ( -5.38712954453735E-016, 0.000000000000000, -1.00000000000000 ) );
#1101 = DIRECTION( '', ( -1.00000000000000, 0.000000000000000, 5.38712954453735E-016 ) );
#1102 = CARTESIAN_POINT( '', ( 0.000000000000000, 0.000000000000000, 0.000000000000000 ) );
#1103 = DIRECTION( '', ( 0.000000000000000, 0.000000000000000, 1.00000000000000 ) );
#1104 = DIRECTION( '', ( 1.00000000000000, 0.000000000000000, 0.000000000000000 ) );
#1105 = CARTESIAN_POINT( '', ( 0.000000000000000, 0.000000000000000, 0.000000000000000 ) );
#1106 = DIRECTION( '', ( 0.000000000000000, 0.000000000000000, 1.00000000000000 ) );
#1107 = DIRECTION( '', ( 1.00000000000000, 0.000000000000000, 0.000000000000000 ) );
#1108 = CARTESIAN_POINT( '', ( -4.12132350816052E-015, 0.000000000000000, 0.000000000000000 ) );
#1109 = DIRECTION( '', ( 0.000000000000000, 0.000000000000000, 1.00000000000000 ) );
#1110 = DIRECTION( '', ( 1.00000000000000, 0.000000000000000, 0.000000000000000 ) );
#1111 = CARTESIAN_POINT( '', ( 0.000000000000000, 0.000000000000000, -11.7000000000000 ) );
#1112 = DIRECTION( '', ( 0.000000000000000, 0.000000000000000, -1.00000000000000 ) );
#1113 = DIRECTION( '', ( -1.00000000000000, 0.000000000000000, 0.000000000000000 ) );
#1114 = CARTESIAN_POINT( '', ( 0.000000000000000, 0.000000000000000, -12.0000000000000 ) );
#1115 = DIRECTION( '', ( 0.000000000000000, -0.000000000000000, 1.00000000000000 ) );
#1116 = DIRECTION( '', ( 0.000000000000000, 1.00000000000000, 0.000000000000000 ) );
#1117 = CARTESIAN_POINT( '', ( 0.000000000000000, 0.000000000000000, -12.0000000000000 ) );
#1118 = DIRECTION( '', ( 0.000000000000000, 0.000000000000000, 1.00000000000000 ) );
#1119 = DIRECTION( '', ( 1.00000000000000, 0.000000000000000, 0.000000000000000 ) );
#1120 = CARTESIAN_POINT( '', ( 0.000000000000000, 0.000000000000000, 0.000000000000000 ) );
#1121 = DIRECTION( '', ( 0.000000000000000, 0.000000000000000, 1.00000000000000 ) );
#1122 = DIRECTION( '', ( 1.00000000000000, 0.000000000000000, 0.000000000000000 ) );
#1123 = CARTESIAN_POINT( '', ( 0.000000000000000, 0.000000000000000, 0.000000000000000 ) );
#1124 = DIRECTION( '', ( 0.000000000000000, 0.000000000000000, 1.00000000000000 ) );
#1125 = DIRECTION( '', ( 1.00000000000000, 0.000000000000000, 0.000000000000000 ) );
#1126 = CARTESIAN_POINT( '', ( 0.000000000000000, 0.000000000000000, 0.000000000000000 ) );
#1127 = DIRECTION( '', ( 0.000000000000000, 0.000000000000000, 1.00000000000000 ) );
#1128 = DIRECTION( '', ( 1.00000000000000, 0.000000000000000, 0.000000000000000 ) );
#1129 = CARTESIAN_POINT( '', ( 0.000000000000000, 0.000000000000000, -12.0000000000000 ) );
#1130 = DIRECTION( '', ( 0.000000000000000, 0.000000000000000, 1.00000000000000 ) );
#1131 = DIRECTION( '', ( 1.00000000000000, 0.000000000000000, 0.000000000000000 ) );
#1132 = CARTESIAN_POINT( '', ( 0.000000000000000, 0.000000000000000, -12.0000000000000 ) );
#1133 = DIRECTION( '', ( 0.000000000000000, 0.000000000000000, 1.00000000000000 ) );
#1134 = DIRECTION( '', ( 1.00000000000000, 0.000000000000000, 0.000000000000000 ) );
#1135 = CARTESIAN_POINT( '', ( 0.000000000000000, 0.000000000000000, -12.0000000000000 ) );
#1136 = DIRECTION( '', ( 0.000000000000000, 0.000000000000000, 1.00000000000000 ) );
#1137 = DIRECTION( '', ( 1.00000000000000, 0.000000000000000, 0.000000000000000 ) );
ENDSEC;
END-ISO-10303-21;
