ISO-10303-21;
HEADER;
FILE_DESCRIPTION( ( 'Unknown' ), '1' );
FILE_NAME( 'I:/User_Groups_Only/17_EMC_Product_&_Development/Article_Master/eiCan/Assembly/As_SBRIE/Master_Data/01_CAD_drawing/1_Drawing/971xxxxx4/971xxx474/971250747/Released_Data/971250474.stp', 'Unknown', ( 'Unknown' ), ( 'Unknown' ), 'PSStep 19.0.9', 'Unknown', '  ' );
FILE_SCHEMA( ( 'AUTOMOTIVE_DESIGN { 1 0 10303 214 1 1 1 1 }' ) );
ENDSEC;
DATA;
#1 = MECHANICAL_DESIGN_GEOMETRIC_PRESENTATION_REPRESENTATION( ' ', ( #10, #11, #12, #13, #14, #15, #16, #17, #18, #19, #20, #21, #22, #23, #24, #25, #26, #27, #28, #29, #30, #31, #32, #33, #34, #35, #36, #37, #38, #39, #40 ), #6 );
#2 = PRODUCT_DEFINITION_CONTEXT( '', #41, 'design' );
#3 = APPLICATION_PROTOCOL_DEFINITION( 'international standard', 'automotive_design', 2001, #41 );
#4 = PRODUCT_CATEGORY_RELATIONSHIP( 'NONE', 'NONE', #42, #43 );
#5 = SHAPE_DEFINITION_REPRESENTATION( #44, #45 );
#6 =  ( GEOMETRIC_REPRESENTATION_CONTEXT( 3 )GLOBAL_UNCERTAINTY_ASSIGNED_CONTEXT( ( #48 ) )GLOBAL_UNIT_ASSIGNED_CONTEXT( ( #50, #51, #52 ) )REPRESENTATION_CONTEXT( 'NONE', 'WORKSPACE' ) );
#10 = STYLED_ITEM( '', ( #54 ), #55 );
#11 = STYLED_ITEM( '', ( #56 ), #57 );
#12 = STYLED_ITEM( '', ( #58 ), #59 );
#13 = STYLED_ITEM( '', ( #60 ), #61 );
#14 = STYLED_ITEM( '', ( #62 ), #63 );
#15 = STYLED_ITEM( '', ( #64 ), #65 );
#16 = STYLED_ITEM( '', ( #66 ), #67 );
#17 = STYLED_ITEM( '', ( #68 ), #69 );
#18 = STYLED_ITEM( '', ( #70 ), #71 );
#19 = STYLED_ITEM( '', ( #72 ), #73 );
#20 = STYLED_ITEM( '', ( #74 ), #75 );
#21 = STYLED_ITEM( '', ( #76 ), #77 );
#22 = STYLED_ITEM( '', ( #78 ), #79 );
#23 = STYLED_ITEM( '', ( #80 ), #81 );
#24 = STYLED_ITEM( '', ( #82 ), #83 );
#25 = STYLED_ITEM( '', ( #84 ), #85 );
#26 = STYLED_ITEM( '', ( #86 ), #87 );
#27 = STYLED_ITEM( '', ( #88 ), #89 );
#28 = STYLED_ITEM( '', ( #90 ), #91 );
#29 = STYLED_ITEM( '', ( #92 ), #93 );
#30 = STYLED_ITEM( '', ( #94 ), #95 );
#31 = STYLED_ITEM( '', ( #96 ), #97 );
#32 = STYLED_ITEM( '', ( #98 ), #99 );
#33 = STYLED_ITEM( '', ( #100 ), #101 );
#34 = STYLED_ITEM( '', ( #102 ), #103 );
#35 = STYLED_ITEM( '', ( #104 ), #105 );
#36 = STYLED_ITEM( '', ( #106 ), #107 );
#37 = STYLED_ITEM( '', ( #108 ), #109 );
#38 = STYLED_ITEM( '', ( #110 ), #111 );
#39 = STYLED_ITEM( '', ( #112 ), #113 );
#40 = STYLED_ITEM( '', ( #114 ), #115 );
#41 = APPLICATION_CONTEXT( 'core data for automotive mechanical design processes' );
#42 = PRODUCT_CATEGORY( 'part', 'NONE' );
#43 = PRODUCT_RELATED_PRODUCT_CATEGORY( 'detail', ' ', ( #116 ) );
#44 = PRODUCT_DEFINITION_SHAPE( 'NONE', 'NONE', #117 );
#45 = ADVANCED_BREP_SHAPE_REPRESENTATION( '1', ( #118, #119 ), #6 );
#48 = UNCERTAINTY_MEASURE_WITH_UNIT( LENGTH_MEASURE( 0.00100000000000000 ), #50, '', '' );
#50 =  ( CONVERSION_BASED_UNIT( 'MILLIMETRE', #122 )LENGTH_UNIT(  )NAMED_UNIT( #125 ) );
#51 =  ( NAMED_UNIT( #127 )PLANE_ANGLE_UNIT(  )SI_UNIT( $, .RADIAN. ) );
#52 =  ( NAMED_UNIT( #127 )SI_UNIT( $, .STERADIAN. )SOLID_ANGLE_UNIT(  ) );
#54 = PRESENTATION_STYLE_ASSIGNMENT( ( #133 ) );
#55 = ADVANCED_FACE( '', ( #134 ), #135, .T. );
#56 = PRESENTATION_STYLE_ASSIGNMENT( ( #136 ) );
#57 = ADVANCED_FACE( '', ( #137 ), #138, .T. );
#58 = PRESENTATION_STYLE_ASSIGNMENT( ( #139 ) );
#59 = ADVANCED_FACE( '', ( #140, #141 ), #142, .T. );
#60 = PRESENTATION_STYLE_ASSIGNMENT( ( #143 ) );
#61 = ADVANCED_FACE( '', ( #144 ), #145, .T. );
#62 = PRESENTATION_STYLE_ASSIGNMENT( ( #146 ) );
#63 = ADVANCED_FACE( '', ( #147, #148 ), #149, .F. );
#64 = PRESENTATION_STYLE_ASSIGNMENT( ( #150 ) );
#65 = ADVANCED_FACE( '', ( #151 ), #152, .T. );
#66 = PRESENTATION_STYLE_ASSIGNMENT( ( #153 ) );
#67 = ADVANCED_FACE( '', ( #154, #155 ), #156, .F. );
#68 = PRESENTATION_STYLE_ASSIGNMENT( ( #157 ) );
#69 = ADVANCED_FACE( '', ( #158, #159 ), #160, .F. );
#70 = PRESENTATION_STYLE_ASSIGNMENT( ( #161 ) );
#71 = ADVANCED_FACE( '', ( #162 ), #163, .T. );
#72 = PRESENTATION_STYLE_ASSIGNMENT( ( #164 ) );
#73 = ADVANCED_FACE( '', ( #165, #166 ), #167, .F. );
#74 = PRESENTATION_STYLE_ASSIGNMENT( ( #168 ) );
#75 = ADVANCED_FACE( '', ( #169, #170 ), #171, .F. );
#76 = PRESENTATION_STYLE_ASSIGNMENT( ( #172 ) );
#77 = ADVANCED_FACE( '', ( #173 ), #174, .T. );
#78 = PRESENTATION_STYLE_ASSIGNMENT( ( #175 ) );
#79 = ADVANCED_FACE( '', ( #176 ), #177, .T. );
#80 = PRESENTATION_STYLE_ASSIGNMENT( ( #178 ) );
#81 = ADVANCED_FACE( '', ( #179, #180 ), #181, .T. );
#82 = PRESENTATION_STYLE_ASSIGNMENT( ( #182 ) );
#83 = ADVANCED_FACE( '', ( #183 ), #184, .F. );
#84 = PRESENTATION_STYLE_ASSIGNMENT( ( #185 ) );
#85 = ADVANCED_FACE( '', ( #186 ), #187, .T. );
#86 = PRESENTATION_STYLE_ASSIGNMENT( ( #188 ) );
#87 = ADVANCED_FACE( '', ( #189 ), #190, .T. );
#88 = PRESENTATION_STYLE_ASSIGNMENT( ( #191 ) );
#89 = ADVANCED_FACE( '', ( #192 ), #193, .T. );
#90 = PRESENTATION_STYLE_ASSIGNMENT( ( #194 ) );
#91 = ADVANCED_FACE( '', ( #195 ), #196, .T. );
#92 = PRESENTATION_STYLE_ASSIGNMENT( ( #197 ) );
#93 = ADVANCED_FACE( '', ( #198, #199 ), #200, .T. );
#94 = PRESENTATION_STYLE_ASSIGNMENT( ( #201 ) );
#95 = ADVANCED_FACE( '', ( #202, #203 ), #204, .F. );
#96 = PRESENTATION_STYLE_ASSIGNMENT( ( #205 ) );
#97 = ADVANCED_FACE( '', ( #206, #207 ), #208, .T. );
#98 = PRESENTATION_STYLE_ASSIGNMENT( ( #209 ) );
#99 = ADVANCED_FACE( '', ( #210, #211 ), #212, .F. );
#100 = PRESENTATION_STYLE_ASSIGNMENT( ( #213 ) );
#101 = ADVANCED_FACE( '', ( #214 ), #215, .T. );
#102 = PRESENTATION_STYLE_ASSIGNMENT( ( #216 ) );
#103 = ADVANCED_FACE( '', ( #217 ), #218, .T. );
#104 = PRESENTATION_STYLE_ASSIGNMENT( ( #219 ) );
#105 = ADVANCED_FACE( '', ( #220 ), #221, .T. );
#106 = PRESENTATION_STYLE_ASSIGNMENT( ( #222 ) );
#107 = ADVANCED_FACE( '', ( #223 ), #224, .T. );
#108 = PRESENTATION_STYLE_ASSIGNMENT( ( #225 ) );
#109 = ADVANCED_FACE( '', ( #226 ), #227, .T. );
#110 = PRESENTATION_STYLE_ASSIGNMENT( ( #228 ) );
#111 = ADVANCED_FACE( '', ( #229 ), #230, .T. );
#112 = PRESENTATION_STYLE_ASSIGNMENT( ( #231 ) );
#113 = ADVANCED_FACE( '', ( #232 ), #233, .T. );
#114 = PRESENTATION_STYLE_ASSIGNMENT( ( #234 ) );
#115 = ADVANCED_FACE( '', ( #235, #236 ), #237, .T. );
#116 = PRODUCT( '1', '1', 'PART-1-DESC', ( #238 ) );
#117 = PRODUCT_DEFINITION( 'NONE', 'NONE', #239, #2 );
#118 = MANIFOLD_SOLID_BREP( '1', #240 );
#119 = AXIS2_PLACEMENT_3D( '', #241, #242, #243 );
#122 = LENGTH_MEASURE_WITH_UNIT( LENGTH_MEASURE( 1.00000000000000 ), #244 );
#125 = DIMENSIONAL_EXPONENTS( 1.00000000000000, 0.000000000000000, 0.000000000000000, 0.000000000000000, 0.000000000000000, 0.000000000000000, 0.000000000000000 );
#127 = DIMENSIONAL_EXPONENTS( 0.000000000000000, 0.000000000000000, 0.000000000000000, 0.000000000000000, 0.000000000000000, 0.000000000000000, 0.000000000000000 );
#133 = SURFACE_STYLE_USAGE( .BOTH., #245 );
#134 = FACE_OUTER_BOUND( '', #246, .T. );
#135 = PLANE( '', #247 );
#136 = SURFACE_STYLE_USAGE( .BOTH., #248 );
#137 = FACE_OUTER_BOUND( '', #249, .T. );
#138 = CONICAL_SURFACE( '', #250, 4.50000000000000, 0.785398163400000 );
#139 = SURFACE_STYLE_USAGE( .BOTH., #251 );
#140 = FACE_OUTER_BOUND( '', #252, .T. );
#141 = FACE_OUTER_BOUND( '', #253, .T. );
#142 = CYLINDRICAL_SURFACE( '', #254, 1.45000000000000 );
#143 = SURFACE_STYLE_USAGE( .BOTH., #255 );
#144 = FACE_OUTER_BOUND( '', #256, .T. );
#145 = CONICAL_SURFACE( '', #257, 3.50000000000000, 0.785398163400000 );
#146 = SURFACE_STYLE_USAGE( .BOTH., #258 );
#147 = FACE_OUTER_BOUND( '', #259, .T. );
#148 = FACE_BOUND( '', #260, .T. );
#149 = CONICAL_SURFACE( '', #261, 1.62100000000000, 1.02974425870000 );
#150 = SURFACE_STYLE_USAGE( .BOTH., #262 );
#151 = FACE_OUTER_BOUND( '', #263, .T. );
#152 = PLANE( '', #264 );
#153 = SURFACE_STYLE_USAGE( .BOTH., #265 );
#154 = FACE_OUTER_BOUND( '', #266, .T. );
#155 = FACE_OUTER_BOUND( '', #267, .T. );
#156 = CYLINDRICAL_SURFACE( '', #268, 1.62100000000000 );
#157 = SURFACE_STYLE_USAGE( .BOTH., #269 );
#158 = FACE_BOUND( '', #270, .T. );
#159 = FACE_OUTER_BOUND( '', #271, .T. );
#160 = PLANE( '', #272 );
#161 = SURFACE_STYLE_USAGE( .BOTH., #273 );
#162 = FACE_OUTER_BOUND( '', #274, .T. );
#163 = CONICAL_SURFACE( '', #275, 4.50000000000000, 0.785398163400000 );
#164 = SURFACE_STYLE_USAGE( .BOTH., #276 );
#165 = FACE_BOUND( '', #277, .T. );
#166 = FACE_OUTER_BOUND( '', #278, .T. );
#167 = CONICAL_SURFACE( '', #279, 1.92100000000000, 0.785398163400000 );
#168 = SURFACE_STYLE_USAGE( .BOTH., #280 );
#169 = FACE_OUTER_BOUND( '', #281, .T. );
#170 = FACE_OUTER_BOUND( '', #282, .T. );
#171 = TOROIDAL_SURFACE( '', #283, 1.85000000000000, 0.400000000000000 );
#172 = SURFACE_STYLE_USAGE( .BOTH., #284 );
#173 = FACE_OUTER_BOUND( '', #285, .T. );
#174 = CONICAL_SURFACE( '', #286, 3.50000000000000, 0.785398163400000 );
#175 = SURFACE_STYLE_USAGE( .BOTH., #287 );
#176 = FACE_OUTER_BOUND( '', #288, .T. );
#177 = CONICAL_SURFACE( '', #289, 4.50000000000000, 0.785398163400000 );
#178 = SURFACE_STYLE_USAGE( .BOTH., #290 );
#179 = FACE_BOUND( '', #291, .T. );
#180 = FACE_OUTER_BOUND( '', #292, .T. );
#181 = CONICAL_SURFACE( '', #293, 2.00000000000000, 0.523598775600000 );
#182 = SURFACE_STYLE_USAGE( .BOTH., #294 );
#183 = FACE_OUTER_BOUND( '', #295, .T. );
#184 = PLANE( '', #296 );
#185 = SURFACE_STYLE_USAGE( .BOTH., #297 );
#186 = FACE_OUTER_BOUND( '', #298, .T. );
#187 = CONICAL_SURFACE( '', #299, 3.50000000000000, 0.785398163400000 );
#188 = SURFACE_STYLE_USAGE( .BOTH., #300 );
#189 = FACE_OUTER_BOUND( '', #301, .T. );
#190 = CONICAL_SURFACE( '', #302, 3.50000000000000, 0.785398163400000 );
#191 = SURFACE_STYLE_USAGE( .BOTH., #303 );
#192 = FACE_OUTER_BOUND( '', #304, .T. );
#193 = CONICAL_SURFACE( '', #305, 4.50000000000000, 0.785398163400000 );
#194 = SURFACE_STYLE_USAGE( .BOTH., #306 );
#195 = FACE_OUTER_BOUND( '', #307, .T. );
#196 = PLANE( '', #308 );
#197 = SURFACE_STYLE_USAGE( .BOTH., #309 );
#198 = FACE_BOUND( '', #310, .T. );
#199 = FACE_OUTER_BOUND( '', #311, .T. );
#200 = CONICAL_SURFACE( '', #312, 2.00000000000000, 0.785398163400000 );
#201 = SURFACE_STYLE_USAGE( .BOTH., #313 );
#202 = FACE_OUTER_BOUND( '', #314, .T. );
#203 = FACE_OUTER_BOUND( '', #315, .T. );
#204 = CYLINDRICAL_SURFACE( '', #316, 1.62100000000000 );
#205 = SURFACE_STYLE_USAGE( .BOTH., #317 );
#206 = FACE_BOUND( '', #318, .T. );
#207 = FACE_OUTER_BOUND( '', #319, .T. );
#208 = PLANE( '', #320 );
#209 = SURFACE_STYLE_USAGE( .BOTH., #321 );
#210 = FACE_OUTER_BOUND( '', #322, .T. );
#211 = FACE_OUTER_BOUND( '', #323, .T. );
#212 = TOROIDAL_SURFACE( '', #324, 1.85000000000000, 0.400000000000000 );
#213 = SURFACE_STYLE_USAGE( .BOTH., #325 );
#214 = FACE_OUTER_BOUND( '', #326, .T. );
#215 = CONICAL_SURFACE( '', #327, 4.50000000000000, 0.785398163400000 );
#216 = SURFACE_STYLE_USAGE( .BOTH., #328 );
#217 = FACE_OUTER_BOUND( '', #329, .T. );
#218 = CONICAL_SURFACE( '', #330, 4.50000000000000, 0.785398163400000 );
#219 = SURFACE_STYLE_USAGE( .BOTH., #331 );
#220 = FACE_OUTER_BOUND( '', #332, .T. );
#221 = PLANE( '', #333 );
#222 = SURFACE_STYLE_USAGE( .BOTH., #334 );
#223 = FACE_OUTER_BOUND( '', #335, .T. );
#224 = PLANE( '', #336 );
#225 = SURFACE_STYLE_USAGE( .BOTH., #337 );
#226 = FACE_OUTER_BOUND( '', #338, .T. );
#227 = PLANE( '', #339 );
#228 = SURFACE_STYLE_USAGE( .BOTH., #340 );
#229 = FACE_OUTER_BOUND( '', #341, .T. );
#230 = CONICAL_SURFACE( '', #342, 3.50000000000000, 0.785398163400000 );
#231 = SURFACE_STYLE_USAGE( .BOTH., #343 );
#232 = FACE_OUTER_BOUND( '', #344, .T. );
#233 = CONICAL_SURFACE( '', #345, 3.50000000000000, 0.785398163400000 );
#234 = SURFACE_STYLE_USAGE( .BOTH., #346 );
#235 = FACE_OUTER_BOUND( '', #347, .T. );
#236 = FACE_OUTER_BOUND( '', #348, .T. );
#237 = CYLINDRICAL_SURFACE( '', #349, 2.00000000000000 );
#238 = PRODUCT_CONTEXT( '', #41, 'mechanical' );
#239 = PRODUCT_DEFINITION_FORMATION_WITH_SPECIFIED_SOURCE( ' ', 'NONE', #116, .NOT_KNOWN. );
#240 = CLOSED_SHELL( '', ( #63, #73, #95, #97, #67, #69, #113, #55, #65, #91, #105, #107, #99, #75, #93, #59, #81, #115, #83, #77, #87, #85, #111, #89, #109, #57, #101, #79, #71, #103, #61 ) );
#241 = CARTESIAN_POINT( '', ( 0.000000000000000, 0.000000000000000, 0.000000000000000 ) );
#242 = DIRECTION( '', ( 0.000000000000000, 0.000000000000000, 1.00000000000000 ) );
#243 = DIRECTION( '', ( 1.00000000000000, 0.000000000000000, 0.000000000000000 ) );
#244 =  ( LENGTH_UNIT(  )NAMED_UNIT( #125 )SI_UNIT( .MILLI., .METRE. ) );
#245 = SURFACE_SIDE_STYLE( '', ( #351 ) );
#246 = EDGE_LOOP( '', ( #352, #353, #354, #355, #356, #357 ) );
#247 = AXIS2_PLACEMENT_3D( '', #358, #359, #360 );
#248 = SURFACE_SIDE_STYLE( '', ( #361 ) );
#249 = EDGE_LOOP( '', ( #362, #363, #364 ) );
#250 = AXIS2_PLACEMENT_3D( '', #365, #366, #367 );
#251 = SURFACE_SIDE_STYLE( '', ( #368 ) );
#252 = EDGE_LOOP( '', ( #369 ) );
#253 = EDGE_LOOP( '', ( #370 ) );
#254 = AXIS2_PLACEMENT_3D( '', #371, #372, #373 );
#255 = SURFACE_SIDE_STYLE( '', ( #374 ) );
#256 = EDGE_LOOP( '', ( #375, #376, #377 ) );
#257 = AXIS2_PLACEMENT_3D( '', #378, #379, #380 );
#258 = SURFACE_SIDE_STYLE( '', ( #381 ) );
#259 = EDGE_LOOP( '', ( #382 ) );
#260 = VERTEX_LOOP( '', #383 );
#261 = AXIS2_PLACEMENT_3D( '', #384, #385, #386 );
#262 = SURFACE_SIDE_STYLE( '', ( #387 ) );
#263 = EDGE_LOOP( '', ( #388, #389, #390, #391, #392, #393 ) );
#264 = AXIS2_PLACEMENT_3D( '', #394, #395, #396 );
#265 = SURFACE_SIDE_STYLE( '', ( #397 ) );
#266 = EDGE_LOOP( '', ( #398 ) );
#267 = EDGE_LOOP( '', ( #399 ) );
#268 = AXIS2_PLACEMENT_3D( '', #400, #401, #402 );
#269 = SURFACE_SIDE_STYLE( '', ( #403 ) );
#270 = EDGE_LOOP( '', ( #404 ) );
#271 = EDGE_LOOP( '', ( #405, #406, #407, #408, #409, #410 ) );
#272 = AXIS2_PLACEMENT_3D( '', #411, #412, #413 );
#273 = SURFACE_SIDE_STYLE( '', ( #414 ) );
#274 = EDGE_LOOP( '', ( #415, #416, #417 ) );
#275 = AXIS2_PLACEMENT_3D( '', #418, #419, #420 );
#276 = SURFACE_SIDE_STYLE( '', ( #421 ) );
#277 = EDGE_LOOP( '', ( #422 ) );
#278 = EDGE_LOOP( '', ( #423 ) );
#279 = AXIS2_PLACEMENT_3D( '', #424, #425, #426 );
#280 = SURFACE_SIDE_STYLE( '', ( #427 ) );
#281 = EDGE_LOOP( '', ( #428 ) );
#282 = EDGE_LOOP( '', ( #429 ) );
#283 = AXIS2_PLACEMENT_3D( '', #430, #431, #432 );
#284 = SURFACE_SIDE_STYLE( '', ( #433 ) );
#285 = EDGE_LOOP( '', ( #434, #435, #436 ) );
#286 = AXIS2_PLACEMENT_3D( '', #437, #438, #439 );
#287 = SURFACE_SIDE_STYLE( '', ( #440 ) );
#288 = EDGE_LOOP( '', ( #441, #442, #443 ) );
#289 = AXIS2_PLACEMENT_3D( '', #444, #445, #446 );
#290 = SURFACE_SIDE_STYLE( '', ( #447 ) );
#291 = EDGE_LOOP( '', ( #448 ) );
#292 = EDGE_LOOP( '', ( #449 ) );
#293 = AXIS2_PLACEMENT_3D( '', #450, #451, #452 );
#294 = SURFACE_SIDE_STYLE( '', ( #453 ) );
#295 = EDGE_LOOP( '', ( #454 ) );
#296 = AXIS2_PLACEMENT_3D( '', #455, #456, #457 );
#297 = SURFACE_SIDE_STYLE( '', ( #458 ) );
#298 = EDGE_LOOP( '', ( #459, #460, #461 ) );
#299 = AXIS2_PLACEMENT_3D( '', #462, #463, #464 );
#300 = SURFACE_SIDE_STYLE( '', ( #465 ) );
#301 = EDGE_LOOP( '', ( #466, #467, #468 ) );
#302 = AXIS2_PLACEMENT_3D( '', #469, #470, #471 );
#303 = SURFACE_SIDE_STYLE( '', ( #472 ) );
#304 = EDGE_LOOP( '', ( #473, #474, #475 ) );
#305 = AXIS2_PLACEMENT_3D( '', #476, #477, #478 );
#306 = SURFACE_SIDE_STYLE( '', ( #479 ) );
#307 = EDGE_LOOP( '', ( #480, #481, #482, #483, #484, #485 ) );
#308 = AXIS2_PLACEMENT_3D( '', #486, #487, #488 );
#309 = SURFACE_SIDE_STYLE( '', ( #489 ) );
#310 = EDGE_LOOP( '', ( #490 ) );
#311 = EDGE_LOOP( '', ( #491 ) );
#312 = AXIS2_PLACEMENT_3D( '', #492, #493, #494 );
#313 = SURFACE_SIDE_STYLE( '', ( #495 ) );
#314 = EDGE_LOOP( '', ( #496 ) );
#315 = EDGE_LOOP( '', ( #497 ) );
#316 = AXIS2_PLACEMENT_3D( '', #498, #499, #500 );
#317 = SURFACE_SIDE_STYLE( '', ( #501 ) );
#318 = EDGE_LOOP( '', ( #502 ) );
#319 = EDGE_LOOP( '', ( #503, #504, #505, #506, #507, #508 ) );
#320 = AXIS2_PLACEMENT_3D( '', #509, #510, #511 );
#321 = SURFACE_SIDE_STYLE( '', ( #512 ) );
#322 = EDGE_LOOP( '', ( #513 ) );
#323 = EDGE_LOOP( '', ( #514 ) );
#324 = AXIS2_PLACEMENT_3D( '', #515, #516, #517 );
#325 = SURFACE_SIDE_STYLE( '', ( #518 ) );
#326 = EDGE_LOOP( '', ( #519, #520, #521 ) );
#327 = AXIS2_PLACEMENT_3D( '', #522, #523, #524 );
#328 = SURFACE_SIDE_STYLE( '', ( #525 ) );
#329 = EDGE_LOOP( '', ( #526, #527, #528 ) );
#330 = AXIS2_PLACEMENT_3D( '', #529, #530, #531 );
#331 = SURFACE_SIDE_STYLE( '', ( #532 ) );
#332 = EDGE_LOOP( '', ( #533, #534, #535, #536, #537, #538 ) );
#333 = AXIS2_PLACEMENT_3D( '', #539, #540, #541 );
#334 = SURFACE_SIDE_STYLE( '', ( #542 ) );
#335 = EDGE_LOOP( '', ( #543, #544, #545, #546, #547, #548 ) );
#336 = AXIS2_PLACEMENT_3D( '', #549, #550, #551 );
#337 = SURFACE_SIDE_STYLE( '', ( #552 ) );
#338 = EDGE_LOOP( '', ( #553, #554, #555, #556, #557, #558 ) );
#339 = AXIS2_PLACEMENT_3D( '', #559, #560, #561 );
#340 = SURFACE_SIDE_STYLE( '', ( #562 ) );
#341 = EDGE_LOOP( '', ( #563, #564, #565 ) );
#342 = AXIS2_PLACEMENT_3D( '', #566, #567, #568 );
#343 = SURFACE_SIDE_STYLE( '', ( #569 ) );
#344 = EDGE_LOOP( '', ( #570, #571, #572 ) );
#345 = AXIS2_PLACEMENT_3D( '', #573, #574, #575 );
#346 = SURFACE_SIDE_STYLE( '', ( #576 ) );
#347 = EDGE_LOOP( '', ( #577 ) );
#348 = EDGE_LOOP( '', ( #578 ) );
#349 = AXIS2_PLACEMENT_3D( '', #579, #580, #581 );
#351 = SURFACE_STYLE_FILL_AREA( #582 );
#352 = ORIENTED_EDGE( '', *, *, #583, .F. );
#353 = ORIENTED_EDGE( '', *, *, #584, .T. );
#354 = ORIENTED_EDGE( '', *, *, #585, .F. );
#355 = ORIENTED_EDGE( '', *, *, #586, .F. );
#356 = ORIENTED_EDGE( '', *, *, #587, .F. );
#357 = ORIENTED_EDGE( '', *, *, #588, .F. );
#358 = CARTESIAN_POINT( '', ( 2.02072594216369, -3.50000000000000, -25.0000000000000 ) );
#359 = DIRECTION( '', ( 0.866025403784439, -0.500000000000000, 0.000000000000000 ) );
#360 = DIRECTION( '', ( 0.500000000000000, 0.866025403784439, 0.000000000000000 ) );
#361 = SURFACE_STYLE_FILL_AREA( #589 );
#362 = ORIENTED_EDGE( '', *, *, #590, .T. );
#363 = ORIENTED_EDGE( '', *, *, #591, .T. );
#364 = ORIENTED_EDGE( '', *, *, #592, .T. );
#365 = CARTESIAN_POINT( '', ( 0.000000000000000, 0.000000000000000, -1.00000000000000 ) );
#366 = DIRECTION( '', ( -0.000000000000000, 0.000000000000000, -1.00000000000000 ) );
#367 = DIRECTION( '', ( -1.00000000000000, 0.000000000000000, 0.000000000000000 ) );
#368 = SURFACE_STYLE_FILL_AREA( #593 );
#369 = ORIENTED_EDGE( '', *, *, #594, .T. );
#370 = ORIENTED_EDGE( '', *, *, #595, .T. );
#371 = CARTESIAN_POINT( '', ( -4.33680868994202E-015, 0.000000000000000, 0.000000000000000 ) );
#372 = DIRECTION( '', ( 5.38712954453735E-016, -0.000000000000000, 1.00000000000000 ) );
#373 = DIRECTION( '', ( -1.00000000000000, 0.000000000000000, 5.38712954453735E-016 ) );
#374 = SURFACE_STYLE_FILL_AREA( #596 );
#375 = ORIENTED_EDGE( '', *, *, #597, .T. );
#376 = ORIENTED_EDGE( '', *, *, #598, .T. );
#377 = ORIENTED_EDGE( '', *, *, #599, .T. );
#378 = CARTESIAN_POINT( '', ( 0.000000000000000, 0.000000000000000, -25.0000000000000 ) );
#379 = DIRECTION( '', ( -0.000000000000000, -0.000000000000000, 1.00000000000000 ) );
#380 = DIRECTION( '', ( 1.00000000000000, 0.000000000000000, 0.000000000000000 ) );
#381 = SURFACE_STYLE_FILL_AREA( #600 );
#382 = ORIENTED_EDGE( '', *, *, #601, .F. );
#383 = VERTEX_POINT( '', #602 );
#384 = CARTESIAN_POINT( '', ( 0.000000000000000, 0.000000000000000, -13.0000000000000 ) );
#385 = DIRECTION( '', ( 0.000000000000000, -0.000000000000000, -1.00000000000000 ) );
#386 = DIRECTION( '', ( 0.000000000000000, -1.00000000000000, 0.000000000000000 ) );
#387 = SURFACE_STYLE_FILL_AREA( #603 );
#388 = ORIENTED_EDGE( '', *, *, #604, .F. );
#389 = ORIENTED_EDGE( '', *, *, #605, .T. );
#390 = ORIENTED_EDGE( '', *, *, #590, .F. );
#391 = ORIENTED_EDGE( '', *, *, #606, .F. );
#392 = ORIENTED_EDGE( '', *, *, #607, .F. );
#393 = ORIENTED_EDGE( '', *, *, #597, .F. );
#394 = CARTESIAN_POINT( '', ( -4.04145188432738, 1.38879313579902E-014, -25.0000000000000 ) );
#395 = DIRECTION( '', ( -0.866025403784439, -0.500000000000000, 0.000000000000000 ) );
#396 = DIRECTION( '', ( 0.499999999999999, -0.866025403784439, 0.000000000000000 ) );
#397 = SURFACE_STYLE_FILL_AREA( #608 );
#398 = ORIENTED_EDGE( '', *, *, #609, .F. );
#399 = ORIENTED_EDGE( '', *, *, #610, .T. );
#400 = CARTESIAN_POINT( '', ( 0.000000000000000, 0.000000000000000, -25.0000000000000 ) );
#401 = DIRECTION( '', ( -0.000000000000000, 0.000000000000000, -1.00000000000000 ) );
#402 = DIRECTION( '', ( 0.000000000000000, 1.00000000000000, 0.000000000000000 ) );
#403 = SURFACE_STYLE_FILL_AREA( #611 );
#404 = ORIENTED_EDGE( '', *, *, #612, .T. );
#405 = ORIENTED_EDGE( '', *, *, #613, .F. );
#406 = ORIENTED_EDGE( '', *, *, #614, .F. );
#407 = ORIENTED_EDGE( '', *, *, #615, .F. );
#408 = ORIENTED_EDGE( '', *, *, #599, .F. );
#409 = ORIENTED_EDGE( '', *, *, #616, .F. );
#410 = ORIENTED_EDGE( '', *, *, #617, .F. );
#411 = CARTESIAN_POINT( '', ( 0.000000000000000, 0.000000000000000, -25.0000000000000 ) );
#412 = DIRECTION( '', ( 0.000000000000000, 0.000000000000000, 1.00000000000000 ) );
#413 = DIRECTION( '', ( 1.00000000000000, 0.000000000000000, 0.000000000000000 ) );
#414 = SURFACE_STYLE_FILL_AREA( #618 );
#415 = ORIENTED_EDGE( '', *, *, #619, .T. );
#416 = ORIENTED_EDGE( '', *, *, #620, .T. );
#417 = ORIENTED_EDGE( '', *, *, #621, .F. );
#418 = CARTESIAN_POINT( '', ( 0.000000000000000, 0.000000000000000, -1.00000000000000 ) );
#419 = DIRECTION( '', ( -0.000000000000000, 0.000000000000000, -1.00000000000000 ) );
#420 = DIRECTION( '', ( -1.00000000000000, 0.000000000000000, 0.000000000000000 ) );
#421 = SURFACE_STYLE_FILL_AREA( #622 );
#422 = ORIENTED_EDGE( '', *, *, #610, .F. );
#423 = ORIENTED_EDGE( '', *, *, #612, .F. );
#424 = CARTESIAN_POINT( '', ( 0.000000000000000, 0.000000000000000, -25.0000000000000 ) );
#425 = DIRECTION( '', ( 0.000000000000000, -0.000000000000000, -1.00000000000000 ) );
#426 = DIRECTION( '', ( 0.000000000000000, 1.00000000000000, 0.000000000000000 ) );
#427 = SURFACE_STYLE_FILL_AREA( #623 );
#428 = ORIENTED_EDGE( '', *, *, #624, .F. );
#429 = ORIENTED_EDGE( '', *, *, #594, .F. );
#430 = CARTESIAN_POINT( '', ( -3.96357740681826E-015, 0.000000000000000, 0.692820323027550 ) );
#431 = DIRECTION( '', ( -5.38712954453735E-016, 0.000000000000000, -1.00000000000000 ) );
#432 = DIRECTION( '', ( -1.00000000000000, 0.000000000000000, 5.38712954453735E-016 ) );
#433 = SURFACE_STYLE_FILL_AREA( #625 );
#434 = ORIENTED_EDGE( '', *, *, #626, .T. );
#435 = ORIENTED_EDGE( '', *, *, #617, .T. );
#436 = ORIENTED_EDGE( '', *, *, #627, .T. );
#437 = CARTESIAN_POINT( '', ( 0.000000000000000, 0.000000000000000, -25.0000000000000 ) );
#438 = DIRECTION( '', ( -0.000000000000000, -0.000000000000000, 1.00000000000000 ) );
#439 = DIRECTION( '', ( 1.00000000000000, 0.000000000000000, 0.000000000000000 ) );
#440 = SURFACE_STYLE_FILL_AREA( #628 );
#441 = ORIENTED_EDGE( '', *, *, #629, .T. );
#442 = ORIENTED_EDGE( '', *, *, #630, .T. );
#443 = ORIENTED_EDGE( '', *, *, #631, .T. );
#444 = CARTESIAN_POINT( '', ( 0.000000000000000, 0.000000000000000, -1.00000000000000 ) );
#445 = DIRECTION( '', ( -0.000000000000000, 0.000000000000000, -1.00000000000000 ) );
#446 = DIRECTION( '', ( -1.00000000000000, 0.000000000000000, 0.000000000000000 ) );
#447 = SURFACE_STYLE_FILL_AREA( #632 );
#448 = ORIENTED_EDGE( '', *, *, #624, .T. );
#449 = ORIENTED_EDGE( '', *, *, #633, .T. );
#450 = CARTESIAN_POINT( '', ( -3.39264531208386E-015, 0.000000000000000, 1.75262794416288 ) );
#451 = DIRECTION( '', ( 5.38712954453735E-016, -0.000000000000000, 1.00000000000000 ) );
#452 = DIRECTION( '', ( 1.00000000000000, 0.000000000000000, -5.38712954453735E-016 ) );
#453 = SURFACE_STYLE_FILL_AREA( #634 );
#454 = ORIENTED_EDGE( '', *, *, #635, .T. );
#455 = CARTESIAN_POINT( '', ( -2.90211647296272E-031, 0.000000000000000, 10.0000000000000 ) );
#456 = DIRECTION( '', ( -5.38712954453735E-016, 0.000000000000000, -1.00000000000000 ) );
#457 = DIRECTION( '', ( -1.00000000000000, 0.000000000000000, 5.38712954453735E-016 ) );
#458 = SURFACE_STYLE_FILL_AREA( #636 );
#459 = ORIENTED_EDGE( '', *, *, #588, .T. );
#460 = ORIENTED_EDGE( '', *, *, #637, .T. );
#461 = ORIENTED_EDGE( '', *, *, #614, .T. );
#462 = CARTESIAN_POINT( '', ( 0.000000000000000, 0.000000000000000, -25.0000000000000 ) );
#463 = DIRECTION( '', ( -0.000000000000000, -0.000000000000000, 1.00000000000000 ) );
#464 = DIRECTION( '', ( 1.00000000000000, 0.000000000000000, 0.000000000000000 ) );
#465 = SURFACE_STYLE_FILL_AREA( #638 );
#466 = ORIENTED_EDGE( '', *, *, #639, .T. );
#467 = ORIENTED_EDGE( '', *, *, #583, .T. );
#468 = ORIENTED_EDGE( '', *, *, #613, .T. );
#469 = CARTESIAN_POINT( '', ( 0.000000000000000, 0.000000000000000, -25.0000000000000 ) );
#470 = DIRECTION( '', ( -0.000000000000000, -0.000000000000000, 1.00000000000000 ) );
#471 = DIRECTION( '', ( 1.00000000000000, 0.000000000000000, 0.000000000000000 ) );
#472 = SURFACE_STYLE_FILL_AREA( #640 );
#473 = ORIENTED_EDGE( '', *, *, #641, .T. );
#474 = ORIENTED_EDGE( '', *, *, #586, .T. );
#475 = ORIENTED_EDGE( '', *, *, #642, .T. );
#476 = CARTESIAN_POINT( '', ( 0.000000000000000, 0.000000000000000, -1.00000000000000 ) );
#477 = DIRECTION( '', ( -0.000000000000000, 0.000000000000000, -1.00000000000000 ) );
#478 = DIRECTION( '', ( -1.00000000000000, 0.000000000000000, 0.000000000000000 ) );
#479 = SURFACE_STYLE_FILL_AREA( #643 );
#480 = ORIENTED_EDGE( '', *, *, #598, .F. );
#481 = ORIENTED_EDGE( '', *, *, #607, .T. );
#482 = ORIENTED_EDGE( '', *, *, #644, .F. );
#483 = ORIENTED_EDGE( '', *, *, #620, .F. );
#484 = ORIENTED_EDGE( '', *, *, #645, .F. );
#485 = ORIENTED_EDGE( '', *, *, #646, .F. );
#486 = CARTESIAN_POINT( '', ( -2.02072594216368, 3.50000000000000, -25.0000000000000 ) );
#487 = DIRECTION( '', ( -0.866025403784438, 0.500000000000000, 0.000000000000000 ) );
#488 = DIRECTION( '', ( -0.500000000000000, -0.866025403784438, 0.000000000000000 ) );
#489 = SURFACE_STYLE_FILL_AREA( #647 );
#490 = ORIENTED_EDGE( '', *, *, #635, .F. );
#491 = ORIENTED_EDGE( '', *, *, #648, .F. );
#492 = CARTESIAN_POINT( '', ( 8.88706968259212E-016, 0.000000000000000, 9.70000000000000 ) );
#493 = DIRECTION( '', ( -5.38712954453736E-016, 0.000000000000000, -1.00000000000000 ) );
#494 = DIRECTION( '', ( -1.00000000000000, 0.000000000000000, 5.38712954453736E-016 ) );
#495 = SURFACE_STYLE_FILL_AREA( #649 );
#496 = ORIENTED_EDGE( '', *, *, #601, .T. );
#497 = ORIENTED_EDGE( '', *, *, #609, .T. );
#498 = CARTESIAN_POINT( '', ( 0.000000000000000, 0.000000000000000, -25.0000000000000 ) );
#499 = DIRECTION( '', ( -0.000000000000000, 0.000000000000000, -1.00000000000000 ) );
#500 = DIRECTION( '', ( 0.000000000000000, 1.00000000000000, 0.000000000000000 ) );
#501 = SURFACE_STYLE_FILL_AREA( #650 );
#502 = ORIENTED_EDGE( '', *, *, #651, .T. );
#503 = ORIENTED_EDGE( '', *, *, #642, .F. );
#504 = ORIENTED_EDGE( '', *, *, #652, .F. );
#505 = ORIENTED_EDGE( '', *, *, #630, .F. );
#506 = ORIENTED_EDGE( '', *, *, #621, .T. );
#507 = ORIENTED_EDGE( '', *, *, #653, .F. );
#508 = ORIENTED_EDGE( '', *, *, #592, .F. );
#509 = CARTESIAN_POINT( '', ( 0.000000000000000, 0.000000000000000, 0.000000000000000 ) );
#510 = DIRECTION( '', ( 0.000000000000000, 0.000000000000000, 1.00000000000000 ) );
#511 = DIRECTION( '', ( 1.00000000000000, 0.000000000000000, 0.000000000000000 ) );
#512 = SURFACE_STYLE_FILL_AREA( #654 );
#513 = ORIENTED_EDGE( '', *, *, #595, .F. );
#514 = ORIENTED_EDGE( '', *, *, #651, .F. );
#515 = CARTESIAN_POINT( '', ( -4.12132350816052E-015, 0.000000000000000, 0.400000000000000 ) );
#516 = DIRECTION( '', ( 0.000000000000000, 0.000000000000000, 1.00000000000000 ) );
#517 = DIRECTION( '', ( 1.00000000000000, 0.000000000000000, 0.000000000000000 ) );
#518 = SURFACE_STYLE_FILL_AREA( #655 );
#519 = ORIENTED_EDGE( '', *, *, #585, .T. );
#520 = ORIENTED_EDGE( '', *, *, #656, .T. );
#521 = ORIENTED_EDGE( '', *, *, #652, .T. );
#522 = CARTESIAN_POINT( '', ( 0.000000000000000, 0.000000000000000, -1.00000000000000 ) );
#523 = DIRECTION( '', ( -0.000000000000000, 0.000000000000000, -1.00000000000000 ) );
#524 = DIRECTION( '', ( -1.00000000000000, 0.000000000000000, 0.000000000000000 ) );
#525 = SURFACE_STYLE_FILL_AREA( #657 );
#526 = ORIENTED_EDGE( '', *, *, #644, .T. );
#527 = ORIENTED_EDGE( '', *, *, #606, .T. );
#528 = ORIENTED_EDGE( '', *, *, #653, .T. );
#529 = CARTESIAN_POINT( '', ( 0.000000000000000, 0.000000000000000, -1.00000000000000 ) );
#530 = DIRECTION( '', ( -0.000000000000000, 0.000000000000000, -1.00000000000000 ) );
#531 = DIRECTION( '', ( -1.00000000000000, 0.000000000000000, 0.000000000000000 ) );
#532 = SURFACE_STYLE_FILL_AREA( #658 );
#533 = ORIENTED_EDGE( '', *, *, #637, .F. );
#534 = ORIENTED_EDGE( '', *, *, #587, .T. );
#535 = ORIENTED_EDGE( '', *, *, #641, .F. );
#536 = ORIENTED_EDGE( '', *, *, #591, .F. );
#537 = ORIENTED_EDGE( '', *, *, #605, .F. );
#538 = ORIENTED_EDGE( '', *, *, #659, .F. );
#539 = CARTESIAN_POINT( '', ( -2.02072594216369, -3.50000000000000, -25.0000000000000 ) );
#540 = DIRECTION( '', ( -9.65773670616745E-016, -1.00000000000000, 0.000000000000000 ) );
#541 = DIRECTION( '', ( 1.00000000000000, -9.65773670616745E-016, 0.000000000000000 ) );
#542 = SURFACE_STYLE_FILL_AREA( #660 );
#543 = ORIENTED_EDGE( '', *, *, #661, .F. );
#544 = ORIENTED_EDGE( '', *, *, #645, .T. );
#545 = ORIENTED_EDGE( '', *, *, #619, .F. );
#546 = ORIENTED_EDGE( '', *, *, #629, .F. );
#547 = ORIENTED_EDGE( '', *, *, #662, .F. );
#548 = ORIENTED_EDGE( '', *, *, #627, .F. );
#549 = CARTESIAN_POINT( '', ( 2.02072594216368, 3.50000000000000, -25.0000000000000 ) );
#550 = DIRECTION( '', ( 8.58465484992666E-016, 1.00000000000000, 0.000000000000000 ) );
#551 = DIRECTION( '', ( -1.00000000000000, 8.58465484992666E-016, 0.000000000000000 ) );
#552 = SURFACE_STYLE_FILL_AREA( #663 );
#553 = ORIENTED_EDGE( '', *, *, #626, .F. );
#554 = ORIENTED_EDGE( '', *, *, #662, .T. );
#555 = ORIENTED_EDGE( '', *, *, #631, .F. );
#556 = ORIENTED_EDGE( '', *, *, #656, .F. );
#557 = ORIENTED_EDGE( '', *, *, #584, .F. );
#558 = ORIENTED_EDGE( '', *, *, #639, .F. );
#559 = CARTESIAN_POINT( '', ( 4.04145188432738, 6.52569660594270E-015, -25.0000000000000 ) );
#560 = DIRECTION( '', ( 0.866025403784438, 0.500000000000000, 0.000000000000000 ) );
#561 = DIRECTION( '', ( -0.500000000000000, 0.866025403784438, 0.000000000000000 ) );
#562 = SURFACE_STYLE_FILL_AREA( #664 );
#563 = ORIENTED_EDGE( '', *, *, #659, .T. );
#564 = ORIENTED_EDGE( '', *, *, #604, .T. );
#565 = ORIENTED_EDGE( '', *, *, #615, .T. );
#566 = CARTESIAN_POINT( '', ( 0.000000000000000, 0.000000000000000, -25.0000000000000 ) );
#567 = DIRECTION( '', ( -0.000000000000000, -0.000000000000000, 1.00000000000000 ) );
#568 = DIRECTION( '', ( 1.00000000000000, 0.000000000000000, 0.000000000000000 ) );
#569 = SURFACE_STYLE_FILL_AREA( #665 );
#570 = ORIENTED_EDGE( '', *, *, #646, .T. );
#571 = ORIENTED_EDGE( '', *, *, #661, .T. );
#572 = ORIENTED_EDGE( '', *, *, #616, .T. );
#573 = CARTESIAN_POINT( '', ( 0.000000000000000, 0.000000000000000, -25.0000000000000 ) );
#574 = DIRECTION( '', ( -0.000000000000000, -0.000000000000000, 1.00000000000000 ) );
#575 = DIRECTION( '', ( 1.00000000000000, 0.000000000000000, 0.000000000000000 ) );
#576 = SURFACE_STYLE_FILL_AREA( #666 );
#577 = ORIENTED_EDGE( '', *, *, #648, .T. );
#578 = ORIENTED_EDGE( '', *, *, #633, .F. );
#579 = CARTESIAN_POINT( '', ( -4.33680868994202E-015, 0.000000000000000, 0.000000000000000 ) );
#580 = DIRECTION( '', ( 5.38712954453735E-016, -0.000000000000000, 1.00000000000000 ) );
#581 = DIRECTION( '', ( -1.00000000000000, 0.000000000000000, 5.38712954453735E-016 ) );
#582 = FILL_AREA_STYLE( '', ( #667 ) );
#583 = EDGE_CURVE( '', #668, #669, #670, .T. );
#584 = EDGE_CURVE( '', #668, #671, #672, .T. );
#585 = EDGE_CURVE( '', #673, #671, #674, .T. );
#586 = EDGE_CURVE( '', #675, #673, #676, .T. );
#587 = EDGE_CURVE( '', #677, #675, #678, .T. );
#588 = EDGE_CURVE( '', #669, #677, #679, .T. );
#589 = FILL_AREA_STYLE( '', ( #680 ) );
#590 = EDGE_CURVE( '', #681, #682, #683, .T. );
#591 = EDGE_CURVE( '', #682, #684, #685, .T. );
#592 = EDGE_CURVE( '', #684, #681, #686, .F. );
#593 = FILL_AREA_STYLE( '', ( #687 ) );
#594 = EDGE_CURVE( '', #688, #688, #689, .T. );
#595 = EDGE_CURVE( '', #690, #690, #691, .T. );
#596 = FILL_AREA_STYLE( '', ( #692 ) );
#597 = EDGE_CURVE( '', #693, #694, #695, .T. );
#598 = EDGE_CURVE( '', #694, #696, #697, .T. );
#599 = EDGE_CURVE( '', #696, #693, #698, .T. );
#600 = FILL_AREA_STYLE( '', ( #699 ) );
#601 = EDGE_CURVE( '', #700, #700, #701, .T. );
#602 = CARTESIAN_POINT( '', ( 0.000000000000000, 0.000000000000000, -12.0260049365563 ) );
#603 = FILL_AREA_STYLE( '', ( #702 ) );
#604 = EDGE_CURVE( '', #703, #693, #704, .T. );
#605 = EDGE_CURVE( '', #703, #682, #705, .T. );
#606 = EDGE_CURVE( '', #706, #681, #707, .T. );
#607 = EDGE_CURVE( '', #694, #706, #708, .T. );
#608 = FILL_AREA_STYLE( '', ( #709 ) );
#609 = EDGE_CURVE( '', #710, #710, #711, .T. );
#610 = EDGE_CURVE( '', #712, #712, #713, .T. );
#611 = FILL_AREA_STYLE( '', ( #714 ) );
#612 = EDGE_CURVE( '', #715, #715, #716, .T. );
#613 = EDGE_CURVE( '', #669, #717, #718, .T. );
#614 = EDGE_CURVE( '', #719, #669, #720, .T. );
#615 = EDGE_CURVE( '', #693, #719, #721, .T. );
#616 = EDGE_CURVE( '', #722, #696, #723, .T. );
#617 = EDGE_CURVE( '', #717, #722, #724, .T. );
#618 = FILL_AREA_STYLE( '', ( #725 ) );
#619 = EDGE_CURVE( '', #726, #727, #728, .F. );
#620 = EDGE_CURVE( '', #727, #729, #730, .T. );
#621 = EDGE_CURVE( '', #726, #729, #731, .T. );
#622 = FILL_AREA_STYLE( '', ( #732 ) );
#623 = FILL_AREA_STYLE( '', ( #733 ) );
#624 = EDGE_CURVE( '', #734, #734, #735, .T. );
#625 = FILL_AREA_STYLE( '', ( #736 ) );
#626 = EDGE_CURVE( '', #737, #717, #738, .T. );
#627 = EDGE_CURVE( '', #722, #737, #739, .T. );
#628 = FILL_AREA_STYLE( '', ( #740 ) );
#629 = EDGE_CURVE( '', #741, #726, #742, .F. );
#630 = EDGE_CURVE( '', #726, #743, #744, .F. );
#631 = EDGE_CURVE( '', #743, #741, #745, .T. );
#632 = FILL_AREA_STYLE( '', ( #746 ) );
#633 = EDGE_CURVE( '', #747, #747, #748, .T. );
#634 = FILL_AREA_STYLE( '', ( #749 ) );
#635 = EDGE_CURVE( '', #750, #750, #751, .F. );
#636 = FILL_AREA_STYLE( '', ( #752 ) );
#637 = EDGE_CURVE( '', #677, #719, #753, .F. );
#638 = FILL_AREA_STYLE( '', ( #754 ) );
#639 = EDGE_CURVE( '', #717, #668, #755, .T. );
#640 = FILL_AREA_STYLE( '', ( #756 ) );
#641 = EDGE_CURVE( '', #684, #675, #757, .T. );
#642 = EDGE_CURVE( '', #673, #684, #758, .F. );
#643 = FILL_AREA_STYLE( '', ( #759 ) );
#644 = EDGE_CURVE( '', #729, #706, #760, .T. );
#645 = EDGE_CURVE( '', #761, #727, #762, .T. );
#646 = EDGE_CURVE( '', #696, #761, #763, .T. );
#647 = FILL_AREA_STYLE( '', ( #764 ) );
#648 = EDGE_CURVE( '', #765, #765, #766, .T. );
#649 = FILL_AREA_STYLE( '', ( #767 ) );
#650 = FILL_AREA_STYLE( '', ( #768 ) );
#651 = EDGE_CURVE( '', #769, #769, #770, .F. );
#652 = EDGE_CURVE( '', #743, #673, #771, .F. );
#653 = EDGE_CURVE( '', #681, #729, #772, .F. );
#654 = FILL_AREA_STYLE( '', ( #773 ) );
#655 = FILL_AREA_STYLE( '', ( #774 ) );
#656 = EDGE_CURVE( '', #671, #743, #775, .T. );
#657 = FILL_AREA_STYLE( '', ( #776 ) );
#658 = FILL_AREA_STYLE( '', ( #777 ) );
#659 = EDGE_CURVE( '', #719, #703, #778, .F. );
#660 = FILL_AREA_STYLE( '', ( #779 ) );
#661 = EDGE_CURVE( '', #761, #722, #780, .T. );
#662 = EDGE_CURVE( '', #737, #741, #781, .T. );
#663 = FILL_AREA_STYLE( '', ( #782 ) );
#664 = FILL_AREA_STYLE( '', ( #783 ) );
#665 = FILL_AREA_STYLE( '', ( #784 ) );
#666 = FILL_AREA_STYLE( '', ( #785 ) );
#667 = FILL_AREA_STYLE_COLOUR( '', #786 );
#668 = VERTEX_POINT( '', #787 );
#669 = VERTEX_POINT( '', #788 );
#670 = B_SPLINE_CURVE_WITH_KNOTS( '', 3, ( #789, #790, #791, #792, #793, #794, #795, #796 ), .UNSPECIFIED., .F., .F., ( 4, 2, 2, 4 ), ( 0.000000000000000, 0.00104758702158704, 0.00157125331589705, 0.00209491961020706 ), .UNSPECIFIED. );
#671 = VERTEX_POINT( '', #797 );
#672 = LINE( '', #798, #799 );
#673 = VERTEX_POINT( '', #800 );
#674 = B_SPLINE_CURVE_WITH_KNOTS( '', 3, ( #801, #802, #803, #804, #805, #806 ), .UNSPECIFIED., .F., .F., ( 4, 2, 4 ), ( 0.00209491961020706, 0.00313491461756392, 0.00417490962492078 ), .UNSPECIFIED. );
#675 = VERTEX_POINT( '', #807 );
#676 = B_SPLINE_CURVE_WITH_KNOTS( '', 3, ( #808, #809, #810, #811, #812, #813, #814, #815 ), .UNSPECIFIED., .F., .F., ( 4, 2, 2, 4 ), ( 0.000000000000000, 0.00104758702158703, 0.00157125331589705, 0.00209491961020706 ), .UNSPECIFIED. );
#677 = VERTEX_POINT( '', #816 );
#678 = LINE( '', #817, #818 );
#679 = B_SPLINE_CURVE_WITH_KNOTS( '', 3, ( #819, #820, #821, #822, #823, #824 ), .UNSPECIFIED., .F., .F., ( 4, 2, 4 ), ( 0.00209491961020706, 0.00313491461756392, 0.00417490962492077 ), .UNSPECIFIED. );
#680 = FILL_AREA_STYLE_COLOUR( '', #825 );
#681 = VERTEX_POINT( '', #826 );
#682 = VERTEX_POINT( '', #827 );
#683 = B_SPLINE_CURVE_WITH_KNOTS( '', 3, ( #828, #829, #830, #831, #832, #833 ), .UNSPECIFIED., .F., .F., ( 4, 2, 4 ), ( 0.00209491961020706, 0.00313491461756392, 0.00417490962492078 ), .UNSPECIFIED. );
#684 = VERTEX_POINT( '', #834 );
#685 = B_SPLINE_CURVE_WITH_KNOTS( '', 3, ( #835, #836, #837, #838, #839, #840, #841, #842 ), .UNSPECIFIED., .F., .F., ( 4, 2, 2, 4 ), ( 0.00362465320601804, 0.00466791073842935, 0.00518953950463501, 0.00571116827084067 ), .UNSPECIFIED. );
#686 = CIRCLE( '', #843, 3.50000000000000 );
#687 = FILL_AREA_STYLE_COLOUR( '', #844 );
#688 = VERTEX_POINT( '', #845 );
#689 = CIRCLE( '', #846, 1.45000000000000 );
#690 = VERTEX_POINT( '', #847 );
#691 = CIRCLE( '', #848, 1.45000000000000 );
#692 = FILL_AREA_STYLE_COLOUR( '', #849 );
#693 = VERTEX_POINT( '', #850 );
#694 = VERTEX_POINT( '', #851 );
#695 = B_SPLINE_CURVE_WITH_KNOTS( '', 3, ( #852, #853, #854, #855, #856, #857 ), .UNSPECIFIED., .F., .F., ( 4, 2, 4 ), ( 0.00209491961020706, 0.00313491461756391, 0.00417490962492077 ), .UNSPECIFIED. );
#696 = VERTEX_POINT( '', #858 );
#697 = B_SPLINE_CURVE_WITH_KNOTS( '', 3, ( #859, #860, #861, #862, #863, #864, #865, #866 ), .UNSPECIFIED., .F., .F., ( 4, 2, 2, 4 ), ( 0.000000000000000, 0.00104758702158703, 0.00157125331589704, 0.00209491961020705 ), .UNSPECIFIED. );
#698 = CIRCLE( '', #867, 3.50000000000000 );
#699 = FILL_AREA_STYLE_COLOUR( '', #868 );
#700 = VERTEX_POINT( '', #869 );
#701 = CIRCLE( '', #870, 1.62100000000000 );
#702 = FILL_AREA_STYLE_COLOUR( '', #871 );
#703 = VERTEX_POINT( '', #872 );
#704 = B_SPLINE_CURVE_WITH_KNOTS( '', 3, ( #873, #874, #875, #876, #877, #878, #879, #880 ), .UNSPECIFIED., .F., .F., ( 4, 2, 2, 4 ), ( 0.000000000000000, 0.00104758702158704, 0.00157125331589705, 0.00209491961020706 ), .UNSPECIFIED. );
#705 = LINE( '', #881, #882 );
#706 = VERTEX_POINT( '', #883 );
#707 = B_SPLINE_CURVE_WITH_KNOTS( '', 3, ( #884, #885, #886, #887, #888, #889, #890, #891 ), .UNSPECIFIED., .F., .F., ( 4, 2, 2, 4 ), ( 0.000000000000000, 0.00104758702158703, 0.00157125331589704, 0.00209491961020706 ), .UNSPECIFIED. );
#708 = LINE( '', #892, #893 );
#709 = FILL_AREA_STYLE_COLOUR( '', #894 );
#710 = VERTEX_POINT( '', #895 );
#711 = CIRCLE( '', #896, 1.62100000000000 );
#712 = VERTEX_POINT( '', #897 );
#713 = CIRCLE( '', #898, 1.62100000000000 );
#714 = FILL_AREA_STYLE_COLOUR( '', #899 );
#715 = VERTEX_POINT( '', #900 );
#716 = CIRCLE( '', #901, 1.92100000000000 );
#717 = VERTEX_POINT( '', #902 );
#718 = CIRCLE( '', #903, 3.50000000000000 );
#719 = VERTEX_POINT( '', #904 );
#720 = CIRCLE( '', #905, 3.50000000000000 );
#721 = CIRCLE( '', #906, 3.50000000000000 );
#722 = VERTEX_POINT( '', #907 );
#723 = CIRCLE( '', #908, 3.50000000000000 );
#724 = CIRCLE( '', #909, 3.50000000000000 );
#725 = FILL_AREA_STYLE_COLOUR( '', #910 );
#726 = VERTEX_POINT( '', #911 );
#727 = VERTEX_POINT( '', #912 );
#728 = B_SPLINE_CURVE_WITH_KNOTS( '', 3, ( #913, #914, #915, #916, #917, #918, #919, #920 ), .UNSPECIFIED., .F., .F., ( 4, 2, 2, 4 ), ( 0.00362465320569584, 0.00466791073810892, 0.00518953950431545, 0.00571116827052199 ), .UNSPECIFIED. );
#729 = VERTEX_POINT( '', #921 );
#730 = B_SPLINE_CURVE_WITH_KNOTS( '', 3, ( #922, #923, #924, #925, #926, #927, #928, #929 ), .UNSPECIFIED., .F., .F., ( 4, 2, 2, 4 ), ( 0.000000000000000, 0.00104758702158703, 0.00157125331589705, 0.00209491961020706 ), .UNSPECIFIED. );
#731 = CIRCLE( '', #930, 3.50000000000000 );
#732 = FILL_AREA_STYLE_COLOUR( '', #931 );
#733 = FILL_AREA_STYLE_COLOUR( '', #932 );
#734 = VERTEX_POINT( '', #933 );
#735 = CIRCLE( '', #934, 1.50358983850000 );
#736 = FILL_AREA_STYLE_COLOUR( '', #935 );
#737 = VERTEX_POINT( '', #936 );
#738 = B_SPLINE_CURVE_WITH_KNOTS( '', 3, ( #937, #938, #939, #940, #941, #942, #943, #944 ), .UNSPECIFIED., .F., .F., ( 4, 2, 2, 4 ), ( 0.000000000000000, 0.00104758702158704, 0.00157125331589705, 0.00209491961020706 ), .UNSPECIFIED. );
#739 = B_SPLINE_CURVE_WITH_KNOTS( '', 3, ( #945, #946, #947, #948, #949, #950, #951, #952 ), .UNSPECIFIED., .F., .F., ( 4, 2, 2, 4 ), ( 0.00571116827052199, 0.00675577593126404, 0.00727807976163507, 0.00780038359200609 ), .UNSPECIFIED. );
#740 = FILL_AREA_STYLE_COLOUR( '', #953 );
#741 = VERTEX_POINT( '', #954 );
#742 = B_SPLINE_CURVE_WITH_KNOTS( '', 3, ( #955, #956, #957, #958, #959, #960, #961, #962 ), .UNSPECIFIED., .F., .F., ( 4, 2, 2, 4 ), ( 0.00571116827052199, 0.00675577593126405, 0.00727807976163508, 0.00780038359200611 ), .UNSPECIFIED. );
#743 = VERTEX_POINT( '', #963 );
#744 = CIRCLE( '', #964, 3.50000000000000 );
#745 = B_SPLINE_CURVE_WITH_KNOTS( '', 3, ( #965, #966, #967, #968, #969, #970 ), .UNSPECIFIED., .F., .F., ( 4, 2, 4 ), ( 0.00209491961020704, 0.00313491461756390, 0.00417490962492076 ), .UNSPECIFIED. );
#746 = FILL_AREA_STYLE_COLOUR( '', #971 );
#747 = VERTEX_POINT( '', #972 );
#748 = CIRCLE( '', #973, 2.00000000000000 );
#749 = FILL_AREA_STYLE_COLOUR( '', #974 );
#750 = VERTEX_POINT( '', #975 );
#751 = CIRCLE( '', #976, 1.70000000000000 );
#752 = FILL_AREA_STYLE_COLOUR( '', #977 );
#753 = B_SPLINE_CURVE_WITH_KNOTS( '', 3, ( #978, #979, #980, #981, #982, #983, #984, #985 ), .UNSPECIFIED., .F., .F., ( 4, 2, 2, 4 ), ( 0.00571116827084065, 0.00675577593158267, 0.00727807976195368, 0.00780038359232468 ), .UNSPECIFIED. );
#754 = FILL_AREA_STYLE_COLOUR( '', #986 );
#755 = B_SPLINE_CURVE_WITH_KNOTS( '', 3, ( #987, #988, #989, #990, #991, #992 ), .UNSPECIFIED., .F., .F., ( 4, 2, 4 ), ( 0.00209491961020706, 0.00313491461756391, 0.00417490962492076 ), .UNSPECIFIED. );
#756 = FILL_AREA_STYLE_COLOUR( '', #993 );
#757 = B_SPLINE_CURVE_WITH_KNOTS( '', 3, ( #994, #995, #996, #997, #998, #999, #1000, #1001 ), .UNSPECIFIED., .F., .F., ( 4, 2, 2, 4 ), ( 0.00571116827084067, 0.00675577593158269, 0.00727807976195370, 0.00780038359232471 ), .UNSPECIFIED. );
#758 = CIRCLE( '', #1002, 3.50000000000000 );
#759 = FILL_AREA_STYLE_COLOUR( '', #1003 );
#760 = B_SPLINE_CURVE_WITH_KNOTS( '', 3, ( #1004, #1005, #1006, #1007, #1008, #1009 ), .UNSPECIFIED., .F., .F., ( 4, 2, 4 ), ( 0.00209491961020706, 0.00313491461756391, 0.00417490962492076 ), .UNSPECIFIED. );
#761 = VERTEX_POINT( '', #1010 );
#762 = LINE( '', #1011, #1012 );
#763 = B_SPLINE_CURVE_WITH_KNOTS( '', 3, ( #1013, #1014, #1015, #1016, #1017, #1018 ), .UNSPECIFIED., .F., .F., ( 4, 2, 4 ), ( 0.00209491961020705, 0.00313491461756390, 0.00417490962492075 ), .UNSPECIFIED. );
#764 = FILL_AREA_STYLE_COLOUR( '', #1019 );
#765 = VERTEX_POINT( '', #1020 );
#766 = CIRCLE( '', #1021, 2.00000000000000 );
#767 = FILL_AREA_STYLE_COLOUR( '', #1022 );
#768 = FILL_AREA_STYLE_COLOUR( '', #1023 );
#769 = VERTEX_POINT( '', #1024 );
#770 = CIRCLE( '', #1025, 1.85000000000000 );
#771 = CIRCLE( '', #1026, 3.50000000000000 );
#772 = CIRCLE( '', #1027, 3.50000000000000 );
#773 = FILL_AREA_STYLE_COLOUR( '', #1028 );
#774 = FILL_AREA_STYLE_COLOUR( '', #1029 );
#775 = B_SPLINE_CURVE_WITH_KNOTS( '', 3, ( #1030, #1031, #1032, #1033, #1034, #1035, #1036, #1037 ), .UNSPECIFIED., .F., .F., ( 4, 2, 2, 4 ), ( 0.000000000000000, 0.00104758702158703, 0.00157125331589703, 0.00209491961020704 ), .UNSPECIFIED. );
#776 = FILL_AREA_STYLE_COLOUR( '', #1038 );
#777 = FILL_AREA_STYLE_COLOUR( '', #1039 );
#778 = B_SPLINE_CURVE_WITH_KNOTS( '', 3, ( #1040, #1041, #1042, #1043, #1044, #1045, #1046, #1047 ), .UNSPECIFIED., .F., .F., ( 4, 2, 2, 4 ), ( 0.00362465320601802, 0.00466791073842934, 0.00518953950463499, 0.00571116827084065 ), .UNSPECIFIED. );
#779 = FILL_AREA_STYLE_COLOUR( '', #1048 );
#780 = B_SPLINE_CURVE_WITH_KNOTS( '', 3, ( #1049, #1050, #1051, #1052, #1053, #1054, #1055, #1056 ), .UNSPECIFIED., .F., .F., ( 4, 2, 2, 4 ), ( 0.00362465320569584, 0.00466791073810891, 0.00518953950431545, 0.00571116827052199 ), .UNSPECIFIED. );
#781 = LINE( '', #1057, #1058 );
#782 = FILL_AREA_STYLE_COLOUR( '', #1059 );
#783 = FILL_AREA_STYLE_COLOUR( '', #1060 );
#784 = FILL_AREA_STYLE_COLOUR( '', #1061 );
#785 = FILL_AREA_STYLE_COLOUR( '', #1062 );
#786 = COLOUR_RGB( '', 0.505882382400000, 0.529411792800000, 0.549019634700000 );
#787 = CARTESIAN_POINT( '', ( 4.04145188432738, 6.45599105984453E-015, -24.4585481156727 ) );
#788 = CARTESIAN_POINT( '', ( 3.03108891324553, -1.75000000000000, -25.0000000000000 ) );
#789 = CARTESIAN_POINT( '', ( 4.04145188432737, -1.46459797621599E-015, -24.4585481156726 ) );
#790 = CARTESIAN_POINT( '', ( 3.88301299660349, -0.274424203432459, -24.6169870033965 ) );
#791 = CARTESIAN_POINT( '', ( 3.72098809587036, -0.555059563593558, -24.7516191378666 ) );
#792 = CARTESIAN_POINT( '', ( 3.46921402221870, -0.991145051186815, -24.8955661562228 ) );
#793 = CARTESIAN_POINT( '', ( 3.38381775504671, -1.13905572470543, -24.9337790259158 ) );
#794 = CARTESIAN_POINT( '', ( 3.20939557528577, -1.44116380201830, -24.9861083460704 ) );
#795 = CARTESIAN_POINT( '', ( 3.11958017449335, -1.59672863949292, -25.0000000000000 ) );
#796 = CARTESIAN_POINT( '', ( 3.03108891324553, -1.75000000000000, -25.0000000000000 ) );
#797 = CARTESIAN_POINT( '', ( 4.04145188432738, 6.72098410117904E-015, -0.541451884327371 ) );
#798 = CARTESIAN_POINT( '', ( 4.04145188432738, 6.93889390390723E-015, -25.0000000000000 ) );
#799 = VECTOR( '', #1063, 1000.00000000000 );
#800 = CARTESIAN_POINT( '', ( 3.03108891324554, -1.75000000000000, 0.000000000000000 ) );
#801 = CARTESIAN_POINT( '', ( 3.03108891324553, -1.75000000000000, 4.37539117842510E-015 ) );
#802 = CARTESIAN_POINT( '', ( 3.20683150140219, -1.44560490825902, 4.13945001323177E-015 ) );
#803 = CARTESIAN_POINT( '', ( 3.37958597691273, -1.14638537943985, -0.0537436454448037 ) );
#804 = CARTESIAN_POINT( '', ( 3.72030144562284, -0.556248876709286, -0.247445629111177 ) );
#805 = CARTESIAN_POINT( '', ( 3.88319615613298, -0.274106961821509, -0.383196156132726 ) );
#806 = CARTESIAN_POINT( '', ( 4.04145188432742, 7.44843072991063E-014, -0.541451884327173 ) );
#807 = CARTESIAN_POINT( '', ( 2.02072594216369, -3.50000000000000, -0.541451884327367 ) );
#808 = CARTESIAN_POINT( '', ( 2.02072594216369, -3.50000000000000, -0.541451884327377 ) );
#809 = CARTESIAN_POINT( '', ( 2.17916482988757, -3.22557579656754, -0.383012996603498 ) );
#810 = CARTESIAN_POINT( '', ( 2.34118973062070, -2.94494043640644, -0.248380862133447 ) );
#811 = CARTESIAN_POINT( '', ( 2.59296380427236, -2.50885494881318, -0.104433843777224 ) );
#812 = CARTESIAN_POINT( '', ( 2.67836007144435, -2.36094427529457, -0.0662209740841890 ) );
#813 = CARTESIAN_POINT( '', ( 2.85278225120529, -2.05883619798170, -0.0138916539295988 ) );
#814 = CARTESIAN_POINT( '', ( 2.94259765199771, -1.90327136050707, 4.50409769702474E-015 ) );
#815 = CARTESIAN_POINT( '', ( 3.03108891324553, -1.74999999999999, 4.37539117842510E-015 ) );
#816 = CARTESIAN_POINT( '', ( 2.02072594216369, -3.50000000000000, -24.4585481156727 ) );
#817 = CARTESIAN_POINT( '', ( 2.02072594216369, -3.50000000000000, -25.0000000000000 ) );
#818 = VECTOR( '', #1064, 1000.00000000000 );
#819 = CARTESIAN_POINT( '', ( 3.03108891324553, -1.75000000000000, -25.0000000000000 ) );
#820 = CARTESIAN_POINT( '', ( 2.85534632508888, -2.05439509174098, -25.0000000000000 ) );
#821 = CARTESIAN_POINT( '', ( 2.68259184957833, -2.35361462056015, -24.9462563545552 ) );
#822 = CARTESIAN_POINT( '', ( 2.34187638086822, -2.94375112329071, -24.7525543708888 ) );
#823 = CARTESIAN_POINT( '', ( 2.17898167035809, -3.22589303817848, -24.6168038438673 ) );
#824 = CARTESIAN_POINT( '', ( 2.02072594216365, -3.50000000000006, -24.4585481156728 ) );
#825 = COLOUR_RGB( '', 0.505882382400000, 0.529411792800000, 0.549019634700000 );
#826 = CARTESIAN_POINT( '', ( -3.03108891324555, -1.75000000000000, 0.000000000000000 ) );
#827 = CARTESIAN_POINT( '', ( -2.02072594216369, -3.50000000000000, -0.541451884327368 ) );
#828 = CARTESIAN_POINT( '', ( -3.03108891324553, -1.74999999999999, 6.50659009761384E-015 ) );
#829 = CARTESIAN_POINT( '', ( -2.85534632508888, -2.05439509174097, 6.68563105267819E-015 ) );
#830 = CARTESIAN_POINT( '', ( -2.68259184957834, -2.35361462056014, -0.0537436454448013 ) );
#831 = CARTESIAN_POINT( '', ( -2.34187638086822, -2.94375112329070, -0.247445629111174 ) );
#832 = CARTESIAN_POINT( '', ( -2.17898167035809, -3.22589303817848, -0.383196156132723 ) );
#833 = CARTESIAN_POINT( '', ( -2.02072594216365, -3.50000000000006, -0.541451884327170 ) );
#834 = CARTESIAN_POINT( '', ( -3.38020784715861E-015, -3.50000000000000, 0.000000000000000 ) );
#835 = CARTESIAN_POINT( '', ( -2.02072594216386, -3.50000000000000, -0.541451884327126 ) );
#836 = CARTESIAN_POINT( '', ( -1.70739730499022, -3.50000000000000, -0.384787565740300 ) );
#837 = CARTESIAN_POINT( '', ( -1.37756559723439, -3.50000000000000, -0.247468673809866 ) );
#838 = CARTESIAN_POINT( '', ( -0.872491469625347, -3.50000000000000, -0.103498298347682 ) );
#839 = CARTESIAN_POINT( '', ( -0.701825053455729, -3.50000000000000, -0.0655501533407173 ) );
#840 = CARTESIAN_POINT( '', ( -0.354948639833688, -3.50000000000000, -0.0137697743662237 ) );
#841 = CARTESIAN_POINT( '', ( -0.177213358912758, -3.50000000000000, 1.39129396751255E-014 ) );
#842 = CARTESIAN_POINT( '', ( -8.49824371628937E-016, -3.50000000000000, 1.37836633395024E-014 ) );
#843 = AXIS2_PLACEMENT_3D( '', #1065, #1066, #1067 );
#844 = COLOUR_RGB( '', 0.505882382400000, 0.529411792800000, 0.549019634700000 );
#845 = CARTESIAN_POINT( '', ( -1.45000000000000, 0.000000000000000, 0.692820323027551 ) );
#846 = AXIS2_PLACEMENT_3D( '', #1068, #1069, #1070 );
#847 = CARTESIAN_POINT( '', ( 1.45000000000000, 0.000000000000000, 0.400000000000000 ) );
#848 = AXIS2_PLACEMENT_3D( '', #1071, #1072, #1073 );
#849 = COLOUR_RGB( '', 0.505882382400000, 0.529411792800000, 0.549019634700000 );
#850 = CARTESIAN_POINT( '', ( -3.03108891324554, -1.75000000000000, -25.0000000000000 ) );
#851 = CARTESIAN_POINT( '', ( -4.04145188432738, 1.27350406743857E-014, -24.4585481156727 ) );
#852 = CARTESIAN_POINT( '', ( -3.03108891324553, -1.75000000000000, -25.0000000000000 ) );
#853 = CARTESIAN_POINT( '', ( -3.20683150140218, -1.44560490825902, -25.0000000000000 ) );
#854 = CARTESIAN_POINT( '', ( -3.37958597691273, -1.14638537943984, -24.9462563545552 ) );
#855 = CARTESIAN_POINT( '', ( -3.72030144562284, -0.556248876709284, -24.7525543708888 ) );
#856 = CARTESIAN_POINT( '', ( -3.88319615613297, -0.274106961821510, -24.6168038438673 ) );
#857 = CARTESIAN_POINT( '', ( -4.04145188432741, 7.38467390913418E-014, -24.4585481156728 ) );
#858 = CARTESIAN_POINT( '', ( -3.03108891324553, 1.75000000000000, -25.0000000000000 ) );
#859 = CARTESIAN_POINT( '', ( -4.04145188432737, 1.09996625482202E-014, -24.4585481156726 ) );
#860 = CARTESIAN_POINT( '', ( -3.88301299660349, 0.274424203432467, -24.6169870033965 ) );
#861 = CARTESIAN_POINT( '', ( -3.72098809587035, 0.555059563593563, -24.7516191378666 ) );
#862 = CARTESIAN_POINT( '', ( -3.46921402221870, 0.991145051186817, -24.8955661562228 ) );
#863 = CARTESIAN_POINT( '', ( -3.38381775504671, 1.13905572470543, -24.9337790259158 ) );
#864 = CARTESIAN_POINT( '', ( -3.20939557528576, 1.44116380201830, -24.9861083460704 ) );
#865 = CARTESIAN_POINT( '', ( -3.11958017449335, 1.59672863949292, -25.0000000000000 ) );
#866 = CARTESIAN_POINT( '', ( -3.03108891324553, 1.75000000000000, -25.0000000000000 ) );
#867 = AXIS2_PLACEMENT_3D( '', #1074, #1075, #1076 );
#868 = COLOUR_RGB( '', 0.505882382400000, 0.529411792800000, 0.549019634700000 );
#869 = CARTESIAN_POINT( '', ( 0.000000000000000, -1.62100000000000, -13.0000000000000 ) );
#870 = AXIS2_PLACEMENT_3D( '', #1077, #1078, #1079 );
#871 = COLOUR_RGB( '', 0.505882382400000, 0.529411792800000, 0.549019634700000 );
#872 = CARTESIAN_POINT( '', ( -2.02072594216369, -3.50000000000000, -24.4585481156727 ) );
#873 = CARTESIAN_POINT( '', ( -2.02072594216369, -3.49999999999999, -24.4585481156726 ) );
#874 = CARTESIAN_POINT( '', ( -2.17916482988757, -3.22557579656753, -24.6169870033965 ) );
#875 = CARTESIAN_POINT( '', ( -2.34118973062070, -2.94494043640644, -24.7516191378666 ) );
#876 = CARTESIAN_POINT( '', ( -2.59296380427236, -2.50885494881318, -24.8955661562228 ) );
#877 = CARTESIAN_POINT( '', ( -2.67836007144435, -2.36094427529457, -24.9337790259158 ) );
#878 = CARTESIAN_POINT( '', ( -2.85278225120529, -2.05883619798170, -24.9861083460704 ) );
#879 = CARTESIAN_POINT( '', ( -2.94259765199771, -1.90327136050707, -25.0000000000000 ) );
#880 = CARTESIAN_POINT( '', ( -3.03108891324553, -1.75000000000000, -25.0000000000000 ) );
#881 = CARTESIAN_POINT( '', ( -2.02072594216369, -3.50000000000000, -25.0000000000000 ) );
#882 = VECTOR( '', #1080, 1000.00000000000 );
#883 = CARTESIAN_POINT( '', ( -4.04145188432738, 1.36477101720152E-014, -0.541451884327373 ) );
#884 = CARTESIAN_POINT( '', ( -4.04145188432738, 1.24194145564663E-014, -0.541451884327379 ) );
#885 = CARTESIAN_POINT( '', ( -3.88301299660350, -0.274424203432447, -0.383012996603499 ) );
#886 = CARTESIAN_POINT( '', ( -3.72098809587036, -0.555059563593546, -0.248380862133447 ) );
#887 = CARTESIAN_POINT( '', ( -3.46921402221871, -0.991145051186805, -0.104433843777224 ) );
#888 = CARTESIAN_POINT( '', ( -3.38381775504672, -1.13905572470542, -0.0662209740841885 ) );
#889 = CARTESIAN_POINT( '', ( -3.20939557528577, -1.44116380201829, -0.0138916539295976 ) );
#890 = CARTESIAN_POINT( '', ( -3.11958017449335, -1.59672863949292, 6.41034534482055E-015 ) );
#891 = CARTESIAN_POINT( '', ( -3.03108891324553, -1.74999999999999, 6.50659009761384E-015 ) );
#892 = CARTESIAN_POINT( '', ( -4.04145188432738, 1.34441069388203E-014, -25.0000000000000 ) );
#893 = VECTOR( '', #1081, 1000.00000000000 );
#894 = COLOUR_RGB( '', 0.184313729400000, 0.749019622800000, 0.580392181900000 );
#895 = CARTESIAN_POINT( '', ( 0.000000000000000, 1.62100000000000, -15.0000000000000 ) );
#896 = AXIS2_PLACEMENT_3D( '', #1082, #1083, #1084 );
#897 = CARTESIAN_POINT( '', ( -1.62100000000000, 0.000000000000000, -24.7000000000000 ) );
#898 = AXIS2_PLACEMENT_3D( '', #1085, #1086, #1087 );
#899 = COLOUR_RGB( '', 0.505882382400000, 0.529411792800000, 0.549019634700000 );
#900 = CARTESIAN_POINT( '', ( 0.000000000000000, 1.92100000000000, -25.0000000000000 ) );
#901 = AXIS2_PLACEMENT_3D( '', #1088, #1089, #1090 );
#902 = CARTESIAN_POINT( '', ( 3.03108891324554, 1.75000000000000, -25.0000000000000 ) );
#903 = AXIS2_PLACEMENT_3D( '', #1091, #1092, #1093 );
#904 = CARTESIAN_POINT( '', ( -3.38020784715860E-015, -3.50000000000000, -25.0000000000000 ) );
#905 = AXIS2_PLACEMENT_3D( '', #1094, #1095, #1096 );
#906 = AXIS2_PLACEMENT_3D( '', #1097, #1098, #1099 );
#907 = CARTESIAN_POINT( '', ( 0.000000000000000, 3.50000000000000, -25.0000000000000 ) );
#908 = AXIS2_PLACEMENT_3D( '', #1100, #1101, #1102 );
#909 = AXIS2_PLACEMENT_3D( '', #1103, #1104, #1105 );
#910 = COLOUR_RGB( '', 0.505882382400000, 0.529411792800000, 0.549019634700000 );
#911 = CARTESIAN_POINT( '', ( 0.000000000000000, 3.50000000000000, 0.000000000000000 ) );
#912 = CARTESIAN_POINT( '', ( -2.02072594216368, 3.50000000000000, -0.541451884327377 ) );
#913 = CARTESIAN_POINT( '', ( -2.02072594216385, 3.50000000000000, -0.541451884327125 ) );
#914 = CARTESIAN_POINT( '', ( -1.70739730499005, 3.50000000000000, -0.384787565740216 ) );
#915 = CARTESIAN_POINT( '', ( -1.37756559723380, 3.50000000000000, -0.247468673809643 ) );
#916 = CARTESIAN_POINT( '', ( -0.872491469624612, 3.50000000000000, -0.103498298347503 ) );
#917 = CARTESIAN_POINT( '', ( -0.701825053455078, 3.50000000000000, -0.0655501533406022 ) );
#918 = CARTESIAN_POINT( '', ( -0.354948639833556, 3.50000000000000, -0.0137697743662231 ) );
#919 = CARTESIAN_POINT( '', ( -0.177213358913642, 3.50000000000000, 1.37782614365121E-014 ) );
#920 = CARTESIAN_POINT( '', ( 1.94605592157007E-015, 3.50000000000000, 1.38309685579633E-014 ) );
#921 = CARTESIAN_POINT( '', ( -3.03108891324554, 1.75000000000000, 0.000000000000000 ) );
#922 = CARTESIAN_POINT( '', ( -2.02072594216368, 3.50000000000000, -0.541451884327376 ) );
#923 = CARTESIAN_POINT( '', ( -2.17916482988756, 3.22557579656754, -0.383012996603496 ) );
#924 = CARTESIAN_POINT( '', ( -2.34118973062070, 2.94494043640644, -0.248380862133445 ) );
#925 = CARTESIAN_POINT( '', ( -2.59296380427235, 2.50885494881319, -0.104433843777222 ) );
#926 = CARTESIAN_POINT( '', ( -2.67836007144434, 2.36094427529457, -0.0662209740841867 ) );
#927 = CARTESIAN_POINT( '', ( -2.85278225120529, 2.05883619798170, -0.0138916539295959 ) );
#928 = CARTESIAN_POINT( '', ( -2.94259765199771, 1.90327136050707, 7.91298179324967E-015 ) );
#929 = CARTESIAN_POINT( '', ( -3.03108891324553, 1.75000000000000, 7.81520703187279E-015 ) );
#930 = AXIS2_PLACEMENT_3D( '', #1106, #1107, #1108 );
#931 = COLOUR_RGB( '', 0.505882382400000, 0.529411792800000, 0.549019634700000 );
#932 = COLOUR_RGB( '', 0.505882382400000, 0.529411792800000, 0.549019634700000 );
#933 = CARTESIAN_POINT( '', ( 1.50358983848622, 0.000000000000000, 0.892820323027549 ) );
#934 = AXIS2_PLACEMENT_3D( '', #1109, #1110, #1111 );
#935 = COLOUR_RGB( '', 0.505882382400000, 0.529411792800000, 0.549019634700000 );
#936 = CARTESIAN_POINT( '', ( 2.02072594216369, 3.50000000000000, -24.4585481156727 ) );
#937 = CARTESIAN_POINT( '', ( 2.02072594216369, 3.49999999999999, -24.4585481156726 ) );
#938 = CARTESIAN_POINT( '', ( 2.17916482988757, 3.22557579656754, -24.6169870033965 ) );
#939 = CARTESIAN_POINT( '', ( 2.34118973062071, 2.94494043640644, -24.7516191378666 ) );
#940 = CARTESIAN_POINT( '', ( 2.59296380427236, 2.50885494881318, -24.8955661562228 ) );
#941 = CARTESIAN_POINT( '', ( 2.67836007144435, 2.36094427529457, -24.9337790259158 ) );
#942 = CARTESIAN_POINT( '', ( 2.85278225120530, 2.05883619798170, -24.9861083460704 ) );
#943 = CARTESIAN_POINT( '', ( 2.94259765199771, 1.90327136050708, -25.0000000000000 ) );
#944 = CARTESIAN_POINT( '', ( 3.03108891324553, 1.75000000000000, -25.0000000000000 ) );
#945 = CARTESIAN_POINT( '', ( 2.18337124757697E-015, 3.50000000000000, -25.0000000000000 ) );
#946 = CARTESIAN_POINT( '', ( 0.354885398006841, 3.50000000000000, -25.0000000000000 ) );
#947 = CARTESIAN_POINT( '', ( 0.700762444482505, 3.50000000000000, -24.9453574315266 ) );
#948 = CARTESIAN_POINT( '', ( 1.20922016417582, 3.50000000000000, -24.8005652658884 ) );
#949 = CARTESIAN_POINT( '', ( 1.37772173779700, 3.50000000000000, -24.7415805278652 ) );
#950 = CARTESIAN_POINT( '', ( 1.70479380956428, 3.50000000000000, -24.6097658586079 ) );
#951 = CARTESIAN_POINT( '', ( 1.86426501704713, 3.50000000000000, -24.5367785782309 ) );
#952 = CARTESIAN_POINT( '', ( 2.02072594216367, 3.50000000000000, -24.4585481156726 ) );
#953 = COLOUR_RGB( '', 0.505882382400000, 0.529411792800000, 0.549019634700000 );
#954 = CARTESIAN_POINT( '', ( 2.02072594216369, 3.50000000000000, -0.541451884327377 ) );
#955 = CARTESIAN_POINT( '', ( 1.94605592157007E-015, 3.50000000000000, 1.38309685579633E-014 ) );
#956 = CARTESIAN_POINT( '', ( 0.354885398006842, 3.50000000000000, 1.39430093447530E-014 ) );
#957 = CARTESIAN_POINT( '', ( 0.700762444482507, 3.50000000000000, -0.0546425684734500 ) );
#958 = CARTESIAN_POINT( '', ( 1.20922016417583, 3.50000000000000, -0.199434734111555 ) );
#959 = CARTESIAN_POINT( '', ( 1.37772173779701, 3.50000000000000, -0.258419472134828 ) );
#960 = CARTESIAN_POINT( '', ( 1.70479380956429, 3.50000000000000, -0.390234141392071 ) );
#961 = CARTESIAN_POINT( '', ( 1.86426501704714, 3.50000000000000, -0.463221421769105 ) );
#962 = CARTESIAN_POINT( '', ( 2.02072594216369, 3.50000000000000, -0.541451884327377 ) );
#963 = CARTESIAN_POINT( '', ( 3.03108891324554, 1.75000000000000, 0.000000000000000 ) );
#964 = AXIS2_PLACEMENT_3D( '', #1112, #1113, #1114 );
#965 = CARTESIAN_POINT( '', ( 3.03108891324553, 1.75000000000000, 1.71228683582693E-015 ) );
#966 = CARTESIAN_POINT( '', ( 2.85534632508888, 2.05439509174098, 1.78766303518020E-015 ) );
#967 = CARTESIAN_POINT( '', ( 2.68259184957834, 2.35361462056015, -0.0537436454448060 ) );
#968 = CARTESIAN_POINT( '', ( 2.34187638086822, 2.94375112329071, -0.247445629111179 ) );
#969 = CARTESIAN_POINT( '', ( 2.17898167035809, 3.22589303817849, -0.383196156132728 ) );
#970 = CARTESIAN_POINT( '', ( 2.02072594216365, 3.50000000000007, -0.541451884327175 ) );
#971 = COLOUR_RGB( '', 0.505882382400000, 0.529411792800000, 0.549019634700000 );
#972 = CARTESIAN_POINT( '', ( -2.00000000000000, 0.000000000000000, 1.75262794416288 ) );
#973 = AXIS2_PLACEMENT_3D( '', #1115, #1116, #1117 );
#974 = COLOUR_RGB( '', 0.505882382400000, 0.529411792800000, 0.549019634700000 );
#975 = CARTESIAN_POINT( '', ( -1.70000000000000, 0.000000000000000, 10.0000000000000 ) );
#976 = AXIS2_PLACEMENT_3D( '', #1118, #1119, #1120 );
#977 = COLOUR_RGB( '', 0.505882382400000, 0.529411792800000, 0.549019634700000 );
#978 = CARTESIAN_POINT( '', ( -4.41403272096632E-016, -3.50000000000000, -25.0000000000000 ) );
#979 = CARTESIAN_POINT( '', ( 0.354885398005652, -3.50000000000000, -25.0000000000000 ) );
#980 = CARTESIAN_POINT( '', ( 0.700762444481533, -3.50000000000000, -24.9453574315268 ) );
#981 = CARTESIAN_POINT( '', ( 1.20922016417658, -3.50000000000000, -24.8005652658882 ) );
#982 = CARTESIAN_POINT( '', ( 1.37772173779796, -3.50000000000000, -24.7415805278648 ) );
#983 = CARTESIAN_POINT( '', ( 1.70479380956452, -3.50000000000000, -24.6097658586078 ) );
#984 = CARTESIAN_POINT( '', ( 1.86426501704719, -3.50000000000000, -24.5367785782309 ) );
#985 = CARTESIAN_POINT( '', ( 2.02072594216367, -3.50000000000000, -24.4585481156726 ) );
#986 = COLOUR_RGB( '', 0.505882382400000, 0.529411792800000, 0.549019634700000 );
#987 = CARTESIAN_POINT( '', ( 3.03108891324553, 1.75000000000000, -25.0000000000000 ) );
#988 = CARTESIAN_POINT( '', ( 3.20683150140219, 1.44560490825902, -25.0000000000000 ) );
#989 = CARTESIAN_POINT( '', ( 3.37958597691273, 1.14638537943985, -24.9462563545552 ) );
#990 = CARTESIAN_POINT( '', ( 3.72030144562284, 0.556248876709297, -24.7525543708888 ) );
#991 = CARTESIAN_POINT( '', ( 3.88319615613297, 0.274106961821525, -24.6168038438673 ) );
#992 = CARTESIAN_POINT( '', ( 4.04145188432741, -5.55475495206765E-014, -24.4585481156728 ) );
#993 = COLOUR_RGB( '', 0.505882382400000, 0.529411792800000, 0.549019634700000 );
#994 = CARTESIAN_POINT( '', ( -8.49824371628937E-016, -3.50000000000000, 1.37836633395024E-014 ) );
#995 = CARTESIAN_POINT( '', ( 0.354885398005652, -3.50000000000000, 1.35199163875995E-014 ) );
#996 = CARTESIAN_POINT( '', ( 0.700762444481535, -3.50000000000000, -0.0546425684731594 ) );
#997 = CARTESIAN_POINT( '', ( 1.20922016417659, -3.50000000000000, -0.199434734111781 ) );
#998 = CARTESIAN_POINT( '', ( 1.37772173779796, -3.50000000000000, -0.258419472135192 ) );
#999 = CARTESIAN_POINT( '', ( 1.70479380956453, -3.50000000000000, -0.390234141392188 ) );
#1000 = CARTESIAN_POINT( '', ( 1.86426501704719, -3.50000000000000, -0.463221421769136 ) );
#1001 = CARTESIAN_POINT( '', ( 2.02072594216368, -3.50000000000000, -0.541451884327377 ) );
#1002 = AXIS2_PLACEMENT_3D( '', #1121, #1122, #1123 );
#1003 = COLOUR_RGB( '', 0.505882382400000, 0.529411792800000, 0.549019634700000 );
#1004 = CARTESIAN_POINT( '', ( -3.03108891324553, 1.75000000000000, 7.81520703187279E-015 ) );
#1005 = CARTESIAN_POINT( '', ( -3.20683150140218, 1.44560490825902, 7.61567322876341E-015 ) );
#1006 = CARTESIAN_POINT( '', ( -3.37958597691272, 1.14638537943985, -0.0537436454447997 ) );
#1007 = CARTESIAN_POINT( '', ( -3.72030144562283, 0.556248876709293, -0.247445629111171 ) );
#1008 = CARTESIAN_POINT( '', ( -3.88319615613297, 0.274106961821516, -0.383196156132719 ) );
#1009 = CARTESIAN_POINT( '', ( -4.04145188432741, -6.56492861631224E-014, -0.541451884327165 ) );
#1010 = CARTESIAN_POINT( '', ( -2.02072594216368, 3.50000000000000, -24.4585481156727 ) );
#1011 = CARTESIAN_POINT( '', ( -2.02072594216368, 3.50000000000000, -25.0000000000000 ) );
#1012 = VECTOR( '', #1124, 1000.00000000000 );
#1013 = CARTESIAN_POINT( '', ( -3.03108891324553, 1.75000000000000, -25.0000000000000 ) );
#1014 = CARTESIAN_POINT( '', ( -2.85534632508887, 2.05439509174098, -25.0000000000000 ) );
#1015 = CARTESIAN_POINT( '', ( -2.68259184957833, 2.35361462056015, -24.9462563545552 ) );
#1016 = CARTESIAN_POINT( '', ( -2.34187638086822, 2.94375112329071, -24.7525543708888 ) );
#1017 = CARTESIAN_POINT( '', ( -2.17898167035808, 3.22589303817848, -24.6168038438673 ) );
#1018 = CARTESIAN_POINT( '', ( -2.02072594216364, 3.50000000000006, -24.4585481156728 ) );
#1019 = COLOUR_RGB( '', 0.505882382400000, 0.529411792800000, 0.549019634700000 );
#1020 = CARTESIAN_POINT( '', ( -2.00000000000000, 0.000000000000000, 9.70000000000000 ) );
#1021 = AXIS2_PLACEMENT_3D( '', #1125, #1126, #1127 );
#1022 = COLOUR_RGB( '', 0.505882382400000, 0.529411792800000, 0.549019634700000 );
#1023 = COLOUR_RGB( '', 0.505882382400000, 0.529411792800000, 0.549019634700000 );
#1024 = CARTESIAN_POINT( '', ( 1.85000000000000, 0.000000000000000, 0.000000000000000 ) );
#1025 = AXIS2_PLACEMENT_3D( '', #1128, #1129, #1130 );
#1026 = AXIS2_PLACEMENT_3D( '', #1131, #1132, #1133 );
#1027 = AXIS2_PLACEMENT_3D( '', #1134, #1135, #1136 );
#1028 = COLOUR_RGB( '', 0.505882382400000, 0.529411792800000, 0.549019634700000 );
#1029 = COLOUR_RGB( '', 0.505882382400000, 0.529411792800000, 0.549019634700000 );
#1030 = CARTESIAN_POINT( '', ( 4.04145188432737, 7.35971505831066E-015, -0.541451884327375 ) );
#1031 = CARTESIAN_POINT( '', ( 3.88301299660349, 0.274424203432465, -0.383012996603497 ) );
#1032 = CARTESIAN_POINT( '', ( 3.72098809587036, 0.555059563593562, -0.248380862133448 ) );
#1033 = CARTESIAN_POINT( '', ( 3.46921402221870, 0.991145051186818, -0.104433843777227 ) );
#1034 = CARTESIAN_POINT( '', ( 3.38381775504672, 1.13905572470543, -0.0662209740841920 ) );
#1035 = CARTESIAN_POINT( '', ( 3.20939557528577, 1.44116380201830, -0.0138916539296020 ) );
#1036 = CARTESIAN_POINT( '', ( 3.11958017449335, 1.59672863949292, 1.67289007082724E-015 ) );
#1037 = CARTESIAN_POINT( '', ( 3.03108891324553, 1.75000000000000, 1.71228683582693E-015 ) );
#1038 = COLOUR_RGB( '', 0.505882382400000, 0.529411792800000, 0.549019634700000 );
#1039 = COLOUR_RGB( '', 0.505882382400000, 0.529411792800000, 0.549019634700000 );
#1040 = CARTESIAN_POINT( '', ( -2.02072594216385, -3.50000000000000, -24.4585481156729 ) );
#1041 = CARTESIAN_POINT( '', ( -1.70739730499021, -3.50000000000000, -24.6152124342597 ) );
#1042 = CARTESIAN_POINT( '', ( -1.37756559723438, -3.50000000000000, -24.7525313261901 ) );
#1043 = CARTESIAN_POINT( '', ( -0.872491469625341, -3.50000000000000, -24.8965017016523 ) );
#1044 = CARTESIAN_POINT( '', ( -0.701825053455723, -3.50000000000000, -24.9344498466593 ) );
#1045 = CARTESIAN_POINT( '', ( -0.354948639833681, -3.50000000000000, -24.9862302256338 ) );
#1046 = CARTESIAN_POINT( '', ( -0.177213358912758, -3.50000000000000, -25.0000000000000 ) );
#1047 = CARTESIAN_POINT( '', ( -4.41403272096632E-016, -3.50000000000000, -25.0000000000000 ) );
#1048 = COLOUR_RGB( '', 0.505882382400000, 0.529411792800000, 0.549019634700000 );
#1049 = CARTESIAN_POINT( '', ( -2.02072594216383, 3.50000000000000, -24.4585481156729 ) );
#1050 = CARTESIAN_POINT( '', ( -1.70739730499003, 3.50000000000000, -24.6152124342598 ) );
#1051 = CARTESIAN_POINT( '', ( -1.37756559723379, 3.50000000000000, -24.7525313261904 ) );
#1052 = CARTESIAN_POINT( '', ( -0.872491469624604, 3.50000000000000, -24.8965017016525 ) );
#1053 = CARTESIAN_POINT( '', ( -0.701825053455070, 3.50000000000000, -24.9344498466594 ) );
#1054 = CARTESIAN_POINT( '', ( -0.354948639833548, 3.50000000000000, -24.9862302256338 ) );
#1055 = CARTESIAN_POINT( '', ( -0.177213358913642, 3.50000000000000, -25.0000000000000 ) );
#1056 = CARTESIAN_POINT( '', ( 2.18337124757697E-015, 3.50000000000000, -25.0000000000000 ) );
#1057 = CARTESIAN_POINT( '', ( 2.02072594216369, 3.50000000000000, -25.0000000000000 ) );
#1058 = VECTOR( '', #1137, 1000.00000000000 );
#1059 = COLOUR_RGB( '', 0.505882382400000, 0.529411792800000, 0.549019634700000 );
#1060 = COLOUR_RGB( '', 0.505882382400000, 0.529411792800000, 0.549019634700000 );
#1061 = COLOUR_RGB( '', 0.505882382400000, 0.529411792800000, 0.549019634700000 );
#1062 = COLOUR_RGB( '', 0.184313729400000, 0.749019622800000, 0.580392181900000 );
#1063 = DIRECTION( '', ( 0.000000000000000, 0.000000000000000, 1.00000000000000 ) );
#1064 = DIRECTION( '', ( 0.000000000000000, 0.000000000000000, 1.00000000000000 ) );
#1065 = CARTESIAN_POINT( '', ( 0.000000000000000, 0.000000000000000, 0.000000000000000 ) );
#1066 = DIRECTION( '', ( 0.000000000000000, 0.000000000000000, 1.00000000000000 ) );
#1067 = DIRECTION( '', ( 1.00000000000000, 0.000000000000000, 0.000000000000000 ) );
#1068 = CARTESIAN_POINT( '', ( -3.96357740681826E-015, 0.000000000000000, 0.692820323027550 ) );
#1069 = DIRECTION( '', ( -5.38712954453735E-016, 0.000000000000000, -1.00000000000000 ) );
#1070 = DIRECTION( '', ( -1.00000000000000, 0.000000000000000, 5.38712954453735E-016 ) );
#1071 = CARTESIAN_POINT( '', ( -4.12132350816052E-015, 0.000000000000000, 0.400000000000000 ) );
#1072 = DIRECTION( '', ( 0.000000000000000, 0.000000000000000, 1.00000000000000 ) );
#1073 = DIRECTION( '', ( 1.00000000000000, 0.000000000000000, 0.000000000000000 ) );
#1074 = CARTESIAN_POINT( '', ( 0.000000000000000, 0.000000000000000, -25.0000000000000 ) );
#1075 = DIRECTION( '', ( 0.000000000000000, 0.000000000000000, 1.00000000000000 ) );
#1076 = DIRECTION( '', ( 1.00000000000000, 0.000000000000000, 0.000000000000000 ) );
#1077 = CARTESIAN_POINT( '', ( 0.000000000000000, 0.000000000000000, -13.0000000000000 ) );
#1078 = DIRECTION( '', ( 0.000000000000000, 0.000000000000000, 1.00000000000000 ) );
#1079 = DIRECTION( '', ( 0.000000000000000, -1.00000000000000, 0.000000000000000 ) );
#1080 = DIRECTION( '', ( 0.000000000000000, 0.000000000000000, 1.00000000000000 ) );
#1081 = DIRECTION( '', ( 0.000000000000000, 0.000000000000000, 1.00000000000000 ) );
#1082 = CARTESIAN_POINT( '', ( 0.000000000000000, 0.000000000000000, -15.0000000000000 ) );
#1083 = DIRECTION( '', ( 0.000000000000000, 0.000000000000000, -1.00000000000000 ) );
#1084 = DIRECTION( '', ( 0.000000000000000, 1.00000000000000, 0.000000000000000 ) );
#1085 = CARTESIAN_POINT( '', ( 0.000000000000000, 0.000000000000000, -24.7000000000000 ) );
#1086 = DIRECTION( '', ( 0.000000000000000, 0.000000000000000, -1.00000000000000 ) );
#1087 = DIRECTION( '', ( -1.00000000000000, 0.000000000000000, 0.000000000000000 ) );
#1088 = CARTESIAN_POINT( '', ( 0.000000000000000, 0.000000000000000, -25.0000000000000 ) );
#1089 = DIRECTION( '', ( 0.000000000000000, -0.000000000000000, 1.00000000000000 ) );
#1090 = DIRECTION( '', ( 0.000000000000000, 1.00000000000000, 0.000000000000000 ) );
#1091 = CARTESIAN_POINT( '', ( 0.000000000000000, 0.000000000000000, -25.0000000000000 ) );
#1092 = DIRECTION( '', ( 0.000000000000000, 0.000000000000000, 1.00000000000000 ) );
#1093 = DIRECTION( '', ( 1.00000000000000, 0.000000000000000, 0.000000000000000 ) );
#1094 = CARTESIAN_POINT( '', ( 0.000000000000000, 0.000000000000000, -25.0000000000000 ) );
#1095 = DIRECTION( '', ( 0.000000000000000, 0.000000000000000, 1.00000000000000 ) );
#1096 = DIRECTION( '', ( 1.00000000000000, 0.000000000000000, 0.000000000000000 ) );
#1097 = CARTESIAN_POINT( '', ( 0.000000000000000, 0.000000000000000, -25.0000000000000 ) );
#1098 = DIRECTION( '', ( 0.000000000000000, 0.000000000000000, 1.00000000000000 ) );
#1099 = DIRECTION( '', ( 1.00000000000000, 0.000000000000000, 0.000000000000000 ) );
#1100 = CARTESIAN_POINT( '', ( 0.000000000000000, 0.000000000000000, -25.0000000000000 ) );
#1101 = DIRECTION( '', ( 0.000000000000000, 0.000000000000000, 1.00000000000000 ) );
#1102 = DIRECTION( '', ( 1.00000000000000, 0.000000000000000, 0.000000000000000 ) );
#1103 = CARTESIAN_POINT( '', ( 0.000000000000000, 0.000000000000000, -25.0000000000000 ) );
#1104 = DIRECTION( '', ( 0.000000000000000, 0.000000000000000, 1.00000000000000 ) );
#1105 = DIRECTION( '', ( 1.00000000000000, 0.000000000000000, 0.000000000000000 ) );
#1106 = CARTESIAN_POINT( '', ( 0.000000000000000, 0.000000000000000, 0.000000000000000 ) );
#1107 = DIRECTION( '', ( 0.000000000000000, 0.000000000000000, 1.00000000000000 ) );
#1108 = DIRECTION( '', ( 1.00000000000000, 0.000000000000000, 0.000000000000000 ) );
#1109 = CARTESIAN_POINT( '', ( -3.85583481592751E-015, 0.000000000000000, 0.892820323027550 ) );
#1110 = DIRECTION( '', ( 5.38712954453735E-016, 0.000000000000000, 1.00000000000000 ) );
#1111 = DIRECTION( '', ( 1.00000000000000, 0.000000000000000, -5.38712954453735E-016 ) );
#1112 = CARTESIAN_POINT( '', ( 0.000000000000000, 0.000000000000000, 0.000000000000000 ) );
#1113 = DIRECTION( '', ( 0.000000000000000, 0.000000000000000, 1.00000000000000 ) );
#1114 = DIRECTION( '', ( 1.00000000000000, 0.000000000000000, 0.000000000000000 ) );
#1115 = CARTESIAN_POINT( '', ( -3.39264531208386E-015, 0.000000000000000, 1.75262794416288 ) );
#1116 = DIRECTION( '', ( -5.38712954453735E-016, 0.000000000000000, -1.00000000000000 ) );
#1117 = DIRECTION( '', ( -1.00000000000000, 0.000000000000000, 5.38712954453735E-016 ) );
#1118 = CARTESIAN_POINT( '', ( 1.05032085459533E-015, 0.000000000000000, 10.0000000000000 ) );
#1119 = DIRECTION( '', ( -5.38712954453735E-016, 0.000000000000000, -1.00000000000000 ) );
#1120 = DIRECTION( '', ( -1.00000000000000, 0.000000000000000, 5.38712954453735E-016 ) );
#1121 = CARTESIAN_POINT( '', ( 0.000000000000000, 0.000000000000000, 0.000000000000000 ) );
#1122 = DIRECTION( '', ( 0.000000000000000, 0.000000000000000, 1.00000000000000 ) );
#1123 = DIRECTION( '', ( 1.00000000000000, 0.000000000000000, 0.000000000000000 ) );
#1124 = DIRECTION( '', ( 0.000000000000000, 0.000000000000000, 1.00000000000000 ) );
#1125 = CARTESIAN_POINT( '', ( 8.88706968259212E-016, 0.000000000000000, 9.70000000000000 ) );
#1126 = DIRECTION( '', ( -5.38712954453736E-016, 0.000000000000000, -1.00000000000000 ) );
#1127 = DIRECTION( '', ( -1.00000000000000, 0.000000000000000, 5.38712954453736E-016 ) );
#1128 = CARTESIAN_POINT( '', ( -4.12132350816052E-015, 0.000000000000000, 0.000000000000000 ) );
#1129 = DIRECTION( '', ( 0.000000000000000, 0.000000000000000, 1.00000000000000 ) );
#1130 = DIRECTION( '', ( 1.00000000000000, 0.000000000000000, 0.000000000000000 ) );
#1131 = CARTESIAN_POINT( '', ( 0.000000000000000, 0.000000000000000, 0.000000000000000 ) );
#1132 = DIRECTION( '', ( 0.000000000000000, 0.000000000000000, 1.00000000000000 ) );
#1133 = DIRECTION( '', ( 1.00000000000000, 0.000000000000000, 0.000000000000000 ) );
#1134 = CARTESIAN_POINT( '', ( 0.000000000000000, 0.000000000000000, 0.000000000000000 ) );
#1135 = DIRECTION( '', ( 0.000000000000000, 0.000000000000000, 1.00000000000000 ) );
#1136 = DIRECTION( '', ( 1.00000000000000, 0.000000000000000, 0.000000000000000 ) );
#1137 = DIRECTION( '', ( 0.000000000000000, 0.000000000000000, 1.00000000000000 ) );
ENDSEC;
END-ISO-10303-21;
