ISO-10303-21;
HEADER;
FILE_DESCRIPTION(('FreeCAD Model'),'2;1');
FILE_NAME('Open CASCADE Shape Model','2026-08-16T20:30:05',(''),(''),
  'Open CASCADE STEP processor 7.8','FreeCAD','Unknown');
FILE_SCHEMA(('AUTOMOTIVE_DESIGN { 1 0 10303 214 1 1 1 1 }'));
ENDSEC;
DATA;
#1 = APPLICATION_PROTOCOL_DEFINITION('international standard',
  'automotive_design',2000,#2);
#2 = APPLICATION_CONTEXT(
  'core data for automotive mechanical design processes');
#3 = SHAPE_DEFINITION_REPRESENTATION(#4,#10);
#4 = PRODUCT_DEFINITION_SHAPE('','',#5);
#5 = PRODUCT_DEFINITION('design','',#6,#9);
#6 = PRODUCT_DEFINITION_FORMATION('','',#7);
#7 = PRODUCT('HW-C2-BSP-A','HW-C2-BSP-A','',(#8));
#8 = PRODUCT_CONTEXT('',#2,'mechanical');
#9 = PRODUCT_DEFINITION_CONTEXT('part definition',#2,'design');
#10 = ADVANCED_BREP_SHAPE_REPRESENTATION('',(#11,#15),#1592);
#11 = AXIS2_PLACEMENT_3D('',#12,#13,#14);
#12 = CARTESIAN_POINT('',(0.,0.,0.));
#13 = DIRECTION('',(0.,0.,1.));
#14 = DIRECTION('',(1.,0.,-0.));
#15 = MANIFOLD_SOLID_BREP('',#16);
#16 = CLOSED_SHELL('',(#17,#57,#90,#123,#537,#951,#968,#985,#1002,#1019,
    #1031,#1048,#1065,#1082,#1099,#1116,#1133,#1150,#1167,#1184,#1201,
    #1218,#1235,#1252,#1269,#1286,#1303,#1320,#1337,#1354,#1371,#1388,
    #1405,#1422,#1439,#1456,#1473,#1490,#1507,#1524,#1541,#1558,#1575));
#17 = ADVANCED_FACE('',(#18),#52,.T.);
#18 = FACE_BOUND('',#19,.T.);
#19 = EDGE_LOOP('',(#20,#30,#38,#46));
#20 = ORIENTED_EDGE('',*,*,#21,.T.);
#21 = EDGE_CURVE('',#22,#24,#26,.T.);
#22 = VERTEX_POINT('',#23);
#23 = CARTESIAN_POINT('',(306.00000999933,162.500002,0.));
#24 = VERTEX_POINT('',#25);
#25 = CARTESIAN_POINT('',(306.00000999933,162.500002,10.));
#26 = LINE('',#27,#28);
#27 = CARTESIAN_POINT('',(306.00000999933,162.500002,0.));
#28 = VECTOR('',#29,1.);
#29 = DIRECTION('',(0.,0.,1.));
#30 = ORIENTED_EDGE('',*,*,#31,.T.);
#31 = EDGE_CURVE('',#24,#32,#34,.T.);
#32 = VERTEX_POINT('',#33);
#33 = CARTESIAN_POINT('',(306.00000999933,2.499999433879,10.));
#34 = LINE('',#35,#36);
#35 = CARTESIAN_POINT('',(306.00000999933,162.500002,10.));
#36 = VECTOR('',#37,1.);
#37 = DIRECTION('',(0.,-1.,0.));
#38 = ORIENTED_EDGE('',*,*,#39,.F.);
#39 = EDGE_CURVE('',#40,#32,#42,.T.);
#40 = VERTEX_POINT('',#41);
#41 = CARTESIAN_POINT('',(306.00000999933,2.499999433879,0.));
#42 = LINE('',#43,#44);
#43 = CARTESIAN_POINT('',(306.00000999933,2.499999433879,0.));
#44 = VECTOR('',#45,1.);
#45 = DIRECTION('',(0.,0.,1.));
#46 = ORIENTED_EDGE('',*,*,#47,.F.);
#47 = EDGE_CURVE('',#22,#40,#48,.T.);
#48 = LINE('',#49,#50);
#49 = CARTESIAN_POINT('',(306.00000999933,162.500002,0.));
#50 = VECTOR('',#51,1.);
#51 = DIRECTION('',(0.,-1.,0.));
#52 = PLANE('',#53);
#53 = AXIS2_PLACEMENT_3D('',#54,#55,#56);
#54 = CARTESIAN_POINT('',(306.00000999933,162.500002,0.));
#55 = DIRECTION('',(1.,0.,0.));
#56 = DIRECTION('',(0.,-1.,0.));
#57 = ADVANCED_FACE('',(#58),#85,.T.);
#58 = FACE_BOUND('',#59,.F.);
#59 = EDGE_LOOP('',(#60,#61,#70,#78));
#60 = ORIENTED_EDGE('',*,*,#21,.T.);
#61 = ORIENTED_EDGE('',*,*,#62,.T.);
#62 = EDGE_CURVE('',#24,#63,#65,.T.);
#63 = VERTEX_POINT('',#64);
#64 = CARTESIAN_POINT('',(301.00000617131,167.5,10.));
#65 = CIRCLE('',#66,4.999917000759);
#66 = AXIS2_PLACEMENT_3D('',#67,#68,#69);
#67 = CARTESIAN_POINT('',(301.00009299923,162.500083,10.));
#68 = DIRECTION('',(0.,0.,1.));
#69 = DIRECTION('',(1.,0.,0.));
#70 = ORIENTED_EDGE('',*,*,#71,.F.);
#71 = EDGE_CURVE('',#72,#63,#74,.T.);
#72 = VERTEX_POINT('',#73);
#73 = CARTESIAN_POINT('',(301.00000617131,167.5,0.));
#74 = LINE('',#75,#76);
#75 = CARTESIAN_POINT('',(301.00000617131,167.5,0.));
#76 = VECTOR('',#77,1.);
#77 = DIRECTION('',(0.,0.,1.));
#78 = ORIENTED_EDGE('',*,*,#79,.F.);
#79 = EDGE_CURVE('',#22,#72,#80,.T.);
#80 = CIRCLE('',#81,4.999917000759);
#81 = AXIS2_PLACEMENT_3D('',#82,#83,#84);
#82 = CARTESIAN_POINT('',(301.00009299923,162.500083,0.));
#83 = DIRECTION('',(0.,0.,1.));
#84 = DIRECTION('',(1.,0.,0.));
#85 = CYLINDRICAL_SURFACE('',#86,4.999917000759);
#86 = AXIS2_PLACEMENT_3D('',#87,#88,#89);
#87 = CARTESIAN_POINT('',(301.00009299923,162.500083,0.));
#88 = DIRECTION('',(-0.,-0.,-1.));
#89 = DIRECTION('',(1.,0.,0.));
#90 = ADVANCED_FACE('',(#91),#118,.T.);
#91 = FACE_BOUND('',#92,.F.);
#92 = EDGE_LOOP('',(#93,#103,#110,#111));
#93 = ORIENTED_EDGE('',*,*,#94,.T.);
#94 = EDGE_CURVE('',#95,#97,#99,.T.);
#95 = VERTEX_POINT('',#96);
#96 = CARTESIAN_POINT('',(301.00003412646,-2.5,0.));
#97 = VERTEX_POINT('',#98);
#98 = CARTESIAN_POINT('',(301.00003412646,-2.5,10.));
#99 = LINE('',#100,#101);
#100 = CARTESIAN_POINT('',(301.00003412646,-2.5,0.));
#101 = VECTOR('',#102,1.);
#102 = DIRECTION('',(0.,0.,1.));
#103 = ORIENTED_EDGE('',*,*,#104,.T.);
#104 = EDGE_CURVE('',#97,#32,#105,.T.);
#105 = CIRCLE('',#106,4.999611014424);
#106 = AXIS2_PLACEMENT_3D('',#107,#108,#109);
#107 = CARTESIAN_POINT('',(301.000399,2.49961100111,10.));
#108 = DIRECTION('',(0.,0.,1.));
#109 = DIRECTION('',(1.,0.,0.));
#110 = ORIENTED_EDGE('',*,*,#39,.F.);
#111 = ORIENTED_EDGE('',*,*,#112,.F.);
#112 = EDGE_CURVE('',#95,#40,#113,.T.);
#113 = CIRCLE('',#114,4.999611014424);
#114 = AXIS2_PLACEMENT_3D('',#115,#116,#117);
#115 = CARTESIAN_POINT('',(301.000399,2.49961100111,0.));
#116 = DIRECTION('',(0.,0.,1.));
#117 = DIRECTION('',(1.,0.,0.));
#118 = CYLINDRICAL_SURFACE('',#119,4.999611014424);
#119 = AXIS2_PLACEMENT_3D('',#120,#121,#122);
#120 = CARTESIAN_POINT('',(301.000399,2.49961100111,0.));
#121 = DIRECTION('',(-0.,-0.,-1.));
#122 = DIRECTION('',(1.,0.,0.));
#123 = ADVANCED_FACE('',(#124,#169,#180,#191,#202,#213,#224,#235,#246,
    #257,#268,#279,#290,#301,#312,#323,#334,#345,#356,#367,#378,#389,
    #400,#411,#422,#433,#444,#455,#466,#477,#488,#499,#510,#521),#532,
  .F.);
#124 = FACE_BOUND('',#125,.F.);
#125 = EDGE_LOOP('',(#126,#127,#128,#136,#145,#153,#162,#168));
#126 = ORIENTED_EDGE('',*,*,#47,.F.);
#127 = ORIENTED_EDGE('',*,*,#79,.T.);
#128 = ORIENTED_EDGE('',*,*,#129,.F.);
#129 = EDGE_CURVE('',#130,#72,#132,.T.);
#130 = VERTEX_POINT('',#131);
#131 = CARTESIAN_POINT('',(-3.999994,167.5,0.));
#132 = LINE('',#133,#134);
#133 = CARTESIAN_POINT('',(-3.999994,167.5,0.));
#134 = VECTOR('',#135,1.);
#135 = DIRECTION('',(1.,0.,0.));
#136 = ORIENTED_EDGE('',*,*,#137,.T.);
#137 = EDGE_CURVE('',#130,#138,#140,.T.);
#138 = VERTEX_POINT('',#139);
#139 = CARTESIAN_POINT('',(-8.999998,162.50000026796,0.));
#140 = CIRCLE('',#141,5.000008000007);
#141 = AXIS2_PLACEMENT_3D('',#142,#143,#144);
#142 = CARTESIAN_POINT('',(-3.99999,162.499992,0.));
#143 = DIRECTION('',(0.,0.,1.));
#144 = DIRECTION('',(1.,0.,0.));
#145 = ORIENTED_EDGE('',*,*,#146,.T.);
#146 = EDGE_CURVE('',#138,#147,#149,.T.);
#147 = VERTEX_POINT('',#148);
#148 = CARTESIAN_POINT('',(-8.999998,2.499999,0.));
#149 = LINE('',#150,#151);
#150 = CARTESIAN_POINT('',(-8.999998,162.50000026796,0.));
#151 = VECTOR('',#152,1.);
#152 = DIRECTION('',(0.,-1.,0.));
#153 = ORIENTED_EDGE('',*,*,#154,.T.);
#154 = EDGE_CURVE('',#147,#155,#157,.T.);
#155 = VERTEX_POINT('',#156);
#156 = CARTESIAN_POINT('',(-3.999996901923,-2.5,0.));
#157 = CIRCLE('',#158,5.000001);
#158 = AXIS2_PLACEMENT_3D('',#159,#160,#161);
#159 = CARTESIAN_POINT('',(-3.999997,2.500001,0.));
#160 = DIRECTION('',(0.,0.,1.));
#161 = DIRECTION('',(1.,0.,0.));
#162 = ORIENTED_EDGE('',*,*,#163,.F.);
#163 = EDGE_CURVE('',#95,#155,#164,.T.);
#164 = LINE('',#165,#166);
#165 = CARTESIAN_POINT('',(301.00003412646,-2.5,0.));
#166 = VECTOR('',#167,1.);
#167 = DIRECTION('',(-1.,0.,0.));
#168 = ORIENTED_EDGE('',*,*,#112,.T.);
#169 = FACE_BOUND('',#170,.F.);
#170 = EDGE_LOOP('',(#171));
#171 = ORIENTED_EDGE('',*,*,#172,.F.);
#172 = EDGE_CURVE('',#173,#173,#175,.T.);
#173 = VERTEX_POINT('',#174);
#174 = CARTESIAN_POINT('',(7.500005,5.000002,0.));
#175 = CIRCLE('',#176,4.);
#176 = AXIS2_PLACEMENT_3D('',#177,#178,#179);
#177 = CARTESIAN_POINT('',(3.500005,5.000002,0.));
#178 = DIRECTION('',(0.,0.,1.));
#179 = DIRECTION('',(1.,0.,0.));
#180 = FACE_BOUND('',#181,.F.);
#181 = EDGE_LOOP('',(#182));
#182 = ORIENTED_EDGE('',*,*,#183,.T.);
#183 = EDGE_CURVE('',#184,#184,#186,.T.);
#184 = VERTEX_POINT('',#185);
#185 = CARTESIAN_POINT('',(43.500001,13.5,0.));
#186 = CIRCLE('',#187,2.5);
#187 = AXIS2_PLACEMENT_3D('',#188,#189,#190);
#188 = CARTESIAN_POINT('',(46.000001,13.5,0.));
#189 = DIRECTION('',(0.,0.,-1.));
#190 = DIRECTION('',(-1.,0.,0.));
#191 = FACE_BOUND('',#192,.F.);
#192 = EDGE_LOOP('',(#193));
#193 = ORIENTED_EDGE('',*,*,#194,.T.);
#194 = EDGE_CURVE('',#195,#195,#197,.T.);
#195 = VERTEX_POINT('',#196);
#196 = CARTESIAN_POINT('',(22.5,22.,0.));
#197 = CIRCLE('',#198,2.5);
#198 = AXIS2_PLACEMENT_3D('',#199,#200,#201);
#199 = CARTESIAN_POINT('',(25.,22.,0.));
#200 = DIRECTION('',(0.,0.,-1.));
#201 = DIRECTION('',(-1.,0.,0.));
#202 = FACE_BOUND('',#203,.F.);
#203 = EDGE_LOOP('',(#204));
#204 = ORIENTED_EDGE('',*,*,#205,.T.);
#205 = EDGE_CURVE('',#206,#206,#208,.T.);
#206 = VERTEX_POINT('',#207);
#207 = CARTESIAN_POINT('',(91.500001,13.5,0.));
#208 = CIRCLE('',#209,2.5);
#209 = AXIS2_PLACEMENT_3D('',#210,#211,#212);
#210 = CARTESIAN_POINT('',(94.000001,13.5,0.));
#211 = DIRECTION('',(0.,0.,-1.));
#212 = DIRECTION('',(-1.,0.,0.));
#213 = FACE_BOUND('',#214,.F.);
#214 = EDGE_LOOP('',(#215));
#215 = ORIENTED_EDGE('',*,*,#216,.T.);
#216 = EDGE_CURVE('',#217,#217,#219,.T.);
#217 = VERTEX_POINT('',#218);
#218 = CARTESIAN_POINT('',(133.500001,13.5,0.));
#219 = CIRCLE('',#220,2.5);
#220 = AXIS2_PLACEMENT_3D('',#221,#222,#223);
#221 = CARTESIAN_POINT('',(136.000001,13.5,0.));
#222 = DIRECTION('',(0.,0.,-1.));
#223 = DIRECTION('',(-1.,0.,0.));
#224 = FACE_BOUND('',#225,.F.);
#225 = EDGE_LOOP('',(#226));
#226 = ORIENTED_EDGE('',*,*,#227,.T.);
#227 = EDGE_CURVE('',#228,#228,#230,.T.);
#228 = VERTEX_POINT('',#229);
#229 = CARTESIAN_POINT('',(112.5,22.,0.));
#230 = CIRCLE('',#231,2.5);
#231 = AXIS2_PLACEMENT_3D('',#232,#233,#234);
#232 = CARTESIAN_POINT('',(115.,22.,0.));
#233 = DIRECTION('',(0.,0.,-1.));
#234 = DIRECTION('',(-1.,0.,0.));
#235 = FACE_BOUND('',#236,.F.);
#236 = EDGE_LOOP('',(#237));
#237 = ORIENTED_EDGE('',*,*,#238,.T.);
#238 = EDGE_CURVE('',#239,#239,#241,.T.);
#239 = VERTEX_POINT('',#240);
#240 = CARTESIAN_POINT('',(30.5,60.,0.));
#241 = CIRCLE('',#242,2.5);
#242 = AXIS2_PLACEMENT_3D('',#243,#244,#245);
#243 = CARTESIAN_POINT('',(33.,60.,0.));
#244 = DIRECTION('',(0.,0.,-1.));
#245 = DIRECTION('',(-1.,0.,0.));
#246 = FACE_BOUND('',#247,.F.);
#247 = EDGE_LOOP('',(#248));
#248 = ORIENTED_EDGE('',*,*,#249,.T.);
#249 = EDGE_CURVE('',#250,#250,#252,.T.);
#250 = VERTEX_POINT('',#251);
#251 = CARTESIAN_POINT('',(120.5,60.,0.));
#252 = CIRCLE('',#253,2.5);
#253 = AXIS2_PLACEMENT_3D('',#254,#255,#256);
#254 = CARTESIAN_POINT('',(123.,60.,0.));
#255 = DIRECTION('',(0.,0.,-1.));
#256 = DIRECTION('',(-1.,0.,0.));
#257 = FACE_BOUND('',#258,.F.);
#258 = EDGE_LOOP('',(#259));
#259 = ORIENTED_EDGE('',*,*,#260,.T.);
#260 = EDGE_CURVE('',#261,#261,#263,.T.);
#261 = VERTEX_POINT('',#262);
#262 = CARTESIAN_POINT('',(181.500001,13.5,0.));
#263 = CIRCLE('',#264,2.5);
#264 = AXIS2_PLACEMENT_3D('',#265,#266,#267);
#265 = CARTESIAN_POINT('',(184.000001,13.5,0.));
#266 = DIRECTION('',(0.,0.,-1.));
#267 = DIRECTION('',(-1.,0.,0.));
#268 = FACE_BOUND('',#269,.F.);
#269 = EDGE_LOOP('',(#270));
#270 = ORIENTED_EDGE('',*,*,#271,.T.);
#271 = EDGE_CURVE('',#272,#272,#274,.T.);
#272 = VERTEX_POINT('',#273);
#273 = CARTESIAN_POINT('',(202.5,22.,0.));
#274 = CIRCLE('',#275,2.5);
#275 = AXIS2_PLACEMENT_3D('',#276,#277,#278);
#276 = CARTESIAN_POINT('',(205.,22.,0.));
#277 = DIRECTION('',(0.,0.,-1.));
#278 = DIRECTION('',(-1.,0.,0.));
#279 = FACE_BOUND('',#280,.F.);
#280 = EDGE_LOOP('',(#281));
#281 = ORIENTED_EDGE('',*,*,#282,.T.);
#282 = EDGE_CURVE('',#283,#283,#285,.T.);
#283 = VERTEX_POINT('',#284);
#284 = CARTESIAN_POINT('',(223.500001,13.5,0.));
#285 = CIRCLE('',#286,2.5);
#286 = AXIS2_PLACEMENT_3D('',#287,#288,#289);
#287 = CARTESIAN_POINT('',(226.000001,13.5,0.));
#288 = DIRECTION('',(0.,0.,-1.));
#289 = DIRECTION('',(-1.,0.,0.));
#290 = FACE_BOUND('',#291,.F.);
#291 = EDGE_LOOP('',(#292));
#292 = ORIENTED_EDGE('',*,*,#293,.F.);
#293 = EDGE_CURVE('',#294,#294,#296,.T.);
#294 = VERTEX_POINT('',#295);
#295 = CARTESIAN_POINT('',(297.500005,5.000002,0.));
#296 = CIRCLE('',#297,4.);
#297 = AXIS2_PLACEMENT_3D('',#298,#299,#300);
#298 = CARTESIAN_POINT('',(293.500005,5.000002,0.));
#299 = DIRECTION('',(0.,0.,1.));
#300 = DIRECTION('',(1.,0.,0.));
#301 = FACE_BOUND('',#302,.F.);
#302 = EDGE_LOOP('',(#303));
#303 = ORIENTED_EDGE('',*,*,#304,.T.);
#304 = EDGE_CURVE('',#305,#305,#307,.T.);
#305 = VERTEX_POINT('',#306);
#306 = CARTESIAN_POINT('',(271.500001,13.5,0.));
#307 = CIRCLE('',#308,2.5);
#308 = AXIS2_PLACEMENT_3D('',#309,#310,#311);
#309 = CARTESIAN_POINT('',(274.000001,13.5,0.));
#310 = DIRECTION('',(0.,0.,-1.));
#311 = DIRECTION('',(-1.,0.,0.));
#312 = FACE_BOUND('',#313,.F.);
#313 = EDGE_LOOP('',(#314));
#314 = ORIENTED_EDGE('',*,*,#315,.T.);
#315 = EDGE_CURVE('',#316,#316,#318,.T.);
#316 = VERTEX_POINT('',#317);
#317 = CARTESIAN_POINT('',(210.5,60.,0.));
#318 = CIRCLE('',#319,2.5);
#319 = AXIS2_PLACEMENT_3D('',#320,#321,#322);
#320 = CARTESIAN_POINT('',(213.,60.,0.));
#321 = DIRECTION('',(0.,0.,-1.));
#322 = DIRECTION('',(-1.,0.,0.));
#323 = FACE_BOUND('',#324,.F.);
#324 = EDGE_LOOP('',(#325));
#325 = ORIENTED_EDGE('',*,*,#326,.T.);
#326 = EDGE_CURVE('',#327,#327,#329,.T.);
#327 = VERTEX_POINT('',#328);
#328 = CARTESIAN_POINT('',(12.5,106.,0.));
#329 = CIRCLE('',#330,2.5);
#330 = AXIS2_PLACEMENT_3D('',#331,#332,#333);
#331 = CARTESIAN_POINT('',(15.,106.,0.));
#332 = DIRECTION('',(0.,0.,-1.));
#333 = DIRECTION('',(-1.,0.,0.));
#334 = FACE_BOUND('',#335,.F.);
#335 = EDGE_LOOP('',(#336));
#336 = ORIENTED_EDGE('',*,*,#337,.T.);
#337 = EDGE_CURVE('',#338,#338,#340,.T.);
#338 = VERTEX_POINT('',#339);
#339 = CARTESIAN_POINT('',(22.4,120.5,0.));
#340 = CIRCLE('',#341,2.1);
#341 = AXIS2_PLACEMENT_3D('',#342,#343,#344);
#342 = CARTESIAN_POINT('',(24.5,120.5,0.));
#343 = DIRECTION('',(0.,0.,-1.));
#344 = DIRECTION('',(-1.,0.,0.));
#345 = FACE_BOUND('',#346,.F.);
#346 = EDGE_LOOP('',(#347));
#347 = ORIENTED_EDGE('',*,*,#348,.T.);
#348 = EDGE_CURVE('',#349,#349,#351,.T.);
#349 = VERTEX_POINT('',#350);
#350 = CARTESIAN_POINT('',(43.500001,106.500002,0.));
#351 = CIRCLE('',#352,2.5);
#352 = AXIS2_PLACEMENT_3D('',#353,#354,#355);
#353 = CARTESIAN_POINT('',(46.000001,106.500002,0.));
#354 = DIRECTION('',(0.,0.,-1.));
#355 = DIRECTION('',(-1.,0.,0.));
#356 = FACE_BOUND('',#357,.F.);
#357 = EDGE_LOOP('',(#358));
#358 = ORIENTED_EDGE('',*,*,#359,.T.);
#359 = EDGE_CURVE('',#360,#360,#362,.T.);
#360 = VERTEX_POINT('',#361);
#361 = CARTESIAN_POINT('',(91.500001,106.500002,0.));
#362 = CIRCLE('',#363,2.5);
#363 = AXIS2_PLACEMENT_3D('',#364,#365,#366);
#364 = CARTESIAN_POINT('',(94.000001,106.500002,0.));
#365 = DIRECTION('',(0.,0.,-1.));
#366 = DIRECTION('',(-1.,0.,0.));
#367 = FACE_BOUND('',#368,.F.);
#368 = EDGE_LOOP('',(#369));
#369 = ORIENTED_EDGE('',*,*,#370,.T.);
#370 = EDGE_CURVE('',#371,#371,#373,.T.);
#371 = VERTEX_POINT('',#372);
#372 = CARTESIAN_POINT('',(96.9,120.5,0.));
#373 = CIRCLE('',#374,2.1);
#374 = AXIS2_PLACEMENT_3D('',#375,#376,#377);
#375 = CARTESIAN_POINT('',(99.,120.5,0.));
#376 = DIRECTION('',(0.,0.,-1.));
#377 = DIRECTION('',(-1.,0.,0.));
#378 = FACE_BOUND('',#379,.F.);
#379 = EDGE_LOOP('',(#380));
#380 = ORIENTED_EDGE('',*,*,#381,.T.);
#381 = EDGE_CURVE('',#382,#382,#384,.T.);
#382 = VERTEX_POINT('',#383);
#383 = CARTESIAN_POINT('',(112.5,106.,0.));
#384 = CIRCLE('',#385,2.5);
#385 = AXIS2_PLACEMENT_3D('',#386,#387,#388);
#386 = CARTESIAN_POINT('',(115.,106.,0.));
#387 = DIRECTION('',(0.,0.,-1.));
#388 = DIRECTION('',(-1.,0.,0.));
#389 = FACE_BOUND('',#390,.F.);
#390 = EDGE_LOOP('',(#391));
#391 = ORIENTED_EDGE('',*,*,#392,.T.);
#392 = EDGE_CURVE('',#393,#393,#395,.T.);
#393 = VERTEX_POINT('',#394);
#394 = CARTESIAN_POINT('',(133.500001,106.500002,0.));
#395 = CIRCLE('',#396,2.5);
#396 = AXIS2_PLACEMENT_3D('',#397,#398,#399);
#397 = CARTESIAN_POINT('',(136.000001,106.500002,0.));
#398 = DIRECTION('',(0.,0.,-1.));
#399 = DIRECTION('',(-1.,0.,0.));
#400 = FACE_BOUND('',#401,.F.);
#401 = EDGE_LOOP('',(#402));
#402 = ORIENTED_EDGE('',*,*,#403,.F.);
#403 = EDGE_CURVE('',#404,#404,#406,.T.);
#404 = VERTEX_POINT('',#405);
#405 = CARTESIAN_POINT('',(7.500005,160.000002,0.));
#406 = CIRCLE('',#407,4.);
#407 = AXIS2_PLACEMENT_3D('',#408,#409,#410);
#408 = CARTESIAN_POINT('',(3.500005,160.000002,0.));
#409 = DIRECTION('',(0.,0.,1.));
#410 = DIRECTION('',(1.,0.,0.));
#411 = FACE_BOUND('',#412,.F.);
#412 = EDGE_LOOP('',(#413));
#413 = ORIENTED_EDGE('',*,*,#414,.T.);
#414 = EDGE_CURVE('',#415,#415,#417,.T.);
#415 = VERTEX_POINT('',#416);
#416 = CARTESIAN_POINT('',(22.4,154.5,0.));
#417 = CIRCLE('',#418,2.1);
#418 = AXIS2_PLACEMENT_3D('',#419,#420,#421);
#419 = CARTESIAN_POINT('',(24.5,154.5,0.));
#420 = DIRECTION('',(0.,0.,-1.));
#421 = DIRECTION('',(-1.,0.,0.));
#422 = FACE_BOUND('',#423,.F.);
#423 = EDGE_LOOP('',(#424));
#424 = ORIENTED_EDGE('',*,*,#425,.T.);
#425 = EDGE_CURVE('',#426,#426,#428,.T.);
#426 = VERTEX_POINT('',#427);
#427 = CARTESIAN_POINT('',(96.9,154.5,0.));
#428 = CIRCLE('',#429,2.1);
#429 = AXIS2_PLACEMENT_3D('',#430,#431,#432);
#430 = CARTESIAN_POINT('',(99.,154.5,0.));
#431 = DIRECTION('',(0.,0.,-1.));
#432 = DIRECTION('',(-1.,0.,0.));
#433 = FACE_BOUND('',#434,.F.);
#434 = EDGE_LOOP('',(#435));
#435 = ORIENTED_EDGE('',*,*,#436,.T.);
#436 = EDGE_CURVE('',#437,#437,#439,.T.);
#437 = VERTEX_POINT('',#438);
#438 = CARTESIAN_POINT('',(181.500001,106.500002,0.));
#439 = CIRCLE('',#440,2.5);
#440 = AXIS2_PLACEMENT_3D('',#441,#442,#443);
#441 = CARTESIAN_POINT('',(184.000001,106.500002,0.));
#442 = DIRECTION('',(0.,0.,-1.));
#443 = DIRECTION('',(-1.,0.,0.));
#444 = FACE_BOUND('',#445,.F.);
#445 = EDGE_LOOP('',(#446));
#446 = ORIENTED_EDGE('',*,*,#447,.T.);
#447 = EDGE_CURVE('',#448,#448,#450,.T.);
#448 = VERTEX_POINT('',#449);
#449 = CARTESIAN_POINT('',(191.9,120.5,0.));
#450 = CIRCLE('',#451,2.1);
#451 = AXIS2_PLACEMENT_3D('',#452,#453,#454);
#452 = CARTESIAN_POINT('',(194.,120.5,0.));
#453 = DIRECTION('',(0.,0.,-1.));
#454 = DIRECTION('',(-1.,0.,0.));
#455 = FACE_BOUND('',#456,.F.);
#456 = EDGE_LOOP('',(#457));
#457 = ORIENTED_EDGE('',*,*,#458,.T.);
#458 = EDGE_CURVE('',#459,#459,#461,.T.);
#459 = VERTEX_POINT('',#460);
#460 = CARTESIAN_POINT('',(223.500001,106.500002,0.));
#461 = CIRCLE('',#462,2.5);
#462 = AXIS2_PLACEMENT_3D('',#463,#464,#465);
#463 = CARTESIAN_POINT('',(226.000001,106.500002,0.));
#464 = DIRECTION('',(0.,0.,-1.));
#465 = DIRECTION('',(-1.,0.,0.));
#466 = FACE_BOUND('',#467,.F.);
#467 = EDGE_LOOP('',(#468));
#468 = ORIENTED_EDGE('',*,*,#469,.T.);
#469 = EDGE_CURVE('',#470,#470,#472,.T.);
#470 = VERTEX_POINT('',#471);
#471 = CARTESIAN_POINT('',(271.500001,106.500002,0.));
#472 = CIRCLE('',#473,2.5);
#473 = AXIS2_PLACEMENT_3D('',#474,#475,#476);
#474 = CARTESIAN_POINT('',(274.000001,106.500002,0.));
#475 = DIRECTION('',(0.,0.,-1.));
#476 = DIRECTION('',(-1.,0.,0.));
#477 = FACE_BOUND('',#478,.F.);
#478 = EDGE_LOOP('',(#479));
#479 = ORIENTED_EDGE('',*,*,#480,.T.);
#480 = EDGE_CURVE('',#481,#481,#483,.T.);
#481 = VERTEX_POINT('',#482);
#482 = CARTESIAN_POINT('',(291.5,106.,0.));
#483 = CIRCLE('',#484,2.5);
#484 = AXIS2_PLACEMENT_3D('',#485,#486,#487);
#485 = CARTESIAN_POINT('',(294.,106.,0.));
#486 = DIRECTION('',(0.,0.,-1.));
#487 = DIRECTION('',(-1.,0.,0.));
#488 = FACE_BOUND('',#489,.F.);
#489 = EDGE_LOOP('',(#490));
#490 = ORIENTED_EDGE('',*,*,#491,.T.);
#491 = EDGE_CURVE('',#492,#492,#494,.T.);
#492 = VERTEX_POINT('',#493);
#493 = CARTESIAN_POINT('',(271.4,120.5,0.));
#494 = CIRCLE('',#495,2.1);
#495 = AXIS2_PLACEMENT_3D('',#496,#497,#498);
#496 = CARTESIAN_POINT('',(273.5,120.5,0.));
#497 = DIRECTION('',(0.,0.,-1.));
#498 = DIRECTION('',(-1.,0.,0.));
#499 = FACE_BOUND('',#500,.F.);
#500 = EDGE_LOOP('',(#501));
#501 = ORIENTED_EDGE('',*,*,#502,.T.);
#502 = EDGE_CURVE('',#503,#503,#505,.T.);
#503 = VERTEX_POINT('',#504);
#504 = CARTESIAN_POINT('',(191.9,154.5,0.));
#505 = CIRCLE('',#506,2.1);
#506 = AXIS2_PLACEMENT_3D('',#507,#508,#509);
#507 = CARTESIAN_POINT('',(194.,154.5,0.));
#508 = DIRECTION('',(0.,0.,-1.));
#509 = DIRECTION('',(-1.,0.,0.));
#510 = FACE_BOUND('',#511,.F.);
#511 = EDGE_LOOP('',(#512));
#512 = ORIENTED_EDGE('',*,*,#513,.T.);
#513 = EDGE_CURVE('',#514,#514,#516,.T.);
#514 = VERTEX_POINT('',#515);
#515 = CARTESIAN_POINT('',(271.4,154.5,0.));
#516 = CIRCLE('',#517,2.1);
#517 = AXIS2_PLACEMENT_3D('',#518,#519,#520);
#518 = CARTESIAN_POINT('',(273.5,154.5,0.));
#519 = DIRECTION('',(0.,0.,-1.));
#520 = DIRECTION('',(-1.,0.,0.));
#521 = FACE_BOUND('',#522,.F.);
#522 = EDGE_LOOP('',(#523));
#523 = ORIENTED_EDGE('',*,*,#524,.F.);
#524 = EDGE_CURVE('',#525,#525,#527,.T.);
#525 = VERTEX_POINT('',#526);
#526 = CARTESIAN_POINT('',(297.500005,160.000002,0.));
#527 = CIRCLE('',#528,4.);
#528 = AXIS2_PLACEMENT_3D('',#529,#530,#531);
#529 = CARTESIAN_POINT('',(293.500005,160.000002,0.));
#530 = DIRECTION('',(0.,0.,1.));
#531 = DIRECTION('',(1.,0.,0.));
#532 = PLANE('',#533);
#533 = AXIS2_PLACEMENT_3D('',#534,#535,#536);
#534 = CARTESIAN_POINT('',(148.50003632889,82.499989212142,0.));
#535 = DIRECTION('',(0.,0.,1.));
#536 = DIRECTION('',(1.,0.,0.));
#537 = ADVANCED_FACE('',(#538,#583,#594,#605,#616,#627,#638,#649,#660,
    #671,#682,#693,#704,#715,#726,#737,#748,#759,#770,#781,#792,#803,
    #814,#825,#836,#847,#858,#869,#880,#891,#902,#913,#924,#935),#946,
  .T.);
#538 = FACE_BOUND('',#539,.T.);
#539 = EDGE_LOOP('',(#540,#541,#542,#550,#559,#567,#576,#582));
#540 = ORIENTED_EDGE('',*,*,#31,.F.);
#541 = ORIENTED_EDGE('',*,*,#62,.T.);
#542 = ORIENTED_EDGE('',*,*,#543,.F.);
#543 = EDGE_CURVE('',#544,#63,#546,.T.);
#544 = VERTEX_POINT('',#545);
#545 = CARTESIAN_POINT('',(-3.999994,167.5,10.));
#546 = LINE('',#547,#548);
#547 = CARTESIAN_POINT('',(-3.999994,167.5,10.));
#548 = VECTOR('',#549,1.);
#549 = DIRECTION('',(1.,0.,0.));
#550 = ORIENTED_EDGE('',*,*,#551,.T.);
#551 = EDGE_CURVE('',#544,#552,#554,.T.);
#552 = VERTEX_POINT('',#553);
#553 = CARTESIAN_POINT('',(-8.999998,162.50000026796,10.));
#554 = CIRCLE('',#555,5.000008000007);
#555 = AXIS2_PLACEMENT_3D('',#556,#557,#558);
#556 = CARTESIAN_POINT('',(-3.99999,162.499992,10.));
#557 = DIRECTION('',(0.,0.,1.));
#558 = DIRECTION('',(1.,0.,0.));
#559 = ORIENTED_EDGE('',*,*,#560,.T.);
#560 = EDGE_CURVE('',#552,#561,#563,.T.);
#561 = VERTEX_POINT('',#562);
#562 = CARTESIAN_POINT('',(-8.999998,2.499999,10.));
#563 = LINE('',#564,#565);
#564 = CARTESIAN_POINT('',(-8.999998,162.50000026796,10.));
#565 = VECTOR('',#566,1.);
#566 = DIRECTION('',(0.,-1.,0.));
#567 = ORIENTED_EDGE('',*,*,#568,.T.);
#568 = EDGE_CURVE('',#561,#569,#571,.T.);
#569 = VERTEX_POINT('',#570);
#570 = CARTESIAN_POINT('',(-3.999996901923,-2.5,10.));
#571 = CIRCLE('',#572,5.000001);
#572 = AXIS2_PLACEMENT_3D('',#573,#574,#575);
#573 = CARTESIAN_POINT('',(-3.999997,2.500001,10.));
#574 = DIRECTION('',(0.,0.,1.));
#575 = DIRECTION('',(1.,0.,0.));
#576 = ORIENTED_EDGE('',*,*,#577,.F.);
#577 = EDGE_CURVE('',#97,#569,#578,.T.);
#578 = LINE('',#579,#580);
#579 = CARTESIAN_POINT('',(301.00003412646,-2.5,10.));
#580 = VECTOR('',#581,1.);
#581 = DIRECTION('',(-1.,0.,0.));
#582 = ORIENTED_EDGE('',*,*,#104,.T.);
#583 = FACE_BOUND('',#584,.T.);
#584 = EDGE_LOOP('',(#585));
#585 = ORIENTED_EDGE('',*,*,#586,.T.);
#586 = EDGE_CURVE('',#587,#587,#589,.T.);
#587 = VERTEX_POINT('',#588);
#588 = CARTESIAN_POINT('',(7.500005,5.000002,10.));
#589 = CIRCLE('',#590,4.);
#590 = AXIS2_PLACEMENT_3D('',#591,#592,#593);
#591 = CARTESIAN_POINT('',(3.500005,5.000002,10.));
#592 = DIRECTION('',(0.,0.,-1.));
#593 = DIRECTION('',(1.,0.,0.));
#594 = FACE_BOUND('',#595,.T.);
#595 = EDGE_LOOP('',(#596));
#596 = ORIENTED_EDGE('',*,*,#597,.F.);
#597 = EDGE_CURVE('',#598,#598,#600,.T.);
#598 = VERTEX_POINT('',#599);
#599 = CARTESIAN_POINT('',(43.500001,13.5,10.));
#600 = CIRCLE('',#601,2.5);
#601 = AXIS2_PLACEMENT_3D('',#602,#603,#604);
#602 = CARTESIAN_POINT('',(46.000001,13.5,10.));
#603 = DIRECTION('',(0.,0.,1.));
#604 = DIRECTION('',(-1.,0.,0.));
#605 = FACE_BOUND('',#606,.T.);
#606 = EDGE_LOOP('',(#607));
#607 = ORIENTED_EDGE('',*,*,#608,.F.);
#608 = EDGE_CURVE('',#609,#609,#611,.T.);
#609 = VERTEX_POINT('',#610);
#610 = CARTESIAN_POINT('',(22.5,22.,10.));
#611 = CIRCLE('',#612,2.5);
#612 = AXIS2_PLACEMENT_3D('',#613,#614,#615);
#613 = CARTESIAN_POINT('',(25.,22.,10.));
#614 = DIRECTION('',(0.,0.,1.));
#615 = DIRECTION('',(-1.,0.,0.));
#616 = FACE_BOUND('',#617,.T.);
#617 = EDGE_LOOP('',(#618));
#618 = ORIENTED_EDGE('',*,*,#619,.F.);
#619 = EDGE_CURVE('',#620,#620,#622,.T.);
#620 = VERTEX_POINT('',#621);
#621 = CARTESIAN_POINT('',(91.500001,13.5,10.));
#622 = CIRCLE('',#623,2.5);
#623 = AXIS2_PLACEMENT_3D('',#624,#625,#626);
#624 = CARTESIAN_POINT('',(94.000001,13.5,10.));
#625 = DIRECTION('',(0.,0.,1.));
#626 = DIRECTION('',(-1.,0.,0.));
#627 = FACE_BOUND('',#628,.T.);
#628 = EDGE_LOOP('',(#629));
#629 = ORIENTED_EDGE('',*,*,#630,.F.);
#630 = EDGE_CURVE('',#631,#631,#633,.T.);
#631 = VERTEX_POINT('',#632);
#632 = CARTESIAN_POINT('',(133.500001,13.5,10.));
#633 = CIRCLE('',#634,2.5);
#634 = AXIS2_PLACEMENT_3D('',#635,#636,#637);
#635 = CARTESIAN_POINT('',(136.000001,13.5,10.));
#636 = DIRECTION('',(0.,0.,1.));
#637 = DIRECTION('',(-1.,0.,0.));
#638 = FACE_BOUND('',#639,.T.);
#639 = EDGE_LOOP('',(#640));
#640 = ORIENTED_EDGE('',*,*,#641,.F.);
#641 = EDGE_CURVE('',#642,#642,#644,.T.);
#642 = VERTEX_POINT('',#643);
#643 = CARTESIAN_POINT('',(112.5,22.,10.));
#644 = CIRCLE('',#645,2.5);
#645 = AXIS2_PLACEMENT_3D('',#646,#647,#648);
#646 = CARTESIAN_POINT('',(115.,22.,10.));
#647 = DIRECTION('',(0.,0.,1.));
#648 = DIRECTION('',(-1.,0.,0.));
#649 = FACE_BOUND('',#650,.T.);
#650 = EDGE_LOOP('',(#651));
#651 = ORIENTED_EDGE('',*,*,#652,.F.);
#652 = EDGE_CURVE('',#653,#653,#655,.T.);
#653 = VERTEX_POINT('',#654);
#654 = CARTESIAN_POINT('',(30.5,60.,10.));
#655 = CIRCLE('',#656,2.5);
#656 = AXIS2_PLACEMENT_3D('',#657,#658,#659);
#657 = CARTESIAN_POINT('',(33.,60.,10.));
#658 = DIRECTION('',(0.,0.,1.));
#659 = DIRECTION('',(-1.,0.,0.));
#660 = FACE_BOUND('',#661,.T.);
#661 = EDGE_LOOP('',(#662));
#662 = ORIENTED_EDGE('',*,*,#663,.F.);
#663 = EDGE_CURVE('',#664,#664,#666,.T.);
#664 = VERTEX_POINT('',#665);
#665 = CARTESIAN_POINT('',(120.5,60.,10.));
#666 = CIRCLE('',#667,2.5);
#667 = AXIS2_PLACEMENT_3D('',#668,#669,#670);
#668 = CARTESIAN_POINT('',(123.,60.,10.));
#669 = DIRECTION('',(0.,0.,1.));
#670 = DIRECTION('',(-1.,0.,0.));
#671 = FACE_BOUND('',#672,.T.);
#672 = EDGE_LOOP('',(#673));
#673 = ORIENTED_EDGE('',*,*,#674,.F.);
#674 = EDGE_CURVE('',#675,#675,#677,.T.);
#675 = VERTEX_POINT('',#676);
#676 = CARTESIAN_POINT('',(181.500001,13.5,10.));
#677 = CIRCLE('',#678,2.5);
#678 = AXIS2_PLACEMENT_3D('',#679,#680,#681);
#679 = CARTESIAN_POINT('',(184.000001,13.5,10.));
#680 = DIRECTION('',(0.,0.,1.));
#681 = DIRECTION('',(-1.,0.,0.));
#682 = FACE_BOUND('',#683,.T.);
#683 = EDGE_LOOP('',(#684));
#684 = ORIENTED_EDGE('',*,*,#685,.F.);
#685 = EDGE_CURVE('',#686,#686,#688,.T.);
#686 = VERTEX_POINT('',#687);
#687 = CARTESIAN_POINT('',(202.5,22.,10.));
#688 = CIRCLE('',#689,2.5);
#689 = AXIS2_PLACEMENT_3D('',#690,#691,#692);
#690 = CARTESIAN_POINT('',(205.,22.,10.));
#691 = DIRECTION('',(0.,0.,1.));
#692 = DIRECTION('',(-1.,0.,0.));
#693 = FACE_BOUND('',#694,.T.);
#694 = EDGE_LOOP('',(#695));
#695 = ORIENTED_EDGE('',*,*,#696,.F.);
#696 = EDGE_CURVE('',#697,#697,#699,.T.);
#697 = VERTEX_POINT('',#698);
#698 = CARTESIAN_POINT('',(223.500001,13.5,10.));
#699 = CIRCLE('',#700,2.5);
#700 = AXIS2_PLACEMENT_3D('',#701,#702,#703);
#701 = CARTESIAN_POINT('',(226.000001,13.5,10.));
#702 = DIRECTION('',(0.,0.,1.));
#703 = DIRECTION('',(-1.,0.,0.));
#704 = FACE_BOUND('',#705,.T.);
#705 = EDGE_LOOP('',(#706));
#706 = ORIENTED_EDGE('',*,*,#707,.T.);
#707 = EDGE_CURVE('',#708,#708,#710,.T.);
#708 = VERTEX_POINT('',#709);
#709 = CARTESIAN_POINT('',(297.500005,5.000002,10.));
#710 = CIRCLE('',#711,4.);
#711 = AXIS2_PLACEMENT_3D('',#712,#713,#714);
#712 = CARTESIAN_POINT('',(293.500005,5.000002,10.));
#713 = DIRECTION('',(0.,0.,-1.));
#714 = DIRECTION('',(1.,0.,0.));
#715 = FACE_BOUND('',#716,.T.);
#716 = EDGE_LOOP('',(#717));
#717 = ORIENTED_EDGE('',*,*,#718,.F.);
#718 = EDGE_CURVE('',#719,#719,#721,.T.);
#719 = VERTEX_POINT('',#720);
#720 = CARTESIAN_POINT('',(271.500001,13.5,10.));
#721 = CIRCLE('',#722,2.5);
#722 = AXIS2_PLACEMENT_3D('',#723,#724,#725);
#723 = CARTESIAN_POINT('',(274.000001,13.5,10.));
#724 = DIRECTION('',(0.,0.,1.));
#725 = DIRECTION('',(-1.,0.,0.));
#726 = FACE_BOUND('',#727,.T.);
#727 = EDGE_LOOP('',(#728));
#728 = ORIENTED_EDGE('',*,*,#729,.F.);
#729 = EDGE_CURVE('',#730,#730,#732,.T.);
#730 = VERTEX_POINT('',#731);
#731 = CARTESIAN_POINT('',(210.5,60.,10.));
#732 = CIRCLE('',#733,2.5);
#733 = AXIS2_PLACEMENT_3D('',#734,#735,#736);
#734 = CARTESIAN_POINT('',(213.,60.,10.));
#735 = DIRECTION('',(0.,0.,1.));
#736 = DIRECTION('',(-1.,0.,0.));
#737 = FACE_BOUND('',#738,.T.);
#738 = EDGE_LOOP('',(#739));
#739 = ORIENTED_EDGE('',*,*,#740,.F.);
#740 = EDGE_CURVE('',#741,#741,#743,.T.);
#741 = VERTEX_POINT('',#742);
#742 = CARTESIAN_POINT('',(12.5,106.,10.));
#743 = CIRCLE('',#744,2.5);
#744 = AXIS2_PLACEMENT_3D('',#745,#746,#747);
#745 = CARTESIAN_POINT('',(15.,106.,10.));
#746 = DIRECTION('',(0.,0.,1.));
#747 = DIRECTION('',(-1.,0.,0.));
#748 = FACE_BOUND('',#749,.T.);
#749 = EDGE_LOOP('',(#750));
#750 = ORIENTED_EDGE('',*,*,#751,.F.);
#751 = EDGE_CURVE('',#752,#752,#754,.T.);
#752 = VERTEX_POINT('',#753);
#753 = CARTESIAN_POINT('',(22.4,120.5,10.));
#754 = CIRCLE('',#755,2.1);
#755 = AXIS2_PLACEMENT_3D('',#756,#757,#758);
#756 = CARTESIAN_POINT('',(24.5,120.5,10.));
#757 = DIRECTION('',(0.,0.,1.));
#758 = DIRECTION('',(-1.,0.,0.));
#759 = FACE_BOUND('',#760,.T.);
#760 = EDGE_LOOP('',(#761));
#761 = ORIENTED_EDGE('',*,*,#762,.F.);
#762 = EDGE_CURVE('',#763,#763,#765,.T.);
#763 = VERTEX_POINT('',#764);
#764 = CARTESIAN_POINT('',(43.500001,106.500002,10.));
#765 = CIRCLE('',#766,2.5);
#766 = AXIS2_PLACEMENT_3D('',#767,#768,#769);
#767 = CARTESIAN_POINT('',(46.000001,106.500002,10.));
#768 = DIRECTION('',(0.,0.,1.));
#769 = DIRECTION('',(-1.,0.,0.));
#770 = FACE_BOUND('',#771,.T.);
#771 = EDGE_LOOP('',(#772));
#772 = ORIENTED_EDGE('',*,*,#773,.F.);
#773 = EDGE_CURVE('',#774,#774,#776,.T.);
#774 = VERTEX_POINT('',#775);
#775 = CARTESIAN_POINT('',(91.500001,106.500002,10.));
#776 = CIRCLE('',#777,2.5);
#777 = AXIS2_PLACEMENT_3D('',#778,#779,#780);
#778 = CARTESIAN_POINT('',(94.000001,106.500002,10.));
#779 = DIRECTION('',(0.,0.,1.));
#780 = DIRECTION('',(-1.,0.,0.));
#781 = FACE_BOUND('',#782,.T.);
#782 = EDGE_LOOP('',(#783));
#783 = ORIENTED_EDGE('',*,*,#784,.F.);
#784 = EDGE_CURVE('',#785,#785,#787,.T.);
#785 = VERTEX_POINT('',#786);
#786 = CARTESIAN_POINT('',(96.9,120.5,10.));
#787 = CIRCLE('',#788,2.1);
#788 = AXIS2_PLACEMENT_3D('',#789,#790,#791);
#789 = CARTESIAN_POINT('',(99.,120.5,10.));
#790 = DIRECTION('',(0.,0.,1.));
#791 = DIRECTION('',(-1.,0.,0.));
#792 = FACE_BOUND('',#793,.T.);
#793 = EDGE_LOOP('',(#794));
#794 = ORIENTED_EDGE('',*,*,#795,.F.);
#795 = EDGE_CURVE('',#796,#796,#798,.T.);
#796 = VERTEX_POINT('',#797);
#797 = CARTESIAN_POINT('',(112.5,106.,10.));
#798 = CIRCLE('',#799,2.5);
#799 = AXIS2_PLACEMENT_3D('',#800,#801,#802);
#800 = CARTESIAN_POINT('',(115.,106.,10.));
#801 = DIRECTION('',(0.,0.,1.));
#802 = DIRECTION('',(-1.,0.,0.));
#803 = FACE_BOUND('',#804,.T.);
#804 = EDGE_LOOP('',(#805));
#805 = ORIENTED_EDGE('',*,*,#806,.F.);
#806 = EDGE_CURVE('',#807,#807,#809,.T.);
#807 = VERTEX_POINT('',#808);
#808 = CARTESIAN_POINT('',(133.500001,106.500002,10.));
#809 = CIRCLE('',#810,2.5);
#810 = AXIS2_PLACEMENT_3D('',#811,#812,#813);
#811 = CARTESIAN_POINT('',(136.000001,106.500002,10.));
#812 = DIRECTION('',(0.,0.,1.));
#813 = DIRECTION('',(-1.,0.,0.));
#814 = FACE_BOUND('',#815,.T.);
#815 = EDGE_LOOP('',(#816));
#816 = ORIENTED_EDGE('',*,*,#817,.T.);
#817 = EDGE_CURVE('',#818,#818,#820,.T.);
#818 = VERTEX_POINT('',#819);
#819 = CARTESIAN_POINT('',(7.500005,160.000002,10.));
#820 = CIRCLE('',#821,4.);
#821 = AXIS2_PLACEMENT_3D('',#822,#823,#824);
#822 = CARTESIAN_POINT('',(3.500005,160.000002,10.));
#823 = DIRECTION('',(0.,0.,-1.));
#824 = DIRECTION('',(1.,0.,0.));
#825 = FACE_BOUND('',#826,.T.);
#826 = EDGE_LOOP('',(#827));
#827 = ORIENTED_EDGE('',*,*,#828,.F.);
#828 = EDGE_CURVE('',#829,#829,#831,.T.);
#829 = VERTEX_POINT('',#830);
#830 = CARTESIAN_POINT('',(22.4,154.5,10.));
#831 = CIRCLE('',#832,2.1);
#832 = AXIS2_PLACEMENT_3D('',#833,#834,#835);
#833 = CARTESIAN_POINT('',(24.5,154.5,10.));
#834 = DIRECTION('',(0.,0.,1.));
#835 = DIRECTION('',(-1.,0.,0.));
#836 = FACE_BOUND('',#837,.T.);
#837 = EDGE_LOOP('',(#838));
#838 = ORIENTED_EDGE('',*,*,#839,.F.);
#839 = EDGE_CURVE('',#840,#840,#842,.T.);
#840 = VERTEX_POINT('',#841);
#841 = CARTESIAN_POINT('',(96.9,154.5,10.));
#842 = CIRCLE('',#843,2.1);
#843 = AXIS2_PLACEMENT_3D('',#844,#845,#846);
#844 = CARTESIAN_POINT('',(99.,154.5,10.));
#845 = DIRECTION('',(0.,0.,1.));
#846 = DIRECTION('',(-1.,0.,0.));
#847 = FACE_BOUND('',#848,.T.);
#848 = EDGE_LOOP('',(#849));
#849 = ORIENTED_EDGE('',*,*,#850,.F.);
#850 = EDGE_CURVE('',#851,#851,#853,.T.);
#851 = VERTEX_POINT('',#852);
#852 = CARTESIAN_POINT('',(181.500001,106.500002,10.));
#853 = CIRCLE('',#854,2.5);
#854 = AXIS2_PLACEMENT_3D('',#855,#856,#857);
#855 = CARTESIAN_POINT('',(184.000001,106.500002,10.));
#856 = DIRECTION('',(0.,0.,1.));
#857 = DIRECTION('',(-1.,0.,0.));
#858 = FACE_BOUND('',#859,.T.);
#859 = EDGE_LOOP('',(#860));
#860 = ORIENTED_EDGE('',*,*,#861,.F.);
#861 = EDGE_CURVE('',#862,#862,#864,.T.);
#862 = VERTEX_POINT('',#863);
#863 = CARTESIAN_POINT('',(191.9,120.5,10.));
#864 = CIRCLE('',#865,2.1);
#865 = AXIS2_PLACEMENT_3D('',#866,#867,#868);
#866 = CARTESIAN_POINT('',(194.,120.5,10.));
#867 = DIRECTION('',(0.,0.,1.));
#868 = DIRECTION('',(-1.,0.,0.));
#869 = FACE_BOUND('',#870,.T.);
#870 = EDGE_LOOP('',(#871));
#871 = ORIENTED_EDGE('',*,*,#872,.F.);
#872 = EDGE_CURVE('',#873,#873,#875,.T.);
#873 = VERTEX_POINT('',#874);
#874 = CARTESIAN_POINT('',(223.500001,106.500002,10.));
#875 = CIRCLE('',#876,2.5);
#876 = AXIS2_PLACEMENT_3D('',#877,#878,#879);
#877 = CARTESIAN_POINT('',(226.000001,106.500002,10.));
#878 = DIRECTION('',(0.,0.,1.));
#879 = DIRECTION('',(-1.,0.,0.));
#880 = FACE_BOUND('',#881,.T.);
#881 = EDGE_LOOP('',(#882));
#882 = ORIENTED_EDGE('',*,*,#883,.F.);
#883 = EDGE_CURVE('',#884,#884,#886,.T.);
#884 = VERTEX_POINT('',#885);
#885 = CARTESIAN_POINT('',(271.500001,106.500002,10.));
#886 = CIRCLE('',#887,2.5);
#887 = AXIS2_PLACEMENT_3D('',#888,#889,#890);
#888 = CARTESIAN_POINT('',(274.000001,106.500002,10.));
#889 = DIRECTION('',(0.,0.,1.));
#890 = DIRECTION('',(-1.,0.,0.));
#891 = FACE_BOUND('',#892,.T.);
#892 = EDGE_LOOP('',(#893));
#893 = ORIENTED_EDGE('',*,*,#894,.F.);
#894 = EDGE_CURVE('',#895,#895,#897,.T.);
#895 = VERTEX_POINT('',#896);
#896 = CARTESIAN_POINT('',(291.5,106.,10.));
#897 = CIRCLE('',#898,2.5);
#898 = AXIS2_PLACEMENT_3D('',#899,#900,#901);
#899 = CARTESIAN_POINT('',(294.,106.,10.));
#900 = DIRECTION('',(0.,0.,1.));
#901 = DIRECTION('',(-1.,0.,0.));
#902 = FACE_BOUND('',#903,.T.);
#903 = EDGE_LOOP('',(#904));
#904 = ORIENTED_EDGE('',*,*,#905,.F.);
#905 = EDGE_CURVE('',#906,#906,#908,.T.);
#906 = VERTEX_POINT('',#907);
#907 = CARTESIAN_POINT('',(271.4,120.5,10.));
#908 = CIRCLE('',#909,2.1);
#909 = AXIS2_PLACEMENT_3D('',#910,#911,#912);
#910 = CARTESIAN_POINT('',(273.5,120.5,10.));
#911 = DIRECTION('',(0.,0.,1.));
#912 = DIRECTION('',(-1.,0.,0.));
#913 = FACE_BOUND('',#914,.T.);
#914 = EDGE_LOOP('',(#915));
#915 = ORIENTED_EDGE('',*,*,#916,.F.);
#916 = EDGE_CURVE('',#917,#917,#919,.T.);
#917 = VERTEX_POINT('',#918);
#918 = CARTESIAN_POINT('',(191.9,154.5,10.));
#919 = CIRCLE('',#920,2.1);
#920 = AXIS2_PLACEMENT_3D('',#921,#922,#923);
#921 = CARTESIAN_POINT('',(194.,154.5,10.));
#922 = DIRECTION('',(0.,0.,1.));
#923 = DIRECTION('',(-1.,0.,0.));
#924 = FACE_BOUND('',#925,.T.);
#925 = EDGE_LOOP('',(#926));
#926 = ORIENTED_EDGE('',*,*,#927,.F.);
#927 = EDGE_CURVE('',#928,#928,#930,.T.);
#928 = VERTEX_POINT('',#929);
#929 = CARTESIAN_POINT('',(271.4,154.5,10.));
#930 = CIRCLE('',#931,2.1);
#931 = AXIS2_PLACEMENT_3D('',#932,#933,#934);
#932 = CARTESIAN_POINT('',(273.5,154.5,10.));
#933 = DIRECTION('',(0.,0.,1.));
#934 = DIRECTION('',(-1.,0.,0.));
#935 = FACE_BOUND('',#936,.T.);
#936 = EDGE_LOOP('',(#937));
#937 = ORIENTED_EDGE('',*,*,#938,.T.);
#938 = EDGE_CURVE('',#939,#939,#941,.T.);
#939 = VERTEX_POINT('',#940);
#940 = CARTESIAN_POINT('',(297.500005,160.000002,10.));
#941 = CIRCLE('',#942,4.);
#942 = AXIS2_PLACEMENT_3D('',#943,#944,#945);
#943 = CARTESIAN_POINT('',(293.500005,160.000002,10.));
#944 = DIRECTION('',(0.,0.,-1.));
#945 = DIRECTION('',(1.,0.,0.));
#946 = PLANE('',#947);
#947 = AXIS2_PLACEMENT_3D('',#948,#949,#950);
#948 = CARTESIAN_POINT('',(148.50003632889,82.499989212142,10.));
#949 = DIRECTION('',(0.,0.,1.));
#950 = DIRECTION('',(1.,0.,0.));
#951 = ADVANCED_FACE('',(#952),#963,.T.);
#952 = FACE_BOUND('',#953,.T.);
#953 = EDGE_LOOP('',(#954,#960,#961,#962));
#954 = ORIENTED_EDGE('',*,*,#955,.T.);
#955 = EDGE_CURVE('',#130,#544,#956,.T.);
#956 = LINE('',#957,#958);
#957 = CARTESIAN_POINT('',(-3.999994,167.5,0.));
#958 = VECTOR('',#959,1.);
#959 = DIRECTION('',(0.,0.,1.));
#960 = ORIENTED_EDGE('',*,*,#543,.T.);
#961 = ORIENTED_EDGE('',*,*,#71,.F.);
#962 = ORIENTED_EDGE('',*,*,#129,.F.);
#963 = PLANE('',#964);
#964 = AXIS2_PLACEMENT_3D('',#965,#966,#967);
#965 = CARTESIAN_POINT('',(-3.999994,167.5,0.));
#966 = DIRECTION('',(0.,1.,0.));
#967 = DIRECTION('',(1.,0.,0.));
#968 = ADVANCED_FACE('',(#969),#980,.T.);
#969 = FACE_BOUND('',#970,.T.);
#970 = EDGE_LOOP('',(#971,#972,#973,#979));
#971 = ORIENTED_EDGE('',*,*,#94,.T.);
#972 = ORIENTED_EDGE('',*,*,#577,.T.);
#973 = ORIENTED_EDGE('',*,*,#974,.F.);
#974 = EDGE_CURVE('',#155,#569,#975,.T.);
#975 = LINE('',#976,#977);
#976 = CARTESIAN_POINT('',(-3.999996901923,-2.5,0.));
#977 = VECTOR('',#978,1.);
#978 = DIRECTION('',(0.,0.,1.));
#979 = ORIENTED_EDGE('',*,*,#163,.F.);
#980 = PLANE('',#981);
#981 = AXIS2_PLACEMENT_3D('',#982,#983,#984);
#982 = CARTESIAN_POINT('',(301.00003412646,-2.5,0.));
#983 = DIRECTION('',(0.,-1.,0.));
#984 = DIRECTION('',(-1.,0.,0.));
#985 = ADVANCED_FACE('',(#986),#997,.T.);
#986 = FACE_BOUND('',#987,.F.);
#987 = EDGE_LOOP('',(#988,#989,#990,#996));
#988 = ORIENTED_EDGE('',*,*,#955,.T.);
#989 = ORIENTED_EDGE('',*,*,#551,.T.);
#990 = ORIENTED_EDGE('',*,*,#991,.F.);
#991 = EDGE_CURVE('',#138,#552,#992,.T.);
#992 = LINE('',#993,#994);
#993 = CARTESIAN_POINT('',(-8.999998,162.50000026796,0.));
#994 = VECTOR('',#995,1.);
#995 = DIRECTION('',(0.,0.,1.));
#996 = ORIENTED_EDGE('',*,*,#137,.F.);
#997 = CYLINDRICAL_SURFACE('',#998,5.000008000007);
#998 = AXIS2_PLACEMENT_3D('',#999,#1000,#1001);
#999 = CARTESIAN_POINT('',(-3.99999,162.499992,0.));
#1000 = DIRECTION('',(-0.,-0.,-1.));
#1001 = DIRECTION('',(1.,0.,0.));
#1002 = ADVANCED_FACE('',(#1003),#1014,.T.);
#1003 = FACE_BOUND('',#1004,.F.);
#1004 = EDGE_LOOP('',(#1005,#1011,#1012,#1013));
#1005 = ORIENTED_EDGE('',*,*,#1006,.T.);
#1006 = EDGE_CURVE('',#147,#561,#1007,.T.);
#1007 = LINE('',#1008,#1009);
#1008 = CARTESIAN_POINT('',(-8.999998,2.499999,0.));
#1009 = VECTOR('',#1010,1.);
#1010 = DIRECTION('',(0.,0.,1.));
#1011 = ORIENTED_EDGE('',*,*,#568,.T.);
#1012 = ORIENTED_EDGE('',*,*,#974,.F.);
#1013 = ORIENTED_EDGE('',*,*,#154,.F.);
#1014 = CYLINDRICAL_SURFACE('',#1015,5.000001);
#1015 = AXIS2_PLACEMENT_3D('',#1016,#1017,#1018);
#1016 = CARTESIAN_POINT('',(-3.999997,2.500001,0.));
#1017 = DIRECTION('',(-0.,-0.,-1.));
#1018 = DIRECTION('',(1.,0.,0.));
#1019 = ADVANCED_FACE('',(#1020),#1026,.F.);
#1020 = FACE_BOUND('',#1021,.F.);
#1021 = EDGE_LOOP('',(#1022,#1023,#1024,#1025));
#1022 = ORIENTED_EDGE('',*,*,#991,.T.);
#1023 = ORIENTED_EDGE('',*,*,#560,.T.);
#1024 = ORIENTED_EDGE('',*,*,#1006,.F.);
#1025 = ORIENTED_EDGE('',*,*,#146,.F.);
#1026 = PLANE('',#1027);
#1027 = AXIS2_PLACEMENT_3D('',#1028,#1029,#1030);
#1028 = CARTESIAN_POINT('',(-8.999998,162.50000026796,0.));
#1029 = DIRECTION('',(1.,0.,0.));
#1030 = DIRECTION('',(0.,-1.,0.));
#1031 = ADVANCED_FACE('',(#1032),#1043,.F.);
#1032 = FACE_BOUND('',#1033,.T.);
#1033 = EDGE_LOOP('',(#1034,#1035,#1041,#1042));
#1034 = ORIENTED_EDGE('',*,*,#172,.F.);
#1035 = ORIENTED_EDGE('',*,*,#1036,.T.);
#1036 = EDGE_CURVE('',#173,#587,#1037,.T.);
#1037 = LINE('',#1038,#1039);
#1038 = CARTESIAN_POINT('',(7.500005,5.000002,0.));
#1039 = VECTOR('',#1040,1.);
#1040 = DIRECTION('',(0.,0.,1.));
#1041 = ORIENTED_EDGE('',*,*,#586,.F.);
#1042 = ORIENTED_EDGE('',*,*,#1036,.F.);
#1043 = CYLINDRICAL_SURFACE('',#1044,4.);
#1044 = AXIS2_PLACEMENT_3D('',#1045,#1046,#1047);
#1045 = CARTESIAN_POINT('',(3.500005,5.000002,0.));
#1046 = DIRECTION('',(-0.,-0.,-1.));
#1047 = DIRECTION('',(1.,0.,0.));
#1048 = ADVANCED_FACE('',(#1049),#1060,.F.);
#1049 = FACE_BOUND('',#1050,.T.);
#1050 = EDGE_LOOP('',(#1051,#1057,#1058,#1059));
#1051 = ORIENTED_EDGE('',*,*,#1052,.F.);
#1052 = EDGE_CURVE('',#184,#598,#1053,.T.);
#1053 = LINE('',#1054,#1055);
#1054 = CARTESIAN_POINT('',(43.500001,13.5,0.));
#1055 = VECTOR('',#1056,1.);
#1056 = DIRECTION('',(5.E-17,0.,1.));
#1057 = ORIENTED_EDGE('',*,*,#183,.T.);
#1058 = ORIENTED_EDGE('',*,*,#1052,.T.);
#1059 = ORIENTED_EDGE('',*,*,#597,.T.);
#1060 = CYLINDRICAL_SURFACE('',#1061,2.5);
#1061 = AXIS2_PLACEMENT_3D('',#1062,#1063,#1064);
#1062 = CARTESIAN_POINT('',(46.000001,13.5,0.));
#1063 = DIRECTION('',(0.,0.,1.));
#1064 = DIRECTION('',(-1.,0.,0.));
#1065 = ADVANCED_FACE('',(#1066),#1077,.F.);
#1066 = FACE_BOUND('',#1067,.T.);
#1067 = EDGE_LOOP('',(#1068,#1074,#1075,#1076));
#1068 = ORIENTED_EDGE('',*,*,#1069,.F.);
#1069 = EDGE_CURVE('',#195,#609,#1070,.T.);
#1070 = LINE('',#1071,#1072);
#1071 = CARTESIAN_POINT('',(22.5,22.,0.));
#1072 = VECTOR('',#1073,1.);
#1073 = DIRECTION('',(5.E-17,0.,1.));
#1074 = ORIENTED_EDGE('',*,*,#194,.T.);
#1075 = ORIENTED_EDGE('',*,*,#1069,.T.);
#1076 = ORIENTED_EDGE('',*,*,#608,.T.);
#1077 = CYLINDRICAL_SURFACE('',#1078,2.5);
#1078 = AXIS2_PLACEMENT_3D('',#1079,#1080,#1081);
#1079 = CARTESIAN_POINT('',(25.,22.,0.));
#1080 = DIRECTION('',(0.,0.,1.));
#1081 = DIRECTION('',(-1.,0.,0.));
#1082 = ADVANCED_FACE('',(#1083),#1094,.F.);
#1083 = FACE_BOUND('',#1084,.T.);
#1084 = EDGE_LOOP('',(#1085,#1091,#1092,#1093));
#1085 = ORIENTED_EDGE('',*,*,#1086,.F.);
#1086 = EDGE_CURVE('',#206,#620,#1087,.T.);
#1087 = LINE('',#1088,#1089);
#1088 = CARTESIAN_POINT('',(91.500001,13.5,0.));
#1089 = VECTOR('',#1090,1.);
#1090 = DIRECTION('',(5.E-17,0.,1.));
#1091 = ORIENTED_EDGE('',*,*,#205,.T.);
#1092 = ORIENTED_EDGE('',*,*,#1086,.T.);
#1093 = ORIENTED_EDGE('',*,*,#619,.T.);
#1094 = CYLINDRICAL_SURFACE('',#1095,2.5);
#1095 = AXIS2_PLACEMENT_3D('',#1096,#1097,#1098);
#1096 = CARTESIAN_POINT('',(94.000001,13.5,0.));
#1097 = DIRECTION('',(0.,0.,1.));
#1098 = DIRECTION('',(-1.,0.,0.));
#1099 = ADVANCED_FACE('',(#1100),#1111,.F.);
#1100 = FACE_BOUND('',#1101,.T.);
#1101 = EDGE_LOOP('',(#1102,#1108,#1109,#1110));
#1102 = ORIENTED_EDGE('',*,*,#1103,.F.);
#1103 = EDGE_CURVE('',#217,#631,#1104,.T.);
#1104 = LINE('',#1105,#1106);
#1105 = CARTESIAN_POINT('',(133.500001,13.5,0.));
#1106 = VECTOR('',#1107,1.);
#1107 = DIRECTION('',(5.E-17,0.,1.));
#1108 = ORIENTED_EDGE('',*,*,#216,.T.);
#1109 = ORIENTED_EDGE('',*,*,#1103,.T.);
#1110 = ORIENTED_EDGE('',*,*,#630,.T.);
#1111 = CYLINDRICAL_SURFACE('',#1112,2.5);
#1112 = AXIS2_PLACEMENT_3D('',#1113,#1114,#1115);
#1113 = CARTESIAN_POINT('',(136.000001,13.5,0.));
#1114 = DIRECTION('',(0.,0.,1.));
#1115 = DIRECTION('',(-1.,0.,0.));
#1116 = ADVANCED_FACE('',(#1117),#1128,.F.);
#1117 = FACE_BOUND('',#1118,.T.);
#1118 = EDGE_LOOP('',(#1119,#1125,#1126,#1127));
#1119 = ORIENTED_EDGE('',*,*,#1120,.F.);
#1120 = EDGE_CURVE('',#228,#642,#1121,.T.);
#1121 = LINE('',#1122,#1123);
#1122 = CARTESIAN_POINT('',(112.5,22.,0.));
#1123 = VECTOR('',#1124,1.);
#1124 = DIRECTION('',(5.E-17,0.,1.));
#1125 = ORIENTED_EDGE('',*,*,#227,.T.);
#1126 = ORIENTED_EDGE('',*,*,#1120,.T.);
#1127 = ORIENTED_EDGE('',*,*,#641,.T.);
#1128 = CYLINDRICAL_SURFACE('',#1129,2.5);
#1129 = AXIS2_PLACEMENT_3D('',#1130,#1131,#1132);
#1130 = CARTESIAN_POINT('',(115.,22.,0.));
#1131 = DIRECTION('',(0.,0.,1.));
#1132 = DIRECTION('',(-1.,0.,0.));
#1133 = ADVANCED_FACE('',(#1134),#1145,.F.);
#1134 = FACE_BOUND('',#1135,.T.);
#1135 = EDGE_LOOP('',(#1136,#1142,#1143,#1144));
#1136 = ORIENTED_EDGE('',*,*,#1137,.F.);
#1137 = EDGE_CURVE('',#239,#653,#1138,.T.);
#1138 = LINE('',#1139,#1140);
#1139 = CARTESIAN_POINT('',(30.5,60.,0.));
#1140 = VECTOR('',#1141,1.);
#1141 = DIRECTION('',(5.E-17,0.,1.));
#1142 = ORIENTED_EDGE('',*,*,#238,.T.);
#1143 = ORIENTED_EDGE('',*,*,#1137,.T.);
#1144 = ORIENTED_EDGE('',*,*,#652,.T.);
#1145 = CYLINDRICAL_SURFACE('',#1146,2.5);
#1146 = AXIS2_PLACEMENT_3D('',#1147,#1148,#1149);
#1147 = CARTESIAN_POINT('',(33.,60.,0.));
#1148 = DIRECTION('',(0.,0.,1.));
#1149 = DIRECTION('',(-1.,0.,0.));
#1150 = ADVANCED_FACE('',(#1151),#1162,.F.);
#1151 = FACE_BOUND('',#1152,.T.);
#1152 = EDGE_LOOP('',(#1153,#1159,#1160,#1161));
#1153 = ORIENTED_EDGE('',*,*,#1154,.F.);
#1154 = EDGE_CURVE('',#250,#664,#1155,.T.);
#1155 = LINE('',#1156,#1157);
#1156 = CARTESIAN_POINT('',(120.5,60.,0.));
#1157 = VECTOR('',#1158,1.);
#1158 = DIRECTION('',(5.E-17,0.,1.));
#1159 = ORIENTED_EDGE('',*,*,#249,.T.);
#1160 = ORIENTED_EDGE('',*,*,#1154,.T.);
#1161 = ORIENTED_EDGE('',*,*,#663,.T.);
#1162 = CYLINDRICAL_SURFACE('',#1163,2.5);
#1163 = AXIS2_PLACEMENT_3D('',#1164,#1165,#1166);
#1164 = CARTESIAN_POINT('',(123.,60.,0.));
#1165 = DIRECTION('',(0.,0.,1.));
#1166 = DIRECTION('',(-1.,0.,0.));
#1167 = ADVANCED_FACE('',(#1168),#1179,.F.);
#1168 = FACE_BOUND('',#1169,.T.);
#1169 = EDGE_LOOP('',(#1170,#1176,#1177,#1178));
#1170 = ORIENTED_EDGE('',*,*,#1171,.F.);
#1171 = EDGE_CURVE('',#261,#675,#1172,.T.);
#1172 = LINE('',#1173,#1174);
#1173 = CARTESIAN_POINT('',(181.500001,13.5,0.));
#1174 = VECTOR('',#1175,1.);
#1175 = DIRECTION('',(5.E-17,0.,1.));
#1176 = ORIENTED_EDGE('',*,*,#260,.T.);
#1177 = ORIENTED_EDGE('',*,*,#1171,.T.);
#1178 = ORIENTED_EDGE('',*,*,#674,.T.);
#1179 = CYLINDRICAL_SURFACE('',#1180,2.5);
#1180 = AXIS2_PLACEMENT_3D('',#1181,#1182,#1183);
#1181 = CARTESIAN_POINT('',(184.000001,13.5,0.));
#1182 = DIRECTION('',(0.,0.,1.));
#1183 = DIRECTION('',(-1.,0.,0.));
#1184 = ADVANCED_FACE('',(#1185),#1196,.F.);
#1185 = FACE_BOUND('',#1186,.T.);
#1186 = EDGE_LOOP('',(#1187,#1193,#1194,#1195));
#1187 = ORIENTED_EDGE('',*,*,#1188,.F.);
#1188 = EDGE_CURVE('',#272,#686,#1189,.T.);
#1189 = LINE('',#1190,#1191);
#1190 = CARTESIAN_POINT('',(202.5,22.,0.));
#1191 = VECTOR('',#1192,1.);
#1192 = DIRECTION('',(5.E-17,0.,1.));
#1193 = ORIENTED_EDGE('',*,*,#271,.T.);
#1194 = ORIENTED_EDGE('',*,*,#1188,.T.);
#1195 = ORIENTED_EDGE('',*,*,#685,.T.);
#1196 = CYLINDRICAL_SURFACE('',#1197,2.5);
#1197 = AXIS2_PLACEMENT_3D('',#1198,#1199,#1200);
#1198 = CARTESIAN_POINT('',(205.,22.,0.));
#1199 = DIRECTION('',(0.,0.,1.));
#1200 = DIRECTION('',(-1.,0.,0.));
#1201 = ADVANCED_FACE('',(#1202),#1213,.F.);
#1202 = FACE_BOUND('',#1203,.T.);
#1203 = EDGE_LOOP('',(#1204,#1210,#1211,#1212));
#1204 = ORIENTED_EDGE('',*,*,#1205,.F.);
#1205 = EDGE_CURVE('',#283,#697,#1206,.T.);
#1206 = LINE('',#1207,#1208);
#1207 = CARTESIAN_POINT('',(223.500001,13.5,0.));
#1208 = VECTOR('',#1209,1.);
#1209 = DIRECTION('',(5.E-17,0.,1.));
#1210 = ORIENTED_EDGE('',*,*,#282,.T.);
#1211 = ORIENTED_EDGE('',*,*,#1205,.T.);
#1212 = ORIENTED_EDGE('',*,*,#696,.T.);
#1213 = CYLINDRICAL_SURFACE('',#1214,2.5);
#1214 = AXIS2_PLACEMENT_3D('',#1215,#1216,#1217);
#1215 = CARTESIAN_POINT('',(226.000001,13.5,0.));
#1216 = DIRECTION('',(0.,0.,1.));
#1217 = DIRECTION('',(-1.,0.,0.));
#1218 = ADVANCED_FACE('',(#1219),#1230,.F.);
#1219 = FACE_BOUND('',#1220,.T.);
#1220 = EDGE_LOOP('',(#1221,#1222,#1228,#1229));
#1221 = ORIENTED_EDGE('',*,*,#293,.F.);
#1222 = ORIENTED_EDGE('',*,*,#1223,.T.);
#1223 = EDGE_CURVE('',#294,#708,#1224,.T.);
#1224 = LINE('',#1225,#1226);
#1225 = CARTESIAN_POINT('',(297.500005,5.000002,0.));
#1226 = VECTOR('',#1227,1.);
#1227 = DIRECTION('',(0.,0.,1.));
#1228 = ORIENTED_EDGE('',*,*,#707,.F.);
#1229 = ORIENTED_EDGE('',*,*,#1223,.F.);
#1230 = CYLINDRICAL_SURFACE('',#1231,4.);
#1231 = AXIS2_PLACEMENT_3D('',#1232,#1233,#1234);
#1232 = CARTESIAN_POINT('',(293.500005,5.000002,0.));
#1233 = DIRECTION('',(-0.,-0.,-1.));
#1234 = DIRECTION('',(1.,0.,0.));
#1235 = ADVANCED_FACE('',(#1236),#1247,.F.);
#1236 = FACE_BOUND('',#1237,.T.);
#1237 = EDGE_LOOP('',(#1238,#1244,#1245,#1246));
#1238 = ORIENTED_EDGE('',*,*,#1239,.F.);
#1239 = EDGE_CURVE('',#305,#719,#1240,.T.);
#1240 = LINE('',#1241,#1242);
#1241 = CARTESIAN_POINT('',(271.500001,13.5,0.));
#1242 = VECTOR('',#1243,1.);
#1243 = DIRECTION('',(5.E-17,0.,1.));
#1244 = ORIENTED_EDGE('',*,*,#304,.T.);
#1245 = ORIENTED_EDGE('',*,*,#1239,.T.);
#1246 = ORIENTED_EDGE('',*,*,#718,.T.);
#1247 = CYLINDRICAL_SURFACE('',#1248,2.5);
#1248 = AXIS2_PLACEMENT_3D('',#1249,#1250,#1251);
#1249 = CARTESIAN_POINT('',(274.000001,13.5,0.));
#1250 = DIRECTION('',(0.,0.,1.));
#1251 = DIRECTION('',(-1.,0.,0.));
#1252 = ADVANCED_FACE('',(#1253),#1264,.F.);
#1253 = FACE_BOUND('',#1254,.T.);
#1254 = EDGE_LOOP('',(#1255,#1261,#1262,#1263));
#1255 = ORIENTED_EDGE('',*,*,#1256,.F.);
#1256 = EDGE_CURVE('',#316,#730,#1257,.T.);
#1257 = LINE('',#1258,#1259);
#1258 = CARTESIAN_POINT('',(210.5,60.,0.));
#1259 = VECTOR('',#1260,1.);
#1260 = DIRECTION('',(5.E-17,0.,1.));
#1261 = ORIENTED_EDGE('',*,*,#315,.T.);
#1262 = ORIENTED_EDGE('',*,*,#1256,.T.);
#1263 = ORIENTED_EDGE('',*,*,#729,.T.);
#1264 = CYLINDRICAL_SURFACE('',#1265,2.5);
#1265 = AXIS2_PLACEMENT_3D('',#1266,#1267,#1268);
#1266 = CARTESIAN_POINT('',(213.,60.,0.));
#1267 = DIRECTION('',(0.,0.,1.));
#1268 = DIRECTION('',(-1.,0.,0.));
#1269 = ADVANCED_FACE('',(#1270),#1281,.F.);
#1270 = FACE_BOUND('',#1271,.T.);
#1271 = EDGE_LOOP('',(#1272,#1278,#1279,#1280));
#1272 = ORIENTED_EDGE('',*,*,#1273,.F.);
#1273 = EDGE_CURVE('',#327,#741,#1274,.T.);
#1274 = LINE('',#1275,#1276);
#1275 = CARTESIAN_POINT('',(12.5,106.,0.));
#1276 = VECTOR('',#1277,1.);
#1277 = DIRECTION('',(5.E-17,0.,1.));
#1278 = ORIENTED_EDGE('',*,*,#326,.T.);
#1279 = ORIENTED_EDGE('',*,*,#1273,.T.);
#1280 = ORIENTED_EDGE('',*,*,#740,.T.);
#1281 = CYLINDRICAL_SURFACE('',#1282,2.5);
#1282 = AXIS2_PLACEMENT_3D('',#1283,#1284,#1285);
#1283 = CARTESIAN_POINT('',(15.,106.,0.));
#1284 = DIRECTION('',(0.,0.,1.));
#1285 = DIRECTION('',(-1.,0.,0.));
#1286 = ADVANCED_FACE('',(#1287),#1298,.F.);
#1287 = FACE_BOUND('',#1288,.T.);
#1288 = EDGE_LOOP('',(#1289,#1295,#1296,#1297));
#1289 = ORIENTED_EDGE('',*,*,#1290,.F.);
#1290 = EDGE_CURVE('',#338,#752,#1291,.T.);
#1291 = LINE('',#1292,#1293);
#1292 = CARTESIAN_POINT('',(22.4,120.5,0.));
#1293 = VECTOR('',#1294,1.);
#1294 = DIRECTION('',(5.E-17,0.,1.));
#1295 = ORIENTED_EDGE('',*,*,#337,.T.);
#1296 = ORIENTED_EDGE('',*,*,#1290,.T.);
#1297 = ORIENTED_EDGE('',*,*,#751,.T.);
#1298 = CYLINDRICAL_SURFACE('',#1299,2.1);
#1299 = AXIS2_PLACEMENT_3D('',#1300,#1301,#1302);
#1300 = CARTESIAN_POINT('',(24.5,120.5,0.));
#1301 = DIRECTION('',(0.,0.,1.));
#1302 = DIRECTION('',(-1.,0.,0.));
#1303 = ADVANCED_FACE('',(#1304),#1315,.F.);
#1304 = FACE_BOUND('',#1305,.T.);
#1305 = EDGE_LOOP('',(#1306,#1312,#1313,#1314));
#1306 = ORIENTED_EDGE('',*,*,#1307,.F.);
#1307 = EDGE_CURVE('',#349,#763,#1308,.T.);
#1308 = LINE('',#1309,#1310);
#1309 = CARTESIAN_POINT('',(43.500001,106.500002,0.));
#1310 = VECTOR('',#1311,1.);
#1311 = DIRECTION('',(5.E-17,0.,1.));
#1312 = ORIENTED_EDGE('',*,*,#348,.T.);
#1313 = ORIENTED_EDGE('',*,*,#1307,.T.);
#1314 = ORIENTED_EDGE('',*,*,#762,.T.);
#1315 = CYLINDRICAL_SURFACE('',#1316,2.5);
#1316 = AXIS2_PLACEMENT_3D('',#1317,#1318,#1319);
#1317 = CARTESIAN_POINT('',(46.000001,106.500002,0.));
#1318 = DIRECTION('',(0.,0.,1.));
#1319 = DIRECTION('',(-1.,0.,0.));
#1320 = ADVANCED_FACE('',(#1321),#1332,.F.);
#1321 = FACE_BOUND('',#1322,.T.);
#1322 = EDGE_LOOP('',(#1323,#1329,#1330,#1331));
#1323 = ORIENTED_EDGE('',*,*,#1324,.F.);
#1324 = EDGE_CURVE('',#360,#774,#1325,.T.);
#1325 = LINE('',#1326,#1327);
#1326 = CARTESIAN_POINT('',(91.500001,106.500002,0.));
#1327 = VECTOR('',#1328,1.);
#1328 = DIRECTION('',(5.E-17,0.,1.));
#1329 = ORIENTED_EDGE('',*,*,#359,.T.);
#1330 = ORIENTED_EDGE('',*,*,#1324,.T.);
#1331 = ORIENTED_EDGE('',*,*,#773,.T.);
#1332 = CYLINDRICAL_SURFACE('',#1333,2.5);
#1333 = AXIS2_PLACEMENT_3D('',#1334,#1335,#1336);
#1334 = CARTESIAN_POINT('',(94.000001,106.500002,0.));
#1335 = DIRECTION('',(0.,0.,1.));
#1336 = DIRECTION('',(-1.,0.,0.));
#1337 = ADVANCED_FACE('',(#1338),#1349,.F.);
#1338 = FACE_BOUND('',#1339,.T.);
#1339 = EDGE_LOOP('',(#1340,#1346,#1347,#1348));
#1340 = ORIENTED_EDGE('',*,*,#1341,.F.);
#1341 = EDGE_CURVE('',#371,#785,#1342,.T.);
#1342 = LINE('',#1343,#1344);
#1343 = CARTESIAN_POINT('',(96.9,120.5,0.));
#1344 = VECTOR('',#1345,1.);
#1345 = DIRECTION('',(5.E-17,0.,1.));
#1346 = ORIENTED_EDGE('',*,*,#370,.T.);
#1347 = ORIENTED_EDGE('',*,*,#1341,.T.);
#1348 = ORIENTED_EDGE('',*,*,#784,.T.);
#1349 = CYLINDRICAL_SURFACE('',#1350,2.1);
#1350 = AXIS2_PLACEMENT_3D('',#1351,#1352,#1353);
#1351 = CARTESIAN_POINT('',(99.,120.5,0.));
#1352 = DIRECTION('',(0.,0.,1.));
#1353 = DIRECTION('',(-1.,0.,0.));
#1354 = ADVANCED_FACE('',(#1355),#1366,.F.);
#1355 = FACE_BOUND('',#1356,.T.);
#1356 = EDGE_LOOP('',(#1357,#1363,#1364,#1365));
#1357 = ORIENTED_EDGE('',*,*,#1358,.F.);
#1358 = EDGE_CURVE('',#382,#796,#1359,.T.);
#1359 = LINE('',#1360,#1361);
#1360 = CARTESIAN_POINT('',(112.5,106.,0.));
#1361 = VECTOR('',#1362,1.);
#1362 = DIRECTION('',(5.E-17,0.,1.));
#1363 = ORIENTED_EDGE('',*,*,#381,.T.);
#1364 = ORIENTED_EDGE('',*,*,#1358,.T.);
#1365 = ORIENTED_EDGE('',*,*,#795,.T.);
#1366 = CYLINDRICAL_SURFACE('',#1367,2.5);
#1367 = AXIS2_PLACEMENT_3D('',#1368,#1369,#1370);
#1368 = CARTESIAN_POINT('',(115.,106.,0.));
#1369 = DIRECTION('',(0.,0.,1.));
#1370 = DIRECTION('',(-1.,0.,0.));
#1371 = ADVANCED_FACE('',(#1372),#1383,.F.);
#1372 = FACE_BOUND('',#1373,.T.);
#1373 = EDGE_LOOP('',(#1374,#1380,#1381,#1382));
#1374 = ORIENTED_EDGE('',*,*,#1375,.F.);
#1375 = EDGE_CURVE('',#393,#807,#1376,.T.);
#1376 = LINE('',#1377,#1378);
#1377 = CARTESIAN_POINT('',(133.500001,106.500002,0.));
#1378 = VECTOR('',#1379,1.);
#1379 = DIRECTION('',(5.E-17,0.,1.));
#1380 = ORIENTED_EDGE('',*,*,#392,.T.);
#1381 = ORIENTED_EDGE('',*,*,#1375,.T.);
#1382 = ORIENTED_EDGE('',*,*,#806,.T.);
#1383 = CYLINDRICAL_SURFACE('',#1384,2.5);
#1384 = AXIS2_PLACEMENT_3D('',#1385,#1386,#1387);
#1385 = CARTESIAN_POINT('',(136.000001,106.500002,0.));
#1386 = DIRECTION('',(0.,0.,1.));
#1387 = DIRECTION('',(-1.,0.,0.));
#1388 = ADVANCED_FACE('',(#1389),#1400,.F.);
#1389 = FACE_BOUND('',#1390,.T.);
#1390 = EDGE_LOOP('',(#1391,#1392,#1398,#1399));
#1391 = ORIENTED_EDGE('',*,*,#403,.F.);
#1392 = ORIENTED_EDGE('',*,*,#1393,.T.);
#1393 = EDGE_CURVE('',#404,#818,#1394,.T.);
#1394 = LINE('',#1395,#1396);
#1395 = CARTESIAN_POINT('',(7.500005,160.000002,0.));
#1396 = VECTOR('',#1397,1.);
#1397 = DIRECTION('',(0.,0.,1.));
#1398 = ORIENTED_EDGE('',*,*,#817,.F.);
#1399 = ORIENTED_EDGE('',*,*,#1393,.F.);
#1400 = CYLINDRICAL_SURFACE('',#1401,4.);
#1401 = AXIS2_PLACEMENT_3D('',#1402,#1403,#1404);
#1402 = CARTESIAN_POINT('',(3.500005,160.000002,0.));
#1403 = DIRECTION('',(-0.,-0.,-1.));
#1404 = DIRECTION('',(1.,0.,0.));
#1405 = ADVANCED_FACE('',(#1406),#1417,.F.);
#1406 = FACE_BOUND('',#1407,.T.);
#1407 = EDGE_LOOP('',(#1408,#1414,#1415,#1416));
#1408 = ORIENTED_EDGE('',*,*,#1409,.F.);
#1409 = EDGE_CURVE('',#415,#829,#1410,.T.);
#1410 = LINE('',#1411,#1412);
#1411 = CARTESIAN_POINT('',(22.4,154.5,0.));
#1412 = VECTOR('',#1413,1.);
#1413 = DIRECTION('',(5.E-17,0.,1.));
#1414 = ORIENTED_EDGE('',*,*,#414,.T.);
#1415 = ORIENTED_EDGE('',*,*,#1409,.T.);
#1416 = ORIENTED_EDGE('',*,*,#828,.T.);
#1417 = CYLINDRICAL_SURFACE('',#1418,2.1);
#1418 = AXIS2_PLACEMENT_3D('',#1419,#1420,#1421);
#1419 = CARTESIAN_POINT('',(24.5,154.5,0.));
#1420 = DIRECTION('',(0.,0.,1.));
#1421 = DIRECTION('',(-1.,0.,0.));
#1422 = ADVANCED_FACE('',(#1423),#1434,.F.);
#1423 = FACE_BOUND('',#1424,.T.);
#1424 = EDGE_LOOP('',(#1425,#1431,#1432,#1433));
#1425 = ORIENTED_EDGE('',*,*,#1426,.F.);
#1426 = EDGE_CURVE('',#426,#840,#1427,.T.);
#1427 = LINE('',#1428,#1429);
#1428 = CARTESIAN_POINT('',(96.9,154.5,0.));
#1429 = VECTOR('',#1430,1.);
#1430 = DIRECTION('',(5.E-17,0.,1.));
#1431 = ORIENTED_EDGE('',*,*,#425,.T.);
#1432 = ORIENTED_EDGE('',*,*,#1426,.T.);
#1433 = ORIENTED_EDGE('',*,*,#839,.T.);
#1434 = CYLINDRICAL_SURFACE('',#1435,2.1);
#1435 = AXIS2_PLACEMENT_3D('',#1436,#1437,#1438);
#1436 = CARTESIAN_POINT('',(99.,154.5,0.));
#1437 = DIRECTION('',(0.,0.,1.));
#1438 = DIRECTION('',(-1.,0.,0.));
#1439 = ADVANCED_FACE('',(#1440),#1451,.F.);
#1440 = FACE_BOUND('',#1441,.T.);
#1441 = EDGE_LOOP('',(#1442,#1448,#1449,#1450));
#1442 = ORIENTED_EDGE('',*,*,#1443,.F.);
#1443 = EDGE_CURVE('',#437,#851,#1444,.T.);
#1444 = LINE('',#1445,#1446);
#1445 = CARTESIAN_POINT('',(181.500001,106.500002,0.));
#1446 = VECTOR('',#1447,1.);
#1447 = DIRECTION('',(5.E-17,0.,1.));
#1448 = ORIENTED_EDGE('',*,*,#436,.T.);
#1449 = ORIENTED_EDGE('',*,*,#1443,.T.);
#1450 = ORIENTED_EDGE('',*,*,#850,.T.);
#1451 = CYLINDRICAL_SURFACE('',#1452,2.5);
#1452 = AXIS2_PLACEMENT_3D('',#1453,#1454,#1455);
#1453 = CARTESIAN_POINT('',(184.000001,106.500002,0.));
#1454 = DIRECTION('',(0.,0.,1.));
#1455 = DIRECTION('',(-1.,0.,0.));
#1456 = ADVANCED_FACE('',(#1457),#1468,.F.);
#1457 = FACE_BOUND('',#1458,.T.);
#1458 = EDGE_LOOP('',(#1459,#1465,#1466,#1467));
#1459 = ORIENTED_EDGE('',*,*,#1460,.F.);
#1460 = EDGE_CURVE('',#448,#862,#1461,.T.);
#1461 = LINE('',#1462,#1463);
#1462 = CARTESIAN_POINT('',(191.9,120.5,0.));
#1463 = VECTOR('',#1464,1.);
#1464 = DIRECTION('',(5.E-17,0.,1.));
#1465 = ORIENTED_EDGE('',*,*,#447,.T.);
#1466 = ORIENTED_EDGE('',*,*,#1460,.T.);
#1467 = ORIENTED_EDGE('',*,*,#861,.T.);
#1468 = CYLINDRICAL_SURFACE('',#1469,2.1);
#1469 = AXIS2_PLACEMENT_3D('',#1470,#1471,#1472);
#1470 = CARTESIAN_POINT('',(194.,120.5,0.));
#1471 = DIRECTION('',(0.,0.,1.));
#1472 = DIRECTION('',(-1.,0.,0.));
#1473 = ADVANCED_FACE('',(#1474),#1485,.F.);
#1474 = FACE_BOUND('',#1475,.T.);
#1475 = EDGE_LOOP('',(#1476,#1482,#1483,#1484));
#1476 = ORIENTED_EDGE('',*,*,#1477,.F.);
#1477 = EDGE_CURVE('',#459,#873,#1478,.T.);
#1478 = LINE('',#1479,#1480);
#1479 = CARTESIAN_POINT('',(223.500001,106.500002,0.));
#1480 = VECTOR('',#1481,1.);
#1481 = DIRECTION('',(5.E-17,0.,1.));
#1482 = ORIENTED_EDGE('',*,*,#458,.T.);
#1483 = ORIENTED_EDGE('',*,*,#1477,.T.);
#1484 = ORIENTED_EDGE('',*,*,#872,.T.);
#1485 = CYLINDRICAL_SURFACE('',#1486,2.5);
#1486 = AXIS2_PLACEMENT_3D('',#1487,#1488,#1489);
#1487 = CARTESIAN_POINT('',(226.000001,106.500002,0.));
#1488 = DIRECTION('',(0.,0.,1.));
#1489 = DIRECTION('',(-1.,0.,0.));
#1490 = ADVANCED_FACE('',(#1491),#1502,.F.);
#1491 = FACE_BOUND('',#1492,.T.);
#1492 = EDGE_LOOP('',(#1493,#1499,#1500,#1501));
#1493 = ORIENTED_EDGE('',*,*,#1494,.F.);
#1494 = EDGE_CURVE('',#470,#884,#1495,.T.);
#1495 = LINE('',#1496,#1497);
#1496 = CARTESIAN_POINT('',(271.500001,106.500002,0.));
#1497 = VECTOR('',#1498,1.);
#1498 = DIRECTION('',(5.E-17,0.,1.));
#1499 = ORIENTED_EDGE('',*,*,#469,.T.);
#1500 = ORIENTED_EDGE('',*,*,#1494,.T.);
#1501 = ORIENTED_EDGE('',*,*,#883,.T.);
#1502 = CYLINDRICAL_SURFACE('',#1503,2.5);
#1503 = AXIS2_PLACEMENT_3D('',#1504,#1505,#1506);
#1504 = CARTESIAN_POINT('',(274.000001,106.500002,0.));
#1505 = DIRECTION('',(0.,0.,1.));
#1506 = DIRECTION('',(-1.,0.,0.));
#1507 = ADVANCED_FACE('',(#1508),#1519,.F.);
#1508 = FACE_BOUND('',#1509,.T.);
#1509 = EDGE_LOOP('',(#1510,#1516,#1517,#1518));
#1510 = ORIENTED_EDGE('',*,*,#1511,.F.);
#1511 = EDGE_CURVE('',#481,#895,#1512,.T.);
#1512 = LINE('',#1513,#1514);
#1513 = CARTESIAN_POINT('',(291.5,106.,0.));
#1514 = VECTOR('',#1515,1.);
#1515 = DIRECTION('',(5.E-17,0.,1.));
#1516 = ORIENTED_EDGE('',*,*,#480,.T.);
#1517 = ORIENTED_EDGE('',*,*,#1511,.T.);
#1518 = ORIENTED_EDGE('',*,*,#894,.T.);
#1519 = CYLINDRICAL_SURFACE('',#1520,2.5);
#1520 = AXIS2_PLACEMENT_3D('',#1521,#1522,#1523);
#1521 = CARTESIAN_POINT('',(294.,106.,0.));
#1522 = DIRECTION('',(0.,0.,1.));
#1523 = DIRECTION('',(-1.,0.,0.));
#1524 = ADVANCED_FACE('',(#1525),#1536,.F.);
#1525 = FACE_BOUND('',#1526,.T.);
#1526 = EDGE_LOOP('',(#1527,#1533,#1534,#1535));
#1527 = ORIENTED_EDGE('',*,*,#1528,.F.);
#1528 = EDGE_CURVE('',#492,#906,#1529,.T.);
#1529 = LINE('',#1530,#1531);
#1530 = CARTESIAN_POINT('',(271.4,120.5,0.));
#1531 = VECTOR('',#1532,1.);
#1532 = DIRECTION('',(5.E-17,0.,1.));
#1533 = ORIENTED_EDGE('',*,*,#491,.T.);
#1534 = ORIENTED_EDGE('',*,*,#1528,.T.);
#1535 = ORIENTED_EDGE('',*,*,#905,.T.);
#1536 = CYLINDRICAL_SURFACE('',#1537,2.1);
#1537 = AXIS2_PLACEMENT_3D('',#1538,#1539,#1540);
#1538 = CARTESIAN_POINT('',(273.5,120.5,0.));
#1539 = DIRECTION('',(0.,0.,1.));
#1540 = DIRECTION('',(-1.,0.,0.));
#1541 = ADVANCED_FACE('',(#1542),#1553,.F.);
#1542 = FACE_BOUND('',#1543,.T.);
#1543 = EDGE_LOOP('',(#1544,#1550,#1551,#1552));
#1544 = ORIENTED_EDGE('',*,*,#1545,.F.);
#1545 = EDGE_CURVE('',#503,#917,#1546,.T.);
#1546 = LINE('',#1547,#1548);
#1547 = CARTESIAN_POINT('',(191.9,154.5,0.));
#1548 = VECTOR('',#1549,1.);
#1549 = DIRECTION('',(5.E-17,0.,1.));
#1550 = ORIENTED_EDGE('',*,*,#502,.T.);
#1551 = ORIENTED_EDGE('',*,*,#1545,.T.);
#1552 = ORIENTED_EDGE('',*,*,#916,.T.);
#1553 = CYLINDRICAL_SURFACE('',#1554,2.1);
#1554 = AXIS2_PLACEMENT_3D('',#1555,#1556,#1557);
#1555 = CARTESIAN_POINT('',(194.,154.5,0.));
#1556 = DIRECTION('',(0.,0.,1.));
#1557 = DIRECTION('',(-1.,0.,0.));
#1558 = ADVANCED_FACE('',(#1559),#1570,.F.);
#1559 = FACE_BOUND('',#1560,.T.);
#1560 = EDGE_LOOP('',(#1561,#1567,#1568,#1569));
#1561 = ORIENTED_EDGE('',*,*,#1562,.F.);
#1562 = EDGE_CURVE('',#514,#928,#1563,.T.);
#1563 = LINE('',#1564,#1565);
#1564 = CARTESIAN_POINT('',(271.4,154.5,0.));
#1565 = VECTOR('',#1566,1.);
#1566 = DIRECTION('',(5.E-17,0.,1.));
#1567 = ORIENTED_EDGE('',*,*,#513,.T.);
#1568 = ORIENTED_EDGE('',*,*,#1562,.T.);
#1569 = ORIENTED_EDGE('',*,*,#927,.T.);
#1570 = CYLINDRICAL_SURFACE('',#1571,2.1);
#1571 = AXIS2_PLACEMENT_3D('',#1572,#1573,#1574);
#1572 = CARTESIAN_POINT('',(273.5,154.5,0.));
#1573 = DIRECTION('',(0.,0.,1.));
#1574 = DIRECTION('',(-1.,0.,0.));
#1575 = ADVANCED_FACE('',(#1576),#1587,.F.);
#1576 = FACE_BOUND('',#1577,.T.);
#1577 = EDGE_LOOP('',(#1578,#1579,#1585,#1586));
#1578 = ORIENTED_EDGE('',*,*,#524,.F.);
#1579 = ORIENTED_EDGE('',*,*,#1580,.T.);
#1580 = EDGE_CURVE('',#525,#939,#1581,.T.);
#1581 = LINE('',#1582,#1583);
#1582 = CARTESIAN_POINT('',(297.500005,160.000002,0.));
#1583 = VECTOR('',#1584,1.);
#1584 = DIRECTION('',(0.,0.,1.));
#1585 = ORIENTED_EDGE('',*,*,#938,.F.);
#1586 = ORIENTED_EDGE('',*,*,#1580,.F.);
#1587 = CYLINDRICAL_SURFACE('',#1588,4.);
#1588 = AXIS2_PLACEMENT_3D('',#1589,#1590,#1591);
#1589 = CARTESIAN_POINT('',(293.500005,160.000002,0.));
#1590 = DIRECTION('',(-0.,-0.,-1.));
#1591 = DIRECTION('',(1.,0.,0.));
#1592 = ( GEOMETRIC_REPRESENTATION_CONTEXT(3) 
GLOBAL_UNCERTAINTY_ASSIGNED_CONTEXT((#1596)) 
GLOBAL_UNIT_ASSIGNED_CONTEXT((#1593,#1594,#1595)) REPRESENTATION_CONTEXT
('Context #1','3D Context with UNIT and UNCERTAINTY') );
#1593 = ( LENGTH_UNIT() NAMED_UNIT(*) SI_UNIT(.MILLI.,.METRE.) );
#1594 = ( NAMED_UNIT(*) PLANE_ANGLE_UNIT() SI_UNIT($,.RADIAN.) );
#1595 = ( NAMED_UNIT(*) SI_UNIT($,.STERADIAN.) SOLID_ANGLE_UNIT() );
#1596 = UNCERTAINTY_MEASURE_WITH_UNIT(LENGTH_MEASURE(1.E-07),#1593,
  'distance_accuracy_value','confusion accuracy');
#1597 = PRODUCT_RELATED_PRODUCT_CATEGORY('part',$,(#7));
ENDSEC;
END-ISO-10303-21;
