%TF.GenerationSoftware,KiCad,Pcbnew,10.0.3*%
%TF.CreationDate,2026-07-17T09:53:13-07:00*%
%TF.ProjectId,IOBoard,494f426f-6172-4642-9e6b-696361645f70,rev?*%
%TF.SameCoordinates,Original*%
%TF.FileFunction,Copper,L6,Bot*%
%TF.FilePolarity,Positive*%
%FSLAX46Y46*%
G04 Gerber Fmt 4.6, Leading zero omitted, Abs format (unit mm)*
G04 Created by KiCad (PCBNEW 10.0.3) date 2026-07-17 09:53:13*
%MOMM*%
%LPD*%
G01*
G04 APERTURE LIST*
G04 Aperture macros list*
%AMRoundRect*
0 Rectangle with rounded corners*
0 $1 Rounding radius*
0 $2 $3 $4 $5 $6 $7 $8 $9 X,Y pos of 4 corners*
0 Add a 4 corners polygon primitive as box body*
4,1,4,$2,$3,$4,$5,$6,$7,$8,$9,$2,$3,0*
0 Add four circle primitives for the rounded corners*
1,1,$1+$1,$2,$3*
1,1,$1+$1,$4,$5*
1,1,$1+$1,$6,$7*
1,1,$1+$1,$8,$9*
0 Add four rect primitives between the rounded corners*
20,1,$1+$1,$2,$3,$4,$5,0*
20,1,$1+$1,$4,$5,$6,$7,0*
20,1,$1+$1,$6,$7,$8,$9,0*
20,1,$1+$1,$8,$9,$2,$3,0*%
G04 Aperture macros list end*
%TA.AperFunction,ComponentPad*%
%ADD10R,1.500000X1.500000*%
%TD*%
%TA.AperFunction,ComponentPad*%
%ADD11C,1.950000*%
%TD*%
%TA.AperFunction,ComponentPad*%
%ADD12C,1.500000*%
%TD*%
%TA.AperFunction,ComponentPad*%
%ADD13C,9.500000*%
%TD*%
%TA.AperFunction,ComponentPad*%
%ADD14R,1.700000X1.700000*%
%TD*%
%TA.AperFunction,ComponentPad*%
%ADD15C,1.700000*%
%TD*%
%TA.AperFunction,ComponentPad*%
%ADD16C,1.217000*%
%TD*%
%TA.AperFunction,ComponentPad*%
%ADD17R,1.478000X1.478000*%
%TD*%
%TA.AperFunction,ComponentPad*%
%ADD18C,1.478000*%
%TD*%
%TA.AperFunction,ComponentPad*%
%ADD19C,3.450000*%
%TD*%
%TA.AperFunction,ComponentPad*%
%ADD20C,2.775000*%
%TD*%
%TA.AperFunction,ComponentPad*%
%ADD21C,3.000000*%
%TD*%
%TA.AperFunction,SMDPad,CuDef*%
%ADD22RoundRect,0.250000X-1.100000X0.412500X-1.100000X-0.412500X1.100000X-0.412500X1.100000X0.412500X0*%
%TD*%
%TA.AperFunction,SMDPad,CuDef*%
%ADD23R,3.200000X2.250000*%
%TD*%
%TA.AperFunction,ViaPad*%
%ADD24C,0.600000*%
%TD*%
%TA.AperFunction,Conductor*%
%ADD25C,0.250000*%
%TD*%
%TA.AperFunction,Conductor*%
%ADD26C,0.500000*%
%TD*%
%TA.AperFunction,Conductor*%
%ADD27C,1.000000*%
%TD*%
G04 APERTURE END LIST*
D10*
%TO.P,K2,1,COIL_1_1*%
%TO.N,Net-(IC10-C1{slash}A1)*%
X225225000Y-30200000D03*
D11*
%TO.P,K2,2,NO_2*%
%TO.N,/VIN_FUSED_Z*%
X213025000Y-30200000D03*
%TO.P,K2,3,NC_3*%
%TO.N,unconnected-(K2-NC-Pad3)*%
X213025000Y-42200000D03*
D12*
%TO.P,K2,4,COIL_2_4*%
%TO.N,/+5V_A*%
X225225000Y-42200000D03*
D11*
%TO.P,K2,5,COM_5*%
%TO.N,/O_+VIN_SWITCHED_Z*%
X227225000Y-36200000D03*
%TD*%
D13*
%TO.P,H2,1*%
%TO.N,N/C*%
X5500000Y-39500000D03*
%TD*%
D14*
%TO.P,J7,1,Pin_1_1*%
%TO.N,/HALL_U_ENCODER_SIN_IN_A*%
X206890000Y-39725000D03*
D15*
%TO.P,J7,2,Pin_2_2*%
%TO.N,/+5V_A*%
X206890000Y-42265000D03*
%TO.P,J7,3,Pin_3_3*%
%TO.N,/HALL_V_ENCODER_COS_IN_A*%
X204350000Y-39725000D03*
%TO.P,J7,4,Pin_4_4*%
%TO.N,/GND_A*%
X204350000Y-42265000D03*
%TO.P,J7,5,Pin_5_5*%
%TO.N,/HALL_W_IN_A*%
X201810000Y-39725000D03*
%TO.P,J7,6,Pin_6_6*%
%TO.N,/GND_A*%
X201810000Y-42265000D03*
%TO.P,J7,7,Pin_7_7*%
%TO.N,/MOTOR_TEMP_IN_A*%
X199270000Y-39725000D03*
%TO.P,J7,8,Pin_8_8*%
%TO.N,/GND_A*%
X199270000Y-42265000D03*
%TO.P,J7,9,Pin_9_9*%
%TO.N,/THROTTLE1_IN_A*%
X196730000Y-39725000D03*
%TO.P,J7,10,Pin_10_10*%
%TO.N,/GND_A*%
X196730000Y-42265000D03*
%TO.P,J7,11,Pin_11_11*%
%TO.N,/THROTTLE2_IN_A*%
X194190000Y-39725000D03*
%TO.P,J7,12,Pin_12_12*%
%TO.N,/GND_A*%
X194190000Y-42265000D03*
%TO.P,J7,13,Pin_13_13*%
%TO.N,/DOUT1_A*%
X191650000Y-39725000D03*
%TO.P,J7,14,Pin_14_14*%
%TO.N,/DOUT2_A*%
X191650000Y-42265000D03*
%TO.P,J7,15,Pin_15_15*%
%TO.N,/DOUT3_A*%
X189110000Y-39725000D03*
%TO.P,J7,16,Pin_16_16*%
%TO.N,/DOUT4_A*%
X189110000Y-42265000D03*
%TD*%
D13*
%TO.P,H6,1*%
%TO.N,N/C*%
X180000000Y-39500000D03*
%TD*%
%TO.P,H4,1*%
%TO.N,N/C*%
X85000000Y-39500000D03*
%TD*%
%TO.P,H8,1*%
%TO.N,N/C*%
X254500000Y-39500000D03*
%TD*%
D16*
%TO.P,F1,1*%
%TO.N,/I_+VIN_Z*%
X178450000Y-14000000D03*
%TO.P,F1,2*%
%TO.N,Net-(D3-A)*%
X183550000Y-14000000D03*
%TD*%
D13*
%TO.P,H1,1*%
%TO.N,N/C*%
X5500000Y-5500000D03*
%TD*%
%TO.P,H3,1*%
%TO.N,N/C*%
X85000000Y-5500000D03*
%TD*%
%TO.P,H5,1*%
%TO.N,N/C*%
X180000000Y-5500000D03*
%TD*%
D17*
%TO.P,J1,1,VBUS_1*%
%TO.N,unconnected-(J1-VBUS-Pad1)*%
X182750000Y-27830000D03*
D18*
%TO.P,J1,2,D-_2*%
%TO.N,/USB_DM*%
X185250000Y-27830000D03*
%TO.P,J1,3,D+_3*%
%TO.N,/USB_DP*%
X185250000Y-24630000D03*
%TO.P,J1,4,GND_4*%
%TO.N,/GND_A*%
X182750000Y-24630000D03*
D19*
%TO.P,J1,MH1,MH1_MH1*%
X190020000Y-25330000D03*
%TO.P,J1,MH2,MH2_MH2*%
X177980000Y-25330000D03*
%TD*%
D20*
%TO.P,J6,1,1_1*%
%TO.N,/CAN1_GND*%
X113325000Y-18000000D03*
%TO.P,J6,2,2_2*%
%TO.N,/CAN1_LOW*%
X117325000Y-18000000D03*
%TO.P,J6,3,3_3*%
%TO.N,/CAN1_HIGH*%
X121325000Y-18000000D03*
%TO.P,J6,4,4_4*%
%TO.N,/CAN1_+5V*%
X125325000Y-18000000D03*
%TO.P,J6,5,5_5*%
%TO.N,unconnected-(J6-Pad5)*%
X129325000Y-18000000D03*
%TO.P,J6,6,6_6*%
%TO.N,/THROTTLE2_IN_A*%
X133325000Y-18000000D03*
%TO.P,J6,7,7_7*%
%TO.N,/THROTTLE1_IN_A*%
X137325000Y-18000000D03*
%TO.P,J6,8,8_8*%
%TO.N,/GND_A*%
X141325000Y-18000000D03*
%TO.P,J6,9,9_9*%
%TO.N,/+5V_A*%
X145325000Y-18000000D03*
%TO.P,J6,10,10_10*%
%TO.N,/DIN_2_W*%
X149325000Y-18000000D03*
%TO.P,J6,11,11_11*%
%TO.N,unconnected-(J6-Pad11)*%
X153325000Y-18000000D03*
%TO.P,J6,12,12_12*%
%TO.N,/I_+VIN_Z*%
X157325000Y-18000000D03*
%TO.P,J6,13,13_13*%
%TO.N,/CAN1_JUMPER_A*%
X115325000Y-22000000D03*
%TO.P,J6,14,14_14*%
%TO.N,/CAN1_JUMPER_B*%
X119325000Y-22000000D03*
%TO.P,J6,15,15_15*%
%TO.N,/CAN2_JUMPER_A*%
X123325000Y-22000000D03*
%TO.P,J6,16,16_16*%
%TO.N,/CAN2_JUMPER_B*%
X127325000Y-22000000D03*
%TO.P,J6,17,17_17*%
%TO.N,/+12V_SWITCHED_A*%
X131325000Y-22000000D03*
%TO.P,J6,18,18_18*%
%TO.N,/DIN_1_W*%
X135325000Y-22000000D03*
%TO.P,J6,19,19_19*%
%TO.N,/GND_A*%
X139325000Y-22000000D03*
%TO.P,J6,20,20_20*%
%TO.N,/DIN_1_W*%
X143325000Y-22000000D03*
%TO.P,J6,21,21_21*%
%TO.N,/GND_A*%
X147325000Y-22000000D03*
%TO.P,J6,22,22_22*%
%TO.N,unconnected-(J6-Pad22)*%
X151325000Y-22000000D03*
%TO.P,J6,23,23_23*%
%TO.N,/O_PRECHARGE_DC_LINK_+_Z*%
X155325000Y-22000000D03*
%TO.P,J6,24,24_24*%
%TO.N,/CAN2_GND*%
X113325000Y-26000000D03*
%TO.P,J6,25,25_25*%
%TO.N,/CAN2_LOW*%
X117325000Y-26000000D03*
%TO.P,J6,26,26_26*%
%TO.N,/CAN2_HIGH*%
X121325000Y-26000000D03*
%TO.P,J6,27,27_27*%
%TO.N,/CAN2_+5V*%
X125325000Y-26000000D03*
%TO.P,J6,28,28_28*%
%TO.N,/MOTOR_TEMP_IN_A*%
X129325000Y-26000000D03*
%TO.P,J6,29,29_29*%
%TO.N,/HALL_W_IN_A*%
X133325000Y-26000000D03*
%TO.P,J6,30,30_30*%
%TO.N,/HALL_V_ENCODER_COS_IN_A*%
X137325000Y-26000000D03*
%TO.P,J6,31,31_31*%
%TO.N,/HALL_U_ENCODER_SIN_IN_A*%
X141325000Y-26000000D03*
%TO.P,J6,32,32_32*%
%TO.N,/+5V_A*%
X145325000Y-26000000D03*
%TO.P,J6,33,33_33*%
%TO.N,unconnected-(J6-Pad33)*%
X149325000Y-26000000D03*
%TO.P,J6,34,34_34*%
%TO.N,/O_+VIN_SWITCHED_Z*%
X153325000Y-26000000D03*
%TO.P,J6,35,35_35*%
%TO.N,/GND_Z*%
X157325000Y-26000000D03*
D21*
%TO.P,J6,MH1,MH1_MH1*%
%TO.N,unconnected-(J6-PadMH1)*%
X103625000Y-11200000D03*
%TO.P,J6,MH2,MH2_MH2*%
%TO.N,unconnected-(J6-PadMH2)*%
X102125000Y-29300000D03*
%TO.P,J6,MH3,MH3_MH3*%
%TO.N,unconnected-(J6-PadMH3)*%
X168525000Y-29300000D03*
%TO.P,J6,MH4,MH4_MH4*%
%TO.N,unconnected-(J6-PadMH4)*%
X167025000Y-11200000D03*
%TD*%
D13*
%TO.P,H7,1*%
%TO.N,N/C*%
X254500000Y-5500000D03*
%TD*%
D14*
%TO.P,J13,1,Pin_1_1*%
%TO.N,/CAN2_JUMPER_A*%
X53960000Y-43000000D03*
D15*
%TO.P,J13,2,Pin_2_2*%
%TO.N,/CAN2_JUMPER_B*%
X53960000Y-40460000D03*
%TO.P,J13,3,Pin_3_3*%
%TO.N,/CAN2_+5V*%
X56500000Y-43000000D03*
%TO.P,J13,4,Pin_4_4*%
%TO.N,/CAN2_GND*%
X56500000Y-40460000D03*
%TO.P,J13,5,Pin_5_5*%
%TO.N,/CAN2_LOW*%
X59040000Y-43000000D03*
%TO.P,J13,6,Pin_6_6*%
%TO.N,/CAN2_HIGH*%
X59040000Y-40460000D03*
%TD*%
D14*
%TO.P,J14,1,Pin_1_1*%
%TO.N,/GND_A*%
X149000000Y-40000000D03*
D15*
%TO.P,J14,2,Pin_2_2*%
%TO.N,/MP_SWO*%
X149000000Y-42540000D03*
%TO.P,J14,3,Pin_3_3*%
%TO.N,/MP_BOOTSEL*%
X151540000Y-40000000D03*
%TO.P,J14,4,Pin_4_4*%
%TO.N,/MP_SWCLK*%
X151540000Y-42540000D03*
%TO.P,J14,5,Pin_5_5*%
%TO.N,/MP_SWDIO*%
X154080000Y-40000000D03*
%TO.P,J14,6,Pin_6_6*%
%TO.N,/MP_RESET*%
X154080000Y-42540000D03*
%TO.P,J14,7,Pin_7_7*%
%TO.N,/GND_A*%
X156620000Y-40000000D03*
%TO.P,J14,8,Pin_8_8*%
%TO.N,/USB_DP*%
X156620000Y-42540000D03*
%TO.P,J14,9,Pin_9_9*%
%TO.N,/MD_FIBER_TX*%
X159160000Y-40000000D03*
%TO.P,J14,10,Pin_10_10*%
%TO.N,/MD_FIBER_RX*%
X159160000Y-42540000D03*
%TO.P,J14,11,Pin_11_11*%
%TO.N,/FAULT*%
X161700000Y-40000000D03*
%TO.P,J14,12,Pin_12_12*%
%TO.N,/MD_FIBER_SYNC*%
X161700000Y-42540000D03*
%TO.P,J14,13,Pin_13_13*%
%TO.N,/USB_DM*%
X164240000Y-40000000D03*
%TO.P,J14,14,Pin_14_14*%
%TO.N,/+3.3V_A*%
X164240000Y-42540000D03*
%TO.P,J14,15,Pin_15_15*%
%TO.N,/CP_RESET*%
X166780000Y-40000000D03*
%TO.P,J14,16,Pin_16_16*%
%TO.N,/CP_SWDIO*%
X166780000Y-42540000D03*
%TO.P,J14,17,Pin_17_17*%
%TO.N,/CP_SWCLK*%
X169320000Y-40000000D03*
%TO.P,J14,18,Pin_18_18*%
%TO.N,/CP_BOOTSEL*%
X169320000Y-42540000D03*
%TO.P,J14,19,Pin_19_19*%
%TO.N,/GND_A*%
X171860000Y-40000000D03*
%TO.P,J14,20,Pin_20_20*%
%TO.N,/+12V_A*%
X171860000Y-42540000D03*
%TD*%
D14*
%TO.P,J10,1,Pin_1_1*%
%TO.N,/CAN1_JUMPER_A*%
X53960000Y-5500000D03*
D15*
%TO.P,J10,2,Pin_2_2*%
%TO.N,/CAN1_JUMPER_B*%
X53960000Y-2960000D03*
%TO.P,J10,3,Pin_3_3*%
%TO.N,/CAN1_+5V*%
X56500000Y-5500000D03*
%TO.P,J10,4,Pin_4_4*%
%TO.N,/CAN1_GND*%
X56500000Y-2960000D03*
%TO.P,J10,5,Pin_5_5*%
%TO.N,/CAN1_LOW*%
X59040000Y-5500000D03*
%TO.P,J10,6,Pin_6_6*%
%TO.N,/CAN1_HIGH*%
X59040000Y-2960000D03*
%TD*%
D14*
%TO.P,J12,1,Pin_1_1*%
%TO.N,/DIN_1_W*%
X254725000Y-13610000D03*
D15*
%TO.P,J12,2,Pin_2_2*%
%TO.N,/GND_A*%
X257265000Y-13610000D03*
%TO.P,J12,3,Pin_3_3*%
%TO.N,/DIN_2_W*%
X254725000Y-16150000D03*
%TO.P,J12,4,Pin_4_4*%
%TO.N,/GND_A*%
X257265000Y-16150000D03*
%TO.P,J12,5,Pin_5_5*%
%TO.N,/DIN_3_W*%
X254725000Y-18690000D03*
%TO.P,J12,6,Pin_6_6*%
%TO.N,/GND_A*%
X257265000Y-18690000D03*
%TO.P,J12,7,Pin_7_7*%
%TO.N,/DIN_4_W*%
X254725000Y-21230000D03*
%TO.P,J12,8,Pin_8_8*%
%TO.N,/GND_A*%
X257265000Y-21230000D03*
%TO.P,J12,9,Pin_9_9*%
%TO.N,/DIN_5_W*%
X254725000Y-23770000D03*
%TO.P,J12,10,Pin_10_10*%
%TO.N,/GND_A*%
X257265000Y-23770000D03*
%TO.P,J12,11,Pin_11_11*%
%TO.N,/DIN_6_W*%
X254725000Y-26310000D03*
%TO.P,J12,12,Pin_12_12*%
%TO.N,/GND_A*%
X257265000Y-26310000D03*
%TO.P,J12,13,Pin_13_13*%
%TO.N,/DIN_7_W*%
X254725000Y-28850000D03*
%TO.P,J12,14,Pin_14_14*%
%TO.N,/GND_A*%
X257265000Y-28850000D03*
%TO.P,J12,15,Pin_15_15*%
%TO.N,/DIN_8_W*%
X254725000Y-31390000D03*
%TO.P,J12,16,Pin_16_16*%
%TO.N,/GND_A*%
X257265000Y-31390000D03*
%TD*%
D11*
%TO.P,PS3,1,+VIN_1*%
%TO.N,/VIN_FUSED_Z*%
X199595902Y-21640000D03*
%TO.P,PS3,2,-VIN_2*%
%TO.N,/GND_Z*%
X199595902Y-16560000D03*
%TO.P,PS3,3,+VOUT_3*%
%TO.N,/+12V_A*%
X245315902Y-24120000D03*
%TO.P,PS3,4,TRIM_4*%
%TO.N,unconnected-(PS3-TRIM-Pad4)*%
X245315902Y-3800000D03*
%TO.P,PS3,5,-VOUT_5*%
%TO.N,/GND_A*%
X245315902Y-13960000D03*
%TO.P,PS3,6,REMOTE_ON/OFF_6*%
%TO.N,unconnected-(PS3-REMOTE_ON{slash}OFF-Pad6)*%
X199595902Y-6400000D03*
%TD*%
D10*
%TO.P,K1,1,COIL_1_1*%
%TO.N,Net-(IC10-C2{slash}A2)*%
X245225000Y-30200000D03*
D11*
%TO.P,K1,2,NO_2*%
%TO.N,/VIN_FUSED_Z*%
X233025000Y-30200000D03*
%TO.P,K1,3,NC_3*%
%TO.N,unconnected-(K1-NC-Pad3)*%
X233025000Y-42200000D03*
D12*
%TO.P,K1,4,COIL_2_4*%
%TO.N,/+5V_A*%
X245225000Y-42200000D03*
D11*
%TO.P,K1,5,COM_5*%
%TO.N,/O_PRECHARGE_DC_LINK_+_Z*%
X247225000Y-36200000D03*
%TD*%
D14*
%TO.P,J2,1,Pin_1_1*%
%TO.N,/MD_FIBER_TX*%
X81295000Y-20373999D03*
D15*
%TO.P,J2,2,Pin_2_2*%
%TO.N,/MD_FIBER_RX*%
X81295000Y-22913999D03*
%TO.P,J2,3,Pin_3_3*%
%TO.N,/+5V_A*%
X83835000Y-20373999D03*
%TO.P,J2,4,Pin_4_4*%
%TO.N,/+12V_A*%
X83835000Y-22913999D03*
%TO.P,J2,5,Pin_5_5*%
%TO.N,/GND_A*%
X86375000Y-20373999D03*
%TO.P,J2,6,Pin_6_6*%
X86375000Y-22913999D03*
%TO.P,J2,7,Pin_7_7*%
%TO.N,/FAULT*%
X88915000Y-20373999D03*
%TO.P,J2,8,Pin_8_8*%
%TO.N,/MD_FIBER_SYNC*%
X88915000Y-22913999D03*
%TD*%
D22*
%TO.P,C189,1*%
%TO.N,/GND_A*%
X246800000Y-18237500D03*
%TO.P,C189,2*%
%TO.N,/+12V_A*%
X246800000Y-21362500D03*
%TD*%
D23*
%TO.P,D4,1,K_1*%
%TO.N,/VIN_FUSED_Z*%
X190000000Y-2300000D03*
%TO.P,D4,2,A_2*%
%TO.N,Net-(D3-A)*%
X190000000Y-9200000D03*
%TD*%
D24*
%TO.N,Net-(IC10-C1{slash}A1)*%
X208500000Y-35000000D03*
%TO.N,/VIN_FUSED_Z*%
X190000000Y-2300000D03*
%TO.N,/+5V_A*%
X206000000Y-36500000D03*
X203500000Y-36000000D03*
%TO.N,/+12V_A*%
X114000000Y-43000000D03*
X98000000Y-43000000D03*
X138000000Y-40000000D03*
X118000000Y-40000000D03*
X192000000Y-37000000D03*
X119000000Y-40000000D03*
X120000000Y-40000000D03*
X106000000Y-43000000D03*
%TO.N,/GND_A*%
X106000000Y-37000000D03*
X45000000Y-2500000D03*
X15000000Y-42500000D03*
X50000000Y-42500000D03*
X47500000Y-42500000D03*
X147500000Y-12500000D03*
X20000000Y-2500000D03*
X2500000Y-12500000D03*
X210000000Y-42500000D03*
X122500000Y-2500000D03*
X112500000Y-2500000D03*
X92500000Y-42500000D03*
X77500000Y-25000000D03*
X2500000Y-17500000D03*
X15000000Y-2500000D03*
X2500000Y-20000000D03*
X22500000Y-42500000D03*
X2500000Y-25000000D03*
X37500000Y-2500000D03*
X25000000Y-2500000D03*
X25000000Y-42500000D03*
X250000000Y-20000000D03*
X77500000Y-2500000D03*
X147500000Y-10000000D03*
X114000000Y-37000000D03*
X242500000Y-42500000D03*
X2500000Y-32500000D03*
X77500000Y-17500000D03*
X20000000Y-42500000D03*
X92500000Y-2500000D03*
X40000000Y-42500000D03*
X120000000Y-2500000D03*
X195500000Y-27500000D03*
X30000000Y-42500000D03*
X250000000Y-32500000D03*
X17500000Y-42500000D03*
X133000000Y-43500000D03*
X45000000Y-42500000D03*
X220000000Y-42500000D03*
X100000000Y-2500000D03*
X237500000Y-35000000D03*
X237500000Y-40000000D03*
X35000000Y-2500000D03*
X107500000Y-2500000D03*
X250000000Y-25000000D03*
X135000000Y-2500000D03*
X40000000Y-2500000D03*
X240000000Y-42500000D03*
X217500000Y-30000000D03*
X12500000Y-2500000D03*
X143000000Y-40000000D03*
X90000000Y-35000000D03*
X98000000Y-37000000D03*
X27500000Y-2500000D03*
X22500000Y-2500000D03*
X132500000Y-2500000D03*
X247500000Y-42500000D03*
X127500000Y-2500000D03*
X237500000Y-37500000D03*
X32500000Y-42500000D03*
X2500000Y-30000000D03*
X32500000Y-2500000D03*
X77500000Y-20000000D03*
X77500000Y-22500000D03*
X47500000Y-2500000D03*
X115000000Y-2500000D03*
X130000000Y-2500000D03*
X42500000Y-42500000D03*
X2500000Y-15000000D03*
X102500000Y-2500000D03*
X247500000Y-10000000D03*
X125000000Y-2500000D03*
X2500000Y-22500000D03*
X2500000Y-27500000D03*
X220000000Y-30000000D03*
X117500000Y-2500000D03*
X17500000Y-2500000D03*
X140000000Y-2500000D03*
X247500000Y-2500000D03*
X50000000Y-2500000D03*
X37500000Y-42500000D03*
X77500000Y-42500000D03*
X147500000Y-7500000D03*
X30000000Y-2500000D03*
X95000000Y-2500000D03*
X77500000Y-27500000D03*
X97500000Y-2500000D03*
X105000000Y-2500000D03*
X35000000Y-42500000D03*
X237500000Y-42500000D03*
X142500000Y-2500000D03*
X200500000Y-36500000D03*
X201000000Y-33425000D03*
X137500000Y-2500000D03*
X110000000Y-2500000D03*
X42500000Y-2500000D03*
X27500000Y-42500000D03*
X145000000Y-5000000D03*
X12500000Y-42500000D03*
%TO.N,/HALL_U_ENCODER_SIN_IN_A*%
X141500000Y-30500000D03*
%TO.N,/HALL_V_ENCODER_COS_IN_A*%
X138000000Y-31500000D03*
%TO.N,/HALL_W_IN_A*%
X133500000Y-32500000D03*
%TO.N,/MOTOR_TEMP_IN_A*%
X129500000Y-33500000D03*
%TO.N,/THROTTLE1_IN_A*%
X139500000Y-29500000D03*
X191000000Y-34500000D03*
%TO.N,/THROTTLE2_IN_A*%
X189500000Y-34500000D03*
X135500000Y-30500000D03*
%TO.N,/DOUT4_A*%
X130040000Y-42280000D03*
X168000000Y-38000000D03*
X133000000Y-35000000D03*
X133000000Y-41000000D03*
X186000000Y-35000000D03*
%TO.N,Net-(D3-A)*%
X190000000Y-9200000D03*
%TO.N,/+12V_SWITCHED_A*%
X130040000Y-38720000D03*
%TO.N,/USB_DP*%
X164000000Y-38500000D03*
%TO.N,/CAN1_GND*%
X113000000Y-7000000D03*
%TO.N,/DIN_2_W*%
X249000000Y-28500000D03*
X207500000Y-33500000D03*
X148000000Y-31000000D03*
%TO.N,/CAN1_JUMPER_B*%
X119000000Y-11000000D03*
%TO.N,/CAN2_JUMPER_A*%
X123500000Y-33000000D03*
%TO.N,/CAN2_JUMPER_B*%
X127500000Y-28000000D03*
%TO.N,/DIN_1_W*%
X178000000Y-28500000D03*
X190000000Y-28500000D03*
X248000000Y-27500000D03*
X208500000Y-32500000D03*
X144000000Y-28500000D03*
%TO.N,/CAN2_GND*%
X113000000Y-29000000D03*
%TO.N,/CAN2_LOW*%
X117500000Y-32000000D03*
%TO.N,/CAN2_HIGH*%
X121500000Y-30000000D03*
%TO.N,/CAN2_+5V*%
X125500000Y-31000000D03*
%TO.N,/MD_FIBER_TX*%
X91500000Y-20000000D03*
X159160000Y-37500000D03*
X91500000Y-17500000D03*
X127500000Y-31500000D03*
%TO.N,/MD_FIBER_RX*%
X94500000Y-21000000D03*
X94500000Y-24000000D03*
X157795000Y-38500000D03*
X127500000Y-32500000D03*
%TO.N,/FAULT*%
X160500000Y-37500000D03*
X127500000Y-30500000D03*
%TO.N,/MD_FIBER_SYNC*%
X163000000Y-37500000D03*
X127500000Y-29500000D03*
X93500000Y-23000000D03*
X93500000Y-18000000D03*
%TO.N,Net-(IC10-C2{slash}A2)*%
X210500000Y-29000000D03*
%TD*%
%TO.N,Net-(IC10-C1{slash}A1)*%
D25*
X208500000Y-35000000D02*
X220425000Y-35000000D01*
X220425000Y-35000000D02*
X225225000Y-30200000D01*
%TO.N,/+12V_A*%
D26*
X245315902Y-24120000D02*
X245315902Y-22846598D01*
X245315902Y-22846598D02*
X246800000Y-21362500D01*
%TO.N,/HALL_U_ENCODER_SIN_IN_A*%
D25*
X141325000Y-26000000D02*
X141325000Y-30325000D01*
X141325000Y-30325000D02*
X141500000Y-30500000D01*
%TO.N,/HALL_V_ENCODER_COS_IN_A*%
X138000000Y-26675000D02*
X137325000Y-26000000D01*
X138000000Y-31500000D02*
X138000000Y-26675000D01*
%TO.N,/HALL_W_IN_A*%
X133500000Y-26175000D02*
X133325000Y-26000000D01*
X133500000Y-32500000D02*
X133500000Y-26175000D01*
%TO.N,/MOTOR_TEMP_IN_A*%
X129500000Y-33500000D02*
X129500000Y-26175000D01*
X129500000Y-26175000D02*
X129325000Y-26000000D01*
%TO.N,/THROTTLE1_IN_A*%
X139500000Y-29500000D02*
X139500000Y-25500000D01*
X139500000Y-25500000D02*
X137500000Y-23500000D01*
X137500000Y-19346841D02*
X137325000Y-19171841D01*
X137500000Y-23500000D02*
X137500000Y-19346841D01*
%TO.N,/THROTTLE2_IN_A*%
X133325000Y-23325000D02*
X133325000Y-18000000D01*
X135500000Y-30500000D02*
X135500000Y-25500000D01*
X135500000Y-25500000D02*
X133325000Y-23325000D01*
%TO.N,/DOUT4_A*%
X133000000Y-35000000D02*
X133000000Y-41000000D01*
%TO.N,/+12V_SWITCHED_A*%
D26*
X130040000Y-38720000D02*
X130040000Y-37720000D01*
X131325000Y-36435000D02*
X131325000Y-22000000D01*
X130040000Y-37720000D02*
X131325000Y-36435000D01*
%TO.N,/USB_DM*%
D25*
X185250000Y-29250000D02*
X184000000Y-30500000D01*
X185250000Y-27830000D02*
X185250000Y-29250000D01*
X173740000Y-30500000D02*
X164240000Y-40000000D01*
X184000000Y-30500000D02*
X173740000Y-30500000D01*
%TO.N,/USB_DP*%
X174000000Y-27500000D02*
X180500000Y-27500000D01*
X183880000Y-26000000D02*
X185250000Y-24630000D01*
X164000000Y-37500000D02*
X174000000Y-27500000D01*
X182000000Y-26000000D02*
X183880000Y-26000000D01*
X164000000Y-38500000D02*
X164000000Y-37500000D01*
X180500000Y-27500000D02*
X182000000Y-26000000D01*
%TO.N,/CAN1_GND*%
X113000000Y-7000000D02*
X113000000Y-11850000D01*
X113325000Y-12175000D02*
X113325000Y-18000000D01*
X113000000Y-11850000D02*
X113325000Y-12175000D01*
%TO.N,/DIN_2_W*%
X147500000Y-24998420D02*
X149325000Y-23173420D01*
X147500000Y-30500000D02*
X147500000Y-24998420D01*
X148000000Y-31000000D02*
X147500000Y-30500000D01*
X149325000Y-23173420D02*
X149325000Y-18000000D01*
%TO.N,/CAN1_JUMPER_B*%
X119325000Y-11175000D02*
X119150000Y-11000000D01*
X119150000Y-11000000D02*
X119000000Y-11000000D01*
X119325000Y-22000000D02*
X119325000Y-11175000D01*
%TO.N,/CAN2_JUMPER_A*%
X123500000Y-33000000D02*
X123325000Y-32825000D01*
X123325000Y-32825000D02*
X123325000Y-22000000D01*
%TO.N,/CAN2_JUMPER_B*%
X127325000Y-27825000D02*
X127325000Y-22000000D01*
X127500000Y-28000000D02*
X127325000Y-27825000D01*
%TO.N,/DIN_1_W*%
X144000000Y-28500000D02*
X143325000Y-27825000D01*
X143325000Y-27825000D02*
X143325000Y-22000000D01*
%TO.N,/CAN2_GND*%
X113000000Y-29000000D02*
X113325000Y-28675000D01*
X113325000Y-28675000D02*
X113325000Y-26000000D01*
%TO.N,/CAN2_LOW*%
X117500000Y-31000000D02*
X117325000Y-30825000D01*
X117325000Y-30825000D02*
X117325000Y-26000000D01*
X117500000Y-32000000D02*
X117500000Y-31000000D01*
%TO.N,/CAN2_HIGH*%
X121325000Y-28825000D02*
X121325000Y-26000000D01*
X121500000Y-30000000D02*
X121500000Y-29000000D01*
X121500000Y-29000000D02*
X121325000Y-28825000D01*
%TO.N,/CAN2_+5V*%
X125325000Y-30825000D02*
X125325000Y-26000000D01*
X125500000Y-31000000D02*
X125325000Y-30825000D01*
%TO.N,/GND_Z*%
D27*
X199595902Y-16560000D02*
X171440000Y-16560000D01*
X171440000Y-16560000D02*
X162000000Y-26000000D01*
X162000000Y-26000000D02*
X157325000Y-26000000D01*
%TO.N,/MD_FIBER_TX*%
D25*
X91500000Y-20000000D02*
X91500000Y-17500000D01*
X159160000Y-37500000D02*
X159160000Y-40000000D01*
%TO.N,/MD_FIBER_RX*%
X157795000Y-38500000D02*
X157795000Y-41175000D01*
X157795000Y-41175000D02*
X159160000Y-42540000D01*
X94500000Y-21000000D02*
X94500000Y-24000000D01*
%TO.N,/FAULT*%
X160500000Y-37500000D02*
X161700000Y-38700000D01*
X161700000Y-38700000D02*
X161700000Y-40000000D01*
%TO.N,/MD_FIBER_SYNC*%
X163000000Y-41240000D02*
X161700000Y-42540000D01*
X163000000Y-37500000D02*
X163000000Y-41240000D01*
X93500000Y-18000000D02*
X93500000Y-23000000D01*
%TO.N,Net-(IC10-C2{slash}A2)*%
X210500000Y-29000000D02*
X211500000Y-28000000D01*
X243025000Y-28000000D02*
X245225000Y-30200000D01*
X211500000Y-28000000D02*
X243025000Y-28000000D01*
%TD*%
%TA.AperFunction,Conductor*%
%TO.N,/GND_A*%
G36*
X81783293Y-520185D02*
G01*
X81829048Y-572989D01*
X81838992Y-642147D01*
X81809967Y-705703D01*
X81789139Y-724818D01*
X81437160Y-980545D01*
X81437133Y-980566D01*
X81093562Y-1274003D01*
X81093536Y-1274027D01*
X80774027Y-1593536D01*
X80774003Y-1593562D01*
X80480566Y-1937133D01*
X80480545Y-1937160D01*
X80214946Y-2302726D01*
X80214938Y-2302737D01*
X79978850Y-2687997D01*
X79978847Y-2688002D01*
X79773692Y-3090642D01*
X79600765Y-3508123D01*
X79461135Y-3937865D01*
X79461128Y-3937888D01*
X79443163Y-4012718D01*
X79360051Y-4358909D01*
X79355642Y-4377272D01*
X79284955Y-4823570D01*
X79284953Y-4823589D01*
X79249500Y-5274056D01*
X79249500Y-5725943D01*
X79284953Y-6176410D01*
X79284955Y-6176429D01*
X79340873Y-6529481D01*
X79355643Y-6622733D01*
X79419983Y-6890728D01*
X79460887Y-7061109D01*
X79461131Y-7062123D01*
X79471553Y-7094199D01*
X79600765Y-7491876D01*
X79687781Y-7701951D01*
X79773693Y-7909360D01*
X79978840Y-8311984D01*
X79978847Y-8311997D01*
X79978850Y-8312002D01*
X80214938Y-8697262D01*
X80214943Y-8697269D01*
X80214945Y-8697272D01*
X80352209Y-8886199D01*
X80480545Y-9062839D01*
X80480566Y-9062866D01*
X80774003Y-9406437D01*
X80774013Y-9406448D01*
X80774020Y-9406456D01*
X81093544Y-9725980D01*
X81093552Y-9725987D01*
X81093562Y-9725996D01*
X81437133Y-10019433D01*
X81437147Y-10019444D01*
X81437153Y-10019449D01*
X81802728Y-10285055D01*
X81802732Y-10285057D01*
X81802737Y-10285061D01*
X82187997Y-10521149D01*
X82188002Y-10521152D01*
X82188007Y-10521154D01*
X82188016Y-10521160D01*
X82590640Y-10726307D01*
X82957842Y-10878407D01*
X83008123Y-10899234D01*
X83117395Y-10934738D01*
X83437877Y-11038869D01*
X83877267Y-11144357D01*
X84323580Y-11215046D01*
X84774062Y-11250500D01*
X84774070Y-11250500D01*
X85225930Y-11250500D01*
X85225938Y-11250500D01*
X85676420Y-11215046D01*
X86122733Y-11144357D01*
X86475905Y-11059568D01*
X101124500Y-11059568D01*
X101124500Y-11340431D01*
X101155942Y-11619494D01*
X101155945Y-11619512D01*
X101218439Y-11893317D01*
X101218443Y-11893329D01*
X101311200Y-12158411D01*
X101433053Y-12411442D01*
X101433055Y-12411445D01*
X101582477Y-12649248D01*
X101757584Y-12868825D01*
X101956175Y-13067416D01*
X102175752Y-13242523D01*
X102413555Y-13391945D01*
X102666592Y-13513801D01*
X102865680Y-13583465D01*
X102931670Y-13606556D01*
X102931682Y-13606560D01*
X103205491Y-13669055D01*
X103205497Y-13669055D01*
X103205505Y-13669057D01*
X103391547Y-13690018D01*
X103484569Y-13700499D01*
X103484572Y-13700500D01*
X103484575Y-13700500D01*
X103765428Y-13700500D01*
X103765429Y-13700499D01*
X103908055Y-13684429D01*
X104044494Y-13669057D01*
X104044499Y-13669056D01*
X104044509Y-13669055D01*
X104318318Y-13606560D01*
X104583408Y-13513801D01*
X104836445Y-13391945D01*
X105074248Y-13242523D01*
X105293825Y-13067416D01*
X105492416Y-12868825D01*
X105667523Y-12649248D01*
X105816945Y-12411445D01*
X105938801Y-12158408D01*
X106031560Y-11893318D01*
X106094055Y-11619509D01*
X106125500Y-11340425D01*
X106125500Y-11059575D01*
X106115018Y-10966547D01*
X106094057Y-10780505D01*
X106094054Y-10780487D01*
X106034864Y-10521160D01*
X106031560Y-10506682D01*
X106029493Y-10500776D01*
X105988294Y-10383036D01*
X105938801Y-10241592D01*
X105816945Y-9988555D01*
X105667523Y-9750752D01*
X105492416Y-9531175D01*
X105293825Y-9332584D01*
X105074248Y-9157477D01*
X104836445Y-9008055D01*
X104836442Y-9008053D01*
X104583411Y-8886200D01*
X104318329Y-8793443D01*
X104318317Y-8793439D01*
X104044512Y-8730945D01*
X104044494Y-8730942D01*
X103765431Y-8699500D01*
X103765425Y-8699500D01*
X103484575Y-8699500D01*
X103484568Y-8699500D01*
X103205505Y-8730942D01*
X103205487Y-8730945D01*
X102931682Y-8793439D01*
X102931670Y-8793443D01*
X102666588Y-8886200D01*
X102413557Y-9008053D01*
X102175753Y-9157476D01*
X101956175Y-9332583D01*
X101757583Y-9531175D01*
X101582476Y-9750753D01*
X101433053Y-9988557D01*
X101311200Y-10241588D01*
X101218443Y-10506670D01*
X101218439Y-10506682D01*
X101155945Y-10780487D01*
X101155942Y-10780505D01*
X101124500Y-11059568D01*
X86475905Y-11059568D01*
X86562123Y-11038869D01*
X86835129Y-10950164D01*
X86872059Y-10938165D01*
X86991876Y-10899234D01*
X86991876Y-10899233D01*
X86991882Y-10899232D01*
X87409360Y-10726307D01*
X87811984Y-10521160D01*
X87845240Y-10500781D01*
X87969201Y-10424817D01*
X88197272Y-10285055D01*
X88562847Y-10019449D01*
X88576213Y-10008034D01*
X88877450Y-9750753D01*
X88906456Y-9725980D01*
X89225980Y-9406456D01*
X89438628Y-9157477D01*
X89519433Y-9062866D01*
X89519435Y-9062863D01*
X89519449Y-9062847D01*
X89785055Y-8697272D01*
X90021160Y-8311984D01*
X90226307Y-7909360D01*
X90399232Y-7491882D01*
X90538869Y-7062123D01*
X90644357Y-6622733D01*
X90715046Y-6176420D01*
X90750500Y-5725938D01*
X90750500Y-5274062D01*
X90715046Y-4823580D01*
X90644357Y-4377267D01*
X90538869Y-3937877D01*
X90399232Y-3508118D01*
X90226307Y-3090640D01*
X90021160Y-2688016D01*
X90021154Y-2688007D01*
X90021152Y-2688002D01*
X90021149Y-2687997D01*
X89785061Y-2302737D01*
X89785057Y-2302732D01*
X89785055Y-2302728D01*
X89519449Y-1937153D01*
X89519444Y-1937147D01*
X89519433Y-1937133D01*
X89225996Y-1593562D01*
X89225987Y-1593552D01*
X89225980Y-1593544D01*
X88906456Y-1274020D01*
X88906448Y-1274013D01*
X88906437Y-1274003D01*
X88562866Y-980566D01*
X88562839Y-980545D01*
X88210861Y-724818D01*
X88168195Y-669488D01*
X88162216Y-599875D01*
X88194822Y-538080D01*
X88255660Y-503723D01*
X88283746Y-500500D01*
X142949138Y-500500D01*
X143016177Y-520185D01*
X143036819Y-536819D01*
X147963681Y-5463681D01*
X147997166Y-5525004D01*
X148000000Y-5551362D01*
X148000000Y-15943739D01*
X147980315Y-16010778D01*
X147943609Y-16047117D01*
X147943630Y-16047147D01*
X147943675Y-16047203D01*
X147943671Y-16047205D01*
X147943785Y-16047365D01*
X147942284Y-16048429D01*
X147941989Y-16048722D01*
X147940964Y-16049366D01*
X147940948Y-16049377D01*
X147731257Y-16216600D01*
X147541600Y-16406257D01*
X147421947Y-16556298D01*
X147364759Y-16596438D01*
X147294947Y-16599288D01*
X147234677Y-16563943D01*
X147228053Y-16556298D01*
X147108399Y-16406257D01*
X146918742Y-16216600D01*
X146709051Y-16049377D01*
X146709045Y-16049372D01*
X146508934Y-15923634D01*
X146481938Y-15906671D01*
X146240289Y-15790299D01*
X145987126Y-15701714D01*
X145987124Y-15701713D01*
X145785318Y-15655652D01*
X145725635Y-15642030D01*
X145725632Y-15642029D01*
X145725620Y-15642027D01*
X145459113Y-15612000D01*
X145459107Y-15612000D01*
X145190893Y-15612000D01*
X145190886Y-15612000D01*
X144924379Y-15642027D01*
X144924365Y-15642030D01*
X144662875Y-15701713D01*
X144662873Y-15701714D01*
X144409710Y-15790299D01*
X144168061Y-15906671D01*
X143940956Y-16049371D01*
X143731257Y-16216600D01*
X143541600Y-16406257D01*
X143374371Y-16615956D01*
X143231671Y-16843061D01*
X143115299Y-17084710D01*
X143026714Y-17337873D01*
X143026713Y-17337875D01*
X142967030Y-17599365D01*
X142967027Y-17599379D01*
X142937000Y-17865886D01*
X142937000Y-18134113D01*
X142967027Y-18400620D01*
X142967029Y-18400632D01*
X142967030Y-18400635D01*
X142980652Y-18460318D01*
X143026713Y-18662124D01*
X143026714Y-18662126D01*
X143115299Y-18915289D01*
X143231671Y-19156938D01*
X143374370Y-19384042D01*
X143395619Y-19410688D01*
X143422027Y-19475375D01*
X143409270Y-19544070D01*
X143361399Y-19594964D01*
X143298671Y-19612000D01*
X143190886Y-19612000D01*
X142924379Y-19642027D01*
X142924365Y-19642030D01*
X142662875Y-19701713D01*
X142662873Y-19701714D01*
X142409710Y-19790299D01*
X142168061Y-19906671D01*
X141940956Y-20049371D01*
X141731257Y-20216600D01*
X141541600Y-20406257D01*
X141374371Y-20615956D01*
X141231671Y-20843061D01*
X141115299Y-21084710D01*
X141026714Y-21337873D01*
X141026713Y-21337875D01*
X140967030Y-21599365D01*
X140967027Y-21599379D01*
X140937000Y-21865886D01*
X140937000Y-22134113D01*
X140967027Y-22400620D01*
X140967030Y-22400634D01*
X141026713Y-22662124D01*
X141026714Y-22662126D01*
X141115299Y-22915289D01*
X141231671Y-23156938D01*
X141374370Y-23384042D01*
X141395619Y-23410688D01*
X141422027Y-23475375D01*
X141409270Y-23544070D01*
X141361399Y-23594964D01*
X141298671Y-23612000D01*
X141190886Y-23612000D01*
X140924379Y-23642027D01*
X140924365Y-23642030D01*
X140662875Y-23701713D01*
X140662873Y-23701714D01*
X140409710Y-23790299D01*
X140168061Y-23906671D01*
X139940957Y-24049370D01*
X139860752Y-24113330D01*
X139796065Y-24139738D01*
X139727370Y-24126981D01*
X139695760Y-24104063D01*
X138661819Y-23070122D01*
X138628334Y-23008799D01*
X138625500Y-22982441D01*
X138625500Y-20071654D01*
X138645185Y-20004615D01*
X138683527Y-19966661D01*
X138709045Y-19950628D01*
X138918743Y-19783399D01*
X139108399Y-19593743D01*
X139275628Y-19384045D01*
X139418327Y-19156941D01*
X139534701Y-18915288D01*
X139623286Y-18662125D01*
X139682970Y-18400635D01*
X139690301Y-18335574D01*
X139707215Y-18185448D01*
X139713000Y-18134107D01*
X139713000Y-17865893D01*
X139689789Y-17659884D01*
X139682972Y-17599379D01*
X139682971Y-17599374D01*
X139682970Y-17599365D01*
X139623286Y-17337875D01*
X139534701Y-17084712D01*
X139418327Y-16843059D01*
X139275628Y-16615955D01*
X139108399Y-16406257D01*
X138918743Y-16216601D01*
X138709045Y-16049372D01*
X138508934Y-15923634D01*
X138481938Y-15906671D01*
X138240289Y-15790299D01*
X137987126Y-15701714D01*
X137987124Y-15701713D01*
X137785318Y-15655652D01*
X137725635Y-15642030D01*
X137725632Y-15642029D01*
X137725620Y-15642027D01*
X137459113Y-15612000D01*
X137459107Y-15612000D01*
X137190893Y-15612000D01*
X137190886Y-15612000D01*
X136924379Y-15642027D01*
X136924365Y-15642030D01*
X136662875Y-15701713D01*
X136662873Y-15701714D01*
X136409710Y-15790299D01*
X136168061Y-15906671D01*
X135940956Y-16049371D01*
X135731257Y-16216600D01*
X135541600Y-16406257D01*
X135421947Y-16556298D01*
X135364759Y-16596438D01*
X135294947Y-16599288D01*
X135234677Y-16563943D01*
X135228053Y-16556298D01*
X135108399Y-16406257D01*
X134918742Y-16216600D01*
X134709051Y-16049377D01*
X134709045Y-16049372D01*
X134508934Y-15923634D01*
X134481938Y-15906671D01*
X134240289Y-15790299D01*
X133987126Y-15701714D01*
X133987124Y-15701713D01*
X133785318Y-15655652D01*
X133725635Y-15642030D01*
X133725632Y-15642029D01*
X133725620Y-15642027D01*
X133459113Y-15612000D01*
X133459107Y-15612000D01*
X133190893Y-15612000D01*
X133190886Y-15612000D01*
X132924379Y-15642027D01*
X132924365Y-15642030D01*
X132662875Y-15701713D01*
X132662873Y-15701714D01*
X132409710Y-15790299D01*
X132168061Y-15906671D01*
X131940956Y-16049371D01*
X131731257Y-16216600D01*
X131541600Y-16406257D01*
X131421947Y-16556298D01*
X131364759Y-16596438D01*
X131294947Y-16599288D01*
X131234677Y-16563943D01*
X131228053Y-16556298D01*
X131108399Y-16406257D01*
X130918742Y-16216600D01*
X130709051Y-16049377D01*
X130709045Y-16049372D01*
X130508934Y-15923634D01*
X130481938Y-15906671D01*
X130240289Y-15790299D01*
X129987126Y-15701714D01*
X129987124Y-15701713D01*
X129785318Y-15655652D01*
X129725635Y-15642030D01*
X129725632Y-15642029D01*
X129725620Y-15642027D01*
X129459113Y-15612000D01*
X129459107Y-15612000D01*
X129190893Y-15612000D01*
X129190886Y-15612000D01*
X128924379Y-15642027D01*
X128924365Y-15642030D01*
X128662875Y-15701713D01*
X128662873Y-15701714D01*
X128409710Y-15790299D01*
X128168061Y-15906671D01*
X127940956Y-16049371D01*
X127731257Y-16216600D01*
X127541600Y-16406257D01*
X127421947Y-16556298D01*
X127364759Y-16596438D01*
X127294947Y-16599288D01*
X127234677Y-16563943D01*
X127228053Y-16556298D01*
X127108399Y-16406257D01*
X126918742Y-16216600D01*
X126709051Y-16049377D01*
X126709045Y-16049372D01*
X126508934Y-15923634D01*
X126481938Y-15906671D01*
X126240289Y-15790299D01*
X125987126Y-15701714D01*
X125987124Y-15701713D01*
X125785318Y-15655652D01*
X125725635Y-15642030D01*
X125725632Y-15642029D01*
X125725620Y-15642027D01*
X125459113Y-15612000D01*
X125459107Y-15612000D01*
X125190893Y-15612000D01*
X125190886Y-15612000D01*
X124924379Y-15642027D01*
X124924365Y-15642030D01*
X124662875Y-15701713D01*
X124662873Y-15701714D01*
X124409710Y-15790299D01*
X124168061Y-15906671D01*
X123940956Y-16049371D01*
X123731257Y-16216600D01*
X123541600Y-16406257D01*
X123421947Y-16556298D01*
X123364759Y-16596438D01*
X123294947Y-16599288D01*
X123234677Y-16563943D01*
X123228053Y-16556298D01*
X123108399Y-16406257D01*
X122918742Y-16216600D01*
X122709051Y-16049377D01*
X122709045Y-16049372D01*
X122508934Y-15923634D01*
X122481938Y-15906671D01*
X122240289Y-15790299D01*
X121987126Y-15701714D01*
X121987124Y-15701713D01*
X121785318Y-15655652D01*
X121725635Y-15642030D01*
X121725632Y-15642029D01*
X121725620Y-15642027D01*
X121459113Y-15612000D01*
X121459107Y-15612000D01*
X121190893Y-15612000D01*
X121190886Y-15612000D01*
X120924379Y-15642027D01*
X120924365Y-15642030D01*
X120662877Y-15701713D01*
X120615454Y-15718307D01*
X120545675Y-15721868D01*
X120485048Y-15687139D01*
X120452821Y-15625145D01*
X120450500Y-15601265D01*
X120450500Y-11086421D01*
X120422789Y-10911461D01*
X120422787Y-10911455D01*
X120422786Y-10911445D01*
X120422779Y-10911421D01*
X120368042Y-10742957D01*
X120287613Y-10585109D01*
X120268179Y-10558361D01*
X120183483Y-10441786D01*
X120174077Y-10432380D01*
X120168732Y-10425223D01*
X120166768Y-10419939D01*
X120157598Y-10407318D01*
X120112286Y-10318388D01*
X119991971Y-10152786D01*
X119847213Y-10008028D01*
X119681613Y-9887715D01*
X119681612Y-9887714D01*
X119681610Y-9887713D01*
X119624653Y-9858691D01*
X119499223Y-9794781D01*
X119304534Y-9731522D01*
X119129995Y-9703878D01*
X119102352Y-9699500D01*
X118897648Y-9699500D01*
X118873329Y-9703351D01*
X118695465Y-9731522D01*
X118500776Y-9794781D01*
X118318386Y-9887715D01*
X118152786Y-10008028D01*
X118008028Y-10152786D01*
X117887715Y-10318386D01*
X117794781Y-10500776D01*
X117731522Y-10695465D01*
X117699500Y-10897648D01*
X117699500Y-11102351D01*
X117731522Y-11304534D01*
X117794781Y-11499223D01*
X117887715Y-11681613D01*
X118008028Y-11847213D01*
X118152779Y-11991964D01*
X118156038Y-11994748D01*
X118194227Y-12053258D01*
X118199500Y-12089033D01*
X118199500Y-15601265D01*
X118179815Y-15668304D01*
X118127011Y-15714059D01*
X118057853Y-15724003D01*
X118034546Y-15718307D01*
X117987122Y-15701713D01*
X117835445Y-15667093D01*
X117725635Y-15642030D01*
X117725632Y-15642029D01*
X117725620Y-15642027D01*
X117459113Y-15612000D01*
X117459107Y-15612000D01*
X117190893Y-15612000D01*
X117190886Y-15612000D01*
X116924379Y-15642027D01*
X116924365Y-15642030D01*
X116662875Y-15701713D01*
X116662873Y-15701714D01*
X116409710Y-15790299D01*
X116168061Y-15906671D01*
X115940956Y-16049371D01*
X115731257Y-16216600D01*
X115541600Y-16406257D01*
X115421947Y-16556298D01*
X115364759Y-16596438D01*
X115294947Y-16599288D01*
X115234677Y-16563943D01*
X115228053Y-16556298D01*
X115108399Y-16406257D01*
X114918742Y-16216600D01*
X114709051Y-16049377D01*
X114709045Y-16049372D01*
X114508527Y-15923378D01*
X114462237Y-15871044D01*
X114450500Y-15818385D01*
X114450500Y-12086421D01*
X114444556Y-12048891D01*
X114422786Y-11911445D01*
X114421737Y-11908214D01*
X114368042Y-11742957D01*
X114290674Y-11591116D01*
X114287614Y-11585110D01*
X114225213Y-11499223D01*
X114183485Y-11441789D01*
X114183480Y-11441783D01*
X114161819Y-11420122D01*
X114128334Y-11358799D01*
X114125500Y-11332441D01*
X114125500Y-7685448D01*
X114139015Y-7629153D01*
X114205218Y-7499223D01*
X114205218Y-7499222D01*
X114205220Y-7499219D01*
X114268477Y-7304534D01*
X114300500Y-7102352D01*
X114300500Y-6897648D01*
X114299404Y-6890728D01*
X114268477Y-6695465D01*
X114214809Y-6530293D01*
X114205220Y-6500781D01*
X114205218Y-6500778D01*
X114205218Y-6500776D01*
X114157960Y-6408028D01*
X114112287Y-6318390D01*
X114077507Y-6270519D01*
X113991971Y-6152786D01*
X113847213Y-6008028D01*
X113681613Y-5887715D01*
X113681612Y-5887714D01*
X113681610Y-5887713D01*
X113624653Y-5858691D01*
X113499223Y-5794781D01*
X113304534Y-5731522D01*
X113129995Y-5703878D01*
X113102352Y-5699500D01*
X112897648Y-5699500D01*
X112873329Y-5703351D01*
X112695465Y-5731522D01*
X112500776Y-5794781D01*
X112318386Y-5887715D01*
X112152786Y-6008028D01*
X112008028Y-6152786D01*
X111887715Y-6318386D01*
X111794781Y-6500776D01*
X111731522Y-6695465D01*
X111699500Y-6897648D01*
X111699500Y-7102351D01*
X111731522Y-7304534D01*
X111794781Y-7499223D01*
X111860985Y-7629153D01*
X111874500Y-7685448D01*
X111874500Y-11761421D01*
X111874500Y-11938579D01*
X111888332Y-12025909D01*
X111902214Y-12113556D01*
X111953949Y-12272779D01*
X111953950Y-12272784D01*
X111956956Y-12282038D01*
X111956957Y-12282041D01*
X111956958Y-12282042D01*
X112037386Y-12439890D01*
X112141058Y-12582582D01*
X112141517Y-12583214D01*
X112164607Y-12606304D01*
X112165979Y-12607768D01*
X112180848Y-12637233D01*
X112196666Y-12666201D01*
X112196990Y-12669220D01*
X112197457Y-12670145D01*
X112197276Y-12671878D01*
X112199500Y-12692559D01*
X112199500Y-15818385D01*
X112179815Y-15885424D01*
X112141472Y-15923379D01*
X111940956Y-16049371D01*
X111731257Y-16216600D01*
X111541600Y-16406257D01*
X111374371Y-16615956D01*
X111231671Y-16843061D01*
X111115299Y-17084710D01*
X111026714Y-17337873D01*
X111026713Y-17337875D01*
X110967030Y-17599365D01*
X110967027Y-17599379D01*
X110937000Y-17865886D01*
X110937000Y-18134113D01*
X110967027Y-18400620D01*
X110967029Y-18400632D01*
X110967030Y-18400635D01*
X110980652Y-18460318D01*
X111026713Y-18662124D01*
X111026714Y-18662126D01*
X111115299Y-18915289D01*
X111231671Y-19156938D01*
X111231673Y-19156941D01*
X111374372Y-19384045D01*
X111541601Y-19593743D01*
X111731257Y-19783399D01*
X111940955Y-19950628D01*
X112168059Y-20093327D01*
X112409712Y-20209701D01*
X112662875Y-20298286D01*
X112924365Y-20357970D01*
X112924374Y-20357971D01*
X112924379Y-20357972D01*
X113077341Y-20375206D01*
X113190887Y-20387999D01*
X113190890Y-20388000D01*
X113298671Y-20388000D01*
X113365710Y-20407685D01*
X113411465Y-20460489D01*
X113421409Y-20529647D01*
X113395619Y-20589312D01*
X113374370Y-20615957D01*
X113231671Y-20843061D01*
X113115299Y-21084710D01*
X113026714Y-21337873D01*
X113026713Y-21337875D01*
X112967030Y-21599365D01*
X112967027Y-21599379D01*
X112937000Y-21865886D01*
X112937000Y-22134113D01*
X112967027Y-22400620D01*
X112967030Y-22400634D01*
X113026713Y-22662124D01*
X113026714Y-22662126D01*
X113115299Y-22915289D01*
X113231671Y-23156938D01*
X113374370Y-23384042D01*
X113395619Y-23410688D01*
X113422027Y-23475375D01*
X113409270Y-23544070D01*
X113361399Y-23594964D01*
X113298671Y-23612000D01*
X113190886Y-23612000D01*
X112924379Y-23642027D01*
X112924365Y-23642030D01*
X112662875Y-23701713D01*
X112662873Y-23701714D01*
X112409710Y-23790299D01*
X112168061Y-23906671D01*
X111940956Y-24049371D01*
X111731257Y-24216600D01*
X111541600Y-24406257D01*
X111374371Y-24615956D01*
X111231671Y-24843061D01*
X111115299Y-25084710D01*
X111026714Y-25337873D01*
X111026713Y-25337875D01*
X110967030Y-25599365D01*
X110967027Y-25599379D01*
X110937000Y-25865886D01*
X110937000Y-26134113D01*
X110967027Y-26400620D01*
X110967029Y-26400632D01*
X110967030Y-26400635D01*
X110980652Y-26460318D01*
X111026713Y-26662124D01*
X111026714Y-26662126D01*
X111115299Y-26915289D01*
X111231671Y-27156938D01*
X111231673Y-27156941D01*
X111374372Y-27384045D01*
X111473250Y-27508034D01*
X111541600Y-27593742D01*
X111731257Y-27783399D01*
X111940956Y-27950629D01*
X111975536Y-27972357D01*
X112021827Y-28024692D01*
X112032475Y-28093746D01*
X112009882Y-28150236D01*
X111887715Y-28318386D01*
X111794781Y-28500776D01*
X111731522Y-28695465D01*
X111699500Y-28897648D01*
X111699500Y-29102351D01*
X111731522Y-29304534D01*
X111794781Y-29499223D01*
X111852391Y-29612287D01*
X111881906Y-29670214D01*
X111887715Y-29681613D01*
X112008028Y-29847213D01*
X112152786Y-29991971D01*
X112307749Y-30104556D01*
X112318390Y-30112287D01*
X112397864Y-30152781D01*
X112500776Y-30205218D01*
X112500778Y-30205218D01*
X112500781Y-30205220D01*
X112603908Y-30238728D01*
X112695465Y-30268477D01*
X112796557Y-30284488D01*
X112897648Y-30300500D01*
X112897649Y-30300500D01*
X113102351Y-30300500D01*
X113102352Y-30300500D01*
X113304534Y-30268477D01*
X113499219Y-30205220D01*
X113681610Y-30112287D01*
X113779458Y-30041197D01*
X113847213Y-29991971D01*
X113847215Y-29991968D01*
X113847219Y-29991966D01*
X113991966Y-29847219D01*
X113991968Y-29847215D01*
X113991971Y-29847213D01*
X114049175Y-29768477D01*
X114112287Y-29681610D01*
X114205220Y-29499219D01*
X114268477Y-29304534D01*
X114268477Y-29304533D01*
X114269983Y-29299899D01*
X114270694Y-29300130D01*
X114278247Y-29280006D01*
X114282438Y-29272012D01*
X114287614Y-29264890D01*
X114336534Y-29168880D01*
X114368042Y-29107043D01*
X114422786Y-28938556D01*
X114426742Y-28913578D01*
X114427395Y-28909456D01*
X114427395Y-28909451D01*
X114429265Y-28897648D01*
X114450500Y-28763579D01*
X114450500Y-28181615D01*
X114470185Y-28114576D01*
X114508528Y-28076621D01*
X114709045Y-27950628D01*
X114918743Y-27783399D01*
X115108399Y-27593743D01*
X115111132Y-27590317D01*
X115228053Y-27443702D01*
X115285241Y-27403561D01*
X115355053Y-27400711D01*
X115415323Y-27436056D01*
X115421947Y-27443702D01*
X115541594Y-27593736D01*
X115541600Y-27593742D01*
X115541601Y-27593743D01*
X115731257Y-27783399D01*
X115940955Y-27950628D01*
X116106295Y-28054518D01*
X116141472Y-28076621D01*
X116187763Y-28128956D01*
X116199500Y-28181615D01*
X116199500Y-30913578D01*
X116227213Y-31088556D01*
X116252837Y-31167416D01*
X116261951Y-31195466D01*
X116281958Y-31257042D01*
X116323691Y-31338949D01*
X116325351Y-31342839D01*
X116328974Y-31373509D01*
X116334676Y-31403868D01*
X116333168Y-31409003D01*
X116333549Y-31412226D01*
X116330211Y-31419071D01*
X116321781Y-31447785D01*
X116294779Y-31500780D01*
X116294779Y-31500782D01*
X116231523Y-31695461D01*
X116231523Y-31695464D01*
X116199500Y-31897648D01*
X116199500Y-32102351D01*
X116231522Y-32304534D01*
X116294781Y-32499223D01*
X116352391Y-32612287D01*
X116373026Y-32652786D01*
X116387715Y-32681613D01*
X116508028Y-32847213D01*
X116652786Y-32991971D01*
X116807749Y-33104556D01*
X116818390Y-33112287D01*
X116934607Y-33171503D01*
X117000776Y-33205218D01*
X117000778Y-33205218D01*
X117000781Y-33205220D01*
X117105137Y-33239127D01*
X117195465Y-33268477D01*
X117296557Y-33284488D01*
X117397648Y-33300500D01*
X117397649Y-33300500D01*
X117602351Y-33300500D01*
X117602352Y-33300500D01*
X117804534Y-33268477D01*
X117999219Y-33205220D01*
X118181610Y-33112287D01*
X118274590Y-33044732D01*
X118347213Y-32991971D01*
X118347215Y-32991968D01*
X118347219Y-32991966D01*
X118491966Y-32847219D01*
X118491968Y-32847215D01*
X118491971Y-32847213D01*
X118549175Y-32768477D01*
X118612287Y-32681610D01*
X118705220Y-32499219D01*
X118768477Y-32304534D01*
X118800500Y-32102352D01*
X118800500Y-31897648D01*
X118768477Y-31695466D01*
X118768476Y-31695462D01*
X118768476Y-31695461D01*
X118705220Y-31500781D01*
X118705220Y-31500780D01*
X118639015Y-31370844D01*
X118625500Y-31314550D01*
X118625500Y-30911421D01*
X118597789Y-30736461D01*
X118597787Y-30736455D01*
X118597786Y-30736445D01*
X118597779Y-30736421D01*
X118543042Y-30567957D01*
X118473789Y-30432042D01*
X118473789Y-30432041D01*
X118464015Y-30412858D01*
X118450500Y-30356564D01*
X118450500Y-28181615D01*
X118470185Y-28114576D01*
X118508528Y-28076621D01*
X118709045Y-27950628D01*
X118918743Y-27783399D01*
X119108399Y-27593743D01*
X119111132Y-27590317D01*
X119228053Y-27443702D01*
X119285241Y-27403561D01*
X119355053Y-27400711D01*
X119415323Y-27436056D01*
X119421947Y-27443702D01*
X119541594Y-27593736D01*
X119541600Y-27593742D01*
X119541601Y-27593743D01*
X119731257Y-27783399D01*
X119940955Y-27950628D01*
X120106295Y-28054518D01*
X120141472Y-28076621D01*
X120187763Y-28128956D01*
X120199500Y-28181613D01*
X120199500Y-28736421D01*
X120199500Y-28913579D01*
X120204009Y-28942045D01*
X120227214Y-29088557D01*
X120272265Y-29227212D01*
X120281958Y-29257044D01*
X120281959Y-29257045D01*
X120321780Y-29335199D01*
X120334676Y-29403868D01*
X120321781Y-29447785D01*
X120294779Y-29500780D01*
X120294779Y-29500782D01*
X120231523Y-29695461D01*
X120231523Y-29695464D01*
X120199500Y-29897648D01*
X120199500Y-30102351D01*
X120231522Y-30304534D01*
X120294781Y-30499223D01*
X120340311Y-30588579D01*
X120387195Y-30680594D01*
X120387715Y-30681613D01*
X120508028Y-30847213D01*
X120652786Y-30991971D01*
X120807749Y-31104556D01*
X120818390Y-31112287D01*
X120926587Y-31167416D01*
X121000776Y-31205218D01*
X121000778Y-31205218D01*
X121000781Y-31205220D01*
X121086935Y-31233213D01*
X121195465Y-31268477D01*
X121296557Y-31284488D01*
X121397648Y-31300500D01*
X121397649Y-31300500D01*
X121602351Y-31300500D01*
X121602352Y-31300500D01*
X121804534Y-31268477D01*
X121999219Y-31205220D01*
X122019202Y-31195037D01*
X122087871Y-31182140D01*
X122152612Y-31208414D01*
X122192871Y-31265520D01*
X122199500Y-31305521D01*
X122199500Y-33102351D01*
X122231522Y-33304534D01*
X122294781Y-33499223D01*
X122352391Y-33612287D01*
X122387195Y-33680594D01*
X122387715Y-33681613D01*
X122508028Y-33847213D01*
X122652786Y-33991971D01*
X122802531Y-34100765D01*
X122818390Y-34112287D01*
X122897864Y-34152781D01*
X123000776Y-34205218D01*
X123000778Y-34205218D01*
X123000781Y-34205220D01*
X123060119Y-34224500D01*
X123195465Y-34268477D01*
X123296557Y-34284488D01*
X123397648Y-34300500D01*
X123397649Y-34300500D01*
X123602351Y-34300500D01*
X123602352Y-34300500D01*
X123804534Y-34268477D01*
X123999219Y-34205220D01*
X124181610Y-34112287D01*
X124274590Y-34044732D01*
X124347213Y-33991971D01*
X124347215Y-33991968D01*
X124347219Y-33991966D01*
X124491966Y-33847219D01*
X124491968Y-33847215D01*
X124491971Y-33847213D01*
X124595133Y-33705220D01*
X124612287Y-33681610D01*
X124705220Y-33499219D01*
X124768477Y-33304534D01*
X124800500Y-33102352D01*
X124800500Y-32897648D01*
X124768477Y-32695466D01*
X124754609Y-32652786D01*
X124738222Y-32602351D01*
X124705220Y-32500781D01*
X124705218Y-32500778D01*
X124705218Y-32500776D01*
X124652671Y-32397648D01*
X124612287Y-32318390D01*
X124595134Y-32294781D01*
X124524881Y-32198084D01*
X124501401Y-32132278D01*
X124517227Y-32064224D01*
X124567333Y-32015529D01*
X124635811Y-32001654D01*
X124698084Y-32024881D01*
X124752236Y-32064224D01*
X124818390Y-32112287D01*
X124897864Y-32152781D01*
X125000776Y-32205218D01*
X125000778Y-32205218D01*
X125000781Y-32205220D01*
X125105137Y-32239127D01*
X125195465Y-32268477D01*
X125296557Y-32284488D01*
X125397648Y-32300500D01*
X125397649Y-32300500D01*
X125602351Y-32300500D01*
X125602352Y-32300500D01*
X125804534Y-32268477D01*
X125999219Y-32205220D01*
X126033396Y-32187805D01*
X126102063Y-32174909D01*
X126166804Y-32201184D01*
X126207062Y-32258289D01*
X126212164Y-32317687D01*
X126199500Y-32397647D01*
X126199500Y-32602351D01*
X126231522Y-32804534D01*
X126294781Y-32999223D01*
X126387715Y-33181613D01*
X126508028Y-33347213D01*
X126652786Y-33491971D01*
X126807749Y-33604556D01*
X126818390Y-33612287D01*
X126897864Y-33652781D01*
X127000776Y-33705218D01*
X127000778Y-33705218D01*
X127000781Y-33705220D01*
X127105137Y-33739127D01*
X127195465Y-33768477D01*
X127215682Y-33771679D01*
X127397648Y-33800500D01*
X127397649Y-33800500D01*
X127602351Y-33800500D01*
X127602352Y-33800500D01*
X127804534Y-33768477D01*
X127999219Y-33705220D01*
X128047550Y-33680593D01*
X128116219Y-33667697D01*
X128180960Y-33693972D01*
X128221217Y-33751078D01*
X128226319Y-33771679D01*
X128231523Y-33804535D01*
X128294781Y-33999223D01*
X128352391Y-34112287D01*
X128373026Y-34152786D01*
X128387715Y-34181613D01*
X128508028Y-34347213D01*
X128652786Y-34491971D01*
X128807749Y-34604556D01*
X128818390Y-34612287D01*
X128925499Y-34666862D01*
X129000776Y-34705218D01*
X129000778Y-34705218D01*
X129000781Y-34705220D01*
X129087818Y-34733500D01*
X129195465Y-34768477D01*
X129285612Y-34782755D01*
X129397648Y-34800500D01*
X129397649Y-34800500D01*
X129602351Y-34800500D01*
X129602352Y-34800500D01*
X129804534Y-34768477D01*
X129912182Y-34733499D01*
X129982022Y-34731505D01*
X130041855Y-34767585D01*
X130072684Y-34830286D01*
X130074500Y-34851431D01*
X130074500Y-35865664D01*
X130054815Y-35932703D01*
X130038181Y-35953345D01*
X129086174Y-36905351D01*
X129086174Y-36905352D01*
X129086172Y-36905354D01*
X129036485Y-36973741D01*
X128970476Y-37064594D01*
X128881117Y-37239969D01*
X128871855Y-37268477D01*
X128861651Y-37299883D01*
X128861650Y-37299885D01*
X128820290Y-37427173D01*
X128789500Y-37621577D01*
X128789500Y-38340498D01*
X128783431Y-38378816D01*
X128771523Y-38415464D01*
X128757775Y-38502263D01*
X128739500Y-38617648D01*
X128739500Y-38822352D01*
X128739696Y-38823589D01*
X128771522Y-39024534D01*
X128834781Y-39219223D01*
X128927715Y-39401613D01*
X129048028Y-39567213D01*
X129192786Y-39711971D01*
X129347749Y-39824556D01*
X129358390Y-39832287D01*
X129449502Y-39878711D01*
X129540776Y-39925218D01*
X129540778Y-39925218D01*
X129540781Y-39925220D01*
X129645137Y-39959127D01*
X129735465Y-39988477D01*
X129836557Y-40004488D01*
X129937648Y-40020500D01*
X129937649Y-40020500D01*
X130142351Y-40020500D01*
X130142352Y-40020500D01*
X130344534Y-39988477D01*
X130539219Y-39925220D01*
X130721610Y-39832287D01*
X130814590Y-39764732D01*
X130887213Y-39711971D01*
X130887215Y-39711968D01*
X130887219Y-39711966D01*
X131031966Y-39567219D01*
X131031968Y-39567215D01*
X131031971Y-39567213D01*
X131084732Y-39494590D01*
X131152287Y-39401610D01*
X131245220Y-39219219D01*
X131308477Y-39024534D01*
X131340500Y-38822352D01*
X131340500Y-38617648D01*
X131308477Y-38415466D01*
X131296569Y-38378816D01*
X131296200Y-38376486D01*
X131295523Y-38375433D01*
X131290500Y-38340498D01*
X131290500Y-38289336D01*
X131310185Y-38222297D01*
X131326819Y-38201655D01*
X131662819Y-37865655D01*
X131724142Y-37832170D01*
X131793834Y-37837154D01*
X131849767Y-37879026D01*
X131874184Y-37944490D01*
X131874500Y-37953336D01*
X131874500Y-40314550D01*
X131860985Y-40370844D01*
X131794779Y-40500780D01*
X131794779Y-40500781D01*
X131731523Y-40695461D01*
X131731523Y-40695464D01*
X131699500Y-40897648D01*
X131699500Y-41102351D01*
X131731522Y-41304534D01*
X131794781Y-41499223D01*
X131845308Y-41598386D01*
X131882751Y-41671872D01*
X131887715Y-41681613D01*
X132008028Y-41847213D01*
X132152786Y-41991971D01*
X132290416Y-42091963D01*
X132318390Y-42112287D01*
X132397864Y-42152781D01*
X132500776Y-42205218D01*
X132500778Y-42205218D01*
X132500781Y-42205220D01*
X132605137Y-42239127D01*
X132695465Y-42268477D01*
X132796557Y-42284488D01*
X132897648Y-42300500D01*
X132897649Y-42300500D01*
X133102351Y-42300500D01*
X133102352Y-42300500D01*
X133304534Y-42268477D01*
X133499219Y-42205220D01*
X133681610Y-42112287D01*
X133774590Y-42044732D01*
X133847213Y-41991971D01*
X133847215Y-41991968D01*
X133847219Y-41991966D01*
X133991966Y-41847219D01*
X133991968Y-41847215D01*
X133991971Y-41847213D01*
X134077130Y-41730000D01*
X134112287Y-41681610D01*
X134205220Y-41499219D01*
X134268477Y-41304534D01*
X134300500Y-41102352D01*
X134300500Y-40897648D01*
X134268477Y-40695466D01*
X134268476Y-40695462D01*
X134268476Y-40695461D01*
X134205220Y-40500781D01*
X134205220Y-40500780D01*
X134139015Y-40370844D01*
X134125500Y-40314550D01*
X134125500Y-39897648D01*
X136699500Y-39897648D01*
X136699500Y-40102351D01*
X136731522Y-40304534D01*
X136794781Y-40499223D01*
X136836596Y-40581288D01*
X136886023Y-40678294D01*
X136887715Y-40681613D01*
X137008028Y-40847213D01*
X137152786Y-40991971D01*
X137307749Y-41104556D01*
X137318390Y-41112287D01*
X137434607Y-41171503D01*
X137500776Y-41205218D01*
X137500778Y-41205218D01*
X137500781Y-41205220D01*
X137562852Y-41225388D01*
X137695465Y-41268477D01*
X137796557Y-41284488D01*
X137897648Y-41300500D01*
X137897649Y-41300500D01*
X138102351Y-41300500D01*
X138102352Y-41300500D01*
X138304534Y-41268477D01*
X138499219Y-41205220D01*
X138681610Y-41112287D01*
X138820301Y-41011523D01*
X138847213Y-40991971D01*
X138847215Y-40991968D01*
X138847219Y-40991966D01*
X138991966Y-40847219D01*
X138991968Y-40847215D01*
X138991971Y-40847213D01*
X139046509Y-40772146D01*
X139112287Y-40681610D01*
X139205220Y-40499219D01*
X139268477Y-40304534D01*
X139300500Y-40102352D01*
X139300500Y-39897648D01*
X139273304Y-39725943D01*
X139268477Y-39695465D01*
X139205218Y-39500776D01*
X139169005Y-39429706D01*
X139112287Y-39318390D01*
X139080077Y-39274056D01*
X138991971Y-39152786D01*
X138847213Y-39008028D01*
X138681613Y-38887715D01*
X138681612Y-38887714D01*
X138681610Y-38887713D01*
X138624653Y-38858691D01*
X138499223Y-38794781D01*
X138304534Y-38731522D01*
X138129995Y-38703878D01*
X138102352Y-38699500D01*
X137897648Y-38699500D01*
X137873329Y-38703351D01*
X137695465Y-38731522D01*
X137500776Y-38794781D01*
X137318386Y-38887715D01*
X137152786Y-39008028D01*
X137008028Y-39152786D01*
X136887715Y-39318386D01*
X136794781Y-39500776D01*
X136731522Y-39695465D01*
X136699500Y-39897648D01*
X134125500Y-39897648D01*
X134125500Y-35685448D01*
X134139015Y-35629153D01*
X134140107Y-35627011D01*
X134205220Y-35499219D01*
X134268477Y-35304534D01*
X134300500Y-35102352D01*
X134300500Y-34897648D01*
X134284207Y-34794780D01*
X134268477Y-34695465D01*
X134205218Y-34500776D01*
X134152671Y-34397648D01*
X134112287Y-34318390D01*
X134079813Y-34273693D01*
X133991971Y-34152786D01*
X133847219Y-34008034D01*
X133803082Y-33975967D01*
X133760416Y-33920637D01*
X133754437Y-33851024D01*
X133787042Y-33789228D01*
X133837648Y-33757717D01*
X133999219Y-33705220D01*
X134181610Y-33612287D01*
X134274590Y-33544732D01*
X134347213Y-33491971D01*
X134347215Y-33491968D01*
X134347219Y-33491966D01*
X134491966Y-33347219D01*
X134491968Y-33347215D01*
X134491971Y-33347213D01*
X134576024Y-33231522D01*
X134612287Y-33181610D01*
X134705220Y-32999219D01*
X134768477Y-32804534D01*
X134800500Y-32602352D01*
X134800500Y-32397648D01*
X134768477Y-32195466D01*
X134768476Y-32195462D01*
X134768476Y-32195461D01*
X134705220Y-32000781D01*
X134705220Y-32000780D01*
X134639015Y-31870844D01*
X134635893Y-31857841D01*
X134630523Y-31849485D01*
X134625500Y-31814550D01*
X134625500Y-31715502D01*
X134645185Y-31648463D01*
X134697989Y-31602708D01*
X134767147Y-31592764D01*
X134814289Y-31609774D01*
X134818388Y-31612285D01*
X134818390Y-31612287D01*
X134889389Y-31648463D01*
X135000776Y-31705218D01*
X135000778Y-31705218D01*
X135000781Y-31705220D01*
X135062895Y-31725402D01*
X135195465Y-31768477D01*
X135220695Y-31772473D01*
X135397648Y-31800500D01*
X135397649Y-31800500D01*
X135602351Y-31800500D01*
X135602352Y-31800500D01*
X135804534Y-31768477D01*
X135999219Y-31705220D01*
X136181610Y-31612287D01*
X136276918Y-31543042D01*
X136347213Y-31491971D01*
X136347215Y-31491968D01*
X136347219Y-31491966D01*
X136487819Y-31351366D01*
X136549142Y-31317881D01*
X136618834Y-31322865D01*
X136674767Y-31364737D01*
X136699184Y-31430201D01*
X136699500Y-31439047D01*
X136699500Y-31602352D01*
X136700676Y-31609774D01*
X136731522Y-31804534D01*
X136794781Y-31999223D01*
X136887715Y-32181613D01*
X137008028Y-32347213D01*
X137152786Y-32491971D01*
X137307749Y-32604556D01*
X137318390Y-32612287D01*
X137397864Y-32652781D01*
X137500776Y-32705218D01*
X137500778Y-32705218D01*
X137500781Y-32705220D01*
X137596808Y-32736421D01*
X137695465Y-32768477D01*
X137795114Y-32784260D01*
X137897648Y-32800500D01*
X137897649Y-32800500D01*
X138102351Y-32800500D01*
X138102352Y-32800500D01*
X138304534Y-32768477D01*
X138499219Y-32705220D01*
X138681610Y-32612287D01*
X138774590Y-32544732D01*
X138847213Y-32491971D01*
X138847215Y-32491968D01*
X138847219Y-32491966D01*
X138991966Y-32347219D01*
X138991968Y-32347215D01*
X138991971Y-32347213D01*
X139091505Y-32210214D01*
X139112287Y-32181610D01*
X139205220Y-31999219D01*
X139268477Y-31804534D01*
X139300500Y-31602352D01*
X139300500Y-31397648D01*
X139268477Y-31195466D01*
X139268476Y-31195462D01*
X139268476Y-31195461D01*
X139205220Y-31000781D01*
X139187806Y-30966604D01*
X139174909Y-30897935D01*
X139201184Y-30833194D01*
X139258290Y-30792937D01*
X139317686Y-30787835D01*
X139397648Y-30800500D01*
X139397649Y-30800500D01*
X139602351Y-30800500D01*
X139602352Y-30800500D01*
X139804534Y-30768477D01*
X139999219Y-30705220D01*
X140047550Y-30680593D01*
X140116219Y-30667697D01*
X140180960Y-30693972D01*
X140221217Y-30751078D01*
X140226319Y-30771679D01*
X140231523Y-30804535D01*
X140294781Y-30999223D01*
X140352391Y-31112287D01*
X140384169Y-31174655D01*
X140387715Y-31181613D01*
X140508028Y-31347213D01*
X140652786Y-31491971D01*
X140807749Y-31604556D01*
X140818390Y-31612287D01*
X140915602Y-31661819D01*
X141000776Y-31705218D01*
X141000778Y-31705218D01*
X141000781Y-31705220D01*
X141062895Y-31725402D01*
X141195465Y-31768477D01*
X141220695Y-31772473D01*
X141397648Y-31800500D01*
X141397649Y-31800500D01*
X141602351Y-31800500D01*
X141602352Y-31800500D01*
X141804534Y-31768477D01*
X141999219Y-31705220D01*
X142181610Y-31612287D01*
X142276918Y-31543042D01*
X142347213Y-31491971D01*
X142347215Y-31491968D01*
X142347219Y-31491966D01*
X142491966Y-31347219D01*
X142491968Y-31347215D01*
X142491971Y-31347213D01*
X142557483Y-31257042D01*
X142612287Y-31181610D01*
X142705220Y-30999219D01*
X142768477Y-30804534D01*
X142800500Y-30602352D01*
X142800500Y-30397648D01*
X142794491Y-30359711D01*
X142768477Y-30195465D01*
X142725070Y-30061872D01*
X142705220Y-30000781D01*
X142705218Y-30000778D01*
X142705218Y-30000776D01*
X142655935Y-29904054D01*
X142612287Y-29818390D01*
X142599289Y-29800500D01*
X142491971Y-29652786D01*
X142486819Y-29647634D01*
X142453334Y-29586311D01*
X142450500Y-29559953D01*
X142450500Y-28841559D01*
X142456738Y-28820313D01*
X142458318Y-28798225D01*
X142466390Y-28787441D01*
X142470185Y-28774520D01*
X142486918Y-28760020D01*
X142500190Y-28742292D01*
X142512810Y-28737584D01*
X142522989Y-28728765D01*
X142544906Y-28725613D01*
X142565654Y-28717875D01*
X142578814Y-28720737D01*
X142592147Y-28718821D01*
X142612290Y-28728020D01*
X142633927Y-28732727D01*
X142651652Y-28745995D01*
X142655703Y-28747846D01*
X142662181Y-28753878D01*
X142719465Y-28811162D01*
X142749715Y-28860524D01*
X142794781Y-28999223D01*
X142857550Y-29122412D01*
X142881439Y-29169297D01*
X142887715Y-29181613D01*
X143008028Y-29347213D01*
X143152786Y-29491971D01*
X143282637Y-29586311D01*
X143318390Y-29612287D01*
X143397864Y-29652781D01*
X143500776Y-29705218D01*
X143500778Y-29705218D01*
X143500781Y-29705220D01*
X143605137Y-29739127D01*
X143695465Y-29768477D01*
X143796557Y-29784488D01*
X143897648Y-29800500D01*
X143897649Y-29800500D01*
X144102351Y-29800500D01*
X144102352Y-29800500D01*
X144304534Y-29768477D01*
X144499219Y-29705220D01*
X144681610Y-29612287D01*
X144835085Y-29500782D01*
X144847213Y-29491971D01*
X144847215Y-29491968D01*
X144847219Y-29491966D01*
X144991966Y-29347219D01*
X144991968Y-29347215D01*
X144991971Y-29347213D01*
X145046191Y-29272584D01*
X145112287Y-29181610D01*
X145205220Y-28999219D01*
X145268477Y-28804534D01*
X145300500Y-28602352D01*
X145300500Y-28512000D01*
X145320185Y-28444961D01*
X145372989Y-28399206D01*
X145424500Y-28388000D01*
X145459110Y-28388000D01*
X145459111Y-28387999D01*
X145595317Y-28372652D01*
X145725620Y-28357972D01*
X145725623Y-28357971D01*
X145725635Y-28357970D01*
X145987125Y-28298286D01*
X146209546Y-28220457D01*
X146279324Y-28216896D01*
X146339951Y-28251624D01*
X146372179Y-28313618D01*
X146374500Y-28337499D01*
X146374500Y-30411421D01*
X146374500Y-30588579D01*
X146378255Y-30612287D01*
X146402213Y-30763552D01*
X146402213Y-30763553D01*
X146439254Y-30877553D01*
X146439255Y-30877555D01*
X146456958Y-30932043D01*
X146491189Y-30999223D01*
X146536706Y-31088556D01*
X146537388Y-31089893D01*
X146621177Y-31205219D01*
X146641516Y-31233213D01*
X146719465Y-31311162D01*
X146749715Y-31360524D01*
X146794781Y-31499223D01*
X146858691Y-31624653D01*
X146877267Y-31661109D01*
X146887715Y-31681613D01*
X147008028Y-31847213D01*
X147152786Y-31991971D01*
X147307749Y-32104556D01*
X147318390Y-32112287D01*
X147397864Y-32152781D01*
X147500776Y-32205218D01*
X147500778Y-32205218D01*
X147500781Y-32205220D01*
X147605137Y-32239127D01*
X147695465Y-32268477D01*
X147796557Y-32284488D01*
X147897648Y-32300500D01*
X147897649Y-32300500D01*
X148102351Y-32300500D01*
X148102352Y-32300500D01*
X148304534Y-32268477D01*
X148499219Y-32205220D01*
X148681610Y-32112287D01*
X148801915Y-32024881D01*
X148847213Y-31991971D01*
X148847215Y-31991968D01*
X148847219Y-31991966D01*
X148991966Y-31847219D01*
X148991968Y-31847215D01*
X148991971Y-31847213D01*
X149061302Y-31751785D01*
X149112287Y-31681610D01*
X149205220Y-31499219D01*
X149268477Y-31304534D01*
X149300500Y-31102352D01*
X149300500Y-30897648D01*
X149270022Y-30705220D01*
X149268477Y-30695465D01*
X149257707Y-30662319D01*
X149255712Y-30592478D01*
X149291792Y-30532645D01*
X149354493Y-30501816D01*
X149375638Y-30500000D01*
X164000000Y-30500000D01*
X165880675Y-28619324D01*
X165941994Y-28585842D01*
X166011685Y-28590826D01*
X166067619Y-28632698D01*
X166092036Y-28698162D01*
X166089243Y-28734600D01*
X166055945Y-28880487D01*
X166055942Y-28880505D01*
X166024500Y-29159568D01*
X166024500Y-29440431D01*
X166055942Y-29719494D01*
X166055945Y-29719512D01*
X166118439Y-29993317D01*
X166118443Y-29993329D01*
X166211200Y-30258411D01*
X166333053Y-30511442D01*
X166333055Y-30511445D01*
X166482477Y-30749248D01*
X166584797Y-30877553D01*
X166628250Y-30932042D01*
X166657584Y-30968825D01*
X166856175Y-31167416D01*
X167075752Y-31342523D01*
X167313555Y-31491945D01*
X167313557Y-31491946D01*
X167341366Y-31505338D01*
X167566592Y-31613801D01*
X167678005Y-31652786D01*
X167831670Y-31706556D01*
X167831685Y-31706561D01*
X167859978Y-31713018D01*
X167914238Y-31725403D01*
X167975216Y-31759510D01*
X168008074Y-31821171D01*
X168002380Y-31890808D01*
X167974327Y-31933974D01*
X163638630Y-36269671D01*
X163577307Y-36303156D01*
X163507615Y-36298172D01*
X163503507Y-36296556D01*
X163499222Y-36294781D01*
X163304534Y-36231522D01*
X163129995Y-36203878D01*
X163102352Y-36199500D01*
X162897648Y-36199500D01*
X162873329Y-36203351D01*
X162695465Y-36231522D01*
X162500776Y-36294781D01*
X162318386Y-36387715D01*
X162152786Y-36508028D01*
X162008028Y-36652786D01*
X161887713Y-36818388D01*
X161860484Y-36871828D01*
X161812510Y-36922623D01*
X161744688Y-36939418D01*
X161678554Y-36916880D01*
X161639516Y-36871828D01*
X161612286Y-36818388D01*
X161491971Y-36652786D01*
X161347213Y-36508028D01*
X161181613Y-36387715D01*
X161181612Y-36387714D01*
X161181610Y-36387713D01*
X161085990Y-36338992D01*
X160999223Y-36294781D01*
X160804534Y-36231522D01*
X160629995Y-36203878D01*
X160602352Y-36199500D01*
X160397648Y-36199500D01*
X160373329Y-36203351D01*
X160195465Y-36231522D01*
X160043759Y-36280815D01*
X160000781Y-36294780D01*
X160000778Y-36294781D01*
X160000776Y-36294782D01*
X159886295Y-36353113D01*
X159817625Y-36366009D01*
X159773705Y-36353113D01*
X159659223Y-36294782D01*
X159659222Y-36294781D01*
X159659219Y-36294780D01*
X159578267Y-36268477D01*
X159464534Y-36231522D01*
X159289995Y-36203878D01*
X159262352Y-36199500D01*
X159057648Y-36199500D01*
X159033329Y-36203351D01*
X158855465Y-36231522D01*
X158660776Y-36294781D01*
X158478386Y-36387715D01*
X158312786Y-36508028D01*
X158168028Y-36652786D01*
X158047715Y-36818386D01*
X157954781Y-37000778D01*
X157918052Y-37113818D01*
X157878614Y-37171494D01*
X157814256Y-37198692D01*
X157800121Y-37199500D01*
X157692648Y-37199500D01*
X157668329Y-37203351D01*
X157490465Y-37231522D01*
X157295776Y-37294781D01*
X157113386Y-37387715D01*
X156947786Y-37508028D01*
X156803028Y-37652786D01*
X156682715Y-37818386D01*
X156589781Y-38000776D01*
X156526522Y-38195465D01*
X156497852Y-38376486D01*
X156494500Y-38397648D01*
X156494500Y-38602352D01*
X156495596Y-38609271D01*
X156526522Y-38804534D01*
X156589781Y-38999223D01*
X156625473Y-39069271D01*
X156655853Y-39128895D01*
X156655985Y-39129153D01*
X156669500Y-39185448D01*
X156669500Y-40565500D01*
X156649815Y-40632539D01*
X156597011Y-40678294D01*
X156545500Y-40689500D01*
X156498711Y-40689500D01*
X156258214Y-40721161D01*
X156023896Y-40783947D01*
X155979800Y-40802212D01*
X155910331Y-40809680D01*
X155847852Y-40778404D01*
X155812200Y-40718314D01*
X155814695Y-40648489D01*
X155817789Y-40640196D01*
X155836051Y-40596108D01*
X155836051Y-40596105D01*
X155836054Y-40596100D01*
X155898838Y-40361789D01*
X155930500Y-40121288D01*
X155930500Y-39878712D01*
X155898838Y-39638211D01*
X155836054Y-39403900D01*
X155835105Y-39401610D01*
X155759558Y-39219223D01*
X155743224Y-39179788D01*
X155621936Y-38969711D01*
X155504730Y-38816965D01*
X155474266Y-38777263D01*
X155474260Y-38777256D01*
X155302743Y-38605739D01*
X155302736Y-38605733D01*
X155110293Y-38458067D01*
X155110292Y-38458066D01*
X155110289Y-38458064D01*
X154900212Y-38336776D01*
X154900205Y-38336773D01*
X154676104Y-38243947D01*
X154441785Y-38181161D01*
X154201289Y-38149500D01*
X154201288Y-38149500D01*
X153958712Y-38149500D01*
X153958711Y-38149500D01*
X153718214Y-38181161D01*
X153483895Y-38243947D01*
X153259794Y-38336773D01*
X153259785Y-38336777D01*
X153049706Y-38458067D01*
X152885486Y-38584077D01*
X152820317Y-38609271D01*
X152751872Y-38595232D01*
X152734514Y-38584077D01*
X152570293Y-38458067D01*
X152570292Y-38458066D01*
X152570289Y-38458064D01*
X152360212Y-38336776D01*
X152360205Y-38336773D01*
X152136104Y-38243947D01*
X151901785Y-38181161D01*
X151661289Y-38149500D01*
X151661288Y-38149500D01*
X151418712Y-38149500D01*
X151418711Y-38149500D01*
X151178214Y-38181161D01*
X150943895Y-38243947D01*
X150719794Y-38336773D01*
X150719785Y-38336777D01*
X150509706Y-38458067D01*
X150317263Y-38605733D01*
X150317256Y-38605739D01*
X150145739Y-38777256D01*
X150145733Y-38777263D01*
X149998067Y-38969706D01*
X149876777Y-39179785D01*
X149876773Y-39179794D01*
X149783947Y-39403895D01*
X149721161Y-39638214D01*
X149689500Y-39878711D01*
X149689500Y-40121288D01*
X149718123Y-40338712D01*
X149721162Y-40361789D01*
X149770310Y-40545212D01*
X149783948Y-40596107D01*
X149802211Y-40640198D01*
X149809680Y-40709667D01*
X149778404Y-40772146D01*
X149718315Y-40807798D01*
X149648490Y-40805304D01*
X149640198Y-40802211D01*
X149596107Y-40783948D01*
X149489151Y-40755289D01*
X149361789Y-40721162D01*
X149361788Y-40721161D01*
X149361785Y-40721161D01*
X149121289Y-40689500D01*
X149121288Y-40689500D01*
X148878712Y-40689500D01*
X148878711Y-40689500D01*
X148638214Y-40721161D01*
X148403895Y-40783947D01*
X148179794Y-40876773D01*
X148179785Y-40876777D01*
X148001865Y-40979500D01*
X147980265Y-40991971D01*
X147969706Y-40998067D01*
X147777263Y-41145733D01*
X147777256Y-41145739D01*
X147605739Y-41317256D01*
X147605733Y-41317263D01*
X147458067Y-41509706D01*
X147336777Y-41719785D01*
X147336773Y-41719794D01*
X147243947Y-41943895D01*
X147181161Y-42178214D01*
X147149500Y-42418711D01*
X147149500Y-42661288D01*
X147180616Y-42897648D01*
X147181162Y-42901789D01*
X147212554Y-43018944D01*
X147243947Y-43136104D01*
X147336773Y-43360205D01*
X147336777Y-43360214D01*
X147358974Y-43398661D01*
X147458064Y-43570289D01*
X147458066Y-43570292D01*
X147458067Y-43570293D01*
X147605733Y-43762736D01*
X147605739Y-43762743D01*
X147777256Y-43934260D01*
X147777263Y-43934266D01*
X147852466Y-43991971D01*
X147969711Y-44081936D01*
X148179788Y-44203224D01*
X148227650Y-44223049D01*
X148319124Y-44260939D01*
X148373527Y-44304780D01*
X148395592Y-44371074D01*
X148378313Y-44438773D01*
X148327176Y-44486384D01*
X148271671Y-44499500D01*
X114376425Y-44499500D01*
X114309386Y-44479815D01*
X114263631Y-44427011D01*
X114253687Y-44357853D01*
X114282712Y-44294297D01*
X114338106Y-44257569D01*
X114374669Y-44245688D01*
X114499219Y-44205220D01*
X114681610Y-44112287D01*
X114794466Y-44030293D01*
X114847213Y-43991971D01*
X114847215Y-43991968D01*
X114847219Y-43991966D01*
X114991966Y-43847219D01*
X114991968Y-43847215D01*
X114991971Y-43847213D01*
X115053341Y-43762743D01*
X115112287Y-43681610D01*
X115205220Y-43499219D01*
X115268477Y-43304534D01*
X115300500Y-43102352D01*
X115300500Y-42897648D01*
X115268763Y-42697272D01*
X115268477Y-42695465D01*
X115205218Y-42500776D01*
X115112287Y-42318390D01*
X115059447Y-42245661D01*
X115059446Y-42245658D01*
X115010034Y-42177648D01*
X128739500Y-42177648D01*
X128739500Y-42382352D01*
X128742912Y-42403895D01*
X128771522Y-42584534D01*
X128834781Y-42779223D01*
X128927715Y-42961613D01*
X129048028Y-43127213D01*
X129192786Y-43271971D01*
X129347749Y-43384556D01*
X129358390Y-43392287D01*
X129474607Y-43451503D01*
X129540776Y-43485218D01*
X129540778Y-43485218D01*
X129540781Y-43485220D01*
X129602698Y-43505338D01*
X129735465Y-43548477D01*
X129836557Y-43564488D01*
X129937648Y-43580500D01*
X129937649Y-43580500D01*
X130142351Y-43580500D01*
X130142352Y-43580500D01*
X130344534Y-43548477D01*
X130539219Y-43485220D01*
X130721610Y-43392287D01*
X130848793Y-43299884D01*
X130887213Y-43271971D01*
X130887215Y-43271968D01*
X130887219Y-43271966D01*
X131031966Y-43127219D01*
X131031968Y-43127215D01*
X131031971Y-43127213D01*
X131084732Y-43054590D01*
X131152287Y-42961610D01*
X131245220Y-42779219D01*
X131308477Y-42584534D01*
X131340500Y-42382352D01*
X131340500Y-42177648D01*
X131323532Y-42070519D01*
X131308477Y-41975465D01*
X131266805Y-41847213D01*
X131245220Y-41780781D01*
X131245218Y-41780778D01*
X131245218Y-41780776D01*
X131203805Y-41699500D01*
X131152287Y-41598390D01*
X131127036Y-41563635D01*
X131031971Y-41432786D01*
X130887213Y-41288028D01*
X130721613Y-41167715D01*
X130721612Y-41167714D01*
X130721610Y-41167713D01*
X130626526Y-41119265D01*
X130539223Y-41074781D01*
X130344534Y-41011522D01*
X130169995Y-40983878D01*
X130142352Y-40979500D01*
X129937648Y-40979500D01*
X129913329Y-40983351D01*
X129735465Y-41011522D01*
X129540776Y-41074781D01*
X129358386Y-41167715D01*
X129192786Y-41288028D01*
X129048028Y-41432786D01*
X128927715Y-41598386D01*
X128834781Y-41780776D01*
X128771522Y-41975465D01*
X128743438Y-42152782D01*
X128739500Y-42177648D01*
X115010034Y-42177648D01*
X114991971Y-42152787D01*
X114991967Y-42152782D01*
X114847213Y-42008028D01*
X114681613Y-41887715D01*
X114681612Y-41887714D01*
X114681610Y-41887713D01*
X114622822Y-41857759D01*
X114499223Y-41794781D01*
X114304534Y-41731522D01*
X114129995Y-41703878D01*
X114102352Y-41699500D01*
X113897648Y-41699500D01*
X113873329Y-41703351D01*
X113695465Y-41731522D01*
X113500776Y-41794781D01*
X113318386Y-41887715D01*
X113152786Y-42008028D01*
X113008028Y-42152786D01*
X112887715Y-42318386D01*
X112794781Y-42500776D01*
X112731522Y-42695465D01*
X112699500Y-42897648D01*
X112699500Y-43102351D01*
X112731522Y-43304534D01*
X112794781Y-43499223D01*
X112844143Y-43596100D01*
X112887362Y-43680922D01*
X112887715Y-43681613D01*
X113008028Y-43847213D01*
X113152786Y-43991971D01*
X113276615Y-44081936D01*
X113318390Y-44112287D01*
X113434607Y-44171503D01*
X113500776Y-44205218D01*
X113500778Y-44205218D01*
X113500781Y-44205220D01*
X113604881Y-44239044D01*
X113661894Y-44257569D01*
X113719569Y-44297007D01*
X113746767Y-44361366D01*
X113734852Y-44430212D01*
X113687608Y-44481688D01*
X113623575Y-44499500D01*
X106376425Y-44499500D01*
X106309386Y-44479815D01*
X106263631Y-44427011D01*
X106253687Y-44357853D01*
X106282712Y-44294297D01*
X106338106Y-44257569D01*
X106374669Y-44245688D01*
X106499219Y-44205220D01*
X106681610Y-44112287D01*
X106794466Y-44030293D01*
X106847213Y-43991971D01*
X106847215Y-43991968D01*
X106847219Y-43991966D01*
X106991966Y-43847219D01*
X106991968Y-43847215D01*
X106991971Y-43847213D01*
X107053341Y-43762743D01*
X107112287Y-43681610D01*
X107205220Y-43499219D01*
X107268477Y-43304534D01*
X107300500Y-43102352D01*
X107300500Y-42897648D01*
X107268763Y-42697272D01*
X107268477Y-42695465D01*
X107205218Y-42500776D01*
X107163403Y-42418711D01*
X107112287Y-42318390D01*
X107099289Y-42300500D01*
X106991971Y-42152786D01*
X106847213Y-42008028D01*
X106681613Y-41887715D01*
X106681612Y-41887714D01*
X106681610Y-41887713D01*
X106622822Y-41857759D01*
X106499223Y-41794781D01*
X106304534Y-41731522D01*
X106129995Y-41703878D01*
X106102352Y-41699500D01*
X105897648Y-41699500D01*
X105873329Y-41703351D01*
X105695465Y-41731522D01*
X105500776Y-41794781D01*
X105318386Y-41887715D01*
X105152786Y-42008028D01*
X105008028Y-42152786D01*
X104887715Y-42318386D01*
X104794781Y-42500776D01*
X104731522Y-42695465D01*
X104699500Y-42897648D01*
X104699500Y-43102351D01*
X104731522Y-43304534D01*
X104794781Y-43499223D01*
X104844143Y-43596100D01*
X104887362Y-43680922D01*
X104887715Y-43681613D01*
X105008028Y-43847213D01*
X105152786Y-43991971D01*
X105276615Y-44081936D01*
X105318390Y-44112287D01*
X105434607Y-44171503D01*
X105500776Y-44205218D01*
X105500778Y-44205218D01*
X105500781Y-44205220D01*
X105604881Y-44239044D01*
X105661894Y-44257569D01*
X105719569Y-44297007D01*
X105746767Y-44361366D01*
X105734852Y-44430212D01*
X105687608Y-44481688D01*
X105623575Y-44499500D01*
X98376425Y-44499500D01*
X98309386Y-44479815D01*
X98263631Y-44427011D01*
X98253687Y-44357853D01*
X98282712Y-44294297D01*
X98338106Y-44257569D01*
X98374669Y-44245688D01*
X98499219Y-44205220D01*
X98681610Y-44112287D01*
X98794466Y-44030293D01*
X98847213Y-43991971D01*
X98847215Y-43991968D01*
X98847219Y-43991966D01*
X98991966Y-43847219D01*
X98991968Y-43847215D01*
X98991971Y-43847213D01*
X99053341Y-43762743D01*
X99112287Y-43681610D01*
X99205220Y-43499219D01*
X99268477Y-43304534D01*
X99300500Y-43102352D01*
X99300500Y-42897648D01*
X99268763Y-42697272D01*
X99268477Y-42695465D01*
X99205218Y-42500776D01*
X99163403Y-42418711D01*
X99112287Y-42318390D01*
X99099289Y-42300500D01*
X98991971Y-42152786D01*
X98847213Y-42008028D01*
X98681613Y-41887715D01*
X98681612Y-41887714D01*
X98681610Y-41887713D01*
X98622822Y-41857759D01*
X98499223Y-41794781D01*
X98304534Y-41731522D01*
X98129995Y-41703878D01*
X98102352Y-41699500D01*
X97897648Y-41699500D01*
X97873329Y-41703351D01*
X97695465Y-41731522D01*
X97500776Y-41794781D01*
X97318386Y-41887715D01*
X97152786Y-42008028D01*
X97008028Y-42152786D01*
X96887715Y-42318386D01*
X96794781Y-42500776D01*
X96731522Y-42695465D01*
X96699500Y-42897648D01*
X96699500Y-43102351D01*
X96731522Y-43304534D01*
X96794781Y-43499223D01*
X96844143Y-43596100D01*
X96887362Y-43680922D01*
X96887715Y-43681613D01*
X97008028Y-43847213D01*
X97152786Y-43991971D01*
X97276615Y-44081936D01*
X97318390Y-44112287D01*
X97434607Y-44171503D01*
X97500776Y-44205218D01*
X97500778Y-44205218D01*
X97500781Y-44205220D01*
X97604881Y-44239044D01*
X97661894Y-44257569D01*
X97719569Y-44297007D01*
X97746767Y-44361366D01*
X97734852Y-44430212D01*
X97687608Y-44481688D01*
X97623575Y-44499500D01*
X88283746Y-44499500D01*
X88216707Y-44479815D01*
X88170952Y-44427011D01*
X88161008Y-44357853D01*
X88190033Y-44294297D01*
X88210861Y-44275182D01*
X88283044Y-44222738D01*
X88562847Y-44019449D01*
X88657463Y-43938640D01*
X88906437Y-43725996D01*
X88906456Y-43725980D01*
X89225980Y-43406456D01*
X89464470Y-43127219D01*
X89519433Y-43062866D01*
X89519435Y-43062863D01*
X89519449Y-43062847D01*
X89785055Y-42697272D01*
X90021160Y-42311984D01*
X90226307Y-41909360D01*
X90399232Y-41491882D01*
X90400951Y-41486593D01*
X90408685Y-41462788D01*
X90538869Y-41062123D01*
X90644357Y-40622733D01*
X90715046Y-40176420D01*
X90736986Y-39897648D01*
X116699500Y-39897648D01*
X116699500Y-40102351D01*
X116731522Y-40304534D01*
X116794781Y-40499223D01*
X116836596Y-40581288D01*
X116886023Y-40678294D01*
X116887715Y-40681613D01*
X117008028Y-40847213D01*
X117152786Y-40991971D01*
X117307749Y-41104556D01*
X117318390Y-41112287D01*
X117434607Y-41171503D01*
X117500776Y-41205218D01*
X117500778Y-41205218D01*
X117500781Y-41205220D01*
X117562852Y-41225388D01*
X117695465Y-41268477D01*
X117796557Y-41284488D01*
X117897648Y-41300500D01*
X117897649Y-41300500D01*
X118102351Y-41300500D01*
X118102352Y-41300500D01*
X118304534Y-41268477D01*
X118461683Y-41217415D01*
X118531522Y-41215421D01*
X118538292Y-41217408D01*
X118651531Y-41254201D01*
X118695465Y-41268477D01*
X118796557Y-41284488D01*
X118897648Y-41300500D01*
X118897649Y-41300500D01*
X119102351Y-41300500D01*
X119102352Y-41300500D01*
X119304534Y-41268477D01*
X119461683Y-41217415D01*
X119531522Y-41215421D01*
X119538292Y-41217408D01*
X119651531Y-41254201D01*
X119695465Y-41268477D01*
X119796557Y-41284488D01*
X119897648Y-41300500D01*
X119897649Y-41300500D01*
X120102351Y-41300500D01*
X120102352Y-41300500D01*
X120304534Y-41268477D01*
X120499219Y-41205220D01*
X120681610Y-41112287D01*
X120820301Y-41011523D01*
X120847213Y-40991971D01*
X120847215Y-40991968D01*
X120847219Y-40991966D01*
X120991966Y-40847219D01*
X120991968Y-40847215D01*
X120991971Y-40847213D01*
X121046509Y-40772146D01*
X121112287Y-40681610D01*
X121205220Y-40499219D01*
X121268477Y-40304534D01*
X121300500Y-40102352D01*
X121300500Y-39897648D01*
X121273304Y-39725943D01*
X121268477Y-39695465D01*
X121205218Y-39500776D01*
X121169005Y-39429706D01*
X121112287Y-39318390D01*
X121080077Y-39274056D01*
X120991971Y-39152786D01*
X120847213Y-39008028D01*
X120681613Y-38887715D01*
X120681612Y-38887714D01*
X120681610Y-38887713D01*
X120624653Y-38858691D01*
X120499223Y-38794781D01*
X120304534Y-38731522D01*
X120129995Y-38703878D01*
X120102352Y-38699500D01*
X119897648Y-38699500D01*
X119830254Y-38710174D01*
X119695464Y-38731523D01*
X119695461Y-38731523D01*
X119538318Y-38782583D01*
X119468477Y-38784578D01*
X119461682Y-38782583D01*
X119304536Y-38731523D01*
X119169746Y-38710174D01*
X119102352Y-38699500D01*
X118897648Y-38699500D01*
X118830254Y-38710174D01*
X118695464Y-38731523D01*
X118695461Y-38731523D01*
X118538318Y-38782583D01*
X118468477Y-38784578D01*
X118461682Y-38782583D01*
X118304536Y-38731523D01*
X118169746Y-38710174D01*
X118102352Y-38699500D01*
X117897648Y-38699500D01*
X117873329Y-38703351D01*
X117695465Y-38731522D01*
X117500776Y-38794781D01*
X117318386Y-38887715D01*
X117152786Y-39008028D01*
X117008028Y-39152786D01*
X116887715Y-39318386D01*
X116794781Y-39500776D01*
X116731522Y-39695465D01*
X116699500Y-39897648D01*
X90736986Y-39897648D01*
X90750500Y-39725938D01*
X90750500Y-39274062D01*
X90715046Y-38823580D01*
X90644357Y-38377267D01*
X90538869Y-37937877D01*
X90399232Y-37508118D01*
X90226307Y-37090640D01*
X90021160Y-36688016D01*
X90021154Y-36688007D01*
X90021152Y-36688002D01*
X90021149Y-36687997D01*
X89785061Y-36302737D01*
X89785057Y-36302732D01*
X89785055Y-36302728D01*
X89519449Y-35937153D01*
X89519444Y-35937147D01*
X89519433Y-35937133D01*
X89225996Y-35593562D01*
X89225987Y-35593552D01*
X89225980Y-35593544D01*
X88906456Y-35274020D01*
X88906448Y-35274013D01*
X88906437Y-35274003D01*
X88562866Y-34980566D01*
X88562839Y-34980545D01*
X88356025Y-34830286D01*
X88197272Y-34714945D01*
X88197269Y-34714943D01*
X88197262Y-34714938D01*
X87812002Y-34478850D01*
X87811997Y-34478847D01*
X87811987Y-34478842D01*
X87811984Y-34478840D01*
X87409360Y-34273693D01*
X87244047Y-34205218D01*
X86991876Y-34100765D01*
X86657023Y-33991966D01*
X86562123Y-33961131D01*
X86122733Y-33855643D01*
X86093570Y-33851024D01*
X85676429Y-33784955D01*
X85676420Y-33784954D01*
X85676418Y-33784953D01*
X85676410Y-33784953D01*
X85225943Y-33749500D01*
X85225938Y-33749500D01*
X84774062Y-33749500D01*
X84774056Y-33749500D01*
X84323589Y-33784953D01*
X84323570Y-33784955D01*
X83877272Y-33855642D01*
X83877269Y-33855642D01*
X83877267Y-33855643D01*
X83807686Y-33872348D01*
X83437888Y-33961128D01*
X83437882Y-33961129D01*
X83437877Y-33961131D01*
X83437865Y-33961135D01*
X83008123Y-34100765D01*
X82590642Y-34273692D01*
X82188002Y-34478847D01*
X82187997Y-34478850D01*
X81802737Y-34714938D01*
X81802726Y-34714946D01*
X81437160Y-34980545D01*
X81437133Y-34980566D01*
X81093562Y-35274003D01*
X81093536Y-35274027D01*
X80774027Y-35593536D01*
X80774003Y-35593562D01*
X80480566Y-35937133D01*
X80480545Y-35937160D01*
X80214946Y-36302726D01*
X80214938Y-36302737D01*
X79978850Y-36687997D01*
X79978847Y-36688002D01*
X79773692Y-37090642D01*
X79600765Y-37508123D01*
X79461135Y-37937865D01*
X79461128Y-37937888D01*
X79411207Y-38145824D01*
X79356084Y-38375433D01*
X79355642Y-38377272D01*
X79284955Y-38823570D01*
X79284953Y-38823589D01*
X79249500Y-39274056D01*
X79249500Y-39725943D01*
X79284953Y-40176410D01*
X79284955Y-40176429D01*
X79336328Y-40500781D01*
X79355643Y-40622733D01*
X79461131Y-41062123D01*
X79495439Y-41167713D01*
X79600765Y-41491876D01*
X79703673Y-41740317D01*
X79773693Y-41909360D01*
X79945047Y-42245661D01*
X79978847Y-42311997D01*
X79978850Y-42312002D01*
X80214938Y-42697262D01*
X80214946Y-42697273D01*
X80480545Y-43062839D01*
X80480566Y-43062866D01*
X80774003Y-43406437D01*
X80774013Y-43406448D01*
X80774020Y-43406456D01*
X81093544Y-43725980D01*
X81093552Y-43725987D01*
X81093562Y-43725996D01*
X81437133Y-44019433D01*
X81437147Y-44019444D01*
X81437153Y-44019449D01*
X81569356Y-44115500D01*
X81789139Y-44275182D01*
X81831805Y-44330512D01*
X81837784Y-44400125D01*
X81805178Y-44461920D01*
X81744340Y-44496277D01*
X81716254Y-44499500D01*
X60456866Y-44499500D01*
X60389827Y-44479815D01*
X60344072Y-44427011D01*
X60334128Y-44357853D01*
X60363153Y-44294297D01*
X60369185Y-44287819D01*
X60434260Y-44222743D01*
X60434265Y-44222738D01*
X60581936Y-44030289D01*
X60703224Y-43820212D01*
X60796054Y-43596100D01*
X60858838Y-43361789D01*
X60890500Y-43121288D01*
X60890500Y-42878712D01*
X60858838Y-42638211D01*
X60796054Y-42403900D01*
X60703224Y-42179788D01*
X60581936Y-41969711D01*
X60455922Y-41805486D01*
X60430728Y-41740317D01*
X60444766Y-41671872D01*
X60455922Y-41654514D01*
X60457099Y-41652979D01*
X60581936Y-41490289D01*
X60703224Y-41280212D01*
X60796054Y-41056100D01*
X60858838Y-40821789D01*
X60890500Y-40581288D01*
X60890500Y-40338712D01*
X60888737Y-40325324D01*
X60858838Y-40098214D01*
X60858838Y-40098211D01*
X60796054Y-39863900D01*
X60703224Y-39639788D01*
X60581936Y-39429711D01*
X60434265Y-39237262D01*
X60434260Y-39237256D01*
X60262743Y-39065739D01*
X60262736Y-39065733D01*
X60070293Y-38918067D01*
X60070292Y-38918066D01*
X60070289Y-38918064D01*
X59860212Y-38796776D01*
X59855393Y-38794780D01*
X59636104Y-38703947D01*
X59401785Y-38641161D01*
X59161289Y-38609500D01*
X59161288Y-38609500D01*
X58918712Y-38609500D01*
X58918711Y-38609500D01*
X58678214Y-38641161D01*
X58443895Y-38703947D01*
X58219794Y-38796773D01*
X58219785Y-38796777D01*
X58009706Y-38918067D01*
X57845486Y-39044077D01*
X57780317Y-39069271D01*
X57711872Y-39055232D01*
X57694514Y-39044077D01*
X57530293Y-38918067D01*
X57530292Y-38918066D01*
X57530289Y-38918064D01*
X57320212Y-38796776D01*
X57315393Y-38794780D01*
X57096104Y-38703947D01*
X56861785Y-38641161D01*
X56621289Y-38609500D01*
X56621288Y-38609500D01*
X56378712Y-38609500D01*
X56378711Y-38609500D01*
X56138214Y-38641161D01*
X55903895Y-38703947D01*
X55679794Y-38796773D01*
X55679785Y-38796777D01*
X55469706Y-38918067D01*
X55305486Y-39044077D01*
X55240317Y-39069271D01*
X55171872Y-39055232D01*
X55154514Y-39044077D01*
X54990293Y-38918067D01*
X54990292Y-38918066D01*
X54990289Y-38918064D01*
X54780212Y-38796776D01*
X54775393Y-38794780D01*
X54556104Y-38703947D01*
X54321785Y-38641161D01*
X54081289Y-38609500D01*
X54081288Y-38609500D01*
X53838712Y-38609500D01*
X53838711Y-38609500D01*
X53598214Y-38641161D01*
X53363895Y-38703947D01*
X53139794Y-38796773D01*
X53139785Y-38796777D01*
X52929706Y-38918067D01*
X52737263Y-39065733D01*
X52737256Y-39065739D01*
X52565739Y-39237256D01*
X52565733Y-39237263D01*
X52418067Y-39429706D01*
X52296777Y-39639785D01*
X52296773Y-39639794D01*
X52203947Y-39863895D01*
X52141161Y-40098214D01*
X52109500Y-40338711D01*
X52109500Y-40581288D01*
X52141161Y-40821785D01*
X52203947Y-41056104D01*
X52296773Y-41280205D01*
X52296777Y-41280215D01*
X52349976Y-41372358D01*
X52366449Y-41440259D01*
X52343596Y-41506285D01*
X52338692Y-41512718D01*
X52270303Y-41596591D01*
X52176089Y-41776954D01*
X52138205Y-41909357D01*
X52120936Y-41969711D01*
X52120114Y-41972583D01*
X52120113Y-41972586D01*
X52116962Y-42008034D01*
X52110096Y-42085266D01*
X52109500Y-42091966D01*
X52109500Y-43908028D01*
X52109501Y-43908034D01*
X52120113Y-44027415D01*
X52176089Y-44223045D01*
X52176090Y-44223048D01*
X52176091Y-44223049D01*
X52225736Y-44318090D01*
X52239327Y-44386623D01*
X52213708Y-44451627D01*
X52157013Y-44492460D01*
X52115827Y-44499500D01*
X8783746Y-44499500D01*
X8716707Y-44479815D01*
X8670952Y-44427011D01*
X8661008Y-44357853D01*
X8690033Y-44294297D01*
X8710861Y-44275182D01*
X8783044Y-44222738D01*
X9062847Y-44019449D01*
X9157463Y-43938640D01*
X9406437Y-43725996D01*
X9406456Y-43725980D01*
X9725980Y-43406456D01*
X9964470Y-43127219D01*
X10019433Y-43062866D01*
X10019435Y-43062863D01*
X10019449Y-43062847D01*
X10285055Y-42697272D01*
X10521160Y-42311984D01*
X10726307Y-41909360D01*
X10899232Y-41491882D01*
X10900951Y-41486593D01*
X10908685Y-41462788D01*
X11038869Y-41062123D01*
X11144357Y-40622733D01*
X11215046Y-40176420D01*
X11250500Y-39725938D01*
X11250500Y-39274062D01*
X11215046Y-38823580D01*
X11144357Y-38377267D01*
X11038869Y-37937877D01*
X10899232Y-37508118D01*
X10726307Y-37090640D01*
X10521160Y-36688016D01*
X10521154Y-36688007D01*
X10521152Y-36688002D01*
X10521149Y-36687997D01*
X10285061Y-36302737D01*
X10285057Y-36302732D01*
X10285055Y-36302728D01*
X10019449Y-35937153D01*
X10019444Y-35937147D01*
X10019433Y-35937133D01*
X9725996Y-35593562D01*
X9725987Y-35593552D01*
X9725980Y-35593544D01*
X9406456Y-35274020D01*
X9406448Y-35274013D01*
X9406437Y-35274003D01*
X9062866Y-34980566D01*
X9062839Y-34980545D01*
X8856025Y-34830286D01*
X8697272Y-34714945D01*
X8697269Y-34714943D01*
X8697262Y-34714938D01*
X8312002Y-34478850D01*
X8311997Y-34478847D01*
X8311987Y-34478842D01*
X8311984Y-34478840D01*
X7909360Y-34273693D01*
X7744047Y-34205218D01*
X7491876Y-34100765D01*
X7157023Y-33991966D01*
X7062123Y-33961131D01*
X6622733Y-33855643D01*
X6593570Y-33851024D01*
X6176429Y-33784955D01*
X6176420Y-33784954D01*
X6176418Y-33784953D01*
X6176410Y-33784953D01*
X5725943Y-33749500D01*
X5725938Y-33749500D01*
X5274062Y-33749500D01*
X5274056Y-33749500D01*
X4823589Y-33784953D01*
X4823570Y-33784955D01*
X4377272Y-33855642D01*
X4377269Y-33855642D01*
X4377267Y-33855643D01*
X4307686Y-33872348D01*
X3937888Y-33961128D01*
X3937882Y-33961129D01*
X3937877Y-33961131D01*
X3937865Y-33961135D01*
X3508123Y-34100765D01*
X3090642Y-34273692D01*
X2688002Y-34478847D01*
X2687997Y-34478850D01*
X2302737Y-34714938D01*
X2302726Y-34714946D01*
X1937160Y-34980545D01*
X1937133Y-34980566D01*
X1593562Y-35274003D01*
X1593536Y-35274027D01*
X1274027Y-35593536D01*
X1274003Y-35593562D01*
X980566Y-35937133D01*
X980545Y-35937160D01*
X724818Y-36289139D01*
X669488Y-36331805D01*
X599875Y-36337784D01*
X538080Y-36305178D01*
X503723Y-36244340D01*
X500500Y-36216254D01*
X500500Y-29159568D01*
X99624500Y-29159568D01*
X99624500Y-29440431D01*
X99655942Y-29719494D01*
X99655945Y-29719512D01*
X99718439Y-29993317D01*
X99718443Y-29993329D01*
X99811200Y-30258411D01*
X99933053Y-30511442D01*
X99933055Y-30511445D01*
X100082477Y-30749248D01*
X100184797Y-30877553D01*
X100228250Y-30932042D01*
X100257584Y-30968825D01*
X100456175Y-31167416D01*
X100675752Y-31342523D01*
X100913555Y-31491945D01*
X100913557Y-31491946D01*
X100941366Y-31505338D01*
X101166592Y-31613801D01*
X101278005Y-31652786D01*
X101431670Y-31706556D01*
X101431682Y-31706560D01*
X101705491Y-31769055D01*
X101705497Y-31769055D01*
X101705505Y-31769057D01*
X101888677Y-31789695D01*
X101984569Y-31800499D01*
X101984572Y-31800500D01*
X101984575Y-31800500D01*
X102265428Y-31800500D01*
X102265429Y-31800499D01*
X102408055Y-31784429D01*
X102544494Y-31769057D01*
X102544499Y-31769056D01*
X102544509Y-31769055D01*
X102818318Y-31706560D01*
X103083408Y-31613801D01*
X103336445Y-31491945D01*
X103574248Y-31342523D01*
X103793825Y-31167416D01*
X103992416Y-30968825D01*
X104167523Y-30749248D01*
X104316945Y-30511445D01*
X104438801Y-30258408D01*
X104531560Y-29993318D01*
X104594055Y-29719509D01*
X104598277Y-29682043D01*
X104611618Y-29563634D01*
X104625500Y-29440425D01*
X104625500Y-29159575D01*
X104605198Y-28979390D01*
X104594057Y-28880505D01*
X104594054Y-28880487D01*
X104575336Y-28798480D01*
X104531560Y-28606682D01*
X104529578Y-28601019D01*
X104490105Y-28488211D01*
X104438801Y-28341592D01*
X104316945Y-28088555D01*
X104167523Y-27850752D01*
X103992416Y-27631175D01*
X103793825Y-27432584D01*
X103574248Y-27257477D01*
X103371708Y-27130212D01*
X103336442Y-27108053D01*
X103083411Y-26986200D01*
X102818329Y-26893443D01*
X102818317Y-26893439D01*
X102544512Y-26830945D01*
X102544494Y-26830942D01*
X102265431Y-26799500D01*
X102265425Y-26799500D01*
X101984575Y-26799500D01*
X101984568Y-26799500D01*
X101705505Y-26830942D01*
X101705487Y-26830945D01*
X101431682Y-26893439D01*
X101431670Y-26893443D01*
X101166588Y-26986200D01*
X100913557Y-27108053D01*
X100675753Y-27257476D01*
X100456175Y-27432583D01*
X100257583Y-27631175D01*
X100082476Y-27850753D01*
X99933053Y-28088557D01*
X99811200Y-28341588D01*
X99718443Y-28606670D01*
X99718439Y-28606682D01*
X99655945Y-28880487D01*
X99655942Y-28880505D01*
X99624500Y-29159568D01*
X500500Y-29159568D01*
X500500Y-19465965D01*
X79444500Y-19465965D01*
X79444500Y-21282027D01*
X79444501Y-21282033D01*
X79455113Y-21401414D01*
X79511089Y-21597044D01*
X79511090Y-21597047D01*
X79511091Y-21597048D01*
X79601162Y-21769481D01*
X79605305Y-21777411D01*
X79673691Y-21861280D01*
X79700800Y-21925676D01*
X79688790Y-21994506D01*
X79684977Y-22001639D01*
X79631775Y-22093788D01*
X79631773Y-22093793D01*
X79538947Y-22317894D01*
X79476161Y-22552213D01*
X79444500Y-22792710D01*
X79444500Y-23035287D01*
X79476161Y-23275784D01*
X79538947Y-23510103D01*
X79615727Y-23695466D01*
X79631776Y-23734211D01*
X79753064Y-23944288D01*
X79753066Y-23944291D01*
X79753067Y-23944292D01*
X79900733Y-24136735D01*
X79900739Y-24136742D01*
X80072256Y-24308259D01*
X80072263Y-24308265D01*
X80147641Y-24366104D01*
X80264711Y-24455935D01*
X80474788Y-24577223D01*
X80698900Y-24670053D01*
X80933211Y-24732837D01*
X81111919Y-24756364D01*
X81173711Y-24764499D01*
X81173712Y-24764499D01*
X81416289Y-24764499D01*
X81478065Y-24756366D01*
X81656789Y-24732837D01*
X81891100Y-24670053D01*
X82115212Y-24577223D01*
X82325289Y-24455935D01*
X82489514Y-24329921D01*
X82554683Y-24304727D01*
X82623128Y-24318765D01*
X82640486Y-24329921D01*
X82804711Y-24455935D01*
X83014788Y-24577223D01*
X83238900Y-24670053D01*
X83473211Y-24732837D01*
X83651919Y-24756364D01*
X83713711Y-24764499D01*
X83713712Y-24764499D01*
X83956289Y-24764499D01*
X84018065Y-24756366D01*
X84196789Y-24732837D01*
X84431100Y-24670053D01*
X84655212Y-24577223D01*
X84865289Y-24455935D01*
X85057738Y-24308264D01*
X85229265Y-24136737D01*
X85376936Y-23944288D01*
X85498224Y-23734211D01*
X85591054Y-23510099D01*
X85653838Y-23275788D01*
X85685500Y-23035287D01*
X85685500Y-22792711D01*
X85653838Y-22552210D01*
X85591054Y-22317899D01*
X85498224Y-22093787D01*
X85376936Y-21883710D01*
X85250922Y-21719485D01*
X85225728Y-21654316D01*
X85239766Y-21585871D01*
X85250922Y-21568513D01*
X85304093Y-21499219D01*
X85376936Y-21404288D01*
X85498224Y-21194211D01*
X85591054Y-20970099D01*
X85653838Y-20735788D01*
X85685500Y-20495287D01*
X85685500Y-20252711D01*
X85685500Y-20252710D01*
X87064500Y-20252710D01*
X87064500Y-20495287D01*
X87096161Y-20735784D01*
X87158947Y-20970103D01*
X87206419Y-21084710D01*
X87251776Y-21194211D01*
X87373064Y-21404288D01*
X87373066Y-21404291D01*
X87373067Y-21404292D01*
X87499077Y-21568513D01*
X87524271Y-21633682D01*
X87510232Y-21702127D01*
X87499077Y-21719485D01*
X87373067Y-21883705D01*
X87251777Y-22093784D01*
X87251773Y-22093793D01*
X87158947Y-22317894D01*
X87096161Y-22552213D01*
X87064500Y-22792710D01*
X87064500Y-23035287D01*
X87096161Y-23275784D01*
X87158947Y-23510103D01*
X87235727Y-23695466D01*
X87251776Y-23734211D01*
X87373064Y-23944288D01*
X87373066Y-23944291D01*
X87373067Y-23944292D01*
X87520733Y-24136735D01*
X87520739Y-24136742D01*
X87692256Y-24308259D01*
X87692263Y-24308265D01*
X87767641Y-24366104D01*
X87884711Y-24455935D01*
X88094788Y-24577223D01*
X88318900Y-24670053D01*
X88553211Y-24732837D01*
X88731919Y-24756364D01*
X88793711Y-24764499D01*
X88793712Y-24764499D01*
X89036289Y-24764499D01*
X89098065Y-24756366D01*
X89276789Y-24732837D01*
X89511100Y-24670053D01*
X89735212Y-24577223D01*
X89945289Y-24455935D01*
X90137738Y-24308264D01*
X90309265Y-24136737D01*
X90456936Y-23944288D01*
X90578224Y-23734211D01*
X90671054Y-23510099D01*
X90733838Y-23275788D01*
X90765500Y-23035287D01*
X90765500Y-22792711D01*
X90733838Y-22552210D01*
X90671054Y-22317899D01*
X90578224Y-22093787D01*
X90456936Y-21883710D01*
X90330922Y-21719485D01*
X90305728Y-21654316D01*
X90319766Y-21585871D01*
X90330922Y-21568513D01*
X90384093Y-21499219D01*
X90456936Y-21404288D01*
X90578224Y-21194211D01*
X90599670Y-21142432D01*
X90643510Y-21088029D01*
X90709804Y-21065963D01*
X90777503Y-21083241D01*
X90787118Y-21089567D01*
X90818385Y-21112284D01*
X90818387Y-21112285D01*
X90818390Y-21112287D01*
X90819097Y-21112647D01*
X91000776Y-21205218D01*
X91000778Y-21205218D01*
X91000781Y-21205220D01*
X91105137Y-21239127D01*
X91195465Y-21268477D01*
X91281016Y-21282027D01*
X91397648Y-21300500D01*
X91397649Y-21300500D01*
X91602351Y-21300500D01*
X91602352Y-21300500D01*
X91804534Y-21268477D01*
X91999219Y-21205220D01*
X92181610Y-21112287D01*
X92181616Y-21112282D01*
X92185711Y-21109774D01*
X92253157Y-21091530D01*
X92319759Y-21112647D01*
X92364372Y-21166419D01*
X92374500Y-21215502D01*
X92374500Y-22314550D01*
X92360985Y-22370844D01*
X92294779Y-22500780D01*
X92294779Y-22500781D01*
X92231523Y-22695461D01*
X92231523Y-22695464D01*
X92199500Y-22897648D01*
X92199500Y-23102351D01*
X92231522Y-23304534D01*
X92294781Y-23499223D01*
X92352245Y-23612000D01*
X92367544Y-23642027D01*
X92387715Y-23681613D01*
X92508028Y-23847213D01*
X92652786Y-23991971D01*
X92807071Y-24104063D01*
X92818390Y-24112287D01*
X93000781Y-24205220D01*
X93162591Y-24257795D01*
X93220267Y-24297232D01*
X93242204Y-24337407D01*
X93294781Y-24499223D01*
X93358691Y-24624653D01*
X93381824Y-24670053D01*
X93387715Y-24681613D01*
X93508028Y-24847213D01*
X93652785Y-24991970D01*
X93763612Y-25072489D01*
X93818390Y-25112287D01*
X93934607Y-25171503D01*
X94000776Y-25205218D01*
X94000778Y-25205218D01*
X94000781Y-25205220D01*
X94105137Y-25239127D01*
X94195465Y-25268477D01*
X94296557Y-25284488D01*
X94397648Y-25300500D01*
X94397649Y-25300500D01*
X94602351Y-25300500D01*
X94602352Y-25300500D01*
X94804534Y-25268477D01*
X94999219Y-25205220D01*
X95181610Y-25112287D01*
X95266905Y-25050317D01*
X95347215Y-24991970D01*
X95347216Y-24991967D01*
X95347219Y-24991966D01*
X95491966Y-24847219D01*
X95491968Y-24847215D01*
X95491971Y-24847213D01*
X95566949Y-24744013D01*
X95612287Y-24681610D01*
X95705220Y-24499219D01*
X95768477Y-24304534D01*
X95800500Y-24102352D01*
X95800500Y-23897648D01*
X95768477Y-23695466D01*
X95768476Y-23695462D01*
X95768476Y-23695461D01*
X95705220Y-23500781D01*
X95705220Y-23500780D01*
X95639015Y-23370844D01*
X95625500Y-23314550D01*
X95625500Y-21685448D01*
X95639015Y-21629153D01*
X95655374Y-21597048D01*
X95705220Y-21499219D01*
X95768477Y-21304534D01*
X95800500Y-21102352D01*
X95800500Y-20897648D01*
X95777683Y-20753588D01*
X95768477Y-20695465D01*
X95733985Y-20589312D01*
X95705220Y-20500781D01*
X95705218Y-20500778D01*
X95705218Y-20500776D01*
X95658860Y-20409794D01*
X95612287Y-20318390D01*
X95564569Y-20252711D01*
X95491971Y-20152786D01*
X95347213Y-20008028D01*
X95181613Y-19887715D01*
X95181612Y-19887714D01*
X95181610Y-19887713D01*
X94999219Y-19794780D01*
X94804534Y-19731523D01*
X94804531Y-19731522D01*
X94804532Y-19731522D01*
X94730101Y-19719733D01*
X94666966Y-19689803D01*
X94630036Y-19630491D01*
X94625500Y-19597260D01*
X94625500Y-18685448D01*
X94639015Y-18629153D01*
X94705219Y-18499221D01*
X94726192Y-18434675D01*
X94768477Y-18304534D01*
X94800500Y-18102352D01*
X94800500Y-17897648D01*
X94768477Y-17695466D01*
X94756859Y-17659711D01*
X94705218Y-17500776D01*
X94652671Y-17397648D01*
X94612287Y-17318390D01*
X94604556Y-17307749D01*
X94491971Y-17152786D01*
X94347213Y-17008028D01*
X94181613Y-16887715D01*
X94181612Y-16887714D01*
X94181610Y-16887713D01*
X94093972Y-16843059D01*
X93999223Y-16794781D01*
X93804534Y-16731522D01*
X93629995Y-16703878D01*
X93602352Y-16699500D01*
X93397648Y-16699500D01*
X93373329Y-16703351D01*
X93195465Y-16731522D01*
X93000776Y-16794781D01*
X92818391Y-16887712D01*
X92818387Y-16887714D01*
X92811197Y-16892938D01*
X92745389Y-16916411D01*
X92677337Y-16900580D01*
X92628646Y-16850470D01*
X92627875Y-16848983D01*
X92612287Y-16818390D01*
X92612285Y-16818387D01*
X92612284Y-16818385D01*
X92491971Y-16652786D01*
X92347213Y-16508028D01*
X92181613Y-16387715D01*
X92181612Y-16387714D01*
X92181610Y-16387713D01*
X92124653Y-16358691D01*
X91999223Y-16294781D01*
X91804534Y-16231522D01*
X91629995Y-16203878D01*
X91602352Y-16199500D01*
X91397648Y-16199500D01*
X91373329Y-16203351D01*
X91195465Y-16231522D01*
X91000776Y-16294781D01*
X90818386Y-16387715D01*
X90652786Y-16508028D01*
X90508028Y-16652786D01*
X90387715Y-16818386D01*
X90294781Y-17000776D01*
X90231522Y-17195465D01*
X90199500Y-17397648D01*
X90199500Y-17602351D01*
X90231522Y-17804534D01*
X90294781Y-17999223D01*
X90360985Y-18129153D01*
X90374500Y-18185448D01*
X90374500Y-18917133D01*
X90354815Y-18984172D01*
X90302011Y-19029927D01*
X90232853Y-19039871D01*
X90169297Y-19010846D01*
X90162819Y-19004814D01*
X90137743Y-18979738D01*
X90137736Y-18979732D01*
X89945293Y-18832066D01*
X89945292Y-18832065D01*
X89945289Y-18832063D01*
X89735212Y-18710775D01*
X89735205Y-18710772D01*
X89511104Y-18617946D01*
X89393944Y-18586553D01*
X89276789Y-18555161D01*
X89276788Y-18555160D01*
X89276785Y-18555160D01*
X89036289Y-18523499D01*
X89036288Y-18523499D01*
X88793712Y-18523499D01*
X88793711Y-18523499D01*
X88553214Y-18555160D01*
X88318895Y-18617946D01*
X88094794Y-18710772D01*
X88094785Y-18710776D01*
X87884706Y-18832066D01*
X87692263Y-18979732D01*
X87692256Y-18979738D01*
X87520739Y-19151255D01*
X87520733Y-19151262D01*
X87373067Y-19343705D01*
X87373064Y-19343709D01*
X87373064Y-19343710D01*
X87371406Y-19346582D01*
X87251777Y-19553784D01*
X87251773Y-19553793D01*
X87158947Y-19777894D01*
X87096161Y-20012213D01*
X87064500Y-20252710D01*
X85685500Y-20252710D01*
X85653838Y-20012210D01*
X85591054Y-19777899D01*
X85585670Y-19764902D01*
X85559497Y-19701713D01*
X85498224Y-19553787D01*
X85376936Y-19343710D01*
X85294500Y-19236277D01*
X85229266Y-19151262D01*
X85229260Y-19151255D01*
X85057743Y-18979738D01*
X85057736Y-18979732D01*
X84865293Y-18832066D01*
X84865292Y-18832065D01*
X84865289Y-18832063D01*
X84655212Y-18710775D01*
X84655205Y-18710772D01*
X84431104Y-18617946D01*
X84313944Y-18586553D01*
X84196789Y-18555161D01*
X84196788Y-18555160D01*
X84196785Y-18555160D01*
X83956289Y-18523499D01*
X83956288Y-18523499D01*
X83713712Y-18523499D01*
X83713711Y-18523499D01*
X83473214Y-18555160D01*
X83238895Y-18617946D01*
X83014794Y-18710772D01*
X83014789Y-18710774D01*
X82922640Y-18763976D01*
X82854740Y-18780448D01*
X82788713Y-18757595D01*
X82782281Y-18752690D01*
X82698412Y-18684304D01*
X82698408Y-18684302D01*
X82698407Y-18684301D01*
X82518049Y-18590090D01*
X82518048Y-18590089D01*
X82518045Y-18590088D01*
X82400829Y-18556549D01*
X82322418Y-18534113D01*
X82322415Y-18534112D01*
X82322413Y-18534112D01*
X82256102Y-18528216D01*
X82203037Y-18523499D01*
X82203032Y-18523499D01*
X80386971Y-18523499D01*
X80386965Y-18523499D01*
X80386964Y-18523500D01*
X80375316Y-18524535D01*
X80267584Y-18534112D01*
X80071954Y-18590088D01*
X79981772Y-18637195D01*
X79891593Y-18684301D01*
X79891591Y-18684302D01*
X79891590Y-18684303D01*
X79733890Y-18812889D01*
X79605304Y-18970589D01*
X79605302Y-18970592D01*
X79587426Y-19004814D01*
X79511089Y-19150953D01*
X79466878Y-19305469D01*
X79455936Y-19343710D01*
X79455114Y-19346582D01*
X79455113Y-19346585D01*
X79444500Y-19465965D01*
X500500Y-19465965D01*
X500500Y-8783745D01*
X520185Y-8716706D01*
X572989Y-8670951D01*
X642147Y-8661007D01*
X705703Y-8690032D01*
X724814Y-8710856D01*
X928371Y-8991027D01*
X980545Y-9062839D01*
X980566Y-9062866D01*
X1274003Y-9406437D01*
X1274013Y-9406448D01*
X1274020Y-9406456D01*
X1593544Y-9725980D01*
X1593552Y-9725987D01*
X1593562Y-9725996D01*
X1937133Y-10019433D01*
X1937147Y-10019444D01*
X1937153Y-10019449D01*
X2302728Y-10285055D01*
X2302732Y-10285057D01*
X2302737Y-10285061D01*
X2687997Y-10521149D01*
X2688002Y-10521152D01*
X2688007Y-10521154D01*
X2688016Y-10521160D01*
X3090640Y-10726307D01*
X3457842Y-10878407D01*
X3508123Y-10899234D01*
X3617395Y-10934738D01*
X3937877Y-11038869D01*
X4377267Y-11144357D01*
X4823580Y-11215046D01*
X5274062Y-11250500D01*
X5274070Y-11250500D01*
X5725930Y-11250500D01*
X5725938Y-11250500D01*
X6176420Y-11215046D01*
X6622733Y-11144357D01*
X7062123Y-11038869D01*
X7491882Y-10899232D01*
X7909360Y-10726307D01*
X8311984Y-10521160D01*
X8345240Y-10500781D01*
X8469201Y-10424817D01*
X8697272Y-10285055D01*
X9062847Y-10019449D01*
X9076213Y-10008034D01*
X9377450Y-9750753D01*
X9406456Y-9725980D01*
X9725980Y-9406456D01*
X9938628Y-9157477D01*
X10019433Y-9062866D01*
X10019435Y-9062863D01*
X10019449Y-9062847D01*
X10285055Y-8697272D01*
X10521160Y-8311984D01*
X10726307Y-7909360D01*
X10899232Y-7491882D01*
X11038869Y-7062123D01*
X11144357Y-6622733D01*
X11215046Y-6176420D01*
X11250500Y-5725938D01*
X11250500Y-5274062D01*
X11215046Y-4823580D01*
X11144357Y-4377267D01*
X11038869Y-3937877D01*
X10899232Y-3508118D01*
X10726307Y-3090640D01*
X10597943Y-2838711D01*
X52109500Y-2838711D01*
X52109500Y-3081288D01*
X52141161Y-3321785D01*
X52203947Y-3556104D01*
X52296773Y-3780205D01*
X52296777Y-3780215D01*
X52349976Y-3872358D01*
X52366449Y-3940259D01*
X52343596Y-4006285D01*
X52338692Y-4012718D01*
X52270303Y-4096591D01*
X52176089Y-4276954D01*
X52136623Y-4414886D01*
X52120936Y-4469711D01*
X52120114Y-4472583D01*
X52120113Y-4472586D01*
X52109500Y-4591966D01*
X52109500Y-6408028D01*
X52109501Y-6408034D01*
X52120113Y-6527415D01*
X52176089Y-6723045D01*
X52176090Y-6723048D01*
X52176091Y-6723049D01*
X52270302Y-6903407D01*
X52270304Y-6903409D01*
X52398890Y-7061109D01*
X52458879Y-7110023D01*
X52556593Y-7189698D01*
X52736951Y-7283909D01*
X52932582Y-7339886D01*
X53051963Y-7350500D01*
X54868036Y-7350499D01*
X54987418Y-7339886D01*
X55183049Y-7283909D01*
X55363407Y-7189698D01*
X55447279Y-7121308D01*
X55511674Y-7094199D01*
X55580504Y-7106208D01*
X55587639Y-7110023D01*
X55679777Y-7163218D01*
X55679780Y-7163219D01*
X55679788Y-7163224D01*
X55903900Y-7256054D01*
X56138211Y-7318838D01*
X56318586Y-7342584D01*
X56378711Y-7350500D01*
X56378712Y-7350500D01*
X56621289Y-7350500D01*
X56669388Y-7344167D01*
X56861789Y-7318838D01*
X57096100Y-7256054D01*
X57320212Y-7163224D01*
X57530289Y-7041936D01*
X57694514Y-6915922D01*
X57759683Y-6890728D01*
X57828128Y-6904766D01*
X57845486Y-6915922D01*
X58009711Y-7041936D01*
X58219788Y-7163224D01*
X58443900Y-7256054D01*
X58678211Y-7318838D01*
X58858586Y-7342584D01*
X58918711Y-7350500D01*
X58918712Y-7350500D01*
X59161289Y-7350500D01*
X59209388Y-7344167D01*
X59401789Y-7318838D01*
X59636100Y-7256054D01*
X59860212Y-7163224D01*
X60070289Y-7041936D01*
X60262738Y-6894265D01*
X60434265Y-6722738D01*
X60581936Y-6530289D01*
X60703224Y-6320212D01*
X60796054Y-6096100D01*
X60858838Y-5861789D01*
X60890500Y-5621288D01*
X60890500Y-5378712D01*
X60858838Y-5138211D01*
X60796054Y-4903900D01*
X60703224Y-4679788D01*
X60581936Y-4469711D01*
X60455922Y-4305486D01*
X60430728Y-4240317D01*
X60444766Y-4171872D01*
X60455922Y-4154514D01*
X60500366Y-4096593D01*
X60581936Y-3990289D01*
X60703224Y-3780212D01*
X60796054Y-3556100D01*
X60858838Y-3321789D01*
X60890500Y-3081288D01*
X60890500Y-2838712D01*
X60858838Y-2598211D01*
X60796054Y-2363900D01*
X60703224Y-2139788D01*
X60581936Y-1929711D01*
X60501205Y-1824500D01*
X60434266Y-1737263D01*
X60434260Y-1737256D01*
X60262743Y-1565739D01*
X60262736Y-1565733D01*
X60070293Y-1418067D01*
X60070292Y-1418066D01*
X60070289Y-1418064D01*
X59860212Y-1296776D01*
X59805291Y-1274027D01*
X59636104Y-1203947D01*
X59401785Y-1141161D01*
X59161289Y-1109500D01*
X59161288Y-1109500D01*
X58918712Y-1109500D01*
X58918711Y-1109500D01*
X58678214Y-1141161D01*
X58443895Y-1203947D01*
X58219794Y-1296773D01*
X58219785Y-1296777D01*
X58009706Y-1418067D01*
X57845486Y-1544077D01*
X57780317Y-1569271D01*
X57711872Y-1555232D01*
X57694514Y-1544077D01*
X57530293Y-1418067D01*
X57530292Y-1418066D01*
X57530289Y-1418064D01*
X57320212Y-1296776D01*
X57265291Y-1274027D01*
X57096104Y-1203947D01*
X56861785Y-1141161D01*
X56621289Y-1109500D01*
X56621288Y-1109500D01*
X56378712Y-1109500D01*
X56378711Y-1109500D01*
X56138214Y-1141161D01*
X55903895Y-1203947D01*
X55679794Y-1296773D01*
X55679785Y-1296777D01*
X55469706Y-1418067D01*
X55305486Y-1544077D01*
X55240317Y-1569271D01*
X55171872Y-1555232D01*
X55154514Y-1544077D01*
X54990293Y-1418067D01*
X54990292Y-1418066D01*
X54990289Y-1418064D01*
X54780212Y-1296776D01*
X54725291Y-1274027D01*
X54556104Y-1203947D01*
X54321785Y-1141161D01*
X54081289Y-1109500D01*
X54081288Y-1109500D01*
X53838712Y-1109500D01*
X53838711Y-1109500D01*
X53598214Y-1141161D01*
X53363895Y-1203947D01*
X53139794Y-1296773D01*
X53139785Y-1296777D01*
X52929706Y-1418067D01*
X52737263Y-1565733D01*
X52737256Y-1565739D01*
X52565739Y-1737256D01*
X52565733Y-1737263D01*
X52418067Y-1929706D01*
X52296777Y-2139785D01*
X52296773Y-2139794D01*
X52203947Y-2363895D01*
X52141161Y-2598214D01*
X52109500Y-2838711D01*
X10597943Y-2838711D01*
X10521160Y-2688016D01*
X10521154Y-2688007D01*
X10521152Y-2688002D01*
X10521149Y-2687997D01*
X10285061Y-2302737D01*
X10285057Y-2302732D01*
X10285055Y-2302728D01*
X10019449Y-1937153D01*
X10019444Y-1937147D01*
X10019433Y-1937133D01*
X9725996Y-1593562D01*
X9725987Y-1593552D01*
X9725980Y-1593544D01*
X9406456Y-1274020D01*
X9406448Y-1274013D01*
X9406437Y-1274003D01*
X9062866Y-980566D01*
X9062839Y-980545D01*
X8710861Y-724818D01*
X8668195Y-669488D01*
X8662216Y-599875D01*
X8694822Y-538080D01*
X8755660Y-503723D01*
X8783746Y-500500D01*
X81716254Y-500500D01*
X81783293Y-520185D01*
G37*
%TD.AperFunction*%
%TA.AperFunction,Conductor*%
G36*
X251283293Y-520185D02*
G01*
X251329048Y-572989D01*
X251338992Y-642147D01*
X251309967Y-705703D01*
X251289139Y-724818D01*
X250937160Y-980545D01*
X250937133Y-980566D01*
X250593562Y-1274003D01*
X250593536Y-1274027D01*
X250274027Y-1593536D01*
X250274003Y-1593562D01*
X249980566Y-1937133D01*
X249980545Y-1937160D01*
X249714946Y-2302726D01*
X249714938Y-2302737D01*
X249478850Y-2687997D01*
X249478847Y-2688002D01*
X249273692Y-3090642D01*
X249100765Y-3508123D01*
X248961135Y-3937865D01*
X248961128Y-3937888D01*
X248943163Y-4012718D01*
X248860051Y-4358909D01*
X248855642Y-4377272D01*
X248784955Y-4823570D01*
X248784953Y-4823589D01*
X248749500Y-5274056D01*
X248749500Y-5725943D01*
X248784953Y-6176410D01*
X248784955Y-6176429D01*
X248840873Y-6529481D01*
X248855643Y-6622733D01*
X248919983Y-6890728D01*
X248960887Y-7061109D01*
X248961131Y-7062123D01*
X248971553Y-7094199D01*
X249100765Y-7491876D01*
X249187781Y-7701951D01*
X249273693Y-7909360D01*
X249478840Y-8311984D01*
X249478847Y-8311997D01*
X249478850Y-8312002D01*
X249714938Y-8697262D01*
X249714943Y-8697269D01*
X249714945Y-8697272D01*
X249852209Y-8886199D01*
X249980545Y-9062839D01*
X249980566Y-9062866D01*
X250274003Y-9406437D01*
X250274013Y-9406448D01*
X250274020Y-9406456D01*
X250593544Y-9725980D01*
X250593552Y-9725987D01*
X250593562Y-9725996D01*
X250937133Y-10019433D01*
X250937147Y-10019444D01*
X250937153Y-10019449D01*
X251302728Y-10285055D01*
X251302732Y-10285057D01*
X251302737Y-10285061D01*
X251687997Y-10521149D01*
X251688002Y-10521152D01*
X251688007Y-10521154D01*
X251688016Y-10521160D01*
X252090640Y-10726307D01*
X252457842Y-10878407D01*
X252508123Y-10899234D01*
X252617395Y-10934738D01*
X252937877Y-11038869D01*
X253377267Y-11144357D01*
X253823580Y-11215046D01*
X254274062Y-11250500D01*
X254274070Y-11250500D01*
X254725930Y-11250500D01*
X254725938Y-11250500D01*
X255176420Y-11215046D01*
X255622733Y-11144357D01*
X256062123Y-11038869D01*
X256491882Y-10899232D01*
X256909360Y-10726307D01*
X257311984Y-10521160D01*
X257345240Y-10500781D01*
X257469201Y-10424817D01*
X257697272Y-10285055D01*
X258062847Y-10019449D01*
X258076213Y-10008034D01*
X258377450Y-9750753D01*
X258406456Y-9725980D01*
X258725980Y-9406456D01*
X258938628Y-9157477D01*
X259019433Y-9062866D01*
X259019435Y-9062863D01*
X259019449Y-9062847D01*
X259275183Y-8710858D01*
X259330512Y-8668194D01*
X259400125Y-8662215D01*
X259461920Y-8694821D01*
X259496277Y-8755659D01*
X259499500Y-8783745D01*
X259499500Y-36216254D01*
X259479815Y-36283293D01*
X259427011Y-36329048D01*
X259357853Y-36338992D01*
X259294297Y-36309967D01*
X259275182Y-36289139D01*
X259136155Y-36097785D01*
X259019449Y-35937153D01*
X259019444Y-35937147D01*
X259019433Y-35937133D01*
X258725996Y-35593562D01*
X258725987Y-35593552D01*
X258725980Y-35593544D01*
X258406456Y-35274020D01*
X258406448Y-35274013D01*
X258406437Y-35274003D01*
X258062866Y-34980566D01*
X258062839Y-34980545D01*
X257856025Y-34830286D01*
X257697272Y-34714945D01*
X257697269Y-34714943D01*
X257697262Y-34714938D01*
X257312002Y-34478850D01*
X257311997Y-34478847D01*
X257311987Y-34478842D01*
X257311984Y-34478840D01*
X256909360Y-34273693D01*
X256744047Y-34205218D01*
X256491876Y-34100765D01*
X256157023Y-33991966D01*
X256062123Y-33961131D01*
X255622733Y-33855643D01*
X255593570Y-33851024D01*
X255176429Y-33784955D01*
X255176420Y-33784954D01*
X255176418Y-33784953D01*
X255176410Y-33784953D01*
X254725943Y-33749500D01*
X254725938Y-33749500D01*
X254274062Y-33749500D01*
X254274056Y-33749500D01*
X253823589Y-33784953D01*
X253823570Y-33784955D01*
X253377272Y-33855642D01*
X253377269Y-33855642D01*
X253377267Y-33855643D01*
X253307686Y-33872348D01*
X252937888Y-33961128D01*
X252937882Y-33961129D01*
X252937877Y-33961131D01*
X252937865Y-33961135D01*
X252508123Y-34100765D01*
X252090642Y-34273692D01*
X251688002Y-34478847D01*
X251687997Y-34478850D01*
X251302737Y-34714938D01*
X251302726Y-34714946D01*
X250937160Y-34980545D01*
X250937133Y-34980566D01*
X250593562Y-35274003D01*
X250593536Y-35274027D01*
X250274027Y-35593536D01*
X250274003Y-35593562D01*
X249980566Y-35937133D01*
X249980545Y-35937160D01*
X249714946Y-36302726D01*
X249714938Y-36302737D01*
X249478850Y-36687997D01*
X249478847Y-36688002D01*
X249273692Y-37090642D01*
X249100765Y-37508123D01*
X248961135Y-37937865D01*
X248961128Y-37937888D01*
X248911207Y-38145824D01*
X248856084Y-38375433D01*
X248855642Y-38377272D01*
X248784955Y-38823570D01*
X248784953Y-38823589D01*
X248749500Y-39274056D01*
X248749500Y-39725943D01*
X248784953Y-40176410D01*
X248784955Y-40176429D01*
X248836328Y-40500781D01*
X248855643Y-40622733D01*
X248961131Y-41062123D01*
X248995439Y-41167713D01*
X249100765Y-41491876D01*
X249203673Y-41740317D01*
X249273693Y-41909360D01*
X249445047Y-42245661D01*
X249478847Y-42311997D01*
X249478850Y-42312002D01*
X249714938Y-42697262D01*
X249714946Y-42697273D01*
X249980545Y-43062839D01*
X249980566Y-43062866D01*
X250274003Y-43406437D01*
X250274013Y-43406448D01*
X250274020Y-43406456D01*
X250593544Y-43725980D01*
X250593552Y-43725987D01*
X250593562Y-43725996D01*
X250937133Y-44019433D01*
X250937147Y-44019444D01*
X250937153Y-44019449D01*
X251069356Y-44115500D01*
X251289139Y-44275182D01*
X251331805Y-44330512D01*
X251337784Y-44400125D01*
X251305178Y-44461920D01*
X251244340Y-44496277D01*
X251216254Y-44499500D01*
X183283746Y-44499500D01*
X183216707Y-44479815D01*
X183170952Y-44427011D01*
X183161008Y-44357853D01*
X183190033Y-44294297D01*
X183210861Y-44275182D01*
X183283044Y-44222738D01*
X183562847Y-44019449D01*
X183657463Y-43938640D01*
X183906437Y-43725996D01*
X183906456Y-43725980D01*
X184225980Y-43406456D01*
X184464470Y-43127219D01*
X184519433Y-43062866D01*
X184519435Y-43062863D01*
X184519449Y-43062847D01*
X184785055Y-42697272D01*
X185021160Y-42311984D01*
X185226307Y-41909360D01*
X185399232Y-41491882D01*
X185400951Y-41486593D01*
X185408685Y-41462788D01*
X185538869Y-41062123D01*
X185644357Y-40622733D01*
X185715046Y-40176420D01*
X185750500Y-39725938D01*
X185750500Y-39603711D01*
X187259500Y-39603711D01*
X187259500Y-39846288D01*
X187291161Y-40086785D01*
X187353947Y-40321104D01*
X187428372Y-40500781D01*
X187446776Y-40545212D01*
X187568064Y-40755289D01*
X187568066Y-40755292D01*
X187568067Y-40755293D01*
X187694077Y-40919514D01*
X187719271Y-40984683D01*
X187705232Y-41053128D01*
X187694077Y-41070486D01*
X187568067Y-41234706D01*
X187446777Y-41444785D01*
X187446773Y-41444794D01*
X187353947Y-41668895D01*
X187291161Y-41903214D01*
X187259500Y-42143711D01*
X187259500Y-42386288D01*
X187291161Y-42626785D01*
X187353947Y-42861104D01*
X187401493Y-42975890D01*
X187446776Y-43085212D01*
X187568064Y-43295289D01*
X187568066Y-43295292D01*
X187568067Y-43295293D01*
X187715733Y-43487736D01*
X187715739Y-43487743D01*
X187887256Y-43659260D01*
X187887263Y-43659266D01*
X187925286Y-43688442D01*
X188079711Y-43806936D01*
X188289788Y-43928224D01*
X188485269Y-44009195D01*
X188509986Y-44019433D01*
X188513900Y-44021054D01*
X188748211Y-44083838D01*
X188928586Y-44107584D01*
X188988711Y-44115500D01*
X188988712Y-44115500D01*
X189231289Y-44115500D01*
X189279388Y-44109167D01*
X189471789Y-44083838D01*
X189706100Y-44021054D01*
X189930212Y-43928224D01*
X190140289Y-43806936D01*
X190304514Y-43680922D01*
X190369683Y-43655728D01*
X190438128Y-43669766D01*
X190455486Y-43680922D01*
X190619711Y-43806936D01*
X190829788Y-43928224D01*
X191025269Y-44009195D01*
X191049986Y-44019433D01*
X191053900Y-44021054D01*
X191288211Y-44083838D01*
X191468586Y-44107584D01*
X191528711Y-44115500D01*
X191528712Y-44115500D01*
X191771289Y-44115500D01*
X191819388Y-44109167D01*
X192011789Y-44083838D01*
X192246100Y-44021054D01*
X192470212Y-43928224D01*
X192680289Y-43806936D01*
X192872738Y-43659265D01*
X193044265Y-43487738D01*
X193191936Y-43295289D01*
X193313224Y-43085212D01*
X193406054Y-42861100D01*
X193468838Y-42626789D01*
X193500500Y-42386288D01*
X193500500Y-42143712D01*
X193496362Y-42112284D01*
X193480523Y-41991971D01*
X193468838Y-41903211D01*
X193406054Y-41668900D01*
X193387787Y-41624801D01*
X193380319Y-41555333D01*
X193411594Y-41492854D01*
X193471682Y-41457201D01*
X193541508Y-41459694D01*
X193549800Y-41462787D01*
X193593900Y-41481054D01*
X193828211Y-41543838D01*
X193978587Y-41563635D01*
X194068711Y-41575500D01*
X194068712Y-41575500D01*
X194311289Y-41575500D01*
X194359388Y-41569167D01*
X194551789Y-41543838D01*
X194786100Y-41481054D01*
X195010212Y-41388224D01*
X195220289Y-41266936D01*
X195384514Y-41140922D01*
X195449683Y-41115728D01*
X195518128Y-41129766D01*
X195535486Y-41140922D01*
X195699711Y-41266936D01*
X195909788Y-41388224D01*
X196133900Y-41481054D01*
X196368211Y-41543838D01*
X196518587Y-41563635D01*
X196608711Y-41575500D01*
X196608712Y-41575500D01*
X196851289Y-41575500D01*
X196899388Y-41569167D01*
X197091789Y-41543838D01*
X197326100Y-41481054D01*
X197550212Y-41388224D01*
X197760289Y-41266936D01*
X197924514Y-41140922D01*
X197989683Y-41115728D01*
X198058128Y-41129766D01*
X198075486Y-41140922D01*
X198239711Y-41266936D01*
X198449788Y-41388224D01*
X198673900Y-41481054D01*
X198908211Y-41543838D01*
X199058587Y-41563635D01*
X199148711Y-41575500D01*
X199148712Y-41575500D01*
X199391289Y-41575500D01*
X199439388Y-41569167D01*
X199631789Y-41543838D01*
X199866100Y-41481054D01*
X200090212Y-41388224D01*
X200300289Y-41266936D01*
X200464514Y-41140922D01*
X200529683Y-41115728D01*
X200598128Y-41129766D01*
X200615486Y-41140922D01*
X200779711Y-41266936D01*
X200989788Y-41388224D01*
X201213900Y-41481054D01*
X201448211Y-41543838D01*
X201598587Y-41563635D01*
X201688711Y-41575500D01*
X201688712Y-41575500D01*
X201931289Y-41575500D01*
X201979388Y-41569167D01*
X202171789Y-41543838D01*
X202406100Y-41481054D01*
X202630212Y-41388224D01*
X202840289Y-41266936D01*
X203004514Y-41140922D01*
X203069683Y-41115728D01*
X203138128Y-41129766D01*
X203155486Y-41140922D01*
X203319711Y-41266936D01*
X203529788Y-41388224D01*
X203753900Y-41481054D01*
X203988211Y-41543838D01*
X204138587Y-41563635D01*
X204228711Y-41575500D01*
X204228712Y-41575500D01*
X204471289Y-41575500D01*
X204519388Y-41569167D01*
X204711789Y-41543838D01*
X204946100Y-41481054D01*
X204946105Y-41481051D01*
X204946108Y-41481051D01*
X204990196Y-41462789D01*
X205059665Y-41455319D01*
X205122145Y-41486593D01*
X205157798Y-41546681D01*
X205155305Y-41616507D01*
X205152212Y-41624800D01*
X205133947Y-41668896D01*
X205071161Y-41903214D01*
X205039500Y-42143711D01*
X205039500Y-42386288D01*
X205071161Y-42626785D01*
X205133947Y-42861104D01*
X205181493Y-42975890D01*
X205226776Y-43085212D01*
X205348064Y-43295289D01*
X205348066Y-43295292D01*
X205348067Y-43295293D01*
X205495733Y-43487736D01*
X205495739Y-43487743D01*
X205667256Y-43659260D01*
X205667263Y-43659266D01*
X205705286Y-43688442D01*
X205859711Y-43806936D01*
X206069788Y-43928224D01*
X206265269Y-44009195D01*
X206289986Y-44019433D01*
X206293900Y-44021054D01*
X206528211Y-44083838D01*
X206708586Y-44107584D01*
X206768711Y-44115500D01*
X206768712Y-44115500D01*
X207011289Y-44115500D01*
X207059388Y-44109167D01*
X207251789Y-44083838D01*
X207486100Y-44021054D01*
X207710212Y-43928224D01*
X207920289Y-43806936D01*
X208112738Y-43659265D01*
X208284265Y-43487738D01*
X208431936Y-43295289D01*
X208553224Y-43085212D01*
X208646054Y-42861100D01*
X208708838Y-42626789D01*
X208740500Y-42386288D01*
X208740500Y-42143712D01*
X208736363Y-42112287D01*
X208732461Y-42082644D01*
X208730865Y-42070525D01*
X211049500Y-42070525D01*
X211049500Y-42329474D01*
X211049501Y-42329491D01*
X211083299Y-42586217D01*
X211083300Y-42586222D01*
X211083301Y-42586228D01*
X211097230Y-42638211D01*
X211150324Y-42836364D01*
X211249423Y-43075609D01*
X211249427Y-43075619D01*
X211378906Y-43299883D01*
X211536551Y-43505331D01*
X211536557Y-43505338D01*
X211719661Y-43688442D01*
X211719668Y-43688448D01*
X211925116Y-43846093D01*
X212149380Y-43975572D01*
X212149381Y-43975572D01*
X212149384Y-43975574D01*
X212388634Y-44074675D01*
X212638772Y-44141699D01*
X212895519Y-44175500D01*
X212895526Y-44175500D01*
X213154474Y-44175500D01*
X213154481Y-44175500D01*
X213411228Y-44141699D01*
X213661366Y-44074675D01*
X213900616Y-43975574D01*
X214124884Y-43846093D01*
X214330333Y-43688447D01*
X214513447Y-43505333D01*
X214671093Y-43299884D01*
X214800574Y-43075616D01*
X214899675Y-42836366D01*
X214966699Y-42586228D01*
X215000500Y-42329481D01*
X215000500Y-42085258D01*
X223474500Y-42085258D01*
X223474500Y-42314741D01*
X223483402Y-42382351D01*
X223504452Y-42542238D01*
X223536351Y-42661288D01*
X223563842Y-42763887D01*
X223651650Y-42975876D01*
X223651656Y-42975888D01*
X223744156Y-43136104D01*
X223766392Y-43174617D01*
X223906081Y-43356661D01*
X223906089Y-43356670D01*
X224068330Y-43518911D01*
X224068338Y-43518918D01*
X224068339Y-43518919D01*
X224118962Y-43557764D01*
X224250382Y-43658607D01*
X224250385Y-43658608D01*
X224250388Y-43658611D01*
X224449112Y-43773344D01*
X224449117Y-43773346D01*
X224449123Y-43773349D01*
X224530200Y-43806932D01*
X224661113Y-43861158D01*
X224882762Y-43920548D01*
X225110266Y-43950500D01*
X225110273Y-43950500D01*
X225339727Y-43950500D01*
X225339734Y-43950500D01*
X225567238Y-43920548D01*
X225788887Y-43861158D01*
X226000888Y-43773344D01*
X226199612Y-43658611D01*
X226381661Y-43518919D01*
X226381665Y-43518914D01*
X226381670Y-43518911D01*
X226543911Y-43356670D01*
X226543914Y-43356665D01*
X226543919Y-43356661D01*
X226683611Y-43174612D01*
X226798344Y-42975888D01*
X226886158Y-42763887D01*
X226945548Y-42542238D01*
X226975500Y-42314734D01*
X226975500Y-42085266D01*
X226973559Y-42070525D01*
X231049500Y-42070525D01*
X231049500Y-42329474D01*
X231049501Y-42329491D01*
X231083299Y-42586217D01*
X231083300Y-42586222D01*
X231083301Y-42586228D01*
X231097230Y-42638211D01*
X231150324Y-42836364D01*
X231249423Y-43075609D01*
X231249427Y-43075619D01*
X231378906Y-43299883D01*
X231536551Y-43505331D01*
X231536557Y-43505338D01*
X231719661Y-43688442D01*
X231719668Y-43688448D01*
X231925116Y-43846093D01*
X232149380Y-43975572D01*
X232149381Y-43975572D01*
X232149384Y-43975574D01*
X232388634Y-44074675D01*
X232638772Y-44141699D01*
X232895519Y-44175500D01*
X232895526Y-44175500D01*
X233154474Y-44175500D01*
X233154481Y-44175500D01*
X233411228Y-44141699D01*
X233661366Y-44074675D01*
X233900616Y-43975574D01*
X234124884Y-43846093D01*
X234330333Y-43688447D01*
X234513447Y-43505333D01*
X234671093Y-43299884D01*
X234800574Y-43075616D01*
X234899675Y-42836366D01*
X234966699Y-42586228D01*
X235000500Y-42329481D01*
X235000500Y-42085258D01*
X243474500Y-42085258D01*
X243474500Y-42314741D01*
X243483402Y-42382351D01*
X243504452Y-42542238D01*
X243536351Y-42661288D01*
X243563842Y-42763887D01*
X243651650Y-42975876D01*
X243651656Y-42975888D01*
X243744156Y-43136104D01*
X243766392Y-43174617D01*
X243906081Y-43356661D01*
X243906089Y-43356670D01*
X244068330Y-43518911D01*
X244068338Y-43518918D01*
X244068339Y-43518919D01*
X244118962Y-43557764D01*
X244250382Y-43658607D01*
X244250385Y-43658608D01*
X244250388Y-43658611D01*
X244449112Y-43773344D01*
X244449117Y-43773346D01*
X244449123Y-43773349D01*
X244530200Y-43806932D01*
X244661113Y-43861158D01*
X244882762Y-43920548D01*
X245110266Y-43950500D01*
X245110273Y-43950500D01*
X245339727Y-43950500D01*
X245339734Y-43950500D01*
X245567238Y-43920548D01*
X245788887Y-43861158D01*
X246000888Y-43773344D01*
X246199612Y-43658611D01*
X246381661Y-43518919D01*
X246381665Y-43518914D01*
X246381670Y-43518911D01*
X246543911Y-43356670D01*
X246543914Y-43356665D01*
X246543919Y-43356661D01*
X246683611Y-43174612D01*
X246798344Y-42975888D01*
X246886158Y-42763887D01*
X246945548Y-42542238D01*
X246975500Y-42314734D01*
X246975500Y-42085266D01*
X246945548Y-41857762D01*
X246886158Y-41636113D01*
X246829456Y-41499223D01*
X246798349Y-41424123D01*
X246798346Y-41424117D01*
X246798344Y-41424112D01*
X246683611Y-41225388D01*
X246683608Y-41225385D01*
X246683607Y-41225382D01*
X246558341Y-41062134D01*
X246543919Y-41043339D01*
X246543918Y-41043338D01*
X246543911Y-41043330D01*
X246381670Y-40881089D01*
X246381661Y-40881081D01*
X246199617Y-40741392D01*
X246000890Y-40626657D01*
X246000876Y-40626650D01*
X245788887Y-40538842D01*
X245567238Y-40479452D01*
X245529215Y-40474446D01*
X245339741Y-40449500D01*
X245339734Y-40449500D01*
X245110266Y-40449500D01*
X245110258Y-40449500D01*
X244893715Y-40478009D01*
X244882762Y-40479452D01*
X244808990Y-40499219D01*
X244661112Y-40538842D01*
X244449123Y-40626650D01*
X244449109Y-40626657D01*
X244250382Y-40741392D01*
X244068338Y-40881081D01*
X243906081Y-41043338D01*
X243766392Y-41225382D01*
X243651657Y-41424109D01*
X243651650Y-41424123D01*
X243563842Y-41636112D01*
X243504453Y-41857759D01*
X243504451Y-41857770D01*
X243474500Y-42085258D01*
X235000500Y-42085258D01*
X235000500Y-42070519D01*
X234966699Y-41813772D01*
X234899675Y-41563634D01*
X234800574Y-41324384D01*
X234792821Y-41310956D01*
X234671093Y-41100116D01*
X234513448Y-40894668D01*
X234513442Y-40894661D01*
X234330338Y-40711557D01*
X234330331Y-40711551D01*
X234124883Y-40553906D01*
X233900619Y-40424427D01*
X233900609Y-40424423D01*
X233661364Y-40325324D01*
X233536297Y-40291813D01*
X233411228Y-40258301D01*
X233411222Y-40258300D01*
X233411217Y-40258299D01*
X233154491Y-40224501D01*
X233154486Y-40224500D01*
X233154481Y-40224500D01*
X232895519Y-40224500D01*
X232895513Y-40224500D01*
X232895508Y-40224501D01*
X232638782Y-40258299D01*
X232638775Y-40258300D01*
X232638772Y-40258301D01*
X232585908Y-40272465D01*
X232388635Y-40325324D01*
X232149390Y-40424423D01*
X232149380Y-40424427D01*
X231925116Y-40553906D01*
X231719668Y-40711551D01*
X231719661Y-40711557D01*
X231536557Y-40894661D01*
X231536551Y-40894668D01*
X231378906Y-41100116D01*
X231249427Y-41324380D01*
X231249423Y-41324390D01*
X231150324Y-41563635D01*
X231083302Y-41813769D01*
X231083299Y-41813782D01*
X231049501Y-42070508D01*
X231049500Y-42070525D01*
X226973559Y-42070525D01*
X226945548Y-41857762D01*
X226886158Y-41636113D01*
X226829456Y-41499223D01*
X226798349Y-41424123D01*
X226798346Y-41424117D01*
X226798344Y-41424112D01*
X226683611Y-41225388D01*
X226683608Y-41225385D01*
X226683607Y-41225382D01*
X226558341Y-41062134D01*
X226543919Y-41043339D01*
X226543918Y-41043338D01*
X226543911Y-41043330D01*
X226381670Y-40881089D01*
X226381661Y-40881081D01*
X226199617Y-40741392D01*
X226000890Y-40626657D01*
X226000876Y-40626650D01*
X225788887Y-40538842D01*
X225567238Y-40479452D01*
X225529215Y-40474446D01*
X225339741Y-40449500D01*
X225339734Y-40449500D01*
X225110266Y-40449500D01*
X225110258Y-40449500D01*
X224893715Y-40478009D01*
X224882762Y-40479452D01*
X224808990Y-40499219D01*
X224661112Y-40538842D01*
X224449123Y-40626650D01*
X224449109Y-40626657D01*
X224250382Y-40741392D01*
X224068338Y-40881081D01*
X223906081Y-41043338D01*
X223766392Y-41225382D01*
X223651657Y-41424109D01*
X223651650Y-41424123D01*
X223563842Y-41636112D01*
X223504453Y-41857759D01*
X223504451Y-41857770D01*
X223474500Y-42085258D01*
X215000500Y-42085258D01*
X215000500Y-42070519D01*
X214966699Y-41813772D01*
X214899675Y-41563634D01*
X214800574Y-41324384D01*
X214792821Y-41310956D01*
X214671093Y-41100116D01*
X214513448Y-40894668D01*
X214513442Y-40894661D01*
X214330338Y-40711557D01*
X214330331Y-40711551D01*
X214124883Y-40553906D01*
X213900619Y-40424427D01*
X213900609Y-40424423D01*
X213661364Y-40325324D01*
X213536297Y-40291813D01*
X213411228Y-40258301D01*
X213411222Y-40258300D01*
X213411217Y-40258299D01*
X213154491Y-40224501D01*
X213154486Y-40224500D01*
X213154481Y-40224500D01*
X212895519Y-40224500D01*
X212895513Y-40224500D01*
X212895508Y-40224501D01*
X212638782Y-40258299D01*
X212638775Y-40258300D01*
X212638772Y-40258301D01*
X212585908Y-40272465D01*
X212388635Y-40325324D01*
X212149390Y-40424423D01*
X212149380Y-40424427D01*
X211925116Y-40553906D01*
X211719668Y-40711551D01*
X211719661Y-40711557D01*
X211536557Y-40894661D01*
X211536551Y-40894668D01*
X211378906Y-41100116D01*
X211249427Y-41324380D01*
X211249423Y-41324390D01*
X211150324Y-41563635D01*
X211083302Y-41813769D01*
X211083299Y-41813782D01*
X211049501Y-42070508D01*
X211049500Y-42070525D01*
X208730865Y-42070525D01*
X208714194Y-41943895D01*
X208708838Y-41903211D01*
X208646054Y-41668900D01*
X208553224Y-41444788D01*
X208553218Y-41444777D01*
X208500023Y-41352639D01*
X208483550Y-41284739D01*
X208506403Y-41218712D01*
X208511298Y-41212292D01*
X208579698Y-41128407D01*
X208673909Y-40948049D01*
X208729886Y-40752418D01*
X208740500Y-40633037D01*
X208740499Y-38816964D01*
X208729886Y-38697582D01*
X208673909Y-38501951D01*
X208579698Y-38321593D01*
X208498733Y-38222297D01*
X208451109Y-38163890D01*
X208293409Y-38035304D01*
X208293410Y-38035304D01*
X208293407Y-38035302D01*
X208113049Y-37941091D01*
X208113048Y-37941090D01*
X208113045Y-37941089D01*
X207995829Y-37907550D01*
X207917418Y-37885114D01*
X207917415Y-37885113D01*
X207917413Y-37885113D01*
X207844631Y-37878642D01*
X207798037Y-37874500D01*
X207798033Y-37874500D01*
X206683484Y-37874500D01*
X206616445Y-37854815D01*
X206570690Y-37802011D01*
X206560746Y-37732853D01*
X206589771Y-37669297D01*
X206627188Y-37640016D01*
X206681610Y-37612287D01*
X206824981Y-37508123D01*
X206847213Y-37491971D01*
X206847215Y-37491968D01*
X206847219Y-37491966D01*
X206991966Y-37347219D01*
X206991968Y-37347215D01*
X206991971Y-37347213D01*
X207095133Y-37205220D01*
X207112287Y-37181610D01*
X207205220Y-36999219D01*
X207268477Y-36804534D01*
X207300500Y-36602352D01*
X207300500Y-36397648D01*
X207287946Y-36318386D01*
X207268477Y-36195465D01*
X207236739Y-36097786D01*
X207205220Y-36000781D01*
X207205218Y-36000778D01*
X207205218Y-36000776D01*
X207170532Y-35932703D01*
X207112287Y-35818390D01*
X207095134Y-35794781D01*
X206991971Y-35652786D01*
X206847213Y-35508028D01*
X206681613Y-35387715D01*
X206681612Y-35387714D01*
X206681610Y-35387713D01*
X206624653Y-35358691D01*
X206499223Y-35294781D01*
X206304534Y-35231522D01*
X206129995Y-35203878D01*
X206102352Y-35199500D01*
X205897648Y-35199500D01*
X205873329Y-35203351D01*
X205695465Y-35231522D01*
X205500776Y-35294781D01*
X205318386Y-35387715D01*
X205152786Y-35508028D01*
X205008032Y-35652782D01*
X204975966Y-35696918D01*
X204920636Y-35739583D01*
X204851022Y-35745562D01*
X204789227Y-35712956D01*
X204757717Y-35662350D01*
X204754608Y-35652781D01*
X204705220Y-35500781D01*
X204612287Y-35318390D01*
X204595134Y-35294781D01*
X204491971Y-35152786D01*
X204347213Y-35008028D01*
X204181613Y-34887715D01*
X204181612Y-34887714D01*
X204181610Y-34887713D01*
X204101930Y-34847114D01*
X203999223Y-34794781D01*
X203804534Y-34731522D01*
X203629995Y-34703878D01*
X203602352Y-34699500D01*
X203397648Y-34699500D01*
X203373329Y-34703351D01*
X203195465Y-34731522D01*
X203000776Y-34794781D01*
X202818386Y-34887715D01*
X202652786Y-35008028D01*
X202508028Y-35152786D01*
X202387715Y-35318386D01*
X202294781Y-35500776D01*
X202231522Y-35695465D01*
X202199500Y-35897648D01*
X202199500Y-36102351D01*
X202231522Y-36304534D01*
X202294781Y-36499223D01*
X202339113Y-36586228D01*
X202373026Y-36652786D01*
X202387715Y-36681613D01*
X202508028Y-36847213D01*
X202652786Y-36991971D01*
X202807749Y-37104556D01*
X202818390Y-37112287D01*
X202897864Y-37152781D01*
X203000776Y-37205218D01*
X203000778Y-37205218D01*
X203000781Y-37205220D01*
X203105137Y-37239127D01*
X203195465Y-37268477D01*
X203296557Y-37284488D01*
X203397648Y-37300500D01*
X203397649Y-37300500D01*
X203602351Y-37300500D01*
X203602352Y-37300500D01*
X203804534Y-37268477D01*
X203999219Y-37205220D01*
X204181610Y-37112287D01*
X204305037Y-37022613D01*
X204347213Y-36991971D01*
X204347215Y-36991968D01*
X204347219Y-36991966D01*
X204491966Y-36847219D01*
X204524032Y-36803082D01*
X204579361Y-36760417D01*
X204648974Y-36754436D01*
X204710770Y-36787041D01*
X204742282Y-36837648D01*
X204794781Y-36999223D01*
X204852391Y-37112287D01*
X204873026Y-37152786D01*
X204887715Y-37181613D01*
X205008028Y-37347213D01*
X205152786Y-37491971D01*
X205307749Y-37604556D01*
X205318390Y-37612287D01*
X205500781Y-37705220D01*
X205600935Y-37737762D01*
X205658609Y-37777198D01*
X205685808Y-37841557D01*
X205673894Y-37910403D01*
X205626650Y-37961879D01*
X205620028Y-37965600D01*
X205486595Y-38035300D01*
X205486593Y-38035301D01*
X205402718Y-38103692D01*
X205338321Y-38130800D01*
X205269492Y-38118790D01*
X205262358Y-38114976D01*
X205170215Y-38061777D01*
X205170205Y-38061773D01*
X204946104Y-37968947D01*
X204711785Y-37906161D01*
X204471289Y-37874500D01*
X204471288Y-37874500D01*
X204228712Y-37874500D01*
X204228711Y-37874500D01*
X203988214Y-37906161D01*
X203753895Y-37968947D01*
X203529794Y-38061773D01*
X203529785Y-38061777D01*
X203363570Y-38157742D01*
X203323006Y-38181162D01*
X203319706Y-38183067D01*
X203155486Y-38309077D01*
X203090317Y-38334271D01*
X203021872Y-38320232D01*
X203004514Y-38309077D01*
X202840293Y-38183067D01*
X202840292Y-38183066D01*
X202840289Y-38183064D01*
X202630212Y-38061776D01*
X202566303Y-38035304D01*
X202406104Y-37968947D01*
X202171785Y-37906161D01*
X201931289Y-37874500D01*
X201931288Y-37874500D01*
X201688712Y-37874500D01*
X201688711Y-37874500D01*
X201448214Y-37906161D01*
X201213895Y-37968947D01*
X200989794Y-38061773D01*
X200989785Y-38061777D01*
X200823570Y-38157742D01*
X200783006Y-38181162D01*
X200779706Y-38183067D01*
X200615486Y-38309077D01*
X200550317Y-38334271D01*
X200481872Y-38320232D01*
X200464514Y-38309077D01*
X200300293Y-38183067D01*
X200300292Y-38183066D01*
X200300289Y-38183064D01*
X200090212Y-38061776D01*
X200026303Y-38035304D01*
X199866104Y-37968947D01*
X199631785Y-37906161D01*
X199391289Y-37874500D01*
X199391288Y-37874500D01*
X199148712Y-37874500D01*
X199148711Y-37874500D01*
X198908214Y-37906161D01*
X198673895Y-37968947D01*
X198449794Y-38061773D01*
X198449785Y-38061777D01*
X198283570Y-38157742D01*
X198243006Y-38181162D01*
X198239706Y-38183067D01*
X198075486Y-38309077D01*
X198010317Y-38334271D01*
X197941872Y-38320232D01*
X197924514Y-38309077D01*
X197760293Y-38183067D01*
X197760292Y-38183066D01*
X197760289Y-38183064D01*
X197550212Y-38061776D01*
X197486303Y-38035304D01*
X197326104Y-37968947D01*
X197091785Y-37906161D01*
X196851289Y-37874500D01*
X196851288Y-37874500D01*
X196608712Y-37874500D01*
X196608711Y-37874500D01*
X196368214Y-37906161D01*
X196133895Y-37968947D01*
X195909794Y-38061773D01*
X195909785Y-38061777D01*
X195743570Y-38157742D01*
X195703006Y-38181162D01*
X195699706Y-38183067D01*
X195535486Y-38309077D01*
X195470317Y-38334271D01*
X195401872Y-38320232D01*
X195384514Y-38309077D01*
X195220293Y-38183067D01*
X195220292Y-38183066D01*
X195220289Y-38183064D01*
X195010212Y-38061776D01*
X194946303Y-38035304D01*
X194786104Y-37968947D01*
X194551785Y-37906161D01*
X194311289Y-37874500D01*
X194311288Y-37874500D01*
X194068712Y-37874500D01*
X194068711Y-37874500D01*
X193828214Y-37906161D01*
X193593895Y-37968947D01*
X193369794Y-38061773D01*
X193369785Y-38061777D01*
X193203570Y-38157742D01*
X193163006Y-38181162D01*
X193159706Y-38183067D01*
X192995486Y-38309077D01*
X192969512Y-38319118D01*
X192944915Y-38332172D01*
X192937374Y-38331542D01*
X192930317Y-38334271D01*
X192903038Y-38328675D01*
X192875288Y-38326359D01*
X192865819Y-38321041D01*
X192861872Y-38320232D01*
X192844514Y-38309077D01*
X192765295Y-38248291D01*
X192724092Y-38191864D01*
X192719937Y-38122118D01*
X192754149Y-38061197D01*
X192767897Y-38049596D01*
X192787572Y-38035302D01*
X192847219Y-37991966D01*
X192991966Y-37847219D01*
X192991968Y-37847215D01*
X192991971Y-37847213D01*
X193095133Y-37705220D01*
X193112287Y-37681610D01*
X193205220Y-37499219D01*
X193268477Y-37304534D01*
X193300500Y-37102352D01*
X193300500Y-36897648D01*
X193282981Y-36787041D01*
X193268477Y-36695465D01*
X193208360Y-36510445D01*
X193205220Y-36500781D01*
X193205218Y-36500778D01*
X193205218Y-36500776D01*
X193147610Y-36387715D01*
X193112287Y-36318390D01*
X193095134Y-36294781D01*
X192991971Y-36152786D01*
X192847213Y-36008028D01*
X192681613Y-35887715D01*
X192681612Y-35887714D01*
X192681610Y-35887713D01*
X192624237Y-35858480D01*
X192499223Y-35794781D01*
X192304534Y-35731522D01*
X192129995Y-35703878D01*
X192102352Y-35699500D01*
X191939047Y-35699500D01*
X191872008Y-35679815D01*
X191826253Y-35627011D01*
X191816309Y-35557853D01*
X191845334Y-35494297D01*
X191851366Y-35487819D01*
X191991966Y-35347219D01*
X191991968Y-35347215D01*
X191991971Y-35347213D01*
X192099289Y-35199500D01*
X192112287Y-35181610D01*
X192205220Y-34999219D01*
X192268477Y-34804534D01*
X192300500Y-34602352D01*
X192300500Y-34397648D01*
X192280041Y-34268477D01*
X192268477Y-34195465D01*
X192237707Y-34100765D01*
X192205220Y-34000781D01*
X192205218Y-34000778D01*
X192205218Y-34000776D01*
X192171503Y-33934607D01*
X192112287Y-33818390D01*
X192095134Y-33794781D01*
X191991971Y-33652786D01*
X191847213Y-33508028D01*
X191681613Y-33387715D01*
X191681612Y-33387714D01*
X191681610Y-33387713D01*
X191624653Y-33358691D01*
X191499223Y-33294781D01*
X191304534Y-33231522D01*
X191129995Y-33203878D01*
X191102352Y-33199500D01*
X190897648Y-33199500D01*
X190873329Y-33203351D01*
X190695465Y-33231522D01*
X190500776Y-33294781D01*
X190318384Y-33387715D01*
X190314793Y-33389917D01*
X190247348Y-33408164D01*
X190185207Y-33389917D01*
X190181615Y-33387715D01*
X189999223Y-33294781D01*
X189804534Y-33231522D01*
X189629995Y-33203878D01*
X189602352Y-33199500D01*
X189397648Y-33199500D01*
X189373329Y-33203351D01*
X189195465Y-33231522D01*
X189000776Y-33294781D01*
X188818386Y-33387715D01*
X188652786Y-33508028D01*
X188508028Y-33652786D01*
X188387715Y-33818386D01*
X188294781Y-34000776D01*
X188231522Y-34195465D01*
X188199500Y-34397648D01*
X188199500Y-34602351D01*
X188231522Y-34804534D01*
X188294781Y-34999223D01*
X188347328Y-35102351D01*
X188373026Y-35152786D01*
X188387715Y-35181613D01*
X188508028Y-35347213D01*
X188652786Y-35491971D01*
X188790241Y-35591836D01*
X188818390Y-35612287D01*
X188897864Y-35652781D01*
X189000776Y-35705218D01*
X189000778Y-35705218D01*
X189000781Y-35705220D01*
X189086938Y-35733214D01*
X189195465Y-35768477D01*
X189296557Y-35784488D01*
X189397648Y-35800500D01*
X189397649Y-35800500D01*
X189602351Y-35800500D01*
X189602352Y-35800500D01*
X189804534Y-35768477D01*
X189999219Y-35705220D01*
X190181610Y-35612287D01*
X190181612Y-35612285D01*
X190181615Y-35612284D01*
X190185207Y-35610083D01*
X190252652Y-35591836D01*
X190314793Y-35610083D01*
X190318384Y-35612284D01*
X190500776Y-35705218D01*
X190500778Y-35705218D01*
X190500781Y-35705220D01*
X190586938Y-35733214D01*
X190695465Y-35768477D01*
X190796557Y-35784488D01*
X190897648Y-35800500D01*
X190897649Y-35800500D01*
X191060953Y-35800500D01*
X191127992Y-35820185D01*
X191173747Y-35872989D01*
X191183691Y-35942147D01*
X191154666Y-36005703D01*
X191148634Y-36012181D01*
X191008032Y-36152782D01*
X191008028Y-36152786D01*
X190887715Y-36318386D01*
X190794781Y-36500776D01*
X190731522Y-36695465D01*
X190699500Y-36897648D01*
X190699500Y-37102351D01*
X190731522Y-37304534D01*
X190794781Y-37499223D01*
X190852391Y-37612286D01*
X190881439Y-37669297D01*
X190887715Y-37681613D01*
X190994170Y-37828138D01*
X191017650Y-37893945D01*
X191001824Y-37961998D01*
X190951718Y-38010693D01*
X190941305Y-38015584D01*
X190829794Y-38061773D01*
X190829785Y-38061777D01*
X190663570Y-38157742D01*
X190623006Y-38181162D01*
X190619706Y-38183067D01*
X190455486Y-38309077D01*
X190390317Y-38334271D01*
X190321872Y-38320232D01*
X190304514Y-38309077D01*
X190140293Y-38183067D01*
X190140292Y-38183066D01*
X190140289Y-38183064D01*
X189930212Y-38061776D01*
X189866303Y-38035304D01*
X189706104Y-37968947D01*
X189471785Y-37906161D01*
X189231289Y-37874500D01*
X189231288Y-37874500D01*
X188988712Y-37874500D01*
X188988711Y-37874500D01*
X188748214Y-37906161D01*
X188513895Y-37968947D01*
X188289794Y-38061773D01*
X188289785Y-38061777D01*
X188123570Y-38157742D01*
X188083006Y-38181162D01*
X188079706Y-38183067D01*
X187887263Y-38330733D01*
X187887256Y-38330739D01*
X187715739Y-38502256D01*
X187715733Y-38502263D01*
X187568067Y-38694706D01*
X187568064Y-38694710D01*
X187568064Y-38694711D01*
X187566405Y-38697584D01*
X187446777Y-38904785D01*
X187446773Y-38904794D01*
X187353947Y-39128895D01*
X187291161Y-39363214D01*
X187259500Y-39603711D01*
X185750500Y-39603711D01*
X185750500Y-39274062D01*
X185715046Y-38823580D01*
X185644357Y-38377267D01*
X185538869Y-37937877D01*
X185399232Y-37508118D01*
X185226307Y-37090640D01*
X185021160Y-36688016D01*
X185021154Y-36688007D01*
X185021152Y-36688002D01*
X185021149Y-36687997D01*
X184785061Y-36302737D01*
X184785057Y-36302732D01*
X184785055Y-36302728D01*
X184519449Y-35937153D01*
X184519444Y-35937147D01*
X184519433Y-35937133D01*
X184225996Y-35593562D01*
X184225987Y-35593552D01*
X184225980Y-35593544D01*
X183906456Y-35274020D01*
X183906448Y-35274013D01*
X183906437Y-35274003D01*
X183570480Y-34987069D01*
X183570474Y-34987065D01*
X183562854Y-34980557D01*
X183562847Y-34980551D01*
X183448741Y-34897648D01*
X184699500Y-34897648D01*
X184699500Y-35102351D01*
X184731522Y-35304534D01*
X184794781Y-35499223D01*
X184852391Y-35612287D01*
X184886798Y-35679815D01*
X184887715Y-35681613D01*
X185008028Y-35847213D01*
X185152786Y-35991971D01*
X185307749Y-36104556D01*
X185318390Y-36112287D01*
X185397864Y-36152781D01*
X185500776Y-36205218D01*
X185500778Y-36205218D01*
X185500781Y-36205220D01*
X185605137Y-36239127D01*
X185695465Y-36268477D01*
X185703004Y-36269671D01*
X185897648Y-36300500D01*
X185897649Y-36300500D01*
X186102351Y-36300500D01*
X186102352Y-36300500D01*
X186304534Y-36268477D01*
X186499219Y-36205220D01*
X186681610Y-36112287D01*
X186776918Y-36043042D01*
X186847213Y-35991971D01*
X186847215Y-35991968D01*
X186847219Y-35991966D01*
X186991966Y-35847219D01*
X186991968Y-35847215D01*
X186991971Y-35847213D01*
X187049175Y-35768477D01*
X187112287Y-35681610D01*
X187205220Y-35499219D01*
X187268477Y-35304534D01*
X187300500Y-35102352D01*
X187300500Y-34897648D01*
X187284207Y-34794780D01*
X187268477Y-34695465D01*
X187205218Y-34500776D01*
X187152671Y-34397648D01*
X187112287Y-34318390D01*
X187079813Y-34273693D01*
X186991971Y-34152786D01*
X186847213Y-34008028D01*
X186681613Y-33887715D01*
X186681612Y-33887714D01*
X186681610Y-33887713D01*
X186609604Y-33851024D01*
X186499223Y-33794781D01*
X186304534Y-33731522D01*
X186129995Y-33703878D01*
X186102352Y-33699500D01*
X185897648Y-33699500D01*
X185873329Y-33703351D01*
X185695465Y-33731522D01*
X185500776Y-33794781D01*
X185318386Y-33887715D01*
X185152786Y-34008028D01*
X185008028Y-34152786D01*
X184887715Y-34318386D01*
X184794781Y-34500776D01*
X184731522Y-34695465D01*
X184699500Y-34897648D01*
X183448741Y-34897648D01*
X183197272Y-34714945D01*
X183197269Y-34714943D01*
X183197262Y-34714938D01*
X182812002Y-34478850D01*
X182811997Y-34478847D01*
X182811987Y-34478842D01*
X182811984Y-34478840D01*
X182409360Y-34273693D01*
X182244047Y-34205218D01*
X181991876Y-34100765D01*
X181657023Y-33991966D01*
X181562123Y-33961131D01*
X181122733Y-33855643D01*
X181093570Y-33851024D01*
X180676429Y-33784955D01*
X180676420Y-33784954D01*
X180676418Y-33784953D01*
X180676410Y-33784953D01*
X180225943Y-33749500D01*
X180225938Y-33749500D01*
X179774062Y-33749500D01*
X179774056Y-33749500D01*
X179323589Y-33784953D01*
X179323570Y-33784955D01*
X178877272Y-33855642D01*
X178877269Y-33855642D01*
X178877267Y-33855643D01*
X178807686Y-33872348D01*
X178437888Y-33961128D01*
X178437882Y-33961129D01*
X178437877Y-33961131D01*
X178437865Y-33961135D01*
X178008123Y-34100765D01*
X177590642Y-34273692D01*
X177188002Y-34478847D01*
X177187997Y-34478850D01*
X176802737Y-34714938D01*
X176802726Y-34714946D01*
X176437160Y-34980545D01*
X176437133Y-34980566D01*
X176093562Y-35274003D01*
X176093536Y-35274027D01*
X175774027Y-35593536D01*
X175774003Y-35593562D01*
X175480566Y-35937133D01*
X175480545Y-35937160D01*
X175214946Y-36302726D01*
X175214938Y-36302737D01*
X174978850Y-36687997D01*
X174978847Y-36688002D01*
X174773692Y-37090642D01*
X174600765Y-37508123D01*
X174461135Y-37937865D01*
X174461128Y-37937888D01*
X174411207Y-38145824D01*
X174356084Y-38375433D01*
X174355642Y-38377272D01*
X174284955Y-38823570D01*
X174284953Y-38823589D01*
X174249500Y-39274056D01*
X174249500Y-39725943D01*
X174284953Y-40176410D01*
X174284955Y-40176429D01*
X174336328Y-40500781D01*
X174355643Y-40622733D01*
X174461131Y-41062123D01*
X174495439Y-41167713D01*
X174600765Y-41491876D01*
X174703673Y-41740317D01*
X174773693Y-41909360D01*
X174945047Y-42245661D01*
X174978847Y-42311997D01*
X174978850Y-42312002D01*
X175214938Y-42697262D01*
X175214946Y-42697273D01*
X175480545Y-43062839D01*
X175480566Y-43062866D01*
X175774003Y-43406437D01*
X175774013Y-43406448D01*
X175774020Y-43406456D01*
X176093544Y-43725980D01*
X176093552Y-43725987D01*
X176093562Y-43725996D01*
X176437133Y-44019433D01*
X176437147Y-44019444D01*
X176437153Y-44019449D01*
X176569356Y-44115500D01*
X176789139Y-44275182D01*
X176831805Y-44330512D01*
X176837784Y-44400125D01*
X176805178Y-44461920D01*
X176744340Y-44496277D01*
X176716254Y-44499500D01*
X172588329Y-44499500D01*
X172521290Y-44479815D01*
X172475535Y-44427011D01*
X172465591Y-44357853D01*
X172494616Y-44294297D01*
X172540876Y-44260939D01*
X172574131Y-44247163D01*
X172680212Y-44203224D01*
X172890289Y-44081936D01*
X173082738Y-43934265D01*
X173254265Y-43762738D01*
X173401936Y-43570289D01*
X173523224Y-43360212D01*
X173616054Y-43136100D01*
X173678838Y-42901789D01*
X173710500Y-42661288D01*
X173710500Y-42418712D01*
X173678838Y-42178211D01*
X173616054Y-41943900D01*
X173523224Y-41719788D01*
X173401936Y-41509711D01*
X173336251Y-41424109D01*
X173254266Y-41317263D01*
X173254260Y-41317256D01*
X173082743Y-41145739D01*
X173082736Y-41145733D01*
X172890293Y-40998067D01*
X172890292Y-40998066D01*
X172890289Y-40998064D01*
X172711190Y-40894661D01*
X172680214Y-40876777D01*
X172680205Y-40876773D01*
X172456104Y-40783947D01*
X172297288Y-40741392D01*
X172221789Y-40721162D01*
X172221788Y-40721161D01*
X172221785Y-40721161D01*
X171981289Y-40689500D01*
X171981288Y-40689500D01*
X171738712Y-40689500D01*
X171738711Y-40689500D01*
X171498214Y-40721161D01*
X171263896Y-40783947D01*
X171219800Y-40802212D01*
X171150331Y-40809680D01*
X171087852Y-40778404D01*
X171052200Y-40718314D01*
X171054695Y-40648489D01*
X171057789Y-40640196D01*
X171076051Y-40596108D01*
X171076051Y-40596105D01*
X171076054Y-40596100D01*
X171138838Y-40361789D01*
X171170500Y-40121288D01*
X171170500Y-39878712D01*
X171138838Y-39638211D01*
X171076054Y-39403900D01*
X171075105Y-39401610D01*
X170999558Y-39219223D01*
X170983224Y-39179788D01*
X170861936Y-38969711D01*
X170744730Y-38816965D01*
X170714266Y-38777263D01*
X170714260Y-38777256D01*
X170542743Y-38605739D01*
X170542736Y-38605733D01*
X170350293Y-38458067D01*
X170350292Y-38458066D01*
X170350289Y-38458064D01*
X170140212Y-38336776D01*
X170140205Y-38336773D01*
X169916104Y-38243947D01*
X169681785Y-38181161D01*
X169441289Y-38149500D01*
X169441288Y-38149500D01*
X169424500Y-38149500D01*
X169357461Y-38129815D01*
X169311706Y-38077011D01*
X169300500Y-38025500D01*
X169300500Y-37897648D01*
X169268477Y-37695465D01*
X169239127Y-37605137D01*
X169205220Y-37500781D01*
X169205218Y-37500778D01*
X169205218Y-37500776D01*
X169147610Y-37387715D01*
X169112287Y-37318390D01*
X169099289Y-37300500D01*
X168991971Y-37152786D01*
X168923121Y-37083936D01*
X168889636Y-37022613D01*
X168894620Y-36952921D01*
X168923119Y-36908576D01*
X174169879Y-31661819D01*
X174231202Y-31628334D01*
X174257560Y-31625500D01*
X184088578Y-31625500D01*
X184088579Y-31625500D01*
X184263556Y-31597786D01*
X184432042Y-31543042D01*
X184589890Y-31462614D01*
X184733214Y-31358483D01*
X184858483Y-31233214D01*
X184917042Y-31174655D01*
X184917054Y-31174641D01*
X186108484Y-29983214D01*
X186176570Y-29889500D01*
X186212614Y-29839890D01*
X186293042Y-29682042D01*
X186302549Y-29652781D01*
X186347786Y-29513556D01*
X186375500Y-29338579D01*
X186375500Y-29215886D01*
X186395185Y-29148847D01*
X186411814Y-29128209D01*
X186560631Y-28979393D01*
X186699444Y-28798488D01*
X186810190Y-28606670D01*
X186813453Y-28601019D01*
X186813453Y-28601018D01*
X186813457Y-28601012D01*
X186897694Y-28397648D01*
X188699500Y-28397648D01*
X188699500Y-28602352D01*
X188701073Y-28612284D01*
X188731522Y-28804534D01*
X188794781Y-28999223D01*
X188857550Y-29122412D01*
X188881439Y-29169297D01*
X188887715Y-29181613D01*
X189008028Y-29347213D01*
X189152786Y-29491971D01*
X189282637Y-29586311D01*
X189318390Y-29612287D01*
X189397864Y-29652781D01*
X189500776Y-29705218D01*
X189500778Y-29705218D01*
X189500781Y-29705220D01*
X189605137Y-29739127D01*
X189695465Y-29768477D01*
X189796557Y-29784488D01*
X189897648Y-29800500D01*
X189897649Y-29800500D01*
X190102351Y-29800500D01*
X190102352Y-29800500D01*
X190304534Y-29768477D01*
X190499219Y-29705220D01*
X190681610Y-29612287D01*
X190835085Y-29500782D01*
X190847213Y-29491971D01*
X190847215Y-29491968D01*
X190847219Y-29491966D01*
X190991966Y-29347219D01*
X190991968Y-29347215D01*
X190991971Y-29347213D01*
X191046191Y-29272584D01*
X191112287Y-29181610D01*
X191205220Y-28999219D01*
X191268477Y-28804534D01*
X191300500Y-28602352D01*
X191300500Y-28397648D01*
X191292413Y-28346588D01*
X191268477Y-28195465D01*
X191233740Y-28088557D01*
X191205220Y-28000781D01*
X191205218Y-28000778D01*
X191205218Y-28000776D01*
X191147610Y-27887715D01*
X191112287Y-27818390D01*
X191095135Y-27794782D01*
X190991971Y-27652786D01*
X190847213Y-27508028D01*
X190681613Y-27387715D01*
X190681612Y-27387714D01*
X190681610Y-27387713D01*
X190624653Y-27358691D01*
X190499223Y-27294781D01*
X190304534Y-27231522D01*
X190122972Y-27202766D01*
X190102352Y-27199500D01*
X189897648Y-27199500D01*
X189877028Y-27202766D01*
X189695465Y-27231522D01*
X189500776Y-27294781D01*
X189318386Y-27387715D01*
X189152786Y-27508028D01*
X189008028Y-27652786D01*
X188887715Y-27818386D01*
X188794781Y-28000776D01*
X188731522Y-28195465D01*
X188705784Y-28357970D01*
X188699500Y-28397648D01*
X186897694Y-28397648D01*
X186900719Y-28390344D01*
X186959736Y-28170088D01*
X186989500Y-27944013D01*
X186989500Y-27715987D01*
X186959736Y-27489912D01*
X186900719Y-27269656D01*
X186813457Y-27058988D01*
X186813455Y-27058985D01*
X186813453Y-27058980D01*
X186699448Y-26861519D01*
X186699444Y-26861512D01*
X186560631Y-26680607D01*
X186560626Y-26680601D01*
X186399398Y-26519373D01*
X186399391Y-26519367D01*
X186218496Y-26380562D01*
X186218494Y-26380561D01*
X186218488Y-26380556D01*
X186143716Y-26337386D01*
X186095501Y-26286820D01*
X186082278Y-26218213D01*
X186108246Y-26153348D01*
X186143717Y-26122613D01*
X186218488Y-26079444D01*
X186399393Y-25940631D01*
X186560631Y-25779393D01*
X186699444Y-25598488D01*
X186813457Y-25401012D01*
X186900719Y-25190344D01*
X186927095Y-25091905D01*
X186963460Y-25032246D01*
X187026307Y-25001717D01*
X187046870Y-25000000D01*
X194948638Y-25000000D01*
X195015677Y-25019685D01*
X195036319Y-25036319D01*
X197500000Y-27500000D01*
X210108939Y-27500000D01*
X210130188Y-27506239D01*
X210152280Y-27507821D01*
X210163059Y-27515891D01*
X210175978Y-27519685D01*
X210190479Y-27536420D01*
X210208211Y-27549696D01*
X210212916Y-27562314D01*
X210221733Y-27572489D01*
X210224884Y-27594408D01*
X210232624Y-27615162D01*
X210229760Y-27628319D01*
X210231677Y-27641647D01*
X210222476Y-27661794D01*
X210217767Y-27683434D01*
X210204501Y-27701152D01*
X210202652Y-27705203D01*
X210196627Y-27711673D01*
X210192322Y-27715979D01*
X210188830Y-27719471D01*
X210139474Y-27749714D01*
X210035808Y-27783399D01*
X210000775Y-27794782D01*
X209818386Y-27887715D01*
X209652786Y-28008028D01*
X209508028Y-28152786D01*
X209387715Y-28318386D01*
X209294781Y-28500776D01*
X209231522Y-28695465D01*
X209199500Y-28897648D01*
X209199500Y-29102351D01*
X209231522Y-29304534D01*
X209294781Y-29499223D01*
X209352391Y-29612287D01*
X209381906Y-29670214D01*
X209387715Y-29681613D01*
X209508028Y-29847213D01*
X209652786Y-29991971D01*
X209807749Y-30104556D01*
X209818390Y-30112287D01*
X209897864Y-30152781D01*
X210000776Y-30205218D01*
X210000778Y-30205218D01*
X210000781Y-30205220D01*
X210103908Y-30238728D01*
X210195465Y-30268477D01*
X210296557Y-30284488D01*
X210397648Y-30300500D01*
X210397649Y-30300500D01*
X210602351Y-30300500D01*
X210602352Y-30300500D01*
X210804534Y-30268477D01*
X210889952Y-30240722D01*
X210959792Y-30238728D01*
X211019625Y-30274808D01*
X211050454Y-30337508D01*
X211051209Y-30342468D01*
X211063002Y-30432041D01*
X211083301Y-30586228D01*
X211108859Y-30681613D01*
X211150324Y-30836364D01*
X211249423Y-31075609D01*
X211249427Y-31075619D01*
X211378906Y-31299883D01*
X211536551Y-31505331D01*
X211536557Y-31505338D01*
X211719661Y-31688442D01*
X211719668Y-31688448D01*
X211925116Y-31846093D01*
X212149380Y-31975572D01*
X212149381Y-31975572D01*
X212149384Y-31975574D01*
X212388634Y-32074675D01*
X212638772Y-32141699D01*
X212895519Y-32175500D01*
X212895526Y-32175500D01*
X213154474Y-32175500D01*
X213154481Y-32175500D01*
X213411228Y-32141699D01*
X213661366Y-32074675D01*
X213900616Y-31975574D01*
X214124884Y-31846093D01*
X214330333Y-31688447D01*
X214513447Y-31505333D01*
X214671093Y-31299884D01*
X214800574Y-31075616D01*
X214899675Y-30836366D01*
X214966699Y-30586228D01*
X215000500Y-30329481D01*
X215000500Y-30070519D01*
X214966699Y-29813772D01*
X214899675Y-29563634D01*
X214800574Y-29324384D01*
X214800572Y-29324381D01*
X214800570Y-29324376D01*
X214793136Y-29311500D01*
X214776663Y-29243600D01*
X214799515Y-29177573D01*
X214854437Y-29134382D01*
X214900523Y-29125500D01*
X223363281Y-29125500D01*
X223430320Y-29145185D01*
X223476075Y-29197989D01*
X223486019Y-29267147D01*
X223485192Y-29272164D01*
X223485113Y-29272585D01*
X223474500Y-29391966D01*
X223474500Y-30307440D01*
X223454815Y-30374479D01*
X223438181Y-30395121D01*
X219995122Y-33838181D01*
X219933799Y-33871666D01*
X219907441Y-33874500D01*
X209185448Y-33874500D01*
X209172394Y-33871359D01*
X209162447Y-33872348D01*
X209129050Y-33860932D01*
X209128069Y-33860431D01*
X209077318Y-33812409D01*
X209060586Y-33744573D01*
X209083185Y-33678459D01*
X209128174Y-33639514D01*
X209181609Y-33612288D01*
X209181610Y-33612287D01*
X209347213Y-33491971D01*
X209347215Y-33491968D01*
X209347219Y-33491966D01*
X209491966Y-33347219D01*
X209491968Y-33347215D01*
X209491971Y-33347213D01*
X209576024Y-33231522D01*
X209612287Y-33181610D01*
X209705220Y-32999219D01*
X209768477Y-32804534D01*
X209800500Y-32602352D01*
X209800500Y-32397648D01*
X209770813Y-32210212D01*
X209768477Y-32195465D01*
X209717675Y-32039113D01*
X209705220Y-32000781D01*
X209705218Y-32000778D01*
X209705218Y-32000776D01*
X209645671Y-31883910D01*
X209612287Y-31818390D01*
X209576445Y-31769057D01*
X209491971Y-31652786D01*
X209347213Y-31508028D01*
X209181613Y-31387715D01*
X209181612Y-31387714D01*
X209181610Y-31387713D01*
X209110275Y-31351366D01*
X208999223Y-31294781D01*
X208804534Y-31231522D01*
X208629995Y-31203878D01*
X208602352Y-31199500D01*
X208397648Y-31199500D01*
X208373329Y-31203351D01*
X208195465Y-31231522D01*
X208000776Y-31294781D01*
X207818386Y-31387715D01*
X207652786Y-31508028D01*
X207508028Y-31652786D01*
X207387715Y-31818386D01*
X207294781Y-32000776D01*
X207242204Y-32162592D01*
X207202766Y-32220267D01*
X207162592Y-32242204D01*
X207000776Y-32294781D01*
X206818386Y-32387715D01*
X206652786Y-32508028D01*
X206508028Y-32652786D01*
X206387715Y-32818386D01*
X206294781Y-33000776D01*
X206231522Y-33195465D01*
X206199500Y-33397648D01*
X206199500Y-33602351D01*
X206231522Y-33804534D01*
X206294781Y-33999223D01*
X206352391Y-34112287D01*
X206373026Y-34152786D01*
X206387715Y-34181613D01*
X206508028Y-34347213D01*
X206652786Y-34491971D01*
X206807749Y-34604556D01*
X206818390Y-34612287D01*
X207000781Y-34705220D01*
X207118037Y-34743318D01*
X207175711Y-34782755D01*
X207202910Y-34847114D01*
X207202192Y-34880642D01*
X207199500Y-34897642D01*
X207199500Y-35102351D01*
X207231522Y-35304534D01*
X207294781Y-35499223D01*
X207352391Y-35612287D01*
X207386798Y-35679815D01*
X207387715Y-35681613D01*
X207508028Y-35847213D01*
X207652786Y-35991971D01*
X207807749Y-36104556D01*
X207818390Y-36112287D01*
X207897864Y-36152781D01*
X208000776Y-36205218D01*
X208000778Y-36205218D01*
X208000781Y-36205220D01*
X208105137Y-36239127D01*
X208195465Y-36268477D01*
X208203004Y-36269671D01*
X208397648Y-36300500D01*
X208397649Y-36300500D01*
X208602351Y-36300500D01*
X208602352Y-36300500D01*
X208804534Y-36268477D01*
X208999219Y-36205220D01*
X209129153Y-36139014D01*
X209185448Y-36125500D01*
X220513578Y-36125500D01*
X220513579Y-36125500D01*
X220688556Y-36097786D01*
X220772457Y-36070525D01*
X225249500Y-36070525D01*
X225249500Y-36329474D01*
X225249501Y-36329491D01*
X225283299Y-36586217D01*
X225283300Y-36586222D01*
X225283301Y-36586228D01*
X225308859Y-36681613D01*
X225350324Y-36836364D01*
X225449423Y-37075609D01*
X225449427Y-37075619D01*
X225578906Y-37299883D01*
X225736551Y-37505331D01*
X225736557Y-37505338D01*
X225919661Y-37688442D01*
X225919668Y-37688448D01*
X226125116Y-37846093D01*
X226349380Y-37975572D01*
X226349381Y-37975572D01*
X226349384Y-37975574D01*
X226588634Y-38074675D01*
X226838772Y-38141699D01*
X227095519Y-38175500D01*
X227095526Y-38175500D01*
X227354474Y-38175500D01*
X227354481Y-38175500D01*
X227611228Y-38141699D01*
X227861366Y-38074675D01*
X228100616Y-37975574D01*
X228324884Y-37846093D01*
X228530333Y-37688447D01*
X228713447Y-37505333D01*
X228871093Y-37299884D01*
X229000574Y-37075616D01*
X229099675Y-36836366D01*
X229166699Y-36586228D01*
X229200500Y-36329481D01*
X229200500Y-36070525D01*
X245249500Y-36070525D01*
X245249500Y-36329474D01*
X245249501Y-36329491D01*
X245283299Y-36586217D01*
X245283300Y-36586222D01*
X245283301Y-36586228D01*
X245308859Y-36681613D01*
X245350324Y-36836364D01*
X245449423Y-37075609D01*
X245449427Y-37075619D01*
X245578906Y-37299883D01*
X245736551Y-37505331D01*
X245736557Y-37505338D01*
X245919661Y-37688442D01*
X245919668Y-37688448D01*
X246125116Y-37846093D01*
X246349380Y-37975572D01*
X246349381Y-37975572D01*
X246349384Y-37975574D01*
X246588634Y-38074675D01*
X246838772Y-38141699D01*
X247095519Y-38175500D01*
X247095526Y-38175500D01*
X247354474Y-38175500D01*
X247354481Y-38175500D01*
X247611228Y-38141699D01*
X247861366Y-38074675D01*
X248100616Y-37975574D01*
X248324884Y-37846093D01*
X248530333Y-37688447D01*
X248713447Y-37505333D01*
X248871093Y-37299884D01*
X249000574Y-37075616D01*
X249099675Y-36836366D01*
X249166699Y-36586228D01*
X249200500Y-36329481D01*
X249200500Y-36070519D01*
X249166699Y-35813772D01*
X249099675Y-35563634D01*
X249000574Y-35324384D01*
X248997113Y-35318390D01*
X248871093Y-35100116D01*
X248713448Y-34894668D01*
X248713442Y-34894661D01*
X248530338Y-34711557D01*
X248530331Y-34711551D01*
X248324883Y-34553906D01*
X248100619Y-34424427D01*
X248100609Y-34424423D01*
X247861364Y-34325324D01*
X247736297Y-34291813D01*
X247611228Y-34258301D01*
X247611222Y-34258300D01*
X247611217Y-34258299D01*
X247354491Y-34224501D01*
X247354486Y-34224500D01*
X247354481Y-34224500D01*
X247095519Y-34224500D01*
X247095513Y-34224500D01*
X247095508Y-34224501D01*
X246838782Y-34258299D01*
X246838775Y-34258300D01*
X246838772Y-34258301D01*
X246785908Y-34272465D01*
X246588635Y-34325324D01*
X246349390Y-34424423D01*
X246349380Y-34424427D01*
X246125116Y-34553906D01*
X245919668Y-34711551D01*
X245919661Y-34711557D01*
X245736557Y-34894661D01*
X245736551Y-34894668D01*
X245578906Y-35100116D01*
X245449427Y-35324380D01*
X245449423Y-35324390D01*
X245350324Y-35563635D01*
X245283302Y-35813769D01*
X245283299Y-35813782D01*
X245249501Y-36070508D01*
X245249500Y-36070525D01*
X229200500Y-36070525D01*
X229200500Y-36070519D01*
X229166699Y-35813772D01*
X229099675Y-35563634D01*
X229000574Y-35324384D01*
X228997113Y-35318390D01*
X228871093Y-35100116D01*
X228713448Y-34894668D01*
X228713442Y-34894661D01*
X228530338Y-34711557D01*
X228530331Y-34711551D01*
X228324883Y-34553906D01*
X228100619Y-34424427D01*
X228100609Y-34424423D01*
X227861364Y-34325324D01*
X227736297Y-34291813D01*
X227611228Y-34258301D01*
X227611222Y-34258300D01*
X227611217Y-34258299D01*
X227354491Y-34224501D01*
X227354486Y-34224500D01*
X227354481Y-34224500D01*
X227095519Y-34224500D01*
X227095513Y-34224500D01*
X227095508Y-34224501D01*
X226838782Y-34258299D01*
X226838775Y-34258300D01*
X226838772Y-34258301D01*
X226785908Y-34272465D01*
X226588635Y-34325324D01*
X226349390Y-34424423D01*
X226349380Y-34424427D01*
X226125116Y-34553906D01*
X225919668Y-34711551D01*
X225919661Y-34711557D01*
X225736557Y-34894661D01*
X225736551Y-34894668D01*
X225578906Y-35100116D01*
X225449427Y-35324380D01*
X225449423Y-35324390D01*
X225350324Y-35563635D01*
X225283302Y-35813769D01*
X225283299Y-35813782D01*
X225249501Y-36070508D01*
X225249500Y-36070525D01*
X220772457Y-36070525D01*
X220857042Y-36043042D01*
X221014890Y-35962614D01*
X221158214Y-35858483D01*
X221283483Y-35733214D01*
X225029878Y-31986817D01*
X225091201Y-31953333D01*
X225117559Y-31950499D01*
X226033028Y-31950499D01*
X226033036Y-31950499D01*
X226152418Y-31939886D01*
X226348049Y-31883909D01*
X226528407Y-31789698D01*
X226686109Y-31661109D01*
X226814698Y-31503407D01*
X226908909Y-31323049D01*
X226964886Y-31127418D01*
X226975500Y-31008037D01*
X226975499Y-29391964D01*
X226964886Y-29272582D01*
X226964883Y-29272572D01*
X226964807Y-29272160D01*
X226964829Y-29271942D01*
X226964364Y-29266710D01*
X226965373Y-29266620D01*
X226971909Y-29202653D01*
X227015462Y-29148018D01*
X227081639Y-29125604D01*
X227086719Y-29125500D01*
X231149477Y-29125500D01*
X231216516Y-29145185D01*
X231262271Y-29197989D01*
X231272215Y-29267147D01*
X231256864Y-29311500D01*
X231249429Y-29324376D01*
X231249424Y-29324387D01*
X231150324Y-29563635D01*
X231083302Y-29813769D01*
X231083299Y-29813782D01*
X231049501Y-30070508D01*
X231049500Y-30070525D01*
X231049500Y-30329474D01*
X231049501Y-30329491D01*
X231083299Y-30586217D01*
X231083300Y-30586222D01*
X231083301Y-30586228D01*
X231108859Y-30681613D01*
X231150324Y-30836364D01*
X231249423Y-31075609D01*
X231249427Y-31075619D01*
X231378906Y-31299883D01*
X231536551Y-31505331D01*
X231536557Y-31505338D01*
X231719661Y-31688442D01*
X231719668Y-31688448D01*
X231925116Y-31846093D01*
X232149380Y-31975572D01*
X232149381Y-31975572D01*
X232149384Y-31975574D01*
X232388634Y-32074675D01*
X232638772Y-32141699D01*
X232895519Y-32175500D01*
X232895526Y-32175500D01*
X233154474Y-32175500D01*
X233154481Y-32175500D01*
X233411228Y-32141699D01*
X233661366Y-32074675D01*
X233900616Y-31975574D01*
X234124884Y-31846093D01*
X234330333Y-31688447D01*
X234513447Y-31505333D01*
X234671093Y-31299884D01*
X234800574Y-31075616D01*
X234899675Y-30836366D01*
X234966699Y-30586228D01*
X235000500Y-30329481D01*
X235000500Y-30070519D01*
X234966699Y-29813772D01*
X234899675Y-29563634D01*
X234800574Y-29324384D01*
X234800572Y-29324381D01*
X234800570Y-29324376D01*
X234793136Y-29311500D01*
X234776663Y-29243600D01*
X234799515Y-29177573D01*
X234854437Y-29134382D01*
X234900523Y-29125500D01*
X242507441Y-29125500D01*
X242574480Y-29145185D01*
X242595122Y-29161819D01*
X243438181Y-30004878D01*
X243471666Y-30066201D01*
X243474500Y-30092559D01*
X243474500Y-31008028D01*
X243474501Y-31008034D01*
X243485113Y-31127415D01*
X243541089Y-31323045D01*
X243541090Y-31323048D01*
X243541091Y-31323049D01*
X243635302Y-31503407D01*
X243636877Y-31505338D01*
X243763890Y-31661109D01*
X243842740Y-31725402D01*
X243921593Y-31789698D01*
X244101951Y-31883909D01*
X244297582Y-31939886D01*
X244416963Y-31950500D01*
X246033036Y-31950499D01*
X246152418Y-31939886D01*
X246348049Y-31883909D01*
X246528407Y-31789698D01*
X246686109Y-31661109D01*
X246814698Y-31503407D01*
X246908909Y-31323049D01*
X246964886Y-31127418D01*
X246975500Y-31008037D01*
X246975499Y-29391964D01*
X246964886Y-29272582D01*
X246908909Y-29076951D01*
X246814698Y-28896593D01*
X246739634Y-28804534D01*
X246686109Y-28738890D01*
X246566451Y-28641323D01*
X246528407Y-28610302D01*
X246348049Y-28516091D01*
X246348048Y-28516090D01*
X246348045Y-28516089D01*
X246230829Y-28482550D01*
X246152418Y-28460114D01*
X246152415Y-28460113D01*
X246152413Y-28460113D01*
X246079631Y-28453642D01*
X246033037Y-28449500D01*
X246033033Y-28449500D01*
X245117560Y-28449500D01*
X245050521Y-28429815D01*
X245029879Y-28413181D01*
X244567326Y-27950628D01*
X244014345Y-27397648D01*
X246699500Y-27397648D01*
X246699500Y-27602351D01*
X246731522Y-27804534D01*
X246794781Y-27999223D01*
X246822956Y-28054518D01*
X246881843Y-28170090D01*
X246887715Y-28181613D01*
X247008028Y-28347213D01*
X247152786Y-28491971D01*
X247305345Y-28602809D01*
X247318390Y-28612287D01*
X247500781Y-28705220D01*
X247662591Y-28757795D01*
X247720267Y-28797232D01*
X247742204Y-28837407D01*
X247794781Y-28999223D01*
X247857550Y-29122412D01*
X247881439Y-29169297D01*
X247887715Y-29181613D01*
X248008028Y-29347213D01*
X248152786Y-29491971D01*
X248282637Y-29586311D01*
X248318390Y-29612287D01*
X248397864Y-29652781D01*
X248500776Y-29705218D01*
X248500778Y-29705218D01*
X248500781Y-29705220D01*
X248605137Y-29739127D01*
X248695465Y-29768477D01*
X248796557Y-29784488D01*
X248897648Y-29800500D01*
X248897649Y-29800500D01*
X249102351Y-29800500D01*
X249102352Y-29800500D01*
X249304534Y-29768477D01*
X249499219Y-29705220D01*
X249681610Y-29612287D01*
X249835085Y-29500782D01*
X249847213Y-29491971D01*
X249847215Y-29491968D01*
X249847219Y-29491966D01*
X249991966Y-29347219D01*
X249991968Y-29347215D01*
X249991971Y-29347213D01*
X250046191Y-29272584D01*
X250112287Y-29181610D01*
X250205220Y-28999219D01*
X250268477Y-28804534D01*
X250300500Y-28602352D01*
X250300500Y-28397648D01*
X250292413Y-28346588D01*
X250268477Y-28195465D01*
X250233740Y-28088557D01*
X250205220Y-28000781D01*
X250205218Y-28000778D01*
X250205218Y-28000776D01*
X250147610Y-27887715D01*
X250112287Y-27818390D01*
X250095135Y-27794782D01*
X249991971Y-27652786D01*
X249847213Y-27508028D01*
X249681613Y-27387715D01*
X249681612Y-27387714D01*
X249681610Y-27387713D01*
X249624653Y-27358691D01*
X249499223Y-27294781D01*
X249337407Y-27242204D01*
X249279732Y-27202766D01*
X249257795Y-27162591D01*
X249255958Y-27156938D01*
X249205220Y-27000781D01*
X249112287Y-26818390D01*
X249098563Y-26799500D01*
X248991971Y-26652786D01*
X248847213Y-26508028D01*
X248681613Y-26387715D01*
X248681612Y-26387714D01*
X248681610Y-26387713D01*
X248624653Y-26358691D01*
X248499223Y-26294781D01*
X248304534Y-26231522D01*
X248129995Y-26203878D01*
X248102352Y-26199500D01*
X247897648Y-26199500D01*
X247873329Y-26203351D01*
X247695465Y-26231522D01*
X247500776Y-26294781D01*
X247318386Y-26387715D01*
X247152786Y-26508028D01*
X247008028Y-26652786D01*
X246887715Y-26818386D01*
X246794781Y-27000776D01*
X246731522Y-27195465D01*
X246699500Y-27397648D01*
X244014345Y-27397648D01*
X243758214Y-27141517D01*
X243758213Y-27141516D01*
X243758207Y-27141511D01*
X243731966Y-27122446D01*
X243614893Y-27037388D01*
X243614892Y-27037387D01*
X243614890Y-27037386D01*
X243543049Y-27000781D01*
X243457042Y-26956957D01*
X243457036Y-26956955D01*
X243400407Y-26938556D01*
X243400404Y-26938555D01*
X243337013Y-26917957D01*
X243279338Y-26878519D01*
X243252141Y-26814160D01*
X243264056Y-26745314D01*
X243287646Y-26712353D01*
X244160082Y-25839917D01*
X244221401Y-25806435D01*
X244291093Y-25811419D01*
X244309756Y-25820212D01*
X244343885Y-25839917D01*
X244440278Y-25895570D01*
X244440283Y-25895572D01*
X244440286Y-25895574D01*
X244679536Y-25994675D01*
X244929674Y-26061699D01*
X245186421Y-26095500D01*
X245186428Y-26095500D01*
X245445376Y-26095500D01*
X245445383Y-26095500D01*
X245702130Y-26061699D01*
X245952268Y-25994675D01*
X246191518Y-25895574D01*
X246415786Y-25766093D01*
X246621235Y-25608447D01*
X246804349Y-25425333D01*
X246961995Y-25219884D01*
X247091476Y-24995616D01*
X247190577Y-24756366D01*
X247257601Y-24506228D01*
X247291402Y-24249481D01*
X247291402Y-23990519D01*
X247257601Y-23733772D01*
X247190577Y-23483634D01*
X247091476Y-23244384D01*
X247072490Y-23211499D01*
X247056017Y-23143599D01*
X247078870Y-23077572D01*
X247133791Y-23034381D01*
X247179877Y-23025499D01*
X247964208Y-23025499D01*
X247964216Y-23025499D01*
X248096412Y-23015096D01*
X248314683Y-22960096D01*
X248519626Y-22867007D01*
X248704654Y-22738819D01*
X248863819Y-22579654D01*
X248992007Y-22394626D01*
X249085096Y-22189683D01*
X249140096Y-21971412D01*
X249150500Y-21839217D01*
X249150499Y-20885784D01*
X249140096Y-20753588D01*
X249125450Y-20695466D01*
X249085097Y-20535321D01*
X249085096Y-20535318D01*
X249082520Y-20529647D01*
X248992007Y-20330374D01*
X248913184Y-20216600D01*
X248863825Y-20145354D01*
X248863822Y-20145350D01*
X248863819Y-20145346D01*
X248704654Y-19986181D01*
X248704650Y-19986178D01*
X248704645Y-19986174D01*
X248519632Y-19857997D01*
X248519630Y-19857995D01*
X248519626Y-19857993D01*
X248380457Y-19794780D01*
X248314681Y-19764903D01*
X248314678Y-19764902D01*
X248096420Y-19709905D01*
X248096413Y-19709904D01*
X248052347Y-19706436D01*
X247964217Y-19699500D01*
X247964215Y-19699500D01*
X245635791Y-19699500D01*
X245635776Y-19699501D01*
X245503586Y-19709904D01*
X245503579Y-19709905D01*
X245285321Y-19764902D01*
X245285318Y-19764903D01*
X245175281Y-19814884D01*
X245106102Y-19824687D01*
X245042606Y-19795532D01*
X245004952Y-19736677D01*
X245000000Y-19701985D01*
X245000000Y-12701966D01*
X252874500Y-12701966D01*
X252874500Y-14518028D01*
X252874501Y-14518034D01*
X252885113Y-14637415D01*
X252941089Y-14833045D01*
X252941090Y-14833047D01*
X252941091Y-14833049D01*
X253035301Y-15013406D01*
X253035305Y-15013412D01*
X253103691Y-15097281D01*
X253130800Y-15161677D01*
X253118790Y-15230507D01*
X253114977Y-15237640D01*
X253061775Y-15329789D01*
X253061773Y-15329794D01*
X252968947Y-15553895D01*
X252906161Y-15788214D01*
X252874500Y-16028711D01*
X252874500Y-16271288D01*
X252905667Y-16508034D01*
X252906162Y-16511789D01*
X252934073Y-16615955D01*
X252968947Y-16746104D01*
X253061773Y-16970205D01*
X253061776Y-16970212D01*
X253183064Y-17180289D01*
X253183066Y-17180292D01*
X253183067Y-17180293D01*
X253309077Y-17344514D01*
X253334271Y-17409683D01*
X253320232Y-17478128D01*
X253309077Y-17495486D01*
X253183067Y-17659706D01*
X253061777Y-17869785D01*
X253061773Y-17869794D01*
X252968947Y-18093895D01*
X252906161Y-18328214D01*
X252874500Y-18568711D01*
X252874500Y-18811288D01*
X252906161Y-19051785D01*
X252968947Y-19286104D01*
X253043447Y-19465962D01*
X253061776Y-19510212D01*
X253183064Y-19720289D01*
X253183066Y-19720292D01*
X253183067Y-19720293D01*
X253309077Y-19884514D01*
X253334271Y-19949683D01*
X253320232Y-20018128D01*
X253309077Y-20035486D01*
X253183067Y-20199706D01*
X253061777Y-20409785D01*
X253061773Y-20409794D01*
X252968947Y-20633895D01*
X252906161Y-20868214D01*
X252874500Y-21108711D01*
X252874500Y-21351288D01*
X252906161Y-21591785D01*
X252968947Y-21826104D01*
X253054212Y-22031952D01*
X253061776Y-22050212D01*
X253183064Y-22260289D01*
X253183066Y-22260292D01*
X253183067Y-22260293D01*
X253309077Y-22424514D01*
X253334271Y-22489683D01*
X253320232Y-22558128D01*
X253309077Y-22575486D01*
X253183067Y-22739706D01*
X253061777Y-22949785D01*
X253061773Y-22949794D01*
X252968947Y-23173895D01*
X252906161Y-23408214D01*
X252874500Y-23648711D01*
X252874500Y-23891288D01*
X252906161Y-24131785D01*
X252968947Y-24366104D01*
X253061773Y-24590205D01*
X253061776Y-24590212D01*
X253183064Y-24800289D01*
X253183066Y-24800292D01*
X253183067Y-24800293D01*
X253309077Y-24964514D01*
X253334271Y-25029683D01*
X253320232Y-25098128D01*
X253309077Y-25115486D01*
X253183067Y-25279706D01*
X253061777Y-25489785D01*
X253061773Y-25489794D01*
X252968947Y-25713895D01*
X252906161Y-25948214D01*
X252874500Y-26188711D01*
X252874500Y-26431288D01*
X252906161Y-26671785D01*
X252968947Y-26906104D01*
X253061773Y-27130205D01*
X253061777Y-27130214D01*
X253070035Y-27144517D01*
X253183064Y-27340289D01*
X253183066Y-27340292D01*
X253183067Y-27340293D01*
X253309077Y-27504514D01*
X253334271Y-27569683D01*
X253320232Y-27638128D01*
X253309077Y-27655486D01*
X253183067Y-27819706D01*
X253061777Y-28029785D01*
X253061773Y-28029794D01*
X252968947Y-28253895D01*
X252906161Y-28488214D01*
X252874500Y-28728711D01*
X252874500Y-28971288D01*
X252902728Y-29185711D01*
X252906162Y-29211789D01*
X252920854Y-29266620D01*
X252968947Y-29446104D01*
X253061773Y-29670205D01*
X253061777Y-29670214D01*
X253076355Y-29695464D01*
X253183064Y-29880289D01*
X253183066Y-29880292D01*
X253183067Y-29880293D01*
X253309077Y-30044514D01*
X253334271Y-30109683D01*
X253320232Y-30178128D01*
X253309077Y-30195486D01*
X253183067Y-30359706D01*
X253061777Y-30569785D01*
X253061773Y-30569794D01*
X252968947Y-30793895D01*
X252906161Y-31028214D01*
X252874500Y-31268711D01*
X252874500Y-31511288D01*
X252901384Y-31715502D01*
X252906162Y-31751789D01*
X252910789Y-31769057D01*
X252968947Y-31986104D01*
X253055668Y-32195466D01*
X253061776Y-32210212D01*
X253183064Y-32420289D01*
X253183066Y-32420292D01*
X253183067Y-32420293D01*
X253330733Y-32612736D01*
X253330739Y-32612743D01*
X253502256Y-32784260D01*
X253502263Y-32784266D01*
X253584298Y-32847213D01*
X253694711Y-32931936D01*
X253904788Y-33053224D01*
X254128900Y-33146054D01*
X254363211Y-33208838D01*
X254535516Y-33231522D01*
X254603711Y-33240500D01*
X254603712Y-33240500D01*
X254846289Y-33240500D01*
X254914476Y-33231523D01*
X255086789Y-33208838D01*
X255321100Y-33146054D01*
X255545212Y-33053224D01*
X255755289Y-32931936D01*
X255947738Y-32784265D01*
X256119265Y-32612738D01*
X256266936Y-32420289D01*
X256388224Y-32210212D01*
X256481054Y-31986100D01*
X256543838Y-31751789D01*
X256575500Y-31511288D01*
X256575500Y-31268712D01*
X256543838Y-31028211D01*
X256481054Y-30793900D01*
X256388224Y-30569788D01*
X256266936Y-30359711D01*
X256140922Y-30195486D01*
X256115728Y-30130317D01*
X256129766Y-30061872D01*
X256140922Y-30044514D01*
X256168914Y-30008034D01*
X256266936Y-29880289D01*
X256388224Y-29670212D01*
X256481054Y-29446100D01*
X256543838Y-29211789D01*
X256575500Y-28971288D01*
X256575500Y-28728712D01*
X256543838Y-28488211D01*
X256481054Y-28253900D01*
X256388224Y-28029788D01*
X256266936Y-27819711D01*
X256140922Y-27655486D01*
X256115728Y-27590317D01*
X256129766Y-27521872D01*
X256140922Y-27504514D01*
X256152129Y-27489909D01*
X256266936Y-27340289D01*
X256388224Y-27130212D01*
X256481054Y-26906100D01*
X256543838Y-26671789D01*
X256575500Y-26431288D01*
X256575500Y-26188712D01*
X256543838Y-25948211D01*
X256481054Y-25713900D01*
X256388224Y-25489788D01*
X256266936Y-25279711D01*
X256140922Y-25115486D01*
X256115728Y-25050317D01*
X256129766Y-24981872D01*
X256140922Y-24964514D01*
X256188726Y-24902214D01*
X256266936Y-24800289D01*
X256388224Y-24590212D01*
X256481054Y-24366100D01*
X256543838Y-24131789D01*
X256575500Y-23891288D01*
X256575500Y-23648712D01*
X256543838Y-23408211D01*
X256481054Y-23173900D01*
X256388224Y-22949788D01*
X256266936Y-22739711D01*
X256140922Y-22575486D01*
X256115728Y-22510317D01*
X256129766Y-22441872D01*
X256140922Y-22424514D01*
X256225300Y-22314550D01*
X256266936Y-22260289D01*
X256388224Y-22050212D01*
X256481054Y-21826100D01*
X256543838Y-21591789D01*
X256575500Y-21351288D01*
X256575500Y-21108712D01*
X256543838Y-20868211D01*
X256481054Y-20633900D01*
X256388224Y-20409788D01*
X256266936Y-20199711D01*
X256140922Y-20035486D01*
X256115728Y-19970317D01*
X256129766Y-19901872D01*
X256140922Y-19884514D01*
X256161274Y-19857991D01*
X256266936Y-19720289D01*
X256388224Y-19510212D01*
X256481054Y-19286100D01*
X256543838Y-19051789D01*
X256575500Y-18811288D01*
X256575500Y-18568712D01*
X256543838Y-18328211D01*
X256481054Y-18093900D01*
X256388224Y-17869788D01*
X256266936Y-17659711D01*
X256140922Y-17495486D01*
X256115728Y-17430317D01*
X256129766Y-17361872D01*
X256140922Y-17344514D01*
X256146018Y-17337873D01*
X256266936Y-17180289D01*
X256388224Y-16970212D01*
X256481054Y-16746100D01*
X256543838Y-16511789D01*
X256575500Y-16271288D01*
X256575500Y-16028712D01*
X256543838Y-15788211D01*
X256481054Y-15553900D01*
X256388224Y-15329788D01*
X256388218Y-15329777D01*
X256335023Y-15237639D01*
X256318550Y-15169739D01*
X256341403Y-15103712D01*
X256346307Y-15097281D01*
X256414698Y-15013407D01*
X256508909Y-14833049D01*
X256564886Y-14637418D01*
X256575500Y-14518037D01*
X256575499Y-12701964D01*
X256564886Y-12582582D01*
X256508909Y-12386951D01*
X256414698Y-12206593D01*
X256362684Y-12142803D01*
X256286109Y-12048890D01*
X256128409Y-11920304D01*
X256128410Y-11920304D01*
X256128407Y-11920302D01*
X255948049Y-11826091D01*
X255948048Y-11826090D01*
X255948045Y-11826089D01*
X255830829Y-11792550D01*
X255752418Y-11770114D01*
X255752415Y-11770113D01*
X255752413Y-11770113D01*
X255686102Y-11764217D01*
X255633037Y-11759500D01*
X255633032Y-11759500D01*
X253816971Y-11759500D01*
X253816965Y-11759500D01*
X253816964Y-11759501D01*
X253805316Y-11760536D01*
X253697584Y-11770113D01*
X253501954Y-11826089D01*
X253461503Y-11847219D01*
X253321593Y-11920302D01*
X253321591Y-11920303D01*
X253321590Y-11920304D01*
X253163890Y-12048890D01*
X253035304Y-12206590D01*
X252941089Y-12386954D01*
X252925943Y-12439890D01*
X252885114Y-12582582D01*
X252885113Y-12582583D01*
X252885113Y-12582586D01*
X252874500Y-12701966D01*
X245000000Y-12701966D01*
X245000000Y-5892352D01*
X245019685Y-5825313D01*
X245072489Y-5779558D01*
X245140185Y-5769413D01*
X245171867Y-5773583D01*
X245186405Y-5775498D01*
X245186421Y-5775500D01*
X245186428Y-5775500D01*
X245445376Y-5775500D01*
X245445383Y-5775500D01*
X245702130Y-5741699D01*
X245952268Y-5674675D01*
X246191518Y-5575574D01*
X246415786Y-5446093D01*
X246621235Y-5288447D01*
X246804349Y-5105333D01*
X246961995Y-4899884D01*
X247091476Y-4675616D01*
X247190577Y-4436366D01*
X247257601Y-4186228D01*
X247291402Y-3929481D01*
X247291402Y-3670519D01*
X247257601Y-3413772D01*
X247190577Y-3163634D01*
X247091476Y-2924384D01*
X247042013Y-2838712D01*
X246961995Y-2700116D01*
X246804350Y-2494668D01*
X246804344Y-2494661D01*
X246621240Y-2311557D01*
X246621233Y-2311551D01*
X246415785Y-2153906D01*
X246191521Y-2024427D01*
X246191511Y-2024423D01*
X245952268Y-1925325D01*
X245861924Y-1901117D01*
X245802263Y-1864751D01*
X245771735Y-1801904D01*
X245780030Y-1732529D01*
X245806332Y-1693667D01*
X246963181Y-536819D01*
X247024504Y-503334D01*
X247050862Y-500500D01*
X251216254Y-500500D01*
X251283293Y-520185D01*
G37*
%TD.AperFunction*%
%TA.AperFunction,Conductor*%
G36*
X181175980Y-25019685D02*
G01*
X181221735Y-25072489D01*
X181231679Y-25141647D01*
X181202654Y-25205203D01*
X181196622Y-25211681D01*
X180070122Y-26338181D01*
X180008799Y-26371666D01*
X179982441Y-26374500D01*
X173911421Y-26374500D01*
X173873186Y-26380556D01*
X173808313Y-26390831D01*
X173736443Y-26402214D01*
X173567960Y-26456956D01*
X173567957Y-26456957D01*
X173410110Y-26537385D01*
X173266785Y-26641516D01*
X171158974Y-28749326D01*
X171097651Y-28782811D01*
X171027959Y-28777827D01*
X170972026Y-28735955D01*
X170950402Y-28689236D01*
X170945319Y-28666967D01*
X170937498Y-28632698D01*
X170931561Y-28606685D01*
X170931556Y-28606670D01*
X170890105Y-28488211D01*
X170838801Y-28341592D01*
X170716945Y-28088555D01*
X170567523Y-27850752D01*
X170392416Y-27631175D01*
X170193825Y-27432584D01*
X169974248Y-27257477D01*
X169771708Y-27130212D01*
X169736442Y-27108053D01*
X169483411Y-26986200D01*
X169218329Y-26893443D01*
X169218317Y-26893439D01*
X168944512Y-26830945D01*
X168944494Y-26830942D01*
X168665431Y-26799500D01*
X168665425Y-26799500D01*
X168384575Y-26799500D01*
X168384568Y-26799500D01*
X168105505Y-26830942D01*
X168105487Y-26830945D01*
X167959600Y-26864243D01*
X167889861Y-26859970D01*
X167833504Y-26818671D01*
X167808421Y-26753459D01*
X167822576Y-26685038D01*
X167844321Y-26655678D01*
X169463681Y-25036319D01*
X169525004Y-25002834D01*
X169551362Y-25000000D01*
X181108941Y-25000000D01*
X181175980Y-25019685D01*
G37*
%TD.AperFunction*%
%TA.AperFunction,Conductor*%
G36*
X147415323Y-19436056D02*
G01*
X147421947Y-19443702D01*
X147541594Y-19593736D01*
X147541600Y-19593742D01*
X147541601Y-19593743D01*
X147731257Y-19783399D01*
X147940955Y-19950628D01*
X147941965Y-19951263D01*
X147942161Y-19951484D01*
X147943789Y-19952639D01*
X147943519Y-19953019D01*
X147988258Y-20003591D01*
X148000000Y-20056260D01*
X148000000Y-22855360D01*
X147980315Y-22922399D01*
X147963681Y-22943041D01*
X146869836Y-24036885D01*
X146808513Y-24070370D01*
X146738821Y-24065386D01*
X146712013Y-24051186D01*
X146711991Y-24051223D01*
X146711504Y-24050917D01*
X146710390Y-24050327D01*
X146709038Y-24049367D01*
X146481938Y-23906671D01*
X146240289Y-23790299D01*
X145987126Y-23701714D01*
X145987124Y-23701713D01*
X145754906Y-23648711D01*
X145725635Y-23642030D01*
X145725632Y-23642029D01*
X145725620Y-23642027D01*
X145459113Y-23612000D01*
X145459107Y-23612000D01*
X145351329Y-23612000D01*
X145284290Y-23592315D01*
X145238535Y-23539511D01*
X145228591Y-23470353D01*
X145254381Y-23410688D01*
X145256356Y-23408211D01*
X145275628Y-23384045D01*
X145418327Y-23156941D01*
X145534701Y-22915288D01*
X145623286Y-22662125D01*
X145682970Y-22400635D01*
X145683647Y-22394632D01*
X145712999Y-22134113D01*
X145713000Y-22134109D01*
X145713000Y-21865890D01*
X145712999Y-21865886D01*
X145682972Y-21599379D01*
X145682971Y-21599374D01*
X145682970Y-21599365D01*
X145623286Y-21337875D01*
X145534701Y-21084712D01*
X145418327Y-20843059D01*
X145275628Y-20615955D01*
X145254381Y-20589312D01*
X145227973Y-20524625D01*
X145240730Y-20455930D01*
X145288601Y-20405036D01*
X145351329Y-20388000D01*
X145459110Y-20388000D01*
X145459111Y-20387999D01*
X145595317Y-20372652D01*
X145725620Y-20357972D01*
X145725623Y-20357971D01*
X145725635Y-20357970D01*
X145987125Y-20298286D01*
X146240288Y-20209701D01*
X146481941Y-20093327D01*
X146709045Y-19950628D01*
X146918743Y-19783399D01*
X147108399Y-19593743D01*
X147140266Y-19553784D01*
X147228053Y-19443702D01*
X147285241Y-19403561D01*
X147355053Y-19400711D01*
X147415323Y-19436056D01*
G37*
%TD.AperFunction*%
%TD*%
M02*
