%TF.GenerationSoftware,KiCad,Pcbnew,10.0.3*%
%TF.CreationDate,2026-07-17T09:53:13-07:00*%
%TF.ProjectId,IOBoard,494f426f-6172-4642-9e6b-696361645f70,rev?*%
%TF.SameCoordinates,Original*%
%TF.FileFunction,OtherDrawing,Comment*%
%FSLAX46Y46*%
G04 Gerber Fmt 4.6, Leading zero omitted, Abs format (unit mm)*
G04 Created by KiCad (PCBNEW 10.0.3) date 2026-07-17 09:53:13*
%MOMM*%
%LPD*%
G01*
G04 APERTURE LIST*
%ADD10C,0.100000*%
%ADD11C,0.050000*%
%ADD12C,0.200000*%
G04 APERTURE END LIST*
%TO.C,K2*%
D10*
X208625000Y-27500000D02*
X229625000Y-27500000D01*
X208625000Y-44900000D02*
X208625000Y-27500000D01*
X209625000Y-28500000D02*
X209625000Y-43900000D01*
X209625000Y-43900000D02*
X228625000Y-43900000D01*
X228625000Y-28500000D02*
X209625000Y-28500000D01*
X228625000Y-43900000D02*
X228625000Y-28500000D01*
X229625000Y-27500000D02*
X229625000Y-44900000D01*
X229625000Y-44900000D02*
X208625000Y-44900000D01*
%TO.C,C47*%
D11*
X110100000Y-35100000D02*
X117900000Y-35100000D01*
X110100000Y-44900000D02*
X110100000Y-35100000D01*
D10*
X110700000Y-36700000D02*
X110700000Y-41650000D01*
X110700000Y-41650000D02*
X112350000Y-43300000D01*
X112350000Y-43300000D02*
X115650000Y-43300000D01*
X115650000Y-43300000D02*
X117300000Y-41650000D01*
X117300000Y-36700000D02*
X110700000Y-36700000D01*
X117300000Y-41650000D02*
X117300000Y-36700000D01*
D11*
X117900000Y-35100000D02*
X117900000Y-44900000D01*
X117900000Y-44900000D02*
X110100000Y-44900000D01*
%TO.C,C48*%
X94100000Y-35100000D02*
X101900000Y-35100000D01*
X94100000Y-44900000D02*
X94100000Y-35100000D01*
D10*
X94700000Y-36700000D02*
X94700000Y-41650000D01*
X94700000Y-41650000D02*
X96350000Y-43300000D01*
X96350000Y-43300000D02*
X99650000Y-43300000D01*
X99650000Y-43300000D02*
X101300000Y-41650000D01*
X101300000Y-36700000D02*
X94700000Y-36700000D01*
X101300000Y-41650000D02*
X101300000Y-36700000D01*
D11*
X101900000Y-35100000D02*
X101900000Y-44900000D01*
X101900000Y-44900000D02*
X94100000Y-44900000D01*
%TO.C,C42*%
X193100000Y-27500000D02*
X200900000Y-27500000D01*
X193100000Y-37300000D02*
X193100000Y-27500000D01*
D10*
X193700000Y-29100000D02*
X193700000Y-34050000D01*
X193700000Y-34050000D02*
X195350000Y-35700000D01*
X195350000Y-35700000D02*
X198650000Y-35700000D01*
X198650000Y-35700000D02*
X200300000Y-34050000D01*
X200300000Y-29100000D02*
X193700000Y-29100000D01*
X200300000Y-34050000D02*
X200300000Y-29100000D01*
D11*
X200900000Y-27500000D02*
X200900000Y-37300000D01*
X200900000Y-37300000D02*
X193100000Y-37300000D01*
%TO.C,F1*%
D10*
X175300000Y-11500000D02*
X186700000Y-11500000D01*
X175300000Y-16500000D02*
X175300000Y-11500000D01*
D12*
X176300000Y-12500000D02*
X185700000Y-12500000D01*
X176300000Y-15500000D02*
X176300000Y-12500000D01*
X185700000Y-12500000D02*
X185700000Y-15500000D01*
X185700000Y-15500000D02*
X176300000Y-15500000D01*
D10*
X186700000Y-11500000D02*
X186700000Y-16500000D01*
X186700000Y-16500000D02*
X175300000Y-16500000D01*
%TO.C,C49*%
D11*
X135100000Y-36100000D02*
X144900000Y-36100000D01*
X135100000Y-43900000D02*
X135100000Y-36100000D01*
D10*
X136700000Y-38350000D02*
X136700000Y-41650000D01*
X136700000Y-41650000D02*
X138350000Y-43300000D01*
X138350000Y-36700000D02*
X136700000Y-38350000D01*
X138350000Y-43300000D02*
X143300000Y-43300000D01*
X143300000Y-36700000D02*
X138350000Y-36700000D01*
X143300000Y-43300000D02*
X143300000Y-36700000D01*
D11*
X144900000Y-36100000D02*
X144900000Y-43900000D01*
X144900000Y-43900000D02*
X135100000Y-43900000D01*
%TO.C,PS3*%
D10*
X195295902Y-300000D02*
X195295902Y-27700000D01*
X195295902Y-27700000D02*
X248815902Y-27700000D01*
D12*
X197015902Y-1300000D02*
X247815902Y-1300000D01*
X197015902Y-26700000D02*
X197015902Y-1300000D01*
X247815902Y-1300000D02*
X247815902Y-26700000D01*
X247815902Y-26700000D02*
X197015902Y-26700000D01*
D10*
X248815902Y-300000D02*
X195295902Y-300000D01*
X248815902Y-27700000D02*
X248815902Y-300000D01*
%TO.C,K1*%
X228625000Y-27500000D02*
X249625000Y-27500000D01*
X228625000Y-44900000D02*
X228625000Y-27500000D01*
X229625000Y-28500000D02*
X229625000Y-43900000D01*
X229625000Y-43900000D02*
X248625000Y-43900000D01*
X248625000Y-28500000D02*
X229625000Y-28500000D01*
X248625000Y-43900000D02*
X248625000Y-28500000D01*
X249625000Y-27500000D02*
X249625000Y-44900000D01*
X249625000Y-44900000D02*
X228625000Y-44900000D01*
%TO.C,IC10*%
D11*
X201850000Y-32050000D02*
X205350000Y-32050000D01*
X201850000Y-34750000D02*
X201850000Y-32050000D01*
D10*
X202975000Y-32400000D02*
X204225000Y-32400000D01*
X202975000Y-34400000D02*
X202975000Y-32400000D01*
X204225000Y-32400000D02*
X204225000Y-34400000D01*
X204225000Y-33750000D02*
X203575000Y-34400000D01*
X204225000Y-34400000D02*
X202975000Y-34400000D01*
D11*
X205350000Y-32050000D02*
X205350000Y-34750000D01*
X205350000Y-34750000D02*
X201850000Y-34750000D01*
%TO.C,C43*%
X102100000Y-35100000D02*
X109900000Y-35100000D01*
X102100000Y-44900000D02*
X102100000Y-35100000D01*
D10*
X102700000Y-36700000D02*
X102700000Y-41650000D01*
X102700000Y-41650000D02*
X104350000Y-43300000D01*
X104350000Y-43300000D02*
X107650000Y-43300000D01*
X107650000Y-43300000D02*
X109300000Y-41650000D01*
X109300000Y-36700000D02*
X102700000Y-36700000D01*
X109300000Y-41650000D02*
X109300000Y-36700000D01*
D11*
X109900000Y-35100000D02*
X109900000Y-44900000D01*
X109900000Y-44900000D02*
X102100000Y-44900000D01*
%TD*%
M02*
