%TF.GenerationSoftware,KiCad,Pcbnew,10.0.3*%
%TF.CreationDate,2026-07-17T09:53:13-07:00*%
%TF.ProjectId,IOBoard,494f426f-6172-4642-9e6b-696361645f70,rev?*%
%TF.SameCoordinates,Original*%
%TF.FileFunction,Copper,L2,Inr*%
%TF.FilePolarity,Positive*%
%FSLAX46Y46*%
G04 Gerber Fmt 4.6, Leading zero omitted, Abs format (unit mm)*
G04 Created by KiCad (PCBNEW 10.0.3) date 2026-07-17 09:53:13*
%MOMM*%
%LPD*%
G01*
G04 APERTURE LIST*
%TA.AperFunction,ComponentPad*%
%ADD10R,1.500000X1.500000*%
%TD*%
%TA.AperFunction,ComponentPad*%
%ADD11C,1.950000*%
%TD*%
%TA.AperFunction,ComponentPad*%
%ADD12C,1.500000*%
%TD*%
%TA.AperFunction,ComponentPad*%
%ADD13C,9.500000*%
%TD*%
%TA.AperFunction,ComponentPad*%
%ADD14R,1.700000X1.700000*%
%TD*%
%TA.AperFunction,ComponentPad*%
%ADD15C,1.700000*%
%TD*%
%TA.AperFunction,ComponentPad*%
%ADD16C,1.217000*%
%TD*%
%TA.AperFunction,ComponentPad*%
%ADD17R,1.478000X1.478000*%
%TD*%
%TA.AperFunction,ComponentPad*%
%ADD18C,1.478000*%
%TD*%
%TA.AperFunction,ComponentPad*%
%ADD19C,3.450000*%
%TD*%
%TA.AperFunction,ComponentPad*%
%ADD20C,2.775000*%
%TD*%
%TA.AperFunction,ComponentPad*%
%ADD21C,3.000000*%
%TD*%
%TA.AperFunction,ViaPad*%
%ADD22C,0.600000*%
%TD*%
%TA.AperFunction,Conductor*%
%ADD23C,0.250000*%
%TD*%
%TA.AperFunction,Conductor*%
%ADD24C,1.000000*%
%TD*%
G04 APERTURE END LIST*
D10*
%TO.N,Net-(IC10-C1{slash}A1)*%
%TO.C,K2*%
X225225000Y-30200000D03*
D11*
%TO.N,/VIN_FUSED_Z*%
X213025000Y-30200000D03*
%TO.N,unconnected-(K2-NC-Pad3)*%
X213025000Y-42200000D03*
D12*
%TO.N,/+5V_A*%
X225225000Y-42200000D03*
D11*
%TO.N,/O_+VIN_SWITCHED_Z*%
X227225000Y-36200000D03*
%TD*%
D13*
%TO.N,N/C*%
%TO.C,H2*%
X5500000Y-39500000D03*
%TD*%
D14*
%TO.N,/HALL_U_ENCODER_SIN_IN_A*%
%TO.C,J7*%
X206890000Y-39725000D03*
D15*
%TO.N,/+5V_A*%
X206890000Y-42265000D03*
%TO.N,/HALL_V_ENCODER_COS_IN_A*%
X204350000Y-39725000D03*
%TO.N,/GND_A*%
X204350000Y-42265000D03*
%TO.N,/HALL_W_IN_A*%
X201810000Y-39725000D03*
%TO.N,/GND_A*%
X201810000Y-42265000D03*
%TO.N,/MOTOR_TEMP_IN_A*%
X199270000Y-39725000D03*
%TO.N,/GND_A*%
X199270000Y-42265000D03*
%TO.N,/THROTTLE1_IN_A*%
X196730000Y-39725000D03*
%TO.N,/GND_A*%
X196730000Y-42265000D03*
%TO.N,/THROTTLE2_IN_A*%
X194190000Y-39725000D03*
%TO.N,/GND_A*%
X194190000Y-42265000D03*
%TO.N,/DOUT1_A*%
X191650000Y-39725000D03*
%TO.N,/DOUT2_A*%
X191650000Y-42265000D03*
%TO.N,/DOUT3_A*%
X189110000Y-39725000D03*
%TO.N,/DOUT4_A*%
X189110000Y-42265000D03*
%TD*%
D13*
%TO.N,N/C*%
%TO.C,H6*%
X180000000Y-39500000D03*
%TD*%
%TO.N,N/C*%
%TO.C,H4*%
X85000000Y-39500000D03*
%TD*%
%TO.N,N/C*%
%TO.C,H8*%
X254500000Y-39500000D03*
%TD*%
D16*
%TO.N,/I_+VIN_Z*%
%TO.C,F1*%
X178450000Y-14000000D03*
%TO.N,Net-(D3-A)*%
X183550000Y-14000000D03*
%TD*%
D13*
%TO.N,N/C*%
%TO.C,H1*%
X5500000Y-5500000D03*
%TD*%
%TO.N,N/C*%
%TO.C,H3*%
X85000000Y-5500000D03*
%TD*%
%TO.N,N/C*%
%TO.C,H5*%
X180000000Y-5500000D03*
%TD*%
D17*
%TO.N,unconnected-(J1-VBUS-Pad1)*%
%TO.C,J1*%
X182750000Y-27830000D03*
D18*
%TO.N,/USB_DM*%
X185250000Y-27830000D03*
%TO.N,/USB_DP*%
X185250000Y-24630000D03*
%TO.N,/GND_A*%
X182750000Y-24630000D03*
D19*
X190020000Y-25330000D03*
X177980000Y-25330000D03*
%TD*%
D20*
%TO.N,/CAN1_GND*%
%TO.C,J6*%
X113325000Y-18000000D03*
%TO.N,/CAN1_LOW*%
X117325000Y-18000000D03*
%TO.N,/CAN1_HIGH*%
X121325000Y-18000000D03*
%TO.N,/CAN1_+5V*%
X125325000Y-18000000D03*
%TO.N,unconnected-(J6-Pad5)*%
X129325000Y-18000000D03*
%TO.N,/THROTTLE2_IN_A*%
X133325000Y-18000000D03*
%TO.N,/THROTTLE1_IN_A*%
X137325000Y-18000000D03*
%TO.N,/GND_A*%
X141325000Y-18000000D03*
%TO.N,/+5V_A*%
X145325000Y-18000000D03*
%TO.N,/DIN_2_W*%
X149325000Y-18000000D03*
%TO.N,unconnected-(J6-Pad11)*%
X153325000Y-18000000D03*
%TO.N,/I_+VIN_Z*%
X157325000Y-18000000D03*
%TO.N,/CAN1_JUMPER_A*%
X115325000Y-22000000D03*
%TO.N,/CAN1_JUMPER_B*%
X119325000Y-22000000D03*
%TO.N,/CAN2_JUMPER_A*%
X123325000Y-22000000D03*
%TO.N,/CAN2_JUMPER_B*%
X127325000Y-22000000D03*
%TO.N,/+12V_SWITCHED_A*%
X131325000Y-22000000D03*
%TO.N,/DIN_1_W*%
X135325000Y-22000000D03*
%TO.N,/GND_A*%
X139325000Y-22000000D03*
%TO.N,/DIN_1_W*%
X143325000Y-22000000D03*
%TO.N,/GND_A*%
X147325000Y-22000000D03*
%TO.N,unconnected-(J6-Pad22)*%
X151325000Y-22000000D03*
%TO.N,/O_PRECHARGE_DC_LINK_+_Z*%
X155325000Y-22000000D03*
%TO.N,/CAN2_GND*%
X113325000Y-26000000D03*
%TO.N,/CAN2_LOW*%
X117325000Y-26000000D03*
%TO.N,/CAN2_HIGH*%
X121325000Y-26000000D03*
%TO.N,/CAN2_+5V*%
X125325000Y-26000000D03*
%TO.N,/MOTOR_TEMP_IN_A*%
X129325000Y-26000000D03*
%TO.N,/HALL_W_IN_A*%
X133325000Y-26000000D03*
%TO.N,/HALL_V_ENCODER_COS_IN_A*%
X137325000Y-26000000D03*
%TO.N,/HALL_U_ENCODER_SIN_IN_A*%
X141325000Y-26000000D03*
%TO.N,/+5V_A*%
X145325000Y-26000000D03*
%TO.N,unconnected-(J6-Pad33)*%
X149325000Y-26000000D03*
%TO.N,/O_+VIN_SWITCHED_Z*%
X153325000Y-26000000D03*
%TO.N,/GND_Z*%
X157325000Y-26000000D03*
D21*
%TO.N,unconnected-(J6-PadMH1)*%
X103625000Y-11200000D03*
%TO.N,unconnected-(J6-PadMH2)*%
X102125000Y-29300000D03*
%TO.N,unconnected-(J6-PadMH3)*%
X168525000Y-29300000D03*
%TO.N,unconnected-(J6-PadMH4)*%
X167025000Y-11200000D03*
%TD*%
D13*
%TO.N,N/C*%
%TO.C,H7*%
X254500000Y-5500000D03*
%TD*%
D14*
%TO.N,/CAN2_JUMPER_A*%
%TO.C,J13*%
X53960000Y-43000000D03*
D15*
%TO.N,/CAN2_JUMPER_B*%
X53960000Y-40460000D03*
%TO.N,/CAN2_+5V*%
X56500000Y-43000000D03*
%TO.N,/CAN2_GND*%
X56500000Y-40460000D03*
%TO.N,/CAN2_LOW*%
X59040000Y-43000000D03*
%TO.N,/CAN2_HIGH*%
X59040000Y-40460000D03*
%TD*%
D14*
%TO.N,/GND_A*%
%TO.C,J14*%
X149000000Y-40000000D03*
D15*
%TO.N,/MP_SWO*%
X149000000Y-42540000D03*
%TO.N,/MP_BOOTSEL*%
X151540000Y-40000000D03*
%TO.N,/MP_SWCLK*%
X151540000Y-42540000D03*
%TO.N,/MP_SWDIO*%
X154080000Y-40000000D03*
%TO.N,/MP_RESET*%
X154080000Y-42540000D03*
%TO.N,/GND_A*%
X156620000Y-40000000D03*
%TO.N,/USB_DP*%
X156620000Y-42540000D03*
%TO.N,/MD_FIBER_TX*%
X159160000Y-40000000D03*
%TO.N,/MD_FIBER_RX*%
X159160000Y-42540000D03*
%TO.N,/FAULT*%
X161700000Y-40000000D03*
%TO.N,/MD_FIBER_SYNC*%
X161700000Y-42540000D03*
%TO.N,/USB_DM*%
X164240000Y-40000000D03*
%TO.N,/+3.3V_A*%
X164240000Y-42540000D03*
%TO.N,/CP_RESET*%
X166780000Y-40000000D03*
%TO.N,/CP_SWDIO*%
X166780000Y-42540000D03*
%TO.N,/CP_SWCLK*%
X169320000Y-40000000D03*
%TO.N,/CP_BOOTSEL*%
X169320000Y-42540000D03*
%TO.N,/GND_A*%
X171860000Y-40000000D03*
%TO.N,/+12V_A*%
X171860000Y-42540000D03*
%TD*%
D14*
%TO.N,/CAN1_JUMPER_A*%
%TO.C,J10*%
X53960000Y-5500000D03*
D15*
%TO.N,/CAN1_JUMPER_B*%
X53960000Y-2960000D03*
%TO.N,/CAN1_+5V*%
X56500000Y-5500000D03*
%TO.N,/CAN1_GND*%
X56500000Y-2960000D03*
%TO.N,/CAN1_LOW*%
X59040000Y-5500000D03*
%TO.N,/CAN1_HIGH*%
X59040000Y-2960000D03*
%TD*%
D14*
%TO.N,/DIN_1_W*%
%TO.C,J12*%
X254725000Y-13610000D03*
D15*
%TO.N,/GND_A*%
X257265000Y-13610000D03*
%TO.N,/DIN_2_W*%
X254725000Y-16150000D03*
%TO.N,/GND_A*%
X257265000Y-16150000D03*
%TO.N,/DIN_3_W*%
X254725000Y-18690000D03*
%TO.N,/GND_A*%
X257265000Y-18690000D03*
%TO.N,/DIN_4_W*%
X254725000Y-21230000D03*
%TO.N,/GND_A*%
X257265000Y-21230000D03*
%TO.N,/DIN_5_W*%
X254725000Y-23770000D03*
%TO.N,/GND_A*%
X257265000Y-23770000D03*
%TO.N,/DIN_6_W*%
X254725000Y-26310000D03*
%TO.N,/GND_A*%
X257265000Y-26310000D03*
%TO.N,/DIN_7_W*%
X254725000Y-28850000D03*
%TO.N,/GND_A*%
X257265000Y-28850000D03*
%TO.N,/DIN_8_W*%
X254725000Y-31390000D03*
%TO.N,/GND_A*%
X257265000Y-31390000D03*
%TD*%
D11*
%TO.N,/VIN_FUSED_Z*%
%TO.C,PS3*%
X199595902Y-21640000D03*
%TO.N,/GND_Z*%
X199595902Y-16560000D03*
%TO.N,/+12V_A*%
X245315902Y-24120000D03*
%TO.N,unconnected-(PS3-TRIM-Pad4)*%
X245315902Y-3800000D03*
%TO.N,/GND_A*%
X245315902Y-13960000D03*
%TO.N,unconnected-(PS3-REMOTE_ON{slash}OFF-Pad6)*%
X199595902Y-6400000D03*
%TD*%
D10*
%TO.N,Net-(IC10-C2{slash}A2)*%
%TO.C,K1*%
X245225000Y-30200000D03*
D11*
%TO.N,/VIN_FUSED_Z*%
X233025000Y-30200000D03*
%TO.N,unconnected-(K1-NC-Pad3)*%
X233025000Y-42200000D03*
D12*
%TO.N,/+5V_A*%
X245225000Y-42200000D03*
D11*
%TO.N,/O_PRECHARGE_DC_LINK_+_Z*%
X247225000Y-36200000D03*
%TD*%
D14*
%TO.N,/MD_FIBER_TX*%
%TO.C,J2*%
X81295000Y-20373999D03*
D15*
%TO.N,/MD_FIBER_RX*%
X81295000Y-22913999D03*
%TO.N,/+5V_A*%
X83835000Y-20373999D03*
%TO.N,/+12V_A*%
X83835000Y-22913999D03*
%TO.N,/GND_A*%
X86375000Y-20373999D03*
X86375000Y-22913999D03*
%TO.N,/FAULT*%
X88915000Y-20373999D03*
%TO.N,/MD_FIBER_SYNC*%
X88915000Y-22913999D03*
%TD*%
D22*
%TO.N,Net-(IC10-C1{slash}A1)*%
X208500000Y-35000000D03*
%TO.N,/VIN_FUSED_Z*%
X190000000Y-2300000D03*
%TO.N,/+5V_A*%
X206000000Y-36500000D03*
X203500000Y-36000000D03*
%TO.N,/+12V_A*%
X114000000Y-43000000D03*
X98000000Y-43000000D03*
X138000000Y-40000000D03*
X118000000Y-40000000D03*
X192000000Y-37000000D03*
X119000000Y-40000000D03*
X120000000Y-40000000D03*
X106000000Y-43000000D03*
%TO.N,/GND_A*%
X106000000Y-37000000D03*
X45000000Y-2500000D03*
X15000000Y-42500000D03*
X50000000Y-42500000D03*
X47500000Y-42500000D03*
X147500000Y-12500000D03*
X20000000Y-2500000D03*
X2500000Y-12500000D03*
X210000000Y-42500000D03*
X122500000Y-2500000D03*
X112500000Y-2500000D03*
X92500000Y-42500000D03*
X77500000Y-25000000D03*
X2500000Y-17500000D03*
X15000000Y-2500000D03*
X2500000Y-20000000D03*
X22500000Y-42500000D03*
X2500000Y-25000000D03*
X37500000Y-2500000D03*
X25000000Y-2500000D03*
X25000000Y-42500000D03*
X250000000Y-20000000D03*
X77500000Y-2500000D03*
X147500000Y-10000000D03*
X114000000Y-37000000D03*
X242500000Y-42500000D03*
X2500000Y-32500000D03*
X77500000Y-17500000D03*
X20000000Y-42500000D03*
X92500000Y-2500000D03*
X40000000Y-42500000D03*
X120000000Y-2500000D03*
X195500000Y-27500000D03*
X30000000Y-42500000D03*
X250000000Y-32500000D03*
X17500000Y-42500000D03*
X133000000Y-43500000D03*
X45000000Y-42500000D03*
X220000000Y-42500000D03*
X100000000Y-2500000D03*
X237500000Y-35000000D03*
X237500000Y-40000000D03*
X35000000Y-2500000D03*
X107500000Y-2500000D03*
X250000000Y-25000000D03*
X135000000Y-2500000D03*
X40000000Y-2500000D03*
X240000000Y-42500000D03*
X217500000Y-30000000D03*
X12500000Y-2500000D03*
X143000000Y-40000000D03*
X90000000Y-35000000D03*
X98000000Y-37000000D03*
X27500000Y-2500000D03*
X22500000Y-2500000D03*
X132500000Y-2500000D03*
X247500000Y-42500000D03*
X127500000Y-2500000D03*
X237500000Y-37500000D03*
X32500000Y-42500000D03*
X2500000Y-30000000D03*
X32500000Y-2500000D03*
X77500000Y-20000000D03*
X77500000Y-22500000D03*
X47500000Y-2500000D03*
X115000000Y-2500000D03*
X130000000Y-2500000D03*
X42500000Y-42500000D03*
X2500000Y-15000000D03*
X102500000Y-2500000D03*
X247500000Y-10000000D03*
X125000000Y-2500000D03*
X2500000Y-22500000D03*
X2500000Y-27500000D03*
X220000000Y-30000000D03*
X117500000Y-2500000D03*
X17500000Y-2500000D03*
X140000000Y-2500000D03*
X247500000Y-2500000D03*
X50000000Y-2500000D03*
X37500000Y-42500000D03*
X77500000Y-42500000D03*
X147500000Y-7500000D03*
X30000000Y-2500000D03*
X95000000Y-2500000D03*
X77500000Y-27500000D03*
X97500000Y-2500000D03*
X105000000Y-2500000D03*
X35000000Y-42500000D03*
X237500000Y-42500000D03*
X142500000Y-2500000D03*
X200500000Y-36500000D03*
X201000000Y-33425000D03*
X137500000Y-2500000D03*
X110000000Y-2500000D03*
X42500000Y-2500000D03*
X27500000Y-42500000D03*
X145000000Y-5000000D03*
X12500000Y-42500000D03*
%TO.N,/HALL_U_ENCODER_SIN_IN_A*%
X141500000Y-30500000D03*
%TO.N,/HALL_V_ENCODER_COS_IN_A*%
X138000000Y-31500000D03*
%TO.N,/HALL_W_IN_A*%
X133500000Y-32500000D03*
%TO.N,/MOTOR_TEMP_IN_A*%
X129500000Y-33500000D03*
%TO.N,/THROTTLE1_IN_A*%
X139500000Y-29500000D03*
X191000000Y-34500000D03*
%TO.N,/THROTTLE2_IN_A*%
X189500000Y-34500000D03*
X135500000Y-30500000D03*
%TO.N,/DOUT4_A*%
X130040000Y-42280000D03*
X168000000Y-38000000D03*
X133000000Y-35000000D03*
X133000000Y-41000000D03*
X186000000Y-35000000D03*
%TO.N,Net-(D3-A)*%
X190000000Y-9200000D03*
%TO.N,/+12V_SWITCHED_A*%
X130040000Y-38720000D03*
%TO.N,/USB_DP*%
X164000000Y-38500000D03*
%TO.N,/CAN1_GND*%
X113000000Y-7000000D03*
%TO.N,/DIN_2_W*%
X249000000Y-28500000D03*
X207500000Y-33500000D03*
X148000000Y-31000000D03*
%TO.N,/CAN1_JUMPER_B*%
X119000000Y-11000000D03*
%TO.N,/CAN2_JUMPER_A*%
X123500000Y-33000000D03*
%TO.N,/CAN2_JUMPER_B*%
X127500000Y-28000000D03*
%TO.N,/DIN_1_W*%
X178000000Y-28500000D03*
X190000000Y-28500000D03*
X248000000Y-27500000D03*
X208500000Y-32500000D03*
X144000000Y-28500000D03*
%TO.N,/CAN2_GND*%
X113000000Y-29000000D03*
%TO.N,/CAN2_LOW*%
X117500000Y-32000000D03*
%TO.N,/CAN2_HIGH*%
X121500000Y-30000000D03*
%TO.N,/CAN2_+5V*%
X125500000Y-31000000D03*
%TO.N,/MD_FIBER_TX*%
X91500000Y-20000000D03*
X159160000Y-37500000D03*
X91500000Y-17500000D03*
X127500000Y-31500000D03*
%TO.N,/MD_FIBER_RX*%
X94500000Y-21000000D03*
X94500000Y-24000000D03*
X157795000Y-38500000D03*
X127500000Y-32500000D03*
%TO.N,/FAULT*%
X160500000Y-37500000D03*
X127500000Y-30500000D03*
%TO.N,/MD_FIBER_SYNC*%
X163000000Y-37500000D03*
X127500000Y-29500000D03*
X93500000Y-23000000D03*
X93500000Y-18000000D03*
%TO.N,Net-(IC10-C2{slash}A2)*%
X210500000Y-29000000D03*
%TD*%
%TO.N,/HALL_U_ENCODER_SIN_IN_A*%
D23*
X146602297Y-30500000D02*
X141500000Y-30500000D01*
X175000000Y-30500000D02*
X171500000Y-34000000D01*
X165250000Y-34000000D02*
X163750000Y-32500000D01*
X203000000Y-30500000D02*
X175000000Y-30500000D01*
X148602297Y-32500000D02*
X146602297Y-30500000D01*
X206890000Y-39725000D02*
X206890000Y-34390000D01*
X206890000Y-34390000D02*
X203000000Y-30500000D01*
X163750000Y-32500000D02*
X148602297Y-32500000D01*
X171500000Y-34000000D02*
X165250000Y-34000000D01*
%TO.N,/HALL_V_ENCODER_COS_IN_A*%
X204350000Y-39725000D02*
X204350000Y-33350000D01*
X148068198Y-33500000D02*
X146068198Y-31500000D01*
X165000000Y-35000000D02*
X163500000Y-33500000D01*
X204350000Y-33350000D02*
X202500000Y-31500000D01*
X172000000Y-35000000D02*
X165000000Y-35000000D01*
X146068198Y-31500000D02*
X138000000Y-31500000D01*
X163500000Y-33500000D02*
X148068198Y-33500000D01*
X175500000Y-31500000D02*
X172000000Y-35000000D01*
X202500000Y-31500000D02*
X175500000Y-31500000D01*
%TO.N,/HALL_W_IN_A*%
X198500000Y-32500000D02*
X176000000Y-32500000D01*
X163500000Y-34500000D02*
X147500000Y-34500000D01*
X201810000Y-39725000D02*
X201810000Y-35810000D01*
X147500000Y-34500000D02*
X145500000Y-32500000D01*
X201810000Y-35810000D02*
X198500000Y-32500000D01*
X145500000Y-32500000D02*
X133500000Y-32500000D01*
X165000000Y-36000000D02*
X163500000Y-34500000D01*
X172500000Y-36000000D02*
X165000000Y-36000000D01*
X176000000Y-32500000D02*
X172500000Y-36000000D01*
%TO.N,/MOTOR_TEMP_IN_A*%
X165000000Y-37000000D02*
X163500000Y-35500000D01*
X199270000Y-34770000D02*
X198000000Y-33500000D01*
X176500000Y-33500000D02*
X173000000Y-37000000D01*
X199270000Y-39725000D02*
X199270000Y-34770000D01*
X147250000Y-35500000D02*
X145250000Y-33500000D01*
X198000000Y-33500000D02*
X176500000Y-33500000D01*
X145250000Y-33500000D02*
X129500000Y-33500000D01*
X163500000Y-35500000D02*
X147250000Y-35500000D01*
X173000000Y-37000000D02*
X165000000Y-37000000D01*
%TO.N,/THROTTLE1_IN_A*%
X196000000Y-34500000D02*
X191000000Y-34500000D01*
X196730000Y-39725000D02*
X196730000Y-35230000D01*
X196730000Y-35230000D02*
X196000000Y-34500000D01*
%TO.N,/THROTTLE2_IN_A*%
X194190000Y-36690000D02*
X193500000Y-36000000D01*
X194190000Y-39725000D02*
X194190000Y-36690000D01*
X193500000Y-36000000D02*
X191000000Y-36000000D01*
X191000000Y-36000000D02*
X189500000Y-34500000D01*
%TO.N,/DOUT4_A*%
X165000000Y-38000000D02*
X163500000Y-36500000D01*
X186000000Y-41500000D02*
X186000000Y-35000000D01*
X145000000Y-34500000D02*
X133500000Y-34500000D01*
X189110000Y-42265000D02*
X186765000Y-42265000D01*
X186765000Y-42265000D02*
X186000000Y-41500000D01*
X163500000Y-36500000D02*
X147000000Y-36500000D01*
X168000000Y-38000000D02*
X165000000Y-38000000D01*
X147000000Y-36500000D02*
X145000000Y-34500000D01*
X133500000Y-34500000D02*
X133000000Y-35000000D01*
%TO.N,/USB_DP*%
X157795000Y-41365000D02*
X156620000Y-42540000D01*
X158998299Y-38500000D02*
X157795000Y-39703299D01*
X164000000Y-38500000D02*
X158998299Y-38500000D01*
X157795000Y-39703299D02*
X157795000Y-41365000D01*
%TO.N,/DIN_2_W*%
X203500000Y-29500000D02*
X207500000Y-33500000D01*
X164000000Y-31500000D02*
X165500000Y-33000000D01*
X254725000Y-16150000D02*
X249850000Y-16150000D01*
X249000000Y-17000000D02*
X249000000Y-28500000D01*
X249850000Y-16150000D02*
X249000000Y-17000000D01*
X149500000Y-31500000D02*
X164000000Y-31500000D01*
X165500000Y-33000000D02*
X171500000Y-33000000D01*
X148000000Y-31000000D02*
X149000000Y-31000000D01*
X149000000Y-31000000D02*
X149500000Y-31500000D01*
X175000000Y-29500000D02*
X203500000Y-29500000D01*
X171500000Y-33000000D02*
X175000000Y-29500000D01*
%TO.N,/DIN_1_W*%
X145000000Y-29500000D02*
X144000000Y-28500000D01*
X149000000Y-30500000D02*
X148000000Y-29500000D01*
X254725000Y-13610000D02*
X249890000Y-13610000D01*
X249890000Y-13610000D02*
X248000000Y-15500000D01*
X178000000Y-28500000D02*
X175000000Y-28500000D01*
X165500000Y-32000000D02*
X164000000Y-30500000D01*
X204500000Y-28500000D02*
X190000000Y-28500000D01*
X164000000Y-30500000D02*
X149000000Y-30500000D01*
X208500000Y-32500000D02*
X204500000Y-28500000D01*
X175000000Y-28500000D02*
X171500000Y-32000000D01*
X148000000Y-29500000D02*
X145000000Y-29500000D01*
X171500000Y-32000000D02*
X165500000Y-32000000D01*
X248000000Y-15500000D02*
X248000000Y-27500000D01*
%TO.N,/O_PRECHARGE_DC_LINK_+_Z*%
D24*
X229000000Y-13000000D02*
X241000000Y-25000000D01*
X241000000Y-25000000D02*
X241000000Y-34000000D01*
X172000000Y-17000000D02*
X194000000Y-17000000D01*
X163750000Y-18750000D02*
X170250000Y-18750000D01*
X241000000Y-34000000D02*
X243200000Y-36200000D01*
X194000000Y-17000000D02*
X198000000Y-13000000D01*
X243200000Y-36200000D02*
X247225000Y-36200000D01*
X170250000Y-18750000D02*
X172000000Y-17000000D01*
X198000000Y-13000000D02*
X229000000Y-13000000D01*
X155325000Y-22000000D02*
X160500000Y-22000000D01*
X160500000Y-22000000D02*
X163750000Y-18750000D01*
%TO.N,/MD_FIBER_TX*%
D23*
X114500000Y-34000000D02*
X100500000Y-20000000D01*
X126883884Y-31500000D02*
X124383884Y-34000000D01*
X127500000Y-31500000D02*
X126883884Y-31500000D01*
X124383884Y-34000000D02*
X114500000Y-34000000D01*
X100500000Y-20000000D02*
X91500000Y-20000000D01*
%TO.N,/MD_FIBER_RX*%
X100000000Y-21000000D02*
X94500000Y-21000000D01*
X124500000Y-35000000D02*
X114000000Y-35000000D01*
X114000000Y-35000000D02*
X100000000Y-21000000D01*
X127500000Y-32500000D02*
X127000000Y-32500000D01*
X127000000Y-32500000D02*
X124500000Y-35000000D01*
%TO.N,/FAULT*%
X101000000Y-19000000D02*
X90288999Y-19000000D01*
X115000000Y-33000000D02*
X101000000Y-19000000D01*
X127500000Y-30500000D02*
X127000000Y-30500000D01*
X127000000Y-30500000D02*
X125500000Y-32000000D01*
X90288999Y-19000000D02*
X88915000Y-20373999D01*
X123500000Y-32000000D02*
X122500000Y-33000000D01*
X125500000Y-32000000D02*
X123500000Y-32000000D01*
X122500000Y-33000000D02*
X115000000Y-33000000D01*
%TO.N,/MD_FIBER_SYNC*%
X127000000Y-29000000D02*
X114000000Y-29000000D01*
X114000000Y-29000000D02*
X113000000Y-28000000D01*
X111500000Y-28000000D02*
X101500000Y-18000000D01*
X113000000Y-28000000D02*
X111500000Y-28000000D01*
X101500000Y-18000000D02*
X93500000Y-18000000D01*
X127500000Y-29500000D02*
X127000000Y-29000000D01*
%TD*%
%TA.AperFunction,Conductor*%
%TO.N,/GND_A*%
G36*
X81783293Y-520185D02*
G01*
X81829048Y-572989D01*
X81838992Y-642147D01*
X81809967Y-705703D01*
X81789139Y-724818D01*
X81437160Y-980545D01*
X81437133Y-980566D01*
X81093562Y-1274003D01*
X81093536Y-1274027D01*
X80774027Y-1593536D01*
X80774003Y-1593562D01*
X80480566Y-1937133D01*
X80480545Y-1937160D01*
X80214946Y-2302726D01*
X80214938Y-2302737D01*
X79978850Y-2687997D01*
X79978847Y-2688002D01*
X79773692Y-3090642D01*
X79600765Y-3508123D01*
X79461135Y-3937865D01*
X79461128Y-3937888D01*
X79355642Y-4377272D01*
X79284955Y-4823570D01*
X79284953Y-4823589D01*
X79249500Y-5274056D01*
X79249500Y-5725943D01*
X79284953Y-6176410D01*
X79284955Y-6176429D01*
X79340873Y-6529481D01*
X79355643Y-6622733D01*
X79413525Y-6863829D01*
X79460887Y-7061109D01*
X79461131Y-7062123D01*
X79471553Y-7094199D01*
X79600765Y-7491876D01*
X79679356Y-7681610D01*
X79773693Y-7909360D01*
X79972989Y-8300500D01*
X79978847Y-8311997D01*
X79978850Y-8312002D01*
X80214938Y-8697262D01*
X80214943Y-8697269D01*
X80214945Y-8697272D01*
X80372456Y-8914067D01*
X80480545Y-9062839D01*
X80480566Y-9062866D01*
X80774003Y-9406437D01*
X80774013Y-9406448D01*
X80774020Y-9406456D01*
X81093544Y-9725980D01*
X81093552Y-9725987D01*
X81093562Y-9725996D01*
X81437133Y-10019433D01*
X81437147Y-10019444D01*
X81437153Y-10019449D01*
X81802728Y-10285055D01*
X81802732Y-10285057D01*
X81802737Y-10285061D01*
X82187997Y-10521149D01*
X82188002Y-10521152D01*
X82188007Y-10521154D01*
X82188016Y-10521160D01*
X82590640Y-10726307D01*
X83004294Y-10897648D01*
X83008123Y-10899234D01*
X83117395Y-10934738D01*
X83437877Y-11038869D01*
X83877267Y-11144357D01*
X84323580Y-11215046D01*
X84774062Y-11250500D01*
X84774070Y-11250500D01*
X85225930Y-11250500D01*
X85225938Y-11250500D01*
X85676420Y-11215046D01*
X86122733Y-11144357D01*
X86475905Y-11059568D01*
X101124500Y-11059568D01*
X101124500Y-11340431D01*
X101155942Y-11619494D01*
X101155945Y-11619512D01*
X101218439Y-11893317D01*
X101218443Y-11893329D01*
X101311200Y-12158411D01*
X101433053Y-12411442D01*
X101433055Y-12411445D01*
X101582477Y-12649248D01*
X101757584Y-12868825D01*
X101956175Y-13067416D01*
X102175752Y-13242523D01*
X102413555Y-13391945D01*
X102666592Y-13513801D01*
X102865680Y-13583465D01*
X102931670Y-13606556D01*
X102931682Y-13606560D01*
X103205491Y-13669055D01*
X103205497Y-13669055D01*
X103205505Y-13669057D01*
X103391547Y-13690018D01*
X103484569Y-13700499D01*
X103484572Y-13700500D01*
X103484575Y-13700500D01*
X103765428Y-13700500D01*
X103765429Y-13700499D01*
X103908055Y-13684429D01*
X104044494Y-13669057D01*
X104044499Y-13669056D01*
X104044509Y-13669055D01*
X104318318Y-13606560D01*
X104583408Y-13513801D01*
X104836445Y-13391945D01*
X105074248Y-13242523D01*
X105293825Y-13067416D01*
X105492416Y-12868825D01*
X105667523Y-12649248D01*
X105816945Y-12411445D01*
X105938801Y-12158408D01*
X106031560Y-11893318D01*
X106094055Y-11619509D01*
X106095191Y-11609432D01*
X106125499Y-11340431D01*
X106125500Y-11340427D01*
X106125500Y-11059572D01*
X106125499Y-11059570D01*
X106108271Y-10906660D01*
X106108271Y-10906659D01*
X106107256Y-10897648D01*
X117699500Y-10897648D01*
X117699500Y-11102351D01*
X117731522Y-11304534D01*
X117794781Y-11499223D01*
X117887715Y-11681613D01*
X118008028Y-11847213D01*
X118152786Y-11991971D01*
X118307749Y-12104556D01*
X118318390Y-12112287D01*
X118434607Y-12171503D01*
X118500776Y-12205218D01*
X118500778Y-12205218D01*
X118500781Y-12205220D01*
X118605137Y-12239127D01*
X118695465Y-12268477D01*
X118796557Y-12284488D01*
X118897648Y-12300500D01*
X118897649Y-12300500D01*
X119102351Y-12300500D01*
X119102352Y-12300500D01*
X119304534Y-12268477D01*
X119499219Y-12205220D01*
X119681610Y-12112287D01*
X119774590Y-12044732D01*
X119847213Y-11991971D01*
X119847215Y-11991968D01*
X119847219Y-11991966D01*
X119991966Y-11847219D01*
X119991968Y-11847215D01*
X119991971Y-11847213D01*
X120086824Y-11716657D01*
X120112287Y-11681610D01*
X120205220Y-11499219D01*
X120268477Y-11304534D01*
X120300500Y-11102352D01*
X120300500Y-10897648D01*
X120268477Y-10695466D01*
X120205220Y-10500781D01*
X120205218Y-10500778D01*
X120205218Y-10500776D01*
X120156529Y-10405220D01*
X120112287Y-10318390D01*
X120088068Y-10285055D01*
X119991971Y-10152786D01*
X119847213Y-10008028D01*
X119681613Y-9887715D01*
X119681612Y-9887714D01*
X119681610Y-9887713D01*
X119624653Y-9858691D01*
X119499223Y-9794781D01*
X119304534Y-9731522D01*
X119129995Y-9703878D01*
X119102352Y-9699500D01*
X118897648Y-9699500D01*
X118873329Y-9703351D01*
X118695465Y-9731522D01*
X118500776Y-9794781D01*
X118318386Y-9887715D01*
X118152786Y-10008028D01*
X118008028Y-10152786D01*
X117887715Y-10318386D01*
X117794781Y-10500776D01*
X117731522Y-10695465D01*
X117699500Y-10897648D01*
X106107256Y-10897648D01*
X106094057Y-10780505D01*
X106094054Y-10780487D01*
X106034864Y-10521160D01*
X106031560Y-10506682D01*
X106029493Y-10500776D01*
X105996057Y-10405220D01*
X105938801Y-10241592D01*
X105816945Y-9988555D01*
X105667523Y-9750752D01*
X105492416Y-9531175D01*
X105293825Y-9332584D01*
X105074248Y-9157477D01*
X104836445Y-9008055D01*
X104836442Y-9008053D01*
X104583411Y-8886200D01*
X104318329Y-8793443D01*
X104318317Y-8793439D01*
X104044512Y-8730945D01*
X104044494Y-8730942D01*
X103765431Y-8699500D01*
X103765425Y-8699500D01*
X103484575Y-8699500D01*
X103484568Y-8699500D01*
X103205505Y-8730942D01*
X103205487Y-8730945D01*
X102931682Y-8793439D01*
X102931670Y-8793443D01*
X102666588Y-8886200D01*
X102413557Y-9008053D01*
X102175753Y-9157476D01*
X101956175Y-9332583D01*
X101757583Y-9531175D01*
X101582476Y-9750753D01*
X101433053Y-9988557D01*
X101311200Y-10241588D01*
X101218443Y-10506670D01*
X101218439Y-10506682D01*
X101155945Y-10780487D01*
X101155942Y-10780505D01*
X101124500Y-11059568D01*
X86475905Y-11059568D01*
X86562123Y-11038869D01*
X86835129Y-10950164D01*
X86872059Y-10938165D01*
X86991876Y-10899234D01*
X86991876Y-10899233D01*
X86991882Y-10899232D01*
X87409360Y-10726307D01*
X87811984Y-10521160D01*
X87845240Y-10500781D01*
X88197262Y-10285061D01*
X88197260Y-10285061D01*
X88197272Y-10285055D01*
X88562847Y-10019449D01*
X88576213Y-10008034D01*
X88877450Y-9750753D01*
X88906456Y-9725980D01*
X89225980Y-9406456D01*
X89438628Y-9157477D01*
X89519433Y-9062866D01*
X89519435Y-9062863D01*
X89519449Y-9062847D01*
X89785055Y-8697272D01*
X90021160Y-8311984D01*
X90226307Y-7909360D01*
X90399232Y-7491882D01*
X90538869Y-7062123D01*
X90578356Y-6897648D01*
X111699500Y-6897648D01*
X111699500Y-7102351D01*
X111731522Y-7304534D01*
X111794781Y-7499223D01*
X111887715Y-7681613D01*
X112008028Y-7847213D01*
X112152786Y-7991971D01*
X112307749Y-8104556D01*
X112318390Y-8112287D01*
X112434607Y-8171503D01*
X112500776Y-8205218D01*
X112500778Y-8205218D01*
X112500781Y-8205220D01*
X112605137Y-8239127D01*
X112695465Y-8268477D01*
X112796557Y-8284488D01*
X112897648Y-8300500D01*
X112897649Y-8300500D01*
X113102351Y-8300500D01*
X113102352Y-8300500D01*
X113304534Y-8268477D01*
X113499219Y-8205220D01*
X113681610Y-8112287D01*
X113774590Y-8044732D01*
X113847213Y-7991971D01*
X113847215Y-7991968D01*
X113847219Y-7991966D01*
X113991966Y-7847219D01*
X113991968Y-7847215D01*
X113991971Y-7847213D01*
X114095051Y-7705333D01*
X114112287Y-7681610D01*
X114205220Y-7499219D01*
X114268477Y-7304534D01*
X114300500Y-7102352D01*
X114300500Y-6897648D01*
X114295144Y-6863829D01*
X114268477Y-6695465D01*
X114214809Y-6530293D01*
X114205220Y-6500781D01*
X114205218Y-6500778D01*
X114205218Y-6500776D01*
X114157960Y-6408028D01*
X114112287Y-6318390D01*
X114077507Y-6270519D01*
X113991971Y-6152786D01*
X113847213Y-6008028D01*
X113681613Y-5887715D01*
X113681612Y-5887714D01*
X113681610Y-5887713D01*
X113624653Y-5858691D01*
X113499223Y-5794781D01*
X113304534Y-5731522D01*
X113129995Y-5703878D01*
X113102352Y-5699500D01*
X112897648Y-5699500D01*
X112873329Y-5703351D01*
X112695465Y-5731522D01*
X112500776Y-5794781D01*
X112318386Y-5887715D01*
X112152786Y-6008028D01*
X112008028Y-6152786D01*
X111887715Y-6318386D01*
X111794781Y-6500776D01*
X111731522Y-6695465D01*
X111699500Y-6897648D01*
X90578356Y-6897648D01*
X90644357Y-6622733D01*
X90715046Y-6176420D01*
X90750500Y-5725938D01*
X90750500Y-5274062D01*
X90715046Y-4823580D01*
X90644357Y-4377267D01*
X90538869Y-3937877D01*
X90399232Y-3508118D01*
X90226307Y-3090640D01*
X90021160Y-2688016D01*
X90021154Y-2688007D01*
X90021152Y-2688002D01*
X90021149Y-2687997D01*
X89785061Y-2302737D01*
X89785057Y-2302732D01*
X89785055Y-2302728D01*
X89519449Y-1937153D01*
X89519444Y-1937147D01*
X89519433Y-1937133D01*
X89225996Y-1593562D01*
X89225987Y-1593552D01*
X89225980Y-1593544D01*
X88906456Y-1274020D01*
X88906448Y-1274013D01*
X88906437Y-1274003D01*
X88562866Y-980566D01*
X88562839Y-980545D01*
X88210861Y-724818D01*
X88168195Y-669488D01*
X88162216Y-599875D01*
X88194822Y-538080D01*
X88255660Y-503723D01*
X88283746Y-500500D01*
X142949138Y-500500D01*
X143016177Y-520185D01*
X143036819Y-536819D01*
X147963681Y-5463681D01*
X147997166Y-5525004D01*
X148000000Y-5551362D01*
X148000000Y-15943739D01*
X147980315Y-16010778D01*
X147943609Y-16047117D01*
X147943630Y-16047147D01*
X147943675Y-16047203D01*
X147943671Y-16047205D01*
X147943785Y-16047365D01*
X147942284Y-16048429D01*
X147941989Y-16048722D01*
X147940964Y-16049366D01*
X147940948Y-16049377D01*
X147731257Y-16216600D01*
X147541600Y-16406257D01*
X147421947Y-16556298D01*
X147364759Y-16596438D01*
X147294947Y-16599288D01*
X147234677Y-16563943D01*
X147228053Y-16556298D01*
X147108399Y-16406257D01*
X146918742Y-16216600D01*
X146709051Y-16049377D01*
X146709045Y-16049372D01*
X146481941Y-15906673D01*
X146481938Y-15906671D01*
X146240289Y-15790299D01*
X145987126Y-15701714D01*
X145987124Y-15701713D01*
X145785318Y-15655652D01*
X145725635Y-15642030D01*
X145725632Y-15642029D01*
X145725620Y-15642027D01*
X145459113Y-15612000D01*
X145459107Y-15612000D01*
X145190893Y-15612000D01*
X145190886Y-15612000D01*
X144924379Y-15642027D01*
X144924365Y-15642030D01*
X144662875Y-15701713D01*
X144662873Y-15701714D01*
X144409710Y-15790299D01*
X144168061Y-15906671D01*
X143940956Y-16049371D01*
X143731257Y-16216600D01*
X143541600Y-16406257D01*
X143374371Y-16615956D01*
X143231671Y-16843061D01*
X143115299Y-17084710D01*
X143026714Y-17337873D01*
X143026713Y-17337875D01*
X142967030Y-17599365D01*
X142967027Y-17599379D01*
X142937000Y-17865886D01*
X142937000Y-18134113D01*
X142967027Y-18400620D01*
X142967029Y-18400632D01*
X142967030Y-18400635D01*
X142980652Y-18460318D01*
X143026713Y-18662124D01*
X143026714Y-18662126D01*
X143115299Y-18915289D01*
X143231671Y-19156938D01*
X143374370Y-19384042D01*
X143395619Y-19410688D01*
X143422027Y-19475375D01*
X143409270Y-19544070D01*
X143361399Y-19594964D01*
X143298671Y-19612000D01*
X143190886Y-19612000D01*
X142924379Y-19642027D01*
X142924365Y-19642030D01*
X142662875Y-19701713D01*
X142662873Y-19701714D01*
X142409710Y-19790299D01*
X142168061Y-19906671D01*
X141940956Y-20049371D01*
X141731257Y-20216600D01*
X141541600Y-20406257D01*
X141374371Y-20615956D01*
X141231671Y-20843061D01*
X141115299Y-21084710D01*
X141026714Y-21337873D01*
X141026713Y-21337875D01*
X140967030Y-21599365D01*
X140967027Y-21599379D01*
X140937000Y-21865886D01*
X140937000Y-22134113D01*
X140967027Y-22400620D01*
X140967030Y-22400634D01*
X141026713Y-22662124D01*
X141026714Y-22662126D01*
X141115299Y-22915289D01*
X141231671Y-23156938D01*
X141374370Y-23384042D01*
X141395619Y-23410688D01*
X141422027Y-23475375D01*
X141409270Y-23544070D01*
X141361399Y-23594964D01*
X141298671Y-23612000D01*
X141190886Y-23612000D01*
X140924379Y-23642027D01*
X140924365Y-23642030D01*
X140662875Y-23701713D01*
X140662873Y-23701714D01*
X140409710Y-23790299D01*
X140168061Y-23906671D01*
X139940956Y-24049371D01*
X139731257Y-24216600D01*
X139541600Y-24406257D01*
X139421947Y-24556298D01*
X139364759Y-24596438D01*
X139294947Y-24599288D01*
X139234677Y-24563943D01*
X139228053Y-24556298D01*
X139108399Y-24406257D01*
X138918742Y-24216600D01*
X138800332Y-24122171D01*
X138709045Y-24049372D01*
X138481941Y-23906673D01*
X138481938Y-23906671D01*
X138240289Y-23790299D01*
X137987126Y-23701714D01*
X137987124Y-23701713D01*
X137754906Y-23648711D01*
X137725635Y-23642030D01*
X137725632Y-23642029D01*
X137725620Y-23642027D01*
X137459113Y-23612000D01*
X137459107Y-23612000D01*
X137351329Y-23612000D01*
X137284290Y-23592315D01*
X137238535Y-23539511D01*
X137228591Y-23470353D01*
X137254381Y-23410688D01*
X137256356Y-23408211D01*
X137275628Y-23384045D01*
X137418327Y-23156941D01*
X137534701Y-22915288D01*
X137623286Y-22662125D01*
X137682970Y-22400635D01*
X137689238Y-22345009D01*
X137700469Y-22245324D01*
X137713000Y-22134107D01*
X137713000Y-21865893D01*
X137694548Y-21702127D01*
X137682972Y-21599379D01*
X137682971Y-21599374D01*
X137682970Y-21599365D01*
X137623286Y-21337875D01*
X137534701Y-21084712D01*
X137418327Y-20843059D01*
X137275628Y-20615955D01*
X137254381Y-20589312D01*
X137227973Y-20524625D01*
X137240730Y-20455930D01*
X137288601Y-20405036D01*
X137351329Y-20388000D01*
X137459110Y-20388000D01*
X137459111Y-20387999D01*
X137595317Y-20372652D01*
X137725620Y-20357972D01*
X137725623Y-20357971D01*
X137725635Y-20357970D01*
X137987125Y-20298286D01*
X138240288Y-20209701D01*
X138481941Y-20093327D01*
X138709045Y-19950628D01*
X138918743Y-19783399D01*
X139108399Y-19593743D01*
X139275628Y-19384045D01*
X139418327Y-19156941D01*
X139534701Y-18915288D01*
X139623286Y-18662125D01*
X139682970Y-18400635D01*
X139684105Y-18390568D01*
X139712165Y-18141515D01*
X139713000Y-18134107D01*
X139713000Y-17865893D01*
X139689789Y-17659884D01*
X139682972Y-17599379D01*
X139682971Y-17599374D01*
X139682970Y-17599365D01*
X139623286Y-17337875D01*
X139534701Y-17084712D01*
X139418327Y-16843059D01*
X139275628Y-16615955D01*
X139108399Y-16406257D01*
X138918743Y-16216601D01*
X138709045Y-16049372D01*
X138481941Y-15906673D01*
X138481938Y-15906671D01*
X138240289Y-15790299D01*
X137987126Y-15701714D01*
X137987124Y-15701713D01*
X137785318Y-15655652D01*
X137725635Y-15642030D01*
X137725632Y-15642029D01*
X137725620Y-15642027D01*
X137459113Y-15612000D01*
X137459107Y-15612000D01*
X137190893Y-15612000D01*
X137190886Y-15612000D01*
X136924379Y-15642027D01*
X136924365Y-15642030D01*
X136662875Y-15701713D01*
X136662873Y-15701714D01*
X136409710Y-15790299D01*
X136168061Y-15906671D01*
X135940956Y-16049371D01*
X135731257Y-16216600D01*
X135541600Y-16406257D01*
X135421947Y-16556298D01*
X135364759Y-16596438D01*
X135294947Y-16599288D01*
X135234677Y-16563943D01*
X135228053Y-16556298D01*
X135108399Y-16406257D01*
X134918742Y-16216600D01*
X134709051Y-16049377D01*
X134709045Y-16049372D01*
X134481941Y-15906673D01*
X134481938Y-15906671D01*
X134240289Y-15790299D01*
X133987126Y-15701714D01*
X133987124Y-15701713D01*
X133785318Y-15655652D01*
X133725635Y-15642030D01*
X133725632Y-15642029D01*
X133725620Y-15642027D01*
X133459113Y-15612000D01*
X133459107Y-15612000D01*
X133190893Y-15612000D01*
X133190886Y-15612000D01*
X132924379Y-15642027D01*
X132924365Y-15642030D01*
X132662875Y-15701713D01*
X132662873Y-15701714D01*
X132409710Y-15790299D01*
X132168061Y-15906671D01*
X131940956Y-16049371D01*
X131731257Y-16216600D01*
X131541600Y-16406257D01*
X131421947Y-16556298D01*
X131364759Y-16596438D01*
X131294947Y-16599288D01*
X131234677Y-16563943D01*
X131228053Y-16556298D01*
X131108399Y-16406257D01*
X130918742Y-16216600D01*
X130709051Y-16049377D01*
X130709045Y-16049372D01*
X130481941Y-15906673D01*
X130481938Y-15906671D01*
X130240289Y-15790299D01*
X129987126Y-15701714D01*
X129987124Y-15701713D01*
X129785318Y-15655652D01*
X129725635Y-15642030D01*
X129725632Y-15642029D01*
X129725620Y-15642027D01*
X129459113Y-15612000D01*
X129459107Y-15612000D01*
X129190893Y-15612000D01*
X129190886Y-15612000D01*
X128924379Y-15642027D01*
X128924365Y-15642030D01*
X128662875Y-15701713D01*
X128662873Y-15701714D01*
X128409710Y-15790299D01*
X128168061Y-15906671D01*
X127940956Y-16049371D01*
X127731257Y-16216600D01*
X127541600Y-16406257D01*
X127421947Y-16556298D01*
X127364759Y-16596438D01*
X127294947Y-16599288D01*
X127234677Y-16563943D01*
X127228053Y-16556298D01*
X127108399Y-16406257D01*
X126918742Y-16216600D01*
X126709051Y-16049377D01*
X126709045Y-16049372D01*
X126481941Y-15906673D01*
X126481938Y-15906671D01*
X126240289Y-15790299D01*
X125987126Y-15701714D01*
X125987124Y-15701713D01*
X125785318Y-15655652D01*
X125725635Y-15642030D01*
X125725632Y-15642029D01*
X125725620Y-15642027D01*
X125459113Y-15612000D01*
X125459107Y-15612000D01*
X125190893Y-15612000D01*
X125190886Y-15612000D01*
X124924379Y-15642027D01*
X124924365Y-15642030D01*
X124662875Y-15701713D01*
X124662873Y-15701714D01*
X124409710Y-15790299D01*
X124168061Y-15906671D01*
X123940956Y-16049371D01*
X123731257Y-16216600D01*
X123541600Y-16406257D01*
X123421947Y-16556298D01*
X123364759Y-16596438D01*
X123294947Y-16599288D01*
X123234677Y-16563943D01*
X123228053Y-16556298D01*
X123108399Y-16406257D01*
X122918742Y-16216600D01*
X122709051Y-16049377D01*
X122709045Y-16049372D01*
X122481941Y-15906673D01*
X122481938Y-15906671D01*
X122240289Y-15790299D01*
X121987126Y-15701714D01*
X121987124Y-15701713D01*
X121785318Y-15655652D01*
X121725635Y-15642030D01*
X121725632Y-15642029D01*
X121725620Y-15642027D01*
X121459113Y-15612000D01*
X121459107Y-15612000D01*
X121190893Y-15612000D01*
X121190886Y-15612000D01*
X120924379Y-15642027D01*
X120924365Y-15642030D01*
X120662875Y-15701713D01*
X120662873Y-15701714D01*
X120409710Y-15790299D01*
X120168061Y-15906671D01*
X119940956Y-16049371D01*
X119731257Y-16216600D01*
X119541600Y-16406257D01*
X119421947Y-16556298D01*
X119364759Y-16596438D01*
X119294947Y-16599288D01*
X119234677Y-16563943D01*
X119228053Y-16556298D01*
X119108399Y-16406257D01*
X118918742Y-16216600D01*
X118709051Y-16049377D01*
X118709045Y-16049372D01*
X118481941Y-15906673D01*
X118481938Y-15906671D01*
X118240289Y-15790299D01*
X117987126Y-15701714D01*
X117987124Y-15701713D01*
X117785318Y-15655652D01*
X117725635Y-15642030D01*
X117725632Y-15642029D01*
X117725620Y-15642027D01*
X117459113Y-15612000D01*
X117459107Y-15612000D01*
X117190893Y-15612000D01*
X117190886Y-15612000D01*
X116924379Y-15642027D01*
X116924365Y-15642030D01*
X116662875Y-15701713D01*
X116662873Y-15701714D01*
X116409710Y-15790299D01*
X116168061Y-15906671D01*
X115940956Y-16049371D01*
X115731257Y-16216600D01*
X115541600Y-16406257D01*
X115421947Y-16556298D01*
X115364759Y-16596438D01*
X115294947Y-16599288D01*
X115234677Y-16563943D01*
X115228053Y-16556298D01*
X115108399Y-16406257D01*
X114918742Y-16216600D01*
X114709051Y-16049377D01*
X114709045Y-16049372D01*
X114481941Y-15906673D01*
X114481938Y-15906671D01*
X114240289Y-15790299D01*
X113987126Y-15701714D01*
X113987124Y-15701713D01*
X113785318Y-15655652D01*
X113725635Y-15642030D01*
X113725632Y-15642029D01*
X113725620Y-15642027D01*
X113459113Y-15612000D01*
X113459107Y-15612000D01*
X113190893Y-15612000D01*
X113190886Y-15612000D01*
X112924379Y-15642027D01*
X112924365Y-15642030D01*
X112662875Y-15701713D01*
X112662873Y-15701714D01*
X112409710Y-15790299D01*
X112168061Y-15906671D01*
X111940956Y-16049371D01*
X111731257Y-16216600D01*
X111541600Y-16406257D01*
X111374371Y-16615956D01*
X111231671Y-16843061D01*
X111115299Y-17084710D01*
X111026714Y-17337873D01*
X111026713Y-17337875D01*
X110967030Y-17599365D01*
X110967027Y-17599379D01*
X110937000Y-17865886D01*
X110937000Y-18134113D01*
X110967027Y-18400620D01*
X110967029Y-18400632D01*
X110967030Y-18400635D01*
X110980652Y-18460318D01*
X111026713Y-18662124D01*
X111026714Y-18662126D01*
X111115299Y-18915289D01*
X111231671Y-19156938D01*
X111231673Y-19156941D01*
X111374372Y-19384045D01*
X111541601Y-19593743D01*
X111731257Y-19783399D01*
X111940955Y-19950628D01*
X112168059Y-20093327D01*
X112409712Y-20209701D01*
X112662875Y-20298286D01*
X112924365Y-20357970D01*
X112924374Y-20357971D01*
X112924379Y-20357972D01*
X113077341Y-20375206D01*
X113190887Y-20387999D01*
X113190890Y-20388000D01*
X113298671Y-20388000D01*
X113365710Y-20407685D01*
X113411465Y-20460489D01*
X113421409Y-20529647D01*
X113395619Y-20589312D01*
X113374370Y-20615957D01*
X113231671Y-20843061D01*
X113115299Y-21084710D01*
X113026714Y-21337873D01*
X113026713Y-21337875D01*
X112967030Y-21599365D01*
X112967027Y-21599379D01*
X112937000Y-21865886D01*
X112937000Y-22134113D01*
X112967027Y-22400620D01*
X112967030Y-22400634D01*
X113026713Y-22662124D01*
X113026714Y-22662126D01*
X113115299Y-22915289D01*
X113231671Y-23156938D01*
X113374370Y-23384042D01*
X113395619Y-23410688D01*
X113422027Y-23475375D01*
X113409270Y-23544070D01*
X113361399Y-23594964D01*
X113298671Y-23612000D01*
X113190886Y-23612000D01*
X112924379Y-23642027D01*
X112924365Y-23642030D01*
X112662875Y-23701713D01*
X112662873Y-23701714D01*
X112409710Y-23790299D01*
X112168061Y-23906671D01*
X111940956Y-24049371D01*
X111731257Y-24216600D01*
X111541600Y-24406257D01*
X111374371Y-24615956D01*
X111231671Y-24843061D01*
X111115299Y-25084710D01*
X111026714Y-25337873D01*
X111026713Y-25337875D01*
X110992041Y-25489785D01*
X110967229Y-25598496D01*
X110966256Y-25602757D01*
X110965260Y-25602529D01*
X110936491Y-25661446D01*
X110876756Y-25697688D01*
X110806909Y-25695882D01*
X110757227Y-25665529D01*
X102233212Y-17141515D01*
X102233213Y-17141515D01*
X102205385Y-17121298D01*
X102193432Y-17112614D01*
X102089890Y-17037386D01*
X101932042Y-16956957D01*
X101932036Y-16956955D01*
X101868873Y-16936433D01*
X101868872Y-16936433D01*
X101763557Y-16902214D01*
X101671995Y-16887712D01*
X101588579Y-16874500D01*
X101588578Y-16874500D01*
X94185448Y-16874500D01*
X94129153Y-16860985D01*
X93999223Y-16794781D01*
X93804534Y-16731522D01*
X93629995Y-16703878D01*
X93602352Y-16699500D01*
X93397648Y-16699500D01*
X93373329Y-16703351D01*
X93195465Y-16731522D01*
X93000776Y-16794781D01*
X92818391Y-16887712D01*
X92818387Y-16887714D01*
X92811197Y-16892938D01*
X92745389Y-16916411D01*
X92677337Y-16900580D01*
X92628646Y-16850470D01*
X92627875Y-16848983D01*
X92612287Y-16818390D01*
X92612285Y-16818387D01*
X92612284Y-16818385D01*
X92491971Y-16652786D01*
X92347213Y-16508028D01*
X92181613Y-16387715D01*
X92181612Y-16387714D01*
X92181610Y-16387713D01*
X92124653Y-16358691D01*
X91999223Y-16294781D01*
X91804534Y-16231522D01*
X91629995Y-16203878D01*
X91602352Y-16199500D01*
X91397648Y-16199500D01*
X91373329Y-16203351D01*
X91195465Y-16231522D01*
X91000776Y-16294781D01*
X90818386Y-16387715D01*
X90652786Y-16508028D01*
X90508028Y-16652786D01*
X90387715Y-16818386D01*
X90294781Y-17000776D01*
X90231522Y-17195465D01*
X90199500Y-17397648D01*
X90199500Y-17602351D01*
X90222174Y-17745509D01*
X90213219Y-17814803D01*
X90168223Y-17868255D01*
X90119099Y-17887380D01*
X90025441Y-17902214D01*
X89856959Y-17956956D01*
X89856956Y-17956957D01*
X89699108Y-18037386D01*
X89646378Y-18075697D01*
X89593648Y-18114008D01*
X89593647Y-18114009D01*
X89555788Y-18141513D01*
X89555786Y-18141515D01*
X89201044Y-18496256D01*
X89139721Y-18529741D01*
X89097180Y-18531514D01*
X89036291Y-18523499D01*
X89036288Y-18523499D01*
X88793712Y-18523499D01*
X88793711Y-18523499D01*
X88553214Y-18555160D01*
X88318895Y-18617946D01*
X88094794Y-18710772D01*
X88094785Y-18710776D01*
X87884706Y-18832066D01*
X87692263Y-18979732D01*
X87692256Y-18979738D01*
X87520739Y-19151255D01*
X87520733Y-19151262D01*
X87373067Y-19343705D01*
X87373064Y-19343709D01*
X87373064Y-19343710D01*
X87371406Y-19346582D01*
X87251777Y-19553784D01*
X87251773Y-19553793D01*
X87158947Y-19777894D01*
X87096161Y-20012213D01*
X87064500Y-20252710D01*
X87064500Y-20495287D01*
X87096161Y-20735784D01*
X87158947Y-20970103D01*
X87206419Y-21084710D01*
X87251776Y-21194211D01*
X87373064Y-21404288D01*
X87373066Y-21404291D01*
X87373067Y-21404292D01*
X87499077Y-21568513D01*
X87524271Y-21633682D01*
X87510232Y-21702127D01*
X87499077Y-21719485D01*
X87373067Y-21883705D01*
X87251777Y-22093784D01*
X87251773Y-22093793D01*
X87158947Y-22317894D01*
X87096161Y-22552213D01*
X87064500Y-22792710D01*
X87064500Y-23035287D01*
X87096161Y-23275784D01*
X87158947Y-23510103D01*
X87213592Y-23642027D01*
X87251776Y-23734211D01*
X87373064Y-23944288D01*
X87373066Y-23944291D01*
X87373067Y-23944292D01*
X87520733Y-24136735D01*
X87520739Y-24136742D01*
X87692256Y-24308259D01*
X87692263Y-24308265D01*
X87767641Y-24366104D01*
X87884711Y-24455935D01*
X88094788Y-24577223D01*
X88318900Y-24670053D01*
X88553211Y-24732837D01*
X88731935Y-24756366D01*
X88793711Y-24764499D01*
X88793712Y-24764499D01*
X89036289Y-24764499D01*
X89098065Y-24756366D01*
X89276789Y-24732837D01*
X89511100Y-24670053D01*
X89735212Y-24577223D01*
X89945289Y-24455935D01*
X90137738Y-24308264D01*
X90309265Y-24136737D01*
X90456936Y-23944288D01*
X90578224Y-23734211D01*
X90671054Y-23510099D01*
X90733838Y-23275788D01*
X90765500Y-23035287D01*
X90765500Y-22792711D01*
X90733838Y-22552210D01*
X90671054Y-22317899D01*
X90578224Y-22093787D01*
X90456936Y-21883710D01*
X90330922Y-21719485D01*
X90305728Y-21654316D01*
X90319766Y-21585871D01*
X90330922Y-21568513D01*
X90384093Y-21499219D01*
X90456936Y-21404288D01*
X90578224Y-21194211D01*
X90599670Y-21142432D01*
X90643510Y-21088029D01*
X90709804Y-21065963D01*
X90777503Y-21083241D01*
X90787118Y-21089567D01*
X90818385Y-21112284D01*
X90818387Y-21112285D01*
X90818390Y-21112287D01*
X90870847Y-21139015D01*
X91000776Y-21205218D01*
X91000778Y-21205218D01*
X91000781Y-21205220D01*
X91077360Y-21230102D01*
X91195465Y-21268477D01*
X91281016Y-21282027D01*
X91397648Y-21300500D01*
X91397649Y-21300500D01*
X91602351Y-21300500D01*
X91602352Y-21300500D01*
X91804534Y-21268477D01*
X91999219Y-21205220D01*
X92129153Y-21139014D01*
X92185448Y-21125500D01*
X93097261Y-21125500D01*
X93164300Y-21145185D01*
X93210055Y-21197989D01*
X93219734Y-21230102D01*
X93231522Y-21304530D01*
X93231522Y-21304531D01*
X93231523Y-21304534D01*
X93263936Y-21404292D01*
X93294782Y-21499224D01*
X93319406Y-21547552D01*
X93332302Y-21616221D01*
X93306025Y-21680961D01*
X93248919Y-21721218D01*
X93228320Y-21726319D01*
X93195464Y-21731523D01*
X93000776Y-21794781D01*
X92818386Y-21887715D01*
X92652786Y-22008028D01*
X92508028Y-22152786D01*
X92387715Y-22318386D01*
X92294781Y-22500776D01*
X92231522Y-22695465D01*
X92199500Y-22897648D01*
X92199500Y-23102351D01*
X92231522Y-23304534D01*
X92294781Y-23499223D01*
X92352245Y-23612000D01*
X92367544Y-23642027D01*
X92387715Y-23681613D01*
X92508028Y-23847213D01*
X92652786Y-23991971D01*
X92807749Y-24104556D01*
X92818390Y-24112287D01*
X93000781Y-24205220D01*
X93162591Y-24257795D01*
X93220267Y-24297232D01*
X93242204Y-24337407D01*
X93294781Y-24499223D01*
X93358691Y-24624653D01*
X93381824Y-24670053D01*
X93387715Y-24681613D01*
X93508028Y-24847213D01*
X93652786Y-24991971D01*
X93790338Y-25091906D01*
X93818390Y-25112287D01*
X93934607Y-25171503D01*
X94000776Y-25205218D01*
X94000778Y-25205218D01*
X94000781Y-25205220D01*
X94105137Y-25239127D01*
X94195465Y-25268477D01*
X94296557Y-25284488D01*
X94397648Y-25300500D01*
X94397649Y-25300500D01*
X94602351Y-25300500D01*
X94602352Y-25300500D01*
X94804534Y-25268477D01*
X94999219Y-25205220D01*
X95181610Y-25112287D01*
X95309067Y-25019685D01*
X95347213Y-24991971D01*
X95347215Y-24991968D01*
X95347219Y-24991966D01*
X95491966Y-24847219D01*
X95491968Y-24847215D01*
X95491971Y-24847213D01*
X95566949Y-24744013D01*
X95612287Y-24681610D01*
X95705220Y-24499219D01*
X95768477Y-24304534D01*
X95800500Y-24102352D01*
X95800500Y-23897648D01*
X95769467Y-23701714D01*
X95768477Y-23695465D01*
X95708249Y-23510103D01*
X95705220Y-23500781D01*
X95705218Y-23500778D01*
X95705218Y-23500776D01*
X95659315Y-23410688D01*
X95612287Y-23318390D01*
X95558519Y-23244384D01*
X95491971Y-23152786D01*
X95347213Y-23008028D01*
X95181613Y-22887715D01*
X95181612Y-22887714D01*
X95181610Y-22887713D01*
X95124653Y-22858691D01*
X94999223Y-22794781D01*
X94837407Y-22742204D01*
X94835047Y-22740590D01*
X94832197Y-22740382D01*
X94806378Y-22720986D01*
X94779732Y-22702766D01*
X94777924Y-22699611D01*
X94776334Y-22698417D01*
X94767899Y-22682116D01*
X94759472Y-22667411D01*
X94758582Y-22665013D01*
X94705220Y-22500781D01*
X94677329Y-22446042D01*
X94674824Y-22439291D01*
X94672871Y-22411330D01*
X94667697Y-22383779D01*
X94670469Y-22376947D01*
X94669956Y-22369591D01*
X94683432Y-22345009D01*
X94693973Y-22319039D01*
X94699999Y-22314790D01*
X94703544Y-22308325D01*
X94728165Y-22294934D01*
X94751079Y-22278781D01*
X94763541Y-22275694D01*
X94764924Y-22274943D01*
X94766200Y-22275036D01*
X94771667Y-22273682D01*
X94804534Y-22268477D01*
X94999219Y-22205220D01*
X95129153Y-22139014D01*
X95185448Y-22125500D01*
X99482441Y-22125500D01*
X99549480Y-22145185D01*
X99570121Y-22161818D01*
X106485253Y-29076951D01*
X113266785Y-35858483D01*
X113410110Y-35962614D01*
X113567957Y-36043042D01*
X113567960Y-36043043D01*
X113652201Y-36070414D01*
X113736444Y-36097786D01*
X113823933Y-36111643D01*
X113911421Y-36125500D01*
X113911422Y-36125500D01*
X124588578Y-36125500D01*
X124588579Y-36125500D01*
X124763556Y-36097786D01*
X124932042Y-36043042D01*
X124943142Y-36037386D01*
X125089890Y-35962614D01*
X125233214Y-35858483D01*
X125358483Y-35733214D01*
X125417042Y-35674655D01*
X125417055Y-35674640D01*
X127261077Y-33830618D01*
X127322398Y-33797135D01*
X127368152Y-33795828D01*
X127397648Y-33800500D01*
X127397650Y-33800500D01*
X127602351Y-33800500D01*
X127602352Y-33800500D01*
X127804534Y-33768477D01*
X127999219Y-33705220D01*
X128047550Y-33680593D01*
X128116219Y-33667697D01*
X128180960Y-33693972D01*
X128221217Y-33751078D01*
X128226319Y-33771679D01*
X128231523Y-33804535D01*
X128294781Y-33999223D01*
X128299271Y-34008034D01*
X128373026Y-34152786D01*
X128387715Y-34181613D01*
X128508028Y-34347213D01*
X128652786Y-34491971D01*
X128768439Y-34575996D01*
X128818390Y-34612287D01*
X128918077Y-34663080D01*
X129000776Y-34705218D01*
X129000778Y-34705218D01*
X129000781Y-34705220D01*
X129105137Y-34739127D01*
X129195465Y-34768477D01*
X129223050Y-34772846D01*
X129397648Y-34800500D01*
X129397649Y-34800500D01*
X129602351Y-34800500D01*
X129602352Y-34800500D01*
X129804534Y-34768477D01*
X129999219Y-34705220D01*
X130129153Y-34639014D01*
X130185448Y-34625500D01*
X131597419Y-34625500D01*
X131664458Y-34645185D01*
X131710213Y-34697989D01*
X131720157Y-34767147D01*
X131719892Y-34768898D01*
X131699500Y-34897648D01*
X131699500Y-35102351D01*
X131731522Y-35304534D01*
X131794781Y-35499223D01*
X131852391Y-35612287D01*
X131884169Y-35674655D01*
X131887715Y-35681613D01*
X132008028Y-35847213D01*
X132152786Y-35991971D01*
X132298431Y-36097786D01*
X132318390Y-36112287D01*
X132419531Y-36163821D01*
X132500776Y-36205218D01*
X132500778Y-36205218D01*
X132500781Y-36205220D01*
X132588501Y-36233722D01*
X132695465Y-36268477D01*
X132744207Y-36276197D01*
X132897648Y-36300500D01*
X132897649Y-36300500D01*
X133102351Y-36300500D01*
X133102352Y-36300500D01*
X133304534Y-36268477D01*
X133499219Y-36205220D01*
X133681610Y-36112287D01*
X133784706Y-36037384D01*
X133847213Y-35991971D01*
X133847215Y-35991968D01*
X133847219Y-35991966D01*
X133991966Y-35847219D01*
X133991968Y-35847215D01*
X133991971Y-35847213D01*
X134115151Y-35677669D01*
X134116823Y-35678884D01*
X134162208Y-35637831D01*
X134216115Y-35625500D01*
X144482441Y-35625500D01*
X144549480Y-35645185D01*
X144570122Y-35661819D01*
X146141517Y-37233214D01*
X146266786Y-37358483D01*
X146350769Y-37419500D01*
X146410111Y-37462615D01*
X146481951Y-37499219D01*
X146556855Y-37537384D01*
X146556857Y-37537386D01*
X146562853Y-37540441D01*
X146567958Y-37543042D01*
X146736444Y-37597786D01*
X146911421Y-37625500D01*
X147088578Y-37625500D01*
X156579498Y-37625500D01*
X156646537Y-37645185D01*
X156692292Y-37697989D01*
X156702236Y-37767147D01*
X156685226Y-37814289D01*
X156682714Y-37818387D01*
X156589781Y-38000776D01*
X156526522Y-38195465D01*
X156504141Y-38336776D01*
X156494500Y-38397648D01*
X156494500Y-38602352D01*
X156495596Y-38609271D01*
X156526522Y-38804534D01*
X156589781Y-38999223D01*
X156682712Y-39181608D01*
X156713551Y-39224056D01*
X156713743Y-39224596D01*
X156714194Y-39224950D01*
X156725453Y-39257417D01*
X156737029Y-39289862D01*
X156736962Y-39290602D01*
X156737087Y-39290963D01*
X156736601Y-39294592D01*
X156733754Y-39326099D01*
X156732633Y-39330728D01*
X156697214Y-39439743D01*
X156680853Y-39543042D01*
X156680072Y-39547967D01*
X156680072Y-39547971D01*
X156669500Y-39614720D01*
X156669500Y-40565500D01*
X156649815Y-40632539D01*
X156597011Y-40678294D01*
X156545500Y-40689500D01*
X156498711Y-40689500D01*
X156258214Y-40721161D01*
X156023896Y-40783947D01*
X155979800Y-40802212D01*
X155910331Y-40809680D01*
X155847852Y-40778404D01*
X155812200Y-40718314D01*
X155814695Y-40648489D01*
X155817789Y-40640196D01*
X155836051Y-40596108D01*
X155836051Y-40596105D01*
X155836054Y-40596100D01*
X155898838Y-40361789D01*
X155930500Y-40121288D01*
X155930500Y-39878712D01*
X155898838Y-39638211D01*
X155836054Y-39403900D01*
X155835105Y-39401610D01*
X155789274Y-39290963D01*
X155743224Y-39179788D01*
X155621936Y-38969711D01*
X155504730Y-38816965D01*
X155474266Y-38777263D01*
X155474260Y-38777256D01*
X155302743Y-38605739D01*
X155302736Y-38605733D01*
X155110293Y-38458067D01*
X155110292Y-38458066D01*
X155110289Y-38458064D01*
X154900212Y-38336776D01*
X154894167Y-38334272D01*
X154676104Y-38243947D01*
X154441785Y-38181161D01*
X154201289Y-38149500D01*
X154201288Y-38149500D01*
X153958712Y-38149500D01*
X153958711Y-38149500D01*
X153718214Y-38181161D01*
X153483895Y-38243947D01*
X153259794Y-38336773D01*
X153259785Y-38336777D01*
X153049706Y-38458067D01*
X152885486Y-38584077D01*
X152820317Y-38609271D01*
X152751872Y-38595232D01*
X152734514Y-38584077D01*
X152570293Y-38458067D01*
X152570292Y-38458066D01*
X152570289Y-38458064D01*
X152360212Y-38336776D01*
X152354167Y-38334272D01*
X152136104Y-38243947D01*
X151901785Y-38181161D01*
X151661289Y-38149500D01*
X151661288Y-38149500D01*
X151418712Y-38149500D01*
X151418711Y-38149500D01*
X151178214Y-38181161D01*
X150943895Y-38243947D01*
X150719794Y-38336773D01*
X150719785Y-38336777D01*
X150509706Y-38458067D01*
X150317263Y-38605733D01*
X150317256Y-38605739D01*
X150145739Y-38777256D01*
X150145733Y-38777263D01*
X149998067Y-38969706D01*
X149876777Y-39179785D01*
X149876773Y-39179794D01*
X149783947Y-39403895D01*
X149721161Y-39638214D01*
X149689500Y-39878711D01*
X149689500Y-40121288D01*
X149718123Y-40338712D01*
X149721162Y-40361789D01*
X149770310Y-40545212D01*
X149783948Y-40596107D01*
X149802211Y-40640198D01*
X149809680Y-40709667D01*
X149778404Y-40772146D01*
X149718315Y-40807798D01*
X149648490Y-40805304D01*
X149640198Y-40802211D01*
X149596107Y-40783948D01*
X149489151Y-40755289D01*
X149361789Y-40721162D01*
X149361788Y-40721161D01*
X149361785Y-40721161D01*
X149121289Y-40689500D01*
X149121288Y-40689500D01*
X148878712Y-40689500D01*
X148878711Y-40689500D01*
X148638214Y-40721161D01*
X148403895Y-40783947D01*
X148179794Y-40876773D01*
X148179785Y-40876777D01*
X148018179Y-40970081D01*
X147980265Y-40991971D01*
X147969706Y-40998067D01*
X147777263Y-41145733D01*
X147777256Y-41145739D01*
X147605739Y-41317256D01*
X147605733Y-41317263D01*
X147458067Y-41509706D01*
X147336777Y-41719785D01*
X147336773Y-41719794D01*
X147243947Y-41943895D01*
X147181161Y-42178214D01*
X147149500Y-42418711D01*
X147149500Y-42661288D01*
X147180616Y-42897648D01*
X147181162Y-42901789D01*
X147206999Y-42998214D01*
X147243947Y-43136104D01*
X147336773Y-43360205D01*
X147336777Y-43360214D01*
X147358974Y-43398661D01*
X147458064Y-43570289D01*
X147458066Y-43570292D01*
X147458067Y-43570293D01*
X147605733Y-43762736D01*
X147605739Y-43762743D01*
X147777256Y-43934260D01*
X147777263Y-43934266D01*
X147852466Y-43991971D01*
X147969711Y-44081936D01*
X148179788Y-44203224D01*
X148227650Y-44223049D01*
X148319124Y-44260939D01*
X148373527Y-44304780D01*
X148395592Y-44371074D01*
X148378313Y-44438773D01*
X148327176Y-44486384D01*
X148271671Y-44499500D01*
X114376425Y-44499500D01*
X114309386Y-44479815D01*
X114263631Y-44427011D01*
X114253687Y-44357853D01*
X114282712Y-44294297D01*
X114338106Y-44257569D01*
X114374669Y-44245688D01*
X114499219Y-44205220D01*
X114681610Y-44112287D01*
X114794466Y-44030293D01*
X114847213Y-43991971D01*
X114847215Y-43991968D01*
X114847219Y-43991966D01*
X114991966Y-43847219D01*
X114991968Y-43847215D01*
X114991971Y-43847213D01*
X115053341Y-43762743D01*
X115112287Y-43681610D01*
X115205220Y-43499219D01*
X115268477Y-43304534D01*
X115300500Y-43102352D01*
X115300500Y-42897648D01*
X115268763Y-42697272D01*
X115268477Y-42695465D01*
X115205218Y-42500776D01*
X115112287Y-42318390D01*
X115059447Y-42245661D01*
X115059446Y-42245658D01*
X115010034Y-42177648D01*
X128739500Y-42177648D01*
X128739500Y-42382352D01*
X128742912Y-42403895D01*
X128771522Y-42584534D01*
X128834781Y-42779223D01*
X128927715Y-42961613D01*
X129048028Y-43127213D01*
X129192786Y-43271971D01*
X129323000Y-43366575D01*
X129358390Y-43392287D01*
X129450099Y-43439015D01*
X129540776Y-43485218D01*
X129540778Y-43485218D01*
X129540781Y-43485220D01*
X129602698Y-43505338D01*
X129735465Y-43548477D01*
X129836557Y-43564488D01*
X129937648Y-43580500D01*
X129937649Y-43580500D01*
X130142351Y-43580500D01*
X130142352Y-43580500D01*
X130344534Y-43548477D01*
X130539219Y-43485220D01*
X130721610Y-43392287D01*
X130837563Y-43308043D01*
X130887213Y-43271971D01*
X130887215Y-43271968D01*
X130887219Y-43271966D01*
X131031966Y-43127219D01*
X131031968Y-43127215D01*
X131031971Y-43127213D01*
X131084732Y-43054590D01*
X131152287Y-42961610D01*
X131245220Y-42779219D01*
X131308477Y-42584534D01*
X131340500Y-42382352D01*
X131340500Y-42177648D01*
X131323532Y-42070519D01*
X131308477Y-41975465D01*
X131266805Y-41847213D01*
X131245220Y-41780781D01*
X131245218Y-41780778D01*
X131245218Y-41780776D01*
X131203805Y-41699500D01*
X131152287Y-41598390D01*
X131127036Y-41563635D01*
X131031971Y-41432786D01*
X130887213Y-41288028D01*
X130721613Y-41167715D01*
X130721612Y-41167714D01*
X130721610Y-41167713D01*
X130664653Y-41138691D01*
X130539223Y-41074781D01*
X130344535Y-41011523D01*
X130240214Y-40995000D01*
X130142352Y-40979500D01*
X129937648Y-40979500D01*
X129919080Y-40982441D01*
X129735465Y-41011522D01*
X129540776Y-41074781D01*
X129358386Y-41167715D01*
X129192786Y-41288028D01*
X129048028Y-41432786D01*
X128927715Y-41598386D01*
X128834781Y-41780776D01*
X128771522Y-41975465D01*
X128739500Y-42177648D01*
X115010034Y-42177648D01*
X114991971Y-42152787D01*
X114991967Y-42152782D01*
X114847213Y-42008028D01*
X114681613Y-41887715D01*
X114681612Y-41887714D01*
X114681610Y-41887713D01*
X114622822Y-41857759D01*
X114499223Y-41794781D01*
X114304534Y-41731522D01*
X114129995Y-41703878D01*
X114102352Y-41699500D01*
X113897648Y-41699500D01*
X113873329Y-41703351D01*
X113695465Y-41731522D01*
X113500776Y-41794781D01*
X113318386Y-41887715D01*
X113152786Y-42008028D01*
X113008028Y-42152786D01*
X112887715Y-42318386D01*
X112794781Y-42500776D01*
X112731522Y-42695465D01*
X112699500Y-42897648D01*
X112699500Y-43102351D01*
X112731522Y-43304534D01*
X112794781Y-43499223D01*
X112844143Y-43596100D01*
X112887362Y-43680922D01*
X112887715Y-43681613D01*
X113008028Y-43847213D01*
X113152786Y-43991971D01*
X113276615Y-44081936D01*
X113318390Y-44112287D01*
X113434607Y-44171503D01*
X113500776Y-44205218D01*
X113500778Y-44205218D01*
X113500781Y-44205220D01*
X113604881Y-44239044D01*
X113661894Y-44257569D01*
X113719569Y-44297007D01*
X113746767Y-44361366D01*
X113734852Y-44430212D01*
X113687608Y-44481688D01*
X113623575Y-44499500D01*
X106376425Y-44499500D01*
X106309386Y-44479815D01*
X106263631Y-44427011D01*
X106253687Y-44357853D01*
X106282712Y-44294297D01*
X106338106Y-44257569D01*
X106374669Y-44245688D01*
X106499219Y-44205220D01*
X106681610Y-44112287D01*
X106794466Y-44030293D01*
X106847213Y-43991971D01*
X106847215Y-43991968D01*
X106847219Y-43991966D01*
X106991966Y-43847219D01*
X106991968Y-43847215D01*
X106991971Y-43847213D01*
X107053341Y-43762743D01*
X107112287Y-43681610D01*
X107205220Y-43499219D01*
X107268477Y-43304534D01*
X107300500Y-43102352D01*
X107300500Y-42897648D01*
X107268763Y-42697272D01*
X107268477Y-42695465D01*
X107205218Y-42500776D01*
X107163403Y-42418711D01*
X107112287Y-42318390D01*
X107098737Y-42299740D01*
X106991971Y-42152786D01*
X106847213Y-42008028D01*
X106681613Y-41887715D01*
X106681612Y-41887714D01*
X106681610Y-41887713D01*
X106622822Y-41857759D01*
X106499223Y-41794781D01*
X106304534Y-41731522D01*
X106129995Y-41703878D01*
X106102352Y-41699500D01*
X105897648Y-41699500D01*
X105873329Y-41703351D01*
X105695465Y-41731522D01*
X105500776Y-41794781D01*
X105318386Y-41887715D01*
X105152786Y-42008028D01*
X105008028Y-42152786D01*
X104887715Y-42318386D01*
X104794781Y-42500776D01*
X104731522Y-42695465D01*
X104699500Y-42897648D01*
X104699500Y-43102351D01*
X104731522Y-43304534D01*
X104794781Y-43499223D01*
X104844143Y-43596100D01*
X104887362Y-43680922D01*
X104887715Y-43681613D01*
X105008028Y-43847213D01*
X105152786Y-43991971D01*
X105276615Y-44081936D01*
X105318390Y-44112287D01*
X105434607Y-44171503D01*
X105500776Y-44205218D01*
X105500778Y-44205218D01*
X105500781Y-44205220D01*
X105604881Y-44239044D01*
X105661894Y-44257569D01*
X105719569Y-44297007D01*
X105746767Y-44361366D01*
X105734852Y-44430212D01*
X105687608Y-44481688D01*
X105623575Y-44499500D01*
X98376425Y-44499500D01*
X98309386Y-44479815D01*
X98263631Y-44427011D01*
X98253687Y-44357853D01*
X98282712Y-44294297D01*
X98338106Y-44257569D01*
X98374669Y-44245688D01*
X98499219Y-44205220D01*
X98681610Y-44112287D01*
X98794466Y-44030293D01*
X98847213Y-43991971D01*
X98847215Y-43991968D01*
X98847219Y-43991966D01*
X98991966Y-43847219D01*
X98991968Y-43847215D01*
X98991971Y-43847213D01*
X99053341Y-43762743D01*
X99112287Y-43681610D01*
X99205220Y-43499219D01*
X99268477Y-43304534D01*
X99300500Y-43102352D01*
X99300500Y-42897648D01*
X99268763Y-42697272D01*
X99268477Y-42695465D01*
X99205218Y-42500776D01*
X99163403Y-42418711D01*
X99112287Y-42318390D01*
X99098737Y-42299740D01*
X98991971Y-42152786D01*
X98847213Y-42008028D01*
X98681613Y-41887715D01*
X98681612Y-41887714D01*
X98681610Y-41887713D01*
X98622822Y-41857759D01*
X98499223Y-41794781D01*
X98304534Y-41731522D01*
X98129995Y-41703878D01*
X98102352Y-41699500D01*
X97897648Y-41699500D01*
X97873329Y-41703351D01*
X97695465Y-41731522D01*
X97500776Y-41794781D01*
X97318386Y-41887715D01*
X97152786Y-42008028D01*
X97008028Y-42152786D01*
X96887715Y-42318386D01*
X96794781Y-42500776D01*
X96731522Y-42695465D01*
X96699500Y-42897648D01*
X96699500Y-43102351D01*
X96731522Y-43304534D01*
X96794781Y-43499223D01*
X96844143Y-43596100D01*
X96887362Y-43680922D01*
X96887715Y-43681613D01*
X97008028Y-43847213D01*
X97152786Y-43991971D01*
X97276615Y-44081936D01*
X97318390Y-44112287D01*
X97434607Y-44171503D01*
X97500776Y-44205218D01*
X97500778Y-44205218D01*
X97500781Y-44205220D01*
X97604881Y-44239044D01*
X97661894Y-44257569D01*
X97719569Y-44297007D01*
X97746767Y-44361366D01*
X97734852Y-44430212D01*
X97687608Y-44481688D01*
X97623575Y-44499500D01*
X88283746Y-44499500D01*
X88216707Y-44479815D01*
X88170952Y-44427011D01*
X88161008Y-44357853D01*
X88190033Y-44294297D01*
X88210861Y-44275182D01*
X88283044Y-44222738D01*
X88562847Y-44019449D01*
X88657463Y-43938640D01*
X88906437Y-43725996D01*
X88906456Y-43725980D01*
X89225980Y-43406456D01*
X89464470Y-43127219D01*
X89519433Y-43062866D01*
X89519435Y-43062863D01*
X89519449Y-43062847D01*
X89785055Y-42697272D01*
X90021160Y-42311984D01*
X90226307Y-41909360D01*
X90399232Y-41491882D01*
X90400951Y-41486593D01*
X90408685Y-41462788D01*
X90538869Y-41062123D01*
X90644357Y-40622733D01*
X90715046Y-40176420D01*
X90736986Y-39897648D01*
X116699500Y-39897648D01*
X116699500Y-40102351D01*
X116731522Y-40304534D01*
X116794781Y-40499223D01*
X116836596Y-40581288D01*
X116886023Y-40678294D01*
X116887715Y-40681613D01*
X117008028Y-40847213D01*
X117152786Y-40991971D01*
X117305857Y-41103181D01*
X117318390Y-41112287D01*
X117434607Y-41171503D01*
X117500776Y-41205218D01*
X117500778Y-41205218D01*
X117500781Y-41205220D01*
X117562852Y-41225388D01*
X117695465Y-41268477D01*
X117796557Y-41284488D01*
X117897648Y-41300500D01*
X117897649Y-41300500D01*
X118102351Y-41300500D01*
X118102352Y-41300500D01*
X118304534Y-41268477D01*
X118461683Y-41217415D01*
X118531522Y-41215421D01*
X118538292Y-41217408D01*
X118651531Y-41254201D01*
X118695465Y-41268477D01*
X118796557Y-41284488D01*
X118897648Y-41300500D01*
X118897649Y-41300500D01*
X119102351Y-41300500D01*
X119102352Y-41300500D01*
X119304534Y-41268477D01*
X119461683Y-41217415D01*
X119531522Y-41215421D01*
X119538292Y-41217408D01*
X119651531Y-41254201D01*
X119695465Y-41268477D01*
X119796557Y-41284488D01*
X119897648Y-41300500D01*
X119897649Y-41300500D01*
X120102351Y-41300500D01*
X120102352Y-41300500D01*
X120304534Y-41268477D01*
X120499219Y-41205220D01*
X120681610Y-41112287D01*
X120820301Y-41011523D01*
X120847213Y-40991971D01*
X120847215Y-40991968D01*
X120847219Y-40991966D01*
X120941537Y-40897648D01*
X131699500Y-40897648D01*
X131699500Y-41102351D01*
X131731522Y-41304534D01*
X131794781Y-41499223D01*
X131845308Y-41598386D01*
X131882751Y-41671872D01*
X131887715Y-41681613D01*
X132008028Y-41847213D01*
X132152786Y-41991971D01*
X132290416Y-42091963D01*
X132318390Y-42112287D01*
X132397864Y-42152781D01*
X132500776Y-42205218D01*
X132500778Y-42205218D01*
X132500781Y-42205220D01*
X132586938Y-42233214D01*
X132695465Y-42268477D01*
X132741423Y-42275756D01*
X132897648Y-42300500D01*
X132897649Y-42300500D01*
X133102351Y-42300500D01*
X133102352Y-42300500D01*
X133304534Y-42268477D01*
X133499219Y-42205220D01*
X133681610Y-42112287D01*
X133774590Y-42044732D01*
X133847213Y-41991971D01*
X133847215Y-41991968D01*
X133847219Y-41991966D01*
X133991966Y-41847219D01*
X133991968Y-41847215D01*
X133991971Y-41847213D01*
X134077130Y-41730000D01*
X134112287Y-41681610D01*
X134205220Y-41499219D01*
X134268477Y-41304534D01*
X134300500Y-41102352D01*
X134300500Y-40897648D01*
X134277952Y-40755289D01*
X134268477Y-40695465D01*
X134219657Y-40545214D01*
X134205220Y-40500781D01*
X134205218Y-40500778D01*
X134205218Y-40500776D01*
X134150289Y-40392973D01*
X134112287Y-40318390D01*
X134098388Y-40299260D01*
X133991971Y-40152786D01*
X133847213Y-40008028D01*
X133826657Y-39993094D01*
X133695285Y-39897648D01*
X136699500Y-39897648D01*
X136699500Y-40102351D01*
X136731522Y-40304534D01*
X136794781Y-40499223D01*
X136836596Y-40581288D01*
X136886023Y-40678294D01*
X136887715Y-40681613D01*
X137008028Y-40847213D01*
X137152786Y-40991971D01*
X137305857Y-41103181D01*
X137318390Y-41112287D01*
X137434607Y-41171503D01*
X137500776Y-41205218D01*
X137500778Y-41205218D01*
X137500781Y-41205220D01*
X137562852Y-41225388D01*
X137695465Y-41268477D01*
X137796557Y-41284488D01*
X137897648Y-41300500D01*
X137897649Y-41300500D01*
X138102351Y-41300500D01*
X138102352Y-41300500D01*
X138304534Y-41268477D01*
X138499219Y-41205220D01*
X138681610Y-41112287D01*
X138820301Y-41011523D01*
X138847213Y-40991971D01*
X138847215Y-40991968D01*
X138847219Y-40991966D01*
X138991966Y-40847219D01*
X138991968Y-40847215D01*
X138991971Y-40847213D01*
X139046509Y-40772146D01*
X139112287Y-40681610D01*
X139205220Y-40499219D01*
X139268477Y-40304534D01*
X139300500Y-40102352D01*
X139300500Y-39897648D01*
X139273304Y-39725943D01*
X139268477Y-39695465D01*
X139205218Y-39500776D01*
X139169005Y-39429706D01*
X139112287Y-39318390D01*
X139092098Y-39290602D01*
X138991971Y-39152786D01*
X138847213Y-39008028D01*
X138681613Y-38887715D01*
X138681612Y-38887714D01*
X138681610Y-38887713D01*
X138624653Y-38858691D01*
X138499223Y-38794781D01*
X138304534Y-38731522D01*
X138129995Y-38703878D01*
X138102352Y-38699500D01*
X137897648Y-38699500D01*
X137873329Y-38703351D01*
X137695465Y-38731522D01*
X137500776Y-38794781D01*
X137318386Y-38887715D01*
X137152786Y-39008028D01*
X137008028Y-39152786D01*
X136887715Y-39318386D01*
X136794781Y-39500776D01*
X136731522Y-39695465D01*
X136699500Y-39897648D01*
X133695285Y-39897648D01*
X133681613Y-39887715D01*
X133681612Y-39887714D01*
X133681610Y-39887713D01*
X133572825Y-39832284D01*
X133499223Y-39794781D01*
X133304534Y-39731522D01*
X133129995Y-39703878D01*
X133102352Y-39699500D01*
X132897648Y-39699500D01*
X132873329Y-39703351D01*
X132695465Y-39731522D01*
X132500776Y-39794781D01*
X132318386Y-39887715D01*
X132152786Y-40008028D01*
X132008028Y-40152786D01*
X131887715Y-40318386D01*
X131794781Y-40500776D01*
X131731522Y-40695465D01*
X131699500Y-40897648D01*
X120941537Y-40897648D01*
X120991966Y-40847219D01*
X120991968Y-40847215D01*
X120991971Y-40847213D01*
X121046509Y-40772146D01*
X121112287Y-40681610D01*
X121205220Y-40499219D01*
X121268477Y-40304534D01*
X121300500Y-40102352D01*
X121300500Y-39897648D01*
X121273304Y-39725943D01*
X121268477Y-39695465D01*
X121205218Y-39500776D01*
X121169005Y-39429706D01*
X121112287Y-39318390D01*
X121092098Y-39290602D01*
X120991971Y-39152786D01*
X120847213Y-39008028D01*
X120681613Y-38887715D01*
X120681612Y-38887714D01*
X120681610Y-38887713D01*
X120624653Y-38858691D01*
X120499223Y-38794781D01*
X120304535Y-38731523D01*
X120203443Y-38715511D01*
X120102352Y-38699500D01*
X119897648Y-38699500D01*
X119830254Y-38710174D01*
X119695464Y-38731523D01*
X119695461Y-38731523D01*
X119538318Y-38782583D01*
X119468477Y-38784578D01*
X119461682Y-38782583D01*
X119304536Y-38731523D01*
X119169746Y-38710174D01*
X119102352Y-38699500D01*
X118897648Y-38699500D01*
X118830254Y-38710174D01*
X118695464Y-38731523D01*
X118695461Y-38731523D01*
X118538318Y-38782583D01*
X118468477Y-38784578D01*
X118461682Y-38782583D01*
X118304536Y-38731523D01*
X118169746Y-38710174D01*
X118102352Y-38699500D01*
X117897648Y-38699500D01*
X117873329Y-38703351D01*
X117695465Y-38731522D01*
X117500776Y-38794781D01*
X117318386Y-38887715D01*
X117152786Y-39008028D01*
X117008028Y-39152786D01*
X116887715Y-39318386D01*
X116794781Y-39500776D01*
X116731522Y-39695465D01*
X116699500Y-39897648D01*
X90736986Y-39897648D01*
X90750500Y-39725938D01*
X90750500Y-39274062D01*
X90715046Y-38823580D01*
X90682430Y-38617648D01*
X128739500Y-38617648D01*
X128739500Y-38822352D01*
X128739696Y-38823589D01*
X128771522Y-39024534D01*
X128834781Y-39219223D01*
X128927715Y-39401613D01*
X129048028Y-39567213D01*
X129192786Y-39711971D01*
X129306767Y-39794781D01*
X129358390Y-39832287D01*
X129474607Y-39891503D01*
X129540776Y-39925218D01*
X129540778Y-39925218D01*
X129540781Y-39925220D01*
X129645137Y-39959127D01*
X129735465Y-39988477D01*
X129836557Y-40004488D01*
X129937648Y-40020500D01*
X129937649Y-40020500D01*
X130142351Y-40020500D01*
X130142352Y-40020500D01*
X130344534Y-39988477D01*
X130539219Y-39925220D01*
X130721610Y-39832287D01*
X130860301Y-39731523D01*
X130887213Y-39711971D01*
X130887215Y-39711968D01*
X130887219Y-39711966D01*
X131031966Y-39567219D01*
X131031968Y-39567215D01*
X131031971Y-39567213D01*
X131084732Y-39494590D01*
X131152287Y-39401610D01*
X131245220Y-39219219D01*
X131308477Y-39024534D01*
X131340500Y-38822352D01*
X131340500Y-38617648D01*
X131322175Y-38501951D01*
X131308477Y-38415465D01*
X131258616Y-38262010D01*
X131245220Y-38220781D01*
X131245218Y-38220778D01*
X131245218Y-38220776D01*
X131189939Y-38112287D01*
X131152287Y-38038390D01*
X131124959Y-38000776D01*
X131031971Y-37872786D01*
X130887213Y-37728028D01*
X130721613Y-37607715D01*
X130721612Y-37607714D01*
X130721610Y-37607713D01*
X130664653Y-37578691D01*
X130539223Y-37514781D01*
X130344534Y-37451522D01*
X130169995Y-37423878D01*
X130142352Y-37419500D01*
X129937648Y-37419500D01*
X129913329Y-37423351D01*
X129735465Y-37451522D01*
X129540776Y-37514781D01*
X129358386Y-37607715D01*
X129192786Y-37728028D01*
X129048028Y-37872786D01*
X128927715Y-38038386D01*
X128834781Y-38220776D01*
X128771522Y-38415465D01*
X128739500Y-38617648D01*
X90682430Y-38617648D01*
X90644357Y-38377267D01*
X90538869Y-37937877D01*
X90426021Y-37590566D01*
X90399234Y-37508123D01*
X90398078Y-37505331D01*
X90226307Y-37090640D01*
X90021160Y-36688016D01*
X90021154Y-36688007D01*
X90021152Y-36688002D01*
X90021149Y-36687997D01*
X89785061Y-36302737D01*
X89785057Y-36302732D01*
X89785055Y-36302728D01*
X89519449Y-35937153D01*
X89519444Y-35937147D01*
X89519433Y-35937133D01*
X89225996Y-35593562D01*
X89225987Y-35593552D01*
X89225980Y-35593544D01*
X88906456Y-35274020D01*
X88906448Y-35274013D01*
X88906437Y-35274003D01*
X88562866Y-34980566D01*
X88562839Y-34980545D01*
X88376708Y-34845313D01*
X88197272Y-34714945D01*
X88197269Y-34714943D01*
X88197262Y-34714938D01*
X87812002Y-34478850D01*
X87811997Y-34478847D01*
X87811987Y-34478842D01*
X87811984Y-34478840D01*
X87409360Y-34273693D01*
X87275605Y-34218290D01*
X86991876Y-34100765D01*
X86679346Y-33999219D01*
X86562123Y-33961131D01*
X86122733Y-33855643D01*
X86122727Y-33855642D01*
X85676429Y-33784955D01*
X85676420Y-33784954D01*
X85676418Y-33784953D01*
X85676410Y-33784953D01*
X85225943Y-33749500D01*
X85225938Y-33749500D01*
X84774062Y-33749500D01*
X84774056Y-33749500D01*
X84323589Y-33784953D01*
X84323570Y-33784955D01*
X83877272Y-33855642D01*
X83877269Y-33855642D01*
X83877267Y-33855643D01*
X83767865Y-33881908D01*
X83437888Y-33961128D01*
X83437882Y-33961129D01*
X83437877Y-33961131D01*
X83437865Y-33961135D01*
X83008123Y-34100765D01*
X82590642Y-34273692D01*
X82188002Y-34478847D01*
X82187997Y-34478850D01*
X81802737Y-34714938D01*
X81802726Y-34714946D01*
X81437160Y-34980545D01*
X81437133Y-34980566D01*
X81093562Y-35274003D01*
X81093536Y-35274027D01*
X80774027Y-35593536D01*
X80774003Y-35593562D01*
X80480566Y-35937133D01*
X80480545Y-35937160D01*
X80214946Y-36302726D01*
X80214938Y-36302737D01*
X79978850Y-36687997D01*
X79978847Y-36688002D01*
X79773692Y-37090642D01*
X79600765Y-37508123D01*
X79461135Y-37937865D01*
X79461128Y-37937888D01*
X79411207Y-38145824D01*
X79365966Y-38334271D01*
X79355642Y-38377272D01*
X79284955Y-38823570D01*
X79284953Y-38823589D01*
X79249500Y-39274056D01*
X79249500Y-39725943D01*
X79284953Y-40176410D01*
X79284955Y-40176429D01*
X79332950Y-40479453D01*
X79355643Y-40622733D01*
X79461131Y-41062123D01*
X79495439Y-41167713D01*
X79600765Y-41491876D01*
X79703673Y-41740317D01*
X79773693Y-41909360D01*
X79972989Y-42300500D01*
X79978847Y-42311997D01*
X79978850Y-42312002D01*
X80214938Y-42697262D01*
X80214946Y-42697273D01*
X80480545Y-43062839D01*
X80480566Y-43062866D01*
X80774003Y-43406437D01*
X80774013Y-43406448D01*
X80774020Y-43406456D01*
X81093544Y-43725980D01*
X81093552Y-43725987D01*
X81093562Y-43725996D01*
X81437133Y-44019433D01*
X81437147Y-44019444D01*
X81437153Y-44019449D01*
X81569356Y-44115500D01*
X81789139Y-44275182D01*
X81831805Y-44330512D01*
X81837784Y-44400125D01*
X81805178Y-44461920D01*
X81744340Y-44496277D01*
X81716254Y-44499500D01*
X60456866Y-44499500D01*
X60389827Y-44479815D01*
X60344072Y-44427011D01*
X60334128Y-44357853D01*
X60363153Y-44294297D01*
X60369185Y-44287819D01*
X60434260Y-44222743D01*
X60434265Y-44222738D01*
X60581936Y-44030289D01*
X60703224Y-43820212D01*
X60796054Y-43596100D01*
X60858838Y-43361789D01*
X60890500Y-43121288D01*
X60890500Y-42878712D01*
X60858838Y-42638211D01*
X60796054Y-42403900D01*
X60703224Y-42179788D01*
X60581936Y-41969711D01*
X60455922Y-41805486D01*
X60430728Y-41740317D01*
X60444766Y-41671872D01*
X60455922Y-41654514D01*
X60457099Y-41652979D01*
X60581936Y-41490289D01*
X60703224Y-41280212D01*
X60796054Y-41056100D01*
X60858838Y-40821789D01*
X60890500Y-40581288D01*
X60890500Y-40338712D01*
X60888737Y-40325324D01*
X60858838Y-40098214D01*
X60858838Y-40098211D01*
X60796054Y-39863900D01*
X60703224Y-39639788D01*
X60581936Y-39429711D01*
X60462498Y-39274056D01*
X60434266Y-39237263D01*
X60434260Y-39237256D01*
X60262743Y-39065739D01*
X60262736Y-39065733D01*
X60070293Y-38918067D01*
X60070292Y-38918066D01*
X60070289Y-38918064D01*
X59860212Y-38796776D01*
X59855393Y-38794780D01*
X59636104Y-38703947D01*
X59401785Y-38641161D01*
X59161289Y-38609500D01*
X59161288Y-38609500D01*
X58918712Y-38609500D01*
X58918711Y-38609500D01*
X58678214Y-38641161D01*
X58443895Y-38703947D01*
X58219794Y-38796773D01*
X58219785Y-38796777D01*
X58009706Y-38918067D01*
X57845486Y-39044077D01*
X57780317Y-39069271D01*
X57711872Y-39055232D01*
X57694514Y-39044077D01*
X57530293Y-38918067D01*
X57530292Y-38918066D01*
X57530289Y-38918064D01*
X57320212Y-38796776D01*
X57315393Y-38794780D01*
X57096104Y-38703947D01*
X56861785Y-38641161D01*
X56621289Y-38609500D01*
X56621288Y-38609500D01*
X56378712Y-38609500D01*
X56378711Y-38609500D01*
X56138214Y-38641161D01*
X55903895Y-38703947D01*
X55679794Y-38796773D01*
X55679785Y-38796777D01*
X55469706Y-38918067D01*
X55305486Y-39044077D01*
X55240317Y-39069271D01*
X55171872Y-39055232D01*
X55154514Y-39044077D01*
X54990293Y-38918067D01*
X54990292Y-38918066D01*
X54990289Y-38918064D01*
X54780212Y-38796776D01*
X54775393Y-38794780D01*
X54556104Y-38703947D01*
X54321785Y-38641161D01*
X54081289Y-38609500D01*
X54081288Y-38609500D01*
X53838712Y-38609500D01*
X53838711Y-38609500D01*
X53598214Y-38641161D01*
X53363895Y-38703947D01*
X53139794Y-38796773D01*
X53139785Y-38796777D01*
X52929706Y-38918067D01*
X52737263Y-39065733D01*
X52737256Y-39065739D01*
X52565739Y-39237256D01*
X52565733Y-39237263D01*
X52418067Y-39429706D01*
X52296777Y-39639785D01*
X52296773Y-39639794D01*
X52203947Y-39863895D01*
X52141161Y-40098214D01*
X52109500Y-40338711D01*
X52109500Y-40581288D01*
X52141161Y-40821785D01*
X52203947Y-41056104D01*
X52296773Y-41280205D01*
X52296777Y-41280215D01*
X52349976Y-41372358D01*
X52366449Y-41440259D01*
X52343596Y-41506285D01*
X52338692Y-41512718D01*
X52270303Y-41596591D01*
X52176089Y-41776954D01*
X52138205Y-41909357D01*
X52120936Y-41969711D01*
X52120114Y-41972583D01*
X52120113Y-41972586D01*
X52116962Y-42008034D01*
X52110096Y-42085266D01*
X52109500Y-42091966D01*
X52109500Y-43908028D01*
X52109501Y-43908034D01*
X52120113Y-44027415D01*
X52176089Y-44223045D01*
X52176090Y-44223048D01*
X52176091Y-44223049D01*
X52225736Y-44318090D01*
X52239327Y-44386623D01*
X52213708Y-44451627D01*
X52157013Y-44492460D01*
X52115827Y-44499500D01*
X8783746Y-44499500D01*
X8716707Y-44479815D01*
X8670952Y-44427011D01*
X8661008Y-44357853D01*
X8690033Y-44294297D01*
X8710861Y-44275182D01*
X8783044Y-44222738D01*
X9062847Y-44019449D01*
X9157463Y-43938640D01*
X9406437Y-43725996D01*
X9406456Y-43725980D01*
X9725980Y-43406456D01*
X9964470Y-43127219D01*
X10019433Y-43062866D01*
X10019435Y-43062863D01*
X10019449Y-43062847D01*
X10285055Y-42697272D01*
X10521160Y-42311984D01*
X10726307Y-41909360D01*
X10899232Y-41491882D01*
X10900951Y-41486593D01*
X10908685Y-41462788D01*
X11038869Y-41062123D01*
X11144357Y-40622733D01*
X11215046Y-40176420D01*
X11250500Y-39725938D01*
X11250500Y-39274062D01*
X11215046Y-38823580D01*
X11144357Y-38377267D01*
X11038869Y-37937877D01*
X10926021Y-37590566D01*
X10899234Y-37508123D01*
X10898078Y-37505331D01*
X10726307Y-37090640D01*
X10521160Y-36688016D01*
X10521154Y-36688007D01*
X10521152Y-36688002D01*
X10521149Y-36687997D01*
X10285061Y-36302737D01*
X10285057Y-36302732D01*
X10285055Y-36302728D01*
X10019449Y-35937153D01*
X10019444Y-35937147D01*
X10019433Y-35937133D01*
X9725996Y-35593562D01*
X9725987Y-35593552D01*
X9725980Y-35593544D01*
X9406456Y-35274020D01*
X9406448Y-35274013D01*
X9406437Y-35274003D01*
X9062866Y-34980566D01*
X9062839Y-34980545D01*
X8876708Y-34845313D01*
X8697272Y-34714945D01*
X8697269Y-34714943D01*
X8697262Y-34714938D01*
X8312002Y-34478850D01*
X8311997Y-34478847D01*
X8311987Y-34478842D01*
X8311984Y-34478840D01*
X7909360Y-34273693D01*
X7775605Y-34218290D01*
X7491876Y-34100765D01*
X7179346Y-33999219D01*
X7062123Y-33961131D01*
X6622733Y-33855643D01*
X6622727Y-33855642D01*
X6176429Y-33784955D01*
X6176420Y-33784954D01*
X6176418Y-33784953D01*
X6176410Y-33784953D01*
X5725943Y-33749500D01*
X5725938Y-33749500D01*
X5274062Y-33749500D01*
X5274056Y-33749500D01*
X4823589Y-33784953D01*
X4823570Y-33784955D01*
X4377272Y-33855642D01*
X4377269Y-33855642D01*
X4377267Y-33855643D01*
X4267865Y-33881908D01*
X3937888Y-33961128D01*
X3937882Y-33961129D01*
X3937877Y-33961131D01*
X3937865Y-33961135D01*
X3508123Y-34100765D01*
X3090642Y-34273692D01*
X2688002Y-34478847D01*
X2687997Y-34478850D01*
X2302737Y-34714938D01*
X2302726Y-34714946D01*
X1937160Y-34980545D01*
X1937133Y-34980566D01*
X1593562Y-35274003D01*
X1593536Y-35274027D01*
X1274027Y-35593536D01*
X1274003Y-35593562D01*
X980566Y-35937133D01*
X980545Y-35937160D01*
X724818Y-36289139D01*
X669488Y-36331805D01*
X599875Y-36337784D01*
X538080Y-36305178D01*
X503723Y-36244340D01*
X500500Y-36216254D01*
X500500Y-29159568D01*
X99624500Y-29159568D01*
X99624500Y-29440431D01*
X99655942Y-29719494D01*
X99655945Y-29719512D01*
X99718439Y-29993317D01*
X99718443Y-29993329D01*
X99811200Y-30258411D01*
X99933053Y-30511442D01*
X99933055Y-30511445D01*
X100082477Y-30749248D01*
X100178745Y-30869964D01*
X100248119Y-30956957D01*
X100257584Y-30968825D01*
X100456175Y-31167416D01*
X100675752Y-31342523D01*
X100763483Y-31397648D01*
X100913557Y-31491946D01*
X100941366Y-31505338D01*
X101166592Y-31613801D01*
X101278005Y-31652786D01*
X101431670Y-31706556D01*
X101431682Y-31706560D01*
X101705491Y-31769055D01*
X101705497Y-31769055D01*
X101705505Y-31769057D01*
X101888677Y-31789695D01*
X101984569Y-31800499D01*
X101984572Y-31800500D01*
X101984575Y-31800500D01*
X102265428Y-31800500D01*
X102265429Y-31800499D01*
X102408055Y-31784429D01*
X102544494Y-31769057D01*
X102544499Y-31769056D01*
X102544509Y-31769055D01*
X102818318Y-31706560D01*
X103083408Y-31613801D01*
X103336445Y-31491945D01*
X103574248Y-31342523D01*
X103793825Y-31167416D01*
X103992416Y-30968825D01*
X104167523Y-30749248D01*
X104316945Y-30511445D01*
X104438801Y-30258408D01*
X104531560Y-29993318D01*
X104594055Y-29719509D01*
X104599610Y-29670212D01*
X104618875Y-29499223D01*
X104625500Y-29440425D01*
X104625500Y-29159575D01*
X104607432Y-28999219D01*
X104594057Y-28880505D01*
X104594054Y-28880487D01*
X104579879Y-28818384D01*
X104531560Y-28606682D01*
X104438801Y-28341592D01*
X104316945Y-28088555D01*
X104167523Y-27850752D01*
X103992416Y-27631175D01*
X103793825Y-27432584D01*
X103574248Y-27257477D01*
X103371708Y-27130212D01*
X103336442Y-27108053D01*
X103083411Y-26986200D01*
X102818329Y-26893443D01*
X102818317Y-26893439D01*
X102544512Y-26830945D01*
X102544494Y-26830942D01*
X102265431Y-26799500D01*
X102265425Y-26799500D01*
X101984575Y-26799500D01*
X101984568Y-26799500D01*
X101705505Y-26830942D01*
X101705487Y-26830945D01*
X101431682Y-26893439D01*
X101431670Y-26893443D01*
X101166588Y-26986200D01*
X100913557Y-27108053D01*
X100675753Y-27257476D01*
X100456175Y-27432583D01*
X100257583Y-27631175D01*
X100082476Y-27850753D01*
X99933053Y-28088557D01*
X99811200Y-28341588D01*
X99718443Y-28606670D01*
X99718439Y-28606682D01*
X99655945Y-28880487D01*
X99655942Y-28880505D01*
X99624500Y-29159568D01*
X500500Y-29159568D01*
X500500Y-19465965D01*
X79444500Y-19465965D01*
X79444500Y-21282027D01*
X79444501Y-21282033D01*
X79455113Y-21401414D01*
X79511089Y-21597044D01*
X79511090Y-21597047D01*
X79511091Y-21597048D01*
X79601162Y-21769481D01*
X79605305Y-21777411D01*
X79673691Y-21861280D01*
X79700800Y-21925676D01*
X79688790Y-21994506D01*
X79684977Y-22001639D01*
X79631775Y-22093788D01*
X79631773Y-22093793D01*
X79538947Y-22317894D01*
X79476161Y-22552213D01*
X79444500Y-22792710D01*
X79444500Y-23035287D01*
X79476161Y-23275784D01*
X79538947Y-23510103D01*
X79593592Y-23642027D01*
X79631776Y-23734211D01*
X79753064Y-23944288D01*
X79753066Y-23944291D01*
X79753067Y-23944292D01*
X79900733Y-24136735D01*
X79900739Y-24136742D01*
X80072256Y-24308259D01*
X80072263Y-24308265D01*
X80147641Y-24366104D01*
X80264711Y-24455935D01*
X80474788Y-24577223D01*
X80698900Y-24670053D01*
X80933211Y-24732837D01*
X81111935Y-24756366D01*
X81173711Y-24764499D01*
X81173712Y-24764499D01*
X81416289Y-24764499D01*
X81478065Y-24756366D01*
X81656789Y-24732837D01*
X81891100Y-24670053D01*
X82115212Y-24577223D01*
X82325289Y-24455935D01*
X82489514Y-24329921D01*
X82554683Y-24304727D01*
X82623128Y-24318765D01*
X82640486Y-24329921D01*
X82804711Y-24455935D01*
X83014788Y-24577223D01*
X83238900Y-24670053D01*
X83473211Y-24732837D01*
X83651935Y-24756366D01*
X83713711Y-24764499D01*
X83713712Y-24764499D01*
X83956289Y-24764499D01*
X84018065Y-24756366D01*
X84196789Y-24732837D01*
X84431100Y-24670053D01*
X84655212Y-24577223D01*
X84865289Y-24455935D01*
X85057738Y-24308264D01*
X85229265Y-24136737D01*
X85376936Y-23944288D01*
X85498224Y-23734211D01*
X85591054Y-23510099D01*
X85653838Y-23275788D01*
X85685500Y-23035287D01*
X85685500Y-22792711D01*
X85653838Y-22552210D01*
X85591054Y-22317899D01*
X85498224Y-22093787D01*
X85376936Y-21883710D01*
X85250922Y-21719485D01*
X85225728Y-21654316D01*
X85239766Y-21585871D01*
X85250922Y-21568513D01*
X85304093Y-21499219D01*
X85376936Y-21404288D01*
X85498224Y-21194211D01*
X85591054Y-20970099D01*
X85653838Y-20735788D01*
X85685500Y-20495287D01*
X85685500Y-20252711D01*
X85653838Y-20012210D01*
X85591054Y-19777899D01*
X85498224Y-19553787D01*
X85376936Y-19343710D01*
X85316018Y-19264320D01*
X85229266Y-19151262D01*
X85229260Y-19151255D01*
X85057743Y-18979738D01*
X85057736Y-18979732D01*
X84865293Y-18832066D01*
X84865292Y-18832065D01*
X84865289Y-18832063D01*
X84655212Y-18710775D01*
X84655205Y-18710772D01*
X84431104Y-18617946D01*
X84313944Y-18586553D01*
X84196789Y-18555161D01*
X84196788Y-18555160D01*
X84196785Y-18555160D01*
X83956289Y-18523499D01*
X83956288Y-18523499D01*
X83713712Y-18523499D01*
X83713711Y-18523499D01*
X83473214Y-18555160D01*
X83238895Y-18617946D01*
X83014794Y-18710772D01*
X83014789Y-18710774D01*
X82922640Y-18763976D01*
X82854740Y-18780448D01*
X82788713Y-18757595D01*
X82782281Y-18752690D01*
X82698412Y-18684304D01*
X82698408Y-18684302D01*
X82698407Y-18684301D01*
X82518049Y-18590090D01*
X82518048Y-18590089D01*
X82518045Y-18590088D01*
X82400829Y-18556549D01*
X82322418Y-18534113D01*
X82322415Y-18534112D01*
X82322413Y-18534112D01*
X82256102Y-18528216D01*
X82203037Y-18523499D01*
X82203032Y-18523499D01*
X80386971Y-18523499D01*
X80386965Y-18523499D01*
X80386964Y-18523500D01*
X80375316Y-18524535D01*
X80267584Y-18534112D01*
X80071954Y-18590088D01*
X80018625Y-18617945D01*
X79891593Y-18684301D01*
X79891591Y-18684302D01*
X79891590Y-18684303D01*
X79733890Y-18812889D01*
X79605304Y-18970589D01*
X79511089Y-19150953D01*
X79466878Y-19305469D01*
X79455936Y-19343710D01*
X79455114Y-19346582D01*
X79455113Y-19346585D01*
X79444500Y-19465965D01*
X500500Y-19465965D01*
X500500Y-8783745D01*
X520185Y-8716706D01*
X572989Y-8670951D01*
X642147Y-8661007D01*
X705703Y-8690032D01*
X724814Y-8710856D01*
X928371Y-8991027D01*
X980545Y-9062839D01*
X980566Y-9062866D01*
X1274003Y-9406437D01*
X1274013Y-9406448D01*
X1274020Y-9406456D01*
X1593544Y-9725980D01*
X1593552Y-9725987D01*
X1593562Y-9725996D01*
X1937133Y-10019433D01*
X1937147Y-10019444D01*
X1937153Y-10019449D01*
X2302728Y-10285055D01*
X2302732Y-10285057D01*
X2302737Y-10285061D01*
X2687997Y-10521149D01*
X2688002Y-10521152D01*
X2688007Y-10521154D01*
X2688016Y-10521160D01*
X3090640Y-10726307D01*
X3504294Y-10897648D01*
X3508123Y-10899234D01*
X3617395Y-10934738D01*
X3937877Y-11038869D01*
X4377267Y-11144357D01*
X4823580Y-11215046D01*
X5274062Y-11250500D01*
X5274070Y-11250500D01*
X5725930Y-11250500D01*
X5725938Y-11250500D01*
X6176420Y-11215046D01*
X6622733Y-11144357D01*
X7062123Y-11038869D01*
X7491882Y-10899232D01*
X7909360Y-10726307D01*
X8311984Y-10521160D01*
X8345240Y-10500781D01*
X8697262Y-10285061D01*
X8697260Y-10285061D01*
X8697272Y-10285055D01*
X9062847Y-10019449D01*
X9076213Y-10008034D01*
X9377450Y-9750753D01*
X9406456Y-9725980D01*
X9725980Y-9406456D01*
X9938628Y-9157477D01*
X10019433Y-9062866D01*
X10019435Y-9062863D01*
X10019449Y-9062847D01*
X10285055Y-8697272D01*
X10521160Y-8311984D01*
X10726307Y-7909360D01*
X10899232Y-7491882D01*
X11038869Y-7062123D01*
X11144357Y-6622733D01*
X11215046Y-6176420D01*
X11250500Y-5725938D01*
X11250500Y-5274062D01*
X11215046Y-4823580D01*
X11144357Y-4377267D01*
X11038869Y-3937877D01*
X10899232Y-3508118D01*
X10726307Y-3090640D01*
X10597943Y-2838711D01*
X52109500Y-2838711D01*
X52109500Y-3081288D01*
X52141161Y-3321785D01*
X52203947Y-3556104D01*
X52296773Y-3780205D01*
X52296777Y-3780215D01*
X52349976Y-3872358D01*
X52366449Y-3940259D01*
X52343596Y-4006285D01*
X52338692Y-4012718D01*
X52270303Y-4096591D01*
X52176089Y-4276954D01*
X52133872Y-4424500D01*
X52120936Y-4469711D01*
X52120114Y-4472583D01*
X52120113Y-4472586D01*
X52109500Y-4591966D01*
X52109500Y-6408028D01*
X52109501Y-6408034D01*
X52120113Y-6527415D01*
X52176089Y-6723045D01*
X52176090Y-6723048D01*
X52176091Y-6723049D01*
X52270302Y-6903407D01*
X52270304Y-6903409D01*
X52398890Y-7061109D01*
X52458879Y-7110023D01*
X52556593Y-7189698D01*
X52736951Y-7283909D01*
X52932582Y-7339886D01*
X53051963Y-7350500D01*
X54868036Y-7350499D01*
X54987418Y-7339886D01*
X55183049Y-7283909D01*
X55363407Y-7189698D01*
X55447279Y-7121308D01*
X55511674Y-7094199D01*
X55580504Y-7106208D01*
X55587639Y-7110023D01*
X55679777Y-7163218D01*
X55679780Y-7163219D01*
X55679788Y-7163224D01*
X55903900Y-7256054D01*
X56138211Y-7318838D01*
X56318586Y-7342584D01*
X56378711Y-7350500D01*
X56378712Y-7350500D01*
X56621289Y-7350500D01*
X56669388Y-7344167D01*
X56861789Y-7318838D01*
X57096100Y-7256054D01*
X57320212Y-7163224D01*
X57530289Y-7041936D01*
X57694514Y-6915922D01*
X57759683Y-6890728D01*
X57828128Y-6904766D01*
X57845486Y-6915922D01*
X58009711Y-7041936D01*
X58219788Y-7163224D01*
X58443900Y-7256054D01*
X58678211Y-7318838D01*
X58858586Y-7342584D01*
X58918711Y-7350500D01*
X58918712Y-7350500D01*
X59161289Y-7350500D01*
X59209388Y-7344167D01*
X59401789Y-7318838D01*
X59636100Y-7256054D01*
X59860212Y-7163224D01*
X60070289Y-7041936D01*
X60262738Y-6894265D01*
X60434265Y-6722738D01*
X60581936Y-6530289D01*
X60703224Y-6320212D01*
X60796054Y-6096100D01*
X60858838Y-5861789D01*
X60890500Y-5621288D01*
X60890500Y-5378712D01*
X60858838Y-5138211D01*
X60796054Y-4903900D01*
X60703224Y-4679788D01*
X60581936Y-4469711D01*
X60455922Y-4305486D01*
X60430728Y-4240317D01*
X60444766Y-4171872D01*
X60455922Y-4154514D01*
X60500366Y-4096593D01*
X60581936Y-3990289D01*
X60703224Y-3780212D01*
X60796054Y-3556100D01*
X60858838Y-3321789D01*
X60890500Y-3081288D01*
X60890500Y-2838712D01*
X60858838Y-2598211D01*
X60796054Y-2363900D01*
X60703224Y-2139788D01*
X60581936Y-1929711D01*
X60501205Y-1824500D01*
X60434266Y-1737263D01*
X60434260Y-1737256D01*
X60262743Y-1565739D01*
X60262736Y-1565733D01*
X60070293Y-1418067D01*
X60070292Y-1418066D01*
X60070289Y-1418064D01*
X59898661Y-1318974D01*
X59860214Y-1296777D01*
X59860205Y-1296773D01*
X59636104Y-1203947D01*
X59401785Y-1141161D01*
X59161289Y-1109500D01*
X59161288Y-1109500D01*
X58918712Y-1109500D01*
X58918711Y-1109500D01*
X58678214Y-1141161D01*
X58443895Y-1203947D01*
X58219794Y-1296773D01*
X58219785Y-1296777D01*
X58009706Y-1418067D01*
X57845486Y-1544077D01*
X57780317Y-1569271D01*
X57711872Y-1555232D01*
X57694514Y-1544077D01*
X57530293Y-1418067D01*
X57530292Y-1418066D01*
X57530289Y-1418064D01*
X57358661Y-1318974D01*
X57320214Y-1296777D01*
X57320205Y-1296773D01*
X57096104Y-1203947D01*
X56861785Y-1141161D01*
X56621289Y-1109500D01*
X56621288Y-1109500D01*
X56378712Y-1109500D01*
X56378711Y-1109500D01*
X56138214Y-1141161D01*
X55903895Y-1203947D01*
X55679794Y-1296773D01*
X55679785Y-1296777D01*
X55469706Y-1418067D01*
X55305486Y-1544077D01*
X55240317Y-1569271D01*
X55171872Y-1555232D01*
X55154514Y-1544077D01*
X54990293Y-1418067D01*
X54990292Y-1418066D01*
X54990289Y-1418064D01*
X54818661Y-1318974D01*
X54780214Y-1296777D01*
X54780205Y-1296773D01*
X54556104Y-1203947D01*
X54321785Y-1141161D01*
X54081289Y-1109500D01*
X54081288Y-1109500D01*
X53838712Y-1109500D01*
X53838711Y-1109500D01*
X53598214Y-1141161D01*
X53363895Y-1203947D01*
X53139794Y-1296773D01*
X53139785Y-1296777D01*
X52929706Y-1418067D01*
X52737263Y-1565733D01*
X52737256Y-1565739D01*
X52565739Y-1737256D01*
X52565733Y-1737263D01*
X52418067Y-1929706D01*
X52296777Y-2139785D01*
X52296773Y-2139794D01*
X52203947Y-2363895D01*
X52141161Y-2598214D01*
X52109500Y-2838711D01*
X10597943Y-2838711D01*
X10521160Y-2688016D01*
X10521154Y-2688007D01*
X10521152Y-2688002D01*
X10521149Y-2687997D01*
X10285061Y-2302737D01*
X10285057Y-2302732D01*
X10285055Y-2302728D01*
X10019449Y-1937153D01*
X10019444Y-1937147D01*
X10019433Y-1937133D01*
X9725996Y-1593562D01*
X9725987Y-1593552D01*
X9725980Y-1593544D01*
X9406456Y-1274020D01*
X9406448Y-1274013D01*
X9406437Y-1274003D01*
X9062866Y-980566D01*
X9062839Y-980545D01*
X8710861Y-724818D01*
X8668195Y-669488D01*
X8662216Y-599875D01*
X8694822Y-538080D01*
X8755660Y-503723D01*
X8783746Y-500500D01*
X81716254Y-500500D01*
X81783293Y-520185D01*
G37*
%TD.AperFunction*%
%TA.AperFunction,Conductor*%
G36*
X174656687Y-37037521D02*
G01*
X174712621Y-37079392D01*
X174737038Y-37144857D01*
X174727915Y-37201155D01*
X174600767Y-37508118D01*
X174461135Y-37937865D01*
X174461128Y-37937888D01*
X174411207Y-38145824D01*
X174365966Y-38334271D01*
X174355642Y-38377272D01*
X174284955Y-38823570D01*
X174284953Y-38823589D01*
X174249500Y-39274056D01*
X174249500Y-39725943D01*
X174284953Y-40176410D01*
X174284955Y-40176429D01*
X174332950Y-40479453D01*
X174355643Y-40622733D01*
X174461131Y-41062123D01*
X174495439Y-41167713D01*
X174600765Y-41491876D01*
X174703673Y-41740317D01*
X174773693Y-41909360D01*
X174972989Y-42300500D01*
X174978847Y-42311997D01*
X174978850Y-42312002D01*
X175214938Y-42697262D01*
X175214946Y-42697273D01*
X175480545Y-43062839D01*
X175480566Y-43062866D01*
X175774003Y-43406437D01*
X175774013Y-43406448D01*
X175774020Y-43406456D01*
X176093544Y-43725980D01*
X176093552Y-43725987D01*
X176093562Y-43725996D01*
X176437133Y-44019433D01*
X176437147Y-44019444D01*
X176437153Y-44019449D01*
X176569356Y-44115500D01*
X176789139Y-44275182D01*
X176831805Y-44330512D01*
X176837784Y-44400125D01*
X176805178Y-44461920D01*
X176744340Y-44496277D01*
X176716254Y-44499500D01*
X172588329Y-44499500D01*
X172521290Y-44479815D01*
X172475535Y-44427011D01*
X172465591Y-44357853D01*
X172494616Y-44294297D01*
X172540876Y-44260939D01*
X172574131Y-44247163D01*
X172680212Y-44203224D01*
X172890289Y-44081936D01*
X173082738Y-43934265D01*
X173254265Y-43762738D01*
X173401936Y-43570289D01*
X173523224Y-43360212D01*
X173616054Y-43136100D01*
X173678838Y-42901789D01*
X173710500Y-42661288D01*
X173710500Y-42418712D01*
X173678838Y-42178211D01*
X173616054Y-41943900D01*
X173523224Y-41719788D01*
X173401936Y-41509711D01*
X173336251Y-41424109D01*
X173254266Y-41317263D01*
X173254260Y-41317256D01*
X173082743Y-41145739D01*
X173082736Y-41145733D01*
X172890293Y-40998067D01*
X172890292Y-40998066D01*
X172890289Y-40998064D01*
X172711190Y-40894661D01*
X172680214Y-40876777D01*
X172680205Y-40876773D01*
X172456104Y-40783947D01*
X172297288Y-40741392D01*
X172221789Y-40721162D01*
X172221788Y-40721161D01*
X172221785Y-40721161D01*
X171981289Y-40689500D01*
X171981288Y-40689500D01*
X171738712Y-40689500D01*
X171738711Y-40689500D01*
X171498214Y-40721161D01*
X171263896Y-40783947D01*
X171219800Y-40802212D01*
X171150331Y-40809680D01*
X171087852Y-40778404D01*
X171052200Y-40718314D01*
X171054695Y-40648489D01*
X171057789Y-40640196D01*
X171076051Y-40596108D01*
X171076051Y-40596105D01*
X171076054Y-40596100D01*
X171138838Y-40361789D01*
X171170500Y-40121288D01*
X171170500Y-39878712D01*
X171138838Y-39638211D01*
X171076054Y-39403900D01*
X171075105Y-39401610D01*
X171029274Y-39290963D01*
X170983224Y-39179788D01*
X170861936Y-38969711D01*
X170744730Y-38816965D01*
X170714266Y-38777263D01*
X170714260Y-38777256D01*
X170542743Y-38605739D01*
X170542736Y-38605733D01*
X170350293Y-38458067D01*
X170350292Y-38458066D01*
X170350289Y-38458064D01*
X170175044Y-38356886D01*
X170126829Y-38306320D01*
X170113607Y-38237713D01*
X170139575Y-38172848D01*
X170196489Y-38132320D01*
X170237045Y-38125500D01*
X173088578Y-38125500D01*
X173088579Y-38125500D01*
X173263556Y-38097786D01*
X173432042Y-38043042D01*
X173436693Y-38040672D01*
X173441171Y-38038391D01*
X173441172Y-38038390D01*
X173447229Y-38035304D01*
X173589890Y-37962614D01*
X173733214Y-37858483D01*
X173858483Y-37733214D01*
X174525676Y-37066020D01*
X174586996Y-37032537D01*
X174656687Y-37037521D01*
G37*
%TD.AperFunction*%
%TA.AperFunction,Conductor*%
G36*
X251283293Y-520185D02*
G01*
X251329048Y-572989D01*
X251338992Y-642147D01*
X251309967Y-705703D01*
X251289139Y-724818D01*
X250937160Y-980545D01*
X250937133Y-980566D01*
X250593562Y-1274003D01*
X250593536Y-1274027D01*
X250274027Y-1593536D01*
X250274003Y-1593562D01*
X249980566Y-1937133D01*
X249980545Y-1937160D01*
X249714946Y-2302726D01*
X249714938Y-2302737D01*
X249478850Y-2687997D01*
X249478847Y-2688002D01*
X249273692Y-3090642D01*
X249100765Y-3508123D01*
X248961135Y-3937865D01*
X248961128Y-3937888D01*
X248855642Y-4377272D01*
X248784955Y-4823570D01*
X248784953Y-4823589D01*
X248749500Y-5274056D01*
X248749500Y-5725943D01*
X248784953Y-6176410D01*
X248784955Y-6176429D01*
X248840873Y-6529481D01*
X248855643Y-6622733D01*
X248913525Y-6863829D01*
X248960887Y-7061109D01*
X248961131Y-7062123D01*
X248971553Y-7094199D01*
X249100765Y-7491876D01*
X249179356Y-7681610D01*
X249273693Y-7909360D01*
X249472989Y-8300500D01*
X249478847Y-8311997D01*
X249478850Y-8312002D01*
X249714938Y-8697262D01*
X249714943Y-8697269D01*
X249714945Y-8697272D01*
X249872456Y-8914067D01*
X249980545Y-9062839D01*
X249980566Y-9062866D01*
X250274003Y-9406437D01*
X250274013Y-9406448D01*
X250274020Y-9406456D01*
X250593544Y-9725980D01*
X250593552Y-9725987D01*
X250593562Y-9725996D01*
X250937133Y-10019433D01*
X250937147Y-10019444D01*
X250937153Y-10019449D01*
X251302728Y-10285055D01*
X251302732Y-10285057D01*
X251302737Y-10285061D01*
X251687997Y-10521149D01*
X251688002Y-10521152D01*
X251688007Y-10521154D01*
X251688016Y-10521160D01*
X252090640Y-10726307D01*
X252504294Y-10897648D01*
X252508123Y-10899234D01*
X252617395Y-10934738D01*
X252937877Y-11038869D01*
X253377267Y-11144357D01*
X253823580Y-11215046D01*
X254274062Y-11250500D01*
X254274070Y-11250500D01*
X254725930Y-11250500D01*
X254725938Y-11250500D01*
X255176420Y-11215046D01*
X255622733Y-11144357D01*
X256062123Y-11038869D01*
X256491882Y-10899232D01*
X256909360Y-10726307D01*
X257311984Y-10521160D01*
X257345240Y-10500781D01*
X257697262Y-10285061D01*
X257697260Y-10285061D01*
X257697272Y-10285055D01*
X258062847Y-10019449D01*
X258076213Y-10008034D01*
X258377450Y-9750753D01*
X258406456Y-9725980D01*
X258725980Y-9406456D01*
X258938628Y-9157477D01*
X259019433Y-9062866D01*
X259019435Y-9062863D01*
X259019449Y-9062847D01*
X259275183Y-8710858D01*
X259330512Y-8668194D01*
X259400125Y-8662215D01*
X259461920Y-8694821D01*
X259496277Y-8755659D01*
X259499500Y-8783745D01*
X259499500Y-36216254D01*
X259479815Y-36283293D01*
X259427011Y-36329048D01*
X259357853Y-36338992D01*
X259294297Y-36309967D01*
X259275182Y-36289139D01*
X259146689Y-36112284D01*
X259019449Y-35937153D01*
X259019444Y-35937147D01*
X259019433Y-35937133D01*
X258725996Y-35593562D01*
X258725987Y-35593552D01*
X258725980Y-35593544D01*
X258406456Y-35274020D01*
X258406448Y-35274013D01*
X258406437Y-35274003D01*
X258062866Y-34980566D01*
X258062839Y-34980545D01*
X257876708Y-34845313D01*
X257697272Y-34714945D01*
X257697269Y-34714943D01*
X257697262Y-34714938D01*
X257312002Y-34478850D01*
X257311997Y-34478847D01*
X257311987Y-34478842D01*
X257311984Y-34478840D01*
X256909360Y-34273693D01*
X256775605Y-34218290D01*
X256491876Y-34100765D01*
X256179346Y-33999219D01*
X256062123Y-33961131D01*
X255622733Y-33855643D01*
X255622727Y-33855642D01*
X255176429Y-33784955D01*
X255176420Y-33784954D01*
X255176418Y-33784953D01*
X255176410Y-33784953D01*
X254725943Y-33749500D01*
X254725938Y-33749500D01*
X254274062Y-33749500D01*
X254274056Y-33749500D01*
X253823589Y-33784953D01*
X253823570Y-33784955D01*
X253377272Y-33855642D01*
X253377269Y-33855642D01*
X253377267Y-33855643D01*
X253267865Y-33881908D01*
X252937888Y-33961128D01*
X252937882Y-33961129D01*
X252937877Y-33961131D01*
X252937865Y-33961135D01*
X252508123Y-34100765D01*
X252090642Y-34273692D01*
X251688002Y-34478847D01*
X251687997Y-34478850D01*
X251302737Y-34714938D01*
X251302726Y-34714946D01*
X250937160Y-34980545D01*
X250937133Y-34980566D01*
X250593562Y-35274003D01*
X250593536Y-35274027D01*
X250274027Y-35593536D01*
X250274003Y-35593562D01*
X249980566Y-35937133D01*
X249980545Y-35937160D01*
X249714946Y-36302726D01*
X249714938Y-36302737D01*
X249478850Y-36687997D01*
X249478847Y-36688002D01*
X249273692Y-37090642D01*
X249100765Y-37508123D01*
X248961135Y-37937865D01*
X248961128Y-37937888D01*
X248911207Y-38145824D01*
X248865966Y-38334271D01*
X248855642Y-38377272D01*
X248784955Y-38823570D01*
X248784953Y-38823589D01*
X248749500Y-39274056D01*
X248749500Y-39725943D01*
X248784953Y-40176410D01*
X248784955Y-40176429D01*
X248832950Y-40479453D01*
X248855643Y-40622733D01*
X248961131Y-41062123D01*
X248995439Y-41167713D01*
X249100765Y-41491876D01*
X249203673Y-41740317D01*
X249273693Y-41909360D01*
X249472989Y-42300500D01*
X249478847Y-42311997D01*
X249478850Y-42312002D01*
X249714938Y-42697262D01*
X249714946Y-42697273D01*
X249980545Y-43062839D01*
X249980566Y-43062866D01*
X250274003Y-43406437D01*
X250274013Y-43406448D01*
X250274020Y-43406456D01*
X250593544Y-43725980D01*
X250593552Y-43725987D01*
X250593562Y-43725996D01*
X250937133Y-44019433D01*
X250937147Y-44019444D01*
X250937153Y-44019449D01*
X251069356Y-44115500D01*
X251289139Y-44275182D01*
X251331805Y-44330512D01*
X251337784Y-44400125D01*
X251305178Y-44461920D01*
X251244340Y-44496277D01*
X251216254Y-44499500D01*
X183283746Y-44499500D01*
X183216707Y-44479815D01*
X183170952Y-44427011D01*
X183161008Y-44357853D01*
X183190033Y-44294297D01*
X183210861Y-44275182D01*
X183283044Y-44222738D01*
X183562847Y-44019449D01*
X183657463Y-43938640D01*
X183906437Y-43725996D01*
X183906456Y-43725980D01*
X184225980Y-43406456D01*
X184464470Y-43127219D01*
X184519433Y-43062866D01*
X184519435Y-43062863D01*
X184519449Y-43062847D01*
X184785055Y-42697272D01*
X185014636Y-42322629D01*
X185066446Y-42275756D01*
X185135376Y-42264333D01*
X185199539Y-42291990D01*
X185208043Y-42299740D01*
X185906517Y-42998214D01*
X186031786Y-43123483D01*
X186175110Y-43227614D01*
X186204345Y-43242510D01*
X186332957Y-43308042D01*
X186501444Y-43362786D01*
X186525368Y-43366575D01*
X186676421Y-43390500D01*
X187579972Y-43390500D01*
X187647011Y-43410185D01*
X187678349Y-43439015D01*
X187715735Y-43487738D01*
X187715739Y-43487743D01*
X187887256Y-43659260D01*
X187887263Y-43659266D01*
X187925286Y-43688442D01*
X188079711Y-43806936D01*
X188289788Y-43928224D01*
X188485269Y-44009195D01*
X188509986Y-44019433D01*
X188513900Y-44021054D01*
X188748211Y-44083838D01*
X188928586Y-44107584D01*
X188988711Y-44115500D01*
X188988712Y-44115500D01*
X189231289Y-44115500D01*
X189279388Y-44109167D01*
X189471789Y-44083838D01*
X189706100Y-44021054D01*
X189930212Y-43928224D01*
X190140289Y-43806936D01*
X190304514Y-43680922D01*
X190369683Y-43655728D01*
X190438128Y-43669766D01*
X190455486Y-43680922D01*
X190619711Y-43806936D01*
X190829788Y-43928224D01*
X191025269Y-44009195D01*
X191049986Y-44019433D01*
X191053900Y-44021054D01*
X191288211Y-44083838D01*
X191468586Y-44107584D01*
X191528711Y-44115500D01*
X191528712Y-44115500D01*
X191771289Y-44115500D01*
X191819388Y-44109167D01*
X192011789Y-44083838D01*
X192246100Y-44021054D01*
X192470212Y-43928224D01*
X192680289Y-43806936D01*
X192872738Y-43659265D01*
X193044265Y-43487738D01*
X193191936Y-43295289D01*
X193313224Y-43085212D01*
X193406054Y-42861100D01*
X193468838Y-42626789D01*
X193500500Y-42386288D01*
X193500500Y-42143712D01*
X193496362Y-42112284D01*
X193480523Y-41991971D01*
X193468838Y-41903211D01*
X193406054Y-41668900D01*
X193387787Y-41624801D01*
X193380319Y-41555333D01*
X193411594Y-41492854D01*
X193471682Y-41457201D01*
X193541508Y-41459694D01*
X193549800Y-41462787D01*
X193593900Y-41481054D01*
X193828211Y-41543838D01*
X193978587Y-41563635D01*
X194068711Y-41575500D01*
X194068712Y-41575500D01*
X194311289Y-41575500D01*
X194359388Y-41569167D01*
X194551789Y-41543838D01*
X194786100Y-41481054D01*
X195010212Y-41388224D01*
X195220289Y-41266936D01*
X195384514Y-41140922D01*
X195449683Y-41115728D01*
X195518128Y-41129766D01*
X195535486Y-41140922D01*
X195699711Y-41266936D01*
X195909788Y-41388224D01*
X196133900Y-41481054D01*
X196368211Y-41543838D01*
X196518587Y-41563635D01*
X196608711Y-41575500D01*
X196608712Y-41575500D01*
X196851289Y-41575500D01*
X196899388Y-41569167D01*
X197091789Y-41543838D01*
X197326100Y-41481054D01*
X197550212Y-41388224D01*
X197760289Y-41266936D01*
X197924514Y-41140922D01*
X197989683Y-41115728D01*
X198058128Y-41129766D01*
X198075486Y-41140922D01*
X198239711Y-41266936D01*
X198449788Y-41388224D01*
X198673900Y-41481054D01*
X198908211Y-41543838D01*
X199058587Y-41563635D01*
X199148711Y-41575500D01*
X199148712Y-41575500D01*
X199391289Y-41575500D01*
X199439388Y-41569167D01*
X199631789Y-41543838D01*
X199866100Y-41481054D01*
X200090212Y-41388224D01*
X200300289Y-41266936D01*
X200464514Y-41140922D01*
X200529683Y-41115728D01*
X200598128Y-41129766D01*
X200615486Y-41140922D01*
X200779711Y-41266936D01*
X200989788Y-41388224D01*
X201213900Y-41481054D01*
X201448211Y-41543838D01*
X201598587Y-41563635D01*
X201688711Y-41575500D01*
X201688712Y-41575500D01*
X201931289Y-41575500D01*
X201979388Y-41569167D01*
X202171789Y-41543838D01*
X202406100Y-41481054D01*
X202630212Y-41388224D01*
X202840289Y-41266936D01*
X203004514Y-41140922D01*
X203069683Y-41115728D01*
X203138128Y-41129766D01*
X203155486Y-41140922D01*
X203319711Y-41266936D01*
X203529788Y-41388224D01*
X203753900Y-41481054D01*
X203988211Y-41543838D01*
X204138587Y-41563635D01*
X204228711Y-41575500D01*
X204228712Y-41575500D01*
X204471289Y-41575500D01*
X204519388Y-41569167D01*
X204711789Y-41543838D01*
X204946100Y-41481054D01*
X204946105Y-41481051D01*
X204946108Y-41481051D01*
X204990196Y-41462789D01*
X205059665Y-41455319D01*
X205122145Y-41486593D01*
X205157798Y-41546681D01*
X205155305Y-41616507D01*
X205152212Y-41624800D01*
X205133947Y-41668896D01*
X205071161Y-41903214D01*
X205039500Y-42143711D01*
X205039500Y-42386288D01*
X205071161Y-42626785D01*
X205133947Y-42861104D01*
X205181493Y-42975890D01*
X205226776Y-43085212D01*
X205348064Y-43295289D01*
X205348066Y-43295292D01*
X205348067Y-43295293D01*
X205495733Y-43487736D01*
X205495739Y-43487743D01*
X205667256Y-43659260D01*
X205667263Y-43659266D01*
X205705286Y-43688442D01*
X205859711Y-43806936D01*
X206069788Y-43928224D01*
X206265269Y-44009195D01*
X206289986Y-44019433D01*
X206293900Y-44021054D01*
X206528211Y-44083838D01*
X206708586Y-44107584D01*
X206768711Y-44115500D01*
X206768712Y-44115500D01*
X207011289Y-44115500D01*
X207059388Y-44109167D01*
X207251789Y-44083838D01*
X207486100Y-44021054D01*
X207710212Y-43928224D01*
X207920289Y-43806936D01*
X208112738Y-43659265D01*
X208284265Y-43487738D01*
X208431936Y-43295289D01*
X208553224Y-43085212D01*
X208646054Y-42861100D01*
X208708838Y-42626789D01*
X208740500Y-42386288D01*
X208740500Y-42143712D01*
X208736363Y-42112287D01*
X208732461Y-42082644D01*
X208730865Y-42070525D01*
X211049500Y-42070525D01*
X211049500Y-42329474D01*
X211049501Y-42329491D01*
X211083299Y-42586217D01*
X211083300Y-42586222D01*
X211083301Y-42586228D01*
X211097230Y-42638211D01*
X211150324Y-42836364D01*
X211249423Y-43075609D01*
X211249427Y-43075619D01*
X211378906Y-43299883D01*
X211536551Y-43505331D01*
X211536557Y-43505338D01*
X211719661Y-43688442D01*
X211719668Y-43688448D01*
X211925116Y-43846093D01*
X212149380Y-43975572D01*
X212149381Y-43975572D01*
X212149384Y-43975574D01*
X212388634Y-44074675D01*
X212638772Y-44141699D01*
X212895519Y-44175500D01*
X212895526Y-44175500D01*
X213154474Y-44175500D01*
X213154481Y-44175500D01*
X213411228Y-44141699D01*
X213661366Y-44074675D01*
X213900616Y-43975574D01*
X214124884Y-43846093D01*
X214330333Y-43688447D01*
X214513447Y-43505333D01*
X214671093Y-43299884D01*
X214800574Y-43075616D01*
X214899675Y-42836366D01*
X214966699Y-42586228D01*
X215000500Y-42329481D01*
X215000500Y-42085258D01*
X223474500Y-42085258D01*
X223474500Y-42314741D01*
X223483402Y-42382351D01*
X223504452Y-42542238D01*
X223536351Y-42661288D01*
X223563842Y-42763887D01*
X223651650Y-42975876D01*
X223651656Y-42975888D01*
X223744156Y-43136104D01*
X223766392Y-43174617D01*
X223906081Y-43356661D01*
X223906089Y-43356670D01*
X224068330Y-43518911D01*
X224068338Y-43518918D01*
X224068339Y-43518919D01*
X224118962Y-43557764D01*
X224250382Y-43658607D01*
X224250385Y-43658608D01*
X224250388Y-43658611D01*
X224449112Y-43773344D01*
X224449117Y-43773346D01*
X224449123Y-43773349D01*
X224530200Y-43806932D01*
X224661113Y-43861158D01*
X224882762Y-43920548D01*
X225110266Y-43950500D01*
X225110273Y-43950500D01*
X225339727Y-43950500D01*
X225339734Y-43950500D01*
X225567238Y-43920548D01*
X225788887Y-43861158D01*
X226000888Y-43773344D01*
X226199612Y-43658611D01*
X226381661Y-43518919D01*
X226381665Y-43518914D01*
X226381670Y-43518911D01*
X226543911Y-43356670D01*
X226543914Y-43356665D01*
X226543919Y-43356661D01*
X226683611Y-43174612D01*
X226798344Y-42975888D01*
X226886158Y-42763887D01*
X226945548Y-42542238D01*
X226975500Y-42314734D01*
X226975500Y-42085266D01*
X226973559Y-42070525D01*
X231049500Y-42070525D01*
X231049500Y-42329474D01*
X231049501Y-42329491D01*
X231083299Y-42586217D01*
X231083300Y-42586222D01*
X231083301Y-42586228D01*
X231097230Y-42638211D01*
X231150324Y-42836364D01*
X231249423Y-43075609D01*
X231249427Y-43075619D01*
X231378906Y-43299883D01*
X231536551Y-43505331D01*
X231536557Y-43505338D01*
X231719661Y-43688442D01*
X231719668Y-43688448D01*
X231925116Y-43846093D01*
X232149380Y-43975572D01*
X232149381Y-43975572D01*
X232149384Y-43975574D01*
X232388634Y-44074675D01*
X232638772Y-44141699D01*
X232895519Y-44175500D01*
X232895526Y-44175500D01*
X233154474Y-44175500D01*
X233154481Y-44175500D01*
X233411228Y-44141699D01*
X233661366Y-44074675D01*
X233900616Y-43975574D01*
X234124884Y-43846093D01*
X234330333Y-43688447D01*
X234513447Y-43505333D01*
X234671093Y-43299884D01*
X234800574Y-43075616D01*
X234899675Y-42836366D01*
X234966699Y-42586228D01*
X235000500Y-42329481D01*
X235000500Y-42085258D01*
X243474500Y-42085258D01*
X243474500Y-42314741D01*
X243483402Y-42382351D01*
X243504452Y-42542238D01*
X243536351Y-42661288D01*
X243563842Y-42763887D01*
X243651650Y-42975876D01*
X243651656Y-42975888D01*
X243744156Y-43136104D01*
X243766392Y-43174617D01*
X243906081Y-43356661D01*
X243906089Y-43356670D01*
X244068330Y-43518911D01*
X244068338Y-43518918D01*
X244068339Y-43518919D01*
X244118962Y-43557764D01*
X244250382Y-43658607D01*
X244250385Y-43658608D01*
X244250388Y-43658611D01*
X244449112Y-43773344D01*
X244449117Y-43773346D01*
X244449123Y-43773349D01*
X244530200Y-43806932D01*
X244661113Y-43861158D01*
X244882762Y-43920548D01*
X245110266Y-43950500D01*
X245110273Y-43950500D01*
X245339727Y-43950500D01*
X245339734Y-43950500D01*
X245567238Y-43920548D01*
X245788887Y-43861158D01*
X246000888Y-43773344D01*
X246199612Y-43658611D01*
X246381661Y-43518919D01*
X246381665Y-43518914D01*
X246381670Y-43518911D01*
X246543911Y-43356670D01*
X246543914Y-43356665D01*
X246543919Y-43356661D01*
X246683611Y-43174612D01*
X246798344Y-42975888D01*
X246886158Y-42763887D01*
X246945548Y-42542238D01*
X246975500Y-42314734D01*
X246975500Y-42085266D01*
X246945548Y-41857762D01*
X246886158Y-41636113D01*
X246829456Y-41499223D01*
X246798349Y-41424123D01*
X246798346Y-41424117D01*
X246798344Y-41424112D01*
X246683611Y-41225388D01*
X246683608Y-41225385D01*
X246683607Y-41225382D01*
X246558341Y-41062134D01*
X246543919Y-41043339D01*
X246543918Y-41043338D01*
X246543911Y-41043330D01*
X246381670Y-40881089D01*
X246381661Y-40881081D01*
X246199617Y-40741392D01*
X246000890Y-40626657D01*
X246000876Y-40626650D01*
X245788887Y-40538842D01*
X245567238Y-40479452D01*
X245529215Y-40474446D01*
X245339741Y-40449500D01*
X245339734Y-40449500D01*
X245110266Y-40449500D01*
X245110258Y-40449500D01*
X244893715Y-40478009D01*
X244882762Y-40479452D01*
X244808990Y-40499219D01*
X244661112Y-40538842D01*
X244449123Y-40626650D01*
X244449109Y-40626657D01*
X244250382Y-40741392D01*
X244068338Y-40881081D01*
X243906081Y-41043338D01*
X243766392Y-41225382D01*
X243651657Y-41424109D01*
X243651650Y-41424123D01*
X243563842Y-41636112D01*
X243504453Y-41857759D01*
X243504451Y-41857770D01*
X243474500Y-42085258D01*
X235000500Y-42085258D01*
X235000500Y-42070519D01*
X234966699Y-41813772D01*
X234899675Y-41563634D01*
X234800574Y-41324384D01*
X234792821Y-41310956D01*
X234671093Y-41100116D01*
X234513448Y-40894668D01*
X234513442Y-40894661D01*
X234330338Y-40711557D01*
X234330331Y-40711551D01*
X234124883Y-40553906D01*
X233900619Y-40424427D01*
X233900609Y-40424423D01*
X233661364Y-40325324D01*
X233492878Y-40280179D01*
X233411228Y-40258301D01*
X233411222Y-40258300D01*
X233411217Y-40258299D01*
X233154491Y-40224501D01*
X233154486Y-40224500D01*
X233154481Y-40224500D01*
X232895519Y-40224500D01*
X232895513Y-40224500D01*
X232895508Y-40224501D01*
X232638782Y-40258299D01*
X232638775Y-40258300D01*
X232638772Y-40258301D01*
X232594234Y-40270235D01*
X232388635Y-40325324D01*
X232149390Y-40424423D01*
X232149380Y-40424427D01*
X231925116Y-40553906D01*
X231719668Y-40711551D01*
X231719661Y-40711557D01*
X231536557Y-40894661D01*
X231536551Y-40894668D01*
X231378906Y-41100116D01*
X231249427Y-41324380D01*
X231249423Y-41324390D01*
X231150324Y-41563635D01*
X231083302Y-41813769D01*
X231083299Y-41813782D01*
X231049501Y-42070508D01*
X231049500Y-42070525D01*
X226973559Y-42070525D01*
X226945548Y-41857762D01*
X226886158Y-41636113D01*
X226829456Y-41499223D01*
X226798349Y-41424123D01*
X226798346Y-41424117D01*
X226798344Y-41424112D01*
X226683611Y-41225388D01*
X226683608Y-41225385D01*
X226683607Y-41225382D01*
X226558341Y-41062134D01*
X226543919Y-41043339D01*
X226543918Y-41043338D01*
X226543911Y-41043330D01*
X226381670Y-40881089D01*
X226381661Y-40881081D01*
X226199617Y-40741392D01*
X226000890Y-40626657D01*
X226000876Y-40626650D01*
X225788887Y-40538842D01*
X225567238Y-40479452D01*
X225529215Y-40474446D01*
X225339741Y-40449500D01*
X225339734Y-40449500D01*
X225110266Y-40449500D01*
X225110258Y-40449500D01*
X224893715Y-40478009D01*
X224882762Y-40479452D01*
X224808990Y-40499219D01*
X224661112Y-40538842D01*
X224449123Y-40626650D01*
X224449109Y-40626657D01*
X224250382Y-40741392D01*
X224068338Y-40881081D01*
X223906081Y-41043338D01*
X223766392Y-41225382D01*
X223651657Y-41424109D01*
X223651650Y-41424123D01*
X223563842Y-41636112D01*
X223504453Y-41857759D01*
X223504451Y-41857770D01*
X223474500Y-42085258D01*
X215000500Y-42085258D01*
X215000500Y-42070519D01*
X214966699Y-41813772D01*
X214899675Y-41563634D01*
X214800574Y-41324384D01*
X214792821Y-41310956D01*
X214671093Y-41100116D01*
X214513448Y-40894668D01*
X214513442Y-40894661D01*
X214330338Y-40711557D01*
X214330331Y-40711551D01*
X214124883Y-40553906D01*
X213900619Y-40424427D01*
X213900609Y-40424423D01*
X213661364Y-40325324D01*
X213492878Y-40280179D01*
X213411228Y-40258301D01*
X213411222Y-40258300D01*
X213411217Y-40258299D01*
X213154491Y-40224501D01*
X213154486Y-40224500D01*
X213154481Y-40224500D01*
X212895519Y-40224500D01*
X212895513Y-40224500D01*
X212895508Y-40224501D01*
X212638782Y-40258299D01*
X212638775Y-40258300D01*
X212638772Y-40258301D01*
X212594234Y-40270235D01*
X212388635Y-40325324D01*
X212149390Y-40424423D01*
X212149380Y-40424427D01*
X211925116Y-40553906D01*
X211719668Y-40711551D01*
X211719661Y-40711557D01*
X211536557Y-40894661D01*
X211536551Y-40894668D01*
X211378906Y-41100116D01*
X211249427Y-41324380D01*
X211249423Y-41324390D01*
X211150324Y-41563635D01*
X211083302Y-41813769D01*
X211083299Y-41813782D01*
X211049501Y-42070508D01*
X211049500Y-42070525D01*
X208730865Y-42070525D01*
X208714194Y-41943895D01*
X208708838Y-41903211D01*
X208646054Y-41668900D01*
X208553224Y-41444788D01*
X208553218Y-41444777D01*
X208500023Y-41352639D01*
X208483550Y-41284739D01*
X208506403Y-41218712D01*
X208511298Y-41212292D01*
X208579698Y-41128407D01*
X208673909Y-40948049D01*
X208729886Y-40752418D01*
X208740500Y-40633037D01*
X208740499Y-38816964D01*
X208729886Y-38697582D01*
X208673909Y-38501951D01*
X208579698Y-38321593D01*
X208510653Y-38236916D01*
X208451109Y-38163890D01*
X208325871Y-38061773D01*
X208293407Y-38035302D01*
X208113049Y-37941091D01*
X208113046Y-37941090D01*
X208113044Y-37941089D01*
X208105381Y-37938896D01*
X208046345Y-37901524D01*
X208016886Y-37838169D01*
X208015500Y-37819682D01*
X208015500Y-36380673D01*
X208035185Y-36313634D01*
X208087989Y-36267879D01*
X208157147Y-36257935D01*
X208177815Y-36262741D01*
X208195466Y-36268477D01*
X208397648Y-36300500D01*
X208397649Y-36300500D01*
X208602351Y-36300500D01*
X208602352Y-36300500D01*
X208804534Y-36268477D01*
X208999219Y-36205220D01*
X209181610Y-36112287D01*
X209239091Y-36070525D01*
X225249500Y-36070525D01*
X225249500Y-36329474D01*
X225249501Y-36329491D01*
X225283299Y-36586217D01*
X225283300Y-36586222D01*
X225283301Y-36586228D01*
X225301104Y-36652670D01*
X225350324Y-36836364D01*
X225449423Y-37075609D01*
X225449427Y-37075619D01*
X225578906Y-37299883D01*
X225736551Y-37505331D01*
X225736557Y-37505338D01*
X225919661Y-37688442D01*
X225919668Y-37688448D01*
X226125116Y-37846093D01*
X226349380Y-37975572D01*
X226349381Y-37975572D01*
X226349384Y-37975574D01*
X226588634Y-38074675D01*
X226838772Y-38141699D01*
X227095519Y-38175500D01*
X227095526Y-38175500D01*
X227354474Y-38175500D01*
X227354481Y-38175500D01*
X227611228Y-38141699D01*
X227861366Y-38074675D01*
X228100616Y-37975574D01*
X228324884Y-37846093D01*
X228530333Y-37688447D01*
X228713447Y-37505333D01*
X228871093Y-37299884D01*
X229000574Y-37075616D01*
X229099675Y-36836366D01*
X229166699Y-36586228D01*
X229200500Y-36329481D01*
X229200500Y-36070519D01*
X229166699Y-35813772D01*
X229099675Y-35563634D01*
X229000574Y-35324384D01*
X228971500Y-35274027D01*
X228871093Y-35100116D01*
X228713448Y-34894668D01*
X228713442Y-34894661D01*
X228530338Y-34711557D01*
X228530331Y-34711551D01*
X228324883Y-34553906D01*
X228100619Y-34424427D01*
X228100609Y-34424423D01*
X227861364Y-34325324D01*
X227736297Y-34291813D01*
X227611228Y-34258301D01*
X227611222Y-34258300D01*
X227611217Y-34258299D01*
X227354491Y-34224501D01*
X227354486Y-34224500D01*
X227354481Y-34224500D01*
X227095519Y-34224500D01*
X227095513Y-34224500D01*
X227095508Y-34224501D01*
X226838782Y-34258299D01*
X226838775Y-34258300D01*
X226838772Y-34258301D01*
X226785908Y-34272465D01*
X226588635Y-34325324D01*
X226349390Y-34424423D01*
X226349380Y-34424427D01*
X226125116Y-34553906D01*
X225919668Y-34711551D01*
X225919661Y-34711557D01*
X225736557Y-34894661D01*
X225736551Y-34894668D01*
X225578906Y-35100116D01*
X225449427Y-35324380D01*
X225449423Y-35324390D01*
X225350324Y-35563635D01*
X225283302Y-35813769D01*
X225283299Y-35813782D01*
X225249501Y-36070508D01*
X225249500Y-36070525D01*
X209239091Y-36070525D01*
X209284706Y-36037384D01*
X209347213Y-35991971D01*
X209347215Y-35991968D01*
X209347219Y-35991966D01*
X209491966Y-35847219D01*
X209491968Y-35847215D01*
X209491971Y-35847213D01*
X209562962Y-35749500D01*
X209612287Y-35681610D01*
X209705220Y-35499219D01*
X209768477Y-35304534D01*
X209800500Y-35102352D01*
X209800500Y-34897648D01*
X209785752Y-34804534D01*
X209768477Y-34695465D01*
X209729659Y-34575996D01*
X209705220Y-34500781D01*
X209705218Y-34500778D01*
X209705218Y-34500776D01*
X209666314Y-34424423D01*
X209612287Y-34318390D01*
X209579813Y-34273693D01*
X209491971Y-34152786D01*
X209347213Y-34008028D01*
X209181613Y-33887715D01*
X209181612Y-33887714D01*
X209181610Y-33887713D01*
X209128171Y-33860484D01*
X209077376Y-33812510D01*
X209060581Y-33744689D01*
X209083118Y-33678554D01*
X209128172Y-33639515D01*
X209181610Y-33612287D01*
X209274590Y-33544732D01*
X209347213Y-33491971D01*
X209347215Y-33491968D01*
X209347219Y-33491966D01*
X209491966Y-33347219D01*
X209491968Y-33347215D01*
X209491971Y-33347213D01*
X209569501Y-33240500D01*
X209612287Y-33181610D01*
X209705220Y-32999219D01*
X209768477Y-32804534D01*
X209800500Y-32602352D01*
X209800500Y-32397648D01*
X209788454Y-32321593D01*
X209768477Y-32195465D01*
X209705218Y-32000776D01*
X209645671Y-31883910D01*
X209612287Y-31818390D01*
X209576445Y-31769057D01*
X209491971Y-31652786D01*
X209347213Y-31508028D01*
X209181613Y-31387715D01*
X209181612Y-31387714D01*
X209181610Y-31387713D01*
X209124653Y-31358691D01*
X208999223Y-31294781D01*
X208893751Y-31260511D01*
X208860523Y-31249714D01*
X208811162Y-31219465D01*
X205303379Y-27711681D01*
X205269894Y-27650358D01*
X205274878Y-27580666D01*
X205316750Y-27524733D01*
X205382214Y-27500316D01*
X205391060Y-27500000D01*
X210125114Y-27500000D01*
X210192153Y-27519685D01*
X210237908Y-27572489D01*
X210247852Y-27641647D01*
X210218827Y-27705203D01*
X210163433Y-27741931D01*
X210000776Y-27794781D01*
X209818386Y-27887715D01*
X209652786Y-28008028D01*
X209508028Y-28152786D01*
X209387715Y-28318386D01*
X209294781Y-28500776D01*
X209231522Y-28695465D01*
X209199500Y-28897648D01*
X209199500Y-29102351D01*
X209231522Y-29304534D01*
X209294781Y-29499223D01*
X209352391Y-29612287D01*
X209381906Y-29670214D01*
X209387715Y-29681613D01*
X209508028Y-29847213D01*
X209652786Y-29991971D01*
X209805430Y-30102871D01*
X209818390Y-30112287D01*
X209926284Y-30167262D01*
X210000776Y-30205218D01*
X210000778Y-30205218D01*
X210000781Y-30205220D01*
X210103908Y-30238728D01*
X210195465Y-30268477D01*
X210242067Y-30275858D01*
X210397648Y-30300500D01*
X210397649Y-30300500D01*
X210602351Y-30300500D01*
X210602352Y-30300500D01*
X210804534Y-30268477D01*
X210889952Y-30240722D01*
X210959792Y-30238728D01*
X211019625Y-30274808D01*
X211050454Y-30337508D01*
X211051209Y-30342468D01*
X211058474Y-30397648D01*
X211083301Y-30586228D01*
X211108859Y-30681613D01*
X211150324Y-30836364D01*
X211249423Y-31075609D01*
X211249427Y-31075619D01*
X211378906Y-31299883D01*
X211536551Y-31505331D01*
X211536557Y-31505338D01*
X211719661Y-31688442D01*
X211719668Y-31688448D01*
X211925116Y-31846093D01*
X212149380Y-31975572D01*
X212149381Y-31975572D01*
X212149384Y-31975574D01*
X212388634Y-32074675D01*
X212638772Y-32141699D01*
X212895519Y-32175500D01*
X212895526Y-32175500D01*
X213154474Y-32175500D01*
X213154481Y-32175500D01*
X213411228Y-32141699D01*
X213661366Y-32074675D01*
X213900616Y-31975574D01*
X214124884Y-31846093D01*
X214330333Y-31688447D01*
X214513447Y-31505333D01*
X214671093Y-31299884D01*
X214800574Y-31075616D01*
X214899675Y-30836366D01*
X214966699Y-30586228D01*
X215000500Y-30329481D01*
X215000500Y-30070519D01*
X214966699Y-29813772D01*
X214899675Y-29563634D01*
X214828567Y-29391966D01*
X223474500Y-29391966D01*
X223474500Y-31008028D01*
X223474501Y-31008034D01*
X223485113Y-31127415D01*
X223541089Y-31323045D01*
X223541090Y-31323048D01*
X223541091Y-31323049D01*
X223635302Y-31503407D01*
X223636877Y-31505338D01*
X223763890Y-31661109D01*
X223806030Y-31695469D01*
X223921593Y-31789698D01*
X224101951Y-31883909D01*
X224297582Y-31939886D01*
X224416963Y-31950500D01*
X226033036Y-31950499D01*
X226152418Y-31939886D01*
X226348049Y-31883909D01*
X226528407Y-31789698D01*
X226686109Y-31661109D01*
X226814698Y-31503407D01*
X226908909Y-31323049D01*
X226964886Y-31127418D01*
X226975500Y-31008037D01*
X226975499Y-30070525D01*
X231049500Y-30070525D01*
X231049500Y-30329474D01*
X231049501Y-30329491D01*
X231083299Y-30586217D01*
X231083300Y-30586222D01*
X231083301Y-30586228D01*
X231108859Y-30681613D01*
X231150324Y-30836364D01*
X231249423Y-31075609D01*
X231249427Y-31075619D01*
X231378906Y-31299883D01*
X231536551Y-31505331D01*
X231536557Y-31505338D01*
X231719661Y-31688442D01*
X231719668Y-31688448D01*
X231925116Y-31846093D01*
X232149380Y-31975572D01*
X232149381Y-31975572D01*
X232149384Y-31975574D01*
X232388634Y-32074675D01*
X232638772Y-32141699D01*
X232895519Y-32175500D01*
X232895526Y-32175500D01*
X233154474Y-32175500D01*
X233154481Y-32175500D01*
X233411228Y-32141699D01*
X233661366Y-32074675D01*
X233900616Y-31975574D01*
X234124884Y-31846093D01*
X234330333Y-31688447D01*
X234513447Y-31505333D01*
X234671093Y-31299884D01*
X234800574Y-31075616D01*
X234899675Y-30836366D01*
X234966699Y-30586228D01*
X235000500Y-30329481D01*
X235000500Y-30070519D01*
X234966699Y-29813772D01*
X234899675Y-29563634D01*
X234800574Y-29324384D01*
X234789974Y-29306025D01*
X234671093Y-29100116D01*
X234513448Y-28894668D01*
X234513442Y-28894661D01*
X234330338Y-28711557D01*
X234330331Y-28711551D01*
X234124883Y-28553906D01*
X233900619Y-28424427D01*
X233900609Y-28424423D01*
X233661364Y-28325324D01*
X233536297Y-28291813D01*
X233411228Y-28258301D01*
X233411222Y-28258300D01*
X233411217Y-28258299D01*
X233154491Y-28224501D01*
X233154486Y-28224500D01*
X233154481Y-28224500D01*
X232895519Y-28224500D01*
X232895513Y-28224500D01*
X232895508Y-28224501D01*
X232638782Y-28258299D01*
X232638775Y-28258300D01*
X232638772Y-28258301D01*
X232595491Y-28269898D01*
X232388635Y-28325324D01*
X232149390Y-28424423D01*
X232149380Y-28424427D01*
X231925116Y-28553906D01*
X231719668Y-28711551D01*
X231719661Y-28711557D01*
X231536557Y-28894661D01*
X231536551Y-28894668D01*
X231378906Y-29100116D01*
X231249427Y-29324380D01*
X231249423Y-29324390D01*
X231150324Y-29563635D01*
X231083302Y-29813769D01*
X231083299Y-29813782D01*
X231049501Y-30070508D01*
X231049500Y-30070525D01*
X226975499Y-30070525D01*
X226975499Y-29391964D01*
X226964886Y-29272582D01*
X226908909Y-29076951D01*
X226814698Y-28896593D01*
X226733680Y-28797232D01*
X226686109Y-28738890D01*
X226566689Y-28641517D01*
X226528407Y-28610302D01*
X226348049Y-28516091D01*
X226348048Y-28516090D01*
X226348045Y-28516089D01*
X226230829Y-28482550D01*
X226152418Y-28460114D01*
X226152415Y-28460113D01*
X226152413Y-28460113D01*
X226086102Y-28454217D01*
X226033037Y-28449500D01*
X226033032Y-28449500D01*
X224416971Y-28449500D01*
X224416965Y-28449500D01*
X224416964Y-28449501D01*
X224405316Y-28450536D01*
X224297584Y-28460113D01*
X224101954Y-28516089D01*
X224029560Y-28553905D01*
X223921593Y-28610302D01*
X223921591Y-28610303D01*
X223921590Y-28610304D01*
X223763890Y-28738890D01*
X223635304Y-28896590D01*
X223541089Y-29076954D01*
X223485114Y-29272583D01*
X223485113Y-29272586D01*
X223474500Y-29391966D01*
X214828567Y-29391966D01*
X214800576Y-29324390D01*
X214800572Y-29324380D01*
X214671093Y-29100116D01*
X214513448Y-28894668D01*
X214513442Y-28894661D01*
X214330338Y-28711557D01*
X214330331Y-28711551D01*
X214124883Y-28553906D01*
X213900619Y-28424427D01*
X213900609Y-28424423D01*
X213661364Y-28325324D01*
X213536297Y-28291813D01*
X213411228Y-28258301D01*
X213411222Y-28258300D01*
X213411217Y-28258299D01*
X213154491Y-28224501D01*
X213154486Y-28224500D01*
X213154481Y-28224500D01*
X212895519Y-28224500D01*
X212895513Y-28224500D01*
X212895508Y-28224501D01*
X212638782Y-28258299D01*
X212638775Y-28258300D01*
X212638772Y-28258301D01*
X212595491Y-28269898D01*
X212388635Y-28325324D01*
X212149390Y-28424423D01*
X212149380Y-28424427D01*
X211925117Y-28553905D01*
X211902117Y-28571554D01*
X211836947Y-28596747D01*
X211768502Y-28582708D01*
X211718514Y-28533893D01*
X211708703Y-28511500D01*
X211705220Y-28500781D01*
X211705218Y-28500778D01*
X211705218Y-28500776D01*
X211666314Y-28424423D01*
X211612287Y-28318390D01*
X211595134Y-28294781D01*
X211491971Y-28152786D01*
X211347213Y-28008028D01*
X211181613Y-27887715D01*
X211181612Y-27887714D01*
X211181610Y-27887713D01*
X211096449Y-27844321D01*
X210999223Y-27794781D01*
X210836567Y-27741931D01*
X210778892Y-27702493D01*
X210751694Y-27638134D01*
X210763609Y-27569288D01*
X210810853Y-27517812D01*
X210874886Y-27500000D01*
X239375500Y-27500000D01*
X239442539Y-27519685D01*
X239488294Y-27572489D01*
X239499500Y-27624000D01*
X239499500Y-34118097D01*
X239536446Y-34351368D01*
X239609433Y-34575996D01*
X239695439Y-34744792D01*
X239716657Y-34786434D01*
X239855483Y-34977510D01*
X242055483Y-37177510D01*
X242222490Y-37344517D01*
X242413567Y-37483343D01*
X242456721Y-37505331D01*
X242624003Y-37590566D01*
X242624005Y-37590566D01*
X242624008Y-37590568D01*
X242731517Y-37625500D01*
X242848631Y-37663553D01*
X243081903Y-37700500D01*
X243081908Y-37700500D01*
X245893283Y-37700500D01*
X245960322Y-37720185D01*
X245968769Y-37726124D01*
X246125116Y-37846093D01*
X246349380Y-37975572D01*
X246349381Y-37975572D01*
X246349384Y-37975574D01*
X246588634Y-38074675D01*
X246838772Y-38141699D01*
X247095519Y-38175500D01*
X247095526Y-38175500D01*
X247354474Y-38175500D01*
X247354481Y-38175500D01*
X247611228Y-38141699D01*
X247861366Y-38074675D01*
X248100616Y-37975574D01*
X248324884Y-37846093D01*
X248530333Y-37688447D01*
X248713447Y-37505333D01*
X248871093Y-37299884D01*
X249000574Y-37075616D01*
X249099675Y-36836366D01*
X249166699Y-36586228D01*
X249200500Y-36329481D01*
X249200500Y-36070519D01*
X249166699Y-35813772D01*
X249099675Y-35563634D01*
X249000574Y-35324384D01*
X248971500Y-35274027D01*
X248871093Y-35100116D01*
X248713448Y-34894668D01*
X248713442Y-34894661D01*
X248530338Y-34711557D01*
X248530331Y-34711551D01*
X248324883Y-34553906D01*
X248100619Y-34424427D01*
X248100609Y-34424423D01*
X247861364Y-34325324D01*
X247736297Y-34291813D01*
X247611228Y-34258301D01*
X247611222Y-34258300D01*
X247611217Y-34258299D01*
X247354491Y-34224501D01*
X247354486Y-34224500D01*
X247354481Y-34224500D01*
X247095519Y-34224500D01*
X247095513Y-34224500D01*
X247095508Y-34224501D01*
X246838782Y-34258299D01*
X246838775Y-34258300D01*
X246838772Y-34258301D01*
X246785908Y-34272465D01*
X246588635Y-34325324D01*
X246349390Y-34424423D01*
X246349380Y-34424427D01*
X246125116Y-34553906D01*
X245968769Y-34673876D01*
X245903600Y-34699070D01*
X245893283Y-34699500D01*
X243872889Y-34699500D01*
X243805850Y-34679815D01*
X243785208Y-34663181D01*
X242536819Y-33414792D01*
X242503334Y-33353469D01*
X242500500Y-33327111D01*
X242500500Y-29391966D01*
X243474500Y-29391966D01*
X243474500Y-31008028D01*
X243474501Y-31008034D01*
X243485113Y-31127415D01*
X243541089Y-31323045D01*
X243541090Y-31323048D01*
X243541091Y-31323049D01*
X243635302Y-31503407D01*
X243636877Y-31505338D01*
X243763890Y-31661109D01*
X243806030Y-31695469D01*
X243921593Y-31789698D01*
X244101951Y-31883909D01*
X244297582Y-31939886D01*
X244416963Y-31950500D01*
X246033036Y-31950499D01*
X246152418Y-31939886D01*
X246348049Y-31883909D01*
X246528407Y-31789698D01*
X246686109Y-31661109D01*
X246814698Y-31503407D01*
X246908909Y-31323049D01*
X246964886Y-31127418D01*
X246975500Y-31008037D01*
X246975499Y-29391964D01*
X246964886Y-29272582D01*
X246908909Y-29076951D01*
X246814698Y-28896593D01*
X246733680Y-28797232D01*
X246686109Y-28738890D01*
X246566689Y-28641517D01*
X246528407Y-28610302D01*
X246348049Y-28516091D01*
X246348048Y-28516090D01*
X246348045Y-28516089D01*
X246230829Y-28482550D01*
X246152418Y-28460114D01*
X246152415Y-28460113D01*
X246152413Y-28460113D01*
X246086102Y-28454217D01*
X246033037Y-28449500D01*
X246033032Y-28449500D01*
X244416971Y-28449500D01*
X244416965Y-28449500D01*
X244416964Y-28449501D01*
X244405316Y-28450536D01*
X244297584Y-28460113D01*
X244101954Y-28516089D01*
X244029560Y-28553905D01*
X243921593Y-28610302D01*
X243921591Y-28610303D01*
X243921590Y-28610304D01*
X243763890Y-28738890D01*
X243635304Y-28896590D01*
X243541089Y-29076954D01*
X243485114Y-29272583D01*
X243485113Y-29272586D01*
X243474500Y-29391966D01*
X242500500Y-29391966D01*
X242500500Y-27550861D01*
X242520185Y-27483822D01*
X242536814Y-27463185D01*
X244160082Y-25839917D01*
X244221401Y-25806435D01*
X244291093Y-25811419D01*
X244309756Y-25820212D01*
X244343885Y-25839917D01*
X244440278Y-25895570D01*
X244440283Y-25895572D01*
X244440286Y-25895574D01*
X244679536Y-25994675D01*
X244929674Y-26061699D01*
X245186421Y-26095500D01*
X245186428Y-26095500D01*
X245445376Y-26095500D01*
X245445383Y-26095500D01*
X245702130Y-26061699D01*
X245952268Y-25994675D01*
X246191518Y-25895574D01*
X246415786Y-25766093D01*
X246621235Y-25608447D01*
X246631202Y-25598480D01*
X246662819Y-25566864D01*
X246724142Y-25533379D01*
X246793834Y-25538363D01*
X246849767Y-25580235D01*
X246874184Y-25645699D01*
X246874500Y-25654545D01*
X246874500Y-26814550D01*
X246860985Y-26870844D01*
X246794779Y-27000780D01*
X246794779Y-27000781D01*
X246731523Y-27195461D01*
X246731523Y-27195464D01*
X246699500Y-27397648D01*
X246699500Y-27602351D01*
X246731522Y-27804534D01*
X246794781Y-27999223D01*
X246858691Y-28124653D01*
X246881842Y-28170088D01*
X246887715Y-28181613D01*
X247008028Y-28347213D01*
X247152786Y-28491971D01*
X247307749Y-28604556D01*
X247318390Y-28612287D01*
X247500781Y-28705220D01*
X247662591Y-28757795D01*
X247720267Y-28797232D01*
X247742204Y-28837407D01*
X247794781Y-28999223D01*
X247887715Y-29181613D01*
X248008028Y-29347213D01*
X248152786Y-29491971D01*
X248307749Y-29604556D01*
X248318390Y-29612287D01*
X248432060Y-29670205D01*
X248500776Y-29705218D01*
X248500778Y-29705218D01*
X248500781Y-29705220D01*
X248578613Y-29730509D01*
X248695465Y-29768477D01*
X248796557Y-29784488D01*
X248897648Y-29800500D01*
X248897649Y-29800500D01*
X249102351Y-29800500D01*
X249102352Y-29800500D01*
X249304534Y-29768477D01*
X249499219Y-29705220D01*
X249681610Y-29612287D01*
X249784703Y-29537386D01*
X249847213Y-29491971D01*
X249847215Y-29491968D01*
X249847219Y-29491966D01*
X249991966Y-29347219D01*
X249991968Y-29347215D01*
X249991971Y-29347213D01*
X250046192Y-29272583D01*
X250112287Y-29181610D01*
X250205220Y-28999219D01*
X250268477Y-28804534D01*
X250300500Y-28602352D01*
X250300500Y-28397648D01*
X250268477Y-28195466D01*
X250268476Y-28195462D01*
X250268476Y-28195461D01*
X250205220Y-28000781D01*
X250205220Y-28000780D01*
X250139015Y-27870844D01*
X250125500Y-27814550D01*
X250125500Y-17517559D01*
X250134144Y-17488118D01*
X250140668Y-17458132D01*
X250144422Y-17453116D01*
X250145185Y-17450520D01*
X250161814Y-17429883D01*
X250279880Y-17311817D01*
X250341202Y-17278334D01*
X250367560Y-17275500D01*
X253194972Y-17275500D01*
X253262011Y-17295185D01*
X253293349Y-17324015D01*
X253309078Y-17344514D01*
X253334271Y-17409683D01*
X253320232Y-17478128D01*
X253309077Y-17495485D01*
X253183067Y-17659706D01*
X253061777Y-17869785D01*
X253061773Y-17869794D01*
X252968947Y-18093895D01*
X252906161Y-18328214D01*
X252874500Y-18568711D01*
X252874500Y-18811288D01*
X252906161Y-19051785D01*
X252968947Y-19286104D01*
X253043447Y-19465962D01*
X253061776Y-19510212D01*
X253183064Y-19720289D01*
X253183066Y-19720292D01*
X253183067Y-19720293D01*
X253309077Y-19884514D01*
X253334271Y-19949683D01*
X253320232Y-20018128D01*
X253309077Y-20035486D01*
X253183067Y-20199706D01*
X253061777Y-20409785D01*
X253061773Y-20409794D01*
X252968947Y-20633895D01*
X252906161Y-20868214D01*
X252874500Y-21108711D01*
X252874500Y-21351288D01*
X252906161Y-21591785D01*
X252968947Y-21826104D01*
X253052429Y-22027647D01*
X253061776Y-22050212D01*
X253183064Y-22260289D01*
X253183066Y-22260292D01*
X253183067Y-22260293D01*
X253309077Y-22424514D01*
X253334271Y-22489683D01*
X253320232Y-22558128D01*
X253309077Y-22575486D01*
X253183067Y-22739706D01*
X253061777Y-22949785D01*
X253061773Y-22949794D01*
X252968947Y-23173895D01*
X252906161Y-23408214D01*
X252874500Y-23648711D01*
X252874500Y-23891288D01*
X252906161Y-24131785D01*
X252968947Y-24366104D01*
X253061773Y-24590205D01*
X253061777Y-24590214D01*
X253067016Y-24599288D01*
X253183064Y-24800289D01*
X253183066Y-24800292D01*
X253183067Y-24800293D01*
X253309077Y-24964514D01*
X253334271Y-25029683D01*
X253320232Y-25098128D01*
X253309077Y-25115486D01*
X253183067Y-25279706D01*
X253061777Y-25489785D01*
X253061773Y-25489794D01*
X252968947Y-25713895D01*
X252906161Y-25948214D01*
X252874500Y-26188711D01*
X252874500Y-26431288D01*
X252906161Y-26671785D01*
X252968947Y-26906104D01*
X253008164Y-27000781D01*
X253061776Y-27130212D01*
X253183064Y-27340289D01*
X253183066Y-27340292D01*
X253183067Y-27340293D01*
X253309077Y-27504514D01*
X253334271Y-27569683D01*
X253320232Y-27638128D01*
X253309077Y-27655486D01*
X253183067Y-27819706D01*
X253061777Y-28029785D01*
X253061773Y-28029794D01*
X252968947Y-28253895D01*
X252906161Y-28488214D01*
X252874500Y-28728711D01*
X252874500Y-28971288D01*
X252902728Y-29185711D01*
X252906162Y-29211789D01*
X252911450Y-29231523D01*
X252968947Y-29446104D01*
X253039516Y-29616472D01*
X253061776Y-29670212D01*
X253183064Y-29880289D01*
X253183066Y-29880292D01*
X253183067Y-29880293D01*
X253309077Y-30044514D01*
X253334271Y-30109683D01*
X253320232Y-30178128D01*
X253309077Y-30195486D01*
X253183067Y-30359706D01*
X253061777Y-30569785D01*
X253061773Y-30569794D01*
X252968947Y-30793895D01*
X252906161Y-31028214D01*
X252874500Y-31268711D01*
X252874500Y-31511288D01*
X252900207Y-31706560D01*
X252906162Y-31751789D01*
X252910789Y-31769057D01*
X252968947Y-31986104D01*
X253055668Y-32195466D01*
X253061776Y-32210212D01*
X253183064Y-32420289D01*
X253183066Y-32420292D01*
X253183067Y-32420293D01*
X253330733Y-32612736D01*
X253330739Y-32612743D01*
X253502256Y-32784260D01*
X253502262Y-32784265D01*
X253694711Y-32931936D01*
X253904788Y-33053224D01*
X254128900Y-33146054D01*
X254363211Y-33208838D01*
X254543586Y-33232584D01*
X254603711Y-33240500D01*
X254603712Y-33240500D01*
X254846289Y-33240500D01*
X254894388Y-33234167D01*
X255086789Y-33208838D01*
X255321100Y-33146054D01*
X255545212Y-33053224D01*
X255755289Y-32931936D01*
X255947738Y-32784265D01*
X256119265Y-32612738D01*
X256266936Y-32420289D01*
X256388224Y-32210212D01*
X256481054Y-31986100D01*
X256543838Y-31751789D01*
X256575500Y-31511288D01*
X256575500Y-31268712D01*
X256543838Y-31028211D01*
X256481054Y-30793900D01*
X256388224Y-30569788D01*
X256266936Y-30359711D01*
X256140922Y-30195486D01*
X256115728Y-30130317D01*
X256129766Y-30061872D01*
X256140922Y-30044514D01*
X256174483Y-30000776D01*
X256266936Y-29880289D01*
X256388224Y-29670212D01*
X256481054Y-29446100D01*
X256543838Y-29211789D01*
X256575500Y-28971288D01*
X256575500Y-28728712D01*
X256543838Y-28488211D01*
X256481054Y-28253900D01*
X256388224Y-28029788D01*
X256266936Y-27819711D01*
X256140922Y-27655486D01*
X256115728Y-27590317D01*
X256129766Y-27521872D01*
X256140922Y-27504514D01*
X256156799Y-27483822D01*
X256266936Y-27340289D01*
X256388224Y-27130212D01*
X256481054Y-26906100D01*
X256543838Y-26671789D01*
X256575500Y-26431288D01*
X256575500Y-26188712D01*
X256543838Y-25948211D01*
X256481054Y-25713900D01*
X256388224Y-25489788D01*
X256266936Y-25279711D01*
X256140922Y-25115486D01*
X256115728Y-25050317D01*
X256129766Y-24981872D01*
X256140922Y-24964514D01*
X256142099Y-24962979D01*
X256266936Y-24800289D01*
X256388224Y-24590212D01*
X256481054Y-24366100D01*
X256543838Y-24131789D01*
X256575500Y-23891288D01*
X256575500Y-23648712D01*
X256543838Y-23408211D01*
X256481054Y-23173900D01*
X256388224Y-22949788D01*
X256266936Y-22739711D01*
X256140922Y-22575486D01*
X256115728Y-22510317D01*
X256129766Y-22441872D01*
X256140922Y-22424514D01*
X256177421Y-22376947D01*
X256266936Y-22260289D01*
X256388224Y-22050212D01*
X256481054Y-21826100D01*
X256543838Y-21591789D01*
X256575500Y-21351288D01*
X256575500Y-21108712D01*
X256543838Y-20868211D01*
X256481054Y-20633900D01*
X256388224Y-20409788D01*
X256266936Y-20199711D01*
X256140922Y-20035486D01*
X256115728Y-19970317D01*
X256129766Y-19901872D01*
X256140922Y-19884514D01*
X256156336Y-19864426D01*
X256266936Y-19720289D01*
X256388224Y-19510212D01*
X256481054Y-19286100D01*
X256543838Y-19051789D01*
X256575500Y-18811288D01*
X256575500Y-18568712D01*
X256570369Y-18529741D01*
X256557854Y-18434675D01*
X256543838Y-18328211D01*
X256481054Y-18093900D01*
X256388224Y-17869788D01*
X256266936Y-17659711D01*
X256140922Y-17495486D01*
X256115728Y-17430317D01*
X256129766Y-17361872D01*
X256140922Y-17344514D01*
X256185478Y-17286447D01*
X256266936Y-17180289D01*
X256388224Y-16970212D01*
X256481054Y-16746100D01*
X256543838Y-16511789D01*
X256575500Y-16271288D01*
X256575500Y-16028712D01*
X256543838Y-15788211D01*
X256481054Y-15553900D01*
X256388224Y-15329788D01*
X256371644Y-15301070D01*
X256335023Y-15237639D01*
X256318550Y-15169739D01*
X256341403Y-15103712D01*
X256346298Y-15097292D01*
X256414698Y-15013407D01*
X256508909Y-14833049D01*
X256564886Y-14637418D01*
X256575500Y-14518037D01*
X256575499Y-12701964D01*
X256564886Y-12582582D01*
X256508909Y-12386951D01*
X256414698Y-12206593D01*
X256337799Y-12112284D01*
X256286109Y-12048890D01*
X256128409Y-11920304D01*
X256128410Y-11920304D01*
X256128407Y-11920302D01*
X255948049Y-11826091D01*
X255948048Y-11826090D01*
X255948045Y-11826089D01*
X255830829Y-11792550D01*
X255752418Y-11770114D01*
X255752415Y-11770113D01*
X255752413Y-11770113D01*
X255686102Y-11764217D01*
X255633037Y-11759500D01*
X255633032Y-11759500D01*
X253816971Y-11759500D01*
X253816965Y-11759500D01*
X253816964Y-11759501D01*
X253805316Y-11760536D01*
X253697584Y-11770113D01*
X253501954Y-11826089D01*
X253411772Y-11873196D01*
X253321593Y-11920302D01*
X253321591Y-11920303D01*
X253321590Y-11920304D01*
X253163890Y-12048890D01*
X253035302Y-12206592D01*
X252941089Y-12386954D01*
X252938899Y-12394611D01*
X252901532Y-12453649D01*
X252838178Y-12483113D01*
X252819683Y-12484500D01*
X249801421Y-12484500D01*
X249647482Y-12508882D01*
X249626443Y-12512214D01*
X249457960Y-12566956D01*
X249457957Y-12566957D01*
X249300110Y-12647385D01*
X249156785Y-12751516D01*
X247266786Y-14641517D01*
X247141519Y-14766783D01*
X247141519Y-14766784D01*
X247141517Y-14766786D01*
X247130336Y-14782176D01*
X247037386Y-14910109D01*
X246979101Y-15024500D01*
X246956957Y-15067957D01*
X246956956Y-15067960D01*
X246902214Y-15236439D01*
X246902214Y-15236442D01*
X246891978Y-15301069D01*
X246891978Y-15301070D01*
X246874500Y-15411416D01*
X246874500Y-22585455D01*
X246854815Y-22652494D01*
X246802011Y-22698249D01*
X246732853Y-22708193D01*
X246669297Y-22679168D01*
X246662819Y-22673136D01*
X246621240Y-22631557D01*
X246621233Y-22631551D01*
X246415785Y-22473906D01*
X246191521Y-22344427D01*
X246191511Y-22344423D01*
X245952266Y-22245324D01*
X245802586Y-22205218D01*
X245702130Y-22178301D01*
X245702124Y-22178300D01*
X245702119Y-22178299D01*
X245445393Y-22144501D01*
X245445388Y-22144500D01*
X245445383Y-22144500D01*
X245186421Y-22144500D01*
X245186418Y-22144500D01*
X245140183Y-22150586D01*
X245071148Y-22139819D01*
X245018893Y-22093438D01*
X245000000Y-22027647D01*
X245000000Y-5892352D01*
X245019685Y-5825313D01*
X245072489Y-5779558D01*
X245140185Y-5769413D01*
X245171867Y-5773583D01*
X245186405Y-5775498D01*
X245186421Y-5775500D01*
X245186428Y-5775500D01*
X245445376Y-5775500D01*
X245445383Y-5775500D01*
X245702130Y-5741699D01*
X245952268Y-5674675D01*
X246191518Y-5575574D01*
X246415786Y-5446093D01*
X246621235Y-5288447D01*
X246804349Y-5105333D01*
X246961995Y-4899884D01*
X247091476Y-4675616D01*
X247190577Y-4436366D01*
X247257601Y-4186228D01*
X247291402Y-3929481D01*
X247291402Y-3670519D01*
X247257601Y-3413772D01*
X247190577Y-3163634D01*
X247091476Y-2924384D01*
X247042013Y-2838712D01*
X246961995Y-2700116D01*
X246804350Y-2494668D01*
X246804344Y-2494661D01*
X246621240Y-2311557D01*
X246621233Y-2311551D01*
X246415785Y-2153906D01*
X246191521Y-2024427D01*
X246191511Y-2024423D01*
X245952268Y-1925325D01*
X245861924Y-1901117D01*
X245802263Y-1864751D01*
X245771735Y-1801904D01*
X245780030Y-1732529D01*
X245806332Y-1693667D01*
X246963181Y-536819D01*
X247024504Y-503334D01*
X247050862Y-500500D01*
X251216254Y-500500D01*
X251283293Y-520185D01*
G37*
%TD.AperFunction*%
%TA.AperFunction,Conductor*%
G36*
X200600703Y-36192846D02*
G01*
X200607181Y-36198878D01*
X200648181Y-36239878D01*
X200681666Y-36301201D01*
X200684500Y-36327559D01*
X200684500Y-38194971D01*
X200664815Y-38262010D01*
X200635988Y-38293345D01*
X200615487Y-38309076D01*
X200550320Y-38334272D01*
X200481875Y-38320235D01*
X200464513Y-38309077D01*
X200444011Y-38293345D01*
X200402810Y-38236916D01*
X200395500Y-38194971D01*
X200395500Y-36286559D01*
X200415185Y-36219520D01*
X200467989Y-36173765D01*
X200537147Y-36163821D01*
X200600703Y-36192846D01*
G37*
%TD.AperFunction*%
%TA.AperFunction,Conductor*%
G36*
X202049480Y-32645185D02*
G01*
X202070122Y-32661819D01*
X203188181Y-33779878D01*
X203221666Y-33841201D01*
X203224500Y-33867559D01*
X203224500Y-34631998D01*
X203204815Y-34699037D01*
X203152011Y-34744792D01*
X203138818Y-34749929D01*
X203000778Y-34794781D01*
X202818387Y-34887714D01*
X202707733Y-34968108D01*
X202641927Y-34991587D01*
X202573873Y-34975761D01*
X202547168Y-34955470D01*
X201552826Y-33961128D01*
X200428877Y-32837180D01*
X200395393Y-32775858D01*
X200400377Y-32706166D01*
X200442249Y-32650233D01*
X200507713Y-32625816D01*
X200516559Y-32625500D01*
X201982441Y-32625500D01*
X202049480Y-32645185D01*
G37*
%TD.AperFunction*%
%TA.AperFunction,Conductor*%
G36*
X183520169Y-25019685D02*
G01*
X183565924Y-25072489D01*
X183572905Y-25091906D01*
X183599282Y-25190346D01*
X183686538Y-25401002D01*
X183686546Y-25401019D01*
X183800551Y-25598480D01*
X183800562Y-25598496D01*
X183939367Y-25779391D01*
X183939373Y-25779398D01*
X184100601Y-25940626D01*
X184100607Y-25940631D01*
X184281512Y-26079444D01*
X184356283Y-26122613D01*
X184360472Y-26127006D01*
X184366209Y-26128992D01*
X184384299Y-26151995D01*
X184404497Y-26173178D01*
X184405646Y-26179139D01*
X184409400Y-26183913D01*
X184412181Y-26213046D01*
X184417721Y-26241785D01*
X184415463Y-26247422D01*
X184416041Y-26253466D01*
X184402631Y-26279478D01*
X184391753Y-26306650D01*
X184386095Y-26311551D01*
X184384025Y-26315569D01*
X184356282Y-26337386D01*
X184308403Y-26365029D01*
X184240503Y-26381502D01*
X184174476Y-26358649D01*
X184168042Y-26353744D01*
X184147982Y-26337387D01*
X184042407Y-26251302D01*
X183862049Y-26157091D01*
X183862048Y-26157090D01*
X183862045Y-26157089D01*
X183741550Y-26122612D01*
X183666418Y-26101114D01*
X183666415Y-26101113D01*
X183666413Y-26101113D01*
X183600102Y-26095217D01*
X183547037Y-26090500D01*
X183547032Y-26090500D01*
X181952971Y-26090500D01*
X181952965Y-26090500D01*
X181952964Y-26090501D01*
X181941316Y-26091536D01*
X181833584Y-26101113D01*
X181637954Y-26157089D01*
X181568332Y-26193457D01*
X181457593Y-26251302D01*
X181457591Y-26251303D01*
X181457590Y-26251304D01*
X181299890Y-26379890D01*
X181171304Y-26537590D01*
X181077089Y-26717954D01*
X181048271Y-26818671D01*
X181026877Y-26893443D01*
X181021114Y-26913583D01*
X181021113Y-26913586D01*
X181020962Y-26915288D01*
X181010500Y-27032963D01*
X181010500Y-27702493D01*
X181010501Y-28250500D01*
X180990816Y-28317539D01*
X180938013Y-28363294D01*
X180886501Y-28374500D01*
X179402739Y-28374500D01*
X179335700Y-28354815D01*
X179289945Y-28302011D01*
X179280266Y-28269898D01*
X179268477Y-28195466D01*
X179205220Y-28000781D01*
X179112287Y-27818390D01*
X179095134Y-27794781D01*
X178991971Y-27652786D01*
X178847213Y-27508028D01*
X178681613Y-27387715D01*
X178681612Y-27387714D01*
X178681610Y-27387713D01*
X178607137Y-27349767D01*
X178499223Y-27294781D01*
X178304534Y-27231522D01*
X178129995Y-27203878D01*
X178102352Y-27199500D01*
X177897648Y-27199500D01*
X177873329Y-27203351D01*
X177695465Y-27231522D01*
X177500776Y-27294781D01*
X177370847Y-27360985D01*
X177314552Y-27374500D01*
X174911421Y-27374500D01*
X174765273Y-27397648D01*
X174765272Y-27397648D01*
X174736443Y-27402213D01*
X174567960Y-27456956D01*
X174503281Y-27489911D01*
X174503282Y-27489912D01*
X174410109Y-27537386D01*
X174391563Y-27550861D01*
X174339649Y-27588579D01*
X174266789Y-27641514D01*
X174266783Y-27641519D01*
X171070122Y-30838181D01*
X171008799Y-30871666D01*
X170982441Y-30874500D01*
X170713183Y-30874500D01*
X170646144Y-30854815D01*
X170600389Y-30802011D01*
X170590445Y-30732853D01*
X170608189Y-30684528D01*
X170610021Y-30681613D01*
X170716945Y-30511445D01*
X170838801Y-30258408D01*
X170931560Y-29993318D01*
X170994055Y-29719509D01*
X170999610Y-29670212D01*
X171018875Y-29499223D01*
X171025500Y-29440425D01*
X171025500Y-29159575D01*
X171007432Y-28999219D01*
X170994057Y-28880505D01*
X170994054Y-28880487D01*
X170979879Y-28818384D01*
X170931560Y-28606682D01*
X170838801Y-28341592D01*
X170716945Y-28088555D01*
X170567523Y-27850752D01*
X170392416Y-27631175D01*
X170193825Y-27432584D01*
X169974248Y-27257477D01*
X169771708Y-27130212D01*
X169736442Y-27108053D01*
X169483411Y-26986200D01*
X169218329Y-26893443D01*
X169218317Y-26893439D01*
X168944512Y-26830945D01*
X168944494Y-26830942D01*
X168665431Y-26799500D01*
X168665425Y-26799500D01*
X168384575Y-26799500D01*
X168384568Y-26799500D01*
X168105505Y-26830942D01*
X168105487Y-26830945D01*
X167959600Y-26864243D01*
X167889861Y-26859970D01*
X167833504Y-26818671D01*
X167808421Y-26753459D01*
X167822576Y-26685038D01*
X167844321Y-26655678D01*
X169463681Y-25036319D01*
X169525004Y-25002834D01*
X169551362Y-25000000D01*
X183453130Y-25000000D01*
X183520169Y-25019685D01*
G37*
%TD.AperFunction*%
%TA.AperFunction,Conductor*%
G36*
X195015677Y-25019685D02*
G01*
X195036319Y-25036319D01*
X197162819Y-27162819D01*
X197196304Y-27224142D01*
X197191320Y-27293834D01*
X197149448Y-27349767D01*
X197083984Y-27374184D01*
X197075138Y-27374500D01*
X190685448Y-27374500D01*
X190629153Y-27360985D01*
X190499223Y-27294781D01*
X190304534Y-27231522D01*
X190129995Y-27203878D01*
X190102352Y-27199500D01*
X189897648Y-27199500D01*
X189873329Y-27203351D01*
X189695465Y-27231522D01*
X189500776Y-27294781D01*
X189318386Y-27387715D01*
X189152786Y-27508028D01*
X189008028Y-27652786D01*
X188887715Y-27818386D01*
X188794781Y-28000778D01*
X188731522Y-28195468D01*
X188731522Y-28195469D01*
X188730884Y-28199500D01*
X188721571Y-28258302D01*
X188719734Y-28269898D01*
X188689805Y-28333033D01*
X188630493Y-28369964D01*
X188597261Y-28374500D01*
X187066564Y-28374500D01*
X186999525Y-28354815D01*
X186953770Y-28302011D01*
X186943826Y-28232853D01*
X186946789Y-28218407D01*
X186952935Y-28195468D01*
X186959736Y-28170088D01*
X186989500Y-27944013D01*
X186989500Y-27715987D01*
X186959736Y-27489912D01*
X186900719Y-27269656D01*
X186813457Y-27058988D01*
X186813455Y-27058985D01*
X186813453Y-27058980D01*
X186699448Y-26861519D01*
X186699444Y-26861512D01*
X186560631Y-26680607D01*
X186560626Y-26680601D01*
X186399398Y-26519373D01*
X186399391Y-26519367D01*
X186218496Y-26380562D01*
X186218494Y-26380561D01*
X186218488Y-26380556D01*
X186143716Y-26337386D01*
X186095501Y-26286820D01*
X186082278Y-26218213D01*
X186108246Y-26153348D01*
X186143717Y-26122613D01*
X186143719Y-26122612D01*
X186218488Y-26079444D01*
X186399393Y-25940631D01*
X186560631Y-25779393D01*
X186699444Y-25598488D01*
X186813457Y-25401012D01*
X186900719Y-25190344D01*
X186927095Y-25091905D01*
X186963460Y-25032246D01*
X187026307Y-25001717D01*
X187046870Y-25000000D01*
X194948638Y-25000000D01*
X195015677Y-25019685D01*
G37*
%TD.AperFunction*%
%TA.AperFunction,Conductor*%
G36*
X147342222Y-19401234D02*
G01*
X147355053Y-19400711D01*
X147374683Y-19412223D01*
X147396239Y-19419520D01*
X147411327Y-19433712D01*
X147415323Y-19436056D01*
X147421947Y-19443702D01*
X147541594Y-19593736D01*
X147541600Y-19593742D01*
X147541601Y-19593743D01*
X147731257Y-19783399D01*
X147940955Y-19950628D01*
X147941965Y-19951263D01*
X147942161Y-19951484D01*
X147943789Y-19952639D01*
X147943519Y-19953019D01*
X147988258Y-20003591D01*
X148000000Y-20056260D01*
X148000000Y-23943739D01*
X147980315Y-24010778D01*
X147943609Y-24047117D01*
X147943630Y-24047147D01*
X147943675Y-24047203D01*
X147943671Y-24047205D01*
X147943785Y-24047365D01*
X147942284Y-24048429D01*
X147941989Y-24048722D01*
X147940964Y-24049366D01*
X147940948Y-24049377D01*
X147731257Y-24216600D01*
X147541600Y-24406257D01*
X147421947Y-24556298D01*
X147364759Y-24596438D01*
X147294947Y-24599288D01*
X147234677Y-24563943D01*
X147228053Y-24556298D01*
X147108399Y-24406257D01*
X146918742Y-24216600D01*
X146800332Y-24122171D01*
X146709045Y-24049372D01*
X146481941Y-23906673D01*
X146481938Y-23906671D01*
X146240289Y-23790299D01*
X145987126Y-23701714D01*
X145987124Y-23701713D01*
X145754906Y-23648711D01*
X145725635Y-23642030D01*
X145725632Y-23642029D01*
X145725620Y-23642027D01*
X145459113Y-23612000D01*
X145459107Y-23612000D01*
X145351329Y-23612000D01*
X145284290Y-23592315D01*
X145238535Y-23539511D01*
X145228591Y-23470353D01*
X145254381Y-23410688D01*
X145256356Y-23408211D01*
X145275628Y-23384045D01*
X145418327Y-23156941D01*
X145534701Y-22915288D01*
X145623286Y-22662125D01*
X145682970Y-22400635D01*
X145689238Y-22345009D01*
X145700469Y-22245324D01*
X145713000Y-22134107D01*
X145713000Y-21865893D01*
X145694548Y-21702127D01*
X145682972Y-21599379D01*
X145682971Y-21599374D01*
X145682970Y-21599365D01*
X145623286Y-21337875D01*
X145534701Y-21084712D01*
X145418327Y-20843059D01*
X145275628Y-20615955D01*
X145254381Y-20589312D01*
X145227973Y-20524625D01*
X145240730Y-20455930D01*
X145288601Y-20405036D01*
X145351329Y-20388000D01*
X145459110Y-20388000D01*
X145459111Y-20387999D01*
X145595317Y-20372652D01*
X145725620Y-20357972D01*
X145725623Y-20357971D01*
X145725635Y-20357970D01*
X145987125Y-20298286D01*
X146240288Y-20209701D01*
X146481941Y-20093327D01*
X146709045Y-19950628D01*
X146918743Y-19783399D01*
X147108399Y-19593743D01*
X147140266Y-19553784D01*
X147228053Y-19443702D01*
X147246677Y-19430629D01*
X147262271Y-19414051D01*
X147274730Y-19410938D01*
X147285241Y-19403561D01*
X147307978Y-19402632D01*
X147330058Y-19397117D01*
X147342222Y-19401234D01*
G37*
%TD.AperFunction*%
%TD*%
M02*
