%TF.GenerationSoftware,KiCad,Pcbnew,10.0.3*%
%TF.CreationDate,2026-08-29T23:37:03-07:00*%
%TF.ProjectId,IOBoard,494f426f-6172-4642-9e6b-696361645f70,rev?*%
%TF.SameCoordinates,Original*%
%TF.FileFunction,Other,User*%
%FSLAX46Y46*%
G04 Gerber Fmt 4.6, Leading zero omitted, Abs format (unit mm)*
G04 Created by KiCad (PCBNEW 10.0.3) date 2026-08-29 23:37:03*
%MOMM*%
%LPD*%
G01*
G04 APERTURE LIST*
%ADD10C,0.050000*%
%ADD11C,0.100000*%
G04 APERTURE END LIST*
%TO.C,H2*%
D10*
X10500000Y-39500000D02*
G75*
G02*
X500000Y-39500000I-5000000J0D01*
G01*
X500000Y-39500000D02*
G75*
G02*
X10500000Y-39500000I5000000J0D01*
G01*
%TO.C,J7*%
X187340000Y-37955000D02*
X208660000Y-37955000D01*
X208660000Y-44045000D01*
X187340000Y-44045000D01*
X187340000Y-37955000D01*
%TO.C,H6*%
X185000000Y-39500000D02*
G75*
G02*
X175000000Y-39500000I-5000000J0D01*
G01*
X175000000Y-39500000D02*
G75*
G02*
X185000000Y-39500000I5000000J0D01*
G01*
%TO.C,H4*%
X90000000Y-39500000D02*
G75*
G02*
X80000000Y-39500000I-5000000J0D01*
G01*
X80000000Y-39500000D02*
G75*
G02*
X90000000Y-39500000I5000000J0D01*
G01*
%TO.C,H8*%
X259500000Y-39500000D02*
G75*
G02*
X249500000Y-39500000I-5000000J0D01*
G01*
X249500000Y-39500000D02*
G75*
G02*
X259500000Y-39500000I5000000J0D01*
G01*
%TO.C,H1*%
X10500000Y-5500000D02*
G75*
G02*
X500000Y-5500000I-5000000J0D01*
G01*
X500000Y-5500000D02*
G75*
G02*
X10500000Y-5500000I5000000J0D01*
G01*
%TO.C,H3*%
X90000000Y-5500000D02*
G75*
G02*
X80000000Y-5500000I-5000000J0D01*
G01*
X80000000Y-5500000D02*
G75*
G02*
X90000000Y-5500000I5000000J0D01*
G01*
%TO.C,C188*%
X200920000Y-34600000D02*
X205880000Y-34600000D01*
X205880000Y-37800000D01*
X200920000Y-37800000D01*
X200920000Y-34600000D01*
%TO.C,H5*%
X185000000Y-5500000D02*
G75*
G02*
X175000000Y-5500000I-5000000J0D01*
G01*
X175000000Y-5500000D02*
G75*
G02*
X185000000Y-5500000I5000000J0D01*
G01*
%TO.C,U6*%
X120290000Y-37500000D02*
X131390000Y-37500000D01*
X131390000Y-44500000D01*
X120290000Y-44500000D01*
X120290000Y-37500000D01*
%TO.C,D3*%
X186625000Y-925000D02*
X193375000Y-925000D01*
X186625000Y-10575000D02*
X186625000Y-925000D01*
X193375000Y-925000D02*
X193375000Y-10575000D01*
X193375000Y-10575000D02*
X186625000Y-10575000D01*
%TO.C,J1*%
D11*
X175255000Y-19500000D02*
X192745000Y-19500000D01*
X175255000Y-32500000D02*
X175255000Y-19500000D01*
X192745000Y-19500000D02*
X192745000Y-32500000D01*
X192745000Y-32500000D02*
X175255000Y-32500000D01*
%TO.C,J6*%
X95225000Y-3200000D02*
X174775000Y-3200000D01*
X95225000Y-37300000D02*
X95225000Y-3200000D01*
X174775000Y-3200000D02*
X174775000Y-37300000D01*
X174775000Y-37300000D02*
X95225000Y-37300000D01*
%TO.C,H7*%
D10*
X259500000Y-5500000D02*
G75*
G02*
X249500000Y-5500000I-5000000J0D01*
G01*
X249500000Y-5500000D02*
G75*
G02*
X259500000Y-5500000I5000000J0D01*
G01*
%TO.C,J13*%
X52190000Y-38680000D02*
X60810000Y-38680000D01*
X60810000Y-44770000D01*
X52190000Y-44770000D01*
X52190000Y-38680000D01*
%TO.C,J14*%
X147230000Y-38230000D02*
X173630000Y-38230000D01*
X147230000Y-44310000D02*
X147230000Y-38230000D01*
X173630000Y-38230000D02*
X173630000Y-44310000D01*
X173630000Y-44310000D02*
X147230000Y-44310000D01*
%TO.C,J10*%
X52190000Y-1180000D02*
X60810000Y-1180000D01*
X60810000Y-7270000D01*
X52190000Y-7270000D01*
X52190000Y-1180000D01*
%TO.C,J12*%
X252955000Y-11840000D02*
X259045000Y-11840000D01*
X259045000Y-33160000D01*
X252955000Y-33160000D01*
X252955000Y-11840000D01*
%TO.C,J2*%
X79525000Y-18603999D02*
X90685000Y-18603999D01*
X79525000Y-24683999D02*
X79525000Y-18603999D01*
X90685000Y-18603999D02*
X90685000Y-24683999D01*
X90685000Y-24683999D02*
X79525000Y-24683999D01*
%TD*%
M02*
