%TF.GenerationSoftware,KiCad,Pcbnew,10.0.3*%
%TF.CreationDate,2026-07-15T18:10:45-07:00*%
%TF.ProjectId,IOBoard,494f426f-6172-4642-9e6b-696361645f70,rev?*%
%TF.SameCoordinates,Original*%
%TF.FileFunction,Copper,L1,Top*%
%TF.FilePolarity,Positive*%
%FSLAX46Y46*%
G04 Gerber Fmt 4.6, Leading zero omitted, Abs format (unit mm)*
G04 Created by KiCad (PCBNEW 10.0.3) date 2026-07-15 18:10:45*
%MOMM*%
%LPD*%
G01*
G04 APERTURE LIST*
G04 Aperture macros list*
%AMRoundRect*
0 Rectangle with rounded corners*
0 $1 Rounding radius*
0 $2 $3 $4 $5 $6 $7 $8 $9 X,Y pos of 4 corners*
0 Add a 4 corners polygon primitive as box body*
4,1,4,$2,$3,$4,$5,$6,$7,$8,$9,$2,$3,0*
0 Add four circle primitives for the rounded corners*
1,1,$1+$1,$2,$3*
1,1,$1+$1,$4,$5*
1,1,$1+$1,$6,$7*
1,1,$1+$1,$8,$9*
0 Add four rect primitives between the rounded corners*
20,1,$1+$1,$2,$3,$4,$5,0*
20,1,$1+$1,$4,$5,$6,$7,0*
20,1,$1+$1,$6,$7,$8,$9,0*
20,1,$1+$1,$8,$9,$2,$3,0*%
G04 Aperture macros list end*
%TA.AperFunction,ComponentPad*%
%ADD10R,1.500000X1.500000*%
%TD*%
%TA.AperFunction,ComponentPad*%
%ADD11C,1.950000*%
%TD*%
%TA.AperFunction,ComponentPad*%
%ADD12C,1.500000*%
%TD*%
%TA.AperFunction,ComponentPad*%
%ADD13C,9.500000*%
%TD*%
%TA.AperFunction,SMDPad,CuDef*%
%ADD14R,1.850000X3.500000*%
%TD*%
%TA.AperFunction,ComponentPad*%
%ADD15R,1.700000X1.700000*%
%TD*%
%TA.AperFunction,ComponentPad*%
%ADD16C,1.700000*%
%TD*%
%TA.AperFunction,ComponentPad*%
%ADD17C,1.217000*%
%TD*%
%TA.AperFunction,SMDPad,CuDef*%
%ADD18R,3.500000X1.850000*%
%TD*%
%TA.AperFunction,SMDPad,CuDef*%
%ADD19RoundRect,0.250000X-0.412500X-1.100000X0.412500X-1.100000X0.412500X1.100000X-0.412500X1.100000X0*%
%TD*%
%TA.AperFunction,SMDPad,CuDef*%
%ADD20RoundRect,0.200000X0.900000X0.200000X-0.900000X0.200000X-0.900000X-0.200000X0.900000X-0.200000X0*%
%TD*%
%TA.AperFunction,SMDPad,CuDef*%
%ADD21RoundRect,0.249997X2.950003X2.650003X-2.950003X2.650003X-2.950003X-2.650003X2.950003X-2.650003X0*%
%TD*%
%TA.AperFunction,SMDPad,CuDef*%
%ADD22R,3.200000X2.250000*%
%TD*%
%TA.AperFunction,ComponentPad*%
%ADD23R,1.478000X1.478000*%
%TD*%
%TA.AperFunction,ComponentPad*%
%ADD24C,1.478000*%
%TD*%
%TA.AperFunction,ComponentPad*%
%ADD25C,3.450000*%
%TD*%
%TA.AperFunction,ComponentPad*%
%ADD26C,2.775000*%
%TD*%
%TA.AperFunction,ComponentPad*%
%ADD27C,3.000000*%
%TD*%
%TA.AperFunction,SMDPad,CuDef*%
%ADD28R,1.000000X0.400000*%
%TD*%
%TA.AperFunction,ViaPad*%
%ADD29C,0.600000*%
%TD*%
%TA.AperFunction,Conductor*%
%ADD30C,0.250000*%
%TD*%
%TA.AperFunction,Conductor*%
%ADD31C,1.000000*%
%TD*%
%TA.AperFunction,Conductor*%
%ADD32C,0.500000*%
%TD*%
G04 APERTURE END LIST*
D10*
%TO.P,K2,1,COIL_1_1*%
%TO.N,Net-(IC10-C1{slash}A1)*%
X225225000Y-30200000D03*
D11*
%TO.P,K2,2,NO_2*%
%TO.N,/VIN_FUSED_Z*%
X213025000Y-30200000D03*
%TO.P,K2,3,NC_3*%
%TO.N,unconnected-(K2-NC-Pad3)*%
X213025000Y-42200000D03*
D12*
%TO.P,K2,4,COIL_2_4*%
%TO.N,/+5V_A*%
X225225000Y-42200000D03*
D11*
%TO.P,K2,5,COM_5*%
%TO.N,/O_+VIN_SWITCHED_Z*%
X227225000Y-36200000D03*
%TD*%
D13*
%TO.P,H2,1*%
%TO.N,N/C*%
X5500000Y-39500000D03*
%TD*%
D14*
%TO.P,C47,1,+_1*%
%TO.N,/+12V_A*%
X114000000Y-42650000D03*
%TO.P,C47,2,-_2*%
%TO.N,/GND_A*%
X114000000Y-37350000D03*
%TD*%
%TO.P,C48,1,+_1*%
%TO.N,/+12V_A*%
X98000000Y-42650000D03*
%TO.P,C48,2,-_2*%
%TO.N,/GND_A*%
X98000000Y-37350000D03*
%TD*%
D15*
%TO.P,J7,1,Pin_1_1*%
%TO.N,/HALL_U_ENCODER_SIN_IN_A*%
X206890000Y-39725000D03*
D16*
%TO.P,J7,2,Pin_2_2*%
%TO.N,/+5V_A*%
X206890000Y-42265000D03*
%TO.P,J7,3,Pin_3_3*%
%TO.N,/HALL_V_ENCODER_COS_IN_A*%
X204350000Y-39725000D03*
%TO.P,J7,4,Pin_4_4*%
%TO.N,/GND_A*%
X204350000Y-42265000D03*
%TO.P,J7,5,Pin_5_5*%
%TO.N,/HALL_W_IN_A*%
X201810000Y-39725000D03*
%TO.P,J7,6,Pin_6_6*%
%TO.N,/GND_A*%
X201810000Y-42265000D03*
%TO.P,J7,7,Pin_7_7*%
%TO.N,/MOTOR_TEMP_IN_A*%
X199270000Y-39725000D03*
%TO.P,J7,8,Pin_8_8*%
%TO.N,/GND_A*%
X199270000Y-42265000D03*
%TO.P,J7,9,Pin_9_9*%
%TO.N,/THROTTLE1_IN_A*%
X196730000Y-39725000D03*
%TO.P,J7,10,Pin_10_10*%
%TO.N,/GND_A*%
X196730000Y-42265000D03*
%TO.P,J7,11,Pin_11_11*%
%TO.N,/THROTTLE2_IN_A*%
X194190000Y-39725000D03*
%TO.P,J7,12,Pin_12_12*%
%TO.N,/GND_A*%
X194190000Y-42265000D03*
%TO.P,J7,13,Pin_13_13*%
%TO.N,/DOUT1_A*%
X191650000Y-39725000D03*
%TO.P,J7,14,Pin_14_14*%
%TO.N,/DOUT2_A*%
X191650000Y-42265000D03*
%TO.P,J7,15,Pin_15_15*%
%TO.N,/DOUT3_A*%
X189110000Y-39725000D03*
%TO.P,J7,16,Pin_16_16*%
%TO.N,/DOUT4_A*%
X189110000Y-42265000D03*
%TD*%
D13*
%TO.P,H6,1*%
%TO.N,N/C*%
X180000000Y-39500000D03*
%TD*%
%TO.P,H4,1*%
%TO.N,N/C*%
X85000000Y-39500000D03*
%TD*%
D14*
%TO.P,C42,1,+_1*%
%TO.N,/+12V_A*%
X197000000Y-35050000D03*
%TO.P,C42,2,-_2*%
%TO.N,/GND_A*%
X197000000Y-29750000D03*
%TD*%
D13*
%TO.P,H8,1*%
%TO.N,N/C*%
X254500000Y-39500000D03*
%TD*%
D17*
%TO.P,F1,1*%
%TO.N,/I_+VIN_Z*%
X178450000Y-14000000D03*
%TO.P,F1,2*%
%TO.N,Net-(D3-A)*%
X183550000Y-14000000D03*
%TD*%
D13*
%TO.P,H1,1*%
%TO.N,N/C*%
X5500000Y-5500000D03*
%TD*%
D18*
%TO.P,C49,1,+_1*%
%TO.N,/+12V_A*%
X137350000Y-40000000D03*
%TO.P,C49,2,-_2*%
%TO.N,/GND_A*%
X142650000Y-40000000D03*
%TD*%
D13*
%TO.P,H3,1*%
%TO.N,N/C*%
X85000000Y-5500000D03*
%TD*%
D19*
%TO.P,C188,1*%
%TO.N,/GND_A*%
X201837500Y-36200000D03*
%TO.P,C188,2*%
%TO.N,/+5V_A*%
X204962500Y-36200000D03*
%TD*%
D13*
%TO.P,H5,1*%
%TO.N,N/C*%
X180000000Y-5500000D03*
%TD*%
D20*
%TO.P,U6,1,GND_1*%
%TO.N,/GND_A*%
X130040000Y-42280000D03*
%TO.P,U6,2,IN_2*%
%TO.N,/DOUT4_A*%
X130040000Y-41140000D03*
D21*
%TO.P,U6,3,Vbb_3*%
%TO.N,/+12V_A*%
X123740000Y-40000000D03*
D20*
%TO.P,U6,4,NC_4*%
%TO.N,unconnected-(U6-NC-Pad4)*%
X130040000Y-38860000D03*
%TO.P,U6,5,OUT_5*%
%TO.N,/+12V_SWITCHED_A*%
X130040000Y-37720000D03*
%TD*%
D22*
%TO.P,D3,1,K_1*%
%TO.N,/VIN_FUSED_Z*%
X190000000Y-2300000D03*
%TO.P,D3,2,A_2*%
%TO.N,Net-(D3-A)*%
X190000000Y-9200000D03*
%TD*%
D23*
%TO.P,J1,1,VBUS_1*%
%TO.N,unconnected-(J1-VBUS-Pad1)*%
X182750000Y-27830000D03*
D24*
%TO.P,J1,2,D-_2*%
%TO.N,/USB_DM*%
X185250000Y-27830000D03*
%TO.P,J1,3,D+_3*%
%TO.N,/USB_DP*%
X185250000Y-24630000D03*
%TO.P,J1,4,GND_4*%
%TO.N,/GND_A*%
X182750000Y-24630000D03*
D25*
%TO.P,J1,MH1,MH1_MH1*%
X190020000Y-25330000D03*
%TO.P,J1,MH2,MH2_MH2*%
X177980000Y-25330000D03*
%TD*%
D26*
%TO.P,J6,1,1_1*%
%TO.N,/CAN1_GND*%
X113325000Y-14750000D03*
%TO.P,J6,2,2_2*%
%TO.N,/CAN1_LOW*%
X117325000Y-14750000D03*
%TO.P,J6,3,3_3*%
%TO.N,/CAN1_HIGH*%
X121325000Y-14750000D03*
%TO.P,J6,4,4_4*%
%TO.N,/CAN1_+5V*%
X125325000Y-14750000D03*
%TO.P,J6,5,5_5*%
%TO.N,unconnected-(J6-Pad5)*%
X129325000Y-14750000D03*
%TO.P,J6,6,6_6*%
%TO.N,/THROTTLE2_IN_A*%
X133325000Y-14750000D03*
%TO.P,J6,7,7_7*%
%TO.N,/THROTTLE1_IN_A*%
X137325000Y-14750000D03*
%TO.P,J6,8,8_8*%
%TO.N,/GND_A*%
X141325000Y-14750000D03*
%TO.P,J6,9,9_9*%
%TO.N,/+5V_A*%
X145325000Y-14750000D03*
%TO.P,J6,10,10_10*%
%TO.N,/DIN_2_W*%
X149325000Y-14750000D03*
%TO.P,J6,11,11_11*%
%TO.N,unconnected-(J6-Pad11)*%
X153325000Y-14750000D03*
%TO.P,J6,12,12_12*%
%TO.N,/I_+VIN_Z*%
X157325000Y-14750000D03*
%TO.P,J6,13,13_13*%
%TO.N,/CAN1_JUMPER_A*%
X115325000Y-18750000D03*
%TO.P,J6,14,14_14*%
%TO.N,/CAN1_JUMPER_B*%
X119325000Y-18750000D03*
%TO.P,J6,15,15_15*%
%TO.N,/CAN2_JUMPER_A*%
X123325000Y-18750000D03*
%TO.P,J6,16,16_16*%
%TO.N,/CAN2_JUMPER_B*%
X127325000Y-18750000D03*
%TO.P,J6,17,17_17*%
%TO.N,/+12V_SWITCHED_A*%
X131325000Y-18750000D03*
%TO.P,J6,18,18_18*%
%TO.N,/DIN_1_W*%
X135325000Y-18750000D03*
%TO.P,J6,19,19_19*%
%TO.N,/GND_A*%
X139325000Y-18750000D03*
%TO.P,J6,20,20_20*%
%TO.N,/DIN_1_W*%
X143325000Y-18750000D03*
%TO.P,J6,21,21_21*%
%TO.N,/GND_A*%
X147325000Y-18750000D03*
%TO.P,J6,22,22_22*%
%TO.N,unconnected-(J6-Pad22)*%
X151325000Y-18750000D03*
%TO.P,J6,23,23_23*%
%TO.N,/O_PRECHARGE_DC_LINK_+_Z*%
X155325000Y-18750000D03*
%TO.P,J6,24,24_24*%
%TO.N,/CAN2_GND*%
X113325000Y-22750000D03*
%TO.P,J6,25,25_25*%
%TO.N,/CAN2_LOW*%
X117325000Y-22750000D03*
%TO.P,J6,26,26_26*%
%TO.N,/CAN2_HIGH*%
X121325000Y-22750000D03*
%TO.P,J6,27,27_27*%
%TO.N,/CAN2_+5V*%
X125325000Y-22750000D03*
%TO.P,J6,28,28_28*%
%TO.N,/MOTOR_TEMP_IN_A*%
X129325000Y-22750000D03*
%TO.P,J6,29,29_29*%
%TO.N,/HALL_W_IN_A*%
X133325000Y-22750000D03*
%TO.P,J6,30,30_30*%
%TO.N,/HALL_V_ENCODER_COS_IN_A*%
X137325000Y-22750000D03*
%TO.P,J6,31,31_31*%
%TO.N,/HALL_U_ENCODER_SIN_IN_A*%
X141325000Y-22750000D03*
%TO.P,J6,32,32_32*%
%TO.N,/+5V_A*%
X145325000Y-22750000D03*
%TO.P,J6,33,33_33*%
%TO.N,unconnected-(J6-Pad33)*%
X149325000Y-22750000D03*
%TO.P,J6,34,34_34*%
%TO.N,/O_+VIN_SWITCHED_Z*%
X153325000Y-22750000D03*
%TO.P,J6,35,35_35*%
%TO.N,/GND_Z*%
X157325000Y-22750000D03*
D27*
%TO.P,J6,MH1,MH1_MH1*%
%TO.N,unconnected-(J6-PadMH1)*%
X103625000Y-7950000D03*
%TO.P,J6,MH2,MH2_MH2*%
%TO.N,unconnected-(J6-PadMH2)*%
X102125000Y-26050000D03*
%TO.P,J6,MH3,MH3_MH3*%
%TO.N,unconnected-(J6-PadMH3)*%
X168525000Y-26050000D03*
%TO.P,J6,MH4,MH4_MH4*%
%TO.N,unconnected-(J6-PadMH4)*%
X167025000Y-7950000D03*
%TD*%
D13*
%TO.P,H7,1*%
%TO.N,N/C*%
X254500000Y-5500000D03*
%TD*%
D15*
%TO.P,J13,1,Pin_1_1*%
%TO.N,/CAN2_JUMPER_A*%
X53960000Y-43000000D03*
D16*
%TO.P,J13,2,Pin_2_2*%
%TO.N,/CAN2_JUMPER_B*%
X53960000Y-40460000D03*
%TO.P,J13,3,Pin_3_3*%
%TO.N,/CAN2_+5V*%
X56500000Y-43000000D03*
%TO.P,J13,4,Pin_4_4*%
%TO.N,/CAN2_GND*%
X56500000Y-40460000D03*
%TO.P,J13,5,Pin_5_5*%
%TO.N,/CAN2_LOW*%
X59040000Y-43000000D03*
%TO.P,J13,6,Pin_6_6*%
%TO.N,/CAN2_HIGH*%
X59040000Y-40460000D03*
%TD*%
D15*
%TO.P,J14,1,Pin_1_1*%
%TO.N,/GND_A*%
X149000000Y-40000000D03*
D16*
%TO.P,J14,2,Pin_2_2*%
%TO.N,/MP_SWO*%
X149000000Y-42540000D03*
%TO.P,J14,3,Pin_3_3*%
%TO.N,/MP_BOOTSEL*%
X151540000Y-40000000D03*
%TO.P,J14,4,Pin_4_4*%
%TO.N,/MP_SWCLK*%
X151540000Y-42540000D03*
%TO.P,J14,5,Pin_5_5*%
%TO.N,/MP_SWDIO*%
X154080000Y-40000000D03*
%TO.P,J14,6,Pin_6_6*%
%TO.N,/MP_RESET*%
X154080000Y-42540000D03*
%TO.P,J14,7,Pin_7_7*%
%TO.N,/GND_A*%
X156620000Y-40000000D03*
%TO.P,J14,8,Pin_8_8*%
%TO.N,/USB_DP*%
X156620000Y-42540000D03*
%TO.P,J14,9,Pin_9_9*%
%TO.N,/MD_FIBER_TX*%
X159160000Y-40000000D03*
%TO.P,J14,10,Pin_10_10*%
%TO.N,/MD_FIBER_RX*%
X159160000Y-42540000D03*
%TO.P,J14,11,Pin_11_11*%
%TO.N,/FAULT*%
X161700000Y-40000000D03*
%TO.P,J14,12,Pin_12_12*%
%TO.N,/MD_FIBER_SYNC*%
X161700000Y-42540000D03*
%TO.P,J14,13,Pin_13_13*%
%TO.N,/USB_DM*%
X164240000Y-40000000D03*
%TO.P,J14,14,Pin_14_14*%
%TO.N,/+3.3V_A*%
X164240000Y-42540000D03*
%TO.P,J14,15,Pin_15_15*%
%TO.N,/CP_RESET*%
X166780000Y-40000000D03*
%TO.P,J14,16,Pin_16_16*%
%TO.N,/CP_SWDIO*%
X166780000Y-42540000D03*
%TO.P,J14,17,Pin_17_17*%
%TO.N,/CP_SWCLK*%
X169320000Y-40000000D03*
%TO.P,J14,18,Pin_18_18*%
%TO.N,/CP_BOOTSEL*%
X169320000Y-42540000D03*
%TO.P,J14,19,Pin_19_19*%
%TO.N,/GND_A*%
X171860000Y-40000000D03*
%TO.P,J14,20,Pin_20_20*%
%TO.N,/+12V_A*%
X171860000Y-42540000D03*
%TD*%
D15*
%TO.P,J10,1,Pin_1_1*%
%TO.N,/CAN1_JUMPER_A*%
X53960000Y-5500000D03*
D16*
%TO.P,J10,2,Pin_2_2*%
%TO.N,/CAN1_JUMPER_B*%
X53960000Y-2960000D03*
%TO.P,J10,3,Pin_3_3*%
%TO.N,/CAN1_+5V*%
X56500000Y-5500000D03*
%TO.P,J10,4,Pin_4_4*%
%TO.N,/CAN1_GND*%
X56500000Y-2960000D03*
%TO.P,J10,5,Pin_5_5*%
%TO.N,/CAN1_LOW*%
X59040000Y-5500000D03*
%TO.P,J10,6,Pin_6_6*%
%TO.N,/CAN1_HIGH*%
X59040000Y-2960000D03*
%TD*%
D15*
%TO.P,J12,1,Pin_1_1*%
%TO.N,/DIN_1_W*%
X254725000Y-13610000D03*
D16*
%TO.P,J12,2,Pin_2_2*%
%TO.N,/GND_A*%
X257265000Y-13610000D03*
%TO.P,J12,3,Pin_3_3*%
%TO.N,/DIN_2_W*%
X254725000Y-16150000D03*
%TO.P,J12,4,Pin_4_4*%
%TO.N,/GND_A*%
X257265000Y-16150000D03*
%TO.P,J12,5,Pin_5_5*%
%TO.N,/DIN_3_W*%
X254725000Y-18690000D03*
%TO.P,J12,6,Pin_6_6*%
%TO.N,/GND_A*%
X257265000Y-18690000D03*
%TO.P,J12,7,Pin_7_7*%
%TO.N,/DIN_4_W*%
X254725000Y-21230000D03*
%TO.P,J12,8,Pin_8_8*%
%TO.N,/GND_A*%
X257265000Y-21230000D03*
%TO.P,J12,9,Pin_9_9*%
%TO.N,/DIN_5_W*%
X254725000Y-23770000D03*
%TO.P,J12,10,Pin_10_10*%
%TO.N,/GND_A*%
X257265000Y-23770000D03*
%TO.P,J12,11,Pin_11_11*%
%TO.N,/DIN_6_W*%
X254725000Y-26310000D03*
%TO.P,J12,12,Pin_12_12*%
%TO.N,/GND_A*%
X257265000Y-26310000D03*
%TO.P,J12,13,Pin_13_13*%
%TO.N,/DIN_7_W*%
X254725000Y-28850000D03*
%TO.P,J12,14,Pin_14_14*%
%TO.N,/GND_A*%
X257265000Y-28850000D03*
%TO.P,J12,15,Pin_15_15*%
%TO.N,/DIN_8_W*%
X254725000Y-31390000D03*
%TO.P,J12,16,Pin_16_16*%
%TO.N,/GND_A*%
X257265000Y-31390000D03*
%TD*%
D11*
%TO.P,PS3,1,+VIN_1*%
%TO.N,/VIN_FUSED_Z*%
X199595902Y-21640000D03*
%TO.P,PS3,2,-VIN_2*%
%TO.N,/GND_Z*%
X199595902Y-16560000D03*
%TO.P,PS3,3,+VOUT_3*%
%TO.N,/+12V_A*%
X245315902Y-24120000D03*
%TO.P,PS3,4,TRIM_4*%
%TO.N,unconnected-(PS3-TRIM-Pad4)*%
X245315902Y-3800000D03*
%TO.P,PS3,5,-VOUT_5*%
%TO.N,/GND_A*%
X245315902Y-13960000D03*
%TO.P,PS3,6,REMOTE_ON/OFF_6*%
%TO.N,unconnected-(PS3-REMOTE_ON{slash}OFF-Pad6)*%
X199595902Y-6400000D03*
%TD*%
D10*
%TO.P,K1,1,COIL_1_1*%
%TO.N,Net-(IC10-C2{slash}A2)*%
X245225000Y-30200000D03*
D11*
%TO.P,K1,2,NO_2*%
%TO.N,/VIN_FUSED_Z*%
X233025000Y-30200000D03*
%TO.P,K1,3,NC_3*%
%TO.N,unconnected-(K1-NC-Pad3)*%
X233025000Y-42200000D03*
D12*
%TO.P,K1,4,COIL_2_4*%
%TO.N,/+5V_A*%
X245225000Y-42200000D03*
D11*
%TO.P,K1,5,COM_5*%
%TO.N,/O_PRECHARGE_DC_LINK_+_Z*%
X247225000Y-36200000D03*
%TD*%
D15*
%TO.P,J2,1,Pin_1_1*%
%TO.N,/MD_FIBER_TX*%
X81295000Y-20373999D03*
D16*
%TO.P,J2,2,Pin_2_2*%
%TO.N,/MD_FIBER_RX*%
X81295000Y-22913999D03*
%TO.P,J2,3,Pin_3_3*%
%TO.N,/+5V_A*%
X83835000Y-20373999D03*
%TO.P,J2,4,Pin_4_4*%
%TO.N,/+12V_A*%
X83835000Y-22913999D03*
%TO.P,J2,5,Pin_5_5*%
%TO.N,/GND_A*%
X86375000Y-20373999D03*
%TO.P,J2,6,Pin_6_6*%
X86375000Y-22913999D03*
%TO.P,J2,7,Pin_7_7*%
%TO.N,/FAULT*%
X88915000Y-20373999D03*
%TO.P,J2,8,Pin_8_8*%
%TO.N,/MD_FIBER_SYNC*%
X88915000Y-22913999D03*
%TD*%
D28*
%TO.P,IC10,1,C1/A1_1*%
%TO.N,Net-(IC10-C1{slash}A1)*%
X204600000Y-34050000D03*
%TO.P,IC10,2,E1/E2_2*%
%TO.N,/+5V_A*%
X204600000Y-33400000D03*
%TO.P,IC10,3,C2/A2_3*%
%TO.N,Net-(IC10-C2{slash}A2)*%
X204600000Y-32750000D03*
%TO.P,IC10,4,B2_4*%
%TO.N,/DOUT1_A*%
X202600000Y-32750000D03*
%TO.P,IC10,5,K1/K2_5*%
%TO.N,/GND_A*%
X202600000Y-33400000D03*
%TO.P,IC10,6,B1_6*%
%TO.N,/DOUT2_A*%
X202600000Y-34050000D03*
%TD*%
D14*
%TO.P,C43,1,+_1*%
%TO.N,/+12V_A*%
X106000000Y-42650000D03*
%TO.P,C43,2,-_2*%
%TO.N,/GND_A*%
X106000000Y-37350000D03*
%TD*%
D29*
%TO.N,Net-(IC10-C1{slash}A1)*%
X208500000Y-35000000D03*
%TO.N,/VIN_FUSED_Z*%
X190000000Y-2300000D03*
%TO.N,/+5V_A*%
X206000000Y-36500000D03*
X203500000Y-36000000D03*
%TO.N,/+12V_A*%
X114000000Y-43000000D03*
X98000000Y-43000000D03*
X138000000Y-40000000D03*
X118000000Y-40000000D03*
X192000000Y-37000000D03*
X119000000Y-40000000D03*
X120000000Y-40000000D03*
X106000000Y-43000000D03*
%TO.N,/GND_A*%
X106000000Y-37000000D03*
X130040000Y-42280000D03*
X45000000Y-2500000D03*
X15000000Y-42500000D03*
X50000000Y-42500000D03*
X47500000Y-42500000D03*
X147500000Y-12500000D03*
X20000000Y-2500000D03*
X2500000Y-12500000D03*
X210000000Y-42500000D03*
X122500000Y-2500000D03*
X112500000Y-2500000D03*
X92500000Y-42500000D03*
X77500000Y-25000000D03*
X2500000Y-17500000D03*
X15000000Y-2500000D03*
X2500000Y-20000000D03*
X22500000Y-42500000D03*
X2500000Y-25000000D03*
X37500000Y-2500000D03*
X25000000Y-2500000D03*
X25000000Y-42500000D03*
X250000000Y-20000000D03*
X77500000Y-2500000D03*
X147500000Y-10000000D03*
X114000000Y-37000000D03*
X242500000Y-42500000D03*
X2500000Y-32500000D03*
X77500000Y-17500000D03*
X20000000Y-42500000D03*
X92500000Y-2500000D03*
X40000000Y-42500000D03*
X120000000Y-2500000D03*
X195500000Y-27500000D03*
X30000000Y-42500000D03*
X250000000Y-32500000D03*
X17500000Y-42500000D03*
X45000000Y-42500000D03*
X220000000Y-42500000D03*
X100000000Y-2500000D03*
X237500000Y-35000000D03*
X237500000Y-40000000D03*
X35000000Y-2500000D03*
X107500000Y-2500000D03*
X250000000Y-25000000D03*
X135000000Y-2500000D03*
X40000000Y-2500000D03*
X134000000Y-42500000D03*
X240000000Y-42500000D03*
X217500000Y-30000000D03*
X12500000Y-2500000D03*
X143000000Y-40000000D03*
X90000000Y-35000000D03*
X98000000Y-37000000D03*
X27500000Y-2500000D03*
X22500000Y-2500000D03*
X132500000Y-2500000D03*
X247500000Y-42500000D03*
X127500000Y-2500000D03*
X237500000Y-37500000D03*
X32500000Y-42500000D03*
X2500000Y-30000000D03*
X32500000Y-2500000D03*
X77500000Y-20000000D03*
X77500000Y-22500000D03*
X47500000Y-2500000D03*
X115000000Y-2500000D03*
X130000000Y-2500000D03*
X42500000Y-42500000D03*
X2500000Y-15000000D03*
X102500000Y-2500000D03*
X247500000Y-10000000D03*
X125000000Y-2500000D03*
X2500000Y-22500000D03*
X2500000Y-27500000D03*
X220000000Y-30000000D03*
X117500000Y-2500000D03*
X17500000Y-2500000D03*
X140000000Y-2500000D03*
X247500000Y-2500000D03*
X50000000Y-2500000D03*
X37500000Y-42500000D03*
X77500000Y-42500000D03*
X147500000Y-7500000D03*
X30000000Y-2500000D03*
X95000000Y-2500000D03*
X77500000Y-27500000D03*
X97500000Y-2500000D03*
X105000000Y-2500000D03*
X35000000Y-42500000D03*
X237500000Y-42500000D03*
X142500000Y-2500000D03*
X200500000Y-36500000D03*
X201000000Y-33425000D03*
X137500000Y-2500000D03*
X110000000Y-2500000D03*
X42500000Y-2500000D03*
X27500000Y-42500000D03*
X145000000Y-5000000D03*
X12500000Y-42500000D03*
%TO.N,/HALL_U_ENCODER_SIN_IN_A*%
X141500000Y-30500000D03*
%TO.N,/HALL_V_ENCODER_COS_IN_A*%
X138000000Y-31500000D03*
%TO.N,/HALL_W_IN_A*%
X133500000Y-32500000D03*
%TO.N,/MOTOR_TEMP_IN_A*%
X129500000Y-33500000D03*
%TO.N,/THROTTLE1_IN_A*%
X139500000Y-29500000D03*
X191000000Y-34500000D03*
%TO.N,/THROTTLE2_IN_A*%
X189500000Y-34500000D03*
X135500000Y-30500000D03*
%TO.N,/DOUT4_A*%
X172000000Y-34500000D03*
X133000000Y-35000000D03*
X133000000Y-41000000D03*
X186000000Y-35000000D03*
%TO.N,Net-(D3-A)*%
X190000000Y-9200000D03*
%TO.N,/+12V_SWITCHED_A*%
X130040000Y-37720000D03*
%TO.N,/MD_FIBER_TX*%
X91500000Y-20000000D03*
X159000000Y-36000000D03*
X91500000Y-17500000D03*
X127500000Y-31500000D03*
%TO.N,/MD_FIBER_RX*%
X94500000Y-21000000D03*
X94500000Y-24000000D03*
X157500000Y-37000000D03*
X127500000Y-32500000D03*
%TO.N,/FAULT*%
X161500000Y-35500000D03*
X127500000Y-30500000D03*
%TO.N,/MD_FIBER_SYNC*%
X163000000Y-35500000D03*
X127500000Y-29500000D03*
X93500000Y-23000000D03*
X93500000Y-18000000D03*
%TO.N,/USB_DP*%
X165500000Y-36000000D03*
%TO.N,/CAN1_GND*%
X113500000Y-12000000D03*
%TO.N,/DIN_2_W*%
X249000000Y-28500000D03*
X207500000Y-33500000D03*
X147500000Y-29500000D03*
%TO.N,/CAN1_JUMPER_B*%
X119000000Y-11000000D03*
%TO.N,/CAN2_JUMPER_A*%
X123500000Y-33000000D03*
%TO.N,/CAN2_JUMPER_B*%
X127500000Y-28000000D03*
%TO.N,/DIN_1_W*%
X178000000Y-28500000D03*
X190000000Y-28500000D03*
X248000000Y-27500000D03*
X208500000Y-32500000D03*
X144000000Y-28500000D03*
%TO.N,/CAN2_GND*%
X113000000Y-29000000D03*
%TO.N,/CAN2_LOW*%
X117500000Y-32000000D03*
%TO.N,/CAN2_HIGH*%
X121500000Y-30000000D03*
%TO.N,/CAN2_+5V*%
X125500000Y-31000000D03*
%TO.N,Net-(IC10-C2{slash}A2)*%
X210500000Y-29000000D03*
%TD*%
%TO.N,Net-(IC10-C1{slash}A1)*%
D30*
X206050000Y-34050000D02*
X207000000Y-35000000D01*
X207000000Y-35000000D02*
X208500000Y-35000000D01*
X204600000Y-34050000D02*
X206050000Y-34050000D01*
%TO.N,/VIN_FUSED_Z*%
D31*
X201300000Y-2300000D02*
X204000000Y-5000000D01*
X202360000Y-21640000D02*
X199595902Y-21640000D01*
X213025000Y-23025000D02*
X213000000Y-23000000D01*
X231000000Y-23000000D02*
X213000000Y-23000000D01*
X233025000Y-25025000D02*
X231000000Y-23000000D01*
X213025000Y-30200000D02*
X213025000Y-23025000D01*
X204000000Y-5000000D02*
X204000000Y-20000000D01*
X207000000Y-23000000D02*
X204000000Y-20000000D01*
X213000000Y-23000000D02*
X207000000Y-23000000D01*
X190000000Y-2300000D02*
X201300000Y-2300000D01*
X204000000Y-20000000D02*
X202360000Y-21640000D01*
X233025000Y-30200000D02*
X233025000Y-25025000D01*
%TO.N,/+5V_A*%
D30*
X203500000Y-35500000D02*
X203500000Y-36000000D01*
X204262500Y-35500000D02*
X203500000Y-35500000D01*
X205700000Y-36200000D02*
X206000000Y-36500000D01*
X203500000Y-33750000D02*
X203500000Y-35500000D01*
X204962500Y-36200000D02*
X205700000Y-36200000D01*
X203850000Y-33400000D02*
X203500000Y-33750000D01*
X204962500Y-36200000D02*
X204262500Y-35500000D01*
X204600000Y-33400000D02*
X203850000Y-33400000D01*
%TO.N,/+12V_A*%
D31*
X197000000Y-35050000D02*
X193950000Y-35050000D01*
X106000000Y-42650000D02*
X106000000Y-43000000D01*
X137350000Y-40000000D02*
X138000000Y-40000000D01*
X98000000Y-42650000D02*
X98000000Y-43000000D01*
X114000000Y-42650000D02*
X114000000Y-43000000D01*
X123740000Y-40000000D02*
X118000000Y-40000000D01*
X193950000Y-35050000D02*
X192000000Y-37000000D01*
%TO.N,/GND_A*%
D30*
X133780000Y-42280000D02*
X134000000Y-42500000D01*
D32*
X147325000Y-18750000D02*
X147325000Y-24825000D01*
D30*
X197000000Y-29750000D02*
X197000000Y-29000000D01*
D32*
X147325000Y-24825000D02*
X147500000Y-25000000D01*
D31*
X142650000Y-40000000D02*
X143000000Y-40000000D01*
X106000000Y-37350000D02*
X106000000Y-37000000D01*
D32*
X147325000Y-18750000D02*
X147325000Y-12675000D01*
D31*
X98000000Y-37350000D02*
X98000000Y-37000000D01*
D30*
X197000000Y-29000000D02*
X195500000Y-27500000D01*
D31*
X114000000Y-37350000D02*
X114000000Y-37000000D01*
D30*
X130040000Y-42280000D02*
X133780000Y-42280000D01*
X202600000Y-33400000D02*
X201025000Y-33400000D01*
X200800000Y-36200000D02*
X200500000Y-36500000D01*
X201837500Y-36200000D02*
X200800000Y-36200000D01*
X201025000Y-33400000D02*
X201000000Y-33425000D01*
D32*
X147325000Y-12675000D02*
X147500000Y-12500000D01*
%TO.N,/THROTTLE1_IN_A*%
D30*
X187000000Y-30500000D02*
X143500000Y-30500000D01*
X191000000Y-34500000D02*
X187000000Y-30500000D01*
X143500000Y-30500000D02*
X142500000Y-29500000D01*
X142500000Y-29500000D02*
X139500000Y-29500000D01*
%TO.N,/THROTTLE2_IN_A*%
X189500000Y-34500000D02*
X186500000Y-31500000D01*
X186500000Y-31500000D02*
X140500000Y-31500000D01*
X139500000Y-30500000D02*
X135500000Y-30500000D01*
X140500000Y-31500000D02*
X139500000Y-30500000D01*
%TO.N,/DOUT1_A*%
X202600000Y-32750000D02*
X199750000Y-32750000D01*
X198000000Y-37500000D02*
X193875000Y-37500000D01*
X199750000Y-32750000D02*
X198500000Y-34000000D01*
X193875000Y-37500000D02*
X191650000Y-39725000D01*
X198500000Y-34000000D02*
X198500000Y-37000000D01*
X198500000Y-37000000D02*
X198000000Y-37500000D01*
%TO.N,/DOUT2_A*%
X193000000Y-39011396D02*
X194061396Y-37950000D01*
X193000000Y-40915000D02*
X193000000Y-39011396D01*
X199000000Y-37500000D02*
X199000000Y-35500000D01*
X194061396Y-37950000D02*
X198550000Y-37950000D01*
X198550000Y-37950000D02*
X199000000Y-37500000D01*
X191650000Y-42265000D02*
X193000000Y-40915000D01*
X199000000Y-35500000D02*
X200450000Y-34050000D01*
X200450000Y-34050000D02*
X202600000Y-34050000D01*
%TO.N,/DOUT4_A*%
X132000000Y-41000000D02*
X131860000Y-41140000D01*
X185500000Y-32500000D02*
X174000000Y-32500000D01*
X131860000Y-41140000D02*
X130040000Y-41140000D01*
X186000000Y-35000000D02*
X186000000Y-33000000D01*
X174000000Y-32500000D02*
X172000000Y-34500000D01*
X133000000Y-41000000D02*
X132000000Y-41000000D01*
X186000000Y-33000000D02*
X185500000Y-32500000D01*
%TO.N,/I_+VIN_Z*%
D31*
X157325000Y-14750000D02*
X177700000Y-14750000D01*
X177700000Y-14750000D02*
X178450000Y-14000000D01*
%TO.N,Net-(D3-A)*%
X185200000Y-14000000D02*
X190000000Y-9200000D01*
X183550000Y-14000000D02*
X185200000Y-14000000D01*
%TO.N,/MD_FIBER_TX*%
D30*
X81295000Y-18705000D02*
X81295000Y-20373999D01*
X157500000Y-34500000D02*
X134000000Y-34500000D01*
X159000000Y-36000000D02*
X157500000Y-34500000D01*
X134000000Y-34500000D02*
X133875000Y-34375000D01*
X82500000Y-17500000D02*
X81295000Y-18705000D01*
X91500000Y-17500000D02*
X82500000Y-17500000D01*
X131875000Y-34375000D02*
X129000000Y-31500000D01*
X129000000Y-31500000D02*
X127500000Y-31500000D01*
X133875000Y-34375000D02*
X131875000Y-34375000D01*
%TO.N,/MD_FIBER_RX*%
X82000000Y-25000000D02*
X81295000Y-24295000D01*
X93500000Y-25000000D02*
X82000000Y-25000000D01*
X94500000Y-24000000D02*
X93500000Y-25000000D01*
X133000000Y-36000000D02*
X131000000Y-36000000D01*
X81295000Y-24295000D02*
X81295000Y-22913999D01*
X133500000Y-35500000D02*
X133000000Y-36000000D01*
X157500000Y-36500000D02*
X156500000Y-35500000D01*
X156500000Y-35500000D02*
X133500000Y-35500000D01*
X131000000Y-36000000D02*
X127500000Y-32500000D01*
X157500000Y-37000000D02*
X157500000Y-36500000D01*
%TO.N,/FAULT*%
X130000000Y-30500000D02*
X127500000Y-30500000D01*
X133000000Y-33500000D02*
X130000000Y-30500000D01*
X159500000Y-33500000D02*
X133000000Y-33500000D01*
X161500000Y-35500000D02*
X159500000Y-33500000D01*
%TO.N,/MD_FIBER_SYNC*%
X93500000Y-23000000D02*
X93413999Y-22913999D01*
X160000000Y-32500000D02*
X135500000Y-32500000D01*
X132500000Y-29500000D02*
X127500000Y-29500000D01*
X93413999Y-22913999D02*
X88915000Y-22913999D01*
X163000000Y-35500000D02*
X160000000Y-32500000D01*
X135500000Y-32500000D02*
X132500000Y-29500000D01*
%TO.N,/CAN1_GND*%
X71785000Y-1785000D02*
X82000000Y-12000000D01*
X57675000Y-1785000D02*
X71785000Y-1785000D01*
X56500000Y-2960000D02*
X57675000Y-1785000D01*
X82000000Y-12000000D02*
X113500000Y-12000000D01*
%TO.N,/CAN1_LOW*%
X109500000Y-14000000D02*
X112000000Y-16500000D01*
X72500000Y-5500000D02*
X81000000Y-14000000D01*
X115575000Y-16500000D02*
X117325000Y-14750000D01*
X81000000Y-14000000D02*
X109500000Y-14000000D01*
X59040000Y-5500000D02*
X72500000Y-5500000D01*
X112000000Y-16500000D02*
X115575000Y-16500000D01*
%TO.N,/CAN1_HIGH*%
X119575000Y-13000000D02*
X121325000Y-14750000D01*
X59080000Y-3000000D02*
X71500000Y-3000000D01*
X71500000Y-3000000D02*
X81500000Y-13000000D01*
X59040000Y-2960000D02*
X59080000Y-3000000D01*
X81500000Y-13000000D02*
X119575000Y-13000000D01*
%TO.N,/CAN1_+5V*%
X80500000Y-15000000D02*
X109500000Y-15000000D01*
X58500000Y-7500000D02*
X73000000Y-7500000D01*
X73000000Y-7500000D02*
X80500000Y-15000000D01*
X56500000Y-5500000D02*
X58500000Y-7500000D01*
X109500000Y-15000000D02*
X111450000Y-16950000D01*
X123125000Y-16950000D02*
X125325000Y-14750000D01*
X111450000Y-16950000D02*
X123125000Y-16950000D01*
%TO.N,/DIN_2_W*%
X241000000Y-28500000D02*
X236000000Y-33500000D01*
X236000000Y-33500000D02*
X207500000Y-33500000D01*
X249000000Y-28500000D02*
X241000000Y-28500000D01*
%TO.N,/CAN1_JUMPER_A*%
X108500000Y-16000000D02*
X111250000Y-18750000D01*
X56960000Y-8500000D02*
X72500000Y-8500000D01*
X80000000Y-16000000D02*
X108500000Y-16000000D01*
X111250000Y-18750000D02*
X115325000Y-18750000D01*
X72500000Y-8500000D02*
X80000000Y-16000000D01*
X53960000Y-5500000D02*
X56960000Y-8500000D01*
%TO.N,/CAN1_JUMPER_B*%
X119000000Y-11000000D02*
X82500000Y-11000000D01*
X72500000Y-1000000D02*
X55920000Y-1000000D01*
X55920000Y-1000000D02*
X53960000Y-2960000D01*
X82500000Y-11000000D02*
X72500000Y-1000000D01*
%TO.N,/CAN2_JUMPER_A*%
X72125000Y-44375000D02*
X83500000Y-33000000D01*
X53960000Y-43000000D02*
X55335000Y-44375000D01*
X55335000Y-44375000D02*
X72125000Y-44375000D01*
X83500000Y-33000000D02*
X123500000Y-33000000D01*
%TO.N,/CAN2_JUMPER_B*%
X71000000Y-38000000D02*
X81000000Y-28000000D01*
X81000000Y-28000000D02*
X127500000Y-28000000D01*
X53960000Y-40460000D02*
X56420000Y-38000000D01*
X56420000Y-38000000D02*
X71000000Y-38000000D01*
%TO.N,/DIN_1_W*%
X248000000Y-27500000D02*
X240500000Y-27500000D01*
X190000000Y-28500000D02*
X189000000Y-29500000D01*
X179000000Y-29500000D02*
X178000000Y-28500000D01*
X235500000Y-32500000D02*
X208500000Y-32500000D01*
X189000000Y-29500000D02*
X179000000Y-29500000D01*
X240500000Y-27500000D02*
X235500000Y-32500000D01*
%TO.N,/CAN2_GND*%
X71500000Y-39000000D02*
X81500000Y-29000000D01*
X81500000Y-29000000D02*
X113000000Y-29000000D01*
X56500000Y-40460000D02*
X57960000Y-39000000D01*
X57960000Y-39000000D02*
X71500000Y-39000000D01*
%TO.N,/CAN2_LOW*%
X83000000Y-32000000D02*
X117500000Y-32000000D01*
X59040000Y-43000000D02*
X72000000Y-43000000D01*
X72000000Y-43000000D02*
X83000000Y-32000000D01*
%TO.N,/CAN2_HIGH*%
X71500000Y-40500000D02*
X82000000Y-30000000D01*
X59080000Y-40500000D02*
X71500000Y-40500000D01*
X82000000Y-30000000D02*
X121500000Y-30000000D01*
X59040000Y-40460000D02*
X59080000Y-40500000D01*
%TO.N,/CAN2_+5V*%
X71675000Y-41825000D02*
X82500000Y-31000000D01*
X57675000Y-41825000D02*
X71675000Y-41825000D01*
X82500000Y-31000000D02*
X125500000Y-31000000D01*
X56500000Y-43000000D02*
X57675000Y-41825000D01*
%TO.N,Net-(IC10-C2{slash}A2)*%
X210000000Y-30500000D02*
X210500000Y-30000000D01*
X207000000Y-30500000D02*
X210000000Y-30500000D01*
X204750000Y-32750000D02*
X207000000Y-30500000D01*
X210500000Y-30000000D02*
X210500000Y-29000000D01*
X204600000Y-32750000D02*
X204750000Y-32750000D01*
%TD*%
%TA.AperFunction,Conductor*%
%TO.N,/GND_A*%
G36*
X54595479Y-520185D02*
G01*
X54641234Y-572989D01*
X54651178Y-642147D01*
X54622153Y-705703D01*
X54616121Y-712181D01*
X54246043Y-1082257D01*
X54184720Y-1115742D01*
X54142179Y-1117515D01*
X54081291Y-1109500D01*
X54081288Y-1109500D01*
X53838712Y-1109500D01*
X53838711Y-1109500D01*
X53598214Y-1141161D01*
X53363895Y-1203947D01*
X53139794Y-1296773D01*
X53139785Y-1296777D01*
X52929706Y-1418067D01*
X52737263Y-1565733D01*
X52737256Y-1565739D01*
X52565739Y-1737256D01*
X52565733Y-1737263D01*
X52418067Y-1929706D01*
X52296777Y-2139785D01*
X52296773Y-2139794D01*
X52203947Y-2363895D01*
X52141161Y-2598214D01*
X52109500Y-2838711D01*
X52109500Y-3081288D01*
X52141161Y-3321785D01*
X52203947Y-3556104D01*
X52296773Y-3780205D01*
X52296777Y-3780215D01*
X52349976Y-3872358D01*
X52366449Y-3940259D01*
X52343596Y-4006285D01*
X52338692Y-4012718D01*
X52270303Y-4096591D01*
X52176089Y-4276954D01*
X52120114Y-4472583D01*
X52120113Y-4472586D01*
X52109500Y-4591966D01*
X52109500Y-6408028D01*
X52109501Y-6408034D01*
X52120113Y-6527415D01*
X52176089Y-6723045D01*
X52176090Y-6723048D01*
X52176091Y-6723049D01*
X52270302Y-6903407D01*
X52270304Y-6903409D01*
X52398890Y-7061109D01*
X52492803Y-7137684D01*
X52556593Y-7189698D01*
X52736951Y-7283909D01*
X52932582Y-7339886D01*
X53051963Y-7350500D01*
X54167439Y-7350499D01*
X54234478Y-7370184D01*
X54255120Y-7386818D01*
X56226791Y-9358489D01*
X56362764Y-9457278D01*
X56362765Y-9457278D01*
X56362771Y-9457282D01*
X56370110Y-9462614D01*
X56449034Y-9502828D01*
X56527957Y-9543042D01*
X56527960Y-9543043D01*
X56612201Y-9570414D01*
X56696445Y-9597786D01*
X56871421Y-9625500D01*
X56871422Y-9625500D01*
X57048579Y-9625500D01*
X71982441Y-9625500D01*
X72049480Y-9645185D01*
X72070121Y-9661818D01*
X75714600Y-13306298D01*
X79266787Y-16858485D01*
X79266792Y-16858489D01*
X79387918Y-16946492D01*
X79410104Y-16962610D01*
X79410110Y-16962614D01*
X79489034Y-17002828D01*
X79567957Y-17043042D01*
X79567960Y-17043043D01*
X79652201Y-17070414D01*
X79736445Y-17097786D01*
X79911421Y-17125500D01*
X79911422Y-17125500D01*
X80088579Y-17125500D01*
X80983441Y-17125500D01*
X81050480Y-17145185D01*
X81096235Y-17197989D01*
X81106179Y-17267147D01*
X81077154Y-17330703D01*
X81071122Y-17337181D01*
X80436519Y-17971783D01*
X80436519Y-17971784D01*
X80436517Y-17971786D01*
X80391796Y-18033338D01*
X80332386Y-18115109D01*
X80272210Y-18233213D01*
X80272209Y-18233214D01*
X80251960Y-18272952D01*
X80251957Y-18272959D01*
X80197215Y-18441438D01*
X80190864Y-18481532D01*
X80160933Y-18544666D01*
X80102506Y-18581346D01*
X80071954Y-18590088D01*
X80004162Y-18625500D01*
X79891593Y-18684301D01*
X79891591Y-18684302D01*
X79891590Y-18684303D01*
X79733890Y-18812889D01*
X79605304Y-18970589D01*
X79605302Y-18970592D01*
X79594135Y-18991971D01*
X79511089Y-19150953D01*
X79468299Y-19300500D01*
X79455936Y-19343710D01*
X79455114Y-19346582D01*
X79455113Y-19346585D01*
X79444500Y-19465965D01*
X79444500Y-21282027D01*
X79444501Y-21282033D01*
X79455113Y-21401414D01*
X79511089Y-21597044D01*
X79511090Y-21597047D01*
X79511091Y-21597048D01*
X79601162Y-21769481D01*
X79605305Y-21777411D01*
X79673691Y-21861280D01*
X79700800Y-21925676D01*
X79688790Y-21994506D01*
X79684977Y-22001639D01*
X79631775Y-22093788D01*
X79631773Y-22093793D01*
X79538947Y-22317894D01*
X79476161Y-22552213D01*
X79444500Y-22792710D01*
X79444500Y-23035287D01*
X79476161Y-23275784D01*
X79538947Y-23510103D01*
X79615727Y-23695465D01*
X79631776Y-23734211D01*
X79753064Y-23944288D01*
X79753066Y-23944291D01*
X79753067Y-23944292D01*
X79900733Y-24136735D01*
X79900739Y-24136742D01*
X80072256Y-24308259D01*
X80072263Y-24308265D01*
X80130125Y-24352664D01*
X80171328Y-24409092D01*
X80177112Y-24431642D01*
X80197213Y-24558556D01*
X80225878Y-24646775D01*
X80251959Y-24727046D01*
X80332386Y-24884890D01*
X80410742Y-24992738D01*
X80436517Y-25028214D01*
X80436519Y-25028216D01*
X81266784Y-25858482D01*
X81266789Y-25858487D01*
X81349910Y-25918877D01*
X81349912Y-25918878D01*
X81349915Y-25918880D01*
X81410110Y-25962614D01*
X81473033Y-25994675D01*
X81567957Y-26043042D01*
X81567960Y-26043043D01*
X81625373Y-26061697D01*
X81736445Y-26097786D01*
X81911421Y-26125500D01*
X81911422Y-26125500D01*
X93588578Y-26125500D01*
X93588579Y-26125500D01*
X93763556Y-26097786D01*
X93932042Y-26043042D01*
X94089890Y-25962614D01*
X94233214Y-25858483D01*
X94358483Y-25733214D01*
X94417042Y-25674655D01*
X94417053Y-25674642D01*
X94811164Y-25280532D01*
X94860526Y-25250284D01*
X94999214Y-25205222D01*
X94999216Y-25205220D01*
X94999219Y-25205220D01*
X95181610Y-25112287D01*
X95269702Y-25048285D01*
X95347215Y-24991970D01*
X95347216Y-24991967D01*
X95347219Y-24991966D01*
X95491966Y-24847219D01*
X95491968Y-24847215D01*
X95491971Y-24847213D01*
X95579279Y-24727042D01*
X95612287Y-24681610D01*
X95705220Y-24499219D01*
X95768477Y-24304534D01*
X95800500Y-24102352D01*
X95800500Y-23897648D01*
X95768477Y-23695466D01*
X95753285Y-23648711D01*
X95708249Y-23510103D01*
X95705220Y-23500781D01*
X95705218Y-23500778D01*
X95705218Y-23500776D01*
X95660047Y-23412124D01*
X95612287Y-23318390D01*
X95581332Y-23275784D01*
X95491971Y-23152786D01*
X95347213Y-23008028D01*
X95181613Y-22887715D01*
X95181612Y-22887714D01*
X95181610Y-22887713D01*
X95124653Y-22858691D01*
X94999223Y-22794781D01*
X94837407Y-22742204D01*
X94835047Y-22740590D01*
X94832197Y-22740382D01*
X94806378Y-22720986D01*
X94779732Y-22702766D01*
X94777924Y-22699611D01*
X94776334Y-22698417D01*
X94767899Y-22682116D01*
X94759472Y-22667411D01*
X94758582Y-22665013D01*
X94705220Y-22500781D01*
X94677329Y-22446042D01*
X94674824Y-22439291D01*
X94672871Y-22411330D01*
X94667697Y-22383779D01*
X94670469Y-22376947D01*
X94669956Y-22369591D01*
X94683432Y-22345009D01*
X94693973Y-22319039D01*
X94699999Y-22314790D01*
X94703544Y-22308325D01*
X94728165Y-22294934D01*
X94751079Y-22278781D01*
X94763541Y-22275694D01*
X94764924Y-22274943D01*
X94766200Y-22275036D01*
X94771667Y-22273682D01*
X94804534Y-22268477D01*
X94999219Y-22205220D01*
X95181610Y-22112287D01*
X95300061Y-22026228D01*
X95347213Y-21991971D01*
X95347215Y-21991968D01*
X95347219Y-21991966D01*
X95491966Y-21847219D01*
X95491968Y-21847215D01*
X95491971Y-21847213D01*
X95544732Y-21774590D01*
X95612287Y-21681610D01*
X95705220Y-21499219D01*
X95768477Y-21304534D01*
X95800500Y-21102352D01*
X95800500Y-20897648D01*
X95784785Y-20798429D01*
X95768477Y-20695465D01*
X95718060Y-20540299D01*
X95705220Y-20500781D01*
X95705218Y-20500778D01*
X95705218Y-20500776D01*
X95658860Y-20409794D01*
X95612287Y-20318390D01*
X95594618Y-20294070D01*
X95491971Y-20152786D01*
X95347213Y-20008028D01*
X95181613Y-19887715D01*
X95181612Y-19887714D01*
X95181610Y-19887713D01*
X95103247Y-19847785D01*
X94999223Y-19794781D01*
X94804534Y-19731522D01*
X94629995Y-19703878D01*
X94602352Y-19699500D01*
X94397648Y-19699500D01*
X94373329Y-19703351D01*
X94195465Y-19731522D01*
X94000776Y-19794781D01*
X93818386Y-19887715D01*
X93652786Y-20008028D01*
X93508028Y-20152786D01*
X93387715Y-20318386D01*
X93294781Y-20500776D01*
X93231522Y-20695465D01*
X93199500Y-20897648D01*
X93199500Y-21102351D01*
X93231522Y-21304534D01*
X93294782Y-21499226D01*
X93319406Y-21547552D01*
X93323202Y-21567766D01*
X93331702Y-21586499D01*
X93329520Y-21601410D01*
X93332302Y-21616221D01*
X93324566Y-21635279D01*
X93321589Y-21655633D01*
X93311692Y-21666998D01*
X93306025Y-21680961D01*
X93289213Y-21692812D01*
X93275705Y-21708325D01*
X93257286Y-21715319D01*
X93248919Y-21721218D01*
X93243565Y-21722908D01*
X93236047Y-21725095D01*
X93195466Y-21731523D01*
X93036968Y-21783021D01*
X93035116Y-21783561D01*
X93031701Y-21783552D01*
X93000472Y-21788499D01*
X90445028Y-21788499D01*
X90377989Y-21768814D01*
X90346652Y-21739985D01*
X90330922Y-21719485D01*
X90305728Y-21654315D01*
X90319767Y-21585871D01*
X90330922Y-21568513D01*
X90383877Y-21499500D01*
X90456936Y-21404288D01*
X90578224Y-21194211D01*
X90599670Y-21142432D01*
X90643510Y-21088029D01*
X90709804Y-21065963D01*
X90777503Y-21083241D01*
X90787118Y-21089567D01*
X90818385Y-21112284D01*
X90818387Y-21112285D01*
X90818390Y-21112287D01*
X90868855Y-21138000D01*
X91000776Y-21205218D01*
X91000778Y-21205218D01*
X91000781Y-21205220D01*
X91105137Y-21239127D01*
X91195465Y-21268477D01*
X91281016Y-21282027D01*
X91397648Y-21300500D01*
X91397649Y-21300500D01*
X91602351Y-21300500D01*
X91602352Y-21300500D01*
X91804534Y-21268477D01*
X91999219Y-21205220D01*
X92181610Y-21112287D01*
X92274590Y-21044732D01*
X92347213Y-20991971D01*
X92347215Y-20991968D01*
X92347219Y-20991966D01*
X92491966Y-20847219D01*
X92491968Y-20847215D01*
X92491971Y-20847213D01*
X92552149Y-20764384D01*
X92612287Y-20681610D01*
X92705220Y-20499219D01*
X92768477Y-20304534D01*
X92800500Y-20102352D01*
X92800500Y-19897648D01*
X92768477Y-19695466D01*
X92705220Y-19500781D01*
X92705218Y-19500778D01*
X92705218Y-19500776D01*
X92660047Y-19412124D01*
X92612287Y-19318390D01*
X92588069Y-19285057D01*
X92524881Y-19198084D01*
X92501401Y-19132278D01*
X92517227Y-19064224D01*
X92567333Y-19015529D01*
X92635811Y-19001654D01*
X92698084Y-19024881D01*
X92752236Y-19064224D01*
X92818390Y-19112287D01*
X92925242Y-19166731D01*
X93000776Y-19205218D01*
X93000778Y-19205218D01*
X93000781Y-19205220D01*
X93105137Y-19239127D01*
X93195465Y-19268477D01*
X93296557Y-19284488D01*
X93397648Y-19300500D01*
X93397649Y-19300500D01*
X93602351Y-19300500D01*
X93602352Y-19300500D01*
X93804534Y-19268477D01*
X93999219Y-19205220D01*
X94181610Y-19112287D01*
X94301915Y-19024881D01*
X94347213Y-18991971D01*
X94347215Y-18991968D01*
X94347219Y-18991966D01*
X94491966Y-18847219D01*
X94491968Y-18847215D01*
X94491971Y-18847213D01*
X94550141Y-18767147D01*
X94612287Y-18681610D01*
X94705220Y-18499219D01*
X94768477Y-18304534D01*
X94800500Y-18102352D01*
X94800500Y-17897648D01*
X94768477Y-17695466D01*
X94756859Y-17659711D01*
X94705218Y-17500776D01*
X94639979Y-17372738D01*
X94612287Y-17318390D01*
X94612285Y-17318387D01*
X94609774Y-17314289D01*
X94591530Y-17246843D01*
X94612647Y-17180241D01*
X94666419Y-17135628D01*
X94715502Y-17125500D01*
X107982441Y-17125500D01*
X108049480Y-17145185D01*
X108070122Y-17161819D01*
X110391517Y-19483214D01*
X110516786Y-19608483D01*
X110660110Y-19712614D01*
X110697219Y-19731522D01*
X110817957Y-19793042D01*
X110817960Y-19793043D01*
X110902201Y-19820414D01*
X110986444Y-19847786D01*
X111161421Y-19875500D01*
X113143385Y-19875500D01*
X113210424Y-19895185D01*
X113248378Y-19933527D01*
X113374372Y-20134045D01*
X113390104Y-20153772D01*
X113395619Y-20160688D01*
X113422027Y-20225375D01*
X113409270Y-20294070D01*
X113361399Y-20344964D01*
X113298671Y-20362000D01*
X113190886Y-20362000D01*
X112924379Y-20392027D01*
X112924365Y-20392030D01*
X112662875Y-20451713D01*
X112662873Y-20451714D01*
X112409710Y-20540299D01*
X112168061Y-20656671D01*
X111940956Y-20799371D01*
X111731257Y-20966600D01*
X111541600Y-21156257D01*
X111374371Y-21365956D01*
X111231671Y-21593061D01*
X111115299Y-21834710D01*
X111026714Y-22087873D01*
X111026713Y-22087875D01*
X110967030Y-22349365D01*
X110967027Y-22349379D01*
X110937000Y-22615886D01*
X110937000Y-22884113D01*
X110967027Y-23150620D01*
X110967030Y-23150634D01*
X111026713Y-23412124D01*
X111026714Y-23412126D01*
X111115299Y-23665289D01*
X111231671Y-23906938D01*
X111231673Y-23906941D01*
X111374372Y-24134045D01*
X111541601Y-24343743D01*
X111731257Y-24533399D01*
X111940955Y-24700628D01*
X112168059Y-24843327D01*
X112409712Y-24959701D01*
X112662875Y-25048286D01*
X112924365Y-25107970D01*
X112924374Y-25107971D01*
X112924379Y-25107972D01*
X113102050Y-25127990D01*
X113190887Y-25137999D01*
X113190890Y-25138000D01*
X113190893Y-25138000D01*
X113459110Y-25138000D01*
X113459111Y-25137999D01*
X113595317Y-25122652D01*
X113725620Y-25107972D01*
X113725623Y-25107971D01*
X113725635Y-25107970D01*
X113987125Y-25048286D01*
X114240288Y-24959701D01*
X114481941Y-24843327D01*
X114709045Y-24700628D01*
X114918743Y-24533399D01*
X115108399Y-24343743D01*
X115139668Y-24304534D01*
X115228053Y-24193702D01*
X115285241Y-24153561D01*
X115355053Y-24150711D01*
X115415323Y-24186056D01*
X115421947Y-24193702D01*
X115541594Y-24343736D01*
X115541600Y-24343742D01*
X115541601Y-24343743D01*
X115731257Y-24533399D01*
X115940955Y-24700628D01*
X116168059Y-24843327D01*
X116409712Y-24959701D01*
X116662875Y-25048286D01*
X116924365Y-25107970D01*
X116924374Y-25107971D01*
X116924379Y-25107972D01*
X117102050Y-25127990D01*
X117190887Y-25137999D01*
X117190890Y-25138000D01*
X117190893Y-25138000D01*
X117459110Y-25138000D01*
X117459111Y-25137999D01*
X117595317Y-25122652D01*
X117725620Y-25107972D01*
X117725623Y-25107971D01*
X117725635Y-25107970D01*
X117987125Y-25048286D01*
X118240288Y-24959701D01*
X118481941Y-24843327D01*
X118709045Y-24700628D01*
X118918743Y-24533399D01*
X119108399Y-24343743D01*
X119139668Y-24304534D01*
X119228053Y-24193702D01*
X119285241Y-24153561D01*
X119355053Y-24150711D01*
X119415323Y-24186056D01*
X119421947Y-24193702D01*
X119541594Y-24343736D01*
X119541600Y-24343742D01*
X119541601Y-24343743D01*
X119731257Y-24533399D01*
X119940955Y-24700628D01*
X120168059Y-24843327D01*
X120409712Y-24959701D01*
X120662875Y-25048286D01*
X120924365Y-25107970D01*
X120924374Y-25107971D01*
X120924379Y-25107972D01*
X121102050Y-25127990D01*
X121190887Y-25137999D01*
X121190890Y-25138000D01*
X121190893Y-25138000D01*
X121459110Y-25138000D01*
X121459111Y-25137999D01*
X121595317Y-25122652D01*
X121725620Y-25107972D01*
X121725623Y-25107971D01*
X121725635Y-25107970D01*
X121987125Y-25048286D01*
X122240288Y-24959701D01*
X122481941Y-24843327D01*
X122709045Y-24700628D01*
X122918743Y-24533399D01*
X123108399Y-24343743D01*
X123139668Y-24304534D01*
X123228053Y-24193702D01*
X123285241Y-24153561D01*
X123355053Y-24150711D01*
X123415323Y-24186056D01*
X123421947Y-24193702D01*
X123541594Y-24343736D01*
X123541600Y-24343742D01*
X123541601Y-24343743D01*
X123731257Y-24533399D01*
X123940955Y-24700628D01*
X124168059Y-24843327D01*
X124409712Y-24959701D01*
X124662875Y-25048286D01*
X124924365Y-25107970D01*
X124924374Y-25107971D01*
X124924379Y-25107972D01*
X125102050Y-25127990D01*
X125190887Y-25137999D01*
X125190890Y-25138000D01*
X125190893Y-25138000D01*
X125459110Y-25138000D01*
X125459111Y-25137999D01*
X125595317Y-25122652D01*
X125725620Y-25107972D01*
X125725623Y-25107971D01*
X125725635Y-25107970D01*
X125987125Y-25048286D01*
X126240288Y-24959701D01*
X126481941Y-24843327D01*
X126709045Y-24700628D01*
X126918743Y-24533399D01*
X127108399Y-24343743D01*
X127139668Y-24304534D01*
X127228053Y-24193702D01*
X127285241Y-24153561D01*
X127355053Y-24150711D01*
X127415323Y-24186056D01*
X127421947Y-24193702D01*
X127541594Y-24343736D01*
X127541600Y-24343742D01*
X127541601Y-24343743D01*
X127731257Y-24533399D01*
X127940955Y-24700628D01*
X128168059Y-24843327D01*
X128409712Y-24959701D01*
X128662875Y-25048286D01*
X128924365Y-25107970D01*
X128924374Y-25107971D01*
X128924379Y-25107972D01*
X129102050Y-25127990D01*
X129190887Y-25137999D01*
X129190890Y-25138000D01*
X129190893Y-25138000D01*
X129459110Y-25138000D01*
X129459111Y-25137999D01*
X129595317Y-25122652D01*
X129725620Y-25107972D01*
X129725623Y-25107971D01*
X129725635Y-25107970D01*
X129987125Y-25048286D01*
X130240288Y-24959701D01*
X130481941Y-24843327D01*
X130709045Y-24700628D01*
X130918743Y-24533399D01*
X131108399Y-24343743D01*
X131139668Y-24304534D01*
X131228053Y-24193702D01*
X131285241Y-24153561D01*
X131355053Y-24150711D01*
X131415323Y-24186056D01*
X131421947Y-24193702D01*
X131541594Y-24343736D01*
X131541600Y-24343742D01*
X131541601Y-24343743D01*
X131731257Y-24533399D01*
X131940955Y-24700628D01*
X132168059Y-24843327D01*
X132409712Y-24959701D01*
X132662875Y-25048286D01*
X132924365Y-25107970D01*
X132924374Y-25107971D01*
X132924379Y-25107972D01*
X133102050Y-25127990D01*
X133190887Y-25137999D01*
X133190890Y-25138000D01*
X133190893Y-25138000D01*
X133459110Y-25138000D01*
X133459111Y-25137999D01*
X133595317Y-25122652D01*
X133725620Y-25107972D01*
X133725623Y-25107971D01*
X133725635Y-25107970D01*
X133987125Y-25048286D01*
X134240288Y-24959701D01*
X134481941Y-24843327D01*
X134709045Y-24700628D01*
X134918743Y-24533399D01*
X135108399Y-24343743D01*
X135139668Y-24304534D01*
X135228053Y-24193702D01*
X135285241Y-24153561D01*
X135355053Y-24150711D01*
X135415323Y-24186056D01*
X135421947Y-24193702D01*
X135541594Y-24343736D01*
X135541600Y-24343742D01*
X135541601Y-24343743D01*
X135731257Y-24533399D01*
X135940955Y-24700628D01*
X136168059Y-24843327D01*
X136409712Y-24959701D01*
X136662875Y-25048286D01*
X136924365Y-25107970D01*
X136924374Y-25107971D01*
X136924379Y-25107972D01*
X137102050Y-25127990D01*
X137190887Y-25137999D01*
X137190890Y-25138000D01*
X137190893Y-25138000D01*
X137459110Y-25138000D01*
X137459111Y-25137999D01*
X137595317Y-25122652D01*
X137725620Y-25107972D01*
X137725623Y-25107971D01*
X137725635Y-25107970D01*
X137987125Y-25048286D01*
X138240288Y-24959701D01*
X138481941Y-24843327D01*
X138709045Y-24700628D01*
X138918743Y-24533399D01*
X139108399Y-24343743D01*
X139139668Y-24304534D01*
X139228053Y-24193702D01*
X139285241Y-24153561D01*
X139355053Y-24150711D01*
X139415323Y-24186056D01*
X139421947Y-24193702D01*
X139541594Y-24343736D01*
X139541600Y-24343742D01*
X139541601Y-24343743D01*
X139731257Y-24533399D01*
X139940955Y-24700628D01*
X140168059Y-24843327D01*
X140409712Y-24959701D01*
X140662875Y-25048286D01*
X140924365Y-25107970D01*
X140924374Y-25107971D01*
X140924379Y-25107972D01*
X141102050Y-25127990D01*
X141190887Y-25137999D01*
X141190890Y-25138000D01*
X141190893Y-25138000D01*
X141459110Y-25138000D01*
X141459111Y-25137999D01*
X141595317Y-25122652D01*
X141725620Y-25107972D01*
X141725623Y-25107971D01*
X141725635Y-25107970D01*
X141987125Y-25048286D01*
X142240288Y-24959701D01*
X142481941Y-24843327D01*
X142709045Y-24700628D01*
X142918743Y-24533399D01*
X143108399Y-24343743D01*
X143139668Y-24304534D01*
X143228053Y-24193702D01*
X143285241Y-24153561D01*
X143355053Y-24150711D01*
X143415323Y-24186056D01*
X143421947Y-24193702D01*
X143541594Y-24343736D01*
X143541600Y-24343742D01*
X143541601Y-24343743D01*
X143731257Y-24533399D01*
X143940955Y-24700628D01*
X144168059Y-24843327D01*
X144409712Y-24959701D01*
X144662875Y-25048286D01*
X144924365Y-25107970D01*
X144924374Y-25107971D01*
X144924379Y-25107972D01*
X145102050Y-25127990D01*
X145190887Y-25137999D01*
X145190890Y-25138000D01*
X145190893Y-25138000D01*
X145459110Y-25138000D01*
X145459111Y-25137999D01*
X145595317Y-25122652D01*
X145725620Y-25107972D01*
X145725623Y-25107971D01*
X145725635Y-25107970D01*
X145987125Y-25048286D01*
X146240288Y-24959701D01*
X146481941Y-24843327D01*
X146709045Y-24700628D01*
X146918743Y-24533399D01*
X147108399Y-24343743D01*
X147139668Y-24304534D01*
X147228053Y-24193702D01*
X147285241Y-24153561D01*
X147355053Y-24150711D01*
X147415323Y-24186056D01*
X147421947Y-24193702D01*
X147541594Y-24343736D01*
X147541600Y-24343742D01*
X147541601Y-24343743D01*
X147731257Y-24533399D01*
X147940955Y-24700628D01*
X147941965Y-24701263D01*
X147942161Y-24701484D01*
X147943789Y-24702639D01*
X147943519Y-24703019D01*
X147988258Y-24753591D01*
X148000000Y-24806260D01*
X148000000Y-27500000D01*
X165000000Y-27500000D01*
X165892571Y-26607428D01*
X165953890Y-26573946D01*
X166023581Y-26578930D01*
X166079515Y-26620801D01*
X166101139Y-26667519D01*
X166118440Y-26743320D01*
X166118443Y-26743329D01*
X166211200Y-27008411D01*
X166333053Y-27261442D01*
X166368836Y-27318390D01*
X166482477Y-27499248D01*
X166528502Y-27556961D01*
X166655325Y-27715993D01*
X166657584Y-27718825D01*
X166856175Y-27917416D01*
X167075752Y-28092523D01*
X167313555Y-28241945D01*
X167566592Y-28363801D01*
X167765680Y-28433465D01*
X167831670Y-28456556D01*
X167831679Y-28456559D01*
X167831682Y-28456560D01*
X168105491Y-28519055D01*
X168105497Y-28519055D01*
X168105505Y-28519057D01*
X168268184Y-28537386D01*
X168384569Y-28550499D01*
X168384572Y-28550500D01*
X168384575Y-28550500D01*
X168665428Y-28550500D01*
X168665429Y-28550499D01*
X168808055Y-28534429D01*
X168944494Y-28519057D01*
X168944499Y-28519056D01*
X168944509Y-28519055D01*
X169218318Y-28456560D01*
X169483408Y-28363801D01*
X169736445Y-28241945D01*
X169974248Y-28092523D01*
X170193825Y-27917416D01*
X170392416Y-27718825D01*
X170567523Y-27499248D01*
X170716945Y-27261445D01*
X170838801Y-27008408D01*
X170931560Y-26743318D01*
X170994055Y-26469509D01*
X170998362Y-26431288D01*
X171015466Y-26279478D01*
X171025500Y-26190425D01*
X171025500Y-25909575D01*
X171003453Y-25713900D01*
X170994057Y-25630505D01*
X170994054Y-25630487D01*
X170986750Y-25598488D01*
X170931560Y-25356682D01*
X170864472Y-25164955D01*
X170860910Y-25095176D01*
X170895638Y-25034549D01*
X170957632Y-25002321D01*
X170981513Y-25000000D01*
X183453130Y-25000000D01*
X183520169Y-25019685D01*
X183565924Y-25072489D01*
X183572904Y-25091903D01*
X183585255Y-25137999D01*
X183599282Y-25190346D01*
X183686538Y-25401002D01*
X183686546Y-25401019D01*
X183800551Y-25598480D01*
X183800562Y-25598496D01*
X183939367Y-25779391D01*
X183939373Y-25779398D01*
X184100601Y-25940626D01*
X184100608Y-25940632D01*
X184129256Y-25962614D01*
X184281512Y-26079444D01*
X184356283Y-26122613D01*
X184360472Y-26127006D01*
X184366209Y-26128992D01*
X184384299Y-26151995D01*
X184404497Y-26173178D01*
X184405646Y-26179139D01*
X184409400Y-26183913D01*
X184412181Y-26213046D01*
X184417721Y-26241785D01*
X184415463Y-26247422D01*
X184416041Y-26253466D01*
X184402631Y-26279478D01*
X184391753Y-26306650D01*
X184386095Y-26311551D01*
X184384025Y-26315569D01*
X184356282Y-26337386D01*
X184308403Y-26365029D01*
X184240503Y-26381502D01*
X184174476Y-26358649D01*
X184168042Y-26353744D01*
X184147982Y-26337387D01*
X184042407Y-26251302D01*
X183862049Y-26157091D01*
X183862048Y-26157090D01*
X183862045Y-26157089D01*
X183741550Y-26122612D01*
X183666418Y-26101114D01*
X183666415Y-26101113D01*
X183666413Y-26101113D01*
X183600102Y-26095217D01*
X183547037Y-26090500D01*
X183547032Y-26090500D01*
X181952971Y-26090500D01*
X181952965Y-26090500D01*
X181952964Y-26090501D01*
X181941316Y-26091536D01*
X181833584Y-26101113D01*
X181637954Y-26157089D01*
X181568332Y-26193457D01*
X181457593Y-26251302D01*
X181457591Y-26251303D01*
X181457590Y-26251304D01*
X181299890Y-26379890D01*
X181171304Y-26537590D01*
X181171302Y-26537593D01*
X181134823Y-26607428D01*
X181077089Y-26717954D01*
X181039592Y-26849004D01*
X181028516Y-26887715D01*
X181021114Y-26913583D01*
X181021113Y-26913586D01*
X181017257Y-26956958D01*
X181010500Y-27032963D01*
X181010500Y-27702493D01*
X181010501Y-28250500D01*
X180990816Y-28317539D01*
X180938013Y-28363294D01*
X180886501Y-28374500D01*
X179517560Y-28374500D01*
X179488119Y-28365855D01*
X179458133Y-28359332D01*
X179453117Y-28355577D01*
X179450521Y-28354815D01*
X179429879Y-28338181D01*
X179280533Y-28188835D01*
X179280532Y-28188833D01*
X179250284Y-28139473D01*
X179205220Y-28000781D01*
X179112287Y-27818390D01*
X179095134Y-27794781D01*
X178991971Y-27652786D01*
X178847213Y-27508028D01*
X178681613Y-27387715D01*
X178681612Y-27387714D01*
X178681610Y-27387713D01*
X178624653Y-27358691D01*
X178499223Y-27294781D01*
X178304534Y-27231522D01*
X178122972Y-27202766D01*
X178102352Y-27199500D01*
X177897648Y-27199500D01*
X177877028Y-27202766D01*
X177695465Y-27231522D01*
X177500776Y-27294781D01*
X177318386Y-27387715D01*
X177152786Y-27508028D01*
X177008028Y-27652786D01*
X176887715Y-27818386D01*
X176794781Y-28000776D01*
X176731522Y-28195465D01*
X176703838Y-28370259D01*
X176699500Y-28397648D01*
X176699500Y-28602352D01*
X176703410Y-28627037D01*
X176731522Y-28804534D01*
X176794781Y-28999223D01*
X176887714Y-29181612D01*
X176890226Y-29185711D01*
X176908470Y-29253157D01*
X176887353Y-29319759D01*
X176833581Y-29364372D01*
X176784498Y-29374500D01*
X148902739Y-29374500D01*
X148835700Y-29354815D01*
X148789945Y-29302011D01*
X148780266Y-29269898D01*
X148779830Y-29267147D01*
X148768477Y-29195466D01*
X148705220Y-29000781D01*
X148612287Y-28818390D01*
X148602220Y-28804534D01*
X148491971Y-28652786D01*
X148347213Y-28508028D01*
X148181613Y-28387715D01*
X148181612Y-28387714D01*
X148181610Y-28387713D01*
X148117044Y-28354815D01*
X147999223Y-28294781D01*
X147804534Y-28231522D01*
X147629995Y-28203878D01*
X147602352Y-28199500D01*
X147397648Y-28199500D01*
X147373329Y-28203351D01*
X147195465Y-28231522D01*
X147000776Y-28294781D01*
X146818386Y-28387715D01*
X146652786Y-28508028D01*
X146508028Y-28652786D01*
X146387715Y-28818386D01*
X146294781Y-29000778D01*
X146231522Y-29195468D01*
X146231522Y-29195469D01*
X146219734Y-29269898D01*
X146189805Y-29333033D01*
X146130493Y-29369964D01*
X146097261Y-29374500D01*
X145215502Y-29374500D01*
X145148463Y-29354815D01*
X145102708Y-29302011D01*
X145092764Y-29232853D01*
X145109774Y-29185711D01*
X145112282Y-29181616D01*
X145112287Y-29181610D01*
X145205220Y-28999219D01*
X145268477Y-28804534D01*
X145300500Y-28602352D01*
X145300500Y-28397648D01*
X145277732Y-28253900D01*
X145268477Y-28195465D01*
X145210233Y-28016210D01*
X145205220Y-28000781D01*
X145205218Y-28000778D01*
X145205218Y-28000776D01*
X145147610Y-27887715D01*
X145112287Y-27818390D01*
X145095134Y-27794781D01*
X144991971Y-27652786D01*
X144847213Y-27508028D01*
X144681613Y-27387715D01*
X144681612Y-27387714D01*
X144681610Y-27387713D01*
X144624653Y-27358691D01*
X144499223Y-27294781D01*
X144304534Y-27231522D01*
X144122972Y-27202766D01*
X144102352Y-27199500D01*
X143897648Y-27199500D01*
X143877028Y-27202766D01*
X143695465Y-27231522D01*
X143500776Y-27294781D01*
X143318386Y-27387715D01*
X143152786Y-27508028D01*
X143008028Y-27652786D01*
X142887715Y-27818386D01*
X142794781Y-28000778D01*
X142731522Y-28195467D01*
X142719686Y-28270195D01*
X142689756Y-28333329D01*
X142630443Y-28370259D01*
X142593451Y-28373841D01*
X142593451Y-28374500D01*
X140185448Y-28374500D01*
X140129153Y-28360985D01*
X140118539Y-28355577D01*
X140109115Y-28350775D01*
X139999223Y-28294781D01*
X139804534Y-28231522D01*
X139629995Y-28203878D01*
X139602352Y-28199500D01*
X139397648Y-28199500D01*
X139373329Y-28203351D01*
X139195465Y-28231522D01*
X139000776Y-28294781D01*
X138818386Y-28387715D01*
X138652786Y-28508028D01*
X138508028Y-28652786D01*
X138387715Y-28818386D01*
X138294781Y-29000778D01*
X138231522Y-29195468D01*
X138231522Y-29195469D01*
X138219734Y-29269898D01*
X138189805Y-29333033D01*
X138130493Y-29369964D01*
X138097261Y-29374500D01*
X136185448Y-29374500D01*
X136129153Y-29360985D01*
X135999223Y-29294781D01*
X135804534Y-29231522D01*
X135629995Y-29203878D01*
X135602352Y-29199500D01*
X135397648Y-29199500D01*
X135373329Y-29203351D01*
X135195465Y-29231522D01*
X135000776Y-29294781D01*
X134818386Y-29387715D01*
X134652786Y-29508028D01*
X134508033Y-29652781D01*
X134482464Y-29687974D01*
X134427133Y-29730639D01*
X134357519Y-29736617D01*
X134295725Y-29704010D01*
X134294466Y-29702768D01*
X133233216Y-28641519D01*
X133233210Y-28641514D01*
X133213284Y-28627037D01*
X133089890Y-28537386D01*
X133053912Y-28519054D01*
X132932043Y-28456958D01*
X132932034Y-28456954D01*
X132930818Y-28456559D01*
X132930814Y-28456559D01*
X132763557Y-28402214D01*
X132672001Y-28387713D01*
X132588579Y-28374500D01*
X132588578Y-28374500D01*
X128902581Y-28374500D01*
X128835542Y-28354815D01*
X128789787Y-28302011D01*
X128779843Y-28232853D01*
X128780108Y-28231102D01*
X128793831Y-28144452D01*
X128800500Y-28102352D01*
X128800500Y-27897648D01*
X128784207Y-27794780D01*
X128768477Y-27695465D01*
X128728519Y-27572489D01*
X128705220Y-27500781D01*
X128705218Y-27500778D01*
X128705218Y-27500776D01*
X128647610Y-27387715D01*
X128612287Y-27318390D01*
X128595134Y-27294781D01*
X128491971Y-27152786D01*
X128347213Y-27008028D01*
X128181613Y-26887715D01*
X128181612Y-26887714D01*
X128181610Y-26887713D01*
X128117044Y-26854815D01*
X127999223Y-26794781D01*
X127804534Y-26731522D01*
X127629995Y-26703878D01*
X127602352Y-26699500D01*
X127397648Y-26699500D01*
X127373329Y-26703351D01*
X127195465Y-26731522D01*
X127000776Y-26794781D01*
X126870847Y-26860985D01*
X126814552Y-26874500D01*
X104657110Y-26874500D01*
X104590071Y-26854815D01*
X104544316Y-26802011D01*
X104534372Y-26732853D01*
X104536219Y-26722908D01*
X104578516Y-26537590D01*
X104594055Y-26469509D01*
X104598362Y-26431288D01*
X104615466Y-26279478D01*
X104625500Y-26190425D01*
X104625500Y-25909575D01*
X104603453Y-25713900D01*
X104594057Y-25630505D01*
X104594054Y-25630487D01*
X104586750Y-25598488D01*
X104531560Y-25356682D01*
X104438801Y-25091592D01*
X104316945Y-24838555D01*
X104167523Y-24600752D01*
X103992416Y-24381175D01*
X103793825Y-24182584D01*
X103574248Y-24007477D01*
X103336445Y-23858055D01*
X103336442Y-23858053D01*
X103083411Y-23736200D01*
X102818329Y-23643443D01*
X102818317Y-23643439D01*
X102544512Y-23580945D01*
X102544494Y-23580942D01*
X102265431Y-23549500D01*
X102265425Y-23549500D01*
X101984575Y-23549500D01*
X101984568Y-23549500D01*
X101705505Y-23580942D01*
X101705487Y-23580945D01*
X101431682Y-23643439D01*
X101431670Y-23643443D01*
X101166588Y-23736200D01*
X100913557Y-23858053D01*
X100675753Y-24007476D01*
X100456175Y-24182583D01*
X100257583Y-24381175D01*
X100082476Y-24600753D01*
X99933053Y-24838557D01*
X99811200Y-25091588D01*
X99718443Y-25356670D01*
X99718439Y-25356682D01*
X99655945Y-25630487D01*
X99655942Y-25630505D01*
X99624500Y-25909568D01*
X99624500Y-26190431D01*
X99655942Y-26469494D01*
X99655945Y-26469512D01*
X99713781Y-26722908D01*
X99709508Y-26792647D01*
X99668209Y-26849004D01*
X99602997Y-26874087D01*
X99592890Y-26874500D01*
X80911421Y-26874500D01*
X80853095Y-26883738D01*
X80736443Y-26902214D01*
X80567960Y-26956956D01*
X80567957Y-26956957D01*
X80410110Y-27037385D01*
X80266785Y-27141516D01*
X70570122Y-36838181D01*
X70508799Y-36871666D01*
X70482441Y-36874500D01*
X56331421Y-36874500D01*
X56185273Y-36897648D01*
X56185272Y-36897648D01*
X56156441Y-36902214D01*
X55987964Y-36956954D01*
X55961382Y-36970499D01*
X55830109Y-37037386D01*
X55777491Y-37075616D01*
X55708833Y-37125499D01*
X55702208Y-37130312D01*
X55686787Y-37141515D01*
X54246044Y-38582257D01*
X54184721Y-38615742D01*
X54142180Y-38617515D01*
X54081291Y-38609500D01*
X54081288Y-38609500D01*
X53838712Y-38609500D01*
X53838711Y-38609500D01*
X53598214Y-38641161D01*
X53363895Y-38703947D01*
X53139794Y-38796773D01*
X53139785Y-38796777D01*
X52929706Y-38918067D01*
X52737263Y-39065733D01*
X52737256Y-39065739D01*
X52565739Y-39237256D01*
X52565733Y-39237263D01*
X52418067Y-39429706D01*
X52296777Y-39639785D01*
X52296773Y-39639794D01*
X52203947Y-39863895D01*
X52141161Y-40098214D01*
X52109500Y-40338711D01*
X52109500Y-40581288D01*
X52139567Y-40809680D01*
X52141162Y-40821789D01*
X52146569Y-40841968D01*
X52203947Y-41056104D01*
X52296773Y-41280205D01*
X52296777Y-41280215D01*
X52349976Y-41372358D01*
X52366449Y-41440259D01*
X52343596Y-41506285D01*
X52338692Y-41512718D01*
X52270303Y-41596591D01*
X52176089Y-41776954D01*
X52120114Y-41972583D01*
X52120113Y-41972586D01*
X52115904Y-42019932D01*
X52110096Y-42085266D01*
X52109500Y-42091966D01*
X52109500Y-43908028D01*
X52109501Y-43908034D01*
X52120113Y-44027415D01*
X52176089Y-44223045D01*
X52176090Y-44223048D01*
X52176091Y-44223049D01*
X52225736Y-44318090D01*
X52239327Y-44386623D01*
X52213708Y-44451627D01*
X52157013Y-44492460D01*
X52115827Y-44499500D01*
X8783746Y-44499500D01*
X8716707Y-44479815D01*
X8670952Y-44427011D01*
X8661008Y-44357853D01*
X8690033Y-44294297D01*
X8710861Y-44275182D01*
X8809900Y-44203226D01*
X9062847Y-44019449D01*
X9157463Y-43938640D01*
X9363420Y-43762736D01*
X9406456Y-43725980D01*
X9725980Y-43406456D01*
X10008549Y-43075609D01*
X10019433Y-43062866D01*
X10019435Y-43062863D01*
X10019449Y-43062847D01*
X10285055Y-42697272D01*
X10521160Y-42311984D01*
X10726307Y-41909360D01*
X10899232Y-41491882D01*
X10900951Y-41486593D01*
X10932151Y-41390568D01*
X11038869Y-41062123D01*
X11144357Y-40622733D01*
X11215046Y-40176420D01*
X11250500Y-39725938D01*
X11250500Y-39274062D01*
X11215046Y-38823580D01*
X11144357Y-38377267D01*
X11038869Y-37937877D01*
X10899232Y-37508118D01*
X10726307Y-37090640D01*
X10521160Y-36688016D01*
X10521154Y-36688007D01*
X10521152Y-36688002D01*
X10521149Y-36687997D01*
X10285061Y-36302737D01*
X10285057Y-36302732D01*
X10285055Y-36302728D01*
X10019449Y-35937153D01*
X10019444Y-35937147D01*
X10019433Y-35937133D01*
X9725996Y-35593562D01*
X9725987Y-35593552D01*
X9725980Y-35593544D01*
X9406456Y-35274020D01*
X9406448Y-35274013D01*
X9406437Y-35274003D01*
X9062866Y-34980566D01*
X9062839Y-34980545D01*
X8914067Y-34872456D01*
X8697272Y-34714945D01*
X8697269Y-34714943D01*
X8697262Y-34714938D01*
X8312002Y-34478850D01*
X8311997Y-34478847D01*
X8311987Y-34478842D01*
X8311984Y-34478840D01*
X7909360Y-34273693D01*
X7744047Y-34205218D01*
X7491876Y-34100765D01*
X7157023Y-33991966D01*
X7062123Y-33961131D01*
X6622733Y-33855643D01*
X6622727Y-33855642D01*
X6176429Y-33784955D01*
X6176420Y-33784954D01*
X6176418Y-33784953D01*
X6176410Y-33784953D01*
X5725943Y-33749500D01*
X5725938Y-33749500D01*
X5274062Y-33749500D01*
X5274056Y-33749500D01*
X4823589Y-33784953D01*
X4823570Y-33784955D01*
X4377272Y-33855642D01*
X4377269Y-33855642D01*
X4377267Y-33855643D01*
X4219910Y-33893420D01*
X3937888Y-33961128D01*
X3937882Y-33961129D01*
X3937877Y-33961131D01*
X3937865Y-33961135D01*
X3508123Y-34100765D01*
X3090642Y-34273692D01*
X2688002Y-34478847D01*
X2687997Y-34478850D01*
X2302737Y-34714938D01*
X2302726Y-34714946D01*
X1937160Y-34980545D01*
X1937133Y-34980566D01*
X1593562Y-35274003D01*
X1593536Y-35274027D01*
X1274027Y-35593536D01*
X1274003Y-35593562D01*
X980566Y-35937133D01*
X980545Y-35937160D01*
X724818Y-36289139D01*
X669488Y-36331805D01*
X599875Y-36337784D01*
X538080Y-36305178D01*
X503723Y-36244340D01*
X500500Y-36216254D01*
X500500Y-8783745D01*
X520185Y-8716706D01*
X572989Y-8670951D01*
X642147Y-8661007D01*
X705703Y-8690032D01*
X724814Y-8710856D01*
X868347Y-8908411D01*
X980545Y-9062839D01*
X980566Y-9062866D01*
X1274003Y-9406437D01*
X1274013Y-9406448D01*
X1274020Y-9406456D01*
X1593544Y-9725980D01*
X1593552Y-9725987D01*
X1593562Y-9725996D01*
X1937133Y-10019433D01*
X1937147Y-10019444D01*
X1937153Y-10019449D01*
X2302728Y-10285055D01*
X2302732Y-10285057D01*
X2302737Y-10285061D01*
X2687997Y-10521149D01*
X2688002Y-10521152D01*
X2688007Y-10521154D01*
X2688016Y-10521160D01*
X3090640Y-10726307D01*
X3457842Y-10878407D01*
X3508123Y-10899234D01*
X3617395Y-10934738D01*
X3937877Y-11038869D01*
X4377267Y-11144357D01*
X4823580Y-11215046D01*
X5274062Y-11250500D01*
X5274070Y-11250500D01*
X5725930Y-11250500D01*
X5725938Y-11250500D01*
X6176420Y-11215046D01*
X6622733Y-11144357D01*
X7062123Y-11038869D01*
X7491882Y-10899232D01*
X7909360Y-10726307D01*
X8311984Y-10521160D01*
X8345240Y-10500781D01*
X8537380Y-10383037D01*
X8697272Y-10285055D01*
X9062847Y-10019449D01*
X9076213Y-10008034D01*
X9327009Y-9793834D01*
X9406456Y-9725980D01*
X9725980Y-9406456D01*
X10019449Y-9062847D01*
X10285055Y-8697272D01*
X10521160Y-8311984D01*
X10726307Y-7909360D01*
X10899232Y-7491882D01*
X11038869Y-7062123D01*
X11144357Y-6622733D01*
X11215046Y-6176420D01*
X11250500Y-5725938D01*
X11250500Y-5274062D01*
X11215046Y-4823580D01*
X11144357Y-4377267D01*
X11038869Y-3937877D01*
X10899232Y-3508118D01*
X10726307Y-3090640D01*
X10521160Y-2688016D01*
X10521154Y-2688007D01*
X10521152Y-2688002D01*
X10521149Y-2687997D01*
X10285061Y-2302737D01*
X10285057Y-2302732D01*
X10285055Y-2302728D01*
X10019449Y-1937153D01*
X10019444Y-1937147D01*
X10019433Y-1937133D01*
X9725996Y-1593562D01*
X9725987Y-1593552D01*
X9725980Y-1593544D01*
X9406456Y-1274020D01*
X9406448Y-1274013D01*
X9406437Y-1274003D01*
X9062866Y-980566D01*
X9062839Y-980545D01*
X8710861Y-724818D01*
X8668195Y-669488D01*
X8662216Y-599875D01*
X8694822Y-538080D01*
X8755660Y-503723D01*
X8783746Y-500500D01*
X54528440Y-500500D01*
X54595479Y-520185D01*
G37*
%TD.AperFunction*%
%TA.AperFunction,Conductor*%
G36*
X79136827Y-39011404D02*
G01*
X79163624Y-39009680D01*
X79171148Y-39013858D01*
X79179736Y-39014473D01*
X79201233Y-39030565D01*
X79224707Y-39043602D01*
X79228778Y-39051186D01*
X79235669Y-39056345D01*
X79245052Y-39081502D01*
X79257753Y-39105162D01*
X79258561Y-39117721D01*
X79260086Y-39121809D01*
X79260020Y-39140383D01*
X79249500Y-39274054D01*
X79249500Y-39725943D01*
X79284953Y-40176410D01*
X79284955Y-40176429D01*
X79340473Y-40526954D01*
X79355643Y-40622733D01*
X79461131Y-41062123D01*
X79501413Y-41186101D01*
X79600765Y-41491876D01*
X79674091Y-41668900D01*
X79773693Y-41909360D01*
X79956196Y-42267542D01*
X79978847Y-42311997D01*
X79978850Y-42312002D01*
X80214938Y-42697262D01*
X80214943Y-42697269D01*
X80214945Y-42697272D01*
X80227262Y-42714225D01*
X80480545Y-43062839D01*
X80480566Y-43062866D01*
X80774003Y-43406437D01*
X80774013Y-43406448D01*
X80774020Y-43406456D01*
X81093544Y-43725980D01*
X81093552Y-43725987D01*
X81093562Y-43725996D01*
X81437133Y-44019433D01*
X81437147Y-44019444D01*
X81437153Y-44019449D01*
X81437160Y-44019454D01*
X81789139Y-44275182D01*
X81831805Y-44330512D01*
X81837784Y-44400125D01*
X81805178Y-44461920D01*
X81744340Y-44496277D01*
X81716254Y-44499500D01*
X73891559Y-44499500D01*
X73824520Y-44479815D01*
X73778765Y-44427011D01*
X73768821Y-44357853D01*
X73797846Y-44294297D01*
X73803878Y-44287819D01*
X75028858Y-43062839D01*
X79048723Y-39042972D01*
X79072285Y-39030106D01*
X79093898Y-39014167D01*
X79102489Y-39013614D01*
X79110044Y-39009489D01*
X79136827Y-39011404D01*
G37*
%TD.AperFunction*%
%TA.AperFunction,Conductor*%
G36*
X124870847Y-32139015D02*
G01*
X125000776Y-32205218D01*
X125000778Y-32205218D01*
X125000781Y-32205220D01*
X125082749Y-32231853D01*
X125195465Y-32268477D01*
X125296557Y-32284488D01*
X125397648Y-32300500D01*
X125397649Y-32300500D01*
X125602351Y-32300500D01*
X125602352Y-32300500D01*
X125804534Y-32268477D01*
X125999219Y-32205220D01*
X126033396Y-32187805D01*
X126102063Y-32174909D01*
X126166804Y-32201184D01*
X126207062Y-32258289D01*
X126212164Y-32317687D01*
X126199500Y-32397647D01*
X126199500Y-32602351D01*
X126231522Y-32804534D01*
X126294781Y-32999223D01*
X126387715Y-33181613D01*
X126508028Y-33347213D01*
X126652786Y-33491971D01*
X126782824Y-33586447D01*
X126818390Y-33612287D01*
X126997774Y-33703688D01*
X127000783Y-33705221D01*
X127139474Y-33750284D01*
X127188837Y-33780534D01*
X129516122Y-36107819D01*
X129549607Y-36169142D01*
X129544623Y-36238834D01*
X129502751Y-36294767D01*
X129437287Y-36319184D01*
X129428441Y-36319500D01*
X129065904Y-36319500D01*
X128973438Y-36325918D01*
X128973422Y-36325920D01*
X128756864Y-36376854D01*
X128756848Y-36376860D01*
X128553331Y-36466721D01*
X128369779Y-36592457D01*
X128369773Y-36592462D01*
X128212462Y-36749773D01*
X128212457Y-36749779D01*
X128083483Y-36938059D01*
X128081362Y-36936606D01*
X128039236Y-36977885D01*
X127970815Y-36992042D01*
X127905603Y-36966960D01*
X127868020Y-36919735D01*
X127850835Y-36881902D01*
X127799315Y-36768477D01*
X127782008Y-36730374D01*
X127782002Y-36730364D01*
X127653826Y-36545353D01*
X127653823Y-36545349D01*
X127653820Y-36545345D01*
X127494655Y-36386180D01*
X127494651Y-36386177D01*
X127494646Y-36386173D01*
X127309635Y-36257997D01*
X127309625Y-36257991D01*
X127104687Y-36164903D01*
X126948309Y-36125500D01*
X126886414Y-36109904D01*
X126859922Y-36107819D01*
X126754225Y-36099500D01*
X126754220Y-36099500D01*
X120725780Y-36099500D01*
X120725774Y-36099500D01*
X120593586Y-36109904D01*
X120375312Y-36164903D01*
X120170374Y-36257991D01*
X120170364Y-36257997D01*
X119985353Y-36386173D01*
X119985341Y-36386183D01*
X119826183Y-36545341D01*
X119826173Y-36545353D01*
X119697997Y-36730364D01*
X119697991Y-36730374D01*
X119604903Y-36935312D01*
X119549904Y-37153586D01*
X119539500Y-37285774D01*
X119539500Y-38375500D01*
X119519815Y-38442539D01*
X119467011Y-38488294D01*
X119415500Y-38499500D01*
X117881903Y-38499500D01*
X117648631Y-38536446D01*
X117424003Y-38609433D01*
X117213566Y-38716657D01*
X117130150Y-38777263D01*
X117022490Y-38855483D01*
X117022488Y-38855485D01*
X117022487Y-38855485D01*
X116855485Y-39022487D01*
X116855485Y-39022488D01*
X116855483Y-39022490D01*
X116834634Y-39051186D01*
X116716657Y-39213566D01*
X116609433Y-39424003D01*
X116536446Y-39648631D01*
X116499500Y-39881902D01*
X116499500Y-40118097D01*
X116536446Y-40351368D01*
X116609433Y-40575996D01*
X116684124Y-40722584D01*
X116716657Y-40786433D01*
X116855483Y-40977510D01*
X117022490Y-41144517D01*
X117213567Y-41283343D01*
X117255157Y-41304534D01*
X117424003Y-41390566D01*
X117424005Y-41390566D01*
X117424008Y-41390568D01*
X117527279Y-41424123D01*
X117648631Y-41463553D01*
X117881903Y-41500500D01*
X117881908Y-41500500D01*
X119415500Y-41500500D01*
X119482539Y-41520185D01*
X119528294Y-41572989D01*
X119539500Y-41624500D01*
X119539500Y-42714225D01*
X119549904Y-42846413D01*
X119604903Y-43064687D01*
X119697991Y-43269625D01*
X119697997Y-43269635D01*
X119826173Y-43454646D01*
X119826177Y-43454651D01*
X119826180Y-43454655D01*
X119985345Y-43613820D01*
X119985349Y-43613823D01*
X119985353Y-43613826D01*
X120170364Y-43742002D01*
X120170374Y-43742008D01*
X120375312Y-43835096D01*
X120375313Y-43835096D01*
X120375315Y-43835097D01*
X120593586Y-43890096D01*
X120725780Y-43900500D01*
X120725788Y-43900500D01*
X126754212Y-43900500D01*
X126754220Y-43900500D01*
X126886414Y-43890096D01*
X127104685Y-43835097D01*
X127309628Y-43742007D01*
X127494655Y-43613820D01*
X127653820Y-43454655D01*
X127782007Y-43269628D01*
X127875097Y-43064685D01*
X127930096Y-42846414D01*
X127940500Y-42714220D01*
X127940500Y-42113645D01*
X127960185Y-42046606D01*
X128012989Y-42000851D01*
X128082147Y-41990907D01*
X128145703Y-42019932D01*
X128166800Y-42043569D01*
X128212453Y-42110216D01*
X128212462Y-42110226D01*
X128369773Y-42267537D01*
X128369779Y-42267542D01*
X128553329Y-42393277D01*
X128553330Y-42393277D01*
X128553331Y-42393278D01*
X128645803Y-42434108D01*
X128756857Y-42483143D01*
X128756861Y-42483144D01*
X128756864Y-42483145D01*
X128973422Y-42534079D01*
X128973427Y-42534079D01*
X128973433Y-42534081D01*
X129024808Y-42537647D01*
X129065904Y-42540500D01*
X129065908Y-42540500D01*
X131014096Y-42540500D01*
X131051082Y-42537932D01*
X131106567Y-42534081D01*
X131106573Y-42534079D01*
X131106577Y-42534079D01*
X131323135Y-42483145D01*
X131323135Y-42483144D01*
X131323143Y-42483143D01*
X131526671Y-42393277D01*
X131681524Y-42287200D01*
X131747956Y-42265554D01*
X131751601Y-42265500D01*
X131948578Y-42265500D01*
X131948579Y-42265500D01*
X132123556Y-42237786D01*
X132292042Y-42183042D01*
X132318350Y-42169636D01*
X132387019Y-42156739D01*
X132430944Y-42169636D01*
X132500774Y-42205217D01*
X132500777Y-42205217D01*
X132500781Y-42205220D01*
X132601006Y-42237785D01*
X132695465Y-42268477D01*
X132796557Y-42284488D01*
X132897648Y-42300500D01*
X132897649Y-42300500D01*
X133102351Y-42300500D01*
X133102352Y-42300500D01*
X133304534Y-42268477D01*
X133499219Y-42205220D01*
X133681610Y-42112287D01*
X133776193Y-42043569D01*
X133847213Y-41991971D01*
X133847215Y-41991968D01*
X133847219Y-41991966D01*
X133991966Y-41847219D01*
X133991968Y-41847215D01*
X133991971Y-41847213D01*
X134044732Y-41774590D01*
X134112287Y-41681610D01*
X134205220Y-41499219D01*
X134268477Y-41304534D01*
X134300500Y-41102352D01*
X134300500Y-40897648D01*
X134293191Y-40851501D01*
X134268477Y-40695465D01*
X134229659Y-40575996D01*
X134205220Y-40500781D01*
X134205218Y-40500778D01*
X134205218Y-40500776D01*
X134166314Y-40424423D01*
X134112287Y-40318390D01*
X134104556Y-40307749D01*
X133991971Y-40152786D01*
X133847213Y-40008028D01*
X133681613Y-39887715D01*
X133681612Y-39887714D01*
X133681610Y-39887713D01*
X133600309Y-39846288D01*
X133499223Y-39794781D01*
X133304534Y-39731522D01*
X133129995Y-39703878D01*
X133102352Y-39699500D01*
X132897648Y-39699500D01*
X132873329Y-39703351D01*
X132695465Y-39731522D01*
X132500776Y-39794781D01*
X132370847Y-39860985D01*
X132357843Y-39864106D01*
X132349487Y-39869477D01*
X132314552Y-39874500D01*
X132072456Y-39874500D01*
X132005417Y-39854815D01*
X131959662Y-39802011D01*
X131949718Y-39732853D01*
X131970157Y-39680423D01*
X131993275Y-39646674D01*
X131993277Y-39646671D01*
X132083139Y-39443151D01*
X132083143Y-39443143D01*
X132086303Y-39429706D01*
X132134079Y-39226577D01*
X132134079Y-39226573D01*
X132134081Y-39226567D01*
X132140500Y-39134092D01*
X132140500Y-39016966D01*
X134599500Y-39016966D01*
X134599500Y-40983028D01*
X134599500Y-40983033D01*
X134599501Y-40983036D01*
X134600565Y-40995000D01*
X134610113Y-41102415D01*
X134666089Y-41298045D01*
X134666090Y-41298048D01*
X134666091Y-41298049D01*
X134760302Y-41478407D01*
X134785823Y-41509706D01*
X134888890Y-41636109D01*
X134944697Y-41681613D01*
X135046593Y-41764698D01*
X135226951Y-41858909D01*
X135422582Y-41914886D01*
X135541963Y-41925500D01*
X139158036Y-41925499D01*
X139277418Y-41914886D01*
X139473049Y-41858909D01*
X139653407Y-41764698D01*
X139811109Y-41636109D01*
X139939698Y-41478407D01*
X140033909Y-41298049D01*
X140089886Y-41102418D01*
X140100500Y-40983037D01*
X140100499Y-39016964D01*
X140089886Y-38897582D01*
X140033909Y-38701951D01*
X139939698Y-38521593D01*
X139875238Y-38442539D01*
X139811109Y-38363890D01*
X139653409Y-38235304D01*
X139653410Y-38235304D01*
X139653407Y-38235302D01*
X139473049Y-38141091D01*
X139473048Y-38141090D01*
X139473045Y-38141089D01*
X139355829Y-38107550D01*
X139277418Y-38085114D01*
X139277415Y-38085113D01*
X139277413Y-38085113D01*
X139211102Y-38079217D01*
X139158037Y-38074500D01*
X139158032Y-38074500D01*
X135541971Y-38074500D01*
X135541965Y-38074500D01*
X135541964Y-38074501D01*
X135530316Y-38075536D01*
X135422584Y-38085113D01*
X135226954Y-38141089D01*
X135161082Y-38175498D01*
X135046593Y-38235302D01*
X135046591Y-38235303D01*
X135046590Y-38235304D01*
X134888890Y-38363890D01*
X134760304Y-38521590D01*
X134760302Y-38521593D01*
X134752543Y-38536447D01*
X134666089Y-38701954D01*
X134610114Y-38897583D01*
X134610113Y-38897586D01*
X134603701Y-38969711D01*
X134599722Y-39014473D01*
X134599500Y-39016966D01*
X132140500Y-39016966D01*
X132140500Y-38585908D01*
X132134081Y-38493433D01*
X132092911Y-38318388D01*
X132092911Y-38261611D01*
X132134081Y-38086567D01*
X132140500Y-37994092D01*
X132140500Y-37445908D01*
X132134081Y-37353433D01*
X132134079Y-37353427D01*
X132134079Y-37353422D01*
X132116314Y-37277890D01*
X132120127Y-37208125D01*
X132161052Y-37151495D01*
X132226097Y-37125982D01*
X132237020Y-37125500D01*
X133088578Y-37125500D01*
X133088579Y-37125500D01*
X133263556Y-37097786D01*
X133432042Y-37043042D01*
X133436693Y-37040672D01*
X133441171Y-37038391D01*
X133441172Y-37038390D01*
X133443142Y-37037386D01*
X133589890Y-36962614D01*
X133733214Y-36858483D01*
X133858483Y-36733214D01*
X133917070Y-36674628D01*
X133917074Y-36674622D01*
X133920780Y-36670916D01*
X133929886Y-36661812D01*
X133991211Y-36628332D01*
X134017560Y-36625500D01*
X155982441Y-36625500D01*
X156049480Y-36645185D01*
X156070122Y-36661819D01*
X156169379Y-36761076D01*
X156202864Y-36822399D01*
X156204171Y-36868150D01*
X156199500Y-36897648D01*
X156199500Y-36897653D01*
X156199500Y-37102351D01*
X156231522Y-37304534D01*
X156294781Y-37499223D01*
X156340311Y-37588579D01*
X156381439Y-37669297D01*
X156387715Y-37681613D01*
X156508028Y-37847213D01*
X156652786Y-37991971D01*
X156766621Y-38074675D01*
X156818390Y-38112287D01*
X156934607Y-38171503D01*
X157000776Y-38205218D01*
X157000778Y-38205218D01*
X157000781Y-38205220D01*
X157093364Y-38235302D01*
X157195465Y-38268477D01*
X157296557Y-38284488D01*
X157397648Y-38300500D01*
X157397649Y-38300500D01*
X157602351Y-38300500D01*
X157602352Y-38300500D01*
X157804534Y-38268477D01*
X157999219Y-38205220D01*
X158181610Y-38112287D01*
X158287572Y-38035302D01*
X158347213Y-37991971D01*
X158347215Y-37991968D01*
X158347219Y-37991966D01*
X158491966Y-37847219D01*
X158491968Y-37847215D01*
X158491971Y-37847213D01*
X158544732Y-37774590D01*
X158612287Y-37681610D01*
X158705220Y-37499219D01*
X158743319Y-37381961D01*
X158782757Y-37324286D01*
X158847115Y-37297088D01*
X158880644Y-37297806D01*
X158897648Y-37300500D01*
X158897651Y-37300500D01*
X159102351Y-37300500D01*
X159102352Y-37300500D01*
X159304534Y-37268477D01*
X159499219Y-37205220D01*
X159681610Y-37112287D01*
X159837231Y-36999223D01*
X159847213Y-36991971D01*
X159847215Y-36991968D01*
X159847219Y-36991966D01*
X159991966Y-36847219D01*
X159991968Y-36847215D01*
X159991971Y-36847213D01*
X160062764Y-36749773D01*
X160112287Y-36681610D01*
X160205220Y-36499219D01*
X160257717Y-36337648D01*
X160297154Y-36279973D01*
X160361513Y-36252775D01*
X160430359Y-36264690D01*
X160475966Y-36303081D01*
X160494832Y-36329048D01*
X160508034Y-36347219D01*
X160652786Y-36491971D01*
X160807749Y-36604556D01*
X160818390Y-36612287D01*
X160915588Y-36661812D01*
X161000776Y-36705218D01*
X161000778Y-36705218D01*
X161000781Y-36705220D01*
X161078191Y-36730372D01*
X161195465Y-36768477D01*
X161296557Y-36784488D01*
X161397648Y-36800500D01*
X161397649Y-36800500D01*
X161602351Y-36800500D01*
X161602352Y-36800500D01*
X161804534Y-36768477D01*
X161999219Y-36705220D01*
X162181610Y-36612287D01*
X162181612Y-36612285D01*
X162181615Y-36612284D01*
X162185207Y-36610083D01*
X162252652Y-36591836D01*
X162314793Y-36610083D01*
X162318384Y-36612284D01*
X162500776Y-36705218D01*
X162500778Y-36705218D01*
X162500781Y-36705220D01*
X162578191Y-36730372D01*
X162695465Y-36768477D01*
X162796557Y-36784488D01*
X162897648Y-36800500D01*
X162897649Y-36800500D01*
X163102351Y-36800500D01*
X163102352Y-36800500D01*
X163304534Y-36768477D01*
X163499219Y-36705220D01*
X163681610Y-36612287D01*
X163837231Y-36499223D01*
X163847213Y-36491971D01*
X163847215Y-36491968D01*
X163847219Y-36491966D01*
X163991966Y-36347219D01*
X164024032Y-36303082D01*
X164079361Y-36260417D01*
X164148974Y-36254436D01*
X164210770Y-36287041D01*
X164242282Y-36337648D01*
X164294781Y-36499223D01*
X164352391Y-36612287D01*
X164384155Y-36674628D01*
X164387715Y-36681613D01*
X164508028Y-36847213D01*
X164652786Y-36991971D01*
X164807749Y-37104556D01*
X164818390Y-37112287D01*
X164899444Y-37153586D01*
X165000776Y-37205218D01*
X165000778Y-37205218D01*
X165000781Y-37205220D01*
X165105137Y-37239127D01*
X165195465Y-37268477D01*
X165254896Y-37277890D01*
X165397648Y-37300500D01*
X165397649Y-37300500D01*
X165602351Y-37300500D01*
X165602352Y-37300500D01*
X165804534Y-37268477D01*
X165999219Y-37205220D01*
X166181610Y-37112287D01*
X166337231Y-36999223D01*
X166347213Y-36991971D01*
X166347215Y-36991968D01*
X166347219Y-36991966D01*
X166491966Y-36847219D01*
X166491968Y-36847215D01*
X166491971Y-36847213D01*
X166562764Y-36749773D01*
X166612287Y-36681610D01*
X166705220Y-36499219D01*
X166768477Y-36304534D01*
X166800500Y-36102352D01*
X166800500Y-35897648D01*
X166768477Y-35695466D01*
X166768476Y-35695464D01*
X166735366Y-35593562D01*
X166705220Y-35500781D01*
X166705218Y-35500778D01*
X166705218Y-35500776D01*
X166649867Y-35392145D01*
X166612287Y-35318390D01*
X166580051Y-35274020D01*
X166491971Y-35152786D01*
X166347213Y-35008028D01*
X166181613Y-34887715D01*
X166181612Y-34887714D01*
X166181610Y-34887713D01*
X166082436Y-34837181D01*
X165999223Y-34794781D01*
X165804534Y-34731522D01*
X165629995Y-34703878D01*
X165602352Y-34699500D01*
X165397648Y-34699500D01*
X165373329Y-34703351D01*
X165195465Y-34731522D01*
X165000776Y-34794781D01*
X164818386Y-34887715D01*
X164652786Y-35008028D01*
X164508032Y-35152782D01*
X164475966Y-35196918D01*
X164420636Y-35239583D01*
X164351022Y-35245562D01*
X164289227Y-35212956D01*
X164257717Y-35162350D01*
X164237496Y-35100116D01*
X164205220Y-35000781D01*
X164112287Y-34818390D01*
X164095134Y-34794781D01*
X163991971Y-34652786D01*
X163847213Y-34508028D01*
X163681613Y-34387715D01*
X163681612Y-34387714D01*
X163681610Y-34387713D01*
X163533037Y-34312011D01*
X163499216Y-34294778D01*
X163360525Y-34249715D01*
X163311162Y-34219465D01*
X161928878Y-32837181D01*
X161895393Y-32775858D01*
X161900377Y-32706166D01*
X161942249Y-32650233D01*
X162007713Y-32625816D01*
X162016559Y-32625500D01*
X171983441Y-32625500D01*
X172050480Y-32645185D01*
X172096235Y-32697989D01*
X172106179Y-32767147D01*
X172077154Y-32830703D01*
X172071122Y-32837181D01*
X171688836Y-33219465D01*
X171639474Y-33249715D01*
X171500777Y-33294781D01*
X171318386Y-33387715D01*
X171152786Y-33508028D01*
X171008028Y-33652786D01*
X170887715Y-33818386D01*
X170794781Y-34000776D01*
X170731522Y-34195465D01*
X170699500Y-34397648D01*
X170699500Y-34602351D01*
X170731522Y-34804534D01*
X170794781Y-34999223D01*
X170847328Y-35102351D01*
X170873026Y-35152786D01*
X170887715Y-35181613D01*
X171008028Y-35347213D01*
X171152786Y-35491971D01*
X171290241Y-35591836D01*
X171318390Y-35612287D01*
X171434607Y-35671503D01*
X171500776Y-35705218D01*
X171500778Y-35705218D01*
X171500781Y-35705220D01*
X171605137Y-35739127D01*
X171695465Y-35768477D01*
X171796557Y-35784488D01*
X171897648Y-35800500D01*
X171897649Y-35800500D01*
X172102351Y-35800500D01*
X172102352Y-35800500D01*
X172304534Y-35768477D01*
X172499219Y-35705220D01*
X172681610Y-35612287D01*
X172774590Y-35544732D01*
X172847213Y-35491971D01*
X172847215Y-35491968D01*
X172847219Y-35491966D01*
X172991966Y-35347219D01*
X172991968Y-35347215D01*
X172991971Y-35347213D01*
X173062236Y-35250500D01*
X173112287Y-35181610D01*
X173205220Y-34999219D01*
X173211288Y-34980545D01*
X173250284Y-34860525D01*
X173280532Y-34811163D01*
X174429878Y-33661819D01*
X174491201Y-33628334D01*
X174517559Y-33625500D01*
X178788213Y-33625500D01*
X178855252Y-33645185D01*
X178901007Y-33697989D01*
X178910951Y-33767147D01*
X178881926Y-33830703D01*
X178823148Y-33868477D01*
X178817183Y-33870067D01*
X178597346Y-33922846D01*
X178437888Y-33961128D01*
X178437882Y-33961129D01*
X178437877Y-33961131D01*
X178437865Y-33961135D01*
X178008123Y-34100765D01*
X177590642Y-34273692D01*
X177188002Y-34478847D01*
X177187997Y-34478850D01*
X176802737Y-34714938D01*
X176802726Y-34714946D01*
X176437160Y-34980545D01*
X176437133Y-34980566D01*
X176093562Y-35274003D01*
X176093536Y-35274027D01*
X175774027Y-35593536D01*
X175774003Y-35593562D01*
X175480566Y-35937133D01*
X175480545Y-35937160D01*
X175214946Y-36302726D01*
X175214938Y-36302737D01*
X174978850Y-36687997D01*
X174978847Y-36688002D01*
X174773692Y-37090642D01*
X174600765Y-37508123D01*
X174461135Y-37937865D01*
X174461128Y-37937888D01*
X174410325Y-38149500D01*
X174365966Y-38334271D01*
X174355642Y-38377272D01*
X174284955Y-38823570D01*
X174284953Y-38823589D01*
X174249500Y-39274056D01*
X174249500Y-39725943D01*
X174284953Y-40176410D01*
X174284955Y-40176429D01*
X174340473Y-40526954D01*
X174355643Y-40622733D01*
X174461131Y-41062123D01*
X174501413Y-41186101D01*
X174600765Y-41491876D01*
X174674091Y-41668900D01*
X174773693Y-41909360D01*
X174956196Y-42267542D01*
X174978847Y-42311997D01*
X174978850Y-42312002D01*
X175214938Y-42697262D01*
X175214943Y-42697269D01*
X175214945Y-42697272D01*
X175227262Y-42714225D01*
X175480545Y-43062839D01*
X175480566Y-43062866D01*
X175774003Y-43406437D01*
X175774013Y-43406448D01*
X175774020Y-43406456D01*
X176093544Y-43725980D01*
X176093552Y-43725987D01*
X176093562Y-43725996D01*
X176437133Y-44019433D01*
X176437147Y-44019444D01*
X176437153Y-44019449D01*
X176437160Y-44019454D01*
X176789139Y-44275182D01*
X176831805Y-44330512D01*
X176837784Y-44400125D01*
X176805178Y-44461920D01*
X176744340Y-44496277D01*
X176716254Y-44499500D01*
X172588329Y-44499500D01*
X172521290Y-44479815D01*
X172475535Y-44427011D01*
X172465591Y-44357853D01*
X172494616Y-44294297D01*
X172540876Y-44260939D01*
X172574131Y-44247163D01*
X172680212Y-44203224D01*
X172890289Y-44081936D01*
X173082738Y-43934265D01*
X173254265Y-43762738D01*
X173401936Y-43570289D01*
X173523224Y-43360212D01*
X173616054Y-43136100D01*
X173678838Y-42901789D01*
X173710500Y-42661288D01*
X173710500Y-42418712D01*
X173707151Y-42393277D01*
X173693186Y-42287200D01*
X173678838Y-42178211D01*
X173616054Y-41943900D01*
X173608432Y-41925500D01*
X173580378Y-41857770D01*
X173523224Y-41719788D01*
X173401936Y-41509711D01*
X173310513Y-41390566D01*
X173254266Y-41317263D01*
X173254260Y-41317256D01*
X173082743Y-41145739D01*
X173082736Y-41145733D01*
X172890293Y-40998067D01*
X172890292Y-40998066D01*
X172890289Y-40998064D01*
X172711190Y-40894661D01*
X172680214Y-40876777D01*
X172680205Y-40876773D01*
X172456104Y-40783947D01*
X172297288Y-40741392D01*
X172221789Y-40721162D01*
X172221788Y-40721161D01*
X172221785Y-40721161D01*
X171981289Y-40689500D01*
X171981288Y-40689500D01*
X171738712Y-40689500D01*
X171738711Y-40689500D01*
X171498214Y-40721161D01*
X171263896Y-40783947D01*
X171219800Y-40802212D01*
X171150331Y-40809680D01*
X171087852Y-40778404D01*
X171052200Y-40718314D01*
X171054695Y-40648489D01*
X171057789Y-40640196D01*
X171076051Y-40596108D01*
X171076051Y-40596105D01*
X171076054Y-40596100D01*
X171138838Y-40361789D01*
X171170500Y-40121288D01*
X171170500Y-39878712D01*
X171169945Y-39874500D01*
X171155341Y-39763569D01*
X171138838Y-39638211D01*
X171076054Y-39403900D01*
X170983224Y-39179788D01*
X170861936Y-38969711D01*
X170801018Y-38890321D01*
X170714266Y-38777263D01*
X170714260Y-38777256D01*
X170542743Y-38605739D01*
X170542736Y-38605733D01*
X170350293Y-38458067D01*
X170350292Y-38458066D01*
X170350289Y-38458064D01*
X170140212Y-38336776D01*
X170140205Y-38336773D01*
X169916104Y-38243947D01*
X169681785Y-38181161D01*
X169441289Y-38149500D01*
X169441288Y-38149500D01*
X169198712Y-38149500D01*
X169198711Y-38149500D01*
X168958214Y-38181161D01*
X168723895Y-38243947D01*
X168499794Y-38336773D01*
X168499785Y-38336777D01*
X168289706Y-38458067D01*
X168125486Y-38584077D01*
X168060317Y-38609271D01*
X167991872Y-38595232D01*
X167974514Y-38584077D01*
X167810293Y-38458067D01*
X167810292Y-38458066D01*
X167810289Y-38458064D01*
X167600212Y-38336776D01*
X167600205Y-38336773D01*
X167376104Y-38243947D01*
X167141785Y-38181161D01*
X166901289Y-38149500D01*
X166901288Y-38149500D01*
X166658712Y-38149500D01*
X166658711Y-38149500D01*
X166418214Y-38181161D01*
X166183895Y-38243947D01*
X165959794Y-38336773D01*
X165959785Y-38336777D01*
X165749706Y-38458067D01*
X165585486Y-38584077D01*
X165520317Y-38609271D01*
X165451872Y-38595232D01*
X165434514Y-38584077D01*
X165270293Y-38458067D01*
X165270292Y-38458066D01*
X165270289Y-38458064D01*
X165060212Y-38336776D01*
X165060205Y-38336773D01*
X164836104Y-38243947D01*
X164601785Y-38181161D01*
X164361289Y-38149500D01*
X164361288Y-38149500D01*
X164118712Y-38149500D01*
X164118711Y-38149500D01*
X163878214Y-38181161D01*
X163643895Y-38243947D01*
X163419794Y-38336773D01*
X163419785Y-38336777D01*
X163209706Y-38458067D01*
X163045486Y-38584077D01*
X162980317Y-38609271D01*
X162911872Y-38595232D01*
X162894514Y-38584077D01*
X162730293Y-38458067D01*
X162730292Y-38458066D01*
X162730289Y-38458064D01*
X162520212Y-38336776D01*
X162520205Y-38336773D01*
X162296104Y-38243947D01*
X162061785Y-38181161D01*
X161821289Y-38149500D01*
X161821288Y-38149500D01*
X161578712Y-38149500D01*
X161578711Y-38149500D01*
X161338214Y-38181161D01*
X161103895Y-38243947D01*
X160879794Y-38336773D01*
X160879785Y-38336777D01*
X160669706Y-38458067D01*
X160505486Y-38584077D01*
X160440317Y-38609271D01*
X160371872Y-38595232D01*
X160354514Y-38584077D01*
X160190293Y-38458067D01*
X160190292Y-38458066D01*
X160190289Y-38458064D01*
X159980212Y-38336776D01*
X159980205Y-38336773D01*
X159756104Y-38243947D01*
X159521785Y-38181161D01*
X159281289Y-38149500D01*
X159281288Y-38149500D01*
X159038712Y-38149500D01*
X159038711Y-38149500D01*
X158798214Y-38181161D01*
X158563895Y-38243947D01*
X158339794Y-38336773D01*
X158339785Y-38336777D01*
X158129706Y-38458067D01*
X157937263Y-38605733D01*
X157937256Y-38605739D01*
X157765739Y-38777256D01*
X157765733Y-38777263D01*
X157618067Y-38969706D01*
X157496777Y-39179785D01*
X157496773Y-39179794D01*
X157403947Y-39403895D01*
X157341161Y-39638214D01*
X157309500Y-39878711D01*
X157309500Y-40121288D01*
X157338123Y-40338712D01*
X157341162Y-40361789D01*
X157390310Y-40545212D01*
X157403948Y-40596107D01*
X157422211Y-40640198D01*
X157429680Y-40709667D01*
X157398404Y-40772146D01*
X157338315Y-40807798D01*
X157268490Y-40805304D01*
X157260198Y-40802211D01*
X157216107Y-40783948D01*
X157109151Y-40755289D01*
X156981789Y-40721162D01*
X156981788Y-40721161D01*
X156981785Y-40721161D01*
X156741289Y-40689500D01*
X156741288Y-40689500D01*
X156498712Y-40689500D01*
X156498711Y-40689500D01*
X156258214Y-40721161D01*
X156023896Y-40783947D01*
X155979800Y-40802212D01*
X155910331Y-40809680D01*
X155847852Y-40778404D01*
X155812200Y-40718314D01*
X155814695Y-40648489D01*
X155817789Y-40640196D01*
X155836051Y-40596108D01*
X155836051Y-40596105D01*
X155836054Y-40596100D01*
X155898838Y-40361789D01*
X155930500Y-40121288D01*
X155930500Y-39878712D01*
X155929945Y-39874500D01*
X155915341Y-39763569D01*
X155898838Y-39638211D01*
X155836054Y-39403900D01*
X155743224Y-39179788D01*
X155621936Y-38969711D01*
X155561018Y-38890321D01*
X155474266Y-38777263D01*
X155474260Y-38777256D01*
X155302743Y-38605739D01*
X155302736Y-38605733D01*
X155110293Y-38458067D01*
X155110292Y-38458066D01*
X155110289Y-38458064D01*
X154900212Y-38336776D01*
X154900205Y-38336773D01*
X154676104Y-38243947D01*
X154441785Y-38181161D01*
X154201289Y-38149500D01*
X154201288Y-38149500D01*
X153958712Y-38149500D01*
X153958711Y-38149500D01*
X153718214Y-38181161D01*
X153483895Y-38243947D01*
X153259794Y-38336773D01*
X153259785Y-38336777D01*
X153049706Y-38458067D01*
X152885486Y-38584077D01*
X152820317Y-38609271D01*
X152751872Y-38595232D01*
X152734514Y-38584077D01*
X152570293Y-38458067D01*
X152570292Y-38458066D01*
X152570289Y-38458064D01*
X152360212Y-38336776D01*
X152360205Y-38336773D01*
X152136104Y-38243947D01*
X151901785Y-38181161D01*
X151661289Y-38149500D01*
X151661288Y-38149500D01*
X151418712Y-38149500D01*
X151418711Y-38149500D01*
X151178214Y-38181161D01*
X150943895Y-38243947D01*
X150719794Y-38336773D01*
X150719785Y-38336777D01*
X150509706Y-38458067D01*
X150317263Y-38605733D01*
X150317256Y-38605739D01*
X150145739Y-38777256D01*
X150145733Y-38777263D01*
X149998067Y-38969706D01*
X149876777Y-39179785D01*
X149876773Y-39179794D01*
X149783947Y-39403895D01*
X149721161Y-39638214D01*
X149689500Y-39878711D01*
X149689500Y-40121288D01*
X149718123Y-40338712D01*
X149721162Y-40361789D01*
X149770310Y-40545212D01*
X149783948Y-40596107D01*
X149802211Y-40640198D01*
X149809680Y-40709667D01*
X149778404Y-40772146D01*
X149718315Y-40807798D01*
X149648490Y-40805304D01*
X149640198Y-40802211D01*
X149596107Y-40783948D01*
X149489151Y-40755289D01*
X149361789Y-40721162D01*
X149361788Y-40721161D01*
X149361785Y-40721161D01*
X149121289Y-40689500D01*
X149121288Y-40689500D01*
X148878712Y-40689500D01*
X148878711Y-40689500D01*
X148638214Y-40721161D01*
X148403895Y-40783947D01*
X148179794Y-40876773D01*
X148179785Y-40876777D01*
X147969706Y-40998067D01*
X147777263Y-41145733D01*
X147777256Y-41145739D01*
X147605739Y-41317256D01*
X147605733Y-41317263D01*
X147458067Y-41509706D01*
X147336777Y-41719785D01*
X147336773Y-41719794D01*
X147243947Y-41943895D01*
X147181161Y-42178214D01*
X147149500Y-42418711D01*
X147149500Y-42661288D01*
X147175805Y-42861104D01*
X147181162Y-42901789D01*
X147212554Y-43018944D01*
X147243947Y-43136104D01*
X147311787Y-43299883D01*
X147336776Y-43360212D01*
X147458064Y-43570289D01*
X147458066Y-43570292D01*
X147458067Y-43570293D01*
X147605733Y-43762736D01*
X147605739Y-43762743D01*
X147777256Y-43934260D01*
X147777263Y-43934266D01*
X147888255Y-44019433D01*
X147969711Y-44081936D01*
X148179788Y-44203224D01*
X148227650Y-44223049D01*
X148319124Y-44260939D01*
X148373527Y-44304780D01*
X148395592Y-44371074D01*
X148378313Y-44438773D01*
X148327176Y-44486384D01*
X148271671Y-44499500D01*
X116049500Y-44499500D01*
X115982461Y-44479815D01*
X115936706Y-44427011D01*
X115925500Y-44375500D01*
X115925499Y-40841971D01*
X115925499Y-40841968D01*
X115925499Y-40841964D01*
X115914886Y-40722582D01*
X115864132Y-40545205D01*
X115858910Y-40526954D01*
X115858909Y-40526953D01*
X115858909Y-40526951D01*
X115764698Y-40346593D01*
X115692706Y-40258302D01*
X115636109Y-40188890D01*
X115478409Y-40060304D01*
X115478410Y-40060304D01*
X115478407Y-40060302D01*
X115298049Y-39966091D01*
X115298048Y-39966090D01*
X115298045Y-39966089D01*
X115180829Y-39932550D01*
X115102418Y-39910114D01*
X115102415Y-39910113D01*
X115102413Y-39910113D01*
X115036102Y-39904217D01*
X114983037Y-39899500D01*
X114983032Y-39899500D01*
X113016971Y-39899500D01*
X113016965Y-39899500D01*
X113016964Y-39899501D01*
X113005316Y-39900536D01*
X112897584Y-39910113D01*
X112701954Y-39966089D01*
X112660885Y-39987542D01*
X112521593Y-40060302D01*
X112521591Y-40060303D01*
X112521590Y-40060304D01*
X112363890Y-40188890D01*
X112241728Y-40338712D01*
X112235302Y-40346593D01*
X112194647Y-40424423D01*
X112141089Y-40526954D01*
X112096332Y-40683376D01*
X112085521Y-40721162D01*
X112085114Y-40722583D01*
X112085113Y-40722586D01*
X112080707Y-40772146D01*
X112074500Y-40841963D01*
X112074500Y-42626789D01*
X112074501Y-44375500D01*
X112054816Y-44442539D01*
X112002012Y-44488294D01*
X111950501Y-44499500D01*
X108049500Y-44499500D01*
X107982461Y-44479815D01*
X107936706Y-44427011D01*
X107925500Y-44375500D01*
X107925499Y-40841971D01*
X107925499Y-40841968D01*
X107925499Y-40841964D01*
X107914886Y-40722582D01*
X107864132Y-40545205D01*
X107858910Y-40526954D01*
X107858909Y-40526953D01*
X107858909Y-40526951D01*
X107764698Y-40346593D01*
X107692706Y-40258302D01*
X107636109Y-40188890D01*
X107478409Y-40060304D01*
X107478410Y-40060304D01*
X107478407Y-40060302D01*
X107298049Y-39966091D01*
X107298048Y-39966090D01*
X107298045Y-39966089D01*
X107180829Y-39932550D01*
X107102418Y-39910114D01*
X107102415Y-39910113D01*
X107102413Y-39910113D01*
X107036102Y-39904217D01*
X106983037Y-39899500D01*
X106983032Y-39899500D01*
X105016971Y-39899500D01*
X105016965Y-39899500D01*
X105016964Y-39899501D01*
X105005316Y-39900536D01*
X104897584Y-39910113D01*
X104701954Y-39966089D01*
X104660885Y-39987542D01*
X104521593Y-40060302D01*
X104521591Y-40060303D01*
X104521590Y-40060304D01*
X104363890Y-40188890D01*
X104241728Y-40338712D01*
X104235302Y-40346593D01*
X104194647Y-40424423D01*
X104141089Y-40526954D01*
X104096332Y-40683376D01*
X104085521Y-40721162D01*
X104085114Y-40722583D01*
X104085113Y-40722586D01*
X104080707Y-40772146D01*
X104074500Y-40841963D01*
X104074500Y-42626789D01*
X104074501Y-44375500D01*
X104054816Y-44442539D01*
X104002012Y-44488294D01*
X103950501Y-44499500D01*
X100049500Y-44499500D01*
X99982461Y-44479815D01*
X99936706Y-44427011D01*
X99925500Y-44375500D01*
X99925499Y-40841971D01*
X99925499Y-40841968D01*
X99925499Y-40841964D01*
X99914886Y-40722582D01*
X99864132Y-40545205D01*
X99858910Y-40526954D01*
X99858909Y-40526953D01*
X99858909Y-40526951D01*
X99764698Y-40346593D01*
X99692706Y-40258302D01*
X99636109Y-40188890D01*
X99478409Y-40060304D01*
X99478410Y-40060304D01*
X99478407Y-40060302D01*
X99298049Y-39966091D01*
X99298048Y-39966090D01*
X99298045Y-39966089D01*
X99180829Y-39932550D01*
X99102418Y-39910114D01*
X99102415Y-39910113D01*
X99102413Y-39910113D01*
X99036102Y-39904217D01*
X98983037Y-39899500D01*
X98983032Y-39899500D01*
X97016971Y-39899500D01*
X97016965Y-39899500D01*
X97016964Y-39899501D01*
X97005316Y-39900536D01*
X96897584Y-39910113D01*
X96701954Y-39966089D01*
X96660885Y-39987542D01*
X96521593Y-40060302D01*
X96521591Y-40060303D01*
X96521590Y-40060304D01*
X96363890Y-40188890D01*
X96241728Y-40338712D01*
X96235302Y-40346593D01*
X96194647Y-40424423D01*
X96141089Y-40526954D01*
X96096332Y-40683376D01*
X96085521Y-40721162D01*
X96085114Y-40722583D01*
X96085113Y-40722586D01*
X96080707Y-40772146D01*
X96074500Y-40841963D01*
X96074500Y-42626789D01*
X96074501Y-44375500D01*
X96054816Y-44442539D01*
X96002012Y-44488294D01*
X95950501Y-44499500D01*
X88283746Y-44499500D01*
X88216707Y-44479815D01*
X88170952Y-44427011D01*
X88161008Y-44357853D01*
X88190033Y-44294297D01*
X88210861Y-44275182D01*
X88309900Y-44203226D01*
X88562847Y-44019449D01*
X88657463Y-43938640D01*
X88863420Y-43762736D01*
X88906456Y-43725980D01*
X89225980Y-43406456D01*
X89508549Y-43075609D01*
X89519433Y-43062866D01*
X89519435Y-43062863D01*
X89519449Y-43062847D01*
X89785055Y-42697272D01*
X90021160Y-42311984D01*
X90226307Y-41909360D01*
X90399232Y-41491882D01*
X90400951Y-41486593D01*
X90432151Y-41390568D01*
X90538869Y-41062123D01*
X90644357Y-40622733D01*
X90715046Y-40176420D01*
X90750500Y-39725938D01*
X90750500Y-39274062D01*
X90715046Y-38823580D01*
X90644357Y-38377267D01*
X90538869Y-37937877D01*
X90399232Y-37508118D01*
X90226307Y-37090640D01*
X90021160Y-36688016D01*
X90021154Y-36688007D01*
X90021152Y-36688002D01*
X90021149Y-36687997D01*
X89785061Y-36302737D01*
X89785057Y-36302732D01*
X89785055Y-36302728D01*
X89519449Y-35937153D01*
X89519444Y-35937147D01*
X89519433Y-35937133D01*
X89225996Y-35593562D01*
X89225987Y-35593552D01*
X89225980Y-35593544D01*
X88906456Y-35274020D01*
X88906448Y-35274013D01*
X88906437Y-35274003D01*
X88562866Y-34980566D01*
X88562839Y-34980545D01*
X88414067Y-34872456D01*
X88197272Y-34714945D01*
X88197269Y-34714943D01*
X88197262Y-34714938D01*
X87812002Y-34478850D01*
X87811997Y-34478847D01*
X87811987Y-34478842D01*
X87811984Y-34478840D01*
X87578713Y-34359983D01*
X87527920Y-34312011D01*
X87511125Y-34244190D01*
X87533662Y-34178055D01*
X87588377Y-34134603D01*
X87635011Y-34125500D01*
X122814552Y-34125500D01*
X122870847Y-34139015D01*
X123000776Y-34205218D01*
X123000778Y-34205218D01*
X123000781Y-34205220D01*
X123044623Y-34219465D01*
X123195465Y-34268477D01*
X123296557Y-34284488D01*
X123397648Y-34300500D01*
X123397649Y-34300500D01*
X123602351Y-34300500D01*
X123602352Y-34300500D01*
X123804534Y-34268477D01*
X123999219Y-34205220D01*
X124181610Y-34112287D01*
X124274590Y-34044732D01*
X124347213Y-33991971D01*
X124347215Y-33991968D01*
X124347219Y-33991966D01*
X124491966Y-33847219D01*
X124491968Y-33847215D01*
X124491971Y-33847213D01*
X124562962Y-33749500D01*
X124612287Y-33681610D01*
X124705220Y-33499219D01*
X124768477Y-33304534D01*
X124800500Y-33102352D01*
X124800500Y-32897648D01*
X124768477Y-32695466D01*
X124705220Y-32500781D01*
X124705218Y-32500778D01*
X124705218Y-32500776D01*
X124652671Y-32397648D01*
X124612287Y-32318390D01*
X124612285Y-32318387D01*
X124609774Y-32314289D01*
X124607759Y-32306840D01*
X124602708Y-32301011D01*
X124598765Y-32273591D01*
X124591530Y-32246843D01*
X124593861Y-32239488D01*
X124592764Y-32231853D01*
X124604273Y-32206650D01*
X124612647Y-32180241D01*
X124618583Y-32175315D01*
X124621789Y-32168297D01*
X124645098Y-32153317D01*
X124666419Y-32135628D01*
X124675557Y-32133742D01*
X124680567Y-32130523D01*
X124715502Y-32125500D01*
X124814552Y-32125500D01*
X124870847Y-32139015D01*
G37*
%TD.AperFunction*%
%TA.AperFunction,Conductor*%
G36*
X251283293Y-520185D02*
G01*
X251329048Y-572989D01*
X251338992Y-642147D01*
X251309967Y-705703D01*
X251289139Y-724818D01*
X250937160Y-980545D01*
X250937133Y-980566D01*
X250593562Y-1274003D01*
X250593536Y-1274027D01*
X250274027Y-1593536D01*
X250274003Y-1593562D01*
X249980566Y-1937133D01*
X249980545Y-1937160D01*
X249714946Y-2302726D01*
X249714938Y-2302737D01*
X249478850Y-2687997D01*
X249478847Y-2688002D01*
X249273692Y-3090642D01*
X249100765Y-3508123D01*
X248961135Y-3937865D01*
X248961128Y-3937888D01*
X248943163Y-4012718D01*
X248856361Y-4374279D01*
X248855642Y-4377272D01*
X248784955Y-4823570D01*
X248784953Y-4823589D01*
X248749500Y-5274056D01*
X248749500Y-5725943D01*
X248784953Y-6176410D01*
X248784955Y-6176429D01*
X248840873Y-6529481D01*
X248855643Y-6622733D01*
X248883450Y-6738557D01*
X248960887Y-7061109D01*
X248961131Y-7062123D01*
X248986789Y-7141091D01*
X249100765Y-7491876D01*
X249116760Y-7530491D01*
X249273693Y-7909360D01*
X249478840Y-8311984D01*
X249478847Y-8311997D01*
X249478850Y-8312002D01*
X249714938Y-8697262D01*
X249714943Y-8697269D01*
X249714945Y-8697272D01*
X249868344Y-8908408D01*
X249980545Y-9062839D01*
X249980566Y-9062866D01*
X250274003Y-9406437D01*
X250274013Y-9406448D01*
X250274020Y-9406456D01*
X250593544Y-9725980D01*
X250593552Y-9725987D01*
X250593562Y-9725996D01*
X250937133Y-10019433D01*
X250937147Y-10019444D01*
X250937153Y-10019449D01*
X251302728Y-10285055D01*
X251302732Y-10285057D01*
X251302737Y-10285061D01*
X251687997Y-10521149D01*
X251688002Y-10521152D01*
X251688007Y-10521154D01*
X251688016Y-10521160D01*
X252090640Y-10726307D01*
X252457842Y-10878407D01*
X252508123Y-10899234D01*
X252617395Y-10934738D01*
X252937877Y-11038869D01*
X253377267Y-11144357D01*
X253823580Y-11215046D01*
X254274062Y-11250500D01*
X254274070Y-11250500D01*
X254725930Y-11250500D01*
X254725938Y-11250500D01*
X255176420Y-11215046D01*
X255622733Y-11144357D01*
X256062123Y-11038869D01*
X256491882Y-10899232D01*
X256909360Y-10726307D01*
X257311984Y-10521160D01*
X257345240Y-10500781D01*
X257537380Y-10383037D01*
X257697272Y-10285055D01*
X258062847Y-10019449D01*
X258076213Y-10008034D01*
X258327009Y-9793834D01*
X258406456Y-9725980D01*
X258725980Y-9406456D01*
X259019449Y-9062847D01*
X259275183Y-8710858D01*
X259330512Y-8668194D01*
X259400125Y-8662215D01*
X259461920Y-8694821D01*
X259496277Y-8755659D01*
X259499500Y-8783745D01*
X259499500Y-36216254D01*
X259479815Y-36283293D01*
X259427011Y-36329048D01*
X259357853Y-36338992D01*
X259294297Y-36309967D01*
X259275182Y-36289139D01*
X259137401Y-36099500D01*
X259019449Y-35937153D01*
X259019444Y-35937147D01*
X259019433Y-35937133D01*
X258725996Y-35593562D01*
X258725987Y-35593552D01*
X258725980Y-35593544D01*
X258406456Y-35274020D01*
X258406448Y-35274013D01*
X258406437Y-35274003D01*
X258062866Y-34980566D01*
X258062839Y-34980545D01*
X257914067Y-34872456D01*
X257697272Y-34714945D01*
X257697269Y-34714943D01*
X257697262Y-34714938D01*
X257312002Y-34478850D01*
X257311997Y-34478847D01*
X257311987Y-34478842D01*
X257311984Y-34478840D01*
X256909360Y-34273693D01*
X256744047Y-34205218D01*
X256491876Y-34100765D01*
X256157023Y-33991966D01*
X256062123Y-33961131D01*
X255622733Y-33855643D01*
X255622727Y-33855642D01*
X255176429Y-33784955D01*
X255176420Y-33784954D01*
X255176418Y-33784953D01*
X255176410Y-33784953D01*
X254725943Y-33749500D01*
X254725938Y-33749500D01*
X254274062Y-33749500D01*
X254274056Y-33749500D01*
X253823589Y-33784953D01*
X253823570Y-33784955D01*
X253377272Y-33855642D01*
X253377269Y-33855642D01*
X253377267Y-33855643D01*
X253219910Y-33893420D01*
X252937888Y-33961128D01*
X252937882Y-33961129D01*
X252937877Y-33961131D01*
X252937865Y-33961135D01*
X252508123Y-34100765D01*
X252090642Y-34273692D01*
X251688002Y-34478847D01*
X251687997Y-34478850D01*
X251302737Y-34714938D01*
X251302726Y-34714946D01*
X250937160Y-34980545D01*
X250937133Y-34980566D01*
X250593562Y-35274003D01*
X250593536Y-35274027D01*
X250274027Y-35593536D01*
X250274003Y-35593562D01*
X249980566Y-35937133D01*
X249980545Y-35937160D01*
X249714946Y-36302726D01*
X249714938Y-36302737D01*
X249478850Y-36687997D01*
X249478847Y-36688002D01*
X249273692Y-37090642D01*
X249100765Y-37508123D01*
X248961135Y-37937865D01*
X248961128Y-37937888D01*
X248910325Y-38149500D01*
X248865966Y-38334271D01*
X248855642Y-38377272D01*
X248784955Y-38823570D01*
X248784953Y-38823589D01*
X248749500Y-39274056D01*
X248749500Y-39725943D01*
X248784953Y-40176410D01*
X248784955Y-40176429D01*
X248840473Y-40526954D01*
X248855643Y-40622733D01*
X248961131Y-41062123D01*
X249001413Y-41186101D01*
X249100765Y-41491876D01*
X249174091Y-41668900D01*
X249273693Y-41909360D01*
X249456196Y-42267542D01*
X249478847Y-42311997D01*
X249478850Y-42312002D01*
X249714938Y-42697262D01*
X249714943Y-42697269D01*
X249714945Y-42697272D01*
X249727262Y-42714225D01*
X249980545Y-43062839D01*
X249980566Y-43062866D01*
X250274003Y-43406437D01*
X250274013Y-43406448D01*
X250274020Y-43406456D01*
X250593544Y-43725980D01*
X250593552Y-43725987D01*
X250593562Y-43725996D01*
X250937133Y-44019433D01*
X250937147Y-44019444D01*
X250937153Y-44019449D01*
X250937160Y-44019454D01*
X251289139Y-44275182D01*
X251331805Y-44330512D01*
X251337784Y-44400125D01*
X251305178Y-44461920D01*
X251244340Y-44496277D01*
X251216254Y-44499500D01*
X183283746Y-44499500D01*
X183216707Y-44479815D01*
X183170952Y-44427011D01*
X183161008Y-44357853D01*
X183190033Y-44294297D01*
X183210861Y-44275182D01*
X183309900Y-44203226D01*
X183562847Y-44019449D01*
X183657463Y-43938640D01*
X183863420Y-43762736D01*
X183906456Y-43725980D01*
X184225980Y-43406456D01*
X184508549Y-43075609D01*
X184519433Y-43062866D01*
X184519435Y-43062863D01*
X184519449Y-43062847D01*
X184785055Y-42697272D01*
X185021160Y-42311984D01*
X185226307Y-41909360D01*
X185399232Y-41491882D01*
X185400951Y-41486593D01*
X185432151Y-41390568D01*
X185538869Y-41062123D01*
X185644357Y-40622733D01*
X185715046Y-40176420D01*
X185750500Y-39725938D01*
X185750500Y-39274062D01*
X185715046Y-38823580D01*
X185644357Y-38377267D01*
X185538869Y-37937877D01*
X185399232Y-37508118D01*
X185226307Y-37090640D01*
X185021160Y-36688016D01*
X185021154Y-36688007D01*
X185021152Y-36688002D01*
X185021149Y-36687997D01*
X184785061Y-36302737D01*
X184785057Y-36302732D01*
X184785055Y-36302728D01*
X184519449Y-35937153D01*
X184519444Y-35937147D01*
X184519433Y-35937133D01*
X184225996Y-35593562D01*
X184225987Y-35593552D01*
X184225980Y-35593544D01*
X183906456Y-35274020D01*
X183906448Y-35274013D01*
X183906437Y-35274003D01*
X183562866Y-34980566D01*
X183562839Y-34980545D01*
X183414067Y-34872456D01*
X183197272Y-34714945D01*
X183197269Y-34714943D01*
X183197262Y-34714938D01*
X182812002Y-34478850D01*
X182811997Y-34478847D01*
X182811987Y-34478842D01*
X182811984Y-34478840D01*
X182409360Y-34273693D01*
X182244047Y-34205218D01*
X181991876Y-34100765D01*
X181657023Y-33991966D01*
X181562123Y-33961131D01*
X181182838Y-33870072D01*
X181122248Y-33835283D01*
X181090084Y-33773257D01*
X181096560Y-33703688D01*
X181139620Y-33648664D01*
X181205592Y-33625655D01*
X181211787Y-33625500D01*
X184750500Y-33625500D01*
X184817539Y-33645185D01*
X184863294Y-33697989D01*
X184874500Y-33749500D01*
X184874500Y-34314550D01*
X184860985Y-34370844D01*
X184794779Y-34500780D01*
X184794779Y-34500781D01*
X184731523Y-34695461D01*
X184731523Y-34695464D01*
X184699500Y-34897648D01*
X184699500Y-35102351D01*
X184731522Y-35304534D01*
X184794781Y-35499223D01*
X184887715Y-35681613D01*
X185008028Y-35847213D01*
X185152786Y-35991971D01*
X185307749Y-36104556D01*
X185318390Y-36112287D01*
X185421655Y-36164903D01*
X185500776Y-36205218D01*
X185500778Y-36205218D01*
X185500781Y-36205220D01*
X185604234Y-36238834D01*
X185695465Y-36268477D01*
X185789009Y-36283293D01*
X185897648Y-36300500D01*
X185897649Y-36300500D01*
X186102351Y-36300500D01*
X186102352Y-36300500D01*
X186304534Y-36268477D01*
X186499219Y-36205220D01*
X186681610Y-36112287D01*
X186840058Y-35997169D01*
X186847213Y-35991971D01*
X186847215Y-35991968D01*
X186847219Y-35991966D01*
X186991966Y-35847219D01*
X186991968Y-35847215D01*
X186991971Y-35847213D01*
X187095133Y-35705220D01*
X187112287Y-35681610D01*
X187205220Y-35499219D01*
X187268477Y-35304534D01*
X187300500Y-35102352D01*
X187300500Y-34897648D01*
X187268477Y-34695466D01*
X187268476Y-34695462D01*
X187268476Y-34695461D01*
X187205220Y-34500781D01*
X187205220Y-34500780D01*
X187139015Y-34370844D01*
X187125500Y-34314550D01*
X187125500Y-34016559D01*
X187145185Y-33949520D01*
X187197989Y-33903765D01*
X187267147Y-33893821D01*
X187330703Y-33922846D01*
X187337181Y-33928878D01*
X188219465Y-34811162D01*
X188249715Y-34860525D01*
X188294778Y-34999216D01*
X188299268Y-35008028D01*
X188373026Y-35152786D01*
X188387715Y-35181613D01*
X188508028Y-35347213D01*
X188652786Y-35491971D01*
X188790241Y-35591836D01*
X188818390Y-35612287D01*
X188934607Y-35671503D01*
X189000776Y-35705218D01*
X189000778Y-35705218D01*
X189000781Y-35705220D01*
X189105137Y-35739127D01*
X189195465Y-35768477D01*
X189296557Y-35784488D01*
X189397648Y-35800500D01*
X189397649Y-35800500D01*
X189602351Y-35800500D01*
X189602352Y-35800500D01*
X189804534Y-35768477D01*
X189999219Y-35705220D01*
X190181610Y-35612287D01*
X190181612Y-35612285D01*
X190181615Y-35612284D01*
X190185207Y-35610083D01*
X190252652Y-35591836D01*
X190314793Y-35610083D01*
X190318384Y-35612284D01*
X190500776Y-35705218D01*
X190500778Y-35705218D01*
X190500781Y-35705220D01*
X190605137Y-35739127D01*
X190695465Y-35768477D01*
X190723002Y-35772838D01*
X190812519Y-35787016D01*
X190875653Y-35816945D01*
X190912585Y-35876256D01*
X190911587Y-35946119D01*
X190880804Y-35997169D01*
X190855483Y-36022490D01*
X190716657Y-36213565D01*
X190609433Y-36424003D01*
X190536446Y-36648631D01*
X190499500Y-36881902D01*
X190499500Y-37118097D01*
X190536446Y-37351368D01*
X190609433Y-37575996D01*
X190716657Y-37786434D01*
X190810072Y-37915008D01*
X190833552Y-37980815D01*
X190817727Y-38048869D01*
X190771755Y-38095281D01*
X190742300Y-38112287D01*
X190619711Y-38183064D01*
X190619708Y-38183065D01*
X190619703Y-38183069D01*
X190455486Y-38309077D01*
X190390317Y-38334271D01*
X190321872Y-38320232D01*
X190304514Y-38309077D01*
X190140293Y-38183067D01*
X190140292Y-38183066D01*
X190140289Y-38183064D01*
X189952251Y-38074500D01*
X189930214Y-38061777D01*
X189930205Y-38061773D01*
X189706104Y-37968947D01*
X189471785Y-37906161D01*
X189231289Y-37874500D01*
X189231288Y-37874500D01*
X188988712Y-37874500D01*
X188988711Y-37874500D01*
X188748214Y-37906161D01*
X188513895Y-37968947D01*
X188289794Y-38061773D01*
X188289785Y-38061777D01*
X188112921Y-38163890D01*
X188083006Y-38181162D01*
X188079706Y-38183067D01*
X187887263Y-38330733D01*
X187887256Y-38330739D01*
X187715739Y-38502256D01*
X187715733Y-38502263D01*
X187568067Y-38694706D01*
X187568064Y-38694710D01*
X187568064Y-38694711D01*
X187566405Y-38697584D01*
X187446777Y-38904785D01*
X187446773Y-38904794D01*
X187353947Y-39128895D01*
X187291161Y-39363214D01*
X187259500Y-39603711D01*
X187259500Y-39846288D01*
X187290350Y-40080628D01*
X187291162Y-40086789D01*
X187318520Y-40188890D01*
X187353947Y-40321104D01*
X187396745Y-40424426D01*
X187446776Y-40545212D01*
X187568064Y-40755289D01*
X187568066Y-40755292D01*
X187568067Y-40755293D01*
X187694077Y-40919514D01*
X187719271Y-40984683D01*
X187705232Y-41053128D01*
X187694077Y-41070486D01*
X187568067Y-41234706D01*
X187446777Y-41444785D01*
X187446773Y-41444794D01*
X187353947Y-41668895D01*
X187291161Y-41903214D01*
X187259500Y-42143711D01*
X187259500Y-42386288D01*
X187291161Y-42626785D01*
X187353947Y-42861104D01*
X187401493Y-42975890D01*
X187446776Y-43085212D01*
X187568064Y-43295289D01*
X187568066Y-43295292D01*
X187568067Y-43295293D01*
X187715733Y-43487736D01*
X187715739Y-43487743D01*
X187887256Y-43659260D01*
X187887262Y-43659265D01*
X188079711Y-43806936D01*
X188289788Y-43928224D01*
X188485269Y-44009195D01*
X188509986Y-44019433D01*
X188513900Y-44021054D01*
X188748211Y-44083838D01*
X188928586Y-44107584D01*
X188988711Y-44115500D01*
X188988712Y-44115500D01*
X189231289Y-44115500D01*
X189279388Y-44109167D01*
X189471789Y-44083838D01*
X189706100Y-44021054D01*
X189930212Y-43928224D01*
X190140289Y-43806936D01*
X190304514Y-43680922D01*
X190369683Y-43655728D01*
X190438128Y-43669766D01*
X190455486Y-43680922D01*
X190619711Y-43806936D01*
X190829788Y-43928224D01*
X191025269Y-44009195D01*
X191049986Y-44019433D01*
X191053900Y-44021054D01*
X191288211Y-44083838D01*
X191468586Y-44107584D01*
X191528711Y-44115500D01*
X191528712Y-44115500D01*
X191771289Y-44115500D01*
X191819388Y-44109167D01*
X192011789Y-44083838D01*
X192246100Y-44021054D01*
X192470212Y-43928224D01*
X192680289Y-43806936D01*
X192872738Y-43659265D01*
X193044265Y-43487738D01*
X193191936Y-43295289D01*
X193313224Y-43085212D01*
X193406054Y-42861100D01*
X193468838Y-42626789D01*
X193500500Y-42386288D01*
X193500500Y-42143712D01*
X193492483Y-42082818D01*
X193503248Y-42013786D01*
X193527735Y-41978960D01*
X193858483Y-41648214D01*
X193881692Y-41616269D01*
X193937019Y-41573604D01*
X193998193Y-41566216D01*
X194068712Y-41575500D01*
X194068719Y-41575500D01*
X194311289Y-41575500D01*
X194381808Y-41566216D01*
X194551789Y-41543838D01*
X194786100Y-41481054D01*
X195010212Y-41388224D01*
X195220289Y-41266936D01*
X195384514Y-41140922D01*
X195449683Y-41115728D01*
X195518128Y-41129766D01*
X195535486Y-41140922D01*
X195699711Y-41266936D01*
X195909788Y-41388224D01*
X196071770Y-41455319D01*
X196127509Y-41478407D01*
X196133900Y-41481054D01*
X196368211Y-41543838D01*
X196518587Y-41563635D01*
X196608711Y-41575500D01*
X196608712Y-41575500D01*
X196851289Y-41575500D01*
X196921808Y-41566216D01*
X197091789Y-41543838D01*
X197326100Y-41481054D01*
X197550212Y-41388224D01*
X197760289Y-41266936D01*
X197924514Y-41140922D01*
X197989683Y-41115728D01*
X198058128Y-41129766D01*
X198075486Y-41140922D01*
X198239711Y-41266936D01*
X198449788Y-41388224D01*
X198611770Y-41455319D01*
X198667509Y-41478407D01*
X198673900Y-41481054D01*
X198908211Y-41543838D01*
X199058587Y-41563635D01*
X199148711Y-41575500D01*
X199148712Y-41575500D01*
X199391289Y-41575500D01*
X199461808Y-41566216D01*
X199631789Y-41543838D01*
X199866100Y-41481054D01*
X200090212Y-41388224D01*
X200300289Y-41266936D01*
X200464514Y-41140922D01*
X200529683Y-41115728D01*
X200598128Y-41129766D01*
X200615486Y-41140922D01*
X200779711Y-41266936D01*
X200989788Y-41388224D01*
X201151770Y-41455319D01*
X201207509Y-41478407D01*
X201213900Y-41481054D01*
X201448211Y-41543838D01*
X201598587Y-41563635D01*
X201688711Y-41575500D01*
X201688712Y-41575500D01*
X201931289Y-41575500D01*
X202001808Y-41566216D01*
X202171789Y-41543838D01*
X202406100Y-41481054D01*
X202630212Y-41388224D01*
X202840289Y-41266936D01*
X203004514Y-41140922D01*
X203069683Y-41115728D01*
X203138128Y-41129766D01*
X203155486Y-41140922D01*
X203319711Y-41266936D01*
X203529788Y-41388224D01*
X203691770Y-41455319D01*
X203747509Y-41478407D01*
X203753900Y-41481054D01*
X203988211Y-41543838D01*
X204138587Y-41563635D01*
X204228711Y-41575500D01*
X204228712Y-41575500D01*
X204471289Y-41575500D01*
X204541808Y-41566216D01*
X204711789Y-41543838D01*
X204946100Y-41481054D01*
X204946105Y-41481051D01*
X204946108Y-41481051D01*
X204990196Y-41462789D01*
X205059665Y-41455319D01*
X205122145Y-41486593D01*
X205157798Y-41546681D01*
X205155305Y-41616507D01*
X205152212Y-41624800D01*
X205133947Y-41668896D01*
X205071161Y-41903214D01*
X205039500Y-42143711D01*
X205039500Y-42386288D01*
X205071161Y-42626785D01*
X205133947Y-42861104D01*
X205181493Y-42975890D01*
X205226776Y-43085212D01*
X205348064Y-43295289D01*
X205348066Y-43295292D01*
X205348067Y-43295293D01*
X205495733Y-43487736D01*
X205495739Y-43487743D01*
X205667256Y-43659260D01*
X205667262Y-43659265D01*
X205859711Y-43806936D01*
X206069788Y-43928224D01*
X206265269Y-44009195D01*
X206289986Y-44019433D01*
X206293900Y-44021054D01*
X206528211Y-44083838D01*
X206708586Y-44107584D01*
X206768711Y-44115500D01*
X206768712Y-44115500D01*
X207011289Y-44115500D01*
X207059388Y-44109167D01*
X207251789Y-44083838D01*
X207486100Y-44021054D01*
X207710212Y-43928224D01*
X207920289Y-43806936D01*
X208112738Y-43659265D01*
X208284265Y-43487738D01*
X208431936Y-43295289D01*
X208553224Y-43085212D01*
X208646054Y-42861100D01*
X208708838Y-42626789D01*
X208740500Y-42386288D01*
X208740500Y-42143712D01*
X208736363Y-42112287D01*
X208732461Y-42082644D01*
X208730865Y-42070525D01*
X211049500Y-42070525D01*
X211049500Y-42329474D01*
X211049501Y-42329491D01*
X211083299Y-42586217D01*
X211083300Y-42586222D01*
X211083301Y-42586228D01*
X211103413Y-42661288D01*
X211150324Y-42836364D01*
X211249423Y-43075609D01*
X211249427Y-43075619D01*
X211378906Y-43299883D01*
X211536551Y-43505331D01*
X211536557Y-43505338D01*
X211719661Y-43688442D01*
X211719668Y-43688448D01*
X211925116Y-43846093D01*
X212149380Y-43975572D01*
X212149381Y-43975572D01*
X212149384Y-43975574D01*
X212388634Y-44074675D01*
X212638772Y-44141699D01*
X212895519Y-44175500D01*
X212895526Y-44175500D01*
X213154474Y-44175500D01*
X213154481Y-44175500D01*
X213411228Y-44141699D01*
X213661366Y-44074675D01*
X213900616Y-43975574D01*
X214124884Y-43846093D01*
X214330333Y-43688447D01*
X214513447Y-43505333D01*
X214671093Y-43299884D01*
X214800574Y-43075616D01*
X214899675Y-42836366D01*
X214966699Y-42586228D01*
X215000500Y-42329481D01*
X215000500Y-42085258D01*
X223474500Y-42085258D01*
X223474500Y-42314741D01*
X223488189Y-42418711D01*
X223504452Y-42542238D01*
X223527106Y-42626785D01*
X223563842Y-42763887D01*
X223651650Y-42975876D01*
X223651656Y-42975888D01*
X223744156Y-43136104D01*
X223766392Y-43174617D01*
X223906081Y-43356661D01*
X223906089Y-43356670D01*
X224068330Y-43518911D01*
X224068338Y-43518918D01*
X224250382Y-43658607D01*
X224250385Y-43658608D01*
X224250388Y-43658611D01*
X224449112Y-43773344D01*
X224449117Y-43773346D01*
X224449123Y-43773349D01*
X224530200Y-43806932D01*
X224661113Y-43861158D01*
X224882762Y-43920548D01*
X225110266Y-43950500D01*
X225110273Y-43950500D01*
X225339727Y-43950500D01*
X225339734Y-43950500D01*
X225567238Y-43920548D01*
X225788887Y-43861158D01*
X226000888Y-43773344D01*
X226199612Y-43658611D01*
X226381661Y-43518919D01*
X226381665Y-43518914D01*
X226381670Y-43518911D01*
X226543911Y-43356670D01*
X226543914Y-43356665D01*
X226543919Y-43356661D01*
X226683611Y-43174612D01*
X226798344Y-42975888D01*
X226886158Y-42763887D01*
X226945548Y-42542238D01*
X226975500Y-42314734D01*
X226975500Y-42085266D01*
X226973559Y-42070525D01*
X231049500Y-42070525D01*
X231049500Y-42329474D01*
X231049501Y-42329491D01*
X231083299Y-42586217D01*
X231083300Y-42586222D01*
X231083301Y-42586228D01*
X231103413Y-42661288D01*
X231150324Y-42836364D01*
X231249423Y-43075609D01*
X231249427Y-43075619D01*
X231378906Y-43299883D01*
X231536551Y-43505331D01*
X231536557Y-43505338D01*
X231719661Y-43688442D01*
X231719668Y-43688448D01*
X231925116Y-43846093D01*
X232149380Y-43975572D01*
X232149381Y-43975572D01*
X232149384Y-43975574D01*
X232388634Y-44074675D01*
X232638772Y-44141699D01*
X232895519Y-44175500D01*
X232895526Y-44175500D01*
X233154474Y-44175500D01*
X233154481Y-44175500D01*
X233411228Y-44141699D01*
X233661366Y-44074675D01*
X233900616Y-43975574D01*
X234124884Y-43846093D01*
X234330333Y-43688447D01*
X234513447Y-43505333D01*
X234671093Y-43299884D01*
X234800574Y-43075616D01*
X234899675Y-42836366D01*
X234966699Y-42586228D01*
X235000500Y-42329481D01*
X235000500Y-42085258D01*
X243474500Y-42085258D01*
X243474500Y-42314741D01*
X243488189Y-42418711D01*
X243504452Y-42542238D01*
X243527106Y-42626785D01*
X243563842Y-42763887D01*
X243651650Y-42975876D01*
X243651656Y-42975888D01*
X243744156Y-43136104D01*
X243766392Y-43174617D01*
X243906081Y-43356661D01*
X243906089Y-43356670D01*
X244068330Y-43518911D01*
X244068338Y-43518918D01*
X244250382Y-43658607D01*
X244250385Y-43658608D01*
X244250388Y-43658611D01*
X244449112Y-43773344D01*
X244449117Y-43773346D01*
X244449123Y-43773349D01*
X244530200Y-43806932D01*
X244661113Y-43861158D01*
X244882762Y-43920548D01*
X245110266Y-43950500D01*
X245110273Y-43950500D01*
X245339727Y-43950500D01*
X245339734Y-43950500D01*
X245567238Y-43920548D01*
X245788887Y-43861158D01*
X246000888Y-43773344D01*
X246199612Y-43658611D01*
X246381661Y-43518919D01*
X246381665Y-43518914D01*
X246381670Y-43518911D01*
X246543911Y-43356670D01*
X246543914Y-43356665D01*
X246543919Y-43356661D01*
X246683611Y-43174612D01*
X246798344Y-42975888D01*
X246886158Y-42763887D01*
X246945548Y-42542238D01*
X246975500Y-42314734D01*
X246975500Y-42085266D01*
X246945548Y-41857762D01*
X246886158Y-41636113D01*
X246829456Y-41499223D01*
X246798349Y-41424123D01*
X246798346Y-41424117D01*
X246798344Y-41424112D01*
X246683611Y-41225388D01*
X246683608Y-41225385D01*
X246683607Y-41225382D01*
X246558341Y-41062134D01*
X246543919Y-41043339D01*
X246543918Y-41043338D01*
X246543911Y-41043330D01*
X246381670Y-40881089D01*
X246381661Y-40881081D01*
X246199617Y-40741392D01*
X246000890Y-40626657D01*
X246000876Y-40626650D01*
X245788887Y-40538842D01*
X245744520Y-40526954D01*
X245567238Y-40479452D01*
X245529215Y-40474446D01*
X245339741Y-40449500D01*
X245339734Y-40449500D01*
X245110266Y-40449500D01*
X245110258Y-40449500D01*
X244893715Y-40478009D01*
X244882762Y-40479452D01*
X244803179Y-40500776D01*
X244661112Y-40538842D01*
X244449123Y-40626650D01*
X244449109Y-40626657D01*
X244250382Y-40741392D01*
X244068338Y-40881081D01*
X243906081Y-41043338D01*
X243766392Y-41225382D01*
X243651657Y-41424109D01*
X243651650Y-41424123D01*
X243563842Y-41636112D01*
X243504453Y-41857759D01*
X243504451Y-41857770D01*
X243474500Y-42085258D01*
X235000500Y-42085258D01*
X235000500Y-42070519D01*
X234966699Y-41813772D01*
X234899675Y-41563634D01*
X234800574Y-41324384D01*
X234792821Y-41310956D01*
X234671093Y-41100116D01*
X234513448Y-40894668D01*
X234513442Y-40894661D01*
X234330338Y-40711557D01*
X234330331Y-40711551D01*
X234124883Y-40553906D01*
X233900619Y-40424427D01*
X233900609Y-40424423D01*
X233661364Y-40325324D01*
X233511949Y-40285289D01*
X233411228Y-40258301D01*
X233411222Y-40258300D01*
X233411217Y-40258299D01*
X233154491Y-40224501D01*
X233154486Y-40224500D01*
X233154481Y-40224500D01*
X232895519Y-40224500D01*
X232895513Y-40224500D01*
X232895508Y-40224501D01*
X232638782Y-40258299D01*
X232638775Y-40258300D01*
X232638772Y-40258301D01*
X232622870Y-40262562D01*
X232388635Y-40325324D01*
X232149390Y-40424423D01*
X232149380Y-40424427D01*
X231925116Y-40553906D01*
X231719668Y-40711551D01*
X231719661Y-40711557D01*
X231536557Y-40894661D01*
X231536551Y-40894668D01*
X231378906Y-41100116D01*
X231249427Y-41324380D01*
X231249423Y-41324390D01*
X231150324Y-41563635D01*
X231083302Y-41813769D01*
X231083299Y-41813782D01*
X231049501Y-42070508D01*
X231049500Y-42070525D01*
X226973559Y-42070525D01*
X226945548Y-41857762D01*
X226886158Y-41636113D01*
X226829456Y-41499223D01*
X226798349Y-41424123D01*
X226798346Y-41424117D01*
X226798344Y-41424112D01*
X226683611Y-41225388D01*
X226683608Y-41225385D01*
X226683607Y-41225382D01*
X226558341Y-41062134D01*
X226543919Y-41043339D01*
X226543918Y-41043338D01*
X226543911Y-41043330D01*
X226381670Y-40881089D01*
X226381661Y-40881081D01*
X226199617Y-40741392D01*
X226000890Y-40626657D01*
X226000876Y-40626650D01*
X225788887Y-40538842D01*
X225744520Y-40526954D01*
X225567238Y-40479452D01*
X225529215Y-40474446D01*
X225339741Y-40449500D01*
X225339734Y-40449500D01*
X225110266Y-40449500D01*
X225110258Y-40449500D01*
X224893715Y-40478009D01*
X224882762Y-40479452D01*
X224803179Y-40500776D01*
X224661112Y-40538842D01*
X224449123Y-40626650D01*
X224449109Y-40626657D01*
X224250382Y-40741392D01*
X224068338Y-40881081D01*
X223906081Y-41043338D01*
X223766392Y-41225382D01*
X223651657Y-41424109D01*
X223651650Y-41424123D01*
X223563842Y-41636112D01*
X223504453Y-41857759D01*
X223504451Y-41857770D01*
X223474500Y-42085258D01*
X215000500Y-42085258D01*
X215000500Y-42070519D01*
X214966699Y-41813772D01*
X214899675Y-41563634D01*
X214800574Y-41324384D01*
X214792821Y-41310956D01*
X214671093Y-41100116D01*
X214513448Y-40894668D01*
X214513442Y-40894661D01*
X214330338Y-40711557D01*
X214330331Y-40711551D01*
X214124883Y-40553906D01*
X213900619Y-40424427D01*
X213900609Y-40424423D01*
X213661364Y-40325324D01*
X213511949Y-40285289D01*
X213411228Y-40258301D01*
X213411222Y-40258300D01*
X213411217Y-40258299D01*
X213154491Y-40224501D01*
X213154486Y-40224500D01*
X213154481Y-40224500D01*
X212895519Y-40224500D01*
X212895513Y-40224500D01*
X212895508Y-40224501D01*
X212638782Y-40258299D01*
X212638775Y-40258300D01*
X212638772Y-40258301D01*
X212622870Y-40262562D01*
X212388635Y-40325324D01*
X212149390Y-40424423D01*
X212149380Y-40424427D01*
X211925116Y-40553906D01*
X211719668Y-40711551D01*
X211719661Y-40711557D01*
X211536557Y-40894661D01*
X211536551Y-40894668D01*
X211378906Y-41100116D01*
X211249427Y-41324380D01*
X211249423Y-41324390D01*
X211150324Y-41563635D01*
X211083302Y-41813769D01*
X211083299Y-41813782D01*
X211049501Y-42070508D01*
X211049500Y-42070525D01*
X208730865Y-42070525D01*
X208714194Y-41943895D01*
X208708838Y-41903211D01*
X208646054Y-41668900D01*
X208553224Y-41444788D01*
X208553218Y-41444777D01*
X208500023Y-41352639D01*
X208483550Y-41284739D01*
X208506403Y-41218712D01*
X208511298Y-41212292D01*
X208579698Y-41128407D01*
X208673909Y-40948049D01*
X208729886Y-40752418D01*
X208740500Y-40633037D01*
X208740499Y-38816964D01*
X208729886Y-38697582D01*
X208673909Y-38501951D01*
X208579698Y-38321593D01*
X208509337Y-38235302D01*
X208451109Y-38163890D01*
X208315340Y-38053186D01*
X208293407Y-38035302D01*
X208113049Y-37941091D01*
X208113048Y-37941090D01*
X208113045Y-37941089D01*
X207995829Y-37907550D01*
X207917418Y-37885114D01*
X207917415Y-37885113D01*
X207917413Y-37885113D01*
X207844631Y-37878642D01*
X207798037Y-37874500D01*
X207798033Y-37874500D01*
X206683484Y-37874500D01*
X206616445Y-37854815D01*
X206570690Y-37802011D01*
X206560746Y-37732853D01*
X206589771Y-37669297D01*
X206627190Y-37640015D01*
X206681610Y-37612287D01*
X206847219Y-37491966D01*
X206991966Y-37347219D01*
X206991968Y-37347215D01*
X206991971Y-37347213D01*
X207048900Y-37268855D01*
X207112287Y-37181610D01*
X207205220Y-36999219D01*
X207268477Y-36804534D01*
X207300500Y-36602352D01*
X207300500Y-36397648D01*
X207298683Y-36386173D01*
X207280108Y-36268898D01*
X207289063Y-36199604D01*
X207334059Y-36146152D01*
X207400810Y-36125513D01*
X207402581Y-36125500D01*
X207814552Y-36125500D01*
X207870847Y-36139015D01*
X208000776Y-36205218D01*
X208000778Y-36205218D01*
X208000781Y-36205220D01*
X208104234Y-36238834D01*
X208195465Y-36268477D01*
X208289009Y-36283293D01*
X208397648Y-36300500D01*
X208397649Y-36300500D01*
X208602351Y-36300500D01*
X208602352Y-36300500D01*
X208804534Y-36268477D01*
X208999219Y-36205220D01*
X209181610Y-36112287D01*
X209340058Y-35997169D01*
X209347213Y-35991971D01*
X209347215Y-35991968D01*
X209347219Y-35991966D01*
X209491966Y-35847219D01*
X209491968Y-35847215D01*
X209491971Y-35847213D01*
X209595133Y-35705220D01*
X209612287Y-35681610D01*
X209705220Y-35499219D01*
X209768477Y-35304534D01*
X209800500Y-35102352D01*
X209800500Y-34897648D01*
X209780108Y-34768898D01*
X209789063Y-34699604D01*
X209834059Y-34646152D01*
X209900810Y-34625513D01*
X209902581Y-34625500D01*
X225706357Y-34625500D01*
X225773396Y-34645185D01*
X225819151Y-34697989D01*
X225829095Y-34767147D01*
X225800070Y-34830703D01*
X225794038Y-34837181D01*
X225736557Y-34894661D01*
X225736551Y-34894668D01*
X225578906Y-35100116D01*
X225449427Y-35324380D01*
X225449423Y-35324390D01*
X225350324Y-35563635D01*
X225283302Y-35813769D01*
X225283299Y-35813782D01*
X225249501Y-36070508D01*
X225249500Y-36070525D01*
X225249500Y-36329474D01*
X225249501Y-36329491D01*
X225283299Y-36586217D01*
X225283300Y-36586222D01*
X225283301Y-36586228D01*
X225308859Y-36681613D01*
X225350324Y-36836364D01*
X225449423Y-37075609D01*
X225449427Y-37075619D01*
X225578906Y-37299883D01*
X225736551Y-37505331D01*
X225736557Y-37505338D01*
X225919661Y-37688442D01*
X225919668Y-37688448D01*
X226125116Y-37846093D01*
X226349380Y-37975572D01*
X226349381Y-37975572D01*
X226349384Y-37975574D01*
X226588634Y-38074675D01*
X226838772Y-38141699D01*
X227095519Y-38175500D01*
X227095526Y-38175500D01*
X227354474Y-38175500D01*
X227354481Y-38175500D01*
X227611228Y-38141699D01*
X227861366Y-38074675D01*
X228100616Y-37975574D01*
X228324884Y-37846093D01*
X228530333Y-37688447D01*
X228713447Y-37505333D01*
X228871093Y-37299884D01*
X229000574Y-37075616D01*
X229099675Y-36836366D01*
X229166699Y-36586228D01*
X229200500Y-36329481D01*
X229200500Y-36070525D01*
X245249500Y-36070525D01*
X245249500Y-36329474D01*
X245249501Y-36329491D01*
X245283299Y-36586217D01*
X245283300Y-36586222D01*
X245283301Y-36586228D01*
X245308859Y-36681613D01*
X245350324Y-36836364D01*
X245449423Y-37075609D01*
X245449427Y-37075619D01*
X245578906Y-37299883D01*
X245736551Y-37505331D01*
X245736557Y-37505338D01*
X245919661Y-37688442D01*
X245919668Y-37688448D01*
X246125116Y-37846093D01*
X246349380Y-37975572D01*
X246349381Y-37975572D01*
X246349384Y-37975574D01*
X246588634Y-38074675D01*
X246838772Y-38141699D01*
X247095519Y-38175500D01*
X247095526Y-38175500D01*
X247354474Y-38175500D01*
X247354481Y-38175500D01*
X247611228Y-38141699D01*
X247861366Y-38074675D01*
X248100616Y-37975574D01*
X248324884Y-37846093D01*
X248530333Y-37688447D01*
X248713447Y-37505333D01*
X248871093Y-37299884D01*
X249000574Y-37075616D01*
X249099675Y-36836366D01*
X249166699Y-36586228D01*
X249200500Y-36329481D01*
X249200500Y-36070519D01*
X249166699Y-35813772D01*
X249099675Y-35563634D01*
X249000574Y-35324384D01*
X248999767Y-35322987D01*
X248871093Y-35100116D01*
X248713448Y-34894668D01*
X248713442Y-34894661D01*
X248530338Y-34711557D01*
X248530331Y-34711551D01*
X248324883Y-34553906D01*
X248100619Y-34424427D01*
X248100609Y-34424423D01*
X247861364Y-34325324D01*
X247736297Y-34291813D01*
X247611228Y-34258301D01*
X247611222Y-34258300D01*
X247611217Y-34258299D01*
X247354491Y-34224501D01*
X247354486Y-34224500D01*
X247354481Y-34224500D01*
X247095519Y-34224500D01*
X247095513Y-34224500D01*
X247095508Y-34224501D01*
X246838782Y-34258299D01*
X246838775Y-34258300D01*
X246838772Y-34258301D01*
X246785908Y-34272465D01*
X246588635Y-34325324D01*
X246349390Y-34424423D01*
X246349380Y-34424427D01*
X246125116Y-34553906D01*
X245919668Y-34711551D01*
X245919661Y-34711557D01*
X245736557Y-34894661D01*
X245736551Y-34894668D01*
X245578906Y-35100116D01*
X245449427Y-35324380D01*
X245449423Y-35324390D01*
X245350324Y-35563635D01*
X245283302Y-35813769D01*
X245283299Y-35813782D01*
X245249501Y-36070508D01*
X245249500Y-36070525D01*
X229200500Y-36070525D01*
X229200500Y-36070519D01*
X229166699Y-35813772D01*
X229099675Y-35563634D01*
X229000574Y-35324384D01*
X228999767Y-35322987D01*
X228871093Y-35100116D01*
X228713448Y-34894668D01*
X228713442Y-34894661D01*
X228655962Y-34837181D01*
X228622477Y-34775858D01*
X228627461Y-34706166D01*
X228669333Y-34650233D01*
X228734797Y-34625816D01*
X228743643Y-34625500D01*
X236088578Y-34625500D01*
X236088579Y-34625500D01*
X236263556Y-34597786D01*
X236432042Y-34543042D01*
X236589890Y-34462614D01*
X236733214Y-34358483D01*
X236858483Y-34233214D01*
X236917042Y-34174655D01*
X236917055Y-34174640D01*
X241429879Y-29661819D01*
X241491202Y-29628334D01*
X241517560Y-29625500D01*
X243350500Y-29625500D01*
X243417539Y-29645185D01*
X243463294Y-29697989D01*
X243474500Y-29749500D01*
X243474500Y-31008028D01*
X243474501Y-31008034D01*
X243485113Y-31127415D01*
X243541089Y-31323045D01*
X243541090Y-31323048D01*
X243541091Y-31323049D01*
X243635302Y-31503407D01*
X243635304Y-31503409D01*
X243763890Y-31661109D01*
X243820119Y-31706957D01*
X243921593Y-31789698D01*
X244101951Y-31883909D01*
X244297582Y-31939886D01*
X244416963Y-31950500D01*
X246033036Y-31950499D01*
X246152418Y-31939886D01*
X246348049Y-31883909D01*
X246528407Y-31789698D01*
X246686109Y-31661109D01*
X246814698Y-31503407D01*
X246908909Y-31323049D01*
X246964886Y-31127418D01*
X246975500Y-31008037D01*
X246975499Y-29749499D01*
X246995184Y-29682461D01*
X247047987Y-29636706D01*
X247099499Y-29625500D01*
X248314552Y-29625500D01*
X248370847Y-29639015D01*
X248500776Y-29705218D01*
X248500778Y-29705218D01*
X248500781Y-29705220D01*
X248597411Y-29736617D01*
X248695465Y-29768477D01*
X248796557Y-29784488D01*
X248897648Y-29800500D01*
X248897649Y-29800500D01*
X249102351Y-29800500D01*
X249102352Y-29800500D01*
X249304534Y-29768477D01*
X249499219Y-29705220D01*
X249681610Y-29612287D01*
X249784705Y-29537385D01*
X249847213Y-29491971D01*
X249847215Y-29491968D01*
X249847219Y-29491966D01*
X249991966Y-29347219D01*
X249991968Y-29347215D01*
X249991971Y-29347213D01*
X250046192Y-29272583D01*
X250112287Y-29181610D01*
X250205220Y-28999219D01*
X250268477Y-28804534D01*
X250300500Y-28602352D01*
X250300500Y-28397648D01*
X250277732Y-28253900D01*
X250268477Y-28195465D01*
X250210233Y-28016210D01*
X250205220Y-28000781D01*
X250205218Y-28000778D01*
X250205218Y-28000776D01*
X250147610Y-27887715D01*
X250112287Y-27818390D01*
X250095134Y-27794781D01*
X249991971Y-27652786D01*
X249847213Y-27508028D01*
X249681613Y-27387715D01*
X249681612Y-27387714D01*
X249681610Y-27387713D01*
X249624653Y-27358691D01*
X249499223Y-27294781D01*
X249337407Y-27242204D01*
X249279732Y-27202766D01*
X249257795Y-27162591D01*
X249254609Y-27152786D01*
X249205220Y-27000781D01*
X249112287Y-26818390D01*
X249095134Y-26794781D01*
X248991971Y-26652786D01*
X248847213Y-26508028D01*
X248681613Y-26387715D01*
X248681612Y-26387714D01*
X248681610Y-26387713D01*
X248582840Y-26337387D01*
X248499223Y-26294781D01*
X248304534Y-26231522D01*
X248129995Y-26203878D01*
X248102352Y-26199500D01*
X247897648Y-26199500D01*
X247873329Y-26203351D01*
X247695465Y-26231522D01*
X247500776Y-26294781D01*
X247385058Y-26353744D01*
X247375432Y-26358649D01*
X247370847Y-26360985D01*
X247314552Y-26374500D01*
X243924862Y-26374500D01*
X243857823Y-26354815D01*
X243812068Y-26302011D01*
X243802124Y-26232853D01*
X243831149Y-26169297D01*
X243837166Y-26162833D01*
X244160083Y-25839916D01*
X244221401Y-25806435D01*
X244291092Y-25811419D01*
X244309756Y-25820212D01*
X244343883Y-25839916D01*
X244440278Y-25895570D01*
X244440283Y-25895572D01*
X244440286Y-25895574D01*
X244679536Y-25994675D01*
X244929674Y-26061699D01*
X245186421Y-26095500D01*
X245186428Y-26095500D01*
X245445376Y-26095500D01*
X245445383Y-26095500D01*
X245702130Y-26061699D01*
X245952268Y-25994675D01*
X246191518Y-25895574D01*
X246415786Y-25766093D01*
X246621235Y-25608447D01*
X246804349Y-25425333D01*
X246961995Y-25219884D01*
X247091476Y-24995616D01*
X247190577Y-24756366D01*
X247257601Y-24506228D01*
X247291402Y-24249481D01*
X247291402Y-23990519D01*
X247257601Y-23733772D01*
X247190577Y-23483634D01*
X247091476Y-23244384D01*
X247037349Y-23150634D01*
X246961995Y-23020116D01*
X246804350Y-22814668D01*
X246804344Y-22814661D01*
X246621240Y-22631557D01*
X246621233Y-22631551D01*
X246415785Y-22473906D01*
X246191521Y-22344427D01*
X246191511Y-22344423D01*
X245952266Y-22245324D01*
X245802586Y-22205218D01*
X245702130Y-22178301D01*
X245702124Y-22178300D01*
X245702119Y-22178299D01*
X245445393Y-22144501D01*
X245445388Y-22144500D01*
X245445383Y-22144500D01*
X245186421Y-22144500D01*
X245186418Y-22144500D01*
X245140183Y-22150586D01*
X245071148Y-22139819D01*
X245018893Y-22093438D01*
X245000000Y-22027647D01*
X245000000Y-12701966D01*
X252874500Y-12701966D01*
X252874500Y-14518028D01*
X252874501Y-14518034D01*
X252885113Y-14637415D01*
X252941089Y-14833045D01*
X252941090Y-14833047D01*
X252941091Y-14833049D01*
X253035301Y-15013406D01*
X253035305Y-15013412D01*
X253103691Y-15097281D01*
X253130800Y-15161677D01*
X253118790Y-15230507D01*
X253114977Y-15237640D01*
X253061775Y-15329789D01*
X253061773Y-15329794D01*
X252968947Y-15553895D01*
X252906161Y-15788214D01*
X252874500Y-16028711D01*
X252874500Y-16271288D01*
X252906161Y-16511785D01*
X252968947Y-16746104D01*
X253051951Y-16946492D01*
X253061776Y-16970212D01*
X253183064Y-17180289D01*
X253183066Y-17180292D01*
X253183067Y-17180293D01*
X253309077Y-17344514D01*
X253334271Y-17409683D01*
X253320232Y-17478128D01*
X253309077Y-17495486D01*
X253183067Y-17659706D01*
X253061777Y-17869785D01*
X253061773Y-17869794D01*
X252968947Y-18093895D01*
X252906161Y-18328214D01*
X252874500Y-18568711D01*
X252874500Y-18811288D01*
X252906161Y-19051785D01*
X252968947Y-19286104D01*
X253061773Y-19510205D01*
X253061776Y-19510212D01*
X253183064Y-19720289D01*
X253183066Y-19720292D01*
X253183067Y-19720293D01*
X253309077Y-19884514D01*
X253334271Y-19949683D01*
X253320232Y-20018128D01*
X253309077Y-20035486D01*
X253183067Y-20199706D01*
X253061777Y-20409785D01*
X253061773Y-20409794D01*
X252968947Y-20633895D01*
X252906161Y-20868214D01*
X252874500Y-21108711D01*
X252874500Y-21351288D01*
X252905465Y-21586499D01*
X252906162Y-21591789D01*
X252912709Y-21616221D01*
X252968947Y-21826104D01*
X253061772Y-22050204D01*
X253061776Y-22050212D01*
X253183064Y-22260289D01*
X253183066Y-22260292D01*
X253183067Y-22260293D01*
X253309077Y-22424514D01*
X253334271Y-22489683D01*
X253320232Y-22558128D01*
X253309077Y-22575486D01*
X253183067Y-22739706D01*
X253061777Y-22949785D01*
X253061773Y-22949794D01*
X252968947Y-23173895D01*
X252906161Y-23408214D01*
X252874500Y-23648711D01*
X252874500Y-23891288D01*
X252902286Y-24102352D01*
X252906162Y-24131789D01*
X252907487Y-24136735D01*
X252968947Y-24366104D01*
X253031031Y-24515987D01*
X253061776Y-24590212D01*
X253183064Y-24800289D01*
X253183066Y-24800292D01*
X253183067Y-24800293D01*
X253309077Y-24964514D01*
X253334271Y-25029683D01*
X253320232Y-25098128D01*
X253309077Y-25115486D01*
X253183067Y-25279706D01*
X253061777Y-25489785D01*
X253061773Y-25489794D01*
X252968947Y-25713895D01*
X252906161Y-25948214D01*
X252874500Y-26188711D01*
X252874500Y-26431288D01*
X252906161Y-26671785D01*
X252968947Y-26906104D01*
X253011168Y-27008034D01*
X253061776Y-27130212D01*
X253183064Y-27340289D01*
X253183066Y-27340292D01*
X253183067Y-27340293D01*
X253309077Y-27504514D01*
X253334271Y-27569683D01*
X253320232Y-27638128D01*
X253309077Y-27655486D01*
X253183067Y-27819706D01*
X253061777Y-28029785D01*
X253061773Y-28029794D01*
X252968947Y-28253895D01*
X252906161Y-28488214D01*
X252874500Y-28728711D01*
X252874500Y-28971288D01*
X252902728Y-29185711D01*
X252906162Y-29211789D01*
X252911450Y-29231523D01*
X252968947Y-29446104D01*
X253061773Y-29670205D01*
X253061776Y-29670212D01*
X253183064Y-29880289D01*
X253183066Y-29880292D01*
X253183067Y-29880293D01*
X253309077Y-30044514D01*
X253334271Y-30109683D01*
X253320232Y-30178128D01*
X253309077Y-30195486D01*
X253183067Y-30359706D01*
X253061777Y-30569785D01*
X253061773Y-30569794D01*
X252968947Y-30793895D01*
X252906161Y-31028214D01*
X252874500Y-31268711D01*
X252874500Y-31511288D01*
X252906161Y-31751785D01*
X252968947Y-31986104D01*
X253061773Y-32210205D01*
X253061777Y-32210214D01*
X253082925Y-32246843D01*
X253183064Y-32420289D01*
X253183066Y-32420292D01*
X253183067Y-32420293D01*
X253330733Y-32612736D01*
X253330739Y-32612743D01*
X253502256Y-32784260D01*
X253502263Y-32784266D01*
X253562781Y-32830703D01*
X253694711Y-32931936D01*
X253904788Y-33053224D01*
X254128900Y-33146054D01*
X254363211Y-33208838D01*
X254543586Y-33232584D01*
X254603711Y-33240500D01*
X254603712Y-33240500D01*
X254846289Y-33240500D01*
X254894388Y-33234167D01*
X255086789Y-33208838D01*
X255321100Y-33146054D01*
X255545212Y-33053224D01*
X255755289Y-32931936D01*
X255947738Y-32784265D01*
X256119265Y-32612738D01*
X256266936Y-32420289D01*
X256388224Y-32210212D01*
X256481054Y-31986100D01*
X256543838Y-31751789D01*
X256575500Y-31511288D01*
X256575500Y-31268712D01*
X256543838Y-31028211D01*
X256481054Y-30793900D01*
X256388224Y-30569788D01*
X256266936Y-30359711D01*
X256140922Y-30195486D01*
X256115728Y-30130317D01*
X256129766Y-30061872D01*
X256140922Y-30044514D01*
X256142099Y-30042979D01*
X256266936Y-29880289D01*
X256388224Y-29670212D01*
X256481054Y-29446100D01*
X256543838Y-29211789D01*
X256575500Y-28971288D01*
X256575500Y-28728712D01*
X256543838Y-28488211D01*
X256481054Y-28253900D01*
X256388224Y-28029788D01*
X256266936Y-27819711D01*
X256140922Y-27655486D01*
X256115728Y-27590317D01*
X256129766Y-27521872D01*
X256140922Y-27504514D01*
X256152129Y-27489909D01*
X256266936Y-27340289D01*
X256388224Y-27130212D01*
X256481054Y-26906100D01*
X256543838Y-26671789D01*
X256575500Y-26431288D01*
X256575500Y-26188712D01*
X256543838Y-25948211D01*
X256481054Y-25713900D01*
X256388224Y-25489788D01*
X256266936Y-25279711D01*
X256140922Y-25115486D01*
X256115728Y-25050317D01*
X256129766Y-24981872D01*
X256140922Y-24964514D01*
X256144616Y-24959700D01*
X256266936Y-24800289D01*
X256388224Y-24590212D01*
X256481054Y-24366100D01*
X256543838Y-24131789D01*
X256575500Y-23891288D01*
X256575500Y-23648712D01*
X256543838Y-23408211D01*
X256481054Y-23173900D01*
X256388224Y-22949788D01*
X256266936Y-22739711D01*
X256140922Y-22575486D01*
X256115728Y-22510317D01*
X256129766Y-22441872D01*
X256140922Y-22424514D01*
X256177421Y-22376947D01*
X256266936Y-22260289D01*
X256388224Y-22050212D01*
X256388225Y-22050207D01*
X256388228Y-22050204D01*
X256472306Y-21847219D01*
X256481054Y-21826100D01*
X256543838Y-21591789D01*
X256575500Y-21351288D01*
X256575500Y-21108712D01*
X256543838Y-20868211D01*
X256481054Y-20633900D01*
X256388224Y-20409788D01*
X256266936Y-20199711D01*
X256140922Y-20035486D01*
X256115728Y-19970317D01*
X256129766Y-19901872D01*
X256140922Y-19884514D01*
X256209777Y-19794780D01*
X256266936Y-19720289D01*
X256388224Y-19510212D01*
X256481054Y-19286100D01*
X256543838Y-19051789D01*
X256575500Y-18811288D01*
X256575500Y-18568712D01*
X256543838Y-18328211D01*
X256481054Y-18093900D01*
X256388224Y-17869788D01*
X256266936Y-17659711D01*
X256140922Y-17495486D01*
X256115728Y-17430317D01*
X256129766Y-17361872D01*
X256140922Y-17344514D01*
X256146549Y-17337181D01*
X256266936Y-17180289D01*
X256388224Y-16970212D01*
X256481054Y-16746100D01*
X256543838Y-16511789D01*
X256575500Y-16271288D01*
X256575500Y-16028712D01*
X256543838Y-15788211D01*
X256481054Y-15553900D01*
X256388224Y-15329788D01*
X256388218Y-15329777D01*
X256335023Y-15237639D01*
X256318550Y-15169739D01*
X256341403Y-15103712D01*
X256346307Y-15097281D01*
X256414698Y-15013407D01*
X256508909Y-14833049D01*
X256564886Y-14637418D01*
X256575500Y-14518037D01*
X256575499Y-12701964D01*
X256564886Y-12582582D01*
X256510362Y-12392030D01*
X256508910Y-12386954D01*
X256508909Y-12386953D01*
X256508909Y-12386951D01*
X256414698Y-12206593D01*
X256348576Y-12125501D01*
X256286109Y-12048890D01*
X256152124Y-11939641D01*
X256128407Y-11920302D01*
X255948049Y-11826091D01*
X255948048Y-11826090D01*
X255948045Y-11826089D01*
X255830829Y-11792550D01*
X255752418Y-11770114D01*
X255752415Y-11770113D01*
X255752413Y-11770113D01*
X255686102Y-11764217D01*
X255633037Y-11759500D01*
X255633032Y-11759500D01*
X253816971Y-11759500D01*
X253816965Y-11759500D01*
X253816964Y-11759501D01*
X253805316Y-11760536D01*
X253697584Y-11770113D01*
X253501954Y-11826089D01*
X253461503Y-11847219D01*
X253321593Y-11920302D01*
X253321591Y-11920303D01*
X253321590Y-11920304D01*
X253163890Y-12048890D01*
X253035304Y-12206590D01*
X252941089Y-12386954D01*
X252885114Y-12582583D01*
X252885113Y-12582586D01*
X252874500Y-12701966D01*
X245000000Y-12701966D01*
X245000000Y-5892352D01*
X245019685Y-5825313D01*
X245072489Y-5779558D01*
X245140185Y-5769413D01*
X245171867Y-5773583D01*
X245186405Y-5775498D01*
X245186421Y-5775500D01*
X245186428Y-5775500D01*
X245445376Y-5775500D01*
X245445383Y-5775500D01*
X245702130Y-5741699D01*
X245952268Y-5674675D01*
X246191518Y-5575574D01*
X246415786Y-5446093D01*
X246621235Y-5288447D01*
X246804349Y-5105333D01*
X246961995Y-4899884D01*
X247091476Y-4675616D01*
X247190577Y-4436366D01*
X247257601Y-4186228D01*
X247291402Y-3929481D01*
X247291402Y-3670519D01*
X247257601Y-3413772D01*
X247190577Y-3163634D01*
X247091476Y-2924384D01*
X247042013Y-2838712D01*
X246961995Y-2700116D01*
X246804350Y-2494668D01*
X246804344Y-2494661D01*
X246621240Y-2311557D01*
X246621233Y-2311551D01*
X246415785Y-2153906D01*
X246191521Y-2024427D01*
X246191511Y-2024423D01*
X245952268Y-1925325D01*
X245861924Y-1901117D01*
X245802263Y-1864751D01*
X245771735Y-1801904D01*
X245780030Y-1732529D01*
X245806332Y-1693667D01*
X246963181Y-536819D01*
X247024504Y-503334D01*
X247050862Y-500500D01*
X251216254Y-500500D01*
X251283293Y-520185D01*
G37*
%TD.AperFunction*%
%TA.AperFunction,Conductor*%
G36*
X201720688Y-35182931D02*
G01*
X201720904Y-35182179D01*
X201755053Y-35191950D01*
X201922582Y-35239886D01*
X202041963Y-35250500D01*
X202219954Y-35250499D01*
X202286993Y-35270183D01*
X202332748Y-35322987D01*
X202342692Y-35392145D01*
X202330439Y-35430793D01*
X202294779Y-35500780D01*
X202294779Y-35500781D01*
X202231523Y-35695461D01*
X202231523Y-35695464D01*
X202199500Y-35897648D01*
X202199500Y-36102351D01*
X202231522Y-36304534D01*
X202294781Y-36499223D01*
X202352391Y-36612287D01*
X202384155Y-36674628D01*
X202387715Y-36681613D01*
X202508028Y-36847213D01*
X202652786Y-36991971D01*
X202807749Y-37104556D01*
X202818390Y-37112287D01*
X203000781Y-37205220D01*
X203148613Y-37253253D01*
X203195465Y-37268477D01*
X203196633Y-37268662D01*
X203197041Y-37268855D01*
X203200197Y-37269613D01*
X203200037Y-37270276D01*
X203259768Y-37298591D01*
X203296699Y-37357903D01*
X203300853Y-37381406D01*
X203309904Y-37496414D01*
X203309905Y-37496420D01*
X203364902Y-37714678D01*
X203364903Y-37714681D01*
X203457993Y-37919626D01*
X203472171Y-37940091D01*
X203494167Y-38006408D01*
X203476819Y-38074090D01*
X203432243Y-38118093D01*
X203319711Y-38183064D01*
X203319708Y-38183065D01*
X203319703Y-38183069D01*
X203155486Y-38309077D01*
X203090317Y-38334271D01*
X203021872Y-38320232D01*
X203004514Y-38309077D01*
X202840293Y-38183067D01*
X202840292Y-38183066D01*
X202840289Y-38183064D01*
X202652251Y-38074500D01*
X202630214Y-38061777D01*
X202630205Y-38061773D01*
X202406104Y-37968947D01*
X202171785Y-37906161D01*
X201931289Y-37874500D01*
X201931288Y-37874500D01*
X201688712Y-37874500D01*
X201688711Y-37874500D01*
X201448214Y-37906161D01*
X201213895Y-37968947D01*
X200989794Y-38061773D01*
X200989785Y-38061777D01*
X200812921Y-38163890D01*
X200783006Y-38181162D01*
X200779706Y-38183067D01*
X200615486Y-38309077D01*
X200550317Y-38334271D01*
X200481872Y-38320232D01*
X200464514Y-38309077D01*
X200300293Y-38183067D01*
X200300292Y-38183066D01*
X200300289Y-38183064D01*
X200177700Y-38112287D01*
X200101958Y-38068557D01*
X200053742Y-38017990D01*
X200040520Y-37949383D01*
X200046024Y-37922863D01*
X200065988Y-37861421D01*
X200097786Y-37763556D01*
X200125500Y-37588579D01*
X200125500Y-37411422D01*
X200125500Y-37411421D01*
X200125500Y-36017559D01*
X200145185Y-35950520D01*
X200161819Y-35929878D01*
X200879879Y-35211819D01*
X200941202Y-35178334D01*
X200967560Y-35175500D01*
X201682049Y-35175500D01*
X201720688Y-35182931D01*
G37*
%TD.AperFunction*%
%TA.AperFunction,Conductor*%
G36*
X195015677Y-25019685D02*
G01*
X195036319Y-25036319D01*
X197500000Y-27500000D01*
X210125114Y-27500000D01*
X210192153Y-27519685D01*
X210237908Y-27572489D01*
X210247852Y-27641647D01*
X210218827Y-27705203D01*
X210163433Y-27741931D01*
X210000776Y-27794781D01*
X209818386Y-27887715D01*
X209652786Y-28008028D01*
X209508028Y-28152786D01*
X209387715Y-28318386D01*
X209294781Y-28500776D01*
X209231522Y-28695465D01*
X209214248Y-28804534D01*
X209199500Y-28897648D01*
X209199500Y-29102352D01*
X209206168Y-29144452D01*
X209219892Y-29231102D01*
X209210937Y-29300396D01*
X209165941Y-29353848D01*
X209099190Y-29374487D01*
X209097419Y-29374500D01*
X206911421Y-29374500D01*
X206801147Y-29391966D01*
X206765273Y-29397648D01*
X206736443Y-29402214D01*
X206567960Y-29456956D01*
X206567957Y-29456957D01*
X206410110Y-29537385D01*
X206266785Y-29641516D01*
X204395120Y-31513181D01*
X204333797Y-31546666D01*
X204307439Y-31549500D01*
X204041971Y-31549500D01*
X204041965Y-31549500D01*
X204041964Y-31549501D01*
X204030316Y-31550536D01*
X203922584Y-31560113D01*
X203726953Y-31616090D01*
X203726951Y-31616090D01*
X203657410Y-31652415D01*
X203588875Y-31666006D01*
X203542590Y-31652415D01*
X203473047Y-31616090D01*
X203389370Y-31592147D01*
X203277418Y-31560114D01*
X203277415Y-31560113D01*
X203277413Y-31560113D01*
X203211102Y-31554217D01*
X203158037Y-31549500D01*
X203158032Y-31549500D01*
X202041971Y-31549500D01*
X202041965Y-31549500D01*
X202041964Y-31549501D01*
X202030316Y-31550536D01*
X201922584Y-31560113D01*
X201720904Y-31617821D01*
X201720688Y-31617068D01*
X201682049Y-31624500D01*
X199838579Y-31624500D01*
X199661421Y-31624500D01*
X199603095Y-31633738D01*
X199486442Y-31652214D01*
X199353327Y-31695466D01*
X199344152Y-31698446D01*
X199317958Y-31706957D01*
X199160106Y-31787388D01*
X199117437Y-31818389D01*
X199016789Y-31891512D01*
X199016784Y-31891517D01*
X198522818Y-32385482D01*
X198461495Y-32418967D01*
X198391803Y-32413983D01*
X198377727Y-32407710D01*
X198298047Y-32366090D01*
X198214370Y-32342147D01*
X198102418Y-32310114D01*
X198102415Y-32310113D01*
X198102413Y-32310113D01*
X198036102Y-32304217D01*
X197983037Y-32299500D01*
X197983032Y-32299500D01*
X196016971Y-32299500D01*
X196016965Y-32299500D01*
X196016964Y-32299501D01*
X196005727Y-32300500D01*
X195897584Y-32310113D01*
X195701954Y-32366089D01*
X195641540Y-32397647D01*
X195521593Y-32460302D01*
X195521591Y-32460303D01*
X195521590Y-32460304D01*
X195363890Y-32588890D01*
X195235304Y-32746590D01*
X195235302Y-32746593D01*
X195191367Y-32830703D01*
X195141089Y-32926954D01*
X195085114Y-33122583D01*
X195085113Y-33122586D01*
X195074500Y-33241966D01*
X195074500Y-33425500D01*
X195054815Y-33492539D01*
X195002011Y-33538294D01*
X194950500Y-33549500D01*
X193831903Y-33549500D01*
X193598631Y-33586446D01*
X193519114Y-33612284D01*
X193487836Y-33622447D01*
X193374009Y-33659430D01*
X193374006Y-33659431D01*
X193163565Y-33766657D01*
X192972488Y-33905484D01*
X192497170Y-34380802D01*
X192435847Y-34414287D01*
X192366155Y-34409303D01*
X192310222Y-34367431D01*
X192287016Y-34312519D01*
X192268477Y-34195466D01*
X192248701Y-34134603D01*
X192237707Y-34100765D01*
X192205220Y-34000781D01*
X192205218Y-34000778D01*
X192205218Y-34000776D01*
X192171503Y-33934607D01*
X192112287Y-33818390D01*
X192084783Y-33780534D01*
X191991971Y-33652786D01*
X191847213Y-33508028D01*
X191681613Y-33387715D01*
X191681612Y-33387714D01*
X191681610Y-33387713D01*
X191624653Y-33358691D01*
X191499223Y-33294781D01*
X191360524Y-33249715D01*
X191311162Y-33219465D01*
X188928878Y-30837181D01*
X188895393Y-30775858D01*
X188900377Y-30706166D01*
X188942249Y-30650233D01*
X189007713Y-30625816D01*
X189016559Y-30625500D01*
X189088578Y-30625500D01*
X189088579Y-30625500D01*
X189263556Y-30597786D01*
X189432042Y-30543042D01*
X189589890Y-30462614D01*
X189733214Y-30358483D01*
X189858483Y-30233214D01*
X189917042Y-30174655D01*
X189917053Y-30174642D01*
X190311164Y-29780532D01*
X190360526Y-29750284D01*
X190499214Y-29705222D01*
X190499216Y-29705220D01*
X190499219Y-29705220D01*
X190681610Y-29612287D01*
X190784705Y-29537385D01*
X190847213Y-29491971D01*
X190847215Y-29491968D01*
X190847219Y-29491966D01*
X190991966Y-29347219D01*
X190991968Y-29347215D01*
X190991971Y-29347213D01*
X191046192Y-29272583D01*
X191112287Y-29181610D01*
X191205220Y-28999219D01*
X191268477Y-28804534D01*
X191300500Y-28602352D01*
X191300500Y-28397648D01*
X191277732Y-28253900D01*
X191268477Y-28195465D01*
X191210233Y-28016210D01*
X191205220Y-28000781D01*
X191205218Y-28000778D01*
X191205218Y-28000776D01*
X191147610Y-27887715D01*
X191112287Y-27818390D01*
X191095134Y-27794781D01*
X190991971Y-27652786D01*
X190847213Y-27508028D01*
X190681613Y-27387715D01*
X190681612Y-27387714D01*
X190681610Y-27387713D01*
X190624653Y-27358691D01*
X190499223Y-27294781D01*
X190304534Y-27231522D01*
X190122972Y-27202766D01*
X190102352Y-27199500D01*
X189897648Y-27199500D01*
X189877028Y-27202766D01*
X189695465Y-27231522D01*
X189500776Y-27294781D01*
X189318386Y-27387715D01*
X189152786Y-27508028D01*
X189008028Y-27652786D01*
X188887715Y-27818386D01*
X188794779Y-28000780D01*
X188749714Y-28139473D01*
X188742728Y-28150872D01*
X188740617Y-28160579D01*
X188719466Y-28188833D01*
X188570122Y-28338180D01*
X188508799Y-28371666D01*
X188482440Y-28374500D01*
X187066564Y-28374500D01*
X186999525Y-28354815D01*
X186953770Y-28302011D01*
X186943826Y-28232853D01*
X186946789Y-28218407D01*
X186951855Y-28199500D01*
X186959736Y-28170088D01*
X186989500Y-27944013D01*
X186989500Y-27715987D01*
X186959736Y-27489912D01*
X186900719Y-27269656D01*
X186813457Y-27058988D01*
X186813455Y-27058985D01*
X186813453Y-27058980D01*
X186699448Y-26861519D01*
X186699444Y-26861512D01*
X186599700Y-26731523D01*
X186560632Y-26680608D01*
X186560626Y-26680601D01*
X186399398Y-26519373D01*
X186399391Y-26519367D01*
X186218496Y-26380562D01*
X186218494Y-26380561D01*
X186218488Y-26380556D01*
X186143716Y-26337386D01*
X186095501Y-26286820D01*
X186082278Y-26218213D01*
X186108246Y-26153348D01*
X186143717Y-26122613D01*
X186143719Y-26122612D01*
X186218488Y-26079444D01*
X186399393Y-25940631D01*
X186560631Y-25779393D01*
X186699444Y-25598488D01*
X186813457Y-25401012D01*
X186900719Y-25190344D01*
X186927095Y-25091905D01*
X186963460Y-25032246D01*
X187026307Y-25001717D01*
X187046870Y-25000000D01*
X194948638Y-25000000D01*
X195015677Y-25019685D01*
G37*
%TD.AperFunction*%
%TA.AperFunction,Conductor*%
G36*
X231467539Y-27519685D02*
G01*
X231513294Y-27572489D01*
X231524500Y-27624000D01*
X231524500Y-28868282D01*
X231504815Y-28935321D01*
X231498876Y-28943768D01*
X231378906Y-29100116D01*
X231249427Y-29324380D01*
X231249423Y-29324390D01*
X231150324Y-29563635D01*
X231083302Y-29813769D01*
X231083299Y-29813782D01*
X231049501Y-30070508D01*
X231049500Y-30070525D01*
X231049500Y-30329474D01*
X231049501Y-30329491D01*
X231083299Y-30586217D01*
X231083300Y-30586222D01*
X231083301Y-30586228D01*
X231083302Y-30586230D01*
X231150324Y-30836364D01*
X231249423Y-31075609D01*
X231249427Y-31075618D01*
X231314600Y-31188500D01*
X231331073Y-31256400D01*
X231308221Y-31322427D01*
X231253299Y-31365617D01*
X231207213Y-31374500D01*
X227058644Y-31374500D01*
X226991605Y-31354815D01*
X226945850Y-31302011D01*
X226935906Y-31232853D01*
X226939426Y-31216395D01*
X226964886Y-31127418D01*
X226975500Y-31008037D01*
X226975499Y-29391964D01*
X226964886Y-29272582D01*
X226908909Y-29076951D01*
X226814698Y-28896593D01*
X226739634Y-28804534D01*
X226686109Y-28738890D01*
X226566689Y-28641517D01*
X226528407Y-28610302D01*
X226348049Y-28516091D01*
X226348048Y-28516090D01*
X226348045Y-28516089D01*
X226230829Y-28482550D01*
X226152418Y-28460114D01*
X226152415Y-28460113D01*
X226152413Y-28460113D01*
X226086102Y-28454217D01*
X226033037Y-28449500D01*
X226033032Y-28449500D01*
X224416971Y-28449500D01*
X224416965Y-28449500D01*
X224416964Y-28449501D01*
X224405316Y-28450536D01*
X224297584Y-28460113D01*
X224101954Y-28516089D01*
X224036080Y-28550499D01*
X223921593Y-28610302D01*
X223921591Y-28610303D01*
X223921590Y-28610304D01*
X223763890Y-28738890D01*
X223649974Y-28878599D01*
X223635302Y-28896593D01*
X223615072Y-28935321D01*
X223541089Y-29076954D01*
X223485114Y-29272583D01*
X223485113Y-29272586D01*
X223474500Y-29391966D01*
X223474500Y-31008028D01*
X223474501Y-31008034D01*
X223485113Y-31127413D01*
X223485113Y-31127415D01*
X223485114Y-31127418D01*
X223510571Y-31216389D01*
X223510089Y-31286257D01*
X223471909Y-31344772D01*
X223408154Y-31373357D01*
X223391356Y-31374500D01*
X214842787Y-31374500D01*
X214775748Y-31354815D01*
X214729993Y-31302011D01*
X214720049Y-31232853D01*
X214735400Y-31188500D01*
X214800574Y-31075616D01*
X214899675Y-30836366D01*
X214966699Y-30586228D01*
X215000500Y-30329481D01*
X215000500Y-30070519D01*
X214966699Y-29813772D01*
X214899675Y-29563634D01*
X214800574Y-29324384D01*
X214797113Y-29318390D01*
X214671093Y-29100116D01*
X214551124Y-28943768D01*
X214525930Y-28878599D01*
X214525500Y-28868282D01*
X214525500Y-27624000D01*
X214545185Y-27556961D01*
X214597989Y-27511206D01*
X214649500Y-27500000D01*
X231400500Y-27500000D01*
X231467539Y-27519685D01*
G37*
%TD.AperFunction*%
%TA.AperFunction,Conductor*%
G36*
X87855656Y-18645185D02*
G01*
X87901411Y-18697989D01*
X87911355Y-18767147D01*
X87882330Y-18830703D01*
X87864103Y-18847876D01*
X87692263Y-18979732D01*
X87692256Y-18979738D01*
X87520739Y-19151255D01*
X87520733Y-19151262D01*
X87373067Y-19343705D01*
X87373064Y-19343709D01*
X87373064Y-19343710D01*
X87371406Y-19346582D01*
X87251777Y-19553784D01*
X87251773Y-19553793D01*
X87158947Y-19777894D01*
X87096161Y-20012213D01*
X87064500Y-20252710D01*
X87064500Y-20495287D01*
X87096161Y-20735784D01*
X87158947Y-20970103D01*
X87230329Y-21142434D01*
X87251776Y-21194211D01*
X87373064Y-21404288D01*
X87373066Y-21404291D01*
X87373067Y-21404292D01*
X87499077Y-21568513D01*
X87524271Y-21633682D01*
X87510232Y-21702127D01*
X87499077Y-21719485D01*
X87373067Y-21883705D01*
X87251777Y-22093784D01*
X87251773Y-22093793D01*
X87158947Y-22317894D01*
X87096161Y-22552213D01*
X87064500Y-22792710D01*
X87064500Y-23035287D01*
X87096161Y-23275784D01*
X87158947Y-23510103D01*
X87238867Y-23703047D01*
X87246336Y-23772517D01*
X87215061Y-23834996D01*
X87154972Y-23870648D01*
X87124306Y-23874500D01*
X85625694Y-23874500D01*
X85558655Y-23854815D01*
X85512900Y-23802011D01*
X85502956Y-23732853D01*
X85511133Y-23703047D01*
X85561710Y-23580942D01*
X85591054Y-23510099D01*
X85653838Y-23275788D01*
X85685500Y-23035287D01*
X85685500Y-22792711D01*
X85653838Y-22552210D01*
X85591054Y-22317899D01*
X85498224Y-22093787D01*
X85376936Y-21883710D01*
X85250922Y-21719485D01*
X85225728Y-21654316D01*
X85239766Y-21585871D01*
X85250922Y-21568513D01*
X85303877Y-21499500D01*
X85376936Y-21404288D01*
X85498224Y-21194211D01*
X85591054Y-20970099D01*
X85653838Y-20735788D01*
X85685500Y-20495287D01*
X85685500Y-20252711D01*
X85653838Y-20012210D01*
X85591054Y-19777899D01*
X85498224Y-19553787D01*
X85376936Y-19343710D01*
X85266167Y-19199353D01*
X85229266Y-19151262D01*
X85229260Y-19151255D01*
X85057743Y-18979738D01*
X85057736Y-18979732D01*
X84885897Y-18847876D01*
X84844694Y-18791448D01*
X84840539Y-18721702D01*
X84874751Y-18660782D01*
X84936468Y-18628029D01*
X84961383Y-18625500D01*
X87788617Y-18625500D01*
X87855656Y-18645185D01*
G37*
%TD.AperFunction*%
%TA.AperFunction,Conductor*%
G36*
X143016177Y-520185D02*
G01*
X143036819Y-536819D01*
X147963681Y-5463681D01*
X147997166Y-5525004D01*
X148000000Y-5551362D01*
X148000000Y-12693739D01*
X147980315Y-12760778D01*
X147943609Y-12797117D01*
X147943630Y-12797147D01*
X147943675Y-12797203D01*
X147943671Y-12797205D01*
X147943785Y-12797365D01*
X147942284Y-12798429D01*
X147941989Y-12798722D01*
X147940964Y-12799366D01*
X147940948Y-12799377D01*
X147731257Y-12966600D01*
X147541600Y-13156257D01*
X147421947Y-13306298D01*
X147364759Y-13346438D01*
X147294947Y-13349288D01*
X147234677Y-13313943D01*
X147228053Y-13306298D01*
X147108399Y-13156257D01*
X146918742Y-12966600D01*
X146709051Y-12799377D01*
X146709045Y-12799372D01*
X146481941Y-12656673D01*
X146481938Y-12656671D01*
X146240289Y-12540299D01*
X145987126Y-12451714D01*
X145987124Y-12451713D01*
X145785318Y-12405652D01*
X145725635Y-12392030D01*
X145725632Y-12392029D01*
X145725620Y-12392027D01*
X145459113Y-12362000D01*
X145459107Y-12362000D01*
X145190893Y-12362000D01*
X145190886Y-12362000D01*
X144924379Y-12392027D01*
X144924365Y-12392030D01*
X144662875Y-12451713D01*
X144662873Y-12451714D01*
X144409710Y-12540299D01*
X144168061Y-12656671D01*
X143940956Y-12799371D01*
X143731257Y-12966600D01*
X143541600Y-13156257D01*
X143374371Y-13365956D01*
X143231671Y-13593061D01*
X143115299Y-13834710D01*
X143026714Y-14087873D01*
X143026713Y-14087875D01*
X142967030Y-14349365D01*
X142967027Y-14349379D01*
X142937000Y-14615886D01*
X142937000Y-14884113D01*
X142967027Y-15150620D01*
X142967029Y-15150632D01*
X142967030Y-15150635D01*
X142980652Y-15210318D01*
X143026713Y-15412124D01*
X143026714Y-15412126D01*
X143115299Y-15665289D01*
X143231671Y-15906938D01*
X143374370Y-16134042D01*
X143395619Y-16160688D01*
X143422027Y-16225375D01*
X143409270Y-16294070D01*
X143361399Y-16344964D01*
X143298671Y-16362000D01*
X143190886Y-16362000D01*
X142924379Y-16392027D01*
X142924365Y-16392030D01*
X142662875Y-16451713D01*
X142662873Y-16451714D01*
X142409710Y-16540299D01*
X142168061Y-16656671D01*
X141940956Y-16799371D01*
X141731257Y-16966600D01*
X141541600Y-17156257D01*
X141374371Y-17365956D01*
X141231671Y-17593061D01*
X141115299Y-17834710D01*
X141026714Y-18087873D01*
X141026713Y-18087875D01*
X140967030Y-18349365D01*
X140967027Y-18349379D01*
X140937000Y-18615886D01*
X140937000Y-18884113D01*
X140967027Y-19150620D01*
X140967029Y-19150632D01*
X140967030Y-19150635D01*
X140970704Y-19166731D01*
X141026713Y-19412124D01*
X141026714Y-19412126D01*
X141115299Y-19665289D01*
X141231671Y-19906938D01*
X141258530Y-19949683D01*
X141374372Y-20134045D01*
X141390104Y-20153772D01*
X141395619Y-20160688D01*
X141422027Y-20225375D01*
X141409270Y-20294070D01*
X141361399Y-20344964D01*
X141298671Y-20362000D01*
X141190886Y-20362000D01*
X140924379Y-20392027D01*
X140924365Y-20392030D01*
X140662875Y-20451713D01*
X140662873Y-20451714D01*
X140409710Y-20540299D01*
X140168061Y-20656671D01*
X139940956Y-20799371D01*
X139731257Y-20966600D01*
X139541600Y-21156257D01*
X139421947Y-21306298D01*
X139364759Y-21346438D01*
X139294947Y-21349288D01*
X139234677Y-21313943D01*
X139228053Y-21306298D01*
X139108399Y-21156257D01*
X138918742Y-20966600D01*
X138769043Y-20847219D01*
X138709045Y-20799372D01*
X138481941Y-20656673D01*
X138481938Y-20656671D01*
X138240289Y-20540299D01*
X137987126Y-20451714D01*
X137987124Y-20451713D01*
X137785318Y-20405652D01*
X137725635Y-20392030D01*
X137725632Y-20392029D01*
X137725620Y-20392027D01*
X137459113Y-20362000D01*
X137459107Y-20362000D01*
X137351329Y-20362000D01*
X137284290Y-20342315D01*
X137238535Y-20289511D01*
X137228591Y-20220353D01*
X137254381Y-20160688D01*
X137256291Y-20158292D01*
X137275628Y-20134045D01*
X137418327Y-19906941D01*
X137534701Y-19665288D01*
X137623286Y-19412125D01*
X137682970Y-19150635D01*
X137685039Y-19132278D01*
X137703256Y-18970589D01*
X137713000Y-18884107D01*
X137713000Y-18615893D01*
X137699854Y-18499219D01*
X137682972Y-18349379D01*
X137682971Y-18349374D01*
X137682970Y-18349365D01*
X137623286Y-18087875D01*
X137534701Y-17834712D01*
X137418327Y-17593059D01*
X137275628Y-17365955D01*
X137254381Y-17339312D01*
X137227973Y-17274625D01*
X137240730Y-17205930D01*
X137288601Y-17155036D01*
X137351329Y-17138000D01*
X137459110Y-17138000D01*
X137459111Y-17137999D01*
X137595317Y-17122652D01*
X137725620Y-17107972D01*
X137725623Y-17107971D01*
X137725635Y-17107970D01*
X137987125Y-17048286D01*
X138240288Y-16959701D01*
X138481941Y-16843327D01*
X138709045Y-16700628D01*
X138918743Y-16533399D01*
X139108399Y-16343743D01*
X139275628Y-16134045D01*
X139418327Y-15906941D01*
X139534701Y-15665288D01*
X139623286Y-15412125D01*
X139682970Y-15150635D01*
X139683660Y-15144517D01*
X139712999Y-14884113D01*
X139713000Y-14884109D01*
X139713000Y-14615890D01*
X139712999Y-14615886D01*
X139682972Y-14349379D01*
X139682971Y-14349374D01*
X139682970Y-14349365D01*
X139623286Y-14087875D01*
X139534701Y-13834712D01*
X139418327Y-13593059D01*
X139275628Y-13365955D01*
X139108399Y-13156257D01*
X138918743Y-12966601D01*
X138709045Y-12799372D01*
X138481941Y-12656673D01*
X138481938Y-12656671D01*
X138240289Y-12540299D01*
X137987126Y-12451714D01*
X137987124Y-12451713D01*
X137785318Y-12405652D01*
X137725635Y-12392030D01*
X137725632Y-12392029D01*
X137725620Y-12392027D01*
X137459113Y-12362000D01*
X137459107Y-12362000D01*
X137190893Y-12362000D01*
X137190886Y-12362000D01*
X136924379Y-12392027D01*
X136924365Y-12392030D01*
X136662875Y-12451713D01*
X136662873Y-12451714D01*
X136409710Y-12540299D01*
X136168061Y-12656671D01*
X135940956Y-12799371D01*
X135731257Y-12966600D01*
X135541600Y-13156257D01*
X135421947Y-13306298D01*
X135364759Y-13346438D01*
X135294947Y-13349288D01*
X135234677Y-13313943D01*
X135228053Y-13306298D01*
X135108399Y-13156257D01*
X134918742Y-12966600D01*
X134709051Y-12799377D01*
X134709045Y-12799372D01*
X134481941Y-12656673D01*
X134481938Y-12656671D01*
X134240289Y-12540299D01*
X133987126Y-12451714D01*
X133987124Y-12451713D01*
X133785318Y-12405652D01*
X133725635Y-12392030D01*
X133725632Y-12392029D01*
X133725620Y-12392027D01*
X133459113Y-12362000D01*
X133459107Y-12362000D01*
X133190893Y-12362000D01*
X133190886Y-12362000D01*
X132924379Y-12392027D01*
X132924365Y-12392030D01*
X132662875Y-12451713D01*
X132662873Y-12451714D01*
X132409710Y-12540299D01*
X132168061Y-12656671D01*
X131940956Y-12799371D01*
X131731257Y-12966600D01*
X131541600Y-13156257D01*
X131421947Y-13306298D01*
X131364759Y-13346438D01*
X131294947Y-13349288D01*
X131234677Y-13313943D01*
X131228053Y-13306298D01*
X131108399Y-13156257D01*
X130918742Y-12966600D01*
X130709051Y-12799377D01*
X130709045Y-12799372D01*
X130481941Y-12656673D01*
X130481938Y-12656671D01*
X130240289Y-12540299D01*
X129987126Y-12451714D01*
X129987124Y-12451713D01*
X129785318Y-12405652D01*
X129725635Y-12392030D01*
X129725632Y-12392029D01*
X129725620Y-12392027D01*
X129459113Y-12362000D01*
X129459107Y-12362000D01*
X129190893Y-12362000D01*
X129190886Y-12362000D01*
X128924379Y-12392027D01*
X128924365Y-12392030D01*
X128662875Y-12451713D01*
X128662873Y-12451714D01*
X128409710Y-12540299D01*
X128168061Y-12656671D01*
X127940956Y-12799371D01*
X127731257Y-12966600D01*
X127541600Y-13156257D01*
X127421947Y-13306298D01*
X127364759Y-13346438D01*
X127294947Y-13349288D01*
X127234677Y-13313943D01*
X127228053Y-13306298D01*
X127108399Y-13156257D01*
X126918742Y-12966600D01*
X126709051Y-12799377D01*
X126709045Y-12799372D01*
X126481941Y-12656673D01*
X126481938Y-12656671D01*
X126240289Y-12540299D01*
X125987126Y-12451714D01*
X125987124Y-12451713D01*
X125785318Y-12405652D01*
X125725635Y-12392030D01*
X125725632Y-12392029D01*
X125725620Y-12392027D01*
X125459113Y-12362000D01*
X125459107Y-12362000D01*
X125190893Y-12362000D01*
X125190886Y-12362000D01*
X124924379Y-12392027D01*
X124924365Y-12392030D01*
X124662875Y-12451713D01*
X124662873Y-12451714D01*
X124409710Y-12540299D01*
X124168061Y-12656671D01*
X123940956Y-12799371D01*
X123731257Y-12966600D01*
X123541600Y-13156257D01*
X123421947Y-13306298D01*
X123364759Y-13346438D01*
X123294947Y-13349288D01*
X123234677Y-13313943D01*
X123228053Y-13306298D01*
X123108399Y-13156257D01*
X122918742Y-12966600D01*
X122709051Y-12799377D01*
X122709045Y-12799372D01*
X122481941Y-12656673D01*
X122481938Y-12656671D01*
X122240289Y-12540299D01*
X121987126Y-12451714D01*
X121987124Y-12451713D01*
X121785318Y-12405652D01*
X121725635Y-12392030D01*
X121725632Y-12392029D01*
X121725620Y-12392027D01*
X121459113Y-12362000D01*
X121459107Y-12362000D01*
X121190893Y-12362000D01*
X121190886Y-12362000D01*
X120924379Y-12392027D01*
X120924361Y-12392030D01*
X120693486Y-12444726D01*
X120623747Y-12440453D01*
X120578213Y-12411516D01*
X120308215Y-12141518D01*
X120308214Y-12141517D01*
X120286168Y-12125500D01*
X120164890Y-12037386D01*
X120067210Y-11987615D01*
X120016415Y-11939641D01*
X119999620Y-11871820D01*
X120022157Y-11805685D01*
X120023188Y-11804246D01*
X120058658Y-11755424D01*
X120112287Y-11681610D01*
X120205220Y-11499219D01*
X120268477Y-11304534D01*
X120300500Y-11102352D01*
X120300500Y-10897648D01*
X120268477Y-10695466D01*
X120205220Y-10500781D01*
X120205218Y-10500778D01*
X120205218Y-10500776D01*
X120145226Y-10383037D01*
X120112287Y-10318390D01*
X120088068Y-10285055D01*
X119991971Y-10152786D01*
X119847213Y-10008028D01*
X119681613Y-9887715D01*
X119681612Y-9887714D01*
X119681610Y-9887713D01*
X119607137Y-9849767D01*
X119499223Y-9794781D01*
X119304534Y-9731522D01*
X119129995Y-9703878D01*
X119102352Y-9699500D01*
X118897648Y-9699500D01*
X118873329Y-9703351D01*
X118695465Y-9731522D01*
X118500776Y-9794781D01*
X118370847Y-9860985D01*
X118314552Y-9874500D01*
X105536103Y-9874500D01*
X105469064Y-9854815D01*
X105423309Y-9802011D01*
X105413365Y-9732853D01*
X105442390Y-9669297D01*
X105448422Y-9662819D01*
X105466056Y-9645185D01*
X105492416Y-9618825D01*
X105667523Y-9399248D01*
X105816945Y-9161445D01*
X105938801Y-8908408D01*
X106031560Y-8643318D01*
X106094055Y-8369509D01*
X106097189Y-8341699D01*
X106125499Y-8090431D01*
X106125500Y-8090427D01*
X106125500Y-7809572D01*
X106125499Y-7809568D01*
X106094057Y-7530505D01*
X106094054Y-7530487D01*
X106050550Y-7339885D01*
X106031560Y-7256682D01*
X105938801Y-6991592D01*
X105816945Y-6738555D01*
X105667523Y-6500752D01*
X105492416Y-6281175D01*
X105293825Y-6082584D01*
X105074248Y-5907477D01*
X104870667Y-5779558D01*
X104836442Y-5758053D01*
X104583411Y-5636200D01*
X104318329Y-5543443D01*
X104318317Y-5543439D01*
X104044512Y-5480945D01*
X104044494Y-5480942D01*
X103765431Y-5449500D01*
X103765425Y-5449500D01*
X103484575Y-5449500D01*
X103484568Y-5449500D01*
X103205505Y-5480942D01*
X103205487Y-5480945D01*
X102931682Y-5543439D01*
X102931670Y-5543443D01*
X102666588Y-5636200D01*
X102413557Y-5758053D01*
X102175753Y-5907476D01*
X101956175Y-6082583D01*
X101757583Y-6281175D01*
X101582476Y-6500753D01*
X101433053Y-6738557D01*
X101311200Y-6991588D01*
X101218443Y-7256670D01*
X101218439Y-7256682D01*
X101155945Y-7530487D01*
X101155942Y-7530505D01*
X101124500Y-7809568D01*
X101124500Y-8090431D01*
X101155942Y-8369494D01*
X101155945Y-8369512D01*
X101218439Y-8643317D01*
X101218443Y-8643329D01*
X101311200Y-8908411D01*
X101433053Y-9161442D01*
X101433055Y-9161445D01*
X101582477Y-9399248D01*
X101628758Y-9457282D01*
X101757583Y-9618824D01*
X101801578Y-9662819D01*
X101835063Y-9724142D01*
X101830079Y-9793834D01*
X101788207Y-9849767D01*
X101722743Y-9874184D01*
X101713897Y-9874500D01*
X89057298Y-9874500D01*
X88990259Y-9854815D01*
X88944504Y-9802011D01*
X88934560Y-9732853D01*
X88963585Y-9669297D01*
X88969617Y-9662819D01*
X89089394Y-9543042D01*
X89225980Y-9406456D01*
X89519449Y-9062847D01*
X89785055Y-8697272D01*
X90021160Y-8311984D01*
X90226307Y-7909360D01*
X90399232Y-7491882D01*
X90538869Y-7062123D01*
X90644357Y-6622733D01*
X90715046Y-6176420D01*
X90750500Y-5725938D01*
X90750500Y-5274062D01*
X90715046Y-4823580D01*
X90644357Y-4377267D01*
X90538869Y-3937877D01*
X90399232Y-3508118D01*
X90226307Y-3090640D01*
X90021160Y-2688016D01*
X90021154Y-2688007D01*
X90021152Y-2688002D01*
X90021149Y-2687997D01*
X89785061Y-2302737D01*
X89785057Y-2302732D01*
X89785055Y-2302728D01*
X89519449Y-1937153D01*
X89519444Y-1937147D01*
X89519433Y-1937133D01*
X89225996Y-1593562D01*
X89225987Y-1593552D01*
X89225980Y-1593544D01*
X88906456Y-1274020D01*
X88906448Y-1274013D01*
X88906437Y-1274003D01*
X88562866Y-980566D01*
X88562839Y-980545D01*
X88210861Y-724818D01*
X88168195Y-669488D01*
X88162216Y-599875D01*
X88194822Y-538080D01*
X88255660Y-503723D01*
X88283746Y-500500D01*
X142949138Y-500500D01*
X143016177Y-520185D01*
G37*
%TD.AperFunction*%
%TA.AperFunction,Conductor*%
G36*
X147415323Y-16186056D02*
G01*
X147421947Y-16193702D01*
X147541594Y-16343736D01*
X147541600Y-16343742D01*
X147541601Y-16343743D01*
X147731257Y-16533399D01*
X147940955Y-16700628D01*
X147941965Y-16701263D01*
X147942161Y-16701484D01*
X147943789Y-16702639D01*
X147943519Y-16703019D01*
X147988258Y-16753591D01*
X148000000Y-16806260D01*
X148000000Y-20693739D01*
X147980315Y-20760778D01*
X147943609Y-20797117D01*
X147943630Y-20797147D01*
X147943675Y-20797203D01*
X147943671Y-20797205D01*
X147943785Y-20797365D01*
X147942284Y-20798429D01*
X147941989Y-20798722D01*
X147940964Y-20799366D01*
X147940948Y-20799377D01*
X147731257Y-20966600D01*
X147541600Y-21156257D01*
X147421947Y-21306298D01*
X147364759Y-21346438D01*
X147294947Y-21349288D01*
X147234677Y-21313943D01*
X147228053Y-21306298D01*
X147108399Y-21156257D01*
X146918742Y-20966600D01*
X146769043Y-20847219D01*
X146709045Y-20799372D01*
X146481941Y-20656673D01*
X146481938Y-20656671D01*
X146240289Y-20540299D01*
X145987126Y-20451714D01*
X145987124Y-20451713D01*
X145785318Y-20405652D01*
X145725635Y-20392030D01*
X145725632Y-20392029D01*
X145725620Y-20392027D01*
X145459113Y-20362000D01*
X145459107Y-20362000D01*
X145351329Y-20362000D01*
X145284290Y-20342315D01*
X145238535Y-20289511D01*
X145228591Y-20220353D01*
X145254381Y-20160688D01*
X145256291Y-20158292D01*
X145275628Y-20134045D01*
X145418327Y-19906941D01*
X145534701Y-19665288D01*
X145623286Y-19412125D01*
X145682970Y-19150635D01*
X145685039Y-19132278D01*
X145703256Y-18970589D01*
X145713000Y-18884107D01*
X145713000Y-18615893D01*
X145699854Y-18499219D01*
X145682972Y-18349379D01*
X145682971Y-18349374D01*
X145682970Y-18349365D01*
X145623286Y-18087875D01*
X145534701Y-17834712D01*
X145418327Y-17593059D01*
X145275628Y-17365955D01*
X145254381Y-17339312D01*
X145227973Y-17274625D01*
X145240730Y-17205930D01*
X145288601Y-17155036D01*
X145351329Y-17138000D01*
X145459110Y-17138000D01*
X145459111Y-17137999D01*
X145595317Y-17122652D01*
X145725620Y-17107972D01*
X145725623Y-17107971D01*
X145725635Y-17107970D01*
X145987125Y-17048286D01*
X146240288Y-16959701D01*
X146481941Y-16843327D01*
X146709045Y-16700628D01*
X146918743Y-16533399D01*
X147108399Y-16343743D01*
X147228053Y-16193701D01*
X147285241Y-16153561D01*
X147355053Y-16150711D01*
X147415323Y-16186056D01*
G37*
%TD.AperFunction*%
%TA.AperFunction,Conductor*%
G36*
X81783293Y-520185D02*
G01*
X81829048Y-572989D01*
X81838992Y-642147D01*
X81809967Y-705703D01*
X81789139Y-724818D01*
X81437160Y-980545D01*
X81437133Y-980566D01*
X81093562Y-1274003D01*
X81093536Y-1274027D01*
X80774027Y-1593536D01*
X80774003Y-1593562D01*
X80480566Y-1937133D01*
X80480545Y-1937160D01*
X80214946Y-2302726D01*
X80214938Y-2302737D01*
X79978850Y-2687997D01*
X79978847Y-2688002D01*
X79773692Y-3090642D01*
X79600765Y-3508123D01*
X79461135Y-3937865D01*
X79461128Y-3937888D01*
X79443163Y-4012718D01*
X79356361Y-4374279D01*
X79355642Y-4377272D01*
X79284955Y-4823570D01*
X79284953Y-4823589D01*
X79249500Y-5274056D01*
X79249500Y-5725945D01*
X79260020Y-5859614D01*
X79245655Y-5927991D01*
X79196604Y-5977747D01*
X79128439Y-5993086D01*
X79062802Y-5969137D01*
X79048721Y-5957023D01*
X73803878Y-712181D01*
X73770393Y-650858D01*
X73775377Y-581166D01*
X73817249Y-525233D01*
X73882713Y-500816D01*
X73891559Y-500500D01*
X81716254Y-500500D01*
X81783293Y-520185D01*
G37*
%TD.AperFunction*%
%TD*%
M02*
