M48
; DRILL file KiCad 10.0.3 date 2026-07-17T14:53:46
; FORMAT={-:-/ absolute / metric / decimal}
; #@! TF.CreationDate,2026-07-17T14:53:46-07:00
; #@! TF.GenerationSoftware,Kicad,Pcbnew,10.0.3
; #@! TF.FileFunction,MixedPlating,1,6
FMAT,2
METRIC
; #@! TA.AperFunction,Plated,PTH,ViaDrill
T1C0.300
; #@! TA.AperFunction,Plated,PTH,ComponentDrill
T2C0.710
; #@! TA.AperFunction,Plated,PTH,ComponentDrill
T3C0.950
; #@! TA.AperFunction,Plated,PTH,ComponentDrill
T4C1.000
; #@! TA.AperFunction,Plated,PTH,ComponentDrill
T5C1.300
; #@! TA.AperFunction,Plated,PTH,ComponentDrill
T6C1.850
; #@! TA.AperFunction,Plated,PTH,ComponentDrill
T7C2.000
; #@! TA.AperFunction,Plated,PTH,ComponentDrill
T8C2.300
; #@! TA.AperFunction,Plated,PTH,ComponentDrill
T9C5.300
%
G90
G05
T1
X2.5Y-12.5
X2.5Y-15.0
X2.5Y-17.5
X2.5Y-20.0
X2.5Y-22.5
X2.5Y-25.0
X2.5Y-27.5
X2.5Y-30.0
X2.5Y-32.5
X12.5Y-2.5
X12.5Y-42.5
X15.0Y-2.5
X15.0Y-42.5
X17.5Y-2.5
X17.5Y-42.5
X20.0Y-2.5
X20.0Y-42.5
X22.5Y-2.5
X22.5Y-42.5
X25.0Y-2.5
X25.0Y-42.5
X27.5Y-2.5
X27.5Y-42.5
X30.0Y-2.5
X30.0Y-42.5
X32.5Y-2.5
X32.5Y-42.5
X35.0Y-2.5
X35.0Y-42.5
X37.5Y-2.5
X37.5Y-42.5
X40.0Y-2.5
X40.0Y-42.5
X42.5Y-2.5
X42.5Y-42.5
X45.0Y-2.5
X45.0Y-42.5
X47.5Y-2.5
X47.5Y-42.5
X50.0Y-2.5
X50.0Y-42.5
X77.5Y-2.5
X77.5Y-17.5
X77.5Y-20.0
X77.5Y-22.5
X77.5Y-25.0
X77.5Y-27.5
X77.5Y-42.5
X90.0Y-35.0
X91.5Y-17.5
X91.5Y-20.0
X92.5Y-2.5
X92.5Y-42.5
X93.5Y-18.0
X93.5Y-23.0
X94.5Y-21.0
X94.5Y-24.0
X95.0Y-2.5
X97.5Y-2.5
X98.0Y-37.0
X98.0Y-43.0
X100.0Y-2.5
X102.5Y-2.5
X105.0Y-2.5
X106.0Y-37.0
X106.0Y-43.0
X107.5Y-2.5
X110.0Y-2.5
X112.5Y-2.5
X113.0Y-7.0
X113.0Y-29.0
X114.0Y-37.0
X114.0Y-43.0
X115.0Y-2.5
X117.5Y-2.5
X117.5Y-32.0
X118.0Y-40.0
X119.0Y-11.0
X119.0Y-40.0
X120.0Y-2.5
X120.0Y-40.0
X121.5Y-30.0
X122.5Y-2.5
X123.5Y-33.0
X125.0Y-2.5
X125.5Y-31.0
X127.5Y-2.5
X127.5Y-28.0
X127.5Y-29.5
X127.5Y-30.5
X127.5Y-31.5
X127.5Y-32.5
X129.5Y-33.5
X130.0Y-2.5
X130.04Y-38.72
X130.04Y-42.28
X132.5Y-2.5
X133.0Y-35.0
X133.0Y-41.0
X133.0Y-43.5
X133.5Y-32.5
X135.0Y-2.5
X135.5Y-30.5
X137.5Y-2.5
X138.0Y-31.5
X138.0Y-40.0
X139.5Y-29.5
X140.0Y-2.5
X141.5Y-30.5
X142.5Y-2.5
X143.0Y-40.0
X144.0Y-28.5
X145.0Y-5.0
X147.5Y-7.5
X147.5Y-10.0
X147.5Y-12.5
X148.0Y-31.0
X157.795Y-38.5
X159.16Y-37.5
X160.5Y-37.5
X163.0Y-37.5
X164.0Y-38.5
X168.0Y-38.0
X178.0Y-28.5
X186.0Y-35.0
X189.5Y-34.5
X190.0Y-2.3
X190.0Y-9.2
X190.0Y-28.5
X191.0Y-34.5
X192.0Y-37.0
X195.5Y-27.5
X200.5Y-36.5
X201.0Y-33.425
X203.5Y-36.0
X206.0Y-36.5
X207.5Y-33.5
X208.5Y-32.5
X208.5Y-35.0
X210.0Y-42.5
X210.5Y-29.0
X217.5Y-30.0
X220.0Y-30.0
X220.0Y-42.5
X237.5Y-35.0
X237.5Y-37.5
X237.5Y-40.0
X237.5Y-42.5
X240.0Y-42.5
X242.5Y-42.5
X247.5Y-2.5
X247.5Y-10.0
X247.5Y-42.5
X248.0Y-27.5
X249.0Y-28.5
X250.0Y-20.0
X250.0Y-25.0
X250.0Y-32.5
T2
X178.45Y-14.0
X183.55Y-14.0
T3
X182.75Y-24.63
X182.75Y-27.83
X185.25Y-24.63
X185.25Y-27.83
T4
X53.96Y-2.96
X53.96Y-5.5
X53.96Y-40.46
X53.96Y-43.0
X56.5Y-2.96
X56.5Y-5.5
X56.5Y-40.46
X56.5Y-43.0
X59.04Y-2.96
X59.04Y-5.5
X59.04Y-40.46
X59.04Y-43.0
X81.295Y-20.374
X81.295Y-22.914
X83.835Y-20.374
X83.835Y-22.914
X86.375Y-20.374
X86.375Y-22.914
X88.915Y-20.374
X88.915Y-22.914
X149.0Y-40.0
X149.0Y-42.54
X151.54Y-40.0
X151.54Y-42.54
X154.08Y-40.0
X154.08Y-42.54
X156.62Y-40.0
X156.62Y-42.54
X159.16Y-40.0
X159.16Y-42.54
X161.7Y-40.0
X161.7Y-42.54
X164.24Y-40.0
X164.24Y-42.54
X166.78Y-40.0
X166.78Y-42.54
X169.32Y-40.0
X169.32Y-42.54
X171.86Y-40.0
X171.86Y-42.54
X189.11Y-39.725
X189.11Y-42.265
X191.65Y-39.725
X191.65Y-42.265
X194.19Y-39.725
X194.19Y-42.265
X196.73Y-39.725
X196.73Y-42.265
X199.27Y-39.725
X199.27Y-42.265
X201.81Y-39.725
X201.81Y-42.265
X204.35Y-39.725
X204.35Y-42.265
X206.89Y-39.725
X206.89Y-42.265
X225.225Y-30.2
X225.225Y-42.2
X245.225Y-30.2
X245.225Y-42.2
X254.725Y-13.61
X254.725Y-16.15
X254.725Y-18.69
X254.725Y-21.23
X254.725Y-23.77
X254.725Y-26.31
X254.725Y-28.85
X254.725Y-31.39
X257.265Y-13.61
X257.265Y-16.15
X257.265Y-18.69
X257.265Y-21.23
X257.265Y-23.77
X257.265Y-26.31
X257.265Y-28.85
X257.265Y-31.39
T5
X199.596Y-6.4
X199.596Y-16.56
X199.596Y-21.64
X213.025Y-30.2
X213.025Y-42.2
X227.225Y-36.2
X233.025Y-30.2
X233.025Y-42.2
X245.316Y-3.8
X245.316Y-13.96
X245.316Y-24.12
X247.225Y-36.2
T6
X113.325Y-18.0
X113.325Y-26.0
X115.325Y-22.0
X117.325Y-18.0
X117.325Y-26.0
X119.325Y-22.0
X121.325Y-18.0
X121.325Y-26.0
X123.325Y-22.0
X125.325Y-18.0
X125.325Y-26.0
X127.325Y-22.0
X129.325Y-18.0
X129.325Y-26.0
X131.325Y-22.0
X133.325Y-18.0
X133.325Y-26.0
X135.325Y-22.0
X137.325Y-18.0
X137.325Y-26.0
X139.325Y-22.0
X141.325Y-18.0
X141.325Y-26.0
X143.325Y-22.0
X145.325Y-18.0
X145.325Y-26.0
X147.325Y-22.0
X149.325Y-18.0
X149.325Y-26.0
X151.325Y-22.0
X153.325Y-18.0
X153.325Y-26.0
X155.325Y-22.0
X157.325Y-18.0
X157.325Y-26.0
T7
X102.125Y-29.3
X103.625Y-11.2
X167.025Y-11.2
X168.525Y-29.3
T8
X177.98Y-25.33
X190.02Y-25.33
T9
X5.5Y-5.5
X5.5Y-39.5
X85.0Y-5.5
X85.0Y-39.5
X180.0Y-5.5
X180.0Y-39.5
X254.5Y-5.5
X254.5Y-39.5
M30
