%TF.GenerationSoftware,KiCad,Pcbnew,10.0.3*%
%TF.CreationDate,2026-07-17T00:02:40-07:00*%
%TF.ProjectId,IOBoard,494f426f-6172-4642-9e6b-696361645f70,rev?*%
%TF.SameCoordinates,Original*%
%TF.FileFunction,AssemblyDrawing,Bot*%
%FSLAX46Y46*%
G04 Gerber Fmt 4.6, Leading zero omitted, Abs format (unit mm)*
G04 Created by KiCad (PCBNEW 10.0.3) date 2026-07-17 00:02:40*
%MOMM*%
%LPD*%
G01*
G04 APERTURE LIST*
%ADD10C,0.150000*%
%ADD11C,0.120000*%
%ADD12C,0.100000*%
G04 APERTURE END LIST*
D10*
X249554819Y-18252380D02*
X249554819Y-17680952D01*
X249554819Y-17966666D02*
X248554819Y-17966666D01*
X248554819Y-17966666D02*
X248697676Y-17871428D01*
X248697676Y-17871428D02*
X248792914Y-17776190D01*
X248792914Y-17776190D02*
X248840533Y-17680952D01*
X248554819Y-18871428D02*
X248554819Y-18966666D01*
X248554819Y-18966666D02*
X248602438Y-19061904D01*
X248602438Y-19061904D02*
X248650057Y-19109523D01*
X248650057Y-19109523D02*
X248745295Y-19157142D01*
X248745295Y-19157142D02*
X248935771Y-19204761D01*
X248935771Y-19204761D02*
X249173866Y-19204761D01*
X249173866Y-19204761D02*
X249364342Y-19157142D01*
X249364342Y-19157142D02*
X249459580Y-19109523D01*
X249459580Y-19109523D02*
X249507200Y-19061904D01*
X249507200Y-19061904D02*
X249554819Y-18966666D01*
X249554819Y-18966666D02*
X249554819Y-18871428D01*
X249554819Y-18871428D02*
X249507200Y-18776190D01*
X249507200Y-18776190D02*
X249459580Y-18728571D01*
X249459580Y-18728571D02*
X249364342Y-18680952D01*
X249364342Y-18680952D02*
X249173866Y-18633333D01*
X249173866Y-18633333D02*
X248935771Y-18633333D01*
X248935771Y-18633333D02*
X248745295Y-18680952D01*
X248745295Y-18680952D02*
X248650057Y-18728571D01*
X248650057Y-18728571D02*
X248602438Y-18776190D01*
X248602438Y-18776190D02*
X248554819Y-18871428D01*
X248554819Y-19823809D02*
X248554819Y-19919047D01*
X248554819Y-19919047D02*
X248602438Y-20014285D01*
X248602438Y-20014285D02*
X248650057Y-20061904D01*
X248650057Y-20061904D02*
X248745295Y-20109523D01*
X248745295Y-20109523D02*
X248935771Y-20157142D01*
X248935771Y-20157142D02*
X249173866Y-20157142D01*
X249173866Y-20157142D02*
X249364342Y-20109523D01*
X249364342Y-20109523D02*
X249459580Y-20061904D01*
X249459580Y-20061904D02*
X249507200Y-20014285D01*
X249507200Y-20014285D02*
X249554819Y-19919047D01*
X249554819Y-19919047D02*
X249554819Y-19823809D01*
X249554819Y-19823809D02*
X249507200Y-19728571D01*
X249507200Y-19728571D02*
X249459580Y-19680952D01*
X249459580Y-19680952D02*
X249364342Y-19633333D01*
X249364342Y-19633333D02*
X249173866Y-19585714D01*
X249173866Y-19585714D02*
X248935771Y-19585714D01*
X248935771Y-19585714D02*
X248745295Y-19633333D01*
X248745295Y-19633333D02*
X248650057Y-19680952D01*
X248650057Y-19680952D02*
X248602438Y-19728571D01*
X248602438Y-19728571D02*
X248554819Y-19823809D01*
X248888152Y-20585714D02*
X249554819Y-20585714D01*
X248983390Y-20585714D02*
X248935771Y-20633333D01*
X248935771Y-20633333D02*
X248888152Y-20728571D01*
X248888152Y-20728571D02*
X248888152Y-20871428D01*
X248888152Y-20871428D02*
X248935771Y-20966666D01*
X248935771Y-20966666D02*
X249031009Y-21014285D01*
X249031009Y-21014285D02*
X249554819Y-21014285D01*
X249031009Y-21823809D02*
X249031009Y-21490476D01*
X249554819Y-21490476D02*
X248554819Y-21490476D01*
X248554819Y-21490476D02*
X248554819Y-21966666D01*
D11*
X247087664Y-18904762D02*
X247125760Y-18866666D01*
X247125760Y-18866666D02*
X247163855Y-18752381D01*
X247163855Y-18752381D02*
X247163855Y-18676190D01*
X247163855Y-18676190D02*
X247125760Y-18561904D01*
X247125760Y-18561904D02*
X247049569Y-18485714D01*
X247049569Y-18485714D02*
X246973379Y-18447619D01*
X246973379Y-18447619D02*
X246820998Y-18409523D01*
X246820998Y-18409523D02*
X246706712Y-18409523D01*
X246706712Y-18409523D02*
X246554331Y-18447619D01*
X246554331Y-18447619D02*
X246478140Y-18485714D01*
X246478140Y-18485714D02*
X246401950Y-18561904D01*
X246401950Y-18561904D02*
X246363855Y-18676190D01*
X246363855Y-18676190D02*
X246363855Y-18752381D01*
X246363855Y-18752381D02*
X246401950Y-18866666D01*
X246401950Y-18866666D02*
X246440045Y-18904762D01*
X247163855Y-19666666D02*
X247163855Y-19209523D01*
X247163855Y-19438095D02*
X246363855Y-19438095D01*
X246363855Y-19438095D02*
X246478140Y-19361904D01*
X246478140Y-19361904D02*
X246554331Y-19285714D01*
X246554331Y-19285714D02*
X246592426Y-19209523D01*
X246706712Y-20123809D02*
X246668617Y-20047619D01*
X246668617Y-20047619D02*
X246630521Y-20009524D01*
X246630521Y-20009524D02*
X246554331Y-19971428D01*
X246554331Y-19971428D02*
X246516236Y-19971428D01*
X246516236Y-19971428D02*
X246440045Y-20009524D01*
X246440045Y-20009524D02*
X246401950Y-20047619D01*
X246401950Y-20047619D02*
X246363855Y-20123809D01*
X246363855Y-20123809D02*
X246363855Y-20276190D01*
X246363855Y-20276190D02*
X246401950Y-20352381D01*
X246401950Y-20352381D02*
X246440045Y-20390476D01*
X246440045Y-20390476D02*
X246516236Y-20428571D01*
X246516236Y-20428571D02*
X246554331Y-20428571D01*
X246554331Y-20428571D02*
X246630521Y-20390476D01*
X246630521Y-20390476D02*
X246668617Y-20352381D01*
X246668617Y-20352381D02*
X246706712Y-20276190D01*
X246706712Y-20276190D02*
X246706712Y-20123809D01*
X246706712Y-20123809D02*
X246744807Y-20047619D01*
X246744807Y-20047619D02*
X246782902Y-20009524D01*
X246782902Y-20009524D02*
X246859093Y-19971428D01*
X246859093Y-19971428D02*
X247011474Y-19971428D01*
X247011474Y-19971428D02*
X247087664Y-20009524D01*
X247087664Y-20009524D02*
X247125760Y-20047619D01*
X247125760Y-20047619D02*
X247163855Y-20123809D01*
X247163855Y-20123809D02*
X247163855Y-20276190D01*
X247163855Y-20276190D02*
X247125760Y-20352381D01*
X247125760Y-20352381D02*
X247087664Y-20390476D01*
X247087664Y-20390476D02*
X247011474Y-20428571D01*
X247011474Y-20428571D02*
X246859093Y-20428571D01*
X246859093Y-20428571D02*
X246782902Y-20390476D01*
X246782902Y-20390476D02*
X246744807Y-20352381D01*
X246744807Y-20352381D02*
X246706712Y-20276190D01*
X247163855Y-20809524D02*
X247163855Y-20961905D01*
X247163855Y-20961905D02*
X247125760Y-21038095D01*
X247125760Y-21038095D02*
X247087664Y-21076191D01*
X247087664Y-21076191D02*
X246973379Y-21152381D01*
X246973379Y-21152381D02*
X246820998Y-21190476D01*
X246820998Y-21190476D02*
X246516236Y-21190476D01*
X246516236Y-21190476D02*
X246440045Y-21152381D01*
X246440045Y-21152381D02*
X246401950Y-21114286D01*
X246401950Y-21114286D02*
X246363855Y-21038095D01*
X246363855Y-21038095D02*
X246363855Y-20885714D01*
X246363855Y-20885714D02*
X246401950Y-20809524D01*
X246401950Y-20809524D02*
X246440045Y-20771429D01*
X246440045Y-20771429D02*
X246516236Y-20733333D01*
X246516236Y-20733333D02*
X246706712Y-20733333D01*
X246706712Y-20733333D02*
X246782902Y-20771429D01*
X246782902Y-20771429D02*
X246820998Y-20809524D01*
X246820998Y-20809524D02*
X246859093Y-20885714D01*
X246859093Y-20885714D02*
X246859093Y-21038095D01*
X246859093Y-21038095D02*
X246820998Y-21114286D01*
X246820998Y-21114286D02*
X246782902Y-21152381D01*
X246782902Y-21152381D02*
X246706712Y-21190476D01*
%TO.C,C189*%
D12*
X245550000Y-18200000D02*
X248050000Y-18200000D01*
X248050000Y-21400000D01*
X245550000Y-21400000D01*
X245550000Y-18200000D01*
%TO.C,D4*%
X187050000Y-1775000D02*
X187050000Y-9725000D01*
X187050000Y-9725000D02*
X192950000Y-9725000D01*
X188175000Y-1775000D02*
X187050000Y-2900000D01*
X192950000Y-1775000D02*
X187050000Y-1775000D01*
X192950000Y-9725000D02*
X192950000Y-1775000D01*
%TD*%
M02*
