ISO-10303-21;
HEADER;
FILE_DESCRIPTION(('FreeCAD Model'),'2;1');
FILE_NAME('HW-C2-DCLMH-200-PRINTED-A.step','2026-08-10T00:00:00',(''),(''),'Open CASCADE STEP processor 7.8','FreeCAD','Unknown');
FILE_SCHEMA(('AUTOMOTIVE_DESIGN { 1 0 10303 214 1 1 1 1 }'));
ENDSEC;
DATA;
#1 = APPLICATION_PROTOCOL_DEFINITION('international standard','automotive_design',2000,#2);
#2 = APPLICATION_CONTEXT('core data for automotive mechanical design processes');
#3 = SHAPE_DEFINITION_REPRESENTATION(#4,#10);
#4 = PRODUCT_DEFINITION_SHAPE('','',#5);
#5 = PRODUCT_DEFINITION('design','',#6,#9);
#6 = PRODUCT_DEFINITION_FORMATION('','',#7);
#7 = PRODUCT('HW-C2-DCLMH-200-PRINTED-A','HW-C2-DCLMH-200-PRINTED-A','',(#8));
#8 = PRODUCT_CONTEXT('',#2,'mechanical');
#9 = PRODUCT_DEFINITION_CONTEXT('part definition',#2,'design');
#10 = ADVANCED_BREP_SHAPE_REPRESENTATION('',(#11,#20),#15);
#11 = AXIS2_PLACEMENT_3D('',#12,#13,#14);
#12 = CARTESIAN_POINT('',(0.,0.,0.));
#13 = DIRECTION('',(0.,0.,1.));
#14 = DIRECTION('',(1.,0.,0.));
#15 = ( GEOMETRIC_REPRESENTATION_CONTEXT(3) GLOBAL_UNCERTAINTY_ASSIGNED_CONTEXT((#16)) GLOBAL_UNIT_ASSIGNED_CONTEXT((#17,#18,#19)) REPRESENTATION_CONTEXT('Context #1','3D Context with UNIT and UNCERTAINTY') );
#16 = UNCERTAINTY_MEASURE_WITH_UNIT(LENGTH_MEASURE(1.E-07),#17,'distance_accuracy_value','CONFUSED CURVE UNCERTAINTY');
#17 = ( LENGTH_UNIT() NAMED_UNIT(*) SI_UNIT(.MILLI.,.METRE.) );
#18 = ( NAMED_UNIT(*) PLANE_ANGLE_UNIT() SI_UNIT($,.RADIAN.) );
#19 = ( NAMED_UNIT(*) SI_UNIT($,.STERADIAN.) SOLID_ANGLE_UNIT() );
#20 = MANIFOLD_SOLID_BREP('',#21);
#21 = CLOSED_SHELL('',(#109,#121,#133,#145,#157,#169));
#22 = CARTESIAN_POINT('',(0.0,0.0,0.0));
#23 = VERTEX_POINT('',#22);
#24 = CARTESIAN_POINT('',(152.4,0.0,0.0));
#25 = VERTEX_POINT('',#24);
#26 = CARTESIAN_POINT('',(152.4,76.2,0.0));
#27 = VERTEX_POINT('',#26);
#28 = CARTESIAN_POINT('',(0.0,76.2,0.0));
#29 = VERTEX_POINT('',#28);
#30 = CARTESIAN_POINT('',(0.0,0.0,8.175));
#31 = VERTEX_POINT('',#30);
#32 = CARTESIAN_POINT('',(152.4,0.0,8.175));
#33 = VERTEX_POINT('',#32);
#34 = CARTESIAN_POINT('',(152.4,76.2,8.175));
#35 = VERTEX_POINT('',#34);
#36 = CARTESIAN_POINT('',(0.0,76.2,8.175));
#37 = VERTEX_POINT('',#36);
#38 = CARTESIAN_POINT('',(0.0,0.0,0.0));
#39 = DIRECTION('',(152.4,0.0,0.0));
#40 = VECTOR('',#39,1.);
#41 = LINE('',#38,#40);
#42 = EDGE_CURVE('',#23,#25,#41,.T.);
#43 = CARTESIAN_POINT('',(152.4,0.0,0.0));
#44 = DIRECTION('',(0.0,76.2,0.0));
#45 = VECTOR('',#44,1.);
#46 = LINE('',#43,#45);
#47 = EDGE_CURVE('',#25,#27,#46,.T.);
#48 = CARTESIAN_POINT('',(152.4,76.2,0.0));
#49 = DIRECTION('',(-152.4,0.0,0.0));
#50 = VECTOR('',#49,1.);
#51 = LINE('',#48,#50);
#52 = EDGE_CURVE('',#27,#29,#51,.T.);
#53 = CARTESIAN_POINT('',(0.0,76.2,0.0));
#54 = DIRECTION('',(0.0,-76.2,0.0));
#55 = VECTOR('',#54,1.);
#56 = LINE('',#53,#55);
#57 = EDGE_CURVE('',#29,#23,#56,.T.);
#58 = CARTESIAN_POINT('',(0.0,0.0,8.175));
#59 = DIRECTION('',(152.4,0.0,0.0));
#60 = VECTOR('',#59,1.);
#61 = LINE('',#58,#60);
#62 = EDGE_CURVE('',#31,#33,#61,.T.);
#63 = CARTESIAN_POINT('',(152.4,0.0,8.175));
#64 = DIRECTION('',(0.0,76.2,0.0));
#65 = VECTOR('',#64,1.);
#66 = LINE('',#63,#65);
#67 = EDGE_CURVE('',#33,#35,#66,.T.);
#68 = CARTESIAN_POINT('',(152.4,76.2,8.175));
#69 = DIRECTION('',(-152.4,0.0,0.0));
#70 = VECTOR('',#69,1.);
#71 = LINE('',#68,#70);
#72 = EDGE_CURVE('',#35,#37,#71,.T.);
#73 = CARTESIAN_POINT('',(0.0,76.2,8.175));
#74 = DIRECTION('',(0.0,-76.2,0.0));
#75 = VECTOR('',#74,1.);
#76 = LINE('',#73,#75);
#77 = EDGE_CURVE('',#37,#31,#76,.T.);
#78 = CARTESIAN_POINT('',(0.0,0.0,0.0));
#79 = DIRECTION('',(0.0,0.0,8.175));
#80 = VECTOR('',#79,1.);
#81 = LINE('',#78,#80);
#82 = EDGE_CURVE('',#23,#31,#81,.T.);
#83 = CARTESIAN_POINT('',(152.4,0.0,0.0));
#84 = DIRECTION('',(0.0,0.0,8.175));
#85 = VECTOR('',#84,1.);
#86 = LINE('',#83,#85);
#87 = EDGE_CURVE('',#25,#33,#86,.T.);
#88 = CARTESIAN_POINT('',(152.4,76.2,0.0));
#89 = DIRECTION('',(0.0,0.0,8.175));
#90 = VECTOR('',#89,1.);
#91 = LINE('',#88,#90);
#92 = EDGE_CURVE('',#27,#35,#91,.T.);
#93 = CARTESIAN_POINT('',(0.0,76.2,0.0));
#94 = DIRECTION('',(0.0,0.0,8.175));
#95 = VECTOR('',#94,1.);
#96 = LINE('',#93,#95);
#97 = EDGE_CURVE('',#29,#37,#96,.T.);
#98 = ORIENTED_EDGE('',*,*,#42,.T.);
#99 = ORIENTED_EDGE('',*,*,#47,.T.);
#100 = ORIENTED_EDGE('',*,*,#52,.T.);
#101 = ORIENTED_EDGE('',*,*,#57,.T.);
#102 = EDGE_LOOP('',(#98,#99,#100,#101));
#103 = FACE_BOUND('',#102,.T.);
#104 = CARTESIAN_POINT('',(0.0,0.0,0.0));
#105 = DIRECTION('',(0.0,0.0,-1.0));
#106 = DIRECTION('',(1.0,0.0,0.0));
#107 = AXIS2_PLACEMENT_3D('',#104,#105,#106);
#108 = PLANE('',#107);
#109 = ADVANCED_FACE('',(#103),#108,.T.);
#110 = ORIENTED_EDGE('',*,*,#62,.T.);
#111 = ORIENTED_EDGE('',*,*,#67,.T.);
#112 = ORIENTED_EDGE('',*,*,#72,.T.);
#113 = ORIENTED_EDGE('',*,*,#77,.T.);
#114 = EDGE_LOOP('',(#110,#111,#112,#113));
#115 = FACE_BOUND('',#114,.T.);
#116 = CARTESIAN_POINT('',(0.0,0.0,8.175));
#117 = DIRECTION('',(0.0,0.0,1.0));
#118 = DIRECTION('',(1.0,0.0,0.0));
#119 = AXIS2_PLACEMENT_3D('',#116,#117,#118);
#120 = PLANE('',#119);
#121 = ADVANCED_FACE('',(#115),#120,.T.);
#122 = ORIENTED_EDGE('',*,*,#42,.T.);
#123 = ORIENTED_EDGE('',*,*,#87,.T.);
#124 = ORIENTED_EDGE('',*,*,#67,.F.);
#125 = ORIENTED_EDGE('',*,*,#82,.F.);
#126 = EDGE_LOOP('',(#122,#123,#124,#125));
#127 = FACE_BOUND('',#126,.T.);
#128 = CARTESIAN_POINT('',(0.0,0.0,0.0));
#129 = DIRECTION('',(0.0,-1.0,0.0));
#130 = DIRECTION('',(1.0,0.0,0.0));
#131 = AXIS2_PLACEMENT_3D('',#128,#129,#130);
#132 = PLANE('',#131);
#133 = ADVANCED_FACE('',(#127),#132,.T.);
#134 = ORIENTED_EDGE('',*,*,#52,.F.);
#135 = ORIENTED_EDGE('',*,*,#97,.T.);
#136 = ORIENTED_EDGE('',*,*,#72,.T.);
#137 = ORIENTED_EDGE('',*,*,#77,.T.);
#138 = EDGE_LOOP('',(#134,#135,#136,#137));
#139 = FACE_BOUND('',#138,.T.);
#140 = CARTESIAN_POINT('',(0.0,76.2,0.0));
#141 = DIRECTION('',(0.0,1.0,0.0));
#142 = DIRECTION('',(-1.0,0.0,0.0));
#143 = AXIS2_PLACEMENT_3D('',#140,#141,#142);
#144 = PLANE('',#143);
#145 = ADVANCED_FACE('',(#139),#144,.T.);
#146 = ORIENTED_EDGE('',*,*,#57,.F.);
#147 = ORIENTED_EDGE('',*,*,#97,.T.);
#148 = ORIENTED_EDGE('',*,*,#77,.T.);
#149 = ORIENTED_EDGE('',*,*,#82,.F.);
#150 = EDGE_LOOP('',(#146,#147,#148,#149));
#151 = FACE_BOUND('',#150,.T.);
#152 = CARTESIAN_POINT('',(0.0,0.0,0.0));
#153 = DIRECTION('',(-1.0,0.0,0.0));
#154 = DIRECTION('',(0.0,1.0,0.0));
#155 = AXIS2_PLACEMENT_3D('',#152,#153,#154);
#156 = PLANE('',#155);
#157 = ADVANCED_FACE('',(#151),#156,.T.);
#158 = ORIENTED_EDGE('',*,*,#47,.T.);
#159 = ORIENTED_EDGE('',*,*,#92,.T.);
#160 = ORIENTED_EDGE('',*,*,#72,.T.);
#161 = ORIENTED_EDGE('',*,*,#97,.F.);
#162 = EDGE_LOOP('',(#158,#159,#160,#161));
#163 = FACE_BOUND('',#162,.T.);
#164 = CARTESIAN_POINT('',(152.4,0.0,0.0));
#165 = DIRECTION('',(1.0,0.0,0.0));
#166 = DIRECTION('',(0.0,-1.0,0.0));
#167 = AXIS2_PLACEMENT_3D('',#164,#165,#166);
#168 = PLANE('',#167);
#169 = ADVANCED_FACE('',(#163),#168,.T.);
ENDSEC;
END-ISO-10303-21;
