ISO-10303-21;
HEADER;
/* Generated by software containing ST-Developer
 * from STEP Tools, Inc. (www.steptools.com) 
 */

FILE_DESCRIPTION(
/* description */ (''),
/* implementation_level */ '2;1');

FILE_NAME(
/* name */ '180-20-6C.stp',
/* time_stamp */ '2026-03-26T11:37:53+02:00',
/* author */ ('Ryzen 5'),
/* organization */ (''),
/* preprocessor_version */ 'ST-DEVELOPER v20',
/* originating_system */ 'Autodesk Inventor 2025',
/* authorisation */ '');

FILE_SCHEMA (('AUTOMOTIVE_DESIGN { 1 0 10303 214 3 1 1 }'));
ENDSEC;

DATA;
#10=MECHANICAL_DESIGN_GEOMETRIC_PRESENTATION_REPRESENTATION('',(#549,#550,
#551,#552,#553,#554,#555,#556,#557,#558,#559,#560,#561,#562,#563,#564,#565,
#566,#567,#568,#569,#570,#571,#572,#573,#574,#575,#576,#577,#578,#579,#580,
#581,#582,#583,#584,#585,#586,#587,#588),#1118);
#11=SHAPE_REPRESENTATION_RELATIONSHIP('SRR','None',#1129,#12);
#12=ADVANCED_BREP_SHAPE_REPRESENTATION('',(#13),#1117);
#13=MANIFOLD_SOLID_BREP('Solid1',#628);
#14=TOROIDAL_SURFACE('',#730,0.687500000000001,0.1875);
#15=TOROIDAL_SURFACE('',#732,0.6875,0.1875);
#16=TOROIDAL_SURFACE('',#734,0.687500000000001,0.1875);
#17=FACE_BOUND('',#179,.T.);
#18=FACE_BOUND('',#180,.T.);
#19=FACE_BOUND('',#181,.T.);
#20=FACE_BOUND('',#182,.T.);
#21=FACE_BOUND('',#185,.T.);
#22=FACE_BOUND('',#186,.T.);
#23=FACE_BOUND('',#187,.T.);
#24=FACE_BOUND('',#188,.T.);
#25=PLANE('',#694);
#26=PLANE('',#695);
#27=PLANE('',#696);
#28=PLANE('',#701);
#29=PLANE('',#702);
#30=PLANE('',#707);
#31=PLANE('',#736);
#32=PLANE('',#737);
#33=LINE('',#964,#65);
#34=LINE('',#965,#66);
#35=LINE('',#988,#67);
#36=LINE('',#989,#68);
#37=LINE('',#991,#69);
#38=LINE('',#992,#70);
#39=LINE('',#1001,#71);
#40=LINE('',#1002,#72);
#41=LINE('',#1018,#73);
#42=LINE('',#1019,#74);
#43=LINE('',#1021,#75);
#44=LINE('',#1022,#76);
#45=LINE('',#1024,#77);
#46=LINE('',#1025,#78);
#47=LINE('',#1027,#79);
#48=LINE('',#1028,#80);
#49=LINE('',#1030,#81);
#50=LINE('',#1031,#82);
#51=LINE('',#1033,#83);
#52=LINE('',#1034,#84);
#53=LINE('',#1036,#85);
#54=LINE('',#1037,#86);
#55=LINE('',#1039,#87);
#56=LINE('',#1040,#88);
#57=LINE('',#1065,#89);
#58=LINE('',#1072,#90);
#59=LINE('',#1077,#91);
#60=LINE('',#1081,#92);
#61=LINE('',#1087,#93);
#62=LINE('',#1096,#94);
#63=LINE('',#1101,#95);
#64=LINE('',#1105,#96);
#65=VECTOR('',#758,0.393700787401575);
#66=VECTOR('',#759,0.393700787401575);
#67=VECTOR('',#786,0.393700787401575);
#68=VECTOR('',#787,0.393700787401575);
#69=VECTOR('',#790,0.393700787401575);
#70=VECTOR('',#791,0.393700787401575);
#71=VECTOR('',#802,0.393700787401575);
#72=VECTOR('',#803,0.393700787401575);
#73=VECTOR('',#822,0.393700787401575);
#74=VECTOR('',#823,0.393700787401575);
#75=VECTOR('',#826,0.393700787401575);
#76=VECTOR('',#827,0.393700787401575);
#77=VECTOR('',#830,0.393700787401575);
#78=VECTOR('',#831,0.393700787401575);
#79=VECTOR('',#834,0.393700787401575);
#80=VECTOR('',#835,0.393700787401575);
#81=VECTOR('',#838,0.393700787401575);
#82=VECTOR('',#839,0.393700787401575);
#83=VECTOR('',#842,0.393700787401575);
#84=VECTOR('',#843,0.393700787401575);
#85=VECTOR('',#846,0.393700787401575);
#86=VECTOR('',#847,0.393700787401575);
#87=VECTOR('',#850,0.393700787401575);
#88=VECTOR('',#851,0.393700787401575);
#89=VECTOR('',#882,0.1875);
#90=VECTOR('',#891,0.1875);
#91=VECTOR('',#896,0.1875);
#92=VECTOR('',#901,0.1875);
#93=VECTOR('',#908,0.1875);
#94=VECTOR('',#919,0.1875);
#95=VECTOR('',#924,0.1875);
#96=VECTOR('',#929,0.1875);
#97=CYLINDRICAL_SURFACE('',#658,0.1);
#98=CYLINDRICAL_SURFACE('',#671,0.1);
#99=CYLINDRICAL_SURFACE('',#672,0.1);
#100=CYLINDRICAL_SURFACE('',#677,0.1);
#101=CYLINDRICAL_SURFACE('',#686,0.1);
#102=CYLINDRICAL_SURFACE('',#687,0.1);
#103=CYLINDRICAL_SURFACE('',#688,0.1);
#104=CYLINDRICAL_SURFACE('',#689,0.1);
#105=CYLINDRICAL_SURFACE('',#690,0.1);
#106=CYLINDRICAL_SURFACE('',#691,0.1);
#107=CYLINDRICAL_SURFACE('',#692,0.1);
#108=CYLINDRICAL_SURFACE('',#693,0.1);
#109=CYLINDRICAL_SURFACE('',#708,0.1875);
#110=CYLINDRICAL_SURFACE('',#711,0.1875);
#111=CYLINDRICAL_SURFACE('',#713,0.1875);
#112=CYLINDRICAL_SURFACE('',#716,0.1875);
#113=CYLINDRICAL_SURFACE('',#719,0.1875);
#114=CYLINDRICAL_SURFACE('',#722,0.1875);
#115=CYLINDRICAL_SURFACE('',#725,0.1875);
#116=CYLINDRICAL_SURFACE('',#728,0.1875);
#117=FACE_OUTER_BOUND('',#156,.T.);
#118=FACE_OUTER_BOUND('',#157,.T.);
#119=FACE_OUTER_BOUND('',#158,.T.);
#120=FACE_OUTER_BOUND('',#159,.T.);
#121=FACE_OUTER_BOUND('',#160,.T.);
#122=FACE_OUTER_BOUND('',#161,.T.);
#123=FACE_OUTER_BOUND('',#162,.T.);
#124=FACE_OUTER_BOUND('',#163,.T.);
#125=FACE_OUTER_BOUND('',#164,.T.);
#126=FACE_OUTER_BOUND('',#165,.T.);
#127=FACE_OUTER_BOUND('',#166,.T.);
#128=FACE_OUTER_BOUND('',#167,.T.);
#129=FACE_OUTER_BOUND('',#168,.T.);
#130=FACE_OUTER_BOUND('',#169,.T.);
#131=FACE_OUTER_BOUND('',#170,.T.);
#132=FACE_OUTER_BOUND('',#171,.T.);
#133=FACE_OUTER_BOUND('',#172,.T.);
#134=FACE_OUTER_BOUND('',#173,.T.);
#135=FACE_OUTER_BOUND('',#174,.T.);
#136=FACE_OUTER_BOUND('',#175,.T.);
#137=FACE_OUTER_BOUND('',#176,.T.);
#138=FACE_OUTER_BOUND('',#177,.T.);
#139=FACE_OUTER_BOUND('',#178,.T.);
#140=FACE_OUTER_BOUND('',#183,.T.);
#141=FACE_OUTER_BOUND('',#184,.T.);
#142=FACE_OUTER_BOUND('',#189,.T.);
#143=FACE_OUTER_BOUND('',#190,.T.);
#144=FACE_OUTER_BOUND('',#191,.T.);
#145=FACE_OUTER_BOUND('',#192,.T.);
#146=FACE_OUTER_BOUND('',#193,.T.);
#147=FACE_OUTER_BOUND('',#194,.T.);
#148=FACE_OUTER_BOUND('',#195,.T.);
#149=FACE_OUTER_BOUND('',#196,.T.);
#150=FACE_OUTER_BOUND('',#197,.T.);
#151=FACE_OUTER_BOUND('',#198,.T.);
#152=FACE_OUTER_BOUND('',#199,.T.);
#153=FACE_OUTER_BOUND('',#200,.T.);
#154=FACE_OUTER_BOUND('',#201,.T.);
#155=FACE_OUTER_BOUND('',#202,.T.);
#156=EDGE_LOOP('',(#379,#380,#381));
#157=EDGE_LOOP('',(#382,#383,#384));
#158=EDGE_LOOP('',(#385,#386,#387,#388));
#159=EDGE_LOOP('',(#389,#390,#391));
#160=EDGE_LOOP('',(#392,#393,#394));
#161=EDGE_LOOP('',(#395,#396,#397));
#162=EDGE_LOOP('',(#398,#399,#400,#401));
#163=EDGE_LOOP('',(#402,#403,#404,#405));
#164=EDGE_LOOP('',(#406,#407,#408));
#165=EDGE_LOOP('',(#409,#410,#411,#412));
#166=EDGE_LOOP('',(#413,#414,#415));
#167=EDGE_LOOP('',(#416,#417,#418));
#168=EDGE_LOOP('',(#419,#420,#421,#422));
#169=EDGE_LOOP('',(#423,#424,#425,#426));
#170=EDGE_LOOP('',(#427,#428,#429,#430));
#171=EDGE_LOOP('',(#431,#432,#433,#434));
#172=EDGE_LOOP('',(#435,#436,#437,#438));
#173=EDGE_LOOP('',(#439,#440,#441,#442));
#174=EDGE_LOOP('',(#443,#444,#445,#446));
#175=EDGE_LOOP('',(#447,#448,#449,#450));
#176=EDGE_LOOP('',(#451,#452,#453,#454));
#177=EDGE_LOOP('',(#455,#456,#457,#458));
#178=EDGE_LOOP('',(#459,#460,#461,#462));
#179=EDGE_LOOP('',(#463));
#180=EDGE_LOOP('',(#464));
#181=EDGE_LOOP('',(#465));
#182=EDGE_LOOP('',(#466));
#183=EDGE_LOOP('',(#467,#468,#469,#470));
#184=EDGE_LOOP('',(#471,#472,#473,#474));
#185=EDGE_LOOP('',(#475));
#186=EDGE_LOOP('',(#476));
#187=EDGE_LOOP('',(#477));
#188=EDGE_LOOP('',(#478));
#189=EDGE_LOOP('',(#479,#480,#481,#482));
#190=EDGE_LOOP('',(#483,#484,#485,#486,#487));
#191=EDGE_LOOP('',(#488,#489,#490,#491));
#192=EDGE_LOOP('',(#492,#493,#494,#495,#496));
#193=EDGE_LOOP('',(#497,#498,#499,#500,#501));
#194=EDGE_LOOP('',(#502,#503,#504,#505,#506));
#195=EDGE_LOOP('',(#507,#508,#509,#510,#511));
#196=EDGE_LOOP('',(#512,#513,#514,#515,#516));
#197=EDGE_LOOP('',(#517,#518,#519,#520));
#198=EDGE_LOOP('',(#521,#522,#523,#524,#525,#526));
#199=EDGE_LOOP('',(#527,#528,#529,#530,#531,#532));
#200=EDGE_LOOP('',(#533,#534,#535,#536,#537,#538));
#201=EDGE_LOOP('',(#539));
#202=EDGE_LOOP('',(#540));
#203=CIRCLE('',#651,0.0999999999999998);
#204=CIRCLE('',#652,0.0999999999999998);
#205=CIRCLE('',#653,0.1);
#206=CIRCLE('',#655,0.0999999999999998);
#207=CIRCLE('',#656,0.0999999999999998);
#208=CIRCLE('',#657,0.1);
#209=CIRCLE('',#660,0.0999999999999998);
#210=CIRCLE('',#661,0.0999999999999998);
#211=CIRCLE('',#662,0.1);
#212=CIRCLE('',#664,0.0999999999999998);
#213=CIRCLE('',#665,0.0999999999999998);
#214=CIRCLE('',#666,0.1);
#215=CIRCLE('',#668,0.0999999999999998);
#216=CIRCLE('',#669,0.0999999999999998);
#217=CIRCLE('',#670,0.1);
#218=CIRCLE('',#674,0.0999999999999998);
#219=CIRCLE('',#675,0.0999999999999998);
#220=CIRCLE('',#676,0.1);
#221=CIRCLE('',#679,0.0999999999999998);
#222=CIRCLE('',#680,0.0999999999999998);
#223=CIRCLE('',#681,0.1);
#224=CIRCLE('',#683,0.0999999999999998);
#225=CIRCLE('',#684,0.1);
#226=CIRCLE('',#685,0.1);
#227=CIRCLE('',#697,0.1875);
#228=CIRCLE('',#698,0.1875);
#229=CIRCLE('',#699,0.1875);
#230=CIRCLE('',#700,0.1875);
#231=CIRCLE('',#703,0.1875);
#232=CIRCLE('',#704,0.1875);
#233=CIRCLE('',#705,0.1875);
#234=CIRCLE('',#706,0.1875);
#235=CIRCLE('',#709,0.1875);
#236=CIRCLE('',#710,0.1875);
#237=CIRCLE('',#712,0.1875);
#238=CIRCLE('',#714,0.1875);
#239=CIRCLE('',#715,0.1875);
#240=CIRCLE('',#717,0.1875);
#241=CIRCLE('',#718,0.1875);
#242=CIRCLE('',#720,0.1875);
#243=CIRCLE('',#721,0.1875);
#244=CIRCLE('',#723,0.1875);
#245=CIRCLE('',#724,0.1875);
#246=CIRCLE('',#726,0.1875);
#247=CIRCLE('',#727,0.1875);
#248=CIRCLE('',#729,0.1875);
#249=CIRCLE('',#731,0.5);
#250=CIRCLE('',#733,0.5);
#251=CIRCLE('',#735,0.5);
#252=VERTEX_POINT('',#950);
#253=VERTEX_POINT('',#951);
#254=VERTEX_POINT('',#953);
#255=VERTEX_POINT('',#957);
#256=VERTEX_POINT('',#958);
#257=VERTEX_POINT('',#960);
#258=VERTEX_POINT('',#967);
#259=VERTEX_POINT('',#968);
#260=VERTEX_POINT('',#970);
#261=VERTEX_POINT('',#974);
#262=VERTEX_POINT('',#975);
#263=VERTEX_POINT('',#977);
#264=VERTEX_POINT('',#981);
#265=VERTEX_POINT('',#982);
#266=VERTEX_POINT('',#984);
#267=VERTEX_POINT('',#994);
#268=VERTEX_POINT('',#995);
#269=VERTEX_POINT('',#997);
#270=VERTEX_POINT('',#1004);
#271=VERTEX_POINT('',#1005);
#272=VERTEX_POINT('',#1007);
#273=VERTEX_POINT('',#1011);
#274=VERTEX_POINT('',#1012);
#275=VERTEX_POINT('',#1014);
#276=VERTEX_POINT('',#1044);
#277=VERTEX_POINT('',#1046);
#278=VERTEX_POINT('',#1048);
#279=VERTEX_POINT('',#1050);
#280=VERTEX_POINT('',#1054);
#281=VERTEX_POINT('',#1056);
#282=VERTEX_POINT('',#1058);
#283=VERTEX_POINT('',#1060);
#284=VERTEX_POINT('',#1064);
#285=VERTEX_POINT('',#1066);
#286=VERTEX_POINT('',#1070);
#287=VERTEX_POINT('',#1074);
#288=VERTEX_POINT('',#1075);
#289=VERTEX_POINT('',#1080);
#290=VERTEX_POINT('',#1082);
#291=VERTEX_POINT('',#1086);
#292=VERTEX_POINT('',#1088);
#293=VERTEX_POINT('',#1092);
#294=VERTEX_POINT('',#1093);
#295=VERTEX_POINT('',#1098);
#296=VERTEX_POINT('',#1099);
#297=VERTEX_POINT('',#1104);
#298=EDGE_CURVE('',#252,#253,#203,.F.);
#299=EDGE_CURVE('',#254,#252,#204,.F.);
#300=EDGE_CURVE('',#253,#254,#205,.F.);
#301=EDGE_CURVE('',#255,#256,#206,.F.);
#302=EDGE_CURVE('',#257,#255,#207,.F.);
#303=EDGE_CURVE('',#256,#257,#208,.F.);
#304=EDGE_CURVE('',#255,#254,#33,.T.);
#305=EDGE_CURVE('',#252,#257,#34,.T.);
#306=EDGE_CURVE('',#258,#259,#209,.F.);
#307=EDGE_CURVE('',#260,#258,#210,.F.);
#308=EDGE_CURVE('',#259,#260,#211,.F.);
#309=EDGE_CURVE('',#261,#262,#212,.F.);
#310=EDGE_CURVE('',#263,#261,#213,.F.);
#311=EDGE_CURVE('',#262,#263,#214,.F.);
#312=EDGE_CURVE('',#264,#265,#215,.F.);
#313=EDGE_CURVE('',#266,#264,#216,.F.);
#314=EDGE_CURVE('',#265,#266,#217,.F.);
#315=EDGE_CURVE('',#258,#266,#35,.T.);
#316=EDGE_CURVE('',#264,#260,#36,.T.);
#317=EDGE_CURVE('',#256,#265,#37,.T.);
#318=EDGE_CURVE('',#266,#255,#38,.T.);
#319=EDGE_CURVE('',#267,#268,#218,.F.);
#320=EDGE_CURVE('',#269,#267,#219,.F.);
#321=EDGE_CURVE('',#268,#269,#220,.F.);
#322=EDGE_CURVE('',#261,#269,#39,.T.);
#323=EDGE_CURVE('',#267,#263,#40,.T.);
#324=EDGE_CURVE('',#270,#271,#221,.F.);
#325=EDGE_CURVE('',#272,#270,#222,.F.);
#326=EDGE_CURVE('',#271,#272,#223,.F.);
#327=EDGE_CURVE('',#273,#274,#224,.F.);
#328=EDGE_CURVE('',#275,#273,#225,.F.);
#329=EDGE_CURVE('',#274,#275,#226,.F.);
#330=EDGE_CURVE('',#270,#275,#41,.T.);
#331=EDGE_CURVE('',#273,#272,#42,.T.);
#332=EDGE_CURVE('',#265,#274,#43,.T.);
#333=EDGE_CURVE('',#275,#264,#44,.T.);
#334=EDGE_CURVE('',#274,#268,#45,.T.);
#335=EDGE_CURVE('',#269,#273,#46,.T.);
#336=EDGE_CURVE('',#262,#271,#47,.T.);
#337=EDGE_CURVE('',#272,#261,#48,.T.);
#338=EDGE_CURVE('',#271,#259,#49,.T.);
#339=EDGE_CURVE('',#260,#270,#50,.T.);
#340=EDGE_CURVE('',#268,#256,#51,.T.);
#341=EDGE_CURVE('',#257,#267,#52,.T.);
#342=EDGE_CURVE('',#253,#262,#53,.T.);
#343=EDGE_CURVE('',#263,#252,#54,.T.);
#344=EDGE_CURVE('',#259,#253,#55,.T.);
#345=EDGE_CURVE('',#254,#258,#56,.T.);
#346=EDGE_CURVE('',#276,#276,#227,.T.);
#347=EDGE_CURVE('',#277,#277,#228,.T.);
#348=EDGE_CURVE('',#278,#278,#229,.T.);
#349=EDGE_CURVE('',#279,#279,#230,.T.);
#350=EDGE_CURVE('',#280,#280,#231,.T.);
#351=EDGE_CURVE('',#281,#281,#232,.T.);
#352=EDGE_CURVE('',#282,#282,#233,.T.);
#353=EDGE_CURVE('',#283,#283,#234,.T.);
#354=EDGE_CURVE('',#283,#284,#57,.T.);
#355=EDGE_CURVE('',#284,#285,#235,.T.);
#356=EDGE_CURVE('',#285,#284,#236,.T.);
#357=EDGE_CURVE('',#286,#286,#237,.T.);
#358=EDGE_CURVE('',#286,#279,#58,.T.);
#359=EDGE_CURVE('',#287,#288,#238,.T.);
#360=EDGE_CURVE('',#287,#282,#59,.T.);
#361=EDGE_CURVE('',#288,#287,#239,.T.);
#362=EDGE_CURVE('',#278,#289,#60,.T.);
#363=EDGE_CURVE('',#289,#290,#240,.T.);
#364=EDGE_CURVE('',#290,#289,#241,.T.);
#365=EDGE_CURVE('',#281,#291,#61,.T.);
#366=EDGE_CURVE('',#291,#292,#242,.T.);
#367=EDGE_CURVE('',#292,#291,#243,.T.);
#368=EDGE_CURVE('',#293,#294,#244,.T.);
#369=EDGE_CURVE('',#294,#293,#245,.T.);
#370=EDGE_CURVE('',#294,#277,#62,.T.);
#371=EDGE_CURVE('',#295,#296,#246,.T.);
#372=EDGE_CURVE('',#295,#280,#63,.T.);
#373=EDGE_CURVE('',#296,#295,#247,.T.);
#374=EDGE_CURVE('',#276,#297,#64,.T.);
#375=EDGE_CURVE('',#297,#297,#248,.T.);
#376=EDGE_CURVE('',#285,#288,#249,.T.);
#377=EDGE_CURVE('',#290,#293,#250,.T.);
#378=EDGE_CURVE('',#292,#296,#251,.T.);
#379=ORIENTED_EDGE('',*,*,#298,.F.);
#380=ORIENTED_EDGE('',*,*,#299,.F.);
#381=ORIENTED_EDGE('',*,*,#300,.F.);
#382=ORIENTED_EDGE('',*,*,#301,.F.);
#383=ORIENTED_EDGE('',*,*,#302,.F.);
#384=ORIENTED_EDGE('',*,*,#303,.F.);
#385=ORIENTED_EDGE('',*,*,#302,.T.);
#386=ORIENTED_EDGE('',*,*,#304,.T.);
#387=ORIENTED_EDGE('',*,*,#299,.T.);
#388=ORIENTED_EDGE('',*,*,#305,.T.);
#389=ORIENTED_EDGE('',*,*,#306,.F.);
#390=ORIENTED_EDGE('',*,*,#307,.F.);
#391=ORIENTED_EDGE('',*,*,#308,.F.);
#392=ORIENTED_EDGE('',*,*,#309,.F.);
#393=ORIENTED_EDGE('',*,*,#310,.F.);
#394=ORIENTED_EDGE('',*,*,#311,.F.);
#395=ORIENTED_EDGE('',*,*,#312,.F.);
#396=ORIENTED_EDGE('',*,*,#313,.F.);
#397=ORIENTED_EDGE('',*,*,#314,.F.);
#398=ORIENTED_EDGE('',*,*,#307,.T.);
#399=ORIENTED_EDGE('',*,*,#315,.T.);
#400=ORIENTED_EDGE('',*,*,#313,.T.);
#401=ORIENTED_EDGE('',*,*,#316,.T.);
#402=ORIENTED_EDGE('',*,*,#301,.T.);
#403=ORIENTED_EDGE('',*,*,#317,.T.);
#404=ORIENTED_EDGE('',*,*,#314,.T.);
#405=ORIENTED_EDGE('',*,*,#318,.T.);
#406=ORIENTED_EDGE('',*,*,#319,.F.);
#407=ORIENTED_EDGE('',*,*,#320,.F.);
#408=ORIENTED_EDGE('',*,*,#321,.F.);
#409=ORIENTED_EDGE('',*,*,#310,.T.);
#410=ORIENTED_EDGE('',*,*,#322,.T.);
#411=ORIENTED_EDGE('',*,*,#320,.T.);
#412=ORIENTED_EDGE('',*,*,#323,.T.);
#413=ORIENTED_EDGE('',*,*,#324,.F.);
#414=ORIENTED_EDGE('',*,*,#325,.F.);
#415=ORIENTED_EDGE('',*,*,#326,.F.);
#416=ORIENTED_EDGE('',*,*,#327,.F.);
#417=ORIENTED_EDGE('',*,*,#328,.F.);
#418=ORIENTED_EDGE('',*,*,#329,.F.);
#419=ORIENTED_EDGE('',*,*,#325,.T.);
#420=ORIENTED_EDGE('',*,*,#330,.T.);
#421=ORIENTED_EDGE('',*,*,#328,.T.);
#422=ORIENTED_EDGE('',*,*,#331,.T.);
#423=ORIENTED_EDGE('',*,*,#312,.T.);
#424=ORIENTED_EDGE('',*,*,#332,.T.);
#425=ORIENTED_EDGE('',*,*,#329,.T.);
#426=ORIENTED_EDGE('',*,*,#333,.T.);
#427=ORIENTED_EDGE('',*,*,#327,.T.);
#428=ORIENTED_EDGE('',*,*,#334,.T.);
#429=ORIENTED_EDGE('',*,*,#321,.T.);
#430=ORIENTED_EDGE('',*,*,#335,.T.);
#431=ORIENTED_EDGE('',*,*,#309,.T.);
#432=ORIENTED_EDGE('',*,*,#336,.T.);
#433=ORIENTED_EDGE('',*,*,#326,.T.);
#434=ORIENTED_EDGE('',*,*,#337,.T.);
#435=ORIENTED_EDGE('',*,*,#324,.T.);
#436=ORIENTED_EDGE('',*,*,#338,.T.);
#437=ORIENTED_EDGE('',*,*,#308,.T.);
#438=ORIENTED_EDGE('',*,*,#339,.T.);
#439=ORIENTED_EDGE('',*,*,#319,.T.);
#440=ORIENTED_EDGE('',*,*,#340,.T.);
#441=ORIENTED_EDGE('',*,*,#303,.T.);
#442=ORIENTED_EDGE('',*,*,#341,.T.);
#443=ORIENTED_EDGE('',*,*,#298,.T.);
#444=ORIENTED_EDGE('',*,*,#342,.T.);
#445=ORIENTED_EDGE('',*,*,#311,.T.);
#446=ORIENTED_EDGE('',*,*,#343,.T.);
#447=ORIENTED_EDGE('',*,*,#306,.T.);
#448=ORIENTED_EDGE('',*,*,#344,.T.);
#449=ORIENTED_EDGE('',*,*,#300,.T.);
#450=ORIENTED_EDGE('',*,*,#345,.T.);
#451=ORIENTED_EDGE('',*,*,#315,.F.);
#452=ORIENTED_EDGE('',*,*,#345,.F.);
#453=ORIENTED_EDGE('',*,*,#304,.F.);
#454=ORIENTED_EDGE('',*,*,#318,.F.);
#455=ORIENTED_EDGE('',*,*,#317,.F.);
#456=ORIENTED_EDGE('',*,*,#340,.F.);
#457=ORIENTED_EDGE('',*,*,#334,.F.);
#458=ORIENTED_EDGE('',*,*,#332,.F.);
#459=ORIENTED_EDGE('',*,*,#323,.F.);
#460=ORIENTED_EDGE('',*,*,#341,.F.);
#461=ORIENTED_EDGE('',*,*,#305,.F.);
#462=ORIENTED_EDGE('',*,*,#343,.F.);
#463=ORIENTED_EDGE('',*,*,#346,.T.);
#464=ORIENTED_EDGE('',*,*,#347,.T.);
#465=ORIENTED_EDGE('',*,*,#348,.T.);
#466=ORIENTED_EDGE('',*,*,#349,.T.);
#467=ORIENTED_EDGE('',*,*,#331,.F.);
#468=ORIENTED_EDGE('',*,*,#335,.F.);
#469=ORIENTED_EDGE('',*,*,#322,.F.);
#470=ORIENTED_EDGE('',*,*,#337,.F.);
#471=ORIENTED_EDGE('',*,*,#330,.F.);
#472=ORIENTED_EDGE('',*,*,#339,.F.);
#473=ORIENTED_EDGE('',*,*,#316,.F.);
#474=ORIENTED_EDGE('',*,*,#333,.F.);
#475=ORIENTED_EDGE('',*,*,#350,.T.);
#476=ORIENTED_EDGE('',*,*,#351,.T.);
#477=ORIENTED_EDGE('',*,*,#352,.T.);
#478=ORIENTED_EDGE('',*,*,#353,.T.);
#479=ORIENTED_EDGE('',*,*,#336,.F.);
#480=ORIENTED_EDGE('',*,*,#342,.F.);
#481=ORIENTED_EDGE('',*,*,#344,.F.);
#482=ORIENTED_EDGE('',*,*,#338,.F.);
#483=ORIENTED_EDGE('',*,*,#353,.F.);
#484=ORIENTED_EDGE('',*,*,#354,.T.);
#485=ORIENTED_EDGE('',*,*,#355,.T.);
#486=ORIENTED_EDGE('',*,*,#356,.T.);
#487=ORIENTED_EDGE('',*,*,#354,.F.);
#488=ORIENTED_EDGE('',*,*,#357,.F.);
#489=ORIENTED_EDGE('',*,*,#358,.T.);
#490=ORIENTED_EDGE('',*,*,#349,.F.);
#491=ORIENTED_EDGE('',*,*,#358,.F.);
#492=ORIENTED_EDGE('',*,*,#359,.F.);
#493=ORIENTED_EDGE('',*,*,#360,.T.);
#494=ORIENTED_EDGE('',*,*,#352,.F.);
#495=ORIENTED_EDGE('',*,*,#360,.F.);
#496=ORIENTED_EDGE('',*,*,#361,.F.);
#497=ORIENTED_EDGE('',*,*,#348,.F.);
#498=ORIENTED_EDGE('',*,*,#362,.T.);
#499=ORIENTED_EDGE('',*,*,#363,.T.);
#500=ORIENTED_EDGE('',*,*,#364,.T.);
#501=ORIENTED_EDGE('',*,*,#362,.F.);
#502=ORIENTED_EDGE('',*,*,#351,.F.);
#503=ORIENTED_EDGE('',*,*,#365,.T.);
#504=ORIENTED_EDGE('',*,*,#366,.T.);
#505=ORIENTED_EDGE('',*,*,#367,.T.);
#506=ORIENTED_EDGE('',*,*,#365,.F.);
#507=ORIENTED_EDGE('',*,*,#368,.F.);
#508=ORIENTED_EDGE('',*,*,#369,.F.);
#509=ORIENTED_EDGE('',*,*,#370,.T.);
#510=ORIENTED_EDGE('',*,*,#347,.F.);
#511=ORIENTED_EDGE('',*,*,#370,.F.);
#512=ORIENTED_EDGE('',*,*,#371,.F.);
#513=ORIENTED_EDGE('',*,*,#372,.T.);
#514=ORIENTED_EDGE('',*,*,#350,.F.);
#515=ORIENTED_EDGE('',*,*,#372,.F.);
#516=ORIENTED_EDGE('',*,*,#373,.F.);
#517=ORIENTED_EDGE('',*,*,#346,.F.);
#518=ORIENTED_EDGE('',*,*,#374,.T.);
#519=ORIENTED_EDGE('',*,*,#375,.T.);
#520=ORIENTED_EDGE('',*,*,#374,.F.);
#521=ORIENTED_EDGE('',*,*,#355,.F.);
#522=ORIENTED_EDGE('',*,*,#356,.F.);
#523=ORIENTED_EDGE('',*,*,#376,.T.);
#524=ORIENTED_EDGE('',*,*,#361,.T.);
#525=ORIENTED_EDGE('',*,*,#359,.T.);
#526=ORIENTED_EDGE('',*,*,#376,.F.);
#527=ORIENTED_EDGE('',*,*,#364,.F.);
#528=ORIENTED_EDGE('',*,*,#377,.T.);
#529=ORIENTED_EDGE('',*,*,#368,.T.);
#530=ORIENTED_EDGE('',*,*,#369,.T.);
#531=ORIENTED_EDGE('',*,*,#377,.F.);
#532=ORIENTED_EDGE('',*,*,#363,.F.);
#533=ORIENTED_EDGE('',*,*,#366,.F.);
#534=ORIENTED_EDGE('',*,*,#367,.F.);
#535=ORIENTED_EDGE('',*,*,#378,.T.);
#536=ORIENTED_EDGE('',*,*,#373,.T.);
#537=ORIENTED_EDGE('',*,*,#371,.T.);
#538=ORIENTED_EDGE('',*,*,#378,.F.);
#539=ORIENTED_EDGE('',*,*,#357,.T.);
#540=ORIENTED_EDGE('',*,*,#375,.F.);
#541=SPHERICAL_SURFACE('',#650,0.0999999999999998);
#542=SPHERICAL_SURFACE('',#654,0.0999999999999998);
#543=SPHERICAL_SURFACE('',#659,0.0999999999999998);
#544=SPHERICAL_SURFACE('',#663,0.0999999999999998);
#545=SPHERICAL_SURFACE('',#667,0.0999999999999998);
#546=SPHERICAL_SURFACE('',#673,0.0999999999999998);
#547=SPHERICAL_SURFACE('',#678,0.0999999999999998);
#548=SPHERICAL_SURFACE('',#682,0.1);
#549=STYLED_ITEM('',(#1143),#589);
#550=STYLED_ITEM('',(#1143),#590);
#551=STYLED_ITEM('',(#1143),#591);
#552=STYLED_ITEM('',(#1143),#592);
#553=STYLED_ITEM('',(#1143),#593);
#554=STYLED_ITEM('',(#1143),#594);
#555=STYLED_ITEM('',(#1143),#595);
#556=STYLED_ITEM('',(#1143),#596);
#557=STYLED_ITEM('',(#1143),#597);
#558=STYLED_ITEM('',(#1143),#598);
#559=STYLED_ITEM('',(#1143),#599);
#560=STYLED_ITEM('',(#1143),#600);
#561=STYLED_ITEM('',(#1143),#601);
#562=STYLED_ITEM('',(#1143),#602);
#563=STYLED_ITEM('',(#1143),#603);
#564=STYLED_ITEM('',(#1143),#604);
#565=STYLED_ITEM('',(#1143),#605);
#566=STYLED_ITEM('',(#1143),#606);
#567=STYLED_ITEM('',(#1143),#607);
#568=STYLED_ITEM('',(#1143),#608);
#569=STYLED_ITEM('',(#1143),#609);
#570=STYLED_ITEM('',(#1143),#610);
#571=STYLED_ITEM('',(#1143),#611);
#572=STYLED_ITEM('',(#1143),#612);
#573=STYLED_ITEM('',(#1143),#613);
#574=STYLED_ITEM('',(#1143),#614);
#575=STYLED_ITEM('',(#1144),#615);
#576=STYLED_ITEM('',(#1144),#616);
#577=STYLED_ITEM('',(#1144),#617);
#578=STYLED_ITEM('',(#1144),#618);
#579=STYLED_ITEM('',(#1144),#619);
#580=STYLED_ITEM('',(#1144),#620);
#581=STYLED_ITEM('',(#1144),#621);
#582=STYLED_ITEM('',(#1144),#622);
#583=STYLED_ITEM('',(#1144),#623);
#584=STYLED_ITEM('',(#1144),#624);
#585=STYLED_ITEM('',(#1144),#625);
#586=STYLED_ITEM('',(#1144),#626);
#587=STYLED_ITEM('',(#1144),#627);
#588=STYLED_ITEM('',(#1142),#13);
#589=ADVANCED_FACE('',(#117),#541,.T.);
#590=ADVANCED_FACE('',(#118),#542,.T.);
#591=ADVANCED_FACE('',(#119),#97,.T.);
#592=ADVANCED_FACE('',(#120),#543,.T.);
#593=ADVANCED_FACE('',(#121),#544,.T.);
#594=ADVANCED_FACE('',(#122),#545,.T.);
#595=ADVANCED_FACE('',(#123),#98,.T.);
#596=ADVANCED_FACE('',(#124),#99,.T.);
#597=ADVANCED_FACE('',(#125),#546,.T.);
#598=ADVANCED_FACE('',(#126),#100,.T.);
#599=ADVANCED_FACE('',(#127),#547,.T.);
#600=ADVANCED_FACE('',(#128),#548,.T.);
#601=ADVANCED_FACE('',(#129),#101,.T.);
#602=ADVANCED_FACE('',(#130),#102,.T.);
#603=ADVANCED_FACE('',(#131),#103,.T.);
#604=ADVANCED_FACE('',(#132),#104,.T.);
#605=ADVANCED_FACE('',(#133),#105,.T.);
#606=ADVANCED_FACE('',(#134),#106,.T.);
#607=ADVANCED_FACE('',(#135),#107,.T.);
#608=ADVANCED_FACE('',(#136),#108,.T.);
#609=ADVANCED_FACE('',(#137),#25,.T.);
#610=ADVANCED_FACE('',(#138),#26,.T.);
#611=ADVANCED_FACE('',(#139,#17,#18,#19,#20),#27,.T.);
#612=ADVANCED_FACE('',(#140),#28,.T.);
#613=ADVANCED_FACE('',(#141,#21,#22,#23,#24),#29,.T.);
#614=ADVANCED_FACE('',(#142),#30,.T.);
#615=ADVANCED_FACE('',(#143),#109,.T.);
#616=ADVANCED_FACE('',(#144),#110,.T.);
#617=ADVANCED_FACE('',(#145),#111,.T.);
#618=ADVANCED_FACE('',(#146),#112,.T.);
#619=ADVANCED_FACE('',(#147),#113,.T.);
#620=ADVANCED_FACE('',(#148),#114,.T.);
#621=ADVANCED_FACE('',(#149),#115,.T.);
#622=ADVANCED_FACE('',(#150),#116,.T.);
#623=ADVANCED_FACE('',(#151),#14,.T.);
#624=ADVANCED_FACE('',(#152),#15,.T.);
#625=ADVANCED_FACE('',(#153),#16,.T.);
#626=ADVANCED_FACE('',(#154),#31,.T.);
#627=ADVANCED_FACE('',(#155),#32,.F.);
#628=CLOSED_SHELL('',(#589,#590,#591,#592,#593,#594,#595,#596,#597,#598,
#599,#600,#601,#602,#603,#604,#605,#606,#607,#608,#609,#610,#611,#612,#613,
#614,#615,#616,#617,#618,#619,#620,#621,#622,#623,#624,#625,#626,#627));
#629=DERIVED_UNIT_ELEMENT(#631,1.);
#630=DERIVED_UNIT_ELEMENT(#1123,-3.);
#631=(
CONVERSION_BASED_UNIT('gram',#633)
MASS_UNIT()
NAMED_UNIT(#1120)
);
#632=(
MASS_UNIT()
NAMED_UNIT(*)
SI_UNIT(.KILO.,.GRAM.)
);
#633=MASS_MEASURE_WITH_UNIT(MASS_MEASURE(0.001),#632);
#634=DERIVED_UNIT((#629,#630));
#635=MEASURE_REPRESENTATION_ITEM('density measure',
POSITIVE_RATIO_MEASURE(1.),#634);
#636=PROPERTY_DEFINITION_REPRESENTATION(#641,#638);
#637=PROPERTY_DEFINITION_REPRESENTATION(#642,#639);
#638=REPRESENTATION('material name',(#640),#1117);
#639=REPRESENTATION('density',(#635),#1117);
#640=DESCRIPTIVE_REPRESENTATION_ITEM('Generic','Generic');
#641=PROPERTY_DEFINITION('material property','material name',#1131);
#642=PROPERTY_DEFINITION('material property','density of part',#1131);
#643=DATE_TIME_ROLE('creation_date');
#644=APPLIED_DATE_AND_TIME_ASSIGNMENT(#645,#643,(#1131));
#645=DATE_AND_TIME(#646,#647);
#646=CALENDAR_DATE(2026,26,3);
#647=LOCAL_TIME(0,0,0.,#648);
#648=COORDINATED_UNIVERSAL_TIME_OFFSET(0,0,.BEHIND.);
#649=AXIS2_PLACEMENT_3D('',#948,#738,#739);
#650=AXIS2_PLACEMENT_3D('',#949,#740,#741);
#651=AXIS2_PLACEMENT_3D('',#952,#742,#743);
#652=AXIS2_PLACEMENT_3D('',#954,#744,#745);
#653=AXIS2_PLACEMENT_3D('',#955,#746,#747);
#654=AXIS2_PLACEMENT_3D('',#956,#748,#749);
#655=AXIS2_PLACEMENT_3D('',#959,#750,#751);
#656=AXIS2_PLACEMENT_3D('',#961,#752,#753);
#657=AXIS2_PLACEMENT_3D('',#962,#754,#755);
#658=AXIS2_PLACEMENT_3D('',#963,#756,#757);
#659=AXIS2_PLACEMENT_3D('',#966,#760,#761);
#660=AXIS2_PLACEMENT_3D('',#969,#762,#763);
#661=AXIS2_PLACEMENT_3D('',#971,#764,#765);
#662=AXIS2_PLACEMENT_3D('',#972,#766,#767);
#663=AXIS2_PLACEMENT_3D('',#973,#768,#769);
#664=AXIS2_PLACEMENT_3D('',#976,#770,#771);
#665=AXIS2_PLACEMENT_3D('',#978,#772,#773);
#666=AXIS2_PLACEMENT_3D('',#979,#774,#775);
#667=AXIS2_PLACEMENT_3D('',#980,#776,#777);
#668=AXIS2_PLACEMENT_3D('',#983,#778,#779);
#669=AXIS2_PLACEMENT_3D('',#985,#780,#781);
#670=AXIS2_PLACEMENT_3D('',#986,#782,#783);
#671=AXIS2_PLACEMENT_3D('',#987,#784,#785);
#672=AXIS2_PLACEMENT_3D('',#990,#788,#789);
#673=AXIS2_PLACEMENT_3D('',#993,#792,#793);
#674=AXIS2_PLACEMENT_3D('',#996,#794,#795);
#675=AXIS2_PLACEMENT_3D('',#998,#796,#797);
#676=AXIS2_PLACEMENT_3D('',#999,#798,#799);
#677=AXIS2_PLACEMENT_3D('',#1000,#800,#801);
#678=AXIS2_PLACEMENT_3D('',#1003,#804,#805);
#679=AXIS2_PLACEMENT_3D('',#1006,#806,#807);
#680=AXIS2_PLACEMENT_3D('',#1008,#808,#809);
#681=AXIS2_PLACEMENT_3D('',#1009,#810,#811);
#682=AXIS2_PLACEMENT_3D('',#1010,#812,#813);
#683=AXIS2_PLACEMENT_3D('',#1013,#814,#815);
#684=AXIS2_PLACEMENT_3D('',#1015,#816,#817);
#685=AXIS2_PLACEMENT_3D('',#1016,#818,#819);
#686=AXIS2_PLACEMENT_3D('',#1017,#820,#821);
#687=AXIS2_PLACEMENT_3D('',#1020,#824,#825);
#688=AXIS2_PLACEMENT_3D('',#1023,#828,#829);
#689=AXIS2_PLACEMENT_3D('',#1026,#832,#833);
#690=AXIS2_PLACEMENT_3D('',#1029,#836,#837);
#691=AXIS2_PLACEMENT_3D('',#1032,#840,#841);
#692=AXIS2_PLACEMENT_3D('',#1035,#844,#845);
#693=AXIS2_PLACEMENT_3D('',#1038,#848,#849);
#694=AXIS2_PLACEMENT_3D('',#1041,#852,#853);
#695=AXIS2_PLACEMENT_3D('',#1042,#854,#855);
#696=AXIS2_PLACEMENT_3D('',#1043,#856,#857);
#697=AXIS2_PLACEMENT_3D('',#1045,#858,#859);
#698=AXIS2_PLACEMENT_3D('',#1047,#860,#861);
#699=AXIS2_PLACEMENT_3D('',#1049,#862,#863);
#700=AXIS2_PLACEMENT_3D('',#1051,#864,#865);
#701=AXIS2_PLACEMENT_3D('',#1052,#866,#867);
#702=AXIS2_PLACEMENT_3D('',#1053,#868,#869);
#703=AXIS2_PLACEMENT_3D('',#1055,#870,#871);
#704=AXIS2_PLACEMENT_3D('',#1057,#872,#873);
#705=AXIS2_PLACEMENT_3D('',#1059,#874,#875);
#706=AXIS2_PLACEMENT_3D('',#1061,#876,#877);
#707=AXIS2_PLACEMENT_3D('',#1062,#878,#879);
#708=AXIS2_PLACEMENT_3D('',#1063,#880,#881);
#709=AXIS2_PLACEMENT_3D('',#1067,#883,#884);
#710=AXIS2_PLACEMENT_3D('',#1068,#885,#886);
#711=AXIS2_PLACEMENT_3D('',#1069,#887,#888);
#712=AXIS2_PLACEMENT_3D('',#1071,#889,#890);
#713=AXIS2_PLACEMENT_3D('',#1073,#892,#893);
#714=AXIS2_PLACEMENT_3D('',#1076,#894,#895);
#715=AXIS2_PLACEMENT_3D('',#1078,#897,#898);
#716=AXIS2_PLACEMENT_3D('',#1079,#899,#900);
#717=AXIS2_PLACEMENT_3D('',#1083,#902,#903);
#718=AXIS2_PLACEMENT_3D('',#1084,#904,#905);
#719=AXIS2_PLACEMENT_3D('',#1085,#906,#907);
#720=AXIS2_PLACEMENT_3D('',#1089,#909,#910);
#721=AXIS2_PLACEMENT_3D('',#1090,#911,#912);
#722=AXIS2_PLACEMENT_3D('',#1091,#913,#914);
#723=AXIS2_PLACEMENT_3D('',#1094,#915,#916);
#724=AXIS2_PLACEMENT_3D('',#1095,#917,#918);
#725=AXIS2_PLACEMENT_3D('',#1097,#920,#921);
#726=AXIS2_PLACEMENT_3D('',#1100,#922,#923);
#727=AXIS2_PLACEMENT_3D('',#1102,#925,#926);
#728=AXIS2_PLACEMENT_3D('',#1103,#927,#928);
#729=AXIS2_PLACEMENT_3D('',#1106,#930,#931);
#730=AXIS2_PLACEMENT_3D('',#1107,#932,#933);
#731=AXIS2_PLACEMENT_3D('',#1108,#934,#935);
#732=AXIS2_PLACEMENT_3D('',#1109,#936,#937);
#733=AXIS2_PLACEMENT_3D('',#1110,#938,#939);
#734=AXIS2_PLACEMENT_3D('',#1111,#940,#941);
#735=AXIS2_PLACEMENT_3D('',#1112,#942,#943);
#736=AXIS2_PLACEMENT_3D('',#1113,#944,#945);
#737=AXIS2_PLACEMENT_3D('',#1114,#946,#947);
#738=DIRECTION('axis',(0.,0.,1.));
#739=DIRECTION('refdir',(1.,0.,0.));
#740=DIRECTION('center_axis',(-0.816496580927726,0.408248290463864,-0.408248290463861));
#741=DIRECTION('ref_axis',(0.577350269189625,0.577350269189627,-0.577350269189625));
#742=DIRECTION('center_axis',(0.,0.,-1.));
#743=DIRECTION('ref_axis',(1.,0.,0.));
#744=DIRECTION('center_axis',(0.,1.,0.));
#745=DIRECTION('ref_axis',(0.,0.,-1.));
#746=DIRECTION('center_axis',(1.,0.,0.));
#747=DIRECTION('ref_axis',(0.,1.,0.));
#748=DIRECTION('center_axis',(-0.816496580927726,-0.408248290463864,-0.408248290463861));
#749=DIRECTION('ref_axis',(0.577350269189625,-0.577350269189627,-0.577350269189625));
#750=DIRECTION('center_axis',(1.,0.,0.));
#751=DIRECTION('ref_axis',(0.,0.,-1.));
#752=DIRECTION('center_axis',(0.,-1.,0.));
#753=DIRECTION('ref_axis',(1.,0.,0.));
#754=DIRECTION('center_axis',(0.,0.,-1.));
#755=DIRECTION('ref_axis',(0.,-1.,0.));
#756=DIRECTION('center_axis',(0.,-1.,0.));
#757=DIRECTION('ref_axis',(0.707106781186548,0.,-0.707106781186548));
#758=DIRECTION('',(0.,1.,0.));
#759=DIRECTION('',(0.,-1.,0.));
#760=DIRECTION('center_axis',(-0.816496580927726,-0.408248290463864,0.408248290463861));
#761=DIRECTION('ref_axis',(-0.577350269189624,0.577350269189629,-0.577350269189624));
#762=DIRECTION('center_axis',(-1.,0.,0.));
#763=DIRECTION('ref_axis',(0.,0.,-1.));
#764=DIRECTION('center_axis',(0.,1.,0.));
#765=DIRECTION('ref_axis',(-1.,0.,3.49676543189026E-15));
#766=DIRECTION('center_axis',(-3.49676543189026E-15,0.,-1.));
#767=DIRECTION('ref_axis',(0.,1.,0.));
#768=DIRECTION('center_axis',(-0.816496580927726,0.408248290463864,0.408248290463861));
#769=DIRECTION('ref_axis',(0.577350269189625,0.577350269189627,0.577350269189625));
#770=DIRECTION('center_axis',(1.,0.,0.));
#771=DIRECTION('ref_axis',(0.,0.,1.));
#772=DIRECTION('center_axis',(0.,1.,0.));
#773=DIRECTION('ref_axis',(1.,0.,0.));
#774=DIRECTION('center_axis',(0.,0.,1.));
#775=DIRECTION('ref_axis',(0.,1.,0.));
#776=DIRECTION('center_axis',(-0.816496580927726,0.408248290463864,0.408248290463861));
#777=DIRECTION('ref_axis',(-0.577350269189624,-0.577350269189629,-0.577350269189624));
#778=DIRECTION('center_axis',(-3.49676543189026E-15,0.,-1.));
#779=DIRECTION('ref_axis',(-1.,0.,3.49676543189026E-15));
#780=DIRECTION('center_axis',(0.,-1.,0.));
#781=DIRECTION('ref_axis',(0.,0.,-1.));
#782=DIRECTION('center_axis',(-1.,0.,-6.99353086378053E-15));
#783=DIRECTION('ref_axis',(0.,-1.,0.));
#784=DIRECTION('center_axis',(0.,1.,0.));
#785=DIRECTION('ref_axis',(-0.70710678118655,0.,-0.707106781186545));
#786=DIRECTION('',(0.,-1.,0.));
#787=DIRECTION('',(0.,1.,0.));
#788=DIRECTION('center_axis',(1.,0.,0.));
#789=DIRECTION('ref_axis',(0.,-0.707106781186548,-0.707106781186547));
#790=DIRECTION('',(-1.,0.,0.));
#791=DIRECTION('',(1.,0.,0.));
#792=DIRECTION('center_axis',(-0.816496580927726,-0.408248290463864,0.408248290463861));
#793=DIRECTION('ref_axis',(0.577350269189625,-0.577350269189627,0.577350269189625));
#794=DIRECTION('center_axis',(0.,0.,1.));
#795=DIRECTION('ref_axis',(1.,0.,0.));
#796=DIRECTION('center_axis',(0.,-1.,0.));
#797=DIRECTION('ref_axis',(0.,0.,1.));
#798=DIRECTION('center_axis',(1.,0.,0.));
#799=DIRECTION('ref_axis',(0.,-1.,0.));
#800=DIRECTION('center_axis',(0.,1.,0.));
#801=DIRECTION('ref_axis',(0.707106781186548,0.,0.707106781186548));
#802=DIRECTION('',(0.,-1.,0.));
#803=DIRECTION('',(0.,1.,0.));
#804=DIRECTION('center_axis',(-0.408248290463865,0.408248290463862,-0.816496580927726));
#805=DIRECTION('ref_axis',(-0.577350269189629,0.577350269189625,0.577350269189624));
#806=DIRECTION('center_axis',(0.,0.,1.));
#807=DIRECTION('ref_axis',(-1.,0.,0.));
#808=DIRECTION('center_axis',(0.,1.,0.));
#809=DIRECTION('ref_axis',(0.,0.,1.));
#810=DIRECTION('center_axis',(-1.,0.,0.));
#811=DIRECTION('ref_axis',(0.,1.,0.));
#812=DIRECTION('center_axis',(-0.408248290463863,-0.408248290463861,-0.816496580927727));
#813=DIRECTION('ref_axis',(-0.577350269189626,-0.577350269189625,0.577350269189626));
#814=DIRECTION('center_axis',(-1.,3.49676543189026E-15,0.));
#815=DIRECTION('ref_axis',(0.,0.,1.));
#816=DIRECTION('center_axis',(0.,-1.,0.));
#817=DIRECTION('ref_axis',(-1.,0.,3.49676543189025E-15));
#818=DIRECTION('center_axis',(0.,0.,1.));
#819=DIRECTION('ref_axis',(0.,-1.,0.));
#820=DIRECTION('center_axis',(0.,1.,0.));
#821=DIRECTION('ref_axis',(-0.707106781186547,0.,0.707106781186547));
#822=DIRECTION('',(0.,-1.,0.));
#823=DIRECTION('',(0.,1.,0.));
#824=DIRECTION('center_axis',(-2.03448170582705E-15,0.,-1.));
#825=DIRECTION('ref_axis',(-0.707106781186547,-0.707106781186548,0.));
#826=DIRECTION('',(2.03448170582705E-15,0.,1.));
#827=DIRECTION('',(-2.03448170582705E-15,0.,-1.));
#828=DIRECTION('center_axis',(-1.,0.,0.));
#829=DIRECTION('ref_axis',(0.,-0.707106781186548,0.707106781186547));
#830=DIRECTION('',(1.,0.,0.));
#831=DIRECTION('',(-1.,0.,0.));
#832=DIRECTION('center_axis',(1.,0.,0.));
#833=DIRECTION('ref_axis',(0.,0.707106781186548,0.707106781186547));
#834=DIRECTION('',(-1.,0.,0.));
#835=DIRECTION('',(1.,0.,0.));
#836=DIRECTION('center_axis',(2.03448170582705E-15,0.,1.));
#837=DIRECTION('ref_axis',(-0.707106781186547,0.707106781186548,0.));
#838=DIRECTION('',(-2.03448170582705E-15,0.,-1.));
#839=DIRECTION('',(2.03448170582705E-15,0.,1.));
#840=DIRECTION('center_axis',(0.,0.,1.));
#841=DIRECTION('ref_axis',(0.707106781186547,-0.707106781186548,0.));
#842=DIRECTION('',(0.,0.,-1.));
#843=DIRECTION('',(0.,0.,1.));
#844=DIRECTION('center_axis',(0.,0.,-1.));
#845=DIRECTION('ref_axis',(0.707106781186547,0.707106781186548,0.));
#846=DIRECTION('',(0.,0.,1.));
#847=DIRECTION('',(0.,0.,-1.));
#848=DIRECTION('center_axis',(-1.,0.,0.));
#849=DIRECTION('ref_axis',(0.,0.707106781186548,-0.707106781186547));
#850=DIRECTION('',(1.,0.,0.));
#851=DIRECTION('',(-1.,0.,0.));
#852=DIRECTION('center_axis',(0.,0.,-1.));
#853=DIRECTION('ref_axis',(-1.,0.,0.));
#854=DIRECTION('center_axis',(0.,-1.,0.));
#855=DIRECTION('ref_axis',(0.,0.,-1.));
#856=DIRECTION('center_axis',(1.,0.,0.));
#857=DIRECTION('ref_axis',(0.,0.,-1.));
#858=DIRECTION('center_axis',(-1.,0.,0.));
#859=DIRECTION('ref_axis',(0.,-1.,0.));
#860=DIRECTION('center_axis',(-1.,0.,0.));
#861=DIRECTION('ref_axis',(0.,-1.,0.));
#862=DIRECTION('center_axis',(-1.,0.,0.));
#863=DIRECTION('ref_axis',(0.,-1.,0.));
#864=DIRECTION('center_axis',(-1.,0.,0.));
#865=DIRECTION('ref_axis',(0.,-1.,0.));
#866=DIRECTION('center_axis',(0.,0.,1.));
#867=DIRECTION('ref_axis',(1.,0.,0.));
#868=DIRECTION('center_axis',(-1.,0.,2.03448170582705E-15));
#869=DIRECTION('ref_axis',(2.03448170582705E-15,0.,1.));
#870=DIRECTION('center_axis',(1.,0.,-2.03448170582705E-15));
#871=DIRECTION('ref_axis',(0.,-1.,0.));
#872=DIRECTION('center_axis',(1.,0.,-2.03448170582705E-15));
#873=DIRECTION('ref_axis',(0.,-1.,0.));
#874=DIRECTION('center_axis',(1.,0.,-2.03448170582705E-15));
#875=DIRECTION('ref_axis',(0.,-1.,0.));
#876=DIRECTION('center_axis',(1.,0.,-2.03448170582705E-15));
#877=DIRECTION('ref_axis',(0.,-1.,0.));
#878=DIRECTION('center_axis',(0.,1.,0.));
#879=DIRECTION('ref_axis',(0.,0.,1.));
#880=DIRECTION('center_axis',(1.,0.,-1.14180095735192E-16));
#881=DIRECTION('ref_axis',(0.,-1.,0.));
#882=DIRECTION('',(-1.,0.,1.14180095735192E-16));
#883=DIRECTION('center_axis',(1.,0.,1.51009703848533E-16));
#884=DIRECTION('ref_axis',(0.,-1.,0.));
#885=DIRECTION('center_axis',(1.,0.,1.51009703848533E-16));
#886=DIRECTION('ref_axis',(0.,-1.,0.));
#887=DIRECTION('center_axis',(1.,0.,-1.14180095735192E-16));
#888=DIRECTION('ref_axis',(0.,-1.,0.));
#889=DIRECTION('center_axis',(1.,0.,1.51009703848533E-16));
#890=DIRECTION('ref_axis',(0.,-1.,0.));
#891=DIRECTION('',(-1.,0.,1.14180095735192E-16));
#892=DIRECTION('center_axis',(-1.,0.,-1.34490978149625E-17));
#893=DIRECTION('ref_axis',(0.,-1.,0.));
#894=DIRECTION('center_axis',(-1.,0.,-2.8545023933798E-17));
#895=DIRECTION('ref_axis',(0.,-1.,0.));
#896=DIRECTION('',(1.,0.,1.34490978149625E-17));
#897=DIRECTION('center_axis',(-1.,0.,-2.8545023933798E-17));
#898=DIRECTION('ref_axis',(0.,-1.,0.));
#899=DIRECTION('center_axis',(-1.,0.,-1.34490978149625E-17));
#900=DIRECTION('ref_axis',(0.,-1.,0.));
#901=DIRECTION('',(1.,0.,1.34490978149625E-17));
#902=DIRECTION('center_axis',(-1.,0.,-2.8545023933798E-17));
#903=DIRECTION('ref_axis',(0.,-1.,0.));
#904=DIRECTION('center_axis',(-1.,0.,-2.8545023933798E-17));
#905=DIRECTION('ref_axis',(0.,-1.,0.));
#906=DIRECTION('center_axis',(1.,0.,-3.63125641003988E-16));
#907=DIRECTION('ref_axis',(0.,-1.,0.));
#908=DIRECTION('',(-1.,0.,3.63125641003988E-16));
#909=DIRECTION('center_axis',(1.,0.,1.51009703848533E-16));
#910=DIRECTION('ref_axis',(0.,-1.,0.));
#911=DIRECTION('center_axis',(1.,0.,1.51009703848533E-16));
#912=DIRECTION('ref_axis',(0.,-1.,0.));
#913=DIRECTION('center_axis',(1.,0.,-3.63125641003988E-16));
#914=DIRECTION('ref_axis',(0.,-1.,0.));
#915=DIRECTION('center_axis',(1.,0.,1.51009703848533E-16));
#916=DIRECTION('ref_axis',(0.,-1.,0.));
#917=DIRECTION('center_axis',(1.,0.,1.51009703848533E-16));
#918=DIRECTION('ref_axis',(0.,-1.,0.));
#919=DIRECTION('',(-1.,0.,3.63125641003988E-16));
#920=DIRECTION('center_axis',(-1.,0.,-2.8545023933798E-17));
#921=DIRECTION('ref_axis',(0.,-1.,0.));
#922=DIRECTION('center_axis',(-1.,0.,-2.8545023933798E-17));
#923=DIRECTION('ref_axis',(0.,-1.,0.));
#924=DIRECTION('',(1.,0.,2.8545023933798E-17));
#925=DIRECTION('center_axis',(-1.,0.,-2.8545023933798E-17));
#926=DIRECTION('ref_axis',(0.,-1.,0.));
#927=DIRECTION('center_axis',(-1.,0.,-2.8545023933798E-17));
#928=DIRECTION('ref_axis',(0.,-1.,0.));
#929=DIRECTION('',(1.,0.,2.8545023933798E-17));
#930=DIRECTION('center_axis',(-1.,0.,-2.8545023933798E-17));
#931=DIRECTION('ref_axis',(0.,-1.,0.));
#932=DIRECTION('center_axis',(0.,1.,0.));
#933=DIRECTION('ref_axis',(0.,0.,1.));
#934=DIRECTION('center_axis',(0.,-1.,0.));
#935=DIRECTION('ref_axis',(0.,0.,1.));
#936=DIRECTION('center_axis',(0.,-1.,0.));
#937=DIRECTION('ref_axis',(0.,0.,-1.));
#938=DIRECTION('center_axis',(0.,1.,0.));
#939=DIRECTION('ref_axis',(0.,0.,-1.));
#940=DIRECTION('center_axis',(0.,1.,0.));
#941=DIRECTION('ref_axis',(0.,0.,1.));
#942=DIRECTION('center_axis',(0.,-1.,0.));
#943=DIRECTION('ref_axis',(0.,0.,1.));
#944=DIRECTION('center_axis',(1.,0.,1.51009703848533E-16));
#945=DIRECTION('ref_axis',(1.51009703848533E-16,0.,-1.));
#946=DIRECTION('center_axis',(-1.,0.,-2.8545023933798E-17));
#947=DIRECTION('ref_axis',(-2.8545023933798E-17,0.,1.));
#948=CARTESIAN_POINT('',(0.,0.,0.));
#949=CARTESIAN_POINT('Origin',(2.90000000000001,0.245,-2.65000000000002));
#950=CARTESIAN_POINT('',(3.00000000000001,0.245,-2.65000000000002));
#951=CARTESIAN_POINT('',(2.90000000000001,0.345,-2.65000000000002));
#952=CARTESIAN_POINT('Origin',(2.90000000000001,0.245,-2.65000000000002));
#953=CARTESIAN_POINT('',(2.90000000000001,0.245,-2.75000000000002));
#954=CARTESIAN_POINT('Origin',(2.90000000000001,0.245,-2.65000000000002));
#955=CARTESIAN_POINT('Origin',(2.90000000000001,0.245,-2.65000000000002));
#956=CARTESIAN_POINT('Origin',(2.90000000000001,-0.245,-2.65000000000002));
#957=CARTESIAN_POINT('',(2.90000000000001,-0.245,-2.75000000000002));
#958=CARTESIAN_POINT('',(2.90000000000001,-0.345,-2.65000000000002));
#959=CARTESIAN_POINT('Origin',(2.90000000000001,-0.245,-2.65000000000002));
#960=CARTESIAN_POINT('',(3.00000000000001,-0.245,-2.65000000000002));
#961=CARTESIAN_POINT('Origin',(2.90000000000001,-0.245,-2.65000000000002));
#962=CARTESIAN_POINT('Origin',(2.90000000000001,-0.245,-2.65000000000002));
#963=CARTESIAN_POINT('Origin',(2.90000000000001,0.,-2.65000000000002));
#964=CARTESIAN_POINT('',(2.90000000000001,0.,-2.75000000000002));
#965=CARTESIAN_POINT('',(3.00000000000001,0.,-2.65000000000002));
#966=CARTESIAN_POINT('Origin',(-2.89999999999999,0.245,-2.65000000000002));
#967=CARTESIAN_POINT('',(-2.89999999999999,0.245,-2.75000000000002));
#968=CARTESIAN_POINT('',(-2.89999999999999,0.345,-2.65000000000002));
#969=CARTESIAN_POINT('Origin',(-2.89999999999999,0.245,-2.65000000000002));
#970=CARTESIAN_POINT('',(-2.99999999999999,0.245,-2.65000000000002));
#971=CARTESIAN_POINT('Origin',(-2.89999999999999,0.245,-2.65000000000002));
#972=CARTESIAN_POINT('Origin',(-2.89999999999999,0.245,-2.65000000000002));
#973=CARTESIAN_POINT('Origin',(2.90000000000001,0.245,2.64999999999999));
#974=CARTESIAN_POINT('',(2.90000000000001,0.245,2.74999999999999));
#975=CARTESIAN_POINT('',(2.90000000000001,0.345,2.64999999999999));
#976=CARTESIAN_POINT('Origin',(2.90000000000001,0.245,2.64999999999999));
#977=CARTESIAN_POINT('',(3.00000000000001,0.245,2.64999999999999));
#978=CARTESIAN_POINT('Origin',(2.90000000000001,0.245,2.64999999999999));
#979=CARTESIAN_POINT('Origin',(2.90000000000001,0.245,2.64999999999999));
#980=CARTESIAN_POINT('Origin',(-2.89999999999999,-0.245,-2.65000000000002));
#981=CARTESIAN_POINT('',(-2.99999999999999,-0.245,-2.65000000000002));
#982=CARTESIAN_POINT('',(-2.89999999999999,-0.345,-2.65000000000002));
#983=CARTESIAN_POINT('Origin',(-2.89999999999999,-0.245,-2.65000000000002));
#984=CARTESIAN_POINT('',(-2.89999999999999,-0.245,-2.75000000000002));
#985=CARTESIAN_POINT('Origin',(-2.89999999999999,-0.245,-2.65000000000002));
#986=CARTESIAN_POINT('Origin',(-2.89999999999999,-0.245,-2.65000000000002));
#987=CARTESIAN_POINT('Origin',(-2.89999999999999,0.,-2.65000000000002));
#988=CARTESIAN_POINT('',(-2.89999999999999,0.,-2.75000000000002));
#989=CARTESIAN_POINT('',(-2.99999999999999,0.,-2.65000000000002));
#990=CARTESIAN_POINT('Origin',(1.50000000000001,-0.245,-2.65000000000002));
#991=CARTESIAN_POINT('',(1.50000000000001,-0.345,-2.65000000000002));
#992=CARTESIAN_POINT('',(1.50000000000001,-0.245,-2.75000000000002));
#993=CARTESIAN_POINT('Origin',(2.90000000000001,-0.245,2.64999999999999));
#994=CARTESIAN_POINT('',(3.00000000000001,-0.245,2.64999999999999));
#995=CARTESIAN_POINT('',(2.90000000000001,-0.345,2.64999999999999));
#996=CARTESIAN_POINT('Origin',(2.90000000000001,-0.245,2.64999999999999));
#997=CARTESIAN_POINT('',(2.90000000000001,-0.245,2.74999999999999));
#998=CARTESIAN_POINT('Origin',(2.90000000000001,-0.245,2.64999999999999));
#999=CARTESIAN_POINT('Origin',(2.90000000000001,-0.245,2.64999999999999));
#1000=CARTESIAN_POINT('Origin',(2.90000000000001,0.,2.64999999999999));
#1001=CARTESIAN_POINT('',(2.90000000000001,0.,2.74999999999999));
#1002=CARTESIAN_POINT('',(3.00000000000001,0.,2.64999999999999));
#1003=CARTESIAN_POINT('Origin',(-2.89999999999998,0.245,2.64999999999999));
#1004=CARTESIAN_POINT('',(-2.99999999999998,0.245,2.64999999999999));
#1005=CARTESIAN_POINT('',(-2.89999999999998,0.345,2.64999999999999));
#1006=CARTESIAN_POINT('Origin',(-2.89999999999998,0.245,2.64999999999999));
#1007=CARTESIAN_POINT('',(-2.89999999999998,0.245,2.74999999999999));
#1008=CARTESIAN_POINT('Origin',(-2.89999999999998,0.245,2.64999999999999));
#1009=CARTESIAN_POINT('Origin',(-2.89999999999998,0.245,2.64999999999999));
#1010=CARTESIAN_POINT('Origin',(-2.89999999999998,-0.245,2.64999999999999));
#1011=CARTESIAN_POINT('',(-2.89999999999998,-0.245,2.74999999999999));
#1012=CARTESIAN_POINT('',(-2.89999999999998,-0.345,2.64999999999999));
#1013=CARTESIAN_POINT('Origin',(-2.89999999999998,-0.245,2.64999999999999));
#1014=CARTESIAN_POINT('',(-2.99999999999998,-0.245,2.64999999999999));
#1015=CARTESIAN_POINT('Origin',(-2.89999999999998,-0.245,2.64999999999999));
#1016=CARTESIAN_POINT('Origin',(-2.89999999999998,-0.245,2.64999999999999));
#1017=CARTESIAN_POINT('Origin',(-2.89999999999998,0.,2.64999999999999));
#1018=CARTESIAN_POINT('',(-2.99999999999998,0.,2.64999999999999));
#1019=CARTESIAN_POINT('',(-2.89999999999998,0.,2.74999999999999));
#1020=CARTESIAN_POINT('Origin',(-2.89999999999999,-0.245,-1.37500000000001));
#1021=CARTESIAN_POINT('',(-2.89999999999999,-0.345,-1.37500000000001));
#1022=CARTESIAN_POINT('',(-2.99999999999999,-0.245,-1.37500000000001));
#1023=CARTESIAN_POINT('Origin',(-1.49999999999998,-0.245,2.64999999999999));
#1024=CARTESIAN_POINT('',(-1.49999999999998,-0.345,2.64999999999999));
#1025=CARTESIAN_POINT('',(-1.49999999999998,-0.245,2.74999999999999));
#1026=CARTESIAN_POINT('Origin',(-1.49999999999998,0.245,2.64999999999999));
#1027=CARTESIAN_POINT('',(-1.49999999999998,0.345,2.64999999999999));
#1028=CARTESIAN_POINT('',(-1.49999999999998,0.245,2.74999999999999));
#1029=CARTESIAN_POINT('Origin',(-2.89999999999999,0.245,-1.37500000000001));
#1030=CARTESIAN_POINT('',(-2.89999999999999,0.345,-1.37500000000001));
#1031=CARTESIAN_POINT('',(-2.99999999999999,0.245,-1.37500000000001));
#1032=CARTESIAN_POINT('Origin',(2.90000000000001,-0.245,1.37499999999999));
#1033=CARTESIAN_POINT('',(2.90000000000001,-0.345,1.37499999999999));
#1034=CARTESIAN_POINT('',(3.00000000000001,-0.245,1.37499999999999));
#1035=CARTESIAN_POINT('Origin',(2.90000000000001,0.245,1.37499999999999));
#1036=CARTESIAN_POINT('',(2.90000000000001,0.345,1.37499999999999));
#1037=CARTESIAN_POINT('',(3.00000000000001,0.245,1.37499999999999));
#1038=CARTESIAN_POINT('Origin',(1.50000000000001,0.245,-2.65000000000002));
#1039=CARTESIAN_POINT('',(1.50000000000001,0.345,-2.65000000000002));
#1040=CARTESIAN_POINT('',(1.50000000000001,0.245,-2.75000000000002));
#1041=CARTESIAN_POINT('Origin',(3.00000000000001,0.,-2.75000000000002));
#1042=CARTESIAN_POINT('Origin',(1.11896493820488E-14,-0.345,-1.11896493820488E-14));
#1043=CARTESIAN_POINT('Origin',(3.00000000000001,0.,2.74999999999999));
#1044=CARTESIAN_POINT('',(3.00000000000001,0.1875,-2.0625));
#1045=CARTESIAN_POINT('Origin',(3.00000000000001,0.,-2.0625));
#1046=CARTESIAN_POINT('',(3.00000000000001,0.1875,-0.687500000000001));
#1047=CARTESIAN_POINT('Origin',(3.00000000000001,0.,-0.687500000000001));
#1048=CARTESIAN_POINT('',(3.00000000000001,0.1875,0.687499999999999));
#1049=CARTESIAN_POINT('Origin',(3.00000000000001,0.,0.687499999999999));
#1050=CARTESIAN_POINT('',(3.00000000000001,0.1875,2.0625));
#1051=CARTESIAN_POINT('Origin',(3.00000000000001,0.,2.0625));
#1052=CARTESIAN_POINT('Origin',(-2.99999999999998,0.,2.74999999999999));
#1053=CARTESIAN_POINT('Origin',(-2.99999999999999,0.,-2.75000000000002));
#1054=CARTESIAN_POINT('',(-2.99999999999999,0.1875,-2.0625));
#1055=CARTESIAN_POINT('Origin',(-2.99999999999999,0.,-2.0625));
#1056=CARTESIAN_POINT('',(-2.99999999999999,0.1875,-0.687499999999999));
#1057=CARTESIAN_POINT('Origin',(-2.99999999999999,0.,-0.687499999999999));
#1058=CARTESIAN_POINT('',(-2.99999999999999,0.1875,0.687499999999999));
#1059=CARTESIAN_POINT('Origin',(-2.99999999999999,0.,0.687499999999999));
#1060=CARTESIAN_POINT('',(-2.99999999999999,0.1875,2.0625));
#1061=CARTESIAN_POINT('Origin',(-2.99999999999999,0.,2.0625));
#1062=CARTESIAN_POINT('Origin',(1.11896493820488E-14,0.345,-1.11896493820488E-14));
#1063=CARTESIAN_POINT('Origin',(-3.24999999999998,0.,2.0625));
#1064=CARTESIAN_POINT('',(-3.24999999999998,0.1875,2.0625));
#1065=CARTESIAN_POINT('',(-3.24999999999998,0.1875,2.0625));
#1066=CARTESIAN_POINT('',(-3.24999999999998,-2.29621274840129E-17,1.875));
#1067=CARTESIAN_POINT('Origin',(-3.24999999999998,0.,2.0625));
#1068=CARTESIAN_POINT('Origin',(-3.24999999999998,0.,2.0625));
#1069=CARTESIAN_POINT('Origin',(-3.24999999999998,0.,2.0625));
#1070=CARTESIAN_POINT('',(9.00000000000002,0.1875,2.0625));
#1071=CARTESIAN_POINT('Origin',(9.00000000000002,0.,2.0625));
#1072=CARTESIAN_POINT('',(-3.24999999999998,0.1875,2.0625));
#1073=CARTESIAN_POINT('Origin',(3.25000000000001,0.,0.687499999999999));
#1074=CARTESIAN_POINT('',(-3.24999999999999,0.1875,0.687499999999999));
#1075=CARTESIAN_POINT('',(-3.24999999999999,-2.29621274840129E-17,0.874999999999999));
#1076=CARTESIAN_POINT('Origin',(-3.24999999999999,0.,0.687499999999999));
#1077=CARTESIAN_POINT('',(3.25000000000001,0.1875,0.687499999999999));
#1078=CARTESIAN_POINT('Origin',(-3.24999999999999,0.,0.687499999999999));
#1079=CARTESIAN_POINT('Origin',(3.25000000000001,0.,0.687499999999999));
#1080=CARTESIAN_POINT('',(3.25000000000001,0.1875,0.687499999999999));
#1081=CARTESIAN_POINT('',(3.25000000000001,0.1875,0.687499999999999));
#1082=CARTESIAN_POINT('',(3.25000000000001,2.29621274840129E-17,0.499999999999999));
#1083=CARTESIAN_POINT('Origin',(3.25000000000001,0.,0.687499999999999));
#1084=CARTESIAN_POINT('Origin',(3.25000000000001,0.,0.687499999999999));
#1085=CARTESIAN_POINT('Origin',(-3.24999999999999,0.,-0.687499999999999));
#1086=CARTESIAN_POINT('',(-3.24999999999999,0.1875,-0.687499999999999));
#1087=CARTESIAN_POINT('',(-3.24999999999999,0.1875,-0.687499999999999));
#1088=CARTESIAN_POINT('',(-3.24999999999999,-2.29621274840129E-17,-0.874999999999999));
#1089=CARTESIAN_POINT('Origin',(-3.24999999999999,0.,-0.687499999999999));
#1090=CARTESIAN_POINT('Origin',(-3.24999999999999,0.,-0.687499999999999));
#1091=CARTESIAN_POINT('Origin',(-3.24999999999999,0.,-0.687499999999999));
#1092=CARTESIAN_POINT('',(3.25000000000001,2.29621274840129E-17,-0.500000000000001));
#1093=CARTESIAN_POINT('',(3.25000000000001,0.1875,-0.687500000000001));
#1094=CARTESIAN_POINT('Origin',(3.25000000000001,0.,-0.687500000000001));
#1095=CARTESIAN_POINT('Origin',(3.25000000000001,0.,-0.687500000000001));
#1096=CARTESIAN_POINT('',(-3.24999999999999,0.1875,-0.687499999999999));
#1097=CARTESIAN_POINT('Origin',(9.00000000000001,0.,-2.0625));
#1098=CARTESIAN_POINT('',(-3.24999999999999,0.1875,-2.0625));
#1099=CARTESIAN_POINT('',(-3.24999999999999,-2.29621274840129E-17,-1.875));
#1100=CARTESIAN_POINT('Origin',(-3.24999999999999,0.,-2.0625));
#1101=CARTESIAN_POINT('',(9.00000000000001,0.1875,-2.0625));
#1102=CARTESIAN_POINT('Origin',(-3.24999999999999,0.,-2.0625));
#1103=CARTESIAN_POINT('Origin',(9.00000000000001,0.,-2.0625));
#1104=CARTESIAN_POINT('',(9.00000000000001,0.1875,-2.0625));
#1105=CARTESIAN_POINT('',(9.00000000000001,0.1875,-2.0625));
#1106=CARTESIAN_POINT('Origin',(9.00000000000001,0.,-2.0625));
#1107=CARTESIAN_POINT('Origin',(-3.24999999999999,0.,1.375));
#1108=CARTESIAN_POINT('Origin',(-3.24999999999999,-2.29621274840129E-17,
1.375));
#1109=CARTESIAN_POINT('Origin',(3.25000000000001,0.,-1.04902962956708E-15));
#1110=CARTESIAN_POINT('Origin',(3.25000000000001,2.29621274840129E-17,-1.04902962956708E-15));
#1111=CARTESIAN_POINT('Origin',(-3.24999999999999,0.,-1.375));
#1112=CARTESIAN_POINT('Origin',(-3.24999999999999,-2.29621274840129E-17,
-1.375));
#1113=CARTESIAN_POINT('Origin',(9.00000000000001,0.,2.0625));
#1114=CARTESIAN_POINT('Origin',(9.00000000000001,0.,-2.0625));
#1115=UNCERTAINTY_MEASURE_WITH_UNIT(LENGTH_MEASURE(0.000393700787401575),
#1121,'DISTANCE_ACCURACY_VALUE',
'Maximum model space distance between geometric entities at asserted c
onnectivities');
#1116=UNCERTAINTY_MEASURE_WITH_UNIT(LENGTH_MEASURE(0.000393700787401575),
#1121,'DISTANCE_ACCURACY_VALUE',
'Maximum model space distance between geometric entities at asserted c
onnectivities');
#1117=(
GEOMETRIC_REPRESENTATION_CONTEXT(3)
GLOBAL_UNCERTAINTY_ASSIGNED_CONTEXT((#1115))
GLOBAL_UNIT_ASSIGNED_CONTEXT((#1121,#1125,#1126))
REPRESENTATION_CONTEXT('','3D')
);
#1118=(
GEOMETRIC_REPRESENTATION_CONTEXT(3)
GLOBAL_UNCERTAINTY_ASSIGNED_CONTEXT((#1116))
GLOBAL_UNIT_ASSIGNED_CONTEXT((#1121,#1125,#1126))
REPRESENTATION_CONTEXT('','3D')
);
#1119=DIMENSIONAL_EXPONENTS(1.,0.,0.,0.,0.,0.,0.);
#1120=DIMENSIONAL_EXPONENTS(0.,1.,0.,0.,0.,0.,0.);
#1121=(
CONVERSION_BASED_UNIT('inch',#1124)
LENGTH_UNIT()
NAMED_UNIT(#1119)
);
#1122=(
LENGTH_UNIT()
NAMED_UNIT(*)
SI_UNIT(.MILLI.,.METRE.)
);
#1123=(
LENGTH_UNIT()
NAMED_UNIT(*)
SI_UNIT(.CENTI.,.METRE.)
);
#1124=LENGTH_MEASURE_WITH_UNIT(LENGTH_MEASURE(25.4),#1122);
#1125=(
NAMED_UNIT(*)
PLANE_ANGLE_UNIT()
SI_UNIT($,.RADIAN.)
);
#1126=(
NAMED_UNIT(*)
SI_UNIT($,.STERADIAN.)
SOLID_ANGLE_UNIT()
);
#1127=SHAPE_DEFINITION_REPRESENTATION(#1128,#1129);
#1128=PRODUCT_DEFINITION_SHAPE('',$,#1131);
#1129=SHAPE_REPRESENTATION('',(#649),#1117);
#1130=PRODUCT_DEFINITION_CONTEXT('part definition',#1135,'design');
#1131=PRODUCT_DEFINITION('180-20-6C','180-20-6C',#1132,#1130);
#1132=PRODUCT_DEFINITION_FORMATION('',$,#1137);
#1133=PRODUCT_RELATED_PRODUCT_CATEGORY('180-20-6C','180-20-6C',(#1137));
#1134=APPLICATION_PROTOCOL_DEFINITION('international standard',
'automotive_design',2009,#1135);
#1135=APPLICATION_CONTEXT(
'Core Data for Automotive Mechanical Design Process');
#1136=PRODUCT_CONTEXT('part definition',#1135,'mechanical');
#1137=PRODUCT('180-20-6C','180-20-6C',$,(#1136));
#1138=SURFACE_STYLE_RENDERING_WITH_PROPERTIES($,#1161,(#1140));
#1139=SURFACE_STYLE_RENDERING_WITH_PROPERTIES($,#1162,(#1141));
#1140=SURFACE_STYLE_TRANSPARENT(0.);
#1141=SURFACE_STYLE_TRANSPARENT(0.);
#1142=PRESENTATION_STYLE_ASSIGNMENT((#1145));
#1143=PRESENTATION_STYLE_ASSIGNMENT((#1146));
#1144=PRESENTATION_STYLE_ASSIGNMENT((#1147));
#1145=SURFACE_STYLE_USAGE(.BOTH.,#1148);
#1146=SURFACE_STYLE_USAGE(.BOTH.,#1149);
#1147=SURFACE_STYLE_USAGE(.BOTH.,#1150);
#1148=SURFACE_SIDE_STYLE('',(#1151));
#1149=SURFACE_SIDE_STYLE('',(#1152,#1138));
#1150=SURFACE_SIDE_STYLE('',(#1153,#1139));
#1151=SURFACE_STYLE_FILL_AREA(#1154);
#1152=SURFACE_STYLE_FILL_AREA(#1155);
#1153=SURFACE_STYLE_FILL_AREA(#1156);
#1154=FILL_AREA_STYLE('',(#1157));
#1155=FILL_AREA_STYLE('',(#1158));
#1156=FILL_AREA_STYLE('',(#1159));
#1157=FILL_AREA_STYLE_COLOUR('',#1160);
#1158=FILL_AREA_STYLE_COLOUR('',#1161);
#1159=FILL_AREA_STYLE_COLOUR('',#1162);
#1160=COLOUR_RGB('',0.0627450980392157,0.415686274509804,0.623529411764706);
#1161=COLOUR_RGB('',0.96078431372549,0.96078431372549,0.96078431372549);
#1162=COLOUR_RGB('',1.,0.996078431372549,0.964705882352941);
ENDSEC;
END-ISO-10303-21;
