ISO-10303-21;
HEADER;
FILE_DESCRIPTION (( 'STEP AP203' ),
    '1' );
FILE_NAME ('94669A196_Aluminum Unthreaded Spacer.STEP',
    '2026-01-08T22:17:10',
    ( 'McMaster Carr Supply' ),
    ( 'McMaster Carr Supply' ),
    'SwSTEP 2.0',
    'SolidWorks 2024',
    '' );
FILE_SCHEMA (( 'CONFIG_CONTROL_DESIGN' ));
ENDSEC;

DATA;
#1 = DIRECTION ( 'NONE',  ( 1.000000000000000000, 0.000000000000000000, 0.000000000000000000 ) ) ;
#2 = FACE_OUTER_BOUND ( 'NONE', #126, .T. ) ;
#3 = CARTESIAN_POINT ( 'NONE',  ( -3.150000000000000355, 3.857637417314163182E-16, 14.49749999999998984 ) ) ;
#4 = EDGE_CURVE ( 'NONE', #254, #298, #272, .T. ) ;
#5 = DIRECTION ( 'NONE',  ( 0.000000000000000000, 0.000000000000000000, 1.000000000000000000 ) ) ;
#6 = AXIS2_PLACEMENT_3D ( 'NONE', #248, #114, #416 ) ;
#7 = APPROVAL_PERSON_ORGANIZATION ( #17, #106, #166 ) ;
#8 = DIRECTION ( 'NONE',  ( 0.000000000000000000, 0.000000000000000000, 1.000000000000000000 ) ) ;
#9 = VERTEX_POINT ( 'NONE', #443 ) ;
#10 =( LENGTH_UNIT ( ) NAMED_UNIT ( * ) SI_UNIT ( .MILLI., .METRE. ) );
#11 = EDGE_LOOP ( 'NONE', ( #434, #312, #228, #323 ) ) ;
#12 = FACE_OUTER_BOUND ( 'NONE', #230, .T. ) ;
#13 = ORIENTED_EDGE ( 'NONE', *, *, #444, .T. ) ;
#14 = CIRCLE ( 'NONE', #6, 3.652500000000009628 ) ;
#15 = AXIS2_PLACEMENT_3D ( 'NONE', #415, #282, #41 ) ;
#16 = ORIENTED_EDGE ( 'NONE', *, *, #73, .F. ) ;
#17 = PERSON_AND_ORGANIZATION ( #119, #430 ) ;
#18 = ORIENTED_EDGE ( 'NONE', *, *, #189, .F. ) ;
#19 = EDGE_CURVE ( 'NONE', #298, #9, #101, .T. ) ;
#20 = DIRECTION ( 'NONE',  ( 0.000000000000000000, 0.000000000000000000, 1.000000000000000000 ) ) ;
#21 = VECTOR ( 'NONE', #256, 1000.000000000000114 ) ;
#22 = APPROVAL_PERSON_ORGANIZATION ( #413, #130, #445 ) ;
#23 = COORDINATED_UNIVERSAL_TIME_OFFSET ( 6, 0, .BEHIND. ) ;
#24 = CIRCLE ( 'NONE', #82, 6.500000000000000888 ) ;
#25 = DIRECTION ( 'NONE',  ( 1.000000000000000000, 0.000000000000000000, 0.000000000000000000 ) ) ;
#26 = ADVANCED_BREP_SHAPE_REPRESENTATION ( '94669A196_Aluminum Unthreaded Spacer', ( #370, #182 ), #396 ) ;
#27 = APPROVAL_STATUS ( 'not_yet_approved' ) ;
#28 = VERTEX_POINT ( 'NONE', #273 ) ;
#29 = PERSON_AND_ORGANIZATION ( #119, #430 ) ;
#30 = ORIENTED_EDGE ( 'NONE', *, *, #266, .T. ) ;
#31 = AXIS2_PLACEMENT_3D ( 'NONE', #368, #5, #79 ) ;
#32 = DIRECTION ( 'NONE',  ( -0.000000000000000000, -0.000000000000000000, -1.000000000000000000 ) ) ;
#33 = CARTESIAN_POINT ( 'NONE',  ( 3.652500000000002967, 4.473022433885711305E-16, -15.00000000000000000 ) ) ;
#34 = DIRECTION ( 'NONE',  ( -0.000000000000000000, -0.000000000000000000, -1.000000000000000000 ) ) ;
#35 = EDGE_CURVE ( 'NONE', #378, #298, #238, .T. ) ;
#36 = CARTESIAN_POINT ( 'NONE',  ( 0.000000000000000000, 0.000000000000000000, -14.66499999999999737 ) ) ;
#37 = CIRCLE ( 'NONE', #107, 6.500000000000000888 ) ;
#38 = CARTESIAN_POINT ( 'NONE',  ( 3.652500000000002967, 4.473022433885711305E-16, -15.00000000000000000 ) ) ;
#39 = EDGE_CURVE ( 'NONE', #122, #365, #288, .T. ) ;
#40 = ORIENTED_EDGE ( 'NONE', *, *, #379, .F. ) ;
#41 = DIRECTION ( 'NONE',  ( 1.000000000000000000, 0.000000000000000000, 0.000000000000000000 ) ) ;
#42 = CARTESIAN_POINT ( 'NONE',  ( -3.150000000000000355, 3.857637417314163182E-16, -15.00000000000000000 ) ) ;
#43 = ORIENTED_EDGE ( 'NONE', *, *, #290, .F. ) ;
#44 = LINE ( 'NONE', #363, #121 ) ;
#45 = ORIENTED_EDGE ( 'NONE', *, *, #187, .T. ) ;
#46 = LINE ( 'NONE', #42, #68 ) ;
#47 = VERTEX_POINT ( 'NONE', #93 ) ;
#48 = CARTESIAN_POINT ( 'NONE',  ( 0.000000000000000000, 0.000000000000000000, 14.49749999999998984 ) ) ;
#49 = ORIENTED_EDGE ( 'NONE', *, *, #144, .F. ) ;
#50 = AXIS2_PLACEMENT_3D ( 'NONE', #63, #58, #212 ) ;
#51 = DIRECTION ( 'NONE',  ( 1.000000000000000000, 0.000000000000000000, 0.000000000000000000 ) ) ;
#52 = VERTEX_POINT ( 'NONE', #374 ) ;
#53 = EDGE_CURVE ( 'NONE', #47, #254, #24, .T. ) ;
#54 = CC_DESIGN_PERSON_AND_ORGANIZATION_ASSIGNMENT ( #237, #343, ( #280 ) ) ;
#55 = CALENDAR_DATE ( 2026, 8, 1 ) ;
#56 = ORIENTED_EDGE ( 'NONE', *, *, #71, .F. ) ;
#57 = CALENDAR_DATE ( 2026, 8, 1 ) ;
#58 = DIRECTION ( 'NONE',  ( 0.000000000000000000, 0.000000000000000000, 1.000000000000000000 ) ) ;
#59 = ADVANCED_FACE ( 'NONE', ( #406 ), #206, .F. ) ;
#60 = EDGE_CURVE ( 'NONE', #221, #378, #149, .T. ) ;
#61 = APPROVAL_DATE_TIME ( #441, #130 ) ;
#62 = CIRCLE ( 'NONE', #447, 6.500000000000000888 ) ;
#63 = CARTESIAN_POINT ( 'NONE',  ( 0.000000000000000000, 0.000000000000000000, 14.49749999999998984 ) ) ;
#64 = DIRECTION ( 'NONE',  ( 0.000000000000000000, 0.000000000000000000, 1.000000000000000000 ) ) ;
#65 = DIRECTION ( 'NONE',  ( 1.000000000000000000, 0.000000000000000000, 0.000000000000000000 ) ) ;
#66 = COORDINATED_UNIVERSAL_TIME_OFFSET ( 6, 0, .BEHIND. ) ;
#67 = CARTESIAN_POINT ( 'NONE',  ( 0.000000000000000000, 0.000000000000000000, -14.49749999999999694 ) ) ;
#68 = VECTOR ( 'NONE', #87, 1000.000000000000000 ) ;
#69 = CC_DESIGN_APPROVAL ( #130, ( #146 ) ) ;
#70 = CARTESIAN_POINT ( 'NONE',  ( -3.652500000000002967, 0.000000000000000000, -15.00000000000000000 ) ) ;
#71 = EDGE_CURVE ( 'NONE', #9, #298, #62, .T. ) ;
#72 = CARTESIAN_POINT ( 'NONE',  ( 0.000000000000000000, 0.000000000000000000, -15.00000000000000000 ) ) ;
#73 = EDGE_CURVE ( 'NONE', #28, #158, #198, .T. ) ;
#74 = CARTESIAN_POINT ( 'NONE',  ( 0.000000000000000000, 0.000000000000000000, 15.00000000000000000 ) ) ;
#75 = APPLICATION_CONTEXT ( 'configuration controlled 3d designs of mechanical parts and assemblies' ) ;
#76 = FACE_OUTER_BOUND ( 'NONE', #397, .T. ) ;
#77 = AXIS2_PLACEMENT_3D ( 'NONE', #324, #246, #354 ) ;
#78 = DIRECTION ( 'NONE',  ( -0.000000000000000000, -0.000000000000000000, 1.000000000000000000 ) ) ;
#79 = DIRECTION ( 'NONE',  ( 1.000000000000000000, 0.000000000000000000, 0.000000000000000000 ) ) ;
#80 = ORIENTED_EDGE ( 'NONE', *, *, #104, .F. ) ;
#81 = VERTEX_POINT ( 'NONE', #340 ) ;
#82 = AXIS2_PLACEMENT_3D ( 'NONE', #442, #100, #202 ) ;
#83 = FACE_OUTER_BOUND ( 'NONE', #204, .T. ) ;
#84 = ORIENTED_EDGE ( 'NONE', *, *, #236, .T. ) ;
#85 = FACE_OUTER_BOUND ( 'NONE', #11, .T. ) ;
#86 = ORIENTED_EDGE ( 'NONE', *, *, #189, .T. ) ;
#87 = DIRECTION ( 'NONE',  ( 0.000000000000000000, 0.000000000000000000, 1.000000000000000000 ) ) ;
#88 = ADVANCED_FACE ( 'NONE', ( #347 ), #377, .F. ) ;
#89 = ORIENTED_EDGE ( 'NONE', *, *, #176, .F. ) ;
#90 = PRODUCT_RELATED_PRODUCT_CATEGORY ( 'detail', '', ( #390 ) ) ;
#91 = APPROVAL_PERSON_ORGANIZATION ( #29, #440, #307 ) ;
#92 = DATE_AND_TIME ( #375, #171 ) ;
#93 = CARTESIAN_POINT ( 'NONE',  ( -6.500000000000000888, 7.960204194457796463E-16, -14.66499999999999737 ) ) ;
#94 = DATE_TIME_ROLE ( 'creation_date' ) ;
#95 = DIRECTION ( 'NONE',  ( 0.000000000000000000, 0.000000000000000000, -1.000000000000000000 ) ) ;
#96 = SECURITY_CLASSIFICATION_LEVEL ( 'unclassified' ) ;
#97 = ORIENTED_EDGE ( 'NONE', *, *, #220, .T. ) ;
#98 = AXIS2_PLACEMENT_3D ( 'NONE', #129, #229, #328 ) ;
#99 = AXIS2_PLACEMENT_3D ( 'NONE', #143, #277, #103 ) ;
#100 = DIRECTION ( 'NONE',  ( -0.000000000000000000, -0.000000000000000000, 1.000000000000000000 ) ) ;
#101 = CIRCLE ( 'NONE', #418, 6.500000000000000888 ) ;
#102 = PERSON_AND_ORGANIZATION ( #119, #430 ) ;
#103 = DIRECTION ( 'NONE',  ( 1.000000000000000000, 0.000000000000000000, 0.000000000000000000 ) ) ;
#104 = EDGE_CURVE ( 'NONE', #52, #259, #319, .T. ) ;
#105 = LINE ( 'NONE', #38, #432 ) ;
#106 = APPROVAL ( #27, 'UNSPECIFIED' ) ;
#107 = AXIS2_PLACEMENT_3D ( 'NONE', #357, #400, #261 ) ;
#108 = DIRECTION ( 'NONE',  ( 0.7071067811865469066, 0.000000000000000000, 0.7071067811865482389 ) ) ;
#109 = VECTOR ( 'NONE', #245, 1000.000000000000000 ) ;
#110 = CARTESIAN_POINT ( 'NONE',  ( 0.000000000000000000, 0.000000000000000000, -14.66499999999999737 ) ) ;
#111 = DESIGN_CONTEXT ( 'detailed design', #321, 'design' ) ;
#112 = DIRECTION ( 'NONE',  ( 1.000000000000000000, 0.000000000000000000, 0.000000000000000000 ) ) ;
#113 = AXIS2_PLACEMENT_3D ( 'NONE', #263, #194, #51 ) ;
#114 = DIRECTION ( 'NONE',  ( -0.000000000000000000, -0.000000000000000000, -1.000000000000000000 ) ) ;
#115 = EDGE_LOOP ( 'NONE', ( #40, #369, #427, #338 ) ) ;
#116 = DIRECTION ( 'NONE',  ( 0.000000000000000000, 0.000000000000000000, 1.000000000000000000 ) ) ;
#117 = DIRECTION ( 'NONE',  ( 1.000000000000000000, 0.000000000000000000, 0.000000000000000000 ) ) ;
#118 = ORIENTED_EDGE ( 'NONE', *, *, #348, .F. ) ;
#119 = PERSON ( 'UNSPECIFIED', 'UNSPECIFIED', 'UNSPECIFIED', ('UNSPECIFIED'), ('UNSPECIFIED'), ('UNSPECIFIED') ) ;
#120 =( NAMED_UNIT ( * ) SI_UNIT ( $, .STERADIAN. ) SOLID_ANGLE_UNIT ( ) );
#121 = VECTOR ( 'NONE', #116, 1000.000000000000000 ) ;
#122 = VERTEX_POINT ( 'NONE', #175 ) ;
#123 = LOCAL_TIME ( 16, 17, 9.000000000000000000, #66 ) ;
#124 = CIRCLE ( 'NONE', #15, 6.165000000000003588 ) ;
#125 = CARTESIAN_POINT ( 'NONE',  ( 0.000000000000000000, 0.000000000000000000, 15.00000000000000000 ) ) ;
#126 = EDGE_LOOP ( 'NONE', ( #16, #223, #233, #401 ) ) ;
#127 = ADVANCED_FACE ( 'NONE', ( #314 ), #446, .T. ) ;
#128 = UNCERTAINTY_MEASURE_WITH_UNIT (LENGTH_MEASURE( 1.000000000000000082E-05 ), #10, 'distance_accuracy_value', 'NONE');
#129 = CARTESIAN_POINT ( 'NONE',  ( 0.000000000000000000, 0.000000000000000000, -15.00000000000000000 ) ) ;
#130 = APPROVAL ( #373, 'UNSPECIFIED' ) ;
#131 = VERTEX_POINT ( 'NONE', #33 ) ;
#132 = CARTESIAN_POINT ( 'NONE',  ( 0.000000000000000000, 0.000000000000000000, 0.000000000000000000 ) ) ;
#133 = ORIENTED_EDGE ( 'NONE', *, *, #35, .F. ) ;
#134 = CIRCLE ( 'NONE', #148, 6.164999999999999147 ) ;
#135 = CARTESIAN_POINT ( 'NONE',  ( 6.500000000000000888, 0.000000000000000000, -15.00000000000000000 ) ) ;
#136 = DATE_AND_TIME ( #337, #123 ) ;
#137 = ORIENTED_EDGE ( 'NONE', *, *, #210, .F. ) ;
#138 = DIRECTION ( 'NONE',  ( -0.000000000000000000, -0.000000000000000000, -1.000000000000000000 ) ) ;
#139 = CONICAL_SURFACE ( 'NONE', #154, 6.500000000000000888, 0.7853981633974469467 ) ;
#140 = DATE_AND_TIME ( #55, #367 ) ;
#141 = EDGE_CURVE ( 'NONE', #378, #221, #124, .T. ) ;
#142 = AXIS2_PLACEMENT_3D ( 'NONE', #235, #138, #211 ) ;
#143 = CARTESIAN_POINT ( 'NONE',  ( 0.000000000000000000, 0.000000000000000000, -15.00000000000000000 ) ) ;
#144 = EDGE_CURVE ( 'NONE', #122, #131, #105, .T. ) ;
#145 = CARTESIAN_POINT ( 'NONE',  ( 6.164999999999999147, 0.000000000000000000, -15.00000000000000000 ) ) ;
#146 = PRODUCT_DEFINITION ( 'UNKNOWN', '', #280, #111 ) ;
#147 = DIRECTION ( 'NONE',  ( 1.000000000000000000, 0.000000000000000000, 0.000000000000000000 ) ) ;
#148 = AXIS2_PLACEMENT_3D ( 'NONE', #351, #384, #1 ) ;
#149 = CIRCLE ( 'NONE', #411, 6.165000000000003588 ) ;
#150 = DIRECTION ( 'NONE',  ( -1.000000000000000000, 0.000000000000000000, 0.000000000000000000 ) ) ;
#151 = ADVANCED_FACE ( 'NONE', ( #350 ), #334, .T. ) ;
#152 = DIRECTION ( 'NONE',  ( -0.7071067811865469066, 8.659560562354926695E-17, 0.7071067811865482389 ) ) ;
#153 = DIRECTION ( 'NONE',  ( 0.000000000000000000, 0.000000000000000000, -1.000000000000000000 ) ) ;
#154 = AXIS2_PLACEMENT_3D ( 'NONE', #36, #219, #317 ) ;
#155 = FACE_OUTER_BOUND ( 'NONE', #195, .T. ) ;
#156 = EDGE_CURVE ( 'NONE', #327, #131, #297, .T. ) ;
#157 = CARTESIAN_POINT ( 'NONE',  ( 3.150000000000000355, 0.000000000000000000, 14.49749999999998984 ) ) ;
#158 = VERTEX_POINT ( 'NONE', #145 ) ;
#159 = ORIENTED_EDGE ( 'NONE', *, *, #266, .F. ) ;
#160 = CARTESIAN_POINT ( 'NONE',  ( -3.150000000000000355, 3.857637417314163182E-16, -14.49749999999999694 ) ) ;
#161 = AXIS2_PLACEMENT_3D ( 'NONE', #398, #292, #426 ) ;
#162 = CIRCLE ( 'NONE', #383, 3.150000000000000355 ) ;
#163 = ORIENTED_EDGE ( 'NONE', *, *, #73, .T. ) ;
#164 = AXIS2_PLACEMENT_3D ( 'NONE', #181, #420, #318 ) ;
#165 = EDGE_LOOP ( 'NONE', ( #137, #329, #393, #303 ) ) ;
#166 = APPROVAL_ROLE ( '' ) ;
#167 = ORIENTED_EDGE ( 'NONE', *, *, #39, .T. ) ;
#168 = DATE_TIME_ROLE ( 'classification_date' ) ;
#169 = ORIENTED_EDGE ( 'NONE', *, *, #35, .T. ) ;
#170 = CIRCLE ( 'NONE', #267, 3.652500000000002967 ) ;
#171 = LOCAL_TIME ( 16, 17, 9.000000000000000000, #239 ) ;
#172 = DIRECTION ( 'NONE',  ( 1.000000000000000000, 0.000000000000000000, 0.000000000000000000 ) ) ;
#173 = DIRECTION ( 'NONE',  ( -1.000000000000000000, 0.000000000000000000, 0.000000000000000000 ) ) ;
#174 = PERSON_AND_ORGANIZATION_ROLE ( 'design_owner' ) ;
#175 = CARTESIAN_POINT ( 'NONE',  ( 3.150000000000000355, 0.000000000000000000, -14.49749999999999694 ) ) ;
#176 = EDGE_CURVE ( 'NONE', #28, #47, #320, .T. ) ;
#177 = CC_DESIGN_APPROVAL ( #106, ( #431 ) ) ;
#178 = EDGE_LOOP ( 'NONE', ( #226, #169, #56, #437 ) ) ;
#179 = VECTOR ( 'NONE', #376, 1000.000000000000114 ) ;
#180 = CARTESIAN_POINT ( 'NONE',  ( -6.165000000000003588, 0.000000000000000000, 15.00000000000000000 ) ) ;
#181 = CARTESIAN_POINT ( 'NONE',  ( 0.000000000000000000, 0.000000000000000000, 14.49749999999998984 ) ) ;
#182 = AXIS2_PLACEMENT_3D ( 'NONE', #132, #64, #339 ) ;
#183 = CC_DESIGN_APPROVAL ( #440, ( #280 ) ) ;
#184 = AXIS2_PLACEMENT_3D ( 'NONE', #404, #32, #173 ) ;
#185 = CARTESIAN_POINT ( 'NONE',  ( -6.500000000000000888, 7.960204194457794491E-16, -14.66499999999999737 ) ) ;
#186 = CARTESIAN_POINT ( 'NONE',  ( -6.500000000000000888, 7.960204194457796463E-16, -15.00000000000000000 ) ) ;
#187 = EDGE_CURVE ( 'NONE', #81, #439, #252, .T. ) ;
#188 = DIRECTION ( 'NONE',  ( -0.7071067811865472397, 0.000000000000000000, -0.7071067811865479058 ) ) ;
#189 = EDGE_CURVE ( 'NONE', #259, #52, #14, .T. ) ;
#190 = CARTESIAN_POINT ( 'NONE',  ( 0.000000000000000000, 0.000000000000000000, 15.00000000000000000 ) ) ;
#191 = EDGE_LOOP ( 'NONE', ( #197, #355, #362, #200 ) ) ;
#192 = LINE ( 'NONE', #222, #21 ) ;
#193 = ORIENTED_EDGE ( 'NONE', *, *, #348, .T. ) ;
#194 = DIRECTION ( 'NONE',  ( 0.000000000000000000, 0.000000000000000000, 1.000000000000000000 ) ) ;
#195 = EDGE_LOOP ( 'NONE', ( #133, #257, #13, #358 ) ) ;
#196 = AXIS2_PLACEMENT_3D ( 'NONE', #72, #34, #150 ) ;
#197 = ORIENTED_EDGE ( 'NONE', *, *, #39, .F. ) ;
#198 = CIRCLE ( 'NONE', #142, 6.164999999999999147 ) ;
#199 = CARTESIAN_POINT ( 'NONE',  ( 0.000000000000000000, 0.000000000000000000, -15.00000000000000000 ) ) ;
#200 = ORIENTED_EDGE ( 'NONE', *, *, #236, .F. ) ;
#201 = APPROVAL_DATE_TIME ( #209, #440 ) ;
#202 = DIRECTION ( 'NONE',  ( 1.000000000000000000, 0.000000000000000000, 0.000000000000000000 ) ) ;
#203 = SHAPE_DEFINITION_REPRESENTATION ( #386, #26 ) ;
#204 = EDGE_LOOP ( 'NONE', ( #167, #395, #45, #331 ) ) ;
#205 = VECTOR ( 'NONE', #108, 999.9999999999998863 ) ;
#206 = CONICAL_SURFACE ( 'NONE', #50, 3.150000000000000355, 0.7853981633974473908 ) ;
#207 = PERSON_AND_ORGANIZATION ( #119, #430 ) ;
#208 = ORIENTED_EDGE ( 'NONE', *, *, #104, .T. ) ;
#209 = DATE_AND_TIME ( #242, #341 ) ;
#210 = EDGE_CURVE ( 'NONE', #47, #9, #382, .T. ) ;
#211 = DIRECTION ( 'NONE',  ( 1.000000000000000000, 0.000000000000000000, 0.000000000000000000 ) ) ;
#212 = DIRECTION ( 'NONE',  ( 1.000000000000000000, 0.000000000000000000, 0.000000000000000000 ) ) ;
#213 = CARTESIAN_POINT ( 'NONE',  ( 0.000000000000000000, 0.000000000000000000, -14.49749999999999694 ) ) ;
#214 = DIRECTION ( 'NONE',  ( -1.000000000000000000, 0.000000000000000000, 0.000000000000000000 ) ) ;
#215 = CARTESIAN_POINT ( 'NONE',  ( 0.000000000000000000, 0.000000000000000000, 14.49749999999998984 ) ) ;
#216 = CC_DESIGN_DATE_AND_TIME_ASSIGNMENT ( #140, #94, ( #146 ) ) ;
#217 = DIRECTION ( 'NONE',  ( 0.7071067811865472397, 8.659560562354930393E-17, -0.7071067811865479058 ) ) ;
#218 = ADVANCED_FACE ( 'NONE', ( #2 ), #139, .T. ) ;
#219 = DIRECTION ( 'NONE',  ( -0.000000000000000000, -0.000000000000000000, 1.000000000000000000 ) ) ;
#220 = EDGE_CURVE ( 'NONE', #158, #28, #134, .T. ) ;
#221 = VERTEX_POINT ( 'NONE', #180 ) ;
#222 = CARTESIAN_POINT ( 'NONE',  ( -6.165000000000003588, 0.000000000000000000, 15.00000000000000000 ) ) ;
#223 = ORIENTED_EDGE ( 'NONE', *, *, #176, .T. ) ;
#224 = CONICAL_SURFACE ( 'NONE', #196, 3.652500000000002967, 0.7853981633974479459 ) ;
#225 = DIRECTION ( 'NONE',  ( 1.000000000000000000, 0.000000000000000000, -0.000000000000000000 ) ) ;
#226 = ORIENTED_EDGE ( 'NONE', *, *, #141, .F. ) ;
#227 = CARTESIAN_POINT ( 'NONE',  ( 6.165000000000003588, 7.755075855600615563E-16, 15.00000000000000000 ) ) ;
#228 = ORIENTED_EDGE ( 'NONE', *, *, #71, .T. ) ;
#229 = DIRECTION ( 'NONE',  ( 0.000000000000000000, 0.000000000000000000, 1.000000000000000000 ) ) ;
#230 = EDGE_LOOP ( 'NONE', ( #97, #163 ) ) ;
#231 = PLANE ( 'NONE',  #161 ) ;
#232 = VECTOR ( 'NONE', #188, 1000.000000000000000 ) ;
#233 = ORIENTED_EDGE ( 'NONE', *, *, #336, .F. ) ;
#234 = COORDINATED_UNIVERSAL_TIME_OFFSET ( 6, 0, .BEHIND. ) ;
#235 = CARTESIAN_POINT ( 'NONE',  ( 0.000000000000000000, 0.000000000000000000, -15.00000000000000000 ) ) ;
#236 = EDGE_CURVE ( 'NONE', #365, #327, #410, .T. ) ;
#237 = PERSON_AND_ORGANIZATION ( #119, #430 ) ;
#238 = LINE ( 'NONE', #448, #179 ) ;
#239 = COORDINATED_UNIVERSAL_TIME_OFFSET ( 6, 0, .BEHIND. ) ;
#240 = CARTESIAN_POINT ( 'NONE',  ( 0.000000000000000000, 0.000000000000000000, 15.00000000000000000 ) ) ;
#241 = CONICAL_SURFACE ( 'NONE', #332, 3.150000000000000355, 0.7853981633974473908 ) ;
#242 = CALENDAR_DATE ( 2026, 8, 1 ) ;
#243 = CARTESIAN_POINT ( 'NONE',  ( 0.000000000000000000, 0.000000000000000000, 14.66500000000000092 ) ) ;
#244 = PERSON_AND_ORGANIZATION_ROLE ( 'classification_officer' ) ;
#245 = DIRECTION ( 'NONE',  ( 0.000000000000000000, 0.000000000000000000, 1.000000000000000000 ) ) ;
#246 = DIRECTION ( 'NONE',  ( 0.000000000000000000, 0.000000000000000000, 1.000000000000000000 ) ) ;
#247 = FACE_OUTER_BOUND ( 'NONE', #191, .T. ) ;
#248 = CARTESIAN_POINT ( 'NONE',  ( 0.000000000000000000, 0.000000000000000000, 15.00000000000000000 ) ) ;
#249 = ADVANCED_FACE ( 'NONE', ( #76 ), #241, .F. ) ;
#250 = CARTESIAN_POINT ( 'NONE',  ( 3.150000000000000355, 0.000000000000000000, 14.49749999999998984 ) ) ;
#251 = EDGE_CURVE ( 'NONE', #365, #122, #162, .T. ) ;
#252 = CIRCLE ( 'NONE', #164, 3.150000000000000355 ) ;
#253 = LINE ( 'NONE', #250, #205 ) ;
#254 = VERTEX_POINT ( 'NONE', #322 ) ;
#255 = PLANE ( 'NONE',  #417 ) ;
#256 = DIRECTION ( 'NONE',  ( -0.7071067811865457964, 0.000000000000000000, -0.7071067811865492381 ) ) ;
#257 = ORIENTED_EDGE ( 'NONE', *, *, #60, .F. ) ;
#258 = FACE_OUTER_BOUND ( 'NONE', #264, .T. ) ;
#259 = VERTEX_POINT ( 'NONE', #279 ) ;
#260 = CC_DESIGN_PERSON_AND_ORGANIZATION_ASSIGNMENT ( #305, #403, ( #280 ) ) ;
#261 = DIRECTION ( 'NONE',  ( 1.000000000000000000, 0.000000000000000000, 0.000000000000000000 ) ) ;
#262 = ORIENTED_EDGE ( 'NONE', *, *, #156, .T. ) ;
#263 = CARTESIAN_POINT ( 'NONE',  ( 0.000000000000000000, 0.000000000000000000, -15.00000000000000000 ) ) ;
#264 = EDGE_LOOP ( 'NONE', ( #285, #414 ) ) ;
#265 = APPROVAL_STATUS ( 'not_yet_approved' ) ;
#266 = EDGE_CURVE ( 'NONE', #439, #52, #253, .T. ) ;
#267 = AXIS2_PLACEMENT_3D ( 'NONE', #199, #8, #117 ) ;
#268 = CC_DESIGN_SECURITY_CLASSIFICATION ( #431, ( #280 ) ) ;
#269 = CARTESIAN_POINT ( 'NONE',  ( 0.000000000000000000, 0.000000000000000000, 14.66500000000000092 ) ) ;
#270 = CC_DESIGN_DATE_AND_TIME_ASSIGNMENT ( #136, #168, ( #431 ) ) ;
#271 = APPLICATION_PROTOCOL_DEFINITION ( 'international standard', 'config_control_design', 1994, #75 ) ;
#272 = LINE ( 'NONE', #135, #109 ) ;
#273 = CARTESIAN_POINT ( 'NONE',  ( -6.164999999999999147, 7.755075855600612605E-16, -15.00000000000000000 ) ) ;
#274 = DIRECTION ( 'NONE',  ( 1.000000000000000000, 0.000000000000000000, 0.000000000000000000 ) ) ;
#275 = AXIS2_PLACEMENT_3D ( 'NONE', #74, #153, #214 ) ;
#276 = COORDINATED_UNIVERSAL_TIME_OFFSET ( 6, 0, .BEHIND. ) ;
#277 = DIRECTION ( 'NONE',  ( 0.000000000000000000, 0.000000000000000000, 1.000000000000000000 ) ) ;
#278 = DIRECTION ( 'NONE',  ( 0.000000000000000000, 0.000000000000000000, 1.000000000000000000 ) ) ;
#279 = CARTESIAN_POINT ( 'NONE',  ( -3.652500000000009628, 4.473022433885719193E-16, 15.00000000000000000 ) ) ;
#280 = PRODUCT_DEFINITION_FORMATION_WITH_SPECIFIED_SOURCE ( 'ANY', '', #390, .NOT_KNOWN. ) ;
#281 = LINE ( 'NONE', #3, #402 ) ;
#282 = DIRECTION ( 'NONE',  ( 0.000000000000000000, 0.000000000000000000, 1.000000000000000000 ) ) ;
#283 = ADVANCED_FACE ( 'NONE', ( #247 ), #224, .F. ) ;
#284 = CARTESIAN_POINT ( 'NONE',  ( 6.500000000000000888, 0.000000000000000000, 14.66500000000000092 ) ) ;
#285 = ORIENTED_EDGE ( 'NONE', *, *, #60, .T. ) ;
#286 = VECTOR ( 'NONE', #352, 1000.000000000000000 ) ;
#287 = DIRECTION ( 'NONE',  ( 0.000000000000000000, 0.000000000000000000, -1.000000000000000000 ) ) ;
#288 = CIRCLE ( 'NONE', #360, 3.150000000000000355 ) ;
#289 = CYLINDRICAL_SURFACE ( 'NONE', #113, 3.150000000000000355 ) ;
#290 = EDGE_CURVE ( 'NONE', #81, #259, #281, .T. ) ;
#291 = ORIENTED_EDGE ( 'NONE', *, *, #392, .F. ) ;
#292 = DIRECTION ( 'NONE',  ( 0.000000000000000000, 0.000000000000000000, 1.000000000000000000 ) ) ;
#293 = ORIENTED_EDGE ( 'NONE', *, *, #251, .F. ) ;
#294 = CC_DESIGN_PERSON_AND_ORGANIZATION_ASSIGNMENT ( #207, #438, ( #146 ) ) ;
#295 = CONICAL_SURFACE ( 'NONE', #308, 6.165000000000003588, 0.7853981633974457255 ) ;
#296 = CYLINDRICAL_SURFACE ( 'NONE', #31, 3.150000000000000355 ) ;
#297 = CIRCLE ( 'NONE', #77, 3.652500000000002967 ) ;
#298 = VERTEX_POINT ( 'NONE', #284 ) ;
#299 = EDGE_CURVE ( 'NONE', #158, #254, #389, .T. ) ;
#300 = CLOSED_SHELL ( 'NONE', ( #283, #249, #218, #151, #316, #423, #127, #380, #364, #428, #412, #301, #59, #88 ) ) ;
#301 = ADVANCED_FACE ( 'NONE', ( #385 ), #366, .T. ) ;
#302 = DIRECTION ( 'NONE',  ( 1.000000000000000000, 0.000000000000000000, 0.000000000000000000 ) ) ;
#303 = ORIENTED_EDGE ( 'NONE', *, *, #19, .T. ) ;
#304 = EDGE_CURVE ( 'NONE', #122, #439, #44, .T. ) ;
#305 = PERSON_AND_ORGANIZATION ( #119, #430 ) ;
#306 = ORIENTED_EDGE ( 'NONE', *, *, #290, .T. ) ;
#307 = APPROVAL_ROLE ( '' ) ;
#308 = AXIS2_PLACEMENT_3D ( 'NONE', #125, #287, #435 ) ;
#309 = CARTESIAN_POINT ( 'NONE',  ( 0.000000000000000000, 0.000000000000000000, 15.00000000000000000 ) ) ;
#310 = APPLICATION_PROTOCOL_DEFINITION ( 'international standard', 'config_control_design', 1994, #321 ) ;
#311 = EDGE_LOOP ( 'NONE', ( #262, #193 ) ) ;
#312 = ORIENTED_EDGE ( 'NONE', *, *, #210, .T. ) ;
#313 = MECHANICAL_CONTEXT ( 'NONE', #75, 'mechanical' ) ;
#314 = FACE_OUTER_BOUND ( 'NONE', #165, .T. ) ;
#315 = DIRECTION ( 'NONE',  ( 0.000000000000000000, 0.000000000000000000, -1.000000000000000000 ) ) ;
#316 = ADVANCED_FACE ( 'NONE', ( #83 ), #289, .F. ) ;
#317 = DIRECTION ( 'NONE',  ( 1.000000000000000000, 0.000000000000000000, 0.000000000000000000 ) ) ;
#318 = DIRECTION ( 'NONE',  ( 1.000000000000000000, 0.000000000000000000, 0.000000000000000000 ) ) ;
#319 = CIRCLE ( 'NONE', #353, 3.652500000000009628 ) ;
#320 = LINE ( 'NONE', #185, #388 ) ;
#321 = APPLICATION_CONTEXT ( 'configuration controlled 3d designs of mechanical parts and assemblies' ) ;
#322 = CARTESIAN_POINT ( 'NONE',  ( 6.500000000000000888, 0.000000000000000000, -14.66499999999999737 ) ) ;
#323 = ORIENTED_EDGE ( 'NONE', *, *, #4, .F. ) ;
#324 = CARTESIAN_POINT ( 'NONE',  ( 0.000000000000000000, 0.000000000000000000, -15.00000000000000000 ) ) ;
#325 = CIRCLE ( 'NONE', #407, 3.150000000000000355 ) ;
#326 = DIRECTION ( 'NONE',  ( 0.000000000000000000, 0.000000000000000000, 1.000000000000000000 ) ) ;
#327 = VERTEX_POINT ( 'NONE', #391 ) ;
#328 = DIRECTION ( 'NONE',  ( 1.000000000000000000, 0.000000000000000000, 0.000000000000000000 ) ) ;
#329 = ORIENTED_EDGE ( 'NONE', *, *, #53, .T. ) ;
#330 = FACE_BOUND ( 'NONE', #311, .T. ) ;
#331 = ORIENTED_EDGE ( 'NONE', *, *, #304, .F. ) ;
#332 = AXIS2_PLACEMENT_3D ( 'NONE', #215, #278, #112 ) ;
#333 =( NAMED_UNIT ( * ) PLANE_ANGLE_UNIT ( ) SI_UNIT ( $, .RADIAN. ) );
#334 = CONICAL_SURFACE ( 'NONE', #275, 6.165000000000003588, 0.7853981633974457255 ) ;
#335 = EDGE_LOOP ( 'NONE', ( #49, #293, #84, #118 ) ) ;
#336 = EDGE_CURVE ( 'NONE', #254, #47, #37, .T. ) ;
#337 = CALENDAR_DATE ( 2026, 8, 1 ) ;
#338 = ORIENTED_EDGE ( 'NONE', *, *, #392, .T. ) ;
#339 = DIRECTION ( 'NONE',  ( 1.000000000000000000, 0.000000000000000000, 0.000000000000000000 ) ) ;
#340 = CARTESIAN_POINT ( 'NONE',  ( -3.150000000000000355, 3.857637417314163182E-16, 14.49749999999998984 ) ) ;
#341 = LOCAL_TIME ( 16, 17, 9.000000000000000000, #276 ) ;
#342 = ORIENTED_EDGE ( 'NONE', *, *, #53, .F. ) ;
#343 = PERSON_AND_ORGANIZATION_ROLE ( 'design_supplier' ) ;
#344 = DIRECTION ( 'NONE',  ( 1.000000000000000000, 0.000000000000000000, 0.000000000000000000 ) ) ;
#345 = PERSON_AND_ORGANIZATION ( #119, #430 ) ;
#346 = DIRECTION ( 'NONE',  ( -0.000000000000000000, -0.000000000000000000, -1.000000000000000000 ) ) ;
#347 = FACE_OUTER_BOUND ( 'NONE', #335, .T. ) ;
#348 = EDGE_CURVE ( 'NONE', #131, #327, #170, .T. ) ;
#349 = CC_DESIGN_PERSON_AND_ORGANIZATION_ASSIGNMENT ( #102, #244, ( #431 ) ) ;
#350 = FACE_OUTER_BOUND ( 'NONE', #178, .T. ) ;
#351 = CARTESIAN_POINT ( 'NONE',  ( 0.000000000000000000, 0.000000000000000000, -15.00000000000000000 ) ) ;
#352 = DIRECTION ( 'NONE',  ( 0.000000000000000000, 0.000000000000000000, 1.000000000000000000 ) ) ;
#353 = AXIS2_PLACEMENT_3D ( 'NONE', #309, #346, #172 ) ;
#354 = DIRECTION ( 'NONE',  ( 1.000000000000000000, 0.000000000000000000, 0.000000000000000000 ) ) ;
#355 = ORIENTED_EDGE ( 'NONE', *, *, #144, .T. ) ;
#356 = DIRECTION ( 'NONE',  ( 1.000000000000000000, 0.000000000000000000, 0.000000000000000000 ) ) ;
#357 = CARTESIAN_POINT ( 'NONE',  ( 0.000000000000000000, 0.000000000000000000, -14.66499999999999737 ) ) ;
#358 = ORIENTED_EDGE ( 'NONE', *, *, #19, .F. ) ;
#359 = ORIENTED_EDGE ( 'NONE', *, *, #299, .T. ) ;
#360 = AXIS2_PLACEMENT_3D ( 'NONE', #67, #381, #65 ) ;
#361 = FACE_OUTER_BOUND ( 'NONE', #115, .T. ) ;
#362 = ORIENTED_EDGE ( 'NONE', *, *, #156, .F. ) ;
#363 = CARTESIAN_POINT ( 'NONE',  ( 3.150000000000000355, 0.000000000000000000, -15.00000000000000000 ) ) ;
#364 = ADVANCED_FACE ( 'NONE', ( #361 ), #296, .F. ) ;
#365 = VERTEX_POINT ( 'NONE', #160 ) ;
#366 = CONICAL_SURFACE ( 'NONE', #422, 6.500000000000000888, 0.7853981633974469467 ) ;
#367 = LOCAL_TIME ( 16, 17, 9.000000000000000000, #234 ) ;
#368 = CARTESIAN_POINT ( 'NONE',  ( 0.000000000000000000, 0.000000000000000000, -15.00000000000000000 ) ) ;
#369 = ORIENTED_EDGE ( 'NONE', *, *, #251, .T. ) ;
#370 = MANIFOLD_SOLID_BREP ( 'Chamfer2', #300 ) ;
#371 = APPROVAL_DATE_TIME ( #92, #106 ) ;
#372 = EDGE_LOOP ( 'NONE', ( #89, #405, #359, #342 ) ) ;
#373 = APPROVAL_STATUS ( 'not_yet_approved' ) ;
#374 = CARTESIAN_POINT ( 'NONE',  ( 3.652500000000009628, 0.000000000000000000, 15.00000000000000000 ) ) ;
#375 = CALENDAR_DATE ( 2026, 8, 1 ) ;
#376 = DIRECTION ( 'NONE',  ( 0.7071067811865457964, 8.659560562354909439E-17, -0.7071067811865492381 ) ) ;
#377 = CONICAL_SURFACE ( 'NONE', #184, 3.652500000000002967, 0.7853981633974479459 ) ;
#378 = VERTEX_POINT ( 'NONE', #227 ) ;
#379 = EDGE_CURVE ( 'NONE', #365, #81, #46, .T. ) ;
#380 = ADVANCED_FACE ( 'NONE', ( #330, #12 ), #231, .F. ) ;
#381 = DIRECTION ( 'NONE',  ( -0.000000000000000000, -0.000000000000000000, -1.000000000000000000 ) ) ;
#382 = LINE ( 'NONE', #186, #286 ) ;
#383 = AXIS2_PLACEMENT_3D ( 'NONE', #213, #449, #147 ) ;
#384 = DIRECTION ( 'NONE',  ( -0.000000000000000000, -0.000000000000000000, -1.000000000000000000 ) ) ;
#385 = FACE_OUTER_BOUND ( 'NONE', #372, .T. ) ;
#386 = PRODUCT_DEFINITION_SHAPE ( 'NONE', 'NONE',  #146 ) ;
#387 = CARTESIAN_POINT ( 'NONE',  ( 6.500000000000000888, 0.000000000000000000, -14.66499999999999737 ) ) ;
#388 = VECTOR ( 'NONE', #421, 1000.000000000000114 ) ;
#389 = LINE ( 'NONE', #387, #408 ) ;
#390 = PRODUCT ( '94669A196_Aluminum Unthreaded Spacer', '94669A196_Aluminum Unthreaded Spacer', '', ( #313 ) ) ;
#391 = CARTESIAN_POINT ( 'NONE',  ( -3.652500000000002967, 0.000000000000000000, -15.00000000000000000 ) ) ;
#392 = EDGE_CURVE ( 'NONE', #439, #81, #325, .T. ) ;
#393 = ORIENTED_EDGE ( 'NONE', *, *, #4, .T. ) ;
#394 = FACE_BOUND ( 'NONE', #436, .T. ) ;
#395 = ORIENTED_EDGE ( 'NONE', *, *, #379, .T. ) ;
#396 =( GEOMETRIC_REPRESENTATION_CONTEXT ( 3 ) GLOBAL_UNCERTAINTY_ASSIGNED_CONTEXT ( ( #128 ) ) GLOBAL_UNIT_ASSIGNED_CONTEXT ( ( #10, #333, #120 ) ) REPRESENTATION_CONTEXT ( 'NONE', 'WORKASPACE' ) );
#397 = EDGE_LOOP ( 'NONE', ( #399, #306, #80, #159 ) ) ;
#398 = CARTESIAN_POINT ( 'NONE',  ( 0.000000000000000000, 0.000000000000000000, -15.00000000000000000 ) ) ;
#399 = ORIENTED_EDGE ( 'NONE', *, *, #187, .F. ) ;
#400 = DIRECTION ( 'NONE',  ( -0.000000000000000000, -0.000000000000000000, 1.000000000000000000 ) ) ;
#401 = ORIENTED_EDGE ( 'NONE', *, *, #299, .F. ) ;
#402 = VECTOR ( 'NONE', #152, 999.9999999999998863 ) ;
#403 = PERSON_AND_ORGANIZATION_ROLE ( 'creator' ) ;
#404 = CARTESIAN_POINT ( 'NONE',  ( 0.000000000000000000, 0.000000000000000000, -15.00000000000000000 ) ) ;
#405 = ORIENTED_EDGE ( 'NONE', *, *, #220, .F. ) ;
#406 = FACE_OUTER_BOUND ( 'NONE', #429, .T. ) ;
#407 = AXIS2_PLACEMENT_3D ( 'NONE', #48, #433, #302 ) ;
#408 = VECTOR ( 'NONE', #419, 1000.000000000000114 ) ;
#409 = LOCAL_TIME ( 16, 17, 9.000000000000000000, #23 ) ;
#410 = LINE ( 'NONE', #70, #232 ) ;
#411 = AXIS2_PLACEMENT_3D ( 'NONE', #240, #20, #25 ) ;
#412 = ADVANCED_FACE ( 'NONE', ( #155 ), #295, .T. ) ;
#413 = PERSON_AND_ORGANIZATION ( #119, #430 ) ;
#414 = ORIENTED_EDGE ( 'NONE', *, *, #141, .T. ) ;
#415 = CARTESIAN_POINT ( 'NONE',  ( 0.000000000000000000, 0.000000000000000000, 15.00000000000000000 ) ) ;
#416 = DIRECTION ( 'NONE',  ( 1.000000000000000000, 0.000000000000000000, 0.000000000000000000 ) ) ;
#417 = AXIS2_PLACEMENT_3D ( 'NONE', #190, #326, #225 ) ;
#418 = AXIS2_PLACEMENT_3D ( 'NONE', #269, #95, #274 ) ;
#419 = DIRECTION ( 'NONE',  ( 0.7071067811865465735, 0.000000000000000000, 0.7071067811865483499 ) ) ;
#420 = DIRECTION ( 'NONE',  ( 0.000000000000000000, 0.000000000000000000, 1.000000000000000000 ) ) ;
#421 = DIRECTION ( 'NONE',  ( -0.7071067811865465735, 8.659560562354920532E-17, 0.7071067811865483499 ) ) ;
#422 = AXIS2_PLACEMENT_3D ( 'NONE', #110, #78, #356 ) ;
#423 = ADVANCED_FACE ( 'NONE', ( #85 ), #424, .T. ) ;
#424 = CYLINDRICAL_SURFACE ( 'NONE', #98, 6.500000000000000888 ) ;
#425 = CC_DESIGN_PERSON_AND_ORGANIZATION_ASSIGNMENT ( #345, #174, ( #390 ) ) ;
#426 = DIRECTION ( 'NONE',  ( 1.000000000000000000, 0.000000000000000000, -0.000000000000000000 ) ) ;
#427 = ORIENTED_EDGE ( 'NONE', *, *, #304, .T. ) ;
#428 = ADVANCED_FACE ( 'NONE', ( #394, #258 ), #255, .T. ) ;
#429 = EDGE_LOOP ( 'NONE', ( #43, #291, #30, #18 ) ) ;
#430 = ORGANIZATION ( 'UNSPECIFIED', 'UNSPECIFIED', '' ) ;
#431 = SECURITY_CLASSIFICATION ( '', '', #96 ) ;
#432 = VECTOR ( 'NONE', #217, 1000.000000000000000 ) ;
#433 = DIRECTION ( 'NONE',  ( 0.000000000000000000, 0.000000000000000000, 1.000000000000000000 ) ) ;
#434 = ORIENTED_EDGE ( 'NONE', *, *, #336, .T. ) ;
#435 = DIRECTION ( 'NONE',  ( -1.000000000000000000, 0.000000000000000000, 0.000000000000000000 ) ) ;
#436 = EDGE_LOOP ( 'NONE', ( #208, #86 ) ) ;
#437 = ORIENTED_EDGE ( 'NONE', *, *, #444, .F. ) ;
#438 = PERSON_AND_ORGANIZATION_ROLE ( 'creator' ) ;
#439 = VERTEX_POINT ( 'NONE', #157 ) ;
#440 = APPROVAL ( #265, 'UNSPECIFIED' ) ;
#441 = DATE_AND_TIME ( #57, #409 ) ;
#442 = CARTESIAN_POINT ( 'NONE',  ( 0.000000000000000000, 0.000000000000000000, -14.66499999999999737 ) ) ;
#443 = CARTESIAN_POINT ( 'NONE',  ( -6.500000000000000888, 7.960204194457796463E-16, 14.66500000000000092 ) ) ;
#444 = EDGE_CURVE ( 'NONE', #221, #9, #192, .T. ) ;
#445 = APPROVAL_ROLE ( '' ) ;
#446 = CYLINDRICAL_SURFACE ( 'NONE', #99, 6.500000000000000888 ) ;
#447 = AXIS2_PLACEMENT_3D ( 'NONE', #243, #315, #344 ) ;
#448 = CARTESIAN_POINT ( 'NONE',  ( 6.165000000000003588, 7.549947516743435649E-16, 15.00000000000000000 ) ) ;
#449 = DIRECTION ( 'NONE',  ( -0.000000000000000000, -0.000000000000000000, -1.000000000000000000 ) ) ;
ENDSEC;
END-ISO-10303-21;
