ISO-10303-21;
HEADER;
FILE_DESCRIPTION (( 'STEP AP203' ),
    '1' );
FILE_NAME ('94669A202_Aluminum Unthreaded Spacer.STEP',
    '2026-01-08T22:18:26',
    ( 'McMaster Carr Supply' ),
    ( 'McMaster Carr Supply' ),
    'SwSTEP 2.0',
    'SolidWorks 2024',
    '' );
FILE_SCHEMA (( 'CONFIG_CONTROL_DESIGN' ));
ENDSEC;

DATA;
#1 = CARTESIAN_POINT ( 'NONE',  ( -6.500000000000000888, 7.960204194457796463E-16, 19.66500000000000625 ) ) ;
#2 = ADVANCED_FACE ( 'NONE', ( #309 ), #8, .T. ) ;
#3 = COORDINATED_UNIVERSAL_TIME_OFFSET ( 6, 0, .BEHIND. ) ;
#4 = ORIENTED_EDGE ( 'NONE', *, *, #391, .F. ) ;
#5 = EDGE_CURVE ( 'NONE', #51, #29, #385, .T. ) ;
#6 = DIRECTION ( 'NONE',  ( 1.000000000000000000, 0.000000000000000000, 0.000000000000000000 ) ) ;
#7 = DIRECTION ( 'NONE',  ( 1.000000000000000000, 0.000000000000000000, 0.000000000000000000 ) ) ;
#8 = CONICAL_SURFACE ( 'NONE', #66, 6.165000000000003588, 0.7853981633974509435 ) ;
#9 = CIRCLE ( 'NONE', #264, 3.652499999999999414 ) ;
#10 = CC_DESIGN_PERSON_AND_ORGANIZATION_ASSIGNMENT ( #427, #423, ( #123 ) ) ;
#11 = APPROVAL_PERSON_ORGANIZATION ( #38, #94, #312 ) ;
#12 = CARTESIAN_POINT ( 'NONE',  ( 0.000000000000000000, 0.000000000000000000, 19.49749999999999162 ) ) ;
#13 = FACE_OUTER_BOUND ( 'NONE', #61, .T. ) ;
#14 = CARTESIAN_POINT ( 'NONE',  ( 6.500000000000000888, 0.000000000000000000, -20.00000000000000000 ) ) ;
#15 = CIRCLE ( 'NONE', #280, 3.150000000000000355 ) ;
#16 = CALENDAR_DATE ( 2026, 8, 1 ) ;
#17 = CC_DESIGN_PERSON_AND_ORGANIZATION_ASSIGNMENT ( #116, #85, ( #146 ) ) ;
#18 = DIRECTION ( 'NONE',  ( -0.000000000000000000, -0.000000000000000000, -1.000000000000000000 ) ) ;
#19 = ORIENTED_EDGE ( 'NONE', *, *, #53, .F. ) ;
#20 = DIRECTION ( 'NONE',  ( 0.000000000000000000, 0.000000000000000000, 1.000000000000000000 ) ) ;
#21 = EDGE_CURVE ( 'NONE', #157, #445, #313, .T. ) ;
#22 = ORIENTED_EDGE ( 'NONE', *, *, #87, .T. ) ;
#23 = CARTESIAN_POINT ( 'NONE',  ( 0.000000000000000000, 0.000000000000000000, 19.66500000000000625 ) ) ;
#24 = PRODUCT_RELATED_PRODUCT_CATEGORY ( 'detail', '', ( #156 ) ) ;
#25 = ORIENTED_EDGE ( 'NONE', *, *, #46, .F. ) ;
#26 = DIRECTION ( 'NONE',  ( 0.7071067811865447972, 8.659560562354899578E-17, -0.7071067811865502373 ) ) ;
#27 = ORIENTED_EDGE ( 'NONE', *, *, #98, .T. ) ;
#28 = CARTESIAN_POINT ( 'NONE',  ( 0.000000000000000000, 0.000000000000000000, -19.66500000000000270 ) ) ;
#29 = VERTEX_POINT ( 'NONE', #1 ) ;
#30 = CARTESIAN_POINT ( 'NONE',  ( 6.500000000000000888, 0.000000000000000000, 19.66500000000000625 ) ) ;
#31 = EDGE_LOOP ( 'NONE', ( #331, #215, #347, #336 ) ) ;
#32 = AXIS2_PLACEMENT_3D ( 'NONE', #71, #278, #315 ) ;
#33 = ORIENTED_EDGE ( 'NONE', *, *, #46, .T. ) ;
#34 = CARTESIAN_POINT ( 'NONE',  ( 0.000000000000000000, 0.000000000000000000, 0.000000000000000000 ) ) ;
#35 = DIRECTION ( 'NONE',  ( -0.7071067811865493491, 0.000000000000000000, -0.7071067811865456854 ) ) ;
#36 = DATE_AND_TIME ( #184, #84 ) ;
#37 = VERTEX_POINT ( 'NONE', #245 ) ;
#38 = PERSON_AND_ORGANIZATION ( #100, #40 ) ;
#39 = CARTESIAN_POINT ( 'NONE',  ( 0.000000000000000000, 0.000000000000000000, 19.49749999999999162 ) ) ;
#40 = ORGANIZATION ( 'UNSPECIFIED', 'UNSPECIFIED', '' ) ;
#41 = DIRECTION ( 'NONE',  ( -0.7071067811865457964, 8.659560562354909439E-17, 0.7071067811865492381 ) ) ;
#42 = APPROVAL_DATE_TIME ( #192, #175 ) ;
#43 = CIRCLE ( 'NONE', #392, 3.150000000000000355 ) ;
#44 = DIRECTION ( 'NONE',  ( 1.000000000000000000, 0.000000000000000000, 0.000000000000000000 ) ) ;
#45 = EDGE_LOOP ( 'NONE', ( #25, #22, #170, #247 ) ) ;
#46 = EDGE_CURVE ( 'NONE', #203, #29, #378, .T. ) ;
#47 = FACE_OUTER_BOUND ( 'NONE', #176, .T. ) ;
#48 = ORIENTED_EDGE ( 'NONE', *, *, #342, .F. ) ;
#49 = ADVANCED_FACE ( 'NONE', ( #145 ), #212, .T. ) ;
#50 = CARTESIAN_POINT ( 'NONE',  ( 0.000000000000000000, 0.000000000000000000, -19.66500000000000270 ) ) ;
#51 = VERTEX_POINT ( 'NONE', #428 ) ;
#52 = DIRECTION ( 'NONE',  ( 1.000000000000000000, 0.000000000000000000, 0.000000000000000000 ) ) ;
#53 = EDGE_CURVE ( 'NONE', #37, #58, #9, .T. ) ;
#54 = VECTOR ( 'NONE', #399, 1000.000000000000000 ) ;
#55 = ORIENTED_EDGE ( 'NONE', *, *, #140, .F. ) ;
#56 = FACE_OUTER_BOUND ( 'NONE', #376, .T. ) ;
#57 = DIRECTION ( 'NONE',  ( 0.000000000000000000, 0.000000000000000000, 1.000000000000000000 ) ) ;
#58 = VERTEX_POINT ( 'NONE', #395 ) ;
#59 = EDGE_CURVE ( 'NONE', #111, #432, #330, .T. ) ;
#60 = CARTESIAN_POINT ( 'NONE',  ( 0.000000000000000000, 0.000000000000000000, -19.49749999999999872 ) ) ;
#61 = EDGE_LOOP ( 'NONE', ( #206, #275, #165, #236 ) ) ;
#62 = MANIFOLD_SOLID_BREP ( 'Chamfer2', #182 ) ;
#63 = EDGE_CURVE ( 'NONE', #157, #203, #122, .T. ) ;
#64 = CARTESIAN_POINT ( 'NONE',  ( 6.500000000000000888, 0.000000000000000000, -19.66500000000000270 ) ) ;
#65 = VERTEX_POINT ( 'NONE', #431 ) ;
#66 = AXIS2_PLACEMENT_3D ( 'NONE', #314, #143, #443 ) ;
#67 = VECTOR ( 'NONE', #281, 1000.000000000000000 ) ;
#68 = EDGE_CURVE ( 'NONE', #445, #233, #365, .T. ) ;
#69 = VECTOR ( 'NONE', #303, 1000.000000000000000 ) ;
#70 = CARTESIAN_POINT ( 'NONE',  ( 0.000000000000000000, 0.000000000000000000, -20.00000000000000000 ) ) ;
#71 = CARTESIAN_POINT ( 'NONE',  ( 0.000000000000000000, 0.000000000000000000, -19.66500000000000270 ) ) ;
#72 = CC_DESIGN_PERSON_AND_ORGANIZATION_ASSIGNMENT ( #252, #144, ( #421 ) ) ;
#73 = DIRECTION ( 'NONE',  ( 0.000000000000000000, 0.000000000000000000, -1.000000000000000000 ) ) ;
#74 = AXIS2_PLACEMENT_3D ( 'NONE', #155, #319, #258 ) ;
#75 = MECHANICAL_CONTEXT ( 'NONE', #166, 'mechanical' ) ;
#76 = AXIS2_PLACEMENT_3D ( 'NONE', #70, #270, #139 ) ;
#77 = CALENDAR_DATE ( 2026, 8, 1 ) ;
#78 = AXIS2_PLACEMENT_3D ( 'NONE', #132, #207, #265 ) ;
#79 = PERSON_AND_ORGANIZATION ( #100, #40 ) ;
#80 = DATE_TIME_ROLE ( 'classification_date' ) ;
#81 = CARTESIAN_POINT ( 'NONE',  ( 3.150000000000000355, 0.000000000000000000, -19.49749999999999872 ) ) ;
#82 = CARTESIAN_POINT ( 'NONE',  ( 6.500000000000000888, 0.000000000000000000, -19.66500000000000270 ) ) ;
#83 = EDGE_CURVE ( 'NONE', #233, #203, #382, .T. ) ;
#84 = LOCAL_TIME ( 16, 18, 26.00000000000000000, #351 ) ;
#85 = PERSON_AND_ORGANIZATION_ROLE ( 'classification_officer' ) ;
#86 = DIRECTION ( 'NONE',  ( 0.000000000000000000, 0.000000000000000000, 1.000000000000000000 ) ) ;
#87 = EDGE_CURVE ( 'NONE', #203, #233, #204, .T. ) ;
#88 = CARTESIAN_POINT ( 'NONE',  ( -6.165000000000003588, 7.755075855600615563E-16, -20.00000000000000000 ) ) ;
#89 = ORIENTED_EDGE ( 'NONE', *, *, #283, .T. ) ;
#90 = AXIS2_PLACEMENT_3D ( 'NONE', #238, #57, #244 ) ;
#91 = FACE_BOUND ( 'NONE', #213, .T. ) ;
#92 = ORIENTED_EDGE ( 'NONE', *, *, #106, .T. ) ;
#93 = CC_DESIGN_APPROVAL ( #126, ( #421 ) ) ;
#94 = APPROVAL ( #354, 'UNSPECIFIED' ) ;
#95 = FACE_OUTER_BOUND ( 'NONE', #435, .T. ) ;
#96 = DIRECTION ( 'NONE',  ( 1.000000000000000000, 0.000000000000000000, 0.000000000000000000 ) ) ;
#97 = FACE_OUTER_BOUND ( 'NONE', #364, .T. ) ;
#98 = EDGE_CURVE ( 'NONE', #409, #432, #416, .T. ) ;
#99 = ORIENTED_EDGE ( 'NONE', *, *, #434, .T. ) ;
#100 = PERSON ( 'UNSPECIFIED', 'UNSPECIFIED', 'UNSPECIFIED', ('UNSPECIFIED'), ('UNSPECIFIED'), ('UNSPECIFIED') ) ;
#101 = DIRECTION ( 'NONE',  ( 1.000000000000000000, 0.000000000000000000, 0.000000000000000000 ) ) ;
#102 = CC_DESIGN_DATE_AND_TIME_ASSIGNMENT ( #36, #388, ( #421 ) ) ;
#103 = EDGE_LOOP ( 'NONE', ( #218, #239, #384, #241 ) ) ;
#104 = CARTESIAN_POINT ( 'NONE',  ( 3.652499999999999414, 4.473022433885707361E-16, -20.00000000000000000 ) ) ;
#105 = ORIENTED_EDGE ( 'NONE', *, *, #250, .T. ) ;
#106 = EDGE_CURVE ( 'NONE', #400, #58, #361, .T. ) ;
#107 = APPROVAL_DATE_TIME ( #216, #126 ) ;
#108 = EDGE_LOOP ( 'NONE', ( #162, #89 ) ) ;
#109 = EDGE_CURVE ( 'NONE', #29, #311, #425, .T. ) ;
#110 = APPROVAL_ROLE ( '' ) ;
#111 = VERTEX_POINT ( 'NONE', #81 ) ;
#112 = DATE_AND_TIME ( #77, #339 ) ;
#113 = DIRECTION ( 'NONE',  ( 0.000000000000000000, 0.000000000000000000, -1.000000000000000000 ) ) ;
#114 = CALENDAR_DATE ( 2026, 8, 1 ) ;
#115 = APPROVAL_STATUS ( 'not_yet_approved' ) ;
#116 = PERSON_AND_ORGANIZATION ( #100, #40 ) ;
#117 = CONICAL_SURFACE ( 'NONE', #74, 3.150000000000000355, 0.7853981633974513876 ) ;
#118 = EDGE_CURVE ( 'NONE', #432, #409, #43, .T. ) ;
#119 = CARTESIAN_POINT ( 'NONE',  ( 0.000000000000000000, 0.000000000000000000, 19.66500000000000625 ) ) ;
#120 = AXIS2_PLACEMENT_3D ( 'NONE', #240, #377, #300 ) ;
#121 = ADVANCED_FACE ( 'NONE', ( #325 ), #160, .F. ) ;
#122 = LINE ( 'NONE', #426, #317 ) ;
#123 = PRODUCT_DEFINITION_FORMATION_WITH_SPECIFIED_SOURCE ( 'ANY', '', #156, .NOT_KNOWN. ) ;
#124 = DIRECTION ( 'NONE',  ( 1.000000000000000000, 0.000000000000000000, 0.000000000000000000 ) ) ;
#125 = CARTESIAN_POINT ( 'NONE',  ( 0.000000000000000000, 0.000000000000000000, -20.00000000000000000 ) ) ;
#126 = APPROVAL ( #115, 'UNSPECIFIED' ) ;
#127 = AXIS2_PLACEMENT_3D ( 'NONE', #436, #404, #128 ) ;
#128 = DIRECTION ( 'NONE',  ( -1.000000000000000000, 0.000000000000000000, 0.000000000000000000 ) ) ;
#129 = VECTOR ( 'NONE', #227, 1000.000000000000114 ) ;
#130 = ORIENTED_EDGE ( 'NONE', *, *, #98, .F. ) ;
#131 = CC_DESIGN_APPROVAL ( #175, ( #146 ) ) ;
#132 = CARTESIAN_POINT ( 'NONE',  ( 0.000000000000000000, 0.000000000000000000, -20.00000000000000000 ) ) ;
#133 = FACE_OUTER_BOUND ( 'NONE', #181, .T. ) ;
#134 = CIRCLE ( 'NONE', #224, 3.652500000000013181 ) ;
#135 = CARTESIAN_POINT ( 'NONE',  ( 0.000000000000000000, 0.000000000000000000, -20.00000000000000000 ) ) ;
#136 = EDGE_CURVE ( 'NONE', #400, #409, #290, .T. ) ;
#137 = EDGE_LOOP ( 'NONE', ( #304, #295, #92, #19 ) ) ;
#138 = AXIS2_PLACEMENT_3D ( 'NONE', #23, #405, #96 ) ;
#139 = DIRECTION ( 'NONE',  ( 1.000000000000000000, 0.000000000000000000, 0.000000000000000000 ) ) ;
#140 = EDGE_CURVE ( 'NONE', #233, #311, #262, .T. ) ;
#141 = ORIENTED_EDGE ( 'NONE', *, *, #220, .T. ) ;
#142 = DIRECTION ( 'NONE',  ( 0.000000000000000000, 0.000000000000000000, 1.000000000000000000 ) ) ;
#143 = DIRECTION ( 'NONE',  ( 0.000000000000000000, 0.000000000000000000, -1.000000000000000000 ) ) ;
#144 = PERSON_AND_ORGANIZATION_ROLE ( 'creator' ) ;
#145 = FACE_OUTER_BOUND ( 'NONE', #103, .T. ) ;
#146 = SECURITY_CLASSIFICATION ( '', '', #324 ) ;
#147 = VERTEX_POINT ( 'NONE', #322 ) ;
#148 =( NAMED_UNIT ( * ) PLANE_ANGLE_UNIT ( ) SI_UNIT ( $, .RADIAN. ) );
#149 = ADVANCED_FACE ( 'NONE', ( #13 ), #217, .F. ) ;
#150 = ADVANCED_FACE ( 'NONE', ( #47 ), #117, .F. ) ;
#151 = VECTOR ( 'NONE', #381, 1000.000000000000000 ) ;
#152 = LOCAL_TIME ( 16, 18, 26.00000000000000000, #348 ) ;
#153 = CARTESIAN_POINT ( 'NONE',  ( 0.000000000000000000, 0.000000000000000000, -20.00000000000000000 ) ) ;
#154 = DIRECTION ( 'NONE',  ( 1.000000000000000000, 0.000000000000000000, 0.000000000000000000 ) ) ;
#155 = CARTESIAN_POINT ( 'NONE',  ( 0.000000000000000000, 0.000000000000000000, 19.49749999999999162 ) ) ;
#156 = PRODUCT ( '94669A202_Aluminum Unthreaded Spacer', '94669A202_Aluminum Unthreaded Spacer', '', ( #75 ) ) ;
#157 = VERTEX_POINT ( 'NONE', #88 ) ;
#158 = DIRECTION ( 'NONE',  ( -0.000000000000000000, -0.000000000000000000, -1.000000000000000000 ) ) ;
#159 = EDGE_CURVE ( 'NONE', #65, #147, #134, .T. ) ;
#160 = CONICAL_SURFACE ( 'NONE', #261, 3.652499999999999414, 0.7853981633974445042 ) ;
#161 = DIRECTION ( 'NONE',  ( 1.000000000000000000, 0.000000000000000000, 0.000000000000000000 ) ) ;
#162 = ORIENTED_EDGE ( 'NONE', *, *, #159, .T. ) ;
#163 = CIRCLE ( 'NONE', #353, 6.165000000000003588 ) ;
#164 = DIRECTION ( 'NONE',  ( 0.000000000000000000, 0.000000000000000000, 1.000000000000000000 ) ) ;
#165 = ORIENTED_EDGE ( 'NONE', *, *, #391, .T. ) ;
#166 = APPLICATION_CONTEXT ( 'configuration controlled 3d designs of mechanical parts and assemblies' ) ;
#167 = DIRECTION ( 'NONE',  ( 1.000000000000000000, 0.000000000000000000, -0.000000000000000000 ) ) ;
#168 = ORIENTED_EDGE ( 'NONE', *, *, #159, .F. ) ;
#169 = CARTESIAN_POINT ( 'NONE',  ( 0.000000000000000000, 0.000000000000000000, 20.00000000000000000 ) ) ;
#170 = ORIENTED_EDGE ( 'NONE', *, *, #140, .T. ) ;
#171 = CYLINDRICAL_SURFACE ( 'NONE', #90, 3.150000000000000355 ) ;
#172 = VECTOR ( 'NONE', #35, 1000.000000000000114 ) ;
#173 = EDGE_LOOP ( 'NONE', ( #48, #403, #267, #306 ) ) ;
#174 =( LENGTH_UNIT ( ) NAMED_UNIT ( * ) SI_UNIT ( .MILLI., .METRE. ) );
#175 = APPROVAL ( #287, 'UNSPECIFIED' ) ;
#176 = EDGE_LOOP ( 'NONE', ( #130, #199, #168, #4 ) ) ;
#177 = DIRECTION ( 'NONE',  ( 1.000000000000000000, 0.000000000000000000, 0.000000000000000000 ) ) ;
#178 = DESIGN_CONTEXT ( 'detailed design', #424, 'design' ) ;
#179 = ORIENTED_EDGE ( 'NONE', *, *, #328, .T. ) ;
#180 = CARTESIAN_POINT ( 'NONE',  ( -3.150000000000000355, 3.857637417314163182E-16, -19.49749999999999872 ) ) ;
#181 = EDGE_LOOP ( 'NONE', ( #263, #33, #344, #55 ) ) ;
#182 = CLOSED_SHELL ( 'NONE', ( #222, #150, #274, #2, #190, #375, #183, #186, #320, #367, #49, #394, #149, #121 ) ) ;
#183 = ADVANCED_FACE ( 'NONE', ( #397 ), #401, .T. ) ;
#184 = CALENDAR_DATE ( 2026, 8, 1 ) ;
#185 = VECTOR ( 'NONE', #343, 1000.000000000000114 ) ;
#186 = ADVANCED_FACE ( 'NONE', ( #91, #95 ), #334, .F. ) ;
#187 = DIRECTION ( 'NONE',  ( 0.7071067811865496822, 0.000000000000000000, 0.7071067811865453523 ) ) ;
#188 = AXIS2_PLACEMENT_3D ( 'NONE', #50, #359, #124 ) ;
#189 = DIRECTION ( 'NONE',  ( 1.000000000000000000, 0.000000000000000000, 0.000000000000000000 ) ) ;
#190 = ADVANCED_FACE ( 'NONE', ( #97 ), #171, .F. ) ;
#191 = DIRECTION ( 'NONE',  ( -0.7071067811865447972, 0.000000000000000000, -0.7071067811865502373 ) ) ;
#192 = DATE_AND_TIME ( #16, #346 ) ;
#193 = DIRECTION ( 'NONE',  ( 1.000000000000000000, 0.000000000000000000, 0.000000000000000000 ) ) ;
#194 = CALENDAR_DATE ( 2026, 8, 1 ) ;
#195 = DIRECTION ( 'NONE',  ( -1.000000000000000000, 0.000000000000000000, 0.000000000000000000 ) ) ;
#196 = CONICAL_SURFACE ( 'NONE', #32, 6.500000000000000888, 0.7853981633974457255 ) ;
#197 = CC_DESIGN_PERSON_AND_ORGANIZATION_ASSIGNMENT ( #219, #321, ( #123 ) ) ;
#198 = DIRECTION ( 'NONE',  ( 1.000000000000000000, 0.000000000000000000, 0.000000000000000000 ) ) ;
#199 = ORIENTED_EDGE ( 'NONE', *, *, #323, .T. ) ;
#200 = AXIS2_PLACEMENT_3D ( 'NONE', #119, #113, #154 ) ;
#201 = CARTESIAN_POINT ( 'NONE',  ( -3.150000000000000355, 3.857637417314163182E-16, 19.49749999999999162 ) ) ;
#202 = UNCERTAINTY_MEASURE_WITH_UNIT (LENGTH_MEASURE( 1.000000000000000082E-05 ), #174, 'distance_accuracy_value', 'NONE');
#203 = VERTEX_POINT ( 'NONE', #242 ) ;
#204 = CIRCLE ( 'NONE', #284, 6.500000000000000888 ) ;
#205 = PLANE ( 'NONE',  #318 ) ;
#206 = ORIENTED_EDGE ( 'NONE', *, *, #323, .F. ) ;
#207 = DIRECTION ( 'NONE',  ( 0.000000000000000000, 0.000000000000000000, 1.000000000000000000 ) ) ;
#208 = VERTEX_POINT ( 'NONE', #442 ) ;
#209 = LINE ( 'NONE', #273, #185 ) ;
#210 = DIRECTION ( 'NONE',  ( -0.000000000000000000, -0.000000000000000000, -1.000000000000000000 ) ) ;
#211 = DIRECTION ( 'NONE',  ( 1.000000000000000000, 0.000000000000000000, 0.000000000000000000 ) ) ;
#212 = CONICAL_SURFACE ( 'NONE', #402, 6.165000000000003588, 0.7853981633974509435 ) ;
#213 = EDGE_LOOP ( 'NONE', ( #105, #310 ) ) ;
#214 = CARTESIAN_POINT ( 'NONE',  ( 3.150000000000000355, 0.000000000000000000, 19.49749999999999162 ) ) ;
#215 = ORIENTED_EDGE ( 'NONE', *, *, #434, .F. ) ;
#216 = DATE_AND_TIME ( #114, #152 ) ;
#217 = CONICAL_SURFACE ( 'NONE', #379, 3.150000000000000355, 0.7853981633974513876 ) ;
#218 = ORIENTED_EDGE ( 'NONE', *, *, #291, .F. ) ;
#219 = PERSON_AND_ORGANIZATION ( #100, #40 ) ;
#220 = EDGE_CURVE ( 'NONE', #208, #51, #163, .T. ) ;
#221 = CARTESIAN_POINT ( 'NONE',  ( 3.150000000000000355, 0.000000000000000000, 19.49749999999999162 ) ) ;
#222 = ADVANCED_FACE ( 'NONE', ( #305 ), #408, .F. ) ;
#223 = CARTESIAN_POINT ( 'NONE',  ( -3.150000000000000355, 3.857637417314163182E-16, 19.49749999999999162 ) ) ;
#224 = AXIS2_PLACEMENT_3D ( 'NONE', #232, #158, #234 ) ;
#225 = SHAPE_DEFINITION_REPRESENTATION ( #429, #335 ) ;
#226 = CARTESIAN_POINT ( 'NONE',  ( 0.000000000000000000, 0.000000000000000000, 19.49749999999999162 ) ) ;
#227 = DIRECTION ( 'NONE',  ( 0.7071067811865457964, 0.000000000000000000, 0.7071067811865492381 ) ) ;
#228 = AXIS2_PLACEMENT_3D ( 'NONE', #60, #307, #374 ) ;
#229 = CARTESIAN_POINT ( 'NONE',  ( 0.000000000000000000, 0.000000000000000000, -20.00000000000000000 ) ) ;
#230 = ORIENTED_EDGE ( 'NONE', *, *, #220, .F. ) ;
#231 = AXIS2_PLACEMENT_3D ( 'NONE', #39, #419, #363 ) ;
#232 = CARTESIAN_POINT ( 'NONE',  ( 0.000000000000000000, 0.000000000000000000, 20.00000000000000000 ) ) ;
#233 = VERTEX_POINT ( 'NONE', #64 ) ;
#234 = DIRECTION ( 'NONE',  ( 1.000000000000000000, 0.000000000000000000, 0.000000000000000000 ) ) ;
#235 = CIRCLE ( 'NONE', #138, 6.500000000000000888 ) ;
#236 = ORIENTED_EDGE ( 'NONE', *, *, #283, .F. ) ;
#237 = FACE_OUTER_BOUND ( 'NONE', #447, .T. ) ;
#238 = CARTESIAN_POINT ( 'NONE',  ( 0.000000000000000000, 0.000000000000000000, -20.00000000000000000 ) ) ;
#239 = ORIENTED_EDGE ( 'NONE', *, *, #328, .F. ) ;
#240 = CARTESIAN_POINT ( 'NONE',  ( 0.000000000000000000, 0.000000000000000000, 20.00000000000000000 ) ) ;
#241 = ORIENTED_EDGE ( 'NONE', *, *, #357, .F. ) ;
#242 = CARTESIAN_POINT ( 'NONE',  ( -6.500000000000000888, 7.960204194457796463E-16, -19.66500000000000270 ) ) ;
#243 = DIRECTION ( 'NONE',  ( 1.000000000000000000, 0.000000000000000000, 0.000000000000000000 ) ) ;
#244 = DIRECTION ( 'NONE',  ( 1.000000000000000000, 0.000000000000000000, 0.000000000000000000 ) ) ;
#245 = CARTESIAN_POINT ( 'NONE',  ( 3.652499999999999414, 4.473022433885707361E-16, -20.00000000000000000 ) ) ;
#246 = CARTESIAN_POINT ( 'NONE',  ( 0.000000000000000000, 0.000000000000000000, -20.00000000000000000 ) ) ;
#247 = ORIENTED_EDGE ( 'NONE', *, *, #357, .T. ) ;
#248 = VECTOR ( 'NONE', #187, 1000.000000000000000 ) ;
#249 = DIRECTION ( 'NONE',  ( 0.000000000000000000, 0.000000000000000000, 1.000000000000000000 ) ) ;
#250 = EDGE_CURVE ( 'NONE', #58, #37, #298, .T. ) ;
#251 = ORIENTED_EDGE ( 'NONE', *, *, #68, .F. ) ;
#252 = PERSON_AND_ORGANIZATION ( #100, #40 ) ;
#253 = AXIS2_PLACEMENT_3D ( 'NONE', #135, #380, #345 ) ;
#254 = CIRCLE ( 'NONE', #228, 3.150000000000000355 ) ;
#255 = DIRECTION ( 'NONE',  ( 0.000000000000000000, 0.000000000000000000, 1.000000000000000000 ) ) ;
#256 = CARTESIAN_POINT ( 'NONE',  ( -3.150000000000000355, 3.857637417314163182E-16, -20.00000000000000000 ) ) ;
#257 = LOCAL_TIME ( 16, 18, 26.00000000000000000, #362 ) ;
#258 = DIRECTION ( 'NONE',  ( 1.000000000000000000, 0.000000000000000000, 0.000000000000000000 ) ) ;
#259 = DIRECTION ( 'NONE',  ( 0.000000000000000000, 0.000000000000000000, 1.000000000000000000 ) ) ;
#260 = ORIENTED_EDGE ( 'NONE', *, *, #118, .T. ) ;
#261 = AXIS2_PLACEMENT_3D ( 'NONE', #125, #18, #195 ) ;
#262 = LINE ( 'NONE', #14, #289 ) ;
#263 = ORIENTED_EDGE ( 'NONE', *, *, #83, .T. ) ;
#264 = AXIS2_PLACEMENT_3D ( 'NONE', #229, #20, #198 ) ;
#265 = DIRECTION ( 'NONE',  ( 1.000000000000000000, 0.000000000000000000, 0.000000000000000000 ) ) ;
#266 = APPROVAL_PERSON_ORGANIZATION ( #327, #175, #316 ) ;
#267 = ORIENTED_EDGE ( 'NONE', *, *, #250, .F. ) ;
#268 = LINE ( 'NONE', #104, #308 ) ;
#269 = ORIENTED_EDGE ( 'NONE', *, *, #136, .T. ) ;
#270 = DIRECTION ( 'NONE',  ( 0.000000000000000000, 0.000000000000000000, 1.000000000000000000 ) ) ;
#271 = FACE_OUTER_BOUND ( 'NONE', #326, .T. ) ;
#272 = ORIENTED_EDGE ( 'NONE', *, *, #59, .T. ) ;
#273 = CARTESIAN_POINT ( 'NONE',  ( 6.165000000000003588, 7.549947516743435649E-16, 20.00000000000000000 ) ) ;
#274 = ADVANCED_FACE ( 'NONE', ( #271 ), #387, .T. ) ;
#275 = ORIENTED_EDGE ( 'NONE', *, *, #118, .F. ) ;
#276 = CARTESIAN_POINT ( 'NONE',  ( -6.165000000000003588, 0.000000000000000000, 20.00000000000000000 ) ) ;
#277 = CIRCLE ( 'NONE', #120, 3.652500000000013181 ) ;
#278 = DIRECTION ( 'NONE',  ( -0.000000000000000000, -0.000000000000000000, 1.000000000000000000 ) ) ;
#279 = CARTESIAN_POINT ( 'NONE',  ( -6.500000000000000888, 7.960204194457796463E-16, -20.00000000000000000 ) ) ;
#280 = AXIS2_PLACEMENT_3D ( 'NONE', #297, #371, #52 ) ;
#281 = DIRECTION ( 'NONE',  ( 0.000000000000000000, 0.000000000000000000, 1.000000000000000000 ) ) ;
#282 = APPLICATION_PROTOCOL_DEFINITION ( 'international standard', 'config_control_design', 1994, #424 ) ;
#283 = EDGE_CURVE ( 'NONE', #147, #65, #277, .T. ) ;
#284 = AXIS2_PLACEMENT_3D ( 'NONE', #293, #369, #193 ) ;
#285 = PERSON_AND_ORGANIZATION_ROLE ( 'design_owner' ) ;
#286 = EDGE_CURVE ( 'NONE', #400, #111, #254, .T. ) ;
#287 = APPROVAL_STATUS ( 'not_yet_approved' ) ;
#288 = DIRECTION ( 'NONE',  ( -1.000000000000000000, 0.000000000000000000, 0.000000000000000000 ) ) ;
#289 = VECTOR ( 'NONE', #255, 1000.000000000000000 ) ;
#290 = LINE ( 'NONE', #256, #54 ) ;
#291 = EDGE_CURVE ( 'NONE', #208, #311, #209, .T. ) ;
#292 = AXIS2_PLACEMENT_3D ( 'NONE', #246, #249, #6 ) ;
#293 = CARTESIAN_POINT ( 'NONE',  ( 0.000000000000000000, 0.000000000000000000, -19.66500000000000270 ) ) ;
#294 = CARTESIAN_POINT ( 'NONE',  ( 3.150000000000000355, 0.000000000000000000, -20.00000000000000000 ) ) ;
#295 = ORIENTED_EDGE ( 'NONE', *, *, #286, .F. ) ;
#296 = VECTOR ( 'NONE', #191, 1000.000000000000000 ) ;
#297 = CARTESIAN_POINT ( 'NONE',  ( 0.000000000000000000, 0.000000000000000000, -19.49749999999999872 ) ) ;
#298 = CIRCLE ( 'NONE', #76, 3.652499999999999414 ) ;
#299 = ORIENTED_EDGE ( 'NONE', *, *, #5, .F. ) ;
#300 = DIRECTION ( 'NONE',  ( 1.000000000000000000, 0.000000000000000000, 0.000000000000000000 ) ) ;
#301 = APPROVAL_PERSON_ORGANIZATION ( #420, #126, #110 ) ;
#302 = ORIENTED_EDGE ( 'NONE', *, *, #286, .T. ) ;
#303 = DIRECTION ( 'NONE',  ( -0.7071067811865496822, 8.659560562354959975E-17, 0.7071067811865453523 ) ) ;
#304 = ORIENTED_EDGE ( 'NONE', *, *, #333, .F. ) ;
#305 = FACE_OUTER_BOUND ( 'NONE', #173, .T. ) ;
#306 = ORIENTED_EDGE ( 'NONE', *, *, #106, .F. ) ;
#307 = DIRECTION ( 'NONE',  ( -0.000000000000000000, -0.000000000000000000, -1.000000000000000000 ) ) ;
#308 = VECTOR ( 'NONE', #26, 1000.000000000000000 ) ;
#309 = FACE_OUTER_BOUND ( 'NONE', #414, .T. ) ;
#310 = ORIENTED_EDGE ( 'NONE', *, *, #53, .T. ) ;
#311 = VERTEX_POINT ( 'NONE', #30 ) ;
#312 = APPROVAL_ROLE ( '' ) ;
#313 = CIRCLE ( 'NONE', #437, 6.165000000000003588 ) ;
#314 = CARTESIAN_POINT ( 'NONE',  ( 0.000000000000000000, 0.000000000000000000, 20.00000000000000000 ) ) ;
#315 = DIRECTION ( 'NONE',  ( 1.000000000000000000, 0.000000000000000000, 0.000000000000000000 ) ) ;
#316 = APPROVAL_ROLE ( '' ) ;
#317 = VECTOR ( 'NONE', #41, 1000.000000000000114 ) ;
#318 = AXIS2_PLACEMENT_3D ( 'NONE', #440, #337, #167 ) ;
#319 = DIRECTION ( 'NONE',  ( 0.000000000000000000, 0.000000000000000000, 1.000000000000000000 ) ) ;
#320 = ADVANCED_FACE ( 'NONE', ( #237 ), #340, .F. ) ;
#321 = PERSON_AND_ORGANIZATION_ROLE ( 'creator' ) ;
#322 = CARTESIAN_POINT ( 'NONE',  ( -3.652500000000013181, 4.473022433885724124E-16, 20.00000000000000000 ) ) ;
#323 = EDGE_CURVE ( 'NONE', #409, #147, #444, .T. ) ;
#324 = SECURITY_CLASSIFICATION_LEVEL ( 'unclassified' ) ;
#325 = FACE_OUTER_BOUND ( 'NONE', #137, .T. ) ;
#326 = EDGE_LOOP ( 'NONE', ( #341, #370, #439, #251 ) ) ;
#327 = PERSON_AND_ORGANIZATION ( #100, #40 ) ;
#328 = EDGE_CURVE ( 'NONE', #51, #208, #368, .T. ) ;
#329 = AXIS2_PLACEMENT_3D ( 'NONE', #413, #438, #161 ) ;
#330 = LINE ( 'NONE', #294, #67 ) ;
#331 = ORIENTED_EDGE ( 'NONE', *, *, #63, .F. ) ;
#332 = DIRECTION ( 'NONE',  ( 1.000000000000000000, 0.000000000000000000, 0.000000000000000000 ) ) ;
#333 = EDGE_CURVE ( 'NONE', #111, #37, #268, .T. ) ;
#334 = PLANE ( 'NONE',  #253 ) ;
#335 = ADVANCED_BREP_SHAPE_REPRESENTATION ( '94669A202_Aluminum Unthreaded Spacer', ( #62, #360 ), #396 ) ;
#336 = ORIENTED_EDGE ( 'NONE', *, *, #87, .F. ) ;
#337 = DIRECTION ( 'NONE',  ( 0.000000000000000000, 0.000000000000000000, 1.000000000000000000 ) ) ;
#338 = CIRCLE ( 'NONE', #430, 6.165000000000003588 ) ;
#339 = LOCAL_TIME ( 16, 18, 26.00000000000000000, #3 ) ;
#340 = CYLINDRICAL_SURFACE ( 'NONE', #78, 3.150000000000000355 ) ;
#341 = ORIENTED_EDGE ( 'NONE', *, *, #21, .F. ) ;
#342 = EDGE_CURVE ( 'NONE', #111, #400, #15, .T. ) ;
#343 = DIRECTION ( 'NONE',  ( 0.7071067811865493491, 8.659560562354956277E-17, -0.7071067811865456854 ) ) ;
#344 = ORIENTED_EDGE ( 'NONE', *, *, #109, .T. ) ;
#345 = DIRECTION ( 'NONE',  ( 1.000000000000000000, 0.000000000000000000, -0.000000000000000000 ) ) ;
#346 = LOCAL_TIME ( 16, 18, 26.00000000000000000, #398 ) ;
#347 = ORIENTED_EDGE ( 'NONE', *, *, #68, .T. ) ;
#348 = COORDINATED_UNIVERSAL_TIME_OFFSET ( 6, 0, .BEHIND. ) ;
#349 = CC_DESIGN_PERSON_AND_ORGANIZATION_ASSIGNMENT ( #79, #285, ( #156 ) ) ;
#350 = CARTESIAN_POINT ( 'NONE',  ( 0.000000000000000000, 0.000000000000000000, -20.00000000000000000 ) ) ;
#351 = COORDINATED_UNIVERSAL_TIME_OFFSET ( 6, 0, .BEHIND. ) ;
#352 = ORIENTED_EDGE ( 'NONE', *, *, #59, .F. ) ;
#353 = AXIS2_PLACEMENT_3D ( 'NONE', #169, #164, #211 ) ;
#354 = APPROVAL_STATUS ( 'not_yet_approved' ) ;
#355 = CC_DESIGN_APPROVAL ( #94, ( #123 ) ) ;
#356 = CARTESIAN_POINT ( 'NONE',  ( 0.000000000000000000, 0.000000000000000000, -20.00000000000000000 ) ) ;
#357 = EDGE_CURVE ( 'NONE', #311, #29, #235, .T. ) ;
#358 = DATE_AND_TIME ( #194, #257 ) ;
#359 = DIRECTION ( 'NONE',  ( -0.000000000000000000, -0.000000000000000000, 1.000000000000000000 ) ) ;
#360 = AXIS2_PLACEMENT_3D ( 'NONE', #34, #142, #177 ) ;
#361 = LINE ( 'NONE', #433, #296 ) ;
#362 = COORDINATED_UNIVERSAL_TIME_OFFSET ( 6, 0, .BEHIND. ) ;
#363 = DIRECTION ( 'NONE',  ( 1.000000000000000000, 0.000000000000000000, 0.000000000000000000 ) ) ;
#364 = EDGE_LOOP ( 'NONE', ( #406, #269, #27, #352 ) ) ;
#365 = LINE ( 'NONE', #82, #129 ) ;
#366 = ORIENTED_EDGE ( 'NONE', *, *, #21, .T. ) ;
#367 = ADVANCED_FACE ( 'NONE', ( #372, #56 ), #205, .T. ) ;
#368 = CIRCLE ( 'NONE', #329, 6.165000000000003588 ) ;
#369 = DIRECTION ( 'NONE',  ( -0.000000000000000000, -0.000000000000000000, 1.000000000000000000 ) ) ;
#370 = ORIENTED_EDGE ( 'NONE', *, *, #63, .T. ) ;
#371 = DIRECTION ( 'NONE',  ( -0.000000000000000000, -0.000000000000000000, -1.000000000000000000 ) ) ;
#372 = FACE_BOUND ( 'NONE', #108, .T. ) ;
#373 = ORIENTED_EDGE ( 'NONE', *, *, #291, .T. ) ;
#374 = DIRECTION ( 'NONE',  ( 1.000000000000000000, 0.000000000000000000, 0.000000000000000000 ) ) ;
#375 = ADVANCED_FACE ( 'NONE', ( #133 ), #407, .T. ) ;
#376 = EDGE_LOOP ( 'NONE', ( #179, #141 ) ) ;
#377 = DIRECTION ( 'NONE',  ( -0.000000000000000000, -0.000000000000000000, -1.000000000000000000 ) ) ;
#378 = LINE ( 'NONE', #279, #151 ) ;
#379 = AXIS2_PLACEMENT_3D ( 'NONE', #12, #393, #189 ) ;
#380 = DIRECTION ( 'NONE',  ( 0.000000000000000000, 0.000000000000000000, 1.000000000000000000 ) ) ;
#381 = DIRECTION ( 'NONE',  ( 0.000000000000000000, 0.000000000000000000, 1.000000000000000000 ) ) ;
#382 = CIRCLE ( 'NONE', #188, 6.500000000000000888 ) ;
#383 = FACE_OUTER_BOUND ( 'NONE', #31, .T. ) ;
#384 = ORIENTED_EDGE ( 'NONE', *, *, #5, .T. ) ;
#385 = LINE ( 'NONE', #276, #172 ) ;
#386 = APPROVAL_DATE_TIME ( #112, #94 ) ;
#387 = CONICAL_SURFACE ( 'NONE', #449, 6.500000000000000888, 0.7853981633974457255 ) ;
#388 = DATE_TIME_ROLE ( 'creation_date' ) ;
#389 = CC_DESIGN_DATE_AND_TIME_ASSIGNMENT ( #358, #80, ( #146 ) ) ;
#390 = LINE ( 'NONE', #221, #248 ) ;
#391 = EDGE_CURVE ( 'NONE', #432, #65, #390, .T. ) ;
#392 = AXIS2_PLACEMENT_3D ( 'NONE', #226, #259, #332 ) ;
#393 = DIRECTION ( 'NONE',  ( 0.000000000000000000, 0.000000000000000000, 1.000000000000000000 ) ) ;
#394 = ADVANCED_FACE ( 'NONE', ( #383 ), #196, .T. ) ;
#395 = CARTESIAN_POINT ( 'NONE',  ( -3.652499999999999414, 0.000000000000000000, -20.00000000000000000 ) ) ;
#396 =( GEOMETRIC_REPRESENTATION_CONTEXT ( 3 ) GLOBAL_UNCERTAINTY_ASSIGNED_CONTEXT ( ( #202 ) ) GLOBAL_UNIT_ASSIGNED_CONTEXT ( ( #174, #148, #448 ) ) REPRESENTATION_CONTEXT ( 'NONE', 'WORKASPACE' ) );
#397 = FACE_OUTER_BOUND ( 'NONE', #45, .T. ) ;
#398 = COORDINATED_UNIVERSAL_TIME_OFFSET ( 6, 0, .BEHIND. ) ;
#399 = DIRECTION ( 'NONE',  ( 0.000000000000000000, 0.000000000000000000, 1.000000000000000000 ) ) ;
#400 = VERTEX_POINT ( 'NONE', #180 ) ;
#401 = CYLINDRICAL_SURFACE ( 'NONE', #441, 6.500000000000000888 ) ;
#402 = AXIS2_PLACEMENT_3D ( 'NONE', #418, #73, #288 ) ;
#403 = ORIENTED_EDGE ( 'NONE', *, *, #333, .T. ) ;
#404 = DIRECTION ( 'NONE',  ( -0.000000000000000000, -0.000000000000000000, -1.000000000000000000 ) ) ;
#405 = DIRECTION ( 'NONE',  ( 0.000000000000000000, 0.000000000000000000, -1.000000000000000000 ) ) ;
#406 = ORIENTED_EDGE ( 'NONE', *, *, #342, .T. ) ;
#407 = CYLINDRICAL_SURFACE ( 'NONE', #292, 6.500000000000000888 ) ;
#408 = CONICAL_SURFACE ( 'NONE', #127, 3.652499999999999414, 0.7853981633974445042 ) ;
#409 = VERTEX_POINT ( 'NONE', #223 ) ;
#410 = DIRECTION ( 'NONE',  ( -0.000000000000000000, -0.000000000000000000, 1.000000000000000000 ) ) ;
#411 = CC_DESIGN_SECURITY_CLASSIFICATION ( #146, ( #123 ) ) ;
#412 = ORIENTED_EDGE ( 'NONE', *, *, #109, .F. ) ;
#413 = CARTESIAN_POINT ( 'NONE',  ( 0.000000000000000000, 0.000000000000000000, 20.00000000000000000 ) ) ;
#414 = EDGE_LOOP ( 'NONE', ( #230, #373, #412, #299 ) ) ;
#415 = CARTESIAN_POINT ( 'NONE',  ( 6.165000000000003588, 0.000000000000000000, -20.00000000000000000 ) ) ;
#416 = CIRCLE ( 'NONE', #231, 3.150000000000000355 ) ;
#417 = ORIENTED_EDGE ( 'NONE', *, *, #136, .F. ) ;
#418 = CARTESIAN_POINT ( 'NONE',  ( 0.000000000000000000, 0.000000000000000000, 20.00000000000000000 ) ) ;
#419 = DIRECTION ( 'NONE',  ( 0.000000000000000000, 0.000000000000000000, 1.000000000000000000 ) ) ;
#420 = PERSON_AND_ORGANIZATION ( #100, #40 ) ;
#421 = PRODUCT_DEFINITION ( 'UNKNOWN', '', #123, #178 ) ;
#422 = APPLICATION_PROTOCOL_DEFINITION ( 'international standard', 'config_control_design', 1994, #166 ) ;
#423 = PERSON_AND_ORGANIZATION_ROLE ( 'design_supplier' ) ;
#424 = APPLICATION_CONTEXT ( 'configuration controlled 3d designs of mechanical parts and assemblies' ) ;
#425 = CIRCLE ( 'NONE', #200, 6.500000000000000888 ) ;
#426 = CARTESIAN_POINT ( 'NONE',  ( -6.500000000000000888, 7.960204194457794491E-16, -19.66500000000000270 ) ) ;
#427 = PERSON_AND_ORGANIZATION ( #100, #40 ) ;
#428 = CARTESIAN_POINT ( 'NONE',  ( -6.165000000000003588, 0.000000000000000000, 20.00000000000000000 ) ) ;
#429 = PRODUCT_DEFINITION_SHAPE ( 'NONE', 'NONE',  #421 ) ;
#430 = AXIS2_PLACEMENT_3D ( 'NONE', #356, #446, #7 ) ;
#431 = CARTESIAN_POINT ( 'NONE',  ( 3.652500000000013181, 0.000000000000000000, 20.00000000000000000 ) ) ;
#432 = VERTEX_POINT ( 'NONE', #214 ) ;
#433 = CARTESIAN_POINT ( 'NONE',  ( -3.652499999999999414, 0.000000000000000000, -20.00000000000000000 ) ) ;
#434 = EDGE_CURVE ( 'NONE', #445, #157, #338, .T. ) ;
#435 = EDGE_LOOP ( 'NONE', ( #99, #366 ) ) ;
#436 = CARTESIAN_POINT ( 'NONE',  ( 0.000000000000000000, 0.000000000000000000, -20.00000000000000000 ) ) ;
#437 = AXIS2_PLACEMENT_3D ( 'NONE', #350, #210, #243 ) ;
#438 = DIRECTION ( 'NONE',  ( 0.000000000000000000, 0.000000000000000000, 1.000000000000000000 ) ) ;
#439 = ORIENTED_EDGE ( 'NONE', *, *, #83, .F. ) ;
#440 = CARTESIAN_POINT ( 'NONE',  ( 0.000000000000000000, 0.000000000000000000, 20.00000000000000000 ) ) ;
#441 = AXIS2_PLACEMENT_3D ( 'NONE', #153, #86, #44 ) ;
#442 = CARTESIAN_POINT ( 'NONE',  ( 6.165000000000003588, 7.755075855600615563E-16, 20.00000000000000000 ) ) ;
#443 = DIRECTION ( 'NONE',  ( -1.000000000000000000, 0.000000000000000000, 0.000000000000000000 ) ) ;
#444 = LINE ( 'NONE', #201, #69 ) ;
#445 = VERTEX_POINT ( 'NONE', #415 ) ;
#446 = DIRECTION ( 'NONE',  ( -0.000000000000000000, -0.000000000000000000, -1.000000000000000000 ) ) ;
#447 = EDGE_LOOP ( 'NONE', ( #417, #302, #272, #260 ) ) ;
#448 =( NAMED_UNIT ( * ) SI_UNIT ( $, .STERADIAN. ) SOLID_ANGLE_UNIT ( ) );
#449 = AXIS2_PLACEMENT_3D ( 'NONE', #28, #410, #101 ) ;
ENDSEC;
END-ISO-10303-21;
