ISO-10303-21;
HEADER;
FILE_DESCRIPTION (( 'STEP AP203' ),
    '1' );
FILE_NAME ('94669A190_Aluminum Unthreaded Spacer.STEP',
    '2026-01-08T22:17:43',
    ( 'McMaster Carr Supply' ),
    ( 'McMaster Carr Supply' ),
    'SwSTEP 2.0',
    'SolidWorks 2024',
    '' );
FILE_SCHEMA (( 'CONFIG_CONTROL_DESIGN' ));
ENDSEC;

DATA;
#1 = ADVANCED_FACE ( 'NONE', ( #39 ), #341, .F. ) ;
#2 = VERTEX_POINT ( 'NONE', #315 ) ;
#3 = APPROVAL_STATUS ( 'not_yet_approved' ) ;
#4 = ORGANIZATION ( 'UNSPECIFIED', 'UNSPECIFIED', '' ) ;
#5 = CARTESIAN_POINT ( 'NONE',  ( 0.000000000000000000, 0.000000000000000000, -10.00000000000000000 ) ) ;
#6 = CALENDAR_DATE ( 2026, 8, 1 ) ;
#7 = ORIENTED_EDGE ( 'NONE', *, *, #331, .F. ) ;
#8 = DIRECTION ( 'NONE',  ( 0.000000000000000000, 0.000000000000000000, 1.000000000000000000 ) ) ;
#9 = AXIS2_PLACEMENT_3D ( 'NONE', #108, #390, #47 ) ;
#10 = ADVANCED_FACE ( 'NONE', ( #73 ), #335, .T. ) ;
#11 = DIRECTION ( 'NONE',  ( 0.000000000000000000, 0.000000000000000000, 1.000000000000000000 ) ) ;
#12 = DIRECTION ( 'NONE',  ( 1.000000000000000000, 0.000000000000000000, 0.000000000000000000 ) ) ;
#13 = DIRECTION ( 'NONE',  ( -0.7071067811865493491, 8.659560562354955045E-17, 0.7071067811865456854 ) ) ;
#14 = LOCAL_TIME ( 16, 17, 43.00000000000000000, #201 ) ;
#15 = EDGE_CURVE ( 'NONE', #413, #282, #233, .T. ) ;
#16 = CARTESIAN_POINT ( 'NONE',  ( 0.000000000000000000, 0.000000000000000000, 10.00000000000000000 ) ) ;
#17 = AXIS2_PLACEMENT_3D ( 'NONE', #242, #173, #317 ) ;
#18 = ORIENTED_EDGE ( 'NONE', *, *, #239, .T. ) ;
#19 = CARTESIAN_POINT ( 'NONE',  ( 3.652500000000002967, 4.473022433885711305E-16, -10.00000000000000000 ) ) ;
#20 = EDGE_CURVE ( 'NONE', #2, #365, #191, .T. ) ;
#21 = CYLINDRICAL_SURFACE ( 'NONE', #205, 3.150000000000000355 ) ;
#22 = CARTESIAN_POINT ( 'NONE',  ( -6.164999999999995595, 7.755075855600610633E-16, -10.00000000000000000 ) ) ;
#23 = CC_DESIGN_SECURITY_CLASSIFICATION ( #194, ( #230 ) ) ;
#24 = EDGE_LOOP ( 'NONE', ( #383, #248, #18, #262 ) ) ;
#25 = EDGE_CURVE ( 'NONE', #212, #370, #290, .T. ) ;
#26 =( LENGTH_UNIT ( ) NAMED_UNIT ( * ) SI_UNIT ( .MILLI., .METRE. ) );
#27 = LINE ( 'NONE', #91, #213 ) ;
#28 = CARTESIAN_POINT ( 'NONE',  ( -3.150000000000000355, 3.857637417314163182E-16, 9.497500000000000497 ) ) ;
#29 = DIRECTION ( 'NONE',  ( 0.7071067811865493491, 8.659560562354956277E-17, -0.7071067811865456854 ) ) ;
#30 = DIRECTION ( 'NONE',  ( 1.000000000000000000, 0.000000000000000000, 0.000000000000000000 ) ) ;
#31 = APPROVAL_DATE_TIME ( #125, #215 ) ;
#32 = CIRCLE ( 'NONE', #136, 6.500000000000000888 ) ;
#33 = ORIENTED_EDGE ( 'NONE', *, *, #318, .T. ) ;
#34 = CC_DESIGN_APPROVAL ( #308, ( #230 ) ) ;
#35 = ORIENTED_EDGE ( 'NONE', *, *, #15, .F. ) ;
#36 = EDGE_CURVE ( 'NONE', #370, #212, #448, .T. ) ;
#37 = ORIENTED_EDGE ( 'NONE', *, *, #385, .T. ) ;
#38 = VECTOR ( 'NONE', #92, 1000.000000000000000 ) ;
#39 = FACE_OUTER_BOUND ( 'NONE', #53, .T. ) ;
#40 = DATE_TIME_ROLE ( 'creation_date' ) ;
#41 = ORIENTED_EDGE ( 'NONE', *, *, #20, .T. ) ;
#42 = AXIS2_PLACEMENT_3D ( 'NONE', #208, #132, #105 ) ;
#43 = CARTESIAN_POINT ( 'NONE',  ( -3.150000000000000355, 3.857637417314163182E-16, 9.497500000000000497 ) ) ;
#44 = PRODUCT_DEFINITION ( 'UNKNOWN', '', #230, #138 ) ;
#45 = AXIS2_PLACEMENT_3D ( 'NONE', #263, #85, #323 ) ;
#46 = FACE_OUTER_BOUND ( 'NONE', #176, .T. ) ;
#47 = DIRECTION ( 'NONE',  ( 1.000000000000000000, 0.000000000000000000, 0.000000000000000000 ) ) ;
#48 = FACE_OUTER_BOUND ( 'NONE', #56, .T. ) ;
#49 = AXIS2_PLACEMENT_3D ( 'NONE', #299, #152, #336 ) ;
#50 = PRODUCT_RELATED_PRODUCT_CATEGORY ( 'detail', '', ( #271 ) ) ;
#51 = CARTESIAN_POINT ( 'NONE',  ( 6.500000000000000888, 0.000000000000000000, -10.00000000000000000 ) ) ;
#52 = AXIS2_PLACEMENT_3D ( 'NONE', #5, #418, #12 ) ;
#53 = EDGE_LOOP ( 'NONE', ( #217, #71, #416, #386 ) ) ;
#54 = DIRECTION ( 'NONE',  ( 0.000000000000000000, 0.000000000000000000, 1.000000000000000000 ) ) ;
#55 = ADVANCED_FACE ( 'NONE', ( #257 ), #298, .T. ) ;
#56 = EDGE_LOOP ( 'NONE', ( #97, #202, #35, #404 ) ) ;
#57 = ADVANCED_FACE ( 'NONE', ( #146, #218 ), #149, .T. ) ;
#58 = VECTOR ( 'NONE', #77, 1000.000000000000000 ) ;
#59 = PERSON_AND_ORGANIZATION ( #333, #4 ) ;
#60 = VECTOR ( 'NONE', #292, 1000.000000000000114 ) ;
#61 = PERSON_AND_ORGANIZATION ( #333, #4 ) ;
#62 = PLANE ( 'NONE',  #107 ) ;
#63 = LOCAL_TIME ( 16, 17, 43.00000000000000000, #94 ) ;
#64 = FACE_BOUND ( 'NONE', #254, .T. ) ;
#65 = DIRECTION ( 'NONE',  ( 0.000000000000000000, 0.000000000000000000, -1.000000000000000000 ) ) ;
#66 = COORDINATED_UNIVERSAL_TIME_OFFSET ( 6, 0, .BEHIND. ) ;
#67 = ORIENTED_EDGE ( 'NONE', *, *, #434, .T. ) ;
#68 = ADVANCED_FACE ( 'NONE', ( #48 ), #366, .T. ) ;
#69 = VERTEX_POINT ( 'NONE', #178 ) ;
#70 = DATE_AND_TIME ( #6, #286 ) ;
#71 = ORIENTED_EDGE ( 'NONE', *, *, #443, .F. ) ;
#72 = CIRCLE ( 'NONE', #241, 6.165000000000000036 ) ;
#73 = FACE_OUTER_BOUND ( 'NONE', #431, .T. ) ;
#74 = EDGE_CURVE ( 'NONE', #329, #413, #362, .T. ) ;
#75 = ORIENTED_EDGE ( 'NONE', *, *, #301, .F. ) ;
#76 = CARTESIAN_POINT ( 'NONE',  ( -6.165000000000000036, 0.000000000000000000, 10.00000000000000000 ) ) ;
#77 = DIRECTION ( 'NONE',  ( 0.000000000000000000, 0.000000000000000000, 1.000000000000000000 ) ) ;
#78 = DIRECTION ( 'NONE',  ( 1.000000000000000000, 0.000000000000000000, 0.000000000000000000 ) ) ;
#79 = ORIENTED_EDGE ( 'NONE', *, *, #443, .T. ) ;
#80 = DIRECTION ( 'NONE',  ( -0.000000000000000000, -0.000000000000000000, -1.000000000000000000 ) ) ;
#81 = EDGE_CURVE ( 'NONE', #446, #282, #422, .T. ) ;
#82 = LINE ( 'NONE', #43, #143 ) ;
#83 = CC_DESIGN_APPROVAL ( #215, ( #194 ) ) ;
#84 = ORIENTED_EDGE ( 'NONE', *, *, #189, .T. ) ;
#85 = DIRECTION ( 'NONE',  ( -0.000000000000000000, -0.000000000000000000, 1.000000000000000000 ) ) ;
#86 = AXIS2_PLACEMENT_3D ( 'NONE', #305, #160, #309 ) ;
#87 = ORIENTED_EDGE ( 'NONE', *, *, #25, .T. ) ;
#88 =( NAMED_UNIT ( * ) SI_UNIT ( $, .STERADIAN. ) SOLID_ANGLE_UNIT ( ) );
#89 = CIRCLE ( 'NONE', #430, 3.150000000000000355 ) ;
#90 = FACE_OUTER_BOUND ( 'NONE', #411, .T. ) ;
#91 = CARTESIAN_POINT ( 'NONE',  ( 6.165000000000000036, 7.549947516743430719E-16, 10.00000000000000000 ) ) ;
#92 = DIRECTION ( 'NONE',  ( 0.7071067811865493491, 0.000000000000000000, 0.7071067811865456854 ) ) ;
#93 = DIRECTION ( 'NONE',  ( 0.000000000000000000, 0.000000000000000000, 1.000000000000000000 ) ) ;
#94 = COORDINATED_UNIVERSAL_TIME_OFFSET ( 6, 0, .BEHIND. ) ;
#95 = EDGE_CURVE ( 'NONE', #446, #69, #442, .T. ) ;
#96 = LINE ( 'NONE', #440, #420 ) ;
#97 = ORIENTED_EDGE ( 'NONE', *, *, #211, .F. ) ;
#98 = AXIS2_PLACEMENT_3D ( 'NONE', #224, #145, #261 ) ;
#99 = ORIENTED_EDGE ( 'NONE', *, *, #104, .F. ) ;
#100 = PERSON_AND_ORGANIZATION_ROLE ( 'classification_officer' ) ;
#101 = CIRCLE ( 'NONE', #9, 6.165000000000000036 ) ;
#102 = ORIENTED_EDGE ( 'NONE', *, *, #95, .T. ) ;
#103 = DIRECTION ( 'NONE',  ( 1.000000000000000000, 0.000000000000000000, 0.000000000000000000 ) ) ;
#104 = EDGE_CURVE ( 'NONE', #332, #294, #110, .T. ) ;
#105 = DIRECTION ( 'NONE',  ( -1.000000000000000000, 0.000000000000000000, 0.000000000000000000 ) ) ;
#106 = CARTESIAN_POINT ( 'NONE',  ( 3.652500000000002967, 4.473022433885711305E-16, -10.00000000000000000 ) ) ;
#107 = AXIS2_PLACEMENT_3D ( 'NONE', #375, #192, #195 ) ;
#108 = CARTESIAN_POINT ( 'NONE',  ( 0.000000000000000000, 0.000000000000000000, 10.00000000000000000 ) ) ;
#109 = DIRECTION ( 'NONE',  ( 1.000000000000000000, 0.000000000000000000, 0.000000000000000000 ) ) ;
#110 = LINE ( 'NONE', #368, #127 ) ;
#111 = ORIENTED_EDGE ( 'NONE', *, *, #304, .F. ) ;
#112 = CONICAL_SURFACE ( 'NONE', #98, 3.150000000000000355, 0.7853981633974509435 ) ;
#113 = DIRECTION ( 'NONE',  ( -0.000000000000000000, -0.000000000000000000, -1.000000000000000000 ) ) ;
#114 = ORIENTED_EDGE ( 'NONE', *, *, #74, .T. ) ;
#115 = ADVANCED_FACE ( 'NONE', ( #324 ), #371, .F. ) ;
#116 = CARTESIAN_POINT ( 'NONE',  ( 6.500000000000000888, 0.000000000000000000, -9.664999999999997371 ) ) ;
#117 = MECHANICAL_CONTEXT ( 'NONE', #400, 'mechanical' ) ;
#118 = APPROVAL_ROLE ( '' ) ;
#119 = CARTESIAN_POINT ( 'NONE',  ( 3.150000000000000355, 0.000000000000000000, 9.497500000000000497 ) ) ;
#120 = CC_DESIGN_PERSON_AND_ORGANIZATION_ASSIGNMENT ( #59, #405, ( #271 ) ) ;
#121 = CARTESIAN_POINT ( 'NONE',  ( -3.652500000000002967, 0.000000000000000000, -10.00000000000000000 ) ) ;
#122 = CARTESIAN_POINT ( 'NONE',  ( 0.000000000000000000, 0.000000000000000000, 9.665000000000000924 ) ) ;
#123 = CONICAL_SURFACE ( 'NONE', #86, 6.500000000000000888, 0.7853981633974521648 ) ;
#124 = DIRECTION ( 'NONE',  ( 1.000000000000000000, 0.000000000000000000, 0.000000000000000000 ) ) ;
#125 = DATE_AND_TIME ( #344, #182 ) ;
#126 = ORIENTED_EDGE ( 'NONE', *, *, #342, .F. ) ;
#127 = VECTOR ( 'NONE', #186, 1000.000000000000114 ) ;
#128 = EDGE_LOOP ( 'NONE', ( #87, #384 ) ) ;
#129 = ORIENTED_EDGE ( 'NONE', *, *, #206, .T. ) ;
#130 = LINE ( 'NONE', #319, #227 ) ;
#131 = APPROVAL_DATE_TIME ( #198, #308 ) ;
#132 = DIRECTION ( 'NONE',  ( 0.000000000000000000, 0.000000000000000000, -1.000000000000000000 ) ) ;
#133 = CARTESIAN_POINT ( 'NONE',  ( -3.150000000000000355, 3.857637417314163182E-16, -9.497499999999995168 ) ) ;
#134 = CARTESIAN_POINT ( 'NONE',  ( 3.150000000000000355, 0.000000000000000000, 9.497500000000000497 ) ) ;
#135 = EDGE_LOOP ( 'NONE', ( #204, #311, #37, #187 ) ) ;
#136 = AXIS2_PLACEMENT_3D ( 'NONE', #122, #65, #30 ) ;
#137 = DIRECTION ( 'NONE',  ( 1.000000000000000000, 0.000000000000000000, 0.000000000000000000 ) ) ;
#138 = DESIGN_CONTEXT ( 'detailed design', #291, 'design' ) ;
#139 = ORIENTED_EDGE ( 'NONE', *, *, #245, .T. ) ;
#140 = CARTESIAN_POINT ( 'NONE',  ( 0.000000000000000000, 0.000000000000000000, 10.00000000000000000 ) ) ;
#141 = VERTEX_POINT ( 'NONE', #19 ) ;
#142 = AXIS2_PLACEMENT_3D ( 'NONE', #393, #284, #78 ) ;
#143 = VECTOR ( 'NONE', #13, 1000.000000000000000 ) ;
#144 = DIRECTION ( 'NONE',  ( 1.000000000000000000, 0.000000000000000000, 0.000000000000000000 ) ) ;
#145 = DIRECTION ( 'NONE',  ( 0.000000000000000000, 0.000000000000000000, 1.000000000000000000 ) ) ;
#146 = FACE_BOUND ( 'NONE', #128, .T. ) ;
#147 = FACE_OUTER_BOUND ( 'NONE', #24, .T. ) ;
#148 = ORIENTED_EDGE ( 'NONE', *, *, #95, .F. ) ;
#149 = PLANE ( 'NONE',  #348 ) ;
#150 = ORIENTED_EDGE ( 'NONE', *, *, #189, .F. ) ;
#151 = APPLICATION_PROTOCOL_DEFINITION ( 'international standard', 'config_control_design', 1994, #291 ) ;
#152 = DIRECTION ( 'NONE',  ( 0.000000000000000000, 0.000000000000000000, 1.000000000000000000 ) ) ;
#153 = CARTESIAN_POINT ( 'NONE',  ( 0.000000000000000000, 0.000000000000000000, 9.497500000000000497 ) ) ;
#154 = EDGE_CURVE ( 'NONE', #264, #244, #392, .T. ) ;
#155 = DIRECTION ( 'NONE',  ( -0.000000000000000000, -0.000000000000000000, -1.000000000000000000 ) ) ;
#156 = CIRCLE ( 'NONE', #49, 3.652500000000002967 ) ;
#157 = ADVANCED_BREP_SHAPE_REPRESENTATION ( '94669A190_Aluminum Unthreaded Spacer', ( #445, #203 ), #397 ) ;
#158 = CARTESIAN_POINT ( 'NONE',  ( -6.500000000000000888, 7.960204194457796463E-16, 9.665000000000000924 ) ) ;
#159 = CARTESIAN_POINT ( 'NONE',  ( 0.000000000000000000, 0.000000000000000000, -10.00000000000000000 ) ) ;
#160 = DIRECTION ( 'NONE',  ( -0.000000000000000000, -0.000000000000000000, 1.000000000000000000 ) ) ;
#161 = CIRCLE ( 'NONE', #343, 3.652500000000002967 ) ;
#162 = CARTESIAN_POINT ( 'NONE',  ( 3.150000000000000355, 0.000000000000000000, -10.00000000000000000 ) ) ;
#163 = CC_DESIGN_PERSON_AND_ORGANIZATION_ASSIGNMENT ( #243, #417, ( #44 ) ) ;
#164 = PERSON_AND_ORGANIZATION_ROLE ( 'design_supplier' ) ;
#165 = ORIENTED_EDGE ( 'NONE', *, *, #20, .F. ) ;
#166 = VECTOR ( 'NONE', #334, 1000.000000000000000 ) ;
#167 = ORIENTED_EDGE ( 'NONE', *, *, #250, .F. ) ;
#168 = AXIS2_PLACEMENT_3D ( 'NONE', #260, #54, #328 ) ;
#169 = CIRCLE ( 'NONE', #235, 3.150000000000000355 ) ;
#170 = ORIENTED_EDGE ( 'NONE', *, *, #301, .T. ) ;
#171 = DATE_TIME_ROLE ( 'classification_date' ) ;
#172 = VECTOR ( 'NONE', #8, 1000.000000000000000 ) ;
#173 = DIRECTION ( 'NONE',  ( 0.000000000000000000, 0.000000000000000000, -1.000000000000000000 ) ) ;
#174 = CC_DESIGN_APPROVAL ( #361, ( #44 ) ) ;
#175 = PERSON_AND_ORGANIZATION_ROLE ( 'creator' ) ;
#176 = EDGE_LOOP ( 'NONE', ( #111, #129, #199, #170 ) ) ;
#177 = ADVANCED_FACE ( 'NONE', ( #330 ), #21, .F. ) ;
#178 = CARTESIAN_POINT ( 'NONE',  ( -6.500000000000000888, 7.960204194457796463E-16, -9.664999999999997371 ) ) ;
#179 = CARTESIAN_POINT ( 'NONE',  ( 0.000000000000000000, 0.000000000000000000, -9.664999999999997371 ) ) ;
#180 = ORIENTED_EDGE ( 'NONE', *, *, #250, .T. ) ;
#181 = CARTESIAN_POINT ( 'NONE',  ( 0.000000000000000000, 0.000000000000000000, 10.00000000000000000 ) ) ;
#182 = LOCAL_TIME ( 16, 17, 43.00000000000000000, #66 ) ;
#183 = CARTESIAN_POINT ( 'NONE',  ( 0.000000000000000000, 0.000000000000000000, 10.00000000000000000 ) ) ;
#184 = DIRECTION ( 'NONE',  ( 1.000000000000000000, 0.000000000000000000, 0.000000000000000000 ) ) ;
#185 = EDGE_CURVE ( 'NONE', #244, #370, #82, .T. ) ;
#186 = DIRECTION ( 'NONE',  ( -0.7071067811865460184, 0.000000000000000000, -0.7071067811865489050 ) ) ;
#187 = ORIENTED_EDGE ( 'NONE', *, *, #434, .F. ) ;
#188 = DIRECTION ( 'NONE',  ( -1.000000000000000000, 0.000000000000000000, 0.000000000000000000 ) ) ;
#189 = EDGE_CURVE ( 'NONE', #329, #352, #72, .T. ) ;
#190 = CARTESIAN_POINT ( 'NONE',  ( 0.000000000000000000, 0.000000000000000000, -10.00000000000000000 ) ) ;
#191 = CIRCLE ( 'NONE', #52, 6.164999999999995595 ) ;
#192 = DIRECTION ( 'NONE',  ( 0.000000000000000000, 0.000000000000000000, 1.000000000000000000 ) ) ;
#193 = DIRECTION ( 'NONE',  ( 0.000000000000000000, 0.000000000000000000, 1.000000000000000000 ) ) ;
#194 = SECURITY_CLASSIFICATION ( '', '', #274 ) ;
#195 = DIRECTION ( 'NONE',  ( 1.000000000000000000, 0.000000000000000000, -0.000000000000000000 ) ) ;
#196 = EDGE_CURVE ( 'NONE', #365, #2, #225, .T. ) ;
#197 = CIRCLE ( 'NONE', #45, 6.500000000000000888 ) ;
#198 = DATE_AND_TIME ( #272, #63 ) ;
#199 = ORIENTED_EDGE ( 'NONE', *, *, #81, .T. ) ;
#200 = LINE ( 'NONE', #414, #172 ) ;
#201 = COORDINATED_UNIVERSAL_TIME_OFFSET ( 6, 0, .BEHIND. ) ;
#202 = ORIENTED_EDGE ( 'NONE', *, *, #406, .T. ) ;
#203 = AXIS2_PLACEMENT_3D ( 'NONE', #444, #268, #124 ) ;
#204 = ORIENTED_EDGE ( 'NONE', *, *, #231, .T. ) ;
#205 = AXIS2_PLACEMENT_3D ( 'NONE', #388, #214, #137 ) ;
#206 = EDGE_CURVE ( 'NONE', #69, #446, #197, .T. ) ;
#207 = CALENDAR_DATE ( 2026, 8, 1 ) ;
#208 = CARTESIAN_POINT ( 'NONE',  ( 0.000000000000000000, 0.000000000000000000, 10.00000000000000000 ) ) ;
#209 = LINE ( 'NONE', #106, #269 ) ;
#210 = DATE_AND_TIME ( #207, #14 ) ;
#211 = EDGE_CURVE ( 'NONE', #352, #329, #101, .T. ) ;
#212 = VERTEX_POINT ( 'NONE', #425 ) ;
#213 = VECTOR ( 'NONE', #29, 1000.000000000000114 ) ;
#214 = DIRECTION ( 'NONE',  ( 0.000000000000000000, 0.000000000000000000, 1.000000000000000000 ) ) ;
#215 = APPROVAL ( #3, 'UNSPECIFIED' ) ;
#216 = CARTESIAN_POINT ( 'NONE',  ( 0.000000000000000000, 0.000000000000000000, 9.497500000000000497 ) ) ;
#217 = ORIENTED_EDGE ( 'NONE', *, *, #318, .F. ) ;
#218 = FACE_OUTER_BOUND ( 'NONE', #247, .T. ) ;
#219 = CARTESIAN_POINT ( 'NONE',  ( 0.000000000000000000, 0.000000000000000000, 10.00000000000000000 ) ) ;
#220 = EDGE_LOOP ( 'NONE', ( #102, #380, #349, #281 ) ) ;
#221 = CC_DESIGN_DATE_AND_TIME_ASSIGNMENT ( #70, #171, ( #194 ) ) ;
#222 = AXIS2_PLACEMENT_3D ( 'NONE', #16, #80, #144 ) ;
#223 = DIRECTION ( 'NONE',  ( -0.000000000000000000, -0.000000000000000000, -1.000000000000000000 ) ) ;
#224 = CARTESIAN_POINT ( 'NONE',  ( 0.000000000000000000, 0.000000000000000000, 9.497500000000000497 ) ) ;
#225 = CIRCLE ( 'NONE', #373, 6.164999999999995595 ) ;
#226 = ORIENTED_EDGE ( 'NONE', *, *, #331, .T. ) ;
#227 = VECTOR ( 'NONE', #278, 1000.000000000000114 ) ;
#228 = APPLICATION_PROTOCOL_DEFINITION ( 'international standard', 'config_control_design', 1994, #400 ) ;
#229 = ORIENTED_EDGE ( 'NONE', *, *, #406, .F. ) ;
#230 = PRODUCT_DEFINITION_FORMATION_WITH_SPECIFIED_SOURCE ( 'ANY', '', #271, .NOT_KNOWN. ) ;
#231 = EDGE_CURVE ( 'NONE', #300, #332, #169, .T. ) ;
#232 = DIRECTION ( 'NONE',  ( 1.000000000000000000, 0.000000000000000000, 0.000000000000000000 ) ) ;
#233 = CIRCLE ( 'NONE', #17, 6.500000000000000888 ) ;
#234 = AXIS2_PLACEMENT_3D ( 'NONE', #216, #251, #395 ) ;
#235 = AXIS2_PLACEMENT_3D ( 'NONE', #372, #155, #303 ) ;
#236 = CALENDAR_DATE ( 2026, 8, 1 ) ;
#237 = APPROVAL_PERSON_ORGANIZATION ( #280, #215, #270 ) ;
#238 = APPROVAL_ROLE ( '' ) ;
#239 = EDGE_CURVE ( 'NONE', #264, #212, #439, .T. ) ;
#240 = VECTOR ( 'NONE', #253, 1000.000000000000000 ) ;
#241 = AXIS2_PLACEMENT_3D ( 'NONE', #140, #295, #429 ) ;
#242 = CARTESIAN_POINT ( 'NONE',  ( 0.000000000000000000, 0.000000000000000000, 9.665000000000000924 ) ) ;
#243 = PERSON_AND_ORGANIZATION ( #333, #4 ) ;
#244 = VERTEX_POINT ( 'NONE', #28 ) ;
#245 = EDGE_CURVE ( 'NONE', #141, #294, #161, .T. ) ;
#246 = APPROVAL_DATE_TIME ( #312, #361 ) ;
#247 = EDGE_LOOP ( 'NONE', ( #84, #285 ) ) ;
#248 = ORIENTED_EDGE ( 'NONE', *, *, #154, .F. ) ;
#249 = LINE ( 'NONE', #389, #58 ) ;
#250 = EDGE_CURVE ( 'NONE', #2, #446, #96, .T. ) ;
#251 = DIRECTION ( 'NONE',  ( 0.000000000000000000, 0.000000000000000000, 1.000000000000000000 ) ) ;
#252 = CONICAL_SURFACE ( 'NONE', #363, 6.500000000000000888, 0.7853981633974521648 ) ;
#253 = DIRECTION ( 'NONE',  ( 0.000000000000000000, 0.000000000000000000, 1.000000000000000000 ) ) ;
#254 = EDGE_LOOP ( 'NONE', ( #296, #139 ) ) ;
#255 = CARTESIAN_POINT ( 'NONE',  ( 0.000000000000000000, 0.000000000000000000, -10.00000000000000000 ) ) ;
#256 = AXIS2_PLACEMENT_3D ( 'NONE', #219, #223, #109 ) ;
#257 = FACE_OUTER_BOUND ( 'NONE', #220, .T. ) ;
#258 = EDGE_LOOP ( 'NONE', ( #41, #394 ) ) ;
#259 = DIRECTION ( 'NONE',  ( -0.000000000000000000, -0.000000000000000000, -1.000000000000000000 ) ) ;
#260 = CARTESIAN_POINT ( 'NONE',  ( 0.000000000000000000, 0.000000000000000000, 9.497500000000000497 ) ) ;
#261 = DIRECTION ( 'NONE',  ( 1.000000000000000000, 0.000000000000000000, 0.000000000000000000 ) ) ;
#262 = ORIENTED_EDGE ( 'NONE', *, *, #36, .F. ) ;
#263 = CARTESIAN_POINT ( 'NONE',  ( 0.000000000000000000, 0.000000000000000000, -9.664999999999997371 ) ) ;
#264 = VERTEX_POINT ( 'NONE', #134 ) ;
#265 = ADVANCED_FACE ( 'NONE', ( #46 ), #287, .T. ) ;
#266 =( NAMED_UNIT ( * ) PLANE_ANGLE_UNIT ( ) SI_UNIT ( $, .RADIAN. ) );
#267 = DIRECTION ( 'NONE',  ( -0.000000000000000000, -0.000000000000000000, -1.000000000000000000 ) ) ;
#268 = DIRECTION ( 'NONE',  ( 0.000000000000000000, 0.000000000000000000, 1.000000000000000000 ) ) ;
#269 = VECTOR ( 'NONE', #350, 1000.000000000000114 ) ;
#270 = APPROVAL_ROLE ( '' ) ;
#271 = PRODUCT ( '94669A190_Aluminum Unthreaded Spacer', '94669A190_Aluminum Unthreaded Spacer', '', ( #117 ) ) ;
#272 = CALENDAR_DATE ( 2026, 8, 1 ) ;
#273 = EDGE_LOOP ( 'NONE', ( #345, #226, #148, #167 ) ) ;
#274 = SECURITY_CLASSIFICATION_LEVEL ( 'unclassified' ) ;
#275 = ORIENTED_EDGE ( 'NONE', *, *, #231, .F. ) ;
#276 = PRODUCT_DEFINITION_SHAPE ( 'NONE', 'NONE',  #44 ) ;
#277 = DIRECTION ( 'NONE',  ( -0.000000000000000000, -0.000000000000000000, -1.000000000000000000 ) ) ;
#278 = DIRECTION ( 'NONE',  ( -0.7071067811865503483, 8.659560562354966138E-17, 0.7071067811865446862 ) ) ;
#279 = AXIS2_PLACEMENT_3D ( 'NONE', #190, #93, #232 ) ;
#280 = PERSON_AND_ORGANIZATION ( #333, #4 ) ;
#281 = ORIENTED_EDGE ( 'NONE', *, *, #81, .F. ) ;
#282 = VERTEX_POINT ( 'NONE', #283 ) ;
#283 = CARTESIAN_POINT ( 'NONE',  ( 6.500000000000000888, 0.000000000000000000, 9.665000000000000924 ) ) ;
#284 = DIRECTION ( 'NONE',  ( 0.000000000000000000, 0.000000000000000000, 1.000000000000000000 ) ) ;
#285 = ORIENTED_EDGE ( 'NONE', *, *, #211, .T. ) ;
#286 = LOCAL_TIME ( 16, 17, 43.00000000000000000, #310 ) ;
#287 = CYLINDRICAL_SURFACE ( 'NONE', #382, 6.500000000000000888 ) ;
#288 = ADVANCED_FACE ( 'NONE', ( #424 ), #359, .F. ) ;
#289 = CARTESIAN_POINT ( 'NONE',  ( 0.000000000000000000, 0.000000000000000000, -10.00000000000000000 ) ) ;
#290 = CIRCLE ( 'NONE', #222, 3.652500000000002522 ) ;
#291 = APPLICATION_CONTEXT ( 'configuration controlled 3d designs of mechanical parts and assemblies' ) ;
#292 = DIRECTION ( 'NONE',  ( -0.7071067811865493491, 0.000000000000000000, -0.7071067811865456854 ) ) ;
#293 = CC_DESIGN_PERSON_AND_ORGANIZATION_ASSIGNMENT ( #378, #100, ( #194 ) ) ;
#294 = VERTEX_POINT ( 'NONE', #121 ) ;
#295 = DIRECTION ( 'NONE',  ( 0.000000000000000000, 0.000000000000000000, 1.000000000000000000 ) ) ;
#296 = ORIENTED_EDGE ( 'NONE', *, *, #367, .T. ) ;
#297 = ADVANCED_FACE ( 'NONE', ( #381 ), #123, .T. ) ;
#298 = CYLINDRICAL_SURFACE ( 'NONE', #142, 6.500000000000000888 ) ;
#299 = CARTESIAN_POINT ( 'NONE',  ( 0.000000000000000000, 0.000000000000000000, -10.00000000000000000 ) ) ;
#300 = VERTEX_POINT ( 'NONE', #437 ) ;
#301 = EDGE_CURVE ( 'NONE', #282, #413, #32, .T. ) ;
#302 = FACE_OUTER_BOUND ( 'NONE', #258, .T. ) ;
#303 = DIRECTION ( 'NONE',  ( 1.000000000000000000, 0.000000000000000000, 0.000000000000000000 ) ) ;
#304 = EDGE_CURVE ( 'NONE', #69, #413, #200, .T. ) ;
#305 = CARTESIAN_POINT ( 'NONE',  ( 0.000000000000000000, 0.000000000000000000, -9.664999999999997371 ) ) ;
#306 = DIRECTION ( 'NONE',  ( 1.000000000000000000, 0.000000000000000000, 0.000000000000000000 ) ) ;
#307 = DIRECTION ( 'NONE',  ( 0.000000000000000000, 0.000000000000000000, 1.000000000000000000 ) ) ;
#308 = APPROVAL ( #447, 'UNSPECIFIED' ) ;
#309 = DIRECTION ( 'NONE',  ( 1.000000000000000000, 0.000000000000000000, 0.000000000000000000 ) ) ;
#310 = COORDINATED_UNIVERSAL_TIME_OFFSET ( 6, 0, .BEHIND. ) ;
#311 = ORIENTED_EDGE ( 'NONE', *, *, #342, .T. ) ;
#312 = DATE_AND_TIME ( #236, #355 ) ;
#313 = ORIENTED_EDGE ( 'NONE', *, *, #367, .F. ) ;
#314 = PERSON_AND_ORGANIZATION ( #333, #4 ) ;
#315 = CARTESIAN_POINT ( 'NONE',  ( 6.164999999999995595, 0.000000000000000000, -10.00000000000000000 ) ) ;
#316 = PERSON_AND_ORGANIZATION ( #333, #4 ) ;
#317 = DIRECTION ( 'NONE',  ( 1.000000000000000000, 0.000000000000000000, 0.000000000000000000 ) ) ;
#318 = EDGE_CURVE ( 'NONE', #300, #141, #209, .T. ) ;
#319 = CARTESIAN_POINT ( 'NONE',  ( -6.500000000000000888, 7.960204194457794491E-16, -9.664999999999997371 ) ) ;
#320 = UNCERTAINTY_MEASURE_WITH_UNIT (LENGTH_MEASURE( 1.000000000000000082E-05 ), #26, 'distance_accuracy_value', 'NONE');
#321 = ORIENTED_EDGE ( 'NONE', *, *, #239, .F. ) ;
#322 = FACE_OUTER_BOUND ( 'NONE', #391, .T. ) ;
#323 = DIRECTION ( 'NONE',  ( 1.000000000000000000, 0.000000000000000000, 0.000000000000000000 ) ) ;
#324 = FACE_OUTER_BOUND ( 'NONE', #387, .T. ) ;
#325 = CC_DESIGN_DATE_AND_TIME_ASSIGNMENT ( #210, #40, ( #44 ) ) ;
#326 = DIRECTION ( 'NONE',  ( 0.000000000000000000, 0.000000000000000000, 1.000000000000000000 ) ) ;
#327 = DIRECTION ( 'NONE',  ( -1.000000000000000000, 0.000000000000000000, 0.000000000000000000 ) ) ;
#328 = DIRECTION ( 'NONE',  ( 1.000000000000000000, 0.000000000000000000, 0.000000000000000000 ) ) ;
#329 = VERTEX_POINT ( 'NONE', #353 ) ;
#330 = FACE_OUTER_BOUND ( 'NONE', #135, .T. ) ;
#331 = EDGE_CURVE ( 'NONE', #365, #69, #130, .T. ) ;
#332 = VERTEX_POINT ( 'NONE', #133 ) ;
#333 = PERSON ( 'UNSPECIFIED', 'UNSPECIFIED', 'UNSPECIFIED', ('UNSPECIFIED'), ('UNSPECIFIED'), ('UNSPECIFIED') ) ;
#334 = DIRECTION ( 'NONE',  ( 0.000000000000000000, 0.000000000000000000, 1.000000000000000000 ) ) ;
#335 = CONICAL_SURFACE ( 'NONE', #42, 6.165000000000000036, 0.7853981633974509435 ) ;
#336 = DIRECTION ( 'NONE',  ( 1.000000000000000000, 0.000000000000000000, 0.000000000000000000 ) ) ;
#337 = ADVANCED_FACE ( 'NONE', ( #322 ), #252, .T. ) ;
#338 = CARTESIAN_POINT ( 'NONE',  ( 0.000000000000000000, 0.000000000000000000, -9.497499999999995168 ) ) ;
#339 = DIRECTION ( 'NONE',  ( 1.000000000000000000, 0.000000000000000000, 0.000000000000000000 ) ) ;
#340 = CIRCLE ( 'NONE', #376, 3.150000000000000355 ) ;
#341 = CONICAL_SURFACE ( 'NONE', #441, 3.652500000000002967, 0.7853981633974461696 ) ;
#342 = EDGE_CURVE ( 'NONE', #332, #244, #249, .T. ) ;
#343 = AXIS2_PLACEMENT_3D ( 'NONE', #159, #307, #408 ) ;
#344 = CALENDAR_DATE ( 2026, 8, 1 ) ;
#345 = ORIENTED_EDGE ( 'NONE', *, *, #196, .F. ) ;
#346 = ADVANCED_FACE ( 'NONE', ( #147 ), #112, .F. ) ;
#347 = ORIENTED_EDGE ( 'NONE', *, *, #385, .F. ) ;
#348 = AXIS2_PLACEMENT_3D ( 'NONE', #183, #326, #356 ) ;
#349 = ORIENTED_EDGE ( 'NONE', *, *, #15, .T. ) ;
#350 = DIRECTION ( 'NONE',  ( 0.7071067811865460184, 8.659560562354913137E-17, -0.7071067811865489050 ) ) ;
#351 = PERSON_AND_ORGANIZATION ( #333, #4 ) ;
#352 = VERTEX_POINT ( 'NONE', #396 ) ;
#353 = CARTESIAN_POINT ( 'NONE',  ( -6.165000000000000036, 0.000000000000000000, 10.00000000000000000 ) ) ;
#354 = CARTESIAN_POINT ( 'NONE',  ( 0.000000000000000000, 0.000000000000000000, -10.00000000000000000 ) ) ;
#355 = LOCAL_TIME ( 16, 17, 43.00000000000000000, #407 ) ;
#356 = DIRECTION ( 'NONE',  ( 1.000000000000000000, 0.000000000000000000, -0.000000000000000000 ) ) ;
#357 = AXIS2_PLACEMENT_3D ( 'NONE', #428, #433, #399 ) ;
#358 = DIRECTION ( 'NONE',  ( 0.7071067811865503483, 0.000000000000000000, 0.7071067811865446862 ) ) ;
#359 = CONICAL_SURFACE ( 'NONE', #412, 3.652500000000002967, 0.7853981633974461696 ) ;
#360 = DIRECTION ( 'NONE',  ( 1.000000000000000000, 0.000000000000000000, 0.000000000000000000 ) ) ;
#361 = APPROVAL ( #438, 'UNSPECIFIED' ) ;
#362 = LINE ( 'NONE', #76, #60 ) ;
#363 = AXIS2_PLACEMENT_3D ( 'NONE', #179, #419, #103 ) ;
#364 = DIRECTION ( 'NONE',  ( 0.000000000000000000, 0.000000000000000000, -1.000000000000000000 ) ) ;
#365 = VERTEX_POINT ( 'NONE', #22 ) ;
#366 = CONICAL_SURFACE ( 'NONE', #379, 6.165000000000000036, 0.7853981633974509435 ) ;
#367 = EDGE_CURVE ( 'NONE', #294, #141, #156, .T. ) ;
#368 = CARTESIAN_POINT ( 'NONE',  ( -3.652500000000002967, 0.000000000000000000, -10.00000000000000000 ) ) ;
#369 = ORIENTED_EDGE ( 'NONE', *, *, #25, .F. ) ;
#370 = VERTEX_POINT ( 'NONE', #435 ) ;
#371 = CONICAL_SURFACE ( 'NONE', #168, 3.150000000000000355, 0.7853981633974509435 ) ;
#372 = CARTESIAN_POINT ( 'NONE',  ( 0.000000000000000000, 0.000000000000000000, -9.497499999999995168 ) ) ;
#373 = AXIS2_PLACEMENT_3D ( 'NONE', #289, #113, #360 ) ;
#374 = CC_DESIGN_PERSON_AND_ORGANIZATION_ASSIGNMENT ( #314, #175, ( #230 ) ) ;
#375 = CARTESIAN_POINT ( 'NONE',  ( 0.000000000000000000, 0.000000000000000000, -10.00000000000000000 ) ) ;
#376 = AXIS2_PLACEMENT_3D ( 'NONE', #153, #193, #339 ) ;
#377 = ADVANCED_FACE ( 'NONE', ( #64, #302 ), #62, .F. ) ;
#378 = PERSON_AND_ORGANIZATION ( #333, #4 ) ;
#379 = AXIS2_PLACEMENT_3D ( 'NONE', #181, #364, #188 ) ;
#380 = ORIENTED_EDGE ( 'NONE', *, *, #304, .T. ) ;
#381 = FACE_OUTER_BOUND ( 'NONE', #273, .T. ) ;
#382 = AXIS2_PLACEMENT_3D ( 'NONE', #427, #11, #184 ) ;
#383 = ORIENTED_EDGE ( 'NONE', *, *, #185, .F. ) ;
#384 = ORIENTED_EDGE ( 'NONE', *, *, #36, .T. ) ;
#385 = EDGE_CURVE ( 'NONE', #244, #264, #340, .T. ) ;
#386 = ORIENTED_EDGE ( 'NONE', *, *, #245, .F. ) ;
#387 = EDGE_LOOP ( 'NONE', ( #347, #401, #369, #321 ) ) ;
#388 = CARTESIAN_POINT ( 'NONE',  ( 0.000000000000000000, 0.000000000000000000, -10.00000000000000000 ) ) ;
#389 = CARTESIAN_POINT ( 'NONE',  ( -3.150000000000000355, 3.857637417314163182E-16, -10.00000000000000000 ) ) ;
#390 = DIRECTION ( 'NONE',  ( 0.000000000000000000, 0.000000000000000000, 1.000000000000000000 ) ) ;
#391 = EDGE_LOOP ( 'NONE', ( #7, #165, #180, #449 ) ) ;
#392 = CIRCLE ( 'NONE', #234, 3.150000000000000355 ) ;
#393 = CARTESIAN_POINT ( 'NONE',  ( 0.000000000000000000, 0.000000000000000000, -10.00000000000000000 ) ) ;
#394 = ORIENTED_EDGE ( 'NONE', *, *, #196, .T. ) ;
#395 = DIRECTION ( 'NONE',  ( 1.000000000000000000, 0.000000000000000000, 0.000000000000000000 ) ) ;
#396 = CARTESIAN_POINT ( 'NONE',  ( 6.165000000000000036, 7.755075855600612605E-16, 10.00000000000000000 ) ) ;
#397 =( GEOMETRIC_REPRESENTATION_CONTEXT ( 3 ) GLOBAL_UNCERTAINTY_ASSIGNED_CONTEXT ( ( #320 ) ) GLOBAL_UNIT_ASSIGNED_CONTEXT ( ( #26, #266, #88 ) ) REPRESENTATION_CONTEXT ( 'NONE', 'WORKASPACE' ) );
#398 = EDGE_LOOP ( 'NONE', ( #275, #33, #313, #99 ) ) ;
#399 = DIRECTION ( 'NONE',  ( 1.000000000000000000, 0.000000000000000000, 0.000000000000000000 ) ) ;
#400 = APPLICATION_CONTEXT ( 'configuration controlled 3d designs of mechanical parts and assemblies' ) ;
#401 = ORIENTED_EDGE ( 'NONE', *, *, #185, .T. ) ;
#402 = CLOSED_SHELL ( 'NONE', ( #288, #115, #297, #68, #177, #55, #265, #377, #409, #57, #10, #337, #346, #1 ) ) ;
#403 = LINE ( 'NONE', #162, #166 ) ;
#404 = ORIENTED_EDGE ( 'NONE', *, *, #74, .F. ) ;
#405 = PERSON_AND_ORGANIZATION_ROLE ( 'design_owner' ) ;
#406 = EDGE_CURVE ( 'NONE', #352, #282, #27, .T. ) ;
#407 = COORDINATED_UNIVERSAL_TIME_OFFSET ( 6, 0, .BEHIND. ) ;
#408 = DIRECTION ( 'NONE',  ( 1.000000000000000000, 0.000000000000000000, 0.000000000000000000 ) ) ;
#409 = ADVANCED_FACE ( 'NONE', ( #90 ), #436, .F. ) ;
#410 = SHAPE_DEFINITION_REPRESENTATION ( #276, #157 ) ;
#411 = EDGE_LOOP ( 'NONE', ( #126, #79, #67, #426 ) ) ;
#412 = AXIS2_PLACEMENT_3D ( 'NONE', #255, #259, #327 ) ;
#413 = VERTEX_POINT ( 'NONE', #158 ) ;
#414 = CARTESIAN_POINT ( 'NONE',  ( -6.500000000000000888, 7.960204194457796463E-16, -10.00000000000000000 ) ) ;
#415 = APPROVAL_PERSON_ORGANIZATION ( #351, #308, #238 ) ;
#416 = ORIENTED_EDGE ( 'NONE', *, *, #104, .T. ) ;
#417 = PERSON_AND_ORGANIZATION_ROLE ( 'creator' ) ;
#418 = DIRECTION ( 'NONE',  ( -0.000000000000000000, -0.000000000000000000, -1.000000000000000000 ) ) ;
#419 = DIRECTION ( 'NONE',  ( -0.000000000000000000, -0.000000000000000000, 1.000000000000000000 ) ) ;
#420 = VECTOR ( 'NONE', #358, 1000.000000000000114 ) ;
#421 = DIRECTION ( 'NONE',  ( -1.000000000000000000, 0.000000000000000000, 0.000000000000000000 ) ) ;
#422 = LINE ( 'NONE', #51, #240 ) ;
#423 = APPROVAL_PERSON_ORGANIZATION ( #61, #361, #118 ) ;
#424 = FACE_OUTER_BOUND ( 'NONE', #398, .T. ) ;
#425 = CARTESIAN_POINT ( 'NONE',  ( 3.652500000000002522, 0.000000000000000000, 10.00000000000000000 ) ) ;
#426 = ORIENTED_EDGE ( 'NONE', *, *, #154, .T. ) ;
#427 = CARTESIAN_POINT ( 'NONE',  ( 0.000000000000000000, 0.000000000000000000, -10.00000000000000000 ) ) ;
#428 = CARTESIAN_POINT ( 'NONE',  ( 0.000000000000000000, 0.000000000000000000, -9.664999999999997371 ) ) ;
#429 = DIRECTION ( 'NONE',  ( 1.000000000000000000, 0.000000000000000000, 0.000000000000000000 ) ) ;
#430 = AXIS2_PLACEMENT_3D ( 'NONE', #338, #267, #306 ) ;
#431 = EDGE_LOOP ( 'NONE', ( #229, #150, #114, #75 ) ) ;
#432 = CC_DESIGN_PERSON_AND_ORGANIZATION_ASSIGNMENT ( #316, #164, ( #230 ) ) ;
#433 = DIRECTION ( 'NONE',  ( -0.000000000000000000, -0.000000000000000000, 1.000000000000000000 ) ) ;
#434 = EDGE_CURVE ( 'NONE', #300, #264, #403, .T. ) ;
#435 = CARTESIAN_POINT ( 'NONE',  ( -3.652500000000002522, 4.473022433885711305E-16, 10.00000000000000000 ) ) ;
#436 = CYLINDRICAL_SURFACE ( 'NONE', #279, 3.150000000000000355 ) ;
#437 = CARTESIAN_POINT ( 'NONE',  ( 3.150000000000000355, 0.000000000000000000, -9.497499999999995168 ) ) ;
#438 = APPROVAL_STATUS ( 'not_yet_approved' ) ;
#439 = LINE ( 'NONE', #119, #38 ) ;
#440 = CARTESIAN_POINT ( 'NONE',  ( 6.500000000000000888, 0.000000000000000000, -9.664999999999997371 ) ) ;
#441 = AXIS2_PLACEMENT_3D ( 'NONE', #354, #277, #421 ) ;
#442 = CIRCLE ( 'NONE', #357, 6.500000000000000888 ) ;
#443 = EDGE_CURVE ( 'NONE', #332, #300, #89, .T. ) ;
#444 = CARTESIAN_POINT ( 'NONE',  ( 0.000000000000000000, 0.000000000000000000, 0.000000000000000000 ) ) ;
#445 = MANIFOLD_SOLID_BREP ( 'Chamfer2', #402 ) ;
#446 = VERTEX_POINT ( 'NONE', #116 ) ;
#447 = APPROVAL_STATUS ( 'not_yet_approved' ) ;
#448 = CIRCLE ( 'NONE', #256, 3.652500000000002522 ) ;
#449 = ORIENTED_EDGE ( 'NONE', *, *, #206, .F. ) ;
ENDSEC;
END-ISO-10303-21;
