ISO-10303-21;
HEADER;
FILE_DESCRIPTION (( 'STEP AP203' ),
    '1' );
FILE_NAME ('94669A199_Aluminum Unthreaded Spacer.STEP',
    '2026-01-08T22:18:32',
    ( 'McMaster Carr Supply' ),
    ( 'McMaster Carr Supply' ),
    'SwSTEP 2.0',
    'SolidWorks 2024',
    '' );
FILE_SCHEMA (( 'CONFIG_CONTROL_DESIGN' ));
ENDSEC;

DATA;
#1 = CONICAL_SURFACE ( 'NONE', #52, 6.165000000000003588, 0.7853981633974509435 ) ;
#2 = DIRECTION ( 'NONE',  ( 1.000000000000000000, 0.000000000000000000, 0.000000000000000000 ) ) ;
#3 = EDGE_CURVE ( 'NONE', #100, #435, #415, .T. ) ;
#4 = CARTESIAN_POINT ( 'NONE',  ( 0.000000000000000000, 0.000000000000000000, -17.50000000000000000 ) ) ;
#5 = DIRECTION ( 'NONE',  ( 1.000000000000000000, 0.000000000000000000, 0.000000000000000000 ) ) ;
#6 = EDGE_CURVE ( 'NONE', #97, #345, #233, .T. ) ;
#7 = DIRECTION ( 'NONE',  ( 0.7071067811865472397, 8.659560562354930393E-17, -0.7071067811865479058 ) ) ;
#8 = PRODUCT_RELATED_PRODUCT_CATEGORY ( 'detail', '', ( #76 ) ) ;
#9 = CARTESIAN_POINT ( 'NONE',  ( 0.000000000000000000, 0.000000000000000000, -17.16499999999998849 ) ) ;
#10 = CARTESIAN_POINT ( 'NONE',  ( 0.000000000000000000, 0.000000000000000000, 16.99749999999998451 ) ) ;
#11 = APPLICATION_PROTOCOL_DEFINITION ( 'international standard', 'config_control_design', 1994, #310 ) ;
#12 = CIRCLE ( 'NONE', #80, 3.652499999999992752 ) ;
#13 = CIRCLE ( 'NONE', #74, 6.165000000000003588 ) ;
#14 = DIRECTION ( 'NONE',  ( 0.000000000000000000, 0.000000000000000000, 1.000000000000000000 ) ) ;
#15 = PERSON_AND_ORGANIZATION_ROLE ( 'creator' ) ;
#16 = CARTESIAN_POINT ( 'NONE',  ( 0.000000000000000000, 0.000000000000000000, -17.50000000000000000 ) ) ;
#17 = VERTEX_POINT ( 'NONE', #375 ) ;
#18 = PERSON_AND_ORGANIZATION ( #34, #358 ) ;
#19 = AXIS2_PLACEMENT_3D ( 'NONE', #207, #379, #216 ) ;
#20 = CARTESIAN_POINT ( 'NONE',  ( 6.500000000000000888, 0.000000000000000000, 17.16500000000000625 ) ) ;
#21 = ORIENTED_EDGE ( 'NONE', *, *, #289, .F. ) ;
#22 = AXIS2_PLACEMENT_3D ( 'NONE', #348, #281, #314 ) ;
#23 = EDGE_CURVE ( 'NONE', #202, #209, #248, .T. ) ;
#24 = ORIENTED_EDGE ( 'NONE', *, *, #23, .T. ) ;
#25 = MECHANICAL_CONTEXT ( 'NONE', #310, 'mechanical' ) ;
#26 = VERTEX_POINT ( 'NONE', #31 ) ;
#27 = AXIS2_PLACEMENT_3D ( 'NONE', #16, #54, #194 ) ;
#28 = VERTEX_POINT ( 'NONE', #144 ) ;
#29 = COORDINATED_UNIVERSAL_TIME_OFFSET ( 6, 0, .BEHIND. ) ;
#30 = CONICAL_SURFACE ( 'NONE', #143, 6.500000000000000888, 0.7853981633974509435 ) ;
#31 = CARTESIAN_POINT ( 'NONE',  ( -3.652499999999992752, 0.000000000000000000, -17.50000000000000000 ) ) ;
#32 = EDGE_CURVE ( 'NONE', #26, #89, #412, .T. ) ;
#33 = DIRECTION ( 'NONE',  ( 0.000000000000000000, 0.000000000000000000, 1.000000000000000000 ) ) ;
#34 = PERSON ( 'UNSPECIFIED', 'UNSPECIFIED', 'UNSPECIFIED', ('UNSPECIFIED'), ('UNSPECIFIED'), ('UNSPECIFIED') ) ;
#35 = CARTESIAN_POINT ( 'NONE',  ( 6.500000000000000888, 0.000000000000000000, -17.16499999999998849 ) ) ;
#36 = AXIS2_PLACEMENT_3D ( 'NONE', #70, #213, #2 ) ;
#37 = DIRECTION ( 'NONE',  ( 0.000000000000000000, 0.000000000000000000, -1.000000000000000000 ) ) ;
#38 = CARTESIAN_POINT ( 'NONE',  ( 3.652499999999992752, 4.473022433885698486E-16, -17.50000000000000000 ) ) ;
#39 = AXIS2_PLACEMENT_3D ( 'NONE', #268, #327, #399 ) ;
#40 = DIRECTION ( 'NONE',  ( -0.7071067811865472397, 0.000000000000000000, -0.7071067811865479058 ) ) ;
#41 = DIRECTION ( 'NONE',  ( 1.000000000000000000, 0.000000000000000000, 0.000000000000000000 ) ) ;
#42 = EDGE_CURVE ( 'NONE', #28, #340, #303, .T. ) ;
#43 = CARTESIAN_POINT ( 'NONE',  ( 3.150000000000000355, 0.000000000000000000, 16.99749999999998451 ) ) ;
#44 = EDGE_LOOP ( 'NONE', ( #237, #113, #71, #416 ) ) ;
#45 = CC_DESIGN_SECURITY_CLASSIFICATION ( #198, ( #385 ) ) ;
#46 = DIRECTION ( 'NONE',  ( 1.000000000000000000, 0.000000000000000000, 0.000000000000000000 ) ) ;
#47 = AXIS2_PLACEMENT_3D ( 'NONE', #439, #336, #87 ) ;
#48 = CARTESIAN_POINT ( 'NONE',  ( 0.000000000000000000, 0.000000000000000000, -17.50000000000000000 ) ) ;
#49 = ADVANCED_FACE ( 'NONE', ( #173 ), #138, .T. ) ;
#50 = PERSON_AND_ORGANIZATION ( #34, #358 ) ;
#51 = AXIS2_PLACEMENT_3D ( 'NONE', #308, #306, #136 ) ;
#52 = AXIS2_PLACEMENT_3D ( 'NONE', #274, #37, #179 ) ;
#53 = CIRCLE ( 'NONE', #116, 6.164999999999986713 ) ;
#54 = DIRECTION ( 'NONE',  ( 0.000000000000000000, 0.000000000000000000, 1.000000000000000000 ) ) ;
#55 = DIRECTION ( 'NONE',  ( 1.000000000000000000, 0.000000000000000000, 0.000000000000000000 ) ) ;
#56 = DIRECTION ( 'NONE',  ( 0.000000000000000000, 0.000000000000000000, 1.000000000000000000 ) ) ;
#57 = LOCAL_TIME ( 16, 18, 32.00000000000000000, #167 ) ;
#58 = EDGE_LOOP ( 'NONE', ( #21, #200, #331, #177 ) ) ;
#59 = CARTESIAN_POINT ( 'NONE',  ( 0.000000000000000000, 0.000000000000000000, 0.000000000000000000 ) ) ;
#60 = ADVANCED_FACE ( 'NONE', ( #309 ), #221, .F. ) ;
#61 = ORIENTED_EDGE ( 'NONE', *, *, #296, .T. ) ;
#62 =( NAMED_UNIT ( * ) PLANE_ANGLE_UNIT ( ) SI_UNIT ( $, .RADIAN. ) );
#63 = ORIENTED_EDGE ( 'NONE', *, *, #210, .T. ) ;
#64 = ORIENTED_EDGE ( 'NONE', *, *, #197, .F. ) ;
#65 = AXIS2_PLACEMENT_3D ( 'NONE', #159, #226, #393 ) ;
#66 = CARTESIAN_POINT ( 'NONE',  ( 0.000000000000000000, 0.000000000000000000, -17.50000000000000000 ) ) ;
#67 = APPROVAL_ROLE ( '' ) ;
#68 = AXIS2_PLACEMENT_3D ( 'NONE', #217, #182, #5 ) ;
#69 = ORIENTED_EDGE ( 'NONE', *, *, #42, .F. ) ;
#70 = CARTESIAN_POINT ( 'NONE',  ( 0.000000000000000000, 0.000000000000000000, 17.16500000000000625 ) ) ;
#71 = ORIENTED_EDGE ( 'NONE', *, *, #341, .T. ) ;
#72 = DIRECTION ( 'NONE',  ( 0.000000000000000000, 0.000000000000000000, 1.000000000000000000 ) ) ;
#73 = CONICAL_SURFACE ( 'NONE', #115, 3.652499999999992752, 0.7853981633974479459 ) ;
#74 = AXIS2_PLACEMENT_3D ( 'NONE', #199, #56, #164 ) ;
#75 = DIRECTION ( 'NONE',  ( 0.000000000000000000, 0.000000000000000000, 1.000000000000000000 ) ) ;
#76 = PRODUCT ( '94669A199_Aluminum Unthreaded Spacer', '94669A199_Aluminum Unthreaded Spacer', '', ( #25 ) ) ;
#77 = CARTESIAN_POINT ( 'NONE',  ( 3.150000000000000355, 0.000000000000000000, 16.99749999999998451 ) ) ;
#78 = ADVANCED_FACE ( 'NONE', ( #244 ), #1, .T. ) ;
#79 = DIRECTION ( 'NONE',  ( -0.000000000000000000, -0.000000000000000000, -1.000000000000000000 ) ) ;
#80 = AXIS2_PLACEMENT_3D ( 'NONE', #347, #250, #241 ) ;
#81 = ORIENTED_EDGE ( 'NONE', *, *, #279, .T. ) ;
#82 = DIRECTION ( 'NONE',  ( 0.000000000000000000, 0.000000000000000000, 1.000000000000000000 ) ) ;
#83 = ADVANCED_FACE ( 'NONE', ( #275, #413 ), #101, .F. ) ;
#84 = CARTESIAN_POINT ( 'NONE',  ( 0.000000000000000000, 0.000000000000000000, -17.50000000000000000 ) ) ;
#85 = FACE_OUTER_BOUND ( 'NONE', #374, .T. ) ;
#86 = CARTESIAN_POINT ( 'NONE',  ( 0.000000000000000000, 0.000000000000000000, -17.16499999999998849 ) ) ;
#87 = DIRECTION ( 'NONE',  ( 1.000000000000000000, 0.000000000000000000, -0.000000000000000000 ) ) ;
#88 = FACE_OUTER_BOUND ( 'NONE', #44, .T. ) ;
#89 = VERTEX_POINT ( 'NONE', #142 ) ;
#90 = EDGE_CURVE ( 'NONE', #89, #26, #12, .T. ) ;
#91 = CARTESIAN_POINT ( 'NONE',  ( -3.652500000000016733, 4.473022433885728068E-16, 17.50000000000000000 ) ) ;
#92 = CC_DESIGN_APPROVAL ( #147, ( #228 ) ) ;
#93 = ORIENTED_EDGE ( 'NONE', *, *, #23, .F. ) ;
#94 = APPLICATION_CONTEXT ( 'configuration controlled 3d designs of mechanical parts and assemblies' ) ;
#95 = VERTEX_POINT ( 'NONE', #35 ) ;
#96 = DIRECTION ( 'NONE',  ( 1.000000000000000000, 0.000000000000000000, 0.000000000000000000 ) ) ;
#97 = VERTEX_POINT ( 'NONE', #449 ) ;
#98 = APPROVAL_STATUS ( 'not_yet_approved' ) ;
#99 = EDGE_CURVE ( 'NONE', #95, #17, #203, .T. ) ;
#100 = VERTEX_POINT ( 'NONE', #257 ) ;
#101 = PLANE ( 'NONE',  #102 ) ;
#102 = AXIS2_PLACEMENT_3D ( 'NONE', #212, #418, #108 ) ;
#103 = ORIENTED_EDGE ( 'NONE', *, *, #311, .T. ) ;
#104 = DATE_AND_TIME ( #174, #280 ) ;
#105 = ADVANCED_FACE ( 'NONE', ( #391 ), #73, .F. ) ;
#106 = ORIENTED_EDGE ( 'NONE', *, *, #32, .T. ) ;
#107 = SHAPE_DEFINITION_REPRESENTATION ( #384, #324 ) ;
#108 = DIRECTION ( 'NONE',  ( 1.000000000000000000, 0.000000000000000000, -0.000000000000000000 ) ) ;
#109 = DIRECTION ( 'NONE',  ( -1.000000000000000000, 0.000000000000000000, 0.000000000000000000 ) ) ;
#110 = EDGE_CURVE ( 'NONE', #166, #129, #149, .T. ) ;
#111 = CARTESIAN_POINT ( 'NONE',  ( -6.165000000000003588, 0.000000000000000000, 17.50000000000000000 ) ) ;
#112 = FACE_OUTER_BOUND ( 'NONE', #278, .T. ) ;
#113 = ORIENTED_EDGE ( 'NONE', *, *, #423, .T. ) ;
#114 = CYLINDRICAL_SURFACE ( 'NONE', #186, 6.500000000000000888 ) ;
#115 = AXIS2_PLACEMENT_3D ( 'NONE', #146, #79, #282 ) ;
#116 = AXIS2_PLACEMENT_3D ( 'NONE', #48, #121, #396 ) ;
#117 = ADVANCED_FACE ( 'NONE', ( #421 ), #180, .F. ) ;
#118 = LINE ( 'NONE', #77, #368 ) ;
#119 = DIRECTION ( 'NONE',  ( 1.000000000000000000, 0.000000000000000000, 0.000000000000000000 ) ) ;
#120 = APPROVAL_PERSON_ORGANIZATION ( #243, #254, #67 ) ;
#121 = DIRECTION ( 'NONE',  ( -0.000000000000000000, -0.000000000000000000, -1.000000000000000000 ) ) ;
#122 = APPLICATION_PROTOCOL_DEFINITION ( 'international standard', 'config_control_design', 1994, #94 ) ;
#123 = CARTESIAN_POINT ( 'NONE',  ( 3.150000000000000355, 0.000000000000000000, -17.50000000000000000 ) ) ;
#124 = ORIENTED_EDGE ( 'NONE', *, *, #249, .T. ) ;
#125 = CALENDAR_DATE ( 2026, 8, 1 ) ;
#126 = EDGE_CURVE ( 'NONE', #181, #407, #118, .T. ) ;
#127 = ORIENTED_EDGE ( 'NONE', *, *, #197, .T. ) ;
#128 = CYLINDRICAL_SURFACE ( 'NONE', #318, 3.150000000000000355 ) ;
#129 = VERTEX_POINT ( 'NONE', #383 ) ;
#130 =( LENGTH_UNIT ( ) NAMED_UNIT ( * ) SI_UNIT ( .MILLI., .METRE. ) );
#131 = EDGE_LOOP ( 'NONE', ( #371, #444, #152, #135 ) ) ;
#132 = DATE_AND_TIME ( #178, #323 ) ;
#133 = ADVANCED_FACE ( 'NONE', ( #223 ), #406, .F. ) ;
#134 = VECTOR ( 'NONE', #251, 1000.000000000000114 ) ;
#135 = ORIENTED_EDGE ( 'NONE', *, *, #296, .F. ) ;
#136 = DIRECTION ( 'NONE',  ( -1.000000000000000000, 0.000000000000000000, 0.000000000000000000 ) ) ;
#137 = CALENDAR_DATE ( 2026, 8, 1 ) ;
#138 = CONICAL_SURFACE ( 'NONE', #51, 6.165000000000003588, 0.7853981633974509435 ) ;
#139 = EDGE_CURVE ( 'NONE', #202, #97, #420, .T. ) ;
#140 = ORIENTED_EDGE ( 'NONE', *, *, #139, .F. ) ;
#141 = PERSON_AND_ORGANIZATION ( #34, #358 ) ;
#142 = CARTESIAN_POINT ( 'NONE',  ( 3.652499999999992752, 4.473022433885698486E-16, -17.50000000000000000 ) ) ;
#143 = AXIS2_PLACEMENT_3D ( 'NONE', #253, #387, #322 ) ;
#144 = CARTESIAN_POINT ( 'NONE',  ( 3.150000000000000355, 0.000000000000000000, -16.99750000000000938 ) ) ;
#145 = LOCAL_TIME ( 16, 18, 32.00000000000000000, #305 ) ;
#146 = CARTESIAN_POINT ( 'NONE',  ( 0.000000000000000000, 0.000000000000000000, -17.50000000000000000 ) ) ;
#147 = APPROVAL ( #162, 'UNSPECIFIED' ) ;
#148 = DIRECTION ( 'NONE',  ( 1.000000000000000000, 0.000000000000000000, 0.000000000000000000 ) ) ;
#149 = CIRCLE ( 'NONE', #313, 6.164999999999986713 ) ;
#150 = AXIS2_PLACEMENT_3D ( 'NONE', #9, #256, #434 ) ;
#151 = DIRECTION ( 'NONE',  ( 1.000000000000000000, 0.000000000000000000, 0.000000000000000000 ) ) ;
#152 = ORIENTED_EDGE ( 'NONE', *, *, #126, .T. ) ;
#153 = DIRECTION ( 'NONE',  ( 0.7071067811865472397, 0.000000000000000000, 0.7071067811865479058 ) ) ;
#154 = EDGE_CURVE ( 'NONE', #181, #100, #381, .T. ) ;
#155 = DIRECTION ( 'NONE',  ( 0.7071067811865493491, 8.659560562354956277E-17, -0.7071067811865456854 ) ) ;
#156 = CARTESIAN_POINT ( 'NONE',  ( 0.000000000000000000, 0.000000000000000000, -17.50000000000000000 ) ) ;
#157 = CIRCLE ( 'NONE', #208, 3.652500000000016733 ) ;
#158 = LINE ( 'NONE', #123, #431 ) ;
#159 = CARTESIAN_POINT ( 'NONE',  ( 0.000000000000000000, 0.000000000000000000, 16.99749999999998451 ) ) ;
#160 = DIRECTION ( 'NONE',  ( 1.000000000000000000, 0.000000000000000000, 0.000000000000000000 ) ) ;
#161 = ORIENTED_EDGE ( 'NONE', *, *, #210, .F. ) ;
#162 = APPROVAL_STATUS ( 'not_yet_approved' ) ;
#163 = CC_DESIGN_PERSON_AND_ORGANIZATION_ASSIGNMENT ( #408, #411, ( #385 ) ) ;
#164 = DIRECTION ( 'NONE',  ( 1.000000000000000000, 0.000000000000000000, 0.000000000000000000 ) ) ;
#165 = DESIGN_CONTEXT ( 'detailed design', #94, 'design' ) ;
#166 = VERTEX_POINT ( 'NONE', #189 ) ;
#167 = COORDINATED_UNIVERSAL_TIME_OFFSET ( 6, 0, .BEHIND. ) ;
#168 = EDGE_LOOP ( 'NONE', ( #338, #246 ) ) ;
#169 = PERSON_AND_ORGANIZATION ( #34, #358 ) ;
#170 = ORIENTED_EDGE ( 'NONE', *, *, #346, .T. ) ;
#171 = EDGE_CURVE ( 'NONE', #345, #97, #264, .T. ) ;
#172 = PERSON_AND_ORGANIZATION ( #34, #358 ) ;
#173 = FACE_OUTER_BOUND ( 'NONE', #400, .T. ) ;
#174 = CALENDAR_DATE ( 2026, 8, 1 ) ;
#175 = VECTOR ( 'NONE', #155, 1000.000000000000114 ) ;
#176 = DIRECTION ( 'NONE',  ( 1.000000000000000000, 0.000000000000000000, 0.000000000000000000 ) ) ;
#177 = ORIENTED_EDGE ( 'NONE', *, *, #187, .F. ) ;
#178 = CALENDAR_DATE ( 2026, 8, 1 ) ;
#179 = DIRECTION ( 'NONE',  ( -1.000000000000000000, 0.000000000000000000, 0.000000000000000000 ) ) ;
#180 = CONICAL_SURFACE ( 'NONE', #236, 3.150000000000000355, 0.7853981633974479459 ) ;
#181 = VERTEX_POINT ( 'NONE', #43 ) ;
#182 = DIRECTION ( 'NONE',  ( 0.000000000000000000, 0.000000000000000000, -1.000000000000000000 ) ) ;
#183 = EDGE_CURVE ( 'NONE', #209, #345, #390, .T. ) ;
#184 = CARTESIAN_POINT ( 'NONE',  ( -3.652499999999992752, 0.000000000000000000, -17.50000000000000000 ) ) ;
#185 = CARTESIAN_POINT ( 'NONE',  ( 0.000000000000000000, 0.000000000000000000, 16.99749999999998451 ) ) ;
#186 = AXIS2_PLACEMENT_3D ( 'NONE', #4, #288, #148 ) ;
#187 = EDGE_CURVE ( 'NONE', #166, #95, #351, .T. ) ;
#188 = CARTESIAN_POINT ( 'NONE',  ( -6.165000000000003588, 0.000000000000000000, 17.50000000000000000 ) ) ;
#189 = CARTESIAN_POINT ( 'NONE',  ( 6.164999999999986713, 0.000000000000000000, -17.50000000000000000 ) ) ;
#190 = CARTESIAN_POINT ( 'NONE',  ( 0.000000000000000000, 0.000000000000000000, -17.50000000000000000 ) ) ;
#191 = DIRECTION ( 'NONE',  ( -0.000000000000000000, -0.000000000000000000, -1.000000000000000000 ) ) ;
#192 = VECTOR ( 'NONE', #426, 1000.000000000000114 ) ;
#193 = DIRECTION ( 'NONE',  ( 0.000000000000000000, 0.000000000000000000, 1.000000000000000000 ) ) ;
#194 = DIRECTION ( 'NONE',  ( 1.000000000000000000, 0.000000000000000000, 0.000000000000000000 ) ) ;
#195 = EDGE_LOOP ( 'NONE', ( #369, #380, #364, #424 ) ) ;
#196 = APPROVAL_ROLE ( '' ) ;
#197 = EDGE_CURVE ( 'NONE', #340, #26, #218, .T. ) ;
#198 = SECURITY_CLASSIFICATION ( '', '', #344 ) ;
#199 = CARTESIAN_POINT ( 'NONE',  ( 0.000000000000000000, 0.000000000000000000, 17.50000000000000000 ) ) ;
#200 = ORIENTED_EDGE ( 'NONE', *, *, #219, .T. ) ;
#201 = FACE_OUTER_BOUND ( 'NONE', #298, .T. ) ;
#202 = VERTEX_POINT ( 'NONE', #111 ) ;
#203 = CIRCLE ( 'NONE', #299, 6.500000000000000888 ) ;
#204 = ORIENTED_EDGE ( 'NONE', *, *, #279, .F. ) ;
#205 = EDGE_LOOP ( 'NONE', ( #234, #61 ) ) ;
#206 = PERSON_AND_ORGANIZATION_ROLE ( 'classification_officer' ) ;
#207 = CARTESIAN_POINT ( 'NONE',  ( 0.000000000000000000, 0.000000000000000000, -16.99750000000000938 ) ) ;
#208 = AXIS2_PLACEMENT_3D ( 'NONE', #293, #191, #359 ) ;
#209 = VERTEX_POINT ( 'NONE', #357 ) ;
#210 = EDGE_CURVE ( 'NONE', #28, #89, #283, .T. ) ;
#211 = AXIS2_PLACEMENT_3D ( 'NONE', #59, #329, #119 ) ;
#212 = CARTESIAN_POINT ( 'NONE',  ( 0.000000000000000000, 0.000000000000000000, -17.50000000000000000 ) ) ;
#213 = DIRECTION ( 'NONE',  ( 0.000000000000000000, 0.000000000000000000, -1.000000000000000000 ) ) ;
#214 = AXIS2_PLACEMENT_3D ( 'NONE', #84, #349, #109 ) ;
#215 = ADVANCED_FACE ( 'NONE', ( #319 ), #114, .T. ) ;
#216 = DIRECTION ( 'NONE',  ( 1.000000000000000000, 0.000000000000000000, 0.000000000000000000 ) ) ;
#217 = CARTESIAN_POINT ( 'NONE',  ( 0.000000000000000000, 0.000000000000000000, 17.16500000000000625 ) ) ;
#218 = LINE ( 'NONE', #184, #443 ) ;
#219 = EDGE_CURVE ( 'NONE', #129, #17, #353, .T. ) ;
#220 = CARTESIAN_POINT ( 'NONE',  ( 0.000000000000000000, 0.000000000000000000, -17.50000000000000000 ) ) ;
#221 = CONICAL_SURFACE ( 'NONE', #22, 3.150000000000000355, 0.7853981633974479459 ) ;
#222 = ORIENTED_EDGE ( 'NONE', *, *, #356, .T. ) ;
#223 = FACE_OUTER_BOUND ( 'NONE', #403, .T. ) ;
#224 = APPROVAL_PERSON_ORGANIZATION ( #18, #147, #196 ) ;
#225 = LINE ( 'NONE', #297, #410 ) ;
#226 = DIRECTION ( 'NONE',  ( 0.000000000000000000, 0.000000000000000000, 1.000000000000000000 ) ) ;
#227 = DIRECTION ( 'NONE',  ( -0.000000000000000000, -0.000000000000000000, 1.000000000000000000 ) ) ;
#228 = PRODUCT_DEFINITION ( 'UNKNOWN', '', #385, #165 ) ;
#229 = CIRCLE ( 'NONE', #150, 6.500000000000000888 ) ;
#230 = DIRECTION ( 'NONE',  ( 1.000000000000000000, 0.000000000000000000, 0.000000000000000000 ) ) ;
#231 = ORIENTED_EDGE ( 'NONE', *, *, #90, .F. ) ;
#232 = ORIENTED_EDGE ( 'NONE', *, *, #423, .F. ) ;
#233 = CIRCLE ( 'NONE', #36, 6.500000000000000888 ) ;
#234 = ORIENTED_EDGE ( 'NONE', *, *, #326, .T. ) ;
#235 = PLANE ( 'NONE',  #47 ) ;
#236 = AXIS2_PLACEMENT_3D ( 'NONE', #10, #354, #151 ) ;
#237 = ORIENTED_EDGE ( 'NONE', *, *, #249, .F. ) ;
#238 = CIRCLE ( 'NONE', #39, 3.150000000000000355 ) ;
#239 = VECTOR ( 'NONE', #14, 1000.000000000000000 ) ;
#240 = CARTESIAN_POINT ( 'NONE',  ( -3.150000000000000355, 3.857637417314163182E-16, 16.99749999999998451 ) ) ;
#241 = DIRECTION ( 'NONE',  ( 1.000000000000000000, 0.000000000000000000, 0.000000000000000000 ) ) ;
#242 = APPROVAL ( #436, 'UNSPECIFIED' ) ;
#243 = PERSON_AND_ORGANIZATION ( #34, #358 ) ;
#244 = FACE_OUTER_BOUND ( 'NONE', #438, .T. ) ;
#245 = LOCAL_TIME ( 16, 18, 32.00000000000000000, #333 ) ;
#246 = ORIENTED_EDGE ( 'NONE', *, *, #289, .T. ) ;
#247 = DATE_TIME_ROLE ( 'classification_date' ) ;
#248 = CIRCLE ( 'NONE', #352, 6.165000000000003588 ) ;
#249 = EDGE_CURVE ( 'NONE', #340, #100, #343, .T. ) ;
#250 = DIRECTION ( 'NONE',  ( 0.000000000000000000, 0.000000000000000000, 1.000000000000000000 ) ) ;
#251 = DIRECTION ( 'NONE',  ( -0.7071067811865493491, 0.000000000000000000, -0.7071067811865456854 ) ) ;
#252 = CARTESIAN_POINT ( 'NONE',  ( -6.500000000000000888, 7.960204194457794491E-16, -17.16499999999998849 ) ) ;
#253 = CARTESIAN_POINT ( 'NONE',  ( 0.000000000000000000, 0.000000000000000000, -17.16499999999998849 ) ) ;
#254 = APPROVAL ( #98, 'UNSPECIFIED' ) ;
#255 = ORIENTED_EDGE ( 'NONE', *, *, #187, .T. ) ;
#256 = DIRECTION ( 'NONE',  ( -0.000000000000000000, -0.000000000000000000, 1.000000000000000000 ) ) ;
#257 = CARTESIAN_POINT ( 'NONE',  ( -3.150000000000000355, 3.857637417314163182E-16, 16.99749999999998451 ) ) ;
#258 = APPROVAL_PERSON_ORGANIZATION ( #295, #242, #446 ) ;
#259 = LINE ( 'NONE', #262, #239 ) ;
#260 = DATE_TIME_ROLE ( 'creation_date' ) ;
#261 = ORIENTED_EDGE ( 'NONE', *, *, #90, .T. ) ;
#262 = CARTESIAN_POINT ( 'NONE',  ( -6.500000000000000888, 7.960204194457796463E-16, -17.50000000000000000 ) ) ;
#263 = ORIENTED_EDGE ( 'NONE', *, *, #42, .T. ) ;
#264 = CIRCLE ( 'NONE', #68, 6.500000000000000888 ) ;
#265 = DIRECTION ( 'NONE',  ( 0.000000000000000000, 0.000000000000000000, 1.000000000000000000 ) ) ;
#266 = ORIENTED_EDGE ( 'NONE', *, *, #171, .T. ) ;
#267 = ADVANCED_FACE ( 'NONE', ( #112 ), #30, .T. ) ;
#268 = CARTESIAN_POINT ( 'NONE',  ( 0.000000000000000000, 0.000000000000000000, -16.99750000000000938 ) ) ;
#269 = AXIS2_PLACEMENT_3D ( 'NONE', #66, #72, #176 ) ;
#270 = ORIENTED_EDGE ( 'NONE', *, *, #183, .F. ) ;
#271 =( NAMED_UNIT ( * ) SI_UNIT ( $, .STERADIAN. ) SOLID_ANGLE_UNIT ( ) );
#272 = ORIENTED_EDGE ( 'NONE', *, *, #183, .T. ) ;
#273 = APPROVAL_DATE_TIME ( #104, #242 ) ;
#274 = CARTESIAN_POINT ( 'NONE',  ( 0.000000000000000000, 0.000000000000000000, 17.50000000000000000 ) ) ;
#275 = FACE_BOUND ( 'NONE', #304, .T. ) ;
#276 = PERSON_AND_ORGANIZATION_ROLE ( 'creator' ) ;
#277 = ORIENTED_EDGE ( 'NONE', *, *, #219, .F. ) ;
#278 = EDGE_LOOP ( 'NONE', ( #277, #366, #255, #204 ) ) ;
#279 = EDGE_CURVE ( 'NONE', #17, #95, #229, .T. ) ;
#280 = LOCAL_TIME ( 16, 18, 32.00000000000000000, #342 ) ;
#281 = DIRECTION ( 'NONE',  ( 0.000000000000000000, 0.000000000000000000, 1.000000000000000000 ) ) ;
#282 = DIRECTION ( 'NONE',  ( -1.000000000000000000, 0.000000000000000000, 0.000000000000000000 ) ) ;
#283 = LINE ( 'NONE', #38, #320 ) ;
#284 = CC_DESIGN_DATE_AND_TIME_ASSIGNMENT ( #132, #247, ( #198 ) ) ;
#285 = CARTESIAN_POINT ( 'NONE',  ( 0.000000000000000000, 0.000000000000000000, -17.16499999999998849 ) ) ;
#286 = ORIENTED_EDGE ( 'NONE', *, *, #6, .F. ) ;
#287 = CARTESIAN_POINT ( 'NONE',  ( 6.500000000000000888, 0.000000000000000000, -17.16499999999998849 ) ) ;
#288 = DIRECTION ( 'NONE',  ( 0.000000000000000000, 0.000000000000000000, 1.000000000000000000 ) ) ;
#289 = EDGE_CURVE ( 'NONE', #129, #166, #53, .T. ) ;
#290 = DIRECTION ( 'NONE',  ( 0.000000000000000000, 0.000000000000000000, 1.000000000000000000 ) ) ;
#291 = APPROVAL_DATE_TIME ( #360, #147 ) ;
#292 = CIRCLE ( 'NONE', #372, 3.652500000000016733 ) ;
#293 = CARTESIAN_POINT ( 'NONE',  ( 0.000000000000000000, 0.000000000000000000, 17.50000000000000000 ) ) ;
#294 = ORIENTED_EDGE ( 'NONE', *, *, #139, .T. ) ;
#295 = PERSON_AND_ORGANIZATION ( #34, #358 ) ;
#296 = EDGE_CURVE ( 'NONE', #435, #407, #157, .T. ) ;
#297 = CARTESIAN_POINT ( 'NONE',  ( 6.500000000000000888, 0.000000000000000000, -17.50000000000000000 ) ) ;
#298 = EDGE_LOOP ( 'NONE', ( #24, #103 ) ) ;
#299 = AXIS2_PLACEMENT_3D ( 'NONE', #285, #386, #41 ) ;
#300 = DATE_AND_TIME ( #432, #245 ) ;
#301 = ORIENTED_EDGE ( 'NONE', *, *, #346, .F. ) ;
#302 = CYLINDRICAL_SURFACE ( 'NONE', #428, 6.500000000000000888 ) ;
#303 = CIRCLE ( 'NONE', #19, 3.150000000000000355 ) ;
#304 = EDGE_LOOP ( 'NONE', ( #106, #261 ) ) ;
#305 = COORDINATED_UNIVERSAL_TIME_OFFSET ( 6, 0, .BEHIND. ) ;
#306 = DIRECTION ( 'NONE',  ( 0.000000000000000000, 0.000000000000000000, -1.000000000000000000 ) ) ;
#307 = CC_DESIGN_PERSON_AND_ORGANIZATION_ASSIGNMENT ( #169, #404, ( #76 ) ) ;
#308 = CARTESIAN_POINT ( 'NONE',  ( 0.000000000000000000, 0.000000000000000000, 17.50000000000000000 ) ) ;
#309 = FACE_OUTER_BOUND ( 'NONE', #131, .T. ) ;
#310 = APPLICATION_CONTEXT ( 'configuration controlled 3d designs of mechanical parts and assemblies' ) ;
#311 = EDGE_CURVE ( 'NONE', #209, #202, #13, .T. ) ;
#312 = EDGE_LOOP ( 'NONE', ( #440, #170, #335, #373 ) ) ;
#313 = AXIS2_PLACEMENT_3D ( 'NONE', #220, #427, #317 ) ;
#314 = DIRECTION ( 'NONE',  ( 1.000000000000000000, 0.000000000000000000, 0.000000000000000000 ) ) ;
#315 = CC_DESIGN_APPROVAL ( #242, ( #385 ) ) ;
#316 = AXIS2_PLACEMENT_3D ( 'NONE', #86, #227, #160 ) ;
#317 = DIRECTION ( 'NONE',  ( 1.000000000000000000, 0.000000000000000000, 0.000000000000000000 ) ) ;
#318 = AXIS2_PLACEMENT_3D ( 'NONE', #190, #265, #96 ) ;
#319 = FACE_OUTER_BOUND ( 'NONE', #398, .T. ) ;
#320 = VECTOR ( 'NONE', #7, 999.9999999999998863 ) ;
#321 = DIRECTION ( 'NONE',  ( -0.7071067811865493491, 8.659560562354956277E-17, 0.7071067811865456854 ) ) ;
#322 = DIRECTION ( 'NONE',  ( 1.000000000000000000, 0.000000000000000000, 0.000000000000000000 ) ) ;
#323 = LOCAL_TIME ( 16, 18, 32.00000000000000000, #29 ) ;
#324 = ADVANCED_BREP_SHAPE_REPRESENTATION ( '94669A199_Aluminum Unthreaded Spacer', ( #350, #211 ), #417 ) ;
#325 = CARTESIAN_POINT ( 'NONE',  ( 6.165000000000003588, 7.549947516743435649E-16, 17.50000000000000000 ) ) ;
#326 = EDGE_CURVE ( 'NONE', #407, #435, #292, .T. ) ;
#327 = DIRECTION ( 'NONE',  ( -0.000000000000000000, -0.000000000000000000, -1.000000000000000000 ) ) ;
#328 = CARTESIAN_POINT ( 'NONE',  ( 0.000000000000000000, 0.000000000000000000, 17.50000000000000000 ) ) ;
#329 = DIRECTION ( 'NONE',  ( 0.000000000000000000, 0.000000000000000000, 1.000000000000000000 ) ) ;
#330 = FACE_BOUND ( 'NONE', #205, .T. ) ;
#331 = ORIENTED_EDGE ( 'NONE', *, *, #99, .F. ) ;
#332 = CIRCLE ( 'NONE', #65, 3.150000000000000355 ) ;
#333 = COORDINATED_UNIVERSAL_TIME_OFFSET ( 6, 0, .BEHIND. ) ;
#334 = CARTESIAN_POINT ( 'NONE',  ( -3.150000000000000355, 3.857637417314163182E-16, -16.99750000000000938 ) ) ;
#335 = ORIENTED_EDGE ( 'NONE', *, *, #6, .T. ) ;
#336 = DIRECTION ( 'NONE',  ( 0.000000000000000000, 0.000000000000000000, 1.000000000000000000 ) ) ;
#337 = ORIENTED_EDGE ( 'NONE', *, *, #341, .F. ) ;
#338 = ORIENTED_EDGE ( 'NONE', *, *, #110, .T. ) ;
#339 = CONICAL_SURFACE ( 'NONE', #316, 6.500000000000000888, 0.7853981633974509435 ) ;
#340 = VERTEX_POINT ( 'NONE', #334 ) ;
#341 = EDGE_CURVE ( 'NONE', #28, #181, #158, .T. ) ;
#342 = COORDINATED_UNIVERSAL_TIME_OFFSET ( 6, 0, .BEHIND. ) ;
#343 = LINE ( 'NONE', #422, #361 ) ;
#344 = SECURITY_CLASSIFICATION_LEVEL ( 'unclassified' ) ;
#345 = VERTEX_POINT ( 'NONE', #20 ) ;
#346 = EDGE_CURVE ( 'NONE', #17, #97, #259, .T. ) ;
#347 = CARTESIAN_POINT ( 'NONE',  ( 0.000000000000000000, 0.000000000000000000, -17.50000000000000000 ) ) ;
#348 = CARTESIAN_POINT ( 'NONE',  ( 0.000000000000000000, 0.000000000000000000, 16.99749999999998451 ) ) ;
#349 = DIRECTION ( 'NONE',  ( -0.000000000000000000, -0.000000000000000000, -1.000000000000000000 ) ) ;
#350 = MANIFOLD_SOLID_BREP ( 'Chamfer2', #365 ) ;
#351 = LINE ( 'NONE', #287, #192 ) ;
#352 = AXIS2_PLACEMENT_3D ( 'NONE', #409, #33, #378 ) ;
#353 = LINE ( 'NONE', #252, #437 ) ;
#354 = DIRECTION ( 'NONE',  ( 0.000000000000000000, 0.000000000000000000, 1.000000000000000000 ) ) ;
#355 = ORIENTED_EDGE ( 'NONE', *, *, #171, .F. ) ;
#356 = EDGE_CURVE ( 'NONE', #95, #345, #225, .T. ) ;
#357 = CARTESIAN_POINT ( 'NONE',  ( 6.165000000000003588, 7.755075855600615563E-16, 17.50000000000000000 ) ) ;
#358 = ORGANIZATION ( 'UNSPECIFIED', 'UNSPECIFIED', '' ) ;
#359 = DIRECTION ( 'NONE',  ( 1.000000000000000000, 0.000000000000000000, 0.000000000000000000 ) ) ;
#360 = DATE_AND_TIME ( #125, #57 ) ;
#361 = VECTOR ( 'NONE', #82, 1000.000000000000000 ) ;
#362 = DIRECTION ( 'NONE',  ( -0.000000000000000000, -0.000000000000000000, -1.000000000000000000 ) ) ;
#363 = CYLINDRICAL_SURFACE ( 'NONE', #27, 3.150000000000000355 ) ;
#364 = ORIENTED_EDGE ( 'NONE', *, *, #326, .F. ) ;
#365 = CLOSED_SHELL ( 'NONE', ( #105, #117, #370, #78, #405, #419, #215, #83, #382, #388, #49, #267, #60, #133 ) ) ;
#366 = ORIENTED_EDGE ( 'NONE', *, *, #110, .F. ) ;
#367 = CARTESIAN_POINT ( 'NONE',  ( 3.652500000000016733, 0.000000000000000000, 17.50000000000000000 ) ) ;
#368 = VECTOR ( 'NONE', #153, 1000.000000000000000 ) ;
#369 = ORIENTED_EDGE ( 'NONE', *, *, #441, .F. ) ;
#370 = ADVANCED_FACE ( 'NONE', ( #392 ), #339, .T. ) ;
#371 = ORIENTED_EDGE ( 'NONE', *, *, #3, .F. ) ;
#372 = AXIS2_PLACEMENT_3D ( 'NONE', #328, #362, #230 ) ;
#373 = ORIENTED_EDGE ( 'NONE', *, *, #356, .F. ) ;
#374 = EDGE_LOOP ( 'NONE', ( #263, #124, #389, #337 ) ) ;
#375 = CARTESIAN_POINT ( 'NONE',  ( -6.500000000000000888, 7.960204194457796463E-16, -17.16499999999998849 ) ) ;
#376 = DATE_AND_TIME ( #137, #145 ) ;
#377 = CC_DESIGN_PERSON_AND_ORGANIZATION_ASSIGNMENT ( #172, #276, ( #385 ) ) ;
#378 = DIRECTION ( 'NONE',  ( 1.000000000000000000, 0.000000000000000000, 0.000000000000000000 ) ) ;
#379 = DIRECTION ( 'NONE',  ( -0.000000000000000000, -0.000000000000000000, -1.000000000000000000 ) ) ;
#380 = ORIENTED_EDGE ( 'NONE', *, *, #3, .T. ) ;
#381 = CIRCLE ( 'NONE', #395, 3.150000000000000355 ) ;
#382 = ADVANCED_FACE ( 'NONE', ( #88 ), #363, .F. ) ;
#383 = CARTESIAN_POINT ( 'NONE',  ( -6.164999999999986713, 7.755075855600604716E-16, -17.50000000000000000 ) ) ;
#384 = PRODUCT_DEFINITION_SHAPE ( 'NONE', 'NONE',  #228 ) ;
#385 = PRODUCT_DEFINITION_FORMATION_WITH_SPECIFIED_SOURCE ( 'ANY', '', #76, .NOT_KNOWN. ) ;
#386 = DIRECTION ( 'NONE',  ( -0.000000000000000000, -0.000000000000000000, 1.000000000000000000 ) ) ;
#387 = DIRECTION ( 'NONE',  ( -0.000000000000000000, -0.000000000000000000, 1.000000000000000000 ) ) ;
#388 = ADVANCED_FACE ( 'NONE', ( #330, #201 ), #235, .T. ) ;
#389 = ORIENTED_EDGE ( 'NONE', *, *, #441, .T. ) ;
#390 = LINE ( 'NONE', #325, #175 ) ;
#391 = FACE_OUTER_BOUND ( 'NONE', #394, .T. ) ;
#392 = FACE_OUTER_BOUND ( 'NONE', #58, .T. ) ;
#393 = DIRECTION ( 'NONE',  ( 1.000000000000000000, 0.000000000000000000, 0.000000000000000000 ) ) ;
#394 = EDGE_LOOP ( 'NONE', ( #69, #63, #448, #64 ) ) ;
#395 = AXIS2_PLACEMENT_3D ( 'NONE', #185, #75, #46 ) ;
#396 = DIRECTION ( 'NONE',  ( 1.000000000000000000, 0.000000000000000000, 0.000000000000000000 ) ) ;
#397 = CC_DESIGN_DATE_AND_TIME_ASSIGNMENT ( #300, #260, ( #228 ) ) ;
#398 = EDGE_LOOP ( 'NONE', ( #301, #81, #222, #266 ) ) ;
#399 = DIRECTION ( 'NONE',  ( 1.000000000000000000, 0.000000000000000000, 0.000000000000000000 ) ) ;
#400 = EDGE_LOOP ( 'NONE', ( #270, #93, #294, #355 ) ) ;
#401 = CC_DESIGN_APPROVAL ( #254, ( #198 ) ) ;
#402 = FACE_OUTER_BOUND ( 'NONE', #312, .T. ) ;
#403 = EDGE_LOOP ( 'NONE', ( #161, #232, #127, #231 ) ) ;
#404 = PERSON_AND_ORGANIZATION_ROLE ( 'design_owner' ) ;
#405 = ADVANCED_FACE ( 'NONE', ( #85 ), #128, .F. ) ;
#406 = CONICAL_SURFACE ( 'NONE', #214, 3.652499999999992752, 0.7853981633974479459 ) ;
#407 = VERTEX_POINT ( 'NONE', #367 ) ;
#408 = PERSON_AND_ORGANIZATION ( #34, #358 ) ;
#409 = CARTESIAN_POINT ( 'NONE',  ( 0.000000000000000000, 0.000000000000000000, 17.50000000000000000 ) ) ;
#410 = VECTOR ( 'NONE', #290, 1000.000000000000000 ) ;
#411 = PERSON_AND_ORGANIZATION_ROLE ( 'design_supplier' ) ;
#412 = CIRCLE ( 'NONE', #269, 3.652499999999992752 ) ;
#413 = FACE_OUTER_BOUND ( 'NONE', #168, .T. ) ;
#414 = APPROVAL_DATE_TIME ( #376, #254 ) ;
#415 = LINE ( 'NONE', #240, #425 ) ;
#416 = ORIENTED_EDGE ( 'NONE', *, *, #154, .T. ) ;
#417 =( GEOMETRIC_REPRESENTATION_CONTEXT ( 3 ) GLOBAL_UNCERTAINTY_ASSIGNED_CONTEXT ( ( #430 ) ) GLOBAL_UNIT_ASSIGNED_CONTEXT ( ( #130, #62, #271 ) ) REPRESENTATION_CONTEXT ( 'NONE', 'WORKASPACE' ) );
#418 = DIRECTION ( 'NONE',  ( 0.000000000000000000, 0.000000000000000000, 1.000000000000000000 ) ) ;
#419 = ADVANCED_FACE ( 'NONE', ( #402 ), #302, .T. ) ;
#420 = LINE ( 'NONE', #188, #134 ) ;
#421 = FACE_OUTER_BOUND ( 'NONE', #195, .T. ) ;
#422 = CARTESIAN_POINT ( 'NONE',  ( -3.150000000000000355, 3.857637417314163182E-16, -17.50000000000000000 ) ) ;
#423 = EDGE_CURVE ( 'NONE', #340, #28, #238, .T. ) ;
#424 = ORIENTED_EDGE ( 'NONE', *, *, #126, .F. ) ;
#425 = VECTOR ( 'NONE', #445, 1000.000000000000000 ) ;
#426 = DIRECTION ( 'NONE',  ( 0.7071067811865493491, 0.000000000000000000, 0.7071067811865456854 ) ) ;
#427 = DIRECTION ( 'NONE',  ( -0.000000000000000000, -0.000000000000000000, -1.000000000000000000 ) ) ;
#428 = AXIS2_PLACEMENT_3D ( 'NONE', #156, #193, #55 ) ;
#429 = DIRECTION ( 'NONE',  ( 0.000000000000000000, 0.000000000000000000, 1.000000000000000000 ) ) ;
#430 = UNCERTAINTY_MEASURE_WITH_UNIT (LENGTH_MEASURE( 1.000000000000000082E-05 ), #130, 'distance_accuracy_value', 'NONE');
#431 = VECTOR ( 'NONE', #429, 1000.000000000000000 ) ;
#432 = CALENDAR_DATE ( 2026, 8, 1 ) ;
#433 = CC_DESIGN_PERSON_AND_ORGANIZATION_ASSIGNMENT ( #50, #15, ( #228 ) ) ;
#434 = DIRECTION ( 'NONE',  ( 1.000000000000000000, 0.000000000000000000, 0.000000000000000000 ) ) ;
#435 = VERTEX_POINT ( 'NONE', #91 ) ;
#436 = APPROVAL_STATUS ( 'not_yet_approved' ) ;
#437 = VECTOR ( 'NONE', #321, 1000.000000000000114 ) ;
#438 = EDGE_LOOP ( 'NONE', ( #442, #272, #286, #140 ) ) ;
#439 = CARTESIAN_POINT ( 'NONE',  ( 0.000000000000000000, 0.000000000000000000, 17.50000000000000000 ) ) ;
#440 = ORIENTED_EDGE ( 'NONE', *, *, #99, .T. ) ;
#441 = EDGE_CURVE ( 'NONE', #100, #181, #332, .T. ) ;
#442 = ORIENTED_EDGE ( 'NONE', *, *, #311, .F. ) ;
#443 = VECTOR ( 'NONE', #40, 999.9999999999998863 ) ;
#444 = ORIENTED_EDGE ( 'NONE', *, *, #154, .F. ) ;
#445 = DIRECTION ( 'NONE',  ( -0.7071067811865472397, 8.659560562354930393E-17, 0.7071067811865479058 ) ) ;
#446 = APPROVAL_ROLE ( '' ) ;
#447 = CC_DESIGN_PERSON_AND_ORGANIZATION_ASSIGNMENT ( #141, #206, ( #198 ) ) ;
#448 = ORIENTED_EDGE ( 'NONE', *, *, #32, .F. ) ;
#449 = CARTESIAN_POINT ( 'NONE',  ( -6.500000000000000888, 7.960204194457796463E-16, 17.16500000000000625 ) ) ;
ENDSEC;
END-ISO-10303-21;
