%TF.GenerationSoftware,KiCad,Pcbnew,9.0.1*%
%TF.CreationDate,2026-02-07T15:36:32-08:00*%
%TF.ProjectId,MainBoard,4d61696e-426f-4617-9264-2e6b69636164,rev?*%
%TF.SameCoordinates,Original*%
%TF.FileFunction,Paste,Bot*%
%TF.FilePolarity,Positive*%
%FSLAX46Y46*%
G04 Gerber Fmt 4.6, Leading zero omitted, Abs format (unit mm)*
G04 Created by KiCad (PCBNEW 9.0.1) date 2026-02-07 15:36:32*
%MOMM*%
%LPD*%
G01*
G04 APERTURE LIST*
G04 Aperture macros list*
%AMRoundRect*
0 Rectangle with rounded corners*
0 $1 Rounding radius*
0 $2 $3 $4 $5 $6 $7 $8 $9 X,Y pos of 4 corners*
0 Add a 4 corners polygon primitive as box body*
4,1,4,$2,$3,$4,$5,$6,$7,$8,$9,$2,$3,0*
0 Add four circle primitives for the rounded corners*
1,1,$1+$1,$2,$3*
1,1,$1+$1,$4,$5*
1,1,$1+$1,$6,$7*
1,1,$1+$1,$8,$9*
0 Add four rect primitives between the rounded corners*
20,1,$1+$1,$2,$3,$4,$5,0*
20,1,$1+$1,$4,$5,$6,$7,0*
20,1,$1+$1,$6,$7,$8,$9,0*
20,1,$1+$1,$8,$9,$2,$3,0*%
G04 Aperture macros list end*
%ADD10RoundRect,0.250000X0.400000X1.075000X-0.400000X1.075000X-0.400000X-1.075000X0.400000X-1.075000X0*%
%ADD11RoundRect,0.250000X-1.075000X0.400000X-1.075000X-0.400000X1.075000X-0.400000X1.075000X0.400000X0*%
%ADD12RoundRect,0.250000X-0.400000X-1.075000X0.400000X-1.075000X0.400000X1.075000X-0.400000X1.075000X0*%
%ADD13RoundRect,0.250000X-0.412500X-1.100000X0.412500X-1.100000X0.412500X1.100000X-0.412500X1.100000X0*%
%ADD14RoundRect,0.250000X1.100000X-0.412500X1.100000X0.412500X-1.100000X0.412500X-1.100000X-0.412500X0*%
%ADD15RoundRect,0.250000X-1.100000X0.412500X-1.100000X-0.412500X1.100000X-0.412500X1.100000X0.412500X0*%
%ADD16RoundRect,0.250000X0.412500X1.100000X-0.412500X1.100000X-0.412500X-1.100000X0.412500X-1.100000X0*%
%ADD17R,0.850000X1.050000*%
%ADD18RoundRect,0.250000X1.075000X-0.400000X1.075000X0.400000X-1.075000X0.400000X-1.075000X-0.400000X0*%
G04 APERTURE END LIST*
D10*
%TO.C,R91*%
X23550000Y-32000000D03*
X20450000Y-32000000D03*
%TD*%
D11*
%TO.C,R81*%
X37450000Y-24450000D03*
X37450000Y-27550000D03*
%TD*%
D10*
%TO.C,R79*%
X23550000Y-21000000D03*
X20450000Y-21000000D03*
%TD*%
D12*
%TO.C,R104*%
X108000000Y-10635000D03*
X111100000Y-10635000D03*
%TD*%
D10*
%TO.C,R90*%
X29000000Y-32000000D03*
X25900000Y-32000000D03*
%TD*%
D13*
%TO.C,C136*%
X255437500Y-5000000D03*
X258562500Y-5000000D03*
%TD*%
D14*
%TO.C,C4*%
X68500000Y-27197500D03*
X68500000Y-24072500D03*
%TD*%
D15*
%TO.C,C110*%
X42000000Y-30987500D03*
X42000000Y-34112500D03*
%TD*%
%TO.C,C2*%
X71000000Y-8072500D03*
X71000000Y-11197500D03*
%TD*%
D12*
%TO.C,R102*%
X108000000Y-15635000D03*
X111100000Y-15635000D03*
%TD*%
D11*
%TO.C,R93*%
X37450000Y-37900000D03*
X37450000Y-41000000D03*
%TD*%
D16*
%TO.C,C29*%
X148000000Y-10000000D03*
X144875000Y-10000000D03*
%TD*%
D13*
%TO.C,C138*%
X240437500Y-41000000D03*
X243562500Y-41000000D03*
%TD*%
D15*
%TO.C,C5*%
X84000000Y-8072500D03*
X84000000Y-11197500D03*
%TD*%
D14*
%TO.C,C124*%
X279000000Y-4562500D03*
X279000000Y-1437500D03*
%TD*%
D17*
%TO.C,Z7*%
X96000000Y-10435000D03*
X96000000Y-6835000D03*
%TD*%
D18*
%TO.C,R103*%
X100500000Y-10185000D03*
X100500000Y-7085000D03*
%TD*%
D16*
%TO.C,C34*%
X178237500Y-19905000D03*
X175112500Y-19905000D03*
%TD*%
D14*
%TO.C,C114*%
X105000000Y-10197500D03*
X105000000Y-7072500D03*
%TD*%
D11*
%TO.C,R9*%
X191000000Y-5450000D03*
X191000000Y-8550000D03*
%TD*%
D14*
%TO.C,C9*%
X56000000Y-27197500D03*
X56000000Y-24072500D03*
%TD*%
D13*
%TO.C,C33*%
X175112500Y-23905000D03*
X178237500Y-23905000D03*
%TD*%
D18*
%TO.C,R99*%
X100500000Y-21185000D03*
X100500000Y-18085000D03*
%TD*%
D14*
%TO.C,C108*%
X42000000Y-20562500D03*
X42000000Y-17437500D03*
%TD*%
%TO.C,C11*%
X52000000Y-27197500D03*
X52000000Y-24072500D03*
%TD*%
%TO.C,C6*%
X84000000Y-20697500D03*
X84000000Y-17572500D03*
%TD*%
D10*
%TO.C,R5*%
X104000000Y-25635000D03*
X100900000Y-25635000D03*
%TD*%
D13*
%TO.C,C137*%
X240437500Y-35000000D03*
X243562500Y-35000000D03*
%TD*%
D15*
%TO.C,C111*%
X42000000Y-37887500D03*
X42000000Y-41012500D03*
%TD*%
D11*
%TO.C,R88*%
X37450000Y-31000000D03*
X37450000Y-34100000D03*
%TD*%
D12*
%TO.C,R106*%
X108000000Y-5635000D03*
X111100000Y-5635000D03*
%TD*%
D14*
%TO.C,C32*%
X158675000Y-12467500D03*
X158675000Y-9342500D03*
%TD*%
D15*
%TO.C,C109*%
X42000000Y-24437500D03*
X42000000Y-27562500D03*
%TD*%
D10*
%TO.C,R8*%
X149550000Y-6000000D03*
X146450000Y-6000000D03*
%TD*%
D18*
%TO.C,R75*%
X37450000Y-20550000D03*
X37450000Y-17450000D03*
%TD*%
D17*
%TO.C,Z5*%
X96000000Y-21435000D03*
X96000000Y-17835000D03*
%TD*%
D14*
%TO.C,C112*%
X105000000Y-21197500D03*
X105000000Y-18072500D03*
%TD*%
D10*
%TO.C,R77*%
X34550000Y-21000000D03*
X31450000Y-21000000D03*
%TD*%
%TO.C,R78*%
X29000000Y-21000000D03*
X25900000Y-21000000D03*
%TD*%
D12*
%TO.C,R100*%
X108000000Y-20635000D03*
X111100000Y-20635000D03*
%TD*%
D10*
%TO.C,R80*%
X18000000Y-21000000D03*
X14900000Y-21000000D03*
%TD*%
D15*
%TO.C,C28*%
X162675000Y-9780000D03*
X162675000Y-12905000D03*
%TD*%
D10*
%TO.C,R89*%
X34550000Y-32000000D03*
X31450000Y-32000000D03*
%TD*%
D15*
%TO.C,C10*%
X56000000Y-14635000D03*
X56000000Y-17760000D03*
%TD*%
D10*
%TO.C,R92*%
X18000000Y-32000000D03*
X14900000Y-32000000D03*
%TD*%
D15*
%TO.C,C12*%
X52000000Y-14510000D03*
X52000000Y-17635000D03*
%TD*%
M02*
