%TF.GenerationSoftware,KiCad,Pcbnew,9.0.1*%
%TF.CreationDate,2026-02-12T00:08:51-08:00*%
%TF.ProjectId,DCBusCapacitorBoard,44434275-7343-4617-9061-6369746f7242,rev?*%
%TF.SameCoordinates,Original*%
%TF.FileFunction,Legend,Bot*%
%TF.FilePolarity,Positive*%
%FSLAX46Y46*%
G04 Gerber Fmt 4.6, Leading zero omitted, Abs format (unit mm)*
G04 Created by KiCad (PCBNEW 9.0.1) date 2026-02-12 00:08:51*
%MOMM*%
%LPD*%
G01*
G04 APERTURE LIST*
%ADD10C,0.200000*%
%ADD11C,0.225000*%
G04 APERTURE END LIST*
D10*
X74000000Y-2000000D02*
X84000000Y-2000000D01*
X84000000Y-12000000D01*
X74000000Y-12000000D01*
X74000000Y-2000000D01*
G36*
X74000000Y-2000000D02*
G01*
X84000000Y-2000000D01*
X84000000Y-12000000D01*
X74000000Y-12000000D01*
X74000000Y-2000000D01*
G37*
D11*
X85623402Y-14784300D02*
X85451974Y-14841442D01*
X85451974Y-14841442D02*
X85166259Y-14841442D01*
X85166259Y-14841442D02*
X85051974Y-14784300D01*
X85051974Y-14784300D02*
X84994831Y-14727157D01*
X84994831Y-14727157D02*
X84937688Y-14612871D01*
X84937688Y-14612871D02*
X84937688Y-14498585D01*
X84937688Y-14498585D02*
X84994831Y-14384300D01*
X84994831Y-14384300D02*
X85051974Y-14327157D01*
X85051974Y-14327157D02*
X85166259Y-14270014D01*
X85166259Y-14270014D02*
X85394831Y-14212871D01*
X85394831Y-14212871D02*
X85509116Y-14155728D01*
X85509116Y-14155728D02*
X85566259Y-14098585D01*
X85566259Y-14098585D02*
X85623402Y-13984300D01*
X85623402Y-13984300D02*
X85623402Y-13870014D01*
X85623402Y-13870014D02*
X85566259Y-13755728D01*
X85566259Y-13755728D02*
X85509116Y-13698585D01*
X85509116Y-13698585D02*
X85394831Y-13641442D01*
X85394831Y-13641442D02*
X85109116Y-13641442D01*
X85109116Y-13641442D02*
X84937688Y-13698585D01*
X84423402Y-14212871D02*
X84023402Y-14212871D01*
X83851974Y-14841442D02*
X84423402Y-14841442D01*
X84423402Y-14841442D02*
X84423402Y-13641442D01*
X84423402Y-13641442D02*
X83851974Y-13641442D01*
X82651974Y-14841442D02*
X83051974Y-14270014D01*
X83337688Y-14841442D02*
X83337688Y-13641442D01*
X83337688Y-13641442D02*
X82880545Y-13641442D01*
X82880545Y-13641442D02*
X82766260Y-13698585D01*
X82766260Y-13698585D02*
X82709117Y-13755728D01*
X82709117Y-13755728D02*
X82651974Y-13870014D01*
X82651974Y-13870014D02*
X82651974Y-14041442D01*
X82651974Y-14041442D02*
X82709117Y-14155728D01*
X82709117Y-14155728D02*
X82766260Y-14212871D01*
X82766260Y-14212871D02*
X82880545Y-14270014D01*
X82880545Y-14270014D02*
X83337688Y-14270014D01*
X82137688Y-14841442D02*
X82137688Y-13641442D01*
X81623402Y-14498585D02*
X81051974Y-14498585D01*
X81737688Y-14841442D02*
X81337688Y-13641442D01*
X81337688Y-13641442D02*
X80937688Y-14841442D01*
X79966260Y-14841442D02*
X80537688Y-14841442D01*
X80537688Y-14841442D02*
X80537688Y-13641442D01*
X78651973Y-14841442D02*
X78651973Y-13641442D01*
X78651973Y-13641442D02*
X77966259Y-14841442D01*
X77966259Y-14841442D02*
X77966259Y-13641442D01*
X77394830Y-13641442D02*
X77394830Y-14612871D01*
X77394830Y-14612871D02*
X77337687Y-14727157D01*
X77337687Y-14727157D02*
X77280545Y-14784300D01*
X77280545Y-14784300D02*
X77166259Y-14841442D01*
X77166259Y-14841442D02*
X76937687Y-14841442D01*
X76937687Y-14841442D02*
X76823402Y-14784300D01*
X76823402Y-14784300D02*
X76766259Y-14727157D01*
X76766259Y-14727157D02*
X76709116Y-14612871D01*
X76709116Y-14612871D02*
X76709116Y-13641442D01*
X76137687Y-14841442D02*
X76137687Y-13641442D01*
X76137687Y-13641442D02*
X75737687Y-14498585D01*
X75737687Y-14498585D02*
X75337687Y-13641442D01*
X75337687Y-13641442D02*
X75337687Y-14841442D01*
X74366258Y-14212871D02*
X74194830Y-14270014D01*
X74194830Y-14270014D02*
X74137687Y-14327157D01*
X74137687Y-14327157D02*
X74080544Y-14441442D01*
X74080544Y-14441442D02*
X74080544Y-14612871D01*
X74080544Y-14612871D02*
X74137687Y-14727157D01*
X74137687Y-14727157D02*
X74194830Y-14784300D01*
X74194830Y-14784300D02*
X74309115Y-14841442D01*
X74309115Y-14841442D02*
X74766258Y-14841442D01*
X74766258Y-14841442D02*
X74766258Y-13641442D01*
X74766258Y-13641442D02*
X74366258Y-13641442D01*
X74366258Y-13641442D02*
X74251973Y-13698585D01*
X74251973Y-13698585D02*
X74194830Y-13755728D01*
X74194830Y-13755728D02*
X74137687Y-13870014D01*
X74137687Y-13870014D02*
X74137687Y-13984300D01*
X74137687Y-13984300D02*
X74194830Y-14098585D01*
X74194830Y-14098585D02*
X74251973Y-14155728D01*
X74251973Y-14155728D02*
X74366258Y-14212871D01*
X74366258Y-14212871D02*
X74766258Y-14212871D01*
X73566258Y-14212871D02*
X73166258Y-14212871D01*
X72994830Y-14841442D02*
X73566258Y-14841442D01*
X73566258Y-14841442D02*
X73566258Y-13641442D01*
X73566258Y-13641442D02*
X72994830Y-13641442D01*
X71794830Y-14841442D02*
X72194830Y-14270014D01*
X72480544Y-14841442D02*
X72480544Y-13641442D01*
X72480544Y-13641442D02*
X72023401Y-13641442D01*
X72023401Y-13641442D02*
X71909116Y-13698585D01*
X71909116Y-13698585D02*
X71851973Y-13755728D01*
X71851973Y-13755728D02*
X71794830Y-13870014D01*
X71794830Y-13870014D02*
X71794830Y-14041442D01*
X71794830Y-14041442D02*
X71851973Y-14155728D01*
X71851973Y-14155728D02*
X71909116Y-14212871D01*
X71909116Y-14212871D02*
X72023401Y-14270014D01*
X72023401Y-14270014D02*
X72480544Y-14270014D01*
X88137688Y7570792D02*
X88137688Y8470792D01*
X88137688Y8470792D02*
X87923402Y8470792D01*
X87923402Y8470792D02*
X87794831Y8427935D01*
X87794831Y8427935D02*
X87709116Y8342221D01*
X87709116Y8342221D02*
X87666259Y8256507D01*
X87666259Y8256507D02*
X87623402Y8085078D01*
X87623402Y8085078D02*
X87623402Y7956507D01*
X87623402Y7956507D02*
X87666259Y7785078D01*
X87666259Y7785078D02*
X87709116Y7699364D01*
X87709116Y7699364D02*
X87794831Y7613650D01*
X87794831Y7613650D02*
X87923402Y7570792D01*
X87923402Y7570792D02*
X88137688Y7570792D01*
X87237688Y8042221D02*
X86937688Y8042221D01*
X86809116Y7570792D02*
X87237688Y7570792D01*
X87237688Y7570792D02*
X87237688Y8470792D01*
X87237688Y8470792D02*
X86809116Y8470792D01*
X86466259Y7613650D02*
X86337688Y7570792D01*
X86337688Y7570792D02*
X86123402Y7570792D01*
X86123402Y7570792D02*
X86037688Y7613650D01*
X86037688Y7613650D02*
X85994830Y7656507D01*
X85994830Y7656507D02*
X85951973Y7742221D01*
X85951973Y7742221D02*
X85951973Y7827935D01*
X85951973Y7827935D02*
X85994830Y7913650D01*
X85994830Y7913650D02*
X86037688Y7956507D01*
X86037688Y7956507D02*
X86123402Y7999364D01*
X86123402Y7999364D02*
X86294830Y8042221D01*
X86294830Y8042221D02*
X86380545Y8085078D01*
X86380545Y8085078D02*
X86423402Y8127935D01*
X86423402Y8127935D02*
X86466259Y8213650D01*
X86466259Y8213650D02*
X86466259Y8299364D01*
X86466259Y8299364D02*
X86423402Y8385078D01*
X86423402Y8385078D02*
X86380545Y8427935D01*
X86380545Y8427935D02*
X86294830Y8470792D01*
X86294830Y8470792D02*
X86080545Y8470792D01*
X86080545Y8470792D02*
X85951973Y8427935D01*
X85566259Y7570792D02*
X85566259Y8470792D01*
X84666259Y8427935D02*
X84751974Y8470792D01*
X84751974Y8470792D02*
X84880545Y8470792D01*
X84880545Y8470792D02*
X85009116Y8427935D01*
X85009116Y8427935D02*
X85094831Y8342221D01*
X85094831Y8342221D02*
X85137688Y8256507D01*
X85137688Y8256507D02*
X85180545Y8085078D01*
X85180545Y8085078D02*
X85180545Y7956507D01*
X85180545Y7956507D02*
X85137688Y7785078D01*
X85137688Y7785078D02*
X85094831Y7699364D01*
X85094831Y7699364D02*
X85009116Y7613650D01*
X85009116Y7613650D02*
X84880545Y7570792D01*
X84880545Y7570792D02*
X84794831Y7570792D01*
X84794831Y7570792D02*
X84666259Y7613650D01*
X84666259Y7613650D02*
X84623402Y7656507D01*
X84623402Y7656507D02*
X84623402Y7956507D01*
X84623402Y7956507D02*
X84794831Y7956507D01*
X84237688Y7570792D02*
X84237688Y8470792D01*
X84237688Y8470792D02*
X83723402Y7570792D01*
X83723402Y7570792D02*
X83723402Y8470792D01*
X83294831Y8042221D02*
X82994831Y8042221D01*
X82866259Y7570792D02*
X83294831Y7570792D01*
X83294831Y7570792D02*
X83294831Y8470792D01*
X83294831Y8470792D02*
X82866259Y8470792D01*
X82480545Y7570792D02*
X82480545Y8470792D01*
X82480545Y8470792D02*
X82266259Y8470792D01*
X82266259Y8470792D02*
X82137688Y8427935D01*
X82137688Y8427935D02*
X82051973Y8342221D01*
X82051973Y8342221D02*
X82009116Y8256507D01*
X82009116Y8256507D02*
X81966259Y8085078D01*
X81966259Y8085078D02*
X81966259Y7956507D01*
X81966259Y7956507D02*
X82009116Y7785078D01*
X82009116Y7785078D02*
X82051973Y7699364D01*
X82051973Y7699364D02*
X82137688Y7613650D01*
X82137688Y7613650D02*
X82266259Y7570792D01*
X82266259Y7570792D02*
X82480545Y7570792D01*
X80594831Y8042221D02*
X80466259Y7999364D01*
X80466259Y7999364D02*
X80423402Y7956507D01*
X80423402Y7956507D02*
X80380545Y7870792D01*
X80380545Y7870792D02*
X80380545Y7742221D01*
X80380545Y7742221D02*
X80423402Y7656507D01*
X80423402Y7656507D02*
X80466259Y7613650D01*
X80466259Y7613650D02*
X80551974Y7570792D01*
X80551974Y7570792D02*
X80894831Y7570792D01*
X80894831Y7570792D02*
X80894831Y8470792D01*
X80894831Y8470792D02*
X80594831Y8470792D01*
X80594831Y8470792D02*
X80509117Y8427935D01*
X80509117Y8427935D02*
X80466259Y8385078D01*
X80466259Y8385078D02*
X80423402Y8299364D01*
X80423402Y8299364D02*
X80423402Y8213650D01*
X80423402Y8213650D02*
X80466259Y8127935D01*
X80466259Y8127935D02*
X80509117Y8085078D01*
X80509117Y8085078D02*
X80594831Y8042221D01*
X80594831Y8042221D02*
X80894831Y8042221D01*
X79823402Y7999364D02*
X79823402Y7570792D01*
X80123402Y8470792D02*
X79823402Y7999364D01*
X79823402Y7999364D02*
X79523402Y8470792D01*
X88266259Y7021842D02*
X87751974Y7021842D01*
X88009116Y6121842D02*
X88009116Y7021842D01*
X87451974Y6121842D02*
X87451974Y7021842D01*
X87451974Y6593271D02*
X86937688Y6593271D01*
X86937688Y6121842D02*
X86937688Y7021842D01*
X86337688Y7021842D02*
X86166260Y7021842D01*
X86166260Y7021842D02*
X86080545Y6978985D01*
X86080545Y6978985D02*
X85994831Y6893271D01*
X85994831Y6893271D02*
X85951974Y6721842D01*
X85951974Y6721842D02*
X85951974Y6421842D01*
X85951974Y6421842D02*
X85994831Y6250414D01*
X85994831Y6250414D02*
X86080545Y6164700D01*
X86080545Y6164700D02*
X86166260Y6121842D01*
X86166260Y6121842D02*
X86337688Y6121842D01*
X86337688Y6121842D02*
X86423403Y6164700D01*
X86423403Y6164700D02*
X86509117Y6250414D01*
X86509117Y6250414D02*
X86551974Y6421842D01*
X86551974Y6421842D02*
X86551974Y6721842D01*
X86551974Y6721842D02*
X86509117Y6893271D01*
X86509117Y6893271D02*
X86423403Y6978985D01*
X86423403Y6978985D02*
X86337688Y7021842D01*
X85566260Y6121842D02*
X85566260Y7021842D01*
X85566260Y7021842D02*
X85266260Y6378985D01*
X85266260Y6378985D02*
X84966260Y7021842D01*
X84966260Y7021842D02*
X84966260Y6121842D01*
X84580546Y6378985D02*
X84151975Y6378985D01*
X84666260Y6121842D02*
X84366260Y7021842D01*
X84366260Y7021842D02*
X84066260Y6121842D01*
X83809117Y6164700D02*
X83680546Y6121842D01*
X83680546Y6121842D02*
X83466260Y6121842D01*
X83466260Y6121842D02*
X83380546Y6164700D01*
X83380546Y6164700D02*
X83337688Y6207557D01*
X83337688Y6207557D02*
X83294831Y6293271D01*
X83294831Y6293271D02*
X83294831Y6378985D01*
X83294831Y6378985D02*
X83337688Y6464700D01*
X83337688Y6464700D02*
X83380546Y6507557D01*
X83380546Y6507557D02*
X83466260Y6550414D01*
X83466260Y6550414D02*
X83637688Y6593271D01*
X83637688Y6593271D02*
X83723403Y6636128D01*
X83723403Y6636128D02*
X83766260Y6678985D01*
X83766260Y6678985D02*
X83809117Y6764700D01*
X83809117Y6764700D02*
X83809117Y6850414D01*
X83809117Y6850414D02*
X83766260Y6936128D01*
X83766260Y6936128D02*
X83723403Y6978985D01*
X83723403Y6978985D02*
X83637688Y7021842D01*
X83637688Y7021842D02*
X83423403Y7021842D01*
X83423403Y7021842D02*
X83294831Y6978985D01*
X81794831Y6121842D02*
X82223403Y6121842D01*
X82223403Y6121842D02*
X82223403Y7021842D01*
X81494832Y6121842D02*
X81494832Y7021842D01*
X81109118Y6378985D02*
X80680547Y6378985D01*
X81194832Y6121842D02*
X80894832Y7021842D01*
X80894832Y7021842D02*
X80594832Y6121842D01*
X80123403Y7021842D02*
X79951975Y7021842D01*
X79951975Y7021842D02*
X79866260Y6978985D01*
X79866260Y6978985D02*
X79780546Y6893271D01*
X79780546Y6893271D02*
X79737689Y6721842D01*
X79737689Y6721842D02*
X79737689Y6421842D01*
X79737689Y6421842D02*
X79780546Y6250414D01*
X79780546Y6250414D02*
X79866260Y6164700D01*
X79866260Y6164700D02*
X79951975Y6121842D01*
X79951975Y6121842D02*
X80123403Y6121842D01*
X80123403Y6121842D02*
X80209118Y6164700D01*
X80209118Y6164700D02*
X80294832Y6250414D01*
X80294832Y6250414D02*
X80337689Y6421842D01*
X80337689Y6421842D02*
X80337689Y6721842D01*
X80337689Y6721842D02*
X80294832Y6893271D01*
X80294832Y6893271D02*
X80209118Y6978985D01*
X80209118Y6978985D02*
X80123403Y7021842D01*
M02*
