%TF.GenerationSoftware,KiCad,Pcbnew,9.0.1*%
%TF.CreationDate,2026-02-08T14:37:09-08:00*%
%TF.ProjectId,DCBusCapacitorBoard,44434275-7343-4617-9061-6369746f7242,rev?*%
%TF.SameCoordinates,Original*%
%TF.FileFunction,Copper,L4,Bot*%
%TF.FilePolarity,Positive*%
%FSLAX46Y46*%
G04 Gerber Fmt 4.6, Leading zero omitted, Abs format (unit mm)*
G04 Created by KiCad (PCBNEW 9.0.1) date 2026-02-08 14:37:09*
%MOMM*%
%LPD*%
G01*
G04 APERTURE LIST*
%TA.AperFunction,ComponentPad*%
%ADD10R,3.000000X2.500000*%
%TD*%
%TA.AperFunction,ComponentPad*%
%ADD11C,2.500000*%
%TD*%
%TA.AperFunction,ComponentPad*%
%ADD12C,5.500000*%
%TD*%
%TA.AperFunction,ComponentPad*%
%ADD13C,10.000000*%
%TD*%
G04 APERTURE END LIST*
D10*
%TO.P,C4,1,+*%
%TO.N,/DC_LINK_+*%
X35000000Y-65000000D03*
D11*
%TO.P,C4,2,-*%
%TO.N,/DC_LINK_-*%
X27500000Y-65000000D03*
%TD*%
D10*
%TO.P,C6,1,+*%
%TO.N,/DC_LINK_+*%
X65000000Y-22000000D03*
D11*
%TO.P,C6,2,-*%
%TO.N,/DC_LINK_-*%
X57500000Y-22000000D03*
%TD*%
D10*
%TO.P,C11,1,+*%
%TO.N,/DC_LINK_+*%
X15000000Y-28000000D03*
D11*
%TO.P,C11,2,-*%
%TO.N,/DC_LINK_-*%
X7500000Y-28000000D03*
%TD*%
D10*
%TO.P,C8,1,+*%
%TO.N,/DC_LINK_+*%
X38000000Y-23000000D03*
D11*
%TO.P,C8,2,-*%
%TO.N,/DC_LINK_-*%
X30500000Y-23000000D03*
%TD*%
D10*
%TO.P,C7,1,+*%
%TO.N,/DC_LINK_+*%
X36000000Y-45000000D03*
D11*
%TO.P,C7,2,-*%
%TO.N,/DC_LINK_-*%
X28500000Y-45000000D03*
%TD*%
D12*
%TO.P,H5,1,1*%
%TO.N,/CHASSIS_GND_1*%
X87000000Y0D03*
%TD*%
D10*
%TO.P,C1,1,+*%
%TO.N,/DC_LINK_+*%
X84000000Y-28000000D03*
D11*
%TO.P,C1,2,-*%
%TO.N,/DC_LINK_-*%
X76500000Y-28000000D03*
%TD*%
D10*
%TO.P,C3,1,+*%
%TO.N,/DC_LINK_+*%
X77000000Y-65000000D03*
D11*
%TO.P,C3,2,-*%
%TO.N,/DC_LINK_-*%
X69500000Y-65000000D03*
%TD*%
D10*
%TO.P,C10,1,+*%
%TO.N,/DC_LINK_+*%
X15000000Y-66000000D03*
D11*
%TO.P,C10,2,-*%
%TO.N,/DC_LINK_-*%
X7500000Y-66000000D03*
%TD*%
D10*
%TO.P,C9,1,+*%
%TO.N,/DC_LINK_+*%
X15000000Y-47000000D03*
D11*
%TO.P,C9,2,-*%
%TO.N,/DC_LINK_-*%
X7500000Y-47000000D03*
%TD*%
D10*
%TO.P,C5,1,+*%
%TO.N,/DC_LINK_+*%
X65000000Y-49000000D03*
D11*
%TO.P,C5,2,-*%
%TO.N,/DC_LINK_-*%
X57500000Y-49000000D03*
%TD*%
D10*
%TO.P,C2,1,+*%
%TO.N,/DC_LINK_+*%
X84500000Y-47000000D03*
D11*
%TO.P,C2,2,-*%
%TO.N,/DC_LINK_-*%
X77000000Y-47000000D03*
%TD*%
D13*
%TO.P,H1,1,1*%
%TO.N,/DC_LINK_+*%
X50000000Y-63000000D03*
%TD*%
D10*
%TO.P,C12,1,+*%
%TO.N,/DC_LINK_+*%
X15000000Y-9000000D03*
D11*
%TO.P,C12,2,-*%
%TO.N,/DC_LINK_-*%
X7500000Y-9000000D03*
%TD*%
D13*
%TO.P,H2,1,1*%
%TO.N,/DC_LINK_-*%
X50000000Y-35000000D03*
%TD*%
D12*
%TO.P,H4,1,1*%
%TO.N,/CHASSIS_GND*%
X14000000Y5000000D03*
%TD*%
%TA.AperFunction,Conductor*%
%TO.N,/DC_LINK_-*%
G36*
X9280245Y-520185D02*
G01*
X9281989Y-521326D01*
X13000000Y-3000000D01*
X26875500Y-3000000D01*
X26942539Y-3019685D01*
X26988294Y-3072489D01*
X26999500Y-3124000D01*
X26999500Y-12065891D01*
X27033608Y-12193187D01*
X27066554Y-12250250D01*
X27099500Y-12307314D01*
X27192686Y-12400500D01*
X27306814Y-12466392D01*
X27434108Y-12500500D01*
X27434110Y-12500500D01*
X72565890Y-12500500D01*
X72565892Y-12500500D01*
X72693186Y-12466392D01*
X72807314Y-12400500D01*
X72900500Y-12307314D01*
X72966392Y-12193186D01*
X73000500Y-12065892D01*
X73000500Y-5124000D01*
X73020185Y-5056961D01*
X73072989Y-5011206D01*
X73124500Y-5000000D01*
X75948638Y-5000000D01*
X76015677Y-5019685D01*
X76036319Y-5036319D01*
X89463181Y-18463181D01*
X89496666Y-18524504D01*
X89499500Y-18550862D01*
X89499500Y-74876000D01*
X89479815Y-74943039D01*
X89427011Y-74988794D01*
X89375500Y-75000000D01*
X3051362Y-75000000D01*
X2984323Y-74980315D01*
X2963681Y-74963681D01*
X1536819Y-73536819D01*
X1503334Y-73475496D01*
X1500500Y-73449138D01*
X1500500Y-64633533D01*
X10499500Y-64633533D01*
X10499500Y-67366465D01*
X10505086Y-67494428D01*
X10505852Y-67511954D01*
X10507062Y-67520213D01*
X10556509Y-67857784D01*
X10646969Y-68195386D01*
X10646973Y-68195397D01*
X10776009Y-68520203D01*
X10776014Y-68520213D01*
X10931242Y-68808104D01*
X10941896Y-68827862D01*
X11134569Y-69103026D01*
X11142378Y-69114178D01*
X11374727Y-69375268D01*
X11374731Y-69375272D01*
X11635821Y-69607621D01*
X11635826Y-69607624D01*
X11635830Y-69607628D01*
X11922138Y-69808104D01*
X12229785Y-69973985D01*
X12229789Y-69973986D01*
X12229796Y-69973990D01*
X12445269Y-70059591D01*
X12554609Y-70103029D01*
X12892218Y-70193491D01*
X13238046Y-70244148D01*
X13383533Y-70250500D01*
X16616466Y-70250499D01*
X16761954Y-70244148D01*
X17107782Y-70193491D01*
X17445391Y-70103029D01*
X17681179Y-70009356D01*
X17770203Y-69973990D01*
X17770205Y-69973988D01*
X17770215Y-69973985D01*
X18077862Y-69808104D01*
X18364170Y-69607628D01*
X18364178Y-69607621D01*
X18625268Y-69375272D01*
X18625272Y-69375268D01*
X18857621Y-69114178D01*
X18857621Y-69114177D01*
X18857628Y-69114170D01*
X19058104Y-68827862D01*
X19223985Y-68520215D01*
X19353029Y-68195391D01*
X19443491Y-67857782D01*
X19494148Y-67511954D01*
X19500500Y-67366467D01*
X19500499Y-64633534D01*
X19494148Y-64488046D01*
X19443491Y-64142218D01*
X19353029Y-63804609D01*
X19302178Y-63676608D01*
X19285065Y-63633533D01*
X30499500Y-63633533D01*
X30499500Y-66366465D01*
X30505852Y-66511951D01*
X30556509Y-66857784D01*
X30646969Y-67195386D01*
X30646973Y-67195397D01*
X30776009Y-67520203D01*
X30776014Y-67520213D01*
X30776015Y-67520215D01*
X30941896Y-67827862D01*
X31117173Y-68078182D01*
X31142378Y-68114178D01*
X31374727Y-68375268D01*
X31374731Y-68375272D01*
X31635821Y-68607621D01*
X31635826Y-68607624D01*
X31635830Y-68607628D01*
X31922138Y-68808104D01*
X32229785Y-68973985D01*
X32229789Y-68973986D01*
X32229796Y-68973990D01*
X32470793Y-69069731D01*
X32554609Y-69103029D01*
X32892218Y-69193491D01*
X33238046Y-69244148D01*
X33383533Y-69250500D01*
X36616466Y-69250499D01*
X36761954Y-69244148D01*
X37107782Y-69193491D01*
X37445391Y-69103029D01*
X37681179Y-69009356D01*
X37770203Y-68973990D01*
X37770205Y-68973988D01*
X37770215Y-68973985D01*
X38077862Y-68808104D01*
X38364170Y-68607628D01*
X38625270Y-68375270D01*
X38857628Y-68114170D01*
X39058104Y-67827862D01*
X39223985Y-67520215D01*
X39227269Y-67511950D01*
X39340437Y-67227086D01*
X39353029Y-67195391D01*
X39443491Y-66857782D01*
X39494148Y-66511954D01*
X39500500Y-66366467D01*
X39500499Y-63633534D01*
X39494148Y-63488046D01*
X39443491Y-63142218D01*
X39353029Y-62804609D01*
X39326603Y-62738091D01*
X41999500Y-62738091D01*
X41999500Y-63261909D01*
X42013781Y-63479796D01*
X42033759Y-63784611D01*
X42102130Y-64303941D01*
X42102132Y-64303952D01*
X42204317Y-64817673D01*
X42204323Y-64817699D01*
X42339895Y-65323661D01*
X42339899Y-65323675D01*
X42508272Y-65819683D01*
X42508276Y-65819694D01*
X42708731Y-66303634D01*
X42940408Y-66773430D01*
X43202312Y-67227061D01*
X43202328Y-67227086D01*
X43392669Y-67511951D01*
X43493336Y-67662609D01*
X43812217Y-68078182D01*
X44157594Y-68472010D01*
X44527990Y-68842406D01*
X44921818Y-69187783D01*
X45337391Y-69506664D01*
X45337397Y-69506668D01*
X45772913Y-69797671D01*
X45772938Y-69797687D01*
X46226569Y-70059591D01*
X46671618Y-70279064D01*
X46696369Y-70291270D01*
X47180314Y-70491727D01*
X47676333Y-70660103D01*
X48182303Y-70795677D01*
X48182312Y-70795678D01*
X48182326Y-70795682D01*
X48683228Y-70895317D01*
X48696057Y-70897869D01*
X49215394Y-70966241D01*
X49738091Y-71000500D01*
X49738102Y-71000500D01*
X50261898Y-71000500D01*
X50261909Y-71000500D01*
X50784606Y-70966241D01*
X51303943Y-70897869D01*
X51551198Y-70848686D01*
X51817673Y-70795682D01*
X51817680Y-70795680D01*
X51817697Y-70795677D01*
X52323667Y-70660103D01*
X52819686Y-70491727D01*
X53303631Y-70291270D01*
X53773430Y-70059591D01*
X54227070Y-69797682D01*
X54662609Y-69506664D01*
X55078182Y-69187783D01*
X55472010Y-68842406D01*
X55842406Y-68472010D01*
X56187783Y-68078182D01*
X56506664Y-67662609D01*
X56797682Y-67227070D01*
X57059591Y-66773430D01*
X57291270Y-66303631D01*
X57491727Y-65819686D01*
X57660103Y-65323667D01*
X57795677Y-64817697D01*
X57832310Y-64633533D01*
X57897867Y-64303952D01*
X57897869Y-64303941D01*
X57963607Y-63804613D01*
X57966241Y-63784606D01*
X57976143Y-63633533D01*
X72499500Y-63633533D01*
X72499500Y-66366465D01*
X72505852Y-66511951D01*
X72556509Y-66857784D01*
X72646969Y-67195386D01*
X72646973Y-67195397D01*
X72776009Y-67520203D01*
X72776014Y-67520213D01*
X72776015Y-67520215D01*
X72941896Y-67827862D01*
X73117173Y-68078182D01*
X73142378Y-68114178D01*
X73374727Y-68375268D01*
X73374731Y-68375272D01*
X73635821Y-68607621D01*
X73635826Y-68607624D01*
X73635830Y-68607628D01*
X73922138Y-68808104D01*
X74229785Y-68973985D01*
X74229789Y-68973986D01*
X74229796Y-68973990D01*
X74470793Y-69069731D01*
X74554609Y-69103029D01*
X74892218Y-69193491D01*
X75238046Y-69244148D01*
X75383533Y-69250500D01*
X78616466Y-69250499D01*
X78761954Y-69244148D01*
X79107782Y-69193491D01*
X79445391Y-69103029D01*
X79681179Y-69009356D01*
X79770203Y-68973990D01*
X79770205Y-68973988D01*
X79770215Y-68973985D01*
X80077862Y-68808104D01*
X80364170Y-68607628D01*
X80625270Y-68375270D01*
X80857628Y-68114170D01*
X81058104Y-67827862D01*
X81223985Y-67520215D01*
X81227269Y-67511950D01*
X81340437Y-67227086D01*
X81353029Y-67195391D01*
X81443491Y-66857782D01*
X81494148Y-66511954D01*
X81500500Y-66366467D01*
X81500499Y-63633534D01*
X81494148Y-63488046D01*
X81443491Y-63142218D01*
X81353029Y-62804609D01*
X81281567Y-62624727D01*
X81223990Y-62479796D01*
X81223985Y-62479786D01*
X81223985Y-62479785D01*
X81058104Y-62172138D01*
X80857628Y-61885830D01*
X80857624Y-61885826D01*
X80857621Y-61885821D01*
X80625272Y-61624731D01*
X80625268Y-61624727D01*
X80364178Y-61392378D01*
X80364172Y-61392373D01*
X80364170Y-61392372D01*
X80077862Y-61191896D01*
X79770215Y-61026015D01*
X79770214Y-61026014D01*
X79770213Y-61026014D01*
X79770203Y-61026009D01*
X79445397Y-60896973D01*
X79445386Y-60896969D01*
X79107784Y-60806509D01*
X78992506Y-60789623D01*
X78761954Y-60755852D01*
X78616467Y-60749500D01*
X78616466Y-60749500D01*
X75383534Y-60749500D01*
X75249729Y-60755341D01*
X75238046Y-60755852D01*
X75099714Y-60776114D01*
X74892215Y-60806509D01*
X74554613Y-60896969D01*
X74554602Y-60896973D01*
X74229796Y-61026009D01*
X74229786Y-61026014D01*
X73922146Y-61191891D01*
X73922141Y-61191893D01*
X73922138Y-61191896D01*
X73731485Y-61325392D01*
X73635821Y-61392378D01*
X73374731Y-61624727D01*
X73374727Y-61624731D01*
X73142378Y-61885821D01*
X73075392Y-61981485D01*
X72941896Y-62172138D01*
X72941893Y-62172141D01*
X72941891Y-62172146D01*
X72776014Y-62479786D01*
X72776009Y-62479796D01*
X72646973Y-62804602D01*
X72646969Y-62804613D01*
X72556509Y-63142215D01*
X72531180Y-63315132D01*
X72507061Y-63479796D01*
X72505852Y-63488049D01*
X72499500Y-63633533D01*
X57976143Y-63633533D01*
X58000500Y-63261909D01*
X58000500Y-62738091D01*
X57966241Y-62215394D01*
X57897869Y-61696057D01*
X57837464Y-61392378D01*
X57795682Y-61182326D01*
X57795676Y-61182300D01*
X57753800Y-61026015D01*
X57660103Y-60676333D01*
X57491727Y-60180314D01*
X57291270Y-59696369D01*
X57059591Y-59226570D01*
X57059591Y-59226569D01*
X56797687Y-58772938D01*
X56797671Y-58772913D01*
X56506668Y-58337397D01*
X56506664Y-58337391D01*
X56187783Y-57921818D01*
X55842406Y-57527990D01*
X55472010Y-57157594D01*
X55078182Y-56812217D01*
X54662609Y-56493336D01*
X54662602Y-56493331D01*
X54227086Y-56202328D01*
X54227061Y-56202312D01*
X53773430Y-55940408D01*
X53303634Y-55708731D01*
X52819694Y-55508276D01*
X52819683Y-55508272D01*
X52323675Y-55339899D01*
X52323661Y-55339895D01*
X51817699Y-55204323D01*
X51817673Y-55204317D01*
X51303952Y-55102132D01*
X51303941Y-55102130D01*
X50784611Y-55033759D01*
X50621263Y-55023053D01*
X50261909Y-54999500D01*
X49738091Y-54999500D01*
X49399875Y-55021667D01*
X49215388Y-55033759D01*
X48696058Y-55102130D01*
X48696047Y-55102132D01*
X48182326Y-55204317D01*
X48182300Y-55204323D01*
X47676338Y-55339895D01*
X47676324Y-55339899D01*
X47180316Y-55508272D01*
X47180305Y-55508276D01*
X46696365Y-55708731D01*
X46226569Y-55940408D01*
X45772938Y-56202312D01*
X45772913Y-56202328D01*
X45337397Y-56493331D01*
X44921817Y-56812218D01*
X44527985Y-57157598D01*
X44157598Y-57527985D01*
X43812218Y-57921817D01*
X43493331Y-58337397D01*
X43202328Y-58772913D01*
X43202312Y-58772938D01*
X42940408Y-59226569D01*
X42708731Y-59696365D01*
X42508276Y-60180305D01*
X42508272Y-60180316D01*
X42339899Y-60676324D01*
X42339895Y-60676338D01*
X42204323Y-61182300D01*
X42204317Y-61182326D01*
X42102132Y-61696047D01*
X42102130Y-61696058D01*
X42033759Y-62215388D01*
X42033759Y-62215394D01*
X41999500Y-62738091D01*
X39326603Y-62738091D01*
X39281567Y-62624727D01*
X39223990Y-62479796D01*
X39223985Y-62479786D01*
X39223985Y-62479785D01*
X39058104Y-62172138D01*
X38857628Y-61885830D01*
X38857624Y-61885826D01*
X38857621Y-61885821D01*
X38625272Y-61624731D01*
X38625268Y-61624727D01*
X38364178Y-61392378D01*
X38364172Y-61392373D01*
X38364170Y-61392372D01*
X38077862Y-61191896D01*
X37770215Y-61026015D01*
X37770214Y-61026014D01*
X37770213Y-61026014D01*
X37770203Y-61026009D01*
X37445397Y-60896973D01*
X37445386Y-60896969D01*
X37107784Y-60806509D01*
X36992506Y-60789623D01*
X36761954Y-60755852D01*
X36616467Y-60749500D01*
X36616466Y-60749500D01*
X33383534Y-60749500D01*
X33249729Y-60755341D01*
X33238046Y-60755852D01*
X33099714Y-60776114D01*
X32892215Y-60806509D01*
X32554613Y-60896969D01*
X32554602Y-60896973D01*
X32229796Y-61026009D01*
X32229786Y-61026014D01*
X31922146Y-61191891D01*
X31922141Y-61191893D01*
X31922138Y-61191896D01*
X31731485Y-61325392D01*
X31635821Y-61392378D01*
X31374731Y-61624727D01*
X31374727Y-61624731D01*
X31142378Y-61885821D01*
X31075392Y-61981485D01*
X30941896Y-62172138D01*
X30941893Y-62172141D01*
X30941891Y-62172146D01*
X30776014Y-62479786D01*
X30776009Y-62479796D01*
X30646973Y-62804602D01*
X30646969Y-62804613D01*
X30556509Y-63142215D01*
X30531180Y-63315132D01*
X30507061Y-63479796D01*
X30505852Y-63488049D01*
X30499500Y-63633533D01*
X19285065Y-63633533D01*
X19223990Y-63479796D01*
X19223985Y-63479786D01*
X19223985Y-63479785D01*
X19058104Y-63172138D01*
X18857628Y-62885830D01*
X18857624Y-62885826D01*
X18857621Y-62885821D01*
X18625272Y-62624731D01*
X18625268Y-62624727D01*
X18364178Y-62392378D01*
X18364172Y-62392373D01*
X18364170Y-62392372D01*
X18077862Y-62191896D01*
X18041218Y-62172138D01*
X17770213Y-62026014D01*
X17770203Y-62026009D01*
X17445397Y-61896973D01*
X17445386Y-61896969D01*
X17107784Y-61806509D01*
X16992506Y-61789623D01*
X16761954Y-61755852D01*
X16616467Y-61749500D01*
X16616466Y-61749500D01*
X13383534Y-61749500D01*
X13249729Y-61755341D01*
X13238046Y-61755852D01*
X13099714Y-61776114D01*
X12892215Y-61806509D01*
X12554613Y-61896969D01*
X12554602Y-61896973D01*
X12229796Y-62026009D01*
X12229786Y-62026014D01*
X11922146Y-62191891D01*
X11922141Y-62191893D01*
X11922138Y-62191896D01*
X11888580Y-62215394D01*
X11635821Y-62392378D01*
X11374731Y-62624727D01*
X11374727Y-62624731D01*
X11142378Y-62885821D01*
X11142372Y-62885830D01*
X10941896Y-63172138D01*
X10941893Y-63172141D01*
X10941891Y-63172146D01*
X10776014Y-63479786D01*
X10776009Y-63479796D01*
X10646973Y-63804602D01*
X10646969Y-63804613D01*
X10556509Y-64142215D01*
X10505852Y-64488049D01*
X10499500Y-64633533D01*
X1500500Y-64633533D01*
X1500500Y-45633533D01*
X10499500Y-45633533D01*
X10499500Y-48366465D01*
X10499885Y-48375272D01*
X10505852Y-48511954D01*
X10536246Y-48719450D01*
X10556509Y-48857784D01*
X10646969Y-49195386D01*
X10646973Y-49195397D01*
X10776009Y-49520203D01*
X10776014Y-49520213D01*
X10776015Y-49520215D01*
X10941896Y-49827862D01*
X11142372Y-50114170D01*
X11142378Y-50114178D01*
X11374727Y-50375268D01*
X11374731Y-50375272D01*
X11635821Y-50607621D01*
X11635826Y-50607624D01*
X11635830Y-50607628D01*
X11922138Y-50808104D01*
X12229785Y-50973985D01*
X12229789Y-50973986D01*
X12229796Y-50973990D01*
X12470793Y-51069731D01*
X12554609Y-51103029D01*
X12892218Y-51193491D01*
X13238046Y-51244148D01*
X13383533Y-51250500D01*
X16616466Y-51250499D01*
X16761954Y-51244148D01*
X17107782Y-51193491D01*
X17445391Y-51103029D01*
X17681179Y-51009356D01*
X17770203Y-50973990D01*
X17770205Y-50973988D01*
X17770215Y-50973985D01*
X18077862Y-50808104D01*
X18364170Y-50607628D01*
X18625270Y-50375270D01*
X18857628Y-50114170D01*
X19058104Y-49827862D01*
X19223985Y-49520215D01*
X19353029Y-49195391D01*
X19443491Y-48857782D01*
X19494148Y-48511954D01*
X19500500Y-48366467D01*
X19500499Y-45633534D01*
X19494148Y-45488046D01*
X19443491Y-45142218D01*
X19353029Y-44804609D01*
X19319731Y-44720793D01*
X19223990Y-44479796D01*
X19223985Y-44479786D01*
X19223985Y-44479785D01*
X19058104Y-44172138D01*
X18857628Y-43885830D01*
X18798702Y-43819615D01*
X18704056Y-43713261D01*
X18704055Y-43713260D01*
X18633104Y-43633533D01*
X31499500Y-43633533D01*
X31499500Y-46366465D01*
X31505852Y-46511951D01*
X31556509Y-46857784D01*
X31646969Y-47195386D01*
X31646973Y-47195397D01*
X31776009Y-47520203D01*
X31776014Y-47520213D01*
X31776015Y-47520215D01*
X31941896Y-47827862D01*
X32142372Y-48114170D01*
X32142378Y-48114178D01*
X32374727Y-48375268D01*
X32374731Y-48375272D01*
X32635821Y-48607621D01*
X32635826Y-48607624D01*
X32635830Y-48607628D01*
X32922138Y-48808104D01*
X33229785Y-48973985D01*
X33229789Y-48973986D01*
X33229796Y-48973990D01*
X33470793Y-49069731D01*
X33554609Y-49103029D01*
X33892218Y-49193491D01*
X34238046Y-49244148D01*
X34383533Y-49250500D01*
X37616466Y-49250499D01*
X37761954Y-49244148D01*
X38107782Y-49193491D01*
X38445391Y-49103029D01*
X38681179Y-49009356D01*
X38770203Y-48973990D01*
X38770205Y-48973988D01*
X38770215Y-48973985D01*
X39077862Y-48808104D01*
X39364170Y-48607628D01*
X39625270Y-48375270D01*
X39857628Y-48114170D01*
X40058104Y-47827862D01*
X40162885Y-47633533D01*
X60499500Y-47633533D01*
X60499500Y-50366465D01*
X60499885Y-50375272D01*
X60505852Y-50511954D01*
X60536246Y-50719450D01*
X60556509Y-50857784D01*
X60646969Y-51195386D01*
X60646973Y-51195397D01*
X60776009Y-51520203D01*
X60776014Y-51520213D01*
X60776015Y-51520215D01*
X60941896Y-51827862D01*
X61142372Y-52114170D01*
X61142378Y-52114178D01*
X61374727Y-52375268D01*
X61374731Y-52375272D01*
X61635821Y-52607621D01*
X61635826Y-52607624D01*
X61635830Y-52607628D01*
X61922138Y-52808104D01*
X62229785Y-52973985D01*
X62229789Y-52973986D01*
X62229796Y-52973990D01*
X62470793Y-53069731D01*
X62554609Y-53103029D01*
X62892218Y-53193491D01*
X63238046Y-53244148D01*
X63383533Y-53250500D01*
X66616466Y-53250499D01*
X66761954Y-53244148D01*
X67107782Y-53193491D01*
X67445391Y-53103029D01*
X67681179Y-53009356D01*
X67770203Y-52973990D01*
X67770205Y-52973988D01*
X67770215Y-52973985D01*
X68077862Y-52808104D01*
X68364170Y-52607628D01*
X68625270Y-52375270D01*
X68857628Y-52114170D01*
X69058104Y-51827862D01*
X69223985Y-51520215D01*
X69353029Y-51195391D01*
X69443491Y-50857782D01*
X69494148Y-50511954D01*
X69500500Y-50366467D01*
X69500499Y-47633534D01*
X69494148Y-47488046D01*
X69443491Y-47142218D01*
X69353029Y-46804609D01*
X69236764Y-46511951D01*
X69223990Y-46479796D01*
X69223985Y-46479786D01*
X69223985Y-46479785D01*
X69058104Y-46172138D01*
X68857628Y-45885830D01*
X68798702Y-45819615D01*
X68704056Y-45713261D01*
X68704055Y-45713260D01*
X68633104Y-45633533D01*
X79999500Y-45633533D01*
X79999500Y-48366465D01*
X79999885Y-48375272D01*
X80005852Y-48511954D01*
X80036246Y-48719450D01*
X80056509Y-48857784D01*
X80146969Y-49195386D01*
X80146973Y-49195397D01*
X80276009Y-49520203D01*
X80276014Y-49520213D01*
X80276015Y-49520215D01*
X80441896Y-49827862D01*
X80642372Y-50114170D01*
X80642378Y-50114178D01*
X80874727Y-50375268D01*
X80874731Y-50375272D01*
X81135821Y-50607621D01*
X81135826Y-50607624D01*
X81135830Y-50607628D01*
X81422138Y-50808104D01*
X81729785Y-50973985D01*
X81729789Y-50973986D01*
X81729796Y-50973990D01*
X81970793Y-51069731D01*
X82054609Y-51103029D01*
X82392218Y-51193491D01*
X82738046Y-51244148D01*
X82883533Y-51250500D01*
X86116466Y-51250499D01*
X86261954Y-51244148D01*
X86607782Y-51193491D01*
X86945391Y-51103029D01*
X87181179Y-51009356D01*
X87270203Y-50973990D01*
X87270205Y-50973988D01*
X87270215Y-50973985D01*
X87577862Y-50808104D01*
X87864170Y-50607628D01*
X88125270Y-50375270D01*
X88357628Y-50114170D01*
X88558104Y-49827862D01*
X88723985Y-49520215D01*
X88853029Y-49195391D01*
X88943491Y-48857782D01*
X88994148Y-48511954D01*
X89000500Y-48366467D01*
X89000499Y-45633534D01*
X88994148Y-45488046D01*
X88943491Y-45142218D01*
X88853029Y-44804609D01*
X88819731Y-44720793D01*
X88723990Y-44479796D01*
X88723985Y-44479786D01*
X88723985Y-44479785D01*
X88558104Y-44172138D01*
X88357628Y-43885830D01*
X88357624Y-43885826D01*
X88357621Y-43885821D01*
X88125272Y-43624731D01*
X88125268Y-43624727D01*
X87864178Y-43392378D01*
X87864172Y-43392373D01*
X87864170Y-43392372D01*
X87577862Y-43191896D01*
X87485722Y-43142215D01*
X87270213Y-43026014D01*
X87270203Y-43026009D01*
X86945397Y-42896973D01*
X86945386Y-42896969D01*
X86607784Y-42806509D01*
X86492506Y-42789623D01*
X86261954Y-42755852D01*
X86116467Y-42749500D01*
X86116466Y-42749500D01*
X82883534Y-42749500D01*
X82749729Y-42755341D01*
X82738046Y-42755852D01*
X82599714Y-42776114D01*
X82392215Y-42806509D01*
X82054613Y-42896969D01*
X82054602Y-42896973D01*
X81729796Y-43026009D01*
X81729786Y-43026014D01*
X81422146Y-43191891D01*
X81422141Y-43191893D01*
X81422138Y-43191896D01*
X81231485Y-43325392D01*
X81135821Y-43392378D01*
X80874731Y-43624727D01*
X80874727Y-43624731D01*
X80642378Y-43885821D01*
X80642372Y-43885830D01*
X80441896Y-44172138D01*
X80441893Y-44172141D01*
X80441891Y-44172146D01*
X80276014Y-44479786D01*
X80276009Y-44479796D01*
X80146973Y-44804602D01*
X80146969Y-44804613D01*
X80056509Y-45142215D01*
X80056509Y-45142218D01*
X80019866Y-45392378D01*
X80005852Y-45488049D01*
X79999500Y-45633533D01*
X68633104Y-45633533D01*
X68625266Y-45624725D01*
X68364178Y-45392378D01*
X68364172Y-45392373D01*
X68364170Y-45392372D01*
X68077862Y-45191896D01*
X67985722Y-45142215D01*
X67770213Y-45026014D01*
X67770203Y-45026009D01*
X67445397Y-44896973D01*
X67445386Y-44896969D01*
X67107784Y-44806509D01*
X66992506Y-44789623D01*
X66761954Y-44755852D01*
X66616467Y-44749500D01*
X66616466Y-44749500D01*
X63383534Y-44749500D01*
X63249729Y-44755341D01*
X63238046Y-44755852D01*
X63099714Y-44776114D01*
X62892215Y-44806509D01*
X62554613Y-44896969D01*
X62554602Y-44896973D01*
X62229796Y-45026009D01*
X62229786Y-45026014D01*
X61922146Y-45191891D01*
X61922141Y-45191893D01*
X61922138Y-45191896D01*
X61731485Y-45325392D01*
X61635821Y-45392378D01*
X61374731Y-45624727D01*
X61374727Y-45624731D01*
X61142378Y-45885821D01*
X61142372Y-45885830D01*
X60941896Y-46172138D01*
X60941893Y-46172141D01*
X60941891Y-46172146D01*
X60776014Y-46479786D01*
X60776009Y-46479796D01*
X60646973Y-46804602D01*
X60646969Y-46804613D01*
X60556509Y-47142215D01*
X60556509Y-47142218D01*
X60505852Y-47488046D01*
X60502188Y-47571977D01*
X60499500Y-47633533D01*
X40162885Y-47633533D01*
X40223985Y-47520215D01*
X40353029Y-47195391D01*
X40443491Y-46857782D01*
X40494148Y-46511954D01*
X40500500Y-46366467D01*
X40500499Y-43633534D01*
X40494148Y-43488046D01*
X40443491Y-43142218D01*
X40353029Y-42804609D01*
X40319731Y-42720793D01*
X40223990Y-42479796D01*
X40223985Y-42479786D01*
X40223985Y-42479785D01*
X40058104Y-42172138D01*
X39857628Y-41885830D01*
X39857624Y-41885826D01*
X39857621Y-41885821D01*
X39625272Y-41624731D01*
X39625268Y-41624727D01*
X39364178Y-41392378D01*
X39364172Y-41392373D01*
X39364170Y-41392372D01*
X39077862Y-41191896D01*
X38770215Y-41026015D01*
X38770214Y-41026014D01*
X38770213Y-41026014D01*
X38770203Y-41026009D01*
X38445397Y-40896973D01*
X38445386Y-40896969D01*
X38107784Y-40806509D01*
X37992506Y-40789623D01*
X37761954Y-40755852D01*
X37616467Y-40749500D01*
X37616466Y-40749500D01*
X34383534Y-40749500D01*
X34249729Y-40755341D01*
X34238046Y-40755852D01*
X34099714Y-40776114D01*
X33892215Y-40806509D01*
X33554613Y-40896969D01*
X33554602Y-40896973D01*
X33229796Y-41026009D01*
X33229786Y-41026014D01*
X32922146Y-41191891D01*
X32922141Y-41191893D01*
X32922138Y-41191896D01*
X32731485Y-41325392D01*
X32635821Y-41392378D01*
X32374731Y-41624727D01*
X32374727Y-41624731D01*
X32142378Y-41885821D01*
X32142372Y-41885830D01*
X31941896Y-42172138D01*
X31941893Y-42172141D01*
X31941891Y-42172146D01*
X31776014Y-42479786D01*
X31776009Y-42479796D01*
X31646973Y-42804602D01*
X31646969Y-42804613D01*
X31556509Y-43142215D01*
X31556509Y-43142218D01*
X31519866Y-43392378D01*
X31505852Y-43488049D01*
X31499500Y-43633533D01*
X18633104Y-43633533D01*
X18625266Y-43624725D01*
X18364178Y-43392378D01*
X18364172Y-43392373D01*
X18364170Y-43392372D01*
X18077862Y-43191896D01*
X17985722Y-43142215D01*
X17770213Y-43026014D01*
X17770203Y-43026009D01*
X17445397Y-42896973D01*
X17445386Y-42896969D01*
X17107784Y-42806509D01*
X16992506Y-42789623D01*
X16761954Y-42755852D01*
X16616467Y-42749500D01*
X16616466Y-42749500D01*
X13383534Y-42749500D01*
X13249729Y-42755341D01*
X13238046Y-42755852D01*
X13099714Y-42776114D01*
X12892215Y-42806509D01*
X12554613Y-42896969D01*
X12554602Y-42896973D01*
X12229796Y-43026009D01*
X12229786Y-43026014D01*
X11922146Y-43191891D01*
X11922141Y-43191893D01*
X11922138Y-43191896D01*
X11731485Y-43325392D01*
X11635821Y-43392378D01*
X11374731Y-43624727D01*
X11374727Y-43624731D01*
X11142378Y-43885821D01*
X11142372Y-43885830D01*
X10941896Y-44172138D01*
X10941893Y-44172141D01*
X10941891Y-44172146D01*
X10776014Y-44479786D01*
X10776009Y-44479796D01*
X10646973Y-44804602D01*
X10646969Y-44804613D01*
X10556509Y-45142215D01*
X10556509Y-45142218D01*
X10519866Y-45392378D01*
X10505852Y-45488049D01*
X10499500Y-45633533D01*
X1500500Y-45633533D01*
X1500500Y-26633533D01*
X10499500Y-26633533D01*
X10499500Y-29366465D01*
X10505852Y-29511951D01*
X10556509Y-29857784D01*
X10646969Y-30195386D01*
X10646973Y-30195397D01*
X10776009Y-30520203D01*
X10776014Y-30520213D01*
X10776015Y-30520215D01*
X10941896Y-30827862D01*
X11142372Y-31114170D01*
X11142378Y-31114178D01*
X11374727Y-31375268D01*
X11374731Y-31375272D01*
X11635821Y-31607621D01*
X11635826Y-31607624D01*
X11635830Y-31607628D01*
X11922138Y-31808104D01*
X12229785Y-31973985D01*
X12229789Y-31973986D01*
X12229796Y-31973990D01*
X12470793Y-32069731D01*
X12554609Y-32103029D01*
X12892218Y-32193491D01*
X13238046Y-32244148D01*
X13383533Y-32250500D01*
X16616466Y-32250499D01*
X16761954Y-32244148D01*
X17107782Y-32193491D01*
X17445391Y-32103029D01*
X17681179Y-32009356D01*
X17770203Y-31973990D01*
X17770205Y-31973988D01*
X17770215Y-31973985D01*
X18077862Y-31808104D01*
X18364170Y-31607628D01*
X18625270Y-31375270D01*
X18857628Y-31114170D01*
X19058104Y-30827862D01*
X19223985Y-30520215D01*
X19353029Y-30195391D01*
X19443491Y-29857782D01*
X19494148Y-29511954D01*
X19500500Y-29366467D01*
X19500499Y-26633534D01*
X19494148Y-26488046D01*
X19443491Y-26142218D01*
X19353029Y-25804609D01*
X19240047Y-25520215D01*
X19223990Y-25479796D01*
X19223985Y-25479786D01*
X19223985Y-25479785D01*
X19058104Y-25172138D01*
X18857628Y-24885830D01*
X18857624Y-24885826D01*
X18857621Y-24885821D01*
X18625272Y-24624731D01*
X18625268Y-24624727D01*
X18364178Y-24392378D01*
X18364172Y-24392373D01*
X18364170Y-24392372D01*
X18077862Y-24191896D01*
X17770215Y-24026015D01*
X17770214Y-24026014D01*
X17770213Y-24026014D01*
X17770203Y-24026009D01*
X17445397Y-23896973D01*
X17445386Y-23896969D01*
X17107784Y-23806509D01*
X16992506Y-23789623D01*
X16761954Y-23755852D01*
X16616467Y-23749500D01*
X16616466Y-23749500D01*
X13383534Y-23749500D01*
X13249729Y-23755341D01*
X13238046Y-23755852D01*
X13099714Y-23776114D01*
X12892215Y-23806509D01*
X12554613Y-23896969D01*
X12554602Y-23896973D01*
X12229796Y-24026009D01*
X12229786Y-24026014D01*
X11922146Y-24191891D01*
X11922141Y-24191893D01*
X11922138Y-24191896D01*
X11731485Y-24325392D01*
X11635821Y-24392378D01*
X11374731Y-24624727D01*
X11374727Y-24624731D01*
X11142378Y-24885821D01*
X11142372Y-24885830D01*
X10941896Y-25172138D01*
X10941893Y-25172141D01*
X10941891Y-25172146D01*
X10776014Y-25479786D01*
X10776009Y-25479796D01*
X10646973Y-25804602D01*
X10646969Y-25804613D01*
X10556509Y-26142215D01*
X10541578Y-26244147D01*
X10505852Y-26488046D01*
X10500631Y-26607621D01*
X10499500Y-26633533D01*
X1500500Y-26633533D01*
X1500500Y-21633533D01*
X33499500Y-21633533D01*
X33499500Y-24366465D01*
X33505086Y-24494428D01*
X33505852Y-24511954D01*
X33522372Y-24624731D01*
X33556509Y-24857784D01*
X33646969Y-25195386D01*
X33646973Y-25195397D01*
X33776009Y-25520203D01*
X33776014Y-25520213D01*
X33931242Y-25808104D01*
X33941896Y-25827862D01*
X34134569Y-26103026D01*
X34142378Y-26114178D01*
X34374727Y-26375268D01*
X34374731Y-26375272D01*
X34635821Y-26607621D01*
X34635826Y-26607624D01*
X34635830Y-26607628D01*
X34922138Y-26808104D01*
X35229785Y-26973985D01*
X35229789Y-26973986D01*
X35229796Y-26973990D01*
X35470793Y-27069731D01*
X35554609Y-27103029D01*
X35892218Y-27193491D01*
X36238046Y-27244148D01*
X36383533Y-27250500D01*
X39616466Y-27250499D01*
X39761954Y-27244148D01*
X40107782Y-27193491D01*
X40445391Y-27103029D01*
X40681179Y-27009356D01*
X40770203Y-26973990D01*
X40770205Y-26973988D01*
X40770215Y-26973985D01*
X41077862Y-26808104D01*
X41327174Y-26633533D01*
X79499500Y-26633533D01*
X79499500Y-29366465D01*
X79505852Y-29511951D01*
X79556509Y-29857784D01*
X79646969Y-30195386D01*
X79646973Y-30195397D01*
X79776009Y-30520203D01*
X79776014Y-30520213D01*
X79776015Y-30520215D01*
X79941896Y-30827862D01*
X80142372Y-31114170D01*
X80142378Y-31114178D01*
X80374727Y-31375268D01*
X80374731Y-31375272D01*
X80635821Y-31607621D01*
X80635826Y-31607624D01*
X80635830Y-31607628D01*
X80922138Y-31808104D01*
X81229785Y-31973985D01*
X81229789Y-31973986D01*
X81229796Y-31973990D01*
X81470793Y-32069731D01*
X81554609Y-32103029D01*
X81892218Y-32193491D01*
X82238046Y-32244148D01*
X82383533Y-32250500D01*
X85616466Y-32250499D01*
X85761954Y-32244148D01*
X86107782Y-32193491D01*
X86445391Y-32103029D01*
X86681179Y-32009356D01*
X86770203Y-31973990D01*
X86770205Y-31973988D01*
X86770215Y-31973985D01*
X87077862Y-31808104D01*
X87364170Y-31607628D01*
X87625270Y-31375270D01*
X87857628Y-31114170D01*
X88058104Y-30827862D01*
X88223985Y-30520215D01*
X88353029Y-30195391D01*
X88443491Y-29857782D01*
X88494148Y-29511954D01*
X88500500Y-29366467D01*
X88500499Y-26633534D01*
X88494148Y-26488046D01*
X88443491Y-26142218D01*
X88353029Y-25804609D01*
X88240047Y-25520215D01*
X88223990Y-25479796D01*
X88223985Y-25479786D01*
X88223985Y-25479785D01*
X88058104Y-25172138D01*
X87857628Y-24885830D01*
X87857624Y-24885826D01*
X87857621Y-24885821D01*
X87625272Y-24624731D01*
X87625268Y-24624727D01*
X87364178Y-24392378D01*
X87364172Y-24392373D01*
X87364170Y-24392372D01*
X87077862Y-24191896D01*
X86770215Y-24026015D01*
X86770214Y-24026014D01*
X86770213Y-24026014D01*
X86770203Y-24026009D01*
X86445397Y-23896973D01*
X86445386Y-23896969D01*
X86107784Y-23806509D01*
X85992506Y-23789623D01*
X85761954Y-23755852D01*
X85616467Y-23749500D01*
X85616466Y-23749500D01*
X82383534Y-23749500D01*
X82249729Y-23755341D01*
X82238046Y-23755852D01*
X82099714Y-23776114D01*
X81892215Y-23806509D01*
X81554613Y-23896969D01*
X81554602Y-23896973D01*
X81229796Y-24026009D01*
X81229786Y-24026014D01*
X80922146Y-24191891D01*
X80922141Y-24191893D01*
X80922138Y-24191896D01*
X80731485Y-24325392D01*
X80635821Y-24392378D01*
X80374731Y-24624727D01*
X80374727Y-24624731D01*
X80142378Y-24885821D01*
X80142372Y-24885830D01*
X79941896Y-25172138D01*
X79941893Y-25172141D01*
X79941891Y-25172146D01*
X79776014Y-25479786D01*
X79776009Y-25479796D01*
X79646973Y-25804602D01*
X79646969Y-25804613D01*
X79556509Y-26142215D01*
X79541578Y-26244147D01*
X79505852Y-26488046D01*
X79500631Y-26607621D01*
X79499500Y-26633533D01*
X41327174Y-26633533D01*
X41364170Y-26607628D01*
X41625270Y-26375270D01*
X41857628Y-26114170D01*
X42058104Y-25827862D01*
X42223985Y-25520215D01*
X42240043Y-25479796D01*
X42281568Y-25375270D01*
X42353029Y-25195391D01*
X42443491Y-24857782D01*
X42494148Y-24511954D01*
X42500500Y-24366467D01*
X42500499Y-21633534D01*
X42494148Y-21488046D01*
X42443491Y-21142218D01*
X42353029Y-20804609D01*
X42302178Y-20676608D01*
X42285065Y-20633533D01*
X60499500Y-20633533D01*
X60499500Y-23366465D01*
X60505852Y-23511951D01*
X60556509Y-23857784D01*
X60646969Y-24195386D01*
X60646973Y-24195397D01*
X60776009Y-24520203D01*
X60776014Y-24520213D01*
X60776015Y-24520215D01*
X60941896Y-24827862D01*
X61142372Y-25114170D01*
X61142378Y-25114178D01*
X61374727Y-25375268D01*
X61374731Y-25375272D01*
X61635821Y-25607621D01*
X61635826Y-25607624D01*
X61635830Y-25607628D01*
X61922138Y-25808104D01*
X62229785Y-25973985D01*
X62229789Y-25973986D01*
X62229796Y-25973990D01*
X62470793Y-26069731D01*
X62554609Y-26103029D01*
X62892218Y-26193491D01*
X63238046Y-26244148D01*
X63383533Y-26250500D01*
X66616466Y-26250499D01*
X66761954Y-26244148D01*
X67107782Y-26193491D01*
X67445391Y-26103029D01*
X67681179Y-26009356D01*
X67770203Y-25973990D01*
X67770205Y-25973988D01*
X67770215Y-25973985D01*
X68077862Y-25808104D01*
X68364170Y-25607628D01*
X68462409Y-25520203D01*
X68625268Y-25375272D01*
X68625272Y-25375268D01*
X68857621Y-25114178D01*
X68857621Y-25114177D01*
X68857628Y-25114170D01*
X69058104Y-24827862D01*
X69223985Y-24520215D01*
X69227269Y-24511950D01*
X69285066Y-24366465D01*
X69353029Y-24195391D01*
X69443491Y-23857782D01*
X69494148Y-23511954D01*
X69500500Y-23366467D01*
X69500499Y-20633534D01*
X69494148Y-20488046D01*
X69443491Y-20142218D01*
X69353029Y-19804609D01*
X69281567Y-19624727D01*
X69223990Y-19479796D01*
X69223985Y-19479786D01*
X69223985Y-19479785D01*
X69058104Y-19172138D01*
X68857628Y-18885830D01*
X68857624Y-18885826D01*
X68857621Y-18885821D01*
X68625272Y-18624731D01*
X68625268Y-18624727D01*
X68364178Y-18392378D01*
X68364172Y-18392373D01*
X68364170Y-18392372D01*
X68077862Y-18191896D01*
X67770215Y-18026015D01*
X67770214Y-18026014D01*
X67770213Y-18026014D01*
X67770203Y-18026009D01*
X67445397Y-17896973D01*
X67445386Y-17896969D01*
X67107784Y-17806509D01*
X66992506Y-17789623D01*
X66761954Y-17755852D01*
X66616467Y-17749500D01*
X66616466Y-17749500D01*
X63383534Y-17749500D01*
X63249729Y-17755341D01*
X63238046Y-17755852D01*
X63099714Y-17776114D01*
X62892215Y-17806509D01*
X62554613Y-17896969D01*
X62554602Y-17896973D01*
X62229796Y-18026009D01*
X62229786Y-18026014D01*
X61922146Y-18191891D01*
X61922141Y-18191893D01*
X61922138Y-18191896D01*
X61731485Y-18325392D01*
X61635821Y-18392378D01*
X61374731Y-18624727D01*
X61374727Y-18624731D01*
X61142378Y-18885821D01*
X61075392Y-18981485D01*
X60941896Y-19172138D01*
X60941893Y-19172141D01*
X60941891Y-19172146D01*
X60776014Y-19479786D01*
X60776009Y-19479796D01*
X60646973Y-19804602D01*
X60646969Y-19804613D01*
X60556509Y-20142215D01*
X60556509Y-20142218D01*
X60507061Y-20479796D01*
X60505852Y-20488049D01*
X60499500Y-20633533D01*
X42285065Y-20633533D01*
X42223990Y-20479796D01*
X42223985Y-20479786D01*
X42223985Y-20479785D01*
X42058104Y-20172138D01*
X41857628Y-19885830D01*
X41857624Y-19885826D01*
X41857621Y-19885821D01*
X41625272Y-19624731D01*
X41625268Y-19624727D01*
X41364178Y-19392378D01*
X41364172Y-19392373D01*
X41364170Y-19392372D01*
X41077862Y-19191896D01*
X41041218Y-19172138D01*
X40770213Y-19026014D01*
X40770203Y-19026009D01*
X40445397Y-18896973D01*
X40445386Y-18896969D01*
X40107784Y-18806509D01*
X39992506Y-18789623D01*
X39761954Y-18755852D01*
X39616467Y-18749500D01*
X39616466Y-18749500D01*
X36383534Y-18749500D01*
X36249729Y-18755341D01*
X36238046Y-18755852D01*
X36099714Y-18776114D01*
X35892215Y-18806509D01*
X35554613Y-18896969D01*
X35554602Y-18896973D01*
X35229796Y-19026009D01*
X35229786Y-19026014D01*
X34922146Y-19191891D01*
X34922141Y-19191893D01*
X34922138Y-19191896D01*
X34731485Y-19325392D01*
X34635821Y-19392378D01*
X34374731Y-19624727D01*
X34374727Y-19624731D01*
X34142378Y-19885821D01*
X34142372Y-19885830D01*
X33941896Y-20172138D01*
X33941893Y-20172141D01*
X33941891Y-20172146D01*
X33776014Y-20479786D01*
X33776009Y-20479796D01*
X33646973Y-20804602D01*
X33646969Y-20804613D01*
X33556509Y-21142215D01*
X33505852Y-21488049D01*
X33499500Y-21633533D01*
X1500500Y-21633533D01*
X1500500Y-7633533D01*
X10499500Y-7633533D01*
X10499500Y-10366465D01*
X10505852Y-10511951D01*
X10556509Y-10857784D01*
X10646969Y-11195386D01*
X10646973Y-11195397D01*
X10776009Y-11520203D01*
X10776014Y-11520213D01*
X10776015Y-11520215D01*
X10941896Y-11827862D01*
X11142372Y-12114170D01*
X11142378Y-12114178D01*
X11374727Y-12375268D01*
X11374731Y-12375272D01*
X11635821Y-12607621D01*
X11635826Y-12607624D01*
X11635830Y-12607628D01*
X11922138Y-12808104D01*
X12229785Y-12973985D01*
X12229789Y-12973986D01*
X12229796Y-12973990D01*
X12470793Y-13069731D01*
X12554609Y-13103029D01*
X12892218Y-13193491D01*
X13238046Y-13244148D01*
X13383533Y-13250500D01*
X16616466Y-13250499D01*
X16761954Y-13244148D01*
X17107782Y-13193491D01*
X17445391Y-13103029D01*
X17681179Y-13009356D01*
X17770203Y-12973990D01*
X17770205Y-12973988D01*
X17770215Y-12973985D01*
X18077862Y-12808104D01*
X18364170Y-12607628D01*
X18364178Y-12607621D01*
X18625268Y-12375272D01*
X18625272Y-12375268D01*
X18857621Y-12114178D01*
X18857621Y-12114177D01*
X18857628Y-12114170D01*
X19058104Y-11827862D01*
X19223985Y-11520215D01*
X19353029Y-11195391D01*
X19443491Y-10857782D01*
X19494148Y-10511954D01*
X19500500Y-10366467D01*
X19500499Y-7633534D01*
X19494148Y-7488046D01*
X19443491Y-7142218D01*
X19353029Y-6804609D01*
X19319731Y-6720793D01*
X19223990Y-6479796D01*
X19223985Y-6479786D01*
X19223985Y-6479785D01*
X19058104Y-6172138D01*
X18857628Y-5885830D01*
X18857624Y-5885826D01*
X18857621Y-5885821D01*
X18625272Y-5624731D01*
X18625268Y-5624727D01*
X18364178Y-5392378D01*
X18364172Y-5392373D01*
X18364170Y-5392372D01*
X18077862Y-5191896D01*
X18056500Y-5180378D01*
X17770213Y-5026014D01*
X17770203Y-5026009D01*
X17445397Y-4896973D01*
X17445386Y-4896969D01*
X17107784Y-4806509D01*
X16992506Y-4789623D01*
X16761954Y-4755852D01*
X16616467Y-4749500D01*
X16616466Y-4749500D01*
X13383534Y-4749500D01*
X13249729Y-4755341D01*
X13238046Y-4755852D01*
X13099714Y-4776114D01*
X12892215Y-4806509D01*
X12554613Y-4896969D01*
X12554602Y-4896973D01*
X12229796Y-5026009D01*
X12229786Y-5026014D01*
X11922146Y-5191891D01*
X11922141Y-5191893D01*
X11922138Y-5191896D01*
X11731485Y-5325392D01*
X11635821Y-5392378D01*
X11374731Y-5624727D01*
X11374727Y-5624731D01*
X11142378Y-5885821D01*
X11142372Y-5885830D01*
X10941896Y-6172138D01*
X10941893Y-6172141D01*
X10941891Y-6172146D01*
X10776014Y-6479786D01*
X10776009Y-6479796D01*
X10646973Y-6804602D01*
X10646969Y-6804613D01*
X10556509Y-7142215D01*
X10505852Y-7488049D01*
X10499500Y-7633533D01*
X1500500Y-7633533D01*
X1500500Y-624500D01*
X1520185Y-557461D01*
X1572989Y-511706D01*
X1624500Y-500500D01*
X9213206Y-500500D01*
X9280245Y-520185D01*
G37*
%TD.AperFunction*%
%TD*%
M02*
