M48
; DRILL file {KiCad 9.0.1} date 2026-02-07T11:40:11-0800
; FORMAT={-:-/ absolute / metric / decimal}
; #@! TF.CreationDate,2026-02-07T11:40:11-08:00
; #@! TF.GenerationSoftware,Kicad,Pcbnew,9.0.1
; #@! TF.FileFunction,Plated,1,4,PTH
FMAT,2
METRIC
; #@! TA.AperFunction,Plated,PTH,ComponentDrill
T1C1.000
; #@! TA.AperFunction,Plated,PTH,ComponentDrill
T2C3.200
; #@! TA.AperFunction,Plated,PTH,ComponentDrill
T3C6.400
%
G90
G05
T1
X7.5Y-9.0
X7.5Y-28.0
X7.5Y-47.0
X7.5Y-66.0
X15.0Y-9.0
X15.0Y-28.0
X15.0Y-47.0
X15.0Y-66.0
X27.5Y-65.0
X28.5Y-45.0
X30.5Y-21.0
X35.0Y-65.0
X36.0Y-45.0
X38.0Y-21.0
X57.5Y-21.0
X57.5Y-49.0
X65.0Y-21.0
X65.0Y-49.0
X69.5Y-65.0
X76.5Y-28.0
X77.0Y-47.0
X77.0Y-65.0
X84.0Y-28.0
X84.5Y-47.0
T2
X14.0Y5.0
X87.0Y0.0
T3
X50.0Y-35.0
X50.0Y-63.0
M30
