%TF.GenerationSoftware,KiCad,Pcbnew,10.0.3*%
%TF.CreationDate,2026-07-15T18:08:45-07:00*%
%TF.ProjectId,DCBusCapacitorBoard,44434275-7343-4617-9061-6369746f7242,rev?*%
%TF.SameCoordinates,Original*%
%TF.FileFunction,Legend,Bot*%
%TF.FilePolarity,Positive*%
%FSLAX46Y46*%
G04 Gerber Fmt 4.6, Leading zero omitted, Abs format (unit mm)*
G04 Created by KiCad (PCBNEW 10.0.3) date 2026-07-15 18:08:45*
%MOMM*%
%LPD*%
G01*
G04 APERTURE LIST*
%ADD10C,0.375000*%
%ADD11C,0.200000*%
G04 APERTURE END LIST*
D10*
X260603852Y-11397000D02*
X261746710Y-11397000D01*
X119853852Y-58397000D02*
X120996710Y-58397000D01*
X294603852Y-8897000D02*
X295746710Y-8897000D01*
X122103852Y-397000D02*
X123246710Y-397000D01*
X36853852Y-897000D02*
X37996710Y-897000D01*
X276603852Y-49897000D02*
X277746710Y-49897000D01*
X26603852Y-66397000D02*
X27746710Y-66397000D01*
X73603852Y-18397000D02*
X74746710Y-18397000D01*
X229353852Y-49397000D02*
X230496710Y-49397000D01*
X108603852Y-25897000D02*
X109746710Y-25897000D01*
X220103852Y-33397000D02*
X221246710Y-33397000D01*
X211853852Y-397000D02*
X212996710Y-397000D01*
X19603852Y-48897000D02*
X20746710Y-48897000D01*
X194603852Y-62897000D02*
X195746710Y-62897000D01*
X212103852Y-77897000D02*
X213246710Y-77897000D01*
X276603852Y-31397000D02*
X277746710Y-31397000D01*
X96603852Y-12397000D02*
X97746710Y-12397000D01*
X86603852Y-75897000D02*
X87746710Y-75897000D01*
X78103852Y-58897000D02*
X79246710Y-58897000D01*
X242603852Y-15897000D02*
X243746710Y-15897000D01*
X107353852Y-44397000D02*
X108496710Y-44397000D01*
X67603852Y-77397000D02*
X68746710Y-77397000D01*
X277853852Y-77397000D02*
X278996710Y-77397000D01*
X230603852Y-76897000D02*
X231746710Y-76897000D01*
X127603852Y-18397000D02*
X128746710Y-18397000D01*
X37353852Y-19897000D02*
X38496710Y-19897000D01*
X42103852Y-56397000D02*
X43246710Y-56397000D01*
X173603852Y-897000D02*
X174746710Y-897000D01*
X249603852Y-76897000D02*
X250746710Y-76897000D01*
X223603852Y-14897000D02*
X224746710Y-14897000D01*
X124603852Y-36897000D02*
X125746710Y-36897000D01*
X142103852Y-77397000D02*
X143246710Y-77397000D01*
X46603852Y-76897000D02*
X47746710Y-76897000D01*
X146353852Y-17897000D02*
X147496710Y-17897000D01*
X204103852Y-43397000D02*
X205246710Y-43397000D01*
X189603852Y-31897000D02*
X190746710Y-31897000D01*
X36103852Y-38897000D02*
X37246710Y-38897000D01*
X137103852Y-50397000D02*
X138246710Y-50397000D01*
X123603852Y-76397000D02*
X124746710Y-76397000D01*
X257103852Y-48397000D02*
X258246710Y-48397000D01*
X96353852Y-59897000D02*
X97496710Y-59897000D01*
X82103852Y-397000D02*
X83246710Y-397000D01*
X182603852Y-48897000D02*
X183746710Y-48897000D01*
X206603852Y-20897000D02*
X207746710Y-20897000D01*
X264603852Y-64897000D02*
X265746710Y-64897000D01*
X19603852Y-29897000D02*
X20746710Y-29897000D01*
X90603852Y-29897000D02*
X91746710Y-29897000D01*
X179103852Y-74897000D02*
X180246710Y-74897000D01*
X167103852Y-60397000D02*
X168246710Y-60397000D01*
X160353852Y-77397000D02*
X161496710Y-77397000D01*
X20603852Y-10897000D02*
X21746710Y-10897000D01*
X279103852Y-12897000D02*
X280246710Y-12897000D01*
X187853852Y-12897000D02*
X188996710Y-12897000D01*
X258103852Y-29897000D02*
X259246710Y-29897000D01*
X55353852Y-14497000D02*
X56496710Y-14497000D01*
X164853852Y-17897000D02*
X165996710Y-17897000D01*
X213353852Y-59397000D02*
X214496710Y-59397000D01*
X166103852Y-40897000D02*
X167246710Y-40897000D01*
X105103852Y-77397000D02*
X106246710Y-77397000D01*
X75853852Y-40397000D02*
X76996710Y-40397000D01*
%TO.C,C29*%
D11*
X260000000Y-11500000D02*
G75*
G02*
X242000000Y-11500000I-9000000J0D01*
G01*
X242000000Y-11500000D02*
G75*
G02*
X260000000Y-11500000I9000000J0D01*
G01*
%TO.C,C28*%
X119250000Y-58500000D02*
G75*
G02*
X101250000Y-58500000I-9000000J0D01*
G01*
X101250000Y-58500000D02*
G75*
G02*
X119250000Y-58500000I9000000J0D01*
G01*
%TO.C,C45*%
X296750000Y-10500000D02*
G75*
G02*
X278750000Y-10500000I-9000000J0D01*
G01*
X278750000Y-10500000D02*
G75*
G02*
X296750000Y-10500000I9000000J0D01*
G01*
%TO.C,C25*%
X121500000Y-500000D02*
G75*
G02*
X103500000Y-500000I-9000000J0D01*
G01*
X103500000Y-500000D02*
G75*
G02*
X121500000Y-500000I9000000J0D01*
G01*
%TO.C,C5*%
X36250000Y-1000000D02*
G75*
G02*
X18250000Y-1000000I-9000000J0D01*
G01*
X18250000Y-1000000D02*
G75*
G02*
X36250000Y-1000000I9000000J0D01*
G01*
%TO.C,C59*%
X276000000Y-50000000D02*
G75*
G02*
X258000000Y-50000000I-9000000J0D01*
G01*
X258000000Y-50000000D02*
G75*
G02*
X276000000Y-50000000I9000000J0D01*
G01*
%TO.C,C8*%
X26000000Y-66500000D02*
G75*
G02*
X8000000Y-66500000I-9000000J0D01*
G01*
X8000000Y-66500000D02*
G75*
G02*
X26000000Y-66500000I9000000J0D01*
G01*
%TO.C,C14*%
X73000000Y-18500000D02*
G75*
G02*
X55000000Y-18500000I-9000000J0D01*
G01*
X55000000Y-18500000D02*
G75*
G02*
X73000000Y-18500000I9000000J0D01*
G01*
%TO.C,C51*%
X228750000Y-49500000D02*
G75*
G02*
X210750000Y-49500000I-9000000J0D01*
G01*
X210750000Y-49500000D02*
G75*
G02*
X228750000Y-49500000I9000000J0D01*
G01*
%TO.C,C26*%
X108000000Y-26000000D02*
G75*
G02*
X90000000Y-26000000I-9000000J0D01*
G01*
X90000000Y-26000000D02*
G75*
G02*
X108000000Y-26000000I9000000J0D01*
G01*
%TO.C,C47*%
X219500000Y-33500000D02*
G75*
G02*
X201500000Y-33500000I-9000000J0D01*
G01*
X201500000Y-33500000D02*
G75*
G02*
X219500000Y-33500000I9000000J0D01*
G01*
%TO.C,C46*%
X211250000Y-500000D02*
G75*
G02*
X193250000Y-500000I-9000000J0D01*
G01*
X193250000Y-500000D02*
G75*
G02*
X211250000Y-500000I9000000J0D01*
G01*
%TO.C,C4*%
X19000000Y-49000000D02*
G75*
G02*
X1000000Y-49000000I-9000000J0D01*
G01*
X1000000Y-49000000D02*
G75*
G02*
X19000000Y-49000000I9000000J0D01*
G01*
%TO.C,C32*%
X194000000Y-63000000D02*
G75*
G02*
X176000000Y-63000000I-9000000J0D01*
G01*
X176000000Y-63000000D02*
G75*
G02*
X194000000Y-63000000I9000000J0D01*
G01*
%TO.C,C48*%
X211500000Y-78000000D02*
G75*
G02*
X193500000Y-78000000I-9000000J0D01*
G01*
X193500000Y-78000000D02*
G75*
G02*
X211500000Y-78000000I9000000J0D01*
G01*
%TO.C,C58*%
X276000000Y-31500000D02*
G75*
G02*
X258000000Y-31500000I-9000000J0D01*
G01*
X258000000Y-31500000D02*
G75*
G02*
X276000000Y-31500000I9000000J0D01*
G01*
%TO.C,C19*%
X96000000Y-12500000D02*
G75*
G02*
X78000000Y-12500000I-9000000J0D01*
G01*
X78000000Y-12500000D02*
G75*
G02*
X96000000Y-12500000I9000000J0D01*
G01*
%TO.C,C21*%
X86000000Y-76000000D02*
G75*
G02*
X68000000Y-76000000I-9000000J0D01*
G01*
X68000000Y-76000000D02*
G75*
G02*
X86000000Y-76000000I9000000J0D01*
G01*
%TO.C,C12*%
X77500000Y-59000000D02*
G75*
G02*
X59500000Y-59000000I-9000000J0D01*
G01*
X59500000Y-59000000D02*
G75*
G02*
X77500000Y-59000000I9000000J0D01*
G01*
%TO.C,C49*%
X242000000Y-16000000D02*
G75*
G02*
X224000000Y-16000000I-9000000J0D01*
G01*
X224000000Y-16000000D02*
G75*
G02*
X242000000Y-16000000I9000000J0D01*
G01*
%TO.C,C27*%
X106750000Y-44500000D02*
G75*
G02*
X88750000Y-44500000I-9000000J0D01*
G01*
X88750000Y-44500000D02*
G75*
G02*
X106750000Y-44500000I9000000J0D01*
G01*
%TO.C,C13*%
X67000000Y-77500000D02*
G75*
G02*
X49000000Y-77500000I-9000000J0D01*
G01*
X49000000Y-77500000D02*
G75*
G02*
X67000000Y-77500000I9000000J0D01*
G01*
%TO.C,C60*%
X277250000Y-77500000D02*
G75*
G02*
X259250000Y-77500000I-9000000J0D01*
G01*
X259250000Y-77500000D02*
G75*
G02*
X277250000Y-77500000I9000000J0D01*
G01*
%TO.C,C52*%
X230000000Y-77000000D02*
G75*
G02*
X212000000Y-77000000I-9000000J0D01*
G01*
X212000000Y-77000000D02*
G75*
G02*
X230000000Y-77000000I9000000J0D01*
G01*
%TO.C,C35*%
X127000000Y-18500000D02*
G75*
G02*
X109000000Y-18500000I-9000000J0D01*
G01*
X109000000Y-18500000D02*
G75*
G02*
X127000000Y-18500000I9000000J0D01*
G01*
%TO.C,C6*%
X36750000Y-20000000D02*
G75*
G02*
X18750000Y-20000000I-9000000J0D01*
G01*
X18750000Y-20000000D02*
G75*
G02*
X36750000Y-20000000I9000000J0D01*
G01*
%TO.C,C10*%
X41500000Y-56500000D02*
G75*
G02*
X23500000Y-56500000I-9000000J0D01*
G01*
X23500000Y-56500000D02*
G75*
G02*
X41500000Y-56500000I9000000J0D01*
G01*
%TO.C,C17*%
X173000000Y-1000000D02*
G75*
G02*
X155000000Y-1000000I-9000000J0D01*
G01*
X155000000Y-1000000D02*
G75*
G02*
X173000000Y-1000000I9000000J0D01*
G01*
%TO.C,C56*%
X249000000Y-77000000D02*
G75*
G02*
X231000000Y-77000000I-9000000J0D01*
G01*
X231000000Y-77000000D02*
G75*
G02*
X249000000Y-77000000I9000000J0D01*
G01*
%TO.C,C41*%
X223000000Y-15000000D02*
G75*
G02*
X205000000Y-15000000I-9000000J0D01*
G01*
X205000000Y-15000000D02*
G75*
G02*
X223000000Y-15000000I9000000J0D01*
G01*
%TO.C,C36*%
X124000000Y-37000000D02*
G75*
G02*
X106000000Y-37000000I-9000000J0D01*
G01*
X106000000Y-37000000D02*
G75*
G02*
X124000000Y-37000000I9000000J0D01*
G01*
%TO.C,C50*%
X141500000Y-77500000D02*
G75*
G02*
X123500000Y-77500000I-9000000J0D01*
G01*
X123500000Y-77500000D02*
G75*
G02*
X141500000Y-77500000I9000000J0D01*
G01*
%TO.C,C16*%
X46000000Y-77000000D02*
G75*
G02*
X28000000Y-77000000I-9000000J0D01*
G01*
X28000000Y-77000000D02*
G75*
G02*
X46000000Y-77000000I9000000J0D01*
G01*
%TO.C,C34*%
X145750000Y-18000000D02*
G75*
G02*
X127750000Y-18000000I-9000000J0D01*
G01*
X127750000Y-18000000D02*
G75*
G02*
X145750000Y-18000000I9000000J0D01*
G01*
%TO.C,C38*%
X203500000Y-43500000D02*
G75*
G02*
X185500000Y-43500000I-9000000J0D01*
G01*
X185500000Y-43500000D02*
G75*
G02*
X203500000Y-43500000I9000000J0D01*
G01*
%TO.C,C30*%
X189000000Y-32000000D02*
G75*
G02*
X171000000Y-32000000I-9000000J0D01*
G01*
X171000000Y-32000000D02*
G75*
G02*
X189000000Y-32000000I9000000J0D01*
G01*
%TO.C,C7*%
X35500000Y-39000000D02*
G75*
G02*
X17500000Y-39000000I-9000000J0D01*
G01*
X17500000Y-39000000D02*
G75*
G02*
X35500000Y-39000000I9000000J0D01*
G01*
%TO.C,C23*%
X136500000Y-50500000D02*
G75*
G02*
X118500000Y-50500000I-9000000J0D01*
G01*
X118500000Y-50500000D02*
G75*
G02*
X136500000Y-50500000I9000000J0D01*
G01*
%TO.C,C24*%
X123000000Y-76500000D02*
G75*
G02*
X105000000Y-76500000I-9000000J0D01*
G01*
X105000000Y-76500000D02*
G75*
G02*
X123000000Y-76500000I9000000J0D01*
G01*
%TO.C,C54*%
X256500000Y-48500000D02*
G75*
G02*
X238500000Y-48500000I-9000000J0D01*
G01*
X238500000Y-48500000D02*
G75*
G02*
X256500000Y-48500000I9000000J0D01*
G01*
%TO.C,C20*%
X95750000Y-60000000D02*
G75*
G02*
X77750000Y-60000000I-9000000J0D01*
G01*
X77750000Y-60000000D02*
G75*
G02*
X95750000Y-60000000I9000000J0D01*
G01*
%TO.C,C18*%
X81500000Y-500000D02*
G75*
G02*
X63500000Y-500000I-9000000J0D01*
G01*
X63500000Y-500000D02*
G75*
G02*
X81500000Y-500000I9000000J0D01*
G01*
%TO.C,C31*%
X182000000Y-49000000D02*
G75*
G02*
X164000000Y-49000000I-9000000J0D01*
G01*
X164000000Y-49000000D02*
G75*
G02*
X182000000Y-49000000I9000000J0D01*
G01*
%TO.C,C37*%
X206000000Y-21000000D02*
G75*
G02*
X188000000Y-21000000I-9000000J0D01*
G01*
X188000000Y-21000000D02*
G75*
G02*
X206000000Y-21000000I9000000J0D01*
G01*
%TO.C,C55*%
X264000000Y-65000000D02*
G75*
G02*
X246000000Y-65000000I-9000000J0D01*
G01*
X246000000Y-65000000D02*
G75*
G02*
X264000000Y-65000000I9000000J0D01*
G01*
%TO.C,C3*%
X19000000Y-30000000D02*
G75*
G02*
X1000000Y-30000000I-9000000J0D01*
G01*
X1000000Y-30000000D02*
G75*
G02*
X19000000Y-30000000I9000000J0D01*
G01*
%TO.C,C1*%
X90000000Y-30000000D02*
G75*
G02*
X72000000Y-30000000I-9000000J0D01*
G01*
X72000000Y-30000000D02*
G75*
G02*
X90000000Y-30000000I9000000J0D01*
G01*
%TO.C,C40*%
X178500000Y-75000000D02*
G75*
G02*
X160500000Y-75000000I-9000000J0D01*
G01*
X160500000Y-75000000D02*
G75*
G02*
X178500000Y-75000000I9000000J0D01*
G01*
%TO.C,C43*%
X166500000Y-60500000D02*
G75*
G02*
X148500000Y-60500000I-9000000J0D01*
G01*
X148500000Y-60500000D02*
G75*
G02*
X166500000Y-60500000I9000000J0D01*
G01*
%TO.C,C44*%
X159750000Y-77500000D02*
G75*
G02*
X141750000Y-77500000I-9000000J0D01*
G01*
X141750000Y-77500000D02*
G75*
G02*
X159750000Y-77500000I9000000J0D01*
G01*
%TO.C,C2*%
X20000000Y-11000000D02*
G75*
G02*
X2000000Y-11000000I-9000000J0D01*
G01*
X2000000Y-11000000D02*
G75*
G02*
X20000000Y-11000000I9000000J0D01*
G01*
%TO.C,C57*%
X278500000Y-13000000D02*
G75*
G02*
X260500000Y-13000000I-9000000J0D01*
G01*
X260500000Y-13000000D02*
G75*
G02*
X278500000Y-13000000I9000000J0D01*
G01*
%TO.C,C33*%
X187250000Y-13000000D02*
G75*
G02*
X169250000Y-13000000I-9000000J0D01*
G01*
X169250000Y-13000000D02*
G75*
G02*
X187250000Y-13000000I9000000J0D01*
G01*
%TO.C,C53*%
X257500000Y-30000000D02*
G75*
G02*
X239500000Y-30000000I-9000000J0D01*
G01*
X239500000Y-30000000D02*
G75*
G02*
X257500000Y-30000000I9000000J0D01*
G01*
%TO.C,C9*%
X54750000Y-14600000D02*
G75*
G02*
X36750000Y-14600000I-9000000J0D01*
G01*
X36750000Y-14600000D02*
G75*
G02*
X54750000Y-14600000I9000000J0D01*
G01*
%TO.C,C22*%
X164250000Y-18000000D02*
G75*
G02*
X146250000Y-18000000I-9000000J0D01*
G01*
X146250000Y-18000000D02*
G75*
G02*
X164250000Y-18000000I9000000J0D01*
G01*
%TO.C,C39*%
X212750000Y-59500000D02*
G75*
G02*
X194750000Y-59500000I-9000000J0D01*
G01*
X194750000Y-59500000D02*
G75*
G02*
X212750000Y-59500000I9000000J0D01*
G01*
%TO.C,C42*%
X165500000Y-41000000D02*
G75*
G02*
X147500000Y-41000000I-9000000J0D01*
G01*
X147500000Y-41000000D02*
G75*
G02*
X165500000Y-41000000I9000000J0D01*
G01*
%TO.C,C15*%
X104500000Y-77500000D02*
G75*
G02*
X86500000Y-77500000I-9000000J0D01*
G01*
X86500000Y-77500000D02*
G75*
G02*
X104500000Y-77500000I9000000J0D01*
G01*
%TO.C,C11*%
X75250000Y-40500000D02*
G75*
G02*
X57250000Y-40500000I-9000000J0D01*
G01*
X57250000Y-40500000D02*
G75*
G02*
X75250000Y-40500000I9000000J0D01*
G01*
%TD*%
M02*
