M48
; DRILL file KiCad 10.0.3 date 2026-07-17T02:59:07
; FORMAT={-:-/ absolute / metric / decimal}
; #@! TF.CreationDate,2026-07-17T02:59:07-07:00
; #@! TF.GenerationSoftware,Kicad,Pcbnew,10.0.3
; #@! TF.FileFunction,MixedPlating,1,2
FMAT,2
METRIC
; #@! TA.AperFunction,Plated,PTH,ComponentDrill
T1C1.000
; #@! TA.AperFunction,Plated,PTH,ComponentDrill
T2C6.000
; #@! TA.AperFunction,Plated,PTH,ComponentDrill
T3C6.400
%
G90
G05
T1
X6.25Y-30.0
X6.25Y-49.0
X7.25Y-11.0
X13.25Y-66.5
X13.75Y-30.0
X13.75Y-49.0
X14.75Y-11.0
X20.75Y-66.5
X22.75Y-39.0
X23.5Y-1.0
X24.0Y-20.0
X28.75Y-56.5
X30.25Y-39.0
X31.0Y-1.0
X31.5Y-20.0
X33.25Y-77.0
X36.25Y-56.5
X40.75Y-77.0
X42.0Y-14.6
X49.5Y-14.6
X54.25Y-77.5
X60.25Y-18.5
X61.75Y-77.5
X62.5Y-40.5
X64.75Y-59.0
X67.75Y-18.5
X68.75Y-0.5
X70.0Y-40.5
X72.25Y-59.0
X73.25Y-76.0
X76.25Y-0.5
X77.25Y-30.0
X80.75Y-76.0
X83.0Y-60.0
X83.25Y-12.5
X84.75Y-30.0
X90.5Y-60.0
X90.75Y-12.5
X91.75Y-77.5
X94.0Y-44.5
X95.25Y-26.0
X99.25Y-77.5
X101.5Y-44.5
X102.75Y-26.0
X106.5Y-58.5
X108.75Y-0.5
X110.25Y-76.5
X111.25Y-37.0
X114.0Y-58.5
X114.25Y-18.5
X116.25Y-0.5
X117.75Y-76.5
X118.75Y-37.0
X121.75Y-18.5
X123.75Y-50.5
X128.75Y-77.5
X131.25Y-50.5
X133.0Y-18.0
X136.25Y-77.5
X140.5Y-18.0
X147.0Y-77.5
X151.5Y-18.0
X152.75Y-41.0
X153.75Y-60.5
X154.5Y-77.5
X159.0Y-18.0
X160.25Y-1.0
X160.25Y-41.0
X161.25Y-60.5
X165.75Y-75.0
X167.75Y-1.0
X169.25Y-49.0
X173.25Y-75.0
X174.5Y-13.0
X176.25Y-32.0
X176.75Y-49.0
X181.25Y-63.0
X182.0Y-13.0
X183.75Y-32.0
X188.75Y-63.0
X190.75Y-43.5
X193.25Y-21.0
X198.25Y-43.5
X198.5Y-0.5
X198.75Y-78.0
X200.0Y-59.5
X200.75Y-21.0
X206.0Y-0.5
X206.25Y-78.0
X206.75Y-33.5
X207.5Y-59.5
X210.25Y-15.0
X214.25Y-33.5
X216.0Y-49.5
X217.25Y-77.0
X217.75Y-15.0
X223.5Y-49.5
X224.75Y-77.0
X229.25Y-16.0
X236.25Y-77.0
X236.75Y-16.0
X243.75Y-48.5
X243.75Y-77.0
X244.75Y-30.0
X247.25Y-11.5
X251.25Y-48.5
X251.25Y-65.0
X252.25Y-30.0
X254.75Y-11.5
X258.75Y-65.0
X263.25Y-31.5
X263.25Y-50.0
X264.5Y-77.5
X265.75Y-13.0
X270.75Y-31.5
X270.75Y-50.0
X272.0Y-77.5
X273.25Y-13.0
X284.0Y-10.5
X291.5Y-10.5
T2
X12.0Y2.0
X22.0Y-81.0
X82.5Y-45.0
X103.0Y-13.0
X165.0Y-29.0
X249.0Y3.0
X254.0Y-79.0
X269.0Y-64.0
T3
X6.0Y-81.0
X50.0Y-35.0
X50.0Y-63.0
X95.0Y3.0
X140.0Y-35.0
X140.0Y-63.0
X185.0Y3.0
X185.0Y-81.0
X230.0Y-35.0
X230.0Y-63.0
X275.0Y3.0
X285.0Y-81.0
M30
