%TF.GenerationSoftware,KiCad,Pcbnew,10.0.3*%
%TF.CreationDate,2026-08-29T23:35:58-07:00*%
%TF.ProjectId,DCBusCapacitorBoard,44434275-7343-4617-9061-6369746f7242,rev?*%
%TF.SameCoordinates,Original*%
%TF.FileFunction,AssemblyDrawing,Top*%
%FSLAX46Y46*%
G04 Gerber Fmt 4.6, Leading zero omitted, Abs format (unit mm)*
G04 Created by KiCad (PCBNEW 10.0.3) date 2026-08-29 23:35:58*
%MOMM*%
%LPD*%
G01*
G04 APERTURE LIST*
%ADD10C,0.150000*%
%ADD11C,0.254000*%
%ADD12C,0.100000*%
G04 APERTURE END LIST*
D10*
X278428571Y-87404819D02*
X278428571Y-86404819D01*
X278428571Y-86404819D02*
X278761904Y-87119104D01*
X278761904Y-87119104D02*
X279095237Y-86404819D01*
X279095237Y-86404819D02*
X279095237Y-87404819D01*
X279714285Y-87404819D02*
X279619047Y-87357200D01*
X279619047Y-87357200D02*
X279571428Y-87309580D01*
X279571428Y-87309580D02*
X279523809Y-87214342D01*
X279523809Y-87214342D02*
X279523809Y-86928628D01*
X279523809Y-86928628D02*
X279571428Y-86833390D01*
X279571428Y-86833390D02*
X279619047Y-86785771D01*
X279619047Y-86785771D02*
X279714285Y-86738152D01*
X279714285Y-86738152D02*
X279857142Y-86738152D01*
X279857142Y-86738152D02*
X279952380Y-86785771D01*
X279952380Y-86785771D02*
X279999999Y-86833390D01*
X279999999Y-86833390D02*
X280047618Y-86928628D01*
X280047618Y-86928628D02*
X280047618Y-87214342D01*
X280047618Y-87214342D02*
X279999999Y-87309580D01*
X279999999Y-87309580D02*
X279952380Y-87357200D01*
X279952380Y-87357200D02*
X279857142Y-87404819D01*
X279857142Y-87404819D02*
X279714285Y-87404819D01*
X280904761Y-86738152D02*
X280904761Y-87404819D01*
X280476190Y-86738152D02*
X280476190Y-87261961D01*
X280476190Y-87261961D02*
X280523809Y-87357200D01*
X280523809Y-87357200D02*
X280619047Y-87404819D01*
X280619047Y-87404819D02*
X280761904Y-87404819D01*
X280761904Y-87404819D02*
X280857142Y-87357200D01*
X280857142Y-87357200D02*
X280904761Y-87309580D01*
X281380952Y-86738152D02*
X281380952Y-87404819D01*
X281380952Y-86833390D02*
X281428571Y-86785771D01*
X281428571Y-86785771D02*
X281523809Y-86738152D01*
X281523809Y-86738152D02*
X281666666Y-86738152D01*
X281666666Y-86738152D02*
X281761904Y-86785771D01*
X281761904Y-86785771D02*
X281809523Y-86881009D01*
X281809523Y-86881009D02*
X281809523Y-87404819D01*
X282142857Y-86738152D02*
X282523809Y-86738152D01*
X282285714Y-86404819D02*
X282285714Y-87261961D01*
X282285714Y-87261961D02*
X282333333Y-87357200D01*
X282333333Y-87357200D02*
X282428571Y-87404819D01*
X282428571Y-87404819D02*
X282523809Y-87404819D01*
X282857143Y-87404819D02*
X282857143Y-86738152D01*
X282857143Y-86404819D02*
X282809524Y-86452438D01*
X282809524Y-86452438D02*
X282857143Y-86500057D01*
X282857143Y-86500057D02*
X282904762Y-86452438D01*
X282904762Y-86452438D02*
X282857143Y-86404819D01*
X282857143Y-86404819D02*
X282857143Y-86500057D01*
X283333333Y-86738152D02*
X283333333Y-87404819D01*
X283333333Y-86833390D02*
X283380952Y-86785771D01*
X283380952Y-86785771D02*
X283476190Y-86738152D01*
X283476190Y-86738152D02*
X283619047Y-86738152D01*
X283619047Y-86738152D02*
X283714285Y-86785771D01*
X283714285Y-86785771D02*
X283761904Y-86881009D01*
X283761904Y-86881009D02*
X283761904Y-87404819D01*
X284666666Y-86738152D02*
X284666666Y-87547676D01*
X284666666Y-87547676D02*
X284619047Y-87642914D01*
X284619047Y-87642914D02*
X284571428Y-87690533D01*
X284571428Y-87690533D02*
X284476190Y-87738152D01*
X284476190Y-87738152D02*
X284333333Y-87738152D01*
X284333333Y-87738152D02*
X284238095Y-87690533D01*
X284666666Y-87357200D02*
X284571428Y-87404819D01*
X284571428Y-87404819D02*
X284380952Y-87404819D01*
X284380952Y-87404819D02*
X284285714Y-87357200D01*
X284285714Y-87357200D02*
X284238095Y-87309580D01*
X284238095Y-87309580D02*
X284190476Y-87214342D01*
X284190476Y-87214342D02*
X284190476Y-86928628D01*
X284190476Y-86928628D02*
X284238095Y-86833390D01*
X284238095Y-86833390D02*
X284285714Y-86785771D01*
X284285714Y-86785771D02*
X284380952Y-86738152D01*
X284380952Y-86738152D02*
X284571428Y-86738152D01*
X284571428Y-86738152D02*
X284666666Y-86785771D01*
X285142857Y-87404819D02*
X285142857Y-86404819D01*
X285142857Y-86881009D02*
X285714285Y-86881009D01*
X285714285Y-87404819D02*
X285714285Y-86404819D01*
X286333333Y-87404819D02*
X286238095Y-87357200D01*
X286238095Y-87357200D02*
X286190476Y-87309580D01*
X286190476Y-87309580D02*
X286142857Y-87214342D01*
X286142857Y-87214342D02*
X286142857Y-86928628D01*
X286142857Y-86928628D02*
X286190476Y-86833390D01*
X286190476Y-86833390D02*
X286238095Y-86785771D01*
X286238095Y-86785771D02*
X286333333Y-86738152D01*
X286333333Y-86738152D02*
X286476190Y-86738152D01*
X286476190Y-86738152D02*
X286571428Y-86785771D01*
X286571428Y-86785771D02*
X286619047Y-86833390D01*
X286619047Y-86833390D02*
X286666666Y-86928628D01*
X286666666Y-86928628D02*
X286666666Y-87214342D01*
X286666666Y-87214342D02*
X286619047Y-87309580D01*
X286619047Y-87309580D02*
X286571428Y-87357200D01*
X286571428Y-87357200D02*
X286476190Y-87404819D01*
X286476190Y-87404819D02*
X286333333Y-87404819D01*
X287238095Y-87404819D02*
X287142857Y-87357200D01*
X287142857Y-87357200D02*
X287095238Y-87261961D01*
X287095238Y-87261961D02*
X287095238Y-86404819D01*
X288000000Y-87357200D02*
X287904762Y-87404819D01*
X287904762Y-87404819D02*
X287714286Y-87404819D01*
X287714286Y-87404819D02*
X287619048Y-87357200D01*
X287619048Y-87357200D02*
X287571429Y-87261961D01*
X287571429Y-87261961D02*
X287571429Y-86881009D01*
X287571429Y-86881009D02*
X287619048Y-86785771D01*
X287619048Y-86785771D02*
X287714286Y-86738152D01*
X287714286Y-86738152D02*
X287904762Y-86738152D01*
X287904762Y-86738152D02*
X288000000Y-86785771D01*
X288000000Y-86785771D02*
X288047619Y-86881009D01*
X288047619Y-86881009D02*
X288047619Y-86976247D01*
X288047619Y-86976247D02*
X287571429Y-87071485D01*
X288238096Y-87500057D02*
X289000000Y-87500057D01*
X289238096Y-87404819D02*
X289238096Y-86404819D01*
X289238096Y-86404819D02*
X289619048Y-86404819D01*
X289619048Y-86404819D02*
X289714286Y-86452438D01*
X289714286Y-86452438D02*
X289761905Y-86500057D01*
X289761905Y-86500057D02*
X289809524Y-86595295D01*
X289809524Y-86595295D02*
X289809524Y-86738152D01*
X289809524Y-86738152D02*
X289761905Y-86833390D01*
X289761905Y-86833390D02*
X289714286Y-86881009D01*
X289714286Y-86881009D02*
X289619048Y-86928628D01*
X289619048Y-86928628D02*
X289238096Y-86928628D01*
X290666667Y-87404819D02*
X290666667Y-86881009D01*
X290666667Y-86881009D02*
X290619048Y-86785771D01*
X290619048Y-86785771D02*
X290523810Y-86738152D01*
X290523810Y-86738152D02*
X290333334Y-86738152D01*
X290333334Y-86738152D02*
X290238096Y-86785771D01*
X290666667Y-87357200D02*
X290571429Y-87404819D01*
X290571429Y-87404819D02*
X290333334Y-87404819D01*
X290333334Y-87404819D02*
X290238096Y-87357200D01*
X290238096Y-87357200D02*
X290190477Y-87261961D01*
X290190477Y-87261961D02*
X290190477Y-87166723D01*
X290190477Y-87166723D02*
X290238096Y-87071485D01*
X290238096Y-87071485D02*
X290333334Y-87023866D01*
X290333334Y-87023866D02*
X290571429Y-87023866D01*
X290571429Y-87023866D02*
X290666667Y-86976247D01*
X291571429Y-87404819D02*
X291571429Y-86404819D01*
X291571429Y-87357200D02*
X291476191Y-87404819D01*
X291476191Y-87404819D02*
X291285715Y-87404819D01*
X291285715Y-87404819D02*
X291190477Y-87357200D01*
X291190477Y-87357200D02*
X291142858Y-87309580D01*
X291142858Y-87309580D02*
X291095239Y-87214342D01*
X291095239Y-87214342D02*
X291095239Y-86928628D01*
X291095239Y-86928628D02*
X291142858Y-86833390D01*
X291142858Y-86833390D02*
X291190477Y-86785771D01*
X291190477Y-86785771D02*
X291285715Y-86738152D01*
X291285715Y-86738152D02*
X291476191Y-86738152D01*
X291476191Y-86738152D02*
X291571429Y-86785771D01*
X283761905Y-81454819D02*
X283761905Y-80454819D01*
X283761905Y-80931009D02*
X284333333Y-80931009D01*
X284333333Y-81454819D02*
X284333333Y-80454819D01*
X285333333Y-81454819D02*
X284761905Y-81454819D01*
X285047619Y-81454819D02*
X285047619Y-80454819D01*
X285047619Y-80454819D02*
X284952381Y-80597676D01*
X284952381Y-80597676D02*
X284857143Y-80692914D01*
X284857143Y-80692914D02*
X284761905Y-80740533D01*
X286285714Y-81454819D02*
X285714286Y-81454819D01*
X286000000Y-81454819D02*
X286000000Y-80454819D01*
X286000000Y-80454819D02*
X285904762Y-80597676D01*
X285904762Y-80597676D02*
X285809524Y-80692914D01*
X285809524Y-80692914D02*
X285714286Y-80740533D01*
D11*
X252427618Y-79574318D02*
X252427618Y-78304318D01*
X252427618Y-78909080D02*
X253153333Y-78909080D01*
X253153333Y-79574318D02*
X253153333Y-78304318D01*
X254423333Y-79574318D02*
X253697618Y-79574318D01*
X254060475Y-79574318D02*
X254060475Y-78304318D01*
X254060475Y-78304318D02*
X253939523Y-78485746D01*
X253939523Y-78485746D02*
X253818571Y-78606699D01*
X253818571Y-78606699D02*
X253697618Y-78667175D01*
X255028095Y-79574318D02*
X255269999Y-79574318D01*
X255269999Y-79574318D02*
X255390952Y-79513842D01*
X255390952Y-79513842D02*
X255451428Y-79453365D01*
X255451428Y-79453365D02*
X255572380Y-79271937D01*
X255572380Y-79271937D02*
X255632857Y-79030032D01*
X255632857Y-79030032D02*
X255632857Y-78546222D01*
X255632857Y-78546222D02*
X255572380Y-78425270D01*
X255572380Y-78425270D02*
X255511904Y-78364794D01*
X255511904Y-78364794D02*
X255390952Y-78304318D01*
X255390952Y-78304318D02*
X255149047Y-78304318D01*
X255149047Y-78304318D02*
X255028095Y-78364794D01*
X255028095Y-78364794D02*
X254967618Y-78425270D01*
X254967618Y-78425270D02*
X254907142Y-78546222D01*
X254907142Y-78546222D02*
X254907142Y-78848603D01*
X254907142Y-78848603D02*
X254967618Y-78969556D01*
X254967618Y-78969556D02*
X255028095Y-79030032D01*
X255028095Y-79030032D02*
X255149047Y-79090508D01*
X255149047Y-79090508D02*
X255390952Y-79090508D01*
X255390952Y-79090508D02*
X255511904Y-79030032D01*
X255511904Y-79030032D02*
X255572380Y-78969556D01*
X255572380Y-78969556D02*
X255632857Y-78848603D01*
X247427618Y2425681D02*
X247427618Y3695681D01*
X247427618Y3090919D02*
X248153333Y3090919D01*
X248153333Y2425681D02*
X248153333Y3695681D01*
X249423333Y2425681D02*
X248697618Y2425681D01*
X249060475Y2425681D02*
X249060475Y3695681D01*
X249060475Y3695681D02*
X248939523Y3514253D01*
X248939523Y3514253D02*
X248818571Y3393300D01*
X248818571Y3393300D02*
X248697618Y3332824D01*
X250511904Y3272348D02*
X250511904Y2425681D01*
X250209523Y3756158D02*
X249907142Y2849015D01*
X249907142Y2849015D02*
X250693333Y2849015D01*
X101427618Y-13574318D02*
X101427618Y-12304318D01*
X101427618Y-12909080D02*
X102153333Y-12909080D01*
X102153333Y-13574318D02*
X102153333Y-12304318D01*
X103423333Y-13574318D02*
X102697618Y-13574318D01*
X103060475Y-13574318D02*
X103060475Y-12304318D01*
X103060475Y-12304318D02*
X102939523Y-12485746D01*
X102939523Y-12485746D02*
X102818571Y-12606699D01*
X102818571Y-12606699D02*
X102697618Y-12667175D01*
X104572380Y-12304318D02*
X103967618Y-12304318D01*
X103967618Y-12304318D02*
X103907142Y-12909080D01*
X103907142Y-12909080D02*
X103967618Y-12848603D01*
X103967618Y-12848603D02*
X104088571Y-12788127D01*
X104088571Y-12788127D02*
X104390952Y-12788127D01*
X104390952Y-12788127D02*
X104511904Y-12848603D01*
X104511904Y-12848603D02*
X104572380Y-12909080D01*
X104572380Y-12909080D02*
X104632857Y-13030032D01*
X104632857Y-13030032D02*
X104632857Y-13332413D01*
X104632857Y-13332413D02*
X104572380Y-13453365D01*
X104572380Y-13453365D02*
X104511904Y-13513842D01*
X104511904Y-13513842D02*
X104390952Y-13574318D01*
X104390952Y-13574318D02*
X104088571Y-13574318D01*
X104088571Y-13574318D02*
X103967618Y-13513842D01*
X103967618Y-13513842D02*
X103907142Y-13453365D01*
X267427618Y-64574318D02*
X267427618Y-63304318D01*
X267427618Y-63909080D02*
X268153333Y-63909080D01*
X268153333Y-64574318D02*
X268153333Y-63304318D01*
X269423333Y-64574318D02*
X268697618Y-64574318D01*
X269060475Y-64574318D02*
X269060475Y-63304318D01*
X269060475Y-63304318D02*
X268939523Y-63485746D01*
X268939523Y-63485746D02*
X268818571Y-63606699D01*
X268818571Y-63606699D02*
X268697618Y-63667175D01*
X270511904Y-63304318D02*
X270269999Y-63304318D01*
X270269999Y-63304318D02*
X270149047Y-63364794D01*
X270149047Y-63364794D02*
X270088571Y-63425270D01*
X270088571Y-63425270D02*
X269967618Y-63606699D01*
X269967618Y-63606699D02*
X269907142Y-63848603D01*
X269907142Y-63848603D02*
X269907142Y-64332413D01*
X269907142Y-64332413D02*
X269967618Y-64453365D01*
X269967618Y-64453365D02*
X270028095Y-64513842D01*
X270028095Y-64513842D02*
X270149047Y-64574318D01*
X270149047Y-64574318D02*
X270390952Y-64574318D01*
X270390952Y-64574318D02*
X270511904Y-64513842D01*
X270511904Y-64513842D02*
X270572380Y-64453365D01*
X270572380Y-64453365D02*
X270632857Y-64332413D01*
X270632857Y-64332413D02*
X270632857Y-64030032D01*
X270632857Y-64030032D02*
X270572380Y-63909080D01*
X270572380Y-63909080D02*
X270511904Y-63848603D01*
X270511904Y-63848603D02*
X270390952Y-63788127D01*
X270390952Y-63788127D02*
X270149047Y-63788127D01*
X270149047Y-63788127D02*
X270028095Y-63848603D01*
X270028095Y-63848603D02*
X269967618Y-63909080D01*
X269967618Y-63909080D02*
X269907142Y-64030032D01*
D10*
X133428571Y-41404819D02*
X133428571Y-40404819D01*
X133428571Y-40404819D02*
X133761904Y-41119104D01*
X133761904Y-41119104D02*
X134095237Y-40404819D01*
X134095237Y-40404819D02*
X134095237Y-41404819D01*
X134714285Y-41404819D02*
X134619047Y-41357200D01*
X134619047Y-41357200D02*
X134571428Y-41309580D01*
X134571428Y-41309580D02*
X134523809Y-41214342D01*
X134523809Y-41214342D02*
X134523809Y-40928628D01*
X134523809Y-40928628D02*
X134571428Y-40833390D01*
X134571428Y-40833390D02*
X134619047Y-40785771D01*
X134619047Y-40785771D02*
X134714285Y-40738152D01*
X134714285Y-40738152D02*
X134857142Y-40738152D01*
X134857142Y-40738152D02*
X134952380Y-40785771D01*
X134952380Y-40785771D02*
X134999999Y-40833390D01*
X134999999Y-40833390D02*
X135047618Y-40928628D01*
X135047618Y-40928628D02*
X135047618Y-41214342D01*
X135047618Y-41214342D02*
X134999999Y-41309580D01*
X134999999Y-41309580D02*
X134952380Y-41357200D01*
X134952380Y-41357200D02*
X134857142Y-41404819D01*
X134857142Y-41404819D02*
X134714285Y-41404819D01*
X135904761Y-40738152D02*
X135904761Y-41404819D01*
X135476190Y-40738152D02*
X135476190Y-41261961D01*
X135476190Y-41261961D02*
X135523809Y-41357200D01*
X135523809Y-41357200D02*
X135619047Y-41404819D01*
X135619047Y-41404819D02*
X135761904Y-41404819D01*
X135761904Y-41404819D02*
X135857142Y-41357200D01*
X135857142Y-41357200D02*
X135904761Y-41309580D01*
X136380952Y-40738152D02*
X136380952Y-41404819D01*
X136380952Y-40833390D02*
X136428571Y-40785771D01*
X136428571Y-40785771D02*
X136523809Y-40738152D01*
X136523809Y-40738152D02*
X136666666Y-40738152D01*
X136666666Y-40738152D02*
X136761904Y-40785771D01*
X136761904Y-40785771D02*
X136809523Y-40881009D01*
X136809523Y-40881009D02*
X136809523Y-41404819D01*
X137142857Y-40738152D02*
X137523809Y-40738152D01*
X137285714Y-40404819D02*
X137285714Y-41261961D01*
X137285714Y-41261961D02*
X137333333Y-41357200D01*
X137333333Y-41357200D02*
X137428571Y-41404819D01*
X137428571Y-41404819D02*
X137523809Y-41404819D01*
X137857143Y-41404819D02*
X137857143Y-40738152D01*
X137857143Y-40404819D02*
X137809524Y-40452438D01*
X137809524Y-40452438D02*
X137857143Y-40500057D01*
X137857143Y-40500057D02*
X137904762Y-40452438D01*
X137904762Y-40452438D02*
X137857143Y-40404819D01*
X137857143Y-40404819D02*
X137857143Y-40500057D01*
X138333333Y-40738152D02*
X138333333Y-41404819D01*
X138333333Y-40833390D02*
X138380952Y-40785771D01*
X138380952Y-40785771D02*
X138476190Y-40738152D01*
X138476190Y-40738152D02*
X138619047Y-40738152D01*
X138619047Y-40738152D02*
X138714285Y-40785771D01*
X138714285Y-40785771D02*
X138761904Y-40881009D01*
X138761904Y-40881009D02*
X138761904Y-41404819D01*
X139666666Y-40738152D02*
X139666666Y-41547676D01*
X139666666Y-41547676D02*
X139619047Y-41642914D01*
X139619047Y-41642914D02*
X139571428Y-41690533D01*
X139571428Y-41690533D02*
X139476190Y-41738152D01*
X139476190Y-41738152D02*
X139333333Y-41738152D01*
X139333333Y-41738152D02*
X139238095Y-41690533D01*
X139666666Y-41357200D02*
X139571428Y-41404819D01*
X139571428Y-41404819D02*
X139380952Y-41404819D01*
X139380952Y-41404819D02*
X139285714Y-41357200D01*
X139285714Y-41357200D02*
X139238095Y-41309580D01*
X139238095Y-41309580D02*
X139190476Y-41214342D01*
X139190476Y-41214342D02*
X139190476Y-40928628D01*
X139190476Y-40928628D02*
X139238095Y-40833390D01*
X139238095Y-40833390D02*
X139285714Y-40785771D01*
X139285714Y-40785771D02*
X139380952Y-40738152D01*
X139380952Y-40738152D02*
X139571428Y-40738152D01*
X139571428Y-40738152D02*
X139666666Y-40785771D01*
X140142857Y-41404819D02*
X140142857Y-40404819D01*
X140142857Y-40881009D02*
X140714285Y-40881009D01*
X140714285Y-41404819D02*
X140714285Y-40404819D01*
X141333333Y-41404819D02*
X141238095Y-41357200D01*
X141238095Y-41357200D02*
X141190476Y-41309580D01*
X141190476Y-41309580D02*
X141142857Y-41214342D01*
X141142857Y-41214342D02*
X141142857Y-40928628D01*
X141142857Y-40928628D02*
X141190476Y-40833390D01*
X141190476Y-40833390D02*
X141238095Y-40785771D01*
X141238095Y-40785771D02*
X141333333Y-40738152D01*
X141333333Y-40738152D02*
X141476190Y-40738152D01*
X141476190Y-40738152D02*
X141571428Y-40785771D01*
X141571428Y-40785771D02*
X141619047Y-40833390D01*
X141619047Y-40833390D02*
X141666666Y-40928628D01*
X141666666Y-40928628D02*
X141666666Y-41214342D01*
X141666666Y-41214342D02*
X141619047Y-41309580D01*
X141619047Y-41309580D02*
X141571428Y-41357200D01*
X141571428Y-41357200D02*
X141476190Y-41404819D01*
X141476190Y-41404819D02*
X141333333Y-41404819D01*
X142238095Y-41404819D02*
X142142857Y-41357200D01*
X142142857Y-41357200D02*
X142095238Y-41261961D01*
X142095238Y-41261961D02*
X142095238Y-40404819D01*
X143000000Y-41357200D02*
X142904762Y-41404819D01*
X142904762Y-41404819D02*
X142714286Y-41404819D01*
X142714286Y-41404819D02*
X142619048Y-41357200D01*
X142619048Y-41357200D02*
X142571429Y-41261961D01*
X142571429Y-41261961D02*
X142571429Y-40881009D01*
X142571429Y-40881009D02*
X142619048Y-40785771D01*
X142619048Y-40785771D02*
X142714286Y-40738152D01*
X142714286Y-40738152D02*
X142904762Y-40738152D01*
X142904762Y-40738152D02*
X143000000Y-40785771D01*
X143000000Y-40785771D02*
X143047619Y-40881009D01*
X143047619Y-40881009D02*
X143047619Y-40976247D01*
X143047619Y-40976247D02*
X142571429Y-41071485D01*
X143238096Y-41500057D02*
X144000000Y-41500057D01*
X144238096Y-41404819D02*
X144238096Y-40404819D01*
X144238096Y-40404819D02*
X144619048Y-40404819D01*
X144619048Y-40404819D02*
X144714286Y-40452438D01*
X144714286Y-40452438D02*
X144761905Y-40500057D01*
X144761905Y-40500057D02*
X144809524Y-40595295D01*
X144809524Y-40595295D02*
X144809524Y-40738152D01*
X144809524Y-40738152D02*
X144761905Y-40833390D01*
X144761905Y-40833390D02*
X144714286Y-40881009D01*
X144714286Y-40881009D02*
X144619048Y-40928628D01*
X144619048Y-40928628D02*
X144238096Y-40928628D01*
X145666667Y-41404819D02*
X145666667Y-40881009D01*
X145666667Y-40881009D02*
X145619048Y-40785771D01*
X145619048Y-40785771D02*
X145523810Y-40738152D01*
X145523810Y-40738152D02*
X145333334Y-40738152D01*
X145333334Y-40738152D02*
X145238096Y-40785771D01*
X145666667Y-41357200D02*
X145571429Y-41404819D01*
X145571429Y-41404819D02*
X145333334Y-41404819D01*
X145333334Y-41404819D02*
X145238096Y-41357200D01*
X145238096Y-41357200D02*
X145190477Y-41261961D01*
X145190477Y-41261961D02*
X145190477Y-41166723D01*
X145190477Y-41166723D02*
X145238096Y-41071485D01*
X145238096Y-41071485D02*
X145333334Y-41023866D01*
X145333334Y-41023866D02*
X145571429Y-41023866D01*
X145571429Y-41023866D02*
X145666667Y-40976247D01*
X146571429Y-41404819D02*
X146571429Y-40404819D01*
X146571429Y-41357200D02*
X146476191Y-41404819D01*
X146476191Y-41404819D02*
X146285715Y-41404819D01*
X146285715Y-41404819D02*
X146190477Y-41357200D01*
X146190477Y-41357200D02*
X146142858Y-41309580D01*
X146142858Y-41309580D02*
X146095239Y-41214342D01*
X146095239Y-41214342D02*
X146095239Y-40928628D01*
X146095239Y-40928628D02*
X146142858Y-40833390D01*
X146142858Y-40833390D02*
X146190477Y-40785771D01*
X146190477Y-40785771D02*
X146285715Y-40738152D01*
X146285715Y-40738152D02*
X146476191Y-40738152D01*
X146476191Y-40738152D02*
X146571429Y-40785771D01*
X139238095Y-35454819D02*
X139238095Y-34454819D01*
X139238095Y-34931009D02*
X139809523Y-34931009D01*
X139809523Y-35454819D02*
X139809523Y-34454819D01*
X140714285Y-34788152D02*
X140714285Y-35454819D01*
X140476190Y-34407200D02*
X140238095Y-35121485D01*
X140238095Y-35121485D02*
X140857142Y-35121485D01*
D11*
X80927618Y-45574318D02*
X80927618Y-44304318D01*
X80927618Y-44909080D02*
X81653333Y-44909080D01*
X81653333Y-45574318D02*
X81653333Y-44304318D01*
X82923333Y-45574318D02*
X82197618Y-45574318D01*
X82560475Y-45574318D02*
X82560475Y-44304318D01*
X82560475Y-44304318D02*
X82439523Y-44485746D01*
X82439523Y-44485746D02*
X82318571Y-44606699D01*
X82318571Y-44606699D02*
X82197618Y-44667175D01*
X83346666Y-44304318D02*
X84193333Y-44304318D01*
X84193333Y-44304318D02*
X83649047Y-45574318D01*
D10*
X88428571Y-3404819D02*
X88428571Y-2404819D01*
X88428571Y-2404819D02*
X88761904Y-3119104D01*
X88761904Y-3119104D02*
X89095237Y-2404819D01*
X89095237Y-2404819D02*
X89095237Y-3404819D01*
X89714285Y-3404819D02*
X89619047Y-3357200D01*
X89619047Y-3357200D02*
X89571428Y-3309580D01*
X89571428Y-3309580D02*
X89523809Y-3214342D01*
X89523809Y-3214342D02*
X89523809Y-2928628D01*
X89523809Y-2928628D02*
X89571428Y-2833390D01*
X89571428Y-2833390D02*
X89619047Y-2785771D01*
X89619047Y-2785771D02*
X89714285Y-2738152D01*
X89714285Y-2738152D02*
X89857142Y-2738152D01*
X89857142Y-2738152D02*
X89952380Y-2785771D01*
X89952380Y-2785771D02*
X89999999Y-2833390D01*
X89999999Y-2833390D02*
X90047618Y-2928628D01*
X90047618Y-2928628D02*
X90047618Y-3214342D01*
X90047618Y-3214342D02*
X89999999Y-3309580D01*
X89999999Y-3309580D02*
X89952380Y-3357200D01*
X89952380Y-3357200D02*
X89857142Y-3404819D01*
X89857142Y-3404819D02*
X89714285Y-3404819D01*
X90904761Y-2738152D02*
X90904761Y-3404819D01*
X90476190Y-2738152D02*
X90476190Y-3261961D01*
X90476190Y-3261961D02*
X90523809Y-3357200D01*
X90523809Y-3357200D02*
X90619047Y-3404819D01*
X90619047Y-3404819D02*
X90761904Y-3404819D01*
X90761904Y-3404819D02*
X90857142Y-3357200D01*
X90857142Y-3357200D02*
X90904761Y-3309580D01*
X91380952Y-2738152D02*
X91380952Y-3404819D01*
X91380952Y-2833390D02*
X91428571Y-2785771D01*
X91428571Y-2785771D02*
X91523809Y-2738152D01*
X91523809Y-2738152D02*
X91666666Y-2738152D01*
X91666666Y-2738152D02*
X91761904Y-2785771D01*
X91761904Y-2785771D02*
X91809523Y-2881009D01*
X91809523Y-2881009D02*
X91809523Y-3404819D01*
X92142857Y-2738152D02*
X92523809Y-2738152D01*
X92285714Y-2404819D02*
X92285714Y-3261961D01*
X92285714Y-3261961D02*
X92333333Y-3357200D01*
X92333333Y-3357200D02*
X92428571Y-3404819D01*
X92428571Y-3404819D02*
X92523809Y-3404819D01*
X92857143Y-3404819D02*
X92857143Y-2738152D01*
X92857143Y-2404819D02*
X92809524Y-2452438D01*
X92809524Y-2452438D02*
X92857143Y-2500057D01*
X92857143Y-2500057D02*
X92904762Y-2452438D01*
X92904762Y-2452438D02*
X92857143Y-2404819D01*
X92857143Y-2404819D02*
X92857143Y-2500057D01*
X93333333Y-2738152D02*
X93333333Y-3404819D01*
X93333333Y-2833390D02*
X93380952Y-2785771D01*
X93380952Y-2785771D02*
X93476190Y-2738152D01*
X93476190Y-2738152D02*
X93619047Y-2738152D01*
X93619047Y-2738152D02*
X93714285Y-2785771D01*
X93714285Y-2785771D02*
X93761904Y-2881009D01*
X93761904Y-2881009D02*
X93761904Y-3404819D01*
X94666666Y-2738152D02*
X94666666Y-3547676D01*
X94666666Y-3547676D02*
X94619047Y-3642914D01*
X94619047Y-3642914D02*
X94571428Y-3690533D01*
X94571428Y-3690533D02*
X94476190Y-3738152D01*
X94476190Y-3738152D02*
X94333333Y-3738152D01*
X94333333Y-3738152D02*
X94238095Y-3690533D01*
X94666666Y-3357200D02*
X94571428Y-3404819D01*
X94571428Y-3404819D02*
X94380952Y-3404819D01*
X94380952Y-3404819D02*
X94285714Y-3357200D01*
X94285714Y-3357200D02*
X94238095Y-3309580D01*
X94238095Y-3309580D02*
X94190476Y-3214342D01*
X94190476Y-3214342D02*
X94190476Y-2928628D01*
X94190476Y-2928628D02*
X94238095Y-2833390D01*
X94238095Y-2833390D02*
X94285714Y-2785771D01*
X94285714Y-2785771D02*
X94380952Y-2738152D01*
X94380952Y-2738152D02*
X94571428Y-2738152D01*
X94571428Y-2738152D02*
X94666666Y-2785771D01*
X95142857Y-3404819D02*
X95142857Y-2404819D01*
X95142857Y-2881009D02*
X95714285Y-2881009D01*
X95714285Y-3404819D02*
X95714285Y-2404819D01*
X96333333Y-3404819D02*
X96238095Y-3357200D01*
X96238095Y-3357200D02*
X96190476Y-3309580D01*
X96190476Y-3309580D02*
X96142857Y-3214342D01*
X96142857Y-3214342D02*
X96142857Y-2928628D01*
X96142857Y-2928628D02*
X96190476Y-2833390D01*
X96190476Y-2833390D02*
X96238095Y-2785771D01*
X96238095Y-2785771D02*
X96333333Y-2738152D01*
X96333333Y-2738152D02*
X96476190Y-2738152D01*
X96476190Y-2738152D02*
X96571428Y-2785771D01*
X96571428Y-2785771D02*
X96619047Y-2833390D01*
X96619047Y-2833390D02*
X96666666Y-2928628D01*
X96666666Y-2928628D02*
X96666666Y-3214342D01*
X96666666Y-3214342D02*
X96619047Y-3309580D01*
X96619047Y-3309580D02*
X96571428Y-3357200D01*
X96571428Y-3357200D02*
X96476190Y-3404819D01*
X96476190Y-3404819D02*
X96333333Y-3404819D01*
X97238095Y-3404819D02*
X97142857Y-3357200D01*
X97142857Y-3357200D02*
X97095238Y-3261961D01*
X97095238Y-3261961D02*
X97095238Y-2404819D01*
X98000000Y-3357200D02*
X97904762Y-3404819D01*
X97904762Y-3404819D02*
X97714286Y-3404819D01*
X97714286Y-3404819D02*
X97619048Y-3357200D01*
X97619048Y-3357200D02*
X97571429Y-3261961D01*
X97571429Y-3261961D02*
X97571429Y-2881009D01*
X97571429Y-2881009D02*
X97619048Y-2785771D01*
X97619048Y-2785771D02*
X97714286Y-2738152D01*
X97714286Y-2738152D02*
X97904762Y-2738152D01*
X97904762Y-2738152D02*
X98000000Y-2785771D01*
X98000000Y-2785771D02*
X98047619Y-2881009D01*
X98047619Y-2881009D02*
X98047619Y-2976247D01*
X98047619Y-2976247D02*
X97571429Y-3071485D01*
X98238096Y-3500057D02*
X99000000Y-3500057D01*
X99238096Y-3404819D02*
X99238096Y-2404819D01*
X99238096Y-2404819D02*
X99619048Y-2404819D01*
X99619048Y-2404819D02*
X99714286Y-2452438D01*
X99714286Y-2452438D02*
X99761905Y-2500057D01*
X99761905Y-2500057D02*
X99809524Y-2595295D01*
X99809524Y-2595295D02*
X99809524Y-2738152D01*
X99809524Y-2738152D02*
X99761905Y-2833390D01*
X99761905Y-2833390D02*
X99714286Y-2881009D01*
X99714286Y-2881009D02*
X99619048Y-2928628D01*
X99619048Y-2928628D02*
X99238096Y-2928628D01*
X100666667Y-3404819D02*
X100666667Y-2881009D01*
X100666667Y-2881009D02*
X100619048Y-2785771D01*
X100619048Y-2785771D02*
X100523810Y-2738152D01*
X100523810Y-2738152D02*
X100333334Y-2738152D01*
X100333334Y-2738152D02*
X100238096Y-2785771D01*
X100666667Y-3357200D02*
X100571429Y-3404819D01*
X100571429Y-3404819D02*
X100333334Y-3404819D01*
X100333334Y-3404819D02*
X100238096Y-3357200D01*
X100238096Y-3357200D02*
X100190477Y-3261961D01*
X100190477Y-3261961D02*
X100190477Y-3166723D01*
X100190477Y-3166723D02*
X100238096Y-3071485D01*
X100238096Y-3071485D02*
X100333334Y-3023866D01*
X100333334Y-3023866D02*
X100571429Y-3023866D01*
X100571429Y-3023866D02*
X100666667Y-2976247D01*
X101571429Y-3404819D02*
X101571429Y-2404819D01*
X101571429Y-3357200D02*
X101476191Y-3404819D01*
X101476191Y-3404819D02*
X101285715Y-3404819D01*
X101285715Y-3404819D02*
X101190477Y-3357200D01*
X101190477Y-3357200D02*
X101142858Y-3309580D01*
X101142858Y-3309580D02*
X101095239Y-3214342D01*
X101095239Y-3214342D02*
X101095239Y-2928628D01*
X101095239Y-2928628D02*
X101142858Y-2833390D01*
X101142858Y-2833390D02*
X101190477Y-2785771D01*
X101190477Y-2785771D02*
X101285715Y-2738152D01*
X101285715Y-2738152D02*
X101476191Y-2738152D01*
X101476191Y-2738152D02*
X101571429Y-2785771D01*
X94238095Y2545180D02*
X94238095Y3545180D01*
X94238095Y3068990D02*
X94809523Y3068990D01*
X94809523Y2545180D02*
X94809523Y3545180D01*
X95428571Y3116609D02*
X95333333Y3164228D01*
X95333333Y3164228D02*
X95285714Y3211847D01*
X95285714Y3211847D02*
X95238095Y3307085D01*
X95238095Y3307085D02*
X95238095Y3354704D01*
X95238095Y3354704D02*
X95285714Y3449942D01*
X95285714Y3449942D02*
X95333333Y3497561D01*
X95333333Y3497561D02*
X95428571Y3545180D01*
X95428571Y3545180D02*
X95619047Y3545180D01*
X95619047Y3545180D02*
X95714285Y3497561D01*
X95714285Y3497561D02*
X95761904Y3449942D01*
X95761904Y3449942D02*
X95809523Y3354704D01*
X95809523Y3354704D02*
X95809523Y3307085D01*
X95809523Y3307085D02*
X95761904Y3211847D01*
X95761904Y3211847D02*
X95714285Y3164228D01*
X95714285Y3164228D02*
X95619047Y3116609D01*
X95619047Y3116609D02*
X95428571Y3116609D01*
X95428571Y3116609D02*
X95333333Y3068990D01*
X95333333Y3068990D02*
X95285714Y3021371D01*
X95285714Y3021371D02*
X95238095Y2926133D01*
X95238095Y2926133D02*
X95238095Y2735657D01*
X95238095Y2735657D02*
X95285714Y2640419D01*
X95285714Y2640419D02*
X95333333Y2592800D01*
X95333333Y2592800D02*
X95428571Y2545180D01*
X95428571Y2545180D02*
X95619047Y2545180D01*
X95619047Y2545180D02*
X95714285Y2592800D01*
X95714285Y2592800D02*
X95761904Y2640419D01*
X95761904Y2640419D02*
X95809523Y2735657D01*
X95809523Y2735657D02*
X95809523Y2926133D01*
X95809523Y2926133D02*
X95761904Y3021371D01*
X95761904Y3021371D02*
X95714285Y3068990D01*
X95714285Y3068990D02*
X95619047Y3116609D01*
X133428571Y-69404819D02*
X133428571Y-68404819D01*
X133428571Y-68404819D02*
X133761904Y-69119104D01*
X133761904Y-69119104D02*
X134095237Y-68404819D01*
X134095237Y-68404819D02*
X134095237Y-69404819D01*
X134714285Y-69404819D02*
X134619047Y-69357200D01*
X134619047Y-69357200D02*
X134571428Y-69309580D01*
X134571428Y-69309580D02*
X134523809Y-69214342D01*
X134523809Y-69214342D02*
X134523809Y-68928628D01*
X134523809Y-68928628D02*
X134571428Y-68833390D01*
X134571428Y-68833390D02*
X134619047Y-68785771D01*
X134619047Y-68785771D02*
X134714285Y-68738152D01*
X134714285Y-68738152D02*
X134857142Y-68738152D01*
X134857142Y-68738152D02*
X134952380Y-68785771D01*
X134952380Y-68785771D02*
X134999999Y-68833390D01*
X134999999Y-68833390D02*
X135047618Y-68928628D01*
X135047618Y-68928628D02*
X135047618Y-69214342D01*
X135047618Y-69214342D02*
X134999999Y-69309580D01*
X134999999Y-69309580D02*
X134952380Y-69357200D01*
X134952380Y-69357200D02*
X134857142Y-69404819D01*
X134857142Y-69404819D02*
X134714285Y-69404819D01*
X135904761Y-68738152D02*
X135904761Y-69404819D01*
X135476190Y-68738152D02*
X135476190Y-69261961D01*
X135476190Y-69261961D02*
X135523809Y-69357200D01*
X135523809Y-69357200D02*
X135619047Y-69404819D01*
X135619047Y-69404819D02*
X135761904Y-69404819D01*
X135761904Y-69404819D02*
X135857142Y-69357200D01*
X135857142Y-69357200D02*
X135904761Y-69309580D01*
X136380952Y-68738152D02*
X136380952Y-69404819D01*
X136380952Y-68833390D02*
X136428571Y-68785771D01*
X136428571Y-68785771D02*
X136523809Y-68738152D01*
X136523809Y-68738152D02*
X136666666Y-68738152D01*
X136666666Y-68738152D02*
X136761904Y-68785771D01*
X136761904Y-68785771D02*
X136809523Y-68881009D01*
X136809523Y-68881009D02*
X136809523Y-69404819D01*
X137142857Y-68738152D02*
X137523809Y-68738152D01*
X137285714Y-68404819D02*
X137285714Y-69261961D01*
X137285714Y-69261961D02*
X137333333Y-69357200D01*
X137333333Y-69357200D02*
X137428571Y-69404819D01*
X137428571Y-69404819D02*
X137523809Y-69404819D01*
X137857143Y-69404819D02*
X137857143Y-68738152D01*
X137857143Y-68404819D02*
X137809524Y-68452438D01*
X137809524Y-68452438D02*
X137857143Y-68500057D01*
X137857143Y-68500057D02*
X137904762Y-68452438D01*
X137904762Y-68452438D02*
X137857143Y-68404819D01*
X137857143Y-68404819D02*
X137857143Y-68500057D01*
X138333333Y-68738152D02*
X138333333Y-69404819D01*
X138333333Y-68833390D02*
X138380952Y-68785771D01*
X138380952Y-68785771D02*
X138476190Y-68738152D01*
X138476190Y-68738152D02*
X138619047Y-68738152D01*
X138619047Y-68738152D02*
X138714285Y-68785771D01*
X138714285Y-68785771D02*
X138761904Y-68881009D01*
X138761904Y-68881009D02*
X138761904Y-69404819D01*
X139666666Y-68738152D02*
X139666666Y-69547676D01*
X139666666Y-69547676D02*
X139619047Y-69642914D01*
X139619047Y-69642914D02*
X139571428Y-69690533D01*
X139571428Y-69690533D02*
X139476190Y-69738152D01*
X139476190Y-69738152D02*
X139333333Y-69738152D01*
X139333333Y-69738152D02*
X139238095Y-69690533D01*
X139666666Y-69357200D02*
X139571428Y-69404819D01*
X139571428Y-69404819D02*
X139380952Y-69404819D01*
X139380952Y-69404819D02*
X139285714Y-69357200D01*
X139285714Y-69357200D02*
X139238095Y-69309580D01*
X139238095Y-69309580D02*
X139190476Y-69214342D01*
X139190476Y-69214342D02*
X139190476Y-68928628D01*
X139190476Y-68928628D02*
X139238095Y-68833390D01*
X139238095Y-68833390D02*
X139285714Y-68785771D01*
X139285714Y-68785771D02*
X139380952Y-68738152D01*
X139380952Y-68738152D02*
X139571428Y-68738152D01*
X139571428Y-68738152D02*
X139666666Y-68785771D01*
X140142857Y-69404819D02*
X140142857Y-68404819D01*
X140142857Y-68881009D02*
X140714285Y-68881009D01*
X140714285Y-69404819D02*
X140714285Y-68404819D01*
X141333333Y-69404819D02*
X141238095Y-69357200D01*
X141238095Y-69357200D02*
X141190476Y-69309580D01*
X141190476Y-69309580D02*
X141142857Y-69214342D01*
X141142857Y-69214342D02*
X141142857Y-68928628D01*
X141142857Y-68928628D02*
X141190476Y-68833390D01*
X141190476Y-68833390D02*
X141238095Y-68785771D01*
X141238095Y-68785771D02*
X141333333Y-68738152D01*
X141333333Y-68738152D02*
X141476190Y-68738152D01*
X141476190Y-68738152D02*
X141571428Y-68785771D01*
X141571428Y-68785771D02*
X141619047Y-68833390D01*
X141619047Y-68833390D02*
X141666666Y-68928628D01*
X141666666Y-68928628D02*
X141666666Y-69214342D01*
X141666666Y-69214342D02*
X141619047Y-69309580D01*
X141619047Y-69309580D02*
X141571428Y-69357200D01*
X141571428Y-69357200D02*
X141476190Y-69404819D01*
X141476190Y-69404819D02*
X141333333Y-69404819D01*
X142238095Y-69404819D02*
X142142857Y-69357200D01*
X142142857Y-69357200D02*
X142095238Y-69261961D01*
X142095238Y-69261961D02*
X142095238Y-68404819D01*
X143000000Y-69357200D02*
X142904762Y-69404819D01*
X142904762Y-69404819D02*
X142714286Y-69404819D01*
X142714286Y-69404819D02*
X142619048Y-69357200D01*
X142619048Y-69357200D02*
X142571429Y-69261961D01*
X142571429Y-69261961D02*
X142571429Y-68881009D01*
X142571429Y-68881009D02*
X142619048Y-68785771D01*
X142619048Y-68785771D02*
X142714286Y-68738152D01*
X142714286Y-68738152D02*
X142904762Y-68738152D01*
X142904762Y-68738152D02*
X143000000Y-68785771D01*
X143000000Y-68785771D02*
X143047619Y-68881009D01*
X143047619Y-68881009D02*
X143047619Y-68976247D01*
X143047619Y-68976247D02*
X142571429Y-69071485D01*
X143238096Y-69500057D02*
X144000000Y-69500057D01*
X144238096Y-69404819D02*
X144238096Y-68404819D01*
X144238096Y-68404819D02*
X144619048Y-68404819D01*
X144619048Y-68404819D02*
X144714286Y-68452438D01*
X144714286Y-68452438D02*
X144761905Y-68500057D01*
X144761905Y-68500057D02*
X144809524Y-68595295D01*
X144809524Y-68595295D02*
X144809524Y-68738152D01*
X144809524Y-68738152D02*
X144761905Y-68833390D01*
X144761905Y-68833390D02*
X144714286Y-68881009D01*
X144714286Y-68881009D02*
X144619048Y-68928628D01*
X144619048Y-68928628D02*
X144238096Y-68928628D01*
X145666667Y-69404819D02*
X145666667Y-68881009D01*
X145666667Y-68881009D02*
X145619048Y-68785771D01*
X145619048Y-68785771D02*
X145523810Y-68738152D01*
X145523810Y-68738152D02*
X145333334Y-68738152D01*
X145333334Y-68738152D02*
X145238096Y-68785771D01*
X145666667Y-69357200D02*
X145571429Y-69404819D01*
X145571429Y-69404819D02*
X145333334Y-69404819D01*
X145333334Y-69404819D02*
X145238096Y-69357200D01*
X145238096Y-69357200D02*
X145190477Y-69261961D01*
X145190477Y-69261961D02*
X145190477Y-69166723D01*
X145190477Y-69166723D02*
X145238096Y-69071485D01*
X145238096Y-69071485D02*
X145333334Y-69023866D01*
X145333334Y-69023866D02*
X145571429Y-69023866D01*
X145571429Y-69023866D02*
X145666667Y-68976247D01*
X146571429Y-69404819D02*
X146571429Y-68404819D01*
X146571429Y-69357200D02*
X146476191Y-69404819D01*
X146476191Y-69404819D02*
X146285715Y-69404819D01*
X146285715Y-69404819D02*
X146190477Y-69357200D01*
X146190477Y-69357200D02*
X146142858Y-69309580D01*
X146142858Y-69309580D02*
X146095239Y-69214342D01*
X146095239Y-69214342D02*
X146095239Y-68928628D01*
X146095239Y-68928628D02*
X146142858Y-68833390D01*
X146142858Y-68833390D02*
X146190477Y-68785771D01*
X146190477Y-68785771D02*
X146285715Y-68738152D01*
X146285715Y-68738152D02*
X146476191Y-68738152D01*
X146476191Y-68738152D02*
X146571429Y-68785771D01*
X139238095Y-63454819D02*
X139238095Y-62454819D01*
X139238095Y-62931009D02*
X139809523Y-62931009D01*
X139809523Y-63454819D02*
X139809523Y-62454819D01*
X140190476Y-62454819D02*
X140809523Y-62454819D01*
X140809523Y-62454819D02*
X140476190Y-62835771D01*
X140476190Y-62835771D02*
X140619047Y-62835771D01*
X140619047Y-62835771D02*
X140714285Y-62883390D01*
X140714285Y-62883390D02*
X140761904Y-62931009D01*
X140761904Y-62931009D02*
X140809523Y-63026247D01*
X140809523Y-63026247D02*
X140809523Y-63264342D01*
X140809523Y-63264342D02*
X140761904Y-63359580D01*
X140761904Y-63359580D02*
X140714285Y-63407200D01*
X140714285Y-63407200D02*
X140619047Y-63454819D01*
X140619047Y-63454819D02*
X140333333Y-63454819D01*
X140333333Y-63454819D02*
X140238095Y-63407200D01*
X140238095Y-63407200D02*
X140190476Y-63359580D01*
D11*
X20427618Y-81574318D02*
X20427618Y-80304318D01*
X20427618Y-80909080D02*
X21153333Y-80909080D01*
X21153333Y-81574318D02*
X21153333Y-80304318D01*
X22423333Y-81574318D02*
X21697618Y-81574318D01*
X22060475Y-81574318D02*
X22060475Y-80304318D01*
X22060475Y-80304318D02*
X21939523Y-80485746D01*
X21939523Y-80485746D02*
X21818571Y-80606699D01*
X21818571Y-80606699D02*
X21697618Y-80667175D01*
X23149047Y-80848603D02*
X23028095Y-80788127D01*
X23028095Y-80788127D02*
X22967618Y-80727651D01*
X22967618Y-80727651D02*
X22907142Y-80606699D01*
X22907142Y-80606699D02*
X22907142Y-80546222D01*
X22907142Y-80546222D02*
X22967618Y-80425270D01*
X22967618Y-80425270D02*
X23028095Y-80364794D01*
X23028095Y-80364794D02*
X23149047Y-80304318D01*
X23149047Y-80304318D02*
X23390952Y-80304318D01*
X23390952Y-80304318D02*
X23511904Y-80364794D01*
X23511904Y-80364794D02*
X23572380Y-80425270D01*
X23572380Y-80425270D02*
X23632857Y-80546222D01*
X23632857Y-80546222D02*
X23632857Y-80606699D01*
X23632857Y-80606699D02*
X23572380Y-80727651D01*
X23572380Y-80727651D02*
X23511904Y-80788127D01*
X23511904Y-80788127D02*
X23390952Y-80848603D01*
X23390952Y-80848603D02*
X23149047Y-80848603D01*
X23149047Y-80848603D02*
X23028095Y-80909080D01*
X23028095Y-80909080D02*
X22967618Y-80969556D01*
X22967618Y-80969556D02*
X22907142Y-81090508D01*
X22907142Y-81090508D02*
X22907142Y-81332413D01*
X22907142Y-81332413D02*
X22967618Y-81453365D01*
X22967618Y-81453365D02*
X23028095Y-81513842D01*
X23028095Y-81513842D02*
X23149047Y-81574318D01*
X23149047Y-81574318D02*
X23390952Y-81574318D01*
X23390952Y-81574318D02*
X23511904Y-81513842D01*
X23511904Y-81513842D02*
X23572380Y-81453365D01*
X23572380Y-81453365D02*
X23632857Y-81332413D01*
X23632857Y-81332413D02*
X23632857Y-81090508D01*
X23632857Y-81090508D02*
X23572380Y-80969556D01*
X23572380Y-80969556D02*
X23511904Y-80909080D01*
X23511904Y-80909080D02*
X23390952Y-80848603D01*
D10*
X178428571Y-3404819D02*
X178428571Y-2404819D01*
X178428571Y-2404819D02*
X178761904Y-3119104D01*
X178761904Y-3119104D02*
X179095237Y-2404819D01*
X179095237Y-2404819D02*
X179095237Y-3404819D01*
X179714285Y-3404819D02*
X179619047Y-3357200D01*
X179619047Y-3357200D02*
X179571428Y-3309580D01*
X179571428Y-3309580D02*
X179523809Y-3214342D01*
X179523809Y-3214342D02*
X179523809Y-2928628D01*
X179523809Y-2928628D02*
X179571428Y-2833390D01*
X179571428Y-2833390D02*
X179619047Y-2785771D01*
X179619047Y-2785771D02*
X179714285Y-2738152D01*
X179714285Y-2738152D02*
X179857142Y-2738152D01*
X179857142Y-2738152D02*
X179952380Y-2785771D01*
X179952380Y-2785771D02*
X179999999Y-2833390D01*
X179999999Y-2833390D02*
X180047618Y-2928628D01*
X180047618Y-2928628D02*
X180047618Y-3214342D01*
X180047618Y-3214342D02*
X179999999Y-3309580D01*
X179999999Y-3309580D02*
X179952380Y-3357200D01*
X179952380Y-3357200D02*
X179857142Y-3404819D01*
X179857142Y-3404819D02*
X179714285Y-3404819D01*
X180904761Y-2738152D02*
X180904761Y-3404819D01*
X180476190Y-2738152D02*
X180476190Y-3261961D01*
X180476190Y-3261961D02*
X180523809Y-3357200D01*
X180523809Y-3357200D02*
X180619047Y-3404819D01*
X180619047Y-3404819D02*
X180761904Y-3404819D01*
X180761904Y-3404819D02*
X180857142Y-3357200D01*
X180857142Y-3357200D02*
X180904761Y-3309580D01*
X181380952Y-2738152D02*
X181380952Y-3404819D01*
X181380952Y-2833390D02*
X181428571Y-2785771D01*
X181428571Y-2785771D02*
X181523809Y-2738152D01*
X181523809Y-2738152D02*
X181666666Y-2738152D01*
X181666666Y-2738152D02*
X181761904Y-2785771D01*
X181761904Y-2785771D02*
X181809523Y-2881009D01*
X181809523Y-2881009D02*
X181809523Y-3404819D01*
X182142857Y-2738152D02*
X182523809Y-2738152D01*
X182285714Y-2404819D02*
X182285714Y-3261961D01*
X182285714Y-3261961D02*
X182333333Y-3357200D01*
X182333333Y-3357200D02*
X182428571Y-3404819D01*
X182428571Y-3404819D02*
X182523809Y-3404819D01*
X182857143Y-3404819D02*
X182857143Y-2738152D01*
X182857143Y-2404819D02*
X182809524Y-2452438D01*
X182809524Y-2452438D02*
X182857143Y-2500057D01*
X182857143Y-2500057D02*
X182904762Y-2452438D01*
X182904762Y-2452438D02*
X182857143Y-2404819D01*
X182857143Y-2404819D02*
X182857143Y-2500057D01*
X183333333Y-2738152D02*
X183333333Y-3404819D01*
X183333333Y-2833390D02*
X183380952Y-2785771D01*
X183380952Y-2785771D02*
X183476190Y-2738152D01*
X183476190Y-2738152D02*
X183619047Y-2738152D01*
X183619047Y-2738152D02*
X183714285Y-2785771D01*
X183714285Y-2785771D02*
X183761904Y-2881009D01*
X183761904Y-2881009D02*
X183761904Y-3404819D01*
X184666666Y-2738152D02*
X184666666Y-3547676D01*
X184666666Y-3547676D02*
X184619047Y-3642914D01*
X184619047Y-3642914D02*
X184571428Y-3690533D01*
X184571428Y-3690533D02*
X184476190Y-3738152D01*
X184476190Y-3738152D02*
X184333333Y-3738152D01*
X184333333Y-3738152D02*
X184238095Y-3690533D01*
X184666666Y-3357200D02*
X184571428Y-3404819D01*
X184571428Y-3404819D02*
X184380952Y-3404819D01*
X184380952Y-3404819D02*
X184285714Y-3357200D01*
X184285714Y-3357200D02*
X184238095Y-3309580D01*
X184238095Y-3309580D02*
X184190476Y-3214342D01*
X184190476Y-3214342D02*
X184190476Y-2928628D01*
X184190476Y-2928628D02*
X184238095Y-2833390D01*
X184238095Y-2833390D02*
X184285714Y-2785771D01*
X184285714Y-2785771D02*
X184380952Y-2738152D01*
X184380952Y-2738152D02*
X184571428Y-2738152D01*
X184571428Y-2738152D02*
X184666666Y-2785771D01*
X185142857Y-3404819D02*
X185142857Y-2404819D01*
X185142857Y-2881009D02*
X185714285Y-2881009D01*
X185714285Y-3404819D02*
X185714285Y-2404819D01*
X186333333Y-3404819D02*
X186238095Y-3357200D01*
X186238095Y-3357200D02*
X186190476Y-3309580D01*
X186190476Y-3309580D02*
X186142857Y-3214342D01*
X186142857Y-3214342D02*
X186142857Y-2928628D01*
X186142857Y-2928628D02*
X186190476Y-2833390D01*
X186190476Y-2833390D02*
X186238095Y-2785771D01*
X186238095Y-2785771D02*
X186333333Y-2738152D01*
X186333333Y-2738152D02*
X186476190Y-2738152D01*
X186476190Y-2738152D02*
X186571428Y-2785771D01*
X186571428Y-2785771D02*
X186619047Y-2833390D01*
X186619047Y-2833390D02*
X186666666Y-2928628D01*
X186666666Y-2928628D02*
X186666666Y-3214342D01*
X186666666Y-3214342D02*
X186619047Y-3309580D01*
X186619047Y-3309580D02*
X186571428Y-3357200D01*
X186571428Y-3357200D02*
X186476190Y-3404819D01*
X186476190Y-3404819D02*
X186333333Y-3404819D01*
X187238095Y-3404819D02*
X187142857Y-3357200D01*
X187142857Y-3357200D02*
X187095238Y-3261961D01*
X187095238Y-3261961D02*
X187095238Y-2404819D01*
X188000000Y-3357200D02*
X187904762Y-3404819D01*
X187904762Y-3404819D02*
X187714286Y-3404819D01*
X187714286Y-3404819D02*
X187619048Y-3357200D01*
X187619048Y-3357200D02*
X187571429Y-3261961D01*
X187571429Y-3261961D02*
X187571429Y-2881009D01*
X187571429Y-2881009D02*
X187619048Y-2785771D01*
X187619048Y-2785771D02*
X187714286Y-2738152D01*
X187714286Y-2738152D02*
X187904762Y-2738152D01*
X187904762Y-2738152D02*
X188000000Y-2785771D01*
X188000000Y-2785771D02*
X188047619Y-2881009D01*
X188047619Y-2881009D02*
X188047619Y-2976247D01*
X188047619Y-2976247D02*
X187571429Y-3071485D01*
X188238096Y-3500057D02*
X189000000Y-3500057D01*
X189238096Y-3404819D02*
X189238096Y-2404819D01*
X189238096Y-2404819D02*
X189619048Y-2404819D01*
X189619048Y-2404819D02*
X189714286Y-2452438D01*
X189714286Y-2452438D02*
X189761905Y-2500057D01*
X189761905Y-2500057D02*
X189809524Y-2595295D01*
X189809524Y-2595295D02*
X189809524Y-2738152D01*
X189809524Y-2738152D02*
X189761905Y-2833390D01*
X189761905Y-2833390D02*
X189714286Y-2881009D01*
X189714286Y-2881009D02*
X189619048Y-2928628D01*
X189619048Y-2928628D02*
X189238096Y-2928628D01*
X190666667Y-3404819D02*
X190666667Y-2881009D01*
X190666667Y-2881009D02*
X190619048Y-2785771D01*
X190619048Y-2785771D02*
X190523810Y-2738152D01*
X190523810Y-2738152D02*
X190333334Y-2738152D01*
X190333334Y-2738152D02*
X190238096Y-2785771D01*
X190666667Y-3357200D02*
X190571429Y-3404819D01*
X190571429Y-3404819D02*
X190333334Y-3404819D01*
X190333334Y-3404819D02*
X190238096Y-3357200D01*
X190238096Y-3357200D02*
X190190477Y-3261961D01*
X190190477Y-3261961D02*
X190190477Y-3166723D01*
X190190477Y-3166723D02*
X190238096Y-3071485D01*
X190238096Y-3071485D02*
X190333334Y-3023866D01*
X190333334Y-3023866D02*
X190571429Y-3023866D01*
X190571429Y-3023866D02*
X190666667Y-2976247D01*
X191571429Y-3404819D02*
X191571429Y-2404819D01*
X191571429Y-3357200D02*
X191476191Y-3404819D01*
X191476191Y-3404819D02*
X191285715Y-3404819D01*
X191285715Y-3404819D02*
X191190477Y-3357200D01*
X191190477Y-3357200D02*
X191142858Y-3309580D01*
X191142858Y-3309580D02*
X191095239Y-3214342D01*
X191095239Y-3214342D02*
X191095239Y-2928628D01*
X191095239Y-2928628D02*
X191142858Y-2833390D01*
X191142858Y-2833390D02*
X191190477Y-2785771D01*
X191190477Y-2785771D02*
X191285715Y-2738152D01*
X191285715Y-2738152D02*
X191476191Y-2738152D01*
X191476191Y-2738152D02*
X191571429Y-2785771D01*
X184238095Y2545180D02*
X184238095Y3545180D01*
X184238095Y3068990D02*
X184809523Y3068990D01*
X184809523Y2545180D02*
X184809523Y3545180D01*
X185333333Y2545180D02*
X185523809Y2545180D01*
X185523809Y2545180D02*
X185619047Y2592800D01*
X185619047Y2592800D02*
X185666666Y2640419D01*
X185666666Y2640419D02*
X185761904Y2783276D01*
X185761904Y2783276D02*
X185809523Y2973752D01*
X185809523Y2973752D02*
X185809523Y3354704D01*
X185809523Y3354704D02*
X185761904Y3449942D01*
X185761904Y3449942D02*
X185714285Y3497561D01*
X185714285Y3497561D02*
X185619047Y3545180D01*
X185619047Y3545180D02*
X185428571Y3545180D01*
X185428571Y3545180D02*
X185333333Y3497561D01*
X185333333Y3497561D02*
X185285714Y3449942D01*
X185285714Y3449942D02*
X185238095Y3354704D01*
X185238095Y3354704D02*
X185238095Y3116609D01*
X185238095Y3116609D02*
X185285714Y3021371D01*
X185285714Y3021371D02*
X185333333Y2973752D01*
X185333333Y2973752D02*
X185428571Y2926133D01*
X185428571Y2926133D02*
X185619047Y2926133D01*
X185619047Y2926133D02*
X185714285Y2973752D01*
X185714285Y2973752D02*
X185761904Y3021371D01*
X185761904Y3021371D02*
X185809523Y3116609D01*
X-571428Y-87404819D02*
X-571428Y-86404819D01*
X-571428Y-86404819D02*
X-238095Y-87119104D01*
X-238095Y-87119104D02*
X95237Y-86404819D01*
X95237Y-86404819D02*
X95237Y-87404819D01*
X714285Y-87404819D02*
X619047Y-87357200D01*
X619047Y-87357200D02*
X571428Y-87309580D01*
X571428Y-87309580D02*
X523809Y-87214342D01*
X523809Y-87214342D02*
X523809Y-86928628D01*
X523809Y-86928628D02*
X571428Y-86833390D01*
X571428Y-86833390D02*
X619047Y-86785771D01*
X619047Y-86785771D02*
X714285Y-86738152D01*
X714285Y-86738152D02*
X857142Y-86738152D01*
X857142Y-86738152D02*
X952380Y-86785771D01*
X952380Y-86785771D02*
X999999Y-86833390D01*
X999999Y-86833390D02*
X1047618Y-86928628D01*
X1047618Y-86928628D02*
X1047618Y-87214342D01*
X1047618Y-87214342D02*
X999999Y-87309580D01*
X999999Y-87309580D02*
X952380Y-87357200D01*
X952380Y-87357200D02*
X857142Y-87404819D01*
X857142Y-87404819D02*
X714285Y-87404819D01*
X1904761Y-86738152D02*
X1904761Y-87404819D01*
X1476190Y-86738152D02*
X1476190Y-87261961D01*
X1476190Y-87261961D02*
X1523809Y-87357200D01*
X1523809Y-87357200D02*
X1619047Y-87404819D01*
X1619047Y-87404819D02*
X1761904Y-87404819D01*
X1761904Y-87404819D02*
X1857142Y-87357200D01*
X1857142Y-87357200D02*
X1904761Y-87309580D01*
X2380952Y-86738152D02*
X2380952Y-87404819D01*
X2380952Y-86833390D02*
X2428571Y-86785771D01*
X2428571Y-86785771D02*
X2523809Y-86738152D01*
X2523809Y-86738152D02*
X2666666Y-86738152D01*
X2666666Y-86738152D02*
X2761904Y-86785771D01*
X2761904Y-86785771D02*
X2809523Y-86881009D01*
X2809523Y-86881009D02*
X2809523Y-87404819D01*
X3142857Y-86738152D02*
X3523809Y-86738152D01*
X3285714Y-86404819D02*
X3285714Y-87261961D01*
X3285714Y-87261961D02*
X3333333Y-87357200D01*
X3333333Y-87357200D02*
X3428571Y-87404819D01*
X3428571Y-87404819D02*
X3523809Y-87404819D01*
X3857143Y-87404819D02*
X3857143Y-86738152D01*
X3857143Y-86404819D02*
X3809524Y-86452438D01*
X3809524Y-86452438D02*
X3857143Y-86500057D01*
X3857143Y-86500057D02*
X3904762Y-86452438D01*
X3904762Y-86452438D02*
X3857143Y-86404819D01*
X3857143Y-86404819D02*
X3857143Y-86500057D01*
X4333333Y-86738152D02*
X4333333Y-87404819D01*
X4333333Y-86833390D02*
X4380952Y-86785771D01*
X4380952Y-86785771D02*
X4476190Y-86738152D01*
X4476190Y-86738152D02*
X4619047Y-86738152D01*
X4619047Y-86738152D02*
X4714285Y-86785771D01*
X4714285Y-86785771D02*
X4761904Y-86881009D01*
X4761904Y-86881009D02*
X4761904Y-87404819D01*
X5666666Y-86738152D02*
X5666666Y-87547676D01*
X5666666Y-87547676D02*
X5619047Y-87642914D01*
X5619047Y-87642914D02*
X5571428Y-87690533D01*
X5571428Y-87690533D02*
X5476190Y-87738152D01*
X5476190Y-87738152D02*
X5333333Y-87738152D01*
X5333333Y-87738152D02*
X5238095Y-87690533D01*
X5666666Y-87357200D02*
X5571428Y-87404819D01*
X5571428Y-87404819D02*
X5380952Y-87404819D01*
X5380952Y-87404819D02*
X5285714Y-87357200D01*
X5285714Y-87357200D02*
X5238095Y-87309580D01*
X5238095Y-87309580D02*
X5190476Y-87214342D01*
X5190476Y-87214342D02*
X5190476Y-86928628D01*
X5190476Y-86928628D02*
X5238095Y-86833390D01*
X5238095Y-86833390D02*
X5285714Y-86785771D01*
X5285714Y-86785771D02*
X5380952Y-86738152D01*
X5380952Y-86738152D02*
X5571428Y-86738152D01*
X5571428Y-86738152D02*
X5666666Y-86785771D01*
X6142857Y-87404819D02*
X6142857Y-86404819D01*
X6142857Y-86881009D02*
X6714285Y-86881009D01*
X6714285Y-87404819D02*
X6714285Y-86404819D01*
X7333333Y-87404819D02*
X7238095Y-87357200D01*
X7238095Y-87357200D02*
X7190476Y-87309580D01*
X7190476Y-87309580D02*
X7142857Y-87214342D01*
X7142857Y-87214342D02*
X7142857Y-86928628D01*
X7142857Y-86928628D02*
X7190476Y-86833390D01*
X7190476Y-86833390D02*
X7238095Y-86785771D01*
X7238095Y-86785771D02*
X7333333Y-86738152D01*
X7333333Y-86738152D02*
X7476190Y-86738152D01*
X7476190Y-86738152D02*
X7571428Y-86785771D01*
X7571428Y-86785771D02*
X7619047Y-86833390D01*
X7619047Y-86833390D02*
X7666666Y-86928628D01*
X7666666Y-86928628D02*
X7666666Y-87214342D01*
X7666666Y-87214342D02*
X7619047Y-87309580D01*
X7619047Y-87309580D02*
X7571428Y-87357200D01*
X7571428Y-87357200D02*
X7476190Y-87404819D01*
X7476190Y-87404819D02*
X7333333Y-87404819D01*
X8238095Y-87404819D02*
X8142857Y-87357200D01*
X8142857Y-87357200D02*
X8095238Y-87261961D01*
X8095238Y-87261961D02*
X8095238Y-86404819D01*
X9000000Y-87357200D02*
X8904762Y-87404819D01*
X8904762Y-87404819D02*
X8714286Y-87404819D01*
X8714286Y-87404819D02*
X8619048Y-87357200D01*
X8619048Y-87357200D02*
X8571429Y-87261961D01*
X8571429Y-87261961D02*
X8571429Y-86881009D01*
X8571429Y-86881009D02*
X8619048Y-86785771D01*
X8619048Y-86785771D02*
X8714286Y-86738152D01*
X8714286Y-86738152D02*
X8904762Y-86738152D01*
X8904762Y-86738152D02*
X9000000Y-86785771D01*
X9000000Y-86785771D02*
X9047619Y-86881009D01*
X9047619Y-86881009D02*
X9047619Y-86976247D01*
X9047619Y-86976247D02*
X8571429Y-87071485D01*
X9238096Y-87500057D02*
X10000000Y-87500057D01*
X10238096Y-87404819D02*
X10238096Y-86404819D01*
X10238096Y-86404819D02*
X10619048Y-86404819D01*
X10619048Y-86404819D02*
X10714286Y-86452438D01*
X10714286Y-86452438D02*
X10761905Y-86500057D01*
X10761905Y-86500057D02*
X10809524Y-86595295D01*
X10809524Y-86595295D02*
X10809524Y-86738152D01*
X10809524Y-86738152D02*
X10761905Y-86833390D01*
X10761905Y-86833390D02*
X10714286Y-86881009D01*
X10714286Y-86881009D02*
X10619048Y-86928628D01*
X10619048Y-86928628D02*
X10238096Y-86928628D01*
X11666667Y-87404819D02*
X11666667Y-86881009D01*
X11666667Y-86881009D02*
X11619048Y-86785771D01*
X11619048Y-86785771D02*
X11523810Y-86738152D01*
X11523810Y-86738152D02*
X11333334Y-86738152D01*
X11333334Y-86738152D02*
X11238096Y-86785771D01*
X11666667Y-87357200D02*
X11571429Y-87404819D01*
X11571429Y-87404819D02*
X11333334Y-87404819D01*
X11333334Y-87404819D02*
X11238096Y-87357200D01*
X11238096Y-87357200D02*
X11190477Y-87261961D01*
X11190477Y-87261961D02*
X11190477Y-87166723D01*
X11190477Y-87166723D02*
X11238096Y-87071485D01*
X11238096Y-87071485D02*
X11333334Y-87023866D01*
X11333334Y-87023866D02*
X11571429Y-87023866D01*
X11571429Y-87023866D02*
X11666667Y-86976247D01*
X12571429Y-87404819D02*
X12571429Y-86404819D01*
X12571429Y-87357200D02*
X12476191Y-87404819D01*
X12476191Y-87404819D02*
X12285715Y-87404819D01*
X12285715Y-87404819D02*
X12190477Y-87357200D01*
X12190477Y-87357200D02*
X12142858Y-87309580D01*
X12142858Y-87309580D02*
X12095239Y-87214342D01*
X12095239Y-87214342D02*
X12095239Y-86928628D01*
X12095239Y-86928628D02*
X12142858Y-86833390D01*
X12142858Y-86833390D02*
X12190477Y-86785771D01*
X12190477Y-86785771D02*
X12285715Y-86738152D01*
X12285715Y-86738152D02*
X12476191Y-86738152D01*
X12476191Y-86738152D02*
X12571429Y-86785771D01*
X5238095Y-81454819D02*
X5238095Y-80454819D01*
X5238095Y-80931009D02*
X5809523Y-80931009D01*
X5809523Y-81454819D02*
X5809523Y-80454819D01*
X6190476Y-80454819D02*
X6857142Y-80454819D01*
X6857142Y-80454819D02*
X6428571Y-81454819D01*
X178428571Y-87404819D02*
X178428571Y-86404819D01*
X178428571Y-86404819D02*
X178761904Y-87119104D01*
X178761904Y-87119104D02*
X179095237Y-86404819D01*
X179095237Y-86404819D02*
X179095237Y-87404819D01*
X179714285Y-87404819D02*
X179619047Y-87357200D01*
X179619047Y-87357200D02*
X179571428Y-87309580D01*
X179571428Y-87309580D02*
X179523809Y-87214342D01*
X179523809Y-87214342D02*
X179523809Y-86928628D01*
X179523809Y-86928628D02*
X179571428Y-86833390D01*
X179571428Y-86833390D02*
X179619047Y-86785771D01*
X179619047Y-86785771D02*
X179714285Y-86738152D01*
X179714285Y-86738152D02*
X179857142Y-86738152D01*
X179857142Y-86738152D02*
X179952380Y-86785771D01*
X179952380Y-86785771D02*
X179999999Y-86833390D01*
X179999999Y-86833390D02*
X180047618Y-86928628D01*
X180047618Y-86928628D02*
X180047618Y-87214342D01*
X180047618Y-87214342D02*
X179999999Y-87309580D01*
X179999999Y-87309580D02*
X179952380Y-87357200D01*
X179952380Y-87357200D02*
X179857142Y-87404819D01*
X179857142Y-87404819D02*
X179714285Y-87404819D01*
X180904761Y-86738152D02*
X180904761Y-87404819D01*
X180476190Y-86738152D02*
X180476190Y-87261961D01*
X180476190Y-87261961D02*
X180523809Y-87357200D01*
X180523809Y-87357200D02*
X180619047Y-87404819D01*
X180619047Y-87404819D02*
X180761904Y-87404819D01*
X180761904Y-87404819D02*
X180857142Y-87357200D01*
X180857142Y-87357200D02*
X180904761Y-87309580D01*
X181380952Y-86738152D02*
X181380952Y-87404819D01*
X181380952Y-86833390D02*
X181428571Y-86785771D01*
X181428571Y-86785771D02*
X181523809Y-86738152D01*
X181523809Y-86738152D02*
X181666666Y-86738152D01*
X181666666Y-86738152D02*
X181761904Y-86785771D01*
X181761904Y-86785771D02*
X181809523Y-86881009D01*
X181809523Y-86881009D02*
X181809523Y-87404819D01*
X182142857Y-86738152D02*
X182523809Y-86738152D01*
X182285714Y-86404819D02*
X182285714Y-87261961D01*
X182285714Y-87261961D02*
X182333333Y-87357200D01*
X182333333Y-87357200D02*
X182428571Y-87404819D01*
X182428571Y-87404819D02*
X182523809Y-87404819D01*
X182857143Y-87404819D02*
X182857143Y-86738152D01*
X182857143Y-86404819D02*
X182809524Y-86452438D01*
X182809524Y-86452438D02*
X182857143Y-86500057D01*
X182857143Y-86500057D02*
X182904762Y-86452438D01*
X182904762Y-86452438D02*
X182857143Y-86404819D01*
X182857143Y-86404819D02*
X182857143Y-86500057D01*
X183333333Y-86738152D02*
X183333333Y-87404819D01*
X183333333Y-86833390D02*
X183380952Y-86785771D01*
X183380952Y-86785771D02*
X183476190Y-86738152D01*
X183476190Y-86738152D02*
X183619047Y-86738152D01*
X183619047Y-86738152D02*
X183714285Y-86785771D01*
X183714285Y-86785771D02*
X183761904Y-86881009D01*
X183761904Y-86881009D02*
X183761904Y-87404819D01*
X184666666Y-86738152D02*
X184666666Y-87547676D01*
X184666666Y-87547676D02*
X184619047Y-87642914D01*
X184619047Y-87642914D02*
X184571428Y-87690533D01*
X184571428Y-87690533D02*
X184476190Y-87738152D01*
X184476190Y-87738152D02*
X184333333Y-87738152D01*
X184333333Y-87738152D02*
X184238095Y-87690533D01*
X184666666Y-87357200D02*
X184571428Y-87404819D01*
X184571428Y-87404819D02*
X184380952Y-87404819D01*
X184380952Y-87404819D02*
X184285714Y-87357200D01*
X184285714Y-87357200D02*
X184238095Y-87309580D01*
X184238095Y-87309580D02*
X184190476Y-87214342D01*
X184190476Y-87214342D02*
X184190476Y-86928628D01*
X184190476Y-86928628D02*
X184238095Y-86833390D01*
X184238095Y-86833390D02*
X184285714Y-86785771D01*
X184285714Y-86785771D02*
X184380952Y-86738152D01*
X184380952Y-86738152D02*
X184571428Y-86738152D01*
X184571428Y-86738152D02*
X184666666Y-86785771D01*
X185142857Y-87404819D02*
X185142857Y-86404819D01*
X185142857Y-86881009D02*
X185714285Y-86881009D01*
X185714285Y-87404819D02*
X185714285Y-86404819D01*
X186333333Y-87404819D02*
X186238095Y-87357200D01*
X186238095Y-87357200D02*
X186190476Y-87309580D01*
X186190476Y-87309580D02*
X186142857Y-87214342D01*
X186142857Y-87214342D02*
X186142857Y-86928628D01*
X186142857Y-86928628D02*
X186190476Y-86833390D01*
X186190476Y-86833390D02*
X186238095Y-86785771D01*
X186238095Y-86785771D02*
X186333333Y-86738152D01*
X186333333Y-86738152D02*
X186476190Y-86738152D01*
X186476190Y-86738152D02*
X186571428Y-86785771D01*
X186571428Y-86785771D02*
X186619047Y-86833390D01*
X186619047Y-86833390D02*
X186666666Y-86928628D01*
X186666666Y-86928628D02*
X186666666Y-87214342D01*
X186666666Y-87214342D02*
X186619047Y-87309580D01*
X186619047Y-87309580D02*
X186571428Y-87357200D01*
X186571428Y-87357200D02*
X186476190Y-87404819D01*
X186476190Y-87404819D02*
X186333333Y-87404819D01*
X187238095Y-87404819D02*
X187142857Y-87357200D01*
X187142857Y-87357200D02*
X187095238Y-87261961D01*
X187095238Y-87261961D02*
X187095238Y-86404819D01*
X188000000Y-87357200D02*
X187904762Y-87404819D01*
X187904762Y-87404819D02*
X187714286Y-87404819D01*
X187714286Y-87404819D02*
X187619048Y-87357200D01*
X187619048Y-87357200D02*
X187571429Y-87261961D01*
X187571429Y-87261961D02*
X187571429Y-86881009D01*
X187571429Y-86881009D02*
X187619048Y-86785771D01*
X187619048Y-86785771D02*
X187714286Y-86738152D01*
X187714286Y-86738152D02*
X187904762Y-86738152D01*
X187904762Y-86738152D02*
X188000000Y-86785771D01*
X188000000Y-86785771D02*
X188047619Y-86881009D01*
X188047619Y-86881009D02*
X188047619Y-86976247D01*
X188047619Y-86976247D02*
X187571429Y-87071485D01*
X188238096Y-87500057D02*
X189000000Y-87500057D01*
X189238096Y-87404819D02*
X189238096Y-86404819D01*
X189238096Y-86404819D02*
X189619048Y-86404819D01*
X189619048Y-86404819D02*
X189714286Y-86452438D01*
X189714286Y-86452438D02*
X189761905Y-86500057D01*
X189761905Y-86500057D02*
X189809524Y-86595295D01*
X189809524Y-86595295D02*
X189809524Y-86738152D01*
X189809524Y-86738152D02*
X189761905Y-86833390D01*
X189761905Y-86833390D02*
X189714286Y-86881009D01*
X189714286Y-86881009D02*
X189619048Y-86928628D01*
X189619048Y-86928628D02*
X189238096Y-86928628D01*
X190666667Y-87404819D02*
X190666667Y-86881009D01*
X190666667Y-86881009D02*
X190619048Y-86785771D01*
X190619048Y-86785771D02*
X190523810Y-86738152D01*
X190523810Y-86738152D02*
X190333334Y-86738152D01*
X190333334Y-86738152D02*
X190238096Y-86785771D01*
X190666667Y-87357200D02*
X190571429Y-87404819D01*
X190571429Y-87404819D02*
X190333334Y-87404819D01*
X190333334Y-87404819D02*
X190238096Y-87357200D01*
X190238096Y-87357200D02*
X190190477Y-87261961D01*
X190190477Y-87261961D02*
X190190477Y-87166723D01*
X190190477Y-87166723D02*
X190238096Y-87071485D01*
X190238096Y-87071485D02*
X190333334Y-87023866D01*
X190333334Y-87023866D02*
X190571429Y-87023866D01*
X190571429Y-87023866D02*
X190666667Y-86976247D01*
X191571429Y-87404819D02*
X191571429Y-86404819D01*
X191571429Y-87357200D02*
X191476191Y-87404819D01*
X191476191Y-87404819D02*
X191285715Y-87404819D01*
X191285715Y-87404819D02*
X191190477Y-87357200D01*
X191190477Y-87357200D02*
X191142858Y-87309580D01*
X191142858Y-87309580D02*
X191095239Y-87214342D01*
X191095239Y-87214342D02*
X191095239Y-86928628D01*
X191095239Y-86928628D02*
X191142858Y-86833390D01*
X191142858Y-86833390D02*
X191190477Y-86785771D01*
X191190477Y-86785771D02*
X191285715Y-86738152D01*
X191285715Y-86738152D02*
X191476191Y-86738152D01*
X191476191Y-86738152D02*
X191571429Y-86785771D01*
X183761905Y-81454819D02*
X183761905Y-80454819D01*
X183761905Y-80931009D02*
X184333333Y-80931009D01*
X184333333Y-81454819D02*
X184333333Y-80454819D01*
X185333333Y-81454819D02*
X184761905Y-81454819D01*
X185047619Y-81454819D02*
X185047619Y-80454819D01*
X185047619Y-80454819D02*
X184952381Y-80597676D01*
X184952381Y-80597676D02*
X184857143Y-80692914D01*
X184857143Y-80692914D02*
X184761905Y-80740533D01*
X185714286Y-80550057D02*
X185761905Y-80502438D01*
X185761905Y-80502438D02*
X185857143Y-80454819D01*
X185857143Y-80454819D02*
X186095238Y-80454819D01*
X186095238Y-80454819D02*
X186190476Y-80502438D01*
X186190476Y-80502438D02*
X186238095Y-80550057D01*
X186238095Y-80550057D02*
X186285714Y-80645295D01*
X186285714Y-80645295D02*
X186285714Y-80740533D01*
X186285714Y-80740533D02*
X186238095Y-80883390D01*
X186238095Y-80883390D02*
X185666667Y-81454819D01*
X185666667Y-81454819D02*
X186285714Y-81454819D01*
D11*
X12574318Y427618D02*
X11304318Y427618D01*
X11909080Y427618D02*
X11909080Y1153333D01*
X12574318Y1153333D02*
X11304318Y1153333D01*
X12574318Y2423333D02*
X12574318Y1697618D01*
X12574318Y2060475D02*
X11304318Y2060475D01*
X11304318Y2060475D02*
X11485746Y1939523D01*
X11485746Y1939523D02*
X11606699Y1818571D01*
X11606699Y1818571D02*
X11667175Y1697618D01*
X11304318Y2846666D02*
X11304318Y3632857D01*
X11304318Y3632857D02*
X11788127Y3209523D01*
X11788127Y3209523D02*
X11788127Y3390952D01*
X11788127Y3390952D02*
X11848603Y3511904D01*
X11848603Y3511904D02*
X11909080Y3572380D01*
X11909080Y3572380D02*
X12030032Y3632857D01*
X12030032Y3632857D02*
X12332413Y3632857D01*
X12332413Y3632857D02*
X12453365Y3572380D01*
X12453365Y3572380D02*
X12513842Y3511904D01*
X12513842Y3511904D02*
X12574318Y3390952D01*
X12574318Y3390952D02*
X12574318Y3028095D01*
X12574318Y3028095D02*
X12513842Y2907142D01*
X12513842Y2907142D02*
X12453365Y2846666D01*
D10*
X223428571Y-69404819D02*
X223428571Y-68404819D01*
X223428571Y-68404819D02*
X223761904Y-69119104D01*
X223761904Y-69119104D02*
X224095237Y-68404819D01*
X224095237Y-68404819D02*
X224095237Y-69404819D01*
X224714285Y-69404819D02*
X224619047Y-69357200D01*
X224619047Y-69357200D02*
X224571428Y-69309580D01*
X224571428Y-69309580D02*
X224523809Y-69214342D01*
X224523809Y-69214342D02*
X224523809Y-68928628D01*
X224523809Y-68928628D02*
X224571428Y-68833390D01*
X224571428Y-68833390D02*
X224619047Y-68785771D01*
X224619047Y-68785771D02*
X224714285Y-68738152D01*
X224714285Y-68738152D02*
X224857142Y-68738152D01*
X224857142Y-68738152D02*
X224952380Y-68785771D01*
X224952380Y-68785771D02*
X224999999Y-68833390D01*
X224999999Y-68833390D02*
X225047618Y-68928628D01*
X225047618Y-68928628D02*
X225047618Y-69214342D01*
X225047618Y-69214342D02*
X224999999Y-69309580D01*
X224999999Y-69309580D02*
X224952380Y-69357200D01*
X224952380Y-69357200D02*
X224857142Y-69404819D01*
X224857142Y-69404819D02*
X224714285Y-69404819D01*
X225904761Y-68738152D02*
X225904761Y-69404819D01*
X225476190Y-68738152D02*
X225476190Y-69261961D01*
X225476190Y-69261961D02*
X225523809Y-69357200D01*
X225523809Y-69357200D02*
X225619047Y-69404819D01*
X225619047Y-69404819D02*
X225761904Y-69404819D01*
X225761904Y-69404819D02*
X225857142Y-69357200D01*
X225857142Y-69357200D02*
X225904761Y-69309580D01*
X226380952Y-68738152D02*
X226380952Y-69404819D01*
X226380952Y-68833390D02*
X226428571Y-68785771D01*
X226428571Y-68785771D02*
X226523809Y-68738152D01*
X226523809Y-68738152D02*
X226666666Y-68738152D01*
X226666666Y-68738152D02*
X226761904Y-68785771D01*
X226761904Y-68785771D02*
X226809523Y-68881009D01*
X226809523Y-68881009D02*
X226809523Y-69404819D01*
X227142857Y-68738152D02*
X227523809Y-68738152D01*
X227285714Y-68404819D02*
X227285714Y-69261961D01*
X227285714Y-69261961D02*
X227333333Y-69357200D01*
X227333333Y-69357200D02*
X227428571Y-69404819D01*
X227428571Y-69404819D02*
X227523809Y-69404819D01*
X227857143Y-69404819D02*
X227857143Y-68738152D01*
X227857143Y-68404819D02*
X227809524Y-68452438D01*
X227809524Y-68452438D02*
X227857143Y-68500057D01*
X227857143Y-68500057D02*
X227904762Y-68452438D01*
X227904762Y-68452438D02*
X227857143Y-68404819D01*
X227857143Y-68404819D02*
X227857143Y-68500057D01*
X228333333Y-68738152D02*
X228333333Y-69404819D01*
X228333333Y-68833390D02*
X228380952Y-68785771D01*
X228380952Y-68785771D02*
X228476190Y-68738152D01*
X228476190Y-68738152D02*
X228619047Y-68738152D01*
X228619047Y-68738152D02*
X228714285Y-68785771D01*
X228714285Y-68785771D02*
X228761904Y-68881009D01*
X228761904Y-68881009D02*
X228761904Y-69404819D01*
X229666666Y-68738152D02*
X229666666Y-69547676D01*
X229666666Y-69547676D02*
X229619047Y-69642914D01*
X229619047Y-69642914D02*
X229571428Y-69690533D01*
X229571428Y-69690533D02*
X229476190Y-69738152D01*
X229476190Y-69738152D02*
X229333333Y-69738152D01*
X229333333Y-69738152D02*
X229238095Y-69690533D01*
X229666666Y-69357200D02*
X229571428Y-69404819D01*
X229571428Y-69404819D02*
X229380952Y-69404819D01*
X229380952Y-69404819D02*
X229285714Y-69357200D01*
X229285714Y-69357200D02*
X229238095Y-69309580D01*
X229238095Y-69309580D02*
X229190476Y-69214342D01*
X229190476Y-69214342D02*
X229190476Y-68928628D01*
X229190476Y-68928628D02*
X229238095Y-68833390D01*
X229238095Y-68833390D02*
X229285714Y-68785771D01*
X229285714Y-68785771D02*
X229380952Y-68738152D01*
X229380952Y-68738152D02*
X229571428Y-68738152D01*
X229571428Y-68738152D02*
X229666666Y-68785771D01*
X230142857Y-69404819D02*
X230142857Y-68404819D01*
X230142857Y-68881009D02*
X230714285Y-68881009D01*
X230714285Y-69404819D02*
X230714285Y-68404819D01*
X231333333Y-69404819D02*
X231238095Y-69357200D01*
X231238095Y-69357200D02*
X231190476Y-69309580D01*
X231190476Y-69309580D02*
X231142857Y-69214342D01*
X231142857Y-69214342D02*
X231142857Y-68928628D01*
X231142857Y-68928628D02*
X231190476Y-68833390D01*
X231190476Y-68833390D02*
X231238095Y-68785771D01*
X231238095Y-68785771D02*
X231333333Y-68738152D01*
X231333333Y-68738152D02*
X231476190Y-68738152D01*
X231476190Y-68738152D02*
X231571428Y-68785771D01*
X231571428Y-68785771D02*
X231619047Y-68833390D01*
X231619047Y-68833390D02*
X231666666Y-68928628D01*
X231666666Y-68928628D02*
X231666666Y-69214342D01*
X231666666Y-69214342D02*
X231619047Y-69309580D01*
X231619047Y-69309580D02*
X231571428Y-69357200D01*
X231571428Y-69357200D02*
X231476190Y-69404819D01*
X231476190Y-69404819D02*
X231333333Y-69404819D01*
X232238095Y-69404819D02*
X232142857Y-69357200D01*
X232142857Y-69357200D02*
X232095238Y-69261961D01*
X232095238Y-69261961D02*
X232095238Y-68404819D01*
X233000000Y-69357200D02*
X232904762Y-69404819D01*
X232904762Y-69404819D02*
X232714286Y-69404819D01*
X232714286Y-69404819D02*
X232619048Y-69357200D01*
X232619048Y-69357200D02*
X232571429Y-69261961D01*
X232571429Y-69261961D02*
X232571429Y-68881009D01*
X232571429Y-68881009D02*
X232619048Y-68785771D01*
X232619048Y-68785771D02*
X232714286Y-68738152D01*
X232714286Y-68738152D02*
X232904762Y-68738152D01*
X232904762Y-68738152D02*
X233000000Y-68785771D01*
X233000000Y-68785771D02*
X233047619Y-68881009D01*
X233047619Y-68881009D02*
X233047619Y-68976247D01*
X233047619Y-68976247D02*
X232571429Y-69071485D01*
X233238096Y-69500057D02*
X234000000Y-69500057D01*
X234238096Y-69404819D02*
X234238096Y-68404819D01*
X234238096Y-68404819D02*
X234619048Y-68404819D01*
X234619048Y-68404819D02*
X234714286Y-68452438D01*
X234714286Y-68452438D02*
X234761905Y-68500057D01*
X234761905Y-68500057D02*
X234809524Y-68595295D01*
X234809524Y-68595295D02*
X234809524Y-68738152D01*
X234809524Y-68738152D02*
X234761905Y-68833390D01*
X234761905Y-68833390D02*
X234714286Y-68881009D01*
X234714286Y-68881009D02*
X234619048Y-68928628D01*
X234619048Y-68928628D02*
X234238096Y-68928628D01*
X235666667Y-69404819D02*
X235666667Y-68881009D01*
X235666667Y-68881009D02*
X235619048Y-68785771D01*
X235619048Y-68785771D02*
X235523810Y-68738152D01*
X235523810Y-68738152D02*
X235333334Y-68738152D01*
X235333334Y-68738152D02*
X235238096Y-68785771D01*
X235666667Y-69357200D02*
X235571429Y-69404819D01*
X235571429Y-69404819D02*
X235333334Y-69404819D01*
X235333334Y-69404819D02*
X235238096Y-69357200D01*
X235238096Y-69357200D02*
X235190477Y-69261961D01*
X235190477Y-69261961D02*
X235190477Y-69166723D01*
X235190477Y-69166723D02*
X235238096Y-69071485D01*
X235238096Y-69071485D02*
X235333334Y-69023866D01*
X235333334Y-69023866D02*
X235571429Y-69023866D01*
X235571429Y-69023866D02*
X235666667Y-68976247D01*
X236571429Y-69404819D02*
X236571429Y-68404819D01*
X236571429Y-69357200D02*
X236476191Y-69404819D01*
X236476191Y-69404819D02*
X236285715Y-69404819D01*
X236285715Y-69404819D02*
X236190477Y-69357200D01*
X236190477Y-69357200D02*
X236142858Y-69309580D01*
X236142858Y-69309580D02*
X236095239Y-69214342D01*
X236095239Y-69214342D02*
X236095239Y-68928628D01*
X236095239Y-68928628D02*
X236142858Y-68833390D01*
X236142858Y-68833390D02*
X236190477Y-68785771D01*
X236190477Y-68785771D02*
X236285715Y-68738152D01*
X236285715Y-68738152D02*
X236476191Y-68738152D01*
X236476191Y-68738152D02*
X236571429Y-68785771D01*
X229238095Y-63454819D02*
X229238095Y-62454819D01*
X229238095Y-62931009D02*
X229809523Y-62931009D01*
X229809523Y-63454819D02*
X229809523Y-62454819D01*
X230761904Y-62454819D02*
X230285714Y-62454819D01*
X230285714Y-62454819D02*
X230238095Y-62931009D01*
X230238095Y-62931009D02*
X230285714Y-62883390D01*
X230285714Y-62883390D02*
X230380952Y-62835771D01*
X230380952Y-62835771D02*
X230619047Y-62835771D01*
X230619047Y-62835771D02*
X230714285Y-62883390D01*
X230714285Y-62883390D02*
X230761904Y-62931009D01*
X230761904Y-62931009D02*
X230809523Y-63026247D01*
X230809523Y-63026247D02*
X230809523Y-63264342D01*
X230809523Y-63264342D02*
X230761904Y-63359580D01*
X230761904Y-63359580D02*
X230714285Y-63407200D01*
X230714285Y-63407200D02*
X230619047Y-63454819D01*
X230619047Y-63454819D02*
X230380952Y-63454819D01*
X230380952Y-63454819D02*
X230285714Y-63407200D01*
X230285714Y-63407200D02*
X230238095Y-63359580D01*
X268428571Y-3404819D02*
X268428571Y-2404819D01*
X268428571Y-2404819D02*
X268761904Y-3119104D01*
X268761904Y-3119104D02*
X269095237Y-2404819D01*
X269095237Y-2404819D02*
X269095237Y-3404819D01*
X269714285Y-3404819D02*
X269619047Y-3357200D01*
X269619047Y-3357200D02*
X269571428Y-3309580D01*
X269571428Y-3309580D02*
X269523809Y-3214342D01*
X269523809Y-3214342D02*
X269523809Y-2928628D01*
X269523809Y-2928628D02*
X269571428Y-2833390D01*
X269571428Y-2833390D02*
X269619047Y-2785771D01*
X269619047Y-2785771D02*
X269714285Y-2738152D01*
X269714285Y-2738152D02*
X269857142Y-2738152D01*
X269857142Y-2738152D02*
X269952380Y-2785771D01*
X269952380Y-2785771D02*
X269999999Y-2833390D01*
X269999999Y-2833390D02*
X270047618Y-2928628D01*
X270047618Y-2928628D02*
X270047618Y-3214342D01*
X270047618Y-3214342D02*
X269999999Y-3309580D01*
X269999999Y-3309580D02*
X269952380Y-3357200D01*
X269952380Y-3357200D02*
X269857142Y-3404819D01*
X269857142Y-3404819D02*
X269714285Y-3404819D01*
X270904761Y-2738152D02*
X270904761Y-3404819D01*
X270476190Y-2738152D02*
X270476190Y-3261961D01*
X270476190Y-3261961D02*
X270523809Y-3357200D01*
X270523809Y-3357200D02*
X270619047Y-3404819D01*
X270619047Y-3404819D02*
X270761904Y-3404819D01*
X270761904Y-3404819D02*
X270857142Y-3357200D01*
X270857142Y-3357200D02*
X270904761Y-3309580D01*
X271380952Y-2738152D02*
X271380952Y-3404819D01*
X271380952Y-2833390D02*
X271428571Y-2785771D01*
X271428571Y-2785771D02*
X271523809Y-2738152D01*
X271523809Y-2738152D02*
X271666666Y-2738152D01*
X271666666Y-2738152D02*
X271761904Y-2785771D01*
X271761904Y-2785771D02*
X271809523Y-2881009D01*
X271809523Y-2881009D02*
X271809523Y-3404819D01*
X272142857Y-2738152D02*
X272523809Y-2738152D01*
X272285714Y-2404819D02*
X272285714Y-3261961D01*
X272285714Y-3261961D02*
X272333333Y-3357200D01*
X272333333Y-3357200D02*
X272428571Y-3404819D01*
X272428571Y-3404819D02*
X272523809Y-3404819D01*
X272857143Y-3404819D02*
X272857143Y-2738152D01*
X272857143Y-2404819D02*
X272809524Y-2452438D01*
X272809524Y-2452438D02*
X272857143Y-2500057D01*
X272857143Y-2500057D02*
X272904762Y-2452438D01*
X272904762Y-2452438D02*
X272857143Y-2404819D01*
X272857143Y-2404819D02*
X272857143Y-2500057D01*
X273333333Y-2738152D02*
X273333333Y-3404819D01*
X273333333Y-2833390D02*
X273380952Y-2785771D01*
X273380952Y-2785771D02*
X273476190Y-2738152D01*
X273476190Y-2738152D02*
X273619047Y-2738152D01*
X273619047Y-2738152D02*
X273714285Y-2785771D01*
X273714285Y-2785771D02*
X273761904Y-2881009D01*
X273761904Y-2881009D02*
X273761904Y-3404819D01*
X274666666Y-2738152D02*
X274666666Y-3547676D01*
X274666666Y-3547676D02*
X274619047Y-3642914D01*
X274619047Y-3642914D02*
X274571428Y-3690533D01*
X274571428Y-3690533D02*
X274476190Y-3738152D01*
X274476190Y-3738152D02*
X274333333Y-3738152D01*
X274333333Y-3738152D02*
X274238095Y-3690533D01*
X274666666Y-3357200D02*
X274571428Y-3404819D01*
X274571428Y-3404819D02*
X274380952Y-3404819D01*
X274380952Y-3404819D02*
X274285714Y-3357200D01*
X274285714Y-3357200D02*
X274238095Y-3309580D01*
X274238095Y-3309580D02*
X274190476Y-3214342D01*
X274190476Y-3214342D02*
X274190476Y-2928628D01*
X274190476Y-2928628D02*
X274238095Y-2833390D01*
X274238095Y-2833390D02*
X274285714Y-2785771D01*
X274285714Y-2785771D02*
X274380952Y-2738152D01*
X274380952Y-2738152D02*
X274571428Y-2738152D01*
X274571428Y-2738152D02*
X274666666Y-2785771D01*
X275142857Y-3404819D02*
X275142857Y-2404819D01*
X275142857Y-2881009D02*
X275714285Y-2881009D01*
X275714285Y-3404819D02*
X275714285Y-2404819D01*
X276333333Y-3404819D02*
X276238095Y-3357200D01*
X276238095Y-3357200D02*
X276190476Y-3309580D01*
X276190476Y-3309580D02*
X276142857Y-3214342D01*
X276142857Y-3214342D02*
X276142857Y-2928628D01*
X276142857Y-2928628D02*
X276190476Y-2833390D01*
X276190476Y-2833390D02*
X276238095Y-2785771D01*
X276238095Y-2785771D02*
X276333333Y-2738152D01*
X276333333Y-2738152D02*
X276476190Y-2738152D01*
X276476190Y-2738152D02*
X276571428Y-2785771D01*
X276571428Y-2785771D02*
X276619047Y-2833390D01*
X276619047Y-2833390D02*
X276666666Y-2928628D01*
X276666666Y-2928628D02*
X276666666Y-3214342D01*
X276666666Y-3214342D02*
X276619047Y-3309580D01*
X276619047Y-3309580D02*
X276571428Y-3357200D01*
X276571428Y-3357200D02*
X276476190Y-3404819D01*
X276476190Y-3404819D02*
X276333333Y-3404819D01*
X277238095Y-3404819D02*
X277142857Y-3357200D01*
X277142857Y-3357200D02*
X277095238Y-3261961D01*
X277095238Y-3261961D02*
X277095238Y-2404819D01*
X278000000Y-3357200D02*
X277904762Y-3404819D01*
X277904762Y-3404819D02*
X277714286Y-3404819D01*
X277714286Y-3404819D02*
X277619048Y-3357200D01*
X277619048Y-3357200D02*
X277571429Y-3261961D01*
X277571429Y-3261961D02*
X277571429Y-2881009D01*
X277571429Y-2881009D02*
X277619048Y-2785771D01*
X277619048Y-2785771D02*
X277714286Y-2738152D01*
X277714286Y-2738152D02*
X277904762Y-2738152D01*
X277904762Y-2738152D02*
X278000000Y-2785771D01*
X278000000Y-2785771D02*
X278047619Y-2881009D01*
X278047619Y-2881009D02*
X278047619Y-2976247D01*
X278047619Y-2976247D02*
X277571429Y-3071485D01*
X278238096Y-3500057D02*
X279000000Y-3500057D01*
X279238096Y-3404819D02*
X279238096Y-2404819D01*
X279238096Y-2404819D02*
X279619048Y-2404819D01*
X279619048Y-2404819D02*
X279714286Y-2452438D01*
X279714286Y-2452438D02*
X279761905Y-2500057D01*
X279761905Y-2500057D02*
X279809524Y-2595295D01*
X279809524Y-2595295D02*
X279809524Y-2738152D01*
X279809524Y-2738152D02*
X279761905Y-2833390D01*
X279761905Y-2833390D02*
X279714286Y-2881009D01*
X279714286Y-2881009D02*
X279619048Y-2928628D01*
X279619048Y-2928628D02*
X279238096Y-2928628D01*
X280666667Y-3404819D02*
X280666667Y-2881009D01*
X280666667Y-2881009D02*
X280619048Y-2785771D01*
X280619048Y-2785771D02*
X280523810Y-2738152D01*
X280523810Y-2738152D02*
X280333334Y-2738152D01*
X280333334Y-2738152D02*
X280238096Y-2785771D01*
X280666667Y-3357200D02*
X280571429Y-3404819D01*
X280571429Y-3404819D02*
X280333334Y-3404819D01*
X280333334Y-3404819D02*
X280238096Y-3357200D01*
X280238096Y-3357200D02*
X280190477Y-3261961D01*
X280190477Y-3261961D02*
X280190477Y-3166723D01*
X280190477Y-3166723D02*
X280238096Y-3071485D01*
X280238096Y-3071485D02*
X280333334Y-3023866D01*
X280333334Y-3023866D02*
X280571429Y-3023866D01*
X280571429Y-3023866D02*
X280666667Y-2976247D01*
X281571429Y-3404819D02*
X281571429Y-2404819D01*
X281571429Y-3357200D02*
X281476191Y-3404819D01*
X281476191Y-3404819D02*
X281285715Y-3404819D01*
X281285715Y-3404819D02*
X281190477Y-3357200D01*
X281190477Y-3357200D02*
X281142858Y-3309580D01*
X281142858Y-3309580D02*
X281095239Y-3214342D01*
X281095239Y-3214342D02*
X281095239Y-2928628D01*
X281095239Y-2928628D02*
X281142858Y-2833390D01*
X281142858Y-2833390D02*
X281190477Y-2785771D01*
X281190477Y-2785771D02*
X281285715Y-2738152D01*
X281285715Y-2738152D02*
X281476191Y-2738152D01*
X281476191Y-2738152D02*
X281571429Y-2785771D01*
X273761905Y2545180D02*
X273761905Y3545180D01*
X273761905Y3068990D02*
X274333333Y3068990D01*
X274333333Y2545180D02*
X274333333Y3545180D01*
X275333333Y2545180D02*
X274761905Y2545180D01*
X275047619Y2545180D02*
X275047619Y3545180D01*
X275047619Y3545180D02*
X274952381Y3402323D01*
X274952381Y3402323D02*
X274857143Y3307085D01*
X274857143Y3307085D02*
X274761905Y3259466D01*
X275952381Y3545180D02*
X276047619Y3545180D01*
X276047619Y3545180D02*
X276142857Y3497561D01*
X276142857Y3497561D02*
X276190476Y3449942D01*
X276190476Y3449942D02*
X276238095Y3354704D01*
X276238095Y3354704D02*
X276285714Y3164228D01*
X276285714Y3164228D02*
X276285714Y2926133D01*
X276285714Y2926133D02*
X276238095Y2735657D01*
X276238095Y2735657D02*
X276190476Y2640419D01*
X276190476Y2640419D02*
X276142857Y2592800D01*
X276142857Y2592800D02*
X276047619Y2545180D01*
X276047619Y2545180D02*
X275952381Y2545180D01*
X275952381Y2545180D02*
X275857143Y2592800D01*
X275857143Y2592800D02*
X275809524Y2640419D01*
X275809524Y2640419D02*
X275761905Y2735657D01*
X275761905Y2735657D02*
X275714286Y2926133D01*
X275714286Y2926133D02*
X275714286Y3164228D01*
X275714286Y3164228D02*
X275761905Y3354704D01*
X275761905Y3354704D02*
X275809524Y3449942D01*
X275809524Y3449942D02*
X275857143Y3497561D01*
X275857143Y3497561D02*
X275952381Y3545180D01*
D11*
X163427618Y-29574318D02*
X163427618Y-28304318D01*
X163427618Y-28909080D02*
X164153333Y-28909080D01*
X164153333Y-29574318D02*
X164153333Y-28304318D01*
X164697618Y-28425270D02*
X164758094Y-28364794D01*
X164758094Y-28364794D02*
X164879047Y-28304318D01*
X164879047Y-28304318D02*
X165181428Y-28304318D01*
X165181428Y-28304318D02*
X165302380Y-28364794D01*
X165302380Y-28364794D02*
X165362856Y-28425270D01*
X165362856Y-28425270D02*
X165423333Y-28546222D01*
X165423333Y-28546222D02*
X165423333Y-28667175D01*
X165423333Y-28667175D02*
X165362856Y-28848603D01*
X165362856Y-28848603D02*
X164637142Y-29574318D01*
X164637142Y-29574318D02*
X165423333Y-29574318D01*
X166209523Y-28304318D02*
X166330476Y-28304318D01*
X166330476Y-28304318D02*
X166451428Y-28364794D01*
X166451428Y-28364794D02*
X166511904Y-28425270D01*
X166511904Y-28425270D02*
X166572380Y-28546222D01*
X166572380Y-28546222D02*
X166632857Y-28788127D01*
X166632857Y-28788127D02*
X166632857Y-29090508D01*
X166632857Y-29090508D02*
X166572380Y-29332413D01*
X166572380Y-29332413D02*
X166511904Y-29453365D01*
X166511904Y-29453365D02*
X166451428Y-29513842D01*
X166451428Y-29513842D02*
X166330476Y-29574318D01*
X166330476Y-29574318D02*
X166209523Y-29574318D01*
X166209523Y-29574318D02*
X166088571Y-29513842D01*
X166088571Y-29513842D02*
X166028095Y-29453365D01*
X166028095Y-29453365D02*
X165967618Y-29332413D01*
X165967618Y-29332413D02*
X165907142Y-29090508D01*
X165907142Y-29090508D02*
X165907142Y-28788127D01*
X165907142Y-28788127D02*
X165967618Y-28546222D01*
X165967618Y-28546222D02*
X166028095Y-28425270D01*
X166028095Y-28425270D02*
X166088571Y-28364794D01*
X166088571Y-28364794D02*
X166209523Y-28304318D01*
D10*
X43428571Y-69454819D02*
X43428571Y-68454819D01*
X43428571Y-68454819D02*
X43761904Y-69169104D01*
X43761904Y-69169104D02*
X44095237Y-68454819D01*
X44095237Y-68454819D02*
X44095237Y-69454819D01*
X44714285Y-69454819D02*
X44619047Y-69407200D01*
X44619047Y-69407200D02*
X44571428Y-69359580D01*
X44571428Y-69359580D02*
X44523809Y-69264342D01*
X44523809Y-69264342D02*
X44523809Y-68978628D01*
X44523809Y-68978628D02*
X44571428Y-68883390D01*
X44571428Y-68883390D02*
X44619047Y-68835771D01*
X44619047Y-68835771D02*
X44714285Y-68788152D01*
X44714285Y-68788152D02*
X44857142Y-68788152D01*
X44857142Y-68788152D02*
X44952380Y-68835771D01*
X44952380Y-68835771D02*
X44999999Y-68883390D01*
X44999999Y-68883390D02*
X45047618Y-68978628D01*
X45047618Y-68978628D02*
X45047618Y-69264342D01*
X45047618Y-69264342D02*
X44999999Y-69359580D01*
X44999999Y-69359580D02*
X44952380Y-69407200D01*
X44952380Y-69407200D02*
X44857142Y-69454819D01*
X44857142Y-69454819D02*
X44714285Y-69454819D01*
X45904761Y-68788152D02*
X45904761Y-69454819D01*
X45476190Y-68788152D02*
X45476190Y-69311961D01*
X45476190Y-69311961D02*
X45523809Y-69407200D01*
X45523809Y-69407200D02*
X45619047Y-69454819D01*
X45619047Y-69454819D02*
X45761904Y-69454819D01*
X45761904Y-69454819D02*
X45857142Y-69407200D01*
X45857142Y-69407200D02*
X45904761Y-69359580D01*
X46380952Y-68788152D02*
X46380952Y-69454819D01*
X46380952Y-68883390D02*
X46428571Y-68835771D01*
X46428571Y-68835771D02*
X46523809Y-68788152D01*
X46523809Y-68788152D02*
X46666666Y-68788152D01*
X46666666Y-68788152D02*
X46761904Y-68835771D01*
X46761904Y-68835771D02*
X46809523Y-68931009D01*
X46809523Y-68931009D02*
X46809523Y-69454819D01*
X47142857Y-68788152D02*
X47523809Y-68788152D01*
X47285714Y-68454819D02*
X47285714Y-69311961D01*
X47285714Y-69311961D02*
X47333333Y-69407200D01*
X47333333Y-69407200D02*
X47428571Y-69454819D01*
X47428571Y-69454819D02*
X47523809Y-69454819D01*
X47857143Y-69454819D02*
X47857143Y-68788152D01*
X47857143Y-68454819D02*
X47809524Y-68502438D01*
X47809524Y-68502438D02*
X47857143Y-68550057D01*
X47857143Y-68550057D02*
X47904762Y-68502438D01*
X47904762Y-68502438D02*
X47857143Y-68454819D01*
X47857143Y-68454819D02*
X47857143Y-68550057D01*
X48333333Y-68788152D02*
X48333333Y-69454819D01*
X48333333Y-68883390D02*
X48380952Y-68835771D01*
X48380952Y-68835771D02*
X48476190Y-68788152D01*
X48476190Y-68788152D02*
X48619047Y-68788152D01*
X48619047Y-68788152D02*
X48714285Y-68835771D01*
X48714285Y-68835771D02*
X48761904Y-68931009D01*
X48761904Y-68931009D02*
X48761904Y-69454819D01*
X49666666Y-68788152D02*
X49666666Y-69597676D01*
X49666666Y-69597676D02*
X49619047Y-69692914D01*
X49619047Y-69692914D02*
X49571428Y-69740533D01*
X49571428Y-69740533D02*
X49476190Y-69788152D01*
X49476190Y-69788152D02*
X49333333Y-69788152D01*
X49333333Y-69788152D02*
X49238095Y-69740533D01*
X49666666Y-69407200D02*
X49571428Y-69454819D01*
X49571428Y-69454819D02*
X49380952Y-69454819D01*
X49380952Y-69454819D02*
X49285714Y-69407200D01*
X49285714Y-69407200D02*
X49238095Y-69359580D01*
X49238095Y-69359580D02*
X49190476Y-69264342D01*
X49190476Y-69264342D02*
X49190476Y-68978628D01*
X49190476Y-68978628D02*
X49238095Y-68883390D01*
X49238095Y-68883390D02*
X49285714Y-68835771D01*
X49285714Y-68835771D02*
X49380952Y-68788152D01*
X49380952Y-68788152D02*
X49571428Y-68788152D01*
X49571428Y-68788152D02*
X49666666Y-68835771D01*
X50142857Y-69454819D02*
X50142857Y-68454819D01*
X50142857Y-68931009D02*
X50714285Y-68931009D01*
X50714285Y-69454819D02*
X50714285Y-68454819D01*
X51333333Y-69454819D02*
X51238095Y-69407200D01*
X51238095Y-69407200D02*
X51190476Y-69359580D01*
X51190476Y-69359580D02*
X51142857Y-69264342D01*
X51142857Y-69264342D02*
X51142857Y-68978628D01*
X51142857Y-68978628D02*
X51190476Y-68883390D01*
X51190476Y-68883390D02*
X51238095Y-68835771D01*
X51238095Y-68835771D02*
X51333333Y-68788152D01*
X51333333Y-68788152D02*
X51476190Y-68788152D01*
X51476190Y-68788152D02*
X51571428Y-68835771D01*
X51571428Y-68835771D02*
X51619047Y-68883390D01*
X51619047Y-68883390D02*
X51666666Y-68978628D01*
X51666666Y-68978628D02*
X51666666Y-69264342D01*
X51666666Y-69264342D02*
X51619047Y-69359580D01*
X51619047Y-69359580D02*
X51571428Y-69407200D01*
X51571428Y-69407200D02*
X51476190Y-69454819D01*
X51476190Y-69454819D02*
X51333333Y-69454819D01*
X52238095Y-69454819D02*
X52142857Y-69407200D01*
X52142857Y-69407200D02*
X52095238Y-69311961D01*
X52095238Y-69311961D02*
X52095238Y-68454819D01*
X53000000Y-69407200D02*
X52904762Y-69454819D01*
X52904762Y-69454819D02*
X52714286Y-69454819D01*
X52714286Y-69454819D02*
X52619048Y-69407200D01*
X52619048Y-69407200D02*
X52571429Y-69311961D01*
X52571429Y-69311961D02*
X52571429Y-68931009D01*
X52571429Y-68931009D02*
X52619048Y-68835771D01*
X52619048Y-68835771D02*
X52714286Y-68788152D01*
X52714286Y-68788152D02*
X52904762Y-68788152D01*
X52904762Y-68788152D02*
X53000000Y-68835771D01*
X53000000Y-68835771D02*
X53047619Y-68931009D01*
X53047619Y-68931009D02*
X53047619Y-69026247D01*
X53047619Y-69026247D02*
X52571429Y-69121485D01*
X53238096Y-69550057D02*
X54000000Y-69550057D01*
X54238096Y-69454819D02*
X54238096Y-68454819D01*
X54238096Y-68454819D02*
X54619048Y-68454819D01*
X54619048Y-68454819D02*
X54714286Y-68502438D01*
X54714286Y-68502438D02*
X54761905Y-68550057D01*
X54761905Y-68550057D02*
X54809524Y-68645295D01*
X54809524Y-68645295D02*
X54809524Y-68788152D01*
X54809524Y-68788152D02*
X54761905Y-68883390D01*
X54761905Y-68883390D02*
X54714286Y-68931009D01*
X54714286Y-68931009D02*
X54619048Y-68978628D01*
X54619048Y-68978628D02*
X54238096Y-68978628D01*
X55666667Y-69454819D02*
X55666667Y-68931009D01*
X55666667Y-68931009D02*
X55619048Y-68835771D01*
X55619048Y-68835771D02*
X55523810Y-68788152D01*
X55523810Y-68788152D02*
X55333334Y-68788152D01*
X55333334Y-68788152D02*
X55238096Y-68835771D01*
X55666667Y-69407200D02*
X55571429Y-69454819D01*
X55571429Y-69454819D02*
X55333334Y-69454819D01*
X55333334Y-69454819D02*
X55238096Y-69407200D01*
X55238096Y-69407200D02*
X55190477Y-69311961D01*
X55190477Y-69311961D02*
X55190477Y-69216723D01*
X55190477Y-69216723D02*
X55238096Y-69121485D01*
X55238096Y-69121485D02*
X55333334Y-69073866D01*
X55333334Y-69073866D02*
X55571429Y-69073866D01*
X55571429Y-69073866D02*
X55666667Y-69026247D01*
X56571429Y-69454819D02*
X56571429Y-68454819D01*
X56571429Y-69407200D02*
X56476191Y-69454819D01*
X56476191Y-69454819D02*
X56285715Y-69454819D01*
X56285715Y-69454819D02*
X56190477Y-69407200D01*
X56190477Y-69407200D02*
X56142858Y-69359580D01*
X56142858Y-69359580D02*
X56095239Y-69264342D01*
X56095239Y-69264342D02*
X56095239Y-68978628D01*
X56095239Y-68978628D02*
X56142858Y-68883390D01*
X56142858Y-68883390D02*
X56190477Y-68835771D01*
X56190477Y-68835771D02*
X56285715Y-68788152D01*
X56285715Y-68788152D02*
X56476191Y-68788152D01*
X56476191Y-68788152D02*
X56571429Y-68835771D01*
X49238095Y-63454819D02*
X49238095Y-62454819D01*
X49238095Y-62931009D02*
X49809523Y-62931009D01*
X49809523Y-63454819D02*
X49809523Y-62454819D01*
X50809523Y-63454819D02*
X50238095Y-63454819D01*
X50523809Y-63454819D02*
X50523809Y-62454819D01*
X50523809Y-62454819D02*
X50428571Y-62597676D01*
X50428571Y-62597676D02*
X50333333Y-62692914D01*
X50333333Y-62692914D02*
X50238095Y-62740533D01*
X43428571Y-41454819D02*
X43428571Y-40454819D01*
X43428571Y-40454819D02*
X43761904Y-41169104D01*
X43761904Y-41169104D02*
X44095237Y-40454819D01*
X44095237Y-40454819D02*
X44095237Y-41454819D01*
X44714285Y-41454819D02*
X44619047Y-41407200D01*
X44619047Y-41407200D02*
X44571428Y-41359580D01*
X44571428Y-41359580D02*
X44523809Y-41264342D01*
X44523809Y-41264342D02*
X44523809Y-40978628D01*
X44523809Y-40978628D02*
X44571428Y-40883390D01*
X44571428Y-40883390D02*
X44619047Y-40835771D01*
X44619047Y-40835771D02*
X44714285Y-40788152D01*
X44714285Y-40788152D02*
X44857142Y-40788152D01*
X44857142Y-40788152D02*
X44952380Y-40835771D01*
X44952380Y-40835771D02*
X44999999Y-40883390D01*
X44999999Y-40883390D02*
X45047618Y-40978628D01*
X45047618Y-40978628D02*
X45047618Y-41264342D01*
X45047618Y-41264342D02*
X44999999Y-41359580D01*
X44999999Y-41359580D02*
X44952380Y-41407200D01*
X44952380Y-41407200D02*
X44857142Y-41454819D01*
X44857142Y-41454819D02*
X44714285Y-41454819D01*
X45904761Y-40788152D02*
X45904761Y-41454819D01*
X45476190Y-40788152D02*
X45476190Y-41311961D01*
X45476190Y-41311961D02*
X45523809Y-41407200D01*
X45523809Y-41407200D02*
X45619047Y-41454819D01*
X45619047Y-41454819D02*
X45761904Y-41454819D01*
X45761904Y-41454819D02*
X45857142Y-41407200D01*
X45857142Y-41407200D02*
X45904761Y-41359580D01*
X46380952Y-40788152D02*
X46380952Y-41454819D01*
X46380952Y-40883390D02*
X46428571Y-40835771D01*
X46428571Y-40835771D02*
X46523809Y-40788152D01*
X46523809Y-40788152D02*
X46666666Y-40788152D01*
X46666666Y-40788152D02*
X46761904Y-40835771D01*
X46761904Y-40835771D02*
X46809523Y-40931009D01*
X46809523Y-40931009D02*
X46809523Y-41454819D01*
X47142857Y-40788152D02*
X47523809Y-40788152D01*
X47285714Y-40454819D02*
X47285714Y-41311961D01*
X47285714Y-41311961D02*
X47333333Y-41407200D01*
X47333333Y-41407200D02*
X47428571Y-41454819D01*
X47428571Y-41454819D02*
X47523809Y-41454819D01*
X47857143Y-41454819D02*
X47857143Y-40788152D01*
X47857143Y-40454819D02*
X47809524Y-40502438D01*
X47809524Y-40502438D02*
X47857143Y-40550057D01*
X47857143Y-40550057D02*
X47904762Y-40502438D01*
X47904762Y-40502438D02*
X47857143Y-40454819D01*
X47857143Y-40454819D02*
X47857143Y-40550057D01*
X48333333Y-40788152D02*
X48333333Y-41454819D01*
X48333333Y-40883390D02*
X48380952Y-40835771D01*
X48380952Y-40835771D02*
X48476190Y-40788152D01*
X48476190Y-40788152D02*
X48619047Y-40788152D01*
X48619047Y-40788152D02*
X48714285Y-40835771D01*
X48714285Y-40835771D02*
X48761904Y-40931009D01*
X48761904Y-40931009D02*
X48761904Y-41454819D01*
X49666666Y-40788152D02*
X49666666Y-41597676D01*
X49666666Y-41597676D02*
X49619047Y-41692914D01*
X49619047Y-41692914D02*
X49571428Y-41740533D01*
X49571428Y-41740533D02*
X49476190Y-41788152D01*
X49476190Y-41788152D02*
X49333333Y-41788152D01*
X49333333Y-41788152D02*
X49238095Y-41740533D01*
X49666666Y-41407200D02*
X49571428Y-41454819D01*
X49571428Y-41454819D02*
X49380952Y-41454819D01*
X49380952Y-41454819D02*
X49285714Y-41407200D01*
X49285714Y-41407200D02*
X49238095Y-41359580D01*
X49238095Y-41359580D02*
X49190476Y-41264342D01*
X49190476Y-41264342D02*
X49190476Y-40978628D01*
X49190476Y-40978628D02*
X49238095Y-40883390D01*
X49238095Y-40883390D02*
X49285714Y-40835771D01*
X49285714Y-40835771D02*
X49380952Y-40788152D01*
X49380952Y-40788152D02*
X49571428Y-40788152D01*
X49571428Y-40788152D02*
X49666666Y-40835771D01*
X50142857Y-41454819D02*
X50142857Y-40454819D01*
X50142857Y-40931009D02*
X50714285Y-40931009D01*
X50714285Y-41454819D02*
X50714285Y-40454819D01*
X51333333Y-41454819D02*
X51238095Y-41407200D01*
X51238095Y-41407200D02*
X51190476Y-41359580D01*
X51190476Y-41359580D02*
X51142857Y-41264342D01*
X51142857Y-41264342D02*
X51142857Y-40978628D01*
X51142857Y-40978628D02*
X51190476Y-40883390D01*
X51190476Y-40883390D02*
X51238095Y-40835771D01*
X51238095Y-40835771D02*
X51333333Y-40788152D01*
X51333333Y-40788152D02*
X51476190Y-40788152D01*
X51476190Y-40788152D02*
X51571428Y-40835771D01*
X51571428Y-40835771D02*
X51619047Y-40883390D01*
X51619047Y-40883390D02*
X51666666Y-40978628D01*
X51666666Y-40978628D02*
X51666666Y-41264342D01*
X51666666Y-41264342D02*
X51619047Y-41359580D01*
X51619047Y-41359580D02*
X51571428Y-41407200D01*
X51571428Y-41407200D02*
X51476190Y-41454819D01*
X51476190Y-41454819D02*
X51333333Y-41454819D01*
X52238095Y-41454819D02*
X52142857Y-41407200D01*
X52142857Y-41407200D02*
X52095238Y-41311961D01*
X52095238Y-41311961D02*
X52095238Y-40454819D01*
X53000000Y-41407200D02*
X52904762Y-41454819D01*
X52904762Y-41454819D02*
X52714286Y-41454819D01*
X52714286Y-41454819D02*
X52619048Y-41407200D01*
X52619048Y-41407200D02*
X52571429Y-41311961D01*
X52571429Y-41311961D02*
X52571429Y-40931009D01*
X52571429Y-40931009D02*
X52619048Y-40835771D01*
X52619048Y-40835771D02*
X52714286Y-40788152D01*
X52714286Y-40788152D02*
X52904762Y-40788152D01*
X52904762Y-40788152D02*
X53000000Y-40835771D01*
X53000000Y-40835771D02*
X53047619Y-40931009D01*
X53047619Y-40931009D02*
X53047619Y-41026247D01*
X53047619Y-41026247D02*
X52571429Y-41121485D01*
X53238096Y-41550057D02*
X54000000Y-41550057D01*
X54238096Y-41454819D02*
X54238096Y-40454819D01*
X54238096Y-40454819D02*
X54619048Y-40454819D01*
X54619048Y-40454819D02*
X54714286Y-40502438D01*
X54714286Y-40502438D02*
X54761905Y-40550057D01*
X54761905Y-40550057D02*
X54809524Y-40645295D01*
X54809524Y-40645295D02*
X54809524Y-40788152D01*
X54809524Y-40788152D02*
X54761905Y-40883390D01*
X54761905Y-40883390D02*
X54714286Y-40931009D01*
X54714286Y-40931009D02*
X54619048Y-40978628D01*
X54619048Y-40978628D02*
X54238096Y-40978628D01*
X55666667Y-41454819D02*
X55666667Y-40931009D01*
X55666667Y-40931009D02*
X55619048Y-40835771D01*
X55619048Y-40835771D02*
X55523810Y-40788152D01*
X55523810Y-40788152D02*
X55333334Y-40788152D01*
X55333334Y-40788152D02*
X55238096Y-40835771D01*
X55666667Y-41407200D02*
X55571429Y-41454819D01*
X55571429Y-41454819D02*
X55333334Y-41454819D01*
X55333334Y-41454819D02*
X55238096Y-41407200D01*
X55238096Y-41407200D02*
X55190477Y-41311961D01*
X55190477Y-41311961D02*
X55190477Y-41216723D01*
X55190477Y-41216723D02*
X55238096Y-41121485D01*
X55238096Y-41121485D02*
X55333334Y-41073866D01*
X55333334Y-41073866D02*
X55571429Y-41073866D01*
X55571429Y-41073866D02*
X55666667Y-41026247D01*
X56571429Y-41454819D02*
X56571429Y-40454819D01*
X56571429Y-41407200D02*
X56476191Y-41454819D01*
X56476191Y-41454819D02*
X56285715Y-41454819D01*
X56285715Y-41454819D02*
X56190477Y-41407200D01*
X56190477Y-41407200D02*
X56142858Y-41359580D01*
X56142858Y-41359580D02*
X56095239Y-41264342D01*
X56095239Y-41264342D02*
X56095239Y-40978628D01*
X56095239Y-40978628D02*
X56142858Y-40883390D01*
X56142858Y-40883390D02*
X56190477Y-40835771D01*
X56190477Y-40835771D02*
X56285715Y-40788152D01*
X56285715Y-40788152D02*
X56476191Y-40788152D01*
X56476191Y-40788152D02*
X56571429Y-40835771D01*
X49238095Y-35454819D02*
X49238095Y-34454819D01*
X49238095Y-34931009D02*
X49809523Y-34931009D01*
X49809523Y-35454819D02*
X49809523Y-34454819D01*
X50238095Y-34550057D02*
X50285714Y-34502438D01*
X50285714Y-34502438D02*
X50380952Y-34454819D01*
X50380952Y-34454819D02*
X50619047Y-34454819D01*
X50619047Y-34454819D02*
X50714285Y-34502438D01*
X50714285Y-34502438D02*
X50761904Y-34550057D01*
X50761904Y-34550057D02*
X50809523Y-34645295D01*
X50809523Y-34645295D02*
X50809523Y-34740533D01*
X50809523Y-34740533D02*
X50761904Y-34883390D01*
X50761904Y-34883390D02*
X50190476Y-35454819D01*
X50190476Y-35454819D02*
X50809523Y-35454819D01*
X223428571Y-41404819D02*
X223428571Y-40404819D01*
X223428571Y-40404819D02*
X223761904Y-41119104D01*
X223761904Y-41119104D02*
X224095237Y-40404819D01*
X224095237Y-40404819D02*
X224095237Y-41404819D01*
X224714285Y-41404819D02*
X224619047Y-41357200D01*
X224619047Y-41357200D02*
X224571428Y-41309580D01*
X224571428Y-41309580D02*
X224523809Y-41214342D01*
X224523809Y-41214342D02*
X224523809Y-40928628D01*
X224523809Y-40928628D02*
X224571428Y-40833390D01*
X224571428Y-40833390D02*
X224619047Y-40785771D01*
X224619047Y-40785771D02*
X224714285Y-40738152D01*
X224714285Y-40738152D02*
X224857142Y-40738152D01*
X224857142Y-40738152D02*
X224952380Y-40785771D01*
X224952380Y-40785771D02*
X224999999Y-40833390D01*
X224999999Y-40833390D02*
X225047618Y-40928628D01*
X225047618Y-40928628D02*
X225047618Y-41214342D01*
X225047618Y-41214342D02*
X224999999Y-41309580D01*
X224999999Y-41309580D02*
X224952380Y-41357200D01*
X224952380Y-41357200D02*
X224857142Y-41404819D01*
X224857142Y-41404819D02*
X224714285Y-41404819D01*
X225904761Y-40738152D02*
X225904761Y-41404819D01*
X225476190Y-40738152D02*
X225476190Y-41261961D01*
X225476190Y-41261961D02*
X225523809Y-41357200D01*
X225523809Y-41357200D02*
X225619047Y-41404819D01*
X225619047Y-41404819D02*
X225761904Y-41404819D01*
X225761904Y-41404819D02*
X225857142Y-41357200D01*
X225857142Y-41357200D02*
X225904761Y-41309580D01*
X226380952Y-40738152D02*
X226380952Y-41404819D01*
X226380952Y-40833390D02*
X226428571Y-40785771D01*
X226428571Y-40785771D02*
X226523809Y-40738152D01*
X226523809Y-40738152D02*
X226666666Y-40738152D01*
X226666666Y-40738152D02*
X226761904Y-40785771D01*
X226761904Y-40785771D02*
X226809523Y-40881009D01*
X226809523Y-40881009D02*
X226809523Y-41404819D01*
X227142857Y-40738152D02*
X227523809Y-40738152D01*
X227285714Y-40404819D02*
X227285714Y-41261961D01*
X227285714Y-41261961D02*
X227333333Y-41357200D01*
X227333333Y-41357200D02*
X227428571Y-41404819D01*
X227428571Y-41404819D02*
X227523809Y-41404819D01*
X227857143Y-41404819D02*
X227857143Y-40738152D01*
X227857143Y-40404819D02*
X227809524Y-40452438D01*
X227809524Y-40452438D02*
X227857143Y-40500057D01*
X227857143Y-40500057D02*
X227904762Y-40452438D01*
X227904762Y-40452438D02*
X227857143Y-40404819D01*
X227857143Y-40404819D02*
X227857143Y-40500057D01*
X228333333Y-40738152D02*
X228333333Y-41404819D01*
X228333333Y-40833390D02*
X228380952Y-40785771D01*
X228380952Y-40785771D02*
X228476190Y-40738152D01*
X228476190Y-40738152D02*
X228619047Y-40738152D01*
X228619047Y-40738152D02*
X228714285Y-40785771D01*
X228714285Y-40785771D02*
X228761904Y-40881009D01*
X228761904Y-40881009D02*
X228761904Y-41404819D01*
X229666666Y-40738152D02*
X229666666Y-41547676D01*
X229666666Y-41547676D02*
X229619047Y-41642914D01*
X229619047Y-41642914D02*
X229571428Y-41690533D01*
X229571428Y-41690533D02*
X229476190Y-41738152D01*
X229476190Y-41738152D02*
X229333333Y-41738152D01*
X229333333Y-41738152D02*
X229238095Y-41690533D01*
X229666666Y-41357200D02*
X229571428Y-41404819D01*
X229571428Y-41404819D02*
X229380952Y-41404819D01*
X229380952Y-41404819D02*
X229285714Y-41357200D01*
X229285714Y-41357200D02*
X229238095Y-41309580D01*
X229238095Y-41309580D02*
X229190476Y-41214342D01*
X229190476Y-41214342D02*
X229190476Y-40928628D01*
X229190476Y-40928628D02*
X229238095Y-40833390D01*
X229238095Y-40833390D02*
X229285714Y-40785771D01*
X229285714Y-40785771D02*
X229380952Y-40738152D01*
X229380952Y-40738152D02*
X229571428Y-40738152D01*
X229571428Y-40738152D02*
X229666666Y-40785771D01*
X230142857Y-41404819D02*
X230142857Y-40404819D01*
X230142857Y-40881009D02*
X230714285Y-40881009D01*
X230714285Y-41404819D02*
X230714285Y-40404819D01*
X231333333Y-41404819D02*
X231238095Y-41357200D01*
X231238095Y-41357200D02*
X231190476Y-41309580D01*
X231190476Y-41309580D02*
X231142857Y-41214342D01*
X231142857Y-41214342D02*
X231142857Y-40928628D01*
X231142857Y-40928628D02*
X231190476Y-40833390D01*
X231190476Y-40833390D02*
X231238095Y-40785771D01*
X231238095Y-40785771D02*
X231333333Y-40738152D01*
X231333333Y-40738152D02*
X231476190Y-40738152D01*
X231476190Y-40738152D02*
X231571428Y-40785771D01*
X231571428Y-40785771D02*
X231619047Y-40833390D01*
X231619047Y-40833390D02*
X231666666Y-40928628D01*
X231666666Y-40928628D02*
X231666666Y-41214342D01*
X231666666Y-41214342D02*
X231619047Y-41309580D01*
X231619047Y-41309580D02*
X231571428Y-41357200D01*
X231571428Y-41357200D02*
X231476190Y-41404819D01*
X231476190Y-41404819D02*
X231333333Y-41404819D01*
X232238095Y-41404819D02*
X232142857Y-41357200D01*
X232142857Y-41357200D02*
X232095238Y-41261961D01*
X232095238Y-41261961D02*
X232095238Y-40404819D01*
X233000000Y-41357200D02*
X232904762Y-41404819D01*
X232904762Y-41404819D02*
X232714286Y-41404819D01*
X232714286Y-41404819D02*
X232619048Y-41357200D01*
X232619048Y-41357200D02*
X232571429Y-41261961D01*
X232571429Y-41261961D02*
X232571429Y-40881009D01*
X232571429Y-40881009D02*
X232619048Y-40785771D01*
X232619048Y-40785771D02*
X232714286Y-40738152D01*
X232714286Y-40738152D02*
X232904762Y-40738152D01*
X232904762Y-40738152D02*
X233000000Y-40785771D01*
X233000000Y-40785771D02*
X233047619Y-40881009D01*
X233047619Y-40881009D02*
X233047619Y-40976247D01*
X233047619Y-40976247D02*
X232571429Y-41071485D01*
X233238096Y-41500057D02*
X234000000Y-41500057D01*
X234238096Y-41404819D02*
X234238096Y-40404819D01*
X234238096Y-40404819D02*
X234619048Y-40404819D01*
X234619048Y-40404819D02*
X234714286Y-40452438D01*
X234714286Y-40452438D02*
X234761905Y-40500057D01*
X234761905Y-40500057D02*
X234809524Y-40595295D01*
X234809524Y-40595295D02*
X234809524Y-40738152D01*
X234809524Y-40738152D02*
X234761905Y-40833390D01*
X234761905Y-40833390D02*
X234714286Y-40881009D01*
X234714286Y-40881009D02*
X234619048Y-40928628D01*
X234619048Y-40928628D02*
X234238096Y-40928628D01*
X235666667Y-41404819D02*
X235666667Y-40881009D01*
X235666667Y-40881009D02*
X235619048Y-40785771D01*
X235619048Y-40785771D02*
X235523810Y-40738152D01*
X235523810Y-40738152D02*
X235333334Y-40738152D01*
X235333334Y-40738152D02*
X235238096Y-40785771D01*
X235666667Y-41357200D02*
X235571429Y-41404819D01*
X235571429Y-41404819D02*
X235333334Y-41404819D01*
X235333334Y-41404819D02*
X235238096Y-41357200D01*
X235238096Y-41357200D02*
X235190477Y-41261961D01*
X235190477Y-41261961D02*
X235190477Y-41166723D01*
X235190477Y-41166723D02*
X235238096Y-41071485D01*
X235238096Y-41071485D02*
X235333334Y-41023866D01*
X235333334Y-41023866D02*
X235571429Y-41023866D01*
X235571429Y-41023866D02*
X235666667Y-40976247D01*
X236571429Y-41404819D02*
X236571429Y-40404819D01*
X236571429Y-41357200D02*
X236476191Y-41404819D01*
X236476191Y-41404819D02*
X236285715Y-41404819D01*
X236285715Y-41404819D02*
X236190477Y-41357200D01*
X236190477Y-41357200D02*
X236142858Y-41309580D01*
X236142858Y-41309580D02*
X236095239Y-41214342D01*
X236095239Y-41214342D02*
X236095239Y-40928628D01*
X236095239Y-40928628D02*
X236142858Y-40833390D01*
X236142858Y-40833390D02*
X236190477Y-40785771D01*
X236190477Y-40785771D02*
X236285715Y-40738152D01*
X236285715Y-40738152D02*
X236476191Y-40738152D01*
X236476191Y-40738152D02*
X236571429Y-40785771D01*
X229238095Y-35454819D02*
X229238095Y-34454819D01*
X229238095Y-34931009D02*
X229809523Y-34931009D01*
X229809523Y-35454819D02*
X229809523Y-34454819D01*
X230714285Y-34454819D02*
X230523809Y-34454819D01*
X230523809Y-34454819D02*
X230428571Y-34502438D01*
X230428571Y-34502438D02*
X230380952Y-34550057D01*
X230380952Y-34550057D02*
X230285714Y-34692914D01*
X230285714Y-34692914D02*
X230238095Y-34883390D01*
X230238095Y-34883390D02*
X230238095Y-35264342D01*
X230238095Y-35264342D02*
X230285714Y-35359580D01*
X230285714Y-35359580D02*
X230333333Y-35407200D01*
X230333333Y-35407200D02*
X230428571Y-35454819D01*
X230428571Y-35454819D02*
X230619047Y-35454819D01*
X230619047Y-35454819D02*
X230714285Y-35407200D01*
X230714285Y-35407200D02*
X230761904Y-35359580D01*
X230761904Y-35359580D02*
X230809523Y-35264342D01*
X230809523Y-35264342D02*
X230809523Y-35026247D01*
X230809523Y-35026247D02*
X230761904Y-34931009D01*
X230761904Y-34931009D02*
X230714285Y-34883390D01*
X230714285Y-34883390D02*
X230619047Y-34835771D01*
X230619047Y-34835771D02*
X230428571Y-34835771D01*
X230428571Y-34835771D02*
X230333333Y-34883390D01*
X230333333Y-34883390D02*
X230285714Y-34931009D01*
X230285714Y-34931009D02*
X230238095Y-35026247D01*
%TO.C,H19*%
D12*
X254000000Y-73400000D02*
X254000000Y-73400000D01*
X254000000Y-84600000D02*
X254000000Y-84600000D01*
X254000000Y-73400000D02*
G75*
G02*
X254000000Y-84600000I0J-5600000D01*
G01*
X254000000Y-84600000D02*
G75*
G02*
X254000000Y-73400000I0J5600000D01*
G01*
%TO.C,H14*%
X249000000Y8600000D02*
X249000000Y8600000D01*
X249000000Y-2600000D02*
X249000000Y-2600000D01*
X249000000Y8600000D02*
G75*
G02*
X249000000Y-2600000I0J-5600000D01*
G01*
X249000000Y-2600000D02*
G75*
G02*
X249000000Y8600000I0J5600000D01*
G01*
%TO.C,H15*%
X103000000Y-7400000D02*
X103000000Y-7400000D01*
X103000000Y-18600000D02*
X103000000Y-18600000D01*
X103000000Y-7400000D02*
G75*
G02*
X103000000Y-18600000I0J-5600000D01*
G01*
X103000000Y-18600000D02*
G75*
G02*
X103000000Y-7400000I0J5600000D01*
G01*
%TO.C,H16*%
X269000000Y-58400000D02*
X269000000Y-58400000D01*
X269000000Y-69600000D02*
X269000000Y-69600000D01*
X269000000Y-58400000D02*
G75*
G02*
X269000000Y-69600000I0J-5600000D01*
G01*
X269000000Y-69600000D02*
G75*
G02*
X269000000Y-58400000I0J5600000D01*
G01*
%TO.C,H17*%
X82500000Y-39400000D02*
X82500000Y-39400000D01*
X82500000Y-50600000D02*
X82500000Y-50600000D01*
X82500000Y-39400000D02*
G75*
G02*
X82500000Y-50600000I0J-5600000D01*
G01*
X82500000Y-50600000D02*
G75*
G02*
X82500000Y-39400000I0J5600000D01*
G01*
%TO.C,H18*%
X22000000Y-75400000D02*
X22000000Y-75400000D01*
X22000000Y-86600000D02*
X22000000Y-86600000D01*
X22000000Y-75400000D02*
G75*
G02*
X22000000Y-86600000I0J-5600000D01*
G01*
X22000000Y-86600000D02*
G75*
G02*
X22000000Y-75400000I0J5600000D01*
G01*
%TO.C,H13*%
X6400000Y2000000D02*
X6400000Y2000000D01*
X17600000Y2000000D02*
X17600000Y2000000D01*
X6400000Y2000000D02*
G75*
G02*
X17600000Y2000000I5600000J0D01*
G01*
X17600000Y2000000D02*
G75*
G02*
X6400000Y2000000I-5600000J0D01*
G01*
%TO.C,H20*%
X165000000Y-23400000D02*
X165000000Y-23400000D01*
X165000000Y-34600000D02*
X165000000Y-34600000D01*
X165000000Y-23400000D02*
G75*
G02*
X165000000Y-34600000I0J-5600000D01*
G01*
X165000000Y-34600000D02*
G75*
G02*
X165000000Y-23400000I0J5600000D01*
G01*
%TD*%
M02*
