%TF.GenerationSoftware,KiCad,Pcbnew,10.0.3*%
%TF.CreationDate,2026-07-17T00:01:46-07:00*%
%TF.ProjectId,DCBusCapacitorBoard,44434275-7343-4617-9061-6369746f7242,rev?*%
%TF.SameCoordinates,Original*%
%TF.FileFunction,AssemblyDrawing,Bot*%
%FSLAX46Y46*%
G04 Gerber Fmt 4.6, Leading zero omitted, Abs format (unit mm)*
G04 Created by KiCad (PCBNEW 10.0.3) date 2026-07-17 00:01:46*
%MOMM*%
%LPD*%
G01*
G04 APERTURE LIST*
%ADD10C,0.254000*%
%ADD11C,0.100000*%
G04 APERTURE END LIST*
D10*
X248066428Y-11953365D02*
X248126904Y-12013842D01*
X248126904Y-12013842D02*
X248308333Y-12074318D01*
X248308333Y-12074318D02*
X248429285Y-12074318D01*
X248429285Y-12074318D02*
X248610714Y-12013842D01*
X248610714Y-12013842D02*
X248731666Y-11892889D01*
X248731666Y-11892889D02*
X248792143Y-11771937D01*
X248792143Y-11771937D02*
X248852619Y-11530032D01*
X248852619Y-11530032D02*
X248852619Y-11348603D01*
X248852619Y-11348603D02*
X248792143Y-11106699D01*
X248792143Y-11106699D02*
X248731666Y-10985746D01*
X248731666Y-10985746D02*
X248610714Y-10864794D01*
X248610714Y-10864794D02*
X248429285Y-10804318D01*
X248429285Y-10804318D02*
X248308333Y-10804318D01*
X248308333Y-10804318D02*
X248126904Y-10864794D01*
X248126904Y-10864794D02*
X248066428Y-10925270D01*
X247582619Y-10925270D02*
X247522143Y-10864794D01*
X247522143Y-10864794D02*
X247401190Y-10804318D01*
X247401190Y-10804318D02*
X247098809Y-10804318D01*
X247098809Y-10804318D02*
X246977857Y-10864794D01*
X246977857Y-10864794D02*
X246917381Y-10925270D01*
X246917381Y-10925270D02*
X246856904Y-11046222D01*
X246856904Y-11046222D02*
X246856904Y-11167175D01*
X246856904Y-11167175D02*
X246917381Y-11348603D01*
X246917381Y-11348603D02*
X247643095Y-12074318D01*
X247643095Y-12074318D02*
X246856904Y-12074318D01*
X246252142Y-12074318D02*
X246010238Y-12074318D01*
X246010238Y-12074318D02*
X245889285Y-12013842D01*
X245889285Y-12013842D02*
X245828809Y-11953365D01*
X245828809Y-11953365D02*
X245707857Y-11771937D01*
X245707857Y-11771937D02*
X245647380Y-11530032D01*
X245647380Y-11530032D02*
X245647380Y-11046222D01*
X245647380Y-11046222D02*
X245707857Y-10925270D01*
X245707857Y-10925270D02*
X245768333Y-10864794D01*
X245768333Y-10864794D02*
X245889285Y-10804318D01*
X245889285Y-10804318D02*
X246131190Y-10804318D01*
X246131190Y-10804318D02*
X246252142Y-10864794D01*
X246252142Y-10864794D02*
X246312619Y-10925270D01*
X246312619Y-10925270D02*
X246373095Y-11046222D01*
X246373095Y-11046222D02*
X246373095Y-11348603D01*
X246373095Y-11348603D02*
X246312619Y-11469556D01*
X246312619Y-11469556D02*
X246252142Y-11530032D01*
X246252142Y-11530032D02*
X246131190Y-11590508D01*
X246131190Y-11590508D02*
X245889285Y-11590508D01*
X245889285Y-11590508D02*
X245768333Y-11530032D01*
X245768333Y-11530032D02*
X245707857Y-11469556D01*
X245707857Y-11469556D02*
X245647380Y-11348603D01*
X107316428Y-58953365D02*
X107376904Y-59013842D01*
X107376904Y-59013842D02*
X107558333Y-59074318D01*
X107558333Y-59074318D02*
X107679285Y-59074318D01*
X107679285Y-59074318D02*
X107860714Y-59013842D01*
X107860714Y-59013842D02*
X107981666Y-58892889D01*
X107981666Y-58892889D02*
X108042143Y-58771937D01*
X108042143Y-58771937D02*
X108102619Y-58530032D01*
X108102619Y-58530032D02*
X108102619Y-58348603D01*
X108102619Y-58348603D02*
X108042143Y-58106699D01*
X108042143Y-58106699D02*
X107981666Y-57985746D01*
X107981666Y-57985746D02*
X107860714Y-57864794D01*
X107860714Y-57864794D02*
X107679285Y-57804318D01*
X107679285Y-57804318D02*
X107558333Y-57804318D01*
X107558333Y-57804318D02*
X107376904Y-57864794D01*
X107376904Y-57864794D02*
X107316428Y-57925270D01*
X106832619Y-57925270D02*
X106772143Y-57864794D01*
X106772143Y-57864794D02*
X106651190Y-57804318D01*
X106651190Y-57804318D02*
X106348809Y-57804318D01*
X106348809Y-57804318D02*
X106227857Y-57864794D01*
X106227857Y-57864794D02*
X106167381Y-57925270D01*
X106167381Y-57925270D02*
X106106904Y-58046222D01*
X106106904Y-58046222D02*
X106106904Y-58167175D01*
X106106904Y-58167175D02*
X106167381Y-58348603D01*
X106167381Y-58348603D02*
X106893095Y-59074318D01*
X106893095Y-59074318D02*
X106106904Y-59074318D01*
X105381190Y-58348603D02*
X105502142Y-58288127D01*
X105502142Y-58288127D02*
X105562619Y-58227651D01*
X105562619Y-58227651D02*
X105623095Y-58106699D01*
X105623095Y-58106699D02*
X105623095Y-58046222D01*
X105623095Y-58046222D02*
X105562619Y-57925270D01*
X105562619Y-57925270D02*
X105502142Y-57864794D01*
X105502142Y-57864794D02*
X105381190Y-57804318D01*
X105381190Y-57804318D02*
X105139285Y-57804318D01*
X105139285Y-57804318D02*
X105018333Y-57864794D01*
X105018333Y-57864794D02*
X104957857Y-57925270D01*
X104957857Y-57925270D02*
X104897380Y-58046222D01*
X104897380Y-58046222D02*
X104897380Y-58106699D01*
X104897380Y-58106699D02*
X104957857Y-58227651D01*
X104957857Y-58227651D02*
X105018333Y-58288127D01*
X105018333Y-58288127D02*
X105139285Y-58348603D01*
X105139285Y-58348603D02*
X105381190Y-58348603D01*
X105381190Y-58348603D02*
X105502142Y-58409080D01*
X105502142Y-58409080D02*
X105562619Y-58469556D01*
X105562619Y-58469556D02*
X105623095Y-58590508D01*
X105623095Y-58590508D02*
X105623095Y-58832413D01*
X105623095Y-58832413D02*
X105562619Y-58953365D01*
X105562619Y-58953365D02*
X105502142Y-59013842D01*
X105502142Y-59013842D02*
X105381190Y-59074318D01*
X105381190Y-59074318D02*
X105139285Y-59074318D01*
X105139285Y-59074318D02*
X105018333Y-59013842D01*
X105018333Y-59013842D02*
X104957857Y-58953365D01*
X104957857Y-58953365D02*
X104897380Y-58832413D01*
X104897380Y-58832413D02*
X104897380Y-58590508D01*
X104897380Y-58590508D02*
X104957857Y-58469556D01*
X104957857Y-58469556D02*
X105018333Y-58409080D01*
X105018333Y-58409080D02*
X105139285Y-58348603D01*
X284816428Y-10953365D02*
X284876904Y-11013842D01*
X284876904Y-11013842D02*
X285058333Y-11074318D01*
X285058333Y-11074318D02*
X285179285Y-11074318D01*
X285179285Y-11074318D02*
X285360714Y-11013842D01*
X285360714Y-11013842D02*
X285481666Y-10892889D01*
X285481666Y-10892889D02*
X285542143Y-10771937D01*
X285542143Y-10771937D02*
X285602619Y-10530032D01*
X285602619Y-10530032D02*
X285602619Y-10348603D01*
X285602619Y-10348603D02*
X285542143Y-10106699D01*
X285542143Y-10106699D02*
X285481666Y-9985746D01*
X285481666Y-9985746D02*
X285360714Y-9864794D01*
X285360714Y-9864794D02*
X285179285Y-9804318D01*
X285179285Y-9804318D02*
X285058333Y-9804318D01*
X285058333Y-9804318D02*
X284876904Y-9864794D01*
X284876904Y-9864794D02*
X284816428Y-9925270D01*
X283727857Y-10227651D02*
X283727857Y-11074318D01*
X284030238Y-9743842D02*
X284332619Y-10650984D01*
X284332619Y-10650984D02*
X283546428Y-10650984D01*
X282457857Y-9804318D02*
X283062619Y-9804318D01*
X283062619Y-9804318D02*
X283123095Y-10409080D01*
X283123095Y-10409080D02*
X283062619Y-10348603D01*
X283062619Y-10348603D02*
X282941666Y-10288127D01*
X282941666Y-10288127D02*
X282639285Y-10288127D01*
X282639285Y-10288127D02*
X282518333Y-10348603D01*
X282518333Y-10348603D02*
X282457857Y-10409080D01*
X282457857Y-10409080D02*
X282397380Y-10530032D01*
X282397380Y-10530032D02*
X282397380Y-10832413D01*
X282397380Y-10832413D02*
X282457857Y-10953365D01*
X282457857Y-10953365D02*
X282518333Y-11013842D01*
X282518333Y-11013842D02*
X282639285Y-11074318D01*
X282639285Y-11074318D02*
X282941666Y-11074318D01*
X282941666Y-11074318D02*
X283062619Y-11013842D01*
X283062619Y-11013842D02*
X283123095Y-10953365D01*
X109566428Y-953365D02*
X109626904Y-1013842D01*
X109626904Y-1013842D02*
X109808333Y-1074318D01*
X109808333Y-1074318D02*
X109929285Y-1074318D01*
X109929285Y-1074318D02*
X110110714Y-1013842D01*
X110110714Y-1013842D02*
X110231666Y-892889D01*
X110231666Y-892889D02*
X110292143Y-771937D01*
X110292143Y-771937D02*
X110352619Y-530032D01*
X110352619Y-530032D02*
X110352619Y-348603D01*
X110352619Y-348603D02*
X110292143Y-106699D01*
X110292143Y-106699D02*
X110231666Y14253D01*
X110231666Y14253D02*
X110110714Y135205D01*
X110110714Y135205D02*
X109929285Y195681D01*
X109929285Y195681D02*
X109808333Y195681D01*
X109808333Y195681D02*
X109626904Y135205D01*
X109626904Y135205D02*
X109566428Y74729D01*
X109082619Y74729D02*
X109022143Y135205D01*
X109022143Y135205D02*
X108901190Y195681D01*
X108901190Y195681D02*
X108598809Y195681D01*
X108598809Y195681D02*
X108477857Y135205D01*
X108477857Y135205D02*
X108417381Y74729D01*
X108417381Y74729D02*
X108356904Y-46222D01*
X108356904Y-46222D02*
X108356904Y-167175D01*
X108356904Y-167175D02*
X108417381Y-348603D01*
X108417381Y-348603D02*
X109143095Y-1074318D01*
X109143095Y-1074318D02*
X108356904Y-1074318D01*
X107207857Y195681D02*
X107812619Y195681D01*
X107812619Y195681D02*
X107873095Y-409080D01*
X107873095Y-409080D02*
X107812619Y-348603D01*
X107812619Y-348603D02*
X107691666Y-288127D01*
X107691666Y-288127D02*
X107389285Y-288127D01*
X107389285Y-288127D02*
X107268333Y-348603D01*
X107268333Y-348603D02*
X107207857Y-409080D01*
X107207857Y-409080D02*
X107147380Y-530032D01*
X107147380Y-530032D02*
X107147380Y-832413D01*
X107147380Y-832413D02*
X107207857Y-953365D01*
X107207857Y-953365D02*
X107268333Y-1013842D01*
X107268333Y-1013842D02*
X107389285Y-1074318D01*
X107389285Y-1074318D02*
X107691666Y-1074318D01*
X107691666Y-1074318D02*
X107812619Y-1013842D01*
X107812619Y-1013842D02*
X107873095Y-953365D01*
X23711666Y-1453365D02*
X23772142Y-1513842D01*
X23772142Y-1513842D02*
X23953571Y-1574318D01*
X23953571Y-1574318D02*
X24074523Y-1574318D01*
X24074523Y-1574318D02*
X24255952Y-1513842D01*
X24255952Y-1513842D02*
X24376904Y-1392889D01*
X24376904Y-1392889D02*
X24437381Y-1271937D01*
X24437381Y-1271937D02*
X24497857Y-1030032D01*
X24497857Y-1030032D02*
X24497857Y-848603D01*
X24497857Y-848603D02*
X24437381Y-606699D01*
X24437381Y-606699D02*
X24376904Y-485746D01*
X24376904Y-485746D02*
X24255952Y-364794D01*
X24255952Y-364794D02*
X24074523Y-304318D01*
X24074523Y-304318D02*
X23953571Y-304318D01*
X23953571Y-304318D02*
X23772142Y-364794D01*
X23772142Y-364794D02*
X23711666Y-425270D01*
X22562619Y-304318D02*
X23167381Y-304318D01*
X23167381Y-304318D02*
X23227857Y-909080D01*
X23227857Y-909080D02*
X23167381Y-848603D01*
X23167381Y-848603D02*
X23046428Y-788127D01*
X23046428Y-788127D02*
X22744047Y-788127D01*
X22744047Y-788127D02*
X22623095Y-848603D01*
X22623095Y-848603D02*
X22562619Y-909080D01*
X22562619Y-909080D02*
X22502142Y-1030032D01*
X22502142Y-1030032D02*
X22502142Y-1332413D01*
X22502142Y-1332413D02*
X22562619Y-1453365D01*
X22562619Y-1453365D02*
X22623095Y-1513842D01*
X22623095Y-1513842D02*
X22744047Y-1574318D01*
X22744047Y-1574318D02*
X23046428Y-1574318D01*
X23046428Y-1574318D02*
X23167381Y-1513842D01*
X23167381Y-1513842D02*
X23227857Y-1453365D01*
X264066428Y-50453365D02*
X264126904Y-50513842D01*
X264126904Y-50513842D02*
X264308333Y-50574318D01*
X264308333Y-50574318D02*
X264429285Y-50574318D01*
X264429285Y-50574318D02*
X264610714Y-50513842D01*
X264610714Y-50513842D02*
X264731666Y-50392889D01*
X264731666Y-50392889D02*
X264792143Y-50271937D01*
X264792143Y-50271937D02*
X264852619Y-50030032D01*
X264852619Y-50030032D02*
X264852619Y-49848603D01*
X264852619Y-49848603D02*
X264792143Y-49606699D01*
X264792143Y-49606699D02*
X264731666Y-49485746D01*
X264731666Y-49485746D02*
X264610714Y-49364794D01*
X264610714Y-49364794D02*
X264429285Y-49304318D01*
X264429285Y-49304318D02*
X264308333Y-49304318D01*
X264308333Y-49304318D02*
X264126904Y-49364794D01*
X264126904Y-49364794D02*
X264066428Y-49425270D01*
X262917381Y-49304318D02*
X263522143Y-49304318D01*
X263522143Y-49304318D02*
X263582619Y-49909080D01*
X263582619Y-49909080D02*
X263522143Y-49848603D01*
X263522143Y-49848603D02*
X263401190Y-49788127D01*
X263401190Y-49788127D02*
X263098809Y-49788127D01*
X263098809Y-49788127D02*
X262977857Y-49848603D01*
X262977857Y-49848603D02*
X262917381Y-49909080D01*
X262917381Y-49909080D02*
X262856904Y-50030032D01*
X262856904Y-50030032D02*
X262856904Y-50332413D01*
X262856904Y-50332413D02*
X262917381Y-50453365D01*
X262917381Y-50453365D02*
X262977857Y-50513842D01*
X262977857Y-50513842D02*
X263098809Y-50574318D01*
X263098809Y-50574318D02*
X263401190Y-50574318D01*
X263401190Y-50574318D02*
X263522143Y-50513842D01*
X263522143Y-50513842D02*
X263582619Y-50453365D01*
X262252142Y-50574318D02*
X262010238Y-50574318D01*
X262010238Y-50574318D02*
X261889285Y-50513842D01*
X261889285Y-50513842D02*
X261828809Y-50453365D01*
X261828809Y-50453365D02*
X261707857Y-50271937D01*
X261707857Y-50271937D02*
X261647380Y-50030032D01*
X261647380Y-50030032D02*
X261647380Y-49546222D01*
X261647380Y-49546222D02*
X261707857Y-49425270D01*
X261707857Y-49425270D02*
X261768333Y-49364794D01*
X261768333Y-49364794D02*
X261889285Y-49304318D01*
X261889285Y-49304318D02*
X262131190Y-49304318D01*
X262131190Y-49304318D02*
X262252142Y-49364794D01*
X262252142Y-49364794D02*
X262312619Y-49425270D01*
X262312619Y-49425270D02*
X262373095Y-49546222D01*
X262373095Y-49546222D02*
X262373095Y-49848603D01*
X262373095Y-49848603D02*
X262312619Y-49969556D01*
X262312619Y-49969556D02*
X262252142Y-50030032D01*
X262252142Y-50030032D02*
X262131190Y-50090508D01*
X262131190Y-50090508D02*
X261889285Y-50090508D01*
X261889285Y-50090508D02*
X261768333Y-50030032D01*
X261768333Y-50030032D02*
X261707857Y-49969556D01*
X261707857Y-49969556D02*
X261647380Y-49848603D01*
X13461666Y-66953365D02*
X13522142Y-67013842D01*
X13522142Y-67013842D02*
X13703571Y-67074318D01*
X13703571Y-67074318D02*
X13824523Y-67074318D01*
X13824523Y-67074318D02*
X14005952Y-67013842D01*
X14005952Y-67013842D02*
X14126904Y-66892889D01*
X14126904Y-66892889D02*
X14187381Y-66771937D01*
X14187381Y-66771937D02*
X14247857Y-66530032D01*
X14247857Y-66530032D02*
X14247857Y-66348603D01*
X14247857Y-66348603D02*
X14187381Y-66106699D01*
X14187381Y-66106699D02*
X14126904Y-65985746D01*
X14126904Y-65985746D02*
X14005952Y-65864794D01*
X14005952Y-65864794D02*
X13824523Y-65804318D01*
X13824523Y-65804318D02*
X13703571Y-65804318D01*
X13703571Y-65804318D02*
X13522142Y-65864794D01*
X13522142Y-65864794D02*
X13461666Y-65925270D01*
X12735952Y-66348603D02*
X12856904Y-66288127D01*
X12856904Y-66288127D02*
X12917381Y-66227651D01*
X12917381Y-66227651D02*
X12977857Y-66106699D01*
X12977857Y-66106699D02*
X12977857Y-66046222D01*
X12977857Y-66046222D02*
X12917381Y-65925270D01*
X12917381Y-65925270D02*
X12856904Y-65864794D01*
X12856904Y-65864794D02*
X12735952Y-65804318D01*
X12735952Y-65804318D02*
X12494047Y-65804318D01*
X12494047Y-65804318D02*
X12373095Y-65864794D01*
X12373095Y-65864794D02*
X12312619Y-65925270D01*
X12312619Y-65925270D02*
X12252142Y-66046222D01*
X12252142Y-66046222D02*
X12252142Y-66106699D01*
X12252142Y-66106699D02*
X12312619Y-66227651D01*
X12312619Y-66227651D02*
X12373095Y-66288127D01*
X12373095Y-66288127D02*
X12494047Y-66348603D01*
X12494047Y-66348603D02*
X12735952Y-66348603D01*
X12735952Y-66348603D02*
X12856904Y-66409080D01*
X12856904Y-66409080D02*
X12917381Y-66469556D01*
X12917381Y-66469556D02*
X12977857Y-66590508D01*
X12977857Y-66590508D02*
X12977857Y-66832413D01*
X12977857Y-66832413D02*
X12917381Y-66953365D01*
X12917381Y-66953365D02*
X12856904Y-67013842D01*
X12856904Y-67013842D02*
X12735952Y-67074318D01*
X12735952Y-67074318D02*
X12494047Y-67074318D01*
X12494047Y-67074318D02*
X12373095Y-67013842D01*
X12373095Y-67013842D02*
X12312619Y-66953365D01*
X12312619Y-66953365D02*
X12252142Y-66832413D01*
X12252142Y-66832413D02*
X12252142Y-66590508D01*
X12252142Y-66590508D02*
X12312619Y-66469556D01*
X12312619Y-66469556D02*
X12373095Y-66409080D01*
X12373095Y-66409080D02*
X12494047Y-66348603D01*
X61066428Y-18953365D02*
X61126904Y-19013842D01*
X61126904Y-19013842D02*
X61308333Y-19074318D01*
X61308333Y-19074318D02*
X61429285Y-19074318D01*
X61429285Y-19074318D02*
X61610714Y-19013842D01*
X61610714Y-19013842D02*
X61731666Y-18892889D01*
X61731666Y-18892889D02*
X61792143Y-18771937D01*
X61792143Y-18771937D02*
X61852619Y-18530032D01*
X61852619Y-18530032D02*
X61852619Y-18348603D01*
X61852619Y-18348603D02*
X61792143Y-18106699D01*
X61792143Y-18106699D02*
X61731666Y-17985746D01*
X61731666Y-17985746D02*
X61610714Y-17864794D01*
X61610714Y-17864794D02*
X61429285Y-17804318D01*
X61429285Y-17804318D02*
X61308333Y-17804318D01*
X61308333Y-17804318D02*
X61126904Y-17864794D01*
X61126904Y-17864794D02*
X61066428Y-17925270D01*
X59856904Y-19074318D02*
X60582619Y-19074318D01*
X60219762Y-19074318D02*
X60219762Y-17804318D01*
X60219762Y-17804318D02*
X60340714Y-17985746D01*
X60340714Y-17985746D02*
X60461666Y-18106699D01*
X60461666Y-18106699D02*
X60582619Y-18167175D01*
X58768333Y-18227651D02*
X58768333Y-19074318D01*
X59070714Y-17743842D02*
X59373095Y-18650984D01*
X59373095Y-18650984D02*
X58586904Y-18650984D01*
X216816428Y-49953365D02*
X216876904Y-50013842D01*
X216876904Y-50013842D02*
X217058333Y-50074318D01*
X217058333Y-50074318D02*
X217179285Y-50074318D01*
X217179285Y-50074318D02*
X217360714Y-50013842D01*
X217360714Y-50013842D02*
X217481666Y-49892889D01*
X217481666Y-49892889D02*
X217542143Y-49771937D01*
X217542143Y-49771937D02*
X217602619Y-49530032D01*
X217602619Y-49530032D02*
X217602619Y-49348603D01*
X217602619Y-49348603D02*
X217542143Y-49106699D01*
X217542143Y-49106699D02*
X217481666Y-48985746D01*
X217481666Y-48985746D02*
X217360714Y-48864794D01*
X217360714Y-48864794D02*
X217179285Y-48804318D01*
X217179285Y-48804318D02*
X217058333Y-48804318D01*
X217058333Y-48804318D02*
X216876904Y-48864794D01*
X216876904Y-48864794D02*
X216816428Y-48925270D01*
X215667381Y-48804318D02*
X216272143Y-48804318D01*
X216272143Y-48804318D02*
X216332619Y-49409080D01*
X216332619Y-49409080D02*
X216272143Y-49348603D01*
X216272143Y-49348603D02*
X216151190Y-49288127D01*
X216151190Y-49288127D02*
X215848809Y-49288127D01*
X215848809Y-49288127D02*
X215727857Y-49348603D01*
X215727857Y-49348603D02*
X215667381Y-49409080D01*
X215667381Y-49409080D02*
X215606904Y-49530032D01*
X215606904Y-49530032D02*
X215606904Y-49832413D01*
X215606904Y-49832413D02*
X215667381Y-49953365D01*
X215667381Y-49953365D02*
X215727857Y-50013842D01*
X215727857Y-50013842D02*
X215848809Y-50074318D01*
X215848809Y-50074318D02*
X216151190Y-50074318D01*
X216151190Y-50074318D02*
X216272143Y-50013842D01*
X216272143Y-50013842D02*
X216332619Y-49953365D01*
X214397380Y-50074318D02*
X215123095Y-50074318D01*
X214760238Y-50074318D02*
X214760238Y-48804318D01*
X214760238Y-48804318D02*
X214881190Y-48985746D01*
X214881190Y-48985746D02*
X215002142Y-49106699D01*
X215002142Y-49106699D02*
X215123095Y-49167175D01*
X96066428Y-26453365D02*
X96126904Y-26513842D01*
X96126904Y-26513842D02*
X96308333Y-26574318D01*
X96308333Y-26574318D02*
X96429285Y-26574318D01*
X96429285Y-26574318D02*
X96610714Y-26513842D01*
X96610714Y-26513842D02*
X96731666Y-26392889D01*
X96731666Y-26392889D02*
X96792143Y-26271937D01*
X96792143Y-26271937D02*
X96852619Y-26030032D01*
X96852619Y-26030032D02*
X96852619Y-25848603D01*
X96852619Y-25848603D02*
X96792143Y-25606699D01*
X96792143Y-25606699D02*
X96731666Y-25485746D01*
X96731666Y-25485746D02*
X96610714Y-25364794D01*
X96610714Y-25364794D02*
X96429285Y-25304318D01*
X96429285Y-25304318D02*
X96308333Y-25304318D01*
X96308333Y-25304318D02*
X96126904Y-25364794D01*
X96126904Y-25364794D02*
X96066428Y-25425270D01*
X95582619Y-25425270D02*
X95522143Y-25364794D01*
X95522143Y-25364794D02*
X95401190Y-25304318D01*
X95401190Y-25304318D02*
X95098809Y-25304318D01*
X95098809Y-25304318D02*
X94977857Y-25364794D01*
X94977857Y-25364794D02*
X94917381Y-25425270D01*
X94917381Y-25425270D02*
X94856904Y-25546222D01*
X94856904Y-25546222D02*
X94856904Y-25667175D01*
X94856904Y-25667175D02*
X94917381Y-25848603D01*
X94917381Y-25848603D02*
X95643095Y-26574318D01*
X95643095Y-26574318D02*
X94856904Y-26574318D01*
X93768333Y-25304318D02*
X94010238Y-25304318D01*
X94010238Y-25304318D02*
X94131190Y-25364794D01*
X94131190Y-25364794D02*
X94191666Y-25425270D01*
X94191666Y-25425270D02*
X94312619Y-25606699D01*
X94312619Y-25606699D02*
X94373095Y-25848603D01*
X94373095Y-25848603D02*
X94373095Y-26332413D01*
X94373095Y-26332413D02*
X94312619Y-26453365D01*
X94312619Y-26453365D02*
X94252142Y-26513842D01*
X94252142Y-26513842D02*
X94131190Y-26574318D01*
X94131190Y-26574318D02*
X93889285Y-26574318D01*
X93889285Y-26574318D02*
X93768333Y-26513842D01*
X93768333Y-26513842D02*
X93707857Y-26453365D01*
X93707857Y-26453365D02*
X93647380Y-26332413D01*
X93647380Y-26332413D02*
X93647380Y-26030032D01*
X93647380Y-26030032D02*
X93707857Y-25909080D01*
X93707857Y-25909080D02*
X93768333Y-25848603D01*
X93768333Y-25848603D02*
X93889285Y-25788127D01*
X93889285Y-25788127D02*
X94131190Y-25788127D01*
X94131190Y-25788127D02*
X94252142Y-25848603D01*
X94252142Y-25848603D02*
X94312619Y-25909080D01*
X94312619Y-25909080D02*
X94373095Y-26030032D01*
X207566428Y-33953365D02*
X207626904Y-34013842D01*
X207626904Y-34013842D02*
X207808333Y-34074318D01*
X207808333Y-34074318D02*
X207929285Y-34074318D01*
X207929285Y-34074318D02*
X208110714Y-34013842D01*
X208110714Y-34013842D02*
X208231666Y-33892889D01*
X208231666Y-33892889D02*
X208292143Y-33771937D01*
X208292143Y-33771937D02*
X208352619Y-33530032D01*
X208352619Y-33530032D02*
X208352619Y-33348603D01*
X208352619Y-33348603D02*
X208292143Y-33106699D01*
X208292143Y-33106699D02*
X208231666Y-32985746D01*
X208231666Y-32985746D02*
X208110714Y-32864794D01*
X208110714Y-32864794D02*
X207929285Y-32804318D01*
X207929285Y-32804318D02*
X207808333Y-32804318D01*
X207808333Y-32804318D02*
X207626904Y-32864794D01*
X207626904Y-32864794D02*
X207566428Y-32925270D01*
X206477857Y-33227651D02*
X206477857Y-34074318D01*
X206780238Y-32743842D02*
X207082619Y-33650984D01*
X207082619Y-33650984D02*
X206296428Y-33650984D01*
X205933571Y-32804318D02*
X205086904Y-32804318D01*
X205086904Y-32804318D02*
X205631190Y-34074318D01*
X199316428Y-953365D02*
X199376904Y-1013842D01*
X199376904Y-1013842D02*
X199558333Y-1074318D01*
X199558333Y-1074318D02*
X199679285Y-1074318D01*
X199679285Y-1074318D02*
X199860714Y-1013842D01*
X199860714Y-1013842D02*
X199981666Y-892889D01*
X199981666Y-892889D02*
X200042143Y-771937D01*
X200042143Y-771937D02*
X200102619Y-530032D01*
X200102619Y-530032D02*
X200102619Y-348603D01*
X200102619Y-348603D02*
X200042143Y-106699D01*
X200042143Y-106699D02*
X199981666Y14253D01*
X199981666Y14253D02*
X199860714Y135205D01*
X199860714Y135205D02*
X199679285Y195681D01*
X199679285Y195681D02*
X199558333Y195681D01*
X199558333Y195681D02*
X199376904Y135205D01*
X199376904Y135205D02*
X199316428Y74729D01*
X198227857Y-227651D02*
X198227857Y-1074318D01*
X198530238Y256158D02*
X198832619Y-650984D01*
X198832619Y-650984D02*
X198046428Y-650984D01*
X197018333Y195681D02*
X197260238Y195681D01*
X197260238Y195681D02*
X197381190Y135205D01*
X197381190Y135205D02*
X197441666Y74729D01*
X197441666Y74729D02*
X197562619Y-106699D01*
X197562619Y-106699D02*
X197623095Y-348603D01*
X197623095Y-348603D02*
X197623095Y-832413D01*
X197623095Y-832413D02*
X197562619Y-953365D01*
X197562619Y-953365D02*
X197502142Y-1013842D01*
X197502142Y-1013842D02*
X197381190Y-1074318D01*
X197381190Y-1074318D02*
X197139285Y-1074318D01*
X197139285Y-1074318D02*
X197018333Y-1013842D01*
X197018333Y-1013842D02*
X196957857Y-953365D01*
X196957857Y-953365D02*
X196897380Y-832413D01*
X196897380Y-832413D02*
X196897380Y-530032D01*
X196897380Y-530032D02*
X196957857Y-409080D01*
X196957857Y-409080D02*
X197018333Y-348603D01*
X197018333Y-348603D02*
X197139285Y-288127D01*
X197139285Y-288127D02*
X197381190Y-288127D01*
X197381190Y-288127D02*
X197502142Y-348603D01*
X197502142Y-348603D02*
X197562619Y-409080D01*
X197562619Y-409080D02*
X197623095Y-530032D01*
X6461666Y-49453365D02*
X6522142Y-49513842D01*
X6522142Y-49513842D02*
X6703571Y-49574318D01*
X6703571Y-49574318D02*
X6824523Y-49574318D01*
X6824523Y-49574318D02*
X7005952Y-49513842D01*
X7005952Y-49513842D02*
X7126904Y-49392889D01*
X7126904Y-49392889D02*
X7187381Y-49271937D01*
X7187381Y-49271937D02*
X7247857Y-49030032D01*
X7247857Y-49030032D02*
X7247857Y-48848603D01*
X7247857Y-48848603D02*
X7187381Y-48606699D01*
X7187381Y-48606699D02*
X7126904Y-48485746D01*
X7126904Y-48485746D02*
X7005952Y-48364794D01*
X7005952Y-48364794D02*
X6824523Y-48304318D01*
X6824523Y-48304318D02*
X6703571Y-48304318D01*
X6703571Y-48304318D02*
X6522142Y-48364794D01*
X6522142Y-48364794D02*
X6461666Y-48425270D01*
X5373095Y-48727651D02*
X5373095Y-49574318D01*
X5675476Y-48243842D02*
X5977857Y-49150984D01*
X5977857Y-49150984D02*
X5191666Y-49150984D01*
X182066428Y-63453365D02*
X182126904Y-63513842D01*
X182126904Y-63513842D02*
X182308333Y-63574318D01*
X182308333Y-63574318D02*
X182429285Y-63574318D01*
X182429285Y-63574318D02*
X182610714Y-63513842D01*
X182610714Y-63513842D02*
X182731666Y-63392889D01*
X182731666Y-63392889D02*
X182792143Y-63271937D01*
X182792143Y-63271937D02*
X182852619Y-63030032D01*
X182852619Y-63030032D02*
X182852619Y-62848603D01*
X182852619Y-62848603D02*
X182792143Y-62606699D01*
X182792143Y-62606699D02*
X182731666Y-62485746D01*
X182731666Y-62485746D02*
X182610714Y-62364794D01*
X182610714Y-62364794D02*
X182429285Y-62304318D01*
X182429285Y-62304318D02*
X182308333Y-62304318D01*
X182308333Y-62304318D02*
X182126904Y-62364794D01*
X182126904Y-62364794D02*
X182066428Y-62425270D01*
X181643095Y-62304318D02*
X180856904Y-62304318D01*
X180856904Y-62304318D02*
X181280238Y-62788127D01*
X181280238Y-62788127D02*
X181098809Y-62788127D01*
X181098809Y-62788127D02*
X180977857Y-62848603D01*
X180977857Y-62848603D02*
X180917381Y-62909080D01*
X180917381Y-62909080D02*
X180856904Y-63030032D01*
X180856904Y-63030032D02*
X180856904Y-63332413D01*
X180856904Y-63332413D02*
X180917381Y-63453365D01*
X180917381Y-63453365D02*
X180977857Y-63513842D01*
X180977857Y-63513842D02*
X181098809Y-63574318D01*
X181098809Y-63574318D02*
X181461666Y-63574318D01*
X181461666Y-63574318D02*
X181582619Y-63513842D01*
X181582619Y-63513842D02*
X181643095Y-63453365D01*
X180373095Y-62425270D02*
X180312619Y-62364794D01*
X180312619Y-62364794D02*
X180191666Y-62304318D01*
X180191666Y-62304318D02*
X179889285Y-62304318D01*
X179889285Y-62304318D02*
X179768333Y-62364794D01*
X179768333Y-62364794D02*
X179707857Y-62425270D01*
X179707857Y-62425270D02*
X179647380Y-62546222D01*
X179647380Y-62546222D02*
X179647380Y-62667175D01*
X179647380Y-62667175D02*
X179707857Y-62848603D01*
X179707857Y-62848603D02*
X180433571Y-63574318D01*
X180433571Y-63574318D02*
X179647380Y-63574318D01*
X199566428Y-78453365D02*
X199626904Y-78513842D01*
X199626904Y-78513842D02*
X199808333Y-78574318D01*
X199808333Y-78574318D02*
X199929285Y-78574318D01*
X199929285Y-78574318D02*
X200110714Y-78513842D01*
X200110714Y-78513842D02*
X200231666Y-78392889D01*
X200231666Y-78392889D02*
X200292143Y-78271937D01*
X200292143Y-78271937D02*
X200352619Y-78030032D01*
X200352619Y-78030032D02*
X200352619Y-77848603D01*
X200352619Y-77848603D02*
X200292143Y-77606699D01*
X200292143Y-77606699D02*
X200231666Y-77485746D01*
X200231666Y-77485746D02*
X200110714Y-77364794D01*
X200110714Y-77364794D02*
X199929285Y-77304318D01*
X199929285Y-77304318D02*
X199808333Y-77304318D01*
X199808333Y-77304318D02*
X199626904Y-77364794D01*
X199626904Y-77364794D02*
X199566428Y-77425270D01*
X198477857Y-77727651D02*
X198477857Y-78574318D01*
X198780238Y-77243842D02*
X199082619Y-78150984D01*
X199082619Y-78150984D02*
X198296428Y-78150984D01*
X197631190Y-77848603D02*
X197752142Y-77788127D01*
X197752142Y-77788127D02*
X197812619Y-77727651D01*
X197812619Y-77727651D02*
X197873095Y-77606699D01*
X197873095Y-77606699D02*
X197873095Y-77546222D01*
X197873095Y-77546222D02*
X197812619Y-77425270D01*
X197812619Y-77425270D02*
X197752142Y-77364794D01*
X197752142Y-77364794D02*
X197631190Y-77304318D01*
X197631190Y-77304318D02*
X197389285Y-77304318D01*
X197389285Y-77304318D02*
X197268333Y-77364794D01*
X197268333Y-77364794D02*
X197207857Y-77425270D01*
X197207857Y-77425270D02*
X197147380Y-77546222D01*
X197147380Y-77546222D02*
X197147380Y-77606699D01*
X197147380Y-77606699D02*
X197207857Y-77727651D01*
X197207857Y-77727651D02*
X197268333Y-77788127D01*
X197268333Y-77788127D02*
X197389285Y-77848603D01*
X197389285Y-77848603D02*
X197631190Y-77848603D01*
X197631190Y-77848603D02*
X197752142Y-77909080D01*
X197752142Y-77909080D02*
X197812619Y-77969556D01*
X197812619Y-77969556D02*
X197873095Y-78090508D01*
X197873095Y-78090508D02*
X197873095Y-78332413D01*
X197873095Y-78332413D02*
X197812619Y-78453365D01*
X197812619Y-78453365D02*
X197752142Y-78513842D01*
X197752142Y-78513842D02*
X197631190Y-78574318D01*
X197631190Y-78574318D02*
X197389285Y-78574318D01*
X197389285Y-78574318D02*
X197268333Y-78513842D01*
X197268333Y-78513842D02*
X197207857Y-78453365D01*
X197207857Y-78453365D02*
X197147380Y-78332413D01*
X197147380Y-78332413D02*
X197147380Y-78090508D01*
X197147380Y-78090508D02*
X197207857Y-77969556D01*
X197207857Y-77969556D02*
X197268333Y-77909080D01*
X197268333Y-77909080D02*
X197389285Y-77848603D01*
X264066428Y-31953365D02*
X264126904Y-32013842D01*
X264126904Y-32013842D02*
X264308333Y-32074318D01*
X264308333Y-32074318D02*
X264429285Y-32074318D01*
X264429285Y-32074318D02*
X264610714Y-32013842D01*
X264610714Y-32013842D02*
X264731666Y-31892889D01*
X264731666Y-31892889D02*
X264792143Y-31771937D01*
X264792143Y-31771937D02*
X264852619Y-31530032D01*
X264852619Y-31530032D02*
X264852619Y-31348603D01*
X264852619Y-31348603D02*
X264792143Y-31106699D01*
X264792143Y-31106699D02*
X264731666Y-30985746D01*
X264731666Y-30985746D02*
X264610714Y-30864794D01*
X264610714Y-30864794D02*
X264429285Y-30804318D01*
X264429285Y-30804318D02*
X264308333Y-30804318D01*
X264308333Y-30804318D02*
X264126904Y-30864794D01*
X264126904Y-30864794D02*
X264066428Y-30925270D01*
X262917381Y-30804318D02*
X263522143Y-30804318D01*
X263522143Y-30804318D02*
X263582619Y-31409080D01*
X263582619Y-31409080D02*
X263522143Y-31348603D01*
X263522143Y-31348603D02*
X263401190Y-31288127D01*
X263401190Y-31288127D02*
X263098809Y-31288127D01*
X263098809Y-31288127D02*
X262977857Y-31348603D01*
X262977857Y-31348603D02*
X262917381Y-31409080D01*
X262917381Y-31409080D02*
X262856904Y-31530032D01*
X262856904Y-31530032D02*
X262856904Y-31832413D01*
X262856904Y-31832413D02*
X262917381Y-31953365D01*
X262917381Y-31953365D02*
X262977857Y-32013842D01*
X262977857Y-32013842D02*
X263098809Y-32074318D01*
X263098809Y-32074318D02*
X263401190Y-32074318D01*
X263401190Y-32074318D02*
X263522143Y-32013842D01*
X263522143Y-32013842D02*
X263582619Y-31953365D01*
X262131190Y-31348603D02*
X262252142Y-31288127D01*
X262252142Y-31288127D02*
X262312619Y-31227651D01*
X262312619Y-31227651D02*
X262373095Y-31106699D01*
X262373095Y-31106699D02*
X262373095Y-31046222D01*
X262373095Y-31046222D02*
X262312619Y-30925270D01*
X262312619Y-30925270D02*
X262252142Y-30864794D01*
X262252142Y-30864794D02*
X262131190Y-30804318D01*
X262131190Y-30804318D02*
X261889285Y-30804318D01*
X261889285Y-30804318D02*
X261768333Y-30864794D01*
X261768333Y-30864794D02*
X261707857Y-30925270D01*
X261707857Y-30925270D02*
X261647380Y-31046222D01*
X261647380Y-31046222D02*
X261647380Y-31106699D01*
X261647380Y-31106699D02*
X261707857Y-31227651D01*
X261707857Y-31227651D02*
X261768333Y-31288127D01*
X261768333Y-31288127D02*
X261889285Y-31348603D01*
X261889285Y-31348603D02*
X262131190Y-31348603D01*
X262131190Y-31348603D02*
X262252142Y-31409080D01*
X262252142Y-31409080D02*
X262312619Y-31469556D01*
X262312619Y-31469556D02*
X262373095Y-31590508D01*
X262373095Y-31590508D02*
X262373095Y-31832413D01*
X262373095Y-31832413D02*
X262312619Y-31953365D01*
X262312619Y-31953365D02*
X262252142Y-32013842D01*
X262252142Y-32013842D02*
X262131190Y-32074318D01*
X262131190Y-32074318D02*
X261889285Y-32074318D01*
X261889285Y-32074318D02*
X261768333Y-32013842D01*
X261768333Y-32013842D02*
X261707857Y-31953365D01*
X261707857Y-31953365D02*
X261647380Y-31832413D01*
X261647380Y-31832413D02*
X261647380Y-31590508D01*
X261647380Y-31590508D02*
X261707857Y-31469556D01*
X261707857Y-31469556D02*
X261768333Y-31409080D01*
X261768333Y-31409080D02*
X261889285Y-31348603D01*
X84066428Y-12953365D02*
X84126904Y-13013842D01*
X84126904Y-13013842D02*
X84308333Y-13074318D01*
X84308333Y-13074318D02*
X84429285Y-13074318D01*
X84429285Y-13074318D02*
X84610714Y-13013842D01*
X84610714Y-13013842D02*
X84731666Y-12892889D01*
X84731666Y-12892889D02*
X84792143Y-12771937D01*
X84792143Y-12771937D02*
X84852619Y-12530032D01*
X84852619Y-12530032D02*
X84852619Y-12348603D01*
X84852619Y-12348603D02*
X84792143Y-12106699D01*
X84792143Y-12106699D02*
X84731666Y-11985746D01*
X84731666Y-11985746D02*
X84610714Y-11864794D01*
X84610714Y-11864794D02*
X84429285Y-11804318D01*
X84429285Y-11804318D02*
X84308333Y-11804318D01*
X84308333Y-11804318D02*
X84126904Y-11864794D01*
X84126904Y-11864794D02*
X84066428Y-11925270D01*
X82856904Y-13074318D02*
X83582619Y-13074318D01*
X83219762Y-13074318D02*
X83219762Y-11804318D01*
X83219762Y-11804318D02*
X83340714Y-11985746D01*
X83340714Y-11985746D02*
X83461666Y-12106699D01*
X83461666Y-12106699D02*
X83582619Y-12167175D01*
X82252142Y-13074318D02*
X82010238Y-13074318D01*
X82010238Y-13074318D02*
X81889285Y-13013842D01*
X81889285Y-13013842D02*
X81828809Y-12953365D01*
X81828809Y-12953365D02*
X81707857Y-12771937D01*
X81707857Y-12771937D02*
X81647380Y-12530032D01*
X81647380Y-12530032D02*
X81647380Y-12046222D01*
X81647380Y-12046222D02*
X81707857Y-11925270D01*
X81707857Y-11925270D02*
X81768333Y-11864794D01*
X81768333Y-11864794D02*
X81889285Y-11804318D01*
X81889285Y-11804318D02*
X82131190Y-11804318D01*
X82131190Y-11804318D02*
X82252142Y-11864794D01*
X82252142Y-11864794D02*
X82312619Y-11925270D01*
X82312619Y-11925270D02*
X82373095Y-12046222D01*
X82373095Y-12046222D02*
X82373095Y-12348603D01*
X82373095Y-12348603D02*
X82312619Y-12469556D01*
X82312619Y-12469556D02*
X82252142Y-12530032D01*
X82252142Y-12530032D02*
X82131190Y-12590508D01*
X82131190Y-12590508D02*
X81889285Y-12590508D01*
X81889285Y-12590508D02*
X81768333Y-12530032D01*
X81768333Y-12530032D02*
X81707857Y-12469556D01*
X81707857Y-12469556D02*
X81647380Y-12348603D01*
X74066428Y-76453365D02*
X74126904Y-76513842D01*
X74126904Y-76513842D02*
X74308333Y-76574318D01*
X74308333Y-76574318D02*
X74429285Y-76574318D01*
X74429285Y-76574318D02*
X74610714Y-76513842D01*
X74610714Y-76513842D02*
X74731666Y-76392889D01*
X74731666Y-76392889D02*
X74792143Y-76271937D01*
X74792143Y-76271937D02*
X74852619Y-76030032D01*
X74852619Y-76030032D02*
X74852619Y-75848603D01*
X74852619Y-75848603D02*
X74792143Y-75606699D01*
X74792143Y-75606699D02*
X74731666Y-75485746D01*
X74731666Y-75485746D02*
X74610714Y-75364794D01*
X74610714Y-75364794D02*
X74429285Y-75304318D01*
X74429285Y-75304318D02*
X74308333Y-75304318D01*
X74308333Y-75304318D02*
X74126904Y-75364794D01*
X74126904Y-75364794D02*
X74066428Y-75425270D01*
X73582619Y-75425270D02*
X73522143Y-75364794D01*
X73522143Y-75364794D02*
X73401190Y-75304318D01*
X73401190Y-75304318D02*
X73098809Y-75304318D01*
X73098809Y-75304318D02*
X72977857Y-75364794D01*
X72977857Y-75364794D02*
X72917381Y-75425270D01*
X72917381Y-75425270D02*
X72856904Y-75546222D01*
X72856904Y-75546222D02*
X72856904Y-75667175D01*
X72856904Y-75667175D02*
X72917381Y-75848603D01*
X72917381Y-75848603D02*
X73643095Y-76574318D01*
X73643095Y-76574318D02*
X72856904Y-76574318D01*
X71647380Y-76574318D02*
X72373095Y-76574318D01*
X72010238Y-76574318D02*
X72010238Y-75304318D01*
X72010238Y-75304318D02*
X72131190Y-75485746D01*
X72131190Y-75485746D02*
X72252142Y-75606699D01*
X72252142Y-75606699D02*
X72373095Y-75667175D01*
X65566428Y-59453365D02*
X65626904Y-59513842D01*
X65626904Y-59513842D02*
X65808333Y-59574318D01*
X65808333Y-59574318D02*
X65929285Y-59574318D01*
X65929285Y-59574318D02*
X66110714Y-59513842D01*
X66110714Y-59513842D02*
X66231666Y-59392889D01*
X66231666Y-59392889D02*
X66292143Y-59271937D01*
X66292143Y-59271937D02*
X66352619Y-59030032D01*
X66352619Y-59030032D02*
X66352619Y-58848603D01*
X66352619Y-58848603D02*
X66292143Y-58606699D01*
X66292143Y-58606699D02*
X66231666Y-58485746D01*
X66231666Y-58485746D02*
X66110714Y-58364794D01*
X66110714Y-58364794D02*
X65929285Y-58304318D01*
X65929285Y-58304318D02*
X65808333Y-58304318D01*
X65808333Y-58304318D02*
X65626904Y-58364794D01*
X65626904Y-58364794D02*
X65566428Y-58425270D01*
X64356904Y-59574318D02*
X65082619Y-59574318D01*
X64719762Y-59574318D02*
X64719762Y-58304318D01*
X64719762Y-58304318D02*
X64840714Y-58485746D01*
X64840714Y-58485746D02*
X64961666Y-58606699D01*
X64961666Y-58606699D02*
X65082619Y-58667175D01*
X63873095Y-58425270D02*
X63812619Y-58364794D01*
X63812619Y-58364794D02*
X63691666Y-58304318D01*
X63691666Y-58304318D02*
X63389285Y-58304318D01*
X63389285Y-58304318D02*
X63268333Y-58364794D01*
X63268333Y-58364794D02*
X63207857Y-58425270D01*
X63207857Y-58425270D02*
X63147380Y-58546222D01*
X63147380Y-58546222D02*
X63147380Y-58667175D01*
X63147380Y-58667175D02*
X63207857Y-58848603D01*
X63207857Y-58848603D02*
X63933571Y-59574318D01*
X63933571Y-59574318D02*
X63147380Y-59574318D01*
X230066428Y-16453365D02*
X230126904Y-16513842D01*
X230126904Y-16513842D02*
X230308333Y-16574318D01*
X230308333Y-16574318D02*
X230429285Y-16574318D01*
X230429285Y-16574318D02*
X230610714Y-16513842D01*
X230610714Y-16513842D02*
X230731666Y-16392889D01*
X230731666Y-16392889D02*
X230792143Y-16271937D01*
X230792143Y-16271937D02*
X230852619Y-16030032D01*
X230852619Y-16030032D02*
X230852619Y-15848603D01*
X230852619Y-15848603D02*
X230792143Y-15606699D01*
X230792143Y-15606699D02*
X230731666Y-15485746D01*
X230731666Y-15485746D02*
X230610714Y-15364794D01*
X230610714Y-15364794D02*
X230429285Y-15304318D01*
X230429285Y-15304318D02*
X230308333Y-15304318D01*
X230308333Y-15304318D02*
X230126904Y-15364794D01*
X230126904Y-15364794D02*
X230066428Y-15425270D01*
X228977857Y-15727651D02*
X228977857Y-16574318D01*
X229280238Y-15243842D02*
X229582619Y-16150984D01*
X229582619Y-16150984D02*
X228796428Y-16150984D01*
X228252142Y-16574318D02*
X228010238Y-16574318D01*
X228010238Y-16574318D02*
X227889285Y-16513842D01*
X227889285Y-16513842D02*
X227828809Y-16453365D01*
X227828809Y-16453365D02*
X227707857Y-16271937D01*
X227707857Y-16271937D02*
X227647380Y-16030032D01*
X227647380Y-16030032D02*
X227647380Y-15546222D01*
X227647380Y-15546222D02*
X227707857Y-15425270D01*
X227707857Y-15425270D02*
X227768333Y-15364794D01*
X227768333Y-15364794D02*
X227889285Y-15304318D01*
X227889285Y-15304318D02*
X228131190Y-15304318D01*
X228131190Y-15304318D02*
X228252142Y-15364794D01*
X228252142Y-15364794D02*
X228312619Y-15425270D01*
X228312619Y-15425270D02*
X228373095Y-15546222D01*
X228373095Y-15546222D02*
X228373095Y-15848603D01*
X228373095Y-15848603D02*
X228312619Y-15969556D01*
X228312619Y-15969556D02*
X228252142Y-16030032D01*
X228252142Y-16030032D02*
X228131190Y-16090508D01*
X228131190Y-16090508D02*
X227889285Y-16090508D01*
X227889285Y-16090508D02*
X227768333Y-16030032D01*
X227768333Y-16030032D02*
X227707857Y-15969556D01*
X227707857Y-15969556D02*
X227647380Y-15848603D01*
X94816428Y-44953365D02*
X94876904Y-45013842D01*
X94876904Y-45013842D02*
X95058333Y-45074318D01*
X95058333Y-45074318D02*
X95179285Y-45074318D01*
X95179285Y-45074318D02*
X95360714Y-45013842D01*
X95360714Y-45013842D02*
X95481666Y-44892889D01*
X95481666Y-44892889D02*
X95542143Y-44771937D01*
X95542143Y-44771937D02*
X95602619Y-44530032D01*
X95602619Y-44530032D02*
X95602619Y-44348603D01*
X95602619Y-44348603D02*
X95542143Y-44106699D01*
X95542143Y-44106699D02*
X95481666Y-43985746D01*
X95481666Y-43985746D02*
X95360714Y-43864794D01*
X95360714Y-43864794D02*
X95179285Y-43804318D01*
X95179285Y-43804318D02*
X95058333Y-43804318D01*
X95058333Y-43804318D02*
X94876904Y-43864794D01*
X94876904Y-43864794D02*
X94816428Y-43925270D01*
X94332619Y-43925270D02*
X94272143Y-43864794D01*
X94272143Y-43864794D02*
X94151190Y-43804318D01*
X94151190Y-43804318D02*
X93848809Y-43804318D01*
X93848809Y-43804318D02*
X93727857Y-43864794D01*
X93727857Y-43864794D02*
X93667381Y-43925270D01*
X93667381Y-43925270D02*
X93606904Y-44046222D01*
X93606904Y-44046222D02*
X93606904Y-44167175D01*
X93606904Y-44167175D02*
X93667381Y-44348603D01*
X93667381Y-44348603D02*
X94393095Y-45074318D01*
X94393095Y-45074318D02*
X93606904Y-45074318D01*
X93183571Y-43804318D02*
X92336904Y-43804318D01*
X92336904Y-43804318D02*
X92881190Y-45074318D01*
X55066428Y-77953365D02*
X55126904Y-78013842D01*
X55126904Y-78013842D02*
X55308333Y-78074318D01*
X55308333Y-78074318D02*
X55429285Y-78074318D01*
X55429285Y-78074318D02*
X55610714Y-78013842D01*
X55610714Y-78013842D02*
X55731666Y-77892889D01*
X55731666Y-77892889D02*
X55792143Y-77771937D01*
X55792143Y-77771937D02*
X55852619Y-77530032D01*
X55852619Y-77530032D02*
X55852619Y-77348603D01*
X55852619Y-77348603D02*
X55792143Y-77106699D01*
X55792143Y-77106699D02*
X55731666Y-76985746D01*
X55731666Y-76985746D02*
X55610714Y-76864794D01*
X55610714Y-76864794D02*
X55429285Y-76804318D01*
X55429285Y-76804318D02*
X55308333Y-76804318D01*
X55308333Y-76804318D02*
X55126904Y-76864794D01*
X55126904Y-76864794D02*
X55066428Y-76925270D01*
X53856904Y-78074318D02*
X54582619Y-78074318D01*
X54219762Y-78074318D02*
X54219762Y-76804318D01*
X54219762Y-76804318D02*
X54340714Y-76985746D01*
X54340714Y-76985746D02*
X54461666Y-77106699D01*
X54461666Y-77106699D02*
X54582619Y-77167175D01*
X53433571Y-76804318D02*
X52647380Y-76804318D01*
X52647380Y-76804318D02*
X53070714Y-77288127D01*
X53070714Y-77288127D02*
X52889285Y-77288127D01*
X52889285Y-77288127D02*
X52768333Y-77348603D01*
X52768333Y-77348603D02*
X52707857Y-77409080D01*
X52707857Y-77409080D02*
X52647380Y-77530032D01*
X52647380Y-77530032D02*
X52647380Y-77832413D01*
X52647380Y-77832413D02*
X52707857Y-77953365D01*
X52707857Y-77953365D02*
X52768333Y-78013842D01*
X52768333Y-78013842D02*
X52889285Y-78074318D01*
X52889285Y-78074318D02*
X53252142Y-78074318D01*
X53252142Y-78074318D02*
X53373095Y-78013842D01*
X53373095Y-78013842D02*
X53433571Y-77953365D01*
X265316428Y-77953365D02*
X265376904Y-78013842D01*
X265376904Y-78013842D02*
X265558333Y-78074318D01*
X265558333Y-78074318D02*
X265679285Y-78074318D01*
X265679285Y-78074318D02*
X265860714Y-78013842D01*
X265860714Y-78013842D02*
X265981666Y-77892889D01*
X265981666Y-77892889D02*
X266042143Y-77771937D01*
X266042143Y-77771937D02*
X266102619Y-77530032D01*
X266102619Y-77530032D02*
X266102619Y-77348603D01*
X266102619Y-77348603D02*
X266042143Y-77106699D01*
X266042143Y-77106699D02*
X265981666Y-76985746D01*
X265981666Y-76985746D02*
X265860714Y-76864794D01*
X265860714Y-76864794D02*
X265679285Y-76804318D01*
X265679285Y-76804318D02*
X265558333Y-76804318D01*
X265558333Y-76804318D02*
X265376904Y-76864794D01*
X265376904Y-76864794D02*
X265316428Y-76925270D01*
X264227857Y-76804318D02*
X264469762Y-76804318D01*
X264469762Y-76804318D02*
X264590714Y-76864794D01*
X264590714Y-76864794D02*
X264651190Y-76925270D01*
X264651190Y-76925270D02*
X264772143Y-77106699D01*
X264772143Y-77106699D02*
X264832619Y-77348603D01*
X264832619Y-77348603D02*
X264832619Y-77832413D01*
X264832619Y-77832413D02*
X264772143Y-77953365D01*
X264772143Y-77953365D02*
X264711666Y-78013842D01*
X264711666Y-78013842D02*
X264590714Y-78074318D01*
X264590714Y-78074318D02*
X264348809Y-78074318D01*
X264348809Y-78074318D02*
X264227857Y-78013842D01*
X264227857Y-78013842D02*
X264167381Y-77953365D01*
X264167381Y-77953365D02*
X264106904Y-77832413D01*
X264106904Y-77832413D02*
X264106904Y-77530032D01*
X264106904Y-77530032D02*
X264167381Y-77409080D01*
X264167381Y-77409080D02*
X264227857Y-77348603D01*
X264227857Y-77348603D02*
X264348809Y-77288127D01*
X264348809Y-77288127D02*
X264590714Y-77288127D01*
X264590714Y-77288127D02*
X264711666Y-77348603D01*
X264711666Y-77348603D02*
X264772143Y-77409080D01*
X264772143Y-77409080D02*
X264832619Y-77530032D01*
X263320714Y-76804318D02*
X263199761Y-76804318D01*
X263199761Y-76804318D02*
X263078809Y-76864794D01*
X263078809Y-76864794D02*
X263018333Y-76925270D01*
X263018333Y-76925270D02*
X262957857Y-77046222D01*
X262957857Y-77046222D02*
X262897380Y-77288127D01*
X262897380Y-77288127D02*
X262897380Y-77590508D01*
X262897380Y-77590508D02*
X262957857Y-77832413D01*
X262957857Y-77832413D02*
X263018333Y-77953365D01*
X263018333Y-77953365D02*
X263078809Y-78013842D01*
X263078809Y-78013842D02*
X263199761Y-78074318D01*
X263199761Y-78074318D02*
X263320714Y-78074318D01*
X263320714Y-78074318D02*
X263441666Y-78013842D01*
X263441666Y-78013842D02*
X263502142Y-77953365D01*
X263502142Y-77953365D02*
X263562619Y-77832413D01*
X263562619Y-77832413D02*
X263623095Y-77590508D01*
X263623095Y-77590508D02*
X263623095Y-77288127D01*
X263623095Y-77288127D02*
X263562619Y-77046222D01*
X263562619Y-77046222D02*
X263502142Y-76925270D01*
X263502142Y-76925270D02*
X263441666Y-76864794D01*
X263441666Y-76864794D02*
X263320714Y-76804318D01*
X218066428Y-77453365D02*
X218126904Y-77513842D01*
X218126904Y-77513842D02*
X218308333Y-77574318D01*
X218308333Y-77574318D02*
X218429285Y-77574318D01*
X218429285Y-77574318D02*
X218610714Y-77513842D01*
X218610714Y-77513842D02*
X218731666Y-77392889D01*
X218731666Y-77392889D02*
X218792143Y-77271937D01*
X218792143Y-77271937D02*
X218852619Y-77030032D01*
X218852619Y-77030032D02*
X218852619Y-76848603D01*
X218852619Y-76848603D02*
X218792143Y-76606699D01*
X218792143Y-76606699D02*
X218731666Y-76485746D01*
X218731666Y-76485746D02*
X218610714Y-76364794D01*
X218610714Y-76364794D02*
X218429285Y-76304318D01*
X218429285Y-76304318D02*
X218308333Y-76304318D01*
X218308333Y-76304318D02*
X218126904Y-76364794D01*
X218126904Y-76364794D02*
X218066428Y-76425270D01*
X216917381Y-76304318D02*
X217522143Y-76304318D01*
X217522143Y-76304318D02*
X217582619Y-76909080D01*
X217582619Y-76909080D02*
X217522143Y-76848603D01*
X217522143Y-76848603D02*
X217401190Y-76788127D01*
X217401190Y-76788127D02*
X217098809Y-76788127D01*
X217098809Y-76788127D02*
X216977857Y-76848603D01*
X216977857Y-76848603D02*
X216917381Y-76909080D01*
X216917381Y-76909080D02*
X216856904Y-77030032D01*
X216856904Y-77030032D02*
X216856904Y-77332413D01*
X216856904Y-77332413D02*
X216917381Y-77453365D01*
X216917381Y-77453365D02*
X216977857Y-77513842D01*
X216977857Y-77513842D02*
X217098809Y-77574318D01*
X217098809Y-77574318D02*
X217401190Y-77574318D01*
X217401190Y-77574318D02*
X217522143Y-77513842D01*
X217522143Y-77513842D02*
X217582619Y-77453365D01*
X216373095Y-76425270D02*
X216312619Y-76364794D01*
X216312619Y-76364794D02*
X216191666Y-76304318D01*
X216191666Y-76304318D02*
X215889285Y-76304318D01*
X215889285Y-76304318D02*
X215768333Y-76364794D01*
X215768333Y-76364794D02*
X215707857Y-76425270D01*
X215707857Y-76425270D02*
X215647380Y-76546222D01*
X215647380Y-76546222D02*
X215647380Y-76667175D01*
X215647380Y-76667175D02*
X215707857Y-76848603D01*
X215707857Y-76848603D02*
X216433571Y-77574318D01*
X216433571Y-77574318D02*
X215647380Y-77574318D01*
X115066428Y-18953365D02*
X115126904Y-19013842D01*
X115126904Y-19013842D02*
X115308333Y-19074318D01*
X115308333Y-19074318D02*
X115429285Y-19074318D01*
X115429285Y-19074318D02*
X115610714Y-19013842D01*
X115610714Y-19013842D02*
X115731666Y-18892889D01*
X115731666Y-18892889D02*
X115792143Y-18771937D01*
X115792143Y-18771937D02*
X115852619Y-18530032D01*
X115852619Y-18530032D02*
X115852619Y-18348603D01*
X115852619Y-18348603D02*
X115792143Y-18106699D01*
X115792143Y-18106699D02*
X115731666Y-17985746D01*
X115731666Y-17985746D02*
X115610714Y-17864794D01*
X115610714Y-17864794D02*
X115429285Y-17804318D01*
X115429285Y-17804318D02*
X115308333Y-17804318D01*
X115308333Y-17804318D02*
X115126904Y-17864794D01*
X115126904Y-17864794D02*
X115066428Y-17925270D01*
X114643095Y-17804318D02*
X113856904Y-17804318D01*
X113856904Y-17804318D02*
X114280238Y-18288127D01*
X114280238Y-18288127D02*
X114098809Y-18288127D01*
X114098809Y-18288127D02*
X113977857Y-18348603D01*
X113977857Y-18348603D02*
X113917381Y-18409080D01*
X113917381Y-18409080D02*
X113856904Y-18530032D01*
X113856904Y-18530032D02*
X113856904Y-18832413D01*
X113856904Y-18832413D02*
X113917381Y-18953365D01*
X113917381Y-18953365D02*
X113977857Y-19013842D01*
X113977857Y-19013842D02*
X114098809Y-19074318D01*
X114098809Y-19074318D02*
X114461666Y-19074318D01*
X114461666Y-19074318D02*
X114582619Y-19013842D01*
X114582619Y-19013842D02*
X114643095Y-18953365D01*
X112707857Y-17804318D02*
X113312619Y-17804318D01*
X113312619Y-17804318D02*
X113373095Y-18409080D01*
X113373095Y-18409080D02*
X113312619Y-18348603D01*
X113312619Y-18348603D02*
X113191666Y-18288127D01*
X113191666Y-18288127D02*
X112889285Y-18288127D01*
X112889285Y-18288127D02*
X112768333Y-18348603D01*
X112768333Y-18348603D02*
X112707857Y-18409080D01*
X112707857Y-18409080D02*
X112647380Y-18530032D01*
X112647380Y-18530032D02*
X112647380Y-18832413D01*
X112647380Y-18832413D02*
X112707857Y-18953365D01*
X112707857Y-18953365D02*
X112768333Y-19013842D01*
X112768333Y-19013842D02*
X112889285Y-19074318D01*
X112889285Y-19074318D02*
X113191666Y-19074318D01*
X113191666Y-19074318D02*
X113312619Y-19013842D01*
X113312619Y-19013842D02*
X113373095Y-18953365D01*
X24211666Y-20453365D02*
X24272142Y-20513842D01*
X24272142Y-20513842D02*
X24453571Y-20574318D01*
X24453571Y-20574318D02*
X24574523Y-20574318D01*
X24574523Y-20574318D02*
X24755952Y-20513842D01*
X24755952Y-20513842D02*
X24876904Y-20392889D01*
X24876904Y-20392889D02*
X24937381Y-20271937D01*
X24937381Y-20271937D02*
X24997857Y-20030032D01*
X24997857Y-20030032D02*
X24997857Y-19848603D01*
X24997857Y-19848603D02*
X24937381Y-19606699D01*
X24937381Y-19606699D02*
X24876904Y-19485746D01*
X24876904Y-19485746D02*
X24755952Y-19364794D01*
X24755952Y-19364794D02*
X24574523Y-19304318D01*
X24574523Y-19304318D02*
X24453571Y-19304318D01*
X24453571Y-19304318D02*
X24272142Y-19364794D01*
X24272142Y-19364794D02*
X24211666Y-19425270D01*
X23123095Y-19304318D02*
X23365000Y-19304318D01*
X23365000Y-19304318D02*
X23485952Y-19364794D01*
X23485952Y-19364794D02*
X23546428Y-19425270D01*
X23546428Y-19425270D02*
X23667381Y-19606699D01*
X23667381Y-19606699D02*
X23727857Y-19848603D01*
X23727857Y-19848603D02*
X23727857Y-20332413D01*
X23727857Y-20332413D02*
X23667381Y-20453365D01*
X23667381Y-20453365D02*
X23606904Y-20513842D01*
X23606904Y-20513842D02*
X23485952Y-20574318D01*
X23485952Y-20574318D02*
X23244047Y-20574318D01*
X23244047Y-20574318D02*
X23123095Y-20513842D01*
X23123095Y-20513842D02*
X23062619Y-20453365D01*
X23062619Y-20453365D02*
X23002142Y-20332413D01*
X23002142Y-20332413D02*
X23002142Y-20030032D01*
X23002142Y-20030032D02*
X23062619Y-19909080D01*
X23062619Y-19909080D02*
X23123095Y-19848603D01*
X23123095Y-19848603D02*
X23244047Y-19788127D01*
X23244047Y-19788127D02*
X23485952Y-19788127D01*
X23485952Y-19788127D02*
X23606904Y-19848603D01*
X23606904Y-19848603D02*
X23667381Y-19909080D01*
X23667381Y-19909080D02*
X23727857Y-20030032D01*
X29566428Y-56953365D02*
X29626904Y-57013842D01*
X29626904Y-57013842D02*
X29808333Y-57074318D01*
X29808333Y-57074318D02*
X29929285Y-57074318D01*
X29929285Y-57074318D02*
X30110714Y-57013842D01*
X30110714Y-57013842D02*
X30231666Y-56892889D01*
X30231666Y-56892889D02*
X30292143Y-56771937D01*
X30292143Y-56771937D02*
X30352619Y-56530032D01*
X30352619Y-56530032D02*
X30352619Y-56348603D01*
X30352619Y-56348603D02*
X30292143Y-56106699D01*
X30292143Y-56106699D02*
X30231666Y-55985746D01*
X30231666Y-55985746D02*
X30110714Y-55864794D01*
X30110714Y-55864794D02*
X29929285Y-55804318D01*
X29929285Y-55804318D02*
X29808333Y-55804318D01*
X29808333Y-55804318D02*
X29626904Y-55864794D01*
X29626904Y-55864794D02*
X29566428Y-55925270D01*
X28356904Y-57074318D02*
X29082619Y-57074318D01*
X28719762Y-57074318D02*
X28719762Y-55804318D01*
X28719762Y-55804318D02*
X28840714Y-55985746D01*
X28840714Y-55985746D02*
X28961666Y-56106699D01*
X28961666Y-56106699D02*
X29082619Y-56167175D01*
X27570714Y-55804318D02*
X27449761Y-55804318D01*
X27449761Y-55804318D02*
X27328809Y-55864794D01*
X27328809Y-55864794D02*
X27268333Y-55925270D01*
X27268333Y-55925270D02*
X27207857Y-56046222D01*
X27207857Y-56046222D02*
X27147380Y-56288127D01*
X27147380Y-56288127D02*
X27147380Y-56590508D01*
X27147380Y-56590508D02*
X27207857Y-56832413D01*
X27207857Y-56832413D02*
X27268333Y-56953365D01*
X27268333Y-56953365D02*
X27328809Y-57013842D01*
X27328809Y-57013842D02*
X27449761Y-57074318D01*
X27449761Y-57074318D02*
X27570714Y-57074318D01*
X27570714Y-57074318D02*
X27691666Y-57013842D01*
X27691666Y-57013842D02*
X27752142Y-56953365D01*
X27752142Y-56953365D02*
X27812619Y-56832413D01*
X27812619Y-56832413D02*
X27873095Y-56590508D01*
X27873095Y-56590508D02*
X27873095Y-56288127D01*
X27873095Y-56288127D02*
X27812619Y-56046222D01*
X27812619Y-56046222D02*
X27752142Y-55925270D01*
X27752142Y-55925270D02*
X27691666Y-55864794D01*
X27691666Y-55864794D02*
X27570714Y-55804318D01*
X161066428Y-1453365D02*
X161126904Y-1513842D01*
X161126904Y-1513842D02*
X161308333Y-1574318D01*
X161308333Y-1574318D02*
X161429285Y-1574318D01*
X161429285Y-1574318D02*
X161610714Y-1513842D01*
X161610714Y-1513842D02*
X161731666Y-1392889D01*
X161731666Y-1392889D02*
X161792143Y-1271937D01*
X161792143Y-1271937D02*
X161852619Y-1030032D01*
X161852619Y-1030032D02*
X161852619Y-848603D01*
X161852619Y-848603D02*
X161792143Y-606699D01*
X161792143Y-606699D02*
X161731666Y-485746D01*
X161731666Y-485746D02*
X161610714Y-364794D01*
X161610714Y-364794D02*
X161429285Y-304318D01*
X161429285Y-304318D02*
X161308333Y-304318D01*
X161308333Y-304318D02*
X161126904Y-364794D01*
X161126904Y-364794D02*
X161066428Y-425270D01*
X159856904Y-1574318D02*
X160582619Y-1574318D01*
X160219762Y-1574318D02*
X160219762Y-304318D01*
X160219762Y-304318D02*
X160340714Y-485746D01*
X160340714Y-485746D02*
X160461666Y-606699D01*
X160461666Y-606699D02*
X160582619Y-667175D01*
X159433571Y-304318D02*
X158586904Y-304318D01*
X158586904Y-304318D02*
X159131190Y-1574318D01*
X237066428Y-77453365D02*
X237126904Y-77513842D01*
X237126904Y-77513842D02*
X237308333Y-77574318D01*
X237308333Y-77574318D02*
X237429285Y-77574318D01*
X237429285Y-77574318D02*
X237610714Y-77513842D01*
X237610714Y-77513842D02*
X237731666Y-77392889D01*
X237731666Y-77392889D02*
X237792143Y-77271937D01*
X237792143Y-77271937D02*
X237852619Y-77030032D01*
X237852619Y-77030032D02*
X237852619Y-76848603D01*
X237852619Y-76848603D02*
X237792143Y-76606699D01*
X237792143Y-76606699D02*
X237731666Y-76485746D01*
X237731666Y-76485746D02*
X237610714Y-76364794D01*
X237610714Y-76364794D02*
X237429285Y-76304318D01*
X237429285Y-76304318D02*
X237308333Y-76304318D01*
X237308333Y-76304318D02*
X237126904Y-76364794D01*
X237126904Y-76364794D02*
X237066428Y-76425270D01*
X235917381Y-76304318D02*
X236522143Y-76304318D01*
X236522143Y-76304318D02*
X236582619Y-76909080D01*
X236582619Y-76909080D02*
X236522143Y-76848603D01*
X236522143Y-76848603D02*
X236401190Y-76788127D01*
X236401190Y-76788127D02*
X236098809Y-76788127D01*
X236098809Y-76788127D02*
X235977857Y-76848603D01*
X235977857Y-76848603D02*
X235917381Y-76909080D01*
X235917381Y-76909080D02*
X235856904Y-77030032D01*
X235856904Y-77030032D02*
X235856904Y-77332413D01*
X235856904Y-77332413D02*
X235917381Y-77453365D01*
X235917381Y-77453365D02*
X235977857Y-77513842D01*
X235977857Y-77513842D02*
X236098809Y-77574318D01*
X236098809Y-77574318D02*
X236401190Y-77574318D01*
X236401190Y-77574318D02*
X236522143Y-77513842D01*
X236522143Y-77513842D02*
X236582619Y-77453365D01*
X234768333Y-76304318D02*
X235010238Y-76304318D01*
X235010238Y-76304318D02*
X235131190Y-76364794D01*
X235131190Y-76364794D02*
X235191666Y-76425270D01*
X235191666Y-76425270D02*
X235312619Y-76606699D01*
X235312619Y-76606699D02*
X235373095Y-76848603D01*
X235373095Y-76848603D02*
X235373095Y-77332413D01*
X235373095Y-77332413D02*
X235312619Y-77453365D01*
X235312619Y-77453365D02*
X235252142Y-77513842D01*
X235252142Y-77513842D02*
X235131190Y-77574318D01*
X235131190Y-77574318D02*
X234889285Y-77574318D01*
X234889285Y-77574318D02*
X234768333Y-77513842D01*
X234768333Y-77513842D02*
X234707857Y-77453365D01*
X234707857Y-77453365D02*
X234647380Y-77332413D01*
X234647380Y-77332413D02*
X234647380Y-77030032D01*
X234647380Y-77030032D02*
X234707857Y-76909080D01*
X234707857Y-76909080D02*
X234768333Y-76848603D01*
X234768333Y-76848603D02*
X234889285Y-76788127D01*
X234889285Y-76788127D02*
X235131190Y-76788127D01*
X235131190Y-76788127D02*
X235252142Y-76848603D01*
X235252142Y-76848603D02*
X235312619Y-76909080D01*
X235312619Y-76909080D02*
X235373095Y-77030032D01*
X211066428Y-15453365D02*
X211126904Y-15513842D01*
X211126904Y-15513842D02*
X211308333Y-15574318D01*
X211308333Y-15574318D02*
X211429285Y-15574318D01*
X211429285Y-15574318D02*
X211610714Y-15513842D01*
X211610714Y-15513842D02*
X211731666Y-15392889D01*
X211731666Y-15392889D02*
X211792143Y-15271937D01*
X211792143Y-15271937D02*
X211852619Y-15030032D01*
X211852619Y-15030032D02*
X211852619Y-14848603D01*
X211852619Y-14848603D02*
X211792143Y-14606699D01*
X211792143Y-14606699D02*
X211731666Y-14485746D01*
X211731666Y-14485746D02*
X211610714Y-14364794D01*
X211610714Y-14364794D02*
X211429285Y-14304318D01*
X211429285Y-14304318D02*
X211308333Y-14304318D01*
X211308333Y-14304318D02*
X211126904Y-14364794D01*
X211126904Y-14364794D02*
X211066428Y-14425270D01*
X209977857Y-14727651D02*
X209977857Y-15574318D01*
X210280238Y-14243842D02*
X210582619Y-15150984D01*
X210582619Y-15150984D02*
X209796428Y-15150984D01*
X208647380Y-15574318D02*
X209373095Y-15574318D01*
X209010238Y-15574318D02*
X209010238Y-14304318D01*
X209010238Y-14304318D02*
X209131190Y-14485746D01*
X209131190Y-14485746D02*
X209252142Y-14606699D01*
X209252142Y-14606699D02*
X209373095Y-14667175D01*
X112066428Y-37453365D02*
X112126904Y-37513842D01*
X112126904Y-37513842D02*
X112308333Y-37574318D01*
X112308333Y-37574318D02*
X112429285Y-37574318D01*
X112429285Y-37574318D02*
X112610714Y-37513842D01*
X112610714Y-37513842D02*
X112731666Y-37392889D01*
X112731666Y-37392889D02*
X112792143Y-37271937D01*
X112792143Y-37271937D02*
X112852619Y-37030032D01*
X112852619Y-37030032D02*
X112852619Y-36848603D01*
X112852619Y-36848603D02*
X112792143Y-36606699D01*
X112792143Y-36606699D02*
X112731666Y-36485746D01*
X112731666Y-36485746D02*
X112610714Y-36364794D01*
X112610714Y-36364794D02*
X112429285Y-36304318D01*
X112429285Y-36304318D02*
X112308333Y-36304318D01*
X112308333Y-36304318D02*
X112126904Y-36364794D01*
X112126904Y-36364794D02*
X112066428Y-36425270D01*
X111643095Y-36304318D02*
X110856904Y-36304318D01*
X110856904Y-36304318D02*
X111280238Y-36788127D01*
X111280238Y-36788127D02*
X111098809Y-36788127D01*
X111098809Y-36788127D02*
X110977857Y-36848603D01*
X110977857Y-36848603D02*
X110917381Y-36909080D01*
X110917381Y-36909080D02*
X110856904Y-37030032D01*
X110856904Y-37030032D02*
X110856904Y-37332413D01*
X110856904Y-37332413D02*
X110917381Y-37453365D01*
X110917381Y-37453365D02*
X110977857Y-37513842D01*
X110977857Y-37513842D02*
X111098809Y-37574318D01*
X111098809Y-37574318D02*
X111461666Y-37574318D01*
X111461666Y-37574318D02*
X111582619Y-37513842D01*
X111582619Y-37513842D02*
X111643095Y-37453365D01*
X109768333Y-36304318D02*
X110010238Y-36304318D01*
X110010238Y-36304318D02*
X110131190Y-36364794D01*
X110131190Y-36364794D02*
X110191666Y-36425270D01*
X110191666Y-36425270D02*
X110312619Y-36606699D01*
X110312619Y-36606699D02*
X110373095Y-36848603D01*
X110373095Y-36848603D02*
X110373095Y-37332413D01*
X110373095Y-37332413D02*
X110312619Y-37453365D01*
X110312619Y-37453365D02*
X110252142Y-37513842D01*
X110252142Y-37513842D02*
X110131190Y-37574318D01*
X110131190Y-37574318D02*
X109889285Y-37574318D01*
X109889285Y-37574318D02*
X109768333Y-37513842D01*
X109768333Y-37513842D02*
X109707857Y-37453365D01*
X109707857Y-37453365D02*
X109647380Y-37332413D01*
X109647380Y-37332413D02*
X109647380Y-37030032D01*
X109647380Y-37030032D02*
X109707857Y-36909080D01*
X109707857Y-36909080D02*
X109768333Y-36848603D01*
X109768333Y-36848603D02*
X109889285Y-36788127D01*
X109889285Y-36788127D02*
X110131190Y-36788127D01*
X110131190Y-36788127D02*
X110252142Y-36848603D01*
X110252142Y-36848603D02*
X110312619Y-36909080D01*
X110312619Y-36909080D02*
X110373095Y-37030032D01*
X129566428Y-77953365D02*
X129626904Y-78013842D01*
X129626904Y-78013842D02*
X129808333Y-78074318D01*
X129808333Y-78074318D02*
X129929285Y-78074318D01*
X129929285Y-78074318D02*
X130110714Y-78013842D01*
X130110714Y-78013842D02*
X130231666Y-77892889D01*
X130231666Y-77892889D02*
X130292143Y-77771937D01*
X130292143Y-77771937D02*
X130352619Y-77530032D01*
X130352619Y-77530032D02*
X130352619Y-77348603D01*
X130352619Y-77348603D02*
X130292143Y-77106699D01*
X130292143Y-77106699D02*
X130231666Y-76985746D01*
X130231666Y-76985746D02*
X130110714Y-76864794D01*
X130110714Y-76864794D02*
X129929285Y-76804318D01*
X129929285Y-76804318D02*
X129808333Y-76804318D01*
X129808333Y-76804318D02*
X129626904Y-76864794D01*
X129626904Y-76864794D02*
X129566428Y-76925270D01*
X128417381Y-76804318D02*
X129022143Y-76804318D01*
X129022143Y-76804318D02*
X129082619Y-77409080D01*
X129082619Y-77409080D02*
X129022143Y-77348603D01*
X129022143Y-77348603D02*
X128901190Y-77288127D01*
X128901190Y-77288127D02*
X128598809Y-77288127D01*
X128598809Y-77288127D02*
X128477857Y-77348603D01*
X128477857Y-77348603D02*
X128417381Y-77409080D01*
X128417381Y-77409080D02*
X128356904Y-77530032D01*
X128356904Y-77530032D02*
X128356904Y-77832413D01*
X128356904Y-77832413D02*
X128417381Y-77953365D01*
X128417381Y-77953365D02*
X128477857Y-78013842D01*
X128477857Y-78013842D02*
X128598809Y-78074318D01*
X128598809Y-78074318D02*
X128901190Y-78074318D01*
X128901190Y-78074318D02*
X129022143Y-78013842D01*
X129022143Y-78013842D02*
X129082619Y-77953365D01*
X127570714Y-76804318D02*
X127449761Y-76804318D01*
X127449761Y-76804318D02*
X127328809Y-76864794D01*
X127328809Y-76864794D02*
X127268333Y-76925270D01*
X127268333Y-76925270D02*
X127207857Y-77046222D01*
X127207857Y-77046222D02*
X127147380Y-77288127D01*
X127147380Y-77288127D02*
X127147380Y-77590508D01*
X127147380Y-77590508D02*
X127207857Y-77832413D01*
X127207857Y-77832413D02*
X127268333Y-77953365D01*
X127268333Y-77953365D02*
X127328809Y-78013842D01*
X127328809Y-78013842D02*
X127449761Y-78074318D01*
X127449761Y-78074318D02*
X127570714Y-78074318D01*
X127570714Y-78074318D02*
X127691666Y-78013842D01*
X127691666Y-78013842D02*
X127752142Y-77953365D01*
X127752142Y-77953365D02*
X127812619Y-77832413D01*
X127812619Y-77832413D02*
X127873095Y-77590508D01*
X127873095Y-77590508D02*
X127873095Y-77288127D01*
X127873095Y-77288127D02*
X127812619Y-77046222D01*
X127812619Y-77046222D02*
X127752142Y-76925270D01*
X127752142Y-76925270D02*
X127691666Y-76864794D01*
X127691666Y-76864794D02*
X127570714Y-76804318D01*
X34066428Y-77453365D02*
X34126904Y-77513842D01*
X34126904Y-77513842D02*
X34308333Y-77574318D01*
X34308333Y-77574318D02*
X34429285Y-77574318D01*
X34429285Y-77574318D02*
X34610714Y-77513842D01*
X34610714Y-77513842D02*
X34731666Y-77392889D01*
X34731666Y-77392889D02*
X34792143Y-77271937D01*
X34792143Y-77271937D02*
X34852619Y-77030032D01*
X34852619Y-77030032D02*
X34852619Y-76848603D01*
X34852619Y-76848603D02*
X34792143Y-76606699D01*
X34792143Y-76606699D02*
X34731666Y-76485746D01*
X34731666Y-76485746D02*
X34610714Y-76364794D01*
X34610714Y-76364794D02*
X34429285Y-76304318D01*
X34429285Y-76304318D02*
X34308333Y-76304318D01*
X34308333Y-76304318D02*
X34126904Y-76364794D01*
X34126904Y-76364794D02*
X34066428Y-76425270D01*
X32856904Y-77574318D02*
X33582619Y-77574318D01*
X33219762Y-77574318D02*
X33219762Y-76304318D01*
X33219762Y-76304318D02*
X33340714Y-76485746D01*
X33340714Y-76485746D02*
X33461666Y-76606699D01*
X33461666Y-76606699D02*
X33582619Y-76667175D01*
X31768333Y-76304318D02*
X32010238Y-76304318D01*
X32010238Y-76304318D02*
X32131190Y-76364794D01*
X32131190Y-76364794D02*
X32191666Y-76425270D01*
X32191666Y-76425270D02*
X32312619Y-76606699D01*
X32312619Y-76606699D02*
X32373095Y-76848603D01*
X32373095Y-76848603D02*
X32373095Y-77332413D01*
X32373095Y-77332413D02*
X32312619Y-77453365D01*
X32312619Y-77453365D02*
X32252142Y-77513842D01*
X32252142Y-77513842D02*
X32131190Y-77574318D01*
X32131190Y-77574318D02*
X31889285Y-77574318D01*
X31889285Y-77574318D02*
X31768333Y-77513842D01*
X31768333Y-77513842D02*
X31707857Y-77453365D01*
X31707857Y-77453365D02*
X31647380Y-77332413D01*
X31647380Y-77332413D02*
X31647380Y-77030032D01*
X31647380Y-77030032D02*
X31707857Y-76909080D01*
X31707857Y-76909080D02*
X31768333Y-76848603D01*
X31768333Y-76848603D02*
X31889285Y-76788127D01*
X31889285Y-76788127D02*
X32131190Y-76788127D01*
X32131190Y-76788127D02*
X32252142Y-76848603D01*
X32252142Y-76848603D02*
X32312619Y-76909080D01*
X32312619Y-76909080D02*
X32373095Y-77030032D01*
X133816428Y-18453365D02*
X133876904Y-18513842D01*
X133876904Y-18513842D02*
X134058333Y-18574318D01*
X134058333Y-18574318D02*
X134179285Y-18574318D01*
X134179285Y-18574318D02*
X134360714Y-18513842D01*
X134360714Y-18513842D02*
X134481666Y-18392889D01*
X134481666Y-18392889D02*
X134542143Y-18271937D01*
X134542143Y-18271937D02*
X134602619Y-18030032D01*
X134602619Y-18030032D02*
X134602619Y-17848603D01*
X134602619Y-17848603D02*
X134542143Y-17606699D01*
X134542143Y-17606699D02*
X134481666Y-17485746D01*
X134481666Y-17485746D02*
X134360714Y-17364794D01*
X134360714Y-17364794D02*
X134179285Y-17304318D01*
X134179285Y-17304318D02*
X134058333Y-17304318D01*
X134058333Y-17304318D02*
X133876904Y-17364794D01*
X133876904Y-17364794D02*
X133816428Y-17425270D01*
X133393095Y-17304318D02*
X132606904Y-17304318D01*
X132606904Y-17304318D02*
X133030238Y-17788127D01*
X133030238Y-17788127D02*
X132848809Y-17788127D01*
X132848809Y-17788127D02*
X132727857Y-17848603D01*
X132727857Y-17848603D02*
X132667381Y-17909080D01*
X132667381Y-17909080D02*
X132606904Y-18030032D01*
X132606904Y-18030032D02*
X132606904Y-18332413D01*
X132606904Y-18332413D02*
X132667381Y-18453365D01*
X132667381Y-18453365D02*
X132727857Y-18513842D01*
X132727857Y-18513842D02*
X132848809Y-18574318D01*
X132848809Y-18574318D02*
X133211666Y-18574318D01*
X133211666Y-18574318D02*
X133332619Y-18513842D01*
X133332619Y-18513842D02*
X133393095Y-18453365D01*
X131518333Y-17727651D02*
X131518333Y-18574318D01*
X131820714Y-17243842D02*
X132123095Y-18150984D01*
X132123095Y-18150984D02*
X131336904Y-18150984D01*
X191566428Y-43953365D02*
X191626904Y-44013842D01*
X191626904Y-44013842D02*
X191808333Y-44074318D01*
X191808333Y-44074318D02*
X191929285Y-44074318D01*
X191929285Y-44074318D02*
X192110714Y-44013842D01*
X192110714Y-44013842D02*
X192231666Y-43892889D01*
X192231666Y-43892889D02*
X192292143Y-43771937D01*
X192292143Y-43771937D02*
X192352619Y-43530032D01*
X192352619Y-43530032D02*
X192352619Y-43348603D01*
X192352619Y-43348603D02*
X192292143Y-43106699D01*
X192292143Y-43106699D02*
X192231666Y-42985746D01*
X192231666Y-42985746D02*
X192110714Y-42864794D01*
X192110714Y-42864794D02*
X191929285Y-42804318D01*
X191929285Y-42804318D02*
X191808333Y-42804318D01*
X191808333Y-42804318D02*
X191626904Y-42864794D01*
X191626904Y-42864794D02*
X191566428Y-42925270D01*
X191143095Y-42804318D02*
X190356904Y-42804318D01*
X190356904Y-42804318D02*
X190780238Y-43288127D01*
X190780238Y-43288127D02*
X190598809Y-43288127D01*
X190598809Y-43288127D02*
X190477857Y-43348603D01*
X190477857Y-43348603D02*
X190417381Y-43409080D01*
X190417381Y-43409080D02*
X190356904Y-43530032D01*
X190356904Y-43530032D02*
X190356904Y-43832413D01*
X190356904Y-43832413D02*
X190417381Y-43953365D01*
X190417381Y-43953365D02*
X190477857Y-44013842D01*
X190477857Y-44013842D02*
X190598809Y-44074318D01*
X190598809Y-44074318D02*
X190961666Y-44074318D01*
X190961666Y-44074318D02*
X191082619Y-44013842D01*
X191082619Y-44013842D02*
X191143095Y-43953365D01*
X189631190Y-43348603D02*
X189752142Y-43288127D01*
X189752142Y-43288127D02*
X189812619Y-43227651D01*
X189812619Y-43227651D02*
X189873095Y-43106699D01*
X189873095Y-43106699D02*
X189873095Y-43046222D01*
X189873095Y-43046222D02*
X189812619Y-42925270D01*
X189812619Y-42925270D02*
X189752142Y-42864794D01*
X189752142Y-42864794D02*
X189631190Y-42804318D01*
X189631190Y-42804318D02*
X189389285Y-42804318D01*
X189389285Y-42804318D02*
X189268333Y-42864794D01*
X189268333Y-42864794D02*
X189207857Y-42925270D01*
X189207857Y-42925270D02*
X189147380Y-43046222D01*
X189147380Y-43046222D02*
X189147380Y-43106699D01*
X189147380Y-43106699D02*
X189207857Y-43227651D01*
X189207857Y-43227651D02*
X189268333Y-43288127D01*
X189268333Y-43288127D02*
X189389285Y-43348603D01*
X189389285Y-43348603D02*
X189631190Y-43348603D01*
X189631190Y-43348603D02*
X189752142Y-43409080D01*
X189752142Y-43409080D02*
X189812619Y-43469556D01*
X189812619Y-43469556D02*
X189873095Y-43590508D01*
X189873095Y-43590508D02*
X189873095Y-43832413D01*
X189873095Y-43832413D02*
X189812619Y-43953365D01*
X189812619Y-43953365D02*
X189752142Y-44013842D01*
X189752142Y-44013842D02*
X189631190Y-44074318D01*
X189631190Y-44074318D02*
X189389285Y-44074318D01*
X189389285Y-44074318D02*
X189268333Y-44013842D01*
X189268333Y-44013842D02*
X189207857Y-43953365D01*
X189207857Y-43953365D02*
X189147380Y-43832413D01*
X189147380Y-43832413D02*
X189147380Y-43590508D01*
X189147380Y-43590508D02*
X189207857Y-43469556D01*
X189207857Y-43469556D02*
X189268333Y-43409080D01*
X189268333Y-43409080D02*
X189389285Y-43348603D01*
X177066428Y-32453365D02*
X177126904Y-32513842D01*
X177126904Y-32513842D02*
X177308333Y-32574318D01*
X177308333Y-32574318D02*
X177429285Y-32574318D01*
X177429285Y-32574318D02*
X177610714Y-32513842D01*
X177610714Y-32513842D02*
X177731666Y-32392889D01*
X177731666Y-32392889D02*
X177792143Y-32271937D01*
X177792143Y-32271937D02*
X177852619Y-32030032D01*
X177852619Y-32030032D02*
X177852619Y-31848603D01*
X177852619Y-31848603D02*
X177792143Y-31606699D01*
X177792143Y-31606699D02*
X177731666Y-31485746D01*
X177731666Y-31485746D02*
X177610714Y-31364794D01*
X177610714Y-31364794D02*
X177429285Y-31304318D01*
X177429285Y-31304318D02*
X177308333Y-31304318D01*
X177308333Y-31304318D02*
X177126904Y-31364794D01*
X177126904Y-31364794D02*
X177066428Y-31425270D01*
X176643095Y-31304318D02*
X175856904Y-31304318D01*
X175856904Y-31304318D02*
X176280238Y-31788127D01*
X176280238Y-31788127D02*
X176098809Y-31788127D01*
X176098809Y-31788127D02*
X175977857Y-31848603D01*
X175977857Y-31848603D02*
X175917381Y-31909080D01*
X175917381Y-31909080D02*
X175856904Y-32030032D01*
X175856904Y-32030032D02*
X175856904Y-32332413D01*
X175856904Y-32332413D02*
X175917381Y-32453365D01*
X175917381Y-32453365D02*
X175977857Y-32513842D01*
X175977857Y-32513842D02*
X176098809Y-32574318D01*
X176098809Y-32574318D02*
X176461666Y-32574318D01*
X176461666Y-32574318D02*
X176582619Y-32513842D01*
X176582619Y-32513842D02*
X176643095Y-32453365D01*
X175070714Y-31304318D02*
X174949761Y-31304318D01*
X174949761Y-31304318D02*
X174828809Y-31364794D01*
X174828809Y-31364794D02*
X174768333Y-31425270D01*
X174768333Y-31425270D02*
X174707857Y-31546222D01*
X174707857Y-31546222D02*
X174647380Y-31788127D01*
X174647380Y-31788127D02*
X174647380Y-32090508D01*
X174647380Y-32090508D02*
X174707857Y-32332413D01*
X174707857Y-32332413D02*
X174768333Y-32453365D01*
X174768333Y-32453365D02*
X174828809Y-32513842D01*
X174828809Y-32513842D02*
X174949761Y-32574318D01*
X174949761Y-32574318D02*
X175070714Y-32574318D01*
X175070714Y-32574318D02*
X175191666Y-32513842D01*
X175191666Y-32513842D02*
X175252142Y-32453365D01*
X175252142Y-32453365D02*
X175312619Y-32332413D01*
X175312619Y-32332413D02*
X175373095Y-32090508D01*
X175373095Y-32090508D02*
X175373095Y-31788127D01*
X175373095Y-31788127D02*
X175312619Y-31546222D01*
X175312619Y-31546222D02*
X175252142Y-31425270D01*
X175252142Y-31425270D02*
X175191666Y-31364794D01*
X175191666Y-31364794D02*
X175070714Y-31304318D01*
X22961666Y-39453365D02*
X23022142Y-39513842D01*
X23022142Y-39513842D02*
X23203571Y-39574318D01*
X23203571Y-39574318D02*
X23324523Y-39574318D01*
X23324523Y-39574318D02*
X23505952Y-39513842D01*
X23505952Y-39513842D02*
X23626904Y-39392889D01*
X23626904Y-39392889D02*
X23687381Y-39271937D01*
X23687381Y-39271937D02*
X23747857Y-39030032D01*
X23747857Y-39030032D02*
X23747857Y-38848603D01*
X23747857Y-38848603D02*
X23687381Y-38606699D01*
X23687381Y-38606699D02*
X23626904Y-38485746D01*
X23626904Y-38485746D02*
X23505952Y-38364794D01*
X23505952Y-38364794D02*
X23324523Y-38304318D01*
X23324523Y-38304318D02*
X23203571Y-38304318D01*
X23203571Y-38304318D02*
X23022142Y-38364794D01*
X23022142Y-38364794D02*
X22961666Y-38425270D01*
X22538333Y-38304318D02*
X21691666Y-38304318D01*
X21691666Y-38304318D02*
X22235952Y-39574318D01*
X124566428Y-50953365D02*
X124626904Y-51013842D01*
X124626904Y-51013842D02*
X124808333Y-51074318D01*
X124808333Y-51074318D02*
X124929285Y-51074318D01*
X124929285Y-51074318D02*
X125110714Y-51013842D01*
X125110714Y-51013842D02*
X125231666Y-50892889D01*
X125231666Y-50892889D02*
X125292143Y-50771937D01*
X125292143Y-50771937D02*
X125352619Y-50530032D01*
X125352619Y-50530032D02*
X125352619Y-50348603D01*
X125352619Y-50348603D02*
X125292143Y-50106699D01*
X125292143Y-50106699D02*
X125231666Y-49985746D01*
X125231666Y-49985746D02*
X125110714Y-49864794D01*
X125110714Y-49864794D02*
X124929285Y-49804318D01*
X124929285Y-49804318D02*
X124808333Y-49804318D01*
X124808333Y-49804318D02*
X124626904Y-49864794D01*
X124626904Y-49864794D02*
X124566428Y-49925270D01*
X124082619Y-49925270D02*
X124022143Y-49864794D01*
X124022143Y-49864794D02*
X123901190Y-49804318D01*
X123901190Y-49804318D02*
X123598809Y-49804318D01*
X123598809Y-49804318D02*
X123477857Y-49864794D01*
X123477857Y-49864794D02*
X123417381Y-49925270D01*
X123417381Y-49925270D02*
X123356904Y-50046222D01*
X123356904Y-50046222D02*
X123356904Y-50167175D01*
X123356904Y-50167175D02*
X123417381Y-50348603D01*
X123417381Y-50348603D02*
X124143095Y-51074318D01*
X124143095Y-51074318D02*
X123356904Y-51074318D01*
X122933571Y-49804318D02*
X122147380Y-49804318D01*
X122147380Y-49804318D02*
X122570714Y-50288127D01*
X122570714Y-50288127D02*
X122389285Y-50288127D01*
X122389285Y-50288127D02*
X122268333Y-50348603D01*
X122268333Y-50348603D02*
X122207857Y-50409080D01*
X122207857Y-50409080D02*
X122147380Y-50530032D01*
X122147380Y-50530032D02*
X122147380Y-50832413D01*
X122147380Y-50832413D02*
X122207857Y-50953365D01*
X122207857Y-50953365D02*
X122268333Y-51013842D01*
X122268333Y-51013842D02*
X122389285Y-51074318D01*
X122389285Y-51074318D02*
X122752142Y-51074318D01*
X122752142Y-51074318D02*
X122873095Y-51013842D01*
X122873095Y-51013842D02*
X122933571Y-50953365D01*
X111066428Y-76953365D02*
X111126904Y-77013842D01*
X111126904Y-77013842D02*
X111308333Y-77074318D01*
X111308333Y-77074318D02*
X111429285Y-77074318D01*
X111429285Y-77074318D02*
X111610714Y-77013842D01*
X111610714Y-77013842D02*
X111731666Y-76892889D01*
X111731666Y-76892889D02*
X111792143Y-76771937D01*
X111792143Y-76771937D02*
X111852619Y-76530032D01*
X111852619Y-76530032D02*
X111852619Y-76348603D01*
X111852619Y-76348603D02*
X111792143Y-76106699D01*
X111792143Y-76106699D02*
X111731666Y-75985746D01*
X111731666Y-75985746D02*
X111610714Y-75864794D01*
X111610714Y-75864794D02*
X111429285Y-75804318D01*
X111429285Y-75804318D02*
X111308333Y-75804318D01*
X111308333Y-75804318D02*
X111126904Y-75864794D01*
X111126904Y-75864794D02*
X111066428Y-75925270D01*
X110582619Y-75925270D02*
X110522143Y-75864794D01*
X110522143Y-75864794D02*
X110401190Y-75804318D01*
X110401190Y-75804318D02*
X110098809Y-75804318D01*
X110098809Y-75804318D02*
X109977857Y-75864794D01*
X109977857Y-75864794D02*
X109917381Y-75925270D01*
X109917381Y-75925270D02*
X109856904Y-76046222D01*
X109856904Y-76046222D02*
X109856904Y-76167175D01*
X109856904Y-76167175D02*
X109917381Y-76348603D01*
X109917381Y-76348603D02*
X110643095Y-77074318D01*
X110643095Y-77074318D02*
X109856904Y-77074318D01*
X108768333Y-76227651D02*
X108768333Y-77074318D01*
X109070714Y-75743842D02*
X109373095Y-76650984D01*
X109373095Y-76650984D02*
X108586904Y-76650984D01*
X244566428Y-48953365D02*
X244626904Y-49013842D01*
X244626904Y-49013842D02*
X244808333Y-49074318D01*
X244808333Y-49074318D02*
X244929285Y-49074318D01*
X244929285Y-49074318D02*
X245110714Y-49013842D01*
X245110714Y-49013842D02*
X245231666Y-48892889D01*
X245231666Y-48892889D02*
X245292143Y-48771937D01*
X245292143Y-48771937D02*
X245352619Y-48530032D01*
X245352619Y-48530032D02*
X245352619Y-48348603D01*
X245352619Y-48348603D02*
X245292143Y-48106699D01*
X245292143Y-48106699D02*
X245231666Y-47985746D01*
X245231666Y-47985746D02*
X245110714Y-47864794D01*
X245110714Y-47864794D02*
X244929285Y-47804318D01*
X244929285Y-47804318D02*
X244808333Y-47804318D01*
X244808333Y-47804318D02*
X244626904Y-47864794D01*
X244626904Y-47864794D02*
X244566428Y-47925270D01*
X243417381Y-47804318D02*
X244022143Y-47804318D01*
X244022143Y-47804318D02*
X244082619Y-48409080D01*
X244082619Y-48409080D02*
X244022143Y-48348603D01*
X244022143Y-48348603D02*
X243901190Y-48288127D01*
X243901190Y-48288127D02*
X243598809Y-48288127D01*
X243598809Y-48288127D02*
X243477857Y-48348603D01*
X243477857Y-48348603D02*
X243417381Y-48409080D01*
X243417381Y-48409080D02*
X243356904Y-48530032D01*
X243356904Y-48530032D02*
X243356904Y-48832413D01*
X243356904Y-48832413D02*
X243417381Y-48953365D01*
X243417381Y-48953365D02*
X243477857Y-49013842D01*
X243477857Y-49013842D02*
X243598809Y-49074318D01*
X243598809Y-49074318D02*
X243901190Y-49074318D01*
X243901190Y-49074318D02*
X244022143Y-49013842D01*
X244022143Y-49013842D02*
X244082619Y-48953365D01*
X242268333Y-48227651D02*
X242268333Y-49074318D01*
X242570714Y-47743842D02*
X242873095Y-48650984D01*
X242873095Y-48650984D02*
X242086904Y-48650984D01*
X83816428Y-60453365D02*
X83876904Y-60513842D01*
X83876904Y-60513842D02*
X84058333Y-60574318D01*
X84058333Y-60574318D02*
X84179285Y-60574318D01*
X84179285Y-60574318D02*
X84360714Y-60513842D01*
X84360714Y-60513842D02*
X84481666Y-60392889D01*
X84481666Y-60392889D02*
X84542143Y-60271937D01*
X84542143Y-60271937D02*
X84602619Y-60030032D01*
X84602619Y-60030032D02*
X84602619Y-59848603D01*
X84602619Y-59848603D02*
X84542143Y-59606699D01*
X84542143Y-59606699D02*
X84481666Y-59485746D01*
X84481666Y-59485746D02*
X84360714Y-59364794D01*
X84360714Y-59364794D02*
X84179285Y-59304318D01*
X84179285Y-59304318D02*
X84058333Y-59304318D01*
X84058333Y-59304318D02*
X83876904Y-59364794D01*
X83876904Y-59364794D02*
X83816428Y-59425270D01*
X83332619Y-59425270D02*
X83272143Y-59364794D01*
X83272143Y-59364794D02*
X83151190Y-59304318D01*
X83151190Y-59304318D02*
X82848809Y-59304318D01*
X82848809Y-59304318D02*
X82727857Y-59364794D01*
X82727857Y-59364794D02*
X82667381Y-59425270D01*
X82667381Y-59425270D02*
X82606904Y-59546222D01*
X82606904Y-59546222D02*
X82606904Y-59667175D01*
X82606904Y-59667175D02*
X82667381Y-59848603D01*
X82667381Y-59848603D02*
X83393095Y-60574318D01*
X83393095Y-60574318D02*
X82606904Y-60574318D01*
X81820714Y-59304318D02*
X81699761Y-59304318D01*
X81699761Y-59304318D02*
X81578809Y-59364794D01*
X81578809Y-59364794D02*
X81518333Y-59425270D01*
X81518333Y-59425270D02*
X81457857Y-59546222D01*
X81457857Y-59546222D02*
X81397380Y-59788127D01*
X81397380Y-59788127D02*
X81397380Y-60090508D01*
X81397380Y-60090508D02*
X81457857Y-60332413D01*
X81457857Y-60332413D02*
X81518333Y-60453365D01*
X81518333Y-60453365D02*
X81578809Y-60513842D01*
X81578809Y-60513842D02*
X81699761Y-60574318D01*
X81699761Y-60574318D02*
X81820714Y-60574318D01*
X81820714Y-60574318D02*
X81941666Y-60513842D01*
X81941666Y-60513842D02*
X82002142Y-60453365D01*
X82002142Y-60453365D02*
X82062619Y-60332413D01*
X82062619Y-60332413D02*
X82123095Y-60090508D01*
X82123095Y-60090508D02*
X82123095Y-59788127D01*
X82123095Y-59788127D02*
X82062619Y-59546222D01*
X82062619Y-59546222D02*
X82002142Y-59425270D01*
X82002142Y-59425270D02*
X81941666Y-59364794D01*
X81941666Y-59364794D02*
X81820714Y-59304318D01*
X69566428Y-953365D02*
X69626904Y-1013842D01*
X69626904Y-1013842D02*
X69808333Y-1074318D01*
X69808333Y-1074318D02*
X69929285Y-1074318D01*
X69929285Y-1074318D02*
X70110714Y-1013842D01*
X70110714Y-1013842D02*
X70231666Y-892889D01*
X70231666Y-892889D02*
X70292143Y-771937D01*
X70292143Y-771937D02*
X70352619Y-530032D01*
X70352619Y-530032D02*
X70352619Y-348603D01*
X70352619Y-348603D02*
X70292143Y-106699D01*
X70292143Y-106699D02*
X70231666Y14253D01*
X70231666Y14253D02*
X70110714Y135205D01*
X70110714Y135205D02*
X69929285Y195681D01*
X69929285Y195681D02*
X69808333Y195681D01*
X69808333Y195681D02*
X69626904Y135205D01*
X69626904Y135205D02*
X69566428Y74729D01*
X68356904Y-1074318D02*
X69082619Y-1074318D01*
X68719762Y-1074318D02*
X68719762Y195681D01*
X68719762Y195681D02*
X68840714Y14253D01*
X68840714Y14253D02*
X68961666Y-106699D01*
X68961666Y-106699D02*
X69082619Y-167175D01*
X67631190Y-348603D02*
X67752142Y-288127D01*
X67752142Y-288127D02*
X67812619Y-227651D01*
X67812619Y-227651D02*
X67873095Y-106699D01*
X67873095Y-106699D02*
X67873095Y-46222D01*
X67873095Y-46222D02*
X67812619Y74729D01*
X67812619Y74729D02*
X67752142Y135205D01*
X67752142Y135205D02*
X67631190Y195681D01*
X67631190Y195681D02*
X67389285Y195681D01*
X67389285Y195681D02*
X67268333Y135205D01*
X67268333Y135205D02*
X67207857Y74729D01*
X67207857Y74729D02*
X67147380Y-46222D01*
X67147380Y-46222D02*
X67147380Y-106699D01*
X67147380Y-106699D02*
X67207857Y-227651D01*
X67207857Y-227651D02*
X67268333Y-288127D01*
X67268333Y-288127D02*
X67389285Y-348603D01*
X67389285Y-348603D02*
X67631190Y-348603D01*
X67631190Y-348603D02*
X67752142Y-409080D01*
X67752142Y-409080D02*
X67812619Y-469556D01*
X67812619Y-469556D02*
X67873095Y-590508D01*
X67873095Y-590508D02*
X67873095Y-832413D01*
X67873095Y-832413D02*
X67812619Y-953365D01*
X67812619Y-953365D02*
X67752142Y-1013842D01*
X67752142Y-1013842D02*
X67631190Y-1074318D01*
X67631190Y-1074318D02*
X67389285Y-1074318D01*
X67389285Y-1074318D02*
X67268333Y-1013842D01*
X67268333Y-1013842D02*
X67207857Y-953365D01*
X67207857Y-953365D02*
X67147380Y-832413D01*
X67147380Y-832413D02*
X67147380Y-590508D01*
X67147380Y-590508D02*
X67207857Y-469556D01*
X67207857Y-469556D02*
X67268333Y-409080D01*
X67268333Y-409080D02*
X67389285Y-348603D01*
X170066428Y-49453365D02*
X170126904Y-49513842D01*
X170126904Y-49513842D02*
X170308333Y-49574318D01*
X170308333Y-49574318D02*
X170429285Y-49574318D01*
X170429285Y-49574318D02*
X170610714Y-49513842D01*
X170610714Y-49513842D02*
X170731666Y-49392889D01*
X170731666Y-49392889D02*
X170792143Y-49271937D01*
X170792143Y-49271937D02*
X170852619Y-49030032D01*
X170852619Y-49030032D02*
X170852619Y-48848603D01*
X170852619Y-48848603D02*
X170792143Y-48606699D01*
X170792143Y-48606699D02*
X170731666Y-48485746D01*
X170731666Y-48485746D02*
X170610714Y-48364794D01*
X170610714Y-48364794D02*
X170429285Y-48304318D01*
X170429285Y-48304318D02*
X170308333Y-48304318D01*
X170308333Y-48304318D02*
X170126904Y-48364794D01*
X170126904Y-48364794D02*
X170066428Y-48425270D01*
X169643095Y-48304318D02*
X168856904Y-48304318D01*
X168856904Y-48304318D02*
X169280238Y-48788127D01*
X169280238Y-48788127D02*
X169098809Y-48788127D01*
X169098809Y-48788127D02*
X168977857Y-48848603D01*
X168977857Y-48848603D02*
X168917381Y-48909080D01*
X168917381Y-48909080D02*
X168856904Y-49030032D01*
X168856904Y-49030032D02*
X168856904Y-49332413D01*
X168856904Y-49332413D02*
X168917381Y-49453365D01*
X168917381Y-49453365D02*
X168977857Y-49513842D01*
X168977857Y-49513842D02*
X169098809Y-49574318D01*
X169098809Y-49574318D02*
X169461666Y-49574318D01*
X169461666Y-49574318D02*
X169582619Y-49513842D01*
X169582619Y-49513842D02*
X169643095Y-49453365D01*
X167647380Y-49574318D02*
X168373095Y-49574318D01*
X168010238Y-49574318D02*
X168010238Y-48304318D01*
X168010238Y-48304318D02*
X168131190Y-48485746D01*
X168131190Y-48485746D02*
X168252142Y-48606699D01*
X168252142Y-48606699D02*
X168373095Y-48667175D01*
X194066428Y-21453365D02*
X194126904Y-21513842D01*
X194126904Y-21513842D02*
X194308333Y-21574318D01*
X194308333Y-21574318D02*
X194429285Y-21574318D01*
X194429285Y-21574318D02*
X194610714Y-21513842D01*
X194610714Y-21513842D02*
X194731666Y-21392889D01*
X194731666Y-21392889D02*
X194792143Y-21271937D01*
X194792143Y-21271937D02*
X194852619Y-21030032D01*
X194852619Y-21030032D02*
X194852619Y-20848603D01*
X194852619Y-20848603D02*
X194792143Y-20606699D01*
X194792143Y-20606699D02*
X194731666Y-20485746D01*
X194731666Y-20485746D02*
X194610714Y-20364794D01*
X194610714Y-20364794D02*
X194429285Y-20304318D01*
X194429285Y-20304318D02*
X194308333Y-20304318D01*
X194308333Y-20304318D02*
X194126904Y-20364794D01*
X194126904Y-20364794D02*
X194066428Y-20425270D01*
X193643095Y-20304318D02*
X192856904Y-20304318D01*
X192856904Y-20304318D02*
X193280238Y-20788127D01*
X193280238Y-20788127D02*
X193098809Y-20788127D01*
X193098809Y-20788127D02*
X192977857Y-20848603D01*
X192977857Y-20848603D02*
X192917381Y-20909080D01*
X192917381Y-20909080D02*
X192856904Y-21030032D01*
X192856904Y-21030032D02*
X192856904Y-21332413D01*
X192856904Y-21332413D02*
X192917381Y-21453365D01*
X192917381Y-21453365D02*
X192977857Y-21513842D01*
X192977857Y-21513842D02*
X193098809Y-21574318D01*
X193098809Y-21574318D02*
X193461666Y-21574318D01*
X193461666Y-21574318D02*
X193582619Y-21513842D01*
X193582619Y-21513842D02*
X193643095Y-21453365D01*
X192433571Y-20304318D02*
X191586904Y-20304318D01*
X191586904Y-20304318D02*
X192131190Y-21574318D01*
X252066428Y-65453365D02*
X252126904Y-65513842D01*
X252126904Y-65513842D02*
X252308333Y-65574318D01*
X252308333Y-65574318D02*
X252429285Y-65574318D01*
X252429285Y-65574318D02*
X252610714Y-65513842D01*
X252610714Y-65513842D02*
X252731666Y-65392889D01*
X252731666Y-65392889D02*
X252792143Y-65271937D01*
X252792143Y-65271937D02*
X252852619Y-65030032D01*
X252852619Y-65030032D02*
X252852619Y-64848603D01*
X252852619Y-64848603D02*
X252792143Y-64606699D01*
X252792143Y-64606699D02*
X252731666Y-64485746D01*
X252731666Y-64485746D02*
X252610714Y-64364794D01*
X252610714Y-64364794D02*
X252429285Y-64304318D01*
X252429285Y-64304318D02*
X252308333Y-64304318D01*
X252308333Y-64304318D02*
X252126904Y-64364794D01*
X252126904Y-64364794D02*
X252066428Y-64425270D01*
X250917381Y-64304318D02*
X251522143Y-64304318D01*
X251522143Y-64304318D02*
X251582619Y-64909080D01*
X251582619Y-64909080D02*
X251522143Y-64848603D01*
X251522143Y-64848603D02*
X251401190Y-64788127D01*
X251401190Y-64788127D02*
X251098809Y-64788127D01*
X251098809Y-64788127D02*
X250977857Y-64848603D01*
X250977857Y-64848603D02*
X250917381Y-64909080D01*
X250917381Y-64909080D02*
X250856904Y-65030032D01*
X250856904Y-65030032D02*
X250856904Y-65332413D01*
X250856904Y-65332413D02*
X250917381Y-65453365D01*
X250917381Y-65453365D02*
X250977857Y-65513842D01*
X250977857Y-65513842D02*
X251098809Y-65574318D01*
X251098809Y-65574318D02*
X251401190Y-65574318D01*
X251401190Y-65574318D02*
X251522143Y-65513842D01*
X251522143Y-65513842D02*
X251582619Y-65453365D01*
X249707857Y-64304318D02*
X250312619Y-64304318D01*
X250312619Y-64304318D02*
X250373095Y-64909080D01*
X250373095Y-64909080D02*
X250312619Y-64848603D01*
X250312619Y-64848603D02*
X250191666Y-64788127D01*
X250191666Y-64788127D02*
X249889285Y-64788127D01*
X249889285Y-64788127D02*
X249768333Y-64848603D01*
X249768333Y-64848603D02*
X249707857Y-64909080D01*
X249707857Y-64909080D02*
X249647380Y-65030032D01*
X249647380Y-65030032D02*
X249647380Y-65332413D01*
X249647380Y-65332413D02*
X249707857Y-65453365D01*
X249707857Y-65453365D02*
X249768333Y-65513842D01*
X249768333Y-65513842D02*
X249889285Y-65574318D01*
X249889285Y-65574318D02*
X250191666Y-65574318D01*
X250191666Y-65574318D02*
X250312619Y-65513842D01*
X250312619Y-65513842D02*
X250373095Y-65453365D01*
X6461666Y-30453365D02*
X6522142Y-30513842D01*
X6522142Y-30513842D02*
X6703571Y-30574318D01*
X6703571Y-30574318D02*
X6824523Y-30574318D01*
X6824523Y-30574318D02*
X7005952Y-30513842D01*
X7005952Y-30513842D02*
X7126904Y-30392889D01*
X7126904Y-30392889D02*
X7187381Y-30271937D01*
X7187381Y-30271937D02*
X7247857Y-30030032D01*
X7247857Y-30030032D02*
X7247857Y-29848603D01*
X7247857Y-29848603D02*
X7187381Y-29606699D01*
X7187381Y-29606699D02*
X7126904Y-29485746D01*
X7126904Y-29485746D02*
X7005952Y-29364794D01*
X7005952Y-29364794D02*
X6824523Y-29304318D01*
X6824523Y-29304318D02*
X6703571Y-29304318D01*
X6703571Y-29304318D02*
X6522142Y-29364794D01*
X6522142Y-29364794D02*
X6461666Y-29425270D01*
X6038333Y-29304318D02*
X5252142Y-29304318D01*
X5252142Y-29304318D02*
X5675476Y-29788127D01*
X5675476Y-29788127D02*
X5494047Y-29788127D01*
X5494047Y-29788127D02*
X5373095Y-29848603D01*
X5373095Y-29848603D02*
X5312619Y-29909080D01*
X5312619Y-29909080D02*
X5252142Y-30030032D01*
X5252142Y-30030032D02*
X5252142Y-30332413D01*
X5252142Y-30332413D02*
X5312619Y-30453365D01*
X5312619Y-30453365D02*
X5373095Y-30513842D01*
X5373095Y-30513842D02*
X5494047Y-30574318D01*
X5494047Y-30574318D02*
X5856904Y-30574318D01*
X5856904Y-30574318D02*
X5977857Y-30513842D01*
X5977857Y-30513842D02*
X6038333Y-30453365D01*
X77461666Y-30453365D02*
X77522142Y-30513842D01*
X77522142Y-30513842D02*
X77703571Y-30574318D01*
X77703571Y-30574318D02*
X77824523Y-30574318D01*
X77824523Y-30574318D02*
X78005952Y-30513842D01*
X78005952Y-30513842D02*
X78126904Y-30392889D01*
X78126904Y-30392889D02*
X78187381Y-30271937D01*
X78187381Y-30271937D02*
X78247857Y-30030032D01*
X78247857Y-30030032D02*
X78247857Y-29848603D01*
X78247857Y-29848603D02*
X78187381Y-29606699D01*
X78187381Y-29606699D02*
X78126904Y-29485746D01*
X78126904Y-29485746D02*
X78005952Y-29364794D01*
X78005952Y-29364794D02*
X77824523Y-29304318D01*
X77824523Y-29304318D02*
X77703571Y-29304318D01*
X77703571Y-29304318D02*
X77522142Y-29364794D01*
X77522142Y-29364794D02*
X77461666Y-29425270D01*
X76252142Y-30574318D02*
X76977857Y-30574318D01*
X76615000Y-30574318D02*
X76615000Y-29304318D01*
X76615000Y-29304318D02*
X76735952Y-29485746D01*
X76735952Y-29485746D02*
X76856904Y-29606699D01*
X76856904Y-29606699D02*
X76977857Y-29667175D01*
X166566428Y-75453365D02*
X166626904Y-75513842D01*
X166626904Y-75513842D02*
X166808333Y-75574318D01*
X166808333Y-75574318D02*
X166929285Y-75574318D01*
X166929285Y-75574318D02*
X167110714Y-75513842D01*
X167110714Y-75513842D02*
X167231666Y-75392889D01*
X167231666Y-75392889D02*
X167292143Y-75271937D01*
X167292143Y-75271937D02*
X167352619Y-75030032D01*
X167352619Y-75030032D02*
X167352619Y-74848603D01*
X167352619Y-74848603D02*
X167292143Y-74606699D01*
X167292143Y-74606699D02*
X167231666Y-74485746D01*
X167231666Y-74485746D02*
X167110714Y-74364794D01*
X167110714Y-74364794D02*
X166929285Y-74304318D01*
X166929285Y-74304318D02*
X166808333Y-74304318D01*
X166808333Y-74304318D02*
X166626904Y-74364794D01*
X166626904Y-74364794D02*
X166566428Y-74425270D01*
X165477857Y-74727651D02*
X165477857Y-75574318D01*
X165780238Y-74243842D02*
X166082619Y-75150984D01*
X166082619Y-75150984D02*
X165296428Y-75150984D01*
X164570714Y-74304318D02*
X164449761Y-74304318D01*
X164449761Y-74304318D02*
X164328809Y-74364794D01*
X164328809Y-74364794D02*
X164268333Y-74425270D01*
X164268333Y-74425270D02*
X164207857Y-74546222D01*
X164207857Y-74546222D02*
X164147380Y-74788127D01*
X164147380Y-74788127D02*
X164147380Y-75090508D01*
X164147380Y-75090508D02*
X164207857Y-75332413D01*
X164207857Y-75332413D02*
X164268333Y-75453365D01*
X164268333Y-75453365D02*
X164328809Y-75513842D01*
X164328809Y-75513842D02*
X164449761Y-75574318D01*
X164449761Y-75574318D02*
X164570714Y-75574318D01*
X164570714Y-75574318D02*
X164691666Y-75513842D01*
X164691666Y-75513842D02*
X164752142Y-75453365D01*
X164752142Y-75453365D02*
X164812619Y-75332413D01*
X164812619Y-75332413D02*
X164873095Y-75090508D01*
X164873095Y-75090508D02*
X164873095Y-74788127D01*
X164873095Y-74788127D02*
X164812619Y-74546222D01*
X164812619Y-74546222D02*
X164752142Y-74425270D01*
X164752142Y-74425270D02*
X164691666Y-74364794D01*
X164691666Y-74364794D02*
X164570714Y-74304318D01*
X154566428Y-60953365D02*
X154626904Y-61013842D01*
X154626904Y-61013842D02*
X154808333Y-61074318D01*
X154808333Y-61074318D02*
X154929285Y-61074318D01*
X154929285Y-61074318D02*
X155110714Y-61013842D01*
X155110714Y-61013842D02*
X155231666Y-60892889D01*
X155231666Y-60892889D02*
X155292143Y-60771937D01*
X155292143Y-60771937D02*
X155352619Y-60530032D01*
X155352619Y-60530032D02*
X155352619Y-60348603D01*
X155352619Y-60348603D02*
X155292143Y-60106699D01*
X155292143Y-60106699D02*
X155231666Y-59985746D01*
X155231666Y-59985746D02*
X155110714Y-59864794D01*
X155110714Y-59864794D02*
X154929285Y-59804318D01*
X154929285Y-59804318D02*
X154808333Y-59804318D01*
X154808333Y-59804318D02*
X154626904Y-59864794D01*
X154626904Y-59864794D02*
X154566428Y-59925270D01*
X153477857Y-60227651D02*
X153477857Y-61074318D01*
X153780238Y-59743842D02*
X154082619Y-60650984D01*
X154082619Y-60650984D02*
X153296428Y-60650984D01*
X152933571Y-59804318D02*
X152147380Y-59804318D01*
X152147380Y-59804318D02*
X152570714Y-60288127D01*
X152570714Y-60288127D02*
X152389285Y-60288127D01*
X152389285Y-60288127D02*
X152268333Y-60348603D01*
X152268333Y-60348603D02*
X152207857Y-60409080D01*
X152207857Y-60409080D02*
X152147380Y-60530032D01*
X152147380Y-60530032D02*
X152147380Y-60832413D01*
X152147380Y-60832413D02*
X152207857Y-60953365D01*
X152207857Y-60953365D02*
X152268333Y-61013842D01*
X152268333Y-61013842D02*
X152389285Y-61074318D01*
X152389285Y-61074318D02*
X152752142Y-61074318D01*
X152752142Y-61074318D02*
X152873095Y-61013842D01*
X152873095Y-61013842D02*
X152933571Y-60953365D01*
X147816428Y-77953365D02*
X147876904Y-78013842D01*
X147876904Y-78013842D02*
X148058333Y-78074318D01*
X148058333Y-78074318D02*
X148179285Y-78074318D01*
X148179285Y-78074318D02*
X148360714Y-78013842D01*
X148360714Y-78013842D02*
X148481666Y-77892889D01*
X148481666Y-77892889D02*
X148542143Y-77771937D01*
X148542143Y-77771937D02*
X148602619Y-77530032D01*
X148602619Y-77530032D02*
X148602619Y-77348603D01*
X148602619Y-77348603D02*
X148542143Y-77106699D01*
X148542143Y-77106699D02*
X148481666Y-76985746D01*
X148481666Y-76985746D02*
X148360714Y-76864794D01*
X148360714Y-76864794D02*
X148179285Y-76804318D01*
X148179285Y-76804318D02*
X148058333Y-76804318D01*
X148058333Y-76804318D02*
X147876904Y-76864794D01*
X147876904Y-76864794D02*
X147816428Y-76925270D01*
X146727857Y-77227651D02*
X146727857Y-78074318D01*
X147030238Y-76743842D02*
X147332619Y-77650984D01*
X147332619Y-77650984D02*
X146546428Y-77650984D01*
X145518333Y-77227651D02*
X145518333Y-78074318D01*
X145820714Y-76743842D02*
X146123095Y-77650984D01*
X146123095Y-77650984D02*
X145336904Y-77650984D01*
X7461666Y-11453365D02*
X7522142Y-11513842D01*
X7522142Y-11513842D02*
X7703571Y-11574318D01*
X7703571Y-11574318D02*
X7824523Y-11574318D01*
X7824523Y-11574318D02*
X8005952Y-11513842D01*
X8005952Y-11513842D02*
X8126904Y-11392889D01*
X8126904Y-11392889D02*
X8187381Y-11271937D01*
X8187381Y-11271937D02*
X8247857Y-11030032D01*
X8247857Y-11030032D02*
X8247857Y-10848603D01*
X8247857Y-10848603D02*
X8187381Y-10606699D01*
X8187381Y-10606699D02*
X8126904Y-10485746D01*
X8126904Y-10485746D02*
X8005952Y-10364794D01*
X8005952Y-10364794D02*
X7824523Y-10304318D01*
X7824523Y-10304318D02*
X7703571Y-10304318D01*
X7703571Y-10304318D02*
X7522142Y-10364794D01*
X7522142Y-10364794D02*
X7461666Y-10425270D01*
X6977857Y-10425270D02*
X6917381Y-10364794D01*
X6917381Y-10364794D02*
X6796428Y-10304318D01*
X6796428Y-10304318D02*
X6494047Y-10304318D01*
X6494047Y-10304318D02*
X6373095Y-10364794D01*
X6373095Y-10364794D02*
X6312619Y-10425270D01*
X6312619Y-10425270D02*
X6252142Y-10546222D01*
X6252142Y-10546222D02*
X6252142Y-10667175D01*
X6252142Y-10667175D02*
X6312619Y-10848603D01*
X6312619Y-10848603D02*
X7038333Y-11574318D01*
X7038333Y-11574318D02*
X6252142Y-11574318D01*
X266566428Y-13453365D02*
X266626904Y-13513842D01*
X266626904Y-13513842D02*
X266808333Y-13574318D01*
X266808333Y-13574318D02*
X266929285Y-13574318D01*
X266929285Y-13574318D02*
X267110714Y-13513842D01*
X267110714Y-13513842D02*
X267231666Y-13392889D01*
X267231666Y-13392889D02*
X267292143Y-13271937D01*
X267292143Y-13271937D02*
X267352619Y-13030032D01*
X267352619Y-13030032D02*
X267352619Y-12848603D01*
X267352619Y-12848603D02*
X267292143Y-12606699D01*
X267292143Y-12606699D02*
X267231666Y-12485746D01*
X267231666Y-12485746D02*
X267110714Y-12364794D01*
X267110714Y-12364794D02*
X266929285Y-12304318D01*
X266929285Y-12304318D02*
X266808333Y-12304318D01*
X266808333Y-12304318D02*
X266626904Y-12364794D01*
X266626904Y-12364794D02*
X266566428Y-12425270D01*
X265417381Y-12304318D02*
X266022143Y-12304318D01*
X266022143Y-12304318D02*
X266082619Y-12909080D01*
X266082619Y-12909080D02*
X266022143Y-12848603D01*
X266022143Y-12848603D02*
X265901190Y-12788127D01*
X265901190Y-12788127D02*
X265598809Y-12788127D01*
X265598809Y-12788127D02*
X265477857Y-12848603D01*
X265477857Y-12848603D02*
X265417381Y-12909080D01*
X265417381Y-12909080D02*
X265356904Y-13030032D01*
X265356904Y-13030032D02*
X265356904Y-13332413D01*
X265356904Y-13332413D02*
X265417381Y-13453365D01*
X265417381Y-13453365D02*
X265477857Y-13513842D01*
X265477857Y-13513842D02*
X265598809Y-13574318D01*
X265598809Y-13574318D02*
X265901190Y-13574318D01*
X265901190Y-13574318D02*
X266022143Y-13513842D01*
X266022143Y-13513842D02*
X266082619Y-13453365D01*
X264933571Y-12304318D02*
X264086904Y-12304318D01*
X264086904Y-12304318D02*
X264631190Y-13574318D01*
X175316428Y-13453365D02*
X175376904Y-13513842D01*
X175376904Y-13513842D02*
X175558333Y-13574318D01*
X175558333Y-13574318D02*
X175679285Y-13574318D01*
X175679285Y-13574318D02*
X175860714Y-13513842D01*
X175860714Y-13513842D02*
X175981666Y-13392889D01*
X175981666Y-13392889D02*
X176042143Y-13271937D01*
X176042143Y-13271937D02*
X176102619Y-13030032D01*
X176102619Y-13030032D02*
X176102619Y-12848603D01*
X176102619Y-12848603D02*
X176042143Y-12606699D01*
X176042143Y-12606699D02*
X175981666Y-12485746D01*
X175981666Y-12485746D02*
X175860714Y-12364794D01*
X175860714Y-12364794D02*
X175679285Y-12304318D01*
X175679285Y-12304318D02*
X175558333Y-12304318D01*
X175558333Y-12304318D02*
X175376904Y-12364794D01*
X175376904Y-12364794D02*
X175316428Y-12425270D01*
X174893095Y-12304318D02*
X174106904Y-12304318D01*
X174106904Y-12304318D02*
X174530238Y-12788127D01*
X174530238Y-12788127D02*
X174348809Y-12788127D01*
X174348809Y-12788127D02*
X174227857Y-12848603D01*
X174227857Y-12848603D02*
X174167381Y-12909080D01*
X174167381Y-12909080D02*
X174106904Y-13030032D01*
X174106904Y-13030032D02*
X174106904Y-13332413D01*
X174106904Y-13332413D02*
X174167381Y-13453365D01*
X174167381Y-13453365D02*
X174227857Y-13513842D01*
X174227857Y-13513842D02*
X174348809Y-13574318D01*
X174348809Y-13574318D02*
X174711666Y-13574318D01*
X174711666Y-13574318D02*
X174832619Y-13513842D01*
X174832619Y-13513842D02*
X174893095Y-13453365D01*
X173683571Y-12304318D02*
X172897380Y-12304318D01*
X172897380Y-12304318D02*
X173320714Y-12788127D01*
X173320714Y-12788127D02*
X173139285Y-12788127D01*
X173139285Y-12788127D02*
X173018333Y-12848603D01*
X173018333Y-12848603D02*
X172957857Y-12909080D01*
X172957857Y-12909080D02*
X172897380Y-13030032D01*
X172897380Y-13030032D02*
X172897380Y-13332413D01*
X172897380Y-13332413D02*
X172957857Y-13453365D01*
X172957857Y-13453365D02*
X173018333Y-13513842D01*
X173018333Y-13513842D02*
X173139285Y-13574318D01*
X173139285Y-13574318D02*
X173502142Y-13574318D01*
X173502142Y-13574318D02*
X173623095Y-13513842D01*
X173623095Y-13513842D02*
X173683571Y-13453365D01*
X245566428Y-30453365D02*
X245626904Y-30513842D01*
X245626904Y-30513842D02*
X245808333Y-30574318D01*
X245808333Y-30574318D02*
X245929285Y-30574318D01*
X245929285Y-30574318D02*
X246110714Y-30513842D01*
X246110714Y-30513842D02*
X246231666Y-30392889D01*
X246231666Y-30392889D02*
X246292143Y-30271937D01*
X246292143Y-30271937D02*
X246352619Y-30030032D01*
X246352619Y-30030032D02*
X246352619Y-29848603D01*
X246352619Y-29848603D02*
X246292143Y-29606699D01*
X246292143Y-29606699D02*
X246231666Y-29485746D01*
X246231666Y-29485746D02*
X246110714Y-29364794D01*
X246110714Y-29364794D02*
X245929285Y-29304318D01*
X245929285Y-29304318D02*
X245808333Y-29304318D01*
X245808333Y-29304318D02*
X245626904Y-29364794D01*
X245626904Y-29364794D02*
X245566428Y-29425270D01*
X244417381Y-29304318D02*
X245022143Y-29304318D01*
X245022143Y-29304318D02*
X245082619Y-29909080D01*
X245082619Y-29909080D02*
X245022143Y-29848603D01*
X245022143Y-29848603D02*
X244901190Y-29788127D01*
X244901190Y-29788127D02*
X244598809Y-29788127D01*
X244598809Y-29788127D02*
X244477857Y-29848603D01*
X244477857Y-29848603D02*
X244417381Y-29909080D01*
X244417381Y-29909080D02*
X244356904Y-30030032D01*
X244356904Y-30030032D02*
X244356904Y-30332413D01*
X244356904Y-30332413D02*
X244417381Y-30453365D01*
X244417381Y-30453365D02*
X244477857Y-30513842D01*
X244477857Y-30513842D02*
X244598809Y-30574318D01*
X244598809Y-30574318D02*
X244901190Y-30574318D01*
X244901190Y-30574318D02*
X245022143Y-30513842D01*
X245022143Y-30513842D02*
X245082619Y-30453365D01*
X243933571Y-29304318D02*
X243147380Y-29304318D01*
X243147380Y-29304318D02*
X243570714Y-29788127D01*
X243570714Y-29788127D02*
X243389285Y-29788127D01*
X243389285Y-29788127D02*
X243268333Y-29848603D01*
X243268333Y-29848603D02*
X243207857Y-29909080D01*
X243207857Y-29909080D02*
X243147380Y-30030032D01*
X243147380Y-30030032D02*
X243147380Y-30332413D01*
X243147380Y-30332413D02*
X243207857Y-30453365D01*
X243207857Y-30453365D02*
X243268333Y-30513842D01*
X243268333Y-30513842D02*
X243389285Y-30574318D01*
X243389285Y-30574318D02*
X243752142Y-30574318D01*
X243752142Y-30574318D02*
X243873095Y-30513842D01*
X243873095Y-30513842D02*
X243933571Y-30453365D01*
X42211666Y-15053365D02*
X42272142Y-15113842D01*
X42272142Y-15113842D02*
X42453571Y-15174318D01*
X42453571Y-15174318D02*
X42574523Y-15174318D01*
X42574523Y-15174318D02*
X42755952Y-15113842D01*
X42755952Y-15113842D02*
X42876904Y-14992889D01*
X42876904Y-14992889D02*
X42937381Y-14871937D01*
X42937381Y-14871937D02*
X42997857Y-14630032D01*
X42997857Y-14630032D02*
X42997857Y-14448603D01*
X42997857Y-14448603D02*
X42937381Y-14206699D01*
X42937381Y-14206699D02*
X42876904Y-14085746D01*
X42876904Y-14085746D02*
X42755952Y-13964794D01*
X42755952Y-13964794D02*
X42574523Y-13904318D01*
X42574523Y-13904318D02*
X42453571Y-13904318D01*
X42453571Y-13904318D02*
X42272142Y-13964794D01*
X42272142Y-13964794D02*
X42211666Y-14025270D01*
X41606904Y-15174318D02*
X41365000Y-15174318D01*
X41365000Y-15174318D02*
X41244047Y-15113842D01*
X41244047Y-15113842D02*
X41183571Y-15053365D01*
X41183571Y-15053365D02*
X41062619Y-14871937D01*
X41062619Y-14871937D02*
X41002142Y-14630032D01*
X41002142Y-14630032D02*
X41002142Y-14146222D01*
X41002142Y-14146222D02*
X41062619Y-14025270D01*
X41062619Y-14025270D02*
X41123095Y-13964794D01*
X41123095Y-13964794D02*
X41244047Y-13904318D01*
X41244047Y-13904318D02*
X41485952Y-13904318D01*
X41485952Y-13904318D02*
X41606904Y-13964794D01*
X41606904Y-13964794D02*
X41667381Y-14025270D01*
X41667381Y-14025270D02*
X41727857Y-14146222D01*
X41727857Y-14146222D02*
X41727857Y-14448603D01*
X41727857Y-14448603D02*
X41667381Y-14569556D01*
X41667381Y-14569556D02*
X41606904Y-14630032D01*
X41606904Y-14630032D02*
X41485952Y-14690508D01*
X41485952Y-14690508D02*
X41244047Y-14690508D01*
X41244047Y-14690508D02*
X41123095Y-14630032D01*
X41123095Y-14630032D02*
X41062619Y-14569556D01*
X41062619Y-14569556D02*
X41002142Y-14448603D01*
X152316428Y-18453365D02*
X152376904Y-18513842D01*
X152376904Y-18513842D02*
X152558333Y-18574318D01*
X152558333Y-18574318D02*
X152679285Y-18574318D01*
X152679285Y-18574318D02*
X152860714Y-18513842D01*
X152860714Y-18513842D02*
X152981666Y-18392889D01*
X152981666Y-18392889D02*
X153042143Y-18271937D01*
X153042143Y-18271937D02*
X153102619Y-18030032D01*
X153102619Y-18030032D02*
X153102619Y-17848603D01*
X153102619Y-17848603D02*
X153042143Y-17606699D01*
X153042143Y-17606699D02*
X152981666Y-17485746D01*
X152981666Y-17485746D02*
X152860714Y-17364794D01*
X152860714Y-17364794D02*
X152679285Y-17304318D01*
X152679285Y-17304318D02*
X152558333Y-17304318D01*
X152558333Y-17304318D02*
X152376904Y-17364794D01*
X152376904Y-17364794D02*
X152316428Y-17425270D01*
X151832619Y-17425270D02*
X151772143Y-17364794D01*
X151772143Y-17364794D02*
X151651190Y-17304318D01*
X151651190Y-17304318D02*
X151348809Y-17304318D01*
X151348809Y-17304318D02*
X151227857Y-17364794D01*
X151227857Y-17364794D02*
X151167381Y-17425270D01*
X151167381Y-17425270D02*
X151106904Y-17546222D01*
X151106904Y-17546222D02*
X151106904Y-17667175D01*
X151106904Y-17667175D02*
X151167381Y-17848603D01*
X151167381Y-17848603D02*
X151893095Y-18574318D01*
X151893095Y-18574318D02*
X151106904Y-18574318D01*
X150623095Y-17425270D02*
X150562619Y-17364794D01*
X150562619Y-17364794D02*
X150441666Y-17304318D01*
X150441666Y-17304318D02*
X150139285Y-17304318D01*
X150139285Y-17304318D02*
X150018333Y-17364794D01*
X150018333Y-17364794D02*
X149957857Y-17425270D01*
X149957857Y-17425270D02*
X149897380Y-17546222D01*
X149897380Y-17546222D02*
X149897380Y-17667175D01*
X149897380Y-17667175D02*
X149957857Y-17848603D01*
X149957857Y-17848603D02*
X150683571Y-18574318D01*
X150683571Y-18574318D02*
X149897380Y-18574318D01*
X200816428Y-59953365D02*
X200876904Y-60013842D01*
X200876904Y-60013842D02*
X201058333Y-60074318D01*
X201058333Y-60074318D02*
X201179285Y-60074318D01*
X201179285Y-60074318D02*
X201360714Y-60013842D01*
X201360714Y-60013842D02*
X201481666Y-59892889D01*
X201481666Y-59892889D02*
X201542143Y-59771937D01*
X201542143Y-59771937D02*
X201602619Y-59530032D01*
X201602619Y-59530032D02*
X201602619Y-59348603D01*
X201602619Y-59348603D02*
X201542143Y-59106699D01*
X201542143Y-59106699D02*
X201481666Y-58985746D01*
X201481666Y-58985746D02*
X201360714Y-58864794D01*
X201360714Y-58864794D02*
X201179285Y-58804318D01*
X201179285Y-58804318D02*
X201058333Y-58804318D01*
X201058333Y-58804318D02*
X200876904Y-58864794D01*
X200876904Y-58864794D02*
X200816428Y-58925270D01*
X200393095Y-58804318D02*
X199606904Y-58804318D01*
X199606904Y-58804318D02*
X200030238Y-59288127D01*
X200030238Y-59288127D02*
X199848809Y-59288127D01*
X199848809Y-59288127D02*
X199727857Y-59348603D01*
X199727857Y-59348603D02*
X199667381Y-59409080D01*
X199667381Y-59409080D02*
X199606904Y-59530032D01*
X199606904Y-59530032D02*
X199606904Y-59832413D01*
X199606904Y-59832413D02*
X199667381Y-59953365D01*
X199667381Y-59953365D02*
X199727857Y-60013842D01*
X199727857Y-60013842D02*
X199848809Y-60074318D01*
X199848809Y-60074318D02*
X200211666Y-60074318D01*
X200211666Y-60074318D02*
X200332619Y-60013842D01*
X200332619Y-60013842D02*
X200393095Y-59953365D01*
X199002142Y-60074318D02*
X198760238Y-60074318D01*
X198760238Y-60074318D02*
X198639285Y-60013842D01*
X198639285Y-60013842D02*
X198578809Y-59953365D01*
X198578809Y-59953365D02*
X198457857Y-59771937D01*
X198457857Y-59771937D02*
X198397380Y-59530032D01*
X198397380Y-59530032D02*
X198397380Y-59046222D01*
X198397380Y-59046222D02*
X198457857Y-58925270D01*
X198457857Y-58925270D02*
X198518333Y-58864794D01*
X198518333Y-58864794D02*
X198639285Y-58804318D01*
X198639285Y-58804318D02*
X198881190Y-58804318D01*
X198881190Y-58804318D02*
X199002142Y-58864794D01*
X199002142Y-58864794D02*
X199062619Y-58925270D01*
X199062619Y-58925270D02*
X199123095Y-59046222D01*
X199123095Y-59046222D02*
X199123095Y-59348603D01*
X199123095Y-59348603D02*
X199062619Y-59469556D01*
X199062619Y-59469556D02*
X199002142Y-59530032D01*
X199002142Y-59530032D02*
X198881190Y-59590508D01*
X198881190Y-59590508D02*
X198639285Y-59590508D01*
X198639285Y-59590508D02*
X198518333Y-59530032D01*
X198518333Y-59530032D02*
X198457857Y-59469556D01*
X198457857Y-59469556D02*
X198397380Y-59348603D01*
X153566428Y-41453365D02*
X153626904Y-41513842D01*
X153626904Y-41513842D02*
X153808333Y-41574318D01*
X153808333Y-41574318D02*
X153929285Y-41574318D01*
X153929285Y-41574318D02*
X154110714Y-41513842D01*
X154110714Y-41513842D02*
X154231666Y-41392889D01*
X154231666Y-41392889D02*
X154292143Y-41271937D01*
X154292143Y-41271937D02*
X154352619Y-41030032D01*
X154352619Y-41030032D02*
X154352619Y-40848603D01*
X154352619Y-40848603D02*
X154292143Y-40606699D01*
X154292143Y-40606699D02*
X154231666Y-40485746D01*
X154231666Y-40485746D02*
X154110714Y-40364794D01*
X154110714Y-40364794D02*
X153929285Y-40304318D01*
X153929285Y-40304318D02*
X153808333Y-40304318D01*
X153808333Y-40304318D02*
X153626904Y-40364794D01*
X153626904Y-40364794D02*
X153566428Y-40425270D01*
X152477857Y-40727651D02*
X152477857Y-41574318D01*
X152780238Y-40243842D02*
X153082619Y-41150984D01*
X153082619Y-41150984D02*
X152296428Y-41150984D01*
X151873095Y-40425270D02*
X151812619Y-40364794D01*
X151812619Y-40364794D02*
X151691666Y-40304318D01*
X151691666Y-40304318D02*
X151389285Y-40304318D01*
X151389285Y-40304318D02*
X151268333Y-40364794D01*
X151268333Y-40364794D02*
X151207857Y-40425270D01*
X151207857Y-40425270D02*
X151147380Y-40546222D01*
X151147380Y-40546222D02*
X151147380Y-40667175D01*
X151147380Y-40667175D02*
X151207857Y-40848603D01*
X151207857Y-40848603D02*
X151933571Y-41574318D01*
X151933571Y-41574318D02*
X151147380Y-41574318D01*
X92566428Y-77953365D02*
X92626904Y-78013842D01*
X92626904Y-78013842D02*
X92808333Y-78074318D01*
X92808333Y-78074318D02*
X92929285Y-78074318D01*
X92929285Y-78074318D02*
X93110714Y-78013842D01*
X93110714Y-78013842D02*
X93231666Y-77892889D01*
X93231666Y-77892889D02*
X93292143Y-77771937D01*
X93292143Y-77771937D02*
X93352619Y-77530032D01*
X93352619Y-77530032D02*
X93352619Y-77348603D01*
X93352619Y-77348603D02*
X93292143Y-77106699D01*
X93292143Y-77106699D02*
X93231666Y-76985746D01*
X93231666Y-76985746D02*
X93110714Y-76864794D01*
X93110714Y-76864794D02*
X92929285Y-76804318D01*
X92929285Y-76804318D02*
X92808333Y-76804318D01*
X92808333Y-76804318D02*
X92626904Y-76864794D01*
X92626904Y-76864794D02*
X92566428Y-76925270D01*
X91356904Y-78074318D02*
X92082619Y-78074318D01*
X91719762Y-78074318D02*
X91719762Y-76804318D01*
X91719762Y-76804318D02*
X91840714Y-76985746D01*
X91840714Y-76985746D02*
X91961666Y-77106699D01*
X91961666Y-77106699D02*
X92082619Y-77167175D01*
X90207857Y-76804318D02*
X90812619Y-76804318D01*
X90812619Y-76804318D02*
X90873095Y-77409080D01*
X90873095Y-77409080D02*
X90812619Y-77348603D01*
X90812619Y-77348603D02*
X90691666Y-77288127D01*
X90691666Y-77288127D02*
X90389285Y-77288127D01*
X90389285Y-77288127D02*
X90268333Y-77348603D01*
X90268333Y-77348603D02*
X90207857Y-77409080D01*
X90207857Y-77409080D02*
X90147380Y-77530032D01*
X90147380Y-77530032D02*
X90147380Y-77832413D01*
X90147380Y-77832413D02*
X90207857Y-77953365D01*
X90207857Y-77953365D02*
X90268333Y-78013842D01*
X90268333Y-78013842D02*
X90389285Y-78074318D01*
X90389285Y-78074318D02*
X90691666Y-78074318D01*
X90691666Y-78074318D02*
X90812619Y-78013842D01*
X90812619Y-78013842D02*
X90873095Y-77953365D01*
X63316428Y-40953365D02*
X63376904Y-41013842D01*
X63376904Y-41013842D02*
X63558333Y-41074318D01*
X63558333Y-41074318D02*
X63679285Y-41074318D01*
X63679285Y-41074318D02*
X63860714Y-41013842D01*
X63860714Y-41013842D02*
X63981666Y-40892889D01*
X63981666Y-40892889D02*
X64042143Y-40771937D01*
X64042143Y-40771937D02*
X64102619Y-40530032D01*
X64102619Y-40530032D02*
X64102619Y-40348603D01*
X64102619Y-40348603D02*
X64042143Y-40106699D01*
X64042143Y-40106699D02*
X63981666Y-39985746D01*
X63981666Y-39985746D02*
X63860714Y-39864794D01*
X63860714Y-39864794D02*
X63679285Y-39804318D01*
X63679285Y-39804318D02*
X63558333Y-39804318D01*
X63558333Y-39804318D02*
X63376904Y-39864794D01*
X63376904Y-39864794D02*
X63316428Y-39925270D01*
X62106904Y-41074318D02*
X62832619Y-41074318D01*
X62469762Y-41074318D02*
X62469762Y-39804318D01*
X62469762Y-39804318D02*
X62590714Y-39985746D01*
X62590714Y-39985746D02*
X62711666Y-40106699D01*
X62711666Y-40106699D02*
X62832619Y-40167175D01*
X60897380Y-41074318D02*
X61623095Y-41074318D01*
X61260238Y-41074318D02*
X61260238Y-39804318D01*
X61260238Y-39804318D02*
X61381190Y-39985746D01*
X61381190Y-39985746D02*
X61502142Y-40106699D01*
X61502142Y-40106699D02*
X61623095Y-40167175D01*
%TO.C,C29*%
D11*
X260000000Y-11500000D02*
G75*
G02*
X242000000Y-11500000I-9000000J0D01*
G01*
X242000000Y-11500000D02*
G75*
G02*
X260000000Y-11500000I9000000J0D01*
G01*
%TO.C,C28*%
X119250000Y-58500000D02*
G75*
G02*
X101250000Y-58500000I-9000000J0D01*
G01*
X101250000Y-58500000D02*
G75*
G02*
X119250000Y-58500000I9000000J0D01*
G01*
%TO.C,C45*%
X296750000Y-10500000D02*
G75*
G02*
X278750000Y-10500000I-9000000J0D01*
G01*
X278750000Y-10500000D02*
G75*
G02*
X296750000Y-10500000I9000000J0D01*
G01*
%TO.C,C25*%
X121500000Y-500000D02*
G75*
G02*
X103500000Y-500000I-9000000J0D01*
G01*
X103500000Y-500000D02*
G75*
G02*
X121500000Y-500000I9000000J0D01*
G01*
%TO.C,C5*%
X36250000Y-1000000D02*
G75*
G02*
X18250000Y-1000000I-9000000J0D01*
G01*
X18250000Y-1000000D02*
G75*
G02*
X36250000Y-1000000I9000000J0D01*
G01*
%TO.C,C59*%
X276000000Y-50000000D02*
G75*
G02*
X258000000Y-50000000I-9000000J0D01*
G01*
X258000000Y-50000000D02*
G75*
G02*
X276000000Y-50000000I9000000J0D01*
G01*
%TO.C,C8*%
X26000000Y-66500000D02*
G75*
G02*
X8000000Y-66500000I-9000000J0D01*
G01*
X8000000Y-66500000D02*
G75*
G02*
X26000000Y-66500000I9000000J0D01*
G01*
%TO.C,C14*%
X73000000Y-18500000D02*
G75*
G02*
X55000000Y-18500000I-9000000J0D01*
G01*
X55000000Y-18500000D02*
G75*
G02*
X73000000Y-18500000I9000000J0D01*
G01*
%TO.C,C51*%
X228750000Y-49500000D02*
G75*
G02*
X210750000Y-49500000I-9000000J0D01*
G01*
X210750000Y-49500000D02*
G75*
G02*
X228750000Y-49500000I9000000J0D01*
G01*
%TO.C,C26*%
X108000000Y-26000000D02*
G75*
G02*
X90000000Y-26000000I-9000000J0D01*
G01*
X90000000Y-26000000D02*
G75*
G02*
X108000000Y-26000000I9000000J0D01*
G01*
%TO.C,C47*%
X219500000Y-33500000D02*
G75*
G02*
X201500000Y-33500000I-9000000J0D01*
G01*
X201500000Y-33500000D02*
G75*
G02*
X219500000Y-33500000I9000000J0D01*
G01*
%TO.C,C46*%
X211250000Y-500000D02*
G75*
G02*
X193250000Y-500000I-9000000J0D01*
G01*
X193250000Y-500000D02*
G75*
G02*
X211250000Y-500000I9000000J0D01*
G01*
%TO.C,C4*%
X19000000Y-49000000D02*
G75*
G02*
X1000000Y-49000000I-9000000J0D01*
G01*
X1000000Y-49000000D02*
G75*
G02*
X19000000Y-49000000I9000000J0D01*
G01*
%TO.C,C32*%
X194000000Y-63000000D02*
G75*
G02*
X176000000Y-63000000I-9000000J0D01*
G01*
X176000000Y-63000000D02*
G75*
G02*
X194000000Y-63000000I9000000J0D01*
G01*
%TO.C,C48*%
X211500000Y-78000000D02*
G75*
G02*
X193500000Y-78000000I-9000000J0D01*
G01*
X193500000Y-78000000D02*
G75*
G02*
X211500000Y-78000000I9000000J0D01*
G01*
%TO.C,C58*%
X276000000Y-31500000D02*
G75*
G02*
X258000000Y-31500000I-9000000J0D01*
G01*
X258000000Y-31500000D02*
G75*
G02*
X276000000Y-31500000I9000000J0D01*
G01*
%TO.C,C19*%
X96000000Y-12500000D02*
G75*
G02*
X78000000Y-12500000I-9000000J0D01*
G01*
X78000000Y-12500000D02*
G75*
G02*
X96000000Y-12500000I9000000J0D01*
G01*
%TO.C,C21*%
X86000000Y-76000000D02*
G75*
G02*
X68000000Y-76000000I-9000000J0D01*
G01*
X68000000Y-76000000D02*
G75*
G02*
X86000000Y-76000000I9000000J0D01*
G01*
%TO.C,C12*%
X77500000Y-59000000D02*
G75*
G02*
X59500000Y-59000000I-9000000J0D01*
G01*
X59500000Y-59000000D02*
G75*
G02*
X77500000Y-59000000I9000000J0D01*
G01*
%TO.C,C49*%
X242000000Y-16000000D02*
G75*
G02*
X224000000Y-16000000I-9000000J0D01*
G01*
X224000000Y-16000000D02*
G75*
G02*
X242000000Y-16000000I9000000J0D01*
G01*
%TO.C,C27*%
X106750000Y-44500000D02*
G75*
G02*
X88750000Y-44500000I-9000000J0D01*
G01*
X88750000Y-44500000D02*
G75*
G02*
X106750000Y-44500000I9000000J0D01*
G01*
%TO.C,C13*%
X67000000Y-77500000D02*
G75*
G02*
X49000000Y-77500000I-9000000J0D01*
G01*
X49000000Y-77500000D02*
G75*
G02*
X67000000Y-77500000I9000000J0D01*
G01*
%TO.C,C60*%
X277250000Y-77500000D02*
G75*
G02*
X259250000Y-77500000I-9000000J0D01*
G01*
X259250000Y-77500000D02*
G75*
G02*
X277250000Y-77500000I9000000J0D01*
G01*
%TO.C,C52*%
X230000000Y-77000000D02*
G75*
G02*
X212000000Y-77000000I-9000000J0D01*
G01*
X212000000Y-77000000D02*
G75*
G02*
X230000000Y-77000000I9000000J0D01*
G01*
%TO.C,C35*%
X127000000Y-18500000D02*
G75*
G02*
X109000000Y-18500000I-9000000J0D01*
G01*
X109000000Y-18500000D02*
G75*
G02*
X127000000Y-18500000I9000000J0D01*
G01*
%TO.C,C6*%
X36750000Y-20000000D02*
G75*
G02*
X18750000Y-20000000I-9000000J0D01*
G01*
X18750000Y-20000000D02*
G75*
G02*
X36750000Y-20000000I9000000J0D01*
G01*
%TO.C,C10*%
X41500000Y-56500000D02*
G75*
G02*
X23500000Y-56500000I-9000000J0D01*
G01*
X23500000Y-56500000D02*
G75*
G02*
X41500000Y-56500000I9000000J0D01*
G01*
%TO.C,C17*%
X173000000Y-1000000D02*
G75*
G02*
X155000000Y-1000000I-9000000J0D01*
G01*
X155000000Y-1000000D02*
G75*
G02*
X173000000Y-1000000I9000000J0D01*
G01*
%TO.C,C56*%
X249000000Y-77000000D02*
G75*
G02*
X231000000Y-77000000I-9000000J0D01*
G01*
X231000000Y-77000000D02*
G75*
G02*
X249000000Y-77000000I9000000J0D01*
G01*
%TO.C,C41*%
X223000000Y-15000000D02*
G75*
G02*
X205000000Y-15000000I-9000000J0D01*
G01*
X205000000Y-15000000D02*
G75*
G02*
X223000000Y-15000000I9000000J0D01*
G01*
%TO.C,C36*%
X124000000Y-37000000D02*
G75*
G02*
X106000000Y-37000000I-9000000J0D01*
G01*
X106000000Y-37000000D02*
G75*
G02*
X124000000Y-37000000I9000000J0D01*
G01*
%TO.C,C50*%
X141500000Y-77500000D02*
G75*
G02*
X123500000Y-77500000I-9000000J0D01*
G01*
X123500000Y-77500000D02*
G75*
G02*
X141500000Y-77500000I9000000J0D01*
G01*
%TO.C,C16*%
X46000000Y-77000000D02*
G75*
G02*
X28000000Y-77000000I-9000000J0D01*
G01*
X28000000Y-77000000D02*
G75*
G02*
X46000000Y-77000000I9000000J0D01*
G01*
%TO.C,C34*%
X145750000Y-18000000D02*
G75*
G02*
X127750000Y-18000000I-9000000J0D01*
G01*
X127750000Y-18000000D02*
G75*
G02*
X145750000Y-18000000I9000000J0D01*
G01*
%TO.C,C38*%
X203500000Y-43500000D02*
G75*
G02*
X185500000Y-43500000I-9000000J0D01*
G01*
X185500000Y-43500000D02*
G75*
G02*
X203500000Y-43500000I9000000J0D01*
G01*
%TO.C,C30*%
X189000000Y-32000000D02*
G75*
G02*
X171000000Y-32000000I-9000000J0D01*
G01*
X171000000Y-32000000D02*
G75*
G02*
X189000000Y-32000000I9000000J0D01*
G01*
%TO.C,C7*%
X35500000Y-39000000D02*
G75*
G02*
X17500000Y-39000000I-9000000J0D01*
G01*
X17500000Y-39000000D02*
G75*
G02*
X35500000Y-39000000I9000000J0D01*
G01*
%TO.C,C23*%
X136500000Y-50500000D02*
G75*
G02*
X118500000Y-50500000I-9000000J0D01*
G01*
X118500000Y-50500000D02*
G75*
G02*
X136500000Y-50500000I9000000J0D01*
G01*
%TO.C,C24*%
X123000000Y-76500000D02*
G75*
G02*
X105000000Y-76500000I-9000000J0D01*
G01*
X105000000Y-76500000D02*
G75*
G02*
X123000000Y-76500000I9000000J0D01*
G01*
%TO.C,C54*%
X256500000Y-48500000D02*
G75*
G02*
X238500000Y-48500000I-9000000J0D01*
G01*
X238500000Y-48500000D02*
G75*
G02*
X256500000Y-48500000I9000000J0D01*
G01*
%TO.C,C20*%
X95750000Y-60000000D02*
G75*
G02*
X77750000Y-60000000I-9000000J0D01*
G01*
X77750000Y-60000000D02*
G75*
G02*
X95750000Y-60000000I9000000J0D01*
G01*
%TO.C,C18*%
X81500000Y-500000D02*
G75*
G02*
X63500000Y-500000I-9000000J0D01*
G01*
X63500000Y-500000D02*
G75*
G02*
X81500000Y-500000I9000000J0D01*
G01*
%TO.C,C31*%
X182000000Y-49000000D02*
G75*
G02*
X164000000Y-49000000I-9000000J0D01*
G01*
X164000000Y-49000000D02*
G75*
G02*
X182000000Y-49000000I9000000J0D01*
G01*
%TO.C,C37*%
X206000000Y-21000000D02*
G75*
G02*
X188000000Y-21000000I-9000000J0D01*
G01*
X188000000Y-21000000D02*
G75*
G02*
X206000000Y-21000000I9000000J0D01*
G01*
%TO.C,C55*%
X264000000Y-65000000D02*
G75*
G02*
X246000000Y-65000000I-9000000J0D01*
G01*
X246000000Y-65000000D02*
G75*
G02*
X264000000Y-65000000I9000000J0D01*
G01*
%TO.C,C3*%
X19000000Y-30000000D02*
G75*
G02*
X1000000Y-30000000I-9000000J0D01*
G01*
X1000000Y-30000000D02*
G75*
G02*
X19000000Y-30000000I9000000J0D01*
G01*
%TO.C,C1*%
X90000000Y-30000000D02*
G75*
G02*
X72000000Y-30000000I-9000000J0D01*
G01*
X72000000Y-30000000D02*
G75*
G02*
X90000000Y-30000000I9000000J0D01*
G01*
%TO.C,C40*%
X178500000Y-75000000D02*
G75*
G02*
X160500000Y-75000000I-9000000J0D01*
G01*
X160500000Y-75000000D02*
G75*
G02*
X178500000Y-75000000I9000000J0D01*
G01*
%TO.C,C43*%
X166500000Y-60500000D02*
G75*
G02*
X148500000Y-60500000I-9000000J0D01*
G01*
X148500000Y-60500000D02*
G75*
G02*
X166500000Y-60500000I9000000J0D01*
G01*
%TO.C,C44*%
X159750000Y-77500000D02*
G75*
G02*
X141750000Y-77500000I-9000000J0D01*
G01*
X141750000Y-77500000D02*
G75*
G02*
X159750000Y-77500000I9000000J0D01*
G01*
%TO.C,C2*%
X20000000Y-11000000D02*
G75*
G02*
X2000000Y-11000000I-9000000J0D01*
G01*
X2000000Y-11000000D02*
G75*
G02*
X20000000Y-11000000I9000000J0D01*
G01*
%TO.C,C57*%
X278500000Y-13000000D02*
G75*
G02*
X260500000Y-13000000I-9000000J0D01*
G01*
X260500000Y-13000000D02*
G75*
G02*
X278500000Y-13000000I9000000J0D01*
G01*
%TO.C,C33*%
X187250000Y-13000000D02*
G75*
G02*
X169250000Y-13000000I-9000000J0D01*
G01*
X169250000Y-13000000D02*
G75*
G02*
X187250000Y-13000000I9000000J0D01*
G01*
%TO.C,C53*%
X257500000Y-30000000D02*
G75*
G02*
X239500000Y-30000000I-9000000J0D01*
G01*
X239500000Y-30000000D02*
G75*
G02*
X257500000Y-30000000I9000000J0D01*
G01*
%TO.C,C9*%
X54750000Y-14600000D02*
G75*
G02*
X36750000Y-14600000I-9000000J0D01*
G01*
X36750000Y-14600000D02*
G75*
G02*
X54750000Y-14600000I9000000J0D01*
G01*
%TO.C,C22*%
X164250000Y-18000000D02*
G75*
G02*
X146250000Y-18000000I-9000000J0D01*
G01*
X146250000Y-18000000D02*
G75*
G02*
X164250000Y-18000000I9000000J0D01*
G01*
%TO.C,C39*%
X212750000Y-59500000D02*
G75*
G02*
X194750000Y-59500000I-9000000J0D01*
G01*
X194750000Y-59500000D02*
G75*
G02*
X212750000Y-59500000I9000000J0D01*
G01*
%TO.C,C42*%
X165500000Y-41000000D02*
G75*
G02*
X147500000Y-41000000I-9000000J0D01*
G01*
X147500000Y-41000000D02*
G75*
G02*
X165500000Y-41000000I9000000J0D01*
G01*
%TO.C,C15*%
X104500000Y-77500000D02*
G75*
G02*
X86500000Y-77500000I-9000000J0D01*
G01*
X86500000Y-77500000D02*
G75*
G02*
X104500000Y-77500000I9000000J0D01*
G01*
%TO.C,C11*%
X75250000Y-40500000D02*
G75*
G02*
X57250000Y-40500000I-9000000J0D01*
G01*
X57250000Y-40500000D02*
G75*
G02*
X75250000Y-40500000I9000000J0D01*
G01*
%TD*%
M02*
