ISO-10303-21;
HEADER;
FILE_DESCRIPTION(('FreeCAD Model'),'2;1');
FILE_NAME('Open CASCADE Shape Model','2026-08-23T15:00:50',(''),(''),
  'Open CASCADE STEP processor 7.8','FreeCAD','Unknown');
FILE_SCHEMA(('AUTOMOTIVE_DESIGN { 1 0 10303 214 1 1 1 1 }'));
ENDSEC;
DATA;
#1 = APPLICATION_PROTOCOL_DEFINITION('international standard',
  'automotive_design',2000,#2);
#2 = APPLICATION_CONTEXT(
  'core data for automotive mechanical design processes');
#3 = SHAPE_DEFINITION_REPRESENTATION(#4,#10);
#4 = PRODUCT_DEFINITION_SHAPE('','',#5);
#5 = PRODUCT_DEFINITION('design','',#6,#9);
#6 = PRODUCT_DEFINITION_FORMATION('','',#7);
#7 = PRODUCT('HW-C2-DCLSPCR-PRINTED-B','HW-C2-DCLSPCR-PRINTED-B','',(#8)
  );
#8 = PRODUCT_CONTEXT('',#2,'mechanical');
#9 = PRODUCT_DEFINITION_CONTEXT('part definition',#2,'design');
#10 = ADVANCED_BREP_SHAPE_REPRESENTATION('',(#11,#15),#861);
#11 = AXIS2_PLACEMENT_3D('',#12,#13,#14);
#12 = CARTESIAN_POINT('',(0.,0.,0.));
#13 = DIRECTION('',(0.,0.,1.));
#14 = DIRECTION('',(1.,0.,-0.));
#15 = MANIFOLD_SOLID_BREP('',#16);
#16 = CLOSED_SHELL('',(#17,#154,#186,#210,#235,#259,#284,#308,#343,#363,
    #380,#411,#436,#461,#478,#503,#610,#642,#666,#691,#715,#740,#764,
    #799,#819,#836));
#17 = ADVANCED_FACE('',(#18,#113),#149,.T.);
#18 = FACE_BOUND('',#19,.F.);
#19 = EDGE_LOOP('',(#20,#31,#39,#48,#56,#63,#64,#73,#81,#90,#98,#107));
#20 = ORIENTED_EDGE('',*,*,#21,.F.);
#21 = EDGE_CURVE('',#22,#24,#26,.T.);
#22 = VERTEX_POINT('',#23);
#23 = CARTESIAN_POINT('',(5.,6.873863542434,0.));
#24 = VERTEX_POINT('',#25);
#25 = CARTESIAN_POINT('',(-5.,6.873863542434,0.));
#26 = CIRCLE('',#27,8.5);
#27 = AXIS2_PLACEMENT_3D('',#28,#29,#30);
#28 = CARTESIAN_POINT('',(0.,0.,0.));
#29 = DIRECTION('',(0.,0.,1.));
#30 = DIRECTION('',(1.,0.,0.));
#31 = ORIENTED_EDGE('',*,*,#32,.F.);
#32 = EDGE_CURVE('',#33,#22,#35,.T.);
#33 = VERTEX_POINT('',#34);
#34 = CARTESIAN_POINT('',(5.,6.873863542434,17.));
#35 = LINE('',#36,#37);
#36 = CARTESIAN_POINT('',(5.,6.873863542434,0.));
#37 = VECTOR('',#38,1.);
#38 = DIRECTION('',(-0.,-0.,-1.));
#39 = ORIENTED_EDGE('',*,*,#40,.T.);
#40 = EDGE_CURVE('',#33,#41,#43,.T.);
#41 = VERTEX_POINT('',#42);
#42 = CARTESIAN_POINT('',(8.5,0.,17.));
#43 = CIRCLE('',#44,8.5);
#44 = AXIS2_PLACEMENT_3D('',#45,#46,#47);
#45 = CARTESIAN_POINT('',(0.,0.,17.));
#46 = DIRECTION('',(0.,0.,-1.));
#47 = DIRECTION('',(1.,0.,0.));
#48 = ORIENTED_EDGE('',*,*,#49,.T.);
#49 = EDGE_CURVE('',#41,#50,#52,.T.);
#50 = VERTEX_POINT('',#51);
#51 = CARTESIAN_POINT('',(8.5,0.,60.));
#52 = LINE('',#53,#54);
#53 = CARTESIAN_POINT('',(8.5,0.,0.));
#54 = VECTOR('',#55,1.);
#55 = DIRECTION('',(0.,0.,1.));
#56 = ORIENTED_EDGE('',*,*,#57,.T.);
#57 = EDGE_CURVE('',#50,#50,#58,.T.);
#58 = CIRCLE('',#59,8.5);
#59 = AXIS2_PLACEMENT_3D('',#60,#61,#62);
#60 = CARTESIAN_POINT('',(0.,0.,60.));
#61 = DIRECTION('',(0.,0.,1.));
#62 = DIRECTION('',(1.,0.,0.));
#63 = ORIENTED_EDGE('',*,*,#49,.F.);
#64 = ORIENTED_EDGE('',*,*,#65,.T.);
#65 = EDGE_CURVE('',#41,#66,#68,.T.);
#66 = VERTEX_POINT('',#67);
#67 = CARTESIAN_POINT('',(5.,-6.873863542434,17.));
#68 = CIRCLE('',#69,8.5);
#69 = AXIS2_PLACEMENT_3D('',#70,#71,#72);
#70 = CARTESIAN_POINT('',(0.,0.,17.));
#71 = DIRECTION('',(0.,0.,-1.));
#72 = DIRECTION('',(1.,0.,0.));
#73 = ORIENTED_EDGE('',*,*,#74,.T.);
#74 = EDGE_CURVE('',#66,#75,#77,.T.);
#75 = VERTEX_POINT('',#76);
#76 = CARTESIAN_POINT('',(5.,-6.873863542434,0.));
#77 = LINE('',#78,#79);
#78 = CARTESIAN_POINT('',(5.,-6.873863542434,0.));
#79 = VECTOR('',#80,1.);
#80 = DIRECTION('',(-0.,-0.,-1.));
#81 = ORIENTED_EDGE('',*,*,#82,.F.);
#82 = EDGE_CURVE('',#83,#75,#85,.T.);
#83 = VERTEX_POINT('',#84);
#84 = CARTESIAN_POINT('',(-5.,-6.873863542434,0.));
#85 = CIRCLE('',#86,8.5);
#86 = AXIS2_PLACEMENT_3D('',#87,#88,#89);
#87 = CARTESIAN_POINT('',(0.,0.,0.));
#88 = DIRECTION('',(0.,0.,1.));
#89 = DIRECTION('',(1.,0.,0.));
#90 = ORIENTED_EDGE('',*,*,#91,.F.);
#91 = EDGE_CURVE('',#92,#83,#94,.T.);
#92 = VERTEX_POINT('',#93);
#93 = CARTESIAN_POINT('',(-5.,-6.873863542434,17.));
#94 = LINE('',#95,#96);
#95 = CARTESIAN_POINT('',(-5.,-6.873863542434,0.));
#96 = VECTOR('',#97,1.);
#97 = DIRECTION('',(-0.,-0.,-1.));
#98 = ORIENTED_EDGE('',*,*,#99,.T.);
#99 = EDGE_CURVE('',#92,#100,#102,.T.);
#100 = VERTEX_POINT('',#101);
#101 = CARTESIAN_POINT('',(-5.,6.873863542434,17.));
#102 = CIRCLE('',#103,8.5);
#103 = AXIS2_PLACEMENT_3D('',#104,#105,#106);
#104 = CARTESIAN_POINT('',(0.,0.,17.));
#105 = DIRECTION('',(0.,0.,-1.));
#106 = DIRECTION('',(1.,0.,0.));
#107 = ORIENTED_EDGE('',*,*,#108,.T.);
#108 = EDGE_CURVE('',#100,#24,#109,.T.);
#109 = LINE('',#110,#111);
#110 = CARTESIAN_POINT('',(-5.,6.873863542434,0.));
#111 = VECTOR('',#112,1.);
#112 = DIRECTION('',(-0.,-0.,-1.));
#113 = FACE_BOUND('',#114,.F.);
#114 = EDGE_LOOP('',(#115,#125,#134,#142));
#115 = ORIENTED_EDGE('',*,*,#116,.F.);
#116 = EDGE_CURVE('',#117,#119,#121,.T.);
#117 = VERTEX_POINT('',#118);
#118 = CARTESIAN_POINT('',(-3.,7.952986860293,19.));
#119 = VERTEX_POINT('',#120);
#120 = CARTESIAN_POINT('',(-3.,7.952986860293,7.));
#121 = LINE('',#122,#123);
#122 = CARTESIAN_POINT('',(-3.,7.952986860293,0.));
#123 = VECTOR('',#124,1.);
#124 = DIRECTION('',(-0.,-0.,-1.));
#125 = ORIENTED_EDGE('',*,*,#126,.T.);
#126 = EDGE_CURVE('',#117,#127,#129,.T.);
#127 = VERTEX_POINT('',#128);
#128 = CARTESIAN_POINT('',(3.,7.952986860293,19.));
#129 = CIRCLE('',#130,8.5);
#130 = AXIS2_PLACEMENT_3D('',#131,#132,#133);
#131 = CARTESIAN_POINT('',(0.,0.,19.));
#132 = DIRECTION('',(0.,0.,-1.));
#133 = DIRECTION('',(1.,0.,0.));
#134 = ORIENTED_EDGE('',*,*,#135,.T.);
#135 = EDGE_CURVE('',#127,#136,#138,.T.);
#136 = VERTEX_POINT('',#137);
#137 = CARTESIAN_POINT('',(3.,7.952986860293,7.));
#138 = LINE('',#139,#140);
#139 = CARTESIAN_POINT('',(3.,7.952986860293,0.));
#140 = VECTOR('',#141,1.);
#141 = DIRECTION('',(-0.,-0.,-1.));
#142 = ORIENTED_EDGE('',*,*,#143,.F.);
#143 = EDGE_CURVE('',#119,#136,#144,.T.);
#144 = CIRCLE('',#145,8.5);
#145 = AXIS2_PLACEMENT_3D('',#146,#147,#148);
#146 = CARTESIAN_POINT('',(0.,0.,7.));
#147 = DIRECTION('',(0.,0.,-1.));
#148 = DIRECTION('',(1.,0.,0.));
#149 = CYLINDRICAL_SURFACE('',#150,8.5);
#150 = AXIS2_PLACEMENT_3D('',#151,#152,#153);
#151 = CARTESIAN_POINT('',(0.,0.,0.));
#152 = DIRECTION('',(-0.,-0.,-1.));
#153 = DIRECTION('',(1.,0.,0.));
#154 = ADVANCED_FACE('',(#155),#181,.F.);
#155 = FACE_BOUND('',#156,.F.);
#156 = EDGE_LOOP('',(#157,#165,#166,#174));
#157 = ORIENTED_EDGE('',*,*,#158,.F.);
#158 = EDGE_CURVE('',#22,#159,#161,.T.);
#159 = VERTEX_POINT('',#160);
#160 = CARTESIAN_POINT('',(5.,4.153311931459,0.));
#161 = LINE('',#162,#163);
#162 = CARTESIAN_POINT('',(5.,-0.5,0.));
#163 = VECTOR('',#164,1.);
#164 = DIRECTION('',(0.,-1.,0.));
#165 = ORIENTED_EDGE('',*,*,#21,.T.);
#166 = ORIENTED_EDGE('',*,*,#167,.F.);
#167 = EDGE_CURVE('',#168,#24,#170,.T.);
#168 = VERTEX_POINT('',#169);
#169 = CARTESIAN_POINT('',(-5.,4.153311931459,0.));
#170 = LINE('',#171,#172);
#171 = CARTESIAN_POINT('',(-5.,-0.5,0.));
#172 = VECTOR('',#173,1.);
#173 = DIRECTION('',(0.,1.,0.));
#174 = ORIENTED_EDGE('',*,*,#175,.F.);
#175 = EDGE_CURVE('',#159,#168,#176,.T.);
#176 = CIRCLE('',#177,6.5);
#177 = AXIS2_PLACEMENT_3D('',#178,#179,#180);
#178 = CARTESIAN_POINT('',(0.,0.,0.));
#179 = DIRECTION('',(0.,0.,1.));
#180 = DIRECTION('',(1.,0.,0.));
#181 = PLANE('',#182);
#182 = AXIS2_PLACEMENT_3D('',#183,#184,#185);
#183 = CARTESIAN_POINT('',(-5.6E-16,14.,0.));
#184 = DIRECTION('',(0.,0.,1.));
#185 = DIRECTION('',(1.,0.,0.));
#186 = ADVANCED_FACE('',(#187),#205,.F.);
#187 = FACE_BOUND('',#188,.F.);
#188 = EDGE_LOOP('',(#189,#197,#203,#204));
#189 = ORIENTED_EDGE('',*,*,#190,.F.);
#190 = EDGE_CURVE('',#191,#100,#193,.T.);
#191 = VERTEX_POINT('',#192);
#192 = CARTESIAN_POINT('',(-5.,4.153311931459,17.));
#193 = LINE('',#194,#195);
#194 = CARTESIAN_POINT('',(-5.,-15.,17.));
#195 = VECTOR('',#196,1.);
#196 = DIRECTION('',(0.,1.,-2.2E-16));
#197 = ORIENTED_EDGE('',*,*,#198,.T.);
#198 = EDGE_CURVE('',#191,#168,#199,.T.);
#199 = LINE('',#200,#201);
#200 = CARTESIAN_POINT('',(-5.,4.153311931459,0.));
#201 = VECTOR('',#202,1.);
#202 = DIRECTION('',(-0.,-0.,-1.));
#203 = ORIENTED_EDGE('',*,*,#167,.T.);
#204 = ORIENTED_EDGE('',*,*,#108,.F.);
#205 = PLANE('',#206);
#206 = AXIS2_PLACEMENT_3D('',#207,#208,#209);
#207 = CARTESIAN_POINT('',(-5.,-15.,-6.517506));
#208 = DIRECTION('',(1.,0.,0.));
#209 = DIRECTION('',(-0.,2.2E-16,1.));
#210 = ADVANCED_FACE('',(#211),#230,.F.);
#211 = FACE_BOUND('',#212,.F.);
#212 = EDGE_LOOP('',(#213,#214,#222,#229));
#213 = ORIENTED_EDGE('',*,*,#99,.F.);
#214 = ORIENTED_EDGE('',*,*,#215,.T.);
#215 = EDGE_CURVE('',#92,#216,#218,.T.);
#216 = VERTEX_POINT('',#217);
#217 = CARTESIAN_POINT('',(-5.,-4.153311931459,17.));
#218 = LINE('',#219,#220);
#219 = CARTESIAN_POINT('',(-5.,-15.,17.));
#220 = VECTOR('',#221,1.);
#221 = DIRECTION('',(0.,1.,-2.2E-16));
#222 = ORIENTED_EDGE('',*,*,#223,.T.);
#223 = EDGE_CURVE('',#216,#191,#224,.T.);
#224 = CIRCLE('',#225,6.5);
#225 = AXIS2_PLACEMENT_3D('',#226,#227,#228);
#226 = CARTESIAN_POINT('',(0.,0.,17.));
#227 = DIRECTION('',(0.,0.,-1.));
#228 = DIRECTION('',(1.,0.,0.));
#229 = ORIENTED_EDGE('',*,*,#190,.T.);
#230 = PLANE('',#231);
#231 = AXIS2_PLACEMENT_3D('',#232,#233,#234);
#232 = CARTESIAN_POINT('',(-5.,-15.,17.));
#233 = DIRECTION('',(0.,2.2E-16,1.));
#234 = DIRECTION('',(-1.,0.,0.));
#235 = ADVANCED_FACE('',(#236),#254,.F.);
#236 = FACE_BOUND('',#237,.F.);
#237 = EDGE_LOOP('',(#238,#239,#240,#248));
#238 = ORIENTED_EDGE('',*,*,#215,.F.);
#239 = ORIENTED_EDGE('',*,*,#91,.T.);
#240 = ORIENTED_EDGE('',*,*,#241,.T.);
#241 = EDGE_CURVE('',#83,#242,#244,.T.);
#242 = VERTEX_POINT('',#243);
#243 = CARTESIAN_POINT('',(-5.,-4.153311931459,0.));
#244 = LINE('',#245,#246);
#245 = CARTESIAN_POINT('',(-5.,-0.5,0.));
#246 = VECTOR('',#247,1.);
#247 = DIRECTION('',(0.,1.,0.));
#248 = ORIENTED_EDGE('',*,*,#249,.F.);
#249 = EDGE_CURVE('',#216,#242,#250,.T.);
#250 = LINE('',#251,#252);
#251 = CARTESIAN_POINT('',(-5.,-4.153311931459,0.));
#252 = VECTOR('',#253,1.);
#253 = DIRECTION('',(-0.,-0.,-1.));
#254 = PLANE('',#255);
#255 = AXIS2_PLACEMENT_3D('',#256,#257,#258);
#256 = CARTESIAN_POINT('',(-5.,-15.,-6.517506));
#257 = DIRECTION('',(1.,0.,0.));
#258 = DIRECTION('',(-0.,2.2E-16,1.));
#259 = ADVANCED_FACE('',(#260),#279,.F.);
#260 = FACE_BOUND('',#261,.F.);
#261 = EDGE_LOOP('',(#262,#263,#271,#278));
#262 = ORIENTED_EDGE('',*,*,#82,.T.);
#263 = ORIENTED_EDGE('',*,*,#264,.F.);
#264 = EDGE_CURVE('',#265,#75,#267,.T.);
#265 = VERTEX_POINT('',#266);
#266 = CARTESIAN_POINT('',(5.,-4.153311931459,0.));
#267 = LINE('',#268,#269);
#268 = CARTESIAN_POINT('',(5.,-0.5,0.));
#269 = VECTOR('',#270,1.);
#270 = DIRECTION('',(0.,-1.,0.));
#271 = ORIENTED_EDGE('',*,*,#272,.F.);
#272 = EDGE_CURVE('',#242,#265,#273,.T.);
#273 = CIRCLE('',#274,6.5);
#274 = AXIS2_PLACEMENT_3D('',#275,#276,#277);
#275 = CARTESIAN_POINT('',(0.,0.,0.));
#276 = DIRECTION('',(0.,0.,1.));
#277 = DIRECTION('',(1.,0.,0.));
#278 = ORIENTED_EDGE('',*,*,#241,.F.);
#279 = PLANE('',#280);
#280 = AXIS2_PLACEMENT_3D('',#281,#282,#283);
#281 = CARTESIAN_POINT('',(-5.6E-16,14.,0.));
#282 = DIRECTION('',(0.,0.,1.));
#283 = DIRECTION('',(1.,0.,0.));
#284 = ADVANCED_FACE('',(#285),#303,.F.);
#285 = FACE_BOUND('',#286,.F.);
#286 = EDGE_LOOP('',(#287,#288,#296,#302));
#287 = ORIENTED_EDGE('',*,*,#74,.F.);
#288 = ORIENTED_EDGE('',*,*,#289,.T.);
#289 = EDGE_CURVE('',#66,#290,#292,.T.);
#290 = VERTEX_POINT('',#291);
#291 = CARTESIAN_POINT('',(5.,-4.153311931459,17.));
#292 = LINE('',#293,#294);
#293 = CARTESIAN_POINT('',(5.,-15.,17.));
#294 = VECTOR('',#295,1.);
#295 = DIRECTION('',(0.,1.,-2.2E-16));
#296 = ORIENTED_EDGE('',*,*,#297,.T.);
#297 = EDGE_CURVE('',#290,#265,#298,.T.);
#298 = LINE('',#299,#300);
#299 = CARTESIAN_POINT('',(5.,-4.153311931459,0.));
#300 = VECTOR('',#301,1.);
#301 = DIRECTION('',(-0.,-0.,-1.));
#302 = ORIENTED_EDGE('',*,*,#264,.T.);
#303 = PLANE('',#304);
#304 = AXIS2_PLACEMENT_3D('',#305,#306,#307);
#305 = CARTESIAN_POINT('',(5.,-15.,17.));
#306 = DIRECTION('',(-1.,0.,0.));
#307 = DIRECTION('',(-0.,-2.2E-16,-1.));
#308 = ADVANCED_FACE('',(#309),#338,.F.);
#309 = FACE_BOUND('',#310,.F.);
#310 = EDGE_LOOP('',(#311,#312,#313,#314,#322,#331));
#311 = ORIENTED_EDGE('',*,*,#289,.F.);
#312 = ORIENTED_EDGE('',*,*,#65,.F.);
#313 = ORIENTED_EDGE('',*,*,#40,.F.);
#314 = ORIENTED_EDGE('',*,*,#315,.F.);
#315 = EDGE_CURVE('',#316,#33,#318,.T.);
#316 = VERTEX_POINT('',#317);
#317 = CARTESIAN_POINT('',(5.,4.153311931459,17.));
#318 = LINE('',#319,#320);
#319 = CARTESIAN_POINT('',(5.,-15.,17.));
#320 = VECTOR('',#321,1.);
#321 = DIRECTION('',(0.,1.,-2.2E-16));
#322 = ORIENTED_EDGE('',*,*,#323,.T.);
#323 = EDGE_CURVE('',#316,#324,#326,.T.);
#324 = VERTEX_POINT('',#325);
#325 = CARTESIAN_POINT('',(6.5,0.,17.));
#326 = CIRCLE('',#327,6.5);
#327 = AXIS2_PLACEMENT_3D('',#328,#329,#330);
#328 = CARTESIAN_POINT('',(0.,0.,17.));
#329 = DIRECTION('',(0.,0.,-1.));
#330 = DIRECTION('',(1.,0.,0.));
#331 = ORIENTED_EDGE('',*,*,#332,.T.);
#332 = EDGE_CURVE('',#324,#290,#333,.T.);
#333 = CIRCLE('',#334,6.5);
#334 = AXIS2_PLACEMENT_3D('',#335,#336,#337);
#335 = CARTESIAN_POINT('',(0.,0.,17.));
#336 = DIRECTION('',(0.,0.,-1.));
#337 = DIRECTION('',(1.,0.,0.));
#338 = PLANE('',#339);
#339 = AXIS2_PLACEMENT_3D('',#340,#341,#342);
#340 = CARTESIAN_POINT('',(17.,-15.,17.));
#341 = DIRECTION('',(0.,2.2E-16,1.));
#342 = DIRECTION('',(-1.,0.,0.));
#343 = ADVANCED_FACE('',(#344,#347),#358,.T.);
#344 = FACE_BOUND('',#345,.T.);
#345 = EDGE_LOOP('',(#346));
#346 = ORIENTED_EDGE('',*,*,#57,.T.);
#347 = FACE_BOUND('',#348,.T.);
#348 = EDGE_LOOP('',(#349));
#349 = ORIENTED_EDGE('',*,*,#350,.T.);
#350 = EDGE_CURVE('',#351,#351,#353,.T.);
#351 = VERTEX_POINT('',#352);
#352 = CARTESIAN_POINT('',(6.5,0.,60.));
#353 = CIRCLE('',#354,6.5);
#354 = AXIS2_PLACEMENT_3D('',#355,#356,#357);
#355 = CARTESIAN_POINT('',(0.,0.,60.));
#356 = DIRECTION('',(0.,0.,-1.));
#357 = DIRECTION('',(1.,0.,0.));
#358 = PLANE('',#359);
#359 = AXIS2_PLACEMENT_3D('',#360,#361,#362);
#360 = CARTESIAN_POINT('',(-5.6E-16,14.,60.));
#361 = DIRECTION('',(0.,0.,1.));
#362 = DIRECTION('',(1.,0.,0.));
#363 = ADVANCED_FACE('',(#364),#375,.F.);
#364 = FACE_BOUND('',#365,.F.);
#365 = EDGE_LOOP('',(#366,#372,#373,#374));
#366 = ORIENTED_EDGE('',*,*,#367,.F.);
#367 = EDGE_CURVE('',#316,#159,#368,.T.);
#368 = LINE('',#369,#370);
#369 = CARTESIAN_POINT('',(5.,4.153311931459,0.));
#370 = VECTOR('',#371,1.);
#371 = DIRECTION('',(-0.,-0.,-1.));
#372 = ORIENTED_EDGE('',*,*,#315,.T.);
#373 = ORIENTED_EDGE('',*,*,#32,.T.);
#374 = ORIENTED_EDGE('',*,*,#158,.T.);
#375 = PLANE('',#376);
#376 = AXIS2_PLACEMENT_3D('',#377,#378,#379);
#377 = CARTESIAN_POINT('',(5.,-15.,17.));
#378 = DIRECTION('',(-1.,0.,0.));
#379 = DIRECTION('',(-0.,-2.2E-16,-1.));
#380 = ADVANCED_FACE('',(#381),#406,.T.);
#381 = FACE_BOUND('',#382,.T.);
#382 = EDGE_LOOP('',(#383,#384,#392,#400));
#383 = ORIENTED_EDGE('',*,*,#116,.F.);
#384 = ORIENTED_EDGE('',*,*,#385,.T.);
#385 = EDGE_CURVE('',#117,#386,#388,.T.);
#386 = VERTEX_POINT('',#387);
#387 = CARTESIAN_POINT('',(-3.,20.047013139707,19.));
#388 = LINE('',#389,#390);
#389 = CARTESIAN_POINT('',(-3.,4.22E-15,19.));
#390 = VECTOR('',#391,1.);
#391 = DIRECTION('',(0.,1.,-2.2E-16));
#392 = ORIENTED_EDGE('',*,*,#393,.T.);
#393 = EDGE_CURVE('',#386,#394,#396,.T.);
#394 = VERTEX_POINT('',#395);
#395 = CARTESIAN_POINT('',(-3.,20.047013139707,7.));
#396 = LINE('',#397,#398);
#397 = CARTESIAN_POINT('',(-3.,20.047013139707,0.));
#398 = VECTOR('',#399,1.);
#399 = DIRECTION('',(-0.,-0.,-1.));
#400 = ORIENTED_EDGE('',*,*,#401,.F.);
#401 = EDGE_CURVE('',#119,#394,#402,.T.);
#402 = LINE('',#403,#404);
#403 = CARTESIAN_POINT('',(-3.,1.55E-15,7.));
#404 = VECTOR('',#405,1.);
#405 = DIRECTION('',(0.,1.,-2.2E-16));
#406 = PLANE('',#407);
#407 = AXIS2_PLACEMENT_3D('',#408,#409,#410);
#408 = CARTESIAN_POINT('',(-3.,4.22E-15,19.));
#409 = DIRECTION('',(-1.,0.,0.));
#410 = DIRECTION('',(-0.,-2.2E-16,-1.));
#411 = ADVANCED_FACE('',(#412),#431,.T.);
#412 = FACE_BOUND('',#413,.T.);
#413 = EDGE_LOOP('',(#414,#415,#423,#430));
#414 = ORIENTED_EDGE('',*,*,#126,.T.);
#415 = ORIENTED_EDGE('',*,*,#416,.T.);
#416 = EDGE_CURVE('',#127,#417,#419,.T.);
#417 = VERTEX_POINT('',#418);
#418 = CARTESIAN_POINT('',(3.,20.047013139707,19.));
#419 = LINE('',#420,#421);
#420 = CARTESIAN_POINT('',(3.,4.22E-15,19.));
#421 = VECTOR('',#422,1.);
#422 = DIRECTION('',(0.,1.,-2.2E-16));
#423 = ORIENTED_EDGE('',*,*,#424,.T.);
#424 = EDGE_CURVE('',#417,#386,#425,.T.);
#425 = CIRCLE('',#426,8.5);
#426 = AXIS2_PLACEMENT_3D('',#427,#428,#429);
#427 = CARTESIAN_POINT('',(0.,28.,19.));
#428 = DIRECTION('',(0.,0.,-1.));
#429 = DIRECTION('',(1.,0.,0.));
#430 = ORIENTED_EDGE('',*,*,#385,.F.);
#431 = PLANE('',#432);
#432 = AXIS2_PLACEMENT_3D('',#433,#434,#435);
#433 = CARTESIAN_POINT('',(3.,4.22E-15,19.));
#434 = DIRECTION('',(0.,2.2E-16,1.));
#435 = DIRECTION('',(-1.,0.,0.));
#436 = ADVANCED_FACE('',(#437),#456,.T.);
#437 = FACE_BOUND('',#438,.T.);
#438 = EDGE_LOOP('',(#439,#440,#441,#450));
#439 = ORIENTED_EDGE('',*,*,#143,.F.);
#440 = ORIENTED_EDGE('',*,*,#401,.T.);
#441 = ORIENTED_EDGE('',*,*,#442,.F.);
#442 = EDGE_CURVE('',#443,#394,#445,.T.);
#443 = VERTEX_POINT('',#444);
#444 = CARTESIAN_POINT('',(3.,20.047013139707,7.));
#445 = CIRCLE('',#446,8.5);
#446 = AXIS2_PLACEMENT_3D('',#447,#448,#449);
#447 = CARTESIAN_POINT('',(0.,28.,7.));
#448 = DIRECTION('',(0.,0.,-1.));
#449 = DIRECTION('',(1.,0.,0.));
#450 = ORIENTED_EDGE('',*,*,#451,.F.);
#451 = EDGE_CURVE('',#136,#443,#452,.T.);
#452 = LINE('',#453,#454);
#453 = CARTESIAN_POINT('',(3.,1.55E-15,7.));
#454 = VECTOR('',#455,1.);
#455 = DIRECTION('',(0.,1.,-2.2E-16));
#456 = PLANE('',#457);
#457 = AXIS2_PLACEMENT_3D('',#458,#459,#460);
#458 = CARTESIAN_POINT('',(-3.,1.55E-15,7.));
#459 = DIRECTION('',(0.,-2.2E-16,-1.));
#460 = DIRECTION('',(1.,0.,0.));
#461 = ADVANCED_FACE('',(#462),#473,.T.);
#462 = FACE_BOUND('',#463,.T.);
#463 = EDGE_LOOP('',(#464,#465,#466,#472));
#464 = ORIENTED_EDGE('',*,*,#135,.T.);
#465 = ORIENTED_EDGE('',*,*,#451,.T.);
#466 = ORIENTED_EDGE('',*,*,#467,.F.);
#467 = EDGE_CURVE('',#417,#443,#468,.T.);
#468 = LINE('',#469,#470);
#469 = CARTESIAN_POINT('',(3.,20.047013139707,0.));
#470 = VECTOR('',#471,1.);
#471 = DIRECTION('',(-0.,-0.,-1.));
#472 = ORIENTED_EDGE('',*,*,#416,.F.);
#473 = PLANE('',#474);
#474 = AXIS2_PLACEMENT_3D('',#475,#476,#477);
#475 = CARTESIAN_POINT('',(3.,1.55E-15,7.));
#476 = DIRECTION('',(1.,0.,0.));
#477 = DIRECTION('',(0.,2.2E-16,1.));
#478 = ADVANCED_FACE('',(#479),#498,.F.);
#479 = FACE_BOUND('',#480,.T.);
#480 = EDGE_LOOP('',(#481,#482,#483,#484,#490,#491,#492,#493,#494,#495,
    #496,#497));
#481 = ORIENTED_EDGE('',*,*,#175,.F.);
#482 = ORIENTED_EDGE('',*,*,#367,.F.);
#483 = ORIENTED_EDGE('',*,*,#323,.T.);
#484 = ORIENTED_EDGE('',*,*,#485,.T.);
#485 = EDGE_CURVE('',#324,#351,#486,.T.);
#486 = LINE('',#487,#488);
#487 = CARTESIAN_POINT('',(6.5,0.,0.));
#488 = VECTOR('',#489,1.);
#489 = DIRECTION('',(0.,0.,1.));
#490 = ORIENTED_EDGE('',*,*,#350,.F.);
#491 = ORIENTED_EDGE('',*,*,#485,.F.);
#492 = ORIENTED_EDGE('',*,*,#332,.T.);
#493 = ORIENTED_EDGE('',*,*,#297,.T.);
#494 = ORIENTED_EDGE('',*,*,#272,.F.);
#495 = ORIENTED_EDGE('',*,*,#249,.F.);
#496 = ORIENTED_EDGE('',*,*,#223,.T.);
#497 = ORIENTED_EDGE('',*,*,#198,.T.);
#498 = CYLINDRICAL_SURFACE('',#499,6.5);
#499 = AXIS2_PLACEMENT_3D('',#500,#501,#502);
#500 = CARTESIAN_POINT('',(0.,0.,0.));
#501 = DIRECTION('',(-0.,-0.,-1.));
#502 = DIRECTION('',(1.,0.,0.));
#503 = ADVANCED_FACE('',(#504,#599),#605,.T.);
#504 = FACE_BOUND('',#505,.F.);
#505 = EDGE_LOOP('',(#506,#517,#525,#534,#542,#549,#550,#559,#567,#576,
    #584,#593));
#506 = ORIENTED_EDGE('',*,*,#507,.F.);
#507 = EDGE_CURVE('',#508,#510,#512,.T.);
#508 = VERTEX_POINT('',#509);
#509 = CARTESIAN_POINT('',(5.,34.873863542434,0.));
#510 = VERTEX_POINT('',#511);
#511 = CARTESIAN_POINT('',(-5.,34.873863542434,0.));
#512 = CIRCLE('',#513,8.5);
#513 = AXIS2_PLACEMENT_3D('',#514,#515,#516);
#514 = CARTESIAN_POINT('',(0.,28.,0.));
#515 = DIRECTION('',(0.,0.,1.));
#516 = DIRECTION('',(1.,0.,0.));
#517 = ORIENTED_EDGE('',*,*,#518,.F.);
#518 = EDGE_CURVE('',#519,#508,#521,.T.);
#519 = VERTEX_POINT('',#520);
#520 = CARTESIAN_POINT('',(5.,34.873863542434,17.));
#521 = LINE('',#522,#523);
#522 = CARTESIAN_POINT('',(5.,34.873863542434,0.));
#523 = VECTOR('',#524,1.);
#524 = DIRECTION('',(-0.,-0.,-1.));
#525 = ORIENTED_EDGE('',*,*,#526,.T.);
#526 = EDGE_CURVE('',#519,#527,#529,.T.);
#527 = VERTEX_POINT('',#528);
#528 = CARTESIAN_POINT('',(8.5,28.,17.));
#529 = CIRCLE('',#530,8.5);
#530 = AXIS2_PLACEMENT_3D('',#531,#532,#533);
#531 = CARTESIAN_POINT('',(0.,28.,17.));
#532 = DIRECTION('',(0.,0.,-1.));
#533 = DIRECTION('',(1.,0.,0.));
#534 = ORIENTED_EDGE('',*,*,#535,.T.);
#535 = EDGE_CURVE('',#527,#536,#538,.T.);
#536 = VERTEX_POINT('',#537);
#537 = CARTESIAN_POINT('',(8.5,28.,60.));
#538 = LINE('',#539,#540);
#539 = CARTESIAN_POINT('',(8.5,28.,0.));
#540 = VECTOR('',#541,1.);
#541 = DIRECTION('',(0.,0.,1.));
#542 = ORIENTED_EDGE('',*,*,#543,.T.);
#543 = EDGE_CURVE('',#536,#536,#544,.T.);
#544 = CIRCLE('',#545,8.5);
#545 = AXIS2_PLACEMENT_3D('',#546,#547,#548);
#546 = CARTESIAN_POINT('',(0.,28.,60.));
#547 = DIRECTION('',(0.,0.,1.));
#548 = DIRECTION('',(1.,0.,0.));
#549 = ORIENTED_EDGE('',*,*,#535,.F.);
#550 = ORIENTED_EDGE('',*,*,#551,.T.);
#551 = EDGE_CURVE('',#527,#552,#554,.T.);
#552 = VERTEX_POINT('',#553);
#553 = CARTESIAN_POINT('',(5.,21.126136457566,17.));
#554 = CIRCLE('',#555,8.5);
#555 = AXIS2_PLACEMENT_3D('',#556,#557,#558);
#556 = CARTESIAN_POINT('',(0.,28.,17.));
#557 = DIRECTION('',(0.,0.,-1.));
#558 = DIRECTION('',(1.,0.,0.));
#559 = ORIENTED_EDGE('',*,*,#560,.T.);
#560 = EDGE_CURVE('',#552,#561,#563,.T.);
#561 = VERTEX_POINT('',#562);
#562 = CARTESIAN_POINT('',(5.,21.126136457566,0.));
#563 = LINE('',#564,#565);
#564 = CARTESIAN_POINT('',(5.,21.126136457566,0.));
#565 = VECTOR('',#566,1.);
#566 = DIRECTION('',(-0.,-0.,-1.));
#567 = ORIENTED_EDGE('',*,*,#568,.F.);
#568 = EDGE_CURVE('',#569,#561,#571,.T.);
#569 = VERTEX_POINT('',#570);
#570 = CARTESIAN_POINT('',(-5.,21.126136457566,0.));
#571 = CIRCLE('',#572,8.5);
#572 = AXIS2_PLACEMENT_3D('',#573,#574,#575);
#573 = CARTESIAN_POINT('',(0.,28.,0.));
#574 = DIRECTION('',(0.,0.,1.));
#575 = DIRECTION('',(1.,0.,0.));
#576 = ORIENTED_EDGE('',*,*,#577,.F.);
#577 = EDGE_CURVE('',#578,#569,#580,.T.);
#578 = VERTEX_POINT('',#579);
#579 = CARTESIAN_POINT('',(-5.,21.126136457566,17.));
#580 = LINE('',#581,#582);
#581 = CARTESIAN_POINT('',(-5.,21.126136457566,0.));
#582 = VECTOR('',#583,1.);
#583 = DIRECTION('',(-0.,-0.,-1.));
#584 = ORIENTED_EDGE('',*,*,#585,.T.);
#585 = EDGE_CURVE('',#578,#586,#588,.T.);
#586 = VERTEX_POINT('',#587);
#587 = CARTESIAN_POINT('',(-5.,34.873863542434,17.));
#588 = CIRCLE('',#589,8.5);
#589 = AXIS2_PLACEMENT_3D('',#590,#591,#592);
#590 = CARTESIAN_POINT('',(0.,28.,17.));
#591 = DIRECTION('',(0.,0.,-1.));
#592 = DIRECTION('',(1.,0.,0.));
#593 = ORIENTED_EDGE('',*,*,#594,.T.);
#594 = EDGE_CURVE('',#586,#510,#595,.T.);
#595 = LINE('',#596,#597);
#596 = CARTESIAN_POINT('',(-5.,34.873863542434,0.));
#597 = VECTOR('',#598,1.);
#598 = DIRECTION('',(-0.,-0.,-1.));
#599 = FACE_BOUND('',#600,.F.);
#600 = EDGE_LOOP('',(#601,#602,#603,#604));
#601 = ORIENTED_EDGE('',*,*,#424,.T.);
#602 = ORIENTED_EDGE('',*,*,#393,.T.);
#603 = ORIENTED_EDGE('',*,*,#442,.F.);
#604 = ORIENTED_EDGE('',*,*,#467,.F.);
#605 = CYLINDRICAL_SURFACE('',#606,8.5);
#606 = AXIS2_PLACEMENT_3D('',#607,#608,#609);
#607 = CARTESIAN_POINT('',(0.,28.,0.));
#608 = DIRECTION('',(-0.,-0.,-1.));
#609 = DIRECTION('',(1.,0.,0.));
#610 = ADVANCED_FACE('',(#611),#637,.F.);
#611 = FACE_BOUND('',#612,.F.);
#612 = EDGE_LOOP('',(#613,#621,#622,#630));
#613 = ORIENTED_EDGE('',*,*,#614,.F.);
#614 = EDGE_CURVE('',#508,#615,#617,.T.);
#615 = VERTEX_POINT('',#616);
#616 = CARTESIAN_POINT('',(5.,32.153311931459,0.));
#617 = LINE('',#618,#619);
#618 = CARTESIAN_POINT('',(5.,-0.5,0.));
#619 = VECTOR('',#620,1.);
#620 = DIRECTION('',(0.,-1.,0.));
#621 = ORIENTED_EDGE('',*,*,#507,.T.);
#622 = ORIENTED_EDGE('',*,*,#623,.F.);
#623 = EDGE_CURVE('',#624,#510,#626,.T.);
#624 = VERTEX_POINT('',#625);
#625 = CARTESIAN_POINT('',(-5.,32.153311931459,0.));
#626 = LINE('',#627,#628);
#627 = CARTESIAN_POINT('',(-5.,-0.5,0.));
#628 = VECTOR('',#629,1.);
#629 = DIRECTION('',(0.,1.,0.));
#630 = ORIENTED_EDGE('',*,*,#631,.F.);
#631 = EDGE_CURVE('',#615,#624,#632,.T.);
#632 = CIRCLE('',#633,6.5);
#633 = AXIS2_PLACEMENT_3D('',#634,#635,#636);
#634 = CARTESIAN_POINT('',(0.,28.,0.));
#635 = DIRECTION('',(0.,0.,1.));
#636 = DIRECTION('',(1.,0.,0.));
#637 = PLANE('',#638);
#638 = AXIS2_PLACEMENT_3D('',#639,#640,#641);
#639 = CARTESIAN_POINT('',(-5.6E-16,14.,0.));
#640 = DIRECTION('',(0.,0.,1.));
#641 = DIRECTION('',(1.,0.,0.));
#642 = ADVANCED_FACE('',(#643),#661,.F.);
#643 = FACE_BOUND('',#644,.F.);
#644 = EDGE_LOOP('',(#645,#646,#654,#660));
#645 = ORIENTED_EDGE('',*,*,#594,.F.);
#646 = ORIENTED_EDGE('',*,*,#647,.F.);
#647 = EDGE_CURVE('',#648,#586,#650,.T.);
#648 = VERTEX_POINT('',#649);
#649 = CARTESIAN_POINT('',(-5.,32.153311931459,17.));
#650 = LINE('',#651,#652);
#651 = CARTESIAN_POINT('',(-5.,-15.,17.));
#652 = VECTOR('',#653,1.);
#653 = DIRECTION('',(0.,1.,-2.2E-16));
#654 = ORIENTED_EDGE('',*,*,#655,.T.);
#655 = EDGE_CURVE('',#648,#624,#656,.T.);
#656 = LINE('',#657,#658);
#657 = CARTESIAN_POINT('',(-5.,32.153311931459,0.));
#658 = VECTOR('',#659,1.);
#659 = DIRECTION('',(-0.,-0.,-1.));
#660 = ORIENTED_EDGE('',*,*,#623,.T.);
#661 = PLANE('',#662);
#662 = AXIS2_PLACEMENT_3D('',#663,#664,#665);
#663 = CARTESIAN_POINT('',(-5.,-15.,-6.517506));
#664 = DIRECTION('',(1.,0.,0.));
#665 = DIRECTION('',(-0.,2.2E-16,1.));
#666 = ADVANCED_FACE('',(#667),#686,.F.);
#667 = FACE_BOUND('',#668,.F.);
#668 = EDGE_LOOP('',(#669,#670,#678,#685));
#669 = ORIENTED_EDGE('',*,*,#585,.F.);
#670 = ORIENTED_EDGE('',*,*,#671,.T.);
#671 = EDGE_CURVE('',#578,#672,#674,.T.);
#672 = VERTEX_POINT('',#673);
#673 = CARTESIAN_POINT('',(-5.,23.846688068541,17.));
#674 = LINE('',#675,#676);
#675 = CARTESIAN_POINT('',(-5.,-15.,17.));
#676 = VECTOR('',#677,1.);
#677 = DIRECTION('',(0.,1.,-2.2E-16));
#678 = ORIENTED_EDGE('',*,*,#679,.T.);
#679 = EDGE_CURVE('',#672,#648,#680,.T.);
#680 = CIRCLE('',#681,6.5);
#681 = AXIS2_PLACEMENT_3D('',#682,#683,#684);
#682 = CARTESIAN_POINT('',(0.,28.,17.));
#683 = DIRECTION('',(0.,0.,-1.));
#684 = DIRECTION('',(1.,0.,0.));
#685 = ORIENTED_EDGE('',*,*,#647,.T.);
#686 = PLANE('',#687);
#687 = AXIS2_PLACEMENT_3D('',#688,#689,#690);
#688 = CARTESIAN_POINT('',(-5.,-15.,17.));
#689 = DIRECTION('',(0.,2.2E-16,1.));
#690 = DIRECTION('',(-1.,0.,0.));
#691 = ADVANCED_FACE('',(#692),#710,.F.);
#692 = FACE_BOUND('',#693,.F.);
#693 = EDGE_LOOP('',(#694,#702,#703,#704));
#694 = ORIENTED_EDGE('',*,*,#695,.F.);
#695 = EDGE_CURVE('',#672,#696,#698,.T.);
#696 = VERTEX_POINT('',#697);
#697 = CARTESIAN_POINT('',(-5.,23.846688068541,0.));
#698 = LINE('',#699,#700);
#699 = CARTESIAN_POINT('',(-5.,23.846688068541,0.));
#700 = VECTOR('',#701,1.);
#701 = DIRECTION('',(-0.,-0.,-1.));
#702 = ORIENTED_EDGE('',*,*,#671,.F.);
#703 = ORIENTED_EDGE('',*,*,#577,.T.);
#704 = ORIENTED_EDGE('',*,*,#705,.T.);
#705 = EDGE_CURVE('',#569,#696,#706,.T.);
#706 = LINE('',#707,#708);
#707 = CARTESIAN_POINT('',(-5.,-0.5,0.));
#708 = VECTOR('',#709,1.);
#709 = DIRECTION('',(0.,1.,0.));
#710 = PLANE('',#711);
#711 = AXIS2_PLACEMENT_3D('',#712,#713,#714);
#712 = CARTESIAN_POINT('',(-5.,-15.,-6.517506));
#713 = DIRECTION('',(1.,0.,0.));
#714 = DIRECTION('',(-0.,2.2E-16,1.));
#715 = ADVANCED_FACE('',(#716),#735,.F.);
#716 = FACE_BOUND('',#717,.F.);
#717 = EDGE_LOOP('',(#718,#719,#727,#734));
#718 = ORIENTED_EDGE('',*,*,#568,.T.);
#719 = ORIENTED_EDGE('',*,*,#720,.F.);
#720 = EDGE_CURVE('',#721,#561,#723,.T.);
#721 = VERTEX_POINT('',#722);
#722 = CARTESIAN_POINT('',(5.,23.846688068541,0.));
#723 = LINE('',#724,#725);
#724 = CARTESIAN_POINT('',(5.,-0.5,0.));
#725 = VECTOR('',#726,1.);
#726 = DIRECTION('',(0.,-1.,0.));
#727 = ORIENTED_EDGE('',*,*,#728,.F.);
#728 = EDGE_CURVE('',#696,#721,#729,.T.);
#729 = CIRCLE('',#730,6.5);
#730 = AXIS2_PLACEMENT_3D('',#731,#732,#733);
#731 = CARTESIAN_POINT('',(0.,28.,0.));
#732 = DIRECTION('',(0.,0.,1.));
#733 = DIRECTION('',(1.,0.,0.));
#734 = ORIENTED_EDGE('',*,*,#705,.F.);
#735 = PLANE('',#736);
#736 = AXIS2_PLACEMENT_3D('',#737,#738,#739);
#737 = CARTESIAN_POINT('',(-5.6E-16,14.,0.));
#738 = DIRECTION('',(0.,0.,1.));
#739 = DIRECTION('',(1.,0.,0.));
#740 = ADVANCED_FACE('',(#741),#759,.F.);
#741 = FACE_BOUND('',#742,.F.);
#742 = EDGE_LOOP('',(#743,#744,#752,#758));
#743 = ORIENTED_EDGE('',*,*,#560,.F.);
#744 = ORIENTED_EDGE('',*,*,#745,.T.);
#745 = EDGE_CURVE('',#552,#746,#748,.T.);
#746 = VERTEX_POINT('',#747);
#747 = CARTESIAN_POINT('',(5.,23.846688068541,17.));
#748 = LINE('',#749,#750);
#749 = CARTESIAN_POINT('',(5.,-15.,17.));
#750 = VECTOR('',#751,1.);
#751 = DIRECTION('',(0.,1.,-2.2E-16));
#752 = ORIENTED_EDGE('',*,*,#753,.T.);
#753 = EDGE_CURVE('',#746,#721,#754,.T.);
#754 = LINE('',#755,#756);
#755 = CARTESIAN_POINT('',(5.,23.846688068541,0.));
#756 = VECTOR('',#757,1.);
#757 = DIRECTION('',(-0.,-0.,-1.));
#758 = ORIENTED_EDGE('',*,*,#720,.T.);
#759 = PLANE('',#760);
#760 = AXIS2_PLACEMENT_3D('',#761,#762,#763);
#761 = CARTESIAN_POINT('',(5.,-15.,17.));
#762 = DIRECTION('',(-1.,0.,0.));
#763 = DIRECTION('',(-0.,-2.2E-16,-1.));
#764 = ADVANCED_FACE('',(#765),#794,.F.);
#765 = FACE_BOUND('',#766,.F.);
#766 = EDGE_LOOP('',(#767,#768,#776,#785,#792,#793));
#767 = ORIENTED_EDGE('',*,*,#526,.F.);
#768 = ORIENTED_EDGE('',*,*,#769,.F.);
#769 = EDGE_CURVE('',#770,#519,#772,.T.);
#770 = VERTEX_POINT('',#771);
#771 = CARTESIAN_POINT('',(5.,32.153311931459,17.));
#772 = LINE('',#773,#774);
#773 = CARTESIAN_POINT('',(5.,-15.,17.));
#774 = VECTOR('',#775,1.);
#775 = DIRECTION('',(0.,1.,-2.2E-16));
#776 = ORIENTED_EDGE('',*,*,#777,.T.);
#777 = EDGE_CURVE('',#770,#778,#780,.T.);
#778 = VERTEX_POINT('',#779);
#779 = CARTESIAN_POINT('',(6.5,28.,17.));
#780 = CIRCLE('',#781,6.5);
#781 = AXIS2_PLACEMENT_3D('',#782,#783,#784);
#782 = CARTESIAN_POINT('',(0.,28.,17.));
#783 = DIRECTION('',(0.,0.,-1.));
#784 = DIRECTION('',(1.,0.,0.));
#785 = ORIENTED_EDGE('',*,*,#786,.T.);
#786 = EDGE_CURVE('',#778,#746,#787,.T.);
#787 = CIRCLE('',#788,6.5);
#788 = AXIS2_PLACEMENT_3D('',#789,#790,#791);
#789 = CARTESIAN_POINT('',(0.,28.,17.));
#790 = DIRECTION('',(0.,0.,-1.));
#791 = DIRECTION('',(1.,0.,0.));
#792 = ORIENTED_EDGE('',*,*,#745,.F.);
#793 = ORIENTED_EDGE('',*,*,#551,.F.);
#794 = PLANE('',#795);
#795 = AXIS2_PLACEMENT_3D('',#796,#797,#798);
#796 = CARTESIAN_POINT('',(17.,-15.,17.));
#797 = DIRECTION('',(0.,2.2E-16,1.));
#798 = DIRECTION('',(-1.,0.,0.));
#799 = ADVANCED_FACE('',(#800,#803),#814,.T.);
#800 = FACE_BOUND('',#801,.T.);
#801 = EDGE_LOOP('',(#802));
#802 = ORIENTED_EDGE('',*,*,#543,.T.);
#803 = FACE_BOUND('',#804,.T.);
#804 = EDGE_LOOP('',(#805));
#805 = ORIENTED_EDGE('',*,*,#806,.T.);
#806 = EDGE_CURVE('',#807,#807,#809,.T.);
#807 = VERTEX_POINT('',#808);
#808 = CARTESIAN_POINT('',(6.5,28.,60.));
#809 = CIRCLE('',#810,6.5);
#810 = AXIS2_PLACEMENT_3D('',#811,#812,#813);
#811 = CARTESIAN_POINT('',(0.,28.,60.));
#812 = DIRECTION('',(0.,0.,-1.));
#813 = DIRECTION('',(1.,0.,0.));
#814 = PLANE('',#815);
#815 = AXIS2_PLACEMENT_3D('',#816,#817,#818);
#816 = CARTESIAN_POINT('',(-5.6E-16,14.,60.));
#817 = DIRECTION('',(0.,0.,1.));
#818 = DIRECTION('',(1.,0.,0.));
#819 = ADVANCED_FACE('',(#820),#831,.F.);
#820 = FACE_BOUND('',#821,.F.);
#821 = EDGE_LOOP('',(#822,#823,#824,#825));
#822 = ORIENTED_EDGE('',*,*,#769,.T.);
#823 = ORIENTED_EDGE('',*,*,#518,.T.);
#824 = ORIENTED_EDGE('',*,*,#614,.T.);
#825 = ORIENTED_EDGE('',*,*,#826,.F.);
#826 = EDGE_CURVE('',#770,#615,#827,.T.);
#827 = LINE('',#828,#829);
#828 = CARTESIAN_POINT('',(5.,32.153311931459,0.));
#829 = VECTOR('',#830,1.);
#830 = DIRECTION('',(-0.,-0.,-1.));
#831 = PLANE('',#832);
#832 = AXIS2_PLACEMENT_3D('',#833,#834,#835);
#833 = CARTESIAN_POINT('',(5.,-15.,17.));
#834 = DIRECTION('',(-1.,0.,0.));
#835 = DIRECTION('',(-0.,-2.2E-16,-1.));
#836 = ADVANCED_FACE('',(#837),#856,.F.);
#837 = FACE_BOUND('',#838,.T.);
#838 = EDGE_LOOP('',(#839,#840,#841,#842,#848,#849,#850,#851,#852,#853,
    #854,#855));
#839 = ORIENTED_EDGE('',*,*,#631,.F.);
#840 = ORIENTED_EDGE('',*,*,#826,.F.);
#841 = ORIENTED_EDGE('',*,*,#777,.T.);
#842 = ORIENTED_EDGE('',*,*,#843,.T.);
#843 = EDGE_CURVE('',#778,#807,#844,.T.);
#844 = LINE('',#845,#846);
#845 = CARTESIAN_POINT('',(6.5,28.,0.));
#846 = VECTOR('',#847,1.);
#847 = DIRECTION('',(0.,0.,1.));
#848 = ORIENTED_EDGE('',*,*,#806,.F.);
#849 = ORIENTED_EDGE('',*,*,#843,.F.);
#850 = ORIENTED_EDGE('',*,*,#786,.T.);
#851 = ORIENTED_EDGE('',*,*,#753,.T.);
#852 = ORIENTED_EDGE('',*,*,#728,.F.);
#853 = ORIENTED_EDGE('',*,*,#695,.F.);
#854 = ORIENTED_EDGE('',*,*,#679,.T.);
#855 = ORIENTED_EDGE('',*,*,#655,.T.);
#856 = CYLINDRICAL_SURFACE('',#857,6.5);
#857 = AXIS2_PLACEMENT_3D('',#858,#859,#860);
#858 = CARTESIAN_POINT('',(0.,28.,0.));
#859 = DIRECTION('',(-0.,-0.,-1.));
#860 = DIRECTION('',(1.,0.,0.));
#861 = ( GEOMETRIC_REPRESENTATION_CONTEXT(3) 
GLOBAL_UNCERTAINTY_ASSIGNED_CONTEXT((#865)) GLOBAL_UNIT_ASSIGNED_CONTEXT
((#862,#863,#864)) REPRESENTATION_CONTEXT('Context #1',
  '3D Context with UNIT and UNCERTAINTY') );
#862 = ( LENGTH_UNIT() NAMED_UNIT(*) SI_UNIT(.MILLI.,.METRE.) );
#863 = ( NAMED_UNIT(*) PLANE_ANGLE_UNIT() SI_UNIT($,.RADIAN.) );
#864 = ( NAMED_UNIT(*) SI_UNIT($,.STERADIAN.) SOLID_ANGLE_UNIT() );
#865 = UNCERTAINTY_MEASURE_WITH_UNIT(LENGTH_MEASURE(1.E-05),#862,
  'distance_accuracy_value','confusion accuracy');
#866 = PRODUCT_RELATED_PRODUCT_CATEGORY('part',$,(#7));
ENDSEC;
END-ISO-10303-21;
