%TF.GenerationSoftware,KiCad,Pcbnew,10.0.3*%
%TF.CreationDate,2026-05-25T19:07:21-07:00*%
%TF.ProjectId,MainBoard,4d61696e-426f-4617-9264-2e6b69636164,rev?*%
%TF.SameCoordinates,Original*%
%TF.FileFunction,Soldermask,Bot*%
%TF.FilePolarity,Negative*%
%FSLAX46Y46*%
G04 Gerber Fmt 4.6, Leading zero omitted, Abs format (unit mm)*
G04 Created by KiCad (PCBNEW 10.0.3) date 2026-05-25 19:07:21*
%MOMM*%
%LPD*%
G01*
G04 APERTURE LIST*
G04 Aperture macros list*
%AMRoundRect*
0 Rectangle with rounded corners*
0 $1 Rounding radius*
0 $2 $3 $4 $5 $6 $7 $8 $9 X,Y pos of 4 corners*
0 Add a 4 corners polygon primitive as box body*
4,1,4,$2,$3,$4,$5,$6,$7,$8,$9,$2,$3,0*
0 Add four circle primitives for the rounded corners*
1,1,$1+$1,$2,$3*
1,1,$1+$1,$4,$5*
1,1,$1+$1,$6,$7*
1,1,$1+$1,$8,$9*
0 Add four rect primitives between the rounded corners*
20,1,$1+$1,$2,$3,$4,$5,0*
20,1,$1+$1,$4,$5,$6,$7,0*
20,1,$1+$1,$6,$7,$8,$9,0*
20,1,$1+$1,$8,$9,$2,$3,0*%
G04 Aperture macros list end*
%ADD10C,9.500000*%
%ADD11R,1.500000X1.500000*%
%ADD12C,1.950000*%
%ADD13C,1.500000*%
%ADD14R,1.700000X1.700000*%
%ADD15C,1.700000*%
%ADD16C,1.217000*%
%ADD17C,2.775000*%
%ADD18C,3.000000*%
%ADD19RoundRect,0.250000X1.100000X-0.412500X1.100000X0.412500X-1.100000X0.412500X-1.100000X-0.412500X0*%
%ADD20R,5.250000X3.100000*%
%ADD21R,3.200000X2.250000*%
G04 APERTURE END LIST*
D10*
%TO.C,H8*%
X254500000Y-39500000D03*
%TD*%
D11*
%TO.C,K2*%
X227325000Y-30500000D03*
D12*
X215125000Y-30500000D03*
X215125000Y-42500000D03*
D13*
X227325000Y-42500000D03*
D12*
X229325000Y-36500000D03*
%TD*%
D14*
%TO.C,*%
X246500000Y-39725000D03*
%TD*%
D10*
%TO.C,H3*%
X85000000Y-5500000D03*
%TD*%
D14*
%TO.C,J2*%
X246500000Y-39725000D03*
D15*
X246500000Y-42265000D03*
%TD*%
D14*
%TO.C,J7*%
X206890000Y-39725000D03*
D15*
X206890000Y-42265000D03*
X204350000Y-39725000D03*
X204350000Y-42265000D03*
X201810000Y-39725000D03*
X201810000Y-42265000D03*
X199270000Y-39725000D03*
X199270000Y-42265000D03*
X196730000Y-39725000D03*
X196730000Y-42265000D03*
X194190000Y-39725000D03*
X194190000Y-42265000D03*
X191650000Y-39725000D03*
X191650000Y-42265000D03*
X189110000Y-39725000D03*
X189110000Y-42265000D03*
%TD*%
D16*
%TO.C,F1*%
X172500000Y-3450000D03*
X172500000Y-8550000D03*
%TD*%
D10*
%TO.C,H6*%
X180000000Y-39500000D03*
%TD*%
%TO.C,H7*%
X254500000Y-5500000D03*
%TD*%
D11*
%TO.C,K4*%
X57675000Y-29000000D03*
D12*
X69875000Y-29000000D03*
X69875000Y-17000000D03*
D13*
X57675000Y-17000000D03*
D12*
X55675000Y-23000000D03*
%TD*%
D17*
%TO.C,J6*%
X108500000Y-14500000D03*
X112500000Y-14500000D03*
X116500000Y-14500000D03*
X120500000Y-14500000D03*
X124500000Y-14500000D03*
X128500000Y-14500000D03*
X132500000Y-14500000D03*
X136500000Y-14500000D03*
X140500000Y-14500000D03*
X144500000Y-14500000D03*
X148500000Y-14500000D03*
X152500000Y-14500000D03*
X110500000Y-18500000D03*
X114500000Y-18500000D03*
X118500000Y-18500000D03*
X122500000Y-18500000D03*
X126500000Y-18500000D03*
X130500000Y-18500000D03*
X134500000Y-18500000D03*
X138500000Y-18500000D03*
X142500000Y-18500000D03*
X146500000Y-18500000D03*
X150500000Y-18500000D03*
X108500000Y-22500000D03*
X112500000Y-22500000D03*
X116500000Y-22500000D03*
X120500000Y-22500000D03*
X124500000Y-22500000D03*
X128500000Y-22500000D03*
X132500000Y-22500000D03*
X136500000Y-22500000D03*
X140500000Y-22500000D03*
X144500000Y-22500000D03*
X148500000Y-22500000D03*
X152500000Y-22500000D03*
D18*
X98800000Y-7700000D03*
X97300000Y-25800000D03*
X163700000Y-25800000D03*
X162200000Y-7700000D03*
%TD*%
D14*
%TO.C,J13*%
X53960000Y-43000000D03*
D15*
X53960000Y-40460000D03*
X56500000Y-43000000D03*
X56500000Y-40460000D03*
X59040000Y-43000000D03*
X59040000Y-40460000D03*
%TD*%
D14*
%TO.C,J14*%
X148570000Y-42000000D03*
D15*
X151110000Y-42000000D03*
X153650000Y-42000000D03*
X156190000Y-42000000D03*
X158730000Y-42000000D03*
X161270000Y-42000000D03*
X163810000Y-42000000D03*
X166350000Y-42000000D03*
X168890000Y-42000000D03*
X171430000Y-42000000D03*
%TD*%
D14*
%TO.C,J10*%
X53960000Y-5500000D03*
D15*
X53960000Y-2960000D03*
X56500000Y-5500000D03*
X56500000Y-2960000D03*
X59040000Y-5500000D03*
X59040000Y-2960000D03*
%TD*%
D14*
%TO.C,J12*%
X254725000Y-13610000D03*
D15*
X257265000Y-13610000D03*
X254725000Y-16150000D03*
X257265000Y-16150000D03*
X254725000Y-18690000D03*
X257265000Y-18690000D03*
X254725000Y-21230000D03*
X257265000Y-21230000D03*
X254725000Y-23770000D03*
X257265000Y-23770000D03*
X254725000Y-26310000D03*
X257265000Y-26310000D03*
X254725000Y-28850000D03*
X257265000Y-28850000D03*
X254725000Y-31390000D03*
X257265000Y-31390000D03*
%TD*%
D12*
%TO.C,PS3*%
X199595902Y-21640000D03*
X199595902Y-16560000D03*
X245315902Y-24120000D03*
X245315902Y-3800000D03*
X245315902Y-13960000D03*
X199595902Y-6400000D03*
%TD*%
D10*
%TO.C,H5*%
X180000000Y-5500000D03*
%TD*%
%TO.C,H2*%
X5500000Y-39500000D03*
%TD*%
D11*
%TO.C,K1*%
X189825000Y-15250000D03*
D12*
X177625000Y-15250000D03*
X177625000Y-27250000D03*
D13*
X189825000Y-27250000D03*
D12*
X191825000Y-21250000D03*
%TD*%
D10*
%TO.C,H1*%
X5500000Y-5500000D03*
%TD*%
D11*
%TO.C,K3*%
X35675000Y-29000000D03*
D12*
X47875000Y-29000000D03*
X47875000Y-17000000D03*
D13*
X35675000Y-17000000D03*
D12*
X33675000Y-23000000D03*
%TD*%
D10*
%TO.C,H4*%
X85000000Y-39500000D03*
%TD*%
D19*
%TO.C,C187*%
X196500000Y-33625000D03*
X196500000Y-30500000D03*
%TD*%
D20*
%TO.C,R8*%
X223250000Y-11000000D03*
X223250000Y-2100000D03*
%TD*%
%TO.C,R2*%
X215250000Y-25000000D03*
X215250000Y-16100000D03*
%TD*%
%TO.C,R9*%
X215250000Y-11000000D03*
X215250000Y-2100000D03*
%TD*%
%TO.C,R3*%
X223250000Y-25000000D03*
X223250000Y-16100000D03*
%TD*%
%TO.C,R10*%
X207250000Y-11000000D03*
X207250000Y-2100000D03*
%TD*%
%TO.C,R7*%
X231250000Y-11000000D03*
X231250000Y-2100000D03*
%TD*%
D21*
%TO.C,D4*%
X190000000Y-2300000D03*
X190000000Y-9200000D03*
%TD*%
D20*
%TO.C,R4*%
X231250000Y-25000000D03*
X231250000Y-16100000D03*
%TD*%
%TO.C,R1*%
X207500000Y-25000000D03*
X207500000Y-16100000D03*
%TD*%
M02*
