%TF.GenerationSoftware,KiCad,Pcbnew,10.0.3*%
%TF.CreationDate,2026-05-26T21:36:15-07:00*%
%TF.ProjectId,MainBoard,4d61696e-426f-4617-9264-2e6b69636164,rev?*%
%TF.SameCoordinates,Original*%
%TF.FileFunction,Paste,Top*%
%TF.FilePolarity,Positive*%
%FSLAX46Y46*%
G04 Gerber Fmt 4.6, Leading zero omitted, Abs format (unit mm)*
G04 Created by KiCad (PCBNEW 10.0.3) date 2026-05-26 21:36:15*
%MOMM*%
%LPD*%
G01*
G04 APERTURE LIST*
G04 Aperture macros list*
%AMRoundRect*
0 Rectangle with rounded corners*
0 $1 Rounding radius*
0 $2 $3 $4 $5 $6 $7 $8 $9 X,Y pos of 4 corners*
0 Add a 4 corners polygon primitive as box body*
4,1,4,$2,$3,$4,$5,$6,$7,$8,$9,$2,$3,0*
0 Add four circle primitives for the rounded corners*
1,1,$1+$1,$2,$3*
1,1,$1+$1,$4,$5*
1,1,$1+$1,$6,$7*
1,1,$1+$1,$8,$9*
0 Add four rect primitives between the rounded corners*
20,1,$1+$1,$2,$3,$4,$5,0*
20,1,$1+$1,$4,$5,$6,$7,0*
20,1,$1+$1,$6,$7,$8,$9,0*
20,1,$1+$1,$8,$9,$2,$3,0*%
G04 Aperture macros list end*
%ADD10R,1.850000X3.500000*%
%ADD11R,1.000000X0.400000*%
%ADD12RoundRect,0.250000X1.100000X-0.412500X1.100000X0.412500X-1.100000X0.412500X-1.100000X-0.412500X0*%
%ADD13R,3.500000X1.850000*%
%ADD14R,3.200000X2.250000*%
%ADD15R,0.400000X1.000000*%
G04 APERTURE END LIST*
D10*
%TO.C,C39*%
X26500000Y-25700000D03*
X26500000Y-31000000D03*
%TD*%
D11*
%TO.C,IC10*%
X199000000Y-31850000D03*
X199000000Y-32500000D03*
X199000000Y-33150000D03*
X201000000Y-33150000D03*
X201000000Y-32500000D03*
X201000000Y-31850000D03*
%TD*%
D12*
%TO.C,C189*%
X245500000Y-32125000D03*
X245500000Y-29000000D03*
%TD*%
D10*
%TO.C,C37*%
X30500000Y-36350000D03*
X30500000Y-41650000D03*
%TD*%
%TO.C,C50*%
X26500000Y-15100000D03*
X26500000Y-20400000D03*
%TD*%
%TO.C,C40*%
X17300000Y-25700000D03*
X17300000Y-31000000D03*
%TD*%
D13*
%TO.C,C47*%
X236850000Y-40500000D03*
X242150000Y-40500000D03*
%TD*%
%TO.C,C48*%
X127850000Y-41000000D03*
X133150000Y-41000000D03*
%TD*%
D10*
%TO.C,C41*%
X8000000Y-25700000D03*
X8000000Y-31000000D03*
%TD*%
D13*
%TO.C,C42*%
X234850000Y-32000000D03*
X240150000Y-32000000D03*
%TD*%
D10*
%TO.C,C38*%
X21500000Y-36350000D03*
X21500000Y-41650000D03*
%TD*%
D13*
%TO.C,C49*%
X117350000Y-41000000D03*
X122650000Y-41000000D03*
%TD*%
D12*
%TO.C,C188*%
X47500000Y-36562500D03*
X47500000Y-33437500D03*
%TD*%
D14*
%TO.C,D3*%
X190000000Y-2300000D03*
X190000000Y-9200000D03*
%TD*%
D10*
%TO.C,C46*%
X8000000Y-15350000D03*
X8000000Y-20650000D03*
%TD*%
%TO.C,C51*%
X17500000Y-15100000D03*
X17500000Y-20400000D03*
%TD*%
%TO.C,C36*%
X39500000Y-36350000D03*
X39500000Y-41650000D03*
%TD*%
D13*
%TO.C,C44*%
X107000000Y-41000000D03*
X112300000Y-41000000D03*
%TD*%
D15*
%TO.C,IC11*%
X52350000Y-35500000D03*
X53000000Y-35500000D03*
X53650000Y-35500000D03*
X53650000Y-33500000D03*
X53000000Y-33500000D03*
X52350000Y-33500000D03*
%TD*%
D13*
%TO.C,C45*%
X96850000Y-41000000D03*
X102150000Y-41000000D03*
%TD*%
%TO.C,C43*%
X138000000Y-41000000D03*
X143300000Y-41000000D03*
%TD*%
M02*
