M48
; DRILL file KiCad 10.0.3 date 2026-05-25T19:07:16
; FORMAT={-:-/ absolute / metric / decimal}
; #@! TF.CreationDate,2026-05-25T19:07:16-07:00
; #@! TF.GenerationSoftware,Kicad,Pcbnew,10.0.3
; #@! TF.FileFunction,Plated,1,4,PTH
FMAT,2
METRIC
; #@! TA.AperFunction,Plated,PTH,ViaDrill
T1C0.300
; #@! TA.AperFunction,Plated,PTH,ComponentDrill
T2C0.710
; #@! TA.AperFunction,Plated,PTH,ComponentDrill
T3C1.000
; #@! TA.AperFunction,Plated,PTH,ComponentDrill
T4C1.300
; #@! TA.AperFunction,Plated,PTH,ComponentDrill
T5C1.850
; #@! TA.AperFunction,Plated,PTH,ComponentDrill
T6C2.000
; #@! TA.AperFunction,Plated,PTH,ComponentDrill
T7C5.300
%
G90
G05
T1
X1.25Y-31.25
X2.25Y-15.25
X8.0Y-15.35
X8.0Y-20.65
X8.0Y-31.0
X13.75Y-43.25
X14.25Y-1.5
X17.3Y-31.0
X17.5Y-15.1
X17.5Y-20.4
X21.5Y-41.65
X26.5Y-15.1
X26.5Y-20.4
X26.5Y-31.0
X30.5Y-41.65
X39.5Y-41.65
X42.0Y-26.0
X45.75Y-2.25
X49.5Y-38.25
X49.75Y-33.5
X50.5Y-14.25
X51.5Y-36.0
X52.0Y-38.5
X53.0Y-32.5
X54.5Y-28.25
X58.0Y-34.75
X60.5Y-35.5
X63.0Y-20.5
X63.25Y-30.5
X64.25Y-41.75
X65.5Y-1.75
X66.0Y-12.0
X67.0Y-13.5
X68.0Y-32.5
X69.0Y-33.5
X74.5Y-20.25
X77.0Y-4.25
X77.0Y-44.0
X79.25Y-43.75
X81.75Y-24.5
X91.0Y-11.0
X91.0Y-17.0
X91.5Y-26.0
X91.5Y-27.5
X91.75Y-43.75
X92.0Y-36.75
X93.25Y-23.75
X95.0Y-12.5
X96.0Y-17.25
X96.85Y-41.0
X101.25Y-23.75
X102.15Y-41.0
X103.5Y-22.0
X103.75Y-15.75
X104.0Y-25.5
X104.0Y-27.5
X107.0Y-41.0
X108.0Y-29.0
X112.3Y-41.0
X112.5Y-32.0
X114.25Y-12.25
X116.5Y-30.5
X117.35Y-41.0
X118.25Y-12.25
X118.5Y-25.5
X121.0Y-33.5
X122.5Y-27.5
X122.65Y-41.0
X124.5Y-10.0
X127.85Y-41.0
X130.5Y-8.5
X130.5Y-25.5
X130.5Y-35.5
X133.0Y-25.5
X133.0Y-30.0
X133.15Y-41.0
X134.5Y-25.0
X134.5Y-35.0
X137.5Y-25.5
X138.371Y-41.347
X139.0Y-29.5
X139.5Y-26.0
X142.0Y-29.0
X143.3Y-41.0
X144.5Y-26.0
X158.0Y-28.0
X164.0Y-15.5
X165.0Y-33.0
X167.0Y-32.0
X167.5Y-26.5
X169.5Y-28.0
X169.5Y-31.5
X171.5Y-28.0
X172.781Y-25.643
X182.5Y-26.5
X186.25Y-38.75
X187.0Y-9.5
X190.0Y-30.325
X190.4Y-32.0
X192.25Y-3.5
X192.5Y-31.25
X194.5Y-26.5
X197.5Y-32.5
X199.0Y-37.0
X199.5Y-36.0
X202.0Y-35.0
X203.5Y-31.5
X205.5Y-34.5
X206.0Y-36.0
X210.0Y-31.0
X212.0Y-40.0
X214.5Y-38.0
X215.5Y-37.0
X231.25Y-11.0
X231.25Y-25.0
X234.0Y-36.5
X234.0Y-38.0
X234.85Y-32.0
X236.85Y-40.5
X240.15Y-32.0
X242.15Y-40.5
X245.5Y-29.0
T2
X172.5Y-3.45
X172.5Y-8.55
T3
X35.675Y-17.0
X35.675Y-29.0
X53.96Y-2.96
X53.96Y-5.5
X53.96Y-40.46
X53.96Y-43.0
X56.5Y-2.96
X56.5Y-5.5
X56.5Y-40.46
X56.5Y-43.0
X57.675Y-17.0
X57.675Y-29.0
X59.04Y-2.96
X59.04Y-5.5
X59.04Y-40.46
X59.04Y-43.0
X148.57Y-42.0
X151.11Y-42.0
X153.65Y-42.0
X156.19Y-42.0
X158.73Y-42.0
X161.27Y-42.0
X163.81Y-42.0
X166.35Y-42.0
X168.89Y-42.0
X171.43Y-42.0
X189.11Y-39.725
X189.11Y-42.265
X189.825Y-15.25
X189.825Y-27.25
X191.65Y-39.725
X191.65Y-42.265
X194.19Y-39.725
X194.19Y-42.265
X196.73Y-39.725
X196.73Y-42.265
X199.27Y-39.725
X199.27Y-42.265
X201.81Y-39.725
X201.81Y-42.265
X204.35Y-39.725
X204.35Y-42.265
X206.89Y-39.725
X206.89Y-42.265
X227.325Y-30.5
X227.325Y-42.5
X246.5Y-39.725
X246.5Y-39.725
X246.5Y-42.265
X254.725Y-13.61
X254.725Y-16.15
X254.725Y-18.69
X254.725Y-21.23
X254.725Y-23.77
X254.725Y-26.31
X254.725Y-28.85
X254.725Y-31.39
X257.265Y-13.61
X257.265Y-16.15
X257.265Y-18.69
X257.265Y-21.23
X257.265Y-23.77
X257.265Y-26.31
X257.265Y-28.85
X257.265Y-31.39
T4
X33.675Y-23.0
X47.875Y-17.0
X47.875Y-29.0
X55.675Y-23.0
X69.875Y-17.0
X69.875Y-29.0
X177.625Y-15.25
X177.625Y-27.25
X191.825Y-21.25
X199.596Y-6.4
X199.596Y-16.56
X199.596Y-21.64
X215.125Y-30.5
X215.125Y-42.5
X229.325Y-36.5
X245.316Y-3.8
X245.316Y-13.96
X245.316Y-24.12
T5
X108.5Y-14.5
X108.5Y-22.5
X110.5Y-18.5
X112.5Y-14.5
X112.5Y-22.5
X114.5Y-18.5
X116.5Y-14.5
X116.5Y-22.5
X118.5Y-18.5
X120.5Y-14.5
X120.5Y-22.5
X122.5Y-18.5
X124.5Y-14.5
X124.5Y-22.5
X126.5Y-18.5
X128.5Y-14.5
X128.5Y-22.5
X130.5Y-18.5
X132.5Y-14.5
X132.5Y-22.5
X134.5Y-18.5
X136.5Y-14.5
X136.5Y-22.5
X138.5Y-18.5
X140.5Y-14.5
X140.5Y-22.5
X142.5Y-18.5
X144.5Y-14.5
X144.5Y-22.5
X146.5Y-18.5
X148.5Y-14.5
X148.5Y-22.5
X150.5Y-18.5
X152.5Y-14.5
X152.5Y-22.5
T6
X97.3Y-25.8
X98.8Y-7.7
X162.2Y-7.7
X163.7Y-25.8
T7
X5.5Y-5.5
X5.5Y-39.5
X85.0Y-5.5
X85.0Y-39.5
X180.0Y-5.5
X180.0Y-39.5
X254.5Y-5.5
X254.5Y-39.5
M30
