%TF.GenerationSoftware,KiCad,Pcbnew,10.0.3*%
%TF.CreationDate,2026-05-26T21:36:14-07:00*%
%TF.ProjectId,MainBoard,4d61696e-426f-4617-9264-2e6b69636164,rev?*%
%TF.SameCoordinates,Original*%
%TF.FileFunction,Copper,L1,Top*%
%TF.FilePolarity,Positive*%
%FSLAX46Y46*%
G04 Gerber Fmt 4.6, Leading zero omitted, Abs format (unit mm)*
G04 Created by KiCad (PCBNEW 10.0.3) date 2026-05-26 21:36:14*
%MOMM*%
%LPD*%
G01*
G04 APERTURE LIST*
G04 Aperture macros list*
%AMRoundRect*
0 Rectangle with rounded corners*
0 $1 Rounding radius*
0 $2 $3 $4 $5 $6 $7 $8 $9 X,Y pos of 4 corners*
0 Add a 4 corners polygon primitive as box body*
4,1,4,$2,$3,$4,$5,$6,$7,$8,$9,$2,$3,0*
0 Add four circle primitives for the rounded corners*
1,1,$1+$1,$2,$3*
1,1,$1+$1,$4,$5*
1,1,$1+$1,$6,$7*
1,1,$1+$1,$8,$9*
0 Add four rect primitives between the rounded corners*
20,1,$1+$1,$2,$3,$4,$5,0*
20,1,$1+$1,$4,$5,$6,$7,0*
20,1,$1+$1,$6,$7,$8,$9,0*
20,1,$1+$1,$8,$9,$2,$3,0*%
G04 Aperture macros list end*
%TA.AperFunction,ComponentPad*%
%ADD10C,9.500000*%
%TD*%
%TA.AperFunction,SMDPad,CuDef*%
%ADD11R,1.850000X3.500000*%
%TD*%
%TA.AperFunction,SMDPad,CuDef*%
%ADD12R,1.000000X0.400000*%
%TD*%
%TA.AperFunction,SMDPad,CuDef*%
%ADD13RoundRect,0.250000X1.100000X-0.412500X1.100000X0.412500X-1.100000X0.412500X-1.100000X-0.412500X0*%
%TD*%
%TA.AperFunction,ComponentPad*%
%ADD14R,1.500000X1.500000*%
%TD*%
%TA.AperFunction,ComponentPad*%
%ADD15C,1.950000*%
%TD*%
%TA.AperFunction,ComponentPad*%
%ADD16C,1.500000*%
%TD*%
%TA.AperFunction,ComponentPad*%
%ADD17R,1.700000X1.700000*%
%TD*%
%TA.AperFunction,SMDPad,CuDef*%
%ADD18R,3.500000X1.850000*%
%TD*%
%TA.AperFunction,ComponentPad*%
%ADD19C,1.700000*%
%TD*%
%TA.AperFunction,ComponentPad*%
%ADD20C,1.217000*%
%TD*%
%TA.AperFunction,SMDPad,CuDef*%
%ADD21R,3.200000X2.250000*%
%TD*%
%TA.AperFunction,ComponentPad*%
%ADD22C,2.775000*%
%TD*%
%TA.AperFunction,ComponentPad*%
%ADD23C,3.000000*%
%TD*%
%TA.AperFunction,SMDPad,CuDef*%
%ADD24R,0.400000X1.000000*%
%TD*%
%TA.AperFunction,ViaPad*%
%ADD25C,0.600000*%
%TD*%
%TA.AperFunction,Conductor*%
%ADD26C,0.350000*%
%TD*%
%TA.AperFunction,Conductor*%
%ADD27C,0.500000*%
%TD*%
%TA.AperFunction,Conductor*%
%ADD28C,0.250000*%
%TD*%
%TA.AperFunction,Conductor*%
%ADD29C,1.000000*%
%TD*%
G04 APERTURE END LIST*
D10*
%TO.P,H8,1*%
%TO.N,N/C*%
X254500000Y-39500000D03*
%TD*%
D11*
%TO.P,C39,1,+_1*%
%TO.N,/+5V_A*%
X26500000Y-25700000D03*
%TO.P,C39,2,-_2*%
%TO.N,/GND_A*%
X26500000Y-31000000D03*
%TD*%
D12*
%TO.P,IC10,1,C1/A1_1*%
%TO.N,/DOUT1_A*%
X199000000Y-31850000D03*
%TO.P,IC10,2,E1/E2_2*%
%TO.N,/GND_A*%
X199000000Y-32500000D03*
%TO.P,IC10,3,C2/A2_3*%
%TO.N,/DOUT2_A*%
X199000000Y-33150000D03*
%TO.P,IC10,4,B2_4*%
%TO.N,Net-(IC10-B2)*%
X201000000Y-33150000D03*
%TO.P,IC10,5,K1/K2_5*%
%TO.N,/+5V_A*%
X201000000Y-32500000D03*
%TO.P,IC10,6,B1_6*%
%TO.N,Net-(IC10-B1)*%
X201000000Y-31850000D03*
%TD*%
D13*
%TO.P,C189,1*%
%TO.N,/GND_A*%
X245500000Y-32125000D03*
%TO.P,C189,2*%
%TO.N,/+12V_A*%
X245500000Y-29000000D03*
%TD*%
D14*
%TO.P,K2,1,COIL_1_1*%
%TO.N,Net-(IC10-B2)*%
X227325000Y-30500000D03*
D15*
%TO.P,K2,2,NO_2*%
%TO.N,/VIN_FUSED_Z*%
X215125000Y-30500000D03*
%TO.P,K2,3,NC_3*%
%TO.N,unconnected-(K2-NC-Pad3)*%
X215125000Y-42500000D03*
D16*
%TO.P,K2,4,COIL_2_4*%
%TO.N,/+5V_A*%
X227325000Y-42500000D03*
D15*
%TO.P,K2,5,COM_5*%
%TO.N,/O_+VIN_SWITCHED_Z*%
X229325000Y-36500000D03*
%TD*%
D11*
%TO.P,C37,1,+_1*%
%TO.N,/+5V_A*%
X30500000Y-36350000D03*
%TO.P,C37,2,-_2*%
%TO.N,/GND_A*%
X30500000Y-41650000D03*
%TD*%
D17*
%TO.P,,1,Pin_1*%
%TO.N,/+12V_A*%
X246500000Y-39725000D03*
%TD*%
D10*
%TO.P,H3,1*%
%TO.N,N/C*%
X85000000Y-5500000D03*
%TD*%
D11*
%TO.P,C50,1,+_1*%
%TO.N,/+12V_A*%
X26500000Y-15100000D03*
%TO.P,C50,2,-_2*%
%TO.N,/GND_A*%
X26500000Y-20400000D03*
%TD*%
%TO.P,C40,1,+_1*%
%TO.N,/+5V_A*%
X17300000Y-25700000D03*
%TO.P,C40,2,-_2*%
%TO.N,/GND_A*%
X17300000Y-31000000D03*
%TD*%
D18*
%TO.P,C47,1,+_1*%
%TO.N,/+12V_A*%
X236850000Y-40500000D03*
%TO.P,C47,2,-_2*%
%TO.N,/GND_A*%
X242150000Y-40500000D03*
%TD*%
D17*
%TO.P,J2,1,Pin_1_1*%
%TO.N,/+12V_A*%
X246500000Y-39725000D03*
D19*
%TO.P,J2,2,Pin_2_2*%
%TO.N,/GND_A*%
X246500000Y-42265000D03*
%TD*%
D18*
%TO.P,C48,1,+_1*%
%TO.N,/+12V_A*%
X127850000Y-41000000D03*
%TO.P,C48,2,-_2*%
%TO.N,/GND_A*%
X133150000Y-41000000D03*
%TD*%
D17*
%TO.P,J7,1,Pin_1_1*%
%TO.N,/HALL_U_ENCODER_SIN_IN_A*%
X206890000Y-39725000D03*
D19*
%TO.P,J7,2,Pin_2_2*%
%TO.N,/+5V_A*%
X206890000Y-42265000D03*
%TO.P,J7,3,Pin_3_3*%
%TO.N,/HALL_V_ENCODER_COS_IN_A*%
X204350000Y-39725000D03*
%TO.P,J7,4,Pin_4_4*%
%TO.N,/GND_A*%
X204350000Y-42265000D03*
%TO.P,J7,5,Pin_5_5*%
%TO.N,/HALL_W_IN_A*%
X201810000Y-39725000D03*
%TO.P,J7,6,Pin_6_6*%
%TO.N,/GND_A*%
X201810000Y-42265000D03*
%TO.P,J7,7,Pin_7_7*%
%TO.N,/MOTOR_TEMP_IN_A*%
X199270000Y-39725000D03*
%TO.P,J7,8,Pin_8_8*%
%TO.N,/GND_A*%
X199270000Y-42265000D03*
%TO.P,J7,9,Pin_9_9*%
%TO.N,/THROTTLE1_IN_A*%
X196730000Y-39725000D03*
%TO.P,J7,10,Pin_10_10*%
%TO.N,/GND_A*%
X196730000Y-42265000D03*
%TO.P,J7,11,Pin_11_11*%
%TO.N,/THROTTLE2_IN_A*%
X194190000Y-39725000D03*
%TO.P,J7,12,Pin_12_12*%
%TO.N,/GND_A*%
X194190000Y-42265000D03*
%TO.P,J7,13,Pin_13_13*%
%TO.N,/DOUT1_A*%
X191650000Y-39725000D03*
%TO.P,J7,14,Pin_14_14*%
%TO.N,/DOUT2_A*%
X191650000Y-42265000D03*
%TO.P,J7,15,Pin_15_15*%
%TO.N,/DOUT3_A*%
X189110000Y-39725000D03*
%TO.P,J7,16,Pin_16_16*%
%TO.N,/DOUT4_A*%
X189110000Y-42265000D03*
%TD*%
D11*
%TO.P,C41,1,+_1*%
%TO.N,/+5V_A*%
X8000000Y-25700000D03*
%TO.P,C41,2,-_2*%
%TO.N,/GND_A*%
X8000000Y-31000000D03*
%TD*%
D18*
%TO.P,C42,1,+_1*%
%TO.N,/+12V_A*%
X234850000Y-32000000D03*
%TO.P,C42,2,-_2*%
%TO.N,/GND_A*%
X240150000Y-32000000D03*
%TD*%
D11*
%TO.P,C38,1,+_1*%
%TO.N,/+5V_A*%
X21500000Y-36350000D03*
%TO.P,C38,2,-_2*%
%TO.N,/GND_A*%
X21500000Y-41650000D03*
%TD*%
D20*
%TO.P,F1,1*%
%TO.N,/I_+VIN_Z*%
X172500000Y-3450000D03*
%TO.P,F1,2*%
%TO.N,Net-(D3-A)*%
X172500000Y-8550000D03*
%TD*%
D10*
%TO.P,H6,1*%
%TO.N,N/C*%
X180000000Y-39500000D03*
%TD*%
D18*
%TO.P,C49,1,+_1*%
%TO.N,/+12V_A*%
X117350000Y-41000000D03*
%TO.P,C49,2,-_2*%
%TO.N,/GND_A*%
X122650000Y-41000000D03*
%TD*%
D13*
%TO.P,C188,1*%
%TO.N,/GND_A*%
X47500000Y-36562500D03*
%TO.P,C188,2*%
%TO.N,/+5V_A*%
X47500000Y-33437500D03*
%TD*%
D10*
%TO.P,H7,1*%
%TO.N,N/C*%
X254500000Y-5500000D03*
%TD*%
D14*
%TO.P,K4,1,COIL_1_1*%
%TO.N,Net-(IC11-B2)*%
X57675000Y-29000000D03*
D15*
%TO.P,K4,2,NO_2*%
%TO.N,/+12V_SWITCHED_A*%
X69875000Y-29000000D03*
%TO.P,K4,3,NC_3*%
%TO.N,unconnected-(K4-NC-Pad3)*%
X69875000Y-17000000D03*
D16*
%TO.P,K4,4,COIL_2_4*%
%TO.N,/+5V_A*%
X57675000Y-17000000D03*
D15*
%TO.P,K4,5,COM_5*%
%TO.N,/+12V_A*%
X55675000Y-23000000D03*
%TD*%
D21*
%TO.P,D3,1,K_1*%
%TO.N,/VIN_FUSED_Z*%
X190000000Y-2300000D03*
%TO.P,D3,2,A_2*%
%TO.N,Net-(D3-A)*%
X190000000Y-9200000D03*
%TD*%
D11*
%TO.P,C46,1,+_1*%
%TO.N,/+12V_A*%
X8000000Y-15350000D03*
%TO.P,C46,2,-_2*%
%TO.N,/GND_A*%
X8000000Y-20650000D03*
%TD*%
D22*
%TO.P,J6,1,1_1*%
%TO.N,/CAN1_GND*%
X108500000Y-14500000D03*
%TO.P,J6,2,2_2*%
%TO.N,/CAN1_LOW*%
X112500000Y-14500000D03*
%TO.P,J6,3,3_3*%
%TO.N,/CAN1_HIGH*%
X116500000Y-14500000D03*
%TO.P,J6,4,4_4*%
%TO.N,/CAN1_+5V*%
X120500000Y-14500000D03*
%TO.P,J6,5,5_5*%
%TO.N,/CAN1_SWITCHED_+5V*%
X124500000Y-14500000D03*
%TO.P,J6,6,6_6*%
%TO.N,/THROTTLE2_IN_A*%
X128500000Y-14500000D03*
%TO.P,J6,7,7_7*%
%TO.N,/THROTTLE1_IN_A*%
X132500000Y-14500000D03*
%TO.P,J6,8,8_8*%
%TO.N,/GND_A*%
X136500000Y-14500000D03*
%TO.P,J6,9,9_9*%
%TO.N,/+5V_A*%
X140500000Y-14500000D03*
%TO.P,J6,10,10_10*%
%TO.N,/DIN_2_W*%
X144500000Y-14500000D03*
%TO.P,J6,11,11_11*%
%TO.N,unconnected-(J6-Pad11)*%
X148500000Y-14500000D03*
%TO.P,J6,12,12_12*%
%TO.N,/I_+VIN_Z*%
X152500000Y-14500000D03*
%TO.P,J6,13,13_13*%
%TO.N,/CAN1_JUMPER_A*%
X110500000Y-18500000D03*
%TO.P,J6,14,14_14*%
%TO.N,/CAN1_JUMPER_B*%
X114500000Y-18500000D03*
%TO.P,J6,15,15_15*%
%TO.N,/CAN2_JUMPER_A*%
X118500000Y-18500000D03*
%TO.P,J6,16,16_16*%
%TO.N,/CAN2_JUMPER_B*%
X122500000Y-18500000D03*
%TO.P,J6,17,17_17*%
%TO.N,/+12V_SWITCHED_A*%
X126500000Y-18500000D03*
%TO.P,J6,18,18_18*%
%TO.N,/CAN1_+5V*%
X130500000Y-18500000D03*
%TO.P,J6,19,19_19*%
%TO.N,/I_+5V_HVIL_RETURN_A*%
X134500000Y-18500000D03*
%TO.P,J6,20,20_20*%
%TO.N,/DIN_1_W*%
X138500000Y-18500000D03*
%TO.P,J6,21,21_21*%
%TO.N,/GND_A*%
X142500000Y-18500000D03*
%TO.P,J6,22,22_22*%
%TO.N,unconnected-(J6-Pad22)*%
X146500000Y-18500000D03*
%TO.P,J6,23,23_23*%
%TO.N,/O_PRECHARGE_DC_LINK_+_Z*%
X150500000Y-18500000D03*
%TO.P,J6,24,24_24*%
%TO.N,/CAN2_GND*%
X108500000Y-22500000D03*
%TO.P,J6,25,25_25*%
%TO.N,/CAN2_LOW*%
X112500000Y-22500000D03*
%TO.P,J6,26,26_26*%
%TO.N,/CAN2_HIGH*%
X116500000Y-22500000D03*
%TO.P,J6,27,27_27*%
%TO.N,/CAN2_+5V*%
X120500000Y-22500000D03*
%TO.P,J6,28,28_28*%
%TO.N,/MOTOR_TEMP_IN_A*%
X124500000Y-22500000D03*
%TO.P,J6,29,29_29*%
%TO.N,/HALL_W_IN_A*%
X128500000Y-22500000D03*
%TO.P,J6,30,30_30*%
%TO.N,/HALL_V_ENCODER_COS_IN_A*%
X132500000Y-22500000D03*
%TO.P,J6,31,31_31*%
%TO.N,/HALL_U_ENCODER_SIN_IN_A*%
X136500000Y-22500000D03*
%TO.P,J6,32,32_32*%
%TO.N,/+5V_A*%
X140500000Y-22500000D03*
%TO.P,J6,33,33_33*%
%TO.N,unconnected-(J6-Pad33)*%
X144500000Y-22500000D03*
%TO.P,J6,34,34_34*%
%TO.N,/O_+VIN_SWITCHED_Z*%
X148500000Y-22500000D03*
%TO.P,J6,35,35_35*%
%TO.N,/GND_Z*%
X152500000Y-22500000D03*
D23*
%TO.P,J6,MH1,MH1_MH1*%
%TO.N,unconnected-(J6-PadMH1)*%
X98800000Y-7700000D03*
%TO.P,J6,MH2,MH2_MH2*%
%TO.N,unconnected-(J6-PadMH2)*%
X97300000Y-25800000D03*
%TO.P,J6,MH3,MH3_MH3*%
%TO.N,unconnected-(J6-PadMH3)*%
X163700000Y-25800000D03*
%TO.P,J6,MH4,MH4_MH4*%
%TO.N,unconnected-(J6-PadMH4)*%
X162200000Y-7700000D03*
%TD*%
D11*
%TO.P,C51,1,+_1*%
%TO.N,/+12V_A*%
X17500000Y-15100000D03*
%TO.P,C51,2,-_2*%
%TO.N,/GND_A*%
X17500000Y-20400000D03*
%TD*%
D17*
%TO.P,J13,1,Pin_1_1*%
%TO.N,/CAN2_JUMPER_A*%
X53960000Y-43000000D03*
D19*
%TO.P,J13,2,Pin_2_2*%
%TO.N,/CAN2_JUMPER_B*%
X53960000Y-40460000D03*
%TO.P,J13,3,Pin_3_3*%
%TO.N,/CAN2_+5V*%
X56500000Y-43000000D03*
%TO.P,J13,4,Pin_4_4*%
%TO.N,/CAN2_GND*%
X56500000Y-40460000D03*
%TO.P,J13,5,Pin_5_5*%
%TO.N,/CAN2_LOW*%
X59040000Y-43000000D03*
%TO.P,J13,6,Pin_6_6*%
%TO.N,/CAN2_HIGH*%
X59040000Y-40460000D03*
%TD*%
D17*
%TO.P,J14,1,Pin_1_1*%
%TO.N,unconnected-(J14-Pin_1-Pad1)*%
X148570000Y-42000000D03*
D19*
%TO.P,J14,2,Pin_2_2*%
%TO.N,unconnected-(J14-Pin_2-Pad2)*%
X151110000Y-42000000D03*
%TO.P,J14,3,Pin_3_3*%
%TO.N,unconnected-(J14-Pin_3-Pad3)*%
X153650000Y-42000000D03*
%TO.P,J14,4,Pin_4_4*%
%TO.N,unconnected-(J14-Pin_4-Pad4)*%
X156190000Y-42000000D03*
%TO.P,J14,5,Pin_5_5*%
%TO.N,unconnected-(J14-Pin_5-Pad5)*%
X158730000Y-42000000D03*
%TO.P,J14,6,Pin_6_6*%
%TO.N,unconnected-(J14-Pin_6-Pad6)*%
X161270000Y-42000000D03*
%TO.P,J14,7,Pin_7_7*%
%TO.N,unconnected-(J14-Pin_7-Pad7)*%
X163810000Y-42000000D03*
%TO.P,J14,8,Pin_8_8*%
%TO.N,unconnected-(J14-Pin_8-Pad8)*%
X166350000Y-42000000D03*
%TO.P,J14,9,Pin_9_9*%
%TO.N,unconnected-(J14-Pin_9-Pad9)*%
X168890000Y-42000000D03*
%TO.P,J14,10,Pin_10_10*%
%TO.N,unconnected-(J14-Pin_10-Pad10)*%
X171430000Y-42000000D03*
%TD*%
D11*
%TO.P,C36,1,+_1*%
%TO.N,/+5V_A*%
X39500000Y-36350000D03*
%TO.P,C36,2,-_2*%
%TO.N,/GND_A*%
X39500000Y-41650000D03*
%TD*%
D17*
%TO.P,J10,1,Pin_1_1*%
%TO.N,/CAN1_JUMPER_A*%
X53960000Y-5500000D03*
D19*
%TO.P,J10,2,Pin_2_2*%
%TO.N,/CAN1_JUMPER_B*%
X53960000Y-2960000D03*
%TO.P,J10,3,Pin_3_3*%
%TO.N,/CAN1_+5V*%
X56500000Y-5500000D03*
%TO.P,J10,4,Pin_4_4*%
%TO.N,/CAN1_GND*%
X56500000Y-2960000D03*
%TO.P,J10,5,Pin_5_5*%
%TO.N,/CAN1_LOW*%
X59040000Y-5500000D03*
%TO.P,J10,6,Pin_6_6*%
%TO.N,/CAN1_HIGH*%
X59040000Y-2960000D03*
%TD*%
D17*
%TO.P,J12,1,Pin_1_1*%
%TO.N,/DIN_1_W*%
X254725000Y-13610000D03*
D19*
%TO.P,J12,2,Pin_2_2*%
%TO.N,/GND_A*%
X257265000Y-13610000D03*
%TO.P,J12,3,Pin_3_3*%
%TO.N,/DIN_2_W*%
X254725000Y-16150000D03*
%TO.P,J12,4,Pin_4_4*%
%TO.N,/GND_A*%
X257265000Y-16150000D03*
%TO.P,J12,5,Pin_5_5*%
%TO.N,/DIN_3_W*%
X254725000Y-18690000D03*
%TO.P,J12,6,Pin_6_6*%
%TO.N,/GND_A*%
X257265000Y-18690000D03*
%TO.P,J12,7,Pin_7_7*%
%TO.N,/DIN_4_W*%
X254725000Y-21230000D03*
%TO.P,J12,8,Pin_8_8*%
%TO.N,/GND_A*%
X257265000Y-21230000D03*
%TO.P,J12,9,Pin_9_9*%
%TO.N,/DIN_5_W*%
X254725000Y-23770000D03*
%TO.P,J12,10,Pin_10_10*%
%TO.N,/GND_A*%
X257265000Y-23770000D03*
%TO.P,J12,11,Pin_11_11*%
%TO.N,/DIN_6_W*%
X254725000Y-26310000D03*
%TO.P,J12,12,Pin_12_12*%
%TO.N,/GND_A*%
X257265000Y-26310000D03*
%TO.P,J12,13,Pin_13_13*%
%TO.N,/DIN_7_W*%
X254725000Y-28850000D03*
%TO.P,J12,14,Pin_14_14*%
%TO.N,/GND_A*%
X257265000Y-28850000D03*
%TO.P,J12,15,Pin_15_15*%
%TO.N,/DIN_8_W*%
X254725000Y-31390000D03*
%TO.P,J12,16,Pin_16_16*%
%TO.N,/GND_A*%
X257265000Y-31390000D03*
%TD*%
D15*
%TO.P,PS3,1,+VIN_1*%
%TO.N,/VIN_FUSED_Z*%
X199595902Y-21640000D03*
%TO.P,PS3,2,-VIN_2*%
%TO.N,/GND_Z*%
X199595902Y-16560000D03*
%TO.P,PS3,3,+VOUT_3*%
%TO.N,/+12V_A*%
X245315902Y-24120000D03*
%TO.P,PS3,4,TRIM_4*%
%TO.N,unconnected-(PS3-TRIM-Pad4)*%
X245315902Y-3800000D03*
%TO.P,PS3,5,-VOUT_5*%
%TO.N,/GND_A*%
X245315902Y-13960000D03*
%TO.P,PS3,6,REMOTE_ON/OFF_6*%
%TO.N,unconnected-(PS3-REMOTE_ON{slash}OFF-Pad6)*%
X199595902Y-6400000D03*
%TD*%
D10*
%TO.P,H5,1*%
%TO.N,N/C*%
X180000000Y-5500000D03*
%TD*%
D18*
%TO.P,C44,1,+_1*%
%TO.N,/+12V_A*%
X107000000Y-41000000D03*
%TO.P,C44,2,-_2*%
%TO.N,/GND_A*%
X112300000Y-41000000D03*
%TD*%
D24*
%TO.P,IC11,1,C1/A1_1*%
%TO.N,/DOUT3_A*%
X52350000Y-35500000D03*
%TO.P,IC11,2,E1/E2_2*%
%TO.N,/GND_A*%
X53000000Y-35500000D03*
%TO.P,IC11,3,C2/A2_3*%
%TO.N,/DOUT4_A*%
X53650000Y-35500000D03*
%TO.P,IC11,4,B2_4*%
%TO.N,Net-(IC11-B2)*%
X53650000Y-33500000D03*
%TO.P,IC11,5,K1/K2_5*%
%TO.N,/+5V_A*%
X53000000Y-33500000D03*
%TO.P,IC11,6,B1_6*%
%TO.N,Net-(IC11-B1)*%
X52350000Y-33500000D03*
%TD*%
D18*
%TO.P,C45,1,+_1*%
%TO.N,/+12V_A*%
X96850000Y-41000000D03*
%TO.P,C45,2,-_2*%
%TO.N,/GND_A*%
X102150000Y-41000000D03*
%TD*%
D10*
%TO.P,H2,1*%
%TO.N,N/C*%
X5500000Y-39500000D03*
%TD*%
D14*
%TO.P,K1,1,COIL_1_1*%
%TO.N,Net-(IC10-B1)*%
X189825000Y-15250000D03*
D15*
%TO.P,K1,2,NO_2*%
%TO.N,/VIN_FUSED_Z*%
X177625000Y-15250000D03*
%TO.P,K1,3,NC_3*%
%TO.N,unconnected-(K1-NC-Pad3)*%
X177625000Y-27250000D03*
D16*
%TO.P,K1,4,COIL_2_4*%
%TO.N,/+5V_A*%
X189825000Y-27250000D03*
D15*
%TO.P,K1,5,COM_5*%
%TO.N,Net-(K1-COM)*%
X191825000Y-21250000D03*
%TD*%
D10*
%TO.P,H1,1*%
%TO.N,N/C*%
X5500000Y-5500000D03*
%TD*%
D18*
%TO.P,C43,1,+_1*%
%TO.N,/+12V_A*%
X138000000Y-41000000D03*
%TO.P,C43,2,-_2*%
%TO.N,/GND_A*%
X143300000Y-41000000D03*
%TD*%
D14*
%TO.P,K3,1,COIL_1_1*%
%TO.N,Net-(IC11-B1)*%
X35675000Y-29000000D03*
D15*
%TO.P,K3,2,NO_2*%
%TO.N,/CAN1_SWITCHED_+5V*%
X47875000Y-29000000D03*
%TO.P,K3,3,NC_3*%
%TO.N,unconnected-(K3-NC-Pad3)*%
X47875000Y-17000000D03*
D16*
%TO.P,K3,4,COIL_2_4*%
%TO.N,/+5V_A*%
X35675000Y-17000000D03*
D15*
%TO.P,K3,5,COM_5*%
%TO.N,/I_+5V_HVIL_RETURN_A*%
X33675000Y-23000000D03*
%TD*%
D10*
%TO.P,H4,1*%
%TO.N,N/C*%
X85000000Y-39500000D03*
%TD*%
D25*
%TO.N,/+5V_A*%
X49750000Y-33500000D03*
X53000000Y-32500000D03*
X190000000Y-30325000D03*
X203500000Y-31500000D03*
X210000000Y-31000000D03*
X212000000Y-40000000D03*
%TO.N,/GND_A*%
X114250000Y-12250000D03*
X137500000Y-25500000D03*
X92000000Y-36750000D03*
X112300000Y-41000000D03*
X102150000Y-41000000D03*
X64250000Y-41750000D03*
X79250000Y-43750000D03*
X63000000Y-20500000D03*
X54500000Y-28250000D03*
X133000000Y-30000000D03*
X77000000Y-4250000D03*
X30500000Y-41650000D03*
X21500000Y-41650000D03*
X39500000Y-41650000D03*
X139000000Y-29500000D03*
X96000000Y-17250000D03*
X74500000Y-20250000D03*
X91750000Y-43750000D03*
X63250000Y-30500000D03*
X45750000Y-2250000D03*
X65500000Y-1750000D03*
X194500000Y-26500000D03*
X133150000Y-41000000D03*
X143300000Y-41000000D03*
X172780742Y-25642736D03*
X17500000Y-20400000D03*
X93250000Y-23750000D03*
X122650000Y-41000000D03*
X1250000Y-31250000D03*
X158000000Y-28000000D03*
X8000000Y-20650000D03*
X17300000Y-31000000D03*
X26500000Y-31000000D03*
X49500000Y-38250000D03*
X2250000Y-15250000D03*
X167500000Y-26500000D03*
X118250000Y-12250000D03*
X81750000Y-24500000D03*
X242150000Y-40500000D03*
X50500000Y-14250000D03*
X42000000Y-26000000D03*
X14250000Y-1500000D03*
X240150000Y-32000000D03*
X133000000Y-25500000D03*
X197500000Y-32500000D03*
X13750000Y-43250000D03*
X139500000Y-26000000D03*
X101250000Y-23750000D03*
X8000000Y-31000000D03*
X142000000Y-29000000D03*
X103750000Y-15750000D03*
X26500000Y-20400000D03*
X144500000Y-26000000D03*
X182500000Y-26500000D03*
%TO.N,/DOUT1_A*%
X192500000Y-31250000D03*
%TO.N,/DOUT2_A*%
X190400000Y-32000000D03*
%TO.N,/+12V_A*%
X8000000Y-15350000D03*
X127850000Y-41000000D03*
X245500000Y-29000000D03*
X117350000Y-41000000D03*
X26500000Y-15100000D03*
X234850000Y-32000000D03*
X107000000Y-41000000D03*
X138370840Y-41346854D03*
X17500000Y-15100000D03*
X96850000Y-41000000D03*
X236850000Y-40500000D03*
%TO.N,/VIN_FUSED_Z*%
X192250000Y-3500000D03*
%TO.N,/HALL_U_ENCODER_SIN_IN_A*%
X202000000Y-35000000D03*
X169500000Y-31500000D03*
%TO.N,/HALL_V_ENCODER_COS_IN_A*%
X199500000Y-36000000D03*
X167000000Y-32000000D03*
%TO.N,/HALL_W_IN_A*%
X199000000Y-37000000D03*
X165000000Y-33000000D03*
%TO.N,/THROTTLE1_IN_A*%
X134500000Y-35000000D03*
X134500000Y-25000000D03*
%TO.N,/THROTTLE2_IN_A*%
X130500000Y-25500000D03*
X130500000Y-35500000D03*
%TO.N,/DOUT3_A*%
X58000000Y-34750000D03*
X69000000Y-33500000D03*
X51500000Y-36000000D03*
X186250000Y-38750000D03*
%TO.N,/DOUT4_A*%
X68000000Y-32500000D03*
%TO.N,Net-(D3-A)*%
X187000000Y-9500000D03*
%TO.N,/+12V_SWITCHED_A*%
X103500000Y-22000000D03*
%TO.N,/CAN1_GND*%
X95000000Y-12500000D03*
%TO.N,/CAN1_+5V*%
X91000000Y-17000000D03*
X91000000Y-11000000D03*
%TO.N,/CAN1_SWITCHED_+5V*%
X67000000Y-13500000D03*
X124500000Y-10000000D03*
%TO.N,/DIN_2_W*%
X214500000Y-38000000D03*
X169500000Y-28000000D03*
X234000000Y-38000000D03*
X206000000Y-36000000D03*
%TO.N,/CAN2_JUMPER_A*%
X60500000Y-35500000D03*
X104000000Y-25500000D03*
X91500000Y-26000000D03*
X52000000Y-38500000D03*
X118500000Y-25500000D03*
%TO.N,/CAN2_JUMPER_B*%
X104000000Y-27500000D03*
X122500000Y-27500000D03*
X91500000Y-27500000D03*
%TO.N,/I_+5V_HVIL_RETURN_A*%
X130500000Y-8500000D03*
X66000000Y-12000000D03*
%TO.N,/DIN_1_W*%
X234000000Y-36500000D03*
X205500000Y-34500000D03*
X171500000Y-28000000D03*
X215500000Y-37000000D03*
%TO.N,/O_PRECHARGE_DC_LINK_+_Z*%
X231250000Y-11000000D03*
X231250000Y-25000000D03*
%TO.N,/CAN2_GND*%
X108000000Y-29000000D03*
%TO.N,/CAN2_LOW*%
X112500000Y-32000000D03*
%TO.N,/CAN2_HIGH*%
X116500000Y-30500000D03*
%TO.N,/CAN2_+5V*%
X121000000Y-33500000D03*
X77000000Y-44000000D03*
%TO.N,/GND_Z*%
X164000000Y-15500000D03*
%TD*%
%TO.N,/+5V_A*%
D26*
X30500000Y-28500000D02*
X30500000Y-36350000D01*
D27*
X210000000Y-31000000D02*
X204000000Y-31000000D01*
X227325000Y-42500000D02*
X225000000Y-42500000D01*
X209500000Y-42500000D02*
X207125000Y-42500000D01*
X212000000Y-40000000D02*
X209500000Y-42500000D01*
X204000000Y-31000000D02*
X203500000Y-31500000D01*
X225000000Y-42500000D02*
X222500000Y-40000000D01*
D26*
X27700000Y-25700000D02*
X30500000Y-28500000D01*
D27*
X47500000Y-33437500D02*
X42562500Y-33437500D01*
X42562500Y-33437500D02*
X39650000Y-36350000D01*
X39500000Y-36350000D02*
X21500000Y-36350000D01*
D26*
X140500000Y-14500000D02*
X140500000Y-22500000D01*
D27*
X222500000Y-40000000D02*
X212000000Y-40000000D01*
D26*
X8000000Y-25700000D02*
X26500000Y-25700000D01*
D27*
X207125000Y-42500000D02*
X206890000Y-42265000D01*
X47500000Y-33437500D02*
X49687500Y-33437500D01*
D28*
X202500000Y-32500000D02*
X203500000Y-31500000D01*
D27*
X39650000Y-36350000D02*
X39500000Y-36350000D01*
D26*
X26500000Y-25700000D02*
X27700000Y-25700000D01*
D27*
X53000000Y-32500000D02*
X53000000Y-33500000D01*
X49687500Y-33437500D02*
X49750000Y-33500000D01*
D28*
X201000000Y-32500000D02*
X202500000Y-32500000D01*
%TO.N,/GND_A*%
D26*
X197500000Y-32500000D02*
X199000000Y-32500000D01*
X52454595Y-37500000D02*
X50500000Y-37500000D01*
X142500000Y-18500000D02*
X142500000Y-11500000D01*
X142500000Y-11500000D02*
X142250000Y-11250000D01*
D27*
X47812500Y-36562500D02*
X49500000Y-38250000D01*
X47500000Y-36562500D02*
X47812500Y-36562500D01*
D26*
X53000000Y-36954595D02*
X52454595Y-37500000D01*
X53000000Y-35500000D02*
X53000000Y-36954595D01*
%TO.N,/DOUT1_A*%
X192750000Y-31000000D02*
X198150000Y-31000000D01*
X198150000Y-31000000D02*
X199000000Y-31850000D01*
X192500000Y-31250000D02*
X192750000Y-31000000D01*
%TO.N,/DOUT2_A*%
X198150000Y-34000000D02*
X199000000Y-33150000D01*
X191200000Y-34000000D02*
X198150000Y-34000000D01*
X190400000Y-33200000D02*
X191200000Y-34000000D01*
X190400000Y-32000000D02*
X190400000Y-33200000D01*
%TO.N,Net-(IC10-B2)*%
D28*
X209650000Y-33150000D02*
X212000000Y-35500000D01*
X223500000Y-35500000D02*
X227325000Y-31675000D01*
X227325000Y-31675000D02*
X227325000Y-30500000D01*
X212000000Y-35500000D02*
X223500000Y-35500000D01*
X201000000Y-33150000D02*
X209650000Y-33150000D01*
%TO.N,Net-(IC10-B1)*%
X201000000Y-28500000D02*
X201000000Y-31850000D01*
D27*
X189825000Y-15250000D02*
X190000000Y-15250000D01*
X190000000Y-15250000D02*
X201000000Y-26250000D01*
X201000000Y-26250000D02*
X201000000Y-28500000D01*
%TO.N,/+12V_A*%
X245315902Y-24120000D02*
X245315902Y-28815902D01*
X245315902Y-28815902D02*
X245500000Y-29000000D01*
%TO.N,/VIN_FUSED_Z*%
D29*
X190000000Y-2300000D02*
X191050000Y-2300000D01*
X195000000Y-17044098D02*
X195000000Y-12000000D01*
X195000000Y-6250000D02*
X195000000Y-12000000D01*
X191050000Y-2300000D02*
X195000000Y-6250000D01*
X180875000Y-12000000D02*
X177625000Y-15250000D01*
X195000000Y-12000000D02*
X180875000Y-12000000D01*
X199595902Y-21640000D02*
X195000000Y-17044098D01*
%TO.N,/HALL_U_ENCODER_SIN_IN_A*%
D26*
X136500000Y-30000000D02*
X137500000Y-31000000D01*
X202165000Y-35000000D02*
X202000000Y-35000000D01*
X137500000Y-31000000D02*
X169000000Y-31000000D01*
X206890000Y-39725000D02*
X202165000Y-35000000D01*
X136500000Y-22500000D02*
X136500000Y-30000000D01*
X169000000Y-31000000D02*
X169500000Y-31500000D01*
%TO.N,/HALL_V_ENCODER_COS_IN_A*%
X132500000Y-32000000D02*
X167000000Y-32000000D01*
X199500000Y-36000000D02*
X200625000Y-36000000D01*
X200625000Y-36000000D02*
X204350000Y-39725000D01*
X132500000Y-22500000D02*
X132000000Y-23000000D01*
X132000000Y-23000000D02*
X132000000Y-31500000D01*
X132000000Y-31500000D02*
X132500000Y-32000000D01*
%TO.N,/HALL_W_IN_A*%
X128500000Y-30750000D02*
X128500000Y-22500000D01*
X201810000Y-39725000D02*
X199085000Y-37000000D01*
X130750000Y-33000000D02*
X128500000Y-30750000D01*
X199085000Y-37000000D02*
X199000000Y-37000000D01*
X165000000Y-33000000D02*
X130750000Y-33000000D01*
%TO.N,/MOTOR_TEMP_IN_A*%
X124500000Y-28500000D02*
X124500000Y-22500000D01*
X189000000Y-35500000D02*
X185000000Y-31500000D01*
X130000000Y-34000000D02*
X124500000Y-28500000D01*
X185000000Y-31500000D02*
X176000000Y-31500000D01*
X176000000Y-31500000D02*
X173500000Y-34000000D01*
X173500000Y-34000000D02*
X130000000Y-34000000D01*
X195045000Y-35500000D02*
X189000000Y-35500000D01*
X199270000Y-39725000D02*
X195045000Y-35500000D01*
%TO.N,/THROTTLE1_IN_A*%
X174000000Y-35000000D02*
X134500000Y-35000000D01*
X196730000Y-39725000D02*
X193505000Y-36500000D01*
X176500000Y-32500000D02*
X174000000Y-35000000D01*
X188000000Y-36500000D02*
X184000000Y-32500000D01*
X184000000Y-32500000D02*
X176500000Y-32500000D01*
X134500000Y-21500000D02*
X134500000Y-25000000D01*
X132500000Y-14500000D02*
X132500000Y-19500000D01*
X132500000Y-19500000D02*
X134500000Y-21500000D01*
X193505000Y-36500000D02*
X188000000Y-36500000D01*
%TO.N,/THROTTLE2_IN_A*%
X131000000Y-36000000D02*
X174500000Y-36000000D01*
X130500000Y-21500000D02*
X130500000Y-25500000D01*
X128500000Y-19500000D02*
X130500000Y-21500000D01*
X130500000Y-35500000D02*
X131000000Y-36000000D01*
X187500000Y-37500000D02*
X193000000Y-37500000D01*
X194190000Y-38690000D02*
X194190000Y-39725000D01*
X128500000Y-14500000D02*
X128500000Y-19500000D01*
X174500000Y-36000000D02*
X177000000Y-33500000D01*
X193000000Y-37500000D02*
X194190000Y-38690000D01*
X183500000Y-33500000D02*
X187500000Y-37500000D01*
X177000000Y-33500000D02*
X183500000Y-33500000D01*
%TO.N,/DOUT3_A*%
X51850000Y-36000000D02*
X52350000Y-35500000D01*
X51500000Y-36000000D02*
X51850000Y-36000000D01*
X189085000Y-39750000D02*
X189110000Y-39725000D01*
X187250000Y-39750000D02*
X189085000Y-39750000D01*
X59250000Y-33500000D02*
X58000000Y-34750000D01*
X69000000Y-33500000D02*
X59250000Y-33500000D01*
X186250000Y-38750000D02*
X187250000Y-39750000D01*
%TO.N,/DOUT4_A*%
X56000000Y-35500000D02*
X53650000Y-35500000D01*
X59000000Y-32500000D02*
X56000000Y-35500000D01*
X68000000Y-32500000D02*
X59000000Y-32500000D01*
%TO.N,/I_+VIN_Z*%
D29*
X161300000Y-3450000D02*
X172500000Y-3450000D01*
X157750000Y-6750000D02*
X160750000Y-3750000D01*
X160750000Y-3750000D02*
X161000000Y-3750000D01*
X157750000Y-9250000D02*
X157750000Y-6750000D01*
X152500000Y-14500000D02*
X157750000Y-9250000D01*
X161000000Y-3750000D02*
X161300000Y-3450000D01*
%TO.N,Net-(D3-A)*%
X189700000Y-9500000D02*
X190000000Y-9200000D01*
X187000000Y-9500000D02*
X189700000Y-9500000D01*
%TO.N,Net-(IC11-B2)*%
D27*
X53700000Y-32975000D02*
X53700000Y-33500000D01*
X57675000Y-29000000D02*
X53700000Y-32975000D01*
%TO.N,/+12V_SWITCHED_A*%
X69875000Y-29000000D02*
X76875000Y-22000000D01*
X76875000Y-22000000D02*
X103500000Y-22000000D01*
%TO.N,/CAN1_GND*%
X81500000Y-12500000D02*
X95000000Y-12500000D01*
X62000000Y-3000000D02*
X72000000Y-3000000D01*
X56500000Y-2960000D02*
X58460000Y-1000000D01*
X60000000Y-1000000D02*
X62000000Y-3000000D01*
X58460000Y-1000000D02*
X60000000Y-1000000D01*
X72000000Y-3000000D02*
X81500000Y-12500000D01*
X108000000Y-14000000D02*
X108500000Y-14500000D01*
%TO.N,/CAN1_LOW*%
X71500000Y-6000000D02*
X81000000Y-15500000D01*
X112500000Y-11000000D02*
X112500000Y-14500000D01*
X81000000Y-15500000D02*
X101000000Y-15500000D01*
X59540000Y-6000000D02*
X71500000Y-6000000D01*
X107000000Y-9500000D02*
X111000000Y-9500000D01*
X111000000Y-9500000D02*
X112500000Y-11000000D01*
X59040000Y-5500000D02*
X59540000Y-6000000D01*
X101000000Y-15500000D02*
X107000000Y-9500000D01*
%TO.N,/CAN1_HIGH*%
X59040000Y-2960000D02*
X59960000Y-2960000D01*
X61500000Y-4500000D02*
X71750000Y-4500000D01*
X71750000Y-4500000D02*
X81250000Y-14000000D01*
X114500000Y-8000000D02*
X116500000Y-10000000D01*
X116500000Y-10000000D02*
X116500000Y-14500000D01*
X59960000Y-2960000D02*
X61500000Y-4500000D01*
X106000000Y-8000000D02*
X114500000Y-8000000D01*
X100000000Y-14000000D02*
X106000000Y-8000000D01*
X81250000Y-14000000D02*
X100000000Y-14000000D01*
%TO.N,/CAN1_+5V*%
X105000000Y-6500000D02*
X100500000Y-11000000D01*
X91000000Y-17000000D02*
X80500000Y-17000000D01*
X57000000Y-7500000D02*
X56500000Y-7000000D01*
X56500000Y-7000000D02*
X56500000Y-5500000D01*
X120500000Y-8000000D02*
X119000000Y-6500000D01*
X71000000Y-7500000D02*
X57000000Y-7500000D01*
X120500000Y-14500000D02*
X120500000Y-8000000D01*
X119000000Y-6500000D02*
X105000000Y-6500000D01*
X100500000Y-11000000D02*
X91000000Y-11000000D01*
X80500000Y-17000000D02*
X71000000Y-7500000D01*
%TO.N,/CAN1_SWITCHED_+5V*%
X51000000Y-27000000D02*
X49000000Y-29000000D01*
X67000000Y-13500000D02*
X55000000Y-13500000D01*
X55000000Y-13500000D02*
X51000000Y-17500000D01*
X49000000Y-29000000D02*
X47875000Y-29000000D01*
X51000000Y-17500000D02*
X51000000Y-27000000D01*
X124500000Y-14500000D02*
X124500000Y-10000000D01*
%TO.N,/DIN_2_W*%
D26*
X142500000Y-28000000D02*
X143500000Y-29000000D01*
X252500000Y-17000000D02*
X253350000Y-16150000D01*
X142500000Y-21500000D02*
X142500000Y-28000000D01*
X144500000Y-14500000D02*
X144500000Y-19500000D01*
X235500000Y-38000000D02*
X237000000Y-36500000D01*
X144500000Y-19500000D02*
X142500000Y-21500000D01*
X168500000Y-29000000D02*
X169500000Y-28000000D01*
X237000000Y-36500000D02*
X248000000Y-36500000D01*
X214500000Y-38000000D02*
X210000000Y-38000000D01*
X210000000Y-38000000D02*
X208000000Y-36000000D01*
X234000000Y-38000000D02*
X235500000Y-38000000D01*
X208000000Y-36000000D02*
X206000000Y-36000000D01*
X248000000Y-36500000D02*
X252500000Y-32000000D01*
X143500000Y-29000000D02*
X168500000Y-29000000D01*
X253350000Y-16150000D02*
X254725000Y-16150000D01*
X252500000Y-32000000D02*
X252500000Y-17000000D01*
%TO.N,/CAN1_JUMPER_A*%
D27*
X53960000Y-5500000D02*
X53960000Y-7960000D01*
X55000000Y-9000000D02*
X70500000Y-9000000D01*
X70500000Y-9000000D02*
X80000000Y-18500000D01*
X53960000Y-7960000D02*
X55000000Y-9000000D01*
X80000000Y-18500000D02*
X110500000Y-18500000D01*
%TO.N,/CAN1_JUMPER_B*%
X109000000Y-20000000D02*
X109500000Y-20500000D01*
X109500000Y-20500000D02*
X112500000Y-20500000D01*
X53960000Y-2960000D02*
X52040000Y-2960000D01*
X70000000Y-10500000D02*
X79500000Y-20000000D01*
X52500000Y-10500000D02*
X70000000Y-10500000D01*
X51500000Y-3500000D02*
X51500000Y-9500000D01*
X79500000Y-20000000D02*
X109000000Y-20000000D01*
X51500000Y-9500000D02*
X52500000Y-10500000D01*
X112500000Y-20500000D02*
X114500000Y-18500000D01*
X52040000Y-2960000D02*
X51500000Y-3500000D01*
%TO.N,/CAN2_JUMPER_A*%
X53960000Y-43000000D02*
X52000000Y-43000000D01*
X51500000Y-42500000D02*
X51500000Y-39000000D01*
X51500000Y-39000000D02*
X52000000Y-38500000D01*
X52000000Y-43000000D02*
X51500000Y-42500000D01*
X60500000Y-35500000D02*
X61000000Y-35000000D01*
X61000000Y-35000000D02*
X69500000Y-35000000D01*
X78500000Y-26000000D02*
X91500000Y-26000000D01*
X104000000Y-25500000D02*
X118500000Y-25500000D01*
X69500000Y-35000000D02*
X78500000Y-26000000D01*
%TO.N,/CAN2_JUMPER_B*%
X56500000Y-37000000D02*
X71500000Y-37000000D01*
X54000000Y-39500000D02*
X56500000Y-37000000D01*
X79000000Y-27500000D02*
X91500000Y-27500000D01*
X104000000Y-27500000D02*
X122500000Y-27500000D01*
X54000000Y-40420000D02*
X54000000Y-39500000D01*
X72000000Y-36500000D02*
X72000000Y-34500000D01*
X72000000Y-34500000D02*
X79000000Y-27500000D01*
X71500000Y-37000000D02*
X72000000Y-36500000D01*
X53960000Y-40460000D02*
X54000000Y-40420000D01*
%TO.N,/I_+5V_HVIL_RETURN_A*%
X44675000Y-12000000D02*
X33675000Y-23000000D01*
X66000000Y-12000000D02*
X44675000Y-12000000D01*
%TO.N,/DIN_1_W*%
D26*
X251500000Y-16000000D02*
X253890000Y-13610000D01*
X236500000Y-35500000D02*
X247500000Y-35500000D01*
X234000000Y-36500000D02*
X235500000Y-36500000D01*
X138500000Y-18500000D02*
X138500000Y-27000000D01*
X215500000Y-37000000D02*
X211000000Y-37000000D01*
X253890000Y-13610000D02*
X254725000Y-13610000D01*
X141500000Y-30000000D02*
X169500000Y-30000000D01*
X169500000Y-30000000D02*
X171500000Y-28000000D01*
X211000000Y-37000000D02*
X208500000Y-34500000D01*
X138500000Y-27000000D02*
X141500000Y-30000000D01*
X208500000Y-34500000D02*
X205500000Y-34500000D01*
X247500000Y-35500000D02*
X251500000Y-31500000D01*
X235500000Y-36500000D02*
X236500000Y-35500000D01*
X251500000Y-31500000D02*
X251500000Y-16000000D01*
%TO.N,/CAN2_GND*%
D27*
X73500000Y-35500000D02*
X80000000Y-29000000D01*
X57500000Y-38500000D02*
X72500000Y-38500000D01*
X56500000Y-39500000D02*
X57500000Y-38500000D01*
X73500000Y-37500000D02*
X73500000Y-35500000D01*
X80000000Y-29000000D02*
X108000000Y-29000000D01*
X72500000Y-38500000D02*
X73500000Y-37500000D01*
X56500000Y-40460000D02*
X56500000Y-39500000D01*
%TO.N,/CAN2_LOW*%
X59040000Y-43000000D02*
X75000000Y-43000000D01*
X75000000Y-43000000D02*
X76500000Y-41500000D01*
X76500000Y-36500000D02*
X81000000Y-32000000D01*
X81000000Y-32000000D02*
X112500000Y-32000000D01*
X76500000Y-41500000D02*
X76500000Y-36500000D01*
%TO.N,/CAN2_HIGH*%
X75000000Y-39500000D02*
X75000000Y-36000000D01*
X75000000Y-36000000D02*
X80500000Y-30500000D01*
X59040000Y-40460000D02*
X73960000Y-40460000D01*
X74000000Y-40500000D02*
X75000000Y-39500000D01*
X80500000Y-30500000D02*
X116500000Y-30500000D01*
X73960000Y-40460000D02*
X74000000Y-40500000D01*
%TO.N,/CAN2_+5V*%
D26*
X56500000Y-43000000D02*
X57825000Y-44325000D01*
X76675000Y-44325000D02*
X77000000Y-44000000D01*
D27*
X78000000Y-37000000D02*
X81500000Y-33500000D01*
D26*
X57825000Y-44325000D02*
X76675000Y-44325000D01*
D27*
X78000000Y-43000000D02*
X78000000Y-37000000D01*
X81500000Y-33500000D02*
X121000000Y-33500000D01*
X77000000Y-44000000D02*
X78000000Y-43000000D01*
%TO.N,/GND_Z*%
D29*
X157000000Y-22500000D02*
X152500000Y-22500000D01*
X164000000Y-15500000D02*
X157000000Y-22500000D01*
%TO.N,Net-(IC11-B1)*%
D27*
X38675000Y-32000000D02*
X50850000Y-32000000D01*
X50850000Y-32000000D02*
X52300000Y-33450000D01*
X35675000Y-29000000D02*
X38675000Y-32000000D01*
X52300000Y-33450000D02*
X52300000Y-33500000D01*
%TD*%
%TA.AperFunction,Conductor*%
%TO.N,/GND_A*%
G36*
X56958703Y-520185D02*
G01*
X57004458Y-572989D01*
X57014402Y-642147D01*
X56985377Y-705703D01*
X56979345Y-712181D01*
X56618345Y-1073181D01*
X56557022Y-1106666D01*
X56530664Y-1109500D01*
X56378711Y-1109500D01*
X56138214Y-1141161D01*
X55903895Y-1203947D01*
X55679794Y-1296773D01*
X55679785Y-1296777D01*
X55469706Y-1418067D01*
X55305486Y-1544077D01*
X55240317Y-1569271D01*
X55171872Y-1555232D01*
X55154514Y-1544077D01*
X54990293Y-1418067D01*
X54990292Y-1418066D01*
X54990289Y-1418064D01*
X54780212Y-1296776D01*
X54725291Y-1274027D01*
X54556104Y-1203947D01*
X54321785Y-1141161D01*
X54081289Y-1109500D01*
X54081288Y-1109500D01*
X53838712Y-1109500D01*
X53838711Y-1109500D01*
X53598214Y-1141161D01*
X53363895Y-1203947D01*
X53139794Y-1296773D01*
X53139785Y-1296777D01*
X52929706Y-1418067D01*
X52737264Y-1565732D01*
X52709461Y-1593536D01*
X52629814Y-1673182D01*
X52568494Y-1706666D01*
X52542135Y-1709500D01*
X51941578Y-1709500D01*
X51747172Y-1740291D01*
X51686348Y-1760053D01*
X51686348Y-1760054D01*
X51643103Y-1774105D01*
X51559970Y-1801117D01*
X51403941Y-1880619D01*
X51403940Y-1880618D01*
X51384599Y-1890474D01*
X51384590Y-1890478D01*
X51265307Y-1977144D01*
X51225354Y-2006172D01*
X51225352Y-2006174D01*
X51225351Y-2006174D01*
X50546174Y-2685351D01*
X50546174Y-2685352D01*
X50546172Y-2685354D01*
X50544238Y-2688016D01*
X50430476Y-2844594D01*
X50341117Y-3019969D01*
X50304526Y-3132587D01*
X50280290Y-3207173D01*
X50249500Y-3401577D01*
X50249500Y-9598422D01*
X50280290Y-9792826D01*
X50341117Y-9980030D01*
X50403444Y-10102352D01*
X50430476Y-10155405D01*
X50546172Y-10314646D01*
X50546174Y-10314648D01*
X50769345Y-10537819D01*
X50802830Y-10599142D01*
X50797846Y-10668834D01*
X50755974Y-10724767D01*
X50690510Y-10749184D01*
X50681664Y-10749500D01*
X44576578Y-10749500D01*
X44382173Y-10780290D01*
X44194969Y-10841117D01*
X44019594Y-10930476D01*
X43928741Y-10996485D01*
X43860354Y-11046172D01*
X43860352Y-11046174D01*
X43860351Y-11046174D01*
X37628265Y-17278259D01*
X37566942Y-17311744D01*
X37497250Y-17306760D01*
X37441317Y-17264888D01*
X37416900Y-17199424D01*
X37417644Y-17174399D01*
X37425500Y-17114734D01*
X37425500Y-16885266D01*
X37395548Y-16657762D01*
X37336158Y-16436113D01*
X37248344Y-16224112D01*
X37133611Y-16025388D01*
X37133608Y-16025385D01*
X37133607Y-16025382D01*
X36993918Y-15843338D01*
X36993911Y-15843330D01*
X36831670Y-15681089D01*
X36831661Y-15681081D01*
X36649617Y-15541392D01*
X36450890Y-15426657D01*
X36450876Y-15426650D01*
X36238887Y-15338842D01*
X36205119Y-15329794D01*
X36017238Y-15279452D01*
X35979215Y-15274446D01*
X35789741Y-15249500D01*
X35789734Y-15249500D01*
X35560266Y-15249500D01*
X35560258Y-15249500D01*
X35343715Y-15278009D01*
X35332762Y-15279452D01*
X35239076Y-15304554D01*
X35111112Y-15338842D01*
X34899123Y-15426650D01*
X34899109Y-15426657D01*
X34700382Y-15541392D01*
X34518338Y-15681081D01*
X34356081Y-15843338D01*
X34216392Y-16025382D01*
X34101657Y-16224109D01*
X34101650Y-16224123D01*
X34013842Y-16436112D01*
X33981897Y-16555333D01*
X33957735Y-16645512D01*
X33954453Y-16657759D01*
X33954451Y-16657770D01*
X33924500Y-16885258D01*
X33924500Y-17114741D01*
X33944268Y-17264888D01*
X33954452Y-17342238D01*
X33987952Y-17467262D01*
X34013842Y-17563887D01*
X34101650Y-17775876D01*
X34101657Y-17775890D01*
X34144733Y-17850500D01*
X34196231Y-17939698D01*
X34216392Y-17974617D01*
X34356081Y-18156661D01*
X34356089Y-18156670D01*
X34518330Y-18318911D01*
X34518338Y-18318918D01*
X34518339Y-18318919D01*
X34540044Y-18335574D01*
X34700382Y-18458607D01*
X34700385Y-18458608D01*
X34700388Y-18458611D01*
X34899112Y-18573344D01*
X34899117Y-18573346D01*
X34899123Y-18573349D01*
X34990480Y-18611190D01*
X35111113Y-18661158D01*
X35332762Y-18720548D01*
X35560266Y-18750500D01*
X35560273Y-18750500D01*
X35789727Y-18750500D01*
X35789734Y-18750500D01*
X35849394Y-18742645D01*
X35918426Y-18753410D01*
X35970683Y-18799789D01*
X35989569Y-18867058D01*
X35969089Y-18933858D01*
X35953259Y-18953265D01*
X33916243Y-20990281D01*
X33854920Y-21023766D01*
X33812381Y-21025540D01*
X33804481Y-21024500D01*
X33545519Y-21024500D01*
X33545513Y-21024500D01*
X33545508Y-21024501D01*
X33288782Y-21058299D01*
X33288775Y-21058300D01*
X33288772Y-21058301D01*
X33235908Y-21072465D01*
X33038635Y-21125324D01*
X32799390Y-21224423D01*
X32799380Y-21224427D01*
X32575116Y-21353906D01*
X32369668Y-21511551D01*
X32369661Y-21511557D01*
X32186557Y-21694661D01*
X32186551Y-21694668D01*
X32028906Y-21900116D01*
X31899427Y-22124380D01*
X31899423Y-22124390D01*
X31800324Y-22363635D01*
X31733302Y-22613769D01*
X31733299Y-22613782D01*
X31699501Y-22870508D01*
X31699500Y-22870525D01*
X31699500Y-23129474D01*
X31699501Y-23129491D01*
X31733299Y-23386217D01*
X31733300Y-23386222D01*
X31733301Y-23386228D01*
X31747548Y-23439398D01*
X31800324Y-23636364D01*
X31899423Y-23875609D01*
X31899427Y-23875619D01*
X32028906Y-24099883D01*
X32186551Y-24305331D01*
X32186557Y-24305338D01*
X32369661Y-24488442D01*
X32369668Y-24488448D01*
X32575116Y-24646093D01*
X32799380Y-24775572D01*
X32799381Y-24775572D01*
X32799384Y-24775574D01*
X33038634Y-24874675D01*
X33288772Y-24941699D01*
X33545519Y-24975500D01*
X33545526Y-24975500D01*
X33804474Y-24975500D01*
X33804481Y-24975500D01*
X34061228Y-24941699D01*
X34311366Y-24874675D01*
X34550616Y-24775574D01*
X34774884Y-24646093D01*
X34980333Y-24488447D01*
X35163447Y-24305333D01*
X35321093Y-24099884D01*
X35450574Y-23875616D01*
X35549675Y-23636366D01*
X35616699Y-23386228D01*
X35650500Y-23129481D01*
X35650500Y-22870519D01*
X35649460Y-22862621D01*
X35660224Y-22793588D01*
X35684715Y-22758757D01*
X45156655Y-13286819D01*
X45217978Y-13253334D01*
X45244336Y-13250500D01*
X53181664Y-13250500D01*
X53248703Y-13270185D01*
X53294458Y-13322989D01*
X53304402Y-13392147D01*
X53275377Y-13455703D01*
X53269345Y-13462181D01*
X50046174Y-16685351D01*
X50046169Y-16685357D01*
X50042566Y-16690317D01*
X49987235Y-16732981D01*
X49917622Y-16738959D01*
X49855828Y-16706351D01*
X49821472Y-16645512D01*
X49819311Y-16633613D01*
X49816700Y-16613783D01*
X49816700Y-16613782D01*
X49816699Y-16613772D01*
X49749675Y-16363634D01*
X49650574Y-16124384D01*
X49633588Y-16094964D01*
X49521093Y-15900116D01*
X49363448Y-15694668D01*
X49363442Y-15694661D01*
X49180338Y-15511557D01*
X49180331Y-15511551D01*
X48974883Y-15353906D01*
X48750619Y-15224427D01*
X48750609Y-15224423D01*
X48511364Y-15125324D01*
X48386297Y-15091813D01*
X48261228Y-15058301D01*
X48261222Y-15058300D01*
X48261217Y-15058299D01*
X48004491Y-15024501D01*
X48004486Y-15024500D01*
X48004481Y-15024500D01*
X47745519Y-15024500D01*
X47745513Y-15024500D01*
X47745508Y-15024501D01*
X47488782Y-15058299D01*
X47488775Y-15058300D01*
X47488772Y-15058301D01*
X47439315Y-15071553D01*
X47238635Y-15125324D01*
X46999390Y-15224423D01*
X46999380Y-15224427D01*
X46775116Y-15353906D01*
X46569668Y-15511551D01*
X46569661Y-15511557D01*
X46386557Y-15694661D01*
X46386551Y-15694668D01*
X46228906Y-15900116D01*
X46099427Y-16124380D01*
X46099423Y-16124390D01*
X46000324Y-16363635D01*
X45933302Y-16613769D01*
X45933299Y-16613782D01*
X45899501Y-16870508D01*
X45899500Y-16870525D01*
X45899500Y-17129474D01*
X45899501Y-17129491D01*
X45933299Y-17386217D01*
X45933300Y-17386222D01*
X45933301Y-17386228D01*
X45966813Y-17511297D01*
X46000324Y-17636364D01*
X46099423Y-17875609D01*
X46099427Y-17875619D01*
X46228906Y-18099883D01*
X46386551Y-18305331D01*
X46386557Y-18305338D01*
X46569661Y-18488442D01*
X46569668Y-18488448D01*
X46775116Y-18646093D01*
X46999380Y-18775572D01*
X46999381Y-18775572D01*
X46999384Y-18775574D01*
X47238634Y-18874675D01*
X47488772Y-18941699D01*
X47745519Y-18975500D01*
X47745526Y-18975500D01*
X48004474Y-18975500D01*
X48004481Y-18975500D01*
X48261228Y-18941699D01*
X48511366Y-18874675D01*
X48750616Y-18775574D01*
X48974884Y-18646093D01*
X49180333Y-18488447D01*
X49363447Y-18305333D01*
X49521093Y-18099884D01*
X49521101Y-18099869D01*
X49522397Y-18097932D01*
X49522937Y-18097479D01*
X49523564Y-18096664D01*
X49523746Y-18096804D01*
X49576009Y-18053127D01*
X49645334Y-18044419D01*
X49708362Y-18074573D01*
X49745081Y-18134015D01*
X49749500Y-18166822D01*
X49749500Y-26430663D01*
X49729815Y-26497702D01*
X49713181Y-26518344D01*
X48980500Y-27251025D01*
X48919177Y-27284510D01*
X48849485Y-27279526D01*
X48830819Y-27270731D01*
X48750619Y-27224427D01*
X48750609Y-27224423D01*
X48511364Y-27125324D01*
X48386297Y-27091813D01*
X48261228Y-27058301D01*
X48261222Y-27058300D01*
X48261217Y-27058299D01*
X48004491Y-27024501D01*
X48004486Y-27024500D01*
X48004481Y-27024500D01*
X47745519Y-27024500D01*
X47745513Y-27024500D01*
X47745508Y-27024501D01*
X47488782Y-27058299D01*
X47488775Y-27058300D01*
X47488772Y-27058301D01*
X47435908Y-27072465D01*
X47238635Y-27125324D01*
X46999390Y-27224423D01*
X46999380Y-27224427D01*
X46775116Y-27353906D01*
X46569668Y-27511551D01*
X46569661Y-27511557D01*
X46386557Y-27694661D01*
X46386551Y-27694668D01*
X46228906Y-27900116D01*
X46099427Y-28124380D01*
X46099423Y-28124390D01*
X46000324Y-28363635D01*
X45977049Y-28450500D01*
X45935003Y-28607422D01*
X45933302Y-28613769D01*
X45933299Y-28613782D01*
X45899501Y-28870508D01*
X45899500Y-28870525D01*
X45899500Y-29129474D01*
X45899501Y-29129491D01*
X45933299Y-29386217D01*
X45933300Y-29386222D01*
X45933301Y-29386228D01*
X45957834Y-29477786D01*
X46000324Y-29636364D01*
X46099423Y-29875609D01*
X46099427Y-29875619D01*
X46228906Y-30099883D01*
X46386551Y-30305331D01*
X46386557Y-30305338D01*
X46569661Y-30488442D01*
X46569665Y-30488445D01*
X46569667Y-30488447D01*
X46612860Y-30521590D01*
X46620072Y-30527124D01*
X46661274Y-30583552D01*
X46665429Y-30653298D01*
X46631217Y-30714219D01*
X46569499Y-30746971D01*
X46544585Y-30749500D01*
X39244336Y-30749500D01*
X39177297Y-30729815D01*
X39156655Y-30713181D01*
X37461818Y-29018344D01*
X37428333Y-28957021D01*
X37425499Y-28930663D01*
X37425499Y-28191964D01*
X37419491Y-28124380D01*
X37414886Y-28072582D01*
X37361603Y-27886366D01*
X37358910Y-27876954D01*
X37358909Y-27876953D01*
X37358909Y-27876951D01*
X37264698Y-27696593D01*
X37205240Y-27623674D01*
X37136109Y-27538890D01*
X36978409Y-27410304D01*
X36978410Y-27410304D01*
X36978407Y-27410302D01*
X36798049Y-27316091D01*
X36798048Y-27316090D01*
X36798045Y-27316089D01*
X36670260Y-27279526D01*
X36602418Y-27260114D01*
X36602415Y-27260113D01*
X36602413Y-27260113D01*
X36536102Y-27254217D01*
X36483037Y-27249500D01*
X36483032Y-27249500D01*
X34866971Y-27249500D01*
X34866965Y-27249500D01*
X34866964Y-27249501D01*
X34855316Y-27250536D01*
X34747584Y-27260113D01*
X34551954Y-27316089D01*
X34479558Y-27353906D01*
X34371593Y-27410302D01*
X34371591Y-27410303D01*
X34371590Y-27410304D01*
X34213890Y-27538890D01*
X34085304Y-27696590D01*
X34085302Y-27696593D01*
X34057831Y-27749184D01*
X33991089Y-27876954D01*
X33954907Y-28003407D01*
X33936498Y-28067747D01*
X33935114Y-28072583D01*
X33935113Y-28072586D01*
X33924500Y-28191964D01*
X33924500Y-29808028D01*
X33924500Y-29808033D01*
X33924501Y-29808036D01*
X33925937Y-29824184D01*
X33935113Y-29927415D01*
X33991089Y-30123045D01*
X33991090Y-30123048D01*
X33991091Y-30123049D01*
X34085302Y-30303407D01*
X34086877Y-30305338D01*
X34213890Y-30461109D01*
X34271440Y-30508034D01*
X34371593Y-30589698D01*
X34551951Y-30683909D01*
X34747582Y-30739886D01*
X34866963Y-30750500D01*
X35605663Y-30750499D01*
X35672702Y-30770183D01*
X35693344Y-30786818D01*
X37860355Y-32953829D01*
X38019595Y-33069524D01*
X38194974Y-33158884D01*
X38343592Y-33207173D01*
X38382174Y-33219709D01*
X38414575Y-33224840D01*
X38576578Y-33250500D01*
X38576583Y-33250500D01*
X38576584Y-33250500D01*
X38773417Y-33250500D01*
X40681663Y-33250500D01*
X40748702Y-33270185D01*
X40794457Y-33322989D01*
X40804401Y-33392147D01*
X40775376Y-33455703D01*
X40769351Y-33462173D01*
X40693996Y-33537529D01*
X40660822Y-33570703D01*
X40599499Y-33604187D01*
X40562161Y-33606534D01*
X40507264Y-33601654D01*
X40483037Y-33599500D01*
X40483033Y-33599500D01*
X38516971Y-33599500D01*
X38516965Y-33599500D01*
X38516964Y-33599501D01*
X38505316Y-33600536D01*
X38397584Y-33610113D01*
X38201954Y-33666089D01*
X38111772Y-33713196D01*
X38021593Y-33760302D01*
X38021591Y-33760303D01*
X38021590Y-33760304D01*
X37863890Y-33888890D01*
X37753565Y-34024195D01*
X37735302Y-34046593D01*
X37700198Y-34113797D01*
X37641089Y-34226954D01*
X37585113Y-34422584D01*
X37574500Y-34541966D01*
X37574500Y-34975500D01*
X37554815Y-35042539D01*
X37502011Y-35088294D01*
X37450500Y-35099500D01*
X32549499Y-35099500D01*
X32482460Y-35079815D01*
X32436705Y-35027011D01*
X32425499Y-34975500D01*
X32425499Y-34541971D01*
X32425499Y-34541964D01*
X32414886Y-34422582D01*
X32358909Y-34226951D01*
X32264698Y-34046593D01*
X32198810Y-33965788D01*
X32136109Y-33888890D01*
X32018295Y-33792826D01*
X31978407Y-33760302D01*
X31798049Y-33666091D01*
X31798048Y-33666090D01*
X31798043Y-33666088D01*
X31765387Y-33656744D01*
X31706349Y-33619376D01*
X31676887Y-33556022D01*
X31675500Y-33537529D01*
X31675500Y-28407486D01*
X31666377Y-28349884D01*
X31646555Y-28224736D01*
X31635907Y-28191964D01*
X31618136Y-28137270D01*
X31589381Y-28048769D01*
X31589379Y-28048763D01*
X31528747Y-27929768D01*
X31505378Y-27883904D01*
X31396621Y-27734213D01*
X28465787Y-24803379D01*
X28462342Y-24799934D01*
X28463907Y-24798368D01*
X28430756Y-24747528D01*
X28425499Y-24711805D01*
X28425499Y-23891971D01*
X28425499Y-23891964D01*
X28414886Y-23772582D01*
X28358909Y-23576951D01*
X28264698Y-23396593D01*
X28185529Y-23299500D01*
X28136109Y-23238890D01*
X28001928Y-23129481D01*
X27978407Y-23110302D01*
X27798049Y-23016091D01*
X27798048Y-23016090D01*
X27798045Y-23016089D01*
X27680829Y-22982550D01*
X27602418Y-22960114D01*
X27602415Y-22960113D01*
X27602413Y-22960113D01*
X27536102Y-22954217D01*
X27483037Y-22949500D01*
X27483032Y-22949500D01*
X25516971Y-22949500D01*
X25516965Y-22949500D01*
X25516964Y-22949501D01*
X25505316Y-22950536D01*
X25397584Y-22960113D01*
X25201954Y-23016089D01*
X25111772Y-23063196D01*
X25021593Y-23110302D01*
X25021591Y-23110303D01*
X25021590Y-23110304D01*
X24863890Y-23238890D01*
X24735304Y-23396590D01*
X24735302Y-23396593D01*
X24712943Y-23439398D01*
X24641089Y-23576954D01*
X24606025Y-23699500D01*
X24589437Y-23757476D01*
X24585114Y-23772583D01*
X24585113Y-23772586D01*
X24584157Y-23783343D01*
X24575954Y-23875616D01*
X24574500Y-23891966D01*
X24574500Y-24400500D01*
X24554815Y-24467539D01*
X24502011Y-24513294D01*
X24450500Y-24524500D01*
X19349499Y-24524500D01*
X19282460Y-24504815D01*
X19236705Y-24452011D01*
X19225499Y-24400500D01*
X19225499Y-23891971D01*
X19225499Y-23891964D01*
X19214886Y-23772582D01*
X19158909Y-23576951D01*
X19064698Y-23396593D01*
X18985529Y-23299500D01*
X18936109Y-23238890D01*
X18801928Y-23129481D01*
X18778407Y-23110302D01*
X18598049Y-23016091D01*
X18598048Y-23016090D01*
X18598045Y-23016089D01*
X18480829Y-22982550D01*
X18402418Y-22960114D01*
X18402415Y-22960113D01*
X18402413Y-22960113D01*
X18336102Y-22954217D01*
X18283037Y-22949500D01*
X18283032Y-22949500D01*
X16316971Y-22949500D01*
X16316965Y-22949500D01*
X16316964Y-22949501D01*
X16305316Y-22950536D01*
X16197584Y-22960113D01*
X16001954Y-23016089D01*
X15911772Y-23063196D01*
X15821593Y-23110302D01*
X15821591Y-23110303D01*
X15821590Y-23110304D01*
X15663890Y-23238890D01*
X15535304Y-23396590D01*
X15535302Y-23396593D01*
X15512943Y-23439398D01*
X15441089Y-23576954D01*
X15406025Y-23699500D01*
X15389437Y-23757476D01*
X15385114Y-23772583D01*
X15385113Y-23772586D01*
X15384157Y-23783343D01*
X15375954Y-23875616D01*
X15374500Y-23891966D01*
X15374500Y-24400500D01*
X15354815Y-24467539D01*
X15302011Y-24513294D01*
X15250500Y-24524500D01*
X10049499Y-24524500D01*
X9982460Y-24504815D01*
X9936705Y-24452011D01*
X9925499Y-24400500D01*
X9925499Y-23891971D01*
X9925499Y-23891964D01*
X9914886Y-23772582D01*
X9858909Y-23576951D01*
X9764698Y-23396593D01*
X9685529Y-23299500D01*
X9636109Y-23238890D01*
X9501928Y-23129481D01*
X9478407Y-23110302D01*
X9298049Y-23016091D01*
X9298048Y-23016090D01*
X9298045Y-23016089D01*
X9180829Y-22982550D01*
X9102418Y-22960114D01*
X9102415Y-22960113D01*
X9102413Y-22960113D01*
X9036102Y-22954217D01*
X8983037Y-22949500D01*
X8983032Y-22949500D01*
X7016971Y-22949500D01*
X7016965Y-22949500D01*
X7016964Y-22949501D01*
X7005316Y-22950536D01*
X6897584Y-22960113D01*
X6701954Y-23016089D01*
X6611772Y-23063196D01*
X6521593Y-23110302D01*
X6521591Y-23110303D01*
X6521590Y-23110304D01*
X6363890Y-23238890D01*
X6235304Y-23396590D01*
X6235302Y-23396593D01*
X6212943Y-23439398D01*
X6141089Y-23576954D01*
X6106025Y-23699500D01*
X6089437Y-23757476D01*
X6085114Y-23772583D01*
X6085113Y-23772586D01*
X6084157Y-23783343D01*
X6075954Y-23875616D01*
X6074500Y-23891966D01*
X6074500Y-27508028D01*
X6074501Y-27508031D01*
X6074501Y-27508036D01*
X6075135Y-27515168D01*
X6085113Y-27627415D01*
X6141089Y-27823045D01*
X6141090Y-27823048D01*
X6141091Y-27823049D01*
X6235302Y-28003407D01*
X6256813Y-28029788D01*
X6363890Y-28161109D01*
X6457803Y-28237684D01*
X6521593Y-28289698D01*
X6701951Y-28383909D01*
X6897582Y-28439886D01*
X7016963Y-28450500D01*
X8983036Y-28450499D01*
X9102418Y-28439886D01*
X9298049Y-28383909D01*
X9478407Y-28289698D01*
X9636109Y-28161109D01*
X9764698Y-28003407D01*
X9858909Y-27823049D01*
X9914886Y-27627418D01*
X9925500Y-27508037D01*
X9925500Y-26999500D01*
X9945185Y-26932461D01*
X9997989Y-26886706D01*
X10049500Y-26875500D01*
X15250501Y-26875500D01*
X15317540Y-26895185D01*
X15363295Y-26947989D01*
X15374501Y-26999500D01*
X15374501Y-27508036D01*
X15375135Y-27515168D01*
X15385113Y-27627415D01*
X15441089Y-27823045D01*
X15441090Y-27823048D01*
X15441091Y-27823049D01*
X15535302Y-28003407D01*
X15556813Y-28029788D01*
X15663890Y-28161109D01*
X15757803Y-28237684D01*
X15821593Y-28289698D01*
X16001951Y-28383909D01*
X16197582Y-28439886D01*
X16316963Y-28450500D01*
X18283036Y-28450499D01*
X18402418Y-28439886D01*
X18598049Y-28383909D01*
X18778407Y-28289698D01*
X18936109Y-28161109D01*
X19064698Y-28003407D01*
X19158909Y-27823049D01*
X19214886Y-27627418D01*
X19225500Y-27508037D01*
X19225500Y-26999500D01*
X19245185Y-26932461D01*
X19297989Y-26886706D01*
X19349500Y-26875500D01*
X24450501Y-26875500D01*
X24517540Y-26895185D01*
X24563295Y-26947989D01*
X24574501Y-26999500D01*
X24574501Y-27508036D01*
X24575135Y-27515168D01*
X24585113Y-27627415D01*
X24641089Y-27823045D01*
X24641090Y-27823048D01*
X24641091Y-27823049D01*
X24735302Y-28003407D01*
X24756813Y-28029788D01*
X24863890Y-28161109D01*
X24957803Y-28237684D01*
X25021593Y-28289698D01*
X25201951Y-28383909D01*
X25397582Y-28439886D01*
X25516963Y-28450500D01*
X27483036Y-28450499D01*
X27602418Y-28439886D01*
X27798049Y-28383909D01*
X27978407Y-28289698D01*
X28136109Y-28161109D01*
X28212237Y-28067744D01*
X28269855Y-28028229D01*
X28339693Y-28026137D01*
X28396018Y-28058426D01*
X29288181Y-28950589D01*
X29321666Y-29011912D01*
X29324500Y-29038270D01*
X29324500Y-33537529D01*
X29304815Y-33604568D01*
X29252011Y-33650323D01*
X29234613Y-33656744D01*
X29201956Y-33666088D01*
X29116683Y-33710631D01*
X29021593Y-33760302D01*
X29021591Y-33760303D01*
X29021590Y-33760304D01*
X28863890Y-33888890D01*
X28753565Y-34024195D01*
X28735302Y-34046593D01*
X28700198Y-34113797D01*
X28641089Y-34226954D01*
X28585113Y-34422584D01*
X28574500Y-34541966D01*
X28574500Y-34975500D01*
X28554815Y-35042539D01*
X28502011Y-35088294D01*
X28450500Y-35099500D01*
X23549499Y-35099500D01*
X23482460Y-35079815D01*
X23436705Y-35027011D01*
X23425499Y-34975500D01*
X23425499Y-34541971D01*
X23425499Y-34541964D01*
X23414886Y-34422582D01*
X23358909Y-34226951D01*
X23264698Y-34046593D01*
X23198810Y-33965788D01*
X23136109Y-33888890D01*
X23018295Y-33792826D01*
X22978407Y-33760302D01*
X22798049Y-33666091D01*
X22798048Y-33666090D01*
X22798045Y-33666089D01*
X22675499Y-33631025D01*
X22602418Y-33610114D01*
X22602415Y-33610113D01*
X22602413Y-33610113D01*
X22535754Y-33604187D01*
X22483037Y-33599500D01*
X22483032Y-33599500D01*
X20516971Y-33599500D01*
X20516965Y-33599500D01*
X20516964Y-33599501D01*
X20505316Y-33600536D01*
X20397584Y-33610113D01*
X20201954Y-33666089D01*
X20111772Y-33713196D01*
X20021593Y-33760302D01*
X20021591Y-33760303D01*
X20021590Y-33760304D01*
X19863890Y-33888890D01*
X19753565Y-34024195D01*
X19735302Y-34046593D01*
X19700198Y-34113797D01*
X19641089Y-34226954D01*
X19585113Y-34422584D01*
X19574500Y-34541966D01*
X19574500Y-38158028D01*
X19574501Y-38158031D01*
X19574501Y-38158036D01*
X19575022Y-38163891D01*
X19585113Y-38277415D01*
X19641089Y-38473045D01*
X19641090Y-38473048D01*
X19641091Y-38473049D01*
X19735302Y-38653407D01*
X19735304Y-38653409D01*
X19863890Y-38811109D01*
X19928623Y-38863891D01*
X20021593Y-38939698D01*
X20201951Y-39033909D01*
X20397582Y-39089886D01*
X20516963Y-39100500D01*
X22483036Y-39100499D01*
X22602418Y-39089886D01*
X22798049Y-39033909D01*
X22978407Y-38939698D01*
X23136109Y-38811109D01*
X23264698Y-38653407D01*
X23358909Y-38473049D01*
X23414886Y-38277418D01*
X23425500Y-38158037D01*
X23425500Y-37724500D01*
X23445185Y-37657461D01*
X23497989Y-37611706D01*
X23549500Y-37600500D01*
X28450501Y-37600500D01*
X28517540Y-37620185D01*
X28563295Y-37672989D01*
X28574501Y-37724500D01*
X28574501Y-38158036D01*
X28575022Y-38163891D01*
X28585113Y-38277415D01*
X28641089Y-38473045D01*
X28641090Y-38473048D01*
X28641091Y-38473049D01*
X28735302Y-38653407D01*
X28735304Y-38653409D01*
X28863890Y-38811109D01*
X28928623Y-38863891D01*
X29021593Y-38939698D01*
X29201951Y-39033909D01*
X29397582Y-39089886D01*
X29516963Y-39100500D01*
X31483036Y-39100499D01*
X31602418Y-39089886D01*
X31798049Y-39033909D01*
X31978407Y-38939698D01*
X32136109Y-38811109D01*
X32264698Y-38653407D01*
X32358909Y-38473049D01*
X32414886Y-38277418D01*
X32425500Y-38158037D01*
X32425500Y-37724500D01*
X32445185Y-37657461D01*
X32497989Y-37611706D01*
X32549500Y-37600500D01*
X37450501Y-37600500D01*
X37517540Y-37620185D01*
X37563295Y-37672989D01*
X37574501Y-37724500D01*
X37574501Y-38158036D01*
X37575022Y-38163891D01*
X37585113Y-38277415D01*
X37641089Y-38473045D01*
X37641090Y-38473048D01*
X37641091Y-38473049D01*
X37735302Y-38653407D01*
X37735304Y-38653409D01*
X37863890Y-38811109D01*
X37928623Y-38863891D01*
X38021593Y-38939698D01*
X38201951Y-39033909D01*
X38397582Y-39089886D01*
X38516963Y-39100500D01*
X40483036Y-39100499D01*
X40602418Y-39089886D01*
X40798049Y-39033909D01*
X40978407Y-38939698D01*
X41136109Y-38811109D01*
X41264698Y-38653407D01*
X41358909Y-38473049D01*
X41414886Y-38277418D01*
X41425500Y-38158037D01*
X41425499Y-36394334D01*
X41445184Y-36327296D01*
X41461813Y-36306659D01*
X43044155Y-34724319D01*
X43105478Y-34690834D01*
X43131836Y-34688000D01*
X45418165Y-34688000D01*
X45485204Y-34707685D01*
X45505846Y-34724319D01*
X45595346Y-34813819D01*
X45595350Y-34813822D01*
X45595354Y-34813825D01*
X45647385Y-34849872D01*
X45780374Y-34942007D01*
X45985317Y-35035096D01*
X45985321Y-35035097D01*
X46203579Y-35090094D01*
X46203581Y-35090094D01*
X46203588Y-35090096D01*
X46335783Y-35100500D01*
X48664216Y-35100499D01*
X48796412Y-35090096D01*
X49014683Y-35035096D01*
X49219626Y-34942007D01*
X49404654Y-34813819D01*
X49404691Y-34813781D01*
X49404710Y-34813771D01*
X49408923Y-34810254D01*
X49409620Y-34811089D01*
X49466008Y-34780290D01*
X49511779Y-34778980D01*
X49558830Y-34786432D01*
X49647648Y-34800500D01*
X49647649Y-34800500D01*
X49852351Y-34800500D01*
X49852352Y-34800500D01*
X50054534Y-34768477D01*
X50249219Y-34705220D01*
X50431610Y-34612287D01*
X50524590Y-34544732D01*
X50597213Y-34491971D01*
X50597215Y-34491968D01*
X50597219Y-34491966D01*
X50741966Y-34347219D01*
X50741968Y-34347215D01*
X50741971Y-34347213D01*
X50829524Y-34226705D01*
X50862287Y-34181610D01*
X50920107Y-34068131D01*
X50939420Y-34047682D01*
X50956281Y-34025160D01*
X50963090Y-34022620D01*
X50968080Y-34017337D01*
X50995384Y-34010574D01*
X51021745Y-34000743D01*
X51028846Y-34002287D01*
X51035901Y-34000541D01*
X51062528Y-34009615D01*
X51090018Y-34015595D01*
X51098324Y-34021813D01*
X51102036Y-34023078D01*
X51118272Y-34036746D01*
X51118625Y-34037099D01*
X51152110Y-34098422D01*
X51154457Y-34113797D01*
X51160113Y-34177414D01*
X51160113Y-34177415D01*
X51160114Y-34177418D01*
X51201664Y-34322628D01*
X51216090Y-34373046D01*
X51216090Y-34373048D01*
X51252415Y-34442590D01*
X51252745Y-34444257D01*
X51253894Y-34445514D01*
X51259517Y-34478406D01*
X51266006Y-34511125D01*
X51265474Y-34513244D01*
X51265669Y-34514385D01*
X51263074Y-34522807D01*
X51256627Y-34548501D01*
X51254695Y-34553045D01*
X51216091Y-34626951D01*
X51201263Y-34678768D01*
X51198271Y-34685811D01*
X51180759Y-34707138D01*
X51165998Y-34730460D01*
X51157758Y-34735150D01*
X51153933Y-34739810D01*
X51143871Y-34743056D01*
X51122469Y-34755241D01*
X51000776Y-34794781D01*
X50818386Y-34887715D01*
X50652786Y-35008028D01*
X50508028Y-35152786D01*
X50387715Y-35318386D01*
X50294781Y-35500776D01*
X50231522Y-35695465D01*
X50199500Y-35897648D01*
X50199500Y-36102351D01*
X50231522Y-36304534D01*
X50294781Y-36499223D01*
X50352391Y-36612287D01*
X50387159Y-36680523D01*
X50387715Y-36681613D01*
X50508028Y-36847213D01*
X50652786Y-36991971D01*
X50807749Y-37104556D01*
X50818390Y-37112287D01*
X51000781Y-37205220D01*
X51138600Y-37250000D01*
X51162350Y-37257717D01*
X51220026Y-37297155D01*
X51247224Y-37361513D01*
X51235309Y-37430360D01*
X51196918Y-37475966D01*
X51152782Y-37508032D01*
X51008028Y-37652786D01*
X50887714Y-37818386D01*
X50870216Y-37852726D01*
X50847416Y-37884107D01*
X50546171Y-38185355D01*
X50430476Y-38344594D01*
X50341117Y-38519969D01*
X50329795Y-38554815D01*
X50312563Y-38607853D01*
X50309884Y-38616097D01*
X50280290Y-38707173D01*
X50249500Y-38901577D01*
X50249500Y-42598422D01*
X50280290Y-42792826D01*
X50341117Y-42980030D01*
X50401439Y-43098417D01*
X50430476Y-43155405D01*
X50546172Y-43314646D01*
X50546174Y-43314648D01*
X51185355Y-43953830D01*
X51185360Y-43953834D01*
X51324250Y-44054742D01*
X51344595Y-44069524D01*
X51434828Y-44115500D01*
X51519969Y-44158882D01*
X51519971Y-44158882D01*
X51519974Y-44158884D01*
X51620318Y-44191487D01*
X51707173Y-44219709D01*
X51901578Y-44250500D01*
X51901583Y-44250500D01*
X51901584Y-44250500D01*
X52098417Y-44250500D01*
X52115304Y-44250500D01*
X52129327Y-44254617D01*
X52143924Y-44253848D01*
X52162179Y-44264264D01*
X52182343Y-44270185D01*
X52193003Y-44281851D01*
X52204610Y-44288474D01*
X52225229Y-44317119D01*
X52225751Y-44318119D01*
X52239323Y-44386658D01*
X52213686Y-44451654D01*
X52156979Y-44492472D01*
X52115826Y-44499500D01*
X8783746Y-44499500D01*
X8716707Y-44479815D01*
X8670952Y-44427011D01*
X8661008Y-44357853D01*
X8690033Y-44294297D01*
X8710861Y-44275182D01*
X8867801Y-44161158D01*
X9062847Y-44019449D01*
X9139679Y-43953829D01*
X9377243Y-43750930D01*
X9406456Y-43725980D01*
X9725980Y-43406456D01*
X9956660Y-43136364D01*
X10019433Y-43062866D01*
X10019435Y-43062863D01*
X10019449Y-43062847D01*
X10285055Y-42697272D01*
X10521160Y-42311984D01*
X10726307Y-41909360D01*
X10899232Y-41491882D01*
X10900951Y-41486593D01*
X10908685Y-41462788D01*
X11038869Y-41062123D01*
X11144357Y-40622733D01*
X11215046Y-40176420D01*
X11250500Y-39725938D01*
X11250500Y-39274062D01*
X11215046Y-38823580D01*
X11144357Y-38377267D01*
X11038869Y-37937877D01*
X10911144Y-37544780D01*
X10899234Y-37508123D01*
X10896191Y-37500776D01*
X10726307Y-37090640D01*
X10521160Y-36688016D01*
X10521154Y-36688007D01*
X10521152Y-36688002D01*
X10521149Y-36687997D01*
X10285061Y-36302737D01*
X10285057Y-36302732D01*
X10285055Y-36302728D01*
X10019449Y-35937153D01*
X10019444Y-35937147D01*
X10019433Y-35937133D01*
X9725996Y-35593562D01*
X9725987Y-35593552D01*
X9725980Y-35593544D01*
X9406456Y-35274020D01*
X9406448Y-35274013D01*
X9406437Y-35274003D01*
X9062866Y-34980566D01*
X9062845Y-34980550D01*
X9026974Y-34954488D01*
X8841818Y-34819964D01*
X8697272Y-34714945D01*
X8697269Y-34714943D01*
X8697262Y-34714938D01*
X8312002Y-34478850D01*
X8311997Y-34478847D01*
X8311987Y-34478842D01*
X8311984Y-34478840D01*
X7909360Y-34273693D01*
X7773927Y-34217595D01*
X7491876Y-34100765D01*
X7170913Y-33996479D01*
X7062123Y-33961131D01*
X6622733Y-33855643D01*
X6622727Y-33855642D01*
X6176429Y-33784955D01*
X6176420Y-33784954D01*
X6176418Y-33784953D01*
X6176410Y-33784953D01*
X5725943Y-33749500D01*
X5725938Y-33749500D01*
X5274062Y-33749500D01*
X5274056Y-33749500D01*
X4823589Y-33784953D01*
X4823570Y-33784955D01*
X4377272Y-33855642D01*
X4377269Y-33855642D01*
X4377267Y-33855643D01*
X4238783Y-33888890D01*
X3937888Y-33961128D01*
X3937882Y-33961129D01*
X3937877Y-33961131D01*
X3937865Y-33961135D01*
X3508123Y-34100765D01*
X3090642Y-34273692D01*
X3090640Y-34273693D01*
X3070590Y-34283909D01*
X2688002Y-34478847D01*
X2687997Y-34478850D01*
X2302737Y-34714938D01*
X2302726Y-34714946D01*
X1937160Y-34980545D01*
X1937133Y-34980566D01*
X1593562Y-35274003D01*
X1593536Y-35274027D01*
X1274027Y-35593536D01*
X1274003Y-35593562D01*
X980566Y-35937133D01*
X980545Y-35937160D01*
X724818Y-36289139D01*
X669488Y-36331805D01*
X599875Y-36337784D01*
X538080Y-36305178D01*
X503723Y-36244340D01*
X500500Y-36216254D01*
X500500Y-13541966D01*
X6074500Y-13541966D01*
X6074500Y-17158028D01*
X6074501Y-17158034D01*
X6085113Y-17277415D01*
X6141089Y-17473045D01*
X6141090Y-17473048D01*
X6141091Y-17473049D01*
X6235302Y-17653407D01*
X6264891Y-17689695D01*
X6363890Y-17811109D01*
X6443006Y-17875619D01*
X6521593Y-17939698D01*
X6701951Y-18033909D01*
X6897582Y-18089886D01*
X7016963Y-18100500D01*
X8983036Y-18100499D01*
X9102418Y-18089886D01*
X9298049Y-18033909D01*
X9478407Y-17939698D01*
X9636109Y-17811109D01*
X9764698Y-17653407D01*
X9858909Y-17473049D01*
X9914886Y-17277418D01*
X9925500Y-17158037D01*
X9925499Y-13541964D01*
X9914886Y-13422582D01*
X9877512Y-13291966D01*
X15574500Y-13291966D01*
X15574500Y-16908028D01*
X15574500Y-16908033D01*
X15574501Y-16908036D01*
X15575583Y-16920208D01*
X15585113Y-17027415D01*
X15641089Y-17223045D01*
X15641090Y-17223048D01*
X15641091Y-17223049D01*
X15735302Y-17403407D01*
X15735304Y-17403409D01*
X15863890Y-17561109D01*
X15956184Y-17636364D01*
X16021593Y-17689698D01*
X16201951Y-17783909D01*
X16397582Y-17839886D01*
X16516963Y-17850500D01*
X18483036Y-17850499D01*
X18602418Y-17839886D01*
X18798049Y-17783909D01*
X18978407Y-17689698D01*
X19136109Y-17561109D01*
X19264698Y-17403407D01*
X19358909Y-17223049D01*
X19414886Y-17027418D01*
X19425500Y-16908037D01*
X19425499Y-13291966D01*
X24574500Y-13291966D01*
X24574500Y-16908028D01*
X24574500Y-16908033D01*
X24574501Y-16908036D01*
X24575583Y-16920208D01*
X24585113Y-17027415D01*
X24641089Y-17223045D01*
X24641090Y-17223048D01*
X24641091Y-17223049D01*
X24735302Y-17403407D01*
X24735304Y-17403409D01*
X24863890Y-17561109D01*
X24956184Y-17636364D01*
X25021593Y-17689698D01*
X25201951Y-17783909D01*
X25397582Y-17839886D01*
X25516963Y-17850500D01*
X27483036Y-17850499D01*
X27602418Y-17839886D01*
X27798049Y-17783909D01*
X27978407Y-17689698D01*
X28136109Y-17561109D01*
X28264698Y-17403407D01*
X28358909Y-17223049D01*
X28414886Y-17027418D01*
X28425500Y-16908037D01*
X28425499Y-13291964D01*
X28414886Y-13172582D01*
X28358909Y-12976951D01*
X28264698Y-12796593D01*
X28199472Y-12716600D01*
X28136109Y-12638890D01*
X27978409Y-12510304D01*
X27978410Y-12510304D01*
X27978407Y-12510302D01*
X27798049Y-12416091D01*
X27798048Y-12416090D01*
X27798045Y-12416089D01*
X27680829Y-12382550D01*
X27602418Y-12360114D01*
X27602415Y-12360113D01*
X27602413Y-12360113D01*
X27536102Y-12354217D01*
X27483037Y-12349500D01*
X27483032Y-12349500D01*
X25516971Y-12349500D01*
X25516965Y-12349500D01*
X25516964Y-12349501D01*
X25505316Y-12350536D01*
X25397584Y-12360113D01*
X25201954Y-12416089D01*
X25113716Y-12462181D01*
X25021593Y-12510302D01*
X25021591Y-12510303D01*
X25021590Y-12510304D01*
X24863890Y-12638890D01*
X24735304Y-12796590D01*
X24735302Y-12796593D01*
X24688196Y-12886772D01*
X24641089Y-12976954D01*
X24585114Y-13172583D01*
X24585113Y-13172586D01*
X24583079Y-13195466D01*
X24574958Y-13286819D01*
X24574500Y-13291966D01*
X19425499Y-13291966D01*
X19425499Y-13291964D01*
X19414886Y-13172582D01*
X19358909Y-12976951D01*
X19264698Y-12796593D01*
X19199472Y-12716600D01*
X19136109Y-12638890D01*
X18978409Y-12510304D01*
X18978410Y-12510304D01*
X18978407Y-12510302D01*
X18798049Y-12416091D01*
X18798048Y-12416090D01*
X18798045Y-12416089D01*
X18680829Y-12382550D01*
X18602418Y-12360114D01*
X18602415Y-12360113D01*
X18602413Y-12360113D01*
X18536102Y-12354217D01*
X18483037Y-12349500D01*
X18483032Y-12349500D01*
X16516971Y-12349500D01*
X16516965Y-12349500D01*
X16516964Y-12349501D01*
X16505316Y-12350536D01*
X16397584Y-12360113D01*
X16201954Y-12416089D01*
X16113716Y-12462181D01*
X16021593Y-12510302D01*
X16021591Y-12510303D01*
X16021590Y-12510304D01*
X15863890Y-12638890D01*
X15735304Y-12796590D01*
X15735302Y-12796593D01*
X15688196Y-12886772D01*
X15641089Y-12976954D01*
X15585114Y-13172583D01*
X15585113Y-13172586D01*
X15583079Y-13195466D01*
X15574958Y-13286819D01*
X15574500Y-13291966D01*
X9877512Y-13291966D01*
X9858909Y-13226951D01*
X9764698Y-13046593D01*
X9696611Y-12963091D01*
X9636109Y-12888890D01*
X9478409Y-12760304D01*
X9478410Y-12760304D01*
X9478407Y-12760302D01*
X9298049Y-12666091D01*
X9298048Y-12666090D01*
X9298045Y-12666089D01*
X9180829Y-12632550D01*
X9102418Y-12610114D01*
X9102415Y-12610113D01*
X9102413Y-12610113D01*
X9036102Y-12604217D01*
X8983037Y-12599500D01*
X8983032Y-12599500D01*
X7016971Y-12599500D01*
X7016965Y-12599500D01*
X7016964Y-12599501D01*
X7005316Y-12600536D01*
X6897584Y-12610113D01*
X6701954Y-12666089D01*
X6633272Y-12701966D01*
X6521593Y-12760302D01*
X6521591Y-12760303D01*
X6521590Y-12760304D01*
X6363890Y-12888890D01*
X6235304Y-13046590D01*
X6235302Y-13046593D01*
X6199070Y-13115955D01*
X6141089Y-13226954D01*
X6085114Y-13422583D01*
X6085113Y-13422586D01*
X6074500Y-13541966D01*
X500500Y-13541966D01*
X500500Y-8783745D01*
X520185Y-8716706D01*
X572989Y-8670951D01*
X642147Y-8661007D01*
X705703Y-8690032D01*
X724814Y-8710856D01*
X903665Y-8957022D01*
X980545Y-9062839D01*
X980566Y-9062866D01*
X1274003Y-9406437D01*
X1274013Y-9406448D01*
X1274020Y-9406456D01*
X1593544Y-9725980D01*
X1593552Y-9725987D01*
X1593562Y-9725996D01*
X1937133Y-10019433D01*
X1937147Y-10019444D01*
X1937153Y-10019449D01*
X2302728Y-10285055D01*
X2302732Y-10285057D01*
X2302737Y-10285061D01*
X2687997Y-10521149D01*
X2688002Y-10521152D01*
X2688007Y-10521154D01*
X2688016Y-10521160D01*
X3090640Y-10726307D01*
X3504294Y-10897648D01*
X3508123Y-10899234D01*
X3604277Y-10930476D01*
X3937877Y-11038869D01*
X4377267Y-11144357D01*
X4823580Y-11215046D01*
X5274062Y-11250500D01*
X5274070Y-11250500D01*
X5725930Y-11250500D01*
X5725938Y-11250500D01*
X6176420Y-11215046D01*
X6622733Y-11144357D01*
X7062123Y-11038869D01*
X7491882Y-10899232D01*
X7909360Y-10726307D01*
X8311984Y-10521160D01*
X8313915Y-10519977D01*
X8575200Y-10359861D01*
X8697272Y-10285055D01*
X9062847Y-10019449D01*
X9076213Y-10008034D01*
X9356698Y-9768477D01*
X9406456Y-9725980D01*
X9725980Y-9406456D01*
X9945656Y-9149248D01*
X10019433Y-9062866D01*
X10019435Y-9062863D01*
X10019449Y-9062847D01*
X10285055Y-8697272D01*
X10521160Y-8311984D01*
X10726307Y-7909360D01*
X10899232Y-7491882D01*
X11038869Y-7062123D01*
X11144357Y-6622733D01*
X11215046Y-6176420D01*
X11250500Y-5725938D01*
X11250500Y-5274062D01*
X11215046Y-4823580D01*
X11144357Y-4377267D01*
X11038869Y-3937877D01*
X10899232Y-3508118D01*
X10726307Y-3090640D01*
X10521160Y-2688016D01*
X10521154Y-2688007D01*
X10521152Y-2688002D01*
X10521149Y-2687997D01*
X10285061Y-2302737D01*
X10285057Y-2302732D01*
X10285055Y-2302728D01*
X10019449Y-1937153D01*
X10019444Y-1937147D01*
X10019433Y-1937133D01*
X9725996Y-1593562D01*
X9725987Y-1593552D01*
X9725980Y-1593544D01*
X9406456Y-1274020D01*
X9406448Y-1274013D01*
X9406437Y-1274003D01*
X9062866Y-980566D01*
X9062839Y-980545D01*
X8710861Y-724818D01*
X8668195Y-669488D01*
X8662216Y-599875D01*
X8694822Y-538080D01*
X8755660Y-503723D01*
X8783746Y-500500D01*
X56891664Y-500500D01*
X56958703Y-520185D01*
G37*
%TD.AperFunction*%
%TA.AperFunction,Conductor*%
G36*
X79455703Y-41103058D02*
G01*
X79492429Y-41158451D01*
X79517207Y-41234706D01*
X79600765Y-41491876D01*
X79696961Y-41724112D01*
X79773693Y-41909360D01*
X79954745Y-42264695D01*
X79978847Y-42311997D01*
X79978850Y-42312002D01*
X80214938Y-42697262D01*
X80214946Y-42697273D01*
X80480545Y-43062839D01*
X80480566Y-43062866D01*
X80774003Y-43406437D01*
X80774013Y-43406448D01*
X80774020Y-43406456D01*
X81093544Y-43725980D01*
X81093552Y-43725987D01*
X81093562Y-43725996D01*
X81437133Y-44019433D01*
X81437147Y-44019444D01*
X81437153Y-44019449D01*
X81437160Y-44019454D01*
X81789139Y-44275182D01*
X81831805Y-44330512D01*
X81837784Y-44400125D01*
X81805178Y-44461920D01*
X81744340Y-44496277D01*
X81716254Y-44499500D01*
X78568336Y-44499500D01*
X78501297Y-44479815D01*
X78455542Y-44427011D01*
X78445598Y-44357853D01*
X78474623Y-44294297D01*
X78480655Y-44287819D01*
X78698953Y-44069521D01*
X78953829Y-43814645D01*
X79069524Y-43655405D01*
X79158884Y-43480025D01*
X79219709Y-43292826D01*
X79242409Y-43149500D01*
X79250500Y-43098417D01*
X79250500Y-41196771D01*
X79270185Y-41129732D01*
X79322989Y-41083977D01*
X79392147Y-41074033D01*
X79455703Y-41103058D01*
G37*
%TD.AperFunction*%
%TA.AperFunction,Conductor*%
G36*
X123226182Y-28609369D02*
G01*
X123233327Y-28608028D01*
X123259392Y-28618607D01*
X123286495Y-28626146D01*
X123291333Y-28631570D01*
X123298067Y-28634304D01*
X123314275Y-28657295D01*
X123333000Y-28678291D01*
X123336065Y-28688204D01*
X123338325Y-28691410D01*
X123343426Y-28712010D01*
X123353445Y-28775265D01*
X123410619Y-28951233D01*
X123410620Y-28951236D01*
X123472361Y-29072407D01*
X123494622Y-29116096D01*
X123603379Y-29265787D01*
X123603381Y-29265789D01*
X129234214Y-34896622D01*
X129237705Y-34899158D01*
X129280372Y-34954488D01*
X129286351Y-35024101D01*
X129282752Y-35037795D01*
X129231523Y-35195461D01*
X129231523Y-35195464D01*
X129199500Y-35397648D01*
X129199500Y-35602351D01*
X129231522Y-35804534D01*
X129294781Y-35999223D01*
X129299271Y-36008034D01*
X129384154Y-36174626D01*
X129387715Y-36181613D01*
X129508028Y-36347213D01*
X129652786Y-36491971D01*
X129807749Y-36604556D01*
X129818390Y-36612287D01*
X130000781Y-36705220D01*
X130034728Y-36716249D01*
X130084092Y-36746500D01*
X130234213Y-36896621D01*
X130383904Y-37005378D01*
X130451088Y-37039610D01*
X130548763Y-37089379D01*
X130548769Y-37089381D01*
X130684777Y-37133572D01*
X130684778Y-37133572D01*
X130724736Y-37146555D01*
X130907486Y-37175500D01*
X130907487Y-37175500D01*
X174552963Y-37175500D01*
X174620002Y-37195185D01*
X174665757Y-37247989D01*
X174675701Y-37317147D01*
X174667524Y-37346952D01*
X174600767Y-37508118D01*
X174461135Y-37937865D01*
X174461128Y-37937888D01*
X174408277Y-38158031D01*
X174357557Y-38369297D01*
X174355642Y-38377272D01*
X174284955Y-38823570D01*
X174284953Y-38823589D01*
X174249500Y-39274056D01*
X174249500Y-39725943D01*
X174284953Y-40176410D01*
X174284955Y-40176429D01*
X174317767Y-40383596D01*
X174355643Y-40622733D01*
X174461131Y-41062123D01*
X174498460Y-41177011D01*
X174600765Y-41491876D01*
X174696961Y-41724112D01*
X174773693Y-41909360D01*
X174954745Y-42264695D01*
X174978847Y-42311997D01*
X174978850Y-42312002D01*
X175214938Y-42697262D01*
X175214946Y-42697273D01*
X175480545Y-43062839D01*
X175480566Y-43062866D01*
X175774003Y-43406437D01*
X175774013Y-43406448D01*
X175774020Y-43406456D01*
X176093544Y-43725980D01*
X176093552Y-43725987D01*
X176093562Y-43725996D01*
X176437133Y-44019433D01*
X176437147Y-44019444D01*
X176437153Y-44019449D01*
X176437160Y-44019454D01*
X176789139Y-44275182D01*
X176831805Y-44330512D01*
X176837784Y-44400125D01*
X176805178Y-44461920D01*
X176744340Y-44496277D01*
X176716254Y-44499500D01*
X88283746Y-44499500D01*
X88216707Y-44479815D01*
X88170952Y-44427011D01*
X88161008Y-44357853D01*
X88190033Y-44294297D01*
X88210861Y-44275182D01*
X88367801Y-44161158D01*
X88562847Y-44019449D01*
X88639679Y-43953829D01*
X88877243Y-43750930D01*
X88906456Y-43725980D01*
X89225980Y-43406456D01*
X89456660Y-43136364D01*
X89519433Y-43062866D01*
X89519435Y-43062863D01*
X89519449Y-43062847D01*
X89785055Y-42697272D01*
X90021160Y-42311984D01*
X90226307Y-41909360D01*
X90399232Y-41491882D01*
X90400951Y-41486593D01*
X90408685Y-41462788D01*
X90538869Y-41062123D01*
X90644357Y-40622733D01*
X90715046Y-40176420D01*
X90727595Y-40016971D01*
X90727595Y-40016966D01*
X94099500Y-40016966D01*
X94099500Y-41983028D01*
X94099501Y-41983034D01*
X94110113Y-42102415D01*
X94166089Y-42298045D01*
X94166090Y-42298048D01*
X94166091Y-42298049D01*
X94260302Y-42478407D01*
X94260304Y-42478409D01*
X94388890Y-42636109D01*
X94463903Y-42697273D01*
X94546593Y-42764698D01*
X94726951Y-42858909D01*
X94922582Y-42914886D01*
X95041963Y-42925500D01*
X98658036Y-42925499D01*
X98777418Y-42914886D01*
X98973049Y-42858909D01*
X99153407Y-42764698D01*
X99311109Y-42636109D01*
X99439698Y-42478407D01*
X99533909Y-42298049D01*
X99589886Y-42102418D01*
X99600500Y-41983037D01*
X99600499Y-40016966D01*
X104249500Y-40016966D01*
X104249500Y-41983028D01*
X104249501Y-41983034D01*
X104260113Y-42102415D01*
X104316089Y-42298045D01*
X104316090Y-42298048D01*
X104316091Y-42298049D01*
X104410302Y-42478407D01*
X104410304Y-42478409D01*
X104538890Y-42636109D01*
X104613903Y-42697273D01*
X104696593Y-42764698D01*
X104876951Y-42858909D01*
X105072582Y-42914886D01*
X105191963Y-42925500D01*
X108808036Y-42925499D01*
X108927418Y-42914886D01*
X109123049Y-42858909D01*
X109303407Y-42764698D01*
X109461109Y-42636109D01*
X109589698Y-42478407D01*
X109683909Y-42298049D01*
X109739886Y-42102418D01*
X109750500Y-41983037D01*
X109750499Y-40016966D01*
X114599500Y-40016966D01*
X114599500Y-41983028D01*
X114599501Y-41983034D01*
X114610113Y-42102415D01*
X114666089Y-42298045D01*
X114666090Y-42298048D01*
X114666091Y-42298049D01*
X114760302Y-42478407D01*
X114760304Y-42478409D01*
X114888890Y-42636109D01*
X114963903Y-42697273D01*
X115046593Y-42764698D01*
X115226951Y-42858909D01*
X115422582Y-42914886D01*
X115541963Y-42925500D01*
X119158036Y-42925499D01*
X119277418Y-42914886D01*
X119473049Y-42858909D01*
X119653407Y-42764698D01*
X119811109Y-42636109D01*
X119939698Y-42478407D01*
X120033909Y-42298049D01*
X120089886Y-42102418D01*
X120100500Y-41983037D01*
X120100499Y-40016966D01*
X125099500Y-40016966D01*
X125099500Y-41983028D01*
X125099501Y-41983034D01*
X125110113Y-42102415D01*
X125166089Y-42298045D01*
X125166090Y-42298048D01*
X125166091Y-42298049D01*
X125260302Y-42478407D01*
X125260304Y-42478409D01*
X125388890Y-42636109D01*
X125463903Y-42697273D01*
X125546593Y-42764698D01*
X125726951Y-42858909D01*
X125922582Y-42914886D01*
X126041963Y-42925500D01*
X129658036Y-42925499D01*
X129777418Y-42914886D01*
X129973049Y-42858909D01*
X130153407Y-42764698D01*
X130311109Y-42636109D01*
X130439698Y-42478407D01*
X130533909Y-42298049D01*
X130589886Y-42102418D01*
X130600500Y-41983037D01*
X130600499Y-40016966D01*
X135249500Y-40016966D01*
X135249500Y-41983028D01*
X135249501Y-41983034D01*
X135260113Y-42102415D01*
X135316089Y-42298045D01*
X135316090Y-42298048D01*
X135316091Y-42298049D01*
X135410302Y-42478407D01*
X135410304Y-42478409D01*
X135538890Y-42636109D01*
X135613903Y-42697273D01*
X135696593Y-42764698D01*
X135876951Y-42858909D01*
X136072582Y-42914886D01*
X136191963Y-42925500D01*
X139808036Y-42925499D01*
X139927418Y-42914886D01*
X140123049Y-42858909D01*
X140303407Y-42764698D01*
X140461109Y-42636109D01*
X140589698Y-42478407D01*
X140683909Y-42298049D01*
X140739886Y-42102418D01*
X140750500Y-41983037D01*
X140750499Y-41091966D01*
X146719500Y-41091966D01*
X146719500Y-42908028D01*
X146719501Y-42908034D01*
X146730113Y-43027415D01*
X146786089Y-43223045D01*
X146786090Y-43223048D01*
X146786091Y-43223049D01*
X146880302Y-43403407D01*
X146880304Y-43403409D01*
X147008890Y-43561109D01*
X147082720Y-43621309D01*
X147166593Y-43689698D01*
X147346951Y-43783909D01*
X147542582Y-43839886D01*
X147661963Y-43850500D01*
X149478036Y-43850499D01*
X149597418Y-43839886D01*
X149793049Y-43783909D01*
X149973407Y-43689698D01*
X150057279Y-43621308D01*
X150121674Y-43594199D01*
X150190504Y-43606208D01*
X150197639Y-43610023D01*
X150289777Y-43663218D01*
X150289780Y-43663219D01*
X150289788Y-43663224D01*
X150485269Y-43744195D01*
X150501529Y-43750930D01*
X150513900Y-43756054D01*
X150748211Y-43818838D01*
X150928586Y-43842584D01*
X150988711Y-43850500D01*
X150988712Y-43850500D01*
X151231289Y-43850500D01*
X151279388Y-43844167D01*
X151471789Y-43818838D01*
X151706100Y-43756054D01*
X151930212Y-43663224D01*
X152140289Y-43541936D01*
X152304514Y-43415922D01*
X152369683Y-43390728D01*
X152438128Y-43404766D01*
X152455486Y-43415922D01*
X152619711Y-43541936D01*
X152829788Y-43663224D01*
X153025269Y-43744195D01*
X153041529Y-43750930D01*
X153053900Y-43756054D01*
X153288211Y-43818838D01*
X153468586Y-43842584D01*
X153528711Y-43850500D01*
X153528712Y-43850500D01*
X153771289Y-43850500D01*
X153819388Y-43844167D01*
X154011789Y-43818838D01*
X154246100Y-43756054D01*
X154470212Y-43663224D01*
X154680289Y-43541936D01*
X154844514Y-43415922D01*
X154909683Y-43390728D01*
X154978128Y-43404766D01*
X154995486Y-43415922D01*
X155159711Y-43541936D01*
X155369788Y-43663224D01*
X155565269Y-43744195D01*
X155581529Y-43750930D01*
X155593900Y-43756054D01*
X155828211Y-43818838D01*
X156008586Y-43842584D01*
X156068711Y-43850500D01*
X156068712Y-43850500D01*
X156311289Y-43850500D01*
X156359388Y-43844167D01*
X156551789Y-43818838D01*
X156786100Y-43756054D01*
X157010212Y-43663224D01*
X157220289Y-43541936D01*
X157384514Y-43415922D01*
X157449683Y-43390728D01*
X157518128Y-43404766D01*
X157535486Y-43415922D01*
X157699711Y-43541936D01*
X157909788Y-43663224D01*
X158105269Y-43744195D01*
X158121529Y-43750930D01*
X158133900Y-43756054D01*
X158368211Y-43818838D01*
X158548586Y-43842584D01*
X158608711Y-43850500D01*
X158608712Y-43850500D01*
X158851289Y-43850500D01*
X158899388Y-43844167D01*
X159091789Y-43818838D01*
X159326100Y-43756054D01*
X159550212Y-43663224D01*
X159760289Y-43541936D01*
X159924514Y-43415922D01*
X159989683Y-43390728D01*
X160058128Y-43404766D01*
X160075486Y-43415922D01*
X160239711Y-43541936D01*
X160449788Y-43663224D01*
X160645269Y-43744195D01*
X160661529Y-43750930D01*
X160673900Y-43756054D01*
X160908211Y-43818838D01*
X161088586Y-43842584D01*
X161148711Y-43850500D01*
X161148712Y-43850500D01*
X161391289Y-43850500D01*
X161439388Y-43844167D01*
X161631789Y-43818838D01*
X161866100Y-43756054D01*
X162090212Y-43663224D01*
X162300289Y-43541936D01*
X162464514Y-43415922D01*
X162529683Y-43390728D01*
X162598128Y-43404766D01*
X162615486Y-43415922D01*
X162779711Y-43541936D01*
X162989788Y-43663224D01*
X163185269Y-43744195D01*
X163201529Y-43750930D01*
X163213900Y-43756054D01*
X163448211Y-43818838D01*
X163628586Y-43842584D01*
X163688711Y-43850500D01*
X163688712Y-43850500D01*
X163931289Y-43850500D01*
X163979388Y-43844167D01*
X164171789Y-43818838D01*
X164406100Y-43756054D01*
X164630212Y-43663224D01*
X164840289Y-43541936D01*
X165004514Y-43415922D01*
X165069683Y-43390728D01*
X165138128Y-43404766D01*
X165155486Y-43415922D01*
X165319711Y-43541936D01*
X165529788Y-43663224D01*
X165725269Y-43744195D01*
X165741529Y-43750930D01*
X165753900Y-43756054D01*
X165988211Y-43818838D01*
X166168586Y-43842584D01*
X166228711Y-43850500D01*
X166228712Y-43850500D01*
X166471289Y-43850500D01*
X166519388Y-43844167D01*
X166711789Y-43818838D01*
X166946100Y-43756054D01*
X167170212Y-43663224D01*
X167380289Y-43541936D01*
X167544514Y-43415922D01*
X167609683Y-43390728D01*
X167678128Y-43404766D01*
X167695486Y-43415922D01*
X167859711Y-43541936D01*
X168069788Y-43663224D01*
X168265269Y-43744195D01*
X168281529Y-43750930D01*
X168293900Y-43756054D01*
X168528211Y-43818838D01*
X168708586Y-43842584D01*
X168768711Y-43850500D01*
X168768712Y-43850500D01*
X169011289Y-43850500D01*
X169059388Y-43844167D01*
X169251789Y-43818838D01*
X169486100Y-43756054D01*
X169710212Y-43663224D01*
X169920289Y-43541936D01*
X170084514Y-43415922D01*
X170149683Y-43390728D01*
X170218128Y-43404766D01*
X170235486Y-43415922D01*
X170399711Y-43541936D01*
X170609788Y-43663224D01*
X170805269Y-43744195D01*
X170821529Y-43750930D01*
X170833900Y-43756054D01*
X171068211Y-43818838D01*
X171248586Y-43842584D01*
X171308711Y-43850500D01*
X171308712Y-43850500D01*
X171551289Y-43850500D01*
X171599388Y-43844167D01*
X171791789Y-43818838D01*
X172026100Y-43756054D01*
X172250212Y-43663224D01*
X172460289Y-43541936D01*
X172652738Y-43394265D01*
X172824265Y-43222738D01*
X172971936Y-43030289D01*
X173093224Y-42820212D01*
X173186054Y-42596100D01*
X173248838Y-42361789D01*
X173280500Y-42121288D01*
X173280500Y-41878712D01*
X173248838Y-41638211D01*
X173186054Y-41403900D01*
X173093224Y-41179788D01*
X172971936Y-40969711D01*
X172825946Y-40779453D01*
X172824266Y-40777263D01*
X172824260Y-40777256D01*
X172652743Y-40605739D01*
X172652736Y-40605733D01*
X172460293Y-40458067D01*
X172460292Y-40458066D01*
X172460289Y-40458064D01*
X172250212Y-40336776D01*
X172250205Y-40336773D01*
X172026104Y-40243947D01*
X171791785Y-40181161D01*
X171551289Y-40149500D01*
X171551288Y-40149500D01*
X171308712Y-40149500D01*
X171308711Y-40149500D01*
X171068214Y-40181161D01*
X170833895Y-40243947D01*
X170609794Y-40336773D01*
X170609785Y-40336777D01*
X170399706Y-40458067D01*
X170235486Y-40584077D01*
X170170317Y-40609271D01*
X170101872Y-40595232D01*
X170084514Y-40584077D01*
X169920293Y-40458067D01*
X169920292Y-40458066D01*
X169920289Y-40458064D01*
X169710212Y-40336776D01*
X169710205Y-40336773D01*
X169486104Y-40243947D01*
X169251785Y-40181161D01*
X169011289Y-40149500D01*
X169011288Y-40149500D01*
X168768712Y-40149500D01*
X168768711Y-40149500D01*
X168528214Y-40181161D01*
X168293895Y-40243947D01*
X168069794Y-40336773D01*
X168069785Y-40336777D01*
X167859706Y-40458067D01*
X167695486Y-40584077D01*
X167630317Y-40609271D01*
X167561872Y-40595232D01*
X167544514Y-40584077D01*
X167380293Y-40458067D01*
X167380292Y-40458066D01*
X167380289Y-40458064D01*
X167170212Y-40336776D01*
X167170205Y-40336773D01*
X166946104Y-40243947D01*
X166711785Y-40181161D01*
X166471289Y-40149500D01*
X166471288Y-40149500D01*
X166228712Y-40149500D01*
X166228711Y-40149500D01*
X165988214Y-40181161D01*
X165753895Y-40243947D01*
X165529794Y-40336773D01*
X165529785Y-40336777D01*
X165319706Y-40458067D01*
X165155486Y-40584077D01*
X165090317Y-40609271D01*
X165021872Y-40595232D01*
X165004514Y-40584077D01*
X164840293Y-40458067D01*
X164840292Y-40458066D01*
X164840289Y-40458064D01*
X164630212Y-40336776D01*
X164630205Y-40336773D01*
X164406104Y-40243947D01*
X164171785Y-40181161D01*
X163931289Y-40149500D01*
X163931288Y-40149500D01*
X163688712Y-40149500D01*
X163688711Y-40149500D01*
X163448214Y-40181161D01*
X163213895Y-40243947D01*
X162989794Y-40336773D01*
X162989785Y-40336777D01*
X162779706Y-40458067D01*
X162615486Y-40584077D01*
X162550317Y-40609271D01*
X162481872Y-40595232D01*
X162464514Y-40584077D01*
X162300293Y-40458067D01*
X162300292Y-40458066D01*
X162300289Y-40458064D01*
X162090212Y-40336776D01*
X162090205Y-40336773D01*
X161866104Y-40243947D01*
X161631785Y-40181161D01*
X161391289Y-40149500D01*
X161391288Y-40149500D01*
X161148712Y-40149500D01*
X161148711Y-40149500D01*
X160908214Y-40181161D01*
X160673895Y-40243947D01*
X160449794Y-40336773D01*
X160449785Y-40336777D01*
X160239706Y-40458067D01*
X160075486Y-40584077D01*
X160010317Y-40609271D01*
X159941872Y-40595232D01*
X159924514Y-40584077D01*
X159760293Y-40458067D01*
X159760292Y-40458066D01*
X159760289Y-40458064D01*
X159550212Y-40336776D01*
X159550205Y-40336773D01*
X159326104Y-40243947D01*
X159091785Y-40181161D01*
X158851289Y-40149500D01*
X158851288Y-40149500D01*
X158608712Y-40149500D01*
X158608711Y-40149500D01*
X158368214Y-40181161D01*
X158133895Y-40243947D01*
X157909794Y-40336773D01*
X157909785Y-40336777D01*
X157699706Y-40458067D01*
X157535486Y-40584077D01*
X157470317Y-40609271D01*
X157401872Y-40595232D01*
X157384514Y-40584077D01*
X157220293Y-40458067D01*
X157220292Y-40458066D01*
X157220289Y-40458064D01*
X157010212Y-40336776D01*
X157010205Y-40336773D01*
X156786104Y-40243947D01*
X156551785Y-40181161D01*
X156311289Y-40149500D01*
X156311288Y-40149500D01*
X156068712Y-40149500D01*
X156068711Y-40149500D01*
X155828214Y-40181161D01*
X155593895Y-40243947D01*
X155369794Y-40336773D01*
X155369785Y-40336777D01*
X155159706Y-40458067D01*
X154995486Y-40584077D01*
X154930317Y-40609271D01*
X154861872Y-40595232D01*
X154844514Y-40584077D01*
X154680293Y-40458067D01*
X154680292Y-40458066D01*
X154680289Y-40458064D01*
X154470212Y-40336776D01*
X154470205Y-40336773D01*
X154246104Y-40243947D01*
X154011785Y-40181161D01*
X153771289Y-40149500D01*
X153771288Y-40149500D01*
X153528712Y-40149500D01*
X153528711Y-40149500D01*
X153288214Y-40181161D01*
X153053895Y-40243947D01*
X152829794Y-40336773D01*
X152829785Y-40336777D01*
X152619706Y-40458067D01*
X152455486Y-40584077D01*
X152390317Y-40609271D01*
X152321872Y-40595232D01*
X152304514Y-40584077D01*
X152140293Y-40458067D01*
X152140292Y-40458066D01*
X152140289Y-40458064D01*
X151930212Y-40336776D01*
X151930205Y-40336773D01*
X151706104Y-40243947D01*
X151471785Y-40181161D01*
X151231289Y-40149500D01*
X151231288Y-40149500D01*
X150988712Y-40149500D01*
X150988711Y-40149500D01*
X150748214Y-40181161D01*
X150513895Y-40243947D01*
X150289794Y-40336773D01*
X150289789Y-40336775D01*
X150197640Y-40389977D01*
X150129740Y-40406449D01*
X150063713Y-40383596D01*
X150057281Y-40378691D01*
X149973412Y-40310305D01*
X149973408Y-40310303D01*
X149973407Y-40310302D01*
X149793049Y-40216091D01*
X149793048Y-40216090D01*
X149793045Y-40216089D01*
X149675829Y-40182550D01*
X149597418Y-40160114D01*
X149597415Y-40160113D01*
X149597413Y-40160113D01*
X149531102Y-40154217D01*
X149478037Y-40149500D01*
X149478032Y-40149500D01*
X147661971Y-40149500D01*
X147661965Y-40149500D01*
X147661964Y-40149501D01*
X147650316Y-40150536D01*
X147542584Y-40160113D01*
X147346954Y-40216089D01*
X147293625Y-40243946D01*
X147166593Y-40310302D01*
X147166591Y-40310303D01*
X147166590Y-40310304D01*
X147008890Y-40438890D01*
X146880304Y-40596590D01*
X146880302Y-40596593D01*
X146854171Y-40646619D01*
X146786089Y-40776954D01*
X146744719Y-40921540D01*
X146730936Y-40969711D01*
X146730114Y-40972583D01*
X146730113Y-40972586D01*
X146727855Y-40997989D01*
X146719745Y-41089214D01*
X146719500Y-41091966D01*
X140750499Y-41091966D01*
X140750499Y-40997989D01*
X140750499Y-40016971D01*
X140750499Y-40016964D01*
X140739886Y-39897582D01*
X140683909Y-39701951D01*
X140589698Y-39521593D01*
X140519484Y-39435482D01*
X140461109Y-39363890D01*
X140303409Y-39235304D01*
X140303410Y-39235304D01*
X140303407Y-39235302D01*
X140123049Y-39141091D01*
X140123048Y-39141090D01*
X140123045Y-39141089D01*
X140005829Y-39107550D01*
X139927418Y-39085114D01*
X139927415Y-39085113D01*
X139927413Y-39085113D01*
X139861102Y-39079217D01*
X139808037Y-39074500D01*
X139808032Y-39074500D01*
X136191971Y-39074500D01*
X136191965Y-39074500D01*
X136191964Y-39074501D01*
X136180316Y-39075536D01*
X136072584Y-39085113D01*
X135876954Y-39141089D01*
X135811078Y-39175500D01*
X135696593Y-39235302D01*
X135696591Y-39235303D01*
X135696590Y-39235304D01*
X135538890Y-39363890D01*
X135410304Y-39521590D01*
X135316089Y-39701954D01*
X135260114Y-39897583D01*
X135260113Y-39897586D01*
X135254989Y-39955220D01*
X135250610Y-40004485D01*
X135249500Y-40016966D01*
X130600499Y-40016966D01*
X130600499Y-40016964D01*
X130589886Y-39897582D01*
X130533909Y-39701951D01*
X130439698Y-39521593D01*
X130369484Y-39435482D01*
X130311109Y-39363890D01*
X130153409Y-39235304D01*
X130153410Y-39235304D01*
X130153407Y-39235302D01*
X129973049Y-39141091D01*
X129973048Y-39141090D01*
X129973045Y-39141089D01*
X129855829Y-39107550D01*
X129777418Y-39085114D01*
X129777415Y-39085113D01*
X129777413Y-39085113D01*
X129711102Y-39079217D01*
X129658037Y-39074500D01*
X129658032Y-39074500D01*
X126041971Y-39074500D01*
X126041965Y-39074500D01*
X126041964Y-39074501D01*
X126030316Y-39075536D01*
X125922584Y-39085113D01*
X125726954Y-39141089D01*
X125661078Y-39175500D01*
X125546593Y-39235302D01*
X125546591Y-39235303D01*
X125546590Y-39235304D01*
X125388890Y-39363890D01*
X125260304Y-39521590D01*
X125166089Y-39701954D01*
X125110114Y-39897583D01*
X125110113Y-39897586D01*
X125104989Y-39955220D01*
X125100610Y-40004485D01*
X125099500Y-40016966D01*
X120100499Y-40016966D01*
X120100499Y-40016964D01*
X120089886Y-39897582D01*
X120033909Y-39701951D01*
X119939698Y-39521593D01*
X119869484Y-39435482D01*
X119811109Y-39363890D01*
X119653409Y-39235304D01*
X119653410Y-39235304D01*
X119653407Y-39235302D01*
X119473049Y-39141091D01*
X119473048Y-39141090D01*
X119473045Y-39141089D01*
X119355829Y-39107550D01*
X119277418Y-39085114D01*
X119277415Y-39085113D01*
X119277413Y-39085113D01*
X119211102Y-39079217D01*
X119158037Y-39074500D01*
X119158032Y-39074500D01*
X115541971Y-39074500D01*
X115541965Y-39074500D01*
X115541964Y-39074501D01*
X115530316Y-39075536D01*
X115422584Y-39085113D01*
X115226954Y-39141089D01*
X115161078Y-39175500D01*
X115046593Y-39235302D01*
X115046591Y-39235303D01*
X115046590Y-39235304D01*
X114888890Y-39363890D01*
X114760304Y-39521590D01*
X114666089Y-39701954D01*
X114610114Y-39897583D01*
X114610113Y-39897586D01*
X114604989Y-39955220D01*
X114600610Y-40004485D01*
X114599500Y-40016966D01*
X109750499Y-40016966D01*
X109750499Y-40016964D01*
X109739886Y-39897582D01*
X109683909Y-39701951D01*
X109589698Y-39521593D01*
X109519484Y-39435482D01*
X109461109Y-39363890D01*
X109303409Y-39235304D01*
X109303410Y-39235304D01*
X109303407Y-39235302D01*
X109123049Y-39141091D01*
X109123048Y-39141090D01*
X109123045Y-39141089D01*
X109005829Y-39107550D01*
X108927418Y-39085114D01*
X108927415Y-39085113D01*
X108927413Y-39085113D01*
X108861102Y-39079217D01*
X108808037Y-39074500D01*
X108808032Y-39074500D01*
X105191971Y-39074500D01*
X105191965Y-39074500D01*
X105191964Y-39074501D01*
X105180316Y-39075536D01*
X105072584Y-39085113D01*
X104876954Y-39141089D01*
X104811078Y-39175500D01*
X104696593Y-39235302D01*
X104696591Y-39235303D01*
X104696590Y-39235304D01*
X104538890Y-39363890D01*
X104410304Y-39521590D01*
X104316089Y-39701954D01*
X104260114Y-39897583D01*
X104260113Y-39897586D01*
X104254989Y-39955220D01*
X104250610Y-40004485D01*
X104249500Y-40016966D01*
X99600499Y-40016966D01*
X99600499Y-40016964D01*
X99589886Y-39897582D01*
X99533909Y-39701951D01*
X99439698Y-39521593D01*
X99369484Y-39435482D01*
X99311109Y-39363890D01*
X99153409Y-39235304D01*
X99153410Y-39235304D01*
X99153407Y-39235302D01*
X98973049Y-39141091D01*
X98973048Y-39141090D01*
X98973045Y-39141089D01*
X98855829Y-39107550D01*
X98777418Y-39085114D01*
X98777415Y-39085113D01*
X98777413Y-39085113D01*
X98711102Y-39079217D01*
X98658037Y-39074500D01*
X98658032Y-39074500D01*
X95041971Y-39074500D01*
X95041965Y-39074500D01*
X95041964Y-39074501D01*
X95030316Y-39075536D01*
X94922584Y-39085113D01*
X94726954Y-39141089D01*
X94661078Y-39175500D01*
X94546593Y-39235302D01*
X94546591Y-39235303D01*
X94546590Y-39235304D01*
X94388890Y-39363890D01*
X94260304Y-39521590D01*
X94166089Y-39701954D01*
X94110114Y-39897583D01*
X94110113Y-39897586D01*
X94104989Y-39955220D01*
X94100610Y-40004485D01*
X94099500Y-40016966D01*
X90727595Y-40016966D01*
X90728578Y-40004485D01*
X90736991Y-39897582D01*
X90750500Y-39725938D01*
X90750500Y-39274062D01*
X90715046Y-38823580D01*
X90644357Y-38377267D01*
X90538869Y-37937877D01*
X90411144Y-37544780D01*
X90399234Y-37508123D01*
X90396191Y-37500776D01*
X90226307Y-37090640D01*
X90021160Y-36688016D01*
X90021154Y-36688007D01*
X90021152Y-36688002D01*
X90021149Y-36687997D01*
X89785061Y-36302737D01*
X89785057Y-36302732D01*
X89785055Y-36302728D01*
X89519449Y-35937153D01*
X89519444Y-35937147D01*
X89519433Y-35937133D01*
X89225996Y-35593562D01*
X89225987Y-35593552D01*
X89225980Y-35593544D01*
X88906456Y-35274020D01*
X88906448Y-35274013D01*
X88906437Y-35274003D01*
X88562866Y-34980566D01*
X88562846Y-34980550D01*
X88554955Y-34974817D01*
X88512290Y-34919486D01*
X88506312Y-34849872D01*
X88538919Y-34788078D01*
X88599759Y-34753722D01*
X88627842Y-34750500D01*
X120620498Y-34750500D01*
X120658816Y-34756569D01*
X120672260Y-34760937D01*
X120695466Y-34768477D01*
X120897648Y-34800500D01*
X120897649Y-34800500D01*
X121102351Y-34800500D01*
X121102352Y-34800500D01*
X121304534Y-34768477D01*
X121499219Y-34705220D01*
X121681610Y-34612287D01*
X121774590Y-34544732D01*
X121847213Y-34491971D01*
X121847215Y-34491968D01*
X121847219Y-34491966D01*
X121991966Y-34347219D01*
X121991968Y-34347215D01*
X121991971Y-34347213D01*
X122071841Y-34237279D01*
X122112287Y-34181610D01*
X122203657Y-34002287D01*
X122205218Y-33999223D01*
X122205218Y-33999222D01*
X122205220Y-33999219D01*
X122268477Y-33804534D01*
X122300500Y-33602352D01*
X122300500Y-33397648D01*
X122268477Y-33195466D01*
X122252421Y-33146052D01*
X122205218Y-33000776D01*
X122170140Y-32931932D01*
X122112287Y-32818390D01*
X122087494Y-32784265D01*
X121991971Y-32652786D01*
X121847213Y-32508028D01*
X121681613Y-32387715D01*
X121681612Y-32387714D01*
X121681610Y-32387713D01*
X121612499Y-32352499D01*
X121499223Y-32294781D01*
X121304534Y-32231522D01*
X121122972Y-32202766D01*
X121102352Y-32199500D01*
X120897648Y-32199500D01*
X120837170Y-32209079D01*
X120695464Y-32231523D01*
X120658816Y-32243431D01*
X120620498Y-32249500D01*
X113922379Y-32249500D01*
X113855340Y-32229815D01*
X113809585Y-32177011D01*
X113799641Y-32107853D01*
X113799886Y-32106222D01*
X113800500Y-32102352D01*
X113800500Y-31897648D01*
X113799905Y-31893893D01*
X113808861Y-31824603D01*
X113853858Y-31771152D01*
X113920610Y-31750513D01*
X113922379Y-31750500D01*
X116120498Y-31750500D01*
X116158816Y-31756569D01*
X116172260Y-31760937D01*
X116195466Y-31768477D01*
X116397648Y-31800500D01*
X116397649Y-31800500D01*
X116602351Y-31800500D01*
X116602352Y-31800500D01*
X116804534Y-31768477D01*
X116999219Y-31705220D01*
X117181610Y-31612287D01*
X117307023Y-31521170D01*
X117347213Y-31491971D01*
X117347215Y-31491968D01*
X117347219Y-31491966D01*
X117491966Y-31347219D01*
X117491968Y-31347215D01*
X117491971Y-31347213D01*
X117576024Y-31231522D01*
X117612287Y-31181610D01*
X117705220Y-30999219D01*
X117768477Y-30804534D01*
X117800500Y-30602352D01*
X117800500Y-30397648D01*
X117794491Y-30359711D01*
X117768477Y-30195465D01*
X117735026Y-30092514D01*
X117705220Y-30000781D01*
X117705218Y-30000778D01*
X117705218Y-30000776D01*
X117659281Y-29910621D01*
X117612287Y-29818390D01*
X117595134Y-29794781D01*
X117491971Y-29652786D01*
X117347213Y-29508028D01*
X117181613Y-29387715D01*
X117181612Y-29387714D01*
X117181610Y-29387713D01*
X117074297Y-29333034D01*
X116999223Y-29294781D01*
X116804534Y-29231522D01*
X116629995Y-29203878D01*
X116602352Y-29199500D01*
X116397648Y-29199500D01*
X116361534Y-29205220D01*
X116195464Y-29231523D01*
X116158816Y-29243431D01*
X116120498Y-29249500D01*
X109422379Y-29249500D01*
X109355340Y-29229815D01*
X109309585Y-29177011D01*
X109299641Y-29107853D01*
X109299886Y-29106222D01*
X109300500Y-29102352D01*
X109300500Y-28897648D01*
X109299905Y-28893893D01*
X109308861Y-28824603D01*
X109353858Y-28771152D01*
X109420610Y-28750513D01*
X109422379Y-28750500D01*
X122120498Y-28750500D01*
X122158816Y-28756569D01*
X122165541Y-28758754D01*
X122195466Y-28768477D01*
X122397648Y-28800500D01*
X122397649Y-28800500D01*
X122602351Y-28800500D01*
X122602352Y-28800500D01*
X122804534Y-28768477D01*
X122999219Y-28705220D01*
X123164659Y-28620923D01*
X123192308Y-28615731D01*
X123219181Y-28607422D01*
X123226182Y-28609369D01*
G37*
%TD.AperFunction*%
%TA.AperFunction,Conductor*%
G36*
X185927053Y-40089461D02*
G01*
X186484214Y-40646622D01*
X186509845Y-40665244D01*
X186633904Y-40755378D01*
X186676854Y-40777262D01*
X186798764Y-40839379D01*
X186974736Y-40896556D01*
X187132499Y-40921542D01*
X187157486Y-40925500D01*
X187157487Y-40925500D01*
X187342514Y-40925500D01*
X187553882Y-40925500D01*
X187620921Y-40945185D01*
X187666676Y-40997989D01*
X187676620Y-41067147D01*
X187652258Y-41124986D01*
X187568067Y-41234706D01*
X187446777Y-41444785D01*
X187446773Y-41444794D01*
X187353947Y-41668895D01*
X187291161Y-41903214D01*
X187259500Y-42143711D01*
X187259500Y-42386288D01*
X187289575Y-42614741D01*
X187291162Y-42626789D01*
X187291883Y-42629481D01*
X187353947Y-42861104D01*
X187403208Y-42980030D01*
X187446776Y-43085212D01*
X187568064Y-43295289D01*
X187568066Y-43295292D01*
X187568067Y-43295293D01*
X187715733Y-43487736D01*
X187715739Y-43487743D01*
X187887256Y-43659260D01*
X187887263Y-43659266D01*
X187892419Y-43663222D01*
X188079711Y-43806936D01*
X188289788Y-43928224D01*
X188435180Y-43988447D01*
X188509986Y-44019433D01*
X188513900Y-44021054D01*
X188748211Y-44083838D01*
X188928586Y-44107584D01*
X188988711Y-44115500D01*
X188988712Y-44115500D01*
X189231289Y-44115500D01*
X189279388Y-44109167D01*
X189471789Y-44083838D01*
X189706100Y-44021054D01*
X189930212Y-43928224D01*
X190140289Y-43806936D01*
X190304514Y-43680922D01*
X190369683Y-43655728D01*
X190438128Y-43669766D01*
X190455486Y-43680922D01*
X190619711Y-43806936D01*
X190829788Y-43928224D01*
X190975180Y-43988447D01*
X191049986Y-44019433D01*
X191053900Y-44021054D01*
X191288211Y-44083838D01*
X191468586Y-44107584D01*
X191528711Y-44115500D01*
X191528712Y-44115500D01*
X191771289Y-44115500D01*
X191819388Y-44109167D01*
X192011789Y-44083838D01*
X192246100Y-44021054D01*
X192470212Y-43928224D01*
X192680289Y-43806936D01*
X192872738Y-43659265D01*
X193044265Y-43487738D01*
X193191936Y-43295289D01*
X193313224Y-43085212D01*
X193406054Y-42861100D01*
X193468838Y-42626789D01*
X193500500Y-42386288D01*
X193500500Y-42143712D01*
X193468838Y-41903211D01*
X193406054Y-41668900D01*
X193387787Y-41624801D01*
X193380319Y-41555333D01*
X193411594Y-41492854D01*
X193471682Y-41457201D01*
X193541508Y-41459694D01*
X193549800Y-41462787D01*
X193593900Y-41481054D01*
X193828211Y-41543838D01*
X194008586Y-41567584D01*
X194068711Y-41575500D01*
X194068712Y-41575500D01*
X194311289Y-41575500D01*
X194359388Y-41569167D01*
X194551789Y-41543838D01*
X194786100Y-41481054D01*
X195010212Y-41388224D01*
X195220289Y-41266936D01*
X195384514Y-41140922D01*
X195449683Y-41115728D01*
X195518128Y-41129766D01*
X195535486Y-41140922D01*
X195699711Y-41266936D01*
X195909788Y-41388224D01*
X196133900Y-41481054D01*
X196368211Y-41543838D01*
X196548586Y-41567584D01*
X196608711Y-41575500D01*
X196608712Y-41575500D01*
X196851289Y-41575500D01*
X196899388Y-41569167D01*
X197091789Y-41543838D01*
X197326100Y-41481054D01*
X197550212Y-41388224D01*
X197760289Y-41266936D01*
X197924514Y-41140922D01*
X197989683Y-41115728D01*
X198058128Y-41129766D01*
X198075486Y-41140922D01*
X198239711Y-41266936D01*
X198449788Y-41388224D01*
X198673900Y-41481054D01*
X198908211Y-41543838D01*
X199088586Y-41567584D01*
X199148711Y-41575500D01*
X199148712Y-41575500D01*
X199391289Y-41575500D01*
X199439388Y-41569167D01*
X199631789Y-41543838D01*
X199866100Y-41481054D01*
X200090212Y-41388224D01*
X200300289Y-41266936D01*
X200464514Y-41140922D01*
X200529683Y-41115728D01*
X200598128Y-41129766D01*
X200615486Y-41140922D01*
X200779711Y-41266936D01*
X200989788Y-41388224D01*
X201213900Y-41481054D01*
X201448211Y-41543838D01*
X201628586Y-41567584D01*
X201688711Y-41575500D01*
X201688712Y-41575500D01*
X201931289Y-41575500D01*
X201979388Y-41569167D01*
X202171789Y-41543838D01*
X202406100Y-41481054D01*
X202630212Y-41388224D01*
X202840289Y-41266936D01*
X203004514Y-41140922D01*
X203069683Y-41115728D01*
X203138128Y-41129766D01*
X203155486Y-41140922D01*
X203319711Y-41266936D01*
X203529788Y-41388224D01*
X203753900Y-41481054D01*
X203988211Y-41543838D01*
X204168586Y-41567584D01*
X204228711Y-41575500D01*
X204228712Y-41575500D01*
X204471289Y-41575500D01*
X204519388Y-41569167D01*
X204711789Y-41543838D01*
X204946100Y-41481054D01*
X204946105Y-41481051D01*
X204946108Y-41481051D01*
X204990196Y-41462789D01*
X205059665Y-41455319D01*
X205122145Y-41486593D01*
X205157798Y-41546681D01*
X205155305Y-41616507D01*
X205152212Y-41624800D01*
X205133947Y-41668896D01*
X205071161Y-41903214D01*
X205039500Y-42143711D01*
X205039500Y-42386288D01*
X205069575Y-42614741D01*
X205071162Y-42626789D01*
X205071883Y-42629481D01*
X205133947Y-42861104D01*
X205183208Y-42980030D01*
X205226776Y-43085212D01*
X205348064Y-43295289D01*
X205348066Y-43295292D01*
X205348067Y-43295293D01*
X205495733Y-43487736D01*
X205495739Y-43487743D01*
X205667256Y-43659260D01*
X205667263Y-43659266D01*
X205672419Y-43663222D01*
X205859711Y-43806936D01*
X206069788Y-43928224D01*
X206215180Y-43988447D01*
X206289986Y-44019433D01*
X206293900Y-44021054D01*
X206528211Y-44083838D01*
X206708586Y-44107584D01*
X206768711Y-44115500D01*
X206768712Y-44115500D01*
X207011289Y-44115500D01*
X207059388Y-44109167D01*
X207251789Y-44083838D01*
X207486100Y-44021054D01*
X207710212Y-43928224D01*
X207920289Y-43806936D01*
X207960445Y-43776123D01*
X208025612Y-43750930D01*
X208035930Y-43750500D01*
X209598422Y-43750500D01*
X209792826Y-43719709D01*
X209980026Y-43658884D01*
X210155405Y-43569524D01*
X210314646Y-43453828D01*
X212481655Y-41286819D01*
X212542978Y-41253334D01*
X212569336Y-41250500D01*
X213350513Y-41250500D01*
X213417552Y-41270185D01*
X213463307Y-41322989D01*
X213473251Y-41392147D01*
X213457900Y-41436500D01*
X213349427Y-41624380D01*
X213349423Y-41624390D01*
X213250324Y-41863635D01*
X213183302Y-42113769D01*
X213183299Y-42113782D01*
X213149501Y-42370508D01*
X213149500Y-42370525D01*
X213149500Y-42629474D01*
X213149501Y-42629491D01*
X213183299Y-42886217D01*
X213183300Y-42886222D01*
X213183301Y-42886228D01*
X213193824Y-42925499D01*
X213250324Y-43136364D01*
X213349423Y-43375609D01*
X213349427Y-43375619D01*
X213478906Y-43599883D01*
X213636551Y-43805331D01*
X213636557Y-43805338D01*
X213819661Y-43988442D01*
X213819668Y-43988448D01*
X214025116Y-44146093D01*
X214236461Y-44268113D01*
X214284677Y-44318680D01*
X214297900Y-44387287D01*
X214271932Y-44452152D01*
X214215018Y-44492680D01*
X214174461Y-44499500D01*
X183283746Y-44499500D01*
X183216707Y-44479815D01*
X183170952Y-44427011D01*
X183161008Y-44357853D01*
X183190033Y-44294297D01*
X183210861Y-44275182D01*
X183367801Y-44161158D01*
X183562847Y-44019449D01*
X183639679Y-43953829D01*
X183877243Y-43750930D01*
X183906456Y-43725980D01*
X184225980Y-43406456D01*
X184456660Y-43136364D01*
X184519433Y-43062866D01*
X184519435Y-43062863D01*
X184519449Y-43062847D01*
X184785055Y-42697272D01*
X185021160Y-42311984D01*
X185226307Y-41909360D01*
X185399232Y-41491882D01*
X185400951Y-41486593D01*
X185408685Y-41462788D01*
X185538869Y-41062123D01*
X185644357Y-40622733D01*
X185715046Y-40176420D01*
X185715754Y-40167421D01*
X185740632Y-40102132D01*
X185796860Y-40060657D01*
X185866585Y-40056165D01*
X185927053Y-40089461D01*
G37*
%TD.AperFunction*%
%TA.AperFunction,Conductor*%
G36*
X251283293Y-520185D02*
G01*
X251329048Y-572989D01*
X251338992Y-642147D01*
X251309967Y-705703D01*
X251289139Y-724818D01*
X250937160Y-980545D01*
X250937133Y-980566D01*
X250593562Y-1274003D01*
X250593536Y-1274027D01*
X250274027Y-1593536D01*
X250274003Y-1593562D01*
X249980566Y-1937133D01*
X249980545Y-1937160D01*
X249714946Y-2302726D01*
X249714938Y-2302737D01*
X249478850Y-2687997D01*
X249478847Y-2688002D01*
X249273692Y-3090642D01*
X249100765Y-3508123D01*
X248961135Y-3937865D01*
X248961128Y-3937888D01*
X248929977Y-4067641D01*
X248860051Y-4358909D01*
X248855642Y-4377272D01*
X248784955Y-4823570D01*
X248784953Y-4823589D01*
X248749500Y-5274056D01*
X248749500Y-5725943D01*
X248784953Y-6176410D01*
X248784955Y-6176429D01*
X248840873Y-6529481D01*
X248855643Y-6622733D01*
X248894895Y-6786228D01*
X248957301Y-7046172D01*
X248961131Y-7062123D01*
X248986789Y-7141091D01*
X249100765Y-7491876D01*
X249189944Y-7707173D01*
X249273693Y-7909360D01*
X249464707Y-8284246D01*
X249478847Y-8311997D01*
X249478850Y-8312002D01*
X249714938Y-8697262D01*
X249714943Y-8697269D01*
X249714945Y-8697272D01*
X249853309Y-8887713D01*
X249980545Y-9062839D01*
X249980566Y-9062866D01*
X250274003Y-9406437D01*
X250274013Y-9406448D01*
X250274020Y-9406456D01*
X250593544Y-9725980D01*
X250593552Y-9725987D01*
X250593562Y-9725996D01*
X250937133Y-10019433D01*
X250937147Y-10019444D01*
X250937153Y-10019449D01*
X251302728Y-10285055D01*
X251302732Y-10285057D01*
X251302737Y-10285061D01*
X251687997Y-10521149D01*
X251688002Y-10521152D01*
X251688007Y-10521154D01*
X251688016Y-10521160D01*
X252090640Y-10726307D01*
X252504294Y-10897648D01*
X252508123Y-10899234D01*
X252604277Y-10930476D01*
X252937877Y-11038869D01*
X253377267Y-11144357D01*
X253823580Y-11215046D01*
X254274062Y-11250500D01*
X254274070Y-11250500D01*
X254725930Y-11250500D01*
X254725938Y-11250500D01*
X255176420Y-11215046D01*
X255622733Y-11144357D01*
X256062123Y-11038869D01*
X256491882Y-10899232D01*
X256909360Y-10726307D01*
X257311984Y-10521160D01*
X257313915Y-10519977D01*
X257575200Y-10359861D01*
X257697272Y-10285055D01*
X258062847Y-10019449D01*
X258076213Y-10008034D01*
X258356698Y-9768477D01*
X258406456Y-9725980D01*
X258725980Y-9406456D01*
X258945656Y-9149248D01*
X259019433Y-9062866D01*
X259019435Y-9062863D01*
X259019449Y-9062847D01*
X259275183Y-8710858D01*
X259330512Y-8668194D01*
X259400125Y-8662215D01*
X259461920Y-8694821D01*
X259496277Y-8755659D01*
X259499500Y-8783745D01*
X259499500Y-36216254D01*
X259479815Y-36283293D01*
X259427011Y-36329048D01*
X259357853Y-36338992D01*
X259294297Y-36309967D01*
X259275182Y-36289139D01*
X259065674Y-36000776D01*
X259019449Y-35937153D01*
X259019444Y-35937147D01*
X259019433Y-35937133D01*
X258725996Y-35593562D01*
X258725987Y-35593552D01*
X258725980Y-35593544D01*
X258406456Y-35274020D01*
X258406448Y-35274013D01*
X258406437Y-35274003D01*
X258062866Y-34980566D01*
X258062845Y-34980550D01*
X258026974Y-34954488D01*
X257841818Y-34819964D01*
X257697272Y-34714945D01*
X257697269Y-34714943D01*
X257697262Y-34714938D01*
X257312002Y-34478850D01*
X257311997Y-34478847D01*
X257311987Y-34478842D01*
X257311984Y-34478840D01*
X256909360Y-34273693D01*
X256773927Y-34217595D01*
X256491876Y-34100765D01*
X256170913Y-33996479D01*
X256062123Y-33961131D01*
X255622733Y-33855643D01*
X255622727Y-33855642D01*
X255176429Y-33784955D01*
X255176420Y-33784954D01*
X255176418Y-33784953D01*
X255176410Y-33784953D01*
X254725943Y-33749500D01*
X254725938Y-33749500D01*
X254274062Y-33749500D01*
X254274056Y-33749500D01*
X253823589Y-33784953D01*
X253823570Y-33784955D01*
X253377272Y-33855642D01*
X253377269Y-33855642D01*
X253377267Y-33855643D01*
X253238783Y-33888890D01*
X252937888Y-33961128D01*
X252937882Y-33961129D01*
X252937877Y-33961131D01*
X252937865Y-33961135D01*
X252508123Y-34100765D01*
X252321868Y-34177915D01*
X252252398Y-34185384D01*
X252189919Y-34154109D01*
X252154267Y-34094020D01*
X252156761Y-34024195D01*
X252186734Y-33975673D01*
X252543032Y-33619376D01*
X253355138Y-32807270D01*
X253416461Y-32773785D01*
X253486153Y-32778769D01*
X253518304Y-32796574D01*
X253694711Y-32931936D01*
X253904788Y-33053224D01*
X254128900Y-33146054D01*
X254363211Y-33208838D01*
X254543586Y-33232584D01*
X254603711Y-33240500D01*
X254603712Y-33240500D01*
X254846289Y-33240500D01*
X254894388Y-33234167D01*
X255086789Y-33208838D01*
X255321100Y-33146054D01*
X255545212Y-33053224D01*
X255755289Y-32931936D01*
X255947738Y-32784265D01*
X256119265Y-32612738D01*
X256266936Y-32420289D01*
X256388224Y-32210212D01*
X256481054Y-31986100D01*
X256543838Y-31751789D01*
X256575500Y-31511288D01*
X256575500Y-31268712D01*
X256543838Y-31028211D01*
X256481054Y-30793900D01*
X256388224Y-30569788D01*
X256266936Y-30359711D01*
X256140922Y-30195486D01*
X256115728Y-30130317D01*
X256129766Y-30061872D01*
X256140922Y-30044514D01*
X256168914Y-30008034D01*
X256266936Y-29880289D01*
X256388224Y-29670212D01*
X256481054Y-29446100D01*
X256543838Y-29211789D01*
X256575500Y-28971288D01*
X256575500Y-28728712D01*
X256543838Y-28488211D01*
X256481054Y-28253900D01*
X256388224Y-28029788D01*
X256266936Y-27819711D01*
X256140922Y-27655486D01*
X256115728Y-27590317D01*
X256129766Y-27521872D01*
X256140922Y-27504514D01*
X256173751Y-27461730D01*
X256266936Y-27340289D01*
X256388224Y-27130212D01*
X256481054Y-26906100D01*
X256543838Y-26671789D01*
X256575500Y-26431288D01*
X256575500Y-26188712D01*
X256574565Y-26181613D01*
X256551771Y-26008472D01*
X256543838Y-25948211D01*
X256481054Y-25713900D01*
X256388224Y-25489788D01*
X256266936Y-25279711D01*
X256140922Y-25115486D01*
X256115728Y-25050317D01*
X256129766Y-24981872D01*
X256140922Y-24964514D01*
X256158428Y-24941700D01*
X256266936Y-24800289D01*
X256388224Y-24590212D01*
X256481054Y-24366100D01*
X256543838Y-24131789D01*
X256575500Y-23891288D01*
X256575500Y-23648712D01*
X256570147Y-23608055D01*
X256554105Y-23486199D01*
X256543838Y-23408211D01*
X256481054Y-23173900D01*
X256388224Y-22949788D01*
X256266936Y-22739711D01*
X256140922Y-22575486D01*
X256115728Y-22510317D01*
X256129766Y-22441872D01*
X256140922Y-22424514D01*
X256185903Y-22365893D01*
X256266936Y-22260289D01*
X256388224Y-22050212D01*
X256481054Y-21826100D01*
X256543838Y-21591789D01*
X256575500Y-21351288D01*
X256575500Y-21108712D01*
X256543838Y-20868211D01*
X256481054Y-20633900D01*
X256388224Y-20409788D01*
X256266936Y-20199711D01*
X256140922Y-20035486D01*
X256115728Y-19970317D01*
X256129766Y-19901872D01*
X256140922Y-19884514D01*
X256201575Y-19805469D01*
X256266936Y-19720289D01*
X256388224Y-19510212D01*
X256481054Y-19286100D01*
X256543838Y-19051789D01*
X256575500Y-18811288D01*
X256575500Y-18568712D01*
X256543838Y-18328211D01*
X256481054Y-18093900D01*
X256388224Y-17869788D01*
X256266936Y-17659711D01*
X256140922Y-17495486D01*
X256115728Y-17430317D01*
X256129766Y-17361872D01*
X256140922Y-17344514D01*
X256166067Y-17311744D01*
X256266936Y-17180289D01*
X256388224Y-16970212D01*
X256481054Y-16746100D01*
X256543838Y-16511789D01*
X256575500Y-16271288D01*
X256575500Y-16028712D01*
X256575062Y-16025388D01*
X256559962Y-15910688D01*
X256543838Y-15788211D01*
X256481054Y-15553900D01*
X256388224Y-15329788D01*
X256388218Y-15329777D01*
X256335023Y-15237639D01*
X256318550Y-15169739D01*
X256341403Y-15103712D01*
X256346298Y-15097292D01*
X256414698Y-15013407D01*
X256508909Y-14833049D01*
X256564886Y-14637418D01*
X256575500Y-14518037D01*
X256575499Y-12701964D01*
X256564886Y-12582582D01*
X256511970Y-12397648D01*
X256508910Y-12386954D01*
X256508909Y-12386953D01*
X256508909Y-12386951D01*
X256414698Y-12206593D01*
X256329701Y-12102352D01*
X256286109Y-12048890D01*
X256128409Y-11920304D01*
X256128410Y-11920304D01*
X256128407Y-11920302D01*
X255948049Y-11826091D01*
X255948048Y-11826090D01*
X255948045Y-11826089D01*
X255810799Y-11786819D01*
X255752418Y-11770114D01*
X255752415Y-11770113D01*
X255752413Y-11770113D01*
X255686102Y-11764217D01*
X255633037Y-11759500D01*
X255633032Y-11759500D01*
X253816971Y-11759500D01*
X253816965Y-11759500D01*
X253816964Y-11759501D01*
X253805316Y-11760536D01*
X253697584Y-11770113D01*
X253501954Y-11826089D01*
X253461503Y-11847219D01*
X253321593Y-11920302D01*
X253321591Y-11920303D01*
X253321590Y-11920304D01*
X253163890Y-12048890D01*
X253035304Y-12206590D01*
X252941089Y-12386954D01*
X252885114Y-12582583D01*
X252885113Y-12582586D01*
X252878873Y-12652781D01*
X252876719Y-12677011D01*
X252874500Y-12701966D01*
X252874500Y-12911729D01*
X252854815Y-12978768D01*
X252838181Y-12999410D01*
X250603381Y-15234210D01*
X250603379Y-15234213D01*
X250570512Y-15279451D01*
X250494622Y-15383903D01*
X250410620Y-15548763D01*
X250410618Y-15548769D01*
X250376581Y-15653529D01*
X250376581Y-15653530D01*
X250353445Y-15724734D01*
X250324500Y-15907486D01*
X250324500Y-30961730D01*
X250304815Y-31028769D01*
X250288181Y-31049411D01*
X247049411Y-34288181D01*
X246988088Y-34321666D01*
X246961730Y-34324500D01*
X236407485Y-34324500D01*
X236382498Y-34328457D01*
X236382497Y-34328456D01*
X236224735Y-34353443D01*
X236088691Y-34397648D01*
X236048764Y-34410621D01*
X236048762Y-34410621D01*
X236048762Y-34410622D01*
X236025290Y-34422582D01*
X235883903Y-34494622D01*
X235842779Y-34524501D01*
X235796175Y-34558361D01*
X235796174Y-34558362D01*
X235734217Y-34603374D01*
X235734215Y-34603376D01*
X235049411Y-35288181D01*
X234988088Y-35321666D01*
X234961730Y-35324500D01*
X234587318Y-35324500D01*
X234531023Y-35310985D01*
X234499223Y-35294781D01*
X234304534Y-35231522D01*
X234129995Y-35203878D01*
X234102352Y-35199500D01*
X233897648Y-35199500D01*
X233873329Y-35203351D01*
X233695465Y-35231522D01*
X233500776Y-35294781D01*
X233318386Y-35387715D01*
X233152786Y-35508028D01*
X233008028Y-35652786D01*
X232887715Y-35818386D01*
X232794781Y-36000776D01*
X232731522Y-36195465D01*
X232699500Y-36397648D01*
X232699500Y-36602351D01*
X232731522Y-36804534D01*
X232794781Y-36999223D01*
X232887715Y-37181615D01*
X232889917Y-37185207D01*
X232908164Y-37252652D01*
X232889917Y-37314793D01*
X232887715Y-37318384D01*
X232794781Y-37500776D01*
X232731522Y-37695465D01*
X232699500Y-37897648D01*
X232699500Y-38102351D01*
X232731522Y-38304534D01*
X232794781Y-38499223D01*
X232850132Y-38607853D01*
X232867066Y-38641089D01*
X232887715Y-38681613D01*
X233008028Y-38847213D01*
X233152786Y-38991971D01*
X233286861Y-39089380D01*
X233318390Y-39112287D01*
X233385643Y-39146554D01*
X233500776Y-39205218D01*
X233500778Y-39205218D01*
X233500781Y-39205220D01*
X233593364Y-39235302D01*
X233695465Y-39268477D01*
X233796557Y-39284488D01*
X233897648Y-39300500D01*
X233897649Y-39300500D01*
X233983232Y-39300500D01*
X234050271Y-39320185D01*
X234096026Y-39372989D01*
X234106744Y-39435479D01*
X234099500Y-39516963D01*
X234099500Y-39516968D01*
X234099500Y-41483028D01*
X234099500Y-41483033D01*
X234099501Y-41483036D01*
X234100374Y-41492854D01*
X234110113Y-41602415D01*
X234166089Y-41798045D01*
X234166090Y-41798048D01*
X234166091Y-41798049D01*
X234260302Y-41978407D01*
X234294977Y-42020933D01*
X234388890Y-42136109D01*
X234482803Y-42212684D01*
X234546593Y-42264698D01*
X234726951Y-42358909D01*
X234922582Y-42414886D01*
X235041963Y-42425500D01*
X238658036Y-42425499D01*
X238777418Y-42414886D01*
X238973049Y-42358909D01*
X239153407Y-42264698D01*
X239311109Y-42136109D01*
X239439698Y-41978407D01*
X239533909Y-41798049D01*
X239589886Y-41602418D01*
X239600500Y-41483037D01*
X239600499Y-39516964D01*
X239589886Y-39397582D01*
X239545012Y-39240756D01*
X239533910Y-39201954D01*
X239533909Y-39201953D01*
X239533909Y-39201951D01*
X239439698Y-39021593D01*
X239387684Y-38957803D01*
X239311109Y-38863890D01*
X239153409Y-38735304D01*
X239153410Y-38735304D01*
X239153407Y-38735302D01*
X238973049Y-38641091D01*
X238973048Y-38641090D01*
X238973045Y-38641089D01*
X238855829Y-38607550D01*
X238777418Y-38585114D01*
X238777415Y-38585113D01*
X238777413Y-38585113D01*
X238704631Y-38578642D01*
X238658037Y-38574500D01*
X238658033Y-38574500D01*
X236887269Y-38574500D01*
X236820230Y-38554815D01*
X236774475Y-38502011D01*
X236764531Y-38432853D01*
X236793556Y-38369297D01*
X236799588Y-38362819D01*
X237050121Y-38112287D01*
X237450589Y-37711819D01*
X237511912Y-37678334D01*
X237538270Y-37675500D01*
X245321037Y-37675500D01*
X245388076Y-37695185D01*
X245433831Y-37747989D01*
X245443775Y-37817147D01*
X245414750Y-37880703D01*
X245355972Y-37918477D01*
X245355203Y-37918700D01*
X245328224Y-37926420D01*
X245276953Y-37941090D01*
X245276951Y-37941090D01*
X245276951Y-37941091D01*
X245096593Y-38035302D01*
X245096591Y-38035303D01*
X245096590Y-38035304D01*
X244938890Y-38163890D01*
X244810304Y-38321590D01*
X244810302Y-38321593D01*
X244781218Y-38377272D01*
X244716089Y-38501954D01*
X244660114Y-38697583D01*
X244660113Y-38697586D01*
X244659668Y-38702594D01*
X244650021Y-38811109D01*
X244649500Y-38816966D01*
X244649500Y-40633028D01*
X244649501Y-40633034D01*
X244660113Y-40752415D01*
X244716089Y-40948045D01*
X244716090Y-40948048D01*
X244716091Y-40948049D01*
X244810302Y-41128407D01*
X244811410Y-41129766D01*
X244938890Y-41286109D01*
X245009067Y-41343330D01*
X245096593Y-41414698D01*
X245276951Y-41508909D01*
X245472582Y-41564886D01*
X245591963Y-41575500D01*
X247408036Y-41575499D01*
X247527418Y-41564886D01*
X247723049Y-41508909D01*
X247903407Y-41414698D01*
X248061109Y-41286109D01*
X248189698Y-41128407D01*
X248283909Y-40948049D01*
X248339886Y-40752418D01*
X248350500Y-40633037D01*
X248350499Y-38816964D01*
X248339886Y-38697582D01*
X248283909Y-38501951D01*
X248189698Y-38321593D01*
X248135136Y-38254678D01*
X248061109Y-38163890D01*
X247903409Y-38035304D01*
X247903410Y-38035304D01*
X247903407Y-38035302D01*
X247723049Y-37941091D01*
X247644850Y-37918715D01*
X247585814Y-37881349D01*
X247556350Y-37817995D01*
X247565815Y-37748769D01*
X247611204Y-37695650D01*
X247678106Y-37675503D01*
X247678963Y-37675500D01*
X248092513Y-37675500D01*
X248092514Y-37675500D01*
X248275264Y-37646555D01*
X248451236Y-37589379D01*
X248616096Y-37505378D01*
X248765787Y-37396621D01*
X248975674Y-37186733D01*
X249036996Y-37153249D01*
X249106687Y-37158233D01*
X249162621Y-37200104D01*
X249187038Y-37265569D01*
X249177915Y-37321868D01*
X249100765Y-37508123D01*
X248961135Y-37937865D01*
X248961128Y-37937888D01*
X248908277Y-38158031D01*
X248857557Y-38369297D01*
X248855642Y-38377272D01*
X248784955Y-38823570D01*
X248784953Y-38823589D01*
X248749500Y-39274056D01*
X248749500Y-39725943D01*
X248784953Y-40176410D01*
X248784955Y-40176429D01*
X248817767Y-40383596D01*
X248855643Y-40622733D01*
X248961131Y-41062123D01*
X248998460Y-41177011D01*
X249100765Y-41491876D01*
X249196961Y-41724112D01*
X249273693Y-41909360D01*
X249454745Y-42264695D01*
X249478847Y-42311997D01*
X249478850Y-42312002D01*
X249714938Y-42697262D01*
X249714946Y-42697273D01*
X249980545Y-43062839D01*
X249980566Y-43062866D01*
X250274003Y-43406437D01*
X250274013Y-43406448D01*
X250274020Y-43406456D01*
X250593544Y-43725980D01*
X250593552Y-43725987D01*
X250593562Y-43725996D01*
X250937133Y-44019433D01*
X250937147Y-44019444D01*
X250937153Y-44019449D01*
X250937160Y-44019454D01*
X251289139Y-44275182D01*
X251331805Y-44330512D01*
X251337784Y-44400125D01*
X251305178Y-44461920D01*
X251244340Y-44496277D01*
X251216254Y-44499500D01*
X216075539Y-44499500D01*
X216008500Y-44479815D01*
X215962745Y-44427011D01*
X215952801Y-44357853D01*
X215981826Y-44294297D01*
X216013539Y-44268113D01*
X216041096Y-44252202D01*
X216224884Y-44146093D01*
X216430333Y-43988447D01*
X216613447Y-43805333D01*
X216771093Y-43599884D01*
X216900574Y-43375616D01*
X216999675Y-43136366D01*
X217066699Y-42886228D01*
X217100500Y-42629481D01*
X217100500Y-42370519D01*
X217066699Y-42113772D01*
X216999675Y-41863634D01*
X216900574Y-41624384D01*
X216900572Y-41624380D01*
X216792100Y-41436500D01*
X216775627Y-41368599D01*
X216798480Y-41302573D01*
X216853401Y-41259382D01*
X216899487Y-41250500D01*
X221930664Y-41250500D01*
X221997703Y-41270185D01*
X222018345Y-41286819D01*
X224185354Y-43453828D01*
X224344595Y-43569524D01*
X224519974Y-43658884D01*
X224519976Y-43658884D01*
X224519979Y-43658886D01*
X224519977Y-43658886D01*
X224614809Y-43689698D01*
X224614810Y-43689698D01*
X224660992Y-43704703D01*
X224707173Y-43719709D01*
X224901578Y-43750500D01*
X224901583Y-43750500D01*
X224901584Y-43750500D01*
X225098417Y-43750500D01*
X226048557Y-43750500D01*
X226115596Y-43770185D01*
X226136238Y-43786819D01*
X226168330Y-43818911D01*
X226168338Y-43818918D01*
X226350382Y-43958607D01*
X226350385Y-43958608D01*
X226350388Y-43958611D01*
X226549112Y-44073344D01*
X226549117Y-44073346D01*
X226549123Y-44073349D01*
X226640480Y-44111190D01*
X226761113Y-44161158D01*
X226982762Y-44220548D01*
X227210266Y-44250500D01*
X227210273Y-44250500D01*
X227439727Y-44250500D01*
X227439734Y-44250500D01*
X227667238Y-44220548D01*
X227888887Y-44161158D01*
X228100888Y-44073344D01*
X228299612Y-43958611D01*
X228481661Y-43818919D01*
X228481665Y-43818914D01*
X228481670Y-43818911D01*
X228643911Y-43656670D01*
X228643914Y-43656665D01*
X228643919Y-43656661D01*
X228783611Y-43474612D01*
X228898344Y-43275888D01*
X228986158Y-43063887D01*
X229045548Y-42842238D01*
X229075500Y-42614734D01*
X229075500Y-42385266D01*
X229045548Y-42157762D01*
X228986158Y-41936113D01*
X228898344Y-41724112D01*
X228783611Y-41525388D01*
X228783608Y-41525385D01*
X228783607Y-41525382D01*
X228643918Y-41343338D01*
X228643911Y-41343330D01*
X228481670Y-41181089D01*
X228481661Y-41181081D01*
X228299617Y-41041392D01*
X228100890Y-40926657D01*
X228100876Y-40926650D01*
X227888887Y-40838842D01*
X227667238Y-40779452D01*
X227629215Y-40774446D01*
X227439741Y-40749500D01*
X227439734Y-40749500D01*
X227210266Y-40749500D01*
X227210258Y-40749500D01*
X227001736Y-40776954D01*
X226982762Y-40779452D01*
X226889076Y-40804554D01*
X226761112Y-40838842D01*
X226549123Y-40926650D01*
X226549109Y-40926657D01*
X226350382Y-41041392D01*
X226168338Y-41181081D01*
X226136238Y-41213181D01*
X226074915Y-41246666D01*
X226048557Y-41249500D01*
X225569336Y-41249500D01*
X225502297Y-41229815D01*
X225481655Y-41213181D01*
X223314648Y-39046174D01*
X223314646Y-39046172D01*
X223155405Y-38930476D01*
X222980030Y-38841117D01*
X222792826Y-38780290D01*
X222598422Y-38749500D01*
X222598417Y-38749500D01*
X215780045Y-38749500D01*
X215713006Y-38729815D01*
X215667251Y-38677011D01*
X215657307Y-38607853D01*
X215669560Y-38569205D01*
X215676892Y-38554815D01*
X215705220Y-38499219D01*
X215757796Y-38337406D01*
X215797232Y-38279733D01*
X215837405Y-38257796D01*
X215999219Y-38205220D01*
X216181610Y-38112287D01*
X216287572Y-38035302D01*
X216347213Y-37991971D01*
X216347215Y-37991968D01*
X216347219Y-37991966D01*
X216491966Y-37847219D01*
X216491968Y-37847215D01*
X216491971Y-37847213D01*
X216544732Y-37774590D01*
X216612287Y-37681610D01*
X216705220Y-37499219D01*
X216768477Y-37304534D01*
X216800500Y-37102352D01*
X216800500Y-36897648D01*
X216798691Y-36886228D01*
X216780108Y-36768898D01*
X216789063Y-36699604D01*
X216834059Y-36646152D01*
X216900810Y-36625513D01*
X216902581Y-36625500D01*
X223588578Y-36625500D01*
X223588579Y-36625500D01*
X223763556Y-36597786D01*
X223932042Y-36543042D01*
X223955109Y-36531288D01*
X223977314Y-36519975D01*
X223977315Y-36519974D01*
X224014983Y-36500781D01*
X224089890Y-36462614D01*
X224216640Y-36370525D01*
X227349500Y-36370525D01*
X227349500Y-36629474D01*
X227349501Y-36629491D01*
X227383299Y-36886217D01*
X227383300Y-36886222D01*
X227383301Y-36886228D01*
X227411076Y-36989885D01*
X227450324Y-37136364D01*
X227549423Y-37375609D01*
X227549427Y-37375619D01*
X227678906Y-37599883D01*
X227836551Y-37805331D01*
X227836557Y-37805338D01*
X228019661Y-37988442D01*
X228019668Y-37988448D01*
X228225116Y-38146093D01*
X228449380Y-38275572D01*
X228449381Y-38275572D01*
X228449384Y-38275574D01*
X228688634Y-38374675D01*
X228938772Y-38441699D01*
X229195519Y-38475500D01*
X229195526Y-38475500D01*
X229454474Y-38475500D01*
X229454481Y-38475500D01*
X229711228Y-38441699D01*
X229961366Y-38374675D01*
X230200616Y-38275574D01*
X230424884Y-38146093D01*
X230630333Y-37988447D01*
X230813447Y-37805333D01*
X230971093Y-37599884D01*
X231100574Y-37375616D01*
X231199675Y-37136366D01*
X231266699Y-36886228D01*
X231300500Y-36629481D01*
X231300500Y-36370519D01*
X231266699Y-36113772D01*
X231199675Y-35863634D01*
X231100574Y-35624384D01*
X231087853Y-35602351D01*
X230971093Y-35400116D01*
X230813448Y-35194668D01*
X230813442Y-35194661D01*
X230630338Y-35011557D01*
X230630331Y-35011551D01*
X230424883Y-34853906D01*
X230200619Y-34724427D01*
X230200609Y-34724423D01*
X229961364Y-34625324D01*
X229836297Y-34591813D01*
X229711228Y-34558301D01*
X229711222Y-34558300D01*
X229711217Y-34558299D01*
X229454491Y-34524501D01*
X229454486Y-34524500D01*
X229454481Y-34524500D01*
X229195519Y-34524500D01*
X229195513Y-34524500D01*
X229195508Y-34524501D01*
X228938782Y-34558299D01*
X228938775Y-34558300D01*
X228938772Y-34558301D01*
X228890688Y-34571185D01*
X228688635Y-34625324D01*
X228449390Y-34724423D01*
X228449380Y-34724427D01*
X228225116Y-34853906D01*
X228019668Y-35011551D01*
X228019661Y-35011557D01*
X227836557Y-35194661D01*
X227836551Y-35194668D01*
X227678906Y-35400116D01*
X227549427Y-35624380D01*
X227549423Y-35624390D01*
X227450324Y-35863635D01*
X227383302Y-36113769D01*
X227383299Y-36113782D01*
X227349501Y-36370508D01*
X227349500Y-36370525D01*
X224216640Y-36370525D01*
X224233214Y-36358483D01*
X224358483Y-36233214D01*
X224358482Y-36233214D01*
X228183484Y-32408214D01*
X228287614Y-32264890D01*
X228287620Y-32264876D01*
X228288456Y-32263515D01*
X228288913Y-32263101D01*
X228290477Y-32260949D01*
X228290928Y-32261277D01*
X228340263Y-32216635D01*
X228360070Y-32209082D01*
X228448049Y-32183909D01*
X228628407Y-32089698D01*
X228786109Y-31961109D01*
X228914698Y-31803407D01*
X229008909Y-31623049D01*
X229064886Y-31427418D01*
X229075500Y-31308037D01*
X229075500Y-31016966D01*
X232099500Y-31016966D01*
X232099500Y-32983028D01*
X232099501Y-32983034D01*
X232110113Y-33102415D01*
X232166089Y-33298045D01*
X232166090Y-33298048D01*
X232166091Y-33298049D01*
X232260302Y-33478407D01*
X232260304Y-33478409D01*
X232388890Y-33636109D01*
X232482803Y-33712684D01*
X232546593Y-33764698D01*
X232726951Y-33858909D01*
X232922582Y-33914886D01*
X233041963Y-33925500D01*
X236658036Y-33925499D01*
X236777418Y-33914886D01*
X236973049Y-33858909D01*
X237153407Y-33764698D01*
X237311109Y-33636109D01*
X237439698Y-33478407D01*
X237533909Y-33298049D01*
X237589886Y-33102418D01*
X237600500Y-32983037D01*
X237600499Y-31016964D01*
X237589886Y-30897582D01*
X237533909Y-30701951D01*
X237439698Y-30521593D01*
X237362678Y-30427135D01*
X237311109Y-30363890D01*
X237187489Y-30263092D01*
X237153407Y-30235302D01*
X236973049Y-30141091D01*
X236973048Y-30141090D01*
X236973045Y-30141089D01*
X236841251Y-30103379D01*
X236777418Y-30085114D01*
X236777415Y-30085113D01*
X236777413Y-30085113D01*
X236711102Y-30079217D01*
X236658037Y-30074500D01*
X236658032Y-30074500D01*
X233041971Y-30074500D01*
X233041965Y-30074500D01*
X233041964Y-30074501D01*
X233030316Y-30075536D01*
X232922584Y-30085113D01*
X232726954Y-30141089D01*
X232636772Y-30188196D01*
X232546593Y-30235302D01*
X232546591Y-30235303D01*
X232546590Y-30235304D01*
X232388890Y-30363890D01*
X232260304Y-30521590D01*
X232260302Y-30521593D01*
X232225550Y-30588123D01*
X232166089Y-30701954D01*
X232131025Y-30824500D01*
X232118480Y-30868346D01*
X232110114Y-30897583D01*
X232110113Y-30897586D01*
X232104411Y-30961730D01*
X232099745Y-31014214D01*
X232099500Y-31016966D01*
X229075500Y-31016966D01*
X229075499Y-30494622D01*
X229075499Y-29691971D01*
X229075499Y-29691964D01*
X229064886Y-29572582D01*
X229011564Y-29386230D01*
X229008910Y-29376954D01*
X229008909Y-29376953D01*
X229008909Y-29376951D01*
X228914698Y-29196593D01*
X228852065Y-29119780D01*
X228786109Y-29038890D01*
X228653378Y-28930663D01*
X228628407Y-28910302D01*
X228448049Y-28816091D01*
X228448048Y-28816090D01*
X228448045Y-28816089D01*
X228305368Y-28775265D01*
X228252418Y-28760114D01*
X228252415Y-28760113D01*
X228252413Y-28760113D01*
X228186102Y-28754217D01*
X228133037Y-28749500D01*
X228133032Y-28749500D01*
X226516971Y-28749500D01*
X226516965Y-28749500D01*
X226516964Y-28749501D01*
X226505727Y-28750500D01*
X226397584Y-28760113D01*
X226201954Y-28816089D01*
X226142371Y-28847213D01*
X226021593Y-28910302D01*
X226021591Y-28910303D01*
X226021590Y-28910304D01*
X225863890Y-29038890D01*
X225735304Y-29196590D01*
X225735302Y-29196593D01*
X225717057Y-29231522D01*
X225641089Y-29376954D01*
X225585114Y-29572583D01*
X225585113Y-29572586D01*
X225577984Y-29652781D01*
X225576085Y-29674142D01*
X225574500Y-29691966D01*
X225574500Y-31308028D01*
X225574501Y-31308034D01*
X225585113Y-31427415D01*
X225641091Y-31623050D01*
X225648398Y-31637039D01*
X225661989Y-31705574D01*
X225636369Y-31770577D01*
X225626170Y-31782130D01*
X223070122Y-34338181D01*
X223008799Y-34371666D01*
X222982441Y-34374500D01*
X212517560Y-34374500D01*
X212450521Y-34354815D01*
X212429879Y-34338181D01*
X210485885Y-32394188D01*
X210452400Y-32332865D01*
X210457384Y-32263173D01*
X210499256Y-32207240D01*
X210517271Y-32196022D01*
X210545556Y-32181610D01*
X210681610Y-32112287D01*
X210712703Y-32089697D01*
X210847213Y-31991971D01*
X210847215Y-31991968D01*
X210847219Y-31991966D01*
X210991966Y-31847219D01*
X210991968Y-31847215D01*
X210991971Y-31847213D01*
X211049176Y-31768476D01*
X211112287Y-31681610D01*
X211205220Y-31499219D01*
X211268477Y-31304534D01*
X211300500Y-31102352D01*
X211300500Y-30897648D01*
X211286645Y-30810171D01*
X211268477Y-30695465D01*
X211211981Y-30521590D01*
X211205220Y-30500781D01*
X211205218Y-30500778D01*
X211205218Y-30500776D01*
X211165464Y-30422755D01*
X211147609Y-30387713D01*
X211138851Y-30370525D01*
X213149500Y-30370525D01*
X213149500Y-30629474D01*
X213149501Y-30629491D01*
X213183299Y-30886217D01*
X213183300Y-30886222D01*
X213183301Y-30886228D01*
X213198165Y-30941700D01*
X213250324Y-31136364D01*
X213349423Y-31375609D01*
X213349427Y-31375619D01*
X213478906Y-31599883D01*
X213636551Y-31805331D01*
X213636557Y-31805338D01*
X213819661Y-31988442D01*
X213819668Y-31988448D01*
X214025116Y-32146093D01*
X214249380Y-32275572D01*
X214249381Y-32275572D01*
X214249384Y-32275574D01*
X214488634Y-32374675D01*
X214738772Y-32441699D01*
X214995519Y-32475500D01*
X214995526Y-32475500D01*
X215254474Y-32475500D01*
X215254481Y-32475500D01*
X215511228Y-32441699D01*
X215761366Y-32374675D01*
X216000616Y-32275574D01*
X216224884Y-32146093D01*
X216430333Y-31988447D01*
X216613447Y-31805333D01*
X216771093Y-31599884D01*
X216900574Y-31375616D01*
X216999675Y-31136366D01*
X217066699Y-30886228D01*
X217100500Y-30629481D01*
X217100500Y-30370519D01*
X217066699Y-30113772D01*
X216999675Y-29863634D01*
X216900574Y-29624384D01*
X216891641Y-29608912D01*
X216771093Y-29400116D01*
X216613448Y-29194668D01*
X216613442Y-29194661D01*
X216430338Y-29011557D01*
X216430331Y-29011551D01*
X216224883Y-28853906D01*
X216000619Y-28724427D01*
X216000609Y-28724423D01*
X215761364Y-28625324D01*
X215636297Y-28591813D01*
X215511228Y-28558301D01*
X215511222Y-28558300D01*
X215511217Y-28558299D01*
X215254491Y-28524501D01*
X215254486Y-28524500D01*
X215254481Y-28524500D01*
X214995519Y-28524500D01*
X214995513Y-28524500D01*
X214995508Y-28524501D01*
X214738782Y-28558299D01*
X214738775Y-28558300D01*
X214738772Y-28558301D01*
X214699175Y-28568911D01*
X214488635Y-28625324D01*
X214249390Y-28724423D01*
X214249380Y-28724427D01*
X214025116Y-28853906D01*
X213819668Y-29011551D01*
X213819661Y-29011557D01*
X213636557Y-29194661D01*
X213636551Y-29194668D01*
X213478906Y-29400116D01*
X213349427Y-29624380D01*
X213349423Y-29624390D01*
X213250324Y-29863635D01*
X213183302Y-30113769D01*
X213183299Y-30113782D01*
X213149501Y-30370508D01*
X213149500Y-30370525D01*
X211138851Y-30370525D01*
X211112287Y-30318390D01*
X211080955Y-30275265D01*
X210991971Y-30152786D01*
X210847213Y-30008028D01*
X210681613Y-29887715D01*
X210681612Y-29887714D01*
X210681610Y-29887713D01*
X210624653Y-29858691D01*
X210499223Y-29794781D01*
X210304534Y-29731522D01*
X210129995Y-29703878D01*
X210102352Y-29699500D01*
X209897648Y-29699500D01*
X209830254Y-29710174D01*
X209695464Y-29731523D01*
X209658816Y-29743431D01*
X209620498Y-29749500D01*
X203901578Y-29749500D01*
X203707173Y-29780290D01*
X203519969Y-29841117D01*
X203344591Y-29930478D01*
X203185361Y-30046164D01*
X202884109Y-30347415D01*
X202852728Y-30370215D01*
X202818386Y-30387714D01*
X202652786Y-30508028D01*
X202508028Y-30652786D01*
X202387715Y-30818386D01*
X202362259Y-30868346D01*
X202347113Y-30884382D01*
X202335751Y-30903286D01*
X202323593Y-30909285D01*
X202314284Y-30919142D01*
X202292872Y-30924444D01*
X202273094Y-30934204D01*
X202259622Y-30932678D01*
X202246463Y-30935937D01*
X202225587Y-30928822D01*
X202203669Y-30926340D01*
X202184510Y-30914824D01*
X202180328Y-30913399D01*
X202173418Y-30908157D01*
X202171144Y-30906303D01*
X202131624Y-30848684D01*
X202125500Y-30810197D01*
X202125500Y-29075315D01*
X202139015Y-29019020D01*
X202139360Y-29018344D01*
X202158884Y-28980025D01*
X202219709Y-28792826D01*
X202223142Y-28771152D01*
X202250500Y-28598422D01*
X202250500Y-27624000D01*
X202270185Y-27556961D01*
X202322989Y-27511206D01*
X202374500Y-27500000D01*
X242500000Y-27500000D01*
X243853721Y-26146279D01*
X243915044Y-26112794D01*
X243984736Y-26117778D01*
X244040669Y-26159650D01*
X244065086Y-26225114D01*
X244065402Y-26233960D01*
X244065402Y-27286398D01*
X244045717Y-27353437D01*
X243992913Y-27399192D01*
X243988303Y-27401047D01*
X243780377Y-27495491D01*
X243780367Y-27495497D01*
X243595354Y-27623674D01*
X243595342Y-27623684D01*
X243436184Y-27782842D01*
X243436174Y-27782854D01*
X243307997Y-27967867D01*
X243307991Y-27967877D01*
X243214903Y-28172818D01*
X243214902Y-28172821D01*
X243159905Y-28391079D01*
X243159904Y-28391086D01*
X243149500Y-28523277D01*
X243149500Y-29476708D01*
X243149501Y-29476723D01*
X243159904Y-29608913D01*
X243159905Y-29608920D01*
X243214902Y-29827178D01*
X243214903Y-29827181D01*
X243307991Y-30032122D01*
X243307997Y-30032132D01*
X243436174Y-30217145D01*
X243436178Y-30217150D01*
X243436181Y-30217154D01*
X243595346Y-30376319D01*
X243595350Y-30376322D01*
X243595354Y-30376325D01*
X243675888Y-30432119D01*
X243780374Y-30504507D01*
X243985317Y-30597596D01*
X243985321Y-30597597D01*
X244203579Y-30652594D01*
X244203581Y-30652594D01*
X244203588Y-30652596D01*
X244335783Y-30663000D01*
X246664216Y-30662999D01*
X246796412Y-30652596D01*
X247014683Y-30597596D01*
X247219626Y-30504507D01*
X247404654Y-30376319D01*
X247563819Y-30217154D01*
X247692007Y-30032126D01*
X247785096Y-29827183D01*
X247840096Y-29608912D01*
X247850500Y-29476717D01*
X247850499Y-28523284D01*
X247840096Y-28391088D01*
X247838287Y-28383910D01*
X247785097Y-28172821D01*
X247785096Y-28172818D01*
X247768949Y-28137270D01*
X247692007Y-27967874D01*
X247590714Y-27821666D01*
X247563825Y-27782854D01*
X247563822Y-27782850D01*
X247563819Y-27782846D01*
X247404654Y-27623681D01*
X247404650Y-27623678D01*
X247404645Y-27623674D01*
X247219632Y-27495497D01*
X247219630Y-27495495D01*
X247219626Y-27495493D01*
X247203323Y-27488088D01*
X247014681Y-27402403D01*
X247014678Y-27402402D01*
X246796420Y-27347405D01*
X246796414Y-27347404D01*
X246680672Y-27338295D01*
X246615384Y-27313411D01*
X246573914Y-27257179D01*
X246566402Y-27214677D01*
X246566402Y-25711671D01*
X246586087Y-25644632D01*
X246614919Y-25613293D01*
X246621235Y-25608447D01*
X246804349Y-25425333D01*
X246961995Y-25219884D01*
X247091476Y-24995616D01*
X247190577Y-24756366D01*
X247257601Y-24506228D01*
X247291402Y-24249481D01*
X247291402Y-23990519D01*
X247257601Y-23733772D01*
X247190577Y-23483634D01*
X247091476Y-23244384D01*
X247080573Y-23225500D01*
X246961995Y-23020116D01*
X246804350Y-22814668D01*
X246804344Y-22814661D01*
X246621240Y-22631557D01*
X246621233Y-22631551D01*
X246415785Y-22473906D01*
X246191521Y-22344427D01*
X246191511Y-22344423D01*
X245952266Y-22245324D01*
X245827199Y-22211813D01*
X245702130Y-22178301D01*
X245702124Y-22178300D01*
X245702119Y-22178299D01*
X245445393Y-22144501D01*
X245445388Y-22144500D01*
X245445383Y-22144500D01*
X245186421Y-22144500D01*
X245186418Y-22144500D01*
X245140183Y-22150586D01*
X245071148Y-22139819D01*
X245018893Y-22093438D01*
X245000000Y-22027647D01*
X245000000Y-5892352D01*
X245019685Y-5825313D01*
X245072489Y-5779558D01*
X245140185Y-5769413D01*
X245163558Y-5772490D01*
X245186405Y-5775498D01*
X245186421Y-5775500D01*
X245186428Y-5775500D01*
X245445376Y-5775500D01*
X245445383Y-5775500D01*
X245702130Y-5741699D01*
X245952268Y-5674675D01*
X246191518Y-5575574D01*
X246415786Y-5446093D01*
X246621235Y-5288447D01*
X246804349Y-5105333D01*
X246961995Y-4899884D01*
X247091476Y-4675616D01*
X247190577Y-4436366D01*
X247257601Y-4186228D01*
X247291402Y-3929481D01*
X247291402Y-3670519D01*
X247257601Y-3413772D01*
X247190577Y-3163634D01*
X247091476Y-2924384D01*
X247038345Y-2832359D01*
X246961995Y-2700116D01*
X246804350Y-2494668D01*
X246804344Y-2494661D01*
X246621240Y-2311557D01*
X246621233Y-2311551D01*
X246415785Y-2153906D01*
X246191521Y-2024427D01*
X246191511Y-2024423D01*
X245952268Y-1925325D01*
X245861924Y-1901117D01*
X245802263Y-1864751D01*
X245771735Y-1801904D01*
X245780030Y-1732529D01*
X245806332Y-1693667D01*
X246963181Y-536819D01*
X247024504Y-503334D01*
X247050862Y-500500D01*
X251216254Y-500500D01*
X251283293Y-520185D01*
G37*
%TD.AperFunction*%
%TA.AperFunction,Conductor*%
G36*
X54823703Y-36695185D02*
G01*
X54869458Y-36747989D01*
X54879402Y-36817147D01*
X54850377Y-36880703D01*
X54844345Y-36887181D01*
X53476847Y-38254678D01*
X53415524Y-38288163D01*
X53345832Y-38283179D01*
X53289899Y-38241307D01*
X53270470Y-38199941D01*
X53269983Y-38200100D01*
X53268720Y-38196215D01*
X53268591Y-38195939D01*
X53268477Y-38195467D01*
X53268477Y-38195466D01*
X53205220Y-38000781D01*
X53205218Y-38000778D01*
X53205218Y-38000776D01*
X53163284Y-37918477D01*
X53112287Y-37818390D01*
X53061705Y-37748769D01*
X52991971Y-37652786D01*
X52847213Y-37508028D01*
X52681613Y-37387715D01*
X52681612Y-37387714D01*
X52681610Y-37387713D01*
X52570595Y-37331148D01*
X52499222Y-37294781D01*
X52416883Y-37268027D01*
X52398602Y-37255526D01*
X52378086Y-37247199D01*
X52370325Y-37236190D01*
X52359208Y-37228588D01*
X52350587Y-37208190D01*
X52337830Y-37190092D01*
X52337253Y-37176637D01*
X52332010Y-37164230D01*
X52335786Y-37142410D01*
X52334838Y-37120287D01*
X52341628Y-37108654D01*
X52343925Y-37095383D01*
X52358898Y-37079068D01*
X52370062Y-37059945D01*
X52388160Y-37047186D01*
X52391170Y-37043908D01*
X52398870Y-37039631D01*
X52449149Y-37014012D01*
X52505441Y-37000499D01*
X52608028Y-37000499D01*
X52608036Y-37000499D01*
X52727418Y-36989886D01*
X52923049Y-36933909D01*
X52942589Y-36923701D01*
X53011123Y-36910111D01*
X53057409Y-36923701D01*
X53076951Y-36933909D01*
X53272582Y-36989886D01*
X53391963Y-37000500D01*
X53908036Y-37000499D01*
X54027418Y-36989886D01*
X54223049Y-36933909D01*
X54403407Y-36839698D01*
X54561109Y-36711109D01*
X54561108Y-36711109D01*
X54565983Y-36707135D01*
X54566905Y-36708266D01*
X54587327Y-36697115D01*
X54613146Y-36680523D01*
X54619346Y-36679631D01*
X54621723Y-36678334D01*
X54648081Y-36675500D01*
X54756664Y-36675500D01*
X54823703Y-36695185D01*
G37*
%TD.AperFunction*%
%TA.AperFunction,Conductor*%
G36*
X69497703Y-11770185D02*
G01*
X69518345Y-11786819D01*
X78269345Y-20537819D01*
X78302830Y-20599142D01*
X78297846Y-20668834D01*
X78255974Y-20724767D01*
X78190510Y-20749184D01*
X78181664Y-20749500D01*
X76776578Y-20749500D01*
X76582173Y-20780290D01*
X76394969Y-20841117D01*
X76219594Y-20930476D01*
X76137281Y-20990281D01*
X76060354Y-21046172D01*
X76060352Y-21046174D01*
X76060351Y-21046174D01*
X70116243Y-26990281D01*
X70054920Y-27023766D01*
X70012381Y-27025540D01*
X70004481Y-27024500D01*
X69745519Y-27024500D01*
X69745513Y-27024500D01*
X69745508Y-27024501D01*
X69488782Y-27058299D01*
X69488775Y-27058300D01*
X69488772Y-27058301D01*
X69435908Y-27072465D01*
X69238635Y-27125324D01*
X68999390Y-27224423D01*
X68999380Y-27224427D01*
X68775116Y-27353906D01*
X68569668Y-27511551D01*
X68569661Y-27511557D01*
X68386557Y-27694661D01*
X68386551Y-27694668D01*
X68228906Y-27900116D01*
X68099427Y-28124380D01*
X68099423Y-28124390D01*
X68000324Y-28363635D01*
X67977049Y-28450500D01*
X67935003Y-28607422D01*
X67933302Y-28613769D01*
X67933299Y-28613782D01*
X67899501Y-28870508D01*
X67899500Y-28870525D01*
X67899500Y-29129474D01*
X67899501Y-29129491D01*
X67933299Y-29386217D01*
X67933300Y-29386222D01*
X67933301Y-29386228D01*
X67957834Y-29477786D01*
X68000324Y-29636364D01*
X68099423Y-29875609D01*
X68099427Y-29875619D01*
X68228906Y-30099883D01*
X68386551Y-30305331D01*
X68386557Y-30305338D01*
X68569661Y-30488442D01*
X68569668Y-30488448D01*
X68775116Y-30646093D01*
X68999380Y-30775572D01*
X68999381Y-30775572D01*
X68999384Y-30775574D01*
X69238634Y-30874675D01*
X69488772Y-30941699D01*
X69745519Y-30975500D01*
X69745526Y-30975500D01*
X70004474Y-30975500D01*
X70004481Y-30975500D01*
X70261228Y-30941699D01*
X70511366Y-30874675D01*
X70750616Y-30775574D01*
X70974884Y-30646093D01*
X71180333Y-30488447D01*
X71363447Y-30305333D01*
X71521093Y-30099884D01*
X71650574Y-29875616D01*
X71749675Y-29636366D01*
X71816699Y-29386228D01*
X71850500Y-29129481D01*
X71850500Y-28870519D01*
X71849460Y-28862621D01*
X71860224Y-28793588D01*
X71884715Y-28758757D01*
X77356655Y-23286819D01*
X77417978Y-23253334D01*
X77444336Y-23250500D01*
X96287746Y-23250500D01*
X96354785Y-23270185D01*
X96400540Y-23322989D01*
X96410484Y-23392147D01*
X96381459Y-23455703D01*
X96341547Y-23486220D01*
X96088560Y-23608051D01*
X95850753Y-23757476D01*
X95631175Y-23932583D01*
X95432583Y-24131175D01*
X95257476Y-24350753D01*
X95108053Y-24588557D01*
X94986200Y-24841588D01*
X94893443Y-25106670D01*
X94893439Y-25106682D01*
X94830945Y-25380487D01*
X94830942Y-25380505D01*
X94799500Y-25659568D01*
X94799500Y-25940431D01*
X94830942Y-26219494D01*
X94830945Y-26219512D01*
X94893439Y-26493317D01*
X94893443Y-26493329D01*
X94986200Y-26758411D01*
X95108053Y-27011442D01*
X95121926Y-27033521D01*
X95257477Y-27249248D01*
X95378533Y-27401047D01*
X95432583Y-27468824D01*
X95501578Y-27537819D01*
X95535063Y-27599142D01*
X95530079Y-27668834D01*
X95488207Y-27724767D01*
X95422743Y-27749184D01*
X95413897Y-27749500D01*
X92922379Y-27749500D01*
X92855340Y-27729815D01*
X92809585Y-27677011D01*
X92799641Y-27607853D01*
X92799886Y-27606222D01*
X92800500Y-27602352D01*
X92800500Y-27397648D01*
X92783898Y-27292826D01*
X92768477Y-27195465D01*
X92715858Y-27033521D01*
X92705220Y-27000781D01*
X92705218Y-27000778D01*
X92705218Y-27000776D01*
X92612284Y-26818384D01*
X92610083Y-26814793D01*
X92591836Y-26747348D01*
X92610083Y-26685207D01*
X92612284Y-26681615D01*
X92626974Y-26652786D01*
X92705220Y-26499219D01*
X92768477Y-26304534D01*
X92800500Y-26102352D01*
X92800500Y-25897648D01*
X92785752Y-25804534D01*
X92768477Y-25695465D01*
X92705218Y-25500776D01*
X92643927Y-25380487D01*
X92612287Y-25318390D01*
X92602220Y-25304534D01*
X92491971Y-25152786D01*
X92347213Y-25008028D01*
X92181613Y-24887715D01*
X92181612Y-24887714D01*
X92181610Y-24887713D01*
X92116934Y-24854759D01*
X91999223Y-24794781D01*
X91804534Y-24731522D01*
X91629995Y-24703878D01*
X91602352Y-24699500D01*
X91397648Y-24699500D01*
X91330254Y-24710174D01*
X91195464Y-24731523D01*
X91158816Y-24743431D01*
X91120498Y-24749500D01*
X78401578Y-24749500D01*
X78207173Y-24780290D01*
X78019969Y-24841117D01*
X77844594Y-24930476D01*
X77785807Y-24973188D01*
X77685354Y-25046172D01*
X77685352Y-25046174D01*
X77685351Y-25046174D01*
X70123036Y-32608489D01*
X70061713Y-32641974D01*
X69992021Y-32636990D01*
X69947674Y-32608489D01*
X69847213Y-32508028D01*
X69681613Y-32387715D01*
X69681612Y-32387714D01*
X69681610Y-32387713D01*
X69612499Y-32352499D01*
X69499223Y-32294781D01*
X69337407Y-32242204D01*
X69279732Y-32202766D01*
X69257795Y-32162591D01*
X69205220Y-32000781D01*
X69112287Y-31818390D01*
X69077549Y-31770577D01*
X68991971Y-31652786D01*
X68847213Y-31508028D01*
X68681613Y-31387715D01*
X68681612Y-31387714D01*
X68681610Y-31387713D01*
X68624653Y-31358691D01*
X68499223Y-31294781D01*
X68304534Y-31231522D01*
X68129995Y-31203878D01*
X68102352Y-31199500D01*
X67897648Y-31199500D01*
X67873329Y-31203351D01*
X67695465Y-31231522D01*
X67500776Y-31294781D01*
X67468977Y-31310985D01*
X67412682Y-31324500D01*
X58907486Y-31324500D01*
X58764083Y-31347213D01*
X58764045Y-31347219D01*
X58724734Y-31353445D01*
X58548766Y-31410619D01*
X58548763Y-31410620D01*
X58383900Y-31494624D01*
X58234218Y-31603372D01*
X58234214Y-31603376D01*
X55549411Y-34288181D01*
X55488088Y-34321666D01*
X55461730Y-34324500D01*
X54961719Y-34324500D01*
X54948721Y-34320683D01*
X54935208Y-34321633D01*
X54915851Y-34311031D01*
X54894680Y-34304815D01*
X54885809Y-34294577D01*
X54873927Y-34288070D01*
X54863375Y-34268687D01*
X54848925Y-34252011D01*
X54846276Y-34237279D01*
X54840520Y-34226705D01*
X54840179Y-34203368D01*
X54838046Y-34191498D01*
X54838792Y-34181238D01*
X54839886Y-34177418D01*
X54850500Y-34058037D01*
X54850499Y-34020416D01*
X54850826Y-34015930D01*
X54853958Y-34007564D01*
X54858450Y-33985009D01*
X54857378Y-33984661D01*
X54919708Y-33792830D01*
X54919708Y-33792829D01*
X54919709Y-33792826D01*
X54941262Y-33656744D01*
X54950500Y-33598422D01*
X54950500Y-33544335D01*
X54970185Y-33477296D01*
X54986814Y-33456659D01*
X57656655Y-30786817D01*
X57717978Y-30753333D01*
X57744336Y-30750499D01*
X58483028Y-30750499D01*
X58483036Y-30750499D01*
X58602418Y-30739886D01*
X58798049Y-30683909D01*
X58978407Y-30589698D01*
X59136109Y-30461109D01*
X59264698Y-30303407D01*
X59358909Y-30123049D01*
X59414886Y-29927418D01*
X59425500Y-29808037D01*
X59425499Y-28191964D01*
X59414886Y-28072582D01*
X59361603Y-27886366D01*
X59358910Y-27876954D01*
X59358909Y-27876953D01*
X59358909Y-27876951D01*
X59264698Y-27696593D01*
X59205240Y-27623674D01*
X59136109Y-27538890D01*
X58978409Y-27410304D01*
X58978410Y-27410304D01*
X58978407Y-27410302D01*
X58798049Y-27316091D01*
X58798048Y-27316090D01*
X58798045Y-27316089D01*
X58670260Y-27279526D01*
X58602418Y-27260114D01*
X58602415Y-27260113D01*
X58602413Y-27260113D01*
X58536102Y-27254217D01*
X58483037Y-27249500D01*
X58483032Y-27249500D01*
X56866971Y-27249500D01*
X56866965Y-27249500D01*
X56866964Y-27249501D01*
X56855316Y-27250536D01*
X56747584Y-27260113D01*
X56551954Y-27316089D01*
X56479558Y-27353906D01*
X56371593Y-27410302D01*
X56371591Y-27410303D01*
X56371590Y-27410304D01*
X56213890Y-27538890D01*
X56085304Y-27696590D01*
X56085302Y-27696593D01*
X56057831Y-27749184D01*
X55991089Y-27876954D01*
X55954907Y-28003407D01*
X55936498Y-28067747D01*
X55935114Y-28072583D01*
X55935113Y-28072586D01*
X55924500Y-28191964D01*
X55924500Y-28930663D01*
X55904815Y-28997702D01*
X55888181Y-29018344D01*
X53637373Y-31269151D01*
X53576050Y-31302636D01*
X53506358Y-31297652D01*
X53502243Y-31296033D01*
X53499219Y-31294780D01*
X53304534Y-31231522D01*
X53129995Y-31203878D01*
X53102352Y-31199500D01*
X52897648Y-31199500D01*
X52873329Y-31203351D01*
X52695465Y-31231522D01*
X52500776Y-31294781D01*
X52318386Y-31387715D01*
X52223243Y-31456840D01*
X52157436Y-31480320D01*
X52089383Y-31464494D01*
X52062677Y-31444203D01*
X51664648Y-31046174D01*
X51664646Y-31046172D01*
X51505405Y-30930476D01*
X51483161Y-30919142D01*
X51330030Y-30841117D01*
X51142826Y-30780290D01*
X50948422Y-30749500D01*
X50948417Y-30749500D01*
X49205415Y-30749500D01*
X49138376Y-30729815D01*
X49092621Y-30677011D01*
X49082677Y-30607853D01*
X49111702Y-30544297D01*
X49129928Y-30527124D01*
X49137140Y-30521590D01*
X49180333Y-30488447D01*
X49363447Y-30305333D01*
X49456042Y-30184659D01*
X49498117Y-30149665D01*
X49655405Y-30069524D01*
X49814646Y-29953828D01*
X51953828Y-27814646D01*
X52069524Y-27655405D01*
X52158884Y-27480026D01*
X52219709Y-27292826D01*
X52221026Y-27284510D01*
X52250500Y-27098422D01*
X52250500Y-22870525D01*
X53699500Y-22870525D01*
X53699500Y-23129474D01*
X53699501Y-23129491D01*
X53733299Y-23386217D01*
X53733300Y-23386222D01*
X53733301Y-23386228D01*
X53747548Y-23439398D01*
X53800324Y-23636364D01*
X53899423Y-23875609D01*
X53899427Y-23875619D01*
X54028906Y-24099883D01*
X54186551Y-24305331D01*
X54186557Y-24305338D01*
X54369661Y-24488442D01*
X54369668Y-24488448D01*
X54575116Y-24646093D01*
X54799380Y-24775572D01*
X54799381Y-24775572D01*
X54799384Y-24775574D01*
X55038634Y-24874675D01*
X55288772Y-24941699D01*
X55545519Y-24975500D01*
X55545526Y-24975500D01*
X55804474Y-24975500D01*
X55804481Y-24975500D01*
X56061228Y-24941699D01*
X56311366Y-24874675D01*
X56550616Y-24775574D01*
X56774884Y-24646093D01*
X56980333Y-24488447D01*
X57163447Y-24305333D01*
X57321093Y-24099884D01*
X57450574Y-23875616D01*
X57549675Y-23636366D01*
X57616699Y-23386228D01*
X57650500Y-23129481D01*
X57650500Y-22870519D01*
X57616699Y-22613772D01*
X57549675Y-22363634D01*
X57450574Y-22124384D01*
X57437853Y-22102351D01*
X57321093Y-21900116D01*
X57163448Y-21694668D01*
X57163442Y-21694661D01*
X56980338Y-21511557D01*
X56980331Y-21511551D01*
X56774883Y-21353906D01*
X56550619Y-21224427D01*
X56550609Y-21224423D01*
X56311364Y-21125324D01*
X56186297Y-21091813D01*
X56061228Y-21058301D01*
X56061222Y-21058300D01*
X56061217Y-21058299D01*
X55804491Y-21024501D01*
X55804486Y-21024500D01*
X55804481Y-21024500D01*
X55545519Y-21024500D01*
X55545513Y-21024500D01*
X55545508Y-21024501D01*
X55288782Y-21058299D01*
X55288775Y-21058300D01*
X55288772Y-21058301D01*
X55235908Y-21072465D01*
X55038635Y-21125324D01*
X54799390Y-21224423D01*
X54799380Y-21224427D01*
X54575116Y-21353906D01*
X54369668Y-21511551D01*
X54369661Y-21511557D01*
X54186557Y-21694661D01*
X54186551Y-21694668D01*
X54028906Y-21900116D01*
X53899427Y-22124380D01*
X53899423Y-22124390D01*
X53800324Y-22363635D01*
X53733302Y-22613769D01*
X53733299Y-22613782D01*
X53699501Y-22870508D01*
X53699500Y-22870525D01*
X52250500Y-22870525D01*
X52250500Y-18069336D01*
X52270185Y-18002297D01*
X52286819Y-17981655D01*
X53383216Y-16885258D01*
X55924500Y-16885258D01*
X55924500Y-17114741D01*
X55944268Y-17264888D01*
X55954452Y-17342238D01*
X55987952Y-17467262D01*
X56013842Y-17563887D01*
X56101650Y-17775876D01*
X56101657Y-17775890D01*
X56144733Y-17850500D01*
X56196231Y-17939698D01*
X56216392Y-17974617D01*
X56356081Y-18156661D01*
X56356089Y-18156670D01*
X56518330Y-18318911D01*
X56518338Y-18318918D01*
X56518339Y-18318919D01*
X56540044Y-18335574D01*
X56700382Y-18458607D01*
X56700385Y-18458608D01*
X56700388Y-18458611D01*
X56899112Y-18573344D01*
X56899117Y-18573346D01*
X56899123Y-18573349D01*
X56990480Y-18611190D01*
X57111113Y-18661158D01*
X57332762Y-18720548D01*
X57560266Y-18750500D01*
X57560273Y-18750500D01*
X57789727Y-18750500D01*
X57789734Y-18750500D01*
X58017238Y-18720548D01*
X58238887Y-18661158D01*
X58450888Y-18573344D01*
X58649612Y-18458611D01*
X58831661Y-18318919D01*
X58831665Y-18318914D01*
X58831670Y-18318911D01*
X58993911Y-18156670D01*
X58993914Y-18156665D01*
X58993919Y-18156661D01*
X59133611Y-17974612D01*
X59248344Y-17775888D01*
X59336158Y-17563887D01*
X59395548Y-17342238D01*
X59425500Y-17114734D01*
X59425500Y-16885266D01*
X59423559Y-16870525D01*
X67899500Y-16870525D01*
X67899500Y-17129474D01*
X67899501Y-17129491D01*
X67933299Y-17386217D01*
X67933300Y-17386222D01*
X67933301Y-17386228D01*
X67966813Y-17511297D01*
X68000324Y-17636364D01*
X68099423Y-17875609D01*
X68099427Y-17875619D01*
X68228906Y-18099883D01*
X68386551Y-18305331D01*
X68386557Y-18305338D01*
X68569661Y-18488442D01*
X68569668Y-18488448D01*
X68775116Y-18646093D01*
X68999380Y-18775572D01*
X68999381Y-18775572D01*
X68999384Y-18775574D01*
X69238634Y-18874675D01*
X69488772Y-18941699D01*
X69745519Y-18975500D01*
X69745526Y-18975500D01*
X70004474Y-18975500D01*
X70004481Y-18975500D01*
X70261228Y-18941699D01*
X70511366Y-18874675D01*
X70750616Y-18775574D01*
X70974884Y-18646093D01*
X71180333Y-18488447D01*
X71363447Y-18305333D01*
X71521093Y-18099884D01*
X71650574Y-17875616D01*
X71749675Y-17636366D01*
X71816699Y-17386228D01*
X71850500Y-17129481D01*
X71850500Y-16870519D01*
X71816699Y-16613772D01*
X71749675Y-16363634D01*
X71650574Y-16124384D01*
X71633588Y-16094964D01*
X71521093Y-15900116D01*
X71363448Y-15694668D01*
X71363442Y-15694661D01*
X71180338Y-15511557D01*
X71180331Y-15511551D01*
X70974883Y-15353906D01*
X70750619Y-15224427D01*
X70750609Y-15224423D01*
X70511364Y-15125324D01*
X70386297Y-15091813D01*
X70261228Y-15058301D01*
X70261222Y-15058300D01*
X70261217Y-15058299D01*
X70004491Y-15024501D01*
X70004486Y-15024500D01*
X70004481Y-15024500D01*
X69745519Y-15024500D01*
X69745513Y-15024500D01*
X69745508Y-15024501D01*
X69488782Y-15058299D01*
X69488775Y-15058300D01*
X69488772Y-15058301D01*
X69439315Y-15071553D01*
X69238635Y-15125324D01*
X68999390Y-15224423D01*
X68999380Y-15224427D01*
X68775116Y-15353906D01*
X68569668Y-15511551D01*
X68569661Y-15511557D01*
X68386557Y-15694661D01*
X68386551Y-15694668D01*
X68228906Y-15900116D01*
X68099427Y-16124380D01*
X68099423Y-16124390D01*
X68000324Y-16363635D01*
X67933302Y-16613769D01*
X67933299Y-16613782D01*
X67899501Y-16870508D01*
X67899500Y-16870525D01*
X59423559Y-16870525D01*
X59395548Y-16657762D01*
X59336158Y-16436113D01*
X59248344Y-16224112D01*
X59133611Y-16025388D01*
X59133608Y-16025385D01*
X59133607Y-16025382D01*
X58993918Y-15843338D01*
X58993911Y-15843330D01*
X58831670Y-15681089D01*
X58831661Y-15681081D01*
X58649617Y-15541392D01*
X58450890Y-15426657D01*
X58450876Y-15426650D01*
X58238887Y-15338842D01*
X58205119Y-15329794D01*
X58017238Y-15279452D01*
X57979215Y-15274446D01*
X57789741Y-15249500D01*
X57789734Y-15249500D01*
X57560266Y-15249500D01*
X57560258Y-15249500D01*
X57343715Y-15278009D01*
X57332762Y-15279452D01*
X57239076Y-15304554D01*
X57111112Y-15338842D01*
X56899123Y-15426650D01*
X56899109Y-15426657D01*
X56700382Y-15541392D01*
X56518338Y-15681081D01*
X56356081Y-15843338D01*
X56216392Y-16025382D01*
X56101657Y-16224109D01*
X56101650Y-16224123D01*
X56013842Y-16436112D01*
X55981897Y-16555333D01*
X55957735Y-16645512D01*
X55954453Y-16657759D01*
X55954451Y-16657770D01*
X55924500Y-16885258D01*
X53383216Y-16885258D01*
X55481655Y-14786819D01*
X55542978Y-14753334D01*
X55569336Y-14750500D01*
X66620498Y-14750500D01*
X66658816Y-14756569D01*
X66672260Y-14760937D01*
X66695466Y-14768477D01*
X66897648Y-14800500D01*
X66897649Y-14800500D01*
X67102351Y-14800500D01*
X67102352Y-14800500D01*
X67304534Y-14768477D01*
X67499219Y-14705220D01*
X67681610Y-14612287D01*
X67805206Y-14522490D01*
X67847213Y-14491971D01*
X67847215Y-14491968D01*
X67847219Y-14491966D01*
X67991966Y-14347219D01*
X67991968Y-14347215D01*
X67991971Y-14347213D01*
X68086824Y-14216657D01*
X68112287Y-14181610D01*
X68205220Y-13999219D01*
X68268477Y-13804534D01*
X68300500Y-13602352D01*
X68300500Y-13397648D01*
X68268477Y-13195466D01*
X68205220Y-13000781D01*
X68205218Y-13000778D01*
X68205218Y-13000776D01*
X68171503Y-12934607D01*
X68112287Y-12818390D01*
X68096449Y-12796590D01*
X67991971Y-12652786D01*
X67847213Y-12508028D01*
X67681613Y-12387715D01*
X67681612Y-12387714D01*
X67681610Y-12387713D01*
X67499219Y-12294780D01*
X67381961Y-12256680D01*
X67324286Y-12217243D01*
X67297088Y-12152885D01*
X67297806Y-12119354D01*
X67300500Y-12102352D01*
X67300500Y-11897648D01*
X67299905Y-11893893D01*
X67308861Y-11824603D01*
X67353858Y-11771152D01*
X67420610Y-11750513D01*
X67422379Y-11750500D01*
X69430664Y-11750500D01*
X69497703Y-11770185D01*
G37*
%TD.AperFunction*%
%TA.AperFunction,Conductor*%
G36*
X195015677Y-25019685D02*
G01*
X195036319Y-25036319D01*
X197500000Y-27500000D01*
X199625500Y-27500000D01*
X199692539Y-27519685D01*
X199738294Y-27572489D01*
X199749500Y-27624000D01*
X199749500Y-28598422D01*
X199780290Y-28792826D01*
X199841117Y-28980029D01*
X199851548Y-29000500D01*
X199860640Y-29018344D01*
X199860985Y-29019020D01*
X199874500Y-29075315D01*
X199874500Y-30552049D01*
X199854815Y-30619088D01*
X199802011Y-30664843D01*
X199736709Y-30675280D01*
X199726381Y-30674124D01*
X199677418Y-30660114D01*
X199558037Y-30649500D01*
X199506350Y-30649500D01*
X199499479Y-30648731D01*
X199473379Y-30637786D01*
X199446231Y-30629815D01*
X199437402Y-30622700D01*
X199435045Y-30621712D01*
X199433638Y-30619667D01*
X199425589Y-30613181D01*
X198915789Y-30103381D01*
X198915787Y-30103379D01*
X198766096Y-29994622D01*
X198730856Y-29976666D01*
X198601236Y-29910620D01*
X198601233Y-29910619D01*
X198425265Y-29853445D01*
X198333889Y-29838972D01*
X198242514Y-29824500D01*
X192657486Y-29824500D01*
X192596569Y-29834148D01*
X192474734Y-29853445D01*
X192298767Y-29910619D01*
X192298764Y-29910620D01*
X192169143Y-29976666D01*
X192169124Y-29976676D01*
X192167488Y-29977510D01*
X192133904Y-29994622D01*
X192126243Y-30000187D01*
X192119333Y-30003976D01*
X192113658Y-30005220D01*
X192098041Y-30013176D01*
X192001600Y-30044514D01*
X192000781Y-30044780D01*
X191921623Y-30085113D01*
X191818385Y-30137715D01*
X191652786Y-30258028D01*
X191652782Y-30258032D01*
X191512181Y-30398634D01*
X191450858Y-30432119D01*
X191381166Y-30427135D01*
X191325233Y-30385263D01*
X191300816Y-30319799D01*
X191300500Y-30310953D01*
X191300500Y-30222648D01*
X191268477Y-30020465D01*
X191232786Y-29910620D01*
X191205220Y-29825781D01*
X191205218Y-29825778D01*
X191205218Y-29825776D01*
X191163466Y-29743834D01*
X191112287Y-29643390D01*
X191098483Y-29624390D01*
X190991971Y-29477786D01*
X190847213Y-29333028D01*
X190681613Y-29212715D01*
X190681612Y-29212714D01*
X190681610Y-29212713D01*
X190601304Y-29171795D01*
X190499219Y-29119779D01*
X190474799Y-29111845D01*
X190417124Y-29072407D01*
X190389927Y-29008048D01*
X190401842Y-28939202D01*
X190449087Y-28887727D01*
X190465660Y-28879357D01*
X190600888Y-28823344D01*
X190799612Y-28708611D01*
X190981661Y-28568919D01*
X190981665Y-28568914D01*
X190981670Y-28568911D01*
X191143911Y-28406670D01*
X191143914Y-28406665D01*
X191143919Y-28406661D01*
X191283611Y-28224612D01*
X191398344Y-28025888D01*
X191486158Y-27813887D01*
X191545548Y-27592238D01*
X191575500Y-27364734D01*
X191575500Y-27135266D01*
X191545548Y-26907762D01*
X191486158Y-26686113D01*
X191414490Y-26513091D01*
X191398349Y-26474123D01*
X191398346Y-26474117D01*
X191398344Y-26474112D01*
X191283611Y-26275388D01*
X191283608Y-26275385D01*
X191283607Y-26275382D01*
X191143918Y-26093338D01*
X191143911Y-26093330D01*
X190981670Y-25931089D01*
X190981661Y-25931081D01*
X190799617Y-25791392D01*
X190600890Y-25676657D01*
X190600876Y-25676650D01*
X190388887Y-25588842D01*
X190167238Y-25529452D01*
X190129215Y-25524446D01*
X189939741Y-25499500D01*
X189939734Y-25499500D01*
X189710266Y-25499500D01*
X189710258Y-25499500D01*
X189493715Y-25528009D01*
X189482762Y-25529452D01*
X189389076Y-25554554D01*
X189261112Y-25588842D01*
X189049123Y-25676650D01*
X189049109Y-25676657D01*
X188850382Y-25791392D01*
X188668338Y-25931081D01*
X188506081Y-26093338D01*
X188366392Y-26275382D01*
X188251657Y-26474109D01*
X188251650Y-26474123D01*
X188163842Y-26686112D01*
X188134725Y-26794780D01*
X188104898Y-26906100D01*
X188104453Y-26907759D01*
X188104451Y-26907770D01*
X188074500Y-27135258D01*
X188074500Y-27364741D01*
X188096881Y-27534732D01*
X188104452Y-27592238D01*
X188132112Y-27695466D01*
X188163842Y-27813887D01*
X188251650Y-28025876D01*
X188251657Y-28025890D01*
X188366392Y-28224617D01*
X188506081Y-28406661D01*
X188506089Y-28406670D01*
X188668330Y-28568911D01*
X188668338Y-28568918D01*
X188668339Y-28568919D01*
X188706781Y-28598417D01*
X188850382Y-28708607D01*
X188850385Y-28708608D01*
X188850388Y-28708611D01*
X189049112Y-28823344D01*
X189049117Y-28823346D01*
X189049123Y-28823349D01*
X189106751Y-28847219D01*
X189261113Y-28911158D01*
X189374492Y-28941537D01*
X189434150Y-28977900D01*
X189464680Y-29040747D01*
X189456386Y-29110123D01*
X189411901Y-29164001D01*
X189398693Y-29171795D01*
X189318388Y-29212713D01*
X189152786Y-29333028D01*
X189008028Y-29477786D01*
X188887715Y-29643386D01*
X188794781Y-29825776D01*
X188731522Y-30020465D01*
X188699500Y-30222648D01*
X188699500Y-30427351D01*
X188731522Y-30629534D01*
X188794781Y-30824223D01*
X188858691Y-30949653D01*
X188884740Y-31000776D01*
X188887715Y-31006613D01*
X189008028Y-31172213D01*
X189008034Y-31172219D01*
X189152781Y-31316966D01*
X189166108Y-31326648D01*
X189208773Y-31381977D01*
X189214752Y-31451590D01*
X189203707Y-31483260D01*
X189194779Y-31500781D01*
X189194779Y-31500782D01*
X189131523Y-31695461D01*
X189131523Y-31695464D01*
X189099500Y-31897648D01*
X189099500Y-32102351D01*
X189131522Y-32304534D01*
X189154313Y-32374675D01*
X189194780Y-32499219D01*
X189210985Y-32531024D01*
X189224500Y-32587316D01*
X189224500Y-33292513D01*
X189253445Y-33475265D01*
X189310619Y-33651233D01*
X189310620Y-33651236D01*
X189368433Y-33764698D01*
X189394622Y-33816096D01*
X189503379Y-33965787D01*
X189503381Y-33965789D01*
X189650411Y-34112819D01*
X189661023Y-34132255D01*
X189675524Y-34148989D01*
X189677440Y-34162320D01*
X189683896Y-34174142D01*
X189682316Y-34196228D01*
X189685468Y-34218147D01*
X189679872Y-34230398D01*
X189678912Y-34243834D01*
X189665641Y-34261560D01*
X189656443Y-34281703D01*
X189645111Y-34288985D01*
X189637040Y-34299767D01*
X189616294Y-34307504D01*
X189597665Y-34319477D01*
X189575746Y-34322628D01*
X189571576Y-34324184D01*
X189562730Y-34324500D01*
X189538270Y-34324500D01*
X189471231Y-34304815D01*
X189450589Y-34288181D01*
X185765789Y-30603381D01*
X185765787Y-30603379D01*
X185616096Y-30494622D01*
X185550324Y-30461109D01*
X185451236Y-30410620D01*
X185451233Y-30410619D01*
X185275265Y-30353445D01*
X185183889Y-30338972D01*
X185092514Y-30324500D01*
X176092514Y-30324500D01*
X175907486Y-30324500D01*
X175846569Y-30334148D01*
X175724734Y-30353445D01*
X175548766Y-30410619D01*
X175548763Y-30410620D01*
X175383903Y-30494622D01*
X175315532Y-30544297D01*
X175234213Y-30603379D01*
X175234211Y-30603381D01*
X175234210Y-30603381D01*
X173049411Y-32788181D01*
X172988088Y-32821666D01*
X172961730Y-32824500D01*
X170271157Y-32824500D01*
X170204118Y-32804815D01*
X170158363Y-32752011D01*
X170148419Y-32682853D01*
X170177444Y-32619297D01*
X170198269Y-32600183D01*
X170347219Y-32491966D01*
X170491966Y-32347219D01*
X170491968Y-32347215D01*
X170491971Y-32347213D01*
X170568263Y-32242204D01*
X170612287Y-32181610D01*
X170705220Y-31999219D01*
X170768477Y-31804534D01*
X170800500Y-31602352D01*
X170800500Y-31397648D01*
X170768477Y-31195466D01*
X170705220Y-31000781D01*
X170705218Y-31000778D01*
X170705218Y-31000776D01*
X170637741Y-30868346D01*
X170612287Y-30818390D01*
X170612285Y-30818387D01*
X170612284Y-30818385D01*
X170561647Y-30748690D01*
X170538166Y-30682884D01*
X170553991Y-30614830D01*
X170574279Y-30588127D01*
X171915908Y-29246498D01*
X171965272Y-29216249D01*
X171999219Y-29205220D01*
X172181610Y-29112287D01*
X172282633Y-29038890D01*
X172347213Y-28991971D01*
X172347215Y-28991968D01*
X172347219Y-28991966D01*
X172491966Y-28847219D01*
X172491968Y-28847215D01*
X172491971Y-28847213D01*
X172556239Y-28758754D01*
X172612287Y-28681610D01*
X172705220Y-28499219D01*
X172768477Y-28304534D01*
X172800500Y-28102352D01*
X172800500Y-27897648D01*
X172788864Y-27824184D01*
X172768477Y-27695465D01*
X172728519Y-27572489D01*
X172705220Y-27500781D01*
X172705218Y-27500777D01*
X172705218Y-27500776D01*
X172671503Y-27434607D01*
X172612287Y-27318390D01*
X172577661Y-27270731D01*
X172518532Y-27189345D01*
X172491971Y-27152786D01*
X172459710Y-27120525D01*
X175649500Y-27120525D01*
X175649500Y-27379474D01*
X175649501Y-27379491D01*
X175683299Y-27636217D01*
X175683300Y-27636222D01*
X175683301Y-27636228D01*
X175709555Y-27734210D01*
X175750324Y-27886364D01*
X175849423Y-28125609D01*
X175849427Y-28125619D01*
X175978906Y-28349883D01*
X176136551Y-28555331D01*
X176136557Y-28555338D01*
X176319661Y-28738442D01*
X176319668Y-28738448D01*
X176525116Y-28896093D01*
X176749380Y-29025572D01*
X176749381Y-29025572D01*
X176749384Y-29025574D01*
X176988634Y-29124675D01*
X177238772Y-29191699D01*
X177495519Y-29225500D01*
X177495526Y-29225500D01*
X177754474Y-29225500D01*
X177754481Y-29225500D01*
X178011228Y-29191699D01*
X178261366Y-29124675D01*
X178500616Y-29025574D01*
X178724884Y-28896093D01*
X178930333Y-28738447D01*
X179113447Y-28555333D01*
X179271093Y-28349884D01*
X179400574Y-28125616D01*
X179499675Y-27886366D01*
X179566699Y-27636228D01*
X179600500Y-27379481D01*
X179600500Y-27120519D01*
X179566699Y-26863772D01*
X179499675Y-26613634D01*
X179400574Y-26374384D01*
X179384890Y-26347219D01*
X179271093Y-26150116D01*
X179113448Y-25944668D01*
X179113442Y-25944661D01*
X178930338Y-25761557D01*
X178930331Y-25761551D01*
X178724883Y-25603906D01*
X178500619Y-25474427D01*
X178500609Y-25474423D01*
X178261364Y-25375324D01*
X178136297Y-25341813D01*
X178011228Y-25308301D01*
X178011222Y-25308300D01*
X178011217Y-25308299D01*
X177754491Y-25274501D01*
X177754486Y-25274500D01*
X177754481Y-25274500D01*
X177495519Y-25274500D01*
X177495513Y-25274500D01*
X177495508Y-25274501D01*
X177238782Y-25308299D01*
X177238775Y-25308300D01*
X177238772Y-25308301D01*
X177201134Y-25318386D01*
X176988635Y-25375324D01*
X176749390Y-25474423D01*
X176749380Y-25474427D01*
X176525116Y-25603906D01*
X176319668Y-25761551D01*
X176319661Y-25761557D01*
X176136557Y-25944661D01*
X176136551Y-25944668D01*
X175978906Y-26150116D01*
X175849427Y-26374380D01*
X175849423Y-26374390D01*
X175750324Y-26613635D01*
X175683302Y-26863769D01*
X175683299Y-26863782D01*
X175649501Y-27120508D01*
X175649500Y-27120525D01*
X172459710Y-27120525D01*
X172347213Y-27008028D01*
X172181613Y-26887715D01*
X172181612Y-26887714D01*
X172181610Y-26887713D01*
X172124653Y-26858691D01*
X171999223Y-26794781D01*
X171804534Y-26731522D01*
X171629995Y-26703878D01*
X171602352Y-26699500D01*
X171397648Y-26699500D01*
X171373329Y-26703351D01*
X171195465Y-26731522D01*
X171000776Y-26794781D01*
X170818386Y-26887715D01*
X170652786Y-27008028D01*
X170652782Y-27008032D01*
X170587681Y-27073134D01*
X170526358Y-27106619D01*
X170456666Y-27101635D01*
X170412319Y-27073134D01*
X170347213Y-27008028D01*
X170181613Y-26887715D01*
X170181612Y-26887714D01*
X170181610Y-26887713D01*
X170124653Y-26858691D01*
X169999223Y-26794781D01*
X169804534Y-26731522D01*
X169629995Y-26703878D01*
X169602352Y-26699500D01*
X169397648Y-26699500D01*
X169373329Y-26703351D01*
X169195465Y-26731522D01*
X169000776Y-26794781D01*
X168818386Y-26887715D01*
X168652786Y-27008028D01*
X168508028Y-27152786D01*
X168387715Y-27318386D01*
X168294781Y-27500777D01*
X168283748Y-27534732D01*
X168253499Y-27584091D01*
X168049409Y-27788182D01*
X167988089Y-27821666D01*
X167961730Y-27824500D01*
X165511103Y-27824500D01*
X165444064Y-27804815D01*
X165398309Y-27752011D01*
X165388365Y-27682853D01*
X165417390Y-27619297D01*
X165423422Y-27612819D01*
X165491944Y-27544297D01*
X165567416Y-27468825D01*
X165742523Y-27249248D01*
X165891945Y-27011445D01*
X166013801Y-26758408D01*
X166106560Y-26493318D01*
X166128149Y-26398726D01*
X166161355Y-26338644D01*
X167463681Y-25036319D01*
X167525004Y-25002834D01*
X167551362Y-25000000D01*
X194948638Y-25000000D01*
X195015677Y-25019685D01*
G37*
%TD.AperFunction*%
%TA.AperFunction,Conductor*%
G36*
X197468802Y-32195185D02*
G01*
X197514557Y-32247989D01*
X197520977Y-32265382D01*
X197566091Y-32423049D01*
X197577186Y-32444291D01*
X197578032Y-32446040D01*
X197583453Y-32478675D01*
X197589888Y-32511125D01*
X197589221Y-32513395D01*
X197589482Y-32514965D01*
X197587213Y-32520232D01*
X197576298Y-32557410D01*
X197566091Y-32576950D01*
X197566091Y-32576951D01*
X197523694Y-32725125D01*
X197520979Y-32734612D01*
X197483612Y-32793649D01*
X197420258Y-32823113D01*
X197401763Y-32824500D01*
X191738270Y-32824500D01*
X191671231Y-32804815D01*
X191650589Y-32788181D01*
X191611819Y-32749411D01*
X191597115Y-32722483D01*
X191580523Y-32696665D01*
X191579631Y-32690464D01*
X191578334Y-32688088D01*
X191575500Y-32661730D01*
X191575500Y-32587316D01*
X191589014Y-32531024D01*
X191605220Y-32499219D01*
X191629186Y-32425456D01*
X191668623Y-32367783D01*
X191732982Y-32340584D01*
X191801828Y-32352499D01*
X191814126Y-32359916D01*
X191814234Y-32359741D01*
X191818381Y-32362282D01*
X191818388Y-32362285D01*
X191818390Y-32362287D01*
X191868295Y-32387715D01*
X192000776Y-32455218D01*
X192000778Y-32455218D01*
X192000781Y-32455220D01*
X192072968Y-32478675D01*
X192195465Y-32518477D01*
X192206546Y-32520232D01*
X192397648Y-32550500D01*
X192397649Y-32550500D01*
X192602351Y-32550500D01*
X192602352Y-32550500D01*
X192804534Y-32518477D01*
X192999219Y-32455220D01*
X193181610Y-32362287D01*
X193279017Y-32291517D01*
X193347213Y-32241971D01*
X193347215Y-32241968D01*
X193347219Y-32241966D01*
X193377366Y-32211819D01*
X193438689Y-32178334D01*
X193465047Y-32175500D01*
X197401763Y-32175500D01*
X197468802Y-32195185D01*
G37*
%TD.AperFunction*%
%TA.AperFunction,Conductor*%
G36*
X133313523Y-25648940D02*
G01*
X133317147Y-25648419D01*
X133345839Y-25661522D01*
X133375221Y-25672962D01*
X133378678Y-25676519D01*
X133380703Y-25677444D01*
X133399816Y-25698269D01*
X133467474Y-25791392D01*
X133508034Y-25847219D01*
X133652786Y-25991971D01*
X133807749Y-26104556D01*
X133818390Y-26112287D01*
X133895513Y-26151583D01*
X134000776Y-26205218D01*
X134000778Y-26205218D01*
X134000781Y-26205220D01*
X134089234Y-26233960D01*
X134195465Y-26268477D01*
X134296557Y-26284488D01*
X134397648Y-26300500D01*
X134397649Y-26300500D01*
X134602351Y-26300500D01*
X134602352Y-26300500D01*
X134804534Y-26268477D01*
X134999219Y-26205220D01*
X134999224Y-26205217D01*
X134999228Y-26205216D01*
X135144205Y-26131346D01*
X135212874Y-26118449D01*
X135277614Y-26144725D01*
X135317872Y-26201831D01*
X135324500Y-26241830D01*
X135324500Y-29907486D01*
X135324500Y-30092514D01*
X135331659Y-30137713D01*
X135353445Y-30275265D01*
X135410619Y-30451233D01*
X135410620Y-30451236D01*
X135494623Y-30616098D01*
X135502991Y-30627616D01*
X135526470Y-30693423D01*
X135510644Y-30761476D01*
X135460537Y-30810171D01*
X135402672Y-30824500D01*
X133299500Y-30824500D01*
X133232461Y-30804815D01*
X133186706Y-30752011D01*
X133175500Y-30700500D01*
X133175500Y-25771157D01*
X133184383Y-25740903D01*
X133191528Y-25710181D01*
X133194154Y-25707628D01*
X133195185Y-25704118D01*
X133219009Y-25683473D01*
X133241634Y-25661487D01*
X133245222Y-25660759D01*
X133247989Y-25658363D01*
X133279201Y-25653875D01*
X133310112Y-25647612D01*
X133313523Y-25648940D01*
G37*
%TD.AperFunction*%
%TA.AperFunction,Conductor*%
G36*
X137880703Y-28043557D02*
G01*
X137887181Y-28049589D01*
X139450410Y-29612819D01*
X139483895Y-29674142D01*
X139478911Y-29743834D01*
X139437039Y-29799767D01*
X139371575Y-29824184D01*
X139362729Y-29824500D01*
X138038270Y-29824500D01*
X137971231Y-29804815D01*
X137950589Y-29788181D01*
X137711819Y-29549411D01*
X137678334Y-29488088D01*
X137675500Y-29461730D01*
X137675500Y-28137270D01*
X137695185Y-28070231D01*
X137747989Y-28024476D01*
X137817147Y-28014532D01*
X137880703Y-28043557D01*
G37*
%TD.AperFunction*%
%TA.AperFunction,Conductor*%
G36*
X139834413Y-24797719D02*
G01*
X139834528Y-24797322D01*
X139837872Y-24798285D01*
X139837875Y-24798286D01*
X140099365Y-24857970D01*
X140099374Y-24857971D01*
X140099379Y-24857972D01*
X140247628Y-24874675D01*
X140365887Y-24887999D01*
X140365890Y-24888000D01*
X140365893Y-24888000D01*
X140634110Y-24888000D01*
X140634111Y-24887999D01*
X140770317Y-24872652D01*
X140900620Y-24857972D01*
X140900623Y-24857971D01*
X140900635Y-24857970D01*
X141162125Y-24798286D01*
X141162129Y-24798284D01*
X141165472Y-24797322D01*
X141165922Y-24798887D01*
X141229224Y-24795603D01*
X141289880Y-24830281D01*
X141322159Y-24892247D01*
X141324500Y-24916230D01*
X141324500Y-27862729D01*
X141304815Y-27929768D01*
X141252011Y-27975523D01*
X141182853Y-27985467D01*
X141119297Y-27956442D01*
X141112819Y-27950410D01*
X139711819Y-26549410D01*
X139678334Y-26488087D01*
X139675500Y-26461729D01*
X139675500Y-24916230D01*
X139695185Y-24849191D01*
X139747989Y-24803436D01*
X139817147Y-24793492D01*
X139834413Y-24797719D01*
G37*
%TD.AperFunction*%
%TA.AperFunction,Conductor*%
G36*
X143813869Y-24793963D02*
G01*
X143817147Y-24793492D01*
X143834413Y-24797719D01*
X143834528Y-24797322D01*
X143837872Y-24798285D01*
X143837875Y-24798286D01*
X144099365Y-24857970D01*
X144099374Y-24857971D01*
X144099379Y-24857972D01*
X144247628Y-24874675D01*
X144365887Y-24887999D01*
X144365890Y-24888000D01*
X144365893Y-24888000D01*
X144634110Y-24888000D01*
X144634110Y-24887999D01*
X144862116Y-24862310D01*
X144930938Y-24874364D01*
X144982318Y-24921713D01*
X145000000Y-24985530D01*
X145000000Y-27500000D01*
X161812397Y-27500000D01*
X161841837Y-27508644D01*
X161871824Y-27515168D01*
X161876839Y-27518922D01*
X161879436Y-27519685D01*
X161900078Y-27536319D01*
X161976578Y-27612819D01*
X162010063Y-27674142D01*
X162005079Y-27743834D01*
X161963207Y-27799767D01*
X161897743Y-27824184D01*
X161888897Y-27824500D01*
X144038270Y-27824500D01*
X143971231Y-27804815D01*
X143950589Y-27788181D01*
X143711819Y-27549411D01*
X143678334Y-27488088D01*
X143675500Y-27461730D01*
X143675500Y-24916230D01*
X143683816Y-24887906D01*
X143689526Y-24858944D01*
X143693549Y-24854759D01*
X143695185Y-24849191D01*
X143717488Y-24829865D01*
X143737955Y-24808581D01*
X143743603Y-24807236D01*
X143747989Y-24803436D01*
X143777207Y-24799234D01*
X143805925Y-24792397D01*
X143813869Y-24793963D01*
G37*
%TD.AperFunction*%
%TA.AperFunction,Conductor*%
G36*
X106320941Y-21270185D02*
G01*
X106366696Y-21322989D01*
X106376640Y-21392147D01*
X106365622Y-21428302D01*
X106290299Y-21584710D01*
X106201714Y-21837873D01*
X106201713Y-21837875D01*
X106142030Y-22099365D01*
X106142027Y-22099379D01*
X106112000Y-22365886D01*
X106112000Y-22634113D01*
X106142027Y-22900620D01*
X106142029Y-22900632D01*
X106142030Y-22900635D01*
X106153248Y-22949785D01*
X106201713Y-23162124D01*
X106201714Y-23162126D01*
X106290299Y-23415289D01*
X106406671Y-23656938D01*
X106406673Y-23656941D01*
X106549372Y-23884045D01*
X106596947Y-23943702D01*
X106680271Y-24048187D01*
X106706680Y-24112874D01*
X106693923Y-24181569D01*
X106646053Y-24232463D01*
X106583324Y-24249500D01*
X104379502Y-24249500D01*
X104341184Y-24243431D01*
X104304535Y-24231523D01*
X104203443Y-24215511D01*
X104102352Y-24199500D01*
X103897648Y-24199500D01*
X103873329Y-24203351D01*
X103695465Y-24231522D01*
X103500776Y-24294781D01*
X103318386Y-24387715D01*
X103152786Y-24508028D01*
X103008028Y-24652786D01*
X102887715Y-24818386D01*
X102794781Y-25000776D01*
X102731522Y-25195465D01*
X102699500Y-25397648D01*
X102699500Y-25602351D01*
X102731522Y-25804534D01*
X102794781Y-25999223D01*
X102852391Y-26112287D01*
X102872413Y-26151583D01*
X102887715Y-26181613D01*
X103008028Y-26347213D01*
X103073134Y-26412319D01*
X103106619Y-26473642D01*
X103101635Y-26543334D01*
X103073134Y-26587681D01*
X103008032Y-26652782D01*
X103008028Y-26652786D01*
X102887715Y-26818386D01*
X102794781Y-27000776D01*
X102731522Y-27195465D01*
X102702377Y-27379481D01*
X102699500Y-27397648D01*
X102699500Y-27602352D01*
X102700094Y-27606106D01*
X102691139Y-27675397D01*
X102646142Y-27728848D01*
X102579390Y-27749487D01*
X102577621Y-27749500D01*
X99186103Y-27749500D01*
X99119064Y-27729815D01*
X99073309Y-27677011D01*
X99063365Y-27607853D01*
X99092390Y-27544297D01*
X99098422Y-27537819D01*
X99131727Y-27504514D01*
X99167416Y-27468825D01*
X99342523Y-27249248D01*
X99491945Y-27011445D01*
X99613801Y-26758408D01*
X99706560Y-26493318D01*
X99769055Y-26219509D01*
X99770666Y-26205216D01*
X99793875Y-25999223D01*
X99800500Y-25940425D01*
X99800500Y-25659575D01*
X99782432Y-25499219D01*
X99769057Y-25380505D01*
X99769054Y-25380487D01*
X99746051Y-25279706D01*
X99706560Y-25106682D01*
X99613801Y-24841592D01*
X99519654Y-24646093D01*
X99491946Y-24588557D01*
X99488554Y-24583158D01*
X99342523Y-24350752D01*
X99167416Y-24131175D01*
X98968825Y-23932584D01*
X98945585Y-23914051D01*
X98796024Y-23794780D01*
X98749248Y-23757477D01*
X98576150Y-23648712D01*
X98511439Y-23608051D01*
X98258453Y-23486220D01*
X98206593Y-23439398D01*
X98188280Y-23371971D01*
X98209328Y-23305347D01*
X98263054Y-23260678D01*
X98312254Y-23250500D01*
X103120498Y-23250500D01*
X103158816Y-23256569D01*
X103171463Y-23260678D01*
X103195466Y-23268477D01*
X103397648Y-23300500D01*
X103397649Y-23300500D01*
X103602351Y-23300500D01*
X103602352Y-23300500D01*
X103804534Y-23268477D01*
X103999219Y-23205220D01*
X104181610Y-23112287D01*
X104314014Y-23016091D01*
X104347213Y-22991971D01*
X104347215Y-22991968D01*
X104347219Y-22991966D01*
X104491966Y-22847219D01*
X104491968Y-22847215D01*
X104491971Y-22847213D01*
X104556239Y-22758754D01*
X104612287Y-22681610D01*
X104705220Y-22499219D01*
X104768477Y-22304534D01*
X104800500Y-22102352D01*
X104800500Y-21897648D01*
X104768477Y-21695466D01*
X104768217Y-21694667D01*
X104705218Y-21500776D01*
X104669560Y-21430795D01*
X104656664Y-21362126D01*
X104682940Y-21297386D01*
X104740046Y-21257128D01*
X104780045Y-21250500D01*
X106253902Y-21250500D01*
X106320941Y-21270185D01*
G37*
%TD.AperFunction*%
%TA.AperFunction,Conductor*%
G36*
X142590323Y-15936056D02*
G01*
X142596947Y-15943702D01*
X142716594Y-16093736D01*
X142906257Y-16283399D01*
X143115959Y-16450631D01*
X143266471Y-16545203D01*
X143312763Y-16597537D01*
X143324500Y-16650197D01*
X143324500Y-18961729D01*
X143304815Y-19028768D01*
X143288181Y-19049410D01*
X141895119Y-20442471D01*
X141868716Y-20456887D01*
X141843571Y-20473409D01*
X141838364Y-20473461D01*
X141833796Y-20475956D01*
X141803793Y-20473810D01*
X141773705Y-20474114D01*
X141767122Y-20471187D01*
X141764104Y-20470972D01*
X141741461Y-20459780D01*
X141733516Y-20454788D01*
X141687231Y-20402448D01*
X141675500Y-20349801D01*
X141675500Y-16650197D01*
X141695185Y-16583158D01*
X141733529Y-16545203D01*
X141884040Y-16450631D01*
X141884039Y-16450631D01*
X141884045Y-16450628D01*
X142093743Y-16283399D01*
X142283399Y-16093743D01*
X142311875Y-16058036D01*
X142403053Y-15943702D01*
X142460241Y-15903561D01*
X142530053Y-15900711D01*
X142590323Y-15936056D01*
G37*
%TD.AperFunction*%
%TA.AperFunction,Conductor*%
G36*
X110497703Y-10770185D02*
G01*
X110518345Y-10786819D01*
X111213181Y-11481655D01*
X111246666Y-11542978D01*
X111249500Y-11569336D01*
X111249500Y-12396927D01*
X111229815Y-12463966D01*
X111191472Y-12501921D01*
X111115956Y-12549370D01*
X110906257Y-12716600D01*
X110716600Y-12906257D01*
X110596947Y-13056298D01*
X110539759Y-13096438D01*
X110469947Y-13099288D01*
X110409677Y-13063943D01*
X110403053Y-13056298D01*
X110283399Y-12906257D01*
X110093742Y-12716600D01*
X109996297Y-12638890D01*
X109884045Y-12549372D01*
X109671930Y-12416091D01*
X109656938Y-12406671D01*
X109415289Y-12290299D01*
X109162126Y-12201714D01*
X109162124Y-12201713D01*
X108948193Y-12152885D01*
X108900635Y-12142030D01*
X108900632Y-12142029D01*
X108900620Y-12142027D01*
X108634113Y-12112000D01*
X108634107Y-12112000D01*
X108365893Y-12112000D01*
X108365886Y-12112000D01*
X108099379Y-12142027D01*
X108099365Y-12142030D01*
X107837875Y-12201713D01*
X107837873Y-12201714D01*
X107584710Y-12290299D01*
X107343061Y-12406671D01*
X107115956Y-12549371D01*
X106906257Y-12716600D01*
X106716600Y-12906257D01*
X106549371Y-13115956D01*
X106406671Y-13343061D01*
X106290299Y-13584710D01*
X106201714Y-13837873D01*
X106201713Y-13837875D01*
X106142030Y-14099365D01*
X106142027Y-14099379D01*
X106112000Y-14365886D01*
X106112000Y-14634113D01*
X106142027Y-14900620D01*
X106142030Y-14900634D01*
X106201713Y-15162124D01*
X106201714Y-15162126D01*
X106290299Y-15415289D01*
X106406671Y-15656938D01*
X106406673Y-15656941D01*
X106549372Y-15884045D01*
X106662085Y-16025382D01*
X106688125Y-16058036D01*
X106716601Y-16093743D01*
X106906257Y-16283399D01*
X107115955Y-16450628D01*
X107343059Y-16593327D01*
X107584712Y-16709701D01*
X107837875Y-16798286D01*
X108099365Y-16857970D01*
X108099374Y-16857971D01*
X108099379Y-16857972D01*
X108252341Y-16875206D01*
X108365887Y-16887999D01*
X108365890Y-16888000D01*
X108473671Y-16888000D01*
X108483750Y-16890959D01*
X108494178Y-16889708D01*
X108516695Y-16900633D01*
X108540710Y-16907685D01*
X108547587Y-16915622D01*
X108557039Y-16920208D01*
X108570076Y-16941575D01*
X108586465Y-16960489D01*
X108587959Y-16970885D01*
X108593431Y-16979852D01*
X108592846Y-17004872D01*
X108596409Y-17029647D01*
X108592001Y-17041054D01*
X108591800Y-17049703D01*
X108580487Y-17070857D01*
X108576393Y-17081456D01*
X108573655Y-17085504D01*
X108549372Y-17115955D01*
X108500827Y-17193213D01*
X108499649Y-17194956D01*
X108474263Y-17215935D01*
X108449586Y-17237763D01*
X108447211Y-17238292D01*
X108445791Y-17239466D01*
X108437458Y-17240466D01*
X108396927Y-17249500D01*
X92422379Y-17249500D01*
X92355340Y-17229815D01*
X92309585Y-17177011D01*
X92299641Y-17107853D01*
X92299886Y-17106222D01*
X92300500Y-17102352D01*
X92300500Y-16897648D01*
X92299905Y-16893893D01*
X92308861Y-16824603D01*
X92353858Y-16771152D01*
X92420610Y-16750513D01*
X92422379Y-16750500D01*
X101098422Y-16750500D01*
X101292826Y-16719709D01*
X101302391Y-16716601D01*
X101480026Y-16658884D01*
X101655405Y-16569524D01*
X101814646Y-16453828D01*
X107481655Y-10786819D01*
X107542978Y-10753334D01*
X107569336Y-10750500D01*
X110430664Y-10750500D01*
X110497703Y-10770185D01*
G37*
%TD.AperFunction*%
%TA.AperFunction,Conductor*%
G36*
X143016177Y-520185D02*
G01*
X143036819Y-536819D01*
X144963681Y-2463681D01*
X144997166Y-2525004D01*
X145000000Y-2551362D01*
X145000000Y-12014469D01*
X144980315Y-12081508D01*
X144927511Y-12127263D01*
X144862117Y-12137689D01*
X144634113Y-12112000D01*
X144634107Y-12112000D01*
X144365893Y-12112000D01*
X144365886Y-12112000D01*
X144099379Y-12142027D01*
X144099365Y-12142030D01*
X143837875Y-12201713D01*
X143837873Y-12201714D01*
X143584710Y-12290299D01*
X143343061Y-12406671D01*
X143115956Y-12549371D01*
X142906257Y-12716600D01*
X142716600Y-12906257D01*
X142596947Y-13056298D01*
X142539759Y-13096438D01*
X142469947Y-13099288D01*
X142409677Y-13063943D01*
X142403053Y-13056298D01*
X142283399Y-12906257D01*
X142093742Y-12716600D01*
X141996297Y-12638890D01*
X141884045Y-12549372D01*
X141671930Y-12416091D01*
X141656938Y-12406671D01*
X141415289Y-12290299D01*
X141162126Y-12201714D01*
X141162124Y-12201713D01*
X140948193Y-12152885D01*
X140900635Y-12142030D01*
X140900632Y-12142029D01*
X140900620Y-12142027D01*
X140634113Y-12112000D01*
X140634107Y-12112000D01*
X140365893Y-12112000D01*
X140365886Y-12112000D01*
X140099379Y-12142027D01*
X140099365Y-12142030D01*
X139837875Y-12201713D01*
X139837873Y-12201714D01*
X139584710Y-12290299D01*
X139343061Y-12406671D01*
X139115956Y-12549371D01*
X138906257Y-12716600D01*
X138716600Y-12906257D01*
X138549371Y-13115956D01*
X138406671Y-13343061D01*
X138290299Y-13584710D01*
X138201714Y-13837873D01*
X138201713Y-13837875D01*
X138142030Y-14099365D01*
X138142027Y-14099379D01*
X138112000Y-14365886D01*
X138112000Y-14634113D01*
X138142027Y-14900620D01*
X138142030Y-14900634D01*
X138201713Y-15162124D01*
X138201714Y-15162126D01*
X138290299Y-15415289D01*
X138406671Y-15656938D01*
X138549370Y-15884042D01*
X138570619Y-15910688D01*
X138597027Y-15975375D01*
X138584270Y-16044070D01*
X138536399Y-16094964D01*
X138473671Y-16112000D01*
X138365886Y-16112000D01*
X138099379Y-16142027D01*
X138099365Y-16142030D01*
X137837875Y-16201713D01*
X137837873Y-16201714D01*
X137584710Y-16290299D01*
X137343061Y-16406671D01*
X137115956Y-16549371D01*
X136906257Y-16716600D01*
X136716600Y-16906257D01*
X136596947Y-17056298D01*
X136539759Y-17096438D01*
X136469947Y-17099288D01*
X136409677Y-17063943D01*
X136403053Y-17056298D01*
X136283399Y-16906257D01*
X136093742Y-16716600D01*
X136004600Y-16645512D01*
X135884045Y-16549372D01*
X135726895Y-16450628D01*
X135656938Y-16406671D01*
X135415289Y-16290299D01*
X135162126Y-16201714D01*
X135162124Y-16201713D01*
X134960318Y-16155652D01*
X134900635Y-16142030D01*
X134900632Y-16142029D01*
X134900620Y-16142027D01*
X134634113Y-16112000D01*
X134634107Y-16112000D01*
X134526329Y-16112000D01*
X134459290Y-16092315D01*
X134413535Y-16039511D01*
X134403591Y-15970353D01*
X134429381Y-15910688D01*
X134437337Y-15900711D01*
X134450628Y-15884045D01*
X134593327Y-15656941D01*
X134709701Y-15415288D01*
X134798286Y-15162125D01*
X134857970Y-14900635D01*
X134862124Y-14863772D01*
X134879047Y-14713566D01*
X134888000Y-14634107D01*
X134888000Y-14365893D01*
X134874647Y-14247379D01*
X134857972Y-14099379D01*
X134857971Y-14099374D01*
X134857970Y-14099365D01*
X134798286Y-13837875D01*
X134709701Y-13584712D01*
X134616967Y-13392147D01*
X134593328Y-13343061D01*
X134520373Y-13226954D01*
X134450628Y-13115955D01*
X134283399Y-12906257D01*
X134093743Y-12716601D01*
X134089454Y-12713181D01*
X133996297Y-12638890D01*
X133884045Y-12549372D01*
X133671930Y-12416091D01*
X133656938Y-12406671D01*
X133415289Y-12290299D01*
X133162126Y-12201714D01*
X133162124Y-12201713D01*
X132948193Y-12152885D01*
X132900635Y-12142030D01*
X132900632Y-12142029D01*
X132900620Y-12142027D01*
X132634113Y-12112000D01*
X132634107Y-12112000D01*
X132365893Y-12112000D01*
X132365886Y-12112000D01*
X132099379Y-12142027D01*
X132099365Y-12142030D01*
X131837875Y-12201713D01*
X131837873Y-12201714D01*
X131584710Y-12290299D01*
X131343061Y-12406671D01*
X131115956Y-12549371D01*
X130906257Y-12716600D01*
X130716600Y-12906257D01*
X130596947Y-13056298D01*
X130539759Y-13096438D01*
X130469947Y-13099288D01*
X130409677Y-13063943D01*
X130403053Y-13056298D01*
X130283399Y-12906257D01*
X130093742Y-12716600D01*
X129996297Y-12638890D01*
X129884045Y-12549372D01*
X129671930Y-12416091D01*
X129656938Y-12406671D01*
X129415289Y-12290299D01*
X129162126Y-12201714D01*
X129162124Y-12201713D01*
X128948193Y-12152885D01*
X128900635Y-12142030D01*
X128900632Y-12142029D01*
X128900620Y-12142027D01*
X128634113Y-12112000D01*
X128634107Y-12112000D01*
X128365893Y-12112000D01*
X128365886Y-12112000D01*
X128099379Y-12142027D01*
X128099365Y-12142030D01*
X127837875Y-12201713D01*
X127837873Y-12201714D01*
X127584710Y-12290299D01*
X127343061Y-12406671D01*
X127115956Y-12549371D01*
X126906257Y-12716600D01*
X126716600Y-12906257D01*
X126596947Y-13056298D01*
X126539759Y-13096438D01*
X126469947Y-13099288D01*
X126409677Y-13063943D01*
X126403053Y-13056298D01*
X126283399Y-12906257D01*
X126093742Y-12716600D01*
X125884043Y-12549370D01*
X125808528Y-12501921D01*
X125762237Y-12449586D01*
X125750500Y-12396927D01*
X125750500Y-10379500D01*
X125756569Y-10341182D01*
X125768477Y-10304534D01*
X125800500Y-10102352D01*
X125800500Y-9897648D01*
X125773118Y-9724767D01*
X125768477Y-9695465D01*
X125711456Y-9519974D01*
X125705220Y-9500781D01*
X125705218Y-9500778D01*
X125705218Y-9500776D01*
X125671503Y-9434607D01*
X125612287Y-9318390D01*
X125580932Y-9275233D01*
X125491971Y-9152786D01*
X125347213Y-9008028D01*
X125181613Y-8887715D01*
X125181612Y-8887714D01*
X125181610Y-8887713D01*
X125124653Y-8858691D01*
X124999223Y-8794781D01*
X124804534Y-8731522D01*
X124629995Y-8703878D01*
X124602352Y-8699500D01*
X124397648Y-8699500D01*
X124373329Y-8703351D01*
X124195465Y-8731522D01*
X124000776Y-8794781D01*
X123818386Y-8887715D01*
X123652786Y-9008028D01*
X123508028Y-9152786D01*
X123387715Y-9318386D01*
X123294781Y-9500776D01*
X123231522Y-9695465D01*
X123210849Y-9825992D01*
X123199500Y-9897648D01*
X123199500Y-10102352D01*
X123202197Y-10119381D01*
X123231522Y-10304530D01*
X123231522Y-10304531D01*
X123243431Y-10341182D01*
X123249500Y-10379500D01*
X123249500Y-12396927D01*
X123229815Y-12463966D01*
X123191472Y-12501921D01*
X123115956Y-12549370D01*
X122906257Y-12716600D01*
X122716600Y-12906257D01*
X122596947Y-13056298D01*
X122539759Y-13096438D01*
X122469947Y-13099288D01*
X122409677Y-13063943D01*
X122403053Y-13056298D01*
X122283399Y-12906257D01*
X122093742Y-12716600D01*
X121884043Y-12549370D01*
X121808528Y-12501921D01*
X121762237Y-12449586D01*
X121750500Y-12396927D01*
X121750500Y-8397648D01*
X129199500Y-8397648D01*
X129199500Y-8602352D01*
X129203637Y-8628473D01*
X129231522Y-8804534D01*
X129294781Y-8999223D01*
X129345693Y-9099142D01*
X129381203Y-9168834D01*
X129387715Y-9181613D01*
X129508028Y-9347213D01*
X129652786Y-9491971D01*
X129803364Y-9601370D01*
X129818390Y-9612287D01*
X129929370Y-9668834D01*
X130000776Y-9705218D01*
X130000778Y-9705218D01*
X130000781Y-9705220D01*
X130105137Y-9739127D01*
X130195465Y-9768477D01*
X130296557Y-9784488D01*
X130397648Y-9800500D01*
X130397649Y-9800500D01*
X130602351Y-9800500D01*
X130602352Y-9800500D01*
X130804534Y-9768477D01*
X130999219Y-9705220D01*
X131181610Y-9612287D01*
X131308676Y-9519969D01*
X131347213Y-9491971D01*
X131347215Y-9491968D01*
X131347219Y-9491966D01*
X131491966Y-9347219D01*
X131491968Y-9347215D01*
X131491971Y-9347213D01*
X131563192Y-9249184D01*
X131612287Y-9181610D01*
X131705220Y-8999219D01*
X131768477Y-8804534D01*
X131800500Y-8602352D01*
X131800500Y-8397648D01*
X131783931Y-8293036D01*
X131768477Y-8195465D01*
X131719943Y-8046093D01*
X131705220Y-8000781D01*
X131705218Y-8000778D01*
X131705218Y-8000776D01*
X131670357Y-7932359D01*
X131612287Y-7818390D01*
X131580932Y-7775233D01*
X131491971Y-7652786D01*
X131347213Y-7508028D01*
X131181613Y-7387715D01*
X131181612Y-7387714D01*
X131181610Y-7387713D01*
X131124653Y-7358691D01*
X130999223Y-7294781D01*
X130804534Y-7231522D01*
X130629995Y-7203878D01*
X130602352Y-7199500D01*
X130397648Y-7199500D01*
X130373329Y-7203351D01*
X130195465Y-7231522D01*
X130000776Y-7294781D01*
X129818386Y-7387715D01*
X129652786Y-7508028D01*
X129508028Y-7652786D01*
X129387715Y-7818386D01*
X129294781Y-8000776D01*
X129231522Y-8195465D01*
X129207470Y-8347329D01*
X129199500Y-8397648D01*
X121750500Y-8397648D01*
X121750500Y-7901577D01*
X121734046Y-7797697D01*
X121733275Y-7792826D01*
X121719709Y-7707173D01*
X121692179Y-7622447D01*
X121671750Y-7559572D01*
X121658885Y-7519977D01*
X121658883Y-7519974D01*
X121652800Y-7508034D01*
X121569524Y-7344595D01*
X121453828Y-7185354D01*
X121314646Y-7046172D01*
X119814646Y-5546172D01*
X119655405Y-5430476D01*
X119480030Y-5341117D01*
X119292826Y-5280290D01*
X119098422Y-5249500D01*
X119098417Y-5249500D01*
X105098417Y-5249500D01*
X104901583Y-5249500D01*
X104901578Y-5249500D01*
X104707173Y-5280290D01*
X104519969Y-5341117D01*
X104344594Y-5430476D01*
X104299049Y-5463567D01*
X104185354Y-5546172D01*
X104185352Y-5546174D01*
X104185351Y-5546174D01*
X101471973Y-8259551D01*
X101410650Y-8293036D01*
X101340958Y-8288052D01*
X101285025Y-8246180D01*
X101260608Y-8180716D01*
X101263402Y-8144275D01*
X101269053Y-8119516D01*
X101269054Y-8119512D01*
X101269055Y-8119509D01*
X101270191Y-8109432D01*
X101286781Y-7962181D01*
X101300500Y-7840425D01*
X101300500Y-7559575D01*
X101290018Y-7466547D01*
X101269057Y-7280505D01*
X101269054Y-7280487D01*
X101206560Y-7006682D01*
X101206556Y-7006670D01*
X101159267Y-6871527D01*
X101113801Y-6741592D01*
X100991945Y-6488555D01*
X100842523Y-6250752D01*
X100667416Y-6031175D01*
X100468825Y-5832584D01*
X100459707Y-5825313D01*
X100397241Y-5775498D01*
X100249248Y-5657477D01*
X100011445Y-5508055D01*
X100011442Y-5508053D01*
X99758411Y-5386200D01*
X99493329Y-5293443D01*
X99493317Y-5293439D01*
X99219512Y-5230945D01*
X99219494Y-5230942D01*
X98940431Y-5199500D01*
X98940425Y-5199500D01*
X98659575Y-5199500D01*
X98659568Y-5199500D01*
X98380505Y-5230942D01*
X98380487Y-5230945D01*
X98106682Y-5293439D01*
X98106670Y-5293443D01*
X97841588Y-5386200D01*
X97588557Y-5508053D01*
X97350753Y-5657476D01*
X97131175Y-5832583D01*
X96932583Y-6031175D01*
X96757476Y-6250753D01*
X96608053Y-6488557D01*
X96486200Y-6741588D01*
X96393443Y-7006670D01*
X96393439Y-7006682D01*
X96330945Y-7280487D01*
X96330942Y-7280505D01*
X96299500Y-7559568D01*
X96299500Y-7840431D01*
X96330942Y-8119494D01*
X96330945Y-8119512D01*
X96393439Y-8393317D01*
X96393443Y-8393329D01*
X96486200Y-8658411D01*
X96608053Y-8911442D01*
X96620131Y-8930664D01*
X96757477Y-9149248D01*
X96838223Y-9250500D01*
X96932583Y-9368824D01*
X97101578Y-9537819D01*
X97135063Y-9599142D01*
X97130079Y-9668834D01*
X97088207Y-9724767D01*
X97022743Y-9749184D01*
X97013897Y-9749500D01*
X91379502Y-9749500D01*
X91341184Y-9743431D01*
X91304535Y-9731523D01*
X91203443Y-9715511D01*
X91102352Y-9699500D01*
X90897648Y-9699500D01*
X90873329Y-9703351D01*
X90695465Y-9731522D01*
X90500776Y-9794781D01*
X90318386Y-9887715D01*
X90152786Y-10008028D01*
X90008028Y-10152786D01*
X89887715Y-10318386D01*
X89794781Y-10500776D01*
X89731522Y-10695465D01*
X89699500Y-10897648D01*
X89699500Y-11102352D01*
X89700094Y-11106106D01*
X89691139Y-11175397D01*
X89646142Y-11228848D01*
X89579390Y-11249487D01*
X89577621Y-11249500D01*
X86696772Y-11249500D01*
X86629733Y-11229815D01*
X86583978Y-11177011D01*
X86574034Y-11107853D01*
X86603059Y-11044297D01*
X86658453Y-11007569D01*
X86991882Y-10899232D01*
X87409360Y-10726307D01*
X87811984Y-10521160D01*
X87813915Y-10519977D01*
X88075200Y-10359861D01*
X88197272Y-10285055D01*
X88562847Y-10019449D01*
X88576213Y-10008034D01*
X88856698Y-9768477D01*
X88906456Y-9725980D01*
X89225980Y-9406456D01*
X89445656Y-9149248D01*
X89519433Y-9062866D01*
X89519435Y-9062863D01*
X89519449Y-9062847D01*
X89785055Y-8697272D01*
X90021160Y-8311984D01*
X90226307Y-7909360D01*
X90399232Y-7491882D01*
X90538869Y-7062123D01*
X90644357Y-6622733D01*
X90715046Y-6176420D01*
X90750500Y-5725938D01*
X90750500Y-5274062D01*
X90715046Y-4823580D01*
X90644357Y-4377267D01*
X90538869Y-3937877D01*
X90399232Y-3508118D01*
X90226307Y-3090640D01*
X90021160Y-2688016D01*
X90021154Y-2688007D01*
X90021152Y-2688002D01*
X90021149Y-2687997D01*
X89785061Y-2302737D01*
X89785057Y-2302732D01*
X89785055Y-2302728D01*
X89519449Y-1937153D01*
X89519444Y-1937147D01*
X89519433Y-1937133D01*
X89225996Y-1593562D01*
X89225987Y-1593552D01*
X89225980Y-1593544D01*
X88906456Y-1274020D01*
X88906448Y-1274013D01*
X88906437Y-1274003D01*
X88562866Y-980566D01*
X88562839Y-980545D01*
X88210861Y-724818D01*
X88168195Y-669488D01*
X88162216Y-599875D01*
X88194822Y-538080D01*
X88255660Y-503723D01*
X88283746Y-500500D01*
X142949138Y-500500D01*
X143016177Y-520185D01*
G37*
%TD.AperFunction*%
%TA.AperFunction,Conductor*%
G36*
X113997703Y-9270185D02*
G01*
X114018345Y-9286819D01*
X115213181Y-10481655D01*
X115246666Y-10542978D01*
X115249500Y-10569336D01*
X115249500Y-12396927D01*
X115229815Y-12463966D01*
X115191472Y-12501921D01*
X115115956Y-12549370D01*
X114906257Y-12716600D01*
X114716600Y-12906257D01*
X114596947Y-13056298D01*
X114539759Y-13096438D01*
X114469947Y-13099288D01*
X114409677Y-13063943D01*
X114403053Y-13056298D01*
X114283399Y-12906257D01*
X114093742Y-12716600D01*
X113884043Y-12549370D01*
X113808528Y-12501921D01*
X113762237Y-12449586D01*
X113750500Y-12396927D01*
X113750500Y-10901577D01*
X113732623Y-10788712D01*
X113731773Y-10783343D01*
X113719709Y-10707173D01*
X113688878Y-10612287D01*
X113659269Y-10521160D01*
X113658885Y-10519977D01*
X113649102Y-10500776D01*
X113569524Y-10344595D01*
X113453828Y-10185354D01*
X113314646Y-10046172D01*
X112730655Y-9462181D01*
X112697170Y-9400858D01*
X112702154Y-9331166D01*
X112744026Y-9275233D01*
X112809490Y-9250816D01*
X112818336Y-9250500D01*
X113930664Y-9250500D01*
X113997703Y-9270185D01*
G37*
%TD.AperFunction*%
%TA.AperFunction,Conductor*%
G36*
X118497703Y-7770185D02*
G01*
X118518345Y-7786819D01*
X119213181Y-8481655D01*
X119246666Y-8542978D01*
X119249500Y-8569336D01*
X119249500Y-12396927D01*
X119229815Y-12463966D01*
X119191472Y-12501921D01*
X119115956Y-12549370D01*
X118906257Y-12716600D01*
X118716600Y-12906257D01*
X118596947Y-13056298D01*
X118539759Y-13096438D01*
X118469947Y-13099288D01*
X118409677Y-13063943D01*
X118403053Y-13056298D01*
X118283399Y-12906257D01*
X118093742Y-12716600D01*
X117884043Y-12549370D01*
X117808528Y-12501921D01*
X117762237Y-12449586D01*
X117750500Y-12396927D01*
X117750500Y-9901577D01*
X117719709Y-9707173D01*
X117702520Y-9654271D01*
X117685331Y-9601369D01*
X117658884Y-9519974D01*
X117658882Y-9519971D01*
X117658882Y-9519969D01*
X117588536Y-9381908D01*
X117569524Y-9344595D01*
X117453828Y-9185354D01*
X116230655Y-7962181D01*
X116197170Y-7900858D01*
X116202154Y-7831166D01*
X116244026Y-7775233D01*
X116309490Y-7750816D01*
X116318336Y-7750500D01*
X118430664Y-7750500D01*
X118497703Y-7770185D01*
G37*
%TD.AperFunction*%
%TA.AperFunction,Conductor*%
G36*
X81783293Y-520185D02*
G01*
X81829048Y-572989D01*
X81838992Y-642147D01*
X81809967Y-705703D01*
X81789139Y-724818D01*
X81437160Y-980545D01*
X81437133Y-980566D01*
X81093562Y-1274003D01*
X81093536Y-1274027D01*
X80774027Y-1593536D01*
X80774003Y-1593562D01*
X80480566Y-1937133D01*
X80480545Y-1937160D01*
X80214946Y-2302726D01*
X80214938Y-2302737D01*
X79978850Y-2687997D01*
X79978847Y-2688002D01*
X79773692Y-3090642D01*
X79600765Y-3508123D01*
X79461135Y-3937865D01*
X79461128Y-3937888D01*
X79429977Y-4067641D01*
X79360051Y-4358909D01*
X79355642Y-4377272D01*
X79284955Y-4823570D01*
X79284953Y-4823589D01*
X79249500Y-5274056D01*
X79249500Y-5725943D01*
X79284953Y-6176410D01*
X79284955Y-6176429D01*
X79340873Y-6529481D01*
X79355643Y-6622733D01*
X79394895Y-6786228D01*
X79457301Y-7046172D01*
X79461131Y-7062123D01*
X79486789Y-7141091D01*
X79600765Y-7491876D01*
X79689944Y-7707173D01*
X79773693Y-7909360D01*
X79964707Y-8284246D01*
X79978847Y-8311997D01*
X79978850Y-8312002D01*
X80214938Y-8697262D01*
X80214943Y-8697269D01*
X80214945Y-8697272D01*
X80353309Y-8887713D01*
X80480545Y-9062839D01*
X80480566Y-9062866D01*
X80774003Y-9406437D01*
X80774013Y-9406448D01*
X80774020Y-9406456D01*
X81093544Y-9725980D01*
X81093552Y-9725987D01*
X81093562Y-9725996D01*
X81437133Y-10019433D01*
X81437147Y-10019444D01*
X81437153Y-10019449D01*
X81802728Y-10285055D01*
X81802732Y-10285057D01*
X81802737Y-10285061D01*
X82187997Y-10521149D01*
X82188002Y-10521152D01*
X82188007Y-10521154D01*
X82188016Y-10521160D01*
X82590640Y-10726307D01*
X83004294Y-10897648D01*
X83008123Y-10899234D01*
X83104277Y-10930476D01*
X83341546Y-11007569D01*
X83399221Y-11047006D01*
X83426420Y-11111365D01*
X83414506Y-11180211D01*
X83367262Y-11231687D01*
X83303228Y-11249500D01*
X82069336Y-11249500D01*
X82002297Y-11229815D01*
X81981655Y-11213181D01*
X72814648Y-2046174D01*
X72814646Y-2046172D01*
X72655405Y-1930476D01*
X72597785Y-1901117D01*
X72480030Y-1841117D01*
X72292826Y-1780290D01*
X72098422Y-1749500D01*
X72098417Y-1749500D01*
X62569336Y-1749500D01*
X62502297Y-1729815D01*
X62481655Y-1713181D01*
X61480655Y-712181D01*
X61447170Y-650858D01*
X61452154Y-581166D01*
X61494026Y-525233D01*
X61559490Y-500816D01*
X61568336Y-500500D01*
X81716254Y-500500D01*
X81783293Y-520185D01*
G37*
%TD.AperFunction*%
%TD*%
M02*
