%TF.GenerationSoftware,KiCad,Pcbnew,9.0.1*%
%TF.CreationDate,2026-02-09T17:57:19-08:00*%
%TF.ProjectId,MainBoard,4d61696e-426f-4617-9264-2e6b69636164,rev?*%
%TF.SameCoordinates,Original*%
%TF.FileFunction,Paste,Top*%
%TF.FilePolarity,Positive*%
%FSLAX46Y46*%
G04 Gerber Fmt 4.6, Leading zero omitted, Abs format (unit mm)*
G04 Created by KiCad (PCBNEW 9.0.1) date 2026-02-09 17:57:19*
%MOMM*%
%LPD*%
G01*
G04 APERTURE LIST*
G04 Aperture macros list*
%AMRoundRect*
0 Rectangle with rounded corners*
0 $1 Rounding radius*
0 $2 $3 $4 $5 $6 $7 $8 $9 X,Y pos of 4 corners*
0 Add a 4 corners polygon primitive as box body*
4,1,4,$2,$3,$4,$5,$6,$7,$8,$9,$2,$3,0*
0 Add four circle primitives for the rounded corners*
1,1,$1+$1,$2,$3*
1,1,$1+$1,$4,$5*
1,1,$1+$1,$6,$7*
1,1,$1+$1,$8,$9*
0 Add four rect primitives between the rounded corners*
20,1,$1+$1,$2,$3,$4,$5,0*
20,1,$1+$1,$4,$5,$6,$7,0*
20,1,$1+$1,$6,$7,$8,$9,0*
20,1,$1+$1,$8,$9,$2,$3,0*%
G04 Aperture macros list end*
%ADD10RoundRect,0.250000X1.100000X-0.412500X1.100000X0.412500X-1.100000X0.412500X-1.100000X-0.412500X0*%
%ADD11RoundRect,0.250000X-1.100000X0.412500X-1.100000X-0.412500X1.100000X-0.412500X1.100000X0.412500X0*%
%ADD12RoundRect,0.250000X1.075000X-0.400000X1.075000X0.400000X-1.075000X0.400000X-1.075000X-0.400000X0*%
%ADD13R,0.850000X1.050000*%
%ADD14RoundRect,0.250000X-0.412500X-1.100000X0.412500X-1.100000X0.412500X1.100000X-0.412500X1.100000X0*%
%ADD15R,1.000000X1.750000*%
%ADD16R,1.850000X0.650000*%
%ADD17R,3.500000X1.850000*%
%ADD18RoundRect,0.250000X0.400000X1.075000X-0.400000X1.075000X-0.400000X-1.075000X0.400000X-1.075000X0*%
%ADD19R,1.925000X0.650000*%
%ADD20R,0.450000X1.475000*%
%ADD21R,0.400000X1.000000*%
%ADD22RoundRect,0.250000X-1.075000X0.400000X-1.075000X-0.400000X1.075000X-0.400000X1.075000X0.400000X0*%
%ADD23R,1.350000X0.900000*%
%ADD24RoundRect,0.250000X0.412500X1.100000X-0.412500X1.100000X-0.412500X-1.100000X0.412500X-1.100000X0*%
G04 APERTURE END LIST*
D10*
%TO.C,C35*%
X187135000Y-16182500D03*
X187135000Y-13057500D03*
%TD*%
D11*
%TO.C,C26*%
X154000000Y-26437500D03*
X154000000Y-29562500D03*
%TD*%
D12*
%TO.C,R76*%
X37450000Y-20550000D03*
X37450000Y-17450000D03*
%TD*%
D13*
%TO.C,Z6*%
X96000000Y-15435000D03*
X96000000Y-11835000D03*
%TD*%
D14*
%TO.C,C125*%
X248437500Y-39000000D03*
X251562500Y-39000000D03*
%TD*%
D15*
%TO.C,LED2*%
X107000000Y-25635000D03*
X104000000Y-25635000D03*
%TD*%
D16*
%TO.C,IC6*%
X163350000Y-13000000D03*
X163350000Y-14270000D03*
X163350000Y-15540000D03*
X163350000Y-16810000D03*
X174000000Y-16810000D03*
X174000000Y-15540000D03*
X174000000Y-14270000D03*
X174000000Y-13000000D03*
%TD*%
D17*
%TO.C,C154*%
X202150000Y-55000000D03*
X207450000Y-55000000D03*
%TD*%
D18*
%TO.C,R85*%
X23550000Y-26000000D03*
X20450000Y-26000000D03*
%TD*%
%TO.C,R86*%
X18000000Y-26000000D03*
X14900000Y-26000000D03*
%TD*%
%TO.C,R96*%
X29000000Y-35000000D03*
X25900000Y-35000000D03*
%TD*%
D10*
%TO.C,C36*%
X187135000Y-7620000D03*
X187135000Y-4495000D03*
%TD*%
D19*
%TO.C,IC2*%
X56288000Y-16555000D03*
X56288000Y-17825000D03*
X56288000Y-19095000D03*
X56288000Y-20365000D03*
X56288000Y-21635000D03*
X56288000Y-22905000D03*
X56288000Y-24175000D03*
X56288000Y-25445000D03*
X65712000Y-25445000D03*
X65712000Y-24175000D03*
X65712000Y-22905000D03*
X65712000Y-21635000D03*
X65712000Y-20365000D03*
X65712000Y-19095000D03*
X65712000Y-17825000D03*
X65712000Y-16555000D03*
%TD*%
D10*
%TO.C,C113*%
X105000000Y-15760000D03*
X105000000Y-12635000D03*
%TD*%
%TO.C,C3*%
X68500000Y-27197500D03*
X68500000Y-24072500D03*
%TD*%
D17*
%TO.C,C159*%
X122250000Y-55000000D03*
X127550000Y-55000000D03*
%TD*%
D10*
%TO.C,C135*%
X274000000Y-4562500D03*
X274000000Y-1437500D03*
%TD*%
D17*
%TO.C,C155*%
X201600000Y-45000000D03*
X206900000Y-45000000D03*
%TD*%
D20*
%TO.C,IC5*%
X150050000Y-17000000D03*
X150700000Y-17000000D03*
X151350000Y-17000000D03*
X152000000Y-17000000D03*
X152650000Y-17000000D03*
X153300000Y-17000000D03*
X153950000Y-17000000D03*
X154600000Y-17000000D03*
X155250000Y-17000000D03*
X155900000Y-17000000D03*
X155900000Y-11124000D03*
X155250000Y-11124000D03*
X154600000Y-11124000D03*
X153950000Y-11124000D03*
X153300000Y-11124000D03*
X152650000Y-11124000D03*
X152000000Y-11124000D03*
X151350000Y-11124000D03*
X150700000Y-11124000D03*
X150050000Y-11124000D03*
%TD*%
D10*
%TO.C,C37*%
X191135000Y-12182500D03*
X191135000Y-9057500D03*
%TD*%
D21*
%TO.C,IC14*%
X251850000Y-44000000D03*
X252500000Y-44000000D03*
X253150000Y-44000000D03*
X253150000Y-42000000D03*
X252500000Y-42000000D03*
X251850000Y-42000000D03*
%TD*%
D18*
%TO.C,R83*%
X34550000Y-26000000D03*
X31450000Y-26000000D03*
%TD*%
D10*
%TO.C,C8*%
X86500000Y-21197500D03*
X86500000Y-18072500D03*
%TD*%
D13*
%TO.C,Z4*%
X42000000Y-37650000D03*
X42000000Y-41250000D03*
%TD*%
D17*
%TO.C,C148*%
X182350000Y-55000000D03*
X187650000Y-55000000D03*
%TD*%
D12*
%TO.C,R101*%
X100500000Y-15747500D03*
X100500000Y-12647500D03*
%TD*%
D22*
%TO.C,R87*%
X37000000Y-31000000D03*
X37000000Y-34100000D03*
%TD*%
D17*
%TO.C,C158*%
X211500000Y-45000000D03*
X216800000Y-45000000D03*
%TD*%
D11*
%TO.C,C1*%
X71000000Y-8072500D03*
X71000000Y-11197500D03*
%TD*%
D23*
%TO.C,FL1*%
X177685000Y-12655000D03*
X177685000Y-15155000D03*
X182235000Y-15155000D03*
X182235000Y-12655000D03*
%TD*%
D17*
%TO.C,C151*%
X192250000Y-55000000D03*
X197550000Y-55000000D03*
%TD*%
D11*
%TO.C,C30*%
X159000000Y-26437500D03*
X159000000Y-29562500D03*
%TD*%
D17*
%TO.C,C150*%
X112200000Y-45000000D03*
X117500000Y-45000000D03*
%TD*%
%TO.C,C149*%
X89700000Y-55000000D03*
X95000000Y-55000000D03*
%TD*%
%TO.C,C152*%
X99600000Y-55000000D03*
X104900000Y-55000000D03*
%TD*%
D11*
%TO.C,C27*%
X151675000Y-3905000D03*
X151675000Y-7030000D03*
%TD*%
D13*
%TO.C,Z3*%
X42000000Y-30750000D03*
X42000000Y-34350000D03*
%TD*%
D11*
%TO.C,C31*%
X156675000Y-3905000D03*
X156675000Y-7030000D03*
%TD*%
D17*
%TO.C,C156*%
X112350000Y-55000000D03*
X117650000Y-55000000D03*
%TD*%
%TO.C,C157*%
X212050000Y-55000000D03*
X217350000Y-55000000D03*
%TD*%
D13*
%TO.C,Z1*%
X43000000Y-20800000D03*
X43000000Y-17200000D03*
%TD*%
D12*
%TO.C,R105*%
X100500000Y-5635000D03*
X100500000Y-2535000D03*
%TD*%
D18*
%TO.C,R97*%
X23550000Y-35000000D03*
X20450000Y-35000000D03*
%TD*%
D13*
%TO.C,Z8*%
X96000000Y-5435000D03*
X96000000Y-1835000D03*
%TD*%
D22*
%TO.C,R82*%
X37450000Y-24450000D03*
X37450000Y-27550000D03*
%TD*%
D17*
%TO.C,C153*%
X122100000Y-45000000D03*
X127400000Y-45000000D03*
%TD*%
D22*
%TO.C,R94*%
X37450000Y-37900000D03*
X37450000Y-41000000D03*
%TD*%
D18*
%TO.C,R98*%
X18000000Y-35000000D03*
X14900000Y-35000000D03*
%TD*%
D21*
%TO.C,IC13*%
X266600000Y-5250000D03*
X267250000Y-5250000D03*
X267900000Y-5250000D03*
X267900000Y-3250000D03*
X267250000Y-3250000D03*
X266600000Y-3250000D03*
%TD*%
D18*
%TO.C,R84*%
X29000000Y-26000000D03*
X25900000Y-26000000D03*
%TD*%
%TO.C,R95*%
X34550000Y-37000000D03*
X31450000Y-37000000D03*
%TD*%
D24*
%TO.C,C25*%
X148000000Y-10000000D03*
X144875000Y-10000000D03*
%TD*%
D13*
%TO.C,Z2*%
X42000000Y-24200000D03*
X42000000Y-27800000D03*
%TD*%
D11*
%TO.C,C7*%
X86500000Y-8010000D03*
X86500000Y-11135000D03*
%TD*%
D19*
%TO.C,IC1*%
X83712000Y-19080000D03*
X83712000Y-17810000D03*
X83712000Y-16540000D03*
X83712000Y-15270000D03*
X83712000Y-14000000D03*
X83712000Y-12730000D03*
X83712000Y-11460000D03*
X83712000Y-10190000D03*
X74288000Y-10190000D03*
X74288000Y-11460000D03*
X74288000Y-12730000D03*
X74288000Y-14000000D03*
X74288000Y-15270000D03*
X74288000Y-16540000D03*
X74288000Y-17810000D03*
X74288000Y-19080000D03*
%TD*%
D10*
%TO.C,C115*%
X105000000Y-5760000D03*
X105000000Y-2635000D03*
%TD*%
D14*
%TO.C,C139*%
X248437500Y-34500000D03*
X251562500Y-34500000D03*
%TD*%
D10*
%TO.C,C134*%
X279000000Y-4562500D03*
X279000000Y-1437500D03*
%TD*%
M02*
