%TF.GenerationSoftware,KiCad,Pcbnew,10.0.3*%
%TF.CreationDate,2026-05-26T21:36:15-07:00*%
%TF.ProjectId,MainBoard,4d61696e-426f-4617-9264-2e6b69636164,rev?*%
%TF.SameCoordinates,Original*%
%TF.FileFunction,Legend,Top*%
%TF.FilePolarity,Positive*%
%FSLAX46Y46*%
G04 Gerber Fmt 4.6, Leading zero omitted, Abs format (unit mm)*
G04 Created by KiCad (PCBNEW 10.0.3) date 2026-05-26 21:36:15*
%MOMM*%
%LPD*%
G01*
G04 APERTURE LIST*
%ADD10C,0.250000*%
%ADD11C,0.100000*%
%ADD12C,0.500000*%
%ADD13C,0.150000*%
%ADD14C,0.254000*%
%ADD15C,0.200000*%
%ADD16C,0.120000*%
%ADD17C,0.300000*%
%ADD18R,1.500000X1.500000*%
%ADD19C,1.950000*%
%ADD20C,1.500000*%
%ADD21C,1.217000*%
G04 APERTURE END LIST*
D10*
X61902568Y-40644731D02*
X61902568Y-39644731D01*
X61902568Y-39644731D02*
X62235901Y-40359016D01*
X62235901Y-40359016D02*
X62569234Y-39644731D01*
X62569234Y-39644731D02*
X62569234Y-40644731D01*
X63235901Y-39644731D02*
X63426377Y-39644731D01*
X63426377Y-39644731D02*
X63521615Y-39692350D01*
X63521615Y-39692350D02*
X63616853Y-39787588D01*
X63616853Y-39787588D02*
X63664472Y-39978064D01*
X63664472Y-39978064D02*
X63664472Y-40311397D01*
X63664472Y-40311397D02*
X63616853Y-40501873D01*
X63616853Y-40501873D02*
X63521615Y-40597112D01*
X63521615Y-40597112D02*
X63426377Y-40644731D01*
X63426377Y-40644731D02*
X63235901Y-40644731D01*
X63235901Y-40644731D02*
X63140663Y-40597112D01*
X63140663Y-40597112D02*
X63045425Y-40501873D01*
X63045425Y-40501873D02*
X62997806Y-40311397D01*
X62997806Y-40311397D02*
X62997806Y-39978064D01*
X62997806Y-39978064D02*
X63045425Y-39787588D01*
X63045425Y-39787588D02*
X63140663Y-39692350D01*
X63140663Y-39692350D02*
X63235901Y-39644731D01*
X64093044Y-40644731D02*
X64093044Y-39644731D01*
X64093044Y-39644731D02*
X64331139Y-39644731D01*
X64331139Y-39644731D02*
X64473996Y-39692350D01*
X64473996Y-39692350D02*
X64569234Y-39787588D01*
X64569234Y-39787588D02*
X64616853Y-39882826D01*
X64616853Y-39882826D02*
X64664472Y-40073302D01*
X64664472Y-40073302D02*
X64664472Y-40216159D01*
X64664472Y-40216159D02*
X64616853Y-40406635D01*
X64616853Y-40406635D02*
X64569234Y-40501873D01*
X64569234Y-40501873D02*
X64473996Y-40597112D01*
X64473996Y-40597112D02*
X64331139Y-40644731D01*
X64331139Y-40644731D02*
X64093044Y-40644731D01*
X65093044Y-40120921D02*
X65426377Y-40120921D01*
X65569234Y-40644731D02*
X65093044Y-40644731D01*
X65093044Y-40644731D02*
X65093044Y-39644731D01*
X65093044Y-39644731D02*
X65569234Y-39644731D01*
X66473996Y-40644731D02*
X65997806Y-40644731D01*
X65997806Y-40644731D02*
X65997806Y-39644731D01*
X66807330Y-40549492D02*
X66854949Y-40597112D01*
X66854949Y-40597112D02*
X66807330Y-40644731D01*
X66807330Y-40644731D02*
X66759711Y-40597112D01*
X66759711Y-40597112D02*
X66807330Y-40549492D01*
X66807330Y-40549492D02*
X66807330Y-40644731D01*
X66807330Y-40025683D02*
X66854949Y-40073302D01*
X66854949Y-40073302D02*
X66807330Y-40120921D01*
X66807330Y-40120921D02*
X66759711Y-40073302D01*
X66759711Y-40073302D02*
X66807330Y-40025683D01*
X66807330Y-40025683D02*
X66807330Y-40120921D01*
X62473996Y-42159436D02*
X62426377Y-42207056D01*
X62426377Y-42207056D02*
X62283520Y-42254675D01*
X62283520Y-42254675D02*
X62188282Y-42254675D01*
X62188282Y-42254675D02*
X62045425Y-42207056D01*
X62045425Y-42207056D02*
X61950187Y-42111817D01*
X61950187Y-42111817D02*
X61902568Y-42016579D01*
X61902568Y-42016579D02*
X61854949Y-41826103D01*
X61854949Y-41826103D02*
X61854949Y-41683246D01*
X61854949Y-41683246D02*
X61902568Y-41492770D01*
X61902568Y-41492770D02*
X61950187Y-41397532D01*
X61950187Y-41397532D02*
X62045425Y-41302294D01*
X62045425Y-41302294D02*
X62188282Y-41254675D01*
X62188282Y-41254675D02*
X62283520Y-41254675D01*
X62283520Y-41254675D02*
X62426377Y-41302294D01*
X62426377Y-41302294D02*
X62473996Y-41349913D01*
X62854949Y-41349913D02*
X62902568Y-41302294D01*
X62902568Y-41302294D02*
X62997806Y-41254675D01*
X62997806Y-41254675D02*
X63235901Y-41254675D01*
X63235901Y-41254675D02*
X63331139Y-41302294D01*
X63331139Y-41302294D02*
X63378758Y-41349913D01*
X63378758Y-41349913D02*
X63426377Y-41445151D01*
X63426377Y-41445151D02*
X63426377Y-41540389D01*
X63426377Y-41540389D02*
X63378758Y-41683246D01*
X63378758Y-41683246D02*
X62807330Y-42254675D01*
X62807330Y-42254675D02*
X63426377Y-42254675D01*
X63854949Y-41873722D02*
X64616854Y-41873722D01*
X65664472Y-42159436D02*
X65616853Y-42207056D01*
X65616853Y-42207056D02*
X65473996Y-42254675D01*
X65473996Y-42254675D02*
X65378758Y-42254675D01*
X65378758Y-42254675D02*
X65235901Y-42207056D01*
X65235901Y-42207056D02*
X65140663Y-42111817D01*
X65140663Y-42111817D02*
X65093044Y-42016579D01*
X65093044Y-42016579D02*
X65045425Y-41826103D01*
X65045425Y-41826103D02*
X65045425Y-41683246D01*
X65045425Y-41683246D02*
X65093044Y-41492770D01*
X65093044Y-41492770D02*
X65140663Y-41397532D01*
X65140663Y-41397532D02*
X65235901Y-41302294D01*
X65235901Y-41302294D02*
X65378758Y-41254675D01*
X65378758Y-41254675D02*
X65473996Y-41254675D01*
X65473996Y-41254675D02*
X65616853Y-41302294D01*
X65616853Y-41302294D02*
X65664472Y-41349913D01*
X66093044Y-42254675D02*
X66093044Y-41254675D01*
X66093044Y-41254675D02*
X66426377Y-41968960D01*
X66426377Y-41968960D02*
X66759710Y-41254675D01*
X66759710Y-41254675D02*
X66759710Y-42254675D01*
X67569234Y-41730865D02*
X67712091Y-41778484D01*
X67712091Y-41778484D02*
X67759710Y-41826103D01*
X67759710Y-41826103D02*
X67807329Y-41921341D01*
X67807329Y-41921341D02*
X67807329Y-42064198D01*
X67807329Y-42064198D02*
X67759710Y-42159436D01*
X67759710Y-42159436D02*
X67712091Y-42207056D01*
X67712091Y-42207056D02*
X67616853Y-42254675D01*
X67616853Y-42254675D02*
X67235901Y-42254675D01*
X67235901Y-42254675D02*
X67235901Y-41254675D01*
X67235901Y-41254675D02*
X67569234Y-41254675D01*
X67569234Y-41254675D02*
X67664472Y-41302294D01*
X67664472Y-41302294D02*
X67712091Y-41349913D01*
X67712091Y-41349913D02*
X67759710Y-41445151D01*
X67759710Y-41445151D02*
X67759710Y-41540389D01*
X67759710Y-41540389D02*
X67712091Y-41635627D01*
X67712091Y-41635627D02*
X67664472Y-41683246D01*
X67664472Y-41683246D02*
X67569234Y-41730865D01*
X67569234Y-41730865D02*
X67235901Y-41730865D01*
X68235901Y-41873722D02*
X68997806Y-41873722D01*
X69950186Y-42254675D02*
X69473996Y-42254675D01*
X69473996Y-42254675D02*
X69473996Y-41254675D01*
X70140663Y-41254675D02*
X70473996Y-42254675D01*
X70473996Y-42254675D02*
X70807329Y-41254675D01*
X62473996Y-43769380D02*
X62426377Y-43817000D01*
X62426377Y-43817000D02*
X62283520Y-43864619D01*
X62283520Y-43864619D02*
X62188282Y-43864619D01*
X62188282Y-43864619D02*
X62045425Y-43817000D01*
X62045425Y-43817000D02*
X61950187Y-43721761D01*
X61950187Y-43721761D02*
X61902568Y-43626523D01*
X61902568Y-43626523D02*
X61854949Y-43436047D01*
X61854949Y-43436047D02*
X61854949Y-43293190D01*
X61854949Y-43293190D02*
X61902568Y-43102714D01*
X61902568Y-43102714D02*
X61950187Y-43007476D01*
X61950187Y-43007476D02*
X62045425Y-42912238D01*
X62045425Y-42912238D02*
X62188282Y-42864619D01*
X62188282Y-42864619D02*
X62283520Y-42864619D01*
X62283520Y-42864619D02*
X62426377Y-42912238D01*
X62426377Y-42912238D02*
X62473996Y-42959857D01*
X63093044Y-42864619D02*
X63283520Y-42864619D01*
X63283520Y-42864619D02*
X63378758Y-42912238D01*
X63378758Y-42912238D02*
X63473996Y-43007476D01*
X63473996Y-43007476D02*
X63521615Y-43197952D01*
X63521615Y-43197952D02*
X63521615Y-43531285D01*
X63521615Y-43531285D02*
X63473996Y-43721761D01*
X63473996Y-43721761D02*
X63378758Y-43817000D01*
X63378758Y-43817000D02*
X63283520Y-43864619D01*
X63283520Y-43864619D02*
X63093044Y-43864619D01*
X63093044Y-43864619D02*
X62997806Y-43817000D01*
X62997806Y-43817000D02*
X62902568Y-43721761D01*
X62902568Y-43721761D02*
X62854949Y-43531285D01*
X62854949Y-43531285D02*
X62854949Y-43197952D01*
X62854949Y-43197952D02*
X62902568Y-43007476D01*
X62902568Y-43007476D02*
X62997806Y-42912238D01*
X62997806Y-42912238D02*
X63093044Y-42864619D01*
X63950187Y-43864619D02*
X63950187Y-42864619D01*
X63950187Y-42864619D02*
X64521615Y-43864619D01*
X64521615Y-43864619D02*
X64521615Y-42864619D01*
X64997806Y-43864619D02*
X64997806Y-42864619D01*
X64997806Y-42864619D02*
X65569234Y-43864619D01*
X65569234Y-43864619D02*
X65569234Y-42864619D01*
X66045425Y-43340809D02*
X66378758Y-43340809D01*
X66521615Y-43864619D02*
X66045425Y-43864619D01*
X66045425Y-43864619D02*
X66045425Y-42864619D01*
X66045425Y-42864619D02*
X66521615Y-42864619D01*
X67521615Y-43769380D02*
X67473996Y-43817000D01*
X67473996Y-43817000D02*
X67331139Y-43864619D01*
X67331139Y-43864619D02*
X67235901Y-43864619D01*
X67235901Y-43864619D02*
X67093044Y-43817000D01*
X67093044Y-43817000D02*
X66997806Y-43721761D01*
X66997806Y-43721761D02*
X66950187Y-43626523D01*
X66950187Y-43626523D02*
X66902568Y-43436047D01*
X66902568Y-43436047D02*
X66902568Y-43293190D01*
X66902568Y-43293190D02*
X66950187Y-43102714D01*
X66950187Y-43102714D02*
X66997806Y-43007476D01*
X66997806Y-43007476D02*
X67093044Y-42912238D01*
X67093044Y-42912238D02*
X67235901Y-42864619D01*
X67235901Y-42864619D02*
X67331139Y-42864619D01*
X67331139Y-42864619D02*
X67473996Y-42912238D01*
X67473996Y-42912238D02*
X67521615Y-42959857D01*
X67807330Y-42864619D02*
X68378758Y-42864619D01*
X68093044Y-43864619D02*
X68093044Y-42864619D01*
X68902568Y-42864619D02*
X69093044Y-42864619D01*
X69093044Y-42864619D02*
X69188282Y-42912238D01*
X69188282Y-42912238D02*
X69283520Y-43007476D01*
X69283520Y-43007476D02*
X69331139Y-43197952D01*
X69331139Y-43197952D02*
X69331139Y-43531285D01*
X69331139Y-43531285D02*
X69283520Y-43721761D01*
X69283520Y-43721761D02*
X69188282Y-43817000D01*
X69188282Y-43817000D02*
X69093044Y-43864619D01*
X69093044Y-43864619D02*
X68902568Y-43864619D01*
X68902568Y-43864619D02*
X68807330Y-43817000D01*
X68807330Y-43817000D02*
X68712092Y-43721761D01*
X68712092Y-43721761D02*
X68664473Y-43531285D01*
X68664473Y-43531285D02*
X68664473Y-43197952D01*
X68664473Y-43197952D02*
X68712092Y-43007476D01*
X68712092Y-43007476D02*
X68807330Y-42912238D01*
X68807330Y-42912238D02*
X68902568Y-42864619D01*
X70331139Y-43864619D02*
X69997806Y-43388428D01*
X69759711Y-43864619D02*
X69759711Y-42864619D01*
X69759711Y-42864619D02*
X70140663Y-42864619D01*
X70140663Y-42864619D02*
X70235901Y-42912238D01*
X70235901Y-42912238D02*
X70283520Y-42959857D01*
X70283520Y-42959857D02*
X70331139Y-43055095D01*
X70331139Y-43055095D02*
X70331139Y-43197952D01*
X70331139Y-43197952D02*
X70283520Y-43293190D01*
X70283520Y-43293190D02*
X70235901Y-43340809D01*
X70235901Y-43340809D02*
X70140663Y-43388428D01*
X70140663Y-43388428D02*
X69759711Y-43388428D01*
X71521616Y-43864619D02*
X71521616Y-42864619D01*
X71997806Y-43864619D02*
X71997806Y-42864619D01*
X71997806Y-42864619D02*
X72569234Y-43864619D01*
X72569234Y-43864619D02*
X72569234Y-42864619D01*
X73045425Y-43864619D02*
X73045425Y-42864619D01*
X73045425Y-42864619D02*
X73426377Y-42864619D01*
X73426377Y-42864619D02*
X73521615Y-42912238D01*
X73521615Y-42912238D02*
X73569234Y-42959857D01*
X73569234Y-42959857D02*
X73616853Y-43055095D01*
X73616853Y-43055095D02*
X73616853Y-43197952D01*
X73616853Y-43197952D02*
X73569234Y-43293190D01*
X73569234Y-43293190D02*
X73521615Y-43340809D01*
X73521615Y-43340809D02*
X73426377Y-43388428D01*
X73426377Y-43388428D02*
X73045425Y-43388428D01*
X74045425Y-42864619D02*
X74045425Y-43674142D01*
X74045425Y-43674142D02*
X74093044Y-43769380D01*
X74093044Y-43769380D02*
X74140663Y-43817000D01*
X74140663Y-43817000D02*
X74235901Y-43864619D01*
X74235901Y-43864619D02*
X74426377Y-43864619D01*
X74426377Y-43864619D02*
X74521615Y-43817000D01*
X74521615Y-43817000D02*
X74569234Y-43769380D01*
X74569234Y-43769380D02*
X74616853Y-43674142D01*
X74616853Y-43674142D02*
X74616853Y-42864619D01*
X74950187Y-42864619D02*
X75521615Y-42864619D01*
X75235901Y-43864619D02*
X75235901Y-42864619D01*
X76950187Y-43340809D02*
X77093044Y-43388428D01*
X77093044Y-43388428D02*
X77140663Y-43436047D01*
X77140663Y-43436047D02*
X77188282Y-43531285D01*
X77188282Y-43531285D02*
X77188282Y-43674142D01*
X77188282Y-43674142D02*
X77140663Y-43769380D01*
X77140663Y-43769380D02*
X77093044Y-43817000D01*
X77093044Y-43817000D02*
X76997806Y-43864619D01*
X76997806Y-43864619D02*
X76616854Y-43864619D01*
X76616854Y-43864619D02*
X76616854Y-42864619D01*
X76616854Y-42864619D02*
X76950187Y-42864619D01*
X76950187Y-42864619D02*
X77045425Y-42912238D01*
X77045425Y-42912238D02*
X77093044Y-42959857D01*
X77093044Y-42959857D02*
X77140663Y-43055095D01*
X77140663Y-43055095D02*
X77140663Y-43150333D01*
X77140663Y-43150333D02*
X77093044Y-43245571D01*
X77093044Y-43245571D02*
X77045425Y-43293190D01*
X77045425Y-43293190D02*
X76950187Y-43340809D01*
X76950187Y-43340809D02*
X76616854Y-43340809D01*
X77807330Y-42864619D02*
X77997806Y-42864619D01*
X77997806Y-42864619D02*
X78093044Y-42912238D01*
X78093044Y-42912238D02*
X78188282Y-43007476D01*
X78188282Y-43007476D02*
X78235901Y-43197952D01*
X78235901Y-43197952D02*
X78235901Y-43531285D01*
X78235901Y-43531285D02*
X78188282Y-43721761D01*
X78188282Y-43721761D02*
X78093044Y-43817000D01*
X78093044Y-43817000D02*
X77997806Y-43864619D01*
X77997806Y-43864619D02*
X77807330Y-43864619D01*
X77807330Y-43864619D02*
X77712092Y-43817000D01*
X77712092Y-43817000D02*
X77616854Y-43721761D01*
X77616854Y-43721761D02*
X77569235Y-43531285D01*
X77569235Y-43531285D02*
X77569235Y-43197952D01*
X77569235Y-43197952D02*
X77616854Y-43007476D01*
X77616854Y-43007476D02*
X77712092Y-42912238D01*
X77712092Y-42912238D02*
X77807330Y-42864619D01*
X78616854Y-43578904D02*
X79093044Y-43578904D01*
X78521616Y-43864619D02*
X78854949Y-42864619D01*
X78854949Y-42864619D02*
X79188282Y-43864619D01*
X80093044Y-43864619D02*
X79759711Y-43388428D01*
X79521616Y-43864619D02*
X79521616Y-42864619D01*
X79521616Y-42864619D02*
X79902568Y-42864619D01*
X79902568Y-42864619D02*
X79997806Y-42912238D01*
X79997806Y-42912238D02*
X80045425Y-42959857D01*
X80045425Y-42959857D02*
X80093044Y-43055095D01*
X80093044Y-43055095D02*
X80093044Y-43197952D01*
X80093044Y-43197952D02*
X80045425Y-43293190D01*
X80045425Y-43293190D02*
X79997806Y-43340809D01*
X79997806Y-43340809D02*
X79902568Y-43388428D01*
X79902568Y-43388428D02*
X79521616Y-43388428D01*
X80521616Y-43864619D02*
X80521616Y-42864619D01*
X80521616Y-42864619D02*
X80759711Y-42864619D01*
X80759711Y-42864619D02*
X80902568Y-42912238D01*
X80902568Y-42912238D02*
X80997806Y-43007476D01*
X80997806Y-43007476D02*
X81045425Y-43102714D01*
X81045425Y-43102714D02*
X81093044Y-43293190D01*
X81093044Y-43293190D02*
X81093044Y-43436047D01*
X81093044Y-43436047D02*
X81045425Y-43626523D01*
X81045425Y-43626523D02*
X80997806Y-43721761D01*
X80997806Y-43721761D02*
X80902568Y-43817000D01*
X80902568Y-43817000D02*
X80759711Y-43864619D01*
X80759711Y-43864619D02*
X80521616Y-43864619D01*
X171032952Y-38835527D02*
X171318666Y-39597431D01*
X171318666Y-39597431D02*
X171604380Y-38835527D01*
X171318666Y-38359336D02*
X171318666Y-37597432D01*
X171699619Y-35787908D02*
X171223428Y-36121241D01*
X171699619Y-36359336D02*
X170699619Y-36359336D01*
X170699619Y-36359336D02*
X170699619Y-35978384D01*
X170699619Y-35978384D02*
X170747238Y-35883146D01*
X170747238Y-35883146D02*
X170794857Y-35835527D01*
X170794857Y-35835527D02*
X170890095Y-35787908D01*
X170890095Y-35787908D02*
X171032952Y-35787908D01*
X171032952Y-35787908D02*
X171128190Y-35835527D01*
X171128190Y-35835527D02*
X171175809Y-35883146D01*
X171175809Y-35883146D02*
X171223428Y-35978384D01*
X171223428Y-35978384D02*
X171223428Y-36359336D01*
X171175809Y-35359336D02*
X171175809Y-35026003D01*
X171699619Y-34883146D02*
X171699619Y-35359336D01*
X171699619Y-35359336D02*
X170699619Y-35359336D01*
X170699619Y-35359336D02*
X170699619Y-34883146D01*
X171652000Y-34502193D02*
X171699619Y-34359336D01*
X171699619Y-34359336D02*
X171699619Y-34121241D01*
X171699619Y-34121241D02*
X171652000Y-34026003D01*
X171652000Y-34026003D02*
X171604380Y-33978384D01*
X171604380Y-33978384D02*
X171509142Y-33930765D01*
X171509142Y-33930765D02*
X171413904Y-33930765D01*
X171413904Y-33930765D02*
X171318666Y-33978384D01*
X171318666Y-33978384D02*
X171271047Y-34026003D01*
X171271047Y-34026003D02*
X171223428Y-34121241D01*
X171223428Y-34121241D02*
X171175809Y-34311717D01*
X171175809Y-34311717D02*
X171128190Y-34406955D01*
X171128190Y-34406955D02*
X171080571Y-34454574D01*
X171080571Y-34454574D02*
X170985333Y-34502193D01*
X170985333Y-34502193D02*
X170890095Y-34502193D01*
X170890095Y-34502193D02*
X170794857Y-34454574D01*
X170794857Y-34454574D02*
X170747238Y-34406955D01*
X170747238Y-34406955D02*
X170699619Y-34311717D01*
X170699619Y-34311717D02*
X170699619Y-34073622D01*
X170699619Y-34073622D02*
X170747238Y-33930765D01*
X171175809Y-33502193D02*
X171175809Y-33168860D01*
X171699619Y-33026003D02*
X171699619Y-33502193D01*
X171699619Y-33502193D02*
X170699619Y-33502193D01*
X170699619Y-33502193D02*
X170699619Y-33026003D01*
X170699619Y-32740288D02*
X170699619Y-32168860D01*
X171699619Y-32454574D02*
X170699619Y-32454574D01*
X168532952Y-38835527D02*
X168818666Y-39597431D01*
X168818666Y-39597431D02*
X169104380Y-38835527D01*
X168818666Y-38359336D02*
X168818666Y-37597432D01*
X168247238Y-35835527D02*
X168199619Y-35930765D01*
X168199619Y-35930765D02*
X168199619Y-36073622D01*
X168199619Y-36073622D02*
X168247238Y-36216479D01*
X168247238Y-36216479D02*
X168342476Y-36311717D01*
X168342476Y-36311717D02*
X168437714Y-36359336D01*
X168437714Y-36359336D02*
X168628190Y-36406955D01*
X168628190Y-36406955D02*
X168771047Y-36406955D01*
X168771047Y-36406955D02*
X168961523Y-36359336D01*
X168961523Y-36359336D02*
X169056761Y-36311717D01*
X169056761Y-36311717D02*
X169152000Y-36216479D01*
X169152000Y-36216479D02*
X169199619Y-36073622D01*
X169199619Y-36073622D02*
X169199619Y-35978384D01*
X169199619Y-35978384D02*
X169152000Y-35835527D01*
X169152000Y-35835527D02*
X169104380Y-35787908D01*
X169104380Y-35787908D02*
X168771047Y-35787908D01*
X168771047Y-35787908D02*
X168771047Y-35978384D01*
X169199619Y-35359336D02*
X168199619Y-35359336D01*
X168199619Y-35359336D02*
X169199619Y-34787908D01*
X169199619Y-34787908D02*
X168199619Y-34787908D01*
X169199619Y-34311717D02*
X168199619Y-34311717D01*
X168199619Y-34311717D02*
X168199619Y-34073622D01*
X168199619Y-34073622D02*
X168247238Y-33930765D01*
X168247238Y-33930765D02*
X168342476Y-33835527D01*
X168342476Y-33835527D02*
X168437714Y-33787908D01*
X168437714Y-33787908D02*
X168628190Y-33740289D01*
X168628190Y-33740289D02*
X168771047Y-33740289D01*
X168771047Y-33740289D02*
X168961523Y-33787908D01*
X168961523Y-33787908D02*
X169056761Y-33835527D01*
X169056761Y-33835527D02*
X169152000Y-33930765D01*
X169152000Y-33930765D02*
X169199619Y-34073622D01*
X169199619Y-34073622D02*
X169199619Y-34311717D01*
X166032952Y-38835527D02*
X166318666Y-39597431D01*
X166318666Y-39597431D02*
X166604380Y-38835527D01*
X166318666Y-38359336D02*
X166318666Y-37597432D01*
X166699619Y-36359336D02*
X165699619Y-36359336D01*
X165699619Y-36359336D02*
X166699619Y-35787908D01*
X166699619Y-35787908D02*
X165699619Y-35787908D01*
X166604380Y-34740289D02*
X166652000Y-34787908D01*
X166652000Y-34787908D02*
X166699619Y-34930765D01*
X166699619Y-34930765D02*
X166699619Y-35026003D01*
X166699619Y-35026003D02*
X166652000Y-35168860D01*
X166652000Y-35168860D02*
X166556761Y-35264098D01*
X166556761Y-35264098D02*
X166461523Y-35311717D01*
X166461523Y-35311717D02*
X166271047Y-35359336D01*
X166271047Y-35359336D02*
X166128190Y-35359336D01*
X166128190Y-35359336D02*
X165937714Y-35311717D01*
X165937714Y-35311717D02*
X165842476Y-35264098D01*
X165842476Y-35264098D02*
X165747238Y-35168860D01*
X165747238Y-35168860D02*
X165699619Y-35026003D01*
X165699619Y-35026003D02*
X165699619Y-34930765D01*
X165699619Y-34930765D02*
X165747238Y-34787908D01*
X165747238Y-34787908D02*
X165794857Y-34740289D01*
X163532952Y-38835527D02*
X163818666Y-39597431D01*
X163818666Y-39597431D02*
X164104380Y-38835527D01*
X163818666Y-38359336D02*
X163818666Y-37597432D01*
X164199619Y-36359336D02*
X163199619Y-36359336D01*
X163199619Y-36359336D02*
X164199619Y-35787908D01*
X164199619Y-35787908D02*
X163199619Y-35787908D01*
X164104380Y-34740289D02*
X164152000Y-34787908D01*
X164152000Y-34787908D02*
X164199619Y-34930765D01*
X164199619Y-34930765D02*
X164199619Y-35026003D01*
X164199619Y-35026003D02*
X164152000Y-35168860D01*
X164152000Y-35168860D02*
X164056761Y-35264098D01*
X164056761Y-35264098D02*
X163961523Y-35311717D01*
X163961523Y-35311717D02*
X163771047Y-35359336D01*
X163771047Y-35359336D02*
X163628190Y-35359336D01*
X163628190Y-35359336D02*
X163437714Y-35311717D01*
X163437714Y-35311717D02*
X163342476Y-35264098D01*
X163342476Y-35264098D02*
X163247238Y-35168860D01*
X163247238Y-35168860D02*
X163199619Y-35026003D01*
X163199619Y-35026003D02*
X163199619Y-34930765D01*
X163199619Y-34930765D02*
X163247238Y-34787908D01*
X163247238Y-34787908D02*
X163294857Y-34740289D01*
X161032952Y-38835527D02*
X161318666Y-39597431D01*
X161318666Y-39597431D02*
X161604380Y-38835527D01*
X161318666Y-38359336D02*
X161318666Y-37597432D01*
X161652000Y-36406955D02*
X161699619Y-36264098D01*
X161699619Y-36264098D02*
X161699619Y-36026003D01*
X161699619Y-36026003D02*
X161652000Y-35930765D01*
X161652000Y-35930765D02*
X161604380Y-35883146D01*
X161604380Y-35883146D02*
X161509142Y-35835527D01*
X161509142Y-35835527D02*
X161413904Y-35835527D01*
X161413904Y-35835527D02*
X161318666Y-35883146D01*
X161318666Y-35883146D02*
X161271047Y-35930765D01*
X161271047Y-35930765D02*
X161223428Y-36026003D01*
X161223428Y-36026003D02*
X161175809Y-36216479D01*
X161175809Y-36216479D02*
X161128190Y-36311717D01*
X161128190Y-36311717D02*
X161080571Y-36359336D01*
X161080571Y-36359336D02*
X160985333Y-36406955D01*
X160985333Y-36406955D02*
X160890095Y-36406955D01*
X160890095Y-36406955D02*
X160794857Y-36359336D01*
X160794857Y-36359336D02*
X160747238Y-36311717D01*
X160747238Y-36311717D02*
X160699619Y-36216479D01*
X160699619Y-36216479D02*
X160699619Y-35978384D01*
X160699619Y-35978384D02*
X160747238Y-35835527D01*
X160699619Y-35502193D02*
X161699619Y-35264098D01*
X161699619Y-35264098D02*
X160985333Y-35073622D01*
X160985333Y-35073622D02*
X161699619Y-34883146D01*
X161699619Y-34883146D02*
X160699619Y-34645051D01*
X160699619Y-34073622D02*
X160699619Y-33883146D01*
X160699619Y-33883146D02*
X160747238Y-33787908D01*
X160747238Y-33787908D02*
X160842476Y-33692670D01*
X160842476Y-33692670D02*
X161032952Y-33645051D01*
X161032952Y-33645051D02*
X161366285Y-33645051D01*
X161366285Y-33645051D02*
X161556761Y-33692670D01*
X161556761Y-33692670D02*
X161652000Y-33787908D01*
X161652000Y-33787908D02*
X161699619Y-33883146D01*
X161699619Y-33883146D02*
X161699619Y-34073622D01*
X161699619Y-34073622D02*
X161652000Y-34168860D01*
X161652000Y-34168860D02*
X161556761Y-34264098D01*
X161556761Y-34264098D02*
X161366285Y-34311717D01*
X161366285Y-34311717D02*
X161032952Y-34311717D01*
X161032952Y-34311717D02*
X160842476Y-34264098D01*
X160842476Y-34264098D02*
X160747238Y-34168860D01*
X160747238Y-34168860D02*
X160699619Y-34073622D01*
X158532952Y-38835527D02*
X158818666Y-39597431D01*
X158818666Y-39597431D02*
X159104380Y-38835527D01*
X158818666Y-38359336D02*
X158818666Y-37597432D01*
X158247238Y-35835527D02*
X158199619Y-35930765D01*
X158199619Y-35930765D02*
X158199619Y-36073622D01*
X158199619Y-36073622D02*
X158247238Y-36216479D01*
X158247238Y-36216479D02*
X158342476Y-36311717D01*
X158342476Y-36311717D02*
X158437714Y-36359336D01*
X158437714Y-36359336D02*
X158628190Y-36406955D01*
X158628190Y-36406955D02*
X158771047Y-36406955D01*
X158771047Y-36406955D02*
X158961523Y-36359336D01*
X158961523Y-36359336D02*
X159056761Y-36311717D01*
X159056761Y-36311717D02*
X159152000Y-36216479D01*
X159152000Y-36216479D02*
X159199619Y-36073622D01*
X159199619Y-36073622D02*
X159199619Y-35978384D01*
X159199619Y-35978384D02*
X159152000Y-35835527D01*
X159152000Y-35835527D02*
X159104380Y-35787908D01*
X159104380Y-35787908D02*
X158771047Y-35787908D01*
X158771047Y-35787908D02*
X158771047Y-35978384D01*
X159199619Y-35359336D02*
X158199619Y-35359336D01*
X158199619Y-35359336D02*
X159199619Y-34787908D01*
X159199619Y-34787908D02*
X158199619Y-34787908D01*
X159199619Y-34311717D02*
X158199619Y-34311717D01*
X158199619Y-34311717D02*
X158199619Y-34073622D01*
X158199619Y-34073622D02*
X158247238Y-33930765D01*
X158247238Y-33930765D02*
X158342476Y-33835527D01*
X158342476Y-33835527D02*
X158437714Y-33787908D01*
X158437714Y-33787908D02*
X158628190Y-33740289D01*
X158628190Y-33740289D02*
X158771047Y-33740289D01*
X158771047Y-33740289D02*
X158961523Y-33787908D01*
X158961523Y-33787908D02*
X159056761Y-33835527D01*
X159056761Y-33835527D02*
X159152000Y-33930765D01*
X159152000Y-33930765D02*
X159199619Y-34073622D01*
X159199619Y-34073622D02*
X159199619Y-34311717D01*
X155782952Y-38835527D02*
X156068666Y-39597431D01*
X156068666Y-39597431D02*
X156354380Y-38835527D01*
X156068666Y-38359336D02*
X156068666Y-37597432D01*
X156402000Y-36406955D02*
X156449619Y-36264098D01*
X156449619Y-36264098D02*
X156449619Y-36026003D01*
X156449619Y-36026003D02*
X156402000Y-35930765D01*
X156402000Y-35930765D02*
X156354380Y-35883146D01*
X156354380Y-35883146D02*
X156259142Y-35835527D01*
X156259142Y-35835527D02*
X156163904Y-35835527D01*
X156163904Y-35835527D02*
X156068666Y-35883146D01*
X156068666Y-35883146D02*
X156021047Y-35930765D01*
X156021047Y-35930765D02*
X155973428Y-36026003D01*
X155973428Y-36026003D02*
X155925809Y-36216479D01*
X155925809Y-36216479D02*
X155878190Y-36311717D01*
X155878190Y-36311717D02*
X155830571Y-36359336D01*
X155830571Y-36359336D02*
X155735333Y-36406955D01*
X155735333Y-36406955D02*
X155640095Y-36406955D01*
X155640095Y-36406955D02*
X155544857Y-36359336D01*
X155544857Y-36359336D02*
X155497238Y-36311717D01*
X155497238Y-36311717D02*
X155449619Y-36216479D01*
X155449619Y-36216479D02*
X155449619Y-35978384D01*
X155449619Y-35978384D02*
X155497238Y-35835527D01*
X155449619Y-35502193D02*
X156449619Y-35264098D01*
X156449619Y-35264098D02*
X155735333Y-35073622D01*
X155735333Y-35073622D02*
X156449619Y-34883146D01*
X156449619Y-34883146D02*
X155449619Y-34645051D01*
X156354380Y-33692670D02*
X156402000Y-33740289D01*
X156402000Y-33740289D02*
X156449619Y-33883146D01*
X156449619Y-33883146D02*
X156449619Y-33978384D01*
X156449619Y-33978384D02*
X156402000Y-34121241D01*
X156402000Y-34121241D02*
X156306761Y-34216479D01*
X156306761Y-34216479D02*
X156211523Y-34264098D01*
X156211523Y-34264098D02*
X156021047Y-34311717D01*
X156021047Y-34311717D02*
X155878190Y-34311717D01*
X155878190Y-34311717D02*
X155687714Y-34264098D01*
X155687714Y-34264098D02*
X155592476Y-34216479D01*
X155592476Y-34216479D02*
X155497238Y-34121241D01*
X155497238Y-34121241D02*
X155449619Y-33978384D01*
X155449619Y-33978384D02*
X155449619Y-33883146D01*
X155449619Y-33883146D02*
X155497238Y-33740289D01*
X155497238Y-33740289D02*
X155544857Y-33692670D01*
X156449619Y-32787908D02*
X156449619Y-33264098D01*
X156449619Y-33264098D02*
X155449619Y-33264098D01*
X156449619Y-32454574D02*
X155449619Y-32454574D01*
X156449619Y-31883146D02*
X155878190Y-32311717D01*
X155449619Y-31883146D02*
X156021047Y-32454574D01*
X153282952Y-38835527D02*
X153568666Y-39597431D01*
X153568666Y-39597431D02*
X153854380Y-38835527D01*
X153568666Y-38359336D02*
X153568666Y-37597432D01*
X152997238Y-35835527D02*
X152949619Y-35930765D01*
X152949619Y-35930765D02*
X152949619Y-36073622D01*
X152949619Y-36073622D02*
X152997238Y-36216479D01*
X152997238Y-36216479D02*
X153092476Y-36311717D01*
X153092476Y-36311717D02*
X153187714Y-36359336D01*
X153187714Y-36359336D02*
X153378190Y-36406955D01*
X153378190Y-36406955D02*
X153521047Y-36406955D01*
X153521047Y-36406955D02*
X153711523Y-36359336D01*
X153711523Y-36359336D02*
X153806761Y-36311717D01*
X153806761Y-36311717D02*
X153902000Y-36216479D01*
X153902000Y-36216479D02*
X153949619Y-36073622D01*
X153949619Y-36073622D02*
X153949619Y-35978384D01*
X153949619Y-35978384D02*
X153902000Y-35835527D01*
X153902000Y-35835527D02*
X153854380Y-35787908D01*
X153854380Y-35787908D02*
X153521047Y-35787908D01*
X153521047Y-35787908D02*
X153521047Y-35978384D01*
X153949619Y-35359336D02*
X152949619Y-35359336D01*
X152949619Y-35359336D02*
X153949619Y-34787908D01*
X153949619Y-34787908D02*
X152949619Y-34787908D01*
X153949619Y-34311717D02*
X152949619Y-34311717D01*
X152949619Y-34311717D02*
X152949619Y-34073622D01*
X152949619Y-34073622D02*
X152997238Y-33930765D01*
X152997238Y-33930765D02*
X153092476Y-33835527D01*
X153092476Y-33835527D02*
X153187714Y-33787908D01*
X153187714Y-33787908D02*
X153378190Y-33740289D01*
X153378190Y-33740289D02*
X153521047Y-33740289D01*
X153521047Y-33740289D02*
X153711523Y-33787908D01*
X153711523Y-33787908D02*
X153806761Y-33835527D01*
X153806761Y-33835527D02*
X153902000Y-33930765D01*
X153902000Y-33930765D02*
X153949619Y-34073622D01*
X153949619Y-34073622D02*
X153949619Y-34311717D01*
X150782952Y-38835527D02*
X151068666Y-39597431D01*
X151068666Y-39597431D02*
X151354380Y-38835527D01*
X151068666Y-38359336D02*
X151068666Y-37597432D01*
X151402000Y-36406955D02*
X151449619Y-36264098D01*
X151449619Y-36264098D02*
X151449619Y-36026003D01*
X151449619Y-36026003D02*
X151402000Y-35930765D01*
X151402000Y-35930765D02*
X151354380Y-35883146D01*
X151354380Y-35883146D02*
X151259142Y-35835527D01*
X151259142Y-35835527D02*
X151163904Y-35835527D01*
X151163904Y-35835527D02*
X151068666Y-35883146D01*
X151068666Y-35883146D02*
X151021047Y-35930765D01*
X151021047Y-35930765D02*
X150973428Y-36026003D01*
X150973428Y-36026003D02*
X150925809Y-36216479D01*
X150925809Y-36216479D02*
X150878190Y-36311717D01*
X150878190Y-36311717D02*
X150830571Y-36359336D01*
X150830571Y-36359336D02*
X150735333Y-36406955D01*
X150735333Y-36406955D02*
X150640095Y-36406955D01*
X150640095Y-36406955D02*
X150544857Y-36359336D01*
X150544857Y-36359336D02*
X150497238Y-36311717D01*
X150497238Y-36311717D02*
X150449619Y-36216479D01*
X150449619Y-36216479D02*
X150449619Y-35978384D01*
X150449619Y-35978384D02*
X150497238Y-35835527D01*
X150449619Y-35502193D02*
X151449619Y-35264098D01*
X151449619Y-35264098D02*
X150735333Y-35073622D01*
X150735333Y-35073622D02*
X151449619Y-34883146D01*
X151449619Y-34883146D02*
X150449619Y-34645051D01*
X151449619Y-34264098D02*
X150449619Y-34264098D01*
X150449619Y-34264098D02*
X150449619Y-34026003D01*
X150449619Y-34026003D02*
X150497238Y-33883146D01*
X150497238Y-33883146D02*
X150592476Y-33787908D01*
X150592476Y-33787908D02*
X150687714Y-33740289D01*
X150687714Y-33740289D02*
X150878190Y-33692670D01*
X150878190Y-33692670D02*
X151021047Y-33692670D01*
X151021047Y-33692670D02*
X151211523Y-33740289D01*
X151211523Y-33740289D02*
X151306761Y-33787908D01*
X151306761Y-33787908D02*
X151402000Y-33883146D01*
X151402000Y-33883146D02*
X151449619Y-34026003D01*
X151449619Y-34026003D02*
X151449619Y-34264098D01*
X151449619Y-33264098D02*
X150449619Y-33264098D01*
X150449619Y-32597432D02*
X150449619Y-32406956D01*
X150449619Y-32406956D02*
X150497238Y-32311718D01*
X150497238Y-32311718D02*
X150592476Y-32216480D01*
X150592476Y-32216480D02*
X150782952Y-32168861D01*
X150782952Y-32168861D02*
X151116285Y-32168861D01*
X151116285Y-32168861D02*
X151306761Y-32216480D01*
X151306761Y-32216480D02*
X151402000Y-32311718D01*
X151402000Y-32311718D02*
X151449619Y-32406956D01*
X151449619Y-32406956D02*
X151449619Y-32597432D01*
X151449619Y-32597432D02*
X151402000Y-32692670D01*
X151402000Y-32692670D02*
X151306761Y-32787908D01*
X151306761Y-32787908D02*
X151116285Y-32835527D01*
X151116285Y-32835527D02*
X150782952Y-32835527D01*
X150782952Y-32835527D02*
X150592476Y-32787908D01*
X150592476Y-32787908D02*
X150497238Y-32692670D01*
X150497238Y-32692670D02*
X150449619Y-32597432D01*
X73817000Y-12645050D02*
X73864619Y-12502193D01*
X73864619Y-12502193D02*
X73864619Y-12264098D01*
X73864619Y-12264098D02*
X73817000Y-12168860D01*
X73817000Y-12168860D02*
X73769380Y-12121241D01*
X73769380Y-12121241D02*
X73674142Y-12073622D01*
X73674142Y-12073622D02*
X73578904Y-12073622D01*
X73578904Y-12073622D02*
X73483666Y-12121241D01*
X73483666Y-12121241D02*
X73436047Y-12168860D01*
X73436047Y-12168860D02*
X73388428Y-12264098D01*
X73388428Y-12264098D02*
X73340809Y-12454574D01*
X73340809Y-12454574D02*
X73293190Y-12549812D01*
X73293190Y-12549812D02*
X73245571Y-12597431D01*
X73245571Y-12597431D02*
X73150333Y-12645050D01*
X73150333Y-12645050D02*
X73055095Y-12645050D01*
X73055095Y-12645050D02*
X72959857Y-12597431D01*
X72959857Y-12597431D02*
X72912238Y-12549812D01*
X72912238Y-12549812D02*
X72864619Y-12454574D01*
X72864619Y-12454574D02*
X72864619Y-12216479D01*
X72864619Y-12216479D02*
X72912238Y-12073622D01*
X73340809Y-11645050D02*
X73340809Y-11311717D01*
X73864619Y-11168860D02*
X73864619Y-11645050D01*
X73864619Y-11645050D02*
X72864619Y-11645050D01*
X72864619Y-11645050D02*
X72864619Y-11168860D01*
X73864619Y-10168860D02*
X73388428Y-10502193D01*
X73864619Y-10740288D02*
X72864619Y-10740288D01*
X72864619Y-10740288D02*
X72864619Y-10359336D01*
X72864619Y-10359336D02*
X72912238Y-10264098D01*
X72912238Y-10264098D02*
X72959857Y-10216479D01*
X72959857Y-10216479D02*
X73055095Y-10168860D01*
X73055095Y-10168860D02*
X73197952Y-10168860D01*
X73197952Y-10168860D02*
X73293190Y-10216479D01*
X73293190Y-10216479D02*
X73340809Y-10264098D01*
X73340809Y-10264098D02*
X73388428Y-10359336D01*
X73388428Y-10359336D02*
X73388428Y-10740288D01*
X73864619Y-9740288D02*
X72864619Y-9740288D01*
X73578904Y-9311717D02*
X73578904Y-8835527D01*
X73864619Y-9406955D02*
X72864619Y-9073622D01*
X72864619Y-9073622D02*
X73864619Y-8740289D01*
X73864619Y-7930765D02*
X73864619Y-8406955D01*
X73864619Y-8406955D02*
X72864619Y-8406955D01*
X73864619Y-6835526D02*
X72864619Y-6835526D01*
X72864619Y-6835526D02*
X73864619Y-6264098D01*
X73864619Y-6264098D02*
X72864619Y-6264098D01*
X72864619Y-5787907D02*
X73674142Y-5787907D01*
X73674142Y-5787907D02*
X73769380Y-5740288D01*
X73769380Y-5740288D02*
X73817000Y-5692669D01*
X73817000Y-5692669D02*
X73864619Y-5597431D01*
X73864619Y-5597431D02*
X73864619Y-5406955D01*
X73864619Y-5406955D02*
X73817000Y-5311717D01*
X73817000Y-5311717D02*
X73769380Y-5264098D01*
X73769380Y-5264098D02*
X73674142Y-5216479D01*
X73674142Y-5216479D02*
X72864619Y-5216479D01*
X73864619Y-4740288D02*
X72864619Y-4740288D01*
X72864619Y-4740288D02*
X73578904Y-4406955D01*
X73578904Y-4406955D02*
X72864619Y-4073622D01*
X72864619Y-4073622D02*
X73864619Y-4073622D01*
X73340809Y-3264098D02*
X73388428Y-3121241D01*
X73388428Y-3121241D02*
X73436047Y-3073622D01*
X73436047Y-3073622D02*
X73531285Y-3026003D01*
X73531285Y-3026003D02*
X73674142Y-3026003D01*
X73674142Y-3026003D02*
X73769380Y-3073622D01*
X73769380Y-3073622D02*
X73817000Y-3121241D01*
X73817000Y-3121241D02*
X73864619Y-3216479D01*
X73864619Y-3216479D02*
X73864619Y-3597431D01*
X73864619Y-3597431D02*
X72864619Y-3597431D01*
X72864619Y-3597431D02*
X72864619Y-3264098D01*
X72864619Y-3264098D02*
X72912238Y-3168860D01*
X72912238Y-3168860D02*
X72959857Y-3121241D01*
X72959857Y-3121241D02*
X73055095Y-3073622D01*
X73055095Y-3073622D02*
X73150333Y-3073622D01*
X73150333Y-3073622D02*
X73245571Y-3121241D01*
X73245571Y-3121241D02*
X73293190Y-3168860D01*
X73293190Y-3168860D02*
X73340809Y-3264098D01*
X73340809Y-3264098D02*
X73340809Y-3597431D01*
X73340809Y-2597431D02*
X73340809Y-2264098D01*
X73864619Y-2121241D02*
X73864619Y-2597431D01*
X73864619Y-2597431D02*
X72864619Y-2597431D01*
X72864619Y-2597431D02*
X72864619Y-2121241D01*
X73864619Y-1121241D02*
X73388428Y-1454574D01*
X73864619Y-1692669D02*
X72864619Y-1692669D01*
X72864619Y-1692669D02*
X72864619Y-1311717D01*
X72864619Y-1311717D02*
X72912238Y-1216479D01*
X72912238Y-1216479D02*
X72959857Y-1168860D01*
X72959857Y-1168860D02*
X73055095Y-1121241D01*
X73055095Y-1121241D02*
X73197952Y-1121241D01*
X73197952Y-1121241D02*
X73293190Y-1168860D01*
X73293190Y-1168860D02*
X73340809Y-1216479D01*
X73340809Y-1216479D02*
X73388428Y-1311717D01*
X73388428Y-1311717D02*
X73388428Y-1692669D01*
D11*
X62000000Y-1500000D02*
X72000000Y-1500000D01*
X72000000Y-11500000D01*
X62000000Y-11500000D01*
X62000000Y-1500000D01*
G36*
X62000000Y-1500000D02*
G01*
X72000000Y-1500000D01*
X72000000Y-11500000D01*
X62000000Y-11500000D01*
X62000000Y-1500000D01*
G37*
D10*
X13402568Y-4034787D02*
X13402568Y-3034787D01*
X13402568Y-3034787D02*
X13973996Y-4034787D01*
X13973996Y-4034787D02*
X13973996Y-3034787D01*
X14640663Y-3034787D02*
X14831139Y-3034787D01*
X14831139Y-3034787D02*
X14926377Y-3082406D01*
X14926377Y-3082406D02*
X15021615Y-3177644D01*
X15021615Y-3177644D02*
X15069234Y-3368120D01*
X15069234Y-3368120D02*
X15069234Y-3701453D01*
X15069234Y-3701453D02*
X15021615Y-3891929D01*
X15021615Y-3891929D02*
X14926377Y-3987168D01*
X14926377Y-3987168D02*
X14831139Y-4034787D01*
X14831139Y-4034787D02*
X14640663Y-4034787D01*
X14640663Y-4034787D02*
X14545425Y-3987168D01*
X14545425Y-3987168D02*
X14450187Y-3891929D01*
X14450187Y-3891929D02*
X14402568Y-3701453D01*
X14402568Y-3701453D02*
X14402568Y-3368120D01*
X14402568Y-3368120D02*
X14450187Y-3177644D01*
X14450187Y-3177644D02*
X14545425Y-3082406D01*
X14545425Y-3082406D02*
X14640663Y-3034787D01*
X15354949Y-3034787D02*
X15926377Y-3034787D01*
X15640663Y-4034787D02*
X15640663Y-3034787D01*
X16259711Y-4034787D02*
X16259711Y-3034787D01*
X17307329Y-3939548D02*
X17259710Y-3987168D01*
X17259710Y-3987168D02*
X17116853Y-4034787D01*
X17116853Y-4034787D02*
X17021615Y-4034787D01*
X17021615Y-4034787D02*
X16878758Y-3987168D01*
X16878758Y-3987168D02*
X16783520Y-3891929D01*
X16783520Y-3891929D02*
X16735901Y-3796691D01*
X16735901Y-3796691D02*
X16688282Y-3606215D01*
X16688282Y-3606215D02*
X16688282Y-3463358D01*
X16688282Y-3463358D02*
X16735901Y-3272882D01*
X16735901Y-3272882D02*
X16783520Y-3177644D01*
X16783520Y-3177644D02*
X16878758Y-3082406D01*
X16878758Y-3082406D02*
X17021615Y-3034787D01*
X17021615Y-3034787D02*
X17116853Y-3034787D01*
X17116853Y-3034787D02*
X17259710Y-3082406D01*
X17259710Y-3082406D02*
X17307329Y-3130025D01*
X17735901Y-3510977D02*
X18069234Y-3510977D01*
X18212091Y-4034787D02*
X17735901Y-4034787D01*
X17735901Y-4034787D02*
X17735901Y-3034787D01*
X17735901Y-3034787D02*
X18212091Y-3034787D01*
X18640663Y-3939548D02*
X18688282Y-3987168D01*
X18688282Y-3987168D02*
X18640663Y-4034787D01*
X18640663Y-4034787D02*
X18593044Y-3987168D01*
X18593044Y-3987168D02*
X18640663Y-3939548D01*
X18640663Y-3939548D02*
X18640663Y-4034787D01*
X18640663Y-3415739D02*
X18688282Y-3463358D01*
X18688282Y-3463358D02*
X18640663Y-3510977D01*
X18640663Y-3510977D02*
X18593044Y-3463358D01*
X18593044Y-3463358D02*
X18640663Y-3415739D01*
X18640663Y-3415739D02*
X18640663Y-3510977D01*
X19878758Y-4034787D02*
X19878758Y-3034787D01*
X19878758Y-3034787D02*
X20450186Y-4034787D01*
X20450186Y-4034787D02*
X20450186Y-3034787D01*
X21116853Y-3034787D02*
X21307329Y-3034787D01*
X21307329Y-3034787D02*
X21402567Y-3082406D01*
X21402567Y-3082406D02*
X21497805Y-3177644D01*
X21497805Y-3177644D02*
X21545424Y-3368120D01*
X21545424Y-3368120D02*
X21545424Y-3701453D01*
X21545424Y-3701453D02*
X21497805Y-3891929D01*
X21497805Y-3891929D02*
X21402567Y-3987168D01*
X21402567Y-3987168D02*
X21307329Y-4034787D01*
X21307329Y-4034787D02*
X21116853Y-4034787D01*
X21116853Y-4034787D02*
X21021615Y-3987168D01*
X21021615Y-3987168D02*
X20926377Y-3891929D01*
X20926377Y-3891929D02*
X20878758Y-3701453D01*
X20878758Y-3701453D02*
X20878758Y-3368120D01*
X20878758Y-3368120D02*
X20926377Y-3177644D01*
X20926377Y-3177644D02*
X21021615Y-3082406D01*
X21021615Y-3082406D02*
X21116853Y-3034787D01*
X21831139Y-3034787D02*
X22402567Y-3034787D01*
X22116853Y-4034787D02*
X22116853Y-3034787D01*
X23497806Y-4034787D02*
X23497806Y-3034787D01*
X23497806Y-3034787D02*
X23878758Y-3034787D01*
X23878758Y-3034787D02*
X23973996Y-3082406D01*
X23973996Y-3082406D02*
X24021615Y-3130025D01*
X24021615Y-3130025D02*
X24069234Y-3225263D01*
X24069234Y-3225263D02*
X24069234Y-3368120D01*
X24069234Y-3368120D02*
X24021615Y-3463358D01*
X24021615Y-3463358D02*
X23973996Y-3510977D01*
X23973996Y-3510977D02*
X23878758Y-3558596D01*
X23878758Y-3558596D02*
X23497806Y-3558596D01*
X24497806Y-4034787D02*
X24497806Y-3034787D01*
X24973996Y-4034787D02*
X24973996Y-3034787D01*
X24973996Y-3034787D02*
X25545424Y-4034787D01*
X25545424Y-4034787D02*
X25545424Y-3034787D01*
X27354948Y-3939548D02*
X27307329Y-3987168D01*
X27307329Y-3987168D02*
X27164472Y-4034787D01*
X27164472Y-4034787D02*
X27069234Y-4034787D01*
X27069234Y-4034787D02*
X26926377Y-3987168D01*
X26926377Y-3987168D02*
X26831139Y-3891929D01*
X26831139Y-3891929D02*
X26783520Y-3796691D01*
X26783520Y-3796691D02*
X26735901Y-3606215D01*
X26735901Y-3606215D02*
X26735901Y-3463358D01*
X26735901Y-3463358D02*
X26783520Y-3272882D01*
X26783520Y-3272882D02*
X26831139Y-3177644D01*
X26831139Y-3177644D02*
X26926377Y-3082406D01*
X26926377Y-3082406D02*
X27069234Y-3034787D01*
X27069234Y-3034787D02*
X27164472Y-3034787D01*
X27164472Y-3034787D02*
X27307329Y-3082406D01*
X27307329Y-3082406D02*
X27354948Y-3130025D01*
X27973996Y-3034787D02*
X28164472Y-3034787D01*
X28164472Y-3034787D02*
X28259710Y-3082406D01*
X28259710Y-3082406D02*
X28354948Y-3177644D01*
X28354948Y-3177644D02*
X28402567Y-3368120D01*
X28402567Y-3368120D02*
X28402567Y-3701453D01*
X28402567Y-3701453D02*
X28354948Y-3891929D01*
X28354948Y-3891929D02*
X28259710Y-3987168D01*
X28259710Y-3987168D02*
X28164472Y-4034787D01*
X28164472Y-4034787D02*
X27973996Y-4034787D01*
X27973996Y-4034787D02*
X27878758Y-3987168D01*
X27878758Y-3987168D02*
X27783520Y-3891929D01*
X27783520Y-3891929D02*
X27735901Y-3701453D01*
X27735901Y-3701453D02*
X27735901Y-3368120D01*
X27735901Y-3368120D02*
X27783520Y-3177644D01*
X27783520Y-3177644D02*
X27878758Y-3082406D01*
X27878758Y-3082406D02*
X27973996Y-3034787D01*
X28831139Y-4034787D02*
X28831139Y-3034787D01*
X28831139Y-3034787D02*
X29164472Y-3749072D01*
X29164472Y-3749072D02*
X29497805Y-3034787D01*
X29497805Y-3034787D02*
X29497805Y-4034787D01*
X29973996Y-4034787D02*
X29973996Y-3034787D01*
X29973996Y-3034787D02*
X30354948Y-3034787D01*
X30354948Y-3034787D02*
X30450186Y-3082406D01*
X30450186Y-3082406D02*
X30497805Y-3130025D01*
X30497805Y-3130025D02*
X30545424Y-3225263D01*
X30545424Y-3225263D02*
X30545424Y-3368120D01*
X30545424Y-3368120D02*
X30497805Y-3463358D01*
X30497805Y-3463358D02*
X30450186Y-3510977D01*
X30450186Y-3510977D02*
X30354948Y-3558596D01*
X30354948Y-3558596D02*
X29973996Y-3558596D01*
X30926377Y-3749072D02*
X31402567Y-3749072D01*
X30831139Y-4034787D02*
X31164472Y-3034787D01*
X31164472Y-3034787D02*
X31497805Y-4034787D01*
X31688282Y-3034787D02*
X32259710Y-3034787D01*
X31973996Y-4034787D02*
X31973996Y-3034787D01*
X32593044Y-4034787D02*
X32593044Y-3034787D01*
X33402567Y-3510977D02*
X33545424Y-3558596D01*
X33545424Y-3558596D02*
X33593043Y-3606215D01*
X33593043Y-3606215D02*
X33640662Y-3701453D01*
X33640662Y-3701453D02*
X33640662Y-3844310D01*
X33640662Y-3844310D02*
X33593043Y-3939548D01*
X33593043Y-3939548D02*
X33545424Y-3987168D01*
X33545424Y-3987168D02*
X33450186Y-4034787D01*
X33450186Y-4034787D02*
X33069234Y-4034787D01*
X33069234Y-4034787D02*
X33069234Y-3034787D01*
X33069234Y-3034787D02*
X33402567Y-3034787D01*
X33402567Y-3034787D02*
X33497805Y-3082406D01*
X33497805Y-3082406D02*
X33545424Y-3130025D01*
X33545424Y-3130025D02*
X33593043Y-3225263D01*
X33593043Y-3225263D02*
X33593043Y-3320501D01*
X33593043Y-3320501D02*
X33545424Y-3415739D01*
X33545424Y-3415739D02*
X33497805Y-3463358D01*
X33497805Y-3463358D02*
X33402567Y-3510977D01*
X33402567Y-3510977D02*
X33069234Y-3510977D01*
X34545424Y-4034787D02*
X34069234Y-4034787D01*
X34069234Y-4034787D02*
X34069234Y-3034787D01*
X34878758Y-3510977D02*
X35212091Y-3510977D01*
X35354948Y-4034787D02*
X34878758Y-4034787D01*
X34878758Y-4034787D02*
X34878758Y-3034787D01*
X34878758Y-3034787D02*
X35354948Y-3034787D01*
X36450187Y-3034787D02*
X36688282Y-4034787D01*
X36688282Y-4034787D02*
X36878758Y-3320501D01*
X36878758Y-3320501D02*
X37069234Y-4034787D01*
X37069234Y-4034787D02*
X37307330Y-3034787D01*
X37688282Y-4034787D02*
X37688282Y-3034787D01*
X38021615Y-3034787D02*
X38593043Y-3034787D01*
X38307329Y-4034787D02*
X38307329Y-3034787D01*
X38926377Y-4034787D02*
X38926377Y-3034787D01*
X38926377Y-3510977D02*
X39497805Y-3510977D01*
X39497805Y-4034787D02*
X39497805Y-3034787D01*
X40688282Y-3987168D02*
X40831139Y-4034787D01*
X40831139Y-4034787D02*
X41069234Y-4034787D01*
X41069234Y-4034787D02*
X41164472Y-3987168D01*
X41164472Y-3987168D02*
X41212091Y-3939548D01*
X41212091Y-3939548D02*
X41259710Y-3844310D01*
X41259710Y-3844310D02*
X41259710Y-3749072D01*
X41259710Y-3749072D02*
X41212091Y-3653834D01*
X41212091Y-3653834D02*
X41164472Y-3606215D01*
X41164472Y-3606215D02*
X41069234Y-3558596D01*
X41069234Y-3558596D02*
X40878758Y-3510977D01*
X40878758Y-3510977D02*
X40783520Y-3463358D01*
X40783520Y-3463358D02*
X40735901Y-3415739D01*
X40735901Y-3415739D02*
X40688282Y-3320501D01*
X40688282Y-3320501D02*
X40688282Y-3225263D01*
X40688282Y-3225263D02*
X40735901Y-3130025D01*
X40735901Y-3130025D02*
X40783520Y-3082406D01*
X40783520Y-3082406D02*
X40878758Y-3034787D01*
X40878758Y-3034787D02*
X41116853Y-3034787D01*
X41116853Y-3034787D02*
X41259710Y-3082406D01*
X41688282Y-3510977D02*
X42021615Y-3510977D01*
X42164472Y-4034787D02*
X41688282Y-4034787D01*
X41688282Y-4034787D02*
X41688282Y-3034787D01*
X41688282Y-3034787D02*
X42164472Y-3034787D01*
X42450187Y-3034787D02*
X42783520Y-4034787D01*
X42783520Y-4034787D02*
X43116853Y-3034787D01*
X44021615Y-3939548D02*
X43973996Y-3987168D01*
X43973996Y-3987168D02*
X43831139Y-4034787D01*
X43831139Y-4034787D02*
X43735901Y-4034787D01*
X43735901Y-4034787D02*
X43593044Y-3987168D01*
X43593044Y-3987168D02*
X43497806Y-3891929D01*
X43497806Y-3891929D02*
X43450187Y-3796691D01*
X43450187Y-3796691D02*
X43402568Y-3606215D01*
X43402568Y-3606215D02*
X43402568Y-3463358D01*
X43402568Y-3463358D02*
X43450187Y-3272882D01*
X43450187Y-3272882D02*
X43497806Y-3177644D01*
X43497806Y-3177644D02*
X43593044Y-3082406D01*
X43593044Y-3082406D02*
X43735901Y-3034787D01*
X43735901Y-3034787D02*
X43831139Y-3034787D01*
X43831139Y-3034787D02*
X43973996Y-3082406D01*
X43973996Y-3082406D02*
X44021615Y-3130025D01*
X44640663Y-3034787D02*
X44831139Y-3034787D01*
X44831139Y-3034787D02*
X44926377Y-3082406D01*
X44926377Y-3082406D02*
X45021615Y-3177644D01*
X45021615Y-3177644D02*
X45069234Y-3368120D01*
X45069234Y-3368120D02*
X45069234Y-3701453D01*
X45069234Y-3701453D02*
X45021615Y-3891929D01*
X45021615Y-3891929D02*
X44926377Y-3987168D01*
X44926377Y-3987168D02*
X44831139Y-4034787D01*
X44831139Y-4034787D02*
X44640663Y-4034787D01*
X44640663Y-4034787D02*
X44545425Y-3987168D01*
X44545425Y-3987168D02*
X44450187Y-3891929D01*
X44450187Y-3891929D02*
X44402568Y-3701453D01*
X44402568Y-3701453D02*
X44402568Y-3368120D01*
X44402568Y-3368120D02*
X44450187Y-3177644D01*
X44450187Y-3177644D02*
X44545425Y-3082406D01*
X44545425Y-3082406D02*
X44640663Y-3034787D01*
X45497806Y-4034787D02*
X45497806Y-3034787D01*
X45497806Y-3034787D02*
X46069234Y-4034787D01*
X46069234Y-4034787D02*
X46069234Y-3034787D01*
X46545425Y-3939548D02*
X46593044Y-3987168D01*
X46593044Y-3987168D02*
X46545425Y-4034787D01*
X46545425Y-4034787D02*
X46497806Y-3987168D01*
X46497806Y-3987168D02*
X46545425Y-3939548D01*
X46545425Y-3939548D02*
X46545425Y-4034787D01*
X13402568Y-5644731D02*
X13402568Y-4644731D01*
X13402568Y-4644731D02*
X13640663Y-4644731D01*
X13640663Y-4644731D02*
X13783520Y-4692350D01*
X13783520Y-4692350D02*
X13878758Y-4787588D01*
X13878758Y-4787588D02*
X13926377Y-4882826D01*
X13926377Y-4882826D02*
X13973996Y-5073302D01*
X13973996Y-5073302D02*
X13973996Y-5216159D01*
X13973996Y-5216159D02*
X13926377Y-5406635D01*
X13926377Y-5406635D02*
X13878758Y-5501873D01*
X13878758Y-5501873D02*
X13783520Y-5597112D01*
X13783520Y-5597112D02*
X13640663Y-5644731D01*
X13640663Y-5644731D02*
X13402568Y-5644731D01*
X14593044Y-4644731D02*
X14783520Y-4644731D01*
X14783520Y-4644731D02*
X14878758Y-4692350D01*
X14878758Y-4692350D02*
X14973996Y-4787588D01*
X14973996Y-4787588D02*
X15021615Y-4978064D01*
X15021615Y-4978064D02*
X15021615Y-5311397D01*
X15021615Y-5311397D02*
X14973996Y-5501873D01*
X14973996Y-5501873D02*
X14878758Y-5597112D01*
X14878758Y-5597112D02*
X14783520Y-5644731D01*
X14783520Y-5644731D02*
X14593044Y-5644731D01*
X14593044Y-5644731D02*
X14497806Y-5597112D01*
X14497806Y-5597112D02*
X14402568Y-5501873D01*
X14402568Y-5501873D02*
X14354949Y-5311397D01*
X14354949Y-5311397D02*
X14354949Y-4978064D01*
X14354949Y-4978064D02*
X14402568Y-4787588D01*
X14402568Y-4787588D02*
X14497806Y-4692350D01*
X14497806Y-4692350D02*
X14593044Y-4644731D01*
X16212092Y-5644731D02*
X16212092Y-4644731D01*
X16212092Y-4644731D02*
X16783520Y-5644731D01*
X16783520Y-5644731D02*
X16783520Y-4644731D01*
X17450187Y-4644731D02*
X17640663Y-4644731D01*
X17640663Y-4644731D02*
X17735901Y-4692350D01*
X17735901Y-4692350D02*
X17831139Y-4787588D01*
X17831139Y-4787588D02*
X17878758Y-4978064D01*
X17878758Y-4978064D02*
X17878758Y-5311397D01*
X17878758Y-5311397D02*
X17831139Y-5501873D01*
X17831139Y-5501873D02*
X17735901Y-5597112D01*
X17735901Y-5597112D02*
X17640663Y-5644731D01*
X17640663Y-5644731D02*
X17450187Y-5644731D01*
X17450187Y-5644731D02*
X17354949Y-5597112D01*
X17354949Y-5597112D02*
X17259711Y-5501873D01*
X17259711Y-5501873D02*
X17212092Y-5311397D01*
X17212092Y-5311397D02*
X17212092Y-4978064D01*
X17212092Y-4978064D02*
X17259711Y-4787588D01*
X17259711Y-4787588D02*
X17354949Y-4692350D01*
X17354949Y-4692350D02*
X17450187Y-4644731D01*
X18164473Y-4644731D02*
X18735901Y-4644731D01*
X18450187Y-5644731D02*
X18450187Y-4644731D01*
X20402568Y-5549492D02*
X20354949Y-5597112D01*
X20354949Y-5597112D02*
X20212092Y-5644731D01*
X20212092Y-5644731D02*
X20116854Y-5644731D01*
X20116854Y-5644731D02*
X19973997Y-5597112D01*
X19973997Y-5597112D02*
X19878759Y-5501873D01*
X19878759Y-5501873D02*
X19831140Y-5406635D01*
X19831140Y-5406635D02*
X19783521Y-5216159D01*
X19783521Y-5216159D02*
X19783521Y-5073302D01*
X19783521Y-5073302D02*
X19831140Y-4882826D01*
X19831140Y-4882826D02*
X19878759Y-4787588D01*
X19878759Y-4787588D02*
X19973997Y-4692350D01*
X19973997Y-4692350D02*
X20116854Y-4644731D01*
X20116854Y-4644731D02*
X20212092Y-4644731D01*
X20212092Y-4644731D02*
X20354949Y-4692350D01*
X20354949Y-4692350D02*
X20402568Y-4739969D01*
X21021616Y-4644731D02*
X21212092Y-4644731D01*
X21212092Y-4644731D02*
X21307330Y-4692350D01*
X21307330Y-4692350D02*
X21402568Y-4787588D01*
X21402568Y-4787588D02*
X21450187Y-4978064D01*
X21450187Y-4978064D02*
X21450187Y-5311397D01*
X21450187Y-5311397D02*
X21402568Y-5501873D01*
X21402568Y-5501873D02*
X21307330Y-5597112D01*
X21307330Y-5597112D02*
X21212092Y-5644731D01*
X21212092Y-5644731D02*
X21021616Y-5644731D01*
X21021616Y-5644731D02*
X20926378Y-5597112D01*
X20926378Y-5597112D02*
X20831140Y-5501873D01*
X20831140Y-5501873D02*
X20783521Y-5311397D01*
X20783521Y-5311397D02*
X20783521Y-4978064D01*
X20783521Y-4978064D02*
X20831140Y-4787588D01*
X20831140Y-4787588D02*
X20926378Y-4692350D01*
X20926378Y-4692350D02*
X21021616Y-4644731D01*
X21878759Y-5644731D02*
X21878759Y-4644731D01*
X21878759Y-4644731D02*
X22450187Y-5644731D01*
X22450187Y-5644731D02*
X22450187Y-4644731D01*
X22926378Y-5644731D02*
X22926378Y-4644731D01*
X22926378Y-4644731D02*
X23497806Y-5644731D01*
X23497806Y-5644731D02*
X23497806Y-4644731D01*
X23973997Y-5120921D02*
X24307330Y-5120921D01*
X24450187Y-5644731D02*
X23973997Y-5644731D01*
X23973997Y-5644731D02*
X23973997Y-4644731D01*
X23973997Y-4644731D02*
X24450187Y-4644731D01*
X25450187Y-5549492D02*
X25402568Y-5597112D01*
X25402568Y-5597112D02*
X25259711Y-5644731D01*
X25259711Y-5644731D02*
X25164473Y-5644731D01*
X25164473Y-5644731D02*
X25021616Y-5597112D01*
X25021616Y-5597112D02*
X24926378Y-5501873D01*
X24926378Y-5501873D02*
X24878759Y-5406635D01*
X24878759Y-5406635D02*
X24831140Y-5216159D01*
X24831140Y-5216159D02*
X24831140Y-5073302D01*
X24831140Y-5073302D02*
X24878759Y-4882826D01*
X24878759Y-4882826D02*
X24926378Y-4787588D01*
X24926378Y-4787588D02*
X25021616Y-4692350D01*
X25021616Y-4692350D02*
X25164473Y-4644731D01*
X25164473Y-4644731D02*
X25259711Y-4644731D01*
X25259711Y-4644731D02*
X25402568Y-4692350D01*
X25402568Y-4692350D02*
X25450187Y-4739969D01*
X25735902Y-4644731D02*
X26307330Y-4644731D01*
X26021616Y-5644731D02*
X26021616Y-4644731D01*
X27259712Y-4644731D02*
X27831140Y-4644731D01*
X27545426Y-5644731D02*
X27545426Y-4644731D01*
X28354950Y-4644731D02*
X28545426Y-4644731D01*
X28545426Y-4644731D02*
X28640664Y-4692350D01*
X28640664Y-4692350D02*
X28735902Y-4787588D01*
X28735902Y-4787588D02*
X28783521Y-4978064D01*
X28783521Y-4978064D02*
X28783521Y-5311397D01*
X28783521Y-5311397D02*
X28735902Y-5501873D01*
X28735902Y-5501873D02*
X28640664Y-5597112D01*
X28640664Y-5597112D02*
X28545426Y-5644731D01*
X28545426Y-5644731D02*
X28354950Y-5644731D01*
X28354950Y-5644731D02*
X28259712Y-5597112D01*
X28259712Y-5597112D02*
X28164474Y-5501873D01*
X28164474Y-5501873D02*
X28116855Y-5311397D01*
X28116855Y-5311397D02*
X28116855Y-4978064D01*
X28116855Y-4978064D02*
X28164474Y-4787588D01*
X28164474Y-4787588D02*
X28259712Y-4692350D01*
X28259712Y-4692350D02*
X28354950Y-4644731D01*
X29926379Y-5597112D02*
X30069236Y-5644731D01*
X30069236Y-5644731D02*
X30307331Y-5644731D01*
X30307331Y-5644731D02*
X30402569Y-5597112D01*
X30402569Y-5597112D02*
X30450188Y-5549492D01*
X30450188Y-5549492D02*
X30497807Y-5454254D01*
X30497807Y-5454254D02*
X30497807Y-5359016D01*
X30497807Y-5359016D02*
X30450188Y-5263778D01*
X30450188Y-5263778D02*
X30402569Y-5216159D01*
X30402569Y-5216159D02*
X30307331Y-5168540D01*
X30307331Y-5168540D02*
X30116855Y-5120921D01*
X30116855Y-5120921D02*
X30021617Y-5073302D01*
X30021617Y-5073302D02*
X29973998Y-5025683D01*
X29973998Y-5025683D02*
X29926379Y-4930445D01*
X29926379Y-4930445D02*
X29926379Y-4835207D01*
X29926379Y-4835207D02*
X29973998Y-4739969D01*
X29973998Y-4739969D02*
X30021617Y-4692350D01*
X30021617Y-4692350D02*
X30116855Y-4644731D01*
X30116855Y-4644731D02*
X30354950Y-4644731D01*
X30354950Y-4644731D02*
X30497807Y-4692350D01*
X30926379Y-5120921D02*
X31259712Y-5120921D01*
X31402569Y-5644731D02*
X30926379Y-5644731D01*
X30926379Y-5644731D02*
X30926379Y-4644731D01*
X30926379Y-4644731D02*
X31402569Y-4644731D01*
X31688284Y-4644731D02*
X32021617Y-5644731D01*
X32021617Y-5644731D02*
X32354950Y-4644731D01*
X33259712Y-5549492D02*
X33212093Y-5597112D01*
X33212093Y-5597112D02*
X33069236Y-5644731D01*
X33069236Y-5644731D02*
X32973998Y-5644731D01*
X32973998Y-5644731D02*
X32831141Y-5597112D01*
X32831141Y-5597112D02*
X32735903Y-5501873D01*
X32735903Y-5501873D02*
X32688284Y-5406635D01*
X32688284Y-5406635D02*
X32640665Y-5216159D01*
X32640665Y-5216159D02*
X32640665Y-5073302D01*
X32640665Y-5073302D02*
X32688284Y-4882826D01*
X32688284Y-4882826D02*
X32735903Y-4787588D01*
X32735903Y-4787588D02*
X32831141Y-4692350D01*
X32831141Y-4692350D02*
X32973998Y-4644731D01*
X32973998Y-4644731D02*
X33069236Y-4644731D01*
X33069236Y-4644731D02*
X33212093Y-4692350D01*
X33212093Y-4692350D02*
X33259712Y-4739969D01*
X33878760Y-4644731D02*
X34069236Y-4644731D01*
X34069236Y-4644731D02*
X34164474Y-4692350D01*
X34164474Y-4692350D02*
X34259712Y-4787588D01*
X34259712Y-4787588D02*
X34307331Y-4978064D01*
X34307331Y-4978064D02*
X34307331Y-5311397D01*
X34307331Y-5311397D02*
X34259712Y-5501873D01*
X34259712Y-5501873D02*
X34164474Y-5597112D01*
X34164474Y-5597112D02*
X34069236Y-5644731D01*
X34069236Y-5644731D02*
X33878760Y-5644731D01*
X33878760Y-5644731D02*
X33783522Y-5597112D01*
X33783522Y-5597112D02*
X33688284Y-5501873D01*
X33688284Y-5501873D02*
X33640665Y-5311397D01*
X33640665Y-5311397D02*
X33640665Y-4978064D01*
X33640665Y-4978064D02*
X33688284Y-4787588D01*
X33688284Y-4787588D02*
X33783522Y-4692350D01*
X33783522Y-4692350D02*
X33878760Y-4644731D01*
X34735903Y-5644731D02*
X34735903Y-4644731D01*
X34735903Y-4644731D02*
X35307331Y-5644731D01*
X35307331Y-5644731D02*
X35307331Y-4644731D01*
X36450189Y-4644731D02*
X36688284Y-5644731D01*
X36688284Y-5644731D02*
X36878760Y-4930445D01*
X36878760Y-4930445D02*
X37069236Y-5644731D01*
X37069236Y-5644731D02*
X37307332Y-4644731D01*
X37688284Y-5644731D02*
X37688284Y-4644731D01*
X38735902Y-5644731D02*
X38402569Y-5168540D01*
X38164474Y-5644731D02*
X38164474Y-4644731D01*
X38164474Y-4644731D02*
X38545426Y-4644731D01*
X38545426Y-4644731D02*
X38640664Y-4692350D01*
X38640664Y-4692350D02*
X38688283Y-4739969D01*
X38688283Y-4739969D02*
X38735902Y-4835207D01*
X38735902Y-4835207D02*
X38735902Y-4978064D01*
X38735902Y-4978064D02*
X38688283Y-5073302D01*
X38688283Y-5073302D02*
X38640664Y-5120921D01*
X38640664Y-5120921D02*
X38545426Y-5168540D01*
X38545426Y-5168540D02*
X38164474Y-5168540D01*
X39164474Y-5644731D02*
X39164474Y-4644731D01*
X39640664Y-5644731D02*
X39640664Y-4644731D01*
X39640664Y-4644731D02*
X40212092Y-5644731D01*
X40212092Y-5644731D02*
X40212092Y-4644731D01*
X41212092Y-4692350D02*
X41116854Y-4644731D01*
X41116854Y-4644731D02*
X40973997Y-4644731D01*
X40973997Y-4644731D02*
X40831140Y-4692350D01*
X40831140Y-4692350D02*
X40735902Y-4787588D01*
X40735902Y-4787588D02*
X40688283Y-4882826D01*
X40688283Y-4882826D02*
X40640664Y-5073302D01*
X40640664Y-5073302D02*
X40640664Y-5216159D01*
X40640664Y-5216159D02*
X40688283Y-5406635D01*
X40688283Y-5406635D02*
X40735902Y-5501873D01*
X40735902Y-5501873D02*
X40831140Y-5597112D01*
X40831140Y-5597112D02*
X40973997Y-5644731D01*
X40973997Y-5644731D02*
X41069235Y-5644731D01*
X41069235Y-5644731D02*
X41212092Y-5597112D01*
X41212092Y-5597112D02*
X41259711Y-5549492D01*
X41259711Y-5549492D02*
X41259711Y-5216159D01*
X41259711Y-5216159D02*
X41069235Y-5216159D01*
X42450188Y-5644731D02*
X42450188Y-4644731D01*
X42450188Y-5120921D02*
X43021616Y-5120921D01*
X43021616Y-5644731D02*
X43021616Y-4644731D01*
X43450188Y-5359016D02*
X43926378Y-5359016D01*
X43354950Y-5644731D02*
X43688283Y-4644731D01*
X43688283Y-4644731D02*
X44021616Y-5644731D01*
X44926378Y-5644731D02*
X44593045Y-5168540D01*
X44354950Y-5644731D02*
X44354950Y-4644731D01*
X44354950Y-4644731D02*
X44735902Y-4644731D01*
X44735902Y-4644731D02*
X44831140Y-4692350D01*
X44831140Y-4692350D02*
X44878759Y-4739969D01*
X44878759Y-4739969D02*
X44926378Y-4835207D01*
X44926378Y-4835207D02*
X44926378Y-4978064D01*
X44926378Y-4978064D02*
X44878759Y-5073302D01*
X44878759Y-5073302D02*
X44831140Y-5120921D01*
X44831140Y-5120921D02*
X44735902Y-5168540D01*
X44735902Y-5168540D02*
X44354950Y-5168540D01*
X45354950Y-5644731D02*
X45354950Y-4644731D01*
X45354950Y-4644731D02*
X45926378Y-5644731D01*
X45926378Y-5644731D02*
X45926378Y-4644731D01*
X46402569Y-5120921D02*
X46735902Y-5120921D01*
X46878759Y-5644731D02*
X46402569Y-5644731D01*
X46402569Y-5644731D02*
X46402569Y-4644731D01*
X46402569Y-4644731D02*
X46878759Y-4644731D01*
X47259712Y-5597112D02*
X47402569Y-5644731D01*
X47402569Y-5644731D02*
X47640664Y-5644731D01*
X47640664Y-5644731D02*
X47735902Y-5597112D01*
X47735902Y-5597112D02*
X47783521Y-5549492D01*
X47783521Y-5549492D02*
X47831140Y-5454254D01*
X47831140Y-5454254D02*
X47831140Y-5359016D01*
X47831140Y-5359016D02*
X47783521Y-5263778D01*
X47783521Y-5263778D02*
X47735902Y-5216159D01*
X47735902Y-5216159D02*
X47640664Y-5168540D01*
X47640664Y-5168540D02*
X47450188Y-5120921D01*
X47450188Y-5120921D02*
X47354950Y-5073302D01*
X47354950Y-5073302D02*
X47307331Y-5025683D01*
X47307331Y-5025683D02*
X47259712Y-4930445D01*
X47259712Y-4930445D02*
X47259712Y-4835207D01*
X47259712Y-4835207D02*
X47307331Y-4739969D01*
X47307331Y-4739969D02*
X47354950Y-4692350D01*
X47354950Y-4692350D02*
X47450188Y-4644731D01*
X47450188Y-4644731D02*
X47688283Y-4644731D01*
X47688283Y-4644731D02*
X47831140Y-4692350D01*
X48212093Y-5597112D02*
X48354950Y-5644731D01*
X48354950Y-5644731D02*
X48593045Y-5644731D01*
X48593045Y-5644731D02*
X48688283Y-5597112D01*
X48688283Y-5597112D02*
X48735902Y-5549492D01*
X48735902Y-5549492D02*
X48783521Y-5454254D01*
X48783521Y-5454254D02*
X48783521Y-5359016D01*
X48783521Y-5359016D02*
X48735902Y-5263778D01*
X48735902Y-5263778D02*
X48688283Y-5216159D01*
X48688283Y-5216159D02*
X48593045Y-5168540D01*
X48593045Y-5168540D02*
X48402569Y-5120921D01*
X48402569Y-5120921D02*
X48307331Y-5073302D01*
X48307331Y-5073302D02*
X48259712Y-5025683D01*
X48259712Y-5025683D02*
X48212093Y-4930445D01*
X48212093Y-4930445D02*
X48212093Y-4835207D01*
X48212093Y-4835207D02*
X48259712Y-4739969D01*
X48259712Y-4739969D02*
X48307331Y-4692350D01*
X48307331Y-4692350D02*
X48402569Y-4644731D01*
X48402569Y-4644731D02*
X48640664Y-4644731D01*
X48640664Y-4644731D02*
X48783521Y-4692350D01*
X13735901Y-6730865D02*
X13402568Y-6730865D01*
X13402568Y-7254675D02*
X13402568Y-6254675D01*
X13402568Y-6254675D02*
X13878758Y-6254675D01*
X14212092Y-6968960D02*
X14688282Y-6968960D01*
X14116854Y-7254675D02*
X14450187Y-6254675D01*
X14450187Y-6254675D02*
X14783520Y-7254675D01*
X15116854Y-7254675D02*
X15116854Y-6254675D01*
X16069234Y-7254675D02*
X15593044Y-7254675D01*
X15593044Y-7254675D02*
X15593044Y-6254675D01*
X16402568Y-6254675D02*
X16402568Y-7064198D01*
X16402568Y-7064198D02*
X16450187Y-7159436D01*
X16450187Y-7159436D02*
X16497806Y-7207056D01*
X16497806Y-7207056D02*
X16593044Y-7254675D01*
X16593044Y-7254675D02*
X16783520Y-7254675D01*
X16783520Y-7254675D02*
X16878758Y-7207056D01*
X16878758Y-7207056D02*
X16926377Y-7159436D01*
X16926377Y-7159436D02*
X16973996Y-7064198D01*
X16973996Y-7064198D02*
X16973996Y-6254675D01*
X18021615Y-7254675D02*
X17688282Y-6778484D01*
X17450187Y-7254675D02*
X17450187Y-6254675D01*
X17450187Y-6254675D02*
X17831139Y-6254675D01*
X17831139Y-6254675D02*
X17926377Y-6302294D01*
X17926377Y-6302294D02*
X17973996Y-6349913D01*
X17973996Y-6349913D02*
X18021615Y-6445151D01*
X18021615Y-6445151D02*
X18021615Y-6588008D01*
X18021615Y-6588008D02*
X17973996Y-6683246D01*
X17973996Y-6683246D02*
X17926377Y-6730865D01*
X17926377Y-6730865D02*
X17831139Y-6778484D01*
X17831139Y-6778484D02*
X17450187Y-6778484D01*
X18450187Y-6730865D02*
X18783520Y-6730865D01*
X18926377Y-7254675D02*
X18450187Y-7254675D01*
X18450187Y-7254675D02*
X18450187Y-6254675D01*
X18450187Y-6254675D02*
X18926377Y-6254675D01*
X19973997Y-6254675D02*
X20545425Y-6254675D01*
X20259711Y-7254675D02*
X20259711Y-6254675D01*
X21069235Y-6254675D02*
X21259711Y-6254675D01*
X21259711Y-6254675D02*
X21354949Y-6302294D01*
X21354949Y-6302294D02*
X21450187Y-6397532D01*
X21450187Y-6397532D02*
X21497806Y-6588008D01*
X21497806Y-6588008D02*
X21497806Y-6921341D01*
X21497806Y-6921341D02*
X21450187Y-7111817D01*
X21450187Y-7111817D02*
X21354949Y-7207056D01*
X21354949Y-7207056D02*
X21259711Y-7254675D01*
X21259711Y-7254675D02*
X21069235Y-7254675D01*
X21069235Y-7254675D02*
X20973997Y-7207056D01*
X20973997Y-7207056D02*
X20878759Y-7111817D01*
X20878759Y-7111817D02*
X20831140Y-6921341D01*
X20831140Y-6921341D02*
X20831140Y-6588008D01*
X20831140Y-6588008D02*
X20878759Y-6397532D01*
X20878759Y-6397532D02*
X20973997Y-6302294D01*
X20973997Y-6302294D02*
X21069235Y-6254675D01*
X23259711Y-7159436D02*
X23212092Y-7207056D01*
X23212092Y-7207056D02*
X23069235Y-7254675D01*
X23069235Y-7254675D02*
X22973997Y-7254675D01*
X22973997Y-7254675D02*
X22831140Y-7207056D01*
X22831140Y-7207056D02*
X22735902Y-7111817D01*
X22735902Y-7111817D02*
X22688283Y-7016579D01*
X22688283Y-7016579D02*
X22640664Y-6826103D01*
X22640664Y-6826103D02*
X22640664Y-6683246D01*
X22640664Y-6683246D02*
X22688283Y-6492770D01*
X22688283Y-6492770D02*
X22735902Y-6397532D01*
X22735902Y-6397532D02*
X22831140Y-6302294D01*
X22831140Y-6302294D02*
X22973997Y-6254675D01*
X22973997Y-6254675D02*
X23069235Y-6254675D01*
X23069235Y-6254675D02*
X23212092Y-6302294D01*
X23212092Y-6302294D02*
X23259711Y-6349913D01*
X23878759Y-6254675D02*
X24069235Y-6254675D01*
X24069235Y-6254675D02*
X24164473Y-6302294D01*
X24164473Y-6302294D02*
X24259711Y-6397532D01*
X24259711Y-6397532D02*
X24307330Y-6588008D01*
X24307330Y-6588008D02*
X24307330Y-6921341D01*
X24307330Y-6921341D02*
X24259711Y-7111817D01*
X24259711Y-7111817D02*
X24164473Y-7207056D01*
X24164473Y-7207056D02*
X24069235Y-7254675D01*
X24069235Y-7254675D02*
X23878759Y-7254675D01*
X23878759Y-7254675D02*
X23783521Y-7207056D01*
X23783521Y-7207056D02*
X23688283Y-7111817D01*
X23688283Y-7111817D02*
X23640664Y-6921341D01*
X23640664Y-6921341D02*
X23640664Y-6588008D01*
X23640664Y-6588008D02*
X23688283Y-6397532D01*
X23688283Y-6397532D02*
X23783521Y-6302294D01*
X23783521Y-6302294D02*
X23878759Y-6254675D01*
X24735902Y-7254675D02*
X24735902Y-6254675D01*
X24735902Y-6254675D02*
X25069235Y-6968960D01*
X25069235Y-6968960D02*
X25402568Y-6254675D01*
X25402568Y-6254675D02*
X25402568Y-7254675D01*
X25878759Y-7254675D02*
X25878759Y-6254675D01*
X25878759Y-6254675D02*
X26259711Y-6254675D01*
X26259711Y-6254675D02*
X26354949Y-6302294D01*
X26354949Y-6302294D02*
X26402568Y-6349913D01*
X26402568Y-6349913D02*
X26450187Y-6445151D01*
X26450187Y-6445151D02*
X26450187Y-6588008D01*
X26450187Y-6588008D02*
X26402568Y-6683246D01*
X26402568Y-6683246D02*
X26354949Y-6730865D01*
X26354949Y-6730865D02*
X26259711Y-6778484D01*
X26259711Y-6778484D02*
X25878759Y-6778484D01*
X27354949Y-7254675D02*
X26878759Y-7254675D01*
X26878759Y-7254675D02*
X26878759Y-6254675D01*
X27878759Y-6778484D02*
X27878759Y-7254675D01*
X27545426Y-6254675D02*
X27878759Y-6778484D01*
X27878759Y-6778484D02*
X28212092Y-6254675D01*
X29212093Y-6254675D02*
X29450188Y-7254675D01*
X29450188Y-7254675D02*
X29640664Y-6540389D01*
X29640664Y-6540389D02*
X29831140Y-7254675D01*
X29831140Y-7254675D02*
X30069236Y-6254675D01*
X30450188Y-7254675D02*
X30450188Y-6254675D01*
X31402568Y-7254675D02*
X30926378Y-7254675D01*
X30926378Y-7254675D02*
X30926378Y-6254675D01*
X32212092Y-7254675D02*
X31735902Y-7254675D01*
X31735902Y-7254675D02*
X31735902Y-6254675D01*
X33878759Y-7254675D02*
X33545426Y-6778484D01*
X33307331Y-7254675D02*
X33307331Y-6254675D01*
X33307331Y-6254675D02*
X33688283Y-6254675D01*
X33688283Y-6254675D02*
X33783521Y-6302294D01*
X33783521Y-6302294D02*
X33831140Y-6349913D01*
X33831140Y-6349913D02*
X33878759Y-6445151D01*
X33878759Y-6445151D02*
X33878759Y-6588008D01*
X33878759Y-6588008D02*
X33831140Y-6683246D01*
X33831140Y-6683246D02*
X33783521Y-6730865D01*
X33783521Y-6730865D02*
X33688283Y-6778484D01*
X33688283Y-6778484D02*
X33307331Y-6778484D01*
X34307331Y-6730865D02*
X34640664Y-6730865D01*
X34783521Y-7254675D02*
X34307331Y-7254675D01*
X34307331Y-7254675D02*
X34307331Y-6254675D01*
X34307331Y-6254675D02*
X34783521Y-6254675D01*
X35164474Y-7207056D02*
X35307331Y-7254675D01*
X35307331Y-7254675D02*
X35545426Y-7254675D01*
X35545426Y-7254675D02*
X35640664Y-7207056D01*
X35640664Y-7207056D02*
X35688283Y-7159436D01*
X35688283Y-7159436D02*
X35735902Y-7064198D01*
X35735902Y-7064198D02*
X35735902Y-6968960D01*
X35735902Y-6968960D02*
X35688283Y-6873722D01*
X35688283Y-6873722D02*
X35640664Y-6826103D01*
X35640664Y-6826103D02*
X35545426Y-6778484D01*
X35545426Y-6778484D02*
X35354950Y-6730865D01*
X35354950Y-6730865D02*
X35259712Y-6683246D01*
X35259712Y-6683246D02*
X35212093Y-6635627D01*
X35212093Y-6635627D02*
X35164474Y-6540389D01*
X35164474Y-6540389D02*
X35164474Y-6445151D01*
X35164474Y-6445151D02*
X35212093Y-6349913D01*
X35212093Y-6349913D02*
X35259712Y-6302294D01*
X35259712Y-6302294D02*
X35354950Y-6254675D01*
X35354950Y-6254675D02*
X35593045Y-6254675D01*
X35593045Y-6254675D02*
X35735902Y-6302294D01*
X36164474Y-6254675D02*
X36164474Y-7064198D01*
X36164474Y-7064198D02*
X36212093Y-7159436D01*
X36212093Y-7159436D02*
X36259712Y-7207056D01*
X36259712Y-7207056D02*
X36354950Y-7254675D01*
X36354950Y-7254675D02*
X36545426Y-7254675D01*
X36545426Y-7254675D02*
X36640664Y-7207056D01*
X36640664Y-7207056D02*
X36688283Y-7159436D01*
X36688283Y-7159436D02*
X36735902Y-7064198D01*
X36735902Y-7064198D02*
X36735902Y-6254675D01*
X37688283Y-7254675D02*
X37212093Y-7254675D01*
X37212093Y-7254675D02*
X37212093Y-6254675D01*
X37878760Y-6254675D02*
X38450188Y-6254675D01*
X38164474Y-7254675D02*
X38164474Y-6254675D01*
X39545427Y-7254675D02*
X39545427Y-6254675D01*
X40021617Y-7254675D02*
X40021617Y-6254675D01*
X40021617Y-6254675D02*
X40593045Y-7254675D01*
X40593045Y-7254675D02*
X40593045Y-6254675D01*
X41831141Y-7254675D02*
X41831141Y-6254675D01*
X41831141Y-6254675D02*
X42069236Y-6254675D01*
X42069236Y-6254675D02*
X42212093Y-6302294D01*
X42212093Y-6302294D02*
X42307331Y-6397532D01*
X42307331Y-6397532D02*
X42354950Y-6492770D01*
X42354950Y-6492770D02*
X42402569Y-6683246D01*
X42402569Y-6683246D02*
X42402569Y-6826103D01*
X42402569Y-6826103D02*
X42354950Y-7016579D01*
X42354950Y-7016579D02*
X42307331Y-7111817D01*
X42307331Y-7111817D02*
X42212093Y-7207056D01*
X42212093Y-7207056D02*
X42069236Y-7254675D01*
X42069236Y-7254675D02*
X41831141Y-7254675D01*
X42783522Y-6968960D02*
X43259712Y-6968960D01*
X42688284Y-7254675D02*
X43021617Y-6254675D01*
X43021617Y-6254675D02*
X43354950Y-7254675D01*
X43688284Y-7254675D02*
X43688284Y-6254675D01*
X43688284Y-6254675D02*
X44021617Y-6968960D01*
X44021617Y-6968960D02*
X44354950Y-6254675D01*
X44354950Y-6254675D02*
X44354950Y-7254675D01*
X44783522Y-6968960D02*
X45259712Y-6968960D01*
X44688284Y-7254675D02*
X45021617Y-6254675D01*
X45021617Y-6254675D02*
X45354950Y-7254675D01*
X46212093Y-6302294D02*
X46116855Y-6254675D01*
X46116855Y-6254675D02*
X45973998Y-6254675D01*
X45973998Y-6254675D02*
X45831141Y-6302294D01*
X45831141Y-6302294D02*
X45735903Y-6397532D01*
X45735903Y-6397532D02*
X45688284Y-6492770D01*
X45688284Y-6492770D02*
X45640665Y-6683246D01*
X45640665Y-6683246D02*
X45640665Y-6826103D01*
X45640665Y-6826103D02*
X45688284Y-7016579D01*
X45688284Y-7016579D02*
X45735903Y-7111817D01*
X45735903Y-7111817D02*
X45831141Y-7207056D01*
X45831141Y-7207056D02*
X45973998Y-7254675D01*
X45973998Y-7254675D02*
X46069236Y-7254675D01*
X46069236Y-7254675D02*
X46212093Y-7207056D01*
X46212093Y-7207056D02*
X46259712Y-7159436D01*
X46259712Y-7159436D02*
X46259712Y-6826103D01*
X46259712Y-6826103D02*
X46069236Y-6826103D01*
X46688284Y-6730865D02*
X47021617Y-6730865D01*
X47164474Y-7254675D02*
X46688284Y-7254675D01*
X46688284Y-7254675D02*
X46688284Y-6254675D01*
X46688284Y-6254675D02*
X47164474Y-6254675D01*
X13259711Y-7864619D02*
X13831139Y-7864619D01*
X13545425Y-8864619D02*
X13545425Y-7864619D01*
X14354949Y-7864619D02*
X14545425Y-7864619D01*
X14545425Y-7864619D02*
X14640663Y-7912238D01*
X14640663Y-7912238D02*
X14735901Y-8007476D01*
X14735901Y-8007476D02*
X14783520Y-8197952D01*
X14783520Y-8197952D02*
X14783520Y-8531285D01*
X14783520Y-8531285D02*
X14735901Y-8721761D01*
X14735901Y-8721761D02*
X14640663Y-8817000D01*
X14640663Y-8817000D02*
X14545425Y-8864619D01*
X14545425Y-8864619D02*
X14354949Y-8864619D01*
X14354949Y-8864619D02*
X14259711Y-8817000D01*
X14259711Y-8817000D02*
X14164473Y-8721761D01*
X14164473Y-8721761D02*
X14116854Y-8531285D01*
X14116854Y-8531285D02*
X14116854Y-8197952D01*
X14116854Y-8197952D02*
X14164473Y-8007476D01*
X14164473Y-8007476D02*
X14259711Y-7912238D01*
X14259711Y-7912238D02*
X14354949Y-7864619D01*
X16307330Y-8340809D02*
X16450187Y-8388428D01*
X16450187Y-8388428D02*
X16497806Y-8436047D01*
X16497806Y-8436047D02*
X16545425Y-8531285D01*
X16545425Y-8531285D02*
X16545425Y-8674142D01*
X16545425Y-8674142D02*
X16497806Y-8769380D01*
X16497806Y-8769380D02*
X16450187Y-8817000D01*
X16450187Y-8817000D02*
X16354949Y-8864619D01*
X16354949Y-8864619D02*
X15973997Y-8864619D01*
X15973997Y-8864619D02*
X15973997Y-7864619D01*
X15973997Y-7864619D02*
X16307330Y-7864619D01*
X16307330Y-7864619D02*
X16402568Y-7912238D01*
X16402568Y-7912238D02*
X16450187Y-7959857D01*
X16450187Y-7959857D02*
X16497806Y-8055095D01*
X16497806Y-8055095D02*
X16497806Y-8150333D01*
X16497806Y-8150333D02*
X16450187Y-8245571D01*
X16450187Y-8245571D02*
X16402568Y-8293190D01*
X16402568Y-8293190D02*
X16307330Y-8340809D01*
X16307330Y-8340809D02*
X15973997Y-8340809D01*
X17164473Y-7864619D02*
X17354949Y-7864619D01*
X17354949Y-7864619D02*
X17450187Y-7912238D01*
X17450187Y-7912238D02*
X17545425Y-8007476D01*
X17545425Y-8007476D02*
X17593044Y-8197952D01*
X17593044Y-8197952D02*
X17593044Y-8531285D01*
X17593044Y-8531285D02*
X17545425Y-8721761D01*
X17545425Y-8721761D02*
X17450187Y-8817000D01*
X17450187Y-8817000D02*
X17354949Y-8864619D01*
X17354949Y-8864619D02*
X17164473Y-8864619D01*
X17164473Y-8864619D02*
X17069235Y-8817000D01*
X17069235Y-8817000D02*
X16973997Y-8721761D01*
X16973997Y-8721761D02*
X16926378Y-8531285D01*
X16926378Y-8531285D02*
X16926378Y-8197952D01*
X16926378Y-8197952D02*
X16973997Y-8007476D01*
X16973997Y-8007476D02*
X17069235Y-7912238D01*
X17069235Y-7912238D02*
X17164473Y-7864619D01*
X17878759Y-7864619D02*
X18450187Y-7864619D01*
X18164473Y-8864619D02*
X18164473Y-7864619D01*
X18783521Y-8864619D02*
X18783521Y-7864619D01*
X18783521Y-8340809D02*
X19354949Y-8340809D01*
X19354949Y-8864619D02*
X19354949Y-7864619D01*
X20593045Y-8864619D02*
X20593045Y-7864619D01*
X21069235Y-8864619D02*
X21069235Y-7864619D01*
X21069235Y-7864619D02*
X21640663Y-8864619D01*
X21640663Y-8864619D02*
X21640663Y-7864619D01*
X21973997Y-7864619D02*
X22307330Y-8864619D01*
X22307330Y-8864619D02*
X22640663Y-7864619D01*
X22973997Y-8340809D02*
X23307330Y-8340809D01*
X23450187Y-8864619D02*
X22973997Y-8864619D01*
X22973997Y-8864619D02*
X22973997Y-7864619D01*
X22973997Y-7864619D02*
X23450187Y-7864619D01*
X24450187Y-8864619D02*
X24116854Y-8388428D01*
X23878759Y-8864619D02*
X23878759Y-7864619D01*
X23878759Y-7864619D02*
X24259711Y-7864619D01*
X24259711Y-7864619D02*
X24354949Y-7912238D01*
X24354949Y-7912238D02*
X24402568Y-7959857D01*
X24402568Y-7959857D02*
X24450187Y-8055095D01*
X24450187Y-8055095D02*
X24450187Y-8197952D01*
X24450187Y-8197952D02*
X24402568Y-8293190D01*
X24402568Y-8293190D02*
X24354949Y-8340809D01*
X24354949Y-8340809D02*
X24259711Y-8388428D01*
X24259711Y-8388428D02*
X23878759Y-8388428D01*
X24735902Y-7864619D02*
X25307330Y-7864619D01*
X25021616Y-8864619D02*
X25021616Y-7864619D01*
X25640664Y-8340809D02*
X25973997Y-8340809D01*
X26116854Y-8864619D02*
X25640664Y-8864619D01*
X25640664Y-8864619D02*
X25640664Y-7864619D01*
X25640664Y-7864619D02*
X26116854Y-7864619D01*
X27116854Y-8864619D02*
X26783521Y-8388428D01*
X26545426Y-8864619D02*
X26545426Y-7864619D01*
X26545426Y-7864619D02*
X26926378Y-7864619D01*
X26926378Y-7864619D02*
X27021616Y-7912238D01*
X27021616Y-7912238D02*
X27069235Y-7959857D01*
X27069235Y-7959857D02*
X27116854Y-8055095D01*
X27116854Y-8055095D02*
X27116854Y-8197952D01*
X27116854Y-8197952D02*
X27069235Y-8293190D01*
X27069235Y-8293190D02*
X27021616Y-8340809D01*
X27021616Y-8340809D02*
X26926378Y-8388428D01*
X26926378Y-8388428D02*
X26545426Y-8388428D01*
X28259712Y-8578904D02*
X28735902Y-8578904D01*
X28164474Y-8864619D02*
X28497807Y-7864619D01*
X28497807Y-7864619D02*
X28831140Y-8864619D01*
X29164474Y-8864619D02*
X29164474Y-7864619D01*
X29164474Y-7864619D02*
X29735902Y-8864619D01*
X29735902Y-8864619D02*
X29735902Y-7864619D01*
X30212093Y-8864619D02*
X30212093Y-7864619D01*
X30212093Y-7864619D02*
X30450188Y-7864619D01*
X30450188Y-7864619D02*
X30593045Y-7912238D01*
X30593045Y-7912238D02*
X30688283Y-8007476D01*
X30688283Y-8007476D02*
X30735902Y-8102714D01*
X30735902Y-8102714D02*
X30783521Y-8293190D01*
X30783521Y-8293190D02*
X30783521Y-8436047D01*
X30783521Y-8436047D02*
X30735902Y-8626523D01*
X30735902Y-8626523D02*
X30688283Y-8721761D01*
X30688283Y-8721761D02*
X30593045Y-8817000D01*
X30593045Y-8817000D02*
X30450188Y-8864619D01*
X30450188Y-8864619D02*
X30212093Y-8864619D01*
X32545426Y-8769380D02*
X32497807Y-8817000D01*
X32497807Y-8817000D02*
X32354950Y-8864619D01*
X32354950Y-8864619D02*
X32259712Y-8864619D01*
X32259712Y-8864619D02*
X32116855Y-8817000D01*
X32116855Y-8817000D02*
X32021617Y-8721761D01*
X32021617Y-8721761D02*
X31973998Y-8626523D01*
X31973998Y-8626523D02*
X31926379Y-8436047D01*
X31926379Y-8436047D02*
X31926379Y-8293190D01*
X31926379Y-8293190D02*
X31973998Y-8102714D01*
X31973998Y-8102714D02*
X32021617Y-8007476D01*
X32021617Y-8007476D02*
X32116855Y-7912238D01*
X32116855Y-7912238D02*
X32259712Y-7864619D01*
X32259712Y-7864619D02*
X32354950Y-7864619D01*
X32354950Y-7864619D02*
X32497807Y-7912238D01*
X32497807Y-7912238D02*
X32545426Y-7959857D01*
X33164474Y-7864619D02*
X33354950Y-7864619D01*
X33354950Y-7864619D02*
X33450188Y-7912238D01*
X33450188Y-7912238D02*
X33545426Y-8007476D01*
X33545426Y-8007476D02*
X33593045Y-8197952D01*
X33593045Y-8197952D02*
X33593045Y-8531285D01*
X33593045Y-8531285D02*
X33545426Y-8721761D01*
X33545426Y-8721761D02*
X33450188Y-8817000D01*
X33450188Y-8817000D02*
X33354950Y-8864619D01*
X33354950Y-8864619D02*
X33164474Y-8864619D01*
X33164474Y-8864619D02*
X33069236Y-8817000D01*
X33069236Y-8817000D02*
X32973998Y-8721761D01*
X32973998Y-8721761D02*
X32926379Y-8531285D01*
X32926379Y-8531285D02*
X32926379Y-8197952D01*
X32926379Y-8197952D02*
X32973998Y-8007476D01*
X32973998Y-8007476D02*
X33069236Y-7912238D01*
X33069236Y-7912238D02*
X33164474Y-7864619D01*
X34021617Y-8864619D02*
X34021617Y-7864619D01*
X34021617Y-7864619D02*
X34593045Y-8864619D01*
X34593045Y-8864619D02*
X34593045Y-7864619D01*
X35069236Y-8864619D02*
X35069236Y-7864619D01*
X35069236Y-7864619D02*
X35640664Y-8864619D01*
X35640664Y-8864619D02*
X35640664Y-7864619D01*
X36116855Y-8340809D02*
X36450188Y-8340809D01*
X36593045Y-8864619D02*
X36116855Y-8864619D01*
X36116855Y-8864619D02*
X36116855Y-7864619D01*
X36116855Y-7864619D02*
X36593045Y-7864619D01*
X37593045Y-8769380D02*
X37545426Y-8817000D01*
X37545426Y-8817000D02*
X37402569Y-8864619D01*
X37402569Y-8864619D02*
X37307331Y-8864619D01*
X37307331Y-8864619D02*
X37164474Y-8817000D01*
X37164474Y-8817000D02*
X37069236Y-8721761D01*
X37069236Y-8721761D02*
X37021617Y-8626523D01*
X37021617Y-8626523D02*
X36973998Y-8436047D01*
X36973998Y-8436047D02*
X36973998Y-8293190D01*
X36973998Y-8293190D02*
X37021617Y-8102714D01*
X37021617Y-8102714D02*
X37069236Y-8007476D01*
X37069236Y-8007476D02*
X37164474Y-7912238D01*
X37164474Y-7912238D02*
X37307331Y-7864619D01*
X37307331Y-7864619D02*
X37402569Y-7864619D01*
X37402569Y-7864619D02*
X37545426Y-7912238D01*
X37545426Y-7912238D02*
X37593045Y-7959857D01*
X37878760Y-7864619D02*
X38450188Y-7864619D01*
X38164474Y-8864619D02*
X38164474Y-7864619D01*
X38783522Y-8340809D02*
X39116855Y-8340809D01*
X39259712Y-8864619D02*
X38783522Y-8864619D01*
X38783522Y-8864619D02*
X38783522Y-7864619D01*
X38783522Y-7864619D02*
X39259712Y-7864619D01*
X39688284Y-8864619D02*
X39688284Y-7864619D01*
X39688284Y-7864619D02*
X39926379Y-7864619D01*
X39926379Y-7864619D02*
X40069236Y-7912238D01*
X40069236Y-7912238D02*
X40164474Y-8007476D01*
X40164474Y-8007476D02*
X40212093Y-8102714D01*
X40212093Y-8102714D02*
X40259712Y-8293190D01*
X40259712Y-8293190D02*
X40259712Y-8436047D01*
X40259712Y-8436047D02*
X40212093Y-8626523D01*
X40212093Y-8626523D02*
X40164474Y-8721761D01*
X40164474Y-8721761D02*
X40069236Y-8817000D01*
X40069236Y-8817000D02*
X39926379Y-8864619D01*
X39926379Y-8864619D02*
X39688284Y-8864619D01*
X41450189Y-8864619D02*
X41450189Y-7864619D01*
X41450189Y-7864619D02*
X41688284Y-7864619D01*
X41688284Y-7864619D02*
X41831141Y-7912238D01*
X41831141Y-7912238D02*
X41926379Y-8007476D01*
X41926379Y-8007476D02*
X41973998Y-8102714D01*
X41973998Y-8102714D02*
X42021617Y-8293190D01*
X42021617Y-8293190D02*
X42021617Y-8436047D01*
X42021617Y-8436047D02*
X41973998Y-8626523D01*
X41973998Y-8626523D02*
X41926379Y-8721761D01*
X41926379Y-8721761D02*
X41831141Y-8817000D01*
X41831141Y-8817000D02*
X41688284Y-8864619D01*
X41688284Y-8864619D02*
X41450189Y-8864619D01*
X42450189Y-8340809D02*
X42783522Y-8340809D01*
X42926379Y-8864619D02*
X42450189Y-8864619D01*
X42450189Y-8864619D02*
X42450189Y-7864619D01*
X42450189Y-7864619D02*
X42926379Y-7864619D01*
X43212094Y-7864619D02*
X43545427Y-8864619D01*
X43545427Y-8864619D02*
X43878760Y-7864619D01*
X44212094Y-8864619D02*
X44212094Y-7864619D01*
X45259712Y-8769380D02*
X45212093Y-8817000D01*
X45212093Y-8817000D02*
X45069236Y-8864619D01*
X45069236Y-8864619D02*
X44973998Y-8864619D01*
X44973998Y-8864619D02*
X44831141Y-8817000D01*
X44831141Y-8817000D02*
X44735903Y-8721761D01*
X44735903Y-8721761D02*
X44688284Y-8626523D01*
X44688284Y-8626523D02*
X44640665Y-8436047D01*
X44640665Y-8436047D02*
X44640665Y-8293190D01*
X44640665Y-8293190D02*
X44688284Y-8102714D01*
X44688284Y-8102714D02*
X44735903Y-8007476D01*
X44735903Y-8007476D02*
X44831141Y-7912238D01*
X44831141Y-7912238D02*
X44973998Y-7864619D01*
X44973998Y-7864619D02*
X45069236Y-7864619D01*
X45069236Y-7864619D02*
X45212093Y-7912238D01*
X45212093Y-7912238D02*
X45259712Y-7959857D01*
X45688284Y-8340809D02*
X46021617Y-8340809D01*
X46164474Y-8864619D02*
X45688284Y-8864619D01*
X45688284Y-8864619D02*
X45688284Y-7864619D01*
X45688284Y-7864619D02*
X46164474Y-7864619D01*
X46545427Y-8817000D02*
X46688284Y-8864619D01*
X46688284Y-8864619D02*
X46926379Y-8864619D01*
X46926379Y-8864619D02*
X47021617Y-8817000D01*
X47021617Y-8817000D02*
X47069236Y-8769380D01*
X47069236Y-8769380D02*
X47116855Y-8674142D01*
X47116855Y-8674142D02*
X47116855Y-8578904D01*
X47116855Y-8578904D02*
X47069236Y-8483666D01*
X47069236Y-8483666D02*
X47021617Y-8436047D01*
X47021617Y-8436047D02*
X46926379Y-8388428D01*
X46926379Y-8388428D02*
X46735903Y-8340809D01*
X46735903Y-8340809D02*
X46640665Y-8293190D01*
X46640665Y-8293190D02*
X46593046Y-8245571D01*
X46593046Y-8245571D02*
X46545427Y-8150333D01*
X46545427Y-8150333D02*
X46545427Y-8055095D01*
X46545427Y-8055095D02*
X46593046Y-7959857D01*
X46593046Y-7959857D02*
X46640665Y-7912238D01*
X46640665Y-7912238D02*
X46735903Y-7864619D01*
X46735903Y-7864619D02*
X46973998Y-7864619D01*
X46973998Y-7864619D02*
X47116855Y-7912238D01*
X47545427Y-8769380D02*
X47593046Y-8817000D01*
X47593046Y-8817000D02*
X47545427Y-8864619D01*
X47545427Y-8864619D02*
X47497808Y-8817000D01*
X47497808Y-8817000D02*
X47545427Y-8769380D01*
X47545427Y-8769380D02*
X47545427Y-8864619D01*
D12*
X78229238Y-40694862D02*
X76229238Y-40694862D01*
X76229238Y-40694862D02*
X78229238Y-39552005D01*
X78229238Y-39552005D02*
X76229238Y-39552005D01*
X76229238Y-38218672D02*
X76229238Y-37837719D01*
X76229238Y-37837719D02*
X76324476Y-37647243D01*
X76324476Y-37647243D02*
X76514952Y-37456767D01*
X76514952Y-37456767D02*
X76895904Y-37361529D01*
X76895904Y-37361529D02*
X77562571Y-37361529D01*
X77562571Y-37361529D02*
X77943523Y-37456767D01*
X77943523Y-37456767D02*
X78134000Y-37647243D01*
X78134000Y-37647243D02*
X78229238Y-37837719D01*
X78229238Y-37837719D02*
X78229238Y-38218672D01*
X78229238Y-38218672D02*
X78134000Y-38409148D01*
X78134000Y-38409148D02*
X77943523Y-38599624D01*
X77943523Y-38599624D02*
X77562571Y-38694862D01*
X77562571Y-38694862D02*
X76895904Y-38694862D01*
X76895904Y-38694862D02*
X76514952Y-38599624D01*
X76514952Y-38599624D02*
X76324476Y-38409148D01*
X76324476Y-38409148D02*
X76229238Y-38218672D01*
X76229238Y-36790100D02*
X76229238Y-35647243D01*
X78229238Y-36218672D02*
X76229238Y-36218672D01*
X78134000Y-33552004D02*
X78229238Y-33266290D01*
X78229238Y-33266290D02*
X78229238Y-32790099D01*
X78229238Y-32790099D02*
X78134000Y-32599623D01*
X78134000Y-32599623D02*
X78038761Y-32504385D01*
X78038761Y-32504385D02*
X77848285Y-32409147D01*
X77848285Y-32409147D02*
X77657809Y-32409147D01*
X77657809Y-32409147D02*
X77467333Y-32504385D01*
X77467333Y-32504385D02*
X77372095Y-32599623D01*
X77372095Y-32599623D02*
X77276857Y-32790099D01*
X77276857Y-32790099D02*
X77181619Y-33171052D01*
X77181619Y-33171052D02*
X77086380Y-33361528D01*
X77086380Y-33361528D02*
X76991142Y-33456766D01*
X76991142Y-33456766D02*
X76800666Y-33552004D01*
X76800666Y-33552004D02*
X76610190Y-33552004D01*
X76610190Y-33552004D02*
X76419714Y-33456766D01*
X76419714Y-33456766D02*
X76324476Y-33361528D01*
X76324476Y-33361528D02*
X76229238Y-33171052D01*
X76229238Y-33171052D02*
X76229238Y-32694861D01*
X76229238Y-32694861D02*
X76324476Y-32409147D01*
X77181619Y-31552004D02*
X77181619Y-30885337D01*
X78229238Y-30599623D02*
X78229238Y-31552004D01*
X78229238Y-31552004D02*
X76229238Y-31552004D01*
X76229238Y-31552004D02*
X76229238Y-30599623D01*
X76229238Y-30028194D02*
X78229238Y-29361528D01*
X78229238Y-29361528D02*
X76229238Y-28694861D01*
X78038761Y-26885337D02*
X78134000Y-26980575D01*
X78134000Y-26980575D02*
X78229238Y-27266289D01*
X78229238Y-27266289D02*
X78229238Y-27456765D01*
X78229238Y-27456765D02*
X78134000Y-27742480D01*
X78134000Y-27742480D02*
X77943523Y-27932956D01*
X77943523Y-27932956D02*
X77753047Y-28028194D01*
X77753047Y-28028194D02*
X77372095Y-28123432D01*
X77372095Y-28123432D02*
X77086380Y-28123432D01*
X77086380Y-28123432D02*
X76705428Y-28028194D01*
X76705428Y-28028194D02*
X76514952Y-27932956D01*
X76514952Y-27932956D02*
X76324476Y-27742480D01*
X76324476Y-27742480D02*
X76229238Y-27456765D01*
X76229238Y-27456765D02*
X76229238Y-27266289D01*
X76229238Y-27266289D02*
X76324476Y-26980575D01*
X76324476Y-26980575D02*
X76419714Y-26885337D01*
X76229238Y-25647242D02*
X76229238Y-25266289D01*
X76229238Y-25266289D02*
X76324476Y-25075813D01*
X76324476Y-25075813D02*
X76514952Y-24885337D01*
X76514952Y-24885337D02*
X76895904Y-24790099D01*
X76895904Y-24790099D02*
X77562571Y-24790099D01*
X77562571Y-24790099D02*
X77943523Y-24885337D01*
X77943523Y-24885337D02*
X78134000Y-25075813D01*
X78134000Y-25075813D02*
X78229238Y-25266289D01*
X78229238Y-25266289D02*
X78229238Y-25647242D01*
X78229238Y-25647242D02*
X78134000Y-25837718D01*
X78134000Y-25837718D02*
X77943523Y-26028194D01*
X77943523Y-26028194D02*
X77562571Y-26123432D01*
X77562571Y-26123432D02*
X76895904Y-26123432D01*
X76895904Y-26123432D02*
X76514952Y-26028194D01*
X76514952Y-26028194D02*
X76324476Y-25837718D01*
X76324476Y-25837718D02*
X76229238Y-25647242D01*
X78229238Y-23932956D02*
X76229238Y-23932956D01*
X76229238Y-23932956D02*
X78229238Y-22790099D01*
X78229238Y-22790099D02*
X76229238Y-22790099D01*
X78038761Y-19171051D02*
X78134000Y-19266289D01*
X78134000Y-19266289D02*
X78229238Y-19552003D01*
X78229238Y-19552003D02*
X78229238Y-19742479D01*
X78229238Y-19742479D02*
X78134000Y-20028194D01*
X78134000Y-20028194D02*
X77943523Y-20218670D01*
X77943523Y-20218670D02*
X77753047Y-20313908D01*
X77753047Y-20313908D02*
X77372095Y-20409146D01*
X77372095Y-20409146D02*
X77086380Y-20409146D01*
X77086380Y-20409146D02*
X76705428Y-20313908D01*
X76705428Y-20313908D02*
X76514952Y-20218670D01*
X76514952Y-20218670D02*
X76324476Y-20028194D01*
X76324476Y-20028194D02*
X76229238Y-19742479D01*
X76229238Y-19742479D02*
X76229238Y-19552003D01*
X76229238Y-19552003D02*
X76324476Y-19266289D01*
X76324476Y-19266289D02*
X76419714Y-19171051D01*
X76229238Y-17932956D02*
X76229238Y-17552003D01*
X76229238Y-17552003D02*
X76324476Y-17361527D01*
X76324476Y-17361527D02*
X76514952Y-17171051D01*
X76514952Y-17171051D02*
X76895904Y-17075813D01*
X76895904Y-17075813D02*
X77562571Y-17075813D01*
X77562571Y-17075813D02*
X77943523Y-17171051D01*
X77943523Y-17171051D02*
X78134000Y-17361527D01*
X78134000Y-17361527D02*
X78229238Y-17552003D01*
X78229238Y-17552003D02*
X78229238Y-17932956D01*
X78229238Y-17932956D02*
X78134000Y-18123432D01*
X78134000Y-18123432D02*
X77943523Y-18313908D01*
X77943523Y-18313908D02*
X77562571Y-18409146D01*
X77562571Y-18409146D02*
X76895904Y-18409146D01*
X76895904Y-18409146D02*
X76514952Y-18313908D01*
X76514952Y-18313908D02*
X76324476Y-18123432D01*
X76324476Y-18123432D02*
X76229238Y-17932956D01*
X78229238Y-16218670D02*
X76229238Y-16218670D01*
X76229238Y-16218670D02*
X77657809Y-15552003D01*
X77657809Y-15552003D02*
X76229238Y-14885337D01*
X76229238Y-14885337D02*
X78229238Y-14885337D01*
X78229238Y-13932956D02*
X76229238Y-13932956D01*
X76229238Y-13932956D02*
X76229238Y-13171051D01*
X76229238Y-13171051D02*
X76324476Y-12980575D01*
X76324476Y-12980575D02*
X76419714Y-12885337D01*
X76419714Y-12885337D02*
X76610190Y-12790099D01*
X76610190Y-12790099D02*
X76895904Y-12790099D01*
X76895904Y-12790099D02*
X77086380Y-12885337D01*
X77086380Y-12885337D02*
X77181619Y-12980575D01*
X77181619Y-12980575D02*
X77276857Y-13171051D01*
X77276857Y-13171051D02*
X77276857Y-13932956D01*
X77657809Y-12028194D02*
X77657809Y-11075813D01*
X78229238Y-12218670D02*
X76229238Y-11552004D01*
X76229238Y-11552004D02*
X78229238Y-10885337D01*
X76229238Y-10504384D02*
X76229238Y-9361527D01*
X78229238Y-9932956D02*
X76229238Y-9932956D01*
X78229238Y-8694860D02*
X76229238Y-8694860D01*
X77181619Y-7075812D02*
X77276857Y-6790098D01*
X77276857Y-6790098D02*
X77372095Y-6694860D01*
X77372095Y-6694860D02*
X77562571Y-6599622D01*
X77562571Y-6599622D02*
X77848285Y-6599622D01*
X77848285Y-6599622D02*
X78038761Y-6694860D01*
X78038761Y-6694860D02*
X78134000Y-6790098D01*
X78134000Y-6790098D02*
X78229238Y-6980574D01*
X78229238Y-6980574D02*
X78229238Y-7742479D01*
X78229238Y-7742479D02*
X76229238Y-7742479D01*
X76229238Y-7742479D02*
X76229238Y-7075812D01*
X76229238Y-7075812D02*
X76324476Y-6885336D01*
X76324476Y-6885336D02*
X76419714Y-6790098D01*
X76419714Y-6790098D02*
X76610190Y-6694860D01*
X76610190Y-6694860D02*
X76800666Y-6694860D01*
X76800666Y-6694860D02*
X76991142Y-6790098D01*
X76991142Y-6790098D02*
X77086380Y-6885336D01*
X77086380Y-6885336D02*
X77181619Y-7075812D01*
X77181619Y-7075812D02*
X77181619Y-7742479D01*
X78229238Y-4790098D02*
X78229238Y-5742479D01*
X78229238Y-5742479D02*
X76229238Y-5742479D01*
X77181619Y-4123431D02*
X77181619Y-3456764D01*
X78229238Y-3171050D02*
X78229238Y-4123431D01*
X78229238Y-4123431D02*
X76229238Y-4123431D01*
X76229238Y-4123431D02*
X76229238Y-3171050D01*
X84168047Y-31575814D02*
X81668047Y-31575814D01*
X84168047Y-30385338D02*
X81668047Y-30385338D01*
X81668047Y-30385338D02*
X83453761Y-29552005D01*
X83453761Y-29552005D02*
X81668047Y-28718672D01*
X81668047Y-28718672D02*
X84168047Y-28718672D01*
X84168047Y-27528195D02*
X81668047Y-27528195D01*
X81668047Y-27528195D02*
X81668047Y-26575814D01*
X81668047Y-26575814D02*
X81787095Y-26337719D01*
X81787095Y-26337719D02*
X81906142Y-26218672D01*
X81906142Y-26218672D02*
X82144238Y-26099624D01*
X82144238Y-26099624D02*
X82501380Y-26099624D01*
X82501380Y-26099624D02*
X82739476Y-26218672D01*
X82739476Y-26218672D02*
X82858523Y-26337719D01*
X82858523Y-26337719D02*
X82977571Y-26575814D01*
X82977571Y-26575814D02*
X82977571Y-27528195D01*
X81668047Y-24552005D02*
X81668047Y-24075814D01*
X81668047Y-24075814D02*
X81787095Y-23837719D01*
X81787095Y-23837719D02*
X82025190Y-23599624D01*
X82025190Y-23599624D02*
X82501380Y-23480576D01*
X82501380Y-23480576D02*
X83334714Y-23480576D01*
X83334714Y-23480576D02*
X83810904Y-23599624D01*
X83810904Y-23599624D02*
X84049000Y-23837719D01*
X84049000Y-23837719D02*
X84168047Y-24075814D01*
X84168047Y-24075814D02*
X84168047Y-24552005D01*
X84168047Y-24552005D02*
X84049000Y-24790100D01*
X84049000Y-24790100D02*
X83810904Y-25028195D01*
X83810904Y-25028195D02*
X83334714Y-25147243D01*
X83334714Y-25147243D02*
X82501380Y-25147243D01*
X82501380Y-25147243D02*
X82025190Y-25028195D01*
X82025190Y-25028195D02*
X81787095Y-24790100D01*
X81787095Y-24790100D02*
X81668047Y-24552005D01*
X84168047Y-20980576D02*
X82977571Y-21813909D01*
X84168047Y-22409147D02*
X81668047Y-22409147D01*
X81668047Y-22409147D02*
X81668047Y-21456766D01*
X81668047Y-21456766D02*
X81787095Y-21218671D01*
X81787095Y-21218671D02*
X81906142Y-21099624D01*
X81906142Y-21099624D02*
X82144238Y-20980576D01*
X82144238Y-20980576D02*
X82501380Y-20980576D01*
X82501380Y-20980576D02*
X82739476Y-21099624D01*
X82739476Y-21099624D02*
X82858523Y-21218671D01*
X82858523Y-21218671D02*
X82977571Y-21456766D01*
X82977571Y-21456766D02*
X82977571Y-22409147D01*
X81668047Y-20266290D02*
X81668047Y-18837719D01*
X84168047Y-19552005D02*
X81668047Y-19552005D01*
X83453761Y-18123433D02*
X83453761Y-16932957D01*
X84168047Y-18361528D02*
X81668047Y-17528195D01*
X81668047Y-17528195D02*
X84168047Y-16694862D01*
X84168047Y-15861528D02*
X81668047Y-15861528D01*
X81668047Y-15861528D02*
X84168047Y-14432957D01*
X84168047Y-14432957D02*
X81668047Y-14432957D01*
X81668047Y-13599623D02*
X81668047Y-12171052D01*
X84168047Y-12885338D02*
X81668047Y-12885338D01*
D13*
X257738095Y-35454819D02*
X257738095Y-34454819D01*
X257738095Y-34931009D02*
X258309523Y-34931009D01*
X258309523Y-35454819D02*
X258309523Y-34454819D01*
X258928571Y-34883390D02*
X258833333Y-34835771D01*
X258833333Y-34835771D02*
X258785714Y-34788152D01*
X258785714Y-34788152D02*
X258738095Y-34692914D01*
X258738095Y-34692914D02*
X258738095Y-34645295D01*
X258738095Y-34645295D02*
X258785714Y-34550057D01*
X258785714Y-34550057D02*
X258833333Y-34502438D01*
X258833333Y-34502438D02*
X258928571Y-34454819D01*
X258928571Y-34454819D02*
X259119047Y-34454819D01*
X259119047Y-34454819D02*
X259214285Y-34502438D01*
X259214285Y-34502438D02*
X259261904Y-34550057D01*
X259261904Y-34550057D02*
X259309523Y-34645295D01*
X259309523Y-34645295D02*
X259309523Y-34692914D01*
X259309523Y-34692914D02*
X259261904Y-34788152D01*
X259261904Y-34788152D02*
X259214285Y-34835771D01*
X259214285Y-34835771D02*
X259119047Y-34883390D01*
X259119047Y-34883390D02*
X258928571Y-34883390D01*
X258928571Y-34883390D02*
X258833333Y-34931009D01*
X258833333Y-34931009D02*
X258785714Y-34978628D01*
X258785714Y-34978628D02*
X258738095Y-35073866D01*
X258738095Y-35073866D02*
X258738095Y-35264342D01*
X258738095Y-35264342D02*
X258785714Y-35359580D01*
X258785714Y-35359580D02*
X258833333Y-35407200D01*
X258833333Y-35407200D02*
X258928571Y-35454819D01*
X258928571Y-35454819D02*
X259119047Y-35454819D01*
X259119047Y-35454819D02*
X259214285Y-35407200D01*
X259214285Y-35407200D02*
X259261904Y-35359580D01*
X259261904Y-35359580D02*
X259309523Y-35264342D01*
X259309523Y-35264342D02*
X259309523Y-35073866D01*
X259309523Y-35073866D02*
X259261904Y-34978628D01*
X259261904Y-34978628D02*
X259214285Y-34931009D01*
X259214285Y-34931009D02*
X259119047Y-34883390D01*
D14*
X31253365Y-29166428D02*
X31313842Y-29226904D01*
X31313842Y-29226904D02*
X31374318Y-29408333D01*
X31374318Y-29408333D02*
X31374318Y-29529285D01*
X31374318Y-29529285D02*
X31313842Y-29710714D01*
X31313842Y-29710714D02*
X31192889Y-29831666D01*
X31192889Y-29831666D02*
X31071937Y-29892143D01*
X31071937Y-29892143D02*
X30830032Y-29952619D01*
X30830032Y-29952619D02*
X30648603Y-29952619D01*
X30648603Y-29952619D02*
X30406699Y-29892143D01*
X30406699Y-29892143D02*
X30285746Y-29831666D01*
X30285746Y-29831666D02*
X30164794Y-29710714D01*
X30164794Y-29710714D02*
X30104318Y-29529285D01*
X30104318Y-29529285D02*
X30104318Y-29408333D01*
X30104318Y-29408333D02*
X30164794Y-29226904D01*
X30164794Y-29226904D02*
X30225270Y-29166428D01*
X30104318Y-28743095D02*
X30104318Y-27956904D01*
X30104318Y-27956904D02*
X30588127Y-28380238D01*
X30588127Y-28380238D02*
X30588127Y-28198809D01*
X30588127Y-28198809D02*
X30648603Y-28077857D01*
X30648603Y-28077857D02*
X30709080Y-28017381D01*
X30709080Y-28017381D02*
X30830032Y-27956904D01*
X30830032Y-27956904D02*
X31132413Y-27956904D01*
X31132413Y-27956904D02*
X31253365Y-28017381D01*
X31253365Y-28017381D02*
X31313842Y-28077857D01*
X31313842Y-28077857D02*
X31374318Y-28198809D01*
X31374318Y-28198809D02*
X31374318Y-28561666D01*
X31374318Y-28561666D02*
X31313842Y-28682619D01*
X31313842Y-28682619D02*
X31253365Y-28743095D01*
X31374318Y-27352142D02*
X31374318Y-27110238D01*
X31374318Y-27110238D02*
X31313842Y-26989285D01*
X31313842Y-26989285D02*
X31253365Y-26928809D01*
X31253365Y-26928809D02*
X31071937Y-26807857D01*
X31071937Y-26807857D02*
X30830032Y-26747380D01*
X30830032Y-26747380D02*
X30346222Y-26747380D01*
X30346222Y-26747380D02*
X30225270Y-26807857D01*
X30225270Y-26807857D02*
X30164794Y-26868333D01*
X30164794Y-26868333D02*
X30104318Y-26989285D01*
X30104318Y-26989285D02*
X30104318Y-27231190D01*
X30104318Y-27231190D02*
X30164794Y-27352142D01*
X30164794Y-27352142D02*
X30225270Y-27412619D01*
X30225270Y-27412619D02*
X30346222Y-27473095D01*
X30346222Y-27473095D02*
X30648603Y-27473095D01*
X30648603Y-27473095D02*
X30769556Y-27412619D01*
X30769556Y-27412619D02*
X30830032Y-27352142D01*
X30830032Y-27352142D02*
X30890508Y-27231190D01*
X30890508Y-27231190D02*
X30890508Y-26989285D01*
X30890508Y-26989285D02*
X30830032Y-26868333D01*
X30830032Y-26868333D02*
X30769556Y-26807857D01*
X30769556Y-26807857D02*
X30648603Y-26747380D01*
X198155475Y-30574318D02*
X198155475Y-29304318D01*
X199485952Y-30453365D02*
X199425476Y-30513842D01*
X199425476Y-30513842D02*
X199244047Y-30574318D01*
X199244047Y-30574318D02*
X199123095Y-30574318D01*
X199123095Y-30574318D02*
X198941666Y-30513842D01*
X198941666Y-30513842D02*
X198820714Y-30392889D01*
X198820714Y-30392889D02*
X198760237Y-30271937D01*
X198760237Y-30271937D02*
X198699761Y-30030032D01*
X198699761Y-30030032D02*
X198699761Y-29848603D01*
X198699761Y-29848603D02*
X198760237Y-29606699D01*
X198760237Y-29606699D02*
X198820714Y-29485746D01*
X198820714Y-29485746D02*
X198941666Y-29364794D01*
X198941666Y-29364794D02*
X199123095Y-29304318D01*
X199123095Y-29304318D02*
X199244047Y-29304318D01*
X199244047Y-29304318D02*
X199425476Y-29364794D01*
X199425476Y-29364794D02*
X199485952Y-29425270D01*
X200695476Y-30574318D02*
X199969761Y-30574318D01*
X200332618Y-30574318D02*
X200332618Y-29304318D01*
X200332618Y-29304318D02*
X200211666Y-29485746D01*
X200211666Y-29485746D02*
X200090714Y-29606699D01*
X200090714Y-29606699D02*
X199969761Y-29667175D01*
X201481666Y-29304318D02*
X201602619Y-29304318D01*
X201602619Y-29304318D02*
X201723571Y-29364794D01*
X201723571Y-29364794D02*
X201784047Y-29425270D01*
X201784047Y-29425270D02*
X201844523Y-29546222D01*
X201844523Y-29546222D02*
X201905000Y-29788127D01*
X201905000Y-29788127D02*
X201905000Y-30090508D01*
X201905000Y-30090508D02*
X201844523Y-30332413D01*
X201844523Y-30332413D02*
X201784047Y-30453365D01*
X201784047Y-30453365D02*
X201723571Y-30513842D01*
X201723571Y-30513842D02*
X201602619Y-30574318D01*
X201602619Y-30574318D02*
X201481666Y-30574318D01*
X201481666Y-30574318D02*
X201360714Y-30513842D01*
X201360714Y-30513842D02*
X201300238Y-30453365D01*
X201300238Y-30453365D02*
X201239761Y-30332413D01*
X201239761Y-30332413D02*
X201179285Y-30090508D01*
X201179285Y-30090508D02*
X201179285Y-29788127D01*
X201179285Y-29788127D02*
X201239761Y-29546222D01*
X201239761Y-29546222D02*
X201300238Y-29425270D01*
X201300238Y-29425270D02*
X201360714Y-29364794D01*
X201360714Y-29364794D02*
X201481666Y-29304318D01*
D13*
X243559580Y-31681547D02*
X243607200Y-31729166D01*
X243607200Y-31729166D02*
X243654819Y-31872023D01*
X243654819Y-31872023D02*
X243654819Y-31967261D01*
X243654819Y-31967261D02*
X243607200Y-32110118D01*
X243607200Y-32110118D02*
X243511961Y-32205356D01*
X243511961Y-32205356D02*
X243416723Y-32252975D01*
X243416723Y-32252975D02*
X243226247Y-32300594D01*
X243226247Y-32300594D02*
X243083390Y-32300594D01*
X243083390Y-32300594D02*
X242892914Y-32252975D01*
X242892914Y-32252975D02*
X242797676Y-32205356D01*
X242797676Y-32205356D02*
X242702438Y-32110118D01*
X242702438Y-32110118D02*
X242654819Y-31967261D01*
X242654819Y-31967261D02*
X242654819Y-31872023D01*
X242654819Y-31872023D02*
X242702438Y-31729166D01*
X242702438Y-31729166D02*
X242750057Y-31681547D01*
X243654819Y-30729166D02*
X243654819Y-31300594D01*
X243654819Y-31014880D02*
X242654819Y-31014880D01*
X242654819Y-31014880D02*
X242797676Y-31110118D01*
X242797676Y-31110118D02*
X242892914Y-31205356D01*
X242892914Y-31205356D02*
X242940533Y-31300594D01*
X243083390Y-30157737D02*
X243035771Y-30252975D01*
X243035771Y-30252975D02*
X242988152Y-30300594D01*
X242988152Y-30300594D02*
X242892914Y-30348213D01*
X242892914Y-30348213D02*
X242845295Y-30348213D01*
X242845295Y-30348213D02*
X242750057Y-30300594D01*
X242750057Y-30300594D02*
X242702438Y-30252975D01*
X242702438Y-30252975D02*
X242654819Y-30157737D01*
X242654819Y-30157737D02*
X242654819Y-29967261D01*
X242654819Y-29967261D02*
X242702438Y-29872023D01*
X242702438Y-29872023D02*
X242750057Y-29824404D01*
X242750057Y-29824404D02*
X242845295Y-29776785D01*
X242845295Y-29776785D02*
X242892914Y-29776785D01*
X242892914Y-29776785D02*
X242988152Y-29824404D01*
X242988152Y-29824404D02*
X243035771Y-29872023D01*
X243035771Y-29872023D02*
X243083390Y-29967261D01*
X243083390Y-29967261D02*
X243083390Y-30157737D01*
X243083390Y-30157737D02*
X243131009Y-30252975D01*
X243131009Y-30252975D02*
X243178628Y-30300594D01*
X243178628Y-30300594D02*
X243273866Y-30348213D01*
X243273866Y-30348213D02*
X243464342Y-30348213D01*
X243464342Y-30348213D02*
X243559580Y-30300594D01*
X243559580Y-30300594D02*
X243607200Y-30252975D01*
X243607200Y-30252975D02*
X243654819Y-30157737D01*
X243654819Y-30157737D02*
X243654819Y-29967261D01*
X243654819Y-29967261D02*
X243607200Y-29872023D01*
X243607200Y-29872023D02*
X243559580Y-29824404D01*
X243559580Y-29824404D02*
X243464342Y-29776785D01*
X243464342Y-29776785D02*
X243273866Y-29776785D01*
X243273866Y-29776785D02*
X243178628Y-29824404D01*
X243178628Y-29824404D02*
X243131009Y-29872023D01*
X243131009Y-29872023D02*
X243083390Y-29967261D01*
X243654819Y-29300594D02*
X243654819Y-29110118D01*
X243654819Y-29110118D02*
X243607200Y-29014880D01*
X243607200Y-29014880D02*
X243559580Y-28967261D01*
X243559580Y-28967261D02*
X243416723Y-28872023D01*
X243416723Y-28872023D02*
X243226247Y-28824404D01*
X243226247Y-28824404D02*
X242845295Y-28824404D01*
X242845295Y-28824404D02*
X242750057Y-28872023D01*
X242750057Y-28872023D02*
X242702438Y-28919642D01*
X242702438Y-28919642D02*
X242654819Y-29014880D01*
X242654819Y-29014880D02*
X242654819Y-29205356D01*
X242654819Y-29205356D02*
X242702438Y-29300594D01*
X242702438Y-29300594D02*
X242750057Y-29348213D01*
X242750057Y-29348213D02*
X242845295Y-29395832D01*
X242845295Y-29395832D02*
X243083390Y-29395832D01*
X243083390Y-29395832D02*
X243178628Y-29348213D01*
X243178628Y-29348213D02*
X243226247Y-29300594D01*
X243226247Y-29300594D02*
X243273866Y-29205356D01*
X243273866Y-29205356D02*
X243273866Y-29014880D01*
X243273866Y-29014880D02*
X243226247Y-28919642D01*
X243226247Y-28919642D02*
X243178628Y-28872023D01*
X243178628Y-28872023D02*
X243083390Y-28824404D01*
D14*
X226562618Y-28574318D02*
X226562618Y-27304318D01*
X227288333Y-28574318D02*
X226744047Y-27848603D01*
X227288333Y-27304318D02*
X226562618Y-28030032D01*
X227772142Y-27425270D02*
X227832618Y-27364794D01*
X227832618Y-27364794D02*
X227953571Y-27304318D01*
X227953571Y-27304318D02*
X228255952Y-27304318D01*
X228255952Y-27304318D02*
X228376904Y-27364794D01*
X228376904Y-27364794D02*
X228437380Y-27425270D01*
X228437380Y-27425270D02*
X228497857Y-27546222D01*
X228497857Y-27546222D02*
X228497857Y-27667175D01*
X228497857Y-27667175D02*
X228437380Y-27848603D01*
X228437380Y-27848603D02*
X227711666Y-28574318D01*
X227711666Y-28574318D02*
X228497857Y-28574318D01*
X35453365Y-39816428D02*
X35513842Y-39876904D01*
X35513842Y-39876904D02*
X35574318Y-40058333D01*
X35574318Y-40058333D02*
X35574318Y-40179285D01*
X35574318Y-40179285D02*
X35513842Y-40360714D01*
X35513842Y-40360714D02*
X35392889Y-40481666D01*
X35392889Y-40481666D02*
X35271937Y-40542143D01*
X35271937Y-40542143D02*
X35030032Y-40602619D01*
X35030032Y-40602619D02*
X34848603Y-40602619D01*
X34848603Y-40602619D02*
X34606699Y-40542143D01*
X34606699Y-40542143D02*
X34485746Y-40481666D01*
X34485746Y-40481666D02*
X34364794Y-40360714D01*
X34364794Y-40360714D02*
X34304318Y-40179285D01*
X34304318Y-40179285D02*
X34304318Y-40058333D01*
X34304318Y-40058333D02*
X34364794Y-39876904D01*
X34364794Y-39876904D02*
X34425270Y-39816428D01*
X34304318Y-39393095D02*
X34304318Y-38606904D01*
X34304318Y-38606904D02*
X34788127Y-39030238D01*
X34788127Y-39030238D02*
X34788127Y-38848809D01*
X34788127Y-38848809D02*
X34848603Y-38727857D01*
X34848603Y-38727857D02*
X34909080Y-38667381D01*
X34909080Y-38667381D02*
X35030032Y-38606904D01*
X35030032Y-38606904D02*
X35332413Y-38606904D01*
X35332413Y-38606904D02*
X35453365Y-38667381D01*
X35453365Y-38667381D02*
X35513842Y-38727857D01*
X35513842Y-38727857D02*
X35574318Y-38848809D01*
X35574318Y-38848809D02*
X35574318Y-39211666D01*
X35574318Y-39211666D02*
X35513842Y-39332619D01*
X35513842Y-39332619D02*
X35453365Y-39393095D01*
X34304318Y-38183571D02*
X34304318Y-37336904D01*
X34304318Y-37336904D02*
X35574318Y-37881190D01*
D13*
X88738095Y-1454819D02*
X88738095Y-454819D01*
X88738095Y-931009D02*
X89309523Y-931009D01*
X89309523Y-1454819D02*
X89309523Y-454819D01*
X89690476Y-454819D02*
X90309523Y-454819D01*
X90309523Y-454819D02*
X89976190Y-835771D01*
X89976190Y-835771D02*
X90119047Y-835771D01*
X90119047Y-835771D02*
X90214285Y-883390D01*
X90214285Y-883390D02*
X90261904Y-931009D01*
X90261904Y-931009D02*
X90309523Y-1026247D01*
X90309523Y-1026247D02*
X90309523Y-1264342D01*
X90309523Y-1264342D02*
X90261904Y-1359580D01*
X90261904Y-1359580D02*
X90214285Y-1407200D01*
X90214285Y-1407200D02*
X90119047Y-1454819D01*
X90119047Y-1454819D02*
X89833333Y-1454819D01*
X89833333Y-1454819D02*
X89738095Y-1407200D01*
X89738095Y-1407200D02*
X89690476Y-1359580D01*
D14*
X31453365Y-18566428D02*
X31513842Y-18626904D01*
X31513842Y-18626904D02*
X31574318Y-18808333D01*
X31574318Y-18808333D02*
X31574318Y-18929285D01*
X31574318Y-18929285D02*
X31513842Y-19110714D01*
X31513842Y-19110714D02*
X31392889Y-19231666D01*
X31392889Y-19231666D02*
X31271937Y-19292143D01*
X31271937Y-19292143D02*
X31030032Y-19352619D01*
X31030032Y-19352619D02*
X30848603Y-19352619D01*
X30848603Y-19352619D02*
X30606699Y-19292143D01*
X30606699Y-19292143D02*
X30485746Y-19231666D01*
X30485746Y-19231666D02*
X30364794Y-19110714D01*
X30364794Y-19110714D02*
X30304318Y-18929285D01*
X30304318Y-18929285D02*
X30304318Y-18808333D01*
X30304318Y-18808333D02*
X30364794Y-18626904D01*
X30364794Y-18626904D02*
X30425270Y-18566428D01*
X30304318Y-17417381D02*
X30304318Y-18022143D01*
X30304318Y-18022143D02*
X30909080Y-18082619D01*
X30909080Y-18082619D02*
X30848603Y-18022143D01*
X30848603Y-18022143D02*
X30788127Y-17901190D01*
X30788127Y-17901190D02*
X30788127Y-17598809D01*
X30788127Y-17598809D02*
X30848603Y-17477857D01*
X30848603Y-17477857D02*
X30909080Y-17417381D01*
X30909080Y-17417381D02*
X31030032Y-17356904D01*
X31030032Y-17356904D02*
X31332413Y-17356904D01*
X31332413Y-17356904D02*
X31453365Y-17417381D01*
X31453365Y-17417381D02*
X31513842Y-17477857D01*
X31513842Y-17477857D02*
X31574318Y-17598809D01*
X31574318Y-17598809D02*
X31574318Y-17901190D01*
X31574318Y-17901190D02*
X31513842Y-18022143D01*
X31513842Y-18022143D02*
X31453365Y-18082619D01*
X30304318Y-16570714D02*
X30304318Y-16449761D01*
X30304318Y-16449761D02*
X30364794Y-16328809D01*
X30364794Y-16328809D02*
X30425270Y-16268333D01*
X30425270Y-16268333D02*
X30546222Y-16207857D01*
X30546222Y-16207857D02*
X30788127Y-16147380D01*
X30788127Y-16147380D02*
X31090508Y-16147380D01*
X31090508Y-16147380D02*
X31332413Y-16207857D01*
X31332413Y-16207857D02*
X31453365Y-16268333D01*
X31453365Y-16268333D02*
X31513842Y-16328809D01*
X31513842Y-16328809D02*
X31574318Y-16449761D01*
X31574318Y-16449761D02*
X31574318Y-16570714D01*
X31574318Y-16570714D02*
X31513842Y-16691666D01*
X31513842Y-16691666D02*
X31453365Y-16752142D01*
X31453365Y-16752142D02*
X31332413Y-16812619D01*
X31332413Y-16812619D02*
X31090508Y-16873095D01*
X31090508Y-16873095D02*
X30788127Y-16873095D01*
X30788127Y-16873095D02*
X30546222Y-16812619D01*
X30546222Y-16812619D02*
X30425270Y-16752142D01*
X30425270Y-16752142D02*
X30364794Y-16691666D01*
X30364794Y-16691666D02*
X30304318Y-16570714D01*
X22253365Y-29166428D02*
X22313842Y-29226904D01*
X22313842Y-29226904D02*
X22374318Y-29408333D01*
X22374318Y-29408333D02*
X22374318Y-29529285D01*
X22374318Y-29529285D02*
X22313842Y-29710714D01*
X22313842Y-29710714D02*
X22192889Y-29831666D01*
X22192889Y-29831666D02*
X22071937Y-29892143D01*
X22071937Y-29892143D02*
X21830032Y-29952619D01*
X21830032Y-29952619D02*
X21648603Y-29952619D01*
X21648603Y-29952619D02*
X21406699Y-29892143D01*
X21406699Y-29892143D02*
X21285746Y-29831666D01*
X21285746Y-29831666D02*
X21164794Y-29710714D01*
X21164794Y-29710714D02*
X21104318Y-29529285D01*
X21104318Y-29529285D02*
X21104318Y-29408333D01*
X21104318Y-29408333D02*
X21164794Y-29226904D01*
X21164794Y-29226904D02*
X21225270Y-29166428D01*
X21527651Y-28077857D02*
X22374318Y-28077857D01*
X21043842Y-28380238D02*
X21950984Y-28682619D01*
X21950984Y-28682619D02*
X21950984Y-27896428D01*
X21104318Y-27170714D02*
X21104318Y-27049761D01*
X21104318Y-27049761D02*
X21164794Y-26928809D01*
X21164794Y-26928809D02*
X21225270Y-26868333D01*
X21225270Y-26868333D02*
X21346222Y-26807857D01*
X21346222Y-26807857D02*
X21588127Y-26747380D01*
X21588127Y-26747380D02*
X21890508Y-26747380D01*
X21890508Y-26747380D02*
X22132413Y-26807857D01*
X22132413Y-26807857D02*
X22253365Y-26868333D01*
X22253365Y-26868333D02*
X22313842Y-26928809D01*
X22313842Y-26928809D02*
X22374318Y-27049761D01*
X22374318Y-27049761D02*
X22374318Y-27170714D01*
X22374318Y-27170714D02*
X22313842Y-27291666D01*
X22313842Y-27291666D02*
X22253365Y-27352142D01*
X22253365Y-27352142D02*
X22132413Y-27412619D01*
X22132413Y-27412619D02*
X21890508Y-27473095D01*
X21890508Y-27473095D02*
X21588127Y-27473095D01*
X21588127Y-27473095D02*
X21346222Y-27412619D01*
X21346222Y-27412619D02*
X21225270Y-27352142D01*
X21225270Y-27352142D02*
X21164794Y-27291666D01*
X21164794Y-27291666D02*
X21104318Y-27170714D01*
X238683571Y-36453365D02*
X238623095Y-36513842D01*
X238623095Y-36513842D02*
X238441666Y-36574318D01*
X238441666Y-36574318D02*
X238320714Y-36574318D01*
X238320714Y-36574318D02*
X238139285Y-36513842D01*
X238139285Y-36513842D02*
X238018333Y-36392889D01*
X238018333Y-36392889D02*
X237957856Y-36271937D01*
X237957856Y-36271937D02*
X237897380Y-36030032D01*
X237897380Y-36030032D02*
X237897380Y-35848603D01*
X237897380Y-35848603D02*
X237957856Y-35606699D01*
X237957856Y-35606699D02*
X238018333Y-35485746D01*
X238018333Y-35485746D02*
X238139285Y-35364794D01*
X238139285Y-35364794D02*
X238320714Y-35304318D01*
X238320714Y-35304318D02*
X238441666Y-35304318D01*
X238441666Y-35304318D02*
X238623095Y-35364794D01*
X238623095Y-35364794D02*
X238683571Y-35425270D01*
X239772142Y-35727651D02*
X239772142Y-36574318D01*
X239469761Y-35243842D02*
X239167380Y-36150984D01*
X239167380Y-36150984D02*
X239953571Y-36150984D01*
X240316428Y-35304318D02*
X241163095Y-35304318D01*
X241163095Y-35304318D02*
X240618809Y-36574318D01*
D13*
X247266666Y-36799819D02*
X247266666Y-37514104D01*
X247266666Y-37514104D02*
X247219047Y-37656961D01*
X247219047Y-37656961D02*
X247123809Y-37752200D01*
X247123809Y-37752200D02*
X246980952Y-37799819D01*
X246980952Y-37799819D02*
X246885714Y-37799819D01*
X247695238Y-36895057D02*
X247742857Y-36847438D01*
X247742857Y-36847438D02*
X247838095Y-36799819D01*
X247838095Y-36799819D02*
X248076190Y-36799819D01*
X248076190Y-36799819D02*
X248171428Y-36847438D01*
X248171428Y-36847438D02*
X248219047Y-36895057D01*
X248219047Y-36895057D02*
X248266666Y-36990295D01*
X248266666Y-36990295D02*
X248266666Y-37085533D01*
X248266666Y-37085533D02*
X248219047Y-37228390D01*
X248219047Y-37228390D02*
X247647619Y-37799819D01*
X247647619Y-37799819D02*
X248266666Y-37799819D01*
D14*
X129683571Y-36953365D02*
X129623095Y-37013842D01*
X129623095Y-37013842D02*
X129441666Y-37074318D01*
X129441666Y-37074318D02*
X129320714Y-37074318D01*
X129320714Y-37074318D02*
X129139285Y-37013842D01*
X129139285Y-37013842D02*
X129018333Y-36892889D01*
X129018333Y-36892889D02*
X128957856Y-36771937D01*
X128957856Y-36771937D02*
X128897380Y-36530032D01*
X128897380Y-36530032D02*
X128897380Y-36348603D01*
X128897380Y-36348603D02*
X128957856Y-36106699D01*
X128957856Y-36106699D02*
X129018333Y-35985746D01*
X129018333Y-35985746D02*
X129139285Y-35864794D01*
X129139285Y-35864794D02*
X129320714Y-35804318D01*
X129320714Y-35804318D02*
X129441666Y-35804318D01*
X129441666Y-35804318D02*
X129623095Y-35864794D01*
X129623095Y-35864794D02*
X129683571Y-35925270D01*
X130772142Y-36227651D02*
X130772142Y-37074318D01*
X130469761Y-35743842D02*
X130167380Y-36650984D01*
X130167380Y-36650984D02*
X130953571Y-36650984D01*
X131618809Y-36348603D02*
X131497857Y-36288127D01*
X131497857Y-36288127D02*
X131437380Y-36227651D01*
X131437380Y-36227651D02*
X131376904Y-36106699D01*
X131376904Y-36106699D02*
X131376904Y-36046222D01*
X131376904Y-36046222D02*
X131437380Y-35925270D01*
X131437380Y-35925270D02*
X131497857Y-35864794D01*
X131497857Y-35864794D02*
X131618809Y-35804318D01*
X131618809Y-35804318D02*
X131860714Y-35804318D01*
X131860714Y-35804318D02*
X131981666Y-35864794D01*
X131981666Y-35864794D02*
X132042142Y-35925270D01*
X132042142Y-35925270D02*
X132102619Y-36046222D01*
X132102619Y-36046222D02*
X132102619Y-36106699D01*
X132102619Y-36106699D02*
X132042142Y-36227651D01*
X132042142Y-36227651D02*
X131981666Y-36288127D01*
X131981666Y-36288127D02*
X131860714Y-36348603D01*
X131860714Y-36348603D02*
X131618809Y-36348603D01*
X131618809Y-36348603D02*
X131497857Y-36409080D01*
X131497857Y-36409080D02*
X131437380Y-36469556D01*
X131437380Y-36469556D02*
X131376904Y-36590508D01*
X131376904Y-36590508D02*
X131376904Y-36832413D01*
X131376904Y-36832413D02*
X131437380Y-36953365D01*
X131437380Y-36953365D02*
X131497857Y-37013842D01*
X131497857Y-37013842D02*
X131618809Y-37074318D01*
X131618809Y-37074318D02*
X131860714Y-37074318D01*
X131860714Y-37074318D02*
X131981666Y-37013842D01*
X131981666Y-37013842D02*
X132042142Y-36953365D01*
X132042142Y-36953365D02*
X132102619Y-36832413D01*
X132102619Y-36832413D02*
X132102619Y-36590508D01*
X132102619Y-36590508D02*
X132042142Y-36469556D01*
X132042142Y-36469556D02*
X131981666Y-36409080D01*
X131981666Y-36409080D02*
X131860714Y-36348603D01*
D13*
X208724819Y-41328333D02*
X209439104Y-41328333D01*
X209439104Y-41328333D02*
X209581961Y-41375952D01*
X209581961Y-41375952D02*
X209677200Y-41471190D01*
X209677200Y-41471190D02*
X209724819Y-41614047D01*
X209724819Y-41614047D02*
X209724819Y-41709285D01*
X208724819Y-40947380D02*
X208724819Y-40280714D01*
X208724819Y-40280714D02*
X209724819Y-40709285D01*
D14*
X12953365Y-29166428D02*
X13013842Y-29226904D01*
X13013842Y-29226904D02*
X13074318Y-29408333D01*
X13074318Y-29408333D02*
X13074318Y-29529285D01*
X13074318Y-29529285D02*
X13013842Y-29710714D01*
X13013842Y-29710714D02*
X12892889Y-29831666D01*
X12892889Y-29831666D02*
X12771937Y-29892143D01*
X12771937Y-29892143D02*
X12530032Y-29952619D01*
X12530032Y-29952619D02*
X12348603Y-29952619D01*
X12348603Y-29952619D02*
X12106699Y-29892143D01*
X12106699Y-29892143D02*
X11985746Y-29831666D01*
X11985746Y-29831666D02*
X11864794Y-29710714D01*
X11864794Y-29710714D02*
X11804318Y-29529285D01*
X11804318Y-29529285D02*
X11804318Y-29408333D01*
X11804318Y-29408333D02*
X11864794Y-29226904D01*
X11864794Y-29226904D02*
X11925270Y-29166428D01*
X12227651Y-28077857D02*
X13074318Y-28077857D01*
X11743842Y-28380238D02*
X12650984Y-28682619D01*
X12650984Y-28682619D02*
X12650984Y-27896428D01*
X13074318Y-26747380D02*
X13074318Y-27473095D01*
X13074318Y-27110238D02*
X11804318Y-27110238D01*
X11804318Y-27110238D02*
X11985746Y-27231190D01*
X11985746Y-27231190D02*
X12106699Y-27352142D01*
X12106699Y-27352142D02*
X12167175Y-27473095D01*
X232683571Y-36453365D02*
X232623095Y-36513842D01*
X232623095Y-36513842D02*
X232441666Y-36574318D01*
X232441666Y-36574318D02*
X232320714Y-36574318D01*
X232320714Y-36574318D02*
X232139285Y-36513842D01*
X232139285Y-36513842D02*
X232018333Y-36392889D01*
X232018333Y-36392889D02*
X231957856Y-36271937D01*
X231957856Y-36271937D02*
X231897380Y-36030032D01*
X231897380Y-36030032D02*
X231897380Y-35848603D01*
X231897380Y-35848603D02*
X231957856Y-35606699D01*
X231957856Y-35606699D02*
X232018333Y-35485746D01*
X232018333Y-35485746D02*
X232139285Y-35364794D01*
X232139285Y-35364794D02*
X232320714Y-35304318D01*
X232320714Y-35304318D02*
X232441666Y-35304318D01*
X232441666Y-35304318D02*
X232623095Y-35364794D01*
X232623095Y-35364794D02*
X232683571Y-35425270D01*
X233772142Y-35727651D02*
X233772142Y-36574318D01*
X233469761Y-35243842D02*
X233167380Y-36150984D01*
X233167380Y-36150984D02*
X233953571Y-36150984D01*
X234376904Y-35425270D02*
X234437380Y-35364794D01*
X234437380Y-35364794D02*
X234558333Y-35304318D01*
X234558333Y-35304318D02*
X234860714Y-35304318D01*
X234860714Y-35304318D02*
X234981666Y-35364794D01*
X234981666Y-35364794D02*
X235042142Y-35425270D01*
X235042142Y-35425270D02*
X235102619Y-35546222D01*
X235102619Y-35546222D02*
X235102619Y-35667175D01*
X235102619Y-35667175D02*
X235042142Y-35848603D01*
X235042142Y-35848603D02*
X234316428Y-36574318D01*
X234316428Y-36574318D02*
X235102619Y-36574318D01*
X26453365Y-39816428D02*
X26513842Y-39876904D01*
X26513842Y-39876904D02*
X26574318Y-40058333D01*
X26574318Y-40058333D02*
X26574318Y-40179285D01*
X26574318Y-40179285D02*
X26513842Y-40360714D01*
X26513842Y-40360714D02*
X26392889Y-40481666D01*
X26392889Y-40481666D02*
X26271937Y-40542143D01*
X26271937Y-40542143D02*
X26030032Y-40602619D01*
X26030032Y-40602619D02*
X25848603Y-40602619D01*
X25848603Y-40602619D02*
X25606699Y-40542143D01*
X25606699Y-40542143D02*
X25485746Y-40481666D01*
X25485746Y-40481666D02*
X25364794Y-40360714D01*
X25364794Y-40360714D02*
X25304318Y-40179285D01*
X25304318Y-40179285D02*
X25304318Y-40058333D01*
X25304318Y-40058333D02*
X25364794Y-39876904D01*
X25364794Y-39876904D02*
X25425270Y-39816428D01*
X25304318Y-39393095D02*
X25304318Y-38606904D01*
X25304318Y-38606904D02*
X25788127Y-39030238D01*
X25788127Y-39030238D02*
X25788127Y-38848809D01*
X25788127Y-38848809D02*
X25848603Y-38727857D01*
X25848603Y-38727857D02*
X25909080Y-38667381D01*
X25909080Y-38667381D02*
X26030032Y-38606904D01*
X26030032Y-38606904D02*
X26332413Y-38606904D01*
X26332413Y-38606904D02*
X26453365Y-38667381D01*
X26453365Y-38667381D02*
X26513842Y-38727857D01*
X26513842Y-38727857D02*
X26574318Y-38848809D01*
X26574318Y-38848809D02*
X26574318Y-39211666D01*
X26574318Y-39211666D02*
X26513842Y-39332619D01*
X26513842Y-39332619D02*
X26453365Y-39393095D01*
X25848603Y-37881190D02*
X25788127Y-38002142D01*
X25788127Y-38002142D02*
X25727651Y-38062619D01*
X25727651Y-38062619D02*
X25606699Y-38123095D01*
X25606699Y-38123095D02*
X25546222Y-38123095D01*
X25546222Y-38123095D02*
X25425270Y-38062619D01*
X25425270Y-38062619D02*
X25364794Y-38002142D01*
X25364794Y-38002142D02*
X25304318Y-37881190D01*
X25304318Y-37881190D02*
X25304318Y-37639285D01*
X25304318Y-37639285D02*
X25364794Y-37518333D01*
X25364794Y-37518333D02*
X25425270Y-37457857D01*
X25425270Y-37457857D02*
X25546222Y-37397380D01*
X25546222Y-37397380D02*
X25606699Y-37397380D01*
X25606699Y-37397380D02*
X25727651Y-37457857D01*
X25727651Y-37457857D02*
X25788127Y-37518333D01*
X25788127Y-37518333D02*
X25848603Y-37639285D01*
X25848603Y-37639285D02*
X25848603Y-37881190D01*
X25848603Y-37881190D02*
X25909080Y-38002142D01*
X25909080Y-38002142D02*
X25969556Y-38062619D01*
X25969556Y-38062619D02*
X26090508Y-38123095D01*
X26090508Y-38123095D02*
X26332413Y-38123095D01*
X26332413Y-38123095D02*
X26453365Y-38062619D01*
X26453365Y-38062619D02*
X26513842Y-38002142D01*
X26513842Y-38002142D02*
X26574318Y-37881190D01*
X26574318Y-37881190D02*
X26574318Y-37639285D01*
X26574318Y-37639285D02*
X26513842Y-37518333D01*
X26513842Y-37518333D02*
X26453365Y-37457857D01*
X26453365Y-37457857D02*
X26332413Y-37397380D01*
X26332413Y-37397380D02*
X26090508Y-37397380D01*
X26090508Y-37397380D02*
X25969556Y-37457857D01*
X25969556Y-37457857D02*
X25909080Y-37518333D01*
X25909080Y-37518333D02*
X25848603Y-37639285D01*
X175659080Y-1673332D02*
X175659080Y-2096666D01*
X176324318Y-2096666D02*
X175054318Y-2096666D01*
X175054318Y-2096666D02*
X175054318Y-1491904D01*
X176324318Y-342856D02*
X176324318Y-1068571D01*
X176324318Y-705714D02*
X175054318Y-705714D01*
X175054318Y-705714D02*
X175235746Y-826666D01*
X175235746Y-826666D02*
X175356699Y-947618D01*
X175356699Y-947618D02*
X175417175Y-1068571D01*
D13*
X179238095Y-34204819D02*
X179238095Y-33204819D01*
X179238095Y-33681009D02*
X179809523Y-33681009D01*
X179809523Y-34204819D02*
X179809523Y-33204819D01*
X180714285Y-33204819D02*
X180523809Y-33204819D01*
X180523809Y-33204819D02*
X180428571Y-33252438D01*
X180428571Y-33252438D02*
X180380952Y-33300057D01*
X180380952Y-33300057D02*
X180285714Y-33442914D01*
X180285714Y-33442914D02*
X180238095Y-33633390D01*
X180238095Y-33633390D02*
X180238095Y-34014342D01*
X180238095Y-34014342D02*
X180285714Y-34109580D01*
X180285714Y-34109580D02*
X180333333Y-34157200D01*
X180333333Y-34157200D02*
X180428571Y-34204819D01*
X180428571Y-34204819D02*
X180619047Y-34204819D01*
X180619047Y-34204819D02*
X180714285Y-34157200D01*
X180714285Y-34157200D02*
X180761904Y-34109580D01*
X180761904Y-34109580D02*
X180809523Y-34014342D01*
X180809523Y-34014342D02*
X180809523Y-33776247D01*
X180809523Y-33776247D02*
X180761904Y-33681009D01*
X180761904Y-33681009D02*
X180714285Y-33633390D01*
X180714285Y-33633390D02*
X180619047Y-33585771D01*
X180619047Y-33585771D02*
X180428571Y-33585771D01*
X180428571Y-33585771D02*
X180333333Y-33633390D01*
X180333333Y-33633390D02*
X180285714Y-33681009D01*
X180285714Y-33681009D02*
X180238095Y-33776247D01*
D14*
X119183571Y-36953365D02*
X119123095Y-37013842D01*
X119123095Y-37013842D02*
X118941666Y-37074318D01*
X118941666Y-37074318D02*
X118820714Y-37074318D01*
X118820714Y-37074318D02*
X118639285Y-37013842D01*
X118639285Y-37013842D02*
X118518333Y-36892889D01*
X118518333Y-36892889D02*
X118457856Y-36771937D01*
X118457856Y-36771937D02*
X118397380Y-36530032D01*
X118397380Y-36530032D02*
X118397380Y-36348603D01*
X118397380Y-36348603D02*
X118457856Y-36106699D01*
X118457856Y-36106699D02*
X118518333Y-35985746D01*
X118518333Y-35985746D02*
X118639285Y-35864794D01*
X118639285Y-35864794D02*
X118820714Y-35804318D01*
X118820714Y-35804318D02*
X118941666Y-35804318D01*
X118941666Y-35804318D02*
X119123095Y-35864794D01*
X119123095Y-35864794D02*
X119183571Y-35925270D01*
X120272142Y-36227651D02*
X120272142Y-37074318D01*
X119969761Y-35743842D02*
X119667380Y-36650984D01*
X119667380Y-36650984D02*
X120453571Y-36650984D01*
X120997857Y-37074318D02*
X121239761Y-37074318D01*
X121239761Y-37074318D02*
X121360714Y-37013842D01*
X121360714Y-37013842D02*
X121421190Y-36953365D01*
X121421190Y-36953365D02*
X121542142Y-36771937D01*
X121542142Y-36771937D02*
X121602619Y-36530032D01*
X121602619Y-36530032D02*
X121602619Y-36046222D01*
X121602619Y-36046222D02*
X121542142Y-35925270D01*
X121542142Y-35925270D02*
X121481666Y-35864794D01*
X121481666Y-35864794D02*
X121360714Y-35804318D01*
X121360714Y-35804318D02*
X121118809Y-35804318D01*
X121118809Y-35804318D02*
X120997857Y-35864794D01*
X120997857Y-35864794D02*
X120937380Y-35925270D01*
X120937380Y-35925270D02*
X120876904Y-36046222D01*
X120876904Y-36046222D02*
X120876904Y-36348603D01*
X120876904Y-36348603D02*
X120937380Y-36469556D01*
X120937380Y-36469556D02*
X120997857Y-36530032D01*
X120997857Y-36530032D02*
X121118809Y-36590508D01*
X121118809Y-36590508D02*
X121360714Y-36590508D01*
X121360714Y-36590508D02*
X121481666Y-36530032D01*
X121481666Y-36530032D02*
X121542142Y-36469556D01*
X121542142Y-36469556D02*
X121602619Y-36348603D01*
D13*
X45559580Y-36119047D02*
X45607200Y-36166666D01*
X45607200Y-36166666D02*
X45654819Y-36309523D01*
X45654819Y-36309523D02*
X45654819Y-36404761D01*
X45654819Y-36404761D02*
X45607200Y-36547618D01*
X45607200Y-36547618D02*
X45511961Y-36642856D01*
X45511961Y-36642856D02*
X45416723Y-36690475D01*
X45416723Y-36690475D02*
X45226247Y-36738094D01*
X45226247Y-36738094D02*
X45083390Y-36738094D01*
X45083390Y-36738094D02*
X44892914Y-36690475D01*
X44892914Y-36690475D02*
X44797676Y-36642856D01*
X44797676Y-36642856D02*
X44702438Y-36547618D01*
X44702438Y-36547618D02*
X44654819Y-36404761D01*
X44654819Y-36404761D02*
X44654819Y-36309523D01*
X44654819Y-36309523D02*
X44702438Y-36166666D01*
X44702438Y-36166666D02*
X44750057Y-36119047D01*
X45654819Y-35166666D02*
X45654819Y-35738094D01*
X45654819Y-35452380D02*
X44654819Y-35452380D01*
X44654819Y-35452380D02*
X44797676Y-35547618D01*
X44797676Y-35547618D02*
X44892914Y-35642856D01*
X44892914Y-35642856D02*
X44940533Y-35738094D01*
X45083390Y-34595237D02*
X45035771Y-34690475D01*
X45035771Y-34690475D02*
X44988152Y-34738094D01*
X44988152Y-34738094D02*
X44892914Y-34785713D01*
X44892914Y-34785713D02*
X44845295Y-34785713D01*
X44845295Y-34785713D02*
X44750057Y-34738094D01*
X44750057Y-34738094D02*
X44702438Y-34690475D01*
X44702438Y-34690475D02*
X44654819Y-34595237D01*
X44654819Y-34595237D02*
X44654819Y-34404761D01*
X44654819Y-34404761D02*
X44702438Y-34309523D01*
X44702438Y-34309523D02*
X44750057Y-34261904D01*
X44750057Y-34261904D02*
X44845295Y-34214285D01*
X44845295Y-34214285D02*
X44892914Y-34214285D01*
X44892914Y-34214285D02*
X44988152Y-34261904D01*
X44988152Y-34261904D02*
X45035771Y-34309523D01*
X45035771Y-34309523D02*
X45083390Y-34404761D01*
X45083390Y-34404761D02*
X45083390Y-34595237D01*
X45083390Y-34595237D02*
X45131009Y-34690475D01*
X45131009Y-34690475D02*
X45178628Y-34738094D01*
X45178628Y-34738094D02*
X45273866Y-34785713D01*
X45273866Y-34785713D02*
X45464342Y-34785713D01*
X45464342Y-34785713D02*
X45559580Y-34738094D01*
X45559580Y-34738094D02*
X45607200Y-34690475D01*
X45607200Y-34690475D02*
X45654819Y-34595237D01*
X45654819Y-34595237D02*
X45654819Y-34404761D01*
X45654819Y-34404761D02*
X45607200Y-34309523D01*
X45607200Y-34309523D02*
X45559580Y-34261904D01*
X45559580Y-34261904D02*
X45464342Y-34214285D01*
X45464342Y-34214285D02*
X45273866Y-34214285D01*
X45273866Y-34214285D02*
X45178628Y-34261904D01*
X45178628Y-34261904D02*
X45131009Y-34309523D01*
X45131009Y-34309523D02*
X45083390Y-34404761D01*
X45083390Y-33642856D02*
X45035771Y-33738094D01*
X45035771Y-33738094D02*
X44988152Y-33785713D01*
X44988152Y-33785713D02*
X44892914Y-33833332D01*
X44892914Y-33833332D02*
X44845295Y-33833332D01*
X44845295Y-33833332D02*
X44750057Y-33785713D01*
X44750057Y-33785713D02*
X44702438Y-33738094D01*
X44702438Y-33738094D02*
X44654819Y-33642856D01*
X44654819Y-33642856D02*
X44654819Y-33452380D01*
X44654819Y-33452380D02*
X44702438Y-33357142D01*
X44702438Y-33357142D02*
X44750057Y-33309523D01*
X44750057Y-33309523D02*
X44845295Y-33261904D01*
X44845295Y-33261904D02*
X44892914Y-33261904D01*
X44892914Y-33261904D02*
X44988152Y-33309523D01*
X44988152Y-33309523D02*
X45035771Y-33357142D01*
X45035771Y-33357142D02*
X45083390Y-33452380D01*
X45083390Y-33452380D02*
X45083390Y-33642856D01*
X45083390Y-33642856D02*
X45131009Y-33738094D01*
X45131009Y-33738094D02*
X45178628Y-33785713D01*
X45178628Y-33785713D02*
X45273866Y-33833332D01*
X45273866Y-33833332D02*
X45464342Y-33833332D01*
X45464342Y-33833332D02*
X45559580Y-33785713D01*
X45559580Y-33785713D02*
X45607200Y-33738094D01*
X45607200Y-33738094D02*
X45654819Y-33642856D01*
X45654819Y-33642856D02*
X45654819Y-33452380D01*
X45654819Y-33452380D02*
X45607200Y-33357142D01*
X45607200Y-33357142D02*
X45559580Y-33309523D01*
X45559580Y-33309523D02*
X45464342Y-33261904D01*
X45464342Y-33261904D02*
X45273866Y-33261904D01*
X45273866Y-33261904D02*
X45178628Y-33309523D01*
X45178628Y-33309523D02*
X45131009Y-33357142D01*
X45131009Y-33357142D02*
X45083390Y-33452380D01*
X249738095Y-1454819D02*
X249738095Y-454819D01*
X249738095Y-931009D02*
X250309523Y-931009D01*
X250309523Y-1454819D02*
X250309523Y-454819D01*
X250690476Y-454819D02*
X251357142Y-454819D01*
X251357142Y-454819D02*
X250928571Y-1454819D01*
D14*
X62737618Y-14074318D02*
X62737618Y-12804318D01*
X63463333Y-14074318D02*
X62919047Y-13348603D01*
X63463333Y-12804318D02*
X62737618Y-13530032D01*
X64551904Y-13227651D02*
X64551904Y-14074318D01*
X64249523Y-12743842D02*
X63947142Y-13650984D01*
X63947142Y-13650984D02*
X64733333Y-13650984D01*
X194574318Y-6687381D02*
X193304318Y-6687381D01*
X193304318Y-6687381D02*
X193304318Y-6385000D01*
X193304318Y-6385000D02*
X193364794Y-6203571D01*
X193364794Y-6203571D02*
X193485746Y-6082619D01*
X193485746Y-6082619D02*
X193606699Y-6022142D01*
X193606699Y-6022142D02*
X193848603Y-5961666D01*
X193848603Y-5961666D02*
X194030032Y-5961666D01*
X194030032Y-5961666D02*
X194271937Y-6022142D01*
X194271937Y-6022142D02*
X194392889Y-6082619D01*
X194392889Y-6082619D02*
X194513842Y-6203571D01*
X194513842Y-6203571D02*
X194574318Y-6385000D01*
X194574318Y-6385000D02*
X194574318Y-6687381D01*
X193304318Y-5538333D02*
X193304318Y-4752142D01*
X193304318Y-4752142D02*
X193788127Y-5175476D01*
X193788127Y-5175476D02*
X193788127Y-4994047D01*
X193788127Y-4994047D02*
X193848603Y-4873095D01*
X193848603Y-4873095D02*
X193909080Y-4812619D01*
X193909080Y-4812619D02*
X194030032Y-4752142D01*
X194030032Y-4752142D02*
X194332413Y-4752142D01*
X194332413Y-4752142D02*
X194453365Y-4812619D01*
X194453365Y-4812619D02*
X194513842Y-4873095D01*
X194513842Y-4873095D02*
X194574318Y-4994047D01*
X194574318Y-4994047D02*
X194574318Y-5356904D01*
X194574318Y-5356904D02*
X194513842Y-5477857D01*
X194513842Y-5477857D02*
X194453365Y-5538333D01*
X12953365Y-18816428D02*
X13013842Y-18876904D01*
X13013842Y-18876904D02*
X13074318Y-19058333D01*
X13074318Y-19058333D02*
X13074318Y-19179285D01*
X13074318Y-19179285D02*
X13013842Y-19360714D01*
X13013842Y-19360714D02*
X12892889Y-19481666D01*
X12892889Y-19481666D02*
X12771937Y-19542143D01*
X12771937Y-19542143D02*
X12530032Y-19602619D01*
X12530032Y-19602619D02*
X12348603Y-19602619D01*
X12348603Y-19602619D02*
X12106699Y-19542143D01*
X12106699Y-19542143D02*
X11985746Y-19481666D01*
X11985746Y-19481666D02*
X11864794Y-19360714D01*
X11864794Y-19360714D02*
X11804318Y-19179285D01*
X11804318Y-19179285D02*
X11804318Y-19058333D01*
X11804318Y-19058333D02*
X11864794Y-18876904D01*
X11864794Y-18876904D02*
X11925270Y-18816428D01*
X12227651Y-17727857D02*
X13074318Y-17727857D01*
X11743842Y-18030238D02*
X12650984Y-18332619D01*
X12650984Y-18332619D02*
X12650984Y-17546428D01*
X11804318Y-16518333D02*
X11804318Y-16760238D01*
X11804318Y-16760238D02*
X11864794Y-16881190D01*
X11864794Y-16881190D02*
X11925270Y-16941666D01*
X11925270Y-16941666D02*
X12106699Y-17062619D01*
X12106699Y-17062619D02*
X12348603Y-17123095D01*
X12348603Y-17123095D02*
X12832413Y-17123095D01*
X12832413Y-17123095D02*
X12953365Y-17062619D01*
X12953365Y-17062619D02*
X13013842Y-17002142D01*
X13013842Y-17002142D02*
X13074318Y-16881190D01*
X13074318Y-16881190D02*
X13074318Y-16639285D01*
X13074318Y-16639285D02*
X13013842Y-16518333D01*
X13013842Y-16518333D02*
X12953365Y-16457857D01*
X12953365Y-16457857D02*
X12832413Y-16397380D01*
X12832413Y-16397380D02*
X12530032Y-16397380D01*
X12530032Y-16397380D02*
X12409080Y-16457857D01*
X12409080Y-16457857D02*
X12348603Y-16518333D01*
X12348603Y-16518333D02*
X12288127Y-16639285D01*
X12288127Y-16639285D02*
X12288127Y-16881190D01*
X12288127Y-16881190D02*
X12348603Y-17002142D01*
X12348603Y-17002142D02*
X12409080Y-17062619D01*
X12409080Y-17062619D02*
X12530032Y-17123095D01*
X129751667Y-33304318D02*
X129751667Y-34211461D01*
X129751667Y-34211461D02*
X129691190Y-34392889D01*
X129691190Y-34392889D02*
X129570238Y-34513842D01*
X129570238Y-34513842D02*
X129388809Y-34574318D01*
X129388809Y-34574318D02*
X129267857Y-34574318D01*
X130900714Y-33304318D02*
X130658809Y-33304318D01*
X130658809Y-33304318D02*
X130537857Y-33364794D01*
X130537857Y-33364794D02*
X130477381Y-33425270D01*
X130477381Y-33425270D02*
X130356428Y-33606699D01*
X130356428Y-33606699D02*
X130295952Y-33848603D01*
X130295952Y-33848603D02*
X130295952Y-34332413D01*
X130295952Y-34332413D02*
X130356428Y-34453365D01*
X130356428Y-34453365D02*
X130416905Y-34513842D01*
X130416905Y-34513842D02*
X130537857Y-34574318D01*
X130537857Y-34574318D02*
X130779762Y-34574318D01*
X130779762Y-34574318D02*
X130900714Y-34513842D01*
X130900714Y-34513842D02*
X130961190Y-34453365D01*
X130961190Y-34453365D02*
X131021667Y-34332413D01*
X131021667Y-34332413D02*
X131021667Y-34030032D01*
X131021667Y-34030032D02*
X130961190Y-33909080D01*
X130961190Y-33909080D02*
X130900714Y-33848603D01*
X130900714Y-33848603D02*
X130779762Y-33788127D01*
X130779762Y-33788127D02*
X130537857Y-33788127D01*
X130537857Y-33788127D02*
X130416905Y-33848603D01*
X130416905Y-33848603D02*
X130356428Y-33909080D01*
X130356428Y-33909080D02*
X130295952Y-34030032D01*
X22453365Y-18566428D02*
X22513842Y-18626904D01*
X22513842Y-18626904D02*
X22574318Y-18808333D01*
X22574318Y-18808333D02*
X22574318Y-18929285D01*
X22574318Y-18929285D02*
X22513842Y-19110714D01*
X22513842Y-19110714D02*
X22392889Y-19231666D01*
X22392889Y-19231666D02*
X22271937Y-19292143D01*
X22271937Y-19292143D02*
X22030032Y-19352619D01*
X22030032Y-19352619D02*
X21848603Y-19352619D01*
X21848603Y-19352619D02*
X21606699Y-19292143D01*
X21606699Y-19292143D02*
X21485746Y-19231666D01*
X21485746Y-19231666D02*
X21364794Y-19110714D01*
X21364794Y-19110714D02*
X21304318Y-18929285D01*
X21304318Y-18929285D02*
X21304318Y-18808333D01*
X21304318Y-18808333D02*
X21364794Y-18626904D01*
X21364794Y-18626904D02*
X21425270Y-18566428D01*
X21304318Y-17417381D02*
X21304318Y-18022143D01*
X21304318Y-18022143D02*
X21909080Y-18082619D01*
X21909080Y-18082619D02*
X21848603Y-18022143D01*
X21848603Y-18022143D02*
X21788127Y-17901190D01*
X21788127Y-17901190D02*
X21788127Y-17598809D01*
X21788127Y-17598809D02*
X21848603Y-17477857D01*
X21848603Y-17477857D02*
X21909080Y-17417381D01*
X21909080Y-17417381D02*
X22030032Y-17356904D01*
X22030032Y-17356904D02*
X22332413Y-17356904D01*
X22332413Y-17356904D02*
X22453365Y-17417381D01*
X22453365Y-17417381D02*
X22513842Y-17477857D01*
X22513842Y-17477857D02*
X22574318Y-17598809D01*
X22574318Y-17598809D02*
X22574318Y-17901190D01*
X22574318Y-17901190D02*
X22513842Y-18022143D01*
X22513842Y-18022143D02*
X22453365Y-18082619D01*
X22574318Y-16147380D02*
X22574318Y-16873095D01*
X22574318Y-16510238D02*
X21304318Y-16510238D01*
X21304318Y-16510238D02*
X21485746Y-16631190D01*
X21485746Y-16631190D02*
X21606699Y-16752142D01*
X21606699Y-16752142D02*
X21667175Y-16873095D01*
D13*
X51034819Y-42539523D02*
X51749104Y-42539523D01*
X51749104Y-42539523D02*
X51891961Y-42587142D01*
X51891961Y-42587142D02*
X51987200Y-42682380D01*
X51987200Y-42682380D02*
X52034819Y-42825237D01*
X52034819Y-42825237D02*
X52034819Y-42920475D01*
X52034819Y-41539523D02*
X52034819Y-42110951D01*
X52034819Y-41825237D02*
X51034819Y-41825237D01*
X51034819Y-41825237D02*
X51177676Y-41920475D01*
X51177676Y-41920475D02*
X51272914Y-42015713D01*
X51272914Y-42015713D02*
X51320533Y-42110951D01*
X51034819Y-41206189D02*
X51034819Y-40587142D01*
X51034819Y-40587142D02*
X51415771Y-40920475D01*
X51415771Y-40920475D02*
X51415771Y-40777618D01*
X51415771Y-40777618D02*
X51463390Y-40682380D01*
X51463390Y-40682380D02*
X51511009Y-40634761D01*
X51511009Y-40634761D02*
X51606247Y-40587142D01*
X51606247Y-40587142D02*
X51844342Y-40587142D01*
X51844342Y-40587142D02*
X51939580Y-40634761D01*
X51939580Y-40634761D02*
X51987200Y-40682380D01*
X51987200Y-40682380D02*
X52034819Y-40777618D01*
X52034819Y-40777618D02*
X52034819Y-41063332D01*
X52034819Y-41063332D02*
X51987200Y-41158570D01*
X51987200Y-41158570D02*
X51939580Y-41206189D01*
X145644819Y-42809523D02*
X146359104Y-42809523D01*
X146359104Y-42809523D02*
X146501961Y-42857142D01*
X146501961Y-42857142D02*
X146597200Y-42952380D01*
X146597200Y-42952380D02*
X146644819Y-43095237D01*
X146644819Y-43095237D02*
X146644819Y-43190475D01*
X146644819Y-41809523D02*
X146644819Y-42380951D01*
X146644819Y-42095237D02*
X145644819Y-42095237D01*
X145644819Y-42095237D02*
X145787676Y-42190475D01*
X145787676Y-42190475D02*
X145882914Y-42285713D01*
X145882914Y-42285713D02*
X145930533Y-42380951D01*
X145978152Y-40952380D02*
X146644819Y-40952380D01*
X145597200Y-41190475D02*
X146311485Y-41428570D01*
X146311485Y-41428570D02*
X146311485Y-40809523D01*
D14*
X44453365Y-39816428D02*
X44513842Y-39876904D01*
X44513842Y-39876904D02*
X44574318Y-40058333D01*
X44574318Y-40058333D02*
X44574318Y-40179285D01*
X44574318Y-40179285D02*
X44513842Y-40360714D01*
X44513842Y-40360714D02*
X44392889Y-40481666D01*
X44392889Y-40481666D02*
X44271937Y-40542143D01*
X44271937Y-40542143D02*
X44030032Y-40602619D01*
X44030032Y-40602619D02*
X43848603Y-40602619D01*
X43848603Y-40602619D02*
X43606699Y-40542143D01*
X43606699Y-40542143D02*
X43485746Y-40481666D01*
X43485746Y-40481666D02*
X43364794Y-40360714D01*
X43364794Y-40360714D02*
X43304318Y-40179285D01*
X43304318Y-40179285D02*
X43304318Y-40058333D01*
X43304318Y-40058333D02*
X43364794Y-39876904D01*
X43364794Y-39876904D02*
X43425270Y-39816428D01*
X43304318Y-39393095D02*
X43304318Y-38606904D01*
X43304318Y-38606904D02*
X43788127Y-39030238D01*
X43788127Y-39030238D02*
X43788127Y-38848809D01*
X43788127Y-38848809D02*
X43848603Y-38727857D01*
X43848603Y-38727857D02*
X43909080Y-38667381D01*
X43909080Y-38667381D02*
X44030032Y-38606904D01*
X44030032Y-38606904D02*
X44332413Y-38606904D01*
X44332413Y-38606904D02*
X44453365Y-38667381D01*
X44453365Y-38667381D02*
X44513842Y-38727857D01*
X44513842Y-38727857D02*
X44574318Y-38848809D01*
X44574318Y-38848809D02*
X44574318Y-39211666D01*
X44574318Y-39211666D02*
X44513842Y-39332619D01*
X44513842Y-39332619D02*
X44453365Y-39393095D01*
X43304318Y-37518333D02*
X43304318Y-37760238D01*
X43304318Y-37760238D02*
X43364794Y-37881190D01*
X43364794Y-37881190D02*
X43425270Y-37941666D01*
X43425270Y-37941666D02*
X43606699Y-38062619D01*
X43606699Y-38062619D02*
X43848603Y-38123095D01*
X43848603Y-38123095D02*
X44332413Y-38123095D01*
X44332413Y-38123095D02*
X44453365Y-38062619D01*
X44453365Y-38062619D02*
X44513842Y-38002142D01*
X44513842Y-38002142D02*
X44574318Y-37881190D01*
X44574318Y-37881190D02*
X44574318Y-37639285D01*
X44574318Y-37639285D02*
X44513842Y-37518333D01*
X44513842Y-37518333D02*
X44453365Y-37457857D01*
X44453365Y-37457857D02*
X44332413Y-37397380D01*
X44332413Y-37397380D02*
X44030032Y-37397380D01*
X44030032Y-37397380D02*
X43909080Y-37457857D01*
X43909080Y-37457857D02*
X43848603Y-37518333D01*
X43848603Y-37518333D02*
X43788127Y-37639285D01*
X43788127Y-37639285D02*
X43788127Y-37881190D01*
X43788127Y-37881190D02*
X43848603Y-38002142D01*
X43848603Y-38002142D02*
X43909080Y-38062619D01*
X43909080Y-38062619D02*
X44030032Y-38123095D01*
D13*
X51034819Y-5039523D02*
X51749104Y-5039523D01*
X51749104Y-5039523D02*
X51891961Y-5087142D01*
X51891961Y-5087142D02*
X51987200Y-5182380D01*
X51987200Y-5182380D02*
X52034819Y-5325237D01*
X52034819Y-5325237D02*
X52034819Y-5420475D01*
X52034819Y-4039523D02*
X52034819Y-4610951D01*
X52034819Y-4325237D02*
X51034819Y-4325237D01*
X51034819Y-4325237D02*
X51177676Y-4420475D01*
X51177676Y-4420475D02*
X51272914Y-4515713D01*
X51272914Y-4515713D02*
X51320533Y-4610951D01*
X51034819Y-3420475D02*
X51034819Y-3325237D01*
X51034819Y-3325237D02*
X51082438Y-3229999D01*
X51082438Y-3229999D02*
X51130057Y-3182380D01*
X51130057Y-3182380D02*
X51225295Y-3134761D01*
X51225295Y-3134761D02*
X51415771Y-3087142D01*
X51415771Y-3087142D02*
X51653866Y-3087142D01*
X51653866Y-3087142D02*
X51844342Y-3134761D01*
X51844342Y-3134761D02*
X51939580Y-3182380D01*
X51939580Y-3182380D02*
X51987200Y-3229999D01*
X51987200Y-3229999D02*
X52034819Y-3325237D01*
X52034819Y-3325237D02*
X52034819Y-3420475D01*
X52034819Y-3420475D02*
X51987200Y-3515713D01*
X51987200Y-3515713D02*
X51939580Y-3563332D01*
X51939580Y-3563332D02*
X51844342Y-3610951D01*
X51844342Y-3610951D02*
X51653866Y-3658570D01*
X51653866Y-3658570D02*
X51415771Y-3658570D01*
X51415771Y-3658570D02*
X51225295Y-3610951D01*
X51225295Y-3610951D02*
X51130057Y-3563332D01*
X51130057Y-3563332D02*
X51082438Y-3515713D01*
X51082438Y-3515713D02*
X51034819Y-3420475D01*
X255185476Y-10684819D02*
X255185476Y-11399104D01*
X255185476Y-11399104D02*
X255137857Y-11541961D01*
X255137857Y-11541961D02*
X255042619Y-11637200D01*
X255042619Y-11637200D02*
X254899762Y-11684819D01*
X254899762Y-11684819D02*
X254804524Y-11684819D01*
X256185476Y-11684819D02*
X255614048Y-11684819D01*
X255899762Y-11684819D02*
X255899762Y-10684819D01*
X255899762Y-10684819D02*
X255804524Y-10827676D01*
X255804524Y-10827676D02*
X255709286Y-10922914D01*
X255709286Y-10922914D02*
X255614048Y-10970533D01*
X256566429Y-10780057D02*
X256614048Y-10732438D01*
X256614048Y-10732438D02*
X256709286Y-10684819D01*
X256709286Y-10684819D02*
X256947381Y-10684819D01*
X256947381Y-10684819D02*
X257042619Y-10732438D01*
X257042619Y-10732438D02*
X257090238Y-10780057D01*
X257090238Y-10780057D02*
X257137857Y-10875295D01*
X257137857Y-10875295D02*
X257137857Y-10970533D01*
X257137857Y-10970533D02*
X257090238Y-11113390D01*
X257090238Y-11113390D02*
X256518810Y-11684819D01*
X256518810Y-11684819D02*
X257137857Y-11684819D01*
D14*
X195670220Y-15542143D02*
X194400220Y-15542143D01*
X194400220Y-15542143D02*
X194400220Y-15058333D01*
X194400220Y-15058333D02*
X194460696Y-14937381D01*
X194460696Y-14937381D02*
X194521172Y-14876904D01*
X194521172Y-14876904D02*
X194642124Y-14816428D01*
X194642124Y-14816428D02*
X194823553Y-14816428D01*
X194823553Y-14816428D02*
X194944505Y-14876904D01*
X194944505Y-14876904D02*
X195004982Y-14937381D01*
X195004982Y-14937381D02*
X195065458Y-15058333D01*
X195065458Y-15058333D02*
X195065458Y-15542143D01*
X195609744Y-14332619D02*
X195670220Y-14151190D01*
X195670220Y-14151190D02*
X195670220Y-13848809D01*
X195670220Y-13848809D02*
X195609744Y-13727857D01*
X195609744Y-13727857D02*
X195549267Y-13667381D01*
X195549267Y-13667381D02*
X195428315Y-13606904D01*
X195428315Y-13606904D02*
X195307363Y-13606904D01*
X195307363Y-13606904D02*
X195186410Y-13667381D01*
X195186410Y-13667381D02*
X195125934Y-13727857D01*
X195125934Y-13727857D02*
X195065458Y-13848809D01*
X195065458Y-13848809D02*
X195004982Y-14090714D01*
X195004982Y-14090714D02*
X194944505Y-14211666D01*
X194944505Y-14211666D02*
X194884029Y-14272143D01*
X194884029Y-14272143D02*
X194763077Y-14332619D01*
X194763077Y-14332619D02*
X194642124Y-14332619D01*
X194642124Y-14332619D02*
X194521172Y-14272143D01*
X194521172Y-14272143D02*
X194460696Y-14211666D01*
X194460696Y-14211666D02*
X194400220Y-14090714D01*
X194400220Y-14090714D02*
X194400220Y-13788333D01*
X194400220Y-13788333D02*
X194460696Y-13606904D01*
X194400220Y-13183571D02*
X194400220Y-12397380D01*
X194400220Y-12397380D02*
X194884029Y-12820714D01*
X194884029Y-12820714D02*
X194884029Y-12639285D01*
X194884029Y-12639285D02*
X194944505Y-12518333D01*
X194944505Y-12518333D02*
X195004982Y-12457857D01*
X195004982Y-12457857D02*
X195125934Y-12397380D01*
X195125934Y-12397380D02*
X195428315Y-12397380D01*
X195428315Y-12397380D02*
X195549267Y-12457857D01*
X195549267Y-12457857D02*
X195609744Y-12518333D01*
X195609744Y-12518333D02*
X195670220Y-12639285D01*
X195670220Y-12639285D02*
X195670220Y-13002142D01*
X195670220Y-13002142D02*
X195609744Y-13123095D01*
X195609744Y-13123095D02*
X195549267Y-13183571D01*
D13*
X183238095Y-1454819D02*
X183238095Y-454819D01*
X183238095Y-931009D02*
X183809523Y-931009D01*
X183809523Y-1454819D02*
X183809523Y-454819D01*
X184761904Y-454819D02*
X184285714Y-454819D01*
X184285714Y-454819D02*
X184238095Y-931009D01*
X184238095Y-931009D02*
X184285714Y-883390D01*
X184285714Y-883390D02*
X184380952Y-835771D01*
X184380952Y-835771D02*
X184619047Y-835771D01*
X184619047Y-835771D02*
X184714285Y-883390D01*
X184714285Y-883390D02*
X184761904Y-931009D01*
X184761904Y-931009D02*
X184809523Y-1026247D01*
X184809523Y-1026247D02*
X184809523Y-1264342D01*
X184809523Y-1264342D02*
X184761904Y-1359580D01*
X184761904Y-1359580D02*
X184714285Y-1407200D01*
X184714285Y-1407200D02*
X184619047Y-1454819D01*
X184619047Y-1454819D02*
X184380952Y-1454819D01*
X184380952Y-1454819D02*
X184285714Y-1407200D01*
X184285714Y-1407200D02*
X184238095Y-1359580D01*
D14*
X108833571Y-36953365D02*
X108773095Y-37013842D01*
X108773095Y-37013842D02*
X108591666Y-37074318D01*
X108591666Y-37074318D02*
X108470714Y-37074318D01*
X108470714Y-37074318D02*
X108289285Y-37013842D01*
X108289285Y-37013842D02*
X108168333Y-36892889D01*
X108168333Y-36892889D02*
X108107856Y-36771937D01*
X108107856Y-36771937D02*
X108047380Y-36530032D01*
X108047380Y-36530032D02*
X108047380Y-36348603D01*
X108047380Y-36348603D02*
X108107856Y-36106699D01*
X108107856Y-36106699D02*
X108168333Y-35985746D01*
X108168333Y-35985746D02*
X108289285Y-35864794D01*
X108289285Y-35864794D02*
X108470714Y-35804318D01*
X108470714Y-35804318D02*
X108591666Y-35804318D01*
X108591666Y-35804318D02*
X108773095Y-35864794D01*
X108773095Y-35864794D02*
X108833571Y-35925270D01*
X109922142Y-36227651D02*
X109922142Y-37074318D01*
X109619761Y-35743842D02*
X109317380Y-36650984D01*
X109317380Y-36650984D02*
X110103571Y-36650984D01*
X111131666Y-36227651D02*
X111131666Y-37074318D01*
X110829285Y-35743842D02*
X110526904Y-36650984D01*
X110526904Y-36650984D02*
X111313095Y-36650984D01*
X51074318Y-36344524D02*
X49804318Y-36344524D01*
X50953365Y-35014047D02*
X51013842Y-35074523D01*
X51013842Y-35074523D02*
X51074318Y-35255952D01*
X51074318Y-35255952D02*
X51074318Y-35376904D01*
X51074318Y-35376904D02*
X51013842Y-35558333D01*
X51013842Y-35558333D02*
X50892889Y-35679285D01*
X50892889Y-35679285D02*
X50771937Y-35739762D01*
X50771937Y-35739762D02*
X50530032Y-35800238D01*
X50530032Y-35800238D02*
X50348603Y-35800238D01*
X50348603Y-35800238D02*
X50106699Y-35739762D01*
X50106699Y-35739762D02*
X49985746Y-35679285D01*
X49985746Y-35679285D02*
X49864794Y-35558333D01*
X49864794Y-35558333D02*
X49804318Y-35376904D01*
X49804318Y-35376904D02*
X49804318Y-35255952D01*
X49804318Y-35255952D02*
X49864794Y-35074523D01*
X49864794Y-35074523D02*
X49925270Y-35014047D01*
X51074318Y-33804523D02*
X51074318Y-34530238D01*
X51074318Y-34167381D02*
X49804318Y-34167381D01*
X49804318Y-34167381D02*
X49985746Y-34288333D01*
X49985746Y-34288333D02*
X50106699Y-34409285D01*
X50106699Y-34409285D02*
X50167175Y-34530238D01*
X51074318Y-32594999D02*
X51074318Y-33320714D01*
X51074318Y-32957857D02*
X49804318Y-32957857D01*
X49804318Y-32957857D02*
X49985746Y-33078809D01*
X49985746Y-33078809D02*
X50106699Y-33199761D01*
X50106699Y-33199761D02*
X50167175Y-33320714D01*
X98683571Y-36953365D02*
X98623095Y-37013842D01*
X98623095Y-37013842D02*
X98441666Y-37074318D01*
X98441666Y-37074318D02*
X98320714Y-37074318D01*
X98320714Y-37074318D02*
X98139285Y-37013842D01*
X98139285Y-37013842D02*
X98018333Y-36892889D01*
X98018333Y-36892889D02*
X97957856Y-36771937D01*
X97957856Y-36771937D02*
X97897380Y-36530032D01*
X97897380Y-36530032D02*
X97897380Y-36348603D01*
X97897380Y-36348603D02*
X97957856Y-36106699D01*
X97957856Y-36106699D02*
X98018333Y-35985746D01*
X98018333Y-35985746D02*
X98139285Y-35864794D01*
X98139285Y-35864794D02*
X98320714Y-35804318D01*
X98320714Y-35804318D02*
X98441666Y-35804318D01*
X98441666Y-35804318D02*
X98623095Y-35864794D01*
X98623095Y-35864794D02*
X98683571Y-35925270D01*
X99772142Y-36227651D02*
X99772142Y-37074318D01*
X99469761Y-35743842D02*
X99167380Y-36650984D01*
X99167380Y-36650984D02*
X99953571Y-36650984D01*
X101042142Y-35804318D02*
X100437380Y-35804318D01*
X100437380Y-35804318D02*
X100376904Y-36409080D01*
X100376904Y-36409080D02*
X100437380Y-36348603D01*
X100437380Y-36348603D02*
X100558333Y-36288127D01*
X100558333Y-36288127D02*
X100860714Y-36288127D01*
X100860714Y-36288127D02*
X100981666Y-36348603D01*
X100981666Y-36348603D02*
X101042142Y-36409080D01*
X101042142Y-36409080D02*
X101102619Y-36530032D01*
X101102619Y-36530032D02*
X101102619Y-36832413D01*
X101102619Y-36832413D02*
X101042142Y-36953365D01*
X101042142Y-36953365D02*
X100981666Y-37013842D01*
X100981666Y-37013842D02*
X100860714Y-37074318D01*
X100860714Y-37074318D02*
X100558333Y-37074318D01*
X100558333Y-37074318D02*
X100437380Y-37013842D01*
X100437380Y-37013842D02*
X100376904Y-36953365D01*
D13*
X738095Y-34954819D02*
X738095Y-33954819D01*
X738095Y-34431009D02*
X1309523Y-34431009D01*
X1309523Y-34954819D02*
X1309523Y-33954819D01*
X1738095Y-34050057D02*
X1785714Y-34002438D01*
X1785714Y-34002438D02*
X1880952Y-33954819D01*
X1880952Y-33954819D02*
X2119047Y-33954819D01*
X2119047Y-33954819D02*
X2214285Y-34002438D01*
X2214285Y-34002438D02*
X2261904Y-34050057D01*
X2261904Y-34050057D02*
X2309523Y-34145295D01*
X2309523Y-34145295D02*
X2309523Y-34240533D01*
X2309523Y-34240533D02*
X2261904Y-34383390D01*
X2261904Y-34383390D02*
X1690476Y-34954819D01*
X1690476Y-34954819D02*
X2309523Y-34954819D01*
D14*
X182887618Y-31324318D02*
X182887618Y-30054318D01*
X183613333Y-31324318D02*
X183069047Y-30598603D01*
X183613333Y-30054318D02*
X182887618Y-30780032D01*
X184822857Y-31324318D02*
X184097142Y-31324318D01*
X184459999Y-31324318D02*
X184459999Y-30054318D01*
X184459999Y-30054318D02*
X184339047Y-30235746D01*
X184339047Y-30235746D02*
X184218095Y-30356699D01*
X184218095Y-30356699D02*
X184097142Y-30417175D01*
D13*
X9738095Y-1954819D02*
X9738095Y-954819D01*
X9738095Y-1431009D02*
X10309523Y-1431009D01*
X10309523Y-1954819D02*
X10309523Y-954819D01*
X11309523Y-1954819D02*
X10738095Y-1954819D01*
X11023809Y-1954819D02*
X11023809Y-954819D01*
X11023809Y-954819D02*
X10928571Y-1097676D01*
X10928571Y-1097676D02*
X10833333Y-1192914D01*
X10833333Y-1192914D02*
X10738095Y-1240533D01*
D14*
X139833571Y-36953365D02*
X139773095Y-37013842D01*
X139773095Y-37013842D02*
X139591666Y-37074318D01*
X139591666Y-37074318D02*
X139470714Y-37074318D01*
X139470714Y-37074318D02*
X139289285Y-37013842D01*
X139289285Y-37013842D02*
X139168333Y-36892889D01*
X139168333Y-36892889D02*
X139107856Y-36771937D01*
X139107856Y-36771937D02*
X139047380Y-36530032D01*
X139047380Y-36530032D02*
X139047380Y-36348603D01*
X139047380Y-36348603D02*
X139107856Y-36106699D01*
X139107856Y-36106699D02*
X139168333Y-35985746D01*
X139168333Y-35985746D02*
X139289285Y-35864794D01*
X139289285Y-35864794D02*
X139470714Y-35804318D01*
X139470714Y-35804318D02*
X139591666Y-35804318D01*
X139591666Y-35804318D02*
X139773095Y-35864794D01*
X139773095Y-35864794D02*
X139833571Y-35925270D01*
X140922142Y-36227651D02*
X140922142Y-37074318D01*
X140619761Y-35743842D02*
X140317380Y-36650984D01*
X140317380Y-36650984D02*
X141103571Y-36650984D01*
X141466428Y-35804318D02*
X142252619Y-35804318D01*
X142252619Y-35804318D02*
X141829285Y-36288127D01*
X141829285Y-36288127D02*
X142010714Y-36288127D01*
X142010714Y-36288127D02*
X142131666Y-36348603D01*
X142131666Y-36348603D02*
X142192142Y-36409080D01*
X142192142Y-36409080D02*
X142252619Y-36530032D01*
X142252619Y-36530032D02*
X142252619Y-36832413D01*
X142252619Y-36832413D02*
X142192142Y-36953365D01*
X142192142Y-36953365D02*
X142131666Y-37013842D01*
X142131666Y-37013842D02*
X142010714Y-37074318D01*
X142010714Y-37074318D02*
X141647857Y-37074318D01*
X141647857Y-37074318D02*
X141526904Y-37013842D01*
X141526904Y-37013842D02*
X141466428Y-36953365D01*
X40737618Y-14074318D02*
X40737618Y-12804318D01*
X41463333Y-14074318D02*
X40919047Y-13348603D01*
X41463333Y-12804318D02*
X40737618Y-13530032D01*
X41886666Y-12804318D02*
X42672857Y-12804318D01*
X42672857Y-12804318D02*
X42249523Y-13288127D01*
X42249523Y-13288127D02*
X42430952Y-13288127D01*
X42430952Y-13288127D02*
X42551904Y-13348603D01*
X42551904Y-13348603D02*
X42612380Y-13409080D01*
X42612380Y-13409080D02*
X42672857Y-13530032D01*
X42672857Y-13530032D02*
X42672857Y-13832413D01*
X42672857Y-13832413D02*
X42612380Y-13953365D01*
X42612380Y-13953365D02*
X42551904Y-14013842D01*
X42551904Y-14013842D02*
X42430952Y-14074318D01*
X42430952Y-14074318D02*
X42068095Y-14074318D01*
X42068095Y-14074318D02*
X41947142Y-14013842D01*
X41947142Y-14013842D02*
X41886666Y-13953365D01*
D13*
X84238095Y-34204819D02*
X84238095Y-33204819D01*
X84238095Y-33681009D02*
X84809523Y-33681009D01*
X84809523Y-34204819D02*
X84809523Y-33204819D01*
X85714285Y-33538152D02*
X85714285Y-34204819D01*
X85476190Y-33157200D02*
X85238095Y-33871485D01*
X85238095Y-33871485D02*
X85857142Y-33871485D01*
%TO.C,C39*%
D15*
X23200000Y-26700000D02*
X23200000Y-31650000D01*
X29800000Y-23950000D02*
X29800000Y-31650000D01*
%TO.C,IC10*%
X198500000Y-31300000D02*
X199500000Y-31300000D01*
X199850000Y-31500000D02*
X200150000Y-31500000D01*
X199850000Y-33500000D02*
X199850000Y-31500000D01*
X200150000Y-31500000D02*
X200150000Y-33500000D01*
X200150000Y-33500000D02*
X199850000Y-33500000D01*
%TO.C,C189*%
D16*
X244140000Y-31273752D02*
X244140000Y-29851248D01*
X246860000Y-31273752D02*
X246860000Y-29851248D01*
%TO.C,K2*%
D15*
X211725000Y-28800000D02*
X211725000Y-44200000D01*
X211725000Y-44200000D02*
X230725000Y-44200000D01*
X230725000Y-28800000D02*
X211725000Y-28800000D01*
X230725000Y-44200000D02*
X230725000Y-28800000D01*
D11*
X231225000Y-30500000D02*
X231225000Y-30500000D01*
X231325000Y-30500000D02*
X231325000Y-30500000D01*
X231225000Y-30500000D02*
G75*
G02*
X231325000Y-30500000I50000J0D01*
G01*
X231325000Y-30500000D02*
G75*
G02*
X231225000Y-30500000I-50000J0D01*
G01*
%TO.C,C37*%
D15*
X27200000Y-37350000D02*
X27200000Y-42300000D01*
X33800000Y-34600000D02*
X33800000Y-42300000D01*
%TO.C,C50*%
X23200000Y-16100000D02*
X23200000Y-21050000D01*
X29800000Y-13350000D02*
X29800000Y-21050000D01*
%TO.C,C40*%
X14000000Y-26700000D02*
X14000000Y-31650000D01*
X20600000Y-23950000D02*
X20600000Y-31650000D01*
%TO.C,C47*%
X235100000Y-37200000D02*
X242800000Y-37200000D01*
X237850000Y-43800000D02*
X242800000Y-43800000D01*
%TO.C,J2*%
D16*
X245120000Y-38345000D02*
X246500000Y-38345000D01*
X245120000Y-39725000D02*
X245120000Y-38345000D01*
X245120000Y-40995000D02*
X245120000Y-43645000D01*
X245120000Y-40995000D02*
X247880000Y-40995000D01*
X245120000Y-43645000D02*
X247880000Y-43645000D01*
X247880000Y-40995000D02*
X247880000Y-43645000D01*
%TO.C,C48*%
D15*
X126100000Y-37700000D02*
X133800000Y-37700000D01*
X128850000Y-44300000D02*
X133800000Y-44300000D01*
%TO.C,J7*%
D16*
X187730000Y-38345000D02*
X187730000Y-43645000D01*
X205620000Y-38345000D02*
X187730000Y-38345000D01*
X205620000Y-38345000D02*
X205620000Y-40995000D01*
X205620000Y-40995000D02*
X208270000Y-40995000D01*
X206890000Y-38345000D02*
X208270000Y-38345000D01*
X208270000Y-38345000D02*
X208270000Y-39725000D01*
X208270000Y-40995000D02*
X208270000Y-43645000D01*
X208270000Y-43645000D02*
X187730000Y-43645000D01*
%TO.C,C41*%
D15*
X4700000Y-26700000D02*
X4700000Y-31650000D01*
X11300000Y-23950000D02*
X11300000Y-31650000D01*
%TO.C,C42*%
X233100000Y-28700000D02*
X240800000Y-28700000D01*
X235850000Y-35300000D02*
X240800000Y-35300000D01*
%TO.C,C38*%
X18200000Y-37350000D02*
X18200000Y-42300000D01*
X24800000Y-34600000D02*
X24800000Y-42300000D01*
%TO.C,F1*%
D11*
X171000000Y-1300000D02*
X174000000Y-1300000D01*
X171000000Y-10700000D02*
X171000000Y-1300000D01*
X174000000Y-1300000D02*
X174000000Y-10700000D01*
X174000000Y-10700000D02*
X171000000Y-10700000D01*
%TO.C,C49*%
D15*
X115600000Y-37700000D02*
X123300000Y-37700000D01*
X118350000Y-44300000D02*
X123300000Y-44300000D01*
%TO.C,C188*%
D16*
X46140000Y-35711252D02*
X46140000Y-34288748D01*
X48860000Y-35711252D02*
X48860000Y-34288748D01*
%TO.C,K4*%
D11*
X53675000Y-29000000D02*
X53675000Y-29000000D01*
X53775000Y-29000000D02*
X53775000Y-29000000D01*
D15*
X54275000Y-15300000D02*
X54275000Y-30700000D01*
X54275000Y-30700000D02*
X73275000Y-30700000D01*
X73275000Y-15300000D02*
X54275000Y-15300000D01*
X73275000Y-30700000D02*
X73275000Y-15300000D01*
D11*
X53675000Y-29000000D02*
G75*
G02*
X53775000Y-29000000I50000J0D01*
G01*
X53775000Y-29000000D02*
G75*
G02*
X53675000Y-29000000I-50000J0D01*
G01*
%TO.C,D3*%
D15*
X187050000Y-1775000D02*
X187050000Y-9725000D01*
X192950000Y-9725000D02*
X192950000Y-1175000D01*
%TO.C,C46*%
X4700000Y-16350000D02*
X4700000Y-21300000D01*
X11300000Y-13600000D02*
X11300000Y-21300000D01*
%TO.C,J6*%
D17*
X91400000Y-13750000D02*
X91400000Y-13750000D01*
X91500000Y-13750000D02*
X91500000Y-13750000D01*
D11*
X92050000Y-700000D02*
X168950000Y-700000D01*
X92050000Y-32800000D02*
X92050000Y-700000D01*
X168950000Y-700000D02*
X168950000Y-32800000D01*
X168950000Y-32800000D02*
X92050000Y-32800000D01*
D17*
X91400000Y-13750000D02*
G75*
G02*
X91500000Y-13750000I50000J0D01*
G01*
X91500000Y-13750000D02*
G75*
G02*
X91400000Y-13750000I-50000J0D01*
G01*
%TO.C,C51*%
D15*
X14200000Y-16100000D02*
X14200000Y-21050000D01*
X20800000Y-13350000D02*
X20800000Y-21050000D01*
%TO.C,J13*%
D16*
X52580000Y-39080000D02*
X60420000Y-39080000D01*
X52580000Y-41730000D02*
X52580000Y-39080000D01*
X52580000Y-44380000D02*
X52580000Y-43000000D01*
X53960000Y-44380000D02*
X52580000Y-44380000D01*
X55230000Y-41730000D02*
X52580000Y-41730000D01*
X55230000Y-44380000D02*
X55230000Y-41730000D01*
X55230000Y-44380000D02*
X60420000Y-44380000D01*
X60420000Y-44380000D02*
X60420000Y-39080000D01*
%TO.C,J14*%
X147190000Y-43380000D02*
X147190000Y-42000000D01*
X148570000Y-43380000D02*
X147190000Y-43380000D01*
X149840000Y-40620000D02*
X172810000Y-40620000D01*
X149840000Y-43380000D02*
X149840000Y-40620000D01*
X149840000Y-43380000D02*
X172810000Y-43380000D01*
X172810000Y-43380000D02*
X172810000Y-40620000D01*
%TO.C,C36*%
D15*
X36200000Y-37350000D02*
X36200000Y-42300000D01*
X42800000Y-34600000D02*
X42800000Y-42300000D01*
%TO.C,J10*%
D16*
X52580000Y-1580000D02*
X60420000Y-1580000D01*
X52580000Y-4230000D02*
X52580000Y-1580000D01*
X52580000Y-6880000D02*
X52580000Y-5500000D01*
X53960000Y-6880000D02*
X52580000Y-6880000D01*
X55230000Y-4230000D02*
X52580000Y-4230000D01*
X55230000Y-6880000D02*
X55230000Y-4230000D01*
X55230000Y-6880000D02*
X60420000Y-6880000D01*
X60420000Y-6880000D02*
X60420000Y-1580000D01*
%TO.C,J12*%
X253345000Y-12230000D02*
X254725000Y-12230000D01*
X253345000Y-13610000D02*
X253345000Y-12230000D01*
X253345000Y-14880000D02*
X253345000Y-32770000D01*
X253345000Y-14880000D02*
X255995000Y-14880000D01*
X253345000Y-32770000D02*
X258645000Y-32770000D01*
X255995000Y-12230000D02*
X258645000Y-12230000D01*
X255995000Y-14880000D02*
X255995000Y-12230000D01*
X258645000Y-12230000D02*
X258645000Y-32770000D01*
%TO.C,PS3*%
D15*
X196295902Y-21640000D02*
X196295902Y-21640000D01*
X196395902Y-21640000D02*
X196395902Y-21640000D01*
X196395902Y-21640000D02*
X196395902Y-21640000D01*
D11*
X197015902Y-1300000D02*
X197015902Y-26700000D01*
X197015902Y-26700000D02*
X247815902Y-26700000D01*
X247815902Y-1300000D02*
X197015902Y-1300000D01*
X247815902Y-26700000D02*
X247815902Y-1300000D01*
D15*
X196295902Y-21840000D02*
G75*
G02*
X196395902Y-21640000I50000J100000D01*
G01*
X196295902Y-21840000D02*
G75*
G02*
X196395902Y-21640000I50000J100000D01*
G01*
X196395902Y-21840000D02*
G75*
G02*
X196295902Y-21640000I-50000J100000D01*
G01*
%TO.C,C44*%
X105250000Y-37700000D02*
X112950000Y-37700000D01*
X108000000Y-44300000D02*
X112950000Y-44300000D01*
%TO.C,IC11*%
X51800000Y-36000000D02*
X51800000Y-35000000D01*
X52000000Y-34350000D02*
X54000000Y-34350000D01*
X52000000Y-34650000D02*
X52000000Y-34350000D01*
X54000000Y-34350000D02*
X54000000Y-34650000D01*
X54000000Y-34650000D02*
X52000000Y-34650000D01*
%TO.C,C45*%
X95100000Y-37700000D02*
X102800000Y-37700000D01*
X97850000Y-44300000D02*
X102800000Y-44300000D01*
%TO.C,K1*%
X174225000Y-13550000D02*
X174225000Y-28950000D01*
X174225000Y-28950000D02*
X193225000Y-28950000D01*
X193225000Y-13550000D02*
X174225000Y-13550000D01*
X193225000Y-28950000D02*
X193225000Y-13550000D01*
D11*
X193725000Y-15250000D02*
X193725000Y-15250000D01*
X193825000Y-15250000D02*
X193825000Y-15250000D01*
X193725000Y-15250000D02*
G75*
G02*
X193825000Y-15250000I50000J0D01*
G01*
X193825000Y-15250000D02*
G75*
G02*
X193725000Y-15250000I-50000J0D01*
G01*
%TO.C,C43*%
D15*
X136250000Y-37700000D02*
X143950000Y-37700000D01*
X139000000Y-44300000D02*
X143950000Y-44300000D01*
%TO.C,K3*%
D11*
X31675000Y-29000000D02*
X31675000Y-29000000D01*
X31775000Y-29000000D02*
X31775000Y-29000000D01*
D15*
X32275000Y-15300000D02*
X32275000Y-30700000D01*
X32275000Y-30700000D02*
X51275000Y-30700000D01*
X51275000Y-15300000D02*
X32275000Y-15300000D01*
X51275000Y-30700000D02*
X51275000Y-15300000D01*
D11*
X31675000Y-29000000D02*
G75*
G02*
X31775000Y-29000000I50000J0D01*
G01*
X31775000Y-29000000D02*
G75*
G02*
X31675000Y-29000000I-50000J0D01*
G01*
%TD*%
D18*
%TO.C,K2*%
X227325000Y-30500000D03*
D19*
X215125000Y-30500000D03*
X215125000Y-42500000D03*
D20*
X227325000Y-42500000D03*
D19*
X229325000Y-36500000D03*
%TD*%
D21*
%TO.C,F1*%
X172500000Y-3450000D03*
X172500000Y-8550000D03*
%TD*%
D18*
%TO.C,K4*%
X57675000Y-29000000D03*
D19*
X69875000Y-29000000D03*
X69875000Y-17000000D03*
D20*
X57675000Y-17000000D03*
D19*
X55675000Y-23000000D03*
%TD*%
%TO.C,PS3*%
X199595902Y-21640000D03*
X199595902Y-16560000D03*
X245315902Y-24120000D03*
X245315902Y-3800000D03*
X245315902Y-13960000D03*
X199595902Y-6400000D03*
%TD*%
D18*
%TO.C,K1*%
X189825000Y-15250000D03*
D19*
X177625000Y-15250000D03*
X177625000Y-27250000D03*
D20*
X189825000Y-27250000D03*
D19*
X191825000Y-21250000D03*
%TD*%
D18*
%TO.C,K3*%
X35675000Y-29000000D03*
D19*
X47875000Y-29000000D03*
X47875000Y-17000000D03*
D20*
X35675000Y-17000000D03*
D19*
X33675000Y-23000000D03*
%TD*%
M02*
