%TF.GenerationSoftware,KiCad,Pcbnew,9.0.1*%
%TF.CreationDate,2026-02-07T15:36:32-08:00*%
%TF.ProjectId,MainBoard,4d61696e-426f-4617-9264-2e6b69636164,rev?*%
%TF.SameCoordinates,Original*%
%TF.FileFunction,Legend,Bot*%
%TF.FilePolarity,Positive*%
%FSLAX46Y46*%
G04 Gerber Fmt 4.6, Leading zero omitted, Abs format (unit mm)*
G04 Created by KiCad (PCBNEW 9.0.1) date 2026-02-07 15:36:32*
%MOMM*%
%LPD*%
G01*
G04 APERTURE LIST*
%ADD10C,0.250000*%
%ADD11C,0.150000*%
%ADD12C,0.254000*%
%ADD13C,0.120000*%
%ADD14C,0.200000*%
%ADD15C,0.100000*%
%ADD16R,2.550000X2.550000*%
%ADD17C,2.550000*%
G04 APERTURE END LIST*
D10*
X75402568Y-50254675D02*
X75402568Y-49254675D01*
X75402568Y-49254675D02*
X75640663Y-49254675D01*
X75640663Y-49254675D02*
X75783520Y-49302294D01*
X75783520Y-49302294D02*
X75878758Y-49397532D01*
X75878758Y-49397532D02*
X75926377Y-49492770D01*
X75926377Y-49492770D02*
X75973996Y-49683246D01*
X75973996Y-49683246D02*
X75973996Y-49826103D01*
X75973996Y-49826103D02*
X75926377Y-50016579D01*
X75926377Y-50016579D02*
X75878758Y-50111817D01*
X75878758Y-50111817D02*
X75783520Y-50207056D01*
X75783520Y-50207056D02*
X75640663Y-50254675D01*
X75640663Y-50254675D02*
X75402568Y-50254675D01*
X76402568Y-49730865D02*
X76735901Y-49730865D01*
X76878758Y-50254675D02*
X76402568Y-50254675D01*
X76402568Y-50254675D02*
X76402568Y-49254675D01*
X76402568Y-49254675D02*
X76878758Y-49254675D01*
X77259711Y-50207056D02*
X77402568Y-50254675D01*
X77402568Y-50254675D02*
X77640663Y-50254675D01*
X77640663Y-50254675D02*
X77735901Y-50207056D01*
X77735901Y-50207056D02*
X77783520Y-50159436D01*
X77783520Y-50159436D02*
X77831139Y-50064198D01*
X77831139Y-50064198D02*
X77831139Y-49968960D01*
X77831139Y-49968960D02*
X77783520Y-49873722D01*
X77783520Y-49873722D02*
X77735901Y-49826103D01*
X77735901Y-49826103D02*
X77640663Y-49778484D01*
X77640663Y-49778484D02*
X77450187Y-49730865D01*
X77450187Y-49730865D02*
X77354949Y-49683246D01*
X77354949Y-49683246D02*
X77307330Y-49635627D01*
X77307330Y-49635627D02*
X77259711Y-49540389D01*
X77259711Y-49540389D02*
X77259711Y-49445151D01*
X77259711Y-49445151D02*
X77307330Y-49349913D01*
X77307330Y-49349913D02*
X77354949Y-49302294D01*
X77354949Y-49302294D02*
X77450187Y-49254675D01*
X77450187Y-49254675D02*
X77688282Y-49254675D01*
X77688282Y-49254675D02*
X77831139Y-49302294D01*
X78259711Y-50254675D02*
X78259711Y-49254675D01*
X79259710Y-49302294D02*
X79164472Y-49254675D01*
X79164472Y-49254675D02*
X79021615Y-49254675D01*
X79021615Y-49254675D02*
X78878758Y-49302294D01*
X78878758Y-49302294D02*
X78783520Y-49397532D01*
X78783520Y-49397532D02*
X78735901Y-49492770D01*
X78735901Y-49492770D02*
X78688282Y-49683246D01*
X78688282Y-49683246D02*
X78688282Y-49826103D01*
X78688282Y-49826103D02*
X78735901Y-50016579D01*
X78735901Y-50016579D02*
X78783520Y-50111817D01*
X78783520Y-50111817D02*
X78878758Y-50207056D01*
X78878758Y-50207056D02*
X79021615Y-50254675D01*
X79021615Y-50254675D02*
X79116853Y-50254675D01*
X79116853Y-50254675D02*
X79259710Y-50207056D01*
X79259710Y-50207056D02*
X79307329Y-50159436D01*
X79307329Y-50159436D02*
X79307329Y-49826103D01*
X79307329Y-49826103D02*
X79116853Y-49826103D01*
X79735901Y-50254675D02*
X79735901Y-49254675D01*
X79735901Y-49254675D02*
X80307329Y-50254675D01*
X80307329Y-50254675D02*
X80307329Y-49254675D01*
X80783520Y-49730865D02*
X81116853Y-49730865D01*
X81259710Y-50254675D02*
X80783520Y-50254675D01*
X80783520Y-50254675D02*
X80783520Y-49254675D01*
X80783520Y-49254675D02*
X81259710Y-49254675D01*
X81688282Y-50254675D02*
X81688282Y-49254675D01*
X81688282Y-49254675D02*
X81926377Y-49254675D01*
X81926377Y-49254675D02*
X82069234Y-49302294D01*
X82069234Y-49302294D02*
X82164472Y-49397532D01*
X82164472Y-49397532D02*
X82212091Y-49492770D01*
X82212091Y-49492770D02*
X82259710Y-49683246D01*
X82259710Y-49683246D02*
X82259710Y-49826103D01*
X82259710Y-49826103D02*
X82212091Y-50016579D01*
X82212091Y-50016579D02*
X82164472Y-50111817D01*
X82164472Y-50111817D02*
X82069234Y-50207056D01*
X82069234Y-50207056D02*
X81926377Y-50254675D01*
X81926377Y-50254675D02*
X81688282Y-50254675D01*
X83783520Y-49730865D02*
X83926377Y-49778484D01*
X83926377Y-49778484D02*
X83973996Y-49826103D01*
X83973996Y-49826103D02*
X84021615Y-49921341D01*
X84021615Y-49921341D02*
X84021615Y-50064198D01*
X84021615Y-50064198D02*
X83973996Y-50159436D01*
X83973996Y-50159436D02*
X83926377Y-50207056D01*
X83926377Y-50207056D02*
X83831139Y-50254675D01*
X83831139Y-50254675D02*
X83450187Y-50254675D01*
X83450187Y-50254675D02*
X83450187Y-49254675D01*
X83450187Y-49254675D02*
X83783520Y-49254675D01*
X83783520Y-49254675D02*
X83878758Y-49302294D01*
X83878758Y-49302294D02*
X83926377Y-49349913D01*
X83926377Y-49349913D02*
X83973996Y-49445151D01*
X83973996Y-49445151D02*
X83973996Y-49540389D01*
X83973996Y-49540389D02*
X83926377Y-49635627D01*
X83926377Y-49635627D02*
X83878758Y-49683246D01*
X83878758Y-49683246D02*
X83783520Y-49730865D01*
X83783520Y-49730865D02*
X83450187Y-49730865D01*
X84640663Y-49778484D02*
X84640663Y-50254675D01*
X84307330Y-49254675D02*
X84640663Y-49778484D01*
X84640663Y-49778484D02*
X84973996Y-49254675D01*
X75259711Y-50864619D02*
X75831139Y-50864619D01*
X75545425Y-51864619D02*
X75545425Y-50864619D01*
X76164473Y-51864619D02*
X76164473Y-50864619D01*
X76164473Y-51340809D02*
X76735901Y-51340809D01*
X76735901Y-51864619D02*
X76735901Y-50864619D01*
X77402568Y-50864619D02*
X77593044Y-50864619D01*
X77593044Y-50864619D02*
X77688282Y-50912238D01*
X77688282Y-50912238D02*
X77783520Y-51007476D01*
X77783520Y-51007476D02*
X77831139Y-51197952D01*
X77831139Y-51197952D02*
X77831139Y-51531285D01*
X77831139Y-51531285D02*
X77783520Y-51721761D01*
X77783520Y-51721761D02*
X77688282Y-51817000D01*
X77688282Y-51817000D02*
X77593044Y-51864619D01*
X77593044Y-51864619D02*
X77402568Y-51864619D01*
X77402568Y-51864619D02*
X77307330Y-51817000D01*
X77307330Y-51817000D02*
X77212092Y-51721761D01*
X77212092Y-51721761D02*
X77164473Y-51531285D01*
X77164473Y-51531285D02*
X77164473Y-51197952D01*
X77164473Y-51197952D02*
X77212092Y-51007476D01*
X77212092Y-51007476D02*
X77307330Y-50912238D01*
X77307330Y-50912238D02*
X77402568Y-50864619D01*
X78259711Y-51864619D02*
X78259711Y-50864619D01*
X78259711Y-50864619D02*
X78593044Y-51578904D01*
X78593044Y-51578904D02*
X78926377Y-50864619D01*
X78926377Y-50864619D02*
X78926377Y-51864619D01*
X79354949Y-51578904D02*
X79831139Y-51578904D01*
X79259711Y-51864619D02*
X79593044Y-50864619D01*
X79593044Y-50864619D02*
X79926377Y-51864619D01*
X80212092Y-51817000D02*
X80354949Y-51864619D01*
X80354949Y-51864619D02*
X80593044Y-51864619D01*
X80593044Y-51864619D02*
X80688282Y-51817000D01*
X80688282Y-51817000D02*
X80735901Y-51769380D01*
X80735901Y-51769380D02*
X80783520Y-51674142D01*
X80783520Y-51674142D02*
X80783520Y-51578904D01*
X80783520Y-51578904D02*
X80735901Y-51483666D01*
X80735901Y-51483666D02*
X80688282Y-51436047D01*
X80688282Y-51436047D02*
X80593044Y-51388428D01*
X80593044Y-51388428D02*
X80402568Y-51340809D01*
X80402568Y-51340809D02*
X80307330Y-51293190D01*
X80307330Y-51293190D02*
X80259711Y-51245571D01*
X80259711Y-51245571D02*
X80212092Y-51150333D01*
X80212092Y-51150333D02*
X80212092Y-51055095D01*
X80212092Y-51055095D02*
X80259711Y-50959857D01*
X80259711Y-50959857D02*
X80307330Y-50912238D01*
X80307330Y-50912238D02*
X80402568Y-50864619D01*
X80402568Y-50864619D02*
X80640663Y-50864619D01*
X80640663Y-50864619D02*
X80783520Y-50912238D01*
X82450187Y-51864619D02*
X81973997Y-51864619D01*
X81973997Y-51864619D02*
X81973997Y-50864619D01*
X82783521Y-51864619D02*
X82783521Y-50864619D01*
X83212092Y-51578904D02*
X83688282Y-51578904D01*
X83116854Y-51864619D02*
X83450187Y-50864619D01*
X83450187Y-50864619D02*
X83783520Y-51864619D01*
X84307330Y-50864619D02*
X84497806Y-50864619D01*
X84497806Y-50864619D02*
X84593044Y-50912238D01*
X84593044Y-50912238D02*
X84688282Y-51007476D01*
X84688282Y-51007476D02*
X84735901Y-51197952D01*
X84735901Y-51197952D02*
X84735901Y-51531285D01*
X84735901Y-51531285D02*
X84688282Y-51721761D01*
X84688282Y-51721761D02*
X84593044Y-51817000D01*
X84593044Y-51817000D02*
X84497806Y-51864619D01*
X84497806Y-51864619D02*
X84307330Y-51864619D01*
X84307330Y-51864619D02*
X84212092Y-51817000D01*
X84212092Y-51817000D02*
X84116854Y-51721761D01*
X84116854Y-51721761D02*
X84069235Y-51531285D01*
X84069235Y-51531285D02*
X84069235Y-51197952D01*
X84069235Y-51197952D02*
X84116854Y-51007476D01*
X84116854Y-51007476D02*
X84212092Y-50912238D01*
X84212092Y-50912238D02*
X84307330Y-50864619D01*
D11*
X22642857Y-30174819D02*
X22976190Y-29698628D01*
X23214285Y-30174819D02*
X23214285Y-29174819D01*
X23214285Y-29174819D02*
X22833333Y-29174819D01*
X22833333Y-29174819D02*
X22738095Y-29222438D01*
X22738095Y-29222438D02*
X22690476Y-29270057D01*
X22690476Y-29270057D02*
X22642857Y-29365295D01*
X22642857Y-29365295D02*
X22642857Y-29508152D01*
X22642857Y-29508152D02*
X22690476Y-29603390D01*
X22690476Y-29603390D02*
X22738095Y-29651009D01*
X22738095Y-29651009D02*
X22833333Y-29698628D01*
X22833333Y-29698628D02*
X23214285Y-29698628D01*
X22166666Y-30174819D02*
X21976190Y-30174819D01*
X21976190Y-30174819D02*
X21880952Y-30127200D01*
X21880952Y-30127200D02*
X21833333Y-30079580D01*
X21833333Y-30079580D02*
X21738095Y-29936723D01*
X21738095Y-29936723D02*
X21690476Y-29746247D01*
X21690476Y-29746247D02*
X21690476Y-29365295D01*
X21690476Y-29365295D02*
X21738095Y-29270057D01*
X21738095Y-29270057D02*
X21785714Y-29222438D01*
X21785714Y-29222438D02*
X21880952Y-29174819D01*
X21880952Y-29174819D02*
X22071428Y-29174819D01*
X22071428Y-29174819D02*
X22166666Y-29222438D01*
X22166666Y-29222438D02*
X22214285Y-29270057D01*
X22214285Y-29270057D02*
X22261904Y-29365295D01*
X22261904Y-29365295D02*
X22261904Y-29603390D01*
X22261904Y-29603390D02*
X22214285Y-29698628D01*
X22214285Y-29698628D02*
X22166666Y-29746247D01*
X22166666Y-29746247D02*
X22071428Y-29793866D01*
X22071428Y-29793866D02*
X21880952Y-29793866D01*
X21880952Y-29793866D02*
X21785714Y-29746247D01*
X21785714Y-29746247D02*
X21738095Y-29698628D01*
X21738095Y-29698628D02*
X21690476Y-29603390D01*
X20738095Y-30174819D02*
X21309523Y-30174819D01*
X21023809Y-30174819D02*
X21023809Y-29174819D01*
X21023809Y-29174819D02*
X21119047Y-29317676D01*
X21119047Y-29317676D02*
X21214285Y-29412914D01*
X21214285Y-29412914D02*
X21309523Y-29460533D01*
X223934819Y-53146666D02*
X224649104Y-53146666D01*
X224649104Y-53146666D02*
X224791961Y-53099047D01*
X224791961Y-53099047D02*
X224887200Y-53003809D01*
X224887200Y-53003809D02*
X224934819Y-52860952D01*
X224934819Y-52860952D02*
X224934819Y-52765714D01*
X223934819Y-53527619D02*
X223934819Y-54146666D01*
X223934819Y-54146666D02*
X224315771Y-53813333D01*
X224315771Y-53813333D02*
X224315771Y-53956190D01*
X224315771Y-53956190D02*
X224363390Y-54051428D01*
X224363390Y-54051428D02*
X224411009Y-54099047D01*
X224411009Y-54099047D02*
X224506247Y-54146666D01*
X224506247Y-54146666D02*
X224744342Y-54146666D01*
X224744342Y-54146666D02*
X224839580Y-54099047D01*
X224839580Y-54099047D02*
X224887200Y-54051428D01*
X224887200Y-54051428D02*
X224934819Y-53956190D01*
X224934819Y-53956190D02*
X224934819Y-53670476D01*
X224934819Y-53670476D02*
X224887200Y-53575238D01*
X224887200Y-53575238D02*
X224839580Y-53527619D01*
X35624819Y-25357142D02*
X35148628Y-25023809D01*
X35624819Y-24785714D02*
X34624819Y-24785714D01*
X34624819Y-24785714D02*
X34624819Y-25166666D01*
X34624819Y-25166666D02*
X34672438Y-25261904D01*
X34672438Y-25261904D02*
X34720057Y-25309523D01*
X34720057Y-25309523D02*
X34815295Y-25357142D01*
X34815295Y-25357142D02*
X34958152Y-25357142D01*
X34958152Y-25357142D02*
X35053390Y-25309523D01*
X35053390Y-25309523D02*
X35101009Y-25261904D01*
X35101009Y-25261904D02*
X35148628Y-25166666D01*
X35148628Y-25166666D02*
X35148628Y-24785714D01*
X35053390Y-25928571D02*
X35005771Y-25833333D01*
X35005771Y-25833333D02*
X34958152Y-25785714D01*
X34958152Y-25785714D02*
X34862914Y-25738095D01*
X34862914Y-25738095D02*
X34815295Y-25738095D01*
X34815295Y-25738095D02*
X34720057Y-25785714D01*
X34720057Y-25785714D02*
X34672438Y-25833333D01*
X34672438Y-25833333D02*
X34624819Y-25928571D01*
X34624819Y-25928571D02*
X34624819Y-26119047D01*
X34624819Y-26119047D02*
X34672438Y-26214285D01*
X34672438Y-26214285D02*
X34720057Y-26261904D01*
X34720057Y-26261904D02*
X34815295Y-26309523D01*
X34815295Y-26309523D02*
X34862914Y-26309523D01*
X34862914Y-26309523D02*
X34958152Y-26261904D01*
X34958152Y-26261904D02*
X35005771Y-26214285D01*
X35005771Y-26214285D02*
X35053390Y-26119047D01*
X35053390Y-26119047D02*
X35053390Y-25928571D01*
X35053390Y-25928571D02*
X35101009Y-25833333D01*
X35101009Y-25833333D02*
X35148628Y-25785714D01*
X35148628Y-25785714D02*
X35243866Y-25738095D01*
X35243866Y-25738095D02*
X35434342Y-25738095D01*
X35434342Y-25738095D02*
X35529580Y-25785714D01*
X35529580Y-25785714D02*
X35577200Y-25833333D01*
X35577200Y-25833333D02*
X35624819Y-25928571D01*
X35624819Y-25928571D02*
X35624819Y-26119047D01*
X35624819Y-26119047D02*
X35577200Y-26214285D01*
X35577200Y-26214285D02*
X35529580Y-26261904D01*
X35529580Y-26261904D02*
X35434342Y-26309523D01*
X35434342Y-26309523D02*
X35243866Y-26309523D01*
X35243866Y-26309523D02*
X35148628Y-26261904D01*
X35148628Y-26261904D02*
X35101009Y-26214285D01*
X35101009Y-26214285D02*
X35053390Y-26119047D01*
X35624819Y-27261904D02*
X35624819Y-26690476D01*
X35624819Y-26976190D02*
X34624819Y-26976190D01*
X34624819Y-26976190D02*
X34767676Y-26880952D01*
X34767676Y-26880952D02*
X34862914Y-26785714D01*
X34862914Y-26785714D02*
X34910533Y-26690476D01*
X22642857Y-19174819D02*
X22976190Y-18698628D01*
X23214285Y-19174819D02*
X23214285Y-18174819D01*
X23214285Y-18174819D02*
X22833333Y-18174819D01*
X22833333Y-18174819D02*
X22738095Y-18222438D01*
X22738095Y-18222438D02*
X22690476Y-18270057D01*
X22690476Y-18270057D02*
X22642857Y-18365295D01*
X22642857Y-18365295D02*
X22642857Y-18508152D01*
X22642857Y-18508152D02*
X22690476Y-18603390D01*
X22690476Y-18603390D02*
X22738095Y-18651009D01*
X22738095Y-18651009D02*
X22833333Y-18698628D01*
X22833333Y-18698628D02*
X23214285Y-18698628D01*
X22309523Y-18174819D02*
X21642857Y-18174819D01*
X21642857Y-18174819D02*
X22071428Y-19174819D01*
X21214285Y-19174819D02*
X21023809Y-19174819D01*
X21023809Y-19174819D02*
X20928571Y-19127200D01*
X20928571Y-19127200D02*
X20880952Y-19079580D01*
X20880952Y-19079580D02*
X20785714Y-18936723D01*
X20785714Y-18936723D02*
X20738095Y-18746247D01*
X20738095Y-18746247D02*
X20738095Y-18365295D01*
X20738095Y-18365295D02*
X20785714Y-18270057D01*
X20785714Y-18270057D02*
X20833333Y-18222438D01*
X20833333Y-18222438D02*
X20928571Y-18174819D01*
X20928571Y-18174819D02*
X21119047Y-18174819D01*
X21119047Y-18174819D02*
X21214285Y-18222438D01*
X21214285Y-18222438D02*
X21261904Y-18270057D01*
X21261904Y-18270057D02*
X21309523Y-18365295D01*
X21309523Y-18365295D02*
X21309523Y-18603390D01*
X21309523Y-18603390D02*
X21261904Y-18698628D01*
X21261904Y-18698628D02*
X21214285Y-18746247D01*
X21214285Y-18746247D02*
X21119047Y-18793866D01*
X21119047Y-18793866D02*
X20928571Y-18793866D01*
X20928571Y-18793866D02*
X20833333Y-18746247D01*
X20833333Y-18746247D02*
X20785714Y-18698628D01*
X20785714Y-18698628D02*
X20738095Y-18603390D01*
X110669047Y-8954819D02*
X111002380Y-8478628D01*
X111240475Y-8954819D02*
X111240475Y-7954819D01*
X111240475Y-7954819D02*
X110859523Y-7954819D01*
X110859523Y-7954819D02*
X110764285Y-8002438D01*
X110764285Y-8002438D02*
X110716666Y-8050057D01*
X110716666Y-8050057D02*
X110669047Y-8145295D01*
X110669047Y-8145295D02*
X110669047Y-8288152D01*
X110669047Y-8288152D02*
X110716666Y-8383390D01*
X110716666Y-8383390D02*
X110764285Y-8431009D01*
X110764285Y-8431009D02*
X110859523Y-8478628D01*
X110859523Y-8478628D02*
X111240475Y-8478628D01*
X109716666Y-8954819D02*
X110288094Y-8954819D01*
X110002380Y-8954819D02*
X110002380Y-7954819D01*
X110002380Y-7954819D02*
X110097618Y-8097676D01*
X110097618Y-8097676D02*
X110192856Y-8192914D01*
X110192856Y-8192914D02*
X110288094Y-8240533D01*
X109097618Y-7954819D02*
X109002380Y-7954819D01*
X109002380Y-7954819D02*
X108907142Y-8002438D01*
X108907142Y-8002438D02*
X108859523Y-8050057D01*
X108859523Y-8050057D02*
X108811904Y-8145295D01*
X108811904Y-8145295D02*
X108764285Y-8335771D01*
X108764285Y-8335771D02*
X108764285Y-8573866D01*
X108764285Y-8573866D02*
X108811904Y-8764342D01*
X108811904Y-8764342D02*
X108859523Y-8859580D01*
X108859523Y-8859580D02*
X108907142Y-8907200D01*
X108907142Y-8907200D02*
X109002380Y-8954819D01*
X109002380Y-8954819D02*
X109097618Y-8954819D01*
X109097618Y-8954819D02*
X109192856Y-8907200D01*
X109192856Y-8907200D02*
X109240475Y-8859580D01*
X109240475Y-8859580D02*
X109288094Y-8764342D01*
X109288094Y-8764342D02*
X109335713Y-8573866D01*
X109335713Y-8573866D02*
X109335713Y-8335771D01*
X109335713Y-8335771D02*
X109288094Y-8145295D01*
X109288094Y-8145295D02*
X109240475Y-8050057D01*
X109240475Y-8050057D02*
X109192856Y-8002438D01*
X109192856Y-8002438D02*
X109097618Y-7954819D01*
X107907142Y-8288152D02*
X107907142Y-8954819D01*
X108145237Y-7907200D02*
X108383332Y-8621485D01*
X108383332Y-8621485D02*
X107764285Y-8621485D01*
X28092857Y-30174819D02*
X28426190Y-29698628D01*
X28664285Y-30174819D02*
X28664285Y-29174819D01*
X28664285Y-29174819D02*
X28283333Y-29174819D01*
X28283333Y-29174819D02*
X28188095Y-29222438D01*
X28188095Y-29222438D02*
X28140476Y-29270057D01*
X28140476Y-29270057D02*
X28092857Y-29365295D01*
X28092857Y-29365295D02*
X28092857Y-29508152D01*
X28092857Y-29508152D02*
X28140476Y-29603390D01*
X28140476Y-29603390D02*
X28188095Y-29651009D01*
X28188095Y-29651009D02*
X28283333Y-29698628D01*
X28283333Y-29698628D02*
X28664285Y-29698628D01*
X27616666Y-30174819D02*
X27426190Y-30174819D01*
X27426190Y-30174819D02*
X27330952Y-30127200D01*
X27330952Y-30127200D02*
X27283333Y-30079580D01*
X27283333Y-30079580D02*
X27188095Y-29936723D01*
X27188095Y-29936723D02*
X27140476Y-29746247D01*
X27140476Y-29746247D02*
X27140476Y-29365295D01*
X27140476Y-29365295D02*
X27188095Y-29270057D01*
X27188095Y-29270057D02*
X27235714Y-29222438D01*
X27235714Y-29222438D02*
X27330952Y-29174819D01*
X27330952Y-29174819D02*
X27521428Y-29174819D01*
X27521428Y-29174819D02*
X27616666Y-29222438D01*
X27616666Y-29222438D02*
X27664285Y-29270057D01*
X27664285Y-29270057D02*
X27711904Y-29365295D01*
X27711904Y-29365295D02*
X27711904Y-29603390D01*
X27711904Y-29603390D02*
X27664285Y-29698628D01*
X27664285Y-29698628D02*
X27616666Y-29746247D01*
X27616666Y-29746247D02*
X27521428Y-29793866D01*
X27521428Y-29793866D02*
X27330952Y-29793866D01*
X27330952Y-29793866D02*
X27235714Y-29746247D01*
X27235714Y-29746247D02*
X27188095Y-29698628D01*
X27188095Y-29698628D02*
X27140476Y-29603390D01*
X26521428Y-29174819D02*
X26426190Y-29174819D01*
X26426190Y-29174819D02*
X26330952Y-29222438D01*
X26330952Y-29222438D02*
X26283333Y-29270057D01*
X26283333Y-29270057D02*
X26235714Y-29365295D01*
X26235714Y-29365295D02*
X26188095Y-29555771D01*
X26188095Y-29555771D02*
X26188095Y-29793866D01*
X26188095Y-29793866D02*
X26235714Y-29984342D01*
X26235714Y-29984342D02*
X26283333Y-30079580D01*
X26283333Y-30079580D02*
X26330952Y-30127200D01*
X26330952Y-30127200D02*
X26426190Y-30174819D01*
X26426190Y-30174819D02*
X26521428Y-30174819D01*
X26521428Y-30174819D02*
X26616666Y-30127200D01*
X26616666Y-30127200D02*
X26664285Y-30079580D01*
X26664285Y-30079580D02*
X26711904Y-29984342D01*
X26711904Y-29984342D02*
X26759523Y-29793866D01*
X26759523Y-29793866D02*
X26759523Y-29555771D01*
X26759523Y-29555771D02*
X26711904Y-29365295D01*
X26711904Y-29365295D02*
X26664285Y-29270057D01*
X26664285Y-29270057D02*
X26616666Y-29222438D01*
X26616666Y-29222438D02*
X26521428Y-29174819D01*
X258119047Y-7659580D02*
X258166666Y-7707200D01*
X258166666Y-7707200D02*
X258309523Y-7754819D01*
X258309523Y-7754819D02*
X258404761Y-7754819D01*
X258404761Y-7754819D02*
X258547618Y-7707200D01*
X258547618Y-7707200D02*
X258642856Y-7611961D01*
X258642856Y-7611961D02*
X258690475Y-7516723D01*
X258690475Y-7516723D02*
X258738094Y-7326247D01*
X258738094Y-7326247D02*
X258738094Y-7183390D01*
X258738094Y-7183390D02*
X258690475Y-6992914D01*
X258690475Y-6992914D02*
X258642856Y-6897676D01*
X258642856Y-6897676D02*
X258547618Y-6802438D01*
X258547618Y-6802438D02*
X258404761Y-6754819D01*
X258404761Y-6754819D02*
X258309523Y-6754819D01*
X258309523Y-6754819D02*
X258166666Y-6802438D01*
X258166666Y-6802438D02*
X258119047Y-6850057D01*
X257166666Y-7754819D02*
X257738094Y-7754819D01*
X257452380Y-7754819D02*
X257452380Y-6754819D01*
X257452380Y-6754819D02*
X257547618Y-6897676D01*
X257547618Y-6897676D02*
X257642856Y-6992914D01*
X257642856Y-6992914D02*
X257738094Y-7040533D01*
X256833332Y-6754819D02*
X256214285Y-6754819D01*
X256214285Y-6754819D02*
X256547618Y-7135771D01*
X256547618Y-7135771D02*
X256404761Y-7135771D01*
X256404761Y-7135771D02*
X256309523Y-7183390D01*
X256309523Y-7183390D02*
X256261904Y-7231009D01*
X256261904Y-7231009D02*
X256214285Y-7326247D01*
X256214285Y-7326247D02*
X256214285Y-7564342D01*
X256214285Y-7564342D02*
X256261904Y-7659580D01*
X256261904Y-7659580D02*
X256309523Y-7707200D01*
X256309523Y-7707200D02*
X256404761Y-7754819D01*
X256404761Y-7754819D02*
X256690475Y-7754819D01*
X256690475Y-7754819D02*
X256785713Y-7707200D01*
X256785713Y-7707200D02*
X256833332Y-7659580D01*
X255357142Y-6754819D02*
X255547618Y-6754819D01*
X255547618Y-6754819D02*
X255642856Y-6802438D01*
X255642856Y-6802438D02*
X255690475Y-6850057D01*
X255690475Y-6850057D02*
X255785713Y-6992914D01*
X255785713Y-6992914D02*
X255833332Y-7183390D01*
X255833332Y-7183390D02*
X255833332Y-7564342D01*
X255833332Y-7564342D02*
X255785713Y-7659580D01*
X255785713Y-7659580D02*
X255738094Y-7707200D01*
X255738094Y-7707200D02*
X255642856Y-7754819D01*
X255642856Y-7754819D02*
X255452380Y-7754819D01*
X255452380Y-7754819D02*
X255357142Y-7707200D01*
X255357142Y-7707200D02*
X255309523Y-7659580D01*
X255309523Y-7659580D02*
X255261904Y-7564342D01*
X255261904Y-7564342D02*
X255261904Y-7326247D01*
X255261904Y-7326247D02*
X255309523Y-7231009D01*
X255309523Y-7231009D02*
X255357142Y-7183390D01*
X255357142Y-7183390D02*
X255452380Y-7135771D01*
X255452380Y-7135771D02*
X255642856Y-7135771D01*
X255642856Y-7135771D02*
X255738094Y-7183390D01*
X255738094Y-7183390D02*
X255785713Y-7231009D01*
X255785713Y-7231009D02*
X255833332Y-7326247D01*
X71159580Y-25468333D02*
X71207200Y-25420714D01*
X71207200Y-25420714D02*
X71254819Y-25277857D01*
X71254819Y-25277857D02*
X71254819Y-25182619D01*
X71254819Y-25182619D02*
X71207200Y-25039762D01*
X71207200Y-25039762D02*
X71111961Y-24944524D01*
X71111961Y-24944524D02*
X71016723Y-24896905D01*
X71016723Y-24896905D02*
X70826247Y-24849286D01*
X70826247Y-24849286D02*
X70683390Y-24849286D01*
X70683390Y-24849286D02*
X70492914Y-24896905D01*
X70492914Y-24896905D02*
X70397676Y-24944524D01*
X70397676Y-24944524D02*
X70302438Y-25039762D01*
X70302438Y-25039762D02*
X70254819Y-25182619D01*
X70254819Y-25182619D02*
X70254819Y-25277857D01*
X70254819Y-25277857D02*
X70302438Y-25420714D01*
X70302438Y-25420714D02*
X70350057Y-25468333D01*
X70588152Y-26325476D02*
X71254819Y-26325476D01*
X70207200Y-26087381D02*
X70921485Y-25849286D01*
X70921485Y-25849286D02*
X70921485Y-26468333D01*
X40059580Y-31430952D02*
X40107200Y-31383333D01*
X40107200Y-31383333D02*
X40154819Y-31240476D01*
X40154819Y-31240476D02*
X40154819Y-31145238D01*
X40154819Y-31145238D02*
X40107200Y-31002381D01*
X40107200Y-31002381D02*
X40011961Y-30907143D01*
X40011961Y-30907143D02*
X39916723Y-30859524D01*
X39916723Y-30859524D02*
X39726247Y-30811905D01*
X39726247Y-30811905D02*
X39583390Y-30811905D01*
X39583390Y-30811905D02*
X39392914Y-30859524D01*
X39392914Y-30859524D02*
X39297676Y-30907143D01*
X39297676Y-30907143D02*
X39202438Y-31002381D01*
X39202438Y-31002381D02*
X39154819Y-31145238D01*
X39154819Y-31145238D02*
X39154819Y-31240476D01*
X39154819Y-31240476D02*
X39202438Y-31383333D01*
X39202438Y-31383333D02*
X39250057Y-31430952D01*
X40154819Y-32383333D02*
X40154819Y-31811905D01*
X40154819Y-32097619D02*
X39154819Y-32097619D01*
X39154819Y-32097619D02*
X39297676Y-32002381D01*
X39297676Y-32002381D02*
X39392914Y-31907143D01*
X39392914Y-31907143D02*
X39440533Y-31811905D01*
X40154819Y-33335714D02*
X40154819Y-32764286D01*
X40154819Y-33050000D02*
X39154819Y-33050000D01*
X39154819Y-33050000D02*
X39297676Y-32954762D01*
X39297676Y-32954762D02*
X39392914Y-32859524D01*
X39392914Y-32859524D02*
X39440533Y-32764286D01*
X39154819Y-33954762D02*
X39154819Y-34050000D01*
X39154819Y-34050000D02*
X39202438Y-34145238D01*
X39202438Y-34145238D02*
X39250057Y-34192857D01*
X39250057Y-34192857D02*
X39345295Y-34240476D01*
X39345295Y-34240476D02*
X39535771Y-34288095D01*
X39535771Y-34288095D02*
X39773866Y-34288095D01*
X39773866Y-34288095D02*
X39964342Y-34240476D01*
X39964342Y-34240476D02*
X40059580Y-34192857D01*
X40059580Y-34192857D02*
X40107200Y-34145238D01*
X40107200Y-34145238D02*
X40154819Y-34050000D01*
X40154819Y-34050000D02*
X40154819Y-33954762D01*
X40154819Y-33954762D02*
X40107200Y-33859524D01*
X40107200Y-33859524D02*
X40059580Y-33811905D01*
X40059580Y-33811905D02*
X39964342Y-33764286D01*
X39964342Y-33764286D02*
X39773866Y-33716667D01*
X39773866Y-33716667D02*
X39535771Y-33716667D01*
X39535771Y-33716667D02*
X39345295Y-33764286D01*
X39345295Y-33764286D02*
X39250057Y-33811905D01*
X39250057Y-33811905D02*
X39202438Y-33859524D01*
X39202438Y-33859524D02*
X39154819Y-33954762D01*
X69059580Y-9468333D02*
X69107200Y-9420714D01*
X69107200Y-9420714D02*
X69154819Y-9277857D01*
X69154819Y-9277857D02*
X69154819Y-9182619D01*
X69154819Y-9182619D02*
X69107200Y-9039762D01*
X69107200Y-9039762D02*
X69011961Y-8944524D01*
X69011961Y-8944524D02*
X68916723Y-8896905D01*
X68916723Y-8896905D02*
X68726247Y-8849286D01*
X68726247Y-8849286D02*
X68583390Y-8849286D01*
X68583390Y-8849286D02*
X68392914Y-8896905D01*
X68392914Y-8896905D02*
X68297676Y-8944524D01*
X68297676Y-8944524D02*
X68202438Y-9039762D01*
X68202438Y-9039762D02*
X68154819Y-9182619D01*
X68154819Y-9182619D02*
X68154819Y-9277857D01*
X68154819Y-9277857D02*
X68202438Y-9420714D01*
X68202438Y-9420714D02*
X68250057Y-9468333D01*
X68250057Y-9849286D02*
X68202438Y-9896905D01*
X68202438Y-9896905D02*
X68154819Y-9992143D01*
X68154819Y-9992143D02*
X68154819Y-10230238D01*
X68154819Y-10230238D02*
X68202438Y-10325476D01*
X68202438Y-10325476D02*
X68250057Y-10373095D01*
X68250057Y-10373095D02*
X68345295Y-10420714D01*
X68345295Y-10420714D02*
X68440533Y-10420714D01*
X68440533Y-10420714D02*
X68583390Y-10373095D01*
X68583390Y-10373095D02*
X69154819Y-9801667D01*
X69154819Y-9801667D02*
X69154819Y-10420714D01*
X110669047Y-18369819D02*
X111002380Y-17893628D01*
X111240475Y-18369819D02*
X111240475Y-17369819D01*
X111240475Y-17369819D02*
X110859523Y-17369819D01*
X110859523Y-17369819D02*
X110764285Y-17417438D01*
X110764285Y-17417438D02*
X110716666Y-17465057D01*
X110716666Y-17465057D02*
X110669047Y-17560295D01*
X110669047Y-17560295D02*
X110669047Y-17703152D01*
X110669047Y-17703152D02*
X110716666Y-17798390D01*
X110716666Y-17798390D02*
X110764285Y-17846009D01*
X110764285Y-17846009D02*
X110859523Y-17893628D01*
X110859523Y-17893628D02*
X111240475Y-17893628D01*
X109716666Y-18369819D02*
X110288094Y-18369819D01*
X110002380Y-18369819D02*
X110002380Y-17369819D01*
X110002380Y-17369819D02*
X110097618Y-17512676D01*
X110097618Y-17512676D02*
X110192856Y-17607914D01*
X110192856Y-17607914D02*
X110288094Y-17655533D01*
X109097618Y-17369819D02*
X109002380Y-17369819D01*
X109002380Y-17369819D02*
X108907142Y-17417438D01*
X108907142Y-17417438D02*
X108859523Y-17465057D01*
X108859523Y-17465057D02*
X108811904Y-17560295D01*
X108811904Y-17560295D02*
X108764285Y-17750771D01*
X108764285Y-17750771D02*
X108764285Y-17988866D01*
X108764285Y-17988866D02*
X108811904Y-18179342D01*
X108811904Y-18179342D02*
X108859523Y-18274580D01*
X108859523Y-18274580D02*
X108907142Y-18322200D01*
X108907142Y-18322200D02*
X109002380Y-18369819D01*
X109002380Y-18369819D02*
X109097618Y-18369819D01*
X109097618Y-18369819D02*
X109192856Y-18322200D01*
X109192856Y-18322200D02*
X109240475Y-18274580D01*
X109240475Y-18274580D02*
X109288094Y-18179342D01*
X109288094Y-18179342D02*
X109335713Y-17988866D01*
X109335713Y-17988866D02*
X109335713Y-17750771D01*
X109335713Y-17750771D02*
X109288094Y-17560295D01*
X109288094Y-17560295D02*
X109240475Y-17465057D01*
X109240475Y-17465057D02*
X109192856Y-17417438D01*
X109192856Y-17417438D02*
X109097618Y-17369819D01*
X108383332Y-17465057D02*
X108335713Y-17417438D01*
X108335713Y-17417438D02*
X108240475Y-17369819D01*
X108240475Y-17369819D02*
X108002380Y-17369819D01*
X108002380Y-17369819D02*
X107907142Y-17417438D01*
X107907142Y-17417438D02*
X107859523Y-17465057D01*
X107859523Y-17465057D02*
X107811904Y-17560295D01*
X107811904Y-17560295D02*
X107811904Y-17655533D01*
X107811904Y-17655533D02*
X107859523Y-17798390D01*
X107859523Y-17798390D02*
X108430951Y-18369819D01*
X108430951Y-18369819D02*
X107811904Y-18369819D01*
X35624819Y-38807142D02*
X35148628Y-38473809D01*
X35624819Y-38235714D02*
X34624819Y-38235714D01*
X34624819Y-38235714D02*
X34624819Y-38616666D01*
X34624819Y-38616666D02*
X34672438Y-38711904D01*
X34672438Y-38711904D02*
X34720057Y-38759523D01*
X34720057Y-38759523D02*
X34815295Y-38807142D01*
X34815295Y-38807142D02*
X34958152Y-38807142D01*
X34958152Y-38807142D02*
X35053390Y-38759523D01*
X35053390Y-38759523D02*
X35101009Y-38711904D01*
X35101009Y-38711904D02*
X35148628Y-38616666D01*
X35148628Y-38616666D02*
X35148628Y-38235714D01*
X35624819Y-39283333D02*
X35624819Y-39473809D01*
X35624819Y-39473809D02*
X35577200Y-39569047D01*
X35577200Y-39569047D02*
X35529580Y-39616666D01*
X35529580Y-39616666D02*
X35386723Y-39711904D01*
X35386723Y-39711904D02*
X35196247Y-39759523D01*
X35196247Y-39759523D02*
X34815295Y-39759523D01*
X34815295Y-39759523D02*
X34720057Y-39711904D01*
X34720057Y-39711904D02*
X34672438Y-39664285D01*
X34672438Y-39664285D02*
X34624819Y-39569047D01*
X34624819Y-39569047D02*
X34624819Y-39378571D01*
X34624819Y-39378571D02*
X34672438Y-39283333D01*
X34672438Y-39283333D02*
X34720057Y-39235714D01*
X34720057Y-39235714D02*
X34815295Y-39188095D01*
X34815295Y-39188095D02*
X35053390Y-39188095D01*
X35053390Y-39188095D02*
X35148628Y-39235714D01*
X35148628Y-39235714D02*
X35196247Y-39283333D01*
X35196247Y-39283333D02*
X35243866Y-39378571D01*
X35243866Y-39378571D02*
X35243866Y-39569047D01*
X35243866Y-39569047D02*
X35196247Y-39664285D01*
X35196247Y-39664285D02*
X35148628Y-39711904D01*
X35148628Y-39711904D02*
X35053390Y-39759523D01*
X34624819Y-40092857D02*
X34624819Y-40711904D01*
X34624819Y-40711904D02*
X35005771Y-40378571D01*
X35005771Y-40378571D02*
X35005771Y-40521428D01*
X35005771Y-40521428D02*
X35053390Y-40616666D01*
X35053390Y-40616666D02*
X35101009Y-40664285D01*
X35101009Y-40664285D02*
X35196247Y-40711904D01*
X35196247Y-40711904D02*
X35434342Y-40711904D01*
X35434342Y-40711904D02*
X35529580Y-40664285D01*
X35529580Y-40664285D02*
X35577200Y-40616666D01*
X35577200Y-40616666D02*
X35624819Y-40521428D01*
X35624819Y-40521428D02*
X35624819Y-40235714D01*
X35624819Y-40235714D02*
X35577200Y-40140476D01*
X35577200Y-40140476D02*
X35529580Y-40092857D01*
X147080357Y-8059580D02*
X147127976Y-8107200D01*
X147127976Y-8107200D02*
X147270833Y-8154819D01*
X147270833Y-8154819D02*
X147366071Y-8154819D01*
X147366071Y-8154819D02*
X147508928Y-8107200D01*
X147508928Y-8107200D02*
X147604166Y-8011961D01*
X147604166Y-8011961D02*
X147651785Y-7916723D01*
X147651785Y-7916723D02*
X147699404Y-7726247D01*
X147699404Y-7726247D02*
X147699404Y-7583390D01*
X147699404Y-7583390D02*
X147651785Y-7392914D01*
X147651785Y-7392914D02*
X147604166Y-7297676D01*
X147604166Y-7297676D02*
X147508928Y-7202438D01*
X147508928Y-7202438D02*
X147366071Y-7154819D01*
X147366071Y-7154819D02*
X147270833Y-7154819D01*
X147270833Y-7154819D02*
X147127976Y-7202438D01*
X147127976Y-7202438D02*
X147080357Y-7250057D01*
X146699404Y-7250057D02*
X146651785Y-7202438D01*
X146651785Y-7202438D02*
X146556547Y-7154819D01*
X146556547Y-7154819D02*
X146318452Y-7154819D01*
X146318452Y-7154819D02*
X146223214Y-7202438D01*
X146223214Y-7202438D02*
X146175595Y-7250057D01*
X146175595Y-7250057D02*
X146127976Y-7345295D01*
X146127976Y-7345295D02*
X146127976Y-7440533D01*
X146127976Y-7440533D02*
X146175595Y-7583390D01*
X146175595Y-7583390D02*
X146747023Y-8154819D01*
X146747023Y-8154819D02*
X146127976Y-8154819D01*
X145651785Y-8154819D02*
X145461309Y-8154819D01*
X145461309Y-8154819D02*
X145366071Y-8107200D01*
X145366071Y-8107200D02*
X145318452Y-8059580D01*
X145318452Y-8059580D02*
X145223214Y-7916723D01*
X145223214Y-7916723D02*
X145175595Y-7726247D01*
X145175595Y-7726247D02*
X145175595Y-7345295D01*
X145175595Y-7345295D02*
X145223214Y-7250057D01*
X145223214Y-7250057D02*
X145270833Y-7202438D01*
X145270833Y-7202438D02*
X145366071Y-7154819D01*
X145366071Y-7154819D02*
X145556547Y-7154819D01*
X145556547Y-7154819D02*
X145651785Y-7202438D01*
X145651785Y-7202438D02*
X145699404Y-7250057D01*
X145699404Y-7250057D02*
X145747023Y-7345295D01*
X145747023Y-7345295D02*
X145747023Y-7583390D01*
X145747023Y-7583390D02*
X145699404Y-7678628D01*
X145699404Y-7678628D02*
X145651785Y-7726247D01*
X145651785Y-7726247D02*
X145556547Y-7773866D01*
X145556547Y-7773866D02*
X145366071Y-7773866D01*
X145366071Y-7773866D02*
X145270833Y-7726247D01*
X145270833Y-7726247D02*
X145223214Y-7678628D01*
X145223214Y-7678628D02*
X145175595Y-7583390D01*
X243119047Y-43659580D02*
X243166666Y-43707200D01*
X243166666Y-43707200D02*
X243309523Y-43754819D01*
X243309523Y-43754819D02*
X243404761Y-43754819D01*
X243404761Y-43754819D02*
X243547618Y-43707200D01*
X243547618Y-43707200D02*
X243642856Y-43611961D01*
X243642856Y-43611961D02*
X243690475Y-43516723D01*
X243690475Y-43516723D02*
X243738094Y-43326247D01*
X243738094Y-43326247D02*
X243738094Y-43183390D01*
X243738094Y-43183390D02*
X243690475Y-42992914D01*
X243690475Y-42992914D02*
X243642856Y-42897676D01*
X243642856Y-42897676D02*
X243547618Y-42802438D01*
X243547618Y-42802438D02*
X243404761Y-42754819D01*
X243404761Y-42754819D02*
X243309523Y-42754819D01*
X243309523Y-42754819D02*
X243166666Y-42802438D01*
X243166666Y-42802438D02*
X243119047Y-42850057D01*
X242166666Y-43754819D02*
X242738094Y-43754819D01*
X242452380Y-43754819D02*
X242452380Y-42754819D01*
X242452380Y-42754819D02*
X242547618Y-42897676D01*
X242547618Y-42897676D02*
X242642856Y-42992914D01*
X242642856Y-42992914D02*
X242738094Y-43040533D01*
X241833332Y-42754819D02*
X241214285Y-42754819D01*
X241214285Y-42754819D02*
X241547618Y-43135771D01*
X241547618Y-43135771D02*
X241404761Y-43135771D01*
X241404761Y-43135771D02*
X241309523Y-43183390D01*
X241309523Y-43183390D02*
X241261904Y-43231009D01*
X241261904Y-43231009D02*
X241214285Y-43326247D01*
X241214285Y-43326247D02*
X241214285Y-43564342D01*
X241214285Y-43564342D02*
X241261904Y-43659580D01*
X241261904Y-43659580D02*
X241309523Y-43707200D01*
X241309523Y-43707200D02*
X241404761Y-43754819D01*
X241404761Y-43754819D02*
X241690475Y-43754819D01*
X241690475Y-43754819D02*
X241785713Y-43707200D01*
X241785713Y-43707200D02*
X241833332Y-43659580D01*
X240642856Y-43183390D02*
X240738094Y-43135771D01*
X240738094Y-43135771D02*
X240785713Y-43088152D01*
X240785713Y-43088152D02*
X240833332Y-42992914D01*
X240833332Y-42992914D02*
X240833332Y-42945295D01*
X240833332Y-42945295D02*
X240785713Y-42850057D01*
X240785713Y-42850057D02*
X240738094Y-42802438D01*
X240738094Y-42802438D02*
X240642856Y-42754819D01*
X240642856Y-42754819D02*
X240452380Y-42754819D01*
X240452380Y-42754819D02*
X240357142Y-42802438D01*
X240357142Y-42802438D02*
X240309523Y-42850057D01*
X240309523Y-42850057D02*
X240261904Y-42945295D01*
X240261904Y-42945295D02*
X240261904Y-42992914D01*
X240261904Y-42992914D02*
X240309523Y-43088152D01*
X240309523Y-43088152D02*
X240357142Y-43135771D01*
X240357142Y-43135771D02*
X240452380Y-43183390D01*
X240452380Y-43183390D02*
X240642856Y-43183390D01*
X240642856Y-43183390D02*
X240738094Y-43231009D01*
X240738094Y-43231009D02*
X240785713Y-43278628D01*
X240785713Y-43278628D02*
X240833332Y-43373866D01*
X240833332Y-43373866D02*
X240833332Y-43564342D01*
X240833332Y-43564342D02*
X240785713Y-43659580D01*
X240785713Y-43659580D02*
X240738094Y-43707200D01*
X240738094Y-43707200D02*
X240642856Y-43754819D01*
X240642856Y-43754819D02*
X240452380Y-43754819D01*
X240452380Y-43754819D02*
X240357142Y-43707200D01*
X240357142Y-43707200D02*
X240309523Y-43659580D01*
X240309523Y-43659580D02*
X240261904Y-43564342D01*
X240261904Y-43564342D02*
X240261904Y-43373866D01*
X240261904Y-43373866D02*
X240309523Y-43278628D01*
X240309523Y-43278628D02*
X240357142Y-43231009D01*
X240357142Y-43231009D02*
X240452380Y-43183390D01*
X82059580Y-9468333D02*
X82107200Y-9420714D01*
X82107200Y-9420714D02*
X82154819Y-9277857D01*
X82154819Y-9277857D02*
X82154819Y-9182619D01*
X82154819Y-9182619D02*
X82107200Y-9039762D01*
X82107200Y-9039762D02*
X82011961Y-8944524D01*
X82011961Y-8944524D02*
X81916723Y-8896905D01*
X81916723Y-8896905D02*
X81726247Y-8849286D01*
X81726247Y-8849286D02*
X81583390Y-8849286D01*
X81583390Y-8849286D02*
X81392914Y-8896905D01*
X81392914Y-8896905D02*
X81297676Y-8944524D01*
X81297676Y-8944524D02*
X81202438Y-9039762D01*
X81202438Y-9039762D02*
X81154819Y-9182619D01*
X81154819Y-9182619D02*
X81154819Y-9277857D01*
X81154819Y-9277857D02*
X81202438Y-9420714D01*
X81202438Y-9420714D02*
X81250057Y-9468333D01*
X81154819Y-10373095D02*
X81154819Y-9896905D01*
X81154819Y-9896905D02*
X81631009Y-9849286D01*
X81631009Y-9849286D02*
X81583390Y-9896905D01*
X81583390Y-9896905D02*
X81535771Y-9992143D01*
X81535771Y-9992143D02*
X81535771Y-10230238D01*
X81535771Y-10230238D02*
X81583390Y-10325476D01*
X81583390Y-10325476D02*
X81631009Y-10373095D01*
X81631009Y-10373095D02*
X81726247Y-10420714D01*
X81726247Y-10420714D02*
X81964342Y-10420714D01*
X81964342Y-10420714D02*
X82059580Y-10373095D01*
X82059580Y-10373095D02*
X82107200Y-10325476D01*
X82107200Y-10325476D02*
X82154819Y-10230238D01*
X82154819Y-10230238D02*
X82154819Y-9992143D01*
X82154819Y-9992143D02*
X82107200Y-9896905D01*
X82107200Y-9896905D02*
X82059580Y-9849286D01*
X281659580Y-1880952D02*
X281707200Y-1833333D01*
X281707200Y-1833333D02*
X281754819Y-1690476D01*
X281754819Y-1690476D02*
X281754819Y-1595238D01*
X281754819Y-1595238D02*
X281707200Y-1452381D01*
X281707200Y-1452381D02*
X281611961Y-1357143D01*
X281611961Y-1357143D02*
X281516723Y-1309524D01*
X281516723Y-1309524D02*
X281326247Y-1261905D01*
X281326247Y-1261905D02*
X281183390Y-1261905D01*
X281183390Y-1261905D02*
X280992914Y-1309524D01*
X280992914Y-1309524D02*
X280897676Y-1357143D01*
X280897676Y-1357143D02*
X280802438Y-1452381D01*
X280802438Y-1452381D02*
X280754819Y-1595238D01*
X280754819Y-1595238D02*
X280754819Y-1690476D01*
X280754819Y-1690476D02*
X280802438Y-1833333D01*
X280802438Y-1833333D02*
X280850057Y-1880952D01*
X281754819Y-2833333D02*
X281754819Y-2261905D01*
X281754819Y-2547619D02*
X280754819Y-2547619D01*
X280754819Y-2547619D02*
X280897676Y-2452381D01*
X280897676Y-2452381D02*
X280992914Y-2357143D01*
X280992914Y-2357143D02*
X281040533Y-2261905D01*
X280850057Y-3214286D02*
X280802438Y-3261905D01*
X280802438Y-3261905D02*
X280754819Y-3357143D01*
X280754819Y-3357143D02*
X280754819Y-3595238D01*
X280754819Y-3595238D02*
X280802438Y-3690476D01*
X280802438Y-3690476D02*
X280850057Y-3738095D01*
X280850057Y-3738095D02*
X280945295Y-3785714D01*
X280945295Y-3785714D02*
X281040533Y-3785714D01*
X281040533Y-3785714D02*
X281183390Y-3738095D01*
X281183390Y-3738095D02*
X281754819Y-3166667D01*
X281754819Y-3166667D02*
X281754819Y-3785714D01*
X281088152Y-4642857D02*
X281754819Y-4642857D01*
X280707200Y-4404762D02*
X281421485Y-4166667D01*
X281421485Y-4166667D02*
X281421485Y-4785714D01*
D12*
X97304318Y-7606904D02*
X97304318Y-8453571D01*
X97304318Y-8453571D02*
X98574318Y-7606904D01*
X98574318Y-7606904D02*
X98574318Y-8453571D01*
X97304318Y-8816428D02*
X97304318Y-9663095D01*
X97304318Y-9663095D02*
X98574318Y-9118809D01*
D11*
X103234819Y-7515952D02*
X102758628Y-7182619D01*
X103234819Y-6944524D02*
X102234819Y-6944524D01*
X102234819Y-6944524D02*
X102234819Y-7325476D01*
X102234819Y-7325476D02*
X102282438Y-7420714D01*
X102282438Y-7420714D02*
X102330057Y-7468333D01*
X102330057Y-7468333D02*
X102425295Y-7515952D01*
X102425295Y-7515952D02*
X102568152Y-7515952D01*
X102568152Y-7515952D02*
X102663390Y-7468333D01*
X102663390Y-7468333D02*
X102711009Y-7420714D01*
X102711009Y-7420714D02*
X102758628Y-7325476D01*
X102758628Y-7325476D02*
X102758628Y-6944524D01*
X103234819Y-8468333D02*
X103234819Y-7896905D01*
X103234819Y-8182619D02*
X102234819Y-8182619D01*
X102234819Y-8182619D02*
X102377676Y-8087381D01*
X102377676Y-8087381D02*
X102472914Y-7992143D01*
X102472914Y-7992143D02*
X102520533Y-7896905D01*
X102234819Y-9087381D02*
X102234819Y-9182619D01*
X102234819Y-9182619D02*
X102282438Y-9277857D01*
X102282438Y-9277857D02*
X102330057Y-9325476D01*
X102330057Y-9325476D02*
X102425295Y-9373095D01*
X102425295Y-9373095D02*
X102615771Y-9420714D01*
X102615771Y-9420714D02*
X102853866Y-9420714D01*
X102853866Y-9420714D02*
X103044342Y-9373095D01*
X103044342Y-9373095D02*
X103139580Y-9325476D01*
X103139580Y-9325476D02*
X103187200Y-9277857D01*
X103187200Y-9277857D02*
X103234819Y-9182619D01*
X103234819Y-9182619D02*
X103234819Y-9087381D01*
X103234819Y-9087381D02*
X103187200Y-8992143D01*
X103187200Y-8992143D02*
X103139580Y-8944524D01*
X103139580Y-8944524D02*
X103044342Y-8896905D01*
X103044342Y-8896905D02*
X102853866Y-8849286D01*
X102853866Y-8849286D02*
X102615771Y-8849286D01*
X102615771Y-8849286D02*
X102425295Y-8896905D01*
X102425295Y-8896905D02*
X102330057Y-8944524D01*
X102330057Y-8944524D02*
X102282438Y-8992143D01*
X102282438Y-8992143D02*
X102234819Y-9087381D01*
X102234819Y-9754048D02*
X102234819Y-10373095D01*
X102234819Y-10373095D02*
X102615771Y-10039762D01*
X102615771Y-10039762D02*
X102615771Y-10182619D01*
X102615771Y-10182619D02*
X102663390Y-10277857D01*
X102663390Y-10277857D02*
X102711009Y-10325476D01*
X102711009Y-10325476D02*
X102806247Y-10373095D01*
X102806247Y-10373095D02*
X103044342Y-10373095D01*
X103044342Y-10373095D02*
X103139580Y-10325476D01*
X103139580Y-10325476D02*
X103187200Y-10277857D01*
X103187200Y-10277857D02*
X103234819Y-10182619D01*
X103234819Y-10182619D02*
X103234819Y-9896905D01*
X103234819Y-9896905D02*
X103187200Y-9801667D01*
X103187200Y-9801667D02*
X103139580Y-9754048D01*
D12*
X9804318Y-25876667D02*
X10711461Y-25876667D01*
X10711461Y-25876667D02*
X10892889Y-25816190D01*
X10892889Y-25816190D02*
X11013842Y-25695238D01*
X11013842Y-25695238D02*
X11074318Y-25513809D01*
X11074318Y-25513809D02*
X11074318Y-25392857D01*
X9804318Y-27025714D02*
X9804318Y-26783809D01*
X9804318Y-26783809D02*
X9864794Y-26662857D01*
X9864794Y-26662857D02*
X9925270Y-26602381D01*
X9925270Y-26602381D02*
X10106699Y-26481428D01*
X10106699Y-26481428D02*
X10348603Y-26420952D01*
X10348603Y-26420952D02*
X10832413Y-26420952D01*
X10832413Y-26420952D02*
X10953365Y-26481428D01*
X10953365Y-26481428D02*
X11013842Y-26541905D01*
X11013842Y-26541905D02*
X11074318Y-26662857D01*
X11074318Y-26662857D02*
X11074318Y-26904762D01*
X11074318Y-26904762D02*
X11013842Y-27025714D01*
X11013842Y-27025714D02*
X10953365Y-27086190D01*
X10953365Y-27086190D02*
X10832413Y-27146667D01*
X10832413Y-27146667D02*
X10530032Y-27146667D01*
X10530032Y-27146667D02*
X10409080Y-27086190D01*
X10409080Y-27086190D02*
X10348603Y-27025714D01*
X10348603Y-27025714D02*
X10288127Y-26904762D01*
X10288127Y-26904762D02*
X10288127Y-26662857D01*
X10288127Y-26662857D02*
X10348603Y-26541905D01*
X10348603Y-26541905D02*
X10409080Y-26481428D01*
X10409080Y-26481428D02*
X10530032Y-26420952D01*
D11*
X177317857Y-17964580D02*
X177365476Y-18012200D01*
X177365476Y-18012200D02*
X177508333Y-18059819D01*
X177508333Y-18059819D02*
X177603571Y-18059819D01*
X177603571Y-18059819D02*
X177746428Y-18012200D01*
X177746428Y-18012200D02*
X177841666Y-17916961D01*
X177841666Y-17916961D02*
X177889285Y-17821723D01*
X177889285Y-17821723D02*
X177936904Y-17631247D01*
X177936904Y-17631247D02*
X177936904Y-17488390D01*
X177936904Y-17488390D02*
X177889285Y-17297914D01*
X177889285Y-17297914D02*
X177841666Y-17202676D01*
X177841666Y-17202676D02*
X177746428Y-17107438D01*
X177746428Y-17107438D02*
X177603571Y-17059819D01*
X177603571Y-17059819D02*
X177508333Y-17059819D01*
X177508333Y-17059819D02*
X177365476Y-17107438D01*
X177365476Y-17107438D02*
X177317857Y-17155057D01*
X176984523Y-17059819D02*
X176365476Y-17059819D01*
X176365476Y-17059819D02*
X176698809Y-17440771D01*
X176698809Y-17440771D02*
X176555952Y-17440771D01*
X176555952Y-17440771D02*
X176460714Y-17488390D01*
X176460714Y-17488390D02*
X176413095Y-17536009D01*
X176413095Y-17536009D02*
X176365476Y-17631247D01*
X176365476Y-17631247D02*
X176365476Y-17869342D01*
X176365476Y-17869342D02*
X176413095Y-17964580D01*
X176413095Y-17964580D02*
X176460714Y-18012200D01*
X176460714Y-18012200D02*
X176555952Y-18059819D01*
X176555952Y-18059819D02*
X176841666Y-18059819D01*
X176841666Y-18059819D02*
X176936904Y-18012200D01*
X176936904Y-18012200D02*
X176984523Y-17964580D01*
X175508333Y-17393152D02*
X175508333Y-18059819D01*
X175746428Y-17012200D02*
X175984523Y-17726485D01*
X175984523Y-17726485D02*
X175365476Y-17726485D01*
X105359580Y-2880952D02*
X105407200Y-2833333D01*
X105407200Y-2833333D02*
X105454819Y-2690476D01*
X105454819Y-2690476D02*
X105454819Y-2595238D01*
X105454819Y-2595238D02*
X105407200Y-2452381D01*
X105407200Y-2452381D02*
X105311961Y-2357143D01*
X105311961Y-2357143D02*
X105216723Y-2309524D01*
X105216723Y-2309524D02*
X105026247Y-2261905D01*
X105026247Y-2261905D02*
X104883390Y-2261905D01*
X104883390Y-2261905D02*
X104692914Y-2309524D01*
X104692914Y-2309524D02*
X104597676Y-2357143D01*
X104597676Y-2357143D02*
X104502438Y-2452381D01*
X104502438Y-2452381D02*
X104454819Y-2595238D01*
X104454819Y-2595238D02*
X104454819Y-2690476D01*
X104454819Y-2690476D02*
X104502438Y-2833333D01*
X104502438Y-2833333D02*
X104550057Y-2880952D01*
X105454819Y-3833333D02*
X105454819Y-3261905D01*
X105454819Y-3547619D02*
X104454819Y-3547619D01*
X104454819Y-3547619D02*
X104597676Y-3452381D01*
X104597676Y-3452381D02*
X104692914Y-3357143D01*
X104692914Y-3357143D02*
X104740533Y-3261905D01*
X105454819Y-4785714D02*
X105454819Y-4214286D01*
X105454819Y-4500000D02*
X104454819Y-4500000D01*
X104454819Y-4500000D02*
X104597676Y-4404762D01*
X104597676Y-4404762D02*
X104692914Y-4309524D01*
X104692914Y-4309524D02*
X104740533Y-4214286D01*
X104788152Y-5642857D02*
X105454819Y-5642857D01*
X104407200Y-5404762D02*
X105121485Y-5166667D01*
X105121485Y-5166667D02*
X105121485Y-5785714D01*
X189174819Y-6833333D02*
X188698628Y-6500000D01*
X189174819Y-6261905D02*
X188174819Y-6261905D01*
X188174819Y-6261905D02*
X188174819Y-6642857D01*
X188174819Y-6642857D02*
X188222438Y-6738095D01*
X188222438Y-6738095D02*
X188270057Y-6785714D01*
X188270057Y-6785714D02*
X188365295Y-6833333D01*
X188365295Y-6833333D02*
X188508152Y-6833333D01*
X188508152Y-6833333D02*
X188603390Y-6785714D01*
X188603390Y-6785714D02*
X188651009Y-6738095D01*
X188651009Y-6738095D02*
X188698628Y-6642857D01*
X188698628Y-6642857D02*
X188698628Y-6261905D01*
X189174819Y-7309524D02*
X189174819Y-7500000D01*
X189174819Y-7500000D02*
X189127200Y-7595238D01*
X189127200Y-7595238D02*
X189079580Y-7642857D01*
X189079580Y-7642857D02*
X188936723Y-7738095D01*
X188936723Y-7738095D02*
X188746247Y-7785714D01*
X188746247Y-7785714D02*
X188365295Y-7785714D01*
X188365295Y-7785714D02*
X188270057Y-7738095D01*
X188270057Y-7738095D02*
X188222438Y-7690476D01*
X188222438Y-7690476D02*
X188174819Y-7595238D01*
X188174819Y-7595238D02*
X188174819Y-7404762D01*
X188174819Y-7404762D02*
X188222438Y-7309524D01*
X188222438Y-7309524D02*
X188270057Y-7261905D01*
X188270057Y-7261905D02*
X188365295Y-7214286D01*
X188365295Y-7214286D02*
X188603390Y-7214286D01*
X188603390Y-7214286D02*
X188698628Y-7261905D01*
X188698628Y-7261905D02*
X188746247Y-7309524D01*
X188746247Y-7309524D02*
X188793866Y-7404762D01*
X188793866Y-7404762D02*
X188793866Y-7595238D01*
X188793866Y-7595238D02*
X188746247Y-7690476D01*
X188746247Y-7690476D02*
X188698628Y-7738095D01*
X188698628Y-7738095D02*
X188603390Y-7785714D01*
X58659580Y-25468333D02*
X58707200Y-25420714D01*
X58707200Y-25420714D02*
X58754819Y-25277857D01*
X58754819Y-25277857D02*
X58754819Y-25182619D01*
X58754819Y-25182619D02*
X58707200Y-25039762D01*
X58707200Y-25039762D02*
X58611961Y-24944524D01*
X58611961Y-24944524D02*
X58516723Y-24896905D01*
X58516723Y-24896905D02*
X58326247Y-24849286D01*
X58326247Y-24849286D02*
X58183390Y-24849286D01*
X58183390Y-24849286D02*
X57992914Y-24896905D01*
X57992914Y-24896905D02*
X57897676Y-24944524D01*
X57897676Y-24944524D02*
X57802438Y-25039762D01*
X57802438Y-25039762D02*
X57754819Y-25182619D01*
X57754819Y-25182619D02*
X57754819Y-25277857D01*
X57754819Y-25277857D02*
X57802438Y-25420714D01*
X57802438Y-25420714D02*
X57850057Y-25468333D01*
X58754819Y-25944524D02*
X58754819Y-26135000D01*
X58754819Y-26135000D02*
X58707200Y-26230238D01*
X58707200Y-26230238D02*
X58659580Y-26277857D01*
X58659580Y-26277857D02*
X58516723Y-26373095D01*
X58516723Y-26373095D02*
X58326247Y-26420714D01*
X58326247Y-26420714D02*
X57945295Y-26420714D01*
X57945295Y-26420714D02*
X57850057Y-26373095D01*
X57850057Y-26373095D02*
X57802438Y-26325476D01*
X57802438Y-26325476D02*
X57754819Y-26230238D01*
X57754819Y-26230238D02*
X57754819Y-26039762D01*
X57754819Y-26039762D02*
X57802438Y-25944524D01*
X57802438Y-25944524D02*
X57850057Y-25896905D01*
X57850057Y-25896905D02*
X57945295Y-25849286D01*
X57945295Y-25849286D02*
X58183390Y-25849286D01*
X58183390Y-25849286D02*
X58278628Y-25896905D01*
X58278628Y-25896905D02*
X58326247Y-25944524D01*
X58326247Y-25944524D02*
X58373866Y-26039762D01*
X58373866Y-26039762D02*
X58373866Y-26230238D01*
X58373866Y-26230238D02*
X58326247Y-26325476D01*
X58326247Y-26325476D02*
X58278628Y-26373095D01*
X58278628Y-26373095D02*
X58183390Y-26420714D01*
X177317857Y-26564580D02*
X177365476Y-26612200D01*
X177365476Y-26612200D02*
X177508333Y-26659819D01*
X177508333Y-26659819D02*
X177603571Y-26659819D01*
X177603571Y-26659819D02*
X177746428Y-26612200D01*
X177746428Y-26612200D02*
X177841666Y-26516961D01*
X177841666Y-26516961D02*
X177889285Y-26421723D01*
X177889285Y-26421723D02*
X177936904Y-26231247D01*
X177936904Y-26231247D02*
X177936904Y-26088390D01*
X177936904Y-26088390D02*
X177889285Y-25897914D01*
X177889285Y-25897914D02*
X177841666Y-25802676D01*
X177841666Y-25802676D02*
X177746428Y-25707438D01*
X177746428Y-25707438D02*
X177603571Y-25659819D01*
X177603571Y-25659819D02*
X177508333Y-25659819D01*
X177508333Y-25659819D02*
X177365476Y-25707438D01*
X177365476Y-25707438D02*
X177317857Y-25755057D01*
X176984523Y-25659819D02*
X176365476Y-25659819D01*
X176365476Y-25659819D02*
X176698809Y-26040771D01*
X176698809Y-26040771D02*
X176555952Y-26040771D01*
X176555952Y-26040771D02*
X176460714Y-26088390D01*
X176460714Y-26088390D02*
X176413095Y-26136009D01*
X176413095Y-26136009D02*
X176365476Y-26231247D01*
X176365476Y-26231247D02*
X176365476Y-26469342D01*
X176365476Y-26469342D02*
X176413095Y-26564580D01*
X176413095Y-26564580D02*
X176460714Y-26612200D01*
X176460714Y-26612200D02*
X176555952Y-26659819D01*
X176555952Y-26659819D02*
X176841666Y-26659819D01*
X176841666Y-26659819D02*
X176936904Y-26612200D01*
X176936904Y-26612200D02*
X176984523Y-26564580D01*
X176032142Y-25659819D02*
X175413095Y-25659819D01*
X175413095Y-25659819D02*
X175746428Y-26040771D01*
X175746428Y-26040771D02*
X175603571Y-26040771D01*
X175603571Y-26040771D02*
X175508333Y-26088390D01*
X175508333Y-26088390D02*
X175460714Y-26136009D01*
X175460714Y-26136009D02*
X175413095Y-26231247D01*
X175413095Y-26231247D02*
X175413095Y-26469342D01*
X175413095Y-26469342D02*
X175460714Y-26564580D01*
X175460714Y-26564580D02*
X175508333Y-26612200D01*
X175508333Y-26612200D02*
X175603571Y-26659819D01*
X175603571Y-26659819D02*
X175889285Y-26659819D01*
X175889285Y-26659819D02*
X175984523Y-26612200D01*
X175984523Y-26612200D02*
X176032142Y-26564580D01*
X103234819Y-18992142D02*
X102758628Y-18658809D01*
X103234819Y-18420714D02*
X102234819Y-18420714D01*
X102234819Y-18420714D02*
X102234819Y-18801666D01*
X102234819Y-18801666D02*
X102282438Y-18896904D01*
X102282438Y-18896904D02*
X102330057Y-18944523D01*
X102330057Y-18944523D02*
X102425295Y-18992142D01*
X102425295Y-18992142D02*
X102568152Y-18992142D01*
X102568152Y-18992142D02*
X102663390Y-18944523D01*
X102663390Y-18944523D02*
X102711009Y-18896904D01*
X102711009Y-18896904D02*
X102758628Y-18801666D01*
X102758628Y-18801666D02*
X102758628Y-18420714D01*
X103234819Y-19468333D02*
X103234819Y-19658809D01*
X103234819Y-19658809D02*
X103187200Y-19754047D01*
X103187200Y-19754047D02*
X103139580Y-19801666D01*
X103139580Y-19801666D02*
X102996723Y-19896904D01*
X102996723Y-19896904D02*
X102806247Y-19944523D01*
X102806247Y-19944523D02*
X102425295Y-19944523D01*
X102425295Y-19944523D02*
X102330057Y-19896904D01*
X102330057Y-19896904D02*
X102282438Y-19849285D01*
X102282438Y-19849285D02*
X102234819Y-19754047D01*
X102234819Y-19754047D02*
X102234819Y-19563571D01*
X102234819Y-19563571D02*
X102282438Y-19468333D01*
X102282438Y-19468333D02*
X102330057Y-19420714D01*
X102330057Y-19420714D02*
X102425295Y-19373095D01*
X102425295Y-19373095D02*
X102663390Y-19373095D01*
X102663390Y-19373095D02*
X102758628Y-19420714D01*
X102758628Y-19420714D02*
X102806247Y-19468333D01*
X102806247Y-19468333D02*
X102853866Y-19563571D01*
X102853866Y-19563571D02*
X102853866Y-19754047D01*
X102853866Y-19754047D02*
X102806247Y-19849285D01*
X102806247Y-19849285D02*
X102758628Y-19896904D01*
X102758628Y-19896904D02*
X102663390Y-19944523D01*
X103234819Y-20420714D02*
X103234819Y-20611190D01*
X103234819Y-20611190D02*
X103187200Y-20706428D01*
X103187200Y-20706428D02*
X103139580Y-20754047D01*
X103139580Y-20754047D02*
X102996723Y-20849285D01*
X102996723Y-20849285D02*
X102806247Y-20896904D01*
X102806247Y-20896904D02*
X102425295Y-20896904D01*
X102425295Y-20896904D02*
X102330057Y-20849285D01*
X102330057Y-20849285D02*
X102282438Y-20801666D01*
X102282438Y-20801666D02*
X102234819Y-20706428D01*
X102234819Y-20706428D02*
X102234819Y-20515952D01*
X102234819Y-20515952D02*
X102282438Y-20420714D01*
X102282438Y-20420714D02*
X102330057Y-20373095D01*
X102330057Y-20373095D02*
X102425295Y-20325476D01*
X102425295Y-20325476D02*
X102663390Y-20325476D01*
X102663390Y-20325476D02*
X102758628Y-20373095D01*
X102758628Y-20373095D02*
X102806247Y-20420714D01*
X102806247Y-20420714D02*
X102853866Y-20515952D01*
X102853866Y-20515952D02*
X102853866Y-20706428D01*
X102853866Y-20706428D02*
X102806247Y-20801666D01*
X102806247Y-20801666D02*
X102758628Y-20849285D01*
X102758628Y-20849285D02*
X102663390Y-20896904D01*
X44659580Y-17880952D02*
X44707200Y-17833333D01*
X44707200Y-17833333D02*
X44754819Y-17690476D01*
X44754819Y-17690476D02*
X44754819Y-17595238D01*
X44754819Y-17595238D02*
X44707200Y-17452381D01*
X44707200Y-17452381D02*
X44611961Y-17357143D01*
X44611961Y-17357143D02*
X44516723Y-17309524D01*
X44516723Y-17309524D02*
X44326247Y-17261905D01*
X44326247Y-17261905D02*
X44183390Y-17261905D01*
X44183390Y-17261905D02*
X43992914Y-17309524D01*
X43992914Y-17309524D02*
X43897676Y-17357143D01*
X43897676Y-17357143D02*
X43802438Y-17452381D01*
X43802438Y-17452381D02*
X43754819Y-17595238D01*
X43754819Y-17595238D02*
X43754819Y-17690476D01*
X43754819Y-17690476D02*
X43802438Y-17833333D01*
X43802438Y-17833333D02*
X43850057Y-17880952D01*
X44754819Y-18833333D02*
X44754819Y-18261905D01*
X44754819Y-18547619D02*
X43754819Y-18547619D01*
X43754819Y-18547619D02*
X43897676Y-18452381D01*
X43897676Y-18452381D02*
X43992914Y-18357143D01*
X43992914Y-18357143D02*
X44040533Y-18261905D01*
X43754819Y-19452381D02*
X43754819Y-19547619D01*
X43754819Y-19547619D02*
X43802438Y-19642857D01*
X43802438Y-19642857D02*
X43850057Y-19690476D01*
X43850057Y-19690476D02*
X43945295Y-19738095D01*
X43945295Y-19738095D02*
X44135771Y-19785714D01*
X44135771Y-19785714D02*
X44373866Y-19785714D01*
X44373866Y-19785714D02*
X44564342Y-19738095D01*
X44564342Y-19738095D02*
X44659580Y-19690476D01*
X44659580Y-19690476D02*
X44707200Y-19642857D01*
X44707200Y-19642857D02*
X44754819Y-19547619D01*
X44754819Y-19547619D02*
X44754819Y-19452381D01*
X44754819Y-19452381D02*
X44707200Y-19357143D01*
X44707200Y-19357143D02*
X44659580Y-19309524D01*
X44659580Y-19309524D02*
X44564342Y-19261905D01*
X44564342Y-19261905D02*
X44373866Y-19214286D01*
X44373866Y-19214286D02*
X44135771Y-19214286D01*
X44135771Y-19214286D02*
X43945295Y-19261905D01*
X43945295Y-19261905D02*
X43850057Y-19309524D01*
X43850057Y-19309524D02*
X43802438Y-19357143D01*
X43802438Y-19357143D02*
X43754819Y-19452381D01*
X44183390Y-20357143D02*
X44135771Y-20261905D01*
X44135771Y-20261905D02*
X44088152Y-20214286D01*
X44088152Y-20214286D02*
X43992914Y-20166667D01*
X43992914Y-20166667D02*
X43945295Y-20166667D01*
X43945295Y-20166667D02*
X43850057Y-20214286D01*
X43850057Y-20214286D02*
X43802438Y-20261905D01*
X43802438Y-20261905D02*
X43754819Y-20357143D01*
X43754819Y-20357143D02*
X43754819Y-20547619D01*
X43754819Y-20547619D02*
X43802438Y-20642857D01*
X43802438Y-20642857D02*
X43850057Y-20690476D01*
X43850057Y-20690476D02*
X43945295Y-20738095D01*
X43945295Y-20738095D02*
X43992914Y-20738095D01*
X43992914Y-20738095D02*
X44088152Y-20690476D01*
X44088152Y-20690476D02*
X44135771Y-20642857D01*
X44135771Y-20642857D02*
X44183390Y-20547619D01*
X44183390Y-20547619D02*
X44183390Y-20357143D01*
X44183390Y-20357143D02*
X44231009Y-20261905D01*
X44231009Y-20261905D02*
X44278628Y-20214286D01*
X44278628Y-20214286D02*
X44373866Y-20166667D01*
X44373866Y-20166667D02*
X44564342Y-20166667D01*
X44564342Y-20166667D02*
X44659580Y-20214286D01*
X44659580Y-20214286D02*
X44707200Y-20261905D01*
X44707200Y-20261905D02*
X44754819Y-20357143D01*
X44754819Y-20357143D02*
X44754819Y-20547619D01*
X44754819Y-20547619D02*
X44707200Y-20642857D01*
X44707200Y-20642857D02*
X44659580Y-20690476D01*
X44659580Y-20690476D02*
X44564342Y-20738095D01*
X44564342Y-20738095D02*
X44373866Y-20738095D01*
X44373866Y-20738095D02*
X44278628Y-20690476D01*
X44278628Y-20690476D02*
X44231009Y-20642857D01*
X44231009Y-20642857D02*
X44183390Y-20547619D01*
X54659580Y-24992142D02*
X54707200Y-24944523D01*
X54707200Y-24944523D02*
X54754819Y-24801666D01*
X54754819Y-24801666D02*
X54754819Y-24706428D01*
X54754819Y-24706428D02*
X54707200Y-24563571D01*
X54707200Y-24563571D02*
X54611961Y-24468333D01*
X54611961Y-24468333D02*
X54516723Y-24420714D01*
X54516723Y-24420714D02*
X54326247Y-24373095D01*
X54326247Y-24373095D02*
X54183390Y-24373095D01*
X54183390Y-24373095D02*
X53992914Y-24420714D01*
X53992914Y-24420714D02*
X53897676Y-24468333D01*
X53897676Y-24468333D02*
X53802438Y-24563571D01*
X53802438Y-24563571D02*
X53754819Y-24706428D01*
X53754819Y-24706428D02*
X53754819Y-24801666D01*
X53754819Y-24801666D02*
X53802438Y-24944523D01*
X53802438Y-24944523D02*
X53850057Y-24992142D01*
X54754819Y-25944523D02*
X54754819Y-25373095D01*
X54754819Y-25658809D02*
X53754819Y-25658809D01*
X53754819Y-25658809D02*
X53897676Y-25563571D01*
X53897676Y-25563571D02*
X53992914Y-25468333D01*
X53992914Y-25468333D02*
X54040533Y-25373095D01*
X54754819Y-26896904D02*
X54754819Y-26325476D01*
X54754819Y-26611190D02*
X53754819Y-26611190D01*
X53754819Y-26611190D02*
X53897676Y-26515952D01*
X53897676Y-26515952D02*
X53992914Y-26420714D01*
X53992914Y-26420714D02*
X54040533Y-26325476D01*
X86659580Y-18968333D02*
X86707200Y-18920714D01*
X86707200Y-18920714D02*
X86754819Y-18777857D01*
X86754819Y-18777857D02*
X86754819Y-18682619D01*
X86754819Y-18682619D02*
X86707200Y-18539762D01*
X86707200Y-18539762D02*
X86611961Y-18444524D01*
X86611961Y-18444524D02*
X86516723Y-18396905D01*
X86516723Y-18396905D02*
X86326247Y-18349286D01*
X86326247Y-18349286D02*
X86183390Y-18349286D01*
X86183390Y-18349286D02*
X85992914Y-18396905D01*
X85992914Y-18396905D02*
X85897676Y-18444524D01*
X85897676Y-18444524D02*
X85802438Y-18539762D01*
X85802438Y-18539762D02*
X85754819Y-18682619D01*
X85754819Y-18682619D02*
X85754819Y-18777857D01*
X85754819Y-18777857D02*
X85802438Y-18920714D01*
X85802438Y-18920714D02*
X85850057Y-18968333D01*
X85754819Y-19825476D02*
X85754819Y-19635000D01*
X85754819Y-19635000D02*
X85802438Y-19539762D01*
X85802438Y-19539762D02*
X85850057Y-19492143D01*
X85850057Y-19492143D02*
X85992914Y-19396905D01*
X85992914Y-19396905D02*
X86183390Y-19349286D01*
X86183390Y-19349286D02*
X86564342Y-19349286D01*
X86564342Y-19349286D02*
X86659580Y-19396905D01*
X86659580Y-19396905D02*
X86707200Y-19444524D01*
X86707200Y-19444524D02*
X86754819Y-19539762D01*
X86754819Y-19539762D02*
X86754819Y-19730238D01*
X86754819Y-19730238D02*
X86707200Y-19825476D01*
X86707200Y-19825476D02*
X86659580Y-19873095D01*
X86659580Y-19873095D02*
X86564342Y-19920714D01*
X86564342Y-19920714D02*
X86326247Y-19920714D01*
X86326247Y-19920714D02*
X86231009Y-19873095D01*
X86231009Y-19873095D02*
X86183390Y-19825476D01*
X86183390Y-19825476D02*
X86135771Y-19730238D01*
X86135771Y-19730238D02*
X86135771Y-19539762D01*
X86135771Y-19539762D02*
X86183390Y-19444524D01*
X86183390Y-19444524D02*
X86231009Y-19396905D01*
X86231009Y-19396905D02*
X86326247Y-19349286D01*
X133934819Y-53146666D02*
X134649104Y-53146666D01*
X134649104Y-53146666D02*
X134791961Y-53099047D01*
X134791961Y-53099047D02*
X134887200Y-53003809D01*
X134887200Y-53003809D02*
X134934819Y-52860952D01*
X134934819Y-52860952D02*
X134934819Y-52765714D01*
X134030057Y-53575238D02*
X133982438Y-53622857D01*
X133982438Y-53622857D02*
X133934819Y-53718095D01*
X133934819Y-53718095D02*
X133934819Y-53956190D01*
X133934819Y-53956190D02*
X133982438Y-54051428D01*
X133982438Y-54051428D02*
X134030057Y-54099047D01*
X134030057Y-54099047D02*
X134125295Y-54146666D01*
X134125295Y-54146666D02*
X134220533Y-54146666D01*
X134220533Y-54146666D02*
X134363390Y-54099047D01*
X134363390Y-54099047D02*
X134934819Y-53527619D01*
X134934819Y-53527619D02*
X134934819Y-54146666D01*
X102616666Y-23809819D02*
X102949999Y-23333628D01*
X103188094Y-23809819D02*
X103188094Y-22809819D01*
X103188094Y-22809819D02*
X102807142Y-22809819D01*
X102807142Y-22809819D02*
X102711904Y-22857438D01*
X102711904Y-22857438D02*
X102664285Y-22905057D01*
X102664285Y-22905057D02*
X102616666Y-23000295D01*
X102616666Y-23000295D02*
X102616666Y-23143152D01*
X102616666Y-23143152D02*
X102664285Y-23238390D01*
X102664285Y-23238390D02*
X102711904Y-23286009D01*
X102711904Y-23286009D02*
X102807142Y-23333628D01*
X102807142Y-23333628D02*
X103188094Y-23333628D01*
X101711904Y-22809819D02*
X102188094Y-22809819D01*
X102188094Y-22809819D02*
X102235713Y-23286009D01*
X102235713Y-23286009D02*
X102188094Y-23238390D01*
X102188094Y-23238390D02*
X102092856Y-23190771D01*
X102092856Y-23190771D02*
X101854761Y-23190771D01*
X101854761Y-23190771D02*
X101759523Y-23238390D01*
X101759523Y-23238390D02*
X101711904Y-23286009D01*
X101711904Y-23286009D02*
X101664285Y-23381247D01*
X101664285Y-23381247D02*
X101664285Y-23619342D01*
X101664285Y-23619342D02*
X101711904Y-23714580D01*
X101711904Y-23714580D02*
X101759523Y-23762200D01*
X101759523Y-23762200D02*
X101854761Y-23809819D01*
X101854761Y-23809819D02*
X102092856Y-23809819D01*
X102092856Y-23809819D02*
X102188094Y-23762200D01*
X102188094Y-23762200D02*
X102235713Y-23714580D01*
X238681547Y-35359580D02*
X238729166Y-35407200D01*
X238729166Y-35407200D02*
X238872023Y-35454819D01*
X238872023Y-35454819D02*
X238967261Y-35454819D01*
X238967261Y-35454819D02*
X239110118Y-35407200D01*
X239110118Y-35407200D02*
X239205356Y-35311961D01*
X239205356Y-35311961D02*
X239252975Y-35216723D01*
X239252975Y-35216723D02*
X239300594Y-35026247D01*
X239300594Y-35026247D02*
X239300594Y-34883390D01*
X239300594Y-34883390D02*
X239252975Y-34692914D01*
X239252975Y-34692914D02*
X239205356Y-34597676D01*
X239205356Y-34597676D02*
X239110118Y-34502438D01*
X239110118Y-34502438D02*
X238967261Y-34454819D01*
X238967261Y-34454819D02*
X238872023Y-34454819D01*
X238872023Y-34454819D02*
X238729166Y-34502438D01*
X238729166Y-34502438D02*
X238681547Y-34550057D01*
X237729166Y-35454819D02*
X238300594Y-35454819D01*
X238014880Y-35454819D02*
X238014880Y-34454819D01*
X238014880Y-34454819D02*
X238110118Y-34597676D01*
X238110118Y-34597676D02*
X238205356Y-34692914D01*
X238205356Y-34692914D02*
X238300594Y-34740533D01*
X237395832Y-34454819D02*
X236776785Y-34454819D01*
X236776785Y-34454819D02*
X237110118Y-34835771D01*
X237110118Y-34835771D02*
X236967261Y-34835771D01*
X236967261Y-34835771D02*
X236872023Y-34883390D01*
X236872023Y-34883390D02*
X236824404Y-34931009D01*
X236824404Y-34931009D02*
X236776785Y-35026247D01*
X236776785Y-35026247D02*
X236776785Y-35264342D01*
X236776785Y-35264342D02*
X236824404Y-35359580D01*
X236824404Y-35359580D02*
X236872023Y-35407200D01*
X236872023Y-35407200D02*
X236967261Y-35454819D01*
X236967261Y-35454819D02*
X237252975Y-35454819D01*
X237252975Y-35454819D02*
X237348213Y-35407200D01*
X237348213Y-35407200D02*
X237395832Y-35359580D01*
X236443451Y-34454819D02*
X235776785Y-34454819D01*
X235776785Y-34454819D02*
X236205356Y-35454819D01*
X40059580Y-38330952D02*
X40107200Y-38283333D01*
X40107200Y-38283333D02*
X40154819Y-38140476D01*
X40154819Y-38140476D02*
X40154819Y-38045238D01*
X40154819Y-38045238D02*
X40107200Y-37902381D01*
X40107200Y-37902381D02*
X40011961Y-37807143D01*
X40011961Y-37807143D02*
X39916723Y-37759524D01*
X39916723Y-37759524D02*
X39726247Y-37711905D01*
X39726247Y-37711905D02*
X39583390Y-37711905D01*
X39583390Y-37711905D02*
X39392914Y-37759524D01*
X39392914Y-37759524D02*
X39297676Y-37807143D01*
X39297676Y-37807143D02*
X39202438Y-37902381D01*
X39202438Y-37902381D02*
X39154819Y-38045238D01*
X39154819Y-38045238D02*
X39154819Y-38140476D01*
X39154819Y-38140476D02*
X39202438Y-38283333D01*
X39202438Y-38283333D02*
X39250057Y-38330952D01*
X40154819Y-39283333D02*
X40154819Y-38711905D01*
X40154819Y-38997619D02*
X39154819Y-38997619D01*
X39154819Y-38997619D02*
X39297676Y-38902381D01*
X39297676Y-38902381D02*
X39392914Y-38807143D01*
X39392914Y-38807143D02*
X39440533Y-38711905D01*
X40154819Y-40235714D02*
X40154819Y-39664286D01*
X40154819Y-39950000D02*
X39154819Y-39950000D01*
X39154819Y-39950000D02*
X39297676Y-39854762D01*
X39297676Y-39854762D02*
X39392914Y-39759524D01*
X39392914Y-39759524D02*
X39440533Y-39664286D01*
X40154819Y-41188095D02*
X40154819Y-40616667D01*
X40154819Y-40902381D02*
X39154819Y-40902381D01*
X39154819Y-40902381D02*
X39297676Y-40807143D01*
X39297676Y-40807143D02*
X39392914Y-40711905D01*
X39392914Y-40711905D02*
X39440533Y-40616667D01*
X35624819Y-31907142D02*
X35148628Y-31573809D01*
X35624819Y-31335714D02*
X34624819Y-31335714D01*
X34624819Y-31335714D02*
X34624819Y-31716666D01*
X34624819Y-31716666D02*
X34672438Y-31811904D01*
X34672438Y-31811904D02*
X34720057Y-31859523D01*
X34720057Y-31859523D02*
X34815295Y-31907142D01*
X34815295Y-31907142D02*
X34958152Y-31907142D01*
X34958152Y-31907142D02*
X35053390Y-31859523D01*
X35053390Y-31859523D02*
X35101009Y-31811904D01*
X35101009Y-31811904D02*
X35148628Y-31716666D01*
X35148628Y-31716666D02*
X35148628Y-31335714D01*
X35053390Y-32478571D02*
X35005771Y-32383333D01*
X35005771Y-32383333D02*
X34958152Y-32335714D01*
X34958152Y-32335714D02*
X34862914Y-32288095D01*
X34862914Y-32288095D02*
X34815295Y-32288095D01*
X34815295Y-32288095D02*
X34720057Y-32335714D01*
X34720057Y-32335714D02*
X34672438Y-32383333D01*
X34672438Y-32383333D02*
X34624819Y-32478571D01*
X34624819Y-32478571D02*
X34624819Y-32669047D01*
X34624819Y-32669047D02*
X34672438Y-32764285D01*
X34672438Y-32764285D02*
X34720057Y-32811904D01*
X34720057Y-32811904D02*
X34815295Y-32859523D01*
X34815295Y-32859523D02*
X34862914Y-32859523D01*
X34862914Y-32859523D02*
X34958152Y-32811904D01*
X34958152Y-32811904D02*
X35005771Y-32764285D01*
X35005771Y-32764285D02*
X35053390Y-32669047D01*
X35053390Y-32669047D02*
X35053390Y-32478571D01*
X35053390Y-32478571D02*
X35101009Y-32383333D01*
X35101009Y-32383333D02*
X35148628Y-32335714D01*
X35148628Y-32335714D02*
X35243866Y-32288095D01*
X35243866Y-32288095D02*
X35434342Y-32288095D01*
X35434342Y-32288095D02*
X35529580Y-32335714D01*
X35529580Y-32335714D02*
X35577200Y-32383333D01*
X35577200Y-32383333D02*
X35624819Y-32478571D01*
X35624819Y-32478571D02*
X35624819Y-32669047D01*
X35624819Y-32669047D02*
X35577200Y-32764285D01*
X35577200Y-32764285D02*
X35529580Y-32811904D01*
X35529580Y-32811904D02*
X35434342Y-32859523D01*
X35434342Y-32859523D02*
X35243866Y-32859523D01*
X35243866Y-32859523D02*
X35148628Y-32811904D01*
X35148628Y-32811904D02*
X35101009Y-32764285D01*
X35101009Y-32764285D02*
X35053390Y-32669047D01*
X35053390Y-33430952D02*
X35005771Y-33335714D01*
X35005771Y-33335714D02*
X34958152Y-33288095D01*
X34958152Y-33288095D02*
X34862914Y-33240476D01*
X34862914Y-33240476D02*
X34815295Y-33240476D01*
X34815295Y-33240476D02*
X34720057Y-33288095D01*
X34720057Y-33288095D02*
X34672438Y-33335714D01*
X34672438Y-33335714D02*
X34624819Y-33430952D01*
X34624819Y-33430952D02*
X34624819Y-33621428D01*
X34624819Y-33621428D02*
X34672438Y-33716666D01*
X34672438Y-33716666D02*
X34720057Y-33764285D01*
X34720057Y-33764285D02*
X34815295Y-33811904D01*
X34815295Y-33811904D02*
X34862914Y-33811904D01*
X34862914Y-33811904D02*
X34958152Y-33764285D01*
X34958152Y-33764285D02*
X35005771Y-33716666D01*
X35005771Y-33716666D02*
X35053390Y-33621428D01*
X35053390Y-33621428D02*
X35053390Y-33430952D01*
X35053390Y-33430952D02*
X35101009Y-33335714D01*
X35101009Y-33335714D02*
X35148628Y-33288095D01*
X35148628Y-33288095D02*
X35243866Y-33240476D01*
X35243866Y-33240476D02*
X35434342Y-33240476D01*
X35434342Y-33240476D02*
X35529580Y-33288095D01*
X35529580Y-33288095D02*
X35577200Y-33335714D01*
X35577200Y-33335714D02*
X35624819Y-33430952D01*
X35624819Y-33430952D02*
X35624819Y-33621428D01*
X35624819Y-33621428D02*
X35577200Y-33716666D01*
X35577200Y-33716666D02*
X35529580Y-33764285D01*
X35529580Y-33764285D02*
X35434342Y-33811904D01*
X35434342Y-33811904D02*
X35243866Y-33811904D01*
X35243866Y-33811904D02*
X35148628Y-33764285D01*
X35148628Y-33764285D02*
X35101009Y-33716666D01*
X35101009Y-33716666D02*
X35053390Y-33621428D01*
X110669047Y-2954819D02*
X111002380Y-2478628D01*
X111240475Y-2954819D02*
X111240475Y-1954819D01*
X111240475Y-1954819D02*
X110859523Y-1954819D01*
X110859523Y-1954819D02*
X110764285Y-2002438D01*
X110764285Y-2002438D02*
X110716666Y-2050057D01*
X110716666Y-2050057D02*
X110669047Y-2145295D01*
X110669047Y-2145295D02*
X110669047Y-2288152D01*
X110669047Y-2288152D02*
X110716666Y-2383390D01*
X110716666Y-2383390D02*
X110764285Y-2431009D01*
X110764285Y-2431009D02*
X110859523Y-2478628D01*
X110859523Y-2478628D02*
X111240475Y-2478628D01*
X109716666Y-2954819D02*
X110288094Y-2954819D01*
X110002380Y-2954819D02*
X110002380Y-1954819D01*
X110002380Y-1954819D02*
X110097618Y-2097676D01*
X110097618Y-2097676D02*
X110192856Y-2192914D01*
X110192856Y-2192914D02*
X110288094Y-2240533D01*
X109097618Y-1954819D02*
X109002380Y-1954819D01*
X109002380Y-1954819D02*
X108907142Y-2002438D01*
X108907142Y-2002438D02*
X108859523Y-2050057D01*
X108859523Y-2050057D02*
X108811904Y-2145295D01*
X108811904Y-2145295D02*
X108764285Y-2335771D01*
X108764285Y-2335771D02*
X108764285Y-2573866D01*
X108764285Y-2573866D02*
X108811904Y-2764342D01*
X108811904Y-2764342D02*
X108859523Y-2859580D01*
X108859523Y-2859580D02*
X108907142Y-2907200D01*
X108907142Y-2907200D02*
X109002380Y-2954819D01*
X109002380Y-2954819D02*
X109097618Y-2954819D01*
X109097618Y-2954819D02*
X109192856Y-2907200D01*
X109192856Y-2907200D02*
X109240475Y-2859580D01*
X109240475Y-2859580D02*
X109288094Y-2764342D01*
X109288094Y-2764342D02*
X109335713Y-2573866D01*
X109335713Y-2573866D02*
X109335713Y-2335771D01*
X109335713Y-2335771D02*
X109288094Y-2145295D01*
X109288094Y-2145295D02*
X109240475Y-2050057D01*
X109240475Y-2050057D02*
X109192856Y-2002438D01*
X109192856Y-2002438D02*
X109097618Y-1954819D01*
X107907142Y-1954819D02*
X108097618Y-1954819D01*
X108097618Y-1954819D02*
X108192856Y-2002438D01*
X108192856Y-2002438D02*
X108240475Y-2050057D01*
X108240475Y-2050057D02*
X108335713Y-2192914D01*
X108335713Y-2192914D02*
X108383332Y-2383390D01*
X108383332Y-2383390D02*
X108383332Y-2764342D01*
X108383332Y-2764342D02*
X108335713Y-2859580D01*
X108335713Y-2859580D02*
X108288094Y-2907200D01*
X108288094Y-2907200D02*
X108192856Y-2954819D01*
X108192856Y-2954819D02*
X108002380Y-2954819D01*
X108002380Y-2954819D02*
X107907142Y-2907200D01*
X107907142Y-2907200D02*
X107859523Y-2859580D01*
X107859523Y-2859580D02*
X107811904Y-2764342D01*
X107811904Y-2764342D02*
X107811904Y-2526247D01*
X107811904Y-2526247D02*
X107859523Y-2431009D01*
X107859523Y-2431009D02*
X107907142Y-2383390D01*
X107907142Y-2383390D02*
X108002380Y-2335771D01*
X108002380Y-2335771D02*
X108192856Y-2335771D01*
X108192856Y-2335771D02*
X108288094Y-2383390D01*
X108288094Y-2383390D02*
X108335713Y-2431009D01*
X108335713Y-2431009D02*
X108383332Y-2526247D01*
X159034580Y-6262142D02*
X159082200Y-6214523D01*
X159082200Y-6214523D02*
X159129819Y-6071666D01*
X159129819Y-6071666D02*
X159129819Y-5976428D01*
X159129819Y-5976428D02*
X159082200Y-5833571D01*
X159082200Y-5833571D02*
X158986961Y-5738333D01*
X158986961Y-5738333D02*
X158891723Y-5690714D01*
X158891723Y-5690714D02*
X158701247Y-5643095D01*
X158701247Y-5643095D02*
X158558390Y-5643095D01*
X158558390Y-5643095D02*
X158367914Y-5690714D01*
X158367914Y-5690714D02*
X158272676Y-5738333D01*
X158272676Y-5738333D02*
X158177438Y-5833571D01*
X158177438Y-5833571D02*
X158129819Y-5976428D01*
X158129819Y-5976428D02*
X158129819Y-6071666D01*
X158129819Y-6071666D02*
X158177438Y-6214523D01*
X158177438Y-6214523D02*
X158225057Y-6262142D01*
X158129819Y-6595476D02*
X158129819Y-7214523D01*
X158129819Y-7214523D02*
X158510771Y-6881190D01*
X158510771Y-6881190D02*
X158510771Y-7024047D01*
X158510771Y-7024047D02*
X158558390Y-7119285D01*
X158558390Y-7119285D02*
X158606009Y-7166904D01*
X158606009Y-7166904D02*
X158701247Y-7214523D01*
X158701247Y-7214523D02*
X158939342Y-7214523D01*
X158939342Y-7214523D02*
X159034580Y-7166904D01*
X159034580Y-7166904D02*
X159082200Y-7119285D01*
X159082200Y-7119285D02*
X159129819Y-7024047D01*
X159129819Y-7024047D02*
X159129819Y-6738333D01*
X159129819Y-6738333D02*
X159082200Y-6643095D01*
X159082200Y-6643095D02*
X159034580Y-6595476D01*
X158225057Y-7595476D02*
X158177438Y-7643095D01*
X158177438Y-7643095D02*
X158129819Y-7738333D01*
X158129819Y-7738333D02*
X158129819Y-7976428D01*
X158129819Y-7976428D02*
X158177438Y-8071666D01*
X158177438Y-8071666D02*
X158225057Y-8119285D01*
X158225057Y-8119285D02*
X158320295Y-8166904D01*
X158320295Y-8166904D02*
X158415533Y-8166904D01*
X158415533Y-8166904D02*
X158558390Y-8119285D01*
X158558390Y-8119285D02*
X159129819Y-7547857D01*
X159129819Y-7547857D02*
X159129819Y-8166904D01*
X43934819Y-53146666D02*
X44649104Y-53146666D01*
X44649104Y-53146666D02*
X44791961Y-53099047D01*
X44791961Y-53099047D02*
X44887200Y-53003809D01*
X44887200Y-53003809D02*
X44934819Y-52860952D01*
X44934819Y-52860952D02*
X44934819Y-52765714D01*
X44934819Y-54146666D02*
X44934819Y-53575238D01*
X44934819Y-53860952D02*
X43934819Y-53860952D01*
X43934819Y-53860952D02*
X44077676Y-53765714D01*
X44077676Y-53765714D02*
X44172914Y-53670476D01*
X44172914Y-53670476D02*
X44220533Y-53575238D01*
X40059580Y-24880952D02*
X40107200Y-24833333D01*
X40107200Y-24833333D02*
X40154819Y-24690476D01*
X40154819Y-24690476D02*
X40154819Y-24595238D01*
X40154819Y-24595238D02*
X40107200Y-24452381D01*
X40107200Y-24452381D02*
X40011961Y-24357143D01*
X40011961Y-24357143D02*
X39916723Y-24309524D01*
X39916723Y-24309524D02*
X39726247Y-24261905D01*
X39726247Y-24261905D02*
X39583390Y-24261905D01*
X39583390Y-24261905D02*
X39392914Y-24309524D01*
X39392914Y-24309524D02*
X39297676Y-24357143D01*
X39297676Y-24357143D02*
X39202438Y-24452381D01*
X39202438Y-24452381D02*
X39154819Y-24595238D01*
X39154819Y-24595238D02*
X39154819Y-24690476D01*
X39154819Y-24690476D02*
X39202438Y-24833333D01*
X39202438Y-24833333D02*
X39250057Y-24880952D01*
X40154819Y-25833333D02*
X40154819Y-25261905D01*
X40154819Y-25547619D02*
X39154819Y-25547619D01*
X39154819Y-25547619D02*
X39297676Y-25452381D01*
X39297676Y-25452381D02*
X39392914Y-25357143D01*
X39392914Y-25357143D02*
X39440533Y-25261905D01*
X39154819Y-26452381D02*
X39154819Y-26547619D01*
X39154819Y-26547619D02*
X39202438Y-26642857D01*
X39202438Y-26642857D02*
X39250057Y-26690476D01*
X39250057Y-26690476D02*
X39345295Y-26738095D01*
X39345295Y-26738095D02*
X39535771Y-26785714D01*
X39535771Y-26785714D02*
X39773866Y-26785714D01*
X39773866Y-26785714D02*
X39964342Y-26738095D01*
X39964342Y-26738095D02*
X40059580Y-26690476D01*
X40059580Y-26690476D02*
X40107200Y-26642857D01*
X40107200Y-26642857D02*
X40154819Y-26547619D01*
X40154819Y-26547619D02*
X40154819Y-26452381D01*
X40154819Y-26452381D02*
X40107200Y-26357143D01*
X40107200Y-26357143D02*
X40059580Y-26309524D01*
X40059580Y-26309524D02*
X39964342Y-26261905D01*
X39964342Y-26261905D02*
X39773866Y-26214286D01*
X39773866Y-26214286D02*
X39535771Y-26214286D01*
X39535771Y-26214286D02*
X39345295Y-26261905D01*
X39345295Y-26261905D02*
X39250057Y-26309524D01*
X39250057Y-26309524D02*
X39202438Y-26357143D01*
X39202438Y-26357143D02*
X39154819Y-26452381D01*
X40154819Y-27261905D02*
X40154819Y-27452381D01*
X40154819Y-27452381D02*
X40107200Y-27547619D01*
X40107200Y-27547619D02*
X40059580Y-27595238D01*
X40059580Y-27595238D02*
X39916723Y-27690476D01*
X39916723Y-27690476D02*
X39726247Y-27738095D01*
X39726247Y-27738095D02*
X39345295Y-27738095D01*
X39345295Y-27738095D02*
X39250057Y-27690476D01*
X39250057Y-27690476D02*
X39202438Y-27642857D01*
X39202438Y-27642857D02*
X39154819Y-27547619D01*
X39154819Y-27547619D02*
X39154819Y-27357143D01*
X39154819Y-27357143D02*
X39202438Y-27261905D01*
X39202438Y-27261905D02*
X39250057Y-27214286D01*
X39250057Y-27214286D02*
X39345295Y-27166667D01*
X39345295Y-27166667D02*
X39583390Y-27166667D01*
X39583390Y-27166667D02*
X39678628Y-27214286D01*
X39678628Y-27214286D02*
X39726247Y-27261905D01*
X39726247Y-27261905D02*
X39773866Y-27357143D01*
X39773866Y-27357143D02*
X39773866Y-27547619D01*
X39773866Y-27547619D02*
X39726247Y-27642857D01*
X39726247Y-27642857D02*
X39678628Y-27690476D01*
X39678628Y-27690476D02*
X39583390Y-27738095D01*
X148166666Y-4174819D02*
X148499999Y-3698628D01*
X148738094Y-4174819D02*
X148738094Y-3174819D01*
X148738094Y-3174819D02*
X148357142Y-3174819D01*
X148357142Y-3174819D02*
X148261904Y-3222438D01*
X148261904Y-3222438D02*
X148214285Y-3270057D01*
X148214285Y-3270057D02*
X148166666Y-3365295D01*
X148166666Y-3365295D02*
X148166666Y-3508152D01*
X148166666Y-3508152D02*
X148214285Y-3603390D01*
X148214285Y-3603390D02*
X148261904Y-3651009D01*
X148261904Y-3651009D02*
X148357142Y-3698628D01*
X148357142Y-3698628D02*
X148738094Y-3698628D01*
X147595237Y-3603390D02*
X147690475Y-3555771D01*
X147690475Y-3555771D02*
X147738094Y-3508152D01*
X147738094Y-3508152D02*
X147785713Y-3412914D01*
X147785713Y-3412914D02*
X147785713Y-3365295D01*
X147785713Y-3365295D02*
X147738094Y-3270057D01*
X147738094Y-3270057D02*
X147690475Y-3222438D01*
X147690475Y-3222438D02*
X147595237Y-3174819D01*
X147595237Y-3174819D02*
X147404761Y-3174819D01*
X147404761Y-3174819D02*
X147309523Y-3222438D01*
X147309523Y-3222438D02*
X147261904Y-3270057D01*
X147261904Y-3270057D02*
X147214285Y-3365295D01*
X147214285Y-3365295D02*
X147214285Y-3412914D01*
X147214285Y-3412914D02*
X147261904Y-3508152D01*
X147261904Y-3508152D02*
X147309523Y-3555771D01*
X147309523Y-3555771D02*
X147404761Y-3603390D01*
X147404761Y-3603390D02*
X147595237Y-3603390D01*
X147595237Y-3603390D02*
X147690475Y-3651009D01*
X147690475Y-3651009D02*
X147738094Y-3698628D01*
X147738094Y-3698628D02*
X147785713Y-3793866D01*
X147785713Y-3793866D02*
X147785713Y-3984342D01*
X147785713Y-3984342D02*
X147738094Y-4079580D01*
X147738094Y-4079580D02*
X147690475Y-4127200D01*
X147690475Y-4127200D02*
X147595237Y-4174819D01*
X147595237Y-4174819D02*
X147404761Y-4174819D01*
X147404761Y-4174819D02*
X147309523Y-4127200D01*
X147309523Y-4127200D02*
X147261904Y-4079580D01*
X147261904Y-4079580D02*
X147214285Y-3984342D01*
X147214285Y-3984342D02*
X147214285Y-3793866D01*
X147214285Y-3793866D02*
X147261904Y-3698628D01*
X147261904Y-3698628D02*
X147309523Y-3651009D01*
X147309523Y-3651009D02*
X147404761Y-3603390D01*
X40184819Y-18357142D02*
X39708628Y-18023809D01*
X40184819Y-17785714D02*
X39184819Y-17785714D01*
X39184819Y-17785714D02*
X39184819Y-18166666D01*
X39184819Y-18166666D02*
X39232438Y-18261904D01*
X39232438Y-18261904D02*
X39280057Y-18309523D01*
X39280057Y-18309523D02*
X39375295Y-18357142D01*
X39375295Y-18357142D02*
X39518152Y-18357142D01*
X39518152Y-18357142D02*
X39613390Y-18309523D01*
X39613390Y-18309523D02*
X39661009Y-18261904D01*
X39661009Y-18261904D02*
X39708628Y-18166666D01*
X39708628Y-18166666D02*
X39708628Y-17785714D01*
X39184819Y-18690476D02*
X39184819Y-19357142D01*
X39184819Y-19357142D02*
X40184819Y-18928571D01*
X39184819Y-20214285D02*
X39184819Y-19738095D01*
X39184819Y-19738095D02*
X39661009Y-19690476D01*
X39661009Y-19690476D02*
X39613390Y-19738095D01*
X39613390Y-19738095D02*
X39565771Y-19833333D01*
X39565771Y-19833333D02*
X39565771Y-20071428D01*
X39565771Y-20071428D02*
X39613390Y-20166666D01*
X39613390Y-20166666D02*
X39661009Y-20214285D01*
X39661009Y-20214285D02*
X39756247Y-20261904D01*
X39756247Y-20261904D02*
X39994342Y-20261904D01*
X39994342Y-20261904D02*
X40089580Y-20214285D01*
X40089580Y-20214285D02*
X40137200Y-20166666D01*
X40137200Y-20166666D02*
X40184819Y-20071428D01*
X40184819Y-20071428D02*
X40184819Y-19833333D01*
X40184819Y-19833333D02*
X40137200Y-19738095D01*
X40137200Y-19738095D02*
X40089580Y-19690476D01*
D12*
X97304318Y-18606904D02*
X97304318Y-19453571D01*
X97304318Y-19453571D02*
X98574318Y-18606904D01*
X98574318Y-18606904D02*
X98574318Y-19453571D01*
X97304318Y-20542142D02*
X97304318Y-19937380D01*
X97304318Y-19937380D02*
X97909080Y-19876904D01*
X97909080Y-19876904D02*
X97848603Y-19937380D01*
X97848603Y-19937380D02*
X97788127Y-20058333D01*
X97788127Y-20058333D02*
X97788127Y-20360714D01*
X97788127Y-20360714D02*
X97848603Y-20481666D01*
X97848603Y-20481666D02*
X97909080Y-20542142D01*
X97909080Y-20542142D02*
X98030032Y-20602619D01*
X98030032Y-20602619D02*
X98332413Y-20602619D01*
X98332413Y-20602619D02*
X98453365Y-20542142D01*
X98453365Y-20542142D02*
X98513842Y-20481666D01*
X98513842Y-20481666D02*
X98574318Y-20360714D01*
X98574318Y-20360714D02*
X98574318Y-20058333D01*
X98574318Y-20058333D02*
X98513842Y-19937380D01*
X98513842Y-19937380D02*
X98453365Y-19876904D01*
D11*
X105359580Y-13880952D02*
X105407200Y-13833333D01*
X105407200Y-13833333D02*
X105454819Y-13690476D01*
X105454819Y-13690476D02*
X105454819Y-13595238D01*
X105454819Y-13595238D02*
X105407200Y-13452381D01*
X105407200Y-13452381D02*
X105311961Y-13357143D01*
X105311961Y-13357143D02*
X105216723Y-13309524D01*
X105216723Y-13309524D02*
X105026247Y-13261905D01*
X105026247Y-13261905D02*
X104883390Y-13261905D01*
X104883390Y-13261905D02*
X104692914Y-13309524D01*
X104692914Y-13309524D02*
X104597676Y-13357143D01*
X104597676Y-13357143D02*
X104502438Y-13452381D01*
X104502438Y-13452381D02*
X104454819Y-13595238D01*
X104454819Y-13595238D02*
X104454819Y-13690476D01*
X104454819Y-13690476D02*
X104502438Y-13833333D01*
X104502438Y-13833333D02*
X104550057Y-13880952D01*
X105454819Y-14833333D02*
X105454819Y-14261905D01*
X105454819Y-14547619D02*
X104454819Y-14547619D01*
X104454819Y-14547619D02*
X104597676Y-14452381D01*
X104597676Y-14452381D02*
X104692914Y-14357143D01*
X104692914Y-14357143D02*
X104740533Y-14261905D01*
X105454819Y-15785714D02*
X105454819Y-15214286D01*
X105454819Y-15500000D02*
X104454819Y-15500000D01*
X104454819Y-15500000D02*
X104597676Y-15404762D01*
X104597676Y-15404762D02*
X104692914Y-15309524D01*
X104692914Y-15309524D02*
X104740533Y-15214286D01*
X104550057Y-16166667D02*
X104502438Y-16214286D01*
X104502438Y-16214286D02*
X104454819Y-16309524D01*
X104454819Y-16309524D02*
X104454819Y-16547619D01*
X104454819Y-16547619D02*
X104502438Y-16642857D01*
X104502438Y-16642857D02*
X104550057Y-16690476D01*
X104550057Y-16690476D02*
X104645295Y-16738095D01*
X104645295Y-16738095D02*
X104740533Y-16738095D01*
X104740533Y-16738095D02*
X104883390Y-16690476D01*
X104883390Y-16690476D02*
X105454819Y-16119048D01*
X105454819Y-16119048D02*
X105454819Y-16738095D01*
X33642857Y-19174819D02*
X33976190Y-18698628D01*
X34214285Y-19174819D02*
X34214285Y-18174819D01*
X34214285Y-18174819D02*
X33833333Y-18174819D01*
X33833333Y-18174819D02*
X33738095Y-18222438D01*
X33738095Y-18222438D02*
X33690476Y-18270057D01*
X33690476Y-18270057D02*
X33642857Y-18365295D01*
X33642857Y-18365295D02*
X33642857Y-18508152D01*
X33642857Y-18508152D02*
X33690476Y-18603390D01*
X33690476Y-18603390D02*
X33738095Y-18651009D01*
X33738095Y-18651009D02*
X33833333Y-18698628D01*
X33833333Y-18698628D02*
X34214285Y-18698628D01*
X33309523Y-18174819D02*
X32642857Y-18174819D01*
X32642857Y-18174819D02*
X33071428Y-19174819D01*
X32357142Y-18174819D02*
X31690476Y-18174819D01*
X31690476Y-18174819D02*
X32119047Y-19174819D01*
X28092857Y-19174819D02*
X28426190Y-18698628D01*
X28664285Y-19174819D02*
X28664285Y-18174819D01*
X28664285Y-18174819D02*
X28283333Y-18174819D01*
X28283333Y-18174819D02*
X28188095Y-18222438D01*
X28188095Y-18222438D02*
X28140476Y-18270057D01*
X28140476Y-18270057D02*
X28092857Y-18365295D01*
X28092857Y-18365295D02*
X28092857Y-18508152D01*
X28092857Y-18508152D02*
X28140476Y-18603390D01*
X28140476Y-18603390D02*
X28188095Y-18651009D01*
X28188095Y-18651009D02*
X28283333Y-18698628D01*
X28283333Y-18698628D02*
X28664285Y-18698628D01*
X27759523Y-18174819D02*
X27092857Y-18174819D01*
X27092857Y-18174819D02*
X27521428Y-19174819D01*
X26569047Y-18603390D02*
X26664285Y-18555771D01*
X26664285Y-18555771D02*
X26711904Y-18508152D01*
X26711904Y-18508152D02*
X26759523Y-18412914D01*
X26759523Y-18412914D02*
X26759523Y-18365295D01*
X26759523Y-18365295D02*
X26711904Y-18270057D01*
X26711904Y-18270057D02*
X26664285Y-18222438D01*
X26664285Y-18222438D02*
X26569047Y-18174819D01*
X26569047Y-18174819D02*
X26378571Y-18174819D01*
X26378571Y-18174819D02*
X26283333Y-18222438D01*
X26283333Y-18222438D02*
X26235714Y-18270057D01*
X26235714Y-18270057D02*
X26188095Y-18365295D01*
X26188095Y-18365295D02*
X26188095Y-18412914D01*
X26188095Y-18412914D02*
X26235714Y-18508152D01*
X26235714Y-18508152D02*
X26283333Y-18555771D01*
X26283333Y-18555771D02*
X26378571Y-18603390D01*
X26378571Y-18603390D02*
X26569047Y-18603390D01*
X26569047Y-18603390D02*
X26664285Y-18651009D01*
X26664285Y-18651009D02*
X26711904Y-18698628D01*
X26711904Y-18698628D02*
X26759523Y-18793866D01*
X26759523Y-18793866D02*
X26759523Y-18984342D01*
X26759523Y-18984342D02*
X26711904Y-19079580D01*
X26711904Y-19079580D02*
X26664285Y-19127200D01*
X26664285Y-19127200D02*
X26569047Y-19174819D01*
X26569047Y-19174819D02*
X26378571Y-19174819D01*
X26378571Y-19174819D02*
X26283333Y-19127200D01*
X26283333Y-19127200D02*
X26235714Y-19079580D01*
X26235714Y-19079580D02*
X26188095Y-18984342D01*
X26188095Y-18984342D02*
X26188095Y-18793866D01*
X26188095Y-18793866D02*
X26235714Y-18698628D01*
X26235714Y-18698628D02*
X26283333Y-18651009D01*
X26283333Y-18651009D02*
X26378571Y-18603390D01*
X110669047Y-23369819D02*
X111002380Y-22893628D01*
X111240475Y-23369819D02*
X111240475Y-22369819D01*
X111240475Y-22369819D02*
X110859523Y-22369819D01*
X110859523Y-22369819D02*
X110764285Y-22417438D01*
X110764285Y-22417438D02*
X110716666Y-22465057D01*
X110716666Y-22465057D02*
X110669047Y-22560295D01*
X110669047Y-22560295D02*
X110669047Y-22703152D01*
X110669047Y-22703152D02*
X110716666Y-22798390D01*
X110716666Y-22798390D02*
X110764285Y-22846009D01*
X110764285Y-22846009D02*
X110859523Y-22893628D01*
X110859523Y-22893628D02*
X111240475Y-22893628D01*
X109716666Y-23369819D02*
X110288094Y-23369819D01*
X110002380Y-23369819D02*
X110002380Y-22369819D01*
X110002380Y-22369819D02*
X110097618Y-22512676D01*
X110097618Y-22512676D02*
X110192856Y-22607914D01*
X110192856Y-22607914D02*
X110288094Y-22655533D01*
X109097618Y-22369819D02*
X109002380Y-22369819D01*
X109002380Y-22369819D02*
X108907142Y-22417438D01*
X108907142Y-22417438D02*
X108859523Y-22465057D01*
X108859523Y-22465057D02*
X108811904Y-22560295D01*
X108811904Y-22560295D02*
X108764285Y-22750771D01*
X108764285Y-22750771D02*
X108764285Y-22988866D01*
X108764285Y-22988866D02*
X108811904Y-23179342D01*
X108811904Y-23179342D02*
X108859523Y-23274580D01*
X108859523Y-23274580D02*
X108907142Y-23322200D01*
X108907142Y-23322200D02*
X109002380Y-23369819D01*
X109002380Y-23369819D02*
X109097618Y-23369819D01*
X109097618Y-23369819D02*
X109192856Y-23322200D01*
X109192856Y-23322200D02*
X109240475Y-23274580D01*
X109240475Y-23274580D02*
X109288094Y-23179342D01*
X109288094Y-23179342D02*
X109335713Y-22988866D01*
X109335713Y-22988866D02*
X109335713Y-22750771D01*
X109335713Y-22750771D02*
X109288094Y-22560295D01*
X109288094Y-22560295D02*
X109240475Y-22465057D01*
X109240475Y-22465057D02*
X109192856Y-22417438D01*
X109192856Y-22417438D02*
X109097618Y-22369819D01*
X108145237Y-22369819D02*
X108049999Y-22369819D01*
X108049999Y-22369819D02*
X107954761Y-22417438D01*
X107954761Y-22417438D02*
X107907142Y-22465057D01*
X107907142Y-22465057D02*
X107859523Y-22560295D01*
X107859523Y-22560295D02*
X107811904Y-22750771D01*
X107811904Y-22750771D02*
X107811904Y-22988866D01*
X107811904Y-22988866D02*
X107859523Y-23179342D01*
X107859523Y-23179342D02*
X107907142Y-23274580D01*
X107907142Y-23274580D02*
X107954761Y-23322200D01*
X107954761Y-23322200D02*
X108049999Y-23369819D01*
X108049999Y-23369819D02*
X108145237Y-23369819D01*
X108145237Y-23369819D02*
X108240475Y-23322200D01*
X108240475Y-23322200D02*
X108288094Y-23274580D01*
X108288094Y-23274580D02*
X108335713Y-23179342D01*
X108335713Y-23179342D02*
X108383332Y-22988866D01*
X108383332Y-22988866D02*
X108383332Y-22750771D01*
X108383332Y-22750771D02*
X108335713Y-22560295D01*
X108335713Y-22560295D02*
X108288094Y-22465057D01*
X108288094Y-22465057D02*
X108240475Y-22417438D01*
X108240475Y-22417438D02*
X108145237Y-22369819D01*
X17092857Y-19174819D02*
X17426190Y-18698628D01*
X17664285Y-19174819D02*
X17664285Y-18174819D01*
X17664285Y-18174819D02*
X17283333Y-18174819D01*
X17283333Y-18174819D02*
X17188095Y-18222438D01*
X17188095Y-18222438D02*
X17140476Y-18270057D01*
X17140476Y-18270057D02*
X17092857Y-18365295D01*
X17092857Y-18365295D02*
X17092857Y-18508152D01*
X17092857Y-18508152D02*
X17140476Y-18603390D01*
X17140476Y-18603390D02*
X17188095Y-18651009D01*
X17188095Y-18651009D02*
X17283333Y-18698628D01*
X17283333Y-18698628D02*
X17664285Y-18698628D01*
X16521428Y-18603390D02*
X16616666Y-18555771D01*
X16616666Y-18555771D02*
X16664285Y-18508152D01*
X16664285Y-18508152D02*
X16711904Y-18412914D01*
X16711904Y-18412914D02*
X16711904Y-18365295D01*
X16711904Y-18365295D02*
X16664285Y-18270057D01*
X16664285Y-18270057D02*
X16616666Y-18222438D01*
X16616666Y-18222438D02*
X16521428Y-18174819D01*
X16521428Y-18174819D02*
X16330952Y-18174819D01*
X16330952Y-18174819D02*
X16235714Y-18222438D01*
X16235714Y-18222438D02*
X16188095Y-18270057D01*
X16188095Y-18270057D02*
X16140476Y-18365295D01*
X16140476Y-18365295D02*
X16140476Y-18412914D01*
X16140476Y-18412914D02*
X16188095Y-18508152D01*
X16188095Y-18508152D02*
X16235714Y-18555771D01*
X16235714Y-18555771D02*
X16330952Y-18603390D01*
X16330952Y-18603390D02*
X16521428Y-18603390D01*
X16521428Y-18603390D02*
X16616666Y-18651009D01*
X16616666Y-18651009D02*
X16664285Y-18698628D01*
X16664285Y-18698628D02*
X16711904Y-18793866D01*
X16711904Y-18793866D02*
X16711904Y-18984342D01*
X16711904Y-18984342D02*
X16664285Y-19079580D01*
X16664285Y-19079580D02*
X16616666Y-19127200D01*
X16616666Y-19127200D02*
X16521428Y-19174819D01*
X16521428Y-19174819D02*
X16330952Y-19174819D01*
X16330952Y-19174819D02*
X16235714Y-19127200D01*
X16235714Y-19127200D02*
X16188095Y-19079580D01*
X16188095Y-19079580D02*
X16140476Y-18984342D01*
X16140476Y-18984342D02*
X16140476Y-18793866D01*
X16140476Y-18793866D02*
X16188095Y-18698628D01*
X16188095Y-18698628D02*
X16235714Y-18651009D01*
X16235714Y-18651009D02*
X16330952Y-18603390D01*
X15521428Y-18174819D02*
X15426190Y-18174819D01*
X15426190Y-18174819D02*
X15330952Y-18222438D01*
X15330952Y-18222438D02*
X15283333Y-18270057D01*
X15283333Y-18270057D02*
X15235714Y-18365295D01*
X15235714Y-18365295D02*
X15188095Y-18555771D01*
X15188095Y-18555771D02*
X15188095Y-18793866D01*
X15188095Y-18793866D02*
X15235714Y-18984342D01*
X15235714Y-18984342D02*
X15283333Y-19079580D01*
X15283333Y-19079580D02*
X15330952Y-19127200D01*
X15330952Y-19127200D02*
X15426190Y-19174819D01*
X15426190Y-19174819D02*
X15521428Y-19174819D01*
X15521428Y-19174819D02*
X15616666Y-19127200D01*
X15616666Y-19127200D02*
X15664285Y-19079580D01*
X15664285Y-19079580D02*
X15711904Y-18984342D01*
X15711904Y-18984342D02*
X15759523Y-18793866D01*
X15759523Y-18793866D02*
X15759523Y-18555771D01*
X15759523Y-18555771D02*
X15711904Y-18365295D01*
X15711904Y-18365295D02*
X15664285Y-18270057D01*
X15664285Y-18270057D02*
X15616666Y-18222438D01*
X15616666Y-18222438D02*
X15521428Y-18174819D01*
X166034580Y-10262142D02*
X166082200Y-10214523D01*
X166082200Y-10214523D02*
X166129819Y-10071666D01*
X166129819Y-10071666D02*
X166129819Y-9976428D01*
X166129819Y-9976428D02*
X166082200Y-9833571D01*
X166082200Y-9833571D02*
X165986961Y-9738333D01*
X165986961Y-9738333D02*
X165891723Y-9690714D01*
X165891723Y-9690714D02*
X165701247Y-9643095D01*
X165701247Y-9643095D02*
X165558390Y-9643095D01*
X165558390Y-9643095D02*
X165367914Y-9690714D01*
X165367914Y-9690714D02*
X165272676Y-9738333D01*
X165272676Y-9738333D02*
X165177438Y-9833571D01*
X165177438Y-9833571D02*
X165129819Y-9976428D01*
X165129819Y-9976428D02*
X165129819Y-10071666D01*
X165129819Y-10071666D02*
X165177438Y-10214523D01*
X165177438Y-10214523D02*
X165225057Y-10262142D01*
X165225057Y-10643095D02*
X165177438Y-10690714D01*
X165177438Y-10690714D02*
X165129819Y-10785952D01*
X165129819Y-10785952D02*
X165129819Y-11024047D01*
X165129819Y-11024047D02*
X165177438Y-11119285D01*
X165177438Y-11119285D02*
X165225057Y-11166904D01*
X165225057Y-11166904D02*
X165320295Y-11214523D01*
X165320295Y-11214523D02*
X165415533Y-11214523D01*
X165415533Y-11214523D02*
X165558390Y-11166904D01*
X165558390Y-11166904D02*
X166129819Y-10595476D01*
X166129819Y-10595476D02*
X166129819Y-11214523D01*
X165558390Y-11785952D02*
X165510771Y-11690714D01*
X165510771Y-11690714D02*
X165463152Y-11643095D01*
X165463152Y-11643095D02*
X165367914Y-11595476D01*
X165367914Y-11595476D02*
X165320295Y-11595476D01*
X165320295Y-11595476D02*
X165225057Y-11643095D01*
X165225057Y-11643095D02*
X165177438Y-11690714D01*
X165177438Y-11690714D02*
X165129819Y-11785952D01*
X165129819Y-11785952D02*
X165129819Y-11976428D01*
X165129819Y-11976428D02*
X165177438Y-12071666D01*
X165177438Y-12071666D02*
X165225057Y-12119285D01*
X165225057Y-12119285D02*
X165320295Y-12166904D01*
X165320295Y-12166904D02*
X165367914Y-12166904D01*
X165367914Y-12166904D02*
X165463152Y-12119285D01*
X165463152Y-12119285D02*
X165510771Y-12071666D01*
X165510771Y-12071666D02*
X165558390Y-11976428D01*
X165558390Y-11976428D02*
X165558390Y-11785952D01*
X165558390Y-11785952D02*
X165606009Y-11690714D01*
X165606009Y-11690714D02*
X165653628Y-11643095D01*
X165653628Y-11643095D02*
X165748866Y-11595476D01*
X165748866Y-11595476D02*
X165939342Y-11595476D01*
X165939342Y-11595476D02*
X166034580Y-11643095D01*
X166034580Y-11643095D02*
X166082200Y-11690714D01*
X166082200Y-11690714D02*
X166129819Y-11785952D01*
X166129819Y-11785952D02*
X166129819Y-11976428D01*
X166129819Y-11976428D02*
X166082200Y-12071666D01*
X166082200Y-12071666D02*
X166034580Y-12119285D01*
X166034580Y-12119285D02*
X165939342Y-12166904D01*
X165939342Y-12166904D02*
X165748866Y-12166904D01*
X165748866Y-12166904D02*
X165653628Y-12119285D01*
X165653628Y-12119285D02*
X165606009Y-12071666D01*
X165606009Y-12071666D02*
X165558390Y-11976428D01*
X33642857Y-30174819D02*
X33976190Y-29698628D01*
X34214285Y-30174819D02*
X34214285Y-29174819D01*
X34214285Y-29174819D02*
X33833333Y-29174819D01*
X33833333Y-29174819D02*
X33738095Y-29222438D01*
X33738095Y-29222438D02*
X33690476Y-29270057D01*
X33690476Y-29270057D02*
X33642857Y-29365295D01*
X33642857Y-29365295D02*
X33642857Y-29508152D01*
X33642857Y-29508152D02*
X33690476Y-29603390D01*
X33690476Y-29603390D02*
X33738095Y-29651009D01*
X33738095Y-29651009D02*
X33833333Y-29698628D01*
X33833333Y-29698628D02*
X34214285Y-29698628D01*
X33071428Y-29603390D02*
X33166666Y-29555771D01*
X33166666Y-29555771D02*
X33214285Y-29508152D01*
X33214285Y-29508152D02*
X33261904Y-29412914D01*
X33261904Y-29412914D02*
X33261904Y-29365295D01*
X33261904Y-29365295D02*
X33214285Y-29270057D01*
X33214285Y-29270057D02*
X33166666Y-29222438D01*
X33166666Y-29222438D02*
X33071428Y-29174819D01*
X33071428Y-29174819D02*
X32880952Y-29174819D01*
X32880952Y-29174819D02*
X32785714Y-29222438D01*
X32785714Y-29222438D02*
X32738095Y-29270057D01*
X32738095Y-29270057D02*
X32690476Y-29365295D01*
X32690476Y-29365295D02*
X32690476Y-29412914D01*
X32690476Y-29412914D02*
X32738095Y-29508152D01*
X32738095Y-29508152D02*
X32785714Y-29555771D01*
X32785714Y-29555771D02*
X32880952Y-29603390D01*
X32880952Y-29603390D02*
X33071428Y-29603390D01*
X33071428Y-29603390D02*
X33166666Y-29651009D01*
X33166666Y-29651009D02*
X33214285Y-29698628D01*
X33214285Y-29698628D02*
X33261904Y-29793866D01*
X33261904Y-29793866D02*
X33261904Y-29984342D01*
X33261904Y-29984342D02*
X33214285Y-30079580D01*
X33214285Y-30079580D02*
X33166666Y-30127200D01*
X33166666Y-30127200D02*
X33071428Y-30174819D01*
X33071428Y-30174819D02*
X32880952Y-30174819D01*
X32880952Y-30174819D02*
X32785714Y-30127200D01*
X32785714Y-30127200D02*
X32738095Y-30079580D01*
X32738095Y-30079580D02*
X32690476Y-29984342D01*
X32690476Y-29984342D02*
X32690476Y-29793866D01*
X32690476Y-29793866D02*
X32738095Y-29698628D01*
X32738095Y-29698628D02*
X32785714Y-29651009D01*
X32785714Y-29651009D02*
X32880952Y-29603390D01*
X32214285Y-30174819D02*
X32023809Y-30174819D01*
X32023809Y-30174819D02*
X31928571Y-30127200D01*
X31928571Y-30127200D02*
X31880952Y-30079580D01*
X31880952Y-30079580D02*
X31785714Y-29936723D01*
X31785714Y-29936723D02*
X31738095Y-29746247D01*
X31738095Y-29746247D02*
X31738095Y-29365295D01*
X31738095Y-29365295D02*
X31785714Y-29270057D01*
X31785714Y-29270057D02*
X31833333Y-29222438D01*
X31833333Y-29222438D02*
X31928571Y-29174819D01*
X31928571Y-29174819D02*
X32119047Y-29174819D01*
X32119047Y-29174819D02*
X32214285Y-29222438D01*
X32214285Y-29222438D02*
X32261904Y-29270057D01*
X32261904Y-29270057D02*
X32309523Y-29365295D01*
X32309523Y-29365295D02*
X32309523Y-29603390D01*
X32309523Y-29603390D02*
X32261904Y-29698628D01*
X32261904Y-29698628D02*
X32214285Y-29746247D01*
X32214285Y-29746247D02*
X32119047Y-29793866D01*
X32119047Y-29793866D02*
X31928571Y-29793866D01*
X31928571Y-29793866D02*
X31833333Y-29746247D01*
X31833333Y-29746247D02*
X31785714Y-29698628D01*
X31785714Y-29698628D02*
X31738095Y-29603390D01*
X54059580Y-15554642D02*
X54107200Y-15507023D01*
X54107200Y-15507023D02*
X54154819Y-15364166D01*
X54154819Y-15364166D02*
X54154819Y-15268928D01*
X54154819Y-15268928D02*
X54107200Y-15126071D01*
X54107200Y-15126071D02*
X54011961Y-15030833D01*
X54011961Y-15030833D02*
X53916723Y-14983214D01*
X53916723Y-14983214D02*
X53726247Y-14935595D01*
X53726247Y-14935595D02*
X53583390Y-14935595D01*
X53583390Y-14935595D02*
X53392914Y-14983214D01*
X53392914Y-14983214D02*
X53297676Y-15030833D01*
X53297676Y-15030833D02*
X53202438Y-15126071D01*
X53202438Y-15126071D02*
X53154819Y-15268928D01*
X53154819Y-15268928D02*
X53154819Y-15364166D01*
X53154819Y-15364166D02*
X53202438Y-15507023D01*
X53202438Y-15507023D02*
X53250057Y-15554642D01*
X54154819Y-16507023D02*
X54154819Y-15935595D01*
X54154819Y-16221309D02*
X53154819Y-16221309D01*
X53154819Y-16221309D02*
X53297676Y-16126071D01*
X53297676Y-16126071D02*
X53392914Y-16030833D01*
X53392914Y-16030833D02*
X53440533Y-15935595D01*
X53154819Y-17126071D02*
X53154819Y-17221309D01*
X53154819Y-17221309D02*
X53202438Y-17316547D01*
X53202438Y-17316547D02*
X53250057Y-17364166D01*
X53250057Y-17364166D02*
X53345295Y-17411785D01*
X53345295Y-17411785D02*
X53535771Y-17459404D01*
X53535771Y-17459404D02*
X53773866Y-17459404D01*
X53773866Y-17459404D02*
X53964342Y-17411785D01*
X53964342Y-17411785D02*
X54059580Y-17364166D01*
X54059580Y-17364166D02*
X54107200Y-17316547D01*
X54107200Y-17316547D02*
X54154819Y-17221309D01*
X54154819Y-17221309D02*
X54154819Y-17126071D01*
X54154819Y-17126071D02*
X54107200Y-17030833D01*
X54107200Y-17030833D02*
X54059580Y-16983214D01*
X54059580Y-16983214D02*
X53964342Y-16935595D01*
X53964342Y-16935595D02*
X53773866Y-16887976D01*
X53773866Y-16887976D02*
X53535771Y-16887976D01*
X53535771Y-16887976D02*
X53345295Y-16935595D01*
X53345295Y-16935595D02*
X53250057Y-16983214D01*
X53250057Y-16983214D02*
X53202438Y-17030833D01*
X53202438Y-17030833D02*
X53154819Y-17126071D01*
X17092857Y-30174819D02*
X17426190Y-29698628D01*
X17664285Y-30174819D02*
X17664285Y-29174819D01*
X17664285Y-29174819D02*
X17283333Y-29174819D01*
X17283333Y-29174819D02*
X17188095Y-29222438D01*
X17188095Y-29222438D02*
X17140476Y-29270057D01*
X17140476Y-29270057D02*
X17092857Y-29365295D01*
X17092857Y-29365295D02*
X17092857Y-29508152D01*
X17092857Y-29508152D02*
X17140476Y-29603390D01*
X17140476Y-29603390D02*
X17188095Y-29651009D01*
X17188095Y-29651009D02*
X17283333Y-29698628D01*
X17283333Y-29698628D02*
X17664285Y-29698628D01*
X16616666Y-30174819D02*
X16426190Y-30174819D01*
X16426190Y-30174819D02*
X16330952Y-30127200D01*
X16330952Y-30127200D02*
X16283333Y-30079580D01*
X16283333Y-30079580D02*
X16188095Y-29936723D01*
X16188095Y-29936723D02*
X16140476Y-29746247D01*
X16140476Y-29746247D02*
X16140476Y-29365295D01*
X16140476Y-29365295D02*
X16188095Y-29270057D01*
X16188095Y-29270057D02*
X16235714Y-29222438D01*
X16235714Y-29222438D02*
X16330952Y-29174819D01*
X16330952Y-29174819D02*
X16521428Y-29174819D01*
X16521428Y-29174819D02*
X16616666Y-29222438D01*
X16616666Y-29222438D02*
X16664285Y-29270057D01*
X16664285Y-29270057D02*
X16711904Y-29365295D01*
X16711904Y-29365295D02*
X16711904Y-29603390D01*
X16711904Y-29603390D02*
X16664285Y-29698628D01*
X16664285Y-29698628D02*
X16616666Y-29746247D01*
X16616666Y-29746247D02*
X16521428Y-29793866D01*
X16521428Y-29793866D02*
X16330952Y-29793866D01*
X16330952Y-29793866D02*
X16235714Y-29746247D01*
X16235714Y-29746247D02*
X16188095Y-29698628D01*
X16188095Y-29698628D02*
X16140476Y-29603390D01*
X15759523Y-29270057D02*
X15711904Y-29222438D01*
X15711904Y-29222438D02*
X15616666Y-29174819D01*
X15616666Y-29174819D02*
X15378571Y-29174819D01*
X15378571Y-29174819D02*
X15283333Y-29222438D01*
X15283333Y-29222438D02*
X15235714Y-29270057D01*
X15235714Y-29270057D02*
X15188095Y-29365295D01*
X15188095Y-29365295D02*
X15188095Y-29460533D01*
X15188095Y-29460533D02*
X15235714Y-29603390D01*
X15235714Y-29603390D02*
X15807142Y-30174819D01*
X15807142Y-30174819D02*
X15188095Y-30174819D01*
X50059580Y-15429642D02*
X50107200Y-15382023D01*
X50107200Y-15382023D02*
X50154819Y-15239166D01*
X50154819Y-15239166D02*
X50154819Y-15143928D01*
X50154819Y-15143928D02*
X50107200Y-15001071D01*
X50107200Y-15001071D02*
X50011961Y-14905833D01*
X50011961Y-14905833D02*
X49916723Y-14858214D01*
X49916723Y-14858214D02*
X49726247Y-14810595D01*
X49726247Y-14810595D02*
X49583390Y-14810595D01*
X49583390Y-14810595D02*
X49392914Y-14858214D01*
X49392914Y-14858214D02*
X49297676Y-14905833D01*
X49297676Y-14905833D02*
X49202438Y-15001071D01*
X49202438Y-15001071D02*
X49154819Y-15143928D01*
X49154819Y-15143928D02*
X49154819Y-15239166D01*
X49154819Y-15239166D02*
X49202438Y-15382023D01*
X49202438Y-15382023D02*
X49250057Y-15429642D01*
X50154819Y-16382023D02*
X50154819Y-15810595D01*
X50154819Y-16096309D02*
X49154819Y-16096309D01*
X49154819Y-16096309D02*
X49297676Y-16001071D01*
X49297676Y-16001071D02*
X49392914Y-15905833D01*
X49392914Y-15905833D02*
X49440533Y-15810595D01*
X49250057Y-16762976D02*
X49202438Y-16810595D01*
X49202438Y-16810595D02*
X49154819Y-16905833D01*
X49154819Y-16905833D02*
X49154819Y-17143928D01*
X49154819Y-17143928D02*
X49202438Y-17239166D01*
X49202438Y-17239166D02*
X49250057Y-17286785D01*
X49250057Y-17286785D02*
X49345295Y-17334404D01*
X49345295Y-17334404D02*
X49440533Y-17334404D01*
X49440533Y-17334404D02*
X49583390Y-17286785D01*
X49583390Y-17286785D02*
X50154819Y-16715357D01*
X50154819Y-16715357D02*
X50154819Y-17334404D01*
D13*
%TO.C,R91*%
X22723737Y-30645000D02*
X21276263Y-30645000D01*
X22723737Y-33355000D02*
X21276263Y-33355000D01*
%TO.C,J3*%
X225920000Y-50880000D02*
X225920000Y-53480000D01*
X225920000Y-50880000D02*
X246360000Y-50880000D01*
X225920000Y-53480000D02*
X228520000Y-53480000D01*
X225920000Y-54750000D02*
X225920000Y-56080000D01*
X225920000Y-56080000D02*
X227250000Y-56080000D01*
X228520000Y-53480000D02*
X228520000Y-56080000D01*
X228520000Y-56080000D02*
X246360000Y-56080000D01*
X246360000Y-50880000D02*
X246360000Y-56080000D01*
%TO.C,R81*%
X36095000Y-25276263D02*
X36095000Y-26723737D01*
X38805000Y-25276263D02*
X38805000Y-26723737D01*
%TO.C,R79*%
X22723737Y-19645000D02*
X21276263Y-19645000D01*
X22723737Y-22355000D02*
X21276263Y-22355000D01*
%TO.C,R104*%
X108826263Y-9280000D02*
X110273737Y-9280000D01*
X108826263Y-11990000D02*
X110273737Y-11990000D01*
%TO.C,R90*%
X28173737Y-30645000D02*
X26726263Y-30645000D01*
X28173737Y-33355000D02*
X26726263Y-33355000D01*
%TO.C,C136*%
X256288748Y-3640000D02*
X257711252Y-3640000D01*
X256288748Y-6360000D02*
X257711252Y-6360000D01*
%TO.C,C4*%
X67140000Y-26346252D02*
X67140000Y-24923748D01*
X69860000Y-26346252D02*
X69860000Y-24923748D01*
%TO.C,C110*%
X40640000Y-31838748D02*
X40640000Y-33261252D01*
X43360000Y-31838748D02*
X43360000Y-33261252D01*
%TO.C,C2*%
X69640000Y-8923748D02*
X69640000Y-10346252D01*
X72360000Y-8923748D02*
X72360000Y-10346252D01*
%TO.C,R102*%
X108826263Y-14280000D02*
X110273737Y-14280000D01*
X108826263Y-16990000D02*
X110273737Y-16990000D01*
%TO.C,R93*%
X36095000Y-38726263D02*
X36095000Y-40173737D01*
X38805000Y-38726263D02*
X38805000Y-40173737D01*
%TO.C,C29*%
X147148752Y-8640000D02*
X145726248Y-8640000D01*
X147148752Y-11360000D02*
X145726248Y-11360000D01*
%TO.C,C138*%
X241288748Y-39640000D02*
X242711252Y-39640000D01*
X241288748Y-42360000D02*
X242711252Y-42360000D01*
%TO.C,C5*%
X82640000Y-8923748D02*
X82640000Y-10346252D01*
X85360000Y-8923748D02*
X85360000Y-10346252D01*
%TO.C,C124*%
X277640000Y-3711252D02*
X277640000Y-2288748D01*
X280360000Y-3711252D02*
X280360000Y-2288748D01*
D14*
%TO.C,Z7*%
X95200000Y-9975000D02*
X95200000Y-7295000D01*
X96800000Y-10960000D02*
X96800000Y-7295000D01*
D13*
%TO.C,R103*%
X99145000Y-9358737D02*
X99145000Y-7911263D01*
X101855000Y-9358737D02*
X101855000Y-7911263D01*
D15*
%TO.C,J6*%
X500000Y-39000000D02*
X500000Y-39000000D01*
X600000Y-39000000D02*
X600000Y-39000000D01*
D14*
X1100000Y-10260000D02*
X1100000Y-42340000D01*
X1100000Y-42340000D02*
X9600000Y-42340000D01*
X9600000Y-10260000D02*
X1100000Y-10260000D01*
X9600000Y-42340000D02*
X9600000Y-10260000D01*
D15*
X500000Y-39000000D02*
G75*
G02*
X600000Y-39000000I50000J0D01*
G01*
X600000Y-39000000D02*
G75*
G02*
X500000Y-39000000I-50000J0D01*
G01*
D13*
%TO.C,C34*%
X177386252Y-18545000D02*
X175963748Y-18545000D01*
X177386252Y-21265000D02*
X175963748Y-21265000D01*
%TO.C,C114*%
X103640000Y-9346252D02*
X103640000Y-7923748D01*
X106360000Y-9346252D02*
X106360000Y-7923748D01*
%TO.C,R9*%
X189645000Y-6276263D02*
X189645000Y-7723737D01*
X192355000Y-6276263D02*
X192355000Y-7723737D01*
%TO.C,C9*%
X54640000Y-26346252D02*
X54640000Y-24923748D01*
X57360000Y-26346252D02*
X57360000Y-24923748D01*
%TO.C,C33*%
X175963748Y-22545000D02*
X177386252Y-22545000D01*
X175963748Y-25265000D02*
X177386252Y-25265000D01*
%TO.C,R99*%
X99145000Y-20358737D02*
X99145000Y-18911263D01*
X101855000Y-20358737D02*
X101855000Y-18911263D01*
%TO.C,C108*%
X40640000Y-19711252D02*
X40640000Y-18288748D01*
X43360000Y-19711252D02*
X43360000Y-18288748D01*
%TO.C,C11*%
X50640000Y-26346252D02*
X50640000Y-24923748D01*
X53360000Y-26346252D02*
X53360000Y-24923748D01*
%TO.C,C6*%
X82640000Y-19846252D02*
X82640000Y-18423748D01*
X85360000Y-19846252D02*
X85360000Y-18423748D01*
%TO.C,J2*%
X135920000Y-50880000D02*
X135920000Y-53480000D01*
X135920000Y-50880000D02*
X156360000Y-50880000D01*
X135920000Y-53480000D02*
X138520000Y-53480000D01*
X135920000Y-54750000D02*
X135920000Y-56080000D01*
X135920000Y-56080000D02*
X137250000Y-56080000D01*
X138520000Y-53480000D02*
X138520000Y-56080000D01*
X138520000Y-56080000D02*
X156360000Y-56080000D01*
X156360000Y-50880000D02*
X156360000Y-56080000D01*
%TO.C,R5*%
X103173737Y-24280000D02*
X101726263Y-24280000D01*
X103173737Y-26990000D02*
X101726263Y-26990000D01*
%TO.C,C137*%
X241288748Y-33640000D02*
X242711252Y-33640000D01*
X241288748Y-36360000D02*
X242711252Y-36360000D01*
%TO.C,C111*%
X40640000Y-38738748D02*
X40640000Y-40161252D01*
X43360000Y-38738748D02*
X43360000Y-40161252D01*
%TO.C,R88*%
X36095000Y-31826263D02*
X36095000Y-33273737D01*
X38805000Y-31826263D02*
X38805000Y-33273737D01*
%TO.C,R106*%
X108826263Y-4280000D02*
X110273737Y-4280000D01*
X108826263Y-6990000D02*
X110273737Y-6990000D01*
%TO.C,C32*%
X157315000Y-11616252D02*
X157315000Y-10193748D01*
X160035000Y-11616252D02*
X160035000Y-10193748D01*
%TO.C,J1*%
X45920000Y-50880000D02*
X45920000Y-53480000D01*
X45920000Y-50880000D02*
X66360000Y-50880000D01*
X45920000Y-53480000D02*
X48520000Y-53480000D01*
X45920000Y-54750000D02*
X45920000Y-56080000D01*
X45920000Y-56080000D02*
X47250000Y-56080000D01*
X48520000Y-53480000D02*
X48520000Y-56080000D01*
X48520000Y-56080000D02*
X66360000Y-56080000D01*
X66360000Y-50880000D02*
X66360000Y-56080000D01*
%TO.C,C109*%
X40640000Y-25288748D02*
X40640000Y-26711252D01*
X43360000Y-25288748D02*
X43360000Y-26711252D01*
%TO.C,R8*%
X148723737Y-4645000D02*
X147276263Y-4645000D01*
X148723737Y-7355000D02*
X147276263Y-7355000D01*
%TO.C,R75*%
X36095000Y-19723737D02*
X36095000Y-18276263D01*
X38805000Y-19723737D02*
X38805000Y-18276263D01*
D14*
%TO.C,Z5*%
X95200000Y-20975000D02*
X95200000Y-18295000D01*
X96800000Y-21960000D02*
X96800000Y-18295000D01*
D13*
%TO.C,C112*%
X103640000Y-20346252D02*
X103640000Y-18923748D01*
X106360000Y-20346252D02*
X106360000Y-18923748D01*
%TO.C,R77*%
X33723737Y-19645000D02*
X32276263Y-19645000D01*
X33723737Y-22355000D02*
X32276263Y-22355000D01*
%TO.C,R78*%
X28173737Y-19645000D02*
X26726263Y-19645000D01*
X28173737Y-22355000D02*
X26726263Y-22355000D01*
%TO.C,R100*%
X108826263Y-19280000D02*
X110273737Y-19280000D01*
X108826263Y-21990000D02*
X110273737Y-21990000D01*
%TO.C,R80*%
X17173737Y-19645000D02*
X15726263Y-19645000D01*
X17173737Y-22355000D02*
X15726263Y-22355000D01*
%TO.C,C28*%
X161315000Y-10631248D02*
X161315000Y-12053752D01*
X164035000Y-10631248D02*
X164035000Y-12053752D01*
%TO.C,R89*%
X33723737Y-30645000D02*
X32276263Y-30645000D01*
X33723737Y-33355000D02*
X32276263Y-33355000D01*
%TO.C,C10*%
X54640000Y-15486248D02*
X54640000Y-16908752D01*
X57360000Y-15486248D02*
X57360000Y-16908752D01*
%TO.C,R92*%
X17173737Y-30645000D02*
X15726263Y-30645000D01*
X17173737Y-33355000D02*
X15726263Y-33355000D01*
%TO.C,C12*%
X50640000Y-15361248D02*
X50640000Y-16783752D01*
X53360000Y-15361248D02*
X53360000Y-16783752D01*
%TD*%
D16*
%TO.C,J6*%
X5000000Y-39000000D03*
D17*
X5000000Y-33920000D03*
X5000000Y-28840000D03*
X5000000Y-23760000D03*
X5000000Y-18680000D03*
X5000000Y-13600000D03*
%TD*%
M02*
