M48
; DRILL file {KiCad 9.0.1} date 2026-02-07T15:36:26-0800
; FORMAT={-:-/ absolute / metric / decimal}
; #@! TF.CreationDate,2026-02-07T15:36:26-08:00
; #@! TF.GenerationSoftware,Kicad,Pcbnew,9.0.1
; #@! TF.FileFunction,Plated,1,6,PTH
FMAT,2
METRIC
; #@! TA.AperFunction,Plated,PTH,ViaDrill
T1C0.300
; #@! TA.AperFunction,Plated,PTH,ComponentDrill
T2C0.800
; #@! TA.AperFunction,Plated,PTH,ComponentDrill
T3C1.000
; #@! TA.AperFunction,Plated,PTH,ComponentDrill
T4C1.150
; #@! TA.AperFunction,Plated,PTH,ComponentDrill
T5C1.300
; #@! TA.AperFunction,Plated,PTH,ComponentDrill
T6C1.500
; #@! TA.AperFunction,Plated,PTH,ComponentDrill
T7C1.700
%
G90
G05
T1
X34.5Y-44.0
X34.55Y-21.0
X34.55Y-26.0
X34.55Y-37.0
X36.5Y-13.5
X39.0Y-24.5
X39.5Y-30.987
X39.5Y-37.9
X39.5Y-45.0
X40.0Y-21.0
X40.0Y-21.0
X45.0Y-33.5
X45.0Y-40.5
X45.5Y-27.5
X48.0Y-21.5
X48.0Y-27.0
X49.0Y-59.0
X50.0Y-30.5
X50.5Y-16.0
X51.5Y-58.0
X53.5Y-33.0
X54.0Y-29.0
X54.0Y-57.0
X54.5Y-10.5
X55.5Y-45.5
X56.0Y-14.635
X56.288Y-24.175
X56.5Y-30.0
X57.5Y-49.5
X60.0Y-48.5
X65.0Y-34.5
X65.5Y-7.5
X67.0Y-24.175
X67.5Y-18.0
X68.0Y-21.635
X68.5Y-16.5
X68.5Y-19.0
X70.0Y-15.5
X70.0Y-20.0
X70.0Y-36.0
X71.0Y-3.5
X71.0Y-36.75
X71.5Y-14.0
X71.5Y-21.5
X72.5Y-18.0
X73.0Y-11.46
X74.5Y-23.5
X74.5Y-29.5
X84.0Y-20.697
X86.0Y-13.0
X86.25Y-11.135
X86.5Y-16.5
X87.5Y-41.5
X89.5Y-51.5
X92.5Y-49.5
X99.5Y-26.0
X99.5Y-51.5
X104.0Y-25.635
X105.0Y-15.76
X107.0Y-49.5
X107.5Y-5.635
X112.0Y-45.0
X112.0Y-52.0
X118.0Y-45.5
X119.0Y-50.5
X119.5Y-41.0
X122.0Y-45.0
X122.5Y-52.0
X127.5Y-45.5
X133.5Y-54.5
X135.0Y-38.5
X136.0Y-37.5
X137.5Y-36.0
X137.5Y-47.5
X138.5Y-33.0
X138.75Y-48.5
X139.0Y-59.0
X140.0Y-50.5
X141.0Y-58.0
X141.5Y-34.0
X141.5Y-49.5
X143.5Y-57.0
X144.0Y-48.5
X144.5Y-6.25
X144.5Y-16.5
X144.5Y-37.5
X145.25Y-39.5
X145.5Y-15.5
X145.5Y-36.0
X146.25Y-47.5
X146.5Y-14.5
X146.5Y-33.0
X147.5Y-13.5
X147.5Y-37.0
X147.5Y-38.5
X148.0Y-10.0
X148.5Y-12.5
X148.5Y-34.0
X150.0Y-48.5
X150.041Y-18.5
X150.5Y-14.75
X150.527Y-9.954
X150.716Y-19.358
X151.0Y-49.5
X151.5Y-14.0
X152.5Y-50.0
X152.65Y-13.175
X153.5Y-3.905
X154.0Y-14.5
X154.6Y-12.5
X155.0Y-3.905
X157.0Y-17.25
X157.5Y-49.5
X160.0Y-43.0
X160.5Y-12.467
X160.5Y-55.0
X163.0Y-34.0
X163.35Y-13.0
X163.35Y-14.27
X163.35Y-15.54
X165.0Y-46.5
X174.0Y-22.0
X174.5Y-11.5
X176.0Y-18.0
X176.999Y-34.994
X181.5Y-47.5
X182.5Y-52.0
X183.5Y-13.0
X187.135Y-13.057
X191.0Y-5.45
X191.135Y-9.057
X193.0Y-52.5
X197.0Y-40.0
X199.0Y-49.0
X201.0Y-44.5
X203.0Y-52.5
X206.5Y-45.5
X211.0Y-45.5
X212.0Y-52.0
X216.5Y-45.0
X218.5Y-50.0
X219.5Y-32.0
X225.0Y-1.5
X225.5Y-59.0
X228.75Y-58.0
X229.5Y-45.0
X231.25Y-57.0
X237.0Y-43.0
X237.25Y-49.0
X240.0Y-50.0
X243.0Y-49.5
X244.5Y-17.0
X246.0Y-31.0
X247.5Y-58.5
X250.5Y-3.0
X251.562Y-34.5
X254.0Y-42.0
X254.0Y-45.0
X257.0Y-2.0
X258.562Y-5.0
X261.0Y-4.5
X263.25Y-3.25
X264.5Y-4.75
X267.75Y-8.75
X269.0Y-3.25
X269.25Y-4.75
X272.0Y-26.0
X276.5Y-1.438
T2
X154.55Y-22.0
X159.43Y-22.0
T3
X47.25Y-52.21
X47.25Y-54.75
X49.79Y-52.21
X49.79Y-54.75
X52.33Y-52.21
X52.33Y-54.75
X54.87Y-52.21
X54.87Y-54.75
X57.41Y-52.21
X57.41Y-54.75
X59.89Y-40.0
X59.89Y-42.54
X59.95Y-52.21
X59.95Y-54.75
X62.43Y-40.0
X62.43Y-42.54
X62.49Y-52.21
X62.49Y-54.75
X64.97Y-40.0
X64.97Y-42.54
X65.03Y-52.21
X65.03Y-54.75
X67.51Y-40.0
X67.51Y-42.54
X70.05Y-40.0
X70.05Y-42.54
X72.59Y-40.0
X72.59Y-42.54
X75.13Y-40.0
X75.13Y-42.54
X77.67Y-40.0
X77.67Y-42.54
X80.21Y-40.0
X80.21Y-42.54
X82.75Y-40.0
X82.75Y-42.54
X134.89Y-42.5
X134.89Y-45.04
X137.25Y-52.21
X137.25Y-54.75
X137.43Y-42.5
X137.43Y-45.04
X139.79Y-52.21
X139.79Y-54.75
X139.97Y-42.5
X139.97Y-45.04
X142.33Y-52.21
X142.33Y-54.75
X142.51Y-42.5
X142.51Y-45.04
X144.87Y-52.21
X144.87Y-54.75
X145.05Y-42.5
X145.05Y-45.04
X147.41Y-52.21
X147.41Y-54.75
X147.59Y-42.5
X147.59Y-45.04
X149.95Y-52.21
X149.95Y-54.75
X150.13Y-42.5
X150.13Y-45.04
X152.49Y-52.21
X152.49Y-54.75
X152.67Y-42.5
X152.67Y-45.04
X155.03Y-52.21
X155.03Y-54.75
X155.21Y-42.5
X155.21Y-45.04
X157.75Y-42.5
X157.75Y-45.04
X195.42Y-4.8
X195.42Y-7.34
X195.42Y-9.88
X195.42Y-12.42
X195.42Y-14.96
X195.42Y-17.5
X195.42Y-20.04
X195.42Y-22.58
X195.42Y-25.12
X195.42Y-27.66
X197.96Y-4.8
X197.96Y-7.34
X197.96Y-9.88
X197.96Y-12.42
X197.96Y-14.96
X197.96Y-17.5
X197.96Y-20.04
X197.96Y-22.58
X197.96Y-25.12
X197.96Y-27.66
X205.0Y-5.68
X205.0Y-15.84
X205.0Y-26.0
X225.32Y-13.3
X225.32Y-18.38
X225.32Y-26.0
X227.25Y-52.21
X227.25Y-54.75
X229.79Y-52.21
X229.79Y-54.75
X232.33Y-52.21
X232.33Y-54.75
X234.87Y-52.21
X234.87Y-54.75
X235.46Y-4.84
X235.46Y-7.38
X235.46Y-9.92
X235.46Y-12.46
X235.46Y-15.0
X235.46Y-17.54
X235.46Y-20.08
X235.46Y-22.62
X235.46Y-25.16
X235.46Y-27.7
X237.41Y-52.21
X237.41Y-54.75
X238.0Y-4.84
X238.0Y-7.38
X238.0Y-9.92
X238.0Y-12.46
X238.0Y-15.0
X238.0Y-17.54
X238.0Y-20.08
X238.0Y-22.62
X238.0Y-25.16
X238.0Y-27.7
X239.95Y-52.21
X239.95Y-54.75
X242.49Y-52.21
X242.49Y-54.75
X245.03Y-52.21
X245.03Y-54.75
X250.0Y-13.175
X262.0Y-13.175
X267.8Y-31.7
X267.8Y-43.7
X269.0Y-11.175
X281.0Y-11.175
X291.0Y-16.92
X291.0Y-19.46
X291.0Y-22.0
X291.0Y-24.54
X291.0Y-27.08
X291.0Y-29.62
X291.0Y-32.16
X291.0Y-34.7
X291.0Y-37.24
X291.0Y-39.78
X293.54Y-16.92
X293.54Y-19.46
X293.54Y-22.0
X293.54Y-24.54
X293.54Y-27.08
X293.54Y-29.62
X293.54Y-32.16
X293.54Y-34.7
X293.54Y-37.24
X293.54Y-39.78
T4
X74.175Y-26.635
X76.715Y-26.635
X84.335Y-26.635
X89.415Y-26.635
X162.135Y-4.99
X164.675Y-4.99
X172.295Y-4.99
X177.375Y-4.99
X228.175Y-38.085
X230.715Y-38.085
X238.335Y-38.085
X243.415Y-38.085
X244.175Y-2.085
X246.715Y-2.085
X254.335Y-2.085
X259.415Y-2.085
T5
X250.0Y-25.375
X256.0Y-11.175
X262.0Y-25.375
X265.8Y-37.7
X269.0Y-23.375
X275.0Y-9.175
X280.0Y-31.7
X280.0Y-43.7
X281.0Y-23.375
T6
X40.0Y-14.5
X47.0Y-18.5
X47.0Y-24.5
X47.0Y-30.5
X47.0Y-36.5
X84.0Y-3.635
X91.0Y-3.635
X91.0Y-9.635
X91.0Y-15.635
X91.0Y-21.635
T7
X5.0Y-13.6
X5.0Y-18.68
X5.0Y-23.76
X5.0Y-28.84
X5.0Y-33.92
X5.0Y-39.0
X114.0Y-5.555
X114.0Y-10.635
X114.0Y-15.715
X114.0Y-20.795
X114.0Y-25.875
X114.0Y-30.955
M30
