ISO-10303-21;
HEADER;
FILE_DESCRIPTION( ( 'Unknown' ), '1' );
FILE_NAME( 'I:/User_Groups_Only/17_EMC_Product_&_Development/Article_Master/eiCan/Assembly/As_SSTIE/Master_Data/01_CAD_drawing/1_Drawing/971150581/971150581.stp', 'Unknown', ( 'Unknown' ), ( 'Unknown' ), 'PSStep 18.0.17', 'Unknown', '  ' );
FILE_SCHEMA( ( 'AUTOMOTIVE_DESIGN { 1 0 10303 214 1 1 1 1 }' ) );
ENDSEC;
DATA;
#1 = MECHANICAL_DESIGN_GEOMETRIC_PRESENTATION_REPRESENTATION( ' ', ( #10, #11, #12, #13, #14, #15, #16, #17, #18, #19, #20, #21, #22, #23, #24, #25, #26, #27, #28, #29, #30, #31, #32, #33, #34 ), #6 );
#2 = PRODUCT_DEFINITION_CONTEXT( '', #35, 'design' );
#3 = APPLICATION_PROTOCOL_DEFINITION( 'international standard', 'automotive_design', 2001, #35 );
#4 = PRODUCT_CATEGORY_RELATIONSHIP( 'NONE', 'NONE', #36, #37 );
#5 = SHAPE_DEFINITION_REPRESENTATION( #38, #39 );
#6 =  ( GEOMETRIC_REPRESENTATION_CONTEXT( 3 )GLOBAL_UNCERTAINTY_ASSIGNED_CONTEXT( ( #42 ) )GLOBAL_UNIT_ASSIGNED_CONTEXT( ( #44, #45, #46 ) )REPRESENTATION_CONTEXT( 'NONE', 'WORKSPACE' ) );
#10 = STYLED_ITEM( '', ( #48 ), #49 );
#11 = STYLED_ITEM( '', ( #50 ), #51 );
#12 = STYLED_ITEM( '', ( #52 ), #53 );
#13 = STYLED_ITEM( '', ( #54 ), #55 );
#14 = STYLED_ITEM( '', ( #56 ), #57 );
#15 = STYLED_ITEM( '', ( #58 ), #59 );
#16 = STYLED_ITEM( '', ( #60 ), #61 );
#17 = STYLED_ITEM( '', ( #62 ), #63 );
#18 = STYLED_ITEM( '', ( #64 ), #65 );
#19 = STYLED_ITEM( '', ( #66 ), #67 );
#20 = STYLED_ITEM( '', ( #68 ), #69 );
#21 = STYLED_ITEM( '', ( #70 ), #71 );
#22 = STYLED_ITEM( '', ( #72 ), #73 );
#23 = STYLED_ITEM( '', ( #74 ), #75 );
#24 = STYLED_ITEM( '', ( #76 ), #77 );
#25 = STYLED_ITEM( '', ( #78 ), #79 );
#26 = STYLED_ITEM( '', ( #80 ), #81 );
#27 = STYLED_ITEM( '', ( #82 ), #83 );
#28 = STYLED_ITEM( '', ( #84 ), #85 );
#29 = STYLED_ITEM( '', ( #86 ), #87 );
#30 = STYLED_ITEM( '', ( #88 ), #89 );
#31 = STYLED_ITEM( '', ( #90 ), #91 );
#32 = STYLED_ITEM( '', ( #92 ), #93 );
#33 = STYLED_ITEM( '', ( #94 ), #95 );
#34 = STYLED_ITEM( '', ( #96 ), #97 );
#35 = APPLICATION_CONTEXT( 'core data for automotive mechanical design processes' );
#36 = PRODUCT_CATEGORY( 'part', 'NONE' );
#37 = PRODUCT_RELATED_PRODUCT_CATEGORY( 'detail', ' ', ( #98 ) );
#38 = PRODUCT_DEFINITION_SHAPE( 'NONE', 'NONE', #99 );
#39 = ADVANCED_BREP_SHAPE_REPRESENTATION( '1', ( #100, #101 ), #6 );
#42 = UNCERTAINTY_MEASURE_WITH_UNIT( LENGTH_MEASURE( 0.00100000000000000 ), #44, '', '' );
#44 =  ( CONVERSION_BASED_UNIT( 'MILLIMETRE', #104 )LENGTH_UNIT(  )NAMED_UNIT( #107 ) );
#45 =  ( NAMED_UNIT( #109 )PLANE_ANGLE_UNIT(  )SI_UNIT( $, .RADIAN. ) );
#46 =  ( NAMED_UNIT( #109 )SI_UNIT( $, .STERADIAN. )SOLID_ANGLE_UNIT(  ) );
#48 = PRESENTATION_STYLE_ASSIGNMENT( ( #115 ) );
#49 = ADVANCED_FACE( '', ( #116, #117 ), #118, .T. );
#50 = PRESENTATION_STYLE_ASSIGNMENT( ( #119 ) );
#51 = ADVANCED_FACE( '', ( #120 ), #121, .F. );
#52 = PRESENTATION_STYLE_ASSIGNMENT( ( #122 ) );
#53 = ADVANCED_FACE( '', ( #123 ), #124, .T. );
#54 = PRESENTATION_STYLE_ASSIGNMENT( ( #125 ) );
#55 = ADVANCED_FACE( '', ( #126 ), #127, .F. );
#56 = PRESENTATION_STYLE_ASSIGNMENT( ( #128 ) );
#57 = ADVANCED_FACE( '', ( #129 ), #130, .T. );
#58 = PRESENTATION_STYLE_ASSIGNMENT( ( #131 ) );
#59 = ADVANCED_FACE( '', ( #132, #133 ), #134, .T. );
#60 = PRESENTATION_STYLE_ASSIGNMENT( ( #135 ) );
#61 = ADVANCED_FACE( '', ( #136, #137 ), #138, .F. );
#62 = PRESENTATION_STYLE_ASSIGNMENT( ( #139 ) );
#63 = ADVANCED_FACE( '', ( #140 ), #141, .F. );
#64 = PRESENTATION_STYLE_ASSIGNMENT( ( #142 ) );
#65 = ADVANCED_FACE( '', ( #143, #144 ), #145, .F. );
#66 = PRESENTATION_STYLE_ASSIGNMENT( ( #146 ) );
#67 = ADVANCED_FACE( '', ( #147, #148 ), #149, .F. );
#68 = PRESENTATION_STYLE_ASSIGNMENT( ( #150 ) );
#69 = ADVANCED_FACE( '', ( #151, #152 ), #153, .F. );
#70 = PRESENTATION_STYLE_ASSIGNMENT( ( #154 ) );
#71 = ADVANCED_FACE( '', ( #155 ), #156, .F. );
#72 = PRESENTATION_STYLE_ASSIGNMENT( ( #157 ) );
#73 = ADVANCED_FACE( '', ( #158 ), #159, .T. );
#74 = PRESENTATION_STYLE_ASSIGNMENT( ( #160 ) );
#75 = ADVANCED_FACE( '', ( #161 ), #162, .T. );
#76 = PRESENTATION_STYLE_ASSIGNMENT( ( #163 ) );
#77 = ADVANCED_FACE( '', ( #164, #165 ), #166, .F. );
#78 = PRESENTATION_STYLE_ASSIGNMENT( ( #167 ) );
#79 = ADVANCED_FACE( '', ( #168, #169 ), #170, .T. );
#80 = PRESENTATION_STYLE_ASSIGNMENT( ( #171 ) );
#81 = ADVANCED_FACE( '', ( #172 ), #173, .F. );
#82 = PRESENTATION_STYLE_ASSIGNMENT( ( #174 ) );
#83 = ADVANCED_FACE( '', ( #175 ), #176, .F. );
#84 = PRESENTATION_STYLE_ASSIGNMENT( ( #177 ) );
#85 = ADVANCED_FACE( '', ( #178 ), #179, .T. );
#86 = PRESENTATION_STYLE_ASSIGNMENT( ( #180 ) );
#87 = ADVANCED_FACE( '', ( #181 ), #182, .T. );
#88 = PRESENTATION_STYLE_ASSIGNMENT( ( #183 ) );
#89 = ADVANCED_FACE( '', ( #184 ), #185, .T. );
#90 = PRESENTATION_STYLE_ASSIGNMENT( ( #186 ) );
#91 = ADVANCED_FACE( '', ( #187, #188 ), #189, .F. );
#92 = PRESENTATION_STYLE_ASSIGNMENT( ( #190 ) );
#93 = ADVANCED_FACE( '', ( #191, #192 ), #193, .T. );
#94 = PRESENTATION_STYLE_ASSIGNMENT( ( #194 ) );
#95 = ADVANCED_FACE( '', ( #195, #196 ), #197, .T. );
#96 = PRESENTATION_STYLE_ASSIGNMENT( ( #198 ) );
#97 = ADVANCED_FACE( '', ( #199, #200 ), #201, .F. );
#98 = PRODUCT( '1', '1', 'PART-1-DESC', ( #202 ) );
#99 = PRODUCT_DEFINITION( 'NONE', 'NONE', #203, #2 );
#100 = MANIFOLD_SOLID_BREP( '1', #204 );
#101 = AXIS2_PLACEMENT_3D( '', #205, #206, #207 );
#104 = LENGTH_MEASURE_WITH_UNIT( LENGTH_MEASURE( 1.00000000000000 ), #208 );
#107 = DIMENSIONAL_EXPONENTS( 1.00000000000000, 0.000000000000000, 0.000000000000000, 0.000000000000000, 0.000000000000000, 0.000000000000000, 0.000000000000000 );
#109 = DIMENSIONAL_EXPONENTS( 0.000000000000000, 0.000000000000000, 0.000000000000000, 0.000000000000000, 0.000000000000000, 0.000000000000000, 0.000000000000000 );
#115 = SURFACE_STYLE_USAGE( .BOTH., #209 );
#116 = FACE_OUTER_BOUND( '', #210, .T. );
#117 = FACE_OUTER_BOUND( '', #211, .T. );
#118 = CYLINDRICAL_SURFACE( '', #212, 2.50000000000000 );
#119 = SURFACE_STYLE_USAGE( .BOTH., #213 );
#120 = FACE_OUTER_BOUND( '', #214, .T. );
#121 = PLANE( '', #215 );
#122 = SURFACE_STYLE_USAGE( .BOTH., #216 );
#123 = FACE_OUTER_BOUND( '', #217, .T. );
#124 = CONICAL_SURFACE( '', #218, 4.00000000000000, 0.785398163400000 );
#125 = SURFACE_STYLE_USAGE( .BOTH., #219 );
#126 = FACE_OUTER_BOUND( '', #220, .T. );
#127 = PLANE( '', #221 );
#128 = SURFACE_STYLE_USAGE( .BOTH., #222 );
#129 = FACE_OUTER_BOUND( '', #223, .T. );
#130 = CONICAL_SURFACE( '', #224, 4.00000000000000, 0.785398163400000 );
#131 = SURFACE_STYLE_USAGE( .BOTH., #225 );
#132 = FACE_BOUND( '', #226, .T. );
#133 = FACE_OUTER_BOUND( '', #227, .T. );
#134 = PLANE( '', #228 );
#135 = SURFACE_STYLE_USAGE( .BOTH., #229 );
#136 = FACE_BOUND( '', #230, .T. );
#137 = FACE_OUTER_BOUND( '', #231, .T. );
#138 = CONICAL_SURFACE( '', #232, 2.26700000000000, 0.785398163400000 );
#139 = SURFACE_STYLE_USAGE( .BOTH., #233 );
#140 = FACE_OUTER_BOUND( '', #234, .T. );
#141 = PLANE( '', #235 );
#142 = SURFACE_STYLE_USAGE( .BOTH., #236 );
#143 = FACE_OUTER_BOUND( '', #237, .T. );
#144 = FACE_OUTER_BOUND( '', #238, .T. );
#145 = TOROIDAL_SURFACE( '', #239, 2.26491470390000, 0.400000000000000 );
#146 = SURFACE_STYLE_USAGE( .BOTH., #240 );
#147 = FACE_OUTER_BOUND( '', #241, .T. );
#148 = FACE_BOUND( '', #242, .T. );
#149 = CONICAL_SURFACE( '', #243, 2.06700000000000, 1.02974425870000 );
#150 = SURFACE_STYLE_USAGE( .BOTH., #244 );
#151 = FACE_OUTER_BOUND( '', #245, .T. );
#152 = FACE_OUTER_BOUND( '', #246, .T. );
#153 = CYLINDRICAL_SURFACE( '', #247, 2.06700000000000 );
#154 = SURFACE_STYLE_USAGE( .BOTH., #248 );
#155 = FACE_OUTER_BOUND( '', #249, .T. );
#156 = PLANE( '', #250 );
#157 = SURFACE_STYLE_USAGE( .BOTH., #251 );
#158 = FACE_OUTER_BOUND( '', #252, .T. );
#159 = CONICAL_SURFACE( '', #253, 4.00000000000000, 0.785398163400000 );
#160 = SURFACE_STYLE_USAGE( .BOTH., #254 );
#161 = FACE_OUTER_BOUND( '', #255, .T. );
#162 = CONICAL_SURFACE( '', #256, 4.00000000000000, 0.785398163400000 );
#163 = SURFACE_STYLE_USAGE( .BOTH., #257 );
#164 = FACE_BOUND( '', #258, .T. );
#165 = FACE_OUTER_BOUND( '', #259, .T. );
#166 = PLANE( '', #260 );
#167 = SURFACE_STYLE_USAGE( .BOTH., #261 );
#168 = FACE_BOUND( '', #262, .T. );
#169 = FACE_OUTER_BOUND( '', #263, .T. );
#170 = CONICAL_SURFACE( '', #264, 2.50000000000000, 0.785398163400000 );
#171 = SURFACE_STYLE_USAGE( .BOTH., #265 );
#172 = FACE_OUTER_BOUND( '', #266, .T. );
#173 = PLANE( '', #267 );
#174 = SURFACE_STYLE_USAGE( .BOTH., #268 );
#175 = FACE_OUTER_BOUND( '', #269, .T. );
#176 = PLANE( '', #270 );
#177 = SURFACE_STYLE_USAGE( .BOTH., #271 );
#178 = FACE_OUTER_BOUND( '', #272, .T. );
#179 = CONICAL_SURFACE( '', #273, 4.00000000000000, 0.785398163400000 );
#180 = SURFACE_STYLE_USAGE( .BOTH., #274 );
#181 = FACE_OUTER_BOUND( '', #275, .T. );
#182 = CONICAL_SURFACE( '', #276, 4.00000000000000, 0.785398163400000 );
#183 = SURFACE_STYLE_USAGE( .BOTH., #277 );
#184 = FACE_OUTER_BOUND( '', #278, .T. );
#185 = PLANE( '', #279 );
#186 = SURFACE_STYLE_USAGE( .BOTH., #280 );
#187 = FACE_OUTER_BOUND( '', #281, .T. );
#188 = FACE_OUTER_BOUND( '', #282, .T. );
#189 = TOROIDAL_SURFACE( '', #283, 2.26491470390000, 0.400000000000000 );
#190 = SURFACE_STYLE_USAGE( .BOTH., #284 );
#191 = FACE_OUTER_BOUND( '', #285, .T. );
#192 = FACE_OUTER_BOUND( '', #286, .T. );
#193 = CYLINDRICAL_SURFACE( '', #287, 1.86491470390000 );
#194 = SURFACE_STYLE_USAGE( .BOTH., #288 );
#195 = FACE_BOUND( '', #289, .T. );
#196 = FACE_OUTER_BOUND( '', #290, .T. );
#197 = CONICAL_SURFACE( '', #291, 1.86491470390000, 0.523598775600000 );
#198 = SURFACE_STYLE_USAGE( .BOTH., #292 );
#199 = FACE_OUTER_BOUND( '', #293, .T. );
#200 = FACE_OUTER_BOUND( '', #294, .T. );
#201 = CYLINDRICAL_SURFACE( '', #295, 2.06700000000000 );
#202 = PRODUCT_CONTEXT( '', #35, 'mechanical' );
#203 = PRODUCT_DEFINITION_FORMATION_WITH_SPECIFIED_SOURCE( ' ', 'NONE', #98, .NOT_KNOWN. );
#204 = CLOSED_SHELL( '', ( #57, #55, #71, #81, #51, #83, #77, #59, #93, #95, #49, #89, #97, #61, #63, #91, #65, #79, #53, #87, #73, #85, #75, #67, #69 ) );
#205 = CARTESIAN_POINT( '', ( 0.000000000000000, 0.000000000000000, 0.000000000000000 ) );
#206 = DIRECTION( '', ( 0.000000000000000, 0.000000000000000, 1.00000000000000 ) );
#207 = DIRECTION( '', ( 1.00000000000000, 0.000000000000000, 0.000000000000000 ) );
#208 =  ( LENGTH_UNIT(  )NAMED_UNIT( #107 )SI_UNIT( .MILLI., .METRE. ) );
#209 = SURFACE_SIDE_STYLE( '', ( #297 ) );
#210 = EDGE_LOOP( '', ( #298 ) );
#211 = EDGE_LOOP( '', ( #299 ) );
#212 = AXIS2_PLACEMENT_3D( '', #300, #301, #302 );
#213 = SURFACE_SIDE_STYLE( '', ( #303 ) );
#214 = EDGE_LOOP( '', ( #304, #305, #306, #307, #308 ) );
#215 = AXIS2_PLACEMENT_3D( '', #309, #310, #311 );
#216 = SURFACE_SIDE_STYLE( '', ( #312 ) );
#217 = EDGE_LOOP( '', ( #313, #314, #315 ) );
#218 = AXIS2_PLACEMENT_3D( '', #316, #317, #318 );
#219 = SURFACE_SIDE_STYLE( '', ( #319 ) );
#220 = EDGE_LOOP( '', ( #320, #321, #322, #323, #324 ) );
#221 = AXIS2_PLACEMENT_3D( '', #325, #326, #327 );
#222 = SURFACE_SIDE_STYLE( '', ( #328 ) );
#223 = EDGE_LOOP( '', ( #329, #330, #331 ) );
#224 = AXIS2_PLACEMENT_3D( '', #332, #333, #334 );
#225 = SURFACE_SIDE_STYLE( '', ( #335 ) );
#226 = EDGE_LOOP( '', ( #336 ) );
#227 = EDGE_LOOP( '', ( #337, #338, #339, #340, #341, #342 ) );
#228 = AXIS2_PLACEMENT_3D( '', #343, #344, #345 );
#229 = SURFACE_SIDE_STYLE( '', ( #346 ) );
#230 = EDGE_LOOP( '', ( #347 ) );
#231 = EDGE_LOOP( '', ( #348 ) );
#232 = AXIS2_PLACEMENT_3D( '', #349, #350, #351 );
#233 = SURFACE_SIDE_STYLE( '', ( #352 ) );
#234 = EDGE_LOOP( '', ( #353, #354, #355, #356, #357 ) );
#235 = AXIS2_PLACEMENT_3D( '', #358, #359, #360 );
#236 = SURFACE_SIDE_STYLE( '', ( #361 ) );
#237 = EDGE_LOOP( '', ( #362 ) );
#238 = EDGE_LOOP( '', ( #363 ) );
#239 = AXIS2_PLACEMENT_3D( '', #364, #365, #366 );
#240 = SURFACE_SIDE_STYLE( '', ( #367 ) );
#241 = EDGE_LOOP( '', ( #368 ) );
#242 = VERTEX_LOOP( '', #369 );
#243 = AXIS2_PLACEMENT_3D( '', #370, #371, #372 );
#244 = SURFACE_SIDE_STYLE( '', ( #373 ) );
#245 = EDGE_LOOP( '', ( #374 ) );
#246 = EDGE_LOOP( '', ( #375 ) );
#247 = AXIS2_PLACEMENT_3D( '', #376, #377, #378 );
#248 = SURFACE_SIDE_STYLE( '', ( #379 ) );
#249 = EDGE_LOOP( '', ( #380, #381, #382, #383, #384 ) );
#250 = AXIS2_PLACEMENT_3D( '', #385, #386, #387 );
#251 = SURFACE_SIDE_STYLE( '', ( #388 ) );
#252 = EDGE_LOOP( '', ( #389, #390, #391 ) );
#253 = AXIS2_PLACEMENT_3D( '', #392, #393, #394 );
#254 = SURFACE_SIDE_STYLE( '', ( #395 ) );
#255 = EDGE_LOOP( '', ( #396, #397, #398 ) );
#256 = AXIS2_PLACEMENT_3D( '', #399, #400, #401 );
#257 = SURFACE_SIDE_STYLE( '', ( #402 ) );
#258 = EDGE_LOOP( '', ( #403 ) );
#259 = EDGE_LOOP( '', ( #404, #405, #406, #407, #408, #409 ) );
#260 = AXIS2_PLACEMENT_3D( '', #410, #411, #412 );
#261 = SURFACE_SIDE_STYLE( '', ( #413 ) );
#262 = EDGE_LOOP( '', ( #414 ) );
#263 = EDGE_LOOP( '', ( #415 ) );
#264 = AXIS2_PLACEMENT_3D( '', #416, #417, #418 );
#265 = SURFACE_SIDE_STYLE( '', ( #419 ) );
#266 = EDGE_LOOP( '', ( #420, #421, #422, #423, #424 ) );
#267 = AXIS2_PLACEMENT_3D( '', #425, #426, #427 );
#268 = SURFACE_SIDE_STYLE( '', ( #428 ) );
#269 = EDGE_LOOP( '', ( #429, #430, #431, #432, #433 ) );
#270 = AXIS2_PLACEMENT_3D( '', #434, #435, #436 );
#271 = SURFACE_SIDE_STYLE( '', ( #437 ) );
#272 = EDGE_LOOP( '', ( #438, #439, #440 ) );
#273 = AXIS2_PLACEMENT_3D( '', #441, #442, #443 );
#274 = SURFACE_SIDE_STYLE( '', ( #444 ) );
#275 = EDGE_LOOP( '', ( #445, #446, #447 ) );
#276 = AXIS2_PLACEMENT_3D( '', #448, #449, #450 );
#277 = SURFACE_SIDE_STYLE( '', ( #451 ) );
#278 = EDGE_LOOP( '', ( #452 ) );
#279 = AXIS2_PLACEMENT_3D( '', #453, #454, #455 );
#280 = SURFACE_SIDE_STYLE( '', ( #456 ) );
#281 = EDGE_LOOP( '', ( #457 ) );
#282 = EDGE_LOOP( '', ( #458 ) );
#283 = AXIS2_PLACEMENT_3D( '', #459, #460, #461 );
#284 = SURFACE_SIDE_STYLE( '', ( #462 ) );
#285 = EDGE_LOOP( '', ( #463 ) );
#286 = EDGE_LOOP( '', ( #464 ) );
#287 = AXIS2_PLACEMENT_3D( '', #465, #466, #467 );
#288 = SURFACE_SIDE_STYLE( '', ( #468 ) );
#289 = EDGE_LOOP( '', ( #469 ) );
#290 = EDGE_LOOP( '', ( #470 ) );
#291 = AXIS2_PLACEMENT_3D( '', #471, #472, #473 );
#292 = SURFACE_SIDE_STYLE( '', ( #474 ) );
#293 = EDGE_LOOP( '', ( #475 ) );
#294 = EDGE_LOOP( '', ( #476 ) );
#295 = AXIS2_PLACEMENT_3D( '', #477, #478, #479 );
#297 = SURFACE_STYLE_FILL_AREA( #480 );
#298 = ORIENTED_EDGE( '', *, *, #481, .T. );
#299 = ORIENTED_EDGE( '', *, *, #482, .F. );
#300 = CARTESIAN_POINT( '', ( 1.45244597725756E-016, 0.000000000000000, 11.0000000000000 ) );
#301 = DIRECTION( '', ( 1.68665076409874E-015, -0.000000000000000, 1.00000000000000 ) );
#302 = DIRECTION( '', ( -1.00000000000000, 0.000000000000000, 1.68665076409874E-015 ) );
#303 = SURFACE_STYLE_FILL_AREA( #483 );
#304 = ORIENTED_EDGE( '', *, *, #484, .F. );
#305 = ORIENTED_EDGE( '', *, *, #485, .F. );
#306 = ORIENTED_EDGE( '', *, *, #486, .F. );
#307 = ORIENTED_EDGE( '', *, *, #487, .T. );
#308 = ORIENTED_EDGE( '', *, *, #488, .F. );
#309 = CARTESIAN_POINT( '', ( 2.30940107675851, -4.00000000000000, 15.0000000000000 ) );
#310 = DIRECTION( '', ( -0.866025403784439, 0.500000000000000, 0.000000000000000 ) );
#311 = DIRECTION( '', ( -0.500000000000000, -0.866025403784439, 0.000000000000000 ) );
#312 = SURFACE_STYLE_FILL_AREA( #489 );
#313 = ORIENTED_EDGE( '', *, *, #484, .T. );
#314 = ORIENTED_EDGE( '', *, *, #490, .T. );
#315 = ORIENTED_EDGE( '', *, *, #491, .T. );
#316 = CARTESIAN_POINT( '', ( 0.000000000000000, 0.000000000000000, 0.000000000000000 ) );
#317 = DIRECTION( '', ( -0.000000000000000, -0.000000000000000, 1.00000000000000 ) );
#318 = DIRECTION( '', ( 1.00000000000000, 0.000000000000000, 0.000000000000000 ) );
#319 = SURFACE_STYLE_FILL_AREA( #492 );
#320 = ORIENTED_EDGE( '', *, *, #493, .F. );
#321 = ORIENTED_EDGE( '', *, *, #494, .F. );
#322 = ORIENTED_EDGE( '', *, *, #495, .F. );
#323 = ORIENTED_EDGE( '', *, *, #496, .T. );
#324 = ORIENTED_EDGE( '', *, *, #497, .F. );
#325 = CARTESIAN_POINT( '', ( -2.30940107675851, 4.00000000000000, 15.0000000000000 ) );
#326 = DIRECTION( '', ( 0.866025403784439, -0.500000000000000, 0.000000000000000 ) );
#327 = DIRECTION( '', ( 0.500000000000000, 0.866025403784439, 0.000000000000000 ) );
#328 = SURFACE_STYLE_FILL_AREA( #498 );
#329 = ORIENTED_EDGE( '', *, *, #499, .T. );
#330 = ORIENTED_EDGE( '', *, *, #500, .T. );
#331 = ORIENTED_EDGE( '', *, *, #501, .T. );
#332 = CARTESIAN_POINT( '', ( 0.000000000000000, 0.000000000000000, 0.000000000000000 ) );
#333 = DIRECTION( '', ( -0.000000000000000, -0.000000000000000, 1.00000000000000 ) );
#334 = DIRECTION( '', ( 1.00000000000000, 0.000000000000000, 0.000000000000000 ) );
#335 = SURFACE_STYLE_FILL_AREA( #502 );
#336 = ORIENTED_EDGE( '', *, *, #503, .T. );
#337 = ORIENTED_EDGE( '', *, *, #504, .T. );
#338 = ORIENTED_EDGE( '', *, *, #495, .T. );
#339 = ORIENTED_EDGE( '', *, *, #505, .T. );
#340 = ORIENTED_EDGE( '', *, *, #506, .T. );
#341 = ORIENTED_EDGE( '', *, *, #486, .T. );
#342 = ORIENTED_EDGE( '', *, *, #507, .T. );
#343 = CARTESIAN_POINT( '', ( 0.000000000000000, 0.000000000000000, 15.0000000000000 ) );
#344 = DIRECTION( '', ( 0.000000000000000, 0.000000000000000, 1.00000000000000 ) );
#345 = DIRECTION( '', ( 1.00000000000000, 0.000000000000000, 0.000000000000000 ) );
#346 = SURFACE_STYLE_FILL_AREA( #508 );
#347 = ORIENTED_EDGE( '', *, *, #509, .F. );
#348 = ORIENTED_EDGE( '', *, *, #510, .F. );
#349 = CARTESIAN_POINT( '', ( 0.000000000000000, 0.000000000000000, 0.000000000000000 ) );
#350 = DIRECTION( '', ( 0.000000000000000, -0.000000000000000, -1.00000000000000 ) );
#351 = DIRECTION( '', ( 1.00000000000000, 0.000000000000000, 0.000000000000000 ) );
#352 = SURFACE_STYLE_FILL_AREA( #511 );
#353 = ORIENTED_EDGE( '', *, *, #512, .F. );
#354 = ORIENTED_EDGE( '', *, *, #496, .F. );
#355 = ORIENTED_EDGE( '', *, *, #504, .F. );
#356 = ORIENTED_EDGE( '', *, *, #513, .T. );
#357 = ORIENTED_EDGE( '', *, *, #514, .F. );
#358 = CARTESIAN_POINT( '', ( 2.30940107675851, 4.00000000000000, 15.0000000000000 ) );
#359 = DIRECTION( '', ( -2.44126122294788E-015, -1.00000000000000, 0.000000000000000 ) );
#360 = DIRECTION( '', ( 1.00000000000000, -2.44126122294788E-015, 0.000000000000000 ) );
#361 = SURFACE_STYLE_FILL_AREA( #515 );
#362 = ORIENTED_EDGE( '', *, *, #516, .F. );
#363 = ORIENTED_EDGE( '', *, *, #517, .F. );
#364 = CARTESIAN_POINT( '', ( 8.22905865774810E-015, 0.000000000000000, 15.7928203230276 ) );
#365 = DIRECTION( '', ( -1.68665076409873E-015, 0.000000000000000, -1.00000000000000 ) );
#366 = DIRECTION( '', ( -1.00000000000000, 0.000000000000000, 1.68665076409874E-015 ) );
#367 = SURFACE_STYLE_FILL_AREA( #518 );
#368 = ORIENTED_EDGE( '', *, *, #519, .F. );
#369 = VERTEX_POINT( '', #520 );
#370 = CARTESIAN_POINT( '', ( 0.000000000000000, 0.000000000000000, 10.6250000000000 ) );
#371 = DIRECTION( '', ( 0.000000000000000, -0.000000000000000, -1.00000000000000 ) );
#372 = DIRECTION( '', ( 0.000000000000000, -1.00000000000000, 0.000000000000000 ) );
#373 = SURFACE_STYLE_FILL_AREA( #521 );
#374 = ORIENTED_EDGE( '', *, *, #519, .T. );
#375 = ORIENTED_EDGE( '', *, *, #522, .T. );
#376 = CARTESIAN_POINT( '', ( 0.000000000000000, 0.000000000000000, 0.000000000000000 ) );
#377 = DIRECTION( '', ( -0.000000000000000, 0.000000000000000, -1.00000000000000 ) );
#378 = DIRECTION( '', ( 0.000000000000000, 1.00000000000000, 0.000000000000000 ) );
#379 = SURFACE_STYLE_FILL_AREA( #523 );
#380 = ORIENTED_EDGE( '', *, *, #499, .F. );
#381 = ORIENTED_EDGE( '', *, *, #524, .F. );
#382 = ORIENTED_EDGE( '', *, *, #505, .F. );
#383 = ORIENTED_EDGE( '', *, *, #494, .T. );
#384 = ORIENTED_EDGE( '', *, *, #525, .F. );
#385 = CARTESIAN_POINT( '', ( -4.61880215351702, -4.33680868994202E-016, 15.0000000000000 ) );
#386 = DIRECTION( '', ( 0.866025403784439, 0.500000000000000, 0.000000000000000 ) );
#387 = DIRECTION( '', ( -0.500000000000000, 0.866025403784439, 0.000000000000000 ) );
#388 = SURFACE_STYLE_FILL_AREA( #526 );
#389 = ORIENTED_EDGE( '', *, *, #525, .T. );
#390 = ORIENTED_EDGE( '', *, *, #493, .T. );
#391 = ORIENTED_EDGE( '', *, *, #527, .T. );
#392 = CARTESIAN_POINT( '', ( 0.000000000000000, 0.000000000000000, 0.000000000000000 ) );
#393 = DIRECTION( '', ( -0.000000000000000, -0.000000000000000, 1.00000000000000 ) );
#394 = DIRECTION( '', ( 1.00000000000000, 0.000000000000000, 0.000000000000000 ) );
#395 = SURFACE_STYLE_FILL_AREA( #528 );
#396 = ORIENTED_EDGE( '', *, *, #514, .T. );
#397 = ORIENTED_EDGE( '', *, *, #529, .T. );
#398 = ORIENTED_EDGE( '', *, *, #530, .T. );
#399 = CARTESIAN_POINT( '', ( 0.000000000000000, 0.000000000000000, 0.000000000000000 ) );
#400 = DIRECTION( '', ( -0.000000000000000, -0.000000000000000, 1.00000000000000 ) );
#401 = DIRECTION( '', ( 1.00000000000000, 0.000000000000000, 0.000000000000000 ) );
#402 = SURFACE_STYLE_FILL_AREA( #531 );
#403 = ORIENTED_EDGE( '', *, *, #510, .T. );
#404 = ORIENTED_EDGE( '', *, *, #532, .F. );
#405 = ORIENTED_EDGE( '', *, *, #530, .F. );
#406 = ORIENTED_EDGE( '', *, *, #490, .F. );
#407 = ORIENTED_EDGE( '', *, *, #533, .F. );
#408 = ORIENTED_EDGE( '', *, *, #500, .F. );
#409 = ORIENTED_EDGE( '', *, *, #527, .F. );
#410 = CARTESIAN_POINT( '', ( 0.000000000000000, 0.000000000000000, 0.000000000000000 ) );
#411 = DIRECTION( '', ( 0.000000000000000, 0.000000000000000, 1.00000000000000 ) );
#412 = DIRECTION( '', ( 1.00000000000000, 0.000000000000000, 0.000000000000000 ) );
#413 = SURFACE_STYLE_FILL_AREA( #534 );
#414 = ORIENTED_EDGE( '', *, *, #535, .F. );
#415 = ORIENTED_EDGE( '', *, *, #481, .F. );
#416 = CARTESIAN_POINT( '', ( 2.32523600658784E-014, 0.000000000000000, 24.7000000000000 ) );
#417 = DIRECTION( '', ( -1.68665076409873E-015, 0.000000000000000, -1.00000000000000 ) );
#418 = DIRECTION( '', ( -1.00000000000000, 0.000000000000000, 1.68665076409873E-015 ) );
#419 = SURFACE_STYLE_FILL_AREA( #536 );
#420 = ORIENTED_EDGE( '', *, *, #537, .F. );
#421 = ORIENTED_EDGE( '', *, *, #487, .F. );
#422 = ORIENTED_EDGE( '', *, *, #506, .F. );
#423 = ORIENTED_EDGE( '', *, *, #524, .T. );
#424 = ORIENTED_EDGE( '', *, *, #501, .F. );
#425 = CARTESIAN_POINT( '', ( -2.30940107675851, -4.00000000000000, 15.0000000000000 ) );
#426 = DIRECTION( '', ( 0.000000000000000, 1.00000000000000, 0.000000000000000 ) );
#427 = DIRECTION( '', ( 0.000000000000000, 0.000000000000000, 1.00000000000000 ) );
#428 = SURFACE_STYLE_FILL_AREA( #538 );
#429 = ORIENTED_EDGE( '', *, *, #529, .F. );
#430 = ORIENTED_EDGE( '', *, *, #513, .F. );
#431 = ORIENTED_EDGE( '', *, *, #507, .F. );
#432 = ORIENTED_EDGE( '', *, *, #485, .T. );
#433 = ORIENTED_EDGE( '', *, *, #491, .F. );
#434 = CARTESIAN_POINT( '', ( 4.61880215351701, -4.33680868994202E-016, 15.0000000000000 ) );
#435 = DIRECTION( '', ( -0.866025403784439, -0.500000000000000, 0.000000000000000 ) );
#436 = DIRECTION( '', ( 0.500000000000000, -0.866025403784439, 0.000000000000000 ) );
#437 = SURFACE_STYLE_FILL_AREA( #539 );
#438 = ORIENTED_EDGE( '', *, *, #497, .T. );
#439 = ORIENTED_EDGE( '', *, *, #512, .T. );
#440 = ORIENTED_EDGE( '', *, *, #532, .T. );
#441 = CARTESIAN_POINT( '', ( 0.000000000000000, 0.000000000000000, 0.000000000000000 ) );
#442 = DIRECTION( '', ( -0.000000000000000, -0.000000000000000, 1.00000000000000 ) );
#443 = DIRECTION( '', ( 1.00000000000000, 0.000000000000000, 0.000000000000000 ) );
#444 = SURFACE_STYLE_FILL_AREA( #540 );
#445 = ORIENTED_EDGE( '', *, *, #537, .T. );
#446 = ORIENTED_EDGE( '', *, *, #533, .T. );
#447 = ORIENTED_EDGE( '', *, *, #488, .T. );
#448 = CARTESIAN_POINT( '', ( 0.000000000000000, 0.000000000000000, 0.000000000000000 ) );
#449 = DIRECTION( '', ( -0.000000000000000, -0.000000000000000, 1.00000000000000 ) );
#450 = DIRECTION( '', ( 1.00000000000000, 0.000000000000000, 0.000000000000000 ) );
#451 = SURFACE_STYLE_FILL_AREA( #541 );
#452 = ORIENTED_EDGE( '', *, *, #535, .T. );
#453 = CARTESIAN_POINT( '', ( -2.50000000000000, 0.000000000000000, 25.0000000000000 ) );
#454 = DIRECTION( '', ( 1.68665076409874E-015, 0.000000000000000, 1.00000000000000 ) );
#455 = DIRECTION( '', ( 1.00000000000000, 0.000000000000000, -1.68665076409874E-015 ) );
#456 = SURFACE_STYLE_FILL_AREA( #542 );
#457 = ORIENTED_EDGE( '', *, *, #503, .F. );
#458 = ORIENTED_EDGE( '', *, *, #543, .F. );
#459 = CARTESIAN_POINT( '', ( 7.56650795976018E-015, 0.000000000000000, 15.4000000000000 ) );
#460 = DIRECTION( '', ( 0.000000000000000, 0.000000000000000, 1.00000000000000 ) );
#461 = DIRECTION( '', ( 1.00000000000000, 0.000000000000000, 0.000000000000000 ) );
#462 = SURFACE_STYLE_FILL_AREA( #544 );
#463 = ORIENTED_EDGE( '', *, *, #517, .T. );
#464 = ORIENTED_EDGE( '', *, *, #543, .T. );
#465 = CARTESIAN_POINT( '', ( 1.45244597725756E-016, 0.000000000000000, 11.0000000000000 ) );
#466 = DIRECTION( '', ( 1.68665076409874E-015, -0.000000000000000, 1.00000000000000 ) );
#467 = DIRECTION( '', ( -1.00000000000000, 0.000000000000000, 1.68665076409874E-015 ) );
#468 = SURFACE_STYLE_FILL_AREA( #545 );
#469 = ORIENTED_EDGE( '', *, *, #516, .T. );
#470 = ORIENTED_EDGE( '', *, *, #482, .T. );
#471 = CARTESIAN_POINT( '', ( 8.40983334180954E-015, 0.000000000000000, 15.9000000000000 ) );
#472 = DIRECTION( '', ( 1.68665076409874E-015, -0.000000000000000, 1.00000000000000 ) );
#473 = DIRECTION( '', ( 1.00000000000000, 0.000000000000000, -1.68665076409874E-015 ) );
#474 = SURFACE_STYLE_FILL_AREA( #546 );
#475 = ORIENTED_EDGE( '', *, *, #522, .F. );
#476 = ORIENTED_EDGE( '', *, *, #509, .T. );
#477 = CARTESIAN_POINT( '', ( 0.000000000000000, 0.000000000000000, 0.000000000000000 ) );
#478 = DIRECTION( '', ( -0.000000000000000, 0.000000000000000, -1.00000000000000 ) );
#479 = DIRECTION( '', ( 0.000000000000000, 1.00000000000000, 0.000000000000000 ) );
#480 = FILL_AREA_STYLE( '', ( #547 ) );
#481 = EDGE_CURVE( '', #548, #548, #549, .F. );
#482 = EDGE_CURVE( '', #550, #550, #551, .T. );
#483 = FILL_AREA_STYLE( '', ( #552 ) );
#484 = EDGE_CURVE( '', #553, #554, #555, .T. );
#485 = EDGE_CURVE( '', #556, #553, #557, .T. );
#486 = EDGE_CURVE( '', #558, #556, #559, .T. );
#487 = EDGE_CURVE( '', #558, #560, #561, .T. );
#488 = EDGE_CURVE( '', #554, #560, #562, .T. );
#489 = FILL_AREA_STYLE( '', ( #563 ) );
#490 = EDGE_CURVE( '', #554, #564, #565, .T. );
#491 = EDGE_CURVE( '', #564, #553, #566, .T. );
#492 = FILL_AREA_STYLE( '', ( #567 ) );
#493 = EDGE_CURVE( '', #568, #569, #570, .T. );
#494 = EDGE_CURVE( '', #571, #568, #572, .T. );
#495 = EDGE_CURVE( '', #573, #571, #574, .T. );
#496 = EDGE_CURVE( '', #573, #575, #576, .T. );
#497 = EDGE_CURVE( '', #569, #575, #577, .T. );
#498 = FILL_AREA_STYLE( '', ( #578 ) );
#499 = EDGE_CURVE( '', #579, #580, #581, .T. );
#500 = EDGE_CURVE( '', #580, #582, #583, .T. );
#501 = EDGE_CURVE( '', #582, #579, #584, .F. );
#502 = FILL_AREA_STYLE( '', ( #585 ) );
#503 = EDGE_CURVE( '', #586, #586, #587, .F. );
#504 = EDGE_CURVE( '', #588, #573, #589, .T. );
#505 = EDGE_CURVE( '', #571, #590, #591, .T. );
#506 = EDGE_CURVE( '', #590, #558, #592, .T. );
#507 = EDGE_CURVE( '', #556, #588, #593, .T. );
#508 = FILL_AREA_STYLE( '', ( #594 ) );
#509 = EDGE_CURVE( '', #595, #595, #596, .T. );
#510 = EDGE_CURVE( '', #597, #597, #598, .T. );
#511 = FILL_AREA_STYLE( '', ( #599 ) );
#512 = EDGE_CURVE( '', #575, #600, #601, .T. );
#513 = EDGE_CURVE( '', #588, #602, #603, .T. );
#514 = EDGE_CURVE( '', #600, #602, #604, .T. );
#515 = FILL_AREA_STYLE( '', ( #605 ) );
#516 = EDGE_CURVE( '', #606, #606, #607, .T. );
#517 = EDGE_CURVE( '', #608, #608, #609, .T. );
#518 = FILL_AREA_STYLE( '', ( #610 ) );
#519 = EDGE_CURVE( '', #611, #611, #612, .T. );
#520 = CARTESIAN_POINT( '', ( 0.000000000000000, 0.000000000000000, 11.8669788995300 ) );
#521 = FILL_AREA_STYLE( '', ( #613 ) );
#522 = EDGE_CURVE( '', #614, #614, #615, .T. );
#523 = FILL_AREA_STYLE( '', ( #616 ) );
#524 = EDGE_CURVE( '', #590, #579, #617, .T. );
#525 = EDGE_CURVE( '', #580, #568, #618, .T. );
#526 = FILL_AREA_STYLE( '', ( #619 ) );
#527 = EDGE_CURVE( '', #569, #580, #620, .T. );
#528 = FILL_AREA_STYLE( '', ( #621 ) );
#529 = EDGE_CURVE( '', #602, #564, #622, .T. );
#530 = EDGE_CURVE( '', #564, #600, #623, .T. );
#531 = FILL_AREA_STYLE( '', ( #624 ) );
#532 = EDGE_CURVE( '', #600, #569, #625, .T. );
#533 = EDGE_CURVE( '', #582, #554, #626, .T. );
#534 = FILL_AREA_STYLE( '', ( #627 ) );
#535 = EDGE_CURVE( '', #628, #628, #629, .T. );
#536 = FILL_AREA_STYLE( '', ( #630 ) );
#537 = EDGE_CURVE( '', #560, #582, #631, .F. );
#538 = FILL_AREA_STYLE( '', ( #632 ) );
#539 = FILL_AREA_STYLE( '', ( #633 ) );
#540 = FILL_AREA_STYLE( '', ( #634 ) );
#541 = FILL_AREA_STYLE( '', ( #635 ) );
#542 = FILL_AREA_STYLE( '', ( #636 ) );
#543 = EDGE_CURVE( '', #637, #637, #638, .T. );
#544 = FILL_AREA_STYLE( '', ( #639 ) );
#545 = FILL_AREA_STYLE( '', ( #640 ) );
#546 = FILL_AREA_STYLE( '', ( #641 ) );
#547 = FILL_AREA_STYLE_COLOUR( '', #642 );
#548 = VERTEX_POINT( '', #643 );
#549 = CIRCLE( '', #644, 2.50000000000000 );
#550 = VERTEX_POINT( '', #645 );
#551 = CIRCLE( '', #646, 2.50000000000000 );
#552 = FILL_AREA_STYLE_COLOUR( '', #647 );
#553 = VERTEX_POINT( '', #648 );
#554 = VERTEX_POINT( '', #649 );
#555 = B_SPLINE_CURVE_WITH_KNOTS( '', 3, ( #650, #651, #652, #653, #654, #655, #656, #657 ), .UNSPECIFIED., .F., .F., ( 4, 2, 2, 4 ), ( 0.000000000000000, 0.00119720599835777, 0.00179568178122138, 0.00239415756408499 ), .UNSPECIFIED. );
#556 = VERTEX_POINT( '', #658 );
#557 = LINE( '', #659, #660 );
#558 = VERTEX_POINT( '', #661 );
#559 = LINE( '', #662, #663 );
#560 = VERTEX_POINT( '', #664 );
#561 = LINE( '', #665, #666 );
#562 = B_SPLINE_CURVE_WITH_KNOTS( '', 3, ( #667, #668, #669, #670, #671, #672 ), .UNSPECIFIED., .F., .F., ( 4, 2, 4 ), ( 0.00239415756408499, 0.00358272368253846, 0.00477128980099193 ), .UNSPECIFIED. );
#563 = FILL_AREA_STYLE_COLOUR( '', #673 );
#564 = VERTEX_POINT( '', #674 );
#565 = CIRCLE( '', #675, 4.00000000000000 );
#566 = B_SPLINE_CURVE_WITH_KNOTS( '', 3, ( #676, #677, #678, #679, #680, #681 ), .UNSPECIFIED., .F., .F., ( 4, 2, 4 ), ( 0.00239415756408498, 0.00358272368253846, 0.00477128980099193 ), .UNSPECIFIED. );
#567 = FILL_AREA_STYLE_COLOUR( '', #682 );
#568 = VERTEX_POINT( '', #683 );
#569 = VERTEX_POINT( '', #684 );
#570 = B_SPLINE_CURVE_WITH_KNOTS( '', 3, ( #685, #686, #687, #688, #689, #690, #691, #692 ), .UNSPECIFIED., .F., .F., ( 4, 2, 2, 4 ), ( 0.000000000000000, 0.00119720599835777, 0.00179568178122138, 0.00239415756408499 ), .UNSPECIFIED. );
#571 = VERTEX_POINT( '', #693 );
#572 = LINE( '', #694, #695 );
#573 = VERTEX_POINT( '', #696 );
#574 = LINE( '', #697, #698 );
#575 = VERTEX_POINT( '', #699 );
#576 = LINE( '', #700, #701 );
#577 = B_SPLINE_CURVE_WITH_KNOTS( '', 3, ( #702, #703, #704, #705, #706, #707 ), .UNSPECIFIED., .F., .F., ( 4, 2, 4 ), ( 0.00239415756408499, 0.00358272368253846, 0.00477128980099194 ), .UNSPECIFIED. );
#578 = FILL_AREA_STYLE_COLOUR( '', #708 );
#579 = VERTEX_POINT( '', #709 );
#580 = VERTEX_POINT( '', #710 );
#581 = B_SPLINE_CURVE_WITH_KNOTS( '', 3, ( #711, #712, #713, #714, #715, #716, #717, #718 ), .UNSPECIFIED., .F., .F., ( 4, 2, 2, 4 ), ( 0.000000000000000, 0.00119720599835777, 0.00179568178122138, 0.00239415756408498 ), .UNSPECIFIED. );
#582 = VERTEX_POINT( '', #719 );
#583 = CIRCLE( '', #720, 4.00000000000000 );
#584 = B_SPLINE_CURVE_WITH_KNOTS( '', 3, ( #721, #722, #723, #724, #725, #726, #727, #728 ), .UNSPECIFIED., .F., .F., ( 4, 2, 2, 4 ), ( 0.00402790283753712, 0.00522024844898801, 0.00581642125471346, 0.00641259406043891 ), .UNSPECIFIED. );
#585 = FILL_AREA_STYLE_COLOUR( '', #729 );
#586 = VERTEX_POINT( '', #730 );
#587 = CIRCLE( '', #731, 2.26491470390000 );
#588 = VERTEX_POINT( '', #732 );
#589 = LINE( '', #733, #734 );
#590 = VERTEX_POINT( '', #735 );
#591 = LINE( '', #736, #737 );
#592 = LINE( '', #738, #739 );
#593 = LINE( '', #740, #741 );
#594 = FILL_AREA_STYLE_COLOUR( '', #742 );
#595 = VERTEX_POINT( '', #743 );
#596 = CIRCLE( '', #744, 2.06700000000000 );
#597 = VERTEX_POINT( '', #745 );
#598 = CIRCLE( '', #746, 2.26700000000000 );
#599 = FILL_AREA_STYLE_COLOUR( '', #747 );
#600 = VERTEX_POINT( '', #748 );
#601 = B_SPLINE_CURVE_WITH_KNOTS( '', 3, ( #749, #750, #751, #752, #753, #754, #755, #756 ), .UNSPECIFIED., .F., .F., ( 4, 2, 2, 4 ), ( 0.00402790283760511, 0.00522024844905563, 0.00581642125478088, 0.00641259406050614 ), .UNSPECIFIED. );
#602 = VERTEX_POINT( '', #757 );
#603 = LINE( '', #758, #759 );
#604 = B_SPLINE_CURVE_WITH_KNOTS( '', 3, ( #760, #761, #762, #763, #764, #765, #766, #767 ), .UNSPECIFIED., .F., .F., ( 4, 2, 2, 4 ), ( 0.00641259406050614, 0.00760631882332193, 0.00820318120472982, 0.00880004358613772 ), .UNSPECIFIED. );
#605 = FILL_AREA_STYLE_COLOUR( '', #768 );
#606 = VERTEX_POINT( '', #769 );
#607 = CIRCLE( '', #770, 1.91850454240000 );
#608 = VERTEX_POINT( '', #771 );
#609 = CIRCLE( '', #772, 1.86491470390000 );
#610 = FILL_AREA_STYLE_COLOUR( '', #773 );
#611 = VERTEX_POINT( '', #774 );
#612 = CIRCLE( '', #775, 2.06700000000000 );
#613 = FILL_AREA_STYLE_COLOUR( '', #776 );
#614 = VERTEX_POINT( '', #777 );
#615 = CIRCLE( '', #778, 2.06700000000000 );
#616 = FILL_AREA_STYLE_COLOUR( '', #779 );
#617 = LINE( '', #780, #781 );
#618 = B_SPLINE_CURVE_WITH_KNOTS( '', 3, ( #782, #783, #784, #785, #786, #787 ), .UNSPECIFIED., .F., .F., ( 4, 2, 4 ), ( 0.00239415756408498, 0.00358272368253846, 0.00477128980099194 ), .UNSPECIFIED. );
#619 = FILL_AREA_STYLE_COLOUR( '', #788 );
#620 = CIRCLE( '', #789, 4.00000000000000 );
#621 = FILL_AREA_STYLE_COLOUR( '', #790 );
#622 = B_SPLINE_CURVE_WITH_KNOTS( '', 3, ( #791, #792, #793, #794, #795, #796, #797, #798 ), .UNSPECIFIED., .F., .F., ( 4, 2, 2, 4 ), ( 0.000000000000000, 0.00119720599835777, 0.00179568178122138, 0.00239415756408498 ), .UNSPECIFIED. );
#623 = CIRCLE( '', #799, 4.00000000000000 );
#624 = FILL_AREA_STYLE_COLOUR( '', #800 );
#625 = CIRCLE( '', #801, 4.00000000000000 );
#626 = CIRCLE( '', #802, 4.00000000000000 );
#627 = FILL_AREA_STYLE_COLOUR( '', #803 );
#628 = VERTEX_POINT( '', #804 );
#629 = CIRCLE( '', #805, 2.20000000000000 );
#630 = FILL_AREA_STYLE_COLOUR( '', #806 );
#631 = B_SPLINE_CURVE_WITH_KNOTS( '', 3, ( #807, #808, #809, #810, #811, #812, #813, #814 ), .UNSPECIFIED., .F., .F., ( 4, 2, 2, 4 ), ( 0.00641259406043891, 0.00760631882325471, 0.00820318120466261, 0.00880004358607051 ), .UNSPECIFIED. );
#632 = FILL_AREA_STYLE_COLOUR( '', #815 );
#633 = FILL_AREA_STYLE_COLOUR( '', #816 );
#634 = FILL_AREA_STYLE_COLOUR( '', #817 );
#635 = FILL_AREA_STYLE_COLOUR( '', #818 );
#636 = FILL_AREA_STYLE_COLOUR( '', #819 );
#637 = VERTEX_POINT( '', #820 );
#638 = CIRCLE( '', #821, 1.86491470390000 );
#639 = FILL_AREA_STYLE_COLOUR( '', #822 );
#640 = FILL_AREA_STYLE_COLOUR( '', #823 );
#641 = FILL_AREA_STYLE_COLOUR( '', #824 );
#642 = COLOUR_RGB( '', 0.184313729400000, 0.749019622800000, 0.580392181900000 );
#643 = CARTESIAN_POINT( '', ( 2.50000000000002, 0.000000000000000, 24.7000000000000 ) );
#644 = AXIS2_PLACEMENT_3D( '', #825, #826, #827 );
#645 = CARTESIAN_POINT( '', ( -2.49999999999999, 0.000000000000000, 17.0000000000000 ) );
#646 = AXIS2_PLACEMENT_3D( '', #828, #829, #830 );
#647 = COLOUR_RGB( '', 0.329411774900000, 0.337254911700000, 0.349019616800000 );
#648 = CARTESIAN_POINT( '', ( 4.61880215351701, 8.21670848522827E-016, 0.618802153517005 ) );
#649 = CARTESIAN_POINT( '', ( 3.46410161513775, -2.00000000000000, 0.000000000000000 ) );
#650 = CARTESIAN_POINT( '', ( 4.61880215351701, 9.61289026595227E-016, 0.618802153517008 ) );
#651 = CARTESIAN_POINT( '', ( 4.43772902109491, -0.313627865240726, 0.437729021094907 ) );
#652 = CARTESIAN_POINT( '', ( 4.25255762781284, -0.634354126513591, 0.283863697167629 ) );
#653 = CARTESIAN_POINT( '', ( 3.96481582848762, -1.13273754240615, 0.119352868334601 ) );
#654 = CARTESIAN_POINT( '', ( 3.86722011410567, -1.30177827831667, 0.0756810474711408 ) );
#655 = CARTESIAN_POINT( '', ( 3.66788057421968, -1.64704448935662, 0.0158761634956975 ) );
#656 = CARTESIAN_POINT( '', ( 3.56523445809359, -1.82483277768661, 1.93123511973980E-015 ) );
#657 = CARTESIAN_POINT( '', ( 3.46410161513776, -2.00000000000000, 1.95156391047386E-015 ) );
#658 = CARTESIAN_POINT( '', ( 4.61880215351701, 8.67361737988404E-016, 15.0000000000000 ) );
#659 = CARTESIAN_POINT( '', ( 4.61880215351701, 8.67361737988404E-016, 15.0000000000000 ) );
#660 = VECTOR( '', #831, 1000.00000000000 );
#661 = CARTESIAN_POINT( '', ( 2.30940107675851, -4.00000000000000, 15.0000000000000 ) );
#662 = CARTESIAN_POINT( '', ( 2.30940107675851, -4.00000000000000, 15.0000000000000 ) );
#663 = VECTOR( '', #832, 1000.00000000000 );
#664 = CARTESIAN_POINT( '', ( 2.30940107675851, -4.00000000000000, 0.618802153517010 ) );
#665 = CARTESIAN_POINT( '', ( 2.30940107675851, -4.00000000000000, 15.0000000000000 ) );
#666 = VECTOR( '', #833, 1000.00000000000 );
#667 = CARTESIAN_POINT( '', ( 3.46410161513776, -2.00000000000000, 1.95156391047386E-015 ) );
#668 = CARTESIAN_POINT( '', ( 3.26325293580602, -2.34788011723568, 2.00492698615093E-015 ) );
#669 = CARTESIAN_POINT( '', ( 3.06581928134204, -2.68984523789128, 0.0614213096345789 ) );
#670 = CARTESIAN_POINT( '', ( 2.67643029490660, -3.36428674630521, 0.282794907482446 ) );
#671 = CARTESIAN_POINT( '', ( 2.49026482692313, -3.68673479546742, 0.437938403352159 ) );
#672 = CARTESIAN_POINT( '', ( 2.30940107675847, -4.00000000000006, 0.618802153516829 ) );
#673 = COLOUR_RGB( '', 0.329411774900000, 0.337254911700000, 0.349019616800000 );
#674 = CARTESIAN_POINT( '', ( 3.46410161513775, 2.00000000000000, 0.000000000000000 ) );
#675 = AXIS2_PLACEMENT_3D( '', #834, #835, #836 );
#676 = CARTESIAN_POINT( '', ( 3.46410161513776, 2.00000000000000, 3.25260651745649E-015 ) );
#677 = CARTESIAN_POINT( '', ( 3.66495029446949, 1.65211988276433, 3.21646644504033E-015 ) );
#678 = CARTESIAN_POINT( '', ( 3.86238394893347, 1.31015476210872, 0.0614213096345808 ) );
#679 = CARTESIAN_POINT( '', ( 4.25177293536891, 0.635713253694788, 0.282794907482448 ) );
#680 = CARTESIAN_POINT( '', ( 4.43793840335238, 0.313265204532586, 0.437938403352160 ) );
#681 = CARTESIAN_POINT( '', ( 4.61880215351704, -5.98964134731462E-014, 0.618802153516830 ) );
#682 = COLOUR_RGB( '', 0.329411774900000, 0.337254911700000, 0.349019616800000 );
#683 = CARTESIAN_POINT( '', ( -4.61880215351702, 0.000000000000000, 0.618802153517015 ) );
#684 = CARTESIAN_POINT( '', ( -3.46410161513775, 2.00000000000000, 0.000000000000000 ) );
#685 = CARTESIAN_POINT( '', ( -4.61880215351701, -3.77700989997952E-015, 0.618802153517014 ) );
#686 = CARTESIAN_POINT( '', ( -4.43772902109491, 0.313627865240723, 0.437729021094913 ) );
#687 = CARTESIAN_POINT( '', ( -4.25255762781284, 0.634354126513588, 0.283863697167634 ) );
#688 = CARTESIAN_POINT( '', ( -3.96481582848763, 1.13273754240615, 0.119352868334605 ) );
#689 = CARTESIAN_POINT( '', ( -3.86722011410568, 1.30177827831667, 0.0756810474711460 ) );
#690 = CARTESIAN_POINT( '', ( -3.66788057421968, 1.64704448935662, 0.0158761634957023 ) );
#691 = CARTESIAN_POINT( '', ( -3.56523445809360, 1.82483277768661, 6.29218424867857E-015 ) );
#692 = CARTESIAN_POINT( '', ( -3.46410161513776, 2.00000000000000, 6.28837260041588E-015 ) );
#693 = CARTESIAN_POINT( '', ( -4.61880215351702, 0.000000000000000, 15.0000000000000 ) );
#694 = CARTESIAN_POINT( '', ( -4.61880215351702, 0.000000000000000, 15.0000000000000 ) );
#695 = VECTOR( '', #837, 1000.00000000000 );
#696 = CARTESIAN_POINT( '', ( -2.30940107675851, 4.00000000000000, 15.0000000000000 ) );
#697 = CARTESIAN_POINT( '', ( -2.30940107675851, 4.00000000000000, 15.0000000000000 ) );
#698 = VECTOR( '', #838, 1000.00000000000 );
#699 = CARTESIAN_POINT( '', ( -2.30940107675851, 4.00000000000000, 0.618802153517016 ) );
#700 = CARTESIAN_POINT( '', ( -2.30940107675851, 4.00000000000000, 15.0000000000000 ) );
#701 = VECTOR( '', #839, 1000.00000000000 );
#702 = CARTESIAN_POINT( '', ( -3.46410161513776, 2.00000000000000, 6.28837260041588E-015 ) );
#703 = CARTESIAN_POINT( '', ( -3.26325293580602, 2.34788011723568, 6.29684292988847E-015 ) );
#704 = CARTESIAN_POINT( '', ( -3.06581928134205, 2.68984523789128, 0.0614213096345836 ) );
#705 = CARTESIAN_POINT( '', ( -2.67643029490661, 3.36428674630521, 0.282794907482450 ) );
#706 = CARTESIAN_POINT( '', ( -2.49026482692314, 3.68673479546742, 0.437938403352162 ) );
#707 = CARTESIAN_POINT( '', ( -2.30940107675847, 4.00000000000006, 0.618802153516832 ) );
#708 = COLOUR_RGB( '', 0.329411774900000, 0.337254911700000, 0.349019616800000 );
#709 = CARTESIAN_POINT( '', ( -2.30940107675851, -4.00000000000000, 0.618802153517010 ) );
#710 = CARTESIAN_POINT( '', ( -3.46410161513775, -2.00000000000000, 0.000000000000000 ) );
#711 = CARTESIAN_POINT( '', ( -2.30940107675852, -4.00000000000000, 0.618802153517015 ) );
#712 = CARTESIAN_POINT( '', ( -2.49047420918062, -3.68637213475928, 0.437729021094915 ) );
#713 = CARTESIAN_POINT( '', ( -2.67564560246269, -3.36564587348641, 0.283863697167638 ) );
#714 = CARTESIAN_POINT( '', ( -2.96338740178790, -2.86726245759385, 0.119352868334611 ) );
#715 = CARTESIAN_POINT( '', ( -3.06098311616985, -2.69822172168333, 0.0756810474711519 ) );
#716 = CARTESIAN_POINT( '', ( -3.26032265605585, -2.35295551064339, 0.0158761634957090 ) );
#717 = CARTESIAN_POINT( '', ( -3.36296877218193, -2.17516722231340, 1.28842181606852E-014 ) );
#718 = CARTESIAN_POINT( '', ( -3.46410161513777, -2.00000000000001, 1.27935856353289E-014 ) );
#719 = CARTESIAN_POINT( '', ( 0.000000000000000, -4.00000000000000, 0.000000000000000 ) );
#720 = AXIS2_PLACEMENT_3D( '', #840, #841, #842 );
#721 = CARTESIAN_POINT( '', ( -2.30940107675868, -4.00000000000000, 0.618802153516749 ) );
#722 = CARTESIAN_POINT( '', ( -1.95145109933168, -4.00000000000000, 0.439827164803236 ) );
#723 = CARTESIAN_POINT( '', ( -1.57443330855904, -4.00000000000000, 0.282836910145421 ) );
#724 = CARTESIAN_POINT( '', ( -0.997005934733097, -4.00000000000000, 0.118250086243424 ) );
#725 = CARTESIAN_POINT( '', ( -0.801933240719512, -4.00000000000000, 0.0748857650910016 ) );
#726 = CARTESIAN_POINT( '', ( -0.405560610559006, -4.00000000000000, 0.0157286368487815 ) );
#727 = CARTESIAN_POINT( '', ( -0.202626016221019, -4.00000000000000, -1.24014093807502E-014 ) );
#728 = CARTESIAN_POINT( '', ( 1.74223804995033E-015, -4.00000000000000, -1.23177185550945E-014 ) );
#729 = COLOUR_RGB( '', 0.329411774900000, 0.337254911700000, 0.349019616800000 );
#730 = CARTESIAN_POINT( '', ( 2.26491470389142, 0.000000000000000, 15.0000000000000 ) );
#731 = AXIS2_PLACEMENT_3D( '', #843, #844, #845 );
#732 = CARTESIAN_POINT( '', ( 2.30940107675851, 4.00000000000000, 15.0000000000000 ) );
#733 = CARTESIAN_POINT( '', ( 2.30940107675851, 4.00000000000000, 15.0000000000000 ) );
#734 = VECTOR( '', #846, 1000.00000000000 );
#735 = CARTESIAN_POINT( '', ( -2.30940107675851, -4.00000000000000, 15.0000000000000 ) );
#736 = CARTESIAN_POINT( '', ( -4.61880215351702, -4.33680868994202E-016, 15.0000000000000 ) );
#737 = VECTOR( '', #847, 1000.00000000000 );
#738 = CARTESIAN_POINT( '', ( -2.30940107675851, -4.00000000000000, 15.0000000000000 ) );
#739 = VECTOR( '', #848, 1000.00000000000 );
#740 = CARTESIAN_POINT( '', ( 4.61880215351701, -4.33680868994202E-016, 15.0000000000000 ) );
#741 = VECTOR( '', #849, 1000.00000000000 );
#742 = COLOUR_RGB( '', 0.329411774900000, 0.337254911700000, 0.349019616800000 );
#743 = CARTESIAN_POINT( '', ( -2.06700000000000, 0.000000000000000, 0.200000000000000 ) );
#744 = AXIS2_PLACEMENT_3D( '', #850, #851, #852 );
#745 = CARTESIAN_POINT( '', ( 2.26700000000000, 0.000000000000000, 0.000000000000000 ) );
#746 = AXIS2_PLACEMENT_3D( '', #853, #854, #855 );
#747 = COLOUR_RGB( '', 0.329411774900000, 0.337254911700000, 0.349019616800000 );
#748 = CARTESIAN_POINT( '', ( 9.76504489179152E-015, 4.00000000000000, 0.000000000000000 ) );
#749 = CARTESIAN_POINT( '', ( -2.30940107675868, 4.00000000000001, 0.618802153516758 ) );
#750 = CARTESIAN_POINT( '', ( -1.95145109933171, 4.00000000000001, 0.439827164803263 ) );
#751 = CARTESIAN_POINT( '', ( -1.57443330855915, 4.00000000000001, 0.282836910145476 ) );
#752 = CARTESIAN_POINT( '', ( -0.997005934733254, 4.00000000000001, 0.118250086243471 ) );
#753 = CARTESIAN_POINT( '', ( -0.801933240719652, 4.00000000000001, 0.0748857650910343 ) );
#754 = CARTESIAN_POINT( '', ( -0.405560610559039, 4.00000000000001, 0.0157286368487891 ) );
#755 = CARTESIAN_POINT( '', ( -0.202626016220820, 4.00000000000000, -6.74068819424972E-015 ) );
#756 = CARTESIAN_POINT( '', ( 1.11537163911087E-014, 4.00000000000001, -6.67986808535054E-015 ) );
#757 = CARTESIAN_POINT( '', ( 2.30940107675851, 4.00000000000000, 0.618802153517005 ) );
#758 = CARTESIAN_POINT( '', ( 2.30940107675851, 4.00000000000000, 15.0000000000000 ) );
#759 = VECTOR( '', #856, 1000.00000000000 );
#760 = CARTESIAN_POINT( '', ( 1.08837643087930E-014, 4.00000000000001, -6.67986808535054E-015 ) );
#761 = CARTESIAN_POINT( '', ( 0.405720775638656, 4.00000000000000, -6.58652819784944E-015 ) );
#762 = CARTESIAN_POINT( '', ( 0.801039716834319, 4.00000000000000, 0.0624856325706910 ) );
#763 = CARTESIAN_POINT( '', ( 1.38207445597249, 4.00000000000000, 0.227961804886129 ) );
#764 = CARTESIAN_POINT( '', ( 1.57461626511589, 4.00000000000000, 0.295365512089063 ) );
#765 = CARTESIAN_POINT( '', ( 1.94837674948479, 4.00000000000000, 0.446000501350562 ) );
#766 = CARTESIAN_POINT( '', ( 2.13060966264263, 4.00000000000000, 0.529406446459067 ) );
#767 = CARTESIAN_POINT( '', ( 2.30940107675851, 4.00000000000000, 0.618802153517006 ) );
#768 = COLOUR_RGB( '', 0.329411774900000, 0.337254911700000, 0.349019616800000 );
#769 = CARTESIAN_POINT( '', ( 1.91850454237765, 0.000000000000000, 15.9928203230275 ) );
#770 = AXIS2_PLACEMENT_3D( '', #857, #858, #859 );
#771 = CARTESIAN_POINT( '', ( -1.86491470389141, 0.000000000000000, 15.7928203230276 ) );
#772 = AXIS2_PLACEMENT_3D( '', #860, #861, #862 );
#773 = COLOUR_RGB( '', 0.329411774900000, 0.337254911700000, 0.349019616800000 );
#774 = CARTESIAN_POINT( '', ( 0.000000000000000, -2.06700000000000, 10.6250000000000 ) );
#775 = AXIS2_PLACEMENT_3D( '', #863, #864, #865 );
#776 = COLOUR_RGB( '', 0.329411774900000, 0.337254911700000, 0.349019616800000 );
#777 = CARTESIAN_POINT( '', ( 0.000000000000000, 2.06700000000000, 8.00000000000000 ) );
#778 = AXIS2_PLACEMENT_3D( '', #866, #867, #868 );
#779 = COLOUR_RGB( '', 0.329411774900000, 0.337254911700000, 0.349019616800000 );
#780 = CARTESIAN_POINT( '', ( -2.30940107675851, -4.00000000000000, 15.0000000000000 ) );
#781 = VECTOR( '', #869, 1000.00000000000 );
#782 = CARTESIAN_POINT( '', ( -3.46410161513777, -2.00000000000001, 1.27935856353289E-014 ) );
#783 = CARTESIAN_POINT( '', ( -3.66495029446950, -1.65211988276433, 1.26165557493528E-014 ) );
#784 = CARTESIAN_POINT( '', ( -3.86238394893348, -1.31015476210872, 0.0614213096345902 ) );
#785 = CARTESIAN_POINT( '', ( -4.25177293536892, -0.635713253694789, 0.282794907482458 ) );
#786 = CARTESIAN_POINT( '', ( -4.43793840335239, -0.313265204532586, 0.437938403352170 ) );
#787 = CARTESIAN_POINT( '', ( -4.61880215351705, 5.98058861768131E-014, 0.618802153516840 ) );
#788 = COLOUR_RGB( '', 0.329411774900000, 0.337254911700000, 0.349019616800000 );
#789 = AXIS2_PLACEMENT_3D( '', #870, #871, #872 );
#790 = COLOUR_RGB( '', 0.329411774900000, 0.337254911700000, 0.349019616800000 );
#791 = CARTESIAN_POINT( '', ( 2.30940107675851, 4.00000000000000, 0.618802153517008 ) );
#792 = CARTESIAN_POINT( '', ( 2.49047420918061, 3.68637213475927, 0.437729021094908 ) );
#793 = CARTESIAN_POINT( '', ( 2.67564560246268, 3.36564587348641, 0.283863697167630 ) );
#794 = CARTESIAN_POINT( '', ( 2.96338740178789, 2.86726245759385, 0.119352868334602 ) );
#795 = CARTESIAN_POINT( '', ( 3.06098311616984, 2.69822172168333, 0.0756810474711426 ) );
#796 = CARTESIAN_POINT( '', ( 3.26032265605584, 2.35295551064339, 0.0158761634956994 ) );
#797 = CARTESIAN_POINT( '', ( 3.36296877218192, 2.17516722231339, 3.28846424555695E-015 ) );
#798 = CARTESIAN_POINT( '', ( 3.46410161513776, 2.00000000000000, 3.25260651745649E-015 ) );
#799 = AXIS2_PLACEMENT_3D( '', #873, #874, #875 );
#800 = COLOUR_RGB( '', 0.329411774900000, 0.337254911700000, 0.349019616800000 );
#801 = AXIS2_PLACEMENT_3D( '', #876, #877, #878 );
#802 = AXIS2_PLACEMENT_3D( '', #879, #880, #881 );
#803 = COLOUR_RGB( '', 0.329411774900000, 0.337254911700000, 0.349019616800000 );
#804 = CARTESIAN_POINT( '', ( 2.20000000000002, 0.000000000000000, 25.0000000000000 ) );
#805 = AXIS2_PLACEMENT_3D( '', #882, #883, #884 );
#806 = COLOUR_RGB( '', 0.329411774900000, 0.337254911700000, 0.349019616800000 );
#807 = CARTESIAN_POINT( '', ( 1.74223804995033E-015, -4.00000000000000, -1.23177185550945E-014 ) );
#808 = CARTESIAN_POINT( '', ( 0.405720775638904, -4.00000000000000, -1.21430643318376E-014 ) );
#809 = CARTESIAN_POINT( '', ( 0.801039716834523, -4.00000000000000, 0.0624856325707484 ) );
#810 = CARTESIAN_POINT( '', ( 1.38207445597232, -4.00000000000000, 0.227961804886078 ) );
#811 = CARTESIAN_POINT( '', ( 1.57461626511569, -4.00000000000000, 0.295365512088982 ) );
#812 = CARTESIAN_POINT( '', ( 1.94837674948474, -4.00000000000000, 0.446000501350536 ) );
#813 = CARTESIAN_POINT( '', ( 2.13060966264261, -4.00000000000000, 0.529406446459061 ) );
#814 = CARTESIAN_POINT( '', ( 2.30940107675851, -4.00000000000000, 0.618802153517008 ) );
#815 = COLOUR_RGB( '', 0.329411774900000, 0.337254911700000, 0.349019616800000 );
#816 = COLOUR_RGB( '', 0.329411774900000, 0.337254911700000, 0.349019616800000 );
#817 = COLOUR_RGB( '', 0.329411774900000, 0.337254911700000, 0.349019616800000 );
#818 = COLOUR_RGB( '', 0.329411774900000, 0.337254911700000, 0.349019616800000 );
#819 = COLOUR_RGB( '', 0.329411774900000, 0.337254911700000, 0.349019616800000 );
#820 = CARTESIAN_POINT( '', ( 1.86491470389142, 0.000000000000000, 15.4000000000000 ) );
#821 = AXIS2_PLACEMENT_3D( '', #885, #886, #887 );
#822 = COLOUR_RGB( '', 0.329411774900000, 0.337254911700000, 0.349019616800000 );
#823 = COLOUR_RGB( '', 0.329411774900000, 0.337254911700000, 0.349019616800000 );
#824 = COLOUR_RGB( '', 0.184313729400000, 0.749019622800000, 0.580392181900000 );
#825 = CARTESIAN_POINT( '', ( 2.32523600658784E-014, 0.000000000000000, 24.7000000000000 ) );
#826 = DIRECTION( '', ( 1.68665076409873E-015, 0.000000000000000, 1.00000000000000 ) );
#827 = DIRECTION( '', ( 1.00000000000000, 0.000000000000000, -1.68665076409873E-015 ) );
#828 = CARTESIAN_POINT( '', ( 1.02651491823181E-014, 0.000000000000000, 17.0000000000000 ) );
#829 = DIRECTION( '', ( -1.68665076409874E-015, 0.000000000000000, -1.00000000000000 ) );
#830 = DIRECTION( '', ( -1.00000000000000, 0.000000000000000, 1.68665076409874E-015 ) );
#831 = DIRECTION( '', ( 0.000000000000000, 0.000000000000000, -1.00000000000000 ) );
#832 = DIRECTION( '', ( 0.500000000000000, 0.866025403784439, 0.000000000000000 ) );
#833 = DIRECTION( '', ( 0.000000000000000, 0.000000000000000, -1.00000000000000 ) );
#834 = CARTESIAN_POINT( '', ( 0.000000000000000, 0.000000000000000, 0.000000000000000 ) );
#835 = DIRECTION( '', ( 0.000000000000000, 0.000000000000000, 1.00000000000000 ) );
#836 = DIRECTION( '', ( 1.00000000000000, 0.000000000000000, 0.000000000000000 ) );
#837 = DIRECTION( '', ( 0.000000000000000, 0.000000000000000, -1.00000000000000 ) );
#838 = DIRECTION( '', ( -0.500000000000000, -0.866025403784439, 0.000000000000000 ) );
#839 = DIRECTION( '', ( 0.000000000000000, 0.000000000000000, -1.00000000000000 ) );
#840 = CARTESIAN_POINT( '', ( 0.000000000000000, 0.000000000000000, 0.000000000000000 ) );
#841 = DIRECTION( '', ( 0.000000000000000, 0.000000000000000, 1.00000000000000 ) );
#842 = DIRECTION( '', ( 1.00000000000000, 0.000000000000000, 0.000000000000000 ) );
#843 = CARTESIAN_POINT( '', ( 7.56650795976018E-015, 0.000000000000000, 15.0000000000000 ) );
#844 = DIRECTION( '', ( 0.000000000000000, 0.000000000000000, 1.00000000000000 ) );
#845 = DIRECTION( '', ( 1.00000000000000, 0.000000000000000, 0.000000000000000 ) );
#846 = DIRECTION( '', ( -1.00000000000000, 2.44126122294788E-015, 0.000000000000000 ) );
#847 = DIRECTION( '', ( 0.500000000000000, -0.866025403784439, 0.000000000000000 ) );
#848 = DIRECTION( '', ( 1.00000000000000, 0.000000000000000, 0.000000000000000 ) );
#849 = DIRECTION( '', ( -0.500000000000000, 0.866025403784439, 0.000000000000000 ) );
#850 = CARTESIAN_POINT( '', ( 0.000000000000000, 0.000000000000000, 0.200000000000000 ) );
#851 = DIRECTION( '', ( 0.000000000000000, 0.000000000000000, -1.00000000000000 ) );
#852 = DIRECTION( '', ( -1.00000000000000, 0.000000000000000, 0.000000000000000 ) );
#853 = CARTESIAN_POINT( '', ( 0.000000000000000, 0.000000000000000, 0.000000000000000 ) );
#854 = DIRECTION( '', ( 0.000000000000000, 0.000000000000000, 1.00000000000000 ) );
#855 = DIRECTION( '', ( 1.00000000000000, 0.000000000000000, 0.000000000000000 ) );
#856 = DIRECTION( '', ( 0.000000000000000, 0.000000000000000, -1.00000000000000 ) );
#857 = CARTESIAN_POINT( '', ( 8.56638881056784E-015, 0.000000000000000, 15.9928203230276 ) );
#858 = DIRECTION( '', ( 1.68665076409873E-015, 0.000000000000000, 1.00000000000000 ) );
#859 = DIRECTION( '', ( 1.00000000000000, 0.000000000000000, -1.68665076409874E-015 ) );
#860 = CARTESIAN_POINT( '', ( 8.22905865774810E-015, 0.000000000000000, 15.7928203230276 ) );
#861 = DIRECTION( '', ( -1.68665076409874E-015, 0.000000000000000, -1.00000000000000 ) );
#862 = DIRECTION( '', ( -1.00000000000000, 0.000000000000000, 1.68665076409874E-015 ) );
#863 = CARTESIAN_POINT( '', ( 0.000000000000000, 0.000000000000000, 10.6250000000000 ) );
#864 = DIRECTION( '', ( 0.000000000000000, 0.000000000000000, 1.00000000000000 ) );
#865 = DIRECTION( '', ( 0.000000000000000, -1.00000000000000, 0.000000000000000 ) );
#866 = CARTESIAN_POINT( '', ( 0.000000000000000, 0.000000000000000, 8.00000000000000 ) );
#867 = DIRECTION( '', ( 0.000000000000000, 0.000000000000000, -1.00000000000000 ) );
#868 = DIRECTION( '', ( 0.000000000000000, 1.00000000000000, 0.000000000000000 ) );
#869 = DIRECTION( '', ( 0.000000000000000, 0.000000000000000, -1.00000000000000 ) );
#870 = CARTESIAN_POINT( '', ( 0.000000000000000, 0.000000000000000, 0.000000000000000 ) );
#871 = DIRECTION( '', ( 0.000000000000000, 0.000000000000000, 1.00000000000000 ) );
#872 = DIRECTION( '', ( 1.00000000000000, 0.000000000000000, 0.000000000000000 ) );
#873 = CARTESIAN_POINT( '', ( 0.000000000000000, 0.000000000000000, 0.000000000000000 ) );
#874 = DIRECTION( '', ( 0.000000000000000, 0.000000000000000, 1.00000000000000 ) );
#875 = DIRECTION( '', ( 1.00000000000000, 0.000000000000000, 0.000000000000000 ) );
#876 = CARTESIAN_POINT( '', ( 0.000000000000000, 0.000000000000000, 0.000000000000000 ) );
#877 = DIRECTION( '', ( 0.000000000000000, 0.000000000000000, 1.00000000000000 ) );
#878 = DIRECTION( '', ( 1.00000000000000, 0.000000000000000, 0.000000000000000 ) );
#879 = CARTESIAN_POINT( '', ( 0.000000000000000, 0.000000000000000, 0.000000000000000 ) );
#880 = DIRECTION( '', ( 0.000000000000000, 0.000000000000000, 1.00000000000000 ) );
#881 = DIRECTION( '', ( 1.00000000000000, 0.000000000000000, 0.000000000000000 ) );
#882 = CARTESIAN_POINT( '', ( 2.37583552951080E-014, 0.000000000000000, 25.0000000000000 ) );
#883 = DIRECTION( '', ( 1.68665076409873E-015, 0.000000000000000, 1.00000000000000 ) );
#884 = DIRECTION( '', ( 1.00000000000000, 0.000000000000000, -1.68665076409873E-015 ) );
#885 = CARTESIAN_POINT( '', ( 7.56650795976018E-015, 0.000000000000000, 15.4000000000000 ) );
#886 = DIRECTION( '', ( 0.000000000000000, 0.000000000000000, 1.00000000000000 ) );
#887 = DIRECTION( '', ( 1.00000000000000, 0.000000000000000, 0.000000000000000 ) );
ENDSEC;
END-ISO-10303-21;
