ISO-10303-21;
HEADER;
FILE_DESCRIPTION( ( 'Unknown' ), '1' );
FILE_NAME( 'I:/User_Groups_Only/17_EMC_Product_&_Development/Article_Master/eiCan/Assembly/As_SSTIE/Master_Data/01_CAD_drawing/1_Drawing/971250581/971250581.stp', 'Unknown', ( 'Unknown' ), ( 'Unknown' ), 'PSStep 18.0.17', 'Unknown', '  ' );
FILE_SCHEMA( ( 'AUTOMOTIVE_DESIGN { 1 0 10303 214 1 1 1 1 }' ) );
ENDSEC;
DATA;
#1 = MECHANICAL_DESIGN_GEOMETRIC_PRESENTATION_REPRESENTATION( ' ', ( #10, #11, #12, #13, #14, #15, #16, #17, #18, #19, #20, #21, #22, #23, #24, #25, #26, #27, #28, #29, #30, #31, #32, #33, #34 ), #6 );
#2 = PRODUCT_DEFINITION_CONTEXT( '', #35, 'design' );
#3 = APPLICATION_PROTOCOL_DEFINITION( 'international standard', 'automotive_design', 2001, #35 );
#4 = PRODUCT_CATEGORY_RELATIONSHIP( 'NONE', 'NONE', #36, #37 );
#5 = SHAPE_DEFINITION_REPRESENTATION( #38, #39 );
#6 =  ( GEOMETRIC_REPRESENTATION_CONTEXT( 3 )GLOBAL_UNCERTAINTY_ASSIGNED_CONTEXT( ( #42 ) )GLOBAL_UNIT_ASSIGNED_CONTEXT( ( #44, #45, #46 ) )REPRESENTATION_CONTEXT( 'NONE', 'WORKSPACE' ) );
#10 = STYLED_ITEM( '', ( #48 ), #49 );
#11 = STYLED_ITEM( '', ( #50 ), #51 );
#12 = STYLED_ITEM( '', ( #52 ), #53 );
#13 = STYLED_ITEM( '', ( #54 ), #55 );
#14 = STYLED_ITEM( '', ( #56 ), #57 );
#15 = STYLED_ITEM( '', ( #58 ), #59 );
#16 = STYLED_ITEM( '', ( #60 ), #61 );
#17 = STYLED_ITEM( '', ( #62 ), #63 );
#18 = STYLED_ITEM( '', ( #64 ), #65 );
#19 = STYLED_ITEM( '', ( #66 ), #67 );
#20 = STYLED_ITEM( '', ( #68 ), #69 );
#21 = STYLED_ITEM( '', ( #70 ), #71 );
#22 = STYLED_ITEM( '', ( #72 ), #73 );
#23 = STYLED_ITEM( '', ( #74 ), #75 );
#24 = STYLED_ITEM( '', ( #76 ), #77 );
#25 = STYLED_ITEM( '', ( #78 ), #79 );
#26 = STYLED_ITEM( '', ( #80 ), #81 );
#27 = STYLED_ITEM( '', ( #82 ), #83 );
#28 = STYLED_ITEM( '', ( #84 ), #85 );
#29 = STYLED_ITEM( '', ( #86 ), #87 );
#30 = STYLED_ITEM( '', ( #88 ), #89 );
#31 = STYLED_ITEM( '', ( #90 ), #91 );
#32 = STYLED_ITEM( '', ( #92 ), #93 );
#33 = STYLED_ITEM( '', ( #94 ), #95 );
#34 = STYLED_ITEM( '', ( #96 ), #97 );
#35 = APPLICATION_CONTEXT( 'core data for automotive mechanical design processes' );
#36 = PRODUCT_CATEGORY( 'part', 'NONE' );
#37 = PRODUCT_RELATED_PRODUCT_CATEGORY( 'detail', ' ', ( #98 ) );
#38 = PRODUCT_DEFINITION_SHAPE( 'NONE', 'NONE', #99 );
#39 = ADVANCED_BREP_SHAPE_REPRESENTATION( '1', ( #100, #101 ), #6 );
#42 = UNCERTAINTY_MEASURE_WITH_UNIT( LENGTH_MEASURE( 0.00100000000000000 ), #44, '', '' );
#44 =  ( CONVERSION_BASED_UNIT( 'MILLIMETRE', #104 )LENGTH_UNIT(  )NAMED_UNIT( #107 ) );
#45 =  ( NAMED_UNIT( #109 )PLANE_ANGLE_UNIT(  )SI_UNIT( $, .RADIAN. ) );
#46 =  ( NAMED_UNIT( #109 )SI_UNIT( $, .STERADIAN. )SOLID_ANGLE_UNIT(  ) );
#48 = PRESENTATION_STYLE_ASSIGNMENT( ( #115 ) );
#49 = ADVANCED_FACE( '', ( #116 ), #117, .F. );
#50 = PRESENTATION_STYLE_ASSIGNMENT( ( #118 ) );
#51 = ADVANCED_FACE( '', ( #119, #120 ), #121, .F. );
#52 = PRESENTATION_STYLE_ASSIGNMENT( ( #122 ) );
#53 = ADVANCED_FACE( '', ( #123, #124 ), #125, .T. );
#54 = PRESENTATION_STYLE_ASSIGNMENT( ( #126 ) );
#55 = ADVANCED_FACE( '', ( #127 ), #128, .F. );
#56 = PRESENTATION_STYLE_ASSIGNMENT( ( #129 ) );
#57 = ADVANCED_FACE( '', ( #130 ), #131, .T. );
#58 = PRESENTATION_STYLE_ASSIGNMENT( ( #132 ) );
#59 = ADVANCED_FACE( '', ( #133, #134 ), #135, .T. );
#60 = PRESENTATION_STYLE_ASSIGNMENT( ( #136 ) );
#61 = ADVANCED_FACE( '', ( #137, #138 ), #139, .T. );
#62 = PRESENTATION_STYLE_ASSIGNMENT( ( #140 ) );
#63 = ADVANCED_FACE( '', ( #141 ), #142, .F. );
#64 = PRESENTATION_STYLE_ASSIGNMENT( ( #143 ) );
#65 = ADVANCED_FACE( '', ( #144, #145 ), #146, .T. );
#66 = PRESENTATION_STYLE_ASSIGNMENT( ( #147 ) );
#67 = ADVANCED_FACE( '', ( #148, #149 ), #150, .F. );
#68 = PRESENTATION_STYLE_ASSIGNMENT( ( #151 ) );
#69 = ADVANCED_FACE( '', ( #152, #153 ), #154, .F. );
#70 = PRESENTATION_STYLE_ASSIGNMENT( ( #155 ) );
#71 = ADVANCED_FACE( '', ( #156 ), #157, .F. );
#72 = PRESENTATION_STYLE_ASSIGNMENT( ( #158 ) );
#73 = ADVANCED_FACE( '', ( #159, #160 ), #161, .F. );
#74 = PRESENTATION_STYLE_ASSIGNMENT( ( #162 ) );
#75 = ADVANCED_FACE( '', ( #163 ), #164, .F. );
#76 = PRESENTATION_STYLE_ASSIGNMENT( ( #165 ) );
#77 = ADVANCED_FACE( '', ( #166, #167 ), #168, .F. );
#78 = PRESENTATION_STYLE_ASSIGNMENT( ( #169 ) );
#79 = ADVANCED_FACE( '', ( #170, #171 ), #172, .T. );
#80 = PRESENTATION_STYLE_ASSIGNMENT( ( #173 ) );
#81 = ADVANCED_FACE( '', ( #174 ), #175, .T. );
#82 = PRESENTATION_STYLE_ASSIGNMENT( ( #176 ) );
#83 = ADVANCED_FACE( '', ( #177 ), #178, .T. );
#84 = PRESENTATION_STYLE_ASSIGNMENT( ( #179 ) );
#85 = ADVANCED_FACE( '', ( #180 ), #181, .T. );
#86 = PRESENTATION_STYLE_ASSIGNMENT( ( #182 ) );
#87 = ADVANCED_FACE( '', ( #183 ), #184, .T. );
#88 = PRESENTATION_STYLE_ASSIGNMENT( ( #185 ) );
#89 = ADVANCED_FACE( '', ( #186 ), #187, .T. );
#90 = PRESENTATION_STYLE_ASSIGNMENT( ( #188 ) );
#91 = ADVANCED_FACE( '', ( #189, #190 ), #191, .F. );
#92 = PRESENTATION_STYLE_ASSIGNMENT( ( #192 ) );
#93 = ADVANCED_FACE( '', ( #193 ), #194, .F. );
#94 = PRESENTATION_STYLE_ASSIGNMENT( ( #195 ) );
#95 = ADVANCED_FACE( '', ( #196, #197 ), #198, .F. );
#96 = PRESENTATION_STYLE_ASSIGNMENT( ( #199 ) );
#97 = ADVANCED_FACE( '', ( #200 ), #201, .T. );
#98 = PRODUCT( '1', '1', 'PART-1-DESC', ( #202 ) );
#99 = PRODUCT_DEFINITION( 'NONE', 'NONE', #203, #2 );
#100 = MANIFOLD_SOLID_BREP( '1', #204 );
#101 = AXIS2_PLACEMENT_3D( '', #205, #206, #207 );
#104 = LENGTH_MEASURE_WITH_UNIT( LENGTH_MEASURE( 1.00000000000000 ), #208 );
#107 = DIMENSIONAL_EXPONENTS( 1.00000000000000, 0.000000000000000, 0.000000000000000, 0.000000000000000, 0.000000000000000, 0.000000000000000, 0.000000000000000 );
#109 = DIMENSIONAL_EXPONENTS( 0.000000000000000, 0.000000000000000, 0.000000000000000, 0.000000000000000, 0.000000000000000, 0.000000000000000, 0.000000000000000 );
#115 = SURFACE_STYLE_USAGE( .BOTH., #209 );
#116 = FACE_OUTER_BOUND( '', #210, .T. );
#117 = PLANE( '', #211 );
#118 = SURFACE_STYLE_USAGE( .BOTH., #212 );
#119 = FACE_OUTER_BOUND( '', #213, .T. );
#120 = FACE_OUTER_BOUND( '', #214, .T. );
#121 = TOROIDAL_SURFACE( '', #215, 2.26491470390000, 0.400000000000000 );
#122 = SURFACE_STYLE_USAGE( .BOTH., #216 );
#123 = FACE_BOUND( '', #217, .T. );
#124 = FACE_OUTER_BOUND( '', #218, .T. );
#125 = CONICAL_SURFACE( '', #219, 1.86491470390000, 0.523598775600000 );
#126 = SURFACE_STYLE_USAGE( .BOTH., #220 );
#127 = FACE_OUTER_BOUND( '', #221, .T. );
#128 = PLANE( '', #222 );
#129 = SURFACE_STYLE_USAGE( .BOTH., #223 );
#130 = FACE_OUTER_BOUND( '', #224, .T. );
#131 = PLANE( '', #225 );
#132 = SURFACE_STYLE_USAGE( .BOTH., #226 );
#133 = FACE_OUTER_BOUND( '', #227, .T. );
#134 = FACE_OUTER_BOUND( '', #228, .T. );
#135 = CYLINDRICAL_SURFACE( '', #229, 1.86491470390000 );
#136 = SURFACE_STYLE_USAGE( .BOTH., #230 );
#137 = FACE_OUTER_BOUND( '', #231, .T. );
#138 = FACE_OUTER_BOUND( '', #232, .T. );
#139 = CYLINDRICAL_SURFACE( '', #233, 2.50000000000000 );
#140 = SURFACE_STYLE_USAGE( .BOTH., #234 );
#141 = FACE_OUTER_BOUND( '', #235, .T. );
#142 = PLANE( '', #236 );
#143 = SURFACE_STYLE_USAGE( .BOTH., #237 );
#144 = FACE_BOUND( '', #238, .T. );
#145 = FACE_OUTER_BOUND( '', #239, .T. );
#146 = PLANE( '', #240 );
#147 = SURFACE_STYLE_USAGE( .BOTH., #241 );
#148 = FACE_OUTER_BOUND( '', #242, .T. );
#149 = FACE_OUTER_BOUND( '', #243, .T. );
#150 = TOROIDAL_SURFACE( '', #244, 2.26491470390000, 0.400000000000000 );
#151 = SURFACE_STYLE_USAGE( .BOTH., #245 );
#152 = FACE_BOUND( '', #246, .T. );
#153 = FACE_OUTER_BOUND( '', #247, .T. );
#154 = PLANE( '', #248 );
#155 = SURFACE_STYLE_USAGE( .BOTH., #249 );
#156 = FACE_OUTER_BOUND( '', #250, .T. );
#157 = PLANE( '', #251 );
#158 = SURFACE_STYLE_USAGE( .BOTH., #252 );
#159 = FACE_OUTER_BOUND( '', #253, .T. );
#160 = FACE_OUTER_BOUND( '', #254, .T. );
#161 = CYLINDRICAL_SURFACE( '', #255, 2.06700000000000 );
#162 = SURFACE_STYLE_USAGE( .BOTH., #256 );
#163 = FACE_OUTER_BOUND( '', #257, .T. );
#164 = PLANE( '', #258 );
#165 = SURFACE_STYLE_USAGE( .BOTH., #259 );
#166 = FACE_BOUND( '', #260, .T. );
#167 = FACE_OUTER_BOUND( '', #261, .T. );
#168 = CONICAL_SURFACE( '', #262, 2.26700000000000, 0.785398163400000 );
#169 = SURFACE_STYLE_USAGE( .BOTH., #263 );
#170 = FACE_BOUND( '', #264, .T. );
#171 = FACE_OUTER_BOUND( '', #265, .T. );
#172 = CONICAL_SURFACE( '', #266, 2.50000000000000, 0.785398163400000 );
#173 = SURFACE_STYLE_USAGE( .BOTH., #267 );
#174 = FACE_OUTER_BOUND( '', #268, .T. );
#175 = CONICAL_SURFACE( '', #269, 4.00000000000000, 0.785398163400000 );
#176 = SURFACE_STYLE_USAGE( .BOTH., #270 );
#177 = FACE_OUTER_BOUND( '', #271, .T. );
#178 = CONICAL_SURFACE( '', #272, 4.00000000000000, 0.785398163400000 );
#179 = SURFACE_STYLE_USAGE( .BOTH., #273 );
#180 = FACE_OUTER_BOUND( '', #274, .T. );
#181 = CONICAL_SURFACE( '', #275, 4.00000000000000, 0.785398163400000 );
#182 = SURFACE_STYLE_USAGE( .BOTH., #276 );
#183 = FACE_OUTER_BOUND( '', #277, .T. );
#184 = CONICAL_SURFACE( '', #278, 4.00000000000000, 0.785398163400000 );
#185 = SURFACE_STYLE_USAGE( .BOTH., #279 );
#186 = FACE_OUTER_BOUND( '', #280, .T. );
#187 = CONICAL_SURFACE( '', #281, 4.00000000000000, 0.785398163400000 );
#188 = SURFACE_STYLE_USAGE( .BOTH., #282 );
#189 = FACE_OUTER_BOUND( '', #283, .T. );
#190 = FACE_OUTER_BOUND( '', #284, .T. );
#191 = CYLINDRICAL_SURFACE( '', #285, 2.06700000000000 );
#192 = SURFACE_STYLE_USAGE( .BOTH., #286 );
#193 = FACE_OUTER_BOUND( '', #287, .T. );
#194 = PLANE( '', #288 );
#195 = SURFACE_STYLE_USAGE( .BOTH., #289 );
#196 = FACE_OUTER_BOUND( '', #290, .T. );
#197 = FACE_BOUND( '', #291, .T. );
#198 = CONICAL_SURFACE( '', #292, 2.06700000000000, 1.02974425870000 );
#199 = SURFACE_STYLE_USAGE( .BOTH., #293 );
#200 = FACE_OUTER_BOUND( '', #294, .T. );
#201 = CONICAL_SURFACE( '', #295, 4.00000000000000, 0.785398163400000 );
#202 = PRODUCT_CONTEXT( '', #35, 'mechanical' );
#203 = PRODUCT_DEFINITION_FORMATION_WITH_SPECIFIED_SOURCE( ' ', 'NONE', #98, .NOT_KNOWN. );
#204 = CLOSED_SHELL( '', ( #97, #71, #93, #49, #55, #75, #69, #65, #59, #53, #61, #57, #73, #77, #63, #51, #67, #79, #83, #81, #85, #87, #89, #95, #91 ) );
#205 = CARTESIAN_POINT( '', ( 0.000000000000000, 0.000000000000000, 0.000000000000000 ) );
#206 = DIRECTION( '', ( 0.000000000000000, 0.000000000000000, 1.00000000000000 ) );
#207 = DIRECTION( '', ( 1.00000000000000, 0.000000000000000, 0.000000000000000 ) );
#208 =  ( LENGTH_UNIT(  )NAMED_UNIT( #107 )SI_UNIT( .MILLI., .METRE. ) );
#209 = SURFACE_SIDE_STYLE( '', ( #297 ) );
#210 = EDGE_LOOP( '', ( #298, #299, #300, #301, #302 ) );
#211 = AXIS2_PLACEMENT_3D( '', #303, #304, #305 );
#212 = SURFACE_SIDE_STYLE( '', ( #306 ) );
#213 = EDGE_LOOP( '', ( #307 ) );
#214 = EDGE_LOOP( '', ( #308 ) );
#215 = AXIS2_PLACEMENT_3D( '', #309, #310, #311 );
#216 = SURFACE_SIDE_STYLE( '', ( #312 ) );
#217 = EDGE_LOOP( '', ( #313 ) );
#218 = EDGE_LOOP( '', ( #314 ) );
#219 = AXIS2_PLACEMENT_3D( '', #315, #316, #317 );
#220 = SURFACE_SIDE_STYLE( '', ( #318 ) );
#221 = EDGE_LOOP( '', ( #319, #320, #321, #322, #323 ) );
#222 = AXIS2_PLACEMENT_3D( '', #324, #325, #326 );
#223 = SURFACE_SIDE_STYLE( '', ( #327 ) );
#224 = EDGE_LOOP( '', ( #328 ) );
#225 = AXIS2_PLACEMENT_3D( '', #329, #330, #331 );
#226 = SURFACE_SIDE_STYLE( '', ( #332 ) );
#227 = EDGE_LOOP( '', ( #333 ) );
#228 = EDGE_LOOP( '', ( #334 ) );
#229 = AXIS2_PLACEMENT_3D( '', #335, #336, #337 );
#230 = SURFACE_SIDE_STYLE( '', ( #338 ) );
#231 = EDGE_LOOP( '', ( #339 ) );
#232 = EDGE_LOOP( '', ( #340 ) );
#233 = AXIS2_PLACEMENT_3D( '', #341, #342, #343 );
#234 = SURFACE_SIDE_STYLE( '', ( #344 ) );
#235 = EDGE_LOOP( '', ( #345, #346, #347, #348, #349 ) );
#236 = AXIS2_PLACEMENT_3D( '', #350, #351, #352 );
#237 = SURFACE_SIDE_STYLE( '', ( #353 ) );
#238 = EDGE_LOOP( '', ( #354 ) );
#239 = EDGE_LOOP( '', ( #355, #356, #357, #358, #359, #360 ) );
#240 = AXIS2_PLACEMENT_3D( '', #361, #362, #363 );
#241 = SURFACE_SIDE_STYLE( '', ( #364 ) );
#242 = EDGE_LOOP( '', ( #365 ) );
#243 = EDGE_LOOP( '', ( #366 ) );
#244 = AXIS2_PLACEMENT_3D( '', #367, #368, #369 );
#245 = SURFACE_SIDE_STYLE( '', ( #370 ) );
#246 = EDGE_LOOP( '', ( #371 ) );
#247 = EDGE_LOOP( '', ( #372, #373, #374, #375, #376, #377 ) );
#248 = AXIS2_PLACEMENT_3D( '', #378, #379, #380 );
#249 = SURFACE_SIDE_STYLE( '', ( #381 ) );
#250 = EDGE_LOOP( '', ( #382, #383, #384, #385, #386 ) );
#251 = AXIS2_PLACEMENT_3D( '', #387, #388, #389 );
#252 = SURFACE_SIDE_STYLE( '', ( #390 ) );
#253 = EDGE_LOOP( '', ( #391 ) );
#254 = EDGE_LOOP( '', ( #392 ) );
#255 = AXIS2_PLACEMENT_3D( '', #393, #394, #395 );
#256 = SURFACE_SIDE_STYLE( '', ( #396 ) );
#257 = EDGE_LOOP( '', ( #397, #398, #399, #400, #401 ) );
#258 = AXIS2_PLACEMENT_3D( '', #402, #403, #404 );
#259 = SURFACE_SIDE_STYLE( '', ( #405 ) );
#260 = EDGE_LOOP( '', ( #406 ) );
#261 = EDGE_LOOP( '', ( #407 ) );
#262 = AXIS2_PLACEMENT_3D( '', #408, #409, #410 );
#263 = SURFACE_SIDE_STYLE( '', ( #411 ) );
#264 = EDGE_LOOP( '', ( #412 ) );
#265 = EDGE_LOOP( '', ( #413 ) );
#266 = AXIS2_PLACEMENT_3D( '', #414, #415, #416 );
#267 = SURFACE_SIDE_STYLE( '', ( #417 ) );
#268 = EDGE_LOOP( '', ( #418, #419, #420 ) );
#269 = AXIS2_PLACEMENT_3D( '', #421, #422, #423 );
#270 = SURFACE_SIDE_STYLE( '', ( #424 ) );
#271 = EDGE_LOOP( '', ( #425, #426, #427 ) );
#272 = AXIS2_PLACEMENT_3D( '', #428, #429, #430 );
#273 = SURFACE_SIDE_STYLE( '', ( #431 ) );
#274 = EDGE_LOOP( '', ( #432, #433, #434 ) );
#275 = AXIS2_PLACEMENT_3D( '', #435, #436, #437 );
#276 = SURFACE_SIDE_STYLE( '', ( #438 ) );
#277 = EDGE_LOOP( '', ( #439, #440, #441 ) );
#278 = AXIS2_PLACEMENT_3D( '', #442, #443, #444 );
#279 = SURFACE_SIDE_STYLE( '', ( #445 ) );
#280 = EDGE_LOOP( '', ( #446, #447, #448 ) );
#281 = AXIS2_PLACEMENT_3D( '', #449, #450, #451 );
#282 = SURFACE_SIDE_STYLE( '', ( #452 ) );
#283 = EDGE_LOOP( '', ( #453 ) );
#284 = EDGE_LOOP( '', ( #454 ) );
#285 = AXIS2_PLACEMENT_3D( '', #455, #456, #457 );
#286 = SURFACE_SIDE_STYLE( '', ( #458 ) );
#287 = EDGE_LOOP( '', ( #459, #460, #461, #462, #463 ) );
#288 = AXIS2_PLACEMENT_3D( '', #464, #465, #466 );
#289 = SURFACE_SIDE_STYLE( '', ( #467 ) );
#290 = EDGE_LOOP( '', ( #468 ) );
#291 = VERTEX_LOOP( '', #469 );
#292 = AXIS2_PLACEMENT_3D( '', #470, #471, #472 );
#293 = SURFACE_SIDE_STYLE( '', ( #473 ) );
#294 = EDGE_LOOP( '', ( #474, #475, #476 ) );
#295 = AXIS2_PLACEMENT_3D( '', #477, #478, #479 );
#297 = SURFACE_STYLE_FILL_AREA( #480 );
#298 = ORIENTED_EDGE( '', *, *, #481, .F. );
#299 = ORIENTED_EDGE( '', *, *, #482, .F. );
#300 = ORIENTED_EDGE( '', *, *, #483, .F. );
#301 = ORIENTED_EDGE( '', *, *, #484, .T. );
#302 = ORIENTED_EDGE( '', *, *, #485, .F. );
#303 = CARTESIAN_POINT( '', ( -2.30940107675851, -4.00000000000000, 25.0000000000000 ) );
#304 = DIRECTION( '', ( 0.000000000000000, 1.00000000000000, 0.000000000000000 ) );
#305 = DIRECTION( '', ( 0.000000000000000, 0.000000000000000, 1.00000000000000 ) );
#306 = SURFACE_STYLE_FILL_AREA( #486 );
#307 = ORIENTED_EDGE( '', *, *, #487, .F. );
#308 = ORIENTED_EDGE( '', *, *, #488, .F. );
#309 = CARTESIAN_POINT( '', ( 2.44330156007475E-014, 0.000000000000000, 25.4000000000000 ) );
#310 = DIRECTION( '', ( 0.000000000000000, 0.000000000000000, 1.00000000000000 ) );
#311 = DIRECTION( '', ( 1.00000000000000, 0.000000000000000, 0.000000000000000 ) );
#312 = SURFACE_STYLE_FILL_AREA( #489 );
#313 = ORIENTED_EDGE( '', *, *, #490, .T. );
#314 = ORIENTED_EDGE( '', *, *, #491, .T. );
#315 = CARTESIAN_POINT( '', ( 2.52763409827969E-014, 0.000000000000000, 25.9000000000000 ) );
#316 = DIRECTION( '', ( 1.68665076409873E-015, -0.000000000000000, 1.00000000000000 ) );
#317 = DIRECTION( '', ( 1.00000000000000, 0.000000000000000, -1.68665076409874E-015 ) );
#318 = SURFACE_STYLE_FILL_AREA( #492 );
#319 = ORIENTED_EDGE( '', *, *, #493, .F. );
#320 = ORIENTED_EDGE( '', *, *, #494, .F. );
#321 = ORIENTED_EDGE( '', *, *, #495, .F. );
#322 = ORIENTED_EDGE( '', *, *, #482, .T. );
#323 = ORIENTED_EDGE( '', *, *, #496, .F. );
#324 = CARTESIAN_POINT( '', ( 2.30940107675851, -4.00000000000000, 25.0000000000000 ) );
#325 = DIRECTION( '', ( -0.866025403784439, 0.500000000000000, 0.000000000000000 ) );
#326 = DIRECTION( '', ( -0.500000000000000, -0.866025403784439, 0.000000000000000 ) );
#327 = SURFACE_STYLE_FILL_AREA( #497 );
#328 = ORIENTED_EDGE( '', *, *, #498, .T. );
#329 = CARTESIAN_POINT( '', ( -2.50000000000000, 0.000000000000000, 35.0000000000000 ) );
#330 = DIRECTION( '', ( 1.68665076409874E-015, 0.000000000000000, 1.00000000000000 ) );
#331 = DIRECTION( '', ( 1.00000000000000, 0.000000000000000, -1.68665076409874E-015 ) );
#332 = SURFACE_STYLE_FILL_AREA( #499 );
#333 = ORIENTED_EDGE( '', *, *, #500, .T. );
#334 = ORIENTED_EDGE( '', *, *, #488, .T. );
#335 = CARTESIAN_POINT( '', ( 1.45244597725756E-016, 0.000000000000000, 11.0000000000000 ) );
#336 = DIRECTION( '', ( 1.68665076409874E-015, -0.000000000000000, 1.00000000000000 ) );
#337 = DIRECTION( '', ( -1.00000000000000, 0.000000000000000, 1.68665076409874E-015 ) );
#338 = SURFACE_STYLE_FILL_AREA( #501 );
#339 = ORIENTED_EDGE( '', *, *, #502, .T. );
#340 = ORIENTED_EDGE( '', *, *, #491, .F. );
#341 = CARTESIAN_POINT( '', ( 1.45244597725756E-016, 0.000000000000000, 11.0000000000000 ) );
#342 = DIRECTION( '', ( 1.68665076409874E-015, -0.000000000000000, 1.00000000000000 ) );
#343 = DIRECTION( '', ( -1.00000000000000, 0.000000000000000, 1.68665076409874E-015 ) );
#344 = SURFACE_STYLE_FILL_AREA( #503 );
#345 = ORIENTED_EDGE( '', *, *, #504, .F. );
#346 = ORIENTED_EDGE( '', *, *, #505, .F. );
#347 = ORIENTED_EDGE( '', *, *, #506, .F. );
#348 = ORIENTED_EDGE( '', *, *, #507, .T. );
#349 = ORIENTED_EDGE( '', *, *, #508, .F. );
#350 = CARTESIAN_POINT( '', ( 2.30940107675851, 4.00000000000000, 25.0000000000000 ) );
#351 = DIRECTION( '', ( -2.44126122294788E-015, -1.00000000000000, 0.000000000000000 ) );
#352 = DIRECTION( '', ( 1.00000000000000, -2.44126122294788E-015, 0.000000000000000 ) );
#353 = SURFACE_STYLE_FILL_AREA( #509 );
#354 = ORIENTED_EDGE( '', *, *, #487, .T. );
#355 = ORIENTED_EDGE( '', *, *, #506, .T. );
#356 = ORIENTED_EDGE( '', *, *, #510, .T. );
#357 = ORIENTED_EDGE( '', *, *, #511, .T. );
#358 = ORIENTED_EDGE( '', *, *, #483, .T. );
#359 = ORIENTED_EDGE( '', *, *, #495, .T. );
#360 = ORIENTED_EDGE( '', *, *, #512, .T. );
#361 = CARTESIAN_POINT( '', ( 0.000000000000000, 0.000000000000000, 25.0000000000000 ) );
#362 = DIRECTION( '', ( 0.000000000000000, 0.000000000000000, 1.00000000000000 ) );
#363 = DIRECTION( '', ( 1.00000000000000, 0.000000000000000, 0.000000000000000 ) );
#364 = SURFACE_STYLE_FILL_AREA( #513 );
#365 = ORIENTED_EDGE( '', *, *, #490, .F. );
#366 = ORIENTED_EDGE( '', *, *, #500, .F. );
#367 = CARTESIAN_POINT( '', ( 2.50955662987354E-014, 0.000000000000000, 25.7928203230275 ) );
#368 = DIRECTION( '', ( -1.68665076409873E-015, 0.000000000000000, -1.00000000000000 ) );
#369 = DIRECTION( '', ( -1.00000000000000, 0.000000000000000, 1.68665076409874E-015 ) );
#370 = SURFACE_STYLE_FILL_AREA( #514 );
#371 = ORIENTED_EDGE( '', *, *, #515, .T. );
#372 = ORIENTED_EDGE( '', *, *, #516, .F. );
#373 = ORIENTED_EDGE( '', *, *, #517, .F. );
#374 = ORIENTED_EDGE( '', *, *, #518, .F. );
#375 = ORIENTED_EDGE( '', *, *, #519, .F. );
#376 = ORIENTED_EDGE( '', *, *, #520, .F. );
#377 = ORIENTED_EDGE( '', *, *, #521, .F. );
#378 = CARTESIAN_POINT( '', ( 0.000000000000000, 0.000000000000000, 0.000000000000000 ) );
#379 = DIRECTION( '', ( 0.000000000000000, 0.000000000000000, 1.00000000000000 ) );
#380 = DIRECTION( '', ( 1.00000000000000, 0.000000000000000, 0.000000000000000 ) );
#381 = SURFACE_STYLE_FILL_AREA( #522 );
#382 = ORIENTED_EDGE( '', *, *, #523, .F. );
#383 = ORIENTED_EDGE( '', *, *, #524, .F. );
#384 = ORIENTED_EDGE( '', *, *, #510, .F. );
#385 = ORIENTED_EDGE( '', *, *, #505, .T. );
#386 = ORIENTED_EDGE( '', *, *, #525, .F. );
#387 = CARTESIAN_POINT( '', ( -2.30940107675851, 4.00000000000000, 25.0000000000000 ) );
#388 = DIRECTION( '', ( 0.866025403784439, -0.500000000000000, 0.000000000000000 ) );
#389 = DIRECTION( '', ( 0.500000000000000, 0.866025403784439, 0.000000000000000 ) );
#390 = SURFACE_STYLE_FILL_AREA( #526 );
#391 = ORIENTED_EDGE( '', *, *, #527, .F. );
#392 = ORIENTED_EDGE( '', *, *, #528, .T. );
#393 = CARTESIAN_POINT( '', ( 0.000000000000000, 0.000000000000000, 0.000000000000000 ) );
#394 = DIRECTION( '', ( -0.000000000000000, 0.000000000000000, -1.00000000000000 ) );
#395 = DIRECTION( '', ( 0.000000000000000, 1.00000000000000, 0.000000000000000 ) );
#396 = SURFACE_STYLE_FILL_AREA( #529 );
#397 = ORIENTED_EDGE( '', *, *, #530, .F. );
#398 = ORIENTED_EDGE( '', *, *, #507, .F. );
#399 = ORIENTED_EDGE( '', *, *, #512, .F. );
#400 = ORIENTED_EDGE( '', *, *, #494, .T. );
#401 = ORIENTED_EDGE( '', *, *, #531, .F. );
#402 = CARTESIAN_POINT( '', ( 4.61880215351701, -4.33680868994202E-016, 25.0000000000000 ) );
#403 = DIRECTION( '', ( -0.866025403784439, -0.500000000000000, 0.000000000000000 ) );
#404 = DIRECTION( '', ( 0.500000000000000, -0.866025403784439, 0.000000000000000 ) );
#405 = SURFACE_STYLE_FILL_AREA( #532 );
#406 = ORIENTED_EDGE( '', *, *, #528, .F. );
#407 = ORIENTED_EDGE( '', *, *, #515, .F. );
#408 = CARTESIAN_POINT( '', ( 0.000000000000000, 0.000000000000000, 0.000000000000000 ) );
#409 = DIRECTION( '', ( 0.000000000000000, -0.000000000000000, -1.00000000000000 ) );
#410 = DIRECTION( '', ( 1.00000000000000, 0.000000000000000, 0.000000000000000 ) );
#411 = SURFACE_STYLE_FILL_AREA( #533 );
#412 = ORIENTED_EDGE( '', *, *, #498, .F. );
#413 = ORIENTED_EDGE( '', *, *, #502, .F. );
#414 = CARTESIAN_POINT( '', ( 4.01188677068657E-014, 0.000000000000000, 34.7000000000000 ) );
#415 = DIRECTION( '', ( -1.68665076409870E-015, 0.000000000000000, -1.00000000000000 ) );
#416 = DIRECTION( '', ( -1.00000000000000, 0.000000000000000, 1.68665076409870E-015 ) );
#417 = SURFACE_STYLE_FILL_AREA( #534 );
#418 = ORIENTED_EDGE( '', *, *, #481, .T. );
#419 = ORIENTED_EDGE( '', *, *, #519, .T. );
#420 = ORIENTED_EDGE( '', *, *, #496, .T. );
#421 = CARTESIAN_POINT( '', ( 0.000000000000000, 0.000000000000000, 0.000000000000000 ) );
#422 = DIRECTION( '', ( -0.000000000000000, -0.000000000000000, 1.00000000000000 ) );
#423 = DIRECTION( '', ( 1.00000000000000, 0.000000000000000, 0.000000000000000 ) );
#424 = SURFACE_STYLE_FILL_AREA( #535 );
#425 = ORIENTED_EDGE( '', *, *, #493, .T. );
#426 = ORIENTED_EDGE( '', *, *, #518, .T. );
#427 = ORIENTED_EDGE( '', *, *, #531, .T. );
#428 = CARTESIAN_POINT( '', ( 0.000000000000000, 0.000000000000000, 0.000000000000000 ) );
#429 = DIRECTION( '', ( -0.000000000000000, -0.000000000000000, 1.00000000000000 ) );
#430 = DIRECTION( '', ( 1.00000000000000, 0.000000000000000, 0.000000000000000 ) );
#431 = SURFACE_STYLE_FILL_AREA( #536 );
#432 = ORIENTED_EDGE( '', *, *, #537, .T. );
#433 = ORIENTED_EDGE( '', *, *, #523, .T. );
#434 = ORIENTED_EDGE( '', *, *, #521, .T. );
#435 = CARTESIAN_POINT( '', ( 0.000000000000000, 0.000000000000000, 0.000000000000000 ) );
#436 = DIRECTION( '', ( -0.000000000000000, -0.000000000000000, 1.00000000000000 ) );
#437 = DIRECTION( '', ( 1.00000000000000, 0.000000000000000, 0.000000000000000 ) );
#438 = SURFACE_STYLE_FILL_AREA( #538 );
#439 = ORIENTED_EDGE( '', *, *, #525, .T. );
#440 = ORIENTED_EDGE( '', *, *, #504, .T. );
#441 = ORIENTED_EDGE( '', *, *, #516, .T. );
#442 = CARTESIAN_POINT( '', ( 0.000000000000000, 0.000000000000000, 0.000000000000000 ) );
#443 = DIRECTION( '', ( -0.000000000000000, -0.000000000000000, 1.00000000000000 ) );
#444 = DIRECTION( '', ( 1.00000000000000, 0.000000000000000, 0.000000000000000 ) );
#445 = SURFACE_STYLE_FILL_AREA( #539 );
#446 = ORIENTED_EDGE( '', *, *, #508, .T. );
#447 = ORIENTED_EDGE( '', *, *, #530, .T. );
#448 = ORIENTED_EDGE( '', *, *, #517, .T. );
#449 = CARTESIAN_POINT( '', ( 0.000000000000000, 0.000000000000000, 0.000000000000000 ) );
#450 = DIRECTION( '', ( -0.000000000000000, -0.000000000000000, 1.00000000000000 ) );
#451 = DIRECTION( '', ( 1.00000000000000, 0.000000000000000, 0.000000000000000 ) );
#452 = SURFACE_STYLE_FILL_AREA( #540 );
#453 = ORIENTED_EDGE( '', *, *, #541, .T. );
#454 = ORIENTED_EDGE( '', *, *, #527, .T. );
#455 = CARTESIAN_POINT( '', ( 0.000000000000000, 0.000000000000000, 0.000000000000000 ) );
#456 = DIRECTION( '', ( -0.000000000000000, 0.000000000000000, -1.00000000000000 ) );
#457 = DIRECTION( '', ( 0.000000000000000, 1.00000000000000, 0.000000000000000 ) );
#458 = SURFACE_STYLE_FILL_AREA( #542 );
#459 = ORIENTED_EDGE( '', *, *, #543, .F. );
#460 = ORIENTED_EDGE( '', *, *, #484, .F. );
#461 = ORIENTED_EDGE( '', *, *, #511, .F. );
#462 = ORIENTED_EDGE( '', *, *, #524, .T. );
#463 = ORIENTED_EDGE( '', *, *, #537, .F. );
#464 = CARTESIAN_POINT( '', ( -4.61880215351702, -4.33680868994202E-016, 25.0000000000000 ) );
#465 = DIRECTION( '', ( 0.866025403784439, 0.500000000000000, 0.000000000000000 ) );
#466 = DIRECTION( '', ( -0.500000000000000, 0.866025403784439, 0.000000000000000 ) );
#467 = SURFACE_STYLE_FILL_AREA( #544 );
#468 = ORIENTED_EDGE( '', *, *, #541, .F. );
#469 = VERTEX_POINT( '', #545 );
#470 = CARTESIAN_POINT( '', ( 0.000000000000000, 0.000000000000000, 10.6250000000000 ) );
#471 = DIRECTION( '', ( 0.000000000000000, -0.000000000000000, -1.00000000000000 ) );
#472 = DIRECTION( '', ( 0.000000000000000, -1.00000000000000, 0.000000000000000 ) );
#473 = SURFACE_STYLE_FILL_AREA( #546 );
#474 = ORIENTED_EDGE( '', *, *, #543, .T. );
#475 = ORIENTED_EDGE( '', *, *, #520, .T. );
#476 = ORIENTED_EDGE( '', *, *, #485, .T. );
#477 = CARTESIAN_POINT( '', ( 0.000000000000000, 0.000000000000000, 0.000000000000000 ) );
#478 = DIRECTION( '', ( -0.000000000000000, -0.000000000000000, 1.00000000000000 ) );
#479 = DIRECTION( '', ( 1.00000000000000, 0.000000000000000, 0.000000000000000 ) );
#480 = FILL_AREA_STYLE( '', ( #547 ) );
#481 = EDGE_CURVE( '', #548, #549, #550, .F. );
#482 = EDGE_CURVE( '', #551, #548, #552, .T. );
#483 = EDGE_CURVE( '', #553, #551, #554, .T. );
#484 = EDGE_CURVE( '', #553, #555, #556, .T. );
#485 = EDGE_CURVE( '', #549, #555, #557, .F. );
#486 = FILL_AREA_STYLE( '', ( #558 ) );
#487 = EDGE_CURVE( '', #559, #559, #560, .F. );
#488 = EDGE_CURVE( '', #561, #561, #562, .T. );
#489 = FILL_AREA_STYLE( '', ( #563 ) );
#490 = EDGE_CURVE( '', #564, #564, #565, .T. );
#491 = EDGE_CURVE( '', #566, #566, #567, .T. );
#492 = FILL_AREA_STYLE( '', ( #568 ) );
#493 = EDGE_CURVE( '', #569, #570, #571, .T. );
#494 = EDGE_CURVE( '', #572, #569, #573, .T. );
#495 = EDGE_CURVE( '', #551, #572, #574, .T. );
#496 = EDGE_CURVE( '', #570, #548, #575, .T. );
#497 = FILL_AREA_STYLE( '', ( #576 ) );
#498 = EDGE_CURVE( '', #577, #577, #578, .T. );
#499 = FILL_AREA_STYLE( '', ( #579 ) );
#500 = EDGE_CURVE( '', #580, #580, #581, .T. );
#501 = FILL_AREA_STYLE( '', ( #582 ) );
#502 = EDGE_CURVE( '', #583, #583, #584, .F. );
#503 = FILL_AREA_STYLE( '', ( #585 ) );
#504 = EDGE_CURVE( '', #586, #587, #588, .T. );
#505 = EDGE_CURVE( '', #589, #586, #590, .T. );
#506 = EDGE_CURVE( '', #591, #589, #592, .T. );
#507 = EDGE_CURVE( '', #591, #593, #594, .T. );
#508 = EDGE_CURVE( '', #587, #593, #595, .T. );
#509 = FILL_AREA_STYLE( '', ( #596 ) );
#510 = EDGE_CURVE( '', #589, #597, #598, .T. );
#511 = EDGE_CURVE( '', #597, #553, #599, .T. );
#512 = EDGE_CURVE( '', #572, #591, #600, .T. );
#513 = FILL_AREA_STYLE( '', ( #601 ) );
#514 = FILL_AREA_STYLE( '', ( #602 ) );
#515 = EDGE_CURVE( '', #603, #603, #604, .T. );
#516 = EDGE_CURVE( '', #587, #605, #606, .T. );
#517 = EDGE_CURVE( '', #607, #587, #608, .T. );
#518 = EDGE_CURVE( '', #570, #607, #609, .T. );
#519 = EDGE_CURVE( '', #549, #570, #610, .T. );
#520 = EDGE_CURVE( '', #611, #549, #612, .T. );
#521 = EDGE_CURVE( '', #605, #611, #613, .T. );
#522 = FILL_AREA_STYLE( '', ( #614 ) );
#523 = EDGE_CURVE( '', #615, #605, #616, .T. );
#524 = EDGE_CURVE( '', #597, #615, #617, .T. );
#525 = EDGE_CURVE( '', #605, #586, #618, .T. );
#526 = FILL_AREA_STYLE( '', ( #619 ) );
#527 = EDGE_CURVE( '', #620, #620, #621, .T. );
#528 = EDGE_CURVE( '', #622, #622, #623, .T. );
#529 = FILL_AREA_STYLE( '', ( #624 ) );
#530 = EDGE_CURVE( '', #593, #607, #625, .T. );
#531 = EDGE_CURVE( '', #607, #569, #626, .T. );
#532 = FILL_AREA_STYLE( '', ( #627 ) );
#533 = FILL_AREA_STYLE( '', ( #628 ) );
#534 = FILL_AREA_STYLE( '', ( #629 ) );
#535 = FILL_AREA_STYLE( '', ( #630 ) );
#536 = FILL_AREA_STYLE( '', ( #631 ) );
#537 = EDGE_CURVE( '', #611, #615, #632, .T. );
#538 = FILL_AREA_STYLE( '', ( #633 ) );
#539 = FILL_AREA_STYLE( '', ( #634 ) );
#540 = FILL_AREA_STYLE( '', ( #635 ) );
#541 = EDGE_CURVE( '', #636, #636, #637, .T. );
#542 = FILL_AREA_STYLE( '', ( #638 ) );
#543 = EDGE_CURVE( '', #555, #611, #639, .T. );
#544 = FILL_AREA_STYLE( '', ( #640 ) );
#545 = CARTESIAN_POINT( '', ( 0.000000000000000, 0.000000000000000, 11.8669788995300 ) );
#546 = FILL_AREA_STYLE( '', ( #641 ) );
#547 = FILL_AREA_STYLE_COLOUR( '', #642 );
#548 = VERTEX_POINT( '', #643 );
#549 = VERTEX_POINT( '', #644 );
#550 = B_SPLINE_CURVE_WITH_KNOTS( '', 3, ( #645, #646, #647, #648, #649, #650, #651, #652 ), .UNSPECIFIED., .F., .F., ( 4, 2, 2, 4 ), ( 0.00641259406043891, 0.00760631882325471, 0.00820318120466261, 0.00880004358607051 ), .UNSPECIFIED. );
#551 = VERTEX_POINT( '', #653 );
#552 = LINE( '', #654, #655 );
#553 = VERTEX_POINT( '', #656 );
#554 = LINE( '', #657, #658 );
#555 = VERTEX_POINT( '', #659 );
#556 = LINE( '', #660, #661 );
#557 = B_SPLINE_CURVE_WITH_KNOTS( '', 3, ( #662, #663, #664, #665, #666, #667, #668, #669 ), .UNSPECIFIED., .F., .F., ( 4, 2, 2, 4 ), ( 0.00402790283753712, 0.00522024844898801, 0.00581642125471346, 0.00641259406043891 ), .UNSPECIFIED. );
#558 = FILL_AREA_STYLE_COLOUR( '', #670 );
#559 = VERTEX_POINT( '', #671 );
#560 = CIRCLE( '', #672, 2.26491470390000 );
#561 = VERTEX_POINT( '', #673 );
#562 = CIRCLE( '', #674, 1.86491470390000 );
#563 = FILL_AREA_STYLE_COLOUR( '', #675 );
#564 = VERTEX_POINT( '', #676 );
#565 = CIRCLE( '', #677, 1.91850454240000 );
#566 = VERTEX_POINT( '', #678 );
#567 = CIRCLE( '', #679, 2.50000000000000 );
#568 = FILL_AREA_STYLE_COLOUR( '', #680 );
#569 = VERTEX_POINT( '', #681 );
#570 = VERTEX_POINT( '', #682 );
#571 = B_SPLINE_CURVE_WITH_KNOTS( '', 3, ( #683, #684, #685, #686, #687, #688, #689, #690 ), .UNSPECIFIED., .F., .F., ( 4, 2, 2, 4 ), ( 0.000000000000000, 0.00119720599835777, 0.00179568178122138, 0.00239415756408499 ), .UNSPECIFIED. );
#572 = VERTEX_POINT( '', #691 );
#573 = LINE( '', #692, #693 );
#574 = LINE( '', #694, #695 );
#575 = B_SPLINE_CURVE_WITH_KNOTS( '', 3, ( #696, #697, #698, #699, #700, #701 ), .UNSPECIFIED., .F., .F., ( 4, 2, 4 ), ( 0.00239415756408499, 0.00358272368253846, 0.00477128980099194 ), .UNSPECIFIED. );
#576 = FILL_AREA_STYLE_COLOUR( '', #702 );
#577 = VERTEX_POINT( '', #703 );
#578 = CIRCLE( '', #704, 2.20000000000000 );
#579 = FILL_AREA_STYLE_COLOUR( '', #705 );
#580 = VERTEX_POINT( '', #706 );
#581 = CIRCLE( '', #707, 1.86491470390000 );
#582 = FILL_AREA_STYLE_COLOUR( '', #708 );
#583 = VERTEX_POINT( '', #709 );
#584 = CIRCLE( '', #710, 2.50000000000000 );
#585 = FILL_AREA_STYLE_COLOUR( '', #711 );
#586 = VERTEX_POINT( '', #712 );
#587 = VERTEX_POINT( '', #713 );
#588 = B_SPLINE_CURVE_WITH_KNOTS( '', 3, ( #714, #715, #716, #717, #718, #719, #720, #721 ), .UNSPECIFIED., .F., .F., ( 4, 2, 2, 4 ), ( 0.00402790283760511, 0.00522024844905563, 0.00581642125478088, 0.00641259406050614 ), .UNSPECIFIED. );
#589 = VERTEX_POINT( '', #722 );
#590 = LINE( '', #723, #724 );
#591 = VERTEX_POINT( '', #725 );
#592 = LINE( '', #726, #727 );
#593 = VERTEX_POINT( '', #728 );
#594 = LINE( '', #729, #730 );
#595 = B_SPLINE_CURVE_WITH_KNOTS( '', 3, ( #731, #732, #733, #734, #735, #736, #737, #738 ), .UNSPECIFIED., .F., .F., ( 4, 2, 2, 4 ), ( 0.00641259406050614, 0.00760631882332193, 0.00820318120472982, 0.00880004358613772 ), .UNSPECIFIED. );
#596 = FILL_AREA_STYLE_COLOUR( '', #739 );
#597 = VERTEX_POINT( '', #740 );
#598 = LINE( '', #741, #742 );
#599 = LINE( '', #743, #744 );
#600 = LINE( '', #745, #746 );
#601 = FILL_AREA_STYLE_COLOUR( '', #747 );
#602 = FILL_AREA_STYLE_COLOUR( '', #748 );
#603 = VERTEX_POINT( '', #749 );
#604 = CIRCLE( '', #750, 2.26700000000000 );
#605 = VERTEX_POINT( '', #751 );
#606 = CIRCLE( '', #752, 4.00000000000000 );
#607 = VERTEX_POINT( '', #753 );
#608 = CIRCLE( '', #754, 4.00000000000000 );
#609 = CIRCLE( '', #755, 4.00000000000000 );
#610 = CIRCLE( '', #756, 4.00000000000000 );
#611 = VERTEX_POINT( '', #757 );
#612 = CIRCLE( '', #758, 4.00000000000000 );
#613 = CIRCLE( '', #759, 4.00000000000000 );
#614 = FILL_AREA_STYLE_COLOUR( '', #760 );
#615 = VERTEX_POINT( '', #761 );
#616 = B_SPLINE_CURVE_WITH_KNOTS( '', 3, ( #762, #763, #764, #765, #766, #767, #768, #769 ), .UNSPECIFIED., .F., .F., ( 4, 2, 2, 4 ), ( 0.000000000000000, 0.00119720599835777, 0.00179568178122138, 0.00239415756408499 ), .UNSPECIFIED. );
#617 = LINE( '', #770, #771 );
#618 = B_SPLINE_CURVE_WITH_KNOTS( '', 3, ( #772, #773, #774, #775, #776, #777 ), .UNSPECIFIED., .F., .F., ( 4, 2, 4 ), ( 0.00239415756408499, 0.00358272368253846, 0.00477128980099194 ), .UNSPECIFIED. );
#619 = FILL_AREA_STYLE_COLOUR( '', #778 );
#620 = VERTEX_POINT( '', #779 );
#621 = CIRCLE( '', #780, 2.06700000000000 );
#622 = VERTEX_POINT( '', #781 );
#623 = CIRCLE( '', #782, 2.06700000000000 );
#624 = FILL_AREA_STYLE_COLOUR( '', #783 );
#625 = B_SPLINE_CURVE_WITH_KNOTS( '', 3, ( #784, #785, #786, #787, #788, #789, #790, #791 ), .UNSPECIFIED., .F., .F., ( 4, 2, 2, 4 ), ( 0.000000000000000, 0.00119720599835777, 0.00179568178122138, 0.00239415756408498 ), .UNSPECIFIED. );
#626 = B_SPLINE_CURVE_WITH_KNOTS( '', 3, ( #792, #793, #794, #795, #796, #797 ), .UNSPECIFIED., .F., .F., ( 4, 2, 4 ), ( 0.00239415756408498, 0.00358272368253846, 0.00477128980099193 ), .UNSPECIFIED. );
#627 = FILL_AREA_STYLE_COLOUR( '', #798 );
#628 = FILL_AREA_STYLE_COLOUR( '', #799 );
#629 = FILL_AREA_STYLE_COLOUR( '', #800 );
#630 = FILL_AREA_STYLE_COLOUR( '', #801 );
#631 = FILL_AREA_STYLE_COLOUR( '', #802 );
#632 = B_SPLINE_CURVE_WITH_KNOTS( '', 3, ( #803, #804, #805, #806, #807, #808 ), .UNSPECIFIED., .F., .F., ( 4, 2, 4 ), ( 0.00239415756408498, 0.00358272368253846, 0.00477128980099194 ), .UNSPECIFIED. );
#633 = FILL_AREA_STYLE_COLOUR( '', #809 );
#634 = FILL_AREA_STYLE_COLOUR( '', #810 );
#635 = FILL_AREA_STYLE_COLOUR( '', #811 );
#636 = VERTEX_POINT( '', #812 );
#637 = CIRCLE( '', #813, 2.06700000000000 );
#638 = FILL_AREA_STYLE_COLOUR( '', #814 );
#639 = B_SPLINE_CURVE_WITH_KNOTS( '', 3, ( #815, #816, #817, #818, #819, #820, #821, #822 ), .UNSPECIFIED., .F., .F., ( 4, 2, 2, 4 ), ( 0.000000000000000, 0.00119720599835777, 0.00179568178122138, 0.00239415756408498 ), .UNSPECIFIED. );
#640 = FILL_AREA_STYLE_COLOUR( '', #823 );
#641 = FILL_AREA_STYLE_COLOUR( '', #824 );
#642 = COLOUR_RGB( '', 0.329411774900000, 0.337254911700000, 0.349019616800000 );
#643 = CARTESIAN_POINT( '', ( 2.30940107675851, -4.00000000000000, 0.618802153517010 ) );
#644 = CARTESIAN_POINT( '', ( 0.000000000000000, -4.00000000000000, 0.000000000000000 ) );
#645 = CARTESIAN_POINT( '', ( 1.74223804995033E-015, -4.00000000000000, -1.23177185550945E-014 ) );
#646 = CARTESIAN_POINT( '', ( 0.405720775638904, -4.00000000000000, -1.21430643318376E-014 ) );
#647 = CARTESIAN_POINT( '', ( 0.801039716834523, -4.00000000000000, 0.0624856325707484 ) );
#648 = CARTESIAN_POINT( '', ( 1.38207445597232, -4.00000000000000, 0.227961804886078 ) );
#649 = CARTESIAN_POINT( '', ( 1.57461626511569, -4.00000000000000, 0.295365512088982 ) );
#650 = CARTESIAN_POINT( '', ( 1.94837674948474, -4.00000000000000, 0.446000501350536 ) );
#651 = CARTESIAN_POINT( '', ( 2.13060966264261, -4.00000000000000, 0.529406446459061 ) );
#652 = CARTESIAN_POINT( '', ( 2.30940107675851, -4.00000000000000, 0.618802153517008 ) );
#653 = CARTESIAN_POINT( '', ( 2.30940107675851, -4.00000000000000, 25.0000000000000 ) );
#654 = CARTESIAN_POINT( '', ( 2.30940107675851, -4.00000000000000, 25.0000000000000 ) );
#655 = VECTOR( '', #825, 1000.00000000000 );
#656 = CARTESIAN_POINT( '', ( -2.30940107675851, -4.00000000000000, 25.0000000000000 ) );
#657 = CARTESIAN_POINT( '', ( -2.30940107675851, -4.00000000000000, 25.0000000000000 ) );
#658 = VECTOR( '', #826, 1000.00000000000 );
#659 = CARTESIAN_POINT( '', ( -2.30940107675851, -4.00000000000000, 0.618802153517010 ) );
#660 = CARTESIAN_POINT( '', ( -2.30940107675851, -4.00000000000000, 25.0000000000000 ) );
#661 = VECTOR( '', #827, 1000.00000000000 );
#662 = CARTESIAN_POINT( '', ( -2.30940107675868, -4.00000000000000, 0.618802153516749 ) );
#663 = CARTESIAN_POINT( '', ( -1.95145109933168, -4.00000000000000, 0.439827164803236 ) );
#664 = CARTESIAN_POINT( '', ( -1.57443330855904, -4.00000000000000, 0.282836910145421 ) );
#665 = CARTESIAN_POINT( '', ( -0.997005934733097, -4.00000000000000, 0.118250086243424 ) );
#666 = CARTESIAN_POINT( '', ( -0.801933240719512, -4.00000000000000, 0.0748857650910016 ) );
#667 = CARTESIAN_POINT( '', ( -0.405560610559006, -4.00000000000000, 0.0157286368487815 ) );
#668 = CARTESIAN_POINT( '', ( -0.202626016221019, -4.00000000000000, -1.24014093807502E-014 ) );
#669 = CARTESIAN_POINT( '', ( 1.74223804995033E-015, -4.00000000000000, -1.23177185550945E-014 ) );
#670 = COLOUR_RGB( '', 0.329411774900000, 0.337254911700000, 0.349019616800000 );
#671 = CARTESIAN_POINT( '', ( 2.26491470389146, 0.000000000000000, 25.0000000000000 ) );
#672 = AXIS2_PLACEMENT_3D( '', #828, #829, #830 );
#673 = CARTESIAN_POINT( '', ( 1.86491470389145, 0.000000000000000, 25.4000000000000 ) );
#674 = AXIS2_PLACEMENT_3D( '', #831, #832, #833 );
#675 = COLOUR_RGB( '', 0.329411774900000, 0.337254911700000, 0.349019616800000 );
#676 = CARTESIAN_POINT( '', ( 1.91850454237768, 0.000000000000000, 25.9928203230275 ) );
#677 = AXIS2_PLACEMENT_3D( '', #834, #835, #836 );
#678 = CARTESIAN_POINT( '', ( -2.49999999999997, 0.000000000000000, 27.0000000000000 ) );
#679 = AXIS2_PLACEMENT_3D( '', #837, #838, #839 );
#680 = COLOUR_RGB( '', 0.329411774900000, 0.337254911700000, 0.349019616800000 );
#681 = CARTESIAN_POINT( '', ( 4.61880215351701, 8.30002137537401E-016, 0.618802153517005 ) );
#682 = CARTESIAN_POINT( '', ( 3.46410161513775, -2.00000000000000, 0.000000000000000 ) );
#683 = CARTESIAN_POINT( '', ( 4.61880215351701, 1.06010380467205E-015, 0.618802153517008 ) );
#684 = CARTESIAN_POINT( '', ( 4.43772902109491, -0.313627865240725, 0.437729021094907 ) );
#685 = CARTESIAN_POINT( '', ( 4.25255762781284, -0.634354126513591, 0.283863697167629 ) );
#686 = CARTESIAN_POINT( '', ( 3.96481582848762, -1.13273754240615, 0.119352868334601 ) );
#687 = CARTESIAN_POINT( '', ( 3.86722011410567, -1.30177827831667, 0.0756810474711408 ) );
#688 = CARTESIAN_POINT( '', ( 3.66788057421967, -1.64704448935662, 0.0158761634956975 ) );
#689 = CARTESIAN_POINT( '', ( 3.56523445809359, -1.82483277768661, 1.91514149374197E-015 ) );
#690 = CARTESIAN_POINT( '', ( 3.46410161513776, -2.00000000000000, 1.95156391047386E-015 ) );
#691 = CARTESIAN_POINT( '', ( 4.61880215351701, 8.67361737988404E-016, 25.0000000000000 ) );
#692 = CARTESIAN_POINT( '', ( 4.61880215351701, 8.67361737988404E-016, 25.0000000000000 ) );
#693 = VECTOR( '', #840, 1000.00000000000 );
#694 = CARTESIAN_POINT( '', ( 2.30940107675851, -4.00000000000000, 25.0000000000000 ) );
#695 = VECTOR( '', #841, 1000.00000000000 );
#696 = CARTESIAN_POINT( '', ( 3.46410161513776, -2.00000000000000, 1.95156391047386E-015 ) );
#697 = CARTESIAN_POINT( '', ( 3.26325293580602, -2.34788011723568, 2.02779687572679E-015 ) );
#698 = CARTESIAN_POINT( '', ( 3.06581928134204, -2.68984523789128, 0.0614213096345791 ) );
#699 = CARTESIAN_POINT( '', ( 2.67643029490660, -3.36428674630521, 0.282794907482446 ) );
#700 = CARTESIAN_POINT( '', ( 2.49026482692313, -3.68673479546742, 0.437938403352159 ) );
#701 = CARTESIAN_POINT( '', ( 2.30940107675847, -4.00000000000006, 0.618802153516829 ) );
#702 = COLOUR_RGB( '', 0.329411774900000, 0.337254911700000, 0.349019616800000 );
#703 = CARTESIAN_POINT( '', ( 2.20000000000008, 0.000000000000000, 35.0000000000000 ) );
#704 = AXIS2_PLACEMENT_3D( '', #842, #843, #844 );
#705 = COLOUR_RGB( '', 0.329411774900000, 0.337254911700000, 0.349019616800000 );
#706 = CARTESIAN_POINT( '', ( -1.86491470389140, 0.000000000000000, 25.7928203230276 ) );
#707 = AXIS2_PLACEMENT_3D( '', #845, #846, #847 );
#708 = COLOUR_RGB( '', 0.184313729400000, 0.749019622800000, 0.580392181900000 );
#709 = CARTESIAN_POINT( '', ( 2.50000000000008, 0.000000000000000, 34.7000000000000 ) );
#710 = AXIS2_PLACEMENT_3D( '', #848, #849, #850 );
#711 = COLOUR_RGB( '', 0.329411774900000, 0.337254911700000, 0.349019616800000 );
#712 = CARTESIAN_POINT( '', ( -2.30940107675851, 4.00000000000000, 0.618802153517016 ) );
#713 = CARTESIAN_POINT( '', ( 9.76504489179152E-015, 4.00000000000000, 0.000000000000000 ) );
#714 = CARTESIAN_POINT( '', ( -2.30940107675868, 4.00000000000001, 0.618802153516758 ) );
#715 = CARTESIAN_POINT( '', ( -1.95145109933171, 4.00000000000001, 0.439827164803263 ) );
#716 = CARTESIAN_POINT( '', ( -1.57443330855915, 4.00000000000001, 0.282836910145476 ) );
#717 = CARTESIAN_POINT( '', ( -0.997005934733254, 4.00000000000001, 0.118250086243471 ) );
#718 = CARTESIAN_POINT( '', ( -0.801933240719652, 4.00000000000001, 0.0748857650910343 ) );
#719 = CARTESIAN_POINT( '', ( -0.405560610559039, 4.00000000000001, 0.0157286368487891 ) );
#720 = CARTESIAN_POINT( '', ( -0.202626016220820, 4.00000000000000, -6.74068819424972E-015 ) );
#721 = CARTESIAN_POINT( '', ( 1.11537163911087E-014, 4.00000000000001, -6.67986808535054E-015 ) );
#722 = CARTESIAN_POINT( '', ( -2.30940107675851, 4.00000000000000, 25.0000000000000 ) );
#723 = CARTESIAN_POINT( '', ( -2.30940107675851, 4.00000000000000, 25.0000000000000 ) );
#724 = VECTOR( '', #851, 1000.00000000000 );
#725 = CARTESIAN_POINT( '', ( 2.30940107675851, 4.00000000000000, 25.0000000000000 ) );
#726 = CARTESIAN_POINT( '', ( 2.30940107675851, 4.00000000000000, 25.0000000000000 ) );
#727 = VECTOR( '', #852, 1000.00000000000 );
#728 = CARTESIAN_POINT( '', ( 2.30940107675851, 4.00000000000000, 0.618802153517005 ) );
#729 = CARTESIAN_POINT( '', ( 2.30940107675851, 4.00000000000000, 25.0000000000000 ) );
#730 = VECTOR( '', #853, 1000.00000000000 );
#731 = CARTESIAN_POINT( '', ( 1.08837643087930E-014, 4.00000000000001, -6.67986808535054E-015 ) );
#732 = CARTESIAN_POINT( '', ( 0.405720775638656, 4.00000000000000, -6.58652819784944E-015 ) );
#733 = CARTESIAN_POINT( '', ( 0.801039716834319, 4.00000000000000, 0.0624856325706910 ) );
#734 = CARTESIAN_POINT( '', ( 1.38207445597249, 4.00000000000000, 0.227961804886129 ) );
#735 = CARTESIAN_POINT( '', ( 1.57461626511589, 4.00000000000000, 0.295365512089063 ) );
#736 = CARTESIAN_POINT( '', ( 1.94837674948479, 4.00000000000000, 0.446000501350562 ) );
#737 = CARTESIAN_POINT( '', ( 2.13060966264263, 4.00000000000000, 0.529406446459067 ) );
#738 = CARTESIAN_POINT( '', ( 2.30940107675851, 4.00000000000000, 0.618802153517006 ) );
#739 = COLOUR_RGB( '', 0.329411774900000, 0.337254911700000, 0.349019616800000 );
#740 = CARTESIAN_POINT( '', ( -4.61880215351702, 0.000000000000000, 25.0000000000000 ) );
#741 = CARTESIAN_POINT( '', ( -2.30940107675851, 4.00000000000000, 25.0000000000000 ) );
#742 = VECTOR( '', #854, 1000.00000000000 );
#743 = CARTESIAN_POINT( '', ( -4.61880215351702, -4.33680868994202E-016, 25.0000000000000 ) );
#744 = VECTOR( '', #855, 1000.00000000000 );
#745 = CARTESIAN_POINT( '', ( 4.61880215351701, -4.33680868994202E-016, 25.0000000000000 ) );
#746 = VECTOR( '', #856, 1000.00000000000 );
#747 = COLOUR_RGB( '', 0.329411774900000, 0.337254911700000, 0.349019616800000 );
#748 = COLOUR_RGB( '', 0.329411774900000, 0.337254911700000, 0.349019616800000 );
#749 = CARTESIAN_POINT( '', ( 2.26700000000000, 0.000000000000000, 0.000000000000000 ) );
#750 = AXIS2_PLACEMENT_3D( '', #857, #858, #859 );
#751 = CARTESIAN_POINT( '', ( -3.46410161513775, 2.00000000000000, 0.000000000000000 ) );
#752 = AXIS2_PLACEMENT_3D( '', #860, #861, #862 );
#753 = CARTESIAN_POINT( '', ( 3.46410161513775, 2.00000000000000, 0.000000000000000 ) );
#754 = AXIS2_PLACEMENT_3D( '', #863, #864, #865 );
#755 = AXIS2_PLACEMENT_3D( '', #866, #867, #868 );
#756 = AXIS2_PLACEMENT_3D( '', #869, #870, #871 );
#757 = CARTESIAN_POINT( '', ( -3.46410161513775, -2.00000000000000, 0.000000000000000 ) );
#758 = AXIS2_PLACEMENT_3D( '', #872, #873, #874 );
#759 = AXIS2_PLACEMENT_3D( '', #875, #876, #877 );
#760 = COLOUR_RGB( '', 0.329411774900000, 0.337254911700000, 0.349019616800000 );
#761 = CARTESIAN_POINT( '', ( -4.61880215351702, 0.000000000000000, 0.618802153517015 ) );
#762 = CARTESIAN_POINT( '', ( -4.61880215351701, -3.77733690354406E-015, 0.618802153517014 ) );
#763 = CARTESIAN_POINT( '', ( -4.43772902109491, 0.313627865240723, 0.437729021094913 ) );
#764 = CARTESIAN_POINT( '', ( -4.25255762781284, 0.634354126513589, 0.283863697167634 ) );
#765 = CARTESIAN_POINT( '', ( -3.96481582848763, 1.13273754240615, 0.119352868334605 ) );
#766 = CARTESIAN_POINT( '', ( -3.86722011410567, 1.30177827831667, 0.0756810474711461 ) );
#767 = CARTESIAN_POINT( '', ( -3.66788057421968, 1.64704448935662, 0.0158761634957025 ) );
#768 = CARTESIAN_POINT( '', ( -3.56523445809360, 1.82483277768661, 6.28540798510053E-015 ) );
#769 = CARTESIAN_POINT( '', ( -3.46410161513776, 2.00000000000000, 6.28837260041585E-015 ) );
#770 = CARTESIAN_POINT( '', ( -4.61880215351702, 0.000000000000000, 25.0000000000000 ) );
#771 = VECTOR( '', #878, 1000.00000000000 );
#772 = CARTESIAN_POINT( '', ( -3.46410161513776, 2.00000000000000, 6.28837260041585E-015 ) );
#773 = CARTESIAN_POINT( '', ( -3.26325293580602, 2.34788011723568, 6.30446622641376E-015 ) );
#774 = CARTESIAN_POINT( '', ( -3.06581928134205, 2.68984523789129, 0.0614213096345837 ) );
#775 = CARTESIAN_POINT( '', ( -2.67643029490661, 3.36428674630522, 0.282794907482450 ) );
#776 = CARTESIAN_POINT( '', ( -2.49026482692314, 3.68673479546742, 0.437938403352162 ) );
#777 = CARTESIAN_POINT( '', ( -2.30940107675847, 4.00000000000006, 0.618802153516832 ) );
#778 = COLOUR_RGB( '', 0.184313729400000, 0.749019622800000, 0.580392181900000 );
#779 = CARTESIAN_POINT( '', ( 0.000000000000000, 2.06700000000000, 8.00000000000000 ) );
#780 = AXIS2_PLACEMENT_3D( '', #879, #880, #881 );
#781 = CARTESIAN_POINT( '', ( -2.06700000000000, 0.000000000000000, 0.200000000000000 ) );
#782 = AXIS2_PLACEMENT_3D( '', #882, #883, #884 );
#783 = COLOUR_RGB( '', 0.329411774900000, 0.337254911700000, 0.349019616800000 );
#784 = CARTESIAN_POINT( '', ( 2.30940107675851, 4.00000000000000, 0.618802153517008 ) );
#785 = CARTESIAN_POINT( '', ( 2.49047420918061, 3.68637213475927, 0.437729021094908 ) );
#786 = CARTESIAN_POINT( '', ( 2.67564560246268, 3.36564587348641, 0.283863697167630 ) );
#787 = CARTESIAN_POINT( '', ( 2.96338740178789, 2.86726245759385, 0.119352868334602 ) );
#788 = CARTESIAN_POINT( '', ( 3.06098311616984, 2.69822172168333, 0.0756810474711427 ) );
#789 = CARTESIAN_POINT( '', ( 3.26032265605584, 2.35295551064339, 0.0158761634956994 ) );
#790 = CARTESIAN_POINT( '', ( 3.36296877218192, 2.17516722231339, 3.28921716373228E-015 ) );
#791 = CARTESIAN_POINT( '', ( 3.46410161513776, 2.00000000000000, 3.25260651745649E-015 ) );
#792 = CARTESIAN_POINT( '', ( 3.46410161513776, 2.00000000000000, 3.25260651745649E-015 ) );
#793 = CARTESIAN_POINT( '', ( 3.66495029446949, 1.65211988276433, 3.19839640883224E-015 ) );
#794 = CARTESIAN_POINT( '', ( 3.86238394893347, 1.31015476210872, 0.0614213096345810 ) );
#795 = CARTESIAN_POINT( '', ( 4.25177293536891, 0.635713253694788, 0.282794907482448 ) );
#796 = CARTESIAN_POINT( '', ( 4.43793840335238, 0.313265204532586, 0.437938403352160 ) );
#797 = CARTESIAN_POINT( '', ( 4.61880215351704, -5.94820112890985E-014, 0.618802153516830 ) );
#798 = COLOUR_RGB( '', 0.329411774900000, 0.337254911700000, 0.349019616800000 );
#799 = COLOUR_RGB( '', 0.329411774900000, 0.337254911700000, 0.349019616800000 );
#800 = COLOUR_RGB( '', 0.329411774900000, 0.337254911700000, 0.349019616800000 );
#801 = COLOUR_RGB( '', 0.329411774900000, 0.337254911700000, 0.349019616800000 );
#802 = COLOUR_RGB( '', 0.329411774900000, 0.337254911700000, 0.349019616800000 );
#803 = CARTESIAN_POINT( '', ( -3.46410161513777, -2.00000000000001, 1.27935856353289E-014 ) );
#804 = CARTESIAN_POINT( '', ( -3.66495029446950, -1.65211988276433, 1.26165557493528E-014 ) );
#805 = CARTESIAN_POINT( '', ( -3.86238394893348, -1.31015476210872, 0.0614213096345902 ) );
#806 = CARTESIAN_POINT( '', ( -4.25177293536892, -0.635713253694789, 0.282794907482458 ) );
#807 = CARTESIAN_POINT( '', ( -4.43793840335239, -0.313265204532586, 0.437938403352170 ) );
#808 = CARTESIAN_POINT( '', ( -4.61880215351705, 5.98058861768131E-014, 0.618802153516840 ) );
#809 = COLOUR_RGB( '', 0.329411774900000, 0.337254911700000, 0.349019616800000 );
#810 = COLOUR_RGB( '', 0.329411774900000, 0.337254911700000, 0.349019616800000 );
#811 = COLOUR_RGB( '', 0.329411774900000, 0.337254911700000, 0.349019616800000 );
#812 = CARTESIAN_POINT( '', ( 0.000000000000000, -2.06700000000000, 10.6250000000000 ) );
#813 = AXIS2_PLACEMENT_3D( '', #885, #886, #887 );
#814 = COLOUR_RGB( '', 0.329411774900000, 0.337254911700000, 0.349019616800000 );
#815 = CARTESIAN_POINT( '', ( -2.30940107675852, -4.00000000000000, 0.618802153517015 ) );
#816 = CARTESIAN_POINT( '', ( -2.49047420918062, -3.68637213475928, 0.437729021094915 ) );
#817 = CARTESIAN_POINT( '', ( -2.67564560246269, -3.36564587348641, 0.283863697167638 ) );
#818 = CARTESIAN_POINT( '', ( -2.96338740178790, -2.86726245759385, 0.119352868334611 ) );
#819 = CARTESIAN_POINT( '', ( -3.06098311616985, -2.69822172168333, 0.0756810474711519 ) );
#820 = CARTESIAN_POINT( '', ( -3.26032265605585, -2.35295551064339, 0.0158761634957090 ) );
#821 = CARTESIAN_POINT( '', ( -3.36296877218193, -2.17516722231340, 1.28842181606852E-014 ) );
#822 = CARTESIAN_POINT( '', ( -3.46410161513777, -2.00000000000001, 1.27935856353289E-014 ) );
#823 = COLOUR_RGB( '', 0.329411774900000, 0.337254911700000, 0.349019616800000 );
#824 = COLOUR_RGB( '', 0.329411774900000, 0.337254911700000, 0.349019616800000 );
#825 = DIRECTION( '', ( 0.000000000000000, 0.000000000000000, -1.00000000000000 ) );
#826 = DIRECTION( '', ( 1.00000000000000, 0.000000000000000, 0.000000000000000 ) );
#827 = DIRECTION( '', ( 0.000000000000000, 0.000000000000000, -1.00000000000000 ) );
#828 = CARTESIAN_POINT( '', ( 2.44330156007475E-014, 0.000000000000000, 25.0000000000000 ) );
#829 = DIRECTION( '', ( 0.000000000000000, 0.000000000000000, 1.00000000000000 ) );
#830 = DIRECTION( '', ( 1.00000000000000, 0.000000000000000, 0.000000000000000 ) );
#831 = CARTESIAN_POINT( '', ( 2.44330156007475E-014, 0.000000000000000, 25.4000000000000 ) );
#832 = DIRECTION( '', ( 0.000000000000000, 0.000000000000000, 1.00000000000000 ) );
#833 = DIRECTION( '', ( 1.00000000000000, 0.000000000000000, 0.000000000000000 ) );
#834 = CARTESIAN_POINT( '', ( 2.54328964515552E-014, 0.000000000000000, 25.9928203230275 ) );
#835 = DIRECTION( '', ( 1.68665076409874E-015, 0.000000000000000, 1.00000000000000 ) );
#836 = DIRECTION( '', ( 1.00000000000000, 0.000000000000000, -1.68665076409874E-015 ) );
#837 = CARTESIAN_POINT( '', ( 2.71316568233055E-014, 0.000000000000000, 27.0000000000000 ) );
#838 = DIRECTION( '', ( -1.68665076409874E-015, 0.000000000000000, -1.00000000000000 ) );
#839 = DIRECTION( '', ( -1.00000000000000, 0.000000000000000, 1.68665076409874E-015 ) );
#840 = DIRECTION( '', ( 0.000000000000000, 0.000000000000000, -1.00000000000000 ) );
#841 = DIRECTION( '', ( 0.500000000000000, 0.866025403784439, 0.000000000000000 ) );
#842 = CARTESIAN_POINT( '', ( 4.06248629360953E-014, 0.000000000000000, 35.0000000000000 ) );
#843 = DIRECTION( '', ( 1.68665076409874E-015, 0.000000000000000, 1.00000000000000 ) );
#844 = DIRECTION( '', ( 1.00000000000000, 0.000000000000000, -1.68665076409874E-015 ) );
#845 = CARTESIAN_POINT( '', ( 2.50955662987354E-014, 0.000000000000000, 25.7928203230275 ) );
#846 = DIRECTION( '', ( -1.68665076409874E-015, 0.000000000000000, -1.00000000000000 ) );
#847 = DIRECTION( '', ( -1.00000000000000, 0.000000000000000, 1.68665076409874E-015 ) );
#848 = CARTESIAN_POINT( '', ( 4.01188677068657E-014, 0.000000000000000, 34.7000000000000 ) );
#849 = DIRECTION( '', ( 1.68665076409870E-015, 0.000000000000000, 1.00000000000000 ) );
#850 = DIRECTION( '', ( 1.00000000000000, 0.000000000000000, -1.68665076409870E-015 ) );
#851 = DIRECTION( '', ( 0.000000000000000, 0.000000000000000, -1.00000000000000 ) );
#852 = DIRECTION( '', ( -1.00000000000000, 2.44126122294788E-015, 0.000000000000000 ) );
#853 = DIRECTION( '', ( 0.000000000000000, 0.000000000000000, -1.00000000000000 ) );
#854 = DIRECTION( '', ( -0.500000000000000, -0.866025403784439, 0.000000000000000 ) );
#855 = DIRECTION( '', ( 0.500000000000000, -0.866025403784439, 0.000000000000000 ) );
#856 = DIRECTION( '', ( -0.500000000000000, 0.866025403784439, 0.000000000000000 ) );
#857 = CARTESIAN_POINT( '', ( 0.000000000000000, 0.000000000000000, 0.000000000000000 ) );
#858 = DIRECTION( '', ( 0.000000000000000, 0.000000000000000, 1.00000000000000 ) );
#859 = DIRECTION( '', ( 1.00000000000000, 0.000000000000000, 0.000000000000000 ) );
#860 = CARTESIAN_POINT( '', ( 0.000000000000000, 0.000000000000000, 0.000000000000000 ) );
#861 = DIRECTION( '', ( 0.000000000000000, 0.000000000000000, 1.00000000000000 ) );
#862 = DIRECTION( '', ( 1.00000000000000, 0.000000000000000, 0.000000000000000 ) );
#863 = CARTESIAN_POINT( '', ( 0.000000000000000, 0.000000000000000, 0.000000000000000 ) );
#864 = DIRECTION( '', ( 0.000000000000000, 0.000000000000000, 1.00000000000000 ) );
#865 = DIRECTION( '', ( 1.00000000000000, 0.000000000000000, 0.000000000000000 ) );
#866 = CARTESIAN_POINT( '', ( 0.000000000000000, 0.000000000000000, 0.000000000000000 ) );
#867 = DIRECTION( '', ( 0.000000000000000, 0.000000000000000, 1.00000000000000 ) );
#868 = DIRECTION( '', ( 1.00000000000000, 0.000000000000000, 0.000000000000000 ) );
#869 = CARTESIAN_POINT( '', ( 0.000000000000000, 0.000000000000000, 0.000000000000000 ) );
#870 = DIRECTION( '', ( 0.000000000000000, 0.000000000000000, 1.00000000000000 ) );
#871 = DIRECTION( '', ( 1.00000000000000, 0.000000000000000, 0.000000000000000 ) );
#872 = CARTESIAN_POINT( '', ( 0.000000000000000, 0.000000000000000, 0.000000000000000 ) );
#873 = DIRECTION( '', ( 0.000000000000000, 0.000000000000000, 1.00000000000000 ) );
#874 = DIRECTION( '', ( 1.00000000000000, 0.000000000000000, 0.000000000000000 ) );
#875 = CARTESIAN_POINT( '', ( 0.000000000000000, 0.000000000000000, 0.000000000000000 ) );
#876 = DIRECTION( '', ( 0.000000000000000, 0.000000000000000, 1.00000000000000 ) );
#877 = DIRECTION( '', ( 1.00000000000000, 0.000000000000000, 0.000000000000000 ) );
#878 = DIRECTION( '', ( 0.000000000000000, 0.000000000000000, -1.00000000000000 ) );
#879 = CARTESIAN_POINT( '', ( 0.000000000000000, 0.000000000000000, 8.00000000000000 ) );
#880 = DIRECTION( '', ( 0.000000000000000, 0.000000000000000, -1.00000000000000 ) );
#881 = DIRECTION( '', ( 0.000000000000000, 1.00000000000000, 0.000000000000000 ) );
#882 = CARTESIAN_POINT( '', ( 0.000000000000000, 0.000000000000000, 0.200000000000000 ) );
#883 = DIRECTION( '', ( 0.000000000000000, 0.000000000000000, -1.00000000000000 ) );
#884 = DIRECTION( '', ( -1.00000000000000, 0.000000000000000, 0.000000000000000 ) );
#885 = CARTESIAN_POINT( '', ( 0.000000000000000, 0.000000000000000, 10.6250000000000 ) );
#886 = DIRECTION( '', ( 0.000000000000000, 0.000000000000000, 1.00000000000000 ) );
#887 = DIRECTION( '', ( 0.000000000000000, -1.00000000000000, 0.000000000000000 ) );
ENDSEC;
END-ISO-10303-21;
