ISO-10303-21;
HEADER;
/* Generated by software containing ST-Developer
 * from STEP Tools, Inc. (www.steptools.com) 
 */
/* OPTION: strings as raw bytes, not using required /X/ escapes */

FILE_DESCRIPTION(
/* description */ ('Unknown'),
/* implementation_level */ '2;1');

FILE_NAME(
/* name */ 'CeraLink_LPJ_6097_Z03_Ind.032',
/* time_stamp */ '2020-08-17T15:47:38+02:00',
/* author */ ('Unknown'),
/* organization */ ('Unknown'),
/* preprocessor_version */ 'ST-DEVELOPER v16.7',
/* originating_system */ 'DEX',
/* authorisation */ $);

FILE_SCHEMA (('AUTOMOTIVE_DESIGN {1 0 10303 214 3 1 1}'));
ENDSEC;

DATA;
#10=PROPERTY_DEFINITION_REPRESENTATION(#14,#12);
#11=PROPERTY_DEFINITION_REPRESENTATION(#15,#13);
#12=REPRESENTATION('',(#16),#1516);
#13=REPRESENTATION('',(#17),#1516);
#14=PROPERTY_DEFINITION('pmi validation property','',#1521);
#15=PROPERTY_DEFINITION('pmi validation property','',#1521);
#16=VALUE_REPRESENTATION_ITEM('number of annotations',COUNT_MEASURE(0.));
#17=VALUE_REPRESENTATION_ITEM('number of views',COUNT_MEASURE(0.));
#18=SHAPE_REPRESENTATION_RELATIONSHIP('','',#1014,#19);
#19=ADVANCED_BREP_SHAPE_REPRESENTATION('',(#1012),#1516);
#20=B_SPLINE_CURVE_WITH_KNOTS('',3,(#1314,#1315,#1316,#1317),
 .UNSPECIFIED.,.F.,.F.,(4,4),(0.,1.),.UNSPECIFIED.);
#21=B_SPLINE_CURVE_WITH_KNOTS('',3,(#1322,#1323,#1324,#1325),
 .UNSPECIFIED.,.F.,.F.,(4,4),(0.,1.),.UNSPECIFIED.);
#22=B_SPLINE_CURVE_WITH_KNOTS('',3,(#1434,#1435,#1436,#1437),
 .UNSPECIFIED.,.F.,.F.,(4,4),(0.,1.),.UNSPECIFIED.);
#23=B_SPLINE_CURVE_WITH_KNOTS('',3,(#1441,#1442,#1443,#1444),
 .UNSPECIFIED.,.F.,.F.,(4,4),(0.,1.),.UNSPECIFIED.);
#24=CYLINDRICAL_SURFACE('',#1019,0.4);
#25=CYLINDRICAL_SURFACE('',#1022,0.15);
#26=CYLINDRICAL_SURFACE('',#1024,0.15);
#27=CYLINDRICAL_SURFACE('',#1026,0.15);
#28=CYLINDRICAL_SURFACE('',#1029,0.15);
#29=CYLINDRICAL_SURFACE('',#1034,0.55);
#30=CYLINDRICAL_SURFACE('',#1040,1.3);
#31=CYLINDRICAL_SURFACE('',#1065,0.4);
#32=CYLINDRICAL_SURFACE('',#1066,0.15);
#33=CYLINDRICAL_SURFACE('',#1068,0.15);
#34=CYLINDRICAL_SURFACE('',#1070,0.15);
#35=CYLINDRICAL_SURFACE('',#1073,0.15);
#36=CYLINDRICAL_SURFACE('',#1078,0.55);
#37=CYLINDRICAL_SURFACE('',#1082,1.3);
#38=LINE('',#1296,#110);
#39=LINE('',#1300,#111);
#40=LINE('',#1302,#112);
#41=LINE('',#1307,#113);
#42=LINE('',#1311,#114);
#43=LINE('',#1318,#115);
#44=LINE('',#1327,#116);
#45=LINE('',#1331,#117);
#46=LINE('',#1336,#118);
#47=LINE('',#1340,#119);
#48=LINE('',#1345,#120);
#49=LINE('',#1349,#121);
#50=LINE('',#1351,#122);
#51=LINE('',#1352,#123);
#52=LINE('',#1353,#124);
#53=LINE('',#1355,#125);
#54=LINE('',#1356,#126);
#55=LINE('',#1358,#127);
#56=LINE('',#1360,#128);
#57=LINE('',#1364,#129);
#58=LINE('',#1368,#130);
#59=LINE('',#1369,#131);
#60=LINE('',#1370,#132);
#61=LINE('',#1378,#133);
#62=LINE('',#1380,#134);
#63=LINE('',#1383,#135);
#64=LINE('',#1385,#136);
#65=LINE('',#1389,#137);
#66=LINE('',#1391,#138);
#67=LINE('',#1393,#139);
#68=LINE('',#1399,#140);
#69=LINE('',#1400,#141);
#70=LINE('',#1402,#142);
#71=LINE('',#1404,#143);
#72=LINE('',#1410,#144);
#73=LINE('',#1412,#145);
#74=LINE('',#1414,#146);
#75=LINE('',#1418,#147);
#76=LINE('',#1420,#148);
#77=LINE('',#1422,#149);
#78=LINE('',#1424,#150);
#79=LINE('',#1426,#151);
#80=LINE('',#1428,#152);
#81=LINE('',#1430,#153);
#82=LINE('',#1432,#154);
#83=LINE('',#1439,#155);
#84=LINE('',#1446,#156);
#85=LINE('',#1448,#157);
#86=LINE('',#1451,#158);
#87=LINE('',#1453,#159);
#88=LINE('',#1455,#160);
#89=LINE('',#1456,#161);
#90=LINE('',#1458,#162);
#91=LINE('',#1461,#163);
#92=LINE('',#1463,#164);
#93=LINE('',#1465,#165);
#94=LINE('',#1467,#166);
#95=LINE('',#1468,#167);
#96=LINE('',#1470,#168);
#97=LINE('',#1472,#169);
#98=LINE('',#1479,#170);
#99=LINE('',#1481,#171);
#100=LINE('',#1482,#172);
#101=LINE('',#1484,#173);
#102=LINE('',#1490,#174);
#103=LINE('',#1494,#175);
#104=LINE('',#1502,#176);
#105=LINE('',#1504,#177);
#106=LINE('',#1506,#178);
#107=LINE('',#1507,#179);
#108=LINE('',#1509,#180);
#109=LINE('',#1511,#181);
#110=VECTOR('',#1089,1000.);
#111=VECTOR('',#1092,1000.);
#112=VECTOR('',#1095,1000.);
#113=VECTOR('',#1098,1000.);
#114=VECTOR('',#1103,1000.);
#115=VECTOR('',#1104,1000.);
#116=VECTOR('',#1109,1000.);
#117=VECTOR('',#1112,1000.);
#118=VECTOR('',#1117,1000.);
#119=VECTOR('',#1120,1000.);
#120=VECTOR('',#1125,1000.);
#121=VECTOR('',#1128,1000.);
#122=VECTOR('',#1131,1000.);
#123=VECTOR('',#1132,1000.);
#124=VECTOR('',#1133,1000.);
#125=VECTOR('',#1136,1000.);
#126=VECTOR('',#1137,1000.);
#127=VECTOR('',#1138,1000.);
#128=VECTOR('',#1139,1000.);
#129=VECTOR('',#1144,1000.);
#130=VECTOR('',#1149,1000.);
#131=VECTOR('',#1150,1000.);
#132=VECTOR('',#1151,1000.);
#133=VECTOR('',#1162,1000.);
#134=VECTOR('',#1165,1000.);
#135=VECTOR('',#1166,1000.);
#136=VECTOR('',#1167,1000.);
#137=VECTOR('',#1170,1000.);
#138=VECTOR('',#1171,1000.);
#139=VECTOR('',#1172,1000.);
#140=VECTOR('',#1177,1000.);
#141=VECTOR('',#1178,1000.);
#142=VECTOR('',#1179,1000.);
#143=VECTOR('',#1182,1000.);
#144=VECTOR('',#1187,1000.);
#145=VECTOR('',#1188,1000.);
#146=VECTOR('',#1189,1000.);
#147=VECTOR('',#1192,1000.);
#148=VECTOR('',#1193,1000.);
#149=VECTOR('',#1194,1000.);
#150=VECTOR('',#1195,1000.);
#151=VECTOR('',#1196,1000.);
#152=VECTOR('',#1199,1000.);
#153=VECTOR('',#1202,1000.);
#154=VECTOR('',#1205,1000.);
#155=VECTOR('',#1208,1000.);
#156=VECTOR('',#1211,1000.);
#157=VECTOR('',#1214,1000.);
#158=VECTOR('',#1215,1000.);
#159=VECTOR('',#1216,1000.);
#160=VECTOR('',#1217,1000.);
#161=VECTOR('',#1218,1000.);
#162=VECTOR('',#1221,1000.);
#163=VECTOR('',#1222,1000.);
#164=VECTOR('',#1223,1000.);
#165=VECTOR('',#1224,1000.);
#166=VECTOR('',#1227,1000.);
#167=VECTOR('',#1228,1000.);
#168=VECTOR('',#1231,1000.);
#169=VECTOR('',#1234,1000.);
#170=VECTOR('',#1243,1000.);
#171=VECTOR('',#1246,1000.);
#172=VECTOR('',#1247,1000.);
#173=VECTOR('',#1250,1000.);
#174=VECTOR('',#1257,1000.);
#175=VECTOR('',#1262,1000.);
#176=VECTOR('',#1271,1000.);
#177=VECTOR('',#1274,1000.);
#178=VECTOR('',#1277,1000.);
#179=VECTOR('',#1278,1000.);
#180=VECTOR('',#1281,1000.);
#181=VECTOR('',#1284,1000.);
#182=ORIENTED_EDGE('',*,*,#390,.F.);
#183=ORIENTED_EDGE('',*,*,#391,.F.);
#184=ORIENTED_EDGE('',*,*,#392,.F.);
#185=ORIENTED_EDGE('',*,*,#393,.F.);
#186=ORIENTED_EDGE('',*,*,#394,.F.);
#187=ORIENTED_EDGE('',*,*,#395,.T.);
#188=ORIENTED_EDGE('',*,*,#396,.F.);
#189=ORIENTED_EDGE('',*,*,#397,.F.);
#190=ORIENTED_EDGE('',*,*,#398,.T.);
#191=ORIENTED_EDGE('',*,*,#399,.T.);
#192=ORIENTED_EDGE('',*,*,#390,.T.);
#193=ORIENTED_EDGE('',*,*,#400,.F.);
#194=ORIENTED_EDGE('',*,*,#401,.F.);
#195=ORIENTED_EDGE('',*,*,#392,.T.);
#196=ORIENTED_EDGE('',*,*,#402,.T.);
#197=ORIENTED_EDGE('',*,*,#403,.F.);
#198=ORIENTED_EDGE('',*,*,#404,.F.);
#199=ORIENTED_EDGE('',*,*,#405,.F.);
#200=ORIENTED_EDGE('',*,*,#406,.T.);
#201=ORIENTED_EDGE('',*,*,#407,.T.);
#202=ORIENTED_EDGE('',*,*,#408,.F.);
#203=ORIENTED_EDGE('',*,*,#409,.F.);
#204=ORIENTED_EDGE('',*,*,#410,.T.);
#205=ORIENTED_EDGE('',*,*,#411,.T.);
#206=ORIENTED_EDGE('',*,*,#412,.F.);
#207=ORIENTED_EDGE('',*,*,#413,.T.);
#208=ORIENTED_EDGE('',*,*,#414,.F.);
#209=ORIENTED_EDGE('',*,*,#410,.F.);
#210=ORIENTED_EDGE('',*,*,#415,.T.);
#211=ORIENTED_EDGE('',*,*,#406,.F.);
#212=ORIENTED_EDGE('',*,*,#416,.T.);
#213=ORIENTED_EDGE('',*,*,#396,.T.);
#214=ORIENTED_EDGE('',*,*,#417,.T.);
#215=ORIENTED_EDGE('',*,*,#412,.T.);
#216=ORIENTED_EDGE('',*,*,#418,.F.);
#217=ORIENTED_EDGE('',*,*,#419,.F.);
#218=ORIENTED_EDGE('',*,*,#420,.T.);
#219=ORIENTED_EDGE('',*,*,#408,.T.);
#220=ORIENTED_EDGE('',*,*,#421,.T.);
#221=ORIENTED_EDGE('',*,*,#422,.F.);
#222=ORIENTED_EDGE('',*,*,#423,.F.);
#223=ORIENTED_EDGE('',*,*,#419,.T.);
#224=ORIENTED_EDGE('',*,*,#424,.F.);
#225=ORIENTED_EDGE('',*,*,#404,.T.);
#226=ORIENTED_EDGE('',*,*,#425,.T.);
#227=ORIENTED_EDGE('',*,*,#422,.T.);
#228=ORIENTED_EDGE('',*,*,#426,.F.);
#229=ORIENTED_EDGE('',*,*,#401,.T.);
#230=ORIENTED_EDGE('',*,*,#393,.T.);
#231=ORIENTED_EDGE('',*,*,#405,.T.);
#232=ORIENTED_EDGE('',*,*,#424,.T.);
#233=ORIENTED_EDGE('',*,*,#400,.T.);
#234=ORIENTED_EDGE('',*,*,#415,.F.);
#235=ORIENTED_EDGE('',*,*,#413,.F.);
#236=ORIENTED_EDGE('',*,*,#417,.F.);
#237=ORIENTED_EDGE('',*,*,#407,.F.);
#238=ORIENTED_EDGE('',*,*,#427,.T.);
#239=ORIENTED_EDGE('',*,*,#394,.T.);
#240=ORIENTED_EDGE('',*,*,#428,.F.);
#241=ORIENTED_EDGE('',*,*,#429,.F.);
#242=ORIENTED_EDGE('',*,*,#430,.T.);
#243=ORIENTED_EDGE('',*,*,#431,.F.);
#244=ORIENTED_EDGE('',*,*,#432,.T.);
#245=ORIENTED_EDGE('',*,*,#433,.F.);
#246=ORIENTED_EDGE('',*,*,#434,.T.);
#247=ORIENTED_EDGE('',*,*,#435,.F.);
#248=ORIENTED_EDGE('',*,*,#436,.T.);
#249=ORIENTED_EDGE('',*,*,#437,.F.);
#250=ORIENTED_EDGE('',*,*,#438,.F.);
#251=ORIENTED_EDGE('',*,*,#439,.F.);
#252=ORIENTED_EDGE('',*,*,#428,.T.);
#253=ORIENTED_EDGE('',*,*,#397,.T.);
#254=ORIENTED_EDGE('',*,*,#416,.F.);
#255=ORIENTED_EDGE('',*,*,#409,.T.);
#256=ORIENTED_EDGE('',*,*,#420,.F.);
#257=ORIENTED_EDGE('',*,*,#423,.T.);
#258=ORIENTED_EDGE('',*,*,#425,.F.);
#259=ORIENTED_EDGE('',*,*,#403,.T.);
#260=ORIENTED_EDGE('',*,*,#440,.F.);
#261=ORIENTED_EDGE('',*,*,#441,.T.);
#262=ORIENTED_EDGE('',*,*,#442,.F.);
#263=ORIENTED_EDGE('',*,*,#443,.T.);
#264=ORIENTED_EDGE('',*,*,#444,.T.);
#265=ORIENTED_EDGE('',*,*,#445,.F.);
#266=ORIENTED_EDGE('',*,*,#446,.T.);
#267=ORIENTED_EDGE('',*,*,#447,.F.);
#268=ORIENTED_EDGE('',*,*,#448,.T.);
#269=ORIENTED_EDGE('',*,*,#449,.F.);
#270=ORIENTED_EDGE('',*,*,#450,.T.);
#271=ORIENTED_EDGE('',*,*,#451,.F.);
#272=ORIENTED_EDGE('',*,*,#452,.T.);
#273=ORIENTED_EDGE('',*,*,#453,.T.);
#274=ORIENTED_EDGE('',*,*,#398,.F.);
#275=ORIENTED_EDGE('',*,*,#426,.T.);
#276=ORIENTED_EDGE('',*,*,#421,.F.);
#277=ORIENTED_EDGE('',*,*,#418,.T.);
#278=ORIENTED_EDGE('',*,*,#411,.F.);
#279=ORIENTED_EDGE('',*,*,#414,.T.);
#280=ORIENTED_EDGE('',*,*,#395,.F.);
#281=ORIENTED_EDGE('',*,*,#427,.F.);
#282=ORIENTED_EDGE('',*,*,#439,.T.);
#283=ORIENTED_EDGE('',*,*,#454,.T.);
#284=ORIENTED_EDGE('',*,*,#442,.T.);
#285=ORIENTED_EDGE('',*,*,#429,.T.);
#286=ORIENTED_EDGE('',*,*,#399,.F.);
#287=ORIENTED_EDGE('',*,*,#453,.F.);
#288=ORIENTED_EDGE('',*,*,#455,.T.);
#289=ORIENTED_EDGE('',*,*,#402,.F.);
#290=ORIENTED_EDGE('',*,*,#456,.T.);
#291=ORIENTED_EDGE('',*,*,#440,.T.);
#292=ORIENTED_EDGE('',*,*,#457,.F.);
#293=ORIENTED_EDGE('',*,*,#458,.T.);
#294=ORIENTED_EDGE('',*,*,#451,.T.);
#295=ORIENTED_EDGE('',*,*,#459,.F.);
#296=ORIENTED_EDGE('',*,*,#430,.F.);
#297=ORIENTED_EDGE('',*,*,#460,.T.);
#298=ORIENTED_EDGE('',*,*,#461,.T.);
#299=ORIENTED_EDGE('',*,*,#462,.T.);
#300=ORIENTED_EDGE('',*,*,#463,.T.);
#301=ORIENTED_EDGE('',*,*,#464,.T.);
#302=ORIENTED_EDGE('',*,*,#465,.T.);
#303=ORIENTED_EDGE('',*,*,#460,.F.);
#304=ORIENTED_EDGE('',*,*,#441,.F.);
#305=ORIENTED_EDGE('',*,*,#456,.F.);
#306=ORIENTED_EDGE('',*,*,#391,.T.);
#307=ORIENTED_EDGE('',*,*,#455,.F.);
#308=ORIENTED_EDGE('',*,*,#452,.F.);
#309=ORIENTED_EDGE('',*,*,#458,.F.);
#310=ORIENTED_EDGE('',*,*,#466,.F.);
#311=ORIENTED_EDGE('',*,*,#467,.F.);
#312=ORIENTED_EDGE('',*,*,#468,.F.);
#313=ORIENTED_EDGE('',*,*,#469,.F.);
#314=ORIENTED_EDGE('',*,*,#462,.F.);
#315=ORIENTED_EDGE('',*,*,#470,.F.);
#316=ORIENTED_EDGE('',*,*,#467,.T.);
#317=ORIENTED_EDGE('',*,*,#471,.T.);
#318=ORIENTED_EDGE('',*,*,#461,.F.);
#319=ORIENTED_EDGE('',*,*,#472,.F.);
#320=ORIENTED_EDGE('',*,*,#468,.T.);
#321=ORIENTED_EDGE('',*,*,#470,.T.);
#322=ORIENTED_EDGE('',*,*,#464,.F.);
#323=ORIENTED_EDGE('',*,*,#473,.F.);
#324=ORIENTED_EDGE('',*,*,#469,.T.);
#325=ORIENTED_EDGE('',*,*,#472,.T.);
#326=ORIENTED_EDGE('',*,*,#463,.F.);
#327=ORIENTED_EDGE('',*,*,#471,.F.);
#328=ORIENTED_EDGE('',*,*,#466,.T.);
#329=ORIENTED_EDGE('',*,*,#473,.T.);
#330=ORIENTED_EDGE('',*,*,#474,.F.);
#331=ORIENTED_EDGE('',*,*,#465,.F.);
#332=ORIENTED_EDGE('',*,*,#475,.F.);
#333=ORIENTED_EDGE('',*,*,#476,.F.);
#334=ORIENTED_EDGE('',*,*,#477,.F.);
#335=ORIENTED_EDGE('',*,*,#437,.T.);
#336=ORIENTED_EDGE('',*,*,#478,.F.);
#337=ORIENTED_EDGE('',*,*,#444,.F.);
#338=ORIENTED_EDGE('',*,*,#431,.T.);
#339=ORIENTED_EDGE('',*,*,#459,.T.);
#340=ORIENTED_EDGE('',*,*,#474,.T.);
#341=ORIENTED_EDGE('',*,*,#479,.F.);
#342=ORIENTED_EDGE('',*,*,#480,.F.);
#343=ORIENTED_EDGE('',*,*,#475,.T.);
#344=ORIENTED_EDGE('',*,*,#457,.T.);
#345=ORIENTED_EDGE('',*,*,#450,.F.);
#346=ORIENTED_EDGE('',*,*,#481,.F.);
#347=ORIENTED_EDGE('',*,*,#482,.F.);
#348=ORIENTED_EDGE('',*,*,#483,.T.);
#349=ORIENTED_EDGE('',*,*,#484,.T.);
#350=ORIENTED_EDGE('',*,*,#485,.F.);
#351=ORIENTED_EDGE('',*,*,#446,.F.);
#352=ORIENTED_EDGE('',*,*,#486,.T.);
#353=ORIENTED_EDGE('',*,*,#435,.T.);
#354=ORIENTED_EDGE('',*,*,#487,.F.);
#355=ORIENTED_EDGE('',*,*,#488,.T.);
#356=ORIENTED_EDGE('',*,*,#436,.F.);
#357=ORIENTED_EDGE('',*,*,#486,.F.);
#358=ORIENTED_EDGE('',*,*,#489,.T.);
#359=ORIENTED_EDGE('',*,*,#483,.F.);
#360=ORIENTED_EDGE('',*,*,#445,.T.);
#361=ORIENTED_EDGE('',*,*,#478,.T.);
#362=ORIENTED_EDGE('',*,*,#490,.T.);
#363=ORIENTED_EDGE('',*,*,#487,.T.);
#364=ORIENTED_EDGE('',*,*,#434,.F.);
#365=ORIENTED_EDGE('',*,*,#491,.F.);
#366=ORIENTED_EDGE('',*,*,#447,.T.);
#367=ORIENTED_EDGE('',*,*,#485,.T.);
#368=ORIENTED_EDGE('',*,*,#433,.T.);
#369=ORIENTED_EDGE('',*,*,#492,.F.);
#370=ORIENTED_EDGE('',*,*,#448,.F.);
#371=ORIENTED_EDGE('',*,*,#491,.T.);
#372=ORIENTED_EDGE('',*,*,#493,.F.);
#373=ORIENTED_EDGE('',*,*,#481,.T.);
#374=ORIENTED_EDGE('',*,*,#449,.T.);
#375=ORIENTED_EDGE('',*,*,#492,.T.);
#376=ORIENTED_EDGE('',*,*,#432,.F.);
#377=ORIENTED_EDGE('',*,*,#480,.T.);
#378=ORIENTED_EDGE('',*,*,#476,.T.);
#379=ORIENTED_EDGE('',*,*,#482,.T.);
#380=ORIENTED_EDGE('',*,*,#493,.T.);
#381=ORIENTED_EDGE('',*,*,#479,.T.);
#382=ORIENTED_EDGE('',*,*,#489,.F.);
#383=ORIENTED_EDGE('',*,*,#488,.F.);
#384=ORIENTED_EDGE('',*,*,#490,.F.);
#385=ORIENTED_EDGE('',*,*,#484,.F.);
#386=ORIENTED_EDGE('',*,*,#438,.T.);
#387=ORIENTED_EDGE('',*,*,#477,.T.);
#388=ORIENTED_EDGE('',*,*,#443,.F.);
#389=ORIENTED_EDGE('',*,*,#454,.F.);
#390=EDGE_CURVE('',#494,#495,#562,.T.);
#391=EDGE_CURVE('',#496,#494,#38,.T.);
#392=EDGE_CURVE('',#497,#496,#563,.T.);
#393=EDGE_CURVE('',#495,#497,#39,.T.);
#394=EDGE_CURVE('',#498,#499,#40,.T.);
#395=EDGE_CURVE('',#498,#500,#564,.T.);
#396=EDGE_CURVE('',#501,#500,#41,.T.);
#397=EDGE_CURVE('',#499,#501,#565,.T.);
#398=EDGE_CURVE('',#502,#503,#42,.T.);
#399=EDGE_CURVE('',#503,#494,#20,.T.);
#400=EDGE_CURVE('',#504,#495,#43,.T.);
#401=EDGE_CURVE('',#502,#504,#566,.T.);
#402=EDGE_CURVE('',#496,#505,#21,.T.);
#403=EDGE_CURVE('',#506,#505,#44,.T.);
#404=EDGE_CURVE('',#507,#506,#567,.T.);
#405=EDGE_CURVE('',#497,#507,#45,.T.);
#406=EDGE_CURVE('',#508,#509,#568,.T.);
#407=EDGE_CURVE('',#509,#510,#46,.T.);
#408=EDGE_CURVE('',#511,#510,#569,.T.);
#409=EDGE_CURVE('',#508,#511,#47,.T.);
#410=EDGE_CURVE('',#512,#513,#570,.T.);
#411=EDGE_CURVE('',#513,#514,#48,.T.);
#412=EDGE_CURVE('',#515,#514,#571,.T.);
#413=EDGE_CURVE('',#515,#512,#49,.T.);
#414=EDGE_CURVE('',#513,#500,#50,.T.);
#415=EDGE_CURVE('',#512,#509,#51,.T.);
#416=EDGE_CURVE('',#508,#501,#52,.T.);
#417=EDGE_CURVE('',#510,#515,#53,.T.);
#418=EDGE_CURVE('',#516,#514,#54,.T.);
#419=EDGE_CURVE('',#517,#516,#55,.T.);
#420=EDGE_CURVE('',#517,#511,#56,.T.);
#421=EDGE_CURVE('',#516,#518,#572,.T.);
#422=EDGE_CURVE('',#519,#518,#57,.T.);
#423=EDGE_CURVE('',#517,#519,#573,.T.);
#424=EDGE_CURVE('',#507,#504,#58,.T.);
#425=EDGE_CURVE('',#506,#519,#59,.T.);
#426=EDGE_CURVE('',#502,#518,#60,.T.);
#427=EDGE_CURVE('',#520,#498,#574,.T.);
#428=EDGE_CURVE('',#521,#499,#575,.T.);
#429=EDGE_CURVE('',#520,#521,#61,.T.);
#430=EDGE_CURVE('',#522,#523,#62,.T.);
#431=EDGE_CURVE('',#524,#523,#63,.T.);
#432=EDGE_CURVE('',#524,#525,#64,.T.);
#433=EDGE_CURVE('',#526,#525,#576,.T.);
#434=EDGE_CURVE('',#526,#527,#65,.T.);
#435=EDGE_CURVE('',#528,#527,#66,.T.);
#436=EDGE_CURVE('',#528,#529,#67,.T.);
#437=EDGE_CURVE('',#530,#529,#577,.T.);
#438=EDGE_CURVE('',#531,#530,#578,.T.);
#439=EDGE_CURVE('',#521,#531,#68,.T.);
#440=EDGE_CURVE('',#532,#505,#69,.T.);
#441=EDGE_CURVE('',#532,#522,#70,.T.);
#442=EDGE_CURVE('',#533,#520,#71,.T.);
#443=EDGE_CURVE('',#533,#534,#579,.T.);
#444=EDGE_CURVE('',#534,#535,#580,.T.);
#445=EDGE_CURVE('',#536,#535,#72,.T.);
#446=EDGE_CURVE('',#536,#537,#73,.T.);
#447=EDGE_CURVE('',#538,#537,#74,.T.);
#448=EDGE_CURVE('',#538,#539,#581,.T.);
#449=EDGE_CURVE('',#540,#539,#75,.T.);
#450=EDGE_CURVE('',#540,#541,#76,.T.);
#451=EDGE_CURVE('',#542,#541,#77,.T.);
#452=EDGE_CURVE('',#542,#543,#78,.T.);
#453=EDGE_CURVE('',#543,#503,#79,.T.);
#454=EDGE_CURVE('',#531,#533,#80,.T.);
#455=EDGE_CURVE('',#543,#494,#81,.T.);
#456=EDGE_CURVE('',#496,#532,#82,.T.);
#457=EDGE_CURVE('',#544,#541,#22,.T.);
#458=EDGE_CURVE('',#544,#542,#83,.T.);
#459=EDGE_CURVE('',#523,#545,#23,.T.);
#460=EDGE_CURVE('',#522,#545,#84,.T.);
#461=EDGE_CURVE('',#546,#547,#85,.T.);
#462=EDGE_CURVE('',#547,#548,#86,.T.);
#463=EDGE_CURVE('',#548,#549,#87,.T.);
#464=EDGE_CURVE('',#549,#546,#88,.T.);
#465=EDGE_CURVE('',#544,#545,#89,.T.);
#466=EDGE_CURVE('',#550,#551,#90,.T.);
#467=EDGE_CURVE('',#552,#550,#91,.T.);
#468=EDGE_CURVE('',#553,#552,#92,.T.);
#469=EDGE_CURVE('',#551,#553,#93,.T.);
#470=EDGE_CURVE('',#552,#547,#94,.T.);
#471=EDGE_CURVE('',#550,#548,#95,.T.);
#472=EDGE_CURVE('',#553,#546,#96,.T.);
#473=EDGE_CURVE('',#551,#549,#97,.T.);
#474=EDGE_CURVE('',#545,#554,#582,.T.);
#475=EDGE_CURVE('',#555,#544,#583,.T.);
#476=EDGE_CURVE('',#554,#555,#98,.T.);
#477=EDGE_CURVE('',#530,#534,#99,.T.);
#478=EDGE_CURVE('',#535,#529,#100,.T.);
#479=EDGE_CURVE('',#556,#554,#101,.T.);
#480=EDGE_CURVE('',#524,#556,#584,.T.);
#481=EDGE_CURVE('',#557,#540,#585,.T.);
#482=EDGE_CURVE('',#555,#557,#102,.T.);
#483=EDGE_CURVE('',#536,#558,#586,.T.);
#484=EDGE_CURVE('',#558,#559,#103,.T.);
#485=EDGE_CURVE('',#537,#559,#587,.T.);
#486=EDGE_CURVE('',#560,#528,#588,.T.);
#487=EDGE_CURVE('',#561,#527,#589,.T.);
#488=EDGE_CURVE('',#561,#560,#104,.T.);
#489=EDGE_CURVE('',#560,#558,#105,.T.);
#490=EDGE_CURVE('',#559,#561,#106,.T.);
#491=EDGE_CURVE('',#538,#526,#107,.T.);
#492=EDGE_CURVE('',#539,#525,#108,.T.);
#493=EDGE_CURVE('',#557,#556,#109,.T.);
#494=VERTEX_POINT('',#1294);
#495=VERTEX_POINT('',#1295);
#496=VERTEX_POINT('',#1297);
#497=VERTEX_POINT('',#1299);
#498=VERTEX_POINT('',#1303);
#499=VERTEX_POINT('',#1304);
#500=VERTEX_POINT('',#1306);
#501=VERTEX_POINT('',#1308);
#502=VERTEX_POINT('',#1312);
#503=VERTEX_POINT('',#1313);
#504=VERTEX_POINT('',#1319);
#505=VERTEX_POINT('',#1326);
#506=VERTEX_POINT('',#1328);
#507=VERTEX_POINT('',#1330);
#508=VERTEX_POINT('',#1334);
#509=VERTEX_POINT('',#1335);
#510=VERTEX_POINT('',#1337);
#511=VERTEX_POINT('',#1339);
#512=VERTEX_POINT('',#1343);
#513=VERTEX_POINT('',#1344);
#514=VERTEX_POINT('',#1346);
#515=VERTEX_POINT('',#1348);
#516=VERTEX_POINT('',#1357);
#517=VERTEX_POINT('',#1359);
#518=VERTEX_POINT('',#1363);
#519=VERTEX_POINT('',#1365);
#520=VERTEX_POINT('',#1375);
#521=VERTEX_POINT('',#1377);
#522=VERTEX_POINT('',#1381);
#523=VERTEX_POINT('',#1382);
#524=VERTEX_POINT('',#1384);
#525=VERTEX_POINT('',#1386);
#526=VERTEX_POINT('',#1388);
#527=VERTEX_POINT('',#1390);
#528=VERTEX_POINT('',#1392);
#529=VERTEX_POINT('',#1394);
#530=VERTEX_POINT('',#1396);
#531=VERTEX_POINT('',#1398);
#532=VERTEX_POINT('',#1401);
#533=VERTEX_POINT('',#1405);
#534=VERTEX_POINT('',#1407);
#535=VERTEX_POINT('',#1409);
#536=VERTEX_POINT('',#1411);
#537=VERTEX_POINT('',#1413);
#538=VERTEX_POINT('',#1415);
#539=VERTEX_POINT('',#1417);
#540=VERTEX_POINT('',#1419);
#541=VERTEX_POINT('',#1421);
#542=VERTEX_POINT('',#1423);
#543=VERTEX_POINT('',#1425);
#544=VERTEX_POINT('',#1438);
#545=VERTEX_POINT('',#1445);
#546=VERTEX_POINT('',#1449);
#547=VERTEX_POINT('',#1450);
#548=VERTEX_POINT('',#1452);
#549=VERTEX_POINT('',#1454);
#550=VERTEX_POINT('',#1459);
#551=VERTEX_POINT('',#1460);
#552=VERTEX_POINT('',#1462);
#553=VERTEX_POINT('',#1464);
#554=VERTEX_POINT('',#1476);
#555=VERTEX_POINT('',#1478);
#556=VERTEX_POINT('',#1485);
#557=VERTEX_POINT('',#1489);
#558=VERTEX_POINT('',#1493);
#559=VERTEX_POINT('',#1495);
#560=VERTEX_POINT('',#1499);
#561=VERTEX_POINT('',#1501);
#562=CIRCLE('',#1017,0.15);
#563=CIRCLE('',#1018,0.15);
#564=CIRCLE('',#1020,0.4);
#565=CIRCLE('',#1021,0.4);
#566=CIRCLE('',#1023,0.15);
#567=CIRCLE('',#1025,0.15);
#568=CIRCLE('',#1027,0.15);
#569=CIRCLE('',#1028,0.15);
#570=CIRCLE('',#1030,0.15);
#571=CIRCLE('',#1031,0.15);
#572=CIRCLE('',#1035,0.55);
#573=CIRCLE('',#1036,0.55);
#574=CIRCLE('',#1041,1.3);
#575=CIRCLE('',#1042,1.3);
#576=CIRCLE('',#1044,0.55);
#577=CIRCLE('',#1045,0.4);
#578=CIRCLE('',#1046,1.3);
#579=CIRCLE('',#1048,1.3);
#580=CIRCLE('',#1049,0.4);
#581=CIRCLE('',#1050,0.55);
#582=CIRCLE('',#1063,0.15);
#583=CIRCLE('',#1064,0.15);
#584=CIRCLE('',#1067,0.15);
#585=CIRCLE('',#1069,0.15);
#586=CIRCLE('',#1071,0.15);
#587=CIRCLE('',#1072,0.15);
#588=CIRCLE('',#1074,0.15);
#589=CIRCLE('',#1075,0.15);
#590=EDGE_LOOP('',(#182,#183,#184,#185));
#591=EDGE_LOOP('',(#186,#187,#188,#189));
#592=EDGE_LOOP('',(#190,#191,#192,#193,#194));
#593=EDGE_LOOP('',(#195,#196,#197,#198,#199));
#594=EDGE_LOOP('',(#200,#201,#202,#203));
#595=EDGE_LOOP('',(#204,#205,#206,#207));
#596=EDGE_LOOP('',(#208,#209,#210,#211,#212,#213));
#597=EDGE_LOOP('',(#214,#215,#216,#217,#218,#219));
#598=EDGE_LOOP('',(#220,#221,#222,#223));
#599=EDGE_LOOP('',(#224,#225,#226,#227,#228,#229));
#600=EDGE_LOOP('',(#230,#231,#232,#233));
#601=EDGE_LOOP('',(#234,#235,#236,#237));
#602=EDGE_LOOP('',(#238,#239,#240,#241));
#603=EDGE_LOOP('',(#242,#243,#244,#245,#246,#247,#248,#249,#250,#251,#252,
#253,#254,#255,#256,#257,#258,#259,#260,#261));
#604=EDGE_LOOP('',(#262,#263,#264,#265,#266,#267,#268,#269,#270,#271,#272,
#273,#274,#275,#276,#277,#278,#279,#280,#281));
#605=EDGE_LOOP('',(#282,#283,#284,#285));
#606=EDGE_LOOP('',(#286,#287,#288));
#607=EDGE_LOOP('',(#289,#290,#291));
#608=EDGE_LOOP('',(#292,#293,#294));
#609=EDGE_LOOP('',(#295,#296,#297));
#610=EDGE_LOOP('',(#298,#299,#300,#301));
#611=EDGE_LOOP('',(#302,#303,#304,#305,#306,#307,#308,#309));
#612=EDGE_LOOP('',(#310,#311,#312,#313));
#613=EDGE_LOOP('',(#314,#315,#316,#317));
#614=EDGE_LOOP('',(#318,#319,#320,#321));
#615=EDGE_LOOP('',(#322,#323,#324,#325));
#616=EDGE_LOOP('',(#326,#327,#328,#329));
#617=EDGE_LOOP('',(#330,#331,#332,#333));
#618=EDGE_LOOP('',(#334,#335,#336,#337));
#619=EDGE_LOOP('',(#338,#339,#340,#341,#342));
#620=EDGE_LOOP('',(#343,#344,#345,#346,#347));
#621=EDGE_LOOP('',(#348,#349,#350,#351));
#622=EDGE_LOOP('',(#352,#353,#354,#355));
#623=EDGE_LOOP('',(#356,#357,#358,#359,#360,#361));
#624=EDGE_LOOP('',(#362,#363,#364,#365,#366,#367));
#625=EDGE_LOOP('',(#368,#369,#370,#371));
#626=EDGE_LOOP('',(#372,#373,#374,#375,#376,#377));
#627=EDGE_LOOP('',(#378,#379,#380,#381));
#628=EDGE_LOOP('',(#382,#383,#384,#385));
#629=EDGE_LOOP('',(#386,#387,#388,#389));
#630=FACE_BOUND('',#590,.T.);
#631=FACE_BOUND('',#591,.T.);
#632=FACE_BOUND('',#592,.T.);
#633=FACE_BOUND('',#593,.T.);
#634=FACE_BOUND('',#594,.T.);
#635=FACE_BOUND('',#595,.T.);
#636=FACE_BOUND('',#596,.T.);
#637=FACE_BOUND('',#597,.T.);
#638=FACE_BOUND('',#598,.T.);
#639=FACE_BOUND('',#599,.T.);
#640=FACE_BOUND('',#600,.T.);
#641=FACE_BOUND('',#601,.T.);
#642=FACE_BOUND('',#602,.T.);
#643=FACE_BOUND('',#603,.T.);
#644=FACE_BOUND('',#604,.T.);
#645=FACE_BOUND('',#605,.T.);
#646=FACE_BOUND('',#606,.T.);
#647=FACE_BOUND('',#607,.T.);
#648=FACE_BOUND('',#608,.T.);
#649=FACE_BOUND('',#609,.T.);
#650=FACE_BOUND('',#610,.T.);
#651=FACE_BOUND('',#611,.T.);
#652=FACE_BOUND('',#612,.T.);
#653=FACE_BOUND('',#613,.T.);
#654=FACE_BOUND('',#614,.T.);
#655=FACE_BOUND('',#615,.T.);
#656=FACE_BOUND('',#616,.T.);
#657=FACE_BOUND('',#617,.T.);
#658=FACE_BOUND('',#618,.T.);
#659=FACE_BOUND('',#619,.T.);
#660=FACE_BOUND('',#620,.T.);
#661=FACE_BOUND('',#621,.T.);
#662=FACE_BOUND('',#622,.T.);
#663=FACE_BOUND('',#623,.T.);
#664=FACE_BOUND('',#624,.T.);
#665=FACE_BOUND('',#625,.T.);
#666=FACE_BOUND('',#626,.T.);
#667=FACE_BOUND('',#627,.T.);
#668=FACE_BOUND('',#628,.T.);
#669=FACE_BOUND('',#629,.T.);
#670=PLANE('',#1016);
#671=PLANE('',#1032);
#672=PLANE('',#1033);
#673=PLANE('',#1037);
#674=PLANE('',#1038);
#675=PLANE('',#1039);
#676=PLANE('',#1043);
#677=PLANE('',#1047);
#678=PLANE('',#1051);
#679=PLANE('',#1052);
#680=PLANE('',#1053);
#681=PLANE('',#1054);
#682=PLANE('',#1055);
#683=PLANE('',#1056);
#684=PLANE('',#1057);
#685=PLANE('',#1058);
#686=PLANE('',#1059);
#687=PLANE('',#1060);
#688=PLANE('',#1061);
#689=PLANE('',#1062);
#690=PLANE('',#1076);
#691=PLANE('',#1077);
#692=PLANE('',#1079);
#693=PLANE('',#1080);
#694=PLANE('',#1081);
#695=STYLED_ITEM('',(#734),#972);
#696=STYLED_ITEM('',(#735),#973);
#697=STYLED_ITEM('',(#736),#974);
#698=STYLED_ITEM('',(#737),#975);
#699=STYLED_ITEM('',(#738),#976);
#700=STYLED_ITEM('',(#739),#977);
#701=STYLED_ITEM('',(#740),#978);
#702=STYLED_ITEM('',(#741),#979);
#703=STYLED_ITEM('',(#742),#980);
#704=STYLED_ITEM('',(#743),#981);
#705=STYLED_ITEM('',(#744),#982);
#706=STYLED_ITEM('',(#745),#983);
#707=STYLED_ITEM('',(#746),#984);
#708=STYLED_ITEM('',(#747),#985);
#709=STYLED_ITEM('',(#748),#986);
#710=STYLED_ITEM('',(#749),#987);
#711=STYLED_ITEM('',(#750),#988);
#712=STYLED_ITEM('',(#751),#989);
#713=STYLED_ITEM('',(#752),#990);
#714=STYLED_ITEM('',(#753),#991);
#715=STYLED_ITEM('',(#754),#992);
#716=STYLED_ITEM('',(#755),#993);
#717=STYLED_ITEM('',(#756),#994);
#718=STYLED_ITEM('',(#757),#995);
#719=STYLED_ITEM('',(#758),#996);
#720=STYLED_ITEM('',(#759),#997);
#721=STYLED_ITEM('',(#760),#998);
#722=STYLED_ITEM('',(#761),#999);
#723=STYLED_ITEM('',(#762),#1000);
#724=STYLED_ITEM('',(#763),#1001);
#725=STYLED_ITEM('',(#764),#1002);
#726=STYLED_ITEM('',(#765),#1003);
#727=STYLED_ITEM('',(#766),#1004);
#728=STYLED_ITEM('',(#767),#1005);
#729=STYLED_ITEM('',(#768),#1006);
#730=STYLED_ITEM('',(#769),#1007);
#731=STYLED_ITEM('',(#770),#1008);
#732=STYLED_ITEM('',(#771),#1009);
#733=STYLED_ITEM('',(#772),#1010);
#734=PRESENTATION_STYLE_ASSIGNMENT((#773));
#735=PRESENTATION_STYLE_ASSIGNMENT((#774));
#736=PRESENTATION_STYLE_ASSIGNMENT((#775));
#737=PRESENTATION_STYLE_ASSIGNMENT((#776));
#738=PRESENTATION_STYLE_ASSIGNMENT((#777));
#739=PRESENTATION_STYLE_ASSIGNMENT((#778));
#740=PRESENTATION_STYLE_ASSIGNMENT((#779));
#741=PRESENTATION_STYLE_ASSIGNMENT((#780));
#742=PRESENTATION_STYLE_ASSIGNMENT((#781));
#743=PRESENTATION_STYLE_ASSIGNMENT((#782));
#744=PRESENTATION_STYLE_ASSIGNMENT((#783));
#745=PRESENTATION_STYLE_ASSIGNMENT((#784));
#746=PRESENTATION_STYLE_ASSIGNMENT((#785));
#747=PRESENTATION_STYLE_ASSIGNMENT((#786));
#748=PRESENTATION_STYLE_ASSIGNMENT((#787));
#749=PRESENTATION_STYLE_ASSIGNMENT((#788));
#750=PRESENTATION_STYLE_ASSIGNMENT((#789));
#751=PRESENTATION_STYLE_ASSIGNMENT((#790));
#752=PRESENTATION_STYLE_ASSIGNMENT((#791));
#753=PRESENTATION_STYLE_ASSIGNMENT((#792));
#754=PRESENTATION_STYLE_ASSIGNMENT((#793));
#755=PRESENTATION_STYLE_ASSIGNMENT((#794));
#756=PRESENTATION_STYLE_ASSIGNMENT((#795));
#757=PRESENTATION_STYLE_ASSIGNMENT((#796));
#758=PRESENTATION_STYLE_ASSIGNMENT((#797));
#759=PRESENTATION_STYLE_ASSIGNMENT((#798));
#760=PRESENTATION_STYLE_ASSIGNMENT((#799));
#761=PRESENTATION_STYLE_ASSIGNMENT((#800));
#762=PRESENTATION_STYLE_ASSIGNMENT((#801));
#763=PRESENTATION_STYLE_ASSIGNMENT((#802));
#764=PRESENTATION_STYLE_ASSIGNMENT((#803));
#765=PRESENTATION_STYLE_ASSIGNMENT((#804));
#766=PRESENTATION_STYLE_ASSIGNMENT((#805));
#767=PRESENTATION_STYLE_ASSIGNMENT((#806));
#768=PRESENTATION_STYLE_ASSIGNMENT((#807));
#769=PRESENTATION_STYLE_ASSIGNMENT((#808));
#770=PRESENTATION_STYLE_ASSIGNMENT((#809));
#771=PRESENTATION_STYLE_ASSIGNMENT((#810));
#772=PRESENTATION_STYLE_ASSIGNMENT((#811));
#773=SURFACE_STYLE_USAGE(.BOTH.,#812);
#774=SURFACE_STYLE_USAGE(.BOTH.,#813);
#775=SURFACE_STYLE_USAGE(.BOTH.,#814);
#776=SURFACE_STYLE_USAGE(.BOTH.,#815);
#777=SURFACE_STYLE_USAGE(.BOTH.,#816);
#778=SURFACE_STYLE_USAGE(.BOTH.,#817);
#779=SURFACE_STYLE_USAGE(.BOTH.,#818);
#780=SURFACE_STYLE_USAGE(.BOTH.,#819);
#781=SURFACE_STYLE_USAGE(.BOTH.,#820);
#782=SURFACE_STYLE_USAGE(.BOTH.,#821);
#783=SURFACE_STYLE_USAGE(.BOTH.,#822);
#784=SURFACE_STYLE_USAGE(.BOTH.,#823);
#785=SURFACE_STYLE_USAGE(.BOTH.,#824);
#786=SURFACE_STYLE_USAGE(.BOTH.,#825);
#787=SURFACE_STYLE_USAGE(.BOTH.,#826);
#788=SURFACE_STYLE_USAGE(.BOTH.,#827);
#789=SURFACE_STYLE_USAGE(.BOTH.,#828);
#790=SURFACE_STYLE_USAGE(.BOTH.,#829);
#791=SURFACE_STYLE_USAGE(.BOTH.,#830);
#792=SURFACE_STYLE_USAGE(.BOTH.,#831);
#793=SURFACE_STYLE_USAGE(.BOTH.,#832);
#794=SURFACE_STYLE_USAGE(.BOTH.,#833);
#795=SURFACE_STYLE_USAGE(.BOTH.,#834);
#796=SURFACE_STYLE_USAGE(.BOTH.,#835);
#797=SURFACE_STYLE_USAGE(.BOTH.,#836);
#798=SURFACE_STYLE_USAGE(.BOTH.,#837);
#799=SURFACE_STYLE_USAGE(.BOTH.,#838);
#800=SURFACE_STYLE_USAGE(.BOTH.,#839);
#801=SURFACE_STYLE_USAGE(.BOTH.,#840);
#802=SURFACE_STYLE_USAGE(.BOTH.,#841);
#803=SURFACE_STYLE_USAGE(.BOTH.,#842);
#804=SURFACE_STYLE_USAGE(.BOTH.,#843);
#805=SURFACE_STYLE_USAGE(.BOTH.,#844);
#806=SURFACE_STYLE_USAGE(.BOTH.,#845);
#807=SURFACE_STYLE_USAGE(.BOTH.,#846);
#808=SURFACE_STYLE_USAGE(.BOTH.,#847);
#809=SURFACE_STYLE_USAGE(.BOTH.,#848);
#810=SURFACE_STYLE_USAGE(.BOTH.,#849);
#811=SURFACE_STYLE_USAGE(.BOTH.,#850);
#812=SURFACE_SIDE_STYLE('',(#851));
#813=SURFACE_SIDE_STYLE('',(#852));
#814=SURFACE_SIDE_STYLE('',(#853));
#815=SURFACE_SIDE_STYLE('',(#854));
#816=SURFACE_SIDE_STYLE('',(#855));
#817=SURFACE_SIDE_STYLE('',(#856));
#818=SURFACE_SIDE_STYLE('',(#857));
#819=SURFACE_SIDE_STYLE('',(#858));
#820=SURFACE_SIDE_STYLE('',(#859));
#821=SURFACE_SIDE_STYLE('',(#860));
#822=SURFACE_SIDE_STYLE('',(#861));
#823=SURFACE_SIDE_STYLE('',(#862));
#824=SURFACE_SIDE_STYLE('',(#863));
#825=SURFACE_SIDE_STYLE('',(#864));
#826=SURFACE_SIDE_STYLE('',(#865));
#827=SURFACE_SIDE_STYLE('',(#866));
#828=SURFACE_SIDE_STYLE('',(#867));
#829=SURFACE_SIDE_STYLE('',(#868));
#830=SURFACE_SIDE_STYLE('',(#869));
#831=SURFACE_SIDE_STYLE('',(#870));
#832=SURFACE_SIDE_STYLE('',(#871));
#833=SURFACE_SIDE_STYLE('',(#872));
#834=SURFACE_SIDE_STYLE('',(#873));
#835=SURFACE_SIDE_STYLE('',(#874));
#836=SURFACE_SIDE_STYLE('',(#875));
#837=SURFACE_SIDE_STYLE('',(#876));
#838=SURFACE_SIDE_STYLE('',(#877));
#839=SURFACE_SIDE_STYLE('',(#878));
#840=SURFACE_SIDE_STYLE('',(#879));
#841=SURFACE_SIDE_STYLE('',(#880));
#842=SURFACE_SIDE_STYLE('',(#881));
#843=SURFACE_SIDE_STYLE('',(#882));
#844=SURFACE_SIDE_STYLE('',(#883));
#845=SURFACE_SIDE_STYLE('',(#884));
#846=SURFACE_SIDE_STYLE('',(#885));
#847=SURFACE_SIDE_STYLE('',(#886));
#848=SURFACE_SIDE_STYLE('',(#887));
#849=SURFACE_SIDE_STYLE('',(#888));
#850=SURFACE_SIDE_STYLE('',(#889));
#851=SURFACE_STYLE_FILL_AREA(#890);
#852=SURFACE_STYLE_FILL_AREA(#891);
#853=SURFACE_STYLE_FILL_AREA(#892);
#854=SURFACE_STYLE_FILL_AREA(#893);
#855=SURFACE_STYLE_FILL_AREA(#894);
#856=SURFACE_STYLE_FILL_AREA(#895);
#857=SURFACE_STYLE_FILL_AREA(#896);
#858=SURFACE_STYLE_FILL_AREA(#897);
#859=SURFACE_STYLE_FILL_AREA(#898);
#860=SURFACE_STYLE_FILL_AREA(#899);
#861=SURFACE_STYLE_FILL_AREA(#900);
#862=SURFACE_STYLE_FILL_AREA(#901);
#863=SURFACE_STYLE_FILL_AREA(#902);
#864=SURFACE_STYLE_FILL_AREA(#903);
#865=SURFACE_STYLE_FILL_AREA(#904);
#866=SURFACE_STYLE_FILL_AREA(#905);
#867=SURFACE_STYLE_FILL_AREA(#906);
#868=SURFACE_STYLE_FILL_AREA(#907);
#869=SURFACE_STYLE_FILL_AREA(#908);
#870=SURFACE_STYLE_FILL_AREA(#909);
#871=SURFACE_STYLE_FILL_AREA(#910);
#872=SURFACE_STYLE_FILL_AREA(#911);
#873=SURFACE_STYLE_FILL_AREA(#912);
#874=SURFACE_STYLE_FILL_AREA(#913);
#875=SURFACE_STYLE_FILL_AREA(#914);
#876=SURFACE_STYLE_FILL_AREA(#915);
#877=SURFACE_STYLE_FILL_AREA(#916);
#878=SURFACE_STYLE_FILL_AREA(#917);
#879=SURFACE_STYLE_FILL_AREA(#918);
#880=SURFACE_STYLE_FILL_AREA(#919);
#881=SURFACE_STYLE_FILL_AREA(#920);
#882=SURFACE_STYLE_FILL_AREA(#921);
#883=SURFACE_STYLE_FILL_AREA(#922);
#884=SURFACE_STYLE_FILL_AREA(#923);
#885=SURFACE_STYLE_FILL_AREA(#924);
#886=SURFACE_STYLE_FILL_AREA(#925);
#887=SURFACE_STYLE_FILL_AREA(#926);
#888=SURFACE_STYLE_FILL_AREA(#927);
#889=SURFACE_STYLE_FILL_AREA(#928);
#890=FILL_AREA_STYLE('',(#929));
#891=FILL_AREA_STYLE('',(#930));
#892=FILL_AREA_STYLE('',(#931));
#893=FILL_AREA_STYLE('',(#932));
#894=FILL_AREA_STYLE('',(#933));
#895=FILL_AREA_STYLE('',(#934));
#896=FILL_AREA_STYLE('',(#935));
#897=FILL_AREA_STYLE('',(#936));
#898=FILL_AREA_STYLE('',(#937));
#899=FILL_AREA_STYLE('',(#938));
#900=FILL_AREA_STYLE('',(#939));
#901=FILL_AREA_STYLE('',(#940));
#902=FILL_AREA_STYLE('',(#941));
#903=FILL_AREA_STYLE('',(#942));
#904=FILL_AREA_STYLE('',(#943));
#905=FILL_AREA_STYLE('',(#944));
#906=FILL_AREA_STYLE('',(#945));
#907=FILL_AREA_STYLE('',(#946));
#908=FILL_AREA_STYLE('',(#947));
#909=FILL_AREA_STYLE('',(#948));
#910=FILL_AREA_STYLE('',(#949));
#911=FILL_AREA_STYLE('',(#950));
#912=FILL_AREA_STYLE('',(#951));
#913=FILL_AREA_STYLE('',(#952));
#914=FILL_AREA_STYLE('',(#953));
#915=FILL_AREA_STYLE('',(#954));
#916=FILL_AREA_STYLE('',(#955));
#917=FILL_AREA_STYLE('',(#956));
#918=FILL_AREA_STYLE('',(#957));
#919=FILL_AREA_STYLE('',(#958));
#920=FILL_AREA_STYLE('',(#959));
#921=FILL_AREA_STYLE('',(#960));
#922=FILL_AREA_STYLE('',(#961));
#923=FILL_AREA_STYLE('',(#962));
#924=FILL_AREA_STYLE('',(#963));
#925=FILL_AREA_STYLE('',(#964));
#926=FILL_AREA_STYLE('',(#965));
#927=FILL_AREA_STYLE('',(#966));
#928=FILL_AREA_STYLE('',(#967));
#929=FILL_AREA_STYLE_COLOUR('',#968);
#930=FILL_AREA_STYLE_COLOUR('',#968);
#931=FILL_AREA_STYLE_COLOUR('',#968);
#932=FILL_AREA_STYLE_COLOUR('',#968);
#933=FILL_AREA_STYLE_COLOUR('',#968);
#934=FILL_AREA_STYLE_COLOUR('',#968);
#935=FILL_AREA_STYLE_COLOUR('',#968);
#936=FILL_AREA_STYLE_COLOUR('',#968);
#937=FILL_AREA_STYLE_COLOUR('',#968);
#938=FILL_AREA_STYLE_COLOUR('',#968);
#939=FILL_AREA_STYLE_COLOUR('',#968);
#940=FILL_AREA_STYLE_COLOUR('',#968);
#941=FILL_AREA_STYLE_COLOUR('',#969);
#942=FILL_AREA_STYLE_COLOUR('',#970);
#943=FILL_AREA_STYLE_COLOUR('',#970);
#944=FILL_AREA_STYLE_COLOUR('',#971);
#945=FILL_AREA_STYLE_COLOUR('',#971);
#946=FILL_AREA_STYLE_COLOUR('',#971);
#947=FILL_AREA_STYLE_COLOUR('',#971);
#948=FILL_AREA_STYLE_COLOUR('',#971);
#949=FILL_AREA_STYLE_COLOUR('',#971);
#950=FILL_AREA_STYLE_COLOUR('',#971);
#951=FILL_AREA_STYLE_COLOUR('',#971);
#952=FILL_AREA_STYLE_COLOUR('',#971);
#953=FILL_AREA_STYLE_COLOUR('',#971);
#954=FILL_AREA_STYLE_COLOUR('',#971);
#955=FILL_AREA_STYLE_COLOUR('',#968);
#956=FILL_AREA_STYLE_COLOUR('',#968);
#957=FILL_AREA_STYLE_COLOUR('',#968);
#958=FILL_AREA_STYLE_COLOUR('',#968);
#959=FILL_AREA_STYLE_COLOUR('',#968);
#960=FILL_AREA_STYLE_COLOUR('',#968);
#961=FILL_AREA_STYLE_COLOUR('',#968);
#962=FILL_AREA_STYLE_COLOUR('',#968);
#963=FILL_AREA_STYLE_COLOUR('',#968);
#964=FILL_AREA_STYLE_COLOUR('',#968);
#965=FILL_AREA_STYLE_COLOUR('',#968);
#966=FILL_AREA_STYLE_COLOUR('',#968);
#967=FILL_AREA_STYLE_COLOUR('',#969);
#968=COLOUR_RGB('',0.329411774873734,0.329411774873734,0.329411774873734);
#969=COLOUR_RGB('',0.376470625400543,0.329411774873734,0.235294133424759);
#970=COLOUR_RGB('',0.506983280181885,0.531564235687256,0.550000011920929);
#971=COLOUR_RGB('',0.470588266849518,0.376470625400543,0.235294133424759);
#972=ADVANCED_FACE('',(#630),#670,.F.);
#973=ADVANCED_FACE('',(#631),#24,.F.);
#974=ADVANCED_FACE('',(#632),#25,.T.);
#975=ADVANCED_FACE('',(#633),#26,.T.);
#976=ADVANCED_FACE('',(#634),#27,.T.);
#977=ADVANCED_FACE('',(#635),#28,.T.);
#978=ADVANCED_FACE('',(#636),#671,.F.);
#979=ADVANCED_FACE('',(#637),#672,.T.);
#980=ADVANCED_FACE('',(#638),#29,.T.);
#981=ADVANCED_FACE('',(#639),#673,.T.);
#982=ADVANCED_FACE('',(#640),#674,.F.);
#983=ADVANCED_FACE('',(#641),#675,.T.);
#984=ADVANCED_FACE('',(#642),#30,.F.);
#985=ADVANCED_FACE('',(#643),#676,.T.);
#986=ADVANCED_FACE('',(#644),#677,.T.);
#987=ADVANCED_FACE('',(#645),#678,.T.);
#988=ADVANCED_FACE('',(#646),#679,.T.);
#989=ADVANCED_FACE('',(#647),#680,.T.);
#990=ADVANCED_FACE('',(#648),#681,.T.);
#991=ADVANCED_FACE('',(#649),#682,.T.);
#992=ADVANCED_FACE('',(#650,#651),#683,.F.);
#993=ADVANCED_FACE('',(#652),#684,.F.);
#994=ADVANCED_FACE('',(#653),#685,.T.);
#995=ADVANCED_FACE('',(#654),#686,.T.);
#996=ADVANCED_FACE('',(#655),#687,.T.);
#997=ADVANCED_FACE('',(#656),#688,.T.);
#998=ADVANCED_FACE('',(#657),#689,.F.);
#999=ADVANCED_FACE('',(#658),#31,.F.);
#1000=ADVANCED_FACE('',(#659),#32,.T.);
#1001=ADVANCED_FACE('',(#660),#33,.T.);
#1002=ADVANCED_FACE('',(#661),#34,.T.);
#1003=ADVANCED_FACE('',(#662),#35,.T.);
#1004=ADVANCED_FACE('',(#663),#690,.F.);
#1005=ADVANCED_FACE('',(#664),#691,.T.);
#1006=ADVANCED_FACE('',(#665),#36,.T.);
#1007=ADVANCED_FACE('',(#666),#692,.T.);
#1008=ADVANCED_FACE('',(#667),#693,.F.);
#1009=ADVANCED_FACE('',(#668),#694,.T.);
#1010=ADVANCED_FACE('',(#669),#37,.F.);
#1011=CLOSED_SHELL('',(#972,#973,#974,#975,#976,#977,#978,#979,#980,#981,
#982,#983,#984,#985,#986,#987,#988,#989,#990,#991,#992,#993,#994,#995,#996,
#997,#998,#999,#1000,#1001,#1002,#1003,#1004,#1005,#1006,#1007,#1008,#1009,
#1010));
#1012=MANIFOLD_SOLID_BREP($,#1011);
#1013=SHAPE_DEFINITION_REPRESENTATION(#1521,#1014);
#1014=SHAPE_REPRESENTATION('CeraLink_LPJ_6097_Z03_Ind',(#1015),#1516);
#1015=AXIS2_PLACEMENT_3D('',#1291,#1083,#1084);
#1016=AXIS2_PLACEMENT_3D('',#1292,#1085,#1086);
#1017=AXIS2_PLACEMENT_3D('',#1293,#1087,#1088);
#1018=AXIS2_PLACEMENT_3D('',#1298,#1090,#1091);
#1019=AXIS2_PLACEMENT_3D('',#1301,#1093,#1094);
#1020=AXIS2_PLACEMENT_3D('',#1305,#1096,#1097);
#1021=AXIS2_PLACEMENT_3D('',#1309,#1099,#1100);
#1022=AXIS2_PLACEMENT_3D('',#1310,#1101,#1102);
#1023=AXIS2_PLACEMENT_3D('',#1320,#1105,#1106);
#1024=AXIS2_PLACEMENT_3D('',#1321,#1107,#1108);
#1025=AXIS2_PLACEMENT_3D('',#1329,#1110,#1111);
#1026=AXIS2_PLACEMENT_3D('',#1332,#1113,#1114);
#1027=AXIS2_PLACEMENT_3D('',#1333,#1115,#1116);
#1028=AXIS2_PLACEMENT_3D('',#1338,#1118,#1119);
#1029=AXIS2_PLACEMENT_3D('',#1341,#1121,#1122);
#1030=AXIS2_PLACEMENT_3D('',#1342,#1123,#1124);
#1031=AXIS2_PLACEMENT_3D('',#1347,#1126,#1127);
#1032=AXIS2_PLACEMENT_3D('',#1350,#1129,#1130);
#1033=AXIS2_PLACEMENT_3D('',#1354,#1134,#1135);
#1034=AXIS2_PLACEMENT_3D('',#1361,#1140,#1141);
#1035=AXIS2_PLACEMENT_3D('',#1362,#1142,#1143);
#1036=AXIS2_PLACEMENT_3D('',#1366,#1145,#1146);
#1037=AXIS2_PLACEMENT_3D('',#1367,#1147,#1148);
#1038=AXIS2_PLACEMENT_3D('',#1371,#1152,#1153);
#1039=AXIS2_PLACEMENT_3D('',#1372,#1154,#1155);
#1040=AXIS2_PLACEMENT_3D('',#1373,#1156,#1157);
#1041=AXIS2_PLACEMENT_3D('',#1374,#1158,#1159);
#1042=AXIS2_PLACEMENT_3D('',#1376,#1160,#1161);
#1043=AXIS2_PLACEMENT_3D('',#1379,#1163,#1164);
#1044=AXIS2_PLACEMENT_3D('',#1387,#1168,#1169);
#1045=AXIS2_PLACEMENT_3D('',#1395,#1173,#1174);
#1046=AXIS2_PLACEMENT_3D('',#1397,#1175,#1176);
#1047=AXIS2_PLACEMENT_3D('',#1403,#1180,#1181);
#1048=AXIS2_PLACEMENT_3D('',#1406,#1183,#1184);
#1049=AXIS2_PLACEMENT_3D('',#1408,#1185,#1186);
#1050=AXIS2_PLACEMENT_3D('',#1416,#1190,#1191);
#1051=AXIS2_PLACEMENT_3D('',#1427,#1197,#1198);
#1052=AXIS2_PLACEMENT_3D('',#1429,#1200,#1201);
#1053=AXIS2_PLACEMENT_3D('',#1431,#1203,#1204);
#1054=AXIS2_PLACEMENT_3D('',#1433,#1206,#1207);
#1055=AXIS2_PLACEMENT_3D('',#1440,#1209,#1210);
#1056=AXIS2_PLACEMENT_3D('',#1447,#1212,#1213);
#1057=AXIS2_PLACEMENT_3D('',#1457,#1219,#1220);
#1058=AXIS2_PLACEMENT_3D('',#1466,#1225,#1226);
#1059=AXIS2_PLACEMENT_3D('',#1469,#1229,#1230);
#1060=AXIS2_PLACEMENT_3D('',#1471,#1232,#1233);
#1061=AXIS2_PLACEMENT_3D('',#1473,#1235,#1236);
#1062=AXIS2_PLACEMENT_3D('',#1474,#1237,#1238);
#1063=AXIS2_PLACEMENT_3D('',#1475,#1239,#1240);
#1064=AXIS2_PLACEMENT_3D('',#1477,#1241,#1242);
#1065=AXIS2_PLACEMENT_3D('',#1480,#1244,#1245);
#1066=AXIS2_PLACEMENT_3D('',#1483,#1248,#1249);
#1067=AXIS2_PLACEMENT_3D('',#1486,#1251,#1252);
#1068=AXIS2_PLACEMENT_3D('',#1487,#1253,#1254);
#1069=AXIS2_PLACEMENT_3D('',#1488,#1255,#1256);
#1070=AXIS2_PLACEMENT_3D('',#1491,#1258,#1259);
#1071=AXIS2_PLACEMENT_3D('',#1492,#1260,#1261);
#1072=AXIS2_PLACEMENT_3D('',#1496,#1263,#1264);
#1073=AXIS2_PLACEMENT_3D('',#1497,#1265,#1266);
#1074=AXIS2_PLACEMENT_3D('',#1498,#1267,#1268);
#1075=AXIS2_PLACEMENT_3D('',#1500,#1269,#1270);
#1076=AXIS2_PLACEMENT_3D('',#1503,#1272,#1273);
#1077=AXIS2_PLACEMENT_3D('',#1505,#1275,#1276);
#1078=AXIS2_PLACEMENT_3D('',#1508,#1279,#1280);
#1079=AXIS2_PLACEMENT_3D('',#1510,#1282,#1283);
#1080=AXIS2_PLACEMENT_3D('',#1512,#1285,#1286);
#1081=AXIS2_PLACEMENT_3D('',#1513,#1287,#1288);
#1082=AXIS2_PLACEMENT_3D('',#1514,#1289,#1290);
#1083=DIRECTION('',(0.,0.,1.));
#1084=DIRECTION('',(1.,0.,0.));
#1085=DIRECTION('',(-1.,0.,0.));
#1086=DIRECTION('',(0.,0.,1.));
#1087=DIRECTION('',(-1.,0.,0.));
#1088=DIRECTION('',(0.,0.,1.));
#1089=DIRECTION('',(0.,-1.,-7.2280144832367E-17));
#1090=DIRECTION('',(-1.,0.,0.));
#1091=DIRECTION('',(0.,0.,1.));
#1092=DIRECTION('',(0.,1.,0.));
#1093=DIRECTION('',(0.,-1.,0.));
#1094=DIRECTION('',(0.,0.,-1.));
#1095=DIRECTION('',(0.,1.,0.));
#1096=DIRECTION('',(0.,-1.,0.));
#1097=DIRECTION('',(0.,0.,-1.));
#1098=DIRECTION('',(0.,-1.,0.));
#1099=DIRECTION('',(0.,-1.,0.));
#1100=DIRECTION('',(0.,0.,-1.));
#1101=DIRECTION('',(-1.,0.,0.));
#1102=DIRECTION('',(0.,0.,1.));
#1103=DIRECTION('',(1.,0.,0.));
#1104=DIRECTION('',(1.,0.,0.));
#1105=DIRECTION('',(-1.,0.,0.));
#1106=DIRECTION('',(0.,0.,1.));
#1107=DIRECTION('',(1.,0.,0.));
#1108=DIRECTION('',(0.,0.,-1.));
#1109=DIRECTION('',(1.,0.,0.));
#1110=DIRECTION('',(-1.,0.,0.));
#1111=DIRECTION('',(0.,0.,1.));
#1112=DIRECTION('',(-1.,0.,0.));
#1113=DIRECTION('',(0.,0.,-1.));
#1114=DIRECTION('',(-1.,0.,0.));
#1115=DIRECTION('',(0.,0.,-1.));
#1116=DIRECTION('',(-1.,0.,0.));
#1117=DIRECTION('',(0.,0.,-1.));
#1118=DIRECTION('',(0.,0.,-1.));
#1119=DIRECTION('',(-1.,0.,0.));
#1120=DIRECTION('',(0.,0.,-1.));
#1121=DIRECTION('',(0.,0.,1.));
#1122=DIRECTION('',(1.,0.,0.));
#1123=DIRECTION('',(0.,0.,-1.));
#1124=DIRECTION('',(-1.,0.,0.));
#1125=DIRECTION('',(0.,0.,-1.));
#1126=DIRECTION('',(0.,0.,-1.));
#1127=DIRECTION('',(-1.,0.,0.));
#1128=DIRECTION('',(0.,0.,1.));
#1129=DIRECTION('',(0.,0.,-1.));
#1130=DIRECTION('',(-1.,0.,0.));
#1131=DIRECTION('',(-1.,0.,0.));
#1132=DIRECTION('',(0.,1.,0.));
#1133=DIRECTION('',(-1.,0.,0.));
#1134=DIRECTION('',(0.,0.,-1.));
#1135=DIRECTION('',(-1.,0.,0.));
#1136=DIRECTION('',(0.,-1.,0.));
#1137=DIRECTION('',(1.,0.,0.));
#1138=DIRECTION('',(0.,-1.,0.));
#1139=DIRECTION('',(1.,0.,0.));
#1140=DIRECTION('',(0.,-1.,0.));
#1141=DIRECTION('',(0.,0.,-1.));
#1142=DIRECTION('',(0.,1.,0.));
#1143=DIRECTION('',(0.,0.,1.));
#1144=DIRECTION('',(0.,-1.,0.));
#1145=DIRECTION('',(0.,1.,0.));
#1146=DIRECTION('',(0.,0.,1.));
#1147=DIRECTION('',(-1.,0.,0.));
#1148=DIRECTION('',(0.,0.,1.));
#1149=DIRECTION('',(0.,-1.,0.));
#1150=DIRECTION('',(0.,0.,-1.));
#1151=DIRECTION('',(0.,0.,-1.));
#1152=DIRECTION('',(0.,0.,-1.));
#1153=DIRECTION('',(0.,-1.,0.));
#1154=DIRECTION('',(1.,0.,0.));
#1155=DIRECTION('',(0.,-1.,0.));
#1156=DIRECTION('',(0.,1.,0.));
#1157=DIRECTION('',(0.,0.,1.));
#1158=DIRECTION('',(0.,-1.,0.));
#1159=DIRECTION('',(1.,0.,0.));
#1160=DIRECTION('',(0.,-1.,0.));
#1161=DIRECTION('',(1.,0.,0.));
#1162=DIRECTION('',(0.,1.,0.));
#1163=DIRECTION('',(0.,1.,0.));
#1164=DIRECTION('',(-1.,0.,0.));
#1165=DIRECTION('',(0.,0.,-1.));
#1166=DIRECTION('',(-1.,3.57697607802147E-17,1.83721315951819E-16));
#1167=DIRECTION('',(-1.83721315951819E-16,5.11129696141773E-33,-1.));
#1168=DIRECTION('',(-3.57697607802147E-17,-1.,1.46037056040508E-33));
#1169=DIRECTION('',(1.83721315951819E-16,-5.11129696141773E-33,1.));
#1170=DIRECTION('',(-1.,3.57697607802147E-17,1.83721315951819E-16));
#1171=DIRECTION('',(-1.83721315951819E-16,5.11129696141773E-33,-1.));
#1172=DIRECTION('',(1.,-3.57697607802147E-17,-1.83721315951819E-16));
#1173=DIRECTION('',(3.57697607802147E-17,1.,-1.46037056040508E-33));
#1174=DIRECTION('',(-1.83721315951819E-16,5.11129696141773E-33,-1.));
#1175=DIRECTION('',(-5.46552446137428E-17,1.,2.41705771710187E-17));
#1176=DIRECTION('',(-1.,-5.46552446137428E-17,-1.11022302462516E-16));
#1177=DIRECTION('',(1.,0.,0.));
#1178=DIRECTION('',(0.,0.,-1.));
#1179=DIRECTION('',(1.,0.,0.));
#1180=DIRECTION('',(0.,-1.,0.));
#1181=DIRECTION('',(1.,0.,0.));
#1182=DIRECTION('',(-1.,0.,0.));
#1183=DIRECTION('',(-5.46552446137428E-17,1.,2.41705771710187E-17));
#1184=DIRECTION('',(-1.,-5.46552446137428E-17,-1.11022302462516E-16));
#1185=DIRECTION('',(3.57697607802147E-17,1.,-1.46037056040508E-33));
#1186=DIRECTION('',(-1.83721315951819E-16,5.11129696141773E-33,-1.));
#1187=DIRECTION('',(1.,-3.57697607802147E-17,-1.83721315951819E-16));
#1188=DIRECTION('',(-1.83721315951819E-16,5.11129696141773E-33,-1.));
#1189=DIRECTION('',(-1.,3.57697607802147E-17,1.83721315951819E-16));
#1190=DIRECTION('',(-3.57697607802147E-17,-1.,1.46037056040508E-33));
#1191=DIRECTION('',(1.83721315951819E-16,-5.11129696141773E-33,1.));
#1192=DIRECTION('',(-1.83721315951819E-16,5.11129696141773E-33,-1.));
#1193=DIRECTION('',(-1.,3.57697607802147E-17,1.83721315951819E-16));
#1194=DIRECTION('',(0.,0.,-1.));
#1195=DIRECTION('',(-1.,0.,0.));
#1196=DIRECTION('',(0.,0.,-1.));
#1197=DIRECTION('',(0.,0.,-1.));
#1198=DIRECTION('',(0.,1.,0.));
#1199=DIRECTION('',(5.46552446137428E-17,-1.,-2.41705771710187E-17));
#1200=DIRECTION('',(-1.,0.,0.));
#1201=DIRECTION('',(0.,-1.,0.));
#1202=DIRECTION('',(0.,1.,0.));
#1203=DIRECTION('',(-1.,0.,0.));
#1204=DIRECTION('',(0.,-1.,0.));
#1205=DIRECTION('',(0.,1.,0.));
#1206=DIRECTION('',(1.,0.,0.));
#1207=DIRECTION('',(0.,1.,0.));
#1208=DIRECTION('',(0.,-1.,0.));
#1209=DIRECTION('',(1.,0.,0.));
#1210=DIRECTION('',(0.,1.,0.));
#1211=DIRECTION('',(0.,-1.,0.));
#1212=DIRECTION('',(0.,0.,-1.));
#1213=DIRECTION('',(0.,1.,0.));
#1214=DIRECTION('',(1.,-4.68529065339034E-34,4.40688743143751E-17));
#1215=DIRECTION('',(-7.88510670898549E-17,-1.,-1.06317457077909E-17));
#1216=DIRECTION('',(-1.,4.68529065339034E-34,-4.40688743143751E-17));
#1217=DIRECTION('',(-7.88510670898549E-17,1.,1.06317457077909E-17));
#1218=DIRECTION('',(0.,1.,7.2280144832367E-17));
#1219=DIRECTION('',(4.40688743143751E-17,1.06317457077909E-17,-1.));
#1220=DIRECTION('',(4.27642353614751E-50,1.,1.06317457077909E-17));
#1221=DIRECTION('',(-1.,4.68529065339034E-34,-4.40688743143751E-17));
#1222=DIRECTION('',(-7.88510670898549E-17,-1.,-1.06317457077909E-17));
#1223=DIRECTION('',(1.,-4.68529065339034E-34,4.40688743143751E-17));
#1224=DIRECTION('',(-7.88510670898549E-17,1.,1.06317457077909E-17));
#1225=DIRECTION('',(1.,-7.88510670898549E-17,4.40688743143751E-17));
#1226=DIRECTION('',(7.88510670898549E-17,1.,1.06317457077909E-17));
#1227=DIRECTION('',(4.40688743143751E-17,1.06317457077909E-17,-1.));
#1228=DIRECTION('',(4.40688743143751E-17,1.06317457077909E-17,-1.));
#1229=DIRECTION('',(4.27642353614751E-50,1.,1.06317457077909E-17));
#1230=DIRECTION('',(-4.40688743143751E-17,-1.06317457077909E-17,1.));
#1231=DIRECTION('',(4.40688743143751E-17,1.06317457077909E-17,-1.));
#1232=DIRECTION('',(-1.,-7.88510670898549E-17,-4.40688743143751E-17));
#1233=DIRECTION('',(7.88510670898549E-17,-1.,-1.06317457077909E-17));
#1234=DIRECTION('',(4.40688743143751E-17,1.06317457077909E-17,-1.));
#1235=DIRECTION('',(-4.27642353614751E-50,-1.,-1.06317457077909E-17));
#1236=DIRECTION('',(4.40688743143751E-17,1.06317457077909E-17,-1.));
#1237=DIRECTION('',(1.,-3.57697607802147E-17,-1.83721315951819E-16));
#1238=DIRECTION('',(1.83721315951819E-16,-5.11129696141773E-33,1.));
#1239=DIRECTION('',(1.,-3.57697607802147E-17,-1.83721315951819E-16));
#1240=DIRECTION('',(1.83721315951819E-16,-5.11129696141773E-33,1.));
#1241=DIRECTION('',(1.,-3.57697607802147E-17,-1.83721315951819E-16));
#1242=DIRECTION('',(1.83721315951819E-16,-5.11129696141773E-33,1.));
#1243=DIRECTION('',(-3.57697607802147E-17,-1.,1.46037056040508E-33));
#1244=DIRECTION('',(3.57697607802147E-17,1.,-1.46037056040508E-33));
#1245=DIRECTION('',(-1.83721315951819E-16,5.11129696141773E-33,-1.));
#1246=DIRECTION('',(5.46552446137428E-17,-1.,-2.41705771710187E-17));
#1247=DIRECTION('',(3.57697607802147E-17,1.,-1.46037056040508E-33));
#1248=DIRECTION('',(1.,-3.57697607802147E-17,-1.83721315951819E-16));
#1249=DIRECTION('',(1.83721315951819E-16,-5.11129696141773E-33,1.));
#1250=DIRECTION('',(-1.,3.57697607802147E-17,1.83721315951819E-16));
#1251=DIRECTION('',(1.,-3.57697607802147E-17,-1.83721315951819E-16));
#1252=DIRECTION('',(1.83721315951819E-16,-5.11129696141773E-33,1.));
#1253=DIRECTION('',(-1.,3.57697607802147E-17,1.83721315951819E-16));
#1254=DIRECTION('',(-1.83721315951819E-16,5.11129696141773E-33,-1.));
#1255=DIRECTION('',(1.,-3.57697607802147E-17,-1.83721315951819E-16));
#1256=DIRECTION('',(1.83721315951819E-16,-5.11129696141773E-33,1.));
#1257=DIRECTION('',(1.,-3.57697607802147E-17,-1.83721315951819E-16));
#1258=DIRECTION('',(-1.83721315951819E-16,5.11129696141773E-33,-1.));
#1259=DIRECTION('',(1.,-3.57697607802147E-17,-1.83721315951819E-16));
#1260=DIRECTION('',(-1.83721315951819E-16,5.11129696141773E-33,-1.));
#1261=DIRECTION('',(1.,-3.57697607802147E-17,-1.83721315951819E-16));
#1262=DIRECTION('',(-1.83721315951819E-16,5.11129696141773E-33,-1.));
#1263=DIRECTION('',(-1.83721315951819E-16,5.11129696141773E-33,-1.));
#1264=DIRECTION('',(1.,-3.57697607802147E-17,-1.83721315951819E-16));
#1265=DIRECTION('',(1.83721315951819E-16,-5.11129696141773E-33,1.));
#1266=DIRECTION('',(-1.,3.57697607802147E-17,1.83721315951819E-16));
#1267=DIRECTION('',(-1.83721315951819E-16,5.11129696141773E-33,-1.));
#1268=DIRECTION('',(1.,-3.57697607802147E-17,-1.83721315951819E-16));
#1269=DIRECTION('',(-1.83721315951819E-16,5.11129696141773E-33,-1.));
#1270=DIRECTION('',(1.,-3.57697607802147E-17,-1.83721315951819E-16));
#1271=DIRECTION('',(1.83721315951819E-16,-5.11129696141773E-33,1.));
#1272=DIRECTION('',(-1.83721315951819E-16,5.11129696141773E-33,-1.));
#1273=DIRECTION('',(1.,-3.57697607802147E-17,-1.83721315951819E-16));
#1274=DIRECTION('',(-3.57697607802147E-17,-1.,1.46037056040508E-33));
#1275=DIRECTION('',(-1.83721315951819E-16,5.11129696141773E-33,-1.));
#1276=DIRECTION('',(1.,-3.57697607802147E-17,-1.83721315951819E-16));
#1277=DIRECTION('',(3.57697607802147E-17,1.,-1.46037056040508E-33));
#1278=DIRECTION('',(3.57697607802147E-17,1.,-1.46037056040508E-33));
#1279=DIRECTION('',(3.57697607802147E-17,1.,-1.46037056040508E-33));
#1280=DIRECTION('',(-1.83721315951819E-16,5.11129696141773E-33,-1.));
#1281=DIRECTION('',(3.57697607802147E-17,1.,-1.46037056040508E-33));
#1282=DIRECTION('',(1.,-3.57697607802147E-17,-1.83721315951819E-16));
#1283=DIRECTION('',(1.83721315951819E-16,-5.11129696141773E-33,1.));
#1284=DIRECTION('',(3.57697607802147E-17,1.,-1.46037056040508E-33));
#1285=DIRECTION('',(-1.83721315951819E-16,5.11129696141773E-33,-1.));
#1286=DIRECTION('',(3.57697607802147E-17,1.,-1.46037056040508E-33));
#1287=DIRECTION('',(-1.,3.57697607802147E-17,1.83721315951819E-16));
#1288=DIRECTION('',(3.57697607802147E-17,1.,-1.46037056040508E-33));
#1289=DIRECTION('',(5.46552446137428E-17,-1.,-2.41705771710187E-17));
#1290=DIRECTION('',(-1.11022302462516E-16,-2.41705771710187E-17,1.));
#1291=CARTESIAN_POINT('',(0.,0.,0.));
#1292=CARTESIAN_POINT('',(-3.4199,3.925,4.04999993039108));
#1293=CARTESIAN_POINT('',(-3.4199,-3.775,3.89999993039108));
#1294=CARTESIAN_POINT('',(-3.41995,-3.79229161646579,4.04899993039108));
#1295=CARTESIAN_POINT('',(-3.4199,-3.775,4.04999993039108));
#1296=CARTESIAN_POINT('',(-3.4199,3.,4.04899993039108));
#1297=CARTESIAN_POINT('',(-3.41995,3.7922916164658,4.04899993039108));
#1298=CARTESIAN_POINT('',(-3.4199,3.775,3.89999993039108));
#1299=CARTESIAN_POINT('',(-3.4199,3.775,4.04999993039108));
#1300=CARTESIAN_POINT('',(-3.4199,3.925,4.04999993039108));
#1301=CARTESIAN_POINT('',(-3.0199,3.925,0.59999993039108));
#1302=CARTESIAN_POINT('',(-3.41227981908814,-8.67361737988404E-16,0.522294862523181));
#1303=CARTESIAN_POINT('',(-3.41227981908814,-3.925,0.522294862523181));
#1304=CARTESIAN_POINT('',(-3.41227981908814,3.925,0.522294862523181));
#1305=CARTESIAN_POINT('',(-3.0199,-3.925,0.59999993039108));
#1306=CARTESIAN_POINT('',(-3.0199,-3.925,0.19999993039108));
#1307=CARTESIAN_POINT('',(-3.0199,3.925,0.19999993039108));
#1308=CARTESIAN_POINT('',(-3.0199,3.925,0.19999993039108));
#1309=CARTESIAN_POINT('',(-3.0199,3.925,0.59999993039108));
#1310=CARTESIAN_POINT('',(-3.5699,-3.775,3.89999993039108));
#1311=CARTESIAN_POINT('',(-3.5699,-3.925,3.89999993039108));
#1312=CARTESIAN_POINT('',(-3.5699,-3.925,3.89999993039108));
#1313=CARTESIAN_POINT('',(-3.41995,-3.925,3.89999993039108));
#1314=CARTESIAN_POINT('',(-3.42,-3.925,3.89999993039108));
#1315=CARTESIAN_POINT('',(-3.42,-3.925,3.97281086620399));
#1316=CARTESIAN_POINT('',(-3.42,-3.86612347424302,4.0404316608096));
#1317=CARTESIAN_POINT('',(-3.42,-3.79229161646579,4.04899993039108));
#1318=CARTESIAN_POINT('',(-3.5699,-3.775,4.04999993039108));
#1319=CARTESIAN_POINT('',(-3.5699,-3.775,4.04999993039108));
#1320=CARTESIAN_POINT('',(-3.5699,-3.775,3.89999993039108));
#1321=CARTESIAN_POINT('',(-3.5699,3.775,3.89999993039108));
#1322=CARTESIAN_POINT('',(-3.42,3.7922916164658,4.04899993039108));
#1323=CARTESIAN_POINT('',(-3.42,3.86461714603993,4.04060647188046));
#1324=CARTESIAN_POINT('',(-3.42,3.925,3.97432730399244));
#1325=CARTESIAN_POINT('',(-3.42,3.925,3.89999993039108));
#1326=CARTESIAN_POINT('',(-3.41995,3.925,3.89999993039108));
#1327=CARTESIAN_POINT('',(-3.5699,3.925,3.89999993039108));
#1328=CARTESIAN_POINT('',(-3.5699,3.925,3.89999993039108));
#1329=CARTESIAN_POINT('',(-3.5699,3.775,3.89999993039108));
#1330=CARTESIAN_POINT('',(-3.5699,3.775,4.04999993039108));
#1331=CARTESIAN_POINT('',(-3.5699,3.775,4.04999993039108));
#1332=CARTESIAN_POINT('',(-2.8699,3.775,0.0499999303910799));
#1333=CARTESIAN_POINT('',(-2.8699,3.775,0.19999993039108));
#1334=CARTESIAN_POINT('',(-2.8699,3.925,0.19999993039108));
#1335=CARTESIAN_POINT('',(-2.7199,3.775,0.19999993039108));
#1336=CARTESIAN_POINT('',(-2.7199,3.775,0.0499999303910799));
#1337=CARTESIAN_POINT('',(-2.7199,3.775,0.0499999303910799));
#1338=CARTESIAN_POINT('',(-2.8699,3.775,0.0499999303910799));
#1339=CARTESIAN_POINT('',(-2.8699,3.925,0.0499999303910799));
#1340=CARTESIAN_POINT('',(-2.8699,3.925,0.0499999303910799));
#1341=CARTESIAN_POINT('',(-2.8699,-3.775,0.0499999303910799));
#1342=CARTESIAN_POINT('',(-2.8699,-3.775,0.19999993039108));
#1343=CARTESIAN_POINT('',(-2.7199,-3.775,0.19999993039108));
#1344=CARTESIAN_POINT('',(-2.8699,-3.925,0.19999993039108));
#1345=CARTESIAN_POINT('',(-2.8699,-3.925,4.04999993039108));
#1346=CARTESIAN_POINT('',(-2.8699,-3.925,0.0499999303910799));
#1347=CARTESIAN_POINT('',(-2.8699,-3.775,0.0499999303910799));
#1348=CARTESIAN_POINT('',(-2.7199,-3.775,0.0499999303910799));
#1349=CARTESIAN_POINT('',(-2.7199,-3.775,0.0499999303910799));
#1350=CARTESIAN_POINT('',(-3.5699,3.925,0.19999993039108));
#1351=CARTESIAN_POINT('',(-3.5699,-3.925,0.19999993039108));
#1352=CARTESIAN_POINT('',(-2.7199,3.925,0.19999993039108));
#1353=CARTESIAN_POINT('',(-3.5699,3.925,0.19999993039108));
#1354=CARTESIAN_POINT('',(-3.5699,3.925,0.0499999303910799));
#1355=CARTESIAN_POINT('',(-2.7199,3.925,0.0499999303910799));
#1356=CARTESIAN_POINT('',(-3.5699,-3.925,0.0499999303910799));
#1357=CARTESIAN_POINT('',(-3.0199,-3.925,0.0499999303910799));
#1358=CARTESIAN_POINT('',(-3.0199,3.925,0.0499999303910799));
#1359=CARTESIAN_POINT('',(-3.0199,3.925,0.0499999303910799));
#1360=CARTESIAN_POINT('',(-3.5699,3.925,0.0499999303910799));
#1361=CARTESIAN_POINT('',(-3.0199,3.925,0.59999993039108));
#1362=CARTESIAN_POINT('',(-3.0199,-3.925,0.59999993039108));
#1363=CARTESIAN_POINT('',(-3.5699,-3.925,0.59999993039108));
#1364=CARTESIAN_POINT('',(-3.5699,3.925,0.59999993039108));
#1365=CARTESIAN_POINT('',(-3.5699,3.925,0.59999993039108));
#1366=CARTESIAN_POINT('',(-3.0199,3.925,0.59999993039108));
#1367=CARTESIAN_POINT('',(-3.5699,3.925,4.04999993039108));
#1368=CARTESIAN_POINT('',(-3.5699,3.925,4.04999993039108));
#1369=CARTESIAN_POINT('',(-3.5699,3.925,4.04999993039108));
#1370=CARTESIAN_POINT('',(-3.5699,-3.925,4.04999993039108));
#1371=CARTESIAN_POINT('',(-3.5699,3.925,4.04999993039108));
#1372=CARTESIAN_POINT('',(-2.7199,3.925,0.0499999303910799));
#1373=CARTESIAN_POINT('',(-2.18057187252606,-3.925,0.10648777458959));
#1374=CARTESIAN_POINT('',(-2.18057187252606,-3.925,0.10648777458959));
#1375=CARTESIAN_POINT('',(-2.31989999999997,-3.925,1.39899993039108));
#1376=CARTESIAN_POINT('',(-2.18057187252606,3.925,0.10648777458959));
#1377=CARTESIAN_POINT('',(-2.31989999999997,3.925,1.39899993039108));
#1378=CARTESIAN_POINT('',(-2.3199,-3.925,1.39899993039108));
#1379=CARTESIAN_POINT('',(-3.42,3.925,4.04899993039108));
#1380=CARTESIAN_POINT('',(3.42,3.925,4.04899993039108));
#1381=CARTESIAN_POINT('',(3.42,3.925,4.04899993039108));
#1382=CARTESIAN_POINT('',(3.41995,3.925,3.89999993039108));
#1383=CARTESIAN_POINT('',(3.5699,3.925,3.89999993039108));
#1384=CARTESIAN_POINT('',(3.5699,3.925,3.89999993039108));
#1385=CARTESIAN_POINT('',(3.5699,3.925,4.04999993039108));
#1386=CARTESIAN_POINT('',(3.5699,3.925,0.59999993039108));
#1387=CARTESIAN_POINT('',(3.0199,3.925,0.59999993039108));
#1388=CARTESIAN_POINT('',(3.0199,3.925,0.04999993039108));
#1389=CARTESIAN_POINT('',(3.5699,3.925,0.0499999303910799));
#1390=CARTESIAN_POINT('',(2.8699,3.925,0.0499999303910801));
#1391=CARTESIAN_POINT('',(2.8699,3.925,4.04999993039108));
#1392=CARTESIAN_POINT('',(2.8699,3.925,0.19999993039108));
#1393=CARTESIAN_POINT('',(3.5699,3.925,0.19999993039108));
#1394=CARTESIAN_POINT('',(3.0199,3.925,0.19999993039108));
#1395=CARTESIAN_POINT('',(3.0199,3.925,0.59999993039108));
#1396=CARTESIAN_POINT('',(3.41227981908814,3.925,0.522294862523181));
#1397=CARTESIAN_POINT('',(2.18057187252606,3.92499999999999,0.10648777458959));
#1398=CARTESIAN_POINT('',(2.31989999999997,3.925,1.39899993039108));
#1399=CARTESIAN_POINT('',(-3.42,3.925,1.39899993039108));
#1400=CARTESIAN_POINT('',(-3.42,3.925,4.04899993039108));
#1401=CARTESIAN_POINT('',(-3.42,3.925,4.04899993039108));
#1402=CARTESIAN_POINT('',(-3.42,3.925,4.04899993039108));
#1403=CARTESIAN_POINT('',(3.42,-3.925,4.04899993039108));
#1404=CARTESIAN_POINT('',(3.42,-3.925,1.39899993039108));
#1405=CARTESIAN_POINT('',(2.31989999999997,-3.925,1.39899993039108));
#1406=CARTESIAN_POINT('',(2.18057187252606,-3.92500000000001,0.10648777458959));
#1407=CARTESIAN_POINT('',(3.41227981908814,-3.925,0.522294862523182));
#1408=CARTESIAN_POINT('',(3.0199,-3.925,0.59999993039108));
#1409=CARTESIAN_POINT('',(3.0199,-3.925,0.19999993039108));
#1410=CARTESIAN_POINT('',(3.5699,-3.925,0.19999993039108));
#1411=CARTESIAN_POINT('',(2.8699,-3.925,0.19999993039108));
#1412=CARTESIAN_POINT('',(2.8699,-3.925,0.0499999303910801));
#1413=CARTESIAN_POINT('',(2.8699,-3.925,0.0499999303910801));
#1414=CARTESIAN_POINT('',(3.5699,-3.925,0.0499999303910799));
#1415=CARTESIAN_POINT('',(3.0199,-3.925,0.04999993039108));
#1416=CARTESIAN_POINT('',(3.0199,-3.925,0.59999993039108));
#1417=CARTESIAN_POINT('',(3.5699,-3.925,0.59999993039108));
#1418=CARTESIAN_POINT('',(3.5699,-3.925,4.04999993039108));
#1419=CARTESIAN_POINT('',(3.5699,-3.925,3.89999993039108));
#1420=CARTESIAN_POINT('',(3.5699,-3.925,3.89999993039108));
#1421=CARTESIAN_POINT('',(3.41995,-3.925,3.89999993039108));
#1422=CARTESIAN_POINT('',(3.42,-3.925,4.04899993039108));
#1423=CARTESIAN_POINT('',(3.42,-3.925,4.04899993039108));
#1424=CARTESIAN_POINT('',(3.42,-3.925,4.04899993039108));
#1425=CARTESIAN_POINT('',(-3.42,-3.925,4.04899993039108));
#1426=CARTESIAN_POINT('',(-3.42,-3.925,4.04899993039108));
#1427=CARTESIAN_POINT('',(0.,-1.08118261604965E-15,1.39899993039108));
#1428=CARTESIAN_POINT('',(2.3199,3.92499999999999,1.39899993039108));
#1429=CARTESIAN_POINT('',(-3.42,-3.925,4.04899993039108));
#1430=CARTESIAN_POINT('',(-3.42,-3.925,4.04899993039108));
#1431=CARTESIAN_POINT('',(-3.42,-3.925,4.04899993039108));
#1432=CARTESIAN_POINT('',(-3.42,-3.925,4.04899993039108));
#1433=CARTESIAN_POINT('',(3.42,3.925,4.04899993039108));
#1434=CARTESIAN_POINT('',(3.42,-3.79229161646579,4.04899993039108));
#1435=CARTESIAN_POINT('',(3.42,-3.86461714603993,4.04060647188047));
#1436=CARTESIAN_POINT('',(3.42,-3.925,3.97432730399243));
#1437=CARTESIAN_POINT('',(3.42,-3.925,3.89999993039108));
#1438=CARTESIAN_POINT('',(3.41995,-3.79229161646579,4.04899993039108));
#1439=CARTESIAN_POINT('',(3.42,3.925,4.04899993039108));
#1440=CARTESIAN_POINT('',(3.42,3.925,4.04899993039108));
#1441=CARTESIAN_POINT('',(3.42,3.925,3.89999993039108));
#1442=CARTESIAN_POINT('',(3.42,3.925,3.97281086620399));
#1443=CARTESIAN_POINT('',(3.42,3.86612347424303,4.0404316608096));
#1444=CARTESIAN_POINT('',(3.42,3.7922916164658,4.04899993039108));
#1445=CARTESIAN_POINT('',(3.41995,3.7922916164658,4.04899993039108));
#1446=CARTESIAN_POINT('',(3.42,3.925,4.04899993039108));
#1447=CARTESIAN_POINT('',(0.,-1.08118261604965E-15,4.04899993039108));
#1448=CARTESIAN_POINT('',(-1.25,2.75,4.04899993039108));
#1449=CARTESIAN_POINT('',(-1.25,2.75,4.04899993039108));
#1450=CARTESIAN_POINT('',(1.25,2.75,4.04899993039108));
#1451=CARTESIAN_POINT('',(1.25,2.75,4.04899993039108));
#1452=CARTESIAN_POINT('',(1.25,-2.75,4.04899993039108));
#1453=CARTESIAN_POINT('',(1.25,-2.75,4.04899993039108));
#1454=CARTESIAN_POINT('',(-1.25,-2.75,4.04899993039108));
#1455=CARTESIAN_POINT('',(-1.25,-2.75,4.04899993039108));
#1456=CARTESIAN_POINT('',(3.4199,-3.,4.04899993039108));
#1457=CARTESIAN_POINT('',(-4.40688743143751E-21,-1.08118367922422E-15,4.04909993039108));
#1458=CARTESIAN_POINT('',(1.25,-2.75,4.04909993039108));
#1459=CARTESIAN_POINT('',(1.25,-2.75,4.04909993039108));
#1460=CARTESIAN_POINT('',(-1.25,-2.75,4.04909993039108));
#1461=CARTESIAN_POINT('',(1.25,2.75,4.04909993039108));
#1462=CARTESIAN_POINT('',(1.25,2.75,4.04909993039108));
#1463=CARTESIAN_POINT('',(-1.25,2.75,4.04909993039108));
#1464=CARTESIAN_POINT('',(-1.25,2.75,4.04909993039108));
#1465=CARTESIAN_POINT('',(-1.25,-2.75,4.04909993039108));
#1466=CARTESIAN_POINT('',(1.25,2.75,4.04909993039108));
#1467=CARTESIAN_POINT('',(1.25,2.75,4.04909993039108));
#1468=CARTESIAN_POINT('',(1.25,-2.75,4.04909993039108));
#1469=CARTESIAN_POINT('',(-1.25,2.75,4.04909993039108));
#1470=CARTESIAN_POINT('',(-1.25,2.75,4.04909993039108));
#1471=CARTESIAN_POINT('',(-1.25,-2.75,4.04909993039108));
#1472=CARTESIAN_POINT('',(-1.25,-2.75,4.04909993039108));
#1473=CARTESIAN_POINT('',(1.25,-2.75,4.04909993039108));
#1474=CARTESIAN_POINT('',(3.4199,-3.925,4.04999993039108));
#1475=CARTESIAN_POINT('',(3.4199,3.775,3.89999993039108));
#1476=CARTESIAN_POINT('',(3.4199,3.775,4.04999993039108));
#1477=CARTESIAN_POINT('',(3.4199,-3.775,3.89999993039108));
#1478=CARTESIAN_POINT('',(3.4199,-3.775,4.04999993039108));
#1479=CARTESIAN_POINT('',(3.4199,-3.925,4.04999993039108));
#1480=CARTESIAN_POINT('',(3.0199,-3.925,0.59999993039108));
#1481=CARTESIAN_POINT('',(3.41227981908814,-8.10092736183517E-16,0.522294862523181));
#1482=CARTESIAN_POINT('',(3.0199,-3.925,0.19999993039108));
#1483=CARTESIAN_POINT('',(3.5699,3.775,3.89999993039108));
#1484=CARTESIAN_POINT('',(3.5699,3.775,4.04999993039108));
#1485=CARTESIAN_POINT('',(3.5699,3.775,4.04999993039108));
#1486=CARTESIAN_POINT('',(3.5699,3.775,3.89999993039108));
#1487=CARTESIAN_POINT('',(3.5699,-3.775,3.89999993039108));
#1488=CARTESIAN_POINT('',(3.5699,-3.775,3.89999993039108));
#1489=CARTESIAN_POINT('',(3.5699,-3.775,4.04999993039108));
#1490=CARTESIAN_POINT('',(3.5699,-3.775,4.04999993039108));
#1491=CARTESIAN_POINT('',(2.8699,-3.775,0.0499999303910801));
#1492=CARTESIAN_POINT('',(2.8699,-3.775,0.19999993039108));
#1493=CARTESIAN_POINT('',(2.7199,-3.775,0.19999993039108));
#1494=CARTESIAN_POINT('',(2.7199,-3.775,0.0499999303910801));
#1495=CARTESIAN_POINT('',(2.7199,-3.775,0.0499999303910801));
#1496=CARTESIAN_POINT('',(2.8699,-3.775,0.0499999303910801));
#1497=CARTESIAN_POINT('',(2.8699,3.775,0.0499999303910801));
#1498=CARTESIAN_POINT('',(2.8699,3.775,0.19999993039108));
#1499=CARTESIAN_POINT('',(2.7199,3.775,0.19999993039108));
#1500=CARTESIAN_POINT('',(2.8699,3.775,0.0499999303910801));
#1501=CARTESIAN_POINT('',(2.7199,3.775,0.0499999303910801));
#1502=CARTESIAN_POINT('',(2.7199,3.775,0.0499999303910801));
#1503=CARTESIAN_POINT('',(3.5699,-3.925,0.19999993039108));
#1504=CARTESIAN_POINT('',(2.7199,-3.925,0.19999993039108));
#1505=CARTESIAN_POINT('',(3.5699,-3.925,0.0499999303910799));
#1506=CARTESIAN_POINT('',(2.7199,-3.925,0.0499999303910801));
#1507=CARTESIAN_POINT('',(3.0199,-3.925,0.04999993039108));
#1508=CARTESIAN_POINT('',(3.0199,-3.925,0.59999993039108));
#1509=CARTESIAN_POINT('',(3.5699,-3.925,0.59999993039108));
#1510=CARTESIAN_POINT('',(3.5699,-3.925,4.04999993039108));
#1511=CARTESIAN_POINT('',(3.5699,-3.925,4.04999993039108));
#1512=CARTESIAN_POINT('',(3.5699,-3.925,4.04999993039108));
#1513=CARTESIAN_POINT('',(2.7199,-3.925,0.0499999303910801));
#1514=CARTESIAN_POINT('',(2.18057187252606,3.92499999999999,0.10648777458959));
#1515=MECHANICAL_DESIGN_GEOMETRIC_PRESENTATION_REPRESENTATION('',(#695,
#696,#697,#698,#699,#700,#701,#702,#703,#704,#705,#706,#707,#708,#709,#710,
#711,#712,#713,#714,#715,#716,#717,#718,#719,#720,#721,#722,#723,#724,#725,
#726,#727,#728,#729,#730,#731,#732,#733),#1516);
#1516=(
GEOMETRIC_REPRESENTATION_CONTEXT(3)
GLOBAL_UNCERTAINTY_ASSIGNED_CONTEXT((#1517))
GLOBAL_UNIT_ASSIGNED_CONTEXT((#1520,#1519,#1518))
REPRESENTATION_CONTEXT('CeraLink_LPJ_6097_Z03_Ind',
'TOP_LEVEL_ASSEMBLY_PART')
);
#1517=UNCERTAINTY_MEASURE_WITH_UNIT(LENGTH_MEASURE(0.005),#1520,
'DISTANCE_ACCURACY_VALUE','Maximum Tolerance applied to model');
#1518=(
NAMED_UNIT(*)
SI_UNIT($,.STERADIAN.)
SOLID_ANGLE_UNIT()
);
#1519=(
NAMED_UNIT(*)
PLANE_ANGLE_UNIT()
SI_UNIT($,.RADIAN.)
);
#1520=(
LENGTH_UNIT()
NAMED_UNIT(*)
SI_UNIT(.MILLI.,.METRE.)
);
#1521=PRODUCT_DEFINITION_SHAPE('','',#1522);
#1522=PRODUCT_DEFINITION('','',#1524,#1523);
#1523=PRODUCT_DEFINITION_CONTEXT('',#1530,'design');
#1524=PRODUCT_DEFINITION_FORMATION_WITH_SPECIFIED_SOURCE('','',#1526,
 .NOT_KNOWN.);
#1525=PRODUCT_RELATED_PRODUCT_CATEGORY('','',(#1526));
#1526=PRODUCT('CeraLink_LPJ_6097_Z03_Ind','CeraLink_LPJ_6097_Z03_Ind',
'CeraLink_LPJ_6097_Z03_Ind',(#1528));
#1527=PRODUCT_CATEGORY('','');
#1528=PRODUCT_CONTEXT('',#1530,'mechanical');
#1529=APPLICATION_PROTOCOL_DEFINITION('international standard',
'automotive_design',2010,#1530);
#1530=APPLICATION_CONTEXT(
'core data for automotive mechanical design processes');
ENDSEC;
END-ISO-10303-21;
