M48
; DRILL file KiCad 10.0.3 date 2026-07-17T09:52:14
; FORMAT={-:-/ absolute / metric / decimal}
; #@! TF.CreationDate,2026-07-17T09:52:14-07:00
; #@! TF.GenerationSoftware,Kicad,Pcbnew,10.0.3
; #@! TF.FileFunction,MixedPlating,1,4
FMAT,2
METRIC
; #@! TA.AperFunction,Plated,PTH,ViaDrill
T1C0.300
; #@! TA.AperFunction,Plated,PTH,ComponentDrill
T2C0.850
; #@! TA.AperFunction,Plated,PTH,ComponentDrill
T3C1.400
; #@! TA.AperFunction,Plated,PTH,ComponentDrill
T4C6.400
; #@! TA.AperFunction,NonPlated,NPTH,ComponentDrill
T5C1.600
%
G90
G05
T1
X1.0Y-74.0
X1.0Y-75.0
X1.0Y-76.0
X1.0Y-77.0
X1.0Y-78.0
X1.0Y-79.0
X1.0Y-83.0
X1.0Y-84.0
X2.0Y-74.0
X2.0Y-75.0
X2.0Y-76.0
X2.0Y-77.0
X2.0Y-85.0
X3.0Y-74.0
X3.0Y-75.0
X3.0Y-76.0
X3.0Y-86.0
X4.0Y-74.0
X4.0Y-75.0
X4.0Y-76.0
X4.0Y-86.0
X5.0Y-74.0
X5.0Y-75.0
X6.0Y-74.0
X6.0Y-75.0
X7.0Y-74.0
X7.0Y-75.0
X8.0Y-74.0
X8.0Y-75.0
X8.0Y-76.0
X8.0Y-86.0
X9.0Y-74.0
X9.0Y-75.0
X9.0Y-76.0
X9.0Y-86.0
X10.0Y-75.0
X10.0Y-76.0
X10.0Y-77.0
X10.0Y-85.0
X10.0Y-86.0
X11.0Y-76.0
X11.0Y-77.0
X11.0Y-78.0
X11.0Y-79.0
X11.0Y-83.0
X11.0Y-84.0
X11.0Y-85.0
X11.0Y-86.0
X12.0Y-77.0
X12.0Y-78.0
X12.0Y-79.0
X12.0Y-80.0
X12.0Y-81.0
X12.0Y-82.0
X12.0Y-83.0
X12.0Y-84.0
X12.0Y-85.0
X12.0Y-86.0
X13.0Y-37.0
X13.0Y-43.0
X13.0Y-78.0
X13.0Y-79.0
X13.0Y-80.0
X13.0Y-81.0
X13.0Y-82.0
X13.0Y-83.0
X13.0Y-84.0
X13.0Y-85.0
X13.0Y-86.0
X14.0Y-50.0
X14.0Y-79.0
X14.0Y-80.0
X14.0Y-81.0
X14.0Y-82.0
X14.0Y-83.0
X14.0Y-84.0
X14.0Y-85.0
X14.0Y-86.0
X15.0Y-80.0
X15.0Y-81.0
X15.0Y-82.0
X15.0Y-83.0
X15.0Y-84.0
X15.0Y-85.0
X15.0Y-86.0
X16.0Y-81.0
X16.0Y-82.0
X16.0Y-83.0
X16.0Y-84.0
X16.0Y-85.0
X16.0Y-86.0
X42.0Y-27.0
X42.0Y-28.0
X42.0Y-29.0
X42.0Y-30.0
X42.0Y-31.0
X42.0Y-32.0
X42.0Y-33.0
X42.0Y-34.0
X42.0Y-35.0
X42.0Y-36.0
X42.0Y-37.0
X42.0Y-38.0
X42.0Y-39.0
X42.0Y-40.0
X42.0Y-41.0
X42.0Y-42.0
X42.0Y-43.0
X42.0Y-55.0
X42.0Y-56.0
X42.0Y-57.0
X42.0Y-58.0
X42.0Y-59.0
X42.0Y-60.0
X42.0Y-61.0
X42.0Y-62.0
X42.0Y-63.0
X42.0Y-64.0
X42.0Y-65.0
X42.0Y-66.0
X42.0Y-67.0
X42.0Y-68.0
X42.0Y-69.0
X42.0Y-70.0
X42.0Y-71.0
X43.0Y-1.0
X43.0Y-2.0
X43.0Y-3.0
X43.0Y-4.0
X43.0Y-5.0
X43.0Y-6.0
X43.0Y-7.0
X43.0Y-8.0
X43.0Y-9.0
X43.0Y-10.0
X43.0Y-11.0
X43.0Y-12.0
X43.0Y-13.0
X43.0Y-14.0
X43.0Y-15.0
X43.0Y-27.0
X43.0Y-28.0
X43.0Y-29.0
X43.0Y-30.0
X43.0Y-31.0
X43.0Y-32.0
X43.0Y-33.0
X43.0Y-34.0
X43.0Y-35.0
X43.0Y-36.0
X43.0Y-37.0
X43.0Y-38.0
X43.0Y-39.0
X43.0Y-40.0
X43.0Y-41.0
X43.0Y-42.0
X43.0Y-43.0
X43.0Y-55.0
X43.0Y-56.0
X43.0Y-57.0
X43.0Y-58.0
X43.0Y-59.0
X43.0Y-60.0
X43.0Y-61.0
X43.0Y-62.0
X43.0Y-63.0
X43.0Y-64.0
X43.0Y-65.0
X43.0Y-66.0
X43.0Y-67.0
X43.0Y-68.0
X43.0Y-69.0
X43.0Y-70.0
X43.0Y-71.0
X44.0Y-1.0
X44.0Y-2.0
X44.0Y-3.0
X44.0Y-4.0
X44.0Y-5.0
X44.0Y-6.0
X44.0Y-7.0
X44.0Y-8.0
X44.0Y-9.0
X44.0Y-10.0
X44.0Y-11.0
X44.0Y-12.0
X44.0Y-13.0
X44.0Y-14.0
X44.0Y-15.0
X44.0Y-27.0
X44.0Y-28.0
X44.0Y-29.0
X44.0Y-30.0
X44.0Y-31.0
X44.0Y-32.0
X44.0Y-33.0
X44.0Y-34.0
X44.0Y-35.0
X44.0Y-36.0
X44.0Y-37.0
X44.0Y-38.0
X44.0Y-39.0
X44.0Y-40.0
X44.0Y-41.0
X44.0Y-42.0
X44.0Y-43.0
X44.0Y-55.0
X44.0Y-56.0
X44.0Y-57.0
X44.0Y-58.0
X44.0Y-59.0
X44.0Y-60.0
X44.0Y-61.0
X44.0Y-62.0
X44.0Y-63.0
X44.0Y-64.0
X44.0Y-65.0
X44.0Y-66.0
X44.0Y-67.0
X44.0Y-68.0
X44.0Y-69.0
X44.0Y-70.0
X44.0Y-71.0
X45.0Y-1.0
X45.0Y-2.0
X45.0Y-3.0
X45.0Y-4.0
X45.0Y-5.0
X45.0Y-9.0
X45.0Y-10.0
X45.0Y-11.0
X45.0Y-12.0
X45.0Y-13.0
X45.0Y-14.0
X45.0Y-15.0
X45.0Y-27.0
X45.0Y-28.0
X45.0Y-29.0
X45.0Y-30.0
X45.0Y-31.0
X45.0Y-32.0
X45.0Y-33.0
X45.0Y-37.0
X45.0Y-38.0
X45.0Y-39.0
X45.0Y-40.0
X45.0Y-41.0
X45.0Y-42.0
X45.0Y-43.0
X45.0Y-55.0
X45.0Y-56.0
X45.0Y-57.0
X45.0Y-58.0
X45.0Y-59.0
X45.0Y-60.0
X45.0Y-61.0
X45.0Y-65.0
X45.0Y-66.0
X45.0Y-67.0
X45.0Y-68.0
X45.0Y-69.0
X45.0Y-70.0
X45.0Y-71.0
X46.0Y-1.0
X46.0Y-2.0
X46.0Y-3.0
X46.0Y-11.0
X46.0Y-12.0
X46.0Y-13.0
X46.0Y-14.0
X46.0Y-15.0
X46.0Y-27.0
X46.0Y-28.0
X46.0Y-29.0
X46.0Y-30.0
X46.0Y-31.0
X46.0Y-39.0
X46.0Y-40.0
X46.0Y-41.0
X46.0Y-42.0
X46.0Y-43.0
X46.0Y-55.0
X46.0Y-56.0
X46.0Y-57.0
X46.0Y-58.0
X46.0Y-59.0
X46.0Y-67.0
X46.0Y-68.0
X46.0Y-69.0
X46.0Y-70.0
X46.0Y-71.0
X47.0Y-1.0
X47.0Y-2.0
X47.0Y-12.0
X47.0Y-13.0
X47.0Y-14.0
X47.0Y-15.0
X47.0Y-27.0
X47.0Y-28.0
X47.0Y-29.0
X47.0Y-30.0
X47.0Y-40.0
X47.0Y-41.0
X47.0Y-42.0
X47.0Y-43.0
X47.0Y-55.0
X47.0Y-56.0
X47.0Y-57.0
X47.0Y-58.0
X47.0Y-68.0
X47.0Y-69.0
X47.0Y-70.0
X47.0Y-71.0
X48.0Y-1.0
X48.0Y-2.0
X48.0Y-12.0
X48.0Y-13.0
X48.0Y-14.0
X48.0Y-15.0
X48.0Y-27.0
X48.0Y-28.0
X48.0Y-29.0
X48.0Y-30.0
X48.0Y-40.0
X48.0Y-41.0
X48.0Y-42.0
X48.0Y-43.0
X48.0Y-55.0
X48.0Y-56.0
X48.0Y-57.0
X48.0Y-58.0
X48.0Y-68.0
X48.0Y-69.0
X48.0Y-70.0
X48.0Y-71.0
X49.0Y-1.0
X49.0Y-13.0
X49.0Y-14.0
X49.0Y-15.0
X49.0Y-27.0
X49.0Y-28.0
X49.0Y-29.0
X49.0Y-41.0
X49.0Y-42.0
X49.0Y-43.0
X49.0Y-55.0
X49.0Y-56.0
X49.0Y-57.0
X49.0Y-69.0
X49.0Y-70.0
X49.0Y-71.0
X50.0Y-1.0
X50.0Y-13.0
X50.0Y-14.0
X50.0Y-15.0
X50.0Y-27.0
X50.0Y-28.0
X50.0Y-29.0
X50.0Y-41.0
X50.0Y-42.0
X50.0Y-43.0
X50.0Y-55.0
X50.0Y-56.0
X50.0Y-57.0
X50.0Y-69.0
X50.0Y-70.0
X50.0Y-71.0
X51.0Y-1.0
X51.0Y-13.0
X51.0Y-14.0
X51.0Y-15.0
X51.0Y-27.0
X51.0Y-28.0
X51.0Y-29.0
X51.0Y-41.0
X51.0Y-42.0
X51.0Y-43.0
X51.0Y-55.0
X51.0Y-56.0
X51.0Y-57.0
X51.0Y-69.0
X51.0Y-70.0
X51.0Y-71.0
X52.0Y-1.0
X52.0Y-2.0
X52.0Y-12.0
X52.0Y-13.0
X52.0Y-14.0
X52.0Y-15.0
X52.0Y-27.0
X52.0Y-28.0
X52.0Y-29.0
X52.0Y-30.0
X52.0Y-40.0
X52.0Y-41.0
X52.0Y-42.0
X52.0Y-43.0
X52.0Y-55.0
X52.0Y-56.0
X52.0Y-57.0
X52.0Y-58.0
X52.0Y-68.0
X52.0Y-69.0
X52.0Y-70.0
X52.0Y-71.0
X53.0Y-1.0
X53.0Y-2.0
X53.0Y-12.0
X53.0Y-13.0
X53.0Y-14.0
X53.0Y-15.0
X53.0Y-27.0
X53.0Y-28.0
X53.0Y-29.0
X53.0Y-30.0
X53.0Y-40.0
X53.0Y-41.0
X53.0Y-42.0
X53.0Y-43.0
X53.0Y-55.0
X53.0Y-56.0
X53.0Y-57.0
X53.0Y-58.0
X53.0Y-68.0
X53.0Y-69.0
X53.0Y-70.0
X53.0Y-71.0
X54.0Y-1.0
X54.0Y-2.0
X54.0Y-3.0
X54.0Y-11.0
X54.0Y-12.0
X54.0Y-13.0
X54.0Y-14.0
X54.0Y-15.0
X54.0Y-27.0
X54.0Y-28.0
X54.0Y-29.0
X54.0Y-30.0
X54.0Y-31.0
X54.0Y-39.0
X54.0Y-40.0
X54.0Y-41.0
X54.0Y-42.0
X54.0Y-43.0
X54.0Y-55.0
X54.0Y-56.0
X54.0Y-57.0
X54.0Y-58.0
X54.0Y-59.0
X54.0Y-67.0
X54.0Y-68.0
X54.0Y-69.0
X54.0Y-70.0
X54.0Y-71.0
X55.0Y-1.0
X55.0Y-2.0
X55.0Y-3.0
X55.0Y-4.0
X55.0Y-5.0
X55.0Y-9.0
X55.0Y-10.0
X55.0Y-11.0
X55.0Y-12.0
X55.0Y-13.0
X55.0Y-14.0
X55.0Y-15.0
X55.0Y-27.0
X55.0Y-28.0
X55.0Y-29.0
X55.0Y-30.0
X55.0Y-31.0
X55.0Y-32.0
X55.0Y-33.0
X55.0Y-37.0
X55.0Y-38.0
X55.0Y-39.0
X55.0Y-40.0
X55.0Y-41.0
X55.0Y-42.0
X55.0Y-43.0
X55.0Y-55.0
X55.0Y-56.0
X55.0Y-57.0
X55.0Y-58.0
X55.0Y-59.0
X55.0Y-60.0
X55.0Y-61.0
X55.0Y-65.0
X55.0Y-66.0
X55.0Y-67.0
X55.0Y-68.0
X55.0Y-69.0
X55.0Y-70.0
X55.0Y-71.0
X56.0Y-1.0
X56.0Y-2.0
X56.0Y-3.0
X56.0Y-4.0
X56.0Y-5.0
X56.0Y-6.0
X56.0Y-7.0
X56.0Y-8.0
X56.0Y-9.0
X56.0Y-10.0
X56.0Y-11.0
X56.0Y-12.0
X56.0Y-13.0
X56.0Y-14.0
X56.0Y-15.0
X56.0Y-27.0
X56.0Y-28.0
X56.0Y-29.0
X56.0Y-30.0
X56.0Y-31.0
X56.0Y-32.0
X56.0Y-33.0
X56.0Y-34.0
X56.0Y-35.0
X56.0Y-36.0
X56.0Y-37.0
X56.0Y-38.0
X56.0Y-39.0
X56.0Y-40.0
X56.0Y-41.0
X56.0Y-42.0
X56.0Y-43.0
X56.0Y-55.0
X56.0Y-56.0
X56.0Y-57.0
X56.0Y-58.0
X56.0Y-59.0
X56.0Y-60.0
X56.0Y-61.0
X56.0Y-62.0
X56.0Y-63.0
X56.0Y-64.0
X56.0Y-65.0
X56.0Y-66.0
X56.0Y-67.0
X56.0Y-68.0
X56.0Y-69.0
X56.0Y-70.0
X56.0Y-71.0
X57.0Y-1.0
X57.0Y-2.0
X57.0Y-3.0
X57.0Y-4.0
X57.0Y-5.0
X57.0Y-6.0
X57.0Y-7.0
X57.0Y-8.0
X57.0Y-9.0
X57.0Y-10.0
X57.0Y-11.0
X57.0Y-12.0
X57.0Y-13.0
X57.0Y-14.0
X57.0Y-15.0
X57.0Y-27.0
X57.0Y-28.0
X57.0Y-29.0
X57.0Y-30.0
X57.0Y-31.0
X57.0Y-32.0
X57.0Y-33.0
X57.0Y-34.0
X57.0Y-35.0
X57.0Y-36.0
X57.0Y-37.0
X57.0Y-38.0
X57.0Y-39.0
X57.0Y-40.0
X57.0Y-41.0
X57.0Y-42.0
X57.0Y-43.0
X57.0Y-55.0
X57.0Y-56.0
X57.0Y-57.0
X57.0Y-58.0
X57.0Y-59.0
X57.0Y-60.0
X57.0Y-61.0
X57.0Y-62.0
X57.0Y-63.0
X57.0Y-64.0
X57.0Y-65.0
X57.0Y-66.0
X57.0Y-67.0
X57.0Y-68.0
X57.0Y-69.0
X57.0Y-70.0
X57.0Y-71.0
X58.0Y-27.0
X58.0Y-28.0
X58.0Y-29.0
X58.0Y-30.0
X58.0Y-31.0
X58.0Y-32.0
X58.0Y-33.0
X58.0Y-34.0
X58.0Y-35.0
X58.0Y-36.0
X58.0Y-37.0
X58.0Y-38.0
X58.0Y-39.0
X58.0Y-40.0
X58.0Y-41.0
X58.0Y-42.0
X58.0Y-43.0
X58.0Y-55.0
X58.0Y-56.0
X58.0Y-57.0
X58.0Y-58.0
X58.0Y-59.0
X58.0Y-60.0
X58.0Y-61.0
X58.0Y-62.0
X58.0Y-63.0
X58.0Y-64.0
X58.0Y-65.0
X58.0Y-66.0
X58.0Y-67.0
X58.0Y-68.0
X58.0Y-69.0
X58.0Y-70.0
X58.0Y-71.0
X59.0Y-27.0
X59.0Y-28.0
X59.0Y-29.0
X59.0Y-30.0
X59.0Y-31.0
X59.0Y-32.0
X59.0Y-33.0
X59.0Y-34.0
X59.0Y-35.0
X59.0Y-36.0
X59.0Y-37.0
X59.0Y-38.0
X59.0Y-39.0
X59.0Y-40.0
X59.0Y-41.0
X59.0Y-42.0
X59.0Y-43.0
X59.0Y-55.0
X59.0Y-56.0
X59.0Y-57.0
X59.0Y-58.0
X59.0Y-59.0
X59.0Y-60.0
X59.0Y-61.0
X59.0Y-62.0
X59.0Y-63.0
X59.0Y-64.0
X59.0Y-65.0
X59.0Y-66.0
X59.0Y-67.0
X59.0Y-68.0
X59.0Y-69.0
X59.0Y-70.0
X59.0Y-71.0
X60.0Y-27.0
X60.0Y-28.0
X60.0Y-29.0
X60.0Y-30.0
X60.0Y-31.0
X60.0Y-32.0
X60.0Y-33.0
X60.0Y-34.0
X60.0Y-35.0
X60.0Y-36.0
X60.0Y-37.0
X60.0Y-38.0
X60.0Y-39.0
X60.0Y-40.0
X60.0Y-41.0
X60.0Y-42.0
X60.0Y-43.0
X60.0Y-55.0
X60.0Y-56.0
X60.0Y-57.0
X60.0Y-58.0
X60.0Y-59.0
X60.0Y-60.0
X60.0Y-61.0
X60.0Y-62.0
X60.0Y-63.0
X60.0Y-64.0
X60.0Y-65.0
X60.0Y-66.0
X60.0Y-67.0
X60.0Y-68.0
X60.0Y-69.0
X60.0Y-70.0
X60.0Y-71.0
X61.0Y-27.0
X61.0Y-28.0
X61.0Y-29.0
X61.0Y-30.0
X61.0Y-31.0
X61.0Y-32.0
X61.0Y-33.0
X61.0Y-34.0
X61.0Y-35.0
X61.0Y-36.0
X61.0Y-37.0
X61.0Y-38.0
X61.0Y-39.0
X61.0Y-40.0
X61.0Y-41.0
X61.0Y-42.0
X61.0Y-43.0
X61.0Y-55.0
X61.0Y-56.0
X61.0Y-57.0
X61.0Y-58.0
X61.0Y-59.0
X61.0Y-60.0
X61.0Y-61.0
X61.0Y-62.0
X61.0Y-63.0
X61.0Y-64.0
X61.0Y-65.0
X61.0Y-66.0
X61.0Y-67.0
X61.0Y-68.0
X61.0Y-69.0
X61.0Y-70.0
X61.0Y-71.0
X62.0Y-27.0
X62.0Y-28.0
X62.0Y-29.0
X62.0Y-30.0
X62.0Y-31.0
X62.0Y-32.0
X62.0Y-33.0
X62.0Y-34.0
X62.0Y-35.0
X62.0Y-36.0
X62.0Y-37.0
X62.0Y-38.0
X62.0Y-39.0
X62.0Y-40.0
X62.0Y-41.0
X62.0Y-42.0
X62.0Y-43.0
X62.0Y-55.0
X62.0Y-56.0
X62.0Y-57.0
X62.0Y-58.0
X62.0Y-59.0
X62.0Y-60.0
X62.0Y-61.0
X62.0Y-62.0
X62.0Y-63.0
X62.0Y-64.0
X62.0Y-65.0
X62.0Y-66.0
X62.0Y-67.0
X62.0Y-68.0
X62.0Y-69.0
X62.0Y-70.0
X62.0Y-71.0
X63.0Y-27.0
X63.0Y-28.0
X63.0Y-29.0
X63.0Y-30.0
X63.0Y-31.0
X63.0Y-32.0
X63.0Y-33.0
X63.0Y-34.0
X63.0Y-35.0
X63.0Y-36.0
X63.0Y-37.0
X63.0Y-38.0
X63.0Y-39.0
X63.0Y-40.0
X63.0Y-41.0
X63.0Y-42.0
X63.0Y-43.0
X63.0Y-55.0
X63.0Y-56.0
X63.0Y-57.0
X63.0Y-58.0
X63.0Y-59.0
X63.0Y-60.0
X63.0Y-61.0
X63.0Y-62.0
X63.0Y-63.0
X63.0Y-64.0
X63.0Y-65.0
X63.0Y-66.0
X63.0Y-67.0
X63.0Y-68.0
X63.0Y-69.0
X63.0Y-70.0
X64.0Y-27.0
X64.0Y-28.0
X64.0Y-29.0
X64.0Y-30.0
X64.0Y-31.0
X64.0Y-32.0
X64.0Y-33.0
X64.0Y-34.0
X64.0Y-35.0
X64.0Y-36.0
X64.0Y-37.0
X64.0Y-38.0
X64.0Y-39.0
X64.0Y-40.0
X64.0Y-41.0
X64.0Y-42.0
X64.0Y-43.0
X64.0Y-55.0
X64.0Y-56.0
X64.0Y-57.0
X64.0Y-58.0
X64.0Y-59.0
X64.0Y-60.0
X64.0Y-61.0
X64.0Y-62.0
X64.0Y-63.0
X64.0Y-64.0
X64.0Y-65.0
X64.0Y-66.0
X64.0Y-67.0
X64.0Y-68.0
X64.0Y-69.0
X64.0Y-70.0
X65.0Y-27.0
X65.0Y-28.0
X65.0Y-29.0
X65.0Y-30.0
X65.0Y-31.0
X65.0Y-32.0
X65.0Y-33.0
X65.0Y-34.0
X65.0Y-35.0
X65.0Y-36.0
X65.0Y-37.0
X65.0Y-38.0
X65.0Y-39.0
X65.0Y-40.0
X65.0Y-41.0
X65.0Y-42.0
X65.0Y-43.0
X65.0Y-55.0
X65.0Y-56.0
X65.0Y-57.0
X65.0Y-58.0
X65.0Y-59.0
X65.0Y-60.0
X65.0Y-61.0
X65.0Y-62.0
X65.0Y-63.0
X65.0Y-64.0
X65.0Y-65.0
X65.0Y-66.0
X65.0Y-67.0
X65.0Y-68.0
X65.0Y-69.0
X65.0Y-70.0
X66.0Y-27.0
X66.0Y-28.0
X66.0Y-29.0
X66.0Y-30.0
X66.0Y-31.0
X66.0Y-32.0
X66.0Y-33.0
X66.0Y-34.0
X66.0Y-35.0
X66.0Y-36.0
X66.0Y-37.0
X66.0Y-38.0
X66.0Y-39.0
X66.0Y-40.0
X66.0Y-41.0
X66.0Y-42.0
X66.0Y-43.0
X66.0Y-55.0
X66.0Y-56.0
X66.0Y-57.0
X66.0Y-58.0
X66.0Y-59.0
X66.0Y-60.0
X66.0Y-61.0
X66.0Y-62.0
X66.0Y-63.0
X66.0Y-64.0
X66.0Y-65.0
X66.0Y-66.0
X66.0Y-67.0
X66.0Y-68.0
X66.0Y-69.0
X66.0Y-70.0
X66.0Y-71.0
X67.0Y-27.0
X67.0Y-28.0
X67.0Y-29.0
X67.0Y-30.0
X67.0Y-31.0
X67.0Y-32.0
X67.0Y-33.0
X67.0Y-34.0
X67.0Y-35.0
X67.0Y-36.0
X67.0Y-37.0
X67.0Y-38.0
X67.0Y-39.0
X67.0Y-40.0
X67.0Y-41.0
X67.0Y-42.0
X67.0Y-43.0
X67.0Y-55.0
X67.0Y-56.0
X67.0Y-57.0
X67.0Y-58.0
X67.0Y-59.0
X67.0Y-60.0
X67.0Y-61.0
X67.0Y-62.0
X67.0Y-63.0
X67.0Y-64.0
X67.0Y-65.0
X67.0Y-66.0
X67.0Y-67.0
X67.0Y-68.0
X67.0Y-69.0
X67.0Y-70.0
X67.0Y-71.0
X68.0Y-27.0
X68.0Y-28.0
X68.0Y-29.0
X68.0Y-30.0
X68.0Y-31.0
X68.0Y-32.0
X68.0Y-33.0
X68.0Y-34.0
X68.0Y-35.0
X68.0Y-36.0
X68.0Y-37.0
X68.0Y-38.0
X68.0Y-39.0
X68.0Y-40.0
X68.0Y-41.0
X68.0Y-42.0
X68.0Y-43.0
X68.0Y-55.0
X68.0Y-56.0
X68.0Y-57.0
X68.0Y-58.0
X68.0Y-59.0
X68.0Y-60.0
X68.0Y-61.0
X68.0Y-62.0
X68.0Y-63.0
X68.0Y-64.0
X68.0Y-65.0
X68.0Y-66.0
X68.0Y-67.0
X68.0Y-68.0
X68.0Y-69.0
X68.0Y-70.0
X68.0Y-71.0
X69.0Y-27.0
X69.0Y-28.0
X69.0Y-29.0
X69.0Y-30.0
X69.0Y-31.0
X69.0Y-32.0
X69.0Y-33.0
X69.0Y-34.0
X69.0Y-35.0
X69.0Y-36.0
X69.0Y-37.0
X69.0Y-38.0
X69.0Y-39.0
X69.0Y-40.0
X69.0Y-41.0
X69.0Y-42.0
X69.0Y-43.0
X69.0Y-55.0
X69.0Y-56.0
X69.0Y-57.0
X69.0Y-58.0
X69.0Y-59.0
X69.0Y-60.0
X69.0Y-61.0
X69.0Y-62.0
X69.0Y-63.0
X69.0Y-64.0
X69.0Y-65.0
X69.0Y-66.0
X69.0Y-67.0
X69.0Y-68.0
X69.0Y-69.0
X69.0Y-70.0
X69.0Y-71.0
X70.0Y-27.0
X70.0Y-28.0
X70.0Y-29.0
X70.0Y-30.0
X70.0Y-31.0
X70.0Y-32.0
X70.0Y-33.0
X70.0Y-34.0
X70.0Y-35.0
X70.0Y-36.0
X70.0Y-37.0
X70.0Y-38.0
X70.0Y-39.0
X70.0Y-40.0
X70.0Y-41.0
X70.0Y-42.0
X70.0Y-43.0
X70.0Y-55.0
X70.0Y-56.0
X70.0Y-57.0
X70.0Y-58.0
X70.0Y-59.0
X70.0Y-60.0
X70.0Y-61.0
X70.0Y-62.0
X70.0Y-63.0
X70.0Y-64.0
X70.0Y-65.0
X70.0Y-66.0
X70.0Y-67.0
X70.0Y-68.0
X70.0Y-69.0
X70.0Y-70.0
X70.0Y-71.0
X71.0Y-27.0
X71.0Y-28.0
X71.0Y-29.0
X71.0Y-30.0
X71.0Y-31.0
X71.0Y-32.0
X71.0Y-33.0
X71.0Y-34.0
X71.0Y-35.0
X71.0Y-36.0
X71.0Y-37.0
X71.0Y-38.0
X71.0Y-39.0
X71.0Y-40.0
X71.0Y-41.0
X71.0Y-42.0
X71.0Y-43.0
X71.0Y-55.0
X71.0Y-56.0
X71.0Y-57.0
X71.0Y-58.0
X71.0Y-59.0
X71.0Y-60.0
X71.0Y-61.0
X71.0Y-62.0
X71.0Y-63.0
X71.0Y-64.0
X71.0Y-65.0
X71.0Y-66.0
X71.0Y-67.0
X71.0Y-68.0
X71.0Y-69.0
X71.0Y-70.0
X71.0Y-71.0
X72.0Y-27.0
X72.0Y-28.0
X72.0Y-29.0
X72.0Y-30.0
X72.0Y-31.0
X72.0Y-32.0
X72.0Y-33.0
X72.0Y-34.0
X72.0Y-35.0
X72.0Y-36.0
X72.0Y-37.0
X72.0Y-38.0
X72.0Y-39.0
X72.0Y-40.0
X72.0Y-41.0
X72.0Y-42.0
X72.0Y-43.0
X72.0Y-55.0
X72.0Y-56.0
X72.0Y-57.0
X72.0Y-58.0
X72.0Y-59.0
X72.0Y-60.0
X72.0Y-61.0
X72.0Y-62.0
X72.0Y-63.0
X72.0Y-64.0
X72.0Y-65.0
X72.0Y-66.0
X72.0Y-67.0
X72.0Y-68.0
X72.0Y-69.0
X72.0Y-70.0
X72.0Y-71.0
X73.0Y-27.0
X73.0Y-28.0
X73.0Y-29.0
X73.0Y-30.0
X73.0Y-31.0
X73.0Y-32.0
X73.0Y-33.0
X73.0Y-34.0
X73.0Y-35.0
X73.0Y-36.0
X73.0Y-37.0
X73.0Y-38.0
X73.0Y-39.0
X73.0Y-40.0
X73.0Y-41.0
X73.0Y-42.0
X73.0Y-43.0
X73.0Y-55.0
X73.0Y-56.0
X73.0Y-57.0
X73.0Y-58.0
X73.0Y-59.0
X73.0Y-60.0
X73.0Y-61.0
X73.0Y-62.0
X73.0Y-63.0
X73.0Y-64.0
X73.0Y-65.0
X73.0Y-66.0
X73.0Y-67.0
X73.0Y-68.0
X73.0Y-69.0
X73.0Y-70.0
X73.0Y-71.0
X74.0Y-27.0
X74.0Y-28.0
X74.0Y-29.0
X74.0Y-30.0
X74.0Y-31.0
X74.0Y-32.0
X74.0Y-33.0
X74.0Y-34.0
X74.0Y-35.0
X74.0Y-36.0
X74.0Y-37.0
X74.0Y-38.0
X74.0Y-39.0
X74.0Y-40.0
X74.0Y-41.0
X74.0Y-42.0
X74.0Y-43.0
X74.0Y-55.0
X74.0Y-56.0
X74.0Y-57.0
X74.0Y-58.0
X74.0Y-59.0
X74.0Y-60.0
X74.0Y-61.0
X74.0Y-62.0
X74.0Y-63.0
X74.0Y-64.0
X74.0Y-65.0
X74.0Y-66.0
X74.0Y-67.0
X74.0Y-68.0
X74.0Y-69.0
X74.0Y-70.0
X74.0Y-71.0
X75.0Y-27.0
X75.0Y-28.0
X75.0Y-29.0
X75.0Y-30.0
X75.0Y-31.0
X75.0Y-32.0
X75.0Y-33.0
X75.0Y-34.0
X75.0Y-35.0
X75.0Y-36.0
X75.0Y-37.0
X75.0Y-38.0
X75.0Y-39.0
X75.0Y-40.0
X75.0Y-41.0
X75.0Y-42.0
X75.0Y-43.0
X75.0Y-55.0
X75.0Y-56.0
X75.0Y-57.0
X75.0Y-58.0
X75.0Y-59.0
X75.0Y-60.0
X75.0Y-61.0
X75.0Y-62.0
X75.0Y-63.0
X75.0Y-64.0
X75.0Y-65.0
X75.0Y-66.0
X75.0Y-67.0
X75.0Y-68.0
X75.0Y-69.0
X75.0Y-70.0
X75.0Y-71.0
X76.0Y-27.0
X76.0Y-28.0
X76.0Y-29.0
X76.0Y-30.0
X76.0Y-31.0
X76.0Y-32.0
X76.0Y-33.0
X76.0Y-34.0
X76.0Y-35.0
X76.0Y-36.0
X76.0Y-37.0
X76.0Y-38.0
X76.0Y-39.0
X76.0Y-40.0
X76.0Y-41.0
X76.0Y-42.0
X76.0Y-43.0
X76.0Y-55.0
X76.0Y-56.0
X76.0Y-57.0
X76.0Y-58.0
X76.0Y-59.0
X76.0Y-60.0
X76.0Y-61.0
X76.0Y-62.0
X76.0Y-63.0
X76.0Y-64.0
X76.0Y-65.0
X76.0Y-66.0
X76.0Y-67.0
X76.0Y-68.0
X76.0Y-69.0
X76.0Y-70.0
X76.0Y-71.0
X77.0Y-27.0
X77.0Y-28.0
X77.0Y-29.0
X77.0Y-30.0
X77.0Y-31.0
X77.0Y-32.0
X77.0Y-33.0
X77.0Y-34.0
X77.0Y-35.0
X77.0Y-36.0
X77.0Y-37.0
X77.0Y-38.0
X77.0Y-39.0
X77.0Y-40.0
X77.0Y-41.0
X77.0Y-42.0
X77.0Y-43.0
X77.0Y-55.0
X77.0Y-56.0
X77.0Y-57.0
X77.0Y-58.0
X77.0Y-59.0
X77.0Y-60.0
X77.0Y-61.0
X77.0Y-62.0
X77.0Y-63.0
X77.0Y-64.0
X77.0Y-65.0
X77.0Y-66.0
X77.0Y-67.0
X77.0Y-68.0
X77.0Y-69.0
X77.0Y-70.0
X77.0Y-71.0
X78.0Y-27.0
X78.0Y-28.0
X78.0Y-29.0
X78.0Y-30.0
X78.0Y-31.0
X78.0Y-32.0
X78.0Y-33.0
X78.0Y-34.0
X78.0Y-35.0
X78.0Y-36.0
X78.0Y-37.0
X78.0Y-38.0
X78.0Y-39.0
X78.0Y-40.0
X78.0Y-41.0
X78.0Y-42.0
X78.0Y-43.0
X78.0Y-55.0
X78.0Y-56.0
X78.0Y-57.0
X78.0Y-58.0
X78.0Y-59.0
X78.0Y-60.0
X78.0Y-61.0
X78.0Y-62.0
X78.0Y-63.0
X78.0Y-64.0
X78.0Y-65.0
X78.0Y-66.0
X78.0Y-67.0
X78.0Y-68.0
X78.0Y-69.0
X78.0Y-70.0
X78.0Y-71.0
X79.0Y-27.0
X79.0Y-28.0
X79.0Y-29.0
X79.0Y-30.0
X79.0Y-31.0
X79.0Y-32.0
X79.0Y-33.0
X79.0Y-34.0
X79.0Y-35.0
X79.0Y-36.0
X79.0Y-37.0
X79.0Y-38.0
X79.0Y-39.0
X79.0Y-40.0
X79.0Y-41.0
X79.0Y-42.0
X79.0Y-43.0
X79.0Y-55.0
X79.0Y-56.0
X79.0Y-57.0
X79.0Y-58.0
X79.0Y-59.0
X79.0Y-60.0
X79.0Y-61.0
X79.0Y-62.0
X79.0Y-63.0
X79.0Y-64.0
X79.0Y-65.0
X79.0Y-66.0
X79.0Y-67.0
X79.0Y-68.0
X79.0Y-69.0
X79.0Y-70.0
X79.0Y-71.0
X80.0Y-27.0
X80.0Y-28.0
X80.0Y-29.0
X80.0Y-30.0
X80.0Y-31.0
X80.0Y-32.0
X80.0Y-33.0
X80.0Y-34.0
X80.0Y-35.0
X80.0Y-36.0
X80.0Y-37.0
X80.0Y-38.0
X80.0Y-39.0
X80.0Y-40.0
X80.0Y-41.0
X80.0Y-42.0
X80.0Y-43.0
X80.0Y-55.0
X80.0Y-56.0
X80.0Y-57.0
X80.0Y-58.0
X80.0Y-59.0
X80.0Y-60.0
X80.0Y-61.0
X80.0Y-62.0
X80.0Y-63.0
X80.0Y-64.0
X80.0Y-65.0
X80.0Y-66.0
X80.0Y-67.0
X80.0Y-68.0
X80.0Y-69.0
X80.0Y-70.0
X80.0Y-71.0
X81.0Y-27.0
X81.0Y-28.0
X81.0Y-29.0
X81.0Y-30.0
X81.0Y-31.0
X81.0Y-32.0
X81.0Y-33.0
X81.0Y-34.0
X81.0Y-35.0
X81.0Y-36.0
X81.0Y-37.0
X81.0Y-38.0
X81.0Y-39.0
X81.0Y-40.0
X81.0Y-41.0
X81.0Y-42.0
X81.0Y-43.0
X81.0Y-55.0
X81.0Y-56.0
X81.0Y-57.0
X81.0Y-58.0
X81.0Y-59.0
X81.0Y-60.0
X81.0Y-61.0
X81.0Y-62.0
X81.0Y-63.0
X81.0Y-64.0
X81.0Y-65.0
X81.0Y-66.0
X81.0Y-67.0
X81.0Y-68.0
X81.0Y-69.0
X81.0Y-70.0
X81.0Y-71.0
X82.0Y-27.0
X82.0Y-28.0
X82.0Y-29.0
X82.0Y-30.0
X82.0Y-31.0
X82.0Y-32.0
X82.0Y-33.0
X82.0Y-34.0
X82.0Y-35.0
X82.0Y-36.0
X82.0Y-37.0
X82.0Y-38.0
X82.0Y-39.0
X82.0Y-40.0
X82.0Y-41.0
X82.0Y-42.0
X82.0Y-43.0
X82.0Y-55.0
X82.0Y-56.0
X82.0Y-57.0
X82.0Y-58.0
X82.0Y-59.0
X82.0Y-60.0
X82.0Y-61.0
X82.0Y-62.0
X82.0Y-63.0
X82.0Y-64.0
X82.0Y-65.0
X82.0Y-66.0
X82.0Y-67.0
X82.0Y-68.0
X82.0Y-69.0
X82.0Y-70.0
X82.0Y-71.0
X83.0Y-27.0
X83.0Y-28.0
X83.0Y-29.0
X83.0Y-30.0
X83.0Y-31.0
X83.0Y-32.0
X83.0Y-33.0
X83.0Y-34.0
X83.0Y-35.0
X83.0Y-36.0
X83.0Y-37.0
X83.0Y-38.0
X83.0Y-39.0
X83.0Y-40.0
X83.0Y-41.0
X83.0Y-42.0
X83.0Y-43.0
X83.0Y-55.0
X83.0Y-56.0
X83.0Y-57.0
X83.0Y-58.0
X83.0Y-59.0
X83.0Y-60.0
X83.0Y-61.0
X83.0Y-62.0
X83.0Y-63.0
X83.0Y-64.0
X83.0Y-65.0
X83.0Y-66.0
X83.0Y-67.0
X83.0Y-68.0
X83.0Y-69.0
X83.0Y-70.0
X84.0Y-27.0
X84.0Y-28.0
X84.0Y-29.0
X84.0Y-30.0
X84.0Y-31.0
X84.0Y-32.0
X84.0Y-33.0
X84.0Y-34.0
X84.0Y-35.0
X84.0Y-36.0
X84.0Y-37.0
X84.0Y-38.0
X84.0Y-39.0
X84.0Y-40.0
X84.0Y-41.0
X84.0Y-42.0
X84.0Y-43.0
X84.0Y-55.0
X84.0Y-56.0
X84.0Y-57.0
X84.0Y-58.0
X84.0Y-59.0
X84.0Y-60.0
X84.0Y-61.0
X84.0Y-62.0
X84.0Y-63.0
X84.0Y-64.0
X84.0Y-65.0
X84.0Y-66.0
X84.0Y-67.0
X84.0Y-68.0
X84.0Y-69.0
X84.0Y-70.0
X85.0Y8.0
X85.0Y7.0
X85.0Y6.0
X85.0Y5.0
X85.0Y4.0
X85.0Y3.0
X85.0Y2.0
X85.0Y1.0
X85.0Y0.0
X85.0Y-1.0
X85.0Y-2.0
X85.0Y-3.0
X85.0Y-4.0
X85.0Y-5.0
X85.0Y-6.0
X85.0Y-7.0
X85.0Y-27.0
X85.0Y-28.0
X85.0Y-29.0
X85.0Y-30.0
X85.0Y-31.0
X85.0Y-32.0
X85.0Y-33.0
X85.0Y-34.0
X85.0Y-35.0
X85.0Y-36.0
X85.0Y-37.0
X85.0Y-38.0
X85.0Y-39.0
X85.0Y-40.0
X85.0Y-41.0
X85.0Y-42.0
X85.0Y-43.0
X85.0Y-55.0
X85.0Y-56.0
X85.0Y-57.0
X85.0Y-58.0
X85.0Y-59.0
X85.0Y-60.0
X85.0Y-61.0
X85.0Y-62.0
X85.0Y-63.0
X85.0Y-64.0
X85.0Y-65.0
X85.0Y-66.0
X85.0Y-67.0
X85.0Y-68.0
X85.0Y-69.0
X85.0Y-70.0
X86.0Y8.0
X86.0Y7.0
X86.0Y6.0
X86.0Y5.0
X86.0Y4.0
X86.0Y3.0
X86.0Y2.0
X86.0Y1.0
X86.0Y0.0
X86.0Y-1.0
X86.0Y-2.0
X86.0Y-3.0
X86.0Y-4.0
X86.0Y-5.0
X86.0Y-6.0
X86.0Y-7.0
X86.0Y-27.0
X86.0Y-28.0
X86.0Y-29.0
X86.0Y-30.0
X86.0Y-31.0
X86.0Y-32.0
X86.0Y-33.0
X86.0Y-34.0
X86.0Y-35.0
X86.0Y-36.0
X86.0Y-37.0
X86.0Y-38.0
X86.0Y-39.0
X86.0Y-40.0
X86.0Y-41.0
X86.0Y-42.0
X86.0Y-43.0
X86.0Y-55.0
X86.0Y-56.0
X86.0Y-57.0
X86.0Y-58.0
X86.0Y-59.0
X86.0Y-60.0
X86.0Y-61.0
X86.0Y-62.0
X86.0Y-63.0
X86.0Y-64.0
X86.0Y-65.0
X86.0Y-66.0
X86.0Y-67.0
X86.0Y-68.0
X86.0Y-69.0
X86.0Y-70.0
X86.0Y-71.0
X87.0Y8.0
X87.0Y7.0
X87.0Y6.0
X87.0Y5.0
X87.0Y4.0
X87.0Y3.0
X87.0Y2.0
X87.0Y1.0
X87.0Y0.0
X87.0Y-1.0
X87.0Y-2.0
X87.0Y-3.0
X87.0Y-4.0
X87.0Y-5.0
X87.0Y-6.0
X87.0Y-7.0
X87.0Y-27.0
X87.0Y-28.0
X87.0Y-29.0
X87.0Y-30.0
X87.0Y-31.0
X87.0Y-32.0
X87.0Y-33.0
X87.0Y-34.0
X87.0Y-35.0
X87.0Y-36.0
X87.0Y-37.0
X87.0Y-38.0
X87.0Y-39.0
X87.0Y-40.0
X87.0Y-41.0
X87.0Y-42.0
X87.0Y-43.0
X87.0Y-55.0
X87.0Y-56.0
X87.0Y-57.0
X87.0Y-58.0
X87.0Y-59.0
X87.0Y-60.0
X87.0Y-61.0
X87.0Y-62.0
X87.0Y-63.0
X87.0Y-64.0
X87.0Y-65.0
X87.0Y-66.0
X87.0Y-67.0
X87.0Y-68.0
X87.0Y-69.0
X87.0Y-70.0
X87.0Y-71.0
X88.0Y8.0
X88.0Y7.0
X88.0Y6.0
X88.0Y5.0
X88.0Y4.0
X88.0Y3.0
X88.0Y2.0
X88.0Y1.0
X88.0Y0.0
X88.0Y-1.0
X88.0Y-2.0
X88.0Y-3.0
X88.0Y-4.0
X88.0Y-5.0
X88.0Y-6.0
X88.0Y-7.0
X88.0Y-27.0
X88.0Y-28.0
X88.0Y-29.0
X88.0Y-30.0
X88.0Y-31.0
X88.0Y-32.0
X88.0Y-33.0
X88.0Y-34.0
X88.0Y-35.0
X88.0Y-36.0
X88.0Y-37.0
X88.0Y-38.0
X88.0Y-39.0
X88.0Y-40.0
X88.0Y-41.0
X88.0Y-42.0
X88.0Y-43.0
X88.0Y-55.0
X88.0Y-56.0
X88.0Y-57.0
X88.0Y-58.0
X88.0Y-59.0
X88.0Y-60.0
X88.0Y-61.0
X88.0Y-62.0
X88.0Y-63.0
X88.0Y-64.0
X88.0Y-65.0
X88.0Y-66.0
X88.0Y-67.0
X88.0Y-68.0
X88.0Y-69.0
X88.0Y-70.0
X88.0Y-71.0
X89.0Y8.0
X89.0Y7.0
X89.0Y6.0
X89.0Y5.0
X89.0Y4.0
X89.0Y3.0
X89.0Y2.0
X89.0Y1.0
X89.0Y0.0
X89.0Y-1.0
X89.0Y-2.0
X89.0Y-3.0
X89.0Y-4.0
X89.0Y-5.0
X89.0Y-6.0
X89.0Y-7.0
X89.0Y-27.0
X89.0Y-28.0
X89.0Y-29.0
X89.0Y-30.0
X89.0Y-31.0
X89.0Y-32.0
X89.0Y-33.0
X89.0Y-34.0
X89.0Y-35.0
X89.0Y-36.0
X89.0Y-37.0
X89.0Y-38.0
X89.0Y-39.0
X89.0Y-40.0
X89.0Y-41.0
X89.0Y-42.0
X89.0Y-43.0
X89.0Y-55.0
X89.0Y-56.0
X89.0Y-57.0
X89.0Y-58.0
X89.0Y-59.0
X89.0Y-60.0
X89.0Y-61.0
X89.0Y-62.0
X89.0Y-63.0
X89.0Y-64.0
X89.0Y-65.0
X89.0Y-66.0
X89.0Y-67.0
X89.0Y-68.0
X89.0Y-69.0
X89.0Y-70.0
X89.0Y-71.0
X90.0Y8.0
X90.0Y7.0
X90.0Y6.0
X90.0Y5.0
X90.0Y1.0
X90.0Y0.0
X90.0Y-1.0
X90.0Y-2.0
X90.0Y-3.0
X90.0Y-4.0
X90.0Y-5.0
X90.0Y-6.0
X90.0Y-7.0
X90.0Y-27.0
X90.0Y-28.0
X90.0Y-29.0
X90.0Y-30.0
X90.0Y-31.0
X90.0Y-32.0
X90.0Y-33.0
X90.0Y-34.0
X90.0Y-35.0
X90.0Y-36.0
X90.0Y-37.0
X90.0Y-38.0
X90.0Y-39.0
X90.0Y-40.0
X90.0Y-41.0
X90.0Y-42.0
X90.0Y-43.0
X90.0Y-55.0
X90.0Y-56.0
X90.0Y-57.0
X90.0Y-58.0
X90.0Y-59.0
X90.0Y-60.0
X90.0Y-61.0
X90.0Y-62.0
X90.0Y-63.0
X90.0Y-64.0
X90.0Y-65.0
X90.0Y-66.0
X90.0Y-67.0
X90.0Y-68.0
X90.0Y-69.0
X90.0Y-70.0
X90.0Y-71.0
X91.0Y8.0
X91.0Y7.0
X91.0Y-1.0
X91.0Y-2.0
X91.0Y-3.0
X91.0Y-4.0
X91.0Y-5.0
X91.0Y-6.0
X91.0Y-7.0
X91.0Y-27.0
X91.0Y-28.0
X91.0Y-29.0
X91.0Y-30.0
X91.0Y-31.0
X91.0Y-32.0
X91.0Y-33.0
X91.0Y-34.0
X91.0Y-35.0
X91.0Y-36.0
X91.0Y-37.0
X91.0Y-38.0
X91.0Y-39.0
X91.0Y-40.0
X91.0Y-41.0
X91.0Y-42.0
X91.0Y-43.0
X91.0Y-55.0
X91.0Y-56.0
X91.0Y-57.0
X91.0Y-58.0
X91.0Y-59.0
X91.0Y-60.0
X91.0Y-61.0
X91.0Y-62.0
X91.0Y-63.0
X91.0Y-64.0
X91.0Y-65.0
X91.0Y-66.0
X91.0Y-67.0
X91.0Y-68.0
X91.0Y-69.0
X91.0Y-70.0
X91.0Y-71.0
X92.0Y8.0
X92.0Y-2.0
X92.0Y-3.0
X92.0Y-4.0
X92.0Y-5.0
X92.0Y-6.0
X92.0Y-7.0
X92.0Y-27.0
X92.0Y-28.0
X92.0Y-29.0
X92.0Y-30.0
X92.0Y-31.0
X92.0Y-32.0
X92.0Y-33.0
X92.0Y-34.0
X92.0Y-35.0
X92.0Y-36.0
X92.0Y-37.0
X92.0Y-38.0
X92.0Y-39.0
X92.0Y-40.0
X92.0Y-41.0
X92.0Y-42.0
X92.0Y-43.0
X92.0Y-55.0
X92.0Y-56.0
X92.0Y-57.0
X92.0Y-58.0
X92.0Y-59.0
X92.0Y-60.0
X92.0Y-61.0
X92.0Y-62.0
X92.0Y-63.0
X92.0Y-64.0
X92.0Y-65.0
X92.0Y-66.0
X92.0Y-67.0
X92.0Y-68.0
X92.0Y-69.0
X92.0Y-70.0
X92.0Y-71.0
X93.0Y8.0
X93.0Y-2.0
X93.0Y-3.0
X93.0Y-4.0
X93.0Y-5.0
X93.0Y-6.0
X93.0Y-7.0
X94.0Y-3.0
X94.0Y-4.0
X94.0Y-5.0
X94.0Y-6.0
X94.0Y-7.0
X95.0Y-3.0
X95.0Y-4.0
X95.0Y-5.0
X95.0Y-6.0
X95.0Y-7.0
X96.0Y-3.0
X96.0Y-4.0
X96.0Y-5.0
X96.0Y-6.0
X96.0Y-7.0
X97.0Y8.0
X97.0Y-2.0
X97.0Y-3.0
X97.0Y-4.0
X97.0Y-5.0
X97.0Y-6.0
X97.0Y-7.0
X97.0Y-27.0
X97.0Y-28.0
X97.0Y-29.0
X97.0Y-30.0
X97.0Y-31.0
X97.0Y-32.0
X97.0Y-33.0
X97.0Y-34.0
X97.0Y-35.0
X97.0Y-36.0
X97.0Y-37.0
X97.0Y-38.0
X97.0Y-39.0
X97.0Y-40.0
X97.0Y-41.0
X97.0Y-42.0
X97.0Y-43.0
X98.0Y8.0
X98.0Y-2.0
X98.0Y-3.0
X98.0Y-4.0
X98.0Y-5.0
X98.0Y-6.0
X98.0Y-7.0
X98.0Y-27.0
X98.0Y-28.0
X98.0Y-29.0
X98.0Y-30.0
X98.0Y-31.0
X98.0Y-32.0
X98.0Y-33.0
X98.0Y-34.0
X98.0Y-35.0
X98.0Y-36.0
X98.0Y-37.0
X98.0Y-38.0
X98.0Y-39.0
X98.0Y-40.0
X98.0Y-41.0
X98.0Y-42.0
X98.0Y-43.0
X98.0Y-55.0
X98.0Y-56.0
X98.0Y-57.0
X98.0Y-58.0
X98.0Y-59.0
X98.0Y-60.0
X98.0Y-61.0
X98.0Y-62.0
X98.0Y-63.0
X98.0Y-64.0
X98.0Y-65.0
X98.0Y-66.0
X98.0Y-67.0
X98.0Y-68.0
X98.0Y-69.0
X98.0Y-70.0
X98.0Y-71.0
X99.0Y8.0
X99.0Y7.0
X99.0Y-1.0
X99.0Y-2.0
X99.0Y-3.0
X99.0Y-4.0
X99.0Y-5.0
X99.0Y-6.0
X99.0Y-7.0
X99.0Y-27.0
X99.0Y-28.0
X99.0Y-29.0
X99.0Y-30.0
X99.0Y-31.0
X99.0Y-32.0
X99.0Y-33.0
X99.0Y-34.0
X99.0Y-35.0
X99.0Y-36.0
X99.0Y-37.0
X99.0Y-38.0
X99.0Y-39.0
X99.0Y-40.0
X99.0Y-41.0
X99.0Y-42.0
X99.0Y-43.0
X99.0Y-55.0
X99.0Y-56.0
X99.0Y-57.0
X99.0Y-58.0
X99.0Y-59.0
X99.0Y-60.0
X99.0Y-61.0
X99.0Y-62.0
X99.0Y-63.0
X99.0Y-64.0
X99.0Y-65.0
X99.0Y-66.0
X99.0Y-67.0
X99.0Y-68.0
X99.0Y-69.0
X99.0Y-70.0
X99.0Y-71.0
X100.0Y8.0
X100.0Y7.0
X100.0Y6.0
X100.0Y5.0
X100.0Y1.0
X100.0Y0.0
X100.0Y-1.0
X100.0Y-2.0
X100.0Y-3.0
X100.0Y-4.0
X100.0Y-5.0
X100.0Y-6.0
X100.0Y-7.0
X100.0Y-27.0
X100.0Y-28.0
X100.0Y-29.0
X100.0Y-30.0
X100.0Y-31.0
X100.0Y-32.0
X100.0Y-33.0
X100.0Y-34.0
X100.0Y-35.0
X100.0Y-36.0
X100.0Y-37.0
X100.0Y-38.0
X100.0Y-39.0
X100.0Y-40.0
X100.0Y-41.0
X100.0Y-42.0
X100.0Y-43.0
X100.0Y-55.0
X100.0Y-56.0
X100.0Y-57.0
X100.0Y-58.0
X100.0Y-59.0
X100.0Y-60.0
X100.0Y-61.0
X100.0Y-62.0
X100.0Y-63.0
X100.0Y-64.0
X100.0Y-65.0
X100.0Y-66.0
X100.0Y-67.0
X100.0Y-68.0
X100.0Y-69.0
X100.0Y-70.0
X100.0Y-71.0
X101.0Y8.0
X101.0Y7.0
X101.0Y6.0
X101.0Y5.0
X101.0Y4.0
X101.0Y3.0
X101.0Y2.0
X101.0Y1.0
X101.0Y0.0
X101.0Y-1.0
X101.0Y-2.0
X101.0Y-3.0
X101.0Y-4.0
X101.0Y-5.0
X101.0Y-6.0
X101.0Y-7.0
X101.0Y-27.0
X101.0Y-28.0
X101.0Y-29.0
X101.0Y-30.0
X101.0Y-31.0
X101.0Y-32.0
X101.0Y-33.0
X101.0Y-34.0
X101.0Y-35.0
X101.0Y-36.0
X101.0Y-37.0
X101.0Y-38.0
X101.0Y-39.0
X101.0Y-40.0
X101.0Y-41.0
X101.0Y-42.0
X101.0Y-43.0
X101.0Y-55.0
X101.0Y-56.0
X101.0Y-57.0
X101.0Y-58.0
X101.0Y-59.0
X101.0Y-60.0
X101.0Y-61.0
X101.0Y-62.0
X101.0Y-63.0
X101.0Y-64.0
X101.0Y-65.0
X101.0Y-66.0
X101.0Y-67.0
X101.0Y-68.0
X101.0Y-69.0
X101.0Y-70.0
X101.0Y-71.0
X102.0Y8.0
X102.0Y7.0
X102.0Y6.0
X102.0Y5.0
X102.0Y4.0
X102.0Y3.0
X102.0Y2.0
X102.0Y1.0
X102.0Y0.0
X102.0Y-1.0
X102.0Y-2.0
X102.0Y-3.0
X102.0Y-4.0
X102.0Y-5.0
X102.0Y-6.0
X102.0Y-7.0
X102.0Y-27.0
X102.0Y-28.0
X102.0Y-29.0
X102.0Y-30.0
X102.0Y-31.0
X102.0Y-32.0
X102.0Y-33.0
X102.0Y-34.0
X102.0Y-35.0
X102.0Y-36.0
X102.0Y-37.0
X102.0Y-38.0
X102.0Y-39.0
X102.0Y-40.0
X102.0Y-41.0
X102.0Y-42.0
X102.0Y-43.0
X102.0Y-55.0
X102.0Y-56.0
X102.0Y-57.0
X102.0Y-58.0
X102.0Y-59.0
X102.0Y-60.0
X102.0Y-61.0
X102.0Y-62.0
X102.0Y-63.0
X102.0Y-64.0
X102.0Y-65.0
X102.0Y-66.0
X102.0Y-67.0
X102.0Y-68.0
X102.0Y-69.0
X102.0Y-70.0
X102.0Y-71.0
X103.0Y8.0
X103.0Y7.0
X103.0Y6.0
X103.0Y5.0
X103.0Y4.0
X103.0Y3.0
X103.0Y2.0
X103.0Y1.0
X103.0Y0.0
X103.0Y-1.0
X103.0Y-2.0
X103.0Y-3.0
X103.0Y-4.0
X103.0Y-5.0
X103.0Y-6.0
X103.0Y-7.0
X103.0Y-27.0
X103.0Y-28.0
X103.0Y-29.0
X103.0Y-30.0
X103.0Y-31.0
X103.0Y-32.0
X103.0Y-33.0
X103.0Y-34.0
X103.0Y-35.0
X103.0Y-36.0
X103.0Y-37.0
X103.0Y-38.0
X103.0Y-39.0
X103.0Y-40.0
X103.0Y-41.0
X103.0Y-42.0
X103.0Y-43.0
X103.0Y-55.0
X103.0Y-56.0
X103.0Y-57.0
X103.0Y-58.0
X103.0Y-59.0
X103.0Y-60.0
X103.0Y-61.0
X103.0Y-62.0
X103.0Y-63.0
X103.0Y-64.0
X103.0Y-65.0
X103.0Y-66.0
X103.0Y-67.0
X103.0Y-68.0
X103.0Y-69.0
X103.0Y-70.0
X103.0Y-71.0
X104.0Y8.0
X104.0Y7.0
X104.0Y6.0
X104.0Y5.0
X104.0Y4.0
X104.0Y3.0
X104.0Y2.0
X104.0Y1.0
X104.0Y0.0
X104.0Y-1.0
X104.0Y-2.0
X104.0Y-3.0
X104.0Y-4.0
X104.0Y-5.0
X104.0Y-6.0
X104.0Y-7.0
X104.0Y-27.0
X104.0Y-28.0
X104.0Y-29.0
X104.0Y-30.0
X104.0Y-31.0
X104.0Y-32.0
X104.0Y-33.0
X104.0Y-34.0
X104.0Y-35.0
X104.0Y-36.0
X104.0Y-37.0
X104.0Y-38.0
X104.0Y-39.0
X104.0Y-40.0
X104.0Y-41.0
X104.0Y-42.0
X104.0Y-43.0
X104.0Y-55.0
X104.0Y-56.0
X104.0Y-57.0
X104.0Y-58.0
X104.0Y-59.0
X104.0Y-60.0
X104.0Y-61.0
X104.0Y-62.0
X104.0Y-63.0
X104.0Y-64.0
X104.0Y-65.0
X104.0Y-66.0
X104.0Y-67.0
X104.0Y-68.0
X104.0Y-69.0
X104.0Y-70.0
X105.0Y8.0
X105.0Y7.0
X105.0Y6.0
X105.0Y5.0
X105.0Y4.0
X105.0Y3.0
X105.0Y2.0
X105.0Y1.0
X105.0Y0.0
X105.0Y-1.0
X105.0Y-2.0
X105.0Y-3.0
X105.0Y-4.0
X105.0Y-5.0
X105.0Y-6.0
X105.0Y-7.0
X105.0Y-27.0
X105.0Y-28.0
X105.0Y-29.0
X105.0Y-30.0
X105.0Y-31.0
X105.0Y-32.0
X105.0Y-33.0
X105.0Y-34.0
X105.0Y-35.0
X105.0Y-36.0
X105.0Y-37.0
X105.0Y-38.0
X105.0Y-39.0
X105.0Y-40.0
X105.0Y-41.0
X105.0Y-42.0
X105.0Y-43.0
X105.0Y-55.0
X105.0Y-56.0
X105.0Y-57.0
X105.0Y-58.0
X105.0Y-59.0
X105.0Y-60.0
X105.0Y-61.0
X105.0Y-62.0
X105.0Y-63.0
X105.0Y-64.0
X105.0Y-65.0
X105.0Y-66.0
X105.0Y-67.0
X105.0Y-68.0
X105.0Y-69.0
X105.0Y-70.0
X106.0Y-27.0
X106.0Y-28.0
X106.0Y-29.0
X106.0Y-30.0
X106.0Y-31.0
X106.0Y-32.0
X106.0Y-33.0
X106.0Y-34.0
X106.0Y-35.0
X106.0Y-36.0
X106.0Y-37.0
X106.0Y-38.0
X106.0Y-39.0
X106.0Y-40.0
X106.0Y-41.0
X106.0Y-42.0
X106.0Y-43.0
X106.0Y-55.0
X106.0Y-56.0
X106.0Y-57.0
X106.0Y-58.0
X106.0Y-59.0
X106.0Y-60.0
X106.0Y-61.0
X106.0Y-62.0
X106.0Y-63.0
X106.0Y-64.0
X106.0Y-65.0
X106.0Y-66.0
X106.0Y-67.0
X106.0Y-68.0
X106.0Y-69.0
X106.0Y-70.0
X107.0Y-27.0
X107.0Y-28.0
X107.0Y-29.0
X107.0Y-30.0
X107.0Y-31.0
X107.0Y-32.0
X107.0Y-33.0
X107.0Y-34.0
X107.0Y-35.0
X107.0Y-36.0
X107.0Y-37.0
X107.0Y-38.0
X107.0Y-39.0
X107.0Y-40.0
X107.0Y-41.0
X107.0Y-42.0
X107.0Y-43.0
X107.0Y-55.0
X107.0Y-56.0
X107.0Y-57.0
X107.0Y-58.0
X107.0Y-59.0
X107.0Y-60.0
X107.0Y-61.0
X107.0Y-62.0
X107.0Y-63.0
X107.0Y-64.0
X107.0Y-65.0
X107.0Y-66.0
X107.0Y-67.0
X107.0Y-68.0
X107.0Y-69.0
X107.0Y-70.0
X107.0Y-71.0
X108.0Y-27.0
X108.0Y-28.0
X108.0Y-29.0
X108.0Y-30.0
X108.0Y-31.0
X108.0Y-32.0
X108.0Y-33.0
X108.0Y-34.0
X108.0Y-35.0
X108.0Y-36.0
X108.0Y-37.0
X108.0Y-38.0
X108.0Y-39.0
X108.0Y-40.0
X108.0Y-41.0
X108.0Y-42.0
X108.0Y-43.0
X108.0Y-55.0
X108.0Y-56.0
X108.0Y-57.0
X108.0Y-58.0
X108.0Y-59.0
X108.0Y-60.0
X108.0Y-61.0
X108.0Y-62.0
X108.0Y-63.0
X108.0Y-64.0
X108.0Y-65.0
X108.0Y-66.0
X108.0Y-67.0
X108.0Y-68.0
X108.0Y-69.0
X108.0Y-70.0
X108.0Y-71.0
X109.0Y-27.0
X109.0Y-28.0
X109.0Y-29.0
X109.0Y-30.0
X109.0Y-31.0
X109.0Y-32.0
X109.0Y-33.0
X109.0Y-34.0
X109.0Y-35.0
X109.0Y-36.0
X109.0Y-37.0
X109.0Y-38.0
X109.0Y-39.0
X109.0Y-40.0
X109.0Y-41.0
X109.0Y-42.0
X109.0Y-43.0
X109.0Y-55.0
X109.0Y-56.0
X109.0Y-57.0
X109.0Y-58.0
X109.0Y-59.0
X109.0Y-60.0
X109.0Y-61.0
X109.0Y-62.0
X109.0Y-63.0
X109.0Y-64.0
X109.0Y-65.0
X109.0Y-66.0
X109.0Y-67.0
X109.0Y-68.0
X109.0Y-69.0
X109.0Y-70.0
X109.0Y-71.0
X110.0Y-27.0
X110.0Y-28.0
X110.0Y-29.0
X110.0Y-30.0
X110.0Y-31.0
X110.0Y-32.0
X110.0Y-33.0
X110.0Y-34.0
X110.0Y-35.0
X110.0Y-36.0
X110.0Y-37.0
X110.0Y-38.0
X110.0Y-39.0
X110.0Y-40.0
X110.0Y-41.0
X110.0Y-42.0
X110.0Y-43.0
X110.0Y-55.0
X110.0Y-56.0
X110.0Y-57.0
X110.0Y-58.0
X110.0Y-59.0
X110.0Y-60.0
X110.0Y-61.0
X110.0Y-62.0
X110.0Y-63.0
X110.0Y-64.0
X110.0Y-65.0
X110.0Y-66.0
X110.0Y-67.0
X110.0Y-68.0
X110.0Y-69.0
X110.0Y-70.0
X110.0Y-71.0
X111.0Y-27.0
X111.0Y-28.0
X111.0Y-29.0
X111.0Y-30.0
X111.0Y-31.0
X111.0Y-32.0
X111.0Y-33.0
X111.0Y-34.0
X111.0Y-35.0
X111.0Y-36.0
X111.0Y-37.0
X111.0Y-38.0
X111.0Y-39.0
X111.0Y-40.0
X111.0Y-41.0
X111.0Y-42.0
X111.0Y-43.0
X111.0Y-55.0
X111.0Y-56.0
X111.0Y-57.0
X111.0Y-58.0
X111.0Y-59.0
X111.0Y-60.0
X111.0Y-61.0
X111.0Y-62.0
X111.0Y-63.0
X111.0Y-64.0
X111.0Y-65.0
X111.0Y-66.0
X111.0Y-67.0
X111.0Y-68.0
X111.0Y-69.0
X111.0Y-70.0
X111.0Y-71.0
X112.0Y-27.0
X112.0Y-28.0
X112.0Y-29.0
X112.0Y-30.0
X112.0Y-31.0
X112.0Y-32.0
X112.0Y-33.0
X112.0Y-34.0
X112.0Y-35.0
X112.0Y-36.0
X112.0Y-37.0
X112.0Y-38.0
X112.0Y-39.0
X112.0Y-40.0
X112.0Y-41.0
X112.0Y-42.0
X112.0Y-43.0
X112.0Y-55.0
X112.0Y-56.0
X112.0Y-57.0
X112.0Y-58.0
X112.0Y-59.0
X112.0Y-60.0
X112.0Y-61.0
X112.0Y-62.0
X112.0Y-63.0
X112.0Y-64.0
X112.0Y-65.0
X112.0Y-66.0
X112.0Y-67.0
X112.0Y-68.0
X112.0Y-69.0
X112.0Y-70.0
X112.0Y-71.0
X113.0Y-27.0
X113.0Y-28.0
X113.0Y-29.0
X113.0Y-30.0
X113.0Y-31.0
X113.0Y-32.0
X113.0Y-33.0
X113.0Y-34.0
X113.0Y-35.0
X113.0Y-36.0
X113.0Y-37.0
X113.0Y-38.0
X113.0Y-39.0
X113.0Y-40.0
X113.0Y-41.0
X113.0Y-42.0
X113.0Y-43.0
X113.0Y-55.0
X113.0Y-56.0
X113.0Y-57.0
X113.0Y-58.0
X113.0Y-59.0
X113.0Y-60.0
X113.0Y-61.0
X113.0Y-62.0
X113.0Y-63.0
X113.0Y-64.0
X113.0Y-65.0
X113.0Y-66.0
X113.0Y-67.0
X113.0Y-68.0
X113.0Y-69.0
X113.0Y-70.0
X113.0Y-71.0
X114.0Y-27.0
X114.0Y-28.0
X114.0Y-29.0
X114.0Y-30.0
X114.0Y-31.0
X114.0Y-32.0
X114.0Y-33.0
X114.0Y-34.0
X114.0Y-35.0
X114.0Y-36.0
X114.0Y-37.0
X114.0Y-38.0
X114.0Y-39.0
X114.0Y-40.0
X114.0Y-41.0
X114.0Y-42.0
X114.0Y-43.0
X114.0Y-55.0
X114.0Y-56.0
X114.0Y-57.0
X114.0Y-58.0
X114.0Y-59.0
X114.0Y-60.0
X114.0Y-61.0
X114.0Y-62.0
X114.0Y-63.0
X114.0Y-64.0
X114.0Y-65.0
X114.0Y-66.0
X114.0Y-67.0
X114.0Y-68.0
X114.0Y-69.0
X114.0Y-70.0
X114.0Y-71.0
X115.0Y-27.0
X115.0Y-28.0
X115.0Y-29.0
X115.0Y-30.0
X115.0Y-31.0
X115.0Y-32.0
X115.0Y-33.0
X115.0Y-34.0
X115.0Y-35.0
X115.0Y-36.0
X115.0Y-37.0
X115.0Y-38.0
X115.0Y-39.0
X115.0Y-40.0
X115.0Y-41.0
X115.0Y-42.0
X115.0Y-43.0
X115.0Y-55.0
X115.0Y-56.0
X115.0Y-57.0
X115.0Y-58.0
X115.0Y-59.0
X115.0Y-60.0
X115.0Y-61.0
X115.0Y-62.0
X115.0Y-63.0
X115.0Y-64.0
X115.0Y-65.0
X115.0Y-66.0
X115.0Y-67.0
X115.0Y-68.0
X115.0Y-69.0
X115.0Y-70.0
X115.0Y-71.0
X116.0Y-27.0
X116.0Y-28.0
X116.0Y-29.0
X116.0Y-30.0
X116.0Y-31.0
X116.0Y-32.0
X116.0Y-33.0
X116.0Y-34.0
X116.0Y-35.0
X116.0Y-36.0
X116.0Y-37.0
X116.0Y-38.0
X116.0Y-39.0
X116.0Y-40.0
X116.0Y-41.0
X116.0Y-42.0
X116.0Y-43.0
X116.0Y-55.0
X116.0Y-56.0
X116.0Y-57.0
X116.0Y-58.0
X116.0Y-59.0
X116.0Y-60.0
X116.0Y-61.0
X116.0Y-62.0
X116.0Y-63.0
X116.0Y-64.0
X116.0Y-65.0
X116.0Y-66.0
X116.0Y-67.0
X116.0Y-68.0
X116.0Y-69.0
X116.0Y-70.0
X116.0Y-71.0
X117.0Y-27.0
X117.0Y-28.0
X117.0Y-29.0
X117.0Y-30.0
X117.0Y-31.0
X117.0Y-32.0
X117.0Y-33.0
X117.0Y-34.0
X117.0Y-35.0
X117.0Y-36.0
X117.0Y-37.0
X117.0Y-38.0
X117.0Y-39.0
X117.0Y-40.0
X117.0Y-41.0
X117.0Y-42.0
X117.0Y-43.0
X117.0Y-55.0
X117.0Y-56.0
X117.0Y-57.0
X117.0Y-58.0
X117.0Y-59.0
X117.0Y-60.0
X117.0Y-61.0
X117.0Y-62.0
X117.0Y-63.0
X117.0Y-64.0
X117.0Y-65.0
X117.0Y-66.0
X117.0Y-67.0
X117.0Y-68.0
X117.0Y-69.0
X117.0Y-70.0
X117.0Y-71.0
X118.0Y-27.0
X118.0Y-28.0
X118.0Y-29.0
X118.0Y-30.0
X118.0Y-31.0
X118.0Y-32.0
X118.0Y-33.0
X118.0Y-34.0
X118.0Y-35.0
X118.0Y-36.0
X118.0Y-37.0
X118.0Y-38.0
X118.0Y-39.0
X118.0Y-40.0
X118.0Y-41.0
X118.0Y-42.0
X118.0Y-43.0
X118.0Y-55.0
X118.0Y-56.0
X118.0Y-57.0
X118.0Y-58.0
X118.0Y-59.0
X118.0Y-60.0
X118.0Y-61.0
X118.0Y-62.0
X118.0Y-63.0
X118.0Y-64.0
X118.0Y-65.0
X118.0Y-66.0
X118.0Y-67.0
X118.0Y-68.0
X118.0Y-69.0
X118.0Y-70.0
X118.0Y-71.0
X119.0Y-27.0
X119.0Y-28.0
X119.0Y-29.0
X119.0Y-30.0
X119.0Y-31.0
X119.0Y-32.0
X119.0Y-33.0
X119.0Y-34.0
X119.0Y-35.0
X119.0Y-36.0
X119.0Y-37.0
X119.0Y-38.0
X119.0Y-39.0
X119.0Y-40.0
X119.0Y-41.0
X119.0Y-42.0
X119.0Y-43.0
X119.0Y-55.0
X119.0Y-56.0
X119.0Y-57.0
X119.0Y-58.0
X119.0Y-59.0
X119.0Y-60.0
X119.0Y-61.0
X119.0Y-62.0
X119.0Y-63.0
X119.0Y-64.0
X119.0Y-65.0
X119.0Y-66.0
X119.0Y-67.0
X119.0Y-68.0
X119.0Y-69.0
X119.0Y-70.0
X119.0Y-71.0
X120.0Y-27.0
X120.0Y-28.0
X120.0Y-29.0
X120.0Y-30.0
X120.0Y-31.0
X120.0Y-32.0
X120.0Y-33.0
X120.0Y-34.0
X120.0Y-35.0
X120.0Y-36.0
X120.0Y-37.0
X120.0Y-38.0
X120.0Y-39.0
X120.0Y-40.0
X120.0Y-41.0
X120.0Y-42.0
X120.0Y-43.0
X120.0Y-55.0
X120.0Y-56.0
X120.0Y-57.0
X120.0Y-58.0
X120.0Y-59.0
X120.0Y-60.0
X120.0Y-61.0
X120.0Y-62.0
X120.0Y-63.0
X120.0Y-64.0
X120.0Y-65.0
X120.0Y-66.0
X120.0Y-67.0
X120.0Y-68.0
X120.0Y-69.0
X120.0Y-70.0
X120.0Y-71.0
X121.0Y-27.0
X121.0Y-28.0
X121.0Y-29.0
X121.0Y-30.0
X121.0Y-31.0
X121.0Y-32.0
X121.0Y-33.0
X121.0Y-34.0
X121.0Y-35.0
X121.0Y-36.0
X121.0Y-37.0
X121.0Y-38.0
X121.0Y-39.0
X121.0Y-40.0
X121.0Y-41.0
X121.0Y-42.0
X121.0Y-43.0
X121.0Y-55.0
X121.0Y-56.0
X121.0Y-57.0
X121.0Y-58.0
X121.0Y-59.0
X121.0Y-60.0
X121.0Y-61.0
X121.0Y-62.0
X121.0Y-63.0
X121.0Y-64.0
X121.0Y-65.0
X121.0Y-66.0
X121.0Y-67.0
X121.0Y-68.0
X121.0Y-69.0
X121.0Y-70.0
X121.0Y-71.0
X122.0Y-27.0
X122.0Y-28.0
X122.0Y-29.0
X122.0Y-30.0
X122.0Y-31.0
X122.0Y-32.0
X122.0Y-33.0
X122.0Y-34.0
X122.0Y-35.0
X122.0Y-36.0
X122.0Y-37.0
X122.0Y-38.0
X122.0Y-39.0
X122.0Y-40.0
X122.0Y-41.0
X122.0Y-42.0
X122.0Y-43.0
X122.0Y-55.0
X122.0Y-56.0
X122.0Y-57.0
X122.0Y-58.0
X122.0Y-59.0
X122.0Y-60.0
X122.0Y-61.0
X122.0Y-62.0
X122.0Y-63.0
X122.0Y-64.0
X122.0Y-65.0
X122.0Y-66.0
X122.0Y-67.0
X122.0Y-68.0
X122.0Y-69.0
X122.0Y-70.0
X122.0Y-71.0
X123.0Y-27.0
X123.0Y-28.0
X123.0Y-29.0
X123.0Y-30.0
X123.0Y-31.0
X123.0Y-32.0
X123.0Y-33.0
X123.0Y-34.0
X123.0Y-35.0
X123.0Y-36.0
X123.0Y-37.0
X123.0Y-38.0
X123.0Y-39.0
X123.0Y-40.0
X123.0Y-41.0
X123.0Y-42.0
X123.0Y-43.0
X123.0Y-55.0
X123.0Y-56.0
X123.0Y-57.0
X123.0Y-58.0
X123.0Y-59.0
X123.0Y-60.0
X123.0Y-61.0
X123.0Y-62.0
X123.0Y-63.0
X123.0Y-64.0
X123.0Y-65.0
X123.0Y-66.0
X123.0Y-67.0
X123.0Y-68.0
X123.0Y-69.0
X123.0Y-70.0
X123.0Y-71.0
X124.0Y-27.0
X124.0Y-28.0
X124.0Y-29.0
X124.0Y-30.0
X124.0Y-31.0
X124.0Y-32.0
X124.0Y-33.0
X124.0Y-34.0
X124.0Y-35.0
X124.0Y-36.0
X124.0Y-37.0
X124.0Y-38.0
X124.0Y-39.0
X124.0Y-40.0
X124.0Y-41.0
X124.0Y-42.0
X124.0Y-43.0
X124.0Y-55.0
X124.0Y-56.0
X124.0Y-57.0
X124.0Y-58.0
X124.0Y-59.0
X124.0Y-60.0
X124.0Y-61.0
X124.0Y-62.0
X124.0Y-63.0
X124.0Y-64.0
X124.0Y-65.0
X124.0Y-66.0
X124.0Y-67.0
X124.0Y-68.0
X124.0Y-69.0
X124.0Y-70.0
X125.0Y-27.0
X125.0Y-28.0
X125.0Y-29.0
X125.0Y-30.0
X125.0Y-31.0
X125.0Y-32.0
X125.0Y-33.0
X125.0Y-34.0
X125.0Y-35.0
X125.0Y-36.0
X125.0Y-37.0
X125.0Y-38.0
X125.0Y-39.0
X125.0Y-40.0
X125.0Y-41.0
X125.0Y-42.0
X125.0Y-43.0
X125.0Y-55.0
X125.0Y-56.0
X125.0Y-57.0
X125.0Y-58.0
X125.0Y-59.0
X125.0Y-60.0
X125.0Y-61.0
X125.0Y-62.0
X125.0Y-63.0
X125.0Y-64.0
X125.0Y-65.0
X125.0Y-66.0
X125.0Y-67.0
X125.0Y-68.0
X125.0Y-69.0
X125.0Y-70.0
X126.0Y-27.0
X126.0Y-28.0
X126.0Y-29.0
X126.0Y-30.0
X126.0Y-31.0
X126.0Y-32.0
X126.0Y-33.0
X126.0Y-34.0
X126.0Y-35.0
X126.0Y-36.0
X126.0Y-37.0
X126.0Y-38.0
X126.0Y-39.0
X126.0Y-40.0
X126.0Y-41.0
X126.0Y-42.0
X126.0Y-43.0
X126.0Y-55.0
X126.0Y-56.0
X126.0Y-57.0
X126.0Y-58.0
X126.0Y-59.0
X126.0Y-60.0
X126.0Y-61.0
X126.0Y-62.0
X126.0Y-63.0
X126.0Y-64.0
X126.0Y-65.0
X126.0Y-66.0
X126.0Y-67.0
X126.0Y-68.0
X126.0Y-69.0
X126.0Y-70.0
X127.0Y-27.0
X127.0Y-28.0
X127.0Y-29.0
X127.0Y-30.0
X127.0Y-31.0
X127.0Y-32.0
X127.0Y-33.0
X127.0Y-34.0
X127.0Y-35.0
X127.0Y-36.0
X127.0Y-37.0
X127.0Y-38.0
X127.0Y-39.0
X127.0Y-40.0
X127.0Y-41.0
X127.0Y-42.0
X127.0Y-43.0
X127.0Y-55.0
X127.0Y-56.0
X127.0Y-57.0
X127.0Y-58.0
X127.0Y-59.0
X127.0Y-60.0
X127.0Y-61.0
X127.0Y-62.0
X127.0Y-63.0
X127.0Y-64.0
X127.0Y-65.0
X127.0Y-66.0
X127.0Y-67.0
X127.0Y-68.0
X127.0Y-69.0
X127.0Y-70.0
X128.0Y-27.0
X128.0Y-28.0
X128.0Y-29.0
X128.0Y-30.0
X128.0Y-31.0
X128.0Y-32.0
X128.0Y-33.0
X128.0Y-34.0
X128.0Y-35.0
X128.0Y-36.0
X128.0Y-37.0
X128.0Y-38.0
X128.0Y-39.0
X128.0Y-40.0
X128.0Y-41.0
X128.0Y-42.0
X128.0Y-43.0
X128.0Y-55.0
X128.0Y-56.0
X128.0Y-57.0
X128.0Y-58.0
X128.0Y-59.0
X128.0Y-60.0
X128.0Y-61.0
X128.0Y-62.0
X128.0Y-63.0
X128.0Y-64.0
X128.0Y-65.0
X128.0Y-66.0
X128.0Y-67.0
X128.0Y-68.0
X128.0Y-69.0
X128.0Y-70.0
X128.0Y-71.0
X129.0Y-27.0
X129.0Y-28.0
X129.0Y-29.0
X129.0Y-30.0
X129.0Y-31.0
X129.0Y-32.0
X129.0Y-33.0
X129.0Y-34.0
X129.0Y-35.0
X129.0Y-36.0
X129.0Y-37.0
X129.0Y-38.0
X129.0Y-39.0
X129.0Y-40.0
X129.0Y-41.0
X129.0Y-42.0
X129.0Y-43.0
X129.0Y-55.0
X129.0Y-56.0
X129.0Y-57.0
X129.0Y-58.0
X129.0Y-59.0
X129.0Y-60.0
X129.0Y-61.0
X129.0Y-62.0
X129.0Y-63.0
X129.0Y-64.0
X129.0Y-65.0
X129.0Y-66.0
X129.0Y-67.0
X129.0Y-68.0
X129.0Y-69.0
X129.0Y-70.0
X129.0Y-71.0
X130.0Y-27.0
X130.0Y-28.0
X130.0Y-29.0
X130.0Y-30.0
X130.0Y-31.0
X130.0Y-32.0
X130.0Y-33.0
X130.0Y-34.0
X130.0Y-35.0
X130.0Y-36.0
X130.0Y-37.0
X130.0Y-38.0
X130.0Y-39.0
X130.0Y-40.0
X130.0Y-41.0
X130.0Y-42.0
X130.0Y-43.0
X130.0Y-55.0
X130.0Y-56.0
X130.0Y-57.0
X130.0Y-58.0
X130.0Y-59.0
X130.0Y-60.0
X130.0Y-61.0
X130.0Y-62.0
X130.0Y-63.0
X130.0Y-64.0
X130.0Y-65.0
X130.0Y-66.0
X130.0Y-67.0
X130.0Y-68.0
X130.0Y-69.0
X130.0Y-70.0
X130.0Y-71.0
X131.0Y-27.0
X131.0Y-28.0
X131.0Y-29.0
X131.0Y-30.0
X131.0Y-31.0
X131.0Y-32.0
X131.0Y-33.0
X131.0Y-34.0
X131.0Y-35.0
X131.0Y-36.0
X131.0Y-37.0
X131.0Y-38.0
X131.0Y-39.0
X131.0Y-40.0
X131.0Y-41.0
X131.0Y-42.0
X131.0Y-43.0
X131.0Y-55.0
X131.0Y-56.0
X131.0Y-57.0
X131.0Y-58.0
X131.0Y-59.0
X131.0Y-60.0
X131.0Y-61.0
X131.0Y-62.0
X131.0Y-63.0
X131.0Y-64.0
X131.0Y-65.0
X131.0Y-66.0
X131.0Y-67.0
X131.0Y-68.0
X131.0Y-69.0
X131.0Y-70.0
X131.0Y-71.0
X132.0Y-27.0
X132.0Y-28.0
X132.0Y-29.0
X132.0Y-30.0
X132.0Y-31.0
X132.0Y-32.0
X132.0Y-33.0
X132.0Y-34.0
X132.0Y-35.0
X132.0Y-36.0
X132.0Y-37.0
X132.0Y-38.0
X132.0Y-39.0
X132.0Y-40.0
X132.0Y-41.0
X132.0Y-42.0
X132.0Y-43.0
X132.0Y-55.0
X132.0Y-56.0
X132.0Y-57.0
X132.0Y-58.0
X132.0Y-59.0
X132.0Y-60.0
X132.0Y-61.0
X132.0Y-62.0
X132.0Y-63.0
X132.0Y-64.0
X132.0Y-65.0
X132.0Y-66.0
X132.0Y-67.0
X132.0Y-68.0
X132.0Y-69.0
X132.0Y-70.0
X132.0Y-71.0
X133.0Y-1.0
X133.0Y-2.0
X133.0Y-3.0
X133.0Y-4.0
X133.0Y-5.0
X133.0Y-6.0
X133.0Y-7.0
X133.0Y-8.0
X133.0Y-9.0
X133.0Y-10.0
X133.0Y-11.0
X133.0Y-12.0
X133.0Y-13.0
X133.0Y-14.0
X133.0Y-15.0
X133.0Y-27.0
X133.0Y-28.0
X133.0Y-29.0
X133.0Y-30.0
X133.0Y-31.0
X133.0Y-32.0
X133.0Y-33.0
X133.0Y-34.0
X133.0Y-35.0
X133.0Y-36.0
X133.0Y-37.0
X133.0Y-38.0
X133.0Y-39.0
X133.0Y-40.0
X133.0Y-41.0
X133.0Y-42.0
X133.0Y-43.0
X133.0Y-55.0
X133.0Y-56.0
X133.0Y-57.0
X133.0Y-58.0
X133.0Y-59.0
X133.0Y-60.0
X133.0Y-61.0
X133.0Y-62.0
X133.0Y-63.0
X133.0Y-64.0
X133.0Y-65.0
X133.0Y-66.0
X133.0Y-67.0
X133.0Y-68.0
X133.0Y-69.0
X133.0Y-70.0
X133.0Y-71.0
X134.0Y-1.0
X134.0Y-2.0
X134.0Y-3.0
X134.0Y-4.0
X134.0Y-5.0
X134.0Y-6.0
X134.0Y-7.0
X134.0Y-8.0
X134.0Y-9.0
X134.0Y-10.0
X134.0Y-11.0
X134.0Y-12.0
X134.0Y-13.0
X134.0Y-14.0
X134.0Y-15.0
X134.0Y-27.0
X134.0Y-28.0
X134.0Y-29.0
X134.0Y-30.0
X134.0Y-31.0
X134.0Y-32.0
X134.0Y-33.0
X134.0Y-34.0
X134.0Y-35.0
X134.0Y-36.0
X134.0Y-37.0
X134.0Y-38.0
X134.0Y-39.0
X134.0Y-40.0
X134.0Y-41.0
X134.0Y-42.0
X134.0Y-43.0
X134.0Y-55.0
X134.0Y-56.0
X134.0Y-57.0
X134.0Y-58.0
X134.0Y-59.0
X134.0Y-60.0
X134.0Y-61.0
X134.0Y-62.0
X134.0Y-63.0
X134.0Y-64.0
X134.0Y-65.0
X134.0Y-66.0
X134.0Y-67.0
X134.0Y-68.0
X134.0Y-69.0
X134.0Y-70.0
X134.0Y-71.0
X135.0Y-1.0
X135.0Y-2.0
X135.0Y-3.0
X135.0Y-4.0
X135.0Y-5.0
X135.0Y-9.0
X135.0Y-10.0
X135.0Y-11.0
X135.0Y-12.0
X135.0Y-13.0
X135.0Y-14.0
X135.0Y-15.0
X135.0Y-27.0
X135.0Y-28.0
X135.0Y-29.0
X135.0Y-30.0
X135.0Y-31.0
X135.0Y-32.0
X135.0Y-33.0
X135.0Y-37.0
X135.0Y-38.0
X135.0Y-39.0
X135.0Y-40.0
X135.0Y-41.0
X135.0Y-42.0
X135.0Y-43.0
X135.0Y-55.0
X135.0Y-56.0
X135.0Y-57.0
X135.0Y-58.0
X135.0Y-59.0
X135.0Y-60.0
X135.0Y-61.0
X135.0Y-65.0
X135.0Y-66.0
X135.0Y-67.0
X135.0Y-68.0
X135.0Y-69.0
X135.0Y-70.0
X135.0Y-71.0
X136.0Y-1.0
X136.0Y-2.0
X136.0Y-3.0
X136.0Y-11.0
X136.0Y-12.0
X136.0Y-13.0
X136.0Y-14.0
X136.0Y-15.0
X136.0Y-27.0
X136.0Y-28.0
X136.0Y-29.0
X136.0Y-30.0
X136.0Y-31.0
X136.0Y-39.0
X136.0Y-40.0
X136.0Y-41.0
X136.0Y-42.0
X136.0Y-43.0
X136.0Y-55.0
X136.0Y-56.0
X136.0Y-57.0
X136.0Y-58.0
X136.0Y-59.0
X136.0Y-67.0
X136.0Y-68.0
X136.0Y-69.0
X136.0Y-70.0
X136.0Y-71.0
X137.0Y-1.0
X137.0Y-2.0
X137.0Y-12.0
X137.0Y-13.0
X137.0Y-14.0
X137.0Y-15.0
X137.0Y-27.0
X137.0Y-28.0
X137.0Y-29.0
X137.0Y-30.0
X137.0Y-40.0
X137.0Y-41.0
X137.0Y-42.0
X137.0Y-43.0
X137.0Y-55.0
X137.0Y-56.0
X137.0Y-57.0
X137.0Y-58.0
X137.0Y-68.0
X137.0Y-69.0
X137.0Y-70.0
X137.0Y-71.0
X138.0Y-1.0
X138.0Y-2.0
X138.0Y-12.0
X138.0Y-13.0
X138.0Y-14.0
X138.0Y-15.0
X138.0Y-27.0
X138.0Y-28.0
X138.0Y-29.0
X138.0Y-30.0
X138.0Y-40.0
X138.0Y-41.0
X138.0Y-42.0
X138.0Y-43.0
X138.0Y-55.0
X138.0Y-56.0
X138.0Y-57.0
X138.0Y-58.0
X138.0Y-68.0
X138.0Y-69.0
X138.0Y-70.0
X138.0Y-71.0
X139.0Y-1.0
X139.0Y-13.0
X139.0Y-14.0
X139.0Y-15.0
X139.0Y-27.0
X139.0Y-28.0
X139.0Y-29.0
X139.0Y-41.0
X139.0Y-42.0
X139.0Y-43.0
X139.0Y-55.0
X139.0Y-56.0
X139.0Y-57.0
X139.0Y-69.0
X139.0Y-70.0
X139.0Y-71.0
X140.0Y-1.0
X140.0Y-13.0
X140.0Y-14.0
X140.0Y-15.0
X140.0Y-27.0
X140.0Y-28.0
X140.0Y-29.0
X140.0Y-41.0
X140.0Y-42.0
X140.0Y-43.0
X140.0Y-55.0
X140.0Y-56.0
X140.0Y-57.0
X140.0Y-69.0
X140.0Y-70.0
X140.0Y-71.0
X141.0Y-1.0
X141.0Y-13.0
X141.0Y-14.0
X141.0Y-15.0
X141.0Y-27.0
X141.0Y-28.0
X141.0Y-29.0
X141.0Y-41.0
X141.0Y-42.0
X141.0Y-43.0
X141.0Y-55.0
X141.0Y-56.0
X141.0Y-57.0
X141.0Y-69.0
X141.0Y-70.0
X141.0Y-71.0
X142.0Y-1.0
X142.0Y-2.0
X142.0Y-12.0
X142.0Y-13.0
X142.0Y-14.0
X142.0Y-15.0
X142.0Y-27.0
X142.0Y-28.0
X142.0Y-29.0
X142.0Y-30.0
X142.0Y-40.0
X142.0Y-41.0
X142.0Y-42.0
X142.0Y-43.0
X142.0Y-55.0
X142.0Y-56.0
X142.0Y-57.0
X142.0Y-58.0
X142.0Y-68.0
X142.0Y-69.0
X142.0Y-70.0
X142.0Y-71.0
X143.0Y-1.0
X143.0Y-2.0
X143.0Y-12.0
X143.0Y-13.0
X143.0Y-14.0
X143.0Y-15.0
X143.0Y-27.0
X143.0Y-28.0
X143.0Y-29.0
X143.0Y-30.0
X143.0Y-40.0
X143.0Y-41.0
X143.0Y-42.0
X143.0Y-43.0
X143.0Y-55.0
X143.0Y-56.0
X143.0Y-57.0
X143.0Y-58.0
X143.0Y-68.0
X143.0Y-69.0
X143.0Y-70.0
X143.0Y-71.0
X144.0Y-1.0
X144.0Y-2.0
X144.0Y-3.0
X144.0Y-11.0
X144.0Y-12.0
X144.0Y-13.0
X144.0Y-14.0
X144.0Y-15.0
X144.0Y-27.0
X144.0Y-28.0
X144.0Y-29.0
X144.0Y-30.0
X144.0Y-31.0
X144.0Y-39.0
X144.0Y-40.0
X144.0Y-41.0
X144.0Y-42.0
X144.0Y-43.0
X144.0Y-55.0
X144.0Y-56.0
X144.0Y-57.0
X144.0Y-58.0
X144.0Y-59.0
X144.0Y-67.0
X144.0Y-68.0
X144.0Y-69.0
X144.0Y-70.0
X144.0Y-71.0
X145.0Y-1.0
X145.0Y-2.0
X145.0Y-3.0
X145.0Y-4.0
X145.0Y-5.0
X145.0Y-9.0
X145.0Y-10.0
X145.0Y-11.0
X145.0Y-12.0
X145.0Y-13.0
X145.0Y-14.0
X145.0Y-15.0
X145.0Y-27.0
X145.0Y-28.0
X145.0Y-29.0
X145.0Y-30.0
X145.0Y-31.0
X145.0Y-32.0
X145.0Y-33.0
X145.0Y-37.0
X145.0Y-38.0
X145.0Y-39.0
X145.0Y-40.0
X145.0Y-41.0
X145.0Y-42.0
X145.0Y-43.0
X145.0Y-55.0
X145.0Y-56.0
X145.0Y-57.0
X145.0Y-58.0
X145.0Y-59.0
X145.0Y-60.0
X145.0Y-61.0
X145.0Y-65.0
X145.0Y-66.0
X145.0Y-67.0
X145.0Y-68.0
X145.0Y-69.0
X145.0Y-70.0
X145.0Y-71.0
X146.0Y-1.0
X146.0Y-2.0
X146.0Y-3.0
X146.0Y-4.0
X146.0Y-5.0
X146.0Y-6.0
X146.0Y-7.0
X146.0Y-8.0
X146.0Y-9.0
X146.0Y-10.0
X146.0Y-11.0
X146.0Y-12.0
X146.0Y-13.0
X146.0Y-14.0
X146.0Y-15.0
X146.0Y-27.0
X146.0Y-28.0
X146.0Y-29.0
X146.0Y-30.0
X146.0Y-31.0
X146.0Y-32.0
X146.0Y-33.0
X146.0Y-34.0
X146.0Y-35.0
X146.0Y-36.0
X146.0Y-37.0
X146.0Y-38.0
X146.0Y-39.0
X146.0Y-40.0
X146.0Y-41.0
X146.0Y-42.0
X146.0Y-43.0
X146.0Y-55.0
X146.0Y-56.0
X146.0Y-57.0
X146.0Y-58.0
X146.0Y-59.0
X146.0Y-60.0
X146.0Y-61.0
X146.0Y-62.0
X146.0Y-63.0
X146.0Y-64.0
X146.0Y-65.0
X146.0Y-66.0
X146.0Y-67.0
X146.0Y-68.0
X146.0Y-69.0
X146.0Y-70.0
X146.0Y-71.0
X147.0Y-1.0
X147.0Y-2.0
X147.0Y-3.0
X147.0Y-4.0
X147.0Y-5.0
X147.0Y-6.0
X147.0Y-7.0
X147.0Y-8.0
X147.0Y-9.0
X147.0Y-10.0
X147.0Y-11.0
X147.0Y-12.0
X147.0Y-13.0
X147.0Y-14.0
X147.0Y-15.0
X147.0Y-27.0
X147.0Y-28.0
X147.0Y-29.0
X147.0Y-30.0
X147.0Y-31.0
X147.0Y-32.0
X147.0Y-33.0
X147.0Y-34.0
X147.0Y-35.0
X147.0Y-36.0
X147.0Y-37.0
X147.0Y-38.0
X147.0Y-39.0
X147.0Y-40.0
X147.0Y-41.0
X147.0Y-42.0
X147.0Y-43.0
X147.0Y-55.0
X147.0Y-56.0
X147.0Y-57.0
X147.0Y-58.0
X147.0Y-59.0
X147.0Y-60.0
X147.0Y-61.0
X147.0Y-62.0
X147.0Y-63.0
X147.0Y-64.0
X147.0Y-65.0
X147.0Y-66.0
X147.0Y-67.0
X147.0Y-68.0
X147.0Y-69.0
X147.0Y-70.0
X147.0Y-71.0
X148.0Y-27.0
X148.0Y-28.0
X148.0Y-29.0
X148.0Y-30.0
X148.0Y-31.0
X148.0Y-32.0
X148.0Y-33.0
X148.0Y-34.0
X148.0Y-35.0
X148.0Y-36.0
X148.0Y-37.0
X148.0Y-38.0
X148.0Y-39.0
X148.0Y-40.0
X148.0Y-41.0
X148.0Y-42.0
X148.0Y-43.0
X148.0Y-55.0
X148.0Y-56.0
X148.0Y-57.0
X148.0Y-58.0
X148.0Y-59.0
X148.0Y-60.0
X148.0Y-61.0
X148.0Y-62.0
X148.0Y-63.0
X148.0Y-64.0
X148.0Y-65.0
X148.0Y-66.0
X148.0Y-67.0
X148.0Y-68.0
X148.0Y-69.0
X148.0Y-70.0
X148.0Y-71.0
X149.0Y-27.0
X149.0Y-28.0
X149.0Y-29.0
X149.0Y-30.0
X149.0Y-31.0
X149.0Y-32.0
X149.0Y-33.0
X149.0Y-34.0
X149.0Y-35.0
X149.0Y-36.0
X149.0Y-37.0
X149.0Y-38.0
X149.0Y-39.0
X149.0Y-40.0
X149.0Y-41.0
X149.0Y-42.0
X149.0Y-43.0
X149.0Y-55.0
X149.0Y-56.0
X149.0Y-57.0
X149.0Y-58.0
X149.0Y-59.0
X149.0Y-60.0
X149.0Y-61.0
X149.0Y-62.0
X149.0Y-63.0
X149.0Y-64.0
X149.0Y-65.0
X149.0Y-66.0
X149.0Y-67.0
X149.0Y-68.0
X149.0Y-69.0
X149.0Y-70.0
X149.0Y-71.0
X150.0Y-27.0
X150.0Y-28.0
X150.0Y-29.0
X150.0Y-30.0
X150.0Y-31.0
X150.0Y-32.0
X150.0Y-33.0
X150.0Y-34.0
X150.0Y-35.0
X150.0Y-36.0
X150.0Y-37.0
X150.0Y-38.0
X150.0Y-39.0
X150.0Y-40.0
X150.0Y-41.0
X150.0Y-42.0
X150.0Y-43.0
X150.0Y-55.0
X150.0Y-56.0
X150.0Y-57.0
X150.0Y-58.0
X150.0Y-59.0
X150.0Y-60.0
X150.0Y-61.0
X150.0Y-62.0
X150.0Y-63.0
X150.0Y-64.0
X150.0Y-65.0
X150.0Y-66.0
X150.0Y-67.0
X150.0Y-68.0
X150.0Y-69.0
X150.0Y-70.0
X150.0Y-71.0
X151.0Y-27.0
X151.0Y-28.0
X151.0Y-29.0
X151.0Y-30.0
X151.0Y-31.0
X151.0Y-32.0
X151.0Y-33.0
X151.0Y-34.0
X151.0Y-35.0
X151.0Y-36.0
X151.0Y-37.0
X151.0Y-38.0
X151.0Y-39.0
X151.0Y-40.0
X151.0Y-41.0
X151.0Y-42.0
X151.0Y-43.0
X151.0Y-55.0
X151.0Y-56.0
X151.0Y-57.0
X151.0Y-58.0
X151.0Y-59.0
X151.0Y-60.0
X151.0Y-61.0
X151.0Y-62.0
X151.0Y-63.0
X151.0Y-64.0
X151.0Y-65.0
X151.0Y-66.0
X151.0Y-67.0
X151.0Y-68.0
X151.0Y-69.0
X151.0Y-70.0
X151.0Y-71.0
X152.0Y-27.0
X152.0Y-28.0
X152.0Y-29.0
X152.0Y-30.0
X152.0Y-31.0
X152.0Y-32.0
X152.0Y-33.0
X152.0Y-34.0
X152.0Y-35.0
X152.0Y-36.0
X152.0Y-37.0
X152.0Y-38.0
X152.0Y-39.0
X152.0Y-40.0
X152.0Y-41.0
X152.0Y-42.0
X152.0Y-43.0
X152.0Y-55.0
X152.0Y-56.0
X152.0Y-57.0
X152.0Y-58.0
X152.0Y-59.0
X152.0Y-60.0
X152.0Y-61.0
X152.0Y-62.0
X152.0Y-63.0
X152.0Y-64.0
X152.0Y-65.0
X152.0Y-66.0
X152.0Y-67.0
X152.0Y-68.0
X152.0Y-69.0
X152.0Y-70.0
X152.0Y-71.0
X153.0Y-27.0
X153.0Y-28.0
X153.0Y-29.0
X153.0Y-30.0
X153.0Y-31.0
X153.0Y-32.0
X153.0Y-33.0
X153.0Y-34.0
X153.0Y-35.0
X153.0Y-36.0
X153.0Y-37.0
X153.0Y-38.0
X153.0Y-39.0
X153.0Y-40.0
X153.0Y-41.0
X153.0Y-42.0
X153.0Y-43.0
X153.0Y-55.0
X153.0Y-56.0
X153.0Y-57.0
X153.0Y-58.0
X153.0Y-59.0
X153.0Y-60.0
X153.0Y-61.0
X153.0Y-62.0
X153.0Y-63.0
X153.0Y-64.0
X153.0Y-65.0
X153.0Y-66.0
X153.0Y-67.0
X153.0Y-68.0
X153.0Y-69.0
X153.0Y-70.0
X154.0Y-27.0
X154.0Y-28.0
X154.0Y-29.0
X154.0Y-30.0
X154.0Y-31.0
X154.0Y-32.0
X154.0Y-33.0
X154.0Y-34.0
X154.0Y-35.0
X154.0Y-36.0
X154.0Y-37.0
X154.0Y-38.0
X154.0Y-39.0
X154.0Y-40.0
X154.0Y-41.0
X154.0Y-42.0
X154.0Y-43.0
X154.0Y-55.0
X154.0Y-56.0
X154.0Y-57.0
X154.0Y-58.0
X154.0Y-59.0
X154.0Y-60.0
X154.0Y-61.0
X154.0Y-62.0
X154.0Y-63.0
X154.0Y-64.0
X154.0Y-65.0
X154.0Y-66.0
X154.0Y-67.0
X154.0Y-68.0
X154.0Y-69.0
X154.0Y-70.0
X155.0Y-27.0
X155.0Y-28.0
X155.0Y-29.0
X155.0Y-30.0
X155.0Y-31.0
X155.0Y-32.0
X155.0Y-33.0
X155.0Y-34.0
X155.0Y-35.0
X155.0Y-36.0
X155.0Y-37.0
X155.0Y-38.0
X155.0Y-39.0
X155.0Y-40.0
X155.0Y-41.0
X155.0Y-42.0
X155.0Y-43.0
X155.0Y-55.0
X155.0Y-56.0
X155.0Y-57.0
X155.0Y-58.0
X155.0Y-59.0
X155.0Y-60.0
X155.0Y-61.0
X155.0Y-62.0
X155.0Y-63.0
X155.0Y-64.0
X155.0Y-65.0
X155.0Y-66.0
X155.0Y-67.0
X155.0Y-68.0
X155.0Y-69.0
X155.0Y-70.0
X156.0Y-27.0
X156.0Y-28.0
X156.0Y-29.0
X156.0Y-30.0
X156.0Y-31.0
X156.0Y-32.0
X156.0Y-33.0
X156.0Y-34.0
X156.0Y-35.0
X156.0Y-36.0
X156.0Y-37.0
X156.0Y-38.0
X156.0Y-39.0
X156.0Y-40.0
X156.0Y-41.0
X156.0Y-42.0
X156.0Y-43.0
X156.0Y-55.0
X156.0Y-56.0
X156.0Y-57.0
X156.0Y-58.0
X156.0Y-59.0
X156.0Y-60.0
X156.0Y-61.0
X156.0Y-62.0
X156.0Y-63.0
X156.0Y-64.0
X156.0Y-65.0
X156.0Y-66.0
X156.0Y-67.0
X156.0Y-68.0
X156.0Y-69.0
X156.0Y-70.0
X156.0Y-71.0
X157.0Y-27.0
X157.0Y-28.0
X157.0Y-29.0
X157.0Y-30.0
X157.0Y-31.0
X157.0Y-32.0
X157.0Y-33.0
X157.0Y-34.0
X157.0Y-35.0
X157.0Y-36.0
X157.0Y-37.0
X157.0Y-38.0
X157.0Y-39.0
X157.0Y-40.0
X157.0Y-41.0
X157.0Y-42.0
X157.0Y-43.0
X157.0Y-55.0
X157.0Y-56.0
X157.0Y-57.0
X157.0Y-58.0
X157.0Y-59.0
X157.0Y-60.0
X157.0Y-61.0
X157.0Y-62.0
X157.0Y-63.0
X157.0Y-64.0
X157.0Y-65.0
X157.0Y-66.0
X157.0Y-67.0
X157.0Y-68.0
X157.0Y-69.0
X157.0Y-70.0
X157.0Y-71.0
X158.0Y-27.0
X158.0Y-28.0
X158.0Y-29.0
X158.0Y-30.0
X158.0Y-31.0
X158.0Y-32.0
X158.0Y-33.0
X158.0Y-34.0
X158.0Y-35.0
X158.0Y-36.0
X158.0Y-37.0
X158.0Y-38.0
X158.0Y-39.0
X158.0Y-40.0
X158.0Y-41.0
X158.0Y-42.0
X158.0Y-43.0
X158.0Y-55.0
X158.0Y-56.0
X158.0Y-57.0
X158.0Y-58.0
X158.0Y-59.0
X158.0Y-60.0
X158.0Y-61.0
X158.0Y-62.0
X158.0Y-63.0
X158.0Y-64.0
X158.0Y-65.0
X158.0Y-66.0
X158.0Y-67.0
X158.0Y-68.0
X158.0Y-69.0
X158.0Y-70.0
X158.0Y-71.0
X159.0Y-27.0
X159.0Y-28.0
X159.0Y-29.0
X159.0Y-30.0
X159.0Y-31.0
X159.0Y-32.0
X159.0Y-33.0
X159.0Y-34.0
X159.0Y-35.0
X159.0Y-36.0
X159.0Y-37.0
X159.0Y-38.0
X159.0Y-39.0
X159.0Y-40.0
X159.0Y-41.0
X159.0Y-42.0
X159.0Y-43.0
X159.0Y-55.0
X159.0Y-56.0
X159.0Y-57.0
X159.0Y-58.0
X159.0Y-59.0
X159.0Y-60.0
X159.0Y-61.0
X159.0Y-62.0
X159.0Y-63.0
X159.0Y-64.0
X159.0Y-65.0
X159.0Y-66.0
X159.0Y-67.0
X159.0Y-68.0
X159.0Y-69.0
X159.0Y-70.0
X159.0Y-71.0
X160.0Y-27.0
X160.0Y-28.0
X160.0Y-29.0
X160.0Y-30.0
X160.0Y-31.0
X160.0Y-32.0
X160.0Y-33.0
X160.0Y-34.0
X160.0Y-35.0
X160.0Y-36.0
X160.0Y-37.0
X160.0Y-38.0
X160.0Y-39.0
X160.0Y-40.0
X160.0Y-41.0
X160.0Y-42.0
X160.0Y-43.0
X160.0Y-55.0
X160.0Y-56.0
X160.0Y-57.0
X160.0Y-58.0
X160.0Y-59.0
X160.0Y-60.0
X160.0Y-61.0
X160.0Y-62.0
X160.0Y-63.0
X160.0Y-64.0
X160.0Y-65.0
X160.0Y-66.0
X160.0Y-67.0
X160.0Y-68.0
X160.0Y-69.0
X160.0Y-70.0
X160.0Y-71.0
X161.0Y-27.0
X161.0Y-28.0
X161.0Y-29.0
X161.0Y-30.0
X161.0Y-31.0
X161.0Y-32.0
X161.0Y-33.0
X161.0Y-34.0
X161.0Y-35.0
X161.0Y-36.0
X161.0Y-37.0
X161.0Y-38.0
X161.0Y-39.0
X161.0Y-40.0
X161.0Y-41.0
X161.0Y-42.0
X161.0Y-43.0
X161.0Y-55.0
X161.0Y-56.0
X161.0Y-57.0
X161.0Y-58.0
X161.0Y-59.0
X161.0Y-60.0
X161.0Y-61.0
X161.0Y-62.0
X161.0Y-63.0
X161.0Y-64.0
X161.0Y-65.0
X161.0Y-66.0
X161.0Y-67.0
X161.0Y-68.0
X161.0Y-69.0
X161.0Y-70.0
X161.0Y-71.0
X162.0Y-27.0
X162.0Y-28.0
X162.0Y-29.0
X162.0Y-30.0
X162.0Y-31.0
X162.0Y-32.0
X162.0Y-33.0
X162.0Y-34.0
X162.0Y-35.0
X162.0Y-36.0
X162.0Y-37.0
X162.0Y-38.0
X162.0Y-39.0
X162.0Y-40.0
X162.0Y-41.0
X162.0Y-42.0
X162.0Y-43.0
X162.0Y-55.0
X162.0Y-56.0
X162.0Y-57.0
X162.0Y-58.0
X162.0Y-59.0
X162.0Y-60.0
X162.0Y-61.0
X162.0Y-62.0
X162.0Y-63.0
X162.0Y-64.0
X162.0Y-65.0
X162.0Y-66.0
X162.0Y-67.0
X162.0Y-68.0
X162.0Y-69.0
X162.0Y-70.0
X162.0Y-71.0
X163.0Y-27.0
X163.0Y-28.0
X163.0Y-29.0
X163.0Y-30.0
X163.0Y-31.0
X163.0Y-32.0
X163.0Y-33.0
X163.0Y-34.0
X163.0Y-35.0
X163.0Y-36.0
X163.0Y-37.0
X163.0Y-38.0
X163.0Y-39.0
X163.0Y-40.0
X163.0Y-41.0
X163.0Y-42.0
X163.0Y-43.0
X163.0Y-55.0
X163.0Y-56.0
X163.0Y-57.0
X163.0Y-58.0
X163.0Y-59.0
X163.0Y-60.0
X163.0Y-61.0
X163.0Y-62.0
X163.0Y-63.0
X163.0Y-64.0
X163.0Y-65.0
X163.0Y-66.0
X163.0Y-67.0
X163.0Y-68.0
X163.0Y-69.0
X163.0Y-70.0
X163.0Y-71.0
X164.0Y-27.0
X164.0Y-28.0
X164.0Y-29.0
X164.0Y-30.0
X164.0Y-31.0
X164.0Y-32.0
X164.0Y-33.0
X164.0Y-34.0
X164.0Y-35.0
X164.0Y-36.0
X164.0Y-37.0
X164.0Y-38.0
X164.0Y-39.0
X164.0Y-40.0
X164.0Y-41.0
X164.0Y-42.0
X164.0Y-43.0
X164.0Y-55.0
X164.0Y-56.0
X164.0Y-57.0
X164.0Y-58.0
X164.0Y-59.0
X164.0Y-60.0
X164.0Y-61.0
X164.0Y-62.0
X164.0Y-63.0
X164.0Y-64.0
X164.0Y-65.0
X164.0Y-66.0
X164.0Y-67.0
X164.0Y-68.0
X164.0Y-69.0
X164.0Y-70.0
X164.0Y-71.0
X165.0Y-27.0
X165.0Y-28.0
X165.0Y-29.0
X165.0Y-30.0
X165.0Y-31.0
X165.0Y-32.0
X165.0Y-33.0
X165.0Y-34.0
X165.0Y-35.0
X165.0Y-36.0
X165.0Y-37.0
X165.0Y-38.0
X165.0Y-39.0
X165.0Y-40.0
X165.0Y-41.0
X165.0Y-42.0
X165.0Y-43.0
X165.0Y-55.0
X165.0Y-56.0
X165.0Y-57.0
X165.0Y-58.0
X165.0Y-59.0
X165.0Y-60.0
X165.0Y-61.0
X165.0Y-62.0
X165.0Y-63.0
X165.0Y-64.0
X165.0Y-65.0
X165.0Y-66.0
X165.0Y-67.0
X165.0Y-68.0
X165.0Y-69.0
X165.0Y-70.0
X165.0Y-71.0
X166.0Y-27.0
X166.0Y-28.0
X166.0Y-29.0
X166.0Y-30.0
X166.0Y-31.0
X166.0Y-32.0
X166.0Y-33.0
X166.0Y-34.0
X166.0Y-35.0
X166.0Y-36.0
X166.0Y-37.0
X166.0Y-38.0
X166.0Y-39.0
X166.0Y-40.0
X166.0Y-41.0
X166.0Y-42.0
X166.0Y-43.0
X166.0Y-55.0
X166.0Y-56.0
X166.0Y-57.0
X166.0Y-58.0
X166.0Y-59.0
X166.0Y-60.0
X166.0Y-61.0
X166.0Y-62.0
X166.0Y-63.0
X166.0Y-64.0
X166.0Y-65.0
X166.0Y-66.0
X166.0Y-67.0
X166.0Y-68.0
X166.0Y-69.0
X166.0Y-70.0
X166.0Y-71.0
X167.0Y-27.0
X167.0Y-28.0
X167.0Y-29.0
X167.0Y-30.0
X167.0Y-31.0
X167.0Y-32.0
X167.0Y-33.0
X167.0Y-34.0
X167.0Y-35.0
X167.0Y-36.0
X167.0Y-37.0
X167.0Y-38.0
X167.0Y-39.0
X167.0Y-40.0
X167.0Y-41.0
X167.0Y-42.0
X167.0Y-43.0
X167.0Y-55.0
X167.0Y-56.0
X167.0Y-57.0
X167.0Y-58.0
X167.0Y-59.0
X167.0Y-60.0
X167.0Y-61.0
X167.0Y-62.0
X167.0Y-63.0
X167.0Y-64.0
X167.0Y-65.0
X167.0Y-66.0
X167.0Y-67.0
X167.0Y-68.0
X167.0Y-69.0
X167.0Y-70.0
X167.0Y-71.0
X168.0Y-27.0
X168.0Y-28.0
X168.0Y-29.0
X168.0Y-30.0
X168.0Y-31.0
X168.0Y-32.0
X168.0Y-33.0
X168.0Y-34.0
X168.0Y-35.0
X168.0Y-36.0
X168.0Y-37.0
X168.0Y-38.0
X168.0Y-39.0
X168.0Y-40.0
X168.0Y-41.0
X168.0Y-42.0
X168.0Y-43.0
X168.0Y-55.0
X168.0Y-56.0
X168.0Y-57.0
X168.0Y-58.0
X168.0Y-59.0
X168.0Y-60.0
X168.0Y-61.0
X168.0Y-62.0
X168.0Y-63.0
X168.0Y-64.0
X168.0Y-65.0
X168.0Y-66.0
X168.0Y-67.0
X168.0Y-68.0
X168.0Y-69.0
X168.0Y-70.0
X168.0Y-71.0
X169.0Y-27.0
X169.0Y-28.0
X169.0Y-29.0
X169.0Y-30.0
X169.0Y-31.0
X169.0Y-32.0
X169.0Y-33.0
X169.0Y-34.0
X169.0Y-35.0
X169.0Y-36.0
X169.0Y-37.0
X169.0Y-38.0
X169.0Y-39.0
X169.0Y-40.0
X169.0Y-41.0
X169.0Y-42.0
X169.0Y-43.0
X169.0Y-55.0
X169.0Y-56.0
X169.0Y-57.0
X169.0Y-58.0
X169.0Y-59.0
X169.0Y-60.0
X169.0Y-61.0
X169.0Y-62.0
X169.0Y-63.0
X169.0Y-64.0
X169.0Y-65.0
X169.0Y-66.0
X169.0Y-67.0
X169.0Y-68.0
X169.0Y-69.0
X169.0Y-70.0
X169.0Y-71.0
X170.0Y-27.0
X170.0Y-28.0
X170.0Y-29.0
X170.0Y-30.0
X170.0Y-31.0
X170.0Y-32.0
X170.0Y-33.0
X170.0Y-34.0
X170.0Y-35.0
X170.0Y-36.0
X170.0Y-37.0
X170.0Y-38.0
X170.0Y-39.0
X170.0Y-40.0
X170.0Y-41.0
X170.0Y-42.0
X170.0Y-43.0
X170.0Y-55.0
X170.0Y-56.0
X170.0Y-57.0
X170.0Y-58.0
X170.0Y-59.0
X170.0Y-60.0
X170.0Y-61.0
X170.0Y-62.0
X170.0Y-63.0
X170.0Y-64.0
X170.0Y-65.0
X170.0Y-66.0
X170.0Y-67.0
X170.0Y-68.0
X170.0Y-69.0
X170.0Y-70.0
X170.0Y-71.0
X171.0Y-27.0
X171.0Y-28.0
X171.0Y-29.0
X171.0Y-30.0
X171.0Y-31.0
X171.0Y-32.0
X171.0Y-33.0
X171.0Y-34.0
X171.0Y-35.0
X171.0Y-36.0
X171.0Y-37.0
X171.0Y-38.0
X171.0Y-39.0
X171.0Y-40.0
X171.0Y-41.0
X171.0Y-42.0
X171.0Y-43.0
X171.0Y-55.0
X171.0Y-56.0
X171.0Y-57.0
X171.0Y-58.0
X171.0Y-59.0
X171.0Y-60.0
X171.0Y-61.0
X171.0Y-62.0
X171.0Y-63.0
X171.0Y-64.0
X171.0Y-65.0
X171.0Y-66.0
X171.0Y-67.0
X171.0Y-68.0
X171.0Y-69.0
X171.0Y-70.0
X171.0Y-71.0
X172.0Y-27.0
X172.0Y-28.0
X172.0Y-29.0
X172.0Y-30.0
X172.0Y-31.0
X172.0Y-32.0
X172.0Y-33.0
X172.0Y-34.0
X172.0Y-35.0
X172.0Y-36.0
X172.0Y-37.0
X172.0Y-38.0
X172.0Y-39.0
X172.0Y-40.0
X172.0Y-41.0
X172.0Y-42.0
X172.0Y-43.0
X172.0Y-55.0
X172.0Y-56.0
X172.0Y-57.0
X172.0Y-58.0
X172.0Y-59.0
X172.0Y-60.0
X172.0Y-61.0
X172.0Y-62.0
X172.0Y-63.0
X172.0Y-64.0
X172.0Y-65.0
X172.0Y-66.0
X172.0Y-67.0
X172.0Y-68.0
X172.0Y-69.0
X172.0Y-70.0
X172.0Y-71.0
X173.0Y-27.0
X173.0Y-28.0
X173.0Y-29.0
X173.0Y-30.0
X173.0Y-31.0
X173.0Y-32.0
X173.0Y-33.0
X173.0Y-34.0
X173.0Y-35.0
X173.0Y-36.0
X173.0Y-37.0
X173.0Y-38.0
X173.0Y-39.0
X173.0Y-40.0
X173.0Y-41.0
X173.0Y-42.0
X173.0Y-43.0
X173.0Y-55.0
X173.0Y-56.0
X173.0Y-57.0
X173.0Y-58.0
X173.0Y-59.0
X173.0Y-60.0
X173.0Y-61.0
X173.0Y-62.0
X173.0Y-63.0
X173.0Y-64.0
X173.0Y-65.0
X173.0Y-66.0
X173.0Y-67.0
X173.0Y-68.0
X173.0Y-69.0
X173.0Y-70.0
X174.0Y-27.0
X174.0Y-28.0
X174.0Y-29.0
X174.0Y-30.0
X174.0Y-31.0
X174.0Y-32.0
X174.0Y-33.0
X174.0Y-34.0
X174.0Y-35.0
X174.0Y-36.0
X174.0Y-37.0
X174.0Y-38.0
X174.0Y-39.0
X174.0Y-40.0
X174.0Y-41.0
X174.0Y-42.0
X174.0Y-43.0
X174.0Y-55.0
X174.0Y-56.0
X174.0Y-57.0
X174.0Y-58.0
X174.0Y-59.0
X174.0Y-60.0
X174.0Y-61.0
X174.0Y-62.0
X174.0Y-63.0
X174.0Y-64.0
X174.0Y-65.0
X174.0Y-66.0
X174.0Y-67.0
X174.0Y-68.0
X174.0Y-69.0
X174.0Y-70.0
X175.0Y8.0
X175.0Y7.0
X175.0Y6.0
X175.0Y5.0
X175.0Y4.0
X175.0Y3.0
X175.0Y2.0
X175.0Y1.0
X175.0Y0.0
X175.0Y-1.0
X175.0Y-2.0
X175.0Y-3.0
X175.0Y-4.0
X175.0Y-5.0
X175.0Y-6.0
X175.0Y-7.0
X175.0Y-27.0
X175.0Y-28.0
X175.0Y-29.0
X175.0Y-30.0
X175.0Y-31.0
X175.0Y-32.0
X175.0Y-33.0
X175.0Y-34.0
X175.0Y-35.0
X175.0Y-36.0
X175.0Y-37.0
X175.0Y-38.0
X175.0Y-39.0
X175.0Y-40.0
X175.0Y-41.0
X175.0Y-42.0
X175.0Y-43.0
X175.0Y-55.0
X175.0Y-56.0
X175.0Y-57.0
X175.0Y-58.0
X175.0Y-59.0
X175.0Y-60.0
X175.0Y-61.0
X175.0Y-62.0
X175.0Y-63.0
X175.0Y-64.0
X175.0Y-65.0
X175.0Y-66.0
X175.0Y-67.0
X175.0Y-68.0
X175.0Y-69.0
X175.0Y-70.0
X175.0Y-81.0
X175.0Y-82.0
X175.0Y-83.0
X175.0Y-84.0
X175.0Y-85.0
X175.0Y-86.0
X176.0Y8.0
X176.0Y7.0
X176.0Y6.0
X176.0Y5.0
X176.0Y4.0
X176.0Y3.0
X176.0Y2.0
X176.0Y1.0
X176.0Y0.0
X176.0Y-1.0
X176.0Y-2.0
X176.0Y-3.0
X176.0Y-4.0
X176.0Y-5.0
X176.0Y-6.0
X176.0Y-7.0
X176.0Y-27.0
X176.0Y-28.0
X176.0Y-29.0
X176.0Y-30.0
X176.0Y-31.0
X176.0Y-32.0
X176.0Y-33.0
X176.0Y-34.0
X176.0Y-35.0
X176.0Y-36.0
X176.0Y-37.0
X176.0Y-38.0
X176.0Y-39.0
X176.0Y-40.0
X176.0Y-41.0
X176.0Y-42.0
X176.0Y-43.0
X176.0Y-55.0
X176.0Y-56.0
X176.0Y-57.0
X176.0Y-58.0
X176.0Y-59.0
X176.0Y-60.0
X176.0Y-61.0
X176.0Y-62.0
X176.0Y-63.0
X176.0Y-64.0
X176.0Y-65.0
X176.0Y-66.0
X176.0Y-67.0
X176.0Y-68.0
X176.0Y-69.0
X176.0Y-70.0
X176.0Y-71.0
X176.0Y-80.0
X176.0Y-81.0
X176.0Y-82.0
X176.0Y-83.0
X176.0Y-84.0
X176.0Y-85.0
X176.0Y-86.0
X177.0Y8.0
X177.0Y7.0
X177.0Y6.0
X177.0Y5.0
X177.0Y4.0
X177.0Y3.0
X177.0Y2.0
X177.0Y1.0
X177.0Y0.0
X177.0Y-1.0
X177.0Y-2.0
X177.0Y-3.0
X177.0Y-4.0
X177.0Y-5.0
X177.0Y-6.0
X177.0Y-7.0
X177.0Y-27.0
X177.0Y-28.0
X177.0Y-29.0
X177.0Y-30.0
X177.0Y-31.0
X177.0Y-32.0
X177.0Y-33.0
X177.0Y-34.0
X177.0Y-35.0
X177.0Y-36.0
X177.0Y-37.0
X177.0Y-38.0
X177.0Y-39.0
X177.0Y-40.0
X177.0Y-41.0
X177.0Y-42.0
X177.0Y-43.0
X177.0Y-55.0
X177.0Y-56.0
X177.0Y-57.0
X177.0Y-58.0
X177.0Y-59.0
X177.0Y-60.0
X177.0Y-61.0
X177.0Y-62.0
X177.0Y-63.0
X177.0Y-64.0
X177.0Y-65.0
X177.0Y-66.0
X177.0Y-67.0
X177.0Y-68.0
X177.0Y-69.0
X177.0Y-70.0
X177.0Y-71.0
X177.0Y-79.0
X177.0Y-80.0
X177.0Y-81.0
X177.0Y-82.0
X177.0Y-83.0
X177.0Y-84.0
X177.0Y-85.0
X177.0Y-86.0
X178.0Y8.0
X178.0Y7.0
X178.0Y6.0
X178.0Y5.0
X178.0Y4.0
X178.0Y3.0
X178.0Y2.0
X178.0Y1.0
X178.0Y0.0
X178.0Y-1.0
X178.0Y-2.0
X178.0Y-3.0
X178.0Y-4.0
X178.0Y-5.0
X178.0Y-6.0
X178.0Y-7.0
X178.0Y-27.0
X178.0Y-28.0
X178.0Y-29.0
X178.0Y-30.0
X178.0Y-31.0
X178.0Y-32.0
X178.0Y-33.0
X178.0Y-34.0
X178.0Y-35.0
X178.0Y-36.0
X178.0Y-37.0
X178.0Y-38.0
X178.0Y-39.0
X178.0Y-40.0
X178.0Y-41.0
X178.0Y-42.0
X178.0Y-43.0
X178.0Y-55.0
X178.0Y-56.0
X178.0Y-57.0
X178.0Y-58.0
X178.0Y-59.0
X178.0Y-60.0
X178.0Y-61.0
X178.0Y-62.0
X178.0Y-63.0
X178.0Y-64.0
X178.0Y-65.0
X178.0Y-66.0
X178.0Y-67.0
X178.0Y-68.0
X178.0Y-69.0
X178.0Y-70.0
X178.0Y-78.0
X178.0Y-79.0
X178.0Y-80.0
X178.0Y-81.0
X178.0Y-82.0
X178.0Y-83.0
X178.0Y-84.0
X178.0Y-85.0
X178.0Y-86.0
X179.0Y8.0
X179.0Y7.0
X179.0Y6.0
X179.0Y5.0
X179.0Y4.0
X179.0Y3.0
X179.0Y2.0
X179.0Y1.0
X179.0Y0.0
X179.0Y-1.0
X179.0Y-2.0
X179.0Y-3.0
X179.0Y-4.0
X179.0Y-5.0
X179.0Y-6.0
X179.0Y-7.0
X179.0Y-27.0
X179.0Y-28.0
X179.0Y-29.0
X179.0Y-30.0
X179.0Y-31.0
X179.0Y-32.0
X179.0Y-33.0
X179.0Y-34.0
X179.0Y-35.0
X179.0Y-36.0
X179.0Y-37.0
X179.0Y-38.0
X179.0Y-39.0
X179.0Y-40.0
X179.0Y-41.0
X179.0Y-42.0
X179.0Y-43.0
X179.0Y-55.0
X179.0Y-56.0
X179.0Y-57.0
X179.0Y-58.0
X179.0Y-59.0
X179.0Y-60.0
X179.0Y-61.0
X179.0Y-62.0
X179.0Y-63.0
X179.0Y-64.0
X179.0Y-65.0
X179.0Y-66.0
X179.0Y-67.0
X179.0Y-68.0
X179.0Y-69.0
X179.0Y-70.0
X179.0Y-77.0
X179.0Y-78.0
X179.0Y-79.0
X179.0Y-80.0
X179.0Y-81.0
X179.0Y-82.0
X179.0Y-83.0
X179.0Y-84.0
X179.0Y-85.0
X179.0Y-86.0
X180.0Y8.0
X180.0Y7.0
X180.0Y6.0
X180.0Y5.0
X180.0Y1.0
X180.0Y0.0
X180.0Y-1.0
X180.0Y-2.0
X180.0Y-3.0
X180.0Y-4.0
X180.0Y-5.0
X180.0Y-6.0
X180.0Y-7.0
X180.0Y-27.0
X180.0Y-28.0
X180.0Y-29.0
X180.0Y-30.0
X180.0Y-31.0
X180.0Y-32.0
X180.0Y-33.0
X180.0Y-34.0
X180.0Y-35.0
X180.0Y-36.0
X180.0Y-37.0
X180.0Y-38.0
X180.0Y-39.0
X180.0Y-40.0
X180.0Y-41.0
X180.0Y-42.0
X180.0Y-43.0
X180.0Y-55.0
X180.0Y-56.0
X180.0Y-57.0
X180.0Y-58.0
X180.0Y-59.0
X180.0Y-60.0
X180.0Y-61.0
X180.0Y-62.0
X180.0Y-63.0
X180.0Y-64.0
X180.0Y-65.0
X180.0Y-66.0
X180.0Y-67.0
X180.0Y-68.0
X180.0Y-69.0
X180.0Y-70.0
X180.0Y-76.0
X180.0Y-77.0
X180.0Y-78.0
X180.0Y-79.0
X180.0Y-83.0
X180.0Y-84.0
X180.0Y-85.0
X180.0Y-86.0
X181.0Y8.0
X181.0Y7.0
X181.0Y-1.0
X181.0Y-2.0
X181.0Y-3.0
X181.0Y-4.0
X181.0Y-5.0
X181.0Y-6.0
X181.0Y-7.0
X181.0Y-27.0
X181.0Y-28.0
X181.0Y-29.0
X181.0Y-30.0
X181.0Y-31.0
X181.0Y-32.0
X181.0Y-33.0
X181.0Y-34.0
X181.0Y-35.0
X181.0Y-36.0
X181.0Y-37.0
X181.0Y-38.0
X181.0Y-39.0
X181.0Y-40.0
X181.0Y-41.0
X181.0Y-42.0
X181.0Y-43.0
X181.0Y-55.0
X181.0Y-56.0
X181.0Y-57.0
X181.0Y-58.0
X181.0Y-59.0
X181.0Y-60.0
X181.0Y-61.0
X181.0Y-62.0
X181.0Y-63.0
X181.0Y-64.0
X181.0Y-65.0
X181.0Y-66.0
X181.0Y-67.0
X181.0Y-68.0
X181.0Y-69.0
X181.0Y-70.0
X181.0Y-76.0
X181.0Y-77.0
X181.0Y-85.0
X181.0Y-86.0
X182.0Y8.0
X182.0Y-2.0
X182.0Y-3.0
X182.0Y-4.0
X182.0Y-5.0
X182.0Y-6.0
X182.0Y-7.0
X182.0Y-27.0
X182.0Y-28.0
X182.0Y-29.0
X182.0Y-30.0
X182.0Y-31.0
X182.0Y-32.0
X182.0Y-33.0
X182.0Y-34.0
X182.0Y-35.0
X182.0Y-36.0
X182.0Y-37.0
X182.0Y-38.0
X182.0Y-39.0
X182.0Y-40.0
X182.0Y-41.0
X182.0Y-42.0
X182.0Y-43.0
X182.0Y-55.0
X182.0Y-56.0
X182.0Y-57.0
X182.0Y-58.0
X182.0Y-59.0
X182.0Y-60.0
X182.0Y-61.0
X182.0Y-62.0
X182.0Y-63.0
X182.0Y-64.0
X182.0Y-65.0
X182.0Y-66.0
X182.0Y-67.0
X182.0Y-68.0
X182.0Y-69.0
X182.0Y-70.0
X182.0Y-76.0
X182.0Y-86.0
X183.0Y8.0
X183.0Y-2.0
X183.0Y-3.0
X183.0Y-4.0
X183.0Y-5.0
X183.0Y-6.0
X183.0Y-7.0
X183.0Y-76.0
X183.0Y-86.0
X184.0Y-3.0
X184.0Y-4.0
X184.0Y-5.0
X184.0Y-6.0
X184.0Y-7.0
X185.0Y-3.0
X185.0Y-4.0
X185.0Y-5.0
X185.0Y-6.0
X185.0Y-7.0
X186.0Y-3.0
X186.0Y-4.0
X186.0Y-5.0
X186.0Y-6.0
X186.0Y-7.0
X187.0Y8.0
X187.0Y-2.0
X187.0Y-3.0
X187.0Y-4.0
X187.0Y-5.0
X187.0Y-6.0
X187.0Y-7.0
X187.0Y-27.0
X187.0Y-28.0
X187.0Y-29.0
X187.0Y-30.0
X187.0Y-31.0
X187.0Y-32.0
X187.0Y-33.0
X187.0Y-34.0
X187.0Y-35.0
X187.0Y-36.0
X187.0Y-37.0
X187.0Y-38.0
X187.0Y-39.0
X187.0Y-40.0
X187.0Y-41.0
X187.0Y-42.0
X187.0Y-43.0
X187.0Y-55.0
X187.0Y-56.0
X187.0Y-57.0
X187.0Y-58.0
X187.0Y-59.0
X187.0Y-60.0
X187.0Y-61.0
X187.0Y-62.0
X187.0Y-63.0
X187.0Y-64.0
X187.0Y-65.0
X187.0Y-66.0
X187.0Y-67.0
X187.0Y-68.0
X187.0Y-69.0
X187.0Y-70.0
X187.0Y-76.0
X187.0Y-86.0
X188.0Y8.0
X188.0Y-2.0
X188.0Y-3.0
X188.0Y-4.0
X188.0Y-5.0
X188.0Y-6.0
X188.0Y-7.0
X188.0Y-27.0
X188.0Y-28.0
X188.0Y-29.0
X188.0Y-30.0
X188.0Y-31.0
X188.0Y-32.0
X188.0Y-33.0
X188.0Y-34.0
X188.0Y-35.0
X188.0Y-36.0
X188.0Y-37.0
X188.0Y-38.0
X188.0Y-39.0
X188.0Y-40.0
X188.0Y-41.0
X188.0Y-42.0
X188.0Y-43.0
X188.0Y-55.0
X188.0Y-56.0
X188.0Y-57.0
X188.0Y-58.0
X188.0Y-59.0
X188.0Y-60.0
X188.0Y-61.0
X188.0Y-62.0
X188.0Y-63.0
X188.0Y-64.0
X188.0Y-65.0
X188.0Y-66.0
X188.0Y-67.0
X188.0Y-68.0
X188.0Y-69.0
X188.0Y-70.0
X188.0Y-76.0
X188.0Y-86.0
X189.0Y8.0
X189.0Y7.0
X189.0Y-1.0
X189.0Y-2.0
X189.0Y-3.0
X189.0Y-4.0
X189.0Y-5.0
X189.0Y-6.0
X189.0Y-7.0
X189.0Y-27.0
X189.0Y-28.0
X189.0Y-29.0
X189.0Y-30.0
X189.0Y-31.0
X189.0Y-32.0
X189.0Y-33.0
X189.0Y-34.0
X189.0Y-35.0
X189.0Y-36.0
X189.0Y-37.0
X189.0Y-38.0
X189.0Y-39.0
X189.0Y-40.0
X189.0Y-41.0
X189.0Y-42.0
X189.0Y-43.0
X189.0Y-55.0
X189.0Y-56.0
X189.0Y-57.0
X189.0Y-58.0
X189.0Y-59.0
X189.0Y-60.0
X189.0Y-61.0
X189.0Y-62.0
X189.0Y-63.0
X189.0Y-64.0
X189.0Y-65.0
X189.0Y-66.0
X189.0Y-67.0
X189.0Y-68.0
X189.0Y-69.0
X189.0Y-70.0
X189.0Y-76.0
X189.0Y-77.0
X189.0Y-85.0
X189.0Y-86.0
X190.0Y8.0
X190.0Y7.0
X190.0Y6.0
X190.0Y5.0
X190.0Y1.0
X190.0Y0.0
X190.0Y-1.0
X190.0Y-2.0
X190.0Y-3.0
X190.0Y-4.0
X190.0Y-5.0
X190.0Y-6.0
X190.0Y-7.0
X190.0Y-27.0
X190.0Y-28.0
X190.0Y-29.0
X190.0Y-30.0
X190.0Y-31.0
X190.0Y-32.0
X190.0Y-33.0
X190.0Y-34.0
X190.0Y-35.0
X190.0Y-36.0
X190.0Y-37.0
X190.0Y-38.0
X190.0Y-39.0
X190.0Y-40.0
X190.0Y-41.0
X190.0Y-42.0
X190.0Y-43.0
X190.0Y-55.0
X190.0Y-56.0
X190.0Y-57.0
X190.0Y-58.0
X190.0Y-59.0
X190.0Y-60.0
X190.0Y-61.0
X190.0Y-62.0
X190.0Y-63.0
X190.0Y-64.0
X190.0Y-65.0
X190.0Y-66.0
X190.0Y-67.0
X190.0Y-68.0
X190.0Y-69.0
X190.0Y-70.0
X190.0Y-76.0
X190.0Y-77.0
X190.0Y-78.0
X190.0Y-79.0
X190.0Y-83.0
X190.0Y-84.0
X190.0Y-85.0
X190.0Y-86.0
X191.0Y8.0
X191.0Y7.0
X191.0Y6.0
X191.0Y5.0
X191.0Y4.0
X191.0Y3.0
X191.0Y2.0
X191.0Y1.0
X191.0Y0.0
X191.0Y-1.0
X191.0Y-2.0
X191.0Y-3.0
X191.0Y-4.0
X191.0Y-5.0
X191.0Y-6.0
X191.0Y-7.0
X191.0Y-27.0
X191.0Y-28.0
X191.0Y-29.0
X191.0Y-30.0
X191.0Y-31.0
X191.0Y-32.0
X191.0Y-33.0
X191.0Y-34.0
X191.0Y-35.0
X191.0Y-36.0
X191.0Y-37.0
X191.0Y-38.0
X191.0Y-39.0
X191.0Y-40.0
X191.0Y-41.0
X191.0Y-42.0
X191.0Y-43.0
X191.0Y-55.0
X191.0Y-56.0
X191.0Y-57.0
X191.0Y-58.0
X191.0Y-59.0
X191.0Y-60.0
X191.0Y-61.0
X191.0Y-62.0
X191.0Y-63.0
X191.0Y-64.0
X191.0Y-65.0
X191.0Y-66.0
X191.0Y-67.0
X191.0Y-68.0
X191.0Y-69.0
X191.0Y-70.0
X191.0Y-76.0
X191.0Y-77.0
X191.0Y-78.0
X191.0Y-79.0
X191.0Y-80.0
X191.0Y-81.0
X191.0Y-82.0
X191.0Y-83.0
X191.0Y-84.0
X191.0Y-85.0
X191.0Y-86.0
X192.0Y8.0
X192.0Y7.0
X192.0Y6.0
X192.0Y5.0
X192.0Y4.0
X192.0Y3.0
X192.0Y2.0
X192.0Y1.0
X192.0Y0.0
X192.0Y-1.0
X192.0Y-2.0
X192.0Y-3.0
X192.0Y-4.0
X192.0Y-5.0
X192.0Y-6.0
X192.0Y-7.0
X192.0Y-27.0
X192.0Y-28.0
X192.0Y-29.0
X192.0Y-30.0
X192.0Y-31.0
X192.0Y-32.0
X192.0Y-33.0
X192.0Y-34.0
X192.0Y-35.0
X192.0Y-36.0
X192.0Y-37.0
X192.0Y-38.0
X192.0Y-39.0
X192.0Y-40.0
X192.0Y-41.0
X192.0Y-42.0
X192.0Y-43.0
X192.0Y-55.0
X192.0Y-56.0
X192.0Y-57.0
X192.0Y-58.0
X192.0Y-59.0
X192.0Y-60.0
X192.0Y-61.0
X192.0Y-62.0
X192.0Y-63.0
X192.0Y-64.0
X192.0Y-65.0
X192.0Y-66.0
X192.0Y-67.0
X192.0Y-68.0
X192.0Y-69.0
X192.0Y-70.0
X192.0Y-76.0
X192.0Y-77.0
X192.0Y-78.0
X192.0Y-79.0
X192.0Y-80.0
X192.0Y-81.0
X192.0Y-82.0
X192.0Y-83.0
X192.0Y-84.0
X192.0Y-85.0
X192.0Y-86.0
X193.0Y8.0
X193.0Y7.0
X193.0Y6.0
X193.0Y5.0
X193.0Y4.0
X193.0Y3.0
X193.0Y2.0
X193.0Y1.0
X193.0Y0.0
X193.0Y-1.0
X193.0Y-2.0
X193.0Y-3.0
X193.0Y-4.0
X193.0Y-5.0
X193.0Y-6.0
X193.0Y-7.0
X193.0Y-27.0
X193.0Y-28.0
X193.0Y-29.0
X193.0Y-30.0
X193.0Y-31.0
X193.0Y-32.0
X193.0Y-33.0
X193.0Y-34.0
X193.0Y-35.0
X193.0Y-36.0
X193.0Y-37.0
X193.0Y-38.0
X193.0Y-39.0
X193.0Y-40.0
X193.0Y-41.0
X193.0Y-42.0
X193.0Y-43.0
X193.0Y-55.0
X193.0Y-56.0
X193.0Y-57.0
X193.0Y-58.0
X193.0Y-59.0
X193.0Y-60.0
X193.0Y-61.0
X193.0Y-62.0
X193.0Y-63.0
X193.0Y-64.0
X193.0Y-65.0
X193.0Y-66.0
X193.0Y-67.0
X193.0Y-68.0
X193.0Y-69.0
X193.0Y-70.0
X194.0Y8.0
X194.0Y7.0
X194.0Y6.0
X194.0Y5.0
X194.0Y4.0
X194.0Y3.0
X194.0Y2.0
X194.0Y1.0
X194.0Y0.0
X194.0Y-1.0
X194.0Y-2.0
X194.0Y-3.0
X194.0Y-4.0
X194.0Y-5.0
X194.0Y-6.0
X194.0Y-7.0
X194.0Y-27.0
X194.0Y-28.0
X194.0Y-29.0
X194.0Y-30.0
X194.0Y-31.0
X194.0Y-32.0
X194.0Y-33.0
X194.0Y-34.0
X194.0Y-35.0
X194.0Y-36.0
X194.0Y-37.0
X194.0Y-38.0
X194.0Y-39.0
X194.0Y-40.0
X194.0Y-41.0
X194.0Y-42.0
X194.0Y-43.0
X194.0Y-55.0
X194.0Y-56.0
X194.0Y-57.0
X194.0Y-58.0
X194.0Y-59.0
X194.0Y-60.0
X194.0Y-61.0
X194.0Y-62.0
X194.0Y-63.0
X194.0Y-64.0
X194.0Y-65.0
X194.0Y-66.0
X194.0Y-67.0
X194.0Y-68.0
X194.0Y-69.0
X194.0Y-70.0
X195.0Y8.0
X195.0Y7.0
X195.0Y6.0
X195.0Y5.0
X195.0Y4.0
X195.0Y3.0
X195.0Y2.0
X195.0Y1.0
X195.0Y0.0
X195.0Y-1.0
X195.0Y-2.0
X195.0Y-3.0
X195.0Y-4.0
X195.0Y-5.0
X195.0Y-6.0
X195.0Y-7.0
X195.0Y-27.0
X195.0Y-28.0
X195.0Y-29.0
X195.0Y-30.0
X195.0Y-31.0
X195.0Y-32.0
X195.0Y-33.0
X195.0Y-34.0
X195.0Y-35.0
X195.0Y-36.0
X195.0Y-37.0
X195.0Y-38.0
X195.0Y-39.0
X195.0Y-40.0
X195.0Y-41.0
X195.0Y-42.0
X195.0Y-43.0
X195.0Y-55.0
X195.0Y-56.0
X195.0Y-57.0
X195.0Y-58.0
X195.0Y-59.0
X195.0Y-60.0
X195.0Y-61.0
X195.0Y-62.0
X195.0Y-63.0
X195.0Y-64.0
X195.0Y-65.0
X195.0Y-66.0
X195.0Y-67.0
X195.0Y-68.0
X195.0Y-69.0
X195.0Y-70.0
X196.0Y-27.0
X196.0Y-28.0
X196.0Y-29.0
X196.0Y-30.0
X196.0Y-31.0
X196.0Y-32.0
X196.0Y-33.0
X196.0Y-34.0
X196.0Y-35.0
X196.0Y-36.0
X196.0Y-37.0
X196.0Y-38.0
X196.0Y-39.0
X196.0Y-40.0
X196.0Y-41.0
X196.0Y-42.0
X196.0Y-43.0
X196.0Y-55.0
X196.0Y-56.0
X196.0Y-57.0
X196.0Y-58.0
X196.0Y-59.0
X196.0Y-60.0
X196.0Y-61.0
X196.0Y-62.0
X196.0Y-63.0
X196.0Y-64.0
X196.0Y-65.0
X196.0Y-66.0
X196.0Y-67.0
X196.0Y-68.0
X196.0Y-69.0
X196.0Y-70.0
X197.0Y-27.0
X197.0Y-28.0
X197.0Y-29.0
X197.0Y-30.0
X197.0Y-31.0
X197.0Y-32.0
X197.0Y-33.0
X197.0Y-34.0
X197.0Y-35.0
X197.0Y-36.0
X197.0Y-37.0
X197.0Y-38.0
X197.0Y-39.0
X197.0Y-40.0
X197.0Y-41.0
X197.0Y-42.0
X197.0Y-43.0
X197.0Y-55.0
X197.0Y-56.0
X197.0Y-57.0
X197.0Y-58.0
X197.0Y-59.0
X197.0Y-60.0
X197.0Y-61.0
X197.0Y-62.0
X197.0Y-63.0
X197.0Y-64.0
X197.0Y-65.0
X197.0Y-66.0
X197.0Y-67.0
X197.0Y-68.0
X197.0Y-69.0
X197.0Y-70.0
X197.0Y-71.0
X198.0Y-27.0
X198.0Y-28.0
X198.0Y-29.0
X198.0Y-30.0
X198.0Y-31.0
X198.0Y-32.0
X198.0Y-33.0
X198.0Y-34.0
X198.0Y-35.0
X198.0Y-36.0
X198.0Y-37.0
X198.0Y-38.0
X198.0Y-39.0
X198.0Y-40.0
X198.0Y-41.0
X198.0Y-42.0
X198.0Y-43.0
X198.0Y-55.0
X198.0Y-56.0
X198.0Y-57.0
X198.0Y-58.0
X198.0Y-59.0
X198.0Y-60.0
X198.0Y-61.0
X198.0Y-62.0
X198.0Y-63.0
X198.0Y-64.0
X198.0Y-65.0
X198.0Y-66.0
X198.0Y-67.0
X198.0Y-68.0
X198.0Y-69.0
X198.0Y-70.0
X198.0Y-71.0
X199.0Y-27.0
X199.0Y-28.0
X199.0Y-29.0
X199.0Y-30.0
X199.0Y-31.0
X199.0Y-32.0
X199.0Y-33.0
X199.0Y-34.0
X199.0Y-35.0
X199.0Y-36.0
X199.0Y-37.0
X199.0Y-38.0
X199.0Y-39.0
X199.0Y-40.0
X199.0Y-41.0
X199.0Y-42.0
X199.0Y-43.0
X199.0Y-55.0
X199.0Y-56.0
X199.0Y-57.0
X199.0Y-58.0
X199.0Y-59.0
X199.0Y-60.0
X199.0Y-61.0
X199.0Y-62.0
X199.0Y-63.0
X199.0Y-64.0
X199.0Y-65.0
X199.0Y-66.0
X199.0Y-67.0
X199.0Y-68.0
X199.0Y-69.0
X199.0Y-70.0
X199.0Y-71.0
X200.0Y-27.0
X200.0Y-28.0
X200.0Y-29.0
X200.0Y-30.0
X200.0Y-31.0
X200.0Y-32.0
X200.0Y-33.0
X200.0Y-34.0
X200.0Y-35.0
X200.0Y-36.0
X200.0Y-37.0
X200.0Y-38.0
X200.0Y-39.0
X200.0Y-40.0
X200.0Y-41.0
X200.0Y-42.0
X200.0Y-43.0
X200.0Y-55.0
X200.0Y-56.0
X200.0Y-57.0
X200.0Y-58.0
X200.0Y-59.0
X200.0Y-60.0
X200.0Y-61.0
X200.0Y-62.0
X200.0Y-63.0
X200.0Y-64.0
X200.0Y-65.0
X200.0Y-66.0
X200.0Y-67.0
X200.0Y-68.0
X200.0Y-69.0
X200.0Y-70.0
X200.0Y-71.0
X201.0Y-27.0
X201.0Y-28.0
X201.0Y-29.0
X201.0Y-30.0
X201.0Y-31.0
X201.0Y-32.0
X201.0Y-33.0
X201.0Y-34.0
X201.0Y-35.0
X201.0Y-36.0
X201.0Y-37.0
X201.0Y-38.0
X201.0Y-39.0
X201.0Y-40.0
X201.0Y-41.0
X201.0Y-42.0
X201.0Y-43.0
X201.0Y-55.0
X201.0Y-56.0
X201.0Y-57.0
X201.0Y-58.0
X201.0Y-59.0
X201.0Y-60.0
X201.0Y-61.0
X201.0Y-62.0
X201.0Y-63.0
X201.0Y-64.0
X201.0Y-65.0
X201.0Y-66.0
X201.0Y-67.0
X201.0Y-68.0
X201.0Y-69.0
X201.0Y-70.0
X201.0Y-71.0
X202.0Y-27.0
X202.0Y-28.0
X202.0Y-29.0
X202.0Y-30.0
X202.0Y-31.0
X202.0Y-32.0
X202.0Y-33.0
X202.0Y-34.0
X202.0Y-35.0
X202.0Y-36.0
X202.0Y-37.0
X202.0Y-38.0
X202.0Y-39.0
X202.0Y-40.0
X202.0Y-41.0
X202.0Y-42.0
X202.0Y-43.0
X202.0Y-55.0
X202.0Y-56.0
X202.0Y-57.0
X202.0Y-58.0
X202.0Y-59.0
X202.0Y-60.0
X202.0Y-61.0
X202.0Y-62.0
X202.0Y-63.0
X202.0Y-64.0
X202.0Y-65.0
X202.0Y-66.0
X202.0Y-67.0
X202.0Y-68.0
X202.0Y-69.0
X202.0Y-70.0
X202.0Y-71.0
X203.0Y-27.0
X203.0Y-28.0
X203.0Y-29.0
X203.0Y-30.0
X203.0Y-31.0
X203.0Y-32.0
X203.0Y-33.0
X203.0Y-34.0
X203.0Y-35.0
X203.0Y-36.0
X203.0Y-37.0
X203.0Y-38.0
X203.0Y-39.0
X203.0Y-40.0
X203.0Y-41.0
X203.0Y-42.0
X203.0Y-43.0
X203.0Y-55.0
X203.0Y-56.0
X203.0Y-57.0
X203.0Y-58.0
X203.0Y-59.0
X203.0Y-60.0
X203.0Y-61.0
X203.0Y-62.0
X203.0Y-63.0
X203.0Y-64.0
X203.0Y-65.0
X203.0Y-66.0
X203.0Y-67.0
X203.0Y-68.0
X203.0Y-69.0
X203.0Y-70.0
X203.0Y-71.0
X204.0Y-27.0
X204.0Y-28.0
X204.0Y-29.0
X204.0Y-30.0
X204.0Y-31.0
X204.0Y-32.0
X204.0Y-33.0
X204.0Y-34.0
X204.0Y-35.0
X204.0Y-36.0
X204.0Y-37.0
X204.0Y-38.0
X204.0Y-39.0
X204.0Y-40.0
X204.0Y-41.0
X204.0Y-42.0
X204.0Y-43.0
X204.0Y-55.0
X204.0Y-56.0
X204.0Y-57.0
X204.0Y-58.0
X204.0Y-59.0
X204.0Y-60.0
X204.0Y-61.0
X204.0Y-62.0
X204.0Y-63.0
X204.0Y-64.0
X204.0Y-65.0
X204.0Y-66.0
X204.0Y-67.0
X204.0Y-68.0
X204.0Y-69.0
X204.0Y-70.0
X204.0Y-71.0
X205.0Y-27.0
X205.0Y-28.0
X205.0Y-29.0
X205.0Y-30.0
X205.0Y-31.0
X205.0Y-32.0
X205.0Y-33.0
X205.0Y-34.0
X205.0Y-35.0
X205.0Y-36.0
X205.0Y-37.0
X205.0Y-38.0
X205.0Y-39.0
X205.0Y-40.0
X205.0Y-41.0
X205.0Y-42.0
X205.0Y-43.0
X205.0Y-55.0
X205.0Y-56.0
X205.0Y-57.0
X205.0Y-58.0
X205.0Y-59.0
X205.0Y-60.0
X205.0Y-61.0
X205.0Y-62.0
X205.0Y-63.0
X205.0Y-64.0
X205.0Y-65.0
X205.0Y-66.0
X205.0Y-67.0
X205.0Y-68.0
X205.0Y-69.0
X205.0Y-70.0
X205.0Y-71.0
X206.0Y-27.0
X206.0Y-28.0
X206.0Y-29.0
X206.0Y-30.0
X206.0Y-31.0
X206.0Y-32.0
X206.0Y-33.0
X206.0Y-34.0
X206.0Y-35.0
X206.0Y-36.0
X206.0Y-37.0
X206.0Y-38.0
X206.0Y-39.0
X206.0Y-40.0
X206.0Y-41.0
X206.0Y-42.0
X206.0Y-43.0
X206.0Y-55.0
X206.0Y-56.0
X206.0Y-57.0
X206.0Y-58.0
X206.0Y-59.0
X206.0Y-60.0
X206.0Y-61.0
X206.0Y-62.0
X206.0Y-63.0
X206.0Y-64.0
X206.0Y-65.0
X206.0Y-66.0
X206.0Y-67.0
X206.0Y-68.0
X206.0Y-69.0
X206.0Y-70.0
X206.0Y-71.0
X207.0Y-27.0
X207.0Y-28.0
X207.0Y-29.0
X207.0Y-30.0
X207.0Y-31.0
X207.0Y-32.0
X207.0Y-33.0
X207.0Y-34.0
X207.0Y-35.0
X207.0Y-36.0
X207.0Y-37.0
X207.0Y-38.0
X207.0Y-39.0
X207.0Y-40.0
X207.0Y-41.0
X207.0Y-42.0
X207.0Y-43.0
X207.0Y-55.0
X207.0Y-56.0
X207.0Y-57.0
X207.0Y-58.0
X207.0Y-59.0
X207.0Y-60.0
X207.0Y-61.0
X207.0Y-62.0
X207.0Y-63.0
X207.0Y-64.0
X207.0Y-65.0
X207.0Y-66.0
X207.0Y-67.0
X207.0Y-68.0
X207.0Y-69.0
X207.0Y-70.0
X207.0Y-71.0
X208.0Y-27.0
X208.0Y-28.0
X208.0Y-29.0
X208.0Y-30.0
X208.0Y-31.0
X208.0Y-32.0
X208.0Y-33.0
X208.0Y-34.0
X208.0Y-35.0
X208.0Y-36.0
X208.0Y-37.0
X208.0Y-38.0
X208.0Y-39.0
X208.0Y-40.0
X208.0Y-41.0
X208.0Y-42.0
X208.0Y-43.0
X208.0Y-55.0
X208.0Y-56.0
X208.0Y-57.0
X208.0Y-58.0
X208.0Y-59.0
X208.0Y-60.0
X208.0Y-61.0
X208.0Y-62.0
X208.0Y-63.0
X208.0Y-64.0
X208.0Y-65.0
X208.0Y-66.0
X208.0Y-67.0
X208.0Y-68.0
X208.0Y-69.0
X208.0Y-70.0
X208.0Y-71.0
X209.0Y-27.0
X209.0Y-28.0
X209.0Y-29.0
X209.0Y-30.0
X209.0Y-31.0
X209.0Y-32.0
X209.0Y-33.0
X209.0Y-34.0
X209.0Y-35.0
X209.0Y-36.0
X209.0Y-37.0
X209.0Y-38.0
X209.0Y-39.0
X209.0Y-40.0
X209.0Y-41.0
X209.0Y-42.0
X209.0Y-43.0
X209.0Y-55.0
X209.0Y-56.0
X209.0Y-57.0
X209.0Y-58.0
X209.0Y-59.0
X209.0Y-60.0
X209.0Y-61.0
X209.0Y-62.0
X209.0Y-63.0
X209.0Y-64.0
X209.0Y-65.0
X209.0Y-66.0
X209.0Y-67.0
X209.0Y-68.0
X209.0Y-69.0
X209.0Y-70.0
X209.0Y-71.0
X210.0Y-27.0
X210.0Y-28.0
X210.0Y-29.0
X210.0Y-30.0
X210.0Y-31.0
X210.0Y-32.0
X210.0Y-33.0
X210.0Y-34.0
X210.0Y-35.0
X210.0Y-36.0
X210.0Y-37.0
X210.0Y-38.0
X210.0Y-39.0
X210.0Y-40.0
X210.0Y-41.0
X210.0Y-42.0
X210.0Y-43.0
X210.0Y-55.0
X210.0Y-56.0
X210.0Y-57.0
X210.0Y-58.0
X210.0Y-59.0
X210.0Y-60.0
X210.0Y-61.0
X210.0Y-62.0
X210.0Y-63.0
X210.0Y-64.0
X210.0Y-65.0
X210.0Y-66.0
X210.0Y-67.0
X210.0Y-68.0
X210.0Y-69.0
X210.0Y-70.0
X210.0Y-71.0
X211.0Y-27.0
X211.0Y-28.0
X211.0Y-29.0
X211.0Y-30.0
X211.0Y-31.0
X211.0Y-32.0
X211.0Y-33.0
X211.0Y-34.0
X211.0Y-35.0
X211.0Y-36.0
X211.0Y-37.0
X211.0Y-38.0
X211.0Y-39.0
X211.0Y-40.0
X211.0Y-41.0
X211.0Y-42.0
X211.0Y-43.0
X211.0Y-55.0
X211.0Y-56.0
X211.0Y-57.0
X211.0Y-58.0
X211.0Y-59.0
X211.0Y-60.0
X211.0Y-61.0
X211.0Y-62.0
X211.0Y-63.0
X211.0Y-64.0
X211.0Y-65.0
X211.0Y-66.0
X211.0Y-67.0
X211.0Y-68.0
X211.0Y-69.0
X211.0Y-70.0
X211.0Y-71.0
X212.0Y-27.0
X212.0Y-28.0
X212.0Y-29.0
X212.0Y-30.0
X212.0Y-31.0
X212.0Y-32.0
X212.0Y-33.0
X212.0Y-34.0
X212.0Y-35.0
X212.0Y-36.0
X212.0Y-37.0
X212.0Y-38.0
X212.0Y-39.0
X212.0Y-40.0
X212.0Y-41.0
X212.0Y-42.0
X212.0Y-43.0
X212.0Y-55.0
X212.0Y-56.0
X212.0Y-57.0
X212.0Y-58.0
X212.0Y-59.0
X212.0Y-60.0
X212.0Y-61.0
X212.0Y-62.0
X212.0Y-63.0
X212.0Y-64.0
X212.0Y-65.0
X212.0Y-66.0
X212.0Y-67.0
X212.0Y-68.0
X212.0Y-69.0
X212.0Y-70.0
X212.0Y-71.0
X213.0Y-27.0
X213.0Y-28.0
X213.0Y-29.0
X213.0Y-30.0
X213.0Y-31.0
X213.0Y-32.0
X213.0Y-33.0
X213.0Y-34.0
X213.0Y-35.0
X213.0Y-36.0
X213.0Y-37.0
X213.0Y-38.0
X213.0Y-39.0
X213.0Y-40.0
X213.0Y-41.0
X213.0Y-42.0
X213.0Y-43.0
X213.0Y-55.0
X213.0Y-56.0
X213.0Y-57.0
X213.0Y-58.0
X213.0Y-59.0
X213.0Y-60.0
X213.0Y-61.0
X213.0Y-62.0
X213.0Y-63.0
X213.0Y-64.0
X213.0Y-65.0
X213.0Y-66.0
X213.0Y-67.0
X213.0Y-68.0
X213.0Y-69.0
X213.0Y-70.0
X213.0Y-71.0
X214.0Y-27.0
X214.0Y-28.0
X214.0Y-29.0
X214.0Y-30.0
X214.0Y-31.0
X214.0Y-32.0
X214.0Y-33.0
X214.0Y-34.0
X214.0Y-35.0
X214.0Y-36.0
X214.0Y-37.0
X214.0Y-38.0
X214.0Y-39.0
X214.0Y-40.0
X214.0Y-41.0
X214.0Y-42.0
X214.0Y-43.0
X214.0Y-55.0
X214.0Y-56.0
X214.0Y-57.0
X214.0Y-58.0
X214.0Y-59.0
X214.0Y-60.0
X214.0Y-61.0
X214.0Y-62.0
X214.0Y-63.0
X214.0Y-64.0
X214.0Y-65.0
X214.0Y-66.0
X214.0Y-67.0
X214.0Y-68.0
X214.0Y-69.0
X214.0Y-70.0
X214.0Y-71.0
X215.0Y-27.0
X215.0Y-28.0
X215.0Y-29.0
X215.0Y-30.0
X215.0Y-31.0
X215.0Y-32.0
X215.0Y-33.0
X215.0Y-34.0
X215.0Y-35.0
X215.0Y-36.0
X215.0Y-37.0
X215.0Y-38.0
X215.0Y-39.0
X215.0Y-40.0
X215.0Y-41.0
X215.0Y-42.0
X215.0Y-43.0
X215.0Y-55.0
X215.0Y-56.0
X215.0Y-57.0
X215.0Y-58.0
X215.0Y-59.0
X215.0Y-60.0
X215.0Y-61.0
X215.0Y-62.0
X215.0Y-63.0
X215.0Y-64.0
X215.0Y-65.0
X215.0Y-66.0
X215.0Y-67.0
X215.0Y-68.0
X215.0Y-69.0
X215.0Y-70.0
X216.0Y-27.0
X216.0Y-28.0
X216.0Y-29.0
X216.0Y-30.0
X216.0Y-31.0
X216.0Y-32.0
X216.0Y-33.0
X216.0Y-34.0
X216.0Y-35.0
X216.0Y-36.0
X216.0Y-37.0
X216.0Y-38.0
X216.0Y-39.0
X216.0Y-40.0
X216.0Y-41.0
X216.0Y-42.0
X216.0Y-43.0
X216.0Y-55.0
X216.0Y-56.0
X216.0Y-57.0
X216.0Y-58.0
X216.0Y-59.0
X216.0Y-60.0
X216.0Y-61.0
X216.0Y-62.0
X216.0Y-63.0
X216.0Y-64.0
X216.0Y-65.0
X216.0Y-66.0
X216.0Y-67.0
X216.0Y-68.0
X216.0Y-69.0
X216.0Y-70.0
X217.0Y-27.0
X217.0Y-28.0
X217.0Y-29.0
X217.0Y-30.0
X217.0Y-31.0
X217.0Y-32.0
X217.0Y-33.0
X217.0Y-34.0
X217.0Y-35.0
X217.0Y-36.0
X217.0Y-37.0
X217.0Y-38.0
X217.0Y-39.0
X217.0Y-40.0
X217.0Y-41.0
X217.0Y-42.0
X217.0Y-43.0
X217.0Y-55.0
X217.0Y-56.0
X217.0Y-57.0
X217.0Y-58.0
X217.0Y-59.0
X217.0Y-60.0
X217.0Y-61.0
X217.0Y-62.0
X217.0Y-63.0
X217.0Y-64.0
X217.0Y-65.0
X217.0Y-66.0
X217.0Y-67.0
X217.0Y-68.0
X217.0Y-69.0
X217.0Y-70.0
X217.0Y-71.0
X218.0Y-27.0
X218.0Y-28.0
X218.0Y-29.0
X218.0Y-30.0
X218.0Y-31.0
X218.0Y-32.0
X218.0Y-33.0
X218.0Y-34.0
X218.0Y-35.0
X218.0Y-36.0
X218.0Y-37.0
X218.0Y-38.0
X218.0Y-39.0
X218.0Y-40.0
X218.0Y-41.0
X218.0Y-42.0
X218.0Y-43.0
X218.0Y-55.0
X218.0Y-56.0
X218.0Y-57.0
X218.0Y-58.0
X218.0Y-59.0
X218.0Y-60.0
X218.0Y-61.0
X218.0Y-62.0
X218.0Y-63.0
X218.0Y-64.0
X218.0Y-65.0
X218.0Y-66.0
X218.0Y-67.0
X218.0Y-68.0
X218.0Y-69.0
X218.0Y-70.0
X218.0Y-71.0
X219.0Y-27.0
X219.0Y-28.0
X219.0Y-29.0
X219.0Y-30.0
X219.0Y-31.0
X219.0Y-32.0
X219.0Y-33.0
X219.0Y-34.0
X219.0Y-35.0
X219.0Y-36.0
X219.0Y-37.0
X219.0Y-38.0
X219.0Y-39.0
X219.0Y-40.0
X219.0Y-41.0
X219.0Y-42.0
X219.0Y-43.0
X219.0Y-55.0
X219.0Y-56.0
X219.0Y-57.0
X219.0Y-58.0
X219.0Y-59.0
X219.0Y-60.0
X219.0Y-61.0
X219.0Y-62.0
X219.0Y-63.0
X219.0Y-64.0
X219.0Y-65.0
X219.0Y-66.0
X219.0Y-67.0
X219.0Y-68.0
X219.0Y-69.0
X219.0Y-70.0
X219.0Y-71.0
X220.0Y-27.0
X220.0Y-28.0
X220.0Y-29.0
X220.0Y-30.0
X220.0Y-31.0
X220.0Y-32.0
X220.0Y-33.0
X220.0Y-34.0
X220.0Y-35.0
X220.0Y-36.0
X220.0Y-37.0
X220.0Y-38.0
X220.0Y-39.0
X220.0Y-40.0
X220.0Y-41.0
X220.0Y-42.0
X220.0Y-43.0
X220.0Y-55.0
X220.0Y-56.0
X220.0Y-57.0
X220.0Y-58.0
X220.0Y-59.0
X220.0Y-60.0
X220.0Y-61.0
X220.0Y-62.0
X220.0Y-63.0
X220.0Y-64.0
X220.0Y-65.0
X220.0Y-66.0
X220.0Y-67.0
X220.0Y-68.0
X220.0Y-69.0
X220.0Y-70.0
X220.0Y-71.0
X221.0Y-27.0
X221.0Y-28.0
X221.0Y-29.0
X221.0Y-30.0
X221.0Y-31.0
X221.0Y-32.0
X221.0Y-33.0
X221.0Y-34.0
X221.0Y-35.0
X221.0Y-36.0
X221.0Y-37.0
X221.0Y-38.0
X221.0Y-39.0
X221.0Y-40.0
X221.0Y-41.0
X221.0Y-42.0
X221.0Y-43.0
X221.0Y-55.0
X221.0Y-56.0
X221.0Y-57.0
X221.0Y-58.0
X221.0Y-59.0
X221.0Y-60.0
X221.0Y-61.0
X221.0Y-62.0
X221.0Y-63.0
X221.0Y-64.0
X221.0Y-65.0
X221.0Y-66.0
X221.0Y-67.0
X221.0Y-68.0
X221.0Y-69.0
X221.0Y-70.0
X221.0Y-71.0
X222.0Y-27.0
X222.0Y-28.0
X222.0Y-29.0
X222.0Y-30.0
X222.0Y-31.0
X222.0Y-32.0
X222.0Y-33.0
X222.0Y-34.0
X222.0Y-35.0
X222.0Y-36.0
X222.0Y-37.0
X222.0Y-38.0
X222.0Y-39.0
X222.0Y-40.0
X222.0Y-41.0
X222.0Y-42.0
X222.0Y-43.0
X222.0Y-55.0
X222.0Y-56.0
X222.0Y-57.0
X222.0Y-58.0
X222.0Y-59.0
X222.0Y-60.0
X222.0Y-61.0
X222.0Y-62.0
X222.0Y-63.0
X222.0Y-64.0
X222.0Y-65.0
X222.0Y-66.0
X222.0Y-67.0
X222.0Y-68.0
X222.0Y-69.0
X222.0Y-70.0
X222.0Y-71.0
X223.0Y-1.0
X223.0Y-2.0
X223.0Y-3.0
X223.0Y-4.0
X223.0Y-5.0
X223.0Y-6.0
X223.0Y-7.0
X223.0Y-8.0
X223.0Y-9.0
X223.0Y-10.0
X223.0Y-11.0
X223.0Y-12.0
X223.0Y-13.0
X223.0Y-14.0
X223.0Y-15.0
X223.0Y-27.0
X223.0Y-28.0
X223.0Y-29.0
X223.0Y-30.0
X223.0Y-31.0
X223.0Y-32.0
X223.0Y-33.0
X223.0Y-34.0
X223.0Y-35.0
X223.0Y-36.0
X223.0Y-37.0
X223.0Y-38.0
X223.0Y-39.0
X223.0Y-40.0
X223.0Y-41.0
X223.0Y-42.0
X223.0Y-43.0
X223.0Y-55.0
X223.0Y-56.0
X223.0Y-57.0
X223.0Y-58.0
X223.0Y-59.0
X223.0Y-60.0
X223.0Y-61.0
X223.0Y-62.0
X223.0Y-63.0
X223.0Y-64.0
X223.0Y-65.0
X223.0Y-66.0
X223.0Y-67.0
X223.0Y-68.0
X223.0Y-69.0
X223.0Y-70.0
X223.0Y-71.0
X224.0Y-1.0
X224.0Y-2.0
X224.0Y-3.0
X224.0Y-4.0
X224.0Y-5.0
X224.0Y-6.0
X224.0Y-7.0
X224.0Y-8.0
X224.0Y-9.0
X224.0Y-10.0
X224.0Y-11.0
X224.0Y-12.0
X224.0Y-13.0
X224.0Y-14.0
X224.0Y-15.0
X224.0Y-27.0
X224.0Y-28.0
X224.0Y-29.0
X224.0Y-30.0
X224.0Y-31.0
X224.0Y-32.0
X224.0Y-33.0
X224.0Y-34.0
X224.0Y-35.0
X224.0Y-36.0
X224.0Y-37.0
X224.0Y-38.0
X224.0Y-39.0
X224.0Y-40.0
X224.0Y-41.0
X224.0Y-42.0
X224.0Y-43.0
X224.0Y-55.0
X224.0Y-56.0
X224.0Y-57.0
X224.0Y-58.0
X224.0Y-59.0
X224.0Y-60.0
X224.0Y-61.0
X224.0Y-62.0
X224.0Y-63.0
X224.0Y-64.0
X224.0Y-65.0
X224.0Y-66.0
X224.0Y-67.0
X224.0Y-68.0
X224.0Y-69.0
X224.0Y-70.0
X224.0Y-71.0
X225.0Y-1.0
X225.0Y-2.0
X225.0Y-3.0
X225.0Y-4.0
X225.0Y-5.0
X225.0Y-9.0
X225.0Y-10.0
X225.0Y-11.0
X225.0Y-12.0
X225.0Y-13.0
X225.0Y-14.0
X225.0Y-15.0
X225.0Y-27.0
X225.0Y-28.0
X225.0Y-29.0
X225.0Y-30.0
X225.0Y-31.0
X225.0Y-32.0
X225.0Y-33.0
X225.0Y-37.0
X225.0Y-38.0
X225.0Y-39.0
X225.0Y-40.0
X225.0Y-41.0
X225.0Y-42.0
X225.0Y-43.0
X225.0Y-55.0
X225.0Y-56.0
X225.0Y-57.0
X225.0Y-58.0
X225.0Y-59.0
X225.0Y-60.0
X225.0Y-61.0
X225.0Y-65.0
X225.0Y-66.0
X225.0Y-67.0
X225.0Y-68.0
X225.0Y-69.0
X225.0Y-70.0
X225.0Y-71.0
X226.0Y-1.0
X226.0Y-2.0
X226.0Y-3.0
X226.0Y-11.0
X226.0Y-12.0
X226.0Y-13.0
X226.0Y-14.0
X226.0Y-15.0
X226.0Y-27.0
X226.0Y-28.0
X226.0Y-29.0
X226.0Y-30.0
X226.0Y-31.0
X226.0Y-39.0
X226.0Y-40.0
X226.0Y-41.0
X226.0Y-42.0
X226.0Y-43.0
X226.0Y-55.0
X226.0Y-56.0
X226.0Y-57.0
X226.0Y-58.0
X226.0Y-59.0
X226.0Y-67.0
X226.0Y-68.0
X226.0Y-69.0
X226.0Y-70.0
X226.0Y-71.0
X227.0Y-1.0
X227.0Y-2.0
X227.0Y-12.0
X227.0Y-13.0
X227.0Y-14.0
X227.0Y-15.0
X227.0Y-27.0
X227.0Y-28.0
X227.0Y-29.0
X227.0Y-30.0
X227.0Y-40.0
X227.0Y-41.0
X227.0Y-42.0
X227.0Y-43.0
X227.0Y-55.0
X227.0Y-56.0
X227.0Y-57.0
X227.0Y-58.0
X227.0Y-68.0
X227.0Y-69.0
X227.0Y-70.0
X227.0Y-71.0
X228.0Y-1.0
X228.0Y-2.0
X228.0Y-12.0
X228.0Y-13.0
X228.0Y-14.0
X228.0Y-15.0
X228.0Y-27.0
X228.0Y-28.0
X228.0Y-29.0
X228.0Y-30.0
X228.0Y-40.0
X228.0Y-41.0
X228.0Y-42.0
X228.0Y-43.0
X228.0Y-55.0
X228.0Y-56.0
X228.0Y-57.0
X228.0Y-58.0
X228.0Y-68.0
X228.0Y-69.0
X228.0Y-70.0
X228.0Y-71.0
X229.0Y-1.0
X229.0Y-13.0
X229.0Y-14.0
X229.0Y-15.0
X229.0Y-27.0
X229.0Y-28.0
X229.0Y-29.0
X229.0Y-41.0
X229.0Y-42.0
X229.0Y-43.0
X229.0Y-55.0
X229.0Y-56.0
X229.0Y-57.0
X229.0Y-69.0
X229.0Y-70.0
X229.0Y-71.0
X230.0Y-1.0
X230.0Y-13.0
X230.0Y-14.0
X230.0Y-15.0
X230.0Y-27.0
X230.0Y-28.0
X230.0Y-29.0
X230.0Y-41.0
X230.0Y-42.0
X230.0Y-43.0
X230.0Y-55.0
X230.0Y-56.0
X230.0Y-57.0
X230.0Y-69.0
X230.0Y-70.0
X230.0Y-71.0
X231.0Y-1.0
X231.0Y-13.0
X231.0Y-14.0
X231.0Y-15.0
X231.0Y-27.0
X231.0Y-28.0
X231.0Y-29.0
X231.0Y-41.0
X231.0Y-42.0
X231.0Y-43.0
X231.0Y-55.0
X231.0Y-56.0
X231.0Y-57.0
X231.0Y-69.0
X231.0Y-70.0
X231.0Y-71.0
X232.0Y-1.0
X232.0Y-2.0
X232.0Y-12.0
X232.0Y-13.0
X232.0Y-14.0
X232.0Y-15.0
X232.0Y-27.0
X232.0Y-28.0
X232.0Y-29.0
X232.0Y-30.0
X232.0Y-40.0
X232.0Y-41.0
X232.0Y-42.0
X232.0Y-43.0
X232.0Y-55.0
X232.0Y-56.0
X232.0Y-57.0
X232.0Y-58.0
X232.0Y-68.0
X232.0Y-69.0
X232.0Y-70.0
X232.0Y-71.0
X233.0Y-1.0
X233.0Y-2.0
X233.0Y-12.0
X233.0Y-13.0
X233.0Y-14.0
X233.0Y-15.0
X233.0Y-27.0
X233.0Y-28.0
X233.0Y-29.0
X233.0Y-30.0
X233.0Y-40.0
X233.0Y-41.0
X233.0Y-42.0
X233.0Y-43.0
X233.0Y-55.0
X233.0Y-56.0
X233.0Y-57.0
X233.0Y-58.0
X233.0Y-68.0
X233.0Y-69.0
X233.0Y-70.0
X233.0Y-71.0
X234.0Y-1.0
X234.0Y-2.0
X234.0Y-3.0
X234.0Y-11.0
X234.0Y-12.0
X234.0Y-13.0
X234.0Y-14.0
X234.0Y-15.0
X234.0Y-27.0
X234.0Y-28.0
X234.0Y-29.0
X234.0Y-30.0
X234.0Y-31.0
X234.0Y-39.0
X234.0Y-40.0
X234.0Y-41.0
X234.0Y-42.0
X234.0Y-43.0
X234.0Y-55.0
X234.0Y-56.0
X234.0Y-57.0
X234.0Y-58.0
X234.0Y-59.0
X234.0Y-67.0
X234.0Y-68.0
X234.0Y-69.0
X234.0Y-70.0
X234.0Y-71.0
X235.0Y-1.0
X235.0Y-2.0
X235.0Y-3.0
X235.0Y-4.0
X235.0Y-5.0
X235.0Y-9.0
X235.0Y-10.0
X235.0Y-11.0
X235.0Y-12.0
X235.0Y-13.0
X235.0Y-14.0
X235.0Y-15.0
X235.0Y-27.0
X235.0Y-28.0
X235.0Y-29.0
X235.0Y-30.0
X235.0Y-31.0
X235.0Y-32.0
X235.0Y-33.0
X235.0Y-37.0
X235.0Y-38.0
X235.0Y-39.0
X235.0Y-40.0
X235.0Y-41.0
X235.0Y-42.0
X235.0Y-43.0
X235.0Y-55.0
X235.0Y-56.0
X235.0Y-57.0
X235.0Y-58.0
X235.0Y-59.0
X235.0Y-60.0
X235.0Y-61.0
X235.0Y-65.0
X235.0Y-66.0
X235.0Y-67.0
X235.0Y-68.0
X235.0Y-69.0
X235.0Y-70.0
X235.0Y-71.0
X236.0Y-1.0
X236.0Y-2.0
X236.0Y-3.0
X236.0Y-4.0
X236.0Y-5.0
X236.0Y-6.0
X236.0Y-7.0
X236.0Y-8.0
X236.0Y-9.0
X236.0Y-10.0
X236.0Y-11.0
X236.0Y-12.0
X236.0Y-13.0
X236.0Y-14.0
X236.0Y-15.0
X236.0Y-27.0
X236.0Y-28.0
X236.0Y-29.0
X236.0Y-30.0
X236.0Y-31.0
X236.0Y-32.0
X236.0Y-33.0
X236.0Y-34.0
X236.0Y-35.0
X236.0Y-36.0
X236.0Y-37.0
X236.0Y-38.0
X236.0Y-39.0
X236.0Y-40.0
X236.0Y-41.0
X236.0Y-42.0
X236.0Y-43.0
X236.0Y-55.0
X236.0Y-56.0
X236.0Y-57.0
X236.0Y-58.0
X236.0Y-59.0
X236.0Y-60.0
X236.0Y-61.0
X236.0Y-62.0
X236.0Y-63.0
X236.0Y-64.0
X236.0Y-65.0
X236.0Y-66.0
X236.0Y-67.0
X236.0Y-68.0
X236.0Y-69.0
X236.0Y-70.0
X236.0Y-71.0
X237.0Y-1.0
X237.0Y-2.0
X237.0Y-3.0
X237.0Y-4.0
X237.0Y-5.0
X237.0Y-6.0
X237.0Y-7.0
X237.0Y-8.0
X237.0Y-9.0
X237.0Y-10.0
X237.0Y-11.0
X237.0Y-12.0
X237.0Y-13.0
X237.0Y-14.0
X237.0Y-15.0
X237.0Y-27.0
X237.0Y-28.0
X237.0Y-29.0
X237.0Y-30.0
X237.0Y-31.0
X237.0Y-32.0
X237.0Y-33.0
X237.0Y-34.0
X237.0Y-35.0
X237.0Y-36.0
X237.0Y-37.0
X237.0Y-38.0
X237.0Y-39.0
X237.0Y-40.0
X237.0Y-41.0
X237.0Y-42.0
X237.0Y-43.0
X237.0Y-55.0
X237.0Y-56.0
X237.0Y-57.0
X237.0Y-58.0
X237.0Y-59.0
X237.0Y-60.0
X237.0Y-61.0
X237.0Y-62.0
X237.0Y-63.0
X237.0Y-64.0
X237.0Y-65.0
X237.0Y-66.0
X237.0Y-67.0
X237.0Y-68.0
X237.0Y-69.0
X237.0Y-70.0
X237.0Y-71.0
X238.0Y-27.0
X238.0Y-28.0
X238.0Y-29.0
X238.0Y-30.0
X238.0Y-31.0
X238.0Y-32.0
X238.0Y-33.0
X238.0Y-34.0
X238.0Y-35.0
X238.0Y-36.0
X238.0Y-37.0
X238.0Y-38.0
X238.0Y-39.0
X238.0Y-40.0
X238.0Y-41.0
X238.0Y-42.0
X238.0Y-43.0
X238.0Y-55.0
X238.0Y-56.0
X238.0Y-57.0
X238.0Y-58.0
X238.0Y-59.0
X238.0Y-60.0
X238.0Y-61.0
X238.0Y-62.0
X238.0Y-63.0
X238.0Y-64.0
X238.0Y-65.0
X238.0Y-66.0
X238.0Y-67.0
X238.0Y-68.0
X238.0Y-69.0
X238.0Y-70.0
X238.0Y-71.0
X239.0Y-27.0
X239.0Y-28.0
X239.0Y-29.0
X239.0Y-30.0
X239.0Y-31.0
X239.0Y-32.0
X239.0Y-33.0
X239.0Y-34.0
X239.0Y-35.0
X239.0Y-36.0
X239.0Y-37.0
X239.0Y-38.0
X239.0Y-39.0
X239.0Y-40.0
X239.0Y-41.0
X239.0Y-42.0
X239.0Y-43.0
X239.0Y-55.0
X239.0Y-56.0
X239.0Y-57.0
X239.0Y-58.0
X239.0Y-59.0
X239.0Y-60.0
X239.0Y-61.0
X239.0Y-62.0
X239.0Y-63.0
X239.0Y-64.0
X239.0Y-65.0
X239.0Y-66.0
X239.0Y-67.0
X239.0Y-68.0
X239.0Y-69.0
X239.0Y-70.0
X239.0Y-71.0
X240.0Y-27.0
X240.0Y-28.0
X240.0Y-29.0
X240.0Y-30.0
X240.0Y-31.0
X240.0Y-32.0
X240.0Y-33.0
X240.0Y-34.0
X240.0Y-35.0
X240.0Y-36.0
X240.0Y-37.0
X240.0Y-38.0
X240.0Y-39.0
X240.0Y-40.0
X240.0Y-41.0
X240.0Y-42.0
X240.0Y-43.0
X240.0Y-55.0
X240.0Y-56.0
X240.0Y-57.0
X240.0Y-58.0
X240.0Y-59.0
X240.0Y-60.0
X240.0Y-61.0
X240.0Y-62.0
X240.0Y-63.0
X240.0Y-64.0
X240.0Y-65.0
X240.0Y-66.0
X240.0Y-67.0
X240.0Y-68.0
X240.0Y-69.0
X240.0Y-70.0
X240.0Y-71.0
X241.0Y-27.0
X241.0Y-28.0
X241.0Y-29.0
X241.0Y-30.0
X241.0Y-31.0
X241.0Y-32.0
X241.0Y-33.0
X241.0Y-34.0
X241.0Y-35.0
X241.0Y-36.0
X241.0Y-37.0
X241.0Y-38.0
X241.0Y-39.0
X241.0Y-40.0
X241.0Y-41.0
X241.0Y-42.0
X241.0Y-43.0
X241.0Y-55.0
X241.0Y-56.0
X241.0Y-57.0
X241.0Y-58.0
X241.0Y-59.0
X241.0Y-60.0
X241.0Y-61.0
X241.0Y-62.0
X241.0Y-63.0
X241.0Y-64.0
X241.0Y-65.0
X241.0Y-66.0
X241.0Y-67.0
X241.0Y-68.0
X241.0Y-69.0
X241.0Y-70.0
X241.0Y-71.0
X242.0Y-27.0
X242.0Y-28.0
X242.0Y-29.0
X242.0Y-30.0
X242.0Y-31.0
X242.0Y-32.0
X242.0Y-33.0
X242.0Y-34.0
X242.0Y-35.0
X242.0Y-36.0
X242.0Y-37.0
X242.0Y-38.0
X242.0Y-39.0
X242.0Y-40.0
X242.0Y-41.0
X242.0Y-42.0
X242.0Y-43.0
X242.0Y-55.0
X242.0Y-56.0
X242.0Y-57.0
X242.0Y-58.0
X242.0Y-59.0
X242.0Y-60.0
X242.0Y-61.0
X242.0Y-62.0
X242.0Y-63.0
X242.0Y-64.0
X242.0Y-65.0
X242.0Y-66.0
X242.0Y-67.0
X242.0Y-68.0
X242.0Y-69.0
X242.0Y-70.0
X242.0Y-71.0
X243.0Y-27.0
X243.0Y-28.0
X243.0Y-29.0
X243.0Y-30.0
X243.0Y-31.0
X243.0Y-32.0
X243.0Y-33.0
X243.0Y-34.0
X243.0Y-35.0
X243.0Y-36.0
X243.0Y-37.0
X243.0Y-38.0
X243.0Y-39.0
X243.0Y-40.0
X243.0Y-41.0
X243.0Y-42.0
X243.0Y-43.0
X243.0Y-55.0
X243.0Y-56.0
X243.0Y-57.0
X243.0Y-58.0
X243.0Y-59.0
X243.0Y-60.0
X243.0Y-61.0
X243.0Y-62.0
X243.0Y-63.0
X243.0Y-64.0
X243.0Y-65.0
X243.0Y-66.0
X243.0Y-67.0
X243.0Y-68.0
X243.0Y-69.0
X243.0Y-70.0
X244.0Y-27.0
X244.0Y-28.0
X244.0Y-29.0
X244.0Y-30.0
X244.0Y-31.0
X244.0Y-32.0
X244.0Y-33.0
X244.0Y-34.0
X244.0Y-35.0
X244.0Y-36.0
X244.0Y-37.0
X244.0Y-38.0
X244.0Y-39.0
X244.0Y-40.0
X244.0Y-41.0
X244.0Y-42.0
X244.0Y-43.0
X244.0Y-55.0
X244.0Y-56.0
X244.0Y-57.0
X244.0Y-58.0
X244.0Y-59.0
X244.0Y-60.0
X244.0Y-61.0
X244.0Y-62.0
X244.0Y-63.0
X244.0Y-64.0
X244.0Y-65.0
X244.0Y-66.0
X244.0Y-67.0
X244.0Y-68.0
X244.0Y-69.0
X244.0Y-70.0
X245.0Y-27.0
X245.0Y-28.0
X245.0Y-29.0
X245.0Y-30.0
X245.0Y-31.0
X245.0Y-32.0
X245.0Y-33.0
X245.0Y-34.0
X245.0Y-35.0
X245.0Y-36.0
X245.0Y-37.0
X245.0Y-38.0
X245.0Y-39.0
X245.0Y-40.0
X245.0Y-41.0
X245.0Y-42.0
X245.0Y-43.0
X245.0Y-55.0
X245.0Y-56.0
X245.0Y-57.0
X245.0Y-58.0
X245.0Y-59.0
X245.0Y-60.0
X245.0Y-61.0
X245.0Y-62.0
X245.0Y-63.0
X245.0Y-64.0
X245.0Y-65.0
X245.0Y-66.0
X245.0Y-67.0
X245.0Y-68.0
X245.0Y-69.0
X245.0Y-70.0
X246.0Y-27.0
X246.0Y-28.0
X246.0Y-29.0
X246.0Y-30.0
X246.0Y-31.0
X246.0Y-32.0
X246.0Y-33.0
X246.0Y-34.0
X246.0Y-35.0
X246.0Y-36.0
X246.0Y-37.0
X246.0Y-38.0
X246.0Y-39.0
X246.0Y-40.0
X246.0Y-41.0
X246.0Y-42.0
X246.0Y-43.0
X246.0Y-55.0
X246.0Y-56.0
X246.0Y-57.0
X246.0Y-58.0
X246.0Y-59.0
X246.0Y-60.0
X246.0Y-61.0
X246.0Y-62.0
X246.0Y-63.0
X246.0Y-64.0
X246.0Y-65.0
X246.0Y-66.0
X246.0Y-67.0
X246.0Y-68.0
X246.0Y-69.0
X246.0Y-70.0
X246.0Y-71.0
X247.0Y-27.0
X247.0Y-28.0
X247.0Y-29.0
X247.0Y-30.0
X247.0Y-31.0
X247.0Y-32.0
X247.0Y-33.0
X247.0Y-34.0
X247.0Y-35.0
X247.0Y-36.0
X247.0Y-37.0
X247.0Y-38.0
X247.0Y-39.0
X247.0Y-40.0
X247.0Y-41.0
X247.0Y-42.0
X247.0Y-43.0
X247.0Y-55.0
X247.0Y-56.0
X247.0Y-57.0
X247.0Y-58.0
X247.0Y-59.0
X247.0Y-60.0
X247.0Y-61.0
X247.0Y-62.0
X247.0Y-63.0
X247.0Y-64.0
X247.0Y-65.0
X247.0Y-66.0
X247.0Y-67.0
X247.0Y-68.0
X247.0Y-69.0
X247.0Y-70.0
X247.0Y-71.0
X248.0Y-27.0
X248.0Y-28.0
X248.0Y-29.0
X248.0Y-30.0
X248.0Y-31.0
X248.0Y-32.0
X248.0Y-33.0
X248.0Y-34.0
X248.0Y-35.0
X248.0Y-36.0
X248.0Y-37.0
X248.0Y-38.0
X248.0Y-39.0
X248.0Y-40.0
X248.0Y-41.0
X248.0Y-42.0
X248.0Y-43.0
X248.0Y-55.0
X248.0Y-56.0
X248.0Y-57.0
X248.0Y-58.0
X248.0Y-59.0
X248.0Y-60.0
X248.0Y-61.0
X248.0Y-62.0
X248.0Y-63.0
X248.0Y-64.0
X248.0Y-65.0
X248.0Y-66.0
X248.0Y-67.0
X248.0Y-68.0
X248.0Y-69.0
X248.0Y-70.0
X248.0Y-71.0
X249.0Y-27.0
X249.0Y-28.0
X249.0Y-29.0
X249.0Y-30.0
X249.0Y-31.0
X249.0Y-32.0
X249.0Y-33.0
X249.0Y-34.0
X249.0Y-35.0
X249.0Y-36.0
X249.0Y-37.0
X249.0Y-38.0
X249.0Y-39.0
X249.0Y-40.0
X249.0Y-41.0
X249.0Y-42.0
X249.0Y-43.0
X249.0Y-55.0
X249.0Y-56.0
X249.0Y-57.0
X249.0Y-58.0
X249.0Y-59.0
X249.0Y-60.0
X249.0Y-61.0
X249.0Y-62.0
X249.0Y-63.0
X249.0Y-64.0
X249.0Y-65.0
X249.0Y-66.0
X249.0Y-67.0
X249.0Y-68.0
X249.0Y-69.0
X249.0Y-70.0
X249.0Y-71.0
X250.0Y-27.0
X250.0Y-28.0
X250.0Y-29.0
X250.0Y-30.0
X250.0Y-31.0
X250.0Y-32.0
X250.0Y-33.0
X250.0Y-34.0
X250.0Y-35.0
X250.0Y-36.0
X250.0Y-37.0
X250.0Y-38.0
X250.0Y-39.0
X250.0Y-40.0
X250.0Y-41.0
X250.0Y-42.0
X250.0Y-43.0
X250.0Y-55.0
X250.0Y-56.0
X250.0Y-57.0
X250.0Y-58.0
X250.0Y-59.0
X250.0Y-60.0
X250.0Y-61.0
X250.0Y-62.0
X250.0Y-63.0
X250.0Y-64.0
X250.0Y-65.0
X250.0Y-66.0
X250.0Y-67.0
X250.0Y-68.0
X250.0Y-69.0
X250.0Y-70.0
X250.0Y-71.0
X251.0Y-27.0
X251.0Y-28.0
X251.0Y-29.0
X251.0Y-30.0
X251.0Y-31.0
X251.0Y-32.0
X251.0Y-33.0
X251.0Y-34.0
X251.0Y-35.0
X251.0Y-36.0
X251.0Y-37.0
X251.0Y-38.0
X251.0Y-39.0
X251.0Y-40.0
X251.0Y-41.0
X251.0Y-42.0
X251.0Y-43.0
X251.0Y-55.0
X251.0Y-56.0
X251.0Y-57.0
X251.0Y-58.0
X251.0Y-59.0
X251.0Y-60.0
X251.0Y-61.0
X251.0Y-62.0
X251.0Y-63.0
X251.0Y-64.0
X251.0Y-65.0
X251.0Y-66.0
X251.0Y-67.0
X251.0Y-68.0
X251.0Y-69.0
X251.0Y-70.0
X251.0Y-71.0
X252.0Y-27.0
X252.0Y-28.0
X252.0Y-29.0
X252.0Y-30.0
X252.0Y-31.0
X252.0Y-32.0
X252.0Y-33.0
X252.0Y-34.0
X252.0Y-35.0
X252.0Y-36.0
X252.0Y-37.0
X252.0Y-38.0
X252.0Y-39.0
X252.0Y-40.0
X252.0Y-41.0
X252.0Y-42.0
X252.0Y-43.0
X252.0Y-55.0
X252.0Y-56.0
X252.0Y-57.0
X252.0Y-58.0
X252.0Y-59.0
X252.0Y-60.0
X252.0Y-61.0
X252.0Y-62.0
X252.0Y-63.0
X252.0Y-64.0
X252.0Y-65.0
X252.0Y-66.0
X252.0Y-67.0
X252.0Y-68.0
X252.0Y-69.0
X252.0Y-70.0
X252.0Y-71.0
X253.0Y-27.0
X253.0Y-28.0
X253.0Y-29.0
X253.0Y-30.0
X253.0Y-31.0
X253.0Y-32.0
X253.0Y-33.0
X253.0Y-34.0
X253.0Y-35.0
X253.0Y-36.0
X253.0Y-37.0
X253.0Y-38.0
X253.0Y-39.0
X253.0Y-40.0
X253.0Y-41.0
X253.0Y-42.0
X253.0Y-43.0
X253.0Y-55.0
X253.0Y-56.0
X253.0Y-57.0
X253.0Y-58.0
X253.0Y-59.0
X253.0Y-60.0
X253.0Y-61.0
X253.0Y-62.0
X253.0Y-63.0
X253.0Y-64.0
X253.0Y-65.0
X253.0Y-66.0
X253.0Y-67.0
X253.0Y-68.0
X253.0Y-69.0
X253.0Y-70.0
X253.0Y-71.0
X254.0Y-27.0
X254.0Y-28.0
X254.0Y-29.0
X254.0Y-30.0
X254.0Y-31.0
X254.0Y-32.0
X254.0Y-33.0
X254.0Y-34.0
X254.0Y-35.0
X254.0Y-36.0
X254.0Y-37.0
X254.0Y-38.0
X254.0Y-39.0
X254.0Y-40.0
X254.0Y-41.0
X254.0Y-42.0
X254.0Y-43.0
X254.0Y-55.0
X254.0Y-56.0
X254.0Y-57.0
X254.0Y-58.0
X254.0Y-59.0
X254.0Y-60.0
X254.0Y-61.0
X254.0Y-62.0
X254.0Y-63.0
X254.0Y-64.0
X254.0Y-65.0
X254.0Y-66.0
X254.0Y-67.0
X254.0Y-68.0
X254.0Y-69.0
X254.0Y-70.0
X254.0Y-71.0
X255.0Y-27.0
X255.0Y-28.0
X255.0Y-29.0
X255.0Y-30.0
X255.0Y-31.0
X255.0Y-32.0
X255.0Y-33.0
X255.0Y-34.0
X255.0Y-35.0
X255.0Y-36.0
X255.0Y-37.0
X255.0Y-38.0
X255.0Y-39.0
X255.0Y-40.0
X255.0Y-41.0
X255.0Y-42.0
X255.0Y-43.0
X255.0Y-55.0
X255.0Y-56.0
X255.0Y-57.0
X255.0Y-58.0
X255.0Y-59.0
X255.0Y-60.0
X255.0Y-61.0
X255.0Y-62.0
X255.0Y-63.0
X255.0Y-64.0
X255.0Y-65.0
X255.0Y-66.0
X255.0Y-67.0
X255.0Y-68.0
X255.0Y-69.0
X255.0Y-70.0
X255.0Y-71.0
X256.0Y-27.0
X256.0Y-28.0
X256.0Y-29.0
X256.0Y-30.0
X256.0Y-31.0
X256.0Y-32.0
X256.0Y-33.0
X256.0Y-34.0
X256.0Y-35.0
X256.0Y-36.0
X256.0Y-37.0
X256.0Y-38.0
X256.0Y-39.0
X256.0Y-40.0
X256.0Y-41.0
X256.0Y-42.0
X256.0Y-43.0
X256.0Y-55.0
X256.0Y-56.0
X256.0Y-57.0
X256.0Y-58.0
X256.0Y-59.0
X256.0Y-60.0
X256.0Y-61.0
X256.0Y-62.0
X256.0Y-63.0
X256.0Y-64.0
X256.0Y-65.0
X256.0Y-66.0
X256.0Y-67.0
X256.0Y-68.0
X256.0Y-69.0
X256.0Y-70.0
X256.0Y-71.0
X257.0Y-27.0
X257.0Y-28.0
X257.0Y-29.0
X257.0Y-30.0
X257.0Y-31.0
X257.0Y-32.0
X257.0Y-33.0
X257.0Y-34.0
X257.0Y-35.0
X257.0Y-36.0
X257.0Y-37.0
X257.0Y-38.0
X257.0Y-39.0
X257.0Y-40.0
X257.0Y-41.0
X257.0Y-42.0
X257.0Y-43.0
X257.0Y-55.0
X257.0Y-56.0
X257.0Y-57.0
X257.0Y-58.0
X257.0Y-59.0
X257.0Y-60.0
X257.0Y-61.0
X257.0Y-62.0
X257.0Y-63.0
X257.0Y-64.0
X257.0Y-65.0
X257.0Y-66.0
X257.0Y-67.0
X257.0Y-68.0
X257.0Y-69.0
X257.0Y-70.0
X257.0Y-71.0
X258.0Y-27.0
X258.0Y-28.0
X258.0Y-29.0
X258.0Y-30.0
X258.0Y-31.0
X258.0Y-32.0
X258.0Y-33.0
X258.0Y-34.0
X258.0Y-35.0
X258.0Y-36.0
X258.0Y-37.0
X258.0Y-38.0
X258.0Y-39.0
X258.0Y-40.0
X258.0Y-41.0
X258.0Y-42.0
X258.0Y-43.0
X258.0Y-55.0
X258.0Y-56.0
X258.0Y-57.0
X258.0Y-58.0
X258.0Y-59.0
X258.0Y-60.0
X258.0Y-61.0
X258.0Y-62.0
X258.0Y-63.0
X258.0Y-64.0
X258.0Y-65.0
X258.0Y-66.0
X258.0Y-67.0
X258.0Y-68.0
X258.0Y-69.0
X258.0Y-70.0
X258.0Y-71.0
X259.0Y-27.0
X259.0Y-28.0
X259.0Y-29.0
X259.0Y-30.0
X259.0Y-31.0
X259.0Y-32.0
X259.0Y-33.0
X259.0Y-34.0
X259.0Y-35.0
X259.0Y-36.0
X259.0Y-37.0
X259.0Y-38.0
X259.0Y-39.0
X259.0Y-40.0
X259.0Y-41.0
X259.0Y-42.0
X259.0Y-43.0
X259.0Y-55.0
X259.0Y-56.0
X259.0Y-57.0
X259.0Y-58.0
X259.0Y-59.0
X259.0Y-60.0
X259.0Y-61.0
X259.0Y-62.0
X259.0Y-63.0
X259.0Y-64.0
X259.0Y-65.0
X259.0Y-66.0
X259.0Y-67.0
X259.0Y-68.0
X259.0Y-69.0
X259.0Y-70.0
X259.0Y-71.0
X260.0Y-27.0
X260.0Y-28.0
X260.0Y-29.0
X260.0Y-30.0
X260.0Y-31.0
X260.0Y-32.0
X260.0Y-33.0
X260.0Y-34.0
X260.0Y-35.0
X260.0Y-36.0
X260.0Y-37.0
X260.0Y-38.0
X260.0Y-39.0
X260.0Y-40.0
X260.0Y-41.0
X260.0Y-42.0
X260.0Y-43.0
X260.0Y-55.0
X260.0Y-56.0
X260.0Y-57.0
X260.0Y-58.0
X260.0Y-59.0
X260.0Y-60.0
X260.0Y-61.0
X260.0Y-62.0
X260.0Y-63.0
X260.0Y-64.0
X260.0Y-65.0
X260.0Y-66.0
X260.0Y-67.0
X260.0Y-68.0
X260.0Y-69.0
X260.0Y-70.0
X260.0Y-71.0
X261.0Y-27.0
X261.0Y-28.0
X261.0Y-29.0
X261.0Y-30.0
X261.0Y-31.0
X261.0Y-32.0
X261.0Y-33.0
X261.0Y-34.0
X261.0Y-35.0
X261.0Y-36.0
X261.0Y-37.0
X261.0Y-38.0
X261.0Y-39.0
X261.0Y-40.0
X261.0Y-41.0
X261.0Y-42.0
X261.0Y-43.0
X261.0Y-55.0
X261.0Y-56.0
X261.0Y-57.0
X261.0Y-58.0
X261.0Y-59.0
X261.0Y-60.0
X261.0Y-61.0
X261.0Y-62.0
X261.0Y-63.0
X261.0Y-64.0
X261.0Y-65.0
X261.0Y-66.0
X261.0Y-67.0
X261.0Y-68.0
X261.0Y-69.0
X261.0Y-70.0
X261.0Y-71.0
X262.0Y-27.0
X262.0Y-28.0
X262.0Y-29.0
X262.0Y-30.0
X262.0Y-31.0
X262.0Y-32.0
X262.0Y-33.0
X262.0Y-34.0
X262.0Y-35.0
X262.0Y-36.0
X262.0Y-37.0
X262.0Y-38.0
X262.0Y-39.0
X262.0Y-40.0
X262.0Y-41.0
X262.0Y-42.0
X262.0Y-43.0
X262.0Y-55.0
X262.0Y-56.0
X262.0Y-57.0
X262.0Y-58.0
X262.0Y-59.0
X262.0Y-60.0
X262.0Y-61.0
X262.0Y-62.0
X262.0Y-63.0
X262.0Y-64.0
X262.0Y-65.0
X262.0Y-66.0
X262.0Y-67.0
X262.0Y-68.0
X262.0Y-69.0
X262.0Y-70.0
X262.0Y-71.0
X263.0Y-27.0
X263.0Y-28.0
X263.0Y-29.0
X263.0Y-30.0
X263.0Y-31.0
X263.0Y-32.0
X263.0Y-33.0
X263.0Y-34.0
X263.0Y-35.0
X263.0Y-36.0
X263.0Y-37.0
X263.0Y-38.0
X263.0Y-39.0
X263.0Y-40.0
X263.0Y-41.0
X263.0Y-42.0
X263.0Y-43.0
X263.0Y-55.0
X263.0Y-56.0
X263.0Y-57.0
X263.0Y-58.0
X263.0Y-59.0
X263.0Y-60.0
X263.0Y-61.0
X263.0Y-62.0
X263.0Y-63.0
X263.0Y-64.0
X263.0Y-65.0
X263.0Y-66.0
X263.0Y-67.0
X263.0Y-68.0
X263.0Y-69.0
X263.0Y-70.0
X263.0Y-71.0
X264.0Y-27.0
X264.0Y-28.0
X264.0Y-29.0
X264.0Y-30.0
X264.0Y-31.0
X264.0Y-32.0
X264.0Y-33.0
X264.0Y-34.0
X264.0Y-35.0
X264.0Y-36.0
X264.0Y-37.0
X264.0Y-38.0
X264.0Y-39.0
X264.0Y-40.0
X264.0Y-41.0
X264.0Y-42.0
X264.0Y-43.0
X264.0Y-55.0
X264.0Y-56.0
X264.0Y-57.0
X264.0Y-58.0
X264.0Y-59.0
X264.0Y-60.0
X264.0Y-61.0
X264.0Y-62.0
X264.0Y-63.0
X264.0Y-64.0
X264.0Y-65.0
X264.0Y-66.0
X264.0Y-67.0
X264.0Y-68.0
X264.0Y-69.0
X264.0Y-70.0
X265.0Y8.0
X265.0Y7.0
X265.0Y6.0
X265.0Y5.0
X265.0Y4.0
X265.0Y3.0
X265.0Y2.0
X265.0Y1.0
X265.0Y0.0
X265.0Y-1.0
X265.0Y-2.0
X265.0Y-3.0
X265.0Y-4.0
X265.0Y-7.0
X265.0Y-27.0
X265.0Y-28.0
X265.0Y-29.0
X265.0Y-30.0
X265.0Y-31.0
X265.0Y-32.0
X265.0Y-33.0
X265.0Y-34.0
X265.0Y-35.0
X265.0Y-36.0
X265.0Y-37.0
X265.0Y-38.0
X265.0Y-39.0
X265.0Y-40.0
X265.0Y-41.0
X265.0Y-42.0
X265.0Y-43.0
X265.0Y-55.0
X265.0Y-56.0
X265.0Y-57.0
X265.0Y-58.0
X265.0Y-59.0
X265.0Y-60.0
X265.0Y-61.0
X265.0Y-62.0
X265.0Y-63.0
X265.0Y-64.0
X265.0Y-65.0
X265.0Y-66.0
X265.0Y-67.0
X265.0Y-68.0
X265.0Y-69.0
X265.0Y-70.0
X266.0Y8.0
X266.0Y7.0
X266.0Y6.0
X266.0Y5.0
X266.0Y4.0
X266.0Y3.0
X266.0Y2.0
X266.0Y1.0
X266.0Y0.0
X266.0Y-1.0
X266.0Y-2.0
X266.0Y-3.0
X266.0Y-4.0
X266.0Y-7.0
X266.0Y-27.0
X266.0Y-28.0
X266.0Y-29.0
X266.0Y-30.0
X266.0Y-31.0
X266.0Y-32.0
X266.0Y-33.0
X266.0Y-34.0
X266.0Y-35.0
X266.0Y-36.0
X266.0Y-37.0
X266.0Y-38.0
X266.0Y-39.0
X266.0Y-40.0
X266.0Y-41.0
X266.0Y-42.0
X266.0Y-43.0
X266.0Y-55.0
X266.0Y-56.0
X266.0Y-57.0
X266.0Y-58.0
X266.0Y-59.0
X266.0Y-60.0
X266.0Y-61.0
X266.0Y-62.0
X266.0Y-63.0
X266.0Y-64.0
X266.0Y-65.0
X266.0Y-66.0
X266.0Y-67.0
X266.0Y-68.0
X266.0Y-69.0
X266.0Y-70.0
X266.0Y-71.0
X267.0Y8.0
X267.0Y7.0
X267.0Y6.0
X267.0Y5.0
X267.0Y4.0
X267.0Y3.0
X267.0Y2.0
X267.0Y1.0
X267.0Y0.0
X267.0Y-1.0
X267.0Y-2.0
X267.0Y-3.0
X267.0Y-4.0
X267.0Y-5.0
X267.0Y-7.0
X267.0Y-27.0
X267.0Y-28.0
X267.0Y-29.0
X267.0Y-30.0
X267.0Y-31.0
X267.0Y-32.0
X267.0Y-33.0
X267.0Y-34.0
X267.0Y-35.0
X267.0Y-36.0
X267.0Y-37.0
X267.0Y-38.0
X267.0Y-39.0
X267.0Y-40.0
X267.0Y-41.0
X267.0Y-42.0
X267.0Y-43.0
X267.0Y-55.0
X267.0Y-56.0
X267.0Y-57.0
X267.0Y-58.0
X267.0Y-59.0
X267.0Y-60.0
X267.0Y-61.0
X267.0Y-62.0
X267.0Y-63.0
X267.0Y-64.0
X267.0Y-65.0
X267.0Y-66.0
X267.0Y-67.0
X267.0Y-68.0
X267.0Y-69.0
X267.0Y-70.0
X267.0Y-71.0
X268.0Y8.0
X268.0Y7.0
X268.0Y6.0
X268.0Y5.0
X268.0Y4.0
X268.0Y3.0
X268.0Y2.0
X268.0Y1.0
X268.0Y0.0
X268.0Y-1.0
X268.0Y-2.0
X268.0Y-3.0
X268.0Y-4.0
X268.0Y-5.0
X268.0Y-6.0
X268.0Y-7.0
X268.0Y-27.0
X268.0Y-28.0
X268.0Y-29.0
X268.0Y-30.0
X268.0Y-31.0
X268.0Y-32.0
X268.0Y-33.0
X268.0Y-34.0
X268.0Y-35.0
X268.0Y-36.0
X268.0Y-37.0
X268.0Y-38.0
X268.0Y-39.0
X268.0Y-40.0
X268.0Y-41.0
X268.0Y-42.0
X268.0Y-43.0
X268.0Y-55.0
X268.0Y-56.0
X268.0Y-57.0
X268.0Y-58.0
X268.0Y-59.0
X268.0Y-60.0
X268.0Y-61.0
X268.0Y-62.0
X268.0Y-63.0
X268.0Y-64.0
X268.0Y-65.0
X268.0Y-66.0
X268.0Y-67.0
X268.0Y-68.0
X268.0Y-69.0
X268.0Y-70.0
X268.0Y-71.0
X269.0Y8.0
X269.0Y7.0
X269.0Y6.0
X269.0Y5.0
X269.0Y4.0
X269.0Y3.0
X269.0Y2.0
X269.0Y1.0
X269.0Y0.0
X269.0Y-1.0
X269.0Y-2.0
X269.0Y-3.0
X269.0Y-4.0
X269.0Y-5.0
X269.0Y-6.0
X269.0Y-7.0
X269.0Y-27.0
X269.0Y-28.0
X269.0Y-29.0
X269.0Y-30.0
X269.0Y-31.0
X269.0Y-32.0
X269.0Y-33.0
X269.0Y-34.0
X269.0Y-35.0
X269.0Y-36.0
X269.0Y-37.0
X269.0Y-38.0
X269.0Y-39.0
X269.0Y-40.0
X269.0Y-41.0
X269.0Y-42.0
X269.0Y-43.0
X269.0Y-55.0
X269.0Y-56.0
X269.0Y-57.0
X269.0Y-58.0
X269.0Y-59.0
X269.0Y-60.0
X269.0Y-61.0
X269.0Y-62.0
X269.0Y-63.0
X269.0Y-64.0
X269.0Y-65.0
X269.0Y-66.0
X269.0Y-67.0
X269.0Y-68.0
X269.0Y-69.0
X269.0Y-70.0
X269.0Y-71.0
X270.0Y8.0
X270.0Y7.0
X270.0Y6.0
X270.0Y5.0
X270.0Y1.0
X270.0Y0.0
X270.0Y-1.0
X270.0Y-2.0
X270.0Y-3.0
X270.0Y-4.0
X270.0Y-5.0
X270.0Y-6.0
X270.0Y-7.0
X270.0Y-27.0
X270.0Y-28.0
X270.0Y-29.0
X270.0Y-30.0
X270.0Y-31.0
X270.0Y-32.0
X270.0Y-33.0
X270.0Y-34.0
X270.0Y-35.0
X270.0Y-36.0
X270.0Y-37.0
X270.0Y-38.0
X270.0Y-39.0
X270.0Y-40.0
X270.0Y-41.0
X270.0Y-42.0
X270.0Y-43.0
X270.0Y-55.0
X270.0Y-56.0
X270.0Y-57.0
X270.0Y-58.0
X270.0Y-59.0
X270.0Y-60.0
X270.0Y-61.0
X270.0Y-62.0
X270.0Y-63.0
X270.0Y-64.0
X270.0Y-65.0
X270.0Y-66.0
X270.0Y-67.0
X270.0Y-68.0
X270.0Y-69.0
X270.0Y-70.0
X270.0Y-71.0
X271.0Y8.0
X271.0Y7.0
X271.0Y-1.0
X271.0Y-2.0
X271.0Y-3.0
X271.0Y-4.0
X271.0Y-5.0
X271.0Y-6.0
X271.0Y-7.0
X271.0Y-27.0
X271.0Y-28.0
X271.0Y-29.0
X271.0Y-30.0
X271.0Y-31.0
X271.0Y-32.0
X271.0Y-33.0
X271.0Y-34.0
X271.0Y-35.0
X271.0Y-36.0
X271.0Y-37.0
X271.0Y-38.0
X271.0Y-39.0
X271.0Y-40.0
X271.0Y-41.0
X271.0Y-42.0
X271.0Y-43.0
X271.0Y-55.0
X271.0Y-56.0
X271.0Y-57.0
X271.0Y-58.0
X271.0Y-59.0
X271.0Y-60.0
X271.0Y-61.0
X271.0Y-62.0
X271.0Y-63.0
X271.0Y-64.0
X271.0Y-65.0
X271.0Y-66.0
X271.0Y-67.0
X271.0Y-68.0
X271.0Y-69.0
X271.0Y-70.0
X271.0Y-71.0
X272.0Y8.0
X272.0Y-2.0
X272.0Y-3.0
X272.0Y-4.0
X272.0Y-5.0
X272.0Y-6.0
X272.0Y-7.0
X272.0Y-27.0
X272.0Y-28.0
X272.0Y-29.0
X272.0Y-30.0
X272.0Y-31.0
X272.0Y-32.0
X272.0Y-33.0
X272.0Y-34.0
X272.0Y-35.0
X272.0Y-36.0
X272.0Y-37.0
X272.0Y-38.0
X272.0Y-39.0
X272.0Y-40.0
X272.0Y-41.0
X272.0Y-42.0
X272.0Y-43.0
X272.0Y-55.0
X272.0Y-56.0
X272.0Y-57.0
X272.0Y-58.0
X272.0Y-59.0
X272.0Y-60.0
X272.0Y-61.0
X272.0Y-62.0
X272.0Y-63.0
X272.0Y-64.0
X272.0Y-65.0
X272.0Y-66.0
X272.0Y-67.0
X272.0Y-68.0
X272.0Y-69.0
X272.0Y-70.0
X272.0Y-71.0
X273.0Y8.0
X273.0Y-2.0
X273.0Y-3.0
X273.0Y-4.0
X273.0Y-5.0
X273.0Y-7.0
X273.0Y-27.0
X273.0Y-28.0
X273.0Y-29.0
X273.0Y-30.0
X273.0Y-31.0
X273.0Y-32.0
X273.0Y-33.0
X273.0Y-34.0
X273.0Y-35.0
X273.0Y-36.0
X273.0Y-37.0
X273.0Y-38.0
X273.0Y-39.0
X273.0Y-40.0
X273.0Y-41.0
X273.0Y-42.0
X273.0Y-43.0
X273.0Y-55.0
X273.0Y-56.0
X273.0Y-57.0
X273.0Y-58.0
X273.0Y-59.0
X273.0Y-60.0
X273.0Y-61.0
X273.0Y-62.0
X273.0Y-63.0
X273.0Y-64.0
X273.0Y-65.0
X273.0Y-66.0
X273.0Y-67.0
X273.0Y-68.0
X273.0Y-69.0
X273.0Y-70.0
X273.0Y-71.0
X274.0Y-3.0
X274.0Y-4.0
X275.0Y-3.0
X275.0Y-4.0
X275.0Y-5.0
X275.0Y-7.0
X275.0Y-79.0
X275.0Y-80.0
X275.0Y-81.0
X275.0Y-82.0
X275.0Y-83.0
X275.0Y-84.0
X275.0Y-85.0
X275.0Y-86.0
X276.0Y-3.0
X276.0Y-4.0
X276.0Y-5.0
X276.0Y-6.0
X276.0Y-7.0
X276.0Y-78.0
X276.0Y-79.0
X276.0Y-80.0
X276.0Y-81.0
X276.0Y-82.0
X276.0Y-83.0
X276.0Y-84.0
X276.0Y-85.0
X276.0Y-86.0
X277.0Y8.0
X277.0Y-2.0
X277.0Y-3.0
X277.0Y-4.0
X277.0Y-5.0
X277.0Y-6.0
X277.0Y-7.0
X277.0Y-77.0
X277.0Y-78.0
X277.0Y-79.0
X277.0Y-80.0
X277.0Y-81.0
X277.0Y-82.0
X277.0Y-83.0
X277.0Y-84.0
X277.0Y-85.0
X277.0Y-86.0
X278.0Y8.0
X278.0Y-2.0
X278.0Y-3.0
X278.0Y-4.0
X278.0Y-5.0
X278.0Y-6.0
X278.0Y-7.0
X278.0Y-76.0
X278.0Y-77.0
X278.0Y-78.0
X278.0Y-79.0
X278.0Y-80.0
X278.0Y-81.0
X278.0Y-82.0
X278.0Y-83.0
X278.0Y-84.0
X278.0Y-85.0
X278.0Y-86.0
X279.0Y8.0
X279.0Y7.0
X279.0Y-1.0
X279.0Y-2.0
X279.0Y-3.0
X279.0Y-4.0
X279.0Y-5.0
X279.0Y-6.0
X279.0Y-7.0
X279.0Y-76.0
X279.0Y-77.0
X279.0Y-78.0
X279.0Y-79.0
X279.0Y-80.0
X279.0Y-81.0
X279.0Y-82.0
X279.0Y-83.0
X279.0Y-84.0
X279.0Y-85.0
X279.0Y-86.0
X280.0Y8.0
X280.0Y7.0
X280.0Y6.0
X280.0Y5.0
X280.0Y1.0
X280.0Y0.0
X280.0Y-1.0
X280.0Y-2.0
X280.0Y-3.0
X280.0Y-4.0
X280.0Y-5.0
X280.0Y-6.0
X280.0Y-7.0
X280.0Y-76.0
X280.0Y-77.0
X280.0Y-78.0
X280.0Y-79.0
X280.0Y-83.0
X280.0Y-84.0
X280.0Y-85.0
X280.0Y-86.0
X281.0Y8.0
X281.0Y7.0
X281.0Y6.0
X281.0Y5.0
X281.0Y4.0
X281.0Y3.0
X281.0Y2.0
X281.0Y1.0
X281.0Y0.0
X281.0Y-1.0
X281.0Y-2.0
X281.0Y-3.0
X281.0Y-4.0
X281.0Y-5.0
X281.0Y-6.0
X281.0Y-7.0
X281.0Y-76.0
X281.0Y-77.0
X281.0Y-85.0
X281.0Y-86.0
X282.0Y8.0
X282.0Y7.0
X282.0Y6.0
X282.0Y5.0
X282.0Y4.0
X282.0Y3.0
X282.0Y2.0
X282.0Y1.0
X282.0Y0.0
X282.0Y-1.0
X282.0Y-2.0
X282.0Y-3.0
X282.0Y-4.0
X282.0Y-5.0
X282.0Y-6.0
X282.0Y-7.0
X282.0Y-76.0
X282.0Y-86.0
X283.0Y-76.0
X283.0Y-86.0
X287.0Y-86.0
X288.0Y-86.0
X289.0Y-85.0
X289.0Y-86.0
X290.0Y-83.0
X290.0Y-84.0
X290.0Y-85.0
X290.0Y-86.0
X291.0Y-81.0
X291.0Y-82.0
X291.0Y-83.0
X291.0Y-84.0
X291.0Y-85.0
X291.0Y-86.0
T2
X18.0Y-75.5
X18.0Y-85.5
X24.0Y-75.5
X24.0Y-85.5
X72.0Y-1.0
X72.0Y-7.1
X82.0Y-1.0
X82.0Y-7.1
X108.0Y-4.0
X108.0Y-14.0
X114.0Y-4.0
X114.0Y-14.0
X162.0Y-0.9
X162.0Y-7.0
X166.4Y-75.5
X166.4Y-85.5
X172.0Y-0.9
X172.0Y-7.0
X172.5Y-75.5
X172.5Y-85.5
X198.0Y-4.0
X198.0Y-14.0
X204.0Y-4.0
X204.0Y-14.0
X252.0Y6.0
X252.0Y0.0
X258.464Y-13.036
X262.0Y6.0
X262.0Y0.0
X262.0Y-75.5
X262.0Y-85.5
X265.536Y-5.964
X266.964Y-13.036
X268.0Y-75.5
X268.0Y-85.5
X274.036Y-5.964
T3
X15.0Y-19.0
X15.0Y-71.5
X35.3Y-19.0
X35.3Y-71.5
X64.0Y-19.0
X64.0Y-71.5
X84.3Y-19.0
X84.3Y-71.5
X105.0Y-19.0
X105.0Y-71.5
X125.3Y-19.0
X125.3Y-71.5
X154.0Y-19.0
X154.0Y-71.5
X174.3Y-19.0
X174.3Y-71.5
X195.0Y-19.0
X195.0Y-71.5
X215.3Y-19.0
X215.3Y-71.5
X244.0Y-19.0
X244.0Y-71.5
X264.3Y-19.0
X264.3Y-71.5
T4
X6.0Y-81.0
X50.0Y-7.0
X50.0Y-35.0
X50.0Y-63.0
X95.0Y3.0
X140.0Y-7.0
X140.0Y-35.0
X140.0Y-63.0
X185.0Y3.0
X185.0Y-81.0
X230.0Y-7.0
X230.0Y-35.0
X230.0Y-63.0
X275.0Y3.0
X285.0Y-81.0
T5
X6.85Y-27.15
X6.85Y-66.05
M30
