%TF.GenerationSoftware,KiCad,Pcbnew,9.0.1*%
%TF.CreationDate,2026-02-08T14:41:03-08:00*%
%TF.ProjectId,DCBusFilter,44434275-7346-4696-9c74-65722e6b6963,rev?*%
%TF.SameCoordinates,Original*%
%TF.FileFunction,Legend,Bot*%
%TF.FilePolarity,Positive*%
%FSLAX46Y46*%
G04 Gerber Fmt 4.6, Leading zero omitted, Abs format (unit mm)*
G04 Created by KiCad (PCBNEW 9.0.1) date 2026-02-08 14:41:03*
%MOMM*%
%LPD*%
G01*
G04 APERTURE LIST*
%ADD10C,0.300000*%
%ADD11C,0.225000*%
%ADD12C,0.254000*%
%ADD13C,0.200000*%
%ADD14R,2.400000X2.400000*%
%ADD15C,2.400000*%
G04 APERTURE END LIST*
D10*
X83483083Y-45270366D02*
X83983083Y-45270366D01*
X83983083Y-46056080D02*
X83983083Y-44556080D01*
X83983083Y-44556080D02*
X83268797Y-44556080D01*
X82411654Y-44556080D02*
X82125940Y-44556080D01*
X82125940Y-44556080D02*
X81983083Y-44627509D01*
X81983083Y-44627509D02*
X81840226Y-44770366D01*
X81840226Y-44770366D02*
X81768797Y-45056080D01*
X81768797Y-45056080D02*
X81768797Y-45556080D01*
X81768797Y-45556080D02*
X81840226Y-45841794D01*
X81840226Y-45841794D02*
X81983083Y-45984652D01*
X81983083Y-45984652D02*
X82125940Y-46056080D01*
X82125940Y-46056080D02*
X82411654Y-46056080D01*
X82411654Y-46056080D02*
X82554512Y-45984652D01*
X82554512Y-45984652D02*
X82697369Y-45841794D01*
X82697369Y-45841794D02*
X82768797Y-45556080D01*
X82768797Y-45556080D02*
X82768797Y-45056080D01*
X82768797Y-45056080D02*
X82697369Y-44770366D01*
X82697369Y-44770366D02*
X82554512Y-44627509D01*
X82554512Y-44627509D02*
X82411654Y-44556080D01*
X80268797Y-46056080D02*
X80768797Y-45341794D01*
X81125940Y-46056080D02*
X81125940Y-44556080D01*
X81125940Y-44556080D02*
X80554511Y-44556080D01*
X80554511Y-44556080D02*
X80411654Y-44627509D01*
X80411654Y-44627509D02*
X80340225Y-44698937D01*
X80340225Y-44698937D02*
X80268797Y-44841794D01*
X80268797Y-44841794D02*
X80268797Y-45056080D01*
X80268797Y-45056080D02*
X80340225Y-45198937D01*
X80340225Y-45198937D02*
X80411654Y-45270366D01*
X80411654Y-45270366D02*
X80554511Y-45341794D01*
X80554511Y-45341794D02*
X81125940Y-45341794D01*
X78483083Y-44556080D02*
X78483083Y-45770366D01*
X78483083Y-45770366D02*
X78411654Y-45913223D01*
X78411654Y-45913223D02*
X78340226Y-45984652D01*
X78340226Y-45984652D02*
X78197368Y-46056080D01*
X78197368Y-46056080D02*
X77911654Y-46056080D01*
X77911654Y-46056080D02*
X77768797Y-45984652D01*
X77768797Y-45984652D02*
X77697368Y-45913223D01*
X77697368Y-45913223D02*
X77625940Y-45770366D01*
X77625940Y-45770366D02*
X77625940Y-44556080D01*
X76983082Y-45984652D02*
X76768797Y-46056080D01*
X76768797Y-46056080D02*
X76411654Y-46056080D01*
X76411654Y-46056080D02*
X76268797Y-45984652D01*
X76268797Y-45984652D02*
X76197368Y-45913223D01*
X76197368Y-45913223D02*
X76125939Y-45770366D01*
X76125939Y-45770366D02*
X76125939Y-45627509D01*
X76125939Y-45627509D02*
X76197368Y-45484652D01*
X76197368Y-45484652D02*
X76268797Y-45413223D01*
X76268797Y-45413223D02*
X76411654Y-45341794D01*
X76411654Y-45341794D02*
X76697368Y-45270366D01*
X76697368Y-45270366D02*
X76840225Y-45198937D01*
X76840225Y-45198937D02*
X76911654Y-45127509D01*
X76911654Y-45127509D02*
X76983082Y-44984652D01*
X76983082Y-44984652D02*
X76983082Y-44841794D01*
X76983082Y-44841794D02*
X76911654Y-44698937D01*
X76911654Y-44698937D02*
X76840225Y-44627509D01*
X76840225Y-44627509D02*
X76697368Y-44556080D01*
X76697368Y-44556080D02*
X76340225Y-44556080D01*
X76340225Y-44556080D02*
X76125939Y-44627509D01*
X75483083Y-45270366D02*
X74983083Y-45270366D01*
X74768797Y-46056080D02*
X75483083Y-46056080D01*
X75483083Y-46056080D02*
X75483083Y-44556080D01*
X75483083Y-44556080D02*
X74768797Y-44556080D01*
X73125940Y-44556080D02*
X72768797Y-46056080D01*
X72768797Y-46056080D02*
X72483083Y-44984652D01*
X72483083Y-44984652D02*
X72197368Y-46056080D01*
X72197368Y-46056080D02*
X71840226Y-44556080D01*
X71268797Y-46056080D02*
X71268797Y-44556080D01*
X70768796Y-44556080D02*
X69911654Y-44556080D01*
X70340225Y-46056080D02*
X70340225Y-44556080D01*
X69411654Y-46056080D02*
X69411654Y-44556080D01*
X69411654Y-45270366D02*
X68554511Y-45270366D01*
X68554511Y-46056080D02*
X68554511Y-44556080D01*
X84697368Y-46970996D02*
X84983082Y-46970996D01*
X84983082Y-46970996D02*
X85125939Y-47042425D01*
X85125939Y-47042425D02*
X85197368Y-47113853D01*
X85197368Y-47113853D02*
X85340225Y-47328139D01*
X85340225Y-47328139D02*
X85411653Y-47613853D01*
X85411653Y-47613853D02*
X85411653Y-48185282D01*
X85411653Y-48185282D02*
X85340225Y-48328139D01*
X85340225Y-48328139D02*
X85268796Y-48399568D01*
X85268796Y-48399568D02*
X85125939Y-48470996D01*
X85125939Y-48470996D02*
X84840225Y-48470996D01*
X84840225Y-48470996D02*
X84697368Y-48399568D01*
X84697368Y-48399568D02*
X84625939Y-48328139D01*
X84625939Y-48328139D02*
X84554510Y-48185282D01*
X84554510Y-48185282D02*
X84554510Y-47828139D01*
X84554510Y-47828139D02*
X84625939Y-47685282D01*
X84625939Y-47685282D02*
X84697368Y-47613853D01*
X84697368Y-47613853D02*
X84840225Y-47542425D01*
X84840225Y-47542425D02*
X85125939Y-47542425D01*
X85125939Y-47542425D02*
X85268796Y-47613853D01*
X85268796Y-47613853D02*
X85340225Y-47685282D01*
X85340225Y-47685282D02*
X85411653Y-47828139D01*
X83983082Y-47113853D02*
X83911654Y-47042425D01*
X83911654Y-47042425D02*
X83768797Y-46970996D01*
X83768797Y-46970996D02*
X83411654Y-46970996D01*
X83411654Y-46970996D02*
X83268797Y-47042425D01*
X83268797Y-47042425D02*
X83197368Y-47113853D01*
X83197368Y-47113853D02*
X83125939Y-47256710D01*
X83125939Y-47256710D02*
X83125939Y-47399568D01*
X83125939Y-47399568D02*
X83197368Y-47613853D01*
X83197368Y-47613853D02*
X84054511Y-48470996D01*
X84054511Y-48470996D02*
X83125939Y-48470996D01*
X82483083Y-48470996D02*
X82483083Y-46970996D01*
X82483083Y-46970996D02*
X81983083Y-48042425D01*
X81983083Y-48042425D02*
X81483083Y-46970996D01*
X81483083Y-46970996D02*
X81483083Y-48470996D01*
X80768797Y-48470996D02*
X80768797Y-46970996D01*
X80768797Y-46970996D02*
X80268797Y-48042425D01*
X80268797Y-48042425D02*
X79768797Y-46970996D01*
X79768797Y-46970996D02*
X79768797Y-48470996D01*
X77911654Y-48470996D02*
X77911654Y-46970996D01*
X76411653Y-47042425D02*
X76554511Y-46970996D01*
X76554511Y-46970996D02*
X76768796Y-46970996D01*
X76768796Y-46970996D02*
X76983082Y-47042425D01*
X76983082Y-47042425D02*
X77125939Y-47185282D01*
X77125939Y-47185282D02*
X77197368Y-47328139D01*
X77197368Y-47328139D02*
X77268796Y-47613853D01*
X77268796Y-47613853D02*
X77268796Y-47828139D01*
X77268796Y-47828139D02*
X77197368Y-48113853D01*
X77197368Y-48113853D02*
X77125939Y-48256710D01*
X77125939Y-48256710D02*
X76983082Y-48399568D01*
X76983082Y-48399568D02*
X76768796Y-48470996D01*
X76768796Y-48470996D02*
X76625939Y-48470996D01*
X76625939Y-48470996D02*
X76411653Y-48399568D01*
X76411653Y-48399568D02*
X76340225Y-48328139D01*
X76340225Y-48328139D02*
X76340225Y-47828139D01*
X76340225Y-47828139D02*
X76625939Y-47828139D01*
X75197368Y-47685282D02*
X74983082Y-47756710D01*
X74983082Y-47756710D02*
X74911653Y-47828139D01*
X74911653Y-47828139D02*
X74840225Y-47970996D01*
X74840225Y-47970996D02*
X74840225Y-48185282D01*
X74840225Y-48185282D02*
X74911653Y-48328139D01*
X74911653Y-48328139D02*
X74983082Y-48399568D01*
X74983082Y-48399568D02*
X75125939Y-48470996D01*
X75125939Y-48470996D02*
X75697368Y-48470996D01*
X75697368Y-48470996D02*
X75697368Y-46970996D01*
X75697368Y-46970996D02*
X75197368Y-46970996D01*
X75197368Y-46970996D02*
X75054511Y-47042425D01*
X75054511Y-47042425D02*
X74983082Y-47113853D01*
X74983082Y-47113853D02*
X74911653Y-47256710D01*
X74911653Y-47256710D02*
X74911653Y-47399568D01*
X74911653Y-47399568D02*
X74983082Y-47542425D01*
X74983082Y-47542425D02*
X75054511Y-47613853D01*
X75054511Y-47613853D02*
X75197368Y-47685282D01*
X75197368Y-47685282D02*
X75697368Y-47685282D01*
X74411653Y-46970996D02*
X73554511Y-46970996D01*
X73983082Y-48470996D02*
X73983082Y-46970996D01*
X71983082Y-46899568D02*
X73268796Y-48828139D01*
X71554510Y-48399568D02*
X71340225Y-48470996D01*
X71340225Y-48470996D02*
X70983082Y-48470996D01*
X70983082Y-48470996D02*
X70840225Y-48399568D01*
X70840225Y-48399568D02*
X70768796Y-48328139D01*
X70768796Y-48328139D02*
X70697367Y-48185282D01*
X70697367Y-48185282D02*
X70697367Y-48042425D01*
X70697367Y-48042425D02*
X70768796Y-47899568D01*
X70768796Y-47899568D02*
X70840225Y-47828139D01*
X70840225Y-47828139D02*
X70983082Y-47756710D01*
X70983082Y-47756710D02*
X71268796Y-47685282D01*
X71268796Y-47685282D02*
X71411653Y-47613853D01*
X71411653Y-47613853D02*
X71483082Y-47542425D01*
X71483082Y-47542425D02*
X71554510Y-47399568D01*
X71554510Y-47399568D02*
X71554510Y-47256710D01*
X71554510Y-47256710D02*
X71483082Y-47113853D01*
X71483082Y-47113853D02*
X71411653Y-47042425D01*
X71411653Y-47042425D02*
X71268796Y-46970996D01*
X71268796Y-46970996D02*
X70911653Y-46970996D01*
X70911653Y-46970996D02*
X70697367Y-47042425D01*
X70054511Y-48470996D02*
X70054511Y-46970996D01*
X68483082Y-48328139D02*
X68554510Y-48399568D01*
X68554510Y-48399568D02*
X68768796Y-48470996D01*
X68768796Y-48470996D02*
X68911653Y-48470996D01*
X68911653Y-48470996D02*
X69125939Y-48399568D01*
X69125939Y-48399568D02*
X69268796Y-48256710D01*
X69268796Y-48256710D02*
X69340225Y-48113853D01*
X69340225Y-48113853D02*
X69411653Y-47828139D01*
X69411653Y-47828139D02*
X69411653Y-47613853D01*
X69411653Y-47613853D02*
X69340225Y-47328139D01*
X69340225Y-47328139D02*
X69268796Y-47185282D01*
X69268796Y-47185282D02*
X69125939Y-47042425D01*
X69125939Y-47042425D02*
X68911653Y-46970996D01*
X68911653Y-46970996D02*
X68768796Y-46970996D01*
X68768796Y-46970996D02*
X68554510Y-47042425D01*
X68554510Y-47042425D02*
X68483082Y-47113853D01*
X83125940Y-50885912D02*
X83125940Y-49385912D01*
X83125940Y-50100198D02*
X82268797Y-50100198D01*
X82268797Y-50885912D02*
X82268797Y-49385912D01*
X81625939Y-50457341D02*
X80911654Y-50457341D01*
X81768796Y-50885912D02*
X81268796Y-49385912D01*
X81268796Y-49385912D02*
X80768796Y-50885912D01*
X79554511Y-50885912D02*
X80268797Y-50885912D01*
X80268797Y-50885912D02*
X80268797Y-49385912D01*
X78554511Y-50100198D02*
X79054511Y-50100198D01*
X79054511Y-50885912D02*
X79054511Y-49385912D01*
X79054511Y-49385912D02*
X78340225Y-49385912D01*
X77768797Y-50314484D02*
X76625940Y-50314484D01*
X75411654Y-50100198D02*
X75197368Y-50171626D01*
X75197368Y-50171626D02*
X75125939Y-50243055D01*
X75125939Y-50243055D02*
X75054511Y-50385912D01*
X75054511Y-50385912D02*
X75054511Y-50600198D01*
X75054511Y-50600198D02*
X75125939Y-50743055D01*
X75125939Y-50743055D02*
X75197368Y-50814484D01*
X75197368Y-50814484D02*
X75340225Y-50885912D01*
X75340225Y-50885912D02*
X75911654Y-50885912D01*
X75911654Y-50885912D02*
X75911654Y-49385912D01*
X75911654Y-49385912D02*
X75411654Y-49385912D01*
X75411654Y-49385912D02*
X75268797Y-49457341D01*
X75268797Y-49457341D02*
X75197368Y-49528769D01*
X75197368Y-49528769D02*
X75125939Y-49671626D01*
X75125939Y-49671626D02*
X75125939Y-49814484D01*
X75125939Y-49814484D02*
X75197368Y-49957341D01*
X75197368Y-49957341D02*
X75268797Y-50028769D01*
X75268797Y-50028769D02*
X75411654Y-50100198D01*
X75411654Y-50100198D02*
X75911654Y-50100198D01*
X73554511Y-50885912D02*
X74054511Y-50171626D01*
X74411654Y-50885912D02*
X74411654Y-49385912D01*
X74411654Y-49385912D02*
X73840225Y-49385912D01*
X73840225Y-49385912D02*
X73697368Y-49457341D01*
X73697368Y-49457341D02*
X73625939Y-49528769D01*
X73625939Y-49528769D02*
X73554511Y-49671626D01*
X73554511Y-49671626D02*
X73554511Y-49885912D01*
X73554511Y-49885912D02*
X73625939Y-50028769D01*
X73625939Y-50028769D02*
X73697368Y-50100198D01*
X73697368Y-50100198D02*
X73840225Y-50171626D01*
X73840225Y-50171626D02*
X74411654Y-50171626D01*
X72911654Y-50885912D02*
X72911654Y-49385912D01*
X72197368Y-50885912D02*
X72197368Y-49385912D01*
X72197368Y-49385912D02*
X71840225Y-49385912D01*
X71840225Y-49385912D02*
X71625939Y-49457341D01*
X71625939Y-49457341D02*
X71483082Y-49600198D01*
X71483082Y-49600198D02*
X71411653Y-49743055D01*
X71411653Y-49743055D02*
X71340225Y-50028769D01*
X71340225Y-50028769D02*
X71340225Y-50243055D01*
X71340225Y-50243055D02*
X71411653Y-50528769D01*
X71411653Y-50528769D02*
X71483082Y-50671626D01*
X71483082Y-50671626D02*
X71625939Y-50814484D01*
X71625939Y-50814484D02*
X71840225Y-50885912D01*
X71840225Y-50885912D02*
X72197368Y-50885912D01*
X69911653Y-49457341D02*
X70054511Y-49385912D01*
X70054511Y-49385912D02*
X70268796Y-49385912D01*
X70268796Y-49385912D02*
X70483082Y-49457341D01*
X70483082Y-49457341D02*
X70625939Y-49600198D01*
X70625939Y-49600198D02*
X70697368Y-49743055D01*
X70697368Y-49743055D02*
X70768796Y-50028769D01*
X70768796Y-50028769D02*
X70768796Y-50243055D01*
X70768796Y-50243055D02*
X70697368Y-50528769D01*
X70697368Y-50528769D02*
X70625939Y-50671626D01*
X70625939Y-50671626D02*
X70483082Y-50814484D01*
X70483082Y-50814484D02*
X70268796Y-50885912D01*
X70268796Y-50885912D02*
X70125939Y-50885912D01*
X70125939Y-50885912D02*
X69911653Y-50814484D01*
X69911653Y-50814484D02*
X69840225Y-50743055D01*
X69840225Y-50743055D02*
X69840225Y-50243055D01*
X69840225Y-50243055D02*
X70125939Y-50243055D01*
X69197368Y-50100198D02*
X68697368Y-50100198D01*
X68483082Y-50885912D02*
X69197368Y-50885912D01*
X69197368Y-50885912D02*
X69197368Y-49385912D01*
X69197368Y-49385912D02*
X68483082Y-49385912D01*
X86983084Y-53300828D02*
X86983084Y-51800828D01*
X86983084Y-51800828D02*
X86411655Y-51800828D01*
X86411655Y-51800828D02*
X86268798Y-51872257D01*
X86268798Y-51872257D02*
X86197369Y-51943685D01*
X86197369Y-51943685D02*
X86125941Y-52086542D01*
X86125941Y-52086542D02*
X86125941Y-52300828D01*
X86125941Y-52300828D02*
X86197369Y-52443685D01*
X86197369Y-52443685D02*
X86268798Y-52515114D01*
X86268798Y-52515114D02*
X86411655Y-52586542D01*
X86411655Y-52586542D02*
X86983084Y-52586542D01*
X85197369Y-51800828D02*
X84911655Y-51800828D01*
X84911655Y-51800828D02*
X84768798Y-51872257D01*
X84768798Y-51872257D02*
X84625941Y-52015114D01*
X84625941Y-52015114D02*
X84554512Y-52300828D01*
X84554512Y-52300828D02*
X84554512Y-52800828D01*
X84554512Y-52800828D02*
X84625941Y-53086542D01*
X84625941Y-53086542D02*
X84768798Y-53229400D01*
X84768798Y-53229400D02*
X84911655Y-53300828D01*
X84911655Y-53300828D02*
X85197369Y-53300828D01*
X85197369Y-53300828D02*
X85340227Y-53229400D01*
X85340227Y-53229400D02*
X85483084Y-53086542D01*
X85483084Y-53086542D02*
X85554512Y-52800828D01*
X85554512Y-52800828D02*
X85554512Y-52300828D01*
X85554512Y-52300828D02*
X85483084Y-52015114D01*
X85483084Y-52015114D02*
X85340227Y-51872257D01*
X85340227Y-51872257D02*
X85197369Y-51800828D01*
X84054512Y-51800828D02*
X83697369Y-53300828D01*
X83697369Y-53300828D02*
X83411655Y-52229400D01*
X83411655Y-52229400D02*
X83125940Y-53300828D01*
X83125940Y-53300828D02*
X82768798Y-51800828D01*
X82197369Y-52515114D02*
X81697369Y-52515114D01*
X81483083Y-53300828D02*
X82197369Y-53300828D01*
X82197369Y-53300828D02*
X82197369Y-51800828D01*
X82197369Y-51800828D02*
X81483083Y-51800828D01*
X79983083Y-53300828D02*
X80483083Y-52586542D01*
X80840226Y-53300828D02*
X80840226Y-51800828D01*
X80840226Y-51800828D02*
X80268797Y-51800828D01*
X80268797Y-51800828D02*
X80125940Y-51872257D01*
X80125940Y-51872257D02*
X80054511Y-51943685D01*
X80054511Y-51943685D02*
X79983083Y-52086542D01*
X79983083Y-52086542D02*
X79983083Y-52300828D01*
X79983083Y-52300828D02*
X80054511Y-52443685D01*
X80054511Y-52443685D02*
X80125940Y-52515114D01*
X80125940Y-52515114D02*
X80268797Y-52586542D01*
X80268797Y-52586542D02*
X80840226Y-52586542D01*
X78197369Y-53300828D02*
X78197369Y-51800828D01*
X78197369Y-51800828D02*
X77697369Y-52872257D01*
X77697369Y-52872257D02*
X77197369Y-51800828D01*
X77197369Y-51800828D02*
X77197369Y-53300828D01*
X76197368Y-51800828D02*
X75911654Y-51800828D01*
X75911654Y-51800828D02*
X75768797Y-51872257D01*
X75768797Y-51872257D02*
X75625940Y-52015114D01*
X75625940Y-52015114D02*
X75554511Y-52300828D01*
X75554511Y-52300828D02*
X75554511Y-52800828D01*
X75554511Y-52800828D02*
X75625940Y-53086542D01*
X75625940Y-53086542D02*
X75768797Y-53229400D01*
X75768797Y-53229400D02*
X75911654Y-53300828D01*
X75911654Y-53300828D02*
X76197368Y-53300828D01*
X76197368Y-53300828D02*
X76340226Y-53229400D01*
X76340226Y-53229400D02*
X76483083Y-53086542D01*
X76483083Y-53086542D02*
X76554511Y-52800828D01*
X76554511Y-52800828D02*
X76554511Y-52300828D01*
X76554511Y-52300828D02*
X76483083Y-52015114D01*
X76483083Y-52015114D02*
X76340226Y-51872257D01*
X76340226Y-51872257D02*
X76197368Y-51800828D01*
X74911654Y-53300828D02*
X74911654Y-51800828D01*
X74911654Y-51800828D02*
X74554511Y-51800828D01*
X74554511Y-51800828D02*
X74340225Y-51872257D01*
X74340225Y-51872257D02*
X74197368Y-52015114D01*
X74197368Y-52015114D02*
X74125939Y-52157971D01*
X74125939Y-52157971D02*
X74054511Y-52443685D01*
X74054511Y-52443685D02*
X74054511Y-52657971D01*
X74054511Y-52657971D02*
X74125939Y-52943685D01*
X74125939Y-52943685D02*
X74197368Y-53086542D01*
X74197368Y-53086542D02*
X74340225Y-53229400D01*
X74340225Y-53229400D02*
X74554511Y-53300828D01*
X74554511Y-53300828D02*
X74911654Y-53300828D01*
X73411654Y-51800828D02*
X73411654Y-53015114D01*
X73411654Y-53015114D02*
X73340225Y-53157971D01*
X73340225Y-53157971D02*
X73268797Y-53229400D01*
X73268797Y-53229400D02*
X73125939Y-53300828D01*
X73125939Y-53300828D02*
X72840225Y-53300828D01*
X72840225Y-53300828D02*
X72697368Y-53229400D01*
X72697368Y-53229400D02*
X72625939Y-53157971D01*
X72625939Y-53157971D02*
X72554511Y-53015114D01*
X72554511Y-53015114D02*
X72554511Y-51800828D01*
X71125939Y-53300828D02*
X71840225Y-53300828D01*
X71840225Y-53300828D02*
X71840225Y-51800828D01*
X70625939Y-52515114D02*
X70125939Y-52515114D01*
X69911653Y-53300828D02*
X70625939Y-53300828D01*
X70625939Y-53300828D02*
X70625939Y-51800828D01*
X70625939Y-51800828D02*
X69911653Y-51800828D01*
X69340224Y-53229400D02*
X69125939Y-53300828D01*
X69125939Y-53300828D02*
X68768796Y-53300828D01*
X68768796Y-53300828D02*
X68625939Y-53229400D01*
X68625939Y-53229400D02*
X68554510Y-53157971D01*
X68554510Y-53157971D02*
X68483081Y-53015114D01*
X68483081Y-53015114D02*
X68483081Y-52872257D01*
X68483081Y-52872257D02*
X68554510Y-52729400D01*
X68554510Y-52729400D02*
X68625939Y-52657971D01*
X68625939Y-52657971D02*
X68768796Y-52586542D01*
X68768796Y-52586542D02*
X69054510Y-52515114D01*
X69054510Y-52515114D02*
X69197367Y-52443685D01*
X69197367Y-52443685D02*
X69268796Y-52372257D01*
X69268796Y-52372257D02*
X69340224Y-52229400D01*
X69340224Y-52229400D02*
X69340224Y-52086542D01*
X69340224Y-52086542D02*
X69268796Y-51943685D01*
X69268796Y-51943685D02*
X69197367Y-51872257D01*
X69197367Y-51872257D02*
X69054510Y-51800828D01*
X69054510Y-51800828D02*
X68697367Y-51800828D01*
X68697367Y-51800828D02*
X68483081Y-51872257D01*
D11*
X88137688Y8570792D02*
X88137688Y9470792D01*
X88137688Y9470792D02*
X87923402Y9470792D01*
X87923402Y9470792D02*
X87794831Y9427935D01*
X87794831Y9427935D02*
X87709116Y9342221D01*
X87709116Y9342221D02*
X87666259Y9256507D01*
X87666259Y9256507D02*
X87623402Y9085078D01*
X87623402Y9085078D02*
X87623402Y8956507D01*
X87623402Y8956507D02*
X87666259Y8785078D01*
X87666259Y8785078D02*
X87709116Y8699364D01*
X87709116Y8699364D02*
X87794831Y8613650D01*
X87794831Y8613650D02*
X87923402Y8570792D01*
X87923402Y8570792D02*
X88137688Y8570792D01*
X87237688Y9042221D02*
X86937688Y9042221D01*
X86809116Y8570792D02*
X87237688Y8570792D01*
X87237688Y8570792D02*
X87237688Y9470792D01*
X87237688Y9470792D02*
X86809116Y9470792D01*
X86466259Y8613650D02*
X86337688Y8570792D01*
X86337688Y8570792D02*
X86123402Y8570792D01*
X86123402Y8570792D02*
X86037688Y8613650D01*
X86037688Y8613650D02*
X85994830Y8656507D01*
X85994830Y8656507D02*
X85951973Y8742221D01*
X85951973Y8742221D02*
X85951973Y8827935D01*
X85951973Y8827935D02*
X85994830Y8913650D01*
X85994830Y8913650D02*
X86037688Y8956507D01*
X86037688Y8956507D02*
X86123402Y8999364D01*
X86123402Y8999364D02*
X86294830Y9042221D01*
X86294830Y9042221D02*
X86380545Y9085078D01*
X86380545Y9085078D02*
X86423402Y9127935D01*
X86423402Y9127935D02*
X86466259Y9213650D01*
X86466259Y9213650D02*
X86466259Y9299364D01*
X86466259Y9299364D02*
X86423402Y9385078D01*
X86423402Y9385078D02*
X86380545Y9427935D01*
X86380545Y9427935D02*
X86294830Y9470792D01*
X86294830Y9470792D02*
X86080545Y9470792D01*
X86080545Y9470792D02*
X85951973Y9427935D01*
X85566259Y8570792D02*
X85566259Y9470792D01*
X84666259Y9427935D02*
X84751974Y9470792D01*
X84751974Y9470792D02*
X84880545Y9470792D01*
X84880545Y9470792D02*
X85009116Y9427935D01*
X85009116Y9427935D02*
X85094831Y9342221D01*
X85094831Y9342221D02*
X85137688Y9256507D01*
X85137688Y9256507D02*
X85180545Y9085078D01*
X85180545Y9085078D02*
X85180545Y8956507D01*
X85180545Y8956507D02*
X85137688Y8785078D01*
X85137688Y8785078D02*
X85094831Y8699364D01*
X85094831Y8699364D02*
X85009116Y8613650D01*
X85009116Y8613650D02*
X84880545Y8570792D01*
X84880545Y8570792D02*
X84794831Y8570792D01*
X84794831Y8570792D02*
X84666259Y8613650D01*
X84666259Y8613650D02*
X84623402Y8656507D01*
X84623402Y8656507D02*
X84623402Y8956507D01*
X84623402Y8956507D02*
X84794831Y8956507D01*
X84237688Y8570792D02*
X84237688Y9470792D01*
X84237688Y9470792D02*
X83723402Y8570792D01*
X83723402Y8570792D02*
X83723402Y9470792D01*
X83294831Y9042221D02*
X82994831Y9042221D01*
X82866259Y8570792D02*
X83294831Y8570792D01*
X83294831Y8570792D02*
X83294831Y9470792D01*
X83294831Y9470792D02*
X82866259Y9470792D01*
X82480545Y8570792D02*
X82480545Y9470792D01*
X82480545Y9470792D02*
X82266259Y9470792D01*
X82266259Y9470792D02*
X82137688Y9427935D01*
X82137688Y9427935D02*
X82051973Y9342221D01*
X82051973Y9342221D02*
X82009116Y9256507D01*
X82009116Y9256507D02*
X81966259Y9085078D01*
X81966259Y9085078D02*
X81966259Y8956507D01*
X81966259Y8956507D02*
X82009116Y8785078D01*
X82009116Y8785078D02*
X82051973Y8699364D01*
X82051973Y8699364D02*
X82137688Y8613650D01*
X82137688Y8613650D02*
X82266259Y8570792D01*
X82266259Y8570792D02*
X82480545Y8570792D01*
X80594831Y9042221D02*
X80466259Y8999364D01*
X80466259Y8999364D02*
X80423402Y8956507D01*
X80423402Y8956507D02*
X80380545Y8870792D01*
X80380545Y8870792D02*
X80380545Y8742221D01*
X80380545Y8742221D02*
X80423402Y8656507D01*
X80423402Y8656507D02*
X80466259Y8613650D01*
X80466259Y8613650D02*
X80551974Y8570792D01*
X80551974Y8570792D02*
X80894831Y8570792D01*
X80894831Y8570792D02*
X80894831Y9470792D01*
X80894831Y9470792D02*
X80594831Y9470792D01*
X80594831Y9470792D02*
X80509117Y9427935D01*
X80509117Y9427935D02*
X80466259Y9385078D01*
X80466259Y9385078D02*
X80423402Y9299364D01*
X80423402Y9299364D02*
X80423402Y9213650D01*
X80423402Y9213650D02*
X80466259Y9127935D01*
X80466259Y9127935D02*
X80509117Y9085078D01*
X80509117Y9085078D02*
X80594831Y9042221D01*
X80594831Y9042221D02*
X80894831Y9042221D01*
X79823402Y8999364D02*
X79823402Y8570792D01*
X80123402Y9470792D02*
X79823402Y8999364D01*
X79823402Y8999364D02*
X79523402Y9470792D01*
X88266259Y8021842D02*
X87751974Y8021842D01*
X88009116Y7121842D02*
X88009116Y8021842D01*
X87451974Y7121842D02*
X87451974Y8021842D01*
X87451974Y7593271D02*
X86937688Y7593271D01*
X86937688Y7121842D02*
X86937688Y8021842D01*
X86337688Y8021842D02*
X86166260Y8021842D01*
X86166260Y8021842D02*
X86080545Y7978985D01*
X86080545Y7978985D02*
X85994831Y7893271D01*
X85994831Y7893271D02*
X85951974Y7721842D01*
X85951974Y7721842D02*
X85951974Y7421842D01*
X85951974Y7421842D02*
X85994831Y7250414D01*
X85994831Y7250414D02*
X86080545Y7164700D01*
X86080545Y7164700D02*
X86166260Y7121842D01*
X86166260Y7121842D02*
X86337688Y7121842D01*
X86337688Y7121842D02*
X86423403Y7164700D01*
X86423403Y7164700D02*
X86509117Y7250414D01*
X86509117Y7250414D02*
X86551974Y7421842D01*
X86551974Y7421842D02*
X86551974Y7721842D01*
X86551974Y7721842D02*
X86509117Y7893271D01*
X86509117Y7893271D02*
X86423403Y7978985D01*
X86423403Y7978985D02*
X86337688Y8021842D01*
X85566260Y7121842D02*
X85566260Y8021842D01*
X85566260Y8021842D02*
X85266260Y7378985D01*
X85266260Y7378985D02*
X84966260Y8021842D01*
X84966260Y8021842D02*
X84966260Y7121842D01*
X84580546Y7378985D02*
X84151975Y7378985D01*
X84666260Y7121842D02*
X84366260Y8021842D01*
X84366260Y8021842D02*
X84066260Y7121842D01*
X83809117Y7164700D02*
X83680546Y7121842D01*
X83680546Y7121842D02*
X83466260Y7121842D01*
X83466260Y7121842D02*
X83380546Y7164700D01*
X83380546Y7164700D02*
X83337688Y7207557D01*
X83337688Y7207557D02*
X83294831Y7293271D01*
X83294831Y7293271D02*
X83294831Y7378985D01*
X83294831Y7378985D02*
X83337688Y7464700D01*
X83337688Y7464700D02*
X83380546Y7507557D01*
X83380546Y7507557D02*
X83466260Y7550414D01*
X83466260Y7550414D02*
X83637688Y7593271D01*
X83637688Y7593271D02*
X83723403Y7636128D01*
X83723403Y7636128D02*
X83766260Y7678985D01*
X83766260Y7678985D02*
X83809117Y7764700D01*
X83809117Y7764700D02*
X83809117Y7850414D01*
X83809117Y7850414D02*
X83766260Y7936128D01*
X83766260Y7936128D02*
X83723403Y7978985D01*
X83723403Y7978985D02*
X83637688Y8021842D01*
X83637688Y8021842D02*
X83423403Y8021842D01*
X83423403Y8021842D02*
X83294831Y7978985D01*
X81794831Y7121842D02*
X82223403Y7121842D01*
X82223403Y7121842D02*
X82223403Y8021842D01*
X81494832Y7121842D02*
X81494832Y8021842D01*
X81109118Y7378985D02*
X80680547Y7378985D01*
X81194832Y7121842D02*
X80894832Y8021842D01*
X80894832Y8021842D02*
X80594832Y7121842D01*
X80123403Y8021842D02*
X79951975Y8021842D01*
X79951975Y8021842D02*
X79866260Y7978985D01*
X79866260Y7978985D02*
X79780546Y7893271D01*
X79780546Y7893271D02*
X79737689Y7721842D01*
X79737689Y7721842D02*
X79737689Y7421842D01*
X79737689Y7421842D02*
X79780546Y7250414D01*
X79780546Y7250414D02*
X79866260Y7164700D01*
X79866260Y7164700D02*
X79951975Y7121842D01*
X79951975Y7121842D02*
X80123403Y7121842D01*
X80123403Y7121842D02*
X80209118Y7164700D01*
X80209118Y7164700D02*
X80294832Y7250414D01*
X80294832Y7250414D02*
X80337689Y7421842D01*
X80337689Y7421842D02*
X80337689Y7721842D01*
X80337689Y7721842D02*
X80294832Y7893271D01*
X80294832Y7893271D02*
X80209118Y7978985D01*
X80209118Y7978985D02*
X80123403Y8021842D01*
D10*
X34678822Y-44546304D02*
X33935965Y-44546304D01*
X34307393Y-45846304D02*
X34307393Y-44546304D01*
X32759775Y-45846304D02*
X33193108Y-45227257D01*
X33502632Y-45846304D02*
X33502632Y-44546304D01*
X33502632Y-44546304D02*
X33007394Y-44546304D01*
X33007394Y-44546304D02*
X32883584Y-44608209D01*
X32883584Y-44608209D02*
X32821679Y-44670114D01*
X32821679Y-44670114D02*
X32759775Y-44793923D01*
X32759775Y-44793923D02*
X32759775Y-44979638D01*
X32759775Y-44979638D02*
X32821679Y-45103447D01*
X32821679Y-45103447D02*
X32883584Y-45165352D01*
X32883584Y-45165352D02*
X33007394Y-45227257D01*
X33007394Y-45227257D02*
X33502632Y-45227257D01*
X32264536Y-45474876D02*
X31645489Y-45474876D01*
X32388346Y-45846304D02*
X31955013Y-44546304D01*
X31955013Y-44546304D02*
X31521679Y-45846304D01*
X30345489Y-45722495D02*
X30407393Y-45784400D01*
X30407393Y-45784400D02*
X30593108Y-45846304D01*
X30593108Y-45846304D02*
X30716917Y-45846304D01*
X30716917Y-45846304D02*
X30902631Y-45784400D01*
X30902631Y-45784400D02*
X31026441Y-45660590D01*
X31026441Y-45660590D02*
X31088346Y-45536780D01*
X31088346Y-45536780D02*
X31150250Y-45289161D01*
X31150250Y-45289161D02*
X31150250Y-45103447D01*
X31150250Y-45103447D02*
X31088346Y-44855828D01*
X31088346Y-44855828D02*
X31026441Y-44732019D01*
X31026441Y-44732019D02*
X30902631Y-44608209D01*
X30902631Y-44608209D02*
X30716917Y-44546304D01*
X30716917Y-44546304D02*
X30593108Y-44546304D01*
X30593108Y-44546304D02*
X30407393Y-44608209D01*
X30407393Y-44608209D02*
X30345489Y-44670114D01*
X29974060Y-44546304D02*
X29231203Y-44546304D01*
X29602631Y-45846304D02*
X29602631Y-44546304D01*
X28797870Y-45846304D02*
X28797870Y-44546304D01*
X27931203Y-44546304D02*
X27683584Y-44546304D01*
X27683584Y-44546304D02*
X27559774Y-44608209D01*
X27559774Y-44608209D02*
X27435965Y-44732019D01*
X27435965Y-44732019D02*
X27374060Y-44979638D01*
X27374060Y-44979638D02*
X27374060Y-45412971D01*
X27374060Y-45412971D02*
X27435965Y-45660590D01*
X27435965Y-45660590D02*
X27559774Y-45784400D01*
X27559774Y-45784400D02*
X27683584Y-45846304D01*
X27683584Y-45846304D02*
X27931203Y-45846304D01*
X27931203Y-45846304D02*
X28055012Y-45784400D01*
X28055012Y-45784400D02*
X28178822Y-45660590D01*
X28178822Y-45660590D02*
X28240726Y-45412971D01*
X28240726Y-45412971D02*
X28240726Y-44979638D01*
X28240726Y-44979638D02*
X28178822Y-44732019D01*
X28178822Y-44732019D02*
X28055012Y-44608209D01*
X28055012Y-44608209D02*
X27931203Y-44546304D01*
X26816917Y-45846304D02*
X26816917Y-44546304D01*
X26816917Y-44546304D02*
X26074060Y-45846304D01*
X26074060Y-45846304D02*
X26074060Y-44546304D01*
X24464536Y-45846304D02*
X24464536Y-44546304D01*
X23845488Y-45846304D02*
X23845488Y-44546304D01*
X23845488Y-44546304D02*
X23102631Y-45846304D01*
X23102631Y-45846304D02*
X23102631Y-44546304D01*
X22669297Y-44546304D02*
X22235964Y-45846304D01*
X22235964Y-45846304D02*
X21802630Y-44546304D01*
X21369297Y-45165352D02*
X20935963Y-45165352D01*
X20750249Y-45846304D02*
X21369297Y-45846304D01*
X21369297Y-45846304D02*
X21369297Y-44546304D01*
X21369297Y-44546304D02*
X20750249Y-44546304D01*
X19450250Y-45846304D02*
X19883583Y-45227257D01*
X20193107Y-45846304D02*
X20193107Y-44546304D01*
X20193107Y-44546304D02*
X19697869Y-44546304D01*
X19697869Y-44546304D02*
X19574059Y-44608209D01*
X19574059Y-44608209D02*
X19512154Y-44670114D01*
X19512154Y-44670114D02*
X19450250Y-44793923D01*
X19450250Y-44793923D02*
X19450250Y-44979638D01*
X19450250Y-44979638D02*
X19512154Y-45103447D01*
X19512154Y-45103447D02*
X19574059Y-45165352D01*
X19574059Y-45165352D02*
X19697869Y-45227257D01*
X19697869Y-45227257D02*
X20193107Y-45227257D01*
X19078821Y-44546304D02*
X18335964Y-44546304D01*
X18707392Y-45846304D02*
X18707392Y-44546304D01*
X17902631Y-45165352D02*
X17469297Y-45165352D01*
X17283583Y-45846304D02*
X17902631Y-45846304D01*
X17902631Y-45846304D02*
X17902631Y-44546304D01*
X17902631Y-44546304D02*
X17283583Y-44546304D01*
X15983584Y-45846304D02*
X16416917Y-45227257D01*
X16726441Y-45846304D02*
X16726441Y-44546304D01*
X16726441Y-44546304D02*
X16231203Y-44546304D01*
X16231203Y-44546304D02*
X16107393Y-44608209D01*
X16107393Y-44608209D02*
X16045488Y-44670114D01*
X16045488Y-44670114D02*
X15983584Y-44793923D01*
X15983584Y-44793923D02*
X15983584Y-44979638D01*
X15983584Y-44979638D02*
X16045488Y-45103447D01*
X16045488Y-45103447D02*
X16107393Y-45165352D01*
X16107393Y-45165352D02*
X16231203Y-45227257D01*
X16231203Y-45227257D02*
X16726441Y-45227257D01*
X15364536Y-45784400D02*
X15364536Y-45846304D01*
X15364536Y-45846304D02*
X15426441Y-45970114D01*
X15426441Y-45970114D02*
X15488345Y-46032019D01*
X13135964Y-44608209D02*
X13259774Y-44546304D01*
X13259774Y-44546304D02*
X13445488Y-44546304D01*
X13445488Y-44546304D02*
X13631202Y-44608209D01*
X13631202Y-44608209D02*
X13755012Y-44732019D01*
X13755012Y-44732019D02*
X13816917Y-44855828D01*
X13816917Y-44855828D02*
X13878821Y-45103447D01*
X13878821Y-45103447D02*
X13878821Y-45289161D01*
X13878821Y-45289161D02*
X13816917Y-45536780D01*
X13816917Y-45536780D02*
X13755012Y-45660590D01*
X13755012Y-45660590D02*
X13631202Y-45784400D01*
X13631202Y-45784400D02*
X13445488Y-45846304D01*
X13445488Y-45846304D02*
X13321679Y-45846304D01*
X13321679Y-45846304D02*
X13135964Y-45784400D01*
X13135964Y-45784400D02*
X13074060Y-45722495D01*
X13074060Y-45722495D02*
X13074060Y-45289161D01*
X13074060Y-45289161D02*
X13321679Y-45289161D01*
X12516917Y-45165352D02*
X12083583Y-45165352D01*
X11897869Y-45846304D02*
X12516917Y-45846304D01*
X12516917Y-45846304D02*
X12516917Y-44546304D01*
X12516917Y-44546304D02*
X11897869Y-44546304D01*
X11340727Y-45846304D02*
X11340727Y-44546304D01*
X11340727Y-44546304D02*
X10597870Y-45846304D01*
X10597870Y-45846304D02*
X10597870Y-44546304D01*
X8369298Y-44546304D02*
X8988346Y-44546304D01*
X8988346Y-44546304D02*
X9050250Y-45165352D01*
X9050250Y-45165352D02*
X8988346Y-45103447D01*
X8988346Y-45103447D02*
X8864536Y-45041542D01*
X8864536Y-45041542D02*
X8555012Y-45041542D01*
X8555012Y-45041542D02*
X8431203Y-45103447D01*
X8431203Y-45103447D02*
X8369298Y-45165352D01*
X8369298Y-45165352D02*
X8307393Y-45289161D01*
X8307393Y-45289161D02*
X8307393Y-45598685D01*
X8307393Y-45598685D02*
X8369298Y-45722495D01*
X8369298Y-45722495D02*
X8431203Y-45784400D01*
X8431203Y-45784400D02*
X8555012Y-45846304D01*
X8555012Y-45846304D02*
X8864536Y-45846304D01*
X8864536Y-45846304D02*
X8988346Y-45784400D01*
X8988346Y-45784400D02*
X9050250Y-45722495D01*
X34493108Y-47939231D02*
X34493108Y-46639231D01*
X34493108Y-46639231D02*
X33997870Y-46639231D01*
X33997870Y-46639231D02*
X33874060Y-46701136D01*
X33874060Y-46701136D02*
X33812155Y-46763041D01*
X33812155Y-46763041D02*
X33750251Y-46886850D01*
X33750251Y-46886850D02*
X33750251Y-47072565D01*
X33750251Y-47072565D02*
X33812155Y-47196374D01*
X33812155Y-47196374D02*
X33874060Y-47258279D01*
X33874060Y-47258279D02*
X33997870Y-47320184D01*
X33997870Y-47320184D02*
X34493108Y-47320184D01*
X32945489Y-46639231D02*
X32697870Y-46639231D01*
X32697870Y-46639231D02*
X32574060Y-46701136D01*
X32574060Y-46701136D02*
X32450251Y-46824946D01*
X32450251Y-46824946D02*
X32388346Y-47072565D01*
X32388346Y-47072565D02*
X32388346Y-47505898D01*
X32388346Y-47505898D02*
X32450251Y-47753517D01*
X32450251Y-47753517D02*
X32574060Y-47877327D01*
X32574060Y-47877327D02*
X32697870Y-47939231D01*
X32697870Y-47939231D02*
X32945489Y-47939231D01*
X32945489Y-47939231D02*
X33069298Y-47877327D01*
X33069298Y-47877327D02*
X33193108Y-47753517D01*
X33193108Y-47753517D02*
X33255012Y-47505898D01*
X33255012Y-47505898D02*
X33255012Y-47072565D01*
X33255012Y-47072565D02*
X33193108Y-46824946D01*
X33193108Y-46824946D02*
X33069298Y-46701136D01*
X33069298Y-46701136D02*
X32945489Y-46639231D01*
X31955012Y-46639231D02*
X31645488Y-47939231D01*
X31645488Y-47939231D02*
X31397869Y-47010660D01*
X31397869Y-47010660D02*
X31150250Y-47939231D01*
X31150250Y-47939231D02*
X30840727Y-46639231D01*
X30345489Y-47258279D02*
X29912155Y-47258279D01*
X29726441Y-47939231D02*
X30345489Y-47939231D01*
X30345489Y-47939231D02*
X30345489Y-46639231D01*
X30345489Y-46639231D02*
X29726441Y-46639231D01*
X28426442Y-47939231D02*
X28859775Y-47320184D01*
X29169299Y-47939231D02*
X29169299Y-46639231D01*
X29169299Y-46639231D02*
X28674061Y-46639231D01*
X28674061Y-46639231D02*
X28550251Y-46701136D01*
X28550251Y-46701136D02*
X28488346Y-46763041D01*
X28488346Y-46763041D02*
X28426442Y-46886850D01*
X28426442Y-46886850D02*
X28426442Y-47072565D01*
X28426442Y-47072565D02*
X28488346Y-47196374D01*
X28488346Y-47196374D02*
X28550251Y-47258279D01*
X28550251Y-47258279D02*
X28674061Y-47320184D01*
X28674061Y-47320184D02*
X29169299Y-47320184D01*
X26940727Y-47877327D02*
X26755013Y-47939231D01*
X26755013Y-47939231D02*
X26445489Y-47939231D01*
X26445489Y-47939231D02*
X26321680Y-47877327D01*
X26321680Y-47877327D02*
X26259775Y-47815422D01*
X26259775Y-47815422D02*
X26197870Y-47691612D01*
X26197870Y-47691612D02*
X26197870Y-47567803D01*
X26197870Y-47567803D02*
X26259775Y-47443993D01*
X26259775Y-47443993D02*
X26321680Y-47382088D01*
X26321680Y-47382088D02*
X26445489Y-47320184D01*
X26445489Y-47320184D02*
X26693108Y-47258279D01*
X26693108Y-47258279D02*
X26816918Y-47196374D01*
X26816918Y-47196374D02*
X26878823Y-47134469D01*
X26878823Y-47134469D02*
X26940727Y-47010660D01*
X26940727Y-47010660D02*
X26940727Y-46886850D01*
X26940727Y-46886850D02*
X26878823Y-46763041D01*
X26878823Y-46763041D02*
X26816918Y-46701136D01*
X26816918Y-46701136D02*
X26693108Y-46639231D01*
X26693108Y-46639231D02*
X26383585Y-46639231D01*
X26383585Y-46639231D02*
X26197870Y-46701136D01*
X25826442Y-46639231D02*
X25083585Y-46639231D01*
X25455013Y-47939231D02*
X25455013Y-46639231D01*
X24712156Y-47567803D02*
X24093109Y-47567803D01*
X24835966Y-47939231D02*
X24402633Y-46639231D01*
X24402633Y-46639231D02*
X23969299Y-47939231D01*
X22855013Y-46701136D02*
X22978823Y-46639231D01*
X22978823Y-46639231D02*
X23164537Y-46639231D01*
X23164537Y-46639231D02*
X23350251Y-46701136D01*
X23350251Y-46701136D02*
X23474061Y-46824946D01*
X23474061Y-46824946D02*
X23535966Y-46948755D01*
X23535966Y-46948755D02*
X23597870Y-47196374D01*
X23597870Y-47196374D02*
X23597870Y-47382088D01*
X23597870Y-47382088D02*
X23535966Y-47629707D01*
X23535966Y-47629707D02*
X23474061Y-47753517D01*
X23474061Y-47753517D02*
X23350251Y-47877327D01*
X23350251Y-47877327D02*
X23164537Y-47939231D01*
X23164537Y-47939231D02*
X23040728Y-47939231D01*
X23040728Y-47939231D02*
X22855013Y-47877327D01*
X22855013Y-47877327D02*
X22793109Y-47815422D01*
X22793109Y-47815422D02*
X22793109Y-47382088D01*
X22793109Y-47382088D02*
X23040728Y-47382088D01*
X22235966Y-47258279D02*
X21802632Y-47258279D01*
X21616918Y-47939231D02*
X22235966Y-47939231D01*
X22235966Y-47939231D02*
X22235966Y-46639231D01*
X22235966Y-46639231D02*
X21616918Y-46639231D01*
X19635966Y-47258279D02*
X20069300Y-47258279D01*
X20069300Y-47939231D02*
X20069300Y-46639231D01*
X20069300Y-46639231D02*
X19450252Y-46639231D01*
X18955014Y-47939231D02*
X18955014Y-46639231D01*
X17716918Y-47939231D02*
X18335966Y-47939231D01*
X18335966Y-47939231D02*
X18335966Y-46639231D01*
X17469299Y-46639231D02*
X16726442Y-46639231D01*
X17097870Y-47939231D02*
X17097870Y-46639231D01*
X16293109Y-47258279D02*
X15859775Y-47258279D01*
X15674061Y-47939231D02*
X16293109Y-47939231D01*
X16293109Y-47939231D02*
X16293109Y-46639231D01*
X16293109Y-46639231D02*
X15674061Y-46639231D01*
X14374062Y-47939231D02*
X14807395Y-47320184D01*
X15116919Y-47939231D02*
X15116919Y-46639231D01*
X15116919Y-46639231D02*
X14621681Y-46639231D01*
X14621681Y-46639231D02*
X14497871Y-46701136D01*
X14497871Y-46701136D02*
X14435966Y-46763041D01*
X14435966Y-46763041D02*
X14374062Y-46886850D01*
X14374062Y-46886850D02*
X14374062Y-47072565D01*
X14374062Y-47072565D02*
X14435966Y-47196374D01*
X14435966Y-47196374D02*
X14497871Y-47258279D01*
X14497871Y-47258279D02*
X14621681Y-47320184D01*
X14621681Y-47320184D02*
X15116919Y-47320184D01*
X12393109Y-47258279D02*
X12207395Y-47320184D01*
X12207395Y-47320184D02*
X12145490Y-47382088D01*
X12145490Y-47382088D02*
X12083586Y-47505898D01*
X12083586Y-47505898D02*
X12083586Y-47691612D01*
X12083586Y-47691612D02*
X12145490Y-47815422D01*
X12145490Y-47815422D02*
X12207395Y-47877327D01*
X12207395Y-47877327D02*
X12331205Y-47939231D01*
X12331205Y-47939231D02*
X12826443Y-47939231D01*
X12826443Y-47939231D02*
X12826443Y-46639231D01*
X12826443Y-46639231D02*
X12393109Y-46639231D01*
X12393109Y-46639231D02*
X12269300Y-46701136D01*
X12269300Y-46701136D02*
X12207395Y-46763041D01*
X12207395Y-46763041D02*
X12145490Y-46886850D01*
X12145490Y-46886850D02*
X12145490Y-47010660D01*
X12145490Y-47010660D02*
X12207395Y-47134469D01*
X12207395Y-47134469D02*
X12269300Y-47196374D01*
X12269300Y-47196374D02*
X12393109Y-47258279D01*
X12393109Y-47258279D02*
X12826443Y-47258279D01*
X11278824Y-46639231D02*
X11031205Y-46639231D01*
X11031205Y-46639231D02*
X10907395Y-46701136D01*
X10907395Y-46701136D02*
X10783586Y-46824946D01*
X10783586Y-46824946D02*
X10721681Y-47072565D01*
X10721681Y-47072565D02*
X10721681Y-47505898D01*
X10721681Y-47505898D02*
X10783586Y-47753517D01*
X10783586Y-47753517D02*
X10907395Y-47877327D01*
X10907395Y-47877327D02*
X11031205Y-47939231D01*
X11031205Y-47939231D02*
X11278824Y-47939231D01*
X11278824Y-47939231D02*
X11402633Y-47877327D01*
X11402633Y-47877327D02*
X11526443Y-47753517D01*
X11526443Y-47753517D02*
X11588347Y-47505898D01*
X11588347Y-47505898D02*
X11588347Y-47072565D01*
X11588347Y-47072565D02*
X11526443Y-46824946D01*
X11526443Y-46824946D02*
X11402633Y-46701136D01*
X11402633Y-46701136D02*
X11278824Y-46639231D01*
X10226442Y-47567803D02*
X9607395Y-47567803D01*
X10350252Y-47939231D02*
X9916919Y-46639231D01*
X9916919Y-46639231D02*
X9483585Y-47939231D01*
X8307395Y-47939231D02*
X8740728Y-47320184D01*
X9050252Y-47939231D02*
X9050252Y-46639231D01*
X9050252Y-46639231D02*
X8555014Y-46639231D01*
X8555014Y-46639231D02*
X8431204Y-46701136D01*
X8431204Y-46701136D02*
X8369299Y-46763041D01*
X8369299Y-46763041D02*
X8307395Y-46886850D01*
X8307395Y-46886850D02*
X8307395Y-47072565D01*
X8307395Y-47072565D02*
X8369299Y-47196374D01*
X8369299Y-47196374D02*
X8431204Y-47258279D01*
X8431204Y-47258279D02*
X8555014Y-47320184D01*
X8555014Y-47320184D02*
X9050252Y-47320184D01*
X7750252Y-47939231D02*
X7750252Y-46639231D01*
X7750252Y-46639231D02*
X7440728Y-46639231D01*
X7440728Y-46639231D02*
X7255014Y-46701136D01*
X7255014Y-46701136D02*
X7131204Y-46824946D01*
X7131204Y-46824946D02*
X7069299Y-46948755D01*
X7069299Y-46948755D02*
X7007395Y-47196374D01*
X7007395Y-47196374D02*
X7007395Y-47382088D01*
X7007395Y-47382088D02*
X7069299Y-47629707D01*
X7069299Y-47629707D02*
X7131204Y-47753517D01*
X7131204Y-47753517D02*
X7255014Y-47877327D01*
X7255014Y-47877327D02*
X7440728Y-47939231D01*
X7440728Y-47939231D02*
X7750252Y-47939231D01*
X6388347Y-47877327D02*
X6388347Y-47939231D01*
X6388347Y-47939231D02*
X6450252Y-48063041D01*
X6450252Y-48063041D02*
X6512156Y-48124946D01*
X33750251Y-50032158D02*
X34183584Y-49413111D01*
X34493108Y-50032158D02*
X34493108Y-48732158D01*
X34493108Y-48732158D02*
X33997870Y-48732158D01*
X33997870Y-48732158D02*
X33874060Y-48794063D01*
X33874060Y-48794063D02*
X33812155Y-48855968D01*
X33812155Y-48855968D02*
X33750251Y-48979777D01*
X33750251Y-48979777D02*
X33750251Y-49165492D01*
X33750251Y-49165492D02*
X33812155Y-49289301D01*
X33812155Y-49289301D02*
X33874060Y-49351206D01*
X33874060Y-49351206D02*
X33997870Y-49413111D01*
X33997870Y-49413111D02*
X34493108Y-49413111D01*
X33193108Y-49351206D02*
X32759774Y-49351206D01*
X32574060Y-50032158D02*
X33193108Y-50032158D01*
X33193108Y-50032158D02*
X33193108Y-48732158D01*
X33193108Y-48732158D02*
X32574060Y-48732158D01*
X32202632Y-48732158D02*
X31769299Y-50032158D01*
X31769299Y-50032158D02*
X31335965Y-48732158D01*
X30902632Y-50032158D02*
X30902632Y-48732158D01*
X30345488Y-49970254D02*
X30159774Y-50032158D01*
X30159774Y-50032158D02*
X29850250Y-50032158D01*
X29850250Y-50032158D02*
X29726441Y-49970254D01*
X29726441Y-49970254D02*
X29664536Y-49908349D01*
X29664536Y-49908349D02*
X29602631Y-49784539D01*
X29602631Y-49784539D02*
X29602631Y-49660730D01*
X29602631Y-49660730D02*
X29664536Y-49536920D01*
X29664536Y-49536920D02*
X29726441Y-49475015D01*
X29726441Y-49475015D02*
X29850250Y-49413111D01*
X29850250Y-49413111D02*
X30097869Y-49351206D01*
X30097869Y-49351206D02*
X30221679Y-49289301D01*
X30221679Y-49289301D02*
X30283584Y-49227396D01*
X30283584Y-49227396D02*
X30345488Y-49103587D01*
X30345488Y-49103587D02*
X30345488Y-48979777D01*
X30345488Y-48979777D02*
X30283584Y-48855968D01*
X30283584Y-48855968D02*
X30221679Y-48794063D01*
X30221679Y-48794063D02*
X30097869Y-48732158D01*
X30097869Y-48732158D02*
X29788346Y-48732158D01*
X29788346Y-48732158D02*
X29602631Y-48794063D01*
X29045489Y-50032158D02*
X29045489Y-48732158D01*
X28178822Y-48732158D02*
X27931203Y-48732158D01*
X27931203Y-48732158D02*
X27807393Y-48794063D01*
X27807393Y-48794063D02*
X27683584Y-48917873D01*
X27683584Y-48917873D02*
X27621679Y-49165492D01*
X27621679Y-49165492D02*
X27621679Y-49598825D01*
X27621679Y-49598825D02*
X27683584Y-49846444D01*
X27683584Y-49846444D02*
X27807393Y-49970254D01*
X27807393Y-49970254D02*
X27931203Y-50032158D01*
X27931203Y-50032158D02*
X28178822Y-50032158D01*
X28178822Y-50032158D02*
X28302631Y-49970254D01*
X28302631Y-49970254D02*
X28426441Y-49846444D01*
X28426441Y-49846444D02*
X28488345Y-49598825D01*
X28488345Y-49598825D02*
X28488345Y-49165492D01*
X28488345Y-49165492D02*
X28426441Y-48917873D01*
X28426441Y-48917873D02*
X28302631Y-48794063D01*
X28302631Y-48794063D02*
X28178822Y-48732158D01*
X27064536Y-50032158D02*
X27064536Y-48732158D01*
X27064536Y-48732158D02*
X26321679Y-50032158D01*
X26321679Y-50032158D02*
X26321679Y-48732158D01*
X24031202Y-50032158D02*
X24774059Y-50032158D01*
X24402631Y-50032158D02*
X24402631Y-48732158D01*
X24402631Y-48732158D02*
X24526440Y-48917873D01*
X24526440Y-48917873D02*
X24650250Y-49041682D01*
X24650250Y-49041682D02*
X24774059Y-49103587D01*
X23412155Y-49970254D02*
X23412155Y-50032158D01*
X23412155Y-50032158D02*
X23474060Y-50155968D01*
X23474060Y-50155968D02*
X23535964Y-50217873D01*
X34307393Y-51382228D02*
X34431203Y-51320323D01*
X34431203Y-51320323D02*
X34493108Y-51258419D01*
X34493108Y-51258419D02*
X34555012Y-51134609D01*
X34555012Y-51134609D02*
X34555012Y-51072704D01*
X34555012Y-51072704D02*
X34493108Y-50948895D01*
X34493108Y-50948895D02*
X34431203Y-50886990D01*
X34431203Y-50886990D02*
X34307393Y-50825085D01*
X34307393Y-50825085D02*
X34059774Y-50825085D01*
X34059774Y-50825085D02*
X33935965Y-50886990D01*
X33935965Y-50886990D02*
X33874060Y-50948895D01*
X33874060Y-50948895D02*
X33812155Y-51072704D01*
X33812155Y-51072704D02*
X33812155Y-51134609D01*
X33812155Y-51134609D02*
X33874060Y-51258419D01*
X33874060Y-51258419D02*
X33935965Y-51320323D01*
X33935965Y-51320323D02*
X34059774Y-51382228D01*
X34059774Y-51382228D02*
X34307393Y-51382228D01*
X34307393Y-51382228D02*
X34431203Y-51444133D01*
X34431203Y-51444133D02*
X34493108Y-51506038D01*
X34493108Y-51506038D02*
X34555012Y-51629847D01*
X34555012Y-51629847D02*
X34555012Y-51877466D01*
X34555012Y-51877466D02*
X34493108Y-52001276D01*
X34493108Y-52001276D02*
X34431203Y-52063181D01*
X34431203Y-52063181D02*
X34307393Y-52125085D01*
X34307393Y-52125085D02*
X34059774Y-52125085D01*
X34059774Y-52125085D02*
X33935965Y-52063181D01*
X33935965Y-52063181D02*
X33874060Y-52001276D01*
X33874060Y-52001276D02*
X33812155Y-51877466D01*
X33812155Y-51877466D02*
X33812155Y-51629847D01*
X33812155Y-51629847D02*
X33874060Y-51506038D01*
X33874060Y-51506038D02*
X33935965Y-51444133D01*
X33935965Y-51444133D02*
X34059774Y-51382228D01*
X33007394Y-50825085D02*
X32883584Y-50825085D01*
X32883584Y-50825085D02*
X32759775Y-50886990D01*
X32759775Y-50886990D02*
X32697870Y-50948895D01*
X32697870Y-50948895D02*
X32635965Y-51072704D01*
X32635965Y-51072704D02*
X32574060Y-51320323D01*
X32574060Y-51320323D02*
X32574060Y-51629847D01*
X32574060Y-51629847D02*
X32635965Y-51877466D01*
X32635965Y-51877466D02*
X32697870Y-52001276D01*
X32697870Y-52001276D02*
X32759775Y-52063181D01*
X32759775Y-52063181D02*
X32883584Y-52125085D01*
X32883584Y-52125085D02*
X33007394Y-52125085D01*
X33007394Y-52125085D02*
X33131203Y-52063181D01*
X33131203Y-52063181D02*
X33193108Y-52001276D01*
X33193108Y-52001276D02*
X33255013Y-51877466D01*
X33255013Y-51877466D02*
X33316917Y-51629847D01*
X33316917Y-51629847D02*
X33316917Y-51320323D01*
X33316917Y-51320323D02*
X33255013Y-51072704D01*
X33255013Y-51072704D02*
X33193108Y-50948895D01*
X33193108Y-50948895D02*
X33131203Y-50886990D01*
X33131203Y-50886990D02*
X33007394Y-50825085D01*
X31769299Y-50825085D02*
X31645489Y-50825085D01*
X31645489Y-50825085D02*
X31521680Y-50886990D01*
X31521680Y-50886990D02*
X31459775Y-50948895D01*
X31459775Y-50948895D02*
X31397870Y-51072704D01*
X31397870Y-51072704D02*
X31335965Y-51320323D01*
X31335965Y-51320323D02*
X31335965Y-51629847D01*
X31335965Y-51629847D02*
X31397870Y-51877466D01*
X31397870Y-51877466D02*
X31459775Y-52001276D01*
X31459775Y-52001276D02*
X31521680Y-52063181D01*
X31521680Y-52063181D02*
X31645489Y-52125085D01*
X31645489Y-52125085D02*
X31769299Y-52125085D01*
X31769299Y-52125085D02*
X31893108Y-52063181D01*
X31893108Y-52063181D02*
X31955013Y-52001276D01*
X31955013Y-52001276D02*
X32016918Y-51877466D01*
X32016918Y-51877466D02*
X32078822Y-51629847D01*
X32078822Y-51629847D02*
X32078822Y-51320323D01*
X32078822Y-51320323D02*
X32016918Y-51072704D01*
X32016918Y-51072704D02*
X31955013Y-50948895D01*
X31955013Y-50948895D02*
X31893108Y-50886990D01*
X31893108Y-50886990D02*
X31769299Y-50825085D01*
X30964537Y-50825085D02*
X30531204Y-52125085D01*
X30531204Y-52125085D02*
X30097870Y-50825085D01*
X29602632Y-52063181D02*
X29602632Y-52125085D01*
X29602632Y-52125085D02*
X29664537Y-52248895D01*
X29664537Y-52248895D02*
X29726441Y-52310800D01*
X27869298Y-51382228D02*
X27993108Y-51320323D01*
X27993108Y-51320323D02*
X28055013Y-51258419D01*
X28055013Y-51258419D02*
X28116917Y-51134609D01*
X28116917Y-51134609D02*
X28116917Y-51072704D01*
X28116917Y-51072704D02*
X28055013Y-50948895D01*
X28055013Y-50948895D02*
X27993108Y-50886990D01*
X27993108Y-50886990D02*
X27869298Y-50825085D01*
X27869298Y-50825085D02*
X27621679Y-50825085D01*
X27621679Y-50825085D02*
X27497870Y-50886990D01*
X27497870Y-50886990D02*
X27435965Y-50948895D01*
X27435965Y-50948895D02*
X27374060Y-51072704D01*
X27374060Y-51072704D02*
X27374060Y-51134609D01*
X27374060Y-51134609D02*
X27435965Y-51258419D01*
X27435965Y-51258419D02*
X27497870Y-51320323D01*
X27497870Y-51320323D02*
X27621679Y-51382228D01*
X27621679Y-51382228D02*
X27869298Y-51382228D01*
X27869298Y-51382228D02*
X27993108Y-51444133D01*
X27993108Y-51444133D02*
X28055013Y-51506038D01*
X28055013Y-51506038D02*
X28116917Y-51629847D01*
X28116917Y-51629847D02*
X28116917Y-51877466D01*
X28116917Y-51877466D02*
X28055013Y-52001276D01*
X28055013Y-52001276D02*
X27993108Y-52063181D01*
X27993108Y-52063181D02*
X27869298Y-52125085D01*
X27869298Y-52125085D02*
X27621679Y-52125085D01*
X27621679Y-52125085D02*
X27497870Y-52063181D01*
X27497870Y-52063181D02*
X27435965Y-52001276D01*
X27435965Y-52001276D02*
X27374060Y-51877466D01*
X27374060Y-51877466D02*
X27374060Y-51629847D01*
X27374060Y-51629847D02*
X27435965Y-51506038D01*
X27435965Y-51506038D02*
X27497870Y-51444133D01*
X27497870Y-51444133D02*
X27621679Y-51382228D01*
X26569299Y-50825085D02*
X26445489Y-50825085D01*
X26445489Y-50825085D02*
X26321680Y-50886990D01*
X26321680Y-50886990D02*
X26259775Y-50948895D01*
X26259775Y-50948895D02*
X26197870Y-51072704D01*
X26197870Y-51072704D02*
X26135965Y-51320323D01*
X26135965Y-51320323D02*
X26135965Y-51629847D01*
X26135965Y-51629847D02*
X26197870Y-51877466D01*
X26197870Y-51877466D02*
X26259775Y-52001276D01*
X26259775Y-52001276D02*
X26321680Y-52063181D01*
X26321680Y-52063181D02*
X26445489Y-52125085D01*
X26445489Y-52125085D02*
X26569299Y-52125085D01*
X26569299Y-52125085D02*
X26693108Y-52063181D01*
X26693108Y-52063181D02*
X26755013Y-52001276D01*
X26755013Y-52001276D02*
X26816918Y-51877466D01*
X26816918Y-51877466D02*
X26878822Y-51629847D01*
X26878822Y-51629847D02*
X26878822Y-51320323D01*
X26878822Y-51320323D02*
X26816918Y-51072704D01*
X26816918Y-51072704D02*
X26755013Y-50948895D01*
X26755013Y-50948895D02*
X26693108Y-50886990D01*
X26693108Y-50886990D02*
X26569299Y-50825085D01*
X25331204Y-50825085D02*
X25207394Y-50825085D01*
X25207394Y-50825085D02*
X25083585Y-50886990D01*
X25083585Y-50886990D02*
X25021680Y-50948895D01*
X25021680Y-50948895D02*
X24959775Y-51072704D01*
X24959775Y-51072704D02*
X24897870Y-51320323D01*
X24897870Y-51320323D02*
X24897870Y-51629847D01*
X24897870Y-51629847D02*
X24959775Y-51877466D01*
X24959775Y-51877466D02*
X25021680Y-52001276D01*
X25021680Y-52001276D02*
X25083585Y-52063181D01*
X25083585Y-52063181D02*
X25207394Y-52125085D01*
X25207394Y-52125085D02*
X25331204Y-52125085D01*
X25331204Y-52125085D02*
X25455013Y-52063181D01*
X25455013Y-52063181D02*
X25516918Y-52001276D01*
X25516918Y-52001276D02*
X25578823Y-51877466D01*
X25578823Y-51877466D02*
X25640727Y-51629847D01*
X25640727Y-51629847D02*
X25640727Y-51320323D01*
X25640727Y-51320323D02*
X25578823Y-51072704D01*
X25578823Y-51072704D02*
X25516918Y-50948895D01*
X25516918Y-50948895D02*
X25455013Y-50886990D01*
X25455013Y-50886990D02*
X25331204Y-50825085D01*
X24402632Y-51753657D02*
X23783585Y-51753657D01*
X24526442Y-52125085D02*
X24093109Y-50825085D01*
X24093109Y-50825085D02*
X23659775Y-52125085D01*
D12*
X4304318Y-22316667D02*
X5211461Y-22316667D01*
X5211461Y-22316667D02*
X5392889Y-22256190D01*
X5392889Y-22256190D02*
X5513842Y-22135238D01*
X5513842Y-22135238D02*
X5574318Y-21953809D01*
X5574318Y-21953809D02*
X5574318Y-21832857D01*
X5574318Y-23586667D02*
X5574318Y-22860952D01*
X5574318Y-23223809D02*
X4304318Y-23223809D01*
X4304318Y-23223809D02*
X4485746Y-23102857D01*
X4485746Y-23102857D02*
X4606699Y-22981905D01*
X4606699Y-22981905D02*
X4667175Y-22860952D01*
D13*
%TO.C,J1*%
X1100000Y840000D02*
X9600000Y840000D01*
X1100000Y-17740000D02*
X1100000Y840000D01*
X9600000Y840000D02*
X9600000Y-21080000D01*
X9600000Y-21080000D02*
X5000000Y-21080000D01*
%TD*%
D14*
%TO.C,J1*%
X5000000Y-17740000D03*
D15*
X5000000Y-12660000D03*
X5000000Y-7580000D03*
X5000000Y-2500000D03*
%TD*%
M02*
