%TF.GenerationSoftware,KiCad,Pcbnew,10.0.3*%
%TF.CreationDate,2026-07-17T00:01:58-07:00*%
%TF.ProjectId,DCBusFilter,44434275-7346-4696-9c74-65722e6b6963,rev?*%
%TF.SameCoordinates,Original*%
%TF.FileFunction,Soldermask,Bot*%
%TF.FilePolarity,Negative*%
%FSLAX46Y46*%
G04 Gerber Fmt 4.6, Leading zero omitted, Abs format (unit mm)*
G04 Created by KiCad (PCBNEW 10.0.3) date 2026-07-17 00:01:58*
%MOMM*%
%LPD*%
G01*
G04 APERTURE LIST*
%ADD10C,0.100000*%
%ADD11C,1.381000*%
%ADD12R,2.100000X2.100000*%
%ADD13C,2.100000*%
%ADD14C,10.000000*%
%ADD15R,8.850000X2.450000*%
%ADD16C,1.600000*%
%ADD17R,5.250000X1.020000*%
%ADD18R,5.250000X1.019998*%
%ADD19R,5.248699X1.026429*%
%ADD20R,3.450000X1.900000*%
G04 APERTURE END LIST*
D10*
X40000000Y-27000000D02*
X277000000Y-27000000D01*
X277000000Y-43000000D01*
X40000000Y-43000000D01*
X40000000Y-27000000D01*
G36*
X40000000Y-27000000D02*
G01*
X277000000Y-27000000D01*
X277000000Y-43000000D01*
X40000000Y-43000000D01*
X40000000Y-27000000D01*
G37*
X40000000Y-55000000D02*
X277000000Y-55000000D01*
X277000000Y-71000000D01*
X40000000Y-71000000D01*
X40000000Y-55000000D01*
G36*
X40000000Y-55000000D02*
G01*
X277000000Y-55000000D01*
X277000000Y-71000000D01*
X40000000Y-71000000D01*
X40000000Y-55000000D01*
G37*
D11*
%TO.C,C17*%
X172500000Y-85500000D03*
X172500000Y-75500000D03*
%TD*%
D12*
%TO.C,C1*%
X15000000Y-19000000D03*
D13*
X15000000Y-71500000D03*
X35300000Y-19000000D03*
X35300000Y-71500000D03*
%TD*%
D12*
%TO.C,C6*%
X154000000Y-19000000D03*
D13*
X154000000Y-71500000D03*
X174300000Y-19000000D03*
X174300000Y-71500000D03*
%TD*%
D11*
%TO.C,C28*%
X268000000Y-85500000D03*
X268000000Y-75500000D03*
%TD*%
%TO.C,C36*%
X262000000Y6000000D03*
X252000000Y6000000D03*
%TD*%
D12*
%TO.C,C26*%
X195000000Y-19000000D03*
D13*
X195000000Y-71500000D03*
X215300000Y-19000000D03*
X215300000Y-71500000D03*
%TD*%
D14*
%TO.C,H4*%
X95000000Y3000000D03*
%TD*%
%TO.C,H11*%
X230000000Y-35000000D03*
%TD*%
D11*
%TO.C,C9*%
X18000000Y-85500000D03*
X18000000Y-75500000D03*
%TD*%
D14*
%TO.C,H3*%
X50000000Y-7000000D03*
%TD*%
D11*
%TO.C,C19*%
X204000000Y-4000000D03*
X204000000Y-14000000D03*
%TD*%
D14*
%TO.C,H6*%
X185000000Y3000000D03*
%TD*%
D11*
%TO.C,C14*%
X108000000Y-4000000D03*
X108000000Y-14000000D03*
%TD*%
%TO.C,C11*%
X114000000Y-4000000D03*
X114000000Y-14000000D03*
%TD*%
%TO.C,C16*%
X82000000Y-1000000D03*
X72000000Y-1000000D03*
%TD*%
D14*
%TO.C,H9*%
X230000000Y-7000000D03*
%TD*%
D11*
%TO.C,C24*%
X172000000Y-900000D03*
X162000000Y-900000D03*
%TD*%
D12*
%TO.C,C2*%
X64000000Y-19000000D03*
D13*
X64000000Y-71500000D03*
X84300000Y-19000000D03*
X84300000Y-71500000D03*
%TD*%
D11*
%TO.C,C20*%
X198000000Y-4000000D03*
X198000000Y-14000000D03*
%TD*%
D14*
%TO.C,H14*%
X185000000Y-81000000D03*
%TD*%
%TO.C,H8*%
X140000000Y-63000000D03*
%TD*%
D11*
%TO.C,C30*%
X265535534Y-5964467D03*
X258464466Y-13035535D03*
%TD*%
%TO.C,C29*%
X274035534Y-5964467D03*
X266964466Y-13035535D03*
%TD*%
%TO.C,C23*%
X172000000Y-7000000D03*
X162000000Y-7000000D03*
%TD*%
D14*
%TO.C,H10*%
X275000000Y3000000D03*
%TD*%
%TO.C,H15*%
X285000000Y-81000000D03*
%TD*%
D12*
%TO.C,C5*%
X105000000Y-19000000D03*
D13*
X105000000Y-71500000D03*
X125300000Y-19000000D03*
X125300000Y-71500000D03*
%TD*%
D14*
%TO.C,H5*%
X140000000Y-7000000D03*
%TD*%
%TO.C,H1*%
X50000000Y-35000000D03*
%TD*%
D11*
%TO.C,C18*%
X166400000Y-85500000D03*
X166400000Y-75500000D03*
%TD*%
%TO.C,C10*%
X24000000Y-85500000D03*
X24000000Y-75500000D03*
%TD*%
D14*
%TO.C,H2*%
X50000000Y-63000000D03*
%TD*%
D11*
%TO.C,C35*%
X262000000Y0D03*
X252000000Y0D03*
%TD*%
D14*
%TO.C,H12*%
X230000000Y-63000000D03*
%TD*%
%TO.C,H13*%
X6000000Y-81000000D03*
%TD*%
D12*
%TO.C,C27*%
X244000000Y-19000000D03*
D13*
X244000000Y-71500000D03*
X264300000Y-19000000D03*
X264300000Y-71500000D03*
%TD*%
D14*
%TO.C,H7*%
X140000000Y-35000000D03*
%TD*%
D11*
%TO.C,C15*%
X82000000Y-7100000D03*
X72000000Y-7100000D03*
%TD*%
%TO.C,C25*%
X262000000Y-85500000D03*
X262000000Y-75500000D03*
%TD*%
D15*
%TO.C,C32*%
X241000000Y-45525000D03*
X241000000Y-52475000D03*
%TD*%
%TO.C,C33*%
X219000000Y-45525000D03*
X219000000Y-52475000D03*
%TD*%
%TO.C,C31*%
X230000000Y-45525000D03*
X230000000Y-52475000D03*
%TD*%
%TO.C,C21*%
X129000000Y-45525000D03*
X129000000Y-52475000D03*
%TD*%
D16*
%TO.C,J15*%
X6850000Y-27150000D03*
X6850000Y-66050000D03*
D17*
X8475000Y-31100000D03*
X8475000Y-37300000D03*
X8475000Y-43500000D03*
D18*
X8475000Y-49699999D03*
D17*
X8475000Y-55900000D03*
D19*
X8474349Y-62096780D03*
D20*
X9375000Y-25550000D03*
X4325000Y-25550000D03*
X9375000Y-67650000D03*
X4325000Y-67650000D03*
%TD*%
D15*
%TO.C,C7*%
X140000000Y-45525000D03*
X140000000Y-52475000D03*
%TD*%
%TO.C,C12*%
X39000000Y-45525000D03*
X39000000Y-52475000D03*
%TD*%
%TO.C,C4*%
X61000000Y-45525000D03*
X61000000Y-52475000D03*
%TD*%
%TO.C,C8*%
X151000000Y-45525000D03*
X151000000Y-52475000D03*
%TD*%
%TO.C,C3*%
X50000000Y-45525000D03*
X50000000Y-52475000D03*
%TD*%
M02*
