%TF.GenerationSoftware,KiCad,Pcbnew,10.0.3*%
%TF.CreationDate,2026-08-29T23:36:14-07:00*%
%TF.ProjectId,DCBusFilter,44434275-7346-4696-9c74-65722e6b6963,rev?*%
%TF.SameCoordinates,Original*%
%TF.FileFunction,OtherDrawing,Comment*%
%FSLAX46Y46*%
G04 Gerber Fmt 4.6, Leading zero omitted, Abs format (unit mm)*
G04 Created by KiCad (PCBNEW 10.0.3) date 2026-08-29 23:36:14*
%MOMM*%
%LPD*%
G01*
G04 APERTURE LIST*
%ADD10C,0.100000*%
G04 APERTURE END LIST*
%TO.C,C1*%
D10*
X7650000Y-15500000D02*
X42650000Y-15500000D01*
X7650000Y-75000000D02*
X7650000Y-15500000D01*
X8650000Y-16500000D02*
X41650000Y-16500000D01*
X8650000Y-74000000D02*
X8650000Y-16500000D01*
X41650000Y-16500000D02*
X41650000Y-74000000D01*
X41650000Y-74000000D02*
X8650000Y-74000000D01*
X42650000Y-15500000D02*
X42650000Y-75000000D01*
X42650000Y-75000000D02*
X7650000Y-75000000D01*
%TO.C,C6*%
X146650000Y-15500000D02*
X181650000Y-15500000D01*
X146650000Y-75000000D02*
X146650000Y-15500000D01*
X147650000Y-16500000D02*
X180650000Y-16500000D01*
X147650000Y-74000000D02*
X147650000Y-16500000D01*
X180650000Y-16500000D02*
X180650000Y-74000000D01*
X180650000Y-74000000D02*
X147650000Y-74000000D01*
X181650000Y-15500000D02*
X181650000Y-75000000D01*
X181650000Y-75000000D02*
X146650000Y-75000000D01*
%TO.C,C26*%
X187650000Y-15500000D02*
X222650000Y-15500000D01*
X187650000Y-75000000D02*
X187650000Y-15500000D01*
X188650000Y-16500000D02*
X221650000Y-16500000D01*
X188650000Y-74000000D02*
X188650000Y-16500000D01*
X221650000Y-16500000D02*
X221650000Y-74000000D01*
X221650000Y-74000000D02*
X188650000Y-74000000D01*
X222650000Y-15500000D02*
X222650000Y-75000000D01*
X222650000Y-75000000D02*
X187650000Y-75000000D01*
%TO.C,C2*%
X56650000Y-15500000D02*
X91650000Y-15500000D01*
X56650000Y-75000000D02*
X56650000Y-15500000D01*
X57650000Y-16500000D02*
X90650000Y-16500000D01*
X57650000Y-74000000D02*
X57650000Y-16500000D01*
X90650000Y-16500000D02*
X90650000Y-74000000D01*
X90650000Y-74000000D02*
X57650000Y-74000000D01*
X91650000Y-15500000D02*
X91650000Y-75000000D01*
X91650000Y-75000000D02*
X56650000Y-75000000D01*
%TO.C,C5*%
X97650000Y-15500000D02*
X132650000Y-15500000D01*
X97650000Y-75000000D02*
X97650000Y-15500000D01*
X98650000Y-16500000D02*
X131650000Y-16500000D01*
X98650000Y-74000000D02*
X98650000Y-16500000D01*
X131650000Y-16500000D02*
X131650000Y-74000000D01*
X131650000Y-74000000D02*
X98650000Y-74000000D01*
X132650000Y-15500000D02*
X132650000Y-75000000D01*
X132650000Y-75000000D02*
X97650000Y-75000000D01*
%TO.C,C27*%
X236650000Y-15500000D02*
X271650000Y-15500000D01*
X236650000Y-75000000D02*
X236650000Y-15500000D01*
X237650000Y-16500000D02*
X270650000Y-16500000D01*
X237650000Y-74000000D02*
X237650000Y-16500000D01*
X270650000Y-16500000D02*
X270650000Y-74000000D01*
X270650000Y-74000000D02*
X237650000Y-74000000D01*
X271650000Y-15500000D02*
X271650000Y-75000000D01*
X271650000Y-75000000D02*
X236650000Y-75000000D01*
%TD*%
M02*
