%TF.GenerationSoftware,KiCad,Pcbnew,9.0.1*%
%TF.CreationDate,2026-02-08T14:41:02-08:00*%
%TF.ProjectId,DCBusFilter,44434275-7346-4696-9c74-65722e6b6963,rev?*%
%TF.SameCoordinates,Original*%
%TF.FileFunction,Copper,L3,Inr*%
%TF.FilePolarity,Positive*%
%FSLAX46Y46*%
G04 Gerber Fmt 4.6, Leading zero omitted, Abs format (unit mm)*
G04 Created by KiCad (PCBNEW 9.0.1) date 2026-02-08 14:41:02*
%MOMM*%
%LPD*%
G01*
G04 APERTURE LIST*
%TA.AperFunction,ComponentPad*%
%ADD10C,10.000000*%
%TD*%
%TA.AperFunction,ComponentPad*%
%ADD11C,5.500000*%
%TD*%
%TA.AperFunction,ComponentPad*%
%ADD12R,2.100000X2.100000*%
%TD*%
%TA.AperFunction,ComponentPad*%
%ADD13C,2.100000*%
%TD*%
%TA.AperFunction,ComponentPad*%
%ADD14C,1.381000*%
%TD*%
%TA.AperFunction,ComponentPad*%
%ADD15R,2.400000X2.400000*%
%TD*%
%TA.AperFunction,ComponentPad*%
%ADD16C,2.400000*%
%TD*%
%TA.AperFunction,ViaPad*%
%ADD17C,1.000000*%
%TD*%
%TA.AperFunction,Conductor*%
%ADD18C,2.000000*%
%TD*%
G04 APERTURE END LIST*
D10*
%TO.N,/PHASE_LEG*%
%TO.C,H3*%
X50000000Y-7000000D03*
%TD*%
D11*
%TO.N,/CHASSIS_GND_1*%
%TO.C,H5*%
X87000000Y0D03*
%TD*%
D12*
%TO.N,/DC_LINK_+*%
%TO.C,C1*%
X33650000Y-71500000D03*
D13*
%TO.N,/DC_LINK_-*%
X33650000Y-19000000D03*
%TO.N,/DC_LINK_+*%
X13350000Y-71500000D03*
%TO.N,/DC_LINK_-*%
X13350000Y-19000000D03*
%TD*%
D14*
%TO.N,/PHASE_LEG*%
%TO.C,C5*%
X76000000Y2000000D03*
%TO.N,/DC_LINK_+*%
X76000000Y-8000000D03*
%TD*%
%TO.N,/CHASSIS_GND_1*%
%TO.C,C7*%
X87000000Y-13000000D03*
%TO.N,/DC_LINK_+*%
X77000000Y-13000000D03*
%TD*%
%TO.N,/CHASSIS_GND*%
%TO.C,C11*%
X25000000Y6000000D03*
%TO.N,/PHASE_LEG*%
X25000000Y-4000000D03*
%TD*%
%TO.N,/CHASSIS_GND*%
%TO.C,C10*%
X18000000Y0D03*
%TO.N,/DC_LINK_-*%
X18000000Y-10000000D03*
%TD*%
%TO.N,/DC_LINK_-*%
%TO.C,C9*%
X51500000Y-44500000D03*
%TO.N,/DC_LINK_+*%
X51500000Y-54500000D03*
%TD*%
%TO.N,/DC_LINK_-*%
%TO.C,C6*%
X50000000Y-25500000D03*
%TO.N,/PHASE_LEG*%
X50000000Y-15500000D03*
%TD*%
D10*
%TO.N,/DC_LINK_+*%
%TO.C,H1*%
X50000000Y-63000000D03*
%TD*%
D14*
%TO.N,/DC_LINK_-*%
%TO.C,C8*%
X44500000Y-44500000D03*
%TO.N,/DC_LINK_+*%
X44500000Y-54500000D03*
%TD*%
D10*
%TO.N,/DC_LINK_-*%
%TO.C,H2*%
X50000000Y-35000000D03*
%TD*%
D12*
%TO.N,/DC_LINK_+*%
%TO.C,C2*%
X83650000Y-71975000D03*
D13*
%TO.N,/DC_LINK_-*%
X83650000Y-19475000D03*
%TO.N,/DC_LINK_+*%
X63350000Y-71975000D03*
%TO.N,/DC_LINK_-*%
X63350000Y-19475000D03*
%TD*%
D11*
%TO.N,/CHASSIS_GND*%
%TO.C,H4*%
X14000000Y5000000D03*
%TD*%
D15*
%TO.N,/DC_LINK_+*%
%TO.C,J1*%
X5000000Y-17740000D03*
D16*
%TO.N,unconnected-(J1-Pad2)*%
X5000000Y-12660000D03*
%TO.N,/PHASE_LEG*%
X5000000Y-7580000D03*
%TO.N,/DC_LINK_-*%
X5000000Y-2500000D03*
%TD*%
D17*
%TO.N,/DC_LINK_+*%
X63500000Y-58000000D03*
X63500000Y-68000000D03*
X39000000Y-57000000D03*
X41000000Y-65000000D03*
X40000000Y-62000000D03*
X58500000Y-63000000D03*
X39000000Y-61000000D03*
X37000000Y-57000000D03*
X59500000Y-70000000D03*
X43000000Y-59000000D03*
X33500000Y-69500000D03*
X39000000Y-69000000D03*
X66500000Y-63000000D03*
X41000000Y-61000000D03*
X39000000Y-65000000D03*
X60500000Y-65000000D03*
X63500000Y-64000000D03*
X65500000Y-58000000D03*
X60500000Y-57000000D03*
X35000000Y-69000000D03*
X62500000Y-59000000D03*
X38000000Y-70000000D03*
X57500000Y-58000000D03*
X35000000Y-61000000D03*
X66500000Y-69000000D03*
X36000000Y-58000000D03*
X43000000Y-67000000D03*
X36000000Y-60000000D03*
X37000000Y-69000000D03*
X65500000Y-62000000D03*
X38000000Y-62000000D03*
X42000000Y-58000000D03*
X64500000Y-65000000D03*
X40000000Y-60000000D03*
X57500000Y-68000000D03*
X42000000Y-66000000D03*
X61500000Y-62000000D03*
X37000000Y-67000000D03*
X34000000Y-68000000D03*
X66500000Y-67000000D03*
X63500000Y-70000000D03*
X43000000Y-63000000D03*
X65500000Y-60000000D03*
X60500000Y-67000000D03*
X61500000Y-68000000D03*
X59500000Y-64000000D03*
X34000000Y-58000000D03*
X65500000Y-70000000D03*
X40000000Y-58000000D03*
X66500000Y-65000000D03*
X60500000Y-61000000D03*
X58500000Y-61000000D03*
X35000000Y-67000000D03*
X64500000Y-69000000D03*
X43000000Y-69000000D03*
X37000000Y-65000000D03*
X62500000Y-61000000D03*
X66500000Y-61000000D03*
X61500000Y-70000000D03*
X42000000Y-70000000D03*
X64500000Y-59000000D03*
X64500000Y-57000000D03*
X57500000Y-66000000D03*
X40000000Y-64000000D03*
X60500000Y-59000000D03*
X38000000Y-64000000D03*
X41000000Y-59000000D03*
X62500000Y-69000000D03*
X35000000Y-59000000D03*
X39000000Y-67000000D03*
X34000000Y-64000000D03*
X36000000Y-64000000D03*
X42000000Y-62000000D03*
X38000000Y-58000000D03*
X59500000Y-60000000D03*
X64500000Y-67000000D03*
X57500000Y-70000000D03*
X42000000Y-64000000D03*
X59500000Y-62000000D03*
X58500000Y-65000000D03*
X65500000Y-68000000D03*
X62500000Y-67000000D03*
X61500000Y-60000000D03*
X58500000Y-57000000D03*
X62500000Y-57000000D03*
X36000000Y-66000000D03*
X41000000Y-57000000D03*
X57500000Y-60000000D03*
X39000000Y-63000000D03*
X60500000Y-69000000D03*
X37000000Y-63000000D03*
X35000000Y-57000000D03*
X65500000Y-66000000D03*
X35000000Y-65000000D03*
X40000000Y-70000000D03*
X57500000Y-62000000D03*
X66500000Y-59000000D03*
X36000000Y-70000000D03*
X37000000Y-61000000D03*
X38000000Y-68000000D03*
X35000000Y-63000000D03*
X65500000Y-64000000D03*
X63500000Y-62000000D03*
X40000000Y-68000000D03*
X42000000Y-60000000D03*
X62500000Y-65000000D03*
X58500000Y-59000000D03*
X61500000Y-66000000D03*
X37000000Y-59000000D03*
X41000000Y-67000000D03*
X63500000Y-60000000D03*
X43000000Y-61000000D03*
X61500000Y-64000000D03*
X43000000Y-57000000D03*
X58500000Y-69000000D03*
X42000000Y-68000000D03*
X61500000Y-58000000D03*
X64500000Y-61000000D03*
X62500000Y-63000000D03*
X59500000Y-58000000D03*
X66500000Y-57000000D03*
X59500000Y-66000000D03*
X36000000Y-68000000D03*
X63500000Y-66000000D03*
X43000000Y-65000000D03*
X41000000Y-63000000D03*
X34000000Y-66000000D03*
X41000000Y-69000000D03*
X38000000Y-60000000D03*
X60500000Y-63000000D03*
X40000000Y-66000000D03*
X39000000Y-59000000D03*
X34000000Y-62000000D03*
X59500000Y-68000000D03*
X57500000Y-64000000D03*
X64500000Y-63000000D03*
X38000000Y-66000000D03*
X58500000Y-67000000D03*
X34000000Y-60000000D03*
X36000000Y-62000000D03*
%TO.N,/DC_LINK_-*%
X34500000Y-41500000D03*
X57500000Y-31500000D03*
X41500000Y-34500000D03*
X34500000Y-39500000D03*
X33500000Y-30500000D03*
X37500000Y-28500000D03*
X33500000Y-38500000D03*
X37500000Y-32500000D03*
X64500000Y-38500000D03*
X34500000Y-29500000D03*
X57500000Y-33500000D03*
X59500000Y-41500000D03*
X32500000Y-31500000D03*
X39500000Y-28500000D03*
X58500000Y-28500000D03*
X59500000Y-39500000D03*
X40500000Y-35500000D03*
X62500000Y-28500000D03*
X63500000Y-31500000D03*
X57500000Y-29500000D03*
X34500000Y-35500000D03*
X40500000Y-39500000D03*
X64500000Y-40500000D03*
X60500000Y-30500000D03*
X41500000Y-30500000D03*
X35500000Y-36500000D03*
X41500000Y-28500000D03*
X38500000Y-33500000D03*
X61500000Y-29500000D03*
X37500000Y-36500000D03*
X59500000Y-37500000D03*
X63500000Y-29500000D03*
X61500000Y-31500000D03*
X66500000Y-32500000D03*
X34500000Y-33500000D03*
X64500000Y-30500000D03*
X59500000Y-31500000D03*
X35500000Y-32500000D03*
X60500000Y-28500000D03*
X58500000Y-40500000D03*
X66500000Y-28500000D03*
X60500000Y-32500000D03*
X65500000Y-33500000D03*
X61500000Y-39500000D03*
X61500000Y-37500000D03*
X59500000Y-35500000D03*
X33500000Y-32500000D03*
X32500000Y-33500000D03*
X65500000Y-39500000D03*
X66500000Y-36500000D03*
X58500000Y-34500000D03*
X38500000Y-29500000D03*
X59500000Y-29500000D03*
X38500000Y-41500000D03*
X41500000Y-38500000D03*
X40500000Y-37500000D03*
X65500000Y-41500000D03*
X63500000Y-37500000D03*
X59500000Y-33500000D03*
X61500000Y-41500000D03*
X60500000Y-38500000D03*
X36500000Y-37500000D03*
X64500000Y-36500000D03*
X41500000Y-36500000D03*
X65500000Y-37500000D03*
X36500000Y-29500000D03*
X65500000Y-31500000D03*
X33500000Y-34500000D03*
X35500000Y-40500000D03*
X60500000Y-34500000D03*
X37500000Y-34500000D03*
X32500000Y-35500000D03*
X40500000Y-41500000D03*
X63500000Y-35500000D03*
X57500000Y-41500000D03*
X33500000Y-36500000D03*
X62500000Y-40500000D03*
X61500000Y-33500000D03*
X36500000Y-41500000D03*
X62500000Y-32500000D03*
X62500000Y-34500000D03*
X35500000Y-38500000D03*
X39500000Y-40500000D03*
X60500000Y-40500000D03*
X40500000Y-31500000D03*
X32500000Y-29500000D03*
X36500000Y-33500000D03*
X61500000Y-35500000D03*
X41500000Y-40500000D03*
X36500000Y-39500000D03*
X63500000Y-33500000D03*
X38500000Y-31500000D03*
X41500000Y-32500000D03*
X66500000Y-40500000D03*
X64500000Y-34500000D03*
X39500000Y-32500000D03*
X62500000Y-36500000D03*
X62500000Y-38500000D03*
X64500000Y-28500000D03*
X58500000Y-30500000D03*
X39500000Y-36500000D03*
X40500000Y-33500000D03*
X58500000Y-36500000D03*
X40500000Y-29500000D03*
X63500000Y-39500000D03*
X37500000Y-38500000D03*
X35500000Y-28500000D03*
X37500000Y-30500000D03*
X60500000Y-36500000D03*
X66500000Y-38500000D03*
X65500000Y-29500000D03*
X37500000Y-40500000D03*
X57500000Y-35500000D03*
X32500000Y-39500000D03*
X62500000Y-30500000D03*
X36500000Y-35500000D03*
X57500000Y-39500000D03*
X57500000Y-37500000D03*
X58500000Y-32500000D03*
X38500000Y-37500000D03*
X33500000Y-40500000D03*
X63500000Y-41500000D03*
X35500000Y-30500000D03*
X38500000Y-39500000D03*
X39500000Y-38500000D03*
X39500000Y-34500000D03*
X34500000Y-31500000D03*
X66500000Y-34500000D03*
X64500000Y-32500000D03*
X38500000Y-35500000D03*
X35500000Y-34500000D03*
X32500000Y-41500000D03*
X32500000Y-37500000D03*
X65500000Y-35500000D03*
X34500000Y-37500000D03*
X33500000Y-28500000D03*
X36500000Y-31500000D03*
X39500000Y-30500000D03*
X58500000Y-38500000D03*
X66500000Y-30500000D03*
%TD*%
D18*
%TO.N,/DC_LINK_+*%
X13350000Y-61350000D02*
X13350000Y-70975000D01*
X4500000Y-17740000D02*
X4500000Y-52500000D01*
X4500000Y-52500000D02*
X13350000Y-61350000D01*
%TO.N,/DC_LINK_-*%
X13350000Y-6350000D02*
X9500000Y-2500000D01*
X13350000Y-18475000D02*
X13350000Y-6350000D01*
X9500000Y-2500000D02*
X4500000Y-2500000D01*
%TD*%
%TA.AperFunction,Conductor*%
%TO.N,/PHASE_LEG*%
G36*
X57443039Y-520185D02*
G01*
X57488794Y-572989D01*
X57500000Y-624500D01*
X57500000Y-14876000D01*
X57480315Y-14943039D01*
X57427511Y-14988794D01*
X57376000Y-15000000D01*
X42624000Y-15000000D01*
X42556961Y-14980315D01*
X42511206Y-14927511D01*
X42500000Y-14876000D01*
X42500000Y-624500D01*
X42519685Y-557461D01*
X42572489Y-511706D01*
X42624000Y-500500D01*
X57376000Y-500500D01*
X57443039Y-520185D01*
G37*
%TD.AperFunction*%
%TD*%
M02*
