%TF.GenerationSoftware,KiCad,Pcbnew,10.0.3*%
%TF.CreationDate,2026-07-17T09:52:12-07:00*%
%TF.ProjectId,DCBusFilter,44434275-7346-4696-9c74-65722e6b6963,rev?*%
%TF.SameCoordinates,Original*%
%TF.FileFunction,Other,User*%
%FSLAX46Y46*%
G04 Gerber Fmt 4.6, Leading zero omitted, Abs format (unit mm)*
G04 Created by KiCad (PCBNEW 10.0.3) date 2026-07-17 09:52:12*
%MOMM*%
%LPD*%
G01*
G04 APERTURE LIST*
%ADD10C,0.100000*%
G04 APERTURE END LIST*
%TO.C,C32*%
D10*
X235575000Y-43300000D02*
X235575000Y-54700000D01*
X235575000Y-54700000D02*
X246425000Y-54700000D01*
X246425000Y-43300000D02*
X235575000Y-43300000D01*
X246425000Y-54700000D02*
X246425000Y-43300000D01*
%TO.C,C33*%
X213575000Y-43300000D02*
X213575000Y-54700000D01*
X213575000Y-54700000D02*
X224425000Y-54700000D01*
X224425000Y-43300000D02*
X213575000Y-43300000D01*
X224425000Y-54700000D02*
X224425000Y-43300000D01*
%TO.C,C31*%
X224575000Y-43300000D02*
X224575000Y-54700000D01*
X224575000Y-54700000D02*
X235425000Y-54700000D01*
X235425000Y-43300000D02*
X224575000Y-43300000D01*
X235425000Y-54700000D02*
X235425000Y-43300000D01*
%TO.C,C21*%
X123575000Y-43300000D02*
X123575000Y-54700000D01*
X123575000Y-54700000D02*
X134425000Y-54700000D01*
X134425000Y-43300000D02*
X123575000Y-43300000D01*
X134425000Y-54700000D02*
X134425000Y-43300000D01*
%TO.C,J15*%
X2050000Y-24050000D02*
X2050000Y-69150000D01*
X2050000Y-69150000D02*
X11650000Y-69150000D01*
X11650000Y-24050000D02*
X2050000Y-24050000D01*
X11650000Y-69150000D02*
X11650000Y-24050000D01*
%TO.C,C7*%
X134575000Y-43300000D02*
X134575000Y-54700000D01*
X134575000Y-54700000D02*
X145425000Y-54700000D01*
X145425000Y-43300000D02*
X134575000Y-43300000D01*
X145425000Y-54700000D02*
X145425000Y-43300000D01*
%TO.C,C12*%
X33575000Y-43300000D02*
X33575000Y-54700000D01*
X33575000Y-54700000D02*
X44425000Y-54700000D01*
X44425000Y-43300000D02*
X33575000Y-43300000D01*
X44425000Y-54700000D02*
X44425000Y-43300000D01*
%TO.C,C4*%
X55575000Y-43300000D02*
X55575000Y-54700000D01*
X55575000Y-54700000D02*
X66425000Y-54700000D01*
X66425000Y-43300000D02*
X55575000Y-43300000D01*
X66425000Y-54700000D02*
X66425000Y-43300000D01*
%TO.C,C8*%
X145575000Y-43300000D02*
X145575000Y-54700000D01*
X145575000Y-54700000D02*
X156425000Y-54700000D01*
X156425000Y-43300000D02*
X145575000Y-43300000D01*
X156425000Y-54700000D02*
X156425000Y-43300000D01*
%TO.C,C3*%
X44575000Y-43300000D02*
X44575000Y-54700000D01*
X44575000Y-54700000D02*
X55425000Y-54700000D01*
X55425000Y-43300000D02*
X44575000Y-43300000D01*
X55425000Y-54700000D02*
X55425000Y-43300000D01*
%TD*%
M02*
