%TF.GenerationSoftware,KiCad,Pcbnew,10.0.3*%
%TF.CreationDate,2026-07-15T18:16:32-07:00*%
%TF.ProjectId,DCBusFilter,44434275-7346-4696-9c74-65722e6b6963,rev?*%
%TF.SameCoordinates,Original*%
%TF.FileFunction,Legend,Bot*%
%TF.FilePolarity,Positive*%
%FSLAX46Y46*%
G04 Gerber Fmt 4.6, Leading zero omitted, Abs format (unit mm)*
G04 Created by KiCad (PCBNEW 10.0.3) date 2026-07-15 18:16:32*
%MOMM*%
%LPD*%
G01*
G04 APERTURE LIST*
%ADD10C,0.100000*%
%ADD11C,0.300000*%
%ADD12C,0.375000*%
%ADD13C,0.500000*%
%ADD14C,0.254000*%
%ADD15C,0.200000*%
G04 APERTURE END LIST*
D10*
X30000000Y-42500000D02*
X277000000Y-42500000D01*
X277000000Y-55000000D01*
X30000000Y-55000000D01*
X30000000Y-42500000D01*
G36*
X33626194Y-52850866D02*
G01*
X33626194Y-52889134D01*
X33615355Y-52905355D01*
X31485355Y-55035355D01*
X31469134Y-55046194D01*
X31430866Y-55046194D01*
X31403806Y-55019134D01*
X31403806Y-54980866D01*
X31414645Y-54964645D01*
X33544645Y-52834645D01*
X33560866Y-52823806D01*
X33599134Y-52823806D01*
X33626194Y-52850866D01*
G37*
G36*
X34271194Y-54675866D02*
G01*
X34271194Y-54714134D01*
X34260355Y-54730355D01*
X33955355Y-55035355D01*
X33939134Y-55046194D01*
X33900866Y-55046194D01*
X33873806Y-55019134D01*
X33873806Y-54980866D01*
X33884645Y-54964645D01*
X34189645Y-54659645D01*
X34205866Y-54648806D01*
X34244134Y-54648806D01*
X34271194Y-54675866D01*
G37*
G36*
X36741194Y-54675866D02*
G01*
X36741194Y-54714134D01*
X36730355Y-54730355D01*
X36425355Y-55035355D01*
X36409134Y-55046194D01*
X36370866Y-55046194D01*
X36343806Y-55019134D01*
X36343806Y-54980866D01*
X36354645Y-54964645D01*
X36659645Y-54659645D01*
X36675866Y-54648806D01*
X36714134Y-54648806D01*
X36741194Y-54675866D01*
G37*
G36*
X39211194Y-54675866D02*
G01*
X39211194Y-54714134D01*
X39200355Y-54730355D01*
X38895355Y-55035355D01*
X38879134Y-55046194D01*
X38840866Y-55046194D01*
X38813806Y-55019134D01*
X38813806Y-54980866D01*
X38824645Y-54964645D01*
X39129645Y-54659645D01*
X39145866Y-54648806D01*
X39184134Y-54648806D01*
X39211194Y-54675866D01*
G37*
G36*
X41681194Y-54675866D02*
G01*
X41681194Y-54714134D01*
X41670355Y-54730355D01*
X41365355Y-55035355D01*
X41349134Y-55046194D01*
X41310866Y-55046194D01*
X41283806Y-55019134D01*
X41283806Y-54980866D01*
X41294645Y-54964645D01*
X41599645Y-54659645D01*
X41615866Y-54648806D01*
X41654134Y-54648806D01*
X41681194Y-54675866D01*
G37*
G36*
X44151194Y-54675866D02*
G01*
X44151194Y-54714134D01*
X44140355Y-54730355D01*
X43835355Y-55035355D01*
X43819134Y-55046194D01*
X43780866Y-55046194D01*
X43753806Y-55019134D01*
X43753806Y-54980866D01*
X43764645Y-54964645D01*
X44069645Y-54659645D01*
X44085866Y-54648806D01*
X44124134Y-54648806D01*
X44151194Y-54675866D01*
G37*
G36*
X46621194Y-54675866D02*
G01*
X46621194Y-54714134D01*
X46610355Y-54730355D01*
X46305355Y-55035355D01*
X46289134Y-55046194D01*
X46250866Y-55046194D01*
X46223806Y-55019134D01*
X46223806Y-54980866D01*
X46234645Y-54964645D01*
X46539645Y-54659645D01*
X46555866Y-54648806D01*
X46594134Y-54648806D01*
X46621194Y-54675866D01*
G37*
G36*
X49091194Y-54675866D02*
G01*
X49091194Y-54714134D01*
X49080355Y-54730355D01*
X48775355Y-55035355D01*
X48759134Y-55046194D01*
X48720866Y-55046194D01*
X48693806Y-55019134D01*
X48693806Y-54980866D01*
X48704645Y-54964645D01*
X49009645Y-54659645D01*
X49025866Y-54648806D01*
X49064134Y-54648806D01*
X49091194Y-54675866D01*
G37*
G36*
X51561194Y-54675866D02*
G01*
X51561194Y-54714134D01*
X51550355Y-54730355D01*
X51245355Y-55035355D01*
X51229134Y-55046194D01*
X51190866Y-55046194D01*
X51163806Y-55019134D01*
X51163806Y-54980866D01*
X51174645Y-54964645D01*
X51479645Y-54659645D01*
X51495866Y-54648806D01*
X51534134Y-54648806D01*
X51561194Y-54675866D01*
G37*
G36*
X54031194Y-54675866D02*
G01*
X54031194Y-54714134D01*
X54020355Y-54730355D01*
X53715355Y-55035355D01*
X53699134Y-55046194D01*
X53660866Y-55046194D01*
X53633806Y-55019134D01*
X53633806Y-54980866D01*
X53644645Y-54964645D01*
X53949645Y-54659645D01*
X53965866Y-54648806D01*
X54004134Y-54648806D01*
X54031194Y-54675866D01*
G37*
G36*
X56501194Y-54675866D02*
G01*
X56501194Y-54714134D01*
X56490355Y-54730355D01*
X56185355Y-55035355D01*
X56169134Y-55046194D01*
X56130866Y-55046194D01*
X56103806Y-55019134D01*
X56103806Y-54980866D01*
X56114645Y-54964645D01*
X56419645Y-54659645D01*
X56435866Y-54648806D01*
X56474134Y-54648806D01*
X56501194Y-54675866D01*
G37*
G36*
X58971194Y-54675866D02*
G01*
X58971194Y-54714134D01*
X58960355Y-54730355D01*
X58655355Y-55035355D01*
X58639134Y-55046194D01*
X58600866Y-55046194D01*
X58573806Y-55019134D01*
X58573806Y-54980866D01*
X58584645Y-54964645D01*
X58889645Y-54659645D01*
X58905866Y-54648806D01*
X58944134Y-54648806D01*
X58971194Y-54675866D01*
G37*
G36*
X61441194Y-54675866D02*
G01*
X61441194Y-54714134D01*
X61430355Y-54730355D01*
X61125355Y-55035355D01*
X61109134Y-55046194D01*
X61070866Y-55046194D01*
X61043806Y-55019134D01*
X61043806Y-54980866D01*
X61054645Y-54964645D01*
X61359645Y-54659645D01*
X61375866Y-54648806D01*
X61414134Y-54648806D01*
X61441194Y-54675866D01*
G37*
G36*
X63911194Y-54675866D02*
G01*
X63911194Y-54714134D01*
X63900355Y-54730355D01*
X63595355Y-55035355D01*
X63579134Y-55046194D01*
X63540866Y-55046194D01*
X63513806Y-55019134D01*
X63513806Y-54980866D01*
X63524645Y-54964645D01*
X63829645Y-54659645D01*
X63845866Y-54648806D01*
X63884134Y-54648806D01*
X63911194Y-54675866D01*
G37*
G36*
X66381194Y-54675866D02*
G01*
X66381194Y-54714134D01*
X66370355Y-54730355D01*
X66065355Y-55035355D01*
X66049134Y-55046194D01*
X66010866Y-55046194D01*
X65983806Y-55019134D01*
X65983806Y-54980866D01*
X65994645Y-54964645D01*
X66299645Y-54659645D01*
X66315866Y-54648806D01*
X66354134Y-54648806D01*
X66381194Y-54675866D01*
G37*
G36*
X75704763Y-47822297D02*
G01*
X75704763Y-47860565D01*
X75693924Y-47876786D01*
X73347228Y-50223481D01*
X73347226Y-50223485D01*
X68535355Y-55035355D01*
X68519134Y-55046194D01*
X68480866Y-55046194D01*
X68453806Y-55019134D01*
X68453806Y-54980866D01*
X68464645Y-54964645D01*
X73276515Y-50152774D01*
X73276518Y-50152771D01*
X75623214Y-47806076D01*
X75639435Y-47795237D01*
X75677703Y-47795237D01*
X75704763Y-47822297D01*
G37*
G36*
X75828065Y-50168995D02*
G01*
X75828065Y-50207263D01*
X75817226Y-50223485D01*
X71005355Y-55035355D01*
X70989134Y-55046194D01*
X70950866Y-55046194D01*
X70923806Y-55019134D01*
X70923806Y-54980866D01*
X70934645Y-54964645D01*
X75746515Y-50152774D01*
X75762737Y-50141935D01*
X75801005Y-50141935D01*
X75828065Y-50168995D01*
G37*
G36*
X78298065Y-50168995D02*
G01*
X78298065Y-50207263D01*
X78287226Y-50223485D01*
X73475355Y-55035355D01*
X73459134Y-55046194D01*
X73420866Y-55046194D01*
X73393806Y-55019134D01*
X73393806Y-54980866D01*
X73404645Y-54964645D01*
X78216515Y-50152774D01*
X78232737Y-50141935D01*
X78271005Y-50141935D01*
X78298065Y-50168995D01*
G37*
G36*
X80768065Y-50168995D02*
G01*
X80768065Y-50207263D01*
X80757226Y-50223485D01*
X75945355Y-55035355D01*
X75929134Y-55046194D01*
X75890866Y-55046194D01*
X75863806Y-55019134D01*
X75863806Y-54980866D01*
X75874645Y-54964645D01*
X80686515Y-50152774D01*
X80702737Y-50141935D01*
X80741005Y-50141935D01*
X80768065Y-50168995D01*
G37*
G36*
X83238065Y-50168995D02*
G01*
X83238065Y-50207263D01*
X83227226Y-50223485D01*
X78415355Y-55035355D01*
X78399134Y-55046194D01*
X78360866Y-55046194D01*
X78333806Y-55019134D01*
X78333806Y-54980866D01*
X78344645Y-54964645D01*
X83156515Y-50152774D01*
X83172737Y-50141935D01*
X83211005Y-50141935D01*
X83238065Y-50168995D01*
G37*
G36*
X85708065Y-50168995D02*
G01*
X85708065Y-50207263D01*
X85697226Y-50223485D01*
X80885355Y-55035355D01*
X80869134Y-55046194D01*
X80830866Y-55046194D01*
X80803806Y-55019134D01*
X80803806Y-54980866D01*
X80814645Y-54964645D01*
X85626515Y-50152774D01*
X85642737Y-50141935D01*
X85681005Y-50141935D01*
X85708065Y-50168995D01*
G37*
G36*
X88178065Y-50168995D02*
G01*
X88178065Y-50207263D01*
X88167226Y-50223485D01*
X83355355Y-55035355D01*
X83339134Y-55046194D01*
X83300866Y-55046194D01*
X83273806Y-55019134D01*
X83273806Y-54980866D01*
X83284645Y-54964645D01*
X88096515Y-50152774D01*
X88112737Y-50141935D01*
X88151005Y-50141935D01*
X88178065Y-50168995D01*
G37*
G36*
X90648065Y-50168995D02*
G01*
X90648065Y-50207263D01*
X90637226Y-50223485D01*
X85825355Y-55035355D01*
X85809134Y-55046194D01*
X85770866Y-55046194D01*
X85743806Y-55019134D01*
X85743806Y-54980866D01*
X85754645Y-54964645D01*
X90566515Y-50152774D01*
X90582737Y-50141935D01*
X90621005Y-50141935D01*
X90648065Y-50168995D01*
G37*
G36*
X93118065Y-50168995D02*
G01*
X93118065Y-50207263D01*
X93107226Y-50223485D01*
X88295355Y-55035355D01*
X88279134Y-55046194D01*
X88240866Y-55046194D01*
X88213806Y-55019134D01*
X88213806Y-54980866D01*
X88224645Y-54964645D01*
X93036515Y-50152774D01*
X93052737Y-50141935D01*
X93091005Y-50141935D01*
X93118065Y-50168995D01*
G37*
G36*
X95588065Y-50168995D02*
G01*
X95588065Y-50207263D01*
X95577226Y-50223485D01*
X90765355Y-55035355D01*
X90749134Y-55046194D01*
X90710866Y-55046194D01*
X90683806Y-55019134D01*
X90683806Y-54980866D01*
X90694645Y-54964645D01*
X95506515Y-50152774D01*
X95522737Y-50141935D01*
X95561005Y-50141935D01*
X95588065Y-50168995D01*
G37*
G36*
X98058065Y-50168995D02*
G01*
X98058065Y-50207263D01*
X98047226Y-50223485D01*
X93235355Y-55035355D01*
X93219134Y-55046194D01*
X93180866Y-55046194D01*
X93153806Y-55019134D01*
X93153806Y-54980866D01*
X93164645Y-54964645D01*
X97976515Y-50152774D01*
X97992737Y-50141935D01*
X98031005Y-50141935D01*
X98058065Y-50168995D01*
G37*
G36*
X100528065Y-50168995D02*
G01*
X100528065Y-50207263D01*
X100517226Y-50223485D01*
X95705355Y-55035355D01*
X95689134Y-55046194D01*
X95650866Y-55046194D01*
X95623806Y-55019134D01*
X95623806Y-54980866D01*
X95634645Y-54964645D01*
X100446515Y-50152774D01*
X100462737Y-50141935D01*
X100501005Y-50141935D01*
X100528065Y-50168995D01*
G37*
G36*
X102998065Y-50168995D02*
G01*
X102998065Y-50207263D01*
X102987226Y-50223485D01*
X98175355Y-55035355D01*
X98159134Y-55046194D01*
X98120866Y-55046194D01*
X98093806Y-55019134D01*
X98093806Y-54980866D01*
X98104645Y-54964645D01*
X102916515Y-50152774D01*
X102932737Y-50141935D01*
X102971005Y-50141935D01*
X102998065Y-50168995D01*
G37*
G36*
X105468065Y-50168995D02*
G01*
X105468065Y-50207263D01*
X105457226Y-50223485D01*
X100645355Y-55035355D01*
X100629134Y-55046194D01*
X100590866Y-55046194D01*
X100563806Y-55019134D01*
X100563806Y-54980866D01*
X100574645Y-54964645D01*
X105386515Y-50152774D01*
X105402737Y-50141935D01*
X105441005Y-50141935D01*
X105468065Y-50168995D01*
G37*
G36*
X107938065Y-50168995D02*
G01*
X107938065Y-50207263D01*
X107927226Y-50223485D01*
X103115355Y-55035355D01*
X103099134Y-55046194D01*
X103060866Y-55046194D01*
X103033806Y-55019134D01*
X103033806Y-54980866D01*
X103044645Y-54964645D01*
X107856515Y-50152774D01*
X107872737Y-50141935D01*
X107911005Y-50141935D01*
X107938065Y-50168995D01*
G37*
G36*
X110408065Y-50168995D02*
G01*
X110408065Y-50207263D01*
X110397226Y-50223485D01*
X105585355Y-55035355D01*
X105569134Y-55046194D01*
X105530866Y-55046194D01*
X105503806Y-55019134D01*
X105503806Y-54980866D01*
X105514645Y-54964645D01*
X110326515Y-50152774D01*
X110342737Y-50141935D01*
X110381005Y-50141935D01*
X110408065Y-50168995D01*
G37*
G36*
X112878065Y-50168995D02*
G01*
X112878065Y-50207263D01*
X112867226Y-50223485D01*
X108055355Y-55035355D01*
X108039134Y-55046194D01*
X108000866Y-55046194D01*
X107973806Y-55019134D01*
X107973806Y-54980866D01*
X107984645Y-54964645D01*
X112796515Y-50152774D01*
X112812737Y-50141935D01*
X112851005Y-50141935D01*
X112878065Y-50168995D01*
G37*
G36*
X123036194Y-42480866D02*
G01*
X123036194Y-42519134D01*
X123025355Y-42535355D01*
X118783347Y-46777362D01*
X118783345Y-46777366D01*
X110525355Y-55035355D01*
X110509134Y-55046194D01*
X110470866Y-55046194D01*
X110443806Y-55019134D01*
X110443806Y-54980866D01*
X110454645Y-54964645D01*
X118712634Y-46706655D01*
X118712637Y-46706652D01*
X122954645Y-42464645D01*
X122970866Y-42453806D01*
X123009134Y-42453806D01*
X123036194Y-42480866D01*
G37*
G36*
X123626194Y-44360865D02*
G01*
X123626194Y-44399134D01*
X123615356Y-44415355D01*
X121253347Y-46777362D01*
X121253345Y-46777366D01*
X112995355Y-55035355D01*
X112979134Y-55046194D01*
X112940866Y-55046194D01*
X112913806Y-55019134D01*
X112913806Y-54980866D01*
X112924645Y-54964645D01*
X121182634Y-46706655D01*
X121182637Y-46706652D01*
X123544645Y-44344644D01*
X123560866Y-44333806D01*
X123599135Y-44333806D01*
X123626194Y-44360865D01*
G37*
G36*
X122694420Y-47762640D02*
G01*
X122694420Y-47800908D01*
X122683581Y-47817129D01*
X115465355Y-55035355D01*
X115449134Y-55046194D01*
X115410866Y-55046194D01*
X115383806Y-55019134D01*
X115383806Y-54980866D01*
X115394645Y-54964645D01*
X122612871Y-47746419D01*
X122629092Y-47735580D01*
X122667360Y-47735580D01*
X122694420Y-47762640D01*
G37*
G36*
X122694420Y-50232639D02*
G01*
X122694420Y-50270908D01*
X122683582Y-50287129D01*
X117935355Y-55035355D01*
X117919134Y-55046194D01*
X117880866Y-55046194D01*
X117853806Y-55019134D01*
X117853806Y-54980866D01*
X117864645Y-54964645D01*
X122612871Y-50216418D01*
X122629092Y-50205580D01*
X122667361Y-50205580D01*
X122694420Y-50232639D01*
G37*
G36*
X123626194Y-51770865D02*
G01*
X123626194Y-51809134D01*
X123615356Y-51825355D01*
X120405355Y-55035355D01*
X120389134Y-55046194D01*
X120350866Y-55046194D01*
X120323806Y-55019134D01*
X120323806Y-54980866D01*
X120334645Y-54964645D01*
X123544645Y-51754644D01*
X123560866Y-51743806D01*
X123599135Y-51743806D01*
X123626194Y-51770865D01*
G37*
G36*
X123626194Y-54240866D02*
G01*
X123626194Y-54279134D01*
X123615355Y-54295355D01*
X122875355Y-55035355D01*
X122859134Y-55046194D01*
X122820866Y-55046194D01*
X122793806Y-55019134D01*
X122793806Y-54980866D01*
X122804645Y-54964645D01*
X123544645Y-54224645D01*
X123560866Y-54213806D01*
X123599134Y-54213806D01*
X123626194Y-54240866D01*
G37*
G36*
X125661194Y-54675866D02*
G01*
X125661194Y-54714134D01*
X125650355Y-54730355D01*
X125345355Y-55035355D01*
X125329134Y-55046194D01*
X125290866Y-55046194D01*
X125263806Y-55019134D01*
X125263806Y-54980866D01*
X125274645Y-54964645D01*
X125579645Y-54659645D01*
X125595866Y-54648806D01*
X125634134Y-54648806D01*
X125661194Y-54675866D01*
G37*
G36*
X128131194Y-54675866D02*
G01*
X128131194Y-54714134D01*
X128120355Y-54730355D01*
X127815355Y-55035355D01*
X127799134Y-55046194D01*
X127760866Y-55046194D01*
X127733806Y-55019134D01*
X127733806Y-54980866D01*
X127744645Y-54964645D01*
X128049645Y-54659645D01*
X128065866Y-54648806D01*
X128104134Y-54648806D01*
X128131194Y-54675866D01*
G37*
G36*
X130601194Y-54675866D02*
G01*
X130601194Y-54714134D01*
X130590355Y-54730355D01*
X130285355Y-55035355D01*
X130269134Y-55046194D01*
X130230866Y-55046194D01*
X130203806Y-55019134D01*
X130203806Y-54980866D01*
X130214645Y-54964645D01*
X130519645Y-54659645D01*
X130535866Y-54648806D01*
X130574134Y-54648806D01*
X130601194Y-54675866D01*
G37*
G36*
X133071194Y-54675866D02*
G01*
X133071194Y-54714134D01*
X133060355Y-54730355D01*
X132755355Y-55035355D01*
X132739134Y-55046194D01*
X132700866Y-55046194D01*
X132673806Y-55019134D01*
X132673806Y-54980866D01*
X132684645Y-54964645D01*
X132989645Y-54659645D01*
X133005866Y-54648806D01*
X133044134Y-54648806D01*
X133071194Y-54675866D01*
G37*
G36*
X135541194Y-54675866D02*
G01*
X135541194Y-54714134D01*
X135530355Y-54730355D01*
X135225355Y-55035355D01*
X135209134Y-55046194D01*
X135170866Y-55046194D01*
X135143806Y-55019134D01*
X135143806Y-54980866D01*
X135154645Y-54964645D01*
X135459645Y-54659645D01*
X135475866Y-54648806D01*
X135514134Y-54648806D01*
X135541194Y-54675866D01*
G37*
G36*
X138011194Y-54675866D02*
G01*
X138011194Y-54714134D01*
X138000355Y-54730355D01*
X137695355Y-55035355D01*
X137679134Y-55046194D01*
X137640866Y-55046194D01*
X137613806Y-55019134D01*
X137613806Y-54980866D01*
X137624645Y-54964645D01*
X137929645Y-54659645D01*
X137945866Y-54648806D01*
X137984134Y-54648806D01*
X138011194Y-54675866D01*
G37*
G36*
X140481194Y-54675866D02*
G01*
X140481194Y-54714134D01*
X140470355Y-54730355D01*
X140165355Y-55035355D01*
X140149134Y-55046194D01*
X140110866Y-55046194D01*
X140083806Y-55019134D01*
X140083806Y-54980866D01*
X140094645Y-54964645D01*
X140399645Y-54659645D01*
X140415866Y-54648806D01*
X140454134Y-54648806D01*
X140481194Y-54675866D01*
G37*
G36*
X142951194Y-54675866D02*
G01*
X142951194Y-54714134D01*
X142940355Y-54730355D01*
X142635355Y-55035355D01*
X142619134Y-55046194D01*
X142580866Y-55046194D01*
X142553806Y-55019134D01*
X142553806Y-54980866D01*
X142564645Y-54964645D01*
X142869645Y-54659645D01*
X142885866Y-54648806D01*
X142924134Y-54648806D01*
X142951194Y-54675866D01*
G37*
G36*
X145626194Y-54470866D02*
G01*
X145626194Y-54509134D01*
X145615355Y-54525355D01*
X145455355Y-54685355D01*
X145439134Y-54696194D01*
X145421194Y-54696194D01*
X145421194Y-54714134D01*
X145410355Y-54730355D01*
X145105355Y-55035355D01*
X145089134Y-55046194D01*
X145050866Y-55046194D01*
X145023806Y-55019134D01*
X145023806Y-54980866D01*
X145034645Y-54964645D01*
X145339645Y-54659645D01*
X145355866Y-54648806D01*
X145373806Y-54648806D01*
X145373806Y-54630866D01*
X145384645Y-54614645D01*
X145544645Y-54454645D01*
X145560866Y-54443806D01*
X145599134Y-54443806D01*
X145626194Y-54470866D01*
G37*
G36*
X147891194Y-54675866D02*
G01*
X147891194Y-54714134D01*
X147880355Y-54730355D01*
X147575355Y-55035355D01*
X147559134Y-55046194D01*
X147520866Y-55046194D01*
X147493806Y-55019134D01*
X147493806Y-54980866D01*
X147504645Y-54964645D01*
X147809645Y-54659645D01*
X147825866Y-54648806D01*
X147864134Y-54648806D01*
X147891194Y-54675866D01*
G37*
G36*
X150361194Y-54675866D02*
G01*
X150361194Y-54714134D01*
X150350355Y-54730355D01*
X150045355Y-55035355D01*
X150029134Y-55046194D01*
X149990866Y-55046194D01*
X149963806Y-55019134D01*
X149963806Y-54980866D01*
X149974645Y-54964645D01*
X150279645Y-54659645D01*
X150295866Y-54648806D01*
X150334134Y-54648806D01*
X150361194Y-54675866D01*
G37*
G36*
X152831194Y-54675866D02*
G01*
X152831194Y-54714134D01*
X152820355Y-54730355D01*
X152515355Y-55035355D01*
X152499134Y-55046194D01*
X152460866Y-55046194D01*
X152433806Y-55019134D01*
X152433806Y-54980866D01*
X152444645Y-54964645D01*
X152749645Y-54659645D01*
X152765866Y-54648806D01*
X152804134Y-54648806D01*
X152831194Y-54675866D01*
G37*
G36*
X155301194Y-54675866D02*
G01*
X155301194Y-54714134D01*
X155290355Y-54730355D01*
X154985355Y-55035355D01*
X154969134Y-55046194D01*
X154930866Y-55046194D01*
X154903806Y-55019134D01*
X154903806Y-54980866D01*
X154914645Y-54964645D01*
X155219645Y-54659645D01*
X155235866Y-54648806D01*
X155274134Y-54648806D01*
X155301194Y-54675866D01*
G37*
G36*
X165204763Y-47242297D02*
G01*
X165204763Y-47280565D01*
X165193924Y-47296786D01*
X161767228Y-50723481D01*
X161767226Y-50723485D01*
X157455355Y-55035355D01*
X157439134Y-55046194D01*
X157400866Y-55046194D01*
X157373806Y-55019134D01*
X157373806Y-54980866D01*
X157384645Y-54964645D01*
X161696515Y-50652774D01*
X161696518Y-50652771D01*
X165123214Y-47226076D01*
X165139435Y-47215237D01*
X165177703Y-47215237D01*
X165204763Y-47242297D01*
G37*
G36*
X165204763Y-49712297D02*
G01*
X165204763Y-49750566D01*
X165193924Y-49766787D01*
X164237228Y-50723481D01*
X164237226Y-50723485D01*
X159925355Y-55035355D01*
X159909134Y-55046194D01*
X159870866Y-55046194D01*
X159843806Y-55019134D01*
X159843806Y-54980866D01*
X159854645Y-54964645D01*
X164166515Y-50652774D01*
X164166518Y-50652771D01*
X165123213Y-49696076D01*
X165139434Y-49685237D01*
X165177703Y-49685237D01*
X165204763Y-49712297D01*
G37*
G36*
X166718065Y-50668995D02*
G01*
X166718065Y-50707264D01*
X166707226Y-50723485D01*
X162395355Y-55035355D01*
X162379134Y-55046194D01*
X162340866Y-55046194D01*
X162313806Y-55019134D01*
X162313806Y-54980866D01*
X162324645Y-54964645D01*
X166636515Y-50652774D01*
X166652736Y-50641935D01*
X166691005Y-50641935D01*
X166718065Y-50668995D01*
G37*
G36*
X169188065Y-50668995D02*
G01*
X169188065Y-50707264D01*
X169177226Y-50723485D01*
X164865355Y-55035355D01*
X164849134Y-55046194D01*
X164810866Y-55046194D01*
X164783806Y-55019134D01*
X164783806Y-54980866D01*
X164794645Y-54964645D01*
X169106515Y-50652774D01*
X169122736Y-50641935D01*
X169161005Y-50641935D01*
X169188065Y-50668995D01*
G37*
G36*
X171658065Y-50668995D02*
G01*
X171658065Y-50707264D01*
X171647226Y-50723485D01*
X167335355Y-55035355D01*
X167319134Y-55046194D01*
X167280866Y-55046194D01*
X167253806Y-55019134D01*
X167253806Y-54980866D01*
X167264645Y-54964645D01*
X171576515Y-50652774D01*
X171592736Y-50641935D01*
X171631005Y-50641935D01*
X171658065Y-50668995D01*
G37*
G36*
X174128065Y-50668995D02*
G01*
X174128065Y-50707264D01*
X174117226Y-50723485D01*
X169805355Y-55035355D01*
X169789134Y-55046194D01*
X169750866Y-55046194D01*
X169723806Y-55019134D01*
X169723806Y-54980866D01*
X169734645Y-54964645D01*
X174046515Y-50652774D01*
X174062736Y-50641935D01*
X174101005Y-50641935D01*
X174128065Y-50668995D01*
G37*
G36*
X176598065Y-50668995D02*
G01*
X176598065Y-50707264D01*
X176587226Y-50723485D01*
X172275355Y-55035355D01*
X172259134Y-55046194D01*
X172220866Y-55046194D01*
X172193806Y-55019134D01*
X172193806Y-54980866D01*
X172204645Y-54964645D01*
X176516515Y-50652774D01*
X176532736Y-50641935D01*
X176571005Y-50641935D01*
X176598065Y-50668995D01*
G37*
G36*
X179068065Y-50668995D02*
G01*
X179068065Y-50707264D01*
X179057226Y-50723485D01*
X174745355Y-55035355D01*
X174729134Y-55046194D01*
X174690866Y-55046194D01*
X174663806Y-55019134D01*
X174663806Y-54980866D01*
X174674645Y-54964645D01*
X178986515Y-50652774D01*
X179002736Y-50641935D01*
X179041005Y-50641935D01*
X179068065Y-50668995D01*
G37*
G36*
X181538065Y-50668995D02*
G01*
X181538065Y-50707264D01*
X181527226Y-50723485D01*
X177215355Y-55035355D01*
X177199134Y-55046194D01*
X177160866Y-55046194D01*
X177133806Y-55019134D01*
X177133806Y-54980866D01*
X177144645Y-54964645D01*
X181456515Y-50652774D01*
X181472736Y-50641935D01*
X181511005Y-50641935D01*
X181538065Y-50668995D01*
G37*
G36*
X184008065Y-50668995D02*
G01*
X184008065Y-50707264D01*
X183997226Y-50723485D01*
X179685355Y-55035355D01*
X179669134Y-55046194D01*
X179630866Y-55046194D01*
X179603806Y-55019134D01*
X179603806Y-54980866D01*
X179614645Y-54964645D01*
X183926515Y-50652774D01*
X183942736Y-50641935D01*
X183981005Y-50641935D01*
X184008065Y-50668995D01*
G37*
G36*
X186478065Y-50668995D02*
G01*
X186478065Y-50707264D01*
X186467226Y-50723485D01*
X182155355Y-55035355D01*
X182139134Y-55046194D01*
X182100866Y-55046194D01*
X182073806Y-55019134D01*
X182073806Y-54980866D01*
X182084645Y-54964645D01*
X186396515Y-50652774D01*
X186412736Y-50641935D01*
X186451005Y-50641935D01*
X186478065Y-50668995D01*
G37*
G36*
X188948065Y-50668995D02*
G01*
X188948065Y-50707264D01*
X188937226Y-50723485D01*
X184625355Y-55035355D01*
X184609134Y-55046194D01*
X184570866Y-55046194D01*
X184543806Y-55019134D01*
X184543806Y-54980866D01*
X184554645Y-54964645D01*
X188866515Y-50652774D01*
X188882736Y-50641935D01*
X188921005Y-50641935D01*
X188948065Y-50668995D01*
G37*
G36*
X191418065Y-50668995D02*
G01*
X191418065Y-50707264D01*
X191407226Y-50723485D01*
X187095355Y-55035355D01*
X187079134Y-55046194D01*
X187040866Y-55046194D01*
X187013806Y-55019134D01*
X187013806Y-54980866D01*
X187024645Y-54964645D01*
X191336515Y-50652774D01*
X191352736Y-50641935D01*
X191391005Y-50641935D01*
X191418065Y-50668995D01*
G37*
G36*
X193888065Y-50668995D02*
G01*
X193888065Y-50707264D01*
X193877226Y-50723485D01*
X189565355Y-55035355D01*
X189549134Y-55046194D01*
X189510866Y-55046194D01*
X189483806Y-55019134D01*
X189483806Y-54980866D01*
X189494645Y-54964645D01*
X193806515Y-50652774D01*
X193822736Y-50641935D01*
X193861005Y-50641935D01*
X193888065Y-50668995D01*
G37*
G36*
X196358065Y-50668995D02*
G01*
X196358065Y-50707264D01*
X196347226Y-50723485D01*
X192035355Y-55035355D01*
X192019134Y-55046194D01*
X191980866Y-55046194D01*
X191953806Y-55019134D01*
X191953806Y-54980866D01*
X191964645Y-54964645D01*
X196276515Y-50652774D01*
X196292736Y-50641935D01*
X196331005Y-50641935D01*
X196358065Y-50668995D01*
G37*
G36*
X198828065Y-50668995D02*
G01*
X198828065Y-50707264D01*
X198817226Y-50723485D01*
X194505355Y-55035355D01*
X194489134Y-55046194D01*
X194450866Y-55046194D01*
X194423806Y-55019134D01*
X194423806Y-54980866D01*
X194434645Y-54964645D01*
X198746515Y-50652774D01*
X198762736Y-50641935D01*
X198801005Y-50641935D01*
X198828065Y-50668995D01*
G37*
G36*
X201298065Y-50668995D02*
G01*
X201298065Y-50707264D01*
X201287226Y-50723485D01*
X196975355Y-55035355D01*
X196959134Y-55046194D01*
X196920866Y-55046194D01*
X196893806Y-55019134D01*
X196893806Y-54980866D01*
X196904645Y-54964645D01*
X201216515Y-50652774D01*
X201232736Y-50641935D01*
X201271005Y-50641935D01*
X201298065Y-50668995D01*
G37*
G36*
X211956194Y-42480866D02*
G01*
X211956194Y-42519134D01*
X211945355Y-42535355D01*
X207703347Y-46777362D01*
X207703345Y-46777366D01*
X199445355Y-55035355D01*
X199429134Y-55046194D01*
X199390866Y-55046194D01*
X199363806Y-55019134D01*
X199363806Y-54980866D01*
X199374645Y-54964645D01*
X207632634Y-46706655D01*
X207632637Y-46706652D01*
X211874645Y-42464645D01*
X211890866Y-42453806D01*
X211929134Y-42453806D01*
X211956194Y-42480866D01*
G37*
G36*
X214426194Y-42480866D02*
G01*
X214426194Y-42519134D01*
X214415355Y-42535355D01*
X210173347Y-46777362D01*
X210173345Y-46777366D01*
X201915355Y-55035355D01*
X201899134Y-55046194D01*
X201860866Y-55046194D01*
X201833806Y-55019134D01*
X201833806Y-54980866D01*
X201844645Y-54964645D01*
X210102634Y-46706655D01*
X210102637Y-46706652D01*
X214344645Y-42464645D01*
X214360866Y-42453806D01*
X214399134Y-42453806D01*
X214426194Y-42480866D01*
G37*
G36*
X213626194Y-45750865D02*
G01*
X213626194Y-45789134D01*
X213615356Y-45805355D01*
X212643347Y-46777362D01*
X212643345Y-46777366D01*
X204385355Y-55035355D01*
X204369134Y-55046194D01*
X204330866Y-55046194D01*
X204303806Y-55019134D01*
X204303806Y-54980866D01*
X204314645Y-54964645D01*
X212572634Y-46706655D01*
X212572637Y-46706652D01*
X213544645Y-45734644D01*
X213560866Y-45723806D01*
X213599135Y-45723806D01*
X213626194Y-45750865D01*
G37*
G36*
X212694420Y-49152640D02*
G01*
X212694420Y-49190908D01*
X212683581Y-49207130D01*
X206855355Y-55035355D01*
X206839134Y-55046194D01*
X206800866Y-55046194D01*
X206773806Y-55019134D01*
X206773806Y-54980866D01*
X206784645Y-54964645D01*
X212612870Y-49136419D01*
X212629092Y-49125580D01*
X212667360Y-49125580D01*
X212694420Y-49152640D01*
G37*
G36*
X213077483Y-51239576D02*
G01*
X213077483Y-51277845D01*
X213066645Y-51294066D01*
X209325355Y-55035355D01*
X209309134Y-55046194D01*
X209270866Y-55046194D01*
X209243806Y-55019134D01*
X209243806Y-54980866D01*
X209254645Y-54964645D01*
X212995934Y-51223355D01*
X213012155Y-51212517D01*
X213050424Y-51212517D01*
X213077483Y-51239576D01*
G37*
G36*
X213626194Y-53160865D02*
G01*
X213626194Y-53199134D01*
X213615356Y-53215355D01*
X211795355Y-55035355D01*
X211779134Y-55046194D01*
X211740866Y-55046194D01*
X211713806Y-55019134D01*
X211713806Y-54980866D01*
X211724645Y-54964645D01*
X213544645Y-53144644D01*
X213560866Y-53133806D01*
X213599135Y-53133806D01*
X213626194Y-53160865D01*
G37*
G36*
X214581194Y-54675866D02*
G01*
X214581194Y-54714134D01*
X214570355Y-54730355D01*
X214265355Y-55035355D01*
X214249134Y-55046194D01*
X214210866Y-55046194D01*
X214183806Y-55019134D01*
X214183806Y-54980866D01*
X214194645Y-54964645D01*
X214499645Y-54659645D01*
X214515866Y-54648806D01*
X214554134Y-54648806D01*
X214581194Y-54675866D01*
G37*
G36*
X217051194Y-54675866D02*
G01*
X217051194Y-54714134D01*
X217040355Y-54730355D01*
X216735355Y-55035355D01*
X216719134Y-55046194D01*
X216680866Y-55046194D01*
X216653806Y-55019134D01*
X216653806Y-54980866D01*
X216664645Y-54964645D01*
X216969645Y-54659645D01*
X216985866Y-54648806D01*
X217024134Y-54648806D01*
X217051194Y-54675866D01*
G37*
G36*
X219521194Y-54675866D02*
G01*
X219521194Y-54714134D01*
X219510355Y-54730355D01*
X219205355Y-55035355D01*
X219189134Y-55046194D01*
X219150866Y-55046194D01*
X219123806Y-55019134D01*
X219123806Y-54980866D01*
X219134645Y-54964645D01*
X219439645Y-54659645D01*
X219455866Y-54648806D01*
X219494134Y-54648806D01*
X219521194Y-54675866D01*
G37*
G36*
X221991194Y-54675866D02*
G01*
X221991194Y-54714134D01*
X221980355Y-54730355D01*
X221675355Y-55035355D01*
X221659134Y-55046194D01*
X221620866Y-55046194D01*
X221593806Y-55019134D01*
X221593806Y-54980866D01*
X221604645Y-54964645D01*
X221909645Y-54659645D01*
X221925866Y-54648806D01*
X221964134Y-54648806D01*
X221991194Y-54675866D01*
G37*
G36*
X224626194Y-54510866D02*
G01*
X224626194Y-54549134D01*
X224615355Y-54565355D01*
X224455355Y-54725355D01*
X224452357Y-54727357D01*
X224450355Y-54730355D01*
X224145355Y-55035355D01*
X224129134Y-55046194D01*
X224090866Y-55046194D01*
X224063806Y-55019134D01*
X224063806Y-54980866D01*
X224074645Y-54964645D01*
X224379645Y-54659645D01*
X224382642Y-54657642D01*
X224384645Y-54654645D01*
X224544645Y-54494645D01*
X224560866Y-54483806D01*
X224599134Y-54483806D01*
X224626194Y-54510866D01*
G37*
G36*
X226931194Y-54675866D02*
G01*
X226931194Y-54714134D01*
X226920355Y-54730355D01*
X226615355Y-55035355D01*
X226599134Y-55046194D01*
X226560866Y-55046194D01*
X226533806Y-55019134D01*
X226533806Y-54980866D01*
X226544645Y-54964645D01*
X226849645Y-54659645D01*
X226865866Y-54648806D01*
X226904134Y-54648806D01*
X226931194Y-54675866D01*
G37*
G36*
X229401194Y-54675866D02*
G01*
X229401194Y-54714134D01*
X229390355Y-54730355D01*
X229085355Y-55035355D01*
X229069134Y-55046194D01*
X229030866Y-55046194D01*
X229003806Y-55019134D01*
X229003806Y-54980866D01*
X229014645Y-54964645D01*
X229319645Y-54659645D01*
X229335866Y-54648806D01*
X229374134Y-54648806D01*
X229401194Y-54675866D01*
G37*
G36*
X231871194Y-54675866D02*
G01*
X231871194Y-54714134D01*
X231860355Y-54730355D01*
X231555355Y-55035355D01*
X231539134Y-55046194D01*
X231500866Y-55046194D01*
X231473806Y-55019134D01*
X231473806Y-54980866D01*
X231484645Y-54964645D01*
X231789645Y-54659645D01*
X231805866Y-54648806D01*
X231844134Y-54648806D01*
X231871194Y-54675866D01*
G37*
G36*
X234341194Y-54675866D02*
G01*
X234341194Y-54714134D01*
X234330355Y-54730355D01*
X234025355Y-55035355D01*
X234009134Y-55046194D01*
X233970866Y-55046194D01*
X233943806Y-55019134D01*
X233943806Y-54980866D01*
X233954645Y-54964645D01*
X234259645Y-54659645D01*
X234275866Y-54648806D01*
X234314134Y-54648806D01*
X234341194Y-54675866D01*
G37*
G36*
X236811194Y-54675866D02*
G01*
X236811194Y-54714134D01*
X236800355Y-54730355D01*
X236495355Y-55035355D01*
X236479134Y-55046194D01*
X236440866Y-55046194D01*
X236413806Y-55019134D01*
X236413806Y-54980866D01*
X236424645Y-54964645D01*
X236729645Y-54659645D01*
X236745866Y-54648806D01*
X236784134Y-54648806D01*
X236811194Y-54675866D01*
G37*
G36*
X239281194Y-54675866D02*
G01*
X239281194Y-54714134D01*
X239270355Y-54730355D01*
X238965355Y-55035355D01*
X238949134Y-55046194D01*
X238910866Y-55046194D01*
X238883806Y-55019134D01*
X238883806Y-54980866D01*
X238894645Y-54964645D01*
X239199645Y-54659645D01*
X239215866Y-54648806D01*
X239254134Y-54648806D01*
X239281194Y-54675866D01*
G37*
G36*
X241751194Y-54675866D02*
G01*
X241751194Y-54714134D01*
X241740355Y-54730355D01*
X241435355Y-55035355D01*
X241419134Y-55046194D01*
X241380866Y-55046194D01*
X241353806Y-55019134D01*
X241353806Y-54980866D01*
X241364645Y-54964645D01*
X241669645Y-54659645D01*
X241685866Y-54648806D01*
X241724134Y-54648806D01*
X241751194Y-54675866D01*
G37*
G36*
X244221194Y-54675866D02*
G01*
X244221194Y-54714134D01*
X244210355Y-54730355D01*
X243905355Y-55035355D01*
X243889134Y-55046194D01*
X243850866Y-55046194D01*
X243823806Y-55019134D01*
X243823806Y-54980866D01*
X243834645Y-54964645D01*
X244139645Y-54659645D01*
X244155866Y-54648806D01*
X244194134Y-54648806D01*
X244221194Y-54675866D01*
G37*
G36*
X250698065Y-50668995D02*
G01*
X250698065Y-50707264D01*
X250687226Y-50723485D01*
X246375355Y-55035355D01*
X246359134Y-55046194D01*
X246320866Y-55046194D01*
X246293806Y-55019134D01*
X246293806Y-54980866D01*
X246304645Y-54964645D01*
X250616515Y-50652774D01*
X250632736Y-50641935D01*
X250671005Y-50641935D01*
X250698065Y-50668995D01*
G37*
G36*
X253168065Y-50668995D02*
G01*
X253168065Y-50707264D01*
X253157226Y-50723485D01*
X248845355Y-55035355D01*
X248829134Y-55046194D01*
X248790866Y-55046194D01*
X248763806Y-55019134D01*
X248763806Y-54980866D01*
X248774645Y-54964645D01*
X253086515Y-50652774D01*
X253102736Y-50641935D01*
X253141005Y-50641935D01*
X253168065Y-50668995D01*
G37*
G36*
X255638065Y-50668995D02*
G01*
X255638065Y-50707264D01*
X255627226Y-50723485D01*
X251315355Y-55035355D01*
X251299134Y-55046194D01*
X251260866Y-55046194D01*
X251233806Y-55019134D01*
X251233806Y-54980866D01*
X251244645Y-54964645D01*
X255556515Y-50652774D01*
X255572736Y-50641935D01*
X255611005Y-50641935D01*
X255638065Y-50668995D01*
G37*
G36*
X258108065Y-50668995D02*
G01*
X258108065Y-50707264D01*
X258097226Y-50723485D01*
X253785355Y-55035355D01*
X253769134Y-55046194D01*
X253730866Y-55046194D01*
X253703806Y-55019134D01*
X253703806Y-54980866D01*
X253714645Y-54964645D01*
X258026515Y-50652774D01*
X258042736Y-50641935D01*
X258081005Y-50641935D01*
X258108065Y-50668995D01*
G37*
G36*
X260578065Y-50668995D02*
G01*
X260578065Y-50707264D01*
X260567226Y-50723485D01*
X256255355Y-55035355D01*
X256239134Y-55046194D01*
X256200866Y-55046194D01*
X256173806Y-55019134D01*
X256173806Y-54980866D01*
X256184645Y-54964645D01*
X260496515Y-50652774D01*
X260512736Y-50641935D01*
X260551005Y-50641935D01*
X260578065Y-50668995D01*
G37*
G36*
X263048065Y-50668995D02*
G01*
X263048065Y-50707264D01*
X263037226Y-50723485D01*
X258725355Y-55035355D01*
X258709134Y-55046194D01*
X258670866Y-55046194D01*
X258643806Y-55019134D01*
X258643806Y-54980866D01*
X258654645Y-54964645D01*
X262966515Y-50652774D01*
X262982736Y-50641935D01*
X263021005Y-50641935D01*
X263048065Y-50668995D01*
G37*
G36*
X265518065Y-50668995D02*
G01*
X265518065Y-50707264D01*
X265507226Y-50723485D01*
X261195355Y-55035355D01*
X261179134Y-55046194D01*
X261140866Y-55046194D01*
X261113806Y-55019134D01*
X261113806Y-54980866D01*
X261124645Y-54964645D01*
X265436515Y-50652774D01*
X265452736Y-50641935D01*
X265491005Y-50641935D01*
X265518065Y-50668995D01*
G37*
G36*
X267988065Y-50668995D02*
G01*
X267988065Y-50707264D01*
X267977226Y-50723485D01*
X263665355Y-55035355D01*
X263649134Y-55046194D01*
X263610866Y-55046194D01*
X263583806Y-55019134D01*
X263583806Y-54980866D01*
X263594645Y-54964645D01*
X267906515Y-50652774D01*
X267922736Y-50641935D01*
X267961005Y-50641935D01*
X267988065Y-50668995D01*
G37*
G36*
X270458065Y-50668995D02*
G01*
X270458065Y-50707264D01*
X270447226Y-50723485D01*
X266135355Y-55035355D01*
X266119134Y-55046194D01*
X266080866Y-55046194D01*
X266053806Y-55019134D01*
X266053806Y-54980866D01*
X266064645Y-54964645D01*
X270376515Y-50652774D01*
X270392736Y-50641935D01*
X270431005Y-50641935D01*
X270458065Y-50668995D01*
G37*
G36*
X277046194Y-46550866D02*
G01*
X277046194Y-46589135D01*
X277035355Y-46605356D01*
X268605355Y-55035355D01*
X268589134Y-55046194D01*
X268550866Y-55046194D01*
X268523806Y-55019134D01*
X268523806Y-54980866D01*
X268534645Y-54964645D01*
X276964644Y-46534645D01*
X276980865Y-46523806D01*
X277019134Y-46523806D01*
X277046194Y-46550866D01*
G37*
G36*
X277046194Y-49020866D02*
G01*
X277046194Y-49059134D01*
X277035355Y-49075355D01*
X271075355Y-55035355D01*
X271059134Y-55046194D01*
X271020866Y-55046194D01*
X270993806Y-55019134D01*
X270993806Y-54980866D01*
X271004645Y-54964645D01*
X276964645Y-49004645D01*
X276980866Y-48993806D01*
X277019134Y-48993806D01*
X277046194Y-49020866D01*
G37*
G36*
X277046194Y-51490866D02*
G01*
X277046194Y-51529135D01*
X277035355Y-51545356D01*
X273545355Y-55035355D01*
X273529134Y-55046194D01*
X273490866Y-55046194D01*
X273463806Y-55019134D01*
X273463806Y-54980866D01*
X273474645Y-54964645D01*
X276964644Y-51474645D01*
X276980865Y-51463806D01*
X277019134Y-51463806D01*
X277046194Y-51490866D01*
G37*
G36*
X277046194Y-53960866D02*
G01*
X277046194Y-53999134D01*
X277035355Y-54015355D01*
X276015355Y-55035355D01*
X275999134Y-55046194D01*
X275960866Y-55046194D01*
X275933806Y-55019134D01*
X275933806Y-54980866D01*
X275944645Y-54964645D01*
X276964645Y-53944645D01*
X276980866Y-53933806D01*
X277019134Y-53933806D01*
X277046194Y-53960866D01*
G37*
G36*
X78576194Y-42480866D02*
G01*
X78576194Y-42519135D01*
X78565355Y-42535356D01*
X70877226Y-50223484D01*
X66455355Y-54645355D01*
X66439134Y-54656194D01*
X66400866Y-54656194D01*
X66373806Y-54629134D01*
X66373806Y-54590866D01*
X66384645Y-54574645D01*
X70806516Y-50152774D01*
X78494644Y-42464645D01*
X78510865Y-42453806D01*
X78549134Y-42453806D01*
X78576194Y-42480866D01*
G37*
G36*
X44626194Y-54200866D02*
G01*
X44626194Y-54239134D01*
X44615355Y-54255355D01*
X44455355Y-54415355D01*
X44439134Y-54426194D01*
X44400866Y-54426194D01*
X44373806Y-54399134D01*
X44373806Y-54360866D01*
X44384645Y-54344645D01*
X44544645Y-54184645D01*
X44560866Y-54173806D01*
X44599134Y-54173806D01*
X44626194Y-54200866D01*
G37*
G36*
X32767483Y-51239577D02*
G01*
X32767483Y-51277845D01*
X32756644Y-51294066D01*
X30035355Y-54015355D01*
X30019134Y-54026194D01*
X29980866Y-54026194D01*
X29953806Y-53999134D01*
X29953806Y-53960866D01*
X29964645Y-53944645D01*
X32685934Y-51223356D01*
X32702155Y-51212517D01*
X32740423Y-51212517D01*
X32767483Y-51239577D01*
G37*
G36*
X235626194Y-53390866D02*
G01*
X235626194Y-53429134D01*
X235615355Y-53445355D01*
X235455355Y-53605355D01*
X235439134Y-53616194D01*
X235400866Y-53616194D01*
X235373806Y-53589134D01*
X235373806Y-53550866D01*
X235384645Y-53534645D01*
X235544645Y-53374645D01*
X235560866Y-53363806D01*
X235599134Y-53363806D01*
X235626194Y-53390866D01*
G37*
G36*
X167496194Y-42480866D02*
G01*
X167496194Y-42519134D01*
X167485355Y-42535355D01*
X163243345Y-46777365D01*
X159297229Y-50723480D01*
X159297227Y-50723484D01*
X156455355Y-53565355D01*
X156439134Y-53576194D01*
X156400866Y-53576194D01*
X156373806Y-53549134D01*
X156373806Y-53510866D01*
X156384645Y-53494645D01*
X159226516Y-50652773D01*
X159226519Y-50652770D01*
X163172635Y-46706655D01*
X163172636Y-46706654D01*
X167414645Y-42464645D01*
X167430866Y-42453806D01*
X167469134Y-42453806D01*
X167496194Y-42480866D01*
G37*
G36*
X134626194Y-53120866D02*
G01*
X134626194Y-53159134D01*
X134615355Y-53175355D01*
X134455355Y-53335355D01*
X134439134Y-53346194D01*
X134400866Y-53346194D01*
X134373806Y-53319134D01*
X134373806Y-53280866D01*
X134384645Y-53264645D01*
X134544645Y-53104645D01*
X134560866Y-53093806D01*
X134599134Y-53093806D01*
X134626194Y-53120866D01*
G37*
G36*
X55626194Y-53080866D02*
G01*
X55626194Y-53119134D01*
X55615355Y-53135355D01*
X55455355Y-53295355D01*
X55439134Y-53306194D01*
X55400866Y-53306194D01*
X55373806Y-53279134D01*
X55373806Y-53240866D01*
X55384645Y-53224645D01*
X55544645Y-53064645D01*
X55560866Y-53053806D01*
X55599134Y-53053806D01*
X55626194Y-53080866D01*
G37*
G36*
X250585716Y-48311344D02*
G01*
X250585716Y-48349612D01*
X250574877Y-48365833D01*
X248217226Y-50723484D01*
X246455355Y-52485355D01*
X246439134Y-52496194D01*
X246400866Y-52496194D01*
X246373806Y-52469134D01*
X246373806Y-52430866D01*
X246384645Y-52414645D01*
X248146516Y-50652774D01*
X248146517Y-50652773D01*
X250504167Y-48295123D01*
X250520388Y-48284284D01*
X250558656Y-48284284D01*
X250585716Y-48311344D01*
G37*
G36*
X224626194Y-52040866D02*
G01*
X224626194Y-52079134D01*
X224615355Y-52095355D01*
X224455355Y-52255355D01*
X224439134Y-52266194D01*
X224400866Y-52266194D01*
X224373806Y-52239134D01*
X224373806Y-52200866D01*
X224384645Y-52184645D01*
X224544645Y-52024645D01*
X224560866Y-52013806D01*
X224599134Y-52013806D01*
X224626194Y-52040866D01*
G37*
G36*
X145626194Y-52000866D02*
G01*
X145626194Y-52039134D01*
X145615355Y-52055355D01*
X145455355Y-52215355D01*
X145439134Y-52226194D01*
X145400866Y-52226194D01*
X145373806Y-52199134D01*
X145373806Y-52160866D01*
X145384645Y-52144645D01*
X145544645Y-51984645D01*
X145560866Y-51973806D01*
X145599134Y-51973806D01*
X145626194Y-52000866D01*
G37*
G36*
X76106194Y-42480866D02*
G01*
X76106194Y-42519135D01*
X76095355Y-42535356D01*
X68407228Y-50223481D01*
X68407226Y-50223485D01*
X66455355Y-52175355D01*
X66439134Y-52186194D01*
X66400866Y-52186194D01*
X66373806Y-52159134D01*
X66373806Y-52120866D01*
X66384645Y-52104645D01*
X68336515Y-50152774D01*
X68336518Y-50152771D01*
X76024644Y-42464645D01*
X76040865Y-42453806D01*
X76079134Y-42453806D01*
X76106194Y-42480866D01*
G37*
G36*
X44626194Y-51730866D02*
G01*
X44626194Y-51769134D01*
X44615355Y-51785355D01*
X44455355Y-51945355D01*
X44439134Y-51956194D01*
X44400866Y-51956194D01*
X44373806Y-51929134D01*
X44373806Y-51890866D01*
X44384645Y-51874645D01*
X44544645Y-51714645D01*
X44560866Y-51703806D01*
X44599134Y-51703806D01*
X44626194Y-51730866D01*
G37*
G36*
X32694420Y-48842640D02*
G01*
X32694420Y-48880908D01*
X32683581Y-48897129D01*
X30035355Y-51545355D01*
X30019134Y-51556194D01*
X29980866Y-51556194D01*
X29953806Y-51529134D01*
X29953806Y-51490866D01*
X29964645Y-51474645D01*
X32612871Y-48826419D01*
X32629092Y-48815580D01*
X32667360Y-48815580D01*
X32694420Y-48842640D01*
G37*
G36*
X165026194Y-42480866D02*
G01*
X165026194Y-42519134D01*
X165015355Y-42535355D01*
X160773345Y-46777365D01*
X156827226Y-50723484D01*
X156455355Y-51095355D01*
X156439134Y-51106194D01*
X156400866Y-51106194D01*
X156373806Y-51079134D01*
X156373806Y-51040866D01*
X156384645Y-51024645D01*
X156756516Y-50652774D01*
X156756517Y-50652773D01*
X160702635Y-46706655D01*
X160702636Y-46706654D01*
X164944645Y-42464645D01*
X164960866Y-42453806D01*
X164999134Y-42453806D01*
X165026194Y-42480866D01*
G37*
G36*
X134581838Y-50695222D02*
G01*
X134581838Y-50733491D01*
X134570999Y-50749712D01*
X134455355Y-50865355D01*
X134439134Y-50876194D01*
X134400866Y-50876194D01*
X134373806Y-50849134D01*
X134373806Y-50810866D01*
X134384645Y-50794645D01*
X134500288Y-50679001D01*
X134516509Y-50668162D01*
X134554778Y-50668162D01*
X134581838Y-50695222D01*
G37*
G36*
X55550861Y-50686199D02*
G01*
X55550861Y-50724467D01*
X55540022Y-50740688D01*
X55455355Y-50825355D01*
X55439134Y-50836194D01*
X55400866Y-50836194D01*
X55373806Y-50809134D01*
X55373806Y-50770866D01*
X55384645Y-50754645D01*
X55469312Y-50669978D01*
X55485533Y-50659139D01*
X55523801Y-50659139D01*
X55550861Y-50686199D01*
G37*
G36*
X253946194Y-42480866D02*
G01*
X253946194Y-42519135D01*
X253935355Y-42535356D01*
X246455355Y-50015355D01*
X246439134Y-50026194D01*
X246400866Y-50026194D01*
X246373806Y-49999134D01*
X246373806Y-49960866D01*
X246384645Y-49944645D01*
X253864644Y-42464645D01*
X253880865Y-42453806D01*
X253919134Y-42453806D01*
X253946194Y-42480866D01*
G37*
G36*
X73636194Y-42480866D02*
G01*
X73636194Y-42519134D01*
X73625355Y-42535356D01*
X66455355Y-49705355D01*
X66439134Y-49716194D01*
X66400866Y-49716194D01*
X66373806Y-49689134D01*
X66373806Y-49650866D01*
X66384645Y-49634645D01*
X73554644Y-42464645D01*
X73570866Y-42453806D01*
X73609134Y-42453806D01*
X73636194Y-42480866D01*
G37*
G36*
X33626194Y-45440866D02*
G01*
X33626194Y-45479134D01*
X33615355Y-45495355D01*
X32333348Y-46777361D01*
X32333346Y-46777365D01*
X30035355Y-49075355D01*
X30019134Y-49086194D01*
X29980866Y-49086194D01*
X29953806Y-49059134D01*
X29953806Y-49020866D01*
X29964645Y-49004645D01*
X32262635Y-46706654D01*
X32262638Y-46706651D01*
X33544645Y-45424645D01*
X33560866Y-45413806D01*
X33599134Y-45413806D01*
X33626194Y-45440866D01*
G37*
G36*
X120566194Y-42480866D02*
G01*
X120566194Y-42519134D01*
X120555355Y-42535355D01*
X116313347Y-46777362D01*
X116313345Y-46777366D01*
X114091070Y-48999640D01*
X114074849Y-49010479D01*
X114036581Y-49010479D01*
X114009521Y-48983419D01*
X114009521Y-48945151D01*
X114020360Y-48928930D01*
X116242634Y-46706655D01*
X116242637Y-46706652D01*
X120484645Y-42464645D01*
X120500866Y-42453806D01*
X120539134Y-42453806D01*
X120566194Y-42480866D01*
G37*
G36*
X277046194Y-44080866D02*
G01*
X277046194Y-44119135D01*
X277035355Y-44135356D01*
X272400593Y-48770117D01*
X272384372Y-48780956D01*
X272346104Y-48780956D01*
X272319044Y-48753896D01*
X272319044Y-48715628D01*
X272329883Y-48699407D01*
X276964644Y-44064645D01*
X276980865Y-44053806D01*
X277019134Y-44053806D01*
X277046194Y-44080866D01*
G37*
G36*
X162556194Y-42480866D02*
G01*
X162556194Y-42519134D01*
X162545355Y-42535355D01*
X158303348Y-46777361D01*
X158303346Y-46777365D01*
X156455355Y-48625355D01*
X156439134Y-48636194D01*
X156400866Y-48636194D01*
X156373806Y-48609134D01*
X156373806Y-48570866D01*
X156384645Y-48554645D01*
X158232635Y-46706654D01*
X158232638Y-46706651D01*
X162474645Y-42464645D01*
X162490866Y-42453806D01*
X162529134Y-42453806D01*
X162556194Y-42480866D01*
G37*
G36*
X209486194Y-42480866D02*
G01*
X209486194Y-42519134D01*
X209475355Y-42535355D01*
X205233348Y-46777361D01*
X205233346Y-46777365D01*
X203591070Y-48419640D01*
X203574849Y-48430479D01*
X203536581Y-48430479D01*
X203509521Y-48403419D01*
X203509521Y-48365151D01*
X203520360Y-48348930D01*
X205162635Y-46706654D01*
X205162638Y-46706651D01*
X209404645Y-42464645D01*
X209420866Y-42453806D01*
X209459134Y-42453806D01*
X209486194Y-42480866D01*
G37*
G36*
X251476194Y-42480866D02*
G01*
X251476194Y-42519134D01*
X251465355Y-42535355D01*
X246455355Y-47545355D01*
X246439134Y-47556194D01*
X246400866Y-47556194D01*
X246373806Y-47529134D01*
X246373806Y-47490866D01*
X246384645Y-47474645D01*
X251394645Y-42464645D01*
X251410866Y-42453806D01*
X251449134Y-42453806D01*
X251476194Y-42480866D01*
G37*
G36*
X145626194Y-47060866D02*
G01*
X145626194Y-47099134D01*
X145615355Y-47115355D01*
X145455355Y-47275355D01*
X145439134Y-47286194D01*
X145400866Y-47286194D01*
X145373806Y-47259134D01*
X145373806Y-47220866D01*
X145384645Y-47204645D01*
X145544645Y-47044645D01*
X145560866Y-47033806D01*
X145599134Y-47033806D01*
X145626194Y-47060866D01*
G37*
G36*
X71166194Y-42480866D02*
G01*
X71166194Y-42519134D01*
X71155356Y-42535355D01*
X66455355Y-47235355D01*
X66439134Y-47246194D01*
X66400866Y-47246194D01*
X66373806Y-47219134D01*
X66373806Y-47180866D01*
X66384645Y-47164645D01*
X71084645Y-42464644D01*
X71100866Y-42453806D01*
X71139134Y-42453806D01*
X71166194Y-42480866D01*
G37*
G36*
X169966194Y-42480866D02*
G01*
X169966194Y-42519134D01*
X169955355Y-42535355D01*
X165713345Y-46777365D01*
X165345008Y-47145702D01*
X165328787Y-47156541D01*
X165290519Y-47156541D01*
X165263459Y-47129481D01*
X165263459Y-47091213D01*
X165274298Y-47074992D01*
X165642635Y-46706655D01*
X165642636Y-46706654D01*
X169884645Y-42464645D01*
X169900866Y-42453806D01*
X169939134Y-42453806D01*
X169966194Y-42480866D01*
G37*
G36*
X172436194Y-42480866D02*
G01*
X172436194Y-42519134D01*
X172425355Y-42535355D01*
X168183345Y-46777365D01*
X167815008Y-47145702D01*
X167798787Y-47156541D01*
X167760519Y-47156541D01*
X167733459Y-47129481D01*
X167733459Y-47091213D01*
X167744298Y-47074992D01*
X168112635Y-46706655D01*
X168112636Y-46706654D01*
X172354645Y-42464645D01*
X172370866Y-42453806D01*
X172409134Y-42453806D01*
X172436194Y-42480866D01*
G37*
G36*
X174906194Y-42480866D02*
G01*
X174906194Y-42519134D01*
X174895355Y-42535355D01*
X170653345Y-46777365D01*
X170285008Y-47145702D01*
X170268787Y-47156541D01*
X170230519Y-47156541D01*
X170203459Y-47129481D01*
X170203459Y-47091213D01*
X170214298Y-47074992D01*
X170582635Y-46706655D01*
X170582636Y-46706654D01*
X174824645Y-42464645D01*
X174840866Y-42453806D01*
X174879134Y-42453806D01*
X174906194Y-42480866D01*
G37*
G36*
X177376194Y-42480866D02*
G01*
X177376194Y-42519134D01*
X177365355Y-42535355D01*
X173123345Y-46777365D01*
X172755008Y-47145702D01*
X172738787Y-47156541D01*
X172700519Y-47156541D01*
X172673459Y-47129481D01*
X172673459Y-47091213D01*
X172684298Y-47074992D01*
X173052635Y-46706655D01*
X173052636Y-46706654D01*
X177294645Y-42464645D01*
X177310866Y-42453806D01*
X177349134Y-42453806D01*
X177376194Y-42480866D01*
G37*
G36*
X179846194Y-42480866D02*
G01*
X179846194Y-42519134D01*
X179835355Y-42535355D01*
X175593345Y-46777365D01*
X175225008Y-47145702D01*
X175208787Y-47156541D01*
X175170519Y-47156541D01*
X175143459Y-47129481D01*
X175143459Y-47091213D01*
X175154298Y-47074992D01*
X175522635Y-46706655D01*
X175522636Y-46706654D01*
X179764645Y-42464645D01*
X179780866Y-42453806D01*
X179819134Y-42453806D01*
X179846194Y-42480866D01*
G37*
G36*
X182316194Y-42480866D02*
G01*
X182316194Y-42519134D01*
X182305355Y-42535355D01*
X178063345Y-46777365D01*
X177695008Y-47145702D01*
X177678787Y-47156541D01*
X177640519Y-47156541D01*
X177613459Y-47129481D01*
X177613459Y-47091213D01*
X177624298Y-47074992D01*
X177992635Y-46706655D01*
X177992636Y-46706654D01*
X182234645Y-42464645D01*
X182250866Y-42453806D01*
X182289134Y-42453806D01*
X182316194Y-42480866D01*
G37*
G36*
X184786194Y-42480866D02*
G01*
X184786194Y-42519134D01*
X184775355Y-42535355D01*
X180533345Y-46777365D01*
X180165008Y-47145702D01*
X180148787Y-47156541D01*
X180110519Y-47156541D01*
X180083459Y-47129481D01*
X180083459Y-47091213D01*
X180094298Y-47074992D01*
X180462635Y-46706655D01*
X180462636Y-46706654D01*
X184704645Y-42464645D01*
X184720866Y-42453806D01*
X184759134Y-42453806D01*
X184786194Y-42480866D01*
G37*
G36*
X187256194Y-42480866D02*
G01*
X187256194Y-42519134D01*
X187245355Y-42535355D01*
X183003345Y-46777365D01*
X182635008Y-47145702D01*
X182618787Y-47156541D01*
X182580519Y-47156541D01*
X182553459Y-47129481D01*
X182553459Y-47091213D01*
X182564298Y-47074992D01*
X182932635Y-46706655D01*
X182932636Y-46706654D01*
X187174645Y-42464645D01*
X187190866Y-42453806D01*
X187229134Y-42453806D01*
X187256194Y-42480866D01*
G37*
G36*
X189726194Y-42480866D02*
G01*
X189726194Y-42519134D01*
X189715355Y-42535355D01*
X185473345Y-46777365D01*
X185105008Y-47145702D01*
X185088787Y-47156541D01*
X185050519Y-47156541D01*
X185023459Y-47129481D01*
X185023459Y-47091213D01*
X185034298Y-47074992D01*
X185402635Y-46706655D01*
X185402636Y-46706654D01*
X189644645Y-42464645D01*
X189660866Y-42453806D01*
X189699134Y-42453806D01*
X189726194Y-42480866D01*
G37*
G36*
X192196194Y-42480866D02*
G01*
X192196194Y-42519134D01*
X192185355Y-42535355D01*
X187943345Y-46777365D01*
X187575008Y-47145702D01*
X187558787Y-47156541D01*
X187520519Y-47156541D01*
X187493459Y-47129481D01*
X187493459Y-47091213D01*
X187504298Y-47074992D01*
X187872635Y-46706655D01*
X187872636Y-46706654D01*
X192114645Y-42464645D01*
X192130866Y-42453806D01*
X192169134Y-42453806D01*
X192196194Y-42480866D01*
G37*
G36*
X194666194Y-42480866D02*
G01*
X194666194Y-42519134D01*
X194655355Y-42535355D01*
X190413345Y-46777365D01*
X190045008Y-47145702D01*
X190028787Y-47156541D01*
X189990519Y-47156541D01*
X189963459Y-47129481D01*
X189963459Y-47091213D01*
X189974298Y-47074992D01*
X190342635Y-46706655D01*
X190342636Y-46706654D01*
X194584645Y-42464645D01*
X194600866Y-42453806D01*
X194639134Y-42453806D01*
X194666194Y-42480866D01*
G37*
G36*
X197136194Y-42480866D02*
G01*
X197136194Y-42519134D01*
X197125355Y-42535355D01*
X192883345Y-46777365D01*
X192515008Y-47145702D01*
X192498787Y-47156541D01*
X192460519Y-47156541D01*
X192433459Y-47129481D01*
X192433459Y-47091213D01*
X192444298Y-47074992D01*
X192812635Y-46706655D01*
X192812636Y-46706654D01*
X197054645Y-42464645D01*
X197070866Y-42453806D01*
X197109134Y-42453806D01*
X197136194Y-42480866D01*
G37*
G36*
X199606194Y-42480866D02*
G01*
X199606194Y-42519134D01*
X199595355Y-42535355D01*
X195353345Y-46777365D01*
X194985008Y-47145702D01*
X194968787Y-47156541D01*
X194930519Y-47156541D01*
X194903459Y-47129481D01*
X194903459Y-47091213D01*
X194914298Y-47074992D01*
X195282635Y-46706655D01*
X195282636Y-46706654D01*
X199524645Y-42464645D01*
X199540866Y-42453806D01*
X199579134Y-42453806D01*
X199606194Y-42480866D01*
G37*
G36*
X202076194Y-42480866D02*
G01*
X202076194Y-42519134D01*
X202065355Y-42535355D01*
X197823345Y-46777365D01*
X197455008Y-47145702D01*
X197438787Y-47156541D01*
X197400519Y-47156541D01*
X197373459Y-47129481D01*
X197373459Y-47091213D01*
X197384298Y-47074992D01*
X197752635Y-46706655D01*
X197752636Y-46706654D01*
X201994645Y-42464645D01*
X202010866Y-42453806D01*
X202049134Y-42453806D01*
X202076194Y-42480866D01*
G37*
G36*
X204546194Y-42480866D02*
G01*
X204546194Y-42519134D01*
X204535355Y-42535355D01*
X200293345Y-46777365D01*
X199925008Y-47145702D01*
X199908787Y-47156541D01*
X199870519Y-47156541D01*
X199843459Y-47129481D01*
X199843459Y-47091213D01*
X199854298Y-47074992D01*
X200222635Y-46706655D01*
X200222636Y-46706654D01*
X204464645Y-42464645D01*
X204480866Y-42453806D01*
X204519134Y-42453806D01*
X204546194Y-42480866D01*
G37*
G36*
X207016194Y-42480866D02*
G01*
X207016194Y-42519134D01*
X207005355Y-42535355D01*
X202763345Y-46777365D01*
X202395008Y-47145702D01*
X202378787Y-47156541D01*
X202340519Y-47156541D01*
X202313459Y-47129481D01*
X202313459Y-47091213D01*
X202324298Y-47074992D01*
X202692635Y-46706655D01*
X202692636Y-46706654D01*
X206934645Y-42464645D01*
X206950866Y-42453806D01*
X206989134Y-42453806D01*
X207016194Y-42480866D01*
G37*
G36*
X256416194Y-42480866D02*
G01*
X256416194Y-42519134D01*
X256405355Y-42535356D01*
X251795008Y-47145702D01*
X251778787Y-47156541D01*
X251740519Y-47156541D01*
X251713459Y-47129481D01*
X251713459Y-47091213D01*
X251724298Y-47074992D01*
X256334644Y-42464645D01*
X256350866Y-42453806D01*
X256389134Y-42453806D01*
X256416194Y-42480866D01*
G37*
G36*
X258886194Y-42480866D02*
G01*
X258886194Y-42519134D01*
X258875355Y-42535356D01*
X254265008Y-47145702D01*
X254248787Y-47156541D01*
X254210519Y-47156541D01*
X254183459Y-47129481D01*
X254183459Y-47091213D01*
X254194298Y-47074992D01*
X258804644Y-42464645D01*
X258820866Y-42453806D01*
X258859134Y-42453806D01*
X258886194Y-42480866D01*
G37*
G36*
X261356194Y-42480866D02*
G01*
X261356194Y-42519134D01*
X261345355Y-42535356D01*
X256735008Y-47145702D01*
X256718787Y-47156541D01*
X256680519Y-47156541D01*
X256653459Y-47129481D01*
X256653459Y-47091213D01*
X256664298Y-47074992D01*
X261274644Y-42464645D01*
X261290866Y-42453806D01*
X261329134Y-42453806D01*
X261356194Y-42480866D01*
G37*
G36*
X263826194Y-42480866D02*
G01*
X263826194Y-42519134D01*
X263815355Y-42535356D01*
X259205008Y-47145702D01*
X259188787Y-47156541D01*
X259150519Y-47156541D01*
X259123459Y-47129481D01*
X259123459Y-47091213D01*
X259134298Y-47074992D01*
X263744644Y-42464645D01*
X263760866Y-42453806D01*
X263799134Y-42453806D01*
X263826194Y-42480866D01*
G37*
G36*
X266296194Y-42480866D02*
G01*
X266296194Y-42519134D01*
X266285355Y-42535356D01*
X261675008Y-47145702D01*
X261658787Y-47156541D01*
X261620519Y-47156541D01*
X261593459Y-47129481D01*
X261593459Y-47091213D01*
X261604298Y-47074992D01*
X266214644Y-42464645D01*
X266230866Y-42453806D01*
X266269134Y-42453806D01*
X266296194Y-42480866D01*
G37*
G36*
X268766194Y-42480866D02*
G01*
X268766194Y-42519134D01*
X268755355Y-42535356D01*
X264145008Y-47145702D01*
X264128787Y-47156541D01*
X264090519Y-47156541D01*
X264063459Y-47129481D01*
X264063459Y-47091213D01*
X264074298Y-47074992D01*
X268684644Y-42464645D01*
X268700866Y-42453806D01*
X268739134Y-42453806D01*
X268766194Y-42480866D01*
G37*
G36*
X271236194Y-42480866D02*
G01*
X271236194Y-42519134D01*
X271225355Y-42535356D01*
X266615008Y-47145702D01*
X266598787Y-47156541D01*
X266560519Y-47156541D01*
X266533459Y-47129481D01*
X266533459Y-47091213D01*
X266544298Y-47074992D01*
X271154644Y-42464645D01*
X271170866Y-42453806D01*
X271209134Y-42453806D01*
X271236194Y-42480866D01*
G37*
G36*
X273706194Y-42480866D02*
G01*
X273706194Y-42519134D01*
X273695355Y-42535356D01*
X269085008Y-47145702D01*
X269068787Y-47156541D01*
X269030519Y-47156541D01*
X269003459Y-47129481D01*
X269003459Y-47091213D01*
X269014298Y-47074992D01*
X273624644Y-42464645D01*
X273640866Y-42453806D01*
X273679134Y-42453806D01*
X273706194Y-42480866D01*
G37*
G36*
X276176194Y-42480866D02*
G01*
X276176194Y-42519134D01*
X276165355Y-42535356D01*
X271555008Y-47145702D01*
X271538787Y-47156541D01*
X271500519Y-47156541D01*
X271473459Y-47129481D01*
X271473459Y-47091213D01*
X271484298Y-47074992D01*
X276094644Y-42464645D01*
X276110866Y-42453806D01*
X276149134Y-42453806D01*
X276176194Y-42480866D01*
G37*
G36*
X44626194Y-46790866D02*
G01*
X44626194Y-46829134D01*
X44615355Y-46845355D01*
X44455355Y-47005355D01*
X44439134Y-47016194D01*
X44400866Y-47016194D01*
X44373806Y-46989134D01*
X44373806Y-46950866D01*
X44384645Y-46934645D01*
X44544645Y-46774645D01*
X44560866Y-46763806D01*
X44599134Y-46763806D01*
X44626194Y-46790866D01*
G37*
G36*
X81046194Y-42480866D02*
G01*
X81046194Y-42519135D01*
X81035355Y-42535356D01*
X76925008Y-46645702D01*
X76908787Y-46656541D01*
X76870519Y-46656541D01*
X76843459Y-46629481D01*
X76843459Y-46591213D01*
X76854298Y-46574992D01*
X80964644Y-42464645D01*
X80980865Y-42453806D01*
X81019134Y-42453806D01*
X81046194Y-42480866D01*
G37*
G36*
X83516194Y-42480866D02*
G01*
X83516194Y-42519135D01*
X83505355Y-42535356D01*
X79395008Y-46645702D01*
X79378787Y-46656541D01*
X79340519Y-46656541D01*
X79313459Y-46629481D01*
X79313459Y-46591213D01*
X79324298Y-46574992D01*
X83434644Y-42464645D01*
X83450865Y-42453806D01*
X83489134Y-42453806D01*
X83516194Y-42480866D01*
G37*
G36*
X85986194Y-42480866D02*
G01*
X85986194Y-42519135D01*
X85975355Y-42535356D01*
X81865008Y-46645702D01*
X81848787Y-46656541D01*
X81810519Y-46656541D01*
X81783459Y-46629481D01*
X81783459Y-46591213D01*
X81794298Y-46574992D01*
X85904644Y-42464645D01*
X85920865Y-42453806D01*
X85959134Y-42453806D01*
X85986194Y-42480866D01*
G37*
G36*
X88456194Y-42480866D02*
G01*
X88456194Y-42519135D01*
X88445355Y-42535356D01*
X84335008Y-46645702D01*
X84318787Y-46656541D01*
X84280519Y-46656541D01*
X84253459Y-46629481D01*
X84253459Y-46591213D01*
X84264298Y-46574992D01*
X88374644Y-42464645D01*
X88390865Y-42453806D01*
X88429134Y-42453806D01*
X88456194Y-42480866D01*
G37*
G36*
X90926194Y-42480866D02*
G01*
X90926194Y-42519135D01*
X90915355Y-42535356D01*
X86805008Y-46645702D01*
X86788787Y-46656541D01*
X86750519Y-46656541D01*
X86723459Y-46629481D01*
X86723459Y-46591213D01*
X86734298Y-46574992D01*
X90844644Y-42464645D01*
X90860865Y-42453806D01*
X90899134Y-42453806D01*
X90926194Y-42480866D01*
G37*
G36*
X93396194Y-42480866D02*
G01*
X93396194Y-42519135D01*
X93385355Y-42535356D01*
X89275008Y-46645702D01*
X89258787Y-46656541D01*
X89220519Y-46656541D01*
X89193459Y-46629481D01*
X89193459Y-46591213D01*
X89204298Y-46574992D01*
X93314644Y-42464645D01*
X93330865Y-42453806D01*
X93369134Y-42453806D01*
X93396194Y-42480866D01*
G37*
G36*
X95866194Y-42480866D02*
G01*
X95866194Y-42519135D01*
X95855355Y-42535356D01*
X91745008Y-46645702D01*
X91728787Y-46656541D01*
X91690519Y-46656541D01*
X91663459Y-46629481D01*
X91663459Y-46591213D01*
X91674298Y-46574992D01*
X95784644Y-42464645D01*
X95800865Y-42453806D01*
X95839134Y-42453806D01*
X95866194Y-42480866D01*
G37*
G36*
X98336194Y-42480866D02*
G01*
X98336194Y-42519135D01*
X98325355Y-42535356D01*
X94215008Y-46645702D01*
X94198787Y-46656541D01*
X94160519Y-46656541D01*
X94133459Y-46629481D01*
X94133459Y-46591213D01*
X94144298Y-46574992D01*
X98254644Y-42464645D01*
X98270865Y-42453806D01*
X98309134Y-42453806D01*
X98336194Y-42480866D01*
G37*
G36*
X100806194Y-42480866D02*
G01*
X100806194Y-42519135D01*
X100795355Y-42535356D01*
X96685008Y-46645702D01*
X96668787Y-46656541D01*
X96630519Y-46656541D01*
X96603459Y-46629481D01*
X96603459Y-46591213D01*
X96614298Y-46574992D01*
X100724644Y-42464645D01*
X100740865Y-42453806D01*
X100779134Y-42453806D01*
X100806194Y-42480866D01*
G37*
G36*
X103276194Y-42480866D02*
G01*
X103276194Y-42519135D01*
X103265355Y-42535356D01*
X99155008Y-46645702D01*
X99138787Y-46656541D01*
X99100519Y-46656541D01*
X99073459Y-46629481D01*
X99073459Y-46591213D01*
X99084298Y-46574992D01*
X103194644Y-42464645D01*
X103210865Y-42453806D01*
X103249134Y-42453806D01*
X103276194Y-42480866D01*
G37*
G36*
X105746194Y-42480866D02*
G01*
X105746194Y-42519135D01*
X105735355Y-42535356D01*
X101625008Y-46645702D01*
X101608787Y-46656541D01*
X101570519Y-46656541D01*
X101543459Y-46629481D01*
X101543459Y-46591213D01*
X101554298Y-46574992D01*
X105664644Y-42464645D01*
X105680865Y-42453806D01*
X105719134Y-42453806D01*
X105746194Y-42480866D01*
G37*
G36*
X108216194Y-42480866D02*
G01*
X108216194Y-42519135D01*
X108205355Y-42535356D01*
X104095008Y-46645702D01*
X104078787Y-46656541D01*
X104040519Y-46656541D01*
X104013459Y-46629481D01*
X104013459Y-46591213D01*
X104024298Y-46574992D01*
X108134644Y-42464645D01*
X108150865Y-42453806D01*
X108189134Y-42453806D01*
X108216194Y-42480866D01*
G37*
G36*
X110686194Y-42480866D02*
G01*
X110686194Y-42519135D01*
X110675355Y-42535356D01*
X106565008Y-46645702D01*
X106548787Y-46656541D01*
X106510519Y-46656541D01*
X106483459Y-46629481D01*
X106483459Y-46591213D01*
X106494298Y-46574992D01*
X110604644Y-42464645D01*
X110620865Y-42453806D01*
X110659134Y-42453806D01*
X110686194Y-42480866D01*
G37*
G36*
X113156194Y-42480866D02*
G01*
X113156194Y-42519135D01*
X113145355Y-42535356D01*
X109035008Y-46645702D01*
X109018787Y-46656541D01*
X108980519Y-46656541D01*
X108953459Y-46629481D01*
X108953459Y-46591213D01*
X108964298Y-46574992D01*
X113074644Y-42464645D01*
X113090865Y-42453806D01*
X113129134Y-42453806D01*
X113156194Y-42480866D01*
G37*
G36*
X115626194Y-42480866D02*
G01*
X115626194Y-42519135D01*
X115615355Y-42535356D01*
X111505008Y-46645702D01*
X111488787Y-46656541D01*
X111450519Y-46656541D01*
X111423459Y-46629481D01*
X111423459Y-46591213D01*
X111434298Y-46574992D01*
X115544644Y-42464645D01*
X115560865Y-42453806D01*
X115599134Y-42453806D01*
X115626194Y-42480866D01*
G37*
G36*
X118096194Y-42480866D02*
G01*
X118096194Y-42519135D01*
X118085355Y-42535356D01*
X113975008Y-46645702D01*
X113958787Y-46656541D01*
X113920519Y-46656541D01*
X113893459Y-46629481D01*
X113893459Y-46591213D01*
X113904298Y-46574992D01*
X118014644Y-42464645D01*
X118030865Y-42453806D01*
X118069134Y-42453806D01*
X118096194Y-42480866D01*
G37*
G36*
X34116194Y-42480866D02*
G01*
X34116194Y-42519134D01*
X34105355Y-42535355D01*
X30035355Y-46605355D01*
X30019134Y-46616194D01*
X29980866Y-46616194D01*
X29953806Y-46589134D01*
X29953806Y-46550866D01*
X29964645Y-46534645D01*
X34034645Y-42464645D01*
X34050866Y-42453806D01*
X34089134Y-42453806D01*
X34116194Y-42480866D01*
G37*
G36*
X235626194Y-45980866D02*
G01*
X235626194Y-46019134D01*
X235615355Y-46035355D01*
X235455355Y-46195355D01*
X235439134Y-46206194D01*
X235400866Y-46206194D01*
X235373806Y-46179134D01*
X235373806Y-46140866D01*
X235384645Y-46124645D01*
X235544645Y-45964645D01*
X235560866Y-45953806D01*
X235599134Y-45953806D01*
X235626194Y-45980866D01*
G37*
G36*
X160086194Y-42480866D02*
G01*
X160086194Y-42519134D01*
X160075355Y-42535355D01*
X156455355Y-46155355D01*
X156439134Y-46166194D01*
X156400866Y-46166194D01*
X156373806Y-46139134D01*
X156373806Y-46100866D01*
X156384645Y-46084645D01*
X160004645Y-42464645D01*
X160020866Y-42453806D01*
X160059134Y-42453806D01*
X160086194Y-42480866D01*
G37*
G36*
X134626194Y-45710866D02*
G01*
X134626194Y-45749134D01*
X134615355Y-45765355D01*
X134455355Y-45925355D01*
X134439134Y-45936194D01*
X134400866Y-45936194D01*
X134373806Y-45909134D01*
X134373806Y-45870866D01*
X134384645Y-45854645D01*
X134544645Y-45694645D01*
X134560866Y-45683806D01*
X134599134Y-45683806D01*
X134626194Y-45710866D01*
G37*
G36*
X55626194Y-45670866D02*
G01*
X55626194Y-45709134D01*
X55615355Y-45725355D01*
X55455355Y-45885355D01*
X55439134Y-45896194D01*
X55400866Y-45896194D01*
X55373806Y-45869134D01*
X55373806Y-45830866D01*
X55384645Y-45814645D01*
X55544645Y-45654645D01*
X55560866Y-45643806D01*
X55599134Y-45643806D01*
X55626194Y-45670866D01*
G37*
G36*
X249006194Y-42480866D02*
G01*
X249006194Y-42519135D01*
X248995355Y-42535356D01*
X246455355Y-45075355D01*
X246439134Y-45086194D01*
X246400866Y-45086194D01*
X246373806Y-45059134D01*
X246373806Y-45020866D01*
X246384645Y-45004645D01*
X248924644Y-42464645D01*
X248940865Y-42453806D01*
X248979134Y-42453806D01*
X249006194Y-42480866D01*
G37*
G36*
X224626194Y-44630866D02*
G01*
X224626194Y-44669134D01*
X224615355Y-44685355D01*
X224455355Y-44845355D01*
X224439134Y-44856194D01*
X224400866Y-44856194D01*
X224373806Y-44829134D01*
X224373806Y-44790866D01*
X224384645Y-44774645D01*
X224544645Y-44614645D01*
X224560866Y-44603806D01*
X224599134Y-44603806D01*
X224626194Y-44630866D01*
G37*
G36*
X145626194Y-44590866D02*
G01*
X145626194Y-44629134D01*
X145615355Y-44645355D01*
X145455355Y-44805355D01*
X145439134Y-44816194D01*
X145400866Y-44816194D01*
X145373806Y-44789134D01*
X145373806Y-44750866D01*
X145384645Y-44734645D01*
X145544645Y-44574645D01*
X145560866Y-44563806D01*
X145599134Y-44563806D01*
X145626194Y-44590866D01*
G37*
G36*
X68696194Y-42480866D02*
G01*
X68696194Y-42519134D01*
X68685355Y-42535356D01*
X66455355Y-44765355D01*
X66439134Y-44776194D01*
X66400866Y-44776194D01*
X66373806Y-44749134D01*
X66373806Y-44710866D01*
X66384645Y-44694645D01*
X68614644Y-42464645D01*
X68630866Y-42453806D01*
X68669134Y-42453806D01*
X68696194Y-42480866D01*
G37*
G36*
X44626194Y-44320866D02*
G01*
X44626194Y-44359134D01*
X44615355Y-44375355D01*
X44455355Y-44535355D01*
X44439134Y-44546194D01*
X44400866Y-44546194D01*
X44373806Y-44519134D01*
X44373806Y-44480866D01*
X44384645Y-44464645D01*
X44544645Y-44304645D01*
X44560866Y-44293806D01*
X44599134Y-44293806D01*
X44626194Y-44320866D01*
G37*
G36*
X31646194Y-42480865D02*
G01*
X31646194Y-42519134D01*
X31635356Y-42535355D01*
X30035355Y-44135355D01*
X30019134Y-44146194D01*
X29980866Y-44146194D01*
X29953806Y-44119134D01*
X29953806Y-44080866D01*
X29964645Y-44064645D01*
X31564645Y-42464644D01*
X31580866Y-42453806D01*
X31619135Y-42453806D01*
X31646194Y-42480865D01*
G37*
G36*
X235626194Y-43510866D02*
G01*
X235626194Y-43549134D01*
X235615355Y-43565355D01*
X235455355Y-43725355D01*
X235439134Y-43736194D01*
X235400866Y-43736194D01*
X235373806Y-43709134D01*
X235373806Y-43670866D01*
X235384645Y-43654645D01*
X235544645Y-43494645D01*
X235560866Y-43483806D01*
X235599134Y-43483806D01*
X235626194Y-43510866D01*
G37*
G36*
X157616194Y-42480865D02*
G01*
X157616194Y-42519134D01*
X157605356Y-42535355D01*
X156455355Y-43685355D01*
X156439134Y-43696194D01*
X156400866Y-43696194D01*
X156373806Y-43669134D01*
X156373806Y-43630866D01*
X156384645Y-43614645D01*
X157534645Y-42464644D01*
X157550866Y-42453806D01*
X157589135Y-42453806D01*
X157616194Y-42480865D01*
G37*
G36*
X135386194Y-42480866D02*
G01*
X135386194Y-42519135D01*
X135375355Y-42535356D01*
X134455355Y-43455355D01*
X134439134Y-43466194D01*
X134400866Y-43466194D01*
X134373806Y-43439134D01*
X134373806Y-43400866D01*
X134384645Y-43384645D01*
X135304644Y-42464645D01*
X135320865Y-42453806D01*
X135359134Y-42453806D01*
X135386194Y-42480866D01*
G37*
G36*
X56346194Y-42480866D02*
G01*
X56346194Y-42519134D01*
X56335355Y-42535355D01*
X55455355Y-43415355D01*
X55439134Y-43426194D01*
X55400866Y-43426194D01*
X55373806Y-43399134D01*
X55373806Y-43360866D01*
X55384645Y-43344645D01*
X56264645Y-42464645D01*
X56280866Y-42453806D01*
X56319134Y-42453806D01*
X56346194Y-42480866D01*
G37*
G36*
X36586194Y-42480866D02*
G01*
X36586194Y-42519134D01*
X36575355Y-42535355D01*
X35770355Y-43340355D01*
X35754134Y-43351194D01*
X35715866Y-43351194D01*
X35688806Y-43324134D01*
X35688806Y-43285866D01*
X35699645Y-43269645D01*
X36504645Y-42464645D01*
X36520866Y-42453806D01*
X36559134Y-42453806D01*
X36586194Y-42480866D01*
G37*
G36*
X39056194Y-42480866D02*
G01*
X39056194Y-42519134D01*
X39045355Y-42535355D01*
X38240355Y-43340355D01*
X38224134Y-43351194D01*
X38185866Y-43351194D01*
X38158806Y-43324134D01*
X38158806Y-43285866D01*
X38169645Y-43269645D01*
X38974645Y-42464645D01*
X38990866Y-42453806D01*
X39029134Y-42453806D01*
X39056194Y-42480866D01*
G37*
G36*
X41526194Y-42480866D02*
G01*
X41526194Y-42519134D01*
X41515355Y-42535355D01*
X40710355Y-43340355D01*
X40694134Y-43351194D01*
X40655866Y-43351194D01*
X40628806Y-43324134D01*
X40628806Y-43285866D01*
X40639645Y-43269645D01*
X41444645Y-42464645D01*
X41460866Y-42453806D01*
X41499134Y-42453806D01*
X41526194Y-42480866D01*
G37*
G36*
X43996194Y-42480866D02*
G01*
X43996194Y-42519134D01*
X43985355Y-42535355D01*
X43180355Y-43340355D01*
X43164134Y-43351194D01*
X43125866Y-43351194D01*
X43098806Y-43324134D01*
X43098806Y-43285866D01*
X43109645Y-43269645D01*
X43914645Y-42464645D01*
X43930866Y-42453806D01*
X43969134Y-42453806D01*
X43996194Y-42480866D01*
G37*
G36*
X46466194Y-42480866D02*
G01*
X46466194Y-42519134D01*
X46455355Y-42535355D01*
X45650355Y-43340355D01*
X45634134Y-43351194D01*
X45595866Y-43351194D01*
X45568806Y-43324134D01*
X45568806Y-43285866D01*
X45579645Y-43269645D01*
X46384645Y-42464645D01*
X46400866Y-42453806D01*
X46439134Y-42453806D01*
X46466194Y-42480866D01*
G37*
G36*
X48936194Y-42480866D02*
G01*
X48936194Y-42519134D01*
X48925355Y-42535355D01*
X48120355Y-43340355D01*
X48104134Y-43351194D01*
X48065866Y-43351194D01*
X48038806Y-43324134D01*
X48038806Y-43285866D01*
X48049645Y-43269645D01*
X48854645Y-42464645D01*
X48870866Y-42453806D01*
X48909134Y-42453806D01*
X48936194Y-42480866D01*
G37*
G36*
X51406194Y-42480866D02*
G01*
X51406194Y-42519134D01*
X51395355Y-42535355D01*
X50590355Y-43340355D01*
X50574134Y-43351194D01*
X50535866Y-43351194D01*
X50508806Y-43324134D01*
X50508806Y-43285866D01*
X50519645Y-43269645D01*
X51324645Y-42464645D01*
X51340866Y-42453806D01*
X51379134Y-42453806D01*
X51406194Y-42480866D01*
G37*
G36*
X53876194Y-42480866D02*
G01*
X53876194Y-42519134D01*
X53865355Y-42535355D01*
X53060355Y-43340355D01*
X53044134Y-43351194D01*
X53005866Y-43351194D01*
X52978806Y-43324134D01*
X52978806Y-43285866D01*
X52989645Y-43269645D01*
X53794645Y-42464645D01*
X53810866Y-42453806D01*
X53849134Y-42453806D01*
X53876194Y-42480866D01*
G37*
G36*
X58816194Y-42480866D02*
G01*
X58816194Y-42519134D01*
X58805355Y-42535355D01*
X58000355Y-43340355D01*
X57984134Y-43351194D01*
X57945866Y-43351194D01*
X57918806Y-43324134D01*
X57918806Y-43285866D01*
X57929645Y-43269645D01*
X58734645Y-42464645D01*
X58750866Y-42453806D01*
X58789134Y-42453806D01*
X58816194Y-42480866D01*
G37*
G36*
X61286194Y-42480866D02*
G01*
X61286194Y-42519134D01*
X61275355Y-42535355D01*
X60470355Y-43340355D01*
X60454134Y-43351194D01*
X60415866Y-43351194D01*
X60388806Y-43324134D01*
X60388806Y-43285866D01*
X60399645Y-43269645D01*
X61204645Y-42464645D01*
X61220866Y-42453806D01*
X61259134Y-42453806D01*
X61286194Y-42480866D01*
G37*
G36*
X63756194Y-42480866D02*
G01*
X63756194Y-42519134D01*
X63745355Y-42535355D01*
X62940355Y-43340355D01*
X62924134Y-43351194D01*
X62885866Y-43351194D01*
X62858806Y-43324134D01*
X62858806Y-43285866D01*
X62869645Y-43269645D01*
X63674645Y-42464645D01*
X63690866Y-42453806D01*
X63729134Y-42453806D01*
X63756194Y-42480866D01*
G37*
G36*
X66226194Y-42480866D02*
G01*
X66226194Y-42519134D01*
X66215355Y-42535355D01*
X65410355Y-43340355D01*
X65394134Y-43351194D01*
X65355866Y-43351194D01*
X65328806Y-43324134D01*
X65328806Y-43285866D01*
X65339645Y-43269645D01*
X66144645Y-42464645D01*
X66160866Y-42453806D01*
X66199134Y-42453806D01*
X66226194Y-42480866D01*
G37*
G36*
X125506194Y-42480866D02*
G01*
X125506194Y-42519134D01*
X125495355Y-42535355D01*
X124690355Y-43340355D01*
X124674134Y-43351194D01*
X124635866Y-43351194D01*
X124608806Y-43324134D01*
X124608806Y-43285866D01*
X124619645Y-43269645D01*
X125424645Y-42464645D01*
X125440866Y-42453806D01*
X125479134Y-42453806D01*
X125506194Y-42480866D01*
G37*
G36*
X127976194Y-42480866D02*
G01*
X127976194Y-42519134D01*
X127965355Y-42535355D01*
X127160355Y-43340355D01*
X127144134Y-43351194D01*
X127105866Y-43351194D01*
X127078806Y-43324134D01*
X127078806Y-43285866D01*
X127089645Y-43269645D01*
X127894645Y-42464645D01*
X127910866Y-42453806D01*
X127949134Y-42453806D01*
X127976194Y-42480866D01*
G37*
G36*
X130446194Y-42480866D02*
G01*
X130446194Y-42519134D01*
X130435355Y-42535355D01*
X129630355Y-43340355D01*
X129614134Y-43351194D01*
X129575866Y-43351194D01*
X129548806Y-43324134D01*
X129548806Y-43285866D01*
X129559645Y-43269645D01*
X130364645Y-42464645D01*
X130380866Y-42453806D01*
X130419134Y-42453806D01*
X130446194Y-42480866D01*
G37*
G36*
X132916194Y-42480866D02*
G01*
X132916194Y-42519134D01*
X132905355Y-42535355D01*
X132100355Y-43340355D01*
X132084134Y-43351194D01*
X132045866Y-43351194D01*
X132018806Y-43324134D01*
X132018806Y-43285866D01*
X132029645Y-43269645D01*
X132834645Y-42464645D01*
X132850866Y-42453806D01*
X132889134Y-42453806D01*
X132916194Y-42480866D01*
G37*
G36*
X137856194Y-42480866D02*
G01*
X137856194Y-42519134D01*
X137845355Y-42535355D01*
X137040355Y-43340355D01*
X137024134Y-43351194D01*
X136985866Y-43351194D01*
X136958806Y-43324134D01*
X136958806Y-43285866D01*
X136969645Y-43269645D01*
X137774645Y-42464645D01*
X137790866Y-42453806D01*
X137829134Y-42453806D01*
X137856194Y-42480866D01*
G37*
G36*
X140326194Y-42480866D02*
G01*
X140326194Y-42519134D01*
X140315355Y-42535355D01*
X139510355Y-43340355D01*
X139494134Y-43351194D01*
X139455866Y-43351194D01*
X139428806Y-43324134D01*
X139428806Y-43285866D01*
X139439645Y-43269645D01*
X140244645Y-42464645D01*
X140260866Y-42453806D01*
X140299134Y-42453806D01*
X140326194Y-42480866D01*
G37*
G36*
X142796194Y-42480866D02*
G01*
X142796194Y-42519134D01*
X142785355Y-42535355D01*
X141980355Y-43340355D01*
X141964134Y-43351194D01*
X141925866Y-43351194D01*
X141898806Y-43324134D01*
X141898806Y-43285866D01*
X141909645Y-43269645D01*
X142714645Y-42464645D01*
X142730866Y-42453806D01*
X142769134Y-42453806D01*
X142796194Y-42480866D01*
G37*
G36*
X145266194Y-42480866D02*
G01*
X145266194Y-42519134D01*
X145255355Y-42535355D01*
X144450355Y-43340355D01*
X144434134Y-43351194D01*
X144395866Y-43351194D01*
X144368806Y-43324134D01*
X144368806Y-43285866D01*
X144379645Y-43269645D01*
X145184645Y-42464645D01*
X145200866Y-42453806D01*
X145239134Y-42453806D01*
X145266194Y-42480866D01*
G37*
G36*
X147736194Y-42480866D02*
G01*
X147736194Y-42519134D01*
X147725355Y-42535355D01*
X146920355Y-43340355D01*
X146904134Y-43351194D01*
X146865866Y-43351194D01*
X146838806Y-43324134D01*
X146838806Y-43285866D01*
X146849645Y-43269645D01*
X147654645Y-42464645D01*
X147670866Y-42453806D01*
X147709134Y-42453806D01*
X147736194Y-42480866D01*
G37*
G36*
X150206194Y-42480866D02*
G01*
X150206194Y-42519134D01*
X150195355Y-42535355D01*
X149390355Y-43340355D01*
X149374134Y-43351194D01*
X149335866Y-43351194D01*
X149308806Y-43324134D01*
X149308806Y-43285866D01*
X149319645Y-43269645D01*
X150124645Y-42464645D01*
X150140866Y-42453806D01*
X150179134Y-42453806D01*
X150206194Y-42480866D01*
G37*
G36*
X152676194Y-42480866D02*
G01*
X152676194Y-42519134D01*
X152665355Y-42535355D01*
X151860355Y-43340355D01*
X151844134Y-43351194D01*
X151805866Y-43351194D01*
X151778806Y-43324134D01*
X151778806Y-43285866D01*
X151789645Y-43269645D01*
X152594645Y-42464645D01*
X152610866Y-42453806D01*
X152649134Y-42453806D01*
X152676194Y-42480866D01*
G37*
G36*
X155146194Y-42480866D02*
G01*
X155146194Y-42519134D01*
X155135355Y-42535355D01*
X154330355Y-43340355D01*
X154314134Y-43351194D01*
X154275866Y-43351194D01*
X154248806Y-43324134D01*
X154248806Y-43285866D01*
X154259645Y-43269645D01*
X155064645Y-42464645D01*
X155080866Y-42453806D01*
X155119134Y-42453806D01*
X155146194Y-42480866D01*
G37*
G36*
X216896194Y-42480866D02*
G01*
X216896194Y-42519134D01*
X216885355Y-42535355D01*
X216080355Y-43340355D01*
X216064134Y-43351194D01*
X216025866Y-43351194D01*
X215998806Y-43324134D01*
X215998806Y-43285866D01*
X216009645Y-43269645D01*
X216814645Y-42464645D01*
X216830866Y-42453806D01*
X216869134Y-42453806D01*
X216896194Y-42480866D01*
G37*
G36*
X219366194Y-42480866D02*
G01*
X219366194Y-42519134D01*
X219355355Y-42535355D01*
X218550355Y-43340355D01*
X218534134Y-43351194D01*
X218495866Y-43351194D01*
X218468806Y-43324134D01*
X218468806Y-43285866D01*
X218479645Y-43269645D01*
X219284645Y-42464645D01*
X219300866Y-42453806D01*
X219339134Y-42453806D01*
X219366194Y-42480866D01*
G37*
G36*
X221836194Y-42480866D02*
G01*
X221836194Y-42519134D01*
X221825355Y-42535355D01*
X221020355Y-43340355D01*
X221004134Y-43351194D01*
X220965866Y-43351194D01*
X220938806Y-43324134D01*
X220938806Y-43285866D01*
X220949645Y-43269645D01*
X221754645Y-42464645D01*
X221770866Y-42453806D01*
X221809134Y-42453806D01*
X221836194Y-42480866D01*
G37*
G36*
X224306194Y-42480866D02*
G01*
X224306194Y-42519134D01*
X224295355Y-42535355D01*
X223490355Y-43340355D01*
X223474134Y-43351194D01*
X223435866Y-43351194D01*
X223408806Y-43324134D01*
X223408806Y-43285866D01*
X223419645Y-43269645D01*
X224224645Y-42464645D01*
X224240866Y-42453806D01*
X224279134Y-42453806D01*
X224306194Y-42480866D01*
G37*
G36*
X226776194Y-42480866D02*
G01*
X226776194Y-42519134D01*
X226765355Y-42535355D01*
X225960355Y-43340355D01*
X225944134Y-43351194D01*
X225905866Y-43351194D01*
X225878806Y-43324134D01*
X225878806Y-43285866D01*
X225889645Y-43269645D01*
X226694645Y-42464645D01*
X226710866Y-42453806D01*
X226749134Y-42453806D01*
X226776194Y-42480866D01*
G37*
G36*
X229246194Y-42480866D02*
G01*
X229246194Y-42519134D01*
X229235355Y-42535355D01*
X228430355Y-43340355D01*
X228414134Y-43351194D01*
X228375866Y-43351194D01*
X228348806Y-43324134D01*
X228348806Y-43285866D01*
X228359645Y-43269645D01*
X229164645Y-42464645D01*
X229180866Y-42453806D01*
X229219134Y-42453806D01*
X229246194Y-42480866D01*
G37*
G36*
X231716194Y-42480866D02*
G01*
X231716194Y-42519134D01*
X231705355Y-42535355D01*
X230900355Y-43340355D01*
X230884134Y-43351194D01*
X230845866Y-43351194D01*
X230818806Y-43324134D01*
X230818806Y-43285866D01*
X230829645Y-43269645D01*
X231634645Y-42464645D01*
X231650866Y-42453806D01*
X231689134Y-42453806D01*
X231716194Y-42480866D01*
G37*
G36*
X234186194Y-42480866D02*
G01*
X234186194Y-42519134D01*
X234175355Y-42535355D01*
X233370355Y-43340355D01*
X233354134Y-43351194D01*
X233315866Y-43351194D01*
X233288806Y-43324134D01*
X233288806Y-43285866D01*
X233299645Y-43269645D01*
X234104645Y-42464645D01*
X234120866Y-42453806D01*
X234159134Y-42453806D01*
X234186194Y-42480866D01*
G37*
G36*
X236656194Y-42480866D02*
G01*
X236656194Y-42519134D01*
X236645355Y-42535355D01*
X235840355Y-43340355D01*
X235824134Y-43351194D01*
X235785866Y-43351194D01*
X235758806Y-43324134D01*
X235758806Y-43285866D01*
X235769645Y-43269645D01*
X236574645Y-42464645D01*
X236590866Y-42453806D01*
X236629134Y-42453806D01*
X236656194Y-42480866D01*
G37*
G36*
X239126194Y-42480866D02*
G01*
X239126194Y-42519134D01*
X239115355Y-42535355D01*
X238310355Y-43340355D01*
X238294134Y-43351194D01*
X238255866Y-43351194D01*
X238228806Y-43324134D01*
X238228806Y-43285866D01*
X238239645Y-43269645D01*
X239044645Y-42464645D01*
X239060866Y-42453806D01*
X239099134Y-42453806D01*
X239126194Y-42480866D01*
G37*
G36*
X241596194Y-42480866D02*
G01*
X241596194Y-42519134D01*
X241585355Y-42535355D01*
X240780355Y-43340355D01*
X240764134Y-43351194D01*
X240725866Y-43351194D01*
X240698806Y-43324134D01*
X240698806Y-43285866D01*
X240709645Y-43269645D01*
X241514645Y-42464645D01*
X241530866Y-42453806D01*
X241569134Y-42453806D01*
X241596194Y-42480866D01*
G37*
G36*
X244066194Y-42480866D02*
G01*
X244066194Y-42519134D01*
X244055355Y-42535355D01*
X243250355Y-43340355D01*
X243234134Y-43351194D01*
X243195866Y-43351194D01*
X243168806Y-43324134D01*
X243168806Y-43285866D01*
X243179645Y-43269645D01*
X243984645Y-42464645D01*
X244000866Y-42453806D01*
X244039134Y-42453806D01*
X244066194Y-42480866D01*
G37*
G36*
X246536194Y-42480866D02*
G01*
X246536194Y-42519134D01*
X246525355Y-42535355D01*
X245720355Y-43340355D01*
X245704134Y-43351194D01*
X245665866Y-43351194D01*
X245638806Y-43324134D01*
X245638806Y-43285866D01*
X245649645Y-43269645D01*
X246454645Y-42464645D01*
X246470866Y-42453806D01*
X246509134Y-42453806D01*
X246536194Y-42480866D01*
G37*
D11*
X2337542Y-27483082D02*
X1137542Y-27483082D01*
X1137542Y-27483082D02*
X1137542Y-27768796D01*
X1137542Y-27768796D02*
X1194685Y-27940225D01*
X1194685Y-27940225D02*
X1308971Y-28054510D01*
X1308971Y-28054510D02*
X1423257Y-28111653D01*
X1423257Y-28111653D02*
X1651828Y-28168796D01*
X1651828Y-28168796D02*
X1823257Y-28168796D01*
X1823257Y-28168796D02*
X2051828Y-28111653D01*
X2051828Y-28111653D02*
X2166114Y-28054510D01*
X2166114Y-28054510D02*
X2280400Y-27940225D01*
X2280400Y-27940225D02*
X2337542Y-27768796D01*
X2337542Y-27768796D02*
X2337542Y-27483082D01*
X2223257Y-29368796D02*
X2280400Y-29311653D01*
X2280400Y-29311653D02*
X2337542Y-29140225D01*
X2337542Y-29140225D02*
X2337542Y-29025939D01*
X2337542Y-29025939D02*
X2280400Y-28854510D01*
X2280400Y-28854510D02*
X2166114Y-28740225D01*
X2166114Y-28740225D02*
X2051828Y-28683082D01*
X2051828Y-28683082D02*
X1823257Y-28625939D01*
X1823257Y-28625939D02*
X1651828Y-28625939D01*
X1651828Y-28625939D02*
X1423257Y-28683082D01*
X1423257Y-28683082D02*
X1308971Y-28740225D01*
X1308971Y-28740225D02*
X1194685Y-28854510D01*
X1194685Y-28854510D02*
X1137542Y-29025939D01*
X1137542Y-29025939D02*
X1137542Y-29140225D01*
X1137542Y-29140225D02*
X1194685Y-29311653D01*
X1194685Y-29311653D02*
X1251828Y-29368796D01*
X1880400Y-29883082D02*
X1880400Y-30797368D01*
X2737542Y-32568796D02*
X1023257Y-32568796D01*
X2337542Y-34340225D02*
X1137542Y-34340225D01*
X1137542Y-34340225D02*
X1137542Y-34797368D01*
X1137542Y-34797368D02*
X1194685Y-34911653D01*
X1194685Y-34911653D02*
X1251828Y-34968796D01*
X1251828Y-34968796D02*
X1366114Y-35025939D01*
X1366114Y-35025939D02*
X1537542Y-35025939D01*
X1537542Y-35025939D02*
X1651828Y-34968796D01*
X1651828Y-34968796D02*
X1708971Y-34911653D01*
X1708971Y-34911653D02*
X1766114Y-34797368D01*
X1766114Y-34797368D02*
X1766114Y-34340225D01*
X2337542Y-35540225D02*
X1137542Y-35540225D01*
X1708971Y-35540225D02*
X1708971Y-36225939D01*
X2337542Y-36225939D02*
X1137542Y-36225939D01*
X1137542Y-36797368D02*
X2108971Y-36797368D01*
X2108971Y-36797368D02*
X2223257Y-36854511D01*
X2223257Y-36854511D02*
X2280400Y-36911654D01*
X2280400Y-36911654D02*
X2337542Y-37025939D01*
X2337542Y-37025939D02*
X2337542Y-37254511D01*
X2337542Y-37254511D02*
X2280400Y-37368796D01*
X2280400Y-37368796D02*
X2223257Y-37425939D01*
X2223257Y-37425939D02*
X2108971Y-37483082D01*
X2108971Y-37483082D02*
X1137542Y-37483082D01*
X2737542Y-39254511D02*
X1023257Y-39254511D01*
X2337542Y-41025940D02*
X1137542Y-41025940D01*
X1137542Y-41025940D02*
X1137542Y-41483083D01*
X1137542Y-41483083D02*
X1194685Y-41597368D01*
X1194685Y-41597368D02*
X1251828Y-41654511D01*
X1251828Y-41654511D02*
X1366114Y-41711654D01*
X1366114Y-41711654D02*
X1537542Y-41711654D01*
X1537542Y-41711654D02*
X1651828Y-41654511D01*
X1651828Y-41654511D02*
X1708971Y-41597368D01*
X1708971Y-41597368D02*
X1766114Y-41483083D01*
X1766114Y-41483083D02*
X1766114Y-41025940D01*
X2337542Y-42225940D02*
X1137542Y-42225940D01*
X1708971Y-42225940D02*
X1708971Y-42911654D01*
X2337542Y-42911654D02*
X1137542Y-42911654D01*
X1137542Y-43311654D02*
X2337542Y-43711654D01*
X2337542Y-43711654D02*
X1137542Y-44111654D01*
X2737542Y-45711654D02*
X1023257Y-45711654D01*
X2337542Y-47483083D02*
X1137542Y-47483083D01*
X1137542Y-47483083D02*
X1137542Y-47940226D01*
X1137542Y-47940226D02*
X1194685Y-48054511D01*
X1194685Y-48054511D02*
X1251828Y-48111654D01*
X1251828Y-48111654D02*
X1366114Y-48168797D01*
X1366114Y-48168797D02*
X1537542Y-48168797D01*
X1537542Y-48168797D02*
X1651828Y-48111654D01*
X1651828Y-48111654D02*
X1708971Y-48054511D01*
X1708971Y-48054511D02*
X1766114Y-47940226D01*
X1766114Y-47940226D02*
X1766114Y-47483083D01*
X2337542Y-48683083D02*
X1137542Y-48683083D01*
X1708971Y-48683083D02*
X1708971Y-49368797D01*
X2337542Y-49368797D02*
X1137542Y-49368797D01*
X1137542Y-49825940D02*
X2337542Y-50111654D01*
X2337542Y-50111654D02*
X1480400Y-50340226D01*
X1480400Y-50340226D02*
X2337542Y-50568797D01*
X2337542Y-50568797D02*
X1137542Y-50854512D01*
X2737542Y-52511655D02*
X1023257Y-52511655D01*
X2337542Y-54283084D02*
X1137542Y-54283084D01*
X1137542Y-54283084D02*
X1137542Y-54568798D01*
X1137542Y-54568798D02*
X1194685Y-54740227D01*
X1194685Y-54740227D02*
X1308971Y-54854512D01*
X1308971Y-54854512D02*
X1423257Y-54911655D01*
X1423257Y-54911655D02*
X1651828Y-54968798D01*
X1651828Y-54968798D02*
X1823257Y-54968798D01*
X1823257Y-54968798D02*
X2051828Y-54911655D01*
X2051828Y-54911655D02*
X2166114Y-54854512D01*
X2166114Y-54854512D02*
X2280400Y-54740227D01*
X2280400Y-54740227D02*
X2337542Y-54568798D01*
X2337542Y-54568798D02*
X2337542Y-54283084D01*
X2223257Y-56168798D02*
X2280400Y-56111655D01*
X2280400Y-56111655D02*
X2337542Y-55940227D01*
X2337542Y-55940227D02*
X2337542Y-55825941D01*
X2337542Y-55825941D02*
X2280400Y-55654512D01*
X2280400Y-55654512D02*
X2166114Y-55540227D01*
X2166114Y-55540227D02*
X2051828Y-55483084D01*
X2051828Y-55483084D02*
X1823257Y-55425941D01*
X1823257Y-55425941D02*
X1651828Y-55425941D01*
X1651828Y-55425941D02*
X1423257Y-55483084D01*
X1423257Y-55483084D02*
X1308971Y-55540227D01*
X1308971Y-55540227D02*
X1194685Y-55654512D01*
X1194685Y-55654512D02*
X1137542Y-55825941D01*
X1137542Y-55825941D02*
X1137542Y-55940227D01*
X1137542Y-55940227D02*
X1194685Y-56111655D01*
X1194685Y-56111655D02*
X1251828Y-56168798D01*
X1880400Y-56683084D02*
X1880400Y-57597370D01*
X2337542Y-57140227D02*
X1423257Y-57140227D01*
X2737542Y-59368798D02*
X1023257Y-59368798D01*
X1194685Y-61768798D02*
X1137542Y-61654513D01*
X1137542Y-61654513D02*
X1137542Y-61483084D01*
X1137542Y-61483084D02*
X1194685Y-61311655D01*
X1194685Y-61311655D02*
X1308971Y-61197370D01*
X1308971Y-61197370D02*
X1423257Y-61140227D01*
X1423257Y-61140227D02*
X1651828Y-61083084D01*
X1651828Y-61083084D02*
X1823257Y-61083084D01*
X1823257Y-61083084D02*
X2051828Y-61140227D01*
X2051828Y-61140227D02*
X2166114Y-61197370D01*
X2166114Y-61197370D02*
X2280400Y-61311655D01*
X2280400Y-61311655D02*
X2337542Y-61483084D01*
X2337542Y-61483084D02*
X2337542Y-61597370D01*
X2337542Y-61597370D02*
X2280400Y-61768798D01*
X2280400Y-61768798D02*
X2223257Y-61825941D01*
X2223257Y-61825941D02*
X1823257Y-61825941D01*
X1823257Y-61825941D02*
X1823257Y-61597370D01*
X2337542Y-62340227D02*
X1137542Y-62340227D01*
X1137542Y-62340227D02*
X2337542Y-63025941D01*
X2337542Y-63025941D02*
X1137542Y-63025941D01*
X2337542Y-63597370D02*
X1137542Y-63597370D01*
X1137542Y-63597370D02*
X1137542Y-63883084D01*
X1137542Y-63883084D02*
X1194685Y-64054513D01*
X1194685Y-64054513D02*
X1308971Y-64168798D01*
X1308971Y-64168798D02*
X1423257Y-64225941D01*
X1423257Y-64225941D02*
X1651828Y-64283084D01*
X1651828Y-64283084D02*
X1823257Y-64283084D01*
X1823257Y-64283084D02*
X2051828Y-64225941D01*
X2051828Y-64225941D02*
X2166114Y-64168798D01*
X2166114Y-64168798D02*
X2280400Y-64054513D01*
X2280400Y-64054513D02*
X2337542Y-63883084D01*
X2337542Y-63883084D02*
X2337542Y-63597370D01*
X13837542Y-28483082D02*
X12637542Y-28483082D01*
X12637542Y-28483082D02*
X12637542Y-28768796D01*
X12637542Y-28768796D02*
X12694685Y-28940225D01*
X12694685Y-28940225D02*
X12808971Y-29054510D01*
X12808971Y-29054510D02*
X12923257Y-29111653D01*
X12923257Y-29111653D02*
X13151828Y-29168796D01*
X13151828Y-29168796D02*
X13323257Y-29168796D01*
X13323257Y-29168796D02*
X13551828Y-29111653D01*
X13551828Y-29111653D02*
X13666114Y-29054510D01*
X13666114Y-29054510D02*
X13780400Y-28940225D01*
X13780400Y-28940225D02*
X13837542Y-28768796D01*
X13837542Y-28768796D02*
X13837542Y-28483082D01*
X13723257Y-30368796D02*
X13780400Y-30311653D01*
X13780400Y-30311653D02*
X13837542Y-30140225D01*
X13837542Y-30140225D02*
X13837542Y-30025939D01*
X13837542Y-30025939D02*
X13780400Y-29854510D01*
X13780400Y-29854510D02*
X13666114Y-29740225D01*
X13666114Y-29740225D02*
X13551828Y-29683082D01*
X13551828Y-29683082D02*
X13323257Y-29625939D01*
X13323257Y-29625939D02*
X13151828Y-29625939D01*
X13151828Y-29625939D02*
X12923257Y-29683082D01*
X12923257Y-29683082D02*
X12808971Y-29740225D01*
X12808971Y-29740225D02*
X12694685Y-29854510D01*
X12694685Y-29854510D02*
X12637542Y-30025939D01*
X12637542Y-30025939D02*
X12637542Y-30140225D01*
X12637542Y-30140225D02*
X12694685Y-30311653D01*
X12694685Y-30311653D02*
X12751828Y-30368796D01*
X13380400Y-30883082D02*
X13380400Y-31797368D01*
X14237542Y-33568796D02*
X12523257Y-33568796D01*
X13837542Y-35340225D02*
X12637542Y-35340225D01*
X12637542Y-35340225D02*
X12637542Y-35797368D01*
X12637542Y-35797368D02*
X12694685Y-35911653D01*
X12694685Y-35911653D02*
X12751828Y-35968796D01*
X12751828Y-35968796D02*
X12866114Y-36025939D01*
X12866114Y-36025939D02*
X13037542Y-36025939D01*
X13037542Y-36025939D02*
X13151828Y-35968796D01*
X13151828Y-35968796D02*
X13208971Y-35911653D01*
X13208971Y-35911653D02*
X13266114Y-35797368D01*
X13266114Y-35797368D02*
X13266114Y-35340225D01*
X13837542Y-36540225D02*
X12637542Y-36540225D01*
X13208971Y-36540225D02*
X13208971Y-37225939D01*
X13837542Y-37225939D02*
X12637542Y-37225939D01*
X12637542Y-37797368D02*
X13608971Y-37797368D01*
X13608971Y-37797368D02*
X13723257Y-37854511D01*
X13723257Y-37854511D02*
X13780400Y-37911654D01*
X13780400Y-37911654D02*
X13837542Y-38025939D01*
X13837542Y-38025939D02*
X13837542Y-38254511D01*
X13837542Y-38254511D02*
X13780400Y-38368796D01*
X13780400Y-38368796D02*
X13723257Y-38425939D01*
X13723257Y-38425939D02*
X13608971Y-38483082D01*
X13608971Y-38483082D02*
X12637542Y-38483082D01*
X14237542Y-40254511D02*
X12523257Y-40254511D01*
X13837542Y-42025940D02*
X12637542Y-42025940D01*
X12637542Y-42025940D02*
X12637542Y-42483083D01*
X12637542Y-42483083D02*
X12694685Y-42597368D01*
X12694685Y-42597368D02*
X12751828Y-42654511D01*
X12751828Y-42654511D02*
X12866114Y-42711654D01*
X12866114Y-42711654D02*
X13037542Y-42711654D01*
X13037542Y-42711654D02*
X13151828Y-42654511D01*
X13151828Y-42654511D02*
X13208971Y-42597368D01*
X13208971Y-42597368D02*
X13266114Y-42483083D01*
X13266114Y-42483083D02*
X13266114Y-42025940D01*
X13837542Y-43225940D02*
X12637542Y-43225940D01*
X13208971Y-43225940D02*
X13208971Y-43911654D01*
X13837542Y-43911654D02*
X12637542Y-43911654D01*
X12637542Y-44311654D02*
X13837542Y-44711654D01*
X13837542Y-44711654D02*
X12637542Y-45111654D01*
X14237542Y-46711654D02*
X12523257Y-46711654D01*
X13837542Y-48483083D02*
X12637542Y-48483083D01*
X12637542Y-48483083D02*
X12637542Y-48940226D01*
X12637542Y-48940226D02*
X12694685Y-49054511D01*
X12694685Y-49054511D02*
X12751828Y-49111654D01*
X12751828Y-49111654D02*
X12866114Y-49168797D01*
X12866114Y-49168797D02*
X13037542Y-49168797D01*
X13037542Y-49168797D02*
X13151828Y-49111654D01*
X13151828Y-49111654D02*
X13208971Y-49054511D01*
X13208971Y-49054511D02*
X13266114Y-48940226D01*
X13266114Y-48940226D02*
X13266114Y-48483083D01*
X13837542Y-49683083D02*
X12637542Y-49683083D01*
X13208971Y-49683083D02*
X13208971Y-50368797D01*
X13837542Y-50368797D02*
X12637542Y-50368797D01*
X12637542Y-50825940D02*
X13837542Y-51111654D01*
X13837542Y-51111654D02*
X12980400Y-51340226D01*
X12980400Y-51340226D02*
X13837542Y-51568797D01*
X13837542Y-51568797D02*
X12637542Y-51854512D01*
X14237542Y-53511655D02*
X12523257Y-53511655D01*
X13837542Y-55283084D02*
X12637542Y-55283084D01*
X12637542Y-55283084D02*
X12637542Y-55568798D01*
X12637542Y-55568798D02*
X12694685Y-55740227D01*
X12694685Y-55740227D02*
X12808971Y-55854512D01*
X12808971Y-55854512D02*
X12923257Y-55911655D01*
X12923257Y-55911655D02*
X13151828Y-55968798D01*
X13151828Y-55968798D02*
X13323257Y-55968798D01*
X13323257Y-55968798D02*
X13551828Y-55911655D01*
X13551828Y-55911655D02*
X13666114Y-55854512D01*
X13666114Y-55854512D02*
X13780400Y-55740227D01*
X13780400Y-55740227D02*
X13837542Y-55568798D01*
X13837542Y-55568798D02*
X13837542Y-55283084D01*
X13723257Y-57168798D02*
X13780400Y-57111655D01*
X13780400Y-57111655D02*
X13837542Y-56940227D01*
X13837542Y-56940227D02*
X13837542Y-56825941D01*
X13837542Y-56825941D02*
X13780400Y-56654512D01*
X13780400Y-56654512D02*
X13666114Y-56540227D01*
X13666114Y-56540227D02*
X13551828Y-56483084D01*
X13551828Y-56483084D02*
X13323257Y-56425941D01*
X13323257Y-56425941D02*
X13151828Y-56425941D01*
X13151828Y-56425941D02*
X12923257Y-56483084D01*
X12923257Y-56483084D02*
X12808971Y-56540227D01*
X12808971Y-56540227D02*
X12694685Y-56654512D01*
X12694685Y-56654512D02*
X12637542Y-56825941D01*
X12637542Y-56825941D02*
X12637542Y-56940227D01*
X12637542Y-56940227D02*
X12694685Y-57111655D01*
X12694685Y-57111655D02*
X12751828Y-57168798D01*
X13380400Y-57683084D02*
X13380400Y-58597370D01*
X13837542Y-58140227D02*
X12923257Y-58140227D01*
X14237542Y-60368798D02*
X12523257Y-60368798D01*
X12694685Y-62768798D02*
X12637542Y-62654513D01*
X12637542Y-62654513D02*
X12637542Y-62483084D01*
X12637542Y-62483084D02*
X12694685Y-62311655D01*
X12694685Y-62311655D02*
X12808971Y-62197370D01*
X12808971Y-62197370D02*
X12923257Y-62140227D01*
X12923257Y-62140227D02*
X13151828Y-62083084D01*
X13151828Y-62083084D02*
X13323257Y-62083084D01*
X13323257Y-62083084D02*
X13551828Y-62140227D01*
X13551828Y-62140227D02*
X13666114Y-62197370D01*
X13666114Y-62197370D02*
X13780400Y-62311655D01*
X13780400Y-62311655D02*
X13837542Y-62483084D01*
X13837542Y-62483084D02*
X13837542Y-62597370D01*
X13837542Y-62597370D02*
X13780400Y-62768798D01*
X13780400Y-62768798D02*
X13723257Y-62825941D01*
X13723257Y-62825941D02*
X13323257Y-62825941D01*
X13323257Y-62825941D02*
X13323257Y-62597370D01*
X13837542Y-63340227D02*
X12637542Y-63340227D01*
X12637542Y-63340227D02*
X13837542Y-64025941D01*
X13837542Y-64025941D02*
X12637542Y-64025941D01*
X13837542Y-64597370D02*
X12637542Y-64597370D01*
X12637542Y-64597370D02*
X12637542Y-64883084D01*
X12637542Y-64883084D02*
X12694685Y-65054513D01*
X12694685Y-65054513D02*
X12808971Y-65168798D01*
X12808971Y-65168798D02*
X12923257Y-65225941D01*
X12923257Y-65225941D02*
X13151828Y-65283084D01*
X13151828Y-65283084D02*
X13323257Y-65283084D01*
X13323257Y-65283084D02*
X13551828Y-65225941D01*
X13551828Y-65225941D02*
X13666114Y-65168798D01*
X13666114Y-65168798D02*
X13780400Y-65054513D01*
X13780400Y-65054513D02*
X13837542Y-64883084D01*
X13837542Y-64883084D02*
X13837542Y-64597370D01*
D12*
X61250000Y-26674428D02*
X61250000Y-25174428D01*
X61250000Y-25174428D02*
X60892857Y-25174428D01*
X60892857Y-25174428D02*
X60678571Y-25245857D01*
X60678571Y-25245857D02*
X60535714Y-25388714D01*
X60535714Y-25388714D02*
X60464285Y-25531571D01*
X60464285Y-25531571D02*
X60392857Y-25817285D01*
X60392857Y-25817285D02*
X60392857Y-26031571D01*
X60392857Y-26031571D02*
X60464285Y-26317285D01*
X60464285Y-26317285D02*
X60535714Y-26460142D01*
X60535714Y-26460142D02*
X60678571Y-26603000D01*
X60678571Y-26603000D02*
X60892857Y-26674428D01*
X60892857Y-26674428D02*
X61250000Y-26674428D01*
X58892857Y-26531571D02*
X58964285Y-26603000D01*
X58964285Y-26603000D02*
X59178571Y-26674428D01*
X59178571Y-26674428D02*
X59321428Y-26674428D01*
X59321428Y-26674428D02*
X59535714Y-26603000D01*
X59535714Y-26603000D02*
X59678571Y-26460142D01*
X59678571Y-26460142D02*
X59750000Y-26317285D01*
X59750000Y-26317285D02*
X59821428Y-26031571D01*
X59821428Y-26031571D02*
X59821428Y-25817285D01*
X59821428Y-25817285D02*
X59750000Y-25531571D01*
X59750000Y-25531571D02*
X59678571Y-25388714D01*
X59678571Y-25388714D02*
X59535714Y-25245857D01*
X59535714Y-25245857D02*
X59321428Y-25174428D01*
X59321428Y-25174428D02*
X59178571Y-25174428D01*
X59178571Y-25174428D02*
X58964285Y-25245857D01*
X58964285Y-25245857D02*
X58892857Y-25317285D01*
X56392857Y-26674428D02*
X57107143Y-26674428D01*
X57107143Y-26674428D02*
X57107143Y-25174428D01*
X55892857Y-26674428D02*
X55892857Y-25174428D01*
X55178571Y-26674428D02*
X55178571Y-25174428D01*
X55178571Y-25174428D02*
X54321428Y-26674428D01*
X54321428Y-26674428D02*
X54321428Y-25174428D01*
X53607142Y-26674428D02*
X53607142Y-25174428D01*
X52749999Y-26674428D02*
X53392856Y-25817285D01*
X52749999Y-25174428D02*
X53607142Y-26031571D01*
X50964285Y-26103000D02*
X49821428Y-26103000D01*
X47464285Y-25888714D02*
X47249999Y-25960142D01*
X47249999Y-25960142D02*
X47178570Y-26031571D01*
X47178570Y-26031571D02*
X47107142Y-26174428D01*
X47107142Y-26174428D02*
X47107142Y-26388714D01*
X47107142Y-26388714D02*
X47178570Y-26531571D01*
X47178570Y-26531571D02*
X47249999Y-26603000D01*
X47249999Y-26603000D02*
X47392856Y-26674428D01*
X47392856Y-26674428D02*
X47964285Y-26674428D01*
X47964285Y-26674428D02*
X47964285Y-25174428D01*
X47964285Y-25174428D02*
X47464285Y-25174428D01*
X47464285Y-25174428D02*
X47321428Y-25245857D01*
X47321428Y-25245857D02*
X47249999Y-25317285D01*
X47249999Y-25317285D02*
X47178570Y-25460142D01*
X47178570Y-25460142D02*
X47178570Y-25603000D01*
X47178570Y-25603000D02*
X47249999Y-25745857D01*
X47249999Y-25745857D02*
X47321428Y-25817285D01*
X47321428Y-25817285D02*
X47464285Y-25888714D01*
X47464285Y-25888714D02*
X47964285Y-25888714D01*
X46464285Y-25174428D02*
X46464285Y-26388714D01*
X46464285Y-26388714D02*
X46392856Y-26531571D01*
X46392856Y-26531571D02*
X46321428Y-26603000D01*
X46321428Y-26603000D02*
X46178570Y-26674428D01*
X46178570Y-26674428D02*
X45892856Y-26674428D01*
X45892856Y-26674428D02*
X45749999Y-26603000D01*
X45749999Y-26603000D02*
X45678570Y-26531571D01*
X45678570Y-26531571D02*
X45607142Y-26388714D01*
X45607142Y-26388714D02*
X45607142Y-25174428D01*
X44964284Y-26603000D02*
X44749999Y-26674428D01*
X44749999Y-26674428D02*
X44392856Y-26674428D01*
X44392856Y-26674428D02*
X44249999Y-26603000D01*
X44249999Y-26603000D02*
X44178570Y-26531571D01*
X44178570Y-26531571D02*
X44107141Y-26388714D01*
X44107141Y-26388714D02*
X44107141Y-26245857D01*
X44107141Y-26245857D02*
X44178570Y-26103000D01*
X44178570Y-26103000D02*
X44249999Y-26031571D01*
X44249999Y-26031571D02*
X44392856Y-25960142D01*
X44392856Y-25960142D02*
X44678570Y-25888714D01*
X44678570Y-25888714D02*
X44821427Y-25817285D01*
X44821427Y-25817285D02*
X44892856Y-25745857D01*
X44892856Y-25745857D02*
X44964284Y-25603000D01*
X44964284Y-25603000D02*
X44964284Y-25460142D01*
X44964284Y-25460142D02*
X44892856Y-25317285D01*
X44892856Y-25317285D02*
X44821427Y-25245857D01*
X44821427Y-25245857D02*
X44678570Y-25174428D01*
X44678570Y-25174428D02*
X44321427Y-25174428D01*
X44321427Y-25174428D02*
X44107141Y-25245857D01*
X41821428Y-25888714D02*
X41607142Y-25960142D01*
X41607142Y-25960142D02*
X41535713Y-26031571D01*
X41535713Y-26031571D02*
X41464285Y-26174428D01*
X41464285Y-26174428D02*
X41464285Y-26388714D01*
X41464285Y-26388714D02*
X41535713Y-26531571D01*
X41535713Y-26531571D02*
X41607142Y-26603000D01*
X41607142Y-26603000D02*
X41749999Y-26674428D01*
X41749999Y-26674428D02*
X42321428Y-26674428D01*
X42321428Y-26674428D02*
X42321428Y-25174428D01*
X42321428Y-25174428D02*
X41821428Y-25174428D01*
X41821428Y-25174428D02*
X41678571Y-25245857D01*
X41678571Y-25245857D02*
X41607142Y-25317285D01*
X41607142Y-25317285D02*
X41535713Y-25460142D01*
X41535713Y-25460142D02*
X41535713Y-25603000D01*
X41535713Y-25603000D02*
X41607142Y-25745857D01*
X41607142Y-25745857D02*
X41678571Y-25817285D01*
X41678571Y-25817285D02*
X41821428Y-25888714D01*
X41821428Y-25888714D02*
X42321428Y-25888714D01*
X40892856Y-26245857D02*
X40178571Y-26245857D01*
X41035713Y-26674428D02*
X40535713Y-25174428D01*
X40535713Y-25174428D02*
X40035713Y-26674428D01*
X38678571Y-26674428D02*
X39178571Y-25960142D01*
X39535714Y-26674428D02*
X39535714Y-25174428D01*
X39535714Y-25174428D02*
X38964285Y-25174428D01*
X38964285Y-25174428D02*
X38821428Y-25245857D01*
X38821428Y-25245857D02*
X38749999Y-25317285D01*
X38749999Y-25317285D02*
X38678571Y-25460142D01*
X38678571Y-25460142D02*
X38678571Y-25674428D01*
X38678571Y-25674428D02*
X38749999Y-25817285D01*
X38749999Y-25817285D02*
X38821428Y-25888714D01*
X38821428Y-25888714D02*
X38964285Y-25960142D01*
X38964285Y-25960142D02*
X39535714Y-25960142D01*
X61250000Y-74174428D02*
X61250000Y-72674428D01*
X61250000Y-72674428D02*
X60892857Y-72674428D01*
X60892857Y-72674428D02*
X60678571Y-72745857D01*
X60678571Y-72745857D02*
X60535714Y-72888714D01*
X60535714Y-72888714D02*
X60464285Y-73031571D01*
X60464285Y-73031571D02*
X60392857Y-73317285D01*
X60392857Y-73317285D02*
X60392857Y-73531571D01*
X60392857Y-73531571D02*
X60464285Y-73817285D01*
X60464285Y-73817285D02*
X60535714Y-73960142D01*
X60535714Y-73960142D02*
X60678571Y-74103000D01*
X60678571Y-74103000D02*
X60892857Y-74174428D01*
X60892857Y-74174428D02*
X61250000Y-74174428D01*
X58892857Y-74031571D02*
X58964285Y-74103000D01*
X58964285Y-74103000D02*
X59178571Y-74174428D01*
X59178571Y-74174428D02*
X59321428Y-74174428D01*
X59321428Y-74174428D02*
X59535714Y-74103000D01*
X59535714Y-74103000D02*
X59678571Y-73960142D01*
X59678571Y-73960142D02*
X59750000Y-73817285D01*
X59750000Y-73817285D02*
X59821428Y-73531571D01*
X59821428Y-73531571D02*
X59821428Y-73317285D01*
X59821428Y-73317285D02*
X59750000Y-73031571D01*
X59750000Y-73031571D02*
X59678571Y-72888714D01*
X59678571Y-72888714D02*
X59535714Y-72745857D01*
X59535714Y-72745857D02*
X59321428Y-72674428D01*
X59321428Y-72674428D02*
X59178571Y-72674428D01*
X59178571Y-72674428D02*
X58964285Y-72745857D01*
X58964285Y-72745857D02*
X58892857Y-72817285D01*
X56392857Y-74174428D02*
X57107143Y-74174428D01*
X57107143Y-74174428D02*
X57107143Y-72674428D01*
X55892857Y-74174428D02*
X55892857Y-72674428D01*
X55178571Y-74174428D02*
X55178571Y-72674428D01*
X55178571Y-72674428D02*
X54321428Y-74174428D01*
X54321428Y-74174428D02*
X54321428Y-72674428D01*
X53607142Y-74174428D02*
X53607142Y-72674428D01*
X52749999Y-74174428D02*
X53392856Y-73317285D01*
X52749999Y-72674428D02*
X53607142Y-73531571D01*
X50964285Y-73603000D02*
X49821428Y-73603000D01*
X50392856Y-74174428D02*
X50392856Y-73031571D01*
X47464285Y-73388714D02*
X47249999Y-73460142D01*
X47249999Y-73460142D02*
X47178570Y-73531571D01*
X47178570Y-73531571D02*
X47107142Y-73674428D01*
X47107142Y-73674428D02*
X47107142Y-73888714D01*
X47107142Y-73888714D02*
X47178570Y-74031571D01*
X47178570Y-74031571D02*
X47249999Y-74103000D01*
X47249999Y-74103000D02*
X47392856Y-74174428D01*
X47392856Y-74174428D02*
X47964285Y-74174428D01*
X47964285Y-74174428D02*
X47964285Y-72674428D01*
X47964285Y-72674428D02*
X47464285Y-72674428D01*
X47464285Y-72674428D02*
X47321428Y-72745857D01*
X47321428Y-72745857D02*
X47249999Y-72817285D01*
X47249999Y-72817285D02*
X47178570Y-72960142D01*
X47178570Y-72960142D02*
X47178570Y-73103000D01*
X47178570Y-73103000D02*
X47249999Y-73245857D01*
X47249999Y-73245857D02*
X47321428Y-73317285D01*
X47321428Y-73317285D02*
X47464285Y-73388714D01*
X47464285Y-73388714D02*
X47964285Y-73388714D01*
X46464285Y-72674428D02*
X46464285Y-73888714D01*
X46464285Y-73888714D02*
X46392856Y-74031571D01*
X46392856Y-74031571D02*
X46321428Y-74103000D01*
X46321428Y-74103000D02*
X46178570Y-74174428D01*
X46178570Y-74174428D02*
X45892856Y-74174428D01*
X45892856Y-74174428D02*
X45749999Y-74103000D01*
X45749999Y-74103000D02*
X45678570Y-74031571D01*
X45678570Y-74031571D02*
X45607142Y-73888714D01*
X45607142Y-73888714D02*
X45607142Y-72674428D01*
X44964284Y-74103000D02*
X44749999Y-74174428D01*
X44749999Y-74174428D02*
X44392856Y-74174428D01*
X44392856Y-74174428D02*
X44249999Y-74103000D01*
X44249999Y-74103000D02*
X44178570Y-74031571D01*
X44178570Y-74031571D02*
X44107141Y-73888714D01*
X44107141Y-73888714D02*
X44107141Y-73745857D01*
X44107141Y-73745857D02*
X44178570Y-73603000D01*
X44178570Y-73603000D02*
X44249999Y-73531571D01*
X44249999Y-73531571D02*
X44392856Y-73460142D01*
X44392856Y-73460142D02*
X44678570Y-73388714D01*
X44678570Y-73388714D02*
X44821427Y-73317285D01*
X44821427Y-73317285D02*
X44892856Y-73245857D01*
X44892856Y-73245857D02*
X44964284Y-73103000D01*
X44964284Y-73103000D02*
X44964284Y-72960142D01*
X44964284Y-72960142D02*
X44892856Y-72817285D01*
X44892856Y-72817285D02*
X44821427Y-72745857D01*
X44821427Y-72745857D02*
X44678570Y-72674428D01*
X44678570Y-72674428D02*
X44321427Y-72674428D01*
X44321427Y-72674428D02*
X44107141Y-72745857D01*
X41821428Y-73388714D02*
X41607142Y-73460142D01*
X41607142Y-73460142D02*
X41535713Y-73531571D01*
X41535713Y-73531571D02*
X41464285Y-73674428D01*
X41464285Y-73674428D02*
X41464285Y-73888714D01*
X41464285Y-73888714D02*
X41535713Y-74031571D01*
X41535713Y-74031571D02*
X41607142Y-74103000D01*
X41607142Y-74103000D02*
X41749999Y-74174428D01*
X41749999Y-74174428D02*
X42321428Y-74174428D01*
X42321428Y-74174428D02*
X42321428Y-72674428D01*
X42321428Y-72674428D02*
X41821428Y-72674428D01*
X41821428Y-72674428D02*
X41678571Y-72745857D01*
X41678571Y-72745857D02*
X41607142Y-72817285D01*
X41607142Y-72817285D02*
X41535713Y-72960142D01*
X41535713Y-72960142D02*
X41535713Y-73103000D01*
X41535713Y-73103000D02*
X41607142Y-73245857D01*
X41607142Y-73245857D02*
X41678571Y-73317285D01*
X41678571Y-73317285D02*
X41821428Y-73388714D01*
X41821428Y-73388714D02*
X42321428Y-73388714D01*
X40892856Y-73745857D02*
X40178571Y-73745857D01*
X41035713Y-74174428D02*
X40535713Y-72674428D01*
X40535713Y-72674428D02*
X40035713Y-74174428D01*
X38678571Y-74174428D02*
X39178571Y-73460142D01*
X39535714Y-74174428D02*
X39535714Y-72674428D01*
X39535714Y-72674428D02*
X38964285Y-72674428D01*
X38964285Y-72674428D02*
X38821428Y-72745857D01*
X38821428Y-72745857D02*
X38749999Y-72817285D01*
X38749999Y-72817285D02*
X38678571Y-72960142D01*
X38678571Y-72960142D02*
X38678571Y-73174428D01*
X38678571Y-73174428D02*
X38749999Y-73317285D01*
X38749999Y-73317285D02*
X38821428Y-73388714D01*
X38821428Y-73388714D02*
X38964285Y-73460142D01*
X38964285Y-73460142D02*
X39535714Y-73460142D01*
X151250000Y-26674428D02*
X151250000Y-25174428D01*
X151250000Y-25174428D02*
X150892857Y-25174428D01*
X150892857Y-25174428D02*
X150678571Y-25245857D01*
X150678571Y-25245857D02*
X150535714Y-25388714D01*
X150535714Y-25388714D02*
X150464285Y-25531571D01*
X150464285Y-25531571D02*
X150392857Y-25817285D01*
X150392857Y-25817285D02*
X150392857Y-26031571D01*
X150392857Y-26031571D02*
X150464285Y-26317285D01*
X150464285Y-26317285D02*
X150535714Y-26460142D01*
X150535714Y-26460142D02*
X150678571Y-26603000D01*
X150678571Y-26603000D02*
X150892857Y-26674428D01*
X150892857Y-26674428D02*
X151250000Y-26674428D01*
X148892857Y-26531571D02*
X148964285Y-26603000D01*
X148964285Y-26603000D02*
X149178571Y-26674428D01*
X149178571Y-26674428D02*
X149321428Y-26674428D01*
X149321428Y-26674428D02*
X149535714Y-26603000D01*
X149535714Y-26603000D02*
X149678571Y-26460142D01*
X149678571Y-26460142D02*
X149750000Y-26317285D01*
X149750000Y-26317285D02*
X149821428Y-26031571D01*
X149821428Y-26031571D02*
X149821428Y-25817285D01*
X149821428Y-25817285D02*
X149750000Y-25531571D01*
X149750000Y-25531571D02*
X149678571Y-25388714D01*
X149678571Y-25388714D02*
X149535714Y-25245857D01*
X149535714Y-25245857D02*
X149321428Y-25174428D01*
X149321428Y-25174428D02*
X149178571Y-25174428D01*
X149178571Y-25174428D02*
X148964285Y-25245857D01*
X148964285Y-25245857D02*
X148892857Y-25317285D01*
X146392857Y-26674428D02*
X147107143Y-26674428D01*
X147107143Y-26674428D02*
X147107143Y-25174428D01*
X145892857Y-26674428D02*
X145892857Y-25174428D01*
X145178571Y-26674428D02*
X145178571Y-25174428D01*
X145178571Y-25174428D02*
X144321428Y-26674428D01*
X144321428Y-26674428D02*
X144321428Y-25174428D01*
X143607142Y-26674428D02*
X143607142Y-25174428D01*
X142749999Y-26674428D02*
X143392856Y-25817285D01*
X142749999Y-25174428D02*
X143607142Y-26031571D01*
X140964285Y-26103000D02*
X139821428Y-26103000D01*
X137464285Y-25888714D02*
X137249999Y-25960142D01*
X137249999Y-25960142D02*
X137178570Y-26031571D01*
X137178570Y-26031571D02*
X137107142Y-26174428D01*
X137107142Y-26174428D02*
X137107142Y-26388714D01*
X137107142Y-26388714D02*
X137178570Y-26531571D01*
X137178570Y-26531571D02*
X137249999Y-26603000D01*
X137249999Y-26603000D02*
X137392856Y-26674428D01*
X137392856Y-26674428D02*
X137964285Y-26674428D01*
X137964285Y-26674428D02*
X137964285Y-25174428D01*
X137964285Y-25174428D02*
X137464285Y-25174428D01*
X137464285Y-25174428D02*
X137321428Y-25245857D01*
X137321428Y-25245857D02*
X137249999Y-25317285D01*
X137249999Y-25317285D02*
X137178570Y-25460142D01*
X137178570Y-25460142D02*
X137178570Y-25603000D01*
X137178570Y-25603000D02*
X137249999Y-25745857D01*
X137249999Y-25745857D02*
X137321428Y-25817285D01*
X137321428Y-25817285D02*
X137464285Y-25888714D01*
X137464285Y-25888714D02*
X137964285Y-25888714D01*
X136464285Y-25174428D02*
X136464285Y-26388714D01*
X136464285Y-26388714D02*
X136392856Y-26531571D01*
X136392856Y-26531571D02*
X136321428Y-26603000D01*
X136321428Y-26603000D02*
X136178570Y-26674428D01*
X136178570Y-26674428D02*
X135892856Y-26674428D01*
X135892856Y-26674428D02*
X135749999Y-26603000D01*
X135749999Y-26603000D02*
X135678570Y-26531571D01*
X135678570Y-26531571D02*
X135607142Y-26388714D01*
X135607142Y-26388714D02*
X135607142Y-25174428D01*
X134964284Y-26603000D02*
X134749999Y-26674428D01*
X134749999Y-26674428D02*
X134392856Y-26674428D01*
X134392856Y-26674428D02*
X134249999Y-26603000D01*
X134249999Y-26603000D02*
X134178570Y-26531571D01*
X134178570Y-26531571D02*
X134107141Y-26388714D01*
X134107141Y-26388714D02*
X134107141Y-26245857D01*
X134107141Y-26245857D02*
X134178570Y-26103000D01*
X134178570Y-26103000D02*
X134249999Y-26031571D01*
X134249999Y-26031571D02*
X134392856Y-25960142D01*
X134392856Y-25960142D02*
X134678570Y-25888714D01*
X134678570Y-25888714D02*
X134821427Y-25817285D01*
X134821427Y-25817285D02*
X134892856Y-25745857D01*
X134892856Y-25745857D02*
X134964284Y-25603000D01*
X134964284Y-25603000D02*
X134964284Y-25460142D01*
X134964284Y-25460142D02*
X134892856Y-25317285D01*
X134892856Y-25317285D02*
X134821427Y-25245857D01*
X134821427Y-25245857D02*
X134678570Y-25174428D01*
X134678570Y-25174428D02*
X134321427Y-25174428D01*
X134321427Y-25174428D02*
X134107141Y-25245857D01*
X131821428Y-25888714D02*
X131607142Y-25960142D01*
X131607142Y-25960142D02*
X131535713Y-26031571D01*
X131535713Y-26031571D02*
X131464285Y-26174428D01*
X131464285Y-26174428D02*
X131464285Y-26388714D01*
X131464285Y-26388714D02*
X131535713Y-26531571D01*
X131535713Y-26531571D02*
X131607142Y-26603000D01*
X131607142Y-26603000D02*
X131749999Y-26674428D01*
X131749999Y-26674428D02*
X132321428Y-26674428D01*
X132321428Y-26674428D02*
X132321428Y-25174428D01*
X132321428Y-25174428D02*
X131821428Y-25174428D01*
X131821428Y-25174428D02*
X131678571Y-25245857D01*
X131678571Y-25245857D02*
X131607142Y-25317285D01*
X131607142Y-25317285D02*
X131535713Y-25460142D01*
X131535713Y-25460142D02*
X131535713Y-25603000D01*
X131535713Y-25603000D02*
X131607142Y-25745857D01*
X131607142Y-25745857D02*
X131678571Y-25817285D01*
X131678571Y-25817285D02*
X131821428Y-25888714D01*
X131821428Y-25888714D02*
X132321428Y-25888714D01*
X130892856Y-26245857D02*
X130178571Y-26245857D01*
X131035713Y-26674428D02*
X130535713Y-25174428D01*
X130535713Y-25174428D02*
X130035713Y-26674428D01*
X128678571Y-26674428D02*
X129178571Y-25960142D01*
X129535714Y-26674428D02*
X129535714Y-25174428D01*
X129535714Y-25174428D02*
X128964285Y-25174428D01*
X128964285Y-25174428D02*
X128821428Y-25245857D01*
X128821428Y-25245857D02*
X128749999Y-25317285D01*
X128749999Y-25317285D02*
X128678571Y-25460142D01*
X128678571Y-25460142D02*
X128678571Y-25674428D01*
X128678571Y-25674428D02*
X128749999Y-25817285D01*
X128749999Y-25817285D02*
X128821428Y-25888714D01*
X128821428Y-25888714D02*
X128964285Y-25960142D01*
X128964285Y-25960142D02*
X129535714Y-25960142D01*
X151250000Y-74174428D02*
X151250000Y-72674428D01*
X151250000Y-72674428D02*
X150892857Y-72674428D01*
X150892857Y-72674428D02*
X150678571Y-72745857D01*
X150678571Y-72745857D02*
X150535714Y-72888714D01*
X150535714Y-72888714D02*
X150464285Y-73031571D01*
X150464285Y-73031571D02*
X150392857Y-73317285D01*
X150392857Y-73317285D02*
X150392857Y-73531571D01*
X150392857Y-73531571D02*
X150464285Y-73817285D01*
X150464285Y-73817285D02*
X150535714Y-73960142D01*
X150535714Y-73960142D02*
X150678571Y-74103000D01*
X150678571Y-74103000D02*
X150892857Y-74174428D01*
X150892857Y-74174428D02*
X151250000Y-74174428D01*
X148892857Y-74031571D02*
X148964285Y-74103000D01*
X148964285Y-74103000D02*
X149178571Y-74174428D01*
X149178571Y-74174428D02*
X149321428Y-74174428D01*
X149321428Y-74174428D02*
X149535714Y-74103000D01*
X149535714Y-74103000D02*
X149678571Y-73960142D01*
X149678571Y-73960142D02*
X149750000Y-73817285D01*
X149750000Y-73817285D02*
X149821428Y-73531571D01*
X149821428Y-73531571D02*
X149821428Y-73317285D01*
X149821428Y-73317285D02*
X149750000Y-73031571D01*
X149750000Y-73031571D02*
X149678571Y-72888714D01*
X149678571Y-72888714D02*
X149535714Y-72745857D01*
X149535714Y-72745857D02*
X149321428Y-72674428D01*
X149321428Y-72674428D02*
X149178571Y-72674428D01*
X149178571Y-72674428D02*
X148964285Y-72745857D01*
X148964285Y-72745857D02*
X148892857Y-72817285D01*
X146392857Y-74174428D02*
X147107143Y-74174428D01*
X147107143Y-74174428D02*
X147107143Y-72674428D01*
X145892857Y-74174428D02*
X145892857Y-72674428D01*
X145178571Y-74174428D02*
X145178571Y-72674428D01*
X145178571Y-72674428D02*
X144321428Y-74174428D01*
X144321428Y-74174428D02*
X144321428Y-72674428D01*
X143607142Y-74174428D02*
X143607142Y-72674428D01*
X142749999Y-74174428D02*
X143392856Y-73317285D01*
X142749999Y-72674428D02*
X143607142Y-73531571D01*
X140964285Y-73603000D02*
X139821428Y-73603000D01*
X140392856Y-74174428D02*
X140392856Y-73031571D01*
X137464285Y-73388714D02*
X137249999Y-73460142D01*
X137249999Y-73460142D02*
X137178570Y-73531571D01*
X137178570Y-73531571D02*
X137107142Y-73674428D01*
X137107142Y-73674428D02*
X137107142Y-73888714D01*
X137107142Y-73888714D02*
X137178570Y-74031571D01*
X137178570Y-74031571D02*
X137249999Y-74103000D01*
X137249999Y-74103000D02*
X137392856Y-74174428D01*
X137392856Y-74174428D02*
X137964285Y-74174428D01*
X137964285Y-74174428D02*
X137964285Y-72674428D01*
X137964285Y-72674428D02*
X137464285Y-72674428D01*
X137464285Y-72674428D02*
X137321428Y-72745857D01*
X137321428Y-72745857D02*
X137249999Y-72817285D01*
X137249999Y-72817285D02*
X137178570Y-72960142D01*
X137178570Y-72960142D02*
X137178570Y-73103000D01*
X137178570Y-73103000D02*
X137249999Y-73245857D01*
X137249999Y-73245857D02*
X137321428Y-73317285D01*
X137321428Y-73317285D02*
X137464285Y-73388714D01*
X137464285Y-73388714D02*
X137964285Y-73388714D01*
X136464285Y-72674428D02*
X136464285Y-73888714D01*
X136464285Y-73888714D02*
X136392856Y-74031571D01*
X136392856Y-74031571D02*
X136321428Y-74103000D01*
X136321428Y-74103000D02*
X136178570Y-74174428D01*
X136178570Y-74174428D02*
X135892856Y-74174428D01*
X135892856Y-74174428D02*
X135749999Y-74103000D01*
X135749999Y-74103000D02*
X135678570Y-74031571D01*
X135678570Y-74031571D02*
X135607142Y-73888714D01*
X135607142Y-73888714D02*
X135607142Y-72674428D01*
X134964284Y-74103000D02*
X134749999Y-74174428D01*
X134749999Y-74174428D02*
X134392856Y-74174428D01*
X134392856Y-74174428D02*
X134249999Y-74103000D01*
X134249999Y-74103000D02*
X134178570Y-74031571D01*
X134178570Y-74031571D02*
X134107141Y-73888714D01*
X134107141Y-73888714D02*
X134107141Y-73745857D01*
X134107141Y-73745857D02*
X134178570Y-73603000D01*
X134178570Y-73603000D02*
X134249999Y-73531571D01*
X134249999Y-73531571D02*
X134392856Y-73460142D01*
X134392856Y-73460142D02*
X134678570Y-73388714D01*
X134678570Y-73388714D02*
X134821427Y-73317285D01*
X134821427Y-73317285D02*
X134892856Y-73245857D01*
X134892856Y-73245857D02*
X134964284Y-73103000D01*
X134964284Y-73103000D02*
X134964284Y-72960142D01*
X134964284Y-72960142D02*
X134892856Y-72817285D01*
X134892856Y-72817285D02*
X134821427Y-72745857D01*
X134821427Y-72745857D02*
X134678570Y-72674428D01*
X134678570Y-72674428D02*
X134321427Y-72674428D01*
X134321427Y-72674428D02*
X134107141Y-72745857D01*
X131821428Y-73388714D02*
X131607142Y-73460142D01*
X131607142Y-73460142D02*
X131535713Y-73531571D01*
X131535713Y-73531571D02*
X131464285Y-73674428D01*
X131464285Y-73674428D02*
X131464285Y-73888714D01*
X131464285Y-73888714D02*
X131535713Y-74031571D01*
X131535713Y-74031571D02*
X131607142Y-74103000D01*
X131607142Y-74103000D02*
X131749999Y-74174428D01*
X131749999Y-74174428D02*
X132321428Y-74174428D01*
X132321428Y-74174428D02*
X132321428Y-72674428D01*
X132321428Y-72674428D02*
X131821428Y-72674428D01*
X131821428Y-72674428D02*
X131678571Y-72745857D01*
X131678571Y-72745857D02*
X131607142Y-72817285D01*
X131607142Y-72817285D02*
X131535713Y-72960142D01*
X131535713Y-72960142D02*
X131535713Y-73103000D01*
X131535713Y-73103000D02*
X131607142Y-73245857D01*
X131607142Y-73245857D02*
X131678571Y-73317285D01*
X131678571Y-73317285D02*
X131821428Y-73388714D01*
X131821428Y-73388714D02*
X132321428Y-73388714D01*
X130892856Y-73745857D02*
X130178571Y-73745857D01*
X131035713Y-74174428D02*
X130535713Y-72674428D01*
X130535713Y-72674428D02*
X130035713Y-74174428D01*
X128678571Y-74174428D02*
X129178571Y-73460142D01*
X129535714Y-74174428D02*
X129535714Y-72674428D01*
X129535714Y-72674428D02*
X128964285Y-72674428D01*
X128964285Y-72674428D02*
X128821428Y-72745857D01*
X128821428Y-72745857D02*
X128749999Y-72817285D01*
X128749999Y-72817285D02*
X128678571Y-72960142D01*
X128678571Y-72960142D02*
X128678571Y-73174428D01*
X128678571Y-73174428D02*
X128749999Y-73317285D01*
X128749999Y-73317285D02*
X128821428Y-73388714D01*
X128821428Y-73388714D02*
X128964285Y-73460142D01*
X128964285Y-73460142D02*
X129535714Y-73460142D01*
X241250000Y-26674428D02*
X241250000Y-25174428D01*
X241250000Y-25174428D02*
X240892857Y-25174428D01*
X240892857Y-25174428D02*
X240678571Y-25245857D01*
X240678571Y-25245857D02*
X240535714Y-25388714D01*
X240535714Y-25388714D02*
X240464285Y-25531571D01*
X240464285Y-25531571D02*
X240392857Y-25817285D01*
X240392857Y-25817285D02*
X240392857Y-26031571D01*
X240392857Y-26031571D02*
X240464285Y-26317285D01*
X240464285Y-26317285D02*
X240535714Y-26460142D01*
X240535714Y-26460142D02*
X240678571Y-26603000D01*
X240678571Y-26603000D02*
X240892857Y-26674428D01*
X240892857Y-26674428D02*
X241250000Y-26674428D01*
X238892857Y-26531571D02*
X238964285Y-26603000D01*
X238964285Y-26603000D02*
X239178571Y-26674428D01*
X239178571Y-26674428D02*
X239321428Y-26674428D01*
X239321428Y-26674428D02*
X239535714Y-26603000D01*
X239535714Y-26603000D02*
X239678571Y-26460142D01*
X239678571Y-26460142D02*
X239750000Y-26317285D01*
X239750000Y-26317285D02*
X239821428Y-26031571D01*
X239821428Y-26031571D02*
X239821428Y-25817285D01*
X239821428Y-25817285D02*
X239750000Y-25531571D01*
X239750000Y-25531571D02*
X239678571Y-25388714D01*
X239678571Y-25388714D02*
X239535714Y-25245857D01*
X239535714Y-25245857D02*
X239321428Y-25174428D01*
X239321428Y-25174428D02*
X239178571Y-25174428D01*
X239178571Y-25174428D02*
X238964285Y-25245857D01*
X238964285Y-25245857D02*
X238892857Y-25317285D01*
X236392857Y-26674428D02*
X237107143Y-26674428D01*
X237107143Y-26674428D02*
X237107143Y-25174428D01*
X235892857Y-26674428D02*
X235892857Y-25174428D01*
X235178571Y-26674428D02*
X235178571Y-25174428D01*
X235178571Y-25174428D02*
X234321428Y-26674428D01*
X234321428Y-26674428D02*
X234321428Y-25174428D01*
X233607142Y-26674428D02*
X233607142Y-25174428D01*
X232749999Y-26674428D02*
X233392856Y-25817285D01*
X232749999Y-25174428D02*
X233607142Y-26031571D01*
X230964285Y-26103000D02*
X229821428Y-26103000D01*
X227464285Y-25888714D02*
X227249999Y-25960142D01*
X227249999Y-25960142D02*
X227178570Y-26031571D01*
X227178570Y-26031571D02*
X227107142Y-26174428D01*
X227107142Y-26174428D02*
X227107142Y-26388714D01*
X227107142Y-26388714D02*
X227178570Y-26531571D01*
X227178570Y-26531571D02*
X227249999Y-26603000D01*
X227249999Y-26603000D02*
X227392856Y-26674428D01*
X227392856Y-26674428D02*
X227964285Y-26674428D01*
X227964285Y-26674428D02*
X227964285Y-25174428D01*
X227964285Y-25174428D02*
X227464285Y-25174428D01*
X227464285Y-25174428D02*
X227321428Y-25245857D01*
X227321428Y-25245857D02*
X227249999Y-25317285D01*
X227249999Y-25317285D02*
X227178570Y-25460142D01*
X227178570Y-25460142D02*
X227178570Y-25603000D01*
X227178570Y-25603000D02*
X227249999Y-25745857D01*
X227249999Y-25745857D02*
X227321428Y-25817285D01*
X227321428Y-25817285D02*
X227464285Y-25888714D01*
X227464285Y-25888714D02*
X227964285Y-25888714D01*
X226464285Y-25174428D02*
X226464285Y-26388714D01*
X226464285Y-26388714D02*
X226392856Y-26531571D01*
X226392856Y-26531571D02*
X226321428Y-26603000D01*
X226321428Y-26603000D02*
X226178570Y-26674428D01*
X226178570Y-26674428D02*
X225892856Y-26674428D01*
X225892856Y-26674428D02*
X225749999Y-26603000D01*
X225749999Y-26603000D02*
X225678570Y-26531571D01*
X225678570Y-26531571D02*
X225607142Y-26388714D01*
X225607142Y-26388714D02*
X225607142Y-25174428D01*
X224964284Y-26603000D02*
X224749999Y-26674428D01*
X224749999Y-26674428D02*
X224392856Y-26674428D01*
X224392856Y-26674428D02*
X224249999Y-26603000D01*
X224249999Y-26603000D02*
X224178570Y-26531571D01*
X224178570Y-26531571D02*
X224107141Y-26388714D01*
X224107141Y-26388714D02*
X224107141Y-26245857D01*
X224107141Y-26245857D02*
X224178570Y-26103000D01*
X224178570Y-26103000D02*
X224249999Y-26031571D01*
X224249999Y-26031571D02*
X224392856Y-25960142D01*
X224392856Y-25960142D02*
X224678570Y-25888714D01*
X224678570Y-25888714D02*
X224821427Y-25817285D01*
X224821427Y-25817285D02*
X224892856Y-25745857D01*
X224892856Y-25745857D02*
X224964284Y-25603000D01*
X224964284Y-25603000D02*
X224964284Y-25460142D01*
X224964284Y-25460142D02*
X224892856Y-25317285D01*
X224892856Y-25317285D02*
X224821427Y-25245857D01*
X224821427Y-25245857D02*
X224678570Y-25174428D01*
X224678570Y-25174428D02*
X224321427Y-25174428D01*
X224321427Y-25174428D02*
X224107141Y-25245857D01*
X221821428Y-25888714D02*
X221607142Y-25960142D01*
X221607142Y-25960142D02*
X221535713Y-26031571D01*
X221535713Y-26031571D02*
X221464285Y-26174428D01*
X221464285Y-26174428D02*
X221464285Y-26388714D01*
X221464285Y-26388714D02*
X221535713Y-26531571D01*
X221535713Y-26531571D02*
X221607142Y-26603000D01*
X221607142Y-26603000D02*
X221749999Y-26674428D01*
X221749999Y-26674428D02*
X222321428Y-26674428D01*
X222321428Y-26674428D02*
X222321428Y-25174428D01*
X222321428Y-25174428D02*
X221821428Y-25174428D01*
X221821428Y-25174428D02*
X221678571Y-25245857D01*
X221678571Y-25245857D02*
X221607142Y-25317285D01*
X221607142Y-25317285D02*
X221535713Y-25460142D01*
X221535713Y-25460142D02*
X221535713Y-25603000D01*
X221535713Y-25603000D02*
X221607142Y-25745857D01*
X221607142Y-25745857D02*
X221678571Y-25817285D01*
X221678571Y-25817285D02*
X221821428Y-25888714D01*
X221821428Y-25888714D02*
X222321428Y-25888714D01*
X220892856Y-26245857D02*
X220178571Y-26245857D01*
X221035713Y-26674428D02*
X220535713Y-25174428D01*
X220535713Y-25174428D02*
X220035713Y-26674428D01*
X218678571Y-26674428D02*
X219178571Y-25960142D01*
X219535714Y-26674428D02*
X219535714Y-25174428D01*
X219535714Y-25174428D02*
X218964285Y-25174428D01*
X218964285Y-25174428D02*
X218821428Y-25245857D01*
X218821428Y-25245857D02*
X218749999Y-25317285D01*
X218749999Y-25317285D02*
X218678571Y-25460142D01*
X218678571Y-25460142D02*
X218678571Y-25674428D01*
X218678571Y-25674428D02*
X218749999Y-25817285D01*
X218749999Y-25817285D02*
X218821428Y-25888714D01*
X218821428Y-25888714D02*
X218964285Y-25960142D01*
X218964285Y-25960142D02*
X219535714Y-25960142D01*
X241250000Y-74174428D02*
X241250000Y-72674428D01*
X241250000Y-72674428D02*
X240892857Y-72674428D01*
X240892857Y-72674428D02*
X240678571Y-72745857D01*
X240678571Y-72745857D02*
X240535714Y-72888714D01*
X240535714Y-72888714D02*
X240464285Y-73031571D01*
X240464285Y-73031571D02*
X240392857Y-73317285D01*
X240392857Y-73317285D02*
X240392857Y-73531571D01*
X240392857Y-73531571D02*
X240464285Y-73817285D01*
X240464285Y-73817285D02*
X240535714Y-73960142D01*
X240535714Y-73960142D02*
X240678571Y-74103000D01*
X240678571Y-74103000D02*
X240892857Y-74174428D01*
X240892857Y-74174428D02*
X241250000Y-74174428D01*
X238892857Y-74031571D02*
X238964285Y-74103000D01*
X238964285Y-74103000D02*
X239178571Y-74174428D01*
X239178571Y-74174428D02*
X239321428Y-74174428D01*
X239321428Y-74174428D02*
X239535714Y-74103000D01*
X239535714Y-74103000D02*
X239678571Y-73960142D01*
X239678571Y-73960142D02*
X239750000Y-73817285D01*
X239750000Y-73817285D02*
X239821428Y-73531571D01*
X239821428Y-73531571D02*
X239821428Y-73317285D01*
X239821428Y-73317285D02*
X239750000Y-73031571D01*
X239750000Y-73031571D02*
X239678571Y-72888714D01*
X239678571Y-72888714D02*
X239535714Y-72745857D01*
X239535714Y-72745857D02*
X239321428Y-72674428D01*
X239321428Y-72674428D02*
X239178571Y-72674428D01*
X239178571Y-72674428D02*
X238964285Y-72745857D01*
X238964285Y-72745857D02*
X238892857Y-72817285D01*
X236392857Y-74174428D02*
X237107143Y-74174428D01*
X237107143Y-74174428D02*
X237107143Y-72674428D01*
X235892857Y-74174428D02*
X235892857Y-72674428D01*
X235178571Y-74174428D02*
X235178571Y-72674428D01*
X235178571Y-72674428D02*
X234321428Y-74174428D01*
X234321428Y-74174428D02*
X234321428Y-72674428D01*
X233607142Y-74174428D02*
X233607142Y-72674428D01*
X232749999Y-74174428D02*
X233392856Y-73317285D01*
X232749999Y-72674428D02*
X233607142Y-73531571D01*
X230964285Y-73603000D02*
X229821428Y-73603000D01*
X230392856Y-74174428D02*
X230392856Y-73031571D01*
X227464285Y-73388714D02*
X227249999Y-73460142D01*
X227249999Y-73460142D02*
X227178570Y-73531571D01*
X227178570Y-73531571D02*
X227107142Y-73674428D01*
X227107142Y-73674428D02*
X227107142Y-73888714D01*
X227107142Y-73888714D02*
X227178570Y-74031571D01*
X227178570Y-74031571D02*
X227249999Y-74103000D01*
X227249999Y-74103000D02*
X227392856Y-74174428D01*
X227392856Y-74174428D02*
X227964285Y-74174428D01*
X227964285Y-74174428D02*
X227964285Y-72674428D01*
X227964285Y-72674428D02*
X227464285Y-72674428D01*
X227464285Y-72674428D02*
X227321428Y-72745857D01*
X227321428Y-72745857D02*
X227249999Y-72817285D01*
X227249999Y-72817285D02*
X227178570Y-72960142D01*
X227178570Y-72960142D02*
X227178570Y-73103000D01*
X227178570Y-73103000D02*
X227249999Y-73245857D01*
X227249999Y-73245857D02*
X227321428Y-73317285D01*
X227321428Y-73317285D02*
X227464285Y-73388714D01*
X227464285Y-73388714D02*
X227964285Y-73388714D01*
X226464285Y-72674428D02*
X226464285Y-73888714D01*
X226464285Y-73888714D02*
X226392856Y-74031571D01*
X226392856Y-74031571D02*
X226321428Y-74103000D01*
X226321428Y-74103000D02*
X226178570Y-74174428D01*
X226178570Y-74174428D02*
X225892856Y-74174428D01*
X225892856Y-74174428D02*
X225749999Y-74103000D01*
X225749999Y-74103000D02*
X225678570Y-74031571D01*
X225678570Y-74031571D02*
X225607142Y-73888714D01*
X225607142Y-73888714D02*
X225607142Y-72674428D01*
X224964284Y-74103000D02*
X224749999Y-74174428D01*
X224749999Y-74174428D02*
X224392856Y-74174428D01*
X224392856Y-74174428D02*
X224249999Y-74103000D01*
X224249999Y-74103000D02*
X224178570Y-74031571D01*
X224178570Y-74031571D02*
X224107141Y-73888714D01*
X224107141Y-73888714D02*
X224107141Y-73745857D01*
X224107141Y-73745857D02*
X224178570Y-73603000D01*
X224178570Y-73603000D02*
X224249999Y-73531571D01*
X224249999Y-73531571D02*
X224392856Y-73460142D01*
X224392856Y-73460142D02*
X224678570Y-73388714D01*
X224678570Y-73388714D02*
X224821427Y-73317285D01*
X224821427Y-73317285D02*
X224892856Y-73245857D01*
X224892856Y-73245857D02*
X224964284Y-73103000D01*
X224964284Y-73103000D02*
X224964284Y-72960142D01*
X224964284Y-72960142D02*
X224892856Y-72817285D01*
X224892856Y-72817285D02*
X224821427Y-72745857D01*
X224821427Y-72745857D02*
X224678570Y-72674428D01*
X224678570Y-72674428D02*
X224321427Y-72674428D01*
X224321427Y-72674428D02*
X224107141Y-72745857D01*
X221821428Y-73388714D02*
X221607142Y-73460142D01*
X221607142Y-73460142D02*
X221535713Y-73531571D01*
X221535713Y-73531571D02*
X221464285Y-73674428D01*
X221464285Y-73674428D02*
X221464285Y-73888714D01*
X221464285Y-73888714D02*
X221535713Y-74031571D01*
X221535713Y-74031571D02*
X221607142Y-74103000D01*
X221607142Y-74103000D02*
X221749999Y-74174428D01*
X221749999Y-74174428D02*
X222321428Y-74174428D01*
X222321428Y-74174428D02*
X222321428Y-72674428D01*
X222321428Y-72674428D02*
X221821428Y-72674428D01*
X221821428Y-72674428D02*
X221678571Y-72745857D01*
X221678571Y-72745857D02*
X221607142Y-72817285D01*
X221607142Y-72817285D02*
X221535713Y-72960142D01*
X221535713Y-72960142D02*
X221535713Y-73103000D01*
X221535713Y-73103000D02*
X221607142Y-73245857D01*
X221607142Y-73245857D02*
X221678571Y-73317285D01*
X221678571Y-73317285D02*
X221821428Y-73388714D01*
X221821428Y-73388714D02*
X222321428Y-73388714D01*
X220892856Y-73745857D02*
X220178571Y-73745857D01*
X221035713Y-74174428D02*
X220535713Y-72674428D01*
X220535713Y-72674428D02*
X220035713Y-74174428D01*
X218678571Y-74174428D02*
X219178571Y-73460142D01*
X219535714Y-74174428D02*
X219535714Y-72674428D01*
X219535714Y-72674428D02*
X218964285Y-72674428D01*
X218964285Y-72674428D02*
X218821428Y-72745857D01*
X218821428Y-72745857D02*
X218749999Y-72817285D01*
X218749999Y-72817285D02*
X218678571Y-72960142D01*
X218678571Y-72960142D02*
X218678571Y-73174428D01*
X218678571Y-73174428D02*
X218749999Y-73317285D01*
X218749999Y-73317285D02*
X218821428Y-73388714D01*
X218821428Y-73388714D02*
X218964285Y-73460142D01*
X218964285Y-73460142D02*
X219535714Y-73460142D01*
D13*
X113285715Y-49399238D02*
X113285715Y-47399238D01*
X113285715Y-48351619D02*
X112142858Y-48351619D01*
X112142858Y-49399238D02*
X112142858Y-47399238D01*
X111190477Y-49399238D02*
X111190477Y-47399238D01*
X109190477Y-47494476D02*
X109380953Y-47399238D01*
X109380953Y-47399238D02*
X109666667Y-47399238D01*
X109666667Y-47399238D02*
X109952382Y-47494476D01*
X109952382Y-47494476D02*
X110142858Y-47684952D01*
X110142858Y-47684952D02*
X110238096Y-47875428D01*
X110238096Y-47875428D02*
X110333334Y-48256380D01*
X110333334Y-48256380D02*
X110333334Y-48542095D01*
X110333334Y-48542095D02*
X110238096Y-48923047D01*
X110238096Y-48923047D02*
X110142858Y-49113523D01*
X110142858Y-49113523D02*
X109952382Y-49304000D01*
X109952382Y-49304000D02*
X109666667Y-49399238D01*
X109666667Y-49399238D02*
X109476191Y-49399238D01*
X109476191Y-49399238D02*
X109190477Y-49304000D01*
X109190477Y-49304000D02*
X109095239Y-49208761D01*
X109095239Y-49208761D02*
X109095239Y-48542095D01*
X109095239Y-48542095D02*
X109476191Y-48542095D01*
X108238096Y-49399238D02*
X108238096Y-47399238D01*
X108238096Y-48351619D02*
X107095239Y-48351619D01*
X107095239Y-49399238D02*
X107095239Y-47399238D01*
X104904762Y-47399238D02*
X104238096Y-49399238D01*
X104238096Y-49399238D02*
X103571429Y-47399238D01*
X102523810Y-47399238D02*
X102142857Y-47399238D01*
X102142857Y-47399238D02*
X101952381Y-47494476D01*
X101952381Y-47494476D02*
X101761905Y-47684952D01*
X101761905Y-47684952D02*
X101666667Y-48065904D01*
X101666667Y-48065904D02*
X101666667Y-48732571D01*
X101666667Y-48732571D02*
X101761905Y-49113523D01*
X101761905Y-49113523D02*
X101952381Y-49304000D01*
X101952381Y-49304000D02*
X102142857Y-49399238D01*
X102142857Y-49399238D02*
X102523810Y-49399238D01*
X102523810Y-49399238D02*
X102714286Y-49304000D01*
X102714286Y-49304000D02*
X102904762Y-49113523D01*
X102904762Y-49113523D02*
X103000000Y-48732571D01*
X103000000Y-48732571D02*
X103000000Y-48065904D01*
X103000000Y-48065904D02*
X102904762Y-47684952D01*
X102904762Y-47684952D02*
X102714286Y-47494476D01*
X102714286Y-47494476D02*
X102523810Y-47399238D01*
X99857143Y-49399238D02*
X100809524Y-49399238D01*
X100809524Y-49399238D02*
X100809524Y-47399238D01*
X99476190Y-47399238D02*
X98333333Y-47399238D01*
X98904762Y-49399238D02*
X98904762Y-47399238D01*
X97761904Y-48827809D02*
X96809523Y-48827809D01*
X97952380Y-49399238D02*
X97285714Y-47399238D01*
X97285714Y-47399238D02*
X96619047Y-49399238D01*
X94904761Y-47494476D02*
X95095237Y-47399238D01*
X95095237Y-47399238D02*
X95380951Y-47399238D01*
X95380951Y-47399238D02*
X95666666Y-47494476D01*
X95666666Y-47494476D02*
X95857142Y-47684952D01*
X95857142Y-47684952D02*
X95952380Y-47875428D01*
X95952380Y-47875428D02*
X96047618Y-48256380D01*
X96047618Y-48256380D02*
X96047618Y-48542095D01*
X96047618Y-48542095D02*
X95952380Y-48923047D01*
X95952380Y-48923047D02*
X95857142Y-49113523D01*
X95857142Y-49113523D02*
X95666666Y-49304000D01*
X95666666Y-49304000D02*
X95380951Y-49399238D01*
X95380951Y-49399238D02*
X95190475Y-49399238D01*
X95190475Y-49399238D02*
X94904761Y-49304000D01*
X94904761Y-49304000D02*
X94809523Y-49208761D01*
X94809523Y-49208761D02*
X94809523Y-48542095D01*
X94809523Y-48542095D02*
X95190475Y-48542095D01*
X93952380Y-48351619D02*
X93285713Y-48351619D01*
X92999999Y-49399238D02*
X93952380Y-49399238D01*
X93952380Y-49399238D02*
X93952380Y-47399238D01*
X93952380Y-47399238D02*
X92999999Y-47399238D01*
X90619046Y-49399238D02*
X90619046Y-47399238D01*
X89476189Y-49399238D02*
X90333332Y-48256380D01*
X89476189Y-47399238D02*
X90619046Y-48542095D01*
X88619046Y-48351619D02*
X87952379Y-48351619D01*
X87666665Y-49399238D02*
X88619046Y-49399238D01*
X88619046Y-49399238D02*
X88619046Y-47399238D01*
X88619046Y-47399238D02*
X87666665Y-47399238D01*
X86809522Y-48351619D02*
X86142855Y-48351619D01*
X85857141Y-49399238D02*
X86809522Y-49399238D01*
X86809522Y-49399238D02*
X86809522Y-47399238D01*
X86809522Y-47399238D02*
X85857141Y-47399238D01*
X84999998Y-49399238D02*
X84999998Y-47399238D01*
X84999998Y-47399238D02*
X84238093Y-47399238D01*
X84238093Y-47399238D02*
X84047617Y-47494476D01*
X84047617Y-47494476D02*
X83952379Y-47589714D01*
X83952379Y-47589714D02*
X83857141Y-47780190D01*
X83857141Y-47780190D02*
X83857141Y-48065904D01*
X83857141Y-48065904D02*
X83952379Y-48256380D01*
X83952379Y-48256380D02*
X84047617Y-48351619D01*
X84047617Y-48351619D02*
X84238093Y-48446857D01*
X84238093Y-48446857D02*
X84999998Y-48446857D01*
X81095236Y-47399238D02*
X80714283Y-47399238D01*
X80714283Y-47399238D02*
X80523807Y-47494476D01*
X80523807Y-47494476D02*
X80333331Y-47684952D01*
X80333331Y-47684952D02*
X80238093Y-48065904D01*
X80238093Y-48065904D02*
X80238093Y-48732571D01*
X80238093Y-48732571D02*
X80333331Y-49113523D01*
X80333331Y-49113523D02*
X80523807Y-49304000D01*
X80523807Y-49304000D02*
X80714283Y-49399238D01*
X80714283Y-49399238D02*
X81095236Y-49399238D01*
X81095236Y-49399238D02*
X81285712Y-49304000D01*
X81285712Y-49304000D02*
X81476188Y-49113523D01*
X81476188Y-49113523D02*
X81571426Y-48732571D01*
X81571426Y-48732571D02*
X81571426Y-48065904D01*
X81571426Y-48065904D02*
X81476188Y-47684952D01*
X81476188Y-47684952D02*
X81285712Y-47494476D01*
X81285712Y-47494476D02*
X81095236Y-47399238D01*
X79380950Y-47399238D02*
X79380950Y-49018285D01*
X79380950Y-49018285D02*
X79285712Y-49208761D01*
X79285712Y-49208761D02*
X79190474Y-49304000D01*
X79190474Y-49304000D02*
X78999998Y-49399238D01*
X78999998Y-49399238D02*
X78619045Y-49399238D01*
X78619045Y-49399238D02*
X78428569Y-49304000D01*
X78428569Y-49304000D02*
X78333331Y-49208761D01*
X78333331Y-49208761D02*
X78238093Y-49018285D01*
X78238093Y-49018285D02*
X78238093Y-47399238D01*
X77571426Y-47399238D02*
X76428569Y-47399238D01*
X76999998Y-49399238D02*
X76999998Y-47399238D01*
X202785715Y-49899238D02*
X202785715Y-47899238D01*
X202785715Y-48851619D02*
X201642858Y-48851619D01*
X201642858Y-49899238D02*
X201642858Y-47899238D01*
X200690477Y-49899238D02*
X200690477Y-47899238D01*
X198690477Y-47994476D02*
X198880953Y-47899238D01*
X198880953Y-47899238D02*
X199166667Y-47899238D01*
X199166667Y-47899238D02*
X199452382Y-47994476D01*
X199452382Y-47994476D02*
X199642858Y-48184952D01*
X199642858Y-48184952D02*
X199738096Y-48375428D01*
X199738096Y-48375428D02*
X199833334Y-48756380D01*
X199833334Y-48756380D02*
X199833334Y-49042095D01*
X199833334Y-49042095D02*
X199738096Y-49423047D01*
X199738096Y-49423047D02*
X199642858Y-49613523D01*
X199642858Y-49613523D02*
X199452382Y-49804000D01*
X199452382Y-49804000D02*
X199166667Y-49899238D01*
X199166667Y-49899238D02*
X198976191Y-49899238D01*
X198976191Y-49899238D02*
X198690477Y-49804000D01*
X198690477Y-49804000D02*
X198595239Y-49708761D01*
X198595239Y-49708761D02*
X198595239Y-49042095D01*
X198595239Y-49042095D02*
X198976191Y-49042095D01*
X197738096Y-49899238D02*
X197738096Y-47899238D01*
X197738096Y-48851619D02*
X196595239Y-48851619D01*
X196595239Y-49899238D02*
X196595239Y-47899238D01*
X194404762Y-47899238D02*
X193738096Y-49899238D01*
X193738096Y-49899238D02*
X193071429Y-47899238D01*
X192023810Y-47899238D02*
X191642857Y-47899238D01*
X191642857Y-47899238D02*
X191452381Y-47994476D01*
X191452381Y-47994476D02*
X191261905Y-48184952D01*
X191261905Y-48184952D02*
X191166667Y-48565904D01*
X191166667Y-48565904D02*
X191166667Y-49232571D01*
X191166667Y-49232571D02*
X191261905Y-49613523D01*
X191261905Y-49613523D02*
X191452381Y-49804000D01*
X191452381Y-49804000D02*
X191642857Y-49899238D01*
X191642857Y-49899238D02*
X192023810Y-49899238D01*
X192023810Y-49899238D02*
X192214286Y-49804000D01*
X192214286Y-49804000D02*
X192404762Y-49613523D01*
X192404762Y-49613523D02*
X192500000Y-49232571D01*
X192500000Y-49232571D02*
X192500000Y-48565904D01*
X192500000Y-48565904D02*
X192404762Y-48184952D01*
X192404762Y-48184952D02*
X192214286Y-47994476D01*
X192214286Y-47994476D02*
X192023810Y-47899238D01*
X189357143Y-49899238D02*
X190309524Y-49899238D01*
X190309524Y-49899238D02*
X190309524Y-47899238D01*
X188976190Y-47899238D02*
X187833333Y-47899238D01*
X188404762Y-49899238D02*
X188404762Y-47899238D01*
X187261904Y-49327809D02*
X186309523Y-49327809D01*
X187452380Y-49899238D02*
X186785714Y-47899238D01*
X186785714Y-47899238D02*
X186119047Y-49899238D01*
X184404761Y-47994476D02*
X184595237Y-47899238D01*
X184595237Y-47899238D02*
X184880951Y-47899238D01*
X184880951Y-47899238D02*
X185166666Y-47994476D01*
X185166666Y-47994476D02*
X185357142Y-48184952D01*
X185357142Y-48184952D02*
X185452380Y-48375428D01*
X185452380Y-48375428D02*
X185547618Y-48756380D01*
X185547618Y-48756380D02*
X185547618Y-49042095D01*
X185547618Y-49042095D02*
X185452380Y-49423047D01*
X185452380Y-49423047D02*
X185357142Y-49613523D01*
X185357142Y-49613523D02*
X185166666Y-49804000D01*
X185166666Y-49804000D02*
X184880951Y-49899238D01*
X184880951Y-49899238D02*
X184690475Y-49899238D01*
X184690475Y-49899238D02*
X184404761Y-49804000D01*
X184404761Y-49804000D02*
X184309523Y-49708761D01*
X184309523Y-49708761D02*
X184309523Y-49042095D01*
X184309523Y-49042095D02*
X184690475Y-49042095D01*
X183452380Y-48851619D02*
X182785713Y-48851619D01*
X182499999Y-49899238D02*
X183452380Y-49899238D01*
X183452380Y-49899238D02*
X183452380Y-47899238D01*
X183452380Y-47899238D02*
X182499999Y-47899238D01*
X180119046Y-49899238D02*
X180119046Y-47899238D01*
X178976189Y-49899238D02*
X179833332Y-48756380D01*
X178976189Y-47899238D02*
X180119046Y-49042095D01*
X178119046Y-48851619D02*
X177452379Y-48851619D01*
X177166665Y-49899238D02*
X178119046Y-49899238D01*
X178119046Y-49899238D02*
X178119046Y-47899238D01*
X178119046Y-47899238D02*
X177166665Y-47899238D01*
X176309522Y-48851619D02*
X175642855Y-48851619D01*
X175357141Y-49899238D02*
X176309522Y-49899238D01*
X176309522Y-49899238D02*
X176309522Y-47899238D01*
X176309522Y-47899238D02*
X175357141Y-47899238D01*
X174499998Y-49899238D02*
X174499998Y-47899238D01*
X174499998Y-47899238D02*
X173738093Y-47899238D01*
X173738093Y-47899238D02*
X173547617Y-47994476D01*
X173547617Y-47994476D02*
X173452379Y-48089714D01*
X173452379Y-48089714D02*
X173357141Y-48280190D01*
X173357141Y-48280190D02*
X173357141Y-48565904D01*
X173357141Y-48565904D02*
X173452379Y-48756380D01*
X173452379Y-48756380D02*
X173547617Y-48851619D01*
X173547617Y-48851619D02*
X173738093Y-48946857D01*
X173738093Y-48946857D02*
X174499998Y-48946857D01*
X170595236Y-47899238D02*
X170214283Y-47899238D01*
X170214283Y-47899238D02*
X170023807Y-47994476D01*
X170023807Y-47994476D02*
X169833331Y-48184952D01*
X169833331Y-48184952D02*
X169738093Y-48565904D01*
X169738093Y-48565904D02*
X169738093Y-49232571D01*
X169738093Y-49232571D02*
X169833331Y-49613523D01*
X169833331Y-49613523D02*
X170023807Y-49804000D01*
X170023807Y-49804000D02*
X170214283Y-49899238D01*
X170214283Y-49899238D02*
X170595236Y-49899238D01*
X170595236Y-49899238D02*
X170785712Y-49804000D01*
X170785712Y-49804000D02*
X170976188Y-49613523D01*
X170976188Y-49613523D02*
X171071426Y-49232571D01*
X171071426Y-49232571D02*
X171071426Y-48565904D01*
X171071426Y-48565904D02*
X170976188Y-48184952D01*
X170976188Y-48184952D02*
X170785712Y-47994476D01*
X170785712Y-47994476D02*
X170595236Y-47899238D01*
X168880950Y-47899238D02*
X168880950Y-49518285D01*
X168880950Y-49518285D02*
X168785712Y-49708761D01*
X168785712Y-49708761D02*
X168690474Y-49804000D01*
X168690474Y-49804000D02*
X168499998Y-49899238D01*
X168499998Y-49899238D02*
X168119045Y-49899238D01*
X168119045Y-49899238D02*
X167928569Y-49804000D01*
X167928569Y-49804000D02*
X167833331Y-49708761D01*
X167833331Y-49708761D02*
X167738093Y-49518285D01*
X167738093Y-49518285D02*
X167738093Y-47899238D01*
X167071426Y-47899238D02*
X165928569Y-47899238D01*
X166499998Y-49899238D02*
X166499998Y-47899238D01*
X271595238Y-49899238D02*
X271595238Y-47899238D01*
X271595238Y-48851619D02*
X270452381Y-48851619D01*
X270452381Y-49899238D02*
X270452381Y-47899238D01*
X269500000Y-49899238D02*
X269500000Y-47899238D01*
X267500000Y-47994476D02*
X267690476Y-47899238D01*
X267690476Y-47899238D02*
X267976190Y-47899238D01*
X267976190Y-47899238D02*
X268261905Y-47994476D01*
X268261905Y-47994476D02*
X268452381Y-48184952D01*
X268452381Y-48184952D02*
X268547619Y-48375428D01*
X268547619Y-48375428D02*
X268642857Y-48756380D01*
X268642857Y-48756380D02*
X268642857Y-49042095D01*
X268642857Y-49042095D02*
X268547619Y-49423047D01*
X268547619Y-49423047D02*
X268452381Y-49613523D01*
X268452381Y-49613523D02*
X268261905Y-49804000D01*
X268261905Y-49804000D02*
X267976190Y-49899238D01*
X267976190Y-49899238D02*
X267785714Y-49899238D01*
X267785714Y-49899238D02*
X267500000Y-49804000D01*
X267500000Y-49804000D02*
X267404762Y-49708761D01*
X267404762Y-49708761D02*
X267404762Y-49042095D01*
X267404762Y-49042095D02*
X267785714Y-49042095D01*
X266547619Y-49899238D02*
X266547619Y-47899238D01*
X266547619Y-48851619D02*
X265404762Y-48851619D01*
X265404762Y-49899238D02*
X265404762Y-47899238D01*
X263214285Y-47899238D02*
X262547619Y-49899238D01*
X262547619Y-49899238D02*
X261880952Y-47899238D01*
X260833333Y-47899238D02*
X260452380Y-47899238D01*
X260452380Y-47899238D02*
X260261904Y-47994476D01*
X260261904Y-47994476D02*
X260071428Y-48184952D01*
X260071428Y-48184952D02*
X259976190Y-48565904D01*
X259976190Y-48565904D02*
X259976190Y-49232571D01*
X259976190Y-49232571D02*
X260071428Y-49613523D01*
X260071428Y-49613523D02*
X260261904Y-49804000D01*
X260261904Y-49804000D02*
X260452380Y-49899238D01*
X260452380Y-49899238D02*
X260833333Y-49899238D01*
X260833333Y-49899238D02*
X261023809Y-49804000D01*
X261023809Y-49804000D02*
X261214285Y-49613523D01*
X261214285Y-49613523D02*
X261309523Y-49232571D01*
X261309523Y-49232571D02*
X261309523Y-48565904D01*
X261309523Y-48565904D02*
X261214285Y-48184952D01*
X261214285Y-48184952D02*
X261023809Y-47994476D01*
X261023809Y-47994476D02*
X260833333Y-47899238D01*
X258166666Y-49899238D02*
X259119047Y-49899238D01*
X259119047Y-49899238D02*
X259119047Y-47899238D01*
X257785713Y-47899238D02*
X256642856Y-47899238D01*
X257214285Y-49899238D02*
X257214285Y-47899238D01*
X256071427Y-49327809D02*
X255119046Y-49327809D01*
X256261903Y-49899238D02*
X255595237Y-47899238D01*
X255595237Y-47899238D02*
X254928570Y-49899238D01*
X253214284Y-47994476D02*
X253404760Y-47899238D01*
X253404760Y-47899238D02*
X253690474Y-47899238D01*
X253690474Y-47899238D02*
X253976189Y-47994476D01*
X253976189Y-47994476D02*
X254166665Y-48184952D01*
X254166665Y-48184952D02*
X254261903Y-48375428D01*
X254261903Y-48375428D02*
X254357141Y-48756380D01*
X254357141Y-48756380D02*
X254357141Y-49042095D01*
X254357141Y-49042095D02*
X254261903Y-49423047D01*
X254261903Y-49423047D02*
X254166665Y-49613523D01*
X254166665Y-49613523D02*
X253976189Y-49804000D01*
X253976189Y-49804000D02*
X253690474Y-49899238D01*
X253690474Y-49899238D02*
X253499998Y-49899238D01*
X253499998Y-49899238D02*
X253214284Y-49804000D01*
X253214284Y-49804000D02*
X253119046Y-49708761D01*
X253119046Y-49708761D02*
X253119046Y-49042095D01*
X253119046Y-49042095D02*
X253499998Y-49042095D01*
X252261903Y-48851619D02*
X251595236Y-48851619D01*
X251309522Y-49899238D02*
X252261903Y-49899238D01*
X252261903Y-49899238D02*
X252261903Y-47899238D01*
X252261903Y-47899238D02*
X251309522Y-47899238D01*
D14*
X236453365Y-48183571D02*
X236513842Y-48123095D01*
X236513842Y-48123095D02*
X236574318Y-47941666D01*
X236574318Y-47941666D02*
X236574318Y-47820714D01*
X236574318Y-47820714D02*
X236513842Y-47639285D01*
X236513842Y-47639285D02*
X236392889Y-47518333D01*
X236392889Y-47518333D02*
X236271937Y-47457856D01*
X236271937Y-47457856D02*
X236030032Y-47397380D01*
X236030032Y-47397380D02*
X235848603Y-47397380D01*
X235848603Y-47397380D02*
X235606699Y-47457856D01*
X235606699Y-47457856D02*
X235485746Y-47518333D01*
X235485746Y-47518333D02*
X235364794Y-47639285D01*
X235364794Y-47639285D02*
X235304318Y-47820714D01*
X235304318Y-47820714D02*
X235304318Y-47941666D01*
X235304318Y-47941666D02*
X235364794Y-48123095D01*
X235364794Y-48123095D02*
X235425270Y-48183571D01*
X235304318Y-48606904D02*
X235304318Y-49393095D01*
X235304318Y-49393095D02*
X235788127Y-48969761D01*
X235788127Y-48969761D02*
X235788127Y-49151190D01*
X235788127Y-49151190D02*
X235848603Y-49272142D01*
X235848603Y-49272142D02*
X235909080Y-49332618D01*
X235909080Y-49332618D02*
X236030032Y-49393095D01*
X236030032Y-49393095D02*
X236332413Y-49393095D01*
X236332413Y-49393095D02*
X236453365Y-49332618D01*
X236453365Y-49332618D02*
X236513842Y-49272142D01*
X236513842Y-49272142D02*
X236574318Y-49151190D01*
X236574318Y-49151190D02*
X236574318Y-48788333D01*
X236574318Y-48788333D02*
X236513842Y-48667380D01*
X236513842Y-48667380D02*
X236453365Y-48606904D01*
X235425270Y-49876904D02*
X235364794Y-49937380D01*
X235364794Y-49937380D02*
X235304318Y-50058333D01*
X235304318Y-50058333D02*
X235304318Y-50360714D01*
X235304318Y-50360714D02*
X235364794Y-50481666D01*
X235364794Y-50481666D02*
X235425270Y-50542142D01*
X235425270Y-50542142D02*
X235546222Y-50602619D01*
X235546222Y-50602619D02*
X235667175Y-50602619D01*
X235667175Y-50602619D02*
X235848603Y-50542142D01*
X235848603Y-50542142D02*
X236574318Y-49816428D01*
X236574318Y-49816428D02*
X236574318Y-50602619D01*
X214453365Y-48183571D02*
X214513842Y-48123095D01*
X214513842Y-48123095D02*
X214574318Y-47941666D01*
X214574318Y-47941666D02*
X214574318Y-47820714D01*
X214574318Y-47820714D02*
X214513842Y-47639285D01*
X214513842Y-47639285D02*
X214392889Y-47518333D01*
X214392889Y-47518333D02*
X214271937Y-47457856D01*
X214271937Y-47457856D02*
X214030032Y-47397380D01*
X214030032Y-47397380D02*
X213848603Y-47397380D01*
X213848603Y-47397380D02*
X213606699Y-47457856D01*
X213606699Y-47457856D02*
X213485746Y-47518333D01*
X213485746Y-47518333D02*
X213364794Y-47639285D01*
X213364794Y-47639285D02*
X213304318Y-47820714D01*
X213304318Y-47820714D02*
X213304318Y-47941666D01*
X213304318Y-47941666D02*
X213364794Y-48123095D01*
X213364794Y-48123095D02*
X213425270Y-48183571D01*
X213304318Y-48606904D02*
X213304318Y-49393095D01*
X213304318Y-49393095D02*
X213788127Y-48969761D01*
X213788127Y-48969761D02*
X213788127Y-49151190D01*
X213788127Y-49151190D02*
X213848603Y-49272142D01*
X213848603Y-49272142D02*
X213909080Y-49332618D01*
X213909080Y-49332618D02*
X214030032Y-49393095D01*
X214030032Y-49393095D02*
X214332413Y-49393095D01*
X214332413Y-49393095D02*
X214453365Y-49332618D01*
X214453365Y-49332618D02*
X214513842Y-49272142D01*
X214513842Y-49272142D02*
X214574318Y-49151190D01*
X214574318Y-49151190D02*
X214574318Y-48788333D01*
X214574318Y-48788333D02*
X214513842Y-48667380D01*
X214513842Y-48667380D02*
X214453365Y-48606904D01*
X213304318Y-49816428D02*
X213304318Y-50602619D01*
X213304318Y-50602619D02*
X213788127Y-50179285D01*
X213788127Y-50179285D02*
X213788127Y-50360714D01*
X213788127Y-50360714D02*
X213848603Y-50481666D01*
X213848603Y-50481666D02*
X213909080Y-50542142D01*
X213909080Y-50542142D02*
X214030032Y-50602619D01*
X214030032Y-50602619D02*
X214332413Y-50602619D01*
X214332413Y-50602619D02*
X214453365Y-50542142D01*
X214453365Y-50542142D02*
X214513842Y-50481666D01*
X214513842Y-50481666D02*
X214574318Y-50360714D01*
X214574318Y-50360714D02*
X214574318Y-49997857D01*
X214574318Y-49997857D02*
X214513842Y-49876904D01*
X214513842Y-49876904D02*
X214453365Y-49816428D01*
X225453365Y-48183571D02*
X225513842Y-48123095D01*
X225513842Y-48123095D02*
X225574318Y-47941666D01*
X225574318Y-47941666D02*
X225574318Y-47820714D01*
X225574318Y-47820714D02*
X225513842Y-47639285D01*
X225513842Y-47639285D02*
X225392889Y-47518333D01*
X225392889Y-47518333D02*
X225271937Y-47457856D01*
X225271937Y-47457856D02*
X225030032Y-47397380D01*
X225030032Y-47397380D02*
X224848603Y-47397380D01*
X224848603Y-47397380D02*
X224606699Y-47457856D01*
X224606699Y-47457856D02*
X224485746Y-47518333D01*
X224485746Y-47518333D02*
X224364794Y-47639285D01*
X224364794Y-47639285D02*
X224304318Y-47820714D01*
X224304318Y-47820714D02*
X224304318Y-47941666D01*
X224304318Y-47941666D02*
X224364794Y-48123095D01*
X224364794Y-48123095D02*
X224425270Y-48183571D01*
X224304318Y-48606904D02*
X224304318Y-49393095D01*
X224304318Y-49393095D02*
X224788127Y-48969761D01*
X224788127Y-48969761D02*
X224788127Y-49151190D01*
X224788127Y-49151190D02*
X224848603Y-49272142D01*
X224848603Y-49272142D02*
X224909080Y-49332618D01*
X224909080Y-49332618D02*
X225030032Y-49393095D01*
X225030032Y-49393095D02*
X225332413Y-49393095D01*
X225332413Y-49393095D02*
X225453365Y-49332618D01*
X225453365Y-49332618D02*
X225513842Y-49272142D01*
X225513842Y-49272142D02*
X225574318Y-49151190D01*
X225574318Y-49151190D02*
X225574318Y-48788333D01*
X225574318Y-48788333D02*
X225513842Y-48667380D01*
X225513842Y-48667380D02*
X225453365Y-48606904D01*
X225574318Y-50602619D02*
X225574318Y-49876904D01*
X225574318Y-50239761D02*
X224304318Y-50239761D01*
X224304318Y-50239761D02*
X224485746Y-50118809D01*
X224485746Y-50118809D02*
X224606699Y-49997857D01*
X224606699Y-49997857D02*
X224667175Y-49876904D01*
X124453365Y-48183571D02*
X124513842Y-48123095D01*
X124513842Y-48123095D02*
X124574318Y-47941666D01*
X124574318Y-47941666D02*
X124574318Y-47820714D01*
X124574318Y-47820714D02*
X124513842Y-47639285D01*
X124513842Y-47639285D02*
X124392889Y-47518333D01*
X124392889Y-47518333D02*
X124271937Y-47457856D01*
X124271937Y-47457856D02*
X124030032Y-47397380D01*
X124030032Y-47397380D02*
X123848603Y-47397380D01*
X123848603Y-47397380D02*
X123606699Y-47457856D01*
X123606699Y-47457856D02*
X123485746Y-47518333D01*
X123485746Y-47518333D02*
X123364794Y-47639285D01*
X123364794Y-47639285D02*
X123304318Y-47820714D01*
X123304318Y-47820714D02*
X123304318Y-47941666D01*
X123304318Y-47941666D02*
X123364794Y-48123095D01*
X123364794Y-48123095D02*
X123425270Y-48183571D01*
X123425270Y-48667380D02*
X123364794Y-48727856D01*
X123364794Y-48727856D02*
X123304318Y-48848809D01*
X123304318Y-48848809D02*
X123304318Y-49151190D01*
X123304318Y-49151190D02*
X123364794Y-49272142D01*
X123364794Y-49272142D02*
X123425270Y-49332618D01*
X123425270Y-49332618D02*
X123546222Y-49393095D01*
X123546222Y-49393095D02*
X123667175Y-49393095D01*
X123667175Y-49393095D02*
X123848603Y-49332618D01*
X123848603Y-49332618D02*
X124574318Y-48606904D01*
X124574318Y-48606904D02*
X124574318Y-49393095D01*
X124574318Y-50602619D02*
X124574318Y-49876904D01*
X124574318Y-50239761D02*
X123304318Y-50239761D01*
X123304318Y-50239761D02*
X123485746Y-50118809D01*
X123485746Y-50118809D02*
X123606699Y-49997857D01*
X123606699Y-49997857D02*
X123667175Y-49876904D01*
X8028094Y-22304318D02*
X8028094Y-23211461D01*
X8028094Y-23211461D02*
X8088571Y-23392889D01*
X8088571Y-23392889D02*
X8209523Y-23513842D01*
X8209523Y-23513842D02*
X8390952Y-23574318D01*
X8390952Y-23574318D02*
X8511904Y-23574318D01*
X6758094Y-23574318D02*
X7483809Y-23574318D01*
X7120952Y-23574318D02*
X7120952Y-22304318D01*
X7120952Y-22304318D02*
X7241904Y-22485746D01*
X7241904Y-22485746D02*
X7362856Y-22606699D01*
X7362856Y-22606699D02*
X7483809Y-22667175D01*
X5609047Y-22304318D02*
X6213809Y-22304318D01*
X6213809Y-22304318D02*
X6274285Y-22909080D01*
X6274285Y-22909080D02*
X6213809Y-22848603D01*
X6213809Y-22848603D02*
X6092856Y-22788127D01*
X6092856Y-22788127D02*
X5790475Y-22788127D01*
X5790475Y-22788127D02*
X5669523Y-22848603D01*
X5669523Y-22848603D02*
X5609047Y-22909080D01*
X5609047Y-22909080D02*
X5548570Y-23030032D01*
X5548570Y-23030032D02*
X5548570Y-23332413D01*
X5548570Y-23332413D02*
X5609047Y-23453365D01*
X5609047Y-23453365D02*
X5669523Y-23513842D01*
X5669523Y-23513842D02*
X5790475Y-23574318D01*
X5790475Y-23574318D02*
X6092856Y-23574318D01*
X6092856Y-23574318D02*
X6213809Y-23513842D01*
X6213809Y-23513842D02*
X6274285Y-23453365D01*
X135453365Y-48788333D02*
X135513842Y-48727857D01*
X135513842Y-48727857D02*
X135574318Y-48546428D01*
X135574318Y-48546428D02*
X135574318Y-48425476D01*
X135574318Y-48425476D02*
X135513842Y-48244047D01*
X135513842Y-48244047D02*
X135392889Y-48123095D01*
X135392889Y-48123095D02*
X135271937Y-48062618D01*
X135271937Y-48062618D02*
X135030032Y-48002142D01*
X135030032Y-48002142D02*
X134848603Y-48002142D01*
X134848603Y-48002142D02*
X134606699Y-48062618D01*
X134606699Y-48062618D02*
X134485746Y-48123095D01*
X134485746Y-48123095D02*
X134364794Y-48244047D01*
X134364794Y-48244047D02*
X134304318Y-48425476D01*
X134304318Y-48425476D02*
X134304318Y-48546428D01*
X134304318Y-48546428D02*
X134364794Y-48727857D01*
X134364794Y-48727857D02*
X134425270Y-48788333D01*
X134304318Y-49211666D02*
X134304318Y-50058333D01*
X134304318Y-50058333D02*
X135574318Y-49514047D01*
X34453365Y-48183571D02*
X34513842Y-48123095D01*
X34513842Y-48123095D02*
X34574318Y-47941666D01*
X34574318Y-47941666D02*
X34574318Y-47820714D01*
X34574318Y-47820714D02*
X34513842Y-47639285D01*
X34513842Y-47639285D02*
X34392889Y-47518333D01*
X34392889Y-47518333D02*
X34271937Y-47457856D01*
X34271937Y-47457856D02*
X34030032Y-47397380D01*
X34030032Y-47397380D02*
X33848603Y-47397380D01*
X33848603Y-47397380D02*
X33606699Y-47457856D01*
X33606699Y-47457856D02*
X33485746Y-47518333D01*
X33485746Y-47518333D02*
X33364794Y-47639285D01*
X33364794Y-47639285D02*
X33304318Y-47820714D01*
X33304318Y-47820714D02*
X33304318Y-47941666D01*
X33304318Y-47941666D02*
X33364794Y-48123095D01*
X33364794Y-48123095D02*
X33425270Y-48183571D01*
X34574318Y-49393095D02*
X34574318Y-48667380D01*
X34574318Y-49030237D02*
X33304318Y-49030237D01*
X33304318Y-49030237D02*
X33485746Y-48909285D01*
X33485746Y-48909285D02*
X33606699Y-48788333D01*
X33606699Y-48788333D02*
X33667175Y-48667380D01*
X33425270Y-49876904D02*
X33364794Y-49937380D01*
X33364794Y-49937380D02*
X33304318Y-50058333D01*
X33304318Y-50058333D02*
X33304318Y-50360714D01*
X33304318Y-50360714D02*
X33364794Y-50481666D01*
X33364794Y-50481666D02*
X33425270Y-50542142D01*
X33425270Y-50542142D02*
X33546222Y-50602619D01*
X33546222Y-50602619D02*
X33667175Y-50602619D01*
X33667175Y-50602619D02*
X33848603Y-50542142D01*
X33848603Y-50542142D02*
X34574318Y-49816428D01*
X34574318Y-49816428D02*
X34574318Y-50602619D01*
X56453365Y-48788333D02*
X56513842Y-48727857D01*
X56513842Y-48727857D02*
X56574318Y-48546428D01*
X56574318Y-48546428D02*
X56574318Y-48425476D01*
X56574318Y-48425476D02*
X56513842Y-48244047D01*
X56513842Y-48244047D02*
X56392889Y-48123095D01*
X56392889Y-48123095D02*
X56271937Y-48062618D01*
X56271937Y-48062618D02*
X56030032Y-48002142D01*
X56030032Y-48002142D02*
X55848603Y-48002142D01*
X55848603Y-48002142D02*
X55606699Y-48062618D01*
X55606699Y-48062618D02*
X55485746Y-48123095D01*
X55485746Y-48123095D02*
X55364794Y-48244047D01*
X55364794Y-48244047D02*
X55304318Y-48425476D01*
X55304318Y-48425476D02*
X55304318Y-48546428D01*
X55304318Y-48546428D02*
X55364794Y-48727857D01*
X55364794Y-48727857D02*
X55425270Y-48788333D01*
X55727651Y-49876904D02*
X56574318Y-49876904D01*
X55243842Y-49574523D02*
X56150984Y-49272142D01*
X56150984Y-49272142D02*
X56150984Y-50058333D01*
X146453365Y-48788333D02*
X146513842Y-48727857D01*
X146513842Y-48727857D02*
X146574318Y-48546428D01*
X146574318Y-48546428D02*
X146574318Y-48425476D01*
X146574318Y-48425476D02*
X146513842Y-48244047D01*
X146513842Y-48244047D02*
X146392889Y-48123095D01*
X146392889Y-48123095D02*
X146271937Y-48062618D01*
X146271937Y-48062618D02*
X146030032Y-48002142D01*
X146030032Y-48002142D02*
X145848603Y-48002142D01*
X145848603Y-48002142D02*
X145606699Y-48062618D01*
X145606699Y-48062618D02*
X145485746Y-48123095D01*
X145485746Y-48123095D02*
X145364794Y-48244047D01*
X145364794Y-48244047D02*
X145304318Y-48425476D01*
X145304318Y-48425476D02*
X145304318Y-48546428D01*
X145304318Y-48546428D02*
X145364794Y-48727857D01*
X145364794Y-48727857D02*
X145425270Y-48788333D01*
X145848603Y-49514047D02*
X145788127Y-49393095D01*
X145788127Y-49393095D02*
X145727651Y-49332618D01*
X145727651Y-49332618D02*
X145606699Y-49272142D01*
X145606699Y-49272142D02*
X145546222Y-49272142D01*
X145546222Y-49272142D02*
X145425270Y-49332618D01*
X145425270Y-49332618D02*
X145364794Y-49393095D01*
X145364794Y-49393095D02*
X145304318Y-49514047D01*
X145304318Y-49514047D02*
X145304318Y-49755952D01*
X145304318Y-49755952D02*
X145364794Y-49876904D01*
X145364794Y-49876904D02*
X145425270Y-49937380D01*
X145425270Y-49937380D02*
X145546222Y-49997857D01*
X145546222Y-49997857D02*
X145606699Y-49997857D01*
X145606699Y-49997857D02*
X145727651Y-49937380D01*
X145727651Y-49937380D02*
X145788127Y-49876904D01*
X145788127Y-49876904D02*
X145848603Y-49755952D01*
X145848603Y-49755952D02*
X145848603Y-49514047D01*
X145848603Y-49514047D02*
X145909080Y-49393095D01*
X145909080Y-49393095D02*
X145969556Y-49332618D01*
X145969556Y-49332618D02*
X146090508Y-49272142D01*
X146090508Y-49272142D02*
X146332413Y-49272142D01*
X146332413Y-49272142D02*
X146453365Y-49332618D01*
X146453365Y-49332618D02*
X146513842Y-49393095D01*
X146513842Y-49393095D02*
X146574318Y-49514047D01*
X146574318Y-49514047D02*
X146574318Y-49755952D01*
X146574318Y-49755952D02*
X146513842Y-49876904D01*
X146513842Y-49876904D02*
X146453365Y-49937380D01*
X146453365Y-49937380D02*
X146332413Y-49997857D01*
X146332413Y-49997857D02*
X146090508Y-49997857D01*
X146090508Y-49997857D02*
X145969556Y-49937380D01*
X145969556Y-49937380D02*
X145909080Y-49876904D01*
X145909080Y-49876904D02*
X145848603Y-49755952D01*
X45453365Y-48788333D02*
X45513842Y-48727857D01*
X45513842Y-48727857D02*
X45574318Y-48546428D01*
X45574318Y-48546428D02*
X45574318Y-48425476D01*
X45574318Y-48425476D02*
X45513842Y-48244047D01*
X45513842Y-48244047D02*
X45392889Y-48123095D01*
X45392889Y-48123095D02*
X45271937Y-48062618D01*
X45271937Y-48062618D02*
X45030032Y-48002142D01*
X45030032Y-48002142D02*
X44848603Y-48002142D01*
X44848603Y-48002142D02*
X44606699Y-48062618D01*
X44606699Y-48062618D02*
X44485746Y-48123095D01*
X44485746Y-48123095D02*
X44364794Y-48244047D01*
X44364794Y-48244047D02*
X44304318Y-48425476D01*
X44304318Y-48425476D02*
X44304318Y-48546428D01*
X44304318Y-48546428D02*
X44364794Y-48727857D01*
X44364794Y-48727857D02*
X44425270Y-48788333D01*
X44304318Y-49211666D02*
X44304318Y-49997857D01*
X44304318Y-49997857D02*
X44788127Y-49574523D01*
X44788127Y-49574523D02*
X44788127Y-49755952D01*
X44788127Y-49755952D02*
X44848603Y-49876904D01*
X44848603Y-49876904D02*
X44909080Y-49937380D01*
X44909080Y-49937380D02*
X45030032Y-49997857D01*
X45030032Y-49997857D02*
X45332413Y-49997857D01*
X45332413Y-49997857D02*
X45453365Y-49937380D01*
X45453365Y-49937380D02*
X45513842Y-49876904D01*
X45513842Y-49876904D02*
X45574318Y-49755952D01*
X45574318Y-49755952D02*
X45574318Y-49393095D01*
X45574318Y-49393095D02*
X45513842Y-49272142D01*
X45513842Y-49272142D02*
X45453365Y-49211666D01*
%TO.C,C32*%
D10*
X237075000Y-47000000D02*
X237075000Y-51000000D01*
X244925000Y-47000000D02*
X244925000Y-51000000D01*
%TO.C,C33*%
X215075000Y-47000000D02*
X215075000Y-51000000D01*
X222925000Y-47000000D02*
X222925000Y-51000000D01*
%TO.C,C31*%
X226075000Y-47000000D02*
X226075000Y-51000000D01*
X233925000Y-47000000D02*
X233925000Y-51000000D01*
%TO.C,C21*%
X125075000Y-47000000D02*
X125075000Y-51000000D01*
X132925000Y-47000000D02*
X132925000Y-51000000D01*
%TO.C,J15*%
D15*
X4350000Y-28000000D02*
X4350000Y-65200000D01*
D10*
X11300000Y-31100000D02*
X11300000Y-31100000D01*
X11400000Y-31100000D02*
X11400000Y-31100000D01*
X11300000Y-31100000D02*
G75*
G02*
X11400000Y-31100000I50000J0D01*
G01*
X11400000Y-31100000D02*
G75*
G02*
X11300000Y-31100000I-50000J0D01*
G01*
%TO.C,C7*%
X136075000Y-47000000D02*
X136075000Y-51000000D01*
X143925000Y-47000000D02*
X143925000Y-51000000D01*
%TO.C,C12*%
X35075000Y-47000000D02*
X35075000Y-51000000D01*
X42925000Y-47000000D02*
X42925000Y-51000000D01*
%TO.C,C4*%
X57075000Y-47000000D02*
X57075000Y-51000000D01*
X64925000Y-47000000D02*
X64925000Y-51000000D01*
%TO.C,C8*%
X147075000Y-47000000D02*
X147075000Y-51000000D01*
X154925000Y-47000000D02*
X154925000Y-51000000D01*
%TO.C,C3*%
X46075000Y-47000000D02*
X46075000Y-51000000D01*
X53925000Y-47000000D02*
X53925000Y-51000000D01*
%TD*%
M02*
