%TF.GenerationSoftware,KiCad,Pcbnew,9.0.1*%
%TF.CreationDate,2026-02-08T14:41:03-08:00*%
%TF.ProjectId,DCBusFilter,44434275-7346-4696-9c74-65722e6b6963,rev?*%
%TF.SameCoordinates,Original*%
%TF.FileFunction,Soldermask,Bot*%
%TF.FilePolarity,Negative*%
%FSLAX46Y46*%
G04 Gerber Fmt 4.6, Leading zero omitted, Abs format (unit mm)*
G04 Created by KiCad (PCBNEW 9.0.1) date 2026-02-08 14:41:03*
%MOMM*%
%LPD*%
G01*
G04 APERTURE LIST*
%ADD10C,0.200000*%
%ADD11C,10.000000*%
%ADD12C,5.500000*%
%ADD13R,2.100000X2.100000*%
%ADD14C,2.100000*%
%ADD15C,1.381000*%
%ADD16R,2.400000X2.400000*%
%ADD17C,2.400000*%
G04 APERTURE END LIST*
D10*
X2000000Y-27500000D02*
X89000000Y-27500000D01*
X89000000Y-42500000D01*
X2000000Y-42500000D01*
X2000000Y-27500000D01*
G36*
X2000000Y-27500000D02*
G01*
X89000000Y-27500000D01*
X89000000Y-42500000D01*
X2000000Y-42500000D01*
X2000000Y-27500000D01*
G37*
X42500000Y0D02*
X57500000Y0D01*
X57500000Y-15000000D01*
X42500000Y-15000000D01*
X42500000Y0D01*
G36*
X42500000Y0D02*
G01*
X57500000Y0D01*
X57500000Y-15000000D01*
X42500000Y-15000000D01*
X42500000Y0D01*
G37*
X2000000Y-57000000D02*
X89000000Y-57000000D01*
X89000000Y-70000000D01*
X2000000Y-70000000D01*
X2000000Y-57000000D01*
G36*
X2000000Y-57000000D02*
G01*
X89000000Y-57000000D01*
X89000000Y-70000000D01*
X2000000Y-70000000D01*
X2000000Y-57000000D01*
G37*
D11*
%TO.C,H3*%
X50000000Y-7000000D03*
%TD*%
D12*
%TO.C,H5*%
X87000000Y0D03*
%TD*%
D13*
%TO.C,C1*%
X33650000Y-71500000D03*
D14*
X33650000Y-19000000D03*
X13350000Y-71500000D03*
X13350000Y-19000000D03*
%TD*%
D15*
%TO.C,C5*%
X76000000Y2000000D03*
X76000000Y-8000000D03*
%TD*%
%TO.C,C7*%
X87000000Y-13000000D03*
X77000000Y-13000000D03*
%TD*%
%TO.C,C11*%
X25000000Y6000000D03*
X25000000Y-4000000D03*
%TD*%
%TO.C,C10*%
X18000000Y0D03*
X18000000Y-10000000D03*
%TD*%
%TO.C,C9*%
X51500000Y-44500000D03*
X51500000Y-54500000D03*
%TD*%
%TO.C,C6*%
X50000000Y-25500000D03*
X50000000Y-15500000D03*
%TD*%
D11*
%TO.C,H1*%
X50000000Y-63000000D03*
%TD*%
D15*
%TO.C,C8*%
X44500000Y-44500000D03*
X44500000Y-54500000D03*
%TD*%
D11*
%TO.C,H2*%
X50000000Y-35000000D03*
%TD*%
D13*
%TO.C,C2*%
X83650000Y-71975000D03*
D14*
X83650000Y-19475000D03*
X63350000Y-71975000D03*
X63350000Y-19475000D03*
%TD*%
D12*
%TO.C,H4*%
X14000000Y5000000D03*
%TD*%
D16*
%TO.C,J1*%
X5000000Y-17740000D03*
D17*
X5000000Y-12660000D03*
X5000000Y-7580000D03*
X5000000Y-2500000D03*
%TD*%
M02*
