%TF.GenerationSoftware,KiCad,Pcbnew,10.0.3*%
%TF.CreationDate,2026-07-17T00:01:58-07:00*%
%TF.ProjectId,DCBusFilter,44434275-7346-4696-9c74-65722e6b6963,rev?*%
%TF.SameCoordinates,Original*%
%TF.FileFunction,Legend,Bot*%
%TF.FilePolarity,Positive*%
%FSLAX46Y46*%
G04 Gerber Fmt 4.6, Leading zero omitted, Abs format (unit mm)*
G04 Created by KiCad (PCBNEW 10.0.3) date 2026-07-17 00:01:58*
%MOMM*%
%LPD*%
G01*
G04 APERTURE LIST*
%ADD10C,0.100000*%
%ADD11C,0.300000*%
%ADD12C,0.375000*%
%ADD13C,0.500000*%
%ADD14C,0.254000*%
%ADD15C,0.200000*%
G04 APERTURE END LIST*
D10*
X30000000Y-42500000D02*
X277000000Y-42500000D01*
X277000000Y-55000000D01*
X30000000Y-55000000D01*
X30000000Y-42500000D01*
D11*
X2337542Y-27483082D02*
X1137542Y-27483082D01*
X1137542Y-27483082D02*
X1137542Y-27768796D01*
X1137542Y-27768796D02*
X1194685Y-27940225D01*
X1194685Y-27940225D02*
X1308971Y-28054510D01*
X1308971Y-28054510D02*
X1423257Y-28111653D01*
X1423257Y-28111653D02*
X1651828Y-28168796D01*
X1651828Y-28168796D02*
X1823257Y-28168796D01*
X1823257Y-28168796D02*
X2051828Y-28111653D01*
X2051828Y-28111653D02*
X2166114Y-28054510D01*
X2166114Y-28054510D02*
X2280400Y-27940225D01*
X2280400Y-27940225D02*
X2337542Y-27768796D01*
X2337542Y-27768796D02*
X2337542Y-27483082D01*
X2223257Y-29368796D02*
X2280400Y-29311653D01*
X2280400Y-29311653D02*
X2337542Y-29140225D01*
X2337542Y-29140225D02*
X2337542Y-29025939D01*
X2337542Y-29025939D02*
X2280400Y-28854510D01*
X2280400Y-28854510D02*
X2166114Y-28740225D01*
X2166114Y-28740225D02*
X2051828Y-28683082D01*
X2051828Y-28683082D02*
X1823257Y-28625939D01*
X1823257Y-28625939D02*
X1651828Y-28625939D01*
X1651828Y-28625939D02*
X1423257Y-28683082D01*
X1423257Y-28683082D02*
X1308971Y-28740225D01*
X1308971Y-28740225D02*
X1194685Y-28854510D01*
X1194685Y-28854510D02*
X1137542Y-29025939D01*
X1137542Y-29025939D02*
X1137542Y-29140225D01*
X1137542Y-29140225D02*
X1194685Y-29311653D01*
X1194685Y-29311653D02*
X1251828Y-29368796D01*
X1880400Y-29883082D02*
X1880400Y-30797368D01*
X2737542Y-32568796D02*
X1023257Y-32568796D01*
X2337542Y-34340225D02*
X1137542Y-34340225D01*
X1137542Y-34340225D02*
X1137542Y-34797368D01*
X1137542Y-34797368D02*
X1194685Y-34911653D01*
X1194685Y-34911653D02*
X1251828Y-34968796D01*
X1251828Y-34968796D02*
X1366114Y-35025939D01*
X1366114Y-35025939D02*
X1537542Y-35025939D01*
X1537542Y-35025939D02*
X1651828Y-34968796D01*
X1651828Y-34968796D02*
X1708971Y-34911653D01*
X1708971Y-34911653D02*
X1766114Y-34797368D01*
X1766114Y-34797368D02*
X1766114Y-34340225D01*
X2337542Y-35540225D02*
X1137542Y-35540225D01*
X1708971Y-35540225D02*
X1708971Y-36225939D01*
X2337542Y-36225939D02*
X1137542Y-36225939D01*
X1137542Y-36797368D02*
X2108971Y-36797368D01*
X2108971Y-36797368D02*
X2223257Y-36854511D01*
X2223257Y-36854511D02*
X2280400Y-36911654D01*
X2280400Y-36911654D02*
X2337542Y-37025939D01*
X2337542Y-37025939D02*
X2337542Y-37254511D01*
X2337542Y-37254511D02*
X2280400Y-37368796D01*
X2280400Y-37368796D02*
X2223257Y-37425939D01*
X2223257Y-37425939D02*
X2108971Y-37483082D01*
X2108971Y-37483082D02*
X1137542Y-37483082D01*
X2737542Y-39254511D02*
X1023257Y-39254511D01*
X2337542Y-41025940D02*
X1137542Y-41025940D01*
X1137542Y-41025940D02*
X1137542Y-41483083D01*
X1137542Y-41483083D02*
X1194685Y-41597368D01*
X1194685Y-41597368D02*
X1251828Y-41654511D01*
X1251828Y-41654511D02*
X1366114Y-41711654D01*
X1366114Y-41711654D02*
X1537542Y-41711654D01*
X1537542Y-41711654D02*
X1651828Y-41654511D01*
X1651828Y-41654511D02*
X1708971Y-41597368D01*
X1708971Y-41597368D02*
X1766114Y-41483083D01*
X1766114Y-41483083D02*
X1766114Y-41025940D01*
X2337542Y-42225940D02*
X1137542Y-42225940D01*
X1708971Y-42225940D02*
X1708971Y-42911654D01*
X2337542Y-42911654D02*
X1137542Y-42911654D01*
X1137542Y-43311654D02*
X2337542Y-43711654D01*
X2337542Y-43711654D02*
X1137542Y-44111654D01*
X2737542Y-45711654D02*
X1023257Y-45711654D01*
X2337542Y-47483083D02*
X1137542Y-47483083D01*
X1137542Y-47483083D02*
X1137542Y-47940226D01*
X1137542Y-47940226D02*
X1194685Y-48054511D01*
X1194685Y-48054511D02*
X1251828Y-48111654D01*
X1251828Y-48111654D02*
X1366114Y-48168797D01*
X1366114Y-48168797D02*
X1537542Y-48168797D01*
X1537542Y-48168797D02*
X1651828Y-48111654D01*
X1651828Y-48111654D02*
X1708971Y-48054511D01*
X1708971Y-48054511D02*
X1766114Y-47940226D01*
X1766114Y-47940226D02*
X1766114Y-47483083D01*
X2337542Y-48683083D02*
X1137542Y-48683083D01*
X1708971Y-48683083D02*
X1708971Y-49368797D01*
X2337542Y-49368797D02*
X1137542Y-49368797D01*
X1137542Y-49825940D02*
X2337542Y-50111654D01*
X2337542Y-50111654D02*
X1480400Y-50340226D01*
X1480400Y-50340226D02*
X2337542Y-50568797D01*
X2337542Y-50568797D02*
X1137542Y-50854512D01*
X2737542Y-52511655D02*
X1023257Y-52511655D01*
X2337542Y-54283084D02*
X1137542Y-54283084D01*
X1137542Y-54283084D02*
X1137542Y-54568798D01*
X1137542Y-54568798D02*
X1194685Y-54740227D01*
X1194685Y-54740227D02*
X1308971Y-54854512D01*
X1308971Y-54854512D02*
X1423257Y-54911655D01*
X1423257Y-54911655D02*
X1651828Y-54968798D01*
X1651828Y-54968798D02*
X1823257Y-54968798D01*
X1823257Y-54968798D02*
X2051828Y-54911655D01*
X2051828Y-54911655D02*
X2166114Y-54854512D01*
X2166114Y-54854512D02*
X2280400Y-54740227D01*
X2280400Y-54740227D02*
X2337542Y-54568798D01*
X2337542Y-54568798D02*
X2337542Y-54283084D01*
X2223257Y-56168798D02*
X2280400Y-56111655D01*
X2280400Y-56111655D02*
X2337542Y-55940227D01*
X2337542Y-55940227D02*
X2337542Y-55825941D01*
X2337542Y-55825941D02*
X2280400Y-55654512D01*
X2280400Y-55654512D02*
X2166114Y-55540227D01*
X2166114Y-55540227D02*
X2051828Y-55483084D01*
X2051828Y-55483084D02*
X1823257Y-55425941D01*
X1823257Y-55425941D02*
X1651828Y-55425941D01*
X1651828Y-55425941D02*
X1423257Y-55483084D01*
X1423257Y-55483084D02*
X1308971Y-55540227D01*
X1308971Y-55540227D02*
X1194685Y-55654512D01*
X1194685Y-55654512D02*
X1137542Y-55825941D01*
X1137542Y-55825941D02*
X1137542Y-55940227D01*
X1137542Y-55940227D02*
X1194685Y-56111655D01*
X1194685Y-56111655D02*
X1251828Y-56168798D01*
X1880400Y-56683084D02*
X1880400Y-57597370D01*
X2337542Y-57140227D02*
X1423257Y-57140227D01*
X2737542Y-59368798D02*
X1023257Y-59368798D01*
X1194685Y-61768798D02*
X1137542Y-61654513D01*
X1137542Y-61654513D02*
X1137542Y-61483084D01*
X1137542Y-61483084D02*
X1194685Y-61311655D01*
X1194685Y-61311655D02*
X1308971Y-61197370D01*
X1308971Y-61197370D02*
X1423257Y-61140227D01*
X1423257Y-61140227D02*
X1651828Y-61083084D01*
X1651828Y-61083084D02*
X1823257Y-61083084D01*
X1823257Y-61083084D02*
X2051828Y-61140227D01*
X2051828Y-61140227D02*
X2166114Y-61197370D01*
X2166114Y-61197370D02*
X2280400Y-61311655D01*
X2280400Y-61311655D02*
X2337542Y-61483084D01*
X2337542Y-61483084D02*
X2337542Y-61597370D01*
X2337542Y-61597370D02*
X2280400Y-61768798D01*
X2280400Y-61768798D02*
X2223257Y-61825941D01*
X2223257Y-61825941D02*
X1823257Y-61825941D01*
X1823257Y-61825941D02*
X1823257Y-61597370D01*
X2337542Y-62340227D02*
X1137542Y-62340227D01*
X1137542Y-62340227D02*
X2337542Y-63025941D01*
X2337542Y-63025941D02*
X1137542Y-63025941D01*
X2337542Y-63597370D02*
X1137542Y-63597370D01*
X1137542Y-63597370D02*
X1137542Y-63883084D01*
X1137542Y-63883084D02*
X1194685Y-64054513D01*
X1194685Y-64054513D02*
X1308971Y-64168798D01*
X1308971Y-64168798D02*
X1423257Y-64225941D01*
X1423257Y-64225941D02*
X1651828Y-64283084D01*
X1651828Y-64283084D02*
X1823257Y-64283084D01*
X1823257Y-64283084D02*
X2051828Y-64225941D01*
X2051828Y-64225941D02*
X2166114Y-64168798D01*
X2166114Y-64168798D02*
X2280400Y-64054513D01*
X2280400Y-64054513D02*
X2337542Y-63883084D01*
X2337542Y-63883084D02*
X2337542Y-63597370D01*
X13837542Y-28483082D02*
X12637542Y-28483082D01*
X12637542Y-28483082D02*
X12637542Y-28768796D01*
X12637542Y-28768796D02*
X12694685Y-28940225D01*
X12694685Y-28940225D02*
X12808971Y-29054510D01*
X12808971Y-29054510D02*
X12923257Y-29111653D01*
X12923257Y-29111653D02*
X13151828Y-29168796D01*
X13151828Y-29168796D02*
X13323257Y-29168796D01*
X13323257Y-29168796D02*
X13551828Y-29111653D01*
X13551828Y-29111653D02*
X13666114Y-29054510D01*
X13666114Y-29054510D02*
X13780400Y-28940225D01*
X13780400Y-28940225D02*
X13837542Y-28768796D01*
X13837542Y-28768796D02*
X13837542Y-28483082D01*
X13723257Y-30368796D02*
X13780400Y-30311653D01*
X13780400Y-30311653D02*
X13837542Y-30140225D01*
X13837542Y-30140225D02*
X13837542Y-30025939D01*
X13837542Y-30025939D02*
X13780400Y-29854510D01*
X13780400Y-29854510D02*
X13666114Y-29740225D01*
X13666114Y-29740225D02*
X13551828Y-29683082D01*
X13551828Y-29683082D02*
X13323257Y-29625939D01*
X13323257Y-29625939D02*
X13151828Y-29625939D01*
X13151828Y-29625939D02*
X12923257Y-29683082D01*
X12923257Y-29683082D02*
X12808971Y-29740225D01*
X12808971Y-29740225D02*
X12694685Y-29854510D01*
X12694685Y-29854510D02*
X12637542Y-30025939D01*
X12637542Y-30025939D02*
X12637542Y-30140225D01*
X12637542Y-30140225D02*
X12694685Y-30311653D01*
X12694685Y-30311653D02*
X12751828Y-30368796D01*
X13380400Y-30883082D02*
X13380400Y-31797368D01*
X14237542Y-33568796D02*
X12523257Y-33568796D01*
X13837542Y-35340225D02*
X12637542Y-35340225D01*
X12637542Y-35340225D02*
X12637542Y-35797368D01*
X12637542Y-35797368D02*
X12694685Y-35911653D01*
X12694685Y-35911653D02*
X12751828Y-35968796D01*
X12751828Y-35968796D02*
X12866114Y-36025939D01*
X12866114Y-36025939D02*
X13037542Y-36025939D01*
X13037542Y-36025939D02*
X13151828Y-35968796D01*
X13151828Y-35968796D02*
X13208971Y-35911653D01*
X13208971Y-35911653D02*
X13266114Y-35797368D01*
X13266114Y-35797368D02*
X13266114Y-35340225D01*
X13837542Y-36540225D02*
X12637542Y-36540225D01*
X13208971Y-36540225D02*
X13208971Y-37225939D01*
X13837542Y-37225939D02*
X12637542Y-37225939D01*
X12637542Y-37797368D02*
X13608971Y-37797368D01*
X13608971Y-37797368D02*
X13723257Y-37854511D01*
X13723257Y-37854511D02*
X13780400Y-37911654D01*
X13780400Y-37911654D02*
X13837542Y-38025939D01*
X13837542Y-38025939D02*
X13837542Y-38254511D01*
X13837542Y-38254511D02*
X13780400Y-38368796D01*
X13780400Y-38368796D02*
X13723257Y-38425939D01*
X13723257Y-38425939D02*
X13608971Y-38483082D01*
X13608971Y-38483082D02*
X12637542Y-38483082D01*
X14237542Y-40254511D02*
X12523257Y-40254511D01*
X13837542Y-42025940D02*
X12637542Y-42025940D01*
X12637542Y-42025940D02*
X12637542Y-42483083D01*
X12637542Y-42483083D02*
X12694685Y-42597368D01*
X12694685Y-42597368D02*
X12751828Y-42654511D01*
X12751828Y-42654511D02*
X12866114Y-42711654D01*
X12866114Y-42711654D02*
X13037542Y-42711654D01*
X13037542Y-42711654D02*
X13151828Y-42654511D01*
X13151828Y-42654511D02*
X13208971Y-42597368D01*
X13208971Y-42597368D02*
X13266114Y-42483083D01*
X13266114Y-42483083D02*
X13266114Y-42025940D01*
X13837542Y-43225940D02*
X12637542Y-43225940D01*
X13208971Y-43225940D02*
X13208971Y-43911654D01*
X13837542Y-43911654D02*
X12637542Y-43911654D01*
X12637542Y-44311654D02*
X13837542Y-44711654D01*
X13837542Y-44711654D02*
X12637542Y-45111654D01*
X14237542Y-46711654D02*
X12523257Y-46711654D01*
X13837542Y-48483083D02*
X12637542Y-48483083D01*
X12637542Y-48483083D02*
X12637542Y-48940226D01*
X12637542Y-48940226D02*
X12694685Y-49054511D01*
X12694685Y-49054511D02*
X12751828Y-49111654D01*
X12751828Y-49111654D02*
X12866114Y-49168797D01*
X12866114Y-49168797D02*
X13037542Y-49168797D01*
X13037542Y-49168797D02*
X13151828Y-49111654D01*
X13151828Y-49111654D02*
X13208971Y-49054511D01*
X13208971Y-49054511D02*
X13266114Y-48940226D01*
X13266114Y-48940226D02*
X13266114Y-48483083D01*
X13837542Y-49683083D02*
X12637542Y-49683083D01*
X13208971Y-49683083D02*
X13208971Y-50368797D01*
X13837542Y-50368797D02*
X12637542Y-50368797D01*
X12637542Y-50825940D02*
X13837542Y-51111654D01*
X13837542Y-51111654D02*
X12980400Y-51340226D01*
X12980400Y-51340226D02*
X13837542Y-51568797D01*
X13837542Y-51568797D02*
X12637542Y-51854512D01*
X14237542Y-53511655D02*
X12523257Y-53511655D01*
X13837542Y-55283084D02*
X12637542Y-55283084D01*
X12637542Y-55283084D02*
X12637542Y-55568798D01*
X12637542Y-55568798D02*
X12694685Y-55740227D01*
X12694685Y-55740227D02*
X12808971Y-55854512D01*
X12808971Y-55854512D02*
X12923257Y-55911655D01*
X12923257Y-55911655D02*
X13151828Y-55968798D01*
X13151828Y-55968798D02*
X13323257Y-55968798D01*
X13323257Y-55968798D02*
X13551828Y-55911655D01*
X13551828Y-55911655D02*
X13666114Y-55854512D01*
X13666114Y-55854512D02*
X13780400Y-55740227D01*
X13780400Y-55740227D02*
X13837542Y-55568798D01*
X13837542Y-55568798D02*
X13837542Y-55283084D01*
X13723257Y-57168798D02*
X13780400Y-57111655D01*
X13780400Y-57111655D02*
X13837542Y-56940227D01*
X13837542Y-56940227D02*
X13837542Y-56825941D01*
X13837542Y-56825941D02*
X13780400Y-56654512D01*
X13780400Y-56654512D02*
X13666114Y-56540227D01*
X13666114Y-56540227D02*
X13551828Y-56483084D01*
X13551828Y-56483084D02*
X13323257Y-56425941D01*
X13323257Y-56425941D02*
X13151828Y-56425941D01*
X13151828Y-56425941D02*
X12923257Y-56483084D01*
X12923257Y-56483084D02*
X12808971Y-56540227D01*
X12808971Y-56540227D02*
X12694685Y-56654512D01*
X12694685Y-56654512D02*
X12637542Y-56825941D01*
X12637542Y-56825941D02*
X12637542Y-56940227D01*
X12637542Y-56940227D02*
X12694685Y-57111655D01*
X12694685Y-57111655D02*
X12751828Y-57168798D01*
X13380400Y-57683084D02*
X13380400Y-58597370D01*
X13837542Y-58140227D02*
X12923257Y-58140227D01*
X14237542Y-60368798D02*
X12523257Y-60368798D01*
X12694685Y-62768798D02*
X12637542Y-62654513D01*
X12637542Y-62654513D02*
X12637542Y-62483084D01*
X12637542Y-62483084D02*
X12694685Y-62311655D01*
X12694685Y-62311655D02*
X12808971Y-62197370D01*
X12808971Y-62197370D02*
X12923257Y-62140227D01*
X12923257Y-62140227D02*
X13151828Y-62083084D01*
X13151828Y-62083084D02*
X13323257Y-62083084D01*
X13323257Y-62083084D02*
X13551828Y-62140227D01*
X13551828Y-62140227D02*
X13666114Y-62197370D01*
X13666114Y-62197370D02*
X13780400Y-62311655D01*
X13780400Y-62311655D02*
X13837542Y-62483084D01*
X13837542Y-62483084D02*
X13837542Y-62597370D01*
X13837542Y-62597370D02*
X13780400Y-62768798D01*
X13780400Y-62768798D02*
X13723257Y-62825941D01*
X13723257Y-62825941D02*
X13323257Y-62825941D01*
X13323257Y-62825941D02*
X13323257Y-62597370D01*
X13837542Y-63340227D02*
X12637542Y-63340227D01*
X12637542Y-63340227D02*
X13837542Y-64025941D01*
X13837542Y-64025941D02*
X12637542Y-64025941D01*
X13837542Y-64597370D02*
X12637542Y-64597370D01*
X12637542Y-64597370D02*
X12637542Y-64883084D01*
X12637542Y-64883084D02*
X12694685Y-65054513D01*
X12694685Y-65054513D02*
X12808971Y-65168798D01*
X12808971Y-65168798D02*
X12923257Y-65225941D01*
X12923257Y-65225941D02*
X13151828Y-65283084D01*
X13151828Y-65283084D02*
X13323257Y-65283084D01*
X13323257Y-65283084D02*
X13551828Y-65225941D01*
X13551828Y-65225941D02*
X13666114Y-65168798D01*
X13666114Y-65168798D02*
X13780400Y-65054513D01*
X13780400Y-65054513D02*
X13837542Y-64883084D01*
X13837542Y-64883084D02*
X13837542Y-64597370D01*
D12*
X61250000Y-26674428D02*
X61250000Y-25174428D01*
X61250000Y-25174428D02*
X60892857Y-25174428D01*
X60892857Y-25174428D02*
X60678571Y-25245857D01*
X60678571Y-25245857D02*
X60535714Y-25388714D01*
X60535714Y-25388714D02*
X60464285Y-25531571D01*
X60464285Y-25531571D02*
X60392857Y-25817285D01*
X60392857Y-25817285D02*
X60392857Y-26031571D01*
X60392857Y-26031571D02*
X60464285Y-26317285D01*
X60464285Y-26317285D02*
X60535714Y-26460142D01*
X60535714Y-26460142D02*
X60678571Y-26603000D01*
X60678571Y-26603000D02*
X60892857Y-26674428D01*
X60892857Y-26674428D02*
X61250000Y-26674428D01*
X58892857Y-26531571D02*
X58964285Y-26603000D01*
X58964285Y-26603000D02*
X59178571Y-26674428D01*
X59178571Y-26674428D02*
X59321428Y-26674428D01*
X59321428Y-26674428D02*
X59535714Y-26603000D01*
X59535714Y-26603000D02*
X59678571Y-26460142D01*
X59678571Y-26460142D02*
X59750000Y-26317285D01*
X59750000Y-26317285D02*
X59821428Y-26031571D01*
X59821428Y-26031571D02*
X59821428Y-25817285D01*
X59821428Y-25817285D02*
X59750000Y-25531571D01*
X59750000Y-25531571D02*
X59678571Y-25388714D01*
X59678571Y-25388714D02*
X59535714Y-25245857D01*
X59535714Y-25245857D02*
X59321428Y-25174428D01*
X59321428Y-25174428D02*
X59178571Y-25174428D01*
X59178571Y-25174428D02*
X58964285Y-25245857D01*
X58964285Y-25245857D02*
X58892857Y-25317285D01*
X56392857Y-26674428D02*
X57107143Y-26674428D01*
X57107143Y-26674428D02*
X57107143Y-25174428D01*
X55892857Y-26674428D02*
X55892857Y-25174428D01*
X55178571Y-26674428D02*
X55178571Y-25174428D01*
X55178571Y-25174428D02*
X54321428Y-26674428D01*
X54321428Y-26674428D02*
X54321428Y-25174428D01*
X53607142Y-26674428D02*
X53607142Y-25174428D01*
X52749999Y-26674428D02*
X53392856Y-25817285D01*
X52749999Y-25174428D02*
X53607142Y-26031571D01*
X50964285Y-26103000D02*
X49821428Y-26103000D01*
X47464285Y-25888714D02*
X47249999Y-25960142D01*
X47249999Y-25960142D02*
X47178570Y-26031571D01*
X47178570Y-26031571D02*
X47107142Y-26174428D01*
X47107142Y-26174428D02*
X47107142Y-26388714D01*
X47107142Y-26388714D02*
X47178570Y-26531571D01*
X47178570Y-26531571D02*
X47249999Y-26603000D01*
X47249999Y-26603000D02*
X47392856Y-26674428D01*
X47392856Y-26674428D02*
X47964285Y-26674428D01*
X47964285Y-26674428D02*
X47964285Y-25174428D01*
X47964285Y-25174428D02*
X47464285Y-25174428D01*
X47464285Y-25174428D02*
X47321428Y-25245857D01*
X47321428Y-25245857D02*
X47249999Y-25317285D01*
X47249999Y-25317285D02*
X47178570Y-25460142D01*
X47178570Y-25460142D02*
X47178570Y-25603000D01*
X47178570Y-25603000D02*
X47249999Y-25745857D01*
X47249999Y-25745857D02*
X47321428Y-25817285D01*
X47321428Y-25817285D02*
X47464285Y-25888714D01*
X47464285Y-25888714D02*
X47964285Y-25888714D01*
X46464285Y-25174428D02*
X46464285Y-26388714D01*
X46464285Y-26388714D02*
X46392856Y-26531571D01*
X46392856Y-26531571D02*
X46321428Y-26603000D01*
X46321428Y-26603000D02*
X46178570Y-26674428D01*
X46178570Y-26674428D02*
X45892856Y-26674428D01*
X45892856Y-26674428D02*
X45749999Y-26603000D01*
X45749999Y-26603000D02*
X45678570Y-26531571D01*
X45678570Y-26531571D02*
X45607142Y-26388714D01*
X45607142Y-26388714D02*
X45607142Y-25174428D01*
X44964284Y-26603000D02*
X44749999Y-26674428D01*
X44749999Y-26674428D02*
X44392856Y-26674428D01*
X44392856Y-26674428D02*
X44249999Y-26603000D01*
X44249999Y-26603000D02*
X44178570Y-26531571D01*
X44178570Y-26531571D02*
X44107141Y-26388714D01*
X44107141Y-26388714D02*
X44107141Y-26245857D01*
X44107141Y-26245857D02*
X44178570Y-26103000D01*
X44178570Y-26103000D02*
X44249999Y-26031571D01*
X44249999Y-26031571D02*
X44392856Y-25960142D01*
X44392856Y-25960142D02*
X44678570Y-25888714D01*
X44678570Y-25888714D02*
X44821427Y-25817285D01*
X44821427Y-25817285D02*
X44892856Y-25745857D01*
X44892856Y-25745857D02*
X44964284Y-25603000D01*
X44964284Y-25603000D02*
X44964284Y-25460142D01*
X44964284Y-25460142D02*
X44892856Y-25317285D01*
X44892856Y-25317285D02*
X44821427Y-25245857D01*
X44821427Y-25245857D02*
X44678570Y-25174428D01*
X44678570Y-25174428D02*
X44321427Y-25174428D01*
X44321427Y-25174428D02*
X44107141Y-25245857D01*
X41821428Y-25888714D02*
X41607142Y-25960142D01*
X41607142Y-25960142D02*
X41535713Y-26031571D01*
X41535713Y-26031571D02*
X41464285Y-26174428D01*
X41464285Y-26174428D02*
X41464285Y-26388714D01*
X41464285Y-26388714D02*
X41535713Y-26531571D01*
X41535713Y-26531571D02*
X41607142Y-26603000D01*
X41607142Y-26603000D02*
X41749999Y-26674428D01*
X41749999Y-26674428D02*
X42321428Y-26674428D01*
X42321428Y-26674428D02*
X42321428Y-25174428D01*
X42321428Y-25174428D02*
X41821428Y-25174428D01*
X41821428Y-25174428D02*
X41678571Y-25245857D01*
X41678571Y-25245857D02*
X41607142Y-25317285D01*
X41607142Y-25317285D02*
X41535713Y-25460142D01*
X41535713Y-25460142D02*
X41535713Y-25603000D01*
X41535713Y-25603000D02*
X41607142Y-25745857D01*
X41607142Y-25745857D02*
X41678571Y-25817285D01*
X41678571Y-25817285D02*
X41821428Y-25888714D01*
X41821428Y-25888714D02*
X42321428Y-25888714D01*
X40892856Y-26245857D02*
X40178571Y-26245857D01*
X41035713Y-26674428D02*
X40535713Y-25174428D01*
X40535713Y-25174428D02*
X40035713Y-26674428D01*
X38678571Y-26674428D02*
X39178571Y-25960142D01*
X39535714Y-26674428D02*
X39535714Y-25174428D01*
X39535714Y-25174428D02*
X38964285Y-25174428D01*
X38964285Y-25174428D02*
X38821428Y-25245857D01*
X38821428Y-25245857D02*
X38749999Y-25317285D01*
X38749999Y-25317285D02*
X38678571Y-25460142D01*
X38678571Y-25460142D02*
X38678571Y-25674428D01*
X38678571Y-25674428D02*
X38749999Y-25817285D01*
X38749999Y-25817285D02*
X38821428Y-25888714D01*
X38821428Y-25888714D02*
X38964285Y-25960142D01*
X38964285Y-25960142D02*
X39535714Y-25960142D01*
X61250000Y-74174428D02*
X61250000Y-72674428D01*
X61250000Y-72674428D02*
X60892857Y-72674428D01*
X60892857Y-72674428D02*
X60678571Y-72745857D01*
X60678571Y-72745857D02*
X60535714Y-72888714D01*
X60535714Y-72888714D02*
X60464285Y-73031571D01*
X60464285Y-73031571D02*
X60392857Y-73317285D01*
X60392857Y-73317285D02*
X60392857Y-73531571D01*
X60392857Y-73531571D02*
X60464285Y-73817285D01*
X60464285Y-73817285D02*
X60535714Y-73960142D01*
X60535714Y-73960142D02*
X60678571Y-74103000D01*
X60678571Y-74103000D02*
X60892857Y-74174428D01*
X60892857Y-74174428D02*
X61250000Y-74174428D01*
X58892857Y-74031571D02*
X58964285Y-74103000D01*
X58964285Y-74103000D02*
X59178571Y-74174428D01*
X59178571Y-74174428D02*
X59321428Y-74174428D01*
X59321428Y-74174428D02*
X59535714Y-74103000D01*
X59535714Y-74103000D02*
X59678571Y-73960142D01*
X59678571Y-73960142D02*
X59750000Y-73817285D01*
X59750000Y-73817285D02*
X59821428Y-73531571D01*
X59821428Y-73531571D02*
X59821428Y-73317285D01*
X59821428Y-73317285D02*
X59750000Y-73031571D01*
X59750000Y-73031571D02*
X59678571Y-72888714D01*
X59678571Y-72888714D02*
X59535714Y-72745857D01*
X59535714Y-72745857D02*
X59321428Y-72674428D01*
X59321428Y-72674428D02*
X59178571Y-72674428D01*
X59178571Y-72674428D02*
X58964285Y-72745857D01*
X58964285Y-72745857D02*
X58892857Y-72817285D01*
X56392857Y-74174428D02*
X57107143Y-74174428D01*
X57107143Y-74174428D02*
X57107143Y-72674428D01*
X55892857Y-74174428D02*
X55892857Y-72674428D01*
X55178571Y-74174428D02*
X55178571Y-72674428D01*
X55178571Y-72674428D02*
X54321428Y-74174428D01*
X54321428Y-74174428D02*
X54321428Y-72674428D01*
X53607142Y-74174428D02*
X53607142Y-72674428D01*
X52749999Y-74174428D02*
X53392856Y-73317285D01*
X52749999Y-72674428D02*
X53607142Y-73531571D01*
X50964285Y-73603000D02*
X49821428Y-73603000D01*
X50392856Y-74174428D02*
X50392856Y-73031571D01*
X47464285Y-73388714D02*
X47249999Y-73460142D01*
X47249999Y-73460142D02*
X47178570Y-73531571D01*
X47178570Y-73531571D02*
X47107142Y-73674428D01*
X47107142Y-73674428D02*
X47107142Y-73888714D01*
X47107142Y-73888714D02*
X47178570Y-74031571D01*
X47178570Y-74031571D02*
X47249999Y-74103000D01*
X47249999Y-74103000D02*
X47392856Y-74174428D01*
X47392856Y-74174428D02*
X47964285Y-74174428D01*
X47964285Y-74174428D02*
X47964285Y-72674428D01*
X47964285Y-72674428D02*
X47464285Y-72674428D01*
X47464285Y-72674428D02*
X47321428Y-72745857D01*
X47321428Y-72745857D02*
X47249999Y-72817285D01*
X47249999Y-72817285D02*
X47178570Y-72960142D01*
X47178570Y-72960142D02*
X47178570Y-73103000D01*
X47178570Y-73103000D02*
X47249999Y-73245857D01*
X47249999Y-73245857D02*
X47321428Y-73317285D01*
X47321428Y-73317285D02*
X47464285Y-73388714D01*
X47464285Y-73388714D02*
X47964285Y-73388714D01*
X46464285Y-72674428D02*
X46464285Y-73888714D01*
X46464285Y-73888714D02*
X46392856Y-74031571D01*
X46392856Y-74031571D02*
X46321428Y-74103000D01*
X46321428Y-74103000D02*
X46178570Y-74174428D01*
X46178570Y-74174428D02*
X45892856Y-74174428D01*
X45892856Y-74174428D02*
X45749999Y-74103000D01*
X45749999Y-74103000D02*
X45678570Y-74031571D01*
X45678570Y-74031571D02*
X45607142Y-73888714D01*
X45607142Y-73888714D02*
X45607142Y-72674428D01*
X44964284Y-74103000D02*
X44749999Y-74174428D01*
X44749999Y-74174428D02*
X44392856Y-74174428D01*
X44392856Y-74174428D02*
X44249999Y-74103000D01*
X44249999Y-74103000D02*
X44178570Y-74031571D01*
X44178570Y-74031571D02*
X44107141Y-73888714D01*
X44107141Y-73888714D02*
X44107141Y-73745857D01*
X44107141Y-73745857D02*
X44178570Y-73603000D01*
X44178570Y-73603000D02*
X44249999Y-73531571D01*
X44249999Y-73531571D02*
X44392856Y-73460142D01*
X44392856Y-73460142D02*
X44678570Y-73388714D01*
X44678570Y-73388714D02*
X44821427Y-73317285D01*
X44821427Y-73317285D02*
X44892856Y-73245857D01*
X44892856Y-73245857D02*
X44964284Y-73103000D01*
X44964284Y-73103000D02*
X44964284Y-72960142D01*
X44964284Y-72960142D02*
X44892856Y-72817285D01*
X44892856Y-72817285D02*
X44821427Y-72745857D01*
X44821427Y-72745857D02*
X44678570Y-72674428D01*
X44678570Y-72674428D02*
X44321427Y-72674428D01*
X44321427Y-72674428D02*
X44107141Y-72745857D01*
X41821428Y-73388714D02*
X41607142Y-73460142D01*
X41607142Y-73460142D02*
X41535713Y-73531571D01*
X41535713Y-73531571D02*
X41464285Y-73674428D01*
X41464285Y-73674428D02*
X41464285Y-73888714D01*
X41464285Y-73888714D02*
X41535713Y-74031571D01*
X41535713Y-74031571D02*
X41607142Y-74103000D01*
X41607142Y-74103000D02*
X41749999Y-74174428D01*
X41749999Y-74174428D02*
X42321428Y-74174428D01*
X42321428Y-74174428D02*
X42321428Y-72674428D01*
X42321428Y-72674428D02*
X41821428Y-72674428D01*
X41821428Y-72674428D02*
X41678571Y-72745857D01*
X41678571Y-72745857D02*
X41607142Y-72817285D01*
X41607142Y-72817285D02*
X41535713Y-72960142D01*
X41535713Y-72960142D02*
X41535713Y-73103000D01*
X41535713Y-73103000D02*
X41607142Y-73245857D01*
X41607142Y-73245857D02*
X41678571Y-73317285D01*
X41678571Y-73317285D02*
X41821428Y-73388714D01*
X41821428Y-73388714D02*
X42321428Y-73388714D01*
X40892856Y-73745857D02*
X40178571Y-73745857D01*
X41035713Y-74174428D02*
X40535713Y-72674428D01*
X40535713Y-72674428D02*
X40035713Y-74174428D01*
X38678571Y-74174428D02*
X39178571Y-73460142D01*
X39535714Y-74174428D02*
X39535714Y-72674428D01*
X39535714Y-72674428D02*
X38964285Y-72674428D01*
X38964285Y-72674428D02*
X38821428Y-72745857D01*
X38821428Y-72745857D02*
X38749999Y-72817285D01*
X38749999Y-72817285D02*
X38678571Y-72960142D01*
X38678571Y-72960142D02*
X38678571Y-73174428D01*
X38678571Y-73174428D02*
X38749999Y-73317285D01*
X38749999Y-73317285D02*
X38821428Y-73388714D01*
X38821428Y-73388714D02*
X38964285Y-73460142D01*
X38964285Y-73460142D02*
X39535714Y-73460142D01*
X151250000Y-26674428D02*
X151250000Y-25174428D01*
X151250000Y-25174428D02*
X150892857Y-25174428D01*
X150892857Y-25174428D02*
X150678571Y-25245857D01*
X150678571Y-25245857D02*
X150535714Y-25388714D01*
X150535714Y-25388714D02*
X150464285Y-25531571D01*
X150464285Y-25531571D02*
X150392857Y-25817285D01*
X150392857Y-25817285D02*
X150392857Y-26031571D01*
X150392857Y-26031571D02*
X150464285Y-26317285D01*
X150464285Y-26317285D02*
X150535714Y-26460142D01*
X150535714Y-26460142D02*
X150678571Y-26603000D01*
X150678571Y-26603000D02*
X150892857Y-26674428D01*
X150892857Y-26674428D02*
X151250000Y-26674428D01*
X148892857Y-26531571D02*
X148964285Y-26603000D01*
X148964285Y-26603000D02*
X149178571Y-26674428D01*
X149178571Y-26674428D02*
X149321428Y-26674428D01*
X149321428Y-26674428D02*
X149535714Y-26603000D01*
X149535714Y-26603000D02*
X149678571Y-26460142D01*
X149678571Y-26460142D02*
X149750000Y-26317285D01*
X149750000Y-26317285D02*
X149821428Y-26031571D01*
X149821428Y-26031571D02*
X149821428Y-25817285D01*
X149821428Y-25817285D02*
X149750000Y-25531571D01*
X149750000Y-25531571D02*
X149678571Y-25388714D01*
X149678571Y-25388714D02*
X149535714Y-25245857D01*
X149535714Y-25245857D02*
X149321428Y-25174428D01*
X149321428Y-25174428D02*
X149178571Y-25174428D01*
X149178571Y-25174428D02*
X148964285Y-25245857D01*
X148964285Y-25245857D02*
X148892857Y-25317285D01*
X146392857Y-26674428D02*
X147107143Y-26674428D01*
X147107143Y-26674428D02*
X147107143Y-25174428D01*
X145892857Y-26674428D02*
X145892857Y-25174428D01*
X145178571Y-26674428D02*
X145178571Y-25174428D01*
X145178571Y-25174428D02*
X144321428Y-26674428D01*
X144321428Y-26674428D02*
X144321428Y-25174428D01*
X143607142Y-26674428D02*
X143607142Y-25174428D01*
X142749999Y-26674428D02*
X143392856Y-25817285D01*
X142749999Y-25174428D02*
X143607142Y-26031571D01*
X140964285Y-26103000D02*
X139821428Y-26103000D01*
X137464285Y-25888714D02*
X137249999Y-25960142D01*
X137249999Y-25960142D02*
X137178570Y-26031571D01*
X137178570Y-26031571D02*
X137107142Y-26174428D01*
X137107142Y-26174428D02*
X137107142Y-26388714D01*
X137107142Y-26388714D02*
X137178570Y-26531571D01*
X137178570Y-26531571D02*
X137249999Y-26603000D01*
X137249999Y-26603000D02*
X137392856Y-26674428D01*
X137392856Y-26674428D02*
X137964285Y-26674428D01*
X137964285Y-26674428D02*
X137964285Y-25174428D01*
X137964285Y-25174428D02*
X137464285Y-25174428D01*
X137464285Y-25174428D02*
X137321428Y-25245857D01*
X137321428Y-25245857D02*
X137249999Y-25317285D01*
X137249999Y-25317285D02*
X137178570Y-25460142D01*
X137178570Y-25460142D02*
X137178570Y-25603000D01*
X137178570Y-25603000D02*
X137249999Y-25745857D01*
X137249999Y-25745857D02*
X137321428Y-25817285D01*
X137321428Y-25817285D02*
X137464285Y-25888714D01*
X137464285Y-25888714D02*
X137964285Y-25888714D01*
X136464285Y-25174428D02*
X136464285Y-26388714D01*
X136464285Y-26388714D02*
X136392856Y-26531571D01*
X136392856Y-26531571D02*
X136321428Y-26603000D01*
X136321428Y-26603000D02*
X136178570Y-26674428D01*
X136178570Y-26674428D02*
X135892856Y-26674428D01*
X135892856Y-26674428D02*
X135749999Y-26603000D01*
X135749999Y-26603000D02*
X135678570Y-26531571D01*
X135678570Y-26531571D02*
X135607142Y-26388714D01*
X135607142Y-26388714D02*
X135607142Y-25174428D01*
X134964284Y-26603000D02*
X134749999Y-26674428D01*
X134749999Y-26674428D02*
X134392856Y-26674428D01*
X134392856Y-26674428D02*
X134249999Y-26603000D01*
X134249999Y-26603000D02*
X134178570Y-26531571D01*
X134178570Y-26531571D02*
X134107141Y-26388714D01*
X134107141Y-26388714D02*
X134107141Y-26245857D01*
X134107141Y-26245857D02*
X134178570Y-26103000D01*
X134178570Y-26103000D02*
X134249999Y-26031571D01*
X134249999Y-26031571D02*
X134392856Y-25960142D01*
X134392856Y-25960142D02*
X134678570Y-25888714D01*
X134678570Y-25888714D02*
X134821427Y-25817285D01*
X134821427Y-25817285D02*
X134892856Y-25745857D01*
X134892856Y-25745857D02*
X134964284Y-25603000D01*
X134964284Y-25603000D02*
X134964284Y-25460142D01*
X134964284Y-25460142D02*
X134892856Y-25317285D01*
X134892856Y-25317285D02*
X134821427Y-25245857D01*
X134821427Y-25245857D02*
X134678570Y-25174428D01*
X134678570Y-25174428D02*
X134321427Y-25174428D01*
X134321427Y-25174428D02*
X134107141Y-25245857D01*
X131821428Y-25888714D02*
X131607142Y-25960142D01*
X131607142Y-25960142D02*
X131535713Y-26031571D01*
X131535713Y-26031571D02*
X131464285Y-26174428D01*
X131464285Y-26174428D02*
X131464285Y-26388714D01*
X131464285Y-26388714D02*
X131535713Y-26531571D01*
X131535713Y-26531571D02*
X131607142Y-26603000D01*
X131607142Y-26603000D02*
X131749999Y-26674428D01*
X131749999Y-26674428D02*
X132321428Y-26674428D01*
X132321428Y-26674428D02*
X132321428Y-25174428D01*
X132321428Y-25174428D02*
X131821428Y-25174428D01*
X131821428Y-25174428D02*
X131678571Y-25245857D01*
X131678571Y-25245857D02*
X131607142Y-25317285D01*
X131607142Y-25317285D02*
X131535713Y-25460142D01*
X131535713Y-25460142D02*
X131535713Y-25603000D01*
X131535713Y-25603000D02*
X131607142Y-25745857D01*
X131607142Y-25745857D02*
X131678571Y-25817285D01*
X131678571Y-25817285D02*
X131821428Y-25888714D01*
X131821428Y-25888714D02*
X132321428Y-25888714D01*
X130892856Y-26245857D02*
X130178571Y-26245857D01*
X131035713Y-26674428D02*
X130535713Y-25174428D01*
X130535713Y-25174428D02*
X130035713Y-26674428D01*
X128678571Y-26674428D02*
X129178571Y-25960142D01*
X129535714Y-26674428D02*
X129535714Y-25174428D01*
X129535714Y-25174428D02*
X128964285Y-25174428D01*
X128964285Y-25174428D02*
X128821428Y-25245857D01*
X128821428Y-25245857D02*
X128749999Y-25317285D01*
X128749999Y-25317285D02*
X128678571Y-25460142D01*
X128678571Y-25460142D02*
X128678571Y-25674428D01*
X128678571Y-25674428D02*
X128749999Y-25817285D01*
X128749999Y-25817285D02*
X128821428Y-25888714D01*
X128821428Y-25888714D02*
X128964285Y-25960142D01*
X128964285Y-25960142D02*
X129535714Y-25960142D01*
X151250000Y-74174428D02*
X151250000Y-72674428D01*
X151250000Y-72674428D02*
X150892857Y-72674428D01*
X150892857Y-72674428D02*
X150678571Y-72745857D01*
X150678571Y-72745857D02*
X150535714Y-72888714D01*
X150535714Y-72888714D02*
X150464285Y-73031571D01*
X150464285Y-73031571D02*
X150392857Y-73317285D01*
X150392857Y-73317285D02*
X150392857Y-73531571D01*
X150392857Y-73531571D02*
X150464285Y-73817285D01*
X150464285Y-73817285D02*
X150535714Y-73960142D01*
X150535714Y-73960142D02*
X150678571Y-74103000D01*
X150678571Y-74103000D02*
X150892857Y-74174428D01*
X150892857Y-74174428D02*
X151250000Y-74174428D01*
X148892857Y-74031571D02*
X148964285Y-74103000D01*
X148964285Y-74103000D02*
X149178571Y-74174428D01*
X149178571Y-74174428D02*
X149321428Y-74174428D01*
X149321428Y-74174428D02*
X149535714Y-74103000D01*
X149535714Y-74103000D02*
X149678571Y-73960142D01*
X149678571Y-73960142D02*
X149750000Y-73817285D01*
X149750000Y-73817285D02*
X149821428Y-73531571D01*
X149821428Y-73531571D02*
X149821428Y-73317285D01*
X149821428Y-73317285D02*
X149750000Y-73031571D01*
X149750000Y-73031571D02*
X149678571Y-72888714D01*
X149678571Y-72888714D02*
X149535714Y-72745857D01*
X149535714Y-72745857D02*
X149321428Y-72674428D01*
X149321428Y-72674428D02*
X149178571Y-72674428D01*
X149178571Y-72674428D02*
X148964285Y-72745857D01*
X148964285Y-72745857D02*
X148892857Y-72817285D01*
X146392857Y-74174428D02*
X147107143Y-74174428D01*
X147107143Y-74174428D02*
X147107143Y-72674428D01*
X145892857Y-74174428D02*
X145892857Y-72674428D01*
X145178571Y-74174428D02*
X145178571Y-72674428D01*
X145178571Y-72674428D02*
X144321428Y-74174428D01*
X144321428Y-74174428D02*
X144321428Y-72674428D01*
X143607142Y-74174428D02*
X143607142Y-72674428D01*
X142749999Y-74174428D02*
X143392856Y-73317285D01*
X142749999Y-72674428D02*
X143607142Y-73531571D01*
X140964285Y-73603000D02*
X139821428Y-73603000D01*
X140392856Y-74174428D02*
X140392856Y-73031571D01*
X137464285Y-73388714D02*
X137249999Y-73460142D01*
X137249999Y-73460142D02*
X137178570Y-73531571D01*
X137178570Y-73531571D02*
X137107142Y-73674428D01*
X137107142Y-73674428D02*
X137107142Y-73888714D01*
X137107142Y-73888714D02*
X137178570Y-74031571D01*
X137178570Y-74031571D02*
X137249999Y-74103000D01*
X137249999Y-74103000D02*
X137392856Y-74174428D01*
X137392856Y-74174428D02*
X137964285Y-74174428D01*
X137964285Y-74174428D02*
X137964285Y-72674428D01*
X137964285Y-72674428D02*
X137464285Y-72674428D01*
X137464285Y-72674428D02*
X137321428Y-72745857D01*
X137321428Y-72745857D02*
X137249999Y-72817285D01*
X137249999Y-72817285D02*
X137178570Y-72960142D01*
X137178570Y-72960142D02*
X137178570Y-73103000D01*
X137178570Y-73103000D02*
X137249999Y-73245857D01*
X137249999Y-73245857D02*
X137321428Y-73317285D01*
X137321428Y-73317285D02*
X137464285Y-73388714D01*
X137464285Y-73388714D02*
X137964285Y-73388714D01*
X136464285Y-72674428D02*
X136464285Y-73888714D01*
X136464285Y-73888714D02*
X136392856Y-74031571D01*
X136392856Y-74031571D02*
X136321428Y-74103000D01*
X136321428Y-74103000D02*
X136178570Y-74174428D01*
X136178570Y-74174428D02*
X135892856Y-74174428D01*
X135892856Y-74174428D02*
X135749999Y-74103000D01*
X135749999Y-74103000D02*
X135678570Y-74031571D01*
X135678570Y-74031571D02*
X135607142Y-73888714D01*
X135607142Y-73888714D02*
X135607142Y-72674428D01*
X134964284Y-74103000D02*
X134749999Y-74174428D01*
X134749999Y-74174428D02*
X134392856Y-74174428D01*
X134392856Y-74174428D02*
X134249999Y-74103000D01*
X134249999Y-74103000D02*
X134178570Y-74031571D01*
X134178570Y-74031571D02*
X134107141Y-73888714D01*
X134107141Y-73888714D02*
X134107141Y-73745857D01*
X134107141Y-73745857D02*
X134178570Y-73603000D01*
X134178570Y-73603000D02*
X134249999Y-73531571D01*
X134249999Y-73531571D02*
X134392856Y-73460142D01*
X134392856Y-73460142D02*
X134678570Y-73388714D01*
X134678570Y-73388714D02*
X134821427Y-73317285D01*
X134821427Y-73317285D02*
X134892856Y-73245857D01*
X134892856Y-73245857D02*
X134964284Y-73103000D01*
X134964284Y-73103000D02*
X134964284Y-72960142D01*
X134964284Y-72960142D02*
X134892856Y-72817285D01*
X134892856Y-72817285D02*
X134821427Y-72745857D01*
X134821427Y-72745857D02*
X134678570Y-72674428D01*
X134678570Y-72674428D02*
X134321427Y-72674428D01*
X134321427Y-72674428D02*
X134107141Y-72745857D01*
X131821428Y-73388714D02*
X131607142Y-73460142D01*
X131607142Y-73460142D02*
X131535713Y-73531571D01*
X131535713Y-73531571D02*
X131464285Y-73674428D01*
X131464285Y-73674428D02*
X131464285Y-73888714D01*
X131464285Y-73888714D02*
X131535713Y-74031571D01*
X131535713Y-74031571D02*
X131607142Y-74103000D01*
X131607142Y-74103000D02*
X131749999Y-74174428D01*
X131749999Y-74174428D02*
X132321428Y-74174428D01*
X132321428Y-74174428D02*
X132321428Y-72674428D01*
X132321428Y-72674428D02*
X131821428Y-72674428D01*
X131821428Y-72674428D02*
X131678571Y-72745857D01*
X131678571Y-72745857D02*
X131607142Y-72817285D01*
X131607142Y-72817285D02*
X131535713Y-72960142D01*
X131535713Y-72960142D02*
X131535713Y-73103000D01*
X131535713Y-73103000D02*
X131607142Y-73245857D01*
X131607142Y-73245857D02*
X131678571Y-73317285D01*
X131678571Y-73317285D02*
X131821428Y-73388714D01*
X131821428Y-73388714D02*
X132321428Y-73388714D01*
X130892856Y-73745857D02*
X130178571Y-73745857D01*
X131035713Y-74174428D02*
X130535713Y-72674428D01*
X130535713Y-72674428D02*
X130035713Y-74174428D01*
X128678571Y-74174428D02*
X129178571Y-73460142D01*
X129535714Y-74174428D02*
X129535714Y-72674428D01*
X129535714Y-72674428D02*
X128964285Y-72674428D01*
X128964285Y-72674428D02*
X128821428Y-72745857D01*
X128821428Y-72745857D02*
X128749999Y-72817285D01*
X128749999Y-72817285D02*
X128678571Y-72960142D01*
X128678571Y-72960142D02*
X128678571Y-73174428D01*
X128678571Y-73174428D02*
X128749999Y-73317285D01*
X128749999Y-73317285D02*
X128821428Y-73388714D01*
X128821428Y-73388714D02*
X128964285Y-73460142D01*
X128964285Y-73460142D02*
X129535714Y-73460142D01*
X241250000Y-26674428D02*
X241250000Y-25174428D01*
X241250000Y-25174428D02*
X240892857Y-25174428D01*
X240892857Y-25174428D02*
X240678571Y-25245857D01*
X240678571Y-25245857D02*
X240535714Y-25388714D01*
X240535714Y-25388714D02*
X240464285Y-25531571D01*
X240464285Y-25531571D02*
X240392857Y-25817285D01*
X240392857Y-25817285D02*
X240392857Y-26031571D01*
X240392857Y-26031571D02*
X240464285Y-26317285D01*
X240464285Y-26317285D02*
X240535714Y-26460142D01*
X240535714Y-26460142D02*
X240678571Y-26603000D01*
X240678571Y-26603000D02*
X240892857Y-26674428D01*
X240892857Y-26674428D02*
X241250000Y-26674428D01*
X238892857Y-26531571D02*
X238964285Y-26603000D01*
X238964285Y-26603000D02*
X239178571Y-26674428D01*
X239178571Y-26674428D02*
X239321428Y-26674428D01*
X239321428Y-26674428D02*
X239535714Y-26603000D01*
X239535714Y-26603000D02*
X239678571Y-26460142D01*
X239678571Y-26460142D02*
X239750000Y-26317285D01*
X239750000Y-26317285D02*
X239821428Y-26031571D01*
X239821428Y-26031571D02*
X239821428Y-25817285D01*
X239821428Y-25817285D02*
X239750000Y-25531571D01*
X239750000Y-25531571D02*
X239678571Y-25388714D01*
X239678571Y-25388714D02*
X239535714Y-25245857D01*
X239535714Y-25245857D02*
X239321428Y-25174428D01*
X239321428Y-25174428D02*
X239178571Y-25174428D01*
X239178571Y-25174428D02*
X238964285Y-25245857D01*
X238964285Y-25245857D02*
X238892857Y-25317285D01*
X236392857Y-26674428D02*
X237107143Y-26674428D01*
X237107143Y-26674428D02*
X237107143Y-25174428D01*
X235892857Y-26674428D02*
X235892857Y-25174428D01*
X235178571Y-26674428D02*
X235178571Y-25174428D01*
X235178571Y-25174428D02*
X234321428Y-26674428D01*
X234321428Y-26674428D02*
X234321428Y-25174428D01*
X233607142Y-26674428D02*
X233607142Y-25174428D01*
X232749999Y-26674428D02*
X233392856Y-25817285D01*
X232749999Y-25174428D02*
X233607142Y-26031571D01*
X230964285Y-26103000D02*
X229821428Y-26103000D01*
X227464285Y-25888714D02*
X227249999Y-25960142D01*
X227249999Y-25960142D02*
X227178570Y-26031571D01*
X227178570Y-26031571D02*
X227107142Y-26174428D01*
X227107142Y-26174428D02*
X227107142Y-26388714D01*
X227107142Y-26388714D02*
X227178570Y-26531571D01*
X227178570Y-26531571D02*
X227249999Y-26603000D01*
X227249999Y-26603000D02*
X227392856Y-26674428D01*
X227392856Y-26674428D02*
X227964285Y-26674428D01*
X227964285Y-26674428D02*
X227964285Y-25174428D01*
X227964285Y-25174428D02*
X227464285Y-25174428D01*
X227464285Y-25174428D02*
X227321428Y-25245857D01*
X227321428Y-25245857D02*
X227249999Y-25317285D01*
X227249999Y-25317285D02*
X227178570Y-25460142D01*
X227178570Y-25460142D02*
X227178570Y-25603000D01*
X227178570Y-25603000D02*
X227249999Y-25745857D01*
X227249999Y-25745857D02*
X227321428Y-25817285D01*
X227321428Y-25817285D02*
X227464285Y-25888714D01*
X227464285Y-25888714D02*
X227964285Y-25888714D01*
X226464285Y-25174428D02*
X226464285Y-26388714D01*
X226464285Y-26388714D02*
X226392856Y-26531571D01*
X226392856Y-26531571D02*
X226321428Y-26603000D01*
X226321428Y-26603000D02*
X226178570Y-26674428D01*
X226178570Y-26674428D02*
X225892856Y-26674428D01*
X225892856Y-26674428D02*
X225749999Y-26603000D01*
X225749999Y-26603000D02*
X225678570Y-26531571D01*
X225678570Y-26531571D02*
X225607142Y-26388714D01*
X225607142Y-26388714D02*
X225607142Y-25174428D01*
X224964284Y-26603000D02*
X224749999Y-26674428D01*
X224749999Y-26674428D02*
X224392856Y-26674428D01*
X224392856Y-26674428D02*
X224249999Y-26603000D01*
X224249999Y-26603000D02*
X224178570Y-26531571D01*
X224178570Y-26531571D02*
X224107141Y-26388714D01*
X224107141Y-26388714D02*
X224107141Y-26245857D01*
X224107141Y-26245857D02*
X224178570Y-26103000D01*
X224178570Y-26103000D02*
X224249999Y-26031571D01*
X224249999Y-26031571D02*
X224392856Y-25960142D01*
X224392856Y-25960142D02*
X224678570Y-25888714D01*
X224678570Y-25888714D02*
X224821427Y-25817285D01*
X224821427Y-25817285D02*
X224892856Y-25745857D01*
X224892856Y-25745857D02*
X224964284Y-25603000D01*
X224964284Y-25603000D02*
X224964284Y-25460142D01*
X224964284Y-25460142D02*
X224892856Y-25317285D01*
X224892856Y-25317285D02*
X224821427Y-25245857D01*
X224821427Y-25245857D02*
X224678570Y-25174428D01*
X224678570Y-25174428D02*
X224321427Y-25174428D01*
X224321427Y-25174428D02*
X224107141Y-25245857D01*
X221821428Y-25888714D02*
X221607142Y-25960142D01*
X221607142Y-25960142D02*
X221535713Y-26031571D01*
X221535713Y-26031571D02*
X221464285Y-26174428D01*
X221464285Y-26174428D02*
X221464285Y-26388714D01*
X221464285Y-26388714D02*
X221535713Y-26531571D01*
X221535713Y-26531571D02*
X221607142Y-26603000D01*
X221607142Y-26603000D02*
X221749999Y-26674428D01*
X221749999Y-26674428D02*
X222321428Y-26674428D01*
X222321428Y-26674428D02*
X222321428Y-25174428D01*
X222321428Y-25174428D02*
X221821428Y-25174428D01*
X221821428Y-25174428D02*
X221678571Y-25245857D01*
X221678571Y-25245857D02*
X221607142Y-25317285D01*
X221607142Y-25317285D02*
X221535713Y-25460142D01*
X221535713Y-25460142D02*
X221535713Y-25603000D01*
X221535713Y-25603000D02*
X221607142Y-25745857D01*
X221607142Y-25745857D02*
X221678571Y-25817285D01*
X221678571Y-25817285D02*
X221821428Y-25888714D01*
X221821428Y-25888714D02*
X222321428Y-25888714D01*
X220892856Y-26245857D02*
X220178571Y-26245857D01*
X221035713Y-26674428D02*
X220535713Y-25174428D01*
X220535713Y-25174428D02*
X220035713Y-26674428D01*
X218678571Y-26674428D02*
X219178571Y-25960142D01*
X219535714Y-26674428D02*
X219535714Y-25174428D01*
X219535714Y-25174428D02*
X218964285Y-25174428D01*
X218964285Y-25174428D02*
X218821428Y-25245857D01*
X218821428Y-25245857D02*
X218749999Y-25317285D01*
X218749999Y-25317285D02*
X218678571Y-25460142D01*
X218678571Y-25460142D02*
X218678571Y-25674428D01*
X218678571Y-25674428D02*
X218749999Y-25817285D01*
X218749999Y-25817285D02*
X218821428Y-25888714D01*
X218821428Y-25888714D02*
X218964285Y-25960142D01*
X218964285Y-25960142D02*
X219535714Y-25960142D01*
X241250000Y-74174428D02*
X241250000Y-72674428D01*
X241250000Y-72674428D02*
X240892857Y-72674428D01*
X240892857Y-72674428D02*
X240678571Y-72745857D01*
X240678571Y-72745857D02*
X240535714Y-72888714D01*
X240535714Y-72888714D02*
X240464285Y-73031571D01*
X240464285Y-73031571D02*
X240392857Y-73317285D01*
X240392857Y-73317285D02*
X240392857Y-73531571D01*
X240392857Y-73531571D02*
X240464285Y-73817285D01*
X240464285Y-73817285D02*
X240535714Y-73960142D01*
X240535714Y-73960142D02*
X240678571Y-74103000D01*
X240678571Y-74103000D02*
X240892857Y-74174428D01*
X240892857Y-74174428D02*
X241250000Y-74174428D01*
X238892857Y-74031571D02*
X238964285Y-74103000D01*
X238964285Y-74103000D02*
X239178571Y-74174428D01*
X239178571Y-74174428D02*
X239321428Y-74174428D01*
X239321428Y-74174428D02*
X239535714Y-74103000D01*
X239535714Y-74103000D02*
X239678571Y-73960142D01*
X239678571Y-73960142D02*
X239750000Y-73817285D01*
X239750000Y-73817285D02*
X239821428Y-73531571D01*
X239821428Y-73531571D02*
X239821428Y-73317285D01*
X239821428Y-73317285D02*
X239750000Y-73031571D01*
X239750000Y-73031571D02*
X239678571Y-72888714D01*
X239678571Y-72888714D02*
X239535714Y-72745857D01*
X239535714Y-72745857D02*
X239321428Y-72674428D01*
X239321428Y-72674428D02*
X239178571Y-72674428D01*
X239178571Y-72674428D02*
X238964285Y-72745857D01*
X238964285Y-72745857D02*
X238892857Y-72817285D01*
X236392857Y-74174428D02*
X237107143Y-74174428D01*
X237107143Y-74174428D02*
X237107143Y-72674428D01*
X235892857Y-74174428D02*
X235892857Y-72674428D01*
X235178571Y-74174428D02*
X235178571Y-72674428D01*
X235178571Y-72674428D02*
X234321428Y-74174428D01*
X234321428Y-74174428D02*
X234321428Y-72674428D01*
X233607142Y-74174428D02*
X233607142Y-72674428D01*
X232749999Y-74174428D02*
X233392856Y-73317285D01*
X232749999Y-72674428D02*
X233607142Y-73531571D01*
X230964285Y-73603000D02*
X229821428Y-73603000D01*
X230392856Y-74174428D02*
X230392856Y-73031571D01*
X227464285Y-73388714D02*
X227249999Y-73460142D01*
X227249999Y-73460142D02*
X227178570Y-73531571D01*
X227178570Y-73531571D02*
X227107142Y-73674428D01*
X227107142Y-73674428D02*
X227107142Y-73888714D01*
X227107142Y-73888714D02*
X227178570Y-74031571D01*
X227178570Y-74031571D02*
X227249999Y-74103000D01*
X227249999Y-74103000D02*
X227392856Y-74174428D01*
X227392856Y-74174428D02*
X227964285Y-74174428D01*
X227964285Y-74174428D02*
X227964285Y-72674428D01*
X227964285Y-72674428D02*
X227464285Y-72674428D01*
X227464285Y-72674428D02*
X227321428Y-72745857D01*
X227321428Y-72745857D02*
X227249999Y-72817285D01*
X227249999Y-72817285D02*
X227178570Y-72960142D01*
X227178570Y-72960142D02*
X227178570Y-73103000D01*
X227178570Y-73103000D02*
X227249999Y-73245857D01*
X227249999Y-73245857D02*
X227321428Y-73317285D01*
X227321428Y-73317285D02*
X227464285Y-73388714D01*
X227464285Y-73388714D02*
X227964285Y-73388714D01*
X226464285Y-72674428D02*
X226464285Y-73888714D01*
X226464285Y-73888714D02*
X226392856Y-74031571D01*
X226392856Y-74031571D02*
X226321428Y-74103000D01*
X226321428Y-74103000D02*
X226178570Y-74174428D01*
X226178570Y-74174428D02*
X225892856Y-74174428D01*
X225892856Y-74174428D02*
X225749999Y-74103000D01*
X225749999Y-74103000D02*
X225678570Y-74031571D01*
X225678570Y-74031571D02*
X225607142Y-73888714D01*
X225607142Y-73888714D02*
X225607142Y-72674428D01*
X224964284Y-74103000D02*
X224749999Y-74174428D01*
X224749999Y-74174428D02*
X224392856Y-74174428D01*
X224392856Y-74174428D02*
X224249999Y-74103000D01*
X224249999Y-74103000D02*
X224178570Y-74031571D01*
X224178570Y-74031571D02*
X224107141Y-73888714D01*
X224107141Y-73888714D02*
X224107141Y-73745857D01*
X224107141Y-73745857D02*
X224178570Y-73603000D01*
X224178570Y-73603000D02*
X224249999Y-73531571D01*
X224249999Y-73531571D02*
X224392856Y-73460142D01*
X224392856Y-73460142D02*
X224678570Y-73388714D01*
X224678570Y-73388714D02*
X224821427Y-73317285D01*
X224821427Y-73317285D02*
X224892856Y-73245857D01*
X224892856Y-73245857D02*
X224964284Y-73103000D01*
X224964284Y-73103000D02*
X224964284Y-72960142D01*
X224964284Y-72960142D02*
X224892856Y-72817285D01*
X224892856Y-72817285D02*
X224821427Y-72745857D01*
X224821427Y-72745857D02*
X224678570Y-72674428D01*
X224678570Y-72674428D02*
X224321427Y-72674428D01*
X224321427Y-72674428D02*
X224107141Y-72745857D01*
X221821428Y-73388714D02*
X221607142Y-73460142D01*
X221607142Y-73460142D02*
X221535713Y-73531571D01*
X221535713Y-73531571D02*
X221464285Y-73674428D01*
X221464285Y-73674428D02*
X221464285Y-73888714D01*
X221464285Y-73888714D02*
X221535713Y-74031571D01*
X221535713Y-74031571D02*
X221607142Y-74103000D01*
X221607142Y-74103000D02*
X221749999Y-74174428D01*
X221749999Y-74174428D02*
X222321428Y-74174428D01*
X222321428Y-74174428D02*
X222321428Y-72674428D01*
X222321428Y-72674428D02*
X221821428Y-72674428D01*
X221821428Y-72674428D02*
X221678571Y-72745857D01*
X221678571Y-72745857D02*
X221607142Y-72817285D01*
X221607142Y-72817285D02*
X221535713Y-72960142D01*
X221535713Y-72960142D02*
X221535713Y-73103000D01*
X221535713Y-73103000D02*
X221607142Y-73245857D01*
X221607142Y-73245857D02*
X221678571Y-73317285D01*
X221678571Y-73317285D02*
X221821428Y-73388714D01*
X221821428Y-73388714D02*
X222321428Y-73388714D01*
X220892856Y-73745857D02*
X220178571Y-73745857D01*
X221035713Y-74174428D02*
X220535713Y-72674428D01*
X220535713Y-72674428D02*
X220035713Y-74174428D01*
X218678571Y-74174428D02*
X219178571Y-73460142D01*
X219535714Y-74174428D02*
X219535714Y-72674428D01*
X219535714Y-72674428D02*
X218964285Y-72674428D01*
X218964285Y-72674428D02*
X218821428Y-72745857D01*
X218821428Y-72745857D02*
X218749999Y-72817285D01*
X218749999Y-72817285D02*
X218678571Y-72960142D01*
X218678571Y-72960142D02*
X218678571Y-73174428D01*
X218678571Y-73174428D02*
X218749999Y-73317285D01*
X218749999Y-73317285D02*
X218821428Y-73388714D01*
X218821428Y-73388714D02*
X218964285Y-73460142D01*
X218964285Y-73460142D02*
X219535714Y-73460142D01*
D13*
X113285715Y-49399238D02*
X113285715Y-47399238D01*
X113285715Y-48351619D02*
X112142858Y-48351619D01*
X112142858Y-49399238D02*
X112142858Y-47399238D01*
X111190477Y-49399238D02*
X111190477Y-47399238D01*
X109190477Y-47494476D02*
X109380953Y-47399238D01*
X109380953Y-47399238D02*
X109666667Y-47399238D01*
X109666667Y-47399238D02*
X109952382Y-47494476D01*
X109952382Y-47494476D02*
X110142858Y-47684952D01*
X110142858Y-47684952D02*
X110238096Y-47875428D01*
X110238096Y-47875428D02*
X110333334Y-48256380D01*
X110333334Y-48256380D02*
X110333334Y-48542095D01*
X110333334Y-48542095D02*
X110238096Y-48923047D01*
X110238096Y-48923047D02*
X110142858Y-49113523D01*
X110142858Y-49113523D02*
X109952382Y-49304000D01*
X109952382Y-49304000D02*
X109666667Y-49399238D01*
X109666667Y-49399238D02*
X109476191Y-49399238D01*
X109476191Y-49399238D02*
X109190477Y-49304000D01*
X109190477Y-49304000D02*
X109095239Y-49208761D01*
X109095239Y-49208761D02*
X109095239Y-48542095D01*
X109095239Y-48542095D02*
X109476191Y-48542095D01*
X108238096Y-49399238D02*
X108238096Y-47399238D01*
X108238096Y-48351619D02*
X107095239Y-48351619D01*
X107095239Y-49399238D02*
X107095239Y-47399238D01*
X104904762Y-47399238D02*
X104238096Y-49399238D01*
X104238096Y-49399238D02*
X103571429Y-47399238D01*
X102523810Y-47399238D02*
X102142857Y-47399238D01*
X102142857Y-47399238D02*
X101952381Y-47494476D01*
X101952381Y-47494476D02*
X101761905Y-47684952D01*
X101761905Y-47684952D02*
X101666667Y-48065904D01*
X101666667Y-48065904D02*
X101666667Y-48732571D01*
X101666667Y-48732571D02*
X101761905Y-49113523D01*
X101761905Y-49113523D02*
X101952381Y-49304000D01*
X101952381Y-49304000D02*
X102142857Y-49399238D01*
X102142857Y-49399238D02*
X102523810Y-49399238D01*
X102523810Y-49399238D02*
X102714286Y-49304000D01*
X102714286Y-49304000D02*
X102904762Y-49113523D01*
X102904762Y-49113523D02*
X103000000Y-48732571D01*
X103000000Y-48732571D02*
X103000000Y-48065904D01*
X103000000Y-48065904D02*
X102904762Y-47684952D01*
X102904762Y-47684952D02*
X102714286Y-47494476D01*
X102714286Y-47494476D02*
X102523810Y-47399238D01*
X99857143Y-49399238D02*
X100809524Y-49399238D01*
X100809524Y-49399238D02*
X100809524Y-47399238D01*
X99476190Y-47399238D02*
X98333333Y-47399238D01*
X98904762Y-49399238D02*
X98904762Y-47399238D01*
X97761904Y-48827809D02*
X96809523Y-48827809D01*
X97952380Y-49399238D02*
X97285714Y-47399238D01*
X97285714Y-47399238D02*
X96619047Y-49399238D01*
X94904761Y-47494476D02*
X95095237Y-47399238D01*
X95095237Y-47399238D02*
X95380951Y-47399238D01*
X95380951Y-47399238D02*
X95666666Y-47494476D01*
X95666666Y-47494476D02*
X95857142Y-47684952D01*
X95857142Y-47684952D02*
X95952380Y-47875428D01*
X95952380Y-47875428D02*
X96047618Y-48256380D01*
X96047618Y-48256380D02*
X96047618Y-48542095D01*
X96047618Y-48542095D02*
X95952380Y-48923047D01*
X95952380Y-48923047D02*
X95857142Y-49113523D01*
X95857142Y-49113523D02*
X95666666Y-49304000D01*
X95666666Y-49304000D02*
X95380951Y-49399238D01*
X95380951Y-49399238D02*
X95190475Y-49399238D01*
X95190475Y-49399238D02*
X94904761Y-49304000D01*
X94904761Y-49304000D02*
X94809523Y-49208761D01*
X94809523Y-49208761D02*
X94809523Y-48542095D01*
X94809523Y-48542095D02*
X95190475Y-48542095D01*
X93952380Y-48351619D02*
X93285713Y-48351619D01*
X92999999Y-49399238D02*
X93952380Y-49399238D01*
X93952380Y-49399238D02*
X93952380Y-47399238D01*
X93952380Y-47399238D02*
X92999999Y-47399238D01*
X90619046Y-49399238D02*
X90619046Y-47399238D01*
X89476189Y-49399238D02*
X90333332Y-48256380D01*
X89476189Y-47399238D02*
X90619046Y-48542095D01*
X88619046Y-48351619D02*
X87952379Y-48351619D01*
X87666665Y-49399238D02*
X88619046Y-49399238D01*
X88619046Y-49399238D02*
X88619046Y-47399238D01*
X88619046Y-47399238D02*
X87666665Y-47399238D01*
X86809522Y-48351619D02*
X86142855Y-48351619D01*
X85857141Y-49399238D02*
X86809522Y-49399238D01*
X86809522Y-49399238D02*
X86809522Y-47399238D01*
X86809522Y-47399238D02*
X85857141Y-47399238D01*
X84999998Y-49399238D02*
X84999998Y-47399238D01*
X84999998Y-47399238D02*
X84238093Y-47399238D01*
X84238093Y-47399238D02*
X84047617Y-47494476D01*
X84047617Y-47494476D02*
X83952379Y-47589714D01*
X83952379Y-47589714D02*
X83857141Y-47780190D01*
X83857141Y-47780190D02*
X83857141Y-48065904D01*
X83857141Y-48065904D02*
X83952379Y-48256380D01*
X83952379Y-48256380D02*
X84047617Y-48351619D01*
X84047617Y-48351619D02*
X84238093Y-48446857D01*
X84238093Y-48446857D02*
X84999998Y-48446857D01*
X81095236Y-47399238D02*
X80714283Y-47399238D01*
X80714283Y-47399238D02*
X80523807Y-47494476D01*
X80523807Y-47494476D02*
X80333331Y-47684952D01*
X80333331Y-47684952D02*
X80238093Y-48065904D01*
X80238093Y-48065904D02*
X80238093Y-48732571D01*
X80238093Y-48732571D02*
X80333331Y-49113523D01*
X80333331Y-49113523D02*
X80523807Y-49304000D01*
X80523807Y-49304000D02*
X80714283Y-49399238D01*
X80714283Y-49399238D02*
X81095236Y-49399238D01*
X81095236Y-49399238D02*
X81285712Y-49304000D01*
X81285712Y-49304000D02*
X81476188Y-49113523D01*
X81476188Y-49113523D02*
X81571426Y-48732571D01*
X81571426Y-48732571D02*
X81571426Y-48065904D01*
X81571426Y-48065904D02*
X81476188Y-47684952D01*
X81476188Y-47684952D02*
X81285712Y-47494476D01*
X81285712Y-47494476D02*
X81095236Y-47399238D01*
X79380950Y-47399238D02*
X79380950Y-49018285D01*
X79380950Y-49018285D02*
X79285712Y-49208761D01*
X79285712Y-49208761D02*
X79190474Y-49304000D01*
X79190474Y-49304000D02*
X78999998Y-49399238D01*
X78999998Y-49399238D02*
X78619045Y-49399238D01*
X78619045Y-49399238D02*
X78428569Y-49304000D01*
X78428569Y-49304000D02*
X78333331Y-49208761D01*
X78333331Y-49208761D02*
X78238093Y-49018285D01*
X78238093Y-49018285D02*
X78238093Y-47399238D01*
X77571426Y-47399238D02*
X76428569Y-47399238D01*
X76999998Y-49399238D02*
X76999998Y-47399238D01*
X202785715Y-49899238D02*
X202785715Y-47899238D01*
X202785715Y-48851619D02*
X201642858Y-48851619D01*
X201642858Y-49899238D02*
X201642858Y-47899238D01*
X200690477Y-49899238D02*
X200690477Y-47899238D01*
X198690477Y-47994476D02*
X198880953Y-47899238D01*
X198880953Y-47899238D02*
X199166667Y-47899238D01*
X199166667Y-47899238D02*
X199452382Y-47994476D01*
X199452382Y-47994476D02*
X199642858Y-48184952D01*
X199642858Y-48184952D02*
X199738096Y-48375428D01*
X199738096Y-48375428D02*
X199833334Y-48756380D01*
X199833334Y-48756380D02*
X199833334Y-49042095D01*
X199833334Y-49042095D02*
X199738096Y-49423047D01*
X199738096Y-49423047D02*
X199642858Y-49613523D01*
X199642858Y-49613523D02*
X199452382Y-49804000D01*
X199452382Y-49804000D02*
X199166667Y-49899238D01*
X199166667Y-49899238D02*
X198976191Y-49899238D01*
X198976191Y-49899238D02*
X198690477Y-49804000D01*
X198690477Y-49804000D02*
X198595239Y-49708761D01*
X198595239Y-49708761D02*
X198595239Y-49042095D01*
X198595239Y-49042095D02*
X198976191Y-49042095D01*
X197738096Y-49899238D02*
X197738096Y-47899238D01*
X197738096Y-48851619D02*
X196595239Y-48851619D01*
X196595239Y-49899238D02*
X196595239Y-47899238D01*
X194404762Y-47899238D02*
X193738096Y-49899238D01*
X193738096Y-49899238D02*
X193071429Y-47899238D01*
X192023810Y-47899238D02*
X191642857Y-47899238D01*
X191642857Y-47899238D02*
X191452381Y-47994476D01*
X191452381Y-47994476D02*
X191261905Y-48184952D01*
X191261905Y-48184952D02*
X191166667Y-48565904D01*
X191166667Y-48565904D02*
X191166667Y-49232571D01*
X191166667Y-49232571D02*
X191261905Y-49613523D01*
X191261905Y-49613523D02*
X191452381Y-49804000D01*
X191452381Y-49804000D02*
X191642857Y-49899238D01*
X191642857Y-49899238D02*
X192023810Y-49899238D01*
X192023810Y-49899238D02*
X192214286Y-49804000D01*
X192214286Y-49804000D02*
X192404762Y-49613523D01*
X192404762Y-49613523D02*
X192500000Y-49232571D01*
X192500000Y-49232571D02*
X192500000Y-48565904D01*
X192500000Y-48565904D02*
X192404762Y-48184952D01*
X192404762Y-48184952D02*
X192214286Y-47994476D01*
X192214286Y-47994476D02*
X192023810Y-47899238D01*
X189357143Y-49899238D02*
X190309524Y-49899238D01*
X190309524Y-49899238D02*
X190309524Y-47899238D01*
X188976190Y-47899238D02*
X187833333Y-47899238D01*
X188404762Y-49899238D02*
X188404762Y-47899238D01*
X187261904Y-49327809D02*
X186309523Y-49327809D01*
X187452380Y-49899238D02*
X186785714Y-47899238D01*
X186785714Y-47899238D02*
X186119047Y-49899238D01*
X184404761Y-47994476D02*
X184595237Y-47899238D01*
X184595237Y-47899238D02*
X184880951Y-47899238D01*
X184880951Y-47899238D02*
X185166666Y-47994476D01*
X185166666Y-47994476D02*
X185357142Y-48184952D01*
X185357142Y-48184952D02*
X185452380Y-48375428D01*
X185452380Y-48375428D02*
X185547618Y-48756380D01*
X185547618Y-48756380D02*
X185547618Y-49042095D01*
X185547618Y-49042095D02*
X185452380Y-49423047D01*
X185452380Y-49423047D02*
X185357142Y-49613523D01*
X185357142Y-49613523D02*
X185166666Y-49804000D01*
X185166666Y-49804000D02*
X184880951Y-49899238D01*
X184880951Y-49899238D02*
X184690475Y-49899238D01*
X184690475Y-49899238D02*
X184404761Y-49804000D01*
X184404761Y-49804000D02*
X184309523Y-49708761D01*
X184309523Y-49708761D02*
X184309523Y-49042095D01*
X184309523Y-49042095D02*
X184690475Y-49042095D01*
X183452380Y-48851619D02*
X182785713Y-48851619D01*
X182499999Y-49899238D02*
X183452380Y-49899238D01*
X183452380Y-49899238D02*
X183452380Y-47899238D01*
X183452380Y-47899238D02*
X182499999Y-47899238D01*
X180119046Y-49899238D02*
X180119046Y-47899238D01*
X178976189Y-49899238D02*
X179833332Y-48756380D01*
X178976189Y-47899238D02*
X180119046Y-49042095D01*
X178119046Y-48851619D02*
X177452379Y-48851619D01*
X177166665Y-49899238D02*
X178119046Y-49899238D01*
X178119046Y-49899238D02*
X178119046Y-47899238D01*
X178119046Y-47899238D02*
X177166665Y-47899238D01*
X176309522Y-48851619D02*
X175642855Y-48851619D01*
X175357141Y-49899238D02*
X176309522Y-49899238D01*
X176309522Y-49899238D02*
X176309522Y-47899238D01*
X176309522Y-47899238D02*
X175357141Y-47899238D01*
X174499998Y-49899238D02*
X174499998Y-47899238D01*
X174499998Y-47899238D02*
X173738093Y-47899238D01*
X173738093Y-47899238D02*
X173547617Y-47994476D01*
X173547617Y-47994476D02*
X173452379Y-48089714D01*
X173452379Y-48089714D02*
X173357141Y-48280190D01*
X173357141Y-48280190D02*
X173357141Y-48565904D01*
X173357141Y-48565904D02*
X173452379Y-48756380D01*
X173452379Y-48756380D02*
X173547617Y-48851619D01*
X173547617Y-48851619D02*
X173738093Y-48946857D01*
X173738093Y-48946857D02*
X174499998Y-48946857D01*
X170595236Y-47899238D02*
X170214283Y-47899238D01*
X170214283Y-47899238D02*
X170023807Y-47994476D01*
X170023807Y-47994476D02*
X169833331Y-48184952D01*
X169833331Y-48184952D02*
X169738093Y-48565904D01*
X169738093Y-48565904D02*
X169738093Y-49232571D01*
X169738093Y-49232571D02*
X169833331Y-49613523D01*
X169833331Y-49613523D02*
X170023807Y-49804000D01*
X170023807Y-49804000D02*
X170214283Y-49899238D01*
X170214283Y-49899238D02*
X170595236Y-49899238D01*
X170595236Y-49899238D02*
X170785712Y-49804000D01*
X170785712Y-49804000D02*
X170976188Y-49613523D01*
X170976188Y-49613523D02*
X171071426Y-49232571D01*
X171071426Y-49232571D02*
X171071426Y-48565904D01*
X171071426Y-48565904D02*
X170976188Y-48184952D01*
X170976188Y-48184952D02*
X170785712Y-47994476D01*
X170785712Y-47994476D02*
X170595236Y-47899238D01*
X168880950Y-47899238D02*
X168880950Y-49518285D01*
X168880950Y-49518285D02*
X168785712Y-49708761D01*
X168785712Y-49708761D02*
X168690474Y-49804000D01*
X168690474Y-49804000D02*
X168499998Y-49899238D01*
X168499998Y-49899238D02*
X168119045Y-49899238D01*
X168119045Y-49899238D02*
X167928569Y-49804000D01*
X167928569Y-49804000D02*
X167833331Y-49708761D01*
X167833331Y-49708761D02*
X167738093Y-49518285D01*
X167738093Y-49518285D02*
X167738093Y-47899238D01*
X167071426Y-47899238D02*
X165928569Y-47899238D01*
X166499998Y-49899238D02*
X166499998Y-47899238D01*
X271595238Y-49899238D02*
X271595238Y-47899238D01*
X271595238Y-48851619D02*
X270452381Y-48851619D01*
X270452381Y-49899238D02*
X270452381Y-47899238D01*
X269500000Y-49899238D02*
X269500000Y-47899238D01*
X267500000Y-47994476D02*
X267690476Y-47899238D01*
X267690476Y-47899238D02*
X267976190Y-47899238D01*
X267976190Y-47899238D02*
X268261905Y-47994476D01*
X268261905Y-47994476D02*
X268452381Y-48184952D01*
X268452381Y-48184952D02*
X268547619Y-48375428D01*
X268547619Y-48375428D02*
X268642857Y-48756380D01*
X268642857Y-48756380D02*
X268642857Y-49042095D01*
X268642857Y-49042095D02*
X268547619Y-49423047D01*
X268547619Y-49423047D02*
X268452381Y-49613523D01*
X268452381Y-49613523D02*
X268261905Y-49804000D01*
X268261905Y-49804000D02*
X267976190Y-49899238D01*
X267976190Y-49899238D02*
X267785714Y-49899238D01*
X267785714Y-49899238D02*
X267500000Y-49804000D01*
X267500000Y-49804000D02*
X267404762Y-49708761D01*
X267404762Y-49708761D02*
X267404762Y-49042095D01*
X267404762Y-49042095D02*
X267785714Y-49042095D01*
X266547619Y-49899238D02*
X266547619Y-47899238D01*
X266547619Y-48851619D02*
X265404762Y-48851619D01*
X265404762Y-49899238D02*
X265404762Y-47899238D01*
X263214285Y-47899238D02*
X262547619Y-49899238D01*
X262547619Y-49899238D02*
X261880952Y-47899238D01*
X260833333Y-47899238D02*
X260452380Y-47899238D01*
X260452380Y-47899238D02*
X260261904Y-47994476D01*
X260261904Y-47994476D02*
X260071428Y-48184952D01*
X260071428Y-48184952D02*
X259976190Y-48565904D01*
X259976190Y-48565904D02*
X259976190Y-49232571D01*
X259976190Y-49232571D02*
X260071428Y-49613523D01*
X260071428Y-49613523D02*
X260261904Y-49804000D01*
X260261904Y-49804000D02*
X260452380Y-49899238D01*
X260452380Y-49899238D02*
X260833333Y-49899238D01*
X260833333Y-49899238D02*
X261023809Y-49804000D01*
X261023809Y-49804000D02*
X261214285Y-49613523D01*
X261214285Y-49613523D02*
X261309523Y-49232571D01*
X261309523Y-49232571D02*
X261309523Y-48565904D01*
X261309523Y-48565904D02*
X261214285Y-48184952D01*
X261214285Y-48184952D02*
X261023809Y-47994476D01*
X261023809Y-47994476D02*
X260833333Y-47899238D01*
X258166666Y-49899238D02*
X259119047Y-49899238D01*
X259119047Y-49899238D02*
X259119047Y-47899238D01*
X257785713Y-47899238D02*
X256642856Y-47899238D01*
X257214285Y-49899238D02*
X257214285Y-47899238D01*
X256071427Y-49327809D02*
X255119046Y-49327809D01*
X256261903Y-49899238D02*
X255595237Y-47899238D01*
X255595237Y-47899238D02*
X254928570Y-49899238D01*
X253214284Y-47994476D02*
X253404760Y-47899238D01*
X253404760Y-47899238D02*
X253690474Y-47899238D01*
X253690474Y-47899238D02*
X253976189Y-47994476D01*
X253976189Y-47994476D02*
X254166665Y-48184952D01*
X254166665Y-48184952D02*
X254261903Y-48375428D01*
X254261903Y-48375428D02*
X254357141Y-48756380D01*
X254357141Y-48756380D02*
X254357141Y-49042095D01*
X254357141Y-49042095D02*
X254261903Y-49423047D01*
X254261903Y-49423047D02*
X254166665Y-49613523D01*
X254166665Y-49613523D02*
X253976189Y-49804000D01*
X253976189Y-49804000D02*
X253690474Y-49899238D01*
X253690474Y-49899238D02*
X253499998Y-49899238D01*
X253499998Y-49899238D02*
X253214284Y-49804000D01*
X253214284Y-49804000D02*
X253119046Y-49708761D01*
X253119046Y-49708761D02*
X253119046Y-49042095D01*
X253119046Y-49042095D02*
X253499998Y-49042095D01*
X252261903Y-48851619D02*
X251595236Y-48851619D01*
X251309522Y-49899238D02*
X252261903Y-49899238D01*
X252261903Y-49899238D02*
X252261903Y-47899238D01*
X252261903Y-47899238D02*
X251309522Y-47899238D01*
D14*
X236453365Y-48183571D02*
X236513842Y-48123095D01*
X236513842Y-48123095D02*
X236574318Y-47941666D01*
X236574318Y-47941666D02*
X236574318Y-47820714D01*
X236574318Y-47820714D02*
X236513842Y-47639285D01*
X236513842Y-47639285D02*
X236392889Y-47518333D01*
X236392889Y-47518333D02*
X236271937Y-47457856D01*
X236271937Y-47457856D02*
X236030032Y-47397380D01*
X236030032Y-47397380D02*
X235848603Y-47397380D01*
X235848603Y-47397380D02*
X235606699Y-47457856D01*
X235606699Y-47457856D02*
X235485746Y-47518333D01*
X235485746Y-47518333D02*
X235364794Y-47639285D01*
X235364794Y-47639285D02*
X235304318Y-47820714D01*
X235304318Y-47820714D02*
X235304318Y-47941666D01*
X235304318Y-47941666D02*
X235364794Y-48123095D01*
X235364794Y-48123095D02*
X235425270Y-48183571D01*
X235304318Y-48606904D02*
X235304318Y-49393095D01*
X235304318Y-49393095D02*
X235788127Y-48969761D01*
X235788127Y-48969761D02*
X235788127Y-49151190D01*
X235788127Y-49151190D02*
X235848603Y-49272142D01*
X235848603Y-49272142D02*
X235909080Y-49332618D01*
X235909080Y-49332618D02*
X236030032Y-49393095D01*
X236030032Y-49393095D02*
X236332413Y-49393095D01*
X236332413Y-49393095D02*
X236453365Y-49332618D01*
X236453365Y-49332618D02*
X236513842Y-49272142D01*
X236513842Y-49272142D02*
X236574318Y-49151190D01*
X236574318Y-49151190D02*
X236574318Y-48788333D01*
X236574318Y-48788333D02*
X236513842Y-48667380D01*
X236513842Y-48667380D02*
X236453365Y-48606904D01*
X235425270Y-49876904D02*
X235364794Y-49937380D01*
X235364794Y-49937380D02*
X235304318Y-50058333D01*
X235304318Y-50058333D02*
X235304318Y-50360714D01*
X235304318Y-50360714D02*
X235364794Y-50481666D01*
X235364794Y-50481666D02*
X235425270Y-50542142D01*
X235425270Y-50542142D02*
X235546222Y-50602619D01*
X235546222Y-50602619D02*
X235667175Y-50602619D01*
X235667175Y-50602619D02*
X235848603Y-50542142D01*
X235848603Y-50542142D02*
X236574318Y-49816428D01*
X236574318Y-49816428D02*
X236574318Y-50602619D01*
X214453365Y-48183571D02*
X214513842Y-48123095D01*
X214513842Y-48123095D02*
X214574318Y-47941666D01*
X214574318Y-47941666D02*
X214574318Y-47820714D01*
X214574318Y-47820714D02*
X214513842Y-47639285D01*
X214513842Y-47639285D02*
X214392889Y-47518333D01*
X214392889Y-47518333D02*
X214271937Y-47457856D01*
X214271937Y-47457856D02*
X214030032Y-47397380D01*
X214030032Y-47397380D02*
X213848603Y-47397380D01*
X213848603Y-47397380D02*
X213606699Y-47457856D01*
X213606699Y-47457856D02*
X213485746Y-47518333D01*
X213485746Y-47518333D02*
X213364794Y-47639285D01*
X213364794Y-47639285D02*
X213304318Y-47820714D01*
X213304318Y-47820714D02*
X213304318Y-47941666D01*
X213304318Y-47941666D02*
X213364794Y-48123095D01*
X213364794Y-48123095D02*
X213425270Y-48183571D01*
X213304318Y-48606904D02*
X213304318Y-49393095D01*
X213304318Y-49393095D02*
X213788127Y-48969761D01*
X213788127Y-48969761D02*
X213788127Y-49151190D01*
X213788127Y-49151190D02*
X213848603Y-49272142D01*
X213848603Y-49272142D02*
X213909080Y-49332618D01*
X213909080Y-49332618D02*
X214030032Y-49393095D01*
X214030032Y-49393095D02*
X214332413Y-49393095D01*
X214332413Y-49393095D02*
X214453365Y-49332618D01*
X214453365Y-49332618D02*
X214513842Y-49272142D01*
X214513842Y-49272142D02*
X214574318Y-49151190D01*
X214574318Y-49151190D02*
X214574318Y-48788333D01*
X214574318Y-48788333D02*
X214513842Y-48667380D01*
X214513842Y-48667380D02*
X214453365Y-48606904D01*
X213304318Y-49816428D02*
X213304318Y-50602619D01*
X213304318Y-50602619D02*
X213788127Y-50179285D01*
X213788127Y-50179285D02*
X213788127Y-50360714D01*
X213788127Y-50360714D02*
X213848603Y-50481666D01*
X213848603Y-50481666D02*
X213909080Y-50542142D01*
X213909080Y-50542142D02*
X214030032Y-50602619D01*
X214030032Y-50602619D02*
X214332413Y-50602619D01*
X214332413Y-50602619D02*
X214453365Y-50542142D01*
X214453365Y-50542142D02*
X214513842Y-50481666D01*
X214513842Y-50481666D02*
X214574318Y-50360714D01*
X214574318Y-50360714D02*
X214574318Y-49997857D01*
X214574318Y-49997857D02*
X214513842Y-49876904D01*
X214513842Y-49876904D02*
X214453365Y-49816428D01*
X225453365Y-48183571D02*
X225513842Y-48123095D01*
X225513842Y-48123095D02*
X225574318Y-47941666D01*
X225574318Y-47941666D02*
X225574318Y-47820714D01*
X225574318Y-47820714D02*
X225513842Y-47639285D01*
X225513842Y-47639285D02*
X225392889Y-47518333D01*
X225392889Y-47518333D02*
X225271937Y-47457856D01*
X225271937Y-47457856D02*
X225030032Y-47397380D01*
X225030032Y-47397380D02*
X224848603Y-47397380D01*
X224848603Y-47397380D02*
X224606699Y-47457856D01*
X224606699Y-47457856D02*
X224485746Y-47518333D01*
X224485746Y-47518333D02*
X224364794Y-47639285D01*
X224364794Y-47639285D02*
X224304318Y-47820714D01*
X224304318Y-47820714D02*
X224304318Y-47941666D01*
X224304318Y-47941666D02*
X224364794Y-48123095D01*
X224364794Y-48123095D02*
X224425270Y-48183571D01*
X224304318Y-48606904D02*
X224304318Y-49393095D01*
X224304318Y-49393095D02*
X224788127Y-48969761D01*
X224788127Y-48969761D02*
X224788127Y-49151190D01*
X224788127Y-49151190D02*
X224848603Y-49272142D01*
X224848603Y-49272142D02*
X224909080Y-49332618D01*
X224909080Y-49332618D02*
X225030032Y-49393095D01*
X225030032Y-49393095D02*
X225332413Y-49393095D01*
X225332413Y-49393095D02*
X225453365Y-49332618D01*
X225453365Y-49332618D02*
X225513842Y-49272142D01*
X225513842Y-49272142D02*
X225574318Y-49151190D01*
X225574318Y-49151190D02*
X225574318Y-48788333D01*
X225574318Y-48788333D02*
X225513842Y-48667380D01*
X225513842Y-48667380D02*
X225453365Y-48606904D01*
X225574318Y-50602619D02*
X225574318Y-49876904D01*
X225574318Y-50239761D02*
X224304318Y-50239761D01*
X224304318Y-50239761D02*
X224485746Y-50118809D01*
X224485746Y-50118809D02*
X224606699Y-49997857D01*
X224606699Y-49997857D02*
X224667175Y-49876904D01*
X124453365Y-48183571D02*
X124513842Y-48123095D01*
X124513842Y-48123095D02*
X124574318Y-47941666D01*
X124574318Y-47941666D02*
X124574318Y-47820714D01*
X124574318Y-47820714D02*
X124513842Y-47639285D01*
X124513842Y-47639285D02*
X124392889Y-47518333D01*
X124392889Y-47518333D02*
X124271937Y-47457856D01*
X124271937Y-47457856D02*
X124030032Y-47397380D01*
X124030032Y-47397380D02*
X123848603Y-47397380D01*
X123848603Y-47397380D02*
X123606699Y-47457856D01*
X123606699Y-47457856D02*
X123485746Y-47518333D01*
X123485746Y-47518333D02*
X123364794Y-47639285D01*
X123364794Y-47639285D02*
X123304318Y-47820714D01*
X123304318Y-47820714D02*
X123304318Y-47941666D01*
X123304318Y-47941666D02*
X123364794Y-48123095D01*
X123364794Y-48123095D02*
X123425270Y-48183571D01*
X123425270Y-48667380D02*
X123364794Y-48727856D01*
X123364794Y-48727856D02*
X123304318Y-48848809D01*
X123304318Y-48848809D02*
X123304318Y-49151190D01*
X123304318Y-49151190D02*
X123364794Y-49272142D01*
X123364794Y-49272142D02*
X123425270Y-49332618D01*
X123425270Y-49332618D02*
X123546222Y-49393095D01*
X123546222Y-49393095D02*
X123667175Y-49393095D01*
X123667175Y-49393095D02*
X123848603Y-49332618D01*
X123848603Y-49332618D02*
X124574318Y-48606904D01*
X124574318Y-48606904D02*
X124574318Y-49393095D01*
X124574318Y-50602619D02*
X124574318Y-49876904D01*
X124574318Y-50239761D02*
X123304318Y-50239761D01*
X123304318Y-50239761D02*
X123485746Y-50118809D01*
X123485746Y-50118809D02*
X123606699Y-49997857D01*
X123606699Y-49997857D02*
X123667175Y-49876904D01*
X8028094Y-22304318D02*
X8028094Y-23211461D01*
X8028094Y-23211461D02*
X8088571Y-23392889D01*
X8088571Y-23392889D02*
X8209523Y-23513842D01*
X8209523Y-23513842D02*
X8390952Y-23574318D01*
X8390952Y-23574318D02*
X8511904Y-23574318D01*
X6758094Y-23574318D02*
X7483809Y-23574318D01*
X7120952Y-23574318D02*
X7120952Y-22304318D01*
X7120952Y-22304318D02*
X7241904Y-22485746D01*
X7241904Y-22485746D02*
X7362856Y-22606699D01*
X7362856Y-22606699D02*
X7483809Y-22667175D01*
X5609047Y-22304318D02*
X6213809Y-22304318D01*
X6213809Y-22304318D02*
X6274285Y-22909080D01*
X6274285Y-22909080D02*
X6213809Y-22848603D01*
X6213809Y-22848603D02*
X6092856Y-22788127D01*
X6092856Y-22788127D02*
X5790475Y-22788127D01*
X5790475Y-22788127D02*
X5669523Y-22848603D01*
X5669523Y-22848603D02*
X5609047Y-22909080D01*
X5609047Y-22909080D02*
X5548570Y-23030032D01*
X5548570Y-23030032D02*
X5548570Y-23332413D01*
X5548570Y-23332413D02*
X5609047Y-23453365D01*
X5609047Y-23453365D02*
X5669523Y-23513842D01*
X5669523Y-23513842D02*
X5790475Y-23574318D01*
X5790475Y-23574318D02*
X6092856Y-23574318D01*
X6092856Y-23574318D02*
X6213809Y-23513842D01*
X6213809Y-23513842D02*
X6274285Y-23453365D01*
X135453365Y-48788333D02*
X135513842Y-48727857D01*
X135513842Y-48727857D02*
X135574318Y-48546428D01*
X135574318Y-48546428D02*
X135574318Y-48425476D01*
X135574318Y-48425476D02*
X135513842Y-48244047D01*
X135513842Y-48244047D02*
X135392889Y-48123095D01*
X135392889Y-48123095D02*
X135271937Y-48062618D01*
X135271937Y-48062618D02*
X135030032Y-48002142D01*
X135030032Y-48002142D02*
X134848603Y-48002142D01*
X134848603Y-48002142D02*
X134606699Y-48062618D01*
X134606699Y-48062618D02*
X134485746Y-48123095D01*
X134485746Y-48123095D02*
X134364794Y-48244047D01*
X134364794Y-48244047D02*
X134304318Y-48425476D01*
X134304318Y-48425476D02*
X134304318Y-48546428D01*
X134304318Y-48546428D02*
X134364794Y-48727857D01*
X134364794Y-48727857D02*
X134425270Y-48788333D01*
X134304318Y-49211666D02*
X134304318Y-50058333D01*
X134304318Y-50058333D02*
X135574318Y-49514047D01*
X34453365Y-48183571D02*
X34513842Y-48123095D01*
X34513842Y-48123095D02*
X34574318Y-47941666D01*
X34574318Y-47941666D02*
X34574318Y-47820714D01*
X34574318Y-47820714D02*
X34513842Y-47639285D01*
X34513842Y-47639285D02*
X34392889Y-47518333D01*
X34392889Y-47518333D02*
X34271937Y-47457856D01*
X34271937Y-47457856D02*
X34030032Y-47397380D01*
X34030032Y-47397380D02*
X33848603Y-47397380D01*
X33848603Y-47397380D02*
X33606699Y-47457856D01*
X33606699Y-47457856D02*
X33485746Y-47518333D01*
X33485746Y-47518333D02*
X33364794Y-47639285D01*
X33364794Y-47639285D02*
X33304318Y-47820714D01*
X33304318Y-47820714D02*
X33304318Y-47941666D01*
X33304318Y-47941666D02*
X33364794Y-48123095D01*
X33364794Y-48123095D02*
X33425270Y-48183571D01*
X34574318Y-49393095D02*
X34574318Y-48667380D01*
X34574318Y-49030237D02*
X33304318Y-49030237D01*
X33304318Y-49030237D02*
X33485746Y-48909285D01*
X33485746Y-48909285D02*
X33606699Y-48788333D01*
X33606699Y-48788333D02*
X33667175Y-48667380D01*
X33425270Y-49876904D02*
X33364794Y-49937380D01*
X33364794Y-49937380D02*
X33304318Y-50058333D01*
X33304318Y-50058333D02*
X33304318Y-50360714D01*
X33304318Y-50360714D02*
X33364794Y-50481666D01*
X33364794Y-50481666D02*
X33425270Y-50542142D01*
X33425270Y-50542142D02*
X33546222Y-50602619D01*
X33546222Y-50602619D02*
X33667175Y-50602619D01*
X33667175Y-50602619D02*
X33848603Y-50542142D01*
X33848603Y-50542142D02*
X34574318Y-49816428D01*
X34574318Y-49816428D02*
X34574318Y-50602619D01*
X56453365Y-48788333D02*
X56513842Y-48727857D01*
X56513842Y-48727857D02*
X56574318Y-48546428D01*
X56574318Y-48546428D02*
X56574318Y-48425476D01*
X56574318Y-48425476D02*
X56513842Y-48244047D01*
X56513842Y-48244047D02*
X56392889Y-48123095D01*
X56392889Y-48123095D02*
X56271937Y-48062618D01*
X56271937Y-48062618D02*
X56030032Y-48002142D01*
X56030032Y-48002142D02*
X55848603Y-48002142D01*
X55848603Y-48002142D02*
X55606699Y-48062618D01*
X55606699Y-48062618D02*
X55485746Y-48123095D01*
X55485746Y-48123095D02*
X55364794Y-48244047D01*
X55364794Y-48244047D02*
X55304318Y-48425476D01*
X55304318Y-48425476D02*
X55304318Y-48546428D01*
X55304318Y-48546428D02*
X55364794Y-48727857D01*
X55364794Y-48727857D02*
X55425270Y-48788333D01*
X55727651Y-49876904D02*
X56574318Y-49876904D01*
X55243842Y-49574523D02*
X56150984Y-49272142D01*
X56150984Y-49272142D02*
X56150984Y-50058333D01*
X146453365Y-48788333D02*
X146513842Y-48727857D01*
X146513842Y-48727857D02*
X146574318Y-48546428D01*
X146574318Y-48546428D02*
X146574318Y-48425476D01*
X146574318Y-48425476D02*
X146513842Y-48244047D01*
X146513842Y-48244047D02*
X146392889Y-48123095D01*
X146392889Y-48123095D02*
X146271937Y-48062618D01*
X146271937Y-48062618D02*
X146030032Y-48002142D01*
X146030032Y-48002142D02*
X145848603Y-48002142D01*
X145848603Y-48002142D02*
X145606699Y-48062618D01*
X145606699Y-48062618D02*
X145485746Y-48123095D01*
X145485746Y-48123095D02*
X145364794Y-48244047D01*
X145364794Y-48244047D02*
X145304318Y-48425476D01*
X145304318Y-48425476D02*
X145304318Y-48546428D01*
X145304318Y-48546428D02*
X145364794Y-48727857D01*
X145364794Y-48727857D02*
X145425270Y-48788333D01*
X145848603Y-49514047D02*
X145788127Y-49393095D01*
X145788127Y-49393095D02*
X145727651Y-49332618D01*
X145727651Y-49332618D02*
X145606699Y-49272142D01*
X145606699Y-49272142D02*
X145546222Y-49272142D01*
X145546222Y-49272142D02*
X145425270Y-49332618D01*
X145425270Y-49332618D02*
X145364794Y-49393095D01*
X145364794Y-49393095D02*
X145304318Y-49514047D01*
X145304318Y-49514047D02*
X145304318Y-49755952D01*
X145304318Y-49755952D02*
X145364794Y-49876904D01*
X145364794Y-49876904D02*
X145425270Y-49937380D01*
X145425270Y-49937380D02*
X145546222Y-49997857D01*
X145546222Y-49997857D02*
X145606699Y-49997857D01*
X145606699Y-49997857D02*
X145727651Y-49937380D01*
X145727651Y-49937380D02*
X145788127Y-49876904D01*
X145788127Y-49876904D02*
X145848603Y-49755952D01*
X145848603Y-49755952D02*
X145848603Y-49514047D01*
X145848603Y-49514047D02*
X145909080Y-49393095D01*
X145909080Y-49393095D02*
X145969556Y-49332618D01*
X145969556Y-49332618D02*
X146090508Y-49272142D01*
X146090508Y-49272142D02*
X146332413Y-49272142D01*
X146332413Y-49272142D02*
X146453365Y-49332618D01*
X146453365Y-49332618D02*
X146513842Y-49393095D01*
X146513842Y-49393095D02*
X146574318Y-49514047D01*
X146574318Y-49514047D02*
X146574318Y-49755952D01*
X146574318Y-49755952D02*
X146513842Y-49876904D01*
X146513842Y-49876904D02*
X146453365Y-49937380D01*
X146453365Y-49937380D02*
X146332413Y-49997857D01*
X146332413Y-49997857D02*
X146090508Y-49997857D01*
X146090508Y-49997857D02*
X145969556Y-49937380D01*
X145969556Y-49937380D02*
X145909080Y-49876904D01*
X145909080Y-49876904D02*
X145848603Y-49755952D01*
X45453365Y-48788333D02*
X45513842Y-48727857D01*
X45513842Y-48727857D02*
X45574318Y-48546428D01*
X45574318Y-48546428D02*
X45574318Y-48425476D01*
X45574318Y-48425476D02*
X45513842Y-48244047D01*
X45513842Y-48244047D02*
X45392889Y-48123095D01*
X45392889Y-48123095D02*
X45271937Y-48062618D01*
X45271937Y-48062618D02*
X45030032Y-48002142D01*
X45030032Y-48002142D02*
X44848603Y-48002142D01*
X44848603Y-48002142D02*
X44606699Y-48062618D01*
X44606699Y-48062618D02*
X44485746Y-48123095D01*
X44485746Y-48123095D02*
X44364794Y-48244047D01*
X44364794Y-48244047D02*
X44304318Y-48425476D01*
X44304318Y-48425476D02*
X44304318Y-48546428D01*
X44304318Y-48546428D02*
X44364794Y-48727857D01*
X44364794Y-48727857D02*
X44425270Y-48788333D01*
X44304318Y-49211666D02*
X44304318Y-49997857D01*
X44304318Y-49997857D02*
X44788127Y-49574523D01*
X44788127Y-49574523D02*
X44788127Y-49755952D01*
X44788127Y-49755952D02*
X44848603Y-49876904D01*
X44848603Y-49876904D02*
X44909080Y-49937380D01*
X44909080Y-49937380D02*
X45030032Y-49997857D01*
X45030032Y-49997857D02*
X45332413Y-49997857D01*
X45332413Y-49997857D02*
X45453365Y-49937380D01*
X45453365Y-49937380D02*
X45513842Y-49876904D01*
X45513842Y-49876904D02*
X45574318Y-49755952D01*
X45574318Y-49755952D02*
X45574318Y-49393095D01*
X45574318Y-49393095D02*
X45513842Y-49272142D01*
X45513842Y-49272142D02*
X45453365Y-49211666D01*
%TO.C,C32*%
D10*
X237075000Y-47000000D02*
X237075000Y-51000000D01*
X244925000Y-47000000D02*
X244925000Y-51000000D01*
%TO.C,C33*%
X215075000Y-47000000D02*
X215075000Y-51000000D01*
X222925000Y-47000000D02*
X222925000Y-51000000D01*
%TO.C,C31*%
X226075000Y-47000000D02*
X226075000Y-51000000D01*
X233925000Y-47000000D02*
X233925000Y-51000000D01*
%TO.C,C21*%
X125075000Y-47000000D02*
X125075000Y-51000000D01*
X132925000Y-47000000D02*
X132925000Y-51000000D01*
%TO.C,J15*%
D15*
X4350000Y-28000000D02*
X4350000Y-65200000D01*
D10*
X11300000Y-31100000D02*
X11300000Y-31100000D01*
X11400000Y-31100000D02*
X11400000Y-31100000D01*
X11300000Y-31100000D02*
G75*
G02*
X11400000Y-31100000I50000J0D01*
G01*
X11400000Y-31100000D02*
G75*
G02*
X11300000Y-31100000I-50000J0D01*
G01*
%TO.C,C7*%
X136075000Y-47000000D02*
X136075000Y-51000000D01*
X143925000Y-47000000D02*
X143925000Y-51000000D01*
%TO.C,C12*%
X35075000Y-47000000D02*
X35075000Y-51000000D01*
X42925000Y-47000000D02*
X42925000Y-51000000D01*
%TO.C,C4*%
X57075000Y-47000000D02*
X57075000Y-51000000D01*
X64925000Y-47000000D02*
X64925000Y-51000000D01*
%TO.C,C8*%
X147075000Y-47000000D02*
X147075000Y-51000000D01*
X154925000Y-47000000D02*
X154925000Y-51000000D01*
%TO.C,C3*%
X46075000Y-47000000D02*
X46075000Y-51000000D01*
X53925000Y-47000000D02*
X53925000Y-51000000D01*
%TD*%
M02*
