%TF.GenerationSoftware,KiCad,Pcbnew,9.0.1*%
%TF.CreationDate,2026-02-07T11:28:21-08:00*%
%TF.ProjectId,DCBusFilter,44434275-7346-4696-9c74-65722e6b6963,rev?*%
%TF.SameCoordinates,Original*%
%TF.FileFunction,Legend,Top*%
%TF.FilePolarity,Positive*%
%FSLAX46Y46*%
G04 Gerber Fmt 4.6, Leading zero omitted, Abs format (unit mm)*
G04 Created by KiCad (PCBNEW 9.0.1) date 2026-02-07 11:28:21*
%MOMM*%
%LPD*%
G01*
G04 APERTURE LIST*
%ADD10C,0.300000*%
%ADD11C,0.200000*%
%ADD12C,0.250000*%
%ADD13C,0.150000*%
%ADD14C,0.254000*%
%ADD15C,0.100000*%
%ADD16R,2.100000X2.100000*%
%ADD17C,2.100000*%
G04 APERTURE END LIST*
D10*
X63000000Y-14729400D02*
X63214286Y-14800828D01*
X63214286Y-14800828D02*
X63571428Y-14800828D01*
X63571428Y-14800828D02*
X63714286Y-14729400D01*
X63714286Y-14729400D02*
X63785714Y-14657971D01*
X63785714Y-14657971D02*
X63857143Y-14515114D01*
X63857143Y-14515114D02*
X63857143Y-14372257D01*
X63857143Y-14372257D02*
X63785714Y-14229400D01*
X63785714Y-14229400D02*
X63714286Y-14157971D01*
X63714286Y-14157971D02*
X63571428Y-14086542D01*
X63571428Y-14086542D02*
X63285714Y-14015114D01*
X63285714Y-14015114D02*
X63142857Y-13943685D01*
X63142857Y-13943685D02*
X63071428Y-13872257D01*
X63071428Y-13872257D02*
X63000000Y-13729400D01*
X63000000Y-13729400D02*
X63000000Y-13586542D01*
X63000000Y-13586542D02*
X63071428Y-13443685D01*
X63071428Y-13443685D02*
X63142857Y-13372257D01*
X63142857Y-13372257D02*
X63285714Y-13300828D01*
X63285714Y-13300828D02*
X63642857Y-13300828D01*
X63642857Y-13300828D02*
X63857143Y-13372257D01*
X65571428Y-13229400D02*
X64285714Y-15157971D01*
X66071428Y-14800828D02*
X66071428Y-13300828D01*
X66071428Y-13300828D02*
X66928571Y-14800828D01*
X66928571Y-14800828D02*
X66928571Y-13300828D01*
D11*
X60000000Y-2000000D02*
X70000000Y-2000000D01*
X70000000Y-12000000D01*
X60000000Y-12000000D01*
X60000000Y-2000000D01*
G36*
X60000000Y-2000000D02*
G01*
X70000000Y-2000000D01*
X70000000Y-12000000D01*
X60000000Y-12000000D01*
X60000000Y-2000000D01*
G37*
D12*
X67402568Y8135380D02*
X67402568Y9135380D01*
X67402568Y9135380D02*
X67783520Y9135380D01*
X67783520Y9135380D02*
X67878758Y9087761D01*
X67878758Y9087761D02*
X67926377Y9040142D01*
X67926377Y9040142D02*
X67973996Y8944904D01*
X67973996Y8944904D02*
X67973996Y8802047D01*
X67973996Y8802047D02*
X67926377Y8706809D01*
X67926377Y8706809D02*
X67878758Y8659190D01*
X67878758Y8659190D02*
X67783520Y8611571D01*
X67783520Y8611571D02*
X67402568Y8611571D01*
X68354949Y8421095D02*
X68831139Y8421095D01*
X68259711Y8135380D02*
X68593044Y9135380D01*
X68593044Y9135380D02*
X68926377Y8135380D01*
X69831139Y8135380D02*
X69497806Y8611571D01*
X69259711Y8135380D02*
X69259711Y9135380D01*
X69259711Y9135380D02*
X69640663Y9135380D01*
X69640663Y9135380D02*
X69735901Y9087761D01*
X69735901Y9087761D02*
X69783520Y9040142D01*
X69783520Y9040142D02*
X69831139Y8944904D01*
X69831139Y8944904D02*
X69831139Y8802047D01*
X69831139Y8802047D02*
X69783520Y8706809D01*
X69783520Y8706809D02*
X69735901Y8659190D01*
X69735901Y8659190D02*
X69640663Y8611571D01*
X69640663Y8611571D02*
X69259711Y8611571D01*
X70116854Y9135380D02*
X70688282Y9135380D01*
X70402568Y8135380D02*
X70402568Y9135380D01*
X71783521Y8135380D02*
X71783521Y9135380D01*
X71783521Y9135380D02*
X72354949Y8135380D01*
X72354949Y8135380D02*
X72354949Y9135380D01*
X72831140Y9135380D02*
X72831140Y8325857D01*
X72831140Y8325857D02*
X72878759Y8230619D01*
X72878759Y8230619D02*
X72926378Y8183000D01*
X72926378Y8183000D02*
X73021616Y8135380D01*
X73021616Y8135380D02*
X73212092Y8135380D01*
X73212092Y8135380D02*
X73307330Y8183000D01*
X73307330Y8183000D02*
X73354949Y8230619D01*
X73354949Y8230619D02*
X73402568Y8325857D01*
X73402568Y8325857D02*
X73402568Y9135380D01*
X73878759Y8135380D02*
X73878759Y9135380D01*
X73878759Y9135380D02*
X74212092Y8421095D01*
X74212092Y8421095D02*
X74545425Y9135380D01*
X74545425Y9135380D02*
X74545425Y8135380D01*
X75354949Y8659190D02*
X75497806Y8611571D01*
X75497806Y8611571D02*
X75545425Y8563952D01*
X75545425Y8563952D02*
X75593044Y8468714D01*
X75593044Y8468714D02*
X75593044Y8325857D01*
X75593044Y8325857D02*
X75545425Y8230619D01*
X75545425Y8230619D02*
X75497806Y8183000D01*
X75497806Y8183000D02*
X75402568Y8135380D01*
X75402568Y8135380D02*
X75021616Y8135380D01*
X75021616Y8135380D02*
X75021616Y9135380D01*
X75021616Y9135380D02*
X75354949Y9135380D01*
X75354949Y9135380D02*
X75450187Y9087761D01*
X75450187Y9087761D02*
X75497806Y9040142D01*
X75497806Y9040142D02*
X75545425Y8944904D01*
X75545425Y8944904D02*
X75545425Y8849666D01*
X75545425Y8849666D02*
X75497806Y8754428D01*
X75497806Y8754428D02*
X75450187Y8706809D01*
X75450187Y8706809D02*
X75354949Y8659190D01*
X75354949Y8659190D02*
X75021616Y8659190D01*
X76021616Y8659190D02*
X76354949Y8659190D01*
X76497806Y8135380D02*
X76021616Y8135380D01*
X76021616Y8135380D02*
X76021616Y9135380D01*
X76021616Y9135380D02*
X76497806Y9135380D01*
X77497806Y8135380D02*
X77164473Y8611571D01*
X76926378Y8135380D02*
X76926378Y9135380D01*
X76926378Y9135380D02*
X77307330Y9135380D01*
X77307330Y9135380D02*
X77402568Y9087761D01*
X77402568Y9087761D02*
X77450187Y9040142D01*
X77450187Y9040142D02*
X77497806Y8944904D01*
X77497806Y8944904D02*
X77497806Y8802047D01*
X77497806Y8802047D02*
X77450187Y8706809D01*
X77450187Y8706809D02*
X77402568Y8659190D01*
X77402568Y8659190D02*
X77307330Y8611571D01*
X77307330Y8611571D02*
X76926378Y8611571D01*
X77926378Y8230619D02*
X77973997Y8183000D01*
X77973997Y8183000D02*
X77926378Y8135380D01*
X77926378Y8135380D02*
X77878759Y8183000D01*
X77878759Y8183000D02*
X77926378Y8230619D01*
X77926378Y8230619D02*
X77926378Y8135380D01*
X77926378Y8754428D02*
X77973997Y8706809D01*
X77973997Y8706809D02*
X77926378Y8659190D01*
X77926378Y8659190D02*
X77878759Y8706809D01*
X77878759Y8706809D02*
X77926378Y8754428D01*
X77926378Y8754428D02*
X77926378Y8659190D01*
X79735901Y8230619D02*
X79688282Y8183000D01*
X79688282Y8183000D02*
X79545425Y8135380D01*
X79545425Y8135380D02*
X79450187Y8135380D01*
X79450187Y8135380D02*
X79307330Y8183000D01*
X79307330Y8183000D02*
X79212092Y8278238D01*
X79212092Y8278238D02*
X79164473Y8373476D01*
X79164473Y8373476D02*
X79116854Y8563952D01*
X79116854Y8563952D02*
X79116854Y8706809D01*
X79116854Y8706809D02*
X79164473Y8897285D01*
X79164473Y8897285D02*
X79212092Y8992523D01*
X79212092Y8992523D02*
X79307330Y9087761D01*
X79307330Y9087761D02*
X79450187Y9135380D01*
X79450187Y9135380D02*
X79545425Y9135380D01*
X79545425Y9135380D02*
X79688282Y9087761D01*
X79688282Y9087761D02*
X79735901Y9040142D01*
X80116854Y9040142D02*
X80164473Y9087761D01*
X80164473Y9087761D02*
X80259711Y9135380D01*
X80259711Y9135380D02*
X80497806Y9135380D01*
X80497806Y9135380D02*
X80593044Y9087761D01*
X80593044Y9087761D02*
X80640663Y9040142D01*
X80640663Y9040142D02*
X80688282Y8944904D01*
X80688282Y8944904D02*
X80688282Y8849666D01*
X80688282Y8849666D02*
X80640663Y8706809D01*
X80640663Y8706809D02*
X80069235Y8135380D01*
X80069235Y8135380D02*
X80688282Y8135380D01*
X81116854Y8516333D02*
X81878759Y8516333D01*
X82307330Y8183000D02*
X82450187Y8135380D01*
X82450187Y8135380D02*
X82688282Y8135380D01*
X82688282Y8135380D02*
X82783520Y8183000D01*
X82783520Y8183000D02*
X82831139Y8230619D01*
X82831139Y8230619D02*
X82878758Y8325857D01*
X82878758Y8325857D02*
X82878758Y8421095D01*
X82878758Y8421095D02*
X82831139Y8516333D01*
X82831139Y8516333D02*
X82783520Y8563952D01*
X82783520Y8563952D02*
X82688282Y8611571D01*
X82688282Y8611571D02*
X82497806Y8659190D01*
X82497806Y8659190D02*
X82402568Y8706809D01*
X82402568Y8706809D02*
X82354949Y8754428D01*
X82354949Y8754428D02*
X82307330Y8849666D01*
X82307330Y8849666D02*
X82307330Y8944904D01*
X82307330Y8944904D02*
X82354949Y9040142D01*
X82354949Y9040142D02*
X82402568Y9087761D01*
X82402568Y9087761D02*
X82497806Y9135380D01*
X82497806Y9135380D02*
X82735901Y9135380D01*
X82735901Y9135380D02*
X82878758Y9087761D01*
X83878758Y8230619D02*
X83831139Y8183000D01*
X83831139Y8183000D02*
X83688282Y8135380D01*
X83688282Y8135380D02*
X83593044Y8135380D01*
X83593044Y8135380D02*
X83450187Y8183000D01*
X83450187Y8183000D02*
X83354949Y8278238D01*
X83354949Y8278238D02*
X83307330Y8373476D01*
X83307330Y8373476D02*
X83259711Y8563952D01*
X83259711Y8563952D02*
X83259711Y8706809D01*
X83259711Y8706809D02*
X83307330Y8897285D01*
X83307330Y8897285D02*
X83354949Y8992523D01*
X83354949Y8992523D02*
X83450187Y9087761D01*
X83450187Y9087761D02*
X83593044Y9135380D01*
X83593044Y9135380D02*
X83688282Y9135380D01*
X83688282Y9135380D02*
X83831139Y9087761D01*
X83831139Y9087761D02*
X83878758Y9040142D01*
X84640663Y8659190D02*
X84783520Y8611571D01*
X84783520Y8611571D02*
X84831139Y8563952D01*
X84831139Y8563952D02*
X84878758Y8468714D01*
X84878758Y8468714D02*
X84878758Y8325857D01*
X84878758Y8325857D02*
X84831139Y8230619D01*
X84831139Y8230619D02*
X84783520Y8183000D01*
X84783520Y8183000D02*
X84688282Y8135380D01*
X84688282Y8135380D02*
X84307330Y8135380D01*
X84307330Y8135380D02*
X84307330Y9135380D01*
X84307330Y9135380D02*
X84640663Y9135380D01*
X84640663Y9135380D02*
X84735901Y9087761D01*
X84735901Y9087761D02*
X84783520Y9040142D01*
X84783520Y9040142D02*
X84831139Y8944904D01*
X84831139Y8944904D02*
X84831139Y8849666D01*
X84831139Y8849666D02*
X84783520Y8754428D01*
X84783520Y8754428D02*
X84735901Y8706809D01*
X84735901Y8706809D02*
X84640663Y8659190D01*
X84640663Y8659190D02*
X84307330Y8659190D01*
X85307330Y8516333D02*
X86069235Y8516333D01*
X86688282Y8706809D02*
X86593044Y8754428D01*
X86593044Y8754428D02*
X86545425Y8802047D01*
X86545425Y8802047D02*
X86497806Y8897285D01*
X86497806Y8897285D02*
X86497806Y8944904D01*
X86497806Y8944904D02*
X86545425Y9040142D01*
X86545425Y9040142D02*
X86593044Y9087761D01*
X86593044Y9087761D02*
X86688282Y9135380D01*
X86688282Y9135380D02*
X86878758Y9135380D01*
X86878758Y9135380D02*
X86973996Y9087761D01*
X86973996Y9087761D02*
X87021615Y9040142D01*
X87021615Y9040142D02*
X87069234Y8944904D01*
X87069234Y8944904D02*
X87069234Y8897285D01*
X87069234Y8897285D02*
X87021615Y8802047D01*
X87021615Y8802047D02*
X86973996Y8754428D01*
X86973996Y8754428D02*
X86878758Y8706809D01*
X86878758Y8706809D02*
X86688282Y8706809D01*
X86688282Y8706809D02*
X86593044Y8659190D01*
X86593044Y8659190D02*
X86545425Y8611571D01*
X86545425Y8611571D02*
X86497806Y8516333D01*
X86497806Y8516333D02*
X86497806Y8325857D01*
X86497806Y8325857D02*
X86545425Y8230619D01*
X86545425Y8230619D02*
X86593044Y8183000D01*
X86593044Y8183000D02*
X86688282Y8135380D01*
X86688282Y8135380D02*
X86878758Y8135380D01*
X86878758Y8135380D02*
X86973996Y8183000D01*
X86973996Y8183000D02*
X87021615Y8230619D01*
X87021615Y8230619D02*
X87069234Y8325857D01*
X87069234Y8325857D02*
X87069234Y8516333D01*
X87069234Y8516333D02*
X87021615Y8611571D01*
X87021615Y8611571D02*
X86973996Y8659190D01*
X86973996Y8659190D02*
X86878758Y8706809D01*
X87688282Y9135380D02*
X87783520Y9135380D01*
X87783520Y9135380D02*
X87878758Y9087761D01*
X87878758Y9087761D02*
X87926377Y9040142D01*
X87926377Y9040142D02*
X87973996Y8944904D01*
X87973996Y8944904D02*
X88021615Y8754428D01*
X88021615Y8754428D02*
X88021615Y8516333D01*
X88021615Y8516333D02*
X87973996Y8325857D01*
X87973996Y8325857D02*
X87926377Y8230619D01*
X87926377Y8230619D02*
X87878758Y8183000D01*
X87878758Y8183000D02*
X87783520Y8135380D01*
X87783520Y8135380D02*
X87688282Y8135380D01*
X87688282Y8135380D02*
X87593044Y8183000D01*
X87593044Y8183000D02*
X87545425Y8230619D01*
X87545425Y8230619D02*
X87497806Y8325857D01*
X87497806Y8325857D02*
X87450187Y8516333D01*
X87450187Y8516333D02*
X87450187Y8754428D01*
X87450187Y8754428D02*
X87497806Y8944904D01*
X87497806Y8944904D02*
X87545425Y9040142D01*
X87545425Y9040142D02*
X87593044Y9087761D01*
X87593044Y9087761D02*
X87688282Y9135380D01*
X88640663Y9135380D02*
X88735901Y9135380D01*
X88735901Y9135380D02*
X88831139Y9087761D01*
X88831139Y9087761D02*
X88878758Y9040142D01*
X88878758Y9040142D02*
X88926377Y8944904D01*
X88926377Y8944904D02*
X88973996Y8754428D01*
X88973996Y8754428D02*
X88973996Y8516333D01*
X88973996Y8516333D02*
X88926377Y8325857D01*
X88926377Y8325857D02*
X88878758Y8230619D01*
X88878758Y8230619D02*
X88831139Y8183000D01*
X88831139Y8183000D02*
X88735901Y8135380D01*
X88735901Y8135380D02*
X88640663Y8135380D01*
X88640663Y8135380D02*
X88545425Y8183000D01*
X88545425Y8183000D02*
X88497806Y8230619D01*
X88497806Y8230619D02*
X88450187Y8325857D01*
X88450187Y8325857D02*
X88402568Y8516333D01*
X88402568Y8516333D02*
X88402568Y8754428D01*
X88402568Y8754428D02*
X88450187Y8944904D01*
X88450187Y8944904D02*
X88497806Y9040142D01*
X88497806Y9040142D02*
X88545425Y9087761D01*
X88545425Y9087761D02*
X88640663Y9135380D01*
D10*
G36*
X5545251Y-73614935D02*
G01*
X5752227Y-73687376D01*
X5940976Y-73819500D01*
X6028447Y-74003187D01*
X6028447Y-74235965D01*
X3828447Y-74235965D01*
X3828447Y-74003188D01*
X3915918Y-73819500D01*
X4104663Y-73687378D01*
X4311642Y-73614935D01*
X4762904Y-73535965D01*
X5093991Y-73535965D01*
X5545251Y-73614935D01*
G37*
G36*
X5314161Y-72530269D02*
G01*
X4338571Y-72302631D01*
X5314161Y-72074994D01*
X5314161Y-72530269D01*
G37*
G36*
X4680801Y-65187378D02*
G01*
X4761820Y-65244091D01*
X4837971Y-65350702D01*
X4837971Y-65819299D01*
X3828447Y-65819299D01*
X3828447Y-65350702D01*
X3904597Y-65244091D01*
X3985616Y-65187378D01*
X4180130Y-65119299D01*
X4486288Y-65119299D01*
X4680801Y-65187378D01*
G37*
G36*
X5314161Y-60113604D02*
G01*
X4338571Y-59885966D01*
X5314161Y-59658329D01*
X5314161Y-60113604D01*
G37*
G36*
X5314161Y-56946937D02*
G01*
X4338571Y-56719299D01*
X5314161Y-56491662D01*
X5314161Y-56946937D01*
G37*
G36*
X4680801Y-54770712D02*
G01*
X4761820Y-54827425D01*
X4837971Y-54934036D01*
X4837971Y-55402633D01*
X3828447Y-55402633D01*
X3828447Y-54934036D01*
X3904597Y-54827425D01*
X3985616Y-54770712D01*
X4180130Y-54702633D01*
X4486288Y-54702633D01*
X4680801Y-54770712D01*
G37*
G36*
X5545251Y-53031603D02*
G01*
X5752227Y-53104044D01*
X5940976Y-53236168D01*
X6028447Y-53419855D01*
X6028447Y-53652633D01*
X3828447Y-53652633D01*
X3828447Y-53419856D01*
X3915918Y-53236168D01*
X4104663Y-53104046D01*
X4311642Y-53031603D01*
X4762904Y-52952633D01*
X5093991Y-52952633D01*
X5545251Y-53031603D01*
G37*
G36*
X5762602Y-51194640D02*
G01*
X5952297Y-51327426D01*
X6028447Y-51434035D01*
X6028447Y-51671230D01*
X5952297Y-51777839D01*
X5762602Y-51910625D01*
X5332086Y-51985966D01*
X4524808Y-51985966D01*
X4094291Y-51910625D01*
X3904596Y-51777838D01*
X3828447Y-51671229D01*
X3828447Y-51434036D01*
X3904596Y-51327427D01*
X4094291Y-51194640D01*
X4524808Y-51119300D01*
X5332086Y-51119300D01*
X5762602Y-51194640D01*
G37*
G36*
X5762602Y-43027974D02*
G01*
X5952297Y-43160760D01*
X6028447Y-43267369D01*
X6028447Y-43504564D01*
X5952297Y-43611173D01*
X5762602Y-43743959D01*
X5332086Y-43819300D01*
X4524808Y-43819300D01*
X4094291Y-43743959D01*
X3904596Y-43611172D01*
X3828447Y-43504563D01*
X3828447Y-43267370D01*
X3904596Y-43160761D01*
X4094291Y-43027974D01*
X4524808Y-42952634D01*
X5332086Y-42952634D01*
X5762602Y-43027974D01*
G37*
G36*
X5314161Y-39196938D02*
G01*
X4338571Y-38969300D01*
X5314161Y-38741663D01*
X5314161Y-39196938D01*
G37*
G36*
X4680801Y-30687380D02*
G01*
X4761820Y-30744093D01*
X4837971Y-30850704D01*
X4837971Y-31319301D01*
X3828447Y-31319301D01*
X3828447Y-30850704D01*
X3904597Y-30744093D01*
X3985616Y-30687380D01*
X4180130Y-30619301D01*
X4486288Y-30619301D01*
X4680801Y-30687380D01*
G37*
G36*
X4680801Y-28937380D02*
G01*
X4761820Y-28994093D01*
X4837971Y-29100704D01*
X4837971Y-29569301D01*
X3828447Y-29569301D01*
X3828447Y-29100704D01*
X3904597Y-28994093D01*
X3985616Y-28937380D01*
X4180130Y-28869301D01*
X4486288Y-28869301D01*
X4680801Y-28937380D01*
G37*
G36*
X6606225Y-74813743D02*
G01*
X3250669Y-74813743D01*
X3250669Y-73969298D01*
X3528447Y-73969298D01*
X3528447Y-74385965D01*
X3531329Y-74415229D01*
X3553727Y-74469301D01*
X3595111Y-74510685D01*
X3649183Y-74533083D01*
X3678447Y-74535965D01*
X6178447Y-74535965D01*
X6207711Y-74533083D01*
X6261783Y-74510685D01*
X6303167Y-74469301D01*
X6325565Y-74415229D01*
X6328447Y-74385965D01*
X6328447Y-73969298D01*
X6325565Y-73940034D01*
X6324058Y-73936396D01*
X6323855Y-73932468D01*
X6313876Y-73904808D01*
X6194829Y-73654808D01*
X6179646Y-73629626D01*
X6172739Y-73623399D01*
X6167741Y-73615556D01*
X6145419Y-73596413D01*
X5907323Y-73429747D01*
X5899921Y-73425581D01*
X5897526Y-73423441D01*
X5889452Y-73419690D01*
X5881696Y-73415326D01*
X5878560Y-73414631D01*
X5870857Y-73411053D01*
X5632762Y-73327719D01*
X5620858Y-73324824D01*
X5609066Y-73321543D01*
X5132876Y-73238210D01*
X5119929Y-73237236D01*
X5107019Y-73235965D01*
X4749876Y-73235965D01*
X4736965Y-73237236D01*
X4724019Y-73238210D01*
X4247828Y-73321543D01*
X4236018Y-73324829D01*
X4224132Y-73327720D01*
X3986037Y-73411053D01*
X3978333Y-73414631D01*
X3975198Y-73415326D01*
X3967441Y-73419690D01*
X3959368Y-73423441D01*
X3956972Y-73425581D01*
X3949571Y-73429747D01*
X3711476Y-73596413D01*
X3689155Y-73615556D01*
X3684158Y-73623397D01*
X3677250Y-73629625D01*
X3662066Y-73654808D01*
X3543018Y-73904808D01*
X3533038Y-73932468D01*
X3532834Y-73936399D01*
X3531329Y-73940034D01*
X3528447Y-73969298D01*
X3250669Y-73969298D01*
X3250669Y-72297701D01*
X3528528Y-72297701D01*
X3529341Y-72302632D01*
X3528528Y-72307563D01*
X3534078Y-72331350D01*
X3538053Y-72355448D01*
X3540691Y-72359691D01*
X3541827Y-72364560D01*
X3556057Y-72384411D01*
X3568951Y-72405153D01*
X3573013Y-72408065D01*
X3575926Y-72412128D01*
X3596667Y-72425021D01*
X3616519Y-72439252D01*
X3623221Y-72441528D01*
X3625631Y-72443026D01*
X3629521Y-72443667D01*
X3644363Y-72448708D01*
X6144363Y-73032041D01*
X6173516Y-73035884D01*
X6231263Y-73026359D01*
X6280969Y-72995461D01*
X6315067Y-72947893D01*
X6328367Y-72890896D01*
X6318841Y-72833149D01*
X6287944Y-72783444D01*
X6240375Y-72749345D01*
X6212532Y-72739889D01*
X5614161Y-72600269D01*
X5614161Y-72004994D01*
X6212532Y-71865374D01*
X6240375Y-71855918D01*
X6287943Y-71821819D01*
X6318841Y-71772114D01*
X6328366Y-71714367D01*
X6315067Y-71657370D01*
X6280968Y-71609802D01*
X6231263Y-71578904D01*
X6173516Y-71569379D01*
X6144363Y-71573222D01*
X3644363Y-72156556D01*
X3629521Y-72161596D01*
X3625631Y-72162238D01*
X3623221Y-72163735D01*
X3616519Y-72166012D01*
X3596667Y-72180242D01*
X3575926Y-72193136D01*
X3573013Y-72197198D01*
X3568951Y-72200111D01*
X3556057Y-72220852D01*
X3541827Y-72240704D01*
X3540691Y-72245572D01*
X3538053Y-72249816D01*
X3534078Y-72273913D01*
X3528528Y-72297701D01*
X3250669Y-72297701D01*
X3250669Y-71163432D01*
X3530983Y-71163432D01*
X3531329Y-71164296D01*
X3531329Y-71165229D01*
X3542187Y-71191442D01*
X3552720Y-71217774D01*
X3553370Y-71218440D01*
X3553727Y-71219301D01*
X3573807Y-71239381D01*
X3593598Y-71259660D01*
X3594452Y-71260026D01*
X3595111Y-71260685D01*
X3621329Y-71271545D01*
X3647391Y-71282715D01*
X3648322Y-71282726D01*
X3649183Y-71283083D01*
X3678447Y-71285965D01*
X6178447Y-71285965D01*
X6207711Y-71283083D01*
X6261783Y-71260685D01*
X6303167Y-71219301D01*
X6325565Y-71165229D01*
X6325565Y-71106701D01*
X6303167Y-71052629D01*
X6261783Y-71011245D01*
X6207711Y-70988847D01*
X6178447Y-70985965D01*
X4457336Y-70985965D01*
X6234155Y-70275237D01*
X6260256Y-70261692D01*
X6260922Y-70261041D01*
X6261783Y-70260685D01*
X6281842Y-70240625D01*
X6302142Y-70220815D01*
X6302508Y-70219959D01*
X6303167Y-70219301D01*
X6314036Y-70193061D01*
X6325196Y-70167021D01*
X6325207Y-70166092D01*
X6325565Y-70165229D01*
X6325565Y-70136818D01*
X6325911Y-70108498D01*
X6325565Y-70107633D01*
X6325565Y-70106701D01*
X6314706Y-70080487D01*
X6304174Y-70054156D01*
X6303523Y-70053489D01*
X6303167Y-70052629D01*
X6283086Y-70032548D01*
X6263296Y-70012270D01*
X6262441Y-70011903D01*
X6261783Y-70011245D01*
X6235549Y-70000378D01*
X6209502Y-69989215D01*
X6208572Y-69989203D01*
X6207711Y-69988847D01*
X6178447Y-69985965D01*
X3678447Y-69985965D01*
X3649183Y-69988847D01*
X3595111Y-70011245D01*
X3553727Y-70052629D01*
X3531329Y-70106701D01*
X3531329Y-70165229D01*
X3553727Y-70219301D01*
X3595111Y-70260685D01*
X3649183Y-70283083D01*
X3678447Y-70285965D01*
X5399560Y-70285965D01*
X3622738Y-70996693D01*
X3596638Y-71010238D01*
X3595971Y-71010888D01*
X3595111Y-71011245D01*
X3575030Y-71031325D01*
X3554752Y-71051116D01*
X3554385Y-71051970D01*
X3553727Y-71052629D01*
X3542866Y-71078847D01*
X3531697Y-71104909D01*
X3531685Y-71105840D01*
X3531329Y-71106701D01*
X3531329Y-71135072D01*
X3530983Y-71163432D01*
X3250669Y-71163432D01*
X3250669Y-68552632D01*
X3528447Y-68552632D01*
X3528447Y-68802632D01*
X3531329Y-68831896D01*
X3532834Y-68835530D01*
X3533038Y-68839462D01*
X3543018Y-68867122D01*
X3662066Y-69117122D01*
X3677250Y-69142305D01*
X3684156Y-69148531D01*
X3689154Y-69156374D01*
X3711475Y-69175517D01*
X3949570Y-69342184D01*
X3956976Y-69346351D01*
X3959369Y-69348490D01*
X3967438Y-69352238D01*
X3975197Y-69356604D01*
X3978332Y-69357298D01*
X3986038Y-69360878D01*
X4224133Y-69444211D01*
X4236028Y-69447103D01*
X4247828Y-69450387D01*
X4724019Y-69533720D01*
X4736965Y-69534693D01*
X4749876Y-69535965D01*
X5107019Y-69535965D01*
X5119929Y-69534693D01*
X5132876Y-69533720D01*
X5609066Y-69450387D01*
X5620865Y-69447103D01*
X5632761Y-69444211D01*
X5870856Y-69360878D01*
X5878557Y-69357300D01*
X5881697Y-69356605D01*
X5889461Y-69352235D01*
X5897525Y-69348490D01*
X5899918Y-69346351D01*
X5907323Y-69342184D01*
X6145419Y-69175517D01*
X6167741Y-69156374D01*
X6172739Y-69148530D01*
X6179646Y-69142304D01*
X6194829Y-69117122D01*
X6313876Y-68867122D01*
X6323855Y-68839462D01*
X6324058Y-68835533D01*
X6325565Y-68831896D01*
X6328447Y-68802632D01*
X6328447Y-68635965D01*
X6325565Y-68606701D01*
X6324058Y-68603063D01*
X6323855Y-68599135D01*
X6313876Y-68571475D01*
X6194829Y-68321475D01*
X6179646Y-68296293D01*
X6172736Y-68290063D01*
X6167740Y-68282223D01*
X6145419Y-68263080D01*
X6026371Y-68179747D01*
X6024431Y-68178655D01*
X6023688Y-68177912D01*
X6021498Y-68177004D01*
X6000744Y-68165326D01*
X5984749Y-68161782D01*
X5969616Y-68155514D01*
X5945918Y-68153180D01*
X5943602Y-68152667D01*
X5942565Y-68152849D01*
X5940352Y-68152632D01*
X5107019Y-68152632D01*
X5077755Y-68155514D01*
X5023683Y-68177912D01*
X4982299Y-68219296D01*
X4959901Y-68273368D01*
X4957019Y-68302632D01*
X4957019Y-68635965D01*
X4959901Y-68665229D01*
X4982299Y-68719301D01*
X5023683Y-68760685D01*
X5077755Y-68783083D01*
X5136283Y-68783083D01*
X5190355Y-68760685D01*
X5231739Y-68719301D01*
X5254137Y-68665229D01*
X5257019Y-68635965D01*
X5257019Y-68452632D01*
X5893069Y-68452632D01*
X5940976Y-68486167D01*
X6028447Y-68669854D01*
X6028447Y-68768742D01*
X5940976Y-68952429D01*
X5752229Y-69084552D01*
X5545253Y-69156994D01*
X5093991Y-69235965D01*
X4762904Y-69235965D01*
X4311640Y-69156994D01*
X4104664Y-69084552D01*
X3915917Y-68952429D01*
X3828447Y-68768741D01*
X3828447Y-68600702D01*
X3919555Y-68473151D01*
X3934219Y-68447662D01*
X3947422Y-68390644D01*
X3937800Y-68332914D01*
X3906819Y-68283259D01*
X3859193Y-68249241D01*
X3802174Y-68236038D01*
X3744444Y-68245659D01*
X3694790Y-68276641D01*
X3675435Y-68298779D01*
X3556387Y-68465446D01*
X3554774Y-68468248D01*
X3553727Y-68469296D01*
X3552582Y-68472058D01*
X3541723Y-68490934D01*
X3537868Y-68507581D01*
X3531329Y-68523368D01*
X3529194Y-68545038D01*
X3528520Y-68547953D01*
X3528763Y-68549415D01*
X3528447Y-68552632D01*
X3250669Y-68552632D01*
X3250669Y-66719299D01*
X3528447Y-66719299D01*
X3528447Y-67552632D01*
X3531329Y-67581896D01*
X3553727Y-67635968D01*
X3595111Y-67677352D01*
X3649183Y-67699750D01*
X3678447Y-67702632D01*
X6178447Y-67702632D01*
X6207711Y-67699750D01*
X6261783Y-67677352D01*
X6303167Y-67635968D01*
X6325565Y-67581896D01*
X6328447Y-67552632D01*
X6328447Y-66719299D01*
X6325565Y-66690035D01*
X6303167Y-66635963D01*
X6261783Y-66594579D01*
X6207711Y-66572181D01*
X6149183Y-66572181D01*
X6095111Y-66594579D01*
X6053727Y-66635963D01*
X6031329Y-66690035D01*
X6028447Y-66719299D01*
X6028447Y-67402632D01*
X5018923Y-67402632D01*
X5018923Y-66969299D01*
X5016041Y-66940035D01*
X4993643Y-66885963D01*
X4952259Y-66844579D01*
X4898187Y-66822181D01*
X4839659Y-66822181D01*
X4785587Y-66844579D01*
X4744203Y-66885963D01*
X4721805Y-66940035D01*
X4718923Y-66969299D01*
X4718923Y-67402632D01*
X3828447Y-67402632D01*
X3828447Y-66719299D01*
X3825565Y-66690035D01*
X3803167Y-66635963D01*
X3761783Y-66594579D01*
X3707711Y-66572181D01*
X3649183Y-66572181D01*
X3595111Y-66594579D01*
X3553727Y-66635963D01*
X3531329Y-66690035D01*
X3528447Y-66719299D01*
X3250669Y-66719299D01*
X3250669Y-65302632D01*
X3528447Y-65302632D01*
X3528447Y-65969299D01*
X3531329Y-65998563D01*
X3553727Y-66052635D01*
X3595111Y-66094019D01*
X3649183Y-66116417D01*
X3678447Y-66119299D01*
X6178447Y-66119299D01*
X6207711Y-66116417D01*
X6261783Y-66094019D01*
X6303167Y-66052635D01*
X6325565Y-65998563D01*
X6325565Y-65940035D01*
X6303167Y-65885963D01*
X6261783Y-65844579D01*
X6207711Y-65822181D01*
X6178447Y-65819299D01*
X5137971Y-65819299D01*
X5137971Y-65646171D01*
X6244449Y-65103998D01*
X6269460Y-65088533D01*
X6308160Y-65044627D01*
X6327113Y-64989255D01*
X6323434Y-64930844D01*
X6297681Y-64878286D01*
X6253775Y-64839586D01*
X6198403Y-64820633D01*
X6139991Y-64824312D01*
X6112444Y-64834601D01*
X5137971Y-65312092D01*
X5137971Y-65302632D01*
X5137654Y-65299415D01*
X5137898Y-65297953D01*
X5137223Y-65295038D01*
X5135089Y-65273368D01*
X5128549Y-65257581D01*
X5124695Y-65240934D01*
X5113835Y-65222058D01*
X5112691Y-65219296D01*
X5111643Y-65218248D01*
X5110031Y-65215446D01*
X4990983Y-65048780D01*
X4979293Y-65035409D01*
X4977264Y-65032225D01*
X4974246Y-65029637D01*
X4971628Y-65026642D01*
X4968420Y-65024640D01*
X4954943Y-65013082D01*
X4835896Y-64929748D01*
X4828491Y-64925581D01*
X4826097Y-64923441D01*
X4818024Y-64919691D01*
X4810269Y-64915327D01*
X4807133Y-64914632D01*
X4799428Y-64911053D01*
X4561332Y-64827720D01*
X4544587Y-64823648D01*
X4541044Y-64822181D01*
X4536852Y-64821768D01*
X4532759Y-64820773D01*
X4528928Y-64820987D01*
X4511780Y-64819299D01*
X4154638Y-64819299D01*
X4137489Y-64820987D01*
X4133659Y-64820773D01*
X4129565Y-64821768D01*
X4125374Y-64822181D01*
X4121830Y-64823648D01*
X4105086Y-64827720D01*
X3866990Y-64911053D01*
X3859284Y-64914632D01*
X3856149Y-64915327D01*
X3848393Y-64919691D01*
X3840321Y-64923441D01*
X3837926Y-64925581D01*
X3830522Y-64929748D01*
X3711475Y-65013082D01*
X3697997Y-65024640D01*
X3694790Y-65026642D01*
X3692171Y-65029637D01*
X3689154Y-65032225D01*
X3687124Y-65035409D01*
X3675435Y-65048780D01*
X3556387Y-65215446D01*
X3554774Y-65218248D01*
X3553727Y-65219296D01*
X3552582Y-65222058D01*
X3541723Y-65240934D01*
X3537868Y-65257581D01*
X3531329Y-65273368D01*
X3529194Y-65295038D01*
X3528520Y-65297953D01*
X3528763Y-65299415D01*
X3528447Y-65302632D01*
X3250669Y-65302632D01*
X3250669Y-64216049D01*
X4480863Y-64216049D01*
X4481436Y-64219299D01*
X4480863Y-64222549D01*
X4483710Y-64235400D01*
X4483710Y-64248563D01*
X4488746Y-64260721D01*
X4491034Y-64273684D01*
X4492807Y-64276467D01*
X4493522Y-64279691D01*
X4501071Y-64290475D01*
X4506108Y-64302635D01*
X4515414Y-64311941D01*
X4522488Y-64323041D01*
X4525939Y-64326000D01*
X4527086Y-64327639D01*
X4530056Y-64329532D01*
X4544809Y-64342184D01*
X4663857Y-64425517D01*
X4689484Y-64439938D01*
X4692708Y-64440652D01*
X4695492Y-64442426D01*
X4721167Y-64446956D01*
X4746626Y-64452597D01*
X4749876Y-64452023D01*
X4753127Y-64452597D01*
X4778597Y-64446954D01*
X4804261Y-64442425D01*
X4807041Y-64440652D01*
X4810269Y-64439938D01*
X4835895Y-64425517D01*
X4954942Y-64342184D01*
X4969694Y-64329532D01*
X4972665Y-64327639D01*
X4973811Y-64326001D01*
X4977263Y-64323041D01*
X4984335Y-64311942D01*
X4993643Y-64302635D01*
X4998680Y-64290472D01*
X5006228Y-64279691D01*
X5006942Y-64276467D01*
X5008716Y-64273684D01*
X5011002Y-64260726D01*
X5016041Y-64248563D01*
X5016041Y-64235396D01*
X5018887Y-64222550D01*
X5018313Y-64219299D01*
X5018887Y-64216049D01*
X5790387Y-64216049D01*
X5790960Y-64219299D01*
X5790387Y-64222549D01*
X5793234Y-64235400D01*
X5793234Y-64248563D01*
X5798270Y-64260721D01*
X5800558Y-64273684D01*
X5802331Y-64276467D01*
X5803046Y-64279691D01*
X5810595Y-64290475D01*
X5815632Y-64302635D01*
X5824938Y-64311941D01*
X5832012Y-64323041D01*
X5835463Y-64326000D01*
X5836610Y-64327639D01*
X5839580Y-64329532D01*
X5854333Y-64342184D01*
X5973381Y-64425517D01*
X5999008Y-64439938D01*
X6002232Y-64440652D01*
X6005016Y-64442426D01*
X6030691Y-64446956D01*
X6056150Y-64452597D01*
X6059400Y-64452023D01*
X6062651Y-64452597D01*
X6088121Y-64446954D01*
X6113785Y-64442425D01*
X6116565Y-64440652D01*
X6119793Y-64439938D01*
X6145419Y-64425517D01*
X6264466Y-64342184D01*
X6279218Y-64329532D01*
X6282189Y-64327639D01*
X6283335Y-64326001D01*
X6286787Y-64323041D01*
X6293859Y-64311942D01*
X6303167Y-64302635D01*
X6308204Y-64290472D01*
X6315752Y-64279691D01*
X6316466Y-64276467D01*
X6318240Y-64273684D01*
X6320526Y-64260726D01*
X6325565Y-64248563D01*
X6325565Y-64235396D01*
X6328411Y-64222550D01*
X6327837Y-64219299D01*
X6328411Y-64216048D01*
X6325565Y-64203201D01*
X6325565Y-64190035D01*
X6320526Y-64177871D01*
X6318240Y-64164914D01*
X6316466Y-64162130D01*
X6315752Y-64158907D01*
X6308204Y-64148125D01*
X6303167Y-64135963D01*
X6293859Y-64126655D01*
X6286787Y-64115557D01*
X6283335Y-64112596D01*
X6282189Y-64110959D01*
X6279218Y-64109065D01*
X6264466Y-64096414D01*
X6145419Y-64013081D01*
X6119793Y-63998660D01*
X6116565Y-63997945D01*
X6113785Y-63996173D01*
X6088121Y-63991643D01*
X6062651Y-63986001D01*
X6059400Y-63986574D01*
X6056150Y-63986001D01*
X6030691Y-63991641D01*
X6005016Y-63996172D01*
X6002232Y-63997945D01*
X5999008Y-63998660D01*
X5973381Y-64013081D01*
X5854333Y-64096414D01*
X5839580Y-64109065D01*
X5836610Y-64110959D01*
X5835463Y-64112597D01*
X5832012Y-64115557D01*
X5824938Y-64126656D01*
X5815632Y-64135963D01*
X5810595Y-64148122D01*
X5803046Y-64158907D01*
X5802331Y-64162130D01*
X5800558Y-64164914D01*
X5798270Y-64177876D01*
X5793234Y-64190035D01*
X5793234Y-64203197D01*
X5790387Y-64216049D01*
X5018887Y-64216049D01*
X5018887Y-64216048D01*
X5016041Y-64203201D01*
X5016041Y-64190035D01*
X5011002Y-64177871D01*
X5008716Y-64164914D01*
X5006942Y-64162130D01*
X5006228Y-64158907D01*
X4998680Y-64148125D01*
X4993643Y-64135963D01*
X4984335Y-64126655D01*
X4977263Y-64115557D01*
X4973811Y-64112596D01*
X4972665Y-64110959D01*
X4969694Y-64109065D01*
X4954942Y-64096414D01*
X4835895Y-64013081D01*
X4810269Y-63998660D01*
X4807041Y-63997945D01*
X4804261Y-63996173D01*
X4778597Y-63991643D01*
X4753127Y-63986001D01*
X4749876Y-63986574D01*
X4746626Y-63986001D01*
X4721167Y-63991641D01*
X4695492Y-63996172D01*
X4692708Y-63997945D01*
X4689484Y-63998660D01*
X4663857Y-64013081D01*
X4544809Y-64096414D01*
X4530056Y-64109065D01*
X4527086Y-64110959D01*
X4525939Y-64112597D01*
X4522488Y-64115557D01*
X4515414Y-64126656D01*
X4506108Y-64135963D01*
X4501071Y-64148122D01*
X4493522Y-64158907D01*
X4492807Y-64162130D01*
X4491034Y-64164914D01*
X4488746Y-64177876D01*
X4483710Y-64190035D01*
X4483710Y-64203197D01*
X4480863Y-64216049D01*
X3250669Y-64216049D01*
X3250669Y-61023369D01*
X3531329Y-61023369D01*
X3531329Y-61081897D01*
X3553727Y-61135969D01*
X3595111Y-61177353D01*
X3649183Y-61199751D01*
X3678447Y-61202633D01*
X4718923Y-61202633D01*
X4718923Y-61902633D01*
X3678447Y-61902633D01*
X3649183Y-61905515D01*
X3595111Y-61927913D01*
X3553727Y-61969297D01*
X3531329Y-62023369D01*
X3531329Y-62081897D01*
X3553727Y-62135969D01*
X3595111Y-62177353D01*
X3649183Y-62199751D01*
X3678447Y-62202633D01*
X6178447Y-62202633D01*
X6207711Y-62199751D01*
X6261783Y-62177353D01*
X6303167Y-62135969D01*
X6325565Y-62081897D01*
X6325565Y-62023369D01*
X6303167Y-61969297D01*
X6261783Y-61927913D01*
X6207711Y-61905515D01*
X6178447Y-61902633D01*
X5018923Y-61902633D01*
X5018923Y-61202633D01*
X6178447Y-61202633D01*
X6207711Y-61199751D01*
X6261783Y-61177353D01*
X6303167Y-61135969D01*
X6325565Y-61081897D01*
X6325565Y-61023369D01*
X6303167Y-60969297D01*
X6261783Y-60927913D01*
X6207711Y-60905515D01*
X6178447Y-60902633D01*
X3678447Y-60902633D01*
X3649183Y-60905515D01*
X3595111Y-60927913D01*
X3553727Y-60969297D01*
X3531329Y-61023369D01*
X3250669Y-61023369D01*
X3250669Y-59881036D01*
X3528528Y-59881036D01*
X3529341Y-59885967D01*
X3528528Y-59890898D01*
X3534078Y-59914685D01*
X3538053Y-59938783D01*
X3540691Y-59943026D01*
X3541827Y-59947895D01*
X3556057Y-59967746D01*
X3568951Y-59988488D01*
X3573013Y-59991400D01*
X3575926Y-59995463D01*
X3596667Y-60008356D01*
X3616519Y-60022587D01*
X3623221Y-60024863D01*
X3625631Y-60026361D01*
X3629521Y-60027002D01*
X3644363Y-60032043D01*
X6144363Y-60615376D01*
X6173516Y-60619219D01*
X6231263Y-60609694D01*
X6280969Y-60578796D01*
X6315067Y-60531228D01*
X6328367Y-60474231D01*
X6318841Y-60416484D01*
X6287944Y-60366779D01*
X6240375Y-60332680D01*
X6212532Y-60323224D01*
X5614161Y-60183604D01*
X5614161Y-59588329D01*
X6212532Y-59448709D01*
X6240375Y-59439253D01*
X6287943Y-59405154D01*
X6318841Y-59355449D01*
X6328366Y-59297702D01*
X6315067Y-59240705D01*
X6280968Y-59193137D01*
X6231263Y-59162239D01*
X6173516Y-59152714D01*
X6144363Y-59156557D01*
X3644363Y-59739891D01*
X3629521Y-59744931D01*
X3625631Y-59745573D01*
X3623221Y-59747070D01*
X3616519Y-59749347D01*
X3596667Y-59763577D01*
X3575926Y-59776471D01*
X3573013Y-59780533D01*
X3568951Y-59783446D01*
X3556057Y-59804187D01*
X3541827Y-59824039D01*
X3540691Y-59828907D01*
X3538053Y-59833151D01*
X3534078Y-59857248D01*
X3528528Y-59881036D01*
X3250669Y-59881036D01*
X3250669Y-57719300D01*
X3528447Y-57719300D01*
X3528447Y-58885967D01*
X3531329Y-58915231D01*
X3553727Y-58969303D01*
X3595111Y-59010687D01*
X3649183Y-59033085D01*
X3707711Y-59033085D01*
X3761783Y-59010687D01*
X3803167Y-58969303D01*
X3825565Y-58915231D01*
X3828447Y-58885967D01*
X3828447Y-57954829D01*
X6115014Y-59021894D01*
X6142751Y-59031658D01*
X6146092Y-59031804D01*
X6149183Y-59033085D01*
X6175217Y-59033085D01*
X6201222Y-59034228D01*
X6204365Y-59033085D01*
X6207711Y-59033085D01*
X6231763Y-59023121D01*
X6256224Y-59014227D01*
X6258690Y-59011967D01*
X6261783Y-59010687D01*
X6280198Y-58992271D01*
X6299387Y-58974699D01*
X6300801Y-58971668D01*
X6303167Y-58969303D01*
X6313132Y-58945244D01*
X6324138Y-58921662D01*
X6324284Y-58918321D01*
X6325565Y-58915231D01*
X6328447Y-58885967D01*
X6328447Y-57719300D01*
X6325565Y-57690036D01*
X6303167Y-57635964D01*
X6261783Y-57594580D01*
X6207711Y-57572182D01*
X6149183Y-57572182D01*
X6095111Y-57594580D01*
X6053727Y-57635964D01*
X6031329Y-57690036D01*
X6028447Y-57719300D01*
X6028447Y-58650436D01*
X3741880Y-57583373D01*
X3714143Y-57573609D01*
X3710801Y-57573462D01*
X3707711Y-57572182D01*
X3681677Y-57572182D01*
X3655672Y-57571039D01*
X3652529Y-57572182D01*
X3649183Y-57572182D01*
X3625134Y-57582143D01*
X3600669Y-57591040D01*
X3598201Y-57593299D01*
X3595111Y-57594580D01*
X3576713Y-57612977D01*
X3557506Y-57630567D01*
X3556090Y-57633600D01*
X3553727Y-57635964D01*
X3543768Y-57660004D01*
X3532756Y-57683604D01*
X3532609Y-57686945D01*
X3531329Y-57690036D01*
X3528447Y-57719300D01*
X3250669Y-57719300D01*
X3250669Y-56714369D01*
X3528528Y-56714369D01*
X3529341Y-56719300D01*
X3528528Y-56724231D01*
X3534078Y-56748018D01*
X3538053Y-56772116D01*
X3540691Y-56776359D01*
X3541827Y-56781228D01*
X3556057Y-56801079D01*
X3568951Y-56821821D01*
X3573013Y-56824733D01*
X3575926Y-56828796D01*
X3596667Y-56841689D01*
X3616519Y-56855920D01*
X3623221Y-56858196D01*
X3625631Y-56859694D01*
X3629521Y-56860335D01*
X3644363Y-56865376D01*
X6144363Y-57448709D01*
X6173516Y-57452552D01*
X6231263Y-57443027D01*
X6280969Y-57412129D01*
X6315067Y-57364561D01*
X6328367Y-57307564D01*
X6318841Y-57249817D01*
X6287944Y-57200112D01*
X6240375Y-57166013D01*
X6212532Y-57156557D01*
X5614161Y-57016937D01*
X5614161Y-56421662D01*
X6212532Y-56282042D01*
X6240375Y-56272586D01*
X6287943Y-56238487D01*
X6318841Y-56188782D01*
X6328366Y-56131035D01*
X6315067Y-56074038D01*
X6280968Y-56026470D01*
X6231263Y-55995572D01*
X6173516Y-55986047D01*
X6144363Y-55989890D01*
X3644363Y-56573224D01*
X3629521Y-56578264D01*
X3625631Y-56578906D01*
X3623221Y-56580403D01*
X3616519Y-56582680D01*
X3596667Y-56596910D01*
X3575926Y-56609804D01*
X3573013Y-56613866D01*
X3568951Y-56616779D01*
X3556057Y-56637520D01*
X3541827Y-56657372D01*
X3540691Y-56662240D01*
X3538053Y-56666484D01*
X3534078Y-56690581D01*
X3528528Y-56714369D01*
X3250669Y-56714369D01*
X3250669Y-54885966D01*
X3528447Y-54885966D01*
X3528447Y-55552633D01*
X3531329Y-55581897D01*
X3553727Y-55635969D01*
X3595111Y-55677353D01*
X3649183Y-55699751D01*
X3678447Y-55702633D01*
X6178447Y-55702633D01*
X6207711Y-55699751D01*
X6261783Y-55677353D01*
X6303167Y-55635969D01*
X6325565Y-55581897D01*
X6325565Y-55523369D01*
X6303167Y-55469297D01*
X6261783Y-55427913D01*
X6207711Y-55405515D01*
X6178447Y-55402633D01*
X5137971Y-55402633D01*
X5137971Y-55229505D01*
X6244449Y-54687332D01*
X6269460Y-54671867D01*
X6308160Y-54627961D01*
X6327113Y-54572589D01*
X6323434Y-54514178D01*
X6297681Y-54461620D01*
X6253775Y-54422920D01*
X6198403Y-54403967D01*
X6139991Y-54407646D01*
X6112444Y-54417935D01*
X5137971Y-54895426D01*
X5137971Y-54885966D01*
X5137654Y-54882749D01*
X5137898Y-54881287D01*
X5137223Y-54878372D01*
X5135089Y-54856702D01*
X5128549Y-54840915D01*
X5124695Y-54824268D01*
X5113835Y-54805392D01*
X5112691Y-54802630D01*
X5111643Y-54801582D01*
X5110031Y-54798780D01*
X4990983Y-54632114D01*
X4979293Y-54618743D01*
X4977264Y-54615559D01*
X4974246Y-54612971D01*
X4971628Y-54609976D01*
X4968420Y-54607974D01*
X4954943Y-54596416D01*
X4835896Y-54513082D01*
X4828491Y-54508915D01*
X4826097Y-54506775D01*
X4818024Y-54503025D01*
X4810269Y-54498661D01*
X4807133Y-54497966D01*
X4799428Y-54494387D01*
X4561332Y-54411054D01*
X4544587Y-54406982D01*
X4541044Y-54405515D01*
X4536852Y-54405102D01*
X4532759Y-54404107D01*
X4528928Y-54404321D01*
X4511780Y-54402633D01*
X4154638Y-54402633D01*
X4137489Y-54404321D01*
X4133659Y-54404107D01*
X4129565Y-54405102D01*
X4125374Y-54405515D01*
X4121830Y-54406982D01*
X4105086Y-54411054D01*
X3866990Y-54494387D01*
X3859284Y-54497966D01*
X3856149Y-54498661D01*
X3848393Y-54503025D01*
X3840321Y-54506775D01*
X3837926Y-54508915D01*
X3830522Y-54513082D01*
X3711475Y-54596416D01*
X3697997Y-54607974D01*
X3694790Y-54609976D01*
X3692171Y-54612971D01*
X3689154Y-54615559D01*
X3687124Y-54618743D01*
X3675435Y-54632114D01*
X3556387Y-54798780D01*
X3554774Y-54801582D01*
X3553727Y-54802630D01*
X3552582Y-54805392D01*
X3541723Y-54824268D01*
X3537868Y-54840915D01*
X3531329Y-54856702D01*
X3529194Y-54878372D01*
X3528520Y-54881287D01*
X3528763Y-54882749D01*
X3528447Y-54885966D01*
X3250669Y-54885966D01*
X3250669Y-53385966D01*
X3528447Y-53385966D01*
X3528447Y-53802633D01*
X3531329Y-53831897D01*
X3553727Y-53885969D01*
X3595111Y-53927353D01*
X3649183Y-53949751D01*
X3678447Y-53952633D01*
X6178447Y-53952633D01*
X6207711Y-53949751D01*
X6261783Y-53927353D01*
X6303167Y-53885969D01*
X6325565Y-53831897D01*
X6328447Y-53802633D01*
X6328447Y-53385966D01*
X6325565Y-53356702D01*
X6324058Y-53353064D01*
X6323855Y-53349136D01*
X6313876Y-53321476D01*
X6194829Y-53071476D01*
X6179646Y-53046294D01*
X6172739Y-53040067D01*
X6167741Y-53032224D01*
X6145419Y-53013081D01*
X5907323Y-52846415D01*
X5899921Y-52842249D01*
X5897526Y-52840109D01*
X5889452Y-52836358D01*
X5881696Y-52831994D01*
X5878560Y-52831299D01*
X5870857Y-52827721D01*
X5632762Y-52744387D01*
X5620858Y-52741492D01*
X5609066Y-52738211D01*
X5132876Y-52654878D01*
X5119929Y-52653904D01*
X5107019Y-52652633D01*
X4749876Y-52652633D01*
X4736965Y-52653904D01*
X4724019Y-52654878D01*
X4247828Y-52738211D01*
X4236018Y-52741497D01*
X4224132Y-52744388D01*
X3986037Y-52827721D01*
X3978333Y-52831299D01*
X3975198Y-52831994D01*
X3967441Y-52836358D01*
X3959368Y-52840109D01*
X3956972Y-52842249D01*
X3949571Y-52846415D01*
X3711476Y-53013081D01*
X3689155Y-53032224D01*
X3684158Y-53040065D01*
X3677250Y-53046293D01*
X3662066Y-53071476D01*
X3543018Y-53321476D01*
X3533038Y-53349136D01*
X3532834Y-53353067D01*
X3531329Y-53356702D01*
X3528447Y-53385966D01*
X3250669Y-53385966D01*
X3250669Y-51385966D01*
X3528447Y-51385966D01*
X3528447Y-51719300D01*
X3528763Y-51722516D01*
X3528520Y-51723979D01*
X3529194Y-51726893D01*
X3531329Y-51748564D01*
X3537868Y-51764350D01*
X3541723Y-51780998D01*
X3552582Y-51799873D01*
X3553727Y-51802636D01*
X3554774Y-51803683D01*
X3556387Y-51806486D01*
X3675435Y-51973152D01*
X3687122Y-51986519D01*
X3689154Y-51989708D01*
X3692174Y-51992298D01*
X3694790Y-51995290D01*
X3697992Y-51997288D01*
X3711475Y-52008851D01*
X3949570Y-52175518D01*
X3975197Y-52189938D01*
X3978525Y-52190675D01*
X3981404Y-52192504D01*
X4009733Y-52200388D01*
X4485923Y-52283721D01*
X4498869Y-52284694D01*
X4511780Y-52285966D01*
X5345114Y-52285966D01*
X5358024Y-52284694D01*
X5370971Y-52283721D01*
X5847161Y-52200388D01*
X5875490Y-52192504D01*
X5878366Y-52190676D01*
X5881697Y-52189939D01*
X5907323Y-52175518D01*
X6145419Y-52008851D01*
X6158898Y-51997291D01*
X6162106Y-51995290D01*
X6164724Y-51992295D01*
X6167741Y-51989708D01*
X6169771Y-51986522D01*
X6181460Y-51973152D01*
X6300507Y-51806486D01*
X6302119Y-51803683D01*
X6303167Y-51802636D01*
X6304311Y-51799873D01*
X6315171Y-51780998D01*
X6319025Y-51764350D01*
X6325565Y-51748564D01*
X6327699Y-51726893D01*
X6328374Y-51723979D01*
X6328130Y-51722516D01*
X6328447Y-51719300D01*
X6328447Y-51385966D01*
X6328130Y-51382749D01*
X6328374Y-51381287D01*
X6327699Y-51378372D01*
X6325565Y-51356702D01*
X6319025Y-51340915D01*
X6315171Y-51324268D01*
X6304311Y-51305392D01*
X6303167Y-51302630D01*
X6302119Y-51301582D01*
X6300507Y-51298780D01*
X6181460Y-51132114D01*
X6169771Y-51118743D01*
X6167741Y-51115558D01*
X6164724Y-51112970D01*
X6162106Y-51109976D01*
X6158898Y-51107974D01*
X6145419Y-51096415D01*
X5907323Y-50929748D01*
X5881697Y-50915327D01*
X5878366Y-50914589D01*
X5875490Y-50912762D01*
X5847161Y-50904878D01*
X5370971Y-50821545D01*
X5358024Y-50820571D01*
X5345114Y-50819300D01*
X4511780Y-50819300D01*
X4498869Y-50820571D01*
X4485923Y-50821545D01*
X4009733Y-50904878D01*
X3981404Y-50912762D01*
X3978525Y-50914590D01*
X3975197Y-50915328D01*
X3949570Y-50929748D01*
X3711475Y-51096415D01*
X3697992Y-51107977D01*
X3694790Y-51109976D01*
X3692174Y-51112967D01*
X3689154Y-51115558D01*
X3687122Y-51118746D01*
X3675435Y-51132114D01*
X3556387Y-51298780D01*
X3554774Y-51301582D01*
X3553727Y-51302630D01*
X3552582Y-51305392D01*
X3541723Y-51324268D01*
X3537868Y-51340915D01*
X3531329Y-51356702D01*
X3529194Y-51378372D01*
X3528520Y-51381287D01*
X3528763Y-51382749D01*
X3528447Y-51385966D01*
X3250669Y-51385966D01*
X3250669Y-49190036D01*
X3531329Y-49190036D01*
X3531329Y-49248564D01*
X3553727Y-49302636D01*
X3595111Y-49344020D01*
X3649183Y-49366418D01*
X3678447Y-49369300D01*
X5676765Y-49369300D01*
X5871275Y-49437378D01*
X5952297Y-49494093D01*
X6028447Y-49600702D01*
X6028447Y-49837897D01*
X5952297Y-49944506D01*
X5871275Y-50001221D01*
X5676765Y-50069300D01*
X3678447Y-50069300D01*
X3649183Y-50072182D01*
X3595111Y-50094580D01*
X3553727Y-50135964D01*
X3531329Y-50190036D01*
X3531329Y-50248564D01*
X3553727Y-50302636D01*
X3595111Y-50344020D01*
X3649183Y-50366418D01*
X3678447Y-50369300D01*
X5702257Y-50369300D01*
X5719405Y-50367611D01*
X5723236Y-50367826D01*
X5727329Y-50366830D01*
X5731521Y-50366418D01*
X5735064Y-50364950D01*
X5751809Y-50360879D01*
X5989904Y-50277546D01*
X5997609Y-50273966D01*
X6000745Y-50273272D01*
X6008503Y-50268906D01*
X6016573Y-50265158D01*
X6018965Y-50263019D01*
X6026372Y-50258852D01*
X6145420Y-50175517D01*
X6158898Y-50163958D01*
X6162106Y-50161957D01*
X6164724Y-50158962D01*
X6167741Y-50156375D01*
X6169770Y-50153189D01*
X6181460Y-50139819D01*
X6300507Y-49973153D01*
X6302119Y-49970350D01*
X6303167Y-49969303D01*
X6304311Y-49966540D01*
X6315171Y-49947665D01*
X6319025Y-49931017D01*
X6325565Y-49915231D01*
X6327699Y-49893560D01*
X6328374Y-49890646D01*
X6328130Y-49889183D01*
X6328447Y-49885967D01*
X6328447Y-49552633D01*
X6328130Y-49549416D01*
X6328374Y-49547954D01*
X6327699Y-49545039D01*
X6325565Y-49523369D01*
X6319025Y-49507582D01*
X6315171Y-49490935D01*
X6304311Y-49472059D01*
X6303167Y-49469297D01*
X6302119Y-49468249D01*
X6300507Y-49465447D01*
X6181460Y-49298781D01*
X6169770Y-49285410D01*
X6167741Y-49282225D01*
X6164724Y-49279637D01*
X6162106Y-49276643D01*
X6158898Y-49274641D01*
X6145420Y-49263083D01*
X6026372Y-49179748D01*
X6018965Y-49175580D01*
X6016573Y-49173442D01*
X6008503Y-49169693D01*
X6000745Y-49165328D01*
X5997609Y-49164633D01*
X5989904Y-49161054D01*
X5751809Y-49077721D01*
X5735064Y-49073649D01*
X5731521Y-49072182D01*
X5727329Y-49071769D01*
X5723236Y-49070774D01*
X5719405Y-49070988D01*
X5702257Y-49069300D01*
X3678447Y-49069300D01*
X3649183Y-49072182D01*
X3595111Y-49094580D01*
X3553727Y-49135964D01*
X3531329Y-49190036D01*
X3250669Y-49190036D01*
X3250669Y-47719300D01*
X3528447Y-47719300D01*
X3528447Y-48135967D01*
X3528763Y-48139183D01*
X3528520Y-48140646D01*
X3529194Y-48143560D01*
X3531329Y-48165231D01*
X3537868Y-48181017D01*
X3541723Y-48197665D01*
X3552582Y-48216540D01*
X3553727Y-48219303D01*
X3554774Y-48220350D01*
X3556387Y-48223153D01*
X3675435Y-48389820D01*
X3687122Y-48403187D01*
X3689154Y-48406376D01*
X3692174Y-48408966D01*
X3694790Y-48411958D01*
X3697994Y-48413957D01*
X3711476Y-48425519D01*
X3830522Y-48508851D01*
X3837926Y-48513017D01*
X3840321Y-48515158D01*
X3848393Y-48518907D01*
X3856149Y-48523272D01*
X3859284Y-48523966D01*
X3866990Y-48527546D01*
X4105086Y-48610879D01*
X4121830Y-48614950D01*
X4125374Y-48616418D01*
X4129565Y-48616830D01*
X4133659Y-48617826D01*
X4137489Y-48617611D01*
X4154638Y-48619300D01*
X4392733Y-48619300D01*
X4409881Y-48617611D01*
X4413712Y-48617826D01*
X4417805Y-48616830D01*
X4421997Y-48616418D01*
X4425540Y-48614950D01*
X4442285Y-48610879D01*
X4680380Y-48527546D01*
X4688082Y-48523968D01*
X4691220Y-48523273D01*
X4698981Y-48518905D01*
X4707049Y-48515158D01*
X4709442Y-48513018D01*
X4716847Y-48508852D01*
X4835895Y-48425519D01*
X4849376Y-48413957D01*
X4852582Y-48411957D01*
X4855199Y-48408963D01*
X4858216Y-48406376D01*
X4860245Y-48403190D01*
X4871936Y-48389819D01*
X4990983Y-48223152D01*
X4995410Y-48215456D01*
X4997628Y-48213007D01*
X5001329Y-48205167D01*
X5005647Y-48197664D01*
X5006391Y-48194449D01*
X5010184Y-48186418D01*
X5122192Y-47872793D01*
X5214121Y-47744093D01*
X5295139Y-47687380D01*
X5489654Y-47619300D01*
X5676764Y-47619300D01*
X5871275Y-47687378D01*
X5952298Y-47744094D01*
X6028447Y-47850702D01*
X6028447Y-48185410D01*
X5923971Y-48404810D01*
X5913991Y-48432471D01*
X5910966Y-48490920D01*
X5930538Y-48546076D01*
X5969728Y-48589546D01*
X6022571Y-48614709D01*
X6081020Y-48617734D01*
X6136176Y-48598162D01*
X6179646Y-48558972D01*
X6194829Y-48533790D01*
X6313876Y-48283790D01*
X6323855Y-48256130D01*
X6324058Y-48252201D01*
X6325565Y-48248564D01*
X6328447Y-48219300D01*
X6328447Y-47802634D01*
X6328130Y-47799418D01*
X6328374Y-47797956D01*
X6327699Y-47795042D01*
X6325565Y-47773370D01*
X6319025Y-47757582D01*
X6315171Y-47740937D01*
X6304312Y-47722063D01*
X6303167Y-47719298D01*
X6302117Y-47718248D01*
X6300507Y-47715449D01*
X6181460Y-47548782D01*
X6169769Y-47535410D01*
X6167740Y-47532225D01*
X6164723Y-47529637D01*
X6162106Y-47526644D01*
X6158900Y-47524643D01*
X6145419Y-47513082D01*
X6026371Y-47429749D01*
X6018969Y-47425583D01*
X6016574Y-47423443D01*
X6008500Y-47419692D01*
X6000744Y-47415328D01*
X5997608Y-47414633D01*
X5989905Y-47411055D01*
X5751810Y-47327721D01*
X5735063Y-47323649D01*
X5731521Y-47322182D01*
X5727330Y-47321769D01*
X5723237Y-47320774D01*
X5719406Y-47320988D01*
X5702257Y-47319300D01*
X5464161Y-47319300D01*
X5447011Y-47320988D01*
X5443181Y-47320774D01*
X5439088Y-47321769D01*
X5434897Y-47322182D01*
X5431352Y-47323650D01*
X5414608Y-47327722D01*
X5176513Y-47411055D01*
X5168806Y-47414634D01*
X5165673Y-47415329D01*
X5157922Y-47419690D01*
X5149844Y-47423443D01*
X5147447Y-47425584D01*
X5140046Y-47429750D01*
X5021000Y-47513082D01*
X5007518Y-47524643D01*
X5004314Y-47526643D01*
X5001698Y-47529634D01*
X4998678Y-47532225D01*
X4996646Y-47535413D01*
X4984959Y-47548781D01*
X4865911Y-47715448D01*
X4861481Y-47723146D01*
X4859267Y-47725593D01*
X4855568Y-47733424D01*
X4851247Y-47740936D01*
X4850502Y-47744153D01*
X4846710Y-47752183D01*
X4734699Y-48065810D01*
X4642774Y-48194506D01*
X4561753Y-48251220D01*
X4367241Y-48319300D01*
X4180130Y-48319300D01*
X3985616Y-48251220D01*
X3904597Y-48194507D01*
X3828447Y-48087896D01*
X3828447Y-47753190D01*
X3932924Y-47533790D01*
X3942904Y-47506130D01*
X3945929Y-47447681D01*
X3926357Y-47392524D01*
X3887167Y-47349055D01*
X3834325Y-47323891D01*
X3775876Y-47320866D01*
X3720719Y-47340438D01*
X3677250Y-47379627D01*
X3662066Y-47404810D01*
X3543018Y-47654810D01*
X3533038Y-47682470D01*
X3532834Y-47686401D01*
X3531329Y-47690036D01*
X3528447Y-47719300D01*
X3250669Y-47719300D01*
X3250669Y-44464369D01*
X3528528Y-44464369D01*
X3538053Y-44522116D01*
X3568951Y-44571821D01*
X3616519Y-44605920D01*
X3644363Y-44615376D01*
X5518323Y-45052633D01*
X3644363Y-45489891D01*
X3616519Y-45499347D01*
X3568951Y-45533446D01*
X3538053Y-45583151D01*
X3528528Y-45640898D01*
X3541827Y-45697895D01*
X3575926Y-45745463D01*
X3625631Y-45776361D01*
X3683378Y-45785886D01*
X3712531Y-45782043D01*
X6212532Y-45198710D01*
X6227373Y-45193669D01*
X6231263Y-45193028D01*
X6233672Y-45191530D01*
X6240375Y-45189254D01*
X6260229Y-45175021D01*
X6280968Y-45162130D01*
X6283879Y-45158068D01*
X6287944Y-45155155D01*
X6300840Y-45134407D01*
X6315067Y-45114562D01*
X6316202Y-45109694D01*
X6318841Y-45105450D01*
X6322817Y-45081346D01*
X6328366Y-45057565D01*
X6327553Y-45052636D01*
X6328367Y-45047703D01*
X6322814Y-45023907D01*
X6318841Y-44999818D01*
X6316202Y-44995574D01*
X6315067Y-44990706D01*
X6300833Y-44970849D01*
X6287943Y-44950113D01*
X6283882Y-44947202D01*
X6280969Y-44943138D01*
X6260222Y-44930241D01*
X6240375Y-44916014D01*
X6233672Y-44913737D01*
X6231263Y-44912240D01*
X6227373Y-44911598D01*
X6212532Y-44906558D01*
X3712531Y-44323224D01*
X3683378Y-44319381D01*
X3625631Y-44328906D01*
X3575926Y-44359804D01*
X3541827Y-44407372D01*
X3528528Y-44464369D01*
X3250669Y-44464369D01*
X3250669Y-43219300D01*
X3528447Y-43219300D01*
X3528447Y-43552634D01*
X3528763Y-43555850D01*
X3528520Y-43557313D01*
X3529194Y-43560227D01*
X3531329Y-43581898D01*
X3537868Y-43597684D01*
X3541723Y-43614332D01*
X3552582Y-43633207D01*
X3553727Y-43635970D01*
X3554774Y-43637017D01*
X3556387Y-43639820D01*
X3675435Y-43806486D01*
X3687122Y-43819853D01*
X3689154Y-43823042D01*
X3692174Y-43825632D01*
X3694790Y-43828624D01*
X3697992Y-43830622D01*
X3711475Y-43842185D01*
X3949570Y-44008852D01*
X3975197Y-44023272D01*
X3978525Y-44024009D01*
X3981404Y-44025838D01*
X4009733Y-44033722D01*
X4485923Y-44117055D01*
X4498869Y-44118028D01*
X4511780Y-44119300D01*
X5345114Y-44119300D01*
X5358024Y-44118028D01*
X5370971Y-44117055D01*
X5847161Y-44033722D01*
X5875490Y-44025838D01*
X5878366Y-44024010D01*
X5881697Y-44023273D01*
X5907323Y-44008852D01*
X6145419Y-43842185D01*
X6158898Y-43830625D01*
X6162106Y-43828624D01*
X6164724Y-43825629D01*
X6167741Y-43823042D01*
X6169771Y-43819856D01*
X6181460Y-43806486D01*
X6300507Y-43639820D01*
X6302119Y-43637017D01*
X6303167Y-43635970D01*
X6304311Y-43633207D01*
X6315171Y-43614332D01*
X6319025Y-43597684D01*
X6325565Y-43581898D01*
X6327699Y-43560227D01*
X6328374Y-43557313D01*
X6328130Y-43555850D01*
X6328447Y-43552634D01*
X6328447Y-43219300D01*
X6328130Y-43216083D01*
X6328374Y-43214621D01*
X6327699Y-43211706D01*
X6325565Y-43190036D01*
X6319025Y-43174249D01*
X6315171Y-43157602D01*
X6304311Y-43138726D01*
X6303167Y-43135964D01*
X6302119Y-43134916D01*
X6300507Y-43132114D01*
X6181460Y-42965448D01*
X6169771Y-42952077D01*
X6167741Y-42948892D01*
X6164724Y-42946304D01*
X6162106Y-42943310D01*
X6158898Y-42941308D01*
X6145419Y-42929749D01*
X5907323Y-42763082D01*
X5881697Y-42748661D01*
X5878366Y-42747923D01*
X5875490Y-42746096D01*
X5847161Y-42738212D01*
X5370971Y-42654879D01*
X5358024Y-42653905D01*
X5345114Y-42652634D01*
X4511780Y-42652634D01*
X4498869Y-42653905D01*
X4485923Y-42654879D01*
X4009733Y-42738212D01*
X3981404Y-42746096D01*
X3978525Y-42747924D01*
X3975197Y-42748662D01*
X3949570Y-42763082D01*
X3711475Y-42929749D01*
X3697992Y-42941311D01*
X3694790Y-42943310D01*
X3692174Y-42946301D01*
X3689154Y-42948892D01*
X3687122Y-42952080D01*
X3675435Y-42965448D01*
X3556387Y-43132114D01*
X3554774Y-43134916D01*
X3553727Y-43135964D01*
X3552582Y-43138726D01*
X3541723Y-43157602D01*
X3537868Y-43174249D01*
X3531329Y-43190036D01*
X3529194Y-43211706D01*
X3528520Y-43214621D01*
X3528763Y-43216083D01*
X3528447Y-43219300D01*
X3250669Y-43219300D01*
X3250669Y-42023370D01*
X3531329Y-42023370D01*
X3531329Y-42081898D01*
X3553727Y-42135970D01*
X3595111Y-42177354D01*
X3649183Y-42199752D01*
X3678447Y-42202634D01*
X6178447Y-42202634D01*
X6207711Y-42199752D01*
X6261783Y-42177354D01*
X6303167Y-42135970D01*
X6325565Y-42081898D01*
X6328447Y-42052634D01*
X6328447Y-41219301D01*
X6325565Y-41190037D01*
X6303167Y-41135965D01*
X6261783Y-41094581D01*
X6207711Y-41072183D01*
X6149183Y-41072183D01*
X6095111Y-41094581D01*
X6053727Y-41135965D01*
X6031329Y-41190037D01*
X6028447Y-41219301D01*
X6028447Y-41902634D01*
X3678447Y-41902634D01*
X3649183Y-41905516D01*
X3595111Y-41927914D01*
X3553727Y-41969298D01*
X3531329Y-42023370D01*
X3250669Y-42023370D01*
X3250669Y-39885967D01*
X3528447Y-39885967D01*
X3528447Y-40885967D01*
X3531329Y-40915231D01*
X3553727Y-40969303D01*
X3595111Y-41010687D01*
X3649183Y-41033085D01*
X3707711Y-41033085D01*
X3761783Y-41010687D01*
X3803167Y-40969303D01*
X3825565Y-40915231D01*
X3828447Y-40885967D01*
X3828447Y-40535967D01*
X6178447Y-40535967D01*
X6207711Y-40533085D01*
X6261783Y-40510687D01*
X6303167Y-40469303D01*
X6325565Y-40415231D01*
X6325565Y-40356703D01*
X6303167Y-40302631D01*
X6261783Y-40261247D01*
X6207711Y-40238849D01*
X6178447Y-40235967D01*
X3828447Y-40235967D01*
X3828447Y-39885967D01*
X3825565Y-39856703D01*
X3803167Y-39802631D01*
X3761783Y-39761247D01*
X3707711Y-39738849D01*
X3649183Y-39738849D01*
X3595111Y-39761247D01*
X3553727Y-39802631D01*
X3531329Y-39856703D01*
X3528447Y-39885967D01*
X3250669Y-39885967D01*
X3250669Y-38964370D01*
X3528528Y-38964370D01*
X3529341Y-38969301D01*
X3528528Y-38974232D01*
X3534078Y-38998019D01*
X3538053Y-39022117D01*
X3540691Y-39026360D01*
X3541827Y-39031229D01*
X3556057Y-39051080D01*
X3568951Y-39071822D01*
X3573013Y-39074734D01*
X3575926Y-39078797D01*
X3596667Y-39091690D01*
X3616519Y-39105921D01*
X3623221Y-39108197D01*
X3625631Y-39109695D01*
X3629521Y-39110336D01*
X3644363Y-39115377D01*
X6144363Y-39698710D01*
X6173516Y-39702553D01*
X6231263Y-39693028D01*
X6280969Y-39662130D01*
X6315067Y-39614562D01*
X6328367Y-39557565D01*
X6318841Y-39499818D01*
X6287944Y-39450113D01*
X6240375Y-39416014D01*
X6212532Y-39406558D01*
X5614161Y-39266938D01*
X5614161Y-38671663D01*
X6212532Y-38532043D01*
X6240375Y-38522587D01*
X6287943Y-38488488D01*
X6318841Y-38438783D01*
X6328366Y-38381036D01*
X6315067Y-38324039D01*
X6280968Y-38276471D01*
X6231263Y-38245573D01*
X6173516Y-38236048D01*
X6144363Y-38239891D01*
X3644363Y-38823225D01*
X3629521Y-38828265D01*
X3625631Y-38828907D01*
X3623221Y-38830404D01*
X3616519Y-38832681D01*
X3596667Y-38846911D01*
X3575926Y-38859805D01*
X3573013Y-38863867D01*
X3568951Y-38866780D01*
X3556057Y-38887521D01*
X3541827Y-38907373D01*
X3540691Y-38912241D01*
X3538053Y-38916485D01*
X3534078Y-38940582D01*
X3528528Y-38964370D01*
X3250669Y-38964370D01*
X3250669Y-37052634D01*
X3528447Y-37052634D01*
X3528447Y-37302634D01*
X3531329Y-37331898D01*
X3532834Y-37335532D01*
X3533038Y-37339464D01*
X3543018Y-37367124D01*
X3662066Y-37617124D01*
X3677250Y-37642307D01*
X3684156Y-37648533D01*
X3689154Y-37656376D01*
X3711475Y-37675519D01*
X3949570Y-37842186D01*
X3956976Y-37846353D01*
X3959369Y-37848492D01*
X3967438Y-37852240D01*
X3975197Y-37856606D01*
X3978332Y-37857300D01*
X3986038Y-37860880D01*
X4224133Y-37944213D01*
X4236028Y-37947105D01*
X4247828Y-37950389D01*
X4724019Y-38033722D01*
X4736965Y-38034695D01*
X4749876Y-38035967D01*
X5107019Y-38035967D01*
X5119929Y-38034695D01*
X5132876Y-38033722D01*
X5609066Y-37950389D01*
X5620865Y-37947105D01*
X5632761Y-37944213D01*
X5870856Y-37860880D01*
X5878557Y-37857302D01*
X5881697Y-37856607D01*
X5889461Y-37852237D01*
X5897525Y-37848492D01*
X5899918Y-37846353D01*
X5907323Y-37842186D01*
X6145419Y-37675519D01*
X6167741Y-37656376D01*
X6172739Y-37648532D01*
X6179646Y-37642306D01*
X6194829Y-37617124D01*
X6313876Y-37367124D01*
X6323855Y-37339464D01*
X6324058Y-37335535D01*
X6325565Y-37331898D01*
X6328447Y-37302634D01*
X6328447Y-37135967D01*
X6325565Y-37106703D01*
X6324058Y-37103065D01*
X6323855Y-37099137D01*
X6313876Y-37071477D01*
X6194829Y-36821477D01*
X6179646Y-36796295D01*
X6172736Y-36790065D01*
X6167740Y-36782225D01*
X6145419Y-36763082D01*
X6026371Y-36679749D01*
X6024431Y-36678657D01*
X6023688Y-36677914D01*
X6021498Y-36677006D01*
X6000744Y-36665328D01*
X5984749Y-36661784D01*
X5969616Y-36655516D01*
X5945918Y-36653182D01*
X5943602Y-36652669D01*
X5942565Y-36652851D01*
X5940352Y-36652634D01*
X5107019Y-36652634D01*
X5077755Y-36655516D01*
X5023683Y-36677914D01*
X4982299Y-36719298D01*
X4959901Y-36773370D01*
X4957019Y-36802634D01*
X4957019Y-37135967D01*
X4959901Y-37165231D01*
X4982299Y-37219303D01*
X5023683Y-37260687D01*
X5077755Y-37283085D01*
X5136283Y-37283085D01*
X5190355Y-37260687D01*
X5231739Y-37219303D01*
X5254137Y-37165231D01*
X5257019Y-37135967D01*
X5257019Y-36952634D01*
X5893069Y-36952634D01*
X5940976Y-36986169D01*
X6028447Y-37169856D01*
X6028447Y-37268744D01*
X5940976Y-37452431D01*
X5752229Y-37584554D01*
X5545253Y-37656996D01*
X5093991Y-37735967D01*
X4762904Y-37735967D01*
X4311640Y-37656996D01*
X4104664Y-37584554D01*
X3915917Y-37452431D01*
X3828447Y-37268743D01*
X3828447Y-37100704D01*
X3919555Y-36973153D01*
X3934219Y-36947664D01*
X3947422Y-36890646D01*
X3937800Y-36832916D01*
X3906819Y-36783261D01*
X3859193Y-36749243D01*
X3802174Y-36736040D01*
X3744444Y-36745661D01*
X3694790Y-36776643D01*
X3675435Y-36798781D01*
X3556387Y-36965448D01*
X3554774Y-36968250D01*
X3553727Y-36969298D01*
X3552582Y-36972060D01*
X3541723Y-36990936D01*
X3537868Y-37007583D01*
X3531329Y-37023370D01*
X3529194Y-37045040D01*
X3528520Y-37047955D01*
X3528763Y-37049417D01*
X3528447Y-37052634D01*
X3250669Y-37052634D01*
X3250669Y-35219301D01*
X3528447Y-35219301D01*
X3528447Y-36052634D01*
X3531329Y-36081898D01*
X3553727Y-36135970D01*
X3595111Y-36177354D01*
X3649183Y-36199752D01*
X3678447Y-36202634D01*
X6178447Y-36202634D01*
X6207711Y-36199752D01*
X6261783Y-36177354D01*
X6303167Y-36135970D01*
X6325565Y-36081898D01*
X6328447Y-36052634D01*
X6328447Y-35219301D01*
X6325565Y-35190037D01*
X6303167Y-35135965D01*
X6261783Y-35094581D01*
X6207711Y-35072183D01*
X6149183Y-35072183D01*
X6095111Y-35094581D01*
X6053727Y-35135965D01*
X6031329Y-35190037D01*
X6028447Y-35219301D01*
X6028447Y-35902634D01*
X5018923Y-35902634D01*
X5018923Y-35469301D01*
X5016041Y-35440037D01*
X4993643Y-35385965D01*
X4952259Y-35344581D01*
X4898187Y-35322183D01*
X4839659Y-35322183D01*
X4785587Y-35344581D01*
X4744203Y-35385965D01*
X4721805Y-35440037D01*
X4718923Y-35469301D01*
X4718923Y-35902634D01*
X3828447Y-35902634D01*
X3828447Y-35219301D01*
X3825565Y-35190037D01*
X3803167Y-35135965D01*
X3761783Y-35094581D01*
X3707711Y-35072183D01*
X3649183Y-35072183D01*
X3595111Y-35094581D01*
X3553727Y-35135965D01*
X3531329Y-35190037D01*
X3528447Y-35219301D01*
X3250669Y-35219301D01*
X3250669Y-33802634D01*
X3528447Y-33802634D01*
X3528447Y-34219301D01*
X3528763Y-34222517D01*
X3528520Y-34223980D01*
X3529194Y-34226894D01*
X3531329Y-34248565D01*
X3537868Y-34264351D01*
X3541723Y-34280999D01*
X3552582Y-34299874D01*
X3553727Y-34302637D01*
X3554774Y-34303684D01*
X3556387Y-34306487D01*
X3675435Y-34473154D01*
X3687122Y-34486521D01*
X3689154Y-34489710D01*
X3692174Y-34492300D01*
X3694790Y-34495292D01*
X3697994Y-34497291D01*
X3711476Y-34508853D01*
X3830522Y-34592185D01*
X3837926Y-34596351D01*
X3840321Y-34598492D01*
X3848393Y-34602241D01*
X3856149Y-34606606D01*
X3859284Y-34607300D01*
X3866990Y-34610880D01*
X4105086Y-34694213D01*
X4121830Y-34698284D01*
X4125374Y-34699752D01*
X4129565Y-34700164D01*
X4133659Y-34701160D01*
X4137489Y-34700945D01*
X4154638Y-34702634D01*
X4392733Y-34702634D01*
X4409881Y-34700945D01*
X4413712Y-34701160D01*
X4417805Y-34700164D01*
X4421997Y-34699752D01*
X4425540Y-34698284D01*
X4442285Y-34694213D01*
X4680380Y-34610880D01*
X4688082Y-34607302D01*
X4691220Y-34606607D01*
X4698981Y-34602239D01*
X4707049Y-34598492D01*
X4709442Y-34596352D01*
X4716847Y-34592186D01*
X4835895Y-34508853D01*
X4849376Y-34497291D01*
X4852582Y-34495291D01*
X4855199Y-34492297D01*
X4858216Y-34489710D01*
X4860245Y-34486524D01*
X4871936Y-34473153D01*
X4990983Y-34306486D01*
X4995410Y-34298790D01*
X4997628Y-34296341D01*
X5001329Y-34288501D01*
X5005647Y-34280998D01*
X5006391Y-34277783D01*
X5010184Y-34269752D01*
X5122192Y-33956127D01*
X5214121Y-33827427D01*
X5295139Y-33770714D01*
X5489654Y-33702634D01*
X5676764Y-33702634D01*
X5871275Y-33770712D01*
X5952298Y-33827428D01*
X6028447Y-33934036D01*
X6028447Y-34268744D01*
X5923971Y-34488144D01*
X5913991Y-34515805D01*
X5910966Y-34574254D01*
X5930538Y-34629410D01*
X5969728Y-34672880D01*
X6022571Y-34698043D01*
X6081020Y-34701068D01*
X6136176Y-34681496D01*
X6179646Y-34642306D01*
X6194829Y-34617124D01*
X6313876Y-34367124D01*
X6323855Y-34339464D01*
X6324058Y-34335535D01*
X6325565Y-34331898D01*
X6328447Y-34302634D01*
X6328447Y-33885968D01*
X6328130Y-33882752D01*
X6328374Y-33881290D01*
X6327699Y-33878376D01*
X6325565Y-33856704D01*
X6319025Y-33840916D01*
X6315171Y-33824271D01*
X6304312Y-33805397D01*
X6303167Y-33802632D01*
X6302117Y-33801582D01*
X6300507Y-33798783D01*
X6181460Y-33632116D01*
X6169769Y-33618744D01*
X6167740Y-33615559D01*
X6164723Y-33612971D01*
X6162106Y-33609978D01*
X6158900Y-33607977D01*
X6145419Y-33596416D01*
X6026371Y-33513083D01*
X6018969Y-33508917D01*
X6016574Y-33506777D01*
X6008500Y-33503026D01*
X6000744Y-33498662D01*
X5997608Y-33497967D01*
X5989905Y-33494389D01*
X5751810Y-33411055D01*
X5735063Y-33406983D01*
X5731521Y-33405516D01*
X5727330Y-33405103D01*
X5723237Y-33404108D01*
X5719406Y-33404322D01*
X5702257Y-33402634D01*
X5464161Y-33402634D01*
X5447011Y-33404322D01*
X5443181Y-33404108D01*
X5439088Y-33405103D01*
X5434897Y-33405516D01*
X5431352Y-33406984D01*
X5414608Y-33411056D01*
X5176513Y-33494389D01*
X5168806Y-33497968D01*
X5165673Y-33498663D01*
X5157922Y-33503024D01*
X5149844Y-33506777D01*
X5147447Y-33508918D01*
X5140046Y-33513084D01*
X5021000Y-33596416D01*
X5007518Y-33607977D01*
X5004314Y-33609977D01*
X5001698Y-33612968D01*
X4998678Y-33615559D01*
X4996646Y-33618747D01*
X4984959Y-33632115D01*
X4865911Y-33798782D01*
X4861481Y-33806480D01*
X4859267Y-33808927D01*
X4855568Y-33816758D01*
X4851247Y-33824270D01*
X4850502Y-33827487D01*
X4846710Y-33835517D01*
X4734699Y-34149144D01*
X4642774Y-34277840D01*
X4561753Y-34334554D01*
X4367241Y-34402634D01*
X4180130Y-34402634D01*
X3985616Y-34334554D01*
X3904597Y-34277841D01*
X3828447Y-34171230D01*
X3828447Y-33836524D01*
X3932924Y-33617124D01*
X3942904Y-33589464D01*
X3945929Y-33531015D01*
X3926357Y-33475858D01*
X3887167Y-33432389D01*
X3834325Y-33407225D01*
X3775876Y-33404200D01*
X3720719Y-33423772D01*
X3677250Y-33462961D01*
X3662066Y-33488144D01*
X3543018Y-33738144D01*
X3533038Y-33765804D01*
X3532834Y-33769735D01*
X3531329Y-33773370D01*
X3528447Y-33802634D01*
X3250669Y-33802634D01*
X3250669Y-30802634D01*
X3528447Y-30802634D01*
X3528447Y-31469301D01*
X3531329Y-31498565D01*
X3553727Y-31552637D01*
X3595111Y-31594021D01*
X3649183Y-31616419D01*
X3678447Y-31619301D01*
X6178447Y-31619301D01*
X6207711Y-31616419D01*
X6261783Y-31594021D01*
X6303167Y-31552637D01*
X6325565Y-31498565D01*
X6325565Y-31440037D01*
X6303167Y-31385965D01*
X6261783Y-31344581D01*
X6207711Y-31322183D01*
X6178447Y-31319301D01*
X5137971Y-31319301D01*
X5137971Y-30802634D01*
X5137654Y-30799417D01*
X5137898Y-30797955D01*
X5137223Y-30795040D01*
X5135089Y-30773370D01*
X5128549Y-30757583D01*
X5124695Y-30740936D01*
X5113835Y-30722060D01*
X5112691Y-30719298D01*
X5111643Y-30718250D01*
X5110031Y-30715448D01*
X4990983Y-30548782D01*
X4979293Y-30535411D01*
X4977264Y-30532227D01*
X4974246Y-30529639D01*
X4971628Y-30526644D01*
X4968420Y-30524642D01*
X4954943Y-30513084D01*
X4835896Y-30429750D01*
X4828491Y-30425583D01*
X4826097Y-30423443D01*
X4818024Y-30419693D01*
X4810269Y-30415329D01*
X4807133Y-30414634D01*
X4799428Y-30411055D01*
X4561332Y-30327722D01*
X4544587Y-30323650D01*
X4541044Y-30322183D01*
X4536852Y-30321770D01*
X4532759Y-30320775D01*
X4528928Y-30320989D01*
X4511780Y-30319301D01*
X4154638Y-30319301D01*
X4137489Y-30320989D01*
X4133659Y-30320775D01*
X4129565Y-30321770D01*
X4125374Y-30322183D01*
X4121830Y-30323650D01*
X4105086Y-30327722D01*
X3866990Y-30411055D01*
X3859284Y-30414634D01*
X3856149Y-30415329D01*
X3848393Y-30419693D01*
X3840321Y-30423443D01*
X3837926Y-30425583D01*
X3830522Y-30429750D01*
X3711475Y-30513084D01*
X3697997Y-30524642D01*
X3694790Y-30526644D01*
X3692171Y-30529639D01*
X3689154Y-30532227D01*
X3687124Y-30535411D01*
X3675435Y-30548782D01*
X3556387Y-30715448D01*
X3554774Y-30718250D01*
X3553727Y-30719298D01*
X3552582Y-30722060D01*
X3541723Y-30740936D01*
X3537868Y-30757583D01*
X3531329Y-30773370D01*
X3529194Y-30795040D01*
X3528520Y-30797955D01*
X3528763Y-30799417D01*
X3528447Y-30802634D01*
X3250669Y-30802634D01*
X3250669Y-29052634D01*
X3528447Y-29052634D01*
X3528447Y-29719301D01*
X3531329Y-29748565D01*
X3553727Y-29802637D01*
X3595111Y-29844021D01*
X3649183Y-29866419D01*
X3678447Y-29869301D01*
X6178447Y-29869301D01*
X6207711Y-29866419D01*
X6261783Y-29844021D01*
X6303167Y-29802637D01*
X6325565Y-29748565D01*
X6325565Y-29690037D01*
X6303167Y-29635965D01*
X6261783Y-29594581D01*
X6207711Y-29572183D01*
X6178447Y-29569301D01*
X5137971Y-29569301D01*
X5137971Y-29396173D01*
X6244449Y-28854000D01*
X6269460Y-28838535D01*
X6308160Y-28794629D01*
X6327113Y-28739257D01*
X6323434Y-28680846D01*
X6297681Y-28628288D01*
X6253775Y-28589588D01*
X6198403Y-28570635D01*
X6139991Y-28574314D01*
X6112444Y-28584603D01*
X5137971Y-29062094D01*
X5137971Y-29052634D01*
X5137654Y-29049417D01*
X5137898Y-29047955D01*
X5137223Y-29045040D01*
X5135089Y-29023370D01*
X5128549Y-29007583D01*
X5124695Y-28990936D01*
X5113835Y-28972060D01*
X5112691Y-28969298D01*
X5111643Y-28968250D01*
X5110031Y-28965448D01*
X4990983Y-28798782D01*
X4979293Y-28785411D01*
X4977264Y-28782227D01*
X4974246Y-28779639D01*
X4971628Y-28776644D01*
X4968420Y-28774642D01*
X4954943Y-28763084D01*
X4835896Y-28679750D01*
X4828491Y-28675583D01*
X4826097Y-28673443D01*
X4818024Y-28669693D01*
X4810269Y-28665329D01*
X4807133Y-28664634D01*
X4799428Y-28661055D01*
X4561332Y-28577722D01*
X4544587Y-28573650D01*
X4541044Y-28572183D01*
X4536852Y-28571770D01*
X4532759Y-28570775D01*
X4528928Y-28570989D01*
X4511780Y-28569301D01*
X4154638Y-28569301D01*
X4137489Y-28570989D01*
X4133659Y-28570775D01*
X4129565Y-28571770D01*
X4125374Y-28572183D01*
X4121830Y-28573650D01*
X4105086Y-28577722D01*
X3866990Y-28661055D01*
X3859284Y-28664634D01*
X3856149Y-28665329D01*
X3848393Y-28669693D01*
X3840321Y-28673443D01*
X3837926Y-28675583D01*
X3830522Y-28679750D01*
X3711475Y-28763084D01*
X3697997Y-28774642D01*
X3694790Y-28776644D01*
X3692171Y-28779639D01*
X3689154Y-28782227D01*
X3687124Y-28785411D01*
X3675435Y-28798782D01*
X3556387Y-28965448D01*
X3554774Y-28968250D01*
X3553727Y-28969298D01*
X3552582Y-28972060D01*
X3541723Y-28990936D01*
X3537868Y-29007583D01*
X3531329Y-29023370D01*
X3529194Y-29045040D01*
X3528520Y-29047955D01*
X3528763Y-29049417D01*
X3528447Y-29052634D01*
X3250669Y-29052634D01*
X3250669Y-27135968D01*
X3528447Y-27135968D01*
X3528447Y-27969301D01*
X3531329Y-27998565D01*
X3553727Y-28052637D01*
X3595111Y-28094021D01*
X3649183Y-28116419D01*
X3678447Y-28119301D01*
X6178447Y-28119301D01*
X6207711Y-28116419D01*
X6261783Y-28094021D01*
X6303167Y-28052637D01*
X6325565Y-27998565D01*
X6328447Y-27969301D01*
X6328447Y-27135968D01*
X6325565Y-27106704D01*
X6303167Y-27052632D01*
X6261783Y-27011248D01*
X6207711Y-26988850D01*
X6149183Y-26988850D01*
X6095111Y-27011248D01*
X6053727Y-27052632D01*
X6031329Y-27106704D01*
X6028447Y-27135968D01*
X6028447Y-27819301D01*
X5018923Y-27819301D01*
X5018923Y-27385968D01*
X5016041Y-27356704D01*
X4993643Y-27302632D01*
X4952259Y-27261248D01*
X4898187Y-27238850D01*
X4839659Y-27238850D01*
X4785587Y-27261248D01*
X4744203Y-27302632D01*
X4721805Y-27356704D01*
X4718923Y-27385968D01*
X4718923Y-27819301D01*
X3828447Y-27819301D01*
X3828447Y-27135968D01*
X3825565Y-27106704D01*
X3803167Y-27052632D01*
X3761783Y-27011248D01*
X3707711Y-26988850D01*
X3649183Y-26988850D01*
X3595111Y-27011248D01*
X3553727Y-27052632D01*
X3531329Y-27106704D01*
X3528447Y-27135968D01*
X3250669Y-27135968D01*
X3250669Y-25719301D01*
X3528447Y-25719301D01*
X3528447Y-26135968D01*
X3528763Y-26139184D01*
X3528520Y-26140647D01*
X3529194Y-26143561D01*
X3531329Y-26165232D01*
X3537868Y-26181018D01*
X3541723Y-26197666D01*
X3552582Y-26216541D01*
X3553727Y-26219304D01*
X3554774Y-26220351D01*
X3556387Y-26223154D01*
X3675435Y-26389821D01*
X3687122Y-26403188D01*
X3689154Y-26406377D01*
X3692174Y-26408967D01*
X3694790Y-26411959D01*
X3697994Y-26413958D01*
X3711476Y-26425520D01*
X3830522Y-26508852D01*
X3837926Y-26513018D01*
X3840321Y-26515159D01*
X3848393Y-26518908D01*
X3856149Y-26523273D01*
X3859284Y-26523967D01*
X3866990Y-26527547D01*
X4105086Y-26610880D01*
X4121830Y-26614951D01*
X4125374Y-26616419D01*
X4129565Y-26616831D01*
X4133659Y-26617827D01*
X4137489Y-26617612D01*
X4154638Y-26619301D01*
X4392733Y-26619301D01*
X4409881Y-26617612D01*
X4413712Y-26617827D01*
X4417805Y-26616831D01*
X4421997Y-26616419D01*
X4425540Y-26614951D01*
X4442285Y-26610880D01*
X4680380Y-26527547D01*
X4688082Y-26523969D01*
X4691220Y-26523274D01*
X4698981Y-26518906D01*
X4707049Y-26515159D01*
X4709442Y-26513019D01*
X4716847Y-26508853D01*
X4835895Y-26425520D01*
X4849376Y-26413958D01*
X4852582Y-26411958D01*
X4855199Y-26408964D01*
X4858216Y-26406377D01*
X4860245Y-26403191D01*
X4871936Y-26389820D01*
X4990983Y-26223153D01*
X4995410Y-26215457D01*
X4997628Y-26213008D01*
X5001329Y-26205168D01*
X5005647Y-26197665D01*
X5006391Y-26194450D01*
X5010184Y-26186419D01*
X5122192Y-25872794D01*
X5214121Y-25744094D01*
X5295139Y-25687381D01*
X5489654Y-25619301D01*
X5676764Y-25619301D01*
X5871275Y-25687379D01*
X5952298Y-25744095D01*
X6028447Y-25850703D01*
X6028447Y-26185411D01*
X5923971Y-26404811D01*
X5913991Y-26432472D01*
X5910966Y-26490921D01*
X5930538Y-26546077D01*
X5969728Y-26589547D01*
X6022571Y-26614710D01*
X6081020Y-26617735D01*
X6136176Y-26598163D01*
X6179646Y-26558973D01*
X6194829Y-26533791D01*
X6313876Y-26283791D01*
X6323855Y-26256131D01*
X6324058Y-26252202D01*
X6325565Y-26248565D01*
X6328447Y-26219301D01*
X6328447Y-25802635D01*
X6328130Y-25799419D01*
X6328374Y-25797957D01*
X6327699Y-25795043D01*
X6325565Y-25773371D01*
X6319025Y-25757583D01*
X6315171Y-25740938D01*
X6304312Y-25722064D01*
X6303167Y-25719299D01*
X6302117Y-25718249D01*
X6300507Y-25715450D01*
X6181460Y-25548783D01*
X6169769Y-25535411D01*
X6167740Y-25532226D01*
X6164723Y-25529638D01*
X6162106Y-25526645D01*
X6158900Y-25524644D01*
X6145419Y-25513083D01*
X6026371Y-25429750D01*
X6018969Y-25425584D01*
X6016574Y-25423444D01*
X6008500Y-25419693D01*
X6000744Y-25415329D01*
X5997608Y-25414634D01*
X5989905Y-25411056D01*
X5751810Y-25327722D01*
X5735063Y-25323650D01*
X5731521Y-25322183D01*
X5727330Y-25321770D01*
X5723237Y-25320775D01*
X5719406Y-25320989D01*
X5702257Y-25319301D01*
X5464161Y-25319301D01*
X5447011Y-25320989D01*
X5443181Y-25320775D01*
X5439088Y-25321770D01*
X5434897Y-25322183D01*
X5431352Y-25323651D01*
X5414608Y-25327723D01*
X5176513Y-25411056D01*
X5168806Y-25414635D01*
X5165673Y-25415330D01*
X5157922Y-25419691D01*
X5149844Y-25423444D01*
X5147447Y-25425585D01*
X5140046Y-25429751D01*
X5021000Y-25513083D01*
X5007518Y-25524644D01*
X5004314Y-25526644D01*
X5001698Y-25529635D01*
X4998678Y-25532226D01*
X4996646Y-25535414D01*
X4984959Y-25548782D01*
X4865911Y-25715449D01*
X4861481Y-25723147D01*
X4859267Y-25725594D01*
X4855568Y-25733425D01*
X4851247Y-25740937D01*
X4850502Y-25744154D01*
X4846710Y-25752184D01*
X4734699Y-26065811D01*
X4642774Y-26194507D01*
X4561753Y-26251221D01*
X4367241Y-26319301D01*
X4180130Y-26319301D01*
X3985616Y-26251221D01*
X3904597Y-26194508D01*
X3828447Y-26087897D01*
X3828447Y-25753191D01*
X3932924Y-25533791D01*
X3942904Y-25506131D01*
X3945929Y-25447682D01*
X3926357Y-25392525D01*
X3887167Y-25349056D01*
X3834325Y-25323892D01*
X3775876Y-25320867D01*
X3720719Y-25340439D01*
X3677250Y-25379628D01*
X3662066Y-25404811D01*
X3543018Y-25654811D01*
X3533038Y-25682471D01*
X3532834Y-25686402D01*
X3531329Y-25690037D01*
X3528447Y-25719301D01*
X3250669Y-25719301D01*
X3250669Y-23885968D01*
X3528447Y-23885968D01*
X3528447Y-24719301D01*
X3531329Y-24748565D01*
X3553727Y-24802637D01*
X3595111Y-24844021D01*
X3649183Y-24866419D01*
X3678447Y-24869301D01*
X6178447Y-24869301D01*
X6207711Y-24866419D01*
X6261783Y-24844021D01*
X6303167Y-24802637D01*
X6325565Y-24748565D01*
X6328447Y-24719301D01*
X6328447Y-23885968D01*
X6325565Y-23856704D01*
X6303167Y-23802632D01*
X6261783Y-23761248D01*
X6207711Y-23738850D01*
X6149183Y-23738850D01*
X6095111Y-23761248D01*
X6053727Y-23802632D01*
X6031329Y-23856704D01*
X6028447Y-23885968D01*
X6028447Y-24569301D01*
X5018923Y-24569301D01*
X5018923Y-24135968D01*
X5016041Y-24106704D01*
X4993643Y-24052632D01*
X4952259Y-24011248D01*
X4898187Y-23988850D01*
X4839659Y-23988850D01*
X4785587Y-24011248D01*
X4744203Y-24052632D01*
X4721805Y-24106704D01*
X4718923Y-24135968D01*
X4718923Y-24569301D01*
X3828447Y-24569301D01*
X3828447Y-23885968D01*
X3825565Y-23856704D01*
X3803167Y-23802632D01*
X3761783Y-23761248D01*
X3707711Y-23738850D01*
X3649183Y-23738850D01*
X3595111Y-23761248D01*
X3553727Y-23802632D01*
X3531329Y-23856704D01*
X3528447Y-23885968D01*
X3250669Y-23885968D01*
X3250669Y-23163435D01*
X3530983Y-23163435D01*
X3531329Y-23164299D01*
X3531329Y-23165232D01*
X3542187Y-23191445D01*
X3552720Y-23217777D01*
X3553370Y-23218443D01*
X3553727Y-23219304D01*
X3573807Y-23239384D01*
X3593598Y-23259663D01*
X3594452Y-23260029D01*
X3595111Y-23260688D01*
X3621329Y-23271548D01*
X3647391Y-23282718D01*
X3648322Y-23282729D01*
X3649183Y-23283086D01*
X3678447Y-23285968D01*
X6178447Y-23285968D01*
X6207711Y-23283086D01*
X6261783Y-23260688D01*
X6303167Y-23219304D01*
X6325565Y-23165232D01*
X6325565Y-23106704D01*
X6303167Y-23052632D01*
X6261783Y-23011248D01*
X6207711Y-22988850D01*
X6178447Y-22985968D01*
X4457336Y-22985968D01*
X6234155Y-22275240D01*
X6260256Y-22261695D01*
X6260922Y-22261044D01*
X6261783Y-22260688D01*
X6281842Y-22240628D01*
X6302142Y-22220818D01*
X6302508Y-22219962D01*
X6303167Y-22219304D01*
X6314036Y-22193064D01*
X6325196Y-22167024D01*
X6325207Y-22166095D01*
X6325565Y-22165232D01*
X6325565Y-22136821D01*
X6325911Y-22108501D01*
X6325565Y-22107636D01*
X6325565Y-22106704D01*
X6314706Y-22080490D01*
X6304174Y-22054159D01*
X6303523Y-22053492D01*
X6303167Y-22052632D01*
X6283086Y-22032551D01*
X6263296Y-22012273D01*
X6262441Y-22011906D01*
X6261783Y-22011248D01*
X6235549Y-22000381D01*
X6209502Y-21989218D01*
X6208572Y-21989206D01*
X6207711Y-21988850D01*
X6178447Y-21985968D01*
X3678447Y-21985968D01*
X3649183Y-21988850D01*
X3595111Y-22011248D01*
X3553727Y-22052632D01*
X3531329Y-22106704D01*
X3531329Y-22165232D01*
X3553727Y-22219304D01*
X3595111Y-22260688D01*
X3649183Y-22283086D01*
X3678447Y-22285968D01*
X5399560Y-22285968D01*
X3622738Y-22996696D01*
X3596638Y-23010241D01*
X3595971Y-23010891D01*
X3595111Y-23011248D01*
X3575030Y-23031328D01*
X3554752Y-23051119D01*
X3554385Y-23051973D01*
X3553727Y-23052632D01*
X3542866Y-23078850D01*
X3531697Y-23104912D01*
X3531685Y-23105843D01*
X3531329Y-23106704D01*
X3531329Y-23135075D01*
X3530983Y-23163435D01*
X3250669Y-23163435D01*
X3250669Y-20552635D01*
X3528447Y-20552635D01*
X3528447Y-21552635D01*
X3531329Y-21581899D01*
X3553727Y-21635971D01*
X3595111Y-21677355D01*
X3649183Y-21699753D01*
X3707711Y-21699753D01*
X3761783Y-21677355D01*
X3803167Y-21635971D01*
X3825565Y-21581899D01*
X3828447Y-21552635D01*
X3828447Y-21202635D01*
X6178447Y-21202635D01*
X6207711Y-21199753D01*
X6261783Y-21177355D01*
X6303167Y-21135971D01*
X6325565Y-21081899D01*
X6325565Y-21023371D01*
X6303167Y-20969299D01*
X6261783Y-20927915D01*
X6207711Y-20905517D01*
X6178447Y-20902635D01*
X3828447Y-20902635D01*
X3828447Y-20552635D01*
X3825565Y-20523371D01*
X3803167Y-20469299D01*
X3761783Y-20427915D01*
X3707711Y-20405517D01*
X3649183Y-20405517D01*
X3595111Y-20427915D01*
X3553727Y-20469299D01*
X3531329Y-20523371D01*
X3528447Y-20552635D01*
X3250669Y-20552635D01*
X3250669Y-20127739D01*
X6606225Y-20127739D01*
X6606225Y-74813743D01*
G37*
X2837542Y-20516917D02*
X1637542Y-20516917D01*
X1637542Y-20516917D02*
X1637542Y-20231203D01*
X1637542Y-20231203D02*
X1694685Y-20059774D01*
X1694685Y-20059774D02*
X1808971Y-19945489D01*
X1808971Y-19945489D02*
X1923257Y-19888346D01*
X1923257Y-19888346D02*
X2151828Y-19831203D01*
X2151828Y-19831203D02*
X2323257Y-19831203D01*
X2323257Y-19831203D02*
X2551828Y-19888346D01*
X2551828Y-19888346D02*
X2666114Y-19945489D01*
X2666114Y-19945489D02*
X2780400Y-20059774D01*
X2780400Y-20059774D02*
X2837542Y-20231203D01*
X2837542Y-20231203D02*
X2837542Y-20516917D01*
X2723257Y-18631203D02*
X2780400Y-18688346D01*
X2780400Y-18688346D02*
X2837542Y-18859774D01*
X2837542Y-18859774D02*
X2837542Y-18974060D01*
X2837542Y-18974060D02*
X2780400Y-19145489D01*
X2780400Y-19145489D02*
X2666114Y-19259774D01*
X2666114Y-19259774D02*
X2551828Y-19316917D01*
X2551828Y-19316917D02*
X2323257Y-19374060D01*
X2323257Y-19374060D02*
X2151828Y-19374060D01*
X2151828Y-19374060D02*
X1923257Y-19316917D01*
X1923257Y-19316917D02*
X1808971Y-19259774D01*
X1808971Y-19259774D02*
X1694685Y-19145489D01*
X1694685Y-19145489D02*
X1637542Y-18974060D01*
X1637542Y-18974060D02*
X1637542Y-18859774D01*
X1637542Y-18859774D02*
X1694685Y-18688346D01*
X1694685Y-18688346D02*
X1751828Y-18631203D01*
X2837542Y-17545489D02*
X2837542Y-18116917D01*
X2837542Y-18116917D02*
X1637542Y-18116917D01*
X2208971Y-16745488D02*
X2266114Y-16574060D01*
X2266114Y-16574060D02*
X2323257Y-16516917D01*
X2323257Y-16516917D02*
X2437542Y-16459774D01*
X2437542Y-16459774D02*
X2608971Y-16459774D01*
X2608971Y-16459774D02*
X2723257Y-16516917D01*
X2723257Y-16516917D02*
X2780400Y-16574060D01*
X2780400Y-16574060D02*
X2837542Y-16688345D01*
X2837542Y-16688345D02*
X2837542Y-17145488D01*
X2837542Y-17145488D02*
X1637542Y-17145488D01*
X1637542Y-17145488D02*
X1637542Y-16745488D01*
X1637542Y-16745488D02*
X1694685Y-16631203D01*
X1694685Y-16631203D02*
X1751828Y-16574060D01*
X1751828Y-16574060D02*
X1866114Y-16516917D01*
X1866114Y-16516917D02*
X1980400Y-16516917D01*
X1980400Y-16516917D02*
X2094685Y-16574060D01*
X2094685Y-16574060D02*
X2151828Y-16631203D01*
X2151828Y-16631203D02*
X2208971Y-16745488D01*
X2208971Y-16745488D02*
X2208971Y-17145488D01*
X2380400Y-15945488D02*
X2380400Y-15031203D01*
X2837542Y-15488345D02*
X1923257Y-15488345D01*
X2780400Y-14402631D02*
X2837542Y-14402631D01*
X2837542Y-14402631D02*
X2951828Y-14459774D01*
X2951828Y-14459774D02*
X3008971Y-14516917D01*
X2837542Y-12974059D02*
X1637542Y-12974059D01*
X1637542Y-12974059D02*
X2837542Y-12288345D01*
X2837542Y-12288345D02*
X1637542Y-12288345D01*
X2723257Y-11031202D02*
X2780400Y-11088345D01*
X2780400Y-11088345D02*
X2837542Y-11259773D01*
X2837542Y-11259773D02*
X2837542Y-11374059D01*
X2837542Y-11374059D02*
X2780400Y-11545488D01*
X2780400Y-11545488D02*
X2666114Y-11659773D01*
X2666114Y-11659773D02*
X2551828Y-11716916D01*
X2551828Y-11716916D02*
X2323257Y-11774059D01*
X2323257Y-11774059D02*
X2151828Y-11774059D01*
X2151828Y-11774059D02*
X1923257Y-11716916D01*
X1923257Y-11716916D02*
X1808971Y-11659773D01*
X1808971Y-11659773D02*
X1694685Y-11545488D01*
X1694685Y-11545488D02*
X1637542Y-11374059D01*
X1637542Y-11374059D02*
X1637542Y-11259773D01*
X1637542Y-11259773D02*
X1694685Y-11088345D01*
X1694685Y-11088345D02*
X1751828Y-11031202D01*
X2780400Y-10459773D02*
X2837542Y-10459773D01*
X2837542Y-10459773D02*
X2951828Y-10516916D01*
X2951828Y-10516916D02*
X3008971Y-10574059D01*
X2837542Y-9031201D02*
X1637542Y-9031201D01*
X1637542Y-9031201D02*
X1637542Y-8574058D01*
X1637542Y-8574058D02*
X1694685Y-8459773D01*
X1694685Y-8459773D02*
X1751828Y-8402630D01*
X1751828Y-8402630D02*
X1866114Y-8345487D01*
X1866114Y-8345487D02*
X2037542Y-8345487D01*
X2037542Y-8345487D02*
X2151828Y-8402630D01*
X2151828Y-8402630D02*
X2208971Y-8459773D01*
X2208971Y-8459773D02*
X2266114Y-8574058D01*
X2266114Y-8574058D02*
X2266114Y-9031201D01*
X2837542Y-7831201D02*
X1637542Y-7831201D01*
X2208971Y-7831201D02*
X2208971Y-7145487D01*
X2837542Y-7145487D02*
X1637542Y-7145487D01*
X2780400Y-6516915D02*
X2837542Y-6516915D01*
X2837542Y-6516915D02*
X2951828Y-6574058D01*
X2951828Y-6574058D02*
X3008971Y-6631201D01*
X2837542Y-5088343D02*
X1637542Y-5088343D01*
X1637542Y-5088343D02*
X1637542Y-4802629D01*
X1637542Y-4802629D02*
X1694685Y-4631200D01*
X1694685Y-4631200D02*
X1808971Y-4516915D01*
X1808971Y-4516915D02*
X1923257Y-4459772D01*
X1923257Y-4459772D02*
X2151828Y-4402629D01*
X2151828Y-4402629D02*
X2323257Y-4402629D01*
X2323257Y-4402629D02*
X2551828Y-4459772D01*
X2551828Y-4459772D02*
X2666114Y-4516915D01*
X2666114Y-4516915D02*
X2780400Y-4631200D01*
X2780400Y-4631200D02*
X2837542Y-4802629D01*
X2837542Y-4802629D02*
X2837542Y-5088343D01*
X2723257Y-3202629D02*
X2780400Y-3259772D01*
X2780400Y-3259772D02*
X2837542Y-3431200D01*
X2837542Y-3431200D02*
X2837542Y-3545486D01*
X2837542Y-3545486D02*
X2780400Y-3716915D01*
X2780400Y-3716915D02*
X2666114Y-3831200D01*
X2666114Y-3831200D02*
X2551828Y-3888343D01*
X2551828Y-3888343D02*
X2323257Y-3945486D01*
X2323257Y-3945486D02*
X2151828Y-3945486D01*
X2151828Y-3945486D02*
X1923257Y-3888343D01*
X1923257Y-3888343D02*
X1808971Y-3831200D01*
X1808971Y-3831200D02*
X1694685Y-3716915D01*
X1694685Y-3716915D02*
X1637542Y-3545486D01*
X1637542Y-3545486D02*
X1637542Y-3431200D01*
X1637542Y-3431200D02*
X1694685Y-3259772D01*
X1694685Y-3259772D02*
X1751828Y-3202629D01*
X2837542Y-2116915D02*
X2837542Y-2688343D01*
X2837542Y-2688343D02*
X1637542Y-2688343D01*
X2208971Y-1316914D02*
X2266114Y-1145486D01*
X2266114Y-1145486D02*
X2323257Y-1088343D01*
X2323257Y-1088343D02*
X2437542Y-1031200D01*
X2437542Y-1031200D02*
X2608971Y-1031200D01*
X2608971Y-1031200D02*
X2723257Y-1088343D01*
X2723257Y-1088343D02*
X2780400Y-1145486D01*
X2780400Y-1145486D02*
X2837542Y-1259771D01*
X2837542Y-1259771D02*
X2837542Y-1716914D01*
X2837542Y-1716914D02*
X1637542Y-1716914D01*
X1637542Y-1716914D02*
X1637542Y-1316914D01*
X1637542Y-1316914D02*
X1694685Y-1202629D01*
X1694685Y-1202629D02*
X1751828Y-1145486D01*
X1751828Y-1145486D02*
X1866114Y-1088343D01*
X1866114Y-1088343D02*
X1980400Y-1088343D01*
X1980400Y-1088343D02*
X2094685Y-1145486D01*
X2094685Y-1145486D02*
X2151828Y-1202629D01*
X2151828Y-1202629D02*
X2208971Y-1316914D01*
X2208971Y-1316914D02*
X2208971Y-1716914D01*
X2380400Y-516914D02*
X2380400Y397371D01*
X33673558Y-8909638D02*
X33673558Y-6909638D01*
X33673558Y-6909638D02*
X34435463Y-6909638D01*
X34435463Y-6909638D02*
X34625939Y-7004876D01*
X34625939Y-7004876D02*
X34721177Y-7100114D01*
X34721177Y-7100114D02*
X34816415Y-7290590D01*
X34816415Y-7290590D02*
X34816415Y-7576304D01*
X34816415Y-7576304D02*
X34721177Y-7766780D01*
X34721177Y-7766780D02*
X34625939Y-7862019D01*
X34625939Y-7862019D02*
X34435463Y-7957257D01*
X34435463Y-7957257D02*
X33673558Y-7957257D01*
X35673558Y-8909638D02*
X35673558Y-6909638D01*
X35673558Y-7862019D02*
X36816415Y-7862019D01*
X36816415Y-8909638D02*
X36816415Y-6909638D01*
X37673558Y-8338209D02*
X38625939Y-8338209D01*
X37483082Y-8909638D02*
X38149748Y-6909638D01*
X38149748Y-6909638D02*
X38816415Y-8909638D01*
X39387844Y-8814400D02*
X39673558Y-8909638D01*
X39673558Y-8909638D02*
X40149749Y-8909638D01*
X40149749Y-8909638D02*
X40340225Y-8814400D01*
X40340225Y-8814400D02*
X40435463Y-8719161D01*
X40435463Y-8719161D02*
X40530701Y-8528685D01*
X40530701Y-8528685D02*
X40530701Y-8338209D01*
X40530701Y-8338209D02*
X40435463Y-8147733D01*
X40435463Y-8147733D02*
X40340225Y-8052495D01*
X40340225Y-8052495D02*
X40149749Y-7957257D01*
X40149749Y-7957257D02*
X39768796Y-7862019D01*
X39768796Y-7862019D02*
X39578320Y-7766780D01*
X39578320Y-7766780D02*
X39483082Y-7671542D01*
X39483082Y-7671542D02*
X39387844Y-7481066D01*
X39387844Y-7481066D02*
X39387844Y-7290590D01*
X39387844Y-7290590D02*
X39483082Y-7100114D01*
X39483082Y-7100114D02*
X39578320Y-7004876D01*
X39578320Y-7004876D02*
X39768796Y-6909638D01*
X39768796Y-6909638D02*
X40244987Y-6909638D01*
X40244987Y-6909638D02*
X40530701Y-7004876D01*
X41387844Y-7862019D02*
X42054511Y-7862019D01*
X42340225Y-8909638D02*
X41387844Y-8909638D01*
X41387844Y-8909638D02*
X41387844Y-6909638D01*
X41387844Y-6909638D02*
X42340225Y-6909638D01*
G36*
X10180498Y-12415917D02*
G01*
X10312621Y-12604664D01*
X10385063Y-12811640D01*
X10464034Y-13262904D01*
X10464034Y-13593990D01*
X10385063Y-14045253D01*
X10312621Y-14252229D01*
X10180499Y-14440976D01*
X9996810Y-14528447D01*
X9764034Y-14528447D01*
X9764034Y-12328447D01*
X9996810Y-12328447D01*
X10180498Y-12415917D01*
G37*
G36*
X30922572Y-12404597D02*
G01*
X31055357Y-12594291D01*
X31130699Y-13024802D01*
X31130699Y-13832091D01*
X31055357Y-14262602D01*
X30922571Y-14452298D01*
X30815963Y-14528447D01*
X30578768Y-14528447D01*
X30472159Y-14452298D01*
X30339372Y-14262602D01*
X30264032Y-13832085D01*
X30264032Y-13024808D01*
X30339371Y-12594292D01*
X30472159Y-12404596D01*
X30578769Y-12328447D01*
X30815962Y-12328447D01*
X30922572Y-12404597D01*
G37*
G36*
X11925005Y-13814161D02*
G01*
X11469730Y-13814161D01*
X11697367Y-12838570D01*
X11925005Y-13814161D01*
G37*
G36*
X35341669Y-13814161D02*
G01*
X34886394Y-13814161D01*
X35114031Y-12838570D01*
X35341669Y-13814161D01*
G37*
G36*
X18755907Y-12404597D02*
G01*
X18812620Y-12485616D01*
X18880700Y-12680129D01*
X18880700Y-12986288D01*
X18812620Y-13180801D01*
X18755907Y-13261820D01*
X18649297Y-13337971D01*
X18180700Y-13337971D01*
X18180700Y-12328447D01*
X18649297Y-12328447D01*
X18755907Y-12404597D01*
G37*
G36*
X39288928Y-15106225D02*
G01*
X9186256Y-15106225D01*
X9186256Y-12178447D01*
X9464034Y-12178447D01*
X9464034Y-14678447D01*
X9466916Y-14707711D01*
X9489314Y-14761783D01*
X9530698Y-14803167D01*
X9584770Y-14825565D01*
X9614034Y-14828447D01*
X10030701Y-14828447D01*
X10059965Y-14825565D01*
X10063599Y-14824059D01*
X10067530Y-14823856D01*
X10095191Y-14813876D01*
X10345190Y-14694829D01*
X10370373Y-14679646D01*
X10375899Y-14673516D01*
X10964115Y-14673516D01*
X10973640Y-14731263D01*
X11004538Y-14780968D01*
X11052106Y-14815067D01*
X11109103Y-14828366D01*
X11166850Y-14818841D01*
X11216555Y-14787943D01*
X11250654Y-14740375D01*
X11260110Y-14712531D01*
X11399730Y-14114161D01*
X11995005Y-14114161D01*
X12134625Y-14712532D01*
X12144081Y-14740375D01*
X12178180Y-14787944D01*
X12227885Y-14818841D01*
X12285632Y-14828367D01*
X12342629Y-14815067D01*
X12390197Y-14780969D01*
X12421095Y-14731263D01*
X12430620Y-14673516D01*
X12426777Y-14644363D01*
X11851397Y-12178447D01*
X12714034Y-12178447D01*
X12714034Y-14678447D01*
X12716916Y-14707711D01*
X12739314Y-14761783D01*
X12780698Y-14803167D01*
X12834770Y-14825565D01*
X12893298Y-14825565D01*
X12947370Y-14803167D01*
X12988754Y-14761783D01*
X13011152Y-14707711D01*
X13014034Y-14678447D01*
X13014034Y-12957335D01*
X13724762Y-14734155D01*
X13738307Y-14760256D01*
X13738957Y-14760922D01*
X13739314Y-14761783D01*
X13759373Y-14781842D01*
X13779184Y-14802142D01*
X13780039Y-14802508D01*
X13780698Y-14803167D01*
X13806937Y-14814036D01*
X13832978Y-14825196D01*
X13833906Y-14825207D01*
X13834770Y-14825565D01*
X13863181Y-14825565D01*
X13891501Y-14825911D01*
X13892366Y-14825565D01*
X13893298Y-14825565D01*
X13919511Y-14814706D01*
X13945843Y-14804174D01*
X13946509Y-14803523D01*
X13947370Y-14803167D01*
X13967450Y-14783086D01*
X13987729Y-14763296D01*
X13988095Y-14762441D01*
X13988754Y-14761783D01*
X13999620Y-14735549D01*
X14010784Y-14709502D01*
X14010795Y-14708572D01*
X14011152Y-14707711D01*
X14014034Y-14678447D01*
X14014034Y-13249876D01*
X14464034Y-13249876D01*
X14464034Y-13607019D01*
X14465305Y-13619929D01*
X14466279Y-13632876D01*
X14549612Y-14109066D01*
X14552893Y-14120858D01*
X14555788Y-14132762D01*
X14639122Y-14370857D01*
X14642700Y-14378560D01*
X14643395Y-14381696D01*
X14647759Y-14389452D01*
X14651510Y-14397526D01*
X14653650Y-14399921D01*
X14657816Y-14407323D01*
X14824482Y-14645419D01*
X14843625Y-14667741D01*
X14851468Y-14672739D01*
X14857695Y-14679646D01*
X14882877Y-14694829D01*
X15132877Y-14813876D01*
X15160537Y-14823855D01*
X15164465Y-14824058D01*
X15168103Y-14825565D01*
X15197367Y-14828447D01*
X15364034Y-14828447D01*
X15393298Y-14825565D01*
X15396932Y-14824059D01*
X15400863Y-14823856D01*
X15428524Y-14813876D01*
X15678523Y-14694829D01*
X15703706Y-14679646D01*
X15709934Y-14672737D01*
X15717776Y-14667740D01*
X15736919Y-14645419D01*
X15820252Y-14526371D01*
X15821343Y-14524431D01*
X15822087Y-14523688D01*
X15822994Y-14521498D01*
X15834673Y-14500744D01*
X15838216Y-14484749D01*
X15844485Y-14469616D01*
X15846818Y-14445918D01*
X15847332Y-14443602D01*
X15847149Y-14442565D01*
X15847367Y-14440352D01*
X15847367Y-13607019D01*
X15844485Y-13577755D01*
X15822087Y-13523683D01*
X15780703Y-13482299D01*
X15726631Y-13459901D01*
X15697367Y-13457019D01*
X15364034Y-13457019D01*
X15334770Y-13459901D01*
X15280698Y-13482299D01*
X15239314Y-13523683D01*
X15216916Y-13577755D01*
X15216916Y-13636283D01*
X15239314Y-13690355D01*
X15280698Y-13731739D01*
X15334770Y-13754137D01*
X15364034Y-13757019D01*
X15547367Y-13757019D01*
X15547367Y-14393068D01*
X15513831Y-14440976D01*
X15330143Y-14528447D01*
X15231257Y-14528447D01*
X15047569Y-14440976D01*
X14915445Y-14252227D01*
X14843004Y-14045251D01*
X14764034Y-13593990D01*
X14764034Y-13262904D01*
X14843004Y-12811642D01*
X14915445Y-12604666D01*
X15047569Y-12415918D01*
X15231258Y-12328447D01*
X15399297Y-12328447D01*
X15526848Y-12419555D01*
X15552337Y-12434219D01*
X15609355Y-12447422D01*
X15667085Y-12437800D01*
X15716740Y-12406819D01*
X15750758Y-12359193D01*
X15763961Y-12302174D01*
X15754340Y-12244444D01*
X15723358Y-12194790D01*
X15704665Y-12178447D01*
X16297367Y-12178447D01*
X16297367Y-14678447D01*
X16300249Y-14707711D01*
X16322647Y-14761783D01*
X16364031Y-14803167D01*
X16418103Y-14825565D01*
X16447367Y-14828447D01*
X17280701Y-14828447D01*
X17309965Y-14825565D01*
X17364037Y-14803167D01*
X17405421Y-14761783D01*
X17427819Y-14707711D01*
X17427819Y-14649183D01*
X17405421Y-14595111D01*
X17364037Y-14553727D01*
X17309965Y-14531329D01*
X17280701Y-14528447D01*
X16597367Y-14528447D01*
X16597367Y-13518923D01*
X17030701Y-13518923D01*
X17059965Y-13516041D01*
X17114037Y-13493643D01*
X17155421Y-13452259D01*
X17177819Y-13398187D01*
X17177819Y-13339659D01*
X17155421Y-13285587D01*
X17114037Y-13244203D01*
X17059965Y-13221805D01*
X17030701Y-13218923D01*
X16597367Y-13218923D01*
X16597367Y-12328447D01*
X17280701Y-12328447D01*
X17309965Y-12325565D01*
X17364037Y-12303167D01*
X17405421Y-12261783D01*
X17427819Y-12207711D01*
X17427819Y-12178447D01*
X17880700Y-12178447D01*
X17880700Y-14678447D01*
X17883582Y-14707711D01*
X17905980Y-14761783D01*
X17947364Y-14803167D01*
X18001436Y-14825565D01*
X18059964Y-14825565D01*
X18114036Y-14803167D01*
X18155420Y-14761783D01*
X18177818Y-14707711D01*
X18180700Y-14678447D01*
X18180700Y-13637971D01*
X18353827Y-13637971D01*
X18896001Y-14744449D01*
X18911466Y-14769460D01*
X18955372Y-14808160D01*
X19010744Y-14827113D01*
X19069155Y-14823434D01*
X19121713Y-14797681D01*
X19160413Y-14753775D01*
X19179366Y-14698403D01*
X19175687Y-14639991D01*
X19165398Y-14612444D01*
X18687907Y-13637971D01*
X18697367Y-13637971D01*
X18700583Y-13637654D01*
X18702046Y-13637898D01*
X18704960Y-13637223D01*
X18726631Y-13635089D01*
X18742417Y-13628549D01*
X18759065Y-13624695D01*
X18777940Y-13613835D01*
X18780703Y-13612691D01*
X18781750Y-13611643D01*
X18784553Y-13610031D01*
X18951220Y-13490983D01*
X18964587Y-13479295D01*
X18967776Y-13477264D01*
X18970366Y-13474243D01*
X18973358Y-13471628D01*
X18975357Y-13468423D01*
X18986919Y-13454942D01*
X19070251Y-13335896D01*
X19074417Y-13328491D01*
X19076558Y-13326097D01*
X19080307Y-13318024D01*
X19084672Y-13310269D01*
X19085366Y-13307133D01*
X19088946Y-13299428D01*
X19172279Y-13061332D01*
X19176350Y-13044587D01*
X19177818Y-13041044D01*
X19178230Y-13036852D01*
X19179226Y-13032759D01*
X19179011Y-13028928D01*
X19180700Y-13011780D01*
X19180700Y-12654638D01*
X19179011Y-12637489D01*
X19179226Y-12633659D01*
X19178230Y-12629565D01*
X19177818Y-12625374D01*
X19176350Y-12621830D01*
X19172279Y-12605086D01*
X19088946Y-12366990D01*
X19085366Y-12359284D01*
X19084672Y-12356149D01*
X19080307Y-12348393D01*
X19076558Y-12340321D01*
X19074417Y-12337926D01*
X19070251Y-12330522D01*
X18986919Y-12211476D01*
X18975357Y-12197994D01*
X18973358Y-12194790D01*
X18970366Y-12192174D01*
X18967776Y-12189154D01*
X18964587Y-12187122D01*
X18954665Y-12178447D01*
X20964033Y-12178447D01*
X20964033Y-14678447D01*
X20966915Y-14707711D01*
X20989313Y-14761783D01*
X21030697Y-14803167D01*
X21084769Y-14825565D01*
X21143297Y-14825565D01*
X21197369Y-14803167D01*
X21238753Y-14761783D01*
X21261151Y-14707711D01*
X21264033Y-14678447D01*
X21264033Y-13518923D01*
X21964033Y-13518923D01*
X21964033Y-14678447D01*
X21966915Y-14707711D01*
X21989313Y-14761783D01*
X22030697Y-14803167D01*
X22084769Y-14825565D01*
X22143297Y-14825565D01*
X22197369Y-14803167D01*
X22238753Y-14761783D01*
X22261151Y-14707711D01*
X22264033Y-14678447D01*
X22264033Y-12178447D01*
X22797366Y-12178447D01*
X22797366Y-14678447D01*
X22800248Y-14707711D01*
X22822646Y-14761783D01*
X22864030Y-14803167D01*
X22918102Y-14825565D01*
X22976630Y-14825565D01*
X23030702Y-14803167D01*
X23072086Y-14761783D01*
X23094484Y-14707711D01*
X23097366Y-14678447D01*
X23097366Y-13249876D01*
X23547366Y-13249876D01*
X23547366Y-13607019D01*
X23548637Y-13619929D01*
X23549611Y-13632876D01*
X23632944Y-14109066D01*
X23636225Y-14120858D01*
X23639120Y-14132762D01*
X23722454Y-14370857D01*
X23726032Y-14378560D01*
X23726727Y-14381696D01*
X23731091Y-14389452D01*
X23734842Y-14397526D01*
X23736982Y-14399921D01*
X23741148Y-14407323D01*
X23907814Y-14645419D01*
X23926957Y-14667741D01*
X23934800Y-14672739D01*
X23941027Y-14679646D01*
X23966209Y-14694829D01*
X24216209Y-14813876D01*
X24243869Y-14823855D01*
X24247797Y-14824058D01*
X24251435Y-14825565D01*
X24280699Y-14828447D01*
X24447366Y-14828447D01*
X24476630Y-14825565D01*
X24480264Y-14824059D01*
X24484195Y-14823856D01*
X24511856Y-14813876D01*
X24761855Y-14694829D01*
X24787038Y-14679646D01*
X24793266Y-14672737D01*
X24801108Y-14667740D01*
X24820251Y-14645419D01*
X24903584Y-14526371D01*
X24904675Y-14524431D01*
X24905419Y-14523688D01*
X24906326Y-14521498D01*
X24918005Y-14500744D01*
X24921548Y-14484749D01*
X24927817Y-14469616D01*
X24930150Y-14445918D01*
X24930664Y-14443602D01*
X24930481Y-14442565D01*
X24930699Y-14440352D01*
X24930699Y-13607019D01*
X24927817Y-13577755D01*
X24905419Y-13523683D01*
X24864035Y-13482299D01*
X24809963Y-13459901D01*
X24780699Y-13457019D01*
X24447366Y-13457019D01*
X24418102Y-13459901D01*
X24364030Y-13482299D01*
X24322646Y-13523683D01*
X24300248Y-13577755D01*
X24300248Y-13636283D01*
X24322646Y-13690355D01*
X24364030Y-13731739D01*
X24418102Y-13754137D01*
X24447366Y-13757019D01*
X24630699Y-13757019D01*
X24630699Y-14393068D01*
X24597163Y-14440976D01*
X24413475Y-14528447D01*
X24314589Y-14528447D01*
X24130901Y-14440976D01*
X23998777Y-14252227D01*
X23926336Y-14045251D01*
X23847366Y-13593990D01*
X23847366Y-13262904D01*
X23926336Y-12811642D01*
X23998777Y-12604666D01*
X24130901Y-12415918D01*
X24314590Y-12328447D01*
X24482629Y-12328447D01*
X24610180Y-12419555D01*
X24635669Y-12434219D01*
X24692687Y-12447422D01*
X24750417Y-12437800D01*
X24800072Y-12406819D01*
X24834090Y-12359193D01*
X24847293Y-12302174D01*
X24837672Y-12244444D01*
X24806690Y-12194790D01*
X24787997Y-12178447D01*
X25380699Y-12178447D01*
X25380699Y-14678447D01*
X25383581Y-14707711D01*
X25405979Y-14761783D01*
X25447363Y-14803167D01*
X25501435Y-14825565D01*
X25559963Y-14825565D01*
X25614035Y-14803167D01*
X25655419Y-14761783D01*
X25677817Y-14707711D01*
X25680699Y-14678447D01*
X25680699Y-13518923D01*
X26380699Y-13518923D01*
X26380699Y-14678447D01*
X26383581Y-14707711D01*
X26405979Y-14761783D01*
X26447363Y-14803167D01*
X26501435Y-14825565D01*
X26559963Y-14825565D01*
X26614035Y-14803167D01*
X26655419Y-14761783D01*
X26677817Y-14707711D01*
X26680699Y-14678447D01*
X26680699Y-12183378D01*
X28297446Y-12183378D01*
X28301289Y-12212531D01*
X28884623Y-14712532D01*
X28889663Y-14727373D01*
X28890305Y-14731263D01*
X28891802Y-14733672D01*
X28894079Y-14740375D01*
X28908309Y-14760226D01*
X28921203Y-14780968D01*
X28925265Y-14783880D01*
X28928178Y-14787943D01*
X28948919Y-14800836D01*
X28968771Y-14815067D01*
X28973639Y-14816202D01*
X28977883Y-14818841D01*
X29001980Y-14822815D01*
X29025768Y-14828366D01*
X29030699Y-14827552D01*
X29035630Y-14828366D01*
X29059417Y-14822815D01*
X29083515Y-14818841D01*
X29087758Y-14816202D01*
X29092627Y-14815067D01*
X29112478Y-14800836D01*
X29133220Y-14787943D01*
X29136132Y-14783880D01*
X29140195Y-14780968D01*
X29153088Y-14760226D01*
X29167319Y-14740375D01*
X29169595Y-14733672D01*
X29171093Y-14731263D01*
X29171734Y-14727372D01*
X29176775Y-14712531D01*
X29573617Y-13011780D01*
X29964032Y-13011780D01*
X29964032Y-13845114D01*
X29965303Y-13858024D01*
X29966277Y-13870971D01*
X30049610Y-14347161D01*
X30057494Y-14375490D01*
X30059321Y-14378366D01*
X30060059Y-14381697D01*
X30074480Y-14407323D01*
X30241147Y-14645419D01*
X30252710Y-14658902D01*
X30254709Y-14662106D01*
X30257699Y-14664720D01*
X30260290Y-14667741D01*
X30263479Y-14669773D01*
X30276847Y-14681460D01*
X30443514Y-14800507D01*
X30446313Y-14802117D01*
X30447363Y-14803167D01*
X30450128Y-14804312D01*
X30469002Y-14815171D01*
X30485647Y-14819025D01*
X30501435Y-14825565D01*
X30523107Y-14827699D01*
X30526021Y-14828374D01*
X30527483Y-14828130D01*
X30530699Y-14828447D01*
X30864032Y-14828447D01*
X30867247Y-14828130D01*
X30868710Y-14828374D01*
X30871623Y-14827699D01*
X30893296Y-14825565D01*
X30909083Y-14819025D01*
X30925729Y-14815171D01*
X30944602Y-14804312D01*
X30947368Y-14803167D01*
X30948417Y-14802117D01*
X30951217Y-14800507D01*
X31117884Y-14681460D01*
X31131255Y-14669770D01*
X31134441Y-14667740D01*
X31137028Y-14664723D01*
X31140022Y-14662106D01*
X31142022Y-14658900D01*
X31153584Y-14645419D01*
X31320250Y-14407323D01*
X31334671Y-14381696D01*
X31335408Y-14378366D01*
X31337236Y-14375490D01*
X31345120Y-14347161D01*
X31428454Y-13870971D01*
X31429427Y-13858024D01*
X31430699Y-13845114D01*
X31430699Y-13011780D01*
X31429427Y-12998869D01*
X31428454Y-12985923D01*
X31345120Y-12509733D01*
X31337236Y-12481404D01*
X31335408Y-12478527D01*
X31334671Y-12475198D01*
X31320250Y-12449571D01*
X31153584Y-12211476D01*
X31142023Y-12197996D01*
X31140023Y-12194790D01*
X31137028Y-12192171D01*
X31134441Y-12189155D01*
X31131256Y-12187125D01*
X31121330Y-12178447D01*
X31880698Y-12178447D01*
X31880698Y-14678447D01*
X31883580Y-14707711D01*
X31905978Y-14761783D01*
X31947362Y-14803167D01*
X32001434Y-14825565D01*
X32030698Y-14828447D01*
X32864032Y-14828447D01*
X32893296Y-14825565D01*
X32947368Y-14803167D01*
X32988752Y-14761783D01*
X33011150Y-14707711D01*
X33011150Y-14649183D01*
X32988752Y-14595111D01*
X32947368Y-14553727D01*
X32893296Y-14531329D01*
X32864032Y-14528447D01*
X32180698Y-14528447D01*
X32180698Y-12178447D01*
X32177816Y-12149183D01*
X33050247Y-12149183D01*
X33050247Y-12207711D01*
X33072645Y-12261783D01*
X33114029Y-12303167D01*
X33168101Y-12325565D01*
X33197365Y-12328447D01*
X33547365Y-12328447D01*
X33547365Y-14678447D01*
X33550247Y-14707711D01*
X33572645Y-14761783D01*
X33614029Y-14803167D01*
X33668101Y-14825565D01*
X33726629Y-14825565D01*
X33780701Y-14803167D01*
X33822085Y-14761783D01*
X33844483Y-14707711D01*
X33847365Y-14678447D01*
X33847365Y-14673516D01*
X34380779Y-14673516D01*
X34390304Y-14731263D01*
X34421202Y-14780968D01*
X34468770Y-14815067D01*
X34525767Y-14828366D01*
X34583514Y-14818841D01*
X34633219Y-14787943D01*
X34667318Y-14740375D01*
X34676774Y-14712531D01*
X34816394Y-14114161D01*
X35411669Y-14114161D01*
X35551289Y-14712532D01*
X35560745Y-14740375D01*
X35594844Y-14787944D01*
X35644549Y-14818841D01*
X35702296Y-14828367D01*
X35759293Y-14815067D01*
X35806861Y-14780969D01*
X35837759Y-14731263D01*
X35847284Y-14673516D01*
X35843441Y-14644363D01*
X35518061Y-13249876D01*
X36047365Y-13249876D01*
X36047365Y-13607019D01*
X36048636Y-13619929D01*
X36049610Y-13632876D01*
X36132943Y-14109066D01*
X36136224Y-14120858D01*
X36139119Y-14132762D01*
X36222453Y-14370857D01*
X36226031Y-14378560D01*
X36226726Y-14381696D01*
X36231090Y-14389452D01*
X36234841Y-14397526D01*
X36236981Y-14399921D01*
X36241147Y-14407323D01*
X36407813Y-14645419D01*
X36426956Y-14667741D01*
X36434799Y-14672739D01*
X36441026Y-14679646D01*
X36466208Y-14694829D01*
X36716208Y-14813876D01*
X36743868Y-14823855D01*
X36747796Y-14824058D01*
X36751434Y-14825565D01*
X36780698Y-14828447D01*
X36947365Y-14828447D01*
X36976629Y-14825565D01*
X36980263Y-14824059D01*
X36984194Y-14823856D01*
X37011855Y-14813876D01*
X37261854Y-14694829D01*
X37287037Y-14679646D01*
X37293265Y-14672737D01*
X37301107Y-14667740D01*
X37320250Y-14645419D01*
X37403583Y-14526371D01*
X37404674Y-14524431D01*
X37405418Y-14523688D01*
X37406325Y-14521498D01*
X37418004Y-14500744D01*
X37421547Y-14484749D01*
X37427816Y-14469616D01*
X37430149Y-14445918D01*
X37430663Y-14443602D01*
X37430480Y-14442565D01*
X37430698Y-14440352D01*
X37430698Y-13607019D01*
X37427816Y-13577755D01*
X37405418Y-13523683D01*
X37364034Y-13482299D01*
X37309962Y-13459901D01*
X37280698Y-13457019D01*
X36947365Y-13457019D01*
X36918101Y-13459901D01*
X36864029Y-13482299D01*
X36822645Y-13523683D01*
X36800247Y-13577755D01*
X36800247Y-13636283D01*
X36822645Y-13690355D01*
X36864029Y-13731739D01*
X36918101Y-13754137D01*
X36947365Y-13757019D01*
X37130698Y-13757019D01*
X37130698Y-14393068D01*
X37097162Y-14440976D01*
X36913474Y-14528447D01*
X36814588Y-14528447D01*
X36630900Y-14440976D01*
X36498776Y-14252227D01*
X36426335Y-14045251D01*
X36347365Y-13593990D01*
X36347365Y-13262904D01*
X36426335Y-12811642D01*
X36498776Y-12604666D01*
X36630900Y-12415918D01*
X36814589Y-12328447D01*
X36982628Y-12328447D01*
X37110179Y-12419555D01*
X37135668Y-12434219D01*
X37192686Y-12447422D01*
X37250416Y-12437800D01*
X37300071Y-12406819D01*
X37334089Y-12359193D01*
X37347292Y-12302174D01*
X37337671Y-12244444D01*
X37306689Y-12194790D01*
X37287996Y-12178447D01*
X37880698Y-12178447D01*
X37880698Y-14678447D01*
X37883580Y-14707711D01*
X37905978Y-14761783D01*
X37947362Y-14803167D01*
X38001434Y-14825565D01*
X38030698Y-14828447D01*
X38864032Y-14828447D01*
X38893296Y-14825565D01*
X38947368Y-14803167D01*
X38988752Y-14761783D01*
X39011150Y-14707711D01*
X39011150Y-14649183D01*
X38988752Y-14595111D01*
X38947368Y-14553727D01*
X38893296Y-14531329D01*
X38864032Y-14528447D01*
X38180698Y-14528447D01*
X38180698Y-13518923D01*
X38614032Y-13518923D01*
X38643296Y-13516041D01*
X38697368Y-13493643D01*
X38738752Y-13452259D01*
X38761150Y-13398187D01*
X38761150Y-13339659D01*
X38738752Y-13285587D01*
X38697368Y-13244203D01*
X38643296Y-13221805D01*
X38614032Y-13218923D01*
X38180698Y-13218923D01*
X38180698Y-12328447D01*
X38864032Y-12328447D01*
X38893296Y-12325565D01*
X38947368Y-12303167D01*
X38988752Y-12261783D01*
X39011150Y-12207711D01*
X39011150Y-12149183D01*
X38988752Y-12095111D01*
X38947368Y-12053727D01*
X38893296Y-12031329D01*
X38864032Y-12028447D01*
X38030698Y-12028447D01*
X38001434Y-12031329D01*
X37947362Y-12053727D01*
X37905978Y-12095111D01*
X37883580Y-12149183D01*
X37880698Y-12178447D01*
X37287996Y-12178447D01*
X37284551Y-12175435D01*
X37117884Y-12056387D01*
X37115081Y-12054774D01*
X37114034Y-12053727D01*
X37111271Y-12052582D01*
X37092396Y-12041723D01*
X37075748Y-12037868D01*
X37059962Y-12031329D01*
X37038291Y-12029194D01*
X37035377Y-12028520D01*
X37033914Y-12028763D01*
X37030698Y-12028447D01*
X36780698Y-12028447D01*
X36751434Y-12031329D01*
X36747799Y-12032834D01*
X36743868Y-12033038D01*
X36716208Y-12043018D01*
X36466208Y-12162066D01*
X36441026Y-12177250D01*
X36434800Y-12184154D01*
X36426956Y-12189154D01*
X36407813Y-12211476D01*
X36241147Y-12449571D01*
X36236981Y-12456972D01*
X36234841Y-12459368D01*
X36231090Y-12467441D01*
X36226726Y-12475198D01*
X36226031Y-12478333D01*
X36222453Y-12486037D01*
X36139119Y-12724132D01*
X36136224Y-12736035D01*
X36132943Y-12747828D01*
X36049610Y-13224019D01*
X36048636Y-13236965D01*
X36047365Y-13249876D01*
X35518061Y-13249876D01*
X35260108Y-12144363D01*
X35255067Y-12129521D01*
X35254426Y-12125631D01*
X35252928Y-12123221D01*
X35250652Y-12116519D01*
X35236421Y-12096667D01*
X35223528Y-12075926D01*
X35219465Y-12073013D01*
X35216553Y-12068951D01*
X35195811Y-12056057D01*
X35175960Y-12041827D01*
X35171091Y-12040691D01*
X35166848Y-12038053D01*
X35142750Y-12034078D01*
X35118963Y-12028528D01*
X35114032Y-12029341D01*
X35109101Y-12028528D01*
X35085313Y-12034078D01*
X35061216Y-12038053D01*
X35056972Y-12040691D01*
X35052104Y-12041827D01*
X35032252Y-12056057D01*
X35011511Y-12068951D01*
X35008598Y-12073013D01*
X35004536Y-12075926D01*
X34991642Y-12096667D01*
X34977412Y-12116519D01*
X34975135Y-12123221D01*
X34973638Y-12125631D01*
X34972996Y-12129520D01*
X34967956Y-12144362D01*
X34384622Y-14644363D01*
X34380779Y-14673516D01*
X33847365Y-14673516D01*
X33847365Y-12328447D01*
X34197365Y-12328447D01*
X34226629Y-12325565D01*
X34280701Y-12303167D01*
X34322085Y-12261783D01*
X34344483Y-12207711D01*
X34344483Y-12149183D01*
X34322085Y-12095111D01*
X34280701Y-12053727D01*
X34226629Y-12031329D01*
X34197365Y-12028447D01*
X33197365Y-12028447D01*
X33168101Y-12031329D01*
X33114029Y-12053727D01*
X33072645Y-12095111D01*
X33050247Y-12149183D01*
X32177816Y-12149183D01*
X32155418Y-12095111D01*
X32114034Y-12053727D01*
X32059962Y-12031329D01*
X32001434Y-12031329D01*
X31947362Y-12053727D01*
X31905978Y-12095111D01*
X31883580Y-12149183D01*
X31880698Y-12178447D01*
X31121330Y-12178447D01*
X31117885Y-12175435D01*
X30951218Y-12056387D01*
X30948415Y-12054774D01*
X30947368Y-12053727D01*
X30944605Y-12052582D01*
X30925730Y-12041723D01*
X30909082Y-12037868D01*
X30893296Y-12031329D01*
X30871625Y-12029194D01*
X30868711Y-12028520D01*
X30867248Y-12028763D01*
X30864032Y-12028447D01*
X30530699Y-12028447D01*
X30527482Y-12028763D01*
X30526020Y-12028520D01*
X30523105Y-12029194D01*
X30501435Y-12031329D01*
X30485647Y-12037868D01*
X30469002Y-12041723D01*
X30450125Y-12052582D01*
X30447363Y-12053727D01*
X30446315Y-12054774D01*
X30443513Y-12056387D01*
X30276846Y-12175435D01*
X30263478Y-12187122D01*
X30260290Y-12189154D01*
X30257699Y-12192174D01*
X30254708Y-12194790D01*
X30252708Y-12197994D01*
X30241147Y-12211476D01*
X30074480Y-12449570D01*
X30060060Y-12475197D01*
X30059322Y-12478525D01*
X30057494Y-12481404D01*
X30049610Y-12509733D01*
X29966277Y-12985923D01*
X29965303Y-12998869D01*
X29964032Y-13011780D01*
X29573617Y-13011780D01*
X29760108Y-12212531D01*
X29763951Y-12183378D01*
X29754426Y-12125631D01*
X29723528Y-12075925D01*
X29675960Y-12041827D01*
X29618963Y-12028527D01*
X29561216Y-12038053D01*
X29511511Y-12068950D01*
X29477412Y-12116519D01*
X29467956Y-12144362D01*
X29030698Y-14018323D01*
X28593441Y-12144363D01*
X28583985Y-12116519D01*
X28549886Y-12068951D01*
X28500181Y-12038053D01*
X28442434Y-12028528D01*
X28385437Y-12041827D01*
X28337869Y-12075926D01*
X28306971Y-12125631D01*
X28297446Y-12183378D01*
X26680699Y-12183378D01*
X26680699Y-12178447D01*
X26677817Y-12149183D01*
X26655419Y-12095111D01*
X26614035Y-12053727D01*
X26559963Y-12031329D01*
X26501435Y-12031329D01*
X26447363Y-12053727D01*
X26405979Y-12095111D01*
X26383581Y-12149183D01*
X26380699Y-12178447D01*
X26380699Y-13218923D01*
X25680699Y-13218923D01*
X25680699Y-12178447D01*
X25677817Y-12149183D01*
X25655419Y-12095111D01*
X25614035Y-12053727D01*
X25559963Y-12031329D01*
X25501435Y-12031329D01*
X25447363Y-12053727D01*
X25405979Y-12095111D01*
X25383581Y-12149183D01*
X25380699Y-12178447D01*
X24787997Y-12178447D01*
X24784552Y-12175435D01*
X24617885Y-12056387D01*
X24615082Y-12054774D01*
X24614035Y-12053727D01*
X24611272Y-12052582D01*
X24592397Y-12041723D01*
X24575749Y-12037868D01*
X24559963Y-12031329D01*
X24538292Y-12029194D01*
X24535378Y-12028520D01*
X24533915Y-12028763D01*
X24530699Y-12028447D01*
X24280699Y-12028447D01*
X24251435Y-12031329D01*
X24247800Y-12032834D01*
X24243869Y-12033038D01*
X24216209Y-12043018D01*
X23966209Y-12162066D01*
X23941027Y-12177250D01*
X23934801Y-12184154D01*
X23926957Y-12189154D01*
X23907814Y-12211476D01*
X23741148Y-12449571D01*
X23736982Y-12456972D01*
X23734842Y-12459368D01*
X23731091Y-12467441D01*
X23726727Y-12475198D01*
X23726032Y-12478333D01*
X23722454Y-12486037D01*
X23639120Y-12724132D01*
X23636225Y-12736035D01*
X23632944Y-12747828D01*
X23549611Y-13224019D01*
X23548637Y-13236965D01*
X23547366Y-13249876D01*
X23097366Y-13249876D01*
X23097366Y-12178447D01*
X23094484Y-12149183D01*
X23072086Y-12095111D01*
X23030702Y-12053727D01*
X22976630Y-12031329D01*
X22918102Y-12031329D01*
X22864030Y-12053727D01*
X22822646Y-12095111D01*
X22800248Y-12149183D01*
X22797366Y-12178447D01*
X22264033Y-12178447D01*
X22261151Y-12149183D01*
X22238753Y-12095111D01*
X22197369Y-12053727D01*
X22143297Y-12031329D01*
X22084769Y-12031329D01*
X22030697Y-12053727D01*
X21989313Y-12095111D01*
X21966915Y-12149183D01*
X21964033Y-12178447D01*
X21964033Y-13218923D01*
X21264033Y-13218923D01*
X21264033Y-12178447D01*
X21261151Y-12149183D01*
X21238753Y-12095111D01*
X21197369Y-12053727D01*
X21143297Y-12031329D01*
X21084769Y-12031329D01*
X21030697Y-12053727D01*
X20989313Y-12095111D01*
X20966915Y-12149183D01*
X20964033Y-12178447D01*
X18954665Y-12178447D01*
X18951220Y-12175435D01*
X18784553Y-12056387D01*
X18781750Y-12054774D01*
X18780703Y-12053727D01*
X18777940Y-12052582D01*
X18759065Y-12041723D01*
X18742417Y-12037868D01*
X18726631Y-12031329D01*
X18704960Y-12029194D01*
X18702046Y-12028520D01*
X18700583Y-12028763D01*
X18697367Y-12028447D01*
X18030700Y-12028447D01*
X18001436Y-12031329D01*
X17947364Y-12053727D01*
X17905980Y-12095111D01*
X17883582Y-12149183D01*
X17880700Y-12178447D01*
X17427819Y-12178447D01*
X17427819Y-12149183D01*
X17405421Y-12095111D01*
X17364037Y-12053727D01*
X17309965Y-12031329D01*
X17280701Y-12028447D01*
X16447367Y-12028447D01*
X16418103Y-12031329D01*
X16364031Y-12053727D01*
X16322647Y-12095111D01*
X16300249Y-12149183D01*
X16297367Y-12178447D01*
X15704665Y-12178447D01*
X15701220Y-12175435D01*
X15534553Y-12056387D01*
X15531750Y-12054774D01*
X15530703Y-12053727D01*
X15527940Y-12052582D01*
X15509065Y-12041723D01*
X15492417Y-12037868D01*
X15476631Y-12031329D01*
X15454960Y-12029194D01*
X15452046Y-12028520D01*
X15450583Y-12028763D01*
X15447367Y-12028447D01*
X15197367Y-12028447D01*
X15168103Y-12031329D01*
X15164468Y-12032834D01*
X15160537Y-12033038D01*
X15132877Y-12043018D01*
X14882877Y-12162066D01*
X14857695Y-12177250D01*
X14851469Y-12184154D01*
X14843625Y-12189154D01*
X14824482Y-12211476D01*
X14657816Y-12449571D01*
X14653650Y-12456972D01*
X14651510Y-12459368D01*
X14647759Y-12467441D01*
X14643395Y-12475198D01*
X14642700Y-12478333D01*
X14639122Y-12486037D01*
X14555788Y-12724132D01*
X14552893Y-12736035D01*
X14549612Y-12747828D01*
X14466279Y-13224019D01*
X14465305Y-13236965D01*
X14464034Y-13249876D01*
X14014034Y-13249876D01*
X14014034Y-12178447D01*
X14011152Y-12149183D01*
X13988754Y-12095111D01*
X13947370Y-12053727D01*
X13893298Y-12031329D01*
X13834770Y-12031329D01*
X13780698Y-12053727D01*
X13739314Y-12095111D01*
X13716916Y-12149183D01*
X13714034Y-12178447D01*
X13714034Y-13899559D01*
X13003306Y-12122738D01*
X12989761Y-12096638D01*
X12989110Y-12095971D01*
X12988754Y-12095111D01*
X12968673Y-12075030D01*
X12948883Y-12054752D01*
X12948028Y-12054385D01*
X12947370Y-12053727D01*
X12921151Y-12042866D01*
X12895090Y-12031697D01*
X12894158Y-12031685D01*
X12893298Y-12031329D01*
X12864927Y-12031329D01*
X12836567Y-12030983D01*
X12835702Y-12031329D01*
X12834770Y-12031329D01*
X12808556Y-12042187D01*
X12782225Y-12052720D01*
X12781558Y-12053370D01*
X12780698Y-12053727D01*
X12760617Y-12073807D01*
X12740339Y-12093598D01*
X12739972Y-12094452D01*
X12739314Y-12095111D01*
X12728453Y-12121329D01*
X12717284Y-12147391D01*
X12717272Y-12148322D01*
X12716916Y-12149183D01*
X12714034Y-12178447D01*
X11851397Y-12178447D01*
X11843444Y-12144363D01*
X11838403Y-12129521D01*
X11837762Y-12125631D01*
X11836264Y-12123221D01*
X11833988Y-12116519D01*
X11819757Y-12096667D01*
X11806864Y-12075926D01*
X11802801Y-12073013D01*
X11799889Y-12068951D01*
X11779147Y-12056057D01*
X11759296Y-12041827D01*
X11754427Y-12040691D01*
X11750184Y-12038053D01*
X11726086Y-12034078D01*
X11702299Y-12028528D01*
X11697368Y-12029341D01*
X11692437Y-12028528D01*
X11668649Y-12034078D01*
X11644552Y-12038053D01*
X11640308Y-12040691D01*
X11635440Y-12041827D01*
X11615588Y-12056057D01*
X11594847Y-12068951D01*
X11591934Y-12073013D01*
X11587872Y-12075926D01*
X11574978Y-12096667D01*
X11560748Y-12116519D01*
X11558471Y-12123221D01*
X11556974Y-12125631D01*
X11556332Y-12129520D01*
X11551292Y-12144362D01*
X10967958Y-14644363D01*
X10964115Y-14673516D01*
X10375899Y-14673516D01*
X10376599Y-14672739D01*
X10384443Y-14667741D01*
X10403586Y-14645419D01*
X10570253Y-14407323D01*
X10574420Y-14399918D01*
X10576559Y-14397525D01*
X10580304Y-14389461D01*
X10584674Y-14381697D01*
X10585369Y-14378557D01*
X10588947Y-14370856D01*
X10672280Y-14132761D01*
X10675172Y-14120865D01*
X10678456Y-14109066D01*
X10761789Y-13632876D01*
X10762762Y-13619929D01*
X10764034Y-13607019D01*
X10764034Y-13249876D01*
X10762762Y-13236965D01*
X10761789Y-13224019D01*
X10678456Y-12747828D01*
X10675172Y-12736028D01*
X10672280Y-12724133D01*
X10588947Y-12486038D01*
X10585367Y-12478332D01*
X10584673Y-12475197D01*
X10580307Y-12467438D01*
X10576559Y-12459369D01*
X10574420Y-12456976D01*
X10570253Y-12449570D01*
X10403586Y-12211475D01*
X10384443Y-12189154D01*
X10376600Y-12184156D01*
X10370374Y-12177250D01*
X10345191Y-12162066D01*
X10095191Y-12043018D01*
X10067531Y-12033038D01*
X10063599Y-12032834D01*
X10059965Y-12031329D01*
X10030701Y-12028447D01*
X9614034Y-12028447D01*
X9584770Y-12031329D01*
X9530698Y-12053727D01*
X9489314Y-12095111D01*
X9466916Y-12149183D01*
X9464034Y-12178447D01*
X9186256Y-12178447D01*
X9186256Y-11750669D01*
X39288928Y-11750669D01*
X39288928Y-15106225D01*
G37*
X42554510Y-73178328D02*
X42554510Y-71678328D01*
X42554510Y-71678328D02*
X42911653Y-71678328D01*
X42911653Y-71678328D02*
X43125939Y-71749757D01*
X43125939Y-71749757D02*
X43268796Y-71892614D01*
X43268796Y-71892614D02*
X43340225Y-72035471D01*
X43340225Y-72035471D02*
X43411653Y-72321185D01*
X43411653Y-72321185D02*
X43411653Y-72535471D01*
X43411653Y-72535471D02*
X43340225Y-72821185D01*
X43340225Y-72821185D02*
X43268796Y-72964042D01*
X43268796Y-72964042D02*
X43125939Y-73106900D01*
X43125939Y-73106900D02*
X42911653Y-73178328D01*
X42911653Y-73178328D02*
X42554510Y-73178328D01*
X44911653Y-73035471D02*
X44840225Y-73106900D01*
X44840225Y-73106900D02*
X44625939Y-73178328D01*
X44625939Y-73178328D02*
X44483082Y-73178328D01*
X44483082Y-73178328D02*
X44268796Y-73106900D01*
X44268796Y-73106900D02*
X44125939Y-72964042D01*
X44125939Y-72964042D02*
X44054510Y-72821185D01*
X44054510Y-72821185D02*
X43983082Y-72535471D01*
X43983082Y-72535471D02*
X43983082Y-72321185D01*
X43983082Y-72321185D02*
X44054510Y-72035471D01*
X44054510Y-72035471D02*
X44125939Y-71892614D01*
X44125939Y-71892614D02*
X44268796Y-71749757D01*
X44268796Y-71749757D02*
X44483082Y-71678328D01*
X44483082Y-71678328D02*
X44625939Y-71678328D01*
X44625939Y-71678328D02*
X44840225Y-71749757D01*
X44840225Y-71749757D02*
X44911653Y-71821185D01*
X47411653Y-73178328D02*
X46697367Y-73178328D01*
X46697367Y-73178328D02*
X46697367Y-71678328D01*
X47911653Y-73178328D02*
X47911653Y-71678328D01*
X48625939Y-73178328D02*
X48625939Y-71678328D01*
X48625939Y-71678328D02*
X49483082Y-73178328D01*
X49483082Y-73178328D02*
X49483082Y-71678328D01*
X50197368Y-73178328D02*
X50197368Y-71678328D01*
X51054511Y-73178328D02*
X50411654Y-72321185D01*
X51054511Y-71678328D02*
X50197368Y-72535471D01*
X52840225Y-72606900D02*
X53983083Y-72606900D01*
X53411654Y-73178328D02*
X53411654Y-72035471D01*
X43321671Y-23054510D02*
X44821671Y-23054510D01*
X44821671Y-23054510D02*
X44821671Y-23411653D01*
X44821671Y-23411653D02*
X44750242Y-23625939D01*
X44750242Y-23625939D02*
X44607385Y-23768796D01*
X44607385Y-23768796D02*
X44464528Y-23840225D01*
X44464528Y-23840225D02*
X44178814Y-23911653D01*
X44178814Y-23911653D02*
X43964528Y-23911653D01*
X43964528Y-23911653D02*
X43678814Y-23840225D01*
X43678814Y-23840225D02*
X43535957Y-23768796D01*
X43535957Y-23768796D02*
X43393100Y-23625939D01*
X43393100Y-23625939D02*
X43321671Y-23411653D01*
X43321671Y-23411653D02*
X43321671Y-23054510D01*
X43464528Y-25411653D02*
X43393100Y-25340225D01*
X43393100Y-25340225D02*
X43321671Y-25125939D01*
X43321671Y-25125939D02*
X43321671Y-24983082D01*
X43321671Y-24983082D02*
X43393100Y-24768796D01*
X43393100Y-24768796D02*
X43535957Y-24625939D01*
X43535957Y-24625939D02*
X43678814Y-24554510D01*
X43678814Y-24554510D02*
X43964528Y-24483082D01*
X43964528Y-24483082D02*
X44178814Y-24483082D01*
X44178814Y-24483082D02*
X44464528Y-24554510D01*
X44464528Y-24554510D02*
X44607385Y-24625939D01*
X44607385Y-24625939D02*
X44750242Y-24768796D01*
X44750242Y-24768796D02*
X44821671Y-24983082D01*
X44821671Y-24983082D02*
X44821671Y-25125939D01*
X44821671Y-25125939D02*
X44750242Y-25340225D01*
X44750242Y-25340225D02*
X44678814Y-25411653D01*
X43321671Y-27911653D02*
X43321671Y-27197367D01*
X43321671Y-27197367D02*
X44821671Y-27197367D01*
X43321671Y-28411653D02*
X44821671Y-28411653D01*
X43321671Y-29125939D02*
X44821671Y-29125939D01*
X44821671Y-29125939D02*
X43321671Y-29983082D01*
X43321671Y-29983082D02*
X44821671Y-29983082D01*
X43321671Y-30697368D02*
X44821671Y-30697368D01*
X43321671Y-31554511D02*
X44178814Y-30911654D01*
X44821671Y-31554511D02*
X43964528Y-30697368D01*
X43893100Y-33340225D02*
X43893100Y-34483083D01*
D12*
X28402568Y-2034619D02*
X28402568Y-1034619D01*
X28402568Y-1034619D02*
X28783520Y-1034619D01*
X28783520Y-1034619D02*
X28878758Y-1082238D01*
X28878758Y-1082238D02*
X28926377Y-1129857D01*
X28926377Y-1129857D02*
X28973996Y-1225095D01*
X28973996Y-1225095D02*
X28973996Y-1367952D01*
X28973996Y-1367952D02*
X28926377Y-1463190D01*
X28926377Y-1463190D02*
X28878758Y-1510809D01*
X28878758Y-1510809D02*
X28783520Y-1558428D01*
X28783520Y-1558428D02*
X28402568Y-1558428D01*
X29593044Y-1034619D02*
X29783520Y-1034619D01*
X29783520Y-1034619D02*
X29878758Y-1082238D01*
X29878758Y-1082238D02*
X29973996Y-1177476D01*
X29973996Y-1177476D02*
X30021615Y-1367952D01*
X30021615Y-1367952D02*
X30021615Y-1701285D01*
X30021615Y-1701285D02*
X29973996Y-1891761D01*
X29973996Y-1891761D02*
X29878758Y-1987000D01*
X29878758Y-1987000D02*
X29783520Y-2034619D01*
X29783520Y-2034619D02*
X29593044Y-2034619D01*
X29593044Y-2034619D02*
X29497806Y-1987000D01*
X29497806Y-1987000D02*
X29402568Y-1891761D01*
X29402568Y-1891761D02*
X29354949Y-1701285D01*
X29354949Y-1701285D02*
X29354949Y-1367952D01*
X29354949Y-1367952D02*
X29402568Y-1177476D01*
X29402568Y-1177476D02*
X29497806Y-1082238D01*
X29497806Y-1082238D02*
X29593044Y-1034619D01*
X30354949Y-1034619D02*
X30593044Y-2034619D01*
X30593044Y-2034619D02*
X30783520Y-1320333D01*
X30783520Y-1320333D02*
X30973996Y-2034619D01*
X30973996Y-2034619D02*
X31212092Y-1034619D01*
X31593044Y-1510809D02*
X31926377Y-1510809D01*
X32069234Y-2034619D02*
X31593044Y-2034619D01*
X31593044Y-2034619D02*
X31593044Y-1034619D01*
X31593044Y-1034619D02*
X32069234Y-1034619D01*
X33069234Y-2034619D02*
X32735901Y-1558428D01*
X32497806Y-2034619D02*
X32497806Y-1034619D01*
X32497806Y-1034619D02*
X32878758Y-1034619D01*
X32878758Y-1034619D02*
X32973996Y-1082238D01*
X32973996Y-1082238D02*
X33021615Y-1129857D01*
X33021615Y-1129857D02*
X33069234Y-1225095D01*
X33069234Y-1225095D02*
X33069234Y-1367952D01*
X33069234Y-1367952D02*
X33021615Y-1463190D01*
X33021615Y-1463190D02*
X32973996Y-1510809D01*
X32973996Y-1510809D02*
X32878758Y-1558428D01*
X32878758Y-1558428D02*
X32497806Y-1558428D01*
X34212092Y-1987000D02*
X34354949Y-2034619D01*
X34354949Y-2034619D02*
X34593044Y-2034619D01*
X34593044Y-2034619D02*
X34688282Y-1987000D01*
X34688282Y-1987000D02*
X34735901Y-1939380D01*
X34735901Y-1939380D02*
X34783520Y-1844142D01*
X34783520Y-1844142D02*
X34783520Y-1748904D01*
X34783520Y-1748904D02*
X34735901Y-1653666D01*
X34735901Y-1653666D02*
X34688282Y-1606047D01*
X34688282Y-1606047D02*
X34593044Y-1558428D01*
X34593044Y-1558428D02*
X34402568Y-1510809D01*
X34402568Y-1510809D02*
X34307330Y-1463190D01*
X34307330Y-1463190D02*
X34259711Y-1415571D01*
X34259711Y-1415571D02*
X34212092Y-1320333D01*
X34212092Y-1320333D02*
X34212092Y-1225095D01*
X34212092Y-1225095D02*
X34259711Y-1129857D01*
X34259711Y-1129857D02*
X34307330Y-1082238D01*
X34307330Y-1082238D02*
X34402568Y-1034619D01*
X34402568Y-1034619D02*
X34640663Y-1034619D01*
X34640663Y-1034619D02*
X34783520Y-1082238D01*
X35069235Y-1034619D02*
X35640663Y-1034619D01*
X35354949Y-2034619D02*
X35354949Y-1034619D01*
X35926378Y-1748904D02*
X36402568Y-1748904D01*
X35831140Y-2034619D02*
X36164473Y-1034619D01*
X36164473Y-1034619D02*
X36497806Y-2034619D01*
X37354949Y-1082238D02*
X37259711Y-1034619D01*
X37259711Y-1034619D02*
X37116854Y-1034619D01*
X37116854Y-1034619D02*
X36973997Y-1082238D01*
X36973997Y-1082238D02*
X36878759Y-1177476D01*
X36878759Y-1177476D02*
X36831140Y-1272714D01*
X36831140Y-1272714D02*
X36783521Y-1463190D01*
X36783521Y-1463190D02*
X36783521Y-1606047D01*
X36783521Y-1606047D02*
X36831140Y-1796523D01*
X36831140Y-1796523D02*
X36878759Y-1891761D01*
X36878759Y-1891761D02*
X36973997Y-1987000D01*
X36973997Y-1987000D02*
X37116854Y-2034619D01*
X37116854Y-2034619D02*
X37212092Y-2034619D01*
X37212092Y-2034619D02*
X37354949Y-1987000D01*
X37354949Y-1987000D02*
X37402568Y-1939380D01*
X37402568Y-1939380D02*
X37402568Y-1606047D01*
X37402568Y-1606047D02*
X37212092Y-1606047D01*
X37831140Y-1510809D02*
X38164473Y-1510809D01*
X38307330Y-2034619D02*
X37831140Y-2034619D01*
X37831140Y-2034619D02*
X37831140Y-1034619D01*
X37831140Y-1034619D02*
X38307330Y-1034619D01*
X39831140Y-1510809D02*
X39497807Y-1510809D01*
X39497807Y-2034619D02*
X39497807Y-1034619D01*
X39497807Y-1034619D02*
X39973997Y-1034619D01*
X40354950Y-2034619D02*
X40354950Y-1034619D01*
X41307330Y-2034619D02*
X40831140Y-2034619D01*
X40831140Y-2034619D02*
X40831140Y-1034619D01*
X41497807Y-1034619D02*
X42069235Y-1034619D01*
X41783521Y-2034619D02*
X41783521Y-1034619D01*
X42402569Y-1510809D02*
X42735902Y-1510809D01*
X42878759Y-2034619D02*
X42402569Y-2034619D01*
X42402569Y-2034619D02*
X42402569Y-1034619D01*
X42402569Y-1034619D02*
X42878759Y-1034619D01*
X43878759Y-2034619D02*
X43545426Y-1558428D01*
X43307331Y-2034619D02*
X43307331Y-1034619D01*
X43307331Y-1034619D02*
X43688283Y-1034619D01*
X43688283Y-1034619D02*
X43783521Y-1082238D01*
X43783521Y-1082238D02*
X43831140Y-1129857D01*
X43831140Y-1129857D02*
X43878759Y-1225095D01*
X43878759Y-1225095D02*
X43878759Y-1367952D01*
X43878759Y-1367952D02*
X43831140Y-1463190D01*
X43831140Y-1463190D02*
X43783521Y-1510809D01*
X43783521Y-1510809D02*
X43688283Y-1558428D01*
X43688283Y-1558428D02*
X43307331Y-1558428D01*
X28735901Y-3120753D02*
X28402568Y-3120753D01*
X28402568Y-3644563D02*
X28402568Y-2644563D01*
X28402568Y-2644563D02*
X28878758Y-2644563D01*
X29450187Y-2644563D02*
X29640663Y-2644563D01*
X29640663Y-2644563D02*
X29735901Y-2692182D01*
X29735901Y-2692182D02*
X29831139Y-2787420D01*
X29831139Y-2787420D02*
X29878758Y-2977896D01*
X29878758Y-2977896D02*
X29878758Y-3311229D01*
X29878758Y-3311229D02*
X29831139Y-3501705D01*
X29831139Y-3501705D02*
X29735901Y-3596944D01*
X29735901Y-3596944D02*
X29640663Y-3644563D01*
X29640663Y-3644563D02*
X29450187Y-3644563D01*
X29450187Y-3644563D02*
X29354949Y-3596944D01*
X29354949Y-3596944D02*
X29259711Y-3501705D01*
X29259711Y-3501705D02*
X29212092Y-3311229D01*
X29212092Y-3311229D02*
X29212092Y-2977896D01*
X29212092Y-2977896D02*
X29259711Y-2787420D01*
X29259711Y-2787420D02*
X29354949Y-2692182D01*
X29354949Y-2692182D02*
X29450187Y-2644563D01*
X30878758Y-3644563D02*
X30545425Y-3168372D01*
X30307330Y-3644563D02*
X30307330Y-2644563D01*
X30307330Y-2644563D02*
X30688282Y-2644563D01*
X30688282Y-2644563D02*
X30783520Y-2692182D01*
X30783520Y-2692182D02*
X30831139Y-2739801D01*
X30831139Y-2739801D02*
X30878758Y-2835039D01*
X30878758Y-2835039D02*
X30878758Y-2977896D01*
X30878758Y-2977896D02*
X30831139Y-3073134D01*
X30831139Y-3073134D02*
X30783520Y-3120753D01*
X30783520Y-3120753D02*
X30688282Y-3168372D01*
X30688282Y-3168372D02*
X30307330Y-3168372D01*
X32640663Y-3549324D02*
X32593044Y-3596944D01*
X32593044Y-3596944D02*
X32450187Y-3644563D01*
X32450187Y-3644563D02*
X32354949Y-3644563D01*
X32354949Y-3644563D02*
X32212092Y-3596944D01*
X32212092Y-3596944D02*
X32116854Y-3501705D01*
X32116854Y-3501705D02*
X32069235Y-3406467D01*
X32069235Y-3406467D02*
X32021616Y-3215991D01*
X32021616Y-3215991D02*
X32021616Y-3073134D01*
X32021616Y-3073134D02*
X32069235Y-2882658D01*
X32069235Y-2882658D02*
X32116854Y-2787420D01*
X32116854Y-2787420D02*
X32212092Y-2692182D01*
X32212092Y-2692182D02*
X32354949Y-2644563D01*
X32354949Y-2644563D02*
X32450187Y-2644563D01*
X32450187Y-2644563D02*
X32593044Y-2692182D01*
X32593044Y-2692182D02*
X32640663Y-2739801D01*
X33069235Y-3644563D02*
X33069235Y-2644563D01*
X33069235Y-3120753D02*
X33640663Y-3120753D01*
X33640663Y-3644563D02*
X33640663Y-2644563D01*
X34069235Y-3358848D02*
X34545425Y-3358848D01*
X33973997Y-3644563D02*
X34307330Y-2644563D01*
X34307330Y-2644563D02*
X34640663Y-3644563D01*
X34926378Y-3596944D02*
X35069235Y-3644563D01*
X35069235Y-3644563D02*
X35307330Y-3644563D01*
X35307330Y-3644563D02*
X35402568Y-3596944D01*
X35402568Y-3596944D02*
X35450187Y-3549324D01*
X35450187Y-3549324D02*
X35497806Y-3454086D01*
X35497806Y-3454086D02*
X35497806Y-3358848D01*
X35497806Y-3358848D02*
X35450187Y-3263610D01*
X35450187Y-3263610D02*
X35402568Y-3215991D01*
X35402568Y-3215991D02*
X35307330Y-3168372D01*
X35307330Y-3168372D02*
X35116854Y-3120753D01*
X35116854Y-3120753D02*
X35021616Y-3073134D01*
X35021616Y-3073134D02*
X34973997Y-3025515D01*
X34973997Y-3025515D02*
X34926378Y-2930277D01*
X34926378Y-2930277D02*
X34926378Y-2835039D01*
X34926378Y-2835039D02*
X34973997Y-2739801D01*
X34973997Y-2739801D02*
X35021616Y-2692182D01*
X35021616Y-2692182D02*
X35116854Y-2644563D01*
X35116854Y-2644563D02*
X35354949Y-2644563D01*
X35354949Y-2644563D02*
X35497806Y-2692182D01*
X35878759Y-3596944D02*
X36021616Y-3644563D01*
X36021616Y-3644563D02*
X36259711Y-3644563D01*
X36259711Y-3644563D02*
X36354949Y-3596944D01*
X36354949Y-3596944D02*
X36402568Y-3549324D01*
X36402568Y-3549324D02*
X36450187Y-3454086D01*
X36450187Y-3454086D02*
X36450187Y-3358848D01*
X36450187Y-3358848D02*
X36402568Y-3263610D01*
X36402568Y-3263610D02*
X36354949Y-3215991D01*
X36354949Y-3215991D02*
X36259711Y-3168372D01*
X36259711Y-3168372D02*
X36069235Y-3120753D01*
X36069235Y-3120753D02*
X35973997Y-3073134D01*
X35973997Y-3073134D02*
X35926378Y-3025515D01*
X35926378Y-3025515D02*
X35878759Y-2930277D01*
X35878759Y-2930277D02*
X35878759Y-2835039D01*
X35878759Y-2835039D02*
X35926378Y-2739801D01*
X35926378Y-2739801D02*
X35973997Y-2692182D01*
X35973997Y-2692182D02*
X36069235Y-2644563D01*
X36069235Y-2644563D02*
X36307330Y-2644563D01*
X36307330Y-2644563D02*
X36450187Y-2692182D01*
X36878759Y-3644563D02*
X36878759Y-2644563D01*
X37307330Y-3596944D02*
X37450187Y-3644563D01*
X37450187Y-3644563D02*
X37688282Y-3644563D01*
X37688282Y-3644563D02*
X37783520Y-3596944D01*
X37783520Y-3596944D02*
X37831139Y-3549324D01*
X37831139Y-3549324D02*
X37878758Y-3454086D01*
X37878758Y-3454086D02*
X37878758Y-3358848D01*
X37878758Y-3358848D02*
X37831139Y-3263610D01*
X37831139Y-3263610D02*
X37783520Y-3215991D01*
X37783520Y-3215991D02*
X37688282Y-3168372D01*
X37688282Y-3168372D02*
X37497806Y-3120753D01*
X37497806Y-3120753D02*
X37402568Y-3073134D01*
X37402568Y-3073134D02*
X37354949Y-3025515D01*
X37354949Y-3025515D02*
X37307330Y-2930277D01*
X37307330Y-2930277D02*
X37307330Y-2835039D01*
X37307330Y-2835039D02*
X37354949Y-2739801D01*
X37354949Y-2739801D02*
X37402568Y-2692182D01*
X37402568Y-2692182D02*
X37497806Y-2644563D01*
X37497806Y-2644563D02*
X37735901Y-2644563D01*
X37735901Y-2644563D02*
X37878758Y-2692182D01*
X39021616Y-3596944D02*
X39164473Y-3644563D01*
X39164473Y-3644563D02*
X39402568Y-3644563D01*
X39402568Y-3644563D02*
X39497806Y-3596944D01*
X39497806Y-3596944D02*
X39545425Y-3549324D01*
X39545425Y-3549324D02*
X39593044Y-3454086D01*
X39593044Y-3454086D02*
X39593044Y-3358848D01*
X39593044Y-3358848D02*
X39545425Y-3263610D01*
X39545425Y-3263610D02*
X39497806Y-3215991D01*
X39497806Y-3215991D02*
X39402568Y-3168372D01*
X39402568Y-3168372D02*
X39212092Y-3120753D01*
X39212092Y-3120753D02*
X39116854Y-3073134D01*
X39116854Y-3073134D02*
X39069235Y-3025515D01*
X39069235Y-3025515D02*
X39021616Y-2930277D01*
X39021616Y-2930277D02*
X39021616Y-2835039D01*
X39021616Y-2835039D02*
X39069235Y-2739801D01*
X39069235Y-2739801D02*
X39116854Y-2692182D01*
X39116854Y-2692182D02*
X39212092Y-2644563D01*
X39212092Y-2644563D02*
X39450187Y-2644563D01*
X39450187Y-2644563D02*
X39593044Y-2692182D01*
X40021616Y-3644563D02*
X40021616Y-2644563D01*
X40402568Y-2644563D02*
X41069234Y-2644563D01*
X41069234Y-2644563D02*
X40402568Y-3644563D01*
X40402568Y-3644563D02*
X41069234Y-3644563D01*
X41450187Y-3120753D02*
X41783520Y-3120753D01*
X41926377Y-3644563D02*
X41450187Y-3644563D01*
X41450187Y-3644563D02*
X41450187Y-2644563D01*
X41450187Y-2644563D02*
X41926377Y-2644563D01*
X43069235Y-2739801D02*
X43116854Y-2692182D01*
X43116854Y-2692182D02*
X43212092Y-2644563D01*
X43212092Y-2644563D02*
X43450187Y-2644563D01*
X43450187Y-2644563D02*
X43545425Y-2692182D01*
X43545425Y-2692182D02*
X43593044Y-2739801D01*
X43593044Y-2739801D02*
X43640663Y-2835039D01*
X43640663Y-2835039D02*
X43640663Y-2930277D01*
X43640663Y-2930277D02*
X43593044Y-3073134D01*
X43593044Y-3073134D02*
X43021616Y-3644563D01*
X43021616Y-3644563D02*
X43640663Y-3644563D01*
X28735901Y-4730697D02*
X28402568Y-4730697D01*
X28402568Y-5254507D02*
X28402568Y-4254507D01*
X28402568Y-4254507D02*
X28878758Y-4254507D01*
X29831139Y-5254507D02*
X29497806Y-4778316D01*
X29259711Y-5254507D02*
X29259711Y-4254507D01*
X29259711Y-4254507D02*
X29640663Y-4254507D01*
X29640663Y-4254507D02*
X29735901Y-4302126D01*
X29735901Y-4302126D02*
X29783520Y-4349745D01*
X29783520Y-4349745D02*
X29831139Y-4444983D01*
X29831139Y-4444983D02*
X29831139Y-4587840D01*
X29831139Y-4587840D02*
X29783520Y-4683078D01*
X29783520Y-4683078D02*
X29735901Y-4730697D01*
X29735901Y-4730697D02*
X29640663Y-4778316D01*
X29640663Y-4778316D02*
X29259711Y-4778316D01*
X30259711Y-4730697D02*
X30593044Y-4730697D01*
X30735901Y-5254507D02*
X30259711Y-5254507D01*
X30259711Y-5254507D02*
X30259711Y-4254507D01*
X30259711Y-4254507D02*
X30735901Y-4254507D01*
X31831139Y-5349745D02*
X31735901Y-5302126D01*
X31735901Y-5302126D02*
X31640663Y-5206888D01*
X31640663Y-5206888D02*
X31497806Y-5064030D01*
X31497806Y-5064030D02*
X31402568Y-5016411D01*
X31402568Y-5016411D02*
X31307330Y-5016411D01*
X31354949Y-5254507D02*
X31259711Y-5206888D01*
X31259711Y-5206888D02*
X31164473Y-5111649D01*
X31164473Y-5111649D02*
X31116854Y-4921173D01*
X31116854Y-4921173D02*
X31116854Y-4587840D01*
X31116854Y-4587840D02*
X31164473Y-4397364D01*
X31164473Y-4397364D02*
X31259711Y-4302126D01*
X31259711Y-4302126D02*
X31354949Y-4254507D01*
X31354949Y-4254507D02*
X31545425Y-4254507D01*
X31545425Y-4254507D02*
X31640663Y-4302126D01*
X31640663Y-4302126D02*
X31735901Y-4397364D01*
X31735901Y-4397364D02*
X31783520Y-4587840D01*
X31783520Y-4587840D02*
X31783520Y-4921173D01*
X31783520Y-4921173D02*
X31735901Y-5111649D01*
X31735901Y-5111649D02*
X31640663Y-5206888D01*
X31640663Y-5206888D02*
X31545425Y-5254507D01*
X31545425Y-5254507D02*
X31354949Y-5254507D01*
X32212092Y-4254507D02*
X32212092Y-5064030D01*
X32212092Y-5064030D02*
X32259711Y-5159268D01*
X32259711Y-5159268D02*
X32307330Y-5206888D01*
X32307330Y-5206888D02*
X32402568Y-5254507D01*
X32402568Y-5254507D02*
X32593044Y-5254507D01*
X32593044Y-5254507D02*
X32688282Y-5206888D01*
X32688282Y-5206888D02*
X32735901Y-5159268D01*
X32735901Y-5159268D02*
X32783520Y-5064030D01*
X32783520Y-5064030D02*
X32783520Y-4254507D01*
X33259711Y-4730697D02*
X33593044Y-4730697D01*
X33735901Y-5254507D02*
X33259711Y-5254507D01*
X33259711Y-5254507D02*
X33259711Y-4254507D01*
X33259711Y-4254507D02*
X33735901Y-4254507D01*
X34164473Y-5254507D02*
X34164473Y-4254507D01*
X34164473Y-4254507D02*
X34735901Y-5254507D01*
X34735901Y-5254507D02*
X34735901Y-4254507D01*
X35783520Y-5159268D02*
X35735901Y-5206888D01*
X35735901Y-5206888D02*
X35593044Y-5254507D01*
X35593044Y-5254507D02*
X35497806Y-5254507D01*
X35497806Y-5254507D02*
X35354949Y-5206888D01*
X35354949Y-5206888D02*
X35259711Y-5111649D01*
X35259711Y-5111649D02*
X35212092Y-5016411D01*
X35212092Y-5016411D02*
X35164473Y-4825935D01*
X35164473Y-4825935D02*
X35164473Y-4683078D01*
X35164473Y-4683078D02*
X35212092Y-4492602D01*
X35212092Y-4492602D02*
X35259711Y-4397364D01*
X35259711Y-4397364D02*
X35354949Y-4302126D01*
X35354949Y-4302126D02*
X35497806Y-4254507D01*
X35497806Y-4254507D02*
X35593044Y-4254507D01*
X35593044Y-4254507D02*
X35735901Y-4302126D01*
X35735901Y-4302126D02*
X35783520Y-4349745D01*
X36402568Y-4778316D02*
X36402568Y-5254507D01*
X36069235Y-4254507D02*
X36402568Y-4778316D01*
X36402568Y-4778316D02*
X36735901Y-4254507D01*
X37831140Y-5254507D02*
X37831140Y-4254507D01*
X37831140Y-4254507D02*
X38069235Y-4254507D01*
X38069235Y-4254507D02*
X38212092Y-4302126D01*
X38212092Y-4302126D02*
X38307330Y-4397364D01*
X38307330Y-4397364D02*
X38354949Y-4492602D01*
X38354949Y-4492602D02*
X38402568Y-4683078D01*
X38402568Y-4683078D02*
X38402568Y-4825935D01*
X38402568Y-4825935D02*
X38354949Y-5016411D01*
X38354949Y-5016411D02*
X38307330Y-5111649D01*
X38307330Y-5111649D02*
X38212092Y-5206888D01*
X38212092Y-5206888D02*
X38069235Y-5254507D01*
X38069235Y-5254507D02*
X37831140Y-5254507D01*
X39402568Y-5254507D02*
X39069235Y-4778316D01*
X38831140Y-5254507D02*
X38831140Y-4254507D01*
X38831140Y-4254507D02*
X39212092Y-4254507D01*
X39212092Y-4254507D02*
X39307330Y-4302126D01*
X39307330Y-4302126D02*
X39354949Y-4349745D01*
X39354949Y-4349745D02*
X39402568Y-4444983D01*
X39402568Y-4444983D02*
X39402568Y-4587840D01*
X39402568Y-4587840D02*
X39354949Y-4683078D01*
X39354949Y-4683078D02*
X39307330Y-4730697D01*
X39307330Y-4730697D02*
X39212092Y-4778316D01*
X39212092Y-4778316D02*
X38831140Y-4778316D01*
X39831140Y-5254507D02*
X39831140Y-4254507D01*
X40164473Y-4254507D02*
X40497806Y-5254507D01*
X40497806Y-5254507D02*
X40831139Y-4254507D01*
X41164473Y-4730697D02*
X41497806Y-4730697D01*
X41640663Y-5254507D02*
X41164473Y-5254507D01*
X41164473Y-5254507D02*
X41164473Y-4254507D01*
X41164473Y-4254507D02*
X41640663Y-4254507D01*
X42021616Y-5206888D02*
X42164473Y-5254507D01*
X42164473Y-5254507D02*
X42402568Y-5254507D01*
X42402568Y-5254507D02*
X42497806Y-5206888D01*
X42497806Y-5206888D02*
X42545425Y-5159268D01*
X42545425Y-5159268D02*
X42593044Y-5064030D01*
X42593044Y-5064030D02*
X42593044Y-4968792D01*
X42593044Y-4968792D02*
X42545425Y-4873554D01*
X42545425Y-4873554D02*
X42497806Y-4825935D01*
X42497806Y-4825935D02*
X42402568Y-4778316D01*
X42402568Y-4778316D02*
X42212092Y-4730697D01*
X42212092Y-4730697D02*
X42116854Y-4683078D01*
X42116854Y-4683078D02*
X42069235Y-4635459D01*
X42069235Y-4635459D02*
X42021616Y-4540221D01*
X42021616Y-4540221D02*
X42021616Y-4444983D01*
X42021616Y-4444983D02*
X42069235Y-4349745D01*
X42069235Y-4349745D02*
X42116854Y-4302126D01*
X42116854Y-4302126D02*
X42212092Y-4254507D01*
X42212092Y-4254507D02*
X42450187Y-4254507D01*
X42450187Y-4254507D02*
X42593044Y-4302126D01*
D13*
X49238095Y-1454819D02*
X49238095Y-454819D01*
X49238095Y-931009D02*
X49809523Y-931009D01*
X49809523Y-1454819D02*
X49809523Y-454819D01*
X50190476Y-454819D02*
X50809523Y-454819D01*
X50809523Y-454819D02*
X50476190Y-835771D01*
X50476190Y-835771D02*
X50619047Y-835771D01*
X50619047Y-835771D02*
X50714285Y-883390D01*
X50714285Y-883390D02*
X50761904Y-931009D01*
X50761904Y-931009D02*
X50809523Y-1026247D01*
X50809523Y-1026247D02*
X50809523Y-1264342D01*
X50809523Y-1264342D02*
X50761904Y-1359580D01*
X50761904Y-1359580D02*
X50714285Y-1407200D01*
X50714285Y-1407200D02*
X50619047Y-1454819D01*
X50619047Y-1454819D02*
X50333333Y-1454819D01*
X50333333Y-1454819D02*
X50238095Y-1407200D01*
X50238095Y-1407200D02*
X50190476Y-1359580D01*
X86238095Y3295180D02*
X86238095Y4295180D01*
X86238095Y3818990D02*
X86809523Y3818990D01*
X86809523Y3295180D02*
X86809523Y4295180D01*
X87761904Y4295180D02*
X87285714Y4295180D01*
X87285714Y4295180D02*
X87238095Y3818990D01*
X87238095Y3818990D02*
X87285714Y3866609D01*
X87285714Y3866609D02*
X87380952Y3914228D01*
X87380952Y3914228D02*
X87619047Y3914228D01*
X87619047Y3914228D02*
X87714285Y3866609D01*
X87714285Y3866609D02*
X87761904Y3818990D01*
X87761904Y3818990D02*
X87809523Y3723752D01*
X87809523Y3723752D02*
X87809523Y3485657D01*
X87809523Y3485657D02*
X87761904Y3390419D01*
X87761904Y3390419D02*
X87714285Y3342800D01*
X87714285Y3342800D02*
X87619047Y3295180D01*
X87619047Y3295180D02*
X87380952Y3295180D01*
X87380952Y3295180D02*
X87285714Y3342800D01*
X87285714Y3342800D02*
X87238095Y3390419D01*
D14*
X41453365Y-72211666D02*
X41513842Y-72272142D01*
X41513842Y-72272142D02*
X41574318Y-72453571D01*
X41574318Y-72453571D02*
X41574318Y-72574523D01*
X41574318Y-72574523D02*
X41513842Y-72755952D01*
X41513842Y-72755952D02*
X41392889Y-72876904D01*
X41392889Y-72876904D02*
X41271937Y-72937381D01*
X41271937Y-72937381D02*
X41030032Y-72997857D01*
X41030032Y-72997857D02*
X40848603Y-72997857D01*
X40848603Y-72997857D02*
X40606699Y-72937381D01*
X40606699Y-72937381D02*
X40485746Y-72876904D01*
X40485746Y-72876904D02*
X40364794Y-72755952D01*
X40364794Y-72755952D02*
X40304318Y-72574523D01*
X40304318Y-72574523D02*
X40304318Y-72453571D01*
X40304318Y-72453571D02*
X40364794Y-72272142D01*
X40364794Y-72272142D02*
X40425270Y-72211666D01*
X41574318Y-71002142D02*
X41574318Y-71727857D01*
X41574318Y-71365000D02*
X40304318Y-71365000D01*
X40304318Y-71365000D02*
X40485746Y-71485952D01*
X40485746Y-71485952D02*
X40606699Y-71606904D01*
X40606699Y-71606904D02*
X40667175Y-71727857D01*
X74953365Y-3211666D02*
X75013842Y-3272142D01*
X75013842Y-3272142D02*
X75074318Y-3453571D01*
X75074318Y-3453571D02*
X75074318Y-3574523D01*
X75074318Y-3574523D02*
X75013842Y-3755952D01*
X75013842Y-3755952D02*
X74892889Y-3876904D01*
X74892889Y-3876904D02*
X74771937Y-3937381D01*
X74771937Y-3937381D02*
X74530032Y-3997857D01*
X74530032Y-3997857D02*
X74348603Y-3997857D01*
X74348603Y-3997857D02*
X74106699Y-3937381D01*
X74106699Y-3937381D02*
X73985746Y-3876904D01*
X73985746Y-3876904D02*
X73864794Y-3755952D01*
X73864794Y-3755952D02*
X73804318Y-3574523D01*
X73804318Y-3574523D02*
X73804318Y-3453571D01*
X73804318Y-3453571D02*
X73864794Y-3272142D01*
X73864794Y-3272142D02*
X73925270Y-3211666D01*
X73804318Y-2062619D02*
X73804318Y-2667381D01*
X73804318Y-2667381D02*
X74409080Y-2727857D01*
X74409080Y-2727857D02*
X74348603Y-2667381D01*
X74348603Y-2667381D02*
X74288127Y-2546428D01*
X74288127Y-2546428D02*
X74288127Y-2244047D01*
X74288127Y-2244047D02*
X74348603Y-2123095D01*
X74348603Y-2123095D02*
X74409080Y-2062619D01*
X74409080Y-2062619D02*
X74530032Y-2002142D01*
X74530032Y-2002142D02*
X74832413Y-2002142D01*
X74832413Y-2002142D02*
X74953365Y-2062619D01*
X74953365Y-2062619D02*
X75013842Y-2123095D01*
X75013842Y-2123095D02*
X75074318Y-2244047D01*
X75074318Y-2244047D02*
X75074318Y-2546428D01*
X75074318Y-2546428D02*
X75013842Y-2667381D01*
X75013842Y-2667381D02*
X74953365Y-2727857D01*
X81788333Y-11953365D02*
X81727857Y-12013842D01*
X81727857Y-12013842D02*
X81546428Y-12074318D01*
X81546428Y-12074318D02*
X81425476Y-12074318D01*
X81425476Y-12074318D02*
X81244047Y-12013842D01*
X81244047Y-12013842D02*
X81123095Y-11892889D01*
X81123095Y-11892889D02*
X81062618Y-11771937D01*
X81062618Y-11771937D02*
X81002142Y-11530032D01*
X81002142Y-11530032D02*
X81002142Y-11348603D01*
X81002142Y-11348603D02*
X81062618Y-11106699D01*
X81062618Y-11106699D02*
X81123095Y-10985746D01*
X81123095Y-10985746D02*
X81244047Y-10864794D01*
X81244047Y-10864794D02*
X81425476Y-10804318D01*
X81425476Y-10804318D02*
X81546428Y-10804318D01*
X81546428Y-10804318D02*
X81727857Y-10864794D01*
X81727857Y-10864794D02*
X81788333Y-10925270D01*
X82211666Y-10804318D02*
X83058333Y-10804318D01*
X83058333Y-10804318D02*
X82514047Y-12074318D01*
X23953365Y183571D02*
X24013842Y123095D01*
X24013842Y123095D02*
X24074318Y-58333D01*
X24074318Y-58333D02*
X24074318Y-179285D01*
X24074318Y-179285D02*
X24013842Y-360714D01*
X24013842Y-360714D02*
X23892889Y-481666D01*
X23892889Y-481666D02*
X23771937Y-542143D01*
X23771937Y-542143D02*
X23530032Y-602619D01*
X23530032Y-602619D02*
X23348603Y-602619D01*
X23348603Y-602619D02*
X23106699Y-542143D01*
X23106699Y-542143D02*
X22985746Y-481666D01*
X22985746Y-481666D02*
X22864794Y-360714D01*
X22864794Y-360714D02*
X22804318Y-179285D01*
X22804318Y-179285D02*
X22804318Y-58333D01*
X22804318Y-58333D02*
X22864794Y123095D01*
X22864794Y123095D02*
X22925270Y183571D01*
X24074318Y1393095D02*
X24074318Y667380D01*
X24074318Y1030237D02*
X22804318Y1030237D01*
X22804318Y1030237D02*
X22985746Y909285D01*
X22985746Y909285D02*
X23106699Y788333D01*
X23106699Y788333D02*
X23167175Y667380D01*
X24074318Y2602619D02*
X24074318Y1876904D01*
X24074318Y2239761D02*
X22804318Y2239761D01*
X22804318Y2239761D02*
X22985746Y2118809D01*
X22985746Y2118809D02*
X23106699Y1997857D01*
X23106699Y1997857D02*
X23167175Y1876904D01*
X16953365Y-5816428D02*
X17013842Y-5876904D01*
X17013842Y-5876904D02*
X17074318Y-6058333D01*
X17074318Y-6058333D02*
X17074318Y-6179285D01*
X17074318Y-6179285D02*
X17013842Y-6360714D01*
X17013842Y-6360714D02*
X16892889Y-6481666D01*
X16892889Y-6481666D02*
X16771937Y-6542143D01*
X16771937Y-6542143D02*
X16530032Y-6602619D01*
X16530032Y-6602619D02*
X16348603Y-6602619D01*
X16348603Y-6602619D02*
X16106699Y-6542143D01*
X16106699Y-6542143D02*
X15985746Y-6481666D01*
X15985746Y-6481666D02*
X15864794Y-6360714D01*
X15864794Y-6360714D02*
X15804318Y-6179285D01*
X15804318Y-6179285D02*
X15804318Y-6058333D01*
X15804318Y-6058333D02*
X15864794Y-5876904D01*
X15864794Y-5876904D02*
X15925270Y-5816428D01*
X17074318Y-4606904D02*
X17074318Y-5332619D01*
X17074318Y-4969762D02*
X15804318Y-4969762D01*
X15804318Y-4969762D02*
X15985746Y-5090714D01*
X15985746Y-5090714D02*
X16106699Y-5211666D01*
X16106699Y-5211666D02*
X16167175Y-5332619D01*
X15804318Y-3820714D02*
X15804318Y-3699761D01*
X15804318Y-3699761D02*
X15864794Y-3578809D01*
X15864794Y-3578809D02*
X15925270Y-3518333D01*
X15925270Y-3518333D02*
X16046222Y-3457857D01*
X16046222Y-3457857D02*
X16288127Y-3397380D01*
X16288127Y-3397380D02*
X16590508Y-3397380D01*
X16590508Y-3397380D02*
X16832413Y-3457857D01*
X16832413Y-3457857D02*
X16953365Y-3518333D01*
X16953365Y-3518333D02*
X17013842Y-3578809D01*
X17013842Y-3578809D02*
X17074318Y-3699761D01*
X17074318Y-3699761D02*
X17074318Y-3820714D01*
X17074318Y-3820714D02*
X17013842Y-3941666D01*
X17013842Y-3941666D02*
X16953365Y-4002142D01*
X16953365Y-4002142D02*
X16832413Y-4062619D01*
X16832413Y-4062619D02*
X16590508Y-4123095D01*
X16590508Y-4123095D02*
X16288127Y-4123095D01*
X16288127Y-4123095D02*
X16046222Y-4062619D01*
X16046222Y-4062619D02*
X15925270Y-4002142D01*
X15925270Y-4002142D02*
X15864794Y-3941666D01*
X15864794Y-3941666D02*
X15804318Y-3820714D01*
X50453365Y-49711666D02*
X50513842Y-49772142D01*
X50513842Y-49772142D02*
X50574318Y-49953571D01*
X50574318Y-49953571D02*
X50574318Y-50074523D01*
X50574318Y-50074523D02*
X50513842Y-50255952D01*
X50513842Y-50255952D02*
X50392889Y-50376904D01*
X50392889Y-50376904D02*
X50271937Y-50437381D01*
X50271937Y-50437381D02*
X50030032Y-50497857D01*
X50030032Y-50497857D02*
X49848603Y-50497857D01*
X49848603Y-50497857D02*
X49606699Y-50437381D01*
X49606699Y-50437381D02*
X49485746Y-50376904D01*
X49485746Y-50376904D02*
X49364794Y-50255952D01*
X49364794Y-50255952D02*
X49304318Y-50074523D01*
X49304318Y-50074523D02*
X49304318Y-49953571D01*
X49304318Y-49953571D02*
X49364794Y-49772142D01*
X49364794Y-49772142D02*
X49425270Y-49711666D01*
X50574318Y-49106904D02*
X50574318Y-48865000D01*
X50574318Y-48865000D02*
X50513842Y-48744047D01*
X50513842Y-48744047D02*
X50453365Y-48683571D01*
X50453365Y-48683571D02*
X50271937Y-48562619D01*
X50271937Y-48562619D02*
X50030032Y-48502142D01*
X50030032Y-48502142D02*
X49546222Y-48502142D01*
X49546222Y-48502142D02*
X49425270Y-48562619D01*
X49425270Y-48562619D02*
X49364794Y-48623095D01*
X49364794Y-48623095D02*
X49304318Y-48744047D01*
X49304318Y-48744047D02*
X49304318Y-48985952D01*
X49304318Y-48985952D02*
X49364794Y-49106904D01*
X49364794Y-49106904D02*
X49425270Y-49167381D01*
X49425270Y-49167381D02*
X49546222Y-49227857D01*
X49546222Y-49227857D02*
X49848603Y-49227857D01*
X49848603Y-49227857D02*
X49969556Y-49167381D01*
X49969556Y-49167381D02*
X50030032Y-49106904D01*
X50030032Y-49106904D02*
X50090508Y-48985952D01*
X50090508Y-48985952D02*
X50090508Y-48744047D01*
X50090508Y-48744047D02*
X50030032Y-48623095D01*
X50030032Y-48623095D02*
X49969556Y-48562619D01*
X49969556Y-48562619D02*
X49848603Y-48502142D01*
X51953365Y-20711666D02*
X52013842Y-20772142D01*
X52013842Y-20772142D02*
X52074318Y-20953571D01*
X52074318Y-20953571D02*
X52074318Y-21074523D01*
X52074318Y-21074523D02*
X52013842Y-21255952D01*
X52013842Y-21255952D02*
X51892889Y-21376904D01*
X51892889Y-21376904D02*
X51771937Y-21437381D01*
X51771937Y-21437381D02*
X51530032Y-21497857D01*
X51530032Y-21497857D02*
X51348603Y-21497857D01*
X51348603Y-21497857D02*
X51106699Y-21437381D01*
X51106699Y-21437381D02*
X50985746Y-21376904D01*
X50985746Y-21376904D02*
X50864794Y-21255952D01*
X50864794Y-21255952D02*
X50804318Y-21074523D01*
X50804318Y-21074523D02*
X50804318Y-20953571D01*
X50804318Y-20953571D02*
X50864794Y-20772142D01*
X50864794Y-20772142D02*
X50925270Y-20711666D01*
X50804318Y-19623095D02*
X50804318Y-19865000D01*
X50804318Y-19865000D02*
X50864794Y-19985952D01*
X50864794Y-19985952D02*
X50925270Y-20046428D01*
X50925270Y-20046428D02*
X51106699Y-20167381D01*
X51106699Y-20167381D02*
X51348603Y-20227857D01*
X51348603Y-20227857D02*
X51832413Y-20227857D01*
X51832413Y-20227857D02*
X51953365Y-20167381D01*
X51953365Y-20167381D02*
X52013842Y-20106904D01*
X52013842Y-20106904D02*
X52074318Y-19985952D01*
X52074318Y-19985952D02*
X52074318Y-19744047D01*
X52074318Y-19744047D02*
X52013842Y-19623095D01*
X52013842Y-19623095D02*
X51953365Y-19562619D01*
X51953365Y-19562619D02*
X51832413Y-19502142D01*
X51832413Y-19502142D02*
X51530032Y-19502142D01*
X51530032Y-19502142D02*
X51409080Y-19562619D01*
X51409080Y-19562619D02*
X51348603Y-19623095D01*
X51348603Y-19623095D02*
X51288127Y-19744047D01*
X51288127Y-19744047D02*
X51288127Y-19985952D01*
X51288127Y-19985952D02*
X51348603Y-20106904D01*
X51348603Y-20106904D02*
X51409080Y-20167381D01*
X51409080Y-20167381D02*
X51530032Y-20227857D01*
D13*
X49238095Y-57454819D02*
X49238095Y-56454819D01*
X49238095Y-56931009D02*
X49809523Y-56931009D01*
X49809523Y-57454819D02*
X49809523Y-56454819D01*
X50809523Y-57454819D02*
X50238095Y-57454819D01*
X50523809Y-57454819D02*
X50523809Y-56454819D01*
X50523809Y-56454819D02*
X50428571Y-56597676D01*
X50428571Y-56597676D02*
X50333333Y-56692914D01*
X50333333Y-56692914D02*
X50238095Y-56740533D01*
D14*
X43453365Y-49711666D02*
X43513842Y-49772142D01*
X43513842Y-49772142D02*
X43574318Y-49953571D01*
X43574318Y-49953571D02*
X43574318Y-50074523D01*
X43574318Y-50074523D02*
X43513842Y-50255952D01*
X43513842Y-50255952D02*
X43392889Y-50376904D01*
X43392889Y-50376904D02*
X43271937Y-50437381D01*
X43271937Y-50437381D02*
X43030032Y-50497857D01*
X43030032Y-50497857D02*
X42848603Y-50497857D01*
X42848603Y-50497857D02*
X42606699Y-50437381D01*
X42606699Y-50437381D02*
X42485746Y-50376904D01*
X42485746Y-50376904D02*
X42364794Y-50255952D01*
X42364794Y-50255952D02*
X42304318Y-50074523D01*
X42304318Y-50074523D02*
X42304318Y-49953571D01*
X42304318Y-49953571D02*
X42364794Y-49772142D01*
X42364794Y-49772142D02*
X42425270Y-49711666D01*
X42848603Y-48985952D02*
X42788127Y-49106904D01*
X42788127Y-49106904D02*
X42727651Y-49167381D01*
X42727651Y-49167381D02*
X42606699Y-49227857D01*
X42606699Y-49227857D02*
X42546222Y-49227857D01*
X42546222Y-49227857D02*
X42425270Y-49167381D01*
X42425270Y-49167381D02*
X42364794Y-49106904D01*
X42364794Y-49106904D02*
X42304318Y-48985952D01*
X42304318Y-48985952D02*
X42304318Y-48744047D01*
X42304318Y-48744047D02*
X42364794Y-48623095D01*
X42364794Y-48623095D02*
X42425270Y-48562619D01*
X42425270Y-48562619D02*
X42546222Y-48502142D01*
X42546222Y-48502142D02*
X42606699Y-48502142D01*
X42606699Y-48502142D02*
X42727651Y-48562619D01*
X42727651Y-48562619D02*
X42788127Y-48623095D01*
X42788127Y-48623095D02*
X42848603Y-48744047D01*
X42848603Y-48744047D02*
X42848603Y-48985952D01*
X42848603Y-48985952D02*
X42909080Y-49106904D01*
X42909080Y-49106904D02*
X42969556Y-49167381D01*
X42969556Y-49167381D02*
X43090508Y-49227857D01*
X43090508Y-49227857D02*
X43332413Y-49227857D01*
X43332413Y-49227857D02*
X43453365Y-49167381D01*
X43453365Y-49167381D02*
X43513842Y-49106904D01*
X43513842Y-49106904D02*
X43574318Y-48985952D01*
X43574318Y-48985952D02*
X43574318Y-48744047D01*
X43574318Y-48744047D02*
X43513842Y-48623095D01*
X43513842Y-48623095D02*
X43453365Y-48562619D01*
X43453365Y-48562619D02*
X43332413Y-48502142D01*
X43332413Y-48502142D02*
X43090508Y-48502142D01*
X43090508Y-48502142D02*
X42969556Y-48562619D01*
X42969556Y-48562619D02*
X42909080Y-48623095D01*
X42909080Y-48623095D02*
X42848603Y-48744047D01*
D13*
X49238095Y-29454819D02*
X49238095Y-28454819D01*
X49238095Y-28931009D02*
X49809523Y-28931009D01*
X49809523Y-29454819D02*
X49809523Y-28454819D01*
X50238095Y-28550057D02*
X50285714Y-28502438D01*
X50285714Y-28502438D02*
X50380952Y-28454819D01*
X50380952Y-28454819D02*
X50619047Y-28454819D01*
X50619047Y-28454819D02*
X50714285Y-28502438D01*
X50714285Y-28502438D02*
X50761904Y-28550057D01*
X50761904Y-28550057D02*
X50809523Y-28645295D01*
X50809523Y-28645295D02*
X50809523Y-28740533D01*
X50809523Y-28740533D02*
X50761904Y-28883390D01*
X50761904Y-28883390D02*
X50190476Y-29454819D01*
X50190476Y-29454819D02*
X50809523Y-29454819D01*
D14*
X56603365Y-69186666D02*
X56663842Y-69247142D01*
X56663842Y-69247142D02*
X56724318Y-69428571D01*
X56724318Y-69428571D02*
X56724318Y-69549523D01*
X56724318Y-69549523D02*
X56663842Y-69730952D01*
X56663842Y-69730952D02*
X56542889Y-69851904D01*
X56542889Y-69851904D02*
X56421937Y-69912381D01*
X56421937Y-69912381D02*
X56180032Y-69972857D01*
X56180032Y-69972857D02*
X55998603Y-69972857D01*
X55998603Y-69972857D02*
X55756699Y-69912381D01*
X55756699Y-69912381D02*
X55635746Y-69851904D01*
X55635746Y-69851904D02*
X55514794Y-69730952D01*
X55514794Y-69730952D02*
X55454318Y-69549523D01*
X55454318Y-69549523D02*
X55454318Y-69428571D01*
X55454318Y-69428571D02*
X55514794Y-69247142D01*
X55514794Y-69247142D02*
X55575270Y-69186666D01*
X55575270Y-68702857D02*
X55514794Y-68642381D01*
X55514794Y-68642381D02*
X55454318Y-68521428D01*
X55454318Y-68521428D02*
X55454318Y-68219047D01*
X55454318Y-68219047D02*
X55514794Y-68098095D01*
X55514794Y-68098095D02*
X55575270Y-68037619D01*
X55575270Y-68037619D02*
X55696222Y-67977142D01*
X55696222Y-67977142D02*
X55817175Y-67977142D01*
X55817175Y-67977142D02*
X55998603Y-68037619D01*
X55998603Y-68037619D02*
X56724318Y-68763333D01*
X56724318Y-68763333D02*
X56724318Y-67977142D01*
D13*
X17238095Y6545180D02*
X17238095Y7545180D01*
X17238095Y7068990D02*
X17809523Y7068990D01*
X17809523Y6545180D02*
X17809523Y7545180D01*
X18714285Y7211847D02*
X18714285Y6545180D01*
X18476190Y7592800D02*
X18238095Y6878514D01*
X18238095Y6878514D02*
X18857142Y6878514D01*
D11*
%TO.C,C1*%
X7000000Y-16500000D02*
X40000000Y-16500000D01*
X7000000Y-74000000D02*
X7000000Y-16500000D01*
D15*
X33650000Y-74500000D02*
X33650000Y-74500000D01*
X33650000Y-74600000D02*
X33650000Y-74600000D01*
D11*
X40000000Y-16500000D02*
X40000000Y-74000000D01*
X40000000Y-74000000D02*
X7000000Y-74000000D01*
D15*
X33650000Y-74500000D02*
G75*
G02*
X33650000Y-74600000I0J-50000D01*
G01*
X33650000Y-74600000D02*
G75*
G02*
X33650000Y-74500000I0J50000D01*
G01*
%TO.C,C5*%
X73500000Y3000000D02*
X78500000Y3000000D01*
X73500000Y-9000000D02*
X73500000Y3000000D01*
X78500000Y3000000D02*
X78500000Y-9000000D01*
X78500000Y-9000000D02*
X73500000Y-9000000D01*
%TO.C,C7*%
X76000000Y-10500000D02*
X88000000Y-10500000D01*
X76000000Y-15500000D02*
X76000000Y-10500000D01*
X88000000Y-10500000D02*
X88000000Y-15500000D01*
X88000000Y-15500000D02*
X76000000Y-15500000D01*
%TO.C,C11*%
X22500000Y7000000D02*
X27500000Y7000000D01*
X22500000Y-5000000D02*
X22500000Y7000000D01*
X27500000Y7000000D02*
X27500000Y-5000000D01*
X27500000Y-5000000D02*
X22500000Y-5000000D01*
%TO.C,C10*%
X15500000Y1000000D02*
X20500000Y1000000D01*
X15500000Y-11000000D02*
X15500000Y1000000D01*
X20500000Y1000000D02*
X20500000Y-11000000D01*
X20500000Y-11000000D02*
X15500000Y-11000000D01*
%TO.C,C9*%
X49000000Y-43500000D02*
X54000000Y-43500000D01*
X49000000Y-55500000D02*
X49000000Y-43500000D01*
X54000000Y-43500000D02*
X54000000Y-55500000D01*
X54000000Y-55500000D02*
X49000000Y-55500000D01*
%TO.C,C6*%
X47500000Y-14500000D02*
X52500000Y-14500000D01*
X47500000Y-26500000D02*
X47500000Y-14500000D01*
X52500000Y-14500000D02*
X52500000Y-26500000D01*
X52500000Y-26500000D02*
X47500000Y-26500000D01*
%TO.C,C8*%
X42000000Y-43500000D02*
X47000000Y-43500000D01*
X42000000Y-55500000D02*
X42000000Y-43500000D01*
X47000000Y-43500000D02*
X47000000Y-55500000D01*
X47000000Y-55500000D02*
X42000000Y-55500000D01*
%TO.C,C2*%
X83650000Y-75075000D02*
G75*
G02*
X83650000Y-74975000I0J50000D01*
G01*
X83650000Y-74975000D02*
G75*
G02*
X83650000Y-75075000I0J-50000D01*
G01*
D11*
X90000000Y-74475000D02*
X57000000Y-74475000D01*
X90000000Y-16975000D02*
X90000000Y-74475000D01*
D15*
X83650000Y-75075000D02*
X83650000Y-75075000D01*
X83650000Y-74975000D02*
X83650000Y-74975000D01*
D11*
X57000000Y-74475000D02*
X57000000Y-16975000D01*
X57000000Y-16975000D02*
X90000000Y-16975000D01*
%TD*%
D16*
%TO.C,C1*%
X33650000Y-71500000D03*
D17*
X33650000Y-19000000D03*
X13350000Y-71500000D03*
X13350000Y-19000000D03*
%TD*%
%TO.C,C2*%
X63350000Y-19475000D03*
X63350000Y-71975000D03*
X83650000Y-19475000D03*
D16*
X83650000Y-71975000D03*
%TD*%
M02*
