M48
; DRILL file {KiCad 9.0.1} date 2026-02-07T11:28:20-0800
; FORMAT={-:-/ absolute / metric / decimal}
; #@! TF.CreationDate,2026-02-07T11:28:20-08:00
; #@! TF.GenerationSoftware,Kicad,Pcbnew,9.0.1
; #@! TF.FileFunction,Plated,1,4,PTH
FMAT,2
METRIC
; #@! TA.AperFunction,Plated,PTH,ViaDrill
T1C0.500
; #@! TA.AperFunction,Plated,PTH,ComponentDrill
T2C0.850
; #@! TA.AperFunction,Plated,PTH,ComponentDrill
T3C1.400
; #@! TA.AperFunction,Plated,PTH,ComponentDrill
T4C1.600
; #@! TA.AperFunction,Plated,PTH,ComponentDrill
T5C3.200
; #@! TA.AperFunction,Plated,PTH,ComponentDrill
T6C6.400
%
G90
G05
T1
X32.5Y-29.5
X32.5Y-31.5
X32.5Y-33.5
X32.5Y-35.5
X32.5Y-37.5
X32.5Y-39.5
X32.5Y-41.5
X33.5Y-28.5
X33.5Y-30.5
X33.5Y-32.5
X33.5Y-34.5
X33.5Y-36.5
X33.5Y-38.5
X33.5Y-40.5
X33.5Y-69.5
X34.0Y-58.0
X34.0Y-60.0
X34.0Y-62.0
X34.0Y-64.0
X34.0Y-66.0
X34.0Y-68.0
X34.5Y-29.5
X34.5Y-31.5
X34.5Y-33.5
X34.5Y-35.5
X34.5Y-37.5
X34.5Y-39.5
X34.5Y-41.5
X35.0Y-57.0
X35.0Y-59.0
X35.0Y-61.0
X35.0Y-63.0
X35.0Y-65.0
X35.0Y-67.0
X35.0Y-69.0
X35.5Y-28.5
X35.5Y-30.5
X35.5Y-32.5
X35.5Y-34.5
X35.5Y-36.5
X35.5Y-38.5
X35.5Y-40.5
X36.0Y-58.0
X36.0Y-60.0
X36.0Y-62.0
X36.0Y-64.0
X36.0Y-66.0
X36.0Y-68.0
X36.0Y-70.0
X36.5Y-29.5
X36.5Y-31.5
X36.5Y-33.5
X36.5Y-35.5
X36.5Y-37.5
X36.5Y-39.5
X36.5Y-41.5
X37.0Y-57.0
X37.0Y-59.0
X37.0Y-61.0
X37.0Y-63.0
X37.0Y-65.0
X37.0Y-67.0
X37.0Y-69.0
X37.5Y-28.5
X37.5Y-30.5
X37.5Y-32.5
X37.5Y-34.5
X37.5Y-36.5
X37.5Y-38.5
X37.5Y-40.5
X38.0Y-58.0
X38.0Y-60.0
X38.0Y-62.0
X38.0Y-64.0
X38.0Y-66.0
X38.0Y-68.0
X38.0Y-70.0
X38.5Y-29.5
X38.5Y-31.5
X38.5Y-33.5
X38.5Y-35.5
X38.5Y-37.5
X38.5Y-39.5
X38.5Y-41.5
X39.0Y-57.0
X39.0Y-59.0
X39.0Y-61.0
X39.0Y-63.0
X39.0Y-65.0
X39.0Y-67.0
X39.0Y-69.0
X39.5Y-28.5
X39.5Y-30.5
X39.5Y-32.5
X39.5Y-34.5
X39.5Y-36.5
X39.5Y-38.5
X39.5Y-40.5
X40.0Y-58.0
X40.0Y-60.0
X40.0Y-62.0
X40.0Y-64.0
X40.0Y-66.0
X40.0Y-68.0
X40.0Y-70.0
X40.5Y-29.5
X40.5Y-31.5
X40.5Y-33.5
X40.5Y-35.5
X40.5Y-37.5
X40.5Y-39.5
X40.5Y-41.5
X41.0Y-57.0
X41.0Y-59.0
X41.0Y-61.0
X41.0Y-63.0
X41.0Y-65.0
X41.0Y-67.0
X41.0Y-69.0
X41.5Y-28.5
X41.5Y-30.5
X41.5Y-32.5
X41.5Y-34.5
X41.5Y-36.5
X41.5Y-38.5
X41.5Y-40.5
X42.0Y-58.0
X42.0Y-60.0
X42.0Y-62.0
X42.0Y-64.0
X42.0Y-66.0
X42.0Y-68.0
X42.0Y-70.0
X43.0Y-57.0
X43.0Y-59.0
X43.0Y-61.0
X43.0Y-63.0
X43.0Y-65.0
X43.0Y-67.0
X43.0Y-69.0
X57.5Y-29.5
X57.5Y-31.5
X57.5Y-33.5
X57.5Y-35.5
X57.5Y-37.5
X57.5Y-39.5
X57.5Y-41.5
X57.5Y-58.0
X57.5Y-60.0
X57.5Y-62.0
X57.5Y-64.0
X57.5Y-66.0
X57.5Y-68.0
X57.5Y-70.0
X58.5Y-28.5
X58.5Y-30.5
X58.5Y-32.5
X58.5Y-34.5
X58.5Y-36.5
X58.5Y-38.5
X58.5Y-40.5
X58.5Y-57.0
X58.5Y-59.0
X58.5Y-61.0
X58.5Y-63.0
X58.5Y-65.0
X58.5Y-67.0
X58.5Y-69.0
X59.5Y-29.5
X59.5Y-31.5
X59.5Y-33.5
X59.5Y-35.5
X59.5Y-37.5
X59.5Y-39.5
X59.5Y-41.5
X59.5Y-58.0
X59.5Y-60.0
X59.5Y-62.0
X59.5Y-64.0
X59.5Y-66.0
X59.5Y-68.0
X59.5Y-70.0
X60.5Y-28.5
X60.5Y-30.5
X60.5Y-32.5
X60.5Y-34.5
X60.5Y-36.5
X60.5Y-38.5
X60.5Y-40.5
X60.5Y-57.0
X60.5Y-59.0
X60.5Y-61.0
X60.5Y-63.0
X60.5Y-65.0
X60.5Y-67.0
X60.5Y-69.0
X61.5Y-29.5
X61.5Y-31.5
X61.5Y-33.5
X61.5Y-35.5
X61.5Y-37.5
X61.5Y-39.5
X61.5Y-41.5
X61.5Y-58.0
X61.5Y-60.0
X61.5Y-62.0
X61.5Y-64.0
X61.5Y-66.0
X61.5Y-68.0
X61.5Y-70.0
X62.5Y-28.5
X62.5Y-30.5
X62.5Y-32.5
X62.5Y-34.5
X62.5Y-36.5
X62.5Y-38.5
X62.5Y-40.5
X62.5Y-57.0
X62.5Y-59.0
X62.5Y-61.0
X62.5Y-63.0
X62.5Y-65.0
X62.5Y-67.0
X62.5Y-69.0
X63.5Y-29.5
X63.5Y-31.5
X63.5Y-33.5
X63.5Y-35.5
X63.5Y-37.5
X63.5Y-39.5
X63.5Y-41.5
X63.5Y-58.0
X63.5Y-60.0
X63.5Y-62.0
X63.5Y-64.0
X63.5Y-66.0
X63.5Y-68.0
X63.5Y-70.0
X64.5Y-28.5
X64.5Y-30.5
X64.5Y-32.5
X64.5Y-34.5
X64.5Y-36.5
X64.5Y-38.5
X64.5Y-40.5
X64.5Y-57.0
X64.5Y-59.0
X64.5Y-61.0
X64.5Y-63.0
X64.5Y-65.0
X64.5Y-67.0
X64.5Y-69.0
X65.5Y-29.5
X65.5Y-31.5
X65.5Y-33.5
X65.5Y-35.5
X65.5Y-37.5
X65.5Y-39.5
X65.5Y-41.5
X65.5Y-58.0
X65.5Y-60.0
X65.5Y-62.0
X65.5Y-64.0
X65.5Y-66.0
X65.5Y-68.0
X65.5Y-70.0
X66.5Y-28.5
X66.5Y-30.5
X66.5Y-32.5
X66.5Y-34.5
X66.5Y-36.5
X66.5Y-38.5
X66.5Y-40.5
X66.5Y-57.0
X66.5Y-59.0
X66.5Y-61.0
X66.5Y-63.0
X66.5Y-65.0
X66.5Y-67.0
X66.5Y-69.0
T2
X18.0Y0.0
X18.0Y-10.0
X25.0Y6.0
X25.0Y-4.0
X44.5Y-44.5
X44.5Y-54.5
X50.0Y-15.5
X50.0Y-25.5
X51.5Y-44.5
X51.5Y-54.5
X76.0Y2.0
X76.0Y-8.0
X77.0Y-13.0
X87.0Y-13.0
T3
X13.35Y-19.0
X13.35Y-71.5
X33.65Y-19.0
X33.65Y-71.5
X63.35Y-19.475
X63.35Y-71.975
X83.65Y-19.475
X83.65Y-71.975
T4
X5.0Y-2.5
X5.0Y-7.58
X5.0Y-12.66
X5.0Y-17.74
T5
X14.0Y5.0
X87.0Y0.0
T6
X50.0Y-7.0
X50.0Y-35.0
X50.0Y-63.0
M30
