ISO-10303-21;
HEADER;
FILE_DESCRIPTION(('FreeCAD Model'),'2;1');
FILE_NAME('Open CASCADE Shape Model','2026-07-15T20:13:23',(''),(''),
  'Open CASCADE STEP processor 7.8','FreeCAD','Unknown');
FILE_SCHEMA(('AUTOMOTIVE_DESIGN { 1 0 10303 214 1 1 1 1 }'));
ENDSEC;
DATA;
#1 = APPLICATION_PROTOCOL_DEFINITION('international standard',
  'automotive_design',2000,#2);
#2 = APPLICATION_CONTEXT(
  'core data for automotive mechanical design processes');
#3 = SHAPE_DEFINITION_REPRESENTATION(#4,#10);
#4 = PRODUCT_DEFINITION_SHAPE('','',#5);
#5 = PRODUCT_DEFINITION('design','',#6,#9);
#6 = PRODUCT_DEFINITION_FORMATION('','',#7);
#7 = PRODUCT('DCLinkBusBar','DCLinkBusBar','',(#8));
#8 = PRODUCT_CONTEXT('',#2,'mechanical');
#9 = PRODUCT_DEFINITION_CONTEXT('part definition',#2,'design');
#10 = ADVANCED_BREP_SHAPE_REPRESENTATION('',(#11,#15),#457);
#11 = AXIS2_PLACEMENT_3D('',#12,#13,#14);
#12 = CARTESIAN_POINT('',(0.,0.,0.));
#13 = DIRECTION('',(0.,0.,1.));
#14 = DIRECTION('',(1.,0.,-0.));
#15 = MANIFOLD_SOLID_BREP('',#16);
#16 = CLOSED_SHELL('',(#17,#90,#121,#179,#237,#254,#279,#304,#329,#355,
    #383,#400,#428,#440));
#17 = ADVANCED_FACE('',(#18,#52,#63,#74),#85,.T.);
#18 = FACE_BOUND('',#19,.T.);
#19 = EDGE_LOOP('',(#20,#30,#38,#46));
#20 = ORIENTED_EDGE('',*,*,#21,.T.);
#21 = EDGE_CURVE('',#22,#24,#26,.T.);
#22 = VERTEX_POINT('',#23);
#23 = CARTESIAN_POINT('',(260.,0.,5.000000000024));
#24 = VERTEX_POINT('',#25);
#25 = CARTESIAN_POINT('',(260.,14.,5.000000000024));
#26 = LINE('',#27,#28);
#27 = CARTESIAN_POINT('',(260.,1.11E-15,5.000000000024));
#28 = VECTOR('',#29,1.);
#29 = DIRECTION('',(0.,1.,-2.2E-16));
#30 = ORIENTED_EDGE('',*,*,#31,.T.);
#31 = EDGE_CURVE('',#24,#32,#34,.T.);
#32 = VERTEX_POINT('',#33);
#33 = CARTESIAN_POINT('',(17.000000058845,14.,5.000000000024));
#34 = LINE('',#35,#36);
#35 = CARTESIAN_POINT('',(260.,14.,5.000000000024));
#36 = VECTOR('',#37,1.);
#37 = DIRECTION('',(-1.,0.,0.));
#38 = ORIENTED_EDGE('',*,*,#39,.F.);
#39 = EDGE_CURVE('',#40,#32,#42,.T.);
#40 = VERTEX_POINT('',#41);
#41 = CARTESIAN_POINT('',(17.000000058845,0.,5.000000000024));
#42 = LINE('',#43,#44);
#43 = CARTESIAN_POINT('',(17.000000058845,1.11E-15,5.000000000024));
#44 = VECTOR('',#45,1.);
#45 = DIRECTION('',(0.,1.,-2.2E-16));
#46 = ORIENTED_EDGE('',*,*,#47,.F.);
#47 = EDGE_CURVE('',#22,#40,#48,.T.);
#48 = LINE('',#49,#50);
#49 = CARTESIAN_POINT('',(260.,-1.11E-15,5.000000000024));
#50 = VECTOR('',#51,1.);
#51 = DIRECTION('',(-1.,0.,0.));
#52 = FACE_BOUND('',#53,.T.);
#53 = EDGE_LOOP('',(#54));
#54 = ORIENTED_EDGE('',*,*,#55,.T.);
#55 = EDGE_CURVE('',#56,#56,#58,.T.);
#56 = VERTEX_POINT('',#57);
#57 = CARTESIAN_POINT('',(253.25,7.,5.000000000024));
#58 = CIRCLE('',#59,3.25);
#59 = AXIS2_PLACEMENT_3D('',#60,#61,#62);
#60 = CARTESIAN_POINT('',(250.,7.,5.000000000024));
#61 = DIRECTION('',(0.,0.,-1.));
#62 = DIRECTION('',(1.,0.,0.));
#63 = FACE_BOUND('',#64,.T.);
#64 = EDGE_LOOP('',(#65));
#65 = ORIENTED_EDGE('',*,*,#66,.T.);
#66 = EDGE_CURVE('',#67,#67,#69,.T.);
#67 = VERTEX_POINT('',#68);
#68 = CARTESIAN_POINT('',(163.25,7.,5.000000000024));
#69 = CIRCLE('',#70,3.25);
#70 = AXIS2_PLACEMENT_3D('',#71,#72,#73);
#71 = CARTESIAN_POINT('',(160.,7.,5.000000000024));
#72 = DIRECTION('',(0.,0.,-1.));
#73 = DIRECTION('',(1.,0.,0.));
#74 = FACE_BOUND('',#75,.T.);
#75 = EDGE_LOOP('',(#76));
#76 = ORIENTED_EDGE('',*,*,#77,.T.);
#77 = EDGE_CURVE('',#78,#78,#80,.T.);
#78 = VERTEX_POINT('',#79);
#79 = CARTESIAN_POINT('',(73.25,7.,5.000000000024));
#80 = CIRCLE('',#81,3.25);
#81 = AXIS2_PLACEMENT_3D('',#82,#83,#84);
#82 = CARTESIAN_POINT('',(70.,7.,5.000000000024));
#83 = DIRECTION('',(0.,0.,-1.));
#84 = DIRECTION('',(1.,0.,0.));
#85 = PLANE('',#86);
#86 = AXIS2_PLACEMENT_3D('',#87,#88,#89);
#87 = CARTESIAN_POINT('',(260.,1.11E-15,5.000000000024));
#88 = DIRECTION('',(0.,2.2E-16,1.));
#89 = DIRECTION('',(-1.,0.,0.));
#90 = ADVANCED_FACE('',(#91),#116,.T.);
#91 = FACE_BOUND('',#92,.T.);
#92 = EDGE_LOOP('',(#93,#103,#109,#110));
#93 = ORIENTED_EDGE('',*,*,#94,.T.);
#94 = EDGE_CURVE('',#95,#97,#99,.T.);
#95 = VERTEX_POINT('',#96);
#96 = CARTESIAN_POINT('',(260.,0.,-1.42E-13));
#97 = VERTEX_POINT('',#98);
#98 = CARTESIAN_POINT('',(260.,14.,-1.42E-13));
#99 = LINE('',#100,#101);
#100 = CARTESIAN_POINT('',(260.,0.,-1.4211E-13));
#101 = VECTOR('',#102,1.);
#102 = DIRECTION('',(0.,1.,-2.2E-16));
#103 = ORIENTED_EDGE('',*,*,#104,.T.);
#104 = EDGE_CURVE('',#97,#24,#105,.T.);
#105 = LINE('',#106,#107);
#106 = CARTESIAN_POINT('',(260.,14.,-1.385558334732E-13));
#107 = VECTOR('',#108,1.);
#108 = DIRECTION('',(0.,-2.2E-16,1.));
#109 = ORIENTED_EDGE('',*,*,#21,.F.);
#110 = ORIENTED_EDGE('',*,*,#111,.F.);
#111 = EDGE_CURVE('',#95,#22,#112,.T.);
#112 = LINE('',#113,#114);
#113 = CARTESIAN_POINT('',(260.,0.,-1.4211E-13));
#114 = VECTOR('',#115,1.);
#115 = DIRECTION('',(0.,-2.2E-16,1.));
#116 = PLANE('',#117);
#117 = AXIS2_PLACEMENT_3D('',#118,#119,#120);
#118 = CARTESIAN_POINT('',(260.,0.,-1.4211E-13));
#119 = DIRECTION('',(1.,0.,0.));
#120 = DIRECTION('',(0.,2.2E-16,1.));
#121 = ADVANCED_FACE('',(#122),#174,.F.);
#122 = FACE_BOUND('',#123,.T.);
#123 = EDGE_LOOP('',(#124,#125,#134,#142,#150,#158,#167,#173));
#124 = ORIENTED_EDGE('',*,*,#47,.T.);
#125 = ORIENTED_EDGE('',*,*,#126,.F.);
#126 = EDGE_CURVE('',#127,#40,#129,.T.);
#127 = VERTEX_POINT('',#128);
#128 = CARTESIAN_POINT('',(14.,0.,7.99999896077));
#129 = CIRCLE('',#130,2.999999999973);
#130 = AXIS2_PLACEMENT_3D('',#131,#132,#133);
#131 = CARTESIAN_POINT('',(16.999999999973,-1.78E-15,7.999999999996));
#132 = DIRECTION('',(0.,-1.,-2.2E-16));
#133 = DIRECTION('',(1.,0.,0.));
#134 = ORIENTED_EDGE('',*,*,#135,.T.);
#135 = EDGE_CURVE('',#127,#136,#138,.T.);
#136 = VERTEX_POINT('',#137);
#137 = CARTESIAN_POINT('',(14.,0.,71.));
#138 = LINE('',#139,#140);
#139 = CARTESIAN_POINT('',(14.,-1.78E-15,7.99999896077));
#140 = VECTOR('',#141,1.);
#141 = DIRECTION('',(0.,-2.2E-16,1.));
#142 = ORIENTED_EDGE('',*,*,#143,.T.);
#143 = EDGE_CURVE('',#136,#144,#146,.T.);
#144 = VERTEX_POINT('',#145);
#145 = CARTESIAN_POINT('',(9.,0.,71.));
#146 = LINE('',#147,#148);
#147 = CARTESIAN_POINT('',(14.,-1.577E-14,71.));
#148 = VECTOR('',#149,1.);
#149 = DIRECTION('',(-1.,0.,0.));
#150 = ORIENTED_EDGE('',*,*,#151,.T.);
#151 = EDGE_CURVE('',#144,#152,#154,.T.);
#152 = VERTEX_POINT('',#153);
#153 = CARTESIAN_POINT('',(9.,0.,7.999997228718));
#154 = LINE('',#155,#156);
#155 = CARTESIAN_POINT('',(9.,-1.577E-14,71.));
#156 = VECTOR('',#157,1.);
#157 = DIRECTION('',(0.,2.2E-16,-1.));
#158 = ORIENTED_EDGE('',*,*,#159,.T.);
#159 = EDGE_CURVE('',#152,#160,#162,.T.);
#160 = VERTEX_POINT('',#161);
#161 = CARTESIAN_POINT('',(17.000000156922,0.,-1.42E-13));
#162 = CIRCLE('',#163,8.);
#163 = AXIS2_PLACEMENT_3D('',#164,#165,#166);
#164 = CARTESIAN_POINT('',(17.,-1.78E-15,8.));
#165 = DIRECTION('',(0.,-1.,-2.2E-16));
#166 = DIRECTION('',(1.,0.,0.));
#167 = ORIENTED_EDGE('',*,*,#168,.T.);
#168 = EDGE_CURVE('',#160,#95,#169,.T.);
#169 = LINE('',#170,#171);
#170 = CARTESIAN_POINT('',(17.000000156922,0.,-1.4211E-13));
#171 = VECTOR('',#172,1.);
#172 = DIRECTION('',(1.,0.,0.));
#173 = ORIENTED_EDGE('',*,*,#111,.T.);
#174 = PLANE('',#175);
#175 = AXIS2_PLACEMENT_3D('',#176,#177,#178);
#176 = CARTESIAN_POINT('',(110.06001749249,0.,10.367438417179));
#177 = DIRECTION('',(0.,1.,2.2E-16));
#178 = DIRECTION('',(0.,-2.2E-16,1.));
#179 = ADVANCED_FACE('',(#180),#232,.T.);
#180 = FACE_BOUND('',#181,.F.);
#181 = EDGE_LOOP('',(#182,#183,#192,#200,#208,#216,#225,#231));
#182 = ORIENTED_EDGE('',*,*,#31,.T.);
#183 = ORIENTED_EDGE('',*,*,#184,.F.);
#184 = EDGE_CURVE('',#185,#32,#187,.T.);
#185 = VERTEX_POINT('',#186);
#186 = CARTESIAN_POINT('',(14.,14.,7.99999896077));
#187 = CIRCLE('',#188,2.999999999973);
#188 = AXIS2_PLACEMENT_3D('',#189,#190,#191);
#189 = CARTESIAN_POINT('',(16.999999999973,14.,7.999999999996));
#190 = DIRECTION('',(0.,-1.,-2.2E-16));
#191 = DIRECTION('',(1.,0.,0.));
#192 = ORIENTED_EDGE('',*,*,#193,.T.);
#193 = EDGE_CURVE('',#185,#194,#196,.T.);
#194 = VERTEX_POINT('',#195);
#195 = CARTESIAN_POINT('',(14.,14.,71.));
#196 = LINE('',#197,#198);
#197 = CARTESIAN_POINT('',(14.,14.,7.99999896077));
#198 = VECTOR('',#199,1.);
#199 = DIRECTION('',(0.,-2.2E-16,1.));
#200 = ORIENTED_EDGE('',*,*,#201,.T.);
#201 = EDGE_CURVE('',#194,#202,#204,.T.);
#202 = VERTEX_POINT('',#203);
#203 = CARTESIAN_POINT('',(9.,14.,71.));
#204 = LINE('',#205,#206);
#205 = CARTESIAN_POINT('',(14.,14.,71.));
#206 = VECTOR('',#207,1.);
#207 = DIRECTION('',(-1.,0.,0.));
#208 = ORIENTED_EDGE('',*,*,#209,.T.);
#209 = EDGE_CURVE('',#202,#210,#212,.T.);
#210 = VERTEX_POINT('',#211);
#211 = CARTESIAN_POINT('',(9.,14.,7.999997228718));
#212 = LINE('',#213,#214);
#213 = CARTESIAN_POINT('',(9.,14.,71.));
#214 = VECTOR('',#215,1.);
#215 = DIRECTION('',(0.,2.2E-16,-1.));
#216 = ORIENTED_EDGE('',*,*,#217,.T.);
#217 = EDGE_CURVE('',#210,#218,#220,.T.);
#218 = VERTEX_POINT('',#219);
#219 = CARTESIAN_POINT('',(17.000000156922,14.,-1.42E-13));
#220 = CIRCLE('',#221,8.);
#221 = AXIS2_PLACEMENT_3D('',#222,#223,#224);
#222 = CARTESIAN_POINT('',(17.,14.,8.));
#223 = DIRECTION('',(0.,-1.,-2.2E-16));
#224 = DIRECTION('',(1.,0.,0.));
#225 = ORIENTED_EDGE('',*,*,#226,.T.);
#226 = EDGE_CURVE('',#218,#97,#227,.T.);
#227 = LINE('',#228,#229);
#228 = CARTESIAN_POINT('',(17.000000156922,14.,-1.385558334732E-13));
#229 = VECTOR('',#230,1.);
#230 = DIRECTION('',(1.,0.,0.));
#231 = ORIENTED_EDGE('',*,*,#104,.T.);
#232 = PLANE('',#233);
#233 = AXIS2_PLACEMENT_3D('',#234,#235,#236);
#234 = CARTESIAN_POINT('',(110.06001749249,14.,10.367438417179));
#235 = DIRECTION('',(0.,1.,2.2E-16));
#236 = DIRECTION('',(0.,-2.2E-16,1.));
#237 = ADVANCED_FACE('',(#238),#249,.F.);
#238 = FACE_BOUND('',#239,.F.);
#239 = EDGE_LOOP('',(#240,#246,#247,#248));
#240 = ORIENTED_EDGE('',*,*,#241,.T.);
#241 = EDGE_CURVE('',#127,#185,#242,.T.);
#242 = LINE('',#243,#244);
#243 = CARTESIAN_POINT('',(14.,1.78E-15,7.99999896077));
#244 = VECTOR('',#245,1.);
#245 = DIRECTION('',(0.,1.,-2.2E-16));
#246 = ORIENTED_EDGE('',*,*,#184,.T.);
#247 = ORIENTED_EDGE('',*,*,#39,.F.);
#248 = ORIENTED_EDGE('',*,*,#126,.F.);
#249 = CYLINDRICAL_SURFACE('',#250,2.999999999973);
#250 = AXIS2_PLACEMENT_3D('',#251,#252,#253);
#251 = CARTESIAN_POINT('',(16.999999999973,1.78E-15,7.999999999996));
#252 = DIRECTION('',(0.,-1.,2.2E-16));
#253 = DIRECTION('',(1.,0.,0.));
#254 = ADVANCED_FACE('',(#255),#274,.F.);
#255 = FACE_BOUND('',#256,.T.);
#256 = EDGE_LOOP('',(#257,#266,#272,#273));
#257 = ORIENTED_EDGE('',*,*,#258,.F.);
#258 = EDGE_CURVE('',#259,#259,#261,.T.);
#259 = VERTEX_POINT('',#260);
#260 = CARTESIAN_POINT('',(253.25,7.,2.E-15));
#261 = CIRCLE('',#262,3.25);
#262 = AXIS2_PLACEMENT_3D('',#263,#264,#265);
#263 = CARTESIAN_POINT('',(250.,7.,1.55E-15));
#264 = DIRECTION('',(0.,-2.2E-16,1.));
#265 = DIRECTION('',(1.,0.,0.));
#266 = ORIENTED_EDGE('',*,*,#267,.T.);
#267 = EDGE_CURVE('',#259,#56,#268,.T.);
#268 = LINE('',#269,#270);
#269 = CARTESIAN_POINT('',(253.25,7.,0.));
#270 = VECTOR('',#271,1.);
#271 = DIRECTION('',(0.,0.,1.));
#272 = ORIENTED_EDGE('',*,*,#55,.F.);
#273 = ORIENTED_EDGE('',*,*,#267,.F.);
#274 = CYLINDRICAL_SURFACE('',#275,3.25);
#275 = AXIS2_PLACEMENT_3D('',#276,#277,#278);
#276 = CARTESIAN_POINT('',(250.,7.,0.));
#277 = DIRECTION('',(0.,0.,-1.));
#278 = DIRECTION('',(1.,0.,0.));
#279 = ADVANCED_FACE('',(#280),#299,.F.);
#280 = FACE_BOUND('',#281,.T.);
#281 = EDGE_LOOP('',(#282,#291,#297,#298));
#282 = ORIENTED_EDGE('',*,*,#283,.F.);
#283 = EDGE_CURVE('',#284,#284,#286,.T.);
#284 = VERTEX_POINT('',#285);
#285 = CARTESIAN_POINT('',(163.25,7.,2.E-15));
#286 = CIRCLE('',#287,3.25);
#287 = AXIS2_PLACEMENT_3D('',#288,#289,#290);
#288 = CARTESIAN_POINT('',(160.,7.,1.55E-15));
#289 = DIRECTION('',(0.,-2.2E-16,1.));
#290 = DIRECTION('',(1.,0.,0.));
#291 = ORIENTED_EDGE('',*,*,#292,.T.);
#292 = EDGE_CURVE('',#284,#67,#293,.T.);
#293 = LINE('',#294,#295);
#294 = CARTESIAN_POINT('',(163.25,7.,0.));
#295 = VECTOR('',#296,1.);
#296 = DIRECTION('',(0.,0.,1.));
#297 = ORIENTED_EDGE('',*,*,#66,.F.);
#298 = ORIENTED_EDGE('',*,*,#292,.F.);
#299 = CYLINDRICAL_SURFACE('',#300,3.25);
#300 = AXIS2_PLACEMENT_3D('',#301,#302,#303);
#301 = CARTESIAN_POINT('',(160.,7.,0.));
#302 = DIRECTION('',(0.,0.,-1.));
#303 = DIRECTION('',(1.,0.,0.));
#304 = ADVANCED_FACE('',(#305),#324,.F.);
#305 = FACE_BOUND('',#306,.T.);
#306 = EDGE_LOOP('',(#307,#316,#322,#323));
#307 = ORIENTED_EDGE('',*,*,#308,.F.);
#308 = EDGE_CURVE('',#309,#309,#311,.T.);
#309 = VERTEX_POINT('',#310);
#310 = CARTESIAN_POINT('',(73.25,7.,2.E-15));
#311 = CIRCLE('',#312,3.25);
#312 = AXIS2_PLACEMENT_3D('',#313,#314,#315);
#313 = CARTESIAN_POINT('',(70.,7.,1.55E-15));
#314 = DIRECTION('',(0.,-2.2E-16,1.));
#315 = DIRECTION('',(1.,0.,0.));
#316 = ORIENTED_EDGE('',*,*,#317,.T.);
#317 = EDGE_CURVE('',#309,#78,#318,.T.);
#318 = LINE('',#319,#320);
#319 = CARTESIAN_POINT('',(73.25,7.,0.));
#320 = VECTOR('',#321,1.);
#321 = DIRECTION('',(0.,0.,1.));
#322 = ORIENTED_EDGE('',*,*,#77,.F.);
#323 = ORIENTED_EDGE('',*,*,#317,.F.);
#324 = CYLINDRICAL_SURFACE('',#325,3.25);
#325 = AXIS2_PLACEMENT_3D('',#326,#327,#328);
#326 = CARTESIAN_POINT('',(70.,7.,0.));
#327 = DIRECTION('',(0.,0.,-1.));
#328 = DIRECTION('',(1.,0.,0.));
#329 = ADVANCED_FACE('',(#330,#341,#344,#347),#350,.T.);
#330 = FACE_BOUND('',#331,.T.);
#331 = EDGE_LOOP('',(#332,#338,#339,#340));
#332 = ORIENTED_EDGE('',*,*,#333,.T.);
#333 = EDGE_CURVE('',#160,#218,#334,.T.);
#334 = LINE('',#335,#336);
#335 = CARTESIAN_POINT('',(17.000000156922,0.,-1.4211E-13));
#336 = VECTOR('',#337,1.);
#337 = DIRECTION('',(0.,1.,-2.2E-16));
#338 = ORIENTED_EDGE('',*,*,#226,.T.);
#339 = ORIENTED_EDGE('',*,*,#94,.F.);
#340 = ORIENTED_EDGE('',*,*,#168,.F.);
#341 = FACE_BOUND('',#342,.T.);
#342 = EDGE_LOOP('',(#343));
#343 = ORIENTED_EDGE('',*,*,#308,.T.);
#344 = FACE_BOUND('',#345,.T.);
#345 = EDGE_LOOP('',(#346));
#346 = ORIENTED_EDGE('',*,*,#283,.T.);
#347 = FACE_BOUND('',#348,.T.);
#348 = EDGE_LOOP('',(#349));
#349 = ORIENTED_EDGE('',*,*,#258,.T.);
#350 = PLANE('',#351);
#351 = AXIS2_PLACEMENT_3D('',#352,#353,#354);
#352 = CARTESIAN_POINT('',(17.000000156922,0.,-1.4211E-13));
#353 = DIRECTION('',(0.,-2.2E-16,-1.));
#354 = DIRECTION('',(1.,0.,0.));
#355 = ADVANCED_FACE('',(#356,#367),#378,.T.);
#356 = FACE_BOUND('',#357,.T.);
#357 = EDGE_LOOP('',(#358,#359,#360,#366));
#358 = ORIENTED_EDGE('',*,*,#241,.T.);
#359 = ORIENTED_EDGE('',*,*,#193,.T.);
#360 = ORIENTED_EDGE('',*,*,#361,.F.);
#361 = EDGE_CURVE('',#136,#194,#362,.T.);
#362 = LINE('',#363,#364);
#363 = CARTESIAN_POINT('',(14.,1.577E-14,71.));
#364 = VECTOR('',#365,1.);
#365 = DIRECTION('',(0.,1.,-2.2E-16));
#366 = ORIENTED_EDGE('',*,*,#135,.F.);
#367 = FACE_BOUND('',#368,.T.);
#368 = EDGE_LOOP('',(#369));
#369 = ORIENTED_EDGE('',*,*,#370,.T.);
#370 = EDGE_CURVE('',#371,#371,#373,.T.);
#371 = VERTEX_POINT('',#372);
#372 = CARTESIAN_POINT('',(14.,10.25,60.));
#373 = CIRCLE('',#374,3.25);
#374 = AXIS2_PLACEMENT_3D('',#375,#376,#377);
#375 = CARTESIAN_POINT('',(14.,7.,60.));
#376 = DIRECTION('',(-1.,0.,0.));
#377 = DIRECTION('',(0.,1.,0.));
#378 = PLANE('',#379);
#379 = AXIS2_PLACEMENT_3D('',#380,#381,#382);
#380 = CARTESIAN_POINT('',(14.,1.78E-15,7.99999896077));
#381 = DIRECTION('',(1.,0.,0.));
#382 = DIRECTION('',(0.,2.2E-16,1.));
#383 = ADVANCED_FACE('',(#384),#395,.T.);
#384 = FACE_BOUND('',#385,.T.);
#385 = EDGE_LOOP('',(#386,#387,#388,#394));
#386 = ORIENTED_EDGE('',*,*,#361,.T.);
#387 = ORIENTED_EDGE('',*,*,#201,.T.);
#388 = ORIENTED_EDGE('',*,*,#389,.F.);
#389 = EDGE_CURVE('',#144,#202,#390,.T.);
#390 = LINE('',#391,#392);
#391 = CARTESIAN_POINT('',(9.,1.577E-14,71.));
#392 = VECTOR('',#393,1.);
#393 = DIRECTION('',(0.,1.,-2.2E-16));
#394 = ORIENTED_EDGE('',*,*,#143,.F.);
#395 = PLANE('',#396);
#396 = AXIS2_PLACEMENT_3D('',#397,#398,#399);
#397 = CARTESIAN_POINT('',(14.,1.577E-14,71.));
#398 = DIRECTION('',(0.,2.2E-16,1.));
#399 = DIRECTION('',(-1.,0.,0.));
#400 = ADVANCED_FACE('',(#401,#412),#423,.T.);
#401 = FACE_BOUND('',#402,.T.);
#402 = EDGE_LOOP('',(#403,#404,#405,#411));
#403 = ORIENTED_EDGE('',*,*,#389,.T.);
#404 = ORIENTED_EDGE('',*,*,#209,.T.);
#405 = ORIENTED_EDGE('',*,*,#406,.F.);
#406 = EDGE_CURVE('',#152,#210,#407,.T.);
#407 = LINE('',#408,#409);
#408 = CARTESIAN_POINT('',(9.,1.78E-15,7.999997228718));
#409 = VECTOR('',#410,1.);
#410 = DIRECTION('',(0.,1.,-2.2E-16));
#411 = ORIENTED_EDGE('',*,*,#151,.F.);
#412 = FACE_BOUND('',#413,.T.);
#413 = EDGE_LOOP('',(#414));
#414 = ORIENTED_EDGE('',*,*,#415,.F.);
#415 = EDGE_CURVE('',#416,#416,#418,.T.);
#416 = VERTEX_POINT('',#417);
#417 = CARTESIAN_POINT('',(9.,10.25,60.));
#418 = CIRCLE('',#419,3.25);
#419 = AXIS2_PLACEMENT_3D('',#420,#421,#422);
#420 = CARTESIAN_POINT('',(9.,7.,60.));
#421 = DIRECTION('',(-1.,0.,0.));
#422 = DIRECTION('',(0.,1.,0.));
#423 = PLANE('',#424);
#424 = AXIS2_PLACEMENT_3D('',#425,#426,#427);
#425 = CARTESIAN_POINT('',(9.,1.577E-14,71.));
#426 = DIRECTION('',(-1.,0.,0.));
#427 = DIRECTION('',(0.,-2.2E-16,-1.));
#428 = ADVANCED_FACE('',(#429),#435,.T.);
#429 = FACE_BOUND('',#430,.T.);
#430 = EDGE_LOOP('',(#431,#432,#433,#434));
#431 = ORIENTED_EDGE('',*,*,#406,.T.);
#432 = ORIENTED_EDGE('',*,*,#217,.T.);
#433 = ORIENTED_EDGE('',*,*,#333,.F.);
#434 = ORIENTED_EDGE('',*,*,#159,.F.);
#435 = CYLINDRICAL_SURFACE('',#436,8.);
#436 = AXIS2_PLACEMENT_3D('',#437,#438,#439);
#437 = CARTESIAN_POINT('',(17.,1.78E-15,8.));
#438 = DIRECTION('',(0.,-1.,2.2E-16));
#439 = DIRECTION('',(1.,0.,0.));
#440 = ADVANCED_FACE('',(#441),#452,.F.);
#441 = FACE_BOUND('',#442,.T.);
#442 = EDGE_LOOP('',(#443,#444,#450,#451));
#443 = ORIENTED_EDGE('',*,*,#415,.T.);
#444 = ORIENTED_EDGE('',*,*,#445,.T.);
#445 = EDGE_CURVE('',#416,#371,#446,.T.);
#446 = LINE('',#447,#448);
#447 = CARTESIAN_POINT('',(0.,10.25,60.));
#448 = VECTOR('',#449,1.);
#449 = DIRECTION('',(1.,0.,0.));
#450 = ORIENTED_EDGE('',*,*,#370,.F.);
#451 = ORIENTED_EDGE('',*,*,#445,.F.);
#452 = CYLINDRICAL_SURFACE('',#453,3.25);
#453 = AXIS2_PLACEMENT_3D('',#454,#455,#456);
#454 = CARTESIAN_POINT('',(0.,7.,60.));
#455 = DIRECTION('',(-1.,0.,0.));
#456 = DIRECTION('',(0.,1.,0.));
#457 = ( GEOMETRIC_REPRESENTATION_CONTEXT(3) 
GLOBAL_UNCERTAINTY_ASSIGNED_CONTEXT((#461)) GLOBAL_UNIT_ASSIGNED_CONTEXT
((#458,#459,#460)) REPRESENTATION_CONTEXT('Context #1',
  '3D Context with UNIT and UNCERTAINTY') );
#458 = ( LENGTH_UNIT() NAMED_UNIT(*) SI_UNIT(.MILLI.,.METRE.) );
#459 = ( NAMED_UNIT(*) PLANE_ANGLE_UNIT() SI_UNIT($,.RADIAN.) );
#460 = ( NAMED_UNIT(*) SI_UNIT($,.STERADIAN.) SOLID_ANGLE_UNIT() );
#461 = UNCERTAINTY_MEASURE_WITH_UNIT(LENGTH_MEASURE(1.E-07),#458,
  'distance_accuracy_value','confusion accuracy');
#462 = PRODUCT_RELATED_PRODUCT_CATEGORY('part',$,(#7));
#463 = MECHANICAL_DESIGN_GEOMETRIC_PRESENTATION_REPRESENTATION('',(#464)
  ,#457);
#464 = STYLED_ITEM('color',(#465),#15);
#465 = PRESENTATION_STYLE_ASSIGNMENT((#466,#472));
#466 = SURFACE_STYLE_USAGE(.BOTH.,#467);
#467 = SURFACE_SIDE_STYLE('',(#468));
#468 = SURFACE_STYLE_FILL_AREA(#469);
#469 = FILL_AREA_STYLE('',(#470));
#470 = FILL_AREA_STYLE_COLOUR('',#471);
#471 = COLOUR_RGB('',0.176470590079,0.184313727102,0.196078429142);
#472 = CURVE_STYLE('',#473,POSITIVE_LENGTH_MEASURE(0.1),#474);
#473 = DRAUGHTING_PRE_DEFINED_CURVE_FONT('continuous');
#474 = COLOUR_RGB('',9.803921802644E-02,9.803921802644E-02,
  9.803921802644E-02);
ENDSEC;
END-ISO-10303-21;
