%TF.GenerationSoftware,KiCad,Pcbnew,10.0.3*%
%TF.CreationDate,2026-07-17T00:00:55-07:00*%
%TF.ProjectId,ControlBoard,436f6e74-726f-46c4-926f-6172642e6b69,rev?*%
%TF.SameCoordinates,Original*%
%TF.FileFunction,Other,User*%
%FSLAX46Y46*%
G04 Gerber Fmt 4.6, Leading zero omitted, Abs format (unit mm)*
G04 Created by KiCad (PCBNEW 10.0.3) date 2026-07-17 00:00:55*
%MOMM*%
%LPD*%
G01*
G04 APERTURE LIST*
%ADD10C,0.050000*%
%ADD11C,0.100000*%
G04 APERTURE END LIST*
%TO.C,R91*%
D10*
X149550000Y-5920000D02*
X154450000Y-5920000D01*
X154450000Y-9080000D01*
X149550000Y-9080000D01*
X149550000Y-5920000D01*
%TO.C,C43*%
X197900000Y-22520000D02*
X201100000Y-22520000D01*
X201100000Y-27480000D01*
X197900000Y-27480000D01*
X197900000Y-22520000D01*
%TO.C,C139*%
X112520000Y-11900000D02*
X117480000Y-11900000D01*
X117480000Y-15100000D01*
X112520000Y-15100000D01*
X112520000Y-11900000D01*
%TO.C,R31*%
X101800000Y-420000D02*
X106700000Y-420000D01*
X106700000Y-3580000D01*
X101800000Y-3580000D01*
X101800000Y-420000D01*
%TO.C,R68*%
X242775000Y-12030000D02*
X247675000Y-12030000D01*
X247675000Y-15190000D01*
X242775000Y-15190000D01*
X242775000Y-12030000D01*
%TO.C,R12*%
X107350000Y-420000D02*
X112250000Y-420000D01*
X112250000Y-3580000D01*
X107350000Y-3580000D01*
X107350000Y-420000D01*
%TO.C,C197*%
X141800000Y-20120000D02*
X145000000Y-20120000D01*
X145000000Y-25080000D01*
X141800000Y-25080000D01*
X141800000Y-20120000D01*
%TO.C,R88*%
X119940000Y-38300000D02*
X123100000Y-38300000D01*
X123100000Y-43200000D01*
X119940000Y-43200000D01*
X119940000Y-38300000D01*
%TO.C,C137*%
X133582500Y-400000D02*
X138542500Y-400000D01*
X138542500Y-3600000D01*
X133582500Y-3600000D01*
X133582500Y-400000D01*
%TO.C,C14*%
X71400000Y-25457500D02*
X74600000Y-25457500D01*
X74600000Y-30417500D01*
X71400000Y-30417500D01*
X71400000Y-25457500D01*
%TO.C,C193*%
X112520000Y-24700000D02*
X117480000Y-24700000D01*
X117480000Y-27900000D01*
X112520000Y-27900000D01*
X112520000Y-24700000D01*
%TO.C,C13*%
X172270000Y-26650000D02*
X177230000Y-26650000D01*
X177230000Y-29850000D01*
X172270000Y-29850000D01*
X172270000Y-26650000D01*
%TO.C,R15*%
X112600000Y-420000D02*
X117500000Y-420000D01*
X117500000Y-3580000D01*
X112600000Y-3580000D01*
X112600000Y-420000D01*
%TO.C,R65*%
X202920000Y-32550000D02*
X206080000Y-32550000D01*
X206080000Y-37450000D01*
X202920000Y-37450000D01*
X202920000Y-32550000D01*
%TO.C,C5*%
X31400000Y-30520000D02*
X34600000Y-30520000D01*
X34600000Y-35480000D01*
X31400000Y-35480000D01*
X31400000Y-30520000D01*
%TO.C,C188*%
X112520000Y-18300000D02*
X117480000Y-18300000D01*
X117480000Y-21500000D01*
X112520000Y-21500000D01*
X112520000Y-18300000D01*
%TO.C,R14*%
X142690000Y-38300000D02*
X145850000Y-38300000D01*
X145850000Y-43200000D01*
X142690000Y-43200000D01*
X142690000Y-38300000D01*
%TO.C,C47*%
X202900000Y-22520000D02*
X206100000Y-22520000D01*
X206100000Y-27480000D01*
X202900000Y-27480000D01*
X202900000Y-22520000D01*
%TO.C,C49*%
X178520000Y-30400000D02*
X183480000Y-30400000D01*
X183480000Y-33600000D01*
X178520000Y-33600000D01*
X178520000Y-30400000D01*
%TO.C,R98*%
X172050000Y-30420000D02*
X176950000Y-30420000D01*
X176950000Y-33580000D01*
X172050000Y-33580000D01*
X172050000Y-30420000D01*
%TO.C,R57*%
X197920000Y-32550000D02*
X201080000Y-32550000D01*
X201080000Y-37450000D01*
X197920000Y-37450000D01*
X197920000Y-32550000D01*
%TO.C,J15*%
D11*
X11325000Y-50000D02*
X11325000Y-45150000D01*
X11325000Y-45150000D02*
X20925000Y-45150000D01*
X20925000Y-50000D02*
X11325000Y-50000D01*
X20925000Y-45150000D02*
X20925000Y-50000D01*
%TO.C,R74*%
D10*
X247775000Y-17030000D02*
X252675000Y-17030000D01*
X252675000Y-20190000D01*
X247775000Y-20190000D01*
X247775000Y-17030000D01*
%TO.C,C50*%
X178520000Y-25900000D02*
X183480000Y-25900000D01*
X183480000Y-29100000D01*
X178520000Y-29100000D01*
X178520000Y-25900000D01*
%TO.C,C23*%
X189650000Y-8520000D02*
X192850000Y-8520000D01*
X192850000Y-13480000D01*
X189650000Y-13480000D01*
X189650000Y-8520000D01*
%TO.C,C26*%
X91415000Y-11395000D02*
X96375000Y-11395000D01*
X96375000Y-14595000D01*
X91415000Y-14595000D01*
X91415000Y-11395000D01*
%TO.C,C194*%
X118020000Y-21600000D02*
X122980000Y-21600000D01*
X122980000Y-24800000D01*
X118020000Y-24800000D01*
X118020000Y-21600000D01*
%TO.C,C144*%
X198270000Y-650000D02*
X203230000Y-650000D01*
X203230000Y-3850000D01*
X198270000Y-3850000D01*
X198270000Y-650000D01*
%TO.C,R5*%
X21550000Y-5420000D02*
X26450000Y-5420000D01*
X26450000Y-8580000D01*
X21550000Y-8580000D01*
X21550000Y-5420000D01*
%TO.C,C202*%
X123150000Y-38270000D02*
X126350000Y-38270000D01*
X126350000Y-43230000D01*
X123150000Y-43230000D01*
X123150000Y-38270000D01*
%TO.C,C3*%
X32400000Y-18520000D02*
X35600000Y-18520000D01*
X35600000Y-23480000D01*
X32400000Y-23480000D01*
X32400000Y-18520000D01*
%TO.C,R44*%
X196170000Y-8550000D02*
X199330000Y-8550000D01*
X199330000Y-13450000D01*
X196170000Y-13450000D01*
X196170000Y-8550000D01*
%TO.C,C34*%
X74400000Y-3520000D02*
X77600000Y-3520000D01*
X77600000Y-8480000D01*
X74400000Y-8480000D01*
X74400000Y-3520000D01*
%TO.C,C185*%
X128332500Y-400000D02*
X133292500Y-400000D01*
X133292500Y-3600000D01*
X128332500Y-3600000D01*
X128332500Y-400000D01*
%TO.C,R27*%
X21300000Y-23920000D02*
X26200000Y-23920000D01*
X26200000Y-27080000D01*
X21300000Y-27080000D01*
X21300000Y-23920000D01*
%TO.C,C201*%
X145120000Y-20100000D02*
X150080000Y-20100000D01*
X150080000Y-23300000D01*
X145120000Y-23300000D01*
X145120000Y-20100000D01*
%TO.C,R37*%
X48420000Y-39550000D02*
X51580000Y-39550000D01*
X51580000Y-44450000D01*
X48420000Y-44450000D01*
X48420000Y-39550000D01*
%TO.C,R87*%
X218100000Y-670000D02*
X223000000Y-670000D01*
X223000000Y-3830000D01*
X218100000Y-3830000D01*
X218100000Y-670000D01*
%TO.C,C191*%
X118057500Y-12000000D02*
X123017500Y-12000000D01*
X123017500Y-15200000D01*
X118057500Y-15200000D01*
X118057500Y-12000000D01*
%TO.C,C208*%
X149520000Y-9400000D02*
X154480000Y-9400000D01*
X154480000Y-12600000D01*
X149520000Y-12600000D01*
X149520000Y-9400000D01*
%TO.C,R11*%
X21500000Y-11920000D02*
X26400000Y-11920000D01*
X26400000Y-15080000D01*
X21500000Y-15080000D01*
X21500000Y-11920000D01*
%TO.C,C187*%
X112520000Y-15100000D02*
X117480000Y-15100000D01*
X117480000Y-18300000D01*
X112520000Y-18300000D01*
X112520000Y-15100000D01*
%TO.C,R9*%
X26500000Y-11920000D02*
X31400000Y-11920000D01*
X31400000Y-15080000D01*
X26500000Y-15080000D01*
X26500000Y-11920000D01*
%TO.C,C41*%
X55400000Y-25457500D02*
X58600000Y-25457500D01*
X58600000Y-30417500D01*
X55400000Y-30417500D01*
X55400000Y-25457500D01*
%TO.C,C147*%
X146900000Y-23382500D02*
X150100000Y-23382500D01*
X150100000Y-28342500D01*
X146900000Y-28342500D01*
X146900000Y-23382500D01*
%TO.C,R58*%
X197920000Y-27600000D02*
X201080000Y-27600000D01*
X201080000Y-32500000D01*
X197920000Y-32500000D01*
X197920000Y-27600000D01*
%TO.C,R48*%
X205420000Y-13550000D02*
X208580000Y-13550000D01*
X208580000Y-18450000D01*
X205420000Y-18450000D01*
X205420000Y-13550000D01*
%TO.C,Z5*%
X147550000Y-350000D02*
X147550000Y-2650000D01*
X147550000Y-2650000D02*
X151450000Y-2650000D01*
X151450000Y-350000D02*
X147550000Y-350000D01*
X151450000Y-2650000D02*
X151450000Y-350000D01*
%TO.C,C38*%
X214400000Y-13470000D02*
X217600000Y-13470000D01*
X217600000Y-18430000D01*
X214400000Y-18430000D01*
X214400000Y-13470000D01*
%TO.C,R52*%
X217920000Y-13550000D02*
X221080000Y-13550000D01*
X221080000Y-18450000D01*
X217920000Y-18450000D01*
X217920000Y-13550000D01*
%TO.C,C134*%
X107020000Y-18300000D02*
X111980000Y-18300000D01*
X111980000Y-21500000D01*
X107020000Y-21500000D01*
X107020000Y-18300000D01*
%TO.C,C200*%
X138832500Y-650000D02*
X143792500Y-650000D01*
X143792500Y-3850000D01*
X138832500Y-3850000D01*
X138832500Y-650000D01*
%TO.C,R39*%
X230420000Y-8550000D02*
X233580000Y-8550000D01*
X233580000Y-13450000D01*
X230420000Y-13450000D01*
X230420000Y-8550000D01*
%TO.C,C45*%
X192900000Y-22520000D02*
X196100000Y-22520000D01*
X196100000Y-27480000D01*
X192900000Y-27480000D01*
X192900000Y-22520000D01*
%TO.C,C51*%
X167900000Y-24270000D02*
X171100000Y-24270000D01*
X171100000Y-29230000D01*
X167900000Y-29230000D01*
X167900000Y-24270000D01*
%TO.C,R92*%
X161420000Y-600000D02*
X164580000Y-600000D01*
X164580000Y-5500000D01*
X161420000Y-5500000D01*
X161420000Y-600000D01*
%TO.C,R19*%
X26300000Y-17920000D02*
X31200000Y-17920000D01*
X31200000Y-21080000D01*
X26300000Y-21080000D01*
X26300000Y-17920000D01*
%TO.C,C146*%
X223332500Y-650000D02*
X228292500Y-650000D01*
X228292500Y-3850000D01*
X223332500Y-3850000D01*
X223332500Y-650000D01*
%TO.C,R82*%
X247725000Y-27030000D02*
X252625000Y-27030000D01*
X252625000Y-30190000D01*
X247725000Y-30190000D01*
X247725000Y-27030000D01*
%TO.C,R80*%
X242725000Y-22030000D02*
X247625000Y-22030000D01*
X247625000Y-25190000D01*
X242725000Y-25190000D01*
X242725000Y-22030000D01*
%TO.C,C186*%
X117720000Y-400000D02*
X122680000Y-400000D01*
X122680000Y-3600000D01*
X117720000Y-3600000D01*
X117720000Y-400000D01*
%TO.C,C149*%
X141770000Y-25150000D02*
X146730000Y-25150000D01*
X146730000Y-28350000D01*
X141770000Y-28350000D01*
X141770000Y-25150000D01*
%TO.C,R18*%
X35920000Y-24550000D02*
X39080000Y-24550000D01*
X39080000Y-29450000D01*
X35920000Y-29450000D01*
X35920000Y-24550000D01*
%TO.C,C28*%
X126387500Y-38270000D02*
X129587500Y-38270000D01*
X129587500Y-43230000D01*
X126387500Y-43230000D01*
X126387500Y-38270000D01*
%TO.C,R70*%
X129670000Y-38300000D02*
X132830000Y-38300000D01*
X132830000Y-43200000D01*
X129670000Y-43200000D01*
X129670000Y-38300000D01*
%TO.C,R67*%
X247775000Y-12030000D02*
X252675000Y-12030000D01*
X252675000Y-15190000D01*
X247775000Y-15190000D01*
X247775000Y-12030000D01*
%TO.C,C15*%
X59020000Y-22400000D02*
X63980000Y-22400000D01*
X63980000Y-25600000D01*
X59020000Y-25600000D01*
X59020000Y-22400000D01*
%TO.C,R21*%
X21300000Y-17920000D02*
X26200000Y-17920000D01*
X26200000Y-21080000D01*
X21300000Y-21080000D01*
X21300000Y-17920000D01*
%TO.C,R2*%
X35920000Y-12550000D02*
X39080000Y-12550000D01*
X39080000Y-17450000D01*
X35920000Y-17450000D01*
X35920000Y-12550000D01*
%TO.C,R66*%
X202920000Y-27550000D02*
X206080000Y-27550000D01*
X206080000Y-32450000D01*
X202920000Y-32450000D01*
X202920000Y-27550000D01*
%TO.C,R76*%
X242775000Y-17030000D02*
X247675000Y-17030000D01*
X247675000Y-20190000D01*
X242775000Y-20190000D01*
X242775000Y-17030000D01*
%TO.C,C27*%
X139420000Y-38270000D02*
X142620000Y-38270000D01*
X142620000Y-43230000D01*
X139420000Y-43230000D01*
X139420000Y-38270000D01*
%TO.C,C17*%
X71400000Y-36520000D02*
X74600000Y-36520000D01*
X74600000Y-41480000D01*
X71400000Y-41480000D01*
X71400000Y-36520000D01*
%TO.C,C2*%
X32150000Y-12520000D02*
X35350000Y-12520000D01*
X35350000Y-17480000D01*
X32150000Y-17480000D01*
X32150000Y-12520000D01*
%TO.C,R51*%
X217920000Y-8550000D02*
X221080000Y-8550000D01*
X221080000Y-13450000D01*
X217920000Y-13450000D01*
X217920000Y-8550000D01*
%TO.C,R93*%
X158550000Y-5920000D02*
X163450000Y-5920000D01*
X163450000Y-9080000D01*
X158550000Y-9080000D01*
X158550000Y-5920000D01*
%TO.C,C136*%
X107020000Y-21500000D02*
X111980000Y-21500000D01*
X111980000Y-24700000D01*
X107020000Y-24700000D01*
X107020000Y-21500000D01*
%TO.C,C209*%
X154900000Y-7082500D02*
X158100000Y-7082500D01*
X158100000Y-12042500D01*
X154900000Y-12042500D01*
X154900000Y-7082500D01*
%TO.C,Z7*%
X166550000Y-350000D02*
X166550000Y-2650000D01*
X166550000Y-2650000D02*
X170450000Y-2650000D01*
X170450000Y-350000D02*
X166550000Y-350000D01*
X170450000Y-2650000D02*
X170450000Y-350000D01*
%TO.C,U3*%
X216550000Y-19850000D02*
X233200000Y-19850000D01*
X233200000Y-31150000D01*
X216550000Y-31150000D01*
X216550000Y-19850000D01*
%TO.C,C145*%
X210520000Y-650000D02*
X215480000Y-650000D01*
X215480000Y-3850000D01*
X210520000Y-3850000D01*
X210520000Y-650000D01*
%TO.C,R3*%
X26550000Y-5420000D02*
X31450000Y-5420000D01*
X31450000Y-8580000D01*
X26550000Y-8580000D01*
X26550000Y-5420000D01*
%TO.C,C192*%
X112520000Y-21500000D02*
X117480000Y-21500000D01*
X117480000Y-24700000D01*
X112520000Y-24700000D01*
X112520000Y-21500000D01*
%TO.C,R89*%
X136170000Y-38300000D02*
X139330000Y-38300000D01*
X139330000Y-43200000D01*
X136170000Y-43200000D01*
X136170000Y-38300000D01*
%TO.C,R95*%
X169100000Y-5920000D02*
X174000000Y-5920000D01*
X174000000Y-9080000D01*
X169100000Y-9080000D01*
X169100000Y-5920000D01*
%TO.C,C183*%
X107020000Y-15100000D02*
X111980000Y-15100000D01*
X111980000Y-18300000D01*
X107020000Y-18300000D01*
X107020000Y-15100000D01*
%TO.C,C182*%
X107057500Y-11900000D02*
X112017500Y-11900000D01*
X112017500Y-15100000D01*
X107057500Y-15100000D01*
X107057500Y-11900000D01*
%TO.C,C138*%
X118020000Y-15200000D02*
X122980000Y-15200000D01*
X122980000Y-18400000D01*
X118020000Y-18400000D01*
X118020000Y-15200000D01*
%TO.C,U7*%
X216500000Y-33350000D02*
X223500000Y-33350000D01*
X223500000Y-44450000D01*
X216500000Y-44450000D01*
X216500000Y-33350000D01*
%TO.C,Z6*%
X157050000Y-350000D02*
X157050000Y-2650000D01*
X157050000Y-2650000D02*
X160950000Y-2650000D01*
X160950000Y-350000D02*
X157050000Y-350000D01*
X160950000Y-2650000D02*
X160950000Y-350000D01*
%TO.C,C25*%
X201900000Y-13520000D02*
X205100000Y-13520000D01*
X205100000Y-18480000D01*
X201900000Y-18480000D01*
X201900000Y-13520000D01*
%TO.C,R8*%
X35920000Y-18550000D02*
X39080000Y-18550000D01*
X39080000Y-23450000D01*
X35920000Y-23450000D01*
X35920000Y-18550000D01*
%TO.C,R61*%
X192920000Y-32550000D02*
X196080000Y-32550000D01*
X196080000Y-37450000D01*
X192920000Y-37450000D01*
X192920000Y-32550000D01*
%TO.C,R94*%
X170920000Y-550000D02*
X174080000Y-550000D01*
X174080000Y-5450000D01*
X170920000Y-5450000D01*
X170920000Y-550000D01*
%TO.C,C189*%
X118020000Y-18400000D02*
X122980000Y-18400000D01*
X122980000Y-21600000D01*
X118020000Y-21600000D01*
X118020000Y-18400000D01*
%TO.C,C32*%
X56520000Y-18400000D02*
X61480000Y-18400000D01*
X61480000Y-21600000D01*
X56520000Y-21600000D01*
X56520000Y-18400000D01*
%TO.C,C48*%
X139900000Y-6207500D02*
X143100000Y-6207500D01*
X143100000Y-11167500D01*
X139900000Y-11167500D01*
X139900000Y-6207500D01*
%TO.C,C203*%
X132830000Y-38282500D02*
X136030000Y-38282500D01*
X136030000Y-43242500D01*
X132830000Y-43242500D01*
X132830000Y-38282500D01*
%TO.C,C33*%
X136150000Y-6207500D02*
X139350000Y-6207500D01*
X139350000Y-11167500D01*
X136150000Y-11167500D01*
X136150000Y-6207500D01*
%TO.C,R84*%
X242725000Y-27030000D02*
X247625000Y-27030000D01*
X247625000Y-30190000D01*
X242725000Y-30190000D01*
X242725000Y-27030000D01*
%TO.C,C184*%
X123082500Y-400000D02*
X128042500Y-400000D01*
X128042500Y-3600000D01*
X123082500Y-3600000D01*
X123082500Y-400000D01*
%TO.C,R25*%
X26300000Y-23920000D02*
X31200000Y-23920000D01*
X31200000Y-27080000D01*
X26300000Y-27080000D01*
X26300000Y-23920000D01*
%TO.C,R78*%
X247675000Y-22030000D02*
X252575000Y-22030000D01*
X252575000Y-25190000D01*
X247675000Y-25190000D01*
X247675000Y-22030000D01*
%TO.C,C21*%
X226900000Y-13582500D02*
X230100000Y-13582500D01*
X230100000Y-18542500D01*
X226900000Y-18542500D01*
X226900000Y-13582500D01*
%TO.C,R62*%
X192920000Y-27600000D02*
X196080000Y-27600000D01*
X196080000Y-32500000D01*
X192920000Y-32500000D01*
X192920000Y-27600000D01*
%TO.C,R40*%
X230420000Y-13500000D02*
X233580000Y-13500000D01*
X233580000Y-18400000D01*
X230420000Y-18400000D01*
X230420000Y-13500000D01*
%TO.C,R47*%
X205420000Y-8550000D02*
X208580000Y-8550000D01*
X208580000Y-13450000D01*
X205420000Y-13450000D01*
X205420000Y-8550000D01*
%TO.C,R24*%
X35920000Y-30550000D02*
X39080000Y-30550000D01*
X39080000Y-35450000D01*
X35920000Y-35450000D01*
X35920000Y-30550000D01*
%TO.C,C31*%
X74270000Y-15650000D02*
X79230000Y-15650000D01*
X79230000Y-18850000D01*
X74270000Y-18850000D01*
X74270000Y-15650000D01*
%TO.C,C135*%
X107020000Y-24700000D02*
X111980000Y-24700000D01*
X111980000Y-27900000D01*
X107020000Y-27900000D01*
X107020000Y-24700000D01*
%TO.C,C143*%
X186520000Y-650000D02*
X191480000Y-650000D01*
X191480000Y-3850000D01*
X186520000Y-3850000D01*
X186520000Y-650000D01*
%TO.C,C30*%
X91415000Y-6395000D02*
X96375000Y-6395000D01*
X96375000Y-9595000D01*
X91415000Y-9595000D01*
X91415000Y-6395000D01*
%TO.C,C4*%
X32400000Y-24520000D02*
X35600000Y-24520000D01*
X35600000Y-29480000D01*
X32400000Y-29480000D01*
X32400000Y-24520000D01*
%TO.C,R90*%
X151920000Y-550000D02*
X155080000Y-550000D01*
X155080000Y-5450000D01*
X151920000Y-5450000D01*
X151920000Y-550000D01*
%TO.C,C190*%
X118057500Y-24800000D02*
X123017500Y-24800000D01*
X123017500Y-28000000D01*
X118057500Y-28000000D01*
X118057500Y-24800000D01*
%TO.C,R43*%
X192920000Y-8550000D02*
X196080000Y-8550000D01*
X196080000Y-13450000D01*
X192920000Y-13450000D01*
X192920000Y-8550000D01*
%TO.C,C198*%
X154520000Y-18400000D02*
X159480000Y-18400000D01*
X159480000Y-21600000D01*
X154520000Y-21600000D01*
X154520000Y-18400000D01*
%TD*%
M02*
