%TF.GenerationSoftware,KiCad,Pcbnew,10.0.3*%
%TF.CreationDate,2026-07-16T15:45:56-07:00*%
%TF.ProjectId,ControlBoard,436f6e74-726f-46c4-926f-6172642e6b69,rev?*%
%TF.SameCoordinates,Original*%
%TF.FileFunction,Soldermask,Top*%
%TF.FilePolarity,Negative*%
%FSLAX46Y46*%
G04 Gerber Fmt 4.6, Leading zero omitted, Abs format (unit mm)*
G04 Created by KiCad (PCBNEW 10.0.3) date 2026-07-16 15:45:56*
%MOMM*%
%LPD*%
G01*
G04 APERTURE LIST*
G04 Aperture macros list*
%AMRoundRect*
0 Rectangle with rounded corners*
0 $1 Rounding radius*
0 $2 $3 $4 $5 $6 $7 $8 $9 X,Y pos of 4 corners*
0 Add a 4 corners polygon primitive as box body*
4,1,4,$2,$3,$4,$5,$6,$7,$8,$9,$2,$3,0*
0 Add four circle primitives for the rounded corners*
1,1,$1+$1,$2,$3*
1,1,$1+$1,$4,$5*
1,1,$1+$1,$6,$7*
1,1,$1+$1,$8,$9*
0 Add four rect primitives between the rounded corners*
20,1,$1+$1,$2,$3,$4,$5,0*
20,1,$1+$1,$4,$5,$6,$7,0*
20,1,$1+$1,$6,$7,$8,$9,0*
20,1,$1+$1,$8,$9,$2,$3,0*%
G04 Aperture macros list end*
%ADD10R,1.700000X1.700000*%
%ADD11C,1.700000*%
%ADD12C,9.500000*%
%ADD13R,1.303000X1.303000*%
%ADD14C,1.303000*%
%ADD15RoundRect,0.250000X0.400000X1.075000X-0.400000X1.075000X-0.400000X-1.075000X0.400000X-1.075000X0*%
%ADD16C,1.725000*%
%ADD17C,1.300000*%
%ADD18R,1.575000X1.575000*%
%ADD19C,1.575000*%
%ADD20RoundRect,0.250000X-0.412500X-1.100000X0.412500X-1.100000X0.412500X1.100000X-0.412500X1.100000X0*%
%ADD21RoundRect,0.250000X1.100000X-0.412500X1.100000X0.412500X-1.100000X0.412500X-1.100000X-0.412500X0*%
%ADD22R,0.850000X1.050000*%
%ADD23RoundRect,0.250000X0.412500X1.100000X-0.412500X1.100000X-0.412500X-1.100000X0.412500X-1.100000X0*%
%ADD24R,0.800000X0.300000*%
%ADD25R,0.300000X0.800000*%
%ADD26R,1.760000X1.760000*%
%ADD27RoundRect,0.250000X-1.075000X0.400000X-1.075000X-0.400000X1.075000X-0.400000X1.075000X0.400000X0*%
%ADD28R,0.650000X1.850000*%
%ADD29C,3.000000*%
%ADD30RoundRect,0.100000X-0.725000X-0.100000X0.725000X-0.100000X0.725000X0.100000X-0.725000X0.100000X0*%
%ADD31RoundRect,0.250000X-0.400000X-1.075000X0.400000X-1.075000X0.400000X1.075000X-0.400000X1.075000X0*%
%ADD32RoundRect,0.075000X-0.700000X-0.075000X0.700000X-0.075000X0.700000X0.075000X-0.700000X0.075000X0*%
%ADD33RoundRect,0.075000X-0.075000X-0.700000X0.075000X-0.700000X0.075000X0.700000X-0.075000X0.700000X0*%
%ADD34R,1.925000X0.650000*%
%ADD35RoundRect,0.250000X1.075000X-0.400000X1.075000X0.400000X-1.075000X0.400000X-1.075000X-0.400000X0*%
%ADD36R,1.000000X1.750000*%
%ADD37RoundRect,0.075000X-0.662500X-0.075000X0.662500X-0.075000X0.662500X0.075000X-0.662500X0.075000X0*%
%ADD38RoundRect,0.075000X-0.075000X-0.662500X0.075000X-0.662500X0.075000X0.662500X-0.075000X0.662500X0*%
%ADD39R,1.650000X1.650000*%
%ADD40C,1.650000*%
%ADD41RoundRect,0.250000X-1.100000X0.412500X-1.100000X-0.412500X1.100000X-0.412500X1.100000X0.412500X0*%
%ADD42C,1.500000*%
%ADD43R,1.650000X0.650000*%
%ADD44R,0.600000X0.450000*%
%ADD45R,2.050000X1.300000*%
%ADD46RoundRect,0.200000X0.200000X-0.900000X0.200000X0.900000X-0.200000X0.900000X-0.200000X-0.900000X0*%
%ADD47RoundRect,0.249997X2.650003X-2.950003X2.650003X2.950003X-2.650003X2.950003X-2.650003X-2.950003X0*%
%ADD48C,1.600000*%
G04 APERTURE END LIST*
D10*
%TO.C,J12*%
X254725000Y-13610000D03*
D11*
X257265000Y-13610000D03*
X254725000Y-16150000D03*
X257265000Y-16150000D03*
X254725000Y-18690000D03*
X257265000Y-18690000D03*
X254725000Y-21230000D03*
X257265000Y-21230000D03*
X254725000Y-23770000D03*
X257265000Y-23770000D03*
X254725000Y-26310000D03*
X257265000Y-26310000D03*
X254725000Y-28850000D03*
X257265000Y-28850000D03*
X254725000Y-31390000D03*
X257265000Y-31390000D03*
%TD*%
D10*
%TO.C,J14*%
X149000000Y-40000000D03*
D11*
X149000000Y-42540000D03*
X151540000Y-40000000D03*
X151540000Y-42540000D03*
X154080000Y-40000000D03*
X154080000Y-42540000D03*
X156620000Y-40000000D03*
X156620000Y-42540000D03*
X159160000Y-40000000D03*
X159160000Y-42540000D03*
X161700000Y-40000000D03*
X161700000Y-42540000D03*
X164240000Y-40000000D03*
X164240000Y-42540000D03*
X166780000Y-40000000D03*
X166780000Y-42540000D03*
X169320000Y-40000000D03*
X169320000Y-42540000D03*
X171860000Y-40000000D03*
X171860000Y-42540000D03*
%TD*%
D10*
%TO.C,J13*%
X53960000Y-43000000D03*
D11*
X53960000Y-40460000D03*
X56500000Y-43000000D03*
X56500000Y-40460000D03*
X59040000Y-43000000D03*
X59040000Y-40460000D03*
%TD*%
D10*
%TO.C,J10*%
X53960000Y-5500000D03*
D11*
X53960000Y-2960000D03*
X56500000Y-5500000D03*
X56500000Y-2960000D03*
X59040000Y-5500000D03*
X59040000Y-2960000D03*
%TD*%
D10*
%TO.C,J7*%
X206890000Y-39725000D03*
D11*
X206890000Y-42265000D03*
X204350000Y-39725000D03*
X204350000Y-42265000D03*
X201810000Y-39725000D03*
X201810000Y-42265000D03*
X199270000Y-39725000D03*
X199270000Y-42265000D03*
X196730000Y-39725000D03*
X196730000Y-42265000D03*
X194190000Y-39725000D03*
X194190000Y-42265000D03*
X191650000Y-39725000D03*
X191650000Y-42265000D03*
X189110000Y-39725000D03*
X189110000Y-42265000D03*
%TD*%
D12*
%TO.C,H8*%
X254500000Y-39500000D03*
%TD*%
%TO.C,H7*%
X254500000Y-5500000D03*
%TD*%
%TO.C,H6*%
X180000000Y-39500000D03*
%TD*%
%TO.C,H5*%
X180000000Y-5500000D03*
%TD*%
%TO.C,H4*%
X85000000Y-39500000D03*
%TD*%
%TO.C,H3*%
X85000000Y-5500000D03*
%TD*%
%TO.C,H2*%
X5500000Y-39500000D03*
%TD*%
%TO.C,H1*%
X5500000Y-5500000D03*
%TD*%
D13*
%TO.C,PS6*%
X214500000Y-41580000D03*
D14*
X214500000Y-39040000D03*
X214500000Y-36500000D03*
X214500000Y-28880000D03*
X214500000Y-26340000D03*
X214500000Y-23800000D03*
%TD*%
D10*
%TO.C,J2*%
X94000000Y-40000000D03*
D11*
X94000000Y-42540000D03*
X96540000Y-40000000D03*
X96540000Y-42540000D03*
X99080000Y-40000000D03*
X99080000Y-42540000D03*
X101620000Y-40000000D03*
X101620000Y-42540000D03*
X104160000Y-40000000D03*
X104160000Y-42540000D03*
X106700000Y-40000000D03*
X106700000Y-42540000D03*
X109240000Y-40000000D03*
X109240000Y-42540000D03*
X111780000Y-40000000D03*
X111780000Y-42540000D03*
X114320000Y-40000000D03*
X114320000Y-42540000D03*
X116860000Y-40000000D03*
X116860000Y-42540000D03*
%TD*%
D15*
%TO.C,R6*%
X22500000Y-7000000D03*
X19400000Y-7000000D03*
%TD*%
D16*
%TO.C,PS4*%
X72585000Y-18825000D03*
X72585000Y-16285000D03*
X72585000Y-8665000D03*
X72585000Y-3585000D03*
%TD*%
D17*
%TO.C,J1*%
X146650000Y-5975000D03*
D18*
X148250000Y-3975000D03*
D19*
X150750000Y-3975000D03*
%TD*%
D20*
%TO.C,C10*%
X42437500Y-11500000D03*
X45562500Y-11500000D03*
%TD*%
%TO.C,C140*%
X221937500Y-25000000D03*
X225062500Y-25000000D03*
%TD*%
D15*
%TO.C,R10*%
X28050000Y-13500000D03*
X24950000Y-13500000D03*
%TD*%
D21*
%TO.C,C40*%
X57000000Y-29500000D03*
X57000000Y-26375000D03*
%TD*%
D16*
%TO.C,PS2*%
X76000000Y-26460000D03*
X76000000Y-29000000D03*
X76000000Y-36620000D03*
X76000000Y-41700000D03*
%TD*%
D22*
%TO.C,Z4*%
X37500000Y-31200000D03*
X37500000Y-34800000D03*
%TD*%
D21*
%TO.C,C39*%
X213750000Y-12562500D03*
X213750000Y-9437500D03*
%TD*%
%TO.C,C42*%
X202000000Y-26562500D03*
X202000000Y-23437500D03*
%TD*%
D15*
%TO.C,R73*%
X251775000Y-16110000D03*
X248675000Y-16110000D03*
%TD*%
D23*
%TO.C,C35*%
X68562500Y-2000000D03*
X65437500Y-2000000D03*
%TD*%
D24*
%TO.C,IC1*%
X173250000Y-29750000D03*
X173250000Y-30250000D03*
X173250000Y-30750000D03*
X173250000Y-31250000D03*
D25*
X174000000Y-32000000D03*
X174500000Y-32000000D03*
X175000000Y-32000000D03*
X175500000Y-32000000D03*
D24*
X176250000Y-31250000D03*
X176250000Y-30750000D03*
X176250000Y-30250000D03*
X176250000Y-29750000D03*
D25*
X175500000Y-29000000D03*
X175000000Y-29000000D03*
X174500000Y-29000000D03*
X174000000Y-29000000D03*
D26*
X174750000Y-30500000D03*
%TD*%
D23*
%TO.C,C142*%
X225062500Y-28250000D03*
X221937500Y-28250000D03*
%TD*%
D17*
%TO.C,J4*%
X156150000Y-5975000D03*
D18*
X157750000Y-3975000D03*
D19*
X160250000Y-3975000D03*
%TD*%
D27*
%TO.C,R1*%
X33750000Y-13450000D03*
X33750000Y-16550000D03*
%TD*%
D28*
%TO.C,IC3*%
X66905000Y-27175000D03*
X65635000Y-27175000D03*
X64365000Y-27175000D03*
X63095000Y-27175000D03*
X63095000Y-37825000D03*
X64365000Y-37825000D03*
X65635000Y-37825000D03*
X66905000Y-37825000D03*
%TD*%
D21*
%TO.C,C24*%
X188750000Y-12562500D03*
X188750000Y-9437500D03*
%TD*%
D15*
%TO.C,R79*%
X251725000Y-26110000D03*
X248625000Y-26110000D03*
%TD*%
D29*
%TO.C,TP6*%
X37500000Y-40000000D03*
%TD*%
D30*
%TO.C,U5*%
X235875000Y-21277500D03*
X235875000Y-21912500D03*
X235875000Y-22547500D03*
X235875000Y-23182500D03*
X235875000Y-23817500D03*
X235875000Y-24452500D03*
X235875000Y-25087500D03*
X235875000Y-25722500D03*
X241125000Y-25722500D03*
X241125000Y-25087500D03*
X241125000Y-24452500D03*
X241125000Y-23817500D03*
X241125000Y-23182500D03*
X241125000Y-22547500D03*
X241125000Y-21912500D03*
X241125000Y-21277500D03*
%TD*%
D31*
%TO.C,R99*%
X184950000Y-27500000D03*
X188050000Y-27500000D03*
%TD*%
%TO.C,R86*%
X227200000Y-24250000D03*
X230300000Y-24250000D03*
%TD*%
D32*
%TO.C,U9*%
X140325000Y-20500000D03*
X140325000Y-21000000D03*
X140325000Y-21500000D03*
X140325000Y-22000000D03*
X140325000Y-22500000D03*
X140325000Y-23000000D03*
X140325000Y-23500000D03*
X140325000Y-24000000D03*
X140325000Y-24500000D03*
X140325000Y-25000000D03*
X140325000Y-25500000D03*
X140325000Y-26000000D03*
X140325000Y-26500000D03*
X140325000Y-27000000D03*
X140325000Y-27500000D03*
X140325000Y-28000000D03*
D33*
X142250000Y-29925000D03*
X142750000Y-29925000D03*
X143250000Y-29925000D03*
X143750000Y-29925000D03*
X144250000Y-29925000D03*
X144750000Y-29925000D03*
X145250000Y-29925000D03*
X145750000Y-29925000D03*
X146250000Y-29925000D03*
X146750000Y-29925000D03*
X147250000Y-29925000D03*
X147750000Y-29925000D03*
X148250000Y-29925000D03*
X148750000Y-29925000D03*
X149250000Y-29925000D03*
X149750000Y-29925000D03*
D32*
X151675000Y-28000000D03*
X151675000Y-27500000D03*
X151675000Y-27000000D03*
X151675000Y-26500000D03*
X151675000Y-26000000D03*
X151675000Y-25500000D03*
X151675000Y-25000000D03*
X151675000Y-24500000D03*
X151675000Y-24000000D03*
X151675000Y-23500000D03*
X151675000Y-23000000D03*
X151675000Y-22500000D03*
X151675000Y-22000000D03*
X151675000Y-21500000D03*
X151675000Y-21000000D03*
X151675000Y-20500000D03*
D33*
X149750000Y-18575000D03*
X149250000Y-18575000D03*
X148750000Y-18575000D03*
X148250000Y-18575000D03*
X147750000Y-18575000D03*
X147250000Y-18575000D03*
X146750000Y-18575000D03*
X146250000Y-18575000D03*
X145750000Y-18575000D03*
X145250000Y-18575000D03*
X144750000Y-18575000D03*
X144250000Y-18575000D03*
X143750000Y-18575000D03*
X143250000Y-18575000D03*
X142750000Y-18575000D03*
X142250000Y-18575000D03*
%TD*%
D29*
%TO.C,TP1*%
X45500000Y-4500000D03*
%TD*%
D15*
%TO.C,R20*%
X27850000Y-19500000D03*
X24750000Y-19500000D03*
%TD*%
D23*
%TO.C,C9*%
X45562500Y-31500000D03*
X42437500Y-31500000D03*
%TD*%
D20*
%TO.C,C210*%
X169937500Y-10250000D03*
X173062500Y-10250000D03*
%TD*%
D29*
%TO.C,TP3*%
X37250000Y-8250000D03*
%TD*%
D27*
%TO.C,R23*%
X33000000Y-31450000D03*
X33000000Y-34550000D03*
%TD*%
D22*
%TO.C,Z1*%
X37500000Y-13200000D03*
X37500000Y-16800000D03*
%TD*%
D27*
%TO.C,R64*%
X207000000Y-28450000D03*
X207000000Y-31550000D03*
%TD*%
D34*
%TO.C,IC2*%
X44500000Y-19460000D03*
X44500000Y-20730000D03*
X44500000Y-22000000D03*
X44500000Y-23270000D03*
X44500000Y-24540000D03*
X44500000Y-25810000D03*
X44500000Y-27080000D03*
X44500000Y-28350000D03*
X53924000Y-28350000D03*
X53924000Y-27080000D03*
X53924000Y-25810000D03*
X53924000Y-24540000D03*
X53924000Y-23270000D03*
X53924000Y-22000000D03*
X53924000Y-20730000D03*
X53924000Y-19460000D03*
%TD*%
D35*
%TO.C,R29*%
X169500000Y-33300000D03*
X169500000Y-30200000D03*
%TD*%
D27*
%TO.C,R54*%
X220250000Y-9450000D03*
X220250000Y-12550000D03*
%TD*%
D36*
%TO.C,LED2*%
X103000000Y-1750000D03*
X106000000Y-1750000D03*
%TD*%
D37*
%TO.C,U1*%
X104337500Y-11500000D03*
X104337500Y-12000000D03*
X104337500Y-12500000D03*
X104337500Y-13000000D03*
X104337500Y-13500000D03*
X104337500Y-14000000D03*
X104337500Y-14500000D03*
X104337500Y-15000000D03*
X104337500Y-15500000D03*
X104337500Y-16000000D03*
X104337500Y-16500000D03*
X104337500Y-17000000D03*
X104337500Y-17500000D03*
X104337500Y-18000000D03*
X104337500Y-18500000D03*
X104337500Y-19000000D03*
X104337500Y-19500000D03*
X104337500Y-20000000D03*
X104337500Y-20500000D03*
X104337500Y-21000000D03*
X104337500Y-21500000D03*
X104337500Y-22000000D03*
X104337500Y-22500000D03*
X104337500Y-23000000D03*
X104337500Y-23500000D03*
X104337500Y-24000000D03*
X104337500Y-24500000D03*
X104337500Y-25000000D03*
X104337500Y-25500000D03*
X104337500Y-26000000D03*
X104337500Y-26500000D03*
X104337500Y-27000000D03*
X104337500Y-27500000D03*
X104337500Y-28000000D03*
X104337500Y-28500000D03*
X104337500Y-29000000D03*
D38*
X106250000Y-30912500D03*
X106750000Y-30912500D03*
X107250000Y-30912500D03*
X107750000Y-30912500D03*
X108250000Y-30912500D03*
X108750000Y-30912500D03*
X109250000Y-30912500D03*
X109750000Y-30912500D03*
X110250000Y-30912500D03*
X110750000Y-30912500D03*
X111250000Y-30912500D03*
X111750000Y-30912500D03*
X112250000Y-30912500D03*
X112750000Y-30912500D03*
X113250000Y-30912500D03*
X113750000Y-30912500D03*
X114250000Y-30912500D03*
X114750000Y-30912500D03*
X115250000Y-30912500D03*
X115750000Y-30912500D03*
X116250000Y-30912500D03*
X116750000Y-30912500D03*
X117250000Y-30912500D03*
X117750000Y-30912500D03*
X118250000Y-30912500D03*
X118750000Y-30912500D03*
X119250000Y-30912500D03*
X119750000Y-30912500D03*
X120250000Y-30912500D03*
X120750000Y-30912500D03*
X121250000Y-30912500D03*
X121750000Y-30912500D03*
X122250000Y-30912500D03*
X122750000Y-30912500D03*
X123250000Y-30912500D03*
X123750000Y-30912500D03*
D37*
X125662500Y-29000000D03*
X125662500Y-28500000D03*
X125662500Y-28000000D03*
X125662500Y-27500000D03*
X125662500Y-27000000D03*
X125662500Y-26500000D03*
X125662500Y-26000000D03*
X125662500Y-25500000D03*
X125662500Y-25000000D03*
X125662500Y-24500000D03*
X125662500Y-24000000D03*
X125662500Y-23500000D03*
X125662500Y-23000000D03*
X125662500Y-22500000D03*
X125662500Y-22000000D03*
X125662500Y-21500000D03*
X125662500Y-21000000D03*
X125662500Y-20500000D03*
X125662500Y-20000000D03*
X125662500Y-19500000D03*
X125662500Y-19000000D03*
X125662500Y-18500000D03*
X125662500Y-18000000D03*
X125662500Y-17500000D03*
X125662500Y-17000000D03*
X125662500Y-16500000D03*
X125662500Y-16000000D03*
X125662500Y-15500000D03*
X125662500Y-15000000D03*
X125662500Y-14500000D03*
X125662500Y-14000000D03*
X125662500Y-13500000D03*
X125662500Y-13000000D03*
X125662500Y-12500000D03*
X125662500Y-12000000D03*
X125662500Y-11500000D03*
D38*
X123750000Y-9587500D03*
X123250000Y-9587500D03*
X122750000Y-9587500D03*
X122250000Y-9587500D03*
X121750000Y-9587500D03*
X121250000Y-9587500D03*
X120750000Y-9587500D03*
X120250000Y-9587500D03*
X119750000Y-9587500D03*
X119250000Y-9587500D03*
X118750000Y-9587500D03*
X118250000Y-9587500D03*
X117750000Y-9587500D03*
X117250000Y-9587500D03*
X116750000Y-9587500D03*
X116250000Y-9587500D03*
X115750000Y-9587500D03*
X115250000Y-9587500D03*
X114750000Y-9587500D03*
X114250000Y-9587500D03*
X113750000Y-9587500D03*
X113250000Y-9587500D03*
X112750000Y-9587500D03*
X112250000Y-9587500D03*
X111750000Y-9587500D03*
X111250000Y-9587500D03*
X110750000Y-9587500D03*
X110250000Y-9587500D03*
X109750000Y-9587500D03*
X109250000Y-9587500D03*
X108750000Y-9587500D03*
X108250000Y-9587500D03*
X107750000Y-9587500D03*
X107250000Y-9587500D03*
X106750000Y-9587500D03*
X106250000Y-9587500D03*
%TD*%
D23*
%TO.C,C11*%
X45125000Y-35000000D03*
X42000000Y-35000000D03*
%TD*%
D21*
%TO.C,C22*%
X223750000Y-14312500D03*
X223750000Y-11187500D03*
%TD*%
D29*
%TO.C,TP4*%
X28000000Y-33000000D03*
%TD*%
D15*
%TO.C,R26*%
X27800000Y-25500000D03*
X24700000Y-25500000D03*
%TD*%
D31*
%TO.C,R100*%
X179450000Y-27500000D03*
X182550000Y-27500000D03*
%TD*%
D27*
%TO.C,R50*%
X207750000Y-9450000D03*
X207750000Y-12550000D03*
%TD*%
D21*
%TO.C,C44*%
X197000000Y-26500000D03*
X197000000Y-23375000D03*
%TD*%
D15*
%TO.C,R69*%
X246775000Y-16110000D03*
X243675000Y-16110000D03*
%TD*%
%TO.C,R4*%
X28050000Y-7000000D03*
X24950000Y-7000000D03*
%TD*%
D39*
%TO.C,J8*%
X207000000Y-5000000D03*
D40*
X204500000Y-5000000D03*
X202000000Y-5000000D03*
X199500000Y-5000000D03*
%TD*%
D15*
%TO.C,R77*%
X246775000Y-21110000D03*
X243675000Y-21110000D03*
%TD*%
D27*
%TO.C,R46*%
X195250000Y-9450000D03*
X195250000Y-12550000D03*
%TD*%
D41*
%TO.C,C20*%
X67000000Y-40437500D03*
X67000000Y-43562500D03*
%TD*%
D15*
%TO.C,R16*%
X22500000Y-13500000D03*
X19400000Y-13500000D03*
%TD*%
D22*
%TO.C,Z2*%
X37500000Y-19200000D03*
X37500000Y-22800000D03*
%TD*%
D42*
%TO.C,Y1*%
X94000000Y-15380000D03*
X94000000Y-10500000D03*
%TD*%
D31*
%TO.C,R72*%
X179450000Y-32000000D03*
X182550000Y-32000000D03*
%TD*%
D20*
%TO.C,C36*%
X65437500Y-5250000D03*
X68562500Y-5250000D03*
%TD*%
D29*
%TO.C,TP5*%
X40250000Y-4500000D03*
%TD*%
D43*
%TO.C,IC4*%
X99925000Y-5155000D03*
X99925000Y-3885000D03*
X99925000Y-2615000D03*
X99925000Y-1345000D03*
X92575000Y-1345000D03*
X92575000Y-2615000D03*
X92575000Y-3885000D03*
X92575000Y-5155000D03*
%TD*%
D30*
%TO.C,U2*%
X235775000Y-14460000D03*
X235775000Y-15095000D03*
X235775000Y-15730000D03*
X235775000Y-16365000D03*
X235775000Y-17000000D03*
X235775000Y-17635000D03*
X235775000Y-18270000D03*
X235775000Y-18905000D03*
X241025000Y-18905000D03*
X241025000Y-18270000D03*
X241025000Y-17635000D03*
X241025000Y-17000000D03*
X241025000Y-16365000D03*
X241025000Y-15730000D03*
X241025000Y-15095000D03*
X241025000Y-14460000D03*
%TD*%
D31*
%TO.C,R38*%
X55950000Y-9000000D03*
X59050000Y-9000000D03*
%TD*%
D15*
%TO.C,R22*%
X22300000Y-19500000D03*
X19200000Y-19500000D03*
%TD*%
D41*
%TO.C,C37*%
X62500000Y-3000000D03*
X62500000Y-6125000D03*
%TD*%
D42*
%TO.C,Y2*%
X137250000Y-13250000D03*
X142130000Y-13250000D03*
%TD*%
D44*
%TO.C,U14*%
X97250000Y-31250000D03*
X97250000Y-30450000D03*
X95750000Y-30450000D03*
X95750000Y-31250000D03*
%TD*%
D31*
%TO.C,R71*%
X185000000Y-32000000D03*
X188100000Y-32000000D03*
%TD*%
D35*
%TO.C,R30*%
X169500000Y-28300000D03*
X169500000Y-25200000D03*
%TD*%
D39*
%TO.C,J3*%
X232000000Y-5000000D03*
D40*
X229500000Y-5000000D03*
X227000000Y-5000000D03*
X224500000Y-5000000D03*
%TD*%
D35*
%TO.C,R45*%
X192000000Y-12500000D03*
X192000000Y-9400000D03*
%TD*%
D22*
%TO.C,Z3*%
X37500000Y-25200000D03*
X37500000Y-28800000D03*
%TD*%
D31*
%TO.C,R41*%
X226450000Y-10500000D03*
X229550000Y-10500000D03*
%TD*%
D16*
%TO.C,PS1*%
X240825000Y-41915000D03*
X238285000Y-41915000D03*
X230665000Y-41915000D03*
X225585000Y-41915000D03*
%TD*%
D27*
%TO.C,R7*%
X34000000Y-19450000D03*
X34000000Y-22550000D03*
%TD*%
D36*
%TO.C,LED1*%
X108250000Y-1750000D03*
X111250000Y-1750000D03*
%TD*%
D30*
%TO.C,U6*%
X235875000Y-28277500D03*
X235875000Y-28912500D03*
X235875000Y-29547500D03*
X235875000Y-30182500D03*
X235875000Y-30817500D03*
X235875000Y-31452500D03*
X235875000Y-32087500D03*
X235875000Y-32722500D03*
X241125000Y-32722500D03*
X241125000Y-32087500D03*
X241125000Y-31452500D03*
X241125000Y-30817500D03*
X241125000Y-30182500D03*
X241125000Y-29547500D03*
X241125000Y-28912500D03*
X241125000Y-28277500D03*
%TD*%
D21*
%TO.C,C46*%
X207000000Y-26562500D03*
X207000000Y-23437500D03*
%TD*%
D27*
%TO.C,R60*%
X197000000Y-28450000D03*
X197000000Y-31550000D03*
%TD*%
D15*
%TO.C,R81*%
X246775000Y-26110000D03*
X243675000Y-26110000D03*
%TD*%
%TO.C,R85*%
X246725000Y-31110000D03*
X243625000Y-31110000D03*
%TD*%
%TO.C,R83*%
X251725000Y-31110000D03*
X248625000Y-31110000D03*
%TD*%
D27*
%TO.C,R55*%
X202000000Y-33500000D03*
X202000000Y-36600000D03*
%TD*%
%TO.C,R59*%
X197000000Y-33500000D03*
X197000000Y-36600000D03*
%TD*%
D21*
%TO.C,C195*%
X92750000Y-33062500D03*
X92750000Y-29937500D03*
%TD*%
D27*
%TO.C,R63*%
X207000000Y-33450000D03*
X207000000Y-36550000D03*
%TD*%
D30*
%TO.C,U4*%
X235775000Y-7595000D03*
X235775000Y-8230000D03*
X235775000Y-8865000D03*
X235775000Y-9500000D03*
X235775000Y-10135000D03*
X235775000Y-10770000D03*
X235775000Y-11405000D03*
X235775000Y-12040000D03*
X241025000Y-12040000D03*
X241025000Y-11405000D03*
X241025000Y-10770000D03*
X241025000Y-10135000D03*
X241025000Y-9500000D03*
X241025000Y-8865000D03*
X241025000Y-8230000D03*
X241025000Y-7595000D03*
%TD*%
D45*
%TO.C,S2*%
X129225000Y-42600000D03*
X120775000Y-42600000D03*
X129225000Y-38900000D03*
X120775000Y-38900000D03*
%TD*%
D21*
%TO.C,C29*%
X201250000Y-12562500D03*
X201250000Y-9437500D03*
%TD*%
D28*
%TO.C,IC6*%
X63595000Y-19325000D03*
X64865000Y-19325000D03*
X66135000Y-19325000D03*
X67405000Y-19325000D03*
X67405000Y-8675000D03*
X66135000Y-8675000D03*
X64865000Y-8675000D03*
X63595000Y-8675000D03*
%TD*%
D23*
%TO.C,C141*%
X230562500Y-28000000D03*
X227437500Y-28000000D03*
%TD*%
D45*
%TO.C,S1*%
X143725000Y-42600000D03*
X135275000Y-42600000D03*
X143725000Y-38900000D03*
X135275000Y-38900000D03*
%TD*%
D35*
%TO.C,R49*%
X204500000Y-12550000D03*
X204500000Y-9450000D03*
%TD*%
D15*
%TO.C,R75*%
X251775000Y-21110000D03*
X248675000Y-21110000D03*
%TD*%
D46*
%TO.C,U8*%
X83220000Y-27300000D03*
X84360000Y-27300000D03*
D47*
X85500000Y-21000000D03*
D46*
X86640000Y-27300000D03*
X87780000Y-27300000D03*
%TD*%
D39*
%TO.C,J9*%
X195750000Y-5000000D03*
D40*
X193250000Y-5000000D03*
X190750000Y-5000000D03*
X188250000Y-5000000D03*
%TD*%
D17*
%TO.C,J5*%
X165650000Y-5975000D03*
D18*
X167250000Y-3975000D03*
D19*
X169750000Y-3975000D03*
%TD*%
D35*
%TO.C,R53*%
X217000000Y-12550000D03*
X217000000Y-9450000D03*
%TD*%
D27*
%TO.C,R17*%
X34000000Y-25450000D03*
X34000000Y-28550000D03*
%TD*%
D21*
%TO.C,C19*%
X63500000Y-43562500D03*
X63500000Y-40437500D03*
%TD*%
D20*
%TO.C,C18*%
X56437500Y-37000000D03*
X59562500Y-37000000D03*
%TD*%
%TO.C,C12*%
X42375000Y-16000000D03*
X45500000Y-16000000D03*
%TD*%
D15*
%TO.C,R28*%
X22300000Y-25500000D03*
X19200000Y-25500000D03*
%TD*%
D39*
%TO.C,J6*%
X219500000Y-5000000D03*
D40*
X217000000Y-5000000D03*
X214500000Y-5000000D03*
X212000000Y-5000000D03*
%TD*%
D15*
%TO.C,R42*%
X230550000Y-14000000D03*
X227450000Y-14000000D03*
%TD*%
D27*
%TO.C,R56*%
X202000000Y-28500000D03*
X202000000Y-31600000D03*
%TD*%
D48*
%TO.C,J15*%
X16125000Y-3150000D03*
X16125000Y-42050000D03*
%TD*%
M02*
