%TF.GenerationSoftware,KiCad,Pcbnew,10.0.3*%
%TF.CreationDate,2026-05-26T21:27:29-07:00*%
%TF.ProjectId,ControlBoard,436f6e74-726f-46c4-926f-6172642e6b69,rev?*%
%TF.SameCoordinates,Original*%
%TF.FileFunction,Paste,Top*%
%TF.FilePolarity,Positive*%
%FSLAX46Y46*%
G04 Gerber Fmt 4.6, Leading zero omitted, Abs format (unit mm)*
G04 Created by KiCad (PCBNEW 10.0.3) date 2026-05-26 21:27:29*
%MOMM*%
%LPD*%
G01*
G04 APERTURE LIST*
G04 Aperture macros list*
%AMRoundRect*
0 Rectangle with rounded corners*
0 $1 Rounding radius*
0 $2 $3 $4 $5 $6 $7 $8 $9 X,Y pos of 4 corners*
0 Add a 4 corners polygon primitive as box body*
4,1,4,$2,$3,$4,$5,$6,$7,$8,$9,$2,$3,0*
0 Add four circle primitives for the rounded corners*
1,1,$1+$1,$2,$3*
1,1,$1+$1,$4,$5*
1,1,$1+$1,$6,$7*
1,1,$1+$1,$8,$9*
0 Add four rect primitives between the rounded corners*
20,1,$1+$1,$2,$3,$4,$5,0*
20,1,$1+$1,$4,$5,$6,$7,0*
20,1,$1+$1,$6,$7,$8,$9,0*
20,1,$1+$1,$8,$9,$2,$3,0*%
G04 Aperture macros list end*
%ADD10RoundRect,0.250000X-0.412500X-1.100000X0.412500X-1.100000X0.412500X1.100000X-0.412500X1.100000X0*%
%ADD11RoundRect,0.250000X1.100000X-0.412500X1.100000X0.412500X-1.100000X0.412500X-1.100000X-0.412500X0*%
%ADD12R,2.050000X1.300000*%
%ADD13R,0.850000X1.050000*%
%ADD14RoundRect,0.250000X0.400000X1.075000X-0.400000X1.075000X-0.400000X-1.075000X0.400000X-1.075000X0*%
%ADD15R,1.000000X1.750000*%
%ADD16RoundRect,0.250000X0.412500X1.100000X-0.412500X1.100000X-0.412500X-1.100000X0.412500X-1.100000X0*%
%ADD17R,1.650000X0.650000*%
%ADD18RoundRect,0.250000X-1.075000X0.400000X-1.075000X-0.400000X1.075000X-0.400000X1.075000X0.400000X0*%
%ADD19R,0.650000X1.850000*%
%ADD20R,1.200000X0.400000*%
%ADD21RoundRect,0.250000X-0.400000X-1.075000X0.400000X-1.075000X0.400000X1.075000X-0.400000X1.075000X0*%
%ADD22RoundRect,0.075000X0.662500X0.075000X-0.662500X0.075000X-0.662500X-0.075000X0.662500X-0.075000X0*%
%ADD23RoundRect,0.075000X0.075000X0.662500X-0.075000X0.662500X-0.075000X-0.662500X0.075000X-0.662500X0*%
%ADD24R,1.925000X0.650000*%
%ADD25RoundRect,0.250000X-1.100000X0.412500X-1.100000X-0.412500X1.100000X-0.412500X1.100000X0.412500X0*%
%ADD26RoundRect,0.250000X1.075000X-0.400000X1.075000X0.400000X-1.075000X0.400000X-1.075000X-0.400000X0*%
%ADD27R,0.300000X1.405000*%
%ADD28R,0.450000X1.475000*%
G04 APERTURE END LIST*
D10*
%TO.C,C10*%
X42437500Y-11500000D03*
X45562500Y-11500000D03*
%TD*%
%TO.C,C140*%
X221937500Y-25000000D03*
X225062500Y-25000000D03*
%TD*%
D11*
%TO.C,C40*%
X57000000Y-29500000D03*
X57000000Y-26375000D03*
%TD*%
D12*
%TO.C,S2*%
X119725000Y-33350000D03*
X111275000Y-33350000D03*
X119725000Y-29650000D03*
X111275000Y-29650000D03*
%TD*%
D13*
%TO.C,Z4*%
X37500000Y-31200000D03*
X37500000Y-34800000D03*
%TD*%
D11*
%TO.C,C39*%
X213750000Y-12562500D03*
X213750000Y-9437500D03*
%TD*%
%TO.C,C42*%
X202000000Y-26562500D03*
X202000000Y-23437500D03*
%TD*%
D14*
%TO.C,R73*%
X251775000Y-16110000D03*
X248675000Y-16110000D03*
%TD*%
D15*
%TO.C,LED1*%
X190000000Y-26500000D03*
X187000000Y-26500000D03*
%TD*%
D16*
%TO.C,C35*%
X68562500Y-2000000D03*
X65437500Y-2000000D03*
%TD*%
%TO.C,C142*%
X225062500Y-28250000D03*
X221937500Y-28250000D03*
%TD*%
D17*
%TO.C,IC4*%
X176825000Y-26095000D03*
X176825000Y-27365000D03*
X176825000Y-28635000D03*
X176825000Y-29905000D03*
X184175000Y-29905000D03*
X184175000Y-28635000D03*
X184175000Y-27365000D03*
X184175000Y-26095000D03*
%TD*%
D18*
%TO.C,R1*%
X33000000Y-13450000D03*
X33000000Y-16550000D03*
%TD*%
D19*
%TO.C,IC3*%
X66905000Y-27175000D03*
X65635000Y-27175000D03*
X64365000Y-27175000D03*
X63095000Y-27175000D03*
X63095000Y-37825000D03*
X64365000Y-37825000D03*
X65635000Y-37825000D03*
X66905000Y-37825000D03*
%TD*%
D11*
%TO.C,C24*%
X188750000Y-12562500D03*
X188750000Y-9437500D03*
%TD*%
D14*
%TO.C,R79*%
X251725000Y-26110000D03*
X248625000Y-26110000D03*
%TD*%
D20*
%TO.C,U5*%
X235900000Y-21277500D03*
X235900000Y-21912500D03*
X235900000Y-22547500D03*
X235900000Y-23182500D03*
X235900000Y-23817500D03*
X235900000Y-24452500D03*
X235900000Y-25087500D03*
X235900000Y-25722500D03*
X241100000Y-25722500D03*
X241100000Y-25087500D03*
X241100000Y-24452500D03*
X241100000Y-23817500D03*
X241100000Y-23182500D03*
X241100000Y-22547500D03*
X241100000Y-21912500D03*
X241100000Y-21277500D03*
%TD*%
D14*
%TO.C,R5*%
X24550000Y-15500000D03*
X21450000Y-15500000D03*
%TD*%
D21*
%TO.C,R86*%
X227200000Y-24250000D03*
X230300000Y-24250000D03*
%TD*%
D14*
%TO.C,R27*%
X24600000Y-31000000D03*
X21500000Y-31000000D03*
%TD*%
D16*
%TO.C,C9*%
X45562500Y-31500000D03*
X42437500Y-31500000D03*
%TD*%
D22*
%TO.C,U1*%
X171162500Y-31750000D03*
X171162500Y-31250000D03*
X171162500Y-30750000D03*
X171162500Y-30250000D03*
X171162500Y-29750000D03*
X171162500Y-29250000D03*
X171162500Y-28750000D03*
X171162500Y-28250000D03*
X171162500Y-27750000D03*
X171162500Y-27250000D03*
X171162500Y-26750000D03*
X171162500Y-26250000D03*
X171162500Y-25750000D03*
X171162500Y-25250000D03*
X171162500Y-24750000D03*
X171162500Y-24250000D03*
X171162500Y-23750000D03*
X171162500Y-23250000D03*
X171162500Y-22750000D03*
X171162500Y-22250000D03*
X171162500Y-21750000D03*
X171162500Y-21250000D03*
X171162500Y-20750000D03*
X171162500Y-20250000D03*
X171162500Y-19750000D03*
X171162500Y-19250000D03*
X171162500Y-18750000D03*
X171162500Y-18250000D03*
X171162500Y-17750000D03*
X171162500Y-17250000D03*
X171162500Y-16750000D03*
X171162500Y-16250000D03*
X171162500Y-15750000D03*
X171162500Y-15250000D03*
X171162500Y-14750000D03*
X171162500Y-14250000D03*
D23*
X169250000Y-12337500D03*
X168750000Y-12337500D03*
X168250000Y-12337500D03*
X167750000Y-12337500D03*
X167250000Y-12337500D03*
X166750000Y-12337500D03*
X166250000Y-12337500D03*
X165750000Y-12337500D03*
X165250000Y-12337500D03*
X164750000Y-12337500D03*
X164250000Y-12337500D03*
X163750000Y-12337500D03*
X163250000Y-12337500D03*
X162750000Y-12337500D03*
X162250000Y-12337500D03*
X161750000Y-12337500D03*
X161250000Y-12337500D03*
X160750000Y-12337500D03*
X160250000Y-12337500D03*
X159750000Y-12337500D03*
X159250000Y-12337500D03*
X158750000Y-12337500D03*
X158250000Y-12337500D03*
X157750000Y-12337500D03*
X157250000Y-12337500D03*
X156750000Y-12337500D03*
X156250000Y-12337500D03*
X155750000Y-12337500D03*
X155250000Y-12337500D03*
X154750000Y-12337500D03*
X154250000Y-12337500D03*
X153750000Y-12337500D03*
X153250000Y-12337500D03*
X152750000Y-12337500D03*
X152250000Y-12337500D03*
X151750000Y-12337500D03*
D22*
X149837500Y-14250000D03*
X149837500Y-14750000D03*
X149837500Y-15250000D03*
X149837500Y-15750000D03*
X149837500Y-16250000D03*
X149837500Y-16750000D03*
X149837500Y-17250000D03*
X149837500Y-17750000D03*
X149837500Y-18250000D03*
X149837500Y-18750000D03*
X149837500Y-19250000D03*
X149837500Y-19750000D03*
X149837500Y-20250000D03*
X149837500Y-20750000D03*
X149837500Y-21250000D03*
X149837500Y-21750000D03*
X149837500Y-22250000D03*
X149837500Y-22750000D03*
X149837500Y-23250000D03*
X149837500Y-23750000D03*
X149837500Y-24250000D03*
X149837500Y-24750000D03*
X149837500Y-25250000D03*
X149837500Y-25750000D03*
X149837500Y-26250000D03*
X149837500Y-26750000D03*
X149837500Y-27250000D03*
X149837500Y-27750000D03*
X149837500Y-28250000D03*
X149837500Y-28750000D03*
X149837500Y-29250000D03*
X149837500Y-29750000D03*
X149837500Y-30250000D03*
X149837500Y-30750000D03*
X149837500Y-31250000D03*
X149837500Y-31750000D03*
D23*
X151750000Y-33662500D03*
X152250000Y-33662500D03*
X152750000Y-33662500D03*
X153250000Y-33662500D03*
X153750000Y-33662500D03*
X154250000Y-33662500D03*
X154750000Y-33662500D03*
X155250000Y-33662500D03*
X155750000Y-33662500D03*
X156250000Y-33662500D03*
X156750000Y-33662500D03*
X157250000Y-33662500D03*
X157750000Y-33662500D03*
X158250000Y-33662500D03*
X158750000Y-33662500D03*
X159250000Y-33662500D03*
X159750000Y-33662500D03*
X160250000Y-33662500D03*
X160750000Y-33662500D03*
X161250000Y-33662500D03*
X161750000Y-33662500D03*
X162250000Y-33662500D03*
X162750000Y-33662500D03*
X163250000Y-33662500D03*
X163750000Y-33662500D03*
X164250000Y-33662500D03*
X164750000Y-33662500D03*
X165250000Y-33662500D03*
X165750000Y-33662500D03*
X166250000Y-33662500D03*
X166750000Y-33662500D03*
X167250000Y-33662500D03*
X167750000Y-33662500D03*
X168250000Y-33662500D03*
X168750000Y-33662500D03*
X169250000Y-33662500D03*
%TD*%
D14*
%TO.C,R11*%
X24550000Y-21000000D03*
X21450000Y-21000000D03*
%TD*%
D18*
%TO.C,R23*%
X33000000Y-31450000D03*
X33000000Y-34550000D03*
%TD*%
D13*
%TO.C,Z1*%
X37500000Y-13200000D03*
X37500000Y-16800000D03*
%TD*%
D18*
%TO.C,R64*%
X207000000Y-28450000D03*
X207000000Y-31550000D03*
%TD*%
D21*
%TO.C,R31*%
X181950000Y-32500000D03*
X185050000Y-32500000D03*
%TD*%
D24*
%TO.C,IC2*%
X44500000Y-19460000D03*
X44500000Y-20730000D03*
X44500000Y-22000000D03*
X44500000Y-23270000D03*
X44500000Y-24540000D03*
X44500000Y-25810000D03*
X44500000Y-27080000D03*
X44500000Y-28350000D03*
X53924000Y-28350000D03*
X53924000Y-27080000D03*
X53924000Y-25810000D03*
X53924000Y-24540000D03*
X53924000Y-23270000D03*
X53924000Y-22000000D03*
X53924000Y-20730000D03*
X53924000Y-19460000D03*
%TD*%
D10*
%TO.C,C7*%
X104437500Y-28250000D03*
X107562500Y-28250000D03*
%TD*%
D14*
%TO.C,R9*%
X30050000Y-21000000D03*
X26950000Y-21000000D03*
%TD*%
D18*
%TO.C,R54*%
X220250000Y-9450000D03*
X220250000Y-12550000D03*
%TD*%
D21*
%TO.C,R13*%
X104950000Y-12250000D03*
X108050000Y-12250000D03*
%TD*%
D16*
%TO.C,C11*%
X45562500Y-36000000D03*
X42437500Y-36000000D03*
%TD*%
D11*
%TO.C,C22*%
X224750000Y-14312500D03*
X224750000Y-11187500D03*
%TD*%
D18*
%TO.C,R50*%
X207750000Y-9450000D03*
X207750000Y-12550000D03*
%TD*%
D11*
%TO.C,C44*%
X197000000Y-26500000D03*
X197000000Y-23375000D03*
%TD*%
D14*
%TO.C,R69*%
X246775000Y-16110000D03*
X243675000Y-16110000D03*
%TD*%
%TO.C,R29*%
X123800000Y-12250000D03*
X120700000Y-12250000D03*
%TD*%
%TO.C,R19*%
X30050000Y-26000000D03*
X26950000Y-26000000D03*
%TD*%
%TO.C,R77*%
X246775000Y-21110000D03*
X243675000Y-21110000D03*
%TD*%
D18*
%TO.C,R46*%
X195250000Y-9450000D03*
X195250000Y-12550000D03*
%TD*%
D25*
%TO.C,C20*%
X67000000Y-39937500D03*
X67000000Y-43062500D03*
%TD*%
D13*
%TO.C,Z2*%
X37500000Y-19200000D03*
X37500000Y-22800000D03*
%TD*%
D15*
%TO.C,LED2*%
X190000000Y-31500000D03*
X187000000Y-31500000D03*
%TD*%
D10*
%TO.C,C36*%
X65437500Y-5500000D03*
X68562500Y-5500000D03*
%TD*%
D14*
%TO.C,R21*%
X24550000Y-26000000D03*
X21450000Y-26000000D03*
%TD*%
D20*
%TO.C,U2*%
X235800000Y-14460000D03*
X235800000Y-15095000D03*
X235800000Y-15730000D03*
X235800000Y-16365000D03*
X235800000Y-17000000D03*
X235800000Y-17635000D03*
X235800000Y-18270000D03*
X235800000Y-18905000D03*
X241000000Y-18905000D03*
X241000000Y-18270000D03*
X241000000Y-17635000D03*
X241000000Y-17000000D03*
X241000000Y-16365000D03*
X241000000Y-15730000D03*
X241000000Y-15095000D03*
X241000000Y-14460000D03*
%TD*%
D21*
%TO.C,R38*%
X54450000Y-9250000D03*
X57550000Y-9250000D03*
%TD*%
D25*
%TO.C,C37*%
X62500000Y-3000000D03*
X62500000Y-6125000D03*
%TD*%
D26*
%TO.C,R45*%
X192000000Y-12500000D03*
X192000000Y-9400000D03*
%TD*%
D13*
%TO.C,Z3*%
X37500000Y-25200000D03*
X37500000Y-28800000D03*
%TD*%
D26*
%TO.C,R41*%
X229500000Y-12550000D03*
X229500000Y-9450000D03*
%TD*%
D27*
%TO.C,J15*%
X96250000Y-35752500D03*
X96750000Y-35752500D03*
X97250000Y-35752500D03*
X97750000Y-35752500D03*
X98250000Y-35752500D03*
X98750000Y-35752500D03*
X99250000Y-35752500D03*
X99750000Y-35752500D03*
X100250000Y-35752500D03*
X100750000Y-35752500D03*
X101250000Y-35752500D03*
X101750000Y-35752500D03*
%TD*%
D18*
%TO.C,R7*%
X33000000Y-19450000D03*
X33000000Y-22550000D03*
%TD*%
D20*
%TO.C,U6*%
X235900000Y-28277500D03*
X235900000Y-28912500D03*
X235900000Y-29547500D03*
X235900000Y-30182500D03*
X235900000Y-30817500D03*
X235900000Y-31452500D03*
X235900000Y-32087500D03*
X235900000Y-32722500D03*
X241100000Y-32722500D03*
X241100000Y-32087500D03*
X241100000Y-31452500D03*
X241100000Y-30817500D03*
X241100000Y-30182500D03*
X241100000Y-29547500D03*
X241100000Y-28912500D03*
X241100000Y-28277500D03*
%TD*%
D11*
%TO.C,C46*%
X207000000Y-26562500D03*
X207000000Y-23437500D03*
%TD*%
D14*
%TO.C,R3*%
X30050000Y-15500000D03*
X26950000Y-15500000D03*
%TD*%
D18*
%TO.C,R60*%
X197000000Y-28450000D03*
X197000000Y-31550000D03*
%TD*%
D14*
%TO.C,R81*%
X246775000Y-26110000D03*
X243675000Y-26110000D03*
%TD*%
%TO.C,R85*%
X246725000Y-31110000D03*
X243625000Y-31110000D03*
%TD*%
%TO.C,R83*%
X251725000Y-31110000D03*
X248625000Y-31110000D03*
%TD*%
D12*
%TO.C,S1*%
X119725000Y-41850000D03*
X111275000Y-41850000D03*
X119725000Y-38150000D03*
X111275000Y-38150000D03*
%TD*%
D18*
%TO.C,R55*%
X202000000Y-33500000D03*
X202000000Y-36600000D03*
%TD*%
%TO.C,R59*%
X197000000Y-33500000D03*
X197000000Y-36600000D03*
%TD*%
%TO.C,R63*%
X207000000Y-33450000D03*
X207000000Y-36550000D03*
%TD*%
D20*
%TO.C,U4*%
X235800000Y-7595000D03*
X235800000Y-8230000D03*
X235800000Y-8865000D03*
X235800000Y-9500000D03*
X235800000Y-10135000D03*
X235800000Y-10770000D03*
X235800000Y-11405000D03*
X235800000Y-12040000D03*
X241000000Y-12040000D03*
X241000000Y-11405000D03*
X241000000Y-10770000D03*
X241000000Y-10135000D03*
X241000000Y-9500000D03*
X241000000Y-8865000D03*
X241000000Y-8230000D03*
X241000000Y-7595000D03*
%TD*%
D11*
%TO.C,C29*%
X201250000Y-12562500D03*
X201250000Y-9437500D03*
%TD*%
D28*
%TO.C,IC1*%
X100950000Y-26600000D03*
X100300000Y-26600000D03*
X99650000Y-26600000D03*
X99000000Y-26600000D03*
X98350000Y-26600000D03*
X97700000Y-26600000D03*
X97050000Y-26600000D03*
X97050000Y-32476000D03*
X97700000Y-32476000D03*
X98350000Y-32476000D03*
X99000000Y-32476000D03*
X99650000Y-32476000D03*
X100300000Y-32476000D03*
X100950000Y-32476000D03*
%TD*%
D19*
%TO.C,IC6*%
X63595000Y-19325000D03*
X64865000Y-19325000D03*
X66135000Y-19325000D03*
X67405000Y-19325000D03*
X67405000Y-8675000D03*
X66135000Y-8675000D03*
X64865000Y-8675000D03*
X63595000Y-8675000D03*
%TD*%
D10*
%TO.C,C141*%
X227437500Y-29000000D03*
X230562500Y-29000000D03*
%TD*%
D26*
%TO.C,R49*%
X204500000Y-12550000D03*
X204500000Y-9450000D03*
%TD*%
D14*
%TO.C,R75*%
X251775000Y-21110000D03*
X248675000Y-21110000D03*
%TD*%
%TO.C,R25*%
X30050000Y-31000000D03*
X26950000Y-31000000D03*
%TD*%
D26*
%TO.C,R53*%
X217000000Y-12550000D03*
X217000000Y-9450000D03*
%TD*%
D18*
%TO.C,R17*%
X33000000Y-25450000D03*
X33000000Y-28550000D03*
%TD*%
D21*
%TO.C,R30*%
X112700000Y-12250000D03*
X115800000Y-12250000D03*
%TD*%
D11*
%TO.C,C19*%
X63500000Y-43062500D03*
X63500000Y-39937500D03*
%TD*%
D10*
%TO.C,C18*%
X56437500Y-37000000D03*
X59562500Y-37000000D03*
%TD*%
%TO.C,C12*%
X42375000Y-16000000D03*
X45500000Y-16000000D03*
%TD*%
D26*
%TO.C,R42*%
X229500000Y-17550000D03*
X229500000Y-14450000D03*
%TD*%
D18*
%TO.C,R56*%
X202000000Y-28500000D03*
X202000000Y-31600000D03*
%TD*%
M02*
