M48
; DRILL file KiCad 10.0.3 date 2026-07-17T00:00:57
; FORMAT={-:-/ absolute / metric / decimal}
; #@! TF.CreationDate,2026-07-17T00:00:57-07:00
; #@! TF.GenerationSoftware,Kicad,Pcbnew,10.0.3
; #@! TF.FileFunction,MixedPlating,1,8
FMAT,2
METRIC
; #@! TA.AperFunction,Plated,PTH,ViaDrill
T1C0.300
; #@! TA.AperFunction,Plated,PTH,ComponentDrill
T2C0.760
; #@! TA.AperFunction,Plated,PTH,ComponentDrill
T3C0.800
; #@! TA.AperFunction,Plated,PTH,ComponentDrill
T4C1.000
; #@! TA.AperFunction,Plated,PTH,ComponentDrill
T5C1.050
; #@! TA.AperFunction,Plated,PTH,ComponentDrill
T6C1.100
; #@! TA.AperFunction,Plated,PTH,ComponentDrill
T7C1.150
; #@! TA.AperFunction,Plated,PTH,ComponentDrill
T8C1.500
; #@! TA.AperFunction,Plated,PTH,ComponentDrill
T9C5.300
; #@! TA.AperFunction,NonPlated,NPTH,ComponentDrill
T10C1.300
; #@! TA.AperFunction,NonPlated,NPTH,ComponentDrill
T11C1.600
%
G90
G05
T1
X17.5Y-32.0
X17.5Y-38.5
X17.75Y-7.1
X17.75Y-13.3
X17.75Y-19.5
X17.75Y-25.7
X21.7Y-19.5
X21.75Y-25.5
X21.9Y-13.5
X21.95Y-7.0
X24.25Y-38.0
X24.8Y-19.5
X24.85Y-25.5
X25.0Y-13.5
X25.05Y-7.0
X27.2Y-19.5
X27.2Y-25.5
X27.4Y-13.5
X27.45Y-7.0
X30.05Y-31.0
X30.3Y-19.5
X30.3Y-25.5
X30.5Y-13.5
X30.55Y-7.0
X33.0Y-13.45
X33.0Y-19.438
X33.0Y-25.438
X33.0Y-31.45
X33.0Y-34.562
X33.75Y-16.562
X34.0Y-22.55
X34.0Y-28.562
X37.5Y-13.45
X37.5Y-19.2
X37.5Y-25.45
X37.5Y-31.2
X37.5Y-34.55
X40.5Y-12.5
X40.5Y-37.0
X41.0Y-20.5
X41.0Y-26.5
X42.0Y-22.0
X42.0Y-27.5
X42.675Y-23.5
X42.675Y-25.5
X44.5Y-28.35
X45.5Y-16.0
X45.562Y-11.5
X45.562Y-31.5
X45.562Y-36.0
X46.6Y-20.8
X46.8Y-28.6
X50.0Y-40.45
X53.0Y-9.75
X53.924Y-28.35
X57.0Y-26.5
X61.0Y-18.5
X62.0Y-26.0
X62.0Y-28.0
X62.0Y-37.5
X62.5Y-8.0
X62.5Y-9.0
X62.5Y-19.5
X62.5Y-25.0
X63.225Y-4.25
X63.225Y-6.75
X63.595Y-21.0
X64.0Y-39.25
X64.136Y-41.6
X65.0Y-39.25
X65.25Y-43.0
X65.6Y-7.296
X66.26Y-39.244
X67.402Y-6.668
X67.446Y-4.126
X67.73Y-36.997
X67.754Y-38.5
X68.0Y-26.5
X68.0Y-28.0
X68.5Y-8.5
X68.5Y-9.5
X68.5Y-18.5
X68.5Y-19.5
X73.0Y-29.5
X73.0Y-40.562
X73.04Y-26.46
X75.188Y-17.25
X75.75Y-20.375
X76.0Y-4.438
X77.0Y-19.975
X77.75Y-19.25
X79.75Y-18.0
X80.0Y-16.75
X80.25Y-21.0
X80.25Y-23.706
X80.25Y-24.75
X80.25Y-26.0
X80.625Y-21.875
X80.75Y-23.0
X84.5Y-25.5
X85.5Y-29.25
X86.25Y-29.25
X87.0Y-29.25
X87.75Y-29.25
X89.25Y-19.75
X89.25Y-20.75
X89.25Y-22.0
X89.75Y-20.25
X89.75Y-21.25
X89.75Y-22.5
X91.25Y-18.5
X92.575Y-1.345
X92.575Y-2.615
X92.575Y-3.885
X92.75Y-37.25
X92.906Y-30.094
X94.25Y-5.5
X94.25Y-21.75
X94.25Y-28.25
X94.75Y-20.5
X94.75Y-27.5
X95.25Y-20.0
X95.25Y-21.75
X95.25Y-36.0
X95.75Y-19.75
X95.75Y-25.5
X96.25Y-2.75
X96.25Y-11.25
X96.25Y-15.5
X96.25Y-22.5
X96.5Y-36.825
X96.75Y-10.75
X96.75Y-23.0
X97.25Y-4.0
X97.25Y-15.5
X97.25Y-25.0
X97.75Y-5.25
X97.75Y-15.0
X97.75Y-36.75
X98.0Y-24.5
X98.25Y-2.75
X98.25Y-14.5
X98.75Y-1.25
X98.75Y-13.5
X99.15Y-36.15
X99.25Y-13.0
X99.75Y-6.75
X99.75Y-24.5
X99.75Y-25.5
X99.75Y-34.25
X99.925Y-2.615
X99.925Y-5.155
X100.25Y-7.25
X100.25Y-34.75
X100.25Y-35.75
X100.75Y-7.75
X100.75Y-23.5
X100.75Y-37.75
X101.25Y-8.25
X101.25Y-18.5
X101.25Y-24.5
X101.25Y-25.5
X101.25Y-32.75
X101.5Y-20.0
X101.5Y-35.25
X101.75Y-8.75
X101.75Y-17.5
X101.75Y-25.0
X101.75Y-33.25
X102.25Y-20.1
X102.5Y-26.65
X102.75Y-3.5
X102.75Y-34.75
X103.0Y-27.0
X103.0Y-27.75
X103.25Y-22.5
X103.25Y-24.5
X103.5Y-17.0
X103.5Y-18.0
X103.5Y-20.0
X103.5Y-23.0
X103.5Y-24.0
X104.25Y-31.25
X105.25Y-9.5
X105.25Y-11.5
X105.25Y-13.5
X105.25Y-14.5
X105.25Y-15.5
X105.25Y-21.0
X105.25Y-23.5
X105.25Y-25.5
X105.5Y-13.0
X105.5Y-15.0
X105.5Y-25.0
X105.5Y-30.75
X105.75Y-18.5
X106.0Y-1.75
X106.0Y-20.5
X106.0Y-26.5
X106.25Y-25.5
X106.75Y-3.75
X106.75Y-14.5
X106.75Y-18.0
X106.75Y-20.5
X106.75Y-26.5
X106.75Y-29.75
X106.75Y-32.25
X106.75Y-34.25
X106.95Y-27.25
X107.25Y-1.925
X107.35Y-29.75
X107.75Y-23.25
X107.75Y-28.5
X107.938Y-18.25
X108.0Y-13.5
X108.0Y-15.75
X108.0Y-25.35
X108.25Y-6.75
X109.25Y-23.5
X109.25Y-34.5
X109.75Y-29.5
X110.25Y-6.25
X110.25Y-28.5
X110.25Y-30.0
X110.5Y-34.75
X110.75Y-29.0
X110.75Y-33.25
X111.0Y-25.25
X111.25Y-13.25
X111.25Y-16.0
X111.25Y-32.75
X111.35Y-1.75
X111.75Y-6.25
X111.75Y-34.25
X112.25Y-31.75
X112.75Y-32.25
X113.0Y-11.0
X113.25Y-15.75
X113.25Y-25.25
X113.5Y-13.5
X113.75Y-5.75
X113.75Y-33.75
X114.25Y-5.25
X114.25Y-32.75
X114.75Y-4.75
X114.75Y-33.25
X115.25Y-4.25
X115.25Y-33.75
X116.5Y-18.25
X116.5Y-21.5
X116.5Y-25.25
X116.75Y-3.75
X116.75Y-13.25
X116.75Y-37.75
X117.0Y-1.8
X117.25Y-36.75
X117.659Y-3.25
X117.75Y-11.0
X117.75Y-36.25
X118.5Y-1.8
X118.75Y-11.0
X118.75Y-30.5
X119.25Y-7.25
X119.25Y-35.75
X119.75Y-7.75
X119.75Y-35.25
X119.75Y-43.75
X120.0Y-2.749
X120.25Y-8.25
X120.25Y-34.75
X120.75Y-8.75
X120.75Y-34.25
X121.25Y-8.25
X121.75Y-8.65
X121.75Y-37.25
X121.762Y-2.0
X122.15Y-13.6
X122.75Y-7.25
X122.75Y-43.75
X123.0Y-36.75
X123.25Y-16.0
X123.25Y-26.5
X123.5Y-18.0
X123.75Y-7.25
X123.75Y-11.5
X123.75Y-15.5
X123.75Y-21.5
X124.0Y-17.5
X124.0Y-23.0
X124.0Y-24.0
X124.25Y-13.5
X124.5Y-30.5
X124.533Y-24.967
X124.75Y-13.0
X124.75Y-14.0
X124.75Y-15.0
X124.75Y-16.5
X124.75Y-17.5
X124.75Y-39.188
X125.0Y-42.5
X125.75Y-30.5
X126.5Y-10.0
X126.5Y-19.0
X127.0Y-19.5
X127.0Y-24.0
X127.125Y-2.0
X127.25Y-12.0
X127.25Y-16.75
X127.25Y-24.567
X127.75Y-17.5
X127.75Y-19.5
X128.25Y-11.0
X128.25Y-24.0
X128.5Y-19.6
X128.5Y-42.5
X128.75Y-16.75
X128.75Y-23.0
X129.202Y-38.775
X129.25Y-2.0
X129.25Y-19.6
X129.75Y-23.0
X130.0Y-19.5
X130.0Y-21.4
X130.25Y-22.25
X130.25Y-37.0
X130.25Y-44.0
X130.75Y-14.5
X130.75Y-30.5
X131.0Y-24.0
X131.25Y-14.0
X131.45Y-30.5
X131.5Y-24.5
X132.0Y-17.5
X132.0Y-25.0
X132.0Y-30.5
X132.5Y-10.75
X132.5Y-40.5
X133.0Y-11.25
X133.0Y-30.5
X133.0Y-37.25
X133.5Y-36.75
X133.5Y-42.25
X134.0Y-12.5
X134.0Y-30.425
X134.0Y-37.25
X134.25Y-5.75
X134.45Y-12.0
X134.5Y-10.75
X135.0Y-11.25
X135.0Y-26.5
X135.275Y-38.9
X135.5Y-21.5
X135.5Y-24.5
X135.5Y-27.0
X135.533Y-4.25
X135.75Y-44.0
X136.0Y-4.75
X136.0Y-22.0
X136.25Y-27.0
X136.25Y-28.5
X136.75Y-17.25
X136.75Y-24.0
X136.75Y-26.0
X136.75Y-29.5
X137.25Y-21.0
X137.25Y-26.5
X137.25Y-30.0
X137.5Y-17.5
X137.625Y-2.0
X137.75Y-10.5
X137.75Y-20.0
X137.75Y-32.25
X137.75Y-43.0
X138.25Y-23.0
X138.788Y-14.541
X139.25Y-29.0
X139.75Y-2.25
X140.0Y-18.5
X140.19Y-13.75
X140.75Y-18.25
X141.0Y-42.25
X141.25Y-19.0
X141.25Y-22.0
X141.25Y-24.5
X141.25Y-26.0
X141.25Y-27.0
X141.5Y-10.5
X141.5Y-21.5
X141.5Y-24.0
X141.5Y-26.5
X142.25Y-29.0
X142.5Y-2.25
X142.75Y-22.25
X142.75Y-31.25
X143.725Y-38.9
X143.75Y-17.0
X143.75Y-21.75
X143.75Y-32.75
X143.75Y-41.0
X144.25Y-19.5
X144.25Y-33.25
X144.5Y-17.0
X144.5Y-22.5
X144.65Y-26.75
X144.75Y-21.5
X144.75Y-31.75
X145.0Y-25.0
X145.034Y-20.4
X145.15Y-17.5
X145.35Y-27.0
X145.5Y-17.0
X145.75Y-42.75
X146.0Y-15.0
X146.056Y-16.0
X146.25Y-16.75
X146.75Y-24.0
X146.75Y-28.9
X146.8Y-26.25
X147.0Y-34.75
X147.125Y-15.875
X147.25Y-40.25
X147.5Y-35.25
X147.5Y-36.75
X148.175Y-22.5
X148.695Y-27.38
X148.75Y-13.5
X148.75Y-17.25
X148.75Y-18.5
X148.75Y-35.75
X148.75Y-37.25
X149.0Y-11.55
X149.0Y-13.0
X149.0Y-22.75
X149.25Y-14.0
X149.35Y-26.438
X149.5Y-17.25
X149.5Y-35.75
X149.75Y-23.75
X149.75Y-25.5
X150.15Y-26.0
X150.25Y-22.5
X150.25Y-29.0
X150.25Y-35.5
X150.5Y-21.4
X150.5Y-23.0
X150.5Y-24.0
X150.5Y-26.5
X150.5Y-27.5
X150.75Y-23.5
X150.75Y-26.0
X150.75Y-27.0
X151.0Y-19.0
X151.0Y-30.5
X151.5Y-38.75
X151.75Y-30.5
X152.0Y-7.25
X152.25Y-10.75
X152.25Y-16.5
X152.25Y-18.5
X152.5Y-30.5
X152.5Y-38.75
X152.75Y-35.5
X152.825Y-29.0
X153.5Y-1.45
X153.5Y-19.5
X153.75Y-14.5
X153.75Y-22.5
X153.75Y-24.0
X153.75Y-38.25
X154.25Y-19.25
X154.25Y-26.5
X154.25Y-34.5
X154.75Y-6.25
X154.75Y-12.0
X154.75Y-26.0
X154.75Y-34.15
X155.25Y-27.5
X155.25Y-35.15
X155.75Y-27.0
X155.75Y-34.75
X156.0Y-13.0
X156.0Y-22.25
X156.25Y-16.25
X156.25Y-17.5
X156.25Y-23.5
X156.25Y-35.25
X156.5Y-14.5
X156.5Y-36.75
X156.75Y-21.0
X156.75Y-22.0
X156.75Y-23.0
X156.75Y-35.75
X157.25Y-33.25
X157.5Y-14.0
X157.75Y-32.75
X158.25Y-13.0
X158.25Y-32.25
X158.75Y-31.75
X159.0Y-35.0
X159.25Y-11.55
X159.25Y-15.0
X159.25Y-17.5
X159.25Y-30.0
X159.25Y-36.75
X159.75Y-16.75
X159.75Y-29.5
X160.25Y-16.0
X160.25Y-29.0
X160.5Y-37.75
X160.75Y-15.25
X160.75Y-28.5
X161.25Y-18.0
X161.25Y-20.75
X161.25Y-24.5
X161.75Y-19.25
X161.75Y-31.25
X161.75Y-37.25
X162.25Y-11.75
X162.25Y-30.75
X162.75Y-18.5
X162.75Y-25.5
X163.0Y-1.5
X163.25Y-18.0
X163.25Y-25.0
X163.5Y-32.25
X163.75Y-20.0
X163.75Y-21.5
X163.75Y-28.0
X164.25Y-36.25
X164.5Y-20.0
X165.0Y-11.15
X165.0Y-36.75
X165.0Y-37.75
X165.5Y-10.75
X165.5Y-22.0
X165.5Y-24.0
X166.0Y-10.25
X166.0Y-22.5
X166.5Y-9.75
X166.5Y-23.0
X167.0Y-9.25
X167.0Y-23.5
X167.0Y-33.75
X167.5Y-8.75
X167.5Y-32.0
X167.5Y-35.5
X168.0Y-8.25
X168.0Y-24.0
X168.5Y-7.75
X169.0Y-7.25
X169.5Y-25.2
X169.5Y-28.312
X169.5Y-33.3
X169.938Y-10.25
X170.0Y-7.5
X171.25Y-32.25
X171.491Y-37.998
X171.75Y-31.25
X172.25Y-1.5
X172.5Y-35.23
X173.0Y-26.25
X173.5Y-25.75
X174.0Y-24.0
X174.75Y-30.5
X175.0Y-33.75
X175.15Y-27.75
X175.35Y-19.6
X175.5Y-17.1
X176.75Y-25.5
X177.25Y-24.25
X177.25Y-29.0
X177.5Y-32.0
X178.0Y-13.75
X178.0Y-23.5
X178.5Y-22.75
X178.75Y-13.25
X179.0Y-22.0
X179.438Y-32.0
X179.75Y-12.5
X179.75Y-19.5
X180.75Y-11.25
X180.75Y-17.0
X181.25Y-19.5
X181.5Y-17.0
X181.75Y-14.75
X182.55Y-27.5
X182.562Y-32.0
X182.932Y-17.182
X184.0Y-16.75
X184.5Y-16.0
X185.0Y-15.25
X185.5Y-14.5
X186.0Y-13.75
X186.0Y-25.25
X186.5Y-13.0
X186.75Y-24.5
X186.75Y-36.5
X186.75Y-42.75
X187.0Y-12.25
X187.5Y-7.5
X187.5Y-10.0
X187.5Y-23.75
X188.25Y-23.0
X189.75Y-24.5
X190.0Y-2.5
X190.25Y-26.5
X190.75Y-31.75
X191.455Y-33.25
X191.5Y-29.0
X192.5Y-2.5
X193.0Y-28.5
X194.476Y-26.653
X194.497Y-23.366
X194.5Y-31.75
X195.0Y-2.5
X195.175Y-28.5
X197.0Y-26.5
X197.0Y-31.55
X197.5Y-2.5
X197.75Y-13.75
X198.825Y-28.5
X199.5Y-23.438
X199.5Y-26.562
X199.5Y-31.75
X200.175Y-28.5
X202.0Y-26.562
X202.0Y-31.6
X202.5Y-2.5
X203.825Y-28.45
X204.5Y-23.438
X204.5Y-26.562
X204.5Y-31.75
X205.0Y-2.5
X205.0Y-14.438
X207.0Y-26.562
X207.0Y-31.55
X207.5Y-2.5
X208.2Y-28.6
X209.75Y-38.0
X210.0Y-2.5
X210.5Y-21.5
X210.5Y-33.5
X211.25Y-20.25
X211.75Y-18.875
X212.0Y-24.0
X212.25Y-17.5
X212.5Y-27.5
X212.5Y-30.0
X212.5Y-40.0
X215.0Y-2.5
X215.5Y-31.5
X217.5Y-2.5
X217.72Y-34.7
X217.75Y-14.387
X221.5Y-25.5
X221.938Y-28.25
X222.5Y-5.0
X222.5Y-10.0
X222.5Y-17.5
X223.3Y-34.7
X224.0Y-34.0
X225.0Y-10.0
X225.0Y-17.5
X227.25Y-23.5
X227.47Y-16.562
X227.5Y-32.5
X227.5Y-35.0
X227.5Y-37.5
X227.5Y-40.0
X230.0Y-2.5
X230.0Y-32.5
X230.0Y-35.0
X230.0Y-37.5
X230.65Y-23.8
X230.65Y-27.2
X230.65Y-28.9
X232.5Y-2.5
X232.5Y-32.5
X232.5Y-37.5
X232.5Y-40.0
X234.4Y-8.8
X234.4Y-22.2
X234.4Y-28.6
X234.6Y-12.8
X234.6Y-14.0
X234.6Y-15.4
X234.6Y-20.8
X234.6Y-26.2
X234.8Y-7.2
X234.8Y-27.8
X234.8Y-33.2
X235.0Y-2.5
X235.0Y-5.0
X235.0Y-19.4
X235.0Y-35.0
X235.0Y-37.5
X235.0Y-40.0
X235.0Y-42.5
X237.5Y-2.5
X237.5Y-37.5
X237.5Y-40.0
X240.0Y-2.5
X240.0Y-37.5
X240.135Y-8.865
X240.15Y-22.547
X240.182Y-15.73
X240.225Y-29.55
X241.0Y-13.0
X241.0Y-20.0
X241.0Y-27.0
X241.936Y-8.295
X242.0Y-33.0
X242.027Y-28.969
X242.25Y-16.0
X242.25Y-31.412
X242.254Y-14.492
X242.315Y-21.435
X242.5Y-2.5
X242.5Y-37.5
X243.0Y-8.0
X243.5Y-23.734
X245.0Y-2.5
X245.0Y-37.5
X245.0Y-40.0
X245.0Y-42.5
X245.9Y-8.1
X246.725Y-28.61
X246.725Y-31.11
X247.5Y-33.5
X253.0Y-27.6
X253.1Y-14.8
X253.1Y-25.0
X253.2Y-17.4
X253.2Y-20.0
X253.2Y-22.5
X253.2Y-30.3
X253.2Y-32.7
T2
X214.5Y-23.8
X214.5Y-26.34
X214.5Y-28.88
X214.5Y-36.5
X214.5Y-39.04
X214.5Y-41.58
T3
X94.0Y-10.5
X94.0Y-15.38
X137.25Y-13.25
X142.13Y-13.25
T4
X53.96Y-2.96
X53.96Y-5.5
X53.96Y-40.46
X53.96Y-43.0
X56.5Y-2.96
X56.5Y-5.5
X56.5Y-40.46
X56.5Y-43.0
X59.04Y-2.96
X59.04Y-5.5
X59.04Y-40.46
X59.04Y-43.0
X94.0Y-40.0
X94.0Y-42.54
X96.54Y-40.0
X96.54Y-42.54
X99.08Y-40.0
X99.08Y-42.54
X101.62Y-40.0
X101.62Y-42.54
X104.16Y-40.0
X104.16Y-42.54
X106.7Y-40.0
X106.7Y-42.54
X109.24Y-40.0
X109.24Y-42.54
X111.78Y-40.0
X111.78Y-42.54
X114.32Y-40.0
X114.32Y-42.54
X116.86Y-40.0
X116.86Y-42.54
X149.0Y-40.0
X149.0Y-42.54
X151.54Y-40.0
X151.54Y-42.54
X154.08Y-40.0
X154.08Y-42.54
X156.62Y-40.0
X156.62Y-42.54
X159.16Y-40.0
X159.16Y-42.54
X161.7Y-40.0
X161.7Y-42.54
X164.24Y-40.0
X164.24Y-42.54
X166.78Y-40.0
X166.78Y-42.54
X169.32Y-40.0
X169.32Y-42.54
X171.86Y-40.0
X171.86Y-42.54
X189.11Y-39.725
X189.11Y-42.265
X191.65Y-39.725
X191.65Y-42.265
X194.19Y-39.725
X194.19Y-42.265
X196.73Y-39.725
X196.73Y-42.265
X199.27Y-39.725
X199.27Y-42.265
X201.81Y-39.725
X201.81Y-42.265
X204.35Y-39.725
X204.35Y-42.265
X206.89Y-39.725
X206.89Y-42.265
X254.725Y-13.61
X254.725Y-16.15
X254.725Y-18.69
X254.725Y-21.23
X254.725Y-23.77
X254.725Y-26.31
X254.725Y-28.85
X254.725Y-31.39
X257.265Y-13.61
X257.265Y-16.15
X257.265Y-18.69
X257.265Y-21.23
X257.265Y-23.77
X257.265Y-26.31
X257.265Y-28.85
X257.265Y-31.39
T5
X148.25Y-3.975
X150.75Y-3.975
X157.75Y-3.975
X160.25Y-3.975
X167.25Y-3.975
X169.75Y-3.975
T6
X188.25Y-5.0
X190.75Y-5.0
X193.25Y-5.0
X195.75Y-5.0
X199.5Y-5.0
X202.0Y-5.0
X204.5Y-5.0
X207.0Y-5.0
X212.0Y-5.0
X214.5Y-5.0
X217.0Y-5.0
X219.5Y-5.0
X224.5Y-5.0
X227.0Y-5.0
X229.5Y-5.0
X232.0Y-5.0
T7
X72.585Y-3.585
X72.585Y-8.665
X72.585Y-16.285
X72.585Y-18.825
X76.0Y-26.46
X76.0Y-29.0
X76.0Y-36.62
X76.0Y-41.7
X225.585Y-41.915
X230.665Y-41.915
X238.285Y-41.915
X240.825Y-41.915
T8
X28.0Y-33.0
X37.25Y-8.25
X37.5Y-40.0
X40.25Y-4.5
X45.5Y-4.5
T9
X5.5Y-5.5
X5.5Y-39.5
X85.0Y-5.5
X85.0Y-39.5
X180.0Y-5.5
X180.0Y-39.5
X254.5Y-5.5
X254.5Y-39.5
T10
X146.65Y-5.975
X156.15Y-5.975
X165.65Y-5.975
T11
X16.125Y-3.15
X16.125Y-42.05
M30
