%TF.GenerationSoftware,KiCad,Pcbnew,10.0.3*%
%TF.CreationDate,2026-07-17T00:00:55-07:00*%
%TF.ProjectId,ControlBoard,436f6e74-726f-46c4-926f-6172642e6b69,rev?*%
%TF.SameCoordinates,Original*%
%TF.FileFunction,Other,User*%
%FSLAX46Y46*%
G04 Gerber Fmt 4.6, Leading zero omitted, Abs format (unit mm)*
G04 Created by KiCad (PCBNEW 10.0.3) date 2026-07-17 00:00:55*
%MOMM*%
%LPD*%
G01*
G04 APERTURE LIST*
%ADD10C,0.050000*%
%ADD11C,0.100000*%
G04 APERTURE END LIST*
%TO.C,J2*%
D10*
X92230000Y-38230000D02*
X118630000Y-38230000D01*
X92230000Y-44310000D02*
X92230000Y-38230000D01*
X118630000Y-38230000D02*
X118630000Y-44310000D01*
X118630000Y-44310000D02*
X92230000Y-44310000D01*
%TO.C,R6*%
X18500000Y-5420000D02*
X23400000Y-5420000D01*
X23400000Y-8580000D01*
X18500000Y-8580000D01*
X18500000Y-5420000D01*
%TO.C,PS4*%
D11*
X69635000Y-175000D02*
X79365000Y-175000D01*
X69635000Y-21825000D02*
X69635000Y-175000D01*
X79365000Y-175000D02*
X79365000Y-21825000D01*
X79365000Y-21825000D02*
X69635000Y-21825000D01*
%TO.C,J1*%
X144800000Y-625000D02*
X154200000Y-625000D01*
X144800000Y-8375000D02*
X144800000Y-625000D01*
X154200000Y-625000D02*
X154200000Y-8375000D01*
X154200000Y-8375000D02*
X144800000Y-8375000D01*
%TO.C,C10*%
D10*
X41520000Y-9900000D02*
X46480000Y-9900000D01*
X46480000Y-13100000D01*
X41520000Y-13100000D01*
X41520000Y-9900000D01*
%TO.C,C140*%
X221020000Y-23400000D02*
X225980000Y-23400000D01*
X225980000Y-26600000D01*
X221020000Y-26600000D01*
X221020000Y-23400000D01*
%TO.C,R10*%
X24050000Y-11920000D02*
X28950000Y-11920000D01*
X28950000Y-15080000D01*
X24050000Y-15080000D01*
X24050000Y-11920000D01*
%TO.C,C40*%
X55400000Y-25457500D02*
X58600000Y-25457500D01*
X58600000Y-30417500D01*
X55400000Y-30417500D01*
X55400000Y-25457500D01*
%TO.C,PS2*%
D11*
X69220000Y-23460000D02*
X78950000Y-23460000D01*
X69220000Y-45110000D02*
X69220000Y-23460000D01*
X78950000Y-23460000D02*
X78950000Y-45110000D01*
X78950000Y-45110000D02*
X69220000Y-45110000D01*
%TO.C,Z4*%
D10*
X35845000Y-30425000D02*
X39155000Y-30425000D01*
X35845000Y-35575000D02*
X35845000Y-30425000D01*
X39155000Y-30425000D02*
X39155000Y-35575000D01*
X39155000Y-35575000D02*
X35845000Y-35575000D01*
%TO.C,C39*%
X212150000Y-8520000D02*
X215350000Y-8520000D01*
X215350000Y-13480000D01*
X212150000Y-13480000D01*
X212150000Y-8520000D01*
%TO.C,C42*%
X200400000Y-22520000D02*
X203600000Y-22520000D01*
X203600000Y-27480000D01*
X200400000Y-27480000D01*
X200400000Y-22520000D01*
%TO.C,R73*%
X247775000Y-14530000D02*
X252675000Y-14530000D01*
X252675000Y-17690000D01*
X247775000Y-17690000D01*
X247775000Y-14530000D01*
%TO.C,C35*%
X64520000Y-400000D02*
X69480000Y-400000D01*
X69480000Y-3600000D01*
X64520000Y-3600000D01*
X64520000Y-400000D01*
%TO.C,J10*%
X52190000Y-1180000D02*
X60810000Y-1180000D01*
X60810000Y-7270000D01*
X52190000Y-7270000D01*
X52190000Y-1180000D01*
%TO.C,IC1*%
X172600000Y-28350000D02*
X176900000Y-28350000D01*
X172600000Y-32650000D02*
X172600000Y-28350000D01*
X176900000Y-28350000D02*
X176900000Y-32650000D01*
X176900000Y-32650000D02*
X172600000Y-32650000D01*
%TO.C,C142*%
X221020000Y-26650000D02*
X225980000Y-26650000D01*
X225980000Y-29850000D01*
X221020000Y-29850000D01*
X221020000Y-26650000D01*
%TO.C,J4*%
D11*
X154300000Y-625000D02*
X163700000Y-625000D01*
X154300000Y-8375000D02*
X154300000Y-625000D01*
X163700000Y-625000D02*
X163700000Y-8375000D01*
X163700000Y-8375000D02*
X154300000Y-8375000D01*
%TO.C,R1*%
D10*
X32170000Y-12550000D02*
X35330000Y-12550000D01*
X35330000Y-17450000D01*
X32170000Y-17450000D01*
X32170000Y-12550000D01*
%TO.C,J12*%
X252955000Y-11840000D02*
X259045000Y-11840000D01*
X259045000Y-33160000D01*
X252955000Y-33160000D01*
X252955000Y-11840000D01*
%TO.C,H5*%
X185000000Y-5500000D02*
G75*
G02*
X175000000Y-5500000I-5000000J0D01*
G01*
X175000000Y-5500000D02*
G75*
G02*
X185000000Y-5500000I5000000J0D01*
G01*
%TO.C,C24*%
X187150000Y-8520000D02*
X190350000Y-8520000D01*
X190350000Y-13480000D01*
X187150000Y-13480000D01*
X187150000Y-8520000D01*
%TO.C,R79*%
X247725000Y-24530000D02*
X252625000Y-24530000D01*
X252625000Y-27690000D01*
X247725000Y-27690000D01*
X247725000Y-24530000D01*
%TO.C,TP6*%
X39500000Y-40000000D02*
G75*
G02*
X35500000Y-40000000I-2000000J0D01*
G01*
X35500000Y-40000000D02*
G75*
G02*
X39500000Y-40000000I2000000J0D01*
G01*
%TO.C,U5*%
X234800000Y-20820000D02*
X236300000Y-20820000D01*
X234800000Y-26180000D02*
X234800000Y-20820000D01*
X236300000Y-20800000D02*
X240700000Y-20800000D01*
X236300000Y-20820000D02*
X236300000Y-20800000D01*
X236300000Y-26180000D02*
X234800000Y-26180000D01*
X236300000Y-26200000D02*
X236300000Y-26180000D01*
X240700000Y-20800000D02*
X240700000Y-20820000D01*
X240700000Y-20820000D02*
X242200000Y-20820000D01*
X240700000Y-26180000D02*
X240700000Y-26200000D01*
X240700000Y-26200000D02*
X236300000Y-26200000D01*
X242200000Y-20820000D02*
X242200000Y-26180000D01*
X242200000Y-26180000D02*
X240700000Y-26180000D01*
%TO.C,J7*%
X187340000Y-37955000D02*
X208660000Y-37955000D01*
X208660000Y-44045000D01*
X187340000Y-44045000D01*
X187340000Y-37955000D01*
%TO.C,R99*%
X184050000Y-25920000D02*
X188950000Y-25920000D01*
X188950000Y-29080000D01*
X184050000Y-29080000D01*
X184050000Y-25920000D01*
%TO.C,R86*%
X226300000Y-22670000D02*
X231200000Y-22670000D01*
X231200000Y-25830000D01*
X226300000Y-25830000D01*
X226300000Y-22670000D01*
%TO.C,U9*%
X139300000Y-20100000D02*
X140750000Y-20100000D01*
X139300000Y-28400000D02*
X139300000Y-20100000D01*
X140750000Y-19000000D02*
X141850000Y-19000000D01*
X140750000Y-20100000D02*
X140750000Y-19000000D01*
X140750000Y-28400000D02*
X139300000Y-28400000D01*
X140750000Y-29500000D02*
X140750000Y-28400000D01*
X141850000Y-17550000D02*
X150150000Y-17550000D01*
X141850000Y-19000000D02*
X141850000Y-17550000D01*
X141850000Y-29500000D02*
X140750000Y-29500000D01*
X141850000Y-30950000D02*
X141850000Y-29500000D01*
X150150000Y-17550000D02*
X150150000Y-19000000D01*
X150150000Y-19000000D02*
X151250000Y-19000000D01*
X150150000Y-29500000D02*
X150150000Y-30950000D01*
X150150000Y-30950000D02*
X141850000Y-30950000D01*
X151250000Y-19000000D02*
X151250000Y-20100000D01*
X151250000Y-20100000D02*
X152700000Y-20100000D01*
X151250000Y-28400000D02*
X151250000Y-29500000D01*
X151250000Y-29500000D02*
X150150000Y-29500000D01*
X152700000Y-20100000D02*
X152700000Y-28400000D01*
X152700000Y-28400000D02*
X151250000Y-28400000D01*
%TO.C,TP1*%
X47500000Y-4500000D02*
G75*
G02*
X43500000Y-4500000I-2000000J0D01*
G01*
X43500000Y-4500000D02*
G75*
G02*
X47500000Y-4500000I2000000J0D01*
G01*
%TO.C,R20*%
X23850000Y-17920000D02*
X28750000Y-17920000D01*
X28750000Y-21080000D01*
X23850000Y-21080000D01*
X23850000Y-17920000D01*
%TO.C,C9*%
X41520000Y-29900000D02*
X46480000Y-29900000D01*
X46480000Y-33100000D01*
X41520000Y-33100000D01*
X41520000Y-29900000D01*
%TO.C,C210*%
X169020000Y-8650000D02*
X173980000Y-8650000D01*
X173980000Y-11850000D01*
X169020000Y-11850000D01*
X169020000Y-8650000D01*
%TO.C,J13*%
X52190000Y-38680000D02*
X60810000Y-38680000D01*
X60810000Y-44770000D01*
X52190000Y-44770000D01*
X52190000Y-38680000D01*
%TO.C,H6*%
X185000000Y-39500000D02*
G75*
G02*
X175000000Y-39500000I-5000000J0D01*
G01*
X175000000Y-39500000D02*
G75*
G02*
X185000000Y-39500000I5000000J0D01*
G01*
%TO.C,TP3*%
X39250000Y-8250000D02*
G75*
G02*
X35250000Y-8250000I-2000000J0D01*
G01*
X35250000Y-8250000D02*
G75*
G02*
X39250000Y-8250000I2000000J0D01*
G01*
%TO.C,R23*%
X31420000Y-30550000D02*
X34580000Y-30550000D01*
X34580000Y-35450000D01*
X31420000Y-35450000D01*
X31420000Y-30550000D01*
%TO.C,Z1*%
X35845000Y-12425000D02*
X39155000Y-12425000D01*
X35845000Y-17575000D02*
X35845000Y-12425000D01*
X39155000Y-12425000D02*
X39155000Y-17575000D01*
X39155000Y-17575000D02*
X35845000Y-17575000D01*
%TO.C,R64*%
X205420000Y-27550000D02*
X208580000Y-27550000D01*
X208580000Y-32450000D01*
X205420000Y-32450000D01*
X205420000Y-27550000D01*
%TO.C,R29*%
X167920000Y-29300000D02*
X171080000Y-29300000D01*
X171080000Y-34200000D01*
X167920000Y-34200000D01*
X167920000Y-29300000D01*
%TO.C,R54*%
X218670000Y-8550000D02*
X221830000Y-8550000D01*
X221830000Y-13450000D01*
X218670000Y-13450000D01*
X218670000Y-8550000D01*
%TO.C,LED2*%
X102050000Y-425000D02*
X106950000Y-425000D01*
X102050000Y-3075000D02*
X102050000Y-425000D01*
X106950000Y-425000D02*
X106950000Y-3075000D01*
X106950000Y-3075000D02*
X102050000Y-3075000D01*
%TO.C,U1*%
X103350000Y-11100000D02*
X104750000Y-11100000D01*
X103350000Y-29400000D02*
X103350000Y-11100000D01*
X104750000Y-10000000D02*
X105850000Y-10000000D01*
X104750000Y-11100000D02*
X104750000Y-10000000D01*
X104750000Y-29400000D02*
X103350000Y-29400000D01*
X104750000Y-30500000D02*
X104750000Y-29400000D01*
X105850000Y-8600000D02*
X124150000Y-8600000D01*
X105850000Y-10000000D02*
X105850000Y-8600000D01*
X105850000Y-30500000D02*
X104750000Y-30500000D01*
X105850000Y-31900000D02*
X105850000Y-30500000D01*
X124150000Y-8600000D02*
X124150000Y-10000000D01*
X124150000Y-10000000D02*
X125250000Y-10000000D01*
X124150000Y-30500000D02*
X124150000Y-31900000D01*
X124150000Y-31900000D02*
X105850000Y-31900000D01*
X125250000Y-10000000D02*
X125250000Y-11100000D01*
X125250000Y-11100000D02*
X126650000Y-11100000D01*
X125250000Y-29400000D02*
X125250000Y-30500000D01*
X125250000Y-30500000D02*
X124150000Y-30500000D01*
X126650000Y-11100000D02*
X126650000Y-29400000D01*
X126650000Y-29400000D02*
X125250000Y-29400000D01*
%TO.C,C11*%
X41082500Y-33400000D02*
X46042500Y-33400000D01*
X46042500Y-36600000D01*
X41082500Y-36600000D01*
X41082500Y-33400000D01*
%TO.C,C22*%
X222150000Y-10270000D02*
X225350000Y-10270000D01*
X225350000Y-15230000D01*
X222150000Y-15230000D01*
X222150000Y-10270000D01*
%TO.C,TP4*%
X30000000Y-33000000D02*
G75*
G02*
X26000000Y-33000000I-2000000J0D01*
G01*
X26000000Y-33000000D02*
G75*
G02*
X30000000Y-33000000I2000000J0D01*
G01*
%TO.C,R26*%
X23800000Y-23920000D02*
X28700000Y-23920000D01*
X28700000Y-27080000D01*
X23800000Y-27080000D01*
X23800000Y-23920000D01*
%TO.C,R100*%
X178550000Y-25920000D02*
X183450000Y-25920000D01*
X183450000Y-29080000D01*
X178550000Y-29080000D01*
X178550000Y-25920000D01*
%TO.C,R50*%
X206170000Y-8550000D02*
X209330000Y-8550000D01*
X209330000Y-13450000D01*
X206170000Y-13450000D01*
X206170000Y-8550000D01*
%TO.C,C44*%
X195400000Y-22457500D02*
X198600000Y-22457500D01*
X198600000Y-27417500D01*
X195400000Y-27417500D01*
X195400000Y-22457500D01*
%TO.C,R69*%
X242775000Y-14530000D02*
X247675000Y-14530000D01*
X247675000Y-17690000D01*
X242775000Y-17690000D01*
X242775000Y-14530000D01*
%TO.C,R4*%
X24050000Y-5420000D02*
X28950000Y-5420000D01*
X28950000Y-8580000D01*
X24050000Y-8580000D01*
X24050000Y-5420000D01*
%TO.C,R77*%
X242775000Y-19530000D02*
X247675000Y-19530000D01*
X247675000Y-22690000D01*
X242775000Y-22690000D01*
X242775000Y-19530000D01*
%TO.C,R46*%
X193670000Y-8550000D02*
X196830000Y-8550000D01*
X196830000Y-13450000D01*
X193670000Y-13450000D01*
X193670000Y-8550000D01*
%TO.C,C20*%
X65400000Y-39520000D02*
X68600000Y-39520000D01*
X68600000Y-44480000D01*
X65400000Y-44480000D01*
X65400000Y-39520000D01*
%TO.C,R16*%
X18500000Y-11920000D02*
X23400000Y-11920000D01*
X23400000Y-15080000D01*
X18500000Y-15080000D01*
X18500000Y-11920000D01*
%TO.C,Z2*%
X35845000Y-18425000D02*
X39155000Y-18425000D01*
X35845000Y-23575000D02*
X35845000Y-18425000D01*
X39155000Y-18425000D02*
X39155000Y-23575000D01*
X39155000Y-23575000D02*
X35845000Y-23575000D01*
%TO.C,Y1*%
X91170000Y-16140000D02*
X91170000Y-9740000D01*
X96830000Y-9740000D02*
X96830000Y-16140000D01*
X91170000Y-9740000D02*
G75*
G02*
X96830000Y-9740000I2830000J0D01*
G01*
X96830000Y-16140000D02*
G75*
G02*
X91170000Y-16140000I-2830000J0D01*
G01*
%TO.C,R72*%
X178550000Y-30420000D02*
X183450000Y-30420000D01*
X183450000Y-33580000D01*
X178550000Y-33580000D01*
X178550000Y-30420000D01*
%TO.C,C36*%
X64520000Y-3650000D02*
X69480000Y-3650000D01*
X69480000Y-6850000D01*
X64520000Y-6850000D01*
X64520000Y-3650000D01*
%TO.C,H4*%
X90000000Y-39500000D02*
G75*
G02*
X80000000Y-39500000I-5000000J0D01*
G01*
X80000000Y-39500000D02*
G75*
G02*
X90000000Y-39500000I5000000J0D01*
G01*
%TO.C,TP5*%
X42250000Y-4500000D02*
G75*
G02*
X38250000Y-4500000I-2000000J0D01*
G01*
X38250000Y-4500000D02*
G75*
G02*
X42250000Y-4500000I2000000J0D01*
G01*
%TO.C,IC4*%
X91500000Y-335000D02*
X101000000Y-335000D01*
X91500000Y-6165000D02*
X91500000Y-335000D01*
X101000000Y-335000D02*
X101000000Y-6165000D01*
X101000000Y-6165000D02*
X91500000Y-6165000D01*
%TO.C,U2*%
X234700000Y-14002500D02*
X236200000Y-14002500D01*
X234700000Y-19362500D02*
X234700000Y-14002500D01*
X236200000Y-13982500D02*
X240600000Y-13982500D01*
X236200000Y-14002500D02*
X236200000Y-13982500D01*
X236200000Y-19362500D02*
X234700000Y-19362500D01*
X236200000Y-19382500D02*
X236200000Y-19362500D01*
X240600000Y-13982500D02*
X240600000Y-14002500D01*
X240600000Y-14002500D02*
X242100000Y-14002500D01*
X240600000Y-19362500D02*
X240600000Y-19382500D01*
X240600000Y-19382500D02*
X236200000Y-19382500D01*
X242100000Y-14002500D02*
X242100000Y-19362500D01*
X242100000Y-19362500D02*
X240600000Y-19362500D01*
%TO.C,R38*%
X55050000Y-7420000D02*
X59950000Y-7420000D01*
X59950000Y-10580000D01*
X55050000Y-10580000D01*
X55050000Y-7420000D01*
%TO.C,R22*%
X18300000Y-17920000D02*
X23200000Y-17920000D01*
X23200000Y-21080000D01*
X18300000Y-21080000D01*
X18300000Y-17920000D01*
%TO.C,C37*%
X60900000Y-2082500D02*
X64100000Y-2082500D01*
X64100000Y-7042500D01*
X60900000Y-7042500D01*
X60900000Y-2082500D01*
%TO.C,Y2*%
X136490000Y-10420000D02*
X142890000Y-10420000D01*
X142890000Y-16080000D02*
X136490000Y-16080000D01*
X136490000Y-16080000D02*
G75*
G02*
X136490000Y-10420000I0J2830000D01*
G01*
X142890000Y-10420000D02*
G75*
G02*
X142890000Y-16080000I0J-2830000D01*
G01*
%TO.C,R71*%
X184100000Y-30420000D02*
X189000000Y-30420000D01*
X189000000Y-33580000D01*
X184100000Y-33580000D01*
X184100000Y-30420000D01*
%TO.C,R30*%
X167920000Y-24300000D02*
X171080000Y-24300000D01*
X171080000Y-29200000D01*
X167920000Y-29200000D01*
X167920000Y-24300000D01*
%TO.C,H3*%
X90000000Y-5500000D02*
G75*
G02*
X80000000Y-5500000I-5000000J0D01*
G01*
X80000000Y-5500000D02*
G75*
G02*
X90000000Y-5500000I5000000J0D01*
G01*
%TO.C,R45*%
X190420000Y-8500000D02*
X193580000Y-8500000D01*
X193580000Y-13400000D01*
X190420000Y-13400000D01*
X190420000Y-8500000D01*
%TO.C,Z3*%
X35845000Y-24425000D02*
X39155000Y-24425000D01*
X35845000Y-29575000D02*
X35845000Y-24425000D01*
X39155000Y-24425000D02*
X39155000Y-29575000D01*
X39155000Y-29575000D02*
X35845000Y-29575000D01*
%TO.C,R41*%
X225550000Y-8920000D02*
X230450000Y-8920000D01*
X230450000Y-12080000D01*
X225550000Y-12080000D01*
X225550000Y-8920000D01*
%TO.C,PS1*%
D11*
X222175000Y-35135000D02*
X243825000Y-35135000D01*
X222175000Y-44865000D02*
X222175000Y-35135000D01*
X243825000Y-35135000D02*
X243825000Y-44865000D01*
X243825000Y-44865000D02*
X222175000Y-44865000D01*
%TO.C,R7*%
D10*
X32420000Y-18550000D02*
X35580000Y-18550000D01*
X35580000Y-23450000D01*
X32420000Y-23450000D01*
X32420000Y-18550000D01*
%TO.C,LED1*%
X107300000Y-425000D02*
X112200000Y-425000D01*
X107300000Y-3075000D02*
X107300000Y-425000D01*
X112200000Y-425000D02*
X112200000Y-3075000D01*
X112200000Y-3075000D02*
X107300000Y-3075000D01*
%TO.C,U6*%
X234800000Y-27820000D02*
X236300000Y-27820000D01*
X234800000Y-33180000D02*
X234800000Y-27820000D01*
X236300000Y-27800000D02*
X240700000Y-27800000D01*
X236300000Y-27820000D02*
X236300000Y-27800000D01*
X236300000Y-33180000D02*
X234800000Y-33180000D01*
X236300000Y-33200000D02*
X236300000Y-33180000D01*
X240700000Y-27800000D02*
X240700000Y-27820000D01*
X240700000Y-27820000D02*
X242200000Y-27820000D01*
X240700000Y-33180000D02*
X240700000Y-33200000D01*
X240700000Y-33200000D02*
X236300000Y-33200000D01*
X242200000Y-27820000D02*
X242200000Y-33180000D01*
X242200000Y-33180000D02*
X240700000Y-33180000D01*
%TO.C,C46*%
X205400000Y-22520000D02*
X208600000Y-22520000D01*
X208600000Y-27480000D01*
X205400000Y-27480000D01*
X205400000Y-22520000D01*
%TO.C,R60*%
X195420000Y-27550000D02*
X198580000Y-27550000D01*
X198580000Y-32450000D01*
X195420000Y-32450000D01*
X195420000Y-27550000D01*
%TO.C,R81*%
X242775000Y-24530000D02*
X247675000Y-24530000D01*
X247675000Y-27690000D01*
X242775000Y-27690000D01*
X242775000Y-24530000D01*
%TO.C,R85*%
X242725000Y-29530000D02*
X247625000Y-29530000D01*
X247625000Y-32690000D01*
X242725000Y-32690000D01*
X242725000Y-29530000D01*
%TO.C,R83*%
X247725000Y-29530000D02*
X252625000Y-29530000D01*
X252625000Y-32690000D01*
X247725000Y-32690000D01*
X247725000Y-29530000D01*
%TO.C,R55*%
X200420000Y-32600000D02*
X203580000Y-32600000D01*
X203580000Y-37500000D01*
X200420000Y-37500000D01*
X200420000Y-32600000D01*
%TO.C,H2*%
X10500000Y-39500000D02*
G75*
G02*
X500000Y-39500000I-5000000J0D01*
G01*
X500000Y-39500000D02*
G75*
G02*
X10500000Y-39500000I5000000J0D01*
G01*
%TO.C,R59*%
X195420000Y-32600000D02*
X198580000Y-32600000D01*
X198580000Y-37500000D01*
X195420000Y-37500000D01*
X195420000Y-32600000D01*
%TO.C,C195*%
X91150000Y-29020000D02*
X94350000Y-29020000D01*
X94350000Y-33980000D01*
X91150000Y-33980000D01*
X91150000Y-29020000D01*
%TO.C,R63*%
X205420000Y-32550000D02*
X208580000Y-32550000D01*
X208580000Y-37450000D01*
X205420000Y-37450000D01*
X205420000Y-32550000D01*
%TO.C,H8*%
X259500000Y-39500000D02*
G75*
G02*
X249500000Y-39500000I-5000000J0D01*
G01*
X249500000Y-39500000D02*
G75*
G02*
X259500000Y-39500000I5000000J0D01*
G01*
%TO.C,U4*%
X234700000Y-7137500D02*
X236200000Y-7137500D01*
X234700000Y-12497500D02*
X234700000Y-7137500D01*
X236200000Y-7117500D02*
X240600000Y-7117500D01*
X236200000Y-7137500D02*
X236200000Y-7117500D01*
X236200000Y-12497500D02*
X234700000Y-12497500D01*
X236200000Y-12517500D02*
X236200000Y-12497500D01*
X240600000Y-7117500D02*
X240600000Y-7137500D01*
X240600000Y-7137500D02*
X242100000Y-7137500D01*
X240600000Y-12497500D02*
X240600000Y-12517500D01*
X240600000Y-12517500D02*
X236200000Y-12517500D01*
X242100000Y-7137500D02*
X242100000Y-12497500D01*
X242100000Y-12497500D02*
X240600000Y-12497500D01*
%TO.C,S2*%
D11*
X119000000Y-36750000D02*
X131000000Y-36750000D01*
X119000000Y-44750000D02*
X119000000Y-36750000D01*
X131000000Y-36750000D02*
X131000000Y-44750000D01*
X131000000Y-44750000D02*
X119000000Y-44750000D01*
%TO.C,C29*%
D10*
X199650000Y-8520000D02*
X202850000Y-8520000D01*
X202850000Y-13480000D01*
X199650000Y-13480000D01*
X199650000Y-8520000D01*
%TO.C,C141*%
X226520000Y-26400000D02*
X231480000Y-26400000D01*
X231480000Y-29600000D01*
X226520000Y-29600000D01*
X226520000Y-26400000D01*
%TO.C,H7*%
X259500000Y-5500000D02*
G75*
G02*
X249500000Y-5500000I-5000000J0D01*
G01*
X249500000Y-5500000D02*
G75*
G02*
X259500000Y-5500000I5000000J0D01*
G01*
%TO.C,S1*%
D11*
X133500000Y-36750000D02*
X145500000Y-36750000D01*
X133500000Y-44750000D02*
X133500000Y-36750000D01*
X145500000Y-36750000D02*
X145500000Y-44750000D01*
X145500000Y-44750000D02*
X133500000Y-44750000D01*
%TO.C,R49*%
D10*
X202920000Y-8550000D02*
X206080000Y-8550000D01*
X206080000Y-13450000D01*
X202920000Y-13450000D01*
X202920000Y-8550000D01*
%TO.C,R75*%
X247775000Y-19530000D02*
X252675000Y-19530000D01*
X252675000Y-22690000D01*
X247775000Y-22690000D01*
X247775000Y-19530000D01*
%TO.C,U8*%
X82000000Y-17550000D02*
X89000000Y-17550000D01*
X89000000Y-28650000D01*
X82000000Y-28650000D01*
X82000000Y-17550000D01*
%TO.C,J14*%
X147230000Y-38230000D02*
X173630000Y-38230000D01*
X147230000Y-44310000D02*
X147230000Y-38230000D01*
X173630000Y-38230000D02*
X173630000Y-44310000D01*
X173630000Y-44310000D02*
X147230000Y-44310000D01*
%TO.C,J5*%
D11*
X163800000Y-625000D02*
X173200000Y-625000D01*
X163800000Y-8375000D02*
X163800000Y-625000D01*
X173200000Y-625000D02*
X173200000Y-8375000D01*
X173200000Y-8375000D02*
X163800000Y-8375000D01*
%TO.C,R53*%
D10*
X215420000Y-8550000D02*
X218580000Y-8550000D01*
X218580000Y-13450000D01*
X215420000Y-13450000D01*
X215420000Y-8550000D01*
%TO.C,R17*%
X32420000Y-24550000D02*
X35580000Y-24550000D01*
X35580000Y-29450000D01*
X32420000Y-29450000D01*
X32420000Y-24550000D01*
%TO.C,C19*%
X61900000Y-39520000D02*
X65100000Y-39520000D01*
X65100000Y-44480000D01*
X61900000Y-44480000D01*
X61900000Y-39520000D01*
%TO.C,C18*%
X55520000Y-35400000D02*
X60480000Y-35400000D01*
X60480000Y-38600000D01*
X55520000Y-38600000D01*
X55520000Y-35400000D01*
%TO.C,C12*%
X41457500Y-14400000D02*
X46417500Y-14400000D01*
X46417500Y-17600000D01*
X41457500Y-17600000D01*
X41457500Y-14400000D01*
%TO.C,R28*%
X18300000Y-23920000D02*
X23200000Y-23920000D01*
X23200000Y-27080000D01*
X18300000Y-27080000D01*
X18300000Y-23920000D01*
%TO.C,H1*%
X10500000Y-5500000D02*
G75*
G02*
X500000Y-5500000I-5000000J0D01*
G01*
X500000Y-5500000D02*
G75*
G02*
X10500000Y-5500000I5000000J0D01*
G01*
%TO.C,R42*%
X226550000Y-12420000D02*
X231450000Y-12420000D01*
X231450000Y-15580000D01*
X226550000Y-15580000D01*
X226550000Y-12420000D01*
%TO.C,R56*%
X200420000Y-27600000D02*
X203580000Y-27600000D01*
X203580000Y-32500000D01*
X200420000Y-32500000D01*
X200420000Y-27600000D01*
%TD*%
M02*
