M48
; DRILL file {KiCad 9.0.1} date 2026-02-09T18:06:16-0800
; FORMAT={-:-/ absolute / metric / decimal}
; #@! TF.CreationDate,2026-02-09T18:06:16-08:00
; #@! TF.GenerationSoftware,Kicad,Pcbnew,9.0.1
; #@! TF.FileFunction,Plated,1,6,PTH
FMAT,2
METRIC
; #@! TA.AperFunction,Plated,PTH,ViaDrill
T1C0.300
; #@! TA.AperFunction,Plated,PTH,ComponentDrill
T2C0.710
; #@! TA.AperFunction,Plated,PTH,ComponentDrill
T3C0.760
; #@! TA.AperFunction,Plated,PTH,ComponentDrill
T4C1.000
; #@! TA.AperFunction,Plated,PTH,ComponentDrill
T5C1.150
; #@! TA.AperFunction,Plated,PTH,ComponentDrill
T6C1.400
; #@! TA.AperFunction,Plated,PTH,ComponentDrill
T7C1.500
; #@! TA.AperFunction,Plated,PTH,ComponentDrill
T8C1.700
%
G90
G05
T1
X12.5Y-32.5
X12.5Y-40.0
X18.562Y-29.5
X21.5Y-33.875
X21.65Y-43.0
X25.5Y-34.0
X26.15Y-19.5
X26.2Y-10.5
X30.5Y-34.0
X33.15Y-44.0
X35.562Y-2.5
X35.562Y-6.0
X43.0Y-54.0
X43.5Y-45.0
X46.85Y-19.5
X47.5Y-10.0
X55.5Y-18.0
X56.5Y-36.0
X59.0Y-37.0
X64.75Y-37.75
X67.0Y-32.0
X70.5Y-31.0
X72.5Y-30.0
X76.877Y-29.0
X77.0Y-19.5
X79.5Y-20.5
X81.5Y-45.0
X81.5Y-59.0
X82.936Y-7.65
X85.5Y-39.5
X85.5Y-43.0
X85.5Y-57.5
X87.0Y-56.5
X88.5Y-54.5
X89.0Y-20.5
X89.5Y-51.0
X90.736Y-7.65
X91.0Y-58.5
X93.0Y-41.0
X93.5Y-51.5
X94.5Y-52.5
X94.688Y-25.5
X98.536Y-7.65
X105.0Y-52.5
X105.227Y-41.773
X105.5Y-41.0
X105.5Y-43.0
X106.0Y-44.0
X106.0Y-45.0
X106.0Y-51.5
X106.336Y-7.65
X107.0Y-38.0
X107.0Y-49.0
X108.0Y-37.0
X108.0Y-48.0
X109.0Y-36.0
X109.0Y-47.0
X110.0Y-32.0
X110.0Y-51.5
X111.0Y-31.0
X111.0Y-52.5
X112.0Y-30.0
X112.0Y-53.5
X113.0Y-29.0
X113.0Y-36.5
X114.0Y-18.5
X114.0Y-38.0
X115.0Y-19.5
X115.0Y-55.5
X121.5Y-20.0
X121.5Y-36.5
X124.0Y-25.438
X124.0Y-28.562
X124.0Y-38.0
X125.0Y-12.4
X126.938Y-37.0
X129.5Y-12.4
X130.0Y-36.506
X130.5Y-20.0
X130.64Y-27.082
X131.91Y-36.506
X131.924Y-24.427
X132.0Y-40.0
X132.5Y-20.5
X133.18Y-36.506
X133.5Y-39.0
X134.0Y-12.5
X134.45Y-27.082
X134.45Y-36.506
X134.5Y-21.5
X134.75Y-38.25
X135.72Y-36.506
X138.0Y-12.5
X138.0Y-21.0
X139.0Y-48.0
X139.125Y-27.0
X140.0Y-50.5
X141.5Y-51.5
X142.5Y-47.0
X144.0Y-53.5
X145.0Y-49.0
X146.5Y-56.5
X147.5Y-52.5
X148.0Y-57.5
X149.0Y-55.5
X149.5Y-26.438
X150.0Y-54.5
X150.312Y-36.5
X151.5Y-58.5
X152.0Y-27.5
X153.0Y-25.5
X153.0Y-59.2
X153.5Y-36.715
X154.5Y-26.0
X155.5Y-10.5
X155.5Y-39.85
X155.735Y-36.715
X157.0Y-39.175
X157.005Y-36.715
X158.0Y-38.5
X158.003Y-25.527
X158.275Y-36.715
X159.545Y-36.715
X161.5Y-48.0
X162.0Y-12.0
X162.562Y-27.5
X166.5Y-47.0
X171.5Y-51.5
X176.5Y-49.0
X181.5Y-53.5
X183.5Y-24.0
X186.5Y-52.5
X190.5Y-52.0
X190.5Y-53.0
X190.5Y-54.0
X201.0Y-7.5
X201.5Y-21.5
X230.5Y-52.0
X231.5Y-53.0
X232.5Y-54.0
X236.75Y-39.3
X236.75Y-47.1
X236.75Y-54.9
X244.7Y-5.9
X244.7Y-13.7
X244.7Y-21.5
X244.7Y-29.3
X246.65Y-39.3
X246.65Y-47.1
X246.65Y-54.9
X254.6Y-5.9
X254.6Y-13.7
X254.6Y-21.5
X254.6Y-29.4
X256.55Y-39.3
X264.5Y-6.0
X264.5Y-14.0
X264.5Y-21.5
X264.5Y-29.0
X266.45Y-39.3
X282.5Y-22.5
X282.5Y-25.0
X286.0Y-29.0
X287.0Y-13.5
X287.0Y-20.0
X288.5Y-36.5
X296.0Y-24.5
X296.5Y-13.5
X296.5Y-19.5
T2
X3.0Y-29.45
X3.0Y-34.55
T3
X57.22Y-6.4
X59.76Y-6.4
X62.3Y-6.4
X69.92Y-6.4
X72.46Y-6.4
X75.0Y-6.4
T4
X18.5Y-11.92
X18.5Y-17.0
X18.5Y-32.24
X18.5Y-34.78
X33.74Y-11.92
X33.74Y-17.0
X33.74Y-32.24
X33.74Y-34.78
X33.74Y-37.32
X56.557Y-16.61
X56.557Y-34.39
X59.097Y-16.61
X59.097Y-34.39
X59.8Y-40.225
X59.8Y-42.765
X61.637Y-16.61
X61.637Y-34.39
X62.34Y-40.225
X62.34Y-42.765
X64.177Y-16.61
X64.177Y-34.39
X64.88Y-40.225
X64.88Y-42.765
X66.718Y-16.61
X66.718Y-34.39
X67.42Y-40.225
X67.42Y-42.765
X69.257Y-16.61
X69.257Y-34.39
X69.96Y-40.225
X69.96Y-42.765
X71.797Y-16.61
X71.797Y-34.39
X72.5Y-40.225
X72.5Y-42.765
X74.337Y-16.61
X74.337Y-34.39
X75.04Y-40.225
X75.04Y-42.765
X76.877Y-16.61
X76.877Y-34.39
X77.58Y-40.225
X77.58Y-42.765
X79.417Y-16.61
X79.417Y-34.39
X80.12Y-40.225
X80.12Y-42.765
X81.957Y-16.61
X81.957Y-34.39
X82.66Y-40.225
X82.66Y-42.765
X84.498Y-16.61
X84.498Y-34.39
X87.037Y-16.61
X87.037Y-34.39
X89.578Y-16.61
X89.578Y-34.39
X92.117Y-16.61
X92.117Y-34.39
X94.657Y-16.61
X94.657Y-34.39
X97.197Y-16.61
X97.197Y-34.39
X99.737Y-16.61
X99.737Y-34.39
X102.277Y-16.61
X102.277Y-34.39
X104.817Y-16.61
X104.817Y-34.39
X109.96Y-14.5
X112.5Y-14.5
X134.92Y-41.71
X134.92Y-44.25
X137.46Y-41.71
X137.46Y-44.25
X140.0Y-41.71
X140.0Y-44.25
X142.54Y-41.71
X142.54Y-44.25
X145.08Y-41.71
X145.08Y-44.25
X147.62Y-41.71
X147.62Y-44.25
X150.16Y-41.71
X150.16Y-44.25
X152.7Y-41.71
X152.7Y-44.25
X155.24Y-41.71
X155.24Y-44.25
X157.78Y-41.71
X157.78Y-44.25
X195.42Y-4.8
X195.42Y-7.34
X195.42Y-9.88
X195.42Y-12.42
X195.42Y-14.96
X195.42Y-17.5
X195.42Y-20.04
X195.42Y-22.58
X195.42Y-25.12
X195.42Y-27.66
X197.96Y-4.8
X197.96Y-7.34
X197.96Y-9.88
X197.96Y-12.42
X197.96Y-14.96
X197.96Y-17.5
X197.96Y-20.04
X197.96Y-22.58
X197.96Y-25.12
X197.96Y-27.66
X235.46Y-4.84
X235.46Y-7.38
X235.46Y-9.92
X235.46Y-12.46
X235.46Y-15.0
X235.46Y-17.54
X235.46Y-20.08
X235.46Y-22.62
X235.46Y-25.16
X235.46Y-27.7
X238.0Y-4.84
X238.0Y-7.38
X238.0Y-9.92
X238.0Y-12.46
X238.0Y-15.0
X238.0Y-17.54
X238.0Y-20.08
X238.0Y-22.62
X238.0Y-25.16
X238.0Y-27.7
X291.0Y-16.92
X291.0Y-19.46
X291.0Y-22.0
X291.0Y-24.54
X291.0Y-27.08
X291.0Y-29.62
X291.0Y-32.16
X291.0Y-34.7
X291.0Y-37.24
X291.0Y-39.78
X293.54Y-16.92
X293.54Y-19.46
X293.54Y-22.0
X293.54Y-24.54
X293.54Y-27.08
X293.54Y-29.62
X293.54Y-32.16
X293.54Y-34.7
X293.54Y-37.24
X293.54Y-39.78
T5
X141.085Y-21.585
X141.085Y-26.665
X141.085Y-34.285
X141.085Y-36.825
X165.0Y-22.05
X165.0Y-27.13
X165.0Y-34.75
X165.0Y-37.29
T6
X119.76Y-5.0
X123.57Y-5.0
X127.38Y-5.0
X131.19Y-5.0
X135.0Y-5.0
X138.81Y-5.0
X154.76Y-5.0
X158.57Y-5.0
X162.38Y-5.0
X166.19Y-5.0
X170.0Y-5.0
X173.81Y-5.0
X205.0Y-9.88
X205.0Y-13.69
X205.0Y-17.5
X205.0Y-21.31
X205.0Y-25.12
X205.0Y-28.93
X205.0Y-32.74
X205.0Y-36.55
X279.0Y-10.0
X279.0Y-13.81
X279.0Y-17.62
X279.0Y-21.43
X279.0Y-25.24
X279.0Y-29.05
X279.0Y-32.86
X279.0Y-36.67
T7
X61.0Y-49.5
X66.5Y-49.5
X72.5Y-49.5
X78.5Y-49.5
X142.0Y-14.0
X161.5Y-56.5
X165.5Y-14.0
X166.5Y-56.5
X171.5Y-56.5
X176.5Y-56.5
X181.5Y-56.5
X186.5Y-56.5
X193.0Y-56.5
T8
X10.0Y-19.92
X10.0Y-25.0
X171.88Y-10.0
X176.96Y-10.0
X182.04Y-10.0
X187.12Y-10.0
M30
