%TF.GenerationSoftware,KiCad,Pcbnew,9.0.1*%
%TF.CreationDate,2026-02-09T18:06:17-08:00*%
%TF.ProjectId,ControlBoard,436f6e74-726f-46c4-926f-6172642e6b69,rev?*%
%TF.SameCoordinates,Original*%
%TF.FileFunction,Paste,Top*%
%TF.FilePolarity,Positive*%
%FSLAX46Y46*%
G04 Gerber Fmt 4.6, Leading zero omitted, Abs format (unit mm)*
G04 Created by KiCad (PCBNEW 9.0.1) date 2026-02-09 18:06:17*
%MOMM*%
%LPD*%
G01*
G04 APERTURE LIST*
G04 Aperture macros list*
%AMRoundRect*
0 Rectangle with rounded corners*
0 $1 Rounding radius*
0 $2 $3 $4 $5 $6 $7 $8 $9 X,Y pos of 4 corners*
0 Add a 4 corners polygon primitive as box body*
4,1,4,$2,$3,$4,$5,$6,$7,$8,$9,$2,$3,0*
0 Add four circle primitives for the rounded corners*
1,1,$1+$1,$2,$3*
1,1,$1+$1,$4,$5*
1,1,$1+$1,$6,$7*
1,1,$1+$1,$8,$9*
0 Add four rect primitives between the rounded corners*
20,1,$1+$1,$2,$3,$4,$5,0*
20,1,$1+$1,$4,$5,$6,$7,0*
20,1,$1+$1,$6,$7,$8,$9,0*
20,1,$1+$1,$8,$9,$2,$3,0*%
G04 Aperture macros list end*
%ADD10R,3.500000X1.850000*%
%ADD11R,1.850000X3.500000*%
%ADD12R,1.050000X0.850000*%
%ADD13R,0.650000X1.925000*%
%ADD14RoundRect,0.250000X0.412500X1.100000X-0.412500X1.100000X-0.412500X-1.100000X0.412500X-1.100000X0*%
%ADD15RoundRect,0.250000X-1.100000X0.412500X-1.100000X-0.412500X1.100000X-0.412500X1.100000X0.412500X0*%
%ADD16R,1.000000X1.750000*%
%ADD17RoundRect,0.250000X-0.400000X-1.075000X0.400000X-1.075000X0.400000X1.075000X-0.400000X1.075000X0*%
%ADD18R,2.250000X3.200000*%
%ADD19RoundRect,0.250000X1.100000X-0.412500X1.100000X0.412500X-1.100000X0.412500X-1.100000X-0.412500X0*%
%ADD20RoundRect,0.250000X-0.412500X-1.100000X0.412500X-1.100000X0.412500X1.100000X-0.412500X1.100000X0*%
%ADD21RoundRect,0.250000X0.400000X1.075000X-0.400000X1.075000X-0.400000X-1.075000X0.400000X-1.075000X0*%
%ADD22RoundRect,0.250000X-1.075000X0.400000X-1.075000X-0.400000X1.075000X-0.400000X1.075000X0.400000X0*%
%ADD23R,1.750000X1.000000*%
G04 APERTURE END LIST*
D10*
%TO.C,C174*%
X264350000Y-13800000D03*
X269650000Y-13800000D03*
%TD*%
D11*
%TO.C,C166*%
X98536280Y-7650000D03*
X98536280Y-2350000D03*
%TD*%
D12*
%TO.C,Z11*%
X157665000Y-14215000D03*
X161265000Y-14215000D03*
%TD*%
D10*
%TO.C,C163*%
X246650000Y-54900000D03*
X251950000Y-54900000D03*
%TD*%
D13*
%TO.C,IC3*%
X136990000Y-27082000D03*
X135720000Y-27082000D03*
X134450000Y-27082000D03*
X133180000Y-27082000D03*
X131910000Y-27082000D03*
X130640000Y-27082000D03*
X129370000Y-27082000D03*
X128100000Y-27082000D03*
X128100000Y-36506000D03*
X129370000Y-36506000D03*
X130640000Y-36506000D03*
X131910000Y-36506000D03*
X133180000Y-36506000D03*
X134450000Y-36506000D03*
X135720000Y-36506000D03*
X136990000Y-36506000D03*
%TD*%
D14*
%TO.C,C117*%
X155027500Y-18715000D03*
X151902500Y-18715000D03*
%TD*%
D15*
%TO.C,C123*%
X133500000Y-14375000D03*
X133500000Y-17500000D03*
%TD*%
D10*
%TO.C,C157*%
X244700000Y-29300000D03*
X250000000Y-29300000D03*
%TD*%
D16*
%TO.C,LED3*%
X174000000Y-24500000D03*
X177000000Y-24500000D03*
%TD*%
D10*
%TO.C,C169*%
X254600000Y-5900000D03*
X259900000Y-5900000D03*
%TD*%
%TO.C,C177*%
X264350000Y-29000000D03*
X269650000Y-29000000D03*
%TD*%
D17*
%TO.C,R119*%
X133175000Y-23291000D03*
X136275000Y-23291000D03*
%TD*%
D10*
%TO.C,C160*%
X236750000Y-54900000D03*
X242050000Y-54900000D03*
%TD*%
%TO.C,C179*%
X43000000Y-54000000D03*
X37700000Y-54000000D03*
%TD*%
%TO.C,C171*%
X254600000Y-21500000D03*
X259900000Y-21500000D03*
%TD*%
%TO.C,C147*%
X47500000Y-10000000D03*
X42200000Y-10000000D03*
%TD*%
D17*
%TO.C,R6*%
X178950000Y-24500000D03*
X182050000Y-24500000D03*
%TD*%
D10*
%TO.C,C154*%
X244700000Y-5900000D03*
X250000000Y-5900000D03*
%TD*%
%TO.C,C161*%
X246650000Y-39300000D03*
X251950000Y-39300000D03*
%TD*%
%TO.C,C172*%
X256550000Y-39300000D03*
X261850000Y-39300000D03*
%TD*%
D11*
%TO.C,C165*%
X90736280Y-7650000D03*
X90736280Y-2350000D03*
%TD*%
D10*
%TO.C,C181*%
X33000000Y-43500000D03*
X27700000Y-43500000D03*
%TD*%
%TO.C,C155*%
X244700000Y-13700000D03*
X250000000Y-13700000D03*
%TD*%
D18*
%TO.C,D3*%
X12450000Y-37000000D03*
X5550000Y-37000000D03*
%TD*%
D11*
%TO.C,C167*%
X106336280Y-7650000D03*
X106336280Y-2350000D03*
%TD*%
D19*
%TO.C,C17*%
X124000000Y-28562500D03*
X124000000Y-25437500D03*
%TD*%
D10*
%TO.C,C178*%
X43000000Y-45000000D03*
X37700000Y-45000000D03*
%TD*%
%TO.C,C173*%
X264350000Y-6000000D03*
X269650000Y-6000000D03*
%TD*%
D15*
%TO.C,C120*%
X124500000Y-14437500D03*
X124500000Y-17562500D03*
%TD*%
D10*
%TO.C,C145*%
X46800000Y-19500000D03*
X41500000Y-19500000D03*
%TD*%
D12*
%TO.C,Z10*%
X154765000Y-13715000D03*
X151165000Y-13715000D03*
%TD*%
D20*
%TO.C,C118*%
X157402500Y-18715000D03*
X160527500Y-18715000D03*
%TD*%
D10*
%TO.C,C162*%
X246650000Y-47100000D03*
X251950000Y-47100000D03*
%TD*%
D21*
%TO.C,R109*%
X155250000Y-23500000D03*
X152150000Y-23500000D03*
%TD*%
D10*
%TO.C,C158*%
X236750000Y-39300000D03*
X242050000Y-39300000D03*
%TD*%
%TO.C,C170*%
X254600000Y-13700000D03*
X259900000Y-13700000D03*
%TD*%
D15*
%TO.C,C122*%
X129000000Y-14375000D03*
X129000000Y-17500000D03*
%TD*%
D22*
%TO.C,R7*%
X121000000Y-13950000D03*
X121000000Y-17050000D03*
%TD*%
D10*
%TO.C,C159*%
X236750000Y-47100000D03*
X242050000Y-47100000D03*
%TD*%
D17*
%TO.C,R111*%
X157465000Y-23715000D03*
X160565000Y-23715000D03*
%TD*%
D13*
%TO.C,IC4*%
X160815000Y-27291000D03*
X159545000Y-27291000D03*
X158275000Y-27291000D03*
X157005000Y-27291000D03*
X155735000Y-27291000D03*
X154465000Y-27291000D03*
X153195000Y-27291000D03*
X151925000Y-27291000D03*
X151925000Y-36715000D03*
X153195000Y-36715000D03*
X154465000Y-36715000D03*
X155735000Y-36715000D03*
X157005000Y-36715000D03*
X158275000Y-36715000D03*
X159545000Y-36715000D03*
X160815000Y-36715000D03*
%TD*%
D23*
%TO.C,LED4*%
X121500000Y-9000000D03*
X121500000Y-12000000D03*
%TD*%
D21*
%TO.C,R117*%
X130775000Y-23291000D03*
X127675000Y-23291000D03*
%TD*%
D10*
%TO.C,C156*%
X244700000Y-21500000D03*
X250000000Y-21500000D03*
%TD*%
D11*
%TO.C,C164*%
X82936280Y-7650000D03*
X82936280Y-2350000D03*
%TD*%
D10*
%TO.C,C168*%
X254600000Y-29400000D03*
X259900000Y-29400000D03*
%TD*%
%TO.C,C175*%
X266450000Y-39300000D03*
X271750000Y-39300000D03*
%TD*%
%TO.C,C176*%
X264350000Y-21200000D03*
X269650000Y-21200000D03*
%TD*%
D15*
%TO.C,C19*%
X149500000Y-23125000D03*
X149500000Y-26250000D03*
%TD*%
M02*
