M48
; DRILL file KiCad 10.0.3 date 2026-05-26T21:27:27
; FORMAT={-:-/ absolute / metric / decimal}
; #@! TF.CreationDate,2026-05-26T21:27:27-07:00
; #@! TF.GenerationSoftware,Kicad,Pcbnew,10.0.3
; #@! TF.FileFunction,Plated,1,6,PTH
FMAT,2
METRIC
; #@! TA.AperFunction,Plated,PTH,ViaDrill
T1C0.300
; #@! TA.AperFunction,Plated,PTH,ComponentDrill
T2C0.350
; #@! TA.AperFunction,Plated,PTH,ComponentDrill
T3C0.650
; #@! TA.AperFunction,Plated,PTH,ComponentDrill
T4C0.700
; #@! TA.AperFunction,Plated,PTH,ComponentDrill
T5C0.760
; #@! TA.AperFunction,Plated,PTH,ComponentDrill
T6C0.800
; #@! TA.AperFunction,Plated,PTH,ComponentDrill
T7C1.000
; #@! TA.AperFunction,Plated,PTH,ComponentDrill
T8C1.100
; #@! TA.AperFunction,Plated,PTH,ComponentDrill
T9C1.150
; #@! TA.AperFunction,Plated,PTH,ComponentDrill
T10C1.400
; #@! TA.AperFunction,Plated,PTH,ComponentDrill
T11C1.500
; #@! TA.AperFunction,Plated,PTH,ComponentDrill
T12C1.600
; #@! TA.AperFunction,Plated,PTH,ComponentDrill
T13C5.300
%
G90
G05
T1
X21.45Y-15.5
X21.45Y-21.0
X21.45Y-26.0
X21.5Y-31.0
X24.55Y-15.5
X24.55Y-21.0
X24.55Y-26.0
X24.6Y-31.0
X26.95Y-15.5
X26.95Y-21.0
X26.95Y-26.0
X26.95Y-31.0
X28.0Y-37.4
X33.0Y-13.45
X33.0Y-19.438
X33.0Y-25.438
X33.0Y-31.45
X33.0Y-34.562
X37.5Y-13.45
X37.5Y-19.2
X37.5Y-25.45
X37.5Y-31.2
X40.5Y-12.5
X40.5Y-35.0
X41.0Y-20.5
X41.0Y-26.5
X42.0Y-22.0
X42.0Y-27.5
X42.675Y-23.5
X42.675Y-25.5
X44.5Y-28.35
X45.5Y-16.0
X45.562Y-11.5
X45.562Y-31.5
X45.562Y-36.0
X46.6Y-20.8
X46.8Y-28.6
X50.0Y-40.45
X53.924Y-28.35
X57.0Y-26.5
X62.75Y-8.75
X63.095Y-27.175
X63.225Y-4.25
X63.225Y-6.75
X63.595Y-19.325
X64.365Y-37.825
X64.47Y-41.1
X65.25Y-43.0
X65.635Y-37.825
X66.905Y-27.175
X67.402Y-6.668
X67.405Y-19.325
X67.446Y-4.126
X68.0Y-37.75
X73.0Y-29.5
X73.0Y-40.562
X73.04Y-26.46
X76.0Y-4.438
X76.0Y-19.562
X88.0Y-23.5
X90.25Y-24.25
X96.0Y-29.5
X96.8Y-34.07
X98.181Y-34.191
X98.919Y-28.662
X99.05Y-24.5
X99.05Y-34.147
X100.3Y-33.477
X100.42Y-34.34
X100.95Y-24.5
X102.05Y-28.0
X103.6Y-33.25
X104.05Y-24.5
X104.494Y-26.325
X104.95Y-12.25
X108.05Y-12.25
X111.0Y-41.75
X111.167Y-33.375
X112.7Y-12.25
X115.8Y-12.25
X116.35Y-26.0
X119.05Y-38.5
X119.25Y-26.5
X119.25Y-29.55
X119.725Y-41.85
X120.7Y-12.25
X124.0Y-12.45
X127.5Y-12.5
X127.63Y-37.75
X128.5Y-37.0
X129.5Y-37.0
X130.5Y-8.75
X131.75Y-9.5
X132.5Y-10.25
X133.25Y-11.0
X134.0Y-12.125
X135.0Y-14.25
X135.0Y-25.0
X135.0Y-27.0
X135.0Y-30.5
X135.087Y-11.337
X135.75Y-13.5
X136.25Y-24.75
X136.5Y-15.0
X136.5Y-21.75
X137.0Y-28.5
X137.0Y-31.5
X137.25Y-15.75
X137.25Y-21.25
X137.5Y-25.0
X138.5Y-35.0
X138.567Y-20.433
X139.25Y-20.0
X139.25Y-34.25
X139.5Y-12.5
X139.75Y-36.375
X140.0Y-19.5
X140.0Y-30.5
X140.75Y-19.0
X140.75Y-28.75
X141.25Y-16.375
X141.5Y-21.5
X141.5Y-27.0
X141.5Y-36.25
X142.125Y-33.5
X142.25Y-13.674
X142.25Y-26.25
X143.5Y-16.375
X143.5Y-20.0
X144.2Y-22.0
X144.5Y-32.0
X144.6Y-22.8
X144.8Y-21.0
X145.0Y-16.75
X145.0Y-33.5
X145.0Y-40.5
X145.25Y-13.674
X145.4Y-23.4
X146.0Y-20.4
X146.0Y-24.2
X146.0Y-26.5
X146.25Y-30.375
X146.413Y-23.503
X146.5Y-17.0
X146.875Y-37.625
X147.0Y-11.5
X147.0Y-24.8
X147.5Y-18.0
X147.5Y-26.0
X148.0Y-25.2
X148.0Y-31.25
X148.25Y-19.25
X148.25Y-26.75
X149.5Y-13.75
X150.25Y-32.75
X151.0Y-33.75
X151.438Y-19.5
X151.438Y-26.0
X152.25Y-16.812
X152.375Y-37.625
X152.5Y-28.625
X152.5Y-31.75
X152.709Y-13.575
X152.75Y-39.5
X153.25Y-35.223
X153.75Y-38.25
X154.125Y-35.223
X154.6Y-19.4
X155.8Y-28.637
X156.491Y-35.247
X156.5Y-18.5
X156.5Y-25.25
X156.75Y-10.5
X156.75Y-13.688
X156.75Y-16.812
X156.75Y-37.5
X157.0Y-27.5
X157.25Y-35.5
X158.0Y-39.5
X159.0Y-28.688
X159.0Y-31.812
X159.5Y-35.0
X160.25Y-35.5
X160.8Y-10.6
X160.8Y-17.562
X161.0Y-39.25
X161.074Y-35.524
X161.2Y-9.4
X161.27Y-42.0
X161.75Y-13.938
X161.871Y-35.126
X162.051Y-10.175
X162.25Y-28.688
X162.25Y-31.812
X162.625Y-8.4
X162.75Y-35.5
X163.2Y-7.6
X163.2Y-15.25
X163.5Y-17.5
X163.75Y-35.25
X163.758Y-13.575
X164.0Y-9.2
X164.436Y-13.999
X164.5Y-27.0
X164.6Y-10.8
X165.0Y-9.8
X165.0Y-14.625
X165.5Y-28.688
X165.5Y-31.812
X165.5Y-39.5
X165.8Y-9.025
X166.0Y-15.875
X166.0Y-17.4
X166.25Y-38.0
X166.375Y-26.0
X166.6Y-9.4
X166.924Y-10.2
X167.25Y-35.5
X167.6Y-5.5
X168.5Y-39.75
X168.625Y-31.8
X168.691Y-10.693
X168.75Y-28.7
X168.8Y-9.4
X169.5Y-10.2
X169.5Y-14.0
X169.562Y-16.25
X169.562Y-24.025
X169.562Y-26.0
X170.8Y-33.4
X171.43Y-37.25
X171.6Y-32.4
X171.651Y-33.251
X172.25Y-6.5
X172.25Y-8.732
X172.5Y-25.25
X172.6Y-30.4
X172.75Y-14.25
X173.0Y-38.0
X173.0Y-43.5
X173.25Y-26.0
X173.4Y-28.0
X174.0Y-25.2
X174.05Y-14.0
X174.4Y-19.0
X174.9Y-26.5
X175.2Y-13.8
X175.4Y-27.4
X176.8Y-24.875
X178.0Y-12.2
X179.0Y-19.0
X179.2Y-29.4
X179.6Y-11.4
X180.0Y-15.4
X181.0Y-29.4
X181.2Y-15.426
X182.0Y-12.25
X183.0Y-17.6
X183.5Y-12.25
X183.8Y-17.127
X184.175Y-26.095
X184.526Y-12.276
X184.6Y-19.8
X184.8Y-17.0
X185.4Y-12.4
X185.6Y-19.8
X185.8Y-16.963
X186.0Y-13.4
X186.4Y-19.2
X186.702Y-22.324
X187.05Y-27.0
X187.2Y-18.8
X188.0Y-21.2
X188.4Y-14.0
X188.75Y-25.25
X188.8Y-21.8
X189.2Y-14.0
X190.2Y-22.0
X190.2Y-23.4
X193.0Y-28.5
X194.476Y-26.653
X194.497Y-23.366
X194.5Y-31.75
X195.175Y-28.5
X197.0Y-26.5
X197.0Y-31.55
X197.75Y-13.75
X198.825Y-28.5
X199.5Y-23.438
X199.5Y-26.562
X199.5Y-31.75
X200.175Y-28.5
X202.0Y-26.562
X202.0Y-31.6
X203.825Y-28.45
X204.5Y-23.438
X204.5Y-26.562
X204.5Y-31.75
X205.0Y-14.438
X207.0Y-26.562
X207.0Y-31.55
X208.2Y-28.6
X210.5Y-33.5
X212.0Y-24.0
X215.5Y-31.5
X217.72Y-34.7
X217.75Y-14.387
X221.5Y-25.5
X224.5Y-33.0
X226.5Y-18.0
X227.25Y-23.5
X230.65Y-23.8
X234.4Y-8.8
X234.4Y-22.2
X234.4Y-28.6
X234.6Y-12.8
X234.6Y-14.0
X234.6Y-15.4
X234.6Y-20.8
X234.6Y-26.2
X234.8Y-7.2
X234.8Y-27.8
X234.8Y-33.2
X235.0Y-19.4
X239.938Y-15.974
X240.0Y-9.0
X240.0Y-23.0
X240.0Y-30.0
X241.0Y-13.0
X241.0Y-20.0
X241.0Y-27.0
X241.936Y-8.295
X242.0Y-33.0
X242.027Y-28.969
X242.25Y-16.0
X242.25Y-31.412
X242.254Y-14.492
X242.315Y-21.435
X243.0Y-8.0
X243.5Y-23.734
X246.725Y-28.61
X246.725Y-31.11
T2
X96.2Y-37.215
X96.6Y-37.915
X97.4Y-37.915
X97.8Y-37.215
X98.2Y-37.915
X98.6Y-37.215
X99.4Y-37.215
X99.8Y-37.915
X100.2Y-37.215
X100.6Y-37.915
X101.4Y-37.915
X101.8Y-37.215
T3
X95.4Y-36.565
X102.6Y-36.565
T4
X155.5Y-5.0
X164.5Y-5.0
T5
X214.5Y-23.8
X214.5Y-26.34
X214.5Y-28.88
X214.5Y-36.5
X214.5Y-39.04
X214.5Y-41.58
T6
X176.76Y-19.0
X181.64Y-19.0
T7
X53.96Y-2.96
X53.96Y-5.5
X53.96Y-40.46
X53.96Y-43.0
X56.5Y-2.96
X56.5Y-5.5
X56.5Y-40.46
X56.5Y-43.0
X59.04Y-2.96
X59.04Y-5.5
X59.04Y-40.46
X59.04Y-43.0
X125.38Y-40.0
X125.38Y-42.54
X127.92Y-40.0
X127.92Y-42.54
X130.46Y-40.0
X130.46Y-42.54
X133.0Y-40.0
X133.0Y-42.54
X135.54Y-40.0
X135.54Y-42.54
X138.08Y-40.0
X138.08Y-42.54
X140.62Y-40.0
X140.62Y-42.54
X143.16Y-40.0
X143.16Y-42.54
X148.57Y-42.0
X151.11Y-42.0
X153.65Y-42.0
X156.19Y-42.0
X158.73Y-42.0
X161.27Y-42.0
X163.81Y-42.0
X166.35Y-42.0
X168.89Y-42.0
X171.43Y-42.0
X189.11Y-39.725
X189.11Y-42.265
X191.65Y-39.725
X191.65Y-42.265
X194.19Y-39.725
X194.19Y-42.265
X196.73Y-39.725
X196.73Y-42.265
X199.27Y-39.725
X199.27Y-42.265
X201.81Y-39.725
X201.81Y-42.265
X204.35Y-39.725
X204.35Y-42.265
X206.89Y-39.725
X206.89Y-42.265
X246.5Y-39.725
X246.5Y-42.265
X254.725Y-13.61
X254.725Y-16.15
X254.725Y-18.69
X254.725Y-21.23
X254.725Y-23.77
X254.725Y-26.31
X254.725Y-28.85
X254.725Y-31.39
X257.265Y-13.61
X257.265Y-16.15
X257.265Y-18.69
X257.265Y-21.23
X257.265Y-23.77
X257.265Y-26.31
X257.265Y-28.85
X257.265Y-31.39
T8
X94.51Y-42.205
X94.87Y-37.815
X103.13Y-37.815
X103.49Y-42.205
X187.0Y-5.0
X189.5Y-5.0
X192.0Y-5.0
X194.5Y-5.0
X199.5Y-5.0
X202.0Y-5.0
X204.5Y-5.0
X207.0Y-5.0
X212.0Y-5.0
X214.5Y-5.0
X217.0Y-5.0
X219.5Y-5.0
X224.5Y-5.0
X227.0Y-5.0
X229.5Y-5.0
X232.0Y-5.0
T9
X72.585Y-3.585
X72.585Y-8.665
X72.585Y-16.285
X72.585Y-18.825
X76.0Y-26.46
X76.0Y-29.0
X76.0Y-36.62
X76.0Y-41.7
X225.585Y-41.915
X230.665Y-41.915
X238.285Y-41.915
X240.825Y-41.915
T10
X101.165Y-7.65
X104.975Y-7.65
X108.785Y-7.65
X112.595Y-7.65
X116.405Y-7.65
X120.215Y-7.65
X124.025Y-7.65
X127.835Y-7.65
T11
X33.0Y-4.5
X33.0Y-40.0
X37.5Y-4.5
X37.5Y-40.0
X45.5Y-4.5
X107.25Y-32.75
X125.0Y-29.5
X125.0Y-34.75
T12
X16.05Y-10.6
X16.05Y-15.68
X16.05Y-20.76
X16.05Y-25.84
X16.05Y-30.92
X16.05Y-36.0
T13
X5.5Y-5.5
X5.5Y-39.5
X85.0Y-5.5
X85.0Y-39.5
X180.0Y-5.5
X180.0Y-39.5
X254.5Y-5.5
X254.5Y-39.5
M30
