%TF.GenerationSoftware,KiCad,Pcbnew,10.0.3*%
%TF.CreationDate,2026-07-17T02:58:14-07:00*%
%TF.ProjectId,ControlBoard,436f6e74-726f-46c4-926f-6172642e6b69,rev?*%
%TF.SameCoordinates,Original*%
%TF.FileFunction,Paste,Bot*%
%TF.FilePolarity,Positive*%
%FSLAX46Y46*%
G04 Gerber Fmt 4.6, Leading zero omitted, Abs format (unit mm)*
G04 Created by KiCad (PCBNEW 10.0.3) date 2026-07-17 02:58:14*
%MOMM*%
%LPD*%
G01*
G04 APERTURE LIST*
G04 Aperture macros list*
%AMRoundRect*
0 Rectangle with rounded corners*
0 $1 Rounding radius*
0 $2 $3 $4 $5 $6 $7 $8 $9 X,Y pos of 4 corners*
0 Add a 4 corners polygon primitive as box body*
4,1,4,$2,$3,$4,$5,$6,$7,$8,$9,$2,$3,0*
0 Add four circle primitives for the rounded corners*
1,1,$1+$1,$2,$3*
1,1,$1+$1,$4,$5*
1,1,$1+$1,$6,$7*
1,1,$1+$1,$8,$9*
0 Add four rect primitives between the rounded corners*
20,1,$1+$1,$2,$3,$4,$5,0*
20,1,$1+$1,$4,$5,$6,$7,0*
20,1,$1+$1,$6,$7,$8,$9,0*
20,1,$1+$1,$8,$9,$2,$3,0*%
G04 Aperture macros list end*
%ADD10RoundRect,0.250000X-0.400000X-1.075000X0.400000X-1.075000X0.400000X1.075000X-0.400000X1.075000X0*%
%ADD11RoundRect,0.250000X1.100000X-0.412500X1.100000X0.412500X-1.100000X0.412500X-1.100000X-0.412500X0*%
%ADD12RoundRect,0.250000X-0.412500X-1.100000X0.412500X-1.100000X0.412500X1.100000X-0.412500X1.100000X0*%
%ADD13RoundRect,0.250000X0.400000X1.075000X-0.400000X1.075000X-0.400000X-1.075000X0.400000X-1.075000X0*%
%ADD14RoundRect,0.250000X1.075000X-0.400000X1.075000X0.400000X-1.075000X0.400000X-1.075000X-0.400000X0*%
%ADD15RoundRect,0.250000X-1.100000X0.412500X-1.100000X-0.412500X1.100000X-0.412500X1.100000X0.412500X0*%
%ADD16RoundRect,0.250000X0.412500X1.100000X-0.412500X1.100000X-0.412500X-1.100000X0.412500X-1.100000X0*%
%ADD17RoundRect,0.250000X-1.075000X0.400000X-1.075000X-0.400000X1.075000X-0.400000X1.075000X0.400000X0*%
%ADD18R,5.250000X1.020000*%
%ADD19R,5.250000X1.019998*%
%ADD20R,5.248699X1.026429*%
%ADD21R,3.450000X1.900000*%
%ADD22R,1.350000X0.900000*%
%ADD23R,0.650000X1.850000*%
%ADD24R,1.000000X0.500000*%
%ADD25RoundRect,0.250000X2.025000X2.375000X-2.025000X2.375000X-2.025000X-2.375000X2.025000X-2.375000X0*%
%ADD26RoundRect,0.250000X2.050000X0.300000X-2.050000X0.300000X-2.050000X-0.300000X2.050000X-0.300000X0*%
%ADD27RoundRect,0.250000X-1.125000X1.275000X-1.125000X-1.275000X1.125000X-1.275000X1.125000X1.275000X0*%
%ADD28RoundRect,0.200000X-0.200000X0.900000X-0.200000X-0.900000X0.200000X-0.900000X0.200000X0.900000X0*%
G04 APERTURE END LIST*
D10*
%TO.C,R91*%
X150450000Y-7500000D03*
X153550000Y-7500000D03*
%TD*%
D11*
%TO.C,C43*%
X199500000Y-26562500D03*
X199500000Y-23437500D03*
%TD*%
D12*
%TO.C,C139*%
X113437500Y-13500000D03*
X116562500Y-13500000D03*
%TD*%
D10*
%TO.C,R31*%
X102700000Y-2000000D03*
X105800000Y-2000000D03*
%TD*%
D13*
%TO.C,R68*%
X246775000Y-13610000D03*
X243675000Y-13610000D03*
%TD*%
D10*
%TO.C,R12*%
X108250000Y-2000000D03*
X111350000Y-2000000D03*
%TD*%
D11*
%TO.C,C197*%
X143400000Y-24162500D03*
X143400000Y-21037500D03*
%TD*%
D14*
%TO.C,R88*%
X121520000Y-42300000D03*
X121520000Y-39200000D03*
%TD*%
D12*
%TO.C,C137*%
X134500000Y-2000000D03*
X137625000Y-2000000D03*
%TD*%
D15*
%TO.C,C14*%
X73000000Y-26375000D03*
X73000000Y-29500000D03*
%TD*%
D16*
%TO.C,C193*%
X116562500Y-26300000D03*
X113437500Y-26300000D03*
%TD*%
%TO.C,C13*%
X176312500Y-28250000D03*
X173187500Y-28250000D03*
%TD*%
D10*
%TO.C,R15*%
X113500000Y-2000000D03*
X116600000Y-2000000D03*
%TD*%
D17*
%TO.C,R65*%
X204500000Y-33450000D03*
X204500000Y-36550000D03*
%TD*%
D15*
%TO.C,C5*%
X33000000Y-31437500D03*
X33000000Y-34562500D03*
%TD*%
D12*
%TO.C,C188*%
X113437500Y-19900000D03*
X116562500Y-19900000D03*
%TD*%
D17*
%TO.C,R14*%
X144270000Y-39200000D03*
X144270000Y-42300000D03*
%TD*%
D11*
%TO.C,C47*%
X204500000Y-26562500D03*
X204500000Y-23437500D03*
%TD*%
D16*
%TO.C,C49*%
X182562500Y-32000000D03*
X179437500Y-32000000D03*
%TD*%
D10*
%TO.C,R98*%
X172950000Y-32000000D03*
X176050000Y-32000000D03*
%TD*%
D17*
%TO.C,R57*%
X199500000Y-33450000D03*
X199500000Y-36550000D03*
%TD*%
D18*
%TO.C,J15*%
X17750000Y-7100000D03*
X17750000Y-13300000D03*
X17750000Y-19500000D03*
D19*
X17750000Y-25699999D03*
D18*
X17750000Y-31900000D03*
D20*
X17749349Y-38096780D03*
D21*
X18650000Y-1550000D03*
X13600000Y-1550000D03*
X18650000Y-43650000D03*
X13600000Y-43650000D03*
%TD*%
D13*
%TO.C,R74*%
X251775000Y-18610000D03*
X248675000Y-18610000D03*
%TD*%
D16*
%TO.C,C50*%
X182562500Y-27500000D03*
X179437500Y-27500000D03*
%TD*%
D11*
%TO.C,C23*%
X191250000Y-12562500D03*
X191250000Y-9437500D03*
%TD*%
D16*
%TO.C,C26*%
X95457500Y-12995000D03*
X92332500Y-12995000D03*
%TD*%
%TO.C,C194*%
X122062500Y-23200000D03*
X118937500Y-23200000D03*
%TD*%
D12*
%TO.C,C144*%
X199187500Y-2250000D03*
X202312500Y-2250000D03*
%TD*%
D13*
%TO.C,R5*%
X25550000Y-7000000D03*
X22450000Y-7000000D03*
%TD*%
D11*
%TO.C,C202*%
X124750000Y-42312500D03*
X124750000Y-39187500D03*
%TD*%
D15*
%TO.C,C3*%
X34000000Y-19437500D03*
X34000000Y-22562500D03*
%TD*%
D17*
%TO.C,R44*%
X197750000Y-9450000D03*
X197750000Y-12550000D03*
%TD*%
D11*
%TO.C,C34*%
X76000000Y-7562500D03*
X76000000Y-4437500D03*
%TD*%
D16*
%TO.C,C185*%
X132375000Y-2000000D03*
X129250000Y-2000000D03*
%TD*%
D13*
%TO.C,R27*%
X25300000Y-25500000D03*
X22200000Y-25500000D03*
%TD*%
D16*
%TO.C,C201*%
X149162500Y-21700000D03*
X146037500Y-21700000D03*
%TD*%
D22*
%TO.C,FL1*%
X67775000Y-4250000D03*
X67775000Y-6750000D03*
X63225000Y-6750000D03*
X63225000Y-4250000D03*
%TD*%
D17*
%TO.C,R37*%
X50000000Y-40450000D03*
X50000000Y-43550000D03*
%TD*%
D23*
%TO.C,IC7*%
X67405000Y-19325000D03*
X66135000Y-19325000D03*
X64865000Y-19325000D03*
X63595000Y-19325000D03*
X63595000Y-8675000D03*
X64865000Y-8675000D03*
X66135000Y-8675000D03*
X67405000Y-8675000D03*
%TD*%
D10*
%TO.C,R87*%
X219000000Y-2250000D03*
X222100000Y-2250000D03*
%TD*%
D22*
%TO.C,FL2*%
X67775000Y-40250000D03*
X67775000Y-42750000D03*
X63225000Y-42750000D03*
X63225000Y-40250000D03*
%TD*%
D23*
%TO.C,IC5*%
X63095000Y-27175000D03*
X64365000Y-27175000D03*
X65635000Y-27175000D03*
X66905000Y-27175000D03*
X66905000Y-37825000D03*
X65635000Y-37825000D03*
X64365000Y-37825000D03*
X63095000Y-37825000D03*
%TD*%
D16*
%TO.C,C191*%
X122100000Y-13600000D03*
X118975000Y-13600000D03*
%TD*%
D12*
%TO.C,C208*%
X150437500Y-11000000D03*
X153562500Y-11000000D03*
%TD*%
D13*
%TO.C,R11*%
X25500000Y-13500000D03*
X22400000Y-13500000D03*
%TD*%
D12*
%TO.C,C187*%
X113437500Y-16700000D03*
X116562500Y-16700000D03*
%TD*%
D13*
%TO.C,R9*%
X30500000Y-13500000D03*
X27400000Y-13500000D03*
%TD*%
D11*
%TO.C,C41*%
X57000000Y-29500000D03*
X57000000Y-26375000D03*
%TD*%
%TO.C,C147*%
X148500000Y-27425000D03*
X148500000Y-24300000D03*
%TD*%
D17*
%TO.C,R58*%
X199500000Y-28500000D03*
X199500000Y-31600000D03*
%TD*%
D14*
%TO.C,R48*%
X207000000Y-17550000D03*
X207000000Y-14450000D03*
%TD*%
D24*
%TO.C,Z5*%
X150700000Y-1500000D03*
X148300000Y-1500000D03*
%TD*%
D15*
%TO.C,C38*%
X216000000Y-14387500D03*
X216000000Y-17512500D03*
%TD*%
D14*
%TO.C,R52*%
X219500000Y-17550000D03*
X219500000Y-14450000D03*
%TD*%
D12*
%TO.C,C134*%
X107937500Y-19900000D03*
X111062500Y-19900000D03*
%TD*%
%TO.C,C200*%
X139750000Y-2250000D03*
X142875000Y-2250000D03*
%TD*%
D14*
%TO.C,R39*%
X232000000Y-12550000D03*
X232000000Y-9450000D03*
%TD*%
D11*
%TO.C,C45*%
X194500000Y-26562500D03*
X194500000Y-23437500D03*
%TD*%
%TO.C,C51*%
X169500000Y-28312500D03*
X169500000Y-25187500D03*
%TD*%
D14*
%TO.C,R92*%
X163000000Y-4600000D03*
X163000000Y-1500000D03*
%TD*%
D13*
%TO.C,R19*%
X30300000Y-19500000D03*
X27200000Y-19500000D03*
%TD*%
D12*
%TO.C,C146*%
X224250000Y-2250000D03*
X227375000Y-2250000D03*
%TD*%
D13*
%TO.C,R82*%
X251725000Y-28610000D03*
X248625000Y-28610000D03*
%TD*%
%TO.C,R80*%
X246725000Y-23610000D03*
X243625000Y-23610000D03*
%TD*%
D16*
%TO.C,C186*%
X121762500Y-2000000D03*
X118637500Y-2000000D03*
%TD*%
D12*
%TO.C,C149*%
X142687500Y-26750000D03*
X145812500Y-26750000D03*
%TD*%
D17*
%TO.C,R18*%
X37500000Y-25450000D03*
X37500000Y-28550000D03*
%TD*%
D15*
%TO.C,C28*%
X127987500Y-39187500D03*
X127987500Y-42312500D03*
%TD*%
D17*
%TO.C,R70*%
X131250000Y-39200000D03*
X131250000Y-42300000D03*
%TD*%
D13*
%TO.C,R67*%
X251775000Y-13610000D03*
X248675000Y-13610000D03*
%TD*%
D16*
%TO.C,C15*%
X63062500Y-24000000D03*
X59937500Y-24000000D03*
%TD*%
D13*
%TO.C,R21*%
X25300000Y-19500000D03*
X22200000Y-19500000D03*
%TD*%
D17*
%TO.C,R2*%
X37500000Y-13450000D03*
X37500000Y-16550000D03*
%TD*%
%TO.C,R66*%
X204500000Y-28450000D03*
X204500000Y-31550000D03*
%TD*%
D13*
%TO.C,R76*%
X246775000Y-18610000D03*
X243675000Y-18610000D03*
%TD*%
D15*
%TO.C,C27*%
X141020000Y-39187500D03*
X141020000Y-42312500D03*
%TD*%
%TO.C,C17*%
X73000000Y-37437500D03*
X73000000Y-40562500D03*
%TD*%
%TO.C,C2*%
X33750000Y-13437500D03*
X33750000Y-16562500D03*
%TD*%
D14*
%TO.C,R51*%
X219500000Y-12550000D03*
X219500000Y-9450000D03*
%TD*%
D10*
%TO.C,R93*%
X159450000Y-7500000D03*
X162550000Y-7500000D03*
%TD*%
D16*
%TO.C,C136*%
X111062500Y-23100000D03*
X107937500Y-23100000D03*
%TD*%
D15*
%TO.C,C209*%
X156500000Y-8000000D03*
X156500000Y-11125000D03*
%TD*%
D24*
%TO.C,Z7*%
X169700000Y-1500000D03*
X167300000Y-1500000D03*
%TD*%
D25*
%TO.C,U3*%
X223925000Y-28275000D03*
X223925000Y-22725000D03*
X219075000Y-28275000D03*
X219075000Y-22725000D03*
D26*
X230650000Y-22100000D03*
X230650000Y-23800000D03*
X230650000Y-25500000D03*
X230650000Y-27200000D03*
X230650000Y-28900000D03*
%TD*%
D12*
%TO.C,C145*%
X211437500Y-2250000D03*
X214562500Y-2250000D03*
%TD*%
D13*
%TO.C,R3*%
X30550000Y-7000000D03*
X27450000Y-7000000D03*
%TD*%
D16*
%TO.C,C192*%
X116562500Y-23100000D03*
X113437500Y-23100000D03*
%TD*%
D17*
%TO.C,R89*%
X137750000Y-39200000D03*
X137750000Y-42300000D03*
%TD*%
D10*
%TO.C,R95*%
X170000000Y-7500000D03*
X173100000Y-7500000D03*
%TD*%
D16*
%TO.C,C183*%
X111062500Y-16700000D03*
X107937500Y-16700000D03*
%TD*%
%TO.C,C182*%
X111100000Y-13500000D03*
X107975000Y-13500000D03*
%TD*%
D12*
%TO.C,C138*%
X118937500Y-16800000D03*
X122062500Y-16800000D03*
%TD*%
D27*
%TO.C,U7*%
X221525000Y-39325000D03*
X218475000Y-39325000D03*
X221525000Y-42675000D03*
X218475000Y-42675000D03*
D28*
X217720000Y-34700000D03*
X218860000Y-34700000D03*
X221140000Y-34700000D03*
X222280000Y-34700000D03*
%TD*%
D24*
%TO.C,Z6*%
X160200000Y-1500000D03*
X157800000Y-1500000D03*
%TD*%
D15*
%TO.C,C25*%
X203500000Y-14437500D03*
X203500000Y-17562500D03*
%TD*%
D17*
%TO.C,R8*%
X37500000Y-19450000D03*
X37500000Y-22550000D03*
%TD*%
%TO.C,R61*%
X194500000Y-33450000D03*
X194500000Y-36550000D03*
%TD*%
D14*
%TO.C,R94*%
X172500000Y-4550000D03*
X172500000Y-1450000D03*
%TD*%
D12*
%TO.C,C189*%
X118937500Y-20000000D03*
X122062500Y-20000000D03*
%TD*%
D16*
%TO.C,C32*%
X60562500Y-20000000D03*
X57437500Y-20000000D03*
%TD*%
D11*
%TO.C,C48*%
X141500000Y-10250000D03*
X141500000Y-7125000D03*
%TD*%
D15*
%TO.C,C203*%
X134430000Y-39200000D03*
X134430000Y-42325000D03*
%TD*%
D11*
%TO.C,C33*%
X137750000Y-10250000D03*
X137750000Y-7125000D03*
%TD*%
D13*
%TO.C,R84*%
X246725000Y-28610000D03*
X243625000Y-28610000D03*
%TD*%
D12*
%TO.C,C184*%
X124000000Y-2000000D03*
X127125000Y-2000000D03*
%TD*%
D13*
%TO.C,R25*%
X30300000Y-25500000D03*
X27200000Y-25500000D03*
%TD*%
%TO.C,R78*%
X251675000Y-23610000D03*
X248575000Y-23610000D03*
%TD*%
D15*
%TO.C,C21*%
X228500000Y-14500000D03*
X228500000Y-17625000D03*
%TD*%
D17*
%TO.C,R62*%
X194500000Y-28500000D03*
X194500000Y-31600000D03*
%TD*%
D14*
%TO.C,R40*%
X232000000Y-17500000D03*
X232000000Y-14400000D03*
%TD*%
%TO.C,R47*%
X207000000Y-12550000D03*
X207000000Y-9450000D03*
%TD*%
D17*
%TO.C,R24*%
X37500000Y-31450000D03*
X37500000Y-34550000D03*
%TD*%
D12*
%TO.C,C31*%
X75187500Y-17250000D03*
X78312500Y-17250000D03*
%TD*%
D16*
%TO.C,C135*%
X111062500Y-26300000D03*
X107937500Y-26300000D03*
%TD*%
D12*
%TO.C,C143*%
X187437500Y-2250000D03*
X190562500Y-2250000D03*
%TD*%
D16*
%TO.C,C30*%
X95457500Y-7995000D03*
X92332500Y-7995000D03*
%TD*%
D15*
%TO.C,C4*%
X34000000Y-25437500D03*
X34000000Y-28562500D03*
%TD*%
D14*
%TO.C,R90*%
X153500000Y-4550000D03*
X153500000Y-1450000D03*
%TD*%
D16*
%TO.C,C190*%
X122100000Y-26400000D03*
X118975000Y-26400000D03*
%TD*%
D14*
%TO.C,R43*%
X194500000Y-12550000D03*
X194500000Y-9450000D03*
%TD*%
D16*
%TO.C,C198*%
X158562500Y-20000000D03*
X155437500Y-20000000D03*
%TD*%
M02*
