%TF.GenerationSoftware,KiCad,Pcbnew,9.0.1*%
%TF.CreationDate,2026-02-07T16:56:34-08:00*%
%TF.ProjectId,ControlBoard,436f6e74-726f-46c4-926f-6172642e6b69,rev?*%
%TF.SameCoordinates,Original*%
%TF.FileFunction,Legend,Bot*%
%TF.FilePolarity,Positive*%
%FSLAX46Y46*%
G04 Gerber Fmt 4.6, Leading zero omitted, Abs format (unit mm)*
G04 Created by KiCad (PCBNEW 9.0.1) date 2026-02-07 16:56:34*
%MOMM*%
%LPD*%
G01*
G04 APERTURE LIST*
%ADD10C,0.250000*%
%ADD11C,0.254000*%
%ADD12C,0.150000*%
%ADD13C,0.200000*%
%ADD14C,0.120000*%
%ADD15C,0.100000*%
%ADD16C,2.550000*%
%ADD17C,1.217000*%
G04 APERTURE END LIST*
D10*
X140597431Y-2232000D02*
X139835527Y-2232000D01*
X140216479Y-2803428D02*
X140216479Y-1660571D01*
X138883146Y-1303428D02*
X139359336Y-1303428D01*
X139359336Y-1303428D02*
X139406955Y-2017714D01*
X139406955Y-2017714D02*
X139359336Y-1946285D01*
X139359336Y-1946285D02*
X139264098Y-1874857D01*
X139264098Y-1874857D02*
X139026003Y-1874857D01*
X139026003Y-1874857D02*
X138930765Y-1946285D01*
X138930765Y-1946285D02*
X138883146Y-2017714D01*
X138883146Y-2017714D02*
X138835527Y-2160571D01*
X138835527Y-2160571D02*
X138835527Y-2517714D01*
X138835527Y-2517714D02*
X138883146Y-2660571D01*
X138883146Y-2660571D02*
X138930765Y-2732000D01*
X138930765Y-2732000D02*
X139026003Y-2803428D01*
X139026003Y-2803428D02*
X139264098Y-2803428D01*
X139264098Y-2803428D02*
X139359336Y-2732000D01*
X139359336Y-2732000D02*
X139406955Y-2660571D01*
X138549812Y-1303428D02*
X138216479Y-2803428D01*
X138216479Y-2803428D02*
X137883146Y-1303428D01*
X136787907Y-2803428D02*
X136787907Y-1303428D01*
X136787907Y-2017714D02*
X136216479Y-2017714D01*
X136216479Y-2803428D02*
X136216479Y-1303428D01*
X135978384Y-2946285D02*
X135216479Y-2946285D01*
X134978383Y-1303428D02*
X134978383Y-2517714D01*
X134978383Y-2517714D02*
X134930764Y-2660571D01*
X134930764Y-2660571D02*
X134883145Y-2732000D01*
X134883145Y-2732000D02*
X134787907Y-2803428D01*
X134787907Y-2803428D02*
X134597431Y-2803428D01*
X134597431Y-2803428D02*
X134502193Y-2732000D01*
X134502193Y-2732000D02*
X134454574Y-2660571D01*
X134454574Y-2660571D02*
X134406955Y-2517714D01*
X134406955Y-2517714D02*
X134406955Y-1303428D01*
X133168859Y-2803428D02*
X133168859Y-1303428D01*
X133168859Y-2017714D02*
X132597431Y-2017714D01*
X132597431Y-2803428D02*
X132597431Y-1303428D01*
X132359336Y-2946285D02*
X131597431Y-2946285D01*
X131454573Y-1303428D02*
X131216478Y-2803428D01*
X131216478Y-2803428D02*
X131026002Y-1732000D01*
X131026002Y-1732000D02*
X130835526Y-2803428D01*
X130835526Y-2803428D02*
X130597431Y-1303428D01*
X129454573Y-2803428D02*
X129454573Y-1303428D01*
X129454573Y-2017714D02*
X128883145Y-2017714D01*
X128883145Y-2803428D02*
X128883145Y-1303428D01*
X128645050Y-2946285D02*
X127883145Y-2946285D01*
X127787906Y-1303428D02*
X127454573Y-2803428D01*
X127454573Y-2803428D02*
X127121240Y-1303428D01*
X126026001Y-2803428D02*
X126026001Y-1303428D01*
X126026001Y-1303428D02*
X125692668Y-2374857D01*
X125692668Y-2374857D02*
X125359335Y-1303428D01*
X125359335Y-1303428D02*
X125359335Y-2803428D01*
X125026001Y-1303428D02*
X124454573Y-1303428D01*
X124740287Y-2803428D02*
X124740287Y-1303428D01*
X123549811Y-2803428D02*
X123883144Y-2089142D01*
X124121239Y-2803428D02*
X124121239Y-1303428D01*
X124121239Y-1303428D02*
X123740287Y-1303428D01*
X123740287Y-1303428D02*
X123645049Y-1374857D01*
X123645049Y-1374857D02*
X123597430Y-1446285D01*
X123597430Y-1446285D02*
X123549811Y-1589142D01*
X123549811Y-1589142D02*
X123549811Y-1803428D01*
X123549811Y-1803428D02*
X123597430Y-1946285D01*
X123597430Y-1946285D02*
X123645049Y-2017714D01*
X123645049Y-2017714D02*
X123740287Y-2089142D01*
X123740287Y-2089142D02*
X124121239Y-2089142D01*
X123264096Y-1303428D02*
X122692668Y-1303428D01*
X122978382Y-2803428D02*
X122978382Y-1303428D01*
X122359334Y-2803428D02*
X122359334Y-1303428D01*
X122359334Y-1303428D02*
X122026001Y-2374857D01*
X122026001Y-2374857D02*
X121692668Y-1303428D01*
X121692668Y-1303428D02*
X121692668Y-2803428D01*
X121216477Y-2803428D02*
X121216477Y-1303428D01*
X121216477Y-1303428D02*
X120835525Y-1303428D01*
X120835525Y-1303428D02*
X120740287Y-1374857D01*
X120740287Y-1374857D02*
X120692668Y-1446285D01*
X120692668Y-1446285D02*
X120645049Y-1589142D01*
X120645049Y-1589142D02*
X120645049Y-1803428D01*
X120645049Y-1803428D02*
X120692668Y-1946285D01*
X120692668Y-1946285D02*
X120740287Y-2017714D01*
X120740287Y-2017714D02*
X120835525Y-2089142D01*
X120835525Y-2089142D02*
X121216477Y-2089142D01*
X118930763Y-1374857D02*
X119026001Y-1303428D01*
X119026001Y-1303428D02*
X119168858Y-1303428D01*
X119168858Y-1303428D02*
X119311715Y-1374857D01*
X119311715Y-1374857D02*
X119406953Y-1517714D01*
X119406953Y-1517714D02*
X119454572Y-1660571D01*
X119454572Y-1660571D02*
X119502191Y-1946285D01*
X119502191Y-1946285D02*
X119502191Y-2160571D01*
X119502191Y-2160571D02*
X119454572Y-2446285D01*
X119454572Y-2446285D02*
X119406953Y-2589142D01*
X119406953Y-2589142D02*
X119311715Y-2732000D01*
X119311715Y-2732000D02*
X119168858Y-2803428D01*
X119168858Y-2803428D02*
X119073620Y-2803428D01*
X119073620Y-2803428D02*
X118930763Y-2732000D01*
X118930763Y-2732000D02*
X118883144Y-2660571D01*
X118883144Y-2660571D02*
X118883144Y-2160571D01*
X118883144Y-2160571D02*
X119073620Y-2160571D01*
X118454572Y-2803428D02*
X118454572Y-1303428D01*
X118454572Y-1303428D02*
X117883144Y-2803428D01*
X117883144Y-2803428D02*
X117883144Y-1303428D01*
X117406953Y-2803428D02*
X117406953Y-1303428D01*
X117406953Y-1303428D02*
X117168858Y-1303428D01*
X117168858Y-1303428D02*
X117026001Y-1374857D01*
X117026001Y-1374857D02*
X116930763Y-1517714D01*
X116930763Y-1517714D02*
X116883144Y-1660571D01*
X116883144Y-1660571D02*
X116835525Y-1946285D01*
X116835525Y-1946285D02*
X116835525Y-2160571D01*
X116835525Y-2160571D02*
X116883144Y-2446285D01*
X116883144Y-2446285D02*
X116930763Y-2589142D01*
X116930763Y-2589142D02*
X117026001Y-2732000D01*
X117026001Y-2732000D02*
X117168858Y-2803428D01*
X117168858Y-2803428D02*
X117406953Y-2803428D01*
X174597431Y-2232000D02*
X173835527Y-2232000D01*
X174216479Y-2803428D02*
X174216479Y-1660571D01*
X172883146Y-1303428D02*
X173359336Y-1303428D01*
X173359336Y-1303428D02*
X173406955Y-2017714D01*
X173406955Y-2017714D02*
X173359336Y-1946285D01*
X173359336Y-1946285D02*
X173264098Y-1874857D01*
X173264098Y-1874857D02*
X173026003Y-1874857D01*
X173026003Y-1874857D02*
X172930765Y-1946285D01*
X172930765Y-1946285D02*
X172883146Y-2017714D01*
X172883146Y-2017714D02*
X172835527Y-2160571D01*
X172835527Y-2160571D02*
X172835527Y-2517714D01*
X172835527Y-2517714D02*
X172883146Y-2660571D01*
X172883146Y-2660571D02*
X172930765Y-2732000D01*
X172930765Y-2732000D02*
X173026003Y-2803428D01*
X173026003Y-2803428D02*
X173264098Y-2803428D01*
X173264098Y-2803428D02*
X173359336Y-2732000D01*
X173359336Y-2732000D02*
X173406955Y-2660571D01*
X172549812Y-1303428D02*
X172216479Y-2803428D01*
X172216479Y-2803428D02*
X171883146Y-1303428D01*
X170787907Y-2803428D02*
X170787907Y-1303428D01*
X170787907Y-1303428D02*
X170216479Y-2803428D01*
X170216479Y-2803428D02*
X170216479Y-1303428D01*
X169168860Y-2660571D02*
X169216479Y-2732000D01*
X169216479Y-2732000D02*
X169359336Y-2803428D01*
X169359336Y-2803428D02*
X169454574Y-2803428D01*
X169454574Y-2803428D02*
X169597431Y-2732000D01*
X169597431Y-2732000D02*
X169692669Y-2589142D01*
X169692669Y-2589142D02*
X169740288Y-2446285D01*
X169740288Y-2446285D02*
X169787907Y-2160571D01*
X169787907Y-2160571D02*
X169787907Y-1946285D01*
X169787907Y-1946285D02*
X169740288Y-1660571D01*
X169740288Y-1660571D02*
X169692669Y-1517714D01*
X169692669Y-1517714D02*
X169597431Y-1374857D01*
X169597431Y-1374857D02*
X169454574Y-1303428D01*
X169454574Y-1303428D02*
X169359336Y-1303428D01*
X169359336Y-1303428D02*
X169216479Y-1374857D01*
X169216479Y-1374857D02*
X169168860Y-1446285D01*
X167406955Y-2803428D02*
X167740288Y-2089142D01*
X167978383Y-2803428D02*
X167978383Y-1303428D01*
X167978383Y-1303428D02*
X167597431Y-1303428D01*
X167597431Y-1303428D02*
X167502193Y-1374857D01*
X167502193Y-1374857D02*
X167454574Y-1446285D01*
X167454574Y-1446285D02*
X167406955Y-1589142D01*
X167406955Y-1589142D02*
X167406955Y-1803428D01*
X167406955Y-1803428D02*
X167454574Y-1946285D01*
X167454574Y-1946285D02*
X167502193Y-2017714D01*
X167502193Y-2017714D02*
X167597431Y-2089142D01*
X167597431Y-2089142D02*
X167978383Y-2089142D01*
X166454574Y-1374857D02*
X166549812Y-1303428D01*
X166549812Y-1303428D02*
X166692669Y-1303428D01*
X166692669Y-1303428D02*
X166835526Y-1374857D01*
X166835526Y-1374857D02*
X166930764Y-1517714D01*
X166930764Y-1517714D02*
X166978383Y-1660571D01*
X166978383Y-1660571D02*
X167026002Y-1946285D01*
X167026002Y-1946285D02*
X167026002Y-2160571D01*
X167026002Y-2160571D02*
X166978383Y-2446285D01*
X166978383Y-2446285D02*
X166930764Y-2589142D01*
X166930764Y-2589142D02*
X166835526Y-2732000D01*
X166835526Y-2732000D02*
X166692669Y-2803428D01*
X166692669Y-2803428D02*
X166597431Y-2803428D01*
X166597431Y-2803428D02*
X166454574Y-2732000D01*
X166454574Y-2732000D02*
X166406955Y-2660571D01*
X166406955Y-2660571D02*
X166406955Y-2160571D01*
X166406955Y-2160571D02*
X166597431Y-2160571D01*
X165978383Y-2803428D02*
X165978383Y-1303428D01*
X165978383Y-1303428D02*
X165406955Y-2803428D01*
X165406955Y-2803428D02*
X165406955Y-1303428D01*
X164216478Y-2732000D02*
X164073621Y-2803428D01*
X164073621Y-2803428D02*
X163835526Y-2803428D01*
X163835526Y-2803428D02*
X163740288Y-2732000D01*
X163740288Y-2732000D02*
X163692669Y-2660571D01*
X163692669Y-2660571D02*
X163645050Y-2517714D01*
X163645050Y-2517714D02*
X163645050Y-2374857D01*
X163645050Y-2374857D02*
X163692669Y-2232000D01*
X163692669Y-2232000D02*
X163740288Y-2160571D01*
X163740288Y-2160571D02*
X163835526Y-2089142D01*
X163835526Y-2089142D02*
X164026002Y-2017714D01*
X164026002Y-2017714D02*
X164121240Y-1946285D01*
X164121240Y-1946285D02*
X164168859Y-1874857D01*
X164168859Y-1874857D02*
X164216478Y-1732000D01*
X164216478Y-1732000D02*
X164216478Y-1589142D01*
X164216478Y-1589142D02*
X164168859Y-1446285D01*
X164168859Y-1446285D02*
X164121240Y-1374857D01*
X164121240Y-1374857D02*
X164026002Y-1303428D01*
X164026002Y-1303428D02*
X163787907Y-1303428D01*
X163787907Y-1303428D02*
X163645050Y-1374857D01*
X163216478Y-2803428D02*
X163216478Y-1303428D01*
X163216478Y-1303428D02*
X162835526Y-1303428D01*
X162835526Y-1303428D02*
X162740288Y-1374857D01*
X162740288Y-1374857D02*
X162692669Y-1446285D01*
X162692669Y-1446285D02*
X162645050Y-1589142D01*
X162645050Y-1589142D02*
X162645050Y-1803428D01*
X162645050Y-1803428D02*
X162692669Y-1946285D01*
X162692669Y-1946285D02*
X162740288Y-2017714D01*
X162740288Y-2017714D02*
X162835526Y-2089142D01*
X162835526Y-2089142D02*
X163216478Y-2089142D01*
X161645050Y-2803428D02*
X161978383Y-2089142D01*
X162216478Y-2803428D02*
X162216478Y-1303428D01*
X162216478Y-1303428D02*
X161835526Y-1303428D01*
X161835526Y-1303428D02*
X161740288Y-1374857D01*
X161740288Y-1374857D02*
X161692669Y-1446285D01*
X161692669Y-1446285D02*
X161645050Y-1589142D01*
X161645050Y-1589142D02*
X161645050Y-1803428D01*
X161645050Y-1803428D02*
X161692669Y-1946285D01*
X161692669Y-1946285D02*
X161740288Y-2017714D01*
X161740288Y-2017714D02*
X161835526Y-2089142D01*
X161835526Y-2089142D02*
X162216478Y-2089142D01*
X161216478Y-2017714D02*
X160883145Y-2017714D01*
X160740288Y-2803428D02*
X161216478Y-2803428D01*
X161216478Y-2803428D02*
X161216478Y-1303428D01*
X161216478Y-1303428D02*
X160740288Y-1303428D01*
X159692668Y-1303428D02*
X159121240Y-1303428D01*
X159406954Y-2803428D02*
X159406954Y-1303428D01*
X158787906Y-2803428D02*
X158787906Y-1303428D01*
X158787906Y-2017714D02*
X158216478Y-2017714D01*
X158216478Y-2803428D02*
X158216478Y-1303428D01*
X157168859Y-2803428D02*
X157502192Y-2089142D01*
X157740287Y-2803428D02*
X157740287Y-1303428D01*
X157740287Y-1303428D02*
X157359335Y-1303428D01*
X157359335Y-1303428D02*
X157264097Y-1374857D01*
X157264097Y-1374857D02*
X157216478Y-1446285D01*
X157216478Y-1446285D02*
X157168859Y-1589142D01*
X157168859Y-1589142D02*
X157168859Y-1803428D01*
X157168859Y-1803428D02*
X157216478Y-1946285D01*
X157216478Y-1946285D02*
X157264097Y-2017714D01*
X157264097Y-2017714D02*
X157359335Y-2089142D01*
X157359335Y-2089142D02*
X157740287Y-2089142D01*
X156883144Y-1303428D02*
X156311716Y-1303428D01*
X156597430Y-2803428D02*
X156597430Y-1303428D01*
X154692668Y-1374857D02*
X154787906Y-1303428D01*
X154787906Y-1303428D02*
X154930763Y-1303428D01*
X154930763Y-1303428D02*
X155073620Y-1374857D01*
X155073620Y-1374857D02*
X155168858Y-1517714D01*
X155168858Y-1517714D02*
X155216477Y-1660571D01*
X155216477Y-1660571D02*
X155264096Y-1946285D01*
X155264096Y-1946285D02*
X155264096Y-2160571D01*
X155264096Y-2160571D02*
X155216477Y-2446285D01*
X155216477Y-2446285D02*
X155168858Y-2589142D01*
X155168858Y-2589142D02*
X155073620Y-2732000D01*
X155073620Y-2732000D02*
X154930763Y-2803428D01*
X154930763Y-2803428D02*
X154835525Y-2803428D01*
X154835525Y-2803428D02*
X154692668Y-2732000D01*
X154692668Y-2732000D02*
X154645049Y-2660571D01*
X154645049Y-2660571D02*
X154645049Y-2160571D01*
X154645049Y-2160571D02*
X154835525Y-2160571D01*
X154216477Y-2803428D02*
X154216477Y-1303428D01*
X154216477Y-1303428D02*
X153645049Y-2803428D01*
X153645049Y-2803428D02*
X153645049Y-1303428D01*
X153168858Y-2803428D02*
X153168858Y-1303428D01*
X153168858Y-1303428D02*
X152930763Y-1303428D01*
X152930763Y-1303428D02*
X152787906Y-1374857D01*
X152787906Y-1374857D02*
X152692668Y-1517714D01*
X152692668Y-1517714D02*
X152645049Y-1660571D01*
X152645049Y-1660571D02*
X152597430Y-1946285D01*
X152597430Y-1946285D02*
X152597430Y-2160571D01*
X152597430Y-2160571D02*
X152645049Y-2446285D01*
X152645049Y-2446285D02*
X152692668Y-2589142D01*
X152692668Y-2589142D02*
X152787906Y-2732000D01*
X152787906Y-2732000D02*
X152930763Y-2803428D01*
X152930763Y-2803428D02*
X153168858Y-2803428D01*
X186597431Y-7803428D02*
X186597431Y-6303428D01*
X186597431Y-6303428D02*
X186026003Y-7803428D01*
X186026003Y-7803428D02*
X186026003Y-6303428D01*
X184978384Y-7660571D02*
X185026003Y-7732000D01*
X185026003Y-7732000D02*
X185168860Y-7803428D01*
X185168860Y-7803428D02*
X185264098Y-7803428D01*
X185264098Y-7803428D02*
X185406955Y-7732000D01*
X185406955Y-7732000D02*
X185502193Y-7589142D01*
X185502193Y-7589142D02*
X185549812Y-7446285D01*
X185549812Y-7446285D02*
X185597431Y-7160571D01*
X185597431Y-7160571D02*
X185597431Y-6946285D01*
X185597431Y-6946285D02*
X185549812Y-6660571D01*
X185549812Y-6660571D02*
X185502193Y-6517714D01*
X185502193Y-6517714D02*
X185406955Y-6374857D01*
X185406955Y-6374857D02*
X185264098Y-6303428D01*
X185264098Y-6303428D02*
X185168860Y-6303428D01*
X185168860Y-6303428D02*
X185026003Y-6374857D01*
X185026003Y-6374857D02*
X184978384Y-6446285D01*
X183264098Y-6374857D02*
X183359336Y-6303428D01*
X183359336Y-6303428D02*
X183502193Y-6303428D01*
X183502193Y-6303428D02*
X183645050Y-6374857D01*
X183645050Y-6374857D02*
X183740288Y-6517714D01*
X183740288Y-6517714D02*
X183787907Y-6660571D01*
X183787907Y-6660571D02*
X183835526Y-6946285D01*
X183835526Y-6946285D02*
X183835526Y-7160571D01*
X183835526Y-7160571D02*
X183787907Y-7446285D01*
X183787907Y-7446285D02*
X183740288Y-7589142D01*
X183740288Y-7589142D02*
X183645050Y-7732000D01*
X183645050Y-7732000D02*
X183502193Y-7803428D01*
X183502193Y-7803428D02*
X183406955Y-7803428D01*
X183406955Y-7803428D02*
X183264098Y-7732000D01*
X183264098Y-7732000D02*
X183216479Y-7660571D01*
X183216479Y-7660571D02*
X183216479Y-7160571D01*
X183216479Y-7160571D02*
X183406955Y-7160571D01*
X182787907Y-7803428D02*
X182787907Y-6303428D01*
X182787907Y-6303428D02*
X182216479Y-7803428D01*
X182216479Y-7803428D02*
X182216479Y-6303428D01*
X181740288Y-7803428D02*
X181740288Y-6303428D01*
X181740288Y-6303428D02*
X181502193Y-6303428D01*
X181502193Y-6303428D02*
X181359336Y-6374857D01*
X181359336Y-6374857D02*
X181264098Y-6517714D01*
X181264098Y-6517714D02*
X181216479Y-6660571D01*
X181216479Y-6660571D02*
X181168860Y-6946285D01*
X181168860Y-6946285D02*
X181168860Y-7160571D01*
X181168860Y-7160571D02*
X181216479Y-7446285D01*
X181216479Y-7446285D02*
X181264098Y-7589142D01*
X181264098Y-7589142D02*
X181359336Y-7732000D01*
X181359336Y-7732000D02*
X181502193Y-7803428D01*
X181502193Y-7803428D02*
X181740288Y-7803428D01*
X179978383Y-7803428D02*
X179978383Y-6303428D01*
X179978383Y-7017714D02*
X179406955Y-7017714D01*
X179406955Y-7803428D02*
X179406955Y-6303428D01*
X178978383Y-7732000D02*
X178835526Y-7803428D01*
X178835526Y-7803428D02*
X178597431Y-7803428D01*
X178597431Y-7803428D02*
X178502193Y-7732000D01*
X178502193Y-7732000D02*
X178454574Y-7660571D01*
X178454574Y-7660571D02*
X178406955Y-7517714D01*
X178406955Y-7517714D02*
X178406955Y-7374857D01*
X178406955Y-7374857D02*
X178454574Y-7232000D01*
X178454574Y-7232000D02*
X178502193Y-7160571D01*
X178502193Y-7160571D02*
X178597431Y-7089142D01*
X178597431Y-7089142D02*
X178787907Y-7017714D01*
X178787907Y-7017714D02*
X178883145Y-6946285D01*
X178883145Y-6946285D02*
X178930764Y-6874857D01*
X178930764Y-6874857D02*
X178978383Y-6732000D01*
X178978383Y-6732000D02*
X178978383Y-6589142D01*
X178978383Y-6589142D02*
X178930764Y-6446285D01*
X178930764Y-6446285D02*
X178883145Y-6374857D01*
X178883145Y-6374857D02*
X178787907Y-6303428D01*
X178787907Y-6303428D02*
X178549812Y-6303428D01*
X178549812Y-6303428D02*
X178406955Y-6374857D01*
X178216479Y-7946285D02*
X177454574Y-7946285D01*
X177359335Y-6303428D02*
X176787907Y-6303428D01*
X177073621Y-7803428D02*
X177073621Y-6303428D01*
X176454573Y-7803428D02*
X176454573Y-6303428D01*
X176454573Y-6303428D02*
X176121240Y-7374857D01*
X176121240Y-7374857D02*
X175787907Y-6303428D01*
X175787907Y-6303428D02*
X175787907Y-7803428D01*
X175311716Y-7803428D02*
X175311716Y-6303428D01*
X175311716Y-6303428D02*
X174930764Y-6303428D01*
X174930764Y-6303428D02*
X174835526Y-6374857D01*
X174835526Y-6374857D02*
X174787907Y-6446285D01*
X174787907Y-6446285D02*
X174740288Y-6589142D01*
X174740288Y-6589142D02*
X174740288Y-6803428D01*
X174740288Y-6803428D02*
X174787907Y-6946285D01*
X174787907Y-6946285D02*
X174835526Y-7017714D01*
X174835526Y-7017714D02*
X174930764Y-7089142D01*
X174930764Y-7089142D02*
X175311716Y-7089142D01*
X173549811Y-7232000D02*
X172787907Y-7232000D01*
X173168859Y-7803428D02*
X173168859Y-6660571D01*
X171835526Y-6303428D02*
X172311716Y-6303428D01*
X172311716Y-6303428D02*
X172359335Y-7017714D01*
X172359335Y-7017714D02*
X172311716Y-6946285D01*
X172311716Y-6946285D02*
X172216478Y-6874857D01*
X172216478Y-6874857D02*
X171978383Y-6874857D01*
X171978383Y-6874857D02*
X171883145Y-6946285D01*
X171883145Y-6946285D02*
X171835526Y-7017714D01*
X171835526Y-7017714D02*
X171787907Y-7160571D01*
X171787907Y-7160571D02*
X171787907Y-7517714D01*
X171787907Y-7517714D02*
X171835526Y-7660571D01*
X171835526Y-7660571D02*
X171883145Y-7732000D01*
X171883145Y-7732000D02*
X171978383Y-7803428D01*
X171978383Y-7803428D02*
X172216478Y-7803428D01*
X172216478Y-7803428D02*
X172311716Y-7732000D01*
X172311716Y-7732000D02*
X172359335Y-7660571D01*
X171502192Y-6303428D02*
X171168859Y-7803428D01*
X171168859Y-7803428D02*
X170835526Y-6303428D01*
D11*
X42071190Y-40953365D02*
X42131666Y-41013842D01*
X42131666Y-41013842D02*
X42313095Y-41074318D01*
X42313095Y-41074318D02*
X42434047Y-41074318D01*
X42434047Y-41074318D02*
X42615476Y-41013842D01*
X42615476Y-41013842D02*
X42736428Y-40892889D01*
X42736428Y-40892889D02*
X42796905Y-40771937D01*
X42796905Y-40771937D02*
X42857381Y-40530032D01*
X42857381Y-40530032D02*
X42857381Y-40348603D01*
X42857381Y-40348603D02*
X42796905Y-40106699D01*
X42796905Y-40106699D02*
X42736428Y-39985746D01*
X42736428Y-39985746D02*
X42615476Y-39864794D01*
X42615476Y-39864794D02*
X42434047Y-39804318D01*
X42434047Y-39804318D02*
X42313095Y-39804318D01*
X42313095Y-39804318D02*
X42131666Y-39864794D01*
X42131666Y-39864794D02*
X42071190Y-39925270D01*
X40861666Y-41074318D02*
X41587381Y-41074318D01*
X41224524Y-41074318D02*
X41224524Y-39804318D01*
X41224524Y-39804318D02*
X41345476Y-39985746D01*
X41345476Y-39985746D02*
X41466428Y-40106699D01*
X41466428Y-40106699D02*
X41587381Y-40167175D01*
X39773095Y-40227651D02*
X39773095Y-41074318D01*
X40075476Y-39743842D02*
X40377857Y-40650984D01*
X40377857Y-40650984D02*
X39591666Y-40650984D01*
X38865952Y-39804318D02*
X38744999Y-39804318D01*
X38744999Y-39804318D02*
X38624047Y-39864794D01*
X38624047Y-39864794D02*
X38563571Y-39925270D01*
X38563571Y-39925270D02*
X38503095Y-40046222D01*
X38503095Y-40046222D02*
X38442618Y-40288127D01*
X38442618Y-40288127D02*
X38442618Y-40590508D01*
X38442618Y-40590508D02*
X38503095Y-40832413D01*
X38503095Y-40832413D02*
X38563571Y-40953365D01*
X38563571Y-40953365D02*
X38624047Y-41013842D01*
X38624047Y-41013842D02*
X38744999Y-41074318D01*
X38744999Y-41074318D02*
X38865952Y-41074318D01*
X38865952Y-41074318D02*
X38986904Y-41013842D01*
X38986904Y-41013842D02*
X39047380Y-40953365D01*
X39047380Y-40953365D02*
X39107857Y-40832413D01*
X39107857Y-40832413D02*
X39168333Y-40590508D01*
X39168333Y-40590508D02*
X39168333Y-40288127D01*
X39168333Y-40288127D02*
X39107857Y-40046222D01*
X39107857Y-40046222D02*
X39047380Y-39925270D01*
X39047380Y-39925270D02*
X38986904Y-39864794D01*
X38986904Y-39864794D02*
X38865952Y-39804318D01*
D12*
X161084047Y-21374580D02*
X161131666Y-21422200D01*
X161131666Y-21422200D02*
X161274523Y-21469819D01*
X161274523Y-21469819D02*
X161369761Y-21469819D01*
X161369761Y-21469819D02*
X161512618Y-21422200D01*
X161512618Y-21422200D02*
X161607856Y-21326961D01*
X161607856Y-21326961D02*
X161655475Y-21231723D01*
X161655475Y-21231723D02*
X161703094Y-21041247D01*
X161703094Y-21041247D02*
X161703094Y-20898390D01*
X161703094Y-20898390D02*
X161655475Y-20707914D01*
X161655475Y-20707914D02*
X161607856Y-20612676D01*
X161607856Y-20612676D02*
X161512618Y-20517438D01*
X161512618Y-20517438D02*
X161369761Y-20469819D01*
X161369761Y-20469819D02*
X161274523Y-20469819D01*
X161274523Y-20469819D02*
X161131666Y-20517438D01*
X161131666Y-20517438D02*
X161084047Y-20565057D01*
X160131666Y-21469819D02*
X160703094Y-21469819D01*
X160417380Y-21469819D02*
X160417380Y-20469819D01*
X160417380Y-20469819D02*
X160512618Y-20612676D01*
X160512618Y-20612676D02*
X160607856Y-20707914D01*
X160607856Y-20707914D02*
X160703094Y-20755533D01*
X159179285Y-21469819D02*
X159750713Y-21469819D01*
X159464999Y-21469819D02*
X159464999Y-20469819D01*
X159464999Y-20469819D02*
X159560237Y-20612676D01*
X159560237Y-20612676D02*
X159655475Y-20707914D01*
X159655475Y-20707914D02*
X159750713Y-20755533D01*
X158703094Y-21469819D02*
X158512618Y-21469819D01*
X158512618Y-21469819D02*
X158417380Y-21422200D01*
X158417380Y-21422200D02*
X158369761Y-21374580D01*
X158369761Y-21374580D02*
X158274523Y-21231723D01*
X158274523Y-21231723D02*
X158226904Y-21041247D01*
X158226904Y-21041247D02*
X158226904Y-20660295D01*
X158226904Y-20660295D02*
X158274523Y-20565057D01*
X158274523Y-20565057D02*
X158322142Y-20517438D01*
X158322142Y-20517438D02*
X158417380Y-20469819D01*
X158417380Y-20469819D02*
X158607856Y-20469819D01*
X158607856Y-20469819D02*
X158703094Y-20517438D01*
X158703094Y-20517438D02*
X158750713Y-20565057D01*
X158750713Y-20565057D02*
X158798332Y-20660295D01*
X158798332Y-20660295D02*
X158798332Y-20898390D01*
X158798332Y-20898390D02*
X158750713Y-20993628D01*
X158750713Y-20993628D02*
X158703094Y-21041247D01*
X158703094Y-21041247D02*
X158607856Y-21088866D01*
X158607856Y-21088866D02*
X158417380Y-21088866D01*
X158417380Y-21088866D02*
X158322142Y-21041247D01*
X158322142Y-21041247D02*
X158274523Y-20993628D01*
X158274523Y-20993628D02*
X158226904Y-20898390D01*
D11*
X134804318Y-12667142D02*
X134804318Y-13513809D01*
X134804318Y-13513809D02*
X136074318Y-12667142D01*
X136074318Y-12667142D02*
X136074318Y-13513809D01*
X136074318Y-14662857D02*
X136074318Y-13937142D01*
X136074318Y-14299999D02*
X134804318Y-14299999D01*
X134804318Y-14299999D02*
X134985746Y-14179047D01*
X134985746Y-14179047D02*
X135106699Y-14058095D01*
X135106699Y-14058095D02*
X135167175Y-13937142D01*
X135227651Y-15751428D02*
X136074318Y-15751428D01*
X134743842Y-15449047D02*
X135650984Y-15146666D01*
X135650984Y-15146666D02*
X135650984Y-15932857D01*
X179803332Y-5804318D02*
X179803332Y-6711461D01*
X179803332Y-6711461D02*
X179863809Y-6892889D01*
X179863809Y-6892889D02*
X179984761Y-7013842D01*
X179984761Y-7013842D02*
X180166190Y-7074318D01*
X180166190Y-7074318D02*
X180287142Y-7074318D01*
X178654285Y-6227651D02*
X178654285Y-7074318D01*
X178956666Y-5743842D02*
X179259047Y-6650984D01*
X179259047Y-6650984D02*
X178472856Y-6650984D01*
D12*
X97369047Y-28159580D02*
X97416666Y-28207200D01*
X97416666Y-28207200D02*
X97559523Y-28254819D01*
X97559523Y-28254819D02*
X97654761Y-28254819D01*
X97654761Y-28254819D02*
X97797618Y-28207200D01*
X97797618Y-28207200D02*
X97892856Y-28111961D01*
X97892856Y-28111961D02*
X97940475Y-28016723D01*
X97940475Y-28016723D02*
X97988094Y-27826247D01*
X97988094Y-27826247D02*
X97988094Y-27683390D01*
X97988094Y-27683390D02*
X97940475Y-27492914D01*
X97940475Y-27492914D02*
X97892856Y-27397676D01*
X97892856Y-27397676D02*
X97797618Y-27302438D01*
X97797618Y-27302438D02*
X97654761Y-27254819D01*
X97654761Y-27254819D02*
X97559523Y-27254819D01*
X97559523Y-27254819D02*
X97416666Y-27302438D01*
X97416666Y-27302438D02*
X97369047Y-27350057D01*
X96416666Y-28254819D02*
X96988094Y-28254819D01*
X96702380Y-28254819D02*
X96702380Y-27254819D01*
X96702380Y-27254819D02*
X96797618Y-27397676D01*
X96797618Y-27397676D02*
X96892856Y-27492914D01*
X96892856Y-27492914D02*
X96988094Y-27540533D01*
X96083332Y-27254819D02*
X95464285Y-27254819D01*
X95464285Y-27254819D02*
X95797618Y-27635771D01*
X95797618Y-27635771D02*
X95654761Y-27635771D01*
X95654761Y-27635771D02*
X95559523Y-27683390D01*
X95559523Y-27683390D02*
X95511904Y-27731009D01*
X95511904Y-27731009D02*
X95464285Y-27826247D01*
X95464285Y-27826247D02*
X95464285Y-28064342D01*
X95464285Y-28064342D02*
X95511904Y-28159580D01*
X95511904Y-28159580D02*
X95559523Y-28207200D01*
X95559523Y-28207200D02*
X95654761Y-28254819D01*
X95654761Y-28254819D02*
X95940475Y-28254819D01*
X95940475Y-28254819D02*
X96035713Y-28207200D01*
X96035713Y-28207200D02*
X96083332Y-28159580D01*
X95130951Y-27254819D02*
X94511904Y-27254819D01*
X94511904Y-27254819D02*
X94845237Y-27635771D01*
X94845237Y-27635771D02*
X94702380Y-27635771D01*
X94702380Y-27635771D02*
X94607142Y-27683390D01*
X94607142Y-27683390D02*
X94559523Y-27731009D01*
X94559523Y-27731009D02*
X94511904Y-27826247D01*
X94511904Y-27826247D02*
X94511904Y-28064342D01*
X94511904Y-28064342D02*
X94559523Y-28159580D01*
X94559523Y-28159580D02*
X94607142Y-28207200D01*
X94607142Y-28207200D02*
X94702380Y-28254819D01*
X94702380Y-28254819D02*
X94988094Y-28254819D01*
X94988094Y-28254819D02*
X95083332Y-28207200D01*
X95083332Y-28207200D02*
X95130951Y-28159580D01*
X148580357Y-38609580D02*
X148627976Y-38657200D01*
X148627976Y-38657200D02*
X148770833Y-38704819D01*
X148770833Y-38704819D02*
X148866071Y-38704819D01*
X148866071Y-38704819D02*
X149008928Y-38657200D01*
X149008928Y-38657200D02*
X149104166Y-38561961D01*
X149104166Y-38561961D02*
X149151785Y-38466723D01*
X149151785Y-38466723D02*
X149199404Y-38276247D01*
X149199404Y-38276247D02*
X149199404Y-38133390D01*
X149199404Y-38133390D02*
X149151785Y-37942914D01*
X149151785Y-37942914D02*
X149104166Y-37847676D01*
X149104166Y-37847676D02*
X149008928Y-37752438D01*
X149008928Y-37752438D02*
X148866071Y-37704819D01*
X148866071Y-37704819D02*
X148770833Y-37704819D01*
X148770833Y-37704819D02*
X148627976Y-37752438D01*
X148627976Y-37752438D02*
X148580357Y-37800057D01*
X147627976Y-38704819D02*
X148199404Y-38704819D01*
X147913690Y-38704819D02*
X147913690Y-37704819D01*
X147913690Y-37704819D02*
X148008928Y-37847676D01*
X148008928Y-37847676D02*
X148104166Y-37942914D01*
X148104166Y-37942914D02*
X148199404Y-37990533D01*
X146770833Y-37704819D02*
X146961309Y-37704819D01*
X146961309Y-37704819D02*
X147056547Y-37752438D01*
X147056547Y-37752438D02*
X147104166Y-37800057D01*
X147104166Y-37800057D02*
X147199404Y-37942914D01*
X147199404Y-37942914D02*
X147247023Y-38133390D01*
X147247023Y-38133390D02*
X147247023Y-38514342D01*
X147247023Y-38514342D02*
X147199404Y-38609580D01*
X147199404Y-38609580D02*
X147151785Y-38657200D01*
X147151785Y-38657200D02*
X147056547Y-38704819D01*
X147056547Y-38704819D02*
X146866071Y-38704819D01*
X146866071Y-38704819D02*
X146770833Y-38657200D01*
X146770833Y-38657200D02*
X146723214Y-38609580D01*
X146723214Y-38609580D02*
X146675595Y-38514342D01*
X146675595Y-38514342D02*
X146675595Y-38276247D01*
X146675595Y-38276247D02*
X146723214Y-38181009D01*
X146723214Y-38181009D02*
X146770833Y-38133390D01*
X146770833Y-38133390D02*
X146866071Y-38085771D01*
X146866071Y-38085771D02*
X147056547Y-38085771D01*
X147056547Y-38085771D02*
X147151785Y-38133390D01*
X147151785Y-38133390D02*
X147199404Y-38181009D01*
X147199404Y-38181009D02*
X147247023Y-38276247D01*
X89734819Y-29607142D02*
X89258628Y-29273809D01*
X89734819Y-29035714D02*
X88734819Y-29035714D01*
X88734819Y-29035714D02*
X88734819Y-29416666D01*
X88734819Y-29416666D02*
X88782438Y-29511904D01*
X88782438Y-29511904D02*
X88830057Y-29559523D01*
X88830057Y-29559523D02*
X88925295Y-29607142D01*
X88925295Y-29607142D02*
X89068152Y-29607142D01*
X89068152Y-29607142D02*
X89163390Y-29559523D01*
X89163390Y-29559523D02*
X89211009Y-29511904D01*
X89211009Y-29511904D02*
X89258628Y-29416666D01*
X89258628Y-29416666D02*
X89258628Y-29035714D01*
X89734819Y-30559523D02*
X89734819Y-29988095D01*
X89734819Y-30273809D02*
X88734819Y-30273809D01*
X88734819Y-30273809D02*
X88877676Y-30178571D01*
X88877676Y-30178571D02*
X88972914Y-30083333D01*
X88972914Y-30083333D02*
X89020533Y-29988095D01*
X88830057Y-30940476D02*
X88782438Y-30988095D01*
X88782438Y-30988095D02*
X88734819Y-31083333D01*
X88734819Y-31083333D02*
X88734819Y-31321428D01*
X88734819Y-31321428D02*
X88782438Y-31416666D01*
X88782438Y-31416666D02*
X88830057Y-31464285D01*
X88830057Y-31464285D02*
X88925295Y-31511904D01*
X88925295Y-31511904D02*
X89020533Y-31511904D01*
X89020533Y-31511904D02*
X89163390Y-31464285D01*
X89163390Y-31464285D02*
X89734819Y-30892857D01*
X89734819Y-30892857D02*
X89734819Y-31511904D01*
X164642857Y-25859580D02*
X164690476Y-25907200D01*
X164690476Y-25907200D02*
X164833333Y-25954819D01*
X164833333Y-25954819D02*
X164928571Y-25954819D01*
X164928571Y-25954819D02*
X165071428Y-25907200D01*
X165071428Y-25907200D02*
X165166666Y-25811961D01*
X165166666Y-25811961D02*
X165214285Y-25716723D01*
X165214285Y-25716723D02*
X165261904Y-25526247D01*
X165261904Y-25526247D02*
X165261904Y-25383390D01*
X165261904Y-25383390D02*
X165214285Y-25192914D01*
X165214285Y-25192914D02*
X165166666Y-25097676D01*
X165166666Y-25097676D02*
X165071428Y-25002438D01*
X165071428Y-25002438D02*
X164928571Y-24954819D01*
X164928571Y-24954819D02*
X164833333Y-24954819D01*
X164833333Y-24954819D02*
X164690476Y-25002438D01*
X164690476Y-25002438D02*
X164642857Y-25050057D01*
X164261904Y-25050057D02*
X164214285Y-25002438D01*
X164214285Y-25002438D02*
X164119047Y-24954819D01*
X164119047Y-24954819D02*
X163880952Y-24954819D01*
X163880952Y-24954819D02*
X163785714Y-25002438D01*
X163785714Y-25002438D02*
X163738095Y-25050057D01*
X163738095Y-25050057D02*
X163690476Y-25145295D01*
X163690476Y-25145295D02*
X163690476Y-25240533D01*
X163690476Y-25240533D02*
X163738095Y-25383390D01*
X163738095Y-25383390D02*
X164309523Y-25954819D01*
X164309523Y-25954819D02*
X163690476Y-25954819D01*
X163071428Y-24954819D02*
X162976190Y-24954819D01*
X162976190Y-24954819D02*
X162880952Y-25002438D01*
X162880952Y-25002438D02*
X162833333Y-25050057D01*
X162833333Y-25050057D02*
X162785714Y-25145295D01*
X162785714Y-25145295D02*
X162738095Y-25335771D01*
X162738095Y-25335771D02*
X162738095Y-25573866D01*
X162738095Y-25573866D02*
X162785714Y-25764342D01*
X162785714Y-25764342D02*
X162833333Y-25859580D01*
X162833333Y-25859580D02*
X162880952Y-25907200D01*
X162880952Y-25907200D02*
X162976190Y-25954819D01*
X162976190Y-25954819D02*
X163071428Y-25954819D01*
X163071428Y-25954819D02*
X163166666Y-25907200D01*
X163166666Y-25907200D02*
X163214285Y-25859580D01*
X163214285Y-25859580D02*
X163261904Y-25764342D01*
X163261904Y-25764342D02*
X163309523Y-25573866D01*
X163309523Y-25573866D02*
X163309523Y-25335771D01*
X163309523Y-25335771D02*
X163261904Y-25145295D01*
X163261904Y-25145295D02*
X163214285Y-25050057D01*
X163214285Y-25050057D02*
X163166666Y-25002438D01*
X163166666Y-25002438D02*
X163071428Y-24954819D01*
D11*
X87889645Y-3578809D02*
X87950122Y-3518333D01*
X87950122Y-3518333D02*
X88010598Y-3336904D01*
X88010598Y-3336904D02*
X88010598Y-3215952D01*
X88010598Y-3215952D02*
X87950122Y-3034523D01*
X87950122Y-3034523D02*
X87829169Y-2913571D01*
X87829169Y-2913571D02*
X87708217Y-2853094D01*
X87708217Y-2853094D02*
X87466312Y-2792618D01*
X87466312Y-2792618D02*
X87284883Y-2792618D01*
X87284883Y-2792618D02*
X87042979Y-2853094D01*
X87042979Y-2853094D02*
X86922026Y-2913571D01*
X86922026Y-2913571D02*
X86801074Y-3034523D01*
X86801074Y-3034523D02*
X86740598Y-3215952D01*
X86740598Y-3215952D02*
X86740598Y-3336904D01*
X86740598Y-3336904D02*
X86801074Y-3518333D01*
X86801074Y-3518333D02*
X86861550Y-3578809D01*
X88010598Y-4788333D02*
X88010598Y-4062618D01*
X88010598Y-4425475D02*
X86740598Y-4425475D01*
X86740598Y-4425475D02*
X86922026Y-4304523D01*
X86922026Y-4304523D02*
X87042979Y-4183571D01*
X87042979Y-4183571D02*
X87103455Y-4062618D01*
X86740598Y-5937380D02*
X86740598Y-5332618D01*
X86740598Y-5332618D02*
X87345360Y-5272142D01*
X87345360Y-5272142D02*
X87284883Y-5332618D01*
X87284883Y-5332618D02*
X87224407Y-5453571D01*
X87224407Y-5453571D02*
X87224407Y-5755952D01*
X87224407Y-5755952D02*
X87284883Y-5876904D01*
X87284883Y-5876904D02*
X87345360Y-5937380D01*
X87345360Y-5937380D02*
X87466312Y-5997857D01*
X87466312Y-5997857D02*
X87768693Y-5997857D01*
X87768693Y-5997857D02*
X87889645Y-5937380D01*
X87889645Y-5937380D02*
X87950122Y-5876904D01*
X87950122Y-5876904D02*
X88010598Y-5755952D01*
X88010598Y-5755952D02*
X88010598Y-5453571D01*
X88010598Y-5453571D02*
X87950122Y-5332618D01*
X87950122Y-5332618D02*
X87889645Y-5272142D01*
X88010598Y-7207381D02*
X88010598Y-6481666D01*
X88010598Y-6844523D02*
X86740598Y-6844523D01*
X86740598Y-6844523D02*
X86922026Y-6723571D01*
X86922026Y-6723571D02*
X87042979Y-6602619D01*
X87042979Y-6602619D02*
X87103455Y-6481666D01*
X162097857Y-15519318D02*
X161251190Y-15519318D01*
X161251190Y-15519318D02*
X162097857Y-16789318D01*
X162097857Y-16789318D02*
X161251190Y-16789318D01*
X160102142Y-16789318D02*
X160827857Y-16789318D01*
X160465000Y-16789318D02*
X160465000Y-15519318D01*
X160465000Y-15519318D02*
X160585952Y-15700746D01*
X160585952Y-15700746D02*
X160706904Y-15821699D01*
X160706904Y-15821699D02*
X160827857Y-15882175D01*
X159618333Y-15640270D02*
X159557857Y-15579794D01*
X159557857Y-15579794D02*
X159436904Y-15519318D01*
X159436904Y-15519318D02*
X159134523Y-15519318D01*
X159134523Y-15519318D02*
X159013571Y-15579794D01*
X159013571Y-15579794D02*
X158953095Y-15640270D01*
X158953095Y-15640270D02*
X158892618Y-15761222D01*
X158892618Y-15761222D02*
X158892618Y-15882175D01*
X158892618Y-15882175D02*
X158953095Y-16063603D01*
X158953095Y-16063603D02*
X159678809Y-16789318D01*
X159678809Y-16789318D02*
X158892618Y-16789318D01*
X30953365Y-5078809D02*
X31013842Y-5018333D01*
X31013842Y-5018333D02*
X31074318Y-4836904D01*
X31074318Y-4836904D02*
X31074318Y-4715952D01*
X31074318Y-4715952D02*
X31013842Y-4534523D01*
X31013842Y-4534523D02*
X30892889Y-4413571D01*
X30892889Y-4413571D02*
X30771937Y-4353094D01*
X30771937Y-4353094D02*
X30530032Y-4292618D01*
X30530032Y-4292618D02*
X30348603Y-4292618D01*
X30348603Y-4292618D02*
X30106699Y-4353094D01*
X30106699Y-4353094D02*
X29985746Y-4413571D01*
X29985746Y-4413571D02*
X29864794Y-4534523D01*
X29864794Y-4534523D02*
X29804318Y-4715952D01*
X29804318Y-4715952D02*
X29804318Y-4836904D01*
X29804318Y-4836904D02*
X29864794Y-5018333D01*
X29864794Y-5018333D02*
X29925270Y-5078809D01*
X31074318Y-6288333D02*
X31074318Y-5562618D01*
X31074318Y-5925475D02*
X29804318Y-5925475D01*
X29804318Y-5925475D02*
X29985746Y-5804523D01*
X29985746Y-5804523D02*
X30106699Y-5683571D01*
X30106699Y-5683571D02*
X30167175Y-5562618D01*
X29804318Y-7437380D02*
X29804318Y-6832618D01*
X29804318Y-6832618D02*
X30409080Y-6772142D01*
X30409080Y-6772142D02*
X30348603Y-6832618D01*
X30348603Y-6832618D02*
X30288127Y-6953571D01*
X30288127Y-6953571D02*
X30288127Y-7255952D01*
X30288127Y-7255952D02*
X30348603Y-7376904D01*
X30348603Y-7376904D02*
X30409080Y-7437380D01*
X30409080Y-7437380D02*
X30530032Y-7497857D01*
X30530032Y-7497857D02*
X30832413Y-7497857D01*
X30832413Y-7497857D02*
X30953365Y-7437380D01*
X30953365Y-7437380D02*
X31013842Y-7376904D01*
X31013842Y-7376904D02*
X31074318Y-7255952D01*
X31074318Y-7255952D02*
X31074318Y-6953571D01*
X31074318Y-6953571D02*
X31013842Y-6832618D01*
X31013842Y-6832618D02*
X30953365Y-6772142D01*
X29804318Y-7921190D02*
X29804318Y-8707381D01*
X29804318Y-8707381D02*
X30288127Y-8284047D01*
X30288127Y-8284047D02*
X30288127Y-8465476D01*
X30288127Y-8465476D02*
X30348603Y-8586428D01*
X30348603Y-8586428D02*
X30409080Y-8646904D01*
X30409080Y-8646904D02*
X30530032Y-8707381D01*
X30530032Y-8707381D02*
X30832413Y-8707381D01*
X30832413Y-8707381D02*
X30953365Y-8646904D01*
X30953365Y-8646904D02*
X31013842Y-8586428D01*
X31013842Y-8586428D02*
X31074318Y-8465476D01*
X31074318Y-8465476D02*
X31074318Y-8102619D01*
X31074318Y-8102619D02*
X31013842Y-7981666D01*
X31013842Y-7981666D02*
X30953365Y-7921190D01*
D12*
X130344047Y-21465819D02*
X130677380Y-20989628D01*
X130915475Y-21465819D02*
X130915475Y-20465819D01*
X130915475Y-20465819D02*
X130534523Y-20465819D01*
X130534523Y-20465819D02*
X130439285Y-20513438D01*
X130439285Y-20513438D02*
X130391666Y-20561057D01*
X130391666Y-20561057D02*
X130344047Y-20656295D01*
X130344047Y-20656295D02*
X130344047Y-20799152D01*
X130344047Y-20799152D02*
X130391666Y-20894390D01*
X130391666Y-20894390D02*
X130439285Y-20942009D01*
X130439285Y-20942009D02*
X130534523Y-20989628D01*
X130534523Y-20989628D02*
X130915475Y-20989628D01*
X129391666Y-21465819D02*
X129963094Y-21465819D01*
X129677380Y-21465819D02*
X129677380Y-20465819D01*
X129677380Y-20465819D02*
X129772618Y-20608676D01*
X129772618Y-20608676D02*
X129867856Y-20703914D01*
X129867856Y-20703914D02*
X129963094Y-20751533D01*
X128439285Y-21465819D02*
X129010713Y-21465819D01*
X128724999Y-21465819D02*
X128724999Y-20465819D01*
X128724999Y-20465819D02*
X128820237Y-20608676D01*
X128820237Y-20608676D02*
X128915475Y-20703914D01*
X128915475Y-20703914D02*
X129010713Y-20751533D01*
X127534523Y-20465819D02*
X128010713Y-20465819D01*
X128010713Y-20465819D02*
X128058332Y-20942009D01*
X128058332Y-20942009D02*
X128010713Y-20894390D01*
X128010713Y-20894390D02*
X127915475Y-20846771D01*
X127915475Y-20846771D02*
X127677380Y-20846771D01*
X127677380Y-20846771D02*
X127582142Y-20894390D01*
X127582142Y-20894390D02*
X127534523Y-20942009D01*
X127534523Y-20942009D02*
X127486904Y-21037247D01*
X127486904Y-21037247D02*
X127486904Y-21275342D01*
X127486904Y-21275342D02*
X127534523Y-21370580D01*
X127534523Y-21370580D02*
X127582142Y-21418200D01*
X127582142Y-21418200D02*
X127677380Y-21465819D01*
X127677380Y-21465819D02*
X127915475Y-21465819D01*
X127915475Y-21465819D02*
X128010713Y-21418200D01*
X128010713Y-21418200D02*
X128058332Y-21370580D01*
X21642857Y-29859580D02*
X21690476Y-29907200D01*
X21690476Y-29907200D02*
X21833333Y-29954819D01*
X21833333Y-29954819D02*
X21928571Y-29954819D01*
X21928571Y-29954819D02*
X22071428Y-29907200D01*
X22071428Y-29907200D02*
X22166666Y-29811961D01*
X22166666Y-29811961D02*
X22214285Y-29716723D01*
X22214285Y-29716723D02*
X22261904Y-29526247D01*
X22261904Y-29526247D02*
X22261904Y-29383390D01*
X22261904Y-29383390D02*
X22214285Y-29192914D01*
X22214285Y-29192914D02*
X22166666Y-29097676D01*
X22166666Y-29097676D02*
X22071428Y-29002438D01*
X22071428Y-29002438D02*
X21928571Y-28954819D01*
X21928571Y-28954819D02*
X21833333Y-28954819D01*
X21833333Y-28954819D02*
X21690476Y-29002438D01*
X21690476Y-29002438D02*
X21642857Y-29050057D01*
X20738095Y-28954819D02*
X21214285Y-28954819D01*
X21214285Y-28954819D02*
X21261904Y-29431009D01*
X21261904Y-29431009D02*
X21214285Y-29383390D01*
X21214285Y-29383390D02*
X21119047Y-29335771D01*
X21119047Y-29335771D02*
X20880952Y-29335771D01*
X20880952Y-29335771D02*
X20785714Y-29383390D01*
X20785714Y-29383390D02*
X20738095Y-29431009D01*
X20738095Y-29431009D02*
X20690476Y-29526247D01*
X20690476Y-29526247D02*
X20690476Y-29764342D01*
X20690476Y-29764342D02*
X20738095Y-29859580D01*
X20738095Y-29859580D02*
X20785714Y-29907200D01*
X20785714Y-29907200D02*
X20880952Y-29954819D01*
X20880952Y-29954819D02*
X21119047Y-29954819D01*
X21119047Y-29954819D02*
X21214285Y-29907200D01*
X21214285Y-29907200D02*
X21261904Y-29859580D01*
X20071428Y-28954819D02*
X19976190Y-28954819D01*
X19976190Y-28954819D02*
X19880952Y-29002438D01*
X19880952Y-29002438D02*
X19833333Y-29050057D01*
X19833333Y-29050057D02*
X19785714Y-29145295D01*
X19785714Y-29145295D02*
X19738095Y-29335771D01*
X19738095Y-29335771D02*
X19738095Y-29573866D01*
X19738095Y-29573866D02*
X19785714Y-29764342D01*
X19785714Y-29764342D02*
X19833333Y-29859580D01*
X19833333Y-29859580D02*
X19880952Y-29907200D01*
X19880952Y-29907200D02*
X19976190Y-29954819D01*
X19976190Y-29954819D02*
X20071428Y-29954819D01*
X20071428Y-29954819D02*
X20166666Y-29907200D01*
X20166666Y-29907200D02*
X20214285Y-29859580D01*
X20214285Y-29859580D02*
X20261904Y-29764342D01*
X20261904Y-29764342D02*
X20309523Y-29573866D01*
X20309523Y-29573866D02*
X20309523Y-29335771D01*
X20309523Y-29335771D02*
X20261904Y-29145295D01*
X20261904Y-29145295D02*
X20214285Y-29050057D01*
X20214285Y-29050057D02*
X20166666Y-29002438D01*
X20166666Y-29002438D02*
X20071428Y-28954819D01*
D11*
X10487381Y-33574318D02*
X10487381Y-32304318D01*
X10487381Y-32304318D02*
X10185000Y-32304318D01*
X10185000Y-32304318D02*
X10003571Y-32364794D01*
X10003571Y-32364794D02*
X9882619Y-32485746D01*
X9882619Y-32485746D02*
X9822142Y-32606699D01*
X9822142Y-32606699D02*
X9761666Y-32848603D01*
X9761666Y-32848603D02*
X9761666Y-33030032D01*
X9761666Y-33030032D02*
X9822142Y-33271937D01*
X9822142Y-33271937D02*
X9882619Y-33392889D01*
X9882619Y-33392889D02*
X10003571Y-33513842D01*
X10003571Y-33513842D02*
X10185000Y-33574318D01*
X10185000Y-33574318D02*
X10487381Y-33574318D01*
X8673095Y-32727651D02*
X8673095Y-33574318D01*
X8975476Y-32243842D02*
X9277857Y-33150984D01*
X9277857Y-33150984D02*
X8491666Y-33150984D01*
D12*
X21859580Y-30794642D02*
X21907200Y-30747023D01*
X21907200Y-30747023D02*
X21954819Y-30604166D01*
X21954819Y-30604166D02*
X21954819Y-30508928D01*
X21954819Y-30508928D02*
X21907200Y-30366071D01*
X21907200Y-30366071D02*
X21811961Y-30270833D01*
X21811961Y-30270833D02*
X21716723Y-30223214D01*
X21716723Y-30223214D02*
X21526247Y-30175595D01*
X21526247Y-30175595D02*
X21383390Y-30175595D01*
X21383390Y-30175595D02*
X21192914Y-30223214D01*
X21192914Y-30223214D02*
X21097676Y-30270833D01*
X21097676Y-30270833D02*
X21002438Y-30366071D01*
X21002438Y-30366071D02*
X20954819Y-30508928D01*
X20954819Y-30508928D02*
X20954819Y-30604166D01*
X20954819Y-30604166D02*
X21002438Y-30747023D01*
X21002438Y-30747023D02*
X21050057Y-30794642D01*
X21288152Y-31651785D02*
X21954819Y-31651785D01*
X20907200Y-31413690D02*
X21621485Y-31175595D01*
X21621485Y-31175595D02*
X21621485Y-31794642D01*
X21954819Y-32223214D02*
X21954819Y-32413690D01*
X21954819Y-32413690D02*
X21907200Y-32508928D01*
X21907200Y-32508928D02*
X21859580Y-32556547D01*
X21859580Y-32556547D02*
X21716723Y-32651785D01*
X21716723Y-32651785D02*
X21526247Y-32699404D01*
X21526247Y-32699404D02*
X21145295Y-32699404D01*
X21145295Y-32699404D02*
X21050057Y-32651785D01*
X21050057Y-32651785D02*
X21002438Y-32604166D01*
X21002438Y-32604166D02*
X20954819Y-32508928D01*
X20954819Y-32508928D02*
X20954819Y-32318452D01*
X20954819Y-32318452D02*
X21002438Y-32223214D01*
X21002438Y-32223214D02*
X21050057Y-32175595D01*
X21050057Y-32175595D02*
X21145295Y-32127976D01*
X21145295Y-32127976D02*
X21383390Y-32127976D01*
X21383390Y-32127976D02*
X21478628Y-32175595D01*
X21478628Y-32175595D02*
X21526247Y-32223214D01*
X21526247Y-32223214D02*
X21573866Y-32318452D01*
X21573866Y-32318452D02*
X21573866Y-32508928D01*
X21573866Y-32508928D02*
X21526247Y-32604166D01*
X21526247Y-32604166D02*
X21478628Y-32651785D01*
X21478628Y-32651785D02*
X21383390Y-32699404D01*
X133142857Y-37359580D02*
X133190476Y-37407200D01*
X133190476Y-37407200D02*
X133333333Y-37454819D01*
X133333333Y-37454819D02*
X133428571Y-37454819D01*
X133428571Y-37454819D02*
X133571428Y-37407200D01*
X133571428Y-37407200D02*
X133666666Y-37311961D01*
X133666666Y-37311961D02*
X133714285Y-37216723D01*
X133714285Y-37216723D02*
X133761904Y-37026247D01*
X133761904Y-37026247D02*
X133761904Y-36883390D01*
X133761904Y-36883390D02*
X133714285Y-36692914D01*
X133714285Y-36692914D02*
X133666666Y-36597676D01*
X133666666Y-36597676D02*
X133571428Y-36502438D01*
X133571428Y-36502438D02*
X133428571Y-36454819D01*
X133428571Y-36454819D02*
X133333333Y-36454819D01*
X133333333Y-36454819D02*
X133190476Y-36502438D01*
X133190476Y-36502438D02*
X133142857Y-36550057D01*
X132190476Y-37454819D02*
X132761904Y-37454819D01*
X132476190Y-37454819D02*
X132476190Y-36454819D01*
X132476190Y-36454819D02*
X132571428Y-36597676D01*
X132571428Y-36597676D02*
X132666666Y-36692914D01*
X132666666Y-36692914D02*
X132761904Y-36740533D01*
X131333333Y-36788152D02*
X131333333Y-37454819D01*
X131571428Y-36407200D02*
X131809523Y-37121485D01*
X131809523Y-37121485D02*
X131190476Y-37121485D01*
X132234819Y-7880952D02*
X131758628Y-7547619D01*
X132234819Y-7309524D02*
X131234819Y-7309524D01*
X131234819Y-7309524D02*
X131234819Y-7690476D01*
X131234819Y-7690476D02*
X131282438Y-7785714D01*
X131282438Y-7785714D02*
X131330057Y-7833333D01*
X131330057Y-7833333D02*
X131425295Y-7880952D01*
X131425295Y-7880952D02*
X131568152Y-7880952D01*
X131568152Y-7880952D02*
X131663390Y-7833333D01*
X131663390Y-7833333D02*
X131711009Y-7785714D01*
X131711009Y-7785714D02*
X131758628Y-7690476D01*
X131758628Y-7690476D02*
X131758628Y-7309524D01*
X132234819Y-8833333D02*
X132234819Y-8261905D01*
X132234819Y-8547619D02*
X131234819Y-8547619D01*
X131234819Y-8547619D02*
X131377676Y-8452381D01*
X131377676Y-8452381D02*
X131472914Y-8357143D01*
X131472914Y-8357143D02*
X131520533Y-8261905D01*
X131330057Y-9214286D02*
X131282438Y-9261905D01*
X131282438Y-9261905D02*
X131234819Y-9357143D01*
X131234819Y-9357143D02*
X131234819Y-9595238D01*
X131234819Y-9595238D02*
X131282438Y-9690476D01*
X131282438Y-9690476D02*
X131330057Y-9738095D01*
X131330057Y-9738095D02*
X131425295Y-9785714D01*
X131425295Y-9785714D02*
X131520533Y-9785714D01*
X131520533Y-9785714D02*
X131663390Y-9738095D01*
X131663390Y-9738095D02*
X132234819Y-9166667D01*
X132234819Y-9166667D02*
X132234819Y-9785714D01*
X131234819Y-10404762D02*
X131234819Y-10500000D01*
X131234819Y-10500000D02*
X131282438Y-10595238D01*
X131282438Y-10595238D02*
X131330057Y-10642857D01*
X131330057Y-10642857D02*
X131425295Y-10690476D01*
X131425295Y-10690476D02*
X131615771Y-10738095D01*
X131615771Y-10738095D02*
X131853866Y-10738095D01*
X131853866Y-10738095D02*
X132044342Y-10690476D01*
X132044342Y-10690476D02*
X132139580Y-10642857D01*
X132139580Y-10642857D02*
X132187200Y-10595238D01*
X132187200Y-10595238D02*
X132234819Y-10500000D01*
X132234819Y-10500000D02*
X132234819Y-10404762D01*
X132234819Y-10404762D02*
X132187200Y-10309524D01*
X132187200Y-10309524D02*
X132139580Y-10261905D01*
X132139580Y-10261905D02*
X132044342Y-10214286D01*
X132044342Y-10214286D02*
X131853866Y-10166667D01*
X131853866Y-10166667D02*
X131615771Y-10166667D01*
X131615771Y-10166667D02*
X131425295Y-10214286D01*
X131425295Y-10214286D02*
X131330057Y-10261905D01*
X131330057Y-10261905D02*
X131282438Y-10309524D01*
X131282438Y-10309524D02*
X131234819Y-10404762D01*
X97369047Y-32659580D02*
X97416666Y-32707200D01*
X97416666Y-32707200D02*
X97559523Y-32754819D01*
X97559523Y-32754819D02*
X97654761Y-32754819D01*
X97654761Y-32754819D02*
X97797618Y-32707200D01*
X97797618Y-32707200D02*
X97892856Y-32611961D01*
X97892856Y-32611961D02*
X97940475Y-32516723D01*
X97940475Y-32516723D02*
X97988094Y-32326247D01*
X97988094Y-32326247D02*
X97988094Y-32183390D01*
X97988094Y-32183390D02*
X97940475Y-31992914D01*
X97940475Y-31992914D02*
X97892856Y-31897676D01*
X97892856Y-31897676D02*
X97797618Y-31802438D01*
X97797618Y-31802438D02*
X97654761Y-31754819D01*
X97654761Y-31754819D02*
X97559523Y-31754819D01*
X97559523Y-31754819D02*
X97416666Y-31802438D01*
X97416666Y-31802438D02*
X97369047Y-31850057D01*
X96416666Y-32754819D02*
X96988094Y-32754819D01*
X96702380Y-32754819D02*
X96702380Y-31754819D01*
X96702380Y-31754819D02*
X96797618Y-31897676D01*
X96797618Y-31897676D02*
X96892856Y-31992914D01*
X96892856Y-31992914D02*
X96988094Y-32040533D01*
X96083332Y-31754819D02*
X95464285Y-31754819D01*
X95464285Y-31754819D02*
X95797618Y-32135771D01*
X95797618Y-32135771D02*
X95654761Y-32135771D01*
X95654761Y-32135771D02*
X95559523Y-32183390D01*
X95559523Y-32183390D02*
X95511904Y-32231009D01*
X95511904Y-32231009D02*
X95464285Y-32326247D01*
X95464285Y-32326247D02*
X95464285Y-32564342D01*
X95464285Y-32564342D02*
X95511904Y-32659580D01*
X95511904Y-32659580D02*
X95559523Y-32707200D01*
X95559523Y-32707200D02*
X95654761Y-32754819D01*
X95654761Y-32754819D02*
X95940475Y-32754819D01*
X95940475Y-32754819D02*
X96035713Y-32707200D01*
X96035713Y-32707200D02*
X96083332Y-32659580D01*
X95083332Y-31850057D02*
X95035713Y-31802438D01*
X95035713Y-31802438D02*
X94940475Y-31754819D01*
X94940475Y-31754819D02*
X94702380Y-31754819D01*
X94702380Y-31754819D02*
X94607142Y-31802438D01*
X94607142Y-31802438D02*
X94559523Y-31850057D01*
X94559523Y-31850057D02*
X94511904Y-31945295D01*
X94511904Y-31945295D02*
X94511904Y-32040533D01*
X94511904Y-32040533D02*
X94559523Y-32183390D01*
X94559523Y-32183390D02*
X95130951Y-32754819D01*
X95130951Y-32754819D02*
X94511904Y-32754819D01*
X38642857Y-2859580D02*
X38690476Y-2907200D01*
X38690476Y-2907200D02*
X38833333Y-2954819D01*
X38833333Y-2954819D02*
X38928571Y-2954819D01*
X38928571Y-2954819D02*
X39071428Y-2907200D01*
X39071428Y-2907200D02*
X39166666Y-2811961D01*
X39166666Y-2811961D02*
X39214285Y-2716723D01*
X39214285Y-2716723D02*
X39261904Y-2526247D01*
X39261904Y-2526247D02*
X39261904Y-2383390D01*
X39261904Y-2383390D02*
X39214285Y-2192914D01*
X39214285Y-2192914D02*
X39166666Y-2097676D01*
X39166666Y-2097676D02*
X39071428Y-2002438D01*
X39071428Y-2002438D02*
X38928571Y-1954819D01*
X38928571Y-1954819D02*
X38833333Y-1954819D01*
X38833333Y-1954819D02*
X38690476Y-2002438D01*
X38690476Y-2002438D02*
X38642857Y-2050057D01*
X37738095Y-1954819D02*
X38214285Y-1954819D01*
X38214285Y-1954819D02*
X38261904Y-2431009D01*
X38261904Y-2431009D02*
X38214285Y-2383390D01*
X38214285Y-2383390D02*
X38119047Y-2335771D01*
X38119047Y-2335771D02*
X37880952Y-2335771D01*
X37880952Y-2335771D02*
X37785714Y-2383390D01*
X37785714Y-2383390D02*
X37738095Y-2431009D01*
X37738095Y-2431009D02*
X37690476Y-2526247D01*
X37690476Y-2526247D02*
X37690476Y-2764342D01*
X37690476Y-2764342D02*
X37738095Y-2859580D01*
X37738095Y-2859580D02*
X37785714Y-2907200D01*
X37785714Y-2907200D02*
X37880952Y-2954819D01*
X37880952Y-2954819D02*
X38119047Y-2954819D01*
X38119047Y-2954819D02*
X38214285Y-2907200D01*
X38214285Y-2907200D02*
X38261904Y-2859580D01*
X37309523Y-2050057D02*
X37261904Y-2002438D01*
X37261904Y-2002438D02*
X37166666Y-1954819D01*
X37166666Y-1954819D02*
X36928571Y-1954819D01*
X36928571Y-1954819D02*
X36833333Y-2002438D01*
X36833333Y-2002438D02*
X36785714Y-2050057D01*
X36785714Y-2050057D02*
X36738095Y-2145295D01*
X36738095Y-2145295D02*
X36738095Y-2240533D01*
X36738095Y-2240533D02*
X36785714Y-2383390D01*
X36785714Y-2383390D02*
X37357142Y-2954819D01*
X37357142Y-2954819D02*
X36738095Y-2954819D01*
X129080357Y-43159580D02*
X129127976Y-43207200D01*
X129127976Y-43207200D02*
X129270833Y-43254819D01*
X129270833Y-43254819D02*
X129366071Y-43254819D01*
X129366071Y-43254819D02*
X129508928Y-43207200D01*
X129508928Y-43207200D02*
X129604166Y-43111961D01*
X129604166Y-43111961D02*
X129651785Y-43016723D01*
X129651785Y-43016723D02*
X129699404Y-42826247D01*
X129699404Y-42826247D02*
X129699404Y-42683390D01*
X129699404Y-42683390D02*
X129651785Y-42492914D01*
X129651785Y-42492914D02*
X129604166Y-42397676D01*
X129604166Y-42397676D02*
X129508928Y-42302438D01*
X129508928Y-42302438D02*
X129366071Y-42254819D01*
X129366071Y-42254819D02*
X129270833Y-42254819D01*
X129270833Y-42254819D02*
X129127976Y-42302438D01*
X129127976Y-42302438D02*
X129080357Y-42350057D01*
X128127976Y-43254819D02*
X128699404Y-43254819D01*
X128413690Y-43254819D02*
X128413690Y-42254819D01*
X128413690Y-42254819D02*
X128508928Y-42397676D01*
X128508928Y-42397676D02*
X128604166Y-42492914D01*
X128604166Y-42492914D02*
X128699404Y-42540533D01*
X127794642Y-42254819D02*
X127175595Y-42254819D01*
X127175595Y-42254819D02*
X127508928Y-42635771D01*
X127508928Y-42635771D02*
X127366071Y-42635771D01*
X127366071Y-42635771D02*
X127270833Y-42683390D01*
X127270833Y-42683390D02*
X127223214Y-42731009D01*
X127223214Y-42731009D02*
X127175595Y-42826247D01*
X127175595Y-42826247D02*
X127175595Y-43064342D01*
X127175595Y-43064342D02*
X127223214Y-43159580D01*
X127223214Y-43159580D02*
X127270833Y-43207200D01*
X127270833Y-43207200D02*
X127366071Y-43254819D01*
X127366071Y-43254819D02*
X127651785Y-43254819D01*
X127651785Y-43254819D02*
X127747023Y-43207200D01*
X127747023Y-43207200D02*
X127794642Y-43159580D01*
X38642857Y-7359580D02*
X38690476Y-7407200D01*
X38690476Y-7407200D02*
X38833333Y-7454819D01*
X38833333Y-7454819D02*
X38928571Y-7454819D01*
X38928571Y-7454819D02*
X39071428Y-7407200D01*
X39071428Y-7407200D02*
X39166666Y-7311961D01*
X39166666Y-7311961D02*
X39214285Y-7216723D01*
X39214285Y-7216723D02*
X39261904Y-7026247D01*
X39261904Y-7026247D02*
X39261904Y-6883390D01*
X39261904Y-6883390D02*
X39214285Y-6692914D01*
X39214285Y-6692914D02*
X39166666Y-6597676D01*
X39166666Y-6597676D02*
X39071428Y-6502438D01*
X39071428Y-6502438D02*
X38928571Y-6454819D01*
X38928571Y-6454819D02*
X38833333Y-6454819D01*
X38833333Y-6454819D02*
X38690476Y-6502438D01*
X38690476Y-6502438D02*
X38642857Y-6550057D01*
X37738095Y-6454819D02*
X38214285Y-6454819D01*
X38214285Y-6454819D02*
X38261904Y-6931009D01*
X38261904Y-6931009D02*
X38214285Y-6883390D01*
X38214285Y-6883390D02*
X38119047Y-6835771D01*
X38119047Y-6835771D02*
X37880952Y-6835771D01*
X37880952Y-6835771D02*
X37785714Y-6883390D01*
X37785714Y-6883390D02*
X37738095Y-6931009D01*
X37738095Y-6931009D02*
X37690476Y-7026247D01*
X37690476Y-7026247D02*
X37690476Y-7264342D01*
X37690476Y-7264342D02*
X37738095Y-7359580D01*
X37738095Y-7359580D02*
X37785714Y-7407200D01*
X37785714Y-7407200D02*
X37880952Y-7454819D01*
X37880952Y-7454819D02*
X38119047Y-7454819D01*
X38119047Y-7454819D02*
X38214285Y-7407200D01*
X38214285Y-7407200D02*
X38261904Y-7359580D01*
X36738095Y-7454819D02*
X37309523Y-7454819D01*
X37023809Y-7454819D02*
X37023809Y-6454819D01*
X37023809Y-6454819D02*
X37119047Y-6597676D01*
X37119047Y-6597676D02*
X37214285Y-6692914D01*
X37214285Y-6692914D02*
X37309523Y-6740533D01*
D11*
X126304318Y-12567142D02*
X126304318Y-13413809D01*
X126304318Y-13413809D02*
X127574318Y-12567142D01*
X127574318Y-12567142D02*
X127574318Y-13413809D01*
X127574318Y-14562857D02*
X127574318Y-13837142D01*
X127574318Y-14199999D02*
X126304318Y-14199999D01*
X126304318Y-14199999D02*
X126485746Y-14079047D01*
X126485746Y-14079047D02*
X126606699Y-13958095D01*
X126606699Y-13958095D02*
X126667175Y-13837142D01*
X126304318Y-15711904D02*
X126304318Y-15107142D01*
X126304318Y-15107142D02*
X126909080Y-15046666D01*
X126909080Y-15046666D02*
X126848603Y-15107142D01*
X126848603Y-15107142D02*
X126788127Y-15228095D01*
X126788127Y-15228095D02*
X126788127Y-15530476D01*
X126788127Y-15530476D02*
X126848603Y-15651428D01*
X126848603Y-15651428D02*
X126909080Y-15711904D01*
X126909080Y-15711904D02*
X127030032Y-15772381D01*
X127030032Y-15772381D02*
X127332413Y-15772381D01*
X127332413Y-15772381D02*
X127453365Y-15711904D01*
X127453365Y-15711904D02*
X127513842Y-15651428D01*
X127513842Y-15651428D02*
X127574318Y-15530476D01*
X127574318Y-15530476D02*
X127574318Y-15228095D01*
X127574318Y-15228095D02*
X127513842Y-15107142D01*
X127513842Y-15107142D02*
X127453365Y-15046666D01*
X5909080Y-31576667D02*
X5909080Y-31153333D01*
X6574318Y-31153333D02*
X5304318Y-31153333D01*
X5304318Y-31153333D02*
X5304318Y-31758095D01*
X6574318Y-32907143D02*
X6574318Y-32181428D01*
X6574318Y-32544285D02*
X5304318Y-32544285D01*
X5304318Y-32544285D02*
X5485746Y-32423333D01*
X5485746Y-32423333D02*
X5606699Y-32302381D01*
X5606699Y-32302381D02*
X5667175Y-32181428D01*
D12*
X127734819Y-7880952D02*
X127258628Y-7547619D01*
X127734819Y-7309524D02*
X126734819Y-7309524D01*
X126734819Y-7309524D02*
X126734819Y-7690476D01*
X126734819Y-7690476D02*
X126782438Y-7785714D01*
X126782438Y-7785714D02*
X126830057Y-7833333D01*
X126830057Y-7833333D02*
X126925295Y-7880952D01*
X126925295Y-7880952D02*
X127068152Y-7880952D01*
X127068152Y-7880952D02*
X127163390Y-7833333D01*
X127163390Y-7833333D02*
X127211009Y-7785714D01*
X127211009Y-7785714D02*
X127258628Y-7690476D01*
X127258628Y-7690476D02*
X127258628Y-7309524D01*
X127734819Y-8833333D02*
X127734819Y-8261905D01*
X127734819Y-8547619D02*
X126734819Y-8547619D01*
X126734819Y-8547619D02*
X126877676Y-8452381D01*
X126877676Y-8452381D02*
X126972914Y-8357143D01*
X126972914Y-8357143D02*
X127020533Y-8261905D01*
X127734819Y-9785714D02*
X127734819Y-9214286D01*
X127734819Y-9500000D02*
X126734819Y-9500000D01*
X126734819Y-9500000D02*
X126877676Y-9404762D01*
X126877676Y-9404762D02*
X126972914Y-9309524D01*
X126972914Y-9309524D02*
X127020533Y-9214286D01*
X126734819Y-10642857D02*
X126734819Y-10452381D01*
X126734819Y-10452381D02*
X126782438Y-10357143D01*
X126782438Y-10357143D02*
X126830057Y-10309524D01*
X126830057Y-10309524D02*
X126972914Y-10214286D01*
X126972914Y-10214286D02*
X127163390Y-10166667D01*
X127163390Y-10166667D02*
X127544342Y-10166667D01*
X127544342Y-10166667D02*
X127639580Y-10214286D01*
X127639580Y-10214286D02*
X127687200Y-10261905D01*
X127687200Y-10261905D02*
X127734819Y-10357143D01*
X127734819Y-10357143D02*
X127734819Y-10547619D01*
X127734819Y-10547619D02*
X127687200Y-10642857D01*
X127687200Y-10642857D02*
X127639580Y-10690476D01*
X127639580Y-10690476D02*
X127544342Y-10738095D01*
X127544342Y-10738095D02*
X127306247Y-10738095D01*
X127306247Y-10738095D02*
X127211009Y-10690476D01*
X127211009Y-10690476D02*
X127163390Y-10642857D01*
X127163390Y-10642857D02*
X127115771Y-10547619D01*
X127115771Y-10547619D02*
X127115771Y-10357143D01*
X127115771Y-10357143D02*
X127163390Y-10261905D01*
X127163390Y-10261905D02*
X127211009Y-10214286D01*
X127211009Y-10214286D02*
X127306247Y-10166667D01*
X143142857Y-27359580D02*
X143190476Y-27407200D01*
X143190476Y-27407200D02*
X143333333Y-27454819D01*
X143333333Y-27454819D02*
X143428571Y-27454819D01*
X143428571Y-27454819D02*
X143571428Y-27407200D01*
X143571428Y-27407200D02*
X143666666Y-27311961D01*
X143666666Y-27311961D02*
X143714285Y-27216723D01*
X143714285Y-27216723D02*
X143761904Y-27026247D01*
X143761904Y-27026247D02*
X143761904Y-26883390D01*
X143761904Y-26883390D02*
X143714285Y-26692914D01*
X143714285Y-26692914D02*
X143666666Y-26597676D01*
X143666666Y-26597676D02*
X143571428Y-26502438D01*
X143571428Y-26502438D02*
X143428571Y-26454819D01*
X143428571Y-26454819D02*
X143333333Y-26454819D01*
X143333333Y-26454819D02*
X143190476Y-26502438D01*
X143190476Y-26502438D02*
X143142857Y-26550057D01*
X142190476Y-27454819D02*
X142761904Y-27454819D01*
X142476190Y-27454819D02*
X142476190Y-26454819D01*
X142476190Y-26454819D02*
X142571428Y-26597676D01*
X142571428Y-26597676D02*
X142666666Y-26692914D01*
X142666666Y-26692914D02*
X142761904Y-26740533D01*
X141619047Y-26883390D02*
X141714285Y-26835771D01*
X141714285Y-26835771D02*
X141761904Y-26788152D01*
X141761904Y-26788152D02*
X141809523Y-26692914D01*
X141809523Y-26692914D02*
X141809523Y-26645295D01*
X141809523Y-26645295D02*
X141761904Y-26550057D01*
X141761904Y-26550057D02*
X141714285Y-26502438D01*
X141714285Y-26502438D02*
X141619047Y-26454819D01*
X141619047Y-26454819D02*
X141428571Y-26454819D01*
X141428571Y-26454819D02*
X141333333Y-26502438D01*
X141333333Y-26502438D02*
X141285714Y-26550057D01*
X141285714Y-26550057D02*
X141238095Y-26645295D01*
X141238095Y-26645295D02*
X141238095Y-26692914D01*
X141238095Y-26692914D02*
X141285714Y-26788152D01*
X141285714Y-26788152D02*
X141333333Y-26835771D01*
X141333333Y-26835771D02*
X141428571Y-26883390D01*
X141428571Y-26883390D02*
X141619047Y-26883390D01*
X141619047Y-26883390D02*
X141714285Y-26931009D01*
X141714285Y-26931009D02*
X141761904Y-26978628D01*
X141761904Y-26978628D02*
X141809523Y-27073866D01*
X141809523Y-27073866D02*
X141809523Y-27264342D01*
X141809523Y-27264342D02*
X141761904Y-27359580D01*
X141761904Y-27359580D02*
X141714285Y-27407200D01*
X141714285Y-27407200D02*
X141619047Y-27454819D01*
X141619047Y-27454819D02*
X141428571Y-27454819D01*
X141428571Y-27454819D02*
X141333333Y-27407200D01*
X141333333Y-27407200D02*
X141285714Y-27359580D01*
X141285714Y-27359580D02*
X141238095Y-27264342D01*
X141238095Y-27264342D02*
X141238095Y-27073866D01*
X141238095Y-27073866D02*
X141285714Y-26978628D01*
X141285714Y-26978628D02*
X141333333Y-26931009D01*
X141333333Y-26931009D02*
X141428571Y-26883390D01*
D11*
X111289645Y-3578809D02*
X111350122Y-3518333D01*
X111350122Y-3518333D02*
X111410598Y-3336904D01*
X111410598Y-3336904D02*
X111410598Y-3215952D01*
X111410598Y-3215952D02*
X111350122Y-3034523D01*
X111350122Y-3034523D02*
X111229169Y-2913571D01*
X111229169Y-2913571D02*
X111108217Y-2853094D01*
X111108217Y-2853094D02*
X110866312Y-2792618D01*
X110866312Y-2792618D02*
X110684883Y-2792618D01*
X110684883Y-2792618D02*
X110442979Y-2853094D01*
X110442979Y-2853094D02*
X110322026Y-2913571D01*
X110322026Y-2913571D02*
X110201074Y-3034523D01*
X110201074Y-3034523D02*
X110140598Y-3215952D01*
X110140598Y-3215952D02*
X110140598Y-3336904D01*
X110140598Y-3336904D02*
X110201074Y-3518333D01*
X110201074Y-3518333D02*
X110261550Y-3578809D01*
X111410598Y-4788333D02*
X111410598Y-4062618D01*
X111410598Y-4425475D02*
X110140598Y-4425475D01*
X110140598Y-4425475D02*
X110322026Y-4304523D01*
X110322026Y-4304523D02*
X110442979Y-4183571D01*
X110442979Y-4183571D02*
X110503455Y-4062618D01*
X110563931Y-5876904D02*
X111410598Y-5876904D01*
X110080122Y-5574523D02*
X110987264Y-5272142D01*
X110987264Y-5272142D02*
X110987264Y-6058333D01*
X110684883Y-6723571D02*
X110624407Y-6602619D01*
X110624407Y-6602619D02*
X110563931Y-6542142D01*
X110563931Y-6542142D02*
X110442979Y-6481666D01*
X110442979Y-6481666D02*
X110382502Y-6481666D01*
X110382502Y-6481666D02*
X110261550Y-6542142D01*
X110261550Y-6542142D02*
X110201074Y-6602619D01*
X110201074Y-6602619D02*
X110140598Y-6723571D01*
X110140598Y-6723571D02*
X110140598Y-6965476D01*
X110140598Y-6965476D02*
X110201074Y-7086428D01*
X110201074Y-7086428D02*
X110261550Y-7146904D01*
X110261550Y-7146904D02*
X110382502Y-7207381D01*
X110382502Y-7207381D02*
X110442979Y-7207381D01*
X110442979Y-7207381D02*
X110563931Y-7146904D01*
X110563931Y-7146904D02*
X110624407Y-7086428D01*
X110624407Y-7086428D02*
X110684883Y-6965476D01*
X110684883Y-6965476D02*
X110684883Y-6723571D01*
X110684883Y-6723571D02*
X110745360Y-6602619D01*
X110745360Y-6602619D02*
X110805836Y-6542142D01*
X110805836Y-6542142D02*
X110926788Y-6481666D01*
X110926788Y-6481666D02*
X111168693Y-6481666D01*
X111168693Y-6481666D02*
X111289645Y-6542142D01*
X111289645Y-6542142D02*
X111350122Y-6602619D01*
X111350122Y-6602619D02*
X111410598Y-6723571D01*
X111410598Y-6723571D02*
X111410598Y-6965476D01*
X111410598Y-6965476D02*
X111350122Y-7086428D01*
X111350122Y-7086428D02*
X111289645Y-7146904D01*
X111289645Y-7146904D02*
X111168693Y-7207381D01*
X111168693Y-7207381D02*
X110926788Y-7207381D01*
X110926788Y-7207381D02*
X110805836Y-7146904D01*
X110805836Y-7146904D02*
X110745360Y-7086428D01*
X110745360Y-7086428D02*
X110684883Y-6965476D01*
X30953365Y-15578809D02*
X31013842Y-15518333D01*
X31013842Y-15518333D02*
X31074318Y-15336904D01*
X31074318Y-15336904D02*
X31074318Y-15215952D01*
X31074318Y-15215952D02*
X31013842Y-15034523D01*
X31013842Y-15034523D02*
X30892889Y-14913571D01*
X30892889Y-14913571D02*
X30771937Y-14853094D01*
X30771937Y-14853094D02*
X30530032Y-14792618D01*
X30530032Y-14792618D02*
X30348603Y-14792618D01*
X30348603Y-14792618D02*
X30106699Y-14853094D01*
X30106699Y-14853094D02*
X29985746Y-14913571D01*
X29985746Y-14913571D02*
X29864794Y-15034523D01*
X29864794Y-15034523D02*
X29804318Y-15215952D01*
X29804318Y-15215952D02*
X29804318Y-15336904D01*
X29804318Y-15336904D02*
X29864794Y-15518333D01*
X29864794Y-15518333D02*
X29925270Y-15578809D01*
X31074318Y-16788333D02*
X31074318Y-16062618D01*
X31074318Y-16425475D02*
X29804318Y-16425475D01*
X29804318Y-16425475D02*
X29985746Y-16304523D01*
X29985746Y-16304523D02*
X30106699Y-16183571D01*
X30106699Y-16183571D02*
X30167175Y-16062618D01*
X30227651Y-17876904D02*
X31074318Y-17876904D01*
X29743842Y-17574523D02*
X30650984Y-17272142D01*
X30650984Y-17272142D02*
X30650984Y-18058333D01*
X29804318Y-19086428D02*
X29804318Y-18844523D01*
X29804318Y-18844523D02*
X29864794Y-18723571D01*
X29864794Y-18723571D02*
X29925270Y-18663095D01*
X29925270Y-18663095D02*
X30106699Y-18542142D01*
X30106699Y-18542142D02*
X30348603Y-18481666D01*
X30348603Y-18481666D02*
X30832413Y-18481666D01*
X30832413Y-18481666D02*
X30953365Y-18542142D01*
X30953365Y-18542142D02*
X31013842Y-18602619D01*
X31013842Y-18602619D02*
X31074318Y-18723571D01*
X31074318Y-18723571D02*
X31074318Y-18965476D01*
X31074318Y-18965476D02*
X31013842Y-19086428D01*
X31013842Y-19086428D02*
X30953365Y-19146904D01*
X30953365Y-19146904D02*
X30832413Y-19207381D01*
X30832413Y-19207381D02*
X30530032Y-19207381D01*
X30530032Y-19207381D02*
X30409080Y-19146904D01*
X30409080Y-19146904D02*
X30348603Y-19086428D01*
X30348603Y-19086428D02*
X30288127Y-18965476D01*
X30288127Y-18965476D02*
X30288127Y-18723571D01*
X30288127Y-18723571D02*
X30348603Y-18602619D01*
X30348603Y-18602619D02*
X30409080Y-18542142D01*
X30409080Y-18542142D02*
X30530032Y-18481666D01*
X45621190Y-15453365D02*
X45681666Y-15513842D01*
X45681666Y-15513842D02*
X45863095Y-15574318D01*
X45863095Y-15574318D02*
X45984047Y-15574318D01*
X45984047Y-15574318D02*
X46165476Y-15513842D01*
X46165476Y-15513842D02*
X46286428Y-15392889D01*
X46286428Y-15392889D02*
X46346905Y-15271937D01*
X46346905Y-15271937D02*
X46407381Y-15030032D01*
X46407381Y-15030032D02*
X46407381Y-14848603D01*
X46407381Y-14848603D02*
X46346905Y-14606699D01*
X46346905Y-14606699D02*
X46286428Y-14485746D01*
X46286428Y-14485746D02*
X46165476Y-14364794D01*
X46165476Y-14364794D02*
X45984047Y-14304318D01*
X45984047Y-14304318D02*
X45863095Y-14304318D01*
X45863095Y-14304318D02*
X45681666Y-14364794D01*
X45681666Y-14364794D02*
X45621190Y-14425270D01*
X44411666Y-15574318D02*
X45137381Y-15574318D01*
X44774524Y-15574318D02*
X44774524Y-14304318D01*
X44774524Y-14304318D02*
X44895476Y-14485746D01*
X44895476Y-14485746D02*
X45016428Y-14606699D01*
X45016428Y-14606699D02*
X45137381Y-14667175D01*
X43262619Y-14304318D02*
X43867381Y-14304318D01*
X43867381Y-14304318D02*
X43927857Y-14909080D01*
X43927857Y-14909080D02*
X43867381Y-14848603D01*
X43867381Y-14848603D02*
X43746428Y-14788127D01*
X43746428Y-14788127D02*
X43444047Y-14788127D01*
X43444047Y-14788127D02*
X43323095Y-14848603D01*
X43323095Y-14848603D02*
X43262619Y-14909080D01*
X43262619Y-14909080D02*
X43202142Y-15030032D01*
X43202142Y-15030032D02*
X43202142Y-15332413D01*
X43202142Y-15332413D02*
X43262619Y-15453365D01*
X43262619Y-15453365D02*
X43323095Y-15513842D01*
X43323095Y-15513842D02*
X43444047Y-15574318D01*
X43444047Y-15574318D02*
X43746428Y-15574318D01*
X43746428Y-15574318D02*
X43867381Y-15513842D01*
X43867381Y-15513842D02*
X43927857Y-15453365D01*
X42718333Y-14425270D02*
X42657857Y-14364794D01*
X42657857Y-14364794D02*
X42536904Y-14304318D01*
X42536904Y-14304318D02*
X42234523Y-14304318D01*
X42234523Y-14304318D02*
X42113571Y-14364794D01*
X42113571Y-14364794D02*
X42053095Y-14425270D01*
X42053095Y-14425270D02*
X41992618Y-14546222D01*
X41992618Y-14546222D02*
X41992618Y-14667175D01*
X41992618Y-14667175D02*
X42053095Y-14848603D01*
X42053095Y-14848603D02*
X42778809Y-15574318D01*
X42778809Y-15574318D02*
X41992618Y-15574318D01*
X21421190Y-47453365D02*
X21481666Y-47513842D01*
X21481666Y-47513842D02*
X21663095Y-47574318D01*
X21663095Y-47574318D02*
X21784047Y-47574318D01*
X21784047Y-47574318D02*
X21965476Y-47513842D01*
X21965476Y-47513842D02*
X22086428Y-47392889D01*
X22086428Y-47392889D02*
X22146905Y-47271937D01*
X22146905Y-47271937D02*
X22207381Y-47030032D01*
X22207381Y-47030032D02*
X22207381Y-46848603D01*
X22207381Y-46848603D02*
X22146905Y-46606699D01*
X22146905Y-46606699D02*
X22086428Y-46485746D01*
X22086428Y-46485746D02*
X21965476Y-46364794D01*
X21965476Y-46364794D02*
X21784047Y-46304318D01*
X21784047Y-46304318D02*
X21663095Y-46304318D01*
X21663095Y-46304318D02*
X21481666Y-46364794D01*
X21481666Y-46364794D02*
X21421190Y-46425270D01*
X20211666Y-47574318D02*
X20937381Y-47574318D01*
X20574524Y-47574318D02*
X20574524Y-46304318D01*
X20574524Y-46304318D02*
X20695476Y-46485746D01*
X20695476Y-46485746D02*
X20816428Y-46606699D01*
X20816428Y-46606699D02*
X20937381Y-46667175D01*
X19123095Y-46727651D02*
X19123095Y-47574318D01*
X19425476Y-46243842D02*
X19727857Y-47150984D01*
X19727857Y-47150984D02*
X18941666Y-47150984D01*
X18518333Y-46425270D02*
X18457857Y-46364794D01*
X18457857Y-46364794D02*
X18336904Y-46304318D01*
X18336904Y-46304318D02*
X18034523Y-46304318D01*
X18034523Y-46304318D02*
X17913571Y-46364794D01*
X17913571Y-46364794D02*
X17853095Y-46425270D01*
X17853095Y-46425270D02*
X17792618Y-46546222D01*
X17792618Y-46546222D02*
X17792618Y-46667175D01*
X17792618Y-46667175D02*
X17853095Y-46848603D01*
X17853095Y-46848603D02*
X18578809Y-47574318D01*
X18578809Y-47574318D02*
X17792618Y-47574318D01*
D12*
X141234819Y-7880952D02*
X140758628Y-7547619D01*
X141234819Y-7309524D02*
X140234819Y-7309524D01*
X140234819Y-7309524D02*
X140234819Y-7690476D01*
X140234819Y-7690476D02*
X140282438Y-7785714D01*
X140282438Y-7785714D02*
X140330057Y-7833333D01*
X140330057Y-7833333D02*
X140425295Y-7880952D01*
X140425295Y-7880952D02*
X140568152Y-7880952D01*
X140568152Y-7880952D02*
X140663390Y-7833333D01*
X140663390Y-7833333D02*
X140711009Y-7785714D01*
X140711009Y-7785714D02*
X140758628Y-7690476D01*
X140758628Y-7690476D02*
X140758628Y-7309524D01*
X141234819Y-8833333D02*
X141234819Y-8261905D01*
X141234819Y-8547619D02*
X140234819Y-8547619D01*
X140234819Y-8547619D02*
X140377676Y-8452381D01*
X140377676Y-8452381D02*
X140472914Y-8357143D01*
X140472914Y-8357143D02*
X140520533Y-8261905D01*
X141234819Y-9785714D02*
X141234819Y-9214286D01*
X141234819Y-9500000D02*
X140234819Y-9500000D01*
X140234819Y-9500000D02*
X140377676Y-9404762D01*
X140377676Y-9404762D02*
X140472914Y-9309524D01*
X140472914Y-9309524D02*
X140520533Y-9214286D01*
X140663390Y-10357143D02*
X140615771Y-10261905D01*
X140615771Y-10261905D02*
X140568152Y-10214286D01*
X140568152Y-10214286D02*
X140472914Y-10166667D01*
X140472914Y-10166667D02*
X140425295Y-10166667D01*
X140425295Y-10166667D02*
X140330057Y-10214286D01*
X140330057Y-10214286D02*
X140282438Y-10261905D01*
X140282438Y-10261905D02*
X140234819Y-10357143D01*
X140234819Y-10357143D02*
X140234819Y-10547619D01*
X140234819Y-10547619D02*
X140282438Y-10642857D01*
X140282438Y-10642857D02*
X140330057Y-10690476D01*
X140330057Y-10690476D02*
X140425295Y-10738095D01*
X140425295Y-10738095D02*
X140472914Y-10738095D01*
X140472914Y-10738095D02*
X140568152Y-10690476D01*
X140568152Y-10690476D02*
X140615771Y-10642857D01*
X140615771Y-10642857D02*
X140663390Y-10547619D01*
X140663390Y-10547619D02*
X140663390Y-10357143D01*
X140663390Y-10357143D02*
X140711009Y-10261905D01*
X140711009Y-10261905D02*
X140758628Y-10214286D01*
X140758628Y-10214286D02*
X140853866Y-10166667D01*
X140853866Y-10166667D02*
X141044342Y-10166667D01*
X141044342Y-10166667D02*
X141139580Y-10214286D01*
X141139580Y-10214286D02*
X141187200Y-10261905D01*
X141187200Y-10261905D02*
X141234819Y-10357143D01*
X141234819Y-10357143D02*
X141234819Y-10547619D01*
X141234819Y-10547619D02*
X141187200Y-10642857D01*
X141187200Y-10642857D02*
X141139580Y-10690476D01*
X141139580Y-10690476D02*
X141044342Y-10738095D01*
X141044342Y-10738095D02*
X140853866Y-10738095D01*
X140853866Y-10738095D02*
X140758628Y-10690476D01*
X140758628Y-10690476D02*
X140711009Y-10642857D01*
X140711009Y-10642857D02*
X140663390Y-10547619D01*
X168279819Y-7721952D02*
X167803628Y-7388619D01*
X168279819Y-7150524D02*
X167279819Y-7150524D01*
X167279819Y-7150524D02*
X167279819Y-7531476D01*
X167279819Y-7531476D02*
X167327438Y-7626714D01*
X167327438Y-7626714D02*
X167375057Y-7674333D01*
X167375057Y-7674333D02*
X167470295Y-7721952D01*
X167470295Y-7721952D02*
X167613152Y-7721952D01*
X167613152Y-7721952D02*
X167708390Y-7674333D01*
X167708390Y-7674333D02*
X167756009Y-7626714D01*
X167756009Y-7626714D02*
X167803628Y-7531476D01*
X167803628Y-7531476D02*
X167803628Y-7150524D01*
X168279819Y-8674333D02*
X168279819Y-8102905D01*
X168279819Y-8388619D02*
X167279819Y-8388619D01*
X167279819Y-8388619D02*
X167422676Y-8293381D01*
X167422676Y-8293381D02*
X167517914Y-8198143D01*
X167517914Y-8198143D02*
X167565533Y-8102905D01*
X168279819Y-9626714D02*
X168279819Y-9055286D01*
X168279819Y-9341000D02*
X167279819Y-9341000D01*
X167279819Y-9341000D02*
X167422676Y-9245762D01*
X167422676Y-9245762D02*
X167517914Y-9150524D01*
X167517914Y-9150524D02*
X167565533Y-9055286D01*
X167375057Y-10007667D02*
X167327438Y-10055286D01*
X167327438Y-10055286D02*
X167279819Y-10150524D01*
X167279819Y-10150524D02*
X167279819Y-10388619D01*
X167279819Y-10388619D02*
X167327438Y-10483857D01*
X167327438Y-10483857D02*
X167375057Y-10531476D01*
X167375057Y-10531476D02*
X167470295Y-10579095D01*
X167470295Y-10579095D02*
X167565533Y-10579095D01*
X167565533Y-10579095D02*
X167708390Y-10531476D01*
X167708390Y-10531476D02*
X168279819Y-9960048D01*
X168279819Y-9960048D02*
X168279819Y-10579095D01*
X153279819Y-7721952D02*
X152803628Y-7388619D01*
X153279819Y-7150524D02*
X152279819Y-7150524D01*
X152279819Y-7150524D02*
X152279819Y-7531476D01*
X152279819Y-7531476D02*
X152327438Y-7626714D01*
X152327438Y-7626714D02*
X152375057Y-7674333D01*
X152375057Y-7674333D02*
X152470295Y-7721952D01*
X152470295Y-7721952D02*
X152613152Y-7721952D01*
X152613152Y-7721952D02*
X152708390Y-7674333D01*
X152708390Y-7674333D02*
X152756009Y-7626714D01*
X152756009Y-7626714D02*
X152803628Y-7531476D01*
X152803628Y-7531476D02*
X152803628Y-7150524D01*
X153279819Y-8674333D02*
X153279819Y-8102905D01*
X153279819Y-8388619D02*
X152279819Y-8388619D01*
X152279819Y-8388619D02*
X152422676Y-8293381D01*
X152422676Y-8293381D02*
X152517914Y-8198143D01*
X152517914Y-8198143D02*
X152565533Y-8102905D01*
X152279819Y-9293381D02*
X152279819Y-9388619D01*
X152279819Y-9388619D02*
X152327438Y-9483857D01*
X152327438Y-9483857D02*
X152375057Y-9531476D01*
X152375057Y-9531476D02*
X152470295Y-9579095D01*
X152470295Y-9579095D02*
X152660771Y-9626714D01*
X152660771Y-9626714D02*
X152898866Y-9626714D01*
X152898866Y-9626714D02*
X153089342Y-9579095D01*
X153089342Y-9579095D02*
X153184580Y-9531476D01*
X153184580Y-9531476D02*
X153232200Y-9483857D01*
X153232200Y-9483857D02*
X153279819Y-9388619D01*
X153279819Y-9388619D02*
X153279819Y-9293381D01*
X153279819Y-9293381D02*
X153232200Y-9198143D01*
X153232200Y-9198143D02*
X153184580Y-9150524D01*
X153184580Y-9150524D02*
X153089342Y-9102905D01*
X153089342Y-9102905D02*
X152898866Y-9055286D01*
X152898866Y-9055286D02*
X152660771Y-9055286D01*
X152660771Y-9055286D02*
X152470295Y-9102905D01*
X152470295Y-9102905D02*
X152375057Y-9150524D01*
X152375057Y-9150524D02*
X152327438Y-9198143D01*
X152327438Y-9198143D02*
X152279819Y-9293381D01*
X152708390Y-10198143D02*
X152660771Y-10102905D01*
X152660771Y-10102905D02*
X152613152Y-10055286D01*
X152613152Y-10055286D02*
X152517914Y-10007667D01*
X152517914Y-10007667D02*
X152470295Y-10007667D01*
X152470295Y-10007667D02*
X152375057Y-10055286D01*
X152375057Y-10055286D02*
X152327438Y-10102905D01*
X152327438Y-10102905D02*
X152279819Y-10198143D01*
X152279819Y-10198143D02*
X152279819Y-10388619D01*
X152279819Y-10388619D02*
X152327438Y-10483857D01*
X152327438Y-10483857D02*
X152375057Y-10531476D01*
X152375057Y-10531476D02*
X152470295Y-10579095D01*
X152470295Y-10579095D02*
X152517914Y-10579095D01*
X152517914Y-10579095D02*
X152613152Y-10531476D01*
X152613152Y-10531476D02*
X152660771Y-10483857D01*
X152660771Y-10483857D02*
X152708390Y-10388619D01*
X152708390Y-10388619D02*
X152708390Y-10198143D01*
X152708390Y-10198143D02*
X152756009Y-10102905D01*
X152756009Y-10102905D02*
X152803628Y-10055286D01*
X152803628Y-10055286D02*
X152898866Y-10007667D01*
X152898866Y-10007667D02*
X153089342Y-10007667D01*
X153089342Y-10007667D02*
X153184580Y-10055286D01*
X153184580Y-10055286D02*
X153232200Y-10102905D01*
X153232200Y-10102905D02*
X153279819Y-10198143D01*
X153279819Y-10198143D02*
X153279819Y-10388619D01*
X153279819Y-10388619D02*
X153232200Y-10483857D01*
X153232200Y-10483857D02*
X153184580Y-10531476D01*
X153184580Y-10531476D02*
X153089342Y-10579095D01*
X153089342Y-10579095D02*
X152898866Y-10579095D01*
X152898866Y-10579095D02*
X152803628Y-10531476D01*
X152803628Y-10531476D02*
X152756009Y-10483857D01*
X152756009Y-10483857D02*
X152708390Y-10388619D01*
X292603333Y-13604819D02*
X292603333Y-14319104D01*
X292603333Y-14319104D02*
X292650952Y-14461961D01*
X292650952Y-14461961D02*
X292746190Y-14557200D01*
X292746190Y-14557200D02*
X292889047Y-14604819D01*
X292889047Y-14604819D02*
X292984285Y-14604819D01*
X291650952Y-13604819D02*
X292127142Y-13604819D01*
X292127142Y-13604819D02*
X292174761Y-14081009D01*
X292174761Y-14081009D02*
X292127142Y-14033390D01*
X292127142Y-14033390D02*
X292031904Y-13985771D01*
X292031904Y-13985771D02*
X291793809Y-13985771D01*
X291793809Y-13985771D02*
X291698571Y-14033390D01*
X291698571Y-14033390D02*
X291650952Y-14081009D01*
X291650952Y-14081009D02*
X291603333Y-14176247D01*
X291603333Y-14176247D02*
X291603333Y-14414342D01*
X291603333Y-14414342D02*
X291650952Y-14509580D01*
X291650952Y-14509580D02*
X291698571Y-14557200D01*
X291698571Y-14557200D02*
X291793809Y-14604819D01*
X291793809Y-14604819D02*
X292031904Y-14604819D01*
X292031904Y-14604819D02*
X292127142Y-14557200D01*
X292127142Y-14557200D02*
X292174761Y-14509580D01*
D11*
X131513318Y-12642142D02*
X131513318Y-13488809D01*
X131513318Y-13488809D02*
X132783318Y-12642142D01*
X132783318Y-12642142D02*
X132783318Y-13488809D01*
X132783318Y-14637857D02*
X132783318Y-13912142D01*
X132783318Y-14274999D02*
X131513318Y-14274999D01*
X131513318Y-14274999D02*
X131694746Y-14154047D01*
X131694746Y-14154047D02*
X131815699Y-14033095D01*
X131815699Y-14033095D02*
X131876175Y-13912142D01*
X131513318Y-15726428D02*
X131513318Y-15484523D01*
X131513318Y-15484523D02*
X131573794Y-15363571D01*
X131573794Y-15363571D02*
X131634270Y-15303095D01*
X131634270Y-15303095D02*
X131815699Y-15182142D01*
X131815699Y-15182142D02*
X132057603Y-15121666D01*
X132057603Y-15121666D02*
X132541413Y-15121666D01*
X132541413Y-15121666D02*
X132662365Y-15182142D01*
X132662365Y-15182142D02*
X132722842Y-15242619D01*
X132722842Y-15242619D02*
X132783318Y-15363571D01*
X132783318Y-15363571D02*
X132783318Y-15605476D01*
X132783318Y-15605476D02*
X132722842Y-15726428D01*
X132722842Y-15726428D02*
X132662365Y-15786904D01*
X132662365Y-15786904D02*
X132541413Y-15847381D01*
X132541413Y-15847381D02*
X132239032Y-15847381D01*
X132239032Y-15847381D02*
X132118080Y-15786904D01*
X132118080Y-15786904D02*
X132057603Y-15726428D01*
X132057603Y-15726428D02*
X131997127Y-15605476D01*
X131997127Y-15605476D02*
X131997127Y-15363571D01*
X131997127Y-15363571D02*
X132057603Y-15242619D01*
X132057603Y-15242619D02*
X132118080Y-15182142D01*
X132118080Y-15182142D02*
X132239032Y-15121666D01*
D12*
X148517857Y-35859580D02*
X148565476Y-35907200D01*
X148565476Y-35907200D02*
X148708333Y-35954819D01*
X148708333Y-35954819D02*
X148803571Y-35954819D01*
X148803571Y-35954819D02*
X148946428Y-35907200D01*
X148946428Y-35907200D02*
X149041666Y-35811961D01*
X149041666Y-35811961D02*
X149089285Y-35716723D01*
X149089285Y-35716723D02*
X149136904Y-35526247D01*
X149136904Y-35526247D02*
X149136904Y-35383390D01*
X149136904Y-35383390D02*
X149089285Y-35192914D01*
X149089285Y-35192914D02*
X149041666Y-35097676D01*
X149041666Y-35097676D02*
X148946428Y-35002438D01*
X148946428Y-35002438D02*
X148803571Y-34954819D01*
X148803571Y-34954819D02*
X148708333Y-34954819D01*
X148708333Y-34954819D02*
X148565476Y-35002438D01*
X148565476Y-35002438D02*
X148517857Y-35050057D01*
X147565476Y-35954819D02*
X148136904Y-35954819D01*
X147851190Y-35954819D02*
X147851190Y-34954819D01*
X147851190Y-34954819D02*
X147946428Y-35097676D01*
X147946428Y-35097676D02*
X148041666Y-35192914D01*
X148041666Y-35192914D02*
X148136904Y-35240533D01*
X146660714Y-34954819D02*
X147136904Y-34954819D01*
X147136904Y-34954819D02*
X147184523Y-35431009D01*
X147184523Y-35431009D02*
X147136904Y-35383390D01*
X147136904Y-35383390D02*
X147041666Y-35335771D01*
X147041666Y-35335771D02*
X146803571Y-35335771D01*
X146803571Y-35335771D02*
X146708333Y-35383390D01*
X146708333Y-35383390D02*
X146660714Y-35431009D01*
X146660714Y-35431009D02*
X146613095Y-35526247D01*
X146613095Y-35526247D02*
X146613095Y-35764342D01*
X146613095Y-35764342D02*
X146660714Y-35859580D01*
X146660714Y-35859580D02*
X146708333Y-35907200D01*
X146708333Y-35907200D02*
X146803571Y-35954819D01*
X146803571Y-35954819D02*
X147041666Y-35954819D01*
X147041666Y-35954819D02*
X147136904Y-35907200D01*
X147136904Y-35907200D02*
X147184523Y-35859580D01*
D11*
X103489645Y-3578809D02*
X103550122Y-3518333D01*
X103550122Y-3518333D02*
X103610598Y-3336904D01*
X103610598Y-3336904D02*
X103610598Y-3215952D01*
X103610598Y-3215952D02*
X103550122Y-3034523D01*
X103550122Y-3034523D02*
X103429169Y-2913571D01*
X103429169Y-2913571D02*
X103308217Y-2853094D01*
X103308217Y-2853094D02*
X103066312Y-2792618D01*
X103066312Y-2792618D02*
X102884883Y-2792618D01*
X102884883Y-2792618D02*
X102642979Y-2853094D01*
X102642979Y-2853094D02*
X102522026Y-2913571D01*
X102522026Y-2913571D02*
X102401074Y-3034523D01*
X102401074Y-3034523D02*
X102340598Y-3215952D01*
X102340598Y-3215952D02*
X102340598Y-3336904D01*
X102340598Y-3336904D02*
X102401074Y-3518333D01*
X102401074Y-3518333D02*
X102461550Y-3578809D01*
X103610598Y-4788333D02*
X103610598Y-4062618D01*
X103610598Y-4425475D02*
X102340598Y-4425475D01*
X102340598Y-4425475D02*
X102522026Y-4304523D01*
X102522026Y-4304523D02*
X102642979Y-4183571D01*
X102642979Y-4183571D02*
X102703455Y-4062618D01*
X102763931Y-5876904D02*
X103610598Y-5876904D01*
X102280122Y-5574523D02*
X103187264Y-5272142D01*
X103187264Y-5272142D02*
X103187264Y-6058333D01*
X103610598Y-6602619D02*
X103610598Y-6844523D01*
X103610598Y-6844523D02*
X103550122Y-6965476D01*
X103550122Y-6965476D02*
X103489645Y-7025952D01*
X103489645Y-7025952D02*
X103308217Y-7146904D01*
X103308217Y-7146904D02*
X103066312Y-7207381D01*
X103066312Y-7207381D02*
X102582502Y-7207381D01*
X102582502Y-7207381D02*
X102461550Y-7146904D01*
X102461550Y-7146904D02*
X102401074Y-7086428D01*
X102401074Y-7086428D02*
X102340598Y-6965476D01*
X102340598Y-6965476D02*
X102340598Y-6723571D01*
X102340598Y-6723571D02*
X102401074Y-6602619D01*
X102401074Y-6602619D02*
X102461550Y-6542142D01*
X102461550Y-6542142D02*
X102582502Y-6481666D01*
X102582502Y-6481666D02*
X102884883Y-6481666D01*
X102884883Y-6481666D02*
X103005836Y-6542142D01*
X103005836Y-6542142D02*
X103066312Y-6602619D01*
X103066312Y-6602619D02*
X103126788Y-6723571D01*
X103126788Y-6723571D02*
X103126788Y-6965476D01*
X103126788Y-6965476D02*
X103066312Y-7086428D01*
X103066312Y-7086428D02*
X103005836Y-7146904D01*
X103005836Y-7146904D02*
X102884883Y-7207381D01*
D12*
X137344047Y-26025819D02*
X137677380Y-25549628D01*
X137915475Y-26025819D02*
X137915475Y-25025819D01*
X137915475Y-25025819D02*
X137534523Y-25025819D01*
X137534523Y-25025819D02*
X137439285Y-25073438D01*
X137439285Y-25073438D02*
X137391666Y-25121057D01*
X137391666Y-25121057D02*
X137344047Y-25216295D01*
X137344047Y-25216295D02*
X137344047Y-25359152D01*
X137344047Y-25359152D02*
X137391666Y-25454390D01*
X137391666Y-25454390D02*
X137439285Y-25502009D01*
X137439285Y-25502009D02*
X137534523Y-25549628D01*
X137534523Y-25549628D02*
X137915475Y-25549628D01*
X136391666Y-26025819D02*
X136963094Y-26025819D01*
X136677380Y-26025819D02*
X136677380Y-25025819D01*
X136677380Y-25025819D02*
X136772618Y-25168676D01*
X136772618Y-25168676D02*
X136867856Y-25263914D01*
X136867856Y-25263914D02*
X136963094Y-25311533D01*
X136010713Y-25121057D02*
X135963094Y-25073438D01*
X135963094Y-25073438D02*
X135867856Y-25025819D01*
X135867856Y-25025819D02*
X135629761Y-25025819D01*
X135629761Y-25025819D02*
X135534523Y-25073438D01*
X135534523Y-25073438D02*
X135486904Y-25121057D01*
X135486904Y-25121057D02*
X135439285Y-25216295D01*
X135439285Y-25216295D02*
X135439285Y-25311533D01*
X135439285Y-25311533D02*
X135486904Y-25454390D01*
X135486904Y-25454390D02*
X136058332Y-26025819D01*
X136058332Y-26025819D02*
X135439285Y-26025819D01*
X134486904Y-26025819D02*
X135058332Y-26025819D01*
X134772618Y-26025819D02*
X134772618Y-25025819D01*
X134772618Y-25025819D02*
X134867856Y-25168676D01*
X134867856Y-25168676D02*
X134963094Y-25263914D01*
X134963094Y-25263914D02*
X135058332Y-25311533D01*
X141119047Y-19359580D02*
X141166666Y-19407200D01*
X141166666Y-19407200D02*
X141309523Y-19454819D01*
X141309523Y-19454819D02*
X141404761Y-19454819D01*
X141404761Y-19454819D02*
X141547618Y-19407200D01*
X141547618Y-19407200D02*
X141642856Y-19311961D01*
X141642856Y-19311961D02*
X141690475Y-19216723D01*
X141690475Y-19216723D02*
X141738094Y-19026247D01*
X141738094Y-19026247D02*
X141738094Y-18883390D01*
X141738094Y-18883390D02*
X141690475Y-18692914D01*
X141690475Y-18692914D02*
X141642856Y-18597676D01*
X141642856Y-18597676D02*
X141547618Y-18502438D01*
X141547618Y-18502438D02*
X141404761Y-18454819D01*
X141404761Y-18454819D02*
X141309523Y-18454819D01*
X141309523Y-18454819D02*
X141166666Y-18502438D01*
X141166666Y-18502438D02*
X141119047Y-18550057D01*
X140166666Y-19454819D02*
X140738094Y-19454819D01*
X140452380Y-19454819D02*
X140452380Y-18454819D01*
X140452380Y-18454819D02*
X140547618Y-18597676D01*
X140547618Y-18597676D02*
X140642856Y-18692914D01*
X140642856Y-18692914D02*
X140738094Y-18740533D01*
X139785713Y-18550057D02*
X139738094Y-18502438D01*
X139738094Y-18502438D02*
X139642856Y-18454819D01*
X139642856Y-18454819D02*
X139404761Y-18454819D01*
X139404761Y-18454819D02*
X139309523Y-18502438D01*
X139309523Y-18502438D02*
X139261904Y-18550057D01*
X139261904Y-18550057D02*
X139214285Y-18645295D01*
X139214285Y-18645295D02*
X139214285Y-18740533D01*
X139214285Y-18740533D02*
X139261904Y-18883390D01*
X139261904Y-18883390D02*
X139833332Y-19454819D01*
X139833332Y-19454819D02*
X139214285Y-19454819D01*
X138261904Y-19454819D02*
X138833332Y-19454819D01*
X138547618Y-19454819D02*
X138547618Y-18454819D01*
X138547618Y-18454819D02*
X138642856Y-18597676D01*
X138642856Y-18597676D02*
X138738094Y-18692914D01*
X138738094Y-18692914D02*
X138833332Y-18740533D01*
D11*
X46271190Y-5953365D02*
X46331666Y-6013842D01*
X46331666Y-6013842D02*
X46513095Y-6074318D01*
X46513095Y-6074318D02*
X46634047Y-6074318D01*
X46634047Y-6074318D02*
X46815476Y-6013842D01*
X46815476Y-6013842D02*
X46936428Y-5892889D01*
X46936428Y-5892889D02*
X46996905Y-5771937D01*
X46996905Y-5771937D02*
X47057381Y-5530032D01*
X47057381Y-5530032D02*
X47057381Y-5348603D01*
X47057381Y-5348603D02*
X46996905Y-5106699D01*
X46996905Y-5106699D02*
X46936428Y-4985746D01*
X46936428Y-4985746D02*
X46815476Y-4864794D01*
X46815476Y-4864794D02*
X46634047Y-4804318D01*
X46634047Y-4804318D02*
X46513095Y-4804318D01*
X46513095Y-4804318D02*
X46331666Y-4864794D01*
X46331666Y-4864794D02*
X46271190Y-4925270D01*
X45061666Y-6074318D02*
X45787381Y-6074318D01*
X45424524Y-6074318D02*
X45424524Y-4804318D01*
X45424524Y-4804318D02*
X45545476Y-4985746D01*
X45545476Y-4985746D02*
X45666428Y-5106699D01*
X45666428Y-5106699D02*
X45787381Y-5167175D01*
X43973095Y-5227651D02*
X43973095Y-6074318D01*
X44275476Y-4743842D02*
X44577857Y-5650984D01*
X44577857Y-5650984D02*
X43791666Y-5650984D01*
X42763571Y-5227651D02*
X42763571Y-6074318D01*
X43065952Y-4743842D02*
X43368333Y-5650984D01*
X43368333Y-5650984D02*
X42582142Y-5650984D01*
D12*
X158279819Y-7721952D02*
X157803628Y-7388619D01*
X158279819Y-7150524D02*
X157279819Y-7150524D01*
X157279819Y-7150524D02*
X157279819Y-7531476D01*
X157279819Y-7531476D02*
X157327438Y-7626714D01*
X157327438Y-7626714D02*
X157375057Y-7674333D01*
X157375057Y-7674333D02*
X157470295Y-7721952D01*
X157470295Y-7721952D02*
X157613152Y-7721952D01*
X157613152Y-7721952D02*
X157708390Y-7674333D01*
X157708390Y-7674333D02*
X157756009Y-7626714D01*
X157756009Y-7626714D02*
X157803628Y-7531476D01*
X157803628Y-7531476D02*
X157803628Y-7150524D01*
X158279819Y-8674333D02*
X158279819Y-8102905D01*
X158279819Y-8388619D02*
X157279819Y-8388619D01*
X157279819Y-8388619D02*
X157422676Y-8293381D01*
X157422676Y-8293381D02*
X157517914Y-8198143D01*
X157517914Y-8198143D02*
X157565533Y-8102905D01*
X158279819Y-9626714D02*
X158279819Y-9055286D01*
X158279819Y-9341000D02*
X157279819Y-9341000D01*
X157279819Y-9341000D02*
X157422676Y-9245762D01*
X157422676Y-9245762D02*
X157517914Y-9150524D01*
X157517914Y-9150524D02*
X157565533Y-9055286D01*
X157279819Y-10245762D02*
X157279819Y-10341000D01*
X157279819Y-10341000D02*
X157327438Y-10436238D01*
X157327438Y-10436238D02*
X157375057Y-10483857D01*
X157375057Y-10483857D02*
X157470295Y-10531476D01*
X157470295Y-10531476D02*
X157660771Y-10579095D01*
X157660771Y-10579095D02*
X157898866Y-10579095D01*
X157898866Y-10579095D02*
X158089342Y-10531476D01*
X158089342Y-10531476D02*
X158184580Y-10483857D01*
X158184580Y-10483857D02*
X158232200Y-10436238D01*
X158232200Y-10436238D02*
X158279819Y-10341000D01*
X158279819Y-10341000D02*
X158279819Y-10245762D01*
X158279819Y-10245762D02*
X158232200Y-10150524D01*
X158232200Y-10150524D02*
X158184580Y-10102905D01*
X158184580Y-10102905D02*
X158089342Y-10055286D01*
X158089342Y-10055286D02*
X157898866Y-10007667D01*
X157898866Y-10007667D02*
X157660771Y-10007667D01*
X157660771Y-10007667D02*
X157470295Y-10055286D01*
X157470295Y-10055286D02*
X157375057Y-10102905D01*
X157375057Y-10102905D02*
X157327438Y-10150524D01*
X157327438Y-10150524D02*
X157279819Y-10245762D01*
X163279819Y-7721952D02*
X162803628Y-7388619D01*
X163279819Y-7150524D02*
X162279819Y-7150524D01*
X162279819Y-7150524D02*
X162279819Y-7531476D01*
X162279819Y-7531476D02*
X162327438Y-7626714D01*
X162327438Y-7626714D02*
X162375057Y-7674333D01*
X162375057Y-7674333D02*
X162470295Y-7721952D01*
X162470295Y-7721952D02*
X162613152Y-7721952D01*
X162613152Y-7721952D02*
X162708390Y-7674333D01*
X162708390Y-7674333D02*
X162756009Y-7626714D01*
X162756009Y-7626714D02*
X162803628Y-7531476D01*
X162803628Y-7531476D02*
X162803628Y-7150524D01*
X163279819Y-8674333D02*
X163279819Y-8102905D01*
X163279819Y-8388619D02*
X162279819Y-8388619D01*
X162279819Y-8388619D02*
X162422676Y-8293381D01*
X162422676Y-8293381D02*
X162517914Y-8198143D01*
X162517914Y-8198143D02*
X162565533Y-8102905D01*
X163279819Y-9626714D02*
X163279819Y-9055286D01*
X163279819Y-9341000D02*
X162279819Y-9341000D01*
X162279819Y-9341000D02*
X162422676Y-9245762D01*
X162422676Y-9245762D02*
X162517914Y-9150524D01*
X162517914Y-9150524D02*
X162565533Y-9055286D01*
X162613152Y-10483857D02*
X163279819Y-10483857D01*
X162232200Y-10245762D02*
X162946485Y-10007667D01*
X162946485Y-10007667D02*
X162946485Y-10626714D01*
X178592857Y-2674819D02*
X178926190Y-2198628D01*
X179164285Y-2674819D02*
X179164285Y-1674819D01*
X179164285Y-1674819D02*
X178783333Y-1674819D01*
X178783333Y-1674819D02*
X178688095Y-1722438D01*
X178688095Y-1722438D02*
X178640476Y-1770057D01*
X178640476Y-1770057D02*
X178592857Y-1865295D01*
X178592857Y-1865295D02*
X178592857Y-2008152D01*
X178592857Y-2008152D02*
X178640476Y-2103390D01*
X178640476Y-2103390D02*
X178688095Y-2151009D01*
X178688095Y-2151009D02*
X178783333Y-2198628D01*
X178783333Y-2198628D02*
X179164285Y-2198628D01*
X177640476Y-2674819D02*
X178211904Y-2674819D01*
X177926190Y-2674819D02*
X177926190Y-1674819D01*
X177926190Y-1674819D02*
X178021428Y-1817676D01*
X178021428Y-1817676D02*
X178116666Y-1912914D01*
X178116666Y-1912914D02*
X178211904Y-1960533D01*
X177307142Y-1674819D02*
X176688095Y-1674819D01*
X176688095Y-1674819D02*
X177021428Y-2055771D01*
X177021428Y-2055771D02*
X176878571Y-2055771D01*
X176878571Y-2055771D02*
X176783333Y-2103390D01*
X176783333Y-2103390D02*
X176735714Y-2151009D01*
X176735714Y-2151009D02*
X176688095Y-2246247D01*
X176688095Y-2246247D02*
X176688095Y-2484342D01*
X176688095Y-2484342D02*
X176735714Y-2579580D01*
X176735714Y-2579580D02*
X176783333Y-2627200D01*
X176783333Y-2627200D02*
X176878571Y-2674819D01*
X176878571Y-2674819D02*
X177164285Y-2674819D01*
X177164285Y-2674819D02*
X177259523Y-2627200D01*
X177259523Y-2627200D02*
X177307142Y-2579580D01*
X146809580Y-24044642D02*
X146857200Y-23997023D01*
X146857200Y-23997023D02*
X146904819Y-23854166D01*
X146904819Y-23854166D02*
X146904819Y-23758928D01*
X146904819Y-23758928D02*
X146857200Y-23616071D01*
X146857200Y-23616071D02*
X146761961Y-23520833D01*
X146761961Y-23520833D02*
X146666723Y-23473214D01*
X146666723Y-23473214D02*
X146476247Y-23425595D01*
X146476247Y-23425595D02*
X146333390Y-23425595D01*
X146333390Y-23425595D02*
X146142914Y-23473214D01*
X146142914Y-23473214D02*
X146047676Y-23520833D01*
X146047676Y-23520833D02*
X145952438Y-23616071D01*
X145952438Y-23616071D02*
X145904819Y-23758928D01*
X145904819Y-23758928D02*
X145904819Y-23854166D01*
X145904819Y-23854166D02*
X145952438Y-23997023D01*
X145952438Y-23997023D02*
X146000057Y-24044642D01*
X146000057Y-24425595D02*
X145952438Y-24473214D01*
X145952438Y-24473214D02*
X145904819Y-24568452D01*
X145904819Y-24568452D02*
X145904819Y-24806547D01*
X145904819Y-24806547D02*
X145952438Y-24901785D01*
X145952438Y-24901785D02*
X146000057Y-24949404D01*
X146000057Y-24949404D02*
X146095295Y-24997023D01*
X146095295Y-24997023D02*
X146190533Y-24997023D01*
X146190533Y-24997023D02*
X146333390Y-24949404D01*
X146333390Y-24949404D02*
X146904819Y-24377976D01*
X146904819Y-24377976D02*
X146904819Y-24997023D01*
X145904819Y-25330357D02*
X145904819Y-25949404D01*
X145904819Y-25949404D02*
X146285771Y-25616071D01*
X146285771Y-25616071D02*
X146285771Y-25758928D01*
X146285771Y-25758928D02*
X146333390Y-25854166D01*
X146333390Y-25854166D02*
X146381009Y-25901785D01*
X146381009Y-25901785D02*
X146476247Y-25949404D01*
X146476247Y-25949404D02*
X146714342Y-25949404D01*
X146714342Y-25949404D02*
X146809580Y-25901785D01*
X146809580Y-25901785D02*
X146857200Y-25854166D01*
X146857200Y-25854166D02*
X146904819Y-25758928D01*
X146904819Y-25758928D02*
X146904819Y-25473214D01*
X146904819Y-25473214D02*
X146857200Y-25377976D01*
X146857200Y-25377976D02*
X146809580Y-25330357D01*
X84884819Y-40685476D02*
X85599104Y-40685476D01*
X85599104Y-40685476D02*
X85741961Y-40637857D01*
X85741961Y-40637857D02*
X85837200Y-40542619D01*
X85837200Y-40542619D02*
X85884819Y-40399762D01*
X85884819Y-40399762D02*
X85884819Y-40304524D01*
X85884819Y-41685476D02*
X85884819Y-41114048D01*
X85884819Y-41399762D02*
X84884819Y-41399762D01*
X84884819Y-41399762D02*
X85027676Y-41304524D01*
X85027676Y-41304524D02*
X85122914Y-41209286D01*
X85122914Y-41209286D02*
X85170533Y-41114048D01*
X84980057Y-42066429D02*
X84932438Y-42114048D01*
X84932438Y-42114048D02*
X84884819Y-42209286D01*
X84884819Y-42209286D02*
X84884819Y-42447381D01*
X84884819Y-42447381D02*
X84932438Y-42542619D01*
X84932438Y-42542619D02*
X84980057Y-42590238D01*
X84980057Y-42590238D02*
X85075295Y-42637857D01*
X85075295Y-42637857D02*
X85170533Y-42637857D01*
X85170533Y-42637857D02*
X85313390Y-42590238D01*
X85313390Y-42590238D02*
X85884819Y-42018810D01*
X85884819Y-42018810D02*
X85884819Y-42637857D01*
D11*
X29271190Y-38953365D02*
X29331666Y-39013842D01*
X29331666Y-39013842D02*
X29513095Y-39074318D01*
X29513095Y-39074318D02*
X29634047Y-39074318D01*
X29634047Y-39074318D02*
X29815476Y-39013842D01*
X29815476Y-39013842D02*
X29936428Y-38892889D01*
X29936428Y-38892889D02*
X29996905Y-38771937D01*
X29996905Y-38771937D02*
X30057381Y-38530032D01*
X30057381Y-38530032D02*
X30057381Y-38348603D01*
X30057381Y-38348603D02*
X29996905Y-38106699D01*
X29996905Y-38106699D02*
X29936428Y-37985746D01*
X29936428Y-37985746D02*
X29815476Y-37864794D01*
X29815476Y-37864794D02*
X29634047Y-37804318D01*
X29634047Y-37804318D02*
X29513095Y-37804318D01*
X29513095Y-37804318D02*
X29331666Y-37864794D01*
X29331666Y-37864794D02*
X29271190Y-37925270D01*
X28061666Y-39074318D02*
X28787381Y-39074318D01*
X28424524Y-39074318D02*
X28424524Y-37804318D01*
X28424524Y-37804318D02*
X28545476Y-37985746D01*
X28545476Y-37985746D02*
X28666428Y-38106699D01*
X28666428Y-38106699D02*
X28787381Y-38167175D01*
X26973095Y-38227651D02*
X26973095Y-39074318D01*
X27275476Y-37743842D02*
X27577857Y-38650984D01*
X27577857Y-38650984D02*
X26791666Y-38650984D01*
X25642618Y-39074318D02*
X26368333Y-39074318D01*
X26005476Y-39074318D02*
X26005476Y-37804318D01*
X26005476Y-37804318D02*
X26126428Y-37985746D01*
X26126428Y-37985746D02*
X26247380Y-38106699D01*
X26247380Y-38106699D02*
X26368333Y-38167175D01*
X95689645Y-3578809D02*
X95750122Y-3518333D01*
X95750122Y-3518333D02*
X95810598Y-3336904D01*
X95810598Y-3336904D02*
X95810598Y-3215952D01*
X95810598Y-3215952D02*
X95750122Y-3034523D01*
X95750122Y-3034523D02*
X95629169Y-2913571D01*
X95629169Y-2913571D02*
X95508217Y-2853094D01*
X95508217Y-2853094D02*
X95266312Y-2792618D01*
X95266312Y-2792618D02*
X95084883Y-2792618D01*
X95084883Y-2792618D02*
X94842979Y-2853094D01*
X94842979Y-2853094D02*
X94722026Y-2913571D01*
X94722026Y-2913571D02*
X94601074Y-3034523D01*
X94601074Y-3034523D02*
X94540598Y-3215952D01*
X94540598Y-3215952D02*
X94540598Y-3336904D01*
X94540598Y-3336904D02*
X94601074Y-3518333D01*
X94601074Y-3518333D02*
X94661550Y-3578809D01*
X95810598Y-4788333D02*
X95810598Y-4062618D01*
X95810598Y-4425475D02*
X94540598Y-4425475D01*
X94540598Y-4425475D02*
X94722026Y-4304523D01*
X94722026Y-4304523D02*
X94842979Y-4183571D01*
X94842979Y-4183571D02*
X94903455Y-4062618D01*
X94540598Y-5937380D02*
X94540598Y-5332618D01*
X94540598Y-5332618D02*
X95145360Y-5272142D01*
X95145360Y-5272142D02*
X95084883Y-5332618D01*
X95084883Y-5332618D02*
X95024407Y-5453571D01*
X95024407Y-5453571D02*
X95024407Y-5755952D01*
X95024407Y-5755952D02*
X95084883Y-5876904D01*
X95084883Y-5876904D02*
X95145360Y-5937380D01*
X95145360Y-5937380D02*
X95266312Y-5997857D01*
X95266312Y-5997857D02*
X95568693Y-5997857D01*
X95568693Y-5997857D02*
X95689645Y-5937380D01*
X95689645Y-5937380D02*
X95750122Y-5876904D01*
X95750122Y-5876904D02*
X95810598Y-5755952D01*
X95810598Y-5755952D02*
X95810598Y-5453571D01*
X95810598Y-5453571D02*
X95750122Y-5332618D01*
X95750122Y-5332618D02*
X95689645Y-5272142D01*
X94540598Y-6784047D02*
X94540598Y-6905000D01*
X94540598Y-6905000D02*
X94601074Y-7025952D01*
X94601074Y-7025952D02*
X94661550Y-7086428D01*
X94661550Y-7086428D02*
X94782502Y-7146904D01*
X94782502Y-7146904D02*
X95024407Y-7207381D01*
X95024407Y-7207381D02*
X95326788Y-7207381D01*
X95326788Y-7207381D02*
X95568693Y-7146904D01*
X95568693Y-7146904D02*
X95689645Y-7086428D01*
X95689645Y-7086428D02*
X95750122Y-7025952D01*
X95750122Y-7025952D02*
X95810598Y-6905000D01*
X95810598Y-6905000D02*
X95810598Y-6784047D01*
X95810598Y-6784047D02*
X95750122Y-6663095D01*
X95750122Y-6663095D02*
X95689645Y-6602619D01*
X95689645Y-6602619D02*
X95568693Y-6542142D01*
X95568693Y-6542142D02*
X95326788Y-6481666D01*
X95326788Y-6481666D02*
X95024407Y-6481666D01*
X95024407Y-6481666D02*
X94782502Y-6542142D01*
X94782502Y-6542142D02*
X94661550Y-6602619D01*
X94661550Y-6602619D02*
X94601074Y-6663095D01*
X94601074Y-6663095D02*
X94540598Y-6784047D01*
D12*
X161084047Y-26449819D02*
X161417380Y-25973628D01*
X161655475Y-26449819D02*
X161655475Y-25449819D01*
X161655475Y-25449819D02*
X161274523Y-25449819D01*
X161274523Y-25449819D02*
X161179285Y-25497438D01*
X161179285Y-25497438D02*
X161131666Y-25545057D01*
X161131666Y-25545057D02*
X161084047Y-25640295D01*
X161084047Y-25640295D02*
X161084047Y-25783152D01*
X161084047Y-25783152D02*
X161131666Y-25878390D01*
X161131666Y-25878390D02*
X161179285Y-25926009D01*
X161179285Y-25926009D02*
X161274523Y-25973628D01*
X161274523Y-25973628D02*
X161655475Y-25973628D01*
X160131666Y-26449819D02*
X160703094Y-26449819D01*
X160417380Y-26449819D02*
X160417380Y-25449819D01*
X160417380Y-25449819D02*
X160512618Y-25592676D01*
X160512618Y-25592676D02*
X160607856Y-25687914D01*
X160607856Y-25687914D02*
X160703094Y-25735533D01*
X159179285Y-26449819D02*
X159750713Y-26449819D01*
X159464999Y-26449819D02*
X159464999Y-25449819D01*
X159464999Y-25449819D02*
X159560237Y-25592676D01*
X159560237Y-25592676D02*
X159655475Y-25687914D01*
X159655475Y-25687914D02*
X159750713Y-25735533D01*
X158845951Y-25449819D02*
X158226904Y-25449819D01*
X158226904Y-25449819D02*
X158560237Y-25830771D01*
X158560237Y-25830771D02*
X158417380Y-25830771D01*
X158417380Y-25830771D02*
X158322142Y-25878390D01*
X158322142Y-25878390D02*
X158274523Y-25926009D01*
X158274523Y-25926009D02*
X158226904Y-26021247D01*
X158226904Y-26021247D02*
X158226904Y-26259342D01*
X158226904Y-26259342D02*
X158274523Y-26354580D01*
X158274523Y-26354580D02*
X158322142Y-26402200D01*
X158322142Y-26402200D02*
X158417380Y-26449819D01*
X158417380Y-26449819D02*
X158703094Y-26449819D01*
X158703094Y-26449819D02*
X158798332Y-26402200D01*
X158798332Y-26402200D02*
X158845951Y-26354580D01*
X154084047Y-16774580D02*
X154131666Y-16822200D01*
X154131666Y-16822200D02*
X154274523Y-16869819D01*
X154274523Y-16869819D02*
X154369761Y-16869819D01*
X154369761Y-16869819D02*
X154512618Y-16822200D01*
X154512618Y-16822200D02*
X154607856Y-16726961D01*
X154607856Y-16726961D02*
X154655475Y-16631723D01*
X154655475Y-16631723D02*
X154703094Y-16441247D01*
X154703094Y-16441247D02*
X154703094Y-16298390D01*
X154703094Y-16298390D02*
X154655475Y-16107914D01*
X154655475Y-16107914D02*
X154607856Y-16012676D01*
X154607856Y-16012676D02*
X154512618Y-15917438D01*
X154512618Y-15917438D02*
X154369761Y-15869819D01*
X154369761Y-15869819D02*
X154274523Y-15869819D01*
X154274523Y-15869819D02*
X154131666Y-15917438D01*
X154131666Y-15917438D02*
X154084047Y-15965057D01*
X153131666Y-16869819D02*
X153703094Y-16869819D01*
X153417380Y-16869819D02*
X153417380Y-15869819D01*
X153417380Y-15869819D02*
X153512618Y-16012676D01*
X153512618Y-16012676D02*
X153607856Y-16107914D01*
X153607856Y-16107914D02*
X153703094Y-16155533D01*
X152179285Y-16869819D02*
X152750713Y-16869819D01*
X152464999Y-16869819D02*
X152464999Y-15869819D01*
X152464999Y-15869819D02*
X152560237Y-16012676D01*
X152560237Y-16012676D02*
X152655475Y-16107914D01*
X152655475Y-16107914D02*
X152750713Y-16155533D01*
X151322142Y-15869819D02*
X151512618Y-15869819D01*
X151512618Y-15869819D02*
X151607856Y-15917438D01*
X151607856Y-15917438D02*
X151655475Y-15965057D01*
X151655475Y-15965057D02*
X151750713Y-16107914D01*
X151750713Y-16107914D02*
X151798332Y-16298390D01*
X151798332Y-16298390D02*
X151798332Y-16679342D01*
X151798332Y-16679342D02*
X151750713Y-16774580D01*
X151750713Y-16774580D02*
X151703094Y-16822200D01*
X151703094Y-16822200D02*
X151607856Y-16869819D01*
X151607856Y-16869819D02*
X151417380Y-16869819D01*
X151417380Y-16869819D02*
X151322142Y-16822200D01*
X151322142Y-16822200D02*
X151274523Y-16774580D01*
X151274523Y-16774580D02*
X151226904Y-16679342D01*
X151226904Y-16679342D02*
X151226904Y-16441247D01*
X151226904Y-16441247D02*
X151274523Y-16346009D01*
X151274523Y-16346009D02*
X151322142Y-16298390D01*
X151322142Y-16298390D02*
X151417380Y-16250771D01*
X151417380Y-16250771D02*
X151607856Y-16250771D01*
X151607856Y-16250771D02*
X151703094Y-16298390D01*
X151703094Y-16298390D02*
X151750713Y-16346009D01*
X151750713Y-16346009D02*
X151798332Y-16441247D01*
D11*
X31571190Y-48453365D02*
X31631666Y-48513842D01*
X31631666Y-48513842D02*
X31813095Y-48574318D01*
X31813095Y-48574318D02*
X31934047Y-48574318D01*
X31934047Y-48574318D02*
X32115476Y-48513842D01*
X32115476Y-48513842D02*
X32236428Y-48392889D01*
X32236428Y-48392889D02*
X32296905Y-48271937D01*
X32296905Y-48271937D02*
X32357381Y-48030032D01*
X32357381Y-48030032D02*
X32357381Y-47848603D01*
X32357381Y-47848603D02*
X32296905Y-47606699D01*
X32296905Y-47606699D02*
X32236428Y-47485746D01*
X32236428Y-47485746D02*
X32115476Y-47364794D01*
X32115476Y-47364794D02*
X31934047Y-47304318D01*
X31934047Y-47304318D02*
X31813095Y-47304318D01*
X31813095Y-47304318D02*
X31631666Y-47364794D01*
X31631666Y-47364794D02*
X31571190Y-47425270D01*
X30361666Y-48574318D02*
X31087381Y-48574318D01*
X30724524Y-48574318D02*
X30724524Y-47304318D01*
X30724524Y-47304318D02*
X30845476Y-47485746D01*
X30845476Y-47485746D02*
X30966428Y-47606699D01*
X30966428Y-47606699D02*
X31087381Y-47667175D01*
X29273095Y-47727651D02*
X29273095Y-48574318D01*
X29575476Y-47243842D02*
X29877857Y-48150984D01*
X29877857Y-48150984D02*
X29091666Y-48150984D01*
X28728809Y-47304318D02*
X27942618Y-47304318D01*
X27942618Y-47304318D02*
X28365952Y-47788127D01*
X28365952Y-47788127D02*
X28184523Y-47788127D01*
X28184523Y-47788127D02*
X28063571Y-47848603D01*
X28063571Y-47848603D02*
X28003095Y-47909080D01*
X28003095Y-47909080D02*
X27942618Y-48030032D01*
X27942618Y-48030032D02*
X27942618Y-48332413D01*
X27942618Y-48332413D02*
X28003095Y-48453365D01*
X28003095Y-48453365D02*
X28063571Y-48513842D01*
X28063571Y-48513842D02*
X28184523Y-48574318D01*
X28184523Y-48574318D02*
X28547380Y-48574318D01*
X28547380Y-48574318D02*
X28668333Y-48513842D01*
X28668333Y-48513842D02*
X28728809Y-48453365D01*
D12*
X126659580Y-25357142D02*
X126707200Y-25309523D01*
X126707200Y-25309523D02*
X126754819Y-25166666D01*
X126754819Y-25166666D02*
X126754819Y-25071428D01*
X126754819Y-25071428D02*
X126707200Y-24928571D01*
X126707200Y-24928571D02*
X126611961Y-24833333D01*
X126611961Y-24833333D02*
X126516723Y-24785714D01*
X126516723Y-24785714D02*
X126326247Y-24738095D01*
X126326247Y-24738095D02*
X126183390Y-24738095D01*
X126183390Y-24738095D02*
X125992914Y-24785714D01*
X125992914Y-24785714D02*
X125897676Y-24833333D01*
X125897676Y-24833333D02*
X125802438Y-24928571D01*
X125802438Y-24928571D02*
X125754819Y-25071428D01*
X125754819Y-25071428D02*
X125754819Y-25166666D01*
X125754819Y-25166666D02*
X125802438Y-25309523D01*
X125802438Y-25309523D02*
X125850057Y-25357142D01*
X125850057Y-25738095D02*
X125802438Y-25785714D01*
X125802438Y-25785714D02*
X125754819Y-25880952D01*
X125754819Y-25880952D02*
X125754819Y-26119047D01*
X125754819Y-26119047D02*
X125802438Y-26214285D01*
X125802438Y-26214285D02*
X125850057Y-26261904D01*
X125850057Y-26261904D02*
X125945295Y-26309523D01*
X125945295Y-26309523D02*
X126040533Y-26309523D01*
X126040533Y-26309523D02*
X126183390Y-26261904D01*
X126183390Y-26261904D02*
X126754819Y-25690476D01*
X126754819Y-25690476D02*
X126754819Y-26309523D01*
X126754819Y-27261904D02*
X126754819Y-26690476D01*
X126754819Y-26976190D02*
X125754819Y-26976190D01*
X125754819Y-26976190D02*
X125897676Y-26880952D01*
X125897676Y-26880952D02*
X125992914Y-26785714D01*
X125992914Y-26785714D02*
X126040533Y-26690476D01*
X136734819Y-7880952D02*
X136258628Y-7547619D01*
X136734819Y-7309524D02*
X135734819Y-7309524D01*
X135734819Y-7309524D02*
X135734819Y-7690476D01*
X135734819Y-7690476D02*
X135782438Y-7785714D01*
X135782438Y-7785714D02*
X135830057Y-7833333D01*
X135830057Y-7833333D02*
X135925295Y-7880952D01*
X135925295Y-7880952D02*
X136068152Y-7880952D01*
X136068152Y-7880952D02*
X136163390Y-7833333D01*
X136163390Y-7833333D02*
X136211009Y-7785714D01*
X136211009Y-7785714D02*
X136258628Y-7690476D01*
X136258628Y-7690476D02*
X136258628Y-7309524D01*
X136734819Y-8833333D02*
X136734819Y-8261905D01*
X136734819Y-8547619D02*
X135734819Y-8547619D01*
X135734819Y-8547619D02*
X135877676Y-8452381D01*
X135877676Y-8452381D02*
X135972914Y-8357143D01*
X135972914Y-8357143D02*
X136020533Y-8261905D01*
X135830057Y-9214286D02*
X135782438Y-9261905D01*
X135782438Y-9261905D02*
X135734819Y-9357143D01*
X135734819Y-9357143D02*
X135734819Y-9595238D01*
X135734819Y-9595238D02*
X135782438Y-9690476D01*
X135782438Y-9690476D02*
X135830057Y-9738095D01*
X135830057Y-9738095D02*
X135925295Y-9785714D01*
X135925295Y-9785714D02*
X136020533Y-9785714D01*
X136020533Y-9785714D02*
X136163390Y-9738095D01*
X136163390Y-9738095D02*
X136734819Y-9166667D01*
X136734819Y-9166667D02*
X136734819Y-9785714D01*
X135830057Y-10166667D02*
X135782438Y-10214286D01*
X135782438Y-10214286D02*
X135734819Y-10309524D01*
X135734819Y-10309524D02*
X135734819Y-10547619D01*
X135734819Y-10547619D02*
X135782438Y-10642857D01*
X135782438Y-10642857D02*
X135830057Y-10690476D01*
X135830057Y-10690476D02*
X135925295Y-10738095D01*
X135925295Y-10738095D02*
X136020533Y-10738095D01*
X136020533Y-10738095D02*
X136163390Y-10690476D01*
X136163390Y-10690476D02*
X136734819Y-10119048D01*
X136734819Y-10119048D02*
X136734819Y-10738095D01*
X160004819Y-42170476D02*
X160719104Y-42170476D01*
X160719104Y-42170476D02*
X160861961Y-42122857D01*
X160861961Y-42122857D02*
X160957200Y-42027619D01*
X160957200Y-42027619D02*
X161004819Y-41884762D01*
X161004819Y-41884762D02*
X161004819Y-41789524D01*
X161004819Y-43170476D02*
X161004819Y-42599048D01*
X161004819Y-42884762D02*
X160004819Y-42884762D01*
X160004819Y-42884762D02*
X160147676Y-42789524D01*
X160147676Y-42789524D02*
X160242914Y-42694286D01*
X160242914Y-42694286D02*
X160290533Y-42599048D01*
X160004819Y-43503810D02*
X160004819Y-44122857D01*
X160004819Y-44122857D02*
X160385771Y-43789524D01*
X160385771Y-43789524D02*
X160385771Y-43932381D01*
X160385771Y-43932381D02*
X160433390Y-44027619D01*
X160433390Y-44027619D02*
X160481009Y-44075238D01*
X160481009Y-44075238D02*
X160576247Y-44122857D01*
X160576247Y-44122857D02*
X160814342Y-44122857D01*
X160814342Y-44122857D02*
X160909580Y-44075238D01*
X160909580Y-44075238D02*
X160957200Y-44027619D01*
X160957200Y-44027619D02*
X161004819Y-43932381D01*
X161004819Y-43932381D02*
X161004819Y-43646667D01*
X161004819Y-43646667D02*
X160957200Y-43551429D01*
X160957200Y-43551429D02*
X160909580Y-43503810D01*
D11*
X153993095Y-12019318D02*
X153146428Y-12019318D01*
X153146428Y-12019318D02*
X153993095Y-13289318D01*
X153993095Y-13289318D02*
X153146428Y-13289318D01*
X152602142Y-13289318D02*
X152360238Y-13289318D01*
X152360238Y-13289318D02*
X152239285Y-13228842D01*
X152239285Y-13228842D02*
X152178809Y-13168365D01*
X152178809Y-13168365D02*
X152057857Y-12986937D01*
X152057857Y-12986937D02*
X151997380Y-12745032D01*
X151997380Y-12745032D02*
X151997380Y-12261222D01*
X151997380Y-12261222D02*
X152057857Y-12140270D01*
X152057857Y-12140270D02*
X152118333Y-12079794D01*
X152118333Y-12079794D02*
X152239285Y-12019318D01*
X152239285Y-12019318D02*
X152481190Y-12019318D01*
X152481190Y-12019318D02*
X152602142Y-12079794D01*
X152602142Y-12079794D02*
X152662619Y-12140270D01*
X152662619Y-12140270D02*
X152723095Y-12261222D01*
X152723095Y-12261222D02*
X152723095Y-12563603D01*
X152723095Y-12563603D02*
X152662619Y-12684556D01*
X152662619Y-12684556D02*
X152602142Y-12745032D01*
X152602142Y-12745032D02*
X152481190Y-12805508D01*
X152481190Y-12805508D02*
X152239285Y-12805508D01*
X152239285Y-12805508D02*
X152118333Y-12745032D01*
X152118333Y-12745032D02*
X152057857Y-12684556D01*
X152057857Y-12684556D02*
X151997380Y-12563603D01*
X41771190Y-49953365D02*
X41831666Y-50013842D01*
X41831666Y-50013842D02*
X42013095Y-50074318D01*
X42013095Y-50074318D02*
X42134047Y-50074318D01*
X42134047Y-50074318D02*
X42315476Y-50013842D01*
X42315476Y-50013842D02*
X42436428Y-49892889D01*
X42436428Y-49892889D02*
X42496905Y-49771937D01*
X42496905Y-49771937D02*
X42557381Y-49530032D01*
X42557381Y-49530032D02*
X42557381Y-49348603D01*
X42557381Y-49348603D02*
X42496905Y-49106699D01*
X42496905Y-49106699D02*
X42436428Y-48985746D01*
X42436428Y-48985746D02*
X42315476Y-48864794D01*
X42315476Y-48864794D02*
X42134047Y-48804318D01*
X42134047Y-48804318D02*
X42013095Y-48804318D01*
X42013095Y-48804318D02*
X41831666Y-48864794D01*
X41831666Y-48864794D02*
X41771190Y-48925270D01*
X40561666Y-50074318D02*
X41287381Y-50074318D01*
X40924524Y-50074318D02*
X40924524Y-48804318D01*
X40924524Y-48804318D02*
X41045476Y-48985746D01*
X41045476Y-48985746D02*
X41166428Y-49106699D01*
X41166428Y-49106699D02*
X41287381Y-49167175D01*
X39835952Y-49348603D02*
X39956904Y-49288127D01*
X39956904Y-49288127D02*
X40017381Y-49227651D01*
X40017381Y-49227651D02*
X40077857Y-49106699D01*
X40077857Y-49106699D02*
X40077857Y-49046222D01*
X40077857Y-49046222D02*
X40017381Y-48925270D01*
X40017381Y-48925270D02*
X39956904Y-48864794D01*
X39956904Y-48864794D02*
X39835952Y-48804318D01*
X39835952Y-48804318D02*
X39594047Y-48804318D01*
X39594047Y-48804318D02*
X39473095Y-48864794D01*
X39473095Y-48864794D02*
X39412619Y-48925270D01*
X39412619Y-48925270D02*
X39352142Y-49046222D01*
X39352142Y-49046222D02*
X39352142Y-49106699D01*
X39352142Y-49106699D02*
X39412619Y-49227651D01*
X39412619Y-49227651D02*
X39473095Y-49288127D01*
X39473095Y-49288127D02*
X39594047Y-49348603D01*
X39594047Y-49348603D02*
X39835952Y-49348603D01*
X39835952Y-49348603D02*
X39956904Y-49409080D01*
X39956904Y-49409080D02*
X40017381Y-49469556D01*
X40017381Y-49469556D02*
X40077857Y-49590508D01*
X40077857Y-49590508D02*
X40077857Y-49832413D01*
X40077857Y-49832413D02*
X40017381Y-49953365D01*
X40017381Y-49953365D02*
X39956904Y-50013842D01*
X39956904Y-50013842D02*
X39835952Y-50074318D01*
X39835952Y-50074318D02*
X39594047Y-50074318D01*
X39594047Y-50074318D02*
X39473095Y-50013842D01*
X39473095Y-50013842D02*
X39412619Y-49953365D01*
X39412619Y-49953365D02*
X39352142Y-49832413D01*
X39352142Y-49832413D02*
X39352142Y-49590508D01*
X39352142Y-49590508D02*
X39412619Y-49469556D01*
X39412619Y-49469556D02*
X39473095Y-49409080D01*
X39473095Y-49409080D02*
X39594047Y-49348603D01*
X38565952Y-48804318D02*
X38444999Y-48804318D01*
X38444999Y-48804318D02*
X38324047Y-48864794D01*
X38324047Y-48864794D02*
X38263571Y-48925270D01*
X38263571Y-48925270D02*
X38203095Y-49046222D01*
X38203095Y-49046222D02*
X38142618Y-49288127D01*
X38142618Y-49288127D02*
X38142618Y-49590508D01*
X38142618Y-49590508D02*
X38203095Y-49832413D01*
X38203095Y-49832413D02*
X38263571Y-49953365D01*
X38263571Y-49953365D02*
X38324047Y-50013842D01*
X38324047Y-50013842D02*
X38444999Y-50074318D01*
X38444999Y-50074318D02*
X38565952Y-50074318D01*
X38565952Y-50074318D02*
X38686904Y-50013842D01*
X38686904Y-50013842D02*
X38747380Y-49953365D01*
X38747380Y-49953365D02*
X38807857Y-49832413D01*
X38807857Y-49832413D02*
X38868333Y-49590508D01*
X38868333Y-49590508D02*
X38868333Y-49288127D01*
X38868333Y-49288127D02*
X38807857Y-49046222D01*
X38807857Y-49046222D02*
X38747380Y-48925270D01*
X38747380Y-48925270D02*
X38686904Y-48864794D01*
X38686904Y-48864794D02*
X38565952Y-48804318D01*
D12*
X197499523Y-1484819D02*
X197499523Y-2199104D01*
X197499523Y-2199104D02*
X197547142Y-2341961D01*
X197547142Y-2341961D02*
X197642380Y-2437200D01*
X197642380Y-2437200D02*
X197785237Y-2484819D01*
X197785237Y-2484819D02*
X197880475Y-2484819D01*
X196499523Y-2484819D02*
X197070951Y-2484819D01*
X196785237Y-2484819D02*
X196785237Y-1484819D01*
X196785237Y-1484819D02*
X196880475Y-1627676D01*
X196880475Y-1627676D02*
X196975713Y-1722914D01*
X196975713Y-1722914D02*
X197070951Y-1770533D01*
X195642380Y-1818152D02*
X195642380Y-2484819D01*
X195880475Y-1437200D02*
X196118570Y-2151485D01*
X196118570Y-2151485D02*
X195499523Y-2151485D01*
D11*
X121804318Y-12567142D02*
X121804318Y-13413809D01*
X121804318Y-13413809D02*
X123074318Y-12567142D01*
X123074318Y-12567142D02*
X123074318Y-13413809D01*
X123074318Y-14562857D02*
X123074318Y-13837142D01*
X123074318Y-14199999D02*
X121804318Y-14199999D01*
X121804318Y-14199999D02*
X121985746Y-14079047D01*
X121985746Y-14079047D02*
X122106699Y-13958095D01*
X122106699Y-13958095D02*
X122167175Y-13837142D01*
X121804318Y-14986190D02*
X121804318Y-15772381D01*
X121804318Y-15772381D02*
X122288127Y-15349047D01*
X122288127Y-15349047D02*
X122288127Y-15530476D01*
X122288127Y-15530476D02*
X122348603Y-15651428D01*
X122348603Y-15651428D02*
X122409080Y-15711904D01*
X122409080Y-15711904D02*
X122530032Y-15772381D01*
X122530032Y-15772381D02*
X122832413Y-15772381D01*
X122832413Y-15772381D02*
X122953365Y-15711904D01*
X122953365Y-15711904D02*
X123013842Y-15651428D01*
X123013842Y-15651428D02*
X123074318Y-15530476D01*
X123074318Y-15530476D02*
X123074318Y-15167619D01*
X123074318Y-15167619D02*
X123013842Y-15046666D01*
X123013842Y-15046666D02*
X122953365Y-14986190D01*
D12*
X154084047Y-21889819D02*
X154417380Y-21413628D01*
X154655475Y-21889819D02*
X154655475Y-20889819D01*
X154655475Y-20889819D02*
X154274523Y-20889819D01*
X154274523Y-20889819D02*
X154179285Y-20937438D01*
X154179285Y-20937438D02*
X154131666Y-20985057D01*
X154131666Y-20985057D02*
X154084047Y-21080295D01*
X154084047Y-21080295D02*
X154084047Y-21223152D01*
X154084047Y-21223152D02*
X154131666Y-21318390D01*
X154131666Y-21318390D02*
X154179285Y-21366009D01*
X154179285Y-21366009D02*
X154274523Y-21413628D01*
X154274523Y-21413628D02*
X154655475Y-21413628D01*
X153131666Y-21889819D02*
X153703094Y-21889819D01*
X153417380Y-21889819D02*
X153417380Y-20889819D01*
X153417380Y-20889819D02*
X153512618Y-21032676D01*
X153512618Y-21032676D02*
X153607856Y-21127914D01*
X153607856Y-21127914D02*
X153703094Y-21175533D01*
X152512618Y-20889819D02*
X152417380Y-20889819D01*
X152417380Y-20889819D02*
X152322142Y-20937438D01*
X152322142Y-20937438D02*
X152274523Y-20985057D01*
X152274523Y-20985057D02*
X152226904Y-21080295D01*
X152226904Y-21080295D02*
X152179285Y-21270771D01*
X152179285Y-21270771D02*
X152179285Y-21508866D01*
X152179285Y-21508866D02*
X152226904Y-21699342D01*
X152226904Y-21699342D02*
X152274523Y-21794580D01*
X152274523Y-21794580D02*
X152322142Y-21842200D01*
X152322142Y-21842200D02*
X152417380Y-21889819D01*
X152417380Y-21889819D02*
X152512618Y-21889819D01*
X152512618Y-21889819D02*
X152607856Y-21842200D01*
X152607856Y-21842200D02*
X152655475Y-21794580D01*
X152655475Y-21794580D02*
X152703094Y-21699342D01*
X152703094Y-21699342D02*
X152750713Y-21508866D01*
X152750713Y-21508866D02*
X152750713Y-21270771D01*
X152750713Y-21270771D02*
X152703094Y-21080295D01*
X152703094Y-21080295D02*
X152655475Y-20985057D01*
X152655475Y-20985057D02*
X152607856Y-20937438D01*
X152607856Y-20937438D02*
X152512618Y-20889819D01*
X151845951Y-20889819D02*
X151179285Y-20889819D01*
X151179285Y-20889819D02*
X151607856Y-21889819D01*
X237539523Y-1524819D02*
X237539523Y-2239104D01*
X237539523Y-2239104D02*
X237587142Y-2381961D01*
X237587142Y-2381961D02*
X237682380Y-2477200D01*
X237682380Y-2477200D02*
X237825237Y-2524819D01*
X237825237Y-2524819D02*
X237920475Y-2524819D01*
X236539523Y-2524819D02*
X237110951Y-2524819D01*
X236825237Y-2524819D02*
X236825237Y-1524819D01*
X236825237Y-1524819D02*
X236920475Y-1667676D01*
X236920475Y-1667676D02*
X237015713Y-1762914D01*
X237015713Y-1762914D02*
X237110951Y-1810533D01*
X235587142Y-2524819D02*
X236158570Y-2524819D01*
X235872856Y-2524819D02*
X235872856Y-1524819D01*
X235872856Y-1524819D02*
X235968094Y-1667676D01*
X235968094Y-1667676D02*
X236063332Y-1762914D01*
X236063332Y-1762914D02*
X236158570Y-1810533D01*
D13*
%TO.C,C140*%
X42300000Y-48300000D02*
X37350000Y-48300000D01*
X45050000Y-41700000D02*
X37350000Y-41700000D01*
D14*
%TO.C,C119*%
X159253748Y-17355000D02*
X160676252Y-17355000D01*
X159253748Y-20075000D02*
X160676252Y-20075000D01*
D13*
%TO.C,Z14*%
X137200000Y-11975000D02*
X137200000Y-15640000D01*
X138800000Y-12960000D02*
X138800000Y-15640000D01*
D15*
%TO.C,J4*%
X168540000Y-8800000D02*
X168540000Y-20000000D01*
X168540000Y-20000000D02*
X190460000Y-20000000D01*
X190460000Y-10000000D02*
X190460000Y-8800000D01*
X190460000Y-20000000D02*
X190460000Y-10000000D01*
D14*
%TO.C,C133*%
X95538748Y-24140000D02*
X96961252Y-24140000D01*
X95538748Y-26860000D02*
X96961252Y-26860000D01*
%TO.C,C16*%
X151226248Y-36890000D02*
X152648752Y-36890000D01*
X151226248Y-39610000D02*
X152648752Y-39610000D01*
%TO.C,R12*%
X85645000Y-30973737D02*
X85645000Y-29526263D01*
X88355000Y-30973737D02*
X88355000Y-29526263D01*
%TO.C,C20*%
X161711252Y-26140000D02*
X160288748Y-26140000D01*
X161711252Y-28860000D02*
X160288748Y-28860000D01*
D13*
%TO.C,C151*%
X79636280Y-6650000D02*
X79636280Y-1700000D01*
X86236280Y-9400000D02*
X86236280Y-1700000D01*
%TO.C,Z12*%
X158140000Y-14515000D02*
X161805000Y-14515000D01*
X159125000Y-12915000D02*
X161805000Y-12915000D01*
%TO.C,C153*%
X22700000Y-8150000D02*
X22700000Y-3200000D01*
X29300000Y-10900000D02*
X29300000Y-3200000D01*
D14*
%TO.C,R115*%
X129948737Y-21936000D02*
X128501263Y-21936000D01*
X129948737Y-24646000D02*
X128501263Y-24646000D01*
%TO.C,C50*%
X16288748Y-28140000D02*
X17711252Y-28140000D01*
X16288748Y-30860000D02*
X17711252Y-30860000D01*
D13*
%TO.C,D4*%
X5575000Y-34050000D02*
X14125000Y-34050000D01*
X13525000Y-39950000D02*
X5575000Y-39950000D01*
D14*
%TO.C,C49*%
X20140000Y-36148752D02*
X20140000Y-34726248D01*
X22860000Y-36148752D02*
X22860000Y-34726248D01*
%TO.C,C14*%
X127788748Y-35640000D02*
X129211252Y-35640000D01*
X127788748Y-38360000D02*
X129211252Y-38360000D01*
%TO.C,R120*%
X128145000Y-9723737D02*
X128145000Y-8276263D01*
X130855000Y-9723737D02*
X130855000Y-8276263D01*
%TO.C,C132*%
X95538748Y-28640000D02*
X96961252Y-28640000D01*
X95538748Y-31360000D02*
X96961252Y-31360000D01*
%TO.C,C52*%
X33288748Y-1140000D02*
X34711252Y-1140000D01*
X33288748Y-3860000D02*
X34711252Y-3860000D01*
%TO.C,C13*%
X127726248Y-39140000D02*
X129148752Y-39140000D01*
X127726248Y-41860000D02*
X129148752Y-41860000D01*
%TO.C,C51*%
X33288748Y-4640000D02*
X34711252Y-4640000D01*
X33288748Y-7360000D02*
X34711252Y-7360000D01*
D13*
%TO.C,Z15*%
X128700000Y-11875000D02*
X128700000Y-15540000D01*
X130300000Y-12860000D02*
X130300000Y-15540000D01*
D15*
%TO.C,F1*%
X1500000Y-27300000D02*
X1500000Y-36700000D01*
X1500000Y-36700000D02*
X4500000Y-36700000D01*
X4500000Y-27300000D02*
X1500000Y-27300000D01*
X4500000Y-36700000D02*
X4500000Y-27300000D01*
D14*
%TO.C,R116*%
X123645000Y-9723737D02*
X123645000Y-8276263D01*
X126355000Y-9723737D02*
X126355000Y-8276263D01*
%TO.C,C18*%
X138273752Y-25640000D02*
X136851248Y-25640000D01*
X138273752Y-28360000D02*
X136851248Y-28360000D01*
D13*
%TO.C,C148*%
X103036280Y-6650000D02*
X103036280Y-1700000D01*
X109636280Y-9400000D02*
X109636280Y-1700000D01*
%TO.C,C146*%
X22700000Y-18650000D02*
X22700000Y-13700000D01*
X29300000Y-21400000D02*
X29300000Y-13700000D01*
%TO.C,C152*%
X45850000Y-22800000D02*
X40900000Y-22800000D01*
X48600000Y-16200000D02*
X40900000Y-16200000D01*
%TO.C,C142*%
X20500000Y-45800000D02*
X15550000Y-45800000D01*
X23250000Y-39200000D02*
X15550000Y-39200000D01*
D14*
%TO.C,R118*%
X137145000Y-9723737D02*
X137145000Y-8276263D01*
X139855000Y-9723737D02*
X139855000Y-8276263D01*
%TO.C,R112*%
X164190000Y-9564737D02*
X164190000Y-8117263D01*
X166900000Y-9564737D02*
X166900000Y-8117263D01*
%TO.C,R108*%
X149190000Y-9564737D02*
X149190000Y-8117263D01*
X151900000Y-9564737D02*
X151900000Y-8117263D01*
%TO.C,J5*%
X289670000Y-15590000D02*
X289670000Y-16920000D01*
X289670000Y-18190000D02*
X289670000Y-41110000D01*
X291000000Y-15590000D02*
X289670000Y-15590000D01*
X292270000Y-15590000D02*
X292270000Y-18190000D01*
X292270000Y-18190000D02*
X289670000Y-18190000D01*
X294870000Y-15590000D02*
X292270000Y-15590000D01*
X294870000Y-15590000D02*
X294870000Y-41110000D01*
X294870000Y-41110000D02*
X289670000Y-41110000D01*
D13*
%TO.C,Z16*%
X133200000Y-11975000D02*
X133200000Y-15640000D01*
X134800000Y-12960000D02*
X134800000Y-15640000D01*
D14*
%TO.C,C15*%
X151163748Y-33640000D02*
X152586252Y-33640000D01*
X151163748Y-36360000D02*
X152586252Y-36360000D01*
D13*
%TO.C,C149*%
X95236280Y-6650000D02*
X95236280Y-1700000D01*
X101836280Y-9400000D02*
X101836280Y-1700000D01*
D14*
%TO.C,R121*%
X135501263Y-21936000D02*
X136948737Y-21936000D01*
X135501263Y-24646000D02*
X136948737Y-24646000D01*
%TO.C,C121*%
X136648752Y-17640000D02*
X135226248Y-17640000D01*
X136648752Y-20360000D02*
X135226248Y-20360000D01*
D13*
%TO.C,C144*%
X46500000Y-13300000D02*
X41550000Y-13300000D01*
X49250000Y-6700000D02*
X41550000Y-6700000D01*
D14*
%TO.C,R110*%
X154190000Y-9564737D02*
X154190000Y-8117263D01*
X156900000Y-9564737D02*
X156900000Y-8117263D01*
%TO.C,R114*%
X159190000Y-9564737D02*
X159190000Y-8117263D01*
X161900000Y-9564737D02*
X161900000Y-8117263D01*
%TO.C,R13*%
X178673737Y-3145000D02*
X177226263Y-3145000D01*
X178673737Y-5855000D02*
X177226263Y-5855000D01*
%TO.C,C23*%
X147390000Y-23976248D02*
X147390000Y-25398752D01*
X150110000Y-23976248D02*
X150110000Y-25398752D01*
%TO.C,J12*%
X58470000Y-44095000D02*
X58470000Y-38895000D01*
X81390000Y-38895000D02*
X58470000Y-38895000D01*
X81390000Y-41495000D02*
X81390000Y-38895000D01*
X83990000Y-38895000D02*
X82660000Y-38895000D01*
X83990000Y-40225000D02*
X83990000Y-38895000D01*
X83990000Y-41495000D02*
X81390000Y-41495000D01*
X83990000Y-44095000D02*
X58470000Y-44095000D01*
X83990000Y-44095000D02*
X83990000Y-41495000D01*
D13*
%TO.C,C141*%
X23450000Y-37300000D02*
X31150000Y-37300000D01*
X26200000Y-30700000D02*
X31150000Y-30700000D01*
%TO.C,C150*%
X87436280Y-6650000D02*
X87436280Y-1700000D01*
X94036280Y-9400000D02*
X94036280Y-1700000D01*
D14*
%TO.C,R113*%
X159241263Y-22360000D02*
X160688737Y-22360000D01*
X159241263Y-25070000D02*
X160688737Y-25070000D01*
%TO.C,C116*%
X153676252Y-17355000D02*
X152253748Y-17355000D01*
X153676252Y-20075000D02*
X152253748Y-20075000D01*
D13*
%TO.C,C143*%
X31800000Y-46800000D02*
X26850000Y-46800000D01*
X34550000Y-40200000D02*
X26850000Y-40200000D01*
D14*
%TO.C,C21*%
X122640000Y-26711252D02*
X122640000Y-25288748D01*
X125360000Y-26711252D02*
X125360000Y-25288748D01*
%TO.C,R122*%
X132645000Y-9723737D02*
X132645000Y-8276263D01*
X135355000Y-9723737D02*
X135355000Y-8276263D01*
%TO.C,J13*%
X133590000Y-45580000D02*
X133590000Y-40380000D01*
X156510000Y-40380000D02*
X133590000Y-40380000D01*
X156510000Y-42980000D02*
X156510000Y-40380000D01*
X159110000Y-40380000D02*
X157780000Y-40380000D01*
X159110000Y-41710000D02*
X159110000Y-40380000D01*
X159110000Y-42980000D02*
X156510000Y-42980000D01*
X159110000Y-45580000D02*
X133590000Y-45580000D01*
X159110000Y-45580000D02*
X159110000Y-42980000D01*
D13*
%TO.C,Z9*%
X154305000Y-16015000D02*
X151625000Y-16015000D01*
X155290000Y-14415000D02*
X151625000Y-14415000D01*
%TO.C,C180*%
X42000000Y-57300000D02*
X37050000Y-57300000D01*
X44750000Y-50700000D02*
X37050000Y-50700000D01*
D14*
%TO.C,J14*%
X194090000Y-3470000D02*
X194090000Y-4800000D01*
X194090000Y-6070000D02*
X194090000Y-28990000D01*
X195420000Y-3470000D02*
X194090000Y-3470000D01*
X196690000Y-3470000D02*
X196690000Y-6070000D01*
X196690000Y-6070000D02*
X194090000Y-6070000D01*
X199290000Y-3470000D02*
X196690000Y-3470000D01*
X199290000Y-3470000D02*
X199290000Y-28990000D01*
X199290000Y-28990000D02*
X194090000Y-28990000D01*
D13*
%TO.C,Z13*%
X124200000Y-11875000D02*
X124200000Y-15540000D01*
X125800000Y-12860000D02*
X125800000Y-15540000D01*
D14*
%TO.C,R107*%
X153688737Y-22360000D02*
X152241263Y-22360000D01*
X153688737Y-25070000D02*
X152241263Y-25070000D01*
%TO.C,J11*%
X234130000Y-3510000D02*
X234130000Y-4840000D01*
X234130000Y-6110000D02*
X234130000Y-29030000D01*
X235460000Y-3510000D02*
X234130000Y-3510000D01*
X236730000Y-3510000D02*
X236730000Y-6110000D01*
X236730000Y-6110000D02*
X234130000Y-6110000D01*
X239330000Y-3510000D02*
X236730000Y-3510000D01*
X239330000Y-3510000D02*
X239330000Y-29030000D01*
X239330000Y-29030000D02*
X234130000Y-29030000D01*
%TD*%
D16*
%TO.C,J4*%
X171880000Y-10000000D03*
X176960000Y-10000000D03*
X182040000Y-10000000D03*
X187120000Y-10000000D03*
%TD*%
D17*
%TO.C,F1*%
X3000000Y-29450000D03*
X3000000Y-34550000D03*
%TD*%
M02*
