%TF.GenerationSoftware,KiCad,Pcbnew,9.0.1*%
%TF.CreationDate,2026-02-07T16:56:35-08:00*%
%TF.ProjectId,ControlBoard,436f6e74-726f-46c4-926f-6172642e6b69,rev?*%
%TF.SameCoordinates,Original*%
%TF.FileFunction,Soldermask,Bot*%
%TF.FilePolarity,Negative*%
%FSLAX46Y46*%
G04 Gerber Fmt 4.6, Leading zero omitted, Abs format (unit mm)*
G04 Created by KiCad (PCBNEW 9.0.1) date 2026-02-07 16:56:35*
%MOMM*%
%LPD*%
G01*
G04 APERTURE LIST*
G04 Aperture macros list*
%AMRoundRect*
0 Rectangle with rounded corners*
0 $1 Rounding radius*
0 $2 $3 $4 $5 $6 $7 $8 $9 X,Y pos of 4 corners*
0 Add a 4 corners polygon primitive as box body*
4,1,4,$2,$3,$4,$5,$6,$7,$8,$9,$2,$3,0*
0 Add four circle primitives for the rounded corners*
1,1,$1+$1,$2,$3*
1,1,$1+$1,$4,$5*
1,1,$1+$1,$6,$7*
1,1,$1+$1,$8,$9*
0 Add four rect primitives between the rounded corners*
20,1,$1+$1,$2,$3,$4,$5,0*
20,1,$1+$1,$4,$5,$6,$7,0*
20,1,$1+$1,$6,$7,$8,$9,0*
20,1,$1+$1,$8,$9,$2,$3,0*%
%AMFreePoly0*
4,1,37,0.603843,0.796157,0.639018,0.796157,0.711114,0.766294,0.766294,0.711114,0.796157,0.639018,0.796157,0.603843,0.800000,0.600000,0.800000,-0.600000,0.796157,-0.603843,0.796157,-0.639018,0.766294,-0.711114,0.711114,-0.766294,0.639018,-0.796157,0.603843,-0.796157,0.600000,-0.800000,0.000000,-0.800000,0.000000,-0.796148,-0.078414,-0.796148,-0.232228,-0.765552,-0.377117,-0.705537,
-0.507515,-0.618408,-0.618408,-0.507515,-0.705537,-0.377117,-0.765552,-0.232228,-0.796148,-0.078414,-0.796148,0.078414,-0.765552,0.232228,-0.705537,0.377117,-0.618408,0.507515,-0.507515,0.618408,-0.377117,0.705537,-0.232228,0.765552,-0.078414,0.796148,0.000000,0.796148,0.000000,0.800000,0.600000,0.800000,0.603843,0.796157,0.603843,0.796157,$1*%
%AMFreePoly1*
4,1,37,0.000000,0.796148,0.078414,0.796148,0.232228,0.765552,0.377117,0.705537,0.507515,0.618408,0.618408,0.507515,0.705537,0.377117,0.765552,0.232228,0.796148,0.078414,0.796148,-0.078414,0.765552,-0.232228,0.705537,-0.377117,0.618408,-0.507515,0.507515,-0.618408,0.377117,-0.705537,0.232228,-0.765552,0.078414,-0.796148,0.000000,-0.796148,0.000000,-0.800000,-0.600000,-0.800000,
-0.603843,-0.796157,-0.639018,-0.796157,-0.711114,-0.766294,-0.766294,-0.711114,-0.796157,-0.639018,-0.796157,-0.603843,-0.800000,-0.600000,-0.800000,0.600000,-0.796157,0.603843,-0.796157,0.639018,-0.766294,0.711114,-0.711114,0.766294,-0.639018,0.796157,-0.603843,0.796157,-0.600000,0.800000,0.000000,0.800000,0.000000,0.796148,0.000000,0.796148,$1*%
G04 Aperture macros list end*
%ADD10C,2.100000*%
%ADD11C,3.000000*%
%ADD12R,1.700000X1.700000*%
%ADD13C,1.700000*%
%ADD14R,1.303000X1.303000*%
%ADD15C,1.303000*%
%ADD16C,3.200000*%
%ADD17R,2.100000X2.100000*%
%ADD18C,1.725000*%
%ADD19R,1.500000X1.500000*%
%ADD20C,1.500000*%
%ADD21C,4.300000*%
%ADD22RoundRect,0.200000X-0.600000X0.600000X-0.600000X-0.600000X0.600000X-0.600000X0.600000X0.600000X0*%
%ADD23C,1.600000*%
%ADD24FreePoly0,270.000000*%
%ADD25FreePoly1,270.000000*%
%ADD26C,2.550000*%
%ADD27R,3.500000X1.850000*%
%ADD28RoundRect,0.250000X-0.412500X-1.100000X0.412500X-1.100000X0.412500X1.100000X-0.412500X1.100000X0*%
%ADD29R,0.850000X1.050000*%
%ADD30RoundRect,0.250000X1.075000X-0.400000X1.075000X0.400000X-1.075000X0.400000X-1.075000X-0.400000X0*%
%ADD31RoundRect,0.250000X0.412500X1.100000X-0.412500X1.100000X-0.412500X-1.100000X0.412500X-1.100000X0*%
%ADD32R,1.850000X3.500000*%
%ADD33R,1.050000X0.850000*%
%ADD34RoundRect,0.250000X0.400000X1.075000X-0.400000X1.075000X-0.400000X-1.075000X0.400000X-1.075000X0*%
%ADD35R,2.250000X3.200000*%
%ADD36RoundRect,0.250000X1.100000X-0.412500X1.100000X0.412500X-1.100000X0.412500X-1.100000X-0.412500X0*%
%ADD37C,1.217000*%
%ADD38RoundRect,0.250000X-0.400000X-1.075000X0.400000X-1.075000X0.400000X1.075000X-0.400000X1.075000X0*%
%ADD39RoundRect,0.250000X-1.100000X0.412500X-1.100000X-0.412500X1.100000X-0.412500X1.100000X0.412500X0*%
G04 APERTURE END LIST*
D10*
%TO.C,J1*%
X154760000Y-5000000D03*
X158570000Y-5000000D03*
X162380000Y-5000000D03*
X166190000Y-5000000D03*
X170000000Y-5000000D03*
X173810000Y-5000000D03*
%TD*%
D11*
%TO.C,TP12*%
X165500000Y-14000000D03*
%TD*%
D12*
%TO.C,J29*%
X109960000Y-14500000D03*
D13*
X112500000Y-14500000D03*
%TD*%
D14*
%TO.C,PS6*%
X75000000Y-6400000D03*
D15*
X72460000Y-6400000D03*
X69920000Y-6400000D03*
X62300000Y-6400000D03*
X59760000Y-6400000D03*
X57220000Y-6400000D03*
%TD*%
D16*
%TO.C,H1*%
X23500000Y-51000000D03*
%TD*%
D11*
%TO.C,TP29*%
X193000000Y-56500000D03*
%TD*%
%TO.C,TP33*%
X161500000Y-56500000D03*
%TD*%
%TO.C,TP32*%
X186500000Y-56500000D03*
%TD*%
D17*
%TO.C,J8*%
X279000000Y-10000000D03*
D10*
X279000000Y-13810000D03*
X279000000Y-17620000D03*
X279000000Y-21430000D03*
X279000000Y-25240000D03*
X279000000Y-29050000D03*
X279000000Y-32860000D03*
X279000000Y-36670000D03*
%TD*%
D11*
%TO.C,TP34*%
X171500000Y-56500000D03*
%TD*%
D18*
%TO.C,PS2*%
X141085000Y-36825000D03*
X141085000Y-34285000D03*
X141085000Y-26665000D03*
X141085000Y-21585000D03*
%TD*%
D19*
%TO.C,PS1*%
X33740000Y-37320000D03*
D20*
X33740000Y-34780000D03*
X33740000Y-32240000D03*
X33740000Y-17000000D03*
X33740000Y-11920000D03*
X18500000Y-11920000D03*
X18500000Y-17000000D03*
X18500000Y-32240000D03*
X18500000Y-34780000D03*
%TD*%
D21*
%TO.C,H5*%
X190000000Y-45000000D03*
%TD*%
%TO.C,H8*%
X291000000Y-6000000D03*
%TD*%
D11*
%TO.C,TP24*%
X61000000Y-49500000D03*
%TD*%
%TO.C,TP11*%
X142000000Y-14000000D03*
%TD*%
D21*
%TO.C,H3*%
X100000000Y-45000000D03*
%TD*%
D22*
%TO.C,A1*%
X104817500Y-16610000D03*
D23*
X102277500Y-16610000D03*
D24*
X99737500Y-16610000D03*
D23*
X97197500Y-16610000D03*
X94657500Y-16610000D03*
X92117500Y-16610000D03*
X89577500Y-16610000D03*
D24*
X87037500Y-16610000D03*
D23*
X84497500Y-16610000D03*
X81957500Y-16610000D03*
X79417500Y-16610000D03*
X76877500Y-16610000D03*
D24*
X74337500Y-16610000D03*
D23*
X71797500Y-16610000D03*
X69257500Y-16610000D03*
X66717500Y-16610000D03*
X64177500Y-16610000D03*
D24*
X61637500Y-16610000D03*
D23*
X59097500Y-16610000D03*
X56557500Y-16610000D03*
X56557500Y-34390000D03*
X59097500Y-34390000D03*
D25*
X61637500Y-34390000D03*
D23*
X64177500Y-34390000D03*
X66717500Y-34390000D03*
X69257500Y-34390000D03*
X71797500Y-34390000D03*
D25*
X74337500Y-34390000D03*
D23*
X76877500Y-34390000D03*
X79417500Y-34390000D03*
X81957500Y-34390000D03*
X84497500Y-34390000D03*
D25*
X87037500Y-34390000D03*
D23*
X89577500Y-34390000D03*
X92117500Y-34390000D03*
X94657500Y-34390000D03*
X97197500Y-34390000D03*
D25*
X99737500Y-34390000D03*
D23*
X102277500Y-34390000D03*
X104817500Y-34390000D03*
%TD*%
D16*
%TO.C,H7*%
X266500000Y-51000000D03*
%TD*%
D10*
%TO.C,J2*%
X119760000Y-5000000D03*
X123570000Y-5000000D03*
X127380000Y-5000000D03*
X131190000Y-5000000D03*
X135000000Y-5000000D03*
X138810000Y-5000000D03*
%TD*%
D17*
%TO.C,J7*%
X205000000Y-9880000D03*
D10*
X205000000Y-13690000D03*
X205000000Y-17500000D03*
X205000000Y-21310000D03*
X205000000Y-25120000D03*
X205000000Y-28930000D03*
X205000000Y-32740000D03*
X205000000Y-36550000D03*
%TD*%
D11*
%TO.C,TP23*%
X78500000Y-49500000D03*
%TD*%
D18*
%TO.C,PS3*%
X165000000Y-37290000D03*
X165000000Y-34750000D03*
X165000000Y-27130000D03*
X165000000Y-22050000D03*
%TD*%
D26*
%TO.C,J3*%
X10000000Y-25000000D03*
X10000000Y-19920000D03*
%TD*%
D21*
%TO.C,H4*%
X7000000Y-5000000D03*
%TD*%
D11*
%TO.C,TP21*%
X72500000Y-49500000D03*
%TD*%
%TO.C,TP31*%
X176500000Y-56500000D03*
%TD*%
%TO.C,TP22*%
X66500000Y-49500000D03*
%TD*%
%TO.C,TP35*%
X181500000Y-56500000D03*
%TD*%
%TO.C,TP30*%
X166500000Y-56500000D03*
%TD*%
D27*
%TO.C,C140*%
X43300000Y-45000000D03*
X38000000Y-45000000D03*
%TD*%
D28*
%TO.C,C119*%
X158402500Y-18715000D03*
X161527500Y-18715000D03*
%TD*%
D29*
%TO.C,Z14*%
X138000000Y-12500000D03*
X138000000Y-16100000D03*
%TD*%
D26*
%TO.C,J4*%
X171880000Y-10000000D03*
X176960000Y-10000000D03*
X182040000Y-10000000D03*
X187120000Y-10000000D03*
%TD*%
D28*
%TO.C,C133*%
X94687500Y-25500000D03*
X97812500Y-25500000D03*
%TD*%
%TO.C,C16*%
X150375000Y-38250000D03*
X153500000Y-38250000D03*
%TD*%
D30*
%TO.C,R12*%
X87000000Y-31800000D03*
X87000000Y-28700000D03*
%TD*%
D31*
%TO.C,C20*%
X162562500Y-27500000D03*
X159437500Y-27500000D03*
%TD*%
D32*
%TO.C,C151*%
X82936280Y-7650000D03*
X82936280Y-2350000D03*
%TD*%
D33*
%TO.C,Z12*%
X158665000Y-13715000D03*
X162265000Y-13715000D03*
%TD*%
D32*
%TO.C,C153*%
X26000000Y-9150000D03*
X26000000Y-3850000D03*
%TD*%
D34*
%TO.C,R115*%
X130775000Y-23291000D03*
X127675000Y-23291000D03*
%TD*%
D28*
%TO.C,C50*%
X15437500Y-29500000D03*
X18562500Y-29500000D03*
%TD*%
D35*
%TO.C,D4*%
X13000000Y-37000000D03*
X6100000Y-37000000D03*
%TD*%
D36*
%TO.C,C49*%
X21500000Y-37000000D03*
X21500000Y-33875000D03*
%TD*%
D28*
%TO.C,C14*%
X126937500Y-37000000D03*
X130062500Y-37000000D03*
%TD*%
D30*
%TO.C,R120*%
X129500000Y-10550000D03*
X129500000Y-7450000D03*
%TD*%
D28*
%TO.C,C132*%
X94687500Y-30000000D03*
X97812500Y-30000000D03*
%TD*%
%TO.C,C52*%
X32437500Y-2500000D03*
X35562500Y-2500000D03*
%TD*%
%TO.C,C13*%
X126875000Y-40500000D03*
X130000000Y-40500000D03*
%TD*%
%TO.C,C51*%
X32437500Y-6000000D03*
X35562500Y-6000000D03*
%TD*%
D29*
%TO.C,Z15*%
X129500000Y-12400000D03*
X129500000Y-16000000D03*
%TD*%
D37*
%TO.C,F1*%
X3000000Y-29450000D03*
X3000000Y-34550000D03*
%TD*%
D30*
%TO.C,R116*%
X125000000Y-10550000D03*
X125000000Y-7450000D03*
%TD*%
D31*
%TO.C,C18*%
X139125000Y-27000000D03*
X136000000Y-27000000D03*
%TD*%
D32*
%TO.C,C148*%
X106336280Y-7650000D03*
X106336280Y-2350000D03*
%TD*%
%TO.C,C146*%
X26000000Y-19650000D03*
X26000000Y-14350000D03*
%TD*%
D27*
%TO.C,C152*%
X46850000Y-19500000D03*
X41550000Y-19500000D03*
%TD*%
%TO.C,C142*%
X21500000Y-42500000D03*
X16200000Y-42500000D03*
%TD*%
D30*
%TO.C,R118*%
X138500000Y-10550000D03*
X138500000Y-7450000D03*
%TD*%
%TO.C,R112*%
X165545000Y-10391000D03*
X165545000Y-7291000D03*
%TD*%
%TO.C,R108*%
X150545000Y-10391000D03*
X150545000Y-7291000D03*
%TD*%
D12*
%TO.C,J5*%
X291000000Y-16920000D03*
D13*
X293540000Y-16920000D03*
X291000000Y-19460000D03*
X293540000Y-19460000D03*
X291000000Y-22000000D03*
X293540000Y-22000000D03*
X291000000Y-24540000D03*
X293540000Y-24540000D03*
X291000000Y-27080000D03*
X293540000Y-27080000D03*
X291000000Y-29620000D03*
X293540000Y-29620000D03*
X291000000Y-32160000D03*
X293540000Y-32160000D03*
X291000000Y-34700000D03*
X293540000Y-34700000D03*
X291000000Y-37240000D03*
X293540000Y-37240000D03*
X291000000Y-39780000D03*
X293540000Y-39780000D03*
%TD*%
D29*
%TO.C,Z16*%
X134000000Y-12500000D03*
X134000000Y-16100000D03*
%TD*%
D28*
%TO.C,C15*%
X150312500Y-35000000D03*
X153437500Y-35000000D03*
%TD*%
D32*
%TO.C,C149*%
X98536280Y-7650000D03*
X98536280Y-2350000D03*
%TD*%
D38*
%TO.C,R121*%
X134675000Y-23291000D03*
X137775000Y-23291000D03*
%TD*%
D31*
%TO.C,C121*%
X137500000Y-19000000D03*
X134375000Y-19000000D03*
%TD*%
D27*
%TO.C,C144*%
X47500000Y-10000000D03*
X42200000Y-10000000D03*
%TD*%
D30*
%TO.C,R110*%
X155545000Y-10391000D03*
X155545000Y-7291000D03*
%TD*%
%TO.C,R114*%
X160545000Y-10391000D03*
X160545000Y-7291000D03*
%TD*%
D34*
%TO.C,R13*%
X179500000Y-4500000D03*
X176400000Y-4500000D03*
%TD*%
D39*
%TO.C,C23*%
X148750000Y-23125000D03*
X148750000Y-26250000D03*
%TD*%
D12*
%TO.C,J12*%
X82660000Y-40225000D03*
D13*
X82660000Y-42765000D03*
X80120000Y-40225000D03*
X80120000Y-42765000D03*
X77580000Y-40225000D03*
X77580000Y-42765000D03*
X75040000Y-40225000D03*
X75040000Y-42765000D03*
X72500000Y-40225000D03*
X72500000Y-42765000D03*
X69960000Y-40225000D03*
X69960000Y-42765000D03*
X67420000Y-40225000D03*
X67420000Y-42765000D03*
X64880000Y-40225000D03*
X64880000Y-42765000D03*
X62340000Y-40225000D03*
X62340000Y-42765000D03*
X59800000Y-40225000D03*
X59800000Y-42765000D03*
%TD*%
D27*
%TO.C,C141*%
X25200000Y-34000000D03*
X30500000Y-34000000D03*
%TD*%
D32*
%TO.C,C150*%
X90736280Y-7650000D03*
X90736280Y-2350000D03*
%TD*%
D38*
%TO.C,R113*%
X158415000Y-23715000D03*
X161515000Y-23715000D03*
%TD*%
D31*
%TO.C,C116*%
X154527500Y-18715000D03*
X151402500Y-18715000D03*
%TD*%
D27*
%TO.C,C143*%
X32800000Y-43500000D03*
X27500000Y-43500000D03*
%TD*%
D36*
%TO.C,C21*%
X124000000Y-27562500D03*
X124000000Y-24437500D03*
%TD*%
D30*
%TO.C,R122*%
X134000000Y-10550000D03*
X134000000Y-7450000D03*
%TD*%
D12*
%TO.C,J13*%
X157780000Y-41710000D03*
D13*
X157780000Y-44250000D03*
X155240000Y-41710000D03*
X155240000Y-44250000D03*
X152700000Y-41710000D03*
X152700000Y-44250000D03*
X150160000Y-41710000D03*
X150160000Y-44250000D03*
X147620000Y-41710000D03*
X147620000Y-44250000D03*
X145080000Y-41710000D03*
X145080000Y-44250000D03*
X142540000Y-41710000D03*
X142540000Y-44250000D03*
X140000000Y-41710000D03*
X140000000Y-44250000D03*
X137460000Y-41710000D03*
X137460000Y-44250000D03*
X134920000Y-41710000D03*
X134920000Y-44250000D03*
%TD*%
D33*
%TO.C,Z9*%
X154765000Y-15215000D03*
X151165000Y-15215000D03*
%TD*%
D27*
%TO.C,C180*%
X43000000Y-54000000D03*
X37700000Y-54000000D03*
%TD*%
D12*
%TO.C,J14*%
X195420000Y-4800000D03*
D13*
X197960000Y-4800000D03*
X195420000Y-7340000D03*
X197960000Y-7340000D03*
X195420000Y-9880000D03*
X197960000Y-9880000D03*
X195420000Y-12420000D03*
X197960000Y-12420000D03*
X195420000Y-14960000D03*
X197960000Y-14960000D03*
X195420000Y-17500000D03*
X197960000Y-17500000D03*
X195420000Y-20040000D03*
X197960000Y-20040000D03*
X195420000Y-22580000D03*
X197960000Y-22580000D03*
X195420000Y-25120000D03*
X197960000Y-25120000D03*
X195420000Y-27660000D03*
X197960000Y-27660000D03*
%TD*%
D29*
%TO.C,Z13*%
X125000000Y-12400000D03*
X125000000Y-16000000D03*
%TD*%
D34*
%TO.C,R107*%
X154515000Y-23715000D03*
X151415000Y-23715000D03*
%TD*%
D12*
%TO.C,J11*%
X235460000Y-4840000D03*
D13*
X238000000Y-4840000D03*
X235460000Y-7380000D03*
X238000000Y-7380000D03*
X235460000Y-9920000D03*
X238000000Y-9920000D03*
X235460000Y-12460000D03*
X238000000Y-12460000D03*
X235460000Y-15000000D03*
X238000000Y-15000000D03*
X235460000Y-17540000D03*
X238000000Y-17540000D03*
X235460000Y-20080000D03*
X238000000Y-20080000D03*
X235460000Y-22620000D03*
X238000000Y-22620000D03*
X235460000Y-25160000D03*
X238000000Y-25160000D03*
X235460000Y-27700000D03*
X238000000Y-27700000D03*
%TD*%
M02*
