%TF.GenerationSoftware,KiCad,Pcbnew,9.0.1*%
%TF.CreationDate,2026-02-07T16:56:34-08:00*%
%TF.ProjectId,ControlBoard,436f6e74-726f-46c4-926f-6172642e6b69,rev?*%
%TF.SameCoordinates,Original*%
%TF.FileFunction,Paste,Bot*%
%TF.FilePolarity,Positive*%
%FSLAX46Y46*%
G04 Gerber Fmt 4.6, Leading zero omitted, Abs format (unit mm)*
G04 Created by KiCad (PCBNEW 9.0.1) date 2026-02-07 16:56:34*
%MOMM*%
%LPD*%
G01*
G04 APERTURE LIST*
G04 Aperture macros list*
%AMRoundRect*
0 Rectangle with rounded corners*
0 $1 Rounding radius*
0 $2 $3 $4 $5 $6 $7 $8 $9 X,Y pos of 4 corners*
0 Add a 4 corners polygon primitive as box body*
4,1,4,$2,$3,$4,$5,$6,$7,$8,$9,$2,$3,0*
0 Add four circle primitives for the rounded corners*
1,1,$1+$1,$2,$3*
1,1,$1+$1,$4,$5*
1,1,$1+$1,$6,$7*
1,1,$1+$1,$8,$9*
0 Add four rect primitives between the rounded corners*
20,1,$1+$1,$2,$3,$4,$5,0*
20,1,$1+$1,$4,$5,$6,$7,0*
20,1,$1+$1,$6,$7,$8,$9,0*
20,1,$1+$1,$8,$9,$2,$3,0*%
G04 Aperture macros list end*
%ADD10R,3.500000X1.850000*%
%ADD11RoundRect,0.250000X-0.412500X-1.100000X0.412500X-1.100000X0.412500X1.100000X-0.412500X1.100000X0*%
%ADD12R,0.850000X1.050000*%
%ADD13RoundRect,0.250000X1.075000X-0.400000X1.075000X0.400000X-1.075000X0.400000X-1.075000X-0.400000X0*%
%ADD14RoundRect,0.250000X0.412500X1.100000X-0.412500X1.100000X-0.412500X-1.100000X0.412500X-1.100000X0*%
%ADD15R,1.850000X3.500000*%
%ADD16R,1.050000X0.850000*%
%ADD17RoundRect,0.250000X0.400000X1.075000X-0.400000X1.075000X-0.400000X-1.075000X0.400000X-1.075000X0*%
%ADD18R,2.250000X3.200000*%
%ADD19RoundRect,0.250000X1.100000X-0.412500X1.100000X0.412500X-1.100000X0.412500X-1.100000X-0.412500X0*%
%ADD20RoundRect,0.250000X-0.400000X-1.075000X0.400000X-1.075000X0.400000X1.075000X-0.400000X1.075000X0*%
%ADD21RoundRect,0.250000X-1.100000X0.412500X-1.100000X-0.412500X1.100000X-0.412500X1.100000X0.412500X0*%
G04 APERTURE END LIST*
D10*
%TO.C,C140*%
X43300000Y-45000000D03*
X38000000Y-45000000D03*
%TD*%
D11*
%TO.C,C119*%
X158402500Y-18715000D03*
X161527500Y-18715000D03*
%TD*%
D12*
%TO.C,Z14*%
X138000000Y-12500000D03*
X138000000Y-16100000D03*
%TD*%
D11*
%TO.C,C133*%
X94687500Y-25500000D03*
X97812500Y-25500000D03*
%TD*%
%TO.C,C16*%
X150375000Y-38250000D03*
X153500000Y-38250000D03*
%TD*%
D13*
%TO.C,R12*%
X87000000Y-31800000D03*
X87000000Y-28700000D03*
%TD*%
D14*
%TO.C,C20*%
X162562500Y-27500000D03*
X159437500Y-27500000D03*
%TD*%
D15*
%TO.C,C151*%
X82936280Y-7650000D03*
X82936280Y-2350000D03*
%TD*%
D16*
%TO.C,Z12*%
X158665000Y-13715000D03*
X162265000Y-13715000D03*
%TD*%
D15*
%TO.C,C153*%
X26000000Y-9150000D03*
X26000000Y-3850000D03*
%TD*%
D17*
%TO.C,R115*%
X130775000Y-23291000D03*
X127675000Y-23291000D03*
%TD*%
D11*
%TO.C,C50*%
X15437500Y-29500000D03*
X18562500Y-29500000D03*
%TD*%
D18*
%TO.C,D4*%
X13000000Y-37000000D03*
X6100000Y-37000000D03*
%TD*%
D19*
%TO.C,C49*%
X21500000Y-37000000D03*
X21500000Y-33875000D03*
%TD*%
D11*
%TO.C,C14*%
X126937500Y-37000000D03*
X130062500Y-37000000D03*
%TD*%
D13*
%TO.C,R120*%
X129500000Y-10550000D03*
X129500000Y-7450000D03*
%TD*%
D11*
%TO.C,C132*%
X94687500Y-30000000D03*
X97812500Y-30000000D03*
%TD*%
%TO.C,C52*%
X32437500Y-2500000D03*
X35562500Y-2500000D03*
%TD*%
%TO.C,C13*%
X126875000Y-40500000D03*
X130000000Y-40500000D03*
%TD*%
%TO.C,C51*%
X32437500Y-6000000D03*
X35562500Y-6000000D03*
%TD*%
D12*
%TO.C,Z15*%
X129500000Y-12400000D03*
X129500000Y-16000000D03*
%TD*%
D13*
%TO.C,R116*%
X125000000Y-10550000D03*
X125000000Y-7450000D03*
%TD*%
D14*
%TO.C,C18*%
X139125000Y-27000000D03*
X136000000Y-27000000D03*
%TD*%
D15*
%TO.C,C148*%
X106336280Y-7650000D03*
X106336280Y-2350000D03*
%TD*%
%TO.C,C146*%
X26000000Y-19650000D03*
X26000000Y-14350000D03*
%TD*%
D10*
%TO.C,C152*%
X46850000Y-19500000D03*
X41550000Y-19500000D03*
%TD*%
%TO.C,C142*%
X21500000Y-42500000D03*
X16200000Y-42500000D03*
%TD*%
D13*
%TO.C,R118*%
X138500000Y-10550000D03*
X138500000Y-7450000D03*
%TD*%
%TO.C,R112*%
X165545000Y-10391000D03*
X165545000Y-7291000D03*
%TD*%
%TO.C,R108*%
X150545000Y-10391000D03*
X150545000Y-7291000D03*
%TD*%
D12*
%TO.C,Z16*%
X134000000Y-12500000D03*
X134000000Y-16100000D03*
%TD*%
D11*
%TO.C,C15*%
X150312500Y-35000000D03*
X153437500Y-35000000D03*
%TD*%
D15*
%TO.C,C149*%
X98536280Y-7650000D03*
X98536280Y-2350000D03*
%TD*%
D20*
%TO.C,R121*%
X134675000Y-23291000D03*
X137775000Y-23291000D03*
%TD*%
D14*
%TO.C,C121*%
X137500000Y-19000000D03*
X134375000Y-19000000D03*
%TD*%
D10*
%TO.C,C144*%
X47500000Y-10000000D03*
X42200000Y-10000000D03*
%TD*%
D13*
%TO.C,R110*%
X155545000Y-10391000D03*
X155545000Y-7291000D03*
%TD*%
%TO.C,R114*%
X160545000Y-10391000D03*
X160545000Y-7291000D03*
%TD*%
D17*
%TO.C,R13*%
X179500000Y-4500000D03*
X176400000Y-4500000D03*
%TD*%
D21*
%TO.C,C23*%
X148750000Y-23125000D03*
X148750000Y-26250000D03*
%TD*%
D10*
%TO.C,C141*%
X25200000Y-34000000D03*
X30500000Y-34000000D03*
%TD*%
D15*
%TO.C,C150*%
X90736280Y-7650000D03*
X90736280Y-2350000D03*
%TD*%
D20*
%TO.C,R113*%
X158415000Y-23715000D03*
X161515000Y-23715000D03*
%TD*%
D14*
%TO.C,C116*%
X154527500Y-18715000D03*
X151402500Y-18715000D03*
%TD*%
D10*
%TO.C,C143*%
X32800000Y-43500000D03*
X27500000Y-43500000D03*
%TD*%
D19*
%TO.C,C21*%
X124000000Y-27562500D03*
X124000000Y-24437500D03*
%TD*%
D13*
%TO.C,R122*%
X134000000Y-10550000D03*
X134000000Y-7450000D03*
%TD*%
D16*
%TO.C,Z9*%
X154765000Y-15215000D03*
X151165000Y-15215000D03*
%TD*%
D10*
%TO.C,C180*%
X43000000Y-54000000D03*
X37700000Y-54000000D03*
%TD*%
D12*
%TO.C,Z13*%
X125000000Y-12400000D03*
X125000000Y-16000000D03*
%TD*%
D17*
%TO.C,R107*%
X154515000Y-23715000D03*
X151415000Y-23715000D03*
%TD*%
M02*
